<?xml version="1.0" encoding="utf-8" standalone="no"?>
<!DOCTYPE svg PUBLIC "-//W3C//DTD SVG 1.1//EN"
  "http://www.w3.org/Graphics/SVG/1.1/DTD/svg11.dtd">
<!-- Created with matplotlib (http://matplotlib.org/) -->
<svg height="345pt" version="1.1" viewBox="0 0 460 345" width="460pt" xmlns="http://www.w3.org/2000/svg" xmlns:xlink="http://www.w3.org/1999/xlink">
 <defs>
  <style type="text/css">
*{stroke-linecap:butt;stroke-linejoin:round;}
  </style>
 </defs>
 <g id="figure_1">
  <g id="patch_1">
   <path d="M 0 345.6 
L 460.8 345.6 
L 460.8 0 
L 0 0 
z
" style="fill:#ffffff;"/>
  </g>
  <g id="axes_1">
   <g id="patch_2">
    <path d="M 34.16 291.28 
L 450.672 291.28 
L 450.672 5.52 
L 34.16 5.52 
z
" style="fill:#ffffff;"/>
   </g>
   <g id="matplotlib.axis_1">
    <g id="xtick_1">
     <g id="line2d_1">
      <path clip-path="url(#pcdb12c53f1)" d="M 89.298659 291.28 
L 89.298659 5.52 
" style="fill:none;stroke:#b0b0b0;stroke-linecap:square;stroke-width:0.8;"/>
     </g>
     <g id="line2d_2">
      <defs>
       <path d="M 0 0 
L 0 3.5 
" id="m55bcc8b09c" style="stroke:#000000;stroke-width:0.8;"/>
      </defs>
      <g>
       <use style="stroke:#000000;stroke-width:0.8;" x="89.298659" xlink:href="#m55bcc8b09c" y="291.28"/>
      </g>
     </g>
     <g id="text_1">
      <!-- -3 -->
      <defs>
       <path d="M 4.890625 31.390625 
L 31.203125 31.390625 
L 31.203125 23.390625 
L 4.890625 23.390625 
z
" id="DejaVuSans-2d"/>
       <path d="M 40.578125 39.3125 
Q 47.65625 37.796875 51.625 33 
Q 55.609375 28.21875 55.609375 21.1875 
Q 55.609375 10.40625 48.1875 4.484375 
Q 40.765625 -1.421875 27.09375 -1.421875 
Q 22.515625 -1.421875 17.65625 -0.515625 
Q 12.796875 0.390625 7.625 2.203125 
L 7.625 11.71875 
Q 11.71875 9.328125 16.59375 8.109375 
Q 21.484375 6.890625 26.8125 6.890625 
Q 36.078125 6.890625 40.9375 10.546875 
Q 45.796875 14.203125 45.796875 21.1875 
Q 45.796875 27.640625 41.28125 31.265625 
Q 36.765625 34.90625 28.71875 34.90625 
L 20.21875 34.90625 
L 20.21875 43.015625 
L 29.109375 43.015625 
Q 36.375 43.015625 40.234375 45.921875 
Q 44.09375 48.828125 44.09375 54.296875 
Q 44.09375 59.90625 40.109375 62.90625 
Q 36.140625 65.921875 28.71875 65.921875 
Q 24.65625 65.921875 20.015625 65.03125 
Q 15.375 64.15625 9.8125 62.3125 
L 9.8125 71.09375 
Q 15.4375 72.65625 20.34375 73.4375 
Q 25.25 74.21875 29.59375 74.21875 
Q 40.828125 74.21875 47.359375 69.109375 
Q 53.90625 64.015625 53.90625 55.328125 
Q 53.90625 49.265625 50.4375 45.09375 
Q 46.96875 40.921875 40.578125 39.3125 
z
" id="DejaVuSans-33"/>
      </defs>
      <g transform="translate(79.328347 313.476875)scale(0.2 -0.2)">
       <use xlink:href="#DejaVuSans-2d"/>
       <use x="36.083984" xlink:href="#DejaVuSans-33"/>
      </g>
     </g>
    </g>
    <g id="xtick_2">
     <g id="line2d_3">
      <path clip-path="url(#pcdb12c53f1)" d="M 191.376886 291.28 
L 191.376886 5.52 
" style="fill:none;stroke:#b0b0b0;stroke-linecap:square;stroke-width:0.8;"/>
     </g>
     <g id="line2d_4">
      <g>
       <use style="stroke:#000000;stroke-width:0.8;" x="191.376886" xlink:href="#m55bcc8b09c" y="291.28"/>
      </g>
     </g>
     <g id="text_2">
      <!-- -1 -->
      <defs>
       <path d="M 12.40625 8.296875 
L 28.515625 8.296875 
L 28.515625 63.921875 
L 10.984375 60.40625 
L 10.984375 69.390625 
L 28.421875 72.90625 
L 38.28125 72.90625 
L 38.28125 8.296875 
L 54.390625 8.296875 
L 54.390625 0 
L 12.40625 0 
z
" id="DejaVuSans-31"/>
      </defs>
      <g transform="translate(181.406574 313.476875)scale(0.2 -0.2)">
       <use xlink:href="#DejaVuSans-2d"/>
       <use x="36.083984" xlink:href="#DejaVuSans-31"/>
      </g>
     </g>
    </g>
    <g id="xtick_3">
     <g id="line2d_5">
      <path clip-path="url(#pcdb12c53f1)" d="M 293.455114 291.28 
L 293.455114 5.52 
" style="fill:none;stroke:#b0b0b0;stroke-linecap:square;stroke-width:0.8;"/>
     </g>
     <g id="line2d_6">
      <g>
       <use style="stroke:#000000;stroke-width:0.8;" x="293.455114" xlink:href="#m55bcc8b09c" y="291.28"/>
      </g>
     </g>
     <g id="text_3">
      <!-- 1 -->
      <g transform="translate(287.092614 313.476875)scale(0.2 -0.2)">
       <use xlink:href="#DejaVuSans-31"/>
      </g>
     </g>
    </g>
    <g id="xtick_4">
     <g id="line2d_7">
      <path clip-path="url(#pcdb12c53f1)" d="M 395.533341 291.28 
L 395.533341 5.52 
" style="fill:none;stroke:#b0b0b0;stroke-linecap:square;stroke-width:0.8;"/>
     </g>
     <g id="line2d_8">
      <g>
       <use style="stroke:#000000;stroke-width:0.8;" x="395.533341" xlink:href="#m55bcc8b09c" y="291.28"/>
      </g>
     </g>
     <g id="text_4">
      <!-- 3 -->
      <g transform="translate(389.170841 313.476875)scale(0.2 -0.2)">
       <use xlink:href="#DejaVuSans-33"/>
      </g>
     </g>
    </g>
    <g id="text_5">
     <!-- log10 of FEvals ratio -->
     <defs>
      <path d="M 9.421875 75.984375 
L 18.40625 75.984375 
L 18.40625 0 
L 9.421875 0 
z
" id="DejaVuSans-6c"/>
      <path d="M 30.609375 48.390625 
Q 23.390625 48.390625 19.1875 42.75 
Q 14.984375 37.109375 14.984375 27.296875 
Q 14.984375 17.484375 19.15625 11.84375 
Q 23.34375 6.203125 30.609375 6.203125 
Q 37.796875 6.203125 41.984375 11.859375 
Q 46.1875 17.53125 46.1875 27.296875 
Q 46.1875 37.015625 41.984375 42.703125 
Q 37.796875 48.390625 30.609375 48.390625 
z
M 30.609375 56 
Q 42.328125 56 49.015625 48.375 
Q 55.71875 40.765625 55.71875 27.296875 
Q 55.71875 13.875 49.015625 6.21875 
Q 42.328125 -1.421875 30.609375 -1.421875 
Q 18.84375 -1.421875 12.171875 6.21875 
Q 5.515625 13.875 5.515625 27.296875 
Q 5.515625 40.765625 12.171875 48.375 
Q 18.84375 56 30.609375 56 
z
" id="DejaVuSans-6f"/>
      <path d="M 45.40625 27.984375 
Q 45.40625 37.75 41.375 43.109375 
Q 37.359375 48.484375 30.078125 48.484375 
Q 22.859375 48.484375 18.828125 43.109375 
Q 14.796875 37.75 14.796875 27.984375 
Q 14.796875 18.265625 18.828125 12.890625 
Q 22.859375 7.515625 30.078125 7.515625 
Q 37.359375 7.515625 41.375 12.890625 
Q 45.40625 18.265625 45.40625 27.984375 
z
M 54.390625 6.78125 
Q 54.390625 -7.171875 48.1875 -13.984375 
Q 42 -20.796875 29.203125 -20.796875 
Q 24.46875 -20.796875 20.265625 -20.09375 
Q 16.0625 -19.390625 12.109375 -17.921875 
L 12.109375 -9.1875 
Q 16.0625 -11.328125 19.921875 -12.34375 
Q 23.78125 -13.375 27.78125 -13.375 
Q 36.625 -13.375 41.015625 -8.765625 
Q 45.40625 -4.15625 45.40625 5.171875 
L 45.40625 9.625 
Q 42.625 4.78125 38.28125 2.390625 
Q 33.9375 0 27.875 0 
Q 17.828125 0 11.671875 7.65625 
Q 5.515625 15.328125 5.515625 27.984375 
Q 5.515625 40.671875 11.671875 48.328125 
Q 17.828125 56 27.875 56 
Q 33.9375 56 38.28125 53.609375 
Q 42.625 51.21875 45.40625 46.390625 
L 45.40625 54.6875 
L 54.390625 54.6875 
z
" id="DejaVuSans-67"/>
      <path d="M 31.78125 66.40625 
Q 24.171875 66.40625 20.328125 58.90625 
Q 16.5 51.421875 16.5 36.375 
Q 16.5 21.390625 20.328125 13.890625 
Q 24.171875 6.390625 31.78125 6.390625 
Q 39.453125 6.390625 43.28125 13.890625 
Q 47.125 21.390625 47.125 36.375 
Q 47.125 51.421875 43.28125 58.90625 
Q 39.453125 66.40625 31.78125 66.40625 
z
M 31.78125 74.21875 
Q 44.046875 74.21875 50.515625 64.515625 
Q 56.984375 54.828125 56.984375 36.375 
Q 56.984375 17.96875 50.515625 8.265625 
Q 44.046875 -1.421875 31.78125 -1.421875 
Q 19.53125 -1.421875 13.0625 8.265625 
Q 6.59375 17.96875 6.59375 36.375 
Q 6.59375 54.828125 13.0625 64.515625 
Q 19.53125 74.21875 31.78125 74.21875 
z
" id="DejaVuSans-30"/>
      <path id="DejaVuSans-20"/>
      <path d="M 37.109375 75.984375 
L 37.109375 68.5 
L 28.515625 68.5 
Q 23.6875 68.5 21.796875 66.546875 
Q 19.921875 64.59375 19.921875 59.515625 
L 19.921875 54.6875 
L 34.71875 54.6875 
L 34.71875 47.703125 
L 19.921875 47.703125 
L 19.921875 0 
L 10.890625 0 
L 10.890625 47.703125 
L 2.296875 47.703125 
L 2.296875 54.6875 
L 10.890625 54.6875 
L 10.890625 58.5 
Q 10.890625 67.625 15.140625 71.796875 
Q 19.390625 75.984375 28.609375 75.984375 
z
" id="DejaVuSans-66"/>
      <path d="M 9.8125 72.90625 
L 51.703125 72.90625 
L 51.703125 64.59375 
L 19.671875 64.59375 
L 19.671875 43.109375 
L 48.578125 43.109375 
L 48.578125 34.8125 
L 19.671875 34.8125 
L 19.671875 0 
L 9.8125 0 
z
" id="DejaVuSans-46"/>
      <path d="M 9.8125 72.90625 
L 55.90625 72.90625 
L 55.90625 64.59375 
L 19.671875 64.59375 
L 19.671875 43.015625 
L 54.390625 43.015625 
L 54.390625 34.71875 
L 19.671875 34.71875 
L 19.671875 8.296875 
L 56.78125 8.296875 
L 56.78125 0 
L 9.8125 0 
z
" id="DejaVuSans-45"/>
      <path d="M 2.984375 54.6875 
L 12.5 54.6875 
L 29.59375 8.796875 
L 46.6875 54.6875 
L 56.203125 54.6875 
L 35.6875 0 
L 23.484375 0 
z
" id="DejaVuSans-76"/>
      <path d="M 34.28125 27.484375 
Q 23.390625 27.484375 19.1875 25 
Q 14.984375 22.515625 14.984375 16.5 
Q 14.984375 11.71875 18.140625 8.90625 
Q 21.296875 6.109375 26.703125 6.109375 
Q 34.1875 6.109375 38.703125 11.40625 
Q 43.21875 16.703125 43.21875 25.484375 
L 43.21875 27.484375 
z
M 52.203125 31.203125 
L 52.203125 0 
L 43.21875 0 
L 43.21875 8.296875 
Q 40.140625 3.328125 35.546875 0.953125 
Q 30.953125 -1.421875 24.3125 -1.421875 
Q 15.921875 -1.421875 10.953125 3.296875 
Q 6 8.015625 6 15.921875 
Q 6 25.140625 12.171875 29.828125 
Q 18.359375 34.515625 30.609375 34.515625 
L 43.21875 34.515625 
L 43.21875 35.40625 
Q 43.21875 41.609375 39.140625 45 
Q 35.0625 48.390625 27.6875 48.390625 
Q 23 48.390625 18.546875 47.265625 
Q 14.109375 46.140625 10.015625 43.890625 
L 10.015625 52.203125 
Q 14.9375 54.109375 19.578125 55.046875 
Q 24.21875 56 28.609375 56 
Q 40.484375 56 46.34375 49.84375 
Q 52.203125 43.703125 52.203125 31.203125 
z
" id="DejaVuSans-61"/>
      <path d="M 44.28125 53.078125 
L 44.28125 44.578125 
Q 40.484375 46.53125 36.375 47.5 
Q 32.28125 48.484375 27.875 48.484375 
Q 21.1875 48.484375 17.84375 46.4375 
Q 14.5 44.390625 14.5 40.28125 
Q 14.5 37.15625 16.890625 35.375 
Q 19.28125 33.59375 26.515625 31.984375 
L 29.59375 31.296875 
Q 39.15625 29.25 43.1875 25.515625 
Q 47.21875 21.78125 47.21875 15.09375 
Q 47.21875 7.46875 41.1875 3.015625 
Q 35.15625 -1.421875 24.609375 -1.421875 
Q 20.21875 -1.421875 15.453125 -0.5625 
Q 10.6875 0.296875 5.421875 2 
L 5.421875 11.28125 
Q 10.40625 8.6875 15.234375 7.390625 
Q 20.0625 6.109375 24.8125 6.109375 
Q 31.15625 6.109375 34.5625 8.28125 
Q 37.984375 10.453125 37.984375 14.40625 
Q 37.984375 18.0625 35.515625 20.015625 
Q 33.0625 21.96875 24.703125 23.78125 
L 21.578125 24.515625 
Q 13.234375 26.265625 9.515625 29.90625 
Q 5.8125 33.546875 5.8125 39.890625 
Q 5.8125 47.609375 11.28125 51.796875 
Q 16.75 56 26.8125 56 
Q 31.78125 56 36.171875 55.265625 
Q 40.578125 54.546875 44.28125 53.078125 
z
" id="DejaVuSans-73"/>
      <path d="M 41.109375 46.296875 
Q 39.59375 47.171875 37.8125 47.578125 
Q 36.03125 48 33.890625 48 
Q 26.265625 48 22.1875 43.046875 
Q 18.109375 38.09375 18.109375 28.8125 
L 18.109375 0 
L 9.078125 0 
L 9.078125 54.6875 
L 18.109375 54.6875 
L 18.109375 46.1875 
Q 20.953125 51.171875 25.484375 53.578125 
Q 30.03125 56 36.53125 56 
Q 37.453125 56 38.578125 55.875 
Q 39.703125 55.765625 41.0625 55.515625 
z
" id="DejaVuSans-72"/>
      <path d="M 18.3125 70.21875 
L 18.3125 54.6875 
L 36.8125 54.6875 
L 36.8125 47.703125 
L 18.3125 47.703125 
L 18.3125 18.015625 
Q 18.3125 11.328125 20.140625 9.421875 
Q 21.96875 7.515625 27.59375 7.515625 
L 36.8125 7.515625 
L 36.8125 0 
L 27.59375 0 
Q 17.1875 0 13.234375 3.875 
Q 9.28125 7.765625 9.28125 18.015625 
L 9.28125 47.703125 
L 2.6875 47.703125 
L 2.6875 54.6875 
L 9.28125 54.6875 
L 9.28125 70.21875 
z
" id="DejaVuSans-74"/>
      <path d="M 9.421875 54.6875 
L 18.40625 54.6875 
L 18.40625 0 
L 9.421875 0 
z
M 9.421875 75.984375 
L 18.40625 75.984375 
L 18.40625 64.59375 
L 9.421875 64.59375 
z
" id="DejaVuSans-69"/>
     </defs>
     <g transform="translate(140.111312 336.833125)scale(0.2 -0.2)">
      <use xlink:href="#DejaVuSans-6c"/>
      <use x="27.783203" xlink:href="#DejaVuSans-6f"/>
      <use x="88.964844" xlink:href="#DejaVuSans-67"/>
      <use x="152.441406" xlink:href="#DejaVuSans-31"/>
      <use x="216.064453" xlink:href="#DejaVuSans-30"/>
      <use x="279.6875" xlink:href="#DejaVuSans-20"/>
      <use x="311.474609" xlink:href="#DejaVuSans-6f"/>
      <use x="372.65625" xlink:href="#DejaVuSans-66"/>
      <use x="407.861328" xlink:href="#DejaVuSans-20"/>
      <use x="439.648438" xlink:href="#DejaVuSans-46"/>
      <use x="497.167969" xlink:href="#DejaVuSans-45"/>
      <use x="560.351562" xlink:href="#DejaVuSans-76"/>
      <use x="619.53125" xlink:href="#DejaVuSans-61"/>
      <use x="680.810547" xlink:href="#DejaVuSans-6c"/>
      <use x="708.59375" xlink:href="#DejaVuSans-73"/>
      <use x="760.693359" xlink:href="#DejaVuSans-20"/>
      <use x="792.480469" xlink:href="#DejaVuSans-72"/>
      <use x="833.59375" xlink:href="#DejaVuSans-61"/>
      <use x="894.873047" xlink:href="#DejaVuSans-74"/>
      <use x="934.082031" xlink:href="#DejaVuSans-69"/>
      <use x="961.865234" xlink:href="#DejaVuSans-6f"/>
     </g>
    </g>
   </g>
   <g id="matplotlib.axis_2">
    <g id="ytick_1">
     <g id="line2d_9">
      <path clip-path="url(#pcdb12c53f1)" d="M 34.16 288.478431 
L 450.672 288.478431 
" style="fill:none;stroke:#b0b0b0;stroke-linecap:square;stroke-width:0.8;"/>
     </g>
     <g id="line2d_10">
      <defs>
       <path d="M 0 0 
L -3.5 0 
" id="mf35ff737ac" style="stroke:#000000;stroke-width:0.8;"/>
      </defs>
      <g>
       <use style="stroke:#000000;stroke-width:0.8;" x="34.16" xlink:href="#mf35ff737ac" y="288.478431"/>
      </g>
     </g>
    </g>
    <g id="ytick_2">
     <g id="line2d_11">
      <path clip-path="url(#pcdb12c53f1)" d="M 34.16 218.439216 
L 450.672 218.439216 
" style="fill:none;stroke:#b0b0b0;stroke-linecap:square;stroke-width:0.8;"/>
     </g>
     <g id="line2d_12">
      <g>
       <use style="stroke:#000000;stroke-width:0.8;" x="34.16" xlink:href="#mf35ff737ac" y="218.439216"/>
      </g>
     </g>
    </g>
    <g id="ytick_3">
     <g id="line2d_13">
      <path clip-path="url(#pcdb12c53f1)" d="M 34.16 148.4 
L 450.672 148.4 
" style="fill:none;stroke:#b0b0b0;stroke-linecap:square;stroke-width:0.8;"/>
     </g>
     <g id="line2d_14">
      <g>
       <use style="stroke:#000000;stroke-width:0.8;" x="34.16" xlink:href="#mf35ff737ac" y="148.4"/>
      </g>
     </g>
    </g>
    <g id="ytick_4">
     <g id="line2d_15">
      <path clip-path="url(#pcdb12c53f1)" d="M 34.16 78.360784 
L 450.672 78.360784 
" style="fill:none;stroke:#b0b0b0;stroke-linecap:square;stroke-width:0.8;"/>
     </g>
     <g id="line2d_16">
      <g>
       <use style="stroke:#000000;stroke-width:0.8;" x="34.16" xlink:href="#mf35ff737ac" y="78.360784"/>
      </g>
     </g>
    </g>
    <g id="ytick_5">
     <g id="line2d_17">
      <path clip-path="url(#pcdb12c53f1)" d="M 34.16 8.321569 
L 450.672 8.321569 
" style="fill:none;stroke:#b0b0b0;stroke-linecap:square;stroke-width:0.8;"/>
     </g>
     <g id="line2d_18">
      <g>
       <use style="stroke:#000000;stroke-width:0.8;" x="34.16" xlink:href="#mf35ff737ac" y="8.321569"/>
      </g>
     </g>
    </g>
    <g id="text_6">
     <!-- proportion of trials -->
     <defs>
      <path d="M 18.109375 8.203125 
L 18.109375 -20.796875 
L 9.078125 -20.796875 
L 9.078125 54.6875 
L 18.109375 54.6875 
L 18.109375 46.390625 
Q 20.953125 51.265625 25.265625 53.625 
Q 29.59375 56 35.59375 56 
Q 45.5625 56 51.78125 48.09375 
Q 58.015625 40.1875 58.015625 27.296875 
Q 58.015625 14.40625 51.78125 6.484375 
Q 45.5625 -1.421875 35.59375 -1.421875 
Q 29.59375 -1.421875 25.265625 0.953125 
Q 20.953125 3.328125 18.109375 8.203125 
z
M 48.6875 27.296875 
Q 48.6875 37.203125 44.609375 42.84375 
Q 40.53125 48.484375 33.40625 48.484375 
Q 26.265625 48.484375 22.1875 42.84375 
Q 18.109375 37.203125 18.109375 27.296875 
Q 18.109375 17.390625 22.1875 11.75 
Q 26.265625 6.109375 33.40625 6.109375 
Q 40.53125 6.109375 44.609375 11.75 
Q 48.6875 17.390625 48.6875 27.296875 
z
" id="DejaVuSans-70"/>
      <path d="M 54.890625 33.015625 
L 54.890625 0 
L 45.90625 0 
L 45.90625 32.71875 
Q 45.90625 40.484375 42.875 44.328125 
Q 39.84375 48.1875 33.796875 48.1875 
Q 26.515625 48.1875 22.3125 43.546875 
Q 18.109375 38.921875 18.109375 30.90625 
L 18.109375 0 
L 9.078125 0 
L 9.078125 54.6875 
L 18.109375 54.6875 
L 18.109375 46.1875 
Q 21.34375 51.125 25.703125 53.5625 
Q 30.078125 56 35.796875 56 
Q 45.21875 56 50.046875 50.171875 
Q 54.890625 44.34375 54.890625 33.015625 
z
" id="DejaVuSans-6e"/>
     </defs>
     <g transform="translate(19.000625 241.628125)rotate(-90)scale(0.2 -0.2)">
      <use xlink:href="#DejaVuSans-70"/>
      <use x="63.476562" xlink:href="#DejaVuSans-72"/>
      <use x="104.558594" xlink:href="#DejaVuSans-6f"/>
      <use x="165.740234" xlink:href="#DejaVuSans-70"/>
      <use x="229.216797" xlink:href="#DejaVuSans-6f"/>
      <use x="290.398438" xlink:href="#DejaVuSans-72"/>
      <use x="331.511719" xlink:href="#DejaVuSans-74"/>
      <use x="370.720703" xlink:href="#DejaVuSans-69"/>
      <use x="398.503906" xlink:href="#DejaVuSans-6f"/>
      <use x="459.685547" xlink:href="#DejaVuSans-6e"/>
      <use x="523.064453" xlink:href="#DejaVuSans-20"/>
      <use x="554.851562" xlink:href="#DejaVuSans-6f"/>
      <use x="616.033203" xlink:href="#DejaVuSans-66"/>
      <use x="651.238281" xlink:href="#DejaVuSans-20"/>
      <use x="683.025391" xlink:href="#DejaVuSans-74"/>
      <use x="722.234375" xlink:href="#DejaVuSans-72"/>
      <use x="763.347656" xlink:href="#DejaVuSans-69"/>
      <use x="791.130859" xlink:href="#DejaVuSans-61"/>
      <use x="852.410156" xlink:href="#DejaVuSans-6c"/>
      <use x="880.193359" xlink:href="#DejaVuSans-73"/>
     </g>
    </g>
   </g>
   <g id="line2d_19">
    <path clip-path="url(#pcdb12c53f1)" d="M 34.16 288.478431 
L 50.437399 288.478431 
L 50.437399 288.415333 
L 50.437399 287.531955 
L 63.234054 287.531955 
L 63.234054 287.468857 
L 63.234054 286.58548 
L 66.88357 286.522381 
L 66.88357 286.522381 
L 66.88357 285.639004 
L 67.077939 285.639004 
L 67.077939 285.575905 
L 67.077939 284.692528 
L 69.121551 284.692528 
L 69.121551 284.629429 
L 69.121551 284.503233 
L 69.663313 284.503233 
L 69.663313 284.440134 
L 69.663313 283.556757 
L 69.994842 283.556757 
L 69.994842 283.493658 
L 69.994842 282.610281 
L 72.653225 282.610281 
L 72.653225 282.547182 
L 72.653225 282.420986 
L 77.238868 282.420986 
L 77.238868 282.357887 
L 77.238868 281.47451 
L 79.68463 281.47451 
L 79.68463 281.411411 
L 79.68463 281.285215 
L 85.799576 281.285215 
L 85.799576 281.222116 
L 85.799576 280.338739 
L 86.609207 280.338739 
L 86.609207 280.27564 
L 86.609207 279.392263 
L 87.085487 279.392263 
L 87.085487 279.329164 
L 87.085487 278.445787 
L 91.906668 278.445787 
L 91.906668 278.382689 
L 91.906668 278.256492 
L 94.777656 278.256492 
L 94.777656 278.193393 
L 94.777656 278.067197 
L 101.953887 278.004098 
L 101.953887 277.941 
L 111.8831 277.941 
L 111.8831 277.877901 
L 111.8831 277.751705 
L 114.624743 277.751705 
L 114.624743 277.688606 
L 114.624743 277.625508 
L 117.753998 277.562409 
L 117.753998 276.615934 
L 119.762859 276.552835 
L 119.762859 276.36354 
L 121.972089 276.36354 
L 121.972089 276.300442 
L 121.972089 276.174245 
L 125.084577 276.174245 
L 125.084577 276.111146 
L 125.084577 275.98495 
L 127.186087 275.98495 
L 127.186087 275.921851 
L 127.186087 275.732556 
L 128.706638 275.732556 
L 128.706638 275.669458 
L 128.706638 275.606359 
L 133.038424 275.606359 
L 133.038424 275.543261 
L 133.038424 275.290867 
L 136.112481 275.290867 
L 136.112481 275.227769 
L 136.112481 275.101572 
L 138.427558 275.101572 
L 138.427558 275.038474 
L 138.427558 274.975375 
L 147.313653 274.975375 
L 147.313653 274.912277 
L 147.313653 274.849179 
L 151.294348 274.849179 
L 151.294348 274.78608 
L 151.294348 273.461014 
L 158.347518 273.397916 
L 158.347518 273.334817 
L 159.045218 273.334817 
L 159.045218 273.271719 
L 159.045218 272.45144 
L 161.479793 272.388341 
L 161.479793 272.325243 
L 162.376374 272.262144 
L 162.376374 271.126373 
L 166.298221 271.063275 
L 166.298221 270.558488 
L 168.910597 270.49539 
L 168.910597 270.432291 
L 171.066381 270.369193 
L 171.066381 269.29652 
L 176.231174 269.233422 
L 176.231174 269.170323 
L 177.14955 269.107225 
L 177.14955 267.782159 
L 180.733237 267.71906 
L 180.733237 267.655962 
L 181.339059 267.592863 
L 181.339059 267.529765 
L 183.262579 267.466667 
L 183.262579 267.403568 
L 183.980993 267.34047 
L 184.003623 267.214273 
L 184.870733 267.151175 
L 184.870733 267.088076 
L 185.561319 267.088076 
L 185.561319 267.024978 
L 185.561319 265.573715 
L 187.303163 265.510616 
L 187.303163 265.447518 
L 187.578424 265.38442 
L 187.578424 265.321321 
L 189.468455 265.258223 
L 189.468455 265.195125 
L 191.464557 265.132026 
L 191.572183 264.942731 
L 193.000129 264.879633 
L 193.000129 264.816534 
L 194.544072 264.753436 
L 194.544072 264.690337 
L 195.807114 264.627239 
L 195.807114 264.564141 
L 198.355605 264.501042 
L 198.355605 264.437944 
L 199.282945 264.437944 
L 199.282945 264.374845 
L 199.282945 262.734287 
L 199.800463 262.671189 
L 199.884774 262.544992 
L 200.709668 262.481894 
L 200.748193 262.355697 
L 202.033538 262.292598 
L 202.033538 262.2295 
L 203.004752 262.166402 
L 203.004752 262.103303 
L 204.124177 262.040205 
L 204.124177 261.977107 
L 204.243039 261.977107 
L 204.243039 261.914008 
L 204.243039 261.85091 
L 204.830975 261.787811 
L 204.830975 261.724713 
L 205.185043 261.661615 
L 205.185043 261.598516 
L 206.76611 261.535418 
L 206.76611 261.472319 
L 206.974213 261.409221 
L 206.995164 261.156827 
L 208.477971 261.093729 
L 208.477971 260.967532 
L 208.589428 260.967532 
L 208.589428 260.904434 
L 208.589428 260.841335 
L 208.988826 260.778237 
L 208.988826 260.588942 
L 209.637097 260.525843 
L 209.637097 260.462745 
L 210.845059 260.399647 
L 210.884511 260.27345 
L 211.991735 260.210352 
L 212.092632 260.084155 
L 212.289221 260.021056 
L 212.353532 259.89486 
L 213.093741 259.831761 
L 213.093741 259.768663 
L 214.310544 259.705564 
L 214.310544 259.642466 
L 214.989148 259.579368 
L 214.989148 259.453171 
L 215.461049 259.390072 
L 215.461049 259.326974 
L 215.967507 259.263876 
L 216.012656 259.07458 
L 216.366406 259.011482 
L 216.412054 258.885285 
L 217.083426 258.822187 
L 217.083426 258.759089 
L 217.697766 258.69599 
L 217.697766 258.632892 
L 218.307739 258.569793 
L 218.324934 258.380498 
L 219.160225 258.3174 
L 219.160225 258.254301 
L 220.029517 258.191203 
L 220.029517 258.065006 
L 220.428915 258.001908 
L 220.502435 257.686416 
L 221.672672 257.623317 
L 221.672672 257.560219 
L 221.864993 257.497121 
L 221.864993 257.370924 
L 222.264392 257.307825 
L 222.264392 257.244727 
L 222.559865 257.244727 
L 222.559865 257.181629 
L 222.559865 257.11853 
L 223.181145 257.055432 
L 223.181145 256.992334 
L 223.705468 256.929235 
L 223.705468 256.866137 
L 224.100608 256.803038 
L 224.160076 256.613743 
L 224.342619 256.550645 
L 224.342619 256.487546 
L 224.93905 256.487546 
L 224.93905 256.424448 
L 224.955048 256.235153 
L 225.338448 256.172054 
L 225.448636 255.919661 
L 225.551974 255.856562 
L 225.551974 255.793464 
L 226.066378 255.730366 
L 226.066378 255.667267 
L 226.465776 255.604169 
L 226.465776 255.477972 
L 226.96391 255.414874 
L 226.971529 255.225579 
L 227.254127 255.16248 
L 227.364213 254.973185 
L 227.653525 254.910087 
L 227.755438 254.531496 
L 227.863188 254.468398 
L 227.941325 254.342201 
L 228.82367 254.279103 
L 228.82367 254.216004 
L 229.033483 254.152906 
L 229.033483 254.089807 
L 229.416457 254.089807 
L 229.416457 254.026709 
L 229.416457 253.963611 
L 229.839501 253.963611 
L 229.839501 253.900512 
L 229.865884 253.774315 
L 230.238899 253.774315 
L 230.238899 253.711217 
L 230.238899 253.521922 
L 231.566714 253.458824 
L 231.566714 253.395725 
L 231.980368 253.332627 
L 231.980368 253.269528 
L 232.129492 253.20643 
L 232.230004 253.080233 
L 232.502329 253.017135 
L 232.523598 252.82784 
L 232.701639 252.82784 
L 232.701639 252.764741 
L 232.701639 252.701643 
L 232.954214 252.638544 
L 233.010219 252.323052 
L 233.903016 252.259954 
L 233.903016 252.196856 
L 234.189598 252.133757 
L 234.27062 252.007561 
L 234.389364 251.944462 
L 234.406817 251.818265 
L 234.66988 251.755167 
L 234.66988 251.692069 
L 234.788763 251.692069 
L 234.788763 251.62897 
L 234.822458 251.502773 
L 235.079882 251.439675 
L 235.079882 251.376577 
L 235.453318 251.313478 
L 235.453318 251.25038 
L 235.796743 251.187281 
L 235.796743 251.124183 
L 236.140222 251.061085 
L 236.221852 250.871789 
L 236.415678 250.808691 
L 236.415678 250.745593 
L 236.53962 250.745593 
L 236.53962 250.682494 
L 236.641067 250.303904 
L 236.777525 250.240806 
L 236.831531 250.114609 
L 236.931949 250.05151 
L 236.931949 250.05151 
L 236.931949 249.988412 
L 237.302086 249.925314 
L 237.302086 249.862215 
L 237.469799 249.862215 
L 237.469799 249.799117 
L 237.469799 249.736018 
L 237.752727 249.67292 
L 237.752727 249.609822 
L 238.403999 249.546723 
L 238.403999 249.29433 
L 238.690801 249.231231 
L 238.690801 249.168133 
L 238.959048 249.105034 
L 238.959048 249.041936 
L 239.226441 249.041936 
L 239.226441 248.978838 
L 239.226441 248.915739 
L 239.618257 248.852641 
L 239.69043 248.726444 
L 239.944019 248.663346 
L 240.01878 248.474051 
L 240.120917 248.410952 
L 240.159884 248.284755 
L 240.42048 248.221657 
L 240.523352 247.969263 
L 240.653535 247.969263 
L 240.653535 247.906165 
L 240.668431 247.590673 
L 240.932219 247.527575 
L 240.967909 247.401378 
L 241.166881 247.401378 
L 241.166881 247.338279 
L 241.176584 247.148984 
L 241.517255 247.148984 
L 241.517255 247.085886 
L 241.517255 247.022787 
L 242.045529 246.959689 
L 242.151591 246.770394 
L 242.416 246.707296 
L 242.416 245.192934 
L 242.677292 245.129836 
L 242.714537 244.940541 
L 243.254988 244.877442 
L 243.313532 244.688147 
L 243.776304 244.625049 
L 243.817766 244.498852 
L 244.181391 244.435753 
L 244.277627 244.246458 
L 244.44086 244.18336 
L 244.543138 243.930966 
L 244.786138 243.867868 
L 244.824963 243.615474 
L 244.928044 243.552376 
L 244.928044 243.552376 
L 244.976459 243.299982 
L 245.168256 243.236884 
L 245.255933 243.047589 
L 245.35403 242.98449 
L 245.431481 242.732097 
L 245.61858 242.668998 
L 245.628608 242.353506 
L 246.090952 242.290408 
L 246.090952 242.22731 
L 246.426788 242.164211 
L 246.457341 241.974916 
L 246.628508 241.974916 
L 246.628508 241.911818 
L 246.725373 241.785621 
L 246.778673 241.785621 
L 246.778673 241.722523 
L 246.778673 241.659424 
L 247.018535 241.596326 
L 247.018535 241.470129 
L 247.289406 241.470129 
L 247.289406 241.407031 
L 247.289406 241.343932 
L 247.508512 241.343932 
L 247.508512 241.280834 
L 247.554116 241.091539 
L 247.645089 241.091539 
L 247.645089 241.02844 
L 247.645089 240.965342 
L 247.855767 240.965342 
L 247.855767 240.902243 
L 247.897866 240.776047 
L 248.213983 240.712948 
L 248.213983 240.460555 
L 248.400799 240.397456 
L 248.400799 240.334358 
L 248.663514 240.334358 
L 248.663514 240.271259 
L 248.677614 240.145063 
L 248.8303 240.081964 
L 248.8303 240.018866 
L 249.192816 239.955768 
L 249.192816 239.829571 
L 249.35113 239.829571 
L 249.35113 239.766472 
L 249.35113 239.577177 
L 249.574819 239.514079 
L 249.621158 239.261685 
L 249.888833 239.198587 
L 249.996879 238.883095 
L 250.041379 238.819996 
L 250.141846 238.630701 
L 250.230464 238.567603 
L 250.314976 238.315209 
L 250.636475 238.315209 
L 250.636475 238.252111 
L 250.704624 238.125914 
L 250.994393 238.062816 
L 251.09537 237.810422 
L 251.202943 237.810422 
L 251.202943 237.747324 
L 251.202943 237.558029 
L 251.896638 237.49493 
L 251.974949 237.242537 
L 252.144949 237.179438 
L 252.246457 236.927045 
L 252.407999 236.863946 
L 252.418045 236.674651 
L 252.763846 236.674651 
L 252.763846 236.611553 
L 252.7653 236.485356 
L 252.892622 236.485356 
L 252.892622 236.422258 
L 252.898446 236.043667 
L 253.161728 235.980569 
L 253.161728 235.854372 
L 253.498026 235.791274 
L 253.591681 235.412683 
L 253.841822 235.412683 
L 253.841822 235.349585 
L 253.909754 235.097191 
L 254.117381 235.034093 
L 254.147565 234.781699 
L 254.412675 234.718601 
L 254.514704 234.529306 
L 254.58997 234.466207 
L 254.58997 234.403109 
L 254.733121 234.403109 
L 254.733121 234.340011 
L 254.780327 234.213814 
L 254.950912 234.150715 
L 255.040277 233.96142 
L 255.080377 233.96142 
L 255.080377 233.898322 
L 255.12479 233.772125 
L 255.452322 233.709027 
L 255.452322 233.58283 
L 255.577613 233.58283 
L 255.577613 233.519731 
L 255.658019 233.078043 
L 255.894184 233.014944 
L 255.995869 232.699452 
L 256.07824 232.636354 
L 256.172937 232.510157 
L 256.417425 232.447059 
L 256.519338 232.194665 
L 256.776389 232.131567 
L 256.878276 231.689878 
L 257.095207 231.62678 
L 257.206023 231.500583 
L 257.265989 231.500583 
L 257.265989 231.437485 
L 257.347481 231.121993 
L 257.665751 231.058894 
L 257.665751 230.932697 
L 258.282956 230.869599 
L 258.371433 230.554107 
L 258.525033 230.491009 
L 258.553615 230.364812 
L 258.649671 230.364812 
L 258.649671 230.301713 
L 258.649671 230.238615 
L 258.868032 230.238615 
L 258.868032 230.175517 
L 258.868032 230.112418 
L 259.0028 230.112418 
L 259.0028 230.04932 
L 259.026914 229.923123 
L 259.178051 229.860025 
L 259.202518 229.67073 
L 259.394487 229.607631 
L 259.49946 228.534958 
L 259.632608 228.534958 
L 259.632608 228.47186 
L 259.725388 228.282565 
L 259.851363 228.219467 
L 259.917661 227.903975 
L 260.151449 227.840876 
L 260.154242 227.336089 
L 260.408795 227.272991 
L 260.500437 227.083695 
L 260.540259 227.020597 
L 260.576326 226.831302 
L 260.740162 226.831302 
L 260.740162 226.768203 
L 260.83082 226.51581 
L 260.86833 226.51581 
L 260.86833 226.452712 
L 260.86833 226.389613 
L 261.094825 226.326515 
L 261.094825 226.263416 
L 261.341991 226.263416 
L 261.341991 226.200318 
L 261.444557 225.695531 
L 261.612704 225.632432 
L 261.679098 225.506236 
L 261.866244 225.443137 
L 261.868359 225.253842 
L 262.215614 225.190744 
L 262.29328 224.875252 
L 262.455433 224.812153 
L 262.480366 224.685957 
L 262.623167 224.622858 
L 262.623167 224.55976 
L 263.041817 224.496661 
L 263.120443 224.307366 
L 263.350941 224.307366 
L 263.350941 224.244268 
L 263.426208 224.118071 
L 263.509838 224.054973 
L 263.619217 223.802579 
L 263.665249 223.802579 
L 263.665249 223.739481 
L 263.740512 223.613284 
L 263.927365 223.613284 
L 263.927365 223.550185 
L 263.981005 223.234694 
L 264.057174 223.234694 
L 264.057174 223.171595 
L 264.086135 223.045398 
L 264.26762 223.045398 
L 264.26762 222.9823 
L 264.26762 222.540611 
L 264.487909 222.477513 
L 264.487909 222.225119 
L 264.661896 222.225119 
L 264.661896 222.162021 
L 264.732839 222.035824 
L 264.919609 221.972726 
L 264.919609 221.594135 
L 265.035245 221.594135 
L 265.035245 221.531037 
L 265.074153 221.278643 
L 265.367422 221.215545 
L 265.418194 221.089348 
L 265.686363 221.02625 
L 265.731863 220.647659 
L 265.862985 220.584561 
L 265.954323 220.395266 
L 265.976119 220.395266 
L 265.976119 220.332167 
L 266.010884 220.142872 
L 266.152084 220.079774 
L 266.168728 219.82738 
L 266.375517 219.764282 
L 266.464197 219.44879 
L 266.767846 219.385692 
L 266.855286 219.196396 
L 266.988955 219.196396 
L 266.988955 219.133298 
L 267.06144 218.817806 
L 267.169052 218.754708 
L 267.27991 218.439216 
L 267.387296 218.376117 
L 267.387296 218.313019 
L 267.610761 218.313019 
L 267.610761 218.249921 
L 267.688366 217.997527 
L 268.224655 217.934429 
L 268.274535 217.808232 
L 268.477228 217.745133 
L 268.518703 217.618937 
L 268.837313 217.555838 
L 268.837313 217.49274 
L 269.057985 217.429641 
L 269.084941 217.303445 
L 269.27989 217.303445 
L 269.27989 217.240346 
L 269.359525 216.735559 
L 269.990026 216.672461 
L 269.990026 216.546264 
L 270.228086 216.483166 
L 270.311053 216.167674 
L 270.350789 216.167674 
L 270.350789 216.104575 
L 270.352746 215.789083 
L 270.794608 215.725985 
L 270.884453 215.473591 
L 271.002777 215.473591 
L 271.002777 215.410493 
L 271.002777 215.221198 
L 271.188102 215.158099 
L 271.188102 215.095001 
L 271.484345 215.031902 
L 271.484345 214.968804 
L 271.636135 214.905706 
L 271.636135 214.842607 
L 271.912847 214.842607 
L 271.912847 214.779509 
L 271.953312 214.527115 
L 272.124833 214.464017 
L 272.223633 214.274722 
L 272.382815 214.211623 
L 272.455454 214.085427 
L 272.690681 214.085427 
L 272.690681 214.022328 
L 272.690681 213.95923 
L 272.855608 213.896131 
L 272.885354 213.706836 
L 273.102904 213.706836 
L 273.102904 213.643738 
L 273.144608 212.823459 
L 273.365167 212.823459 
L 273.365167 212.76036 
L 273.369646 212.318672 
L 273.779781 212.255573 
L 273.881088 212.00318 
L 274.011359 211.940081 
L 274.109223 211.813884 
L 274.143246 211.750786 
L 274.189664 211.624589 
L 274.411582 211.561491 
L 274.443407 211.372196 
L 274.593883 211.309097 
L 274.684533 210.930507 
L 274.863764 210.867409 
L 274.958919 210.678113 
L 275.02116 210.615015 
L 275.126395 210.42572 
L 275.284468 210.362621 
L 275.363059 209.100654 
L 275.554789 209.037555 
L 275.662604 208.722063 
L 275.799065 208.658965 
L 275.834694 208.46967 
L 276.104466 208.406571 
L 276.104466 208.154178 
L 276.21651 208.091079 
L 276.21651 208.091079 
L 276.316582 206.51362 
L 276.358209 206.450521 
L 276.394222 205.819537 
L 276.539664 205.819537 
L 276.539664 205.756439 
L 276.612528 204.93616 
L 276.682971 204.93616 
L 276.682971 204.873061 
L 276.766669 203.863487 
L 277.110937 203.800389 
L 277.14625 203.674192 
L 277.354941 203.611093 
L 277.354941 203.547995 
L 277.475047 203.547995 
L 277.475047 203.484897 
L 277.567937 203.169405 
L 277.639741 203.106306 
L 277.747144 202.727716 
L 277.802935 202.664618 
L 277.802935 202.601519 
L 278.090809 202.538421 
L 278.200452 202.349126 
L 278.429228 202.286027 
L 278.519949 200.960961 
L 278.617812 200.960961 
L 278.617812 200.897863 
L 278.617812 200.708567 
L 278.871806 200.645469 
L 278.960176 200.519272 
L 279.090949 200.456174 
L 279.11601 199.4466 
L 279.206315 199.4466 
L 279.206315 199.383501 
L 279.256316 199.068009 
L 279.414546 199.068009 
L 279.414546 199.004911 
L 279.476636 196.417877 
L 279.56232 196.354778 
L 279.64104 195.976188 
L 279.808538 195.91309 
L 279.808538 195.786893 
L 280.099341 195.723794 
L 280.161725 194.903515 
L 280.357923 194.903515 
L 280.357923 194.840417 
L 280.363588 194.588023 
L 280.663666 194.588023 
L 280.663666 194.524925 
L 280.687237 194.146335 
L 280.786608 194.146335 
L 280.786608 194.083236 
L 280.786608 193.893941 
L 280.965249 193.830843 
L 281.072822 191.370005 
L 281.098456 191.370005 
L 281.098456 191.306907 
L 281.098456 191.243809 
L 281.262783 191.243809 
L 281.262783 191.18071 
L 281.262783 190.297333 
L 281.380688 190.297333 
L 281.380688 190.234234 
L 281.380688 189.792545 
L 281.556377 189.792545 
L 281.556377 189.729447 
L 281.654839 189.287758 
L 281.846133 189.287758 
L 281.846133 189.22466 
L 281.850103 188.278184 
L 282.076526 188.215086 
L 282.076526 187.962692 
L 282.505953 187.962692 
L 282.505953 187.899594 
L 282.583 187.710299 
L 282.723279 187.6472 
L 282.786834 187.394807 
L 282.858969 187.394807 
L 282.858969 187.331708 
L 282.957376 187.016216 
L 283.100903 186.953118 
L 283.100903 186.890019 
L 283.517977 186.826921 
L 283.520261 186.132839 
L 283.764905 186.06974 
L 283.774828 185.375658 
L 283.894107 185.375658 
L 283.894107 185.31256 
L 283.974475 184.997068 
L 284.120543 184.933969 
L 284.186026 184.681576 
L 284.244796 184.681576 
L 284.244796 184.618477 
L 284.3506 184.176789 
L 284.788133 184.11369 
L 284.872178 183.608903 
L 284.906517 183.608903 
L 284.906517 183.545805 
L 284.959673 182.851722 
L 285.586277 182.788624 
L 285.586277 182.725526 
L 285.800944 182.662427 
L 285.850638 182.283837 
L 286.028139 182.220738 
L 286.028139 182.15764 
L 286.20211 182.15764 
L 286.20211 182.094542 
L 286.281882 181.905246 
L 286.556774 181.842148 
L 286.621304 181.652853 
L 286.866235 181.589754 
L 286.968164 181.274262 
L 287.019163 181.274262 
L 287.019163 181.211164 
L 287.019163 181.084967 
L 287.15599 181.084967 
L 287.15599 181.021869 
L 287.168641 180.895672 
L 287.463857 180.895672 
L 287.463857 180.832574 
L 287.463857 180.643279 
L 287.860105 180.58018 
L 287.860105 180.20159 
L 288.109514 180.20159 
L 288.109514 180.138491 
L 288.109514 180.075393 
L 288.286137 180.075393 
L 288.286137 180.012295 
L 288.378139 179.381311 
L 288.508912 179.318212 
L 288.541485 179.192016 
L 288.621717 179.192016 
L 288.621717 179.128917 
L 288.732437 178.750327 
L 289.056249 178.687228 
L 289.139268 178.056244 
L 289.206612 178.056244 
L 289.206612 177.993146 
L 289.206612 177.930048 
L 289.430983 177.930048 
L 289.430983 177.866949 
L 289.504062 177.677654 
L 289.719268 177.614556 
L 289.719268 177.488359 
L 290.057644 177.488359 
L 290.057644 177.425261 
L 290.057644 177.362162 
L 290.327965 177.299064 
L 290.404597 177.109769 
L 290.989685 177.04667 
L 290.989685 176.794277 
L 291.186157 176.794277 
L 291.186157 176.731178 
L 291.186157 176.604981 
L 291.556474 176.541883 
L 291.578513 176.415686 
L 291.868615 176.352588 
L 291.884113 176.163293 
L 292.047275 176.100194 
L 292.047275 175.153718 
L 292.614596 175.09062 
L 292.654284 174.901325 
L 293.102331 174.838226 
L 293.136173 174.017947 
L 293.455114 174.017947 
L 293.455114 173.954849 
L 293.455114 173.891751 
L 293.688579 173.828652 
L 293.76953 173.702455 
L 293.809777 173.639357 
L 293.809777 173.576259 
L 294.079549 173.576259 
L 294.079549 173.51316 
L 294.126862 173.071471 
L 294.314565 173.071471 
L 294.314565 173.008373 
L 294.385292 172.251192 
L 294.8482 172.188094 
L 294.8482 171.998799 
L 295.139418 171.9357 
L 295.236299 171.241618 
L 295.278004 171.241618 
L 295.278004 171.17852 
L 295.278004 170.926126 
L 295.730546 170.863028 
L 295.730546 170.673733 
L 295.945752 170.610634 
L 295.945752 170.610634 
L 295.987981 170.484437 
L 296.354159 170.484437 
L 296.354159 170.421339 
L 296.459616 170.295142 
L 297.154555 170.232044 
L 297.154555 170.168945 
L 297.353907 170.168945 
L 297.353907 170.105847 
L 297.353907 169.916552 
L 297.582203 169.916552 
L 297.582203 169.853453 
L 297.582203 169.790355 
L 298.195755 169.727257 
L 298.237861 168.591486 
L 298.491604 168.528387 
L 298.577937 168.339092 
L 299.065122 168.275994 
L 299.065122 167.897403 
L 299.867599 167.834305 
L 299.867599 167.203321 
L 300.049883 167.203321 
L 300.049883 167.140223 
L 300.063983 167.014026 
L 300.407649 167.014026 
L 300.407649 166.950927 
L 300.407649 166.44614 
L 301.386932 166.383042 
L 301.386932 166.256845 
L 301.5141 166.256845 
L 301.5141 166.193747 
L 301.567568 166.004452 
L 301.866883 166.004452 
L 301.866883 165.941353 
L 301.866883 165.057976 
L 302.860894 164.994877 
L 302.920004 164.742484 
L 303.483189 164.679385 
L 303.551187 164.237697 
L 303.873216 164.174598 
L 303.873216 163.859106 
L 304.306442 163.796008 
L 304.306442 163.732909 
L 304.635759 163.732909 
L 304.635759 163.669811 
L 304.718088 163.101925 
L 305.14829 163.038827 
L 305.14829 161.903056 
L 306.814345 161.839958 
L 306.814345 161.776859 
L 307.12797 161.713761 
L 307.17674 161.524466 
L 307.848488 161.461367 
L 307.848488 161.208974 
L 308.085724 161.208974 
L 308.085724 161.145875 
L 308.085724 161.082777 
L 308.819418 161.082777 
L 308.819418 161.019679 
L 308.819418 160.57799 
L 309.819557 160.514891 
L 309.819557 159.568415 
L 310.718927 159.505317 
L 310.787659 159.189825 
L 311.075533 159.189825 
L 311.075533 159.126727 
L 311.075533 158.937432 
L 311.280776 158.937432 
L 311.280776 158.874333 
L 311.280776 158.811235 
L 312.418896 158.748136 
L 312.418896 158.685038 
L 312.718211 158.685038 
L 312.718211 158.62194 
L 312.718211 158.432644 
L 313.072875 158.432644 
L 313.072875 158.369546 
L 313.072875 158.180251 
L 313.354454 158.180251 
L 313.354454 158.117152 
L 313.354454 157.990956 
L 313.560059 157.990956 
L 313.560059 157.927857 
L 313.560059 157.612365 
L 315.338727 157.549267 
L 315.338727 157.486169 
L 316.277663 157.42307 
L 316.277663 157.170677 
L 318.476502 157.107578 
L 318.533779 156.855185 
L 323.301939 156.792086 
L 323.301939 156.665889 
L 324.559671 156.665889 
L 324.559671 156.602791 
L 324.559671 156.098004 
L 326.006612 156.034905 
L 326.006612 155.971807 
L 326.439838 155.908709 
L 326.439838 155.656315 
L 326.642418 155.656315 
L 326.642418 155.593217 
L 326.642418 154.709839 
L 326.794501 154.709839 
L 326.794501 154.646741 
L 326.794501 154.457446 
L 328.127629 154.394347 
L 328.127629 154.331249 
L 331.754771 154.268151 
L 331.754771 154.205052 
L 332.97144 154.141954 
L 332.97144 153.952659 
L 335.617239 153.952659 
L 335.617239 153.88956 
L 335.617239 153.826462 
L 337.634827 153.763363 
L 337.634827 152.816887 
L 337.796876 152.816887 
L 337.796876 152.753789 
L 337.796876 152.564494 
L 345.993949 152.564494 
L 345.993949 152.501396 
L 345.993949 152.3121 
L 351.518503 152.249002 
L 351.518503 151.996608 
L 352.730307 151.93351 
L 352.730307 151.807313 
L 355.594415 151.744215 
L 355.594415 151.681116 
L 356.256136 151.681116 
L 356.256136 151.618018 
L 356.256136 151.55492 
L 359.635755 151.491821 
L 359.635755 151.365624 
L 375.985377 151.365624 
L 375.985377 151.302526 
L 375.985377 151.239428 
L 450.672 151.239428 
L 450.672 151.239428 
" style="fill:none;stroke:#000000;stroke-linecap:square;stroke-width:3;"/>
   </g>
   <g id="line2d_20">
    <path clip-path="url(#pcdb12c53f1)" style="fill:none;stroke:#000000;stroke-linecap:square;stroke-width:3;"/>
   </g>
   <g id="line2d_21">
    <path clip-path="url(#pcdb12c53f1)" d="M 34.16 269.889824 
L 95.93271 269.801307 
L 95.93271 269.624273 
L 104.663995 269.535756 
L 104.663995 269.358721 
L 107.559322 269.270204 
L 107.559322 269.181687 
L 108.007136 269.181687 
L 108.007136 269.09317 
L 108.007136 269.004653 
L 108.876502 268.916135 
L 108.876502 268.739101 
L 110.911509 268.650584 
L 110.911509 268.562067 
L 153.646178 268.47355 
L 153.646178 268.385032 
L 156.904765 268.296515 
L 156.904765 268.207998 
L 162.801657 268.119481 
L 162.801657 268.030964 
L 166.94285 267.942446 
L 166.94285 267.853929 
L 171.870454 267.765412 
L 171.870454 267.676895 
L 177.621903 267.588378 
L 177.621903 267.499861 
L 179.63536 267.411343 
L 179.63536 267.322826 
L 183.502021 267.234309 
L 183.502021 267.145792 
L 185.561319 267.057275 
L 185.561319 266.968758 
L 186.298364 266.88024 
L 186.298364 266.791723 
L 188.148077 266.703206 
L 188.148077 266.614689 
L 193.263413 266.526172 
L 193.263413 266.437654 
L 196.366423 266.349137 
L 196.366423 266.26062 
L 197.594725 266.172103 
L 197.594725 266.083586 
L 198.33177 265.995069 
L 198.33177 265.906551 
L 201.100446 265.818034 
L 201.100446 265.729517 
L 202.957196 265.641 
L 202.957196 265.552483 
L 203.783002 265.463966 
L 203.783002 265.375448 
L 204.279277 265.286931 
L 204.324294 265.109897 
L 205.761679 265.02138 
L 205.761679 264.932862 
L 206.621338 264.844345 
L 206.621338 264.755828 
L 209.478488 264.667311 
L 209.478488 264.578794 
L 211.675704 264.490277 
L 211.675704 264.401759 
L 214.593824 264.313242 
L 214.593824 264.224725 
L 216.066135 264.136208 
L 216.066135 264.047691 
L 219.046932 263.959174 
L 219.046932 263.870656 
L 219.703408 263.782139 
L 219.703408 263.693622 
L 222.401471 263.605105 
L 222.401471 263.516588 
L 223.138517 263.428071 
L 223.138517 263.339553 
L 223.831042 263.251036 
L 223.831042 263.162519 
L 224.380148 263.074002 
L 224.380148 262.985485 
L 224.679584 262.896967 
L 224.679584 262.80845 
L 225.239807 262.719933 
L 225.239807 262.631416 
L 227.697702 262.542899 
L 227.697702 262.454382 
L 228.946378 262.365864 
L 228.946378 262.277347 
L 231.690232 262.18883 
L 231.690232 262.100313 
L 232.813038 262.011796 
L 232.813038 261.923279 
L 235.88649 261.834761 
L 235.990766 261.657727 
L 236.885595 261.56921 
L 236.885595 261.480693 
L 237.756226 261.392175 
L 237.756226 261.303658 
L 238.896356 261.215141 
L 238.999095 261.038107 
L 239.06146 260.94959 
L 239.06146 260.861072 
L 239.493172 260.772555 
L 239.493172 260.684038 
L 240.363803 260.595521 
L 240.363803 260.507004 
L 241.001826 260.418487 
L 241.001826 260.329969 
L 241.503932 260.241452 
L 241.503932 260.152935 
L 243.049834 260.064418 
L 243.126004 259.887383 
L 243.298053 259.798866 
L 243.298053 259.710349 
L 243.815407 259.621832 
L 243.920466 259.35628 
L 244.306223 259.267763 
L 244.306223 259.179246 
L 245.362501 259.090729 
L 245.362501 258.913695 
L 245.685312 258.825177 
L 245.685312 258.73666 
L 246.370323 258.648143 
L 246.370323 258.559626 
L 246.9138 258.471109 
L 246.9138 258.382591 
L 247.327376 258.294074 
L 247.412332 258.028523 
L 248.264606 257.940006 
L 248.264606 257.851488 
L 249.489409 257.762971 
L 249.489409 257.585937 
L 249.977365 257.49742 
L 249.977365 257.408903 
L 250.470462 257.320385 
L 250.470462 257.231868 
L 251.186635 257.143351 
L 251.186635 257.054834 
L 251.614984 256.966317 
L 251.614984 256.877799 
L 252.46476 256.789282 
L 252.481518 256.612248 
L 252.733728 256.612248 
L 252.733728 256.523731 
L 252.789878 256.346696 
L 253.379942 256.258179 
L 253.38331 256.081145 
L 253.848348 255.992628 
L 253.930008 255.815593 
L 254.686465 255.727076 
L 254.686465 255.638559 
L 255.826594 255.550042 
L 255.826594 255.461525 
L 257.004738 255.373007 
L 257.004738 255.28449 
L 257.510219 255.195973 
L 257.510219 255.107456 
L 257.874628 255.018939 
L 257.975257 254.753387 
L 258.650936 254.66487 
L 258.650936 254.576353 
L 259.015499 254.487836 
L 259.049138 254.310801 
L 259.791065 254.222284 
L 259.852746 254.04525 
L 260.754538 253.956733 
L 260.754538 253.868215 
L 261.123445 253.868215 
L 261.123445 253.779698 
L 261.219576 253.602664 
L 262.204928 253.514147 
L 262.204928 253.42563 
L 262.611698 253.42563 
L 262.611698 253.337112 
L 262.702786 252.983044 
L 263.482329 252.894527 
L 263.495346 252.628975 
L 264.172894 252.540458 
L 264.172894 252.451941 
L 264.454601 252.363423 
L 264.454601 251.83232 
L 264.622458 251.743803 
L 264.667162 251.478252 
L 264.965454 251.389735 
L 264.965454 251.301217 
L 265.200932 251.2127 
L 265.311161 251.035666 
L 265.536084 251.035666 
L 265.536084 250.947149 
L 265.599135 250.59308 
L 265.954323 250.504563 
L 266.030801 249.884943 
L 266.767846 249.796425 
L 266.767846 249.707908 
L 268.376448 249.619391 
L 268.376448 248.203116 
L 269.277992 248.114599 
L 269.277992 248.026082 
L 269.457931 247.937565 
L 269.457931 247.229427 
L 269.87617 247.14091 
L 269.87617 247.14091 
L 269.87617 245.813152 
L 270.032326 245.813152 
L 270.032326 245.724635 
L 270.070552 245.547601 
L 270.5286 245.459084 
L 270.5286 245.370567 
L 271.579299 245.282049 
L 271.579299 245.193532 
L 272.352048 245.105015 
L 272.352048 245.016498 
L 273.144608 244.927981 
L 273.144608 244.662429 
L 274.226091 244.573912 
L 274.226091 244.485395 
L 274.64433 244.485395 
L 274.64433 244.396878 
L 274.64433 244.30836 
L 275.92214 244.219843 
L 275.92214 244.131326 
L 276.877499 244.042809 
L 276.947602 243.865775 
L 277.995778 243.777257 
L 277.995778 243.68874 
L 278.41771 243.600223 
L 278.41771 243.511706 
L 279.143746 243.423189 
L 279.227777 242.715051 
L 279.465886 242.626534 
L 279.465886 242.538017 
L 280.179736 242.538017 
L 280.179736 242.4495 
L 280.239197 242.272465 
L 280.30926 242.272465 
L 280.30926 242.183948 
L 280.30926 242.095431 
L 280.727499 242.006914 
L 280.727499 241.652845 
L 280.972296 241.564328 
L 280.972296 241.387294 
L 281.308206 241.298776 
L 281.308206 241.210259 
L 281.802363 241.121742 
L 281.802363 241.033225 
L 282.594923 240.944708 
L 282.594923 240.856191 
L 283.065593 240.856191 
L 283.065593 240.767673 
L 283.065593 240.148053 
L 283.634253 240.059536 
L 283.634253 239.971019 
L 284.703261 239.882502 
L 284.798653 239.705467 
L 285.454328 239.61695 
L 285.454328 239.528433 
L 286.000057 239.439916 
L 286.000057 239.351399 
L 286.596865 239.262881 
L 286.596865 239.174364 
L 287.833753 239.085847 
L 287.833753 238.99733 
L 287.987335 238.99733 
L 287.987335 238.908813 
L 287.987335 238.820296 
L 289.056249 238.731778 
L 289.074114 238.466227 
L 289.828998 238.37771 
L 289.828998 238.289192 
L 290.621558 238.200675 
L 290.678876 238.023641 
L 291.318491 237.935124 
L 291.318491 237.404021 
L 292.389458 237.315504 
L 292.389458 237.226986 
L 292.537769 237.226986 
L 292.537769 237.138469 
L 292.644205 236.872918 
L 293.916922 236.7844 
L 293.916922 236.607366 
L 294.424552 236.518849 
L 294.424552 236.341815 
L 295.240338 236.253297 
L 295.240338 236.253297 
L 295.284785 234.837023 
L 295.472728 234.837023 
L 295.472728 234.748505 
L 295.472728 234.659988 
L 296.077345 234.571471 
L 296.077345 234.482954 
L 296.459616 234.482954 
L 296.459616 234.394437 
L 296.541736 233.597782 
L 296.901801 233.597782 
L 296.901801 233.509265 
L 296.901801 233.420748 
L 298.164364 233.332231 
L 298.164364 233.243713 
L 298.615941 233.155196 
L 298.705512 232.978162 
L 299.699145 232.889645 
L 299.699145 232.801128 
L 300.008498 232.801128 
L 300.008498 232.71261 
L 300.008498 232.624093 
L 301.227776 232.535576 
L 301.265971 232.358542 
L 302.176394 232.270024 
L 302.176394 232.181507 
L 304.161299 232.09299 
L 304.161299 232.004473 
L 306.091667 231.915956 
L 306.190999 231.47337 
L 306.634274 231.384853 
L 306.634274 231.296336 
L 307.310944 231.296336 
L 307.310944 231.207818 
L 307.310944 231.119301 
L 307.68245 231.030784 
L 307.68245 230.942267 
L 309.111523 230.85375 
L 309.111523 230.765232 
L 310.577778 230.676715 
L 310.577778 230.588198 
L 312.006851 230.499681 
L 312.006851 230.411164 
L 313.908934 230.322647 
L 313.908934 230.234129 
L 315.338007 230.145612 
L 315.338007 230.057095 
L 322.224004 230.057095 
L 322.224004 229.968578 
L 322.224004 228.729337 
L 326.062629 228.729337 
L 326.062629 228.64082 
L 326.062629 227.40158 
L 327.170205 227.40158 
L 327.170205 227.313063 
L 327.170205 226.073822 
L 334.681606 226.073822 
L 334.681606 225.985305 
L 334.681606 224.746064 
L 336.661123 224.746064 
L 336.661123 224.657547 
L 336.661123 223.418307 
L 337.307129 223.418307 
L 337.307129 223.32979 
L 337.307129 222.090549 
L 337.588308 222.090549 
L 337.588308 222.002032 
L 337.588308 220.762792 
L 450.672 220.762792 
L 450.672 220.762792 
" style="fill:none;stroke:#00bfbf;stroke-linecap:square;stroke-width:3;"/>
   </g>
   <g id="line2d_22">
    <path clip-path="url(#pcdb12c53f1)" style="fill:none;stroke:#00bfbf;stroke-linecap:square;stroke-width:3;"/>
   </g>
   <g id="line2d_23">
    <path clip-path="url(#pcdb12c53f1)" d="M 34.16 288.478431 
L 186.438435 288.378554 
L 186.438435 288.278676 
L 187.280111 288.178798 
L 187.280111 288.078921 
L 190.475163 287.979043 
L 190.475163 287.879165 
L 197.707518 287.779288 
L 197.707518 287.67941 
L 198.685908 287.579532 
L 198.685908 287.479655 
L 201.88096 287.379777 
L 201.88096 287.279899 
L 203.536915 287.180022 
L 203.536915 287.080144 
L 221.104541 286.980266 
L 221.104541 286.880389 
L 222.011606 286.780511 
L 222.011606 286.680633 
L 222.957379 286.580756 
L 222.957379 286.480878 
L 223.799055 286.381 
L 223.799055 286.281123 
L 225.141269 286.181245 
L 225.141269 286.081367 
L 226.994107 285.98149 
L 226.994107 285.881612 
L 233.998406 285.781734 
L 233.998406 285.681857 
L 235.771056 285.581979 
L 235.771056 285.482101 
L 238.035134 285.382224 
L 238.035134 285.282346 
L 239.65296 285.182468 
L 239.65296 285.082591 
L 240.866419 284.982713 
L 240.866419 284.882835 
L 241.473679 284.782958 
L 241.473679 284.68308 
L 241.953341 284.583202 
L 241.953341 284.483325 
L 243.77406 284.383447 
L 243.806263 284.183692 
L 244.903147 284.083814 
L 244.903147 283.983936 
L 245.308754 283.884059 
L 245.308754 283.784181 
L 246.15043 283.684303 
L 246.15043 283.584426 
L 249.345482 283.484548 
L 249.345482 283.38467 
L 252.002848 283.284793 
L 252.002848 283.184915 
L 253.312245 283.085037 
L 253.312245 282.98516 
L 253.948618 282.885282 
L 253.948618 282.785404 
L 254.703873 282.685527 
L 254.703873 282.585649 
L 255.407615 282.485771 
L 255.407615 282.385894 
L 256.524592 282.286016 
L 256.524592 282.186138 
L 257.025049 282.086261 
L 257.025049 281.986383 
L 257.780304 281.886505 
L 257.780304 281.786628 
L 258.386049 281.68675 
L 258.386049 281.586872 
L 259.141305 281.486995 
L 259.141305 281.387117 
L 259.933519 281.287239 
L 259.933519 281.187362 
L 260.962024 281.087484 
L 260.962024 280.987606 
L 261.123445 280.987606 
L 261.123445 280.887728 
L 261.123445 280.787851 
L 262.206252 280.687973 
L 262.206252 280.488218 
L 262.623167 280.38834 
L 262.623167 280.38834 
L 262.623167 280.288462 
L 262.961507 280.288462 
L 262.961507 280.188585 
L 263.056171 279.988829 
L 263.811426 279.888952 
L 263.811426 279.789074 
L 264.454601 279.689196 
L 264.454601 279.08993 
L 264.782226 279.08993 
L 264.782226 278.990053 
L 264.782226 278.890175 
L 265.536084 278.890175 
L 265.536084 278.790297 
L 265.632145 278.490664 
L 265.954323 278.490664 
L 265.954323 278.390787 
L 265.954323 277.891398 
L 266.824828 277.791521 
L 266.824828 277.691643 
L 267.594591 277.591765 
L 267.594591 277.39201 
L 267.80229 277.39201 
L 267.80229 277.292132 
L 267.80229 277.192255 
L 268.376448 277.192255 
L 268.376448 277.092377 
L 268.376448 275.594212 
L 269.141584 275.494334 
L 269.141584 275.394457 
L 269.457931 275.294579 
L 269.457931 274.495558 
L 269.87617 274.39568 
L 269.87617 272.797637 
L 271.363248 272.69776 
L 271.363248 272.597882 
L 272.95989 272.498004 
L 272.95989 272.398127 
L 273.144608 272.398127 
L 273.144608 272.298249 
L 273.16759 272.098494 
L 274.64433 271.998616 
L 274.64433 271.798861 
L 276.546061 271.698983 
L 276.546061 271.499228 
L 276.753761 271.499228 
L 276.753761 271.39935 
L 276.753761 271.299472 
L 279.143746 271.299472 
L 279.143746 271.199595 
L 279.227777 270.600329 
L 279.513715 270.500451 
L 279.513715 270.400573 
L 280.053255 270.400573 
L 280.053255 270.300696 
L 280.053255 270.200818 
L 280.260955 270.200818 
L 280.260955 270.10094 
L 280.30926 269.801307 
L 280.727499 269.70143 
L 280.727499 269.70143 
L 280.727499 269.401797 
L 283.065593 269.401797 
L 283.065593 269.301919 
L 283.065593 268.602775 
L 285.158353 268.602775 
L 285.158353 268.502897 
L 285.158353 268.40302 
L 285.366053 268.40302 
L 285.366053 268.303142 
L 285.366053 268.203264 
L 286.136424 268.203264 
L 286.136424 268.103387 
L 286.136424 268.003509 
L 286.344123 268.003509 
L 286.344123 267.903631 
L 286.344123 267.803754 
L 287.987335 267.703876 
L 287.987335 267.504121 
L 291.318491 267.404243 
L 291.318491 266.804977 
L 292.537769 266.804977 
L 292.537769 266.705099 
L 292.537769 266.505344 
L 293.916922 266.505344 
L 293.916922 266.405466 
L 293.916922 266.305589 
L 295.240338 266.305589 
L 295.240338 266.205711 
L 295.240338 264.707546 
L 296.459616 264.707546 
L 296.459616 264.607668 
L 296.459616 263.908525 
L 300.008498 263.908525 
L 300.008498 263.808647 
L 300.008498 263.708769 
L 306.091667 263.608892 
L 306.091667 263.209381 
L 307.310944 263.209381 
L 307.310944 263.109503 
L 307.310944 263.009626 
L 336.070651 263.009626 
L 336.070651 262.909748 
L 336.070651 261.511461 
L 336.709626 261.511461 
L 336.709626 261.411583 
L 336.709626 260.013296 
L 337.330697 260.013296 
L 337.330697 259.913418 
L 337.330697 258.515131 
L 338.411058 258.515131 
L 338.411058 258.415253 
L 338.411058 257.016966 
L 450.672 257.016966 
L 450.672 257.016966 
" style="fill:none;stroke:#bf00bf;stroke-linecap:square;stroke-width:3;"/>
   </g>
   <g id="line2d_24">
    <path clip-path="url(#pcdb12c53f1)" style="fill:none;stroke:#bf00bf;stroke-linecap:square;stroke-width:3;"/>
   </g>
   <g id="line2d_25">
    <path clip-path="url(#pcdb12c53f1)" d="M 34.16 288.478431 
L 183.405062 288.478431 
L 183.405062 288.334761 
L 184.463861 288.334761 
L 184.463861 288.191091 
L 186.849368 288.191091 
L 186.849368 288.047421 
L 187.908167 288.047421 
L 187.908167 287.903751 
L 196.909391 287.903751 
L 196.909391 287.76008 
L 197.96819 287.76008 
L 197.96819 287.61641 
L 198.383224 287.61641 
L 198.383224 287.47274 
L 199.442023 287.47274 
L 199.442023 287.32907 
L 203.122666 287.32907 
L 203.122666 287.1854 
L 204.181465 287.1854 
L 204.181465 287.04173 
L 221.295213 287.04173 
L 221.295213 286.898059 
L 221.41796 286.898059 
L 221.479589 286.610719 
L 222.354012 286.610719 
L 222.354012 286.467049 
L 222.476759 286.467049 
L 222.554388 286.036038 
L 223.41296 286.036038 
L 223.41296 285.892368 
L 223.613187 285.892368 
L 223.613187 285.748698 
L 224.471759 285.748698 
L 224.471759 285.605028 
L 231.246986 285.605028 
L 231.246986 285.461357 
L 232.305785 285.461357 
L 232.305785 285.317687 
L 233.67672 285.317687 
L 233.67672 285.174017 
L 234.735519 285.174017 
L 234.735519 285.030347 
L 241.015576 285.030347 
L 241.015576 284.886677 
L 242.336788 284.886677 
L 242.336788 284.743007 
L 243.269141 284.743007 
L 243.269141 284.599336 
L 243.395588 284.599336 
L 243.395588 284.455666 
L 244.909791 284.455666 
L 244.909791 284.311996 
L 246.315769 284.311996 
L 246.315769 284.168326 
L 250.458512 284.168326 
L 250.458512 284.024656 
L 251.517311 284.024656 
L 251.517311 283.880985 
L 252.80369 283.880985 
L 252.80369 283.737315 
L 253.380382 283.737315 
L 253.380382 283.593645 
L 254.312734 283.593645 
L 254.312734 283.449975 
L 254.439181 283.449975 
L 254.439181 283.306305 
L 255.653829 283.306305 
L 255.653829 283.162634 
L 258.925282 283.162634 
L 258.925282 282.875294 
L 259.908172 282.875294 
L 259.908172 282.731624 
L 261.123445 282.731624 
L 261.123445 282.444284 
L 262.204928 282.444284 
L 262.204928 282.300613 
L 262.623167 282.300613 
L 262.623167 282.013273 
L 263.540146 282.013273 
L 263.540146 281.725933 
L 263.938349 281.725933 
L 263.938349 281.582262 
L 264.454601 281.582262 
L 264.454601 280.720241 
L 264.756879 280.720241 
L 264.756879 280.576571 
L 265.536084 280.576571 
L 265.536084 280.145561 
L 265.954323 280.145561 
L 265.954323 279.283539 
L 267.41113 279.283539 
L 267.41113 279.139869 
L 268.376448 279.139869 
L 268.376448 276.841146 
L 269.457931 276.841146 
L 269.457931 275.691785 
L 269.87617 275.691785 
L 269.87617 273.393062 
L 273.144608 273.393062 
L 273.144608 273.105721 
L 274.226091 273.105721 
L 274.226091 272.962051 
L 274.64433 272.962051 
L 274.64433 272.674711 
L 275.81259 272.674711 
L 275.81259 272.531041 
L 279.143746 272.531041 
L 279.227777 271.525349 
L 280.30926 271.525349 
L 280.30926 271.238009 
L 280.727499 271.238009 
L 280.727499 270.663328 
L 283.065593 270.663328 
L 283.065593 269.513967 
L 287.833753 269.513967 
L 287.833753 269.370297 
L 287.987335 269.370297 
L 287.987335 269.082956 
L 289.206612 269.082956 
L 289.206612 268.939286 
L 291.318491 268.939286 
L 291.318491 268.077265 
L 292.537769 268.077265 
L 292.537769 267.646254 
L 293.916922 267.646254 
L 293.916922 267.358914 
L 295.240338 267.358914 
L 295.240338 265.060191 
L 296.459616 265.060191 
L 296.459616 263.91083 
L 300.008498 263.91083 
L 300.008498 263.623489 
L 301.227776 263.623489 
L 301.227776 263.479819 
L 306.091667 263.479819 
L 306.091667 262.905138 
L 307.310944 262.905138 
L 307.310944 262.617798 
L 337.888947 262.617798 
L 337.888947 260.462745 
L 450.672 260.462745 
L 450.672 260.462745 
" style="fill:none;stroke:#ff0000;stroke-linecap:square;stroke-width:3;"/>
   </g>
   <g id="line2d_26">
    <path clip-path="url(#pcdb12c53f1)" style="fill:none;stroke:#ff0000;stroke-linecap:square;stroke-width:3;"/>
   </g>
   <g id="line2d_27">
    <path clip-path="url(#pcdb12c53f1)" d="M 242.416 291.28 
L 242.416 5.52 
" style="fill:none;stroke:#000000;stroke-linecap:square;stroke-width:1.5;"/>
   </g>
   <g id="line2d_28">
    <path clip-path="url(#pcdb12c53f1)" d="M 34.16 148.4 
L 450.672 148.4 
" style="fill:none;stroke:#000000;stroke-dasharray:2,3.3;stroke-dashoffset:0;stroke-width:2;"/>
   </g>
   <g id="patch_3">
    <path d="M 34.16 291.28 
L 34.16 5.52 
" style="fill:none;stroke:#000000;stroke-linecap:square;stroke-linejoin:miter;stroke-width:0.8;"/>
   </g>
   <g id="patch_4">
    <path d="M 450.672 291.28 
L 450.672 5.52 
" style="fill:none;stroke:#000000;stroke-linecap:square;stroke-linejoin:miter;stroke-width:0.8;"/>
   </g>
   <g id="patch_5">
    <path d="M 34.16 291.28 
L 450.672 291.28 
" style="fill:none;stroke:#000000;stroke-linecap:square;stroke-linejoin:miter;stroke-width:0.8;"/>
   </g>
   <g id="patch_6">
    <path d="M 34.16 5.52 
L 450.672 5.52 
" style="fill:none;stroke:#000000;stroke-linecap:square;stroke-linejoin:miter;stroke-width:0.8;"/>
   </g>
   <g id="text_7">
    <!-- f1-f24,5-D -->
    <defs>
     <path d="M 19.1875 8.296875 
L 53.609375 8.296875 
L 53.609375 0 
L 7.328125 0 
L 7.328125 8.296875 
Q 12.9375 14.109375 22.625 23.890625 
Q 32.328125 33.6875 34.8125 36.53125 
Q 39.546875 41.84375 41.421875 45.53125 
Q 43.3125 49.21875 43.3125 52.78125 
Q 43.3125 58.59375 39.234375 62.25 
Q 35.15625 65.921875 28.609375 65.921875 
Q 23.96875 65.921875 18.8125 64.3125 
Q 13.671875 62.703125 7.8125 59.421875 
L 7.8125 69.390625 
Q 13.765625 71.78125 18.9375 73 
Q 24.125 74.21875 28.421875 74.21875 
Q 39.75 74.21875 46.484375 68.546875 
Q 53.21875 62.890625 53.21875 53.421875 
Q 53.21875 48.921875 51.53125 44.890625 
Q 49.859375 40.875 45.40625 35.40625 
Q 44.1875 33.984375 37.640625 27.21875 
Q 31.109375 20.453125 19.1875 8.296875 
z
" id="DejaVuSans-32"/>
     <path d="M 37.796875 64.3125 
L 12.890625 25.390625 
L 37.796875 25.390625 
z
M 35.203125 72.90625 
L 47.609375 72.90625 
L 47.609375 25.390625 
L 58.015625 25.390625 
L 58.015625 17.1875 
L 47.609375 17.1875 
L 47.609375 0 
L 37.796875 0 
L 37.796875 17.1875 
L 4.890625 17.1875 
L 4.890625 26.703125 
z
" id="DejaVuSans-34"/>
     <path d="M 11.71875 12.40625 
L 22.015625 12.40625 
L 22.015625 4 
L 14.015625 -11.625 
L 7.71875 -11.625 
L 11.71875 4 
z
" id="DejaVuSans-2c"/>
     <path d="M 10.796875 72.90625 
L 49.515625 72.90625 
L 49.515625 64.59375 
L 19.828125 64.59375 
L 19.828125 46.734375 
Q 21.96875 47.46875 24.109375 47.828125 
Q 26.265625 48.1875 28.421875 48.1875 
Q 40.625 48.1875 47.75 41.5 
Q 54.890625 34.8125 54.890625 23.390625 
Q 54.890625 11.625 47.5625 5.09375 
Q 40.234375 -1.421875 26.90625 -1.421875 
Q 22.3125 -1.421875 17.546875 -0.640625 
Q 12.796875 0.140625 7.71875 1.703125 
L 7.71875 11.625 
Q 12.109375 9.234375 16.796875 8.0625 
Q 21.484375 6.890625 26.703125 6.890625 
Q 35.15625 6.890625 40.078125 11.328125 
Q 45.015625 15.765625 45.015625 23.390625 
Q 45.015625 31 40.078125 35.4375 
Q 35.15625 39.890625 26.703125 39.890625 
Q 22.75 39.890625 18.8125 39.015625 
Q 14.890625 38.140625 10.796875 36.28125 
z
" id="DejaVuSans-35"/>
     <path d="M 19.671875 64.796875 
L 19.671875 8.109375 
L 31.59375 8.109375 
Q 46.6875 8.109375 53.6875 14.9375 
Q 60.6875 21.78125 60.6875 36.53125 
Q 60.6875 51.171875 53.6875 57.984375 
Q 46.6875 64.796875 31.59375 64.796875 
z
M 9.8125 72.90625 
L 30.078125 72.90625 
Q 51.265625 72.90625 61.171875 64.09375 
Q 71.09375 55.28125 71.09375 36.53125 
Q 71.09375 17.671875 61.125 8.828125 
Q 51.171875 0 30.078125 0 
L 9.8125 0 
z
" id="DejaVuSans-44"/>
    </defs>
    <g transform="translate(341.17301 285.5648)scale(0.2 -0.2)">
     <use xlink:href="#DejaVuSans-66"/>
     <use x="35.205078" xlink:href="#DejaVuSans-31"/>
     <use x="98.828125" xlink:href="#DejaVuSans-2d"/>
     <use x="134.912109" xlink:href="#DejaVuSans-66"/>
     <use x="170.117188" xlink:href="#DejaVuSans-32"/>
     <use x="233.740234" xlink:href="#DejaVuSans-34"/>
     <use x="297.363281" xlink:href="#DejaVuSans-2c"/>
     <use x="329.150391" xlink:href="#DejaVuSans-35"/>
     <use x="392.773438" xlink:href="#DejaVuSans-2d"/>
     <use x="428.857422" xlink:href="#DejaVuSans-44"/>
    </g>
   </g>
   <g id="text_8">
    <!-- v0.0.0 -->
    <defs>
     <path d="M 10.6875 12.40625 
L 21 12.40625 
L 21 0 
L 10.6875 0 
z
" id="DejaVuSans-2e"/>
    </defs>
    <g style="fill:#808080;" transform="translate(226.73475 286.342713)scale(0.1 -0.1)">
     <use xlink:href="#DejaVuSans-76"/>
     <use x="59.179688" xlink:href="#DejaVuSans-30"/>
     <use x="122.802734" xlink:href="#DejaVuSans-2e"/>
     <use x="154.589844" xlink:href="#DejaVuSans-30"/>
     <use x="218.212891" xlink:href="#DejaVuSans-2e"/>
     <use x="250" xlink:href="#DejaVuSans-30"/>
    </g>
   </g>
   <g id="legend_1">
    <g id="patch_7">
     <path d="M 289.21575 138.945 
L 436.672 138.945 
Q 440.672 138.945 440.672 134.945 
L 440.672 19.52 
Q 440.672 15.52 436.672 15.52 
L 289.21575 15.52 
Q 285.21575 15.52 285.21575 19.52 
L 285.21575 134.945 
Q 285.21575 138.945 289.21575 138.945 
z
" style="fill:#ffffff;opacity:0.2;stroke:#cccccc;stroke-linejoin:miter;"/>
    </g>
    <g id="line2d_29">
     <path d="M 293.21575 31.716875 
L 333.21575 31.716875 
" style="fill:none;stroke:#000000;stroke-linecap:square;stroke-width:3;"/>
    </g>
    <g id="line2d_30"/>
    <g id="text_9">
     <!-- 1: 16/23 -->
     <defs>
      <path d="M 11.71875 12.40625 
L 22.015625 12.40625 
L 22.015625 0 
L 11.71875 0 
z
M 11.71875 51.703125 
L 22.015625 51.703125 
L 22.015625 39.3125 
L 11.71875 39.3125 
z
" id="DejaVuSans-3a"/>
      <path d="M 33.015625 40.375 
Q 26.375 40.375 22.484375 35.828125 
Q 18.609375 31.296875 18.609375 23.390625 
Q 18.609375 15.53125 22.484375 10.953125 
Q 26.375 6.390625 33.015625 6.390625 
Q 39.65625 6.390625 43.53125 10.953125 
Q 47.40625 15.53125 47.40625 23.390625 
Q 47.40625 31.296875 43.53125 35.828125 
Q 39.65625 40.375 33.015625 40.375 
z
M 52.59375 71.296875 
L 52.59375 62.3125 
Q 48.875 64.0625 45.09375 64.984375 
Q 41.3125 65.921875 37.59375 65.921875 
Q 27.828125 65.921875 22.671875 59.328125 
Q 17.53125 52.734375 16.796875 39.40625 
Q 19.671875 43.65625 24.015625 45.921875 
Q 28.375 48.1875 33.59375 48.1875 
Q 44.578125 48.1875 50.953125 41.515625 
Q 57.328125 34.859375 57.328125 23.390625 
Q 57.328125 12.15625 50.6875 5.359375 
Q 44.046875 -1.421875 33.015625 -1.421875 
Q 20.359375 -1.421875 13.671875 8.265625 
Q 6.984375 17.96875 6.984375 36.375 
Q 6.984375 53.65625 15.1875 63.9375 
Q 23.390625 74.21875 37.203125 74.21875 
Q 40.921875 74.21875 44.703125 73.484375 
Q 48.484375 72.75 52.59375 71.296875 
z
" id="DejaVuSans-36"/>
      <path d="M 25.390625 72.90625 
L 33.6875 72.90625 
L 8.296875 -9.28125 
L 0 -9.28125 
z
" id="DejaVuSans-2f"/>
     </defs>
     <g transform="translate(349.21575 38.716875)scale(0.2 -0.2)">
      <use xlink:href="#DejaVuSans-31"/>
      <use x="63.623047" xlink:href="#DejaVuSans-3a"/>
      <use x="97.314453" xlink:href="#DejaVuSans-20"/>
      <use x="129.101562" xlink:href="#DejaVuSans-31"/>
      <use x="192.724609" xlink:href="#DejaVuSans-36"/>
      <use x="256.347656" xlink:href="#DejaVuSans-2f"/>
      <use x="290.039062" xlink:href="#DejaVuSans-32"/>
      <use x="353.662109" xlink:href="#DejaVuSans-33"/>
     </g>
    </g>
    <g id="line2d_31">
     <path d="M 293.21575 61.073125 
L 333.21575 61.073125 
" style="fill:none;stroke:#00bfbf;stroke-linecap:square;stroke-width:3;"/>
    </g>
    <g id="line2d_32"/>
    <g id="text_10">
     <!-- -1: 8/15 -->
     <defs>
      <path d="M 31.78125 34.625 
Q 24.75 34.625 20.71875 30.859375 
Q 16.703125 27.09375 16.703125 20.515625 
Q 16.703125 13.921875 20.71875 10.15625 
Q 24.75 6.390625 31.78125 6.390625 
Q 38.8125 6.390625 42.859375 10.171875 
Q 46.921875 13.96875 46.921875 20.515625 
Q 46.921875 27.09375 42.890625 30.859375 
Q 38.875 34.625 31.78125 34.625 
z
M 21.921875 38.8125 
Q 15.578125 40.375 12.03125 44.71875 
Q 8.5 49.078125 8.5 55.328125 
Q 8.5 64.0625 14.71875 69.140625 
Q 20.953125 74.21875 31.78125 74.21875 
Q 42.671875 74.21875 48.875 69.140625 
Q 55.078125 64.0625 55.078125 55.328125 
Q 55.078125 49.078125 51.53125 44.71875 
Q 48 40.375 41.703125 38.8125 
Q 48.828125 37.15625 52.796875 32.3125 
Q 56.78125 27.484375 56.78125 20.515625 
Q 56.78125 9.90625 50.3125 4.234375 
Q 43.84375 -1.421875 31.78125 -1.421875 
Q 19.734375 -1.421875 13.25 4.234375 
Q 6.78125 9.90625 6.78125 20.515625 
Q 6.78125 27.484375 10.78125 32.3125 
Q 14.796875 37.15625 21.921875 38.8125 
z
M 18.3125 54.390625 
Q 18.3125 48.734375 21.84375 45.5625 
Q 25.390625 42.390625 31.78125 42.390625 
Q 38.140625 42.390625 41.71875 45.5625 
Q 45.3125 48.734375 45.3125 54.390625 
Q 45.3125 60.0625 41.71875 63.234375 
Q 38.140625 66.40625 31.78125 66.40625 
Q 25.390625 66.40625 21.84375 63.234375 
Q 18.3125 60.0625 18.3125 54.390625 
z
" id="DejaVuSans-38"/>
     </defs>
     <g transform="translate(349.21575 68.073125)scale(0.2 -0.2)">
      <use xlink:href="#DejaVuSans-2d"/>
      <use x="36.083984" xlink:href="#DejaVuSans-31"/>
      <use x="99.707031" xlink:href="#DejaVuSans-3a"/>
      <use x="133.398438" xlink:href="#DejaVuSans-20"/>
      <use x="165.185547" xlink:href="#DejaVuSans-38"/>
      <use x="228.808594" xlink:href="#DejaVuSans-2f"/>
      <use x="262.5" xlink:href="#DejaVuSans-31"/>
      <use x="326.123047" xlink:href="#DejaVuSans-35"/>
     </g>
    </g>
    <g id="line2d_33">
     <path d="M 293.21575 90.429375 
L 333.21575 90.429375 
" style="fill:none;stroke:#bf00bf;stroke-linecap:square;stroke-width:3;"/>
    </g>
    <g id="line2d_34"/>
    <g id="text_11">
     <!-- -4: 5/14 -->
     <g transform="translate(349.21575 97.429375)scale(0.2 -0.2)">
      <use xlink:href="#DejaVuSans-2d"/>
      <use x="36.083984" xlink:href="#DejaVuSans-34"/>
      <use x="99.707031" xlink:href="#DejaVuSans-3a"/>
      <use x="133.398438" xlink:href="#DejaVuSans-20"/>
      <use x="165.185547" xlink:href="#DejaVuSans-35"/>
      <use x="228.808594" xlink:href="#DejaVuSans-2f"/>
      <use x="262.5" xlink:href="#DejaVuSans-31"/>
      <use x="326.123047" xlink:href="#DejaVuSans-34"/>
     </g>
    </g>
    <g id="line2d_35">
     <path d="M 293.21575 119.785625 
L 333.21575 119.785625 
" style="fill:none;stroke:#ff0000;stroke-linecap:square;stroke-width:3;"/>
    </g>
    <g id="line2d_36"/>
    <g id="text_12">
     <!-- -8: 4/11 -->
     <g transform="translate(349.21575 126.785625)scale(0.2 -0.2)">
      <use xlink:href="#DejaVuSans-2d"/>
      <use x="36.083984" xlink:href="#DejaVuSans-38"/>
      <use x="99.707031" xlink:href="#DejaVuSans-3a"/>
      <use x="133.398438" xlink:href="#DejaVuSans-20"/>
      <use x="165.185547" xlink:href="#DejaVuSans-34"/>
      <use x="228.808594" xlink:href="#DejaVuSans-2f"/>
      <use x="262.5" xlink:href="#DejaVuSans-31"/>
      <use x="326.123047" xlink:href="#DejaVuSans-31"/>
     </g>
    </g>
   </g>
  </g>
 </g>
 <defs>
  <clipPath id="pcdb12c53f1">
   <rect height="285.76" width="416.512" x="34.16" y="5.52"/>
  </clipPath>
 </defs>
</svg>
