<?xml version="1.0" encoding="utf-8" standalone="no"?>
<!DOCTYPE svg PUBLIC "-//W3C//DTD SVG 1.1//EN"
  "http://www.w3.org/Graphics/SVG/1.1/DTD/svg11.dtd">
<!-- Created with matplotlib (http://matplotlib.org/) -->
<svg height="345pt" version="1.1" viewBox="0 0 460 345" width="460pt" xmlns="http://www.w3.org/2000/svg" xmlns:xlink="http://www.w3.org/1999/xlink">
 <defs>
  <style type="text/css">
*{stroke-linecap:butt;stroke-linejoin:round;}
  </style>
 </defs>
 <g id="figure_1">
  <g id="patch_1">
   <path d="M 0 345.6 
L 460.8 345.6 
L 460.8 0 
L 0 0 
z
" style="fill:#ffffff;"/>
  </g>
  <g id="axes_1">
   <g id="patch_2">
    <path d="M 34.16 291.28 
L 450.672 291.28 
L 450.672 5.52 
L 34.16 5.52 
z
" style="fill:#ffffff;"/>
   </g>
   <g id="matplotlib.axis_1">
    <g id="xtick_1">
     <g id="line2d_1">
      <path clip-path="url(#pd38f6d7f35)" d="M 89.721331 291.28 
L 89.721331 5.52 
" style="fill:none;stroke:#b0b0b0;stroke-linecap:square;stroke-width:0.8;"/>
     </g>
     <g id="line2d_2">
      <defs>
       <path d="M 0 0 
L 0 3.5 
" id="m5188d35bf5" style="stroke:#000000;stroke-width:0.8;"/>
      </defs>
      <g>
       <use style="stroke:#000000;stroke-width:0.8;" x="89.721331" xlink:href="#m5188d35bf5" y="291.28"/>
      </g>
     </g>
     <g id="text_1">
      <!-- -1 -->
      <defs>
       <path d="M 4.890625 31.390625 
L 31.203125 31.390625 
L 31.203125 23.390625 
L 4.890625 23.390625 
z
" id="DejaVuSans-2d"/>
       <path d="M 12.40625 8.296875 
L 28.515625 8.296875 
L 28.515625 63.921875 
L 10.984375 60.40625 
L 10.984375 69.390625 
L 28.421875 72.90625 
L 38.28125 72.90625 
L 38.28125 8.296875 
L 54.390625 8.296875 
L 54.390625 0 
L 12.40625 0 
z
" id="DejaVuSans-31"/>
      </defs>
      <g transform="translate(79.751019 313.476875)scale(0.2 -0.2)">
       <use xlink:href="#DejaVuSans-2d"/>
       <use x="36.083984" xlink:href="#DejaVuSans-31"/>
      </g>
     </g>
    </g>
    <g id="xtick_2">
     <g id="line2d_3">
      <path clip-path="url(#pd38f6d7f35)" d="M 242.416 291.28 
L 242.416 5.52 
" style="fill:none;stroke:#b0b0b0;stroke-linecap:square;stroke-width:0.8;"/>
     </g>
     <g id="line2d_4">
      <g>
       <use style="stroke:#000000;stroke-width:0.8;" x="242.416" xlink:href="#m5188d35bf5" y="291.28"/>
      </g>
     </g>
     <g id="text_2">
      <!-- 0 -->
      <defs>
       <path d="M 31.78125 66.40625 
Q 24.171875 66.40625 20.328125 58.90625 
Q 16.5 51.421875 16.5 36.375 
Q 16.5 21.390625 20.328125 13.890625 
Q 24.171875 6.390625 31.78125 6.390625 
Q 39.453125 6.390625 43.28125 13.890625 
Q 47.125 21.390625 47.125 36.375 
Q 47.125 51.421875 43.28125 58.90625 
Q 39.453125 66.40625 31.78125 66.40625 
z
M 31.78125 74.21875 
Q 44.046875 74.21875 50.515625 64.515625 
Q 56.984375 54.828125 56.984375 36.375 
Q 56.984375 17.96875 50.515625 8.265625 
Q 44.046875 -1.421875 31.78125 -1.421875 
Q 19.53125 -1.421875 13.0625 8.265625 
Q 6.59375 17.96875 6.59375 36.375 
Q 6.59375 54.828125 13.0625 64.515625 
Q 19.53125 74.21875 31.78125 74.21875 
z
" id="DejaVuSans-30"/>
      </defs>
      <g transform="translate(236.0535 313.476875)scale(0.2 -0.2)">
       <use xlink:href="#DejaVuSans-30"/>
      </g>
     </g>
    </g>
    <g id="xtick_3">
     <g id="line2d_5">
      <path clip-path="url(#pd38f6d7f35)" d="M 395.110669 291.28 
L 395.110669 5.52 
" style="fill:none;stroke:#b0b0b0;stroke-linecap:square;stroke-width:0.8;"/>
     </g>
     <g id="line2d_6">
      <g>
       <use style="stroke:#000000;stroke-width:0.8;" x="395.110669" xlink:href="#m5188d35bf5" y="291.28"/>
      </g>
     </g>
     <g id="text_3">
      <!-- 1 -->
      <g transform="translate(388.748169 313.476875)scale(0.2 -0.2)">
       <use xlink:href="#DejaVuSans-31"/>
      </g>
     </g>
    </g>
    <g id="xtick_4">
     <g id="line2d_7">
      <defs>
       <path d="M 0 0 
L 0 2 
" id="m03c7f5d239" style="stroke:#000000;stroke-width:0.6;"/>
      </defs>
      <g>
       <use style="stroke:#000000;stroke-width:0.6;" x="43.755656" xlink:href="#m03c7f5d239" y="291.28"/>
      </g>
     </g>
    </g>
    <g id="xtick_5">
     <g id="line2d_8">
      <g>
       <use style="stroke:#000000;stroke-width:0.6;" x="55.84621" xlink:href="#m03c7f5d239" y="291.28"/>
      </g>
     </g>
    </g>
    <g id="xtick_6">
     <g id="line2d_9">
      <g>
       <use style="stroke:#000000;stroke-width:0.6;" x="66.068628" xlink:href="#m03c7f5d239" y="291.28"/>
      </g>
     </g>
    </g>
    <g id="xtick_7">
     <g id="line2d_10">
      <g>
       <use style="stroke:#000000;stroke-width:0.6;" x="74.923689" xlink:href="#m03c7f5d239" y="291.28"/>
      </g>
     </g>
    </g>
    <g id="xtick_8">
     <g id="line2d_11">
      <g>
       <use style="stroke:#000000;stroke-width:0.6;" x="82.734406" xlink:href="#m03c7f5d239" y="291.28"/>
      </g>
     </g>
    </g>
    <g id="xtick_9">
     <g id="line2d_12">
      <g>
       <use style="stroke:#000000;stroke-width:0.6;" x="135.687007" xlink:href="#m03c7f5d239" y="291.28"/>
      </g>
     </g>
    </g>
    <g id="xtick_10">
     <g id="line2d_13">
      <g>
       <use style="stroke:#000000;stroke-width:0.6;" x="162.575203" xlink:href="#m03c7f5d239" y="291.28"/>
      </g>
     </g>
    </g>
    <g id="xtick_11">
     <g id="line2d_14">
      <g>
       <use style="stroke:#000000;stroke-width:0.6;" x="181.652682" xlink:href="#m03c7f5d239" y="291.28"/>
      </g>
     </g>
    </g>
    <g id="xtick_12">
     <g id="line2d_15">
      <g>
       <use style="stroke:#000000;stroke-width:0.6;" x="196.450324" xlink:href="#m03c7f5d239" y="291.28"/>
      </g>
     </g>
    </g>
    <g id="xtick_13">
     <g id="line2d_16">
      <g>
       <use style="stroke:#000000;stroke-width:0.6;" x="208.540879" xlink:href="#m03c7f5d239" y="291.28"/>
      </g>
     </g>
    </g>
    <g id="xtick_14">
     <g id="line2d_17">
      <g>
       <use style="stroke:#000000;stroke-width:0.6;" x="218.763296" xlink:href="#m03c7f5d239" y="291.28"/>
      </g>
     </g>
    </g>
    <g id="xtick_15">
     <g id="line2d_18">
      <g>
       <use style="stroke:#000000;stroke-width:0.6;" x="227.618358" xlink:href="#m03c7f5d239" y="291.28"/>
      </g>
     </g>
    </g>
    <g id="xtick_16">
     <g id="line2d_19">
      <g>
       <use style="stroke:#000000;stroke-width:0.6;" x="235.429075" xlink:href="#m03c7f5d239" y="291.28"/>
      </g>
     </g>
    </g>
    <g id="xtick_17">
     <g id="line2d_20">
      <g>
       <use style="stroke:#000000;stroke-width:0.6;" x="288.381676" xlink:href="#m03c7f5d239" y="291.28"/>
      </g>
     </g>
    </g>
    <g id="xtick_18">
     <g id="line2d_21">
      <g>
       <use style="stroke:#000000;stroke-width:0.6;" x="315.269872" xlink:href="#m03c7f5d239" y="291.28"/>
      </g>
     </g>
    </g>
    <g id="xtick_19">
     <g id="line2d_22">
      <g>
       <use style="stroke:#000000;stroke-width:0.6;" x="334.347351" xlink:href="#m03c7f5d239" y="291.28"/>
      </g>
     </g>
    </g>
    <g id="xtick_20">
     <g id="line2d_23">
      <g>
       <use style="stroke:#000000;stroke-width:0.6;" x="349.144993" xlink:href="#m03c7f5d239" y="291.28"/>
      </g>
     </g>
    </g>
    <g id="xtick_21">
     <g id="line2d_24">
      <g>
       <use style="stroke:#000000;stroke-width:0.6;" x="361.235548" xlink:href="#m03c7f5d239" y="291.28"/>
      </g>
     </g>
    </g>
    <g id="xtick_22">
     <g id="line2d_25">
      <g>
       <use style="stroke:#000000;stroke-width:0.6;" x="371.457965" xlink:href="#m03c7f5d239" y="291.28"/>
      </g>
     </g>
    </g>
    <g id="xtick_23">
     <g id="line2d_26">
      <g>
       <use style="stroke:#000000;stroke-width:0.6;" x="380.313027" xlink:href="#m03c7f5d239" y="291.28"/>
      </g>
     </g>
    </g>
    <g id="xtick_24">
     <g id="line2d_27">
      <g>
       <use style="stroke:#000000;stroke-width:0.6;" x="388.123744" xlink:href="#m03c7f5d239" y="291.28"/>
      </g>
     </g>
    </g>
    <g id="xtick_25">
     <g id="line2d_28">
      <g>
       <use style="stroke:#000000;stroke-width:0.6;" x="441.076344" xlink:href="#m03c7f5d239" y="291.28"/>
      </g>
     </g>
    </g>
    <g id="text_4">
     <!-- log10 of FEvals ratio -->
     <defs>
      <path d="M 9.421875 75.984375 
L 18.40625 75.984375 
L 18.40625 0 
L 9.421875 0 
z
" id="DejaVuSans-6c"/>
      <path d="M 30.609375 48.390625 
Q 23.390625 48.390625 19.1875 42.75 
Q 14.984375 37.109375 14.984375 27.296875 
Q 14.984375 17.484375 19.15625 11.84375 
Q 23.34375 6.203125 30.609375 6.203125 
Q 37.796875 6.203125 41.984375 11.859375 
Q 46.1875 17.53125 46.1875 27.296875 
Q 46.1875 37.015625 41.984375 42.703125 
Q 37.796875 48.390625 30.609375 48.390625 
z
M 30.609375 56 
Q 42.328125 56 49.015625 48.375 
Q 55.71875 40.765625 55.71875 27.296875 
Q 55.71875 13.875 49.015625 6.21875 
Q 42.328125 -1.421875 30.609375 -1.421875 
Q 18.84375 -1.421875 12.171875 6.21875 
Q 5.515625 13.875 5.515625 27.296875 
Q 5.515625 40.765625 12.171875 48.375 
Q 18.84375 56 30.609375 56 
z
" id="DejaVuSans-6f"/>
      <path d="M 45.40625 27.984375 
Q 45.40625 37.75 41.375 43.109375 
Q 37.359375 48.484375 30.078125 48.484375 
Q 22.859375 48.484375 18.828125 43.109375 
Q 14.796875 37.75 14.796875 27.984375 
Q 14.796875 18.265625 18.828125 12.890625 
Q 22.859375 7.515625 30.078125 7.515625 
Q 37.359375 7.515625 41.375 12.890625 
Q 45.40625 18.265625 45.40625 27.984375 
z
M 54.390625 6.78125 
Q 54.390625 -7.171875 48.1875 -13.984375 
Q 42 -20.796875 29.203125 -20.796875 
Q 24.46875 -20.796875 20.265625 -20.09375 
Q 16.0625 -19.390625 12.109375 -17.921875 
L 12.109375 -9.1875 
Q 16.0625 -11.328125 19.921875 -12.34375 
Q 23.78125 -13.375 27.78125 -13.375 
Q 36.625 -13.375 41.015625 -8.765625 
Q 45.40625 -4.15625 45.40625 5.171875 
L 45.40625 9.625 
Q 42.625 4.78125 38.28125 2.390625 
Q 33.9375 0 27.875 0 
Q 17.828125 0 11.671875 7.65625 
Q 5.515625 15.328125 5.515625 27.984375 
Q 5.515625 40.671875 11.671875 48.328125 
Q 17.828125 56 27.875 56 
Q 33.9375 56 38.28125 53.609375 
Q 42.625 51.21875 45.40625 46.390625 
L 45.40625 54.6875 
L 54.390625 54.6875 
z
" id="DejaVuSans-67"/>
      <path id="DejaVuSans-20"/>
      <path d="M 37.109375 75.984375 
L 37.109375 68.5 
L 28.515625 68.5 
Q 23.6875 68.5 21.796875 66.546875 
Q 19.921875 64.59375 19.921875 59.515625 
L 19.921875 54.6875 
L 34.71875 54.6875 
L 34.71875 47.703125 
L 19.921875 47.703125 
L 19.921875 0 
L 10.890625 0 
L 10.890625 47.703125 
L 2.296875 47.703125 
L 2.296875 54.6875 
L 10.890625 54.6875 
L 10.890625 58.5 
Q 10.890625 67.625 15.140625 71.796875 
Q 19.390625 75.984375 28.609375 75.984375 
z
" id="DejaVuSans-66"/>
      <path d="M 9.8125 72.90625 
L 51.703125 72.90625 
L 51.703125 64.59375 
L 19.671875 64.59375 
L 19.671875 43.109375 
L 48.578125 43.109375 
L 48.578125 34.8125 
L 19.671875 34.8125 
L 19.671875 0 
L 9.8125 0 
z
" id="DejaVuSans-46"/>
      <path d="M 9.8125 72.90625 
L 55.90625 72.90625 
L 55.90625 64.59375 
L 19.671875 64.59375 
L 19.671875 43.015625 
L 54.390625 43.015625 
L 54.390625 34.71875 
L 19.671875 34.71875 
L 19.671875 8.296875 
L 56.78125 8.296875 
L 56.78125 0 
L 9.8125 0 
z
" id="DejaVuSans-45"/>
      <path d="M 2.984375 54.6875 
L 12.5 54.6875 
L 29.59375 8.796875 
L 46.6875 54.6875 
L 56.203125 54.6875 
L 35.6875 0 
L 23.484375 0 
z
" id="DejaVuSans-76"/>
      <path d="M 34.28125 27.484375 
Q 23.390625 27.484375 19.1875 25 
Q 14.984375 22.515625 14.984375 16.5 
Q 14.984375 11.71875 18.140625 8.90625 
Q 21.296875 6.109375 26.703125 6.109375 
Q 34.1875 6.109375 38.703125 11.40625 
Q 43.21875 16.703125 43.21875 25.484375 
L 43.21875 27.484375 
z
M 52.203125 31.203125 
L 52.203125 0 
L 43.21875 0 
L 43.21875 8.296875 
Q 40.140625 3.328125 35.546875 0.953125 
Q 30.953125 -1.421875 24.3125 -1.421875 
Q 15.921875 -1.421875 10.953125 3.296875 
Q 6 8.015625 6 15.921875 
Q 6 25.140625 12.171875 29.828125 
Q 18.359375 34.515625 30.609375 34.515625 
L 43.21875 34.515625 
L 43.21875 35.40625 
Q 43.21875 41.609375 39.140625 45 
Q 35.0625 48.390625 27.6875 48.390625 
Q 23 48.390625 18.546875 47.265625 
Q 14.109375 46.140625 10.015625 43.890625 
L 10.015625 52.203125 
Q 14.9375 54.109375 19.578125 55.046875 
Q 24.21875 56 28.609375 56 
Q 40.484375 56 46.34375 49.84375 
Q 52.203125 43.703125 52.203125 31.203125 
z
" id="DejaVuSans-61"/>
      <path d="M 44.28125 53.078125 
L 44.28125 44.578125 
Q 40.484375 46.53125 36.375 47.5 
Q 32.28125 48.484375 27.875 48.484375 
Q 21.1875 48.484375 17.84375 46.4375 
Q 14.5 44.390625 14.5 40.28125 
Q 14.5 37.15625 16.890625 35.375 
Q 19.28125 33.59375 26.515625 31.984375 
L 29.59375 31.296875 
Q 39.15625 29.25 43.1875 25.515625 
Q 47.21875 21.78125 47.21875 15.09375 
Q 47.21875 7.46875 41.1875 3.015625 
Q 35.15625 -1.421875 24.609375 -1.421875 
Q 20.21875 -1.421875 15.453125 -0.5625 
Q 10.6875 0.296875 5.421875 2 
L 5.421875 11.28125 
Q 10.40625 8.6875 15.234375 7.390625 
Q 20.0625 6.109375 24.8125 6.109375 
Q 31.15625 6.109375 34.5625 8.28125 
Q 37.984375 10.453125 37.984375 14.40625 
Q 37.984375 18.0625 35.515625 20.015625 
Q 33.0625 21.96875 24.703125 23.78125 
L 21.578125 24.515625 
Q 13.234375 26.265625 9.515625 29.90625 
Q 5.8125 33.546875 5.8125 39.890625 
Q 5.8125 47.609375 11.28125 51.796875 
Q 16.75 56 26.8125 56 
Q 31.78125 56 36.171875 55.265625 
Q 40.578125 54.546875 44.28125 53.078125 
z
" id="DejaVuSans-73"/>
      <path d="M 41.109375 46.296875 
Q 39.59375 47.171875 37.8125 47.578125 
Q 36.03125 48 33.890625 48 
Q 26.265625 48 22.1875 43.046875 
Q 18.109375 38.09375 18.109375 28.8125 
L 18.109375 0 
L 9.078125 0 
L 9.078125 54.6875 
L 18.109375 54.6875 
L 18.109375 46.1875 
Q 20.953125 51.171875 25.484375 53.578125 
Q 30.03125 56 36.53125 56 
Q 37.453125 56 38.578125 55.875 
Q 39.703125 55.765625 41.0625 55.515625 
z
" id="DejaVuSans-72"/>
      <path d="M 18.3125 70.21875 
L 18.3125 54.6875 
L 36.8125 54.6875 
L 36.8125 47.703125 
L 18.3125 47.703125 
L 18.3125 18.015625 
Q 18.3125 11.328125 20.140625 9.421875 
Q 21.96875 7.515625 27.59375 7.515625 
L 36.8125 7.515625 
L 36.8125 0 
L 27.59375 0 
Q 17.1875 0 13.234375 3.875 
Q 9.28125 7.765625 9.28125 18.015625 
L 9.28125 47.703125 
L 2.6875 47.703125 
L 2.6875 54.6875 
L 9.28125 54.6875 
L 9.28125 70.21875 
z
" id="DejaVuSans-74"/>
      <path d="M 9.421875 54.6875 
L 18.40625 54.6875 
L 18.40625 0 
L 9.421875 0 
z
M 9.421875 75.984375 
L 18.40625 75.984375 
L 18.40625 64.59375 
L 9.421875 64.59375 
z
" id="DejaVuSans-69"/>
     </defs>
     <g transform="translate(140.111312 336.833125)scale(0.2 -0.2)">
      <use xlink:href="#DejaVuSans-6c"/>
      <use x="27.783203" xlink:href="#DejaVuSans-6f"/>
      <use x="88.964844" xlink:href="#DejaVuSans-67"/>
      <use x="152.441406" xlink:href="#DejaVuSans-31"/>
      <use x="216.064453" xlink:href="#DejaVuSans-30"/>
      <use x="279.6875" xlink:href="#DejaVuSans-20"/>
      <use x="311.474609" xlink:href="#DejaVuSans-6f"/>
      <use x="372.65625" xlink:href="#DejaVuSans-66"/>
      <use x="407.861328" xlink:href="#DejaVuSans-20"/>
      <use x="439.648438" xlink:href="#DejaVuSans-46"/>
      <use x="497.167969" xlink:href="#DejaVuSans-45"/>
      <use x="560.351562" xlink:href="#DejaVuSans-76"/>
      <use x="619.53125" xlink:href="#DejaVuSans-61"/>
      <use x="680.810547" xlink:href="#DejaVuSans-6c"/>
      <use x="708.59375" xlink:href="#DejaVuSans-73"/>
      <use x="760.693359" xlink:href="#DejaVuSans-20"/>
      <use x="792.480469" xlink:href="#DejaVuSans-72"/>
      <use x="833.59375" xlink:href="#DejaVuSans-61"/>
      <use x="894.873047" xlink:href="#DejaVuSans-74"/>
      <use x="934.082031" xlink:href="#DejaVuSans-69"/>
      <use x="961.865234" xlink:href="#DejaVuSans-6f"/>
     </g>
    </g>
   </g>
   <g id="matplotlib.axis_2">
    <g id="ytick_1">
     <g id="line2d_29">
      <path clip-path="url(#pd38f6d7f35)" d="M 34.16 288.478431 
L 450.672 288.478431 
" style="fill:none;stroke:#b0b0b0;stroke-linecap:square;stroke-width:0.8;"/>
     </g>
     <g id="line2d_30">
      <defs>
       <path d="M 0 0 
L -3.5 0 
" id="me20f1fa7be" style="stroke:#000000;stroke-width:0.8;"/>
      </defs>
      <g>
       <use style="stroke:#000000;stroke-width:0.8;" x="34.16" xlink:href="#me20f1fa7be" y="288.478431"/>
      </g>
     </g>
    </g>
    <g id="ytick_2">
     <g id="line2d_31">
      <path clip-path="url(#pd38f6d7f35)" d="M 34.16 218.439216 
L 450.672 218.439216 
" style="fill:none;stroke:#b0b0b0;stroke-linecap:square;stroke-width:0.8;"/>
     </g>
     <g id="line2d_32">
      <g>
       <use style="stroke:#000000;stroke-width:0.8;" x="34.16" xlink:href="#me20f1fa7be" y="218.439216"/>
      </g>
     </g>
    </g>
    <g id="ytick_3">
     <g id="line2d_33">
      <path clip-path="url(#pd38f6d7f35)" d="M 34.16 148.4 
L 450.672 148.4 
" style="fill:none;stroke:#b0b0b0;stroke-linecap:square;stroke-width:0.8;"/>
     </g>
     <g id="line2d_34">
      <g>
       <use style="stroke:#000000;stroke-width:0.8;" x="34.16" xlink:href="#me20f1fa7be" y="148.4"/>
      </g>
     </g>
    </g>
    <g id="ytick_4">
     <g id="line2d_35">
      <path clip-path="url(#pd38f6d7f35)" d="M 34.16 78.360784 
L 450.672 78.360784 
" style="fill:none;stroke:#b0b0b0;stroke-linecap:square;stroke-width:0.8;"/>
     </g>
     <g id="line2d_36">
      <g>
       <use style="stroke:#000000;stroke-width:0.8;" x="34.16" xlink:href="#me20f1fa7be" y="78.360784"/>
      </g>
     </g>
    </g>
    <g id="ytick_5">
     <g id="line2d_37">
      <path clip-path="url(#pd38f6d7f35)" d="M 34.16 8.321569 
L 450.672 8.321569 
" style="fill:none;stroke:#b0b0b0;stroke-linecap:square;stroke-width:0.8;"/>
     </g>
     <g id="line2d_38">
      <g>
       <use style="stroke:#000000;stroke-width:0.8;" x="34.16" xlink:href="#me20f1fa7be" y="8.321569"/>
      </g>
     </g>
    </g>
    <g id="text_5">
     <!-- proportion of trials -->
     <defs>
      <path d="M 18.109375 8.203125 
L 18.109375 -20.796875 
L 9.078125 -20.796875 
L 9.078125 54.6875 
L 18.109375 54.6875 
L 18.109375 46.390625 
Q 20.953125 51.265625 25.265625 53.625 
Q 29.59375 56 35.59375 56 
Q 45.5625 56 51.78125 48.09375 
Q 58.015625 40.1875 58.015625 27.296875 
Q 58.015625 14.40625 51.78125 6.484375 
Q 45.5625 -1.421875 35.59375 -1.421875 
Q 29.59375 -1.421875 25.265625 0.953125 
Q 20.953125 3.328125 18.109375 8.203125 
z
M 48.6875 27.296875 
Q 48.6875 37.203125 44.609375 42.84375 
Q 40.53125 48.484375 33.40625 48.484375 
Q 26.265625 48.484375 22.1875 42.84375 
Q 18.109375 37.203125 18.109375 27.296875 
Q 18.109375 17.390625 22.1875 11.75 
Q 26.265625 6.109375 33.40625 6.109375 
Q 40.53125 6.109375 44.609375 11.75 
Q 48.6875 17.390625 48.6875 27.296875 
z
" id="DejaVuSans-70"/>
      <path d="M 54.890625 33.015625 
L 54.890625 0 
L 45.90625 0 
L 45.90625 32.71875 
Q 45.90625 40.484375 42.875 44.328125 
Q 39.84375 48.1875 33.796875 48.1875 
Q 26.515625 48.1875 22.3125 43.546875 
Q 18.109375 38.921875 18.109375 30.90625 
L 18.109375 0 
L 9.078125 0 
L 9.078125 54.6875 
L 18.109375 54.6875 
L 18.109375 46.1875 
Q 21.34375 51.125 25.703125 53.5625 
Q 30.078125 56 35.796875 56 
Q 45.21875 56 50.046875 50.171875 
Q 54.890625 44.34375 54.890625 33.015625 
z
" id="DejaVuSans-6e"/>
     </defs>
     <g transform="translate(19.000625 241.628125)rotate(-90)scale(0.2 -0.2)">
      <use xlink:href="#DejaVuSans-70"/>
      <use x="63.476562" xlink:href="#DejaVuSans-72"/>
      <use x="104.558594" xlink:href="#DejaVuSans-6f"/>
      <use x="165.740234" xlink:href="#DejaVuSans-70"/>
      <use x="229.216797" xlink:href="#DejaVuSans-6f"/>
      <use x="290.398438" xlink:href="#DejaVuSans-72"/>
      <use x="331.511719" xlink:href="#DejaVuSans-74"/>
      <use x="370.720703" xlink:href="#DejaVuSans-69"/>
      <use x="398.503906" xlink:href="#DejaVuSans-6f"/>
      <use x="459.685547" xlink:href="#DejaVuSans-6e"/>
      <use x="523.064453" xlink:href="#DejaVuSans-20"/>
      <use x="554.851562" xlink:href="#DejaVuSans-6f"/>
      <use x="616.033203" xlink:href="#DejaVuSans-66"/>
      <use x="651.238281" xlink:href="#DejaVuSans-20"/>
      <use x="683.025391" xlink:href="#DejaVuSans-74"/>
      <use x="722.234375" xlink:href="#DejaVuSans-72"/>
      <use x="763.347656" xlink:href="#DejaVuSans-69"/>
      <use x="791.130859" xlink:href="#DejaVuSans-61"/>
      <use x="852.410156" xlink:href="#DejaVuSans-6c"/>
      <use x="880.193359" xlink:href="#DejaVuSans-73"/>
     </g>
    </g>
   </g>
   <g id="line2d_39">
    <path clip-path="url(#pd38f6d7f35)" d="M 34.16 195.09281 
L 49.182168 195.09281 
L 49.182168 194.677763 
L 57.54597 194.677763 
L 57.54597 194.262716 
L 58.807539 194.262716 
L 58.807539 193.847669 
L 61.405043 193.847669 
L 61.405043 193.432622 
L 69.949454 193.432622 
L 69.949454 193.017574 
L 75.063445 193.017574 
L 75.063445 192.602527 
L 75.412695 192.602527 
L 75.412695 192.18748 
L 76.734622 192.18748 
L 76.734622 191.772433 
L 79.101224 191.772433 
L 79.101224 191.357386 
L 82.143705 191.357386 
L 82.143705 190.942338 
L 83.400889 190.942338 
L 83.400889 190.527291 
L 84.392525 190.527291 
L 84.392525 190.112244 
L 84.682367 190.112244 
L 84.682367 189.697197 
L 85.710222 189.697197 
L 85.710222 189.28215 
L 88.682441 189.28215 
L 88.682441 188.867102 
L 89.721331 188.867102 
L 89.721331 188.452055 
L 94.074024 188.452055 
L 94.074024 188.037008 
L 94.46769 188.037008 
L 94.46769 187.621961 
L 95.335592 187.621961 
L 95.335592 187.206914 
L 97.933096 187.206914 
L 97.933096 186.791866 
L 102.683739 186.791866 
L 102.683739 186.376819 
L 102.831492 186.376819 
L 102.831492 185.961772 
L 104.09306 185.961772 
L 104.09306 185.546725 
L 106.690564 185.546725 
L 106.690564 185.131678 
L 108.52869 185.131678 
L 108.52869 184.71663 
L 109.12846 184.71663 
L 109.12846 184.301583 
L 110.166167 184.301583 
L 110.166167 183.886536 
L 110.926729 183.886536 
L 110.926729 183.471489 
L 111.940749 183.471489 
L 111.940749 183.056442 
L 113.262675 183.056442 
L 113.262675 182.641394 
L 113.461004 182.641394 
L 113.461004 182.226347 
L 115.399061 182.226347 
L 115.399061 180.566158 
L 116.959473 180.566158 
L 116.959473 179.736064 
L 117.492262 179.736064 
L 117.492262 179.321017 
L 118.325173 179.321017 
L 118.325173 178.490922 
L 118.753831 178.490922 
L 118.753831 178.075875 
L 119.443614 178.075875 
L 119.443614 177.660828 
L 120.698217 177.660828 
L 120.698217 177.245781 
L 120.920578 177.245781 
L 120.920578 176.830733 
L 121.127609 176.830733 
L 121.127609 176.415686 
L 121.351334 176.415686 
L 121.351334 176.000639 
L 122.020143 176.000639 
L 122.020143 175.585592 
L 123.762863 175.585592 
L 123.762863 173.925403 
L 125.024431 173.925403 
L 125.024431 172.265214 
L 126.688975 172.265214 
L 126.688975 171.43512 
L 127.621935 171.43512 
L 127.621935 169.774931 
L 127.950543 169.774931 
L 127.950543 168.944837 
L 128.887491 168.944837 
L 128.887491 168.529789 
L 129.491411 168.529789 
L 129.491411 168.114742 
L 129.678046 168.114742 
L 129.678046 167.699695 
L 130.548047 167.699695 
L 130.548047 166.869601 
L 130.75298 166.869601 
L 130.75298 166.454553 
L 131.28466 166.454553 
L 131.28466 166.039506 
L 132.774527 166.039506 
L 132.774527 165.624459 
L 133.350483 165.624459 
L 133.350483 165.209412 
L 135.075003 165.209412 
L 135.075003 164.794365 
L 135.358987 164.794365 
L 135.358987 164.379317 
L 136.680914 164.379317 
L 136.680914 163.96427 
L 137.251293 163.96427 
L 137.251293 163.549223 
L 137.888518 163.549223 
L 137.888518 163.134176 
L 138.512862 163.134176 
L 138.512862 162.719129 
L 139.211793 162.719129 
L 139.211793 162.304081 
L 139.648462 162.304081 
L 139.648462 161.889034 
L 140.146094 161.889034 
L 140.146094 161.473987 
L 140.910031 161.473987 
L 140.910031 161.05894 
L 141.110366 161.05894 
L 141.110366 160.643893 
L 141.629588 160.643893 
L 141.629588 158.983704 
L 141.926297 158.983704 
L 141.926297 158.568656 
L 142.543263 158.568656 
L 142.543263 158.153609 
L 142.951514 158.153609 
L 142.951514 156.49342 
L 143.507535 156.49342 
L 143.507535 156.078373 
L 143.847669 156.078373 
L 143.847669 155.663326 
L 144.338817 155.663326 
L 144.338817 155.248279 
L 144.5557 155.248279 
L 144.5557 154.418184 
L 144.968778 154.418184 
L 145.056743 153.58809 
L 145.877627 153.58809 
L 145.877627 152.757996 
L 146.225962 152.757996 
L 146.225962 152.342948 
L 146.69422 152.342948 
L 146.69422 151.927901 
L 147.092322 151.927901 
L 147.092322 151.512854 
L 147.358136 151.512854 
L 147.358136 151.097807 
L 147.50744 151.097807 
L 147.50744 150.68276 
L 147.969261 150.68276 
L 147.969261 150.267712 
L 148.680063 150.267712 
L 148.680063 149.852665 
L 150.609417 149.852665 
L 150.609417 148.192476 
L 151.349256 148.192476 
L 151.349256 147.777429 
L 151.507514 147.777429 
L 151.507514 147.362382 
L 152.546404 147.362382 
L 152.546404 146.947335 
L 153.53553 146.947335 
L 153.53553 146.11724 
L 153.814211 146.11724 
L 153.814211 145.702193 
L 155.118018 145.702193 
L 155.118018 145.287146 
L 155.451688 145.287146 
L 155.451688 144.872099 
L 155.971668 144.872099 
L 155.971668 144.457052 
L 156.337966 144.457052 
L 156.439945 143.626957 
L 157.515187 143.626957 
L 157.515187 143.21191 
L 158.837114 143.21191 
L 158.837114 142.796863 
L 159.210063 142.796863 
L 159.210063 142.381816 
L 162.630031 142.381816 
L 162.630031 141.966768 
L 163.370864 141.966768 
L 163.370864 141.551721 
L 164.097848 141.551721 
L 164.097848 141.136674 
L 164.324055 141.136674 
L 164.324055 140.721627 
L 164.448136 140.721627 
L 164.448136 140.30658 
L 164.729136 140.30658 
L 164.729136 139.891532 
L 165.054537 139.891532 
L 165.054537 139.476485 
L 166.495017 139.476485 
L 166.495017 139.061438 
L 167.708909 139.061438 
L 167.708909 138.646391 
L 168.361834 138.646391 
L 168.361834 138.231344 
L 168.474981 138.231344 
L 168.474981 137.816296 
L 168.900632 137.816296 
L 168.900632 136.156107 
L 169.300532 136.156107 
L 169.300532 135.74106 
L 169.562128 135.74106 
L 169.562128 135.326013 
L 170.112459 135.326013 
L 170.112459 134.910966 
L 170.735866 134.910966 
L 170.735866 134.080871 
L 171.404315 134.080871 
L 171.404315 133.665824 
L 171.826744 133.665824 
L 171.930753 132.420683 
L 172.661498 132.420683 
L 172.661498 132.005635 
L 173.599907 132.005635 
L 173.599907 131.590588 
L 173.751802 131.590588 
L 173.751802 131.175541 
L 173.942977 131.175541 
L 173.942977 130.760494 
L 174.62918 130.760494 
L 174.62918 130.345447 
L 174.745582 130.345447 
L 174.745582 128.685258 
L 175.862539 128.685258 
L 175.862539 127.855163 
L 176.383059 127.855163 
L 176.383059 126.194975 
L 176.642388 126.194975 
L 176.642388 125.779927 
L 177.671694 125.779927 
L 177.671694 124.949833 
L 177.899571 124.949833 
L 177.943051 124.119739 
L 178.060048 124.119739 
L 178.060048 123.289644 
L 178.981941 123.289644 
L 178.981941 122.874597 
L 179.18105 122.874597 
L 179.18105 122.45955 
L 179.309171 122.45955 
L 179.389906 121.214408 
L 179.784546 121.214408 
L 179.784546 120.384314 
L 180.47413 120.384314 
L 180.47413 119.969267 
L 182.111607 119.969267 
L 182.111607 119.554219 
L 182.389062 119.554219 
L 182.389062 119.139172 
L 183.17404 119.139172 
L 183.181124 117.894031 
L 184.220014 117.894031 
L 184.226341 116.648889 
L 184.786231 116.648889 
L 184.786231 116.233842 
L 184.984863 116.233842 
L 184.984863 115.818794 
L 185.487909 115.818794 
L 185.487909 114.9887 
L 185.660507 114.9887 
L 185.660507 113.328511 
L 185.79476 113.328511 
L 185.79476 112.498417 
L 186.668536 112.498417 
L 186.668536 112.08337 
L 187.211819 112.08337 
L 187.211819 111.253275 
L 187.367509 111.253275 
L 187.367509 110.838228 
L 188.085413 110.838228 
L 188.085413 110.008134 
L 188.234013 110.008134 
L 188.312451 109.178039 
L 188.586619 109.178039 
L 188.586619 108.347945 
L 189.34817 108.347945 
L 189.34817 107.932898 
L 189.87149 107.932898 
L 189.87149 107.51785 
L 190.055953 107.51785 
L 190.055953 107.102803 
L 190.2543 107.102803 
L 190.2543 106.272709 
L 190.631182 106.272709 
L 190.631182 105.857662 
L 190.908752 105.857662 
L 190.908752 105.027567 
L 191.389055 105.027567 
L 191.389055 104.61252 
L 191.511483 104.61252 
L 191.511483 103.782426 
L 191.739626 103.782426 
L 191.739626 103.367378 
L 192.268659 103.367378 
L 192.268659 102.952331 
L 192.453122 102.952331 
L 192.453122 102.537284 
L 192.720818 102.537284 
L 192.792962 101.292142 
L 194.136795 101.292142 
L 194.136795 100.877095 
L 194.462162 100.877095 
L 194.462162 100.462048 
L 194.946531 100.462048 
L 194.946531 99.631954 
L 196.793036 99.631954 
L 196.793036 98.801859 
L 197.002182 98.801859 
L 197.002182 98.386812 
L 197.831926 98.386812 
L 197.83481 97.14167 
L 197.989012 97.14167 
L 197.989012 96.311576 
L 198.168412 96.311576 
L 198.168412 95.896529 
L 198.499941 95.896529 
L 198.499941 95.481481 
L 198.685855 95.481481 
L 198.685855 95.066434 
L 199.148937 95.066434 
L 199.246196 93.821293 
L 200.187339 93.821293 
L 200.187339 93.406245 
L 200.527674 93.406245 
L 200.527674 92.576151 
L 201.259116 92.576151 
L 201.259116 92.161104 
L 201.542422 92.161104 
L 201.546106 91.331009 
L 201.872589 91.331009 
L 201.872589 90.915962 
L 202.093066 90.915962 
L 202.093066 90.085868 
L 202.799605 90.085868 
L 202.799605 89.670821 
L 202.942789 89.670821 
L 202.942789 89.255773 
L 203.414992 89.255773 
L 203.414992 88.425679 
L 204.081084 88.425679 
L 204.081084 88.010632 
L 204.527748 88.010632 
L 204.527748 87.180537 
L 204.91507 87.180537 
L 204.91507 86.76549 
L 205.425412 86.76549 
L 205.425412 86.350443 
L 205.566638 86.350443 
L 205.566638 85.520349 
L 206.172254 85.520349 
L 206.220082 84.275207 
L 206.672742 84.275207 
L 206.672742 83.86016 
L 207.408759 83.86016 
L 207.453732 82.615018 
L 208.081158 82.615018 
L 208.081158 82.199971 
L 208.981508 82.199971 
L 208.981508 81.784924 
L 209.120048 81.784924 
L 209.120048 81.369877 
L 211.072896 81.369877 
L 211.072896 80.539782 
L 211.453806 80.539782 
L 211.458155 79.294641 
L 212.492696 79.294641 
L 212.522751 78.049499 
L 213.540209 78.049499 
L 213.540209 77.634452 
L 214.052598 77.634452 
L 214.052598 77.219405 
L 216.449767 77.219405 
L 216.56053 75.974263 
L 217.618768 75.974263 
L 217.618768 75.559216 
L 218.961917 75.559216 
L 219.037324 74.314074 
L 219.210391 74.314074 
L 219.302441 73.48398 
L 219.603011 73.48398 
L 219.603011 72.653885 
L 220.860195 72.653885 
L 220.894065 71.408744 
L 220.998827 71.408744 
L 220.998827 70.993696 
L 222.141673 70.993696 
L 222.141673 70.163602 
L 222.579966 70.163602 
L 222.579966 69.748555 
L 223.280478 69.748555 
L 223.280478 69.333508 
L 223.683012 69.333508 
L 223.683012 68.91846 
L 225.070067 68.91846 
L 225.070067 67.258272 
L 225.255761 67.258272 
L 225.255761 66.843224 
L 226.141747 66.843224 
L 226.141747 66.01313 
L 226.772036 66.01313 
L 226.772036 65.183036 
L 227.180637 65.183036 
L 227.180637 64.352941 
L 228.797004 64.352941 
L 228.797004 63.937894 
L 229.36411 63.937894 
L 229.36411 63.1078 
L 230.325446 63.1078 
L 230.325446 62.692752 
L 232.80478 62.692752 
L 232.834783 60.617516 
L 233.108279 60.617516 
L 233.108279 60.202469 
L 233.560939 60.202469 
L 233.560939 59.372375 
L 233.698094 59.372375 
L 233.698094 58.957328 
L 234.755826 58.957328 
L 234.755826 58.54228 
L 235.20906 58.54228 
L 235.20906 57.712186 
L 235.877264 57.712186 
L 235.877264 57.297139 
L 236.358189 57.297139 
L 236.358189 56.467044 
L 236.846537 56.467044 
L 236.846537 55.63695 
L 237.134448 55.63695 
L 237.134448 55.221903 
L 238.22231 55.221903 
L 238.22231 54.806855 
L 238.346352 54.806855 
L 238.415926 53.976761 
L 239.730838 53.976761 
L 239.730838 53.146667 
L 239.905983 53.146667 
L 239.905983 52.731619 
L 241.615413 52.731619 
L 241.634288 51.901525 
L 242.416 51.901525 
L 242.416 51.486478 
L 243.207037 51.486478 
L 243.207037 51.071431 
L 243.45489 51.071431 
L 243.45489 50.656383 
L 246.123985 50.656383 
L 246.123985 49.826289 
L 246.74828 49.826289 
L 246.74828 49.411242 
L 247.644235 49.411242 
L 247.644235 48.996195 
L 248.078271 48.996195 
L 248.078271 48.581147 
L 248.386035 48.581147 
L 248.482789 47.336006 
L 249.761944 47.336006 
L 249.761944 46.920959 
L 250.786059 46.920959 
L 250.786059 46.505911 
L 251.958264 46.505911 
L 251.958264 45.675817 
L 252.758227 45.675817 
L 252.758227 45.26077 
L 253.82854 45.26077 
L 253.82854 44.845723 
L 254.418779 44.845723 
L 254.418779 43.185534 
L 255.085723 43.185534 
L 255.085723 42.770487 
L 256.367202 42.770487 
L 256.367202 42.355439 
L 256.796006 42.355439 
L 256.796006 41.940392 
L 259.692976 41.940392 
L 259.692976 41.110298 
L 259.838487 41.110298 
L 259.838487 40.695251 
L 259.996475 40.695251 
L 259.996475 39.865156 
L 260.367276 39.865156 
L 260.367276 39.450109 
L 261.095671 39.450109 
L 261.191363 38.620015 
L 261.406166 38.620015 
L 261.406166 38.204967 
L 262.218955 38.204967 
L 262.218955 37.78992 
L 262.377149 37.78992 
L 262.377149 37.374873 
L 263.246386 37.374873 
L 263.246386 36.959826 
L 263.450068 36.959826 
L 263.450068 36.544779 
L 264.660288 36.544779 
L 264.660288 36.129731 
L 265.133741 36.129731 
L 265.234548 34.88459 
L 266.377223 34.88459 
L 266.429436 34.054495 
L 266.619034 34.054495 
L 266.619034 33.639448 
L 267.416113 33.639448 
L 267.416113 33.224401 
L 268.871777 33.224401 
L 268.871777 32.809354 
L 270.55545 32.809354 
L 270.55545 32.394306 
L 270.693032 32.394306 
L 270.693032 31.564212 
L 272.074916 31.564212 
L 272.074916 31.149165 
L 272.489826 31.149165 
L 272.489826 30.734118 
L 273.190337 30.734118 
L 273.190337 30.31907 
L 274.173499 30.31907 
L 274.173499 29.904023 
L 274.87401 29.904023 
L 274.87401 29.488976 
L 278.84646 29.488976 
L 278.84646 27.828787 
L 280.041348 27.828787 
L 280.041348 26.998693 
L 281.306975 26.998693 
L 281.306975 26.168598 
L 282.611564 26.168598 
L 282.611564 25.753551 
L 286.581173 25.753551 
L 286.581173 24.093362 
L 287.446713 24.093362 
L 287.446713 23.678315 
L 287.77606 23.678315 
L 287.77606 22.848221 
L 288.621511 22.848221 
L 288.644307 21.603079 
L 290.134582 21.603079 
L 290.134582 20.772985 
L 291.32947 20.772985 
L 291.32947 20.357938 
L 292.868422 20.357938 
L 292.868422 19.94289 
L 293.507231 19.94289 
L 293.507231 19.112796 
L 294.654255 19.112796 
L 294.702118 17.867654 
L 296.486471 17.867654 
L 296.486471 17.452607 
L 297.186982 17.452607 
L 297.186982 17.03756 
L 297.581228 17.03756 
L 297.581228 16.622513 
L 298.392648 16.622513 
L 298.392648 16.207466 
L 300.076321 16.207466 
L 300.076321 15.792418 
L 308.195172 15.792418 
L 308.195172 14.132229 
L 309.390059 14.132229 
L 309.390059 13.302135 
L 315.532504 13.302135 
L 315.532504 12.887088 
L 321.542451 12.887088 
L 321.542451 12.472041 
L 322.389293 12.472041 
L 322.389293 12.056993 
L 324.469425 12.056993 
L 324.469425 11.226899 
L 325.664312 11.226899 
L 325.664312 10.811852 
L 342.4207 10.811852 
L 342.4207 9.981757 
L 343.615588 9.981757 
L 343.615588 9.56671 
L 348.430648 9.56671 
L 348.430648 8.736616 
L 349.625535 8.736616 
L 349.625535 8.321569 
L 450.672 8.321569 
L 450.672 8.321569 
" style="fill:none;stroke:#000000;stroke-linecap:square;stroke-width:3;"/>
   </g>
   <g id="line2d_40">
    <path clip-path="url(#pd38f6d7f35)" style="fill:none;stroke:#000000;stroke-linecap:square;stroke-width:3;"/>
   </g>
   <g id="line2d_41">
    <path clip-path="url(#pd38f6d7f35)" d="M 34.16 51.901525 
L 139.316891 51.901525 
L 139.316891 51.486478 
L 153.646351 51.486478 
L 153.646351 51.071431 
L 155.501693 51.071431 
L 155.501693 50.656383 
L 158.311008 50.656383 
L 158.311008 50.241336 
L 158.912639 50.241336 
L 158.912639 49.826289 
L 159.795722 49.826289 
L 159.795722 48.996195 
L 161.517323 48.996195 
L 161.517323 48.581147 
L 169.831152 48.581147 
L 169.831152 48.1661 
L 173.058583 48.1661 
L 173.058583 47.751053 
L 173.242098 47.751053 
L 173.242098 47.336006 
L 174.249893 47.336006 
L 174.249893 46.920959 
L 174.49581 46.920959 
L 174.49581 46.505911 
L 175.846783 46.505911 
L 175.846783 46.090864 
L 175.980524 46.090864 
L 175.980524 45.26077 
L 176.570169 45.26077 
L 176.570169 44.845723 
L 177.906756 44.845723 
L 177.906756 44.430675 
L 179.39147 44.430675 
L 179.39147 43.600581 
L 180.51144 43.600581 
L 180.51144 43.185534 
L 181.996154 43.185534 
L 181.996154 42.355439 
L 186.110473 42.355439 
L 186.16099 41.525345 
L 187.552253 41.525345 
L 187.552253 41.110298 
L 189.243385 41.110298 
L 189.243385 40.695251 
L 190.250162 40.695251 
L 190.250162 40.280203 
L 190.434694 40.280203 
L 190.434694 39.865156 
L 191.784527 39.865156 
L 191.784527 39.450109 
L 192.654331 39.450109 
L 192.75497 38.620015 
L 192.842588 38.620015 
L 192.842588 38.204967 
L 193.84564 38.204967 
L 193.84564 37.78992 
L 195.259015 37.78992 
L 195.259015 37.374873 
L 195.86708 37.374873 
L 195.86708 36.959826 
L 196.165916 36.959826 
L 196.168135 36.129731 
L 196.450324 36.129731 
L 196.450324 35.714684 
L 197.258343 35.714684 
L 197.258343 35.299637 
L 197.741883 35.299637 
L 197.741883 34.88459 
L 198.7706 34.88459 
L 198.7706 34.469542 
L 199.956253 34.469542 
L 199.956253 34.054495 
L 202.295275 34.054495 
L 202.295275 33.639448 
L 202.548679 33.639448 
L 202.548679 33.224401 
L 205.706221 33.224401 
L 205.706221 32.809354 
L 207.447973 32.809354 
L 207.447973 32.394306 
L 207.969328 32.394306 
L 207.969328 31.979259 
L 208.21363 31.979259 
L 208.310905 31.149165 
L 209.604893 31.149165 
L 209.604893 30.734118 
L 210.582498 30.734118 
L 210.582498 30.31907 
L 211.380274 30.31907 
L 211.380274 29.904023 
L 211.548259 29.904023 
L 211.548259 29.073929 
L 212.302802 29.073929 
L 212.352936 28.243834 
L 213.984959 28.243834 
L 213.984959 27.828787 
L 214.895228 27.828787 
L 214.895228 27.41374 
L 215.763882 27.41374 
L 215.763882 26.998693 
L 216.176727 26.998693 
L 216.176727 26.583646 
L 217.941295 26.583646 
L 217.941295 26.168598 
L 218.319315 26.168598 
L 218.368566 25.338504 
L 219.794523 25.338504 
L 219.794523 24.923457 
L 220.288588 24.923457 
L 220.288588 24.50841 
L 221.254349 24.50841 
L 221.254349 23.678315 
L 223.009183 23.678315 
L 223.009183 23.263268 
L 225.882817 23.263268 
L 225.882817 22.848221 
L 227.647386 22.848221 
L 227.647386 22.433174 
L 228.391349 22.433174 
L 228.391349 22.018126 
L 228.959849 22.018126 
L 228.959849 21.603079 
L 230.585778 21.603079 
L 230.585778 21.188032 
L 232.635138 21.188032 
L 232.635138 20.772985 
L 233.600899 20.772985 
L 233.600899 19.94289 
L 234.504116 19.94289 
L 234.504116 19.527843 
L 236.760984 19.527843 
L 236.760984 19.112796 
L 237.915062 19.112796 
L 237.915062 18.697749 
L 238.09744 18.697749 
L 238.09744 18.282702 
L 238.229367 18.282702 
L 238.229367 17.867654 
L 239.193984 17.867654 
L 239.193984 17.452607 
L 239.993936 17.452607 
L 239.993936 17.03756 
L 240.291868 17.03756 
L 240.291868 16.622513 
L 240.519747 16.622513 
L 240.519747 16.207466 
L 242.60493 16.207466 
L 242.60493 15.792418 
L 245.14465 15.792418 
L 245.209614 14.962324 
L 248.555596 14.962324 
L 248.555596 14.547277 
L 250.443989 14.547277 
L 250.443989 14.132229 
L 251.160281 14.132229 
L 251.160281 13.717182 
L 251.932402 13.717182 
L 251.932402 13.302135 
L 252.451839 13.302135 
L 252.451839 12.887088 
L 252.638418 12.887088 
L 252.638418 12.472041 
L 252.945786 12.472041 
L 252.945786 12.056993 
L 256.356732 12.056993 
L 256.356732 11.641946 
L 258.961416 11.641946 
L 258.961416 11.226899 
L 261.638492 11.226899 
L 261.638492 10.811852 
L 262.157929 10.811852 
L 262.157929 10.396805 
L 273.985042 10.396805 
L 273.985042 9.981757 
L 274.504479 9.981757 
L 274.504479 9.56671 
L 312.329678 9.56671 
L 312.329678 9.151663 
L 322.035768 9.151663 
L 322.035768 8.736616 
L 334.382318 8.736616 
L 334.382318 8.321569 
L 450.672 8.321569 
L 450.672 8.321569 
" style="fill:none;stroke:#00bfbf;stroke-linecap:square;stroke-width:3;"/>
   </g>
   <g id="line2d_42">
    <path clip-path="url(#pd38f6d7f35)" style="fill:none;stroke:#00bfbf;stroke-linecap:square;stroke-width:3;"/>
   </g>
   <g id="line2d_43">
    <path clip-path="url(#pd38f6d7f35)" d="M 34.16 26.998693 
L 161.685063 26.998693 
L 161.685063 26.583646 
L 167.132141 26.583646 
L 167.132141 26.168598 
L 169.391654 26.168598 
L 169.391654 25.753551 
L 171.650945 25.753551 
L 171.650945 25.338504 
L 172.959825 25.338504 
L 172.959825 24.923457 
L 175.502544 24.923457 
L 175.502544 24.50841 
L 175.502544 24.50841 
L 175.502544 24.093362 
L 177.098023 24.093362 
L 177.098023 23.678315 
L 178.406904 23.678315 
L 178.406904 23.263268 
L 179.357536 23.263268 
L 179.357536 22.848221 
L 180.666416 22.848221 
L 180.666416 22.433174 
L 180.949622 22.433174 
L 180.949622 22.018126 
L 180.949622 22.018126 
L 180.949622 21.603079 
L 183.209135 21.603079 
L 183.209135 21.188032 
L 183.209135 21.188032 
L 183.209135 20.772985 
L 186.931515 20.772985 
L 186.931515 20.357938 
L 190.00851 20.357938 
L 190.00851 19.94289 
L 191.003246 19.94289 
L 191.003246 19.527843 
L 192.378593 19.527843 
L 192.378593 19.112796 
L 194.638106 19.112796 
L 194.638106 18.697749 
L 195.455589 18.697749 
L 195.455589 18.282702 
L 196.450324 18.282702 
L 196.450324 17.867654 
L 197.715101 17.867654 
L 197.715101 17.452607 
L 198.709837 17.452607 
L 198.709837 17.03756 
L 200.207061 17.03756 
L 200.207061 16.622513 
L 204.370423 16.622513 
L 204.370423 16.207466 
L 205.65414 16.207466 
L 205.65414 15.792418 
L 207.913652 15.792418 
L 207.913652 15.377371 
L 208.28777 15.377371 
L 208.28777 14.962324 
L 209.817502 14.962324 
L 209.817502 14.547277 
L 212.077014 14.547277 
L 212.077014 14.132229 
L 213.734848 14.132229 
L 213.734848 13.717182 
L 215.994361 13.717182 
L 215.994361 13.302135 
L 228.465537 13.302135 
L 228.465537 12.887088 
L 232.809646 12.887088 
L 232.809646 12.472041 
L 233.912616 12.472041 
L 233.912616 12.056993 
L 236.172128 12.056993 
L 236.172128 11.641946 
L 238.256725 11.641946 
L 238.256725 11.226899 
L 238.353067 11.226899 
L 238.353067 10.811852 
L 240.516237 10.811852 
L 240.516237 10.396805 
L 243.800146 10.396805 
L 243.800146 9.981757 
L 245.23516 9.981757 
L 245.23516 9.56671 
L 246.059658 9.56671 
L 246.059658 9.151663 
L 250.682238 9.151663 
L 250.682238 8.736616 
L 252.94175 8.736616 
L 252.94175 8.321569 
L 450.672 8.321569 
" style="fill:none;stroke:#bf00bf;stroke-linecap:square;stroke-width:3;"/>
   </g>
   <g id="line2d_44">
    <path clip-path="url(#pd38f6d7f35)" style="fill:none;stroke:#bf00bf;stroke-linecap:square;stroke-width:3;"/>
   </g>
   <g id="line2d_45">
    <path clip-path="url(#pd38f6d7f35)" d="M 34.16 14.547277 
L 167.637604 14.547277 
L 167.637604 14.132229 
L 175.578375 14.132229 
L 175.578375 13.717182 
L 178.027187 13.717182 
L 178.027187 13.302135 
L 179.218497 13.302135 
L 179.218497 12.887088 
L 179.218497 12.887088 
L 179.218497 12.472041 
L 190.084342 12.472041 
L 190.084342 12.056993 
L 193.024873 12.056993 
L 193.024873 11.641946 
L 193.024873 11.641946 
L 193.024873 11.226899 
L 202.81214 11.226899 
L 202.81214 10.811852 
L 206.824318 10.811852 
L 206.824318 10.396805 
L 211.338954 10.396805 
L 211.338954 9.981757 
L 230.748988 9.981757 
L 230.748988 9.56671 
L 234.955278 9.56671 
L 234.955278 9.151663 
L 239.863642 9.151663 
L 239.863642 8.736616 
L 246.605674 8.736616 
L 246.605674 8.321569 
L 450.672 8.321569 
" style="fill:none;stroke:#ff0000;stroke-linecap:square;stroke-width:3;"/>
   </g>
   <g id="line2d_46">
    <path clip-path="url(#pd38f6d7f35)" style="fill:none;stroke:#ff0000;stroke-linecap:square;stroke-width:3;"/>
   </g>
   <g id="line2d_47">
    <path clip-path="url(#pd38f6d7f35)" d="M 242.416 291.28 
L 242.416 5.52 
" style="fill:none;stroke:#000000;stroke-linecap:square;stroke-width:1.5;"/>
   </g>
   <g id="line2d_48">
    <path clip-path="url(#pd38f6d7f35)" d="M 34.16 148.4 
L 450.672 148.4 
" style="fill:none;stroke:#000000;stroke-dasharray:2,3.3;stroke-dashoffset:0;stroke-width:2;"/>
   </g>
   <g id="patch_3">
    <path d="M 34.16 291.28 
L 34.16 5.52 
" style="fill:none;stroke:#000000;stroke-linecap:square;stroke-linejoin:miter;stroke-width:0.8;"/>
   </g>
   <g id="patch_4">
    <path d="M 450.672 291.28 
L 450.672 5.52 
" style="fill:none;stroke:#000000;stroke-linecap:square;stroke-linejoin:miter;stroke-width:0.8;"/>
   </g>
   <g id="patch_5">
    <path d="M 34.16 291.28 
L 450.672 291.28 
" style="fill:none;stroke:#000000;stroke-linecap:square;stroke-linejoin:miter;stroke-width:0.8;"/>
   </g>
   <g id="patch_6">
    <path d="M 34.16 5.52 
L 450.672 5.52 
" style="fill:none;stroke:#000000;stroke-linecap:square;stroke-linejoin:miter;stroke-width:0.8;"/>
   </g>
   <g id="text_6">
    <!-- f6-f9,5-D -->
    <defs>
     <path d="M 33.015625 40.375 
Q 26.375 40.375 22.484375 35.828125 
Q 18.609375 31.296875 18.609375 23.390625 
Q 18.609375 15.53125 22.484375 10.953125 
Q 26.375 6.390625 33.015625 6.390625 
Q 39.65625 6.390625 43.53125 10.953125 
Q 47.40625 15.53125 47.40625 23.390625 
Q 47.40625 31.296875 43.53125 35.828125 
Q 39.65625 40.375 33.015625 40.375 
z
M 52.59375 71.296875 
L 52.59375 62.3125 
Q 48.875 64.0625 45.09375 64.984375 
Q 41.3125 65.921875 37.59375 65.921875 
Q 27.828125 65.921875 22.671875 59.328125 
Q 17.53125 52.734375 16.796875 39.40625 
Q 19.671875 43.65625 24.015625 45.921875 
Q 28.375 48.1875 33.59375 48.1875 
Q 44.578125 48.1875 50.953125 41.515625 
Q 57.328125 34.859375 57.328125 23.390625 
Q 57.328125 12.15625 50.6875 5.359375 
Q 44.046875 -1.421875 33.015625 -1.421875 
Q 20.359375 -1.421875 13.671875 8.265625 
Q 6.984375 17.96875 6.984375 36.375 
Q 6.984375 53.65625 15.1875 63.9375 
Q 23.390625 74.21875 37.203125 74.21875 
Q 40.921875 74.21875 44.703125 73.484375 
Q 48.484375 72.75 52.59375 71.296875 
z
" id="DejaVuSans-36"/>
     <path d="M 10.984375 1.515625 
L 10.984375 10.5 
Q 14.703125 8.734375 18.5 7.8125 
Q 22.3125 6.890625 25.984375 6.890625 
Q 35.75 6.890625 40.890625 13.453125 
Q 46.046875 20.015625 46.78125 33.40625 
Q 43.953125 29.203125 39.59375 26.953125 
Q 35.25 24.703125 29.984375 24.703125 
Q 19.046875 24.703125 12.671875 31.3125 
Q 6.296875 37.9375 6.296875 49.421875 
Q 6.296875 60.640625 12.9375 67.421875 
Q 19.578125 74.21875 30.609375 74.21875 
Q 43.265625 74.21875 49.921875 64.515625 
Q 56.59375 54.828125 56.59375 36.375 
Q 56.59375 19.140625 48.40625 8.859375 
Q 40.234375 -1.421875 26.421875 -1.421875 
Q 22.703125 -1.421875 18.890625 -0.6875 
Q 15.09375 0.046875 10.984375 1.515625 
z
M 30.609375 32.421875 
Q 37.25 32.421875 41.125 36.953125 
Q 45.015625 41.5 45.015625 49.421875 
Q 45.015625 57.28125 41.125 61.84375 
Q 37.25 66.40625 30.609375 66.40625 
Q 23.96875 66.40625 20.09375 61.84375 
Q 16.21875 57.28125 16.21875 49.421875 
Q 16.21875 41.5 20.09375 36.953125 
Q 23.96875 32.421875 30.609375 32.421875 
z
" id="DejaVuSans-39"/>
     <path d="M 11.71875 12.40625 
L 22.015625 12.40625 
L 22.015625 4 
L 14.015625 -11.625 
L 7.71875 -11.625 
L 11.71875 4 
z
" id="DejaVuSans-2c"/>
     <path d="M 10.796875 72.90625 
L 49.515625 72.90625 
L 49.515625 64.59375 
L 19.828125 64.59375 
L 19.828125 46.734375 
Q 21.96875 47.46875 24.109375 47.828125 
Q 26.265625 48.1875 28.421875 48.1875 
Q 40.625 48.1875 47.75 41.5 
Q 54.890625 34.8125 54.890625 23.390625 
Q 54.890625 11.625 47.5625 5.09375 
Q 40.234375 -1.421875 26.90625 -1.421875 
Q 22.3125 -1.421875 17.546875 -0.640625 
Q 12.796875 0.140625 7.71875 1.703125 
L 7.71875 11.625 
Q 12.109375 9.234375 16.796875 8.0625 
Q 21.484375 6.890625 26.703125 6.890625 
Q 35.15625 6.890625 40.078125 11.328125 
Q 45.015625 15.765625 45.015625 23.390625 
Q 45.015625 31 40.078125 35.4375 
Q 35.15625 39.890625 26.703125 39.890625 
Q 22.75 39.890625 18.8125 39.015625 
Q 14.890625 38.140625 10.796875 36.28125 
z
" id="DejaVuSans-35"/>
     <path d="M 19.671875 64.796875 
L 19.671875 8.109375 
L 31.59375 8.109375 
Q 46.6875 8.109375 53.6875 14.9375 
Q 60.6875 21.78125 60.6875 36.53125 
Q 60.6875 51.171875 53.6875 57.984375 
Q 46.6875 64.796875 31.59375 64.796875 
z
M 9.8125 72.90625 
L 30.078125 72.90625 
Q 51.265625 72.90625 61.171875 64.09375 
Q 71.09375 55.28125 71.09375 36.53125 
Q 71.09375 17.671875 61.125 8.828125 
Q 51.171875 0 30.078125 0 
L 9.8125 0 
z
" id="DejaVuSans-44"/>
    </defs>
    <g transform="translate(353.89801 285.5648)scale(0.2 -0.2)">
     <use xlink:href="#DejaVuSans-66"/>
     <use x="35.205078" xlink:href="#DejaVuSans-36"/>
     <use x="98.828125" xlink:href="#DejaVuSans-2d"/>
     <use x="134.912109" xlink:href="#DejaVuSans-66"/>
     <use x="170.117188" xlink:href="#DejaVuSans-39"/>
     <use x="233.740234" xlink:href="#DejaVuSans-2c"/>
     <use x="265.527344" xlink:href="#DejaVuSans-35"/>
     <use x="329.150391" xlink:href="#DejaVuSans-2d"/>
     <use x="365.234375" xlink:href="#DejaVuSans-44"/>
    </g>
   </g>
   <g id="text_7">
    <!-- v0.0.0 -->
    <defs>
     <path d="M 10.6875 12.40625 
L 21 12.40625 
L 21 0 
L 10.6875 0 
z
" id="DejaVuSans-2e"/>
    </defs>
    <g style="fill:#808080;" transform="translate(226.73475 286.342713)scale(0.1 -0.1)">
     <use xlink:href="#DejaVuSans-76"/>
     <use x="59.179688" xlink:href="#DejaVuSans-30"/>
     <use x="122.802734" xlink:href="#DejaVuSans-2e"/>
     <use x="154.589844" xlink:href="#DejaVuSans-30"/>
     <use x="218.212891" xlink:href="#DejaVuSans-2e"/>
     <use x="250" xlink:href="#DejaVuSans-30"/>
    </g>
   </g>
   <g id="legend_1">
    <g id="patch_7">
     <path d="M 307.450125 281.28 
L 436.672 281.28 
Q 440.672 281.28 440.672 277.28 
L 440.672 161.855 
Q 440.672 157.855 436.672 157.855 
L 307.450125 157.855 
Q 303.450125 157.855 303.450125 161.855 
L 303.450125 277.28 
Q 303.450125 281.28 307.450125 281.28 
z
" style="fill:#ffffff;opacity:0.2;stroke:#cccccc;stroke-linejoin:miter;"/>
    </g>
    <g id="line2d_49">
     <path d="M 311.450125 174.051875 
L 351.450125 174.051875 
" style="fill:none;stroke:#000000;stroke-linecap:square;stroke-width:3;"/>
    </g>
    <g id="line2d_50"/>
    <g id="text_8">
     <!-- 1: 3/3 -->
     <defs>
      <path d="M 11.71875 12.40625 
L 22.015625 12.40625 
L 22.015625 0 
L 11.71875 0 
z
M 11.71875 51.703125 
L 22.015625 51.703125 
L 22.015625 39.3125 
L 11.71875 39.3125 
z
" id="DejaVuSans-3a"/>
      <path d="M 40.578125 39.3125 
Q 47.65625 37.796875 51.625 33 
Q 55.609375 28.21875 55.609375 21.1875 
Q 55.609375 10.40625 48.1875 4.484375 
Q 40.765625 -1.421875 27.09375 -1.421875 
Q 22.515625 -1.421875 17.65625 -0.515625 
Q 12.796875 0.390625 7.625 2.203125 
L 7.625 11.71875 
Q 11.71875 9.328125 16.59375 8.109375 
Q 21.484375 6.890625 26.8125 6.890625 
Q 36.078125 6.890625 40.9375 10.546875 
Q 45.796875 14.203125 45.796875 21.1875 
Q 45.796875 27.640625 41.28125 31.265625 
Q 36.765625 34.90625 28.71875 34.90625 
L 20.21875 34.90625 
L 20.21875 43.015625 
L 29.109375 43.015625 
Q 36.375 43.015625 40.234375 45.921875 
Q 44.09375 48.828125 44.09375 54.296875 
Q 44.09375 59.90625 40.109375 62.90625 
Q 36.140625 65.921875 28.71875 65.921875 
Q 24.65625 65.921875 20.015625 65.03125 
Q 15.375 64.15625 9.8125 62.3125 
L 9.8125 71.09375 
Q 15.4375 72.65625 20.34375 73.4375 
Q 25.25 74.21875 29.59375 74.21875 
Q 40.828125 74.21875 47.359375 69.109375 
Q 53.90625 64.015625 53.90625 55.328125 
Q 53.90625 49.265625 50.4375 45.09375 
Q 46.96875 40.921875 40.578125 39.3125 
z
" id="DejaVuSans-33"/>
      <path d="M 25.390625 72.90625 
L 33.6875 72.90625 
L 8.296875 -9.28125 
L 0 -9.28125 
z
" id="DejaVuSans-2f"/>
     </defs>
     <g transform="translate(367.450125 181.051875)scale(0.2 -0.2)">
      <use xlink:href="#DejaVuSans-31"/>
      <use x="63.623047" xlink:href="#DejaVuSans-3a"/>
      <use x="97.314453" xlink:href="#DejaVuSans-20"/>
      <use x="129.101562" xlink:href="#DejaVuSans-33"/>
      <use x="192.724609" xlink:href="#DejaVuSans-2f"/>
      <use x="226.416016" xlink:href="#DejaVuSans-33"/>
     </g>
    </g>
    <g id="line2d_51">
     <path d="M 311.450125 203.408125 
L 351.450125 203.408125 
" style="fill:none;stroke:#00bfbf;stroke-linecap:square;stroke-width:3;"/>
    </g>
    <g id="line2d_52"/>
    <g id="text_9">
     <!-- -1: 3/2 -->
     <defs>
      <path d="M 19.1875 8.296875 
L 53.609375 8.296875 
L 53.609375 0 
L 7.328125 0 
L 7.328125 8.296875 
Q 12.9375 14.109375 22.625 23.890625 
Q 32.328125 33.6875 34.8125 36.53125 
Q 39.546875 41.84375 41.421875 45.53125 
Q 43.3125 49.21875 43.3125 52.78125 
Q 43.3125 58.59375 39.234375 62.25 
Q 35.15625 65.921875 28.609375 65.921875 
Q 23.96875 65.921875 18.8125 64.3125 
Q 13.671875 62.703125 7.8125 59.421875 
L 7.8125 69.390625 
Q 13.765625 71.78125 18.9375 73 
Q 24.125 74.21875 28.421875 74.21875 
Q 39.75 74.21875 46.484375 68.546875 
Q 53.21875 62.890625 53.21875 53.421875 
Q 53.21875 48.921875 51.53125 44.890625 
Q 49.859375 40.875 45.40625 35.40625 
Q 44.1875 33.984375 37.640625 27.21875 
Q 31.109375 20.453125 19.1875 8.296875 
z
" id="DejaVuSans-32"/>
     </defs>
     <g transform="translate(367.450125 210.408125)scale(0.2 -0.2)">
      <use xlink:href="#DejaVuSans-2d"/>
      <use x="36.083984" xlink:href="#DejaVuSans-31"/>
      <use x="99.707031" xlink:href="#DejaVuSans-3a"/>
      <use x="133.398438" xlink:href="#DejaVuSans-20"/>
      <use x="165.185547" xlink:href="#DejaVuSans-33"/>
      <use x="228.808594" xlink:href="#DejaVuSans-2f"/>
      <use x="262.5" xlink:href="#DejaVuSans-32"/>
     </g>
    </g>
    <g id="line2d_53">
     <path d="M 311.450125 232.764375 
L 351.450125 232.764375 
" style="fill:none;stroke:#bf00bf;stroke-linecap:square;stroke-width:3;"/>
    </g>
    <g id="line2d_54"/>
    <g id="text_10">
     <!-- -4: 3/1 -->
     <defs>
      <path d="M 37.796875 64.3125 
L 12.890625 25.390625 
L 37.796875 25.390625 
z
M 35.203125 72.90625 
L 47.609375 72.90625 
L 47.609375 25.390625 
L 58.015625 25.390625 
L 58.015625 17.1875 
L 47.609375 17.1875 
L 47.609375 0 
L 37.796875 0 
L 37.796875 17.1875 
L 4.890625 17.1875 
L 4.890625 26.703125 
z
" id="DejaVuSans-34"/>
     </defs>
     <g transform="translate(367.450125 239.764375)scale(0.2 -0.2)">
      <use xlink:href="#DejaVuSans-2d"/>
      <use x="36.083984" xlink:href="#DejaVuSans-34"/>
      <use x="99.707031" xlink:href="#DejaVuSans-3a"/>
      <use x="133.398438" xlink:href="#DejaVuSans-20"/>
      <use x="165.185547" xlink:href="#DejaVuSans-33"/>
      <use x="228.808594" xlink:href="#DejaVuSans-2f"/>
      <use x="262.5" xlink:href="#DejaVuSans-31"/>
     </g>
    </g>
    <g id="line2d_55">
     <path d="M 311.450125 262.120625 
L 351.450125 262.120625 
" style="fill:none;stroke:#ff0000;stroke-linecap:square;stroke-width:3;"/>
    </g>
    <g id="line2d_56"/>
    <g id="text_11">
     <!-- -8: 3/1 -->
     <defs>
      <path d="M 31.78125 34.625 
Q 24.75 34.625 20.71875 30.859375 
Q 16.703125 27.09375 16.703125 20.515625 
Q 16.703125 13.921875 20.71875 10.15625 
Q 24.75 6.390625 31.78125 6.390625 
Q 38.8125 6.390625 42.859375 10.171875 
Q 46.921875 13.96875 46.921875 20.515625 
Q 46.921875 27.09375 42.890625 30.859375 
Q 38.875 34.625 31.78125 34.625 
z
M 21.921875 38.8125 
Q 15.578125 40.375 12.03125 44.71875 
Q 8.5 49.078125 8.5 55.328125 
Q 8.5 64.0625 14.71875 69.140625 
Q 20.953125 74.21875 31.78125 74.21875 
Q 42.671875 74.21875 48.875 69.140625 
Q 55.078125 64.0625 55.078125 55.328125 
Q 55.078125 49.078125 51.53125 44.71875 
Q 48 40.375 41.703125 38.8125 
Q 48.828125 37.15625 52.796875 32.3125 
Q 56.78125 27.484375 56.78125 20.515625 
Q 56.78125 9.90625 50.3125 4.234375 
Q 43.84375 -1.421875 31.78125 -1.421875 
Q 19.734375 -1.421875 13.25 4.234375 
Q 6.78125 9.90625 6.78125 20.515625 
Q 6.78125 27.484375 10.78125 32.3125 
Q 14.796875 37.15625 21.921875 38.8125 
z
M 18.3125 54.390625 
Q 18.3125 48.734375 21.84375 45.5625 
Q 25.390625 42.390625 31.78125 42.390625 
Q 38.140625 42.390625 41.71875 45.5625 
Q 45.3125 48.734375 45.3125 54.390625 
Q 45.3125 60.0625 41.71875 63.234375 
Q 38.140625 66.40625 31.78125 66.40625 
Q 25.390625 66.40625 21.84375 63.234375 
Q 18.3125 60.0625 18.3125 54.390625 
z
" id="DejaVuSans-38"/>
     </defs>
     <g transform="translate(367.450125 269.120625)scale(0.2 -0.2)">
      <use xlink:href="#DejaVuSans-2d"/>
      <use x="36.083984" xlink:href="#DejaVuSans-38"/>
      <use x="99.707031" xlink:href="#DejaVuSans-3a"/>
      <use x="133.398438" xlink:href="#DejaVuSans-20"/>
      <use x="165.185547" xlink:href="#DejaVuSans-33"/>
      <use x="228.808594" xlink:href="#DejaVuSans-2f"/>
      <use x="262.5" xlink:href="#DejaVuSans-31"/>
     </g>
    </g>
   </g>
  </g>
 </g>
 <defs>
  <clipPath id="pd38f6d7f35">
   <rect height="285.76" width="416.512" x="34.16" y="5.52"/>
  </clipPath>
 </defs>
</svg>
