<?xml version="1.0" encoding="utf-8" standalone="no"?>
<!DOCTYPE svg PUBLIC "-//W3C//DTD SVG 1.1//EN"
  "http://www.w3.org/Graphics/SVG/1.1/DTD/svg11.dtd">
<!-- Created with matplotlib (http://matplotlib.org/) -->
<svg height="345pt" version="1.1" viewBox="0 0 460 345" width="460pt" xmlns="http://www.w3.org/2000/svg" xmlns:xlink="http://www.w3.org/1999/xlink">
 <defs>
  <style type="text/css">
*{stroke-linecap:butt;stroke-linejoin:round;}
  </style>
 </defs>
 <g id="figure_1">
  <g id="patch_1">
   <path d="M 0 345.6 
L 460.8 345.6 
L 460.8 0 
L 0 0 
z
" style="fill:#ffffff;"/>
  </g>
  <g id="axes_1">
   <g id="patch_2">
    <path d="M 34.16 291.28 
L 450.672 291.28 
L 450.672 5.52 
L 34.16 5.52 
z
" style="fill:#ffffff;"/>
   </g>
   <g id="matplotlib.axis_1">
    <g id="xtick_1">
     <g id="line2d_1">
      <path clip-path="url(#p00fc76fc52)" d="M 63.944494 291.28 
L 63.944494 5.52 
" style="fill:none;stroke:#b0b0b0;stroke-linecap:square;stroke-width:0.8;"/>
     </g>
     <g id="line2d_2">
      <defs>
       <path d="M 0 0 
L 0 3.5 
" id="m31f2de1c85" style="stroke:#000000;stroke-width:0.8;"/>
      </defs>
      <g>
       <use style="stroke:#000000;stroke-width:0.8;" x="63.944494" xlink:href="#m31f2de1c85" y="291.28"/>
      </g>
     </g>
     <g id="text_1">
      <!-- -2 -->
      <defs>
       <path d="M 4.890625 31.390625 
L 31.203125 31.390625 
L 31.203125 23.390625 
L 4.890625 23.390625 
z
" id="DejaVuSans-2d"/>
       <path d="M 19.1875 8.296875 
L 53.609375 8.296875 
L 53.609375 0 
L 7.328125 0 
L 7.328125 8.296875 
Q 12.9375 14.109375 22.625 23.890625 
Q 32.328125 33.6875 34.8125 36.53125 
Q 39.546875 41.84375 41.421875 45.53125 
Q 43.3125 49.21875 43.3125 52.78125 
Q 43.3125 58.59375 39.234375 62.25 
Q 35.15625 65.921875 28.609375 65.921875 
Q 23.96875 65.921875 18.8125 64.3125 
Q 13.671875 62.703125 7.8125 59.421875 
L 7.8125 69.390625 
Q 13.765625 71.78125 18.9375 73 
Q 24.125 74.21875 28.421875 74.21875 
Q 39.75 74.21875 46.484375 68.546875 
Q 53.21875 62.890625 53.21875 53.421875 
Q 53.21875 48.921875 51.53125 44.890625 
Q 49.859375 40.875 45.40625 35.40625 
Q 44.1875 33.984375 37.640625 27.21875 
Q 31.109375 20.453125 19.1875 8.296875 
z
" id="DejaVuSans-32"/>
      </defs>
      <g transform="translate(53.974182 313.476875)scale(0.2 -0.2)">
       <use xlink:href="#DejaVuSans-2d"/>
       <use x="36.083984" xlink:href="#DejaVuSans-32"/>
      </g>
     </g>
    </g>
    <g id="xtick_2">
     <g id="line2d_3">
      <path clip-path="url(#p00fc76fc52)" d="M 153.180247 291.28 
L 153.180247 5.52 
" style="fill:none;stroke:#b0b0b0;stroke-linecap:square;stroke-width:0.8;"/>
     </g>
     <g id="line2d_4">
      <g>
       <use style="stroke:#000000;stroke-width:0.8;" x="153.180247" xlink:href="#m31f2de1c85" y="291.28"/>
      </g>
     </g>
     <g id="text_2">
      <!-- -1 -->
      <defs>
       <path d="M 12.40625 8.296875 
L 28.515625 8.296875 
L 28.515625 63.921875 
L 10.984375 60.40625 
L 10.984375 69.390625 
L 28.421875 72.90625 
L 38.28125 72.90625 
L 38.28125 8.296875 
L 54.390625 8.296875 
L 54.390625 0 
L 12.40625 0 
z
" id="DejaVuSans-31"/>
      </defs>
      <g transform="translate(143.209935 313.476875)scale(0.2 -0.2)">
       <use xlink:href="#DejaVuSans-2d"/>
       <use x="36.083984" xlink:href="#DejaVuSans-31"/>
      </g>
     </g>
    </g>
    <g id="xtick_3">
     <g id="line2d_5">
      <path clip-path="url(#p00fc76fc52)" d="M 242.416 291.28 
L 242.416 5.52 
" style="fill:none;stroke:#b0b0b0;stroke-linecap:square;stroke-width:0.8;"/>
     </g>
     <g id="line2d_6">
      <g>
       <use style="stroke:#000000;stroke-width:0.8;" x="242.416" xlink:href="#m31f2de1c85" y="291.28"/>
      </g>
     </g>
     <g id="text_3">
      <!-- 0 -->
      <defs>
       <path d="M 31.78125 66.40625 
Q 24.171875 66.40625 20.328125 58.90625 
Q 16.5 51.421875 16.5 36.375 
Q 16.5 21.390625 20.328125 13.890625 
Q 24.171875 6.390625 31.78125 6.390625 
Q 39.453125 6.390625 43.28125 13.890625 
Q 47.125 21.390625 47.125 36.375 
Q 47.125 51.421875 43.28125 58.90625 
Q 39.453125 66.40625 31.78125 66.40625 
z
M 31.78125 74.21875 
Q 44.046875 74.21875 50.515625 64.515625 
Q 56.984375 54.828125 56.984375 36.375 
Q 56.984375 17.96875 50.515625 8.265625 
Q 44.046875 -1.421875 31.78125 -1.421875 
Q 19.53125 -1.421875 13.0625 8.265625 
Q 6.59375 17.96875 6.59375 36.375 
Q 6.59375 54.828125 13.0625 64.515625 
Q 19.53125 74.21875 31.78125 74.21875 
z
" id="DejaVuSans-30"/>
      </defs>
      <g transform="translate(236.0535 313.476875)scale(0.2 -0.2)">
       <use xlink:href="#DejaVuSans-30"/>
      </g>
     </g>
    </g>
    <g id="xtick_4">
     <g id="line2d_7">
      <path clip-path="url(#p00fc76fc52)" d="M 331.651753 291.28 
L 331.651753 5.52 
" style="fill:none;stroke:#b0b0b0;stroke-linecap:square;stroke-width:0.8;"/>
     </g>
     <g id="line2d_8">
      <g>
       <use style="stroke:#000000;stroke-width:0.8;" x="331.651753" xlink:href="#m31f2de1c85" y="291.28"/>
      </g>
     </g>
     <g id="text_4">
      <!-- 1 -->
      <g transform="translate(325.289253 313.476875)scale(0.2 -0.2)">
       <use xlink:href="#DejaVuSans-31"/>
      </g>
     </g>
    </g>
    <g id="xtick_5">
     <g id="line2d_9">
      <path clip-path="url(#p00fc76fc52)" d="M 420.887506 291.28 
L 420.887506 5.52 
" style="fill:none;stroke:#b0b0b0;stroke-linecap:square;stroke-width:0.8;"/>
     </g>
     <g id="line2d_10">
      <g>
       <use style="stroke:#000000;stroke-width:0.8;" x="420.887506" xlink:href="#m31f2de1c85" y="291.28"/>
      </g>
     </g>
     <g id="text_5">
      <!-- 2 -->
      <g transform="translate(414.525006 313.476875)scale(0.2 -0.2)">
       <use xlink:href="#DejaVuSans-32"/>
      </g>
     </g>
    </g>
    <g id="xtick_6">
     <g id="line2d_11">
      <defs>
       <path d="M 0 0 
L 0 2 
" id="m05c44376c7" style="stroke:#000000;stroke-width:0.6;"/>
      </defs>
      <g>
       <use style="stroke:#000000;stroke-width:0.6;" x="37.081856" xlink:href="#m05c44376c7" y="291.28"/>
      </g>
     </g>
    </g>
    <g id="xtick_7">
     <g id="line2d_12">
      <g>
       <use style="stroke:#000000;stroke-width:0.6;" x="44.147654" xlink:href="#m05c44376c7" y="291.28"/>
      </g>
     </g>
    </g>
    <g id="xtick_8">
     <g id="line2d_13">
      <g>
       <use style="stroke:#000000;stroke-width:0.6;" x="50.121701" xlink:href="#m05c44376c7" y="291.28"/>
      </g>
     </g>
    </g>
    <g id="xtick_9">
     <g id="line2d_14">
      <g>
       <use style="stroke:#000000;stroke-width:0.6;" x="55.296656" xlink:href="#m05c44376c7" y="291.28"/>
      </g>
     </g>
    </g>
    <g id="xtick_10">
     <g id="line2d_15">
      <g>
       <use style="stroke:#000000;stroke-width:0.6;" x="59.86129" xlink:href="#m05c44376c7" y="291.28"/>
      </g>
     </g>
    </g>
    <g id="xtick_11">
     <g id="line2d_16">
      <g>
       <use style="stroke:#000000;stroke-width:0.6;" x="90.807133" xlink:href="#m05c44376c7" y="291.28"/>
      </g>
     </g>
    </g>
    <g id="xtick_12">
     <g id="line2d_17">
      <g>
       <use style="stroke:#000000;stroke-width:0.6;" x="106.520769" xlink:href="#m05c44376c7" y="291.28"/>
      </g>
     </g>
    </g>
    <g id="xtick_13">
     <g id="line2d_18">
      <g>
       <use style="stroke:#000000;stroke-width:0.6;" x="117.669771" xlink:href="#m05c44376c7" y="291.28"/>
      </g>
     </g>
    </g>
    <g id="xtick_14">
     <g id="line2d_19">
      <g>
       <use style="stroke:#000000;stroke-width:0.6;" x="126.317609" xlink:href="#m05c44376c7" y="291.28"/>
      </g>
     </g>
    </g>
    <g id="xtick_15">
     <g id="line2d_20">
      <g>
       <use style="stroke:#000000;stroke-width:0.6;" x="133.383407" xlink:href="#m05c44376c7" y="291.28"/>
      </g>
     </g>
    </g>
    <g id="xtick_16">
     <g id="line2d_21">
      <g>
       <use style="stroke:#000000;stroke-width:0.6;" x="139.357454" xlink:href="#m05c44376c7" y="291.28"/>
      </g>
     </g>
    </g>
    <g id="xtick_17">
     <g id="line2d_22">
      <g>
       <use style="stroke:#000000;stroke-width:0.6;" x="144.532409" xlink:href="#m05c44376c7" y="291.28"/>
      </g>
     </g>
    </g>
    <g id="xtick_18">
     <g id="line2d_23">
      <g>
       <use style="stroke:#000000;stroke-width:0.6;" x="149.097043" xlink:href="#m05c44376c7" y="291.28"/>
      </g>
     </g>
    </g>
    <g id="xtick_19">
     <g id="line2d_24">
      <g>
       <use style="stroke:#000000;stroke-width:0.6;" x="180.042885" xlink:href="#m05c44376c7" y="291.28"/>
      </g>
     </g>
    </g>
    <g id="xtick_20">
     <g id="line2d_25">
      <g>
       <use style="stroke:#000000;stroke-width:0.6;" x="195.756522" xlink:href="#m05c44376c7" y="291.28"/>
      </g>
     </g>
    </g>
    <g id="xtick_21">
     <g id="line2d_26">
      <g>
       <use style="stroke:#000000;stroke-width:0.6;" x="206.905524" xlink:href="#m05c44376c7" y="291.28"/>
      </g>
     </g>
    </g>
    <g id="xtick_22">
     <g id="line2d_27">
      <g>
       <use style="stroke:#000000;stroke-width:0.6;" x="215.553362" xlink:href="#m05c44376c7" y="291.28"/>
      </g>
     </g>
    </g>
    <g id="xtick_23">
     <g id="line2d_28">
      <g>
       <use style="stroke:#000000;stroke-width:0.6;" x="222.61916" xlink:href="#m05c44376c7" y="291.28"/>
      </g>
     </g>
    </g>
    <g id="xtick_24">
     <g id="line2d_29">
      <g>
       <use style="stroke:#000000;stroke-width:0.6;" x="228.593207" xlink:href="#m05c44376c7" y="291.28"/>
      </g>
     </g>
    </g>
    <g id="xtick_25">
     <g id="line2d_30">
      <g>
       <use style="stroke:#000000;stroke-width:0.6;" x="233.768162" xlink:href="#m05c44376c7" y="291.28"/>
      </g>
     </g>
    </g>
    <g id="xtick_26">
     <g id="line2d_31">
      <g>
       <use style="stroke:#000000;stroke-width:0.6;" x="238.332796" xlink:href="#m05c44376c7" y="291.28"/>
      </g>
     </g>
    </g>
    <g id="xtick_27">
     <g id="line2d_32">
      <g>
       <use style="stroke:#000000;stroke-width:0.6;" x="269.278638" xlink:href="#m05c44376c7" y="291.28"/>
      </g>
     </g>
    </g>
    <g id="xtick_28">
     <g id="line2d_33">
      <g>
       <use style="stroke:#000000;stroke-width:0.6;" x="284.992274" xlink:href="#m05c44376c7" y="291.28"/>
      </g>
     </g>
    </g>
    <g id="xtick_29">
     <g id="line2d_34">
      <g>
       <use style="stroke:#000000;stroke-width:0.6;" x="296.141277" xlink:href="#m05c44376c7" y="291.28"/>
      </g>
     </g>
    </g>
    <g id="xtick_30">
     <g id="line2d_35">
      <g>
       <use style="stroke:#000000;stroke-width:0.6;" x="304.789115" xlink:href="#m05c44376c7" y="291.28"/>
      </g>
     </g>
    </g>
    <g id="xtick_31">
     <g id="line2d_36">
      <g>
       <use style="stroke:#000000;stroke-width:0.6;" x="311.854913" xlink:href="#m05c44376c7" y="291.28"/>
      </g>
     </g>
    </g>
    <g id="xtick_32">
     <g id="line2d_37">
      <g>
       <use style="stroke:#000000;stroke-width:0.6;" x="317.82896" xlink:href="#m05c44376c7" y="291.28"/>
      </g>
     </g>
    </g>
    <g id="xtick_33">
     <g id="line2d_38">
      <g>
       <use style="stroke:#000000;stroke-width:0.6;" x="323.003915" xlink:href="#m05c44376c7" y="291.28"/>
      </g>
     </g>
    </g>
    <g id="xtick_34">
     <g id="line2d_39">
      <g>
       <use style="stroke:#000000;stroke-width:0.6;" x="327.568549" xlink:href="#m05c44376c7" y="291.28"/>
      </g>
     </g>
    </g>
    <g id="xtick_35">
     <g id="line2d_40">
      <g>
       <use style="stroke:#000000;stroke-width:0.6;" x="358.514391" xlink:href="#m05c44376c7" y="291.28"/>
      </g>
     </g>
    </g>
    <g id="xtick_36">
     <g id="line2d_41">
      <g>
       <use style="stroke:#000000;stroke-width:0.6;" x="374.228027" xlink:href="#m05c44376c7" y="291.28"/>
      </g>
     </g>
    </g>
    <g id="xtick_37">
     <g id="line2d_42">
      <g>
       <use style="stroke:#000000;stroke-width:0.6;" x="385.377029" xlink:href="#m05c44376c7" y="291.28"/>
      </g>
     </g>
    </g>
    <g id="xtick_38">
     <g id="line2d_43">
      <g>
       <use style="stroke:#000000;stroke-width:0.6;" x="394.024867" xlink:href="#m05c44376c7" y="291.28"/>
      </g>
     </g>
    </g>
    <g id="xtick_39">
     <g id="line2d_44">
      <g>
       <use style="stroke:#000000;stroke-width:0.6;" x="401.090665" xlink:href="#m05c44376c7" y="291.28"/>
      </g>
     </g>
    </g>
    <g id="xtick_40">
     <g id="line2d_45">
      <g>
       <use style="stroke:#000000;stroke-width:0.6;" x="407.064713" xlink:href="#m05c44376c7" y="291.28"/>
      </g>
     </g>
    </g>
    <g id="xtick_41">
     <g id="line2d_46">
      <g>
       <use style="stroke:#000000;stroke-width:0.6;" x="412.239668" xlink:href="#m05c44376c7" y="291.28"/>
      </g>
     </g>
    </g>
    <g id="xtick_42">
     <g id="line2d_47">
      <g>
       <use style="stroke:#000000;stroke-width:0.6;" x="416.804301" xlink:href="#m05c44376c7" y="291.28"/>
      </g>
     </g>
    </g>
    <g id="xtick_43">
     <g id="line2d_48">
      <g>
       <use style="stroke:#000000;stroke-width:0.6;" x="447.750144" xlink:href="#m05c44376c7" y="291.28"/>
      </g>
     </g>
    </g>
    <g id="text_6">
     <!-- log10 of FEvals ratio -->
     <defs>
      <path d="M 9.421875 75.984375 
L 18.40625 75.984375 
L 18.40625 0 
L 9.421875 0 
z
" id="DejaVuSans-6c"/>
      <path d="M 30.609375 48.390625 
Q 23.390625 48.390625 19.1875 42.75 
Q 14.984375 37.109375 14.984375 27.296875 
Q 14.984375 17.484375 19.15625 11.84375 
Q 23.34375 6.203125 30.609375 6.203125 
Q 37.796875 6.203125 41.984375 11.859375 
Q 46.1875 17.53125 46.1875 27.296875 
Q 46.1875 37.015625 41.984375 42.703125 
Q 37.796875 48.390625 30.609375 48.390625 
z
M 30.609375 56 
Q 42.328125 56 49.015625 48.375 
Q 55.71875 40.765625 55.71875 27.296875 
Q 55.71875 13.875 49.015625 6.21875 
Q 42.328125 -1.421875 30.609375 -1.421875 
Q 18.84375 -1.421875 12.171875 6.21875 
Q 5.515625 13.875 5.515625 27.296875 
Q 5.515625 40.765625 12.171875 48.375 
Q 18.84375 56 30.609375 56 
z
" id="DejaVuSans-6f"/>
      <path d="M 45.40625 27.984375 
Q 45.40625 37.75 41.375 43.109375 
Q 37.359375 48.484375 30.078125 48.484375 
Q 22.859375 48.484375 18.828125 43.109375 
Q 14.796875 37.75 14.796875 27.984375 
Q 14.796875 18.265625 18.828125 12.890625 
Q 22.859375 7.515625 30.078125 7.515625 
Q 37.359375 7.515625 41.375 12.890625 
Q 45.40625 18.265625 45.40625 27.984375 
z
M 54.390625 6.78125 
Q 54.390625 -7.171875 48.1875 -13.984375 
Q 42 -20.796875 29.203125 -20.796875 
Q 24.46875 -20.796875 20.265625 -20.09375 
Q 16.0625 -19.390625 12.109375 -17.921875 
L 12.109375 -9.1875 
Q 16.0625 -11.328125 19.921875 -12.34375 
Q 23.78125 -13.375 27.78125 -13.375 
Q 36.625 -13.375 41.015625 -8.765625 
Q 45.40625 -4.15625 45.40625 5.171875 
L 45.40625 9.625 
Q 42.625 4.78125 38.28125 2.390625 
Q 33.9375 0 27.875 0 
Q 17.828125 0 11.671875 7.65625 
Q 5.515625 15.328125 5.515625 27.984375 
Q 5.515625 40.671875 11.671875 48.328125 
Q 17.828125 56 27.875 56 
Q 33.9375 56 38.28125 53.609375 
Q 42.625 51.21875 45.40625 46.390625 
L 45.40625 54.6875 
L 54.390625 54.6875 
z
" id="DejaVuSans-67"/>
      <path id="DejaVuSans-20"/>
      <path d="M 37.109375 75.984375 
L 37.109375 68.5 
L 28.515625 68.5 
Q 23.6875 68.5 21.796875 66.546875 
Q 19.921875 64.59375 19.921875 59.515625 
L 19.921875 54.6875 
L 34.71875 54.6875 
L 34.71875 47.703125 
L 19.921875 47.703125 
L 19.921875 0 
L 10.890625 0 
L 10.890625 47.703125 
L 2.296875 47.703125 
L 2.296875 54.6875 
L 10.890625 54.6875 
L 10.890625 58.5 
Q 10.890625 67.625 15.140625 71.796875 
Q 19.390625 75.984375 28.609375 75.984375 
z
" id="DejaVuSans-66"/>
      <path d="M 9.8125 72.90625 
L 51.703125 72.90625 
L 51.703125 64.59375 
L 19.671875 64.59375 
L 19.671875 43.109375 
L 48.578125 43.109375 
L 48.578125 34.8125 
L 19.671875 34.8125 
L 19.671875 0 
L 9.8125 0 
z
" id="DejaVuSans-46"/>
      <path d="M 9.8125 72.90625 
L 55.90625 72.90625 
L 55.90625 64.59375 
L 19.671875 64.59375 
L 19.671875 43.015625 
L 54.390625 43.015625 
L 54.390625 34.71875 
L 19.671875 34.71875 
L 19.671875 8.296875 
L 56.78125 8.296875 
L 56.78125 0 
L 9.8125 0 
z
" id="DejaVuSans-45"/>
      <path d="M 2.984375 54.6875 
L 12.5 54.6875 
L 29.59375 8.796875 
L 46.6875 54.6875 
L 56.203125 54.6875 
L 35.6875 0 
L 23.484375 0 
z
" id="DejaVuSans-76"/>
      <path d="M 34.28125 27.484375 
Q 23.390625 27.484375 19.1875 25 
Q 14.984375 22.515625 14.984375 16.5 
Q 14.984375 11.71875 18.140625 8.90625 
Q 21.296875 6.109375 26.703125 6.109375 
Q 34.1875 6.109375 38.703125 11.40625 
Q 43.21875 16.703125 43.21875 25.484375 
L 43.21875 27.484375 
z
M 52.203125 31.203125 
L 52.203125 0 
L 43.21875 0 
L 43.21875 8.296875 
Q 40.140625 3.328125 35.546875 0.953125 
Q 30.953125 -1.421875 24.3125 -1.421875 
Q 15.921875 -1.421875 10.953125 3.296875 
Q 6 8.015625 6 15.921875 
Q 6 25.140625 12.171875 29.828125 
Q 18.359375 34.515625 30.609375 34.515625 
L 43.21875 34.515625 
L 43.21875 35.40625 
Q 43.21875 41.609375 39.140625 45 
Q 35.0625 48.390625 27.6875 48.390625 
Q 23 48.390625 18.546875 47.265625 
Q 14.109375 46.140625 10.015625 43.890625 
L 10.015625 52.203125 
Q 14.9375 54.109375 19.578125 55.046875 
Q 24.21875 56 28.609375 56 
Q 40.484375 56 46.34375 49.84375 
Q 52.203125 43.703125 52.203125 31.203125 
z
" id="DejaVuSans-61"/>
      <path d="M 44.28125 53.078125 
L 44.28125 44.578125 
Q 40.484375 46.53125 36.375 47.5 
Q 32.28125 48.484375 27.875 48.484375 
Q 21.1875 48.484375 17.84375 46.4375 
Q 14.5 44.390625 14.5 40.28125 
Q 14.5 37.15625 16.890625 35.375 
Q 19.28125 33.59375 26.515625 31.984375 
L 29.59375 31.296875 
Q 39.15625 29.25 43.1875 25.515625 
Q 47.21875 21.78125 47.21875 15.09375 
Q 47.21875 7.46875 41.1875 3.015625 
Q 35.15625 -1.421875 24.609375 -1.421875 
Q 20.21875 -1.421875 15.453125 -0.5625 
Q 10.6875 0.296875 5.421875 2 
L 5.421875 11.28125 
Q 10.40625 8.6875 15.234375 7.390625 
Q 20.0625 6.109375 24.8125 6.109375 
Q 31.15625 6.109375 34.5625 8.28125 
Q 37.984375 10.453125 37.984375 14.40625 
Q 37.984375 18.0625 35.515625 20.015625 
Q 33.0625 21.96875 24.703125 23.78125 
L 21.578125 24.515625 
Q 13.234375 26.265625 9.515625 29.90625 
Q 5.8125 33.546875 5.8125 39.890625 
Q 5.8125 47.609375 11.28125 51.796875 
Q 16.75 56 26.8125 56 
Q 31.78125 56 36.171875 55.265625 
Q 40.578125 54.546875 44.28125 53.078125 
z
" id="DejaVuSans-73"/>
      <path d="M 41.109375 46.296875 
Q 39.59375 47.171875 37.8125 47.578125 
Q 36.03125 48 33.890625 48 
Q 26.265625 48 22.1875 43.046875 
Q 18.109375 38.09375 18.109375 28.8125 
L 18.109375 0 
L 9.078125 0 
L 9.078125 54.6875 
L 18.109375 54.6875 
L 18.109375 46.1875 
Q 20.953125 51.171875 25.484375 53.578125 
Q 30.03125 56 36.53125 56 
Q 37.453125 56 38.578125 55.875 
Q 39.703125 55.765625 41.0625 55.515625 
z
" id="DejaVuSans-72"/>
      <path d="M 18.3125 70.21875 
L 18.3125 54.6875 
L 36.8125 54.6875 
L 36.8125 47.703125 
L 18.3125 47.703125 
L 18.3125 18.015625 
Q 18.3125 11.328125 20.140625 9.421875 
Q 21.96875 7.515625 27.59375 7.515625 
L 36.8125 7.515625 
L 36.8125 0 
L 27.59375 0 
Q 17.1875 0 13.234375 3.875 
Q 9.28125 7.765625 9.28125 18.015625 
L 9.28125 47.703125 
L 2.6875 47.703125 
L 2.6875 54.6875 
L 9.28125 54.6875 
L 9.28125 70.21875 
z
" id="DejaVuSans-74"/>
      <path d="M 9.421875 54.6875 
L 18.40625 54.6875 
L 18.40625 0 
L 9.421875 0 
z
M 9.421875 75.984375 
L 18.40625 75.984375 
L 18.40625 64.59375 
L 9.421875 64.59375 
z
" id="DejaVuSans-69"/>
     </defs>
     <g transform="translate(140.111312 336.833125)scale(0.2 -0.2)">
      <use xlink:href="#DejaVuSans-6c"/>
      <use x="27.783203" xlink:href="#DejaVuSans-6f"/>
      <use x="88.964844" xlink:href="#DejaVuSans-67"/>
      <use x="152.441406" xlink:href="#DejaVuSans-31"/>
      <use x="216.064453" xlink:href="#DejaVuSans-30"/>
      <use x="279.6875" xlink:href="#DejaVuSans-20"/>
      <use x="311.474609" xlink:href="#DejaVuSans-6f"/>
      <use x="372.65625" xlink:href="#DejaVuSans-66"/>
      <use x="407.861328" xlink:href="#DejaVuSans-20"/>
      <use x="439.648438" xlink:href="#DejaVuSans-46"/>
      <use x="497.167969" xlink:href="#DejaVuSans-45"/>
      <use x="560.351562" xlink:href="#DejaVuSans-76"/>
      <use x="619.53125" xlink:href="#DejaVuSans-61"/>
      <use x="680.810547" xlink:href="#DejaVuSans-6c"/>
      <use x="708.59375" xlink:href="#DejaVuSans-73"/>
      <use x="760.693359" xlink:href="#DejaVuSans-20"/>
      <use x="792.480469" xlink:href="#DejaVuSans-72"/>
      <use x="833.59375" xlink:href="#DejaVuSans-61"/>
      <use x="894.873047" xlink:href="#DejaVuSans-74"/>
      <use x="934.082031" xlink:href="#DejaVuSans-69"/>
      <use x="961.865234" xlink:href="#DejaVuSans-6f"/>
     </g>
    </g>
   </g>
   <g id="matplotlib.axis_2">
    <g id="ytick_1">
     <g id="line2d_49">
      <path clip-path="url(#p00fc76fc52)" d="M 34.16 288.478431 
L 450.672 288.478431 
" style="fill:none;stroke:#b0b0b0;stroke-linecap:square;stroke-width:0.8;"/>
     </g>
     <g id="line2d_50">
      <defs>
       <path d="M 0 0 
L -3.5 0 
" id="m3aefe2f486" style="stroke:#000000;stroke-width:0.8;"/>
      </defs>
      <g>
       <use style="stroke:#000000;stroke-width:0.8;" x="34.16" xlink:href="#m3aefe2f486" y="288.478431"/>
      </g>
     </g>
    </g>
    <g id="ytick_2">
     <g id="line2d_51">
      <path clip-path="url(#p00fc76fc52)" d="M 34.16 218.439216 
L 450.672 218.439216 
" style="fill:none;stroke:#b0b0b0;stroke-linecap:square;stroke-width:0.8;"/>
     </g>
     <g id="line2d_52">
      <g>
       <use style="stroke:#000000;stroke-width:0.8;" x="34.16" xlink:href="#m3aefe2f486" y="218.439216"/>
      </g>
     </g>
    </g>
    <g id="ytick_3">
     <g id="line2d_53">
      <path clip-path="url(#p00fc76fc52)" d="M 34.16 148.4 
L 450.672 148.4 
" style="fill:none;stroke:#b0b0b0;stroke-linecap:square;stroke-width:0.8;"/>
     </g>
     <g id="line2d_54">
      <g>
       <use style="stroke:#000000;stroke-width:0.8;" x="34.16" xlink:href="#m3aefe2f486" y="148.4"/>
      </g>
     </g>
    </g>
    <g id="ytick_4">
     <g id="line2d_55">
      <path clip-path="url(#p00fc76fc52)" d="M 34.16 78.360784 
L 450.672 78.360784 
" style="fill:none;stroke:#b0b0b0;stroke-linecap:square;stroke-width:0.8;"/>
     </g>
     <g id="line2d_56">
      <g>
       <use style="stroke:#000000;stroke-width:0.8;" x="34.16" xlink:href="#m3aefe2f486" y="78.360784"/>
      </g>
     </g>
    </g>
    <g id="ytick_5">
     <g id="line2d_57">
      <path clip-path="url(#p00fc76fc52)" d="M 34.16 8.321569 
L 450.672 8.321569 
" style="fill:none;stroke:#b0b0b0;stroke-linecap:square;stroke-width:0.8;"/>
     </g>
     <g id="line2d_58">
      <g>
       <use style="stroke:#000000;stroke-width:0.8;" x="34.16" xlink:href="#m3aefe2f486" y="8.321569"/>
      </g>
     </g>
    </g>
    <g id="text_7">
     <!-- proportion of trials -->
     <defs>
      <path d="M 18.109375 8.203125 
L 18.109375 -20.796875 
L 9.078125 -20.796875 
L 9.078125 54.6875 
L 18.109375 54.6875 
L 18.109375 46.390625 
Q 20.953125 51.265625 25.265625 53.625 
Q 29.59375 56 35.59375 56 
Q 45.5625 56 51.78125 48.09375 
Q 58.015625 40.1875 58.015625 27.296875 
Q 58.015625 14.40625 51.78125 6.484375 
Q 45.5625 -1.421875 35.59375 -1.421875 
Q 29.59375 -1.421875 25.265625 0.953125 
Q 20.953125 3.328125 18.109375 8.203125 
z
M 48.6875 27.296875 
Q 48.6875 37.203125 44.609375 42.84375 
Q 40.53125 48.484375 33.40625 48.484375 
Q 26.265625 48.484375 22.1875 42.84375 
Q 18.109375 37.203125 18.109375 27.296875 
Q 18.109375 17.390625 22.1875 11.75 
Q 26.265625 6.109375 33.40625 6.109375 
Q 40.53125 6.109375 44.609375 11.75 
Q 48.6875 17.390625 48.6875 27.296875 
z
" id="DejaVuSans-70"/>
      <path d="M 54.890625 33.015625 
L 54.890625 0 
L 45.90625 0 
L 45.90625 32.71875 
Q 45.90625 40.484375 42.875 44.328125 
Q 39.84375 48.1875 33.796875 48.1875 
Q 26.515625 48.1875 22.3125 43.546875 
Q 18.109375 38.921875 18.109375 30.90625 
L 18.109375 0 
L 9.078125 0 
L 9.078125 54.6875 
L 18.109375 54.6875 
L 18.109375 46.1875 
Q 21.34375 51.125 25.703125 53.5625 
Q 30.078125 56 35.796875 56 
Q 45.21875 56 50.046875 50.171875 
Q 54.890625 44.34375 54.890625 33.015625 
z
" id="DejaVuSans-6e"/>
     </defs>
     <g transform="translate(19.000625 241.628125)rotate(-90)scale(0.2 -0.2)">
      <use xlink:href="#DejaVuSans-70"/>
      <use x="63.476562" xlink:href="#DejaVuSans-72"/>
      <use x="104.558594" xlink:href="#DejaVuSans-6f"/>
      <use x="165.740234" xlink:href="#DejaVuSans-70"/>
      <use x="229.216797" xlink:href="#DejaVuSans-6f"/>
      <use x="290.398438" xlink:href="#DejaVuSans-72"/>
      <use x="331.511719" xlink:href="#DejaVuSans-74"/>
      <use x="370.720703" xlink:href="#DejaVuSans-69"/>
      <use x="398.503906" xlink:href="#DejaVuSans-6f"/>
      <use x="459.685547" xlink:href="#DejaVuSans-6e"/>
      <use x="523.064453" xlink:href="#DejaVuSans-20"/>
      <use x="554.851562" xlink:href="#DejaVuSans-6f"/>
      <use x="616.033203" xlink:href="#DejaVuSans-66"/>
      <use x="651.238281" xlink:href="#DejaVuSans-20"/>
      <use x="683.025391" xlink:href="#DejaVuSans-74"/>
      <use x="722.234375" xlink:href="#DejaVuSans-72"/>
      <use x="763.347656" xlink:href="#DejaVuSans-69"/>
      <use x="791.130859" xlink:href="#DejaVuSans-61"/>
      <use x="852.410156" xlink:href="#DejaVuSans-6c"/>
      <use x="880.193359" xlink:href="#DejaVuSans-73"/>
     </g>
    </g>
   </g>
   <g id="line2d_59">
    <path clip-path="url(#p00fc76fc52)" d="M 34.16 94.23634 
L 51.663393 94.23634 
L 51.663393 93.240227 
L 75.654007 93.240227 
L 75.654007 92.244113 
L 90.360973 92.244113 
L 90.360973 91.995085 
L 94.890337 91.995085 
L 94.890337 90.998972 
L 95.510424 90.998972 
L 95.510424 90.002858 
L 100.996662 90.002858 
L 100.996662 89.504802 
L 109.333217 89.504802 
L 109.333217 89.255773 
L 118.880951 89.255773 
L 118.880951 88.25966 
L 119.501037 88.25966 
L 119.501037 87.263547 
L 122.01422 87.263547 
L 122.01422 86.76549 
L 122.373062 86.76549 
L 122.373062 85.769377 
L 128.015162 85.769377 
L 128.015162 84.773264 
L 129.823238 84.773264 
L 129.823238 84.524235 
L 133.488291 84.524235 
L 133.587917 84.026179 
L 134.208004 84.026179 
L 134.208004 83.77715 
L 135.565685 83.77715 
L 135.647364 83.030065 
L 135.82596 83.030065 
L 135.82596 82.781037 
L 139.312417 82.781037 
L 139.312417 82.28298 
L 140.709496 82.28298 
L 140.709496 82.033952 
L 141.650086 82.033952 
L 141.650086 81.535895 
L 144.223606 81.535895 
L 144.223606 81.037839 
L 144.374549 81.037839 
L 144.374549 80.78881 
L 144.843693 80.78881 
L 144.843693 80.290754 
L 146.363676 80.290754 
L 146.363676 79.294641 
L 146.712218 79.294641 
L 146.712218 79.045612 
L 149.993143 79.045612 
L 149.993143 78.049499 
L 151.553942 78.049499 
L 151.553942 77.053386 
L 152.005776 77.053386 
L 152.088496 75.061159 
L 152.56016 75.061159 
L 152.56016 74.812131 
L 152.772062 74.812131 
L 152.834736 74.314074 
L 153.180247 74.314074 
L 153.180247 74.065046 
L 153.737877 74.065046 
L 153.737877 73.068932 
L 156.158594 73.068932 
L 156.158594 72.819904 
L 156.499789 72.819904 
L 156.499789 72.570876 
L 158.837458 72.570876 
L 158.837458 72.321847 
L 159.823648 72.321847 
L 159.823648 72.072819 
L 160.215956 72.072819 
L 160.215956 71.574763 
L 161.070642 71.574763 
L 161.070642 71.325734 
L 161.771135 71.325734 
L 161.771135 71.076706 
L 161.942237 71.076706 
L 161.942237 70.827678 
L 162.056727 70.827678 
L 162.161317 70.080593 
L 164.70011 70.080593 
L 164.70011 69.084479 
L 165.241164 69.084479 
L 165.241164 68.586423 
L 165.72178 68.586423 
L 165.72178 68.088366 
L 165.861251 68.088366 
L 165.861251 67.590309 
L 166.712742 67.590309 
L 166.712742 67.341281 
L 168.059449 67.341281 
L 168.059449 66.843224 
L 168.33342 66.843224 
L 168.33342 66.594196 
L 169.21503 66.594196 
L 169.21503 66.096139 
L 169.386132 66.096139 
L 169.386132 65.598083 
L 169.500621 65.598083 
L 169.500621 65.349054 
L 170.122411 65.349054 
L 170.122411 64.352941 
L 171.706331 64.352941 
L 171.706331 63.854885 
L 171.83245 63.854885 
L 171.83245 63.1078 
L 173.165675 63.1078 
L 173.165675 62.858771 
L 173.470212 62.858771 
L 173.470212 62.609743 
L 173.983757 62.609743 
L 173.983757 61.61363 
L 175.04156 61.61363 
L 175.04156 61.364601 
L 175.503344 61.364601 
L 175.544556 60.11946 
L 176.07911 60.11946 
L 176.07911 59.123346 
L 176.55167 59.123346 
L 176.55167 58.874318 
L 177.332493 58.874318 
L 177.348431 58.127233 
L 177.503596 58.127233 
L 177.503596 57.878205 
L 177.728491 57.878205 
L 177.728491 56.882092 
L 178.005138 56.882092 
L 178.005138 56.633063 
L 178.250446 56.633063 
L 178.250446 56.384035 
L 178.792629 56.384035 
L 178.792629 56.135007 
L 179.121485 56.135007 
L 179.121485 55.138893 
L 179.292587 55.138893 
L 179.292587 54.14278 
L 179.407076 54.14278 
L 179.412716 53.644723 
L 180.042885 53.644723 
L 180.042885 53.395695 
L 180.831524 53.395695 
L 180.908946 52.399582 
L 181.002626 52.399582 
L 181.002626 51.652497 
L 182.469285 51.652497 
L 182.469285 51.403468 
L 182.640388 51.403468 
L 182.640388 51.15444 
L 182.754877 51.15444 
L 182.754877 50.656383 
L 183.07213 50.656383 
L 183.07213 50.407355 
L 184.040633 50.407355 
L 184.040633 50.158327 
L 184.211735 50.158327 
L 184.211735 49.909298 
L 185.409799 49.909298 
L 185.409799 49.66027 
L 185.550743 49.66027 
L 185.550743 49.411242 
L 185.684985 49.411242 
L 185.721845 48.913185 
L 186.41993 48.913185 
L 186.41993 48.415129 
L 187.004211 48.415129 
L 187.004211 48.1661 
L 187.175313 48.1661 
L 187.175313 47.917072 
L 188.690723 47.917072 
L 188.757599 46.173874 
L 190.251522 46.173874 
L 190.251522 45.924845 
L 190.786077 45.924845 
L 190.786077 45.675817 
L 192.435457 45.675817 
L 192.435457 45.426789 
L 192.723889 45.426789 
L 192.723889 44.928732 
L 192.957413 44.928732 
L 192.957413 44.679704 
L 193.887568 44.679704 
L 193.887568 44.430675 
L 197.292671 44.430675 
L 197.292671 44.181647 
L 198.230307 44.181647 
L 198.230307 43.932619 
L 198.365989 43.932619 
L 198.365989 43.434562 
L 199.04337 43.434562 
L 199.04337 43.185534 
L 199.326412 43.185534 
L 199.326412 42.687477 
L 200.620046 42.687477 
L 200.620046 42.438449 
L 200.887211 42.438449 
L 200.957724 41.691364 
L 201.421766 41.691364 
L 201.467602 40.944279 
L 203.071146 40.944279 
L 203.071146 40.446222 
L 203.295393 40.446222 
L 203.39769 39.948166 
L 205.132655 39.948166 
L 205.132655 39.699137 
L 205.682178 39.699137 
L 205.682178 39.450109 
L 206.275354 39.450109 
L 206.35424 38.952052 
L 207.470324 38.952052 
L 207.470324 38.703024 
L 207.662967 38.703024 
L 207.662967 38.453996 
L 208.931672 38.453996 
L 208.931672 38.204967 
L 209.223765 38.204967 
L 209.223765 37.955939 
L 209.75832 37.955939 
L 209.75832 37.706911 
L 211.407701 37.706911 
L 211.407701 37.457882 
L 211.917454 37.457882 
L 211.917454 37.208854 
L 213.066792 37.208854 
L 213.066792 36.710797 
L 214.033379 36.710797 
L 214.033379 36.212741 
L 215.438533 36.212741 
L 215.438533 35.963712 
L 219.103587 35.963712 
L 219.103587 35.714684 
L 220.343971 35.714684 
L 220.343971 35.216627 
L 221.131277 35.216627 
L 221.131277 34.967599 
L 221.441256 34.967599 
L 221.441256 34.718571 
L 221.904769 34.718571 
L 221.904769 34.220514 
L 222.369933 34.220514 
L 222.439324 33.473429 
L 223.769659 33.473429 
L 223.769659 33.224401 
L 224.088704 33.224401 
L 224.088704 32.726344 
L 225.024414 32.726344 
L 225.024414 32.477316 
L 229.161744 32.477316 
L 229.161744 31.979259 
L 233.432622 31.979259 
L 233.432622 31.730231 
L 233.895435 31.730231 
L 233.895435 31.481203 
L 235.050937 31.481203 
L 235.050937 30.983146 
L 235.40362 30.983146 
L 235.456234 30.485089 
L 235.990788 30.485089 
L 235.990788 30.236061 
L 237.279208 30.236061 
L 237.279208 29.987033 
L 237.640169 29.987033 
L 237.640169 29.738004 
L 239.068199 29.738004 
L 239.068199 29.488976 
L 243.987347 29.488976 
L 243.987347 28.990919 
L 245.497458 28.990919 
L 245.497458 27.745778 
L 246.950925 27.745778 
L 246.950925 27.496749 
L 248.602402 27.496749 
L 248.602402 27.247721 
L 252.274195 27.247721 
L 252.274195 26.998693 
L 317.82896 26.998693 
L 317.82896 22.018126 
L 341.819574 22.018126 
L 341.819574 17.03756 
L 356.52654 17.03756 
L 356.52654 15.792418 
L 367.162229 15.792418 
L 367.162229 13.302135 
L 375.498783 13.302135 
L 375.498783 12.056993 
L 388.179787 12.056993 
L 388.179787 9.56671 
L 401.731252 9.56671 
L 401.731252 8.321569 
L 450.672 8.321569 
L 450.672 8.321569 
" style="fill:none;stroke:#000000;stroke-linecap:square;stroke-width:3;"/>
   </g>
   <g id="line2d_60">
    <path clip-path="url(#p00fc76fc52)" style="fill:none;stroke:#000000;stroke-linecap:square;stroke-width:3;"/>
   </g>
   <g id="line2d_61">
    <path clip-path="url(#p00fc76fc52)" d="M 34.16 34.469542 
L 114.920639 34.469542 
L 114.920639 34.220514 
L 115.550169 34.220514 
L 115.550169 33.971486 
L 117.419202 33.971486 
L 117.419202 33.722458 
L 119.251811 33.722458 
L 119.251811 33.473429 
L 120.744765 33.473429 
L 120.744765 33.224401 
L 121.374295 33.224401 
L 121.374295 32.975373 
L 123.243328 32.975373 
L 123.243328 32.726344 
L 125.075937 32.726344 
L 125.075937 32.477316 
L 125.806897 32.477316 
L 125.806897 32.228288 
L 126.436427 32.228288 
L 126.436427 31.979259 
L 128.30546 31.979259 
L 128.30546 31.730231 
L 128.637644 31.730231 
L 128.637644 31.481203 
L 130.138069 31.481203 
L 130.138069 31.232174 
L 130.283552 31.232174 
L 130.283552 30.983146 
L 130.913083 30.983146 
L 130.913083 30.734118 
L 132.782115 30.734118 
L 132.782115 30.485089 
L 134.46177 30.485089 
L 134.46177 30.236061 
L 134.614724 30.236061 
L 134.614724 29.987033 
L 137.932137 29.987033 
L 137.932137 29.738004 
L 138.561668 29.738004 
L 138.561668 29.488976 
L 139.523902 29.488976 
L 139.523902 29.239948 
L 140.4307 29.239948 
L 140.4307 28.990919 
L 142.263309 28.990919 
L 142.263309 28.741891 
L 142.771464 28.741891 
L 142.771464 28.492863 
L 144.000557 28.492863 
L 144.000557 28.243834 
L 144.15716 28.243834 
L 144.15716 27.994806 
L 144.31716 27.994806 
L 144.31716 27.745778 
L 144.94669 27.745778 
L 144.94669 27.496749 
L 146.815722 27.496749 
L 146.815722 27.247721 
L 147.154128 27.247721 
L 147.154128 26.749664 
L 147.783658 26.749664 
L 147.783658 26.251608 
L 148.59559 26.251608 
L 148.648331 25.753551 
L 149.652691 25.753551 
L 149.652691 25.255495 
L 149.981286 25.255495 
L 149.981286 25.006466 
L 151.4853 25.006466 
L 151.4853 24.50841 
L 151.649142 24.50841 
L 151.649142 24.259381 
L 153.657723 24.259381 
L 153.657723 24.010353 
L 154.598023 24.010353 
L 154.598023 23.761325 
L 155.043418 23.761325 
L 155.043418 23.512296 
L 155.227553 23.512296 
L 155.227553 23.263268 
L 157.096585 23.263268 
L 157.096585 23.01424 
L 158.034165 23.01424 
L 158.134378 22.516183 
L 158.929194 22.516183 
L 158.929194 22.267155 
L 159.520073 22.267155 
L 159.520073 22.018126 
L 160.839898 22.018126 
L 160.871133 21.271041 
L 161.469428 21.271041 
L 161.469428 21.022013 
L 163.338461 21.022013 
L 163.338461 20.772985 
L 165.17107 20.772985 
L 165.17107 20.523956 
L 165.782963 20.523956 
L 165.782963 20.274928 
L 166.214517 20.274928 
L 166.214517 20.0259 
L 166.844047 20.0259 
L 166.844047 19.776871 
L 167.168658 19.776871 
L 167.168658 19.527843 
L 167.852278 19.527843 
L 167.852278 19.278815 
L 168.315028 19.278815 
L 168.315028 19.029786 
L 168.481809 19.029786 
L 168.481809 18.780758 
L 168.713079 18.780758 
L 168.713079 18.53173 
L 170.350841 18.53173 
L 170.350841 18.282702 
L 170.545688 18.282702 
L 170.545688 18.033673 
L 172.167985 18.033673 
L 172.18345 17.535617 
L 173.553681 17.535617 
L 173.553681 17.286588 
L 173.788125 17.286588 
L 173.788125 17.03756 
L 174.417655 17.03756 
L 174.417655 16.788532 
L 174.556903 16.788532 
L 174.556903 16.539503 
L 175.004953 16.539503 
L 175.004953 16.041447 
L 175.140167 16.041447 
L 175.140167 15.792418 
L 175.769697 15.792418 
L 175.769697 15.54339 
L 176.286687 15.54339 
L 176.390649 14.796305 
L 177.638729 14.796305 
L 177.710474 14.298248 
L 178.119297 14.298248 
L 178.119297 14.04922 
L 178.340004 14.04922 
L 178.340004 13.800192 
L 179.471338 13.800192 
L 179.471338 13.551163 
L 179.931522 13.551163 
L 179.931522 13.302135 
L 180.209036 13.302135 
L 180.209036 13.053107 
L 181.569283 13.053107 
L 181.569283 12.804078 
L 182.041645 12.804078 
L 182.041645 12.55505 
L 182.448848 12.55505 
L 182.448848 12.306022 
L 183.834544 12.306022 
L 183.834544 12.056993 
L 187.50513 12.056993 
L 187.50513 11.807965 
L 188.690723 11.807965 
L 188.690723 11.558937 
L 188.857172 11.558937 
L 188.857172 11.309908 
L 190.076419 11.309908 
L 190.076419 11.06088 
L 191.427479 11.06088 
L 191.427479 10.811852 
L 194.065342 10.811852 
L 194.065342 10.562824 
L 195.451038 10.562824 
L 195.451038 10.313795 
L 195.703104 10.313795 
L 195.703104 10.064767 
L 197.088799 10.064767 
L 197.088799 9.815739 
L 201.63895 9.815739 
L 201.63895 9.56671 
L 202.990992 9.56671 
L 203.024646 9.068654 
L 204.376688 9.068654 
L 204.376688 8.819625 
L 205.561299 8.819625 
L 205.561299 8.570597 
L 206.946995 8.570597 
L 206.946995 8.321569 
L 450.672 8.321569 
L 450.672 8.321569 
" style="fill:none;stroke:#00bfbf;stroke-linecap:square;stroke-width:3;"/>
   </g>
   <g id="line2d_62">
    <path clip-path="url(#p00fc76fc52)" style="fill:none;stroke:#00bfbf;stroke-linecap:square;stroke-width:3;"/>
   </g>
   <g id="line2d_63">
    <path clip-path="url(#p00fc76fc52)" d="M 34.16 16.811171 
L 165.612958 16.811171 
L 165.612958 16.528184 
L 165.612958 16.528184 
L 165.612958 16.245197 
L 165.976096 16.245197 
L 165.976096 15.96221 
L 165.976096 15.96221 
L 165.976096 15.679224 
L 167.322997 15.679224 
L 167.322997 15.396237 
L 167.322997 15.396237 
L 167.322997 15.11325 
L 167.686135 15.11325 
L 167.686135 14.830263 
L 167.686135 14.830263 
L 167.686135 14.547277 
L 176.248647 14.547277 
L 176.248647 14.26429 
L 176.248647 14.26429 
L 176.248647 13.981303 
L 176.611785 13.981303 
L 176.611785 13.698316 
L 176.611785 13.698316 
L 176.611785 13.41533 
L 177.555106 13.41533 
L 177.555106 13.132343 
L 177.918244 13.132343 
L 177.918244 12.849356 
L 182.380555 12.849356 
L 182.380555 12.56637 
L 182.380555 12.56637 
L 182.380555 12.283383 
L 182.743692 12.283383 
L 182.743692 12.000396 
L 182.743692 12.000396 
L 182.743692 11.717409 
L 188.650542 11.717409 
L 188.650542 11.434423 
L 189.01368 11.434423 
L 189.01368 11.151436 
L 191.44208 11.151436 
L 191.44208 10.868449 
L 191.805217 10.868449 
L 191.805217 10.585462 
L 194.045979 10.585462 
L 194.045979 10.302476 
L 194.409117 10.302476 
L 194.409117 10.019489 
L 195.68953 10.019489 
L 195.68953 9.736502 
L 196.052668 9.736502 
L 196.052668 9.453516 
L 198.031124 9.453516 
L 198.031124 9.170529 
L 198.031124 9.170529 
L 198.031124 8.887542 
L 198.394262 8.887542 
L 198.394262 8.604555 
L 198.394262 8.604555 
L 198.394262 8.321569 
L 450.672 8.321569 
" style="fill:none;stroke:#bf00bf;stroke-linecap:square;stroke-width:3;"/>
   </g>
   <g id="line2d_64">
    <path clip-path="url(#p00fc76fc52)" style="fill:none;stroke:#bf00bf;stroke-linecap:square;stroke-width:3;"/>
   </g>
   <g id="line2d_65">
    <path clip-path="url(#p00fc76fc52)" d="M 36.091321 8.321569 
L 34.16 8.321569 
L 450.672 8.321569 
L 461.8 8.321569 
" style="fill:none;stroke:#ff0000;stroke-linecap:square;stroke-width:3;"/>
   </g>
   <g id="line2d_66">
    <path clip-path="url(#p00fc76fc52)" d="M 242.416 291.28 
L 242.416 5.52 
" style="fill:none;stroke:#000000;stroke-linecap:square;stroke-width:1.5;"/>
   </g>
   <g id="line2d_67">
    <path clip-path="url(#p00fc76fc52)" d="M 34.16 148.4 
L 450.672 148.4 
" style="fill:none;stroke:#000000;stroke-dasharray:2,3.3;stroke-dashoffset:0;stroke-width:2;"/>
   </g>
   <g id="patch_3">
    <path d="M 34.16 291.28 
L 34.16 5.52 
" style="fill:none;stroke:#000000;stroke-linecap:square;stroke-linejoin:miter;stroke-width:0.8;"/>
   </g>
   <g id="patch_4">
    <path d="M 450.672 291.28 
L 450.672 5.52 
" style="fill:none;stroke:#000000;stroke-linecap:square;stroke-linejoin:miter;stroke-width:0.8;"/>
   </g>
   <g id="patch_5">
    <path d="M 34.16 291.28 
L 450.672 291.28 
" style="fill:none;stroke:#000000;stroke-linecap:square;stroke-linejoin:miter;stroke-width:0.8;"/>
   </g>
   <g id="patch_6">
    <path d="M 34.16 5.52 
L 450.672 5.52 
" style="fill:none;stroke:#000000;stroke-linecap:square;stroke-linejoin:miter;stroke-width:0.8;"/>
   </g>
   <g id="text_8">
    <!-- f10-f14,5-D -->
    <defs>
     <path d="M 37.796875 64.3125 
L 12.890625 25.390625 
L 37.796875 25.390625 
z
M 35.203125 72.90625 
L 47.609375 72.90625 
L 47.609375 25.390625 
L 58.015625 25.390625 
L 58.015625 17.1875 
L 47.609375 17.1875 
L 47.609375 0 
L 37.796875 0 
L 37.796875 17.1875 
L 4.890625 17.1875 
L 4.890625 26.703125 
z
" id="DejaVuSans-34"/>
     <path d="M 11.71875 12.40625 
L 22.015625 12.40625 
L 22.015625 4 
L 14.015625 -11.625 
L 7.71875 -11.625 
L 11.71875 4 
z
" id="DejaVuSans-2c"/>
     <path d="M 10.796875 72.90625 
L 49.515625 72.90625 
L 49.515625 64.59375 
L 19.828125 64.59375 
L 19.828125 46.734375 
Q 21.96875 47.46875 24.109375 47.828125 
Q 26.265625 48.1875 28.421875 48.1875 
Q 40.625 48.1875 47.75 41.5 
Q 54.890625 34.8125 54.890625 23.390625 
Q 54.890625 11.625 47.5625 5.09375 
Q 40.234375 -1.421875 26.90625 -1.421875 
Q 22.3125 -1.421875 17.546875 -0.640625 
Q 12.796875 0.140625 7.71875 1.703125 
L 7.71875 11.625 
Q 12.109375 9.234375 16.796875 8.0625 
Q 21.484375 6.890625 26.703125 6.890625 
Q 35.15625 6.890625 40.078125 11.328125 
Q 45.015625 15.765625 45.015625 23.390625 
Q 45.015625 31 40.078125 35.4375 
Q 35.15625 39.890625 26.703125 39.890625 
Q 22.75 39.890625 18.8125 39.015625 
Q 14.890625 38.140625 10.796875 36.28125 
z
" id="DejaVuSans-35"/>
     <path d="M 19.671875 64.796875 
L 19.671875 8.109375 
L 31.59375 8.109375 
Q 46.6875 8.109375 53.6875 14.9375 
Q 60.6875 21.78125 60.6875 36.53125 
Q 60.6875 51.171875 53.6875 57.984375 
Q 46.6875 64.796875 31.59375 64.796875 
z
M 9.8125 72.90625 
L 30.078125 72.90625 
Q 51.265625 72.90625 61.171875 64.09375 
Q 71.09375 55.28125 71.09375 36.53125 
Q 71.09375 17.671875 61.125 8.828125 
Q 51.171875 0 30.078125 0 
L 9.8125 0 
z
" id="DejaVuSans-44"/>
    </defs>
    <g transform="translate(328.44801 285.5648)scale(0.2 -0.2)">
     <use xlink:href="#DejaVuSans-66"/>
     <use x="35.205078" xlink:href="#DejaVuSans-31"/>
     <use x="98.828125" xlink:href="#DejaVuSans-30"/>
     <use x="162.451172" xlink:href="#DejaVuSans-2d"/>
     <use x="198.535156" xlink:href="#DejaVuSans-66"/>
     <use x="233.740234" xlink:href="#DejaVuSans-31"/>
     <use x="297.363281" xlink:href="#DejaVuSans-34"/>
     <use x="360.986328" xlink:href="#DejaVuSans-2c"/>
     <use x="392.773438" xlink:href="#DejaVuSans-35"/>
     <use x="456.396484" xlink:href="#DejaVuSans-2d"/>
     <use x="492.480469" xlink:href="#DejaVuSans-44"/>
    </g>
   </g>
   <g id="text_9">
    <!-- v0.0.0 -->
    <defs>
     <path d="M 10.6875 12.40625 
L 21 12.40625 
L 21 0 
L 10.6875 0 
z
" id="DejaVuSans-2e"/>
    </defs>
    <g style="fill:#808080;" transform="translate(226.73475 286.342713)scale(0.1 -0.1)">
     <use xlink:href="#DejaVuSans-76"/>
     <use x="59.179688" xlink:href="#DejaVuSans-30"/>
     <use x="122.802734" xlink:href="#DejaVuSans-2e"/>
     <use x="154.589844" xlink:href="#DejaVuSans-30"/>
     <use x="218.212891" xlink:href="#DejaVuSans-2e"/>
     <use x="250" xlink:href="#DejaVuSans-30"/>
    </g>
   </g>
   <g id="legend_1">
    <g id="patch_7">
     <path d="M 48.16 281.28 
L 177.381875 281.28 
Q 181.381875 281.28 181.381875 277.28 
L 181.381875 161.855 
Q 181.381875 157.855 177.381875 157.855 
L 48.16 157.855 
Q 44.16 157.855 44.16 161.855 
L 44.16 277.28 
Q 44.16 281.28 48.16 281.28 
z
" style="fill:#ffffff;opacity:0.2;stroke:#cccccc;stroke-linejoin:miter;"/>
    </g>
    <g id="line2d_68">
     <path d="M 52.16 174.051875 
L 92.16 174.051875 
" style="fill:none;stroke:#000000;stroke-linecap:square;stroke-width:3;"/>
    </g>
    <g id="line2d_69"/>
    <g id="text_10">
     <!-- 1: 5/5 -->
     <defs>
      <path d="M 11.71875 12.40625 
L 22.015625 12.40625 
L 22.015625 0 
L 11.71875 0 
z
M 11.71875 51.703125 
L 22.015625 51.703125 
L 22.015625 39.3125 
L 11.71875 39.3125 
z
" id="DejaVuSans-3a"/>
      <path d="M 25.390625 72.90625 
L 33.6875 72.90625 
L 8.296875 -9.28125 
L 0 -9.28125 
z
" id="DejaVuSans-2f"/>
     </defs>
     <g transform="translate(108.16 181.051875)scale(0.2 -0.2)">
      <use xlink:href="#DejaVuSans-31"/>
      <use x="63.623047" xlink:href="#DejaVuSans-3a"/>
      <use x="97.314453" xlink:href="#DejaVuSans-20"/>
      <use x="129.101562" xlink:href="#DejaVuSans-35"/>
      <use x="192.724609" xlink:href="#DejaVuSans-2f"/>
      <use x="226.416016" xlink:href="#DejaVuSans-35"/>
     </g>
    </g>
    <g id="line2d_70">
     <path d="M 52.16 203.408125 
L 92.16 203.408125 
" style="fill:none;stroke:#00bfbf;stroke-linecap:square;stroke-width:3;"/>
    </g>
    <g id="line2d_71"/>
    <g id="text_11">
     <!-- -1: 5/1 -->
     <g transform="translate(108.16 210.408125)scale(0.2 -0.2)">
      <use xlink:href="#DejaVuSans-2d"/>
      <use x="36.083984" xlink:href="#DejaVuSans-31"/>
      <use x="99.707031" xlink:href="#DejaVuSans-3a"/>
      <use x="133.398438" xlink:href="#DejaVuSans-20"/>
      <use x="165.185547" xlink:href="#DejaVuSans-35"/>
      <use x="228.808594" xlink:href="#DejaVuSans-2f"/>
      <use x="262.5" xlink:href="#DejaVuSans-31"/>
     </g>
    </g>
    <g id="line2d_72">
     <path d="M 52.16 232.764375 
L 92.16 232.764375 
" style="fill:none;stroke:#bf00bf;stroke-linecap:square;stroke-width:3;"/>
    </g>
    <g id="line2d_73"/>
    <g id="text_12">
     <!-- -4: 5/1 -->
     <g transform="translate(108.16 239.764375)scale(0.2 -0.2)">
      <use xlink:href="#DejaVuSans-2d"/>
      <use x="36.083984" xlink:href="#DejaVuSans-34"/>
      <use x="99.707031" xlink:href="#DejaVuSans-3a"/>
      <use x="133.398438" xlink:href="#DejaVuSans-20"/>
      <use x="165.185547" xlink:href="#DejaVuSans-35"/>
      <use x="228.808594" xlink:href="#DejaVuSans-2f"/>
      <use x="262.5" xlink:href="#DejaVuSans-31"/>
     </g>
    </g>
    <g id="line2d_74">
     <path d="M 52.16 262.120625 
L 92.16 262.120625 
" style="fill:none;stroke:#ff0000;stroke-linecap:square;stroke-width:3;"/>
    </g>
    <g id="line2d_75"/>
    <g id="text_13">
     <!-- -8: 2/0 -->
     <defs>
      <path d="M 31.78125 34.625 
Q 24.75 34.625 20.71875 30.859375 
Q 16.703125 27.09375 16.703125 20.515625 
Q 16.703125 13.921875 20.71875 10.15625 
Q 24.75 6.390625 31.78125 6.390625 
Q 38.8125 6.390625 42.859375 10.171875 
Q 46.921875 13.96875 46.921875 20.515625 
Q 46.921875 27.09375 42.890625 30.859375 
Q 38.875 34.625 31.78125 34.625 
z
M 21.921875 38.8125 
Q 15.578125 40.375 12.03125 44.71875 
Q 8.5 49.078125 8.5 55.328125 
Q 8.5 64.0625 14.71875 69.140625 
Q 20.953125 74.21875 31.78125 74.21875 
Q 42.671875 74.21875 48.875 69.140625 
Q 55.078125 64.0625 55.078125 55.328125 
Q 55.078125 49.078125 51.53125 44.71875 
Q 48 40.375 41.703125 38.8125 
Q 48.828125 37.15625 52.796875 32.3125 
Q 56.78125 27.484375 56.78125 20.515625 
Q 56.78125 9.90625 50.3125 4.234375 
Q 43.84375 -1.421875 31.78125 -1.421875 
Q 19.734375 -1.421875 13.25 4.234375 
Q 6.78125 9.90625 6.78125 20.515625 
Q 6.78125 27.484375 10.78125 32.3125 
Q 14.796875 37.15625 21.921875 38.8125 
z
M 18.3125 54.390625 
Q 18.3125 48.734375 21.84375 45.5625 
Q 25.390625 42.390625 31.78125 42.390625 
Q 38.140625 42.390625 41.71875 45.5625 
Q 45.3125 48.734375 45.3125 54.390625 
Q 45.3125 60.0625 41.71875 63.234375 
Q 38.140625 66.40625 31.78125 66.40625 
Q 25.390625 66.40625 21.84375 63.234375 
Q 18.3125 60.0625 18.3125 54.390625 
z
" id="DejaVuSans-38"/>
     </defs>
     <g transform="translate(108.16 269.120625)scale(0.2 -0.2)">
      <use xlink:href="#DejaVuSans-2d"/>
      <use x="36.083984" xlink:href="#DejaVuSans-38"/>
      <use x="99.707031" xlink:href="#DejaVuSans-3a"/>
      <use x="133.398438" xlink:href="#DejaVuSans-20"/>
      <use x="165.185547" xlink:href="#DejaVuSans-32"/>
      <use x="228.808594" xlink:href="#DejaVuSans-2f"/>
      <use x="262.5" xlink:href="#DejaVuSans-30"/>
     </g>
    </g>
   </g>
  </g>
 </g>
 <defs>
  <clipPath id="p00fc76fc52">
   <rect height="285.76" width="416.512" x="34.16" y="5.52"/>
  </clipPath>
 </defs>
</svg>
