<?xml version="1.0" encoding="utf-8" standalone="no"?>
<!DOCTYPE svg PUBLIC "-//W3C//DTD SVG 1.1//EN"
  "http://www.w3.org/Graphics/SVG/1.1/DTD/svg11.dtd">
<!-- Created with matplotlib (http://matplotlib.org/) -->
<svg height="345pt" version="1.1" viewBox="0 0 460 345" width="460pt" xmlns="http://www.w3.org/2000/svg" xmlns:xlink="http://www.w3.org/1999/xlink">
 <defs>
  <style type="text/css">
*{stroke-linecap:butt;stroke-linejoin:round;}
  </style>
 </defs>
 <g id="figure_1">
  <g id="patch_1">
   <path d="M 0 345.6 
L 460.8 345.6 
L 460.8 0 
L 0 0 
z
" style="fill:#ffffff;"/>
  </g>
  <g id="axes_1">
   <g id="patch_2">
    <path d="M 34.16 291.28 
L 450.672 291.28 
L 450.672 5.52 
L 34.16 5.52 
z
" style="fill:#ffffff;"/>
   </g>
   <g id="matplotlib.axis_1">
    <g id="xtick_1">
     <g id="line2d_1">
      <path clip-path="url(#p4ac9885a60)" d="M 89.298659 291.28 
L 89.298659 5.52 
" style="fill:none;stroke:#b0b0b0;stroke-linecap:square;stroke-width:0.8;"/>
     </g>
     <g id="line2d_2">
      <defs>
       <path d="M 0 0 
L 0 3.5 
" id="ma0a9aa394b" style="stroke:#000000;stroke-width:0.8;"/>
      </defs>
      <g>
       <use style="stroke:#000000;stroke-width:0.8;" x="89.298659" xlink:href="#ma0a9aa394b" y="291.28"/>
      </g>
     </g>
     <g id="text_1">
      <!-- -3 -->
      <defs>
       <path d="M 4.890625 31.390625 
L 31.203125 31.390625 
L 31.203125 23.390625 
L 4.890625 23.390625 
z
" id="DejaVuSans-2d"/>
       <path d="M 40.578125 39.3125 
Q 47.65625 37.796875 51.625 33 
Q 55.609375 28.21875 55.609375 21.1875 
Q 55.609375 10.40625 48.1875 4.484375 
Q 40.765625 -1.421875 27.09375 -1.421875 
Q 22.515625 -1.421875 17.65625 -0.515625 
Q 12.796875 0.390625 7.625 2.203125 
L 7.625 11.71875 
Q 11.71875 9.328125 16.59375 8.109375 
Q 21.484375 6.890625 26.8125 6.890625 
Q 36.078125 6.890625 40.9375 10.546875 
Q 45.796875 14.203125 45.796875 21.1875 
Q 45.796875 27.640625 41.28125 31.265625 
Q 36.765625 34.90625 28.71875 34.90625 
L 20.21875 34.90625 
L 20.21875 43.015625 
L 29.109375 43.015625 
Q 36.375 43.015625 40.234375 45.921875 
Q 44.09375 48.828125 44.09375 54.296875 
Q 44.09375 59.90625 40.109375 62.90625 
Q 36.140625 65.921875 28.71875 65.921875 
Q 24.65625 65.921875 20.015625 65.03125 
Q 15.375 64.15625 9.8125 62.3125 
L 9.8125 71.09375 
Q 15.4375 72.65625 20.34375 73.4375 
Q 25.25 74.21875 29.59375 74.21875 
Q 40.828125 74.21875 47.359375 69.109375 
Q 53.90625 64.015625 53.90625 55.328125 
Q 53.90625 49.265625 50.4375 45.09375 
Q 46.96875 40.921875 40.578125 39.3125 
z
" id="DejaVuSans-33"/>
      </defs>
      <g transform="translate(79.328347 313.476875)scale(0.2 -0.2)">
       <use xlink:href="#DejaVuSans-2d"/>
       <use x="36.083984" xlink:href="#DejaVuSans-33"/>
      </g>
     </g>
    </g>
    <g id="xtick_2">
     <g id="line2d_3">
      <path clip-path="url(#p4ac9885a60)" d="M 191.376886 291.28 
L 191.376886 5.52 
" style="fill:none;stroke:#b0b0b0;stroke-linecap:square;stroke-width:0.8;"/>
     </g>
     <g id="line2d_4">
      <g>
       <use style="stroke:#000000;stroke-width:0.8;" x="191.376886" xlink:href="#ma0a9aa394b" y="291.28"/>
      </g>
     </g>
     <g id="text_2">
      <!-- -1 -->
      <defs>
       <path d="M 12.40625 8.296875 
L 28.515625 8.296875 
L 28.515625 63.921875 
L 10.984375 60.40625 
L 10.984375 69.390625 
L 28.421875 72.90625 
L 38.28125 72.90625 
L 38.28125 8.296875 
L 54.390625 8.296875 
L 54.390625 0 
L 12.40625 0 
z
" id="DejaVuSans-31"/>
      </defs>
      <g transform="translate(181.406574 313.476875)scale(0.2 -0.2)">
       <use xlink:href="#DejaVuSans-2d"/>
       <use x="36.083984" xlink:href="#DejaVuSans-31"/>
      </g>
     </g>
    </g>
    <g id="xtick_3">
     <g id="line2d_5">
      <path clip-path="url(#p4ac9885a60)" d="M 293.455114 291.28 
L 293.455114 5.52 
" style="fill:none;stroke:#b0b0b0;stroke-linecap:square;stroke-width:0.8;"/>
     </g>
     <g id="line2d_6">
      <g>
       <use style="stroke:#000000;stroke-width:0.8;" x="293.455114" xlink:href="#ma0a9aa394b" y="291.28"/>
      </g>
     </g>
     <g id="text_3">
      <!-- 1 -->
      <g transform="translate(287.092614 313.476875)scale(0.2 -0.2)">
       <use xlink:href="#DejaVuSans-31"/>
      </g>
     </g>
    </g>
    <g id="xtick_4">
     <g id="line2d_7">
      <path clip-path="url(#p4ac9885a60)" d="M 395.533341 291.28 
L 395.533341 5.52 
" style="fill:none;stroke:#b0b0b0;stroke-linecap:square;stroke-width:0.8;"/>
     </g>
     <g id="line2d_8">
      <g>
       <use style="stroke:#000000;stroke-width:0.8;" x="395.533341" xlink:href="#ma0a9aa394b" y="291.28"/>
      </g>
     </g>
     <g id="text_4">
      <!-- 3 -->
      <g transform="translate(389.170841 313.476875)scale(0.2 -0.2)">
       <use xlink:href="#DejaVuSans-33"/>
      </g>
     </g>
    </g>
    <g id="text_5">
     <!-- log10 of FEvals ratio -->
     <defs>
      <path d="M 9.421875 75.984375 
L 18.40625 75.984375 
L 18.40625 0 
L 9.421875 0 
z
" id="DejaVuSans-6c"/>
      <path d="M 30.609375 48.390625 
Q 23.390625 48.390625 19.1875 42.75 
Q 14.984375 37.109375 14.984375 27.296875 
Q 14.984375 17.484375 19.15625 11.84375 
Q 23.34375 6.203125 30.609375 6.203125 
Q 37.796875 6.203125 41.984375 11.859375 
Q 46.1875 17.53125 46.1875 27.296875 
Q 46.1875 37.015625 41.984375 42.703125 
Q 37.796875 48.390625 30.609375 48.390625 
z
M 30.609375 56 
Q 42.328125 56 49.015625 48.375 
Q 55.71875 40.765625 55.71875 27.296875 
Q 55.71875 13.875 49.015625 6.21875 
Q 42.328125 -1.421875 30.609375 -1.421875 
Q 18.84375 -1.421875 12.171875 6.21875 
Q 5.515625 13.875 5.515625 27.296875 
Q 5.515625 40.765625 12.171875 48.375 
Q 18.84375 56 30.609375 56 
z
" id="DejaVuSans-6f"/>
      <path d="M 45.40625 27.984375 
Q 45.40625 37.75 41.375 43.109375 
Q 37.359375 48.484375 30.078125 48.484375 
Q 22.859375 48.484375 18.828125 43.109375 
Q 14.796875 37.75 14.796875 27.984375 
Q 14.796875 18.265625 18.828125 12.890625 
Q 22.859375 7.515625 30.078125 7.515625 
Q 37.359375 7.515625 41.375 12.890625 
Q 45.40625 18.265625 45.40625 27.984375 
z
M 54.390625 6.78125 
Q 54.390625 -7.171875 48.1875 -13.984375 
Q 42 -20.796875 29.203125 -20.796875 
Q 24.46875 -20.796875 20.265625 -20.09375 
Q 16.0625 -19.390625 12.109375 -17.921875 
L 12.109375 -9.1875 
Q 16.0625 -11.328125 19.921875 -12.34375 
Q 23.78125 -13.375 27.78125 -13.375 
Q 36.625 -13.375 41.015625 -8.765625 
Q 45.40625 -4.15625 45.40625 5.171875 
L 45.40625 9.625 
Q 42.625 4.78125 38.28125 2.390625 
Q 33.9375 0 27.875 0 
Q 17.828125 0 11.671875 7.65625 
Q 5.515625 15.328125 5.515625 27.984375 
Q 5.515625 40.671875 11.671875 48.328125 
Q 17.828125 56 27.875 56 
Q 33.9375 56 38.28125 53.609375 
Q 42.625 51.21875 45.40625 46.390625 
L 45.40625 54.6875 
L 54.390625 54.6875 
z
" id="DejaVuSans-67"/>
      <path d="M 31.78125 66.40625 
Q 24.171875 66.40625 20.328125 58.90625 
Q 16.5 51.421875 16.5 36.375 
Q 16.5 21.390625 20.328125 13.890625 
Q 24.171875 6.390625 31.78125 6.390625 
Q 39.453125 6.390625 43.28125 13.890625 
Q 47.125 21.390625 47.125 36.375 
Q 47.125 51.421875 43.28125 58.90625 
Q 39.453125 66.40625 31.78125 66.40625 
z
M 31.78125 74.21875 
Q 44.046875 74.21875 50.515625 64.515625 
Q 56.984375 54.828125 56.984375 36.375 
Q 56.984375 17.96875 50.515625 8.265625 
Q 44.046875 -1.421875 31.78125 -1.421875 
Q 19.53125 -1.421875 13.0625 8.265625 
Q 6.59375 17.96875 6.59375 36.375 
Q 6.59375 54.828125 13.0625 64.515625 
Q 19.53125 74.21875 31.78125 74.21875 
z
" id="DejaVuSans-30"/>
      <path id="DejaVuSans-20"/>
      <path d="M 37.109375 75.984375 
L 37.109375 68.5 
L 28.515625 68.5 
Q 23.6875 68.5 21.796875 66.546875 
Q 19.921875 64.59375 19.921875 59.515625 
L 19.921875 54.6875 
L 34.71875 54.6875 
L 34.71875 47.703125 
L 19.921875 47.703125 
L 19.921875 0 
L 10.890625 0 
L 10.890625 47.703125 
L 2.296875 47.703125 
L 2.296875 54.6875 
L 10.890625 54.6875 
L 10.890625 58.5 
Q 10.890625 67.625 15.140625 71.796875 
Q 19.390625 75.984375 28.609375 75.984375 
z
" id="DejaVuSans-66"/>
      <path d="M 9.8125 72.90625 
L 51.703125 72.90625 
L 51.703125 64.59375 
L 19.671875 64.59375 
L 19.671875 43.109375 
L 48.578125 43.109375 
L 48.578125 34.8125 
L 19.671875 34.8125 
L 19.671875 0 
L 9.8125 0 
z
" id="DejaVuSans-46"/>
      <path d="M 9.8125 72.90625 
L 55.90625 72.90625 
L 55.90625 64.59375 
L 19.671875 64.59375 
L 19.671875 43.015625 
L 54.390625 43.015625 
L 54.390625 34.71875 
L 19.671875 34.71875 
L 19.671875 8.296875 
L 56.78125 8.296875 
L 56.78125 0 
L 9.8125 0 
z
" id="DejaVuSans-45"/>
      <path d="M 2.984375 54.6875 
L 12.5 54.6875 
L 29.59375 8.796875 
L 46.6875 54.6875 
L 56.203125 54.6875 
L 35.6875 0 
L 23.484375 0 
z
" id="DejaVuSans-76"/>
      <path d="M 34.28125 27.484375 
Q 23.390625 27.484375 19.1875 25 
Q 14.984375 22.515625 14.984375 16.5 
Q 14.984375 11.71875 18.140625 8.90625 
Q 21.296875 6.109375 26.703125 6.109375 
Q 34.1875 6.109375 38.703125 11.40625 
Q 43.21875 16.703125 43.21875 25.484375 
L 43.21875 27.484375 
z
M 52.203125 31.203125 
L 52.203125 0 
L 43.21875 0 
L 43.21875 8.296875 
Q 40.140625 3.328125 35.546875 0.953125 
Q 30.953125 -1.421875 24.3125 -1.421875 
Q 15.921875 -1.421875 10.953125 3.296875 
Q 6 8.015625 6 15.921875 
Q 6 25.140625 12.171875 29.828125 
Q 18.359375 34.515625 30.609375 34.515625 
L 43.21875 34.515625 
L 43.21875 35.40625 
Q 43.21875 41.609375 39.140625 45 
Q 35.0625 48.390625 27.6875 48.390625 
Q 23 48.390625 18.546875 47.265625 
Q 14.109375 46.140625 10.015625 43.890625 
L 10.015625 52.203125 
Q 14.9375 54.109375 19.578125 55.046875 
Q 24.21875 56 28.609375 56 
Q 40.484375 56 46.34375 49.84375 
Q 52.203125 43.703125 52.203125 31.203125 
z
" id="DejaVuSans-61"/>
      <path d="M 44.28125 53.078125 
L 44.28125 44.578125 
Q 40.484375 46.53125 36.375 47.5 
Q 32.28125 48.484375 27.875 48.484375 
Q 21.1875 48.484375 17.84375 46.4375 
Q 14.5 44.390625 14.5 40.28125 
Q 14.5 37.15625 16.890625 35.375 
Q 19.28125 33.59375 26.515625 31.984375 
L 29.59375 31.296875 
Q 39.15625 29.25 43.1875 25.515625 
Q 47.21875 21.78125 47.21875 15.09375 
Q 47.21875 7.46875 41.1875 3.015625 
Q 35.15625 -1.421875 24.609375 -1.421875 
Q 20.21875 -1.421875 15.453125 -0.5625 
Q 10.6875 0.296875 5.421875 2 
L 5.421875 11.28125 
Q 10.40625 8.6875 15.234375 7.390625 
Q 20.0625 6.109375 24.8125 6.109375 
Q 31.15625 6.109375 34.5625 8.28125 
Q 37.984375 10.453125 37.984375 14.40625 
Q 37.984375 18.0625 35.515625 20.015625 
Q 33.0625 21.96875 24.703125 23.78125 
L 21.578125 24.515625 
Q 13.234375 26.265625 9.515625 29.90625 
Q 5.8125 33.546875 5.8125 39.890625 
Q 5.8125 47.609375 11.28125 51.796875 
Q 16.75 56 26.8125 56 
Q 31.78125 56 36.171875 55.265625 
Q 40.578125 54.546875 44.28125 53.078125 
z
" id="DejaVuSans-73"/>
      <path d="M 41.109375 46.296875 
Q 39.59375 47.171875 37.8125 47.578125 
Q 36.03125 48 33.890625 48 
Q 26.265625 48 22.1875 43.046875 
Q 18.109375 38.09375 18.109375 28.8125 
L 18.109375 0 
L 9.078125 0 
L 9.078125 54.6875 
L 18.109375 54.6875 
L 18.109375 46.1875 
Q 20.953125 51.171875 25.484375 53.578125 
Q 30.03125 56 36.53125 56 
Q 37.453125 56 38.578125 55.875 
Q 39.703125 55.765625 41.0625 55.515625 
z
" id="DejaVuSans-72"/>
      <path d="M 18.3125 70.21875 
L 18.3125 54.6875 
L 36.8125 54.6875 
L 36.8125 47.703125 
L 18.3125 47.703125 
L 18.3125 18.015625 
Q 18.3125 11.328125 20.140625 9.421875 
Q 21.96875 7.515625 27.59375 7.515625 
L 36.8125 7.515625 
L 36.8125 0 
L 27.59375 0 
Q 17.1875 0 13.234375 3.875 
Q 9.28125 7.765625 9.28125 18.015625 
L 9.28125 47.703125 
L 2.6875 47.703125 
L 2.6875 54.6875 
L 9.28125 54.6875 
L 9.28125 70.21875 
z
" id="DejaVuSans-74"/>
      <path d="M 9.421875 54.6875 
L 18.40625 54.6875 
L 18.40625 0 
L 9.421875 0 
z
M 9.421875 75.984375 
L 18.40625 75.984375 
L 18.40625 64.59375 
L 9.421875 64.59375 
z
" id="DejaVuSans-69"/>
     </defs>
     <g transform="translate(140.111312 336.833125)scale(0.2 -0.2)">
      <use xlink:href="#DejaVuSans-6c"/>
      <use x="27.783203" xlink:href="#DejaVuSans-6f"/>
      <use x="88.964844" xlink:href="#DejaVuSans-67"/>
      <use x="152.441406" xlink:href="#DejaVuSans-31"/>
      <use x="216.064453" xlink:href="#DejaVuSans-30"/>
      <use x="279.6875" xlink:href="#DejaVuSans-20"/>
      <use x="311.474609" xlink:href="#DejaVuSans-6f"/>
      <use x="372.65625" xlink:href="#DejaVuSans-66"/>
      <use x="407.861328" xlink:href="#DejaVuSans-20"/>
      <use x="439.648438" xlink:href="#DejaVuSans-46"/>
      <use x="497.167969" xlink:href="#DejaVuSans-45"/>
      <use x="560.351562" xlink:href="#DejaVuSans-76"/>
      <use x="619.53125" xlink:href="#DejaVuSans-61"/>
      <use x="680.810547" xlink:href="#DejaVuSans-6c"/>
      <use x="708.59375" xlink:href="#DejaVuSans-73"/>
      <use x="760.693359" xlink:href="#DejaVuSans-20"/>
      <use x="792.480469" xlink:href="#DejaVuSans-72"/>
      <use x="833.59375" xlink:href="#DejaVuSans-61"/>
      <use x="894.873047" xlink:href="#DejaVuSans-74"/>
      <use x="934.082031" xlink:href="#DejaVuSans-69"/>
      <use x="961.865234" xlink:href="#DejaVuSans-6f"/>
     </g>
    </g>
   </g>
   <g id="matplotlib.axis_2">
    <g id="ytick_1">
     <g id="line2d_9">
      <path clip-path="url(#p4ac9885a60)" d="M 34.16 288.478431 
L 450.672 288.478431 
" style="fill:none;stroke:#b0b0b0;stroke-linecap:square;stroke-width:0.8;"/>
     </g>
     <g id="line2d_10">
      <defs>
       <path d="M 0 0 
L -3.5 0 
" id="m495366b432" style="stroke:#000000;stroke-width:0.8;"/>
      </defs>
      <g>
       <use style="stroke:#000000;stroke-width:0.8;" x="34.16" xlink:href="#m495366b432" y="288.478431"/>
      </g>
     </g>
    </g>
    <g id="ytick_2">
     <g id="line2d_11">
      <path clip-path="url(#p4ac9885a60)" d="M 34.16 218.439216 
L 450.672 218.439216 
" style="fill:none;stroke:#b0b0b0;stroke-linecap:square;stroke-width:0.8;"/>
     </g>
     <g id="line2d_12">
      <g>
       <use style="stroke:#000000;stroke-width:0.8;" x="34.16" xlink:href="#m495366b432" y="218.439216"/>
      </g>
     </g>
    </g>
    <g id="ytick_3">
     <g id="line2d_13">
      <path clip-path="url(#p4ac9885a60)" d="M 34.16 148.4 
L 450.672 148.4 
" style="fill:none;stroke:#b0b0b0;stroke-linecap:square;stroke-width:0.8;"/>
     </g>
     <g id="line2d_14">
      <g>
       <use style="stroke:#000000;stroke-width:0.8;" x="34.16" xlink:href="#m495366b432" y="148.4"/>
      </g>
     </g>
    </g>
    <g id="ytick_4">
     <g id="line2d_15">
      <path clip-path="url(#p4ac9885a60)" d="M 34.16 78.360784 
L 450.672 78.360784 
" style="fill:none;stroke:#b0b0b0;stroke-linecap:square;stroke-width:0.8;"/>
     </g>
     <g id="line2d_16">
      <g>
       <use style="stroke:#000000;stroke-width:0.8;" x="34.16" xlink:href="#m495366b432" y="78.360784"/>
      </g>
     </g>
    </g>
    <g id="ytick_5">
     <g id="line2d_17">
      <path clip-path="url(#p4ac9885a60)" d="M 34.16 8.321569 
L 450.672 8.321569 
" style="fill:none;stroke:#b0b0b0;stroke-linecap:square;stroke-width:0.8;"/>
     </g>
     <g id="line2d_18">
      <g>
       <use style="stroke:#000000;stroke-width:0.8;" x="34.16" xlink:href="#m495366b432" y="8.321569"/>
      </g>
     </g>
    </g>
    <g id="text_6">
     <!-- proportion of trials -->
     <defs>
      <path d="M 18.109375 8.203125 
L 18.109375 -20.796875 
L 9.078125 -20.796875 
L 9.078125 54.6875 
L 18.109375 54.6875 
L 18.109375 46.390625 
Q 20.953125 51.265625 25.265625 53.625 
Q 29.59375 56 35.59375 56 
Q 45.5625 56 51.78125 48.09375 
Q 58.015625 40.1875 58.015625 27.296875 
Q 58.015625 14.40625 51.78125 6.484375 
Q 45.5625 -1.421875 35.59375 -1.421875 
Q 29.59375 -1.421875 25.265625 0.953125 
Q 20.953125 3.328125 18.109375 8.203125 
z
M 48.6875 27.296875 
Q 48.6875 37.203125 44.609375 42.84375 
Q 40.53125 48.484375 33.40625 48.484375 
Q 26.265625 48.484375 22.1875 42.84375 
Q 18.109375 37.203125 18.109375 27.296875 
Q 18.109375 17.390625 22.1875 11.75 
Q 26.265625 6.109375 33.40625 6.109375 
Q 40.53125 6.109375 44.609375 11.75 
Q 48.6875 17.390625 48.6875 27.296875 
z
" id="DejaVuSans-70"/>
      <path d="M 54.890625 33.015625 
L 54.890625 0 
L 45.90625 0 
L 45.90625 32.71875 
Q 45.90625 40.484375 42.875 44.328125 
Q 39.84375 48.1875 33.796875 48.1875 
Q 26.515625 48.1875 22.3125 43.546875 
Q 18.109375 38.921875 18.109375 30.90625 
L 18.109375 0 
L 9.078125 0 
L 9.078125 54.6875 
L 18.109375 54.6875 
L 18.109375 46.1875 
Q 21.34375 51.125 25.703125 53.5625 
Q 30.078125 56 35.796875 56 
Q 45.21875 56 50.046875 50.171875 
Q 54.890625 44.34375 54.890625 33.015625 
z
" id="DejaVuSans-6e"/>
     </defs>
     <g transform="translate(19.000625 241.628125)rotate(-90)scale(0.2 -0.2)">
      <use xlink:href="#DejaVuSans-70"/>
      <use x="63.476562" xlink:href="#DejaVuSans-72"/>
      <use x="104.558594" xlink:href="#DejaVuSans-6f"/>
      <use x="165.740234" xlink:href="#DejaVuSans-70"/>
      <use x="229.216797" xlink:href="#DejaVuSans-6f"/>
      <use x="290.398438" xlink:href="#DejaVuSans-72"/>
      <use x="331.511719" xlink:href="#DejaVuSans-74"/>
      <use x="370.720703" xlink:href="#DejaVuSans-69"/>
      <use x="398.503906" xlink:href="#DejaVuSans-6f"/>
      <use x="459.685547" xlink:href="#DejaVuSans-6e"/>
      <use x="523.064453" xlink:href="#DejaVuSans-20"/>
      <use x="554.851562" xlink:href="#DejaVuSans-6f"/>
      <use x="616.033203" xlink:href="#DejaVuSans-66"/>
      <use x="651.238281" xlink:href="#DejaVuSans-20"/>
      <use x="683.025391" xlink:href="#DejaVuSans-74"/>
      <use x="722.234375" xlink:href="#DejaVuSans-72"/>
      <use x="763.347656" xlink:href="#DejaVuSans-69"/>
      <use x="791.130859" xlink:href="#DejaVuSans-61"/>
      <use x="852.410156" xlink:href="#DejaVuSans-6c"/>
      <use x="880.193359" xlink:href="#DejaVuSans-73"/>
     </g>
    </g>
   </g>
   <g id="line2d_19">
    <path clip-path="url(#p4ac9885a60)" d="M 34.16 145.560572 
L 108.846623 145.560572 
L 108.846623 145.497474 
L 108.846623 145.434376 
L 125.196245 145.434376 
L 125.196245 145.371277 
L 125.196245 145.308179 
L 128.575864 145.24508 
L 128.575864 145.118884 
L 129.507906 145.055785 
L 129.507906 144.992687 
L 132.101693 144.992687 
L 132.101693 144.929588 
L 132.101693 144.86649 
L 133.313497 144.803392 
L 133.313497 144.550998 
L 138.838051 144.4879 
L 138.838051 144.235506 
L 147.035124 144.235506 
L 147.035124 144.172408 
L 147.035124 143.983113 
L 147.197173 143.983113 
L 147.197173 143.920014 
L 147.197173 143.036637 
L 149.214761 142.973538 
L 149.214761 142.847341 
L 151.86056 142.847341 
L 151.86056 142.784243 
L 151.86056 142.658046 
L 153.077229 142.594948 
L 153.077229 142.531849 
L 156.704371 142.468751 
L 156.739272 142.342554 
L 158.037499 142.342554 
L 158.037499 142.279456 
L 158.037499 142.090161 
L 158.189582 142.090161 
L 158.189582 142.027062 
L 158.189582 141.143685 
L 158.392162 141.143685 
L 158.392162 141.080586 
L 158.392162 140.891291 
L 158.825388 140.828193 
L 158.825388 140.765095 
L 160.272329 140.701996 
L 160.272329 140.134111 
L 161.530061 140.134111 
L 161.530061 140.071012 
L 161.530061 140.007914 
L 166.298221 139.944815 
L 166.355498 139.692422 
L 168.554337 139.629323 
L 168.554337 139.37693 
L 169.493273 139.313831 
L 169.493273 139.250733 
L 171.271941 139.187635 
L 171.271941 138.809044 
L 171.477546 138.809044 
L 171.477546 138.745946 
L 171.477546 138.619749 
L 171.759125 138.619749 
L 171.759125 138.556651 
L 171.759125 138.367356 
L 172.113789 138.367356 
L 172.113789 138.304257 
L 172.113789 138.114962 
L 173.331546 138.051864 
L 173.331546 137.988765 
L 173.551224 137.925667 
L 173.551224 137.925667 
L 173.551224 137.862568 
L 173.756467 137.862568 
L 173.756467 137.79947 
L 173.756467 137.610175 
L 174.113073 137.547076 
L 174.113073 137.294683 
L 175.012443 137.231585 
L 175.012443 136.285109 
L 176.012582 136.22201 
L 176.012582 135.717223 
L 176.746276 135.717223 
L 176.746276 135.654125 
L 176.746276 135.591026 
L 176.983512 135.591026 
L 176.983512 135.527928 
L 176.983512 135.338633 
L 177.65526 135.275534 
L 177.70403 135.086239 
L 178.017655 135.023141 
L 178.017655 134.960042 
L 179.68371 134.896944 
L 179.68371 133.761173 
L 180.113912 133.698075 
L 180.196241 133.067091 
L 180.622078 133.003992 
L 180.622078 132.940894 
L 180.958784 132.940894 
L 180.958784 132.877795 
L 181.043765 132.562303 
L 181.280813 132.562303 
L 181.280813 132.499205 
L 181.348811 132.120615 
L 181.911996 132.057516 
L 181.971106 131.805123 
L 182.965117 131.742024 
L 182.965117 130.795548 
L 183.3179 130.73245 
L 183.3179 130.543155 
L 183.445068 130.543155 
L 183.445068 130.480057 
L 183.445068 130.416958 
L 184.424351 130.35386 
L 184.424351 129.785974 
L 184.782117 129.722876 
L 184.782117 129.596679 
L 184.964401 129.596679 
L 184.964401 129.533581 
L 184.964401 128.965695 
L 185.766878 128.902597 
L 185.766878 128.524006 
L 186.254063 128.460908 
L 186.340396 128.271613 
L 186.594139 128.208514 
L 186.636245 127.072743 
L 187.249797 127.009645 
L 187.249797 126.883448 
L 187.478093 126.883448 
L 187.478093 126.82035 
L 187.478093 126.631055 
L 187.827052 126.567956 
L 187.827052 126.504858 
L 188.477841 126.441759 
L 188.477841 126.315563 
L 188.886248 126.252464 
L 188.886248 126.126267 
L 189.101454 126.126267 
L 189.101454 126.063169 
L 189.101454 125.936972 
L 189.553996 125.873874 
L 189.595701 125.495284 
L 189.692582 125.495284 
L 189.692582 125.432185 
L 189.723996 124.801201 
L 189.9838 124.801201 
L 189.9838 124.738103 
L 190.036149 124.548808 
L 190.446708 124.548808 
L 190.446708 124.485709 
L 190.517435 123.728529 
L 190.705138 123.728529 
L 190.705138 123.66543 
L 190.752451 123.223741 
L 191.029631 123.160643 
L 191.06247 123.034446 
L 191.179268 122.971348 
L 191.179268 122.908249 
L 191.376886 122.908249 
L 191.376886 122.845151 
L 191.376886 122.782053 
L 191.695827 122.782053 
L 191.695827 122.718954 
L 191.729669 121.961774 
L 192.177716 121.898675 
L 192.217404 121.70938 
L 192.784725 121.646282 
L 192.8318 120.636707 
L 192.947887 120.636707 
L 192.947887 120.573609 
L 192.963385 120.447412 
L 193.253487 120.384314 
L 193.275526 120.258117 
L 193.645843 120.195019 
L 193.645843 120.005723 
L 193.842315 120.005723 
L 193.842315 119.942625 
L 193.842315 119.75333 
L 194.427403 119.690231 
L 194.504035 119.500936 
L 194.774356 119.437838 
L 194.774356 119.311641 
L 195.112732 119.311641 
L 195.112732 119.248543 
L 195.176633 119.122346 
L 195.327938 119.122346 
L 195.327938 119.059247 
L 195.401017 118.869952 
L 195.625388 118.869952 
L 195.625388 118.806854 
L 195.731959 118.365165 
L 195.775751 118.302067 
L 195.775751 118.112772 
L 196.099563 118.049673 
L 196.210283 117.607984 
L 196.323088 117.544886 
L 196.388378 117.418689 
L 196.453861 117.418689 
L 196.453861 117.355591 
L 196.545863 116.724607 
L 196.722486 116.724607 
L 196.722486 116.661509 
L 196.722486 116.59841 
L 196.971895 116.59841 
L 196.971895 116.535312 
L 197.048955 116.156721 
L 197.368143 116.156721 
L 197.368143 116.093623 
L 197.368143 115.904328 
L 197.67601 115.841229 
L 197.67601 115.715033 
L 197.812837 115.715033 
L 197.812837 115.651934 
L 197.863836 115.462639 
L 197.965765 115.462639 
L 197.965765 115.399541 
L 197.965765 115.210246 
L 198.210696 115.147147 
L 198.275226 114.957852 
L 198.550118 114.894754 
L 198.62989 114.64236 
L 198.906177 114.579262 
L 198.981362 114.389966 
L 199.031056 114.389966 
L 199.031056 114.326868 
L 199.116907 114.074474 
L 199.312015 114.011376 
L 199.312015 113.948278 
L 199.872327 113.948278 
L 199.872327 113.885179 
L 199.959822 112.938703 
L 200.026009 112.938703 
L 200.026009 112.875605 
L 200.043867 112.68631 
L 200.4814 112.623211 
L 200.587204 112.118424 
L 200.645974 112.118424 
L 200.645974 112.055326 
L 200.711457 111.866031 
L 200.857525 111.802932 
L 200.937893 111.424342 
L 201.057172 111.424342 
L 201.057172 111.361244 
L 201.081174 110.667161 
L 201.314023 110.604063 
L 201.314023 109.973079 
L 201.731097 109.909981 
L 201.805423 109.783784 
L 201.949406 109.720685 
L 202.045166 109.215898 
L 202.172959 109.1528 
L 202.249 108.963505 
L 202.326047 108.963505 
L 202.326047 108.900406 
L 202.326047 108.837308 
L 202.755474 108.837308 
L 202.755474 108.77421 
L 202.807714 108.521816 
L 202.985867 108.458718 
L 202.985867 107.512242 
L 203.177161 107.512242 
L 203.177161 107.449143 
L 203.275623 107.007455 
L 203.451312 107.007455 
L 203.451312 106.944356 
L 203.451312 106.502667 
L 203.569217 106.502667 
L 203.569217 106.439569 
L 203.569217 105.556191 
L 203.733544 105.556191 
L 203.733544 105.493093 
L 203.799216 104.862109 
L 203.866751 104.862109 
L 203.866751 104.799011 
L 203.880642 102.906059 
L 204.045392 102.906059 
L 204.045392 102.842961 
L 204.155231 102.46437 
L 204.168334 102.46437 
L 204.168334 102.401272 
L 204.168334 102.211977 
L 204.474077 102.148878 
L 204.474077 101.896485 
L 204.693643 101.833386 
L 204.744361 101.013107 
L 205.023462 101.013107 
L 205.023462 100.950009 
L 205.091962 100.823812 
L 205.200076 100.760714 
L 205.288823 100.382123 
L 205.355364 100.382123 
L 205.355364 100.319025 
L 205.417454 97.731991 
L 205.625685 97.668892 
L 205.71599 97.290302 
L 205.741051 97.290302 
L 205.741051 97.227204 
L 205.767677 96.280728 
L 205.960194 96.217629 
L 206.026096 96.091433 
L 206.214188 96.091433 
L 206.214188 96.028334 
L 206.312051 95.586645 
L 206.38076 95.523547 
L 206.402772 94.513973 
L 206.631548 94.450874 
L 206.741191 94.261579 
L 207.029065 94.198481 
L 207.084856 93.946087 
L 207.192259 93.882989 
L 207.290122 93.378202 
L 207.356953 93.378202 
L 207.356953 93.315103 
L 207.356953 93.252005 
L 207.596184 93.188907 
L 207.68575 93.06271 
L 207.919372 92.999611 
L 207.919372 92.936513 
L 208.12899 92.873415 
L 208.231667 91.10666 
L 208.292336 91.10666 
L 208.292336 91.043561 
L 208.292336 90.980463 
L 208.437778 90.980463 
L 208.437778 90.917364 
L 208.527338 89.024413 
L 208.567027 88.961314 
L 208.61549 88.645822 
L 208.727534 88.582724 
L 208.727534 88.582724 
L 208.826711 88.33033 
L 209.027735 88.267232 
L 209.125598 88.077937 
L 209.169396 88.077937 
L 209.169396 88.014838 
L 209.277211 87.762445 
L 209.468941 87.699346 
L 209.547532 86.437379 
L 209.705605 86.37428 
L 209.81084 86.184985 
L 209.873081 86.121887 
L 209.968236 85.932591 
L 210.147467 85.869493 
L 210.238117 85.490903 
L 210.388593 85.427804 
L 210.420418 85.238509 
L 210.642336 85.175411 
L 210.722777 84.923017 
L 210.846608 84.859919 
L 210.950912 84.607525 
L 211.084198 84.544427 
L 211.084198 84.481328 
L 211.462354 84.481328 
L 211.462354 84.41823 
L 211.466833 83.976541 
L 211.687392 83.976541 
L 211.687392 83.913443 
L 211.729096 83.093164 
L 211.946646 83.093164 
L 211.946646 83.030065 
L 212.029291 82.84077 
L 212.141319 82.84077 
L 212.141319 82.777672 
L 212.141319 82.714573 
L 212.449185 82.651475 
L 212.449185 82.588377 
L 212.608367 82.525278 
L 212.707167 82.335983 
L 212.878688 82.272885 
L 212.919153 81.957393 
L 213.236123 81.894294 
L 213.236123 81.831196 
L 213.521461 81.768098 
L 213.521461 81.704999 
L 213.677985 81.641901 
L 213.677985 81.578802 
L 213.829223 81.578802 
L 213.829223 81.515704 
L 213.829223 81.326409 
L 213.994194 81.26331 
L 214.037392 81.074015 
L 214.479254 81.010917 
L 214.561831 80.379933 
L 214.659769 80.316834 
L 214.659769 80.253736 
L 214.841974 80.253736 
L 214.841974 80.190638 
L 214.841974 80.127539 
L 215.472475 80.064441 
L 215.55211 79.496555 
L 215.774015 79.433457 
L 215.780341 79.30726 
L 216.237686 79.244162 
L 216.313297 79.117965 
L 216.448697 79.054867 
L 216.557465 78.92867 
L 217.038954 78.865571 
L 217.143634 78.739375 
L 217.177396 78.739375 
L 217.177396 78.676276 
L 217.221239 78.486981 
L 217.495447 78.423883 
L 217.588378 78.171489 
L 217.662948 78.108391 
L 217.77056 77.855997 
L 217.843045 77.855997 
L 217.843045 77.792899 
L 217.843045 77.603604 
L 218.064154 77.540505 
L 218.064154 77.414308 
L 218.367803 77.35121 
L 218.456483 77.035718 
L 218.663272 76.97262 
L 218.703602 76.657128 
L 218.821116 76.657128 
L 218.821116 76.594029 
L 218.877677 76.341636 
L 218.969015 76.341636 
L 218.969015 76.278537 
L 218.995231 76.152341 
L 219.108928 76.089242 
L 219.145637 75.77375 
L 219.413806 75.710652 
L 219.464578 75.584455 
L 219.757847 75.521357 
L 219.796755 75.205865 
L 219.912391 75.205865 
L 219.912391 75.142766 
L 219.912391 74.827274 
L 220.099161 74.764176 
L 220.170104 74.574881 
L 220.344091 74.574881 
L 220.344091 74.511782 
L 220.430774 74.259389 
L 220.56438 74.259389 
L 220.56438 74.19629 
L 220.56438 73.754602 
L 220.774826 73.691503 
L 220.865528 73.312913 
L 220.904635 73.312913 
L 220.904635 73.249815 
L 220.904635 73.186716 
L 221.166751 73.123618 
L 221.212783 72.934323 
L 221.322162 72.871224 
L 221.405792 72.618831 
L 221.481059 72.618831 
L 221.481059 72.555732 
L 221.481059 72.492634 
L 221.745064 72.429535 
L 221.790183 72.303339 
L 222.208833 72.24024 
L 222.258893 72.114043 
L 222.376567 72.050945 
L 222.428537 71.924748 
L 222.53872 71.924748 
L 222.53872 71.86165 
L 222.643967 71.546158 
L 222.965756 71.48306 
L 222.983793 71.293764 
L 223.219296 71.230666 
L 223.264367 71.104469 
L 223.387443 71.104469 
L 223.387443 71.041371 
L 223.490009 70.536584 
L 223.782074 70.473485 
L 223.782074 70.410387 
L 223.96367 70.410387 
L 223.96367 70.347288 
L 224.047194 70.094895 
L 224.091838 70.094895 
L 224.091838 70.031797 
L 224.091838 69.968698 
L 224.255674 69.9056 
L 224.255674 69.9056 
L 224.331563 69.653206 
L 224.423205 69.653206 
L 224.423205 69.590108 
L 224.423205 69.527009 
L 224.677758 69.463911 
L 224.680551 68.959124 
L 224.914339 68.896025 
L 224.980637 68.580533 
L 225.106612 68.517435 
L 225.199392 68.265042 
L 225.33254 68.265042 
L 225.33254 68.201943 
L 225.437513 67.192369 
L 225.629482 67.12927 
L 225.715607 66.876877 
L 225.8292 66.813778 
L 225.8292 66.687582 
L 225.963968 66.687582 
L 225.963968 66.624483 
L 225.963968 66.561385 
L 226.182329 66.561385 
L 226.182329 66.498287 
L 226.278385 66.37209 
L 226.387141 66.308991 
L 226.460567 66.056598 
L 226.549044 66.056598 
L 226.549044 65.993499 
L 226.549044 65.930401 
L 227.166249 65.867303 
L 227.236157 65.678007 
L 227.513504 65.614909 
L 227.566011 65.299417 
L 227.736793 65.236319 
L 227.798935 65.110122 
L 227.969041 65.047023 
L 228.055611 64.668433 
L 228.312662 64.605335 
L 228.414575 64.352941 
L 228.659063 64.289843 
L 228.754992 64.100548 
L 228.86412 64.037449 
L 228.937816 63.785056 
L 229.173981 63.721957 
L 229.254387 63.21717 
L 229.379678 63.21717 
L 229.379678 63.154072 
L 229.379678 63.090973 
L 229.70721 63.027875 
L 229.791723 62.712383 
L 229.959703 62.649285 
L 230.051673 62.523088 
L 230.098879 62.523088 
L 230.098879 62.459989 
L 230.098879 62.396891 
L 230.301309 62.333793 
L 230.317296 62.144497 
L 230.468601 62.081399 
L 230.468601 62.018301 
L 230.684435 62.018301 
L 230.684435 61.955202 
L 230.729651 61.702809 
L 230.939372 61.63971 
L 230.990178 61.387317 
L 231.249386 61.324218 
L 231.333974 61.008726 
L 231.670272 60.945628 
L 231.751074 60.756333 
L 231.933554 60.756333 
L 231.933554 60.693234 
L 231.939378 60.314644 
L 232.068154 60.251546 
L 232.068154 60.125349 
L 232.424001 60.06225 
L 232.468741 59.872955 
L 232.585543 59.872955 
L 232.585543 59.809857 
L 232.687051 59.620562 
L 232.857051 59.557463 
L 232.935362 59.30507 
L 233.629057 59.241971 
L 233.73663 58.926479 
L 233.773653 58.926479 
L 233.773653 58.863381 
L 233.860077 58.674086 
L 234.195525 58.610987 
L 234.195525 58.484791 
L 234.576331 58.421692 
L 234.659385 58.169299 
L 234.790621 58.1062 
L 234.835121 57.790708 
L 234.93791 57.790708 
L 234.93791 57.72761 
L 234.943167 57.601413 
L 235.210842 57.538315 
L 235.310771 57.222823 
L 235.48087 57.222823 
L 235.48087 57.159724 
L 235.48087 56.970429 
L 235.639184 56.970429 
L 235.639184 56.907331 
L 235.639184 56.844232 
L 236.0017 56.781134 
L 236.019836 56.654937 
L 236.168486 56.591839 
L 236.168486 56.465642 
L 236.50201 56.402544 
L 236.50201 56.339445 
L 236.618017 56.339445 
L 236.618017 56.276347 
L 236.680087 56.023953 
L 236.976233 55.960855 
L 236.976233 55.834658 
L 237.186911 55.834658 
L 237.186911 55.77156 
L 237.277884 55.645363 
L 237.323488 55.582265 
L 237.323488 55.456068 
L 237.542594 55.456068 
L 237.542594 55.392969 
L 237.542594 55.329871 
L 237.813465 55.329871 
L 237.813465 55.266773 
L 237.863769 55.140576 
L 238.053327 55.140576 
L 238.053327 55.077477 
L 238.106627 54.951281 
L 238.203492 54.951281 
L 238.203492 54.888182 
L 238.203492 54.825084 
L 238.384422 54.761986 
L 238.435305 54.57269 
L 239.051067 54.509592 
L 239.051067 54.446494 
L 239.203392 54.446494 
L 239.203392 54.383395 
L 239.304838 54.067903 
L 239.456142 54.004805 
L 239.501987 53.752411 
L 239.624976 53.689313 
L 239.684425 53.500018 
L 239.855541 53.500018 
L 239.855541 53.436919 
L 239.903956 53.184526 
L 240.007037 53.121427 
L 240.007037 53.121427 
L 240.045862 52.932132 
L 240.288862 52.869034 
L 240.39114 52.61664 
L 240.554373 52.553542 
L 240.650609 52.364247 
L 241.014234 52.301148 
L 241.078951 52.111853 
L 241.518468 52.111853 
L 241.518468 52.048755 
L 241.577012 51.922558 
L 242.117463 51.859459 
L 242.154708 51.670164 
L 242.416 51.607066 
L 242.513007 50.029606 
L 242.763255 49.966508 
L 242.826493 49.777213 
L 243.314745 49.777213 
L 243.314745 49.714114 
L 243.314745 49.651016 
L 243.655416 49.651016 
L 243.655416 49.587917 
L 243.665119 49.398622 
L 243.899781 49.335524 
L 243.930875 49.209327 
L 244.178465 49.146229 
L 244.178465 48.830737 
L 244.341128 48.767638 
L 244.443861 48.515245 
L 244.711083 48.452146 
L 244.81322 48.262851 
L 244.887981 48.199753 
L 244.887981 48.136654 
L 245.14157 48.073556 
L 245.213743 47.947359 
L 245.605559 47.884261 
L 245.605559 47.758064 
L 245.954363 47.694966 
L 245.954363 47.631867 
L 246.23071 47.568769 
L 246.23071 47.50567 
L 246.428001 47.50567 
L 246.428001 47.442572 
L 246.428001 47.253277 
L 247.079273 47.190178 
L 247.079273 47.12708 
L 247.362201 47.063982 
L 247.362201 46.937785 
L 247.608767 46.874686 
L 247.608767 46.811588 
L 247.900051 46.811588 
L 247.900051 46.74849 
L 248.000469 46.622293 
L 248.109441 46.559194 
L 248.215627 46.243703 
L 248.29238 46.180604 
L 248.29238 46.054407 
L 248.475264 45.991309 
L 248.475264 45.928211 
L 248.659793 45.865112 
L 248.763577 45.675817 
L 249.088134 45.612719 
L 249.088134 45.54962 
L 249.446764 45.486522 
L 249.446764 45.423423 
L 249.851287 45.360325 
L 249.851287 45.297227 
L 250.043237 45.234128 
L 250.043237 45.107931 
L 250.209699 45.044833 
L 250.209699 44.981735 
L 250.442636 44.918636 
L 250.50601 44.792439 
L 250.642402 44.729341 
L 250.642402 44.666243 
L 250.928984 44.603144 
L 250.928984 44.540046 
L 251.821781 44.476948 
L 251.925119 44.098357 
L 252.130361 44.098357 
L 252.130361 44.035259 
L 252.130361 43.97216 
L 252.308402 43.97216 
L 252.308402 43.909062 
L 252.329671 43.782865 
L 252.601996 43.719767 
L 252.702508 43.59357 
L 252.851632 43.530472 
L 252.851632 43.467373 
L 253.265286 43.404275 
L 253.265286 43.341176 
L 254.593101 43.278078 
L 254.593101 43.025685 
L 254.992499 42.962586 
L 254.992499 42.836389 
L 255.415543 42.836389 
L 255.415543 42.773291 
L 255.415543 42.710193 
L 255.851609 42.647094 
L 255.851609 42.583996 
L 256.169474 42.520897 
L 256.169474 42.457799 
L 256.968812 42.394701 
L 257.076562 42.205405 
L 257.178475 42.142307 
L 257.178475 41.889913 
L 257.467787 41.826815 
L 257.577873 41.63752 
L 257.860471 41.574421 
L 257.86809 41.385126 
L 258.366224 41.322028 
L 258.366224 41.195831 
L 258.765622 41.132733 
L 258.765622 41.069634 
L 259.280026 41.006536 
L 259.383364 40.817241 
L 259.493552 40.817241 
L 259.493552 40.754142 
L 259.493552 40.627946 
L 259.876952 40.564847 
L 259.89295 40.312454 
L 260.552719 40.249355 
L 260.552719 40.186257 
L 260.723531 40.123158 
L 260.731392 39.996962 
L 261.126532 39.933863 
L 261.126532 39.870765 
L 261.650855 39.807666 
L 261.68931 39.68147 
L 262.272135 39.68147 
L 262.272135 39.618371 
L 262.272135 39.555273 
L 262.638835 39.492175 
L 262.638835 39.429076 
L 262.967007 39.429076 
L 262.967007 39.365978 
L 263.006439 39.239781 
L 263.792686 39.176683 
L 263.792686 39.113584 
L 264.403085 39.050486 
L 264.444674 38.734994 
L 264.802483 38.734994 
L 264.802483 38.671895 
L 264.802483 38.608797 
L 265.671775 38.545699 
L 265.780333 38.419502 
L 266.507066 38.419502 
L 266.507066 38.356403 
L 266.524261 38.230207 
L 267.134234 38.167108 
L 267.180249 38.040911 
L 268.027617 37.977813 
L 268.027617 37.914715 
L 268.465594 37.851616 
L 268.465594 37.788518 
L 268.819344 37.72542 
L 268.864493 37.536124 
L 269.370951 37.473026 
L 269.370951 37.409928 
L 269.842852 37.346829 
L 269.842852 37.220632 
L 270.521456 37.157534 
L 270.521456 37.094436 
L 271.738259 37.031337 
L 271.738259 36.968239 
L 272.478468 36.90514 
L 272.578427 36.715845 
L 272.840265 36.652747 
L 272.840265 36.589648 
L 273.947489 36.52655 
L 274.033342 36.337255 
L 275.272287 36.274157 
L 275.272287 36.211058 
L 275.843174 36.211058 
L 275.843174 36.14796 
L 275.933143 35.958665 
L 276.242572 35.958665 
L 276.242572 35.895566 
L 276.242572 35.832468 
L 276.354029 35.832468 
L 276.354029 35.769369 
L 276.354029 35.706271 
L 277.836836 35.643173 
L 277.931913 35.327681 
L 278.251433 35.264582 
L 278.251433 35.201484 
L 279.826029 35.138385 
L 279.826029 35.075287 
L 280.168075 35.012189 
L 280.168075 34.94909 
L 280.588961 34.94909 
L 280.588961 34.885992 
L 280.588961 34.822893 
L 281.289988 34.759795 
L 281.289988 34.696697 
L 282.16055 34.633598 
L 282.16055 34.5705 
L 283.722933 34.507402 
L 283.722933 34.444303 
L 284.122332 34.381205 
L 284.122332 34.318106 
L 284.947226 34.255008 
L 285.031537 34.128811 
L 285.549055 34.065713 
L 285.549055 32.362056 
L 288.458478 32.298958 
L 288.458478 32.235859 
L 289.347383 32.172761 
L 289.347383 32.109663 
L 290.336359 32.046564 
L 290.336359 31.983466 
L 292.929862 31.920367 
L 292.929862 31.857269 
L 293.293905 31.794171 
L 293.367443 31.667974 
L 295.363545 31.604875 
L 295.363545 31.541777 
L 297.253576 31.478679 
L 297.319334 31.352482 
L 298.932692 31.289384 
L 298.932692 31.226285 
L 299.270681 31.226285 
L 299.270681 31.163187 
L 299.270681 29.711924 
L 300.535933 29.648825 
L 300.535933 29.585727 
L 300.851007 29.522629 
L 300.851007 29.45953 
L 301.569421 29.396432 
L 301.569421 29.333333 
L 303.492941 29.270235 
L 303.492941 29.207137 
L 304.098763 29.144038 
L 304.098763 29.08094 
L 307.68245 29.017841 
L 307.68245 27.692775 
L 308.600826 27.629677 
L 308.600826 27.566578 
L 313.765619 27.50348 
L 313.765619 26.430807 
L 315.921403 26.367709 
L 315.921403 26.30461 
L 318.533779 26.241512 
L 318.533779 25.736725 
L 322.455626 25.673627 
L 322.455626 24.537856 
L 323.352207 24.474757 
L 323.352207 24.411659 
L 325.786782 24.34856 
L 325.786782 23.465183 
L 326.88388 23.402084 
L 326.88388 23.338986 
L 333.537652 23.338986 
L 333.537652 23.275888 
L 333.537652 21.950821 
L 337.518347 21.950821 
L 337.518347 21.887723 
L 337.518347 21.824625 
L 346.404442 21.824625 
L 346.404442 21.761526 
L 346.404442 21.698428 
L 348.719519 21.698428 
L 348.719519 21.635329 
L 348.719519 21.509133 
L 351.793576 21.509133 
L 351.793576 21.446034 
L 351.793576 21.193641 
L 356.125362 21.193641 
L 356.125362 21.130542 
L 356.125362 21.067444 
L 357.645913 21.067444 
L 357.645913 21.004346 
L 357.645913 20.81505 
L 359.747423 20.81505 
L 359.747423 20.751952 
L 359.747423 20.625755 
L 362.859911 20.625755 
L 362.859911 20.562657 
L 362.859911 20.43646 
L 365.069141 20.43646 
L 365.069141 20.373362 
L 365.069141 20.247165 
L 367.078002 20.184066 
L 367.078002 19.237591 
L 370.207257 19.174492 
L 370.207257 19.048295 
L 372.9489 19.048295 
L 372.9489 18.985197 
L 372.9489 18.859 
L 387.147133 18.795902 
L 387.147133 18.732803 
L 390.054344 18.732803 
L 390.054344 18.669705 
L 390.054344 18.543508 
L 392.925332 18.543508 
L 392.925332 18.48041 
L 392.925332 18.354213 
L 397.746513 18.354213 
L 397.746513 18.291115 
L 397.746513 17.407737 
L 398.222793 17.407737 
L 398.222793 17.344639 
L 398.222793 16.461261 
L 399.032424 16.461261 
L 399.032424 16.398163 
L 399.032424 15.514785 
L 405.14737 15.514785 
L 405.14737 15.451687 
L 405.14737 15.32549 
L 407.593132 15.32549 
L 407.593132 15.262392 
L 407.593132 14.379014 
L 412.178775 14.379014 
L 412.178775 14.315916 
L 412.178775 14.189719 
L 414.837158 14.189719 
L 414.837158 14.126621 
L 414.837158 13.243243 
L 415.168687 13.243243 
L 415.168687 13.180145 
L 415.168687 12.296767 
L 415.710449 12.296767 
L 415.710449 12.233669 
L 415.710449 12.107472 
L 417.754061 12.107472 
L 417.754061 12.044374 
L 417.754061 11.160996 
L 417.94843 11.160996 
L 417.94843 11.097898 
L 417.94843 10.21452 
L 421.597946 10.21452 
L 421.597946 10.151422 
L 421.597946 9.268045 
L 434.394601 9.268045 
L 434.394601 9.204946 
L 434.394601 8.321569 
L 450.672 8.321569 
L 450.672 8.321569 
" style="fill:none;stroke:#000000;stroke-linecap:square;stroke-width:3;"/>
   </g>
   <g id="line2d_20">
    <path clip-path="url(#p4ac9885a60)" style="fill:none;stroke:#000000;stroke-linecap:square;stroke-width:3;"/>
   </g>
   <g id="line2d_21">
    <path clip-path="url(#p4ac9885a60)" d="M 34.16 76.037208 
L 147.243692 76.037208 
L 147.243692 75.948691 
L 147.243692 74.709451 
L 147.524871 74.709451 
L 147.524871 74.620934 
L 147.524871 73.381693 
L 148.170877 73.381693 
L 148.170877 73.293176 
L 148.170877 72.053936 
L 150.150394 72.053936 
L 150.150394 71.965418 
L 150.150394 70.726178 
L 157.661795 70.726178 
L 157.661795 70.637661 
L 157.661795 69.39842 
L 158.769371 69.39842 
L 158.769371 69.309903 
L 158.769371 68.070663 
L 162.607996 68.070663 
L 162.607996 67.982145 
L 162.607996 66.742905 
L 169.854058 66.654388 
L 169.854058 66.565871 
L 171.971242 66.477353 
L 171.971242 66.388836 
L 173.185214 66.300319 
L 173.185214 66.211802 
L 175.302398 66.123285 
L 175.302398 66.034768 
L 176.080542 65.94625 
L 176.080542 65.857733 
L 177.339545 65.769216 
L 177.339545 65.680699 
L 177.521056 65.680699 
L 177.521056 65.592182 
L 177.521056 65.503664 
L 178.280936 65.415147 
L 178.280936 65.32663 
L 178.740333 65.238113 
L 178.740333 64.884044 
L 180.670701 64.795527 
L 180.758185 64.618493 
L 183.015671 64.529976 
L 183.015671 64.441458 
L 183.604224 64.352941 
L 183.604224 64.264424 
L 184.823502 64.175907 
L 184.823502 63.998872 
L 185.423499 63.910355 
L 185.423499 63.821838 
L 186.216059 63.733321 
L 186.307572 63.556287 
L 187.736645 63.467769 
L 187.736645 63.379252 
L 187.930199 63.379252 
L 187.930199 63.290735 
L 187.930199 63.202218 
L 188.290264 63.202218 
L 188.290264 63.113701 
L 188.372384 62.317046 
L 188.78482 62.228529 
L 188.78482 62.140012 
L 189.359272 62.140012 
L 189.359272 62.051495 
L 189.359272 61.962977 
L 189.591662 61.87446 
L 189.591662 60.458185 
L 190.407448 60.458185 
L 190.407448 60.369668 
L 190.501159 60.192634 
L 190.915078 60.192634 
L 190.915078 60.104117 
L 190.915078 60.0156 
L 192.187795 59.927082 
L 192.294231 59.573014 
L 192.54786 59.484496 
L 192.54786 59.395979 
L 193.513509 59.395979 
L 193.513509 59.307462 
L 193.616868 58.776359 
L 194.210442 58.687842 
L 194.210442 58.599325 
L 195.003002 58.510808 
L 195.003002 58.42229 
L 195.757886 58.333773 
L 195.775751 58.068222 
L 196.844665 57.979704 
L 196.844665 57.80267 
L 197.186959 57.714153 
L 197.186959 57.625636 
L 198.585112 57.537119 
L 198.585112 57.448601 
L 199.192008 57.360084 
L 199.192008 57.271567 
L 199.768674 57.18305 
L 199.768674 57.094533 
L 200.128739 57.006016 
L 200.128739 56.917498 
L 201.197747 56.828981 
L 201.197747 56.740464 
L 201.766407 56.651947 
L 201.766407 55.943809 
L 202.245923 55.855292 
L 202.245923 55.766775 
L 203.16373 55.678258 
L 203.16373 55.589741 
L 203.603438 55.501224 
L 203.603438 55.412706 
L 203.859704 55.412706 
L 203.859704 55.324189 
L 203.937041 55.147155 
L 204.104501 55.147155 
L 204.104501 55.058638 
L 204.104501 54.793086 
L 204.52274 54.704569 
L 204.592803 54.439017 
L 204.652264 54.439017 
L 204.652264 54.3505 
L 204.652264 54.261983 
L 205.407149 54.173466 
L 205.407149 54.084949 
L 205.604223 54.084949 
L 205.604223 53.996432 
L 205.688254 53.376811 
L 206.41429 53.288294 
L 206.41429 53.199777 
L 206.836222 53.11126 
L 206.836222 53.022743 
L 207.884398 52.934225 
L 207.954501 52.757191 
L 208.90986 52.668674 
L 209.01941 52.49164 
L 210.18767 52.49164 
L 210.18767 52.403122 
L 210.18767 52.314605 
L 211.009282 52.226088 
L 211.009282 52.137571 
L 211.687392 52.137571 
L 211.687392 52.049054 
L 211.782593 51.783502 
L 212.74421 51.694985 
L 212.74421 51.606468 
L 213.364369 51.517951 
L 213.364369 51.429433 
L 214.504498 51.340916 
L 214.504498 51.252399 
L 214.799674 51.163882 
L 214.799674 50.986848 
L 214.95583 50.986848 
L 214.95583 50.89833 
L 214.95583 49.570573 
L 215.374069 49.570573 
L 215.374069 49.482056 
L 215.37513 48.773918 
L 215.69818 48.685401 
L 215.69818 48.596884 
L 216.455552 48.596884 
L 216.455552 48.508367 
L 216.49074 47.092092 
L 218.154077 47.003575 
L 218.154077 46.915057 
L 218.877677 46.82654 
L 218.877677 46.295437 
L 219.232865 46.20692 
L 219.295916 45.764334 
L 219.631068 45.675817 
L 219.713267 45.498783 
L 219.885795 45.410265 
L 219.885795 45.321748 
L 220.209542 45.233231 
L 220.257884 44.96768 
L 220.377399 44.96768 
L 220.377399 44.879162 
L 220.406634 44.348059 
L 220.853396 44.259542 
L 220.853396 44.171025 
L 221.349671 44.082508 
L 221.349671 43.905473 
L 222.129214 43.816956 
L 222.220302 43.37437 
L 223.595538 43.285853 
L 223.612424 43.108819 
L 223.708555 43.108819 
L 223.708555 43.020302 
L 223.708555 42.931785 
L 224.642733 42.843267 
L 224.642733 42.75475 
L 225.040935 42.666233 
L 225.040935 42.577716 
L 225.782862 42.489199 
L 225.845788 42.223647 
L 226.653493 42.13513 
L 226.653493 42.046613 
L 226.956631 41.958096 
L 227.051696 41.692544 
L 227.483407 41.604027 
L 227.483407 41.51551 
L 228.223573 41.426993 
L 228.223573 41.338475 
L 229.090107 41.249958 
L 229.090107 41.161441 
L 230.727726 41.072924 
L 230.727726 40.984407 
L 230.983652 40.895889 
L 231.016166 40.718855 
L 231.452058 40.630338 
L 231.452058 40.541821 
L 232.042122 40.453304 
L 232.098272 40.187752 
L 232.36724 40.099235 
L 232.36724 40.010718 
L 233.217016 39.922201 
L 233.217016 39.833683 
L 233.645365 39.745166 
L 233.645365 39.656649 
L 234.361538 39.568132 
L 234.378 39.391097 
L 235.019779 39.30258 
L 235.019779 39.214063 
L 235.342591 39.214063 
L 235.342591 39.125546 
L 235.342591 39.037029 
L 236.567394 38.948512 
L 236.567394 38.859994 
L 237.419668 38.771477 
L 237.504624 38.505926 
L 237.9182 38.417409 
L 237.9182 38.328891 
L 238.461677 38.240374 
L 238.461677 38.151857 
L 239.146688 38.06334 
L 239.154559 37.886305 
L 239.469499 37.886305 
L 239.469499 37.797788 
L 239.469499 37.709271 
L 240.525777 37.620754 
L 240.525777 37.532237 
L 240.911534 37.44372 
L 241.016593 37.178168 
L 241.533947 37.089651 
L 241.60641 36.912617 
L 241.782166 36.824099 
L 241.782166 36.735582 
L 243.328068 36.647065 
L 243.349782 36.470031 
L 244.269896 36.381513 
L 244.269896 36.292996 
L 245.099404 36.204479 
L 245.099404 36.115962 
L 245.596915 36.027445 
L 245.596915 35.938928 
L 245.773077 35.85041 
L 245.832905 35.673376 
L 246.510123 35.584859 
L 246.510123 35.496342 
L 247.831194 35.407825 
L 247.831194 35.319307 
L 248.56824 35.23079 
L 248.56824 35.142273 
L 248.94551 35.053756 
L 249.014859 34.876721 
L 252.968143 34.788204 
L 252.968143 34.699687 
L 255.390733 34.61117 
L 255.390733 34.522653 
L 256.860138 34.434136 
L 256.860138 34.345618 
L 258.855148 34.257101 
L 258.855148 34.168584 
L 259.714807 34.080067 
L 259.714807 33.99155 
L 260.207271 33.903033 
L 260.207271 33.814515 
L 260.506069 33.725998 
L 260.506069 33.637481 
L 261.197209 33.548964 
L 261.197209 33.460447 
L 261.934254 33.371929 
L 261.934254 33.283412 
L 263.650528 33.194895 
L 263.650528 33.106378 
L 265.322607 33.017861 
L 265.322607 32.929344 
L 267.186709 32.840826 
L 267.186709 32.752309 
L 269.029387 32.663792 
L 269.029387 32.575275 
L 272.719325 32.486758 
L 272.719325 32.398241 
L 274.637681 32.309723 
L 274.637681 32.221206 
L 277.834662 32.132689 
L 277.834662 32.044172 
L 278.616218 31.955655 
L 278.616218 31.867138 
L 279.753017 31.77862 
L 279.753017 31.690103 
L 280.552723 31.601586 
L 280.552723 31.513069 
L 281.048998 31.424552 
L 281.048998 31.336034 
L 281.874804 31.247517 
L 281.874804 31.159 
L 283.731554 31.070483 
L 283.731554 30.981966 
L 286.50023 30.893449 
L 286.50023 30.804931 
L 287.237275 30.716414 
L 287.237275 30.627897 
L 288.465577 30.53938 
L 288.465577 30.450863 
L 291.568587 30.362346 
L 291.568587 30.273828 
L 296.683923 30.185311 
L 296.683923 30.096794 
L 298.533636 30.008277 
L 298.533636 29.91976 
L 299.270681 29.831242 
L 299.270681 29.742725 
L 301.329979 29.654208 
L 301.329979 29.565691 
L 305.19664 29.477174 
L 305.19664 29.388657 
L 307.210097 29.300139 
L 307.210097 29.211622 
L 312.961546 29.123105 
L 312.961546 29.034588 
L 317.88915 28.946071 
L 317.88915 28.857554 
L 322.030343 28.769036 
L 322.030343 28.680519 
L 327.927235 28.592002 
L 327.927235 28.503485 
L 331.185822 28.414968 
L 331.185822 28.32645 
L 373.920491 28.237933 
L 373.920491 28.149416 
L 375.955498 28.060899 
L 375.955498 27.883865 
L 376.824864 27.795347 
L 376.824864 27.618313 
L 378.673102 27.529796 
L 378.673102 27.441279 
L 380.168005 27.441279 
L 380.168005 27.352762 
L 380.168005 27.264244 
L 388.89929 27.175727 
L 388.89929 26.998693 
L 450.672 26.910176 
L 450.672 26.910176 
" style="fill:none;stroke:#00bfbf;stroke-linecap:square;stroke-width:3;"/>
   </g>
   <g id="line2d_22">
    <path clip-path="url(#p4ac9885a60)" style="fill:none;stroke:#00bfbf;stroke-linecap:square;stroke-width:3;"/>
   </g>
   <g id="line2d_23">
    <path clip-path="url(#p4ac9885a60)" d="M 34.16 39.783034 
L 146.420942 39.783034 
L 146.420942 39.683157 
L 146.420942 38.284869 
L 147.501303 38.284869 
L 147.501303 38.184992 
L 147.501303 36.786704 
L 148.122374 36.786704 
L 148.122374 36.686827 
L 148.122374 35.288539 
L 148.761349 35.288539 
L 148.761349 35.188662 
L 148.761349 33.790374 
L 177.521056 33.790374 
L 177.521056 33.690497 
L 177.521056 33.590619 
L 178.740333 33.590619 
L 178.740333 33.490741 
L 178.740333 33.191108 
L 184.823502 33.091231 
L 184.823502 32.891475 
L 188.372384 32.891475 
L 188.372384 32.791598 
L 188.372384 32.092454 
L 189.591662 32.092454 
L 189.591662 31.992576 
L 189.591662 30.494411 
L 190.915078 30.494411 
L 190.915078 30.394534 
L 190.915078 30.294656 
L 192.294231 30.294656 
L 192.294231 30.194778 
L 192.294231 29.995023 
L 193.513509 29.995023 
L 193.513509 29.895145 
L 193.513509 29.395757 
L 196.844665 29.295879 
L 196.844665 29.096124 
L 198.487877 28.996246 
L 198.487877 28.796491 
L 198.695576 28.796491 
L 198.695576 28.696613 
L 198.695576 28.596736 
L 199.465947 28.596736 
L 199.465947 28.496858 
L 199.465947 28.39698 
L 199.673647 28.39698 
L 199.673647 28.297103 
L 199.673647 28.197225 
L 201.766407 28.197225 
L 201.766407 28.097347 
L 201.766407 27.398203 
L 204.104501 27.398203 
L 204.104501 27.298326 
L 204.104501 26.998693 
L 204.52274 26.998693 
L 204.52274 26.898815 
L 204.571045 26.599182 
L 204.778745 26.599182 
L 204.778745 26.499304 
L 204.778745 26.399427 
L 205.525984 26.299549 
L 205.604223 25.800161 
L 205.688254 25.800161 
L 205.688254 25.700283 
L 205.688254 25.500528 
L 208.078239 25.500528 
L 208.078239 25.40065 
L 208.078239 25.300772 
L 208.285939 25.300772 
L 208.285939 25.200895 
L 208.285939 25.101017 
L 210.18767 25.001139 
L 210.18767 24.801384 
L 211.66441 24.701506 
L 211.687392 24.401873 
L 213.261052 24.301996 
L 213.261052 24.202118 
L 214.750374 24.10224 
L 214.750374 24.002363 
L 214.95583 24.002363 
L 214.95583 23.902485 
L 214.958074 22.304442 
L 215.374069 22.204565 
L 215.374069 22.204565 
L 215.431198 21.405543 
L 215.898116 21.305666 
L 215.898116 21.205788 
L 216.455552 21.205788 
L 216.455552 21.10591 
L 216.455552 19.607745 
L 217.02971 19.607745 
L 217.02971 19.507868 
L 217.02971 19.40799 
L 217.237409 19.40799 
L 217.237409 19.308112 
L 217.251916 19.108357 
L 218.762354 19.008479 
L 218.762354 18.908602 
L 218.877677 18.908602 
L 218.877677 18.808724 
L 218.877677 18.309336 
L 219.295916 18.209458 
L 219.295916 17.909825 
L 220.049774 17.909825 
L 220.049774 17.809947 
L 220.049774 17.71007 
L 220.377399 17.71007 
L 220.377399 17.610192 
L 220.377399 17.110804 
L 221.020574 17.010926 
L 221.020574 16.911048 
L 221.775829 16.811171 
L 221.870493 16.511538 
L 222.208833 16.511538 
L 222.208833 16.41166 
L 222.208833 16.311782 
L 222.625748 16.311782 
L 222.625748 16.211905 
L 222.627072 16.012149 
L 223.708555 16.012149 
L 223.708555 15.912272 
L 223.708555 15.812394 
L 224.744447 15.712516 
L 224.744447 15.612638 
L 225.230977 15.512761 
L 225.230977 15.412883 
L 226.229333 15.313005 
L 226.229333 15.213128 
L 226.7192 15.11325 
L 226.7192 15.013372 
L 227.474455 14.913495 
L 227.474455 14.813617 
L 227.939499 14.713739 
L 227.939499 14.613862 
L 228.781175 14.513984 
L 228.781175 14.414106 
L 229.699037 14.314229 
L 229.699037 14.214351 
L 230.266061 14.114473 
L 230.266061 14.014596 
L 231.008433 13.914718 
L 231.008433 13.81484 
L 232.275011 13.714963 
L 232.275011 13.615085 
L 233.584408 13.515207 
L 233.584408 13.41533 
L 237.752974 13.315452 
L 237.752974 13.215574 
L 239.205018 13.115697 
L 239.205018 13.015819 
L 239.573693 12.915941 
L 239.573693 12.816064 
L 240.328948 12.716186 
L 240.328948 12.616308 
L 241.05794 12.516431 
L 241.05794 12.416553 
L 242.878659 12.316675 
L 242.878659 12.216798 
L 243.358321 12.11692 
L 243.358321 12.017042 
L 243.965581 11.917165 
L 243.965581 11.817287 
L 245.17904 11.717409 
L 245.17904 11.617532 
L 246.796866 11.517654 
L 246.796866 11.417776 
L 249.060944 11.317899 
L 249.060944 11.218021 
L 250.833594 11.118143 
L 250.833594 11.018266 
L 257.837893 10.918388 
L 257.837893 10.81851 
L 259.690731 10.718633 
L 259.690731 10.618755 
L 261.032945 10.518877 
L 261.032945 10.419 
L 261.874621 10.319122 
L 261.978718 10.119367 
L 262.885783 10.019489 
L 262.885783 9.919611 
L 278.100034 9.819734 
L 278.100034 9.719856 
L 282.136762 9.619978 
L 282.136762 9.520101 
L 283.929431 9.420223 
L 283.929431 9.320345 
L 286.987768 9.220468 
L 286.987768 9.12059 
L 287.966159 9.020712 
L 287.966159 8.920835 
L 294.660365 8.820957 
L 294.660365 8.721079 
L 297.855417 8.621202 
L 297.855417 8.521324 
L 298.697093 8.421446 
L 298.697093 8.321569 
L 450.672 8.321569 
L 450.672 8.321569 
" style="fill:none;stroke:#bf00bf;stroke-linecap:square;stroke-width:3;"/>
   </g>
   <g id="line2d_24">
    <path clip-path="url(#p4ac9885a60)" style="fill:none;stroke:#bf00bf;stroke-linecap:square;stroke-width:3;"/>
   </g>
   <g id="line2d_25">
    <path clip-path="url(#p4ac9885a60)" d="M 34.16 36.337255 
L 146.943053 36.337255 
L 146.943053 34.182202 
L 177.521056 34.182202 
L 177.521056 33.894862 
L 178.740333 33.894862 
L 178.740333 33.320181 
L 183.604224 33.320181 
L 183.604224 33.176511 
L 184.823502 33.176511 
L 184.823502 32.88917 
L 188.372384 32.88917 
L 188.372384 31.739809 
L 189.591662 31.739809 
L 189.591662 29.441086 
L 190.915078 29.441086 
L 190.915078 29.153746 
L 192.294231 29.153746 
L 192.294231 28.722735 
L 193.513509 28.722735 
L 193.513509 27.860714 
L 195.625388 27.860714 
L 195.625388 27.717044 
L 196.844665 27.717044 
L 196.844665 27.429703 
L 196.998247 27.429703 
L 196.998247 27.286033 
L 201.766407 27.286033 
L 201.766407 26.136672 
L 204.104501 26.136672 
L 204.104501 25.561991 
L 204.52274 25.561991 
L 204.52274 25.274651 
L 205.604223 25.274651 
L 205.688254 24.268959 
L 209.01941 24.268959 
L 209.01941 24.125289 
L 210.18767 24.125289 
L 210.18767 23.837949 
L 210.605909 23.837949 
L 210.605909 23.694279 
L 211.687392 23.694279 
L 211.687392 23.406938 
L 214.95583 23.406938 
L 214.95583 21.108215 
L 215.374069 21.108215 
L 215.374069 19.958854 
L 216.455552 19.958854 
L 216.455552 17.660131 
L 217.42087 17.660131 
L 217.42087 17.516461 
L 218.877677 17.516461 
L 218.877677 16.654439 
L 219.295916 16.654439 
L 219.295916 16.223429 
L 220.075121 16.223429 
L 220.075121 16.079759 
L 220.377399 16.079759 
L 220.377399 15.217738 
L 220.893651 15.217738 
L 220.893651 15.074067 
L 221.291854 15.074067 
L 221.291854 14.786727 
L 222.208833 14.786727 
L 222.208833 14.499387 
L 222.627072 14.499387 
L 222.627072 14.355716 
L 223.708555 14.355716 
L 223.708555 14.068376 
L 224.923828 14.068376 
L 224.923828 13.924706 
L 225.906718 13.924706 
L 225.906718 13.637366 
L 229.178171 13.637366 
L 229.178171 13.493695 
L 230.392819 13.493695 
L 230.392819 13.350025 
L 230.519266 13.350025 
L 230.519266 13.206355 
L 231.451618 13.206355 
L 231.451618 13.062685 
L 232.02831 13.062685 
L 232.02831 12.919015 
L 233.314689 12.919015 
L 233.314689 12.775344 
L 234.373488 12.775344 
L 234.373488 12.631674 
L 238.516231 12.631674 
L 238.516231 12.488004 
L 239.922209 12.488004 
L 239.922209 12.344334 
L 241.436412 12.344334 
L 241.436412 12.200664 
L 241.562859 12.200664 
L 241.562859 12.056993 
L 242.495212 12.056993 
L 242.495212 11.913323 
L 243.816424 11.913323 
L 243.816424 11.769653 
L 250.096481 11.769653 
L 250.096481 11.625983 
L 251.15528 11.625983 
L 251.15528 11.482313 
L 252.526215 11.482313 
L 252.526215 11.338643 
L 253.585014 11.338643 
L 253.585014 11.194972 
L 260.360241 11.194972 
L 260.360241 11.051302 
L 261.218813 11.051302 
L 261.218813 10.907632 
L 261.41904 10.907632 
L 261.41904 10.763962 
L 262.277612 10.763962 
L 262.355241 10.332951 
L 262.477988 10.332951 
L 262.477988 10.189281 
L 263.352411 10.189281 
L 263.41404 9.901941 
L 263.536787 9.901941 
L 263.536787 9.75827 
L 280.650535 9.75827 
L 280.650535 9.6146 
L 281.709334 9.6146 
L 281.709334 9.47093 
L 285.389977 9.47093 
L 285.389977 9.32726 
L 286.448776 9.32726 
L 286.448776 9.18359 
L 286.86381 9.18359 
L 286.86381 9.03992 
L 287.922609 9.03992 
L 287.922609 8.896249 
L 296.923833 8.896249 
L 296.923833 8.752579 
L 297.982632 8.752579 
L 297.982632 8.608909 
L 300.368139 8.608909 
L 300.368139 8.465239 
L 301.426938 8.465239 
L 301.426938 8.321569 
L 450.672 8.321569 
L 450.672 8.321569 
" style="fill:none;stroke:#ff0000;stroke-linecap:square;stroke-width:3;"/>
   </g>
   <g id="line2d_26">
    <path clip-path="url(#p4ac9885a60)" style="fill:none;stroke:#ff0000;stroke-linecap:square;stroke-width:3;"/>
   </g>
   <g id="line2d_27">
    <path clip-path="url(#p4ac9885a60)" d="M 242.416 291.28 
L 242.416 5.52 
" style="fill:none;stroke:#000000;stroke-linecap:square;stroke-width:1.5;"/>
   </g>
   <g id="line2d_28">
    <path clip-path="url(#p4ac9885a60)" d="M 34.16 148.4 
L 450.672 148.4 
" style="fill:none;stroke:#000000;stroke-dasharray:2,3.3;stroke-dashoffset:0;stroke-width:2;"/>
   </g>
   <g id="patch_3">
    <path d="M 34.16 291.28 
L 34.16 5.52 
" style="fill:none;stroke:#000000;stroke-linecap:square;stroke-linejoin:miter;stroke-width:0.8;"/>
   </g>
   <g id="patch_4">
    <path d="M 450.672 291.28 
L 450.672 5.52 
" style="fill:none;stroke:#000000;stroke-linecap:square;stroke-linejoin:miter;stroke-width:0.8;"/>
   </g>
   <g id="patch_5">
    <path d="M 34.16 291.28 
L 450.672 291.28 
" style="fill:none;stroke:#000000;stroke-linecap:square;stroke-linejoin:miter;stroke-width:0.8;"/>
   </g>
   <g id="patch_6">
    <path d="M 34.16 5.52 
L 450.672 5.52 
" style="fill:none;stroke:#000000;stroke-linecap:square;stroke-linejoin:miter;stroke-width:0.8;"/>
   </g>
   <g id="text_7">
    <!-- f1-f24,5-D -->
    <defs>
     <path d="M 19.1875 8.296875 
L 53.609375 8.296875 
L 53.609375 0 
L 7.328125 0 
L 7.328125 8.296875 
Q 12.9375 14.109375 22.625 23.890625 
Q 32.328125 33.6875 34.8125 36.53125 
Q 39.546875 41.84375 41.421875 45.53125 
Q 43.3125 49.21875 43.3125 52.78125 
Q 43.3125 58.59375 39.234375 62.25 
Q 35.15625 65.921875 28.609375 65.921875 
Q 23.96875 65.921875 18.8125 64.3125 
Q 13.671875 62.703125 7.8125 59.421875 
L 7.8125 69.390625 
Q 13.765625 71.78125 18.9375 73 
Q 24.125 74.21875 28.421875 74.21875 
Q 39.75 74.21875 46.484375 68.546875 
Q 53.21875 62.890625 53.21875 53.421875 
Q 53.21875 48.921875 51.53125 44.890625 
Q 49.859375 40.875 45.40625 35.40625 
Q 44.1875 33.984375 37.640625 27.21875 
Q 31.109375 20.453125 19.1875 8.296875 
z
" id="DejaVuSans-32"/>
     <path d="M 37.796875 64.3125 
L 12.890625 25.390625 
L 37.796875 25.390625 
z
M 35.203125 72.90625 
L 47.609375 72.90625 
L 47.609375 25.390625 
L 58.015625 25.390625 
L 58.015625 17.1875 
L 47.609375 17.1875 
L 47.609375 0 
L 37.796875 0 
L 37.796875 17.1875 
L 4.890625 17.1875 
L 4.890625 26.703125 
z
" id="DejaVuSans-34"/>
     <path d="M 11.71875 12.40625 
L 22.015625 12.40625 
L 22.015625 4 
L 14.015625 -11.625 
L 7.71875 -11.625 
L 11.71875 4 
z
" id="DejaVuSans-2c"/>
     <path d="M 10.796875 72.90625 
L 49.515625 72.90625 
L 49.515625 64.59375 
L 19.828125 64.59375 
L 19.828125 46.734375 
Q 21.96875 47.46875 24.109375 47.828125 
Q 26.265625 48.1875 28.421875 48.1875 
Q 40.625 48.1875 47.75 41.5 
Q 54.890625 34.8125 54.890625 23.390625 
Q 54.890625 11.625 47.5625 5.09375 
Q 40.234375 -1.421875 26.90625 -1.421875 
Q 22.3125 -1.421875 17.546875 -0.640625 
Q 12.796875 0.140625 7.71875 1.703125 
L 7.71875 11.625 
Q 12.109375 9.234375 16.796875 8.0625 
Q 21.484375 6.890625 26.703125 6.890625 
Q 35.15625 6.890625 40.078125 11.328125 
Q 45.015625 15.765625 45.015625 23.390625 
Q 45.015625 31 40.078125 35.4375 
Q 35.15625 39.890625 26.703125 39.890625 
Q 22.75 39.890625 18.8125 39.015625 
Q 14.890625 38.140625 10.796875 36.28125 
z
" id="DejaVuSans-35"/>
     <path d="M 19.671875 64.796875 
L 19.671875 8.109375 
L 31.59375 8.109375 
Q 46.6875 8.109375 53.6875 14.9375 
Q 60.6875 21.78125 60.6875 36.53125 
Q 60.6875 51.171875 53.6875 57.984375 
Q 46.6875 64.796875 31.59375 64.796875 
z
M 9.8125 72.90625 
L 30.078125 72.90625 
Q 51.265625 72.90625 61.171875 64.09375 
Q 71.09375 55.28125 71.09375 36.53125 
Q 71.09375 17.671875 61.125 8.828125 
Q 51.171875 0 30.078125 0 
L 9.8125 0 
z
" id="DejaVuSans-44"/>
    </defs>
    <g transform="translate(341.17301 285.5648)scale(0.2 -0.2)">
     <use xlink:href="#DejaVuSans-66"/>
     <use x="35.205078" xlink:href="#DejaVuSans-31"/>
     <use x="98.828125" xlink:href="#DejaVuSans-2d"/>
     <use x="134.912109" xlink:href="#DejaVuSans-66"/>
     <use x="170.117188" xlink:href="#DejaVuSans-32"/>
     <use x="233.740234" xlink:href="#DejaVuSans-34"/>
     <use x="297.363281" xlink:href="#DejaVuSans-2c"/>
     <use x="329.150391" xlink:href="#DejaVuSans-35"/>
     <use x="392.773438" xlink:href="#DejaVuSans-2d"/>
     <use x="428.857422" xlink:href="#DejaVuSans-44"/>
    </g>
   </g>
   <g id="text_8">
    <!-- v0.0.0 -->
    <defs>
     <path d="M 10.6875 12.40625 
L 21 12.40625 
L 21 0 
L 10.6875 0 
z
" id="DejaVuSans-2e"/>
    </defs>
    <g style="fill:#808080;" transform="translate(226.73475 286.342713)scale(0.1 -0.1)">
     <use xlink:href="#DejaVuSans-76"/>
     <use x="59.179688" xlink:href="#DejaVuSans-30"/>
     <use x="122.802734" xlink:href="#DejaVuSans-2e"/>
     <use x="154.589844" xlink:href="#DejaVuSans-30"/>
     <use x="218.212891" xlink:href="#DejaVuSans-2e"/>
     <use x="250" xlink:href="#DejaVuSans-30"/>
    </g>
   </g>
   <g id="legend_1">
    <g id="patch_7">
     <path d="M 48.16 281.28 
L 195.61625 281.28 
Q 199.61625 281.28 199.61625 277.28 
L 199.61625 161.855 
Q 199.61625 157.855 195.61625 157.855 
L 48.16 157.855 
Q 44.16 157.855 44.16 161.855 
L 44.16 277.28 
Q 44.16 281.28 48.16 281.28 
z
" style="fill:#ffffff;opacity:0.2;stroke:#cccccc;stroke-linejoin:miter;"/>
    </g>
    <g id="line2d_29">
     <path d="M 52.16 174.051875 
L 92.16 174.051875 
" style="fill:none;stroke:#000000;stroke-linecap:square;stroke-width:3;"/>
    </g>
    <g id="line2d_30"/>
    <g id="text_9">
     <!-- 1: 23/16 -->
     <defs>
      <path d="M 11.71875 12.40625 
L 22.015625 12.40625 
L 22.015625 0 
L 11.71875 0 
z
M 11.71875 51.703125 
L 22.015625 51.703125 
L 22.015625 39.3125 
L 11.71875 39.3125 
z
" id="DejaVuSans-3a"/>
      <path d="M 25.390625 72.90625 
L 33.6875 72.90625 
L 8.296875 -9.28125 
L 0 -9.28125 
z
" id="DejaVuSans-2f"/>
      <path d="M 33.015625 40.375 
Q 26.375 40.375 22.484375 35.828125 
Q 18.609375 31.296875 18.609375 23.390625 
Q 18.609375 15.53125 22.484375 10.953125 
Q 26.375 6.390625 33.015625 6.390625 
Q 39.65625 6.390625 43.53125 10.953125 
Q 47.40625 15.53125 47.40625 23.390625 
Q 47.40625 31.296875 43.53125 35.828125 
Q 39.65625 40.375 33.015625 40.375 
z
M 52.59375 71.296875 
L 52.59375 62.3125 
Q 48.875 64.0625 45.09375 64.984375 
Q 41.3125 65.921875 37.59375 65.921875 
Q 27.828125 65.921875 22.671875 59.328125 
Q 17.53125 52.734375 16.796875 39.40625 
Q 19.671875 43.65625 24.015625 45.921875 
Q 28.375 48.1875 33.59375 48.1875 
Q 44.578125 48.1875 50.953125 41.515625 
Q 57.328125 34.859375 57.328125 23.390625 
Q 57.328125 12.15625 50.6875 5.359375 
Q 44.046875 -1.421875 33.015625 -1.421875 
Q 20.359375 -1.421875 13.671875 8.265625 
Q 6.984375 17.96875 6.984375 36.375 
Q 6.984375 53.65625 15.1875 63.9375 
Q 23.390625 74.21875 37.203125 74.21875 
Q 40.921875 74.21875 44.703125 73.484375 
Q 48.484375 72.75 52.59375 71.296875 
z
" id="DejaVuSans-36"/>
     </defs>
     <g transform="translate(108.16 181.051875)scale(0.2 -0.2)">
      <use xlink:href="#DejaVuSans-31"/>
      <use x="63.623047" xlink:href="#DejaVuSans-3a"/>
      <use x="97.314453" xlink:href="#DejaVuSans-20"/>
      <use x="129.101562" xlink:href="#DejaVuSans-32"/>
      <use x="192.724609" xlink:href="#DejaVuSans-33"/>
      <use x="256.347656" xlink:href="#DejaVuSans-2f"/>
      <use x="290.039062" xlink:href="#DejaVuSans-31"/>
      <use x="353.662109" xlink:href="#DejaVuSans-36"/>
     </g>
    </g>
    <g id="line2d_31">
     <path d="M 52.16 203.408125 
L 92.16 203.408125 
" style="fill:none;stroke:#00bfbf;stroke-linecap:square;stroke-width:3;"/>
    </g>
    <g id="line2d_32"/>
    <g id="text_10">
     <!-- -1: 15/8 -->
     <defs>
      <path d="M 31.78125 34.625 
Q 24.75 34.625 20.71875 30.859375 
Q 16.703125 27.09375 16.703125 20.515625 
Q 16.703125 13.921875 20.71875 10.15625 
Q 24.75 6.390625 31.78125 6.390625 
Q 38.8125 6.390625 42.859375 10.171875 
Q 46.921875 13.96875 46.921875 20.515625 
Q 46.921875 27.09375 42.890625 30.859375 
Q 38.875 34.625 31.78125 34.625 
z
M 21.921875 38.8125 
Q 15.578125 40.375 12.03125 44.71875 
Q 8.5 49.078125 8.5 55.328125 
Q 8.5 64.0625 14.71875 69.140625 
Q 20.953125 74.21875 31.78125 74.21875 
Q 42.671875 74.21875 48.875 69.140625 
Q 55.078125 64.0625 55.078125 55.328125 
Q 55.078125 49.078125 51.53125 44.71875 
Q 48 40.375 41.703125 38.8125 
Q 48.828125 37.15625 52.796875 32.3125 
Q 56.78125 27.484375 56.78125 20.515625 
Q 56.78125 9.90625 50.3125 4.234375 
Q 43.84375 -1.421875 31.78125 -1.421875 
Q 19.734375 -1.421875 13.25 4.234375 
Q 6.78125 9.90625 6.78125 20.515625 
Q 6.78125 27.484375 10.78125 32.3125 
Q 14.796875 37.15625 21.921875 38.8125 
z
M 18.3125 54.390625 
Q 18.3125 48.734375 21.84375 45.5625 
Q 25.390625 42.390625 31.78125 42.390625 
Q 38.140625 42.390625 41.71875 45.5625 
Q 45.3125 48.734375 45.3125 54.390625 
Q 45.3125 60.0625 41.71875 63.234375 
Q 38.140625 66.40625 31.78125 66.40625 
Q 25.390625 66.40625 21.84375 63.234375 
Q 18.3125 60.0625 18.3125 54.390625 
z
" id="DejaVuSans-38"/>
     </defs>
     <g transform="translate(108.16 210.408125)scale(0.2 -0.2)">
      <use xlink:href="#DejaVuSans-2d"/>
      <use x="36.083984" xlink:href="#DejaVuSans-31"/>
      <use x="99.707031" xlink:href="#DejaVuSans-3a"/>
      <use x="133.398438" xlink:href="#DejaVuSans-20"/>
      <use x="165.185547" xlink:href="#DejaVuSans-31"/>
      <use x="228.808594" xlink:href="#DejaVuSans-35"/>
      <use x="292.431641" xlink:href="#DejaVuSans-2f"/>
      <use x="326.123047" xlink:href="#DejaVuSans-38"/>
     </g>
    </g>
    <g id="line2d_33">
     <path d="M 52.16 232.764375 
L 92.16 232.764375 
" style="fill:none;stroke:#bf00bf;stroke-linecap:square;stroke-width:3;"/>
    </g>
    <g id="line2d_34"/>
    <g id="text_11">
     <!-- -4: 14/5 -->
     <g transform="translate(108.16 239.764375)scale(0.2 -0.2)">
      <use xlink:href="#DejaVuSans-2d"/>
      <use x="36.083984" xlink:href="#DejaVuSans-34"/>
      <use x="99.707031" xlink:href="#DejaVuSans-3a"/>
      <use x="133.398438" xlink:href="#DejaVuSans-20"/>
      <use x="165.185547" xlink:href="#DejaVuSans-31"/>
      <use x="228.808594" xlink:href="#DejaVuSans-34"/>
      <use x="292.431641" xlink:href="#DejaVuSans-2f"/>
      <use x="326.123047" xlink:href="#DejaVuSans-35"/>
     </g>
    </g>
    <g id="line2d_35">
     <path d="M 52.16 262.120625 
L 92.16 262.120625 
" style="fill:none;stroke:#ff0000;stroke-linecap:square;stroke-width:3;"/>
    </g>
    <g id="line2d_36"/>
    <g id="text_12">
     <!-- -8: 11/4 -->
     <g transform="translate(108.16 269.120625)scale(0.2 -0.2)">
      <use xlink:href="#DejaVuSans-2d"/>
      <use x="36.083984" xlink:href="#DejaVuSans-38"/>
      <use x="99.707031" xlink:href="#DejaVuSans-3a"/>
      <use x="133.398438" xlink:href="#DejaVuSans-20"/>
      <use x="165.185547" xlink:href="#DejaVuSans-31"/>
      <use x="228.808594" xlink:href="#DejaVuSans-31"/>
      <use x="292.431641" xlink:href="#DejaVuSans-2f"/>
      <use x="326.123047" xlink:href="#DejaVuSans-34"/>
     </g>
    </g>
   </g>
  </g>
 </g>
 <defs>
  <clipPath id="p4ac9885a60">
   <rect height="285.76" width="416.512" x="34.16" y="5.52"/>
  </clipPath>
 </defs>
</svg>
