<?xml version="1.0" encoding="utf-8" standalone="no"?>
<!DOCTYPE svg PUBLIC "-//W3C//DTD SVG 1.1//EN"
  "http://www.w3.org/Graphics/SVG/1.1/DTD/svg11.dtd">
<!-- Created with matplotlib (http://matplotlib.org/) -->
<svg height="345pt" version="1.1" viewBox="0 0 460 345" width="460pt" xmlns="http://www.w3.org/2000/svg" xmlns:xlink="http://www.w3.org/1999/xlink">
 <defs>
  <style type="text/css">
*{stroke-linecap:butt;stroke-linejoin:round;}
  </style>
 </defs>
 <g id="figure_1">
  <g id="patch_1">
   <path d="M 0 345.6 
L 460.8 345.6 
L 460.8 0 
L 0 0 
z
" style="fill:#ffffff;"/>
  </g>
  <g id="axes_1">
   <g id="patch_2">
    <path d="M 59.72 291.28 
L 450.672 291.28 
L 450.672 6.845228 
L 59.72 6.845228 
z
" style="fill:#ffffff;"/>
   </g>
   <g id="line2d_1"/>
   <g id="line2d_2">
    <path clip-path="url(#p7879d741a2)" d="M 408.842984 291.28 
L 408.842984 280.015257 
L 413.353473 280.015257 
L 413.353473 268.750513 
L 413.353473 268.750513 
L 413.353473 268.750513 
L 450.672 268.750513 
" style="fill:none;stroke:#f5deb3;stroke-linecap:square;stroke-width:1.5;"/>
   </g>
   <g id="line2d_3"/>
   <g id="line2d_4"/>
   <g id="line2d_5"/>
   <g id="line2d_6"/>
   <g id="line2d_7">
    <path clip-path="url(#p7879d741a2)" d="M 369.733369 291.28 
L 369.733369 287.525086 
L 396.609314 287.525086 
L 396.609314 283.770171 
L 403.201585 283.770171 
L 403.201585 280.015257 
L 403.769779 280.015257 
L 403.769779 276.260342 
L 404.525761 276.260342 
L 404.525761 272.505428 
L 409.498733 272.505428 
L 409.498733 268.750513 
L 409.735309 268.750513 
L 409.735309 264.995599 
L 412.243503 264.995599 
L 412.243503 261.240684 
L 418.500992 261.240684 
L 418.500992 257.48577 
L 424.20904 257.48577 
L 424.20904 253.730855 
L 424.623478 253.730855 
L 424.623478 249.975941 
L 426.065787 249.975941 
L 426.065787 246.221026 
L 437.441272 246.221026 
L 437.441272 242.466112 
L 442.577999 242.466112 
L 442.577999 238.711197 
L 445.930443 238.711197 
L 445.930443 234.956283 
L 449.967083 234.956283 
L 449.967083 231.201368 
L 451.865443 231.201368 
L 451.865443 227.446454 
L 453.360103 227.446454 
L 453.360103 223.691539 
L 457.259989 223.691539 
L 457.312695 216.18171 
L 457.422327 216.18171 
L 457.422327 212.426796 
L 458.745087 212.426796 
L 458.745087 208.671881 
L 461.8 208.671881 
L 461.8 208.671881 
" style="fill:none;stroke:#f5deb3;stroke-linecap:square;stroke-width:1.5;"/>
   </g>
   <g id="line2d_8">
    <path clip-path="url(#p7879d741a2)" d="M 389.464686 291.28 
L 389.464686 287.525086 
L 391.009292 287.525086 
L 391.009292 283.770171 
L 391.483865 283.770171 
L 391.483865 280.015257 
L 391.681604 280.015257 
L 391.681604 276.260342 
L 392.24814 276.260342 
L 392.24814 272.505428 
L 392.264895 272.505428 
L 392.264895 268.750513 
L 408.360728 268.750513 
L 408.360728 264.995599 
L 409.324075 264.995599 
L 409.324075 261.240684 
L 410.006593 261.240684 
L 410.006593 257.48577 
L 410.088346 257.48577 
L 410.088346 253.730855 
L 410.572907 253.730855 
L 410.572907 249.975941 
L 411.032804 249.975941 
L 411.032804 246.221026 
L 411.039432 246.221026 
L 411.039432 242.466112 
L 411.443098 242.466112 
L 411.443098 238.711197 
L 411.461525 238.711197 
L 411.461525 234.956283 
L 411.790397 234.956283 
L 411.790397 231.201368 
L 413.472909 231.201368 
L 413.472909 227.446454 
L 453.910716 227.446454 
L 453.910716 223.691539 
L 454.524115 223.691539 
L 454.524115 219.936625 
L 454.524115 219.936625 
" style="fill:none;stroke:#f5deb3;stroke-linecap:square;stroke-width:1.5;"/>
   </g>
   <g id="line2d_9">
    <path clip-path="url(#p7879d741a2)" d="M 259.629979 291.28 
L 259.629979 287.525086 
L 302.3409 287.525086 
L 302.3409 283.770171 
L 302.989003 283.770171 
L 302.989003 280.015257 
L 303.789174 280.015257 
L 303.789174 276.260342 
L 307.188544 276.260342 
L 307.188544 272.505428 
L 311.775039 272.505428 
L 311.775039 268.750513 
L 312.306919 268.750513 
L 312.306919 264.995599 
L 312.486751 264.995599 
L 312.486751 261.240684 
L 313.460077 261.240684 
L 313.472546 253.730855 
L 313.758147 253.730855 
L 313.758147 249.975941 
L 314.115052 249.975941 
L 314.115052 246.221026 
L 322.217179 246.221026 
L 322.217179 242.466112 
L 327.798583 242.466112 
L 327.798583 238.711197 
L 328.663056 238.711197 
L 328.663056 234.956283 
L 329.670556 234.956283 
L 329.670556 231.201368 
L 330.483935 231.201368 
L 330.483935 227.446454 
L 331.732511 227.446454 
L 331.792506 219.936625 
L 336.907336 219.936625 
L 336.907336 216.18171 
L 338.061915 216.18171 
L 338.061915 212.426796 
L 339.006261 212.426796 
L 339.006261 208.671881 
L 339.278105 208.671881 
L 339.278105 204.916967 
L 339.5781 204.916967 
L 339.5781 201.162052 
L 339.719651 201.162052 
L 339.809713 193.652223 
L 339.932433 193.652223 
L 339.932433 189.897309 
L 340.197395 189.897309 
L 340.197395 186.142394 
L 341.307248 186.142394 
L 341.416373 178.632565 
L 341.610828 178.632565 
L 341.610828 174.877651 
L 342.095232 174.877651 
L 342.095232 171.122736 
L 342.808448 171.122736 
L 342.808448 167.367822 
L 343.860486 167.367822 
L 343.906002 159.857993 
L 344.400273 159.857993 
L 344.400273 156.103079 
L 345.461272 156.103079 
L 345.555961 148.59325 
L 349.769452 148.59325 
L 349.769452 144.838335 
L 355.898139 144.838335 
L 355.898139 141.083421 
L 356.19031 141.083421 
L 356.232127 133.573592 
L 357.455386 133.573592 
L 357.455386 129.818677 
L 361.772541 129.818677 
L 361.772541 126.063763 
L 363.732749 126.063763 
L 363.732749 122.308848 
L 364.881702 122.308848 
L 364.881702 118.553934 
L 367.310433 118.553934 
L 367.310433 114.799019 
L 367.812378 114.799019 
L 367.812378 111.044105 
L 368.885399 111.044105 
L 368.885399 107.28919 
L 369.702026 107.28919 
L 369.702026 103.534276 
L 369.898772 103.534276 
L 369.898772 99.779361 
L 375.01497 99.779361 
L 375.01497 96.024447 
L 376.81872 96.024447 
L 376.848726 88.514618 
L 377.379318 88.514618 
L 377.379318 84.759703 
L 377.76671 84.759703 
L 377.76671 81.004789 
L 377.925081 81.004789 
L 377.925081 77.249874 
L 380.242077 77.249874 
L 380.242077 73.49496 
L 382.694919 73.49496 
L 382.694919 69.740045 
L 382.904647 69.740045 
L 382.904647 65.985131 
L 385.997004 65.985131 
L 385.997004 62.230216 
L 388.516838 62.230216 
L 388.516838 58.475302 
L 391.45461 58.475302 
L 391.45461 54.720387 
L 392.094896 54.720387 
L 392.094896 50.965473 
L 407.626828 50.965473 
L 407.626828 47.210558 
L 414.282528 47.210558 
L 414.282528 43.455644 
L 414.424949 43.455644 
L 414.424949 39.700729 
L 417.780114 39.700729 
L 417.780114 35.945815 
L 427.251652 35.945815 
L 427.251652 32.1909 
L 428.936199 32.1909 
L 428.936199 28.435986 
L 433.743984 28.435986 
L 433.743984 24.681072 
L 439.084544 24.681072 
L 439.084544 20.926157 
L 440.853574 20.926157 
L 440.950402 13.416328 
L 455.066595 13.416328 
L 455.066595 9.661414 
L 455.066595 9.661414 
" style="fill:none;stroke:#f5deb3;stroke-linecap:square;stroke-width:1.5;"/>
   </g>
   <g id="line2d_10"/>
   <g id="line2d_11">
    <path clip-path="url(#p7879d741a2)" d="M 427.714852 291.28 
L 427.714852 287.525086 
L 461.8 287.525086 
" style="fill:none;stroke:#f5deb3;stroke-linecap:square;stroke-width:1.5;"/>
   </g>
   <g id="line2d_12"/>
   <g id="line2d_13"/>
   <g id="line2d_14"/>
   <g id="line2d_15"/>
   <g id="line2d_16"/>
   <g id="line2d_17">
    <path clip-path="url(#p7879d741a2)" d="M 382.473884 291.28 
L 382.473884 287.525086 
L 384.909081 287.525086 
L 384.909081 283.770171 
L 385.975398 283.770171 
L 385.975398 280.015257 
L 387.421385 280.015257 
L 387.421385 276.260342 
L 390.226815 276.260342 
L 390.226815 272.505428 
L 390.356576 272.505428 
L 390.356576 268.750513 
L 391.697206 268.750513 
L 391.697206 264.995599 
L 392.067537 264.995599 
L 392.067537 261.240684 
L 392.21321 261.240684 
L 392.21321 257.48577 
L 395.629274 257.48577 
L 395.629274 253.730855 
L 396.128586 253.730855 
L 396.128586 249.975941 
L 403.895285 249.975941 
L 403.895285 246.221026 
L 410.498556 246.221026 
L 410.498556 242.466112 
L 410.584235 242.466112 
L 410.584235 238.711197 
L 410.634539 238.711197 
L 410.634539 234.956283 
L 413.490713 234.956283 
L 413.490713 231.201368 
L 414.231391 231.201368 
L 414.231391 227.446454 
L 416.778496 227.446454 
L 416.778496 223.691539 
L 418.031338 223.691539 
L 418.031338 219.936625 
L 419.015739 219.936625 
L 419.015739 216.18171 
L 420.333728 216.18171 
L 420.333728 212.426796 
L 421.928273 212.426796 
L 421.928273 208.671881 
L 426.499683 208.671881 
L 426.499683 204.916967 
L 427.457234 204.916967 
L 427.457234 201.162052 
L 429.636699 201.162052 
L 429.636699 197.407138 
L 430.68773 197.407138 
L 430.68773 193.652223 
L 433.353519 193.652223 
L 433.353519 189.897309 
L 434.550165 189.897309 
L 434.550165 186.142394 
L 434.550165 186.142394 
L 434.550165 186.142394 
L 450.672 186.142394 
" style="fill:none;stroke:#f5deb3;stroke-linecap:square;stroke-width:1.5;"/>
   </g>
   <g id="line2d_18"/>
   <g id="line2d_19">
    <path clip-path="url(#p7879d741a2)" d="M 399.897344 291.28 
L 399.897344 287.525086 
L 433.783195 287.525086 
L 433.783195 283.770171 
L 443.61825 283.770171 
L 443.61825 280.015257 
L 446.884571 280.015257 
L 446.884571 276.260342 
L 455.334315 276.260342 
L 455.334315 272.505428 
L 460.911103 272.505428 
L 460.911103 268.750513 
L 461.8 268.750513 
L 461.8 268.750513 
" style="fill:none;stroke:#f5deb3;stroke-linecap:square;stroke-width:1.5;"/>
   </g>
   <g id="line2d_20">
    <path clip-path="url(#p7879d741a2)" d="M 384.009157 291.28 
L 384.009157 287.525086 
L 384.009157 287.525086 
L 384.009157 287.525086 
L 450.672 287.525086 
" style="fill:none;stroke:#f5deb3;stroke-linecap:square;stroke-width:1.5;"/>
   </g>
   <g id="line2d_21"/>
   <g id="line2d_22">
    <path clip-path="url(#p7879d741a2)" d="M 400.045515 291.28 
L 400.045515 287.525086 
L 421.634782 287.525086 
L 421.634782 283.770171 
L 443.521632 283.770171 
L 443.521632 280.015257 
L 454.1314 280.015257 
L 454.1314 276.260342 
L 461.8 276.260342 
" style="fill:none;stroke:#f5deb3;stroke-linecap:square;stroke-width:1.5;"/>
   </g>
   <g id="line2d_23">
    <path clip-path="url(#p7879d741a2)" d="M 419.132699 291.28 
L 419.132699 287.525086 
L 427.081775 287.525086 
L 427.081775 283.770171 
L 427.081775 283.770171 
L 427.081775 283.770171 
L 450.672 283.770171 
" style="fill:none;stroke:#f5deb3;stroke-linecap:square;stroke-width:1.5;"/>
   </g>
   <g id="line2d_24">
    <path clip-path="url(#p7879d741a2)" d="M 291.062248 291.28 
L 291.062248 287.525086 
L 294.230178 287.525086 
L 294.230178 283.770171 
L 296.166856 283.770171 
L 296.166856 280.015257 
L 300.884989 280.015257 
L 300.884989 276.260342 
L 303.935721 276.260342 
L 303.935721 272.505428 
L 360.425206 272.505428 
L 360.425206 268.750513 
L 362.24337 268.750513 
L 362.24337 264.995599 
L 362.66525 264.995599 
L 362.66525 261.240684 
L 362.814278 261.240684 
L 362.814278 257.48577 
L 364.23813 257.48577 
L 364.23813 253.730855 
L 364.553064 253.730855 
L 364.644905 246.221026 
L 366.126656 246.221026 
L 366.126656 242.466112 
L 366.47132 242.466112 
L 366.554121 234.956283 
L 366.740439 234.956283 
L 366.740439 231.201368 
L 367.084923 231.201368 
L 367.084923 227.446454 
L 369.559333 227.446454 
L 369.559333 223.691539 
L 371.806778 223.691539 
L 371.806778 219.936625 
L 372.36315 219.936625 
L 372.36315 216.18171 
L 372.572457 216.18171 
L 372.572457 212.426796 
L 373.39654 212.426796 
L 373.39654 208.671881 
L 373.572963 208.671881 
L 373.572963 204.916967 
L 373.812685 204.916967 
L 373.902315 197.407138 
L 374.325326 197.407138 
L 374.325326 193.652223 
L 374.446915 193.652223 
L 374.446915 189.897309 
L 374.916771 189.897309 
L 374.916771 186.142394 
L 375.305735 186.142394 
L 375.305735 182.38748 
L 375.419603 182.38748 
L 375.419603 178.632565 
L 375.683902 178.632565 
L 375.683902 174.877651 
L 375.951765 174.877651 
L 375.990182 167.367822 
L 377.505758 167.367822 
L 377.524685 159.857993 
L 378.052728 159.857993 
L 378.052728 156.103079 
L 378.790982 156.103079 
L 378.790982 152.348164 
L 379.908127 152.348164 
L 379.908127 148.59325 
L 380.200137 148.59325 
L 380.200137 144.838335 
L 383.22549 144.838335 
L 383.22549 141.083421 
L 385.134419 141.083421 
L 385.134419 137.328506 
L 389.860082 137.328506 
L 389.860082 133.573592 
L 396.209363 133.573592 
L 396.209363 129.818677 
L 396.375357 129.818677 
L 396.375357 126.063763 
L 397.163587 126.063763 
L 397.163587 122.308848 
L 399.128168 122.308848 
L 399.128168 118.553934 
L 400.11348 118.553934 
L 400.11348 114.799019 
L 401.86051 114.799019 
L 401.86051 111.044105 
L 402.875131 111.044105 
L 402.875131 107.28919 
L 407.542019 107.28919 
L 407.542019 103.534276 
L 411.973697 103.534276 
L 411.973697 99.779361 
L 412.766463 99.779361 
L 412.766463 96.024447 
L 416.648298 96.024447 
L 416.648298 92.269532 
L 422.484368 92.269532 
L 422.484368 88.514618 
L 423.424334 88.514618 
L 423.424334 84.759703 
L 425.392188 84.759703 
L 425.433861 77.249874 
L 425.685373 77.249874 
L 425.685373 73.49496 
L 428.041726 73.49496 
L 428.041726 69.740045 
L 429.202738 69.740045 
L 429.202738 65.985131 
L 448.956455 65.985131 
L 448.956455 62.230216 
L 449.749193 62.230216 
L 449.749193 58.475302 
L 450.993389 58.475302 
L 450.993389 54.720387 
L 454.991812 54.720387 
L 454.991812 50.965473 
L 461.601043 50.965473 
L 461.601043 47.210558 
L 461.8 47.210558 
L 461.8 47.210558 
" style="fill:none;stroke:#f5deb3;stroke-linecap:square;stroke-width:1.5;"/>
   </g>
   <g id="line2d_25">
    <path clip-path="url(#p7879d741a2)" d="M 400.572939 291.28 
L 400.572939 287.525086 
L 403.584774 287.525086 
L 403.584774 283.770171 
L 403.767752 283.770171 
L 403.767752 280.015257 
L 405.049129 280.015257 
L 405.049129 276.260342 
L 406.696771 276.260342 
L 406.696771 272.505428 
L 407.338759 272.505428 
L 407.338759 268.750513 
L 407.612707 268.750513 
L 407.612707 264.995599 
L 408.384371 264.995599 
L 408.384371 261.240684 
L 408.420919 261.240684 
L 408.420919 257.48577 
L 410.455219 257.48577 
L 410.455219 253.730855 
L 411.56087 253.730855 
L 411.56087 249.975941 
L 432.234275 249.975941 
L 432.234275 246.221026 
L 432.866744 246.221026 
L 432.866744 242.466112 
L 433.36644 242.466112 
L 433.36644 238.711197 
L 433.795522 238.711197 
L 433.795522 234.956283 
L 433.897938 234.956283 
L 433.897938 231.201368 
L 434.150966 231.201368 
L 434.150966 227.446454 
L 434.510055 227.446454 
L 434.510055 223.691539 
L 434.545638 223.691539 
L 434.545638 219.936625 
L 434.622723 219.936625 
L 434.622723 216.18171 
L 434.624228 216.18171 
L 434.624228 212.426796 
L 434.653897 212.426796 
L 434.653897 208.671881 
L 434.663781 208.671881 
L 434.663781 204.916967 
L 434.725603 204.916967 
L 434.725603 201.162052 
L 434.885886 201.162052 
L 434.885886 197.407138 
L 434.911286 197.407138 
L 434.911286 193.652223 
L 435.03334 193.652223 
L 435.03334 189.897309 
L 435.392407 189.897309 
L 435.392407 186.142394 
L 435.554575 186.142394 
L 435.554575 182.38748 
L 435.588303 182.38748 
L 435.588303 178.632565 
L 435.679274 178.632565 
L 435.679274 174.877651 
L 435.734581 174.877651 
L 435.734581 171.122736 
L 436.019365 171.122736 
L 436.019365 167.367822 
L 436.132569 167.367822 
L 436.132569 163.612907 
L 436.342127 163.612907 
L 436.342127 159.857993 
L 442.237573 159.857993 
L 442.237573 156.103079 
L 461.8 156.103079 
" style="fill:none;stroke:#f5deb3;stroke-linecap:square;stroke-width:1.5;"/>
   </g>
   <g id="line2d_26">
    <path clip-path="url(#p7879d741a2)" d="M 347.306834 291.28 
L 347.306834 287.525086 
L 350.111107 287.525086 
L 350.111107 283.770171 
L 357.737054 283.770171 
L 357.737054 280.015257 
L 358.919835 280.015257 
L 358.919835 276.260342 
L 360.182616 276.260342 
L 360.182616 272.505428 
L 361.777427 272.505428 
L 361.777427 268.750513 
L 364.45192 268.750513 
L 364.45192 264.995599 
L 371.647459 264.995599 
L 371.647459 261.240684 
L 375.247546 261.240684 
L 375.247546 257.48577 
L 384.609873 257.48577 
L 384.609873 253.730855 
L 386.616352 253.730855 
L 386.616352 249.975941 
L 396.772861 249.975941 
L 396.772861 246.221026 
L 402.772601 246.221026 
L 402.772601 242.466112 
L 403.686035 242.466112 
L 403.686035 238.711197 
L 409.509539 238.711197 
L 409.509539 234.956283 
L 414.79442 234.956283 
L 414.79442 231.201368 
L 417.072533 231.201368 
L 417.072533 227.446454 
L 419.857727 227.446454 
L 419.857727 223.691539 
L 422.158008 223.691539 
L 422.158008 219.936625 
L 422.991609 219.936625 
L 422.991609 216.18171 
L 422.991609 216.18171 
L 422.991609 216.18171 
L 450.672 216.18171 
" style="fill:none;stroke:#f5deb3;stroke-linecap:square;stroke-width:1.5;"/>
   </g>
   <g id="line2d_27"/>
   <g id="line2d_28">
    <path clip-path="url(#p7879d741a2)" d="M 281.76703 291.28 
L 281.76703 287.525086 
L 294.789742 287.525086 
L 294.789742 283.770171 
L 336.439539 283.770171 
L 336.439539 280.015257 
L 348.888035 280.015257 
L 348.888035 276.260342 
L 352.458184 276.260342 
L 352.458184 272.505428 
L 354.568118 272.505428 
L 354.568118 268.750513 
L 371.586758 268.750513 
L 371.586758 264.995599 
L 372.343731 264.995599 
L 372.343731 261.240684 
L 374.179107 261.240684 
L 374.179107 257.48577 
L 374.95405 257.48577 
L 374.95405 253.730855 
L 375.983599 253.730855 
L 375.983599 249.975941 
L 378.077582 249.975941 
L 378.077582 246.221026 
L 379.081088 246.221026 
L 379.081088 242.466112 
L 380.120021 242.466112 
L 380.120021 238.711197 
L 380.733897 238.711197 
L 380.733897 234.956283 
L 386.427232 234.956283 
L 386.427232 231.201368 
L 386.644104 231.201368 
L 386.644104 227.446454 
L 387.198717 227.446454 
L 387.278972 219.936625 
L 387.595831 219.936625 
L 387.595831 216.18171 
L 395.202141 216.18171 
L 395.202141 212.426796 
L 397.089809 212.426796 
L 397.089809 208.671881 
L 397.937901 208.671881 
L 397.937901 204.916967 
L 398.599463 204.916967 
L 398.599463 201.162052 
L 399.125284 201.162052 
L 399.218028 193.652223 
L 401.311611 193.652223 
L 401.311611 189.897309 
L 401.468678 189.897309 
L 401.468678 186.142394 
L 401.992841 186.142394 
L 401.992841 182.38748 
L 405.193168 182.38748 
L 405.193168 178.632565 
L 406.573647 178.632565 
L 406.573647 174.877651 
L 406.743476 174.877651 
L 406.743476 171.122736 
L 406.961252 171.122736 
L 406.961252 167.367822 
L 407.715981 167.367822 
L 407.715981 163.612907 
L 408.767615 163.612907 
L 408.767615 159.857993 
L 410.061967 159.857993 
L 410.064521 152.348164 
L 410.351503 152.348164 
L 410.351503 148.59325 
L 411.455384 148.59325 
L 411.455384 144.838335 
L 411.873058 144.838335 
L 411.873058 141.083421 
L 412.540713 141.083421 
L 412.540713 137.328506 
L 412.994336 137.328506 
L 412.994336 133.573592 
L 413.617408 133.573592 
L 413.617408 129.818677 
L 413.980336 129.818677 
L 413.980336 126.063763 
L 415.665973 126.063763 
L 415.665973 122.308848 
L 417.248645 122.308848 
L 417.248645 118.553934 
L 417.424594 118.553934 
L 417.424594 114.799019 
L 418.003018 114.799019 
L 418.003018 111.044105 
L 419.42755 111.044105 
L 419.42755 107.28919 
L 420.331809 107.28919 
L 420.331809 103.534276 
L 428.403517 103.534276 
L 428.403517 99.779361 
L 431.52749 99.779361 
L 431.52749 96.024447 
L 436.111319 96.024447 
L 436.111319 92.269532 
L 436.508041 92.269532 
L 436.508041 88.514618 
L 436.887515 88.514618 
L 436.887515 84.759703 
L 439.689167 84.759703 
L 439.689167 81.004789 
L 440.226783 81.004789 
L 440.226783 77.249874 
L 445.014034 77.249874 
L 445.014034 73.49496 
L 446.241547 73.49496 
L 446.241547 69.740045 
L 450.668211 69.740045 
L 450.668211 65.985131 
L 450.845559 65.985131 
L 450.845559 62.230216 
L 461.8 62.230216 
L 461.8 62.230216 
" style="fill:none;stroke:#f5deb3;stroke-linecap:square;stroke-width:1.5;"/>
   </g>
   <g id="line2d_29"/>
   <g id="line2d_30"/>
   <g id="matplotlib.axis_1">
    <g id="xtick_1">
     <g id="line2d_31">
      <path clip-path="url(#p7879d741a2)" d="M 59.72 291.28 
L 59.72 6.845228 
" style="fill:none;stroke:#b0b0b0;stroke-linecap:square;stroke-width:0.8;"/>
     </g>
     <g id="line2d_32">
      <defs>
       <path d="M 0 0 
L 0 3.5 
" id="m6dd283deac" style="stroke:#000000;stroke-width:0.8;"/>
      </defs>
      <g>
       <use style="stroke:#000000;stroke-width:0.8;" x="59.72" xlink:href="#m6dd283deac" y="291.28"/>
      </g>
     </g>
     <g id="text_1">
      <!-- 0 -->
      <defs>
       <path d="M 31.78125 66.40625 
Q 24.171875 66.40625 20.328125 58.90625 
Q 16.5 51.421875 16.5 36.375 
Q 16.5 21.390625 20.328125 13.890625 
Q 24.171875 6.390625 31.78125 6.390625 
Q 39.453125 6.390625 43.28125 13.890625 
Q 47.125 21.390625 47.125 36.375 
Q 47.125 51.421875 43.28125 58.90625 
Q 39.453125 66.40625 31.78125 66.40625 
z
M 31.78125 74.21875 
Q 44.046875 74.21875 50.515625 64.515625 
Q 56.984375 54.828125 56.984375 36.375 
Q 56.984375 17.96875 50.515625 8.265625 
Q 44.046875 -1.421875 31.78125 -1.421875 
Q 19.53125 -1.421875 13.0625 8.265625 
Q 6.59375 17.96875 6.59375 36.375 
Q 6.59375 54.828125 13.0625 64.515625 
Q 19.53125 74.21875 31.78125 74.21875 
z
" id="DejaVuSans-30"/>
      </defs>
      <g transform="translate(53.3575 313.476875)scale(0.2 -0.2)">
       <use xlink:href="#DejaVuSans-30"/>
      </g>
     </g>
    </g>
    <g id="xtick_2">
     <g id="line2d_33">
      <path clip-path="url(#p7879d741a2)" d="M 225.439652 291.28 
L 225.439652 6.845228 
" style="fill:none;stroke:#b0b0b0;stroke-linecap:square;stroke-width:0.8;"/>
     </g>
     <g id="line2d_34">
      <g>
       <use style="stroke:#000000;stroke-width:0.8;" x="225.439652" xlink:href="#m6dd283deac" y="291.28"/>
      </g>
     </g>
     <g id="text_2">
      <!-- 2 -->
      <defs>
       <path d="M 19.1875 8.296875 
L 53.609375 8.296875 
L 53.609375 0 
L 7.328125 0 
L 7.328125 8.296875 
Q 12.9375 14.109375 22.625 23.890625 
Q 32.328125 33.6875 34.8125 36.53125 
Q 39.546875 41.84375 41.421875 45.53125 
Q 43.3125 49.21875 43.3125 52.78125 
Q 43.3125 58.59375 39.234375 62.25 
Q 35.15625 65.921875 28.609375 65.921875 
Q 23.96875 65.921875 18.8125 64.3125 
Q 13.671875 62.703125 7.8125 59.421875 
L 7.8125 69.390625 
Q 13.765625 71.78125 18.9375 73 
Q 24.125 74.21875 28.421875 74.21875 
Q 39.75 74.21875 46.484375 68.546875 
Q 53.21875 62.890625 53.21875 53.421875 
Q 53.21875 48.921875 51.53125 44.890625 
Q 49.859375 40.875 45.40625 35.40625 
Q 44.1875 33.984375 37.640625 27.21875 
Q 31.109375 20.453125 19.1875 8.296875 
z
" id="DejaVuSans-32"/>
      </defs>
      <g transform="translate(219.077152 313.476875)scale(0.2 -0.2)">
       <use xlink:href="#DejaVuSans-32"/>
      </g>
     </g>
    </g>
    <g id="xtick_3">
     <g id="line2d_35">
      <path clip-path="url(#p7879d741a2)" d="M 391.159304 291.28 
L 391.159304 6.845228 
" style="fill:none;stroke:#b0b0b0;stroke-linecap:square;stroke-width:0.8;"/>
     </g>
     <g id="line2d_36">
      <g>
       <use style="stroke:#000000;stroke-width:0.8;" x="391.159304" xlink:href="#m6dd283deac" y="291.28"/>
      </g>
     </g>
     <g id="text_3">
      <!-- 4 -->
      <defs>
       <path d="M 37.796875 64.3125 
L 12.890625 25.390625 
L 37.796875 25.390625 
z
M 35.203125 72.90625 
L 47.609375 72.90625 
L 47.609375 25.390625 
L 58.015625 25.390625 
L 58.015625 17.1875 
L 47.609375 17.1875 
L 47.609375 0 
L 37.796875 0 
L 37.796875 17.1875 
L 4.890625 17.1875 
L 4.890625 26.703125 
z
" id="DejaVuSans-34"/>
      </defs>
      <g transform="translate(384.796804 313.476875)scale(0.2 -0.2)">
       <use xlink:href="#DejaVuSans-34"/>
      </g>
     </g>
    </g>
    <g id="xtick_4">
     <g id="line2d_37">
      <path clip-path="url(#p7879d741a2)" d="M 84.663293 291.28 
L 84.663293 6.845228 
" style="fill:none;stroke:#b0b0b0;stroke-linecap:square;stroke-width:0.8;"/>
     </g>
     <g id="line2d_38">
      <defs>
       <path d="M 0 0 
L 0 2 
" id="m8d78110c85" style="stroke:#000000;stroke-width:0.6;"/>
      </defs>
      <g>
       <use style="stroke:#000000;stroke-width:0.6;" x="84.663293" xlink:href="#m8d78110c85" y="291.28"/>
      </g>
     </g>
    </g>
    <g id="xtick_5">
     <g id="line2d_39">
      <path clip-path="url(#p7879d741a2)" d="M 99.254184 291.28 
L 99.254184 6.845228 
" style="fill:none;stroke:#b0b0b0;stroke-linecap:square;stroke-width:0.8;"/>
     </g>
     <g id="line2d_40">
      <g>
       <use style="stroke:#000000;stroke-width:0.6;" x="99.254184" xlink:href="#m8d78110c85" y="291.28"/>
      </g>
     </g>
    </g>
    <g id="xtick_6">
     <g id="line2d_41">
      <path clip-path="url(#p7879d741a2)" d="M 109.606586 291.28 
L 109.606586 6.845228 
" style="fill:none;stroke:#b0b0b0;stroke-linecap:square;stroke-width:0.8;"/>
     </g>
     <g id="line2d_42">
      <g>
       <use style="stroke:#000000;stroke-width:0.6;" x="109.606586" xlink:href="#m8d78110c85" y="291.28"/>
      </g>
     </g>
    </g>
    <g id="xtick_7">
     <g id="line2d_43">
      <path clip-path="url(#p7879d741a2)" d="M 117.636533 291.28 
L 117.636533 6.845228 
" style="fill:none;stroke:#b0b0b0;stroke-linecap:square;stroke-width:0.8;"/>
     </g>
     <g id="line2d_44">
      <g>
       <use style="stroke:#000000;stroke-width:0.6;" x="117.636533" xlink:href="#m8d78110c85" y="291.28"/>
      </g>
     </g>
    </g>
    <g id="xtick_8">
     <g id="line2d_45">
      <path clip-path="url(#p7879d741a2)" d="M 124.197477 291.28 
L 124.197477 6.845228 
" style="fill:none;stroke:#b0b0b0;stroke-linecap:square;stroke-width:0.8;"/>
     </g>
     <g id="line2d_46">
      <g>
       <use style="stroke:#000000;stroke-width:0.6;" x="124.197477" xlink:href="#m8d78110c85" y="291.28"/>
      </g>
     </g>
    </g>
    <g id="xtick_9">
     <g id="line2d_47">
      <path clip-path="url(#p7879d741a2)" d="M 129.744677 291.28 
L 129.744677 6.845228 
" style="fill:none;stroke:#b0b0b0;stroke-linecap:square;stroke-width:0.8;"/>
     </g>
     <g id="line2d_48">
      <g>
       <use style="stroke:#000000;stroke-width:0.6;" x="129.744677" xlink:href="#m8d78110c85" y="291.28"/>
      </g>
     </g>
    </g>
    <g id="xtick_10">
     <g id="line2d_49">
      <path clip-path="url(#p7879d741a2)" d="M 134.549879 291.28 
L 134.549879 6.845228 
" style="fill:none;stroke:#b0b0b0;stroke-linecap:square;stroke-width:0.8;"/>
     </g>
     <g id="line2d_50">
      <g>
       <use style="stroke:#000000;stroke-width:0.6;" x="134.549879" xlink:href="#m8d78110c85" y="291.28"/>
      </g>
     </g>
    </g>
    <g id="xtick_11">
     <g id="line2d_51">
      <path clip-path="url(#p7879d741a2)" d="M 138.788368 291.28 
L 138.788368 6.845228 
" style="fill:none;stroke:#b0b0b0;stroke-linecap:square;stroke-width:0.8;"/>
     </g>
     <g id="line2d_52">
      <g>
       <use style="stroke:#000000;stroke-width:0.6;" x="138.788368" xlink:href="#m8d78110c85" y="291.28"/>
      </g>
     </g>
    </g>
    <g id="xtick_12">
     <g id="line2d_53">
      <path clip-path="url(#p7879d741a2)" d="M 167.523119 291.28 
L 167.523119 6.845228 
" style="fill:none;stroke:#b0b0b0;stroke-linecap:square;stroke-width:0.8;"/>
     </g>
     <g id="line2d_54">
      <g>
       <use style="stroke:#000000;stroke-width:0.6;" x="167.523119" xlink:href="#m8d78110c85" y="291.28"/>
      </g>
     </g>
    </g>
    <g id="xtick_13">
     <g id="line2d_55">
      <path clip-path="url(#p7879d741a2)" d="M 182.11401 291.28 
L 182.11401 6.845228 
" style="fill:none;stroke:#b0b0b0;stroke-linecap:square;stroke-width:0.8;"/>
     </g>
     <g id="line2d_56">
      <g>
       <use style="stroke:#000000;stroke-width:0.6;" x="182.11401" xlink:href="#m8d78110c85" y="291.28"/>
      </g>
     </g>
    </g>
    <g id="xtick_14">
     <g id="line2d_57">
      <path clip-path="url(#p7879d741a2)" d="M 192.466412 291.28 
L 192.466412 6.845228 
" style="fill:none;stroke:#b0b0b0;stroke-linecap:square;stroke-width:0.8;"/>
     </g>
     <g id="line2d_58">
      <g>
       <use style="stroke:#000000;stroke-width:0.6;" x="192.466412" xlink:href="#m8d78110c85" y="291.28"/>
      </g>
     </g>
    </g>
    <g id="xtick_15">
     <g id="line2d_59">
      <path clip-path="url(#p7879d741a2)" d="M 200.496359 291.28 
L 200.496359 6.845228 
" style="fill:none;stroke:#b0b0b0;stroke-linecap:square;stroke-width:0.8;"/>
     </g>
     <g id="line2d_60">
      <g>
       <use style="stroke:#000000;stroke-width:0.6;" x="200.496359" xlink:href="#m8d78110c85" y="291.28"/>
      </g>
     </g>
    </g>
    <g id="xtick_16">
     <g id="line2d_61">
      <path clip-path="url(#p7879d741a2)" d="M 207.057303 291.28 
L 207.057303 6.845228 
" style="fill:none;stroke:#b0b0b0;stroke-linecap:square;stroke-width:0.8;"/>
     </g>
     <g id="line2d_62">
      <g>
       <use style="stroke:#000000;stroke-width:0.6;" x="207.057303" xlink:href="#m8d78110c85" y="291.28"/>
      </g>
     </g>
    </g>
    <g id="xtick_17">
     <g id="line2d_63">
      <path clip-path="url(#p7879d741a2)" d="M 212.604503 291.28 
L 212.604503 6.845228 
" style="fill:none;stroke:#b0b0b0;stroke-linecap:square;stroke-width:0.8;"/>
     </g>
     <g id="line2d_64">
      <g>
       <use style="stroke:#000000;stroke-width:0.6;" x="212.604503" xlink:href="#m8d78110c85" y="291.28"/>
      </g>
     </g>
    </g>
    <g id="xtick_18">
     <g id="line2d_65">
      <path clip-path="url(#p7879d741a2)" d="M 217.409705 291.28 
L 217.409705 6.845228 
" style="fill:none;stroke:#b0b0b0;stroke-linecap:square;stroke-width:0.8;"/>
     </g>
     <g id="line2d_66">
      <g>
       <use style="stroke:#000000;stroke-width:0.6;" x="217.409705" xlink:href="#m8d78110c85" y="291.28"/>
      </g>
     </g>
    </g>
    <g id="xtick_19">
     <g id="line2d_67">
      <path clip-path="url(#p7879d741a2)" d="M 221.648194 291.28 
L 221.648194 6.845228 
" style="fill:none;stroke:#b0b0b0;stroke-linecap:square;stroke-width:0.8;"/>
     </g>
     <g id="line2d_68">
      <g>
       <use style="stroke:#000000;stroke-width:0.6;" x="221.648194" xlink:href="#m8d78110c85" y="291.28"/>
      </g>
     </g>
    </g>
    <g id="xtick_20">
     <g id="line2d_69">
      <path clip-path="url(#p7879d741a2)" d="M 250.382945 291.28 
L 250.382945 6.845228 
" style="fill:none;stroke:#b0b0b0;stroke-linecap:square;stroke-width:0.8;"/>
     </g>
     <g id="line2d_70">
      <g>
       <use style="stroke:#000000;stroke-width:0.6;" x="250.382945" xlink:href="#m8d78110c85" y="291.28"/>
      </g>
     </g>
    </g>
    <g id="xtick_21">
     <g id="line2d_71">
      <path clip-path="url(#p7879d741a2)" d="M 264.973836 291.28 
L 264.973836 6.845228 
" style="fill:none;stroke:#b0b0b0;stroke-linecap:square;stroke-width:0.8;"/>
     </g>
     <g id="line2d_72">
      <g>
       <use style="stroke:#000000;stroke-width:0.6;" x="264.973836" xlink:href="#m8d78110c85" y="291.28"/>
      </g>
     </g>
    </g>
    <g id="xtick_22">
     <g id="line2d_73">
      <path clip-path="url(#p7879d741a2)" d="M 275.326238 291.28 
L 275.326238 6.845228 
" style="fill:none;stroke:#b0b0b0;stroke-linecap:square;stroke-width:0.8;"/>
     </g>
     <g id="line2d_74">
      <g>
       <use style="stroke:#000000;stroke-width:0.6;" x="275.326238" xlink:href="#m8d78110c85" y="291.28"/>
      </g>
     </g>
    </g>
    <g id="xtick_23">
     <g id="line2d_75">
      <path clip-path="url(#p7879d741a2)" d="M 283.356185 291.28 
L 283.356185 6.845228 
" style="fill:none;stroke:#b0b0b0;stroke-linecap:square;stroke-width:0.8;"/>
     </g>
     <g id="line2d_76">
      <g>
       <use style="stroke:#000000;stroke-width:0.6;" x="283.356185" xlink:href="#m8d78110c85" y="291.28"/>
      </g>
     </g>
    </g>
    <g id="xtick_24">
     <g id="line2d_77">
      <path clip-path="url(#p7879d741a2)" d="M 289.917129 291.28 
L 289.917129 6.845228 
" style="fill:none;stroke:#b0b0b0;stroke-linecap:square;stroke-width:0.8;"/>
     </g>
     <g id="line2d_78">
      <g>
       <use style="stroke:#000000;stroke-width:0.6;" x="289.917129" xlink:href="#m8d78110c85" y="291.28"/>
      </g>
     </g>
    </g>
    <g id="xtick_25">
     <g id="line2d_79">
      <path clip-path="url(#p7879d741a2)" d="M 295.464329 291.28 
L 295.464329 6.845228 
" style="fill:none;stroke:#b0b0b0;stroke-linecap:square;stroke-width:0.8;"/>
     </g>
     <g id="line2d_80">
      <g>
       <use style="stroke:#000000;stroke-width:0.6;" x="295.464329" xlink:href="#m8d78110c85" y="291.28"/>
      </g>
     </g>
    </g>
    <g id="xtick_26">
     <g id="line2d_81">
      <path clip-path="url(#p7879d741a2)" d="M 300.269531 291.28 
L 300.269531 6.845228 
" style="fill:none;stroke:#b0b0b0;stroke-linecap:square;stroke-width:0.8;"/>
     </g>
     <g id="line2d_82">
      <g>
       <use style="stroke:#000000;stroke-width:0.6;" x="300.269531" xlink:href="#m8d78110c85" y="291.28"/>
      </g>
     </g>
    </g>
    <g id="xtick_27">
     <g id="line2d_83">
      <path clip-path="url(#p7879d741a2)" d="M 304.50802 291.28 
L 304.50802 6.845228 
" style="fill:none;stroke:#b0b0b0;stroke-linecap:square;stroke-width:0.8;"/>
     </g>
     <g id="line2d_84">
      <g>
       <use style="stroke:#000000;stroke-width:0.6;" x="304.50802" xlink:href="#m8d78110c85" y="291.28"/>
      </g>
     </g>
    </g>
    <g id="xtick_28">
     <g id="line2d_85">
      <path clip-path="url(#p7879d741a2)" d="M 333.242771 291.28 
L 333.242771 6.845228 
" style="fill:none;stroke:#b0b0b0;stroke-linecap:square;stroke-width:0.8;"/>
     </g>
     <g id="line2d_86">
      <g>
       <use style="stroke:#000000;stroke-width:0.6;" x="333.242771" xlink:href="#m8d78110c85" y="291.28"/>
      </g>
     </g>
    </g>
    <g id="xtick_29">
     <g id="line2d_87">
      <path clip-path="url(#p7879d741a2)" d="M 347.833662 291.28 
L 347.833662 6.845228 
" style="fill:none;stroke:#b0b0b0;stroke-linecap:square;stroke-width:0.8;"/>
     </g>
     <g id="line2d_88">
      <g>
       <use style="stroke:#000000;stroke-width:0.6;" x="347.833662" xlink:href="#m8d78110c85" y="291.28"/>
      </g>
     </g>
    </g>
    <g id="xtick_30">
     <g id="line2d_89">
      <path clip-path="url(#p7879d741a2)" d="M 358.186064 291.28 
L 358.186064 6.845228 
" style="fill:none;stroke:#b0b0b0;stroke-linecap:square;stroke-width:0.8;"/>
     </g>
     <g id="line2d_90">
      <g>
       <use style="stroke:#000000;stroke-width:0.6;" x="358.186064" xlink:href="#m8d78110c85" y="291.28"/>
      </g>
     </g>
    </g>
    <g id="xtick_31">
     <g id="line2d_91">
      <path clip-path="url(#p7879d741a2)" d="M 366.216011 291.28 
L 366.216011 6.845228 
" style="fill:none;stroke:#b0b0b0;stroke-linecap:square;stroke-width:0.8;"/>
     </g>
     <g id="line2d_92">
      <g>
       <use style="stroke:#000000;stroke-width:0.6;" x="366.216011" xlink:href="#m8d78110c85" y="291.28"/>
      </g>
     </g>
    </g>
    <g id="xtick_32">
     <g id="line2d_93">
      <path clip-path="url(#p7879d741a2)" d="M 372.776955 291.28 
L 372.776955 6.845228 
" style="fill:none;stroke:#b0b0b0;stroke-linecap:square;stroke-width:0.8;"/>
     </g>
     <g id="line2d_94">
      <g>
       <use style="stroke:#000000;stroke-width:0.6;" x="372.776955" xlink:href="#m8d78110c85" y="291.28"/>
      </g>
     </g>
    </g>
    <g id="xtick_33">
     <g id="line2d_95">
      <path clip-path="url(#p7879d741a2)" d="M 378.324155 291.28 
L 378.324155 6.845228 
" style="fill:none;stroke:#b0b0b0;stroke-linecap:square;stroke-width:0.8;"/>
     </g>
     <g id="line2d_96">
      <g>
       <use style="stroke:#000000;stroke-width:0.6;" x="378.324155" xlink:href="#m8d78110c85" y="291.28"/>
      </g>
     </g>
    </g>
    <g id="xtick_34">
     <g id="line2d_97">
      <path clip-path="url(#p7879d741a2)" d="M 383.129357 291.28 
L 383.129357 6.845228 
" style="fill:none;stroke:#b0b0b0;stroke-linecap:square;stroke-width:0.8;"/>
     </g>
     <g id="line2d_98">
      <g>
       <use style="stroke:#000000;stroke-width:0.6;" x="383.129357" xlink:href="#m8d78110c85" y="291.28"/>
      </g>
     </g>
    </g>
    <g id="xtick_35">
     <g id="line2d_99">
      <path clip-path="url(#p7879d741a2)" d="M 387.367846 291.28 
L 387.367846 6.845228 
" style="fill:none;stroke:#b0b0b0;stroke-linecap:square;stroke-width:0.8;"/>
     </g>
     <g id="line2d_100">
      <g>
       <use style="stroke:#000000;stroke-width:0.6;" x="387.367846" xlink:href="#m8d78110c85" y="291.28"/>
      </g>
     </g>
    </g>
    <g id="xtick_36">
     <g id="line2d_101">
      <path clip-path="url(#p7879d741a2)" d="M 416.102597 291.28 
L 416.102597 6.845228 
" style="fill:none;stroke:#b0b0b0;stroke-linecap:square;stroke-width:0.8;"/>
     </g>
     <g id="line2d_102">
      <g>
       <use style="stroke:#000000;stroke-width:0.6;" x="416.102597" xlink:href="#m8d78110c85" y="291.28"/>
      </g>
     </g>
    </g>
    <g id="xtick_37">
     <g id="line2d_103">
      <path clip-path="url(#p7879d741a2)" d="M 430.693488 291.28 
L 430.693488 6.845228 
" style="fill:none;stroke:#b0b0b0;stroke-linecap:square;stroke-width:0.8;"/>
     </g>
     <g id="line2d_104">
      <g>
       <use style="stroke:#000000;stroke-width:0.6;" x="430.693488" xlink:href="#m8d78110c85" y="291.28"/>
      </g>
     </g>
    </g>
    <g id="xtick_38">
     <g id="line2d_105">
      <path clip-path="url(#p7879d741a2)" d="M 441.04589 291.28 
L 441.04589 6.845228 
" style="fill:none;stroke:#b0b0b0;stroke-linecap:square;stroke-width:0.8;"/>
     </g>
     <g id="line2d_106">
      <g>
       <use style="stroke:#000000;stroke-width:0.6;" x="441.04589" xlink:href="#m8d78110c85" y="291.28"/>
      </g>
     </g>
    </g>
    <g id="xtick_39">
     <g id="line2d_107">
      <path clip-path="url(#p7879d741a2)" d="M 449.075837 291.28 
L 449.075837 6.845228 
" style="fill:none;stroke:#b0b0b0;stroke-linecap:square;stroke-width:0.8;"/>
     </g>
     <g id="line2d_108">
      <g>
       <use style="stroke:#000000;stroke-width:0.6;" x="449.075837" xlink:href="#m8d78110c85" y="291.28"/>
      </g>
     </g>
    </g>
    <g id="text_4">
     <!-- log10 of FEvals / DIM -->
     <defs>
      <path d="M 9.421875 75.984375 
L 18.40625 75.984375 
L 18.40625 0 
L 9.421875 0 
z
" id="DejaVuSans-6c"/>
      <path d="M 30.609375 48.390625 
Q 23.390625 48.390625 19.1875 42.75 
Q 14.984375 37.109375 14.984375 27.296875 
Q 14.984375 17.484375 19.15625 11.84375 
Q 23.34375 6.203125 30.609375 6.203125 
Q 37.796875 6.203125 41.984375 11.859375 
Q 46.1875 17.53125 46.1875 27.296875 
Q 46.1875 37.015625 41.984375 42.703125 
Q 37.796875 48.390625 30.609375 48.390625 
z
M 30.609375 56 
Q 42.328125 56 49.015625 48.375 
Q 55.71875 40.765625 55.71875 27.296875 
Q 55.71875 13.875 49.015625 6.21875 
Q 42.328125 -1.421875 30.609375 -1.421875 
Q 18.84375 -1.421875 12.171875 6.21875 
Q 5.515625 13.875 5.515625 27.296875 
Q 5.515625 40.765625 12.171875 48.375 
Q 18.84375 56 30.609375 56 
z
" id="DejaVuSans-6f"/>
      <path d="M 45.40625 27.984375 
Q 45.40625 37.75 41.375 43.109375 
Q 37.359375 48.484375 30.078125 48.484375 
Q 22.859375 48.484375 18.828125 43.109375 
Q 14.796875 37.75 14.796875 27.984375 
Q 14.796875 18.265625 18.828125 12.890625 
Q 22.859375 7.515625 30.078125 7.515625 
Q 37.359375 7.515625 41.375 12.890625 
Q 45.40625 18.265625 45.40625 27.984375 
z
M 54.390625 6.78125 
Q 54.390625 -7.171875 48.1875 -13.984375 
Q 42 -20.796875 29.203125 -20.796875 
Q 24.46875 -20.796875 20.265625 -20.09375 
Q 16.0625 -19.390625 12.109375 -17.921875 
L 12.109375 -9.1875 
Q 16.0625 -11.328125 19.921875 -12.34375 
Q 23.78125 -13.375 27.78125 -13.375 
Q 36.625 -13.375 41.015625 -8.765625 
Q 45.40625 -4.15625 45.40625 5.171875 
L 45.40625 9.625 
Q 42.625 4.78125 38.28125 2.390625 
Q 33.9375 0 27.875 0 
Q 17.828125 0 11.671875 7.65625 
Q 5.515625 15.328125 5.515625 27.984375 
Q 5.515625 40.671875 11.671875 48.328125 
Q 17.828125 56 27.875 56 
Q 33.9375 56 38.28125 53.609375 
Q 42.625 51.21875 45.40625 46.390625 
L 45.40625 54.6875 
L 54.390625 54.6875 
z
" id="DejaVuSans-67"/>
      <path d="M 12.40625 8.296875 
L 28.515625 8.296875 
L 28.515625 63.921875 
L 10.984375 60.40625 
L 10.984375 69.390625 
L 28.421875 72.90625 
L 38.28125 72.90625 
L 38.28125 8.296875 
L 54.390625 8.296875 
L 54.390625 0 
L 12.40625 0 
z
" id="DejaVuSans-31"/>
      <path id="DejaVuSans-20"/>
      <path d="M 37.109375 75.984375 
L 37.109375 68.5 
L 28.515625 68.5 
Q 23.6875 68.5 21.796875 66.546875 
Q 19.921875 64.59375 19.921875 59.515625 
L 19.921875 54.6875 
L 34.71875 54.6875 
L 34.71875 47.703125 
L 19.921875 47.703125 
L 19.921875 0 
L 10.890625 0 
L 10.890625 47.703125 
L 2.296875 47.703125 
L 2.296875 54.6875 
L 10.890625 54.6875 
L 10.890625 58.5 
Q 10.890625 67.625 15.140625 71.796875 
Q 19.390625 75.984375 28.609375 75.984375 
z
" id="DejaVuSans-66"/>
      <path d="M 9.8125 72.90625 
L 51.703125 72.90625 
L 51.703125 64.59375 
L 19.671875 64.59375 
L 19.671875 43.109375 
L 48.578125 43.109375 
L 48.578125 34.8125 
L 19.671875 34.8125 
L 19.671875 0 
L 9.8125 0 
z
" id="DejaVuSans-46"/>
      <path d="M 9.8125 72.90625 
L 55.90625 72.90625 
L 55.90625 64.59375 
L 19.671875 64.59375 
L 19.671875 43.015625 
L 54.390625 43.015625 
L 54.390625 34.71875 
L 19.671875 34.71875 
L 19.671875 8.296875 
L 56.78125 8.296875 
L 56.78125 0 
L 9.8125 0 
z
" id="DejaVuSans-45"/>
      <path d="M 2.984375 54.6875 
L 12.5 54.6875 
L 29.59375 8.796875 
L 46.6875 54.6875 
L 56.203125 54.6875 
L 35.6875 0 
L 23.484375 0 
z
" id="DejaVuSans-76"/>
      <path d="M 34.28125 27.484375 
Q 23.390625 27.484375 19.1875 25 
Q 14.984375 22.515625 14.984375 16.5 
Q 14.984375 11.71875 18.140625 8.90625 
Q 21.296875 6.109375 26.703125 6.109375 
Q 34.1875 6.109375 38.703125 11.40625 
Q 43.21875 16.703125 43.21875 25.484375 
L 43.21875 27.484375 
z
M 52.203125 31.203125 
L 52.203125 0 
L 43.21875 0 
L 43.21875 8.296875 
Q 40.140625 3.328125 35.546875 0.953125 
Q 30.953125 -1.421875 24.3125 -1.421875 
Q 15.921875 -1.421875 10.953125 3.296875 
Q 6 8.015625 6 15.921875 
Q 6 25.140625 12.171875 29.828125 
Q 18.359375 34.515625 30.609375 34.515625 
L 43.21875 34.515625 
L 43.21875 35.40625 
Q 43.21875 41.609375 39.140625 45 
Q 35.0625 48.390625 27.6875 48.390625 
Q 23 48.390625 18.546875 47.265625 
Q 14.109375 46.140625 10.015625 43.890625 
L 10.015625 52.203125 
Q 14.9375 54.109375 19.578125 55.046875 
Q 24.21875 56 28.609375 56 
Q 40.484375 56 46.34375 49.84375 
Q 52.203125 43.703125 52.203125 31.203125 
z
" id="DejaVuSans-61"/>
      <path d="M 44.28125 53.078125 
L 44.28125 44.578125 
Q 40.484375 46.53125 36.375 47.5 
Q 32.28125 48.484375 27.875 48.484375 
Q 21.1875 48.484375 17.84375 46.4375 
Q 14.5 44.390625 14.5 40.28125 
Q 14.5 37.15625 16.890625 35.375 
Q 19.28125 33.59375 26.515625 31.984375 
L 29.59375 31.296875 
Q 39.15625 29.25 43.1875 25.515625 
Q 47.21875 21.78125 47.21875 15.09375 
Q 47.21875 7.46875 41.1875 3.015625 
Q 35.15625 -1.421875 24.609375 -1.421875 
Q 20.21875 -1.421875 15.453125 -0.5625 
Q 10.6875 0.296875 5.421875 2 
L 5.421875 11.28125 
Q 10.40625 8.6875 15.234375 7.390625 
Q 20.0625 6.109375 24.8125 6.109375 
Q 31.15625 6.109375 34.5625 8.28125 
Q 37.984375 10.453125 37.984375 14.40625 
Q 37.984375 18.0625 35.515625 20.015625 
Q 33.0625 21.96875 24.703125 23.78125 
L 21.578125 24.515625 
Q 13.234375 26.265625 9.515625 29.90625 
Q 5.8125 33.546875 5.8125 39.890625 
Q 5.8125 47.609375 11.28125 51.796875 
Q 16.75 56 26.8125 56 
Q 31.78125 56 36.171875 55.265625 
Q 40.578125 54.546875 44.28125 53.078125 
z
" id="DejaVuSans-73"/>
      <path d="M 25.390625 72.90625 
L 33.6875 72.90625 
L 8.296875 -9.28125 
L 0 -9.28125 
z
" id="DejaVuSans-2f"/>
      <path d="M 19.671875 64.796875 
L 19.671875 8.109375 
L 31.59375 8.109375 
Q 46.6875 8.109375 53.6875 14.9375 
Q 60.6875 21.78125 60.6875 36.53125 
Q 60.6875 51.171875 53.6875 57.984375 
Q 46.6875 64.796875 31.59375 64.796875 
z
M 9.8125 72.90625 
L 30.078125 72.90625 
Q 51.265625 72.90625 61.171875 64.09375 
Q 71.09375 55.28125 71.09375 36.53125 
Q 71.09375 17.671875 61.125 8.828125 
Q 51.171875 0 30.078125 0 
L 9.8125 0 
z
" id="DejaVuSans-44"/>
      <path d="M 9.8125 72.90625 
L 19.671875 72.90625 
L 19.671875 0 
L 9.8125 0 
z
" id="DejaVuSans-49"/>
      <path d="M 9.8125 72.90625 
L 24.515625 72.90625 
L 43.109375 23.296875 
L 61.8125 72.90625 
L 76.515625 72.90625 
L 76.515625 0 
L 66.890625 0 
L 66.890625 64.015625 
L 48.09375 14.015625 
L 38.1875 14.015625 
L 19.390625 64.015625 
L 19.390625 0 
L 9.8125 0 
z
" id="DejaVuSans-4d"/>
     </defs>
     <g transform="translate(150.122563 336.833125)scale(0.2 -0.2)">
      <use xlink:href="#DejaVuSans-6c"/>
      <use x="27.783203" xlink:href="#DejaVuSans-6f"/>
      <use x="88.964844" xlink:href="#DejaVuSans-67"/>
      <use x="152.441406" xlink:href="#DejaVuSans-31"/>
      <use x="216.064453" xlink:href="#DejaVuSans-30"/>
      <use x="279.6875" xlink:href="#DejaVuSans-20"/>
      <use x="311.474609" xlink:href="#DejaVuSans-6f"/>
      <use x="372.65625" xlink:href="#DejaVuSans-66"/>
      <use x="407.861328" xlink:href="#DejaVuSans-20"/>
      <use x="439.648438" xlink:href="#DejaVuSans-46"/>
      <use x="497.167969" xlink:href="#DejaVuSans-45"/>
      <use x="560.351562" xlink:href="#DejaVuSans-76"/>
      <use x="619.53125" xlink:href="#DejaVuSans-61"/>
      <use x="680.810547" xlink:href="#DejaVuSans-6c"/>
      <use x="708.59375" xlink:href="#DejaVuSans-73"/>
      <use x="760.693359" xlink:href="#DejaVuSans-20"/>
      <use x="792.480469" xlink:href="#DejaVuSans-2f"/>
      <use x="826.171875" xlink:href="#DejaVuSans-20"/>
      <use x="857.958984" xlink:href="#DejaVuSans-44"/>
      <use x="934.960938" xlink:href="#DejaVuSans-49"/>
      <use x="964.453125" xlink:href="#DejaVuSans-4d"/>
     </g>
    </g>
   </g>
   <g id="matplotlib.axis_2">
    <g id="ytick_1">
     <g id="line2d_109">
      <path clip-path="url(#p7879d741a2)" d="M 59.72 291.28 
L 450.672 291.28 
" style="fill:none;stroke:#b0b0b0;stroke-linecap:square;stroke-width:0.8;"/>
     </g>
     <g id="line2d_110">
      <defs>
       <path d="M 0 0 
L -3.5 0 
" id="mf13d8ab448" style="stroke:#000000;stroke-width:0.8;"/>
      </defs>
      <g>
       <use style="stroke:#000000;stroke-width:0.8;" x="59.72" xlink:href="#mf13d8ab448" y="291.28"/>
      </g>
     </g>
     <g id="text_5">
      <!-- 0.0 -->
      <defs>
       <path d="M 10.6875 12.40625 
L 21 12.40625 
L 21 0 
L 10.6875 0 
z
" id="DejaVuSans-2e"/>
      </defs>
      <g transform="translate(27.275 297.35875)scale(0.16 -0.16)">
       <use xlink:href="#DejaVuSans-30"/>
       <use x="63.623047" xlink:href="#DejaVuSans-2e"/>
       <use x="95.410156" xlink:href="#DejaVuSans-30"/>
      </g>
     </g>
    </g>
    <g id="ytick_2">
     <g id="line2d_111">
      <path clip-path="url(#p7879d741a2)" d="M 59.72 234.956283 
L 450.672 234.956283 
" style="fill:none;stroke:#b0b0b0;stroke-linecap:square;stroke-width:0.8;"/>
     </g>
     <g id="line2d_112">
      <g>
       <use style="stroke:#000000;stroke-width:0.8;" x="59.72" xlink:href="#mf13d8ab448" y="234.956283"/>
      </g>
     </g>
     <g id="text_6">
      <!-- 0.2 -->
      <g transform="translate(27.275 241.035033)scale(0.16 -0.16)">
       <use xlink:href="#DejaVuSans-30"/>
       <use x="63.623047" xlink:href="#DejaVuSans-2e"/>
       <use x="95.410156" xlink:href="#DejaVuSans-32"/>
      </g>
     </g>
    </g>
    <g id="ytick_3">
     <g id="line2d_113">
      <path clip-path="url(#p7879d741a2)" d="M 59.72 178.632565 
L 450.672 178.632565 
" style="fill:none;stroke:#b0b0b0;stroke-linecap:square;stroke-width:0.8;"/>
     </g>
     <g id="line2d_114">
      <g>
       <use style="stroke:#000000;stroke-width:0.8;" x="59.72" xlink:href="#mf13d8ab448" y="178.632565"/>
      </g>
     </g>
     <g id="text_7">
      <!-- 0.4 -->
      <g transform="translate(27.275 184.711315)scale(0.16 -0.16)">
       <use xlink:href="#DejaVuSans-30"/>
       <use x="63.623047" xlink:href="#DejaVuSans-2e"/>
       <use x="95.410156" xlink:href="#DejaVuSans-34"/>
      </g>
     </g>
    </g>
    <g id="ytick_4">
     <g id="line2d_115">
      <path clip-path="url(#p7879d741a2)" d="M 59.72 122.308848 
L 450.672 122.308848 
" style="fill:none;stroke:#b0b0b0;stroke-linecap:square;stroke-width:0.8;"/>
     </g>
     <g id="line2d_116">
      <g>
       <use style="stroke:#000000;stroke-width:0.8;" x="59.72" xlink:href="#mf13d8ab448" y="122.308848"/>
      </g>
     </g>
     <g id="text_8">
      <!-- 0.6 -->
      <defs>
       <path d="M 33.015625 40.375 
Q 26.375 40.375 22.484375 35.828125 
Q 18.609375 31.296875 18.609375 23.390625 
Q 18.609375 15.53125 22.484375 10.953125 
Q 26.375 6.390625 33.015625 6.390625 
Q 39.65625 6.390625 43.53125 10.953125 
Q 47.40625 15.53125 47.40625 23.390625 
Q 47.40625 31.296875 43.53125 35.828125 
Q 39.65625 40.375 33.015625 40.375 
z
M 52.59375 71.296875 
L 52.59375 62.3125 
Q 48.875 64.0625 45.09375 64.984375 
Q 41.3125 65.921875 37.59375 65.921875 
Q 27.828125 65.921875 22.671875 59.328125 
Q 17.53125 52.734375 16.796875 39.40625 
Q 19.671875 43.65625 24.015625 45.921875 
Q 28.375 48.1875 33.59375 48.1875 
Q 44.578125 48.1875 50.953125 41.515625 
Q 57.328125 34.859375 57.328125 23.390625 
Q 57.328125 12.15625 50.6875 5.359375 
Q 44.046875 -1.421875 33.015625 -1.421875 
Q 20.359375 -1.421875 13.671875 8.265625 
Q 6.984375 17.96875 6.984375 36.375 
Q 6.984375 53.65625 15.1875 63.9375 
Q 23.390625 74.21875 37.203125 74.21875 
Q 40.921875 74.21875 44.703125 73.484375 
Q 48.484375 72.75 52.59375 71.296875 
z
" id="DejaVuSans-36"/>
      </defs>
      <g transform="translate(27.275 128.387598)scale(0.16 -0.16)">
       <use xlink:href="#DejaVuSans-30"/>
       <use x="63.623047" xlink:href="#DejaVuSans-2e"/>
       <use x="95.410156" xlink:href="#DejaVuSans-36"/>
      </g>
     </g>
    </g>
    <g id="ytick_5">
     <g id="line2d_117">
      <path clip-path="url(#p7879d741a2)" d="M 59.72 65.985131 
L 450.672 65.985131 
" style="fill:none;stroke:#b0b0b0;stroke-linecap:square;stroke-width:0.8;"/>
     </g>
     <g id="line2d_118">
      <g>
       <use style="stroke:#000000;stroke-width:0.8;" x="59.72" xlink:href="#mf13d8ab448" y="65.985131"/>
      </g>
     </g>
     <g id="text_9">
      <!-- 0.8 -->
      <defs>
       <path d="M 31.78125 34.625 
Q 24.75 34.625 20.71875 30.859375 
Q 16.703125 27.09375 16.703125 20.515625 
Q 16.703125 13.921875 20.71875 10.15625 
Q 24.75 6.390625 31.78125 6.390625 
Q 38.8125 6.390625 42.859375 10.171875 
Q 46.921875 13.96875 46.921875 20.515625 
Q 46.921875 27.09375 42.890625 30.859375 
Q 38.875 34.625 31.78125 34.625 
z
M 21.921875 38.8125 
Q 15.578125 40.375 12.03125 44.71875 
Q 8.5 49.078125 8.5 55.328125 
Q 8.5 64.0625 14.71875 69.140625 
Q 20.953125 74.21875 31.78125 74.21875 
Q 42.671875 74.21875 48.875 69.140625 
Q 55.078125 64.0625 55.078125 55.328125 
Q 55.078125 49.078125 51.53125 44.71875 
Q 48 40.375 41.703125 38.8125 
Q 48.828125 37.15625 52.796875 32.3125 
Q 56.78125 27.484375 56.78125 20.515625 
Q 56.78125 9.90625 50.3125 4.234375 
Q 43.84375 -1.421875 31.78125 -1.421875 
Q 19.734375 -1.421875 13.25 4.234375 
Q 6.78125 9.90625 6.78125 20.515625 
Q 6.78125 27.484375 10.78125 32.3125 
Q 14.796875 37.15625 21.921875 38.8125 
z
M 18.3125 54.390625 
Q 18.3125 48.734375 21.84375 45.5625 
Q 25.390625 42.390625 31.78125 42.390625 
Q 38.140625 42.390625 41.71875 45.5625 
Q 45.3125 48.734375 45.3125 54.390625 
Q 45.3125 60.0625 41.71875 63.234375 
Q 38.140625 66.40625 31.78125 66.40625 
Q 25.390625 66.40625 21.84375 63.234375 
Q 18.3125 60.0625 18.3125 54.390625 
z
" id="DejaVuSans-38"/>
      </defs>
      <g transform="translate(27.275 72.063881)scale(0.16 -0.16)">
       <use xlink:href="#DejaVuSans-30"/>
       <use x="63.623047" xlink:href="#DejaVuSans-2e"/>
       <use x="95.410156" xlink:href="#DejaVuSans-38"/>
      </g>
     </g>
    </g>
    <g id="ytick_6">
     <g id="line2d_119">
      <path clip-path="url(#p7879d741a2)" d="M 59.72 9.661414 
L 450.672 9.661414 
" style="fill:none;stroke:#b0b0b0;stroke-linecap:square;stroke-width:0.8;"/>
     </g>
     <g id="line2d_120">
      <g>
       <use style="stroke:#000000;stroke-width:0.8;" x="59.72" xlink:href="#mf13d8ab448" y="9.661414"/>
      </g>
     </g>
     <g id="text_10">
      <!-- 1.0 -->
      <g transform="translate(27.275 15.740164)scale(0.16 -0.16)">
       <use xlink:href="#DejaVuSans-31"/>
       <use x="63.623047" xlink:href="#DejaVuSans-2e"/>
       <use x="95.410156" xlink:href="#DejaVuSans-30"/>
      </g>
     </g>
    </g>
    <g id="text_11">
     <!-- proportion of trials -->
     <defs>
      <path d="M 18.109375 8.203125 
L 18.109375 -20.796875 
L 9.078125 -20.796875 
L 9.078125 54.6875 
L 18.109375 54.6875 
L 18.109375 46.390625 
Q 20.953125 51.265625 25.265625 53.625 
Q 29.59375 56 35.59375 56 
Q 45.5625 56 51.78125 48.09375 
Q 58.015625 40.1875 58.015625 27.296875 
Q 58.015625 14.40625 51.78125 6.484375 
Q 45.5625 -1.421875 35.59375 -1.421875 
Q 29.59375 -1.421875 25.265625 0.953125 
Q 20.953125 3.328125 18.109375 8.203125 
z
M 48.6875 27.296875 
Q 48.6875 37.203125 44.609375 42.84375 
Q 40.53125 48.484375 33.40625 48.484375 
Q 26.265625 48.484375 22.1875 42.84375 
Q 18.109375 37.203125 18.109375 27.296875 
Q 18.109375 17.390625 22.1875 11.75 
Q 26.265625 6.109375 33.40625 6.109375 
Q 40.53125 6.109375 44.609375 11.75 
Q 48.6875 17.390625 48.6875 27.296875 
z
" id="DejaVuSans-70"/>
      <path d="M 41.109375 46.296875 
Q 39.59375 47.171875 37.8125 47.578125 
Q 36.03125 48 33.890625 48 
Q 26.265625 48 22.1875 43.046875 
Q 18.109375 38.09375 18.109375 28.8125 
L 18.109375 0 
L 9.078125 0 
L 9.078125 54.6875 
L 18.109375 54.6875 
L 18.109375 46.1875 
Q 20.953125 51.171875 25.484375 53.578125 
Q 30.03125 56 36.53125 56 
Q 37.453125 56 38.578125 55.875 
Q 39.703125 55.765625 41.0625 55.515625 
z
" id="DejaVuSans-72"/>
      <path d="M 18.3125 70.21875 
L 18.3125 54.6875 
L 36.8125 54.6875 
L 36.8125 47.703125 
L 18.3125 47.703125 
L 18.3125 18.015625 
Q 18.3125 11.328125 20.140625 9.421875 
Q 21.96875 7.515625 27.59375 7.515625 
L 36.8125 7.515625 
L 36.8125 0 
L 27.59375 0 
Q 17.1875 0 13.234375 3.875 
Q 9.28125 7.765625 9.28125 18.015625 
L 9.28125 47.703125 
L 2.6875 47.703125 
L 2.6875 54.6875 
L 9.28125 54.6875 
L 9.28125 70.21875 
z
" id="DejaVuSans-74"/>
      <path d="M 9.421875 54.6875 
L 18.40625 54.6875 
L 18.40625 0 
L 9.421875 0 
z
M 9.421875 75.984375 
L 18.40625 75.984375 
L 18.40625 64.59375 
L 9.421875 64.59375 
z
" id="DejaVuSans-69"/>
      <path d="M 54.890625 33.015625 
L 54.890625 0 
L 45.90625 0 
L 45.90625 32.71875 
Q 45.90625 40.484375 42.875 44.328125 
Q 39.84375 48.1875 33.796875 48.1875 
Q 26.515625 48.1875 22.3125 43.546875 
Q 18.109375 38.921875 18.109375 30.90625 
L 18.109375 0 
L 9.078125 0 
L 9.078125 54.6875 
L 18.109375 54.6875 
L 18.109375 46.1875 
Q 21.34375 51.125 25.703125 53.5625 
Q 30.078125 56 35.796875 56 
Q 45.21875 56 50.046875 50.171875 
Q 54.890625 44.34375 54.890625 33.015625 
z
" id="DejaVuSans-6e"/>
     </defs>
     <g transform="translate(19.115625 242.290739)rotate(-90)scale(0.2 -0.2)">
      <use xlink:href="#DejaVuSans-70"/>
      <use x="63.476562" xlink:href="#DejaVuSans-72"/>
      <use x="104.558594" xlink:href="#DejaVuSans-6f"/>
      <use x="165.740234" xlink:href="#DejaVuSans-70"/>
      <use x="229.216797" xlink:href="#DejaVuSans-6f"/>
      <use x="290.398438" xlink:href="#DejaVuSans-72"/>
      <use x="331.511719" xlink:href="#DejaVuSans-74"/>
      <use x="370.720703" xlink:href="#DejaVuSans-69"/>
      <use x="398.503906" xlink:href="#DejaVuSans-6f"/>
      <use x="459.685547" xlink:href="#DejaVuSans-6e"/>
      <use x="523.064453" xlink:href="#DejaVuSans-20"/>
      <use x="554.851562" xlink:href="#DejaVuSans-6f"/>
      <use x="616.033203" xlink:href="#DejaVuSans-66"/>
      <use x="651.238281" xlink:href="#DejaVuSans-20"/>
      <use x="683.025391" xlink:href="#DejaVuSans-74"/>
      <use x="722.234375" xlink:href="#DejaVuSans-72"/>
      <use x="763.347656" xlink:href="#DejaVuSans-69"/>
      <use x="791.130859" xlink:href="#DejaVuSans-61"/>
      <use x="852.410156" xlink:href="#DejaVuSans-6c"/>
      <use x="880.193359" xlink:href="#DejaVuSans-73"/>
     </g>
    </g>
   </g>
   <g id="line2d_121">
    <path clip-path="url(#p7879d741a2)" d="M 1.803467 291.28 
L 1.803467 287.525086 
L 1.803467 287.525086 
L 1.803467 283.770171 
L 1.803467 283.770171 
L 1.803467 280.015257 
L 1.803467 280.015257 
L 1.803467 276.260342 
L 1.803467 276.260342 
L 1.803467 272.505428 
L 1.803467 272.505428 
L 1.803467 268.750513 
L 1.803467 268.750513 
L 1.803467 264.995599 
L 1.803467 264.995599 
L 1.803467 261.240684 
L 1.803467 261.240684 
L 1.803467 257.48577 
L 1.803467 257.48577 
L 1.803467 253.730855 
L 1.803467 253.730855 
L 1.803467 249.975941 
L 1.803467 249.975941 
L 1.803467 246.221026 
L 1.803467 246.221026 
L 1.803467 242.466112 
L 1.803467 242.466112 
L 1.803467 238.711197 
L 1.803467 238.711197 
L 1.803467 234.956283 
L 1.803467 234.956283 
L 1.803467 231.201368 
L 1.803467 231.201368 
L 1.803467 227.446454 
L 1.803467 227.446454 
L 1.803467 223.691539 
L 146.009617 223.691539 
L 146.009617 219.936625 
L 146.658023 219.936625 
L 146.658023 216.18171 
L 149.735587 216.18171 
L 149.735587 212.426796 
L 169.957854 212.426796 
L 169.957854 208.671881 
L 176.964445 208.671881 
L 176.964445 204.916967 
L 183.983811 204.916967 
L 183.983811 201.162052 
L 188.272877 201.162052 
L 188.272877 197.407138 
L 197.181538 197.407138 
L 197.181538 193.652223 
L 197.181538 193.652223 
L 197.181538 193.652223 
L 450.672 193.652223 
" style="fill:none;stroke:#000000;stroke-linecap:square;stroke-width:1.5;"/>
   </g>
   <g id="line2d_122">
    <defs>
     <path d="M -0 14.142136 
L 8.485281 0 
L -0 -14.142136 
L -8.485281 -0 
z
" id="m1b948923d8" style="stroke:#000000;stroke-linejoin:miter;stroke-width:1.5;"/>
    </defs>
    <g clip-path="url(#p7879d741a2)">
     <use style="fill:none;stroke:#000000;stroke-linejoin:miter;stroke-width:1.5;" x="169.957854" xlink:href="#m1b948923d8" y="212.426796"/>
     <use style="fill:none;stroke:#000000;stroke-linejoin:miter;stroke-width:1.5;" x="197.181538" xlink:href="#m1b948923d8" y="193.652223"/>
    </g>
   </g>
   <g id="line2d_123">
    <path clip-path="url(#p7879d741a2)" style="fill:none;stroke:#000000;stroke-linecap:square;stroke-width:1.5;"/>
    <g clip-path="url(#p7879d741a2)">
     <use style="fill:none;stroke:#000000;stroke-linejoin:miter;stroke-width:1.5;" x="-1" xlink:href="#m1b948923d8" y="572.898586"/>
     <use style="fill:none;stroke:#000000;stroke-linejoin:miter;stroke-width:1.5;" x="450.672" xlink:href="#m1b948923d8" y="572.898586"/>
    </g>
   </g>
   <g id="line2d_124">
    <path clip-path="url(#p7879d741a2)" d="M 1.803467 291.28 
L 1.803467 287.525086 
L 71.828144 287.525086 
L 71.828144 283.770171 
L 107.760768 283.770171 
L 107.760768 280.015257 
L 117.636533 280.015257 
L 117.636533 276.260342 
L 131.744389 276.260342 
L 131.744389 268.750513 
L 149.735587 268.750513 
L 149.735587 264.995599 
L 174.3827 264.995599 
L 174.3827 261.240684 
L 179.373301 261.240684 
L 179.373301 257.48577 
L 188.874321 257.48577 
L 188.874321 253.730855 
L 192.286033 253.730855 
L 192.286033 249.975941 
L 197.339025 249.975941 
L 197.339025 246.221026 
L 200.925615 246.221026 
L 200.925615 242.466112 
L 204.186916 242.466112 
L 204.186916 238.711197 
L 213.718069 238.711197 
L 213.718069 234.956283 
L 222.203661 234.956283 
L 222.203661 231.201368 
L 227.46853 231.201368 
L 227.46853 227.446454 
L 231.69946 227.446454 
L 231.69946 223.691539 
L 241.488028 223.691539 
L 241.488028 219.936625 
L 243.37299 219.936625 
L 243.37299 216.18171 
L 246.148954 216.18171 
L 246.148954 212.426796 
L 253.975936 212.426796 
L 253.975936 208.671881 
L 254.749156 208.671881 
L 254.749156 204.916967 
L 256.063558 204.916967 
L 256.063558 201.162052 
L 259.069008 201.162052 
L 259.069008 197.407138 
L 263.67934 197.407138 
L 263.67934 193.652223 
L 265.990913 193.652223 
L 265.990913 189.897309 
L 269.961502 189.897309 
L 269.961502 186.142394 
L 277.406099 186.142394 
L 277.406099 182.38748 
L 281.721869 182.38748 
L 281.812134 174.877651 
L 282.260093 174.877651 
L 282.260093 171.122736 
L 283.139621 171.122736 
L 283.139621 167.367822 
L 286.457338 167.367822 
L 286.457338 163.612907 
L 286.772888 163.612907 
L 286.772888 159.857993 
L 292.697721 159.857993 
L 292.697721 156.103079 
L 294.134287 156.103079 
L 294.134287 152.348164 
L 295.081885 152.348164 
L 295.081885 148.59325 
L 296.307739 148.59325 
L 296.307739 144.838335 
L 302.391823 144.838335 
L 302.391823 141.083421 
L 303.44489 141.083421 
L 303.44489 137.328506 
L 313.472546 137.328506 
L 313.472546 133.573592 
L 315.578911 133.573592 
L 315.578911 129.818677 
L 316.450134 129.818677 
L 316.450134 126.063763 
L 319.832421 126.063763 
L 319.832421 122.308848 
L 325.316134 122.308848 
L 325.316134 118.553934 
L 325.584251 118.553934 
L 325.584251 114.799019 
L 326.061884 114.799019 
L 326.061884 111.044105 
L 334.275004 111.044105 
L 334.275004 107.28919 
L 339.968272 107.28919 
L 339.968272 103.534276 
L 340.501621 103.534276 
L 340.501621 99.779361 
L 340.747838 99.779361 
L 340.747838 96.024447 
L 341.835428 96.024447 
L 341.835428 92.269532 
L 343.852448 92.269532 
L 343.852448 88.514618 
L 349.495605 88.514618 
L 349.495605 84.759703 
L 350.60537 84.759703 
L 350.60537 81.004789 
L 354.623783 81.004789 
L 354.623783 77.249874 
L 355.611308 77.249874 
L 355.611308 73.49496 
L 355.738642 73.49496 
L 355.738642 69.740045 
L 366.564102 69.740045 
L 366.564102 65.985131 
L 371.301705 65.985131 
L 371.301705 62.230216 
L 374.224072 62.230216 
L 374.224072 58.475302 
L 380.291758 58.475302 
L 380.291758 54.720387 
L 380.997361 54.720387 
L 380.997361 50.965473 
L 380.997361 50.965473 
L 450.672 50.965473 
L 450.672 50.965473 
" style="fill:none;stroke:#000000;stroke-linecap:square;stroke-width:1.5;"/>
   </g>
   <g id="line2d_125">
    <defs>
     <path d="M 0 7.5 
C 1.989023 7.5 3.896849 6.709753 5.303301 5.303301 
C 6.709753 3.896849 7.5 1.989023 7.5 0 
C 7.5 -1.989023 6.709753 -3.896849 5.303301 -5.303301 
C 3.896849 -6.709753 1.989023 -7.5 0 -7.5 
C -1.989023 -7.5 -3.896849 -6.709753 -5.303301 -5.303301 
C -6.709753 -3.896849 -7.5 -1.989023 -7.5 0 
C -7.5 1.989023 -6.709753 3.896849 -5.303301 5.303301 
C -3.896849 6.709753 -1.989023 7.5 0 7.5 
z
" id="m1a683f79e6" style="stroke:#000000;stroke-width:1.5;"/>
    </defs>
    <g clip-path="url(#p7879d741a2)">
     <use style="fill:none;stroke:#000000;stroke-width:1.5;" x="71.828144" xlink:href="#m1a683f79e6" y="287.525086"/>
     <use style="fill:none;stroke:#000000;stroke-width:1.5;" x="174.3827" xlink:href="#m1a683f79e6" y="264.995599"/>
     <use style="fill:none;stroke:#000000;stroke-width:1.5;" x="231.69946" xlink:href="#m1a683f79e6" y="227.446454"/>
     <use style="fill:none;stroke:#000000;stroke-width:1.5;" x="283.139621" xlink:href="#m1a683f79e6" y="171.122736"/>
     <use style="fill:none;stroke:#000000;stroke-width:1.5;" x="339.968272" xlink:href="#m1a683f79e6" y="107.28919"/>
     <use style="fill:none;stroke:#000000;stroke-width:1.5;" x="380.997361" xlink:href="#m1a683f79e6" y="54.720387"/>
     <use style="fill:none;stroke:#000000;stroke-width:1.5;" x="380.997361" xlink:href="#m1a683f79e6" y="50.965473"/>
    </g>
   </g>
   <g id="line2d_126">
    <path clip-path="url(#p7879d741a2)" style="fill:none;stroke:#000000;stroke-linecap:square;stroke-width:1.5;"/>
   </g>
   <g id="line2d_127">
    <path clip-path="url(#p7879d741a2)" d="M 120.40602 291.28 
L 120.40602 287.525086 
L 122.977511 287.525086 
L 122.977511 283.770171 
L 122.977511 283.770171 
L 122.977511 280.015257 
L 130.758422 280.015257 
L 130.758422 276.260342 
L 137.152379 276.260342 
L 137.152379 272.505428 
L 137.152379 272.505428 
L 137.152379 268.750513 
L 139.579292 268.750513 
L 139.579292 264.995599 
L 141.85282 264.995599 
L 141.85282 261.240684 
L 142.579826 261.240684 
L 142.579826 257.48577 
L 142.579826 257.48577 
L 142.579826 253.730855 
L 143.292435 253.730855 
L 143.292435 249.975941 
L 143.991206 249.975941 
L 143.991206 246.221026 
L 143.991206 246.221026 
L 143.991206 242.466112 
L 145.349313 242.466112 
L 145.349313 238.711197 
L 147.294952 238.711197 
L 147.294952 234.956283 
L 147.294952 234.956283 
L 147.294952 234.956283 
L 450.672 234.956283 
" style="fill:none;stroke:#00bfbf;stroke-linecap:square;stroke-width:1.5;"/>
   </g>
   <g id="line2d_128">
    <defs>
     <path d="M -0 14.142136 
L 8.485281 0 
L -0 -14.142136 
L -8.485281 -0 
z
" id="ma54626ef2c" style="stroke:#00bfbf;stroke-linejoin:miter;stroke-width:1.5;"/>
    </defs>
    <g clip-path="url(#p7879d741a2)">
     <use style="fill:none;stroke:#00bfbf;stroke-linejoin:miter;stroke-width:1.5;" x="122.977511" xlink:href="#ma54626ef2c" y="283.770171"/>
     <use style="fill:none;stroke:#00bfbf;stroke-linejoin:miter;stroke-width:1.5;" x="143.292435" xlink:href="#ma54626ef2c" y="253.730855"/>
     <use style="fill:none;stroke:#00bfbf;stroke-linejoin:miter;stroke-width:1.5;" x="147.294952" xlink:href="#ma54626ef2c" y="234.956283"/>
    </g>
   </g>
   <g id="line2d_129">
    <path clip-path="url(#p7879d741a2)" style="fill:none;stroke:#00bfbf;stroke-linecap:square;stroke-width:1.5;"/>
    <g clip-path="url(#p7879d741a2)">
     <use style="fill:none;stroke:#00bfbf;stroke-linejoin:miter;stroke-width:1.5;" x="-1" xlink:href="#ma54626ef2c" y="572.898586"/>
     <use style="fill:none;stroke:#00bfbf;stroke-linejoin:miter;stroke-width:1.5;" x="450.672" xlink:href="#ma54626ef2c" y="572.898586"/>
    </g>
   </g>
   <g id="line2d_130">
    <path clip-path="url(#p7879d741a2)" d="M 360.78689 291.28 
L 360.78689 287.525086 
L 360.78689 287.525086 
L 360.78689 287.525086 
L 450.672 287.525086 
" style="fill:none;stroke:#00bfbf;stroke-linecap:square;stroke-width:1.5;"/>
   </g>
   <g id="line2d_131">
    <defs>
     <path d="M 0 7.5 
C 1.989023 7.5 3.896849 6.709753 5.303301 5.303301 
C 6.709753 3.896849 7.5 1.989023 7.5 0 
C 7.5 -1.989023 6.709753 -3.896849 5.303301 -5.303301 
C 3.896849 -6.709753 1.989023 -7.5 0 -7.5 
C -1.989023 -7.5 -3.896849 -6.709753 -5.303301 -5.303301 
C -6.709753 -3.896849 -7.5 -1.989023 -7.5 0 
C -7.5 1.989023 -6.709753 3.896849 -5.303301 5.303301 
C -3.896849 6.709753 -1.989023 7.5 0 7.5 
z
" id="m7627d87864" style="stroke:#00bfbf;stroke-width:1.5;"/>
    </defs>
    <g clip-path="url(#p7879d741a2)">
     <use style="fill:none;stroke:#00bfbf;stroke-width:1.5;" x="360.78689" xlink:href="#m7627d87864" y="291.28"/>
     <use style="fill:none;stroke:#00bfbf;stroke-width:1.5;" x="360.78689" xlink:href="#m7627d87864" y="291.28"/>
     <use style="fill:none;stroke:#00bfbf;stroke-width:1.5;" x="360.78689" xlink:href="#m7627d87864" y="287.525086"/>
    </g>
   </g>
   <g id="line2d_132">
    <path clip-path="url(#p7879d741a2)" style="fill:none;stroke:#00bfbf;stroke-linecap:square;stroke-width:1.5;"/>
   </g>
   <g id="line2d_133"/>
   <g id="line2d_134"/>
   <g id="line2d_135"/>
   <g id="line2d_136"/>
   <g id="line2d_137">
    <path clip-path="url(#p7879d741a2)" d="M 250.382945 291.28 
L 250.382945 6.845228 
" style="fill:none;stroke:#000000;stroke-linecap:square;stroke-width:1.5;"/>
    <defs>
     <path d="M -10 0 
L 10 0 
M 0 10 
L 0 -10 
" id="m0455eefa78" style="stroke:#000000;stroke-width:3;"/>
    </defs>
    <g clip-path="url(#p7879d741a2)">
     <use style="stroke:#000000;stroke-width:3;" x="250.382945" xlink:href="#m0455eefa78" y="291.28"/>
     <use style="stroke:#000000;stroke-width:3;" x="250.382945" xlink:href="#m0455eefa78" y="6.845228"/>
    </g>
   </g>
   <g id="line2d_138">
    <path clip-path="url(#p7879d741a2)" d="M 385.778692 291.28 
L 385.778692 6.845228 
" style="fill:none;stroke:#000000;stroke-linecap:square;stroke-width:1.5;"/>
    <defs>
     <path d="M 0 7.5 
C 1.989023 7.5 3.896849 6.709753 5.303301 5.303301 
C 6.709753 3.896849 7.5 1.989023 7.5 0 
C 7.5 -1.989023 6.709753 -3.896849 5.303301 -5.303301 
C 3.896849 -6.709753 1.989023 -7.5 0 -7.5 
C -1.989023 -7.5 -3.896849 -6.709753 -5.303301 -5.303301 
C -6.709753 -3.896849 -7.5 -1.989023 -7.5 0 
C -7.5 1.989023 -6.709753 3.896849 -5.303301 5.303301 
C -3.896849 6.709753 -1.989023 7.5 0 7.5 
z
" id="m332ac1e572" style="stroke:#000000;stroke-width:3;"/>
    </defs>
    <g clip-path="url(#p7879d741a2)">
     <use style="fill:none;stroke:#000000;stroke-width:3;" x="385.778692" xlink:href="#m332ac1e572" y="291.28"/>
     <use style="fill:none;stroke:#000000;stroke-width:3;" x="385.778692" xlink:href="#m332ac1e572" y="6.845228"/>
    </g>
   </g>
   <g id="patch_3">
    <path d="M 59.72 291.28 
L 59.72 6.845228 
" style="fill:none;stroke:#000000;stroke-linecap:square;stroke-linejoin:miter;stroke-width:0.8;"/>
   </g>
   <g id="patch_4">
    <path d="M 450.672 291.28 
L 450.672 6.845228 
" style="fill:none;stroke:#000000;stroke-linecap:square;stroke-linejoin:miter;stroke-width:0.8;"/>
   </g>
   <g id="patch_5">
    <path d="M 59.72 291.28 
L 450.672 291.28 
" style="fill:none;stroke:#000000;stroke-linecap:square;stroke-linejoin:miter;stroke-width:0.8;"/>
   </g>
   <g id="patch_6">
    <path d="M 59.72 6.845228 
L 450.672 6.845228 
" style="fill:none;stroke:#000000;stroke-linecap:square;stroke-linejoin:miter;stroke-width:0.8;"/>
   </g>
   <g id="text_12">
    <!-- f15-f19 -->
    <defs>
     <path d="M 10.796875 72.90625 
L 49.515625 72.90625 
L 49.515625 64.59375 
L 19.828125 64.59375 
L 19.828125 46.734375 
Q 21.96875 47.46875 24.109375 47.828125 
Q 26.265625 48.1875 28.421875 48.1875 
Q 40.625 48.1875 47.75 41.5 
Q 54.890625 34.8125 54.890625 23.390625 
Q 54.890625 11.625 47.5625 5.09375 
Q 40.234375 -1.421875 26.90625 -1.421875 
Q 22.3125 -1.421875 17.546875 -0.640625 
Q 12.796875 0.140625 7.71875 1.703125 
L 7.71875 11.625 
Q 12.109375 9.234375 16.796875 8.0625 
Q 21.484375 6.890625 26.703125 6.890625 
Q 35.15625 6.890625 40.078125 11.328125 
Q 45.015625 15.765625 45.015625 23.390625 
Q 45.015625 31 40.078125 35.4375 
Q 35.15625 39.890625 26.703125 39.890625 
Q 22.75 39.890625 18.8125 39.015625 
Q 14.890625 38.140625 10.796875 36.28125 
z
" id="DejaVuSans-35"/>
     <path d="M 4.890625 31.390625 
L 31.203125 31.390625 
L 31.203125 23.390625 
L 4.890625 23.390625 
z
" id="DejaVuSans-2d"/>
     <path d="M 10.984375 1.515625 
L 10.984375 10.5 
Q 14.703125 8.734375 18.5 7.8125 
Q 22.3125 6.890625 25.984375 6.890625 
Q 35.75 6.890625 40.890625 13.453125 
Q 46.046875 20.015625 46.78125 33.40625 
Q 43.953125 29.203125 39.59375 26.953125 
Q 35.25 24.703125 29.984375 24.703125 
Q 19.046875 24.703125 12.671875 31.3125 
Q 6.296875 37.9375 6.296875 49.421875 
Q 6.296875 60.640625 12.9375 67.421875 
Q 19.578125 74.21875 30.609375 74.21875 
Q 43.265625 74.21875 49.921875 64.515625 
Q 56.59375 54.828125 56.59375 36.375 
Q 56.59375 19.140625 48.40625 8.859375 
Q 40.234375 -1.421875 26.421875 -1.421875 
Q 22.703125 -1.421875 18.890625 -0.6875 
Q 15.09375 0.046875 10.984375 1.515625 
z
M 30.609375 32.421875 
Q 37.25 32.421875 41.125 36.953125 
Q 45.015625 41.5 45.015625 49.421875 
Q 45.015625 57.28125 41.125 61.84375 
Q 37.25 66.40625 30.609375 66.40625 
Q 23.96875 66.40625 20.09375 61.84375 
Q 16.21875 57.28125 16.21875 49.421875 
Q 16.21875 41.5 20.09375 36.953125 
Q 23.96875 32.421875 30.609375 32.421875 
z
" id="DejaVuSans-39"/>
    </defs>
    <g transform="translate(219.097563 27.730798)scale(0.2 -0.2)">
     <use xlink:href="#DejaVuSans-66"/>
     <use x="35.205078" xlink:href="#DejaVuSans-31"/>
     <use x="98.828125" xlink:href="#DejaVuSans-35"/>
     <use x="162.451172" xlink:href="#DejaVuSans-2d"/>
     <use x="198.535156" xlink:href="#DejaVuSans-66"/>
     <use x="233.740234" xlink:href="#DejaVuSans-31"/>
     <use x="297.363281" xlink:href="#DejaVuSans-39"/>
    </g>
   </g>
   <g id="text_13">
    <!-- absolute targets -->
    <defs>
     <path d="M 48.6875 27.296875 
Q 48.6875 37.203125 44.609375 42.84375 
Q 40.53125 48.484375 33.40625 48.484375 
Q 26.265625 48.484375 22.1875 42.84375 
Q 18.109375 37.203125 18.109375 27.296875 
Q 18.109375 17.390625 22.1875 11.75 
Q 26.265625 6.109375 33.40625 6.109375 
Q 40.53125 6.109375 44.609375 11.75 
Q 48.6875 17.390625 48.6875 27.296875 
z
M 18.109375 46.390625 
Q 20.953125 51.265625 25.265625 53.625 
Q 29.59375 56 35.59375 56 
Q 45.5625 56 51.78125 48.09375 
Q 58.015625 40.1875 58.015625 27.296875 
Q 58.015625 14.40625 51.78125 6.484375 
Q 45.5625 -1.421875 35.59375 -1.421875 
Q 29.59375 -1.421875 25.265625 0.953125 
Q 20.953125 3.328125 18.109375 8.203125 
L 18.109375 0 
L 9.078125 0 
L 9.078125 75.984375 
L 18.109375 75.984375 
z
" id="DejaVuSans-62"/>
     <path d="M 8.5 21.578125 
L 8.5 54.6875 
L 17.484375 54.6875 
L 17.484375 21.921875 
Q 17.484375 14.15625 20.5 10.265625 
Q 23.53125 6.390625 29.59375 6.390625 
Q 36.859375 6.390625 41.078125 11.03125 
Q 45.3125 15.671875 45.3125 23.6875 
L 45.3125 54.6875 
L 54.296875 54.6875 
L 54.296875 0 
L 45.3125 0 
L 45.3125 8.40625 
Q 42.046875 3.421875 37.71875 1 
Q 33.40625 -1.421875 27.6875 -1.421875 
Q 18.265625 -1.421875 13.375 4.4375 
Q 8.5 10.296875 8.5 21.578125 
z
M 31.109375 56 
z
" id="DejaVuSans-75"/>
     <path d="M 56.203125 29.59375 
L 56.203125 25.203125 
L 14.890625 25.203125 
Q 15.484375 15.921875 20.484375 11.0625 
Q 25.484375 6.203125 34.421875 6.203125 
Q 39.59375 6.203125 44.453125 7.46875 
Q 49.3125 8.734375 54.109375 11.28125 
L 54.109375 2.78125 
Q 49.265625 0.734375 44.1875 -0.34375 
Q 39.109375 -1.421875 33.890625 -1.421875 
Q 20.796875 -1.421875 13.15625 6.1875 
Q 5.515625 13.8125 5.515625 26.8125 
Q 5.515625 40.234375 12.765625 48.109375 
Q 20.015625 56 32.328125 56 
Q 43.359375 56 49.78125 48.890625 
Q 56.203125 41.796875 56.203125 29.59375 
z
M 47.21875 32.234375 
Q 47.125 39.59375 43.09375 43.984375 
Q 39.0625 48.390625 32.421875 48.390625 
Q 24.90625 48.390625 20.390625 44.140625 
Q 15.875 39.890625 15.1875 32.171875 
z
" id="DejaVuSans-65"/>
    </defs>
    <g transform="translate(59.72 601.060445)scale(0.14 -0.14)">
     <use xlink:href="#DejaVuSans-61"/>
     <use x="61.279297" xlink:href="#DejaVuSans-62"/>
     <use x="124.755859" xlink:href="#DejaVuSans-73"/>
     <use x="176.855469" xlink:href="#DejaVuSans-6f"/>
     <use x="238.037109" xlink:href="#DejaVuSans-6c"/>
     <use x="265.820312" xlink:href="#DejaVuSans-75"/>
     <use x="329.199219" xlink:href="#DejaVuSans-74"/>
     <use x="368.408203" xlink:href="#DejaVuSans-65"/>
     <use x="429.931641" xlink:href="#DejaVuSans-20"/>
     <use x="461.71875" xlink:href="#DejaVuSans-74"/>
     <use x="500.927734" xlink:href="#DejaVuSans-61"/>
     <use x="562.207031" xlink:href="#DejaVuSans-72"/>
     <use x="603.304688" xlink:href="#DejaVuSans-67"/>
     <use x="666.78125" xlink:href="#DejaVuSans-65"/>
     <use x="728.304688" xlink:href="#DejaVuSans-74"/>
     <use x="767.513672" xlink:href="#DejaVuSans-73"/>
    </g>
   </g>
   <g id="text_14">
    <!-- v0.0.0 -->
    <g style="fill:#808080;" transform="translate(239.51475 286.355965)scale(0.1 -0.1)">
     <use xlink:href="#DejaVuSans-76"/>
     <use x="59.179688" xlink:href="#DejaVuSans-30"/>
     <use x="122.802734" xlink:href="#DejaVuSans-2e"/>
     <use x="154.589844" xlink:href="#DejaVuSans-30"/>
     <use x="218.212891" xlink:href="#DejaVuSans-2e"/>
     <use x="250" xlink:href="#DejaVuSans-30"/>
    </g>
   </g>
   <g id="legend_1">
    <g id="patch_7">
     <path d="M 73.72 140.270228 
L 157.660625 140.270228 
Q 161.660625 140.270228 161.660625 136.270228 
L 161.660625 20.845228 
Q 161.660625 16.845228 157.660625 16.845228 
L 73.72 16.845228 
Q 69.72 16.845228 69.72 20.845228 
L 69.72 136.270228 
Q 69.72 140.270228 73.72 140.270228 
z
" style="fill:#ffffff;opacity:0.2;stroke:#cccccc;stroke-linejoin:miter;"/>
    </g>
    <g id="line2d_139">
     <path d="M 77.72 33.042103 
L 117.72 33.042103 
" style="fill:none;stroke:#000000;stroke-linecap:square;stroke-width:1.5;"/>
    </g>
    <g id="line2d_140"/>
    <g id="text_15">
     <!-- 1 -->
     <g transform="translate(133.72 40.042103)scale(0.2 -0.2)">
      <use xlink:href="#DejaVuSans-31"/>
     </g>
    </g>
    <g id="line2d_141">
     <path d="M 77.72 62.398353 
L 117.72 62.398353 
" style="fill:none;stroke:#00bfbf;stroke-linecap:square;stroke-width:1.5;"/>
    </g>
    <g id="line2d_142"/>
    <g id="text_16">
     <!-- -1 -->
     <g transform="translate(133.72 69.398353)scale(0.2 -0.2)">
      <use xlink:href="#DejaVuSans-2d"/>
      <use x="36.083984" xlink:href="#DejaVuSans-31"/>
     </g>
    </g>
    <g id="line2d_143">
     <path d="M 77.72 91.754603 
L 117.72 91.754603 
" style="fill:none;stroke:#bf00bf;stroke-linecap:square;stroke-width:1.5;"/>
    </g>
    <g id="line2d_144"/>
    <g id="text_17">
     <!-- -4 -->
     <g transform="translate(133.72 98.754603)scale(0.2 -0.2)">
      <use xlink:href="#DejaVuSans-2d"/>
      <use x="36.083984" xlink:href="#DejaVuSans-34"/>
     </g>
    </g>
    <g id="line2d_145">
     <path d="M 77.72 121.110853 
L 117.72 121.110853 
" style="fill:none;stroke:#ff0000;stroke-linecap:square;stroke-width:3;"/>
    </g>
    <g id="line2d_146"/>
    <g id="text_18">
     <!-- -8 -->
     <g transform="translate(133.72 128.110853)scale(0.2 -0.2)">
      <use xlink:href="#DejaVuSans-2d"/>
      <use x="36.083984" xlink:href="#DejaVuSans-38"/>
     </g>
    </g>
   </g>
  </g>
 </g>
 <defs>
  <clipPath id="p7879d741a2">
   <rect height="284.434772" width="390.952" x="59.72" y="6.845228"/>
  </clipPath>
 </defs>
</svg>
