<?xml version="1.0" encoding="utf-8" standalone="no"?>
<!DOCTYPE svg PUBLIC "-//W3C//DTD SVG 1.1//EN"
  "http://www.w3.org/Graphics/SVG/1.1/DTD/svg11.dtd">
<!-- Created with matplotlib (http://matplotlib.org/) -->
<svg height="345pt" version="1.1" viewBox="0 0 460 345" width="460pt" xmlns="http://www.w3.org/2000/svg" xmlns:xlink="http://www.w3.org/1999/xlink">
 <defs>
  <style type="text/css">
*{stroke-linecap:butt;stroke-linejoin:round;}
  </style>
 </defs>
 <g id="figure_1">
  <g id="patch_1">
   <path d="M 0 345.6 
L 460.8 345.6 
L 460.8 0 
L 0 0 
z
" style="fill:#ffffff;"/>
  </g>
  <g id="axes_1">
   <g id="patch_2">
    <path d="M 56.12 294.88 
L 333.168 294.88 
L 333.168 6.845228 
L 56.12 6.845228 
z
" style="fill:#ffffff;"/>
   </g>
   <g id="line2d_1">
    <path d="M 16.541714 294.88 
L 16.541714 292.084089 
L 76.641893 292.084089 
L 76.641893 290.686133 
L 85.732 290.686133 
L 85.732 289.288178 
L 90.05175 289.288178 
L 90.05175 287.890222 
L 90.753425 287.890222 
L 90.753425 286.492266 
L 92.287186 286.492266 
L 92.287186 285.094311 
L 96.038666 285.094311 
L 96.038666 283.696355 
L 99.533818 283.696355 
L 99.533818 282.2984 
L 100.470395 282.2984 
L 100.470395 280.900444 
L 100.983527 280.900444 
L 100.983527 279.502488 
L 102.436953 279.502488 
L 102.436953 278.104533 
L 105.020098 278.104533 
L 105.020098 276.706577 
L 105.801534 276.706577 
L 105.801534 275.308622 
L 107.612537 275.308622 
L 107.612537 273.910666 
L 107.868452 273.910666 
L 107.868452 272.51271 
L 109.864733 272.51271 
L 109.864733 271.114755 
L 110.014853 271.114755 
L 110.014853 269.716799 
L 111.379177 269.716799 
L 111.379177 266.920888 
L 112.960856 266.920888 
L 112.960856 265.522932 
L 113.579218 265.522932 
L 113.579218 264.124977 
L 116.010559 264.124977 
L 116.010559 262.727021 
L 116.682681 262.727021 
L 116.682681 261.329066 
L 118.279397 261.329066 
L 118.279397 258.533154 
L 120.034863 258.533154 
L 120.034863 257.135199 
L 120.487764 257.135199 
L 120.487764 255.737243 
L 121.929105 255.737243 
L 121.929105 254.339288 
L 122.767741 254.339288 
L 122.767741 252.941332 
L 123.499282 252.941332 
L 123.499282 251.543376 
L 125.000572 251.543376 
L 125.000572 250.145421 
L 125.402121 250.145421 
L 125.402121 248.747465 
L 125.794504 248.747465 
L 125.794504 247.34951 
L 127.142761 247.34951 
L 127.142761 245.951554 
L 127.819033 245.951554 
L 127.819033 244.553598 
L 128.13443 244.553598 
L 128.13443 243.155643 
L 128.596932 243.155643 
L 128.596932 241.757687 
L 128.798561 241.757687 
L 128.798561 240.359732 
L 129.022601 240.359732 
L 129.022601 238.961776 
L 129.796341 238.961776 
L 129.890654 236.165865 
L 130.262818 236.165865 
L 130.262818 234.767909 
L 131.093782 234.767909 
L 131.181257 230.574042 
L 131.718109 230.574042 
L 131.718109 229.176087 
L 131.990784 229.176087 
L 131.990784 227.778131 
L 132.259201 227.778131 
L 132.259201 226.380175 
L 132.624067 226.380175 
L 132.624067 224.98222 
L 132.922316 224.98222 
L 132.922316 223.584264 
L 133.196088 223.584264 
L 133.196088 222.186309 
L 133.541793 222.186309 
L 133.636601 219.390397 
L 133.862029 219.390397 
L 133.862029 217.992442 
L 133.973644 217.992442 
L 134.084539 215.196531 
L 134.322384 215.196531 
L 134.322384 213.798575 
L 134.53905 213.798575 
L 134.53905 212.400619 
L 134.664189 212.400619 
L 134.681992 209.604708 
L 135.155828 209.604708 
L 135.259374 205.410841 
L 135.413533 205.410841 
L 135.464614 202.61493 
L 135.667432 202.61493 
L 135.667432 201.216975 
L 135.934186 201.216975 
L 135.983745 198.421063 
L 136.09883 198.421063 
L 136.09883 197.023108 
L 136.359022 197.023108 
L 136.359022 195.625152 
L 136.66297 195.625152 
L 136.67882 191.431285 
L 136.961637 191.431285 
L 137.054885 187.237419 
L 137.11677 187.237419 
L 137.132207 181.645596 
L 137.270516 181.645596 
L 137.377325 177.451729 
L 137.498586 177.451729 
L 137.588973 173.257863 
L 137.798047 173.257863 
L 137.886877 169.063996 
L 137.931121 169.063996 
L 137.945844 166.268085 
L 138.136099 166.268085 
L 138.223203 156.482395 
L 138.281029 156.482395 
L 138.367404 149.492617 
L 138.410429 149.492617 
L 138.410429 148.094662 
L 138.652226 148.094662 
L 138.652226 146.696706 
L 138.862788 146.696706 
L 138.862788 145.298751 
L 139.001743 145.298751 
L 139.015577 142.502839 
L 139.139583 142.502839 
L 139.22176 139.706928 
L 139.344294 139.706928 
L 139.4255 136.911017 
L 139.546595 136.911017 
L 139.600142 134.115106 
L 139.666842 134.115106 
L 139.720016 129.921239 
L 139.799471 129.921239 
L 139.904842 127.125328 
L 139.94419 127.125328 
L 140.035654 121.533505 
L 140.061698 121.533505 
L 140.165478 117.339639 
L 140.217135 117.339639 
L 140.319984 110.349861 
L 140.332797 110.349861 
L 140.434959 101.962127 
L 140.447686 101.962127 
L 140.447686 100.564171 
L 141.035496 100.564171 
L 141.035496 99.166216 
L 141.804906 99.166216 
L 141.804906 97.76826 
L 142.303162 97.76826 
L 142.303162 96.370304 
L 143.051826 96.370304 
L 143.051826 94.972349 
L 143.473058 94.972349 
L 143.473058 93.574393 
L 143.65349 93.574393 
L 143.65349 92.176438 
L 144.295937 92.176438 
L 144.295937 90.778482 
L 144.915234 90.778482 
L 144.915234 89.380526 
L 145.34158 89.380526 
L 145.34158 87.982571 
L 145.766946 87.982571 
L 145.766946 86.584615 
L 146.182039 86.584615 
L 146.182039 85.18666 
L 146.631793 85.18666 
L 146.631793 83.788704 
L 147.225166 83.788704 
L 147.225166 82.390748 
L 147.657127 82.390748 
L 147.657127 80.992793 
L 147.922722 80.992793 
L 147.922722 79.594837 
L 148.441909 79.594837 
L 148.441909 78.196882 
L 149.007841 78.196882 
L 149.007841 76.798926 
L 149.367465 76.798926 
L 149.367465 75.40097 
L 149.778964 75.40097 
L 149.778964 74.003015 
L 150.108469 74.003015 
L 150.108469 72.605059 
L 150.353304 72.605059 
L 150.353304 71.207104 
L 150.672081 71.207104 
L 150.672081 69.809148 
L 150.998831 69.809148 
L 150.998831 68.411192 
L 151.359993 68.411192 
L 151.359993 67.013237 
L 151.85189 67.013237 
L 151.85189 65.615281 
L 152.714537 65.615281 
L 152.714537 64.217326 
L 155.102215 64.217326 
L 155.102215 62.81937 
L 155.514869 62.81937 
L 155.514869 61.421414 
L 159.558827 61.421414 
L 159.558827 60.023459 
L 159.923235 60.023459 
L 159.923235 58.625503 
L 160.71987 58.625503 
L 160.71987 57.227548 
L 161.432494 57.227548 
L 161.432494 55.829592 
L 161.763305 55.829592 
L 161.763305 54.431636 
L 162.231768 54.431636 
L 162.231768 53.033681 
L 163.277615 53.033681 
L 163.361684 50.23777 
L 163.418617 50.23777 
L 163.418617 20.880702 
L 164.032738 20.880702 
L 164.081061 18.084791 
L 164.228411 18.084791 
L 164.228411 16.686835 
L 165.168661 16.686835 
L 165.168661 15.28888 
L 165.399626 15.28888 
L 165.399626 13.890924 
L 165.527269 13.890924 
L 165.609878 11.095013 
L 165.765167 11.095013 
L 165.765167 9.697057 
L 333.168 9.697057 
L 333.168 9.697057 
" style="fill:none;stroke:#f5deb3;stroke-linecap:square;stroke-width:4;"/>
   </g>
   <g id="line2d_2">
    <defs>
     <path d="M -0 7.778175 
L 7.778175 0 
L 0 -7.778175 
L -7.778175 -0 
z
" id="medf6fcce7f" style="stroke:#f5deb3;stroke-linejoin:miter;stroke-width:1.5;"/>
    </defs>
    <g>
     <use style="fill:#f5deb3;stroke:#f5deb3;stroke-linejoin:miter;stroke-width:1.5;" x="128.596932" xlink:href="#medf6fcce7f" y="243.155643"/>
     <use style="fill:#f5deb3;stroke:#f5deb3;stroke-linejoin:miter;stroke-width:1.5;" x="140.268636" xlink:href="#medf6fcce7f" y="113.145772"/>
     <use style="fill:#f5deb3;stroke:#f5deb3;stroke-linejoin:miter;stroke-width:1.5;" x="163.418617" xlink:href="#medf6fcce7f" y="50.23777"/>
     <use style="fill:#f5deb3;stroke:#f5deb3;stroke-linejoin:miter;stroke-width:1.5;" x="165.765167" xlink:href="#medf6fcce7f" y="9.697057"/>
     <use style="fill:#f5deb3;stroke:#f5deb3;stroke-linejoin:miter;stroke-width:1.5;" x="165.765167" xlink:href="#medf6fcce7f" y="9.697057"/>
     <use style="fill:#f5deb3;stroke:#f5deb3;stroke-linejoin:miter;stroke-width:1.5;" x="333.168" xlink:href="#medf6fcce7f" y="9.697057"/>
    </g>
   </g>
   <g id="line2d_3">
    <path style="fill:none;stroke:#f5deb3;stroke-linecap:square;stroke-width:4;"/>
    <g/>
   </g>
   <g id="line2d_4">
    <path d="M 333.168 9.697057 
L 363.64328 15.400716 
" style="fill:none;stroke:#f5deb3;stroke-linecap:square;stroke-width:4;"/>
    <g>
     <use style="fill:#f5deb3;stroke:#f5deb3;stroke-linejoin:miter;stroke-width:1.5;" x="333.168" xlink:href="#medf6fcce7f" y="9.697057"/>
     <use style="fill:#f5deb3;stroke:#f5deb3;stroke-linejoin:miter;stroke-width:1.5;" x="363.64328" xlink:href="#medf6fcce7f" y="15.400716"/>
    </g>
   </g>
   <g id="matplotlib.axis_1">
    <g id="xtick_1">
     <g id="line2d_5">
      <path clip-path="url(#pf5d5324f87)" d="M 56.12 294.88 
L 56.12 6.845228 
" style="fill:none;stroke:#b0b0b0;stroke-linecap:square;stroke-width:0.8;"/>
     </g>
     <g id="line2d_6">
      <defs>
       <path d="M 0 0 
L 0 3.5 
" id="mfc6524efeb" style="stroke:#000000;stroke-width:0.8;"/>
      </defs>
      <g>
       <use style="stroke:#000000;stroke-width:0.8;" x="56.12" xlink:href="#mfc6524efeb" y="294.88"/>
      </g>
     </g>
     <g id="text_1">
      <!-- 0 -->
      <defs>
       <path d="M 31.78125 66.40625 
Q 24.171875 66.40625 20.328125 58.90625 
Q 16.5 51.421875 16.5 36.375 
Q 16.5 21.390625 20.328125 13.890625 
Q 24.171875 6.390625 31.78125 6.390625 
Q 39.453125 6.390625 43.28125 13.890625 
Q 47.125 21.390625 47.125 36.375 
Q 47.125 51.421875 43.28125 58.90625 
Q 39.453125 66.40625 31.78125 66.40625 
z
M 31.78125 74.21875 
Q 44.046875 74.21875 50.515625 64.515625 
Q 56.984375 54.828125 56.984375 36.375 
Q 56.984375 17.96875 50.515625 8.265625 
Q 44.046875 -1.421875 31.78125 -1.421875 
Q 19.53125 -1.421875 13.0625 8.265625 
Q 6.59375 17.96875 6.59375 36.375 
Q 6.59375 54.828125 13.0625 64.515625 
Q 19.53125 74.21875 31.78125 74.21875 
z
" id="DejaVuSans-30"/>
      </defs>
      <g transform="translate(49.7575 317.076875)scale(0.2 -0.2)">
       <use xlink:href="#DejaVuSans-30"/>
      </g>
     </g>
    </g>
    <g id="xtick_2">
     <g id="line2d_7">
      <path clip-path="url(#pf5d5324f87)" d="M 135.276571 294.88 
L 135.276571 6.845228 
" style="fill:none;stroke:#b0b0b0;stroke-linecap:square;stroke-width:0.8;"/>
     </g>
     <g id="line2d_8">
      <g>
       <use style="stroke:#000000;stroke-width:0.8;" x="135.276571" xlink:href="#mfc6524efeb" y="294.88"/>
      </g>
     </g>
     <g id="text_2">
      <!-- 2 -->
      <defs>
       <path d="M 19.1875 8.296875 
L 53.609375 8.296875 
L 53.609375 0 
L 7.328125 0 
L 7.328125 8.296875 
Q 12.9375 14.109375 22.625 23.890625 
Q 32.328125 33.6875 34.8125 36.53125 
Q 39.546875 41.84375 41.421875 45.53125 
Q 43.3125 49.21875 43.3125 52.78125 
Q 43.3125 58.59375 39.234375 62.25 
Q 35.15625 65.921875 28.609375 65.921875 
Q 23.96875 65.921875 18.8125 64.3125 
Q 13.671875 62.703125 7.8125 59.421875 
L 7.8125 69.390625 
Q 13.765625 71.78125 18.9375 73 
Q 24.125 74.21875 28.421875 74.21875 
Q 39.75 74.21875 46.484375 68.546875 
Q 53.21875 62.890625 53.21875 53.421875 
Q 53.21875 48.921875 51.53125 44.890625 
Q 49.859375 40.875 45.40625 35.40625 
Q 44.1875 33.984375 37.640625 27.21875 
Q 31.109375 20.453125 19.1875 8.296875 
z
" id="DejaVuSans-32"/>
      </defs>
      <g transform="translate(128.914071 317.076875)scale(0.2 -0.2)">
       <use xlink:href="#DejaVuSans-32"/>
      </g>
     </g>
    </g>
    <g id="xtick_3">
     <g id="line2d_9">
      <path clip-path="url(#pf5d5324f87)" d="M 214.433143 294.88 
L 214.433143 6.845228 
" style="fill:none;stroke:#b0b0b0;stroke-linecap:square;stroke-width:0.8;"/>
     </g>
     <g id="line2d_10">
      <g>
       <use style="stroke:#000000;stroke-width:0.8;" x="214.433143" xlink:href="#mfc6524efeb" y="294.88"/>
      </g>
     </g>
     <g id="text_3">
      <!-- 4 -->
      <defs>
       <path d="M 37.796875 64.3125 
L 12.890625 25.390625 
L 37.796875 25.390625 
z
M 35.203125 72.90625 
L 47.609375 72.90625 
L 47.609375 25.390625 
L 58.015625 25.390625 
L 58.015625 17.1875 
L 47.609375 17.1875 
L 47.609375 0 
L 37.796875 0 
L 37.796875 17.1875 
L 4.890625 17.1875 
L 4.890625 26.703125 
z
" id="DejaVuSans-34"/>
      </defs>
      <g transform="translate(208.070643 317.076875)scale(0.2 -0.2)">
       <use xlink:href="#DejaVuSans-34"/>
      </g>
     </g>
    </g>
    <g id="xtick_4">
     <g id="line2d_11">
      <path clip-path="url(#pf5d5324f87)" d="M 293.589714 294.88 
L 293.589714 6.845228 
" style="fill:none;stroke:#b0b0b0;stroke-linecap:square;stroke-width:0.8;"/>
     </g>
     <g id="line2d_12">
      <g>
       <use style="stroke:#000000;stroke-width:0.8;" x="293.589714" xlink:href="#mfc6524efeb" y="294.88"/>
      </g>
     </g>
     <g id="text_4">
      <!-- 6 -->
      <defs>
       <path d="M 33.015625 40.375 
Q 26.375 40.375 22.484375 35.828125 
Q 18.609375 31.296875 18.609375 23.390625 
Q 18.609375 15.53125 22.484375 10.953125 
Q 26.375 6.390625 33.015625 6.390625 
Q 39.65625 6.390625 43.53125 10.953125 
Q 47.40625 15.53125 47.40625 23.390625 
Q 47.40625 31.296875 43.53125 35.828125 
Q 39.65625 40.375 33.015625 40.375 
z
M 52.59375 71.296875 
L 52.59375 62.3125 
Q 48.875 64.0625 45.09375 64.984375 
Q 41.3125 65.921875 37.59375 65.921875 
Q 27.828125 65.921875 22.671875 59.328125 
Q 17.53125 52.734375 16.796875 39.40625 
Q 19.671875 43.65625 24.015625 45.921875 
Q 28.375 48.1875 33.59375 48.1875 
Q 44.578125 48.1875 50.953125 41.515625 
Q 57.328125 34.859375 57.328125 23.390625 
Q 57.328125 12.15625 50.6875 5.359375 
Q 44.046875 -1.421875 33.015625 -1.421875 
Q 20.359375 -1.421875 13.671875 8.265625 
Q 6.984375 17.96875 6.984375 36.375 
Q 6.984375 53.65625 15.1875 63.9375 
Q 23.390625 74.21875 37.203125 74.21875 
Q 40.921875 74.21875 44.703125 73.484375 
Q 48.484375 72.75 52.59375 71.296875 
z
" id="DejaVuSans-36"/>
      </defs>
      <g transform="translate(287.227214 317.076875)scale(0.2 -0.2)">
       <use xlink:href="#DejaVuSans-36"/>
      </g>
     </g>
    </g>
    <g id="xtick_5">
     <g id="line2d_13">
      <path clip-path="url(#pf5d5324f87)" d="M 56.12 294.88 
L 56.12 6.845228 
" style="fill:none;stroke:#b0b0b0;stroke-linecap:square;stroke-width:0.8;"/>
     </g>
     <g id="line2d_14">
      <defs>
       <path d="M 0 0 
L 0 2 
" id="m026699491f" style="stroke:#000000;stroke-width:0.6;"/>
      </defs>
      <g>
       <use style="stroke:#000000;stroke-width:0.6;" x="56.12" xlink:href="#m026699491f" y="294.88"/>
      </g>
     </g>
    </g>
    <g id="xtick_6">
     <g id="line2d_15">
      <path clip-path="url(#pf5d5324f87)" d="M 95.698286 294.88 
L 95.698286 6.845228 
" style="fill:none;stroke:#b0b0b0;stroke-linecap:square;stroke-width:0.8;"/>
     </g>
     <g id="line2d_16">
      <g>
       <use style="stroke:#000000;stroke-width:0.6;" x="95.698286" xlink:href="#m026699491f" y="294.88"/>
      </g>
     </g>
    </g>
    <g id="xtick_7">
     <g id="line2d_17">
      <path clip-path="url(#pf5d5324f87)" d="M 135.276571 294.88 
L 135.276571 6.845228 
" style="fill:none;stroke:#b0b0b0;stroke-linecap:square;stroke-width:0.8;"/>
     </g>
     <g id="line2d_18">
      <g>
       <use style="stroke:#000000;stroke-width:0.6;" x="135.276571" xlink:href="#m026699491f" y="294.88"/>
      </g>
     </g>
    </g>
    <g id="xtick_8">
     <g id="line2d_19">
      <path clip-path="url(#pf5d5324f87)" d="M 174.854857 294.88 
L 174.854857 6.845228 
" style="fill:none;stroke:#b0b0b0;stroke-linecap:square;stroke-width:0.8;"/>
     </g>
     <g id="line2d_20">
      <g>
       <use style="stroke:#000000;stroke-width:0.6;" x="174.854857" xlink:href="#m026699491f" y="294.88"/>
      </g>
     </g>
    </g>
    <g id="xtick_9">
     <g id="line2d_21">
      <path clip-path="url(#pf5d5324f87)" d="M 214.433143 294.88 
L 214.433143 6.845228 
" style="fill:none;stroke:#b0b0b0;stroke-linecap:square;stroke-width:0.8;"/>
     </g>
     <g id="line2d_22">
      <g>
       <use style="stroke:#000000;stroke-width:0.6;" x="214.433143" xlink:href="#m026699491f" y="294.88"/>
      </g>
     </g>
    </g>
    <g id="xtick_10">
     <g id="line2d_23">
      <path clip-path="url(#pf5d5324f87)" d="M 254.011429 294.88 
L 254.011429 6.845228 
" style="fill:none;stroke:#b0b0b0;stroke-linecap:square;stroke-width:0.8;"/>
     </g>
     <g id="line2d_24">
      <g>
       <use style="stroke:#000000;stroke-width:0.6;" x="254.011429" xlink:href="#m026699491f" y="294.88"/>
      </g>
     </g>
    </g>
    <g id="xtick_11">
     <g id="line2d_25">
      <path clip-path="url(#pf5d5324f87)" d="M 293.589714 294.88 
L 293.589714 6.845228 
" style="fill:none;stroke:#b0b0b0;stroke-linecap:square;stroke-width:0.8;"/>
     </g>
     <g id="line2d_26">
      <g>
       <use style="stroke:#000000;stroke-width:0.6;" x="293.589714" xlink:href="#m026699491f" y="294.88"/>
      </g>
     </g>
    </g>
    <g id="xtick_12">
     <g id="line2d_27">
      <path clip-path="url(#pf5d5324f87)" d="M 333.168 294.88 
L 333.168 6.845228 
" style="fill:none;stroke:#b0b0b0;stroke-linecap:square;stroke-width:0.8;"/>
     </g>
     <g id="line2d_28">
      <g>
       <use style="stroke:#000000;stroke-width:0.6;" x="333.168" xlink:href="#m026699491f" y="294.88"/>
      </g>
     </g>
    </g>
    <g id="text_5">
     <!-- log10(# f-evals / dimension) -->
     <defs>
      <path d="M 9.421875 75.984375 
L 18.40625 75.984375 
L 18.40625 0 
L 9.421875 0 
z
" id="DejaVuSans-6c"/>
      <path d="M 30.609375 48.390625 
Q 23.390625 48.390625 19.1875 42.75 
Q 14.984375 37.109375 14.984375 27.296875 
Q 14.984375 17.484375 19.15625 11.84375 
Q 23.34375 6.203125 30.609375 6.203125 
Q 37.796875 6.203125 41.984375 11.859375 
Q 46.1875 17.53125 46.1875 27.296875 
Q 46.1875 37.015625 41.984375 42.703125 
Q 37.796875 48.390625 30.609375 48.390625 
z
M 30.609375 56 
Q 42.328125 56 49.015625 48.375 
Q 55.71875 40.765625 55.71875 27.296875 
Q 55.71875 13.875 49.015625 6.21875 
Q 42.328125 -1.421875 30.609375 -1.421875 
Q 18.84375 -1.421875 12.171875 6.21875 
Q 5.515625 13.875 5.515625 27.296875 
Q 5.515625 40.765625 12.171875 48.375 
Q 18.84375 56 30.609375 56 
z
" id="DejaVuSans-6f"/>
      <path d="M 45.40625 27.984375 
Q 45.40625 37.75 41.375 43.109375 
Q 37.359375 48.484375 30.078125 48.484375 
Q 22.859375 48.484375 18.828125 43.109375 
Q 14.796875 37.75 14.796875 27.984375 
Q 14.796875 18.265625 18.828125 12.890625 
Q 22.859375 7.515625 30.078125 7.515625 
Q 37.359375 7.515625 41.375 12.890625 
Q 45.40625 18.265625 45.40625 27.984375 
z
M 54.390625 6.78125 
Q 54.390625 -7.171875 48.1875 -13.984375 
Q 42 -20.796875 29.203125 -20.796875 
Q 24.46875 -20.796875 20.265625 -20.09375 
Q 16.0625 -19.390625 12.109375 -17.921875 
L 12.109375 -9.1875 
Q 16.0625 -11.328125 19.921875 -12.34375 
Q 23.78125 -13.375 27.78125 -13.375 
Q 36.625 -13.375 41.015625 -8.765625 
Q 45.40625 -4.15625 45.40625 5.171875 
L 45.40625 9.625 
Q 42.625 4.78125 38.28125 2.390625 
Q 33.9375 0 27.875 0 
Q 17.828125 0 11.671875 7.65625 
Q 5.515625 15.328125 5.515625 27.984375 
Q 5.515625 40.671875 11.671875 48.328125 
Q 17.828125 56 27.875 56 
Q 33.9375 56 38.28125 53.609375 
Q 42.625 51.21875 45.40625 46.390625 
L 45.40625 54.6875 
L 54.390625 54.6875 
z
" id="DejaVuSans-67"/>
      <path d="M 12.40625 8.296875 
L 28.515625 8.296875 
L 28.515625 63.921875 
L 10.984375 60.40625 
L 10.984375 69.390625 
L 28.421875 72.90625 
L 38.28125 72.90625 
L 38.28125 8.296875 
L 54.390625 8.296875 
L 54.390625 0 
L 12.40625 0 
z
" id="DejaVuSans-31"/>
      <path d="M 31 75.875 
Q 24.46875 64.65625 21.28125 53.65625 
Q 18.109375 42.671875 18.109375 31.390625 
Q 18.109375 20.125 21.3125 9.0625 
Q 24.515625 -2 31 -13.1875 
L 23.1875 -13.1875 
Q 15.875 -1.703125 12.234375 9.375 
Q 8.59375 20.453125 8.59375 31.390625 
Q 8.59375 42.28125 12.203125 53.3125 
Q 15.828125 64.359375 23.1875 75.875 
z
" id="DejaVuSans-28"/>
      <path d="M 51.125 44 
L 36.921875 44 
L 32.8125 27.6875 
L 47.125 27.6875 
z
M 43.796875 71.78125 
L 38.71875 51.515625 
L 52.984375 51.515625 
L 58.109375 71.78125 
L 65.921875 71.78125 
L 60.890625 51.515625 
L 76.125 51.515625 
L 76.125 44 
L 58.984375 44 
L 54.984375 27.6875 
L 70.515625 27.6875 
L 70.515625 20.21875 
L 53.078125 20.21875 
L 48 0 
L 40.1875 0 
L 45.21875 20.21875 
L 30.90625 20.21875 
L 25.875 0 
L 18.015625 0 
L 23.09375 20.21875 
L 7.71875 20.21875 
L 7.71875 27.6875 
L 24.90625 27.6875 
L 29 44 
L 13.28125 44 
L 13.28125 51.515625 
L 30.90625 51.515625 
L 35.890625 71.78125 
z
" id="DejaVuSans-23"/>
      <path id="DejaVuSans-20"/>
      <path d="M 37.109375 75.984375 
L 37.109375 68.5 
L 28.515625 68.5 
Q 23.6875 68.5 21.796875 66.546875 
Q 19.921875 64.59375 19.921875 59.515625 
L 19.921875 54.6875 
L 34.71875 54.6875 
L 34.71875 47.703125 
L 19.921875 47.703125 
L 19.921875 0 
L 10.890625 0 
L 10.890625 47.703125 
L 2.296875 47.703125 
L 2.296875 54.6875 
L 10.890625 54.6875 
L 10.890625 58.5 
Q 10.890625 67.625 15.140625 71.796875 
Q 19.390625 75.984375 28.609375 75.984375 
z
" id="DejaVuSans-66"/>
      <path d="M 4.890625 31.390625 
L 31.203125 31.390625 
L 31.203125 23.390625 
L 4.890625 23.390625 
z
" id="DejaVuSans-2d"/>
      <path d="M 56.203125 29.59375 
L 56.203125 25.203125 
L 14.890625 25.203125 
Q 15.484375 15.921875 20.484375 11.0625 
Q 25.484375 6.203125 34.421875 6.203125 
Q 39.59375 6.203125 44.453125 7.46875 
Q 49.3125 8.734375 54.109375 11.28125 
L 54.109375 2.78125 
Q 49.265625 0.734375 44.1875 -0.34375 
Q 39.109375 -1.421875 33.890625 -1.421875 
Q 20.796875 -1.421875 13.15625 6.1875 
Q 5.515625 13.8125 5.515625 26.8125 
Q 5.515625 40.234375 12.765625 48.109375 
Q 20.015625 56 32.328125 56 
Q 43.359375 56 49.78125 48.890625 
Q 56.203125 41.796875 56.203125 29.59375 
z
M 47.21875 32.234375 
Q 47.125 39.59375 43.09375 43.984375 
Q 39.0625 48.390625 32.421875 48.390625 
Q 24.90625 48.390625 20.390625 44.140625 
Q 15.875 39.890625 15.1875 32.171875 
z
" id="DejaVuSans-65"/>
      <path d="M 2.984375 54.6875 
L 12.5 54.6875 
L 29.59375 8.796875 
L 46.6875 54.6875 
L 56.203125 54.6875 
L 35.6875 0 
L 23.484375 0 
z
" id="DejaVuSans-76"/>
      <path d="M 34.28125 27.484375 
Q 23.390625 27.484375 19.1875 25 
Q 14.984375 22.515625 14.984375 16.5 
Q 14.984375 11.71875 18.140625 8.90625 
Q 21.296875 6.109375 26.703125 6.109375 
Q 34.1875 6.109375 38.703125 11.40625 
Q 43.21875 16.703125 43.21875 25.484375 
L 43.21875 27.484375 
z
M 52.203125 31.203125 
L 52.203125 0 
L 43.21875 0 
L 43.21875 8.296875 
Q 40.140625 3.328125 35.546875 0.953125 
Q 30.953125 -1.421875 24.3125 -1.421875 
Q 15.921875 -1.421875 10.953125 3.296875 
Q 6 8.015625 6 15.921875 
Q 6 25.140625 12.171875 29.828125 
Q 18.359375 34.515625 30.609375 34.515625 
L 43.21875 34.515625 
L 43.21875 35.40625 
Q 43.21875 41.609375 39.140625 45 
Q 35.0625 48.390625 27.6875 48.390625 
Q 23 48.390625 18.546875 47.265625 
Q 14.109375 46.140625 10.015625 43.890625 
L 10.015625 52.203125 
Q 14.9375 54.109375 19.578125 55.046875 
Q 24.21875 56 28.609375 56 
Q 40.484375 56 46.34375 49.84375 
Q 52.203125 43.703125 52.203125 31.203125 
z
" id="DejaVuSans-61"/>
      <path d="M 44.28125 53.078125 
L 44.28125 44.578125 
Q 40.484375 46.53125 36.375 47.5 
Q 32.28125 48.484375 27.875 48.484375 
Q 21.1875 48.484375 17.84375 46.4375 
Q 14.5 44.390625 14.5 40.28125 
Q 14.5 37.15625 16.890625 35.375 
Q 19.28125 33.59375 26.515625 31.984375 
L 29.59375 31.296875 
Q 39.15625 29.25 43.1875 25.515625 
Q 47.21875 21.78125 47.21875 15.09375 
Q 47.21875 7.46875 41.1875 3.015625 
Q 35.15625 -1.421875 24.609375 -1.421875 
Q 20.21875 -1.421875 15.453125 -0.5625 
Q 10.6875 0.296875 5.421875 2 
L 5.421875 11.28125 
Q 10.40625 8.6875 15.234375 7.390625 
Q 20.0625 6.109375 24.8125 6.109375 
Q 31.15625 6.109375 34.5625 8.28125 
Q 37.984375 10.453125 37.984375 14.40625 
Q 37.984375 18.0625 35.515625 20.015625 
Q 33.0625 21.96875 24.703125 23.78125 
L 21.578125 24.515625 
Q 13.234375 26.265625 9.515625 29.90625 
Q 5.8125 33.546875 5.8125 39.890625 
Q 5.8125 47.609375 11.28125 51.796875 
Q 16.75 56 26.8125 56 
Q 31.78125 56 36.171875 55.265625 
Q 40.578125 54.546875 44.28125 53.078125 
z
" id="DejaVuSans-73"/>
      <path d="M 25.390625 72.90625 
L 33.6875 72.90625 
L 8.296875 -9.28125 
L 0 -9.28125 
z
" id="DejaVuSans-2f"/>
      <path d="M 45.40625 46.390625 
L 45.40625 75.984375 
L 54.390625 75.984375 
L 54.390625 0 
L 45.40625 0 
L 45.40625 8.203125 
Q 42.578125 3.328125 38.25 0.953125 
Q 33.9375 -1.421875 27.875 -1.421875 
Q 17.96875 -1.421875 11.734375 6.484375 
Q 5.515625 14.40625 5.515625 27.296875 
Q 5.515625 40.1875 11.734375 48.09375 
Q 17.96875 56 27.875 56 
Q 33.9375 56 38.25 53.625 
Q 42.578125 51.265625 45.40625 46.390625 
z
M 14.796875 27.296875 
Q 14.796875 17.390625 18.875 11.75 
Q 22.953125 6.109375 30.078125 6.109375 
Q 37.203125 6.109375 41.296875 11.75 
Q 45.40625 17.390625 45.40625 27.296875 
Q 45.40625 37.203125 41.296875 42.84375 
Q 37.203125 48.484375 30.078125 48.484375 
Q 22.953125 48.484375 18.875 42.84375 
Q 14.796875 37.203125 14.796875 27.296875 
z
" id="DejaVuSans-64"/>
      <path d="M 9.421875 54.6875 
L 18.40625 54.6875 
L 18.40625 0 
L 9.421875 0 
z
M 9.421875 75.984375 
L 18.40625 75.984375 
L 18.40625 64.59375 
L 9.421875 64.59375 
z
" id="DejaVuSans-69"/>
      <path d="M 52 44.1875 
Q 55.375 50.25 60.0625 53.125 
Q 64.75 56 71.09375 56 
Q 79.640625 56 84.28125 50.015625 
Q 88.921875 44.046875 88.921875 33.015625 
L 88.921875 0 
L 79.890625 0 
L 79.890625 32.71875 
Q 79.890625 40.578125 77.09375 44.375 
Q 74.3125 48.1875 68.609375 48.1875 
Q 61.625 48.1875 57.5625 43.546875 
Q 53.515625 38.921875 53.515625 30.90625 
L 53.515625 0 
L 44.484375 0 
L 44.484375 32.71875 
Q 44.484375 40.625 41.703125 44.40625 
Q 38.921875 48.1875 33.109375 48.1875 
Q 26.21875 48.1875 22.15625 43.53125 
Q 18.109375 38.875 18.109375 30.90625 
L 18.109375 0 
L 9.078125 0 
L 9.078125 54.6875 
L 18.109375 54.6875 
L 18.109375 46.1875 
Q 21.1875 51.21875 25.484375 53.609375 
Q 29.78125 56 35.6875 56 
Q 41.65625 56 45.828125 52.96875 
Q 50 49.953125 52 44.1875 
z
" id="DejaVuSans-6d"/>
      <path d="M 54.890625 33.015625 
L 54.890625 0 
L 45.90625 0 
L 45.90625 32.71875 
Q 45.90625 40.484375 42.875 44.328125 
Q 39.84375 48.1875 33.796875 48.1875 
Q 26.515625 48.1875 22.3125 43.546875 
Q 18.109375 38.921875 18.109375 30.90625 
L 18.109375 0 
L 9.078125 0 
L 9.078125 54.6875 
L 18.109375 54.6875 
L 18.109375 46.1875 
Q 21.34375 51.125 25.703125 53.5625 
Q 30.078125 56 35.796875 56 
Q 45.21875 56 50.046875 50.171875 
Q 54.890625 44.34375 54.890625 33.015625 
z
" id="DejaVuSans-6e"/>
      <path d="M 8.015625 75.875 
L 15.828125 75.875 
Q 23.140625 64.359375 26.78125 53.3125 
Q 30.421875 42.28125 30.421875 31.390625 
Q 30.421875 20.453125 26.78125 9.375 
Q 23.140625 -1.703125 15.828125 -13.1875 
L 8.015625 -13.1875 
Q 14.5 -2 17.703125 9.0625 
Q 20.90625 20.125 20.90625 31.390625 
Q 20.90625 42.671875 17.703125 53.65625 
Q 14.5 64.65625 8.015625 75.875 
z
" id="DejaVuSans-29"/>
     </defs>
     <g transform="translate(73.803219 338.153594)scale(0.17 -0.17)">
      <use xlink:href="#DejaVuSans-6c"/>
      <use x="27.783203" xlink:href="#DejaVuSans-6f"/>
      <use x="88.964844" xlink:href="#DejaVuSans-67"/>
      <use x="152.441406" xlink:href="#DejaVuSans-31"/>
      <use x="216.064453" xlink:href="#DejaVuSans-30"/>
      <use x="279.6875" xlink:href="#DejaVuSans-28"/>
      <use x="318.701172" xlink:href="#DejaVuSans-23"/>
      <use x="402.490234" xlink:href="#DejaVuSans-20"/>
      <use x="434.277344" xlink:href="#DejaVuSans-66"/>
      <use x="469.404297" xlink:href="#DejaVuSans-2d"/>
      <use x="505.488281" xlink:href="#DejaVuSans-65"/>
      <use x="567.011719" xlink:href="#DejaVuSans-76"/>
      <use x="626.191406" xlink:href="#DejaVuSans-61"/>
      <use x="687.470703" xlink:href="#DejaVuSans-6c"/>
      <use x="715.253906" xlink:href="#DejaVuSans-73"/>
      <use x="767.353516" xlink:href="#DejaVuSans-20"/>
      <use x="799.140625" xlink:href="#DejaVuSans-2f"/>
      <use x="832.832031" xlink:href="#DejaVuSans-20"/>
      <use x="864.619141" xlink:href="#DejaVuSans-64"/>
      <use x="928.095703" xlink:href="#DejaVuSans-69"/>
      <use x="955.878906" xlink:href="#DejaVuSans-6d"/>
      <use x="1053.291016" xlink:href="#DejaVuSans-65"/>
      <use x="1114.814453" xlink:href="#DejaVuSans-6e"/>
      <use x="1178.193359" xlink:href="#DejaVuSans-73"/>
      <use x="1230.292969" xlink:href="#DejaVuSans-69"/>
      <use x="1258.076172" xlink:href="#DejaVuSans-6f"/>
      <use x="1319.257812" xlink:href="#DejaVuSans-6e"/>
      <use x="1382.636719" xlink:href="#DejaVuSans-29"/>
     </g>
    </g>
   </g>
   <g id="matplotlib.axis_2">
    <g id="ytick_1">
     <g id="line2d_29">
      <path clip-path="url(#pf5d5324f87)" d="M 56.12 294.88 
L 333.168 294.88 
" style="fill:none;stroke:#b0b0b0;stroke-linecap:square;stroke-width:0.8;"/>
     </g>
     <g id="line2d_30">
      <defs>
       <path d="M 0 0 
L -3.5 0 
" id="mcedef0cbbe" style="stroke:#000000;stroke-width:0.8;"/>
      </defs>
      <g>
       <use style="stroke:#000000;stroke-width:0.8;" x="56.12" xlink:href="#mcedef0cbbe" y="294.88"/>
      </g>
     </g>
     <g id="text_6">
      <!-- 0.0 -->
      <defs>
       <path d="M 10.6875 12.40625 
L 21 12.40625 
L 21 0 
L 10.6875 0 
z
" id="DejaVuSans-2e"/>
      </defs>
      <g transform="translate(23.675 300.95875)scale(0.16 -0.16)">
       <use xlink:href="#DejaVuSans-30"/>
       <use x="63.623047" xlink:href="#DejaVuSans-2e"/>
       <use x="95.410156" xlink:href="#DejaVuSans-30"/>
      </g>
     </g>
    </g>
    <g id="ytick_2">
     <g id="line2d_31">
      <path clip-path="url(#pf5d5324f87)" d="M 56.12 237.843411 
L 333.168 237.843411 
" style="fill:none;stroke:#b0b0b0;stroke-linecap:square;stroke-width:0.8;"/>
     </g>
     <g id="line2d_32">
      <g>
       <use style="stroke:#000000;stroke-width:0.8;" x="56.12" xlink:href="#mcedef0cbbe" y="237.843411"/>
      </g>
     </g>
     <g id="text_7">
      <!-- 0.2 -->
      <g transform="translate(23.675 243.922161)scale(0.16 -0.16)">
       <use xlink:href="#DejaVuSans-30"/>
       <use x="63.623047" xlink:href="#DejaVuSans-2e"/>
       <use x="95.410156" xlink:href="#DejaVuSans-32"/>
      </g>
     </g>
    </g>
    <g id="ytick_3">
     <g id="line2d_33">
      <path clip-path="url(#pf5d5324f87)" d="M 56.12 180.806823 
L 333.168 180.806823 
" style="fill:none;stroke:#b0b0b0;stroke-linecap:square;stroke-width:0.8;"/>
     </g>
     <g id="line2d_34">
      <g>
       <use style="stroke:#000000;stroke-width:0.8;" x="56.12" xlink:href="#mcedef0cbbe" y="180.806823"/>
      </g>
     </g>
     <g id="text_8">
      <!-- 0.4 -->
      <g transform="translate(23.675 186.885573)scale(0.16 -0.16)">
       <use xlink:href="#DejaVuSans-30"/>
       <use x="63.623047" xlink:href="#DejaVuSans-2e"/>
       <use x="95.410156" xlink:href="#DejaVuSans-34"/>
      </g>
     </g>
    </g>
    <g id="ytick_4">
     <g id="line2d_35">
      <path clip-path="url(#pf5d5324f87)" d="M 56.12 123.770234 
L 333.168 123.770234 
" style="fill:none;stroke:#b0b0b0;stroke-linecap:square;stroke-width:0.8;"/>
     </g>
     <g id="line2d_36">
      <g>
       <use style="stroke:#000000;stroke-width:0.8;" x="56.12" xlink:href="#mcedef0cbbe" y="123.770234"/>
      </g>
     </g>
     <g id="text_9">
      <!-- 0.6 -->
      <g transform="translate(23.675 129.848984)scale(0.16 -0.16)">
       <use xlink:href="#DejaVuSans-30"/>
       <use x="63.623047" xlink:href="#DejaVuSans-2e"/>
       <use x="95.410156" xlink:href="#DejaVuSans-36"/>
      </g>
     </g>
    </g>
    <g id="ytick_5">
     <g id="line2d_37">
      <path clip-path="url(#pf5d5324f87)" d="M 56.12 66.733646 
L 333.168 66.733646 
" style="fill:none;stroke:#b0b0b0;stroke-linecap:square;stroke-width:0.8;"/>
     </g>
     <g id="line2d_38">
      <g>
       <use style="stroke:#000000;stroke-width:0.8;" x="56.12" xlink:href="#mcedef0cbbe" y="66.733646"/>
      </g>
     </g>
     <g id="text_10">
      <!-- 0.8 -->
      <defs>
       <path d="M 31.78125 34.625 
Q 24.75 34.625 20.71875 30.859375 
Q 16.703125 27.09375 16.703125 20.515625 
Q 16.703125 13.921875 20.71875 10.15625 
Q 24.75 6.390625 31.78125 6.390625 
Q 38.8125 6.390625 42.859375 10.171875 
Q 46.921875 13.96875 46.921875 20.515625 
Q 46.921875 27.09375 42.890625 30.859375 
Q 38.875 34.625 31.78125 34.625 
z
M 21.921875 38.8125 
Q 15.578125 40.375 12.03125 44.71875 
Q 8.5 49.078125 8.5 55.328125 
Q 8.5 64.0625 14.71875 69.140625 
Q 20.953125 74.21875 31.78125 74.21875 
Q 42.671875 74.21875 48.875 69.140625 
Q 55.078125 64.0625 55.078125 55.328125 
Q 55.078125 49.078125 51.53125 44.71875 
Q 48 40.375 41.703125 38.8125 
Q 48.828125 37.15625 52.796875 32.3125 
Q 56.78125 27.484375 56.78125 20.515625 
Q 56.78125 9.90625 50.3125 4.234375 
Q 43.84375 -1.421875 31.78125 -1.421875 
Q 19.734375 -1.421875 13.25 4.234375 
Q 6.78125 9.90625 6.78125 20.515625 
Q 6.78125 27.484375 10.78125 32.3125 
Q 14.796875 37.15625 21.921875 38.8125 
z
M 18.3125 54.390625 
Q 18.3125 48.734375 21.84375 45.5625 
Q 25.390625 42.390625 31.78125 42.390625 
Q 38.140625 42.390625 41.71875 45.5625 
Q 45.3125 48.734375 45.3125 54.390625 
Q 45.3125 60.0625 41.71875 63.234375 
Q 38.140625 66.40625 31.78125 66.40625 
Q 25.390625 66.40625 21.84375 63.234375 
Q 18.3125 60.0625 18.3125 54.390625 
z
" id="DejaVuSans-38"/>
      </defs>
      <g transform="translate(23.675 72.812396)scale(0.16 -0.16)">
       <use xlink:href="#DejaVuSans-30"/>
       <use x="63.623047" xlink:href="#DejaVuSans-2e"/>
       <use x="95.410156" xlink:href="#DejaVuSans-38"/>
      </g>
     </g>
    </g>
    <g id="ytick_6">
     <g id="line2d_39">
      <path clip-path="url(#pf5d5324f87)" d="M 56.12 9.697057 
L 333.168 9.697057 
" style="fill:none;stroke:#b0b0b0;stroke-linecap:square;stroke-width:0.8;"/>
     </g>
     <g id="line2d_40">
      <g>
       <use style="stroke:#000000;stroke-width:0.8;" x="56.12" xlink:href="#mcedef0cbbe" y="9.697057"/>
      </g>
     </g>
     <g id="text_11">
      <!-- 1.0 -->
      <g transform="translate(23.675 15.775807)scale(0.16 -0.16)">
       <use xlink:href="#DejaVuSans-31"/>
       <use x="63.623047" xlink:href="#DejaVuSans-2e"/>
       <use x="95.410156" xlink:href="#DejaVuSans-30"/>
      </g>
     </g>
    </g>
    <g id="text_12">
     <!-- Fraction of function,target pairs -->
     <defs>
      <path d="M 9.8125 72.90625 
L 51.703125 72.90625 
L 51.703125 64.59375 
L 19.671875 64.59375 
L 19.671875 43.109375 
L 48.578125 43.109375 
L 48.578125 34.8125 
L 19.671875 34.8125 
L 19.671875 0 
L 9.8125 0 
z
" id="DejaVuSans-46"/>
      <path d="M 41.109375 46.296875 
Q 39.59375 47.171875 37.8125 47.578125 
Q 36.03125 48 33.890625 48 
Q 26.265625 48 22.1875 43.046875 
Q 18.109375 38.09375 18.109375 28.8125 
L 18.109375 0 
L 9.078125 0 
L 9.078125 54.6875 
L 18.109375 54.6875 
L 18.109375 46.1875 
Q 20.953125 51.171875 25.484375 53.578125 
Q 30.03125 56 36.53125 56 
Q 37.453125 56 38.578125 55.875 
Q 39.703125 55.765625 41.0625 55.515625 
z
" id="DejaVuSans-72"/>
      <path d="M 48.78125 52.59375 
L 48.78125 44.1875 
Q 44.96875 46.296875 41.140625 47.34375 
Q 37.3125 48.390625 33.40625 48.390625 
Q 24.65625 48.390625 19.8125 42.84375 
Q 14.984375 37.3125 14.984375 27.296875 
Q 14.984375 17.28125 19.8125 11.734375 
Q 24.65625 6.203125 33.40625 6.203125 
Q 37.3125 6.203125 41.140625 7.25 
Q 44.96875 8.296875 48.78125 10.40625 
L 48.78125 2.09375 
Q 45.015625 0.34375 40.984375 -0.53125 
Q 36.96875 -1.421875 32.421875 -1.421875 
Q 20.0625 -1.421875 12.78125 6.34375 
Q 5.515625 14.109375 5.515625 27.296875 
Q 5.515625 40.671875 12.859375 48.328125 
Q 20.21875 56 33.015625 56 
Q 37.15625 56 41.109375 55.140625 
Q 45.0625 54.296875 48.78125 52.59375 
z
" id="DejaVuSans-63"/>
      <path d="M 18.3125 70.21875 
L 18.3125 54.6875 
L 36.8125 54.6875 
L 36.8125 47.703125 
L 18.3125 47.703125 
L 18.3125 18.015625 
Q 18.3125 11.328125 20.140625 9.421875 
Q 21.96875 7.515625 27.59375 7.515625 
L 36.8125 7.515625 
L 36.8125 0 
L 27.59375 0 
Q 17.1875 0 13.234375 3.875 
Q 9.28125 7.765625 9.28125 18.015625 
L 9.28125 47.703125 
L 2.6875 47.703125 
L 2.6875 54.6875 
L 9.28125 54.6875 
L 9.28125 70.21875 
z
" id="DejaVuSans-74"/>
      <path d="M 8.5 21.578125 
L 8.5 54.6875 
L 17.484375 54.6875 
L 17.484375 21.921875 
Q 17.484375 14.15625 20.5 10.265625 
Q 23.53125 6.390625 29.59375 6.390625 
Q 36.859375 6.390625 41.078125 11.03125 
Q 45.3125 15.671875 45.3125 23.6875 
L 45.3125 54.6875 
L 54.296875 54.6875 
L 54.296875 0 
L 45.3125 0 
L 45.3125 8.40625 
Q 42.046875 3.421875 37.71875 1 
Q 33.40625 -1.421875 27.6875 -1.421875 
Q 18.265625 -1.421875 13.375 4.4375 
Q 8.5 10.296875 8.5 21.578125 
z
M 31.109375 56 
z
" id="DejaVuSans-75"/>
      <path d="M 11.71875 12.40625 
L 22.015625 12.40625 
L 22.015625 4 
L 14.015625 -11.625 
L 7.71875 -11.625 
L 11.71875 4 
z
" id="DejaVuSans-2c"/>
      <path d="M 18.109375 8.203125 
L 18.109375 -20.796875 
L 9.078125 -20.796875 
L 9.078125 54.6875 
L 18.109375 54.6875 
L 18.109375 46.390625 
Q 20.953125 51.265625 25.265625 53.625 
Q 29.59375 56 35.59375 56 
Q 45.5625 56 51.78125 48.09375 
Q 58.015625 40.1875 58.015625 27.296875 
Q 58.015625 14.40625 51.78125 6.484375 
Q 45.5625 -1.421875 35.59375 -1.421875 
Q 29.59375 -1.421875 25.265625 0.953125 
Q 20.953125 3.328125 18.109375 8.203125 
z
M 48.6875 27.296875 
Q 48.6875 37.203125 44.609375 42.84375 
Q 40.53125 48.484375 33.40625 48.484375 
Q 26.265625 48.484375 22.1875 42.84375 
Q 18.109375 37.203125 18.109375 27.296875 
Q 18.109375 17.390625 22.1875 11.75 
Q 26.265625 6.109375 33.40625 6.109375 
Q 40.53125 6.109375 44.609375 11.75 
Q 48.6875 17.390625 48.6875 27.296875 
z
" id="DejaVuSans-70"/>
     </defs>
     <g transform="translate(16.139531 286.001989)rotate(-90)scale(0.17 -0.17)">
      <use xlink:href="#DejaVuSans-46"/>
      <use x="57.410156" xlink:href="#DejaVuSans-72"/>
      <use x="98.523438" xlink:href="#DejaVuSans-61"/>
      <use x="159.802734" xlink:href="#DejaVuSans-63"/>
      <use x="214.783203" xlink:href="#DejaVuSans-74"/>
      <use x="253.992188" xlink:href="#DejaVuSans-69"/>
      <use x="281.775391" xlink:href="#DejaVuSans-6f"/>
      <use x="342.957031" xlink:href="#DejaVuSans-6e"/>
      <use x="406.335938" xlink:href="#DejaVuSans-20"/>
      <use x="438.123047" xlink:href="#DejaVuSans-6f"/>
      <use x="499.304688" xlink:href="#DejaVuSans-66"/>
      <use x="534.509766" xlink:href="#DejaVuSans-20"/>
      <use x="566.296875" xlink:href="#DejaVuSans-66"/>
      <use x="601.501953" xlink:href="#DejaVuSans-75"/>
      <use x="664.880859" xlink:href="#DejaVuSans-6e"/>
      <use x="728.259766" xlink:href="#DejaVuSans-63"/>
      <use x="783.240234" xlink:href="#DejaVuSans-74"/>
      <use x="822.449219" xlink:href="#DejaVuSans-69"/>
      <use x="850.232422" xlink:href="#DejaVuSans-6f"/>
      <use x="911.414062" xlink:href="#DejaVuSans-6e"/>
      <use x="974.792969" xlink:href="#DejaVuSans-2c"/>
      <use x="1006.580078" xlink:href="#DejaVuSans-74"/>
      <use x="1045.789062" xlink:href="#DejaVuSans-61"/>
      <use x="1107.068359" xlink:href="#DejaVuSans-72"/>
      <use x="1148.166016" xlink:href="#DejaVuSans-67"/>
      <use x="1211.642578" xlink:href="#DejaVuSans-65"/>
      <use x="1273.166016" xlink:href="#DejaVuSans-74"/>
      <use x="1312.375" xlink:href="#DejaVuSans-20"/>
      <use x="1344.162109" xlink:href="#DejaVuSans-70"/>
      <use x="1407.638672" xlink:href="#DejaVuSans-61"/>
      <use x="1468.917969" xlink:href="#DejaVuSans-69"/>
      <use x="1496.701172" xlink:href="#DejaVuSans-72"/>
      <use x="1537.814453" xlink:href="#DejaVuSans-73"/>
     </g>
    </g>
   </g>
   <g id="line2d_41">
    <defs>
     <path d="M 0 1.5 
C 0.397805 1.5 0.77937 1.341951 1.06066 1.06066 
C 1.341951 0.77937 1.5 0.397805 1.5 0 
C 1.5 -0.397805 1.341951 -0.77937 1.06066 -1.06066 
C 0.77937 -1.341951 0.397805 -1.5 0 -1.5 
C -0.397805 -1.5 -0.77937 -1.341951 -1.06066 -1.06066 
C -1.341951 -0.77937 -1.5 -0.397805 -1.5 0 
C -1.5 0.397805 -1.341951 0.77937 -1.06066 1.06066 
C -0.77937 1.341951 -0.397805 1.5 0 1.5 
z
" id="md206c7e073" style="stroke:#f5deb3;"/>
    </defs>
    <g>
     <use style="fill:#f5deb3;stroke:#f5deb3;" x="165.765167" xlink:href="#md206c7e073" y="9.697057"/>
     <use style="fill:#f5deb3;stroke:#f5deb3;" x="165.765167" xlink:href="#md206c7e073" y="9.697057"/>
    </g>
   </g>
   <g id="line2d_42">
    <defs>
     <path d="M 0 1.5 
C 0.397805 1.5 0.77937 1.341951 1.06066 1.06066 
C 1.341951 0.77937 1.5 0.397805 1.5 0 
C 1.5 -0.397805 1.341951 -0.77937 1.06066 -1.06066 
C 0.77937 -1.341951 0.397805 -1.5 0 -1.5 
C -0.397805 -1.5 -0.77937 -1.341951 -1.06066 -1.06066 
C -1.341951 -0.77937 -1.5 -0.397805 -1.5 0 
C -1.5 0.397805 -1.341951 0.77937 -1.06066 1.06066 
C -0.77937 1.341951 -0.397805 1.5 0 1.5 
z
" id="m9b7d43788e" style="stroke:#000080;"/>
    </defs>
    <g>
     <use style="fill:#000080;stroke:#000080;" x="295.585578" xlink:href="#m9b7d43788e" y="79.594837"/>
     <use style="fill:#000080;stroke:#000080;" x="295.585578" xlink:href="#m9b7d43788e" y="79.594837"/>
    </g>
   </g>
   <g id="line2d_43">
    <path d="M 99.11626 294.88 
L 99.11626 294.740204 
L 100.600121 294.740204 
L 100.600121 294.600409 
L 101.966002 294.600409 
L 101.966002 294.460613 
L 103.231288 294.460613 
L 103.231288 293.901431 
L 104.409787 293.901431 
L 104.409787 293.062658 
L 105.512642 293.062658 
L 105.512642 292.922862 
L 106.548983 292.922862 
L 106.548983 292.783067 
L 107.526378 292.783067 
L 107.526378 292.643271 
L 108.451173 292.643271 
L 108.451173 291.944293 
L 109.328742 291.944293 
L 109.328742 291.10552 
L 110.163674 291.10552 
L 110.163674 289.427973 
L 110.959921 289.427973 
L 110.959921 288.030018 
L 111.72091 288.030018 
L 111.72091 287.470835 
L 112.449632 287.470835 
L 112.449632 287.051449 
L 113.148711 287.051449 
L 113.148711 286.492266 
L 113.820466 286.492266 
L 113.820466 286.07288 
L 114.466953 286.07288 
L 114.466953 285.513697 
L 115.090002 285.513697 
L 115.090002 284.954515 
L 115.691256 284.954515 
L 115.691256 283.836151 
L 116.272187 283.836151 
L 116.272187 283.137173 
L 116.834124 283.137173 
L 116.834124 282.997377 
L 117.37827 282.997377 
L 117.37827 282.577991 
L 117.905717 282.577991 
L 117.905717 282.2984 
L 118.417459 282.2984 
L 118.417459 281.739217 
L 118.914406 281.739217 
L 118.914406 281.459626 
L 119.397387 281.459626 
L 119.397387 280.900444 
L 119.867168 280.900444 
L 119.867168 280.620853 
L 120.32445 280.620853 
L 120.32445 280.481057 
L 120.769881 280.481057 
L 120.769881 279.782079 
L 121.20406 279.782079 
L 121.20406 279.083102 
L 121.627542 279.083102 
L 121.627542 278.523919 
L 122.04084 278.523919 
L 122.04084 278.244328 
L 122.838768 278.244328 
L 122.838768 277.964737 
L 123.224258 277.964737 
L 123.224258 277.685146 
L 123.601292 277.685146 
L 123.601292 277.545351 
L 123.970233 277.545351 
L 123.970233 277.125964 
L 124.331421 277.125964 
L 124.331421 276.846373 
L 124.685175 276.846373 
L 124.685175 276.566782 
L 125.031795 276.566782 
L 125.031795 276.28719 
L 125.371564 276.28719 
L 125.371564 276.007599 
L 126.031592 276.007599 
L 126.031592 275.308622 
L 126.976418 275.308622 
L 126.976418 275.02903 
L 127.578629 275.02903 
L 127.578629 274.749439 
L 128.160453 274.749439 
L 128.160453 274.609644 
L 128.444143 274.609644 
L 128.444143 274.050462 
L 128.997851 274.050462 
L 128.997851 273.491279 
L 129.268157 273.491279 
L 129.268157 272.652506 
L 129.534278 272.652506 
L 129.534278 271.25455 
L 129.796341 271.25455 
L 129.796341 270.835164 
L 130.054468 270.835164 
L 130.054468 270.555573 
L 130.308777 270.555573 
L 130.308777 270.136186 
L 130.559378 270.136186 
L 130.559378 269.577004 
L 130.806377 269.577004 
L 130.806377 269.297412 
L 131.289977 269.297412 
L 131.289977 269.017821 
L 131.526768 269.017821 
L 131.526768 268.73823 
L 131.760342 268.73823 
L 131.760342 268.458639 
L 132.218178 268.458639 
L 132.218178 268.179048 
L 132.442602 268.179048 
L 132.442602 267.759661 
L 132.664134 267.759661 
L 132.664134 267.340275 
L 132.882847 267.340275 
L 132.882847 266.781092 
L 133.098812 266.781092 
L 133.098812 266.361706 
L 133.312097 266.361706 
L 133.312097 266.22191 
L 133.522769 266.22191 
L 133.522769 265.662728 
L 133.730889 265.662728 
L 133.730889 265.243341 
L 133.936519 265.243341 
L 133.936519 264.684159 
L 134.139719 264.684159 
L 134.139719 264.404568 
L 134.340544 264.404568 
L 134.340544 263.565795 
L 134.53905 263.565795 
L 134.53905 262.587226 
L 134.73529 262.587226 
L 134.73529 261.468861 
L 134.929315 261.468861 
L 134.929315 261.329066 
L 135.121173 261.329066 
L 135.121173 261.049474 
L 135.310914 261.049474 
L 135.310914 260.630088 
L 135.498584 260.630088 
L 135.498584 260.070906 
L 135.684226 260.070906 
L 135.684226 259.511723 
L 135.867885 259.511723 
L 135.867885 259.232132 
L 136.049602 259.232132 
L 136.049602 258.952541 
L 136.407373 258.952541 
L 136.407373 258.253563 
L 136.583504 258.253563 
L 136.583504 257.554585 
L 136.757848 257.554585 
L 136.757848 257.274994 
L 136.930442 257.274994 
L 136.930442 256.855608 
L 137.10132 256.855608 
L 137.10132 256.296425 
L 137.270516 256.296425 
L 137.270516 255.597448 
L 137.438063 255.597448 
L 137.438063 254.89847 
L 137.603992 254.89847 
L 137.603992 253.780105 
L 137.768335 253.780105 
L 137.768335 252.941332 
L 137.931121 252.941332 
L 137.931121 252.242354 
L 138.09238 252.242354 
L 138.09238 251.12399 
L 138.25214 251.12399 
L 138.25214 250.145421 
L 138.410429 250.145421 
L 138.410429 249.027056 
L 138.567274 249.027056 
L 138.567274 247.629101 
L 138.7227 247.629101 
L 138.7227 246.091349 
L 138.876734 246.091349 
L 138.876734 244.413803 
L 139.0294 244.413803 
L 139.0294 241.478096 
L 139.180721 241.478096 
L 139.180721 238.961776 
L 139.330722 238.961776 
L 139.330722 236.725047 
L 139.479425 236.725047 
L 139.479425 233.929136 
L 139.626853 233.929136 
L 139.626853 230.434247 
L 139.773027 230.434247 
L 139.773027 226.380175 
L 139.917968 226.380175 
L 139.917968 222.885286 
L 140.061698 222.885286 
L 140.061698 220.368966 
L 140.204235 220.368966 
L 140.204235 218.831215 
L 140.3456 218.831215 
L 140.3456 215.755713 
L 140.485813 215.755713 
L 140.485813 213.239393 
L 140.62489 213.239393 
L 140.62489 210.163891 
L 140.762851 210.163891 
L 140.762851 207.367979 
L 140.899714 207.367979 
L 140.899714 203.034317 
L 141.035496 203.034317 
L 141.035496 200.09861 
L 141.170213 200.09861 
L 141.170213 198.281268 
L 141.303883 198.281268 
L 141.303883 195.764948 
L 141.436521 195.764948 
L 141.436521 193.108832 
L 141.568144 193.108832 
L 141.568144 189.893534 
L 141.698766 189.893534 
L 141.698766 187.936396 
L 141.828403 187.936396 
L 141.828403 186.119054 
L 141.95707 186.119054 
L 141.95707 184.721099 
L 142.084781 184.721099 
L 142.084781 182.903756 
L 142.21155 182.903756 
L 142.21155 179.968049 
L 142.337391 179.968049 
L 142.337391 177.731321 
L 142.462317 177.731321 
L 142.462317 174.935409 
L 142.586342 174.935409 
L 142.586342 172.69868 
L 142.709478 172.69868 
L 142.709478 172.419089 
L 142.831738 172.419089 
L 142.831738 171.021134 
L 142.953135 171.021134 
L 142.953135 169.343587 
L 143.073681 169.343587 
L 143.073681 167.386449 
L 143.193387 167.386449 
L 143.193387 165.009925 
L 143.312265 165.009925 
L 143.312265 164.310947 
L 143.430327 164.310947 
L 143.430327 163.332378 
L 143.547583 163.332378 
L 143.547583 162.214013 
L 143.664045 162.214013 
L 143.664045 162.074218 
L 143.779723 162.074218 
L 143.779723 161.654831 
L 143.894627 161.654831 
L 143.894627 161.235444 
L 144.008769 161.235444 
L 144.008769 160.816058 
L 144.122158 160.816058 
L 144.122158 160.256876 
L 144.234803 160.256876 
L 144.234803 159.418102 
L 144.346715 159.418102 
L 144.346715 158.998715 
L 144.457904 158.998715 
L 144.568377 158.579329 
L 144.678145 158.579329 
L 144.787217 158.299738 
L 145.110339 158.299738 
L 145.216711 158.020147 
L 145.322428 158.020147 
L 145.4275 157.740555 
L 145.531932 157.740555 
L 145.635734 157.321169 
L 145.738913 157.321169 
L 145.841477 157.041578 
L 145.943432 157.041578 
L 146.044786 156.063009 
L 146.145545 156.063009 
L 146.245718 155.364031 
L 146.34531 155.364031 
L 146.444328 154.245666 
L 146.542779 154.245666 
L 146.542779 154.105871 
L 146.834794 154.105871 
L 146.93104 153.82628 
L 147.682202 153.82628 
L 147.77383 153.546689 
L 147.955635 153.546689 
L 148.045821 153.127302 
L 148.135537 153.127302 
L 148.224786 152.847711 
L 148.577222 152.847711 
L 148.664213 152.56812 
L 149.007841 152.56812 
L 149.007841 152.428324 
L 149.177112 152.428324 
L 149.177112 152.288529 
L 149.344733 152.288529 
L 149.344733 152.148733 
L 149.510735 152.148733 
L 149.593139 151.869142 
L 149.756771 151.869142 
L 149.838006 151.30996 
L 149.999334 151.30996 
L 149.999334 151.170164 
L 150.707138 151.170164 
L 150.707138 150.750777 
L 150.860547 150.750777 
L 150.936741 150.331391 
L 151.088123 150.331391 
L 151.088123 150.0518 
L 151.238183 150.0518 
L 151.312725 149.073231 
L 151.386945 149.073231 
L 151.460846 148.79364 
L 151.53443 148.79364 
L 151.607701 148.234457 
L 151.753312 148.234457 
L 151.825658 147.53548 
L 151.969442 147.53548 
L 152.040885 146.976297 
L 152.112033 146.976297 
L 152.112033 146.696706 
L 152.323726 146.696706 
L 152.393715 146.137524 
L 152.532844 146.137524 
L 152.601988 145.158955 
L 152.670856 145.158955 
L 152.670856 144.879364 
L 152.807768 144.879364 
L 152.875817 143.481408 
L 152.943598 143.481408 
L 153.011113 141.52427 
L 153.145352 141.52427 
L 153.212081 141.104884 
L 153.278551 141.104884 
L 153.344766 140.26611 
L 153.410726 140.26611 
L 153.476434 138.868155 
L 153.541892 138.868155 
L 153.607102 137.889586 
L 153.736783 137.889586 
L 153.801259 137.330404 
L 153.865494 137.330404 
L 153.929489 137.050813 
L 154.05677 137.050813 
L 154.05677 136.911017 
L 154.183116 136.911017 
L 154.245942 136.631426 
L 154.308539 136.631426 
L 154.308539 136.49163 
L 154.433054 136.49163 
L 154.494975 136.212039 
L 154.67941 136.212039 
L 154.67941 136.072244 
L 154.801276 136.072244 
L 154.861887 135.792652 
L 154.922285 135.792652 
L 154.982471 135.513061 
L 155.102215 135.513061 
L 155.161776 135.093675 
L 155.22113 135.093675 
L 155.280281 134.814084 
L 155.397975 134.814084 
L 155.456522 134.534492 
L 155.514869 134.534492 
L 155.573019 134.115106 
L 155.630973 134.115106 
L 155.688733 133.835515 
L 155.746298 133.835515 
L 155.803672 131.738581 
L 155.860855 131.738581 
L 155.917848 130.480421 
L 155.974653 130.480421 
L 156.031271 130.20083 
L 156.087703 130.20083 
L 156.14395 129.921239 
L 156.422458 129.921239 
L 156.422458 129.781443 
L 156.587422 129.781443 
L 156.696525 129.082466 
L 156.80494 129.082466 
L 156.912676 128.802874 
L 157.073023 128.802874 
L 157.073023 128.663079 
L 157.284519 128.663079 
L 157.389299 128.103897 
L 157.493444 128.103897 
L 157.596962 127.68451 
L 157.648488 127.68451 
L 157.69986 127.404919 
L 158.155428 127.404919 
L 158.205309 127.125328 
L 158.354091 127.125328 
L 158.452567 126.705941 
L 158.501595 126.705941 
L 158.599233 125.867168 
L 158.647844 125.867168 
L 158.647844 125.727372 
L 158.79286 125.727372 
L 158.888862 125.307985 
L 158.936662 125.307985 
L 158.98433 124.888599 
L 159.173691 124.888599 
L 159.267595 124.189621 
L 159.314355 124.189621 
L 159.314355 124.049825 
L 159.500134 124.049825 
L 159.592276 123.490643 
L 159.72957 123.490643 
L 159.775092 123.211052 
L 159.910938 123.211052 
L 159.955983 122.512074 
L 160.090413 122.512074 
L 160.179453 122.232483 
L 160.487508 122.232483 
L 160.487508 122.092688 
L 160.704216 122.092688 
L 160.704216 121.952892 
L 160.832941 121.952892 
L 160.875636 121.39371 
L 161.045364 121.39371 
L 161.045364 121.253914 
L 161.213431 121.253914 
L 161.296853 120.974323 
L 161.338413 120.974323 
L 161.338413 120.834528 
L 161.462492 120.834528 
L 161.462492 120.694732 
L 161.707995 120.694732 
L 161.789056 120.275345 
L 161.829444 120.275345 
L 161.869737 119.995754 
L 161.95004 119.995754 
L 162.029971 119.716163 
L 162.109531 119.716163 
L 162.188725 119.296776 
L 162.267556 119.296776 
L 162.306836 118.87739 
L 162.385128 118.87739 
L 162.463065 118.318207 
L 162.579312 118.318207 
L 162.656375 118.038616 
L 162.771327 118.038616 
L 162.771327 117.898821 
L 162.923409 117.898821 
L 162.998948 117.339639 
L 163.036594 117.339639 
L 163.074157 116.920252 
L 163.149038 116.920252 
L 163.186357 116.36107 
L 163.297829 116.36107 
L 163.334827 115.941683 
L 163.664268 115.941683 
L 163.736627 115.662092 
L 163.808683 115.662092 
L 163.916204 115.10291 
L 163.951895 115.10291 
L 163.987513 114.823318 
L 164.199681 114.823318 
L 164.234789 114.543727 
L 164.513103 114.543727 
L 164.581982 114.264136 
L 164.752984 114.264136 
L 164.854774 113.984545 
L 164.922301 113.984545 
L 164.922301 113.84475 
L 165.056564 113.84475 
L 165.089967 113.425363 
L 165.189787 113.425363 
L 165.189787 113.285567 
L 165.42047 113.285567 
L 165.485815 112.866181 
L 165.615764 112.866181 
L 165.712585 112.306998 
L 165.744738 112.306998 
L 165.840837 111.887612 
L 166.157342 111.887612 
L 166.157342 111.608021 
L 166.28233 111.608021 
L 166.375479 111.048838 
L 166.437298 111.048838 
L 166.437298 110.769247 
L 166.590881 110.769247 
L 166.651932 110.489656 
L 166.743104 110.489656 
L 166.743104 110.070269 
L 166.893991 110.070269 
L 166.893991 109.930474 
L 167.073324 109.930474 
L 167.132688 109.650883 
L 167.368116 109.650883 
L 167.368116 109.511087 
L 167.484631 109.511087 
L 167.571503 109.0917 
L 167.743939 109.0917 
L 167.829513 108.812109 
L 167.886326 108.812109 
L 167.942953 108.113132 
L 168.111721 108.113132 
L 168.111721 107.973336 
L 168.223319 107.973336 
L 168.334198 106.994767 
L 168.38937 106.994767 
L 168.471797 106.57538 
L 168.52653 106.57538 
L 168.608305 106.155994 
L 168.689691 106.155994 
L 168.716735 105.876403 
L 168.824486 105.876403 
L 168.931565 105.037629 
L 169.143743 105.037629 
L 169.170082 104.758038 
L 169.275037 104.758038 
L 169.327275 104.338651 
L 169.431277 104.338651 
L 169.508867 104.05906 
L 169.61178 104.05906 
L 169.688561 103.779469 
L 169.765002 103.779469 
L 169.815774 103.499878 
L 169.891652 103.499878 
L 169.89624 103.220287 
L 170.04241 103.220287 
L 170.04241 103.080491 
L 170.16704 103.080491 
L 170.16704 102.940696 
L 170.290773 102.940696 
L 170.389121 102.381514 
L 170.48691 102.381514 
L 170.535597 102.101922 
L 170.680836 102.101922 
L 170.776984 101.682536 
L 170.848744 101.682536 
L 170.848744 101.54274 
L 171.109329 101.54274 
L 171.156287 100.983558 
L 171.273123 100.983558 
L 171.342845 100.703967 
L 171.550331 100.703967 
L 171.641749 100.144785 
L 171.687276 100.144785 
L 171.732683 99.725398 
L 171.80057 99.725398 
L 171.823139 99.445807 
L 171.935544 99.445807 
L 171.980301 99.166216 
L 172.047218 99.166216 
L 172.136038 98.886625 
L 172.180276 98.886625 
L 172.224401 98.327442 
L 172.312313 98.327442 
L 172.312313 98.187647 
L 172.530144 98.187647 
L 172.594958 97.628465 
L 172.894237 97.628465 
L 172.936569 97.209078 
L 173.062942 97.209078 
L 173.104861 96.789691 
L 173.395465 96.789691 
L 173.4776 96.230509 
L 173.600072 96.230509 
L 173.600072 96.090713 
L 173.741861 96.090713 
L 173.741861 95.950918 
L 174.002121 95.950918 
L 174.081414 95.531531 
L 174.160343 95.531531 
L 174.160343 95.391736 
L 174.33662 95.391736 
L 174.414389 94.972349 
L 174.77906 94.972349 
L 174.77906 94.832553 
L 175.228907 94.832553 
L 175.228907 94.692758 
L 175.739269 94.692758 
L 175.739269 94.552962 
L 176.234912 94.552962 
L 176.234912 94.413167 
L 176.631621 94.413167 
L 176.648663 94.133576 
L 177.234739 94.133576 
L 177.234739 93.99378 
L 177.912631 93.99378 
L 177.912631 93.853984 
L 178.671127 93.853984 
L 178.671127 93.714189 
L 183.221214 93.714189 
L 183.256042 93.434598 
L 183.474995 93.434598 
L 183.497881 93.155007 
L 183.645904 93.155007 
L 183.679883 92.875415 
L 183.859977 92.875415 
L 183.960457 92.595824 
L 184.027119 92.595824 
L 184.137651 92.316233 
L 184.170672 92.316233 
L 184.170672 92.176438 
L 184.356605 92.176438 
L 184.356605 92.036642 
L 184.540547 92.036642 
L 184.540547 91.896847 
L 184.828705 91.896847 
L 184.923694 91.47746 
L 184.965743 91.47746 
L 184.965743 91.337664 
L 185.30878 91.337664 
L 185.30878 91.197869 
L 186.269462 91.197869 
L 186.337455 90.918278 
L 189.778616 90.918278 
L 189.778616 90.778482 
L 190.697893 90.778482 
L 190.802881 90.498891 
L 190.83276 90.498891 
L 190.83276 90.359095 
L 191.128729 90.359095 
L 191.201932 90.079504 
L 191.720629 90.079504 
L 191.720629 89.939709 
L 192.48248 89.939709 
L 192.48248 89.799913 
L 192.811544 89.799913 
L 192.811544 89.660118 
L 194.404934 89.660118 
L 194.404934 89.520322 
L 195.000768 89.520322 
L 195.000768 89.380526 
L 196.35717 89.380526 
L 196.465069 89.100935 
L 196.486567 89.100935 
L 196.486567 88.96114 
L 197.196814 88.96114 
L 197.196814 88.821344 
L 198.813926 88.821344 
L 198.813926 88.681549 
L 199.102341 88.681549 
L 199.102341 88.541753 
L 199.253901 88.541753 
L 199.253901 88.401958 
L 199.535087 88.401958 
L 199.535087 88.262162 
L 199.647179 88.262162 
L 199.647179 88.122366 
L 201.771679 88.122366 
L 201.771679 87.982571 
L 201.917193 87.982571 
L 201.917193 87.842775 
L 205.550172 87.842775 
L 205.550172 87.70298 
L 206.67592 87.70298 
L 206.711513 87.283593 
L 208.819759 87.283593 
L 208.835478 87.004002 
L 209.512558 87.004002 
L 209.512558 86.864206 
L 211.21589 86.864206 
L 211.21589 86.724411 
L 211.803088 86.724411 
L 211.803088 86.584615 
L 212.825288 86.584615 
L 212.825288 86.44482 
L 213.213269 86.44482 
L 213.249767 86.165229 
L 213.671922 86.165229 
L 213.67785 85.885637 
L 214.52024 85.885637 
L 214.52024 85.745842 
L 217.863792 85.745842 
L 217.866889 85.466251 
L 220.365656 85.466251 
L 220.408447 85.046864 
L 220.797986 85.046864 
L 220.797986 84.907069 
L 221.841493 84.907069 
L 221.841493 84.767273 
L 222.451057 84.767273 
L 222.475943 84.347886 
L 223.580084 84.347886 
L 223.650206 84.068295 
L 225.673807 84.068295 
L 225.673807 83.9285 
L 227.241925 83.9285 
L 227.241925 83.788704 
L 229.992665 83.788704 
L 229.992665 83.648909 
L 233.723711 83.648909 
L 233.723711 83.509113 
L 241.619636 83.509113 
L 241.658085 83.229522 
L 242.031081 83.229522 
L 242.03905 82.949931 
L 242.810322 82.949931 
L 242.810322 82.810135 
L 248.916048 82.810135 
L 248.916048 82.67034 
L 249.412541 82.67034 
L 249.41353 82.390748 
L 250.435515 82.390748 
L 250.435515 82.250953 
L 251.204903 82.250953 
L 251.204903 82.111157 
L 251.516388 82.111157 
L 251.522111 81.691771 
L 254.21232 81.691771 
L 254.21232 81.551975 
L 254.702462 81.551975 
L 254.702462 81.41218 
L 259.402244 81.41218 
L 259.402244 81.272384 
L 260.403573 81.272384 
L 260.403573 81.132588 
L 263.10725 81.132588 
L 263.10725 80.992793 
L 264.973473 80.992793 
L 264.973473 80.852997 
L 267.292985 80.852997 
L 267.292985 80.713202 
L 267.635809 80.713202 
L 267.635809 80.573406 
L 277.252512 80.573406 
L 277.252512 80.433611 
L 290.285353 80.433611 
L 290.285353 80.293815 
L 293.67525 80.293815 
L 293.755884 80.014224 
L 294.779138 80.014224 
L 294.779138 79.874428 
L 294.950079 79.874428 
L 294.950079 79.734633 
L 295.585578 79.734633 
L 295.585578 79.594837 
L 333.168 79.594837 
L 333.168 79.594837 
" style="fill:none;stroke:#000080;stroke-linecap:square;stroke-width:1.5;"/>
   </g>
   <g id="line2d_44">
    <defs>
     <path d="M 0 6 
C 1.591219 6 3.117479 5.367802 4.242641 4.242641 
C 5.367802 3.117479 6 1.591219 6 0 
C 6 -1.591219 5.367802 -3.117479 4.242641 -4.242641 
C 3.117479 -5.367802 1.591219 -6 0 -6 
C -1.591219 -6 -3.117479 -5.367802 -4.242641 -4.242641 
C -5.367802 -3.117479 -6 -1.591219 -6 0 
C -6 1.591219 -5.367802 3.117479 -4.242641 4.242641 
C -3.117479 5.367802 -1.591219 6 0 6 
z
" id="m03a81b6049" style="stroke:#000080;stroke-width:1.5;"/>
    </defs>
    <g>
     <use style="fill:none;stroke:#000080;stroke-width:1.5;" x="139.626853" xlink:href="#m03a81b6049" y="233.929136"/>
     <use style="fill:none;stroke:#000080;stroke-width:1.5;" x="178.671127" xlink:href="#m03a81b6049" y="93.853984"/>
     <use style="fill:none;stroke:#000080;stroke-width:1.5;" x="254.702462" xlink:href="#m03a81b6049" y="81.551975"/>
     <use style="fill:none;stroke:#000080;stroke-width:1.5;" x="295.585578" xlink:href="#m03a81b6049" y="79.594837"/>
     <use style="fill:none;stroke:#000080;stroke-width:1.5;" x="333.168" xlink:href="#m03a81b6049" y="79.594837"/>
    </g>
   </g>
   <g id="line2d_45">
    <path style="fill:none;stroke:#000080;stroke-linecap:square;stroke-width:1.5;"/>
    <g/>
   </g>
   <g id="line2d_46">
    <path clip-path="url(#pf5d5324f87)" d="M 136.914823 257.274994 
" style="fill:none;stroke:#000080;stroke-linecap:square;stroke-width:1.5;"/>
    <defs>
     <path d="M -12 12 
L 12 -12 
M -12 -12 
L 12 12 
" id="m5fc41b6dcb" style="stroke:#000080;"/>
    </defs>
    <g clip-path="url(#pf5d5324f87)">
     <use style="fill:#000080;stroke:#000080;" x="136.914823" xlink:href="#m5fc41b6dcb" y="257.274994"/>
    </g>
   </g>
   <g id="line2d_47">
    <defs>
     <path d="M 0 1.5 
C 0.397805 1.5 0.77937 1.341951 1.06066 1.06066 
C 1.341951 0.77937 1.5 0.397805 1.5 0 
C 1.5 -0.397805 1.341951 -0.77937 1.06066 -1.06066 
C 0.77937 -1.341951 0.397805 -1.5 0 -1.5 
C -0.397805 -1.5 -0.77937 -1.341951 -1.06066 -1.06066 
C -1.341951 -0.77937 -1.5 -0.397805 -1.5 0 
C -1.5 0.397805 -1.341951 0.77937 -1.06066 1.06066 
C -0.77937 1.341951 -0.397805 1.5 0 1.5 
z
" id="m547d0dcd09" style="stroke:#ff00ff;"/>
    </defs>
    <g>
     <use style="fill:#ff00ff;stroke:#ff00ff;" x="221.926177" xlink:href="#m547d0dcd09" y="278.104533"/>
     <use style="fill:#ff00ff;stroke:#ff00ff;" x="221.926177" xlink:href="#m547d0dcd09" y="278.104533"/>
    </g>
   </g>
   <g id="line2d_48">
    <path d="M 16.541714 294.88 
L 16.541714 292.084089 
L 111.030511 292.084089 
L 111.030511 291.944293 
L 116.934349 291.944293 
L 116.934349 291.804498 
L 120.034863 291.804498 
L 120.076533 291.524907 
L 120.15957 291.524907 
L 120.15957 291.385111 
L 120.929036 291.385111 
L 120.929036 291.245315 
L 122.944762 291.245315 
L 122.944762 291.10552 
L 128.003717 291.10552 
L 128.003717 290.965724 
L 128.873566 290.965724 
L 128.873566 290.825929 
L 130.536746 290.825929 
L 130.536746 290.686133 
L 131.005861 290.686133 
L 131.071844 290.406542 
L 131.990784 290.406542 
L 131.990784 290.266747 
L 132.684132 290.266747 
L 132.684132 290.126951 
L 134.999329 290.126951 
L 134.999329 289.987155 
L 135.801327 289.987155 
L 135.801327 289.84736 
L 136.082436 289.84736 
L 136.082436 289.707564 
L 137.178434 289.707564 
L 137.178434 289.567769 
L 138.652226 289.567769 
L 138.652226 289.427973 
L 139.08458 289.427973 
L 139.08458 289.288178 
L 139.249066 289.288178 
L 139.249066 289.148382 
L 141.710592 289.148382 
L 141.710592 289.008586 
L 142.268865 289.008586 
L 142.268865 288.868791 
L 142.530078 288.868791 
L 142.575104 288.5892 
L 142.653616 288.5892 
L 142.653616 288.449404 
L 143.247524 288.449404 
L 143.247524 288.309609 
L 143.568817 288.309609 
L 143.568817 288.169813 
L 145.616908 288.169813 
L 145.616908 288.030018 
L 146.035596 288.030018 
L 146.035596 287.890222 
L 146.245718 287.890222 
L 146.245718 287.750426 
L 146.605138 287.750426 
L 146.658408 287.191244 
L 151.299196 287.191244 
L 151.299196 287.051449 
L 153.078364 287.051449 
L 153.078364 286.911653 
L 153.338757 286.911653 
L 153.338757 286.771858 
L 154.24024 286.771858 
L 154.336917 286.352471 
L 154.433054 286.352471 
L 154.433054 286.212675 
L 156.512635 286.212675 
L 156.512635 286.07288 
L 157.251045 286.07288 
L 157.251045 285.933084 
L 157.959037 285.933084 
L 157.959037 285.793289 
L 158.178119 285.793289 
L 158.178119 285.653493 
L 158.819096 285.653493 
L 158.845291 285.373902 
L 164.672359 285.373902 
L 164.765354 285.094311 
L 167.431768 285.094311 
L 167.431768 284.954515 
L 168.804945 284.954515 
L 168.804945 284.81472 
L 169.25124 284.81472 
L 169.25124 284.674924 
L 169.919161 284.674924 
L 169.96948 284.395333 
L 170.460296 284.395333 
L 170.460296 284.255537 
L 170.752997 284.255537 
L 170.755179 283.975946 
L 170.889924 283.975946 
L 170.889924 283.696355 
L 171.594023 283.696355 
L 171.594023 283.55656 
L 173.053401 283.55656 
L 173.053401 283.416764 
L 174.020174 283.416764 
L 174.020174 283.276969 
L 174.345475 283.276969 
L 174.345475 283.137173 
L 175.586757 283.137173 
L 175.586757 282.997377 
L 176.027452 282.997377 
L 176.027452 282.857582 
L 176.801287 282.857582 
L 176.801287 282.717786 
L 177.002701 282.717786 
L 177.002701 282.577991 
L 177.513825 282.577991 
L 177.513825 282.438195 
L 178.650465 282.438195 
L 178.650465 282.2984 
L 180.160308 282.2984 
L 180.160308 282.158604 
L 182.711924 282.158604 
L 182.711924 282.018808 
L 182.899164 282.018808 
L 182.899164 281.879013 
L 183.633531 281.879013 
L 183.633531 281.739217 
L 184.443411 281.739217 
L 184.443411 281.599422 
L 185.756679 281.599422 
L 185.756679 281.459626 
L 185.882018 281.459626 
L 185.945248 281.180035 
L 186.068329 281.180035 
L 186.068329 281.04024 
L 186.511943 281.04024 
L 186.511943 280.900444 
L 188.311776 280.900444 
L 188.311776 280.760648 
L 188.617027 280.760648 
L 188.617027 280.620853 
L 190.705414 280.620853 
L 190.705414 280.481057 
L 192.046132 280.481057 
L 192.046132 280.341262 
L 192.62917 280.341262 
L 192.62917 280.201466 
L 193.318592 280.201466 
L 193.318592 280.061671 
L 193.570955 280.061671 
L 193.570955 279.921875 
L 195.361117 279.921875 
L 195.361117 279.782079 
L 196.098414 279.782079 
L 196.098414 279.642284 
L 197.648126 279.642284 
L 197.648126 279.502488 
L 200.842198 279.502488 
L 200.856972 279.222897 
L 204.258724 279.222897 
L 204.258724 279.083102 
L 204.951971 279.083102 
L 205.021654 278.803511 
L 205.652463 278.803511 
L 205.652463 278.663715 
L 207.337036 278.663715 
L 207.337036 278.523919 
L 212.410375 278.523919 
L 212.410375 278.384124 
L 215.471799 278.384124 
L 215.471799 278.244328 
L 221.926177 278.244328 
L 221.926177 278.104533 
L 333.168 278.104533 
L 333.168 278.104533 
" style="fill:none;stroke:#ff00ff;stroke-linecap:square;stroke-width:1.5;"/>
   </g>
   <g id="line2d_49">
    <defs>
     <path d="M -0 8.485281 
L 5.091169 0 
L 0 -8.485281 
L -5.091169 -0 
z
" id="ma95739fd5d" style="stroke:#ff00ff;stroke-linejoin:miter;stroke-width:1.5;"/>
    </defs>
    <g>
     <use style="fill:none;stroke:#ff00ff;stroke-linejoin:miter;stroke-width:1.5;" x="116.934349" xlink:href="#ma95739fd5d" y="291.944293"/>
     <use style="fill:none;stroke:#ff00ff;stroke-linejoin:miter;stroke-width:1.5;" x="182.899164" xlink:href="#ma95739fd5d" y="281.879013"/>
     <use style="fill:none;stroke:#ff00ff;stroke-linejoin:miter;stroke-width:1.5;" x="221.926177" xlink:href="#ma95739fd5d" y="278.244328"/>
     <use style="fill:none;stroke:#ff00ff;stroke-linejoin:miter;stroke-width:1.5;" x="221.926177" xlink:href="#ma95739fd5d" y="278.104533"/>
     <use style="fill:none;stroke:#ff00ff;stroke-linejoin:miter;stroke-width:1.5;" x="221.926177" xlink:href="#ma95739fd5d" y="278.104533"/>
     <use style="fill:none;stroke:#ff00ff;stroke-linejoin:miter;stroke-width:1.5;" x="333.168" xlink:href="#ma95739fd5d" y="278.104533"/>
    </g>
   </g>
   <g id="line2d_50">
    <path style="fill:none;stroke:#ff00ff;stroke-linecap:square;stroke-width:1.5;"/>
    <g/>
   </g>
   <g id="line2d_51">
    <path clip-path="url(#pf5d5324f87)" d="M 147.190823 287.191244 
" style="fill:none;stroke:#ff00ff;stroke-linecap:square;stroke-width:1.5;"/>
    <defs>
     <path d="M -12 12 
L 12 -12 
M -12 -12 
L 12 12 
" id="mae65d4cf18" style="stroke:#ff00ff;"/>
    </defs>
    <g clip-path="url(#pf5d5324f87)">
     <use style="fill:#ff00ff;stroke:#ff00ff;" x="147.190823" xlink:href="#mae65d4cf18" y="287.191244"/>
    </g>
   </g>
   <g id="line2d_52">
    <path d="M 333.168 278.104533 
L 363.64328 289.176341 
" style="fill:none;stroke:#ff00ff;stroke-linecap:square;stroke-width:1.5;"/>
    <g>
     <use style="fill:none;stroke:#ff00ff;stroke-linejoin:miter;stroke-width:1.5;" x="333.168" xlink:href="#ma95739fd5d" y="278.104533"/>
     <use style="fill:none;stroke:#ff00ff;stroke-linejoin:miter;stroke-width:1.5;" x="363.64328" xlink:href="#ma95739fd5d" y="289.176341"/>
    </g>
   </g>
   <g id="line2d_53">
    <path d="M 333.168 79.594837 
L 363.64328 152.288529 
" style="fill:none;stroke:#000080;stroke-linecap:square;stroke-width:1.5;"/>
    <g>
     <use style="fill:none;stroke:#000080;stroke-width:1.5;" x="333.168" xlink:href="#m03a81b6049" y="79.594837"/>
     <use style="fill:none;stroke:#000080;stroke-width:1.5;" x="363.64328" xlink:href="#m03a81b6049" y="152.288529"/>
    </g>
   </g>
   <g id="line2d_54">
    <path d="M 333.168 294.88 
L 333.168 9.697057 
" style="fill:none;stroke:#000000;stroke-linecap:square;stroke-width:1.5;"/>
   </g>
   <g id="patch_3">
    <path d="M 56.12 294.88 
L 56.12 6.845228 
" style="fill:none;stroke:#000000;stroke-linecap:square;stroke-linejoin:miter;stroke-width:0.8;"/>
   </g>
   <g id="patch_4">
    <path d="M 333.168 294.88 
L 333.168 6.845228 
" style="fill:none;stroke:#000000;stroke-linecap:square;stroke-linejoin:miter;stroke-width:0.8;"/>
   </g>
   <g id="patch_5">
    <path d="M 56.12 294.88 
L 333.168 294.88 
" style="fill:none;stroke:#000000;stroke-linecap:square;stroke-linejoin:miter;stroke-width:0.8;"/>
   </g>
   <g id="patch_6">
    <path d="M 56.12 6.845228 
L 333.168 6.845228 
" style="fill:none;stroke:#000000;stroke-linecap:square;stroke-linejoin:miter;stroke-width:0.8;"/>
   </g>
   <g id="text_13">
    <!-- scipy-opt -->
    <defs>
     <path d="M 32.171875 -5.078125 
Q 28.375 -14.84375 24.75 -17.8125 
Q 21.140625 -20.796875 15.09375 -20.796875 
L 7.90625 -20.796875 
L 7.90625 -13.28125 
L 13.1875 -13.28125 
Q 16.890625 -13.28125 18.9375 -11.515625 
Q 21 -9.765625 23.484375 -3.21875 
L 25.09375 0.875 
L 2.984375 54.6875 
L 12.5 54.6875 
L 29.59375 11.921875 
L 46.6875 54.6875 
L 56.203125 54.6875 
z
" id="DejaVuSans-79"/>
    </defs>
    <g transform="translate(369.18424 293.867279)scale(0.17 -0.17)">
     <use xlink:href="#DejaVuSans-73"/>
     <use x="52.099609" xlink:href="#DejaVuSans-63"/>
     <use x="107.080078" xlink:href="#DejaVuSans-69"/>
     <use x="134.863281" xlink:href="#DejaVuSans-70"/>
     <use x="198.339844" xlink:href="#DejaVuSans-79"/>
     <use x="257.503906" xlink:href="#DejaVuSans-2d"/>
     <use x="293.603516" xlink:href="#DejaVuSans-6f"/>
     <use x="354.785156" xlink:href="#DejaVuSans-70"/>
     <use x="418.261719" xlink:href="#DejaVuSans-74"/>
    </g>
   </g>
   <g id="text_14">
    <!-- BFGS ros  -->
    <defs>
     <path d="M 19.671875 34.8125 
L 19.671875 8.109375 
L 35.5 8.109375 
Q 43.453125 8.109375 47.28125 11.40625 
Q 51.125 14.703125 51.125 21.484375 
Q 51.125 28.328125 47.28125 31.5625 
Q 43.453125 34.8125 35.5 34.8125 
z
M 19.671875 64.796875 
L 19.671875 42.828125 
L 34.28125 42.828125 
Q 41.5 42.828125 45.03125 45.53125 
Q 48.578125 48.25 48.578125 53.8125 
Q 48.578125 59.328125 45.03125 62.0625 
Q 41.5 64.796875 34.28125 64.796875 
z
M 9.8125 72.90625 
L 35.015625 72.90625 
Q 46.296875 72.90625 52.390625 68.21875 
Q 58.5 63.53125 58.5 54.890625 
Q 58.5 48.1875 55.375 44.234375 
Q 52.25 40.28125 46.1875 39.3125 
Q 53.46875 37.75 57.5 32.78125 
Q 61.53125 27.828125 61.53125 20.40625 
Q 61.53125 10.640625 54.890625 5.3125 
Q 48.25 0 35.984375 0 
L 9.8125 0 
z
" id="DejaVuSans-42"/>
     <path d="M 59.515625 10.40625 
L 59.515625 29.984375 
L 43.40625 29.984375 
L 43.40625 38.09375 
L 69.28125 38.09375 
L 69.28125 6.78125 
Q 63.578125 2.734375 56.6875 0.65625 
Q 49.8125 -1.421875 42 -1.421875 
Q 24.90625 -1.421875 15.25 8.5625 
Q 5.609375 18.5625 5.609375 36.375 
Q 5.609375 54.25 15.25 64.234375 
Q 24.90625 74.21875 42 74.21875 
Q 49.125 74.21875 55.546875 72.453125 
Q 61.96875 70.703125 67.390625 67.28125 
L 67.390625 56.78125 
Q 61.921875 61.421875 55.765625 63.765625 
Q 49.609375 66.109375 42.828125 66.109375 
Q 29.4375 66.109375 22.71875 58.640625 
Q 16.015625 51.171875 16.015625 36.375 
Q 16.015625 21.625 22.71875 14.15625 
Q 29.4375 6.6875 42.828125 6.6875 
Q 48.046875 6.6875 52.140625 7.59375 
Q 56.25 8.5 59.515625 10.40625 
z
" id="DejaVuSans-47"/>
     <path d="M 53.515625 70.515625 
L 53.515625 60.890625 
Q 47.90625 63.578125 42.921875 64.890625 
Q 37.9375 66.21875 33.296875 66.21875 
Q 25.25 66.21875 20.875 63.09375 
Q 16.5 59.96875 16.5 54.203125 
Q 16.5 49.359375 19.40625 46.890625 
Q 22.3125 44.4375 30.421875 42.921875 
L 36.375 41.703125 
Q 47.40625 39.59375 52.65625 34.296875 
Q 57.90625 29 57.90625 20.125 
Q 57.90625 9.515625 50.796875 4.046875 
Q 43.703125 -1.421875 29.984375 -1.421875 
Q 24.8125 -1.421875 18.96875 -0.25 
Q 13.140625 0.921875 6.890625 3.21875 
L 6.890625 13.375 
Q 12.890625 10.015625 18.65625 8.296875 
Q 24.421875 6.59375 29.984375 6.59375 
Q 38.421875 6.59375 43.015625 9.90625 
Q 47.609375 13.234375 47.609375 19.390625 
Q 47.609375 24.75 44.3125 27.78125 
Q 41.015625 30.8125 33.5 32.328125 
L 27.484375 33.5 
Q 16.453125 35.6875 11.515625 40.375 
Q 6.59375 45.0625 6.59375 53.421875 
Q 6.59375 63.09375 13.40625 68.65625 
Q 20.21875 74.21875 32.171875 74.21875 
Q 37.3125 74.21875 42.625 73.28125 
Q 47.953125 72.359375 53.515625 70.515625 
z
" id="DejaVuSans-53"/>
    </defs>
    <g transform="translate(369.18424 156.979466)scale(0.17 -0.17)">
     <use xlink:href="#DejaVuSans-42"/>
     <use x="68.603516" xlink:href="#DejaVuSans-46"/>
     <use x="126.123047" xlink:href="#DejaVuSans-47"/>
     <use x="203.613281" xlink:href="#DejaVuSans-53"/>
     <use x="267.089844" xlink:href="#DejaVuSans-20"/>
     <use x="298.876953" xlink:href="#DejaVuSans-72"/>
     <use x="339.958984" xlink:href="#DejaVuSans-6f"/>
     <use x="401.140625" xlink:href="#DejaVuSans-73"/>
     <use x="453.240234" xlink:href="#DejaVuSans-20"/>
    </g>
   </g>
   <g id="text_15">
    <!-- best 2009 -->
    <defs>
     <path d="M 48.6875 27.296875 
Q 48.6875 37.203125 44.609375 42.84375 
Q 40.53125 48.484375 33.40625 48.484375 
Q 26.265625 48.484375 22.1875 42.84375 
Q 18.109375 37.203125 18.109375 27.296875 
Q 18.109375 17.390625 22.1875 11.75 
Q 26.265625 6.109375 33.40625 6.109375 
Q 40.53125 6.109375 44.609375 11.75 
Q 48.6875 17.390625 48.6875 27.296875 
z
M 18.109375 46.390625 
Q 20.953125 51.265625 25.265625 53.625 
Q 29.59375 56 35.59375 56 
Q 45.5625 56 51.78125 48.09375 
Q 58.015625 40.1875 58.015625 27.296875 
Q 58.015625 14.40625 51.78125 6.484375 
Q 45.5625 -1.421875 35.59375 -1.421875 
Q 29.59375 -1.421875 25.265625 0.953125 
Q 20.953125 3.328125 18.109375 8.203125 
L 18.109375 0 
L 9.078125 0 
L 9.078125 75.984375 
L 18.109375 75.984375 
z
" id="DejaVuSans-62"/>
     <path d="M 10.984375 1.515625 
L 10.984375 10.5 
Q 14.703125 8.734375 18.5 7.8125 
Q 22.3125 6.890625 25.984375 6.890625 
Q 35.75 6.890625 40.890625 13.453125 
Q 46.046875 20.015625 46.78125 33.40625 
Q 43.953125 29.203125 39.59375 26.953125 
Q 35.25 24.703125 29.984375 24.703125 
Q 19.046875 24.703125 12.671875 31.3125 
Q 6.296875 37.9375 6.296875 49.421875 
Q 6.296875 60.640625 12.9375 67.421875 
Q 19.578125 74.21875 30.609375 74.21875 
Q 43.265625 74.21875 49.921875 64.515625 
Q 56.59375 54.828125 56.59375 36.375 
Q 56.59375 19.140625 48.40625 8.859375 
Q 40.234375 -1.421875 26.421875 -1.421875 
Q 22.703125 -1.421875 18.890625 -0.6875 
Q 15.09375 0.046875 10.984375 1.515625 
z
M 30.609375 32.421875 
Q 37.25 32.421875 41.125 36.953125 
Q 45.015625 41.5 45.015625 49.421875 
Q 45.015625 57.28125 41.125 61.84375 
Q 37.25 66.40625 30.609375 66.40625 
Q 23.96875 66.40625 20.09375 61.84375 
Q 16.21875 57.28125 16.21875 49.421875 
Q 16.21875 41.5 20.09375 36.953125 
Q 23.96875 32.421875 30.609375 32.421875 
z
" id="DejaVuSans-39"/>
    </defs>
    <g transform="translate(369.18424 20.091654)scale(0.17 -0.17)">
     <use xlink:href="#DejaVuSans-62"/>
     <use x="63.476562" xlink:href="#DejaVuSans-65"/>
     <use x="125" xlink:href="#DejaVuSans-73"/>
     <use x="177.099609" xlink:href="#DejaVuSans-74"/>
     <use x="216.308594" xlink:href="#DejaVuSans-20"/>
     <use x="248.095703" xlink:href="#DejaVuSans-32"/>
     <use x="311.71875" xlink:href="#DejaVuSans-30"/>
     <use x="375.341797" xlink:href="#DejaVuSans-30"/>
     <use x="438.964844" xlink:href="#DejaVuSans-39"/>
    </g>
   </g>
   <g id="text_16">
    <!-- bbob f6-f9, 10-D -->
    <defs>
     <path d="M 19.671875 64.796875 
L 19.671875 8.109375 
L 31.59375 8.109375 
Q 46.6875 8.109375 53.6875 14.9375 
Q 60.6875 21.78125 60.6875 36.53125 
Q 60.6875 51.171875 53.6875 57.984375 
Q 46.6875 64.796875 31.59375 64.796875 
z
M 9.8125 72.90625 
L 30.078125 72.90625 
Q 51.265625 72.90625 61.171875 64.09375 
Q 71.09375 55.28125 71.09375 36.53125 
Q 71.09375 17.671875 61.125 8.828125 
Q 51.171875 0 30.078125 0 
L 9.8125 0 
z
" id="DejaVuSans-44"/>
    </defs>
    <g transform="translate(58.89048 17.475982)scale(0.102 -0.102)">
     <use xlink:href="#DejaVuSans-62"/>
     <use x="63.476562" xlink:href="#DejaVuSans-62"/>
     <use x="126.953125" xlink:href="#DejaVuSans-6f"/>
     <use x="188.134766" xlink:href="#DejaVuSans-62"/>
     <use x="251.611328" xlink:href="#DejaVuSans-20"/>
     <use x="283.398438" xlink:href="#DejaVuSans-66"/>
     <use x="318.603516" xlink:href="#DejaVuSans-36"/>
     <use x="382.226562" xlink:href="#DejaVuSans-2d"/>
     <use x="418.310547" xlink:href="#DejaVuSans-66"/>
     <use x="453.515625" xlink:href="#DejaVuSans-39"/>
     <use x="517.138672" xlink:href="#DejaVuSans-2c"/>
     <use x="548.925781" xlink:href="#DejaVuSans-20"/>
     <use x="580.712891" xlink:href="#DejaVuSans-31"/>
     <use x="644.335938" xlink:href="#DejaVuSans-30"/>
     <use x="707.958984" xlink:href="#DejaVuSans-2d"/>
     <use x="744.042969" xlink:href="#DejaVuSans-44"/>
    </g>
    <!-- 51 targets: 100..1e-08 -->
    <defs>
     <path d="M 10.796875 72.90625 
L 49.515625 72.90625 
L 49.515625 64.59375 
L 19.828125 64.59375 
L 19.828125 46.734375 
Q 21.96875 47.46875 24.109375 47.828125 
Q 26.265625 48.1875 28.421875 48.1875 
Q 40.625 48.1875 47.75 41.5 
Q 54.890625 34.8125 54.890625 23.390625 
Q 54.890625 11.625 47.5625 5.09375 
Q 40.234375 -1.421875 26.90625 -1.421875 
Q 22.3125 -1.421875 17.546875 -0.640625 
Q 12.796875 0.140625 7.71875 1.703125 
L 7.71875 11.625 
Q 12.109375 9.234375 16.796875 8.0625 
Q 21.484375 6.890625 26.703125 6.890625 
Q 35.15625 6.890625 40.078125 11.328125 
Q 45.015625 15.765625 45.015625 23.390625 
Q 45.015625 31 40.078125 35.4375 
Q 35.15625 39.890625 26.703125 39.890625 
Q 22.75 39.890625 18.8125 39.015625 
Q 14.890625 38.140625 10.796875 36.28125 
z
" id="DejaVuSans-35"/>
     <path d="M 11.71875 12.40625 
L 22.015625 12.40625 
L 22.015625 0 
L 11.71875 0 
z
M 11.71875 51.703125 
L 22.015625 51.703125 
L 22.015625 39.3125 
L 11.71875 39.3125 
z
" id="DejaVuSans-3a"/>
    </defs>
    <g transform="translate(58.89048 28.89775)scale(0.102 -0.102)">
     <use xlink:href="#DejaVuSans-35"/>
     <use x="63.623047" xlink:href="#DejaVuSans-31"/>
     <use x="127.246094" xlink:href="#DejaVuSans-20"/>
     <use x="159.033203" xlink:href="#DejaVuSans-74"/>
     <use x="198.242188" xlink:href="#DejaVuSans-61"/>
     <use x="259.521484" xlink:href="#DejaVuSans-72"/>
     <use x="300.619141" xlink:href="#DejaVuSans-67"/>
     <use x="364.095703" xlink:href="#DejaVuSans-65"/>
     <use x="425.619141" xlink:href="#DejaVuSans-74"/>
     <use x="464.828125" xlink:href="#DejaVuSans-73"/>
     <use x="516.927734" xlink:href="#DejaVuSans-3a"/>
     <use x="550.619141" xlink:href="#DejaVuSans-20"/>
     <use x="582.40625" xlink:href="#DejaVuSans-31"/>
     <use x="646.029297" xlink:href="#DejaVuSans-30"/>
     <use x="709.652344" xlink:href="#DejaVuSans-30"/>
     <use x="773.275391" xlink:href="#DejaVuSans-2e"/>
     <use x="805.0625" xlink:href="#DejaVuSans-2e"/>
     <use x="836.849609" xlink:href="#DejaVuSans-31"/>
     <use x="900.472656" xlink:href="#DejaVuSans-65"/>
     <use x="961.996094" xlink:href="#DejaVuSans-2d"/>
     <use x="998.080078" xlink:href="#DejaVuSans-30"/>
     <use x="1061.703125" xlink:href="#DejaVuSans-38"/>
    </g>
    <!-- 15 instances -->
    <g transform="translate(58.89048 40.319519)scale(0.102 -0.102)">
     <use xlink:href="#DejaVuSans-31"/>
     <use x="63.623047" xlink:href="#DejaVuSans-35"/>
     <use x="127.246094" xlink:href="#DejaVuSans-20"/>
     <use x="159.033203" xlink:href="#DejaVuSans-69"/>
     <use x="186.816406" xlink:href="#DejaVuSans-6e"/>
     <use x="250.195312" xlink:href="#DejaVuSans-73"/>
     <use x="302.294922" xlink:href="#DejaVuSans-74"/>
     <use x="341.503906" xlink:href="#DejaVuSans-61"/>
     <use x="402.783203" xlink:href="#DejaVuSans-6e"/>
     <use x="466.162109" xlink:href="#DejaVuSans-63"/>
     <use x="521.142578" xlink:href="#DejaVuSans-65"/>
     <use x="582.666016" xlink:href="#DejaVuSans-73"/>
    </g>
   </g>
   <g id="text_17">
    <!-- v0.0.0 -->
    <g style="fill:#808080;" transform="translate(178.96275 289.919965)scale(0.1 -0.1)">
     <use xlink:href="#DejaVuSans-76"/>
     <use x="59.179688" xlink:href="#DejaVuSans-30"/>
     <use x="122.802734" xlink:href="#DejaVuSans-2e"/>
     <use x="154.589844" xlink:href="#DejaVuSans-30"/>
     <use x="218.212891" xlink:href="#DejaVuSans-2e"/>
     <use x="250" xlink:href="#DejaVuSans-30"/>
    </g>
   </g>
  </g>
 </g>
 <defs>
  <clipPath id="pf5d5324f87">
   <rect height="288.034772" width="277.048" x="56.12" y="6.845228"/>
  </clipPath>
 </defs>
</svg>
