<?xml version="1.0" encoding="utf-8" standalone="no"?>
<!DOCTYPE svg PUBLIC "-//W3C//DTD SVG 1.1//EN"
  "http://www.w3.org/Graphics/SVG/1.1/DTD/svg11.dtd">
<!-- Created with matplotlib (http://matplotlib.org/) -->
<svg height="345pt" version="1.1" viewBox="0 0 460 345" width="460pt" xmlns="http://www.w3.org/2000/svg" xmlns:xlink="http://www.w3.org/1999/xlink">
 <defs>
  <style type="text/css">
*{stroke-linecap:butt;stroke-linejoin:round;}
  </style>
 </defs>
 <g id="figure_1">
  <g id="patch_1">
   <path d="M 0 345.6 
L 460.8 345.6 
L 460.8 0 
L 0 0 
z
" style="fill:#ffffff;"/>
  </g>
  <g id="axes_1">
   <g id="patch_2">
    <path d="M 56.12 294.88 
L 333.168 294.88 
L 333.168 6.845228 
L 56.12 6.845228 
z
" style="fill:#ffffff;"/>
   </g>
   <g id="line2d_1">
    <path d="M 44.205749 294.88 
L 44.205749 280.341262 
L 56.12 280.341262 
L 56.12 276.986168 
L 63.08939 276.986168 
L 63.08939 271.394346 
L 68.034251 271.394346 
L 68.034251 263.565795 
L 71.869783 263.565795 
L 71.869783 261.329066 
L 75.003641 261.329066 
L 75.003641 260.210701 
L 79.948502 260.210701 
L 79.948502 256.855608 
L 81.973032 256.855608 
L 81.973032 255.737243 
L 88.293717 255.737243 
L 88.293717 254.618879 
L 91.862754 254.618879 
L 91.862754 253.500514 
L 93.887283 253.500514 
L 93.887283 251.263785 
L 96.536922 251.263785 
L 96.536922 250.145421 
L 99.533818 250.145421 
L 99.533818 249.027056 
L 100.856673 249.027056 
L 100.856673 247.908692 
L 102.667676 247.908692 
L 102.667676 246.790327 
L 104.305927 246.790327 
L 104.305927 245.671963 
L 107.612537 245.671963 
L 107.612537 243.435234 
L 109.250788 243.435234 
L 109.250788 242.316869 
L 111.788449 242.316869 
L 111.788449 241.198505 
L 113.086321 241.198505 
L 113.086321 240.08014 
L 114.866043 240.08014 
L 114.866043 238.961776 
L 117.231566 238.961776 
L 117.231566 237.843411 
L 118.186736 237.843411 
L 118.186736 234.488318 
L 123.870396 234.488318 
L 123.870396 233.369954 
L 124.200956 233.369954 
L 124.200956 232.251589 
L 125.463074 232.251589 
L 125.463074 231.133225 
L 129.022601 231.133225 
L 129.022601 228.896496 
L 132.279675 228.896496 
L 132.279675 227.778131 
L 132.882847 227.778131 
L 132.882847 226.659767 
L 134.029181 226.659767 
L 134.029181 225.541402 
L 134.213018 225.541402 
L 134.213018 223.304673 
L 134.485139 223.304673 
L 134.485139 222.186309 
L 134.664189 222.186309 
L 134.664189 221.067944 
L 135.016789 221.067944 
L 135.016789 219.94958 
L 135.616951 219.94958 
L 135.616951 218.831215 
L 135.950722 218.831215 
L 135.950722 217.712851 
L 136.278134 217.712851 
L 136.278134 216.594486 
L 136.757848 216.594486 
L 136.757848 214.357757 
L 136.914823 214.357757 
L 136.992776 212.121028 
L 137.14763 212.121028 
L 137.14763 211.002664 
L 137.377325 211.002664 
L 137.453213 208.765935 
L 137.603992 208.765935 
L 137.603992 207.64757 
L 137.975251 207.64757 
L 137.975251 206.529206 
L 138.410429 206.529206 
L 138.410429 205.410841 
L 138.694545 205.410841 
L 138.694545 204.292477 
L 139.043211 204.292477 
L 139.043211 202.055748 
L 139.180721 202.055748 
L 139.180721 200.937384 
L 139.317139 200.937384 
L 139.317139 199.819019 
L 139.653523 199.819019 
L 139.653523 198.700655 
L 139.983449 198.700655 
L 139.983449 196.463926 
L 140.178407 196.463926 
L 140.242905 194.227197 
L 140.498503 194.227197 
L 140.498503 193.108832 
L 140.750355 193.108832 
L 140.812746 189.753739 
L 140.998571 189.753739 
L 141.060069 185.280281 
L 141.243253 185.280281 
L 141.243253 183.043552 
L 141.3643 183.043552 
L 141.424506 180.806823 
L 141.484501 180.806823 
L 141.544287 178.570094 
L 141.603867 178.570094 
L 141.66324 172.978271 
L 141.72241 172.978271 
L 141.72241 171.859907 
L 141.84014 171.859907 
L 141.898705 168.504814 
L 142.015238 168.504814 
L 142.015238 167.386449 
L 142.130987 167.386449 
L 142.18857 162.912991 
L 142.245962 162.912991 
L 142.303162 160.676262 
L 142.416994 160.676262 
L 142.473629 158.439533 
L 142.530078 158.439533 
L 142.586342 153.966075 
L 142.642422 153.966075 
L 142.69832 151.729346 
L 142.864932 151.729346 
L 142.975116 149.492617 
L 143.247524 149.492617 
L 143.35529 147.255888 
L 143.408921 147.255888 
L 143.515683 139.427337 
L 143.568817 139.427337 
L 143.674593 132.71715 
L 143.727238 132.71715 
L 143.832047 128.243692 
L 143.884213 128.243692 
L 143.988072 121.533505 
L 144.142694 121.533505 
L 144.142694 120.415141 
L 144.447825 120.415141 
L 144.447825 119.296776 
L 144.598384 119.296776 
L 144.598384 118.178412 
L 144.797098 118.178412 
L 144.797098 117.060047 
L 144.944641 117.060047 
L 144.944641 115.941683 
L 145.139415 115.941683 
L 145.235981 112.586589 
L 145.284061 112.586589 
L 145.37982 109.231496 
L 145.569751 109.231496 
L 145.663936 91.337664 
L 145.710835 91.337664 
L 145.804252 84.627477 
L 145.85077 84.627477 
L 145.897164 75.680562 
L 145.989576 75.680562 
L 146.081494 64.496917 
L 146.127269 64.496917 
L 146.127269 63.378552 
L 146.263868 63.378552 
L 146.354335 61.141823 
L 146.533852 61.141823 
L 146.533852 60.023459 
L 146.667271 60.023459 
L 146.755644 57.78673 
L 150.538207 57.78673 
L 150.538207 56.668365 
L 159.445454 56.668365 
L 159.445454 55.550001 
L 160.288102 55.550001 
L 160.288102 54.431636 
L 174.188955 54.431636 
L 174.188955 53.313272 
L 189.122779 53.313272 
L 189.122779 52.194907 
L 190.577117 52.194907 
L 190.577117 51.076543 
L 196.070922 51.076543 
L 196.070922 49.958178 
L 199.75572 49.958178 
L 199.75572 48.839814 
L 210.457383 48.839814 
L 210.457383 47.72145 
L 213.652506 47.72145 
L 213.669586 45.484721 
L 217.007232 45.484721 
L 217.007232 44.366356 
L 217.131088 44.366356 
L 217.167045 42.129627 
L 217.255516 42.129627 
L 217.331196 39.892898 
L 217.486599 39.892898 
L 217.486599 38.774534 
L 217.647741 38.774534 
L 217.696856 36.537805 
L 218.073685 36.537805 
L 218.077162 9.697057 
L 333.168 9.697057 
L 333.168 9.697057 
" style="fill:none;stroke:#f5deb3;stroke-linecap:square;stroke-width:4;"/>
   </g>
   <g id="line2d_2">
    <defs>
     <path d="M -0 7.778175 
L 7.778175 0 
L 0 -7.778175 
L -7.778175 -0 
z
" id="m3ef2e8ebd5" style="stroke:#f5deb3;stroke-linejoin:miter;stroke-width:1.5;"/>
    </defs>
    <g>
     <use style="fill:#f5deb3;stroke:#f5deb3;stroke-linejoin:miter;stroke-width:1.5;" x="134.485139" xlink:href="#m3ef2e8ebd5" y="222.186309"/>
     <use style="fill:#f5deb3;stroke:#f5deb3;stroke-linejoin:miter;stroke-width:1.5;" x="143.832047" xlink:href="#m3ef2e8ebd5" y="128.243692"/>
     <use style="fill:#f5deb3;stroke:#f5deb3;stroke-linejoin:miter;stroke-width:1.5;" x="190.577117" xlink:href="#m3ef2e8ebd5" y="52.194907"/>
     <use style="fill:#f5deb3;stroke:#f5deb3;stroke-linejoin:miter;stroke-width:1.5;" x="218.077162" xlink:href="#m3ef2e8ebd5" y="9.697057"/>
     <use style="fill:#f5deb3;stroke:#f5deb3;stroke-linejoin:miter;stroke-width:1.5;" x="218.077162" xlink:href="#m3ef2e8ebd5" y="9.697057"/>
     <use style="fill:#f5deb3;stroke:#f5deb3;stroke-linejoin:miter;stroke-width:1.5;" x="333.168" xlink:href="#m3ef2e8ebd5" y="9.697057"/>
    </g>
   </g>
   <g id="line2d_3">
    <path style="fill:none;stroke:#f5deb3;stroke-linecap:square;stroke-width:4;"/>
    <g/>
   </g>
   <g id="line2d_4">
    <path d="M 333.168 9.697057 
L 363.64328 15.400716 
" style="fill:none;stroke:#f5deb3;stroke-linecap:square;stroke-width:4;"/>
    <g>
     <use style="fill:#f5deb3;stroke:#f5deb3;stroke-linejoin:miter;stroke-width:1.5;" x="333.168" xlink:href="#m3ef2e8ebd5" y="9.697057"/>
     <use style="fill:#f5deb3;stroke:#f5deb3;stroke-linejoin:miter;stroke-width:1.5;" x="363.64328" xlink:href="#m3ef2e8ebd5" y="15.400716"/>
    </g>
   </g>
   <g id="matplotlib.axis_1">
    <g id="xtick_1">
     <g id="line2d_5">
      <path clip-path="url(#p78300bd30d)" d="M 56.12 294.88 
L 56.12 6.845228 
" style="fill:none;stroke:#b0b0b0;stroke-linecap:square;stroke-width:0.8;"/>
     </g>
     <g id="line2d_6">
      <defs>
       <path d="M 0 0 
L 0 3.5 
" id="m10e109571f" style="stroke:#000000;stroke-width:0.8;"/>
      </defs>
      <g>
       <use style="stroke:#000000;stroke-width:0.8;" x="56.12" xlink:href="#m10e109571f" y="294.88"/>
      </g>
     </g>
     <g id="text_1">
      <!-- 0 -->
      <defs>
       <path d="M 31.78125 66.40625 
Q 24.171875 66.40625 20.328125 58.90625 
Q 16.5 51.421875 16.5 36.375 
Q 16.5 21.390625 20.328125 13.890625 
Q 24.171875 6.390625 31.78125 6.390625 
Q 39.453125 6.390625 43.28125 13.890625 
Q 47.125 21.390625 47.125 36.375 
Q 47.125 51.421875 43.28125 58.90625 
Q 39.453125 66.40625 31.78125 66.40625 
z
M 31.78125 74.21875 
Q 44.046875 74.21875 50.515625 64.515625 
Q 56.984375 54.828125 56.984375 36.375 
Q 56.984375 17.96875 50.515625 8.265625 
Q 44.046875 -1.421875 31.78125 -1.421875 
Q 19.53125 -1.421875 13.0625 8.265625 
Q 6.59375 17.96875 6.59375 36.375 
Q 6.59375 54.828125 13.0625 64.515625 
Q 19.53125 74.21875 31.78125 74.21875 
z
" id="DejaVuSans-30"/>
      </defs>
      <g transform="translate(49.7575 317.076875)scale(0.2 -0.2)">
       <use xlink:href="#DejaVuSans-30"/>
      </g>
     </g>
    </g>
    <g id="xtick_2">
     <g id="line2d_7">
      <path clip-path="url(#p78300bd30d)" d="M 135.276571 294.88 
L 135.276571 6.845228 
" style="fill:none;stroke:#b0b0b0;stroke-linecap:square;stroke-width:0.8;"/>
     </g>
     <g id="line2d_8">
      <g>
       <use style="stroke:#000000;stroke-width:0.8;" x="135.276571" xlink:href="#m10e109571f" y="294.88"/>
      </g>
     </g>
     <g id="text_2">
      <!-- 2 -->
      <defs>
       <path d="M 19.1875 8.296875 
L 53.609375 8.296875 
L 53.609375 0 
L 7.328125 0 
L 7.328125 8.296875 
Q 12.9375 14.109375 22.625 23.890625 
Q 32.328125 33.6875 34.8125 36.53125 
Q 39.546875 41.84375 41.421875 45.53125 
Q 43.3125 49.21875 43.3125 52.78125 
Q 43.3125 58.59375 39.234375 62.25 
Q 35.15625 65.921875 28.609375 65.921875 
Q 23.96875 65.921875 18.8125 64.3125 
Q 13.671875 62.703125 7.8125 59.421875 
L 7.8125 69.390625 
Q 13.765625 71.78125 18.9375 73 
Q 24.125 74.21875 28.421875 74.21875 
Q 39.75 74.21875 46.484375 68.546875 
Q 53.21875 62.890625 53.21875 53.421875 
Q 53.21875 48.921875 51.53125 44.890625 
Q 49.859375 40.875 45.40625 35.40625 
Q 44.1875 33.984375 37.640625 27.21875 
Q 31.109375 20.453125 19.1875 8.296875 
z
" id="DejaVuSans-32"/>
      </defs>
      <g transform="translate(128.914071 317.076875)scale(0.2 -0.2)">
       <use xlink:href="#DejaVuSans-32"/>
      </g>
     </g>
    </g>
    <g id="xtick_3">
     <g id="line2d_9">
      <path clip-path="url(#p78300bd30d)" d="M 214.433143 294.88 
L 214.433143 6.845228 
" style="fill:none;stroke:#b0b0b0;stroke-linecap:square;stroke-width:0.8;"/>
     </g>
     <g id="line2d_10">
      <g>
       <use style="stroke:#000000;stroke-width:0.8;" x="214.433143" xlink:href="#m10e109571f" y="294.88"/>
      </g>
     </g>
     <g id="text_3">
      <!-- 4 -->
      <defs>
       <path d="M 37.796875 64.3125 
L 12.890625 25.390625 
L 37.796875 25.390625 
z
M 35.203125 72.90625 
L 47.609375 72.90625 
L 47.609375 25.390625 
L 58.015625 25.390625 
L 58.015625 17.1875 
L 47.609375 17.1875 
L 47.609375 0 
L 37.796875 0 
L 37.796875 17.1875 
L 4.890625 17.1875 
L 4.890625 26.703125 
z
" id="DejaVuSans-34"/>
      </defs>
      <g transform="translate(208.070643 317.076875)scale(0.2 -0.2)">
       <use xlink:href="#DejaVuSans-34"/>
      </g>
     </g>
    </g>
    <g id="xtick_4">
     <g id="line2d_11">
      <path clip-path="url(#p78300bd30d)" d="M 293.589714 294.88 
L 293.589714 6.845228 
" style="fill:none;stroke:#b0b0b0;stroke-linecap:square;stroke-width:0.8;"/>
     </g>
     <g id="line2d_12">
      <g>
       <use style="stroke:#000000;stroke-width:0.8;" x="293.589714" xlink:href="#m10e109571f" y="294.88"/>
      </g>
     </g>
     <g id="text_4">
      <!-- 6 -->
      <defs>
       <path d="M 33.015625 40.375 
Q 26.375 40.375 22.484375 35.828125 
Q 18.609375 31.296875 18.609375 23.390625 
Q 18.609375 15.53125 22.484375 10.953125 
Q 26.375 6.390625 33.015625 6.390625 
Q 39.65625 6.390625 43.53125 10.953125 
Q 47.40625 15.53125 47.40625 23.390625 
Q 47.40625 31.296875 43.53125 35.828125 
Q 39.65625 40.375 33.015625 40.375 
z
M 52.59375 71.296875 
L 52.59375 62.3125 
Q 48.875 64.0625 45.09375 64.984375 
Q 41.3125 65.921875 37.59375 65.921875 
Q 27.828125 65.921875 22.671875 59.328125 
Q 17.53125 52.734375 16.796875 39.40625 
Q 19.671875 43.65625 24.015625 45.921875 
Q 28.375 48.1875 33.59375 48.1875 
Q 44.578125 48.1875 50.953125 41.515625 
Q 57.328125 34.859375 57.328125 23.390625 
Q 57.328125 12.15625 50.6875 5.359375 
Q 44.046875 -1.421875 33.015625 -1.421875 
Q 20.359375 -1.421875 13.671875 8.265625 
Q 6.984375 17.96875 6.984375 36.375 
Q 6.984375 53.65625 15.1875 63.9375 
Q 23.390625 74.21875 37.203125 74.21875 
Q 40.921875 74.21875 44.703125 73.484375 
Q 48.484375 72.75 52.59375 71.296875 
z
" id="DejaVuSans-36"/>
      </defs>
      <g transform="translate(287.227214 317.076875)scale(0.2 -0.2)">
       <use xlink:href="#DejaVuSans-36"/>
      </g>
     </g>
    </g>
    <g id="xtick_5">
     <g id="line2d_13">
      <path clip-path="url(#p78300bd30d)" d="M 56.12 294.88 
L 56.12 6.845228 
" style="fill:none;stroke:#b0b0b0;stroke-linecap:square;stroke-width:0.8;"/>
     </g>
     <g id="line2d_14">
      <defs>
       <path d="M 0 0 
L 0 2 
" id="m1dad965ff6" style="stroke:#000000;stroke-width:0.6;"/>
      </defs>
      <g>
       <use style="stroke:#000000;stroke-width:0.6;" x="56.12" xlink:href="#m1dad965ff6" y="294.88"/>
      </g>
     </g>
    </g>
    <g id="xtick_6">
     <g id="line2d_15">
      <path clip-path="url(#p78300bd30d)" d="M 95.698286 294.88 
L 95.698286 6.845228 
" style="fill:none;stroke:#b0b0b0;stroke-linecap:square;stroke-width:0.8;"/>
     </g>
     <g id="line2d_16">
      <g>
       <use style="stroke:#000000;stroke-width:0.6;" x="95.698286" xlink:href="#m1dad965ff6" y="294.88"/>
      </g>
     </g>
    </g>
    <g id="xtick_7">
     <g id="line2d_17">
      <path clip-path="url(#p78300bd30d)" d="M 135.276571 294.88 
L 135.276571 6.845228 
" style="fill:none;stroke:#b0b0b0;stroke-linecap:square;stroke-width:0.8;"/>
     </g>
     <g id="line2d_18">
      <g>
       <use style="stroke:#000000;stroke-width:0.6;" x="135.276571" xlink:href="#m1dad965ff6" y="294.88"/>
      </g>
     </g>
    </g>
    <g id="xtick_8">
     <g id="line2d_19">
      <path clip-path="url(#p78300bd30d)" d="M 174.854857 294.88 
L 174.854857 6.845228 
" style="fill:none;stroke:#b0b0b0;stroke-linecap:square;stroke-width:0.8;"/>
     </g>
     <g id="line2d_20">
      <g>
       <use style="stroke:#000000;stroke-width:0.6;" x="174.854857" xlink:href="#m1dad965ff6" y="294.88"/>
      </g>
     </g>
    </g>
    <g id="xtick_9">
     <g id="line2d_21">
      <path clip-path="url(#p78300bd30d)" d="M 214.433143 294.88 
L 214.433143 6.845228 
" style="fill:none;stroke:#b0b0b0;stroke-linecap:square;stroke-width:0.8;"/>
     </g>
     <g id="line2d_22">
      <g>
       <use style="stroke:#000000;stroke-width:0.6;" x="214.433143" xlink:href="#m1dad965ff6" y="294.88"/>
      </g>
     </g>
    </g>
    <g id="xtick_10">
     <g id="line2d_23">
      <path clip-path="url(#p78300bd30d)" d="M 254.011429 294.88 
L 254.011429 6.845228 
" style="fill:none;stroke:#b0b0b0;stroke-linecap:square;stroke-width:0.8;"/>
     </g>
     <g id="line2d_24">
      <g>
       <use style="stroke:#000000;stroke-width:0.6;" x="254.011429" xlink:href="#m1dad965ff6" y="294.88"/>
      </g>
     </g>
    </g>
    <g id="xtick_11">
     <g id="line2d_25">
      <path clip-path="url(#p78300bd30d)" d="M 293.589714 294.88 
L 293.589714 6.845228 
" style="fill:none;stroke:#b0b0b0;stroke-linecap:square;stroke-width:0.8;"/>
     </g>
     <g id="line2d_26">
      <g>
       <use style="stroke:#000000;stroke-width:0.6;" x="293.589714" xlink:href="#m1dad965ff6" y="294.88"/>
      </g>
     </g>
    </g>
    <g id="xtick_12">
     <g id="line2d_27">
      <path clip-path="url(#p78300bd30d)" d="M 333.168 294.88 
L 333.168 6.845228 
" style="fill:none;stroke:#b0b0b0;stroke-linecap:square;stroke-width:0.8;"/>
     </g>
     <g id="line2d_28">
      <g>
       <use style="stroke:#000000;stroke-width:0.6;" x="333.168" xlink:href="#m1dad965ff6" y="294.88"/>
      </g>
     </g>
    </g>
    <g id="text_5">
     <!-- log10(# f-evals / dimension) -->
     <defs>
      <path d="M 9.421875 75.984375 
L 18.40625 75.984375 
L 18.40625 0 
L 9.421875 0 
z
" id="DejaVuSans-6c"/>
      <path d="M 30.609375 48.390625 
Q 23.390625 48.390625 19.1875 42.75 
Q 14.984375 37.109375 14.984375 27.296875 
Q 14.984375 17.484375 19.15625 11.84375 
Q 23.34375 6.203125 30.609375 6.203125 
Q 37.796875 6.203125 41.984375 11.859375 
Q 46.1875 17.53125 46.1875 27.296875 
Q 46.1875 37.015625 41.984375 42.703125 
Q 37.796875 48.390625 30.609375 48.390625 
z
M 30.609375 56 
Q 42.328125 56 49.015625 48.375 
Q 55.71875 40.765625 55.71875 27.296875 
Q 55.71875 13.875 49.015625 6.21875 
Q 42.328125 -1.421875 30.609375 -1.421875 
Q 18.84375 -1.421875 12.171875 6.21875 
Q 5.515625 13.875 5.515625 27.296875 
Q 5.515625 40.765625 12.171875 48.375 
Q 18.84375 56 30.609375 56 
z
" id="DejaVuSans-6f"/>
      <path d="M 45.40625 27.984375 
Q 45.40625 37.75 41.375 43.109375 
Q 37.359375 48.484375 30.078125 48.484375 
Q 22.859375 48.484375 18.828125 43.109375 
Q 14.796875 37.75 14.796875 27.984375 
Q 14.796875 18.265625 18.828125 12.890625 
Q 22.859375 7.515625 30.078125 7.515625 
Q 37.359375 7.515625 41.375 12.890625 
Q 45.40625 18.265625 45.40625 27.984375 
z
M 54.390625 6.78125 
Q 54.390625 -7.171875 48.1875 -13.984375 
Q 42 -20.796875 29.203125 -20.796875 
Q 24.46875 -20.796875 20.265625 -20.09375 
Q 16.0625 -19.390625 12.109375 -17.921875 
L 12.109375 -9.1875 
Q 16.0625 -11.328125 19.921875 -12.34375 
Q 23.78125 -13.375 27.78125 -13.375 
Q 36.625 -13.375 41.015625 -8.765625 
Q 45.40625 -4.15625 45.40625 5.171875 
L 45.40625 9.625 
Q 42.625 4.78125 38.28125 2.390625 
Q 33.9375 0 27.875 0 
Q 17.828125 0 11.671875 7.65625 
Q 5.515625 15.328125 5.515625 27.984375 
Q 5.515625 40.671875 11.671875 48.328125 
Q 17.828125 56 27.875 56 
Q 33.9375 56 38.28125 53.609375 
Q 42.625 51.21875 45.40625 46.390625 
L 45.40625 54.6875 
L 54.390625 54.6875 
z
" id="DejaVuSans-67"/>
      <path d="M 12.40625 8.296875 
L 28.515625 8.296875 
L 28.515625 63.921875 
L 10.984375 60.40625 
L 10.984375 69.390625 
L 28.421875 72.90625 
L 38.28125 72.90625 
L 38.28125 8.296875 
L 54.390625 8.296875 
L 54.390625 0 
L 12.40625 0 
z
" id="DejaVuSans-31"/>
      <path d="M 31 75.875 
Q 24.46875 64.65625 21.28125 53.65625 
Q 18.109375 42.671875 18.109375 31.390625 
Q 18.109375 20.125 21.3125 9.0625 
Q 24.515625 -2 31 -13.1875 
L 23.1875 -13.1875 
Q 15.875 -1.703125 12.234375 9.375 
Q 8.59375 20.453125 8.59375 31.390625 
Q 8.59375 42.28125 12.203125 53.3125 
Q 15.828125 64.359375 23.1875 75.875 
z
" id="DejaVuSans-28"/>
      <path d="M 51.125 44 
L 36.921875 44 
L 32.8125 27.6875 
L 47.125 27.6875 
z
M 43.796875 71.78125 
L 38.71875 51.515625 
L 52.984375 51.515625 
L 58.109375 71.78125 
L 65.921875 71.78125 
L 60.890625 51.515625 
L 76.125 51.515625 
L 76.125 44 
L 58.984375 44 
L 54.984375 27.6875 
L 70.515625 27.6875 
L 70.515625 20.21875 
L 53.078125 20.21875 
L 48 0 
L 40.1875 0 
L 45.21875 20.21875 
L 30.90625 20.21875 
L 25.875 0 
L 18.015625 0 
L 23.09375 20.21875 
L 7.71875 20.21875 
L 7.71875 27.6875 
L 24.90625 27.6875 
L 29 44 
L 13.28125 44 
L 13.28125 51.515625 
L 30.90625 51.515625 
L 35.890625 71.78125 
z
" id="DejaVuSans-23"/>
      <path id="DejaVuSans-20"/>
      <path d="M 37.109375 75.984375 
L 37.109375 68.5 
L 28.515625 68.5 
Q 23.6875 68.5 21.796875 66.546875 
Q 19.921875 64.59375 19.921875 59.515625 
L 19.921875 54.6875 
L 34.71875 54.6875 
L 34.71875 47.703125 
L 19.921875 47.703125 
L 19.921875 0 
L 10.890625 0 
L 10.890625 47.703125 
L 2.296875 47.703125 
L 2.296875 54.6875 
L 10.890625 54.6875 
L 10.890625 58.5 
Q 10.890625 67.625 15.140625 71.796875 
Q 19.390625 75.984375 28.609375 75.984375 
z
" id="DejaVuSans-66"/>
      <path d="M 4.890625 31.390625 
L 31.203125 31.390625 
L 31.203125 23.390625 
L 4.890625 23.390625 
z
" id="DejaVuSans-2d"/>
      <path d="M 56.203125 29.59375 
L 56.203125 25.203125 
L 14.890625 25.203125 
Q 15.484375 15.921875 20.484375 11.0625 
Q 25.484375 6.203125 34.421875 6.203125 
Q 39.59375 6.203125 44.453125 7.46875 
Q 49.3125 8.734375 54.109375 11.28125 
L 54.109375 2.78125 
Q 49.265625 0.734375 44.1875 -0.34375 
Q 39.109375 -1.421875 33.890625 -1.421875 
Q 20.796875 -1.421875 13.15625 6.1875 
Q 5.515625 13.8125 5.515625 26.8125 
Q 5.515625 40.234375 12.765625 48.109375 
Q 20.015625 56 32.328125 56 
Q 43.359375 56 49.78125 48.890625 
Q 56.203125 41.796875 56.203125 29.59375 
z
M 47.21875 32.234375 
Q 47.125 39.59375 43.09375 43.984375 
Q 39.0625 48.390625 32.421875 48.390625 
Q 24.90625 48.390625 20.390625 44.140625 
Q 15.875 39.890625 15.1875 32.171875 
z
" id="DejaVuSans-65"/>
      <path d="M 2.984375 54.6875 
L 12.5 54.6875 
L 29.59375 8.796875 
L 46.6875 54.6875 
L 56.203125 54.6875 
L 35.6875 0 
L 23.484375 0 
z
" id="DejaVuSans-76"/>
      <path d="M 34.28125 27.484375 
Q 23.390625 27.484375 19.1875 25 
Q 14.984375 22.515625 14.984375 16.5 
Q 14.984375 11.71875 18.140625 8.90625 
Q 21.296875 6.109375 26.703125 6.109375 
Q 34.1875 6.109375 38.703125 11.40625 
Q 43.21875 16.703125 43.21875 25.484375 
L 43.21875 27.484375 
z
M 52.203125 31.203125 
L 52.203125 0 
L 43.21875 0 
L 43.21875 8.296875 
Q 40.140625 3.328125 35.546875 0.953125 
Q 30.953125 -1.421875 24.3125 -1.421875 
Q 15.921875 -1.421875 10.953125 3.296875 
Q 6 8.015625 6 15.921875 
Q 6 25.140625 12.171875 29.828125 
Q 18.359375 34.515625 30.609375 34.515625 
L 43.21875 34.515625 
L 43.21875 35.40625 
Q 43.21875 41.609375 39.140625 45 
Q 35.0625 48.390625 27.6875 48.390625 
Q 23 48.390625 18.546875 47.265625 
Q 14.109375 46.140625 10.015625 43.890625 
L 10.015625 52.203125 
Q 14.9375 54.109375 19.578125 55.046875 
Q 24.21875 56 28.609375 56 
Q 40.484375 56 46.34375 49.84375 
Q 52.203125 43.703125 52.203125 31.203125 
z
" id="DejaVuSans-61"/>
      <path d="M 44.28125 53.078125 
L 44.28125 44.578125 
Q 40.484375 46.53125 36.375 47.5 
Q 32.28125 48.484375 27.875 48.484375 
Q 21.1875 48.484375 17.84375 46.4375 
Q 14.5 44.390625 14.5 40.28125 
Q 14.5 37.15625 16.890625 35.375 
Q 19.28125 33.59375 26.515625 31.984375 
L 29.59375 31.296875 
Q 39.15625 29.25 43.1875 25.515625 
Q 47.21875 21.78125 47.21875 15.09375 
Q 47.21875 7.46875 41.1875 3.015625 
Q 35.15625 -1.421875 24.609375 -1.421875 
Q 20.21875 -1.421875 15.453125 -0.5625 
Q 10.6875 0.296875 5.421875 2 
L 5.421875 11.28125 
Q 10.40625 8.6875 15.234375 7.390625 
Q 20.0625 6.109375 24.8125 6.109375 
Q 31.15625 6.109375 34.5625 8.28125 
Q 37.984375 10.453125 37.984375 14.40625 
Q 37.984375 18.0625 35.515625 20.015625 
Q 33.0625 21.96875 24.703125 23.78125 
L 21.578125 24.515625 
Q 13.234375 26.265625 9.515625 29.90625 
Q 5.8125 33.546875 5.8125 39.890625 
Q 5.8125 47.609375 11.28125 51.796875 
Q 16.75 56 26.8125 56 
Q 31.78125 56 36.171875 55.265625 
Q 40.578125 54.546875 44.28125 53.078125 
z
" id="DejaVuSans-73"/>
      <path d="M 25.390625 72.90625 
L 33.6875 72.90625 
L 8.296875 -9.28125 
L 0 -9.28125 
z
" id="DejaVuSans-2f"/>
      <path d="M 45.40625 46.390625 
L 45.40625 75.984375 
L 54.390625 75.984375 
L 54.390625 0 
L 45.40625 0 
L 45.40625 8.203125 
Q 42.578125 3.328125 38.25 0.953125 
Q 33.9375 -1.421875 27.875 -1.421875 
Q 17.96875 -1.421875 11.734375 6.484375 
Q 5.515625 14.40625 5.515625 27.296875 
Q 5.515625 40.1875 11.734375 48.09375 
Q 17.96875 56 27.875 56 
Q 33.9375 56 38.25 53.625 
Q 42.578125 51.265625 45.40625 46.390625 
z
M 14.796875 27.296875 
Q 14.796875 17.390625 18.875 11.75 
Q 22.953125 6.109375 30.078125 6.109375 
Q 37.203125 6.109375 41.296875 11.75 
Q 45.40625 17.390625 45.40625 27.296875 
Q 45.40625 37.203125 41.296875 42.84375 
Q 37.203125 48.484375 30.078125 48.484375 
Q 22.953125 48.484375 18.875 42.84375 
Q 14.796875 37.203125 14.796875 27.296875 
z
" id="DejaVuSans-64"/>
      <path d="M 9.421875 54.6875 
L 18.40625 54.6875 
L 18.40625 0 
L 9.421875 0 
z
M 9.421875 75.984375 
L 18.40625 75.984375 
L 18.40625 64.59375 
L 9.421875 64.59375 
z
" id="DejaVuSans-69"/>
      <path d="M 52 44.1875 
Q 55.375 50.25 60.0625 53.125 
Q 64.75 56 71.09375 56 
Q 79.640625 56 84.28125 50.015625 
Q 88.921875 44.046875 88.921875 33.015625 
L 88.921875 0 
L 79.890625 0 
L 79.890625 32.71875 
Q 79.890625 40.578125 77.09375 44.375 
Q 74.3125 48.1875 68.609375 48.1875 
Q 61.625 48.1875 57.5625 43.546875 
Q 53.515625 38.921875 53.515625 30.90625 
L 53.515625 0 
L 44.484375 0 
L 44.484375 32.71875 
Q 44.484375 40.625 41.703125 44.40625 
Q 38.921875 48.1875 33.109375 48.1875 
Q 26.21875 48.1875 22.15625 43.53125 
Q 18.109375 38.875 18.109375 30.90625 
L 18.109375 0 
L 9.078125 0 
L 9.078125 54.6875 
L 18.109375 54.6875 
L 18.109375 46.1875 
Q 21.1875 51.21875 25.484375 53.609375 
Q 29.78125 56 35.6875 56 
Q 41.65625 56 45.828125 52.96875 
Q 50 49.953125 52 44.1875 
z
" id="DejaVuSans-6d"/>
      <path d="M 54.890625 33.015625 
L 54.890625 0 
L 45.90625 0 
L 45.90625 32.71875 
Q 45.90625 40.484375 42.875 44.328125 
Q 39.84375 48.1875 33.796875 48.1875 
Q 26.515625 48.1875 22.3125 43.546875 
Q 18.109375 38.921875 18.109375 30.90625 
L 18.109375 0 
L 9.078125 0 
L 9.078125 54.6875 
L 18.109375 54.6875 
L 18.109375 46.1875 
Q 21.34375 51.125 25.703125 53.5625 
Q 30.078125 56 35.796875 56 
Q 45.21875 56 50.046875 50.171875 
Q 54.890625 44.34375 54.890625 33.015625 
z
" id="DejaVuSans-6e"/>
      <path d="M 8.015625 75.875 
L 15.828125 75.875 
Q 23.140625 64.359375 26.78125 53.3125 
Q 30.421875 42.28125 30.421875 31.390625 
Q 30.421875 20.453125 26.78125 9.375 
Q 23.140625 -1.703125 15.828125 -13.1875 
L 8.015625 -13.1875 
Q 14.5 -2 17.703125 9.0625 
Q 20.90625 20.125 20.90625 31.390625 
Q 20.90625 42.671875 17.703125 53.65625 
Q 14.5 64.65625 8.015625 75.875 
z
" id="DejaVuSans-29"/>
     </defs>
     <g transform="translate(73.803219 338.153594)scale(0.17 -0.17)">
      <use xlink:href="#DejaVuSans-6c"/>
      <use x="27.783203" xlink:href="#DejaVuSans-6f"/>
      <use x="88.964844" xlink:href="#DejaVuSans-67"/>
      <use x="152.441406" xlink:href="#DejaVuSans-31"/>
      <use x="216.064453" xlink:href="#DejaVuSans-30"/>
      <use x="279.6875" xlink:href="#DejaVuSans-28"/>
      <use x="318.701172" xlink:href="#DejaVuSans-23"/>
      <use x="402.490234" xlink:href="#DejaVuSans-20"/>
      <use x="434.277344" xlink:href="#DejaVuSans-66"/>
      <use x="469.404297" xlink:href="#DejaVuSans-2d"/>
      <use x="505.488281" xlink:href="#DejaVuSans-65"/>
      <use x="567.011719" xlink:href="#DejaVuSans-76"/>
      <use x="626.191406" xlink:href="#DejaVuSans-61"/>
      <use x="687.470703" xlink:href="#DejaVuSans-6c"/>
      <use x="715.253906" xlink:href="#DejaVuSans-73"/>
      <use x="767.353516" xlink:href="#DejaVuSans-20"/>
      <use x="799.140625" xlink:href="#DejaVuSans-2f"/>
      <use x="832.832031" xlink:href="#DejaVuSans-20"/>
      <use x="864.619141" xlink:href="#DejaVuSans-64"/>
      <use x="928.095703" xlink:href="#DejaVuSans-69"/>
      <use x="955.878906" xlink:href="#DejaVuSans-6d"/>
      <use x="1053.291016" xlink:href="#DejaVuSans-65"/>
      <use x="1114.814453" xlink:href="#DejaVuSans-6e"/>
      <use x="1178.193359" xlink:href="#DejaVuSans-73"/>
      <use x="1230.292969" xlink:href="#DejaVuSans-69"/>
      <use x="1258.076172" xlink:href="#DejaVuSans-6f"/>
      <use x="1319.257812" xlink:href="#DejaVuSans-6e"/>
      <use x="1382.636719" xlink:href="#DejaVuSans-29"/>
     </g>
    </g>
   </g>
   <g id="matplotlib.axis_2">
    <g id="ytick_1">
     <g id="line2d_29">
      <path clip-path="url(#p78300bd30d)" d="M 56.12 294.88 
L 333.168 294.88 
" style="fill:none;stroke:#b0b0b0;stroke-linecap:square;stroke-width:0.8;"/>
     </g>
     <g id="line2d_30">
      <defs>
       <path d="M 0 0 
L -3.5 0 
" id="mc420d32fc8" style="stroke:#000000;stroke-width:0.8;"/>
      </defs>
      <g>
       <use style="stroke:#000000;stroke-width:0.8;" x="56.12" xlink:href="#mc420d32fc8" y="294.88"/>
      </g>
     </g>
     <g id="text_6">
      <!-- 0.0 -->
      <defs>
       <path d="M 10.6875 12.40625 
L 21 12.40625 
L 21 0 
L 10.6875 0 
z
" id="DejaVuSans-2e"/>
      </defs>
      <g transform="translate(23.675 300.95875)scale(0.16 -0.16)">
       <use xlink:href="#DejaVuSans-30"/>
       <use x="63.623047" xlink:href="#DejaVuSans-2e"/>
       <use x="95.410156" xlink:href="#DejaVuSans-30"/>
      </g>
     </g>
    </g>
    <g id="ytick_2">
     <g id="line2d_31">
      <path clip-path="url(#p78300bd30d)" d="M 56.12 237.843411 
L 333.168 237.843411 
" style="fill:none;stroke:#b0b0b0;stroke-linecap:square;stroke-width:0.8;"/>
     </g>
     <g id="line2d_32">
      <g>
       <use style="stroke:#000000;stroke-width:0.8;" x="56.12" xlink:href="#mc420d32fc8" y="237.843411"/>
      </g>
     </g>
     <g id="text_7">
      <!-- 0.2 -->
      <g transform="translate(23.675 243.922161)scale(0.16 -0.16)">
       <use xlink:href="#DejaVuSans-30"/>
       <use x="63.623047" xlink:href="#DejaVuSans-2e"/>
       <use x="95.410156" xlink:href="#DejaVuSans-32"/>
      </g>
     </g>
    </g>
    <g id="ytick_3">
     <g id="line2d_33">
      <path clip-path="url(#p78300bd30d)" d="M 56.12 180.806823 
L 333.168 180.806823 
" style="fill:none;stroke:#b0b0b0;stroke-linecap:square;stroke-width:0.8;"/>
     </g>
     <g id="line2d_34">
      <g>
       <use style="stroke:#000000;stroke-width:0.8;" x="56.12" xlink:href="#mc420d32fc8" y="180.806823"/>
      </g>
     </g>
     <g id="text_8">
      <!-- 0.4 -->
      <g transform="translate(23.675 186.885573)scale(0.16 -0.16)">
       <use xlink:href="#DejaVuSans-30"/>
       <use x="63.623047" xlink:href="#DejaVuSans-2e"/>
       <use x="95.410156" xlink:href="#DejaVuSans-34"/>
      </g>
     </g>
    </g>
    <g id="ytick_4">
     <g id="line2d_35">
      <path clip-path="url(#p78300bd30d)" d="M 56.12 123.770234 
L 333.168 123.770234 
" style="fill:none;stroke:#b0b0b0;stroke-linecap:square;stroke-width:0.8;"/>
     </g>
     <g id="line2d_36">
      <g>
       <use style="stroke:#000000;stroke-width:0.8;" x="56.12" xlink:href="#mc420d32fc8" y="123.770234"/>
      </g>
     </g>
     <g id="text_9">
      <!-- 0.6 -->
      <g transform="translate(23.675 129.848984)scale(0.16 -0.16)">
       <use xlink:href="#DejaVuSans-30"/>
       <use x="63.623047" xlink:href="#DejaVuSans-2e"/>
       <use x="95.410156" xlink:href="#DejaVuSans-36"/>
      </g>
     </g>
    </g>
    <g id="ytick_5">
     <g id="line2d_37">
      <path clip-path="url(#p78300bd30d)" d="M 56.12 66.733646 
L 333.168 66.733646 
" style="fill:none;stroke:#b0b0b0;stroke-linecap:square;stroke-width:0.8;"/>
     </g>
     <g id="line2d_38">
      <g>
       <use style="stroke:#000000;stroke-width:0.8;" x="56.12" xlink:href="#mc420d32fc8" y="66.733646"/>
      </g>
     </g>
     <g id="text_10">
      <!-- 0.8 -->
      <defs>
       <path d="M 31.78125 34.625 
Q 24.75 34.625 20.71875 30.859375 
Q 16.703125 27.09375 16.703125 20.515625 
Q 16.703125 13.921875 20.71875 10.15625 
Q 24.75 6.390625 31.78125 6.390625 
Q 38.8125 6.390625 42.859375 10.171875 
Q 46.921875 13.96875 46.921875 20.515625 
Q 46.921875 27.09375 42.890625 30.859375 
Q 38.875 34.625 31.78125 34.625 
z
M 21.921875 38.8125 
Q 15.578125 40.375 12.03125 44.71875 
Q 8.5 49.078125 8.5 55.328125 
Q 8.5 64.0625 14.71875 69.140625 
Q 20.953125 74.21875 31.78125 74.21875 
Q 42.671875 74.21875 48.875 69.140625 
Q 55.078125 64.0625 55.078125 55.328125 
Q 55.078125 49.078125 51.53125 44.71875 
Q 48 40.375 41.703125 38.8125 
Q 48.828125 37.15625 52.796875 32.3125 
Q 56.78125 27.484375 56.78125 20.515625 
Q 56.78125 9.90625 50.3125 4.234375 
Q 43.84375 -1.421875 31.78125 -1.421875 
Q 19.734375 -1.421875 13.25 4.234375 
Q 6.78125 9.90625 6.78125 20.515625 
Q 6.78125 27.484375 10.78125 32.3125 
Q 14.796875 37.15625 21.921875 38.8125 
z
M 18.3125 54.390625 
Q 18.3125 48.734375 21.84375 45.5625 
Q 25.390625 42.390625 31.78125 42.390625 
Q 38.140625 42.390625 41.71875 45.5625 
Q 45.3125 48.734375 45.3125 54.390625 
Q 45.3125 60.0625 41.71875 63.234375 
Q 38.140625 66.40625 31.78125 66.40625 
Q 25.390625 66.40625 21.84375 63.234375 
Q 18.3125 60.0625 18.3125 54.390625 
z
" id="DejaVuSans-38"/>
      </defs>
      <g transform="translate(23.675 72.812396)scale(0.16 -0.16)">
       <use xlink:href="#DejaVuSans-30"/>
       <use x="63.623047" xlink:href="#DejaVuSans-2e"/>
       <use x="95.410156" xlink:href="#DejaVuSans-38"/>
      </g>
     </g>
    </g>
    <g id="ytick_6">
     <g id="line2d_39">
      <path clip-path="url(#p78300bd30d)" d="M 56.12 9.697057 
L 333.168 9.697057 
" style="fill:none;stroke:#b0b0b0;stroke-linecap:square;stroke-width:0.8;"/>
     </g>
     <g id="line2d_40">
      <g>
       <use style="stroke:#000000;stroke-width:0.8;" x="56.12" xlink:href="#mc420d32fc8" y="9.697057"/>
      </g>
     </g>
     <g id="text_11">
      <!-- 1.0 -->
      <g transform="translate(23.675 15.775807)scale(0.16 -0.16)">
       <use xlink:href="#DejaVuSans-31"/>
       <use x="63.623047" xlink:href="#DejaVuSans-2e"/>
       <use x="95.410156" xlink:href="#DejaVuSans-30"/>
      </g>
     </g>
    </g>
    <g id="text_12">
     <!-- Fraction of function,target pairs -->
     <defs>
      <path d="M 9.8125 72.90625 
L 51.703125 72.90625 
L 51.703125 64.59375 
L 19.671875 64.59375 
L 19.671875 43.109375 
L 48.578125 43.109375 
L 48.578125 34.8125 
L 19.671875 34.8125 
L 19.671875 0 
L 9.8125 0 
z
" id="DejaVuSans-46"/>
      <path d="M 41.109375 46.296875 
Q 39.59375 47.171875 37.8125 47.578125 
Q 36.03125 48 33.890625 48 
Q 26.265625 48 22.1875 43.046875 
Q 18.109375 38.09375 18.109375 28.8125 
L 18.109375 0 
L 9.078125 0 
L 9.078125 54.6875 
L 18.109375 54.6875 
L 18.109375 46.1875 
Q 20.953125 51.171875 25.484375 53.578125 
Q 30.03125 56 36.53125 56 
Q 37.453125 56 38.578125 55.875 
Q 39.703125 55.765625 41.0625 55.515625 
z
" id="DejaVuSans-72"/>
      <path d="M 48.78125 52.59375 
L 48.78125 44.1875 
Q 44.96875 46.296875 41.140625 47.34375 
Q 37.3125 48.390625 33.40625 48.390625 
Q 24.65625 48.390625 19.8125 42.84375 
Q 14.984375 37.3125 14.984375 27.296875 
Q 14.984375 17.28125 19.8125 11.734375 
Q 24.65625 6.203125 33.40625 6.203125 
Q 37.3125 6.203125 41.140625 7.25 
Q 44.96875 8.296875 48.78125 10.40625 
L 48.78125 2.09375 
Q 45.015625 0.34375 40.984375 -0.53125 
Q 36.96875 -1.421875 32.421875 -1.421875 
Q 20.0625 -1.421875 12.78125 6.34375 
Q 5.515625 14.109375 5.515625 27.296875 
Q 5.515625 40.671875 12.859375 48.328125 
Q 20.21875 56 33.015625 56 
Q 37.15625 56 41.109375 55.140625 
Q 45.0625 54.296875 48.78125 52.59375 
z
" id="DejaVuSans-63"/>
      <path d="M 18.3125 70.21875 
L 18.3125 54.6875 
L 36.8125 54.6875 
L 36.8125 47.703125 
L 18.3125 47.703125 
L 18.3125 18.015625 
Q 18.3125 11.328125 20.140625 9.421875 
Q 21.96875 7.515625 27.59375 7.515625 
L 36.8125 7.515625 
L 36.8125 0 
L 27.59375 0 
Q 17.1875 0 13.234375 3.875 
Q 9.28125 7.765625 9.28125 18.015625 
L 9.28125 47.703125 
L 2.6875 47.703125 
L 2.6875 54.6875 
L 9.28125 54.6875 
L 9.28125 70.21875 
z
" id="DejaVuSans-74"/>
      <path d="M 8.5 21.578125 
L 8.5 54.6875 
L 17.484375 54.6875 
L 17.484375 21.921875 
Q 17.484375 14.15625 20.5 10.265625 
Q 23.53125 6.390625 29.59375 6.390625 
Q 36.859375 6.390625 41.078125 11.03125 
Q 45.3125 15.671875 45.3125 23.6875 
L 45.3125 54.6875 
L 54.296875 54.6875 
L 54.296875 0 
L 45.3125 0 
L 45.3125 8.40625 
Q 42.046875 3.421875 37.71875 1 
Q 33.40625 -1.421875 27.6875 -1.421875 
Q 18.265625 -1.421875 13.375 4.4375 
Q 8.5 10.296875 8.5 21.578125 
z
M 31.109375 56 
z
" id="DejaVuSans-75"/>
      <path d="M 11.71875 12.40625 
L 22.015625 12.40625 
L 22.015625 4 
L 14.015625 -11.625 
L 7.71875 -11.625 
L 11.71875 4 
z
" id="DejaVuSans-2c"/>
      <path d="M 18.109375 8.203125 
L 18.109375 -20.796875 
L 9.078125 -20.796875 
L 9.078125 54.6875 
L 18.109375 54.6875 
L 18.109375 46.390625 
Q 20.953125 51.265625 25.265625 53.625 
Q 29.59375 56 35.59375 56 
Q 45.5625 56 51.78125 48.09375 
Q 58.015625 40.1875 58.015625 27.296875 
Q 58.015625 14.40625 51.78125 6.484375 
Q 45.5625 -1.421875 35.59375 -1.421875 
Q 29.59375 -1.421875 25.265625 0.953125 
Q 20.953125 3.328125 18.109375 8.203125 
z
M 48.6875 27.296875 
Q 48.6875 37.203125 44.609375 42.84375 
Q 40.53125 48.484375 33.40625 48.484375 
Q 26.265625 48.484375 22.1875 42.84375 
Q 18.109375 37.203125 18.109375 27.296875 
Q 18.109375 17.390625 22.1875 11.75 
Q 26.265625 6.109375 33.40625 6.109375 
Q 40.53125 6.109375 44.609375 11.75 
Q 48.6875 17.390625 48.6875 27.296875 
z
" id="DejaVuSans-70"/>
     </defs>
     <g transform="translate(16.139531 286.001989)rotate(-90)scale(0.17 -0.17)">
      <use xlink:href="#DejaVuSans-46"/>
      <use x="57.410156" xlink:href="#DejaVuSans-72"/>
      <use x="98.523438" xlink:href="#DejaVuSans-61"/>
      <use x="159.802734" xlink:href="#DejaVuSans-63"/>
      <use x="214.783203" xlink:href="#DejaVuSans-74"/>
      <use x="253.992188" xlink:href="#DejaVuSans-69"/>
      <use x="281.775391" xlink:href="#DejaVuSans-6f"/>
      <use x="342.957031" xlink:href="#DejaVuSans-6e"/>
      <use x="406.335938" xlink:href="#DejaVuSans-20"/>
      <use x="438.123047" xlink:href="#DejaVuSans-6f"/>
      <use x="499.304688" xlink:href="#DejaVuSans-66"/>
      <use x="534.509766" xlink:href="#DejaVuSans-20"/>
      <use x="566.296875" xlink:href="#DejaVuSans-66"/>
      <use x="601.501953" xlink:href="#DejaVuSans-75"/>
      <use x="664.880859" xlink:href="#DejaVuSans-6e"/>
      <use x="728.259766" xlink:href="#DejaVuSans-63"/>
      <use x="783.240234" xlink:href="#DejaVuSans-74"/>
      <use x="822.449219" xlink:href="#DejaVuSans-69"/>
      <use x="850.232422" xlink:href="#DejaVuSans-6f"/>
      <use x="911.414062" xlink:href="#DejaVuSans-6e"/>
      <use x="974.792969" xlink:href="#DejaVuSans-2c"/>
      <use x="1006.580078" xlink:href="#DejaVuSans-74"/>
      <use x="1045.789062" xlink:href="#DejaVuSans-61"/>
      <use x="1107.068359" xlink:href="#DejaVuSans-72"/>
      <use x="1148.166016" xlink:href="#DejaVuSans-67"/>
      <use x="1211.642578" xlink:href="#DejaVuSans-65"/>
      <use x="1273.166016" xlink:href="#DejaVuSans-74"/>
      <use x="1312.375" xlink:href="#DejaVuSans-20"/>
      <use x="1344.162109" xlink:href="#DejaVuSans-70"/>
      <use x="1407.638672" xlink:href="#DejaVuSans-61"/>
      <use x="1468.917969" xlink:href="#DejaVuSans-69"/>
      <use x="1496.701172" xlink:href="#DejaVuSans-72"/>
      <use x="1537.814453" xlink:href="#DejaVuSans-73"/>
     </g>
    </g>
   </g>
   <g id="line2d_41">
    <defs>
     <path d="M 0 1.5 
C 0.397805 1.5 0.77937 1.341951 1.06066 1.06066 
C 1.341951 0.77937 1.5 0.397805 1.5 0 
C 1.5 -0.397805 1.341951 -0.77937 1.06066 -1.06066 
C 0.77937 -1.341951 0.397805 -1.5 0 -1.5 
C -0.397805 -1.5 -0.77937 -1.341951 -1.06066 -1.06066 
C -1.341951 -0.77937 -1.5 -0.397805 -1.5 0 
C -1.5 0.397805 -1.341951 0.77937 -1.06066 1.06066 
C -0.77937 1.341951 -0.397805 1.5 0 1.5 
z
" id="md1e85b3e53" style="stroke:#f5deb3;"/>
    </defs>
    <g>
     <use style="fill:#f5deb3;stroke:#f5deb3;" x="218.077162" xlink:href="#md1e85b3e53" y="9.697057"/>
     <use style="fill:#f5deb3;stroke:#f5deb3;" x="218.077162" xlink:href="#md1e85b3e53" y="9.697057"/>
    </g>
   </g>
   <g id="line2d_42">
    <defs>
     <path d="M 0 1.5 
C 0.397805 1.5 0.77937 1.341951 1.06066 1.06066 
C 1.341951 0.77937 1.5 0.397805 1.5 0 
C 1.5 -0.397805 1.341951 -0.77937 1.06066 -1.06066 
C 0.77937 -1.341951 0.397805 -1.5 0 -1.5 
C -0.397805 -1.5 -0.77937 -1.341951 -1.06066 -1.06066 
C -1.341951 -0.77937 -1.5 -0.397805 -1.5 0 
C -1.5 0.397805 -1.341951 0.77937 -1.06066 1.06066 
C -0.77937 1.341951 -0.397805 1.5 0 1.5 
z
" id="md090287b89" style="stroke:#000080;"/>
    </defs>
    <g>
     <use style="fill:#000080;stroke:#000080;" x="277.811202" xlink:href="#md090287b89" y="64.496917"/>
     <use style="fill:#000080;stroke:#000080;" x="277.811202" xlink:href="#md090287b89" y="64.496917"/>
    </g>
   </g>
   <g id="line2d_43">
    <path d="M 44.205749 294.88 
L 44.205749 277.88086 
L 68.034251 277.88086 
L 68.034251 272.624547 
L 77.653281 272.624547 
L 77.653281 266.697215 
L 83.784035 266.697215 
L 83.784035 263.118449 
L 88.293717 263.118449 
L 88.293717 260.658047 
L 91.862754 260.658047 
L 91.862754 258.9805 
L 94.816624 258.9805 
L 94.816624 257.638463 
L 97.336537 257.638463 
L 97.336537 256.520098 
L 99.533818 256.520098 
L 99.533818 255.84908 
L 101.481783 255.84908 
L 101.481783 254.507042 
L 103.231288 254.507042 
L 103.231288 254.171533 
L 104.819059 254.171533 
L 104.819059 252.493986 
L 106.272485 252.493986 
L 106.272485 250.48093 
L 107.612537 250.48093 
L 107.612537 249.027056 
L 108.85563 249.027056 
L 108.85563 247.908692 
L 110.014853 247.908692 
L 110.014853 247.125837 
L 111.100812 247.125837 
L 111.100812 247.014 
L 112.122219 247.014 
L 112.122219 246.678491 
L 113.086321 246.678491 
L 113.086321 244.777271 
L 113.999206 244.777271 
L 113.999206 244.106253 
L 114.866043 244.106253 
L 114.866043 243.770743 
L 115.691256 243.770743 
L 115.691256 241.757687 
L 116.478659 241.757687 
L 116.478659 240.639323 
L 117.231566 240.639323 
L 117.231566 239.520958 
L 117.952873 239.520958 
L 117.952873 238.961776 
L 118.645127 238.961776 
L 118.645127 236.94872 
L 119.310576 236.94872 
L 119.310576 236.165865 
L 119.95122 236.165865 
L 119.95122 235.718519 
L 120.568842 235.718519 
L 120.568842 234.823827 
L 121.16504 234.823827 
L 121.16504 233.593626 
L 121.741249 233.593626 
L 121.741249 231.692407 
L 122.298767 231.692407 
L 122.298767 229.567514 
L 122.838768 229.567514 
L 122.838768 228.44915 
L 123.36232 228.44915 
L 123.36232 228.001804 
L 123.870396 228.001804 
L 123.870396 227.330785 
L 124.363883 227.330785 
L 124.363883 226.324257 
L 124.843597 226.324257 
L 124.843597 225.988748 
L 125.310285 225.988748 
L 125.310285 225.317729 
L 125.764637 225.317729 
L 125.764637 223.975692 
L 126.207287 223.975692 
L 126.207287 223.304673 
L 126.638823 223.304673 
L 126.638823 222.074472 
L 127.05979 222.074472 
L 127.05979 221.51529 
L 127.470694 221.51529 
L 127.470694 219.61407 
L 127.872003 219.61407 
L 127.872003 218.495706 
L 128.264156 218.495706 
L 128.264156 217.153669 
L 128.647561 217.153669 
L 128.647561 214.134084 
L 129.022601 214.134084 
L 129.022601 212.792047 
L 129.389632 212.792047 
L 129.389632 211.226337 
L 129.748989 211.226337 
L 129.748989 209.996136 
L 130.100987 209.996136 
L 130.100987 208.877771 
L 130.445921 208.877771 
L 130.445921 207.312061 
L 130.784069 207.312061 
L 130.784069 205.858187 
L 131.115693 205.858187 
L 131.115693 204.51615 
L 131.441039 204.51615 
L 131.441039 202.503094 
L 131.760342 202.503094 
L 131.760342 200.490038 
L 132.073821 200.490038 
L 132.073821 200.042692 
L 132.381685 200.042692 
L 132.381685 198.700655 
L 132.684132 198.700655 
L 132.684132 198.253309 
L 132.98135 198.253309 
L 132.98135 197.023108 
L 133.273515 197.023108 
L 133.273515 195.792907 
L 133.560797 195.792907 
L 133.560797 194.11536 
L 133.843356 194.11536 
L 133.843356 193.108832 
L 134.121345 193.108832 
L 134.121345 190.98394 
L 134.39491 190.98394 
L 134.39491 189.08272 
L 134.664189 189.08272 
L 134.664189 188.523538 
L 134.929315 188.523538 
L 134.929315 188.076192 
L 135.190413 188.076192 
L 135.190413 185.951299 
L 135.701004 185.951299 
L 135.701004 185.392117 
L 135.950722 185.392117 
L 135.950722 184.609262 
L 136.196864 184.609262 
L 136.196864 184.385589 
L 136.439531 184.385589 
L 136.439531 183.938243 
L 136.67882 183.938243 
L 136.67882 183.267225 
L 136.914823 183.267225 
L 136.914823 182.931715 
L 137.14763 182.931715 
L 137.14763 182.596206 
L 137.377325 182.596206 
L 137.377325 182.48437 
L 137.603992 182.48437 
L 137.603992 182.372533 
L 137.827708 182.372533 
L 137.827708 181.813351 
L 138.04855 181.813351 
L 138.04855 181.589678 
L 138.4819 181.589678 
L 138.4819 181.477842 
L 138.694545 181.477842 
L 138.694545 181.366005 
L 139.112104 181.366005 
L 139.112104 180.247641 
L 139.317139 180.247641 
L 139.317139 180.135804 
L 139.519758 180.135804 
L 139.519758 178.346421 
L 140.113666 178.346421 
L 140.113666 178.122748 
L 140.687737 178.122748 
L 140.687737 177.563566 
L 141.060069 177.563566 
L 141.060069 177.339893 
L 141.603867 177.339893 
L 141.603867 177.228057 
L 141.95707 177.228057 
L 141.95707 177.004384 
L 142.130987 177.004384 
L 142.130987 176.780711 
L 142.303162 176.780711 
L 142.303162 175.774183 
L 142.473629 175.774183 
L 142.473629 173.761127 
L 142.642422 173.761127 
L 142.642422 172.642762 
L 142.809574 172.642762 
L 142.809574 172.419089 
L 143.139078 172.419089 
L 143.139078 172.307253 
L 143.462385 172.307253 
L 143.462385 171.748071 
L 143.621786 171.748071 
L 143.621786 170.965215 
L 143.779723 170.965215 
L 143.779723 170.629706 
L 143.936221 170.629706 
L 143.936221 169.846851 
L 144.091308 169.846851 
L 144.091308 169.063996 
L 144.245007 169.063996 
L 144.245007 168.169304 
L 144.397345 168.169304 
L 144.397345 167.162776 
L 144.548344 167.162776 
L 144.548344 166.827267 
L 144.698028 166.827267 
L 144.698028 166.379921 
L 144.84642 166.379921 
L 144.84642 165.708902 
L 144.993542 165.708902 
L 144.993542 165.14972 
L 145.569751 165.14972 
L 145.569751 165.037884 
L 145.710835 165.037884 
L 145.710835 164.926047 
L 145.85077 164.926047 
L 145.85077 164.814211 
L 145.989576 164.814211 
L 145.989576 164.702374 
L 147.57328 164.702374 
L 147.57328 164.590538 
L 148.672099 164.590538 
L 148.672099 164.478701 
L 148.789965 164.478701 
L 148.789965 164.366865 
L 149.023298 164.366865 
L 149.023298 164.255029 
L 149.815889 164.255029 
L 149.926191 164.031356 
L 150.035789 164.031356 
L 150.035789 163.807683 
L 150.252912 163.807683 
L 150.360453 163.136664 
L 150.467326 163.136664 
L 150.573538 162.577482 
L 150.679098 162.577482 
L 150.784014 161.235444 
L 150.888293 161.235444 
L 150.991943 160.11708 
L 151.094972 160.11708 
L 151.197387 158.886879 
L 151.299196 158.886879 
L 151.400405 157.433005 
L 151.501022 157.433005 
L 151.601053 156.65015 
L 151.700505 156.65015 
L 151.799385 151.61751 
L 151.8977 151.61751 
L 151.995456 151.058328 
L 152.092658 151.058328 
L 152.189314 149.268944 
L 152.28543 149.268944 
L 152.381011 148.597926 
L 152.476064 148.597926 
L 152.570594 146.808543 
L 152.758108 146.808543 
L 152.851103 146.24936 
L 152.943598 146.24936 
L 153.035598 146.025687 
L 153.127109 146.025687 
L 153.218134 145.354669 
L 153.30868 145.354669 
L 153.398752 145.019159 
L 153.577492 145.019159 
L 153.577492 144.907323 
L 153.842163 144.907323 
L 153.929489 144.348141 
L 154.016374 144.348141 
L 154.102822 143.788959 
L 154.779183 143.788959 
L 154.779183 143.565286 
L 155.026111 143.565286 
L 155.107638 143.11794 
L 155.18878 143.11794 
L 155.269542 142.335085 
L 155.349925 142.335085 
L 155.429934 142.111412 
L 155.509573 142.111412 
L 155.588844 140.433865 
L 155.746298 140.433865 
L 155.824488 139.986519 
L 155.979808 139.986519 
L 156.056945 139.539173 
L 156.133737 139.539173 
L 156.210188 137.637954 
L 156.2863 137.637954 
L 156.362076 135.960407 
L 156.43752 135.960407 
L 156.512635 135.736734 
L 156.587422 135.736734 
L 156.587422 135.513061 
L 156.736028 135.513061 
L 156.809852 134.842043 
L 156.88336 134.842043 
L 156.956555 133.947351 
L 157.02944 133.947351 
L 157.102017 132.828987 
L 157.174289 132.828987 
L 157.246258 132.605314 
L 157.317927 132.605314 
L 157.389299 131.598786 
L 157.460375 131.598786 
L 157.460375 131.486949 
L 157.601653 131.486949 
L 157.601653 131.375113 
L 158.087174 131.375113 
L 158.087174 131.15144 
L 158.425766 131.15144 
L 158.492691 130.704094 
L 158.625765 130.704094 
L 158.691918 130.480421 
L 158.757817 130.480421 
L 158.823464 130.256748 
L 158.954011 130.256748 
L 159.018915 130.033075 
L 159.212168 130.033075 
L 159.212168 129.921239 
L 159.339807 129.921239 
L 159.339807 129.809402 
L 159.466505 129.809402 
L 159.466505 129.697566 
L 159.592276 129.697566 
L 159.592276 129.58573 
L 159.841091 129.58573 
L 159.841091 129.362057 
L 160.086355 129.362057 
L 160.086355 129.138384 
L 160.566627 129.138384 
L 160.566627 128.914711 
L 160.743325 128.914711 
L 160.743325 128.802874 
L 160.860123 128.802874 
L 160.860123 128.691038 
L 161.033844 128.691038 
L 161.033844 128.579202 
L 161.822107 128.579202 
L 161.822107 128.467365 
L 162.888963 128.467365 
L 162.940606 128.243692 
L 163.196521 128.243692 
L 163.297829 128.020019 
L 163.348261 128.020019 
L 163.448681 125.895127 
L 164.563224 125.895127 
L 164.563224 125.78329 
L 164.93455 125.78329 
L 165.026142 125.447781 
L 165.071755 125.447781 
L 165.16262 122.987379 
L 165.207874 122.987379 
L 165.253008 121.197996 
L 165.342922 121.197996 
L 165.387704 120.974323 
L 165.476919 120.974323 
L 165.476919 120.191468 
L 166.428881 120.191468 
L 166.428881 120.079632 
L 166.554703 120.079632 
L 166.554703 119.967795 
L 166.679611 119.967795 
L 166.679611 119.855959 
L 166.803618 119.855959 
L 166.803618 119.632286 
L 167.686652 119.632286 
L 167.686652 119.520449 
L 167.803626 119.520449 
L 167.803626 119.296776 
L 168.41439 119.296776 
L 168.489231 118.961267 
L 168.748641 118.961267 
L 168.858629 115.71801 
L 168.895136 115.71801 
L 168.931565 115.382501 
L 169.076516 115.382501 
L 169.076516 115.158828 
L 169.327275 115.158828 
L 169.433633 113.033935 
L 169.46894 113.033935 
L 169.46894 112.922099 
L 170.429193 112.922099 
L 170.429193 112.810262 
L 170.759542 112.810262 
L 170.759542 112.698426 
L 171.051523 112.698426 
L 171.11574 109.11966 
L 172.589076 109.11966 
L 172.647807 108.448641 
L 173.309175 108.448641 
L 173.393594 107.889459 
L 173.4776 107.889459 
L 173.561198 106.882931 
L 173.588974 106.882931 
L 173.699631 105.65273 
L 174.000314 105.65273 
L 174.000314 105.540893 
L 174.295828 105.540893 
L 174.40204 102.521309 
L 174.428491 102.521309 
L 174.481271 100.172744 
L 174.560138 100.172744 
L 174.560138 100.060907 
L 175.203661 100.060907 
L 175.203661 99.837234 
L 176.795147 99.837234 
L 176.795147 99.725398 
L 177.866529 99.725398 
L 177.866529 99.166216 
L 177.995876 99.166216 
L 177.995876 99.054379 
L 178.586947 99.054379 
L 178.690389 98.495197 
L 179.077889 98.495197 
L 179.077889 98.271524 
L 182.960412 98.271524 
L 183.008612 97.824178 
L 183.088646 97.824178 
L 183.152407 97.264996 
L 184.036189 97.264996 
L 184.036189 97.15316 
L 185.062827 97.15316 
L 185.062827 97.041323 
L 185.232826 97.041323 
L 185.303166 93.574393 
L 185.896491 93.574393 
L 185.950657 93.35072 
L 186.058479 93.35072 
L 186.058479 93.238884 
L 186.39113 93.238884 
L 186.470017 92.679702 
L 187.709754 92.679702 
L 187.709754 92.344192 
L 188.717073 92.344192 
L 188.717073 92.232356 
L 189.766348 92.232356 
L 189.777173 91.78501 
L 190.539199 91.78501 
L 190.539199 91.673174 
L 191.079307 91.673174 
L 191.079307 91.561337 
L 192.641388 91.561337 
L 192.641388 91.449501 
L 193.525187 91.449501 
L 193.525187 91.225828 
L 194.588045 91.225828 
L 194.588045 91.113991 
L 194.702183 91.113991 
L 194.807494 89.660118 
L 194.815568 89.660118 
L 194.823639 89.324608 
L 195.04012 89.324608 
L 195.04012 89.212772 
L 196.395503 89.212772 
L 196.395503 89.100935 
L 197.165863 89.100935 
L 197.165863 88.989099 
L 197.299118 88.989099 
L 197.299118 88.877262 
L 198.084331 88.877262 
L 198.084331 88.765426 
L 198.309773 88.765426 
L 198.309773 88.65359 
L 198.467147 88.65359 
L 198.467147 88.429917 
L 199.499472 88.429917 
L 199.499472 88.094407 
L 200.204014 88.094407 
L 200.204014 87.982571 
L 200.49071 87.982571 
L 200.49071 87.870734 
L 201.499168 87.870734 
L 201.499168 87.758898 
L 202.534354 87.758898 
L 202.560095 87.311552 
L 202.698431 87.311552 
L 202.774807 87.087879 
L 202.871064 87.087879 
L 202.871064 86.864206 
L 204.197723 86.864206 
L 204.197723 86.75237 
L 204.645485 86.75237 
L 204.645485 86.640533 
L 205.381329 86.640533 
L 205.394421 86.416861 
L 206.505022 86.416861 
L 206.549946 86.193188 
L 207.876023 86.193188 
L 207.921273 85.969515 
L 208.015162 85.969515 
L 208.015162 85.857678 
L 208.171751 85.857678 
L 208.194005 85.634005 
L 208.502571 85.634005 
L 208.502571 85.522169 
L 208.95173 85.522169 
L 208.95173 85.410333 
L 209.093017 85.410333 
L 209.093017 85.298496 
L 209.575151 85.298496 
L 209.680858 85.074823 
L 209.691053 85.074823 
L 209.691053 84.962987 
L 209.960719 84.962987 
L 209.960719 84.85115 
L 210.350911 84.85115 
L 210.419433 84.627477 
L 210.674786 84.627477 
L 210.76758 84.180132 
L 210.809015 84.180132 
L 210.809015 84.068295 
L 210.929563 84.068295 
L 210.973763 83.620949 
L 212.55133 83.620949 
L 212.628823 83.397276 
L 213.142263 83.397276 
L 213.161708 83.173604 
L 213.407034 83.173604 
L 213.407034 83.061767 
L 214.004134 83.061767 
L 214.096406 82.726258 
L 214.211708 82.726258 
L 214.258655 82.167076 
L 214.738942 82.167076 
L 214.738942 82.055239 
L 215.139492 82.055239 
L 215.139492 81.943403 
L 216.955361 81.943403 
L 216.955361 81.831566 
L 217.187558 81.831566 
L 217.187558 81.71973 
L 217.329743 81.71973 
L 217.329743 81.607893 
L 218.223237 81.607893 
L 218.307821 81.38422 
L 218.396085 81.38422 
L 218.485936 81.160548 
L 218.611751 81.160548 
L 218.611751 81.048711 
L 218.750697 81.048711 
L 218.780755 80.825038 
L 218.874597 80.825038 
L 218.981786 80.15402 
L 219.384663 80.15402 
L 219.384663 80.042183 
L 220.450768 80.042183 
L 220.450768 79.930347 
L 220.710405 79.930347 
L 220.710405 79.81851 
L 220.86539 79.81851 
L 220.86539 79.706674 
L 221.022505 79.706674 
L 221.118885 79.483001 
L 221.270246 79.483001 
L 221.270246 79.371164 
L 221.987756 79.371164 
L 221.987756 79.259328 
L 222.100357 79.259328 
L 222.192536 79.035655 
L 222.762484 79.035655 
L 222.762484 78.811982 
L 223.462676 78.811982 
L 223.535707 78.588309 
L 223.6492 78.588309 
L 223.6492 78.476473 
L 224.325013 78.476473 
L 224.397366 78.140963 
L 224.555479 78.140963 
L 224.555479 78.029127 
L 226.03518 78.029127 
L 226.03518 77.917291 
L 226.25562 77.917291 
L 226.281521 77.693618 
L 227.24894 77.693618 
L 227.24894 77.581781 
L 227.768247 77.581781 
L 227.768247 77.469945 
L 227.900665 77.469945 
L 227.961799 77.134435 
L 228.487651 77.134435 
L 228.546737 76.910763 
L 228.647396 76.910763 
L 228.647396 76.798926 
L 228.772116 76.798926 
L 228.772116 76.68709 
L 229.198914 76.68709 
L 229.198914 76.575253 
L 229.957312 76.575253 
L 229.957312 76.463417 
L 230.647558 76.463417 
L 230.647558 76.35158 
L 231.107128 76.35158 
L 231.169564 76.127907 
L 231.30922 76.127907 
L 231.30922 76.016071 
L 231.644953 76.016071 
L 231.718679 75.792398 
L 231.82399 75.792398 
L 231.852089 75.568725 
L 232.135188 75.568725 
L 232.135188 75.456889 
L 233.050311 75.456889 
L 233.050311 75.345052 
L 233.951499 75.345052 
L 233.951499 75.233216 
L 234.164694 75.233216 
L 234.164694 75.121379 
L 234.445439 75.121379 
L 234.503288 74.78587 
L 234.576924 74.78587 
L 234.662966 74.450361 
L 234.717712 74.450361 
L 234.717712 74.338524 
L 235.00211 74.338524 
L 235.104653 74.114851 
L 235.573755 74.114851 
L 235.573755 74.003015 
L 236.313543 74.003015 
L 236.313543 73.891178 
L 236.684905 73.891178 
L 236.684905 73.779342 
L 236.848036 73.779342 
L 236.848036 73.667506 
L 236.980491 73.667506 
L 237.057403 73.443833 
L 237.116067 73.443833 
L 237.118823 73.22016 
L 237.232115 73.22016 
L 237.232115 73.108323 
L 238.690479 73.108323 
L 238.690479 72.996487 
L 239.272732 72.996487 
L 239.381781 72.325468 
L 240.780523 72.325468 
L 240.780523 72.213632 
L 240.981981 72.213632 
L 241.068149 71.654449 
L 241.323015 71.654449 
L 241.323015 71.542613 
L 241.63783 71.542613 
L 241.63783 71.430777 
L 242.501307 71.430777 
L 242.504832 71.207104 
L 242.648254 71.207104 
L 242.755289 70.759758 
L 242.813257 70.759758 
L 242.813257 70.647921 
L 244.046524 70.647921 
L 244.046524 70.536085 
L 244.352238 70.536085 
L 244.352238 70.424249 
L 244.66727 70.424249 
L 244.66727 70.312412 
L 245.524729 70.312412 
L 245.529798 70.088739 
L 245.642606 70.088739 
L 245.684929 69.865066 
L 245.789657 69.865066 
L 245.789657 69.75323 
L 246.735687 69.75323 
L 246.735687 69.641393 
L 246.947759 69.641393 
L 247.050115 69.41772 
L 247.078697 69.41772 
L 247.078697 69.305884 
L 248.022873 69.305884 
L 248.048425 69.082211 
L 248.174892 69.082211 
L 248.189007 68.858538 
L 248.34674 68.858538 
L 248.34674 68.746702 
L 249.082488 68.746702 
L 249.179071 68.523029 
L 249.212849 68.523029 
L 249.212849 68.411192 
L 249.354403 68.411192 
L 249.379064 68.18752 
L 249.559394 68.18752 
L 249.559394 68.075683 
L 251.448345 68.075683 
L 251.448345 67.963847 
L 252.254009 67.963847 
L 252.254009 67.85201 
L 252.406405 67.85201 
L 252.423663 67.628337 
L 253.140348 67.628337 
L 253.140348 67.516501 
L 253.265203 67.516501 
L 253.265203 67.404664 
L 254.838848 67.404664 
L 254.918274 67.180992 
L 255.822724 67.180992 
L 255.822724 67.069155 
L 256.241522 67.069155 
L 256.241522 66.957319 
L 256.943066 66.957319 
L 256.943066 66.845482 
L 257.171765 66.845482 
L 257.222961 66.621809 
L 257.97519 66.621809 
L 257.97519 66.509973 
L 258.301284 66.509973 
L 258.408821 66.174463 
L 259.72665 66.174463 
L 259.72665 66.062627 
L 259.918606 66.062627 
L 259.918606 65.950791 
L 260.216423 65.950791 
L 260.216423 65.838954 
L 261.371567 65.838954 
L 261.410169 65.615281 
L 261.974164 65.615281 
L 261.974164 65.503445 
L 262.796651 65.503445 
L 262.837586 65.279772 
L 266.121031 65.279772 
L 266.121031 65.167935 
L 266.458269 65.167935 
L 266.458269 65.056099 
L 267.839887 65.056099 
L 267.839887 64.944263 
L 269.792089 64.944263 
L 269.792089 64.832426 
L 276.84677 64.832426 
L 276.84677 64.72059 
L 277.45389 64.72059 
L 277.45389 64.608753 
L 277.811202 64.608753 
L 277.811202 64.496917 
L 333.168 64.496917 
L 333.168 64.496917 
" style="fill:none;stroke:#000080;stroke-linecap:square;stroke-width:1.5;"/>
   </g>
   <g id="line2d_44">
    <defs>
     <path d="M 0 6 
C 1.591219 6 3.117479 5.367802 4.242641 4.242641 
C 5.367802 3.117479 6 1.591219 6 0 
C 6 -1.591219 5.367802 -3.117479 4.242641 -4.242641 
C 3.117479 -5.367802 1.591219 -6 0 -6 
C -1.591219 -6 -3.117479 -5.367802 -4.242641 -4.242641 
C -5.367802 -3.117479 -6 -1.591219 -6 0 
C -6 1.591219 -5.367802 3.117479 -4.242641 4.242641 
C -3.117479 5.367802 -1.591219 6 0 6 
z
" id="m2843b83830" style="stroke:#000080;stroke-width:1.5;"/>
    </defs>
    <g>
     <use style="fill:none;stroke:#000080;stroke-width:1.5;" x="127.470694" xlink:href="#m2843b83830" y="219.61407"/>
     <use style="fill:none;stroke:#000080;stroke-width:1.5;" x="171.051523" xlink:href="#m2843b83830" y="112.698426"/>
     <use style="fill:none;stroke:#000080;stroke-width:1.5;" x="239.320071" xlink:href="#m2843b83830" y="72.549141"/>
     <use style="fill:none;stroke:#000080;stroke-width:1.5;" x="277.811202" xlink:href="#m2843b83830" y="64.496917"/>
     <use style="fill:none;stroke:#000080;stroke-width:1.5;" x="277.811202" xlink:href="#m2843b83830" y="64.496917"/>
     <use style="fill:none;stroke:#000080;stroke-width:1.5;" x="333.168" xlink:href="#m2843b83830" y="64.496917"/>
    </g>
   </g>
   <g id="line2d_45">
    <path style="fill:none;stroke:#000080;stroke-linecap:square;stroke-width:1.5;"/>
    <g/>
   </g>
   <g id="line2d_46">
    <path clip-path="url(#p78300bd30d)" d="M 192.444839 91.561337 
" style="fill:none;stroke:#000080;stroke-linecap:square;stroke-width:1.5;"/>
    <defs>
     <path d="M -12 12 
L 12 -12 
M -12 -12 
L 12 12 
" id="m034ce285af" style="stroke:#000080;"/>
    </defs>
    <g clip-path="url(#p78300bd30d)">
     <use style="fill:#000080;stroke:#000080;" x="192.444839" xlink:href="#m034ce285af" y="91.561337"/>
    </g>
   </g>
   <g id="line2d_47">
    <defs>
     <path d="M 0 1.5 
C 0.397805 1.5 0.77937 1.341951 1.06066 1.06066 
C 1.341951 0.77937 1.5 0.397805 1.5 0 
C 1.5 -0.397805 1.341951 -0.77937 1.06066 -1.06066 
C 0.77937 -1.341951 0.397805 -1.5 0 -1.5 
C -0.397805 -1.5 -0.77937 -1.341951 -1.06066 -1.06066 
C -1.341951 -0.77937 -1.5 -0.397805 -1.5 0 
C -1.5 0.397805 -1.341951 0.77937 -1.06066 1.06066 
C -0.77937 1.341951 -0.397805 1.5 0 1.5 
z
" id="m630e3c9b12" style="stroke:#ff00ff;"/>
    </defs>
    <g>
     <use style="fill:#ff00ff;stroke:#ff00ff;" x="190.73478" xlink:href="#m630e3c9b12" y="156.202804"/>
     <use style="fill:#ff00ff;stroke:#ff00ff;" x="190.73478" xlink:href="#m630e3c9b12" y="156.202804"/>
    </g>
   </g>
   <g id="line2d_48">
    <path d="M 44.205749 294.88 
L 44.205749 278.104533 
L 75.003641 278.104533 
L 75.003641 277.88086 
L 79.948502 277.88086 
L 79.948502 277.769023 
L 81.973032 277.769023 
L 81.973032 277.545351 
L 85.422286 277.545351 
L 85.422286 277.433514 
L 86.917893 277.433514 
L 86.917893 277.209841 
L 89.567532 277.209841 
L 89.567532 276.986168 
L 90.753425 276.986168 
L 90.753425 276.874332 
L 91.862754 276.874332 
L 91.862754 276.650659 
L 92.904808 276.650659 
L 92.904808 276.31515 
L 93.887283 276.31515 
L 93.887283 276.091477 
L 95.698286 276.091477 
L 95.698286 275.97964 
L 96.536922 275.97964 
L 96.536922 275.867804 
L 97.336537 275.867804 
L 97.336537 275.532294 
L 98.100602 275.532294 
L 98.100602 274.749439 
L 98.832144 274.749439 
L 98.832144 274.637603 
L 99.533818 274.637603 
L 99.533818 274.41393 
L 100.207968 274.41393 
L 100.207968 274.302094 
L 100.856673 274.302094 
L 100.856673 273.854748 
L 101.481783 273.854748 
L 101.481783 273.407402 
L 102.084955 273.407402 
L 102.084955 272.736383 
L 102.667676 272.736383 
L 102.667676 272.400874 
L 103.231288 272.400874 
L 103.231288 272.065365 
L 103.777005 272.065365 
L 103.777005 271.618019 
L 104.305927 271.618019 
L 104.305927 265.690687 
L 104.819059 265.690687 
L 104.819059 262.559266 
L 105.317315 262.559266 
L 105.317315 262.111921 
L 105.801534 262.111921 
L 105.801534 262.000084 
L 106.272485 262.000084 
L 106.272485 261.888248 
L 106.730875 261.888248 
L 106.730875 261.776411 
L 107.177358 261.776411 
L 107.177358 261.217229 
L 107.612537 261.217229 
L 107.612537 260.993556 
L 108.036969 260.993556 
L 108.036969 260.88172 
L 108.451173 260.88172 
L 108.451173 260.658047 
L 108.85563 260.658047 
L 108.85563 260.54621 
L 110.384516 260.54621 
L 110.384516 260.210701 
L 111.100812 260.210701 
L 111.100812 259.987028 
L 111.448069 259.987028 
L 111.448069 259.875192 
L 112.122219 259.875192 
L 112.122219 259.539682 
L 112.449632 259.539682 
L 112.449632 259.092337 
L 112.770924 259.092337 
L 112.770924 258.9805 
L 113.396034 258.9805 
L 113.396034 258.868664 
L 113.999206 258.868664 
L 113.999206 258.756827 
L 114.293036 258.756827 
L 114.293036 258.421318 
L 114.581927 258.421318 
L 114.581927 257.41479 
L 114.866043 257.41479 
L 114.866043 257.191117 
L 115.145539 257.191117 
L 115.145539 256.967444 
L 115.420563 256.967444 
L 115.420563 256.631935 
L 115.691256 256.631935 
L 115.691256 256.408262 
L 115.957752 256.408262 
L 115.957752 256.296425 
L 116.220179 256.296425 
L 116.220179 256.072752 
L 116.478659 256.072752 
L 116.478659 255.960916 
L 116.73331 255.960916 
L 116.73331 255.625407 
L 116.984244 255.625407 
L 116.984244 255.401734 
L 117.231566 255.401734 
L 117.231566 255.178061 
L 117.475381 255.178061 
L 117.475381 255.066224 
L 117.715785 255.066224 
L 117.715785 254.954388 
L 117.952873 254.954388 
L 117.952873 253.276841 
L 118.186736 253.276841 
L 118.186736 252.717659 
L 118.417459 252.717659 
L 118.417459 252.38215 
L 118.645127 252.38215 
L 118.645127 252.270313 
L 118.869818 252.270313 
L 118.869818 251.822967 
L 119.09161 251.822967 
L 119.09161 251.375622 
L 119.310576 251.375622 
L 119.310576 251.151949 
L 119.526788 251.151949 
L 119.526788 249.586238 
L 119.740314 249.586238 
L 119.740314 249.474402 
L 119.95122 249.474402 
L 119.95122 248.91522 
L 120.15957 248.91522 
L 120.15957 248.244201 
L 120.365424 248.244201 
L 120.365424 248.020528 
L 120.568842 248.020528 
L 120.568842 247.685019 
L 120.769881 247.685019 
L 120.769881 247.461346 
L 121.16504 247.461346 
L 121.16504 245.560126 
L 121.359263 245.560126 
L 121.359263 245.336453 
L 121.551317 245.336453 
L 121.551317 243.994416 
L 121.741249 243.994416 
L 121.741249 242.987888 
L 121.929105 242.987888 
L 121.929105 242.316869 
L 122.114929 242.316869 
L 122.114929 242.093196 
L 122.298767 242.093196 
L 122.298767 241.534014 
L 122.480659 241.534014 
L 122.480659 241.198505 
L 122.660646 241.198505 
L 122.660646 239.744631 
L 122.838768 239.744631 
L 122.838768 239.632795 
L 123.015063 239.632795 
L 123.015063 239.073612 
L 123.189569 239.073612 
L 123.189569 238.290757 
L 123.533353 238.290757 
L 123.533353 238.178921 
L 123.7027 238.178921 
L 123.7027 237.731575 
L 123.870396 237.731575 
L 123.870396 237.284229 
L 124.036471 237.284229 
L 124.036471 236.94872 
L 124.200956 236.94872 
L 124.200956 236.836883 
L 124.363883 236.836883 
L 124.363883 236.277701 
L 124.685175 236.277701 
L 124.685175 235.606682 
L 125.000572 235.606682 
L 125.000572 235.159337 
L 125.614517 235.159337 
L 125.614517 234.600154 
L 125.764637 234.600154 
L 125.764637 234.488318 
L 126.061 234.488318 
L 126.061 234.152809 
L 126.207287 234.152809 
L 126.207287 233.705463 
L 126.352339 233.705463 
L 126.352339 233.48179 
L 126.496178 233.48179 
L 126.496178 232.251589 
L 126.638823 232.251589 
L 126.638823 232.139753 
L 126.780294 232.139753 
L 126.780294 231.692407 
L 126.92061 231.692407 
L 126.92061 231.58057 
L 127.05979 231.58057 
L 127.05979 231.356897 
L 127.334814 231.356897 
L 127.334814 230.797715 
L 127.739271 230.797715 
L 127.739271 230.685879 
L 128.13443 230.685879 
L 128.13443 230.574042 
L 128.39291 230.574042 
L 128.39291 229.791187 
L 128.647561 229.791187 
L 128.647561 229.679351 
L 129.145817 229.679351 
L 129.145817 229.567514 
L 129.389632 229.567514 
L 129.389632 229.343841 
L 129.510254 229.343841 
L 129.510254 229.232005 
L 129.630036 229.232005 
L 129.630036 229.120168 
L 129.867125 229.120168 
L 129.867125 229.008332 
L 129.984454 229.008332 
L 129.984454 228.896496 
L 130.784069 228.896496 
L 130.784069 228.784659 
L 132.279675 228.784659 
L 132.381685 228.337313 
L 132.98135 228.337313 
L 132.98135 228.11364 
L 133.176677 228.11364 
L 133.176677 228.001804 
L 133.6555 228.001804 
L 133.749684 227.666295 
L 133.843356 227.666295 
L 133.936519 227.218949 
L 134.029181 227.218949 
L 134.121345 226.659767 
L 134.213018 226.659767 
L 134.304205 226.436094 
L 134.39491 226.436094 
L 134.485139 225.876911 
L 134.574897 225.876911 
L 134.664189 225.541402 
L 134.753019 225.541402 
L 134.841393 224.98222 
L 135.016789 224.98222 
L 135.10382 224.423038 
L 135.190413 224.423038 
L 135.190413 224.311201 
L 135.3623 224.311201 
L 135.447604 223.528346 
L 135.532486 223.528346 
L 135.616951 222.969164 
L 135.701004 222.969164 
L 135.784647 222.298145 
L 135.867885 222.298145 
L 135.950722 221.291617 
L 136.033161 221.291617 
L 136.115208 220.396926 
L 136.196864 220.396926 
L 136.278134 220.061416 
L 136.359022 220.061416 
L 136.439531 219.837743 
L 136.519665 219.837743 
L 136.599426 219.278561 
L 136.67882 219.278561 
L 136.757848 218.943052 
L 136.836515 218.943052 
L 136.914823 218.495706 
L 136.992776 218.495706 
L 137.070377 217.936524 
L 137.14763 217.936524 
L 137.224536 217.265505 
L 137.377325 217.265505 
L 137.453213 217.041832 
L 137.603992 217.041832 
L 137.603992 216.48265 
L 137.753459 216.48265 
L 137.753459 216.258977 
L 137.901638 216.258977 
L 137.975251 215.252449 
L 138.121538 215.252449 
L 138.194217 214.245921 
L 138.266591 214.245921 
L 138.33866 213.798575 
L 138.553074 213.798575 
L 138.553074 213.574902 
L 138.694545 213.574902 
L 138.694545 213.239393 
L 138.834862 213.239393 
L 138.834862 212.903883 
L 138.974042 212.903883 
L 138.974042 212.680211 
L 139.112104 212.680211 
L 139.112104 212.344701 
L 139.249066 212.344701 
L 139.317139 211.45001 
L 139.384945 211.45001 
L 139.452484 210.890827 
L 139.653523 210.890827 
L 139.720016 210.667155 
L 139.852237 210.667155 
L 139.852237 210.443482 
L 139.983449 210.443482 
L 139.983449 210.331645 
L 140.178407 210.331645 
L 140.242905 209.884299 
L 140.307161 209.884299 
L 140.307161 209.54879 
L 140.62489 209.54879 
L 140.687737 208.989608 
L 140.936852 208.989608 
L 140.998571 208.765935 
L 141.060069 208.765935 
L 141.121347 208.430426 
L 141.182408 208.430426 
L 141.182408 208.318589 
L 141.303883 208.318589 
L 141.3643 208.094916 
L 141.603867 208.094916 
L 141.603867 207.98308 
L 141.84014 207.98308 
L 141.84014 207.871243 
L 141.95707 207.871243 
L 141.95707 207.759407 
L 142.07321 207.759407 
L 142.130987 207.535734 
L 142.245962 207.535734 
L 142.303162 207.200225 
L 142.360172 207.200225 
L 142.360172 207.088388 
L 142.473629 207.088388 
L 142.530078 206.641042 
L 142.586342 206.641042 
L 142.586342 206.417369 
L 142.809574 206.417369 
L 142.809574 206.193697 
L 142.975116 206.193697 
L 143.084598 205.970024 
L 143.193387 205.970024 
L 143.247524 205.299005 
L 143.408921 205.299005 
L 143.515683 204.851659 
L 143.568817 204.851659 
L 143.674593 204.068804 
L 143.727238 204.068804 
L 143.832047 203.397785 
L 143.936221 203.397785 
L 144.039767 202.838603 
L 144.142694 202.838603 
L 144.245007 202.055748 
L 144.295937 202.055748 
L 144.397345 201.720239 
L 144.498158 201.720239 
L 144.598384 200.937384 
L 144.747635 200.937384 
L 144.84642 200.266365 
L 144.895601 200.266365 
L 144.993542 199.707183 
L 145.042304 199.707183 
L 145.042304 199.48351 
L 145.187766 199.48351 
L 145.284061 199.259837 
L 145.37982 199.259837 
L 145.475048 198.700655 
L 145.522465 198.700655 
L 145.616908 198.365145 
L 145.663936 198.365145 
L 145.663936 198.253309 
L 145.804252 198.253309 
L 145.85077 198.029636 
L 145.943432 198.029636 
L 146.035596 197.470454 
L 146.172923 197.470454 
L 146.172923 197.358617 
L 146.309161 197.358617 
L 146.39939 196.911271 
L 146.444328 196.911271 
L 146.444328 196.687599 
L 146.667271 196.687599 
L 146.755644 195.68107 
L 146.799661 195.68107 
L 146.887358 195.121888 
L 146.93104 195.121888 
L 147.018071 194.786379 
L 147.061422 194.786379 
L 147.147797 194.339033 
L 147.190823 194.339033 
L 147.276552 193.891687 
L 147.404349 193.891687 
L 147.404349 193.556178 
L 147.531203 193.556178 
L 147.615255 193.220669 
L 147.782136 193.220669 
L 147.864973 192.996996 
L 147.906242 192.996996 
L 147.988485 192.661486 
L 148.029459 192.661486 
L 148.111115 192.437813 
L 148.151798 192.437813 
L 148.151798 192.214141 
L 148.313575 192.214141 
L 148.313575 192.102304 
L 148.433916 192.102304 
L 148.513678 191.654958 
L 148.55342 191.654958 
L 148.55342 191.543122 
L 148.750766 191.543122 
L 148.829074 190.760267 
L 148.868095 190.760267 
L 148.945872 190.536594 
L 148.984628 190.536594 
L 149.023298 190.089248 
L 149.100377 190.089248 
L 149.177112 189.753739 
L 149.215352 189.753739 
L 149.253506 189.530066 
L 149.329562 189.530066 
L 149.329562 189.418229 
L 149.443019 189.418229 
L 149.443019 189.306393 
L 149.593139 189.306393 
L 149.630465 188.859047 
L 149.704875 188.859047 
L 149.815889 188.635374 
L 149.852735 188.635374 
L 149.962801 188.076192 
L 149.999334 188.076192 
L 150.108469 187.740683 
L 150.144693 187.740683 
L 150.252912 187.51701 
L 150.360453 187.51701 
L 150.431775 187.293337 
L 150.538207 187.293337 
L 150.538207 187.1815 
L 150.818844 187.1815 
L 150.888293 186.957828 
L 150.991943 186.957828 
L 151.060698 186.734155 
L 151.163317 186.734155 
L 151.231391 186.510482 
L 151.400405 186.510482 
L 151.501022 185.951299 
L 151.567774 185.951299 
L 151.567774 185.727627 
L 151.700505 185.727627 
L 151.733528 185.392117 
L 151.832219 185.392117 
L 151.930347 184.832935 
L 152.253451 184.832935 
L 152.317349 184.497426 
L 152.412754 184.497426 
L 152.412754 184.385589 
L 152.758108 184.385589 
L 152.851103 183.938243 
L 152.912822 183.938243 
L 152.912822 183.602734 
L 153.035598 183.602734 
L 153.127109 183.155388 
L 153.157504 183.155388 
L 153.187846 182.819879 
L 153.338757 182.819879 
L 153.338757 182.708042 
L 153.488354 182.708042 
L 153.54783 182.48437 
L 153.607102 182.48437 
L 153.636661 182.037024 
L 153.725034 182.037024 
L 153.783699 181.701514 
L 153.90043 181.701514 
L 153.987461 181.254169 
L 154.016374 181.254169 
L 154.016374 180.918659 
L 154.131541 180.918659 
L 154.160213 180.58315 
L 154.245942 180.58315 
L 154.331245 180.247641 
L 154.38788 180.247641 
L 154.38788 180.135804 
L 154.500593 180.135804 
L 154.528656 179.912131 
L 154.640452 179.912131 
L 154.640452 179.800295 
L 154.806795 179.800295 
L 154.861887 179.576622 
L 154.998849 179.576622 
L 155.05333 179.01744 
L 155.134728 179.01744 
L 155.242663 178.68193 
L 155.536037 178.68193 
L 155.615187 178.234585 
L 155.746298 178.234585 
L 155.798464 178.010912 
L 156.031271 178.010912 
L 156.133737 177.563566 
L 156.184742 177.563566 
L 156.260967 177.228057 
L 156.512635 177.228057 
L 156.612279 176.445201 
L 156.6371 176.445201 
L 156.6371 176.333365 
L 156.83439 176.333365 
L 156.88336 175.997856 
L 156.980885 175.997856 
L 157.005179 175.774183 
L 157.126141 175.774183 
L 157.174289 175.215 
L 157.294071 175.215 
L 157.294071 175.103164 
L 157.601653 175.103164 
L 157.648488 174.879491 
L 157.857683 174.879491 
L 157.949847 174.655818 
L 158.064362 174.655818 
L 158.109956 174.320309 
L 158.200781 174.320309 
L 158.291129 173.872963 
L 158.381004 173.872963 
L 158.448103 173.425617 
L 158.603658 173.425617 
L 158.713912 173.090108 
L 158.80161 173.090108 
L 158.910606 172.642762 
L 158.932322 172.642762 
L 158.997308 172.08358 
L 159.190803 172.08358 
L 159.276106 171.636234 
L 159.3186 171.636234 
L 159.424376 171.300725 
L 159.487531 171.300725 
L 159.529506 171.077052 
L 159.633996 171.077052 
L 159.717134 170.853379 
L 159.758552 170.853379 
L 159.799871 170.629706 
L 159.923235 170.629706 
L 160.025366 170.294197 
L 160.04572 170.294197 
L 160.04572 170.18236 
L 160.207687 170.18236 
L 160.308147 169.735014 
L 160.58635 169.735014 
L 160.58635 169.511342 
L 160.704216 169.511342 
L 160.704216 169.399505 
L 161.072212 169.399505 
L 161.148691 169.063996 
L 161.319534 169.063996 
L 161.376107 168.840323 
L 161.563349 168.840323 
L 161.563349 168.728486 
L 161.766986 168.728486 
L 161.766986 168.61665 
L 161.931822 168.61665 
L 162.040842 167.833795 
L 162.131166 167.833795 
L 162.221018 167.498286 
L 162.363811 167.498286 
L 162.363811 167.386449 
L 162.871714 167.386449 
L 162.974949 167.162776 
L 163.009223 167.162776 
L 163.009223 167.05094 
L 163.213447 167.05094 
L 163.314656 166.827267 
L 163.431985 166.827267 
L 163.431985 166.71543 
L 163.565102 166.71543 
L 163.565102 166.603594 
L 163.730061 166.603594 
L 163.828282 166.379921 
L 163.860898 166.379921 
L 163.925945 166.156248 
L 164.023057 166.156248 
L 164.071407 165.932575 
L 164.199681 165.932575 
L 164.199681 165.820739 
L 164.390315 165.820739 
L 164.390315 165.708902 
L 164.625672 165.708902 
L 164.71892 165.485229 
L 164.842468 165.485229 
L 164.842468 165.373393 
L 165.026142 165.373393 
L 165.132385 165.037884 
L 165.14751 165.037884 
L 165.253008 164.814211 
L 165.298024 164.814211 
L 165.37279 164.590538 
L 165.491743 164.590538 
L 165.491743 164.478701 
L 165.639285 164.478701 
L 165.712585 164.143192 
L 165.771 164.143192 
L 165.800133 163.695846 
L 166.160193 163.695846 
L 166.160193 163.58401 
L 166.302131 163.58401 
L 166.302131 163.472173 
L 166.428881 163.472173 
L 166.456921 163.2485 
L 166.540769 163.2485 
L 166.540769 163.136664 
L 166.858446 163.136664 
L 166.940362 162.689318 
L 167.14346 162.689318 
L 167.224031 162.465645 
L 167.290887 162.465645 
L 167.330876 162.241972 
L 167.86827 162.241972 
L 167.881169 161.906463 
L 168.035213 161.906463 
L 168.07351 161.570954 
L 168.187889 161.570954 
L 168.187889 161.459117 
L 168.301512 161.459117 
L 168.301512 161.347281 
L 168.748641 161.347281 
L 168.858629 160.899935 
L 169.016268 160.899935 
L 169.064483 160.676262 
L 169.386444 160.676262 
L 169.480693 160.228916 
L 169.504175 160.228916 
L 169.504175 160.11708 
L 169.748816 160.11708 
L 169.760379 159.893407 
L 170.317651 159.893407 
L 170.317651 159.781571 
L 170.997826 159.781571 
L 170.997826 159.669734 
L 171.317524 159.669734 
L 171.317524 159.446061 
L 171.48563 159.446061 
L 171.506528 159.222388 
L 171.703802 159.222388 
L 171.786192 158.998715 
L 171.878412 158.998715 
L 171.959971 158.775043 
L 172.03102 158.775043 
L 172.132011 158.55137 
L 172.202353 158.55137 
L 172.24242 158.327697 
L 172.54981 158.327697 
L 172.598879 158.104024 
L 173.524094 158.104024 
L 173.524094 157.992187 
L 173.763853 157.992187 
L 173.763853 157.880351 
L 173.936971 157.880351 
L 173.973196 157.656678 
L 174.081414 157.656678 
L 174.081414 157.544842 
L 174.251378 157.544842 
L 174.251378 157.433005 
L 176.001745 157.433005 
L 176.001745 157.321169 
L 176.648663 157.321169 
L 176.648663 157.209332 
L 177.023925 157.209332 
L 177.023925 157.097496 
L 177.757992 157.097496 
L 177.757992 156.985659 
L 178.251685 156.985659 
L 178.251685 156.873823 
L 178.399167 156.873823 
L 178.399167 156.761987 
L 178.697263 156.761987 
L 178.697263 156.65015 
L 179.968623 156.65015 
L 179.968623 156.538314 
L 180.803308 156.538314 
L 180.803308 156.426477 
L 181.086726 156.426477 
L 181.086726 156.314641 
L 190.73478 156.314641 
L 190.73478 156.202804 
L 333.168 156.202804 
L 333.168 156.202804 
" style="fill:none;stroke:#ff00ff;stroke-linecap:square;stroke-width:1.5;"/>
   </g>
   <g id="line2d_49">
    <defs>
     <path d="M -0 8.485281 
L 5.091169 0 
L 0 -8.485281 
L -5.091169 -0 
z
" id="m1cb9e601f6" style="stroke:#ff00ff;stroke-linejoin:miter;stroke-width:1.5;"/>
    </defs>
    <g>
     <use style="fill:none;stroke:#ff00ff;stroke-linejoin:miter;stroke-width:1.5;" x="116.478659" xlink:href="#m1cb9e601f6" y="256.072752"/>
     <use style="fill:none;stroke:#ff00ff;stroke-linejoin:miter;stroke-width:1.5;" x="144.747635" xlink:href="#m1cb9e601f6" y="200.937384"/>
     <use style="fill:none;stroke:#ff00ff;stroke-linejoin:miter;stroke-width:1.5;" x="190.73478" xlink:href="#m1cb9e601f6" y="156.314641"/>
     <use style="fill:none;stroke:#ff00ff;stroke-linejoin:miter;stroke-width:1.5;" x="190.73478" xlink:href="#m1cb9e601f6" y="156.202804"/>
     <use style="fill:none;stroke:#ff00ff;stroke-linejoin:miter;stroke-width:1.5;" x="190.73478" xlink:href="#m1cb9e601f6" y="156.202804"/>
     <use style="fill:none;stroke:#ff00ff;stroke-linejoin:miter;stroke-width:1.5;" x="333.168" xlink:href="#m1cb9e601f6" y="156.202804"/>
    </g>
   </g>
   <g id="line2d_50">
    <path style="fill:none;stroke:#ff00ff;stroke-linecap:square;stroke-width:1.5;"/>
    <g/>
   </g>
   <g id="line2d_51">
    <path clip-path="url(#p78300bd30d)" d="M 125.614517 234.600154 
" style="fill:none;stroke:#ff00ff;stroke-linecap:square;stroke-width:1.5;"/>
    <defs>
     <path d="M -12 12 
L 12 -12 
M -12 -12 
L 12 12 
" id="mbdf69fc393" style="stroke:#ff00ff;"/>
    </defs>
    <g clip-path="url(#p78300bd30d)">
     <use style="fill:#ff00ff;stroke:#ff00ff;" x="125.614517" xlink:href="#mbdf69fc393" y="234.600154"/>
    </g>
   </g>
   <g id="line2d_52">
    <path d="M 333.168 156.202804 
L 363.64328 289.176341 
" style="fill:none;stroke:#ff00ff;stroke-linecap:square;stroke-width:1.5;"/>
    <g>
     <use style="fill:none;stroke:#ff00ff;stroke-linejoin:miter;stroke-width:1.5;" x="333.168" xlink:href="#m1cb9e601f6" y="156.202804"/>
     <use style="fill:none;stroke:#ff00ff;stroke-linejoin:miter;stroke-width:1.5;" x="363.64328" xlink:href="#m1cb9e601f6" y="289.176341"/>
    </g>
   </g>
   <g id="line2d_53">
    <path d="M 333.168 64.496917 
L 363.64328 152.288529 
" style="fill:none;stroke:#000080;stroke-linecap:square;stroke-width:1.5;"/>
    <g>
     <use style="fill:none;stroke:#000080;stroke-width:1.5;" x="333.168" xlink:href="#m2843b83830" y="64.496917"/>
     <use style="fill:none;stroke:#000080;stroke-width:1.5;" x="363.64328" xlink:href="#m2843b83830" y="152.288529"/>
    </g>
   </g>
   <g id="line2d_54">
    <path d="M 333.168 294.88 
L 333.168 9.697057 
" style="fill:none;stroke:#000000;stroke-linecap:square;stroke-width:1.5;"/>
   </g>
   <g id="patch_3">
    <path d="M 56.12 294.88 
L 56.12 6.845228 
" style="fill:none;stroke:#000000;stroke-linecap:square;stroke-linejoin:miter;stroke-width:0.8;"/>
   </g>
   <g id="patch_4">
    <path d="M 333.168 294.88 
L 333.168 6.845228 
" style="fill:none;stroke:#000000;stroke-linecap:square;stroke-linejoin:miter;stroke-width:0.8;"/>
   </g>
   <g id="patch_5">
    <path d="M 56.12 294.88 
L 333.168 294.88 
" style="fill:none;stroke:#000000;stroke-linecap:square;stroke-linejoin:miter;stroke-width:0.8;"/>
   </g>
   <g id="patch_6">
    <path d="M 56.12 6.845228 
L 333.168 6.845228 
" style="fill:none;stroke:#000000;stroke-linecap:square;stroke-linejoin:miter;stroke-width:0.8;"/>
   </g>
   <g id="text_13">
    <!-- scipy-opt -->
    <defs>
     <path d="M 32.171875 -5.078125 
Q 28.375 -14.84375 24.75 -17.8125 
Q 21.140625 -20.796875 15.09375 -20.796875 
L 7.90625 -20.796875 
L 7.90625 -13.28125 
L 13.1875 -13.28125 
Q 16.890625 -13.28125 18.9375 -11.515625 
Q 21 -9.765625 23.484375 -3.21875 
L 25.09375 0.875 
L 2.984375 54.6875 
L 12.5 54.6875 
L 29.59375 11.921875 
L 46.6875 54.6875 
L 56.203125 54.6875 
z
" id="DejaVuSans-79"/>
    </defs>
    <g transform="translate(369.18424 293.867279)scale(0.17 -0.17)">
     <use xlink:href="#DejaVuSans-73"/>
     <use x="52.099609" xlink:href="#DejaVuSans-63"/>
     <use x="107.080078" xlink:href="#DejaVuSans-69"/>
     <use x="134.863281" xlink:href="#DejaVuSans-70"/>
     <use x="198.339844" xlink:href="#DejaVuSans-79"/>
     <use x="257.503906" xlink:href="#DejaVuSans-2d"/>
     <use x="293.603516" xlink:href="#DejaVuSans-6f"/>
     <use x="354.785156" xlink:href="#DejaVuSans-70"/>
     <use x="418.261719" xlink:href="#DejaVuSans-74"/>
    </g>
   </g>
   <g id="text_14">
    <!-- BFGS ros  -->
    <defs>
     <path d="M 19.671875 34.8125 
L 19.671875 8.109375 
L 35.5 8.109375 
Q 43.453125 8.109375 47.28125 11.40625 
Q 51.125 14.703125 51.125 21.484375 
Q 51.125 28.328125 47.28125 31.5625 
Q 43.453125 34.8125 35.5 34.8125 
z
M 19.671875 64.796875 
L 19.671875 42.828125 
L 34.28125 42.828125 
Q 41.5 42.828125 45.03125 45.53125 
Q 48.578125 48.25 48.578125 53.8125 
Q 48.578125 59.328125 45.03125 62.0625 
Q 41.5 64.796875 34.28125 64.796875 
z
M 9.8125 72.90625 
L 35.015625 72.90625 
Q 46.296875 72.90625 52.390625 68.21875 
Q 58.5 63.53125 58.5 54.890625 
Q 58.5 48.1875 55.375 44.234375 
Q 52.25 40.28125 46.1875 39.3125 
Q 53.46875 37.75 57.5 32.78125 
Q 61.53125 27.828125 61.53125 20.40625 
Q 61.53125 10.640625 54.890625 5.3125 
Q 48.25 0 35.984375 0 
L 9.8125 0 
z
" id="DejaVuSans-42"/>
     <path d="M 59.515625 10.40625 
L 59.515625 29.984375 
L 43.40625 29.984375 
L 43.40625 38.09375 
L 69.28125 38.09375 
L 69.28125 6.78125 
Q 63.578125 2.734375 56.6875 0.65625 
Q 49.8125 -1.421875 42 -1.421875 
Q 24.90625 -1.421875 15.25 8.5625 
Q 5.609375 18.5625 5.609375 36.375 
Q 5.609375 54.25 15.25 64.234375 
Q 24.90625 74.21875 42 74.21875 
Q 49.125 74.21875 55.546875 72.453125 
Q 61.96875 70.703125 67.390625 67.28125 
L 67.390625 56.78125 
Q 61.921875 61.421875 55.765625 63.765625 
Q 49.609375 66.109375 42.828125 66.109375 
Q 29.4375 66.109375 22.71875 58.640625 
Q 16.015625 51.171875 16.015625 36.375 
Q 16.015625 21.625 22.71875 14.15625 
Q 29.4375 6.6875 42.828125 6.6875 
Q 48.046875 6.6875 52.140625 7.59375 
Q 56.25 8.5 59.515625 10.40625 
z
" id="DejaVuSans-47"/>
     <path d="M 53.515625 70.515625 
L 53.515625 60.890625 
Q 47.90625 63.578125 42.921875 64.890625 
Q 37.9375 66.21875 33.296875 66.21875 
Q 25.25 66.21875 20.875 63.09375 
Q 16.5 59.96875 16.5 54.203125 
Q 16.5 49.359375 19.40625 46.890625 
Q 22.3125 44.4375 30.421875 42.921875 
L 36.375 41.703125 
Q 47.40625 39.59375 52.65625 34.296875 
Q 57.90625 29 57.90625 20.125 
Q 57.90625 9.515625 50.796875 4.046875 
Q 43.703125 -1.421875 29.984375 -1.421875 
Q 24.8125 -1.421875 18.96875 -0.25 
Q 13.140625 0.921875 6.890625 3.21875 
L 6.890625 13.375 
Q 12.890625 10.015625 18.65625 8.296875 
Q 24.421875 6.59375 29.984375 6.59375 
Q 38.421875 6.59375 43.015625 9.90625 
Q 47.609375 13.234375 47.609375 19.390625 
Q 47.609375 24.75 44.3125 27.78125 
Q 41.015625 30.8125 33.5 32.328125 
L 27.484375 33.5 
Q 16.453125 35.6875 11.515625 40.375 
Q 6.59375 45.0625 6.59375 53.421875 
Q 6.59375 63.09375 13.40625 68.65625 
Q 20.21875 74.21875 32.171875 74.21875 
Q 37.3125 74.21875 42.625 73.28125 
Q 47.953125 72.359375 53.515625 70.515625 
z
" id="DejaVuSans-53"/>
    </defs>
    <g transform="translate(369.18424 156.979466)scale(0.17 -0.17)">
     <use xlink:href="#DejaVuSans-42"/>
     <use x="68.603516" xlink:href="#DejaVuSans-46"/>
     <use x="126.123047" xlink:href="#DejaVuSans-47"/>
     <use x="203.613281" xlink:href="#DejaVuSans-53"/>
     <use x="267.089844" xlink:href="#DejaVuSans-20"/>
     <use x="298.876953" xlink:href="#DejaVuSans-72"/>
     <use x="339.958984" xlink:href="#DejaVuSans-6f"/>
     <use x="401.140625" xlink:href="#DejaVuSans-73"/>
     <use x="453.240234" xlink:href="#DejaVuSans-20"/>
    </g>
   </g>
   <g id="text_15">
    <!-- best 2009 -->
    <defs>
     <path d="M 48.6875 27.296875 
Q 48.6875 37.203125 44.609375 42.84375 
Q 40.53125 48.484375 33.40625 48.484375 
Q 26.265625 48.484375 22.1875 42.84375 
Q 18.109375 37.203125 18.109375 27.296875 
Q 18.109375 17.390625 22.1875 11.75 
Q 26.265625 6.109375 33.40625 6.109375 
Q 40.53125 6.109375 44.609375 11.75 
Q 48.6875 17.390625 48.6875 27.296875 
z
M 18.109375 46.390625 
Q 20.953125 51.265625 25.265625 53.625 
Q 29.59375 56 35.59375 56 
Q 45.5625 56 51.78125 48.09375 
Q 58.015625 40.1875 58.015625 27.296875 
Q 58.015625 14.40625 51.78125 6.484375 
Q 45.5625 -1.421875 35.59375 -1.421875 
Q 29.59375 -1.421875 25.265625 0.953125 
Q 20.953125 3.328125 18.109375 8.203125 
L 18.109375 0 
L 9.078125 0 
L 9.078125 75.984375 
L 18.109375 75.984375 
z
" id="DejaVuSans-62"/>
     <path d="M 10.984375 1.515625 
L 10.984375 10.5 
Q 14.703125 8.734375 18.5 7.8125 
Q 22.3125 6.890625 25.984375 6.890625 
Q 35.75 6.890625 40.890625 13.453125 
Q 46.046875 20.015625 46.78125 33.40625 
Q 43.953125 29.203125 39.59375 26.953125 
Q 35.25 24.703125 29.984375 24.703125 
Q 19.046875 24.703125 12.671875 31.3125 
Q 6.296875 37.9375 6.296875 49.421875 
Q 6.296875 60.640625 12.9375 67.421875 
Q 19.578125 74.21875 30.609375 74.21875 
Q 43.265625 74.21875 49.921875 64.515625 
Q 56.59375 54.828125 56.59375 36.375 
Q 56.59375 19.140625 48.40625 8.859375 
Q 40.234375 -1.421875 26.421875 -1.421875 
Q 22.703125 -1.421875 18.890625 -0.6875 
Q 15.09375 0.046875 10.984375 1.515625 
z
M 30.609375 32.421875 
Q 37.25 32.421875 41.125 36.953125 
Q 45.015625 41.5 45.015625 49.421875 
Q 45.015625 57.28125 41.125 61.84375 
Q 37.25 66.40625 30.609375 66.40625 
Q 23.96875 66.40625 20.09375 61.84375 
Q 16.21875 57.28125 16.21875 49.421875 
Q 16.21875 41.5 20.09375 36.953125 
Q 23.96875 32.421875 30.609375 32.421875 
z
" id="DejaVuSans-39"/>
    </defs>
    <g transform="translate(369.18424 20.091654)scale(0.17 -0.17)">
     <use xlink:href="#DejaVuSans-62"/>
     <use x="63.476562" xlink:href="#DejaVuSans-65"/>
     <use x="125" xlink:href="#DejaVuSans-73"/>
     <use x="177.099609" xlink:href="#DejaVuSans-74"/>
     <use x="216.308594" xlink:href="#DejaVuSans-20"/>
     <use x="248.095703" xlink:href="#DejaVuSans-32"/>
     <use x="311.71875" xlink:href="#DejaVuSans-30"/>
     <use x="375.341797" xlink:href="#DejaVuSans-30"/>
     <use x="438.964844" xlink:href="#DejaVuSans-39"/>
    </g>
   </g>
   <g id="text_16">
    <!-- bbob f20-f24, 2-D -->
    <defs>
     <path d="M 19.671875 64.796875 
L 19.671875 8.109375 
L 31.59375 8.109375 
Q 46.6875 8.109375 53.6875 14.9375 
Q 60.6875 21.78125 60.6875 36.53125 
Q 60.6875 51.171875 53.6875 57.984375 
Q 46.6875 64.796875 31.59375 64.796875 
z
M 9.8125 72.90625 
L 30.078125 72.90625 
Q 51.265625 72.90625 61.171875 64.09375 
Q 71.09375 55.28125 71.09375 36.53125 
Q 71.09375 17.671875 61.125 8.828125 
Q 51.171875 0 30.078125 0 
L 9.8125 0 
z
" id="DejaVuSans-44"/>
    </defs>
    <g transform="translate(58.89048 17.475982)scale(0.102 -0.102)">
     <use xlink:href="#DejaVuSans-62"/>
     <use x="63.476562" xlink:href="#DejaVuSans-62"/>
     <use x="126.953125" xlink:href="#DejaVuSans-6f"/>
     <use x="188.134766" xlink:href="#DejaVuSans-62"/>
     <use x="251.611328" xlink:href="#DejaVuSans-20"/>
     <use x="283.398438" xlink:href="#DejaVuSans-66"/>
     <use x="318.603516" xlink:href="#DejaVuSans-32"/>
     <use x="382.226562" xlink:href="#DejaVuSans-30"/>
     <use x="445.849609" xlink:href="#DejaVuSans-2d"/>
     <use x="481.933594" xlink:href="#DejaVuSans-66"/>
     <use x="517.138672" xlink:href="#DejaVuSans-32"/>
     <use x="580.761719" xlink:href="#DejaVuSans-34"/>
     <use x="644.384766" xlink:href="#DejaVuSans-2c"/>
     <use x="676.171875" xlink:href="#DejaVuSans-20"/>
     <use x="707.958984" xlink:href="#DejaVuSans-32"/>
     <use x="771.582031" xlink:href="#DejaVuSans-2d"/>
     <use x="807.666016" xlink:href="#DejaVuSans-44"/>
    </g>
    <!-- 51 targets: 100..1e-08 -->
    <defs>
     <path d="M 10.796875 72.90625 
L 49.515625 72.90625 
L 49.515625 64.59375 
L 19.828125 64.59375 
L 19.828125 46.734375 
Q 21.96875 47.46875 24.109375 47.828125 
Q 26.265625 48.1875 28.421875 48.1875 
Q 40.625 48.1875 47.75 41.5 
Q 54.890625 34.8125 54.890625 23.390625 
Q 54.890625 11.625 47.5625 5.09375 
Q 40.234375 -1.421875 26.90625 -1.421875 
Q 22.3125 -1.421875 17.546875 -0.640625 
Q 12.796875 0.140625 7.71875 1.703125 
L 7.71875 11.625 
Q 12.109375 9.234375 16.796875 8.0625 
Q 21.484375 6.890625 26.703125 6.890625 
Q 35.15625 6.890625 40.078125 11.328125 
Q 45.015625 15.765625 45.015625 23.390625 
Q 45.015625 31 40.078125 35.4375 
Q 35.15625 39.890625 26.703125 39.890625 
Q 22.75 39.890625 18.8125 39.015625 
Q 14.890625 38.140625 10.796875 36.28125 
z
" id="DejaVuSans-35"/>
     <path d="M 11.71875 12.40625 
L 22.015625 12.40625 
L 22.015625 0 
L 11.71875 0 
z
M 11.71875 51.703125 
L 22.015625 51.703125 
L 22.015625 39.3125 
L 11.71875 39.3125 
z
" id="DejaVuSans-3a"/>
    </defs>
    <g transform="translate(58.89048 28.89775)scale(0.102 -0.102)">
     <use xlink:href="#DejaVuSans-35"/>
     <use x="63.623047" xlink:href="#DejaVuSans-31"/>
     <use x="127.246094" xlink:href="#DejaVuSans-20"/>
     <use x="159.033203" xlink:href="#DejaVuSans-74"/>
     <use x="198.242188" xlink:href="#DejaVuSans-61"/>
     <use x="259.521484" xlink:href="#DejaVuSans-72"/>
     <use x="300.619141" xlink:href="#DejaVuSans-67"/>
     <use x="364.095703" xlink:href="#DejaVuSans-65"/>
     <use x="425.619141" xlink:href="#DejaVuSans-74"/>
     <use x="464.828125" xlink:href="#DejaVuSans-73"/>
     <use x="516.927734" xlink:href="#DejaVuSans-3a"/>
     <use x="550.619141" xlink:href="#DejaVuSans-20"/>
     <use x="582.40625" xlink:href="#DejaVuSans-31"/>
     <use x="646.029297" xlink:href="#DejaVuSans-30"/>
     <use x="709.652344" xlink:href="#DejaVuSans-30"/>
     <use x="773.275391" xlink:href="#DejaVuSans-2e"/>
     <use x="805.0625" xlink:href="#DejaVuSans-2e"/>
     <use x="836.849609" xlink:href="#DejaVuSans-31"/>
     <use x="900.472656" xlink:href="#DejaVuSans-65"/>
     <use x="961.996094" xlink:href="#DejaVuSans-2d"/>
     <use x="998.080078" xlink:href="#DejaVuSans-30"/>
     <use x="1061.703125" xlink:href="#DejaVuSans-38"/>
    </g>
    <!-- 15 instances -->
    <g transform="translate(58.89048 40.319519)scale(0.102 -0.102)">
     <use xlink:href="#DejaVuSans-31"/>
     <use x="63.623047" xlink:href="#DejaVuSans-35"/>
     <use x="127.246094" xlink:href="#DejaVuSans-20"/>
     <use x="159.033203" xlink:href="#DejaVuSans-69"/>
     <use x="186.816406" xlink:href="#DejaVuSans-6e"/>
     <use x="250.195312" xlink:href="#DejaVuSans-73"/>
     <use x="302.294922" xlink:href="#DejaVuSans-74"/>
     <use x="341.503906" xlink:href="#DejaVuSans-61"/>
     <use x="402.783203" xlink:href="#DejaVuSans-6e"/>
     <use x="466.162109" xlink:href="#DejaVuSans-63"/>
     <use x="521.142578" xlink:href="#DejaVuSans-65"/>
     <use x="582.666016" xlink:href="#DejaVuSans-73"/>
    </g>
   </g>
   <g id="text_17">
    <!-- v0.0.0 -->
    <g style="fill:#808080;" transform="translate(178.96275 289.919965)scale(0.1 -0.1)">
     <use xlink:href="#DejaVuSans-76"/>
     <use x="59.179688" xlink:href="#DejaVuSans-30"/>
     <use x="122.802734" xlink:href="#DejaVuSans-2e"/>
     <use x="154.589844" xlink:href="#DejaVuSans-30"/>
     <use x="218.212891" xlink:href="#DejaVuSans-2e"/>
     <use x="250" xlink:href="#DejaVuSans-30"/>
    </g>
   </g>
  </g>
 </g>
 <defs>
  <clipPath id="p78300bd30d">
   <rect height="288.034772" width="277.048" x="56.12" y="6.845228"/>
  </clipPath>
 </defs>
</svg>
