<?xml version="1.0" encoding="utf-8" standalone="no"?>
<!DOCTYPE svg PUBLIC "-//W3C//DTD SVG 1.1//EN"
  "http://www.w3.org/Graphics/SVG/1.1/DTD/svg11.dtd">
<!-- Created with matplotlib (http://matplotlib.org/) -->
<svg height="345pt" version="1.1" viewBox="0 0 460 345" width="460pt" xmlns="http://www.w3.org/2000/svg" xmlns:xlink="http://www.w3.org/1999/xlink">
 <defs>
  <style type="text/css">
*{stroke-linecap:butt;stroke-linejoin:round;}
  </style>
 </defs>
 <g id="figure_1">
  <g id="patch_1">
   <path d="M 0 345.6 
L 460.8 345.6 
L 460.8 0 
L 0 0 
z
" style="fill:#ffffff;"/>
  </g>
  <g id="axes_1">
   <g id="patch_2">
    <path d="M 56.12 294.88 
L 333.168 294.88 
L 333.168 6.845228 
L 56.12 6.845228 
z
" style="fill:#ffffff;"/>
   </g>
   <g id="line2d_1">
    <path d="M 4.627463 294.88 
L 4.627463 293.761636 
L 53.326522 293.761636 
L 53.326522 292.643271 
L 77.280949 292.643271 
L 77.280949 291.524907 
L 81.586754 291.524907 
L 81.586754 290.406542 
L 86.70168 290.406542 
L 86.70168 289.288178 
L 90.981092 289.288178 
L 90.981092 288.169813 
L 94.404627 288.169813 
L 94.404627 287.051449 
L 95.263107 287.051449 
L 95.263107 285.933084 
L 96.901359 285.933084 
L 96.901359 284.81472 
L 97.258229 284.81472 
L 97.258229 283.696355 
L 99.395756 283.696355 
L 99.395756 282.577991 
L 99.67078 282.577991 
L 99.67078 281.459626 
L 101.936134 281.459626 
L 101.936134 280.341262 
L 103.120034 280.341262 
L 103.120034 279.222897 
L 104.12265 279.222897 
L 104.12265 278.104533 
L 104.995096 278.104533 
L 104.995096 276.986168 
L 105.705775 276.986168 
L 105.705775 275.867804 
L 106.388234 275.867804 
L 106.388234 274.749439 
L 107.111121 274.749439 
L 107.111121 273.631075 
L 108.015995 273.631075 
L 108.015995 272.51271 
L 108.245319 272.51271 
L 108.245319 271.394346 
L 109.231245 271.394346 
L 109.231245 270.275981 
L 109.560502 270.275981 
L 109.560502 269.157617 
L 109.694266 269.157617 
L 109.694266 268.039252 
L 110.36622 268.039252 
L 110.36622 266.920888 
L 110.602556 266.920888 
L 110.602556 265.802523 
L 111.805292 265.802523 
L 111.805292 264.684159 
L 113.164274 264.684159 
L 113.164274 263.565795 
L 114.710361 263.565795 
L 114.710361 262.44743 
L 114.866043 262.44743 
L 114.908258 260.210701 
L 115.556442 260.210701 
L 115.556442 259.092337 
L 117.439028 259.092337 
L 117.439028 257.973972 
L 118.992157 257.973972 
L 118.992157 256.855608 
L 120.32445 256.855608 
L 120.32445 255.737243 
L 122.633768 255.737243 
L 122.633768 254.618879 
L 123.609766 254.618879 
L 123.609766 253.500514 
L 125.031795 253.500514 
L 125.055176 251.263785 
L 126.265455 251.263785 
L 126.265455 250.145421 
L 126.927596 250.145421 
L 126.927596 249.027056 
L 127.052858 249.027056 
L 127.052858 247.908692 
L 127.785844 247.908692 
L 127.785844 246.790327 
L 128.792295 246.790327 
L 128.792295 245.671963 
L 128.929605 245.671963 
L 128.929605 244.553598 
L 130.343166 244.553598 
L 130.440228 242.316869 
L 131.462512 242.316869 
L 131.462512 241.198505 
L 132.46792 241.198505 
L 132.46792 240.08014 
L 132.598978 240.08014 
L 132.614036 237.843411 
L 133.575035 237.843411 
L 133.575035 236.725047 
L 134.592793 236.725047 
L 134.592793 235.606682 
L 135.566322 235.606682 
L 135.625375 233.369954 
L 135.987869 233.369954 
L 135.987869 232.251589 
L 136.587486 232.251589 
L 136.587486 231.133225 
L 136.879628 231.133225 
L 136.879628 230.01486 
L 137.517456 230.01486 
L 137.517456 228.896496 
L 138.499721 228.896496 
L 138.606263 226.659767 
L 139.438997 226.659767 
L 139.438997 225.541402 
L 139.686802 225.541402 
L 139.686802 224.423038 
L 140.361591 224.423038 
L 140.361591 223.304673 
L 140.769096 223.304673 
L 140.769096 222.186309 
L 142.397128 222.186309 
L 142.397128 221.067944 
L 142.870458 221.067944 
L 142.975116 218.831215 
L 143.544927 218.831215 
L 143.544927 217.712851 
L 144.470493 217.712851 
L 144.470493 216.594486 
L 144.68809 216.594486 
L 144.68809 215.476122 
L 145.479795 215.476122 
L 145.479795 214.357757 
L 145.971133 214.357757 
L 145.971133 213.239393 
L 146.284265 213.239393 
L 146.284265 212.121028 
L 147.052761 212.121028 
L 147.052761 211.002664 
L 147.263719 211.002664 
L 147.263719 209.884299 
L 147.438268 209.884299 
L 147.438268 208.765935 
L 147.856707 208.765935 
L 147.856707 207.64757 
L 148.051953 207.64757 
L 148.051953 206.529206 
L 148.499746 206.529206 
L 148.499746 205.410841 
L 148.668156 205.410841 
L 148.699674 203.174112 
L 149.207711 203.174112 
L 149.207711 202.055748 
L 149.544494 202.055748 
L 149.595007 199.819019 
L 150.417534 199.819019 
L 150.417534 198.700655 
L 150.607035 198.700655 
L 150.607035 197.58229 
L 151.250064 197.58229 
L 151.250064 196.463926 
L 151.62597 196.463926 
L 151.65748 194.227197 
L 151.971069 194.227197 
L 151.971069 193.108832 
L 152.271047 193.108832 
L 152.271047 191.990468 
L 152.54701 191.990468 
L 152.54701 190.872103 
L 152.787611 190.872103 
L 152.787611 189.753739 
L 152.90666 189.753739 
L 152.90666 188.635374 
L 153.697098 188.635374 
L 153.697098 187.51701 
L 153.959949 187.51701 
L 153.959949 186.398645 
L 154.101384 186.398645 
L 154.101384 185.280281 
L 154.366664 185.280281 
L 154.366664 184.161916 
L 154.791614 184.161916 
L 154.791614 183.043552 
L 155.215743 183.043552 
L 155.215743 181.925187 
L 155.728003 181.925187 
L 155.728003 180.806823 
L 159.207897 180.806823 
L 159.207897 179.688458 
L 161.442812 179.688458 
L 161.442812 178.570094 
L 162.387791 178.570094 
L 162.387791 177.451729 
L 162.768723 177.451729 
L 162.768723 176.333365 
L 163.138847 176.333365 
L 163.138847 175.215 
L 163.491183 175.215 
L 163.491183 174.096636 
L 163.623844 174.096636 
L 163.623844 172.978271 
L 163.817669 172.978271 
L 163.817669 171.859907 
L 164.126041 171.859907 
L 164.126041 170.741543 
L 164.273803 170.741543 
L 164.273803 169.623178 
L 164.398212 169.623178 
L 164.398212 168.504814 
L 164.670805 168.504814 
L 164.670805 167.386449 
L 164.866303 167.386449 
L 164.913109 165.14972 
L 165.16111 165.14972 
L 165.16111 164.031356 
L 165.357863 164.031356 
L 165.357863 162.912991 
L 165.553127 162.912991 
L 165.553127 161.794627 
L 165.68843 161.794627 
L 165.760791 159.557898 
L 165.963815 159.557898 
L 165.963815 158.439533 
L 166.133092 158.439533 
L 166.154491 156.202804 
L 166.317673 156.202804 
L 166.35858 153.966075 
L 166.474423 153.966075 
L 166.474423 152.847711 
L 166.622821 152.847711 
L 166.622821 151.729346 
L 166.779576 151.729346 
L 166.779576 150.610982 
L 166.907643 150.610982 
L 166.991362 148.374253 
L 167.031376 148.374253 
L 167.140767 146.137524 
L 167.152879 146.137524 
L 167.152879 145.019159 
L 167.285548 145.019159 
L 167.285548 143.900795 
L 167.456898 143.900795 
L 167.541937 141.664066 
L 167.605605 141.664066 
L 167.605605 140.545702 
L 168.080521 140.545702 
L 168.107903 138.308973 
L 168.346752 138.308973 
L 168.346752 137.190608 
L 168.660757 137.190608 
L 168.660757 136.072244 
L 168.974574 136.072244 
L 169.083731 133.835515 
L 169.205934 133.835515 
L 169.205934 132.71715 
L 169.4189 132.71715 
L 169.4189 131.598786 
L 169.76558 131.598786 
L 169.773089 129.362057 
L 170.340017 129.362057 
L 170.366819 127.125328 
L 170.831918 127.125328 
L 170.931007 124.888599 
L 171.229668 124.888599 
L 171.229668 123.770234 
L 171.388644 123.770234 
L 171.471509 121.533505 
L 171.809293 121.533505 
L 171.809293 120.415141 
L 172.065929 120.415141 
L 172.065929 119.296776 
L 172.23091 119.296776 
L 172.23091 118.178412 
L 172.647319 118.178412 
L 172.647319 117.060047 
L 172.888456 117.060047 
L 172.888456 115.941683 
L 173.057695 115.941683 
L 173.057695 114.823318 
L 173.348622 114.823318 
L 173.348622 113.704954 
L 173.533841 113.704954 
L 173.595449 111.468225 
L 173.944675 111.468225 
L 173.944675 110.349861 
L 174.397187 110.349861 
L 174.397187 109.231496 
L 174.767835 109.231496 
L 174.796316 106.994767 
L 175.171629 106.994767 
L 175.237735 104.758038 
L 175.63487 104.758038 
L 175.63487 103.639674 
L 175.969959 103.639674 
L 175.969959 102.521309 
L 176.240463 102.521309 
L 176.240463 101.402945 
L 176.362921 101.402945 
L 176.362921 100.28458 
L 176.685401 100.28458 
L 176.685401 99.166216 
L 177.042853 99.166216 
L 177.042853 98.047851 
L 177.387091 98.047851 
L 177.387091 96.929487 
L 177.60671 96.929487 
L 177.60671 95.811122 
L 177.763072 95.811122 
L 177.763072 94.692758 
L 178.064108 94.692758 
L 178.064108 93.574393 
L 178.400566 93.574393 
L 178.400566 92.456029 
L 178.58245 92.456029 
L 178.655633 89.100935 
L 178.723703 89.100935 
L 178.788086 86.864206 
L 178.974731 86.864206 
L 178.974731 85.745842 
L 179.224811 85.745842 
L 179.224811 84.627477 
L 179.344695 84.627477 
L 179.344695 83.509113 
L 179.547677 83.509113 
L 179.547677 82.390748 
L 179.868122 82.390748 
L 179.868122 81.272384 
L 180.125874 81.272384 
L 180.125874 80.15402 
L 180.414992 80.15402 
L 180.414992 79.035655 
L 180.640503 79.035655 
L 180.666263 76.798926 
L 180.925992 76.798926 
L 180.925992 75.680562 
L 181.155665 75.680562 
L 181.191369 73.443833 
L 181.485466 73.443833 
L 181.485466 72.325468 
L 181.652943 72.325468 
L 181.720805 70.088739 
L 182.012007 70.088739 
L 182.095961 67.85201 
L 182.249797 67.85201 
L 182.249797 66.733646 
L 182.424692 66.733646 
L 182.490683 64.496917 
L 182.576725 64.496917 
L 182.576725 63.378552 
L 182.747798 63.378552 
L 182.747798 62.260188 
L 183.025183 62.260188 
L 183.027053 60.023459 
L 183.233887 60.023459 
L 183.233887 58.905094 
L 183.447908 58.905094 
L 183.496322 55.550001 
L 183.712768 55.550001 
L 183.712768 54.431636 
L 183.972344 54.431636 
L 183.972344 53.313272 
L 184.174421 53.313272 
L 184.174421 52.194907 
L 184.391923 52.194907 
L 184.410171 49.958178 
L 184.58891 49.958178 
L 184.695414 43.247992 
L 184.718669 43.247992 
L 184.785836 38.774534 
L 184.94282 38.774534 
L 184.94282 37.656169 
L 185.396041 37.656169 
L 185.396041 36.537805 
L 185.894683 36.537805 
L 185.894683 35.41944 
L 186.400572 35.41944 
L 186.400572 34.301076 
L 187.019307 34.301076 
L 187.019307 33.182711 
L 187.587679 33.182711 
L 187.587679 32.064347 
L 188.329052 32.064347 
L 188.329052 30.945982 
L 188.903863 30.945982 
L 188.903863 29.827618 
L 189.532673 29.827618 
L 189.532673 28.709253 
L 189.933735 28.709253 
L 189.933735 27.590889 
L 190.339098 27.590889 
L 190.339098 26.472524 
L 190.726761 26.472524 
L 190.726761 25.35416 
L 191.078471 25.35416 
L 191.078471 24.235795 
L 191.42231 24.235795 
L 191.42231 23.117431 
L 191.728359 23.117431 
L 191.728359 21.999066 
L 192.053875 21.999066 
L 192.053875 20.880702 
L 192.329087 20.880702 
L 192.329087 19.762337 
L 192.631309 19.762337 
L 192.631309 18.643973 
L 192.946016 18.643973 
L 192.946016 17.525609 
L 193.276414 17.525609 
L 193.276414 16.407244 
L 193.65306 16.407244 
L 193.65306 15.28888 
L 193.962207 15.28888 
L 193.962207 14.170515 
L 194.299338 14.170515 
L 194.299338 13.052151 
L 194.689312 13.052151 
L 194.689312 11.933786 
L 194.988253 11.933786 
L 194.988253 10.815422 
L 195.303804 10.815422 
L 195.303804 9.697057 
L 333.168 9.697057 
L 333.168 9.697057 
" style="fill:none;stroke:#f5deb3;stroke-linecap:square;stroke-width:4;"/>
   </g>
   <g id="line2d_2">
    <defs>
     <path d="M -0 7.778175 
L 7.778175 0 
L 0 -7.778175 
L -7.778175 -0 
z
" id="mf5b3c5f85a" style="stroke:#f5deb3;stroke-linejoin:miter;stroke-width:1.5;"/>
    </defs>
    <g>
     <use style="fill:#f5deb3;stroke:#f5deb3;stroke-linejoin:miter;stroke-width:1.5;" x="140.361591" xlink:href="#mf5b3c5f85a" y="224.423038"/>
     <use style="fill:#f5deb3;stroke:#f5deb3;stroke-linejoin:miter;stroke-width:1.5;" x="173.944675" xlink:href="#mf5b3c5f85a" y="111.468225"/>
     <use style="fill:#f5deb3;stroke:#f5deb3;stroke-linejoin:miter;stroke-width:1.5;" x="195.303804" xlink:href="#mf5b3c5f85a" y="10.815422"/>
     <use style="fill:#f5deb3;stroke:#f5deb3;stroke-linejoin:miter;stroke-width:1.5;" x="195.303804" xlink:href="#mf5b3c5f85a" y="9.697057"/>
     <use style="fill:#f5deb3;stroke:#f5deb3;stroke-linejoin:miter;stroke-width:1.5;" x="333.168" xlink:href="#mf5b3c5f85a" y="9.697057"/>
    </g>
   </g>
   <g id="line2d_3">
    <path style="fill:none;stroke:#f5deb3;stroke-linecap:square;stroke-width:4;"/>
    <g/>
   </g>
   <g id="line2d_4">
    <path d="M 333.168 9.697057 
L 363.64328 15.400716 
" style="fill:none;stroke:#f5deb3;stroke-linecap:square;stroke-width:4;"/>
    <g>
     <use style="fill:#f5deb3;stroke:#f5deb3;stroke-linejoin:miter;stroke-width:1.5;" x="333.168" xlink:href="#mf5b3c5f85a" y="9.697057"/>
     <use style="fill:#f5deb3;stroke:#f5deb3;stroke-linejoin:miter;stroke-width:1.5;" x="363.64328" xlink:href="#mf5b3c5f85a" y="15.400716"/>
    </g>
   </g>
   <g id="matplotlib.axis_1">
    <g id="xtick_1">
     <g id="line2d_5">
      <path clip-path="url(#p3c778fe556)" d="M 56.12 294.88 
L 56.12 6.845228 
" style="fill:none;stroke:#b0b0b0;stroke-linecap:square;stroke-width:0.8;"/>
     </g>
     <g id="line2d_6">
      <defs>
       <path d="M 0 0 
L 0 3.5 
" id="m9cd089cd49" style="stroke:#000000;stroke-width:0.8;"/>
      </defs>
      <g>
       <use style="stroke:#000000;stroke-width:0.8;" x="56.12" xlink:href="#m9cd089cd49" y="294.88"/>
      </g>
     </g>
     <g id="text_1">
      <!-- 0 -->
      <defs>
       <path d="M 31.78125 66.40625 
Q 24.171875 66.40625 20.328125 58.90625 
Q 16.5 51.421875 16.5 36.375 
Q 16.5 21.390625 20.328125 13.890625 
Q 24.171875 6.390625 31.78125 6.390625 
Q 39.453125 6.390625 43.28125 13.890625 
Q 47.125 21.390625 47.125 36.375 
Q 47.125 51.421875 43.28125 58.90625 
Q 39.453125 66.40625 31.78125 66.40625 
z
M 31.78125 74.21875 
Q 44.046875 74.21875 50.515625 64.515625 
Q 56.984375 54.828125 56.984375 36.375 
Q 56.984375 17.96875 50.515625 8.265625 
Q 44.046875 -1.421875 31.78125 -1.421875 
Q 19.53125 -1.421875 13.0625 8.265625 
Q 6.59375 17.96875 6.59375 36.375 
Q 6.59375 54.828125 13.0625 64.515625 
Q 19.53125 74.21875 31.78125 74.21875 
z
" id="DejaVuSans-30"/>
      </defs>
      <g transform="translate(49.7575 317.076875)scale(0.2 -0.2)">
       <use xlink:href="#DejaVuSans-30"/>
      </g>
     </g>
    </g>
    <g id="xtick_2">
     <g id="line2d_7">
      <path clip-path="url(#p3c778fe556)" d="M 135.276571 294.88 
L 135.276571 6.845228 
" style="fill:none;stroke:#b0b0b0;stroke-linecap:square;stroke-width:0.8;"/>
     </g>
     <g id="line2d_8">
      <g>
       <use style="stroke:#000000;stroke-width:0.8;" x="135.276571" xlink:href="#m9cd089cd49" y="294.88"/>
      </g>
     </g>
     <g id="text_2">
      <!-- 2 -->
      <defs>
       <path d="M 19.1875 8.296875 
L 53.609375 8.296875 
L 53.609375 0 
L 7.328125 0 
L 7.328125 8.296875 
Q 12.9375 14.109375 22.625 23.890625 
Q 32.328125 33.6875 34.8125 36.53125 
Q 39.546875 41.84375 41.421875 45.53125 
Q 43.3125 49.21875 43.3125 52.78125 
Q 43.3125 58.59375 39.234375 62.25 
Q 35.15625 65.921875 28.609375 65.921875 
Q 23.96875 65.921875 18.8125 64.3125 
Q 13.671875 62.703125 7.8125 59.421875 
L 7.8125 69.390625 
Q 13.765625 71.78125 18.9375 73 
Q 24.125 74.21875 28.421875 74.21875 
Q 39.75 74.21875 46.484375 68.546875 
Q 53.21875 62.890625 53.21875 53.421875 
Q 53.21875 48.921875 51.53125 44.890625 
Q 49.859375 40.875 45.40625 35.40625 
Q 44.1875 33.984375 37.640625 27.21875 
Q 31.109375 20.453125 19.1875 8.296875 
z
" id="DejaVuSans-32"/>
      </defs>
      <g transform="translate(128.914071 317.076875)scale(0.2 -0.2)">
       <use xlink:href="#DejaVuSans-32"/>
      </g>
     </g>
    </g>
    <g id="xtick_3">
     <g id="line2d_9">
      <path clip-path="url(#p3c778fe556)" d="M 214.433143 294.88 
L 214.433143 6.845228 
" style="fill:none;stroke:#b0b0b0;stroke-linecap:square;stroke-width:0.8;"/>
     </g>
     <g id="line2d_10">
      <g>
       <use style="stroke:#000000;stroke-width:0.8;" x="214.433143" xlink:href="#m9cd089cd49" y="294.88"/>
      </g>
     </g>
     <g id="text_3">
      <!-- 4 -->
      <defs>
       <path d="M 37.796875 64.3125 
L 12.890625 25.390625 
L 37.796875 25.390625 
z
M 35.203125 72.90625 
L 47.609375 72.90625 
L 47.609375 25.390625 
L 58.015625 25.390625 
L 58.015625 17.1875 
L 47.609375 17.1875 
L 47.609375 0 
L 37.796875 0 
L 37.796875 17.1875 
L 4.890625 17.1875 
L 4.890625 26.703125 
z
" id="DejaVuSans-34"/>
      </defs>
      <g transform="translate(208.070643 317.076875)scale(0.2 -0.2)">
       <use xlink:href="#DejaVuSans-34"/>
      </g>
     </g>
    </g>
    <g id="xtick_4">
     <g id="line2d_11">
      <path clip-path="url(#p3c778fe556)" d="M 293.589714 294.88 
L 293.589714 6.845228 
" style="fill:none;stroke:#b0b0b0;stroke-linecap:square;stroke-width:0.8;"/>
     </g>
     <g id="line2d_12">
      <g>
       <use style="stroke:#000000;stroke-width:0.8;" x="293.589714" xlink:href="#m9cd089cd49" y="294.88"/>
      </g>
     </g>
     <g id="text_4">
      <!-- 6 -->
      <defs>
       <path d="M 33.015625 40.375 
Q 26.375 40.375 22.484375 35.828125 
Q 18.609375 31.296875 18.609375 23.390625 
Q 18.609375 15.53125 22.484375 10.953125 
Q 26.375 6.390625 33.015625 6.390625 
Q 39.65625 6.390625 43.53125 10.953125 
Q 47.40625 15.53125 47.40625 23.390625 
Q 47.40625 31.296875 43.53125 35.828125 
Q 39.65625 40.375 33.015625 40.375 
z
M 52.59375 71.296875 
L 52.59375 62.3125 
Q 48.875 64.0625 45.09375 64.984375 
Q 41.3125 65.921875 37.59375 65.921875 
Q 27.828125 65.921875 22.671875 59.328125 
Q 17.53125 52.734375 16.796875 39.40625 
Q 19.671875 43.65625 24.015625 45.921875 
Q 28.375 48.1875 33.59375 48.1875 
Q 44.578125 48.1875 50.953125 41.515625 
Q 57.328125 34.859375 57.328125 23.390625 
Q 57.328125 12.15625 50.6875 5.359375 
Q 44.046875 -1.421875 33.015625 -1.421875 
Q 20.359375 -1.421875 13.671875 8.265625 
Q 6.984375 17.96875 6.984375 36.375 
Q 6.984375 53.65625 15.1875 63.9375 
Q 23.390625 74.21875 37.203125 74.21875 
Q 40.921875 74.21875 44.703125 73.484375 
Q 48.484375 72.75 52.59375 71.296875 
z
" id="DejaVuSans-36"/>
      </defs>
      <g transform="translate(287.227214 317.076875)scale(0.2 -0.2)">
       <use xlink:href="#DejaVuSans-36"/>
      </g>
     </g>
    </g>
    <g id="xtick_5">
     <g id="line2d_13">
      <path clip-path="url(#p3c778fe556)" d="M 56.12 294.88 
L 56.12 6.845228 
" style="fill:none;stroke:#b0b0b0;stroke-linecap:square;stroke-width:0.8;"/>
     </g>
     <g id="line2d_14">
      <defs>
       <path d="M 0 0 
L 0 2 
" id="mb700b187f4" style="stroke:#000000;stroke-width:0.6;"/>
      </defs>
      <g>
       <use style="stroke:#000000;stroke-width:0.6;" x="56.12" xlink:href="#mb700b187f4" y="294.88"/>
      </g>
     </g>
    </g>
    <g id="xtick_6">
     <g id="line2d_15">
      <path clip-path="url(#p3c778fe556)" d="M 95.698286 294.88 
L 95.698286 6.845228 
" style="fill:none;stroke:#b0b0b0;stroke-linecap:square;stroke-width:0.8;"/>
     </g>
     <g id="line2d_16">
      <g>
       <use style="stroke:#000000;stroke-width:0.6;" x="95.698286" xlink:href="#mb700b187f4" y="294.88"/>
      </g>
     </g>
    </g>
    <g id="xtick_7">
     <g id="line2d_17">
      <path clip-path="url(#p3c778fe556)" d="M 135.276571 294.88 
L 135.276571 6.845228 
" style="fill:none;stroke:#b0b0b0;stroke-linecap:square;stroke-width:0.8;"/>
     </g>
     <g id="line2d_18">
      <g>
       <use style="stroke:#000000;stroke-width:0.6;" x="135.276571" xlink:href="#mb700b187f4" y="294.88"/>
      </g>
     </g>
    </g>
    <g id="xtick_8">
     <g id="line2d_19">
      <path clip-path="url(#p3c778fe556)" d="M 174.854857 294.88 
L 174.854857 6.845228 
" style="fill:none;stroke:#b0b0b0;stroke-linecap:square;stroke-width:0.8;"/>
     </g>
     <g id="line2d_20">
      <g>
       <use style="stroke:#000000;stroke-width:0.6;" x="174.854857" xlink:href="#mb700b187f4" y="294.88"/>
      </g>
     </g>
    </g>
    <g id="xtick_9">
     <g id="line2d_21">
      <path clip-path="url(#p3c778fe556)" d="M 214.433143 294.88 
L 214.433143 6.845228 
" style="fill:none;stroke:#b0b0b0;stroke-linecap:square;stroke-width:0.8;"/>
     </g>
     <g id="line2d_22">
      <g>
       <use style="stroke:#000000;stroke-width:0.6;" x="214.433143" xlink:href="#mb700b187f4" y="294.88"/>
      </g>
     </g>
    </g>
    <g id="xtick_10">
     <g id="line2d_23">
      <path clip-path="url(#p3c778fe556)" d="M 254.011429 294.88 
L 254.011429 6.845228 
" style="fill:none;stroke:#b0b0b0;stroke-linecap:square;stroke-width:0.8;"/>
     </g>
     <g id="line2d_24">
      <g>
       <use style="stroke:#000000;stroke-width:0.6;" x="254.011429" xlink:href="#mb700b187f4" y="294.88"/>
      </g>
     </g>
    </g>
    <g id="xtick_11">
     <g id="line2d_25">
      <path clip-path="url(#p3c778fe556)" d="M 293.589714 294.88 
L 293.589714 6.845228 
" style="fill:none;stroke:#b0b0b0;stroke-linecap:square;stroke-width:0.8;"/>
     </g>
     <g id="line2d_26">
      <g>
       <use style="stroke:#000000;stroke-width:0.6;" x="293.589714" xlink:href="#mb700b187f4" y="294.88"/>
      </g>
     </g>
    </g>
    <g id="xtick_12">
     <g id="line2d_27">
      <path clip-path="url(#p3c778fe556)" d="M 333.168 294.88 
L 333.168 6.845228 
" style="fill:none;stroke:#b0b0b0;stroke-linecap:square;stroke-width:0.8;"/>
     </g>
     <g id="line2d_28">
      <g>
       <use style="stroke:#000000;stroke-width:0.6;" x="333.168" xlink:href="#mb700b187f4" y="294.88"/>
      </g>
     </g>
    </g>
    <g id="text_5">
     <!-- log10(# f-evals / dimension) -->
     <defs>
      <path d="M 9.421875 75.984375 
L 18.40625 75.984375 
L 18.40625 0 
L 9.421875 0 
z
" id="DejaVuSans-6c"/>
      <path d="M 30.609375 48.390625 
Q 23.390625 48.390625 19.1875 42.75 
Q 14.984375 37.109375 14.984375 27.296875 
Q 14.984375 17.484375 19.15625 11.84375 
Q 23.34375 6.203125 30.609375 6.203125 
Q 37.796875 6.203125 41.984375 11.859375 
Q 46.1875 17.53125 46.1875 27.296875 
Q 46.1875 37.015625 41.984375 42.703125 
Q 37.796875 48.390625 30.609375 48.390625 
z
M 30.609375 56 
Q 42.328125 56 49.015625 48.375 
Q 55.71875 40.765625 55.71875 27.296875 
Q 55.71875 13.875 49.015625 6.21875 
Q 42.328125 -1.421875 30.609375 -1.421875 
Q 18.84375 -1.421875 12.171875 6.21875 
Q 5.515625 13.875 5.515625 27.296875 
Q 5.515625 40.765625 12.171875 48.375 
Q 18.84375 56 30.609375 56 
z
" id="DejaVuSans-6f"/>
      <path d="M 45.40625 27.984375 
Q 45.40625 37.75 41.375 43.109375 
Q 37.359375 48.484375 30.078125 48.484375 
Q 22.859375 48.484375 18.828125 43.109375 
Q 14.796875 37.75 14.796875 27.984375 
Q 14.796875 18.265625 18.828125 12.890625 
Q 22.859375 7.515625 30.078125 7.515625 
Q 37.359375 7.515625 41.375 12.890625 
Q 45.40625 18.265625 45.40625 27.984375 
z
M 54.390625 6.78125 
Q 54.390625 -7.171875 48.1875 -13.984375 
Q 42 -20.796875 29.203125 -20.796875 
Q 24.46875 -20.796875 20.265625 -20.09375 
Q 16.0625 -19.390625 12.109375 -17.921875 
L 12.109375 -9.1875 
Q 16.0625 -11.328125 19.921875 -12.34375 
Q 23.78125 -13.375 27.78125 -13.375 
Q 36.625 -13.375 41.015625 -8.765625 
Q 45.40625 -4.15625 45.40625 5.171875 
L 45.40625 9.625 
Q 42.625 4.78125 38.28125 2.390625 
Q 33.9375 0 27.875 0 
Q 17.828125 0 11.671875 7.65625 
Q 5.515625 15.328125 5.515625 27.984375 
Q 5.515625 40.671875 11.671875 48.328125 
Q 17.828125 56 27.875 56 
Q 33.9375 56 38.28125 53.609375 
Q 42.625 51.21875 45.40625 46.390625 
L 45.40625 54.6875 
L 54.390625 54.6875 
z
" id="DejaVuSans-67"/>
      <path d="M 12.40625 8.296875 
L 28.515625 8.296875 
L 28.515625 63.921875 
L 10.984375 60.40625 
L 10.984375 69.390625 
L 28.421875 72.90625 
L 38.28125 72.90625 
L 38.28125 8.296875 
L 54.390625 8.296875 
L 54.390625 0 
L 12.40625 0 
z
" id="DejaVuSans-31"/>
      <path d="M 31 75.875 
Q 24.46875 64.65625 21.28125 53.65625 
Q 18.109375 42.671875 18.109375 31.390625 
Q 18.109375 20.125 21.3125 9.0625 
Q 24.515625 -2 31 -13.1875 
L 23.1875 -13.1875 
Q 15.875 -1.703125 12.234375 9.375 
Q 8.59375 20.453125 8.59375 31.390625 
Q 8.59375 42.28125 12.203125 53.3125 
Q 15.828125 64.359375 23.1875 75.875 
z
" id="DejaVuSans-28"/>
      <path d="M 51.125 44 
L 36.921875 44 
L 32.8125 27.6875 
L 47.125 27.6875 
z
M 43.796875 71.78125 
L 38.71875 51.515625 
L 52.984375 51.515625 
L 58.109375 71.78125 
L 65.921875 71.78125 
L 60.890625 51.515625 
L 76.125 51.515625 
L 76.125 44 
L 58.984375 44 
L 54.984375 27.6875 
L 70.515625 27.6875 
L 70.515625 20.21875 
L 53.078125 20.21875 
L 48 0 
L 40.1875 0 
L 45.21875 20.21875 
L 30.90625 20.21875 
L 25.875 0 
L 18.015625 0 
L 23.09375 20.21875 
L 7.71875 20.21875 
L 7.71875 27.6875 
L 24.90625 27.6875 
L 29 44 
L 13.28125 44 
L 13.28125 51.515625 
L 30.90625 51.515625 
L 35.890625 71.78125 
z
" id="DejaVuSans-23"/>
      <path id="DejaVuSans-20"/>
      <path d="M 37.109375 75.984375 
L 37.109375 68.5 
L 28.515625 68.5 
Q 23.6875 68.5 21.796875 66.546875 
Q 19.921875 64.59375 19.921875 59.515625 
L 19.921875 54.6875 
L 34.71875 54.6875 
L 34.71875 47.703125 
L 19.921875 47.703125 
L 19.921875 0 
L 10.890625 0 
L 10.890625 47.703125 
L 2.296875 47.703125 
L 2.296875 54.6875 
L 10.890625 54.6875 
L 10.890625 58.5 
Q 10.890625 67.625 15.140625 71.796875 
Q 19.390625 75.984375 28.609375 75.984375 
z
" id="DejaVuSans-66"/>
      <path d="M 4.890625 31.390625 
L 31.203125 31.390625 
L 31.203125 23.390625 
L 4.890625 23.390625 
z
" id="DejaVuSans-2d"/>
      <path d="M 56.203125 29.59375 
L 56.203125 25.203125 
L 14.890625 25.203125 
Q 15.484375 15.921875 20.484375 11.0625 
Q 25.484375 6.203125 34.421875 6.203125 
Q 39.59375 6.203125 44.453125 7.46875 
Q 49.3125 8.734375 54.109375 11.28125 
L 54.109375 2.78125 
Q 49.265625 0.734375 44.1875 -0.34375 
Q 39.109375 -1.421875 33.890625 -1.421875 
Q 20.796875 -1.421875 13.15625 6.1875 
Q 5.515625 13.8125 5.515625 26.8125 
Q 5.515625 40.234375 12.765625 48.109375 
Q 20.015625 56 32.328125 56 
Q 43.359375 56 49.78125 48.890625 
Q 56.203125 41.796875 56.203125 29.59375 
z
M 47.21875 32.234375 
Q 47.125 39.59375 43.09375 43.984375 
Q 39.0625 48.390625 32.421875 48.390625 
Q 24.90625 48.390625 20.390625 44.140625 
Q 15.875 39.890625 15.1875 32.171875 
z
" id="DejaVuSans-65"/>
      <path d="M 2.984375 54.6875 
L 12.5 54.6875 
L 29.59375 8.796875 
L 46.6875 54.6875 
L 56.203125 54.6875 
L 35.6875 0 
L 23.484375 0 
z
" id="DejaVuSans-76"/>
      <path d="M 34.28125 27.484375 
Q 23.390625 27.484375 19.1875 25 
Q 14.984375 22.515625 14.984375 16.5 
Q 14.984375 11.71875 18.140625 8.90625 
Q 21.296875 6.109375 26.703125 6.109375 
Q 34.1875 6.109375 38.703125 11.40625 
Q 43.21875 16.703125 43.21875 25.484375 
L 43.21875 27.484375 
z
M 52.203125 31.203125 
L 52.203125 0 
L 43.21875 0 
L 43.21875 8.296875 
Q 40.140625 3.328125 35.546875 0.953125 
Q 30.953125 -1.421875 24.3125 -1.421875 
Q 15.921875 -1.421875 10.953125 3.296875 
Q 6 8.015625 6 15.921875 
Q 6 25.140625 12.171875 29.828125 
Q 18.359375 34.515625 30.609375 34.515625 
L 43.21875 34.515625 
L 43.21875 35.40625 
Q 43.21875 41.609375 39.140625 45 
Q 35.0625 48.390625 27.6875 48.390625 
Q 23 48.390625 18.546875 47.265625 
Q 14.109375 46.140625 10.015625 43.890625 
L 10.015625 52.203125 
Q 14.9375 54.109375 19.578125 55.046875 
Q 24.21875 56 28.609375 56 
Q 40.484375 56 46.34375 49.84375 
Q 52.203125 43.703125 52.203125 31.203125 
z
" id="DejaVuSans-61"/>
      <path d="M 44.28125 53.078125 
L 44.28125 44.578125 
Q 40.484375 46.53125 36.375 47.5 
Q 32.28125 48.484375 27.875 48.484375 
Q 21.1875 48.484375 17.84375 46.4375 
Q 14.5 44.390625 14.5 40.28125 
Q 14.5 37.15625 16.890625 35.375 
Q 19.28125 33.59375 26.515625 31.984375 
L 29.59375 31.296875 
Q 39.15625 29.25 43.1875 25.515625 
Q 47.21875 21.78125 47.21875 15.09375 
Q 47.21875 7.46875 41.1875 3.015625 
Q 35.15625 -1.421875 24.609375 -1.421875 
Q 20.21875 -1.421875 15.453125 -0.5625 
Q 10.6875 0.296875 5.421875 2 
L 5.421875 11.28125 
Q 10.40625 8.6875 15.234375 7.390625 
Q 20.0625 6.109375 24.8125 6.109375 
Q 31.15625 6.109375 34.5625 8.28125 
Q 37.984375 10.453125 37.984375 14.40625 
Q 37.984375 18.0625 35.515625 20.015625 
Q 33.0625 21.96875 24.703125 23.78125 
L 21.578125 24.515625 
Q 13.234375 26.265625 9.515625 29.90625 
Q 5.8125 33.546875 5.8125 39.890625 
Q 5.8125 47.609375 11.28125 51.796875 
Q 16.75 56 26.8125 56 
Q 31.78125 56 36.171875 55.265625 
Q 40.578125 54.546875 44.28125 53.078125 
z
" id="DejaVuSans-73"/>
      <path d="M 25.390625 72.90625 
L 33.6875 72.90625 
L 8.296875 -9.28125 
L 0 -9.28125 
z
" id="DejaVuSans-2f"/>
      <path d="M 45.40625 46.390625 
L 45.40625 75.984375 
L 54.390625 75.984375 
L 54.390625 0 
L 45.40625 0 
L 45.40625 8.203125 
Q 42.578125 3.328125 38.25 0.953125 
Q 33.9375 -1.421875 27.875 -1.421875 
Q 17.96875 -1.421875 11.734375 6.484375 
Q 5.515625 14.40625 5.515625 27.296875 
Q 5.515625 40.1875 11.734375 48.09375 
Q 17.96875 56 27.875 56 
Q 33.9375 56 38.25 53.625 
Q 42.578125 51.265625 45.40625 46.390625 
z
M 14.796875 27.296875 
Q 14.796875 17.390625 18.875 11.75 
Q 22.953125 6.109375 30.078125 6.109375 
Q 37.203125 6.109375 41.296875 11.75 
Q 45.40625 17.390625 45.40625 27.296875 
Q 45.40625 37.203125 41.296875 42.84375 
Q 37.203125 48.484375 30.078125 48.484375 
Q 22.953125 48.484375 18.875 42.84375 
Q 14.796875 37.203125 14.796875 27.296875 
z
" id="DejaVuSans-64"/>
      <path d="M 9.421875 54.6875 
L 18.40625 54.6875 
L 18.40625 0 
L 9.421875 0 
z
M 9.421875 75.984375 
L 18.40625 75.984375 
L 18.40625 64.59375 
L 9.421875 64.59375 
z
" id="DejaVuSans-69"/>
      <path d="M 52 44.1875 
Q 55.375 50.25 60.0625 53.125 
Q 64.75 56 71.09375 56 
Q 79.640625 56 84.28125 50.015625 
Q 88.921875 44.046875 88.921875 33.015625 
L 88.921875 0 
L 79.890625 0 
L 79.890625 32.71875 
Q 79.890625 40.578125 77.09375 44.375 
Q 74.3125 48.1875 68.609375 48.1875 
Q 61.625 48.1875 57.5625 43.546875 
Q 53.515625 38.921875 53.515625 30.90625 
L 53.515625 0 
L 44.484375 0 
L 44.484375 32.71875 
Q 44.484375 40.625 41.703125 44.40625 
Q 38.921875 48.1875 33.109375 48.1875 
Q 26.21875 48.1875 22.15625 43.53125 
Q 18.109375 38.875 18.109375 30.90625 
L 18.109375 0 
L 9.078125 0 
L 9.078125 54.6875 
L 18.109375 54.6875 
L 18.109375 46.1875 
Q 21.1875 51.21875 25.484375 53.609375 
Q 29.78125 56 35.6875 56 
Q 41.65625 56 45.828125 52.96875 
Q 50 49.953125 52 44.1875 
z
" id="DejaVuSans-6d"/>
      <path d="M 54.890625 33.015625 
L 54.890625 0 
L 45.90625 0 
L 45.90625 32.71875 
Q 45.90625 40.484375 42.875 44.328125 
Q 39.84375 48.1875 33.796875 48.1875 
Q 26.515625 48.1875 22.3125 43.546875 
Q 18.109375 38.921875 18.109375 30.90625 
L 18.109375 0 
L 9.078125 0 
L 9.078125 54.6875 
L 18.109375 54.6875 
L 18.109375 46.1875 
Q 21.34375 51.125 25.703125 53.5625 
Q 30.078125 56 35.796875 56 
Q 45.21875 56 50.046875 50.171875 
Q 54.890625 44.34375 54.890625 33.015625 
z
" id="DejaVuSans-6e"/>
      <path d="M 8.015625 75.875 
L 15.828125 75.875 
Q 23.140625 64.359375 26.78125 53.3125 
Q 30.421875 42.28125 30.421875 31.390625 
Q 30.421875 20.453125 26.78125 9.375 
Q 23.140625 -1.703125 15.828125 -13.1875 
L 8.015625 -13.1875 
Q 14.5 -2 17.703125 9.0625 
Q 20.90625 20.125 20.90625 31.390625 
Q 20.90625 42.671875 17.703125 53.65625 
Q 14.5 64.65625 8.015625 75.875 
z
" id="DejaVuSans-29"/>
     </defs>
     <g transform="translate(73.803219 338.153594)scale(0.17 -0.17)">
      <use xlink:href="#DejaVuSans-6c"/>
      <use x="27.783203" xlink:href="#DejaVuSans-6f"/>
      <use x="88.964844" xlink:href="#DejaVuSans-67"/>
      <use x="152.441406" xlink:href="#DejaVuSans-31"/>
      <use x="216.064453" xlink:href="#DejaVuSans-30"/>
      <use x="279.6875" xlink:href="#DejaVuSans-28"/>
      <use x="318.701172" xlink:href="#DejaVuSans-23"/>
      <use x="402.490234" xlink:href="#DejaVuSans-20"/>
      <use x="434.277344" xlink:href="#DejaVuSans-66"/>
      <use x="469.404297" xlink:href="#DejaVuSans-2d"/>
      <use x="505.488281" xlink:href="#DejaVuSans-65"/>
      <use x="567.011719" xlink:href="#DejaVuSans-76"/>
      <use x="626.191406" xlink:href="#DejaVuSans-61"/>
      <use x="687.470703" xlink:href="#DejaVuSans-6c"/>
      <use x="715.253906" xlink:href="#DejaVuSans-73"/>
      <use x="767.353516" xlink:href="#DejaVuSans-20"/>
      <use x="799.140625" xlink:href="#DejaVuSans-2f"/>
      <use x="832.832031" xlink:href="#DejaVuSans-20"/>
      <use x="864.619141" xlink:href="#DejaVuSans-64"/>
      <use x="928.095703" xlink:href="#DejaVuSans-69"/>
      <use x="955.878906" xlink:href="#DejaVuSans-6d"/>
      <use x="1053.291016" xlink:href="#DejaVuSans-65"/>
      <use x="1114.814453" xlink:href="#DejaVuSans-6e"/>
      <use x="1178.193359" xlink:href="#DejaVuSans-73"/>
      <use x="1230.292969" xlink:href="#DejaVuSans-69"/>
      <use x="1258.076172" xlink:href="#DejaVuSans-6f"/>
      <use x="1319.257812" xlink:href="#DejaVuSans-6e"/>
      <use x="1382.636719" xlink:href="#DejaVuSans-29"/>
     </g>
    </g>
   </g>
   <g id="matplotlib.axis_2">
    <g id="ytick_1">
     <g id="line2d_29">
      <path clip-path="url(#p3c778fe556)" d="M 56.12 294.88 
L 333.168 294.88 
" style="fill:none;stroke:#b0b0b0;stroke-linecap:square;stroke-width:0.8;"/>
     </g>
     <g id="line2d_30">
      <defs>
       <path d="M 0 0 
L -3.5 0 
" id="mbf2316b1ea" style="stroke:#000000;stroke-width:0.8;"/>
      </defs>
      <g>
       <use style="stroke:#000000;stroke-width:0.8;" x="56.12" xlink:href="#mbf2316b1ea" y="294.88"/>
      </g>
     </g>
     <g id="text_6">
      <!-- 0.0 -->
      <defs>
       <path d="M 10.6875 12.40625 
L 21 12.40625 
L 21 0 
L 10.6875 0 
z
" id="DejaVuSans-2e"/>
      </defs>
      <g transform="translate(23.675 300.95875)scale(0.16 -0.16)">
       <use xlink:href="#DejaVuSans-30"/>
       <use x="63.623047" xlink:href="#DejaVuSans-2e"/>
       <use x="95.410156" xlink:href="#DejaVuSans-30"/>
      </g>
     </g>
    </g>
    <g id="ytick_2">
     <g id="line2d_31">
      <path clip-path="url(#p3c778fe556)" d="M 56.12 237.843411 
L 333.168 237.843411 
" style="fill:none;stroke:#b0b0b0;stroke-linecap:square;stroke-width:0.8;"/>
     </g>
     <g id="line2d_32">
      <g>
       <use style="stroke:#000000;stroke-width:0.8;" x="56.12" xlink:href="#mbf2316b1ea" y="237.843411"/>
      </g>
     </g>
     <g id="text_7">
      <!-- 0.2 -->
      <g transform="translate(23.675 243.922161)scale(0.16 -0.16)">
       <use xlink:href="#DejaVuSans-30"/>
       <use x="63.623047" xlink:href="#DejaVuSans-2e"/>
       <use x="95.410156" xlink:href="#DejaVuSans-32"/>
      </g>
     </g>
    </g>
    <g id="ytick_3">
     <g id="line2d_33">
      <path clip-path="url(#p3c778fe556)" d="M 56.12 180.806823 
L 333.168 180.806823 
" style="fill:none;stroke:#b0b0b0;stroke-linecap:square;stroke-width:0.8;"/>
     </g>
     <g id="line2d_34">
      <g>
       <use style="stroke:#000000;stroke-width:0.8;" x="56.12" xlink:href="#mbf2316b1ea" y="180.806823"/>
      </g>
     </g>
     <g id="text_8">
      <!-- 0.4 -->
      <g transform="translate(23.675 186.885573)scale(0.16 -0.16)">
       <use xlink:href="#DejaVuSans-30"/>
       <use x="63.623047" xlink:href="#DejaVuSans-2e"/>
       <use x="95.410156" xlink:href="#DejaVuSans-34"/>
      </g>
     </g>
    </g>
    <g id="ytick_4">
     <g id="line2d_35">
      <path clip-path="url(#p3c778fe556)" d="M 56.12 123.770234 
L 333.168 123.770234 
" style="fill:none;stroke:#b0b0b0;stroke-linecap:square;stroke-width:0.8;"/>
     </g>
     <g id="line2d_36">
      <g>
       <use style="stroke:#000000;stroke-width:0.8;" x="56.12" xlink:href="#mbf2316b1ea" y="123.770234"/>
      </g>
     </g>
     <g id="text_9">
      <!-- 0.6 -->
      <g transform="translate(23.675 129.848984)scale(0.16 -0.16)">
       <use xlink:href="#DejaVuSans-30"/>
       <use x="63.623047" xlink:href="#DejaVuSans-2e"/>
       <use x="95.410156" xlink:href="#DejaVuSans-36"/>
      </g>
     </g>
    </g>
    <g id="ytick_5">
     <g id="line2d_37">
      <path clip-path="url(#p3c778fe556)" d="M 56.12 66.733646 
L 333.168 66.733646 
" style="fill:none;stroke:#b0b0b0;stroke-linecap:square;stroke-width:0.8;"/>
     </g>
     <g id="line2d_38">
      <g>
       <use style="stroke:#000000;stroke-width:0.8;" x="56.12" xlink:href="#mbf2316b1ea" y="66.733646"/>
      </g>
     </g>
     <g id="text_10">
      <!-- 0.8 -->
      <defs>
       <path d="M 31.78125 34.625 
Q 24.75 34.625 20.71875 30.859375 
Q 16.703125 27.09375 16.703125 20.515625 
Q 16.703125 13.921875 20.71875 10.15625 
Q 24.75 6.390625 31.78125 6.390625 
Q 38.8125 6.390625 42.859375 10.171875 
Q 46.921875 13.96875 46.921875 20.515625 
Q 46.921875 27.09375 42.890625 30.859375 
Q 38.875 34.625 31.78125 34.625 
z
M 21.921875 38.8125 
Q 15.578125 40.375 12.03125 44.71875 
Q 8.5 49.078125 8.5 55.328125 
Q 8.5 64.0625 14.71875 69.140625 
Q 20.953125 74.21875 31.78125 74.21875 
Q 42.671875 74.21875 48.875 69.140625 
Q 55.078125 64.0625 55.078125 55.328125 
Q 55.078125 49.078125 51.53125 44.71875 
Q 48 40.375 41.703125 38.8125 
Q 48.828125 37.15625 52.796875 32.3125 
Q 56.78125 27.484375 56.78125 20.515625 
Q 56.78125 9.90625 50.3125 4.234375 
Q 43.84375 -1.421875 31.78125 -1.421875 
Q 19.734375 -1.421875 13.25 4.234375 
Q 6.78125 9.90625 6.78125 20.515625 
Q 6.78125 27.484375 10.78125 32.3125 
Q 14.796875 37.15625 21.921875 38.8125 
z
M 18.3125 54.390625 
Q 18.3125 48.734375 21.84375 45.5625 
Q 25.390625 42.390625 31.78125 42.390625 
Q 38.140625 42.390625 41.71875 45.5625 
Q 45.3125 48.734375 45.3125 54.390625 
Q 45.3125 60.0625 41.71875 63.234375 
Q 38.140625 66.40625 31.78125 66.40625 
Q 25.390625 66.40625 21.84375 63.234375 
Q 18.3125 60.0625 18.3125 54.390625 
z
" id="DejaVuSans-38"/>
      </defs>
      <g transform="translate(23.675 72.812396)scale(0.16 -0.16)">
       <use xlink:href="#DejaVuSans-30"/>
       <use x="63.623047" xlink:href="#DejaVuSans-2e"/>
       <use x="95.410156" xlink:href="#DejaVuSans-38"/>
      </g>
     </g>
    </g>
    <g id="ytick_6">
     <g id="line2d_39">
      <path clip-path="url(#p3c778fe556)" d="M 56.12 9.697057 
L 333.168 9.697057 
" style="fill:none;stroke:#b0b0b0;stroke-linecap:square;stroke-width:0.8;"/>
     </g>
     <g id="line2d_40">
      <g>
       <use style="stroke:#000000;stroke-width:0.8;" x="56.12" xlink:href="#mbf2316b1ea" y="9.697057"/>
      </g>
     </g>
     <g id="text_11">
      <!-- 1.0 -->
      <g transform="translate(23.675 15.775807)scale(0.16 -0.16)">
       <use xlink:href="#DejaVuSans-31"/>
       <use x="63.623047" xlink:href="#DejaVuSans-2e"/>
       <use x="95.410156" xlink:href="#DejaVuSans-30"/>
      </g>
     </g>
    </g>
    <g id="text_12">
     <!-- Fraction of function,target pairs -->
     <defs>
      <path d="M 9.8125 72.90625 
L 51.703125 72.90625 
L 51.703125 64.59375 
L 19.671875 64.59375 
L 19.671875 43.109375 
L 48.578125 43.109375 
L 48.578125 34.8125 
L 19.671875 34.8125 
L 19.671875 0 
L 9.8125 0 
z
" id="DejaVuSans-46"/>
      <path d="M 41.109375 46.296875 
Q 39.59375 47.171875 37.8125 47.578125 
Q 36.03125 48 33.890625 48 
Q 26.265625 48 22.1875 43.046875 
Q 18.109375 38.09375 18.109375 28.8125 
L 18.109375 0 
L 9.078125 0 
L 9.078125 54.6875 
L 18.109375 54.6875 
L 18.109375 46.1875 
Q 20.953125 51.171875 25.484375 53.578125 
Q 30.03125 56 36.53125 56 
Q 37.453125 56 38.578125 55.875 
Q 39.703125 55.765625 41.0625 55.515625 
z
" id="DejaVuSans-72"/>
      <path d="M 48.78125 52.59375 
L 48.78125 44.1875 
Q 44.96875 46.296875 41.140625 47.34375 
Q 37.3125 48.390625 33.40625 48.390625 
Q 24.65625 48.390625 19.8125 42.84375 
Q 14.984375 37.3125 14.984375 27.296875 
Q 14.984375 17.28125 19.8125 11.734375 
Q 24.65625 6.203125 33.40625 6.203125 
Q 37.3125 6.203125 41.140625 7.25 
Q 44.96875 8.296875 48.78125 10.40625 
L 48.78125 2.09375 
Q 45.015625 0.34375 40.984375 -0.53125 
Q 36.96875 -1.421875 32.421875 -1.421875 
Q 20.0625 -1.421875 12.78125 6.34375 
Q 5.515625 14.109375 5.515625 27.296875 
Q 5.515625 40.671875 12.859375 48.328125 
Q 20.21875 56 33.015625 56 
Q 37.15625 56 41.109375 55.140625 
Q 45.0625 54.296875 48.78125 52.59375 
z
" id="DejaVuSans-63"/>
      <path d="M 18.3125 70.21875 
L 18.3125 54.6875 
L 36.8125 54.6875 
L 36.8125 47.703125 
L 18.3125 47.703125 
L 18.3125 18.015625 
Q 18.3125 11.328125 20.140625 9.421875 
Q 21.96875 7.515625 27.59375 7.515625 
L 36.8125 7.515625 
L 36.8125 0 
L 27.59375 0 
Q 17.1875 0 13.234375 3.875 
Q 9.28125 7.765625 9.28125 18.015625 
L 9.28125 47.703125 
L 2.6875 47.703125 
L 2.6875 54.6875 
L 9.28125 54.6875 
L 9.28125 70.21875 
z
" id="DejaVuSans-74"/>
      <path d="M 8.5 21.578125 
L 8.5 54.6875 
L 17.484375 54.6875 
L 17.484375 21.921875 
Q 17.484375 14.15625 20.5 10.265625 
Q 23.53125 6.390625 29.59375 6.390625 
Q 36.859375 6.390625 41.078125 11.03125 
Q 45.3125 15.671875 45.3125 23.6875 
L 45.3125 54.6875 
L 54.296875 54.6875 
L 54.296875 0 
L 45.3125 0 
L 45.3125 8.40625 
Q 42.046875 3.421875 37.71875 1 
Q 33.40625 -1.421875 27.6875 -1.421875 
Q 18.265625 -1.421875 13.375 4.4375 
Q 8.5 10.296875 8.5 21.578125 
z
M 31.109375 56 
z
" id="DejaVuSans-75"/>
      <path d="M 11.71875 12.40625 
L 22.015625 12.40625 
L 22.015625 4 
L 14.015625 -11.625 
L 7.71875 -11.625 
L 11.71875 4 
z
" id="DejaVuSans-2c"/>
      <path d="M 18.109375 8.203125 
L 18.109375 -20.796875 
L 9.078125 -20.796875 
L 9.078125 54.6875 
L 18.109375 54.6875 
L 18.109375 46.390625 
Q 20.953125 51.265625 25.265625 53.625 
Q 29.59375 56 35.59375 56 
Q 45.5625 56 51.78125 48.09375 
Q 58.015625 40.1875 58.015625 27.296875 
Q 58.015625 14.40625 51.78125 6.484375 
Q 45.5625 -1.421875 35.59375 -1.421875 
Q 29.59375 -1.421875 25.265625 0.953125 
Q 20.953125 3.328125 18.109375 8.203125 
z
M 48.6875 27.296875 
Q 48.6875 37.203125 44.609375 42.84375 
Q 40.53125 48.484375 33.40625 48.484375 
Q 26.265625 48.484375 22.1875 42.84375 
Q 18.109375 37.203125 18.109375 27.296875 
Q 18.109375 17.390625 22.1875 11.75 
Q 26.265625 6.109375 33.40625 6.109375 
Q 40.53125 6.109375 44.609375 11.75 
Q 48.6875 17.390625 48.6875 27.296875 
z
" id="DejaVuSans-70"/>
     </defs>
     <g transform="translate(16.139531 286.001989)rotate(-90)scale(0.17 -0.17)">
      <use xlink:href="#DejaVuSans-46"/>
      <use x="57.410156" xlink:href="#DejaVuSans-72"/>
      <use x="98.523438" xlink:href="#DejaVuSans-61"/>
      <use x="159.802734" xlink:href="#DejaVuSans-63"/>
      <use x="214.783203" xlink:href="#DejaVuSans-74"/>
      <use x="253.992188" xlink:href="#DejaVuSans-69"/>
      <use x="281.775391" xlink:href="#DejaVuSans-6f"/>
      <use x="342.957031" xlink:href="#DejaVuSans-6e"/>
      <use x="406.335938" xlink:href="#DejaVuSans-20"/>
      <use x="438.123047" xlink:href="#DejaVuSans-6f"/>
      <use x="499.304688" xlink:href="#DejaVuSans-66"/>
      <use x="534.509766" xlink:href="#DejaVuSans-20"/>
      <use x="566.296875" xlink:href="#DejaVuSans-66"/>
      <use x="601.501953" xlink:href="#DejaVuSans-75"/>
      <use x="664.880859" xlink:href="#DejaVuSans-6e"/>
      <use x="728.259766" xlink:href="#DejaVuSans-63"/>
      <use x="783.240234" xlink:href="#DejaVuSans-74"/>
      <use x="822.449219" xlink:href="#DejaVuSans-69"/>
      <use x="850.232422" xlink:href="#DejaVuSans-6f"/>
      <use x="911.414062" xlink:href="#DejaVuSans-6e"/>
      <use x="974.792969" xlink:href="#DejaVuSans-2c"/>
      <use x="1006.580078" xlink:href="#DejaVuSans-74"/>
      <use x="1045.789062" xlink:href="#DejaVuSans-61"/>
      <use x="1107.068359" xlink:href="#DejaVuSans-72"/>
      <use x="1148.166016" xlink:href="#DejaVuSans-67"/>
      <use x="1211.642578" xlink:href="#DejaVuSans-65"/>
      <use x="1273.166016" xlink:href="#DejaVuSans-74"/>
      <use x="1312.375" xlink:href="#DejaVuSans-20"/>
      <use x="1344.162109" xlink:href="#DejaVuSans-70"/>
      <use x="1407.638672" xlink:href="#DejaVuSans-61"/>
      <use x="1468.917969" xlink:href="#DejaVuSans-69"/>
      <use x="1496.701172" xlink:href="#DejaVuSans-72"/>
      <use x="1537.814453" xlink:href="#DejaVuSans-73"/>
     </g>
    </g>
   </g>
   <g id="line2d_41">
    <defs>
     <path d="M 0 1.5 
C 0.397805 1.5 0.77937 1.341951 1.06066 1.06066 
C 1.341951 0.77937 1.5 0.397805 1.5 0 
C 1.5 -0.397805 1.341951 -0.77937 1.06066 -1.06066 
C 0.77937 -1.341951 0.397805 -1.5 0 -1.5 
C -0.397805 -1.5 -0.77937 -1.341951 -1.06066 -1.06066 
C -1.341951 -0.77937 -1.5 -0.397805 -1.5 0 
C -1.5 0.397805 -1.341951 0.77937 -1.06066 1.06066 
C -0.77937 1.341951 -0.397805 1.5 0 1.5 
z
" id="mdb8e1cfb70" style="stroke:#f5deb3;"/>
    </defs>
    <g>
     <use style="fill:#f5deb3;stroke:#f5deb3;" x="195.303804" xlink:href="#mdb8e1cfb70" y="9.697057"/>
     <use style="fill:#f5deb3;stroke:#f5deb3;" x="195.303804" xlink:href="#mdb8e1cfb70" y="9.697057"/>
    </g>
   </g>
   <g id="line2d_42">
    <defs>
     <path d="M 0 1.5 
C 0.397805 1.5 0.77937 1.341951 1.06066 1.06066 
C 1.341951 0.77937 1.5 0.397805 1.5 0 
C 1.5 -0.397805 1.341951 -0.77937 1.06066 -1.06066 
C 0.77937 -1.341951 0.397805 -1.5 0 -1.5 
C -0.397805 -1.5 -0.77937 -1.341951 -1.06066 -1.06066 
C -1.341951 -0.77937 -1.5 -0.397805 -1.5 0 
C -1.5 0.397805 -1.341951 0.77937 -1.06066 1.06066 
C -0.77937 1.341951 -0.397805 1.5 0 1.5 
z
" id="mdd9220462e" style="stroke:#000080;"/>
    </defs>
    <g>
     <use style="fill:#000080;stroke:#000080;" x="309.384736" xlink:href="#mdd9220462e" y="91.337664"/>
     <use style="fill:#000080;stroke:#000080;" x="309.384736" xlink:href="#mdd9220462e" y="91.337664"/>
    </g>
   </g>
   <g id="line2d_43">
    <path d="M -1 294.768164 
L 68.667033 294.768164 
L 68.667033 293.761636 
L 75.567254 293.761636 
L 75.567254 292.866944 
L 80.477425 292.866944 
L 80.477425 291.972252 
L 84.29211 291.972252 
L 84.29211 291.41307 
L 87.412056 291.41307 
L 87.412056 291.077561 
L 90.05175 291.077561 
L 90.05175 290.853888 
L 92.33951 290.853888 
L 92.33951 290.182869 
L 94.358234 290.182869 
L 94.358234 289.735523 
L 96.16459 289.735523 
L 96.16459 289.176341 
L 97.79904 289.176341 
L 97.79904 288.728995 
L 99.291477 288.728995 
L 99.291477 288.617159 
L 100.664619 288.617159 
L 100.664619 287.94614 
L 101.936134 287.94614 
L 101.936134 286.939612 
L 103.120034 286.939612 
L 103.120034 286.492266 
L 104.227619 286.492266 
L 104.227619 286.044921 
L 105.268134 286.044921 
L 105.268134 285.373902 
L 106.249241 285.373902 
L 106.249241 284.591047 
L 107.177358 284.591047 
L 107.177358 283.472682 
L 108.057918 283.472682 
L 108.057918 282.242481 
L 108.895557 282.242481 
L 108.895557 281.01228 
L 109.694266 281.01228 
L 109.694266 279.670243 
L 110.457504 279.670243 
L 110.457504 278.663715 
L 111.188286 278.663715 
L 111.188286 277.321678 
L 111.889263 277.321678 
L 111.889263 276.426986 
L 112.562769 276.426986 
L 112.562769 275.755967 
L 113.210876 275.755967 
L 113.210876 274.973112 
L 113.835432 274.973112 
L 113.835432 274.190257 
L 114.438088 274.190257 
L 114.438088 273.854748 
L 115.020328 273.854748 
L 115.020328 272.736383 
L 115.58349 272.736383 
L 115.58349 271.953528 
L 116.128784 271.953528 
L 116.128784 270.835164 
L 116.65731 270.835164 
L 116.65731 270.499654 
L 117.170068 270.499654 
L 117.170068 269.604963 
L 117.667972 269.604963 
L 117.667972 268.710271 
L 118.151859 268.710271 
L 118.151859 268.151089 
L 118.622495 268.151089 
L 118.622495 267.703743 
L 119.080588 267.703743 
L 119.080588 266.585379 
L 119.526788 266.585379 
L 119.526788 265.131505 
L 119.961698 265.131505 
L 119.961698 263.789467 
L 120.385875 263.789467 
L 120.385875 262.894776 
L 120.799835 262.894776 
L 120.799835 261.664575 
L 121.20406 261.664575 
L 121.20406 260.769883 
L 121.598997 260.769883 
L 121.598997 260.210701 
L 121.985063 260.210701 
L 121.985063 259.204173 
L 122.362648 259.204173 
L 122.362648 258.085809 
L 122.732117 258.085809 
L 122.732117 256.967444 
L 123.09381 256.967444 
L 123.09381 255.401734 
L 123.448049 255.401734 
L 123.448049 254.618879 
L 123.795135 254.618879 
L 123.795135 254.395206 
L 124.135351 254.395206 
L 124.135351 253.612351 
L 124.468963 253.612351 
L 124.468963 252.717659 
L 124.796223 252.717659 
L 124.796223 252.493986 
L 125.117369 252.493986 
L 125.117369 251.599295 
L 125.432625 251.599295 
L 125.432625 251.151949 
L 125.742202 251.151949 
L 125.742202 250.145421 
L 126.046302 250.145421 
L 126.046302 249.250729 
L 126.345116 249.250729 
L 126.345116 248.57971 
L 126.638823 248.57971 
L 126.638823 248.132365 
L 126.927596 248.132365 
L 126.927596 247.908692 
L 127.211598 247.908692 
L 127.211598 247.34951 
L 127.490983 247.34951 
L 127.490983 246.342981 
L 127.7659 246.342981 
L 127.7659 245.895636 
L 128.036489 245.895636 
L 128.036489 245.224617 
L 128.302884 245.224617 
L 128.302884 244.777271 
L 128.565213 244.777271 
L 128.565213 244.329925 
L 128.823599 244.329925 
L 128.823599 243.099724 
L 129.078158 243.099724 
L 129.078158 242.540542 
L 129.329002 242.540542 
L 129.329002 242.093196 
L 129.819968 242.093196 
L 129.819968 241.757687 
L 130.06029 241.757687 
L 130.06029 241.534014 
L 130.297299 241.534014 
L 130.297299 240.974832 
L 130.531084 240.974832 
L 130.531084 240.639323 
L 130.761732 240.639323 
L 130.761732 240.191977 
L 130.989325 240.191977 
L 130.989325 239.632795 
L 131.213945 239.632795 
L 131.213945 239.409122 
L 131.435667 239.409122 
L 131.435667 239.073612 
L 131.654565 239.073612 
L 131.654565 238.738103 
L 131.870711 238.738103 
L 131.870711 238.290757 
L 132.084173 238.290757 
L 132.084173 237.731575 
L 132.295016 237.731575 
L 132.295016 237.284229 
L 132.503304 237.284229 
L 132.503304 236.725047 
L 132.709098 236.725047 
L 132.709098 236.054028 
L 132.912457 236.054028 
L 132.912457 235.271173 
L 133.113439 235.271173 
L 133.113439 234.935664 
L 133.312097 234.935664 
L 133.312097 234.376482 
L 133.508486 234.376482 
L 133.508486 234.040972 
L 133.702657 234.040972 
L 133.702657 233.929136 
L 133.894658 233.929136 
L 133.894658 233.705463 
L 134.084539 233.705463 
L 134.084539 233.258117 
L 134.272344 233.258117 
L 134.272344 232.810771 
L 134.45812 232.810771 
L 134.45812 232.027916 
L 134.64191 232.027916 
L 134.64191 231.468734 
L 134.823755 231.468734 
L 134.823755 231.245061 
L 135.003696 231.245061 
L 135.003696 231.133225 
L 135.181773 231.133225 
L 135.181773 230.574042 
L 135.358024 230.574042 
L 135.358024 230.126697 
L 135.532486 230.126697 
L 135.532486 229.455678 
L 135.705195 229.455678 
L 135.705195 228.784659 
L 135.876187 228.784659 
L 135.876187 228.560986 
L 136.045493 228.560986 
L 136.045493 228.11364 
L 136.213149 228.11364 
L 136.213149 227.889968 
L 136.379185 227.889968 
L 136.379185 227.218949 
L 136.543632 227.218949 
L 136.543632 227.107112 
L 136.706521 227.107112 
L 136.706521 226.88344 
L 136.867881 226.88344 
L 136.867881 226.659767 
L 137.02774 226.659767 
L 137.02774 226.324257 
L 137.343066 226.324257 
L 137.343066 226.100584 
L 137.498586 226.100584 
L 137.498586 225.765075 
L 137.652711 225.765075 
L 137.652711 225.541402 
L 137.805467 225.541402 
L 137.805467 225.205893 
L 137.956877 225.205893 
L 137.956877 224.758547 
L 138.255754 224.758547 
L 138.255754 224.534874 
L 138.403266 224.534874 
L 138.403266 223.975692 
L 138.549523 223.975692 
L 138.549523 223.640183 
L 138.838355 223.640183 
L 138.838355 223.528346 
L 138.980971 223.528346 
L 138.980971 223.41651 
L 139.122414 223.41651 
L 139.122414 223.304673 
L 139.262702 223.304673 
L 139.262702 222.857327 
L 139.401854 222.857327 
L 139.401854 222.633654 
L 139.539889 222.633654 
L 139.539889 222.521818 
L 139.676825 222.521818 
L 139.676825 222.409982 
L 139.812678 222.409982 
L 139.812678 221.962636 
L 139.947465 221.962636 
L 139.947465 221.850799 
L 140.081204 221.850799 
L 140.081204 221.51529 
L 140.3456 221.51529 
L 140.3456 221.291617 
L 140.476289 221.291617 
L 140.476289 221.179781 
L 140.605991 221.179781 
L 140.605991 220.844271 
L 140.734722 220.844271 
L 140.734722 220.620598 
L 140.862496 220.620598 
L 140.862496 220.396926 
L 140.989327 220.396926 
L 140.989327 220.285089 
L 141.115229 220.285089 
L 141.115229 220.061416 
L 141.240216 220.061416 
L 141.240216 219.94958 
L 141.3643 219.94958 
L 141.3643 219.837743 
L 141.487495 219.837743 
L 141.487495 219.390397 
L 141.609813 219.390397 
L 141.609813 219.054888 
L 141.731267 219.054888 
L 141.731267 218.831215 
L 141.851869 218.831215 
L 141.851869 218.719379 
L 141.971631 218.719379 
L 141.971631 218.607542 
L 142.090564 218.607542 
L 142.090564 218.383869 
L 142.208679 218.383869 
L 142.208679 218.160197 
L 142.442503 218.160197 
L 142.442503 218.04836 
L 142.558233 218.04836 
L 142.558233 217.936524 
L 142.673188 217.936524 
L 142.673188 217.824687 
L 142.787381 217.824687 
L 142.787381 217.712851 
L 142.900819 217.712851 
L 142.900819 217.489178 
L 143.013514 217.489178 
L 143.013514 217.377341 
L 143.125474 217.377341 
L 143.125474 217.041832 
L 143.23671 217.041832 
L 143.347231 216.594486 
L 143.566164 216.594486 
L 143.566164 216.48265 
L 143.782343 216.48265 
L 143.889421 215.923468 
L 144.206711 215.923468 
L 144.311186 215.699795 
L 144.41503 215.699795 
L 144.51825 214.805103 
L 144.620854 214.805103 
L 144.722849 214.469594 
L 144.824243 214.469594 
L 144.925042 214.022248 
L 145.025253 214.022248 
L 145.124883 213.463066 
L 145.22394 213.463066 
L 145.322428 212.680211 
L 145.420356 212.680211 
L 145.517729 212.121028 
L 145.710835 212.121028 
L 145.806581 211.673683 
L 145.901796 211.673683 
L 145.996487 210.555318 
L 146.090659 210.555318 
L 146.184317 209.996136 
L 146.277469 209.996136 
L 146.370118 208.654098 
L 146.46227 208.654098 
L 146.553931 208.318589 
L 146.645106 208.318589 
L 146.7358 207.423898 
L 146.915764 207.423898 
L 146.915764 207.312061 
L 147.093864 207.312061 
L 147.182226 206.641042 
L 147.270137 206.641042 
L 147.3576 206.08186 
L 147.444621 206.08186 
L 147.531203 205.634514 
L 147.617351 205.634514 
L 147.703069 204.739823 
L 147.788363 204.739823 
L 147.873235 204.180641 
L 147.95769 204.180641 
L 147.95769 203.621458 
L 148.208593 203.621458 
L 148.291421 202.61493 
L 148.373851 202.61493 
L 148.455887 201.943912 
L 148.537534 201.943912 
L 148.618795 201.161056 
L 148.699674 201.161056 
L 148.780173 199.819019 
L 148.860298 199.819019 
L 148.940051 198.924327 
L 149.019435 198.924327 
L 149.098454 198.476982 
L 149.177112 198.476982 
L 149.255412 197.805963 
L 149.410949 197.805963 
L 149.410949 197.58229 
L 149.565091 197.58229 
L 149.641647 196.687599 
L 149.717864 196.687599 
L 149.793743 196.463926 
L 149.86929 196.463926 
L 149.86929 195.792907 
L 150.019394 195.792907 
L 150.093957 195.457398 
L 150.168198 195.457398 
L 150.24212 194.562706 
L 150.389017 194.562706 
L 150.461998 193.891687 
L 150.53467 193.891687 
L 150.607035 193.556178 
L 150.679098 193.556178 
L 150.75086 192.996996 
L 150.822323 192.996996 
L 150.89349 192.773323 
L 150.964364 192.773323 
L 151.034947 192.214141 
L 151.105241 192.214141 
L 151.175249 191.990468 
L 151.244973 191.990468 
L 151.314415 191.543122 
L 151.383578 191.543122 
L 151.383578 191.431285 
L 151.521075 191.431285 
L 151.521075 191.319449 
L 151.65748 191.319449 
L 151.725279 190.98394 
L 151.792811 190.98394 
L 151.860079 190.312921 
L 151.927085 190.312921 
L 151.993831 189.753739 
L 152.060318 189.753739 
L 152.12655 189.530066 
L 152.192527 189.530066 
L 152.258252 189.08272 
L 152.323726 189.08272 
L 152.388952 188.747211 
L 152.453932 188.747211 
L 152.518666 188.411701 
L 152.583158 188.411701 
L 152.583158 188.299865 
L 152.711421 188.299865 
L 152.775195 187.964356 
L 152.838733 187.964356 
L 152.902037 187.51701 
L 152.965109 187.51701 
L 152.965109 187.069664 
L 153.090563 187.069664 
L 153.152948 186.734155 
L 153.215108 186.734155 
L 153.215108 186.398645 
L 153.400249 186.398645 
L 153.461522 185.951299 
L 153.522578 185.951299 
L 153.583418 185.392117 
L 153.644043 185.392117 
L 153.644043 185.280281 
L 153.764655 185.280281 
L 153.824645 184.944771 
L 153.884426 184.944771 
L 153.944001 184.721099 
L 154.121495 184.721099 
L 154.180254 184.497426 
L 154.238814 184.497426 
L 154.238814 184.273753 
L 154.413305 184.273753 
L 154.471077 183.826407 
L 154.528656 183.826407 
L 154.528656 183.714571 
L 154.643238 183.714571 
L 154.700244 183.379061 
L 154.757061 183.379061 
L 154.813691 183.043552 
L 155.149609 183.043552 
L 155.149609 182.931715 
L 155.424612 182.931715 
L 155.479088 182.596206 
L 155.587526 182.596206 
L 155.695284 182.260697 
L 155.748911 182.260697 
L 155.855664 182.037024 
L 155.908794 182.037024 
L 155.908794 181.925187 
L 156.067204 181.925187 
L 156.119684 181.589678 
L 156.224167 181.589678 
L 156.328018 181.030496 
L 156.431246 181.030496 
L 156.533858 180.135804 
L 156.584935 180.135804 
L 156.63586 179.912131 
L 156.838067 179.912131 
L 156.888249 179.688458 
L 156.988177 179.688458 
L 156.988177 179.576622 
L 157.136986 179.576622 
L 157.136986 179.352949 
L 157.333416 179.352949 
L 157.333416 179.129276 
L 157.47928 179.129276 
L 157.575838 178.905603 
L 157.719667 178.905603 
L 157.719667 178.793767 
L 158.003764 178.793767 
L 158.050661 178.458257 
L 158.144071 178.458257 
L 158.236977 178.122748 
L 158.283242 178.122748 
L 158.283242 177.899075 
L 158.467067 177.899075 
L 158.467067 177.787239 
L 158.603658 177.787239 
L 158.603658 177.675402 
L 158.756721 177.675402 
L 158.756721 177.563566 
L 159.095402 177.563566 
L 159.139417 177.339893 
L 159.314355 177.339893 
L 159.401161 177.11622 
L 159.444401 177.11622 
L 159.530554 176.892547 
L 159.65898 176.892547 
L 159.744067 176.445201 
L 159.870914 176.445201 
L 159.954961 175.997856 
L 160.003969 175.997856 
L 160.003969 175.886019 
L 160.121832 175.886019 
L 160.121832 175.774183 
L 160.491473 175.774183 
L 160.491473 175.662346 
L 160.693445 175.662346 
L 160.773574 175.326837 
L 160.813499 175.326837 
L 160.813499 175.215 
L 161.05112 175.215 
L 161.05112 175.103164 
L 161.285501 175.103164 
L 161.362923 174.879491 
L 161.401504 174.879491 
L 161.478407 174.543982 
L 161.554967 174.543982 
L 161.593119 174.320309 
L 161.744888 174.320309 
L 161.782622 173.9848 
L 161.857842 173.9848 
L 161.857842 173.872963 
L 161.970058 173.872963 
L 162.044464 173.64929 
L 162.081546 173.64929 
L 162.081546 173.537454 
L 162.229081 173.537454 
L 162.338907 173.090108 
L 162.556477 173.090108 
L 162.592472 172.754599 
L 162.983524 172.754599 
L 163.053678 172.419089 
L 163.158376 172.419089 
L 163.262439 171.859907 
L 163.365877 171.859907 
L 163.400218 171.636234 
L 163.536901 171.636234 
L 163.570902 171.300725 
L 163.672506 171.300725 
L 163.773512 171.077052 
L 163.940547 171.077052 
L 164.006909 170.406033 
L 164.105975 170.406033 
L 164.204473 169.846851 
L 164.23718 169.846851 
L 164.334931 169.511342 
L 164.399791 169.511342 
L 164.399791 169.287669 
L 164.560878 169.287669 
L 164.624893 168.840323 
L 164.688669 168.840323 
L 164.752211 168.392977 
L 164.910043 168.392977 
L 165.004052 168.057468 
L 165.097549 168.057468 
L 165.097549 167.945631 
L 165.405584 167.945631 
L 165.466534 167.721958 
L 165.738166 167.721958 
L 165.827764 167.498286 
L 165.916898 167.498286 
L 166.005572 167.05094 
L 166.09379 167.05094 
L 166.181559 166.491757 
L 166.239823 166.491757 
L 166.32685 165.932575 
L 166.556793 165.932575 
L 166.642234 165.708902 
L 166.811853 165.708902 
L 166.811853 165.597066 
L 167.03544 165.597066 
L 167.11854 165.373393 
L 167.173718 165.373393 
L 167.256155 164.926047 
L 167.310894 164.926047 
L 167.419851 164.478701 
L 167.446983 164.478701 
L 167.446983 164.366865 
L 167.60888 164.366865 
L 167.715971 163.807683 
L 167.742639 163.807683 
L 167.822398 163.58401 
L 168.059478 163.58401 
L 168.111721 163.360337 
L 168.267504 163.360337 
L 168.370581 162.689318 
L 168.421889 162.689318 
L 168.524046 162.241972 
L 168.600268 162.241972 
L 168.600268 162.0183 
L 168.776816 162.0183 
L 168.876892 161.794627 
L 168.90182 161.794627 
L 169.001173 161.570954 
L 169.050635 161.570954 
L 169.124562 161.235444 
L 169.173671 161.235444 
L 169.247072 160.899935 
L 169.39294 160.899935 
L 169.39294 160.788099 
L 169.609448 160.788099 
L 169.704804 160.340753 
L 169.728561 160.340753 
L 169.775977 160.11708 
L 169.846855 160.11708 
L 169.846855 159.893407 
L 169.964341 159.893407 
L 170.057754 159.557898 
L 170.127483 159.557898 
L 170.220017 158.663206 
L 170.289091 158.663206 
L 170.380761 158.104024 
L 170.426413 158.104024 
L 170.471945 157.768515 
L 170.562647 157.768515 
L 170.652874 157.321169 
L 170.675356 157.321169 
L 170.720234 157.097496 
L 170.809639 157.097496 
L 170.831918 156.873823 
L 170.964988 156.873823 
L 171.075097 156.090968 
L 171.118945 156.090968 
L 171.118945 155.979131 
L 171.314885 155.979131 
L 171.422783 155.755458 
L 171.444281 155.755458 
L 171.530008 155.419949 
L 171.572711 155.419949 
L 171.594023 155.08444 
L 171.742472 155.08444 
L 171.847727 154.413421 
L 171.889649 154.413421 
L 171.994009 154.077912 
L 172.056323 154.077912 
L 172.159679 153.630566 
L 172.180276 153.630566 
L 172.262418 153.071384 
L 172.303342 153.071384 
L 172.384899 152.847711 
L 172.425533 152.847711 
L 172.5267 152.288529 
L 172.546862 152.288529 
L 172.627274 152.064856 
L 172.66734 152.064856 
L 172.767097 151.505673 
L 172.846488 151.505673 
L 172.925515 151.058328 
L 172.964892 151.058328 
L 173.062942 150.387309 
L 173.140981 150.387309 
L 173.218668 149.828127 
L 173.276704 149.828127 
L 173.353781 149.492617 
L 173.563978 149.492617 
L 173.601921 149.157108 
L 173.71525 149.157108 
L 173.771635 148.933435 
L 173.827836 148.933435 
L 173.865202 148.709762 
L 174.013857 148.709762 
L 174.124511 148.038744 
L 174.161238 148.038744 
L 174.27095 147.479561 
L 174.325545 147.479561 
L 174.416152 146.58487 
L 174.506285 146.58487 
L 174.578052 146.025687 
L 174.720693 146.025687 
L 174.826903 145.690178 
L 174.844541 145.690178 
L 174.914912 145.242832 
L 174.967502 145.242832 
L 175.054797 144.795487 
L 175.124314 144.795487 
L 175.228066 144.348141 
L 175.262512 144.348141 
L 175.348324 144.124468 
L 175.518675 144.124468 
L 175.62008 143.900795 
L 175.67056 143.900795 
L 175.771076 143.677122 
L 176.134687 143.677122 
L 176.232533 143.341613 
L 176.79246 143.341613 
L 176.870981 143.11794 
L 176.995873 143.11794 
L 177.104415 142.78243 
L 177.150724 142.78243 
L 177.258295 142.335085 
L 177.304191 142.335085 
L 177.349966 142.111412 
L 177.637073 142.111412 
L 177.637073 141.999575 
L 178.051625 141.999575 
L 178.051625 141.887739 
L 178.240749 141.887739 
L 178.341729 141.328557 
L 178.356107 141.328557 
L 178.356107 141.21672 
L 178.697607 141.21672 
L 178.767907 140.769374 
L 178.851889 140.769374 
L 178.851889 140.657538 
L 178.96323 140.657538 
L 179.073855 140.322029 
L 179.115157 140.322029 
L 179.183773 139.986519 
L 179.616546 139.986519 
L 179.616546 139.874683 
L 179.789294 139.874683 
L 179.789294 139.762846 
L 180.310192 139.762846 
L 180.310192 139.65101 
L 181.331088 139.65101 
L 181.427517 139.203664 
L 181.463538 139.203664 
L 181.547296 138.979991 
L 181.678097 138.979991 
L 181.737225 138.756318 
L 181.878306 138.756318 
L 181.878306 138.644482 
L 182.180068 138.644482 
L 182.180068 138.532645 
L 182.317575 138.532645 
L 182.385919 138.197136 
L 182.442665 138.197136 
L 182.442665 138.0853 
L 182.845798 138.0853 
L 182.901048 137.861627 
L 183.142062 137.861627 
L 183.228872 137.190608 
L 183.980685 137.190608 
L 183.980685 137.078772 
L 184.135397 137.078772 
L 184.217344 136.855099 
L 184.247974 136.855099 
L 184.247974 136.743262 
L 184.800057 136.743262 
L 184.819803 136.519589 
L 185.296613 136.519589 
L 185.296613 136.407753 
L 185.638682 136.407753 
L 185.695037 136.18408 
L 186.357273 136.18408 
L 186.357273 136.072244 
L 187.047024 136.072244 
L 187.047024 135.960407 
L 187.917403 135.960407 
L 187.950331 135.736734 
L 188.032376 135.736734 
L 188.032376 135.624898 
L 188.698647 135.624898 
L 188.698647 135.513061 
L 189.049364 135.513061 
L 189.049364 135.401225 
L 189.195323 135.401225 
L 189.241159 135.065716 
L 189.588564 135.065716 
L 189.588564 134.953879 
L 190.028201 134.953879 
L 190.028201 134.842043 
L 190.59054 134.842043 
L 190.59054 134.730206 
L 191.022364 134.730206 
L 191.022364 134.61837 
L 191.563991 134.61837 
L 191.563991 134.506533 
L 192.127813 134.506533 
L 192.211455 133.835515 
L 192.586029 133.835515 
L 192.642457 133.500005 
L 193.16037 133.500005 
L 193.16037 133.388169 
L 194.864739 133.388169 
L 194.864739 133.276332 
L 196.52047 133.276332 
L 196.60518 132.493477 
L 197.239514 132.493477 
L 197.311223 132.046131 
L 197.373361 132.046131 
L 197.373361 131.934295 
L 197.865133 131.934295 
L 197.865133 131.822459 
L 198.003158 131.822459 
L 198.103676 131.039603 
L 198.126439 131.039603 
L 198.180948 130.592258 
L 198.307468 130.592258 
L 198.397272 129.809402 
L 198.887334 129.809402 
L 198.904735 129.58573 
L 199.092483 129.58573 
L 199.202174 128.355529 
L 199.20676 128.355529 
L 199.207594 128.131856 
L 199.636816 128.131856 
L 199.636816 127.908183 
L 200.153988 127.908183 
L 200.162073 127.68451 
L 200.585222 127.68451 
L 200.667831 127.460837 
L 200.847408 127.460837 
L 200.847408 127.349001 
L 201.920041 127.349001 
L 201.920041 127.237164 
L 202.511757 127.237164 
L 202.511757 127.125328 
L 203.850657 127.125328 
L 203.850657 127.013491 
L 204.288523 127.013491 
L 204.288523 126.901655 
L 204.500204 126.901655 
L 204.500204 126.789818 
L 205.01675 126.789818 
L 205.01675 126.677982 
L 205.464872 126.677982 
L 205.500459 126.342473 
L 205.630318 126.342473 
L 205.633258 126.006963 
L 206.54913 126.006963 
L 206.565845 125.559617 
L 206.937697 125.559617 
L 206.94587 125.335945 
L 207.189262 125.335945 
L 207.221455 124.776762 
L 208.975536 124.776762 
L 208.975536 124.553089 
L 209.383917 124.553089 
L 209.448186 124.329417 
L 210.008757 124.329417 
L 210.086071 124.105744 
L 210.124598 124.105744 
L 210.124598 123.993907 
L 210.827628 123.993907 
L 210.829801 123.658398 
L 211.718954 123.658398 
L 211.718954 123.546561 
L 212.287156 123.546561 
L 212.287156 123.434725 
L 213.854303 123.434725 
L 213.88889 122.875543 
L 216.259862 122.875543 
L 216.269365 122.65187 
L 217.885143 122.65187 
L 217.905309 122.31636 
L 219.28246 122.31636 
L 219.28246 122.204524 
L 219.610173 122.204524 
L 219.610173 122.092688 
L 219.794301 122.092688 
L 219.800749 121.757178 
L 220.272535 121.757178 
L 220.272535 121.645342 
L 220.801191 121.645342 
L 220.801191 121.533505 
L 220.967031 121.533505 
L 220.999527 121.197996 
L 221.762702 121.197996 
L 221.762702 121.08616 
L 221.996891 121.08616 
L 221.996891 120.974323 
L 222.545159 120.974323 
L 222.545159 120.862487 
L 222.884677 120.862487 
L 222.933097 120.079632 
L 223.015634 120.079632 
L 223.015634 119.967795 
L 223.203873 119.967795 
L 223.203873 119.855959 
L 223.856611 119.855959 
L 223.85763 119.632286 
L 224.812193 119.632286 
L 224.911119 119.408613 
L 224.939825 119.408613 
L 224.939825 119.296776 
L 225.901943 119.296776 
L 225.901943 119.18494 
L 226.425468 119.18494 
L 226.425468 119.073103 
L 227.550627 119.073103 
L 227.58427 118.066575 
L 227.741759 118.066575 
L 227.744196 117.61923 
L 228.006142 117.61923 
L 228.084352 117.395557 
L 228.161416 117.395557 
L 228.162208 117.060047 
L 228.523828 117.060047 
L 228.523828 116.948211 
L 228.93864 116.948211 
L 228.93864 116.836375 
L 229.345193 116.836375 
L 229.345193 116.724538 
L 229.464646 116.724538 
L 229.464646 116.612702 
L 229.601509 116.612702 
L 229.601509 116.500865 
L 229.873443 116.500865 
L 229.873443 116.389029 
L 230.36852 116.389029 
L 230.370612 116.165356 
L 230.979407 116.165356 
L 230.980752 115.941683 
L 231.432254 115.941683 
L 231.432254 115.829846 
L 231.970289 115.829846 
L 232.004552 115.382501 
L 232.082342 115.382501 
L 232.082342 115.270664 
L 232.238123 115.270664 
L 232.259995 115.046991 
L 232.419133 115.046991 
L 232.487679 114.823318 
L 232.535683 114.823318 
L 232.546128 114.599646 
L 232.6856 114.599646 
L 232.6856 114.487809 
L 234.039993 114.487809 
L 234.054215 114.264136 
L 234.357436 114.264136 
L 234.357436 114.1523 
L 234.971526 114.1523 
L 235.050285 113.81679 
L 235.223031 113.81679 
L 235.223031 113.704954 
L 236.167006 113.704954 
L 236.270124 113.369445 
L 236.730284 113.369445 
L 236.805235 113.145772 
L 236.865534 113.145772 
L 236.922766 112.474753 
L 237.543726 112.474753 
L 237.568049 112.027407 
L 237.735989 112.027407 
L 237.735989 111.915571 
L 237.946784 111.915571 
L 237.993364 111.356389 
L 238.235036 111.356389 
L 238.280414 111.132716 
L 238.376329 111.132716 
L 238.382624 110.909043 
L 238.665449 110.909043 
L 238.665449 110.797206 
L 238.778657 110.797206 
L 238.841371 110.573533 
L 239.401115 110.573533 
L 239.401115 110.461697 
L 239.597009 110.461697 
L 239.679946 110.238024 
L 240.023658 110.238024 
L 240.091899 109.790678 
L 240.398013 109.790678 
L 240.398013 109.678842 
L 240.912254 109.678842 
L 240.912254 109.567005 
L 241.051745 109.567005 
L 241.053242 109.231496 
L 241.670688 109.231496 
L 241.754349 108.224968 
L 242.458247 108.224968 
L 242.539518 107.665786 
L 243.128867 107.665786 
L 243.128867 107.553949 
L 243.301877 107.553949 
L 243.304505 107.21844 
L 244.177673 107.21844 
L 244.177673 107.106604 
L 244.433715 107.106604 
L 244.433715 106.994767 
L 245.101476 106.994767 
L 245.139009 106.771094 
L 245.298276 106.771094 
L 245.298276 106.659258 
L 245.620776 106.659258 
L 245.620776 106.547421 
L 245.958178 106.547421 
L 245.958178 106.435585 
L 246.885771 106.435585 
L 246.885771 106.323748 
L 247.840443 106.323748 
L 247.840443 106.211912 
L 248.249036 106.211912 
L 248.249036 106.100075 
L 248.704852 106.100075 
L 248.790525 105.876403 
L 249.220051 105.876403 
L 249.220051 105.764566 
L 249.332601 105.764566 
L 249.420272 105.093547 
L 249.517112 105.093547 
L 249.517112 104.981711 
L 249.804402 104.981711 
L 249.823333 104.758038 
L 249.935102 104.758038 
L 249.935102 104.646202 
L 250.206551 104.646202 
L 250.206551 104.534365 
L 250.320946 104.534365 
L 250.320946 104.422529 
L 251.116334 104.422529 
L 251.116334 104.310692 
L 251.671685 104.310692 
L 251.671685 104.198856 
L 251.956578 104.198856 
L 251.956578 104.087019 
L 253.037738 104.087019 
L 253.037738 103.975183 
L 253.575179 103.975183 
L 253.575179 103.863347 
L 253.77693 103.863347 
L 253.77693 103.75151 
L 254.117174 103.75151 
L 254.117174 103.639674 
L 254.868847 103.639674 
L 254.868847 103.527837 
L 255.884468 103.527837 
L 255.884468 103.416001 
L 256.100036 103.416001 
L 256.179114 103.080491 
L 256.244684 103.080491 
L 256.305535 102.744982 
L 256.40944 102.744982 
L 256.483933 102.297636 
L 256.535821 102.297636 
L 256.637325 101.962127 
L 256.698009 101.962127 
L 256.698009 101.85029 
L 256.833554 101.85029 
L 256.889582 101.402945 
L 258.365606 101.402945 
L 258.365606 101.291108 
L 258.600988 101.291108 
L 258.600988 101.179272 
L 258.718486 101.179272 
L 258.822939 100.843762 
L 258.856863 100.843762 
L 258.89576 100.62009 
L 259.027723 100.62009 
L 259.091164 100.28458 
L 259.185301 100.28458 
L 259.242836 100.060907 
L 259.302122 100.060907 
L 259.302122 99.949071 
L 259.490424 99.949071 
L 259.515257 99.725398 
L 259.665151 99.725398 
L 259.665151 99.613561 
L 259.998921 99.613561 
L 260.016696 99.389889 
L 261.016788 99.389889 
L 261.077747 99.166216 
L 261.225324 99.166216 
L 261.284575 98.942543 
L 261.450343 98.942543 
L 261.460874 98.71887 
L 261.565845 98.71887 
L 261.565845 98.607033 
L 261.720456 98.607033 
L 261.748669 98.383361 
L 263.239661 98.383361 
L 263.239661 98.271524 
L 263.357413 98.271524 
L 263.357413 98.159688 
L 263.7985 98.159688 
L 263.7985 98.047851 
L 265.135591 98.047851 
L 265.181831 97.824178 
L 265.254455 97.824178 
L 265.254455 97.712342 
L 265.47343 97.712342 
L 265.47343 97.600505 
L 265.70903 97.600505 
L 265.70903 97.488669 
L 266.305365 97.488669 
L 266.305365 97.376833 
L 266.68038 97.376833 
L 266.68038 97.264996 
L 267.435719 97.264996 
L 267.435719 97.15316 
L 267.896395 97.15316 
L 267.896395 97.041323 
L 268.212537 97.041323 
L 268.212537 96.929487 
L 268.449819 96.929487 
L 268.449819 96.81765 
L 268.977098 96.81765 
L 269.003632 96.593977 
L 269.743414 96.593977 
L 269.743414 96.482141 
L 270.723215 96.482141 
L 270.830948 96.146632 
L 271.008363 96.146632 
L 271.008363 96.034795 
L 272.05954 96.034795 
L 272.05954 95.922959 
L 273.132799 95.922959 
L 273.197317 95.587449 
L 273.320879 95.587449 
L 273.320879 95.475613 
L 273.597363 95.475613 
L 273.707452 95.25194 
L 274.239959 95.25194 
L 274.239959 95.140104 
L 274.49761 95.140104 
L 274.49761 95.028267 
L 274.890536 95.028267 
L 274.890536 94.916431 
L 275.128942 94.916431 
L 275.128942 94.804594 
L 276.139543 94.804594 
L 276.139543 94.692758 
L 276.53985 94.692758 
L 276.53985 94.580921 
L 276.985108 94.580921 
L 277.085591 94.357248 
L 277.966366 94.357248 
L 277.966366 94.245412 
L 278.468041 94.245412 
L 278.468041 94.133576 
L 278.698747 94.133576 
L 278.698747 94.021739 
L 278.825058 94.021739 
L 278.825058 93.909903 
L 279.710874 93.909903 
L 279.710874 93.798066 
L 280.75029 93.798066 
L 280.75029 93.68623 
L 282.484875 93.68623 
L 282.516076 93.462557 
L 282.933097 93.462557 
L 282.933097 93.35072 
L 283.916543 93.35072 
L 283.916543 93.238884 
L 284.041506 93.238884 
L 284.041506 93.127047 
L 285.046517 93.127047 
L 285.050553 92.903375 
L 287.574355 92.903375 
L 287.574355 92.791538 
L 288.077579 92.791538 
L 288.077579 92.679702 
L 288.226325 92.679702 
L 288.226325 92.567865 
L 288.539805 92.567865 
L 288.539805 92.456029 
L 289.405284 92.456029 
L 289.405284 92.344192 
L 291.347136 92.344192 
L 291.347136 92.232356 
L 293.705696 92.232356 
L 293.705696 92.120519 
L 294.807148 92.120519 
L 294.807148 92.008683 
L 295.712703 92.008683 
L 295.712703 91.896847 
L 296.960764 91.896847 
L 296.960764 91.78501 
L 300.028671 91.78501 
L 300.028671 91.673174 
L 304.931404 91.673174 
L 304.931404 91.561337 
L 308.741215 91.561337 
L 308.741215 91.449501 
L 309.384736 91.449501 
L 309.384736 91.337664 
L 333.168 91.337664 
L 333.168 91.337664 
" style="fill:none;stroke:#000080;stroke-linecap:square;stroke-width:1.5;"/>
   </g>
   <g id="line2d_44">
    <defs>
     <path d="M 0 6 
C 1.591219 6 3.117479 5.367802 4.242641 4.242641 
C 5.367802 3.117479 6 1.591219 6 0 
C 6 -1.591219 5.367802 -3.117479 4.242641 -4.242641 
C 3.117479 -5.367802 1.591219 -6 0 -6 
C -1.591219 -6 -3.117479 -5.367802 -4.242641 -4.242641 
C -5.367802 -3.117479 -6 -1.591219 -6 0 
C -6 1.591219 -5.367802 3.117479 -4.242641 4.242641 
C -3.117479 5.367802 -1.591219 6 0 6 
z
" id="m22a66116d2" style="stroke:#000080;stroke-width:1.5;"/>
    </defs>
    <g>
     <use style="fill:none;stroke:#000080;stroke-width:1.5;" x="94.358234" xlink:href="#m22a66116d2" y="290.182869"/>
     <use style="fill:none;stroke:#000080;stroke-width:1.5;" x="142.090564" xlink:href="#m22a66116d2" y="218.607542"/>
     <use style="fill:none;stroke:#000080;stroke-width:1.5;" x="216.269365" xlink:href="#m22a66116d2" y="122.65187"/>
     <use style="fill:none;stroke:#000080;stroke-width:1.5;" x="273.197317" xlink:href="#m22a66116d2" y="95.699286"/>
     <use style="fill:none;stroke:#000080;stroke-width:1.5;" x="309.384736" xlink:href="#m22a66116d2" y="91.337664"/>
     <use style="fill:none;stroke:#000080;stroke-width:1.5;" x="333.168" xlink:href="#m22a66116d2" y="91.337664"/>
    </g>
   </g>
   <g id="line2d_45">
    <path style="fill:none;stroke:#000080;stroke-linecap:square;stroke-width:1.5;"/>
    <g/>
   </g>
   <g id="line2d_46">
    <path clip-path="url(#p3c778fe556)" d="M 231.97948 115.606174 
" style="fill:none;stroke:#000080;stroke-linecap:square;stroke-width:1.5;"/>
    <defs>
     <path d="M -12 12 
L 12 -12 
M -12 -12 
L 12 12 
" id="m07def3c246" style="stroke:#000080;"/>
    </defs>
    <g clip-path="url(#p3c778fe556)">
     <use style="fill:#000080;stroke:#000080;" x="231.97948" xlink:href="#m07def3c246" y="115.606174"/>
    </g>
   </g>
   <g id="line2d_47">
    <defs>
     <path d="M 0 1.5 
C 0.397805 1.5 0.77937 1.341951 1.06066 1.06066 
C 1.341951 0.77937 1.5 0.397805 1.5 0 
C 1.5 -0.397805 1.341951 -0.77937 1.06066 -1.06066 
C 0.77937 -1.341951 0.397805 -1.5 0 -1.5 
C -0.397805 -1.5 -0.77937 -1.341951 -1.06066 -1.06066 
C -1.341951 -0.77937 -1.5 -0.397805 -1.5 0 
C -1.5 0.397805 -1.341951 0.77937 -1.06066 1.06066 
C -0.77937 1.341951 -0.397805 1.5 0 1.5 
z
" id="m8986b4dec9" style="stroke:#ff00ff;"/>
    </defs>
    <g>
     <use style="fill:#ff00ff;stroke:#ff00ff;" x="174.514615" xlink:href="#m8986b4dec9" y="290.406542"/>
     <use style="fill:#ff00ff;stroke:#ff00ff;" x="174.514615" xlink:href="#m8986b4dec9" y="290.406542"/>
    </g>
   </g>
   <g id="line2d_48">
    <path d="M -1 293.873472 
L 114.624845 293.873472 
L 114.624845 293.761636 
L 115.58349 293.761636 
L 115.58349 293.649799 
L 115.744887 293.649799 
L 115.744887 293.537963 
L 116.542676 293.537963 
L 116.542676 293.426126 
L 117.219284 293.426126 
L 117.219284 293.31429 
L 117.691895 293.31429 
L 117.691895 293.202453 
L 117.799138 293.202453 
L 117.799138 293.090617 
L 118.53167 293.090617 
L 118.53167 292.97878 
L 118.958878 292.97878 
L 118.958878 292.866944 
L 119.256095 292.866944 
L 119.256095 292.755107 
L 119.750921 292.755107 
L 119.750921 292.643271 
L 120.45726 292.643271 
L 120.45726 292.531435 
L 121.627542 292.531435 
L 121.627542 292.419598 
L 127.858776 292.419598 
L 127.858776 292.307762 
L 129.931755 292.307762 
L 129.931755 292.195925 
L 130.013661 292.195925 
L 130.013661 292.084089 
L 130.048645 292.084089 
L 130.048645 291.972252 
L 131.424917 291.972252 
L 131.424917 291.860416 
L 132.951858 291.860416 
L 132.951858 291.748579 
L 133.931873 291.748579 
L 133.931873 291.636743 
L 138.80339 291.636743 
L 138.80339 291.524907 
L 140.055191 291.524907 
L 140.055191 291.41307 
L 141.95707 291.41307 
L 141.95707 291.301234 
L 146.37913 291.301234 
L 146.37913 291.189397 
L 152.587868 291.189397 
L 152.587868 291.077561 
L 156.686635 291.077561 
L 156.686635 290.965724 
L 156.687872 290.965724 
L 156.687872 290.853888 
L 161.691367 290.853888 
L 161.691367 290.742051 
L 162.236246 290.742051 
L 162.236246 290.630215 
L 164.501334 290.630215 
L 164.501334 290.518379 
L 174.514615 290.518379 
L 174.514615 290.406542 
L 333.168 290.406542 
" style="fill:none;stroke:#ff00ff;stroke-linecap:square;stroke-width:1.5;"/>
   </g>
   <g id="line2d_49">
    <defs>
     <path d="M -0 8.485281 
L 5.091169 0 
L 0 -8.485281 
L -5.091169 -0 
z
" id="m4ccb357f2b" style="stroke:#ff00ff;stroke-linejoin:miter;stroke-width:1.5;"/>
    </defs>
    <g>
     <use style="fill:none;stroke:#ff00ff;stroke-linejoin:miter;stroke-width:1.5;" x="162.236246" xlink:href="#m4ccb357f2b" y="290.630215"/>
     <use style="fill:none;stroke:#ff00ff;stroke-linejoin:miter;stroke-width:1.5;" x="174.514615" xlink:href="#m4ccb357f2b" y="290.518379"/>
     <use style="fill:none;stroke:#ff00ff;stroke-linejoin:miter;stroke-width:1.5;" x="174.514615" xlink:href="#m4ccb357f2b" y="290.406542"/>
     <use style="fill:none;stroke:#ff00ff;stroke-linejoin:miter;stroke-width:1.5;" x="174.514615" xlink:href="#m4ccb357f2b" y="290.406542"/>
     <use style="fill:none;stroke:#ff00ff;stroke-linejoin:miter;stroke-width:1.5;" x="333.168" xlink:href="#m4ccb357f2b" y="290.406542"/>
    </g>
   </g>
   <g id="line2d_50">
    <path style="fill:none;stroke:#ff00ff;stroke-linecap:square;stroke-width:1.5;"/>
    <g/>
   </g>
   <g id="line2d_51">
    <path clip-path="url(#p3c778fe556)" d="M 147.190823 291.189397 
" style="fill:none;stroke:#ff00ff;stroke-linecap:square;stroke-width:1.5;"/>
    <defs>
     <path d="M -12 12 
L 12 -12 
M -12 -12 
L 12 12 
" id="m3f84d7cfdd" style="stroke:#ff00ff;"/>
    </defs>
    <g clip-path="url(#p3c778fe556)">
     <use style="fill:#ff00ff;stroke:#ff00ff;" x="147.190823" xlink:href="#m3f84d7cfdd" y="291.189397"/>
    </g>
   </g>
   <g id="line2d_52">
    <path d="M 333.168 290.406542 
L 363.64328 289.176341 
" style="fill:none;stroke:#ff00ff;stroke-linecap:square;stroke-width:1.5;"/>
    <g>
     <use style="fill:none;stroke:#ff00ff;stroke-linejoin:miter;stroke-width:1.5;" x="333.168" xlink:href="#m4ccb357f2b" y="290.406542"/>
     <use style="fill:none;stroke:#ff00ff;stroke-linejoin:miter;stroke-width:1.5;" x="363.64328" xlink:href="#m4ccb357f2b" y="289.176341"/>
    </g>
   </g>
   <g id="line2d_53">
    <path d="M 333.168 91.337664 
L 363.64328 152.288529 
" style="fill:none;stroke:#000080;stroke-linecap:square;stroke-width:1.5;"/>
    <g>
     <use style="fill:none;stroke:#000080;stroke-width:1.5;" x="333.168" xlink:href="#m22a66116d2" y="91.337664"/>
     <use style="fill:none;stroke:#000080;stroke-width:1.5;" x="363.64328" xlink:href="#m22a66116d2" y="152.288529"/>
    </g>
   </g>
   <g id="line2d_54">
    <path d="M 333.168 294.88 
L 333.168 9.697057 
" style="fill:none;stroke:#000000;stroke-linecap:square;stroke-width:1.5;"/>
   </g>
   <g id="patch_3">
    <path d="M 56.12 294.88 
L 56.12 6.845228 
" style="fill:none;stroke:#000000;stroke-linecap:square;stroke-linejoin:miter;stroke-width:0.8;"/>
   </g>
   <g id="patch_4">
    <path d="M 333.168 294.88 
L 333.168 6.845228 
" style="fill:none;stroke:#000000;stroke-linecap:square;stroke-linejoin:miter;stroke-width:0.8;"/>
   </g>
   <g id="patch_5">
    <path d="M 56.12 294.88 
L 333.168 294.88 
" style="fill:none;stroke:#000000;stroke-linecap:square;stroke-linejoin:miter;stroke-width:0.8;"/>
   </g>
   <g id="patch_6">
    <path d="M 56.12 6.845228 
L 333.168 6.845228 
" style="fill:none;stroke:#000000;stroke-linecap:square;stroke-linejoin:miter;stroke-width:0.8;"/>
   </g>
   <g id="text_13">
    <!-- scipy-opt -->
    <defs>
     <path d="M 32.171875 -5.078125 
Q 28.375 -14.84375 24.75 -17.8125 
Q 21.140625 -20.796875 15.09375 -20.796875 
L 7.90625 -20.796875 
L 7.90625 -13.28125 
L 13.1875 -13.28125 
Q 16.890625 -13.28125 18.9375 -11.515625 
Q 21 -9.765625 23.484375 -3.21875 
L 25.09375 0.875 
L 2.984375 54.6875 
L 12.5 54.6875 
L 29.59375 11.921875 
L 46.6875 54.6875 
L 56.203125 54.6875 
z
" id="DejaVuSans-79"/>
    </defs>
    <g transform="translate(369.18424 293.867279)scale(0.17 -0.17)">
     <use xlink:href="#DejaVuSans-73"/>
     <use x="52.099609" xlink:href="#DejaVuSans-63"/>
     <use x="107.080078" xlink:href="#DejaVuSans-69"/>
     <use x="134.863281" xlink:href="#DejaVuSans-70"/>
     <use x="198.339844" xlink:href="#DejaVuSans-79"/>
     <use x="257.503906" xlink:href="#DejaVuSans-2d"/>
     <use x="293.603516" xlink:href="#DejaVuSans-6f"/>
     <use x="354.785156" xlink:href="#DejaVuSans-70"/>
     <use x="418.261719" xlink:href="#DejaVuSans-74"/>
    </g>
   </g>
   <g id="text_14">
    <!-- BFGS ros  -->
    <defs>
     <path d="M 19.671875 34.8125 
L 19.671875 8.109375 
L 35.5 8.109375 
Q 43.453125 8.109375 47.28125 11.40625 
Q 51.125 14.703125 51.125 21.484375 
Q 51.125 28.328125 47.28125 31.5625 
Q 43.453125 34.8125 35.5 34.8125 
z
M 19.671875 64.796875 
L 19.671875 42.828125 
L 34.28125 42.828125 
Q 41.5 42.828125 45.03125 45.53125 
Q 48.578125 48.25 48.578125 53.8125 
Q 48.578125 59.328125 45.03125 62.0625 
Q 41.5 64.796875 34.28125 64.796875 
z
M 9.8125 72.90625 
L 35.015625 72.90625 
Q 46.296875 72.90625 52.390625 68.21875 
Q 58.5 63.53125 58.5 54.890625 
Q 58.5 48.1875 55.375 44.234375 
Q 52.25 40.28125 46.1875 39.3125 
Q 53.46875 37.75 57.5 32.78125 
Q 61.53125 27.828125 61.53125 20.40625 
Q 61.53125 10.640625 54.890625 5.3125 
Q 48.25 0 35.984375 0 
L 9.8125 0 
z
" id="DejaVuSans-42"/>
     <path d="M 59.515625 10.40625 
L 59.515625 29.984375 
L 43.40625 29.984375 
L 43.40625 38.09375 
L 69.28125 38.09375 
L 69.28125 6.78125 
Q 63.578125 2.734375 56.6875 0.65625 
Q 49.8125 -1.421875 42 -1.421875 
Q 24.90625 -1.421875 15.25 8.5625 
Q 5.609375 18.5625 5.609375 36.375 
Q 5.609375 54.25 15.25 64.234375 
Q 24.90625 74.21875 42 74.21875 
Q 49.125 74.21875 55.546875 72.453125 
Q 61.96875 70.703125 67.390625 67.28125 
L 67.390625 56.78125 
Q 61.921875 61.421875 55.765625 63.765625 
Q 49.609375 66.109375 42.828125 66.109375 
Q 29.4375 66.109375 22.71875 58.640625 
Q 16.015625 51.171875 16.015625 36.375 
Q 16.015625 21.625 22.71875 14.15625 
Q 29.4375 6.6875 42.828125 6.6875 
Q 48.046875 6.6875 52.140625 7.59375 
Q 56.25 8.5 59.515625 10.40625 
z
" id="DejaVuSans-47"/>
     <path d="M 53.515625 70.515625 
L 53.515625 60.890625 
Q 47.90625 63.578125 42.921875 64.890625 
Q 37.9375 66.21875 33.296875 66.21875 
Q 25.25 66.21875 20.875 63.09375 
Q 16.5 59.96875 16.5 54.203125 
Q 16.5 49.359375 19.40625 46.890625 
Q 22.3125 44.4375 30.421875 42.921875 
L 36.375 41.703125 
Q 47.40625 39.59375 52.65625 34.296875 
Q 57.90625 29 57.90625 20.125 
Q 57.90625 9.515625 50.796875 4.046875 
Q 43.703125 -1.421875 29.984375 -1.421875 
Q 24.8125 -1.421875 18.96875 -0.25 
Q 13.140625 0.921875 6.890625 3.21875 
L 6.890625 13.375 
Q 12.890625 10.015625 18.65625 8.296875 
Q 24.421875 6.59375 29.984375 6.59375 
Q 38.421875 6.59375 43.015625 9.90625 
Q 47.609375 13.234375 47.609375 19.390625 
Q 47.609375 24.75 44.3125 27.78125 
Q 41.015625 30.8125 33.5 32.328125 
L 27.484375 33.5 
Q 16.453125 35.6875 11.515625 40.375 
Q 6.59375 45.0625 6.59375 53.421875 
Q 6.59375 63.09375 13.40625 68.65625 
Q 20.21875 74.21875 32.171875 74.21875 
Q 37.3125 74.21875 42.625 73.28125 
Q 47.953125 72.359375 53.515625 70.515625 
z
" id="DejaVuSans-53"/>
    </defs>
    <g transform="translate(369.18424 156.979466)scale(0.17 -0.17)">
     <use xlink:href="#DejaVuSans-42"/>
     <use x="68.603516" xlink:href="#DejaVuSans-46"/>
     <use x="126.123047" xlink:href="#DejaVuSans-47"/>
     <use x="203.613281" xlink:href="#DejaVuSans-53"/>
     <use x="267.089844" xlink:href="#DejaVuSans-20"/>
     <use x="298.876953" xlink:href="#DejaVuSans-72"/>
     <use x="339.958984" xlink:href="#DejaVuSans-6f"/>
     <use x="401.140625" xlink:href="#DejaVuSans-73"/>
     <use x="453.240234" xlink:href="#DejaVuSans-20"/>
    </g>
   </g>
   <g id="text_15">
    <!-- best 2009 -->
    <defs>
     <path d="M 48.6875 27.296875 
Q 48.6875 37.203125 44.609375 42.84375 
Q 40.53125 48.484375 33.40625 48.484375 
Q 26.265625 48.484375 22.1875 42.84375 
Q 18.109375 37.203125 18.109375 27.296875 
Q 18.109375 17.390625 22.1875 11.75 
Q 26.265625 6.109375 33.40625 6.109375 
Q 40.53125 6.109375 44.609375 11.75 
Q 48.6875 17.390625 48.6875 27.296875 
z
M 18.109375 46.390625 
Q 20.953125 51.265625 25.265625 53.625 
Q 29.59375 56 35.59375 56 
Q 45.5625 56 51.78125 48.09375 
Q 58.015625 40.1875 58.015625 27.296875 
Q 58.015625 14.40625 51.78125 6.484375 
Q 45.5625 -1.421875 35.59375 -1.421875 
Q 29.59375 -1.421875 25.265625 0.953125 
Q 20.953125 3.328125 18.109375 8.203125 
L 18.109375 0 
L 9.078125 0 
L 9.078125 75.984375 
L 18.109375 75.984375 
z
" id="DejaVuSans-62"/>
     <path d="M 10.984375 1.515625 
L 10.984375 10.5 
Q 14.703125 8.734375 18.5 7.8125 
Q 22.3125 6.890625 25.984375 6.890625 
Q 35.75 6.890625 40.890625 13.453125 
Q 46.046875 20.015625 46.78125 33.40625 
Q 43.953125 29.203125 39.59375 26.953125 
Q 35.25 24.703125 29.984375 24.703125 
Q 19.046875 24.703125 12.671875 31.3125 
Q 6.296875 37.9375 6.296875 49.421875 
Q 6.296875 60.640625 12.9375 67.421875 
Q 19.578125 74.21875 30.609375 74.21875 
Q 43.265625 74.21875 49.921875 64.515625 
Q 56.59375 54.828125 56.59375 36.375 
Q 56.59375 19.140625 48.40625 8.859375 
Q 40.234375 -1.421875 26.421875 -1.421875 
Q 22.703125 -1.421875 18.890625 -0.6875 
Q 15.09375 0.046875 10.984375 1.515625 
z
M 30.609375 32.421875 
Q 37.25 32.421875 41.125 36.953125 
Q 45.015625 41.5 45.015625 49.421875 
Q 45.015625 57.28125 41.125 61.84375 
Q 37.25 66.40625 30.609375 66.40625 
Q 23.96875 66.40625 20.09375 61.84375 
Q 16.21875 57.28125 16.21875 49.421875 
Q 16.21875 41.5 20.09375 36.953125 
Q 23.96875 32.421875 30.609375 32.421875 
z
" id="DejaVuSans-39"/>
    </defs>
    <g transform="translate(369.18424 20.091654)scale(0.17 -0.17)">
     <use xlink:href="#DejaVuSans-62"/>
     <use x="63.476562" xlink:href="#DejaVuSans-65"/>
     <use x="125" xlink:href="#DejaVuSans-73"/>
     <use x="177.099609" xlink:href="#DejaVuSans-74"/>
     <use x="216.308594" xlink:href="#DejaVuSans-20"/>
     <use x="248.095703" xlink:href="#DejaVuSans-32"/>
     <use x="311.71875" xlink:href="#DejaVuSans-30"/>
     <use x="375.341797" xlink:href="#DejaVuSans-30"/>
     <use x="438.964844" xlink:href="#DejaVuSans-39"/>
    </g>
   </g>
   <g id="text_16">
    <!-- bbob f10-f14, 40-D -->
    <defs>
     <path d="M 19.671875 64.796875 
L 19.671875 8.109375 
L 31.59375 8.109375 
Q 46.6875 8.109375 53.6875 14.9375 
Q 60.6875 21.78125 60.6875 36.53125 
Q 60.6875 51.171875 53.6875 57.984375 
Q 46.6875 64.796875 31.59375 64.796875 
z
M 9.8125 72.90625 
L 30.078125 72.90625 
Q 51.265625 72.90625 61.171875 64.09375 
Q 71.09375 55.28125 71.09375 36.53125 
Q 71.09375 17.671875 61.125 8.828125 
Q 51.171875 0 30.078125 0 
L 9.8125 0 
z
" id="DejaVuSans-44"/>
    </defs>
    <g transform="translate(58.89048 17.475982)scale(0.102 -0.102)">
     <use xlink:href="#DejaVuSans-62"/>
     <use x="63.476562" xlink:href="#DejaVuSans-62"/>
     <use x="126.953125" xlink:href="#DejaVuSans-6f"/>
     <use x="188.134766" xlink:href="#DejaVuSans-62"/>
     <use x="251.611328" xlink:href="#DejaVuSans-20"/>
     <use x="283.398438" xlink:href="#DejaVuSans-66"/>
     <use x="318.603516" xlink:href="#DejaVuSans-31"/>
     <use x="382.226562" xlink:href="#DejaVuSans-30"/>
     <use x="445.849609" xlink:href="#DejaVuSans-2d"/>
     <use x="481.933594" xlink:href="#DejaVuSans-66"/>
     <use x="517.138672" xlink:href="#DejaVuSans-31"/>
     <use x="580.761719" xlink:href="#DejaVuSans-34"/>
     <use x="644.384766" xlink:href="#DejaVuSans-2c"/>
     <use x="676.171875" xlink:href="#DejaVuSans-20"/>
     <use x="707.958984" xlink:href="#DejaVuSans-34"/>
     <use x="771.582031" xlink:href="#DejaVuSans-30"/>
     <use x="835.205078" xlink:href="#DejaVuSans-2d"/>
     <use x="871.289062" xlink:href="#DejaVuSans-44"/>
    </g>
    <!-- 51 targets: 100..1e-08 -->
    <defs>
     <path d="M 10.796875 72.90625 
L 49.515625 72.90625 
L 49.515625 64.59375 
L 19.828125 64.59375 
L 19.828125 46.734375 
Q 21.96875 47.46875 24.109375 47.828125 
Q 26.265625 48.1875 28.421875 48.1875 
Q 40.625 48.1875 47.75 41.5 
Q 54.890625 34.8125 54.890625 23.390625 
Q 54.890625 11.625 47.5625 5.09375 
Q 40.234375 -1.421875 26.90625 -1.421875 
Q 22.3125 -1.421875 17.546875 -0.640625 
Q 12.796875 0.140625 7.71875 1.703125 
L 7.71875 11.625 
Q 12.109375 9.234375 16.796875 8.0625 
Q 21.484375 6.890625 26.703125 6.890625 
Q 35.15625 6.890625 40.078125 11.328125 
Q 45.015625 15.765625 45.015625 23.390625 
Q 45.015625 31 40.078125 35.4375 
Q 35.15625 39.890625 26.703125 39.890625 
Q 22.75 39.890625 18.8125 39.015625 
Q 14.890625 38.140625 10.796875 36.28125 
z
" id="DejaVuSans-35"/>
     <path d="M 11.71875 12.40625 
L 22.015625 12.40625 
L 22.015625 0 
L 11.71875 0 
z
M 11.71875 51.703125 
L 22.015625 51.703125 
L 22.015625 39.3125 
L 11.71875 39.3125 
z
" id="DejaVuSans-3a"/>
    </defs>
    <g transform="translate(58.89048 28.89775)scale(0.102 -0.102)">
     <use xlink:href="#DejaVuSans-35"/>
     <use x="63.623047" xlink:href="#DejaVuSans-31"/>
     <use x="127.246094" xlink:href="#DejaVuSans-20"/>
     <use x="159.033203" xlink:href="#DejaVuSans-74"/>
     <use x="198.242188" xlink:href="#DejaVuSans-61"/>
     <use x="259.521484" xlink:href="#DejaVuSans-72"/>
     <use x="300.619141" xlink:href="#DejaVuSans-67"/>
     <use x="364.095703" xlink:href="#DejaVuSans-65"/>
     <use x="425.619141" xlink:href="#DejaVuSans-74"/>
     <use x="464.828125" xlink:href="#DejaVuSans-73"/>
     <use x="516.927734" xlink:href="#DejaVuSans-3a"/>
     <use x="550.619141" xlink:href="#DejaVuSans-20"/>
     <use x="582.40625" xlink:href="#DejaVuSans-31"/>
     <use x="646.029297" xlink:href="#DejaVuSans-30"/>
     <use x="709.652344" xlink:href="#DejaVuSans-30"/>
     <use x="773.275391" xlink:href="#DejaVuSans-2e"/>
     <use x="805.0625" xlink:href="#DejaVuSans-2e"/>
     <use x="836.849609" xlink:href="#DejaVuSans-31"/>
     <use x="900.472656" xlink:href="#DejaVuSans-65"/>
     <use x="961.996094" xlink:href="#DejaVuSans-2d"/>
     <use x="998.080078" xlink:href="#DejaVuSans-30"/>
     <use x="1061.703125" xlink:href="#DejaVuSans-38"/>
    </g>
    <!-- 15 instances -->
    <g transform="translate(58.89048 40.319519)scale(0.102 -0.102)">
     <use xlink:href="#DejaVuSans-31"/>
     <use x="63.623047" xlink:href="#DejaVuSans-35"/>
     <use x="127.246094" xlink:href="#DejaVuSans-20"/>
     <use x="159.033203" xlink:href="#DejaVuSans-69"/>
     <use x="186.816406" xlink:href="#DejaVuSans-6e"/>
     <use x="250.195312" xlink:href="#DejaVuSans-73"/>
     <use x="302.294922" xlink:href="#DejaVuSans-74"/>
     <use x="341.503906" xlink:href="#DejaVuSans-61"/>
     <use x="402.783203" xlink:href="#DejaVuSans-6e"/>
     <use x="466.162109" xlink:href="#DejaVuSans-63"/>
     <use x="521.142578" xlink:href="#DejaVuSans-65"/>
     <use x="582.666016" xlink:href="#DejaVuSans-73"/>
    </g>
   </g>
   <g id="text_17">
    <!-- v0.0.0 -->
    <g style="fill:#808080;" transform="translate(178.96275 289.919965)scale(0.1 -0.1)">
     <use xlink:href="#DejaVuSans-76"/>
     <use x="59.179688" xlink:href="#DejaVuSans-30"/>
     <use x="122.802734" xlink:href="#DejaVuSans-2e"/>
     <use x="154.589844" xlink:href="#DejaVuSans-30"/>
     <use x="218.212891" xlink:href="#DejaVuSans-2e"/>
     <use x="250" xlink:href="#DejaVuSans-30"/>
    </g>
   </g>
  </g>
 </g>
 <defs>
  <clipPath id="p3c778fe556">
   <rect height="288.034772" width="277.048" x="56.12" y="6.845228"/>
  </clipPath>
 </defs>
</svg>
