<?xml version="1.0" encoding="utf-8" standalone="no"?>
<!DOCTYPE svg PUBLIC "-//W3C//DTD SVG 1.1//EN"
  "http://www.w3.org/Graphics/SVG/1.1/DTD/svg11.dtd">
<!-- Created with matplotlib (http://matplotlib.org/) -->
<svg height="345pt" version="1.1" viewBox="0 0 460 345" width="460pt" xmlns="http://www.w3.org/2000/svg" xmlns:xlink="http://www.w3.org/1999/xlink">
 <defs>
  <style type="text/css">
*{stroke-linecap:butt;stroke-linejoin:round;}
  </style>
 </defs>
 <g id="figure_1">
  <g id="patch_1">
   <path d="M 0 345.6 
L 460.8 345.6 
L 460.8 0 
L 0 0 
z
" style="fill:#ffffff;"/>
  </g>
  <g id="axes_1">
   <g id="patch_2">
    <path d="M 56.12 294.88 
L 333.168 294.88 
L 333.168 6.845228 
L 56.12 6.845228 
z
" style="fill:#ffffff;"/>
   </g>
   <g id="line2d_1">
    <path d="M 37.236359 294.88 
L 37.236359 288.169813 
L 49.15061 288.169813 
L 49.15061 285.933084 
L 56.12 285.933084 
L 56.12 284.81472 
L 61.064861 284.81472 
L 61.064861 282.577991 
L 64.900393 282.577991 
L 64.900393 279.222897 
L 68.034251 279.222897 
L 68.034251 275.867804 
L 70.68389 275.867804 
L 70.68389 224.423038 
L 72.979112 224.423038 
L 72.979112 177.451729 
L 76.814644 177.451729 
L 76.814644 175.215 
L 88.728896 175.215 
L 88.728896 174.096636 
L 89.567532 174.096636 
L 89.567532 172.978271 
L 96.807615 172.978271 
L 96.807615 170.741543 
L 97.849669 170.741543 
L 97.849669 168.504814 
L 98.832144 168.504814 
L 98.832144 167.386449 
L 99.761485 167.386449 
L 99.761485 162.912991 
L 100.207968 162.912991 
L 100.207968 160.676262 
L 100.643147 160.676262 
L 100.643147 156.202804 
L 101.067579 156.202804 
L 101.067579 155.08444 
L 101.481783 155.08444 
L 101.481783 152.847711 
L 101.88624 152.847711 
L 101.88624 146.137524 
L 102.281398 146.137524 
L 102.281398 138.308973 
L 102.667676 138.308973 
L 102.667676 133.835515 
L 103.045463 133.835515 
L 103.045463 128.243692 
L 103.415125 128.243692 
L 103.415125 119.296776 
L 103.777005 119.296776 
L 103.777005 111.468225 
L 104.131422 111.468225 
L 104.131422 108.113132 
L 136.332102 108.113132 
L 136.332102 106.994767 
L 136.914823 106.994767 
L 136.914823 105.876403 
L 147.671062 105.876403 
L 147.671062 104.758038 
L 152.092658 104.758038 
L 152.20002 102.521309 
L 152.306716 102.521309 
L 152.306716 101.402945 
L 152.497115 101.402945 
L 152.601988 99.166216 
L 152.685428 99.166216 
L 152.768465 92.456029 
L 152.809834 92.456029 
L 152.912822 85.745842 
L 152.97432 85.745842 
L 153.07633 75.680562 
L 153.096659 75.680562 
L 153.177738 62.260188 
L 153.218134 62.260188 
L 153.278551 51.076543 
L 153.438633 51.076543 
L 153.498281 48.839814 
L 153.968159 48.839814 
L 153.968159 47.72145 
L 154.406717 47.72145 
L 154.425533 44.366356 
L 154.556673 44.366356 
L 154.556673 43.247992 
L 154.889367 43.247992 
L 154.998849 38.774534 
L 155.125703 38.774534 
L 155.125703 37.656169 
L 155.341012 37.656169 
L 155.341012 36.537805 
L 155.763705 36.537805 
L 155.781093 30.945982 
L 156.193228 30.945982 
L 156.244057 25.35416 
L 156.495971 25.35416 
L 156.495971 21.999066 
L 156.612279 21.999066 
L 156.711349 14.170515 
L 156.809852 14.170515 
L 156.809852 10.815422 
L 171.471683 10.815422 
L 171.471683 9.697057 
L 333.168 9.697057 
L 333.168 9.697057 
" style="fill:none;stroke:#f5deb3;stroke-linecap:square;stroke-width:4;"/>
   </g>
   <g id="line2d_2">
    <defs>
     <path d="M -0 7.778175 
L 7.778175 0 
L 0 -7.778175 
L -7.778175 -0 
z
" id="md51d53d7fe" style="stroke:#f5deb3;stroke-linejoin:miter;stroke-width:1.5;"/>
    </defs>
    <g>
     <use style="fill:#f5deb3;stroke:#f5deb3;stroke-linejoin:miter;stroke-width:1.5;" x="70.68389" xlink:href="#md51d53d7fe" y="224.423038"/>
     <use style="fill:#f5deb3;stroke:#f5deb3;stroke-linejoin:miter;stroke-width:1.5;" x="101.88624" xlink:href="#md51d53d7fe" y="146.137524"/>
     <use style="fill:#f5deb3;stroke:#f5deb3;stroke-linejoin:miter;stroke-width:1.5;" x="155.341012" xlink:href="#md51d53d7fe" y="36.537805"/>
     <use style="fill:#f5deb3;stroke:#f5deb3;stroke-linejoin:miter;stroke-width:1.5;" x="171.471683" xlink:href="#md51d53d7fe" y="10.815422"/>
     <use style="fill:#f5deb3;stroke:#f5deb3;stroke-linejoin:miter;stroke-width:1.5;" x="171.471683" xlink:href="#md51d53d7fe" y="9.697057"/>
     <use style="fill:#f5deb3;stroke:#f5deb3;stroke-linejoin:miter;stroke-width:1.5;" x="333.168" xlink:href="#md51d53d7fe" y="9.697057"/>
    </g>
   </g>
   <g id="line2d_3">
    <path style="fill:none;stroke:#f5deb3;stroke-linecap:square;stroke-width:4;"/>
    <g/>
   </g>
   <g id="line2d_4">
    <path d="M 333.168 9.697057 
L 363.64328 15.400716 
" style="fill:none;stroke:#f5deb3;stroke-linecap:square;stroke-width:4;"/>
    <g>
     <use style="fill:#f5deb3;stroke:#f5deb3;stroke-linejoin:miter;stroke-width:1.5;" x="333.168" xlink:href="#md51d53d7fe" y="9.697057"/>
     <use style="fill:#f5deb3;stroke:#f5deb3;stroke-linejoin:miter;stroke-width:1.5;" x="363.64328" xlink:href="#md51d53d7fe" y="15.400716"/>
    </g>
   </g>
   <g id="matplotlib.axis_1">
    <g id="xtick_1">
     <g id="line2d_5">
      <path clip-path="url(#pdfedfa7ef4)" d="M 56.12 294.88 
L 56.12 6.845228 
" style="fill:none;stroke:#b0b0b0;stroke-linecap:square;stroke-width:0.8;"/>
     </g>
     <g id="line2d_6">
      <defs>
       <path d="M 0 0 
L 0 3.5 
" id="m809a85567c" style="stroke:#000000;stroke-width:0.8;"/>
      </defs>
      <g>
       <use style="stroke:#000000;stroke-width:0.8;" x="56.12" xlink:href="#m809a85567c" y="294.88"/>
      </g>
     </g>
     <g id="text_1">
      <!-- 0 -->
      <defs>
       <path d="M 31.78125 66.40625 
Q 24.171875 66.40625 20.328125 58.90625 
Q 16.5 51.421875 16.5 36.375 
Q 16.5 21.390625 20.328125 13.890625 
Q 24.171875 6.390625 31.78125 6.390625 
Q 39.453125 6.390625 43.28125 13.890625 
Q 47.125 21.390625 47.125 36.375 
Q 47.125 51.421875 43.28125 58.90625 
Q 39.453125 66.40625 31.78125 66.40625 
z
M 31.78125 74.21875 
Q 44.046875 74.21875 50.515625 64.515625 
Q 56.984375 54.828125 56.984375 36.375 
Q 56.984375 17.96875 50.515625 8.265625 
Q 44.046875 -1.421875 31.78125 -1.421875 
Q 19.53125 -1.421875 13.0625 8.265625 
Q 6.59375 17.96875 6.59375 36.375 
Q 6.59375 54.828125 13.0625 64.515625 
Q 19.53125 74.21875 31.78125 74.21875 
z
" id="DejaVuSans-30"/>
      </defs>
      <g transform="translate(49.7575 317.076875)scale(0.2 -0.2)">
       <use xlink:href="#DejaVuSans-30"/>
      </g>
     </g>
    </g>
    <g id="xtick_2">
     <g id="line2d_7">
      <path clip-path="url(#pdfedfa7ef4)" d="M 135.276571 294.88 
L 135.276571 6.845228 
" style="fill:none;stroke:#b0b0b0;stroke-linecap:square;stroke-width:0.8;"/>
     </g>
     <g id="line2d_8">
      <g>
       <use style="stroke:#000000;stroke-width:0.8;" x="135.276571" xlink:href="#m809a85567c" y="294.88"/>
      </g>
     </g>
     <g id="text_2">
      <!-- 2 -->
      <defs>
       <path d="M 19.1875 8.296875 
L 53.609375 8.296875 
L 53.609375 0 
L 7.328125 0 
L 7.328125 8.296875 
Q 12.9375 14.109375 22.625 23.890625 
Q 32.328125 33.6875 34.8125 36.53125 
Q 39.546875 41.84375 41.421875 45.53125 
Q 43.3125 49.21875 43.3125 52.78125 
Q 43.3125 58.59375 39.234375 62.25 
Q 35.15625 65.921875 28.609375 65.921875 
Q 23.96875 65.921875 18.8125 64.3125 
Q 13.671875 62.703125 7.8125 59.421875 
L 7.8125 69.390625 
Q 13.765625 71.78125 18.9375 73 
Q 24.125 74.21875 28.421875 74.21875 
Q 39.75 74.21875 46.484375 68.546875 
Q 53.21875 62.890625 53.21875 53.421875 
Q 53.21875 48.921875 51.53125 44.890625 
Q 49.859375 40.875 45.40625 35.40625 
Q 44.1875 33.984375 37.640625 27.21875 
Q 31.109375 20.453125 19.1875 8.296875 
z
" id="DejaVuSans-32"/>
      </defs>
      <g transform="translate(128.914071 317.076875)scale(0.2 -0.2)">
       <use xlink:href="#DejaVuSans-32"/>
      </g>
     </g>
    </g>
    <g id="xtick_3">
     <g id="line2d_9">
      <path clip-path="url(#pdfedfa7ef4)" d="M 214.433143 294.88 
L 214.433143 6.845228 
" style="fill:none;stroke:#b0b0b0;stroke-linecap:square;stroke-width:0.8;"/>
     </g>
     <g id="line2d_10">
      <g>
       <use style="stroke:#000000;stroke-width:0.8;" x="214.433143" xlink:href="#m809a85567c" y="294.88"/>
      </g>
     </g>
     <g id="text_3">
      <!-- 4 -->
      <defs>
       <path d="M 37.796875 64.3125 
L 12.890625 25.390625 
L 37.796875 25.390625 
z
M 35.203125 72.90625 
L 47.609375 72.90625 
L 47.609375 25.390625 
L 58.015625 25.390625 
L 58.015625 17.1875 
L 47.609375 17.1875 
L 47.609375 0 
L 37.796875 0 
L 37.796875 17.1875 
L 4.890625 17.1875 
L 4.890625 26.703125 
z
" id="DejaVuSans-34"/>
      </defs>
      <g transform="translate(208.070643 317.076875)scale(0.2 -0.2)">
       <use xlink:href="#DejaVuSans-34"/>
      </g>
     </g>
    </g>
    <g id="xtick_4">
     <g id="line2d_11">
      <path clip-path="url(#pdfedfa7ef4)" d="M 293.589714 294.88 
L 293.589714 6.845228 
" style="fill:none;stroke:#b0b0b0;stroke-linecap:square;stroke-width:0.8;"/>
     </g>
     <g id="line2d_12">
      <g>
       <use style="stroke:#000000;stroke-width:0.8;" x="293.589714" xlink:href="#m809a85567c" y="294.88"/>
      </g>
     </g>
     <g id="text_4">
      <!-- 6 -->
      <defs>
       <path d="M 33.015625 40.375 
Q 26.375 40.375 22.484375 35.828125 
Q 18.609375 31.296875 18.609375 23.390625 
Q 18.609375 15.53125 22.484375 10.953125 
Q 26.375 6.390625 33.015625 6.390625 
Q 39.65625 6.390625 43.53125 10.953125 
Q 47.40625 15.53125 47.40625 23.390625 
Q 47.40625 31.296875 43.53125 35.828125 
Q 39.65625 40.375 33.015625 40.375 
z
M 52.59375 71.296875 
L 52.59375 62.3125 
Q 48.875 64.0625 45.09375 64.984375 
Q 41.3125 65.921875 37.59375 65.921875 
Q 27.828125 65.921875 22.671875 59.328125 
Q 17.53125 52.734375 16.796875 39.40625 
Q 19.671875 43.65625 24.015625 45.921875 
Q 28.375 48.1875 33.59375 48.1875 
Q 44.578125 48.1875 50.953125 41.515625 
Q 57.328125 34.859375 57.328125 23.390625 
Q 57.328125 12.15625 50.6875 5.359375 
Q 44.046875 -1.421875 33.015625 -1.421875 
Q 20.359375 -1.421875 13.671875 8.265625 
Q 6.984375 17.96875 6.984375 36.375 
Q 6.984375 53.65625 15.1875 63.9375 
Q 23.390625 74.21875 37.203125 74.21875 
Q 40.921875 74.21875 44.703125 73.484375 
Q 48.484375 72.75 52.59375 71.296875 
z
" id="DejaVuSans-36"/>
      </defs>
      <g transform="translate(287.227214 317.076875)scale(0.2 -0.2)">
       <use xlink:href="#DejaVuSans-36"/>
      </g>
     </g>
    </g>
    <g id="xtick_5">
     <g id="line2d_13">
      <path clip-path="url(#pdfedfa7ef4)" d="M 56.12 294.88 
L 56.12 6.845228 
" style="fill:none;stroke:#b0b0b0;stroke-linecap:square;stroke-width:0.8;"/>
     </g>
     <g id="line2d_14">
      <defs>
       <path d="M 0 0 
L 0 2 
" id="mcb4e8d4c0b" style="stroke:#000000;stroke-width:0.6;"/>
      </defs>
      <g>
       <use style="stroke:#000000;stroke-width:0.6;" x="56.12" xlink:href="#mcb4e8d4c0b" y="294.88"/>
      </g>
     </g>
    </g>
    <g id="xtick_6">
     <g id="line2d_15">
      <path clip-path="url(#pdfedfa7ef4)" d="M 95.698286 294.88 
L 95.698286 6.845228 
" style="fill:none;stroke:#b0b0b0;stroke-linecap:square;stroke-width:0.8;"/>
     </g>
     <g id="line2d_16">
      <g>
       <use style="stroke:#000000;stroke-width:0.6;" x="95.698286" xlink:href="#mcb4e8d4c0b" y="294.88"/>
      </g>
     </g>
    </g>
    <g id="xtick_7">
     <g id="line2d_17">
      <path clip-path="url(#pdfedfa7ef4)" d="M 135.276571 294.88 
L 135.276571 6.845228 
" style="fill:none;stroke:#b0b0b0;stroke-linecap:square;stroke-width:0.8;"/>
     </g>
     <g id="line2d_18">
      <g>
       <use style="stroke:#000000;stroke-width:0.6;" x="135.276571" xlink:href="#mcb4e8d4c0b" y="294.88"/>
      </g>
     </g>
    </g>
    <g id="xtick_8">
     <g id="line2d_19">
      <path clip-path="url(#pdfedfa7ef4)" d="M 174.854857 294.88 
L 174.854857 6.845228 
" style="fill:none;stroke:#b0b0b0;stroke-linecap:square;stroke-width:0.8;"/>
     </g>
     <g id="line2d_20">
      <g>
       <use style="stroke:#000000;stroke-width:0.6;" x="174.854857" xlink:href="#mcb4e8d4c0b" y="294.88"/>
      </g>
     </g>
    </g>
    <g id="xtick_9">
     <g id="line2d_21">
      <path clip-path="url(#pdfedfa7ef4)" d="M 214.433143 294.88 
L 214.433143 6.845228 
" style="fill:none;stroke:#b0b0b0;stroke-linecap:square;stroke-width:0.8;"/>
     </g>
     <g id="line2d_22">
      <g>
       <use style="stroke:#000000;stroke-width:0.6;" x="214.433143" xlink:href="#mcb4e8d4c0b" y="294.88"/>
      </g>
     </g>
    </g>
    <g id="xtick_10">
     <g id="line2d_23">
      <path clip-path="url(#pdfedfa7ef4)" d="M 254.011429 294.88 
L 254.011429 6.845228 
" style="fill:none;stroke:#b0b0b0;stroke-linecap:square;stroke-width:0.8;"/>
     </g>
     <g id="line2d_24">
      <g>
       <use style="stroke:#000000;stroke-width:0.6;" x="254.011429" xlink:href="#mcb4e8d4c0b" y="294.88"/>
      </g>
     </g>
    </g>
    <g id="xtick_11">
     <g id="line2d_25">
      <path clip-path="url(#pdfedfa7ef4)" d="M 293.589714 294.88 
L 293.589714 6.845228 
" style="fill:none;stroke:#b0b0b0;stroke-linecap:square;stroke-width:0.8;"/>
     </g>
     <g id="line2d_26">
      <g>
       <use style="stroke:#000000;stroke-width:0.6;" x="293.589714" xlink:href="#mcb4e8d4c0b" y="294.88"/>
      </g>
     </g>
    </g>
    <g id="xtick_12">
     <g id="line2d_27">
      <path clip-path="url(#pdfedfa7ef4)" d="M 333.168 294.88 
L 333.168 6.845228 
" style="fill:none;stroke:#b0b0b0;stroke-linecap:square;stroke-width:0.8;"/>
     </g>
     <g id="line2d_28">
      <g>
       <use style="stroke:#000000;stroke-width:0.6;" x="333.168" xlink:href="#mcb4e8d4c0b" y="294.88"/>
      </g>
     </g>
    </g>
    <g id="text_5">
     <!-- log10(# f-evals / dimension) -->
     <defs>
      <path d="M 9.421875 75.984375 
L 18.40625 75.984375 
L 18.40625 0 
L 9.421875 0 
z
" id="DejaVuSans-6c"/>
      <path d="M 30.609375 48.390625 
Q 23.390625 48.390625 19.1875 42.75 
Q 14.984375 37.109375 14.984375 27.296875 
Q 14.984375 17.484375 19.15625 11.84375 
Q 23.34375 6.203125 30.609375 6.203125 
Q 37.796875 6.203125 41.984375 11.859375 
Q 46.1875 17.53125 46.1875 27.296875 
Q 46.1875 37.015625 41.984375 42.703125 
Q 37.796875 48.390625 30.609375 48.390625 
z
M 30.609375 56 
Q 42.328125 56 49.015625 48.375 
Q 55.71875 40.765625 55.71875 27.296875 
Q 55.71875 13.875 49.015625 6.21875 
Q 42.328125 -1.421875 30.609375 -1.421875 
Q 18.84375 -1.421875 12.171875 6.21875 
Q 5.515625 13.875 5.515625 27.296875 
Q 5.515625 40.765625 12.171875 48.375 
Q 18.84375 56 30.609375 56 
z
" id="DejaVuSans-6f"/>
      <path d="M 45.40625 27.984375 
Q 45.40625 37.75 41.375 43.109375 
Q 37.359375 48.484375 30.078125 48.484375 
Q 22.859375 48.484375 18.828125 43.109375 
Q 14.796875 37.75 14.796875 27.984375 
Q 14.796875 18.265625 18.828125 12.890625 
Q 22.859375 7.515625 30.078125 7.515625 
Q 37.359375 7.515625 41.375 12.890625 
Q 45.40625 18.265625 45.40625 27.984375 
z
M 54.390625 6.78125 
Q 54.390625 -7.171875 48.1875 -13.984375 
Q 42 -20.796875 29.203125 -20.796875 
Q 24.46875 -20.796875 20.265625 -20.09375 
Q 16.0625 -19.390625 12.109375 -17.921875 
L 12.109375 -9.1875 
Q 16.0625 -11.328125 19.921875 -12.34375 
Q 23.78125 -13.375 27.78125 -13.375 
Q 36.625 -13.375 41.015625 -8.765625 
Q 45.40625 -4.15625 45.40625 5.171875 
L 45.40625 9.625 
Q 42.625 4.78125 38.28125 2.390625 
Q 33.9375 0 27.875 0 
Q 17.828125 0 11.671875 7.65625 
Q 5.515625 15.328125 5.515625 27.984375 
Q 5.515625 40.671875 11.671875 48.328125 
Q 17.828125 56 27.875 56 
Q 33.9375 56 38.28125 53.609375 
Q 42.625 51.21875 45.40625 46.390625 
L 45.40625 54.6875 
L 54.390625 54.6875 
z
" id="DejaVuSans-67"/>
      <path d="M 12.40625 8.296875 
L 28.515625 8.296875 
L 28.515625 63.921875 
L 10.984375 60.40625 
L 10.984375 69.390625 
L 28.421875 72.90625 
L 38.28125 72.90625 
L 38.28125 8.296875 
L 54.390625 8.296875 
L 54.390625 0 
L 12.40625 0 
z
" id="DejaVuSans-31"/>
      <path d="M 31 75.875 
Q 24.46875 64.65625 21.28125 53.65625 
Q 18.109375 42.671875 18.109375 31.390625 
Q 18.109375 20.125 21.3125 9.0625 
Q 24.515625 -2 31 -13.1875 
L 23.1875 -13.1875 
Q 15.875 -1.703125 12.234375 9.375 
Q 8.59375 20.453125 8.59375 31.390625 
Q 8.59375 42.28125 12.203125 53.3125 
Q 15.828125 64.359375 23.1875 75.875 
z
" id="DejaVuSans-28"/>
      <path d="M 51.125 44 
L 36.921875 44 
L 32.8125 27.6875 
L 47.125 27.6875 
z
M 43.796875 71.78125 
L 38.71875 51.515625 
L 52.984375 51.515625 
L 58.109375 71.78125 
L 65.921875 71.78125 
L 60.890625 51.515625 
L 76.125 51.515625 
L 76.125 44 
L 58.984375 44 
L 54.984375 27.6875 
L 70.515625 27.6875 
L 70.515625 20.21875 
L 53.078125 20.21875 
L 48 0 
L 40.1875 0 
L 45.21875 20.21875 
L 30.90625 20.21875 
L 25.875 0 
L 18.015625 0 
L 23.09375 20.21875 
L 7.71875 20.21875 
L 7.71875 27.6875 
L 24.90625 27.6875 
L 29 44 
L 13.28125 44 
L 13.28125 51.515625 
L 30.90625 51.515625 
L 35.890625 71.78125 
z
" id="DejaVuSans-23"/>
      <path id="DejaVuSans-20"/>
      <path d="M 37.109375 75.984375 
L 37.109375 68.5 
L 28.515625 68.5 
Q 23.6875 68.5 21.796875 66.546875 
Q 19.921875 64.59375 19.921875 59.515625 
L 19.921875 54.6875 
L 34.71875 54.6875 
L 34.71875 47.703125 
L 19.921875 47.703125 
L 19.921875 0 
L 10.890625 0 
L 10.890625 47.703125 
L 2.296875 47.703125 
L 2.296875 54.6875 
L 10.890625 54.6875 
L 10.890625 58.5 
Q 10.890625 67.625 15.140625 71.796875 
Q 19.390625 75.984375 28.609375 75.984375 
z
" id="DejaVuSans-66"/>
      <path d="M 4.890625 31.390625 
L 31.203125 31.390625 
L 31.203125 23.390625 
L 4.890625 23.390625 
z
" id="DejaVuSans-2d"/>
      <path d="M 56.203125 29.59375 
L 56.203125 25.203125 
L 14.890625 25.203125 
Q 15.484375 15.921875 20.484375 11.0625 
Q 25.484375 6.203125 34.421875 6.203125 
Q 39.59375 6.203125 44.453125 7.46875 
Q 49.3125 8.734375 54.109375 11.28125 
L 54.109375 2.78125 
Q 49.265625 0.734375 44.1875 -0.34375 
Q 39.109375 -1.421875 33.890625 -1.421875 
Q 20.796875 -1.421875 13.15625 6.1875 
Q 5.515625 13.8125 5.515625 26.8125 
Q 5.515625 40.234375 12.765625 48.109375 
Q 20.015625 56 32.328125 56 
Q 43.359375 56 49.78125 48.890625 
Q 56.203125 41.796875 56.203125 29.59375 
z
M 47.21875 32.234375 
Q 47.125 39.59375 43.09375 43.984375 
Q 39.0625 48.390625 32.421875 48.390625 
Q 24.90625 48.390625 20.390625 44.140625 
Q 15.875 39.890625 15.1875 32.171875 
z
" id="DejaVuSans-65"/>
      <path d="M 2.984375 54.6875 
L 12.5 54.6875 
L 29.59375 8.796875 
L 46.6875 54.6875 
L 56.203125 54.6875 
L 35.6875 0 
L 23.484375 0 
z
" id="DejaVuSans-76"/>
      <path d="M 34.28125 27.484375 
Q 23.390625 27.484375 19.1875 25 
Q 14.984375 22.515625 14.984375 16.5 
Q 14.984375 11.71875 18.140625 8.90625 
Q 21.296875 6.109375 26.703125 6.109375 
Q 34.1875 6.109375 38.703125 11.40625 
Q 43.21875 16.703125 43.21875 25.484375 
L 43.21875 27.484375 
z
M 52.203125 31.203125 
L 52.203125 0 
L 43.21875 0 
L 43.21875 8.296875 
Q 40.140625 3.328125 35.546875 0.953125 
Q 30.953125 -1.421875 24.3125 -1.421875 
Q 15.921875 -1.421875 10.953125 3.296875 
Q 6 8.015625 6 15.921875 
Q 6 25.140625 12.171875 29.828125 
Q 18.359375 34.515625 30.609375 34.515625 
L 43.21875 34.515625 
L 43.21875 35.40625 
Q 43.21875 41.609375 39.140625 45 
Q 35.0625 48.390625 27.6875 48.390625 
Q 23 48.390625 18.546875 47.265625 
Q 14.109375 46.140625 10.015625 43.890625 
L 10.015625 52.203125 
Q 14.9375 54.109375 19.578125 55.046875 
Q 24.21875 56 28.609375 56 
Q 40.484375 56 46.34375 49.84375 
Q 52.203125 43.703125 52.203125 31.203125 
z
" id="DejaVuSans-61"/>
      <path d="M 44.28125 53.078125 
L 44.28125 44.578125 
Q 40.484375 46.53125 36.375 47.5 
Q 32.28125 48.484375 27.875 48.484375 
Q 21.1875 48.484375 17.84375 46.4375 
Q 14.5 44.390625 14.5 40.28125 
Q 14.5 37.15625 16.890625 35.375 
Q 19.28125 33.59375 26.515625 31.984375 
L 29.59375 31.296875 
Q 39.15625 29.25 43.1875 25.515625 
Q 47.21875 21.78125 47.21875 15.09375 
Q 47.21875 7.46875 41.1875 3.015625 
Q 35.15625 -1.421875 24.609375 -1.421875 
Q 20.21875 -1.421875 15.453125 -0.5625 
Q 10.6875 0.296875 5.421875 2 
L 5.421875 11.28125 
Q 10.40625 8.6875 15.234375 7.390625 
Q 20.0625 6.109375 24.8125 6.109375 
Q 31.15625 6.109375 34.5625 8.28125 
Q 37.984375 10.453125 37.984375 14.40625 
Q 37.984375 18.0625 35.515625 20.015625 
Q 33.0625 21.96875 24.703125 23.78125 
L 21.578125 24.515625 
Q 13.234375 26.265625 9.515625 29.90625 
Q 5.8125 33.546875 5.8125 39.890625 
Q 5.8125 47.609375 11.28125 51.796875 
Q 16.75 56 26.8125 56 
Q 31.78125 56 36.171875 55.265625 
Q 40.578125 54.546875 44.28125 53.078125 
z
" id="DejaVuSans-73"/>
      <path d="M 25.390625 72.90625 
L 33.6875 72.90625 
L 8.296875 -9.28125 
L 0 -9.28125 
z
" id="DejaVuSans-2f"/>
      <path d="M 45.40625 46.390625 
L 45.40625 75.984375 
L 54.390625 75.984375 
L 54.390625 0 
L 45.40625 0 
L 45.40625 8.203125 
Q 42.578125 3.328125 38.25 0.953125 
Q 33.9375 -1.421875 27.875 -1.421875 
Q 17.96875 -1.421875 11.734375 6.484375 
Q 5.515625 14.40625 5.515625 27.296875 
Q 5.515625 40.1875 11.734375 48.09375 
Q 17.96875 56 27.875 56 
Q 33.9375 56 38.25 53.625 
Q 42.578125 51.265625 45.40625 46.390625 
z
M 14.796875 27.296875 
Q 14.796875 17.390625 18.875 11.75 
Q 22.953125 6.109375 30.078125 6.109375 
Q 37.203125 6.109375 41.296875 11.75 
Q 45.40625 17.390625 45.40625 27.296875 
Q 45.40625 37.203125 41.296875 42.84375 
Q 37.203125 48.484375 30.078125 48.484375 
Q 22.953125 48.484375 18.875 42.84375 
Q 14.796875 37.203125 14.796875 27.296875 
z
" id="DejaVuSans-64"/>
      <path d="M 9.421875 54.6875 
L 18.40625 54.6875 
L 18.40625 0 
L 9.421875 0 
z
M 9.421875 75.984375 
L 18.40625 75.984375 
L 18.40625 64.59375 
L 9.421875 64.59375 
z
" id="DejaVuSans-69"/>
      <path d="M 52 44.1875 
Q 55.375 50.25 60.0625 53.125 
Q 64.75 56 71.09375 56 
Q 79.640625 56 84.28125 50.015625 
Q 88.921875 44.046875 88.921875 33.015625 
L 88.921875 0 
L 79.890625 0 
L 79.890625 32.71875 
Q 79.890625 40.578125 77.09375 44.375 
Q 74.3125 48.1875 68.609375 48.1875 
Q 61.625 48.1875 57.5625 43.546875 
Q 53.515625 38.921875 53.515625 30.90625 
L 53.515625 0 
L 44.484375 0 
L 44.484375 32.71875 
Q 44.484375 40.625 41.703125 44.40625 
Q 38.921875 48.1875 33.109375 48.1875 
Q 26.21875 48.1875 22.15625 43.53125 
Q 18.109375 38.875 18.109375 30.90625 
L 18.109375 0 
L 9.078125 0 
L 9.078125 54.6875 
L 18.109375 54.6875 
L 18.109375 46.1875 
Q 21.1875 51.21875 25.484375 53.609375 
Q 29.78125 56 35.6875 56 
Q 41.65625 56 45.828125 52.96875 
Q 50 49.953125 52 44.1875 
z
" id="DejaVuSans-6d"/>
      <path d="M 54.890625 33.015625 
L 54.890625 0 
L 45.90625 0 
L 45.90625 32.71875 
Q 45.90625 40.484375 42.875 44.328125 
Q 39.84375 48.1875 33.796875 48.1875 
Q 26.515625 48.1875 22.3125 43.546875 
Q 18.109375 38.921875 18.109375 30.90625 
L 18.109375 0 
L 9.078125 0 
L 9.078125 54.6875 
L 18.109375 54.6875 
L 18.109375 46.1875 
Q 21.34375 51.125 25.703125 53.5625 
Q 30.078125 56 35.796875 56 
Q 45.21875 56 50.046875 50.171875 
Q 54.890625 44.34375 54.890625 33.015625 
z
" id="DejaVuSans-6e"/>
      <path d="M 8.015625 75.875 
L 15.828125 75.875 
Q 23.140625 64.359375 26.78125 53.3125 
Q 30.421875 42.28125 30.421875 31.390625 
Q 30.421875 20.453125 26.78125 9.375 
Q 23.140625 -1.703125 15.828125 -13.1875 
L 8.015625 -13.1875 
Q 14.5 -2 17.703125 9.0625 
Q 20.90625 20.125 20.90625 31.390625 
Q 20.90625 42.671875 17.703125 53.65625 
Q 14.5 64.65625 8.015625 75.875 
z
" id="DejaVuSans-29"/>
     </defs>
     <g transform="translate(73.803219 338.153594)scale(0.17 -0.17)">
      <use xlink:href="#DejaVuSans-6c"/>
      <use x="27.783203" xlink:href="#DejaVuSans-6f"/>
      <use x="88.964844" xlink:href="#DejaVuSans-67"/>
      <use x="152.441406" xlink:href="#DejaVuSans-31"/>
      <use x="216.064453" xlink:href="#DejaVuSans-30"/>
      <use x="279.6875" xlink:href="#DejaVuSans-28"/>
      <use x="318.701172" xlink:href="#DejaVuSans-23"/>
      <use x="402.490234" xlink:href="#DejaVuSans-20"/>
      <use x="434.277344" xlink:href="#DejaVuSans-66"/>
      <use x="469.404297" xlink:href="#DejaVuSans-2d"/>
      <use x="505.488281" xlink:href="#DejaVuSans-65"/>
      <use x="567.011719" xlink:href="#DejaVuSans-76"/>
      <use x="626.191406" xlink:href="#DejaVuSans-61"/>
      <use x="687.470703" xlink:href="#DejaVuSans-6c"/>
      <use x="715.253906" xlink:href="#DejaVuSans-73"/>
      <use x="767.353516" xlink:href="#DejaVuSans-20"/>
      <use x="799.140625" xlink:href="#DejaVuSans-2f"/>
      <use x="832.832031" xlink:href="#DejaVuSans-20"/>
      <use x="864.619141" xlink:href="#DejaVuSans-64"/>
      <use x="928.095703" xlink:href="#DejaVuSans-69"/>
      <use x="955.878906" xlink:href="#DejaVuSans-6d"/>
      <use x="1053.291016" xlink:href="#DejaVuSans-65"/>
      <use x="1114.814453" xlink:href="#DejaVuSans-6e"/>
      <use x="1178.193359" xlink:href="#DejaVuSans-73"/>
      <use x="1230.292969" xlink:href="#DejaVuSans-69"/>
      <use x="1258.076172" xlink:href="#DejaVuSans-6f"/>
      <use x="1319.257812" xlink:href="#DejaVuSans-6e"/>
      <use x="1382.636719" xlink:href="#DejaVuSans-29"/>
     </g>
    </g>
   </g>
   <g id="matplotlib.axis_2">
    <g id="ytick_1">
     <g id="line2d_29">
      <path clip-path="url(#pdfedfa7ef4)" d="M 56.12 294.88 
L 333.168 294.88 
" style="fill:none;stroke:#b0b0b0;stroke-linecap:square;stroke-width:0.8;"/>
     </g>
     <g id="line2d_30">
      <defs>
       <path d="M 0 0 
L -3.5 0 
" id="m21e8c73d10" style="stroke:#000000;stroke-width:0.8;"/>
      </defs>
      <g>
       <use style="stroke:#000000;stroke-width:0.8;" x="56.12" xlink:href="#m21e8c73d10" y="294.88"/>
      </g>
     </g>
     <g id="text_6">
      <!-- 0.0 -->
      <defs>
       <path d="M 10.6875 12.40625 
L 21 12.40625 
L 21 0 
L 10.6875 0 
z
" id="DejaVuSans-2e"/>
      </defs>
      <g transform="translate(23.675 300.95875)scale(0.16 -0.16)">
       <use xlink:href="#DejaVuSans-30"/>
       <use x="63.623047" xlink:href="#DejaVuSans-2e"/>
       <use x="95.410156" xlink:href="#DejaVuSans-30"/>
      </g>
     </g>
    </g>
    <g id="ytick_2">
     <g id="line2d_31">
      <path clip-path="url(#pdfedfa7ef4)" d="M 56.12 237.843411 
L 333.168 237.843411 
" style="fill:none;stroke:#b0b0b0;stroke-linecap:square;stroke-width:0.8;"/>
     </g>
     <g id="line2d_32">
      <g>
       <use style="stroke:#000000;stroke-width:0.8;" x="56.12" xlink:href="#m21e8c73d10" y="237.843411"/>
      </g>
     </g>
     <g id="text_7">
      <!-- 0.2 -->
      <g transform="translate(23.675 243.922161)scale(0.16 -0.16)">
       <use xlink:href="#DejaVuSans-30"/>
       <use x="63.623047" xlink:href="#DejaVuSans-2e"/>
       <use x="95.410156" xlink:href="#DejaVuSans-32"/>
      </g>
     </g>
    </g>
    <g id="ytick_3">
     <g id="line2d_33">
      <path clip-path="url(#pdfedfa7ef4)" d="M 56.12 180.806823 
L 333.168 180.806823 
" style="fill:none;stroke:#b0b0b0;stroke-linecap:square;stroke-width:0.8;"/>
     </g>
     <g id="line2d_34">
      <g>
       <use style="stroke:#000000;stroke-width:0.8;" x="56.12" xlink:href="#m21e8c73d10" y="180.806823"/>
      </g>
     </g>
     <g id="text_8">
      <!-- 0.4 -->
      <g transform="translate(23.675 186.885573)scale(0.16 -0.16)">
       <use xlink:href="#DejaVuSans-30"/>
       <use x="63.623047" xlink:href="#DejaVuSans-2e"/>
       <use x="95.410156" xlink:href="#DejaVuSans-34"/>
      </g>
     </g>
    </g>
    <g id="ytick_4">
     <g id="line2d_35">
      <path clip-path="url(#pdfedfa7ef4)" d="M 56.12 123.770234 
L 333.168 123.770234 
" style="fill:none;stroke:#b0b0b0;stroke-linecap:square;stroke-width:0.8;"/>
     </g>
     <g id="line2d_36">
      <g>
       <use style="stroke:#000000;stroke-width:0.8;" x="56.12" xlink:href="#m21e8c73d10" y="123.770234"/>
      </g>
     </g>
     <g id="text_9">
      <!-- 0.6 -->
      <g transform="translate(23.675 129.848984)scale(0.16 -0.16)">
       <use xlink:href="#DejaVuSans-30"/>
       <use x="63.623047" xlink:href="#DejaVuSans-2e"/>
       <use x="95.410156" xlink:href="#DejaVuSans-36"/>
      </g>
     </g>
    </g>
    <g id="ytick_5">
     <g id="line2d_37">
      <path clip-path="url(#pdfedfa7ef4)" d="M 56.12 66.733646 
L 333.168 66.733646 
" style="fill:none;stroke:#b0b0b0;stroke-linecap:square;stroke-width:0.8;"/>
     </g>
     <g id="line2d_38">
      <g>
       <use style="stroke:#000000;stroke-width:0.8;" x="56.12" xlink:href="#m21e8c73d10" y="66.733646"/>
      </g>
     </g>
     <g id="text_10">
      <!-- 0.8 -->
      <defs>
       <path d="M 31.78125 34.625 
Q 24.75 34.625 20.71875 30.859375 
Q 16.703125 27.09375 16.703125 20.515625 
Q 16.703125 13.921875 20.71875 10.15625 
Q 24.75 6.390625 31.78125 6.390625 
Q 38.8125 6.390625 42.859375 10.171875 
Q 46.921875 13.96875 46.921875 20.515625 
Q 46.921875 27.09375 42.890625 30.859375 
Q 38.875 34.625 31.78125 34.625 
z
M 21.921875 38.8125 
Q 15.578125 40.375 12.03125 44.71875 
Q 8.5 49.078125 8.5 55.328125 
Q 8.5 64.0625 14.71875 69.140625 
Q 20.953125 74.21875 31.78125 74.21875 
Q 42.671875 74.21875 48.875 69.140625 
Q 55.078125 64.0625 55.078125 55.328125 
Q 55.078125 49.078125 51.53125 44.71875 
Q 48 40.375 41.703125 38.8125 
Q 48.828125 37.15625 52.796875 32.3125 
Q 56.78125 27.484375 56.78125 20.515625 
Q 56.78125 9.90625 50.3125 4.234375 
Q 43.84375 -1.421875 31.78125 -1.421875 
Q 19.734375 -1.421875 13.25 4.234375 
Q 6.78125 9.90625 6.78125 20.515625 
Q 6.78125 27.484375 10.78125 32.3125 
Q 14.796875 37.15625 21.921875 38.8125 
z
M 18.3125 54.390625 
Q 18.3125 48.734375 21.84375 45.5625 
Q 25.390625 42.390625 31.78125 42.390625 
Q 38.140625 42.390625 41.71875 45.5625 
Q 45.3125 48.734375 45.3125 54.390625 
Q 45.3125 60.0625 41.71875 63.234375 
Q 38.140625 66.40625 31.78125 66.40625 
Q 25.390625 66.40625 21.84375 63.234375 
Q 18.3125 60.0625 18.3125 54.390625 
z
" id="DejaVuSans-38"/>
      </defs>
      <g transform="translate(23.675 72.812396)scale(0.16 -0.16)">
       <use xlink:href="#DejaVuSans-30"/>
       <use x="63.623047" xlink:href="#DejaVuSans-2e"/>
       <use x="95.410156" xlink:href="#DejaVuSans-38"/>
      </g>
     </g>
    </g>
    <g id="ytick_6">
     <g id="line2d_39">
      <path clip-path="url(#pdfedfa7ef4)" d="M 56.12 9.697057 
L 333.168 9.697057 
" style="fill:none;stroke:#b0b0b0;stroke-linecap:square;stroke-width:0.8;"/>
     </g>
     <g id="line2d_40">
      <g>
       <use style="stroke:#000000;stroke-width:0.8;" x="56.12" xlink:href="#m21e8c73d10" y="9.697057"/>
      </g>
     </g>
     <g id="text_11">
      <!-- 1.0 -->
      <g transform="translate(23.675 15.775807)scale(0.16 -0.16)">
       <use xlink:href="#DejaVuSans-31"/>
       <use x="63.623047" xlink:href="#DejaVuSans-2e"/>
       <use x="95.410156" xlink:href="#DejaVuSans-30"/>
      </g>
     </g>
    </g>
    <g id="text_12">
     <!-- Fraction of function,target pairs -->
     <defs>
      <path d="M 9.8125 72.90625 
L 51.703125 72.90625 
L 51.703125 64.59375 
L 19.671875 64.59375 
L 19.671875 43.109375 
L 48.578125 43.109375 
L 48.578125 34.8125 
L 19.671875 34.8125 
L 19.671875 0 
L 9.8125 0 
z
" id="DejaVuSans-46"/>
      <path d="M 41.109375 46.296875 
Q 39.59375 47.171875 37.8125 47.578125 
Q 36.03125 48 33.890625 48 
Q 26.265625 48 22.1875 43.046875 
Q 18.109375 38.09375 18.109375 28.8125 
L 18.109375 0 
L 9.078125 0 
L 9.078125 54.6875 
L 18.109375 54.6875 
L 18.109375 46.1875 
Q 20.953125 51.171875 25.484375 53.578125 
Q 30.03125 56 36.53125 56 
Q 37.453125 56 38.578125 55.875 
Q 39.703125 55.765625 41.0625 55.515625 
z
" id="DejaVuSans-72"/>
      <path d="M 48.78125 52.59375 
L 48.78125 44.1875 
Q 44.96875 46.296875 41.140625 47.34375 
Q 37.3125 48.390625 33.40625 48.390625 
Q 24.65625 48.390625 19.8125 42.84375 
Q 14.984375 37.3125 14.984375 27.296875 
Q 14.984375 17.28125 19.8125 11.734375 
Q 24.65625 6.203125 33.40625 6.203125 
Q 37.3125 6.203125 41.140625 7.25 
Q 44.96875 8.296875 48.78125 10.40625 
L 48.78125 2.09375 
Q 45.015625 0.34375 40.984375 -0.53125 
Q 36.96875 -1.421875 32.421875 -1.421875 
Q 20.0625 -1.421875 12.78125 6.34375 
Q 5.515625 14.109375 5.515625 27.296875 
Q 5.515625 40.671875 12.859375 48.328125 
Q 20.21875 56 33.015625 56 
Q 37.15625 56 41.109375 55.140625 
Q 45.0625 54.296875 48.78125 52.59375 
z
" id="DejaVuSans-63"/>
      <path d="M 18.3125 70.21875 
L 18.3125 54.6875 
L 36.8125 54.6875 
L 36.8125 47.703125 
L 18.3125 47.703125 
L 18.3125 18.015625 
Q 18.3125 11.328125 20.140625 9.421875 
Q 21.96875 7.515625 27.59375 7.515625 
L 36.8125 7.515625 
L 36.8125 0 
L 27.59375 0 
Q 17.1875 0 13.234375 3.875 
Q 9.28125 7.765625 9.28125 18.015625 
L 9.28125 47.703125 
L 2.6875 47.703125 
L 2.6875 54.6875 
L 9.28125 54.6875 
L 9.28125 70.21875 
z
" id="DejaVuSans-74"/>
      <path d="M 8.5 21.578125 
L 8.5 54.6875 
L 17.484375 54.6875 
L 17.484375 21.921875 
Q 17.484375 14.15625 20.5 10.265625 
Q 23.53125 6.390625 29.59375 6.390625 
Q 36.859375 6.390625 41.078125 11.03125 
Q 45.3125 15.671875 45.3125 23.6875 
L 45.3125 54.6875 
L 54.296875 54.6875 
L 54.296875 0 
L 45.3125 0 
L 45.3125 8.40625 
Q 42.046875 3.421875 37.71875 1 
Q 33.40625 -1.421875 27.6875 -1.421875 
Q 18.265625 -1.421875 13.375 4.4375 
Q 8.5 10.296875 8.5 21.578125 
z
M 31.109375 56 
z
" id="DejaVuSans-75"/>
      <path d="M 11.71875 12.40625 
L 22.015625 12.40625 
L 22.015625 4 
L 14.015625 -11.625 
L 7.71875 -11.625 
L 11.71875 4 
z
" id="DejaVuSans-2c"/>
      <path d="M 18.109375 8.203125 
L 18.109375 -20.796875 
L 9.078125 -20.796875 
L 9.078125 54.6875 
L 18.109375 54.6875 
L 18.109375 46.390625 
Q 20.953125 51.265625 25.265625 53.625 
Q 29.59375 56 35.59375 56 
Q 45.5625 56 51.78125 48.09375 
Q 58.015625 40.1875 58.015625 27.296875 
Q 58.015625 14.40625 51.78125 6.484375 
Q 45.5625 -1.421875 35.59375 -1.421875 
Q 29.59375 -1.421875 25.265625 0.953125 
Q 20.953125 3.328125 18.109375 8.203125 
z
M 48.6875 27.296875 
Q 48.6875 37.203125 44.609375 42.84375 
Q 40.53125 48.484375 33.40625 48.484375 
Q 26.265625 48.484375 22.1875 42.84375 
Q 18.109375 37.203125 18.109375 27.296875 
Q 18.109375 17.390625 22.1875 11.75 
Q 26.265625 6.109375 33.40625 6.109375 
Q 40.53125 6.109375 44.609375 11.75 
Q 48.6875 17.390625 48.6875 27.296875 
z
" id="DejaVuSans-70"/>
     </defs>
     <g transform="translate(16.139531 286.001989)rotate(-90)scale(0.17 -0.17)">
      <use xlink:href="#DejaVuSans-46"/>
      <use x="57.410156" xlink:href="#DejaVuSans-72"/>
      <use x="98.523438" xlink:href="#DejaVuSans-61"/>
      <use x="159.802734" xlink:href="#DejaVuSans-63"/>
      <use x="214.783203" xlink:href="#DejaVuSans-74"/>
      <use x="253.992188" xlink:href="#DejaVuSans-69"/>
      <use x="281.775391" xlink:href="#DejaVuSans-6f"/>
      <use x="342.957031" xlink:href="#DejaVuSans-6e"/>
      <use x="406.335938" xlink:href="#DejaVuSans-20"/>
      <use x="438.123047" xlink:href="#DejaVuSans-6f"/>
      <use x="499.304688" xlink:href="#DejaVuSans-66"/>
      <use x="534.509766" xlink:href="#DejaVuSans-20"/>
      <use x="566.296875" xlink:href="#DejaVuSans-66"/>
      <use x="601.501953" xlink:href="#DejaVuSans-75"/>
      <use x="664.880859" xlink:href="#DejaVuSans-6e"/>
      <use x="728.259766" xlink:href="#DejaVuSans-63"/>
      <use x="783.240234" xlink:href="#DejaVuSans-74"/>
      <use x="822.449219" xlink:href="#DejaVuSans-69"/>
      <use x="850.232422" xlink:href="#DejaVuSans-6f"/>
      <use x="911.414062" xlink:href="#DejaVuSans-6e"/>
      <use x="974.792969" xlink:href="#DejaVuSans-2c"/>
      <use x="1006.580078" xlink:href="#DejaVuSans-74"/>
      <use x="1045.789062" xlink:href="#DejaVuSans-61"/>
      <use x="1107.068359" xlink:href="#DejaVuSans-72"/>
      <use x="1148.166016" xlink:href="#DejaVuSans-67"/>
      <use x="1211.642578" xlink:href="#DejaVuSans-65"/>
      <use x="1273.166016" xlink:href="#DejaVuSans-74"/>
      <use x="1312.375" xlink:href="#DejaVuSans-20"/>
      <use x="1344.162109" xlink:href="#DejaVuSans-70"/>
      <use x="1407.638672" xlink:href="#DejaVuSans-61"/>
      <use x="1468.917969" xlink:href="#DejaVuSans-69"/>
      <use x="1496.701172" xlink:href="#DejaVuSans-72"/>
      <use x="1537.814453" xlink:href="#DejaVuSans-73"/>
     </g>
    </g>
   </g>
   <g id="line2d_41">
    <defs>
     <path d="M 0 1.5 
C 0.397805 1.5 0.77937 1.341951 1.06066 1.06066 
C 1.341951 0.77937 1.5 0.397805 1.5 0 
C 1.5 -0.397805 1.341951 -0.77937 1.06066 -1.06066 
C 0.77937 -1.341951 0.397805 -1.5 0 -1.5 
C -0.397805 -1.5 -0.77937 -1.341951 -1.06066 -1.06066 
C -1.341951 -0.77937 -1.5 -0.397805 -1.5 0 
C -1.5 0.397805 -1.341951 0.77937 -1.06066 1.06066 
C -0.77937 1.341951 -0.397805 1.5 0 1.5 
z
" id="mc254d6b901" style="stroke:#f5deb3;"/>
    </defs>
    <g>
     <use style="fill:#f5deb3;stroke:#f5deb3;" x="171.471683" xlink:href="#mc254d6b901" y="9.697057"/>
     <use style="fill:#f5deb3;stroke:#f5deb3;" x="171.471683" xlink:href="#mc254d6b901" y="9.697057"/>
    </g>
   </g>
   <g id="line2d_42">
    <defs>
     <path d="M 0 1.5 
C 0.397805 1.5 0.77937 1.341951 1.06066 1.06066 
C 1.341951 0.77937 1.5 0.397805 1.5 0 
C 1.5 -0.397805 1.341951 -0.77937 1.06066 -1.06066 
C 0.77937 -1.341951 0.397805 -1.5 0 -1.5 
C -0.397805 -1.5 -0.77937 -1.341951 -1.06066 -1.06066 
C -1.341951 -0.77937 -1.5 -0.397805 -1.5 0 
C -1.5 0.397805 -1.341951 0.77937 -1.06066 1.06066 
C -0.77937 1.341951 -0.397805 1.5 0 1.5 
z
" id="m3a6186c287" style="stroke:#000080;"/>
    </defs>
    <g>
     <use style="fill:#000080;stroke:#000080;" x="267.928321" xlink:href="#m3a6186c287" y="54.431636"/>
     <use style="fill:#000080;stroke:#000080;" x="267.928321" xlink:href="#m3a6186c287" y="54.431636"/>
    </g>
   </g>
   <g id="line2d_43">
    <path d="M 37.236359 294.88 
L 37.236359 289.064505 
L 64.900393 289.064505 
L 64.900393 287.051449 
L 75.003641 287.051449 
L 75.003641 225.094056 
L 81.324327 225.094056 
L 81.324327 212.903883 
L 85.935418 212.903883 
L 85.935418 190.98394 
L 89.567532 190.98394 
L 89.567532 181.701514 
L 92.564428 181.701514 
L 92.564428 178.122748 
L 99.303095 178.122748 
L 99.303095 178.010912 
L 101.067579 178.010912 
L 101.067579 177.675402 
L 102.667676 177.675402 
L 102.667676 177.563566 
L 104.131422 177.563566 
L 104.131422 176.557038 
L 105.480242 176.557038 
L 105.480242 176.109692 
L 106.730875 176.109692 
L 106.730875 175.438673 
L 107.896653 175.438673 
L 107.896653 174.543982 
L 108.988361 174.543982 
L 108.988361 174.320309 
L 110.014853 174.320309 
L 110.014853 174.096636 
L 110.983483 174.096636 
L 110.983483 173.64929 
L 111.900428 173.64929 
L 111.900428 172.866435 
L 112.770924 172.866435 
L 112.770924 172.195416 
L 113.599452 172.195416 
L 113.599452 171.748071 
L 114.389873 171.748071 
L 114.389873 171.077052 
L 115.145539 171.077052 
L 115.145539 170.629706 
L 116.563963 170.629706 
L 116.563963 170.18236 
L 117.231566 170.18236 
L 117.231566 169.511342 
L 117.874207 169.511342 
L 117.874207 169.399505 
L 118.493684 169.399505 
L 118.493684 168.728486 
L 119.09161 168.728486 
L 119.09161 168.61665 
L 120.228462 168.61665 
L 120.228462 168.281141 
L 120.769881 168.281141 
L 120.769881 167.721958 
L 121.294766 167.721958 
L 121.294766 167.274613 
L 121.804096 167.274613 
L 121.804096 166.71543 
L 122.298767 166.71543 
L 122.298767 166.268085 
L 122.779599 166.268085 
L 122.779599 165.14972 
L 123.247346 165.14972 
L 123.247346 164.031356 
L 123.7027 164.031356 
L 123.7027 162.912991 
L 124.146303 162.912991 
L 124.146303 162.130136 
L 124.578744 162.130136 
L 124.578744 161.011772 
L 125.000572 161.011772 
L 125.000572 159.893407 
L 125.412295 159.893407 
L 125.412295 158.104024 
L 125.814387 158.104024 
L 125.814387 157.209332 
L 126.207287 157.209332 
L 126.207287 156.65015 
L 126.591406 156.65015 
L 126.591406 155.419949 
L 126.967129 155.419949 
L 126.967129 154.525258 
L 127.334814 154.525258 
L 127.334814 153.742402 
L 127.694799 153.742402 
L 127.694799 151.729346 
L 127.872003 151.729346 
L 127.872003 151.61751 
L 128.047399 151.61751 
L 128.047399 150.610982 
L 128.39291 150.610982 
L 128.39291 148.597926 
L 128.731613 148.597926 
L 128.731613 146.473033 
L 129.063771 146.473033 
L 129.063771 144.571814 
L 129.389632 144.571814 
L 129.389632 142.335085 
L 129.70943 142.335085 
L 129.70943 141.104884 
L 130.023386 141.104884 
L 130.023386 140.210192 
L 130.33171 140.210192 
L 130.33171 137.414281 
L 130.634602 137.414281 
L 130.634602 136.295916 
L 130.932248 136.295916 
L 130.932248 134.61837 
L 131.224827 134.61837 
L 131.224827 131.822459 
L 131.51251 131.822459 
L 131.51251 129.809402 
L 131.795457 129.809402 
L 131.795457 127.237164 
L 132.073821 127.237164 
L 132.073821 125.559617 
L 132.347749 125.559617 
L 132.347749 125.224108 
L 132.61738 125.224108 
L 132.61738 124.329417 
L 133.144276 124.329417 
L 133.144276 123.546561 
L 133.401789 123.546561 
L 133.401789 122.763706 
L 133.6555 122.763706 
L 133.6555 122.65187 
L 133.905521 122.65187 
L 133.905521 121.645342 
L 134.151957 121.645342 
L 134.151957 120.638814 
L 134.39491 120.638814 
L 134.39491 119.855959 
L 134.634477 119.855959 
L 134.634477 119.632286 
L 134.87075 119.632286 
L 134.87075 119.408613 
L 135.10382 119.408613 
L 135.10382 119.073103 
L 135.333772 119.073103 
L 135.333772 118.849431 
L 135.560688 118.849431 
L 135.560688 118.290248 
L 135.784647 118.290248 
L 135.784647 117.507393 
L 136.005725 117.507393 
L 136.005725 117.060047 
L 136.223997 117.060047 
L 136.223997 116.500865 
L 136.439531 116.500865 
L 136.439531 116.389029 
L 136.652396 116.389029 
L 136.652396 116.165356 
L 136.862657 116.165356 
L 136.862657 115.941683 
L 137.070377 115.941683 
L 137.070377 115.606174 
L 137.478435 115.606174 
L 137.478435 115.494337 
L 137.678888 115.494337 
L 137.678888 115.270664 
L 137.87703 115.270664 
L 137.87703 114.935155 
L 138.266591 114.935155 
L 138.266591 114.823318 
L 138.458109 114.823318 
L 138.458109 114.487809 
L 138.647518 114.487809 
L 138.647518 114.375973 
L 138.834862 114.375973 
L 138.834862 114.1523 
L 139.203533 114.1523 
L 139.203533 114.040463 
L 140.60389 114.040463 
L 140.60389 113.81679 
L 140.771177 113.81679 
L 140.771177 113.704954 
L 140.936852 113.704954 
L 140.936852 113.593118 
L 142.360172 113.593118 
L 142.360172 113.369445 
L 142.511282 113.369445 
L 142.511282 113.257608 
L 142.809574 113.257608 
L 142.809574 113.145772 
L 143.102777 113.145772 
L 143.102777 113.033935 
L 146.157718 113.033935 
L 146.157718 112.922099 
L 148.433916 112.922099 
L 148.433916 112.810262 
L 151.003421 112.810262 
L 151.094972 112.586589 
L 151.8977 112.586589 
L 151.8977 112.474753 
L 154.779183 112.474753 
L 154.779183 112.362917 
L 155.143749 112.362917 
L 155.143749 112.25108 
L 156.193228 112.25108 
L 156.193228 112.139244 
L 157.309979 112.139244 
L 157.309979 112.027407 
L 157.625086 112.027407 
L 157.625086 111.803734 
L 157.995745 111.803734 
L 157.995745 111.691898 
L 158.358579 111.691898 
L 158.358579 111.580061 
L 158.655198 111.580061 
L 158.655198 111.468225 
L 158.888862 111.468225 
L 158.888862 111.356389 
L 159.119392 111.356389 
L 159.119392 111.244552 
L 159.403273 111.244552 
L 159.403273 111.132716 
L 160.334837 111.132716 
L 160.334837 111.020879 
L 163.537454 111.020879 
L 163.537454 110.909043 
L 163.97457 110.909043 
L 163.97457 110.797206 
L 164.103566 110.797206 
L 164.103566 110.349861 
L 164.274068 110.349861 
L 164.358689 110.126188 
L 165.021066 110.126188 
L 165.021066 110.014351 
L 167.825201 110.014351 
L 167.894059 109.678842 
L 168.368492 109.678842 
L 168.401884 109.455169 
L 168.732286 109.455169 
L 168.732286 109.343332 
L 169.53153 109.343332 
L 169.624989 109.11966 
L 170.175317 109.11966 
L 170.23539 108.672314 
L 170.325109 108.672314 
L 170.414363 108.448641 
L 171.055097 108.448641 
L 171.112179 108.224968 
L 172.24242 108.224968 
L 172.24242 108.113132 
L 172.480879 108.113132 
L 172.480879 108.001295 
L 172.896805 108.001295 
L 172.948095 107.330276 
L 173.075655 107.330276 
L 173.126416 107.106604 
L 175.110772 107.106604 
L 175.110772 106.882931 
L 178.202241 106.882931 
L 178.202241 106.771094 
L 178.371173 106.771094 
L 178.371173 106.659258 
L 179.351313 106.659258 
L 179.386562 106.435585 
L 179.73514 106.435585 
L 179.838349 106.100075 
L 179.975005 106.100075 
L 179.975005 105.988239 
L 182.994345 105.988239 
L 182.994345 105.876403 
L 184.046262 105.876403 
L 184.153336 105.205384 
L 184.21992 105.205384 
L 184.21992 105.093547 
L 184.339125 105.093547 
L 184.339125 104.981711 
L 185.512474 104.981711 
L 185.512474 104.869875 
L 186.18935 104.869875 
L 186.236694 103.863347 
L 186.330991 103.863347 
L 186.436461 102.633146 
L 186.44814 102.633146 
L 186.529672 101.291108 
L 186.999602 101.291108 
L 187.089817 100.955599 
L 187.112297 100.955599 
L 187.112297 100.843762 
L 187.302197 100.843762 
L 187.302197 100.731926 
L 187.446013 100.731926 
L 187.446013 100.62009 
L 188.740078 100.62009 
L 188.740078 100.508253 
L 189.362178 100.508253 
L 189.362178 100.396417 
L 194.215023 100.396417 
L 194.311349 100.172744 
L 196.139154 100.172744 
L 196.139154 100.060907 
L 196.317602 100.060907 
L 196.317602 99.949071 
L 196.585084 99.949071 
L 196.694781 99.613561 
L 197.639604 99.613561 
L 197.639604 99.501725 
L 197.977209 99.501725 
L 197.977209 99.389889 
L 198.325868 99.389889 
L 198.325868 99.278052 
L 198.684792 99.278052 
L 198.684792 99.166216 
L 198.85581 99.166216 
L 198.85581 99.054379 
L 200.931786 99.054379 
L 200.992005 98.830706 
L 201.737056 98.830706 
L 201.847033 97.824178 
L 201.866088 97.824178 
L 201.870848 97.488669 
L 202.149404 97.488669 
L 202.154086 97.264996 
L 202.261435 97.264996 
L 202.358868 96.81765 
L 202.381985 96.81765 
L 202.487924 95.587449 
L 203.642181 95.587449 
L 203.642181 95.475613 
L 205.722318 95.475613 
L 205.722318 95.363776 
L 206.994163 95.363776 
L 206.994163 95.25194 
L 207.673034 95.25194 
L 207.673034 95.140104 
L 209.205604 95.140104 
L 209.205604 95.028267 
L 209.791924 95.028267 
L 209.878769 94.804594 
L 210.065935 94.804594 
L 210.169042 94.133576 
L 210.192523 94.133576 
L 210.300706 93.798066 
L 210.379223 93.798066 
L 210.448716 93.238884 
L 210.494889 93.238884 
L 210.589731 92.903375 
L 210.780694 92.903375 
L 210.780694 92.791538 
L 211.838705 92.791538 
L 211.838705 92.679702 
L 215.222051 92.679702 
L 215.25267 92.456029 
L 215.415777 92.456029 
L 215.469804 92.232356 
L 215.562335 92.232356 
L 215.575206 92.008683 
L 215.679966 92.008683 
L 215.790447 91.113991 
L 215.866519 91.113991 
L 215.963235 90.778482 
L 216.005117 90.778482 
L 216.086493 90.331136 
L 217.301885 90.331136 
L 217.301885 90.2193 
L 217.460196 90.2193 
L 217.492834 89.995627 
L 217.590381 89.995627 
L 217.590381 89.88379 
L 219.581766 89.88379 
L 219.598743 89.660118 
L 219.700259 89.660118 
L 219.796146 88.65359 
L 219.821291 88.65359 
L 219.913176 88.206244 
L 219.946467 88.206244 
L 220.050915 87.311552 
L 220.062481 87.311552 
L 220.13665 86.864206 
L 221.530777 86.864206 
L 221.530777 86.75237 
L 222.725742 86.75237 
L 222.725742 86.640533 
L 222.882057 86.640533 
L 222.975727 86.305024 
L 223.002197 86.305024 
L 223.093831 85.969515 
L 223.140847 85.969515 
L 223.231746 84.403805 
L 223.257826 84.403805 
L 223.361749 83.956459 
L 224.827081 83.956459 
L 224.827081 83.844622 
L 224.994019 83.844622 
L 224.994019 83.732786 
L 225.678216 83.732786 
L 225.763784 83.397276 
L 225.811138 83.397276 
L 225.916035 82.614421 
L 225.973515 82.614421 
L 226.076265 81.943403 
L 226.089065 81.943403 
L 226.089065 81.831566 
L 226.239628 81.831566 
L 226.239628 81.71973 
L 226.356845 81.71973 
L 226.356845 81.607893 
L 226.537987 81.607893 
L 226.537987 81.496057 
L 227.490262 81.496057 
L 227.490262 81.38422 
L 227.773125 81.38422 
L 227.773125 81.272384 
L 228.043105 81.272384 
L 228.137328 81.048711 
L 228.221792 81.048711 
L 228.330366 80.825038 
L 228.343634 80.825038 
L 228.441301 80.265856 
L 228.462592 80.265856 
L 228.529336 79.81851 
L 229.590956 79.81851 
L 229.590956 79.706674 
L 230.050639 79.706674 
L 230.105978 79.483001 
L 230.280054 79.483001 
L 230.382753 78.923819 
L 230.41896 78.923819 
L 230.469522 78.476473 
L 230.580059 78.476473 
L 230.668514 77.917291 
L 231.626947 77.917291 
L 231.626947 77.805454 
L 231.926901 77.805454 
L 231.95752 77.469945 
L 232.103244 77.469945 
L 232.180136 77.134435 
L 232.241239 77.134435 
L 232.344215 76.575253 
L 232.375714 76.575253 
L 232.48591 75.792398 
L 232.574677 75.792398 
L 232.574677 75.680562 
L 233.899792 75.680562 
L 234.008005 75.456889 
L 234.038798 75.456889 
L 234.043192 75.233216 
L 234.178868 75.233216 
L 234.260052 74.897706 
L 235.31532 74.897706 
L 235.381839 74.674034 
L 235.476423 74.674034 
L 235.577857 74.114851 
L 235.642703 74.114851 
L 235.715281 73.779342 
L 235.761729 73.779342 
L 235.789537 73.555669 
L 236.728025 73.555669 
L 236.728025 73.443833 
L 236.93475 73.443833 
L 237.011944 72.88465 
L 237.047029 72.88465 
L 237.053177 72.660977 
L 238.030486 72.660977 
L 238.030486 72.549141 
L 238.184266 72.549141 
L 238.284691 71.989959 
L 238.31499 71.989959 
L 238.406705 71.207104 
L 238.469087 71.207104 
L 238.550973 70.871594 
L 239.336159 70.871594 
L 239.408131 70.647921 
L 239.463249 70.647921 
L 239.533096 70.312412 
L 239.589407 70.312412 
L 239.645005 69.865066 
L 240.563151 69.865066 
L 240.661097 69.305884 
L 240.680022 69.305884 
L 240.789675 68.746702 
L 240.813399 68.746702 
L 240.813399 68.634865 
L 241.609619 68.634865 
L 241.718203 67.963847 
L 241.748634 67.963847 
L 241.816791 67.292828 
L 242.628045 67.292828 
L 242.714047 66.398136 
L 242.821169 66.398136 
L 242.872508 66.174463 
L 243.410374 66.174463 
L 243.52043 65.838954 
L 243.610908 65.838954 
L 243.610908 65.727118 
L 244.353495 65.727118 
L 244.442503 65.503445 
L 244.469674 65.503445 
L 244.568012 64.944263 
L 244.582694 64.944263 
L 244.614397 64.608753 
L 245.288711 64.608753 
L 245.37529 63.937735 
L 245.417283 63.937735 
L 245.501339 63.602225 
L 245.544525 63.602225 
L 245.544525 63.490389 
L 246.070854 63.490389 
L 246.136568 63.266716 
L 246.222956 63.266716 
L 246.222956 63.154879 
L 246.745658 63.154879 
L 246.745658 63.043043 
L 246.862427 63.043043 
L 246.942141 62.81937 
L 246.988757 62.81937 
L 247.089157 62.372024 
L 247.147339 62.372024 
L 247.2458 62.036515 
L 247.699074 62.036515 
L 247.798382 61.589169 
L 248.412335 61.589169 
L 248.412335 61.477333 
L 248.530961 61.477333 
L 248.543252 61.25366 
L 249.103884 61.25366 
L 249.130086 61.029987 
L 249.601841 61.029987 
L 249.601841 60.91815 
L 249.764574 60.91815 
L 249.832512 60.694478 
L 249.930722 60.694478 
L 249.930722 60.582641 
L 250.250006 60.582641 
L 250.35579 60.358968 
L 250.410983 60.358968 
L 250.481203 60.023459 
L 251.043224 60.023459 
L 251.043224 59.911622 
L 251.554696 59.911622 
L 251.636726 59.576113 
L 252.079105 59.576113 
L 252.171435 59.240604 
L 252.28153 59.240604 
L 252.34427 58.905094 
L 252.644907 58.905094 
L 252.733268 58.457749 
L 253.278273 58.457749 
L 253.278273 58.345912 
L 253.471152 58.345912 
L 253.471152 58.234076 
L 253.746352 58.234076 
L 253.758683 58.010403 
L 254.21403 58.010403 
L 254.301686 57.674893 
L 254.34737 57.674893 
L 254.350067 57.451221 
L 254.82653 57.451221 
L 254.82653 57.339384 
L 255.306515 57.339384 
L 255.306515 57.227548 
L 255.791447 57.227548 
L 255.791447 57.115711 
L 256.126222 57.115711 
L 256.214754 56.668365 
L 256.600506 56.668365 
L 256.600506 56.556529 
L 256.725233 56.556529 
L 256.725233 56.444692 
L 257.810115 56.444692 
L 257.841139 56.22102 
L 258.257525 56.22102 
L 258.257525 56.109183 
L 259.055567 56.109183 
L 259.055567 55.997347 
L 259.38462 55.997347 
L 259.427988 55.773674 
L 259.762031 55.773674 
L 259.782849 55.550001 
L 260.135827 55.550001 
L 260.135827 55.438164 
L 260.802086 55.438164 
L 260.802086 55.326328 
L 261.480771 55.326328 
L 261.480771 55.214492 
L 262.803953 55.214492 
L 262.803953 55.102655 
L 264.180916 55.102655 
L 264.216773 54.878982 
L 264.43223 54.878982 
L 264.43223 54.767146 
L 265.225706 54.767146 
L 265.225706 54.655309 
L 265.616179 54.655309 
L 265.616179 54.543473 
L 267.928321 54.543473 
L 267.928321 54.431636 
L 333.168 54.431636 
L 333.168 54.431636 
" style="fill:none;stroke:#000080;stroke-linecap:square;stroke-width:1.5;"/>
   </g>
   <g id="line2d_44">
    <defs>
     <path d="M 0 6 
C 1.591219 6 3.117479 5.367802 4.242641 4.242641 
C 5.367802 3.117479 6 1.591219 6 0 
C 6 -1.591219 5.367802 -3.117479 4.242641 -4.242641 
C 3.117479 -5.367802 1.591219 -6 0 -6 
C -1.591219 -6 -3.117479 -5.367802 -4.242641 -4.242641 
C -5.367802 -3.117479 -6 -1.591219 -6 0 
C -6 1.591219 -5.367802 3.117479 -4.242641 4.242641 
C -3.117479 5.367802 -1.591219 6 0 6 
z
" id="m38a85198c8" style="stroke:#000080;stroke-width:1.5;"/>
    </defs>
    <g>
     <use style="fill:none;stroke:#000080;stroke-width:1.5;" x="64.900393" xlink:href="#m38a85198c8" y="287.051449"/>
     <use style="fill:none;stroke:#000080;stroke-width:1.5;" x="131.795457" xlink:href="#m38a85198c8" y="129.809402"/>
     <use style="fill:none;stroke:#000080;stroke-width:1.5;" x="179.975005" xlink:href="#m38a85198c8" y="105.988239"/>
     <use style="fill:none;stroke:#000080;stroke-width:1.5;" x="267.928321" xlink:href="#m38a85198c8" y="54.543473"/>
     <use style="fill:none;stroke:#000080;stroke-width:1.5;" x="267.928321" xlink:href="#m38a85198c8" y="54.431636"/>
     <use style="fill:none;stroke:#000080;stroke-width:1.5;" x="333.168" xlink:href="#m38a85198c8" y="54.431636"/>
    </g>
   </g>
   <g id="line2d_45">
    <path style="fill:none;stroke:#000080;stroke-linecap:square;stroke-width:1.5;"/>
    <g/>
   </g>
   <g id="line2d_46">
    <path clip-path="url(#pdfedfa7ef4)" d="M 194.390598 100.172744 
" style="fill:none;stroke:#000080;stroke-linecap:square;stroke-width:1.5;"/>
    <defs>
     <path d="M -12 12 
L 12 -12 
M -12 -12 
L 12 12 
" id="mcd7167ccd6" style="stroke:#000080;"/>
    </defs>
    <g clip-path="url(#pdfedfa7ef4)">
     <use style="fill:#000080;stroke:#000080;" x="194.390598" xlink:href="#mcd7167ccd6" y="100.172744"/>
    </g>
   </g>
   <g id="line2d_47">
    <defs>
     <path d="M 0 1.5 
C 0.397805 1.5 0.77937 1.341951 1.06066 1.06066 
C 1.341951 0.77937 1.5 0.397805 1.5 0 
C 1.5 -0.397805 1.341951 -0.77937 1.06066 -1.06066 
C 0.77937 -1.341951 0.397805 -1.5 0 -1.5 
C -0.397805 -1.5 -0.77937 -1.341951 -1.06066 -1.06066 
C -1.341951 -0.77937 -1.5 -0.397805 -1.5 0 
C -1.5 0.397805 -1.341951 0.77937 -1.06066 1.06066 
C -0.77937 1.341951 -0.397805 1.5 0 1.5 
z
" id="mfec954ba12" style="stroke:#ff00ff;"/>
    </defs>
    <g>
     <use style="fill:#ff00ff;stroke:#ff00ff;" x="211.624829" xlink:href="#mfec954ba12" y="110.349861"/>
     <use style="fill:#ff00ff;stroke:#ff00ff;" x="211.624829" xlink:href="#mfec954ba12" y="110.349861"/>
    </g>
   </g>
   <g id="line2d_48">
    <path d="M 37.236359 294.88 
L 37.236359 285.821248 
L 82.598142 285.821248 
L 82.598142 285.709411 
L 91.131212 285.709411 
L 91.131212 285.597575 
L 91.862754 285.597575 
L 91.862754 285.262065 
L 92.564428 285.262065 
L 92.564428 285.150229 
L 93.238578 285.150229 
L 93.238578 285.038393 
L 93.887283 285.038393 
L 93.887283 284.81472 
L 94.512393 284.81472 
L 94.512393 284.47921 
L 95.115564 284.47921 
L 95.115564 284.367374 
L 95.698286 284.367374 
L 95.698286 284.031865 
L 96.261898 284.031865 
L 96.261898 283.808192 
L 97.849669 283.808192 
L 97.849669 283.584519 
L 98.347925 283.584519 
L 98.347925 283.472682 
L 98.832144 283.472682 
L 98.832144 283.249009 
L 99.303095 283.249009 
L 99.303095 283.137173 
L 100.207968 283.137173 
L 100.207968 283.025336 
L 100.643147 283.025336 
L 100.643147 282.689827 
L 101.067579 282.689827 
L 101.067579 282.242481 
L 101.481783 282.242481 
L 101.481783 281.01228 
L 102.281398 281.01228 
L 102.281398 280.453098 
L 102.667676 280.453098 
L 102.667676 279.782079 
L 103.045463 279.782079 
L 103.045463 279.44657 
L 103.415125 279.44657 
L 103.415125 278.440042 
L 103.777005 278.440042 
L 103.777005 277.769023 
L 104.131422 277.769023 
L 104.131422 276.986168 
L 104.478679 276.986168 
L 104.478679 276.538822 
L 104.819059 276.538822 
L 104.819059 275.755967 
L 105.152829 275.755967 
L 105.152829 275.532294 
L 105.480242 275.532294 
L 105.480242 275.308622 
L 105.801534 275.308622 
L 105.801534 275.084949 
L 106.11693 275.084949 
L 106.11693 274.302094 
L 106.426644 274.302094 
L 106.426644 271.170673 
L 106.730875 271.170673 
L 106.730875 270.947 
L 107.323646 270.947 
L 107.323646 270.723327 
L 107.896653 270.723327 
L 107.896653 264.460486 
L 109.250788 264.460486 
L 109.250788 264.34865 
L 110.505991 264.34865 
L 110.505991 264.236813 
L 110.746395 264.236813 
L 110.746395 264.124977 
L 111.217346 264.124977 
L 111.217346 264.01314 
L 111.448069 264.01314 
L 111.448069 263.901304 
L 111.900428 263.901304 
L 111.900428 263.677631 
L 112.122219 263.677631 
L 112.122219 263.565795 
L 112.770924 263.565795 
L 112.770924 263.453958 
L 112.98183 263.453958 
L 112.98183 263.230285 
L 113.396034 263.230285 
L 113.396034 263.118449 
L 113.599452 263.118449 
L 113.599452 262.894776 
L 114.581927 262.894776 
L 114.581927 262.782939 
L 114.959714 262.782939 
L 114.959714 262.671103 
L 116.39293 262.671103 
L 116.39293 262.44743 
L 116.563963 262.44743 
L 116.563963 262.335594 
L 116.901005 262.335594 
L 116.901005 262.223757 
L 117.06708 262.223757 
L 117.06708 261.888248 
L 117.55589 261.888248 
L 117.55589 261.664575 
L 117.715785 261.664575 
L 117.715785 261.552738 
L 117.874207 261.552738 
L 117.874207 261.217229 
L 118.031182 261.217229 
L 118.031182 261.105393 
L 118.186736 261.105393 
L 118.186736 260.88172 
L 118.340895 260.88172 
L 118.340895 260.434374 
L 118.493684 260.434374 
L 118.493684 260.210701 
L 118.645127 260.210701 
L 118.645127 259.539682 
L 118.795247 259.539682 
L 118.795247 259.427846 
L 118.944067 259.427846 
L 118.944067 259.204173 
L 119.382949 259.204173 
L 119.382949 259.092337 
L 119.669433 259.092337 
L 119.669433 258.9805 
L 119.810904 258.9805 
L 119.810904 258.756827 
L 119.95122 258.756827 
L 119.95122 258.533154 
L 120.0904 258.533154 
L 120.0904 258.309481 
L 120.228462 258.309481 
L 120.228462 258.085809 
L 120.365424 258.085809 
L 120.365424 257.973972 
L 120.636117 257.973972 
L 120.636117 257.750299 
L 121.034327 257.750299 
L 121.034327 257.638463 
L 121.294766 257.638463 
L 121.294766 257.41479 
L 121.551317 257.41479 
L 121.551317 257.302953 
L 121.678171 257.302953 
L 121.678171 257.191117 
L 121.804096 257.191117 
L 121.804096 257.079281 
L 121.929105 257.079281 
L 121.929105 256.967444 
L 122.053211 256.967444 
L 122.053211 256.743771 
L 122.176427 256.743771 
L 122.176427 256.631935 
L 122.660646 256.631935 
L 122.660646 256.520098 
L 123.589988 256.520098 
L 123.589988 256.408262 
L 124.036471 256.408262 
L 124.146303 255.960916 
L 124.255437 255.960916 
L 124.255437 255.401734 
L 124.471649 255.401734 
L 124.578744 254.954388 
L 124.685175 254.954388 
L 124.790952 254.618879 
L 124.896081 254.618879 
L 125.000572 254.171533 
L 125.104431 254.171533 
L 125.104431 253.500514 
L 125.310285 253.500514 
L 125.412295 243.770743 
L 125.513703 243.770743 
L 125.614517 243.323397 
L 125.714742 243.323397 
L 125.714742 243.099724 
L 126.011959 243.099724 
L 126.109901 242.428706 
L 126.207287 242.428706 
L 126.207287 242.316869 
L 126.591406 242.316869 
L 126.68611 242.093196 
L 126.780294 242.093196 
L 126.873966 241.869524 
L 126.967129 241.869524 
L 127.05979 241.198505 
L 127.151955 241.198505 
L 127.243628 240.862996 
L 127.334814 240.862996 
L 127.42552 240.41565 
L 127.515749 240.41565 
L 127.605507 240.191977 
L 127.694799 240.191977 
L 127.783629 239.297285 
L 127.872003 239.297285 
L 127.959924 238.51443 
L 128.047399 238.51443 
L 128.13443 238.178921 
L 128.221023 238.178921 
L 128.307181 237.619739 
L 128.39291 237.619739 
L 128.39291 236.501374 
L 128.563096 236.501374 
L 128.647561 236.277701 
L 128.731613 236.277701 
L 128.815257 235.718519 
L 128.898495 235.718519 
L 128.981332 235.0475 
L 129.063771 235.0475 
L 129.145817 233.817299 
L 129.308744 233.817299 
L 129.389632 232.810771 
L 129.550274 232.810771 
L 129.630036 232.251589 
L 129.70943 232.251589 
L 129.788458 231.245061 
L 129.867125 231.245061 
L 129.945433 230.350369 
L 130.023386 230.350369 
L 130.100987 229.903024 
L 130.178239 229.903024 
L 130.255146 228.672823 
L 130.33171 228.672823 
L 130.407935 227.442622 
L 130.483823 227.442622 
L 130.483823 226.54793 
L 130.709498 226.54793 
L 130.784069 226.212421 
L 130.858318 226.212421 
L 130.932248 225.429566 
L 131.005861 225.429566 
L 131.07916 224.98222 
L 131.152148 224.98222 
L 131.224827 223.975692 
L 131.2972 223.975692 
L 131.36927 223.081 
L 131.441039 223.081 
L 131.51251 222.186309 
L 131.583684 222.186309 
L 131.654565 221.738963 
L 131.725155 221.738963 
L 131.795457 221.067944 
L 131.865471 221.067944 
L 131.865471 220.508762 
L 132.004651 220.508762 
L 132.073821 220.061416 
L 132.142713 220.061416 
L 132.211331 219.054888 
L 132.279675 219.054888 
L 132.279675 218.719379 
L 132.483094 218.719379 
L 132.550368 217.936524 
L 132.61738 217.936524 
L 132.684132 216.818159 
L 132.750626 216.818159 
L 132.816864 216.370813 
L 132.882847 216.370813 
L 132.948578 214.91694 
L 133.014059 214.91694 
L 133.079291 213.798575 
L 133.144276 213.798575 
L 133.209017 213.351229 
L 133.273515 213.351229 
L 133.273515 213.127556 
L 133.401789 213.127556 
L 133.465568 212.456538 
L 133.529112 212.456538 
L 133.592422 211.673683 
L 133.6555 211.673683 
L 133.718347 211.1145 
L 133.780965 211.1145 
L 133.843356 210.107972 
L 133.905521 210.107972 
L 133.905521 209.54879 
L 134.029181 209.54879 
L 134.090678 209.101444 
L 134.151957 209.101444 
L 134.213018 208.318589 
L 134.273863 208.318589 
L 134.334493 207.200225 
L 134.39491 207.200225 
L 134.455115 206.641042 
L 134.574897 206.641042 
L 134.634477 206.417369 
L 134.69385 206.417369 
L 134.69385 205.858187 
L 134.811986 205.858187 
L 134.87075 205.299005 
L 134.929315 205.299005 
L 134.98768 205.075332 
L 135.045848 205.075332 
L 135.045848 204.851659 
L 135.161597 204.851659 
L 135.21918 204.51615 
L 135.276571 204.51615 
L 135.276571 204.292477 
L 135.390782 204.292477 
L 135.447604 203.062276 
L 135.504239 203.062276 
L 135.504239 202.726767 
L 135.616951 202.726767 
L 135.673032 202.391257 
L 135.72893 202.391257 
L 135.784647 202.055748 
L 135.840184 202.055748 
L 135.950722 201.384729 
L 136.005725 201.384729 
L 136.115208 200.937384 
L 136.169688 200.937384 
L 136.278134 200.154528 
L 136.332102 200.154528 
L 136.3859 199.707183 
L 136.492995 199.707183 
L 136.599426 198.700655 
L 136.652396 198.700655 
L 136.757848 198.253309 
L 136.810332 198.253309 
L 136.914823 197.246781 
L 136.966831 197.246781 
L 137.070377 196.687599 
L 137.121917 196.687599 
L 137.224536 193.108832 
L 137.326546 193.108832 
L 137.427955 192.437813 
L 137.528768 192.437813 
L 137.628993 191.654958 
L 137.678888 191.654958 
L 137.728638 191.207613 
L 137.87703 191.207613 
L 137.975251 190.760267 
L 138.170025 190.760267 
L 138.218376 190.312921 
L 138.362617 190.312921 
L 138.458109 189.530066 
L 138.505658 189.530066 
L 138.553074 189.08272 
L 138.694545 189.08272 
L 138.694545 187.405173 
L 139.020186 187.405173 
L 139.066206 187.1815 
L 139.339771 187.1815 
L 139.43 186.957828 
L 139.742124 186.957828 
L 139.742124 186.845991 
L 139.96165 186.845991 
L 139.96165 186.734155 
L 140.477347 186.734155 
L 140.477347 186.622318 
L 140.687737 186.622318 
L 140.687737 186.510482 
L 140.812746 186.510482 
L 140.895583 186.063136 
L 140.936852 186.063136 
L 141.019094 185.727627 
L 141.344185 185.727627 
L 141.424506 185.392117 
L 141.66324 185.392117 
L 141.742087 185.056608 
L 141.859684 185.056608 
L 141.937637 183.043552 
L 141.976481 183.043552 
L 142.015238 181.589678 
L 142.130987 181.589678 
L 142.130987 181.366005 
L 142.284116 181.366005 
L 142.322186 180.918659 
L 142.586342 180.918659 
L 142.586342 180.806823 
L 142.735485 180.806823 
L 142.846499 180.58315 
L 142.956801 180.58315 
L 143.029944 180.359477 
L 143.102777 180.359477 
L 143.139078 177.899075 
L 143.283522 177.899075 
L 143.283522 177.787239 
L 143.533413 177.787239 
L 143.639406 177.339893 
L 143.674593 177.339893 
L 143.744751 177.11622 
L 143.918903 177.11622 
L 143.988072 176.892547 
L 144.125582 176.892547 
L 144.227997 176.557038 
L 144.363608 176.557038 
L 144.431015 176.221528 
L 144.664877 176.221528 
L 144.698028 175.997856 
L 144.797098 175.997856 
L 144.797098 175.886019 
L 144.993542 175.886019 
L 145.058527 175.662346 
L 145.219924 175.662346 
L 145.219924 175.55051 
L 145.819772 175.55051 
L 145.9126 175.215 
L 146.096766 175.215 
L 146.096766 175.103164 
L 146.218456 175.103164 
L 146.218456 174.991328 
L 146.39939 174.991328 
L 146.39939 174.767655 
L 146.548728 174.767655 
L 146.548728 174.655818 
L 146.696779 174.655818 
L 146.696779 174.543982 
L 146.960099 174.543982 
L 147.018071 174.320309 
L 147.190823 174.320309 
L 147.276552 173.9848 
L 147.305033 173.9848 
L 147.361855 173.090108 
L 147.446737 173.090108 
L 147.503094 172.08358 
L 147.615255 172.08358 
L 147.615255 171.971743 
L 147.809793 171.971743 
L 147.809793 171.748071 
L 148.083939 171.748071 
L 148.192385 171.300725 
L 148.273273 171.300725 
L 148.380535 170.070524 
L 148.433916 170.070524 
L 148.540183 169.735014 
L 148.724584 169.735014 
L 148.803011 169.399505 
L 148.855098 169.399505 
L 148.881082 169.175832 
L 149.036169 169.175832 
L 149.11319 168.728486 
L 149.240798 168.728486 
L 149.31691 168.392977 
L 149.443019 168.392977 
L 149.493205 168.169304 
L 149.593139 168.169304 
L 149.593139 168.057468 
L 150.011494 168.057468 
L 150.011494 167.945631 
L 150.204899 167.945631 
L 150.300791 166.156248 
L 150.372361 166.156248 
L 150.467326 165.820739 
L 150.679098 165.820739 
L 150.772388 165.373393 
L 150.818844 165.373393 
L 150.818844 165.14972 
L 150.957462 165.14972 
L 151.003421 163.2485 
L 151.276624 163.2485 
L 151.321738 163.024828 
L 151.501022 163.024828 
L 151.589967 162.689318 
L 151.656375 162.689318 
L 151.700505 162.130136 
L 151.788427 162.130136 
L 151.832219 161.906463 
L 151.962932 161.906463 
L 152.071105 161.235444 
L 152.092658 161.235444 
L 152.20002 160.899935 
L 152.454986 160.899935 
L 152.454986 160.788099 
L 152.726997 160.788099 
L 152.726997 160.676262 
L 152.953845 160.676262 
L 152.97432 160.452589 
L 153.157504 160.452589 
L 153.157504 160.340753 
L 153.358778 160.340753 
L 153.378777 160.11708 
L 153.537932 160.11708 
L 153.537932 160.005243 
L 153.656339 160.005243 
L 153.754391 159.446061 
L 153.793457 159.446061 
L 153.890733 158.775043 
L 154.102822 158.775043 
L 154.102822 158.663206 
L 154.331245 158.663206 
L 154.425533 157.209332 
L 154.463104 157.209332 
L 154.463104 157.097496 
L 154.705333 157.097496 
L 154.705333 156.985659 
L 154.889367 156.985659 
L 154.98065 156.314641 
L 155.017028 156.314641 
L 155.05333 156.090968 
L 155.465375 156.090968 
L 155.465375 155.979131 
L 155.693974 155.979131 
L 155.798464 155.531786 
L 155.833154 155.531786 
L 155.867773 154.972603 
L 156.074039 154.972603 
L 156.142248 154.637094 
L 156.311596 154.637094 
L 156.37887 153.51873 
L 156.529282 153.51873 
L 156.529282 153.406893 
L 156.858892 153.406893 
L 156.858892 153.295057 
L 156.972779 153.295057 
L 156.988987 153.071384 
L 157.118104 153.071384 
L 157.150232 152.847711 
L 157.26221 152.847711 
L 157.357615 152.624038 
L 157.389299 152.624038 
L 157.389299 152.512201 
L 157.593834 152.512201 
L 157.68742 152.176692 
L 157.749529 152.176692 
L 157.842274 151.729346 
L 157.888459 151.729346 
L 157.934521 151.505673 
L 158.087174 151.505673 
L 158.19323 151.282001 
L 158.208328 151.282001 
L 158.208328 151.058328 
L 158.448103 151.058328 
L 158.448103 150.946491 
L 158.72856 150.946491 
L 158.72856 150.834655 
L 158.859827 150.834655 
L 158.946785 150.163636 
L 159.090744 150.163636 
L 159.162274 149.939963 
L 159.276106 149.939963 
L 159.375095 149.71629 
L 159.403273 149.71629 
L 159.403273 149.604454 
L 159.64094 149.604454 
L 159.751656 149.268944 
L 159.902736 149.268944 
L 159.902736 149.157108 
L 160.066049 149.157108 
L 160.174069 148.933435 
L 160.227826 148.933435 
L 160.268033 148.709762 
L 160.414661 148.709762 
L 160.441186 148.038744 
L 160.691159 148.038744 
L 160.782346 147.703234 
L 160.821278 147.703234 
L 160.911779 146.920379 
L 160.937549 146.920379 
L 161.040245 146.58487 
L 161.129603 146.58487 
L 161.231161 146.137524 
L 161.306937 146.137524 
L 161.394923 145.913851 
L 161.482461 145.913851 
L 161.569555 145.466505 
L 161.606747 145.466505 
L 161.606747 145.354669 
L 161.742431 145.354669 
L 161.840442 145.019159 
L 161.925746 145.019159 
L 161.925746 144.907323 
L 162.071002 144.907323 
L 162.143173 144.459977 
L 162.274704 144.459977 
L 162.33416 144.236304 
L 162.49955 144.236304 
L 162.546514 143.788959 
L 162.721493 143.788959 
L 162.814092 143.453449 
L 162.837164 143.453449 
L 162.837164 143.341613 
L 162.997806 143.341613 
L 163.077568 143.006103 
L 163.224722 143.006103 
L 163.325865 142.670594 
L 163.370627 142.670594 
L 163.459803 141.999575 
L 163.482025 141.999575 
L 163.537454 141.664066 
L 163.658773 141.664066 
L 163.768325 141.104884 
L 163.811951 141.104884 
L 163.866328 140.769374 
L 163.931355 140.769374 
L 164.028436 140.433865 
L 164.071407 140.433865 
L 164.114272 140.098356 
L 164.30585 140.098356 
L 164.390315 139.762846 
L 164.453392 139.762846 
L 164.453392 139.65101 
L 164.589272 139.65101 
L 164.620476 139.427337 
L 165.021066 139.427337 
L 165.122295 138.979991 
L 165.172687 138.979991 
L 165.172687 138.868155 
L 165.293028 138.868155 
L 165.293028 138.756318 
L 165.442279 138.756318 
L 165.442279 138.644482 
L 165.58042 138.644482 
L 165.678417 138.420809 
L 165.727207 138.420809 
L 165.824373 138.0853 
L 165.9691 138.0853 
L 166.007489 137.861627 
L 166.207636 137.861627 
L 166.207636 137.74979 
L 166.517519 137.74979 
L 166.619584 137.302445 
L 166.711847 137.302445 
L 166.794463 136.743262 
L 167.003805 136.743262 
L 167.067016 136.519589 
L 167.174838 136.519589 
L 167.237423 136.295916 
L 167.308672 136.295916 
L 167.335314 136.072244 
L 167.467909 136.072244 
L 167.564499 135.848571 
L 167.704032 135.848571 
L 167.807944 135.513061 
L 167.911231 135.513061 
L 168.013901 135.177552 
L 168.158308 135.177552 
L 168.225847 134.842043 
L 168.335035 134.842043 
L 168.335035 134.730206 
L 168.650279 134.730206 
L 168.650279 134.61837 
L 168.846443 134.61837 
L 168.943691 133.388169 
L 169.056457 133.388169 
L 169.136553 133.052659 
L 169.279792 133.052659 
L 169.343073 132.828987 
L 169.398253 132.828987 
L 169.429706 132.493477 
L 169.593892 132.493477 
L 169.694751 132.269804 
L 169.741102 132.269804 
L 169.741102 132.157968 
L 170.054535 132.157968 
L 170.145201 131.822459 
L 170.384663 131.822459 
L 170.384663 131.710622 
L 170.817612 131.710622 
L 170.882707 131.486949 
L 170.954746 131.486949 
L 170.997826 131.15144 
L 171.12642 131.15144 
L 171.12642 131.039603 
L 171.492598 131.039603 
L 171.576005 130.704094 
L 171.905641 130.704094 
L 171.905641 130.592258 
L 172.020888 130.592258 
L 172.088321 130.368585 
L 172.15549 130.368585 
L 172.262418 130.144912 
L 172.421573 130.144912 
L 172.487455 129.921239 
L 172.572726 129.921239 
L 172.572726 129.809402 
L 172.858237 129.809402 
L 172.858237 129.697566 
L 173.005615 129.697566 
L 173.107398 129.25022 
L 173.15174 129.25022 
L 173.183342 129.026547 
L 173.284082 129.026547 
L 173.321707 128.802874 
L 173.402948 128.802874 
L 173.402948 128.691038 
L 173.80349 128.691038 
L 173.894612 128.243692 
L 174.069423 128.243692 
L 174.10537 128.020019 
L 174.19491 128.020019 
L 174.19491 127.908183 
L 174.635744 127.908183 
L 174.635744 127.68451 
L 174.814703 127.68451 
L 174.894917 127.460837 
L 174.986134 127.460837 
L 174.986134 127.349001 
L 175.138973 127.349001 
L 175.206468 127.125328 
L 175.698949 127.125328 
L 175.698949 127.013491 
L 176.007104 127.013491 
L 176.081953 126.789818 
L 176.183016 126.789818 
L 176.19362 126.454309 
L 176.367644 126.454309 
L 176.446167 126.1188 
L 176.59179 126.1188 
L 176.658983 125.78329 
L 176.766975 125.78329 
L 176.838595 125.559617 
L 176.899746 125.559617 
L 176.925162 125.224108 
L 177.42574 125.224108 
L 177.519223 125.000435 
L 177.621959 125.000435 
L 177.636585 124.776762 
L 177.960044 124.776762 
L 178.050673 124.329417 
L 178.324414 124.329417 
L 178.403828 123.770234 
L 178.561566 123.770234 
L 178.662865 123.546561 
L 178.722445 123.546561 
L 178.736165 123.322888 
L 178.850073 123.322888 
L 178.850073 123.211052 
L 179.236249 123.211052 
L 179.236249 123.099216 
L 179.377757 123.099216 
L 179.377757 122.987379 
L 179.657324 122.987379 
L 179.752384 122.540033 
L 179.829772 122.540033 
L 179.923886 122.092688 
L 179.957982 122.092688 
L 179.957982 121.980851 
L 180.123238 121.980851 
L 180.123238 121.869015 
L 180.478 121.869015 
L 180.56042 121.533505 
L 180.626072 121.533505 
L 180.626072 121.421669 
L 180.898301 121.421669 
L 180.898301 121.309832 
L 181.014807 121.309832 
L 181.110632 121.08616 
L 181.126551 121.08616 
L 181.126551 120.974323 
L 181.284937 120.974323 
L 181.284937 120.862487 
L 181.410602 120.862487 
L 181.410602 120.75065 
L 181.647637 120.75065 
L 181.736169 120.415141 
L 182.250543 120.415141 
L 182.250543 120.303304 
L 182.912077 120.303304 
L 182.912077 120.191468 
L 183.171842 120.191468 
L 183.238813 119.967795 
L 183.738074 119.967795 
L 183.738074 119.855959 
L 183.86744 119.855959 
L 183.965516 119.296776 
L 184.089841 119.296776 
L 184.146663 119.073103 
L 184.229885 119.073103 
L 184.229885 118.961267 
L 184.509863 118.961267 
L 184.509863 118.849431 
L 184.701554 118.849431 
L 184.701554 118.737594 
L 184.89113 118.737594 
L 184.89113 118.625758 
L 185.040667 118.625758 
L 185.040667 118.513921 
L 185.170059 118.513921 
L 185.170059 118.402085 
L 185.40116 118.402085 
L 185.40116 118.290248 
L 185.69336 118.290248 
L 185.736004 118.066575 
L 186.13296 118.066575 
L 186.207119 117.842903 
L 186.330991 117.842903 
L 186.330991 117.731066 
L 186.657018 117.731066 
L 186.657018 117.61923 
L 187.022201 117.61923 
L 187.022201 117.507393 
L 187.218676 117.507393 
L 187.302197 117.28372 
L 187.840796 117.28372 
L 187.854249 117.060047 
L 188.094616 117.060047 
L 188.192466 116.724538 
L 188.310728 116.724538 
L 188.310728 116.612702 
L 188.516395 116.612702 
L 188.622172 116.389029 
L 188.983569 116.389029 
L 188.983569 116.277192 
L 189.111534 116.277192 
L 189.111534 116.165356 
L 189.268304 116.165356 
L 189.372029 115.941683 
L 189.713327 115.941683 
L 189.713327 115.829846 
L 189.898191 115.829846 
L 189.945884 115.494337 
L 190.257384 115.494337 
L 190.257384 115.382501 
L 190.380884 115.382501 
L 190.491973 115.158828 
L 190.994381 115.158828 
L 191.103813 114.935155 
L 191.123838 114.935155 
L 191.126061 114.711482 
L 191.241288 114.711482 
L 191.241288 114.599646 
L 191.449823 114.599646 
L 191.449823 114.487809 
L 191.940223 114.487809 
L 191.940223 114.375973 
L 192.071193 114.375973 
L 192.085917 114.1523 
L 192.472615 114.1523 
L 192.489054 113.928627 
L 192.636298 113.928627 
L 192.636298 113.81679 
L 192.878937 113.81679 
L 192.888973 113.593118 
L 193.287642 113.593118 
L 193.338543 113.369445 
L 194.106942 113.369445 
L 194.203874 113.145772 
L 194.496916 113.145772 
L 194.496916 113.033935 
L 194.613474 113.033935 
L 194.682309 112.810262 
L 195.582129 112.810262 
L 195.582129 112.698426 
L 195.701804 112.698426 
L 195.788473 112.25108 
L 196.097581 112.25108 
L 196.097581 112.139244 
L 197.040237 112.139244 
L 197.040237 112.027407 
L 197.448286 112.027407 
L 197.555686 111.803734 
L 197.903922 111.803734 
L 197.903922 111.691898 
L 198.93504 111.691898 
L 198.93504 111.580061 
L 199.663288 111.580061 
L 199.663288 111.468225 
L 199.818184 111.468225 
L 199.818184 111.356389 
L 200.298156 111.356389 
L 200.341132 111.132716 
L 202.422365 111.132716 
L 202.422365 111.020879 
L 203.219466 111.020879 
L 203.219466 110.909043 
L 203.52802 110.909043 
L 203.52802 110.797206 
L 205.959393 110.797206 
L 205.959393 110.68537 
L 207.798234 110.68537 
L 207.798234 110.573533 
L 208.701249 110.573533 
L 208.701249 110.461697 
L 211.624829 110.461697 
L 211.624829 110.349861 
L 333.168 110.349861 
L 333.168 110.349861 
" style="fill:none;stroke:#ff00ff;stroke-linecap:square;stroke-width:1.5;"/>
   </g>
   <g id="line2d_49">
    <defs>
     <path d="M -0 8.485281 
L 5.091169 0 
L 0 -8.485281 
L -5.091169 -0 
z
" id="mc5472103b8" style="stroke:#ff00ff;stroke-linejoin:miter;stroke-width:1.5;"/>
    </defs>
    <g>
     <use style="fill:none;stroke:#ff00ff;stroke-linejoin:miter;stroke-width:1.5;" x="122.176427" xlink:href="#mc5472103b8" y="256.743771"/>
     <use style="fill:none;stroke:#ff00ff;stroke-linejoin:miter;stroke-width:1.5;" x="167.003805" xlink:href="#mc5472103b8" y="136.743262"/>
     <use style="fill:none;stroke:#ff00ff;stroke-linejoin:miter;stroke-width:1.5;" x="211.624829" xlink:href="#mc5472103b8" y="110.461697"/>
     <use style="fill:none;stroke:#ff00ff;stroke-linejoin:miter;stroke-width:1.5;" x="211.624829" xlink:href="#mc5472103b8" y="110.349861"/>
     <use style="fill:none;stroke:#ff00ff;stroke-linejoin:miter;stroke-width:1.5;" x="211.624829" xlink:href="#mc5472103b8" y="110.349861"/>
     <use style="fill:none;stroke:#ff00ff;stroke-linejoin:miter;stroke-width:1.5;" x="333.168" xlink:href="#mc5472103b8" y="110.349861"/>
    </g>
   </g>
   <g id="line2d_50">
    <path style="fill:none;stroke:#ff00ff;stroke-linecap:square;stroke-width:1.5;"/>
    <g/>
   </g>
   <g id="line2d_51">
    <path clip-path="url(#pdfedfa7ef4)" d="M 130.634602 226.54793 
" style="fill:none;stroke:#ff00ff;stroke-linecap:square;stroke-width:1.5;"/>
    <defs>
     <path d="M -12 12 
L 12 -12 
M -12 -12 
L 12 12 
" id="mc85efcc15d" style="stroke:#ff00ff;"/>
    </defs>
    <g clip-path="url(#pdfedfa7ef4)">
     <use style="fill:#ff00ff;stroke:#ff00ff;" x="130.634602" xlink:href="#mc85efcc15d" y="226.54793"/>
    </g>
   </g>
   <g id="line2d_52">
    <path d="M 333.168 110.349861 
L 363.64328 289.176341 
" style="fill:none;stroke:#ff00ff;stroke-linecap:square;stroke-width:1.5;"/>
    <g>
     <use style="fill:none;stroke:#ff00ff;stroke-linejoin:miter;stroke-width:1.5;" x="333.168" xlink:href="#mc5472103b8" y="110.349861"/>
     <use style="fill:none;stroke:#ff00ff;stroke-linejoin:miter;stroke-width:1.5;" x="363.64328" xlink:href="#mc5472103b8" y="289.176341"/>
    </g>
   </g>
   <g id="line2d_53">
    <path d="M 333.168 54.431636 
L 363.64328 152.288529 
" style="fill:none;stroke:#000080;stroke-linecap:square;stroke-width:1.5;"/>
    <g>
     <use style="fill:none;stroke:#000080;stroke-width:1.5;" x="333.168" xlink:href="#m38a85198c8" y="54.431636"/>
     <use style="fill:none;stroke:#000080;stroke-width:1.5;" x="363.64328" xlink:href="#m38a85198c8" y="152.288529"/>
    </g>
   </g>
   <g id="line2d_54">
    <path d="M 333.168 294.88 
L 333.168 9.697057 
" style="fill:none;stroke:#000000;stroke-linecap:square;stroke-width:1.5;"/>
   </g>
   <g id="patch_3">
    <path d="M 56.12 294.88 
L 56.12 6.845228 
" style="fill:none;stroke:#000000;stroke-linecap:square;stroke-linejoin:miter;stroke-width:0.8;"/>
   </g>
   <g id="patch_4">
    <path d="M 333.168 294.88 
L 333.168 6.845228 
" style="fill:none;stroke:#000000;stroke-linecap:square;stroke-linejoin:miter;stroke-width:0.8;"/>
   </g>
   <g id="patch_5">
    <path d="M 56.12 294.88 
L 333.168 294.88 
" style="fill:none;stroke:#000000;stroke-linecap:square;stroke-linejoin:miter;stroke-width:0.8;"/>
   </g>
   <g id="patch_6">
    <path d="M 56.12 6.845228 
L 333.168 6.845228 
" style="fill:none;stroke:#000000;stroke-linecap:square;stroke-linejoin:miter;stroke-width:0.8;"/>
   </g>
   <g id="text_13">
    <!-- scipy-opt -->
    <defs>
     <path d="M 32.171875 -5.078125 
Q 28.375 -14.84375 24.75 -17.8125 
Q 21.140625 -20.796875 15.09375 -20.796875 
L 7.90625 -20.796875 
L 7.90625 -13.28125 
L 13.1875 -13.28125 
Q 16.890625 -13.28125 18.9375 -11.515625 
Q 21 -9.765625 23.484375 -3.21875 
L 25.09375 0.875 
L 2.984375 54.6875 
L 12.5 54.6875 
L 29.59375 11.921875 
L 46.6875 54.6875 
L 56.203125 54.6875 
z
" id="DejaVuSans-79"/>
    </defs>
    <g transform="translate(369.18424 293.867279)scale(0.17 -0.17)">
     <use xlink:href="#DejaVuSans-73"/>
     <use x="52.099609" xlink:href="#DejaVuSans-63"/>
     <use x="107.080078" xlink:href="#DejaVuSans-69"/>
     <use x="134.863281" xlink:href="#DejaVuSans-70"/>
     <use x="198.339844" xlink:href="#DejaVuSans-79"/>
     <use x="257.503906" xlink:href="#DejaVuSans-2d"/>
     <use x="293.603516" xlink:href="#DejaVuSans-6f"/>
     <use x="354.785156" xlink:href="#DejaVuSans-70"/>
     <use x="418.261719" xlink:href="#DejaVuSans-74"/>
    </g>
   </g>
   <g id="text_14">
    <!-- BFGS ros  -->
    <defs>
     <path d="M 19.671875 34.8125 
L 19.671875 8.109375 
L 35.5 8.109375 
Q 43.453125 8.109375 47.28125 11.40625 
Q 51.125 14.703125 51.125 21.484375 
Q 51.125 28.328125 47.28125 31.5625 
Q 43.453125 34.8125 35.5 34.8125 
z
M 19.671875 64.796875 
L 19.671875 42.828125 
L 34.28125 42.828125 
Q 41.5 42.828125 45.03125 45.53125 
Q 48.578125 48.25 48.578125 53.8125 
Q 48.578125 59.328125 45.03125 62.0625 
Q 41.5 64.796875 34.28125 64.796875 
z
M 9.8125 72.90625 
L 35.015625 72.90625 
Q 46.296875 72.90625 52.390625 68.21875 
Q 58.5 63.53125 58.5 54.890625 
Q 58.5 48.1875 55.375 44.234375 
Q 52.25 40.28125 46.1875 39.3125 
Q 53.46875 37.75 57.5 32.78125 
Q 61.53125 27.828125 61.53125 20.40625 
Q 61.53125 10.640625 54.890625 5.3125 
Q 48.25 0 35.984375 0 
L 9.8125 0 
z
" id="DejaVuSans-42"/>
     <path d="M 59.515625 10.40625 
L 59.515625 29.984375 
L 43.40625 29.984375 
L 43.40625 38.09375 
L 69.28125 38.09375 
L 69.28125 6.78125 
Q 63.578125 2.734375 56.6875 0.65625 
Q 49.8125 -1.421875 42 -1.421875 
Q 24.90625 -1.421875 15.25 8.5625 
Q 5.609375 18.5625 5.609375 36.375 
Q 5.609375 54.25 15.25 64.234375 
Q 24.90625 74.21875 42 74.21875 
Q 49.125 74.21875 55.546875 72.453125 
Q 61.96875 70.703125 67.390625 67.28125 
L 67.390625 56.78125 
Q 61.921875 61.421875 55.765625 63.765625 
Q 49.609375 66.109375 42.828125 66.109375 
Q 29.4375 66.109375 22.71875 58.640625 
Q 16.015625 51.171875 16.015625 36.375 
Q 16.015625 21.625 22.71875 14.15625 
Q 29.4375 6.6875 42.828125 6.6875 
Q 48.046875 6.6875 52.140625 7.59375 
Q 56.25 8.5 59.515625 10.40625 
z
" id="DejaVuSans-47"/>
     <path d="M 53.515625 70.515625 
L 53.515625 60.890625 
Q 47.90625 63.578125 42.921875 64.890625 
Q 37.9375 66.21875 33.296875 66.21875 
Q 25.25 66.21875 20.875 63.09375 
Q 16.5 59.96875 16.5 54.203125 
Q 16.5 49.359375 19.40625 46.890625 
Q 22.3125 44.4375 30.421875 42.921875 
L 36.375 41.703125 
Q 47.40625 39.59375 52.65625 34.296875 
Q 57.90625 29 57.90625 20.125 
Q 57.90625 9.515625 50.796875 4.046875 
Q 43.703125 -1.421875 29.984375 -1.421875 
Q 24.8125 -1.421875 18.96875 -0.25 
Q 13.140625 0.921875 6.890625 3.21875 
L 6.890625 13.375 
Q 12.890625 10.015625 18.65625 8.296875 
Q 24.421875 6.59375 29.984375 6.59375 
Q 38.421875 6.59375 43.015625 9.90625 
Q 47.609375 13.234375 47.609375 19.390625 
Q 47.609375 24.75 44.3125 27.78125 
Q 41.015625 30.8125 33.5 32.328125 
L 27.484375 33.5 
Q 16.453125 35.6875 11.515625 40.375 
Q 6.59375 45.0625 6.59375 53.421875 
Q 6.59375 63.09375 13.40625 68.65625 
Q 20.21875 74.21875 32.171875 74.21875 
Q 37.3125 74.21875 42.625 73.28125 
Q 47.953125 72.359375 53.515625 70.515625 
z
" id="DejaVuSans-53"/>
    </defs>
    <g transform="translate(369.18424 156.979466)scale(0.17 -0.17)">
     <use xlink:href="#DejaVuSans-42"/>
     <use x="68.603516" xlink:href="#DejaVuSans-46"/>
     <use x="126.123047" xlink:href="#DejaVuSans-47"/>
     <use x="203.613281" xlink:href="#DejaVuSans-53"/>
     <use x="267.089844" xlink:href="#DejaVuSans-20"/>
     <use x="298.876953" xlink:href="#DejaVuSans-72"/>
     <use x="339.958984" xlink:href="#DejaVuSans-6f"/>
     <use x="401.140625" xlink:href="#DejaVuSans-73"/>
     <use x="453.240234" xlink:href="#DejaVuSans-20"/>
    </g>
   </g>
   <g id="text_15">
    <!-- best 2009 -->
    <defs>
     <path d="M 48.6875 27.296875 
Q 48.6875 37.203125 44.609375 42.84375 
Q 40.53125 48.484375 33.40625 48.484375 
Q 26.265625 48.484375 22.1875 42.84375 
Q 18.109375 37.203125 18.109375 27.296875 
Q 18.109375 17.390625 22.1875 11.75 
Q 26.265625 6.109375 33.40625 6.109375 
Q 40.53125 6.109375 44.609375 11.75 
Q 48.6875 17.390625 48.6875 27.296875 
z
M 18.109375 46.390625 
Q 20.953125 51.265625 25.265625 53.625 
Q 29.59375 56 35.59375 56 
Q 45.5625 56 51.78125 48.09375 
Q 58.015625 40.1875 58.015625 27.296875 
Q 58.015625 14.40625 51.78125 6.484375 
Q 45.5625 -1.421875 35.59375 -1.421875 
Q 29.59375 -1.421875 25.265625 0.953125 
Q 20.953125 3.328125 18.109375 8.203125 
L 18.109375 0 
L 9.078125 0 
L 9.078125 75.984375 
L 18.109375 75.984375 
z
" id="DejaVuSans-62"/>
     <path d="M 10.984375 1.515625 
L 10.984375 10.5 
Q 14.703125 8.734375 18.5 7.8125 
Q 22.3125 6.890625 25.984375 6.890625 
Q 35.75 6.890625 40.890625 13.453125 
Q 46.046875 20.015625 46.78125 33.40625 
Q 43.953125 29.203125 39.59375 26.953125 
Q 35.25 24.703125 29.984375 24.703125 
Q 19.046875 24.703125 12.671875 31.3125 
Q 6.296875 37.9375 6.296875 49.421875 
Q 6.296875 60.640625 12.9375 67.421875 
Q 19.578125 74.21875 30.609375 74.21875 
Q 43.265625 74.21875 49.921875 64.515625 
Q 56.59375 54.828125 56.59375 36.375 
Q 56.59375 19.140625 48.40625 8.859375 
Q 40.234375 -1.421875 26.421875 -1.421875 
Q 22.703125 -1.421875 18.890625 -0.6875 
Q 15.09375 0.046875 10.984375 1.515625 
z
M 30.609375 32.421875 
Q 37.25 32.421875 41.125 36.953125 
Q 45.015625 41.5 45.015625 49.421875 
Q 45.015625 57.28125 41.125 61.84375 
Q 37.25 66.40625 30.609375 66.40625 
Q 23.96875 66.40625 20.09375 61.84375 
Q 16.21875 57.28125 16.21875 49.421875 
Q 16.21875 41.5 20.09375 36.953125 
Q 23.96875 32.421875 30.609375 32.421875 
z
" id="DejaVuSans-39"/>
    </defs>
    <g transform="translate(369.18424 20.091654)scale(0.17 -0.17)">
     <use xlink:href="#DejaVuSans-62"/>
     <use x="63.476562" xlink:href="#DejaVuSans-65"/>
     <use x="125" xlink:href="#DejaVuSans-73"/>
     <use x="177.099609" xlink:href="#DejaVuSans-74"/>
     <use x="216.308594" xlink:href="#DejaVuSans-20"/>
     <use x="248.095703" xlink:href="#DejaVuSans-32"/>
     <use x="311.71875" xlink:href="#DejaVuSans-30"/>
     <use x="375.341797" xlink:href="#DejaVuSans-30"/>
     <use x="438.964844" xlink:href="#DejaVuSans-39"/>
    </g>
   </g>
   <g id="text_16">
    <!-- bbob f1-f5, 3-D -->
    <defs>
     <path d="M 10.796875 72.90625 
L 49.515625 72.90625 
L 49.515625 64.59375 
L 19.828125 64.59375 
L 19.828125 46.734375 
Q 21.96875 47.46875 24.109375 47.828125 
Q 26.265625 48.1875 28.421875 48.1875 
Q 40.625 48.1875 47.75 41.5 
Q 54.890625 34.8125 54.890625 23.390625 
Q 54.890625 11.625 47.5625 5.09375 
Q 40.234375 -1.421875 26.90625 -1.421875 
Q 22.3125 -1.421875 17.546875 -0.640625 
Q 12.796875 0.140625 7.71875 1.703125 
L 7.71875 11.625 
Q 12.109375 9.234375 16.796875 8.0625 
Q 21.484375 6.890625 26.703125 6.890625 
Q 35.15625 6.890625 40.078125 11.328125 
Q 45.015625 15.765625 45.015625 23.390625 
Q 45.015625 31 40.078125 35.4375 
Q 35.15625 39.890625 26.703125 39.890625 
Q 22.75 39.890625 18.8125 39.015625 
Q 14.890625 38.140625 10.796875 36.28125 
z
" id="DejaVuSans-35"/>
     <path d="M 40.578125 39.3125 
Q 47.65625 37.796875 51.625 33 
Q 55.609375 28.21875 55.609375 21.1875 
Q 55.609375 10.40625 48.1875 4.484375 
Q 40.765625 -1.421875 27.09375 -1.421875 
Q 22.515625 -1.421875 17.65625 -0.515625 
Q 12.796875 0.390625 7.625 2.203125 
L 7.625 11.71875 
Q 11.71875 9.328125 16.59375 8.109375 
Q 21.484375 6.890625 26.8125 6.890625 
Q 36.078125 6.890625 40.9375 10.546875 
Q 45.796875 14.203125 45.796875 21.1875 
Q 45.796875 27.640625 41.28125 31.265625 
Q 36.765625 34.90625 28.71875 34.90625 
L 20.21875 34.90625 
L 20.21875 43.015625 
L 29.109375 43.015625 
Q 36.375 43.015625 40.234375 45.921875 
Q 44.09375 48.828125 44.09375 54.296875 
Q 44.09375 59.90625 40.109375 62.90625 
Q 36.140625 65.921875 28.71875 65.921875 
Q 24.65625 65.921875 20.015625 65.03125 
Q 15.375 64.15625 9.8125 62.3125 
L 9.8125 71.09375 
Q 15.4375 72.65625 20.34375 73.4375 
Q 25.25 74.21875 29.59375 74.21875 
Q 40.828125 74.21875 47.359375 69.109375 
Q 53.90625 64.015625 53.90625 55.328125 
Q 53.90625 49.265625 50.4375 45.09375 
Q 46.96875 40.921875 40.578125 39.3125 
z
" id="DejaVuSans-33"/>
     <path d="M 19.671875 64.796875 
L 19.671875 8.109375 
L 31.59375 8.109375 
Q 46.6875 8.109375 53.6875 14.9375 
Q 60.6875 21.78125 60.6875 36.53125 
Q 60.6875 51.171875 53.6875 57.984375 
Q 46.6875 64.796875 31.59375 64.796875 
z
M 9.8125 72.90625 
L 30.078125 72.90625 
Q 51.265625 72.90625 61.171875 64.09375 
Q 71.09375 55.28125 71.09375 36.53125 
Q 71.09375 17.671875 61.125 8.828125 
Q 51.171875 0 30.078125 0 
L 9.8125 0 
z
" id="DejaVuSans-44"/>
    </defs>
    <g transform="translate(58.89048 17.475982)scale(0.102 -0.102)">
     <use xlink:href="#DejaVuSans-62"/>
     <use x="63.476562" xlink:href="#DejaVuSans-62"/>
     <use x="126.953125" xlink:href="#DejaVuSans-6f"/>
     <use x="188.134766" xlink:href="#DejaVuSans-62"/>
     <use x="251.611328" xlink:href="#DejaVuSans-20"/>
     <use x="283.398438" xlink:href="#DejaVuSans-66"/>
     <use x="318.603516" xlink:href="#DejaVuSans-31"/>
     <use x="382.226562" xlink:href="#DejaVuSans-2d"/>
     <use x="418.310547" xlink:href="#DejaVuSans-66"/>
     <use x="453.515625" xlink:href="#DejaVuSans-35"/>
     <use x="517.138672" xlink:href="#DejaVuSans-2c"/>
     <use x="548.925781" xlink:href="#DejaVuSans-20"/>
     <use x="580.712891" xlink:href="#DejaVuSans-33"/>
     <use x="644.335938" xlink:href="#DejaVuSans-2d"/>
     <use x="680.419922" xlink:href="#DejaVuSans-44"/>
    </g>
    <!-- 51 targets: 100..1e-08 -->
    <defs>
     <path d="M 11.71875 12.40625 
L 22.015625 12.40625 
L 22.015625 0 
L 11.71875 0 
z
M 11.71875 51.703125 
L 22.015625 51.703125 
L 22.015625 39.3125 
L 11.71875 39.3125 
z
" id="DejaVuSans-3a"/>
    </defs>
    <g transform="translate(58.89048 28.89775)scale(0.102 -0.102)">
     <use xlink:href="#DejaVuSans-35"/>
     <use x="63.623047" xlink:href="#DejaVuSans-31"/>
     <use x="127.246094" xlink:href="#DejaVuSans-20"/>
     <use x="159.033203" xlink:href="#DejaVuSans-74"/>
     <use x="198.242188" xlink:href="#DejaVuSans-61"/>
     <use x="259.521484" xlink:href="#DejaVuSans-72"/>
     <use x="300.619141" xlink:href="#DejaVuSans-67"/>
     <use x="364.095703" xlink:href="#DejaVuSans-65"/>
     <use x="425.619141" xlink:href="#DejaVuSans-74"/>
     <use x="464.828125" xlink:href="#DejaVuSans-73"/>
     <use x="516.927734" xlink:href="#DejaVuSans-3a"/>
     <use x="550.619141" xlink:href="#DejaVuSans-20"/>
     <use x="582.40625" xlink:href="#DejaVuSans-31"/>
     <use x="646.029297" xlink:href="#DejaVuSans-30"/>
     <use x="709.652344" xlink:href="#DejaVuSans-30"/>
     <use x="773.275391" xlink:href="#DejaVuSans-2e"/>
     <use x="805.0625" xlink:href="#DejaVuSans-2e"/>
     <use x="836.849609" xlink:href="#DejaVuSans-31"/>
     <use x="900.472656" xlink:href="#DejaVuSans-65"/>
     <use x="961.996094" xlink:href="#DejaVuSans-2d"/>
     <use x="998.080078" xlink:href="#DejaVuSans-30"/>
     <use x="1061.703125" xlink:href="#DejaVuSans-38"/>
    </g>
    <!-- 15 instances -->
    <g transform="translate(58.89048 40.319519)scale(0.102 -0.102)">
     <use xlink:href="#DejaVuSans-31"/>
     <use x="63.623047" xlink:href="#DejaVuSans-35"/>
     <use x="127.246094" xlink:href="#DejaVuSans-20"/>
     <use x="159.033203" xlink:href="#DejaVuSans-69"/>
     <use x="186.816406" xlink:href="#DejaVuSans-6e"/>
     <use x="250.195312" xlink:href="#DejaVuSans-73"/>
     <use x="302.294922" xlink:href="#DejaVuSans-74"/>
     <use x="341.503906" xlink:href="#DejaVuSans-61"/>
     <use x="402.783203" xlink:href="#DejaVuSans-6e"/>
     <use x="466.162109" xlink:href="#DejaVuSans-63"/>
     <use x="521.142578" xlink:href="#DejaVuSans-65"/>
     <use x="582.666016" xlink:href="#DejaVuSans-73"/>
    </g>
   </g>
   <g id="text_17">
    <!-- v0.0.0 -->
    <g style="fill:#808080;" transform="translate(178.96275 289.919965)scale(0.1 -0.1)">
     <use xlink:href="#DejaVuSans-76"/>
     <use x="59.179688" xlink:href="#DejaVuSans-30"/>
     <use x="122.802734" xlink:href="#DejaVuSans-2e"/>
     <use x="154.589844" xlink:href="#DejaVuSans-30"/>
     <use x="218.212891" xlink:href="#DejaVuSans-2e"/>
     <use x="250" xlink:href="#DejaVuSans-30"/>
    </g>
   </g>
  </g>
 </g>
 <defs>
  <clipPath id="pdfedfa7ef4">
   <rect height="288.034772" width="277.048" x="56.12" y="6.845228"/>
  </clipPath>
 </defs>
</svg>
