<?xml version="1.0" encoding="utf-8" standalone="no"?>
<!DOCTYPE svg PUBLIC "-//W3C//DTD SVG 1.1//EN"
  "http://www.w3.org/Graphics/SVG/1.1/DTD/svg11.dtd">
<!-- Created with matplotlib (http://matplotlib.org/) -->
<svg height="345pt" version="1.1" viewBox="0 0 460 345" width="460pt" xmlns="http://www.w3.org/2000/svg" xmlns:xlink="http://www.w3.org/1999/xlink">
 <defs>
  <style type="text/css">
*{stroke-linecap:butt;stroke-linejoin:round;}
  </style>
 </defs>
 <g id="figure_1">
  <g id="patch_1">
   <path d="M 0 345.6 
L 460.8 345.6 
L 460.8 0 
L 0 0 
z
" style="fill:#ffffff;"/>
  </g>
  <g id="axes_1">
   <g id="patch_2">
    <path d="M 56.12 294.88 
L 333.168 294.88 
L 333.168 6.845228 
L 56.12 6.845228 
z
" style="fill:#ffffff;"/>
   </g>
   <g id="line2d_1">
    <path d="M 28.455965 294.88 
L 28.455965 290.686133 
L 59.253858 290.686133 
L 59.253858 289.288178 
L 69.672503 289.288178 
L 69.672503 287.890222 
L 75.003641 287.890222 
L 75.003641 286.492266 
L 76.11297 286.492266 
L 76.11297 285.094311 
L 79.948502 285.094311 
L 79.948502 282.2984 
L 83.08236 282.2984 
L 83.08236 279.502488 
L 83.784035 279.502488 
L 83.784035 278.104533 
L 84.458185 278.104533 
L 84.458185 275.308622 
L 89.567532 275.308622 
L 89.567532 272.51271 
L 93.501005 272.51271 
L 93.501005 271.114755 
L 94.996612 271.114755 
L 94.996612 269.716799 
L 97.021141 269.716799 
L 97.021141 265.522932 
L 98.832144 265.522932 
L 98.832144 264.124977 
L 99.395756 264.124977 
L 99.395756 262.727021 
L 99.941473 262.727021 
L 99.941473 261.329066 
L 101.23446 261.329066 
L 101.23446 259.93111 
L 101.725597 259.93111 
L 101.725597 258.533154 
L 101.966002 258.533154 
L 101.966002 257.135199 
L 102.20309 257.135199 
L 102.20309 255.737243 
L 103.990531 255.737243 
L 103.990531 254.339288 
L 108.775496 254.339288 
L 108.775496 252.941332 
L 109.864733 252.941332 
L 109.864733 251.543376 
L 111.72091 251.543376 
L 111.72091 250.145421 
L 112.514373 250.145421 
L 112.514373 248.747465 
L 112.770924 248.747465 
L 112.770924 247.34951 
L 114.466953 247.34951 
L 114.466953 245.951554 
L 116.115688 245.951554 
L 116.115688 244.553598 
L 116.529892 244.553598 
L 116.529892 243.155643 
L 117.620026 243.155643 
L 117.620026 241.757687 
L 118.186736 241.757687 
L 118.186736 240.359732 
L 118.914406 240.359732 
L 118.914406 238.961776 
L 119.354037 238.961776 
L 119.354037 237.56382 
L 119.526788 237.56382 
L 119.526788 236.165865 
L 120.365424 236.165865 
L 120.365424 234.767909 
L 120.689748 234.767909 
L 120.689748 231.971998 
L 121.397846 231.971998 
L 121.397846 230.574042 
L 121.627542 230.574042 
L 121.627542 229.176087 
L 122.298767 229.176087 
L 122.371755 226.380175 
L 122.588877 226.380175 
L 122.588877 223.584264 
L 123.635161 223.584264 
L 123.635161 222.186309 
L 123.769975 222.186309 
L 123.769975 220.788353 
L 123.903739 220.788353 
L 123.903739 219.390397 
L 124.233665 219.390397 
L 124.233665 216.594486 
L 124.748719 216.594486 
L 124.748719 215.196531 
L 124.875107 215.196531 
L 124.875107 213.798575 
L 125.125128 213.798575 
L 125.125128 211.002664 
L 125.371564 211.002664 
L 125.371564 209.604708 
L 125.854083 209.604708 
L 125.854083 208.206753 
L 126.090357 208.206753 
L 126.090357 206.808797 
L 126.496178 206.808797 
L 126.496178 205.410841 
L 126.723846 205.410841 
L 126.723846 202.61493 
L 126.836558 202.61493 
L 126.836558 201.216975 
L 127.334814 201.216975 
L 127.334814 199.819019 
L 127.659138 199.819019 
L 127.7659 194.227197 
L 127.819033 194.227197 
L 127.872003 187.237419 
L 127.977455 187.237419 
L 128.082264 184.441507 
L 128.39291 184.441507 
L 128.444143 181.645596 
L 128.546153 181.645596 
L 128.647561 177.451729 
L 128.8486 177.451729 
L 128.898495 173.257863 
L 129.341145 173.257863 
L 129.437982 167.66604 
L 129.630036 167.66604 
L 129.677716 164.870129 
L 129.867125 164.870129 
L 129.914152 162.074218 
L 130.054468 162.074218 
L 130.054468 160.676262 
L 130.193648 160.676262 
L 130.239792 152.288529 
L 130.377486 152.288529 
L 130.42314 149.492617 
L 130.604552 149.492617 
L 130.604552 146.696706 
L 130.784069 146.696706 
L 130.784069 145.298751 
L 131.005861 145.298751 
L 131.049878 142.502839 
L 131.181257 142.502839 
L 131.268288 139.706928 
L 131.354881 139.706928 
L 131.398014 136.911017 
L 131.483957 136.911017 
L 131.483957 135.513061 
L 131.612072 135.513061 
L 131.654565 132.71715 
L 131.781419 132.71715 
L 131.865471 127.125328 
L 131.949115 127.125328 
L 132.032353 122.931461 
L 132.073821 122.931461 
L 132.156459 118.737594 
L 132.197629 118.737594 
L 132.279675 114.543727 
L 132.320552 114.543727 
L 132.402015 110.349861 
L 132.442602 110.349861 
L 132.442602 104.758038 
L 133.234845 104.758038 
L 133.234845 103.360082 
L 134.503128 103.360082 
L 134.503128 101.962127 
L 135.379395 101.962127 
L 135.379395 100.564171 
L 136.342875 100.564171 
L 136.342875 99.166216 
L 137.827708 99.166216 
L 137.827708 97.76826 
L 138.862788 97.76826 
L 138.862788 96.370304 
L 139.839061 96.370304 
L 139.839061 94.972349 
L 140.762851 94.972349 
L 140.762851 93.574393 
L 141.206772 93.574393 
L 141.206772 92.176438 
L 142.154044 92.176438 
L 142.154044 90.778482 
L 143.462385 90.778482 
L 143.462385 89.380526 
L 145.013063 89.380526 
L 145.013063 87.982571 
L 146.471234 87.982571 
L 146.471234 86.584615 
L 147.156411 86.584615 
L 147.156411 85.18666 
L 147.831886 85.18666 
L 147.831886 83.788704 
L 147.947413 83.788704 
L 147.947413 82.390748 
L 148.401907 82.390748 
L 148.497755 79.594837 
L 148.875888 79.594837 
L 148.875888 78.196882 
L 149.321972 78.196882 
L 149.321972 76.798926 
L 149.741959 76.798926 
L 149.741959 75.40097 
L 149.904187 75.40097 
L 149.918859 72.605059 
L 150.267289 72.605059 
L 150.267289 71.207104 
L 150.424656 71.207104 
L 150.424656 69.809148 
L 150.665061 69.809148 
L 150.665061 68.411192 
L 150.957462 68.411192 
L 150.957462 67.013237 
L 151.258545 67.013237 
L 151.326243 64.217326 
L 151.674041 64.217326 
L 151.674041 62.81937 
L 152.118486 62.81937 
L 152.118486 61.421414 
L 152.400064 61.421414 
L 152.400064 60.023459 
L 152.564308 60.023459 
L 152.564308 58.625503 
L 152.851103 58.625503 
L 152.851103 57.227548 
L 153.206025 57.227548 
L 153.206025 55.829592 
L 153.553767 55.829592 
L 153.589342 53.033681 
L 153.871321 53.033681 
L 153.871321 51.635725 
L 154.579054 51.635725 
L 154.579054 50.23777 
L 154.867386 50.23777 
L 154.966077 22.278658 
L 154.987932 22.278658 
L 154.987932 20.880702 
L 155.107638 20.880702 
L 155.150962 18.084791 
L 155.237283 18.084791 
L 155.237283 16.686835 
L 155.599386 16.686835 
L 155.599386 15.28888 
L 156.138844 15.28888 
L 156.138844 13.890924 
L 156.311596 13.890924 
L 156.311596 12.492968 
L 156.432501 12.492968 
L 156.432501 11.095013 
L 156.691581 11.095013 
L 156.691581 9.697057 
L 333.168 9.697057 
L 333.168 9.697057 
" style="fill:none;stroke:#f5deb3;stroke-linecap:square;stroke-width:4;"/>
   </g>
   <g id="line2d_2">
    <defs>
     <path d="M -0 7.778175 
L 7.778175 0 
L 0 -7.778175 
L -7.778175 -0 
z
" id="m3aa1a11feb" style="stroke:#f5deb3;stroke-linejoin:miter;stroke-width:1.5;"/>
    </defs>
    <g>
     <use style="fill:#f5deb3;stroke:#f5deb3;stroke-linejoin:miter;stroke-width:1.5;" x="112.770924" xlink:href="#m3aa1a11feb" y="247.34951"/>
     <use style="fill:#f5deb3;stroke:#f5deb3;stroke-linejoin:miter;stroke-width:1.5;" x="135.379395" xlink:href="#m3aa1a11feb" y="100.564171"/>
     <use style="fill:#f5deb3;stroke:#f5deb3;stroke-linejoin:miter;stroke-width:1.5;" x="156.691581" xlink:href="#m3aa1a11feb" y="11.095013"/>
     <use style="fill:#f5deb3;stroke:#f5deb3;stroke-linejoin:miter;stroke-width:1.5;" x="156.691581" xlink:href="#m3aa1a11feb" y="9.697057"/>
     <use style="fill:#f5deb3;stroke:#f5deb3;stroke-linejoin:miter;stroke-width:1.5;" x="156.691581" xlink:href="#m3aa1a11feb" y="9.697057"/>
     <use style="fill:#f5deb3;stroke:#f5deb3;stroke-linejoin:miter;stroke-width:1.5;" x="333.168" xlink:href="#m3aa1a11feb" y="9.697057"/>
    </g>
   </g>
   <g id="line2d_3">
    <path style="fill:none;stroke:#f5deb3;stroke-linecap:square;stroke-width:4;"/>
    <g/>
   </g>
   <g id="line2d_4">
    <path d="M 333.168 9.697057 
L 363.64328 15.400716 
" style="fill:none;stroke:#f5deb3;stroke-linecap:square;stroke-width:4;"/>
    <g>
     <use style="fill:#f5deb3;stroke:#f5deb3;stroke-linejoin:miter;stroke-width:1.5;" x="333.168" xlink:href="#m3aa1a11feb" y="9.697057"/>
     <use style="fill:#f5deb3;stroke:#f5deb3;stroke-linejoin:miter;stroke-width:1.5;" x="363.64328" xlink:href="#m3aa1a11feb" y="15.400716"/>
    </g>
   </g>
   <g id="matplotlib.axis_1">
    <g id="xtick_1">
     <g id="line2d_5">
      <path clip-path="url(#p86564e02d7)" d="M 56.12 294.88 
L 56.12 6.845228 
" style="fill:none;stroke:#b0b0b0;stroke-linecap:square;stroke-width:0.8;"/>
     </g>
     <g id="line2d_6">
      <defs>
       <path d="M 0 0 
L 0 3.5 
" id="m115e318010" style="stroke:#000000;stroke-width:0.8;"/>
      </defs>
      <g>
       <use style="stroke:#000000;stroke-width:0.8;" x="56.12" xlink:href="#m115e318010" y="294.88"/>
      </g>
     </g>
     <g id="text_1">
      <!-- 0 -->
      <defs>
       <path d="M 31.78125 66.40625 
Q 24.171875 66.40625 20.328125 58.90625 
Q 16.5 51.421875 16.5 36.375 
Q 16.5 21.390625 20.328125 13.890625 
Q 24.171875 6.390625 31.78125 6.390625 
Q 39.453125 6.390625 43.28125 13.890625 
Q 47.125 21.390625 47.125 36.375 
Q 47.125 51.421875 43.28125 58.90625 
Q 39.453125 66.40625 31.78125 66.40625 
z
M 31.78125 74.21875 
Q 44.046875 74.21875 50.515625 64.515625 
Q 56.984375 54.828125 56.984375 36.375 
Q 56.984375 17.96875 50.515625 8.265625 
Q 44.046875 -1.421875 31.78125 -1.421875 
Q 19.53125 -1.421875 13.0625 8.265625 
Q 6.59375 17.96875 6.59375 36.375 
Q 6.59375 54.828125 13.0625 64.515625 
Q 19.53125 74.21875 31.78125 74.21875 
z
" id="DejaVuSans-30"/>
      </defs>
      <g transform="translate(49.7575 317.076875)scale(0.2 -0.2)">
       <use xlink:href="#DejaVuSans-30"/>
      </g>
     </g>
    </g>
    <g id="xtick_2">
     <g id="line2d_7">
      <path clip-path="url(#p86564e02d7)" d="M 135.276571 294.88 
L 135.276571 6.845228 
" style="fill:none;stroke:#b0b0b0;stroke-linecap:square;stroke-width:0.8;"/>
     </g>
     <g id="line2d_8">
      <g>
       <use style="stroke:#000000;stroke-width:0.8;" x="135.276571" xlink:href="#m115e318010" y="294.88"/>
      </g>
     </g>
     <g id="text_2">
      <!-- 2 -->
      <defs>
       <path d="M 19.1875 8.296875 
L 53.609375 8.296875 
L 53.609375 0 
L 7.328125 0 
L 7.328125 8.296875 
Q 12.9375 14.109375 22.625 23.890625 
Q 32.328125 33.6875 34.8125 36.53125 
Q 39.546875 41.84375 41.421875 45.53125 
Q 43.3125 49.21875 43.3125 52.78125 
Q 43.3125 58.59375 39.234375 62.25 
Q 35.15625 65.921875 28.609375 65.921875 
Q 23.96875 65.921875 18.8125 64.3125 
Q 13.671875 62.703125 7.8125 59.421875 
L 7.8125 69.390625 
Q 13.765625 71.78125 18.9375 73 
Q 24.125 74.21875 28.421875 74.21875 
Q 39.75 74.21875 46.484375 68.546875 
Q 53.21875 62.890625 53.21875 53.421875 
Q 53.21875 48.921875 51.53125 44.890625 
Q 49.859375 40.875 45.40625 35.40625 
Q 44.1875 33.984375 37.640625 27.21875 
Q 31.109375 20.453125 19.1875 8.296875 
z
" id="DejaVuSans-32"/>
      </defs>
      <g transform="translate(128.914071 317.076875)scale(0.2 -0.2)">
       <use xlink:href="#DejaVuSans-32"/>
      </g>
     </g>
    </g>
    <g id="xtick_3">
     <g id="line2d_9">
      <path clip-path="url(#p86564e02d7)" d="M 214.433143 294.88 
L 214.433143 6.845228 
" style="fill:none;stroke:#b0b0b0;stroke-linecap:square;stroke-width:0.8;"/>
     </g>
     <g id="line2d_10">
      <g>
       <use style="stroke:#000000;stroke-width:0.8;" x="214.433143" xlink:href="#m115e318010" y="294.88"/>
      </g>
     </g>
     <g id="text_3">
      <!-- 4 -->
      <defs>
       <path d="M 37.796875 64.3125 
L 12.890625 25.390625 
L 37.796875 25.390625 
z
M 35.203125 72.90625 
L 47.609375 72.90625 
L 47.609375 25.390625 
L 58.015625 25.390625 
L 58.015625 17.1875 
L 47.609375 17.1875 
L 47.609375 0 
L 37.796875 0 
L 37.796875 17.1875 
L 4.890625 17.1875 
L 4.890625 26.703125 
z
" id="DejaVuSans-34"/>
      </defs>
      <g transform="translate(208.070643 317.076875)scale(0.2 -0.2)">
       <use xlink:href="#DejaVuSans-34"/>
      </g>
     </g>
    </g>
    <g id="xtick_4">
     <g id="line2d_11">
      <path clip-path="url(#p86564e02d7)" d="M 293.589714 294.88 
L 293.589714 6.845228 
" style="fill:none;stroke:#b0b0b0;stroke-linecap:square;stroke-width:0.8;"/>
     </g>
     <g id="line2d_12">
      <g>
       <use style="stroke:#000000;stroke-width:0.8;" x="293.589714" xlink:href="#m115e318010" y="294.88"/>
      </g>
     </g>
     <g id="text_4">
      <!-- 6 -->
      <defs>
       <path d="M 33.015625 40.375 
Q 26.375 40.375 22.484375 35.828125 
Q 18.609375 31.296875 18.609375 23.390625 
Q 18.609375 15.53125 22.484375 10.953125 
Q 26.375 6.390625 33.015625 6.390625 
Q 39.65625 6.390625 43.53125 10.953125 
Q 47.40625 15.53125 47.40625 23.390625 
Q 47.40625 31.296875 43.53125 35.828125 
Q 39.65625 40.375 33.015625 40.375 
z
M 52.59375 71.296875 
L 52.59375 62.3125 
Q 48.875 64.0625 45.09375 64.984375 
Q 41.3125 65.921875 37.59375 65.921875 
Q 27.828125 65.921875 22.671875 59.328125 
Q 17.53125 52.734375 16.796875 39.40625 
Q 19.671875 43.65625 24.015625 45.921875 
Q 28.375 48.1875 33.59375 48.1875 
Q 44.578125 48.1875 50.953125 41.515625 
Q 57.328125 34.859375 57.328125 23.390625 
Q 57.328125 12.15625 50.6875 5.359375 
Q 44.046875 -1.421875 33.015625 -1.421875 
Q 20.359375 -1.421875 13.671875 8.265625 
Q 6.984375 17.96875 6.984375 36.375 
Q 6.984375 53.65625 15.1875 63.9375 
Q 23.390625 74.21875 37.203125 74.21875 
Q 40.921875 74.21875 44.703125 73.484375 
Q 48.484375 72.75 52.59375 71.296875 
z
" id="DejaVuSans-36"/>
      </defs>
      <g transform="translate(287.227214 317.076875)scale(0.2 -0.2)">
       <use xlink:href="#DejaVuSans-36"/>
      </g>
     </g>
    </g>
    <g id="xtick_5">
     <g id="line2d_13">
      <path clip-path="url(#p86564e02d7)" d="M 56.12 294.88 
L 56.12 6.845228 
" style="fill:none;stroke:#b0b0b0;stroke-linecap:square;stroke-width:0.8;"/>
     </g>
     <g id="line2d_14">
      <defs>
       <path d="M 0 0 
L 0 2 
" id="m03aa78d82b" style="stroke:#000000;stroke-width:0.6;"/>
      </defs>
      <g>
       <use style="stroke:#000000;stroke-width:0.6;" x="56.12" xlink:href="#m03aa78d82b" y="294.88"/>
      </g>
     </g>
    </g>
    <g id="xtick_6">
     <g id="line2d_15">
      <path clip-path="url(#p86564e02d7)" d="M 95.698286 294.88 
L 95.698286 6.845228 
" style="fill:none;stroke:#b0b0b0;stroke-linecap:square;stroke-width:0.8;"/>
     </g>
     <g id="line2d_16">
      <g>
       <use style="stroke:#000000;stroke-width:0.6;" x="95.698286" xlink:href="#m03aa78d82b" y="294.88"/>
      </g>
     </g>
    </g>
    <g id="xtick_7">
     <g id="line2d_17">
      <path clip-path="url(#p86564e02d7)" d="M 135.276571 294.88 
L 135.276571 6.845228 
" style="fill:none;stroke:#b0b0b0;stroke-linecap:square;stroke-width:0.8;"/>
     </g>
     <g id="line2d_18">
      <g>
       <use style="stroke:#000000;stroke-width:0.6;" x="135.276571" xlink:href="#m03aa78d82b" y="294.88"/>
      </g>
     </g>
    </g>
    <g id="xtick_8">
     <g id="line2d_19">
      <path clip-path="url(#p86564e02d7)" d="M 174.854857 294.88 
L 174.854857 6.845228 
" style="fill:none;stroke:#b0b0b0;stroke-linecap:square;stroke-width:0.8;"/>
     </g>
     <g id="line2d_20">
      <g>
       <use style="stroke:#000000;stroke-width:0.6;" x="174.854857" xlink:href="#m03aa78d82b" y="294.88"/>
      </g>
     </g>
    </g>
    <g id="xtick_9">
     <g id="line2d_21">
      <path clip-path="url(#p86564e02d7)" d="M 214.433143 294.88 
L 214.433143 6.845228 
" style="fill:none;stroke:#b0b0b0;stroke-linecap:square;stroke-width:0.8;"/>
     </g>
     <g id="line2d_22">
      <g>
       <use style="stroke:#000000;stroke-width:0.6;" x="214.433143" xlink:href="#m03aa78d82b" y="294.88"/>
      </g>
     </g>
    </g>
    <g id="xtick_10">
     <g id="line2d_23">
      <path clip-path="url(#p86564e02d7)" d="M 254.011429 294.88 
L 254.011429 6.845228 
" style="fill:none;stroke:#b0b0b0;stroke-linecap:square;stroke-width:0.8;"/>
     </g>
     <g id="line2d_24">
      <g>
       <use style="stroke:#000000;stroke-width:0.6;" x="254.011429" xlink:href="#m03aa78d82b" y="294.88"/>
      </g>
     </g>
    </g>
    <g id="xtick_11">
     <g id="line2d_25">
      <path clip-path="url(#p86564e02d7)" d="M 293.589714 294.88 
L 293.589714 6.845228 
" style="fill:none;stroke:#b0b0b0;stroke-linecap:square;stroke-width:0.8;"/>
     </g>
     <g id="line2d_26">
      <g>
       <use style="stroke:#000000;stroke-width:0.6;" x="293.589714" xlink:href="#m03aa78d82b" y="294.88"/>
      </g>
     </g>
    </g>
    <g id="xtick_12">
     <g id="line2d_27">
      <path clip-path="url(#p86564e02d7)" d="M 333.168 294.88 
L 333.168 6.845228 
" style="fill:none;stroke:#b0b0b0;stroke-linecap:square;stroke-width:0.8;"/>
     </g>
     <g id="line2d_28">
      <g>
       <use style="stroke:#000000;stroke-width:0.6;" x="333.168" xlink:href="#m03aa78d82b" y="294.88"/>
      </g>
     </g>
    </g>
    <g id="text_5">
     <!-- log10(# f-evals / dimension) -->
     <defs>
      <path d="M 9.421875 75.984375 
L 18.40625 75.984375 
L 18.40625 0 
L 9.421875 0 
z
" id="DejaVuSans-6c"/>
      <path d="M 30.609375 48.390625 
Q 23.390625 48.390625 19.1875 42.75 
Q 14.984375 37.109375 14.984375 27.296875 
Q 14.984375 17.484375 19.15625 11.84375 
Q 23.34375 6.203125 30.609375 6.203125 
Q 37.796875 6.203125 41.984375 11.859375 
Q 46.1875 17.53125 46.1875 27.296875 
Q 46.1875 37.015625 41.984375 42.703125 
Q 37.796875 48.390625 30.609375 48.390625 
z
M 30.609375 56 
Q 42.328125 56 49.015625 48.375 
Q 55.71875 40.765625 55.71875 27.296875 
Q 55.71875 13.875 49.015625 6.21875 
Q 42.328125 -1.421875 30.609375 -1.421875 
Q 18.84375 -1.421875 12.171875 6.21875 
Q 5.515625 13.875 5.515625 27.296875 
Q 5.515625 40.765625 12.171875 48.375 
Q 18.84375 56 30.609375 56 
z
" id="DejaVuSans-6f"/>
      <path d="M 45.40625 27.984375 
Q 45.40625 37.75 41.375 43.109375 
Q 37.359375 48.484375 30.078125 48.484375 
Q 22.859375 48.484375 18.828125 43.109375 
Q 14.796875 37.75 14.796875 27.984375 
Q 14.796875 18.265625 18.828125 12.890625 
Q 22.859375 7.515625 30.078125 7.515625 
Q 37.359375 7.515625 41.375 12.890625 
Q 45.40625 18.265625 45.40625 27.984375 
z
M 54.390625 6.78125 
Q 54.390625 -7.171875 48.1875 -13.984375 
Q 42 -20.796875 29.203125 -20.796875 
Q 24.46875 -20.796875 20.265625 -20.09375 
Q 16.0625 -19.390625 12.109375 -17.921875 
L 12.109375 -9.1875 
Q 16.0625 -11.328125 19.921875 -12.34375 
Q 23.78125 -13.375 27.78125 -13.375 
Q 36.625 -13.375 41.015625 -8.765625 
Q 45.40625 -4.15625 45.40625 5.171875 
L 45.40625 9.625 
Q 42.625 4.78125 38.28125 2.390625 
Q 33.9375 0 27.875 0 
Q 17.828125 0 11.671875 7.65625 
Q 5.515625 15.328125 5.515625 27.984375 
Q 5.515625 40.671875 11.671875 48.328125 
Q 17.828125 56 27.875 56 
Q 33.9375 56 38.28125 53.609375 
Q 42.625 51.21875 45.40625 46.390625 
L 45.40625 54.6875 
L 54.390625 54.6875 
z
" id="DejaVuSans-67"/>
      <path d="M 12.40625 8.296875 
L 28.515625 8.296875 
L 28.515625 63.921875 
L 10.984375 60.40625 
L 10.984375 69.390625 
L 28.421875 72.90625 
L 38.28125 72.90625 
L 38.28125 8.296875 
L 54.390625 8.296875 
L 54.390625 0 
L 12.40625 0 
z
" id="DejaVuSans-31"/>
      <path d="M 31 75.875 
Q 24.46875 64.65625 21.28125 53.65625 
Q 18.109375 42.671875 18.109375 31.390625 
Q 18.109375 20.125 21.3125 9.0625 
Q 24.515625 -2 31 -13.1875 
L 23.1875 -13.1875 
Q 15.875 -1.703125 12.234375 9.375 
Q 8.59375 20.453125 8.59375 31.390625 
Q 8.59375 42.28125 12.203125 53.3125 
Q 15.828125 64.359375 23.1875 75.875 
z
" id="DejaVuSans-28"/>
      <path d="M 51.125 44 
L 36.921875 44 
L 32.8125 27.6875 
L 47.125 27.6875 
z
M 43.796875 71.78125 
L 38.71875 51.515625 
L 52.984375 51.515625 
L 58.109375 71.78125 
L 65.921875 71.78125 
L 60.890625 51.515625 
L 76.125 51.515625 
L 76.125 44 
L 58.984375 44 
L 54.984375 27.6875 
L 70.515625 27.6875 
L 70.515625 20.21875 
L 53.078125 20.21875 
L 48 0 
L 40.1875 0 
L 45.21875 20.21875 
L 30.90625 20.21875 
L 25.875 0 
L 18.015625 0 
L 23.09375 20.21875 
L 7.71875 20.21875 
L 7.71875 27.6875 
L 24.90625 27.6875 
L 29 44 
L 13.28125 44 
L 13.28125 51.515625 
L 30.90625 51.515625 
L 35.890625 71.78125 
z
" id="DejaVuSans-23"/>
      <path id="DejaVuSans-20"/>
      <path d="M 37.109375 75.984375 
L 37.109375 68.5 
L 28.515625 68.5 
Q 23.6875 68.5 21.796875 66.546875 
Q 19.921875 64.59375 19.921875 59.515625 
L 19.921875 54.6875 
L 34.71875 54.6875 
L 34.71875 47.703125 
L 19.921875 47.703125 
L 19.921875 0 
L 10.890625 0 
L 10.890625 47.703125 
L 2.296875 47.703125 
L 2.296875 54.6875 
L 10.890625 54.6875 
L 10.890625 58.5 
Q 10.890625 67.625 15.140625 71.796875 
Q 19.390625 75.984375 28.609375 75.984375 
z
" id="DejaVuSans-66"/>
      <path d="M 4.890625 31.390625 
L 31.203125 31.390625 
L 31.203125 23.390625 
L 4.890625 23.390625 
z
" id="DejaVuSans-2d"/>
      <path d="M 56.203125 29.59375 
L 56.203125 25.203125 
L 14.890625 25.203125 
Q 15.484375 15.921875 20.484375 11.0625 
Q 25.484375 6.203125 34.421875 6.203125 
Q 39.59375 6.203125 44.453125 7.46875 
Q 49.3125 8.734375 54.109375 11.28125 
L 54.109375 2.78125 
Q 49.265625 0.734375 44.1875 -0.34375 
Q 39.109375 -1.421875 33.890625 -1.421875 
Q 20.796875 -1.421875 13.15625 6.1875 
Q 5.515625 13.8125 5.515625 26.8125 
Q 5.515625 40.234375 12.765625 48.109375 
Q 20.015625 56 32.328125 56 
Q 43.359375 56 49.78125 48.890625 
Q 56.203125 41.796875 56.203125 29.59375 
z
M 47.21875 32.234375 
Q 47.125 39.59375 43.09375 43.984375 
Q 39.0625 48.390625 32.421875 48.390625 
Q 24.90625 48.390625 20.390625 44.140625 
Q 15.875 39.890625 15.1875 32.171875 
z
" id="DejaVuSans-65"/>
      <path d="M 2.984375 54.6875 
L 12.5 54.6875 
L 29.59375 8.796875 
L 46.6875 54.6875 
L 56.203125 54.6875 
L 35.6875 0 
L 23.484375 0 
z
" id="DejaVuSans-76"/>
      <path d="M 34.28125 27.484375 
Q 23.390625 27.484375 19.1875 25 
Q 14.984375 22.515625 14.984375 16.5 
Q 14.984375 11.71875 18.140625 8.90625 
Q 21.296875 6.109375 26.703125 6.109375 
Q 34.1875 6.109375 38.703125 11.40625 
Q 43.21875 16.703125 43.21875 25.484375 
L 43.21875 27.484375 
z
M 52.203125 31.203125 
L 52.203125 0 
L 43.21875 0 
L 43.21875 8.296875 
Q 40.140625 3.328125 35.546875 0.953125 
Q 30.953125 -1.421875 24.3125 -1.421875 
Q 15.921875 -1.421875 10.953125 3.296875 
Q 6 8.015625 6 15.921875 
Q 6 25.140625 12.171875 29.828125 
Q 18.359375 34.515625 30.609375 34.515625 
L 43.21875 34.515625 
L 43.21875 35.40625 
Q 43.21875 41.609375 39.140625 45 
Q 35.0625 48.390625 27.6875 48.390625 
Q 23 48.390625 18.546875 47.265625 
Q 14.109375 46.140625 10.015625 43.890625 
L 10.015625 52.203125 
Q 14.9375 54.109375 19.578125 55.046875 
Q 24.21875 56 28.609375 56 
Q 40.484375 56 46.34375 49.84375 
Q 52.203125 43.703125 52.203125 31.203125 
z
" id="DejaVuSans-61"/>
      <path d="M 44.28125 53.078125 
L 44.28125 44.578125 
Q 40.484375 46.53125 36.375 47.5 
Q 32.28125 48.484375 27.875 48.484375 
Q 21.1875 48.484375 17.84375 46.4375 
Q 14.5 44.390625 14.5 40.28125 
Q 14.5 37.15625 16.890625 35.375 
Q 19.28125 33.59375 26.515625 31.984375 
L 29.59375 31.296875 
Q 39.15625 29.25 43.1875 25.515625 
Q 47.21875 21.78125 47.21875 15.09375 
Q 47.21875 7.46875 41.1875 3.015625 
Q 35.15625 -1.421875 24.609375 -1.421875 
Q 20.21875 -1.421875 15.453125 -0.5625 
Q 10.6875 0.296875 5.421875 2 
L 5.421875 11.28125 
Q 10.40625 8.6875 15.234375 7.390625 
Q 20.0625 6.109375 24.8125 6.109375 
Q 31.15625 6.109375 34.5625 8.28125 
Q 37.984375 10.453125 37.984375 14.40625 
Q 37.984375 18.0625 35.515625 20.015625 
Q 33.0625 21.96875 24.703125 23.78125 
L 21.578125 24.515625 
Q 13.234375 26.265625 9.515625 29.90625 
Q 5.8125 33.546875 5.8125 39.890625 
Q 5.8125 47.609375 11.28125 51.796875 
Q 16.75 56 26.8125 56 
Q 31.78125 56 36.171875 55.265625 
Q 40.578125 54.546875 44.28125 53.078125 
z
" id="DejaVuSans-73"/>
      <path d="M 25.390625 72.90625 
L 33.6875 72.90625 
L 8.296875 -9.28125 
L 0 -9.28125 
z
" id="DejaVuSans-2f"/>
      <path d="M 45.40625 46.390625 
L 45.40625 75.984375 
L 54.390625 75.984375 
L 54.390625 0 
L 45.40625 0 
L 45.40625 8.203125 
Q 42.578125 3.328125 38.25 0.953125 
Q 33.9375 -1.421875 27.875 -1.421875 
Q 17.96875 -1.421875 11.734375 6.484375 
Q 5.515625 14.40625 5.515625 27.296875 
Q 5.515625 40.1875 11.734375 48.09375 
Q 17.96875 56 27.875 56 
Q 33.9375 56 38.25 53.625 
Q 42.578125 51.265625 45.40625 46.390625 
z
M 14.796875 27.296875 
Q 14.796875 17.390625 18.875 11.75 
Q 22.953125 6.109375 30.078125 6.109375 
Q 37.203125 6.109375 41.296875 11.75 
Q 45.40625 17.390625 45.40625 27.296875 
Q 45.40625 37.203125 41.296875 42.84375 
Q 37.203125 48.484375 30.078125 48.484375 
Q 22.953125 48.484375 18.875 42.84375 
Q 14.796875 37.203125 14.796875 27.296875 
z
" id="DejaVuSans-64"/>
      <path d="M 9.421875 54.6875 
L 18.40625 54.6875 
L 18.40625 0 
L 9.421875 0 
z
M 9.421875 75.984375 
L 18.40625 75.984375 
L 18.40625 64.59375 
L 9.421875 64.59375 
z
" id="DejaVuSans-69"/>
      <path d="M 52 44.1875 
Q 55.375 50.25 60.0625 53.125 
Q 64.75 56 71.09375 56 
Q 79.640625 56 84.28125 50.015625 
Q 88.921875 44.046875 88.921875 33.015625 
L 88.921875 0 
L 79.890625 0 
L 79.890625 32.71875 
Q 79.890625 40.578125 77.09375 44.375 
Q 74.3125 48.1875 68.609375 48.1875 
Q 61.625 48.1875 57.5625 43.546875 
Q 53.515625 38.921875 53.515625 30.90625 
L 53.515625 0 
L 44.484375 0 
L 44.484375 32.71875 
Q 44.484375 40.625 41.703125 44.40625 
Q 38.921875 48.1875 33.109375 48.1875 
Q 26.21875 48.1875 22.15625 43.53125 
Q 18.109375 38.875 18.109375 30.90625 
L 18.109375 0 
L 9.078125 0 
L 9.078125 54.6875 
L 18.109375 54.6875 
L 18.109375 46.1875 
Q 21.1875 51.21875 25.484375 53.609375 
Q 29.78125 56 35.6875 56 
Q 41.65625 56 45.828125 52.96875 
Q 50 49.953125 52 44.1875 
z
" id="DejaVuSans-6d"/>
      <path d="M 54.890625 33.015625 
L 54.890625 0 
L 45.90625 0 
L 45.90625 32.71875 
Q 45.90625 40.484375 42.875 44.328125 
Q 39.84375 48.1875 33.796875 48.1875 
Q 26.515625 48.1875 22.3125 43.546875 
Q 18.109375 38.921875 18.109375 30.90625 
L 18.109375 0 
L 9.078125 0 
L 9.078125 54.6875 
L 18.109375 54.6875 
L 18.109375 46.1875 
Q 21.34375 51.125 25.703125 53.5625 
Q 30.078125 56 35.796875 56 
Q 45.21875 56 50.046875 50.171875 
Q 54.890625 44.34375 54.890625 33.015625 
z
" id="DejaVuSans-6e"/>
      <path d="M 8.015625 75.875 
L 15.828125 75.875 
Q 23.140625 64.359375 26.78125 53.3125 
Q 30.421875 42.28125 30.421875 31.390625 
Q 30.421875 20.453125 26.78125 9.375 
Q 23.140625 -1.703125 15.828125 -13.1875 
L 8.015625 -13.1875 
Q 14.5 -2 17.703125 9.0625 
Q 20.90625 20.125 20.90625 31.390625 
Q 20.90625 42.671875 17.703125 53.65625 
Q 14.5 64.65625 8.015625 75.875 
z
" id="DejaVuSans-29"/>
     </defs>
     <g transform="translate(73.803219 338.153594)scale(0.17 -0.17)">
      <use xlink:href="#DejaVuSans-6c"/>
      <use x="27.783203" xlink:href="#DejaVuSans-6f"/>
      <use x="88.964844" xlink:href="#DejaVuSans-67"/>
      <use x="152.441406" xlink:href="#DejaVuSans-31"/>
      <use x="216.064453" xlink:href="#DejaVuSans-30"/>
      <use x="279.6875" xlink:href="#DejaVuSans-28"/>
      <use x="318.701172" xlink:href="#DejaVuSans-23"/>
      <use x="402.490234" xlink:href="#DejaVuSans-20"/>
      <use x="434.277344" xlink:href="#DejaVuSans-66"/>
      <use x="469.404297" xlink:href="#DejaVuSans-2d"/>
      <use x="505.488281" xlink:href="#DejaVuSans-65"/>
      <use x="567.011719" xlink:href="#DejaVuSans-76"/>
      <use x="626.191406" xlink:href="#DejaVuSans-61"/>
      <use x="687.470703" xlink:href="#DejaVuSans-6c"/>
      <use x="715.253906" xlink:href="#DejaVuSans-73"/>
      <use x="767.353516" xlink:href="#DejaVuSans-20"/>
      <use x="799.140625" xlink:href="#DejaVuSans-2f"/>
      <use x="832.832031" xlink:href="#DejaVuSans-20"/>
      <use x="864.619141" xlink:href="#DejaVuSans-64"/>
      <use x="928.095703" xlink:href="#DejaVuSans-69"/>
      <use x="955.878906" xlink:href="#DejaVuSans-6d"/>
      <use x="1053.291016" xlink:href="#DejaVuSans-65"/>
      <use x="1114.814453" xlink:href="#DejaVuSans-6e"/>
      <use x="1178.193359" xlink:href="#DejaVuSans-73"/>
      <use x="1230.292969" xlink:href="#DejaVuSans-69"/>
      <use x="1258.076172" xlink:href="#DejaVuSans-6f"/>
      <use x="1319.257812" xlink:href="#DejaVuSans-6e"/>
      <use x="1382.636719" xlink:href="#DejaVuSans-29"/>
     </g>
    </g>
   </g>
   <g id="matplotlib.axis_2">
    <g id="ytick_1">
     <g id="line2d_29">
      <path clip-path="url(#p86564e02d7)" d="M 56.12 294.88 
L 333.168 294.88 
" style="fill:none;stroke:#b0b0b0;stroke-linecap:square;stroke-width:0.8;"/>
     </g>
     <g id="line2d_30">
      <defs>
       <path d="M 0 0 
L -3.5 0 
" id="m7849ec1d38" style="stroke:#000000;stroke-width:0.8;"/>
      </defs>
      <g>
       <use style="stroke:#000000;stroke-width:0.8;" x="56.12" xlink:href="#m7849ec1d38" y="294.88"/>
      </g>
     </g>
     <g id="text_6">
      <!-- 0.0 -->
      <defs>
       <path d="M 10.6875 12.40625 
L 21 12.40625 
L 21 0 
L 10.6875 0 
z
" id="DejaVuSans-2e"/>
      </defs>
      <g transform="translate(23.675 300.95875)scale(0.16 -0.16)">
       <use xlink:href="#DejaVuSans-30"/>
       <use x="63.623047" xlink:href="#DejaVuSans-2e"/>
       <use x="95.410156" xlink:href="#DejaVuSans-30"/>
      </g>
     </g>
    </g>
    <g id="ytick_2">
     <g id="line2d_31">
      <path clip-path="url(#p86564e02d7)" d="M 56.12 237.843411 
L 333.168 237.843411 
" style="fill:none;stroke:#b0b0b0;stroke-linecap:square;stroke-width:0.8;"/>
     </g>
     <g id="line2d_32">
      <g>
       <use style="stroke:#000000;stroke-width:0.8;" x="56.12" xlink:href="#m7849ec1d38" y="237.843411"/>
      </g>
     </g>
     <g id="text_7">
      <!-- 0.2 -->
      <g transform="translate(23.675 243.922161)scale(0.16 -0.16)">
       <use xlink:href="#DejaVuSans-30"/>
       <use x="63.623047" xlink:href="#DejaVuSans-2e"/>
       <use x="95.410156" xlink:href="#DejaVuSans-32"/>
      </g>
     </g>
    </g>
    <g id="ytick_3">
     <g id="line2d_33">
      <path clip-path="url(#p86564e02d7)" d="M 56.12 180.806823 
L 333.168 180.806823 
" style="fill:none;stroke:#b0b0b0;stroke-linecap:square;stroke-width:0.8;"/>
     </g>
     <g id="line2d_34">
      <g>
       <use style="stroke:#000000;stroke-width:0.8;" x="56.12" xlink:href="#m7849ec1d38" y="180.806823"/>
      </g>
     </g>
     <g id="text_8">
      <!-- 0.4 -->
      <g transform="translate(23.675 186.885573)scale(0.16 -0.16)">
       <use xlink:href="#DejaVuSans-30"/>
       <use x="63.623047" xlink:href="#DejaVuSans-2e"/>
       <use x="95.410156" xlink:href="#DejaVuSans-34"/>
      </g>
     </g>
    </g>
    <g id="ytick_4">
     <g id="line2d_35">
      <path clip-path="url(#p86564e02d7)" d="M 56.12 123.770234 
L 333.168 123.770234 
" style="fill:none;stroke:#b0b0b0;stroke-linecap:square;stroke-width:0.8;"/>
     </g>
     <g id="line2d_36">
      <g>
       <use style="stroke:#000000;stroke-width:0.8;" x="56.12" xlink:href="#m7849ec1d38" y="123.770234"/>
      </g>
     </g>
     <g id="text_9">
      <!-- 0.6 -->
      <g transform="translate(23.675 129.848984)scale(0.16 -0.16)">
       <use xlink:href="#DejaVuSans-30"/>
       <use x="63.623047" xlink:href="#DejaVuSans-2e"/>
       <use x="95.410156" xlink:href="#DejaVuSans-36"/>
      </g>
     </g>
    </g>
    <g id="ytick_5">
     <g id="line2d_37">
      <path clip-path="url(#p86564e02d7)" d="M 56.12 66.733646 
L 333.168 66.733646 
" style="fill:none;stroke:#b0b0b0;stroke-linecap:square;stroke-width:0.8;"/>
     </g>
     <g id="line2d_38">
      <g>
       <use style="stroke:#000000;stroke-width:0.8;" x="56.12" xlink:href="#m7849ec1d38" y="66.733646"/>
      </g>
     </g>
     <g id="text_10">
      <!-- 0.8 -->
      <defs>
       <path d="M 31.78125 34.625 
Q 24.75 34.625 20.71875 30.859375 
Q 16.703125 27.09375 16.703125 20.515625 
Q 16.703125 13.921875 20.71875 10.15625 
Q 24.75 6.390625 31.78125 6.390625 
Q 38.8125 6.390625 42.859375 10.171875 
Q 46.921875 13.96875 46.921875 20.515625 
Q 46.921875 27.09375 42.890625 30.859375 
Q 38.875 34.625 31.78125 34.625 
z
M 21.921875 38.8125 
Q 15.578125 40.375 12.03125 44.71875 
Q 8.5 49.078125 8.5 55.328125 
Q 8.5 64.0625 14.71875 69.140625 
Q 20.953125 74.21875 31.78125 74.21875 
Q 42.671875 74.21875 48.875 69.140625 
Q 55.078125 64.0625 55.078125 55.328125 
Q 55.078125 49.078125 51.53125 44.71875 
Q 48 40.375 41.703125 38.8125 
Q 48.828125 37.15625 52.796875 32.3125 
Q 56.78125 27.484375 56.78125 20.515625 
Q 56.78125 9.90625 50.3125 4.234375 
Q 43.84375 -1.421875 31.78125 -1.421875 
Q 19.734375 -1.421875 13.25 4.234375 
Q 6.78125 9.90625 6.78125 20.515625 
Q 6.78125 27.484375 10.78125 32.3125 
Q 14.796875 37.15625 21.921875 38.8125 
z
M 18.3125 54.390625 
Q 18.3125 48.734375 21.84375 45.5625 
Q 25.390625 42.390625 31.78125 42.390625 
Q 38.140625 42.390625 41.71875 45.5625 
Q 45.3125 48.734375 45.3125 54.390625 
Q 45.3125 60.0625 41.71875 63.234375 
Q 38.140625 66.40625 31.78125 66.40625 
Q 25.390625 66.40625 21.84375 63.234375 
Q 18.3125 60.0625 18.3125 54.390625 
z
" id="DejaVuSans-38"/>
      </defs>
      <g transform="translate(23.675 72.812396)scale(0.16 -0.16)">
       <use xlink:href="#DejaVuSans-30"/>
       <use x="63.623047" xlink:href="#DejaVuSans-2e"/>
       <use x="95.410156" xlink:href="#DejaVuSans-38"/>
      </g>
     </g>
    </g>
    <g id="ytick_6">
     <g id="line2d_39">
      <path clip-path="url(#p86564e02d7)" d="M 56.12 9.697057 
L 333.168 9.697057 
" style="fill:none;stroke:#b0b0b0;stroke-linecap:square;stroke-width:0.8;"/>
     </g>
     <g id="line2d_40">
      <g>
       <use style="stroke:#000000;stroke-width:0.8;" x="56.12" xlink:href="#m7849ec1d38" y="9.697057"/>
      </g>
     </g>
     <g id="text_11">
      <!-- 1.0 -->
      <g transform="translate(23.675 15.775807)scale(0.16 -0.16)">
       <use xlink:href="#DejaVuSans-31"/>
       <use x="63.623047" xlink:href="#DejaVuSans-2e"/>
       <use x="95.410156" xlink:href="#DejaVuSans-30"/>
      </g>
     </g>
    </g>
    <g id="text_12">
     <!-- Fraction of function,target pairs -->
     <defs>
      <path d="M 9.8125 72.90625 
L 51.703125 72.90625 
L 51.703125 64.59375 
L 19.671875 64.59375 
L 19.671875 43.109375 
L 48.578125 43.109375 
L 48.578125 34.8125 
L 19.671875 34.8125 
L 19.671875 0 
L 9.8125 0 
z
" id="DejaVuSans-46"/>
      <path d="M 41.109375 46.296875 
Q 39.59375 47.171875 37.8125 47.578125 
Q 36.03125 48 33.890625 48 
Q 26.265625 48 22.1875 43.046875 
Q 18.109375 38.09375 18.109375 28.8125 
L 18.109375 0 
L 9.078125 0 
L 9.078125 54.6875 
L 18.109375 54.6875 
L 18.109375 46.1875 
Q 20.953125 51.171875 25.484375 53.578125 
Q 30.03125 56 36.53125 56 
Q 37.453125 56 38.578125 55.875 
Q 39.703125 55.765625 41.0625 55.515625 
z
" id="DejaVuSans-72"/>
      <path d="M 48.78125 52.59375 
L 48.78125 44.1875 
Q 44.96875 46.296875 41.140625 47.34375 
Q 37.3125 48.390625 33.40625 48.390625 
Q 24.65625 48.390625 19.8125 42.84375 
Q 14.984375 37.3125 14.984375 27.296875 
Q 14.984375 17.28125 19.8125 11.734375 
Q 24.65625 6.203125 33.40625 6.203125 
Q 37.3125 6.203125 41.140625 7.25 
Q 44.96875 8.296875 48.78125 10.40625 
L 48.78125 2.09375 
Q 45.015625 0.34375 40.984375 -0.53125 
Q 36.96875 -1.421875 32.421875 -1.421875 
Q 20.0625 -1.421875 12.78125 6.34375 
Q 5.515625 14.109375 5.515625 27.296875 
Q 5.515625 40.671875 12.859375 48.328125 
Q 20.21875 56 33.015625 56 
Q 37.15625 56 41.109375 55.140625 
Q 45.0625 54.296875 48.78125 52.59375 
z
" id="DejaVuSans-63"/>
      <path d="M 18.3125 70.21875 
L 18.3125 54.6875 
L 36.8125 54.6875 
L 36.8125 47.703125 
L 18.3125 47.703125 
L 18.3125 18.015625 
Q 18.3125 11.328125 20.140625 9.421875 
Q 21.96875 7.515625 27.59375 7.515625 
L 36.8125 7.515625 
L 36.8125 0 
L 27.59375 0 
Q 17.1875 0 13.234375 3.875 
Q 9.28125 7.765625 9.28125 18.015625 
L 9.28125 47.703125 
L 2.6875 47.703125 
L 2.6875 54.6875 
L 9.28125 54.6875 
L 9.28125 70.21875 
z
" id="DejaVuSans-74"/>
      <path d="M 8.5 21.578125 
L 8.5 54.6875 
L 17.484375 54.6875 
L 17.484375 21.921875 
Q 17.484375 14.15625 20.5 10.265625 
Q 23.53125 6.390625 29.59375 6.390625 
Q 36.859375 6.390625 41.078125 11.03125 
Q 45.3125 15.671875 45.3125 23.6875 
L 45.3125 54.6875 
L 54.296875 54.6875 
L 54.296875 0 
L 45.3125 0 
L 45.3125 8.40625 
Q 42.046875 3.421875 37.71875 1 
Q 33.40625 -1.421875 27.6875 -1.421875 
Q 18.265625 -1.421875 13.375 4.4375 
Q 8.5 10.296875 8.5 21.578125 
z
M 31.109375 56 
z
" id="DejaVuSans-75"/>
      <path d="M 11.71875 12.40625 
L 22.015625 12.40625 
L 22.015625 4 
L 14.015625 -11.625 
L 7.71875 -11.625 
L 11.71875 4 
z
" id="DejaVuSans-2c"/>
      <path d="M 18.109375 8.203125 
L 18.109375 -20.796875 
L 9.078125 -20.796875 
L 9.078125 54.6875 
L 18.109375 54.6875 
L 18.109375 46.390625 
Q 20.953125 51.265625 25.265625 53.625 
Q 29.59375 56 35.59375 56 
Q 45.5625 56 51.78125 48.09375 
Q 58.015625 40.1875 58.015625 27.296875 
Q 58.015625 14.40625 51.78125 6.484375 
Q 45.5625 -1.421875 35.59375 -1.421875 
Q 29.59375 -1.421875 25.265625 0.953125 
Q 20.953125 3.328125 18.109375 8.203125 
z
M 48.6875 27.296875 
Q 48.6875 37.203125 44.609375 42.84375 
Q 40.53125 48.484375 33.40625 48.484375 
Q 26.265625 48.484375 22.1875 42.84375 
Q 18.109375 37.203125 18.109375 27.296875 
Q 18.109375 17.390625 22.1875 11.75 
Q 26.265625 6.109375 33.40625 6.109375 
Q 40.53125 6.109375 44.609375 11.75 
Q 48.6875 17.390625 48.6875 27.296875 
z
" id="DejaVuSans-70"/>
     </defs>
     <g transform="translate(16.139531 286.001989)rotate(-90)scale(0.17 -0.17)">
      <use xlink:href="#DejaVuSans-46"/>
      <use x="57.410156" xlink:href="#DejaVuSans-72"/>
      <use x="98.523438" xlink:href="#DejaVuSans-61"/>
      <use x="159.802734" xlink:href="#DejaVuSans-63"/>
      <use x="214.783203" xlink:href="#DejaVuSans-74"/>
      <use x="253.992188" xlink:href="#DejaVuSans-69"/>
      <use x="281.775391" xlink:href="#DejaVuSans-6f"/>
      <use x="342.957031" xlink:href="#DejaVuSans-6e"/>
      <use x="406.335938" xlink:href="#DejaVuSans-20"/>
      <use x="438.123047" xlink:href="#DejaVuSans-6f"/>
      <use x="499.304688" xlink:href="#DejaVuSans-66"/>
      <use x="534.509766" xlink:href="#DejaVuSans-20"/>
      <use x="566.296875" xlink:href="#DejaVuSans-66"/>
      <use x="601.501953" xlink:href="#DejaVuSans-75"/>
      <use x="664.880859" xlink:href="#DejaVuSans-6e"/>
      <use x="728.259766" xlink:href="#DejaVuSans-63"/>
      <use x="783.240234" xlink:href="#DejaVuSans-74"/>
      <use x="822.449219" xlink:href="#DejaVuSans-69"/>
      <use x="850.232422" xlink:href="#DejaVuSans-6f"/>
      <use x="911.414062" xlink:href="#DejaVuSans-6e"/>
      <use x="974.792969" xlink:href="#DejaVuSans-2c"/>
      <use x="1006.580078" xlink:href="#DejaVuSans-74"/>
      <use x="1045.789062" xlink:href="#DejaVuSans-61"/>
      <use x="1107.068359" xlink:href="#DejaVuSans-72"/>
      <use x="1148.166016" xlink:href="#DejaVuSans-67"/>
      <use x="1211.642578" xlink:href="#DejaVuSans-65"/>
      <use x="1273.166016" xlink:href="#DejaVuSans-74"/>
      <use x="1312.375" xlink:href="#DejaVuSans-20"/>
      <use x="1344.162109" xlink:href="#DejaVuSans-70"/>
      <use x="1407.638672" xlink:href="#DejaVuSans-61"/>
      <use x="1468.917969" xlink:href="#DejaVuSans-69"/>
      <use x="1496.701172" xlink:href="#DejaVuSans-72"/>
      <use x="1537.814453" xlink:href="#DejaVuSans-73"/>
     </g>
    </g>
   </g>
   <g id="line2d_41">
    <defs>
     <path d="M 0 1.5 
C 0.397805 1.5 0.77937 1.341951 1.06066 1.06066 
C 1.341951 0.77937 1.5 0.397805 1.5 0 
C 1.5 -0.397805 1.341951 -0.77937 1.06066 -1.06066 
C 0.77937 -1.341951 0.397805 -1.5 0 -1.5 
C -0.397805 -1.5 -0.77937 -1.341951 -1.06066 -1.06066 
C -1.341951 -0.77937 -1.5 -0.397805 -1.5 0 
C -1.5 0.397805 -1.341951 0.77937 -1.06066 1.06066 
C -0.77937 1.341951 -0.397805 1.5 0 1.5 
z
" id="m8c348fff13" style="stroke:#f5deb3;"/>
    </defs>
    <g>
     <use style="fill:#f5deb3;stroke:#f5deb3;" x="156.691581" xlink:href="#m8c348fff13" y="9.697057"/>
     <use style="fill:#f5deb3;stroke:#f5deb3;" x="156.691581" xlink:href="#m8c348fff13" y="9.697057"/>
    </g>
   </g>
   <g id="line2d_42">
    <defs>
     <path d="M 0 1.5 
C 0.397805 1.5 0.77937 1.341951 1.06066 1.06066 
C 1.341951 0.77937 1.5 0.397805 1.5 0 
C 1.5 -0.397805 1.341951 -0.77937 1.06066 -1.06066 
C 0.77937 -1.341951 0.397805 -1.5 0 -1.5 
C -0.397805 -1.5 -0.77937 -1.341951 -1.06066 -1.06066 
C -1.341951 -0.77937 -1.5 -0.397805 -1.5 0 
C -1.5 0.397805 -1.341951 0.77937 -1.06066 1.06066 
C -0.77937 1.341951 -0.397805 1.5 0 1.5 
z
" id="m4d4b480bb2" style="stroke:#000080;"/>
    </defs>
    <g>
     <use style="fill:#000080;stroke:#000080;" x="233.967229" xlink:href="#m4d4b480bb2" y="74.003015"/>
     <use style="fill:#000080;stroke:#000080;" x="233.967229" xlink:href="#m4d4b480bb2" y="74.003015"/>
    </g>
   </g>
   <g id="line2d_43">
    <path d="M 61.903497 294.88 
L 61.903497 294.600409 
L 72.543934 294.600409 
L 72.543934 294.320818 
L 79.066841 294.320818 
L 79.066841 293.62184 
L 83.784035 293.62184 
L 83.784035 292.922862 
L 87.481505 292.922862 
L 87.481505 292.084089 
L 90.522701 292.084089 
L 90.522701 291.10552 
L 93.105847 291.10552 
L 93.105847 290.965724 
L 95.351029 290.965724 
L 95.351029 290.546338 
L 97.336537 290.546338 
L 97.336537 289.84736 
L 99.11626 289.84736 
L 99.11626 289.008586 
L 100.728876 289.008586 
L 100.728876 288.169813 
L 102.20309 288.169813 
L 102.20309 286.771858 
L 103.560793 286.771858 
L 103.560793 285.513697 
L 104.819059 285.513697 
L 104.819059 284.535129 
L 105.991465 284.535129 
L 105.991465 282.717786 
L 107.088985 282.717786 
L 107.088985 280.900444 
L 108.120612 280.900444 
L 108.120612 279.362693 
L 109.093814 279.362693 
L 109.093814 278.244328 
L 110.014853 278.244328 
L 110.014853 276.426986 
L 110.88904 276.426986 
L 110.88904 275.308622 
L 111.72091 275.308622 
L 111.72091 274.609644 
L 112.514373 274.609644 
L 112.514373 273.910666 
L 113.272818 273.910666 
L 113.272818 272.51271 
L 113.999206 272.51271 
L 113.999206 271.953528 
L 114.696138 271.953528 
L 114.696138 271.25455 
L 115.365909 271.25455 
L 115.365909 269.99639 
L 116.010559 269.99639 
L 116.010559 269.437208 
L 116.631902 269.437208 
L 116.631902 268.179048 
L 117.231566 268.179048 
L 117.231566 268.039252 
L 117.811013 268.039252 
L 117.811013 267.48007 
L 118.371562 267.48007 
L 118.371562 266.501501 
L 118.914406 266.501501 
L 118.914406 265.942319 
L 119.440629 265.942319 
L 119.440629 265.383137 
L 119.95122 265.383137 
L 119.95122 264.823955 
L 120.447081 264.823955 
L 120.447081 264.264772 
L 120.929036 264.264772 
L 120.929036 263.985181 
L 121.397846 263.985181 
L 121.397846 263.565795 
L 121.854208 263.565795 
L 121.854208 262.727021 
L 122.298767 262.727021 
L 122.298767 262.307634 
L 122.732117 262.307634 
L 122.732117 261.468861 
L 123.154809 261.468861 
L 123.154809 259.651519 
L 123.567356 259.651519 
L 123.567356 258.533154 
L 123.970233 258.533154 
L 123.970233 257.274994 
L 124.363883 257.274994 
L 124.363883 255.597448 
L 124.748719 255.597448 
L 124.748719 254.199492 
L 125.125128 254.199492 
L 125.125128 252.661741 
L 125.49347 252.661741 
L 125.49347 250.704603 
L 125.854083 250.704603 
L 125.854083 249.586238 
L 126.207287 249.586238 
L 126.207287 248.048487 
L 126.553378 248.048487 
L 126.553378 246.510736 
L 126.892639 246.510736 
L 126.892639 244.134212 
L 127.225332 244.134212 
L 127.225332 241.897483 
L 127.551708 241.897483 
L 127.551708 238.82198 
L 127.872003 238.82198 
L 127.872003 236.864843 
L 128.186438 236.864843 
L 128.186438 232.950567 
L 128.495224 232.950567 
L 128.495224 230.01486 
L 128.798561 230.01486 
L 128.798561 227.917927 
L 129.096637 227.917927 
L 129.096637 226.100584 
L 129.389632 226.100584 
L 129.389632 223.72406 
L 129.677716 223.72406 
L 129.677716 220.089375 
L 129.961052 220.089375 
L 129.961052 217.712851 
L 130.239792 217.712851 
L 130.239792 215.336326 
L 130.514085 215.336326 
L 130.514085 213.938371 
L 130.784069 213.938371 
L 130.784069 212.121028 
L 131.049878 212.121028 
L 131.049878 209.464913 
L 131.311639 209.464913 
L 131.311639 207.367979 
L 131.569473 207.367979 
L 131.569473 205.13125 
L 131.823497 205.13125 
L 131.823497 204.152681 
L 132.073821 204.152681 
L 132.073821 202.195544 
L 132.320552 202.195544 
L 132.320552 201.636361 
L 132.563791 201.636361 
L 132.563791 200.937384 
L 132.803637 200.937384 
L 132.803637 200.09861 
L 133.040181 200.09861 
L 133.040181 199.539428 
L 133.273515 199.539428 
L 133.273515 198.421063 
L 133.503723 198.421063 
L 133.503723 196.743517 
L 133.730889 196.743517 
L 133.730889 194.786379 
L 133.955092 194.786379 
L 133.955092 192.54965 
L 134.176407 192.54965 
L 134.176407 189.893534 
L 134.39491 189.893534 
L 134.39491 186.538441 
L 134.61067 186.538441 
L 134.61067 183.323143 
L 134.823755 183.323143 
L 134.823755 181.505801 
L 135.03423 181.505801 
L 135.03423 180.806823 
L 135.24216 180.806823 
L 135.24216 178.849685 
L 135.447604 178.849685 
L 135.447604 177.451729 
L 135.650622 177.451729 
L 135.650622 175.634387 
L 135.851269 175.634387 
L 135.851269 173.95684 
L 136.049602 173.95684 
L 136.049602 172.69868 
L 136.245672 172.69868 
L 136.245672 171.021134 
L 136.439531 171.021134 
L 136.439531 169.762974 
L 136.631228 169.762974 
L 136.631228 168.9242 
L 136.82081 168.9242 
L 136.82081 168.225222 
L 137.008324 168.225222 
L 137.008324 167.945631 
L 137.377325 167.945631 
L 137.377325 167.66604 
L 137.558897 167.66604 
L 137.558897 166.547676 
L 137.738571 166.547676 
L 137.738571 166.128289 
L 137.916386 166.128289 
L 137.916386 165.708902 
L 138.09238 165.708902 
L 138.09238 165.009925 
L 138.266591 165.009925 
L 138.266591 164.171151 
L 138.439053 164.171151 
L 138.439053 162.773196 
L 138.609803 162.773196 
L 138.609803 161.934422 
L 138.778873 161.934422 
L 138.778873 160.816058 
L 138.946296 160.816058 
L 138.946296 160.396671 
L 139.112104 160.396671 
L 139.112104 159.977284 
L 139.276327 159.977284 
L 139.276327 159.557898 
L 139.438997 159.557898 
L 139.438997 159.138511 
L 139.600142 159.138511 
L 139.600142 158.85892 
L 139.917968 158.85892 
L 139.917968 158.579329 
L 140.074705 158.579329 
L 140.074705 158.439533 
L 140.230025 158.439533 
L 140.230025 157.740555 
L 140.383954 157.740555 
L 140.383954 157.041578 
L 140.536516 157.041578 
L 140.536516 156.901782 
L 140.687737 156.901782 
L 140.687737 156.202804 
L 140.837639 156.202804 
L 140.837639 155.783418 
L 140.986245 155.783418 
L 140.986245 155.08444 
L 141.133577 155.08444 
L 141.133577 154.245666 
L 141.279657 154.245666 
L 141.279657 153.82628 
L 141.424506 153.82628 
L 141.424506 153.127302 
L 141.568144 153.127302 
L 141.568144 152.428324 
L 141.710592 152.428324 
L 141.710592 151.869142 
L 141.851869 151.869142 
L 141.851869 150.471186 
L 141.991995 150.471186 
L 141.991995 150.191595 
L 142.130987 150.191595 
L 142.130987 149.352822 
L 142.268865 149.352822 
L 142.268865 148.933435 
L 142.405645 148.933435 
L 142.405645 147.53548 
L 142.541345 147.53548 
L 142.541345 146.836502 
L 142.675983 146.836502 
L 142.675983 145.718137 
L 142.809574 145.718137 
L 142.809574 144.599773 
L 142.942135 144.599773 
L 142.942135 143.900795 
L 143.073681 143.900795 
L 143.073681 143.760999 
L 143.204228 143.760999 
L 143.204228 142.922226 
L 143.333791 142.922226 
L 143.333791 142.78243 
L 143.462385 142.78243 
L 143.462385 141.803862 
L 143.590024 141.803862 
L 143.590024 141.104884 
L 143.716722 141.104884 
L 143.716722 139.846724 
L 143.842493 139.846724 
L 143.842493 137.609995 
L 143.967351 137.609995 
L 143.967351 134.254901 
L 144.091308 134.254901 
L 144.091308 132.71715 
L 144.214377 132.71715 
L 144.214377 132.437559 
L 144.336572 132.437559 
L 144.336572 132.297763 
L 144.578385 132.297763 
L 144.578385 132.157968 
L 144.698028 132.157968 
L 144.698028 131.738581 
L 144.816844 131.738581 
L 144.816844 131.319195 
L 144.934844 131.319195 
L 144.934844 131.039603 
L 145.168442 131.039603 
L 145.168442 130.899808 
L 145.284061 130.899808 
L 145.284061 130.620217 
L 145.398907 130.620217 
L 145.398907 130.480421 
L 145.512992 130.480421 
L 145.512992 129.921239 
L 145.626324 129.921239 
L 145.626324 128.94267 
L 145.738913 128.94267 
L 145.738913 128.523283 
L 145.85077 128.523283 
L 145.85077 127.824306 
L 145.961904 127.824306 
L 146.072324 125.587577 
L 146.182039 125.587577 
L 146.291058 124.748803 
L 146.39939 124.748803 
L 146.39939 124.609008 
L 146.614027 124.609008 
L 146.614027 124.329417 
L 146.93104 124.329417 
L 147.035425 124.049825 
L 147.139179 124.049825 
L 147.242311 123.630439 
L 147.446737 123.630439 
L 147.548046 123.211052 
L 147.848437 123.211052 
L 147.947413 122.791665 
L 148.045821 122.791665 
L 148.143669 122.372279 
L 148.240964 122.372279 
L 148.337711 121.813096 
L 148.719342 121.813096 
L 148.719342 121.533505 
L 149.000107 121.533505 
L 149.000107 121.39371 
L 149.184767 121.39371 
L 149.276358 120.554936 
L 149.45809 120.554936 
L 149.548241 119.576367 
L 149.727135 119.576367 
L 149.815889 118.737594 
L 149.992034 118.737594 
L 150.079434 118.178412 
L 150.252912 118.178412 
L 150.338998 117.759025 
L 150.509889 117.759025 
L 150.509889 117.61923 
L 150.763082 117.61923 
L 150.846657 117.199843 
L 151.012598 117.199843 
L 151.094972 116.780456 
L 151.176953 116.780456 
L 151.258545 115.941683 
L 151.339751 115.941683 
L 151.339751 115.801887 
L 151.501022 115.801887 
L 151.581093 115.382501 
L 151.660793 115.382501 
L 151.740126 114.683523 
L 151.819093 114.683523 
L 151.819093 114.403932 
L 151.975949 114.403932 
L 152.053843 113.984545 
L 152.131386 113.984545 
L 152.131386 113.84475 
L 152.28543 113.84475 
L 152.361937 113.425363 
L 152.438106 113.425363 
L 152.438106 113.285567 
L 152.589437 113.285567 
L 152.664606 112.726385 
L 152.813965 112.726385 
L 152.888161 112.446794 
L 152.962038 112.446794 
L 153.035598 111.188634 
L 153.108845 111.188634 
L 153.181782 110.349861 
L 153.25441 110.349861 
L 153.326732 109.930474 
L 153.613017 109.930474 
L 153.68385 109.511087 
L 153.824645 109.511087 
L 153.824645 109.371292 
L 154.102822 109.371292 
L 154.102822 109.0917 
L 154.579054 109.0917 
L 154.579054 108.951905 
L 154.845378 108.951905 
L 154.911319 108.672314 
L 155.042447 108.672314 
L 155.042447 108.532518 
L 155.172583 108.532518 
L 155.172583 108.392723 
L 155.429934 108.392723 
L 155.493675 108.113132 
L 155.808878 108.113132 
L 155.808878 107.973336 
L 155.933359 107.973336 
L 155.933359 107.693745 
L 156.179648 107.693745 
L 156.179648 107.553949 
L 156.301482 107.553949 
L 156.301482 107.414154 
L 156.422458 107.414154 
L 156.482628 106.994767 
L 156.542589 106.994767 
L 156.542589 106.854972 
L 156.661886 106.854972 
L 156.721225 106.57538 
L 156.78036 106.57538 
L 156.78036 106.435585 
L 156.898024 106.435585 
L 156.898024 106.295789 
L 157.014888 106.295789 
L 157.014888 106.016198 
L 157.188707 106.016198 
L 157.246258 105.736607 
L 157.417765 105.736607 
L 157.474555 105.177425 
L 157.587577 105.177425 
L 157.64381 104.618243 
L 157.811415 104.618243 
L 157.866922 103.919265 
L 157.977401 103.919265 
L 158.087174 103.360082 
L 158.196251 103.360082 
L 158.30464 102.8009 
L 158.358579 102.8009 
L 158.465953 101.54274 
L 158.519389 101.54274 
L 158.625765 99.865193 
L 158.678708 99.865193 
L 158.784106 98.047851 
L 158.888862 98.047851 
L 158.941001 97.76826 
L 159.403273 97.76826 
L 159.504333 97.209078 
L 159.604803 97.209078 
L 159.704689 96.929487 
L 159.951893 96.929487 
L 159.951893 96.789691 
L 160.098527 96.789691 
L 160.195592 96.5101 
L 160.24392 96.5101 
L 160.24392 96.370304 
L 160.435885 96.370304 
L 160.435885 96.230509 
L 160.672864 96.230509 
L 160.766748 95.811122 
L 160.813499 95.811122 
L 160.90662 95.391736 
L 160.952993 95.391736 
L 160.99924 95.112144 
L 161.091363 95.112144 
L 161.182996 94.832553 
L 161.228629 94.832553 
L 161.228629 94.692758 
L 161.633969 94.692758 
L 161.678423 94.413167 
L 161.811097 94.413167 
L 161.898981 93.714189 
L 161.942756 93.714189 
L 161.942756 93.434598 
L 162.116746 93.434598 
L 162.116746 93.294802 
L 162.288992 93.294802 
L 162.374473 92.456029 
L 162.417054 92.456029 
L 162.501901 91.757051 
L 162.544168 91.757051 
L 162.544168 91.617255 
L 162.712205 91.617255 
L 162.712205 91.47746 
L 163.084387 91.47746 
L 163.084387 91.337664 
L 163.24725 91.337664 
L 163.24725 91.197869 
L 163.368392 91.197869 
L 163.368392 91.058073 
L 164.000446 91.058073 
L 164.077844 90.359095 
L 164.116412 90.359095 
L 164.19329 89.520322 
L 164.269826 89.520322 
L 164.307966 89.240731 
L 164.647475 89.240731 
L 164.647475 89.100935 
L 165.627529 89.100935 
L 165.733053 88.821344 
L 165.976785 88.821344 
L 165.976785 88.681549 
L 166.148787 88.681549 
L 166.251168 88.401958 
L 166.28516 88.401958 
L 166.352943 88.122366 
L 166.454119 88.122366 
L 166.487713 87.70298 
L 166.588101 87.70298 
L 166.588101 87.563184 
L 168.301512 87.563184 
L 168.361806 87.143798 
L 168.924285 87.143798 
L 168.924285 86.864206 
L 169.184432 86.864206 
L 169.184432 86.724411 
L 169.327275 86.724411 
L 169.412414 86.44482 
L 169.609448 86.44482 
L 169.609448 86.305024 
L 169.804248 86.305024 
L 169.804248 86.165229 
L 170.375743 86.165229 
L 170.429193 85.885637 
L 170.641347 85.885637 
L 170.693978 85.606046 
L 171.057956 85.606046 
L 171.057956 85.466251 
L 173.161859 85.466251 
L 173.161859 85.326455 
L 173.522236 85.326455 
L 173.522236 85.18666 
L 174.327761 85.18666 
L 174.412625 84.767273 
L 175.419578 84.767273 
L 175.419578 84.627477 
L 175.736003 84.627477 
L 175.77515 84.068295 
L 176.123514 84.068295 
L 176.123514 83.9285 
L 176.502482 83.9285 
L 176.539923 83.369317 
L 177.200282 83.369317 
L 177.290025 82.949931 
L 177.328768 82.949931 
L 177.328768 82.810135 
L 177.818857 82.810135 
L 177.818857 82.67034 
L 178.813704 82.67034 
L 178.813704 82.530544 
L 179.456846 82.530544 
L 179.551274 81.691771 
L 179.582636 81.691771 
L 179.691952 81.272384 
L 181.812784 81.272384 
L 181.812784 81.132588 
L 182.60604 81.132588 
L 182.60604 80.992793 
L 184.810414 80.992793 
L 184.845053 80.713202 
L 189.565938 80.713202 
L 189.592211 80.433611 
L 190.586755 80.433611 
L 190.611515 79.734633 
L 191.187316 79.734633 
L 191.20326 79.315246 
L 196.408752 79.315246 
L 196.414637 78.756064 
L 197.51434 78.756064 
L 197.51434 78.616268 
L 199.260551 78.616268 
L 199.34511 78.196882 
L 199.389708 78.196882 
L 199.389708 78.057086 
L 200.900087 78.057086 
L 200.900087 77.917291 
L 204.107694 77.917291 
L 204.190238 77.497904 
L 205.677369 77.497904 
L 205.677369 77.358108 
L 208.112266 77.358108 
L 208.168782 76.798926 
L 210.189296 76.798926 
L 210.189296 76.65913 
L 213.511267 76.65913 
L 213.511267 76.519335 
L 216.356842 76.519335 
L 216.356842 76.379539 
L 216.869206 76.379539 
L 216.874575 76.099948 
L 218.960005 76.099948 
L 218.960005 75.960153 
L 219.581086 75.960153 
L 219.581086 75.820357 
L 220.033716 75.820357 
L 220.033716 75.540766 
L 220.884887 75.540766 
L 220.884887 75.40097 
L 221.115739 75.40097 
L 221.115739 75.261175 
L 221.856008 75.261175 
L 221.856008 75.121379 
L 222.581121 75.121379 
L 222.581121 74.701993 
L 223.382594 74.701993 
L 223.382594 74.422402 
L 225.44926 74.422402 
L 225.44926 74.282606 
L 232.51683 74.282606 
L 232.51683 74.14281 
L 233.967229 74.14281 
L 233.967229 74.003015 
L 333.168 74.003015 
L 333.168 74.003015 
" style="fill:none;stroke:#000080;stroke-linecap:square;stroke-width:1.5;"/>
   </g>
   <g id="line2d_44">
    <defs>
     <path d="M 0 6 
C 1.591219 6 3.117479 5.367802 4.242641 4.242641 
C 5.367802 3.117479 6 1.591219 6 0 
C 6 -1.591219 5.367802 -3.117479 4.242641 -4.242641 
C 3.117479 -5.367802 1.591219 -6 0 -6 
C -1.591219 -6 -3.117479 -5.367802 -4.242641 -4.242641 
C -5.367802 -3.117479 -6 -1.591219 -6 0 
C -6 1.591219 -5.367802 3.117479 -4.242641 4.242641 
C -3.117479 5.367802 -1.591219 6 0 6 
z
" id="m409530f124" style="stroke:#000080;stroke-width:1.5;"/>
    </defs>
    <g>
     <use style="fill:none;stroke:#000080;stroke-width:1.5;" x="134.61067" xlink:href="#m409530f124" y="183.323143"/>
     <use style="fill:none;stroke:#000080;stroke-width:1.5;" x="225.44926" xlink:href="#m409530f124" y="74.282606"/>
     <use style="fill:none;stroke:#000080;stroke-width:1.5;" x="233.967229" xlink:href="#m409530f124" y="74.003015"/>
     <use style="fill:none;stroke:#000080;stroke-width:1.5;" x="233.967229" xlink:href="#m409530f124" y="74.003015"/>
     <use style="fill:none;stroke:#000080;stroke-width:1.5;" x="333.168" xlink:href="#m409530f124" y="74.003015"/>
    </g>
   </g>
   <g id="line2d_45">
    <path style="fill:none;stroke:#000080;stroke-linecap:square;stroke-width:1.5;"/>
    <g/>
   </g>
   <g id="line2d_46">
    <path clip-path="url(#p86564e02d7)" d="M 138.410429 164.171151 
" style="fill:none;stroke:#000080;stroke-linecap:square;stroke-width:1.5;"/>
    <defs>
     <path d="M -12 12 
L 12 -12 
M -12 -12 
L 12 12 
" id="mbe5ff488f6" style="stroke:#000080;"/>
    </defs>
    <g clip-path="url(#p86564e02d7)">
     <use style="fill:#000080;stroke:#000080;" x="138.410429" xlink:href="#mbe5ff488f6" y="164.171151"/>
    </g>
   </g>
   <g id="line2d_47">
    <defs>
     <path d="M 0 1.5 
C 0.397805 1.5 0.77937 1.341951 1.06066 1.06066 
C 1.341951 0.77937 1.5 0.397805 1.5 0 
C 1.5 -0.397805 1.341951 -0.77937 1.06066 -1.06066 
C 0.77937 -1.341951 0.397805 -1.5 0 -1.5 
C -0.397805 -1.5 -0.77937 -1.341951 -1.06066 -1.06066 
C -1.341951 -0.77937 -1.5 -0.397805 -1.5 0 
C -1.5 0.397805 -1.341951 0.77937 -1.06066 1.06066 
C -0.77937 1.341951 -0.397805 1.5 0 1.5 
z
" id="mca3f301e53" style="stroke:#ff00ff;"/>
    </defs>
    <g>
     <use style="fill:#ff00ff;stroke:#ff00ff;" x="210.826833" xlink:href="#mca3f301e53" y="181.645596"/>
     <use style="fill:#ff00ff;stroke:#ff00ff;" x="210.826833" xlink:href="#mca3f301e53" y="181.645596"/>
    </g>
   </g>
   <g id="line2d_48">
    <path d="M 28.455965 294.88 
L 28.455965 289.148382 
L 80.787138 289.148382 
L 80.787138 287.750426 
L 82.350819 287.750426 
L 82.350819 287.610631 
L 87.481505 287.610631 
L 87.481505 287.470835 
L 88.556144 287.470835 
L 88.556144 286.771858 
L 89.069276 286.771858 
L 89.069276 286.492266 
L 89.567532 286.492266 
L 89.567532 286.352471 
L 90.522701 286.352471 
L 90.522701 286.212675 
L 92.287186 286.212675 
L 92.287186 285.653493 
L 93.105847 285.653493 
L 93.105847 285.513697 
L 96.372436 285.513697 
L 96.372436 285.373902 
L 96.699848 285.373902 
L 96.699848 285.234106 
L 97.021141 285.234106 
L 97.021141 285.094311 
L 97.646251 285.094311 
L 97.646251 284.81472 
L 98.543252 284.81472 
L 98.543252 284.535129 
L 99.11626 284.535129 
L 99.11626 284.115742 
L 99.67078 284.115742 
L 99.67078 283.836151 
L 101.725597 283.836151 
L 101.725597 283.696355 
L 102.667676 283.696355 
L 102.667676 283.416764 
L 102.895343 283.416764 
L 102.895343 283.276969 
L 103.990531 283.276969 
L 103.990531 282.438195 
L 105.801534 282.438195 
L 105.801534 282.2984 
L 107.783569 282.2984 
L 107.783569 282.018808 
L 107.952917 282.018808 
L 107.952917 281.879013 
L 108.286687 281.879013 
L 108.286687 281.739217 
L 108.451173 281.739217 
L 108.451173 281.599422 
L 108.775496 281.599422 
L 108.775496 281.459626 
L 109.250788 281.459626 
L 109.250788 281.319831 
L 110.014853 281.319831 
L 110.014853 281.04024 
L 110.746395 281.04024 
L 110.746395 280.900444 
L 111.170827 280.900444 
L 111.170827 280.620853 
L 111.585031 280.620853 
L 111.585031 280.341262 
L 111.855724 280.341262 
L 111.855724 280.201466 
L 112.122219 280.201466 
L 112.122219 280.061671 
L 113.148711 280.061671 
L 113.148711 279.921875 
L 113.272818 279.921875 
L 113.272818 279.782079 
L 113.518374 279.782079 
L 113.518374 279.502488 
L 113.999206 279.502488 
L 113.999206 279.362693 
L 114.23467 279.362693 
L 114.23467 279.222897 
L 115.798351 279.222897 
L 115.904782 278.943306 
L 116.529892 278.943306 
L 116.529892 278.663715 
L 116.934349 278.663715 
L 117.033994 278.384124 
L 117.133064 278.384124 
L 117.133064 278.244328 
L 117.426894 278.244328 
L 117.523731 277.964737 
L 118.371562 277.964737 
L 118.371562 277.824942 
L 118.825114 277.824942 
L 118.914406 277.545351 
L 119.003236 277.545351 
L 119.003236 277.405555 
L 119.179531 277.405555 
L 119.179531 277.265759 
L 119.782703 277.265759 
L 119.782703 277.125964 
L 119.95122 277.125964 
L 119.95122 276.846373 
L 120.283378 276.846373 
L 120.283378 276.706577 
L 120.528351 276.706577 
L 120.609239 276.426986 
L 121.16504 276.426986 
L 121.16504 276.28719 
L 121.320594 276.28719 
L 121.320594 276.007599 
L 121.474753 276.007599 
L 121.474753 275.867804 
L 121.627542 275.867804 
L 121.627542 275.728008 
L 122.077925 275.728008 
L 122.077925 275.448417 
L 122.732117 275.448417 
L 122.803291 275.168826 
L 122.874172 275.168826 
L 122.874172 275.02903 
L 123.224258 275.02903 
L 123.293428 274.749439 
L 123.36232 274.749439 
L 123.430938 274.469848 
L 123.769975 274.469848 
L 123.769975 273.77087 
L 124.036471 273.77087 
L 124.036471 273.631075 
L 124.363883 273.631075 
L 124.363883 273.491279 
L 124.493121 273.491279 
L 124.493121 273.351484 
L 124.621395 273.351484 
L 124.621395 273.211688 
L 124.875107 273.211688 
L 124.875107 273.071893 
L 125.5541 273.071893 
L 125.5541 272.932097 
L 125.972626 272.932097 
L 125.972626 272.792301 
L 126.323427 272.792301 
L 126.323427 272.652506 
L 126.553378 272.652506 
L 126.553378 272.51271 
L 126.780294 272.51271 
L 126.780294 272.372915 
L 127.497741 272.372915 
L 127.605507 272.093324 
L 127.7659 272.093324 
L 127.872003 271.534141 
L 127.92481 271.534141 
L 128.029939 271.25455 
L 128.082264 271.25455 
L 128.082264 271.114755 
L 128.289984 271.114755 
L 128.39291 270.835164 
L 128.444143 270.835164 
L 128.444143 270.695368 
L 128.596932 270.695368 
L 128.596932 270.415777 
L 128.748375 270.415777 
L 128.8486 270.136186 
L 128.997851 270.136186 
L 128.997851 269.99639 
L 129.145817 269.99639 
L 129.243759 269.577004 
L 129.582224 269.577004 
L 129.630036 269.297412 
L 129.914152 269.297412 
L 129.961052 268.73823 
L 130.054468 268.73823 
L 130.100987 268.458639 
L 130.468672 268.458639 
L 130.468672 268.318844 
L 130.649607 268.318844 
L 130.649607 268.039252 
L 131.005861 268.039252 
L 131.093782 267.48007 
L 131.137575 267.48007 
L 131.224827 267.200479 
L 131.311639 267.200479 
L 131.354881 266.920888 
L 131.441039 266.920888 
L 131.483957 266.641297 
L 131.569473 266.641297 
L 131.654565 266.361706 
L 131.739239 266.361706 
L 131.739239 266.22191 
L 131.865471 266.22191 
L 131.865471 266.082115 
L 132.032353 266.082115 
L 132.032353 265.662728 
L 132.402015 265.662728 
L 132.442602 265.383137 
L 132.52349 265.383137 
L 132.603999 265.103546 
L 132.882847 265.103546 
L 132.882847 264.96375 
L 133.118312 264.96375 
L 133.157244 264.684159 
L 133.389004 264.684159 
L 133.389004 264.544363 
L 133.579779 264.544363 
L 133.579779 264.404568 
L 133.805948 264.404568 
L 133.805948 264.264772 
L 134.102952 264.264772 
L 134.102952 264.124977 
L 134.322384 264.124977 
L 134.322384 263.985181 
L 134.574897 263.985181 
L 134.574897 263.845386 
L 134.999329 263.845386 
L 135.03423 263.565795 
L 135.616951 263.565795 
L 135.717765 263.286203 
L 136.310535 263.286203 
L 136.342875 263.006612 
L 136.439531 263.006612 
L 136.503668 262.727021 
L 136.757848 262.727021 
L 136.789358 262.307634 
L 136.946047 262.307634 
L 136.977214 262.028043 
L 137.132207 262.028043 
L 137.132207 261.888248 
L 137.377325 261.888248 
L 137.468351 261.468861 
L 137.498586 261.468861 
L 137.558897 260.909679 
L 137.798047 260.909679 
L 137.886877 260.350497 
L 138.09238 260.350497 
L 138.150647 260.070906 
L 138.295455 260.070906 
L 138.324271 259.511723 
L 138.52464 259.511723 
L 138.581462 258.952541 
L 138.638097 258.952541 
L 138.638097 258.812745 
L 138.750809 258.812745 
L 138.80689 258.533154 
L 138.946296 258.533154 
L 139.057012 257.973972 
L 139.573389 257.973972 
L 139.573389 257.834177 
L 139.865404 257.834177 
L 139.970373 257.554585 
L 140.074705 257.554585 
L 140.074705 257.41479 
L 140.204235 257.41479 
L 140.204235 257.274994 
L 140.409475 257.274994 
L 140.409475 257.135199 
L 140.587071 257.135199 
L 140.612293 256.855608 
L 140.712812 256.855608 
L 140.812746 256.436221 
L 141.010888 256.436221 
L 141.084606 256.016834 
L 141.15801 256.016834 
L 141.15801 255.877039 
L 141.568144 255.877039 
L 141.568144 255.737243 
L 141.734219 255.737243 
L 141.757814 255.457652 
L 141.875303 255.457652 
L 141.96872 255.038265 
L 142.084781 255.038265 
L 142.177069 254.618879 
L 142.245962 254.618879 
L 142.337391 253.780105 
L 142.382924 253.780105 
L 142.405645 253.360719 
L 142.518803 253.360719 
L 142.586342 252.801536 
L 142.675983 252.801536 
L 142.765159 252.38215 
L 142.787381 252.38215 
L 142.875982 251.962763 
L 142.942135 251.962763 
L 142.942135 251.822967 
L 143.073681 251.822967 
L 143.182539 251.543376 
L 143.269132 251.543376 
L 143.333791 251.263785 
L 143.462385 251.263785 
L 143.526323 250.145421 
L 143.65349 250.145421 
L 143.716722 249.586238 
L 143.967351 249.586238 
L 144.07071 248.747465 
L 144.11188 248.747465 
L 144.193927 248.188283 
L 144.255205 248.188283 
L 144.356853 247.768896 
L 144.397345 247.768896 
L 144.397345 247.629101 
L 144.558363 247.629101 
L 144.598384 246.790327 
L 144.717888 246.790327 
L 144.797098 246.370941 
L 144.875945 246.370941 
L 144.973998 244.972985 
L 145.013063 244.972985 
L 145.013063 244.693394 
L 145.207068 244.693394 
L 145.264845 244.413803 
L 145.36071 244.413803 
L 145.398907 243.994416 
L 145.49403 243.994416 
L 145.550852 243.714825 
L 145.64514 243.714825 
L 145.64514 243.575029 
L 145.832178 243.575029 
L 145.906427 243.015847 
L 145.943432 243.015847 
L 145.99879 242.316869 
L 146.163802 242.316869 
L 146.254795 242.037278 
L 146.291058 242.037278 
L 146.291058 241.897483 
L 146.43535 241.897483 
L 146.43535 241.757687 
L 146.790867 241.757687 
L 146.790867 241.617892 
L 146.93104 241.617892 
L 147.018071 241.3383 
L 147.156411 241.3383 
L 147.190823 241.058709 
L 147.361855 241.058709 
L 147.361855 240.918914 
L 147.615255 240.918914 
L 147.615255 240.779118 
L 147.782136 240.779118 
L 147.782136 240.639323 
L 147.897996 240.639323 
L 147.897996 240.499527 
L 148.257126 240.499527 
L 148.257126 240.359732 
L 148.529586 240.359732 
L 148.529586 240.219936 
L 148.860298 240.219936 
L 148.891465 239.940345 
L 148.984628 239.940345 
L 148.984628 239.660754 
L 149.123434 239.660754 
L 149.123434 239.520958 
L 149.578186 239.520958 
L 149.578186 239.381163 
L 149.727135 239.381163 
L 149.801129 239.101571 
L 149.845372 239.101571 
L 149.904187 238.82198 
L 149.977424 238.82198 
L 149.977424 238.682185 
L 150.108469 238.682185 
L 150.209706 238.262798 
L 150.238522 238.262798 
L 150.281655 237.424025 
L 150.41041 237.424025 
L 150.495713 237.004638 
L 150.524054 237.004638 
L 150.62288 236.445456 
L 150.636952 236.445456 
L 150.707138 235.886274 
L 150.749113 235.886274 
L 150.790985 235.327091 
L 150.888293 235.327091 
L 150.888293 235.187296 
L 151.053835 235.187296 
L 151.163317 234.907705 
L 151.190579 234.907705 
L 151.258545 234.488318 
L 151.407131 234.488318 
L 151.514393 233.78934 
L 151.541104 233.78934 
L 151.634268 232.950567 
L 151.674041 232.950567 
L 151.740126 232.53118 
L 151.805957 232.53118 
L 151.910766 232.111793 
L 151.949905 232.111793 
L 152.040885 231.832202 
L 152.105577 231.832202 
L 152.170027 231.552611 
L 152.412754 231.552611 
L 152.488698 231.133225 
L 152.526544 231.133225 
L 152.627063 230.713838 
L 152.851103 230.713838 
L 152.949747 230.434247 
L 152.986593 230.434247 
L 153.096659 229.875064 
L 153.230235 229.875064 
L 153.338757 229.595473 
L 153.38677 229.595473 
L 153.434649 229.036291 
L 153.707396 229.036291 
L 153.777841 228.616904 
L 153.859664 228.616904 
L 153.941099 228.197518 
L 153.975883 228.197518 
L 153.975883 228.057722 
L 154.297175 228.057722 
L 154.38788 227.358744 
L 154.511824 227.358744 
L 154.579054 227.079153 
L 154.657159 227.079153 
L 154.74599 226.659767 
L 154.823341 226.659767 
L 154.823341 226.519971 
L 155.020662 226.519971 
L 155.05333 226.24038 
L 155.140141 226.24038 
L 155.140141 226.100584 
L 155.280281 226.100584 
L 155.333878 225.541402 
L 155.440574 225.541402 
L 155.472454 225.122015 
L 155.630973 225.122015 
L 155.662502 224.842424 
L 155.912675 224.842424 
L 156.015848 224.423038 
L 156.087703 224.423038 
L 156.128628 224.143447 
L 156.582447 224.143447 
L 156.681688 223.863855 
L 156.750818 223.863855 
L 156.829485 223.304673 
L 156.878469 223.304673 
L 156.966291 223.025082 
L 157.005179 223.025082 
L 157.073023 222.4659 
L 157.1406 222.4659 
L 157.16948 222.046513 
L 157.265399 222.046513 
L 157.332225 221.627126 
L 157.408281 221.627126 
L 157.408281 221.487331 
L 157.568792 221.487331 
L 157.634451 221.20774 
L 157.69986 221.20774 
L 157.783594 220.368966 
L 157.876155 220.368966 
L 157.92225 219.809784 
L 158.050661 219.809784 
L 158.159969 219.250602 
L 158.331631 219.250602 
L 158.421295 218.971011 
L 158.483783 218.971011 
L 158.554921 218.551624 
L 158.932322 218.551624 
L 158.932322 218.411829 
L 159.062048 218.411829 
L 159.062048 218.272033 
L 159.224975 218.272033 
L 159.224975 218.132237 
L 159.521119 218.132237 
L 159.521119 217.992442 
L 159.737856 217.992442 
L 159.770958 217.712851 
L 159.960072 217.712851 
L 160.057921 217.293464 
L 160.203656 217.293464 
L 160.251962 217.013873 
L 160.348167 217.013873 
L 160.348167 216.874077 
L 160.467671 216.874077 
L 160.467671 216.734282 
L 160.602113 216.734282 
L 160.633594 216.314895 
L 160.758944 216.314895 
L 160.844596 216.035304 
L 160.914358 216.035304 
L 160.914358 215.895508 
L 161.160133 215.895508 
L 161.266565 215.336326 
L 161.304417 215.336326 
L 161.394923 215.056735 
L 161.424987 215.056735 
L 161.52233 214.637348 
L 161.537258 214.637348 
L 161.6117 214.078166 
L 161.65621 214.078166 
L 161.722762 213.239393 
L 161.796406 213.239393 
L 161.891675 212.540415 
L 162.000948 212.540415 
L 162.109531 212.121028 
L 162.116746 212.121028 
L 162.116746 211.981233 
L 162.231768 211.981233 
L 162.231768 211.841437 
L 162.381577 211.841437 
L 162.388678 211.561846 
L 163.334827 211.561846 
L 163.334827 211.422051 
L 163.475361 211.422051 
L 163.528598 211.142459 
L 163.746471 211.142459 
L 163.798875 210.723073 
L 163.922699 210.723073 
L 163.942169 210.443482 
L 164.097139 210.443482 
L 164.097139 210.303686 
L 164.21884 210.303686 
L 164.225221 210.024095 
L 164.365019 210.024095 
L 164.428189 209.604708 
L 164.491128 209.604708 
L 164.578857 209.325117 
L 164.653699 209.325117 
L 164.715819 208.765935 
L 164.814747 208.765935 
L 164.925364 208.486344 
L 165.04136 208.486344 
L 165.096033 207.927162 
L 165.301021 207.927162 
L 165.336943 207.507775 
L 165.491743 207.507775 
L 165.509515 207.228184 
L 165.615764 207.228184 
L 165.627529 206.948593 
L 165.814681 206.948593 
L 165.837933 206.669002 
L 166.120239 206.669002 
L 166.165893 206.249615 
L 166.324733 206.249615 
L 166.324733 206.109819 
L 166.521241 206.109819 
L 166.549131 205.830228 
L 166.693434 205.830228 
L 166.754123 205.550637 
L 166.852971 205.550637 
L 166.852971 205.410841 
L 167.054392 205.410841 
L 167.054392 205.271046 
L 167.210629 205.271046 
L 167.210629 205.13125 
L 167.349506 205.13125 
L 167.397319 204.572068 
L 167.555741 204.572068 
L 167.655324 203.733295 
L 167.749138 203.733295 
L 167.749138 203.593499 
L 167.991707 203.593499 
L 168.053096 203.313908 
L 168.109176 203.313908 
L 168.185356 203.034317 
L 168.471797 203.034317 
L 168.486742 202.754726 
L 168.645346 202.754726 
L 168.655211 202.475135 
L 169.021096 202.475135 
L 169.021096 202.335339 
L 169.203547 202.335339 
L 169.289299 202.055748 
L 169.317789 202.055748 
L 169.393531 201.636361 
L 169.487741 201.636361 
L 169.487741 201.496566 
L 169.799635 201.496566 
L 169.845705 201.216975 
L 170.019653 201.216975 
L 170.092371 200.797588 
L 170.191858 200.797588 
L 170.268342 200.378201 
L 170.308696 200.378201 
L 170.380204 199.958815 
L 170.588553 199.958815 
L 170.641347 199.679223 
L 170.997826 199.679223 
L 171.053668 199.399632 
L 171.109329 199.399632 
L 171.109329 199.259837 
L 171.232851 199.259837 
L 171.271006 198.980246 
L 171.401782 198.980246 
L 171.401782 198.84045 
L 171.742987 198.84045 
L 171.747106 198.560859 
L 171.874323 198.560859 
L 171.964039 198.141472 
L 172.004664 198.141472 
L 172.004664 198.001677 
L 172.117908 198.001677 
L 172.158171 197.722086 
L 172.234414 197.722086 
L 172.234414 197.58229 
L 172.469034 197.58229 
L 172.469034 197.302699 
L 172.677098 197.302699 
L 172.677098 197.162903 
L 172.940412 197.162903 
L 173.043854 196.883312 
L 173.093439 196.883312 
L 173.199753 196.463926 
L 173.496213 196.463926 
L 173.588974 196.184334 
L 173.622246 196.184334 
L 173.673874 195.904743 
L 173.747362 195.904743 
L 173.805926 195.625152 
L 174.005733 195.625152 
L 174.095792 194.786379 
L 174.167501 194.786379 
L 174.167501 194.646583 
L 174.356096 194.646583 
L 174.356096 194.506788 
L 174.605541 194.506788 
L 174.612516 194.227197 
L 174.734114 194.227197 
L 174.799765 193.947606 
L 174.916625 193.947606 
L 174.916625 193.80781 
L 175.059893 193.80781 
L 175.12093 193.528219 
L 175.259154 193.528219 
L 175.342895 192.969037 
L 175.542224 192.969037 
L 175.555431 192.689445 
L 175.683668 192.689445 
L 175.726202 192.270059 
L 175.823958 192.270059 
L 175.882345 191.990468 
L 176.244427 191.990468 
L 176.244427 191.850672 
L 176.555499 191.850672 
L 176.555499 191.710877 
L 176.857983 191.710877 
L 176.87633 191.431285 
L 177.098005 191.431285 
L 177.188281 191.011899 
L 177.221264 191.011899 
L 177.313877 190.732308 
L 177.518242 190.732308 
L 177.62391 190.312921 
L 177.688167 190.312921 
L 177.688167 190.173125 
L 177.839098 190.173125 
L 177.839098 190.03333 
L 178.091539 190.03333 
L 178.091539 189.893534 
L 178.53291 189.893534 
L 178.53291 189.753739 
L 178.750787 189.753739 
L 178.750787 189.613943 
L 179.189117 189.613943 
L 179.189117 189.474148 
L 179.506748 189.474148 
L 179.506748 189.334352 
L 179.764445 189.334352 
L 179.859773 189.054761 
L 180.17545 189.054761 
L 180.17545 188.914965 
L 180.415925 188.914965 
L 180.497817 188.495579 
L 180.562064 188.495579 
L 180.562064 188.355783 
L 180.77288 188.355783 
L 180.86279 187.936396 
L 181.401992 187.936396 
L 181.401992 187.796601 
L 181.732329 187.796601 
L 181.81737 187.237419 
L 182.108363 187.237419 
L 182.119631 186.957828 
L 182.283301 186.957828 
L 182.283301 186.818032 
L 182.498398 186.818032 
L 182.498398 186.678236 
L 182.641043 186.678236 
L 182.678155 186.398645 
L 182.845258 186.398645 
L 182.899164 185.979259 
L 183.044941 185.979259 
L 183.044941 185.839463 
L 183.784485 185.839463 
L 183.784485 185.699667 
L 183.955397 185.699667 
L 184.024095 185.420076 
L 184.148665 185.420076 
L 184.242499 185.140485 
L 184.349681 185.140485 
L 184.349681 185.00069 
L 184.848898 185.00069 
L 184.852741 184.721099 
L 185.227186 184.721099 
L 185.227186 184.581303 
L 185.514323 184.581303 
L 185.514323 184.441507 
L 185.646941 184.441507 
L 185.646941 184.301712 
L 186.847995 184.301712 
L 186.847995 184.161916 
L 187.55528 184.161916 
L 187.55528 184.022121 
L 187.895081 184.022121 
L 187.932068 183.74253 
L 188.313347 183.74253 
L 188.313347 183.602734 
L 188.718608 183.602734 
L 188.718608 183.462939 
L 188.913918 183.462939 
L 188.913918 183.323143 
L 190.530225 183.323143 
L 190.530225 183.183347 
L 191.179339 183.183347 
L 191.179339 183.043552 
L 191.834297 183.043552 
L 191.889256 182.763961 
L 192.094746 182.763961 
L 192.172744 182.48437 
L 192.333907 182.48437 
L 192.333907 182.344574 
L 194.212051 182.344574 
L 194.212051 182.204778 
L 196.340927 182.204778 
L 196.340927 182.064983 
L 197.821589 182.064983 
L 197.821589 181.925187 
L 200.420551 181.925187 
L 200.420551 181.785392 
L 210.826833 181.785392 
L 210.826833 181.645596 
L 333.168 181.645596 
L 333.168 181.645596 
" style="fill:none;stroke:#ff00ff;stroke-linecap:square;stroke-width:1.5;"/>
   </g>
   <g id="line2d_49">
    <defs>
     <path d="M -0 8.485281 
L 5.091169 0 
L 0 -8.485281 
L -5.091169 -0 
z
" id="m9135c7e473" style="stroke:#ff00ff;stroke-linejoin:miter;stroke-width:1.5;"/>
    </defs>
    <g>
     <use style="fill:none;stroke:#ff00ff;stroke-linejoin:miter;stroke-width:1.5;" x="90.522701" xlink:href="#m9135c7e473" y="286.352471"/>
     <use style="fill:none;stroke:#ff00ff;stroke-linejoin:miter;stroke-width:1.5;" x="143.505037" xlink:href="#m9135c7e473" y="250.564807"/>
     <use style="fill:none;stroke:#ff00ff;stroke-linejoin:miter;stroke-width:1.5;" x="192.333907" xlink:href="#m9135c7e473" y="182.48437"/>
     <use style="fill:none;stroke:#ff00ff;stroke-linejoin:miter;stroke-width:1.5;" x="210.826833" xlink:href="#m9135c7e473" y="181.785392"/>
     <use style="fill:none;stroke:#ff00ff;stroke-linejoin:miter;stroke-width:1.5;" x="210.826833" xlink:href="#m9135c7e473" y="181.645596"/>
     <use style="fill:none;stroke:#ff00ff;stroke-linejoin:miter;stroke-width:1.5;" x="333.168" xlink:href="#m9135c7e473" y="181.645596"/>
    </g>
   </g>
   <g id="line2d_50">
    <path style="fill:none;stroke:#ff00ff;stroke-linecap:square;stroke-width:1.5;"/>
    <g/>
   </g>
   <g id="line2d_51">
    <path clip-path="url(#p86564e02d7)" d="M 136.082436 263.286203 
" style="fill:none;stroke:#ff00ff;stroke-linecap:square;stroke-width:1.5;"/>
    <defs>
     <path d="M -12 12 
L 12 -12 
M -12 -12 
L 12 12 
" id="m22d687e1ed" style="stroke:#ff00ff;"/>
    </defs>
    <g clip-path="url(#p86564e02d7)">
     <use style="fill:#ff00ff;stroke:#ff00ff;" x="136.082436" xlink:href="#m22d687e1ed" y="263.286203"/>
    </g>
   </g>
   <g id="line2d_52">
    <path d="M 333.168 181.645596 
L 363.64328 289.176341 
" style="fill:none;stroke:#ff00ff;stroke-linecap:square;stroke-width:1.5;"/>
    <g>
     <use style="fill:none;stroke:#ff00ff;stroke-linejoin:miter;stroke-width:1.5;" x="333.168" xlink:href="#m9135c7e473" y="181.645596"/>
     <use style="fill:none;stroke:#ff00ff;stroke-linejoin:miter;stroke-width:1.5;" x="363.64328" xlink:href="#m9135c7e473" y="289.176341"/>
    </g>
   </g>
   <g id="line2d_53">
    <path d="M 333.168 74.003015 
L 363.64328 152.288529 
" style="fill:none;stroke:#000080;stroke-linecap:square;stroke-width:1.5;"/>
    <g>
     <use style="fill:none;stroke:#000080;stroke-width:1.5;" x="333.168" xlink:href="#m409530f124" y="74.003015"/>
     <use style="fill:none;stroke:#000080;stroke-width:1.5;" x="363.64328" xlink:href="#m409530f124" y="152.288529"/>
    </g>
   </g>
   <g id="line2d_54">
    <path d="M 333.168 294.88 
L 333.168 9.697057 
" style="fill:none;stroke:#000000;stroke-linecap:square;stroke-width:1.5;"/>
   </g>
   <g id="patch_3">
    <path d="M 56.12 294.88 
L 56.12 6.845228 
" style="fill:none;stroke:#000000;stroke-linecap:square;stroke-linejoin:miter;stroke-width:0.8;"/>
   </g>
   <g id="patch_4">
    <path d="M 333.168 294.88 
L 333.168 6.845228 
" style="fill:none;stroke:#000000;stroke-linecap:square;stroke-linejoin:miter;stroke-width:0.8;"/>
   </g>
   <g id="patch_5">
    <path d="M 56.12 294.88 
L 333.168 294.88 
" style="fill:none;stroke:#000000;stroke-linecap:square;stroke-linejoin:miter;stroke-width:0.8;"/>
   </g>
   <g id="patch_6">
    <path d="M 56.12 6.845228 
L 333.168 6.845228 
" style="fill:none;stroke:#000000;stroke-linecap:square;stroke-linejoin:miter;stroke-width:0.8;"/>
   </g>
   <g id="text_13">
    <!-- scipy-opt -->
    <defs>
     <path d="M 32.171875 -5.078125 
Q 28.375 -14.84375 24.75 -17.8125 
Q 21.140625 -20.796875 15.09375 -20.796875 
L 7.90625 -20.796875 
L 7.90625 -13.28125 
L 13.1875 -13.28125 
Q 16.890625 -13.28125 18.9375 -11.515625 
Q 21 -9.765625 23.484375 -3.21875 
L 25.09375 0.875 
L 2.984375 54.6875 
L 12.5 54.6875 
L 29.59375 11.921875 
L 46.6875 54.6875 
L 56.203125 54.6875 
z
" id="DejaVuSans-79"/>
    </defs>
    <g transform="translate(369.18424 293.867279)scale(0.17 -0.17)">
     <use xlink:href="#DejaVuSans-73"/>
     <use x="52.099609" xlink:href="#DejaVuSans-63"/>
     <use x="107.080078" xlink:href="#DejaVuSans-69"/>
     <use x="134.863281" xlink:href="#DejaVuSans-70"/>
     <use x="198.339844" xlink:href="#DejaVuSans-79"/>
     <use x="257.503906" xlink:href="#DejaVuSans-2d"/>
     <use x="293.603516" xlink:href="#DejaVuSans-6f"/>
     <use x="354.785156" xlink:href="#DejaVuSans-70"/>
     <use x="418.261719" xlink:href="#DejaVuSans-74"/>
    </g>
   </g>
   <g id="text_14">
    <!-- BFGS ros  -->
    <defs>
     <path d="M 19.671875 34.8125 
L 19.671875 8.109375 
L 35.5 8.109375 
Q 43.453125 8.109375 47.28125 11.40625 
Q 51.125 14.703125 51.125 21.484375 
Q 51.125 28.328125 47.28125 31.5625 
Q 43.453125 34.8125 35.5 34.8125 
z
M 19.671875 64.796875 
L 19.671875 42.828125 
L 34.28125 42.828125 
Q 41.5 42.828125 45.03125 45.53125 
Q 48.578125 48.25 48.578125 53.8125 
Q 48.578125 59.328125 45.03125 62.0625 
Q 41.5 64.796875 34.28125 64.796875 
z
M 9.8125 72.90625 
L 35.015625 72.90625 
Q 46.296875 72.90625 52.390625 68.21875 
Q 58.5 63.53125 58.5 54.890625 
Q 58.5 48.1875 55.375 44.234375 
Q 52.25 40.28125 46.1875 39.3125 
Q 53.46875 37.75 57.5 32.78125 
Q 61.53125 27.828125 61.53125 20.40625 
Q 61.53125 10.640625 54.890625 5.3125 
Q 48.25 0 35.984375 0 
L 9.8125 0 
z
" id="DejaVuSans-42"/>
     <path d="M 59.515625 10.40625 
L 59.515625 29.984375 
L 43.40625 29.984375 
L 43.40625 38.09375 
L 69.28125 38.09375 
L 69.28125 6.78125 
Q 63.578125 2.734375 56.6875 0.65625 
Q 49.8125 -1.421875 42 -1.421875 
Q 24.90625 -1.421875 15.25 8.5625 
Q 5.609375 18.5625 5.609375 36.375 
Q 5.609375 54.25 15.25 64.234375 
Q 24.90625 74.21875 42 74.21875 
Q 49.125 74.21875 55.546875 72.453125 
Q 61.96875 70.703125 67.390625 67.28125 
L 67.390625 56.78125 
Q 61.921875 61.421875 55.765625 63.765625 
Q 49.609375 66.109375 42.828125 66.109375 
Q 29.4375 66.109375 22.71875 58.640625 
Q 16.015625 51.171875 16.015625 36.375 
Q 16.015625 21.625 22.71875 14.15625 
Q 29.4375 6.6875 42.828125 6.6875 
Q 48.046875 6.6875 52.140625 7.59375 
Q 56.25 8.5 59.515625 10.40625 
z
" id="DejaVuSans-47"/>
     <path d="M 53.515625 70.515625 
L 53.515625 60.890625 
Q 47.90625 63.578125 42.921875 64.890625 
Q 37.9375 66.21875 33.296875 66.21875 
Q 25.25 66.21875 20.875 63.09375 
Q 16.5 59.96875 16.5 54.203125 
Q 16.5 49.359375 19.40625 46.890625 
Q 22.3125 44.4375 30.421875 42.921875 
L 36.375 41.703125 
Q 47.40625 39.59375 52.65625 34.296875 
Q 57.90625 29 57.90625 20.125 
Q 57.90625 9.515625 50.796875 4.046875 
Q 43.703125 -1.421875 29.984375 -1.421875 
Q 24.8125 -1.421875 18.96875 -0.25 
Q 13.140625 0.921875 6.890625 3.21875 
L 6.890625 13.375 
Q 12.890625 10.015625 18.65625 8.296875 
Q 24.421875 6.59375 29.984375 6.59375 
Q 38.421875 6.59375 43.015625 9.90625 
Q 47.609375 13.234375 47.609375 19.390625 
Q 47.609375 24.75 44.3125 27.78125 
Q 41.015625 30.8125 33.5 32.328125 
L 27.484375 33.5 
Q 16.453125 35.6875 11.515625 40.375 
Q 6.59375 45.0625 6.59375 53.421875 
Q 6.59375 63.09375 13.40625 68.65625 
Q 20.21875 74.21875 32.171875 74.21875 
Q 37.3125 74.21875 42.625 73.28125 
Q 47.953125 72.359375 53.515625 70.515625 
z
" id="DejaVuSans-53"/>
    </defs>
    <g transform="translate(369.18424 156.979466)scale(0.17 -0.17)">
     <use xlink:href="#DejaVuSans-42"/>
     <use x="68.603516" xlink:href="#DejaVuSans-46"/>
     <use x="126.123047" xlink:href="#DejaVuSans-47"/>
     <use x="203.613281" xlink:href="#DejaVuSans-53"/>
     <use x="267.089844" xlink:href="#DejaVuSans-20"/>
     <use x="298.876953" xlink:href="#DejaVuSans-72"/>
     <use x="339.958984" xlink:href="#DejaVuSans-6f"/>
     <use x="401.140625" xlink:href="#DejaVuSans-73"/>
     <use x="453.240234" xlink:href="#DejaVuSans-20"/>
    </g>
   </g>
   <g id="text_15">
    <!-- best 2009 -->
    <defs>
     <path d="M 48.6875 27.296875 
Q 48.6875 37.203125 44.609375 42.84375 
Q 40.53125 48.484375 33.40625 48.484375 
Q 26.265625 48.484375 22.1875 42.84375 
Q 18.109375 37.203125 18.109375 27.296875 
Q 18.109375 17.390625 22.1875 11.75 
Q 26.265625 6.109375 33.40625 6.109375 
Q 40.53125 6.109375 44.609375 11.75 
Q 48.6875 17.390625 48.6875 27.296875 
z
M 18.109375 46.390625 
Q 20.953125 51.265625 25.265625 53.625 
Q 29.59375 56 35.59375 56 
Q 45.5625 56 51.78125 48.09375 
Q 58.015625 40.1875 58.015625 27.296875 
Q 58.015625 14.40625 51.78125 6.484375 
Q 45.5625 -1.421875 35.59375 -1.421875 
Q 29.59375 -1.421875 25.265625 0.953125 
Q 20.953125 3.328125 18.109375 8.203125 
L 18.109375 0 
L 9.078125 0 
L 9.078125 75.984375 
L 18.109375 75.984375 
z
" id="DejaVuSans-62"/>
     <path d="M 10.984375 1.515625 
L 10.984375 10.5 
Q 14.703125 8.734375 18.5 7.8125 
Q 22.3125 6.890625 25.984375 6.890625 
Q 35.75 6.890625 40.890625 13.453125 
Q 46.046875 20.015625 46.78125 33.40625 
Q 43.953125 29.203125 39.59375 26.953125 
Q 35.25 24.703125 29.984375 24.703125 
Q 19.046875 24.703125 12.671875 31.3125 
Q 6.296875 37.9375 6.296875 49.421875 
Q 6.296875 60.640625 12.9375 67.421875 
Q 19.578125 74.21875 30.609375 74.21875 
Q 43.265625 74.21875 49.921875 64.515625 
Q 56.59375 54.828125 56.59375 36.375 
Q 56.59375 19.140625 48.40625 8.859375 
Q 40.234375 -1.421875 26.421875 -1.421875 
Q 22.703125 -1.421875 18.890625 -0.6875 
Q 15.09375 0.046875 10.984375 1.515625 
z
M 30.609375 32.421875 
Q 37.25 32.421875 41.125 36.953125 
Q 45.015625 41.5 45.015625 49.421875 
Q 45.015625 57.28125 41.125 61.84375 
Q 37.25 66.40625 30.609375 66.40625 
Q 23.96875 66.40625 20.09375 61.84375 
Q 16.21875 57.28125 16.21875 49.421875 
Q 16.21875 41.5 20.09375 36.953125 
Q 23.96875 32.421875 30.609375 32.421875 
z
" id="DejaVuSans-39"/>
    </defs>
    <g transform="translate(369.18424 20.091654)scale(0.17 -0.17)">
     <use xlink:href="#DejaVuSans-62"/>
     <use x="63.476562" xlink:href="#DejaVuSans-65"/>
     <use x="125" xlink:href="#DejaVuSans-73"/>
     <use x="177.099609" xlink:href="#DejaVuSans-74"/>
     <use x="216.308594" xlink:href="#DejaVuSans-20"/>
     <use x="248.095703" xlink:href="#DejaVuSans-32"/>
     <use x="311.71875" xlink:href="#DejaVuSans-30"/>
     <use x="375.341797" xlink:href="#DejaVuSans-30"/>
     <use x="438.964844" xlink:href="#DejaVuSans-39"/>
    </g>
   </g>
   <g id="text_16">
    <!-- bbob f6-f9, 5-D -->
    <defs>
     <path d="M 10.796875 72.90625 
L 49.515625 72.90625 
L 49.515625 64.59375 
L 19.828125 64.59375 
L 19.828125 46.734375 
Q 21.96875 47.46875 24.109375 47.828125 
Q 26.265625 48.1875 28.421875 48.1875 
Q 40.625 48.1875 47.75 41.5 
Q 54.890625 34.8125 54.890625 23.390625 
Q 54.890625 11.625 47.5625 5.09375 
Q 40.234375 -1.421875 26.90625 -1.421875 
Q 22.3125 -1.421875 17.546875 -0.640625 
Q 12.796875 0.140625 7.71875 1.703125 
L 7.71875 11.625 
Q 12.109375 9.234375 16.796875 8.0625 
Q 21.484375 6.890625 26.703125 6.890625 
Q 35.15625 6.890625 40.078125 11.328125 
Q 45.015625 15.765625 45.015625 23.390625 
Q 45.015625 31 40.078125 35.4375 
Q 35.15625 39.890625 26.703125 39.890625 
Q 22.75 39.890625 18.8125 39.015625 
Q 14.890625 38.140625 10.796875 36.28125 
z
" id="DejaVuSans-35"/>
     <path d="M 19.671875 64.796875 
L 19.671875 8.109375 
L 31.59375 8.109375 
Q 46.6875 8.109375 53.6875 14.9375 
Q 60.6875 21.78125 60.6875 36.53125 
Q 60.6875 51.171875 53.6875 57.984375 
Q 46.6875 64.796875 31.59375 64.796875 
z
M 9.8125 72.90625 
L 30.078125 72.90625 
Q 51.265625 72.90625 61.171875 64.09375 
Q 71.09375 55.28125 71.09375 36.53125 
Q 71.09375 17.671875 61.125 8.828125 
Q 51.171875 0 30.078125 0 
L 9.8125 0 
z
" id="DejaVuSans-44"/>
    </defs>
    <g transform="translate(58.89048 17.475982)scale(0.102 -0.102)">
     <use xlink:href="#DejaVuSans-62"/>
     <use x="63.476562" xlink:href="#DejaVuSans-62"/>
     <use x="126.953125" xlink:href="#DejaVuSans-6f"/>
     <use x="188.134766" xlink:href="#DejaVuSans-62"/>
     <use x="251.611328" xlink:href="#DejaVuSans-20"/>
     <use x="283.398438" xlink:href="#DejaVuSans-66"/>
     <use x="318.603516" xlink:href="#DejaVuSans-36"/>
     <use x="382.226562" xlink:href="#DejaVuSans-2d"/>
     <use x="418.310547" xlink:href="#DejaVuSans-66"/>
     <use x="453.515625" xlink:href="#DejaVuSans-39"/>
     <use x="517.138672" xlink:href="#DejaVuSans-2c"/>
     <use x="548.925781" xlink:href="#DejaVuSans-20"/>
     <use x="580.712891" xlink:href="#DejaVuSans-35"/>
     <use x="644.335938" xlink:href="#DejaVuSans-2d"/>
     <use x="680.419922" xlink:href="#DejaVuSans-44"/>
    </g>
    <!-- 51 targets: 100..1e-08 -->
    <defs>
     <path d="M 11.71875 12.40625 
L 22.015625 12.40625 
L 22.015625 0 
L 11.71875 0 
z
M 11.71875 51.703125 
L 22.015625 51.703125 
L 22.015625 39.3125 
L 11.71875 39.3125 
z
" id="DejaVuSans-3a"/>
    </defs>
    <g transform="translate(58.89048 28.89775)scale(0.102 -0.102)">
     <use xlink:href="#DejaVuSans-35"/>
     <use x="63.623047" xlink:href="#DejaVuSans-31"/>
     <use x="127.246094" xlink:href="#DejaVuSans-20"/>
     <use x="159.033203" xlink:href="#DejaVuSans-74"/>
     <use x="198.242188" xlink:href="#DejaVuSans-61"/>
     <use x="259.521484" xlink:href="#DejaVuSans-72"/>
     <use x="300.619141" xlink:href="#DejaVuSans-67"/>
     <use x="364.095703" xlink:href="#DejaVuSans-65"/>
     <use x="425.619141" xlink:href="#DejaVuSans-74"/>
     <use x="464.828125" xlink:href="#DejaVuSans-73"/>
     <use x="516.927734" xlink:href="#DejaVuSans-3a"/>
     <use x="550.619141" xlink:href="#DejaVuSans-20"/>
     <use x="582.40625" xlink:href="#DejaVuSans-31"/>
     <use x="646.029297" xlink:href="#DejaVuSans-30"/>
     <use x="709.652344" xlink:href="#DejaVuSans-30"/>
     <use x="773.275391" xlink:href="#DejaVuSans-2e"/>
     <use x="805.0625" xlink:href="#DejaVuSans-2e"/>
     <use x="836.849609" xlink:href="#DejaVuSans-31"/>
     <use x="900.472656" xlink:href="#DejaVuSans-65"/>
     <use x="961.996094" xlink:href="#DejaVuSans-2d"/>
     <use x="998.080078" xlink:href="#DejaVuSans-30"/>
     <use x="1061.703125" xlink:href="#DejaVuSans-38"/>
    </g>
    <!-- 15 instances -->
    <g transform="translate(58.89048 40.319519)scale(0.102 -0.102)">
     <use xlink:href="#DejaVuSans-31"/>
     <use x="63.623047" xlink:href="#DejaVuSans-35"/>
     <use x="127.246094" xlink:href="#DejaVuSans-20"/>
     <use x="159.033203" xlink:href="#DejaVuSans-69"/>
     <use x="186.816406" xlink:href="#DejaVuSans-6e"/>
     <use x="250.195312" xlink:href="#DejaVuSans-73"/>
     <use x="302.294922" xlink:href="#DejaVuSans-74"/>
     <use x="341.503906" xlink:href="#DejaVuSans-61"/>
     <use x="402.783203" xlink:href="#DejaVuSans-6e"/>
     <use x="466.162109" xlink:href="#DejaVuSans-63"/>
     <use x="521.142578" xlink:href="#DejaVuSans-65"/>
     <use x="582.666016" xlink:href="#DejaVuSans-73"/>
    </g>
   </g>
   <g id="text_17">
    <!-- v0.0.0 -->
    <g style="fill:#808080;" transform="translate(178.96275 289.919965)scale(0.1 -0.1)">
     <use xlink:href="#DejaVuSans-76"/>
     <use x="59.179688" xlink:href="#DejaVuSans-30"/>
     <use x="122.802734" xlink:href="#DejaVuSans-2e"/>
     <use x="154.589844" xlink:href="#DejaVuSans-30"/>
     <use x="218.212891" xlink:href="#DejaVuSans-2e"/>
     <use x="250" xlink:href="#DejaVuSans-30"/>
    </g>
   </g>
  </g>
 </g>
 <defs>
  <clipPath id="p86564e02d7">
   <rect height="288.034772" width="277.048" x="56.12" y="6.845228"/>
  </clipPath>
 </defs>
</svg>
