<?xml version="1.0" encoding="utf-8" standalone="no"?>
<!DOCTYPE svg PUBLIC "-//W3C//DTD SVG 1.1//EN"
  "http://www.w3.org/Graphics/SVG/1.1/DTD/svg11.dtd">
<!-- Created with matplotlib (http://matplotlib.org/) -->
<svg height="345pt" version="1.1" viewBox="0 0 460 345" width="460pt" xmlns="http://www.w3.org/2000/svg" xmlns:xlink="http://www.w3.org/1999/xlink">
 <defs>
  <style type="text/css">
*{stroke-linecap:butt;stroke-linejoin:round;}
  </style>
 </defs>
 <g id="figure_1">
  <g id="patch_1">
   <path d="M 0 345.6 
L 460.8 345.6 
L 460.8 0 
L 0 0 
z
" style="fill:#ffffff;"/>
  </g>
  <g id="axes_1">
   <g id="patch_2">
    <path d="M 56.12 294.88 
L 333.168 294.88 
L 333.168 6.845228 
L 56.12 6.845228 
z
" style="fill:#ffffff;"/>
   </g>
   <g id="line2d_1">
    <path d="M 16.541714 294.88 
L 16.541714 293.761636 
L 40.370217 293.761636 
L 40.370217 292.643271 
L 52.284468 292.643271 
L 52.284468 291.524907 
L 57.758252 291.524907 
L 57.758252 290.406542 
L 70.436568 290.406542 
L 70.436568 289.288178 
L 73.192638 289.288178 
L 73.192638 288.169813 
L 78.60845 288.169813 
L 78.60845 287.051449 
L 84.458185 287.051449 
L 84.458185 285.933084 
L 88.027221 285.933084 
L 88.027221 284.81472 
L 91.205783 284.81472 
L 91.205783 283.696355 
L 91.427575 283.696355 
L 91.427575 282.577991 
L 93.304561 282.577991 
L 93.304561 281.459626 
L 95.351029 281.459626 
L 95.351029 280.341262 
L 96.861245 280.341262 
L 96.861245 279.222897 
L 97.950482 279.222897 
L 97.950482 278.104533 
L 98.832144 278.104533 
L 98.832144 276.986168 
L 99.806659 276.986168 
L 99.806659 275.867804 
L 100.600121 275.867804 
L 100.600121 274.749439 
L 101.604122 274.749439 
L 101.604122 273.631075 
L 102.895343 273.631075 
L 102.895343 272.51271 
L 103.120034 272.51271 
L 103.120034 271.394346 
L 104.305927 271.394346 
L 104.305927 270.275981 
L 105.896762 270.275981 
L 105.896762 269.157617 
L 107.783569 269.157617 
L 107.783569 268.039252 
L 108.036969 268.039252 
L 108.036969 266.920888 
L 109.014785 266.920888 
L 109.014785 265.802523 
L 110.311216 265.802523 
L 110.311216 264.684159 
L 111.030511 264.684159 
L 111.030511 263.565795 
L 111.72091 263.565795 
L 111.72091 262.44743 
L 111.855724 262.44743 
L 111.855724 261.329066 
L 111.989488 261.329066 
L 111.989488 260.210701 
L 112.514373 260.210701 
L 112.514373 259.092337 
L 112.643127 259.092337 
L 112.643127 257.973972 
L 113.086321 257.973972 
L 113.086321 256.855608 
L 114.23467 256.855608 
L 114.23467 254.618879 
L 114.409176 254.618879 
L 114.409176 253.500514 
L 115.957752 253.500514 
L 115.957752 252.38215 
L 116.73331 252.38215 
L 116.783791 250.145421 
L 117.329507 250.145421 
L 117.329507 249.027056 
L 118.958878 249.027056 
L 118.958878 247.908692 
L 119.179531 247.908692 
L 119.179531 246.790327 
L 120.118102 246.790327 
L 120.118102 245.671963 
L 120.809808 245.671963 
L 120.809808 244.553598 
L 121.047443 244.553598 
L 121.12593 242.316869 
L 121.778985 242.316869 
L 121.816638 240.08014 
L 122.660646 240.08014 
L 122.696418 237.843411 
L 123.533353 237.843411 
L 123.533353 236.725047 
L 123.870396 236.725047 
L 123.870396 235.606682 
L 124.069494 235.606682 
L 124.069494 234.488318 
L 124.428624 234.488318 
L 124.428624 233.369954 
L 125.031795 233.369954 
L 125.031795 232.251589 
L 125.156126 232.251589 
L 125.156126 231.133225 
L 125.371564 231.133225 
L 125.371564 230.01486 
L 125.794504 230.01486 
L 125.794504 228.896496 
L 126.381204 228.896496 
L 126.381204 227.778131 
L 126.695551 227.778131 
L 126.695551 226.659767 
L 127.197852 226.659767 
L 127.197852 225.541402 
L 127.334814 225.541402 
L 127.334814 224.423038 
L 128.495224 224.423038 
L 128.520707 222.186309 
L 128.823599 222.186309 
L 128.823599 221.067944 
L 129.096637 221.067944 
L 129.096637 219.94958 
L 129.606147 219.94958 
L 129.606147 218.831215 
L 130.649607 218.831215 
L 130.649607 217.712851 
L 131.115693 217.712851 
L 131.115693 216.594486 
L 131.289977 216.594486 
L 131.376461 213.239393 
L 132.320552 213.239393 
L 132.320552 212.121028 
L 133.020593 212.121028 
L 133.020593 211.002664 
L 133.389004 211.002664 
L 133.389004 209.884299 
L 133.843356 209.884299 
L 133.843356 208.765935 
L 134.646368 208.765935 
L 134.646368 207.64757 
L 134.788423 207.64757 
L 134.788423 206.529206 
L 135.515543 206.529206 
L 135.515543 205.410841 
L 135.917635 205.410841 
L 135.967241 203.174112 
L 136.213149 203.174112 
L 136.213149 202.055748 
L 136.326713 202.055748 
L 136.326713 200.937384 
L 137.422898 200.937384 
L 137.422898 199.819019 
L 138.266591 199.819019 
L 138.266591 198.700655 
L 138.974042 198.700655 
L 138.974042 197.58229 
L 139.49288 197.58229 
L 139.49288 196.463926 
L 139.87856 196.463926 
L 139.87856 195.345561 
L 140.332797 195.345561 
L 140.332797 194.227197 
L 140.675186 194.227197 
L 140.675186 191.990468 
L 140.936852 191.990468 
L 140.936852 190.872103 
L 141.340159 190.872103 
L 141.340159 189.753739 
L 141.460528 189.753739 
L 141.460528 188.635374 
L 141.851869 188.635374 
L 141.851869 187.51701 
L 142.223028 187.51701 
L 142.223028 185.280281 
L 142.608796 185.280281 
L 142.608796 184.161916 
L 143.018992 184.161916 
L 143.018992 183.043552 
L 143.398208 183.043552 
L 143.398208 181.925187 
L 143.800672 181.925187 
L 143.800672 180.806823 
L 144.091308 180.806823 
L 144.183692 178.570094 
L 144.638311 178.570094 
L 144.638311 177.451729 
L 145.178107 177.451729 
L 145.178107 176.333365 
L 145.34158 176.333365 
L 145.34158 175.215 
L 145.512992 175.215 
L 145.512992 174.096636 
L 145.710835 174.096636 
L 145.710835 172.978271 
L 146.172923 172.978271 
L 146.172923 171.859907 
L 146.43535 171.859907 
L 146.453301 169.623178 
L 146.965905 169.623178 
L 146.965905 168.504814 
L 147.233741 168.504814 
L 147.233741 167.386449 
L 147.438268 167.386449 
L 147.438268 166.268085 
L 147.598477 166.268085 
L 147.598477 165.14972 
L 148.078499 165.14972 
L 148.078499 164.031356 
L 148.608906 164.031356 
L 148.608906 162.912991 
L 148.875888 162.912991 
L 148.875888 161.794627 
L 149.443019 161.794627 
L 149.443019 160.676262 
L 150.130213 160.676262 
L 150.238522 158.439533 
L 150.714141 158.439533 
L 150.797954 156.202804 
L 150.874425 156.202804 
L 150.936741 153.966075 
L 151.067558 153.966075 
L 151.067558 152.847711 
L 151.713722 152.847711 
L 151.713722 151.729346 
L 152.208581 151.729346 
L 152.208581 150.610982 
L 152.444438 150.610982 
L 152.526544 148.374253 
L 152.576877 148.374253 
L 152.645845 146.137524 
L 152.789162 146.137524 
L 152.826354 143.900795 
L 152.918982 143.900795 
L 152.986593 140.545702 
L 153.053939 140.545702 
L 153.139273 138.308973 
L 153.206025 138.308973 
L 153.284581 136.072244 
L 153.559701 136.072244 
L 153.589342 133.835515 
L 153.894612 133.835515 
L 153.894612 132.71715 
L 154.376568 132.71715 
L 154.376568 131.598786 
L 154.623729 131.598786 
L 154.623729 130.480421 
L 154.734911 130.480421 
L 154.828853 128.243692 
L 154.916803 128.243692 
L 154.916803 127.125328 
L 155.204963 127.125328 
L 155.204963 126.006963 
L 155.525456 126.006963 
L 155.525456 124.888599 
L 155.995263 124.888599 
L 155.995263 123.770234 
L 156.432501 123.770234 
L 156.432501 122.65187 
L 156.686635 122.65187 
L 156.686635 121.533505 
L 156.951685 121.533505 
L 156.951685 120.415141 
L 157.336989 120.415141 
L 157.389299 117.060047 
L 157.578187 117.060047 
L 157.662514 114.823318 
L 157.727817 114.823318 
L 157.806781 112.586589 
L 157.949847 112.586589 
L 157.972811 110.349861 
L 158.385485 110.349861 
L 158.407875 106.994767 
L 158.661078 106.994767 
L 158.661078 105.876403 
L 158.849653 105.876403 
L 158.914951 103.639674 
L 159.25482 103.639674 
L 159.31011 101.402945 
L 159.411718 101.402945 
L 159.495934 99.166216 
L 159.746137 99.166216 
L 159.746137 98.047851 
L 159.882212 98.047851 
L 159.882212 96.929487 
L 160.183489 96.929487 
L 160.183489 95.811122 
L 160.312153 95.811122 
L 160.372134 92.456029 
L 160.649313 92.456029 
L 160.649313 91.337664 
L 160.883387 91.337664 
L 160.922092 87.982571 
L 161.106669 87.982571 
L 161.179187 85.745842 
L 161.258984 85.745842 
L 161.29307 83.509113 
L 161.376107 83.509113 
L 161.458745 79.035655 
L 161.514862 79.035655 
L 161.559624 75.680562 
L 161.652506 75.680562 
L 161.719071 73.443833 
L 161.803753 73.443833 
L 161.869737 68.970375 
L 161.939112 68.970375 
L 162.037219 64.496917 
L 162.06618 64.496917 
L 162.141973 61.141823 
L 162.192316 61.141823 
L 162.26398 58.905094 
L 162.335347 58.905094 
L 162.392228 54.431636 
L 162.544168 54.431636 
L 162.65288 51.076543 
L 162.8164 51.076543 
L 162.847536 47.72145 
L 163.040012 47.72145 
L 163.121847 44.366356 
L 163.264126 44.366356 
L 163.311292 42.129627 
L 163.462027 42.129627 
L 163.462027 41.011263 
L 163.591602 41.011263 
L 163.68074 37.656169 
L 163.85438 37.656169 
L 163.85438 36.537805 
L 164.045637 36.537805 
L 164.074626 34.301076 
L 164.257094 34.301076 
L 164.257094 33.182711 
L 164.484845 33.182711 
L 164.560096 30.945982 
L 165.192802 30.945982 
L 165.192802 29.827618 
L 165.671576 29.827618 
L 165.671576 28.709253 
L 166.134519 28.709253 
L 166.134519 27.590889 
L 166.660241 27.590889 
L 166.660241 26.472524 
L 167.17842 26.472524 
L 167.17842 25.35416 
L 167.547854 25.35416 
L 167.547854 24.235795 
L 167.96863 24.235795 
L 167.96863 23.117431 
L 168.304029 23.117431 
L 168.304029 21.999066 
L 168.746189 21.999066 
L 168.746189 20.880702 
L 169.100556 20.880702 
L 169.100556 19.762337 
L 169.485392 19.762337 
L 169.485392 18.643973 
L 169.889357 18.643973 
L 169.889357 17.525609 
L 170.214388 17.525609 
L 170.214388 16.407244 
L 170.537807 16.407244 
L 170.537807 15.28888 
L 170.883429 15.28888 
L 170.883429 14.170515 
L 171.183974 14.170515 
L 171.183974 13.052151 
L 171.523228 13.052151 
L 171.523228 11.933786 
L 171.806728 11.933786 
L 171.806728 10.815422 
L 172.148114 10.815422 
L 172.148114 9.697057 
L 333.168 9.697057 
L 333.168 9.697057 
" style="fill:none;stroke:#f5deb3;stroke-linecap:square;stroke-width:4;"/>
   </g>
   <g id="line2d_2">
    <defs>
     <path d="M -0 7.778175 
L 7.778175 0 
L 0 -7.778175 
L -7.778175 -0 
z
" id="m54f85a29d5" style="stroke:#f5deb3;stroke-linejoin:miter;stroke-width:1.5;"/>
    </defs>
    <g>
     <use style="fill:#f5deb3;stroke:#f5deb3;stroke-linejoin:miter;stroke-width:1.5;" x="127.334814" xlink:href="#m54f85a29d5" y="225.541402"/>
     <use style="fill:#f5deb3;stroke:#f5deb3;stroke-linejoin:miter;stroke-width:1.5;" x="157.972811" xlink:href="#m54f85a29d5" y="111.468225"/>
     <use style="fill:#f5deb3;stroke:#f5deb3;stroke-linejoin:miter;stroke-width:1.5;" x="172.148114" xlink:href="#m54f85a29d5" y="10.815422"/>
     <use style="fill:#f5deb3;stroke:#f5deb3;stroke-linejoin:miter;stroke-width:1.5;" x="172.148114" xlink:href="#m54f85a29d5" y="9.697057"/>
     <use style="fill:#f5deb3;stroke:#f5deb3;stroke-linejoin:miter;stroke-width:1.5;" x="172.148114" xlink:href="#m54f85a29d5" y="9.697057"/>
     <use style="fill:#f5deb3;stroke:#f5deb3;stroke-linejoin:miter;stroke-width:1.5;" x="333.168" xlink:href="#m54f85a29d5" y="9.697057"/>
    </g>
   </g>
   <g id="line2d_3">
    <path style="fill:none;stroke:#f5deb3;stroke-linecap:square;stroke-width:4;"/>
    <g/>
   </g>
   <g id="line2d_4">
    <path d="M 333.168 9.697057 
L 363.64328 15.400716 
" style="fill:none;stroke:#f5deb3;stroke-linecap:square;stroke-width:4;"/>
    <g>
     <use style="fill:#f5deb3;stroke:#f5deb3;stroke-linejoin:miter;stroke-width:1.5;" x="333.168" xlink:href="#m54f85a29d5" y="9.697057"/>
     <use style="fill:#f5deb3;stroke:#f5deb3;stroke-linejoin:miter;stroke-width:1.5;" x="363.64328" xlink:href="#m54f85a29d5" y="15.400716"/>
    </g>
   </g>
   <g id="matplotlib.axis_1">
    <g id="xtick_1">
     <g id="line2d_5">
      <path clip-path="url(#p966f4c02f6)" d="M 56.12 294.88 
L 56.12 6.845228 
" style="fill:none;stroke:#b0b0b0;stroke-linecap:square;stroke-width:0.8;"/>
     </g>
     <g id="line2d_6">
      <defs>
       <path d="M 0 0 
L 0 3.5 
" id="mdf661a302f" style="stroke:#000000;stroke-width:0.8;"/>
      </defs>
      <g>
       <use style="stroke:#000000;stroke-width:0.8;" x="56.12" xlink:href="#mdf661a302f" y="294.88"/>
      </g>
     </g>
     <g id="text_1">
      <!-- 0 -->
      <defs>
       <path d="M 31.78125 66.40625 
Q 24.171875 66.40625 20.328125 58.90625 
Q 16.5 51.421875 16.5 36.375 
Q 16.5 21.390625 20.328125 13.890625 
Q 24.171875 6.390625 31.78125 6.390625 
Q 39.453125 6.390625 43.28125 13.890625 
Q 47.125 21.390625 47.125 36.375 
Q 47.125 51.421875 43.28125 58.90625 
Q 39.453125 66.40625 31.78125 66.40625 
z
M 31.78125 74.21875 
Q 44.046875 74.21875 50.515625 64.515625 
Q 56.984375 54.828125 56.984375 36.375 
Q 56.984375 17.96875 50.515625 8.265625 
Q 44.046875 -1.421875 31.78125 -1.421875 
Q 19.53125 -1.421875 13.0625 8.265625 
Q 6.59375 17.96875 6.59375 36.375 
Q 6.59375 54.828125 13.0625 64.515625 
Q 19.53125 74.21875 31.78125 74.21875 
z
" id="DejaVuSans-30"/>
      </defs>
      <g transform="translate(49.7575 317.076875)scale(0.2 -0.2)">
       <use xlink:href="#DejaVuSans-30"/>
      </g>
     </g>
    </g>
    <g id="xtick_2">
     <g id="line2d_7">
      <path clip-path="url(#p966f4c02f6)" d="M 135.276571 294.88 
L 135.276571 6.845228 
" style="fill:none;stroke:#b0b0b0;stroke-linecap:square;stroke-width:0.8;"/>
     </g>
     <g id="line2d_8">
      <g>
       <use style="stroke:#000000;stroke-width:0.8;" x="135.276571" xlink:href="#mdf661a302f" y="294.88"/>
      </g>
     </g>
     <g id="text_2">
      <!-- 2 -->
      <defs>
       <path d="M 19.1875 8.296875 
L 53.609375 8.296875 
L 53.609375 0 
L 7.328125 0 
L 7.328125 8.296875 
Q 12.9375 14.109375 22.625 23.890625 
Q 32.328125 33.6875 34.8125 36.53125 
Q 39.546875 41.84375 41.421875 45.53125 
Q 43.3125 49.21875 43.3125 52.78125 
Q 43.3125 58.59375 39.234375 62.25 
Q 35.15625 65.921875 28.609375 65.921875 
Q 23.96875 65.921875 18.8125 64.3125 
Q 13.671875 62.703125 7.8125 59.421875 
L 7.8125 69.390625 
Q 13.765625 71.78125 18.9375 73 
Q 24.125 74.21875 28.421875 74.21875 
Q 39.75 74.21875 46.484375 68.546875 
Q 53.21875 62.890625 53.21875 53.421875 
Q 53.21875 48.921875 51.53125 44.890625 
Q 49.859375 40.875 45.40625 35.40625 
Q 44.1875 33.984375 37.640625 27.21875 
Q 31.109375 20.453125 19.1875 8.296875 
z
" id="DejaVuSans-32"/>
      </defs>
      <g transform="translate(128.914071 317.076875)scale(0.2 -0.2)">
       <use xlink:href="#DejaVuSans-32"/>
      </g>
     </g>
    </g>
    <g id="xtick_3">
     <g id="line2d_9">
      <path clip-path="url(#p966f4c02f6)" d="M 214.433143 294.88 
L 214.433143 6.845228 
" style="fill:none;stroke:#b0b0b0;stroke-linecap:square;stroke-width:0.8;"/>
     </g>
     <g id="line2d_10">
      <g>
       <use style="stroke:#000000;stroke-width:0.8;" x="214.433143" xlink:href="#mdf661a302f" y="294.88"/>
      </g>
     </g>
     <g id="text_3">
      <!-- 4 -->
      <defs>
       <path d="M 37.796875 64.3125 
L 12.890625 25.390625 
L 37.796875 25.390625 
z
M 35.203125 72.90625 
L 47.609375 72.90625 
L 47.609375 25.390625 
L 58.015625 25.390625 
L 58.015625 17.1875 
L 47.609375 17.1875 
L 47.609375 0 
L 37.796875 0 
L 37.796875 17.1875 
L 4.890625 17.1875 
L 4.890625 26.703125 
z
" id="DejaVuSans-34"/>
      </defs>
      <g transform="translate(208.070643 317.076875)scale(0.2 -0.2)">
       <use xlink:href="#DejaVuSans-34"/>
      </g>
     </g>
    </g>
    <g id="xtick_4">
     <g id="line2d_11">
      <path clip-path="url(#p966f4c02f6)" d="M 293.589714 294.88 
L 293.589714 6.845228 
" style="fill:none;stroke:#b0b0b0;stroke-linecap:square;stroke-width:0.8;"/>
     </g>
     <g id="line2d_12">
      <g>
       <use style="stroke:#000000;stroke-width:0.8;" x="293.589714" xlink:href="#mdf661a302f" y="294.88"/>
      </g>
     </g>
     <g id="text_4">
      <!-- 6 -->
      <defs>
       <path d="M 33.015625 40.375 
Q 26.375 40.375 22.484375 35.828125 
Q 18.609375 31.296875 18.609375 23.390625 
Q 18.609375 15.53125 22.484375 10.953125 
Q 26.375 6.390625 33.015625 6.390625 
Q 39.65625 6.390625 43.53125 10.953125 
Q 47.40625 15.53125 47.40625 23.390625 
Q 47.40625 31.296875 43.53125 35.828125 
Q 39.65625 40.375 33.015625 40.375 
z
M 52.59375 71.296875 
L 52.59375 62.3125 
Q 48.875 64.0625 45.09375 64.984375 
Q 41.3125 65.921875 37.59375 65.921875 
Q 27.828125 65.921875 22.671875 59.328125 
Q 17.53125 52.734375 16.796875 39.40625 
Q 19.671875 43.65625 24.015625 45.921875 
Q 28.375 48.1875 33.59375 48.1875 
Q 44.578125 48.1875 50.953125 41.515625 
Q 57.328125 34.859375 57.328125 23.390625 
Q 57.328125 12.15625 50.6875 5.359375 
Q 44.046875 -1.421875 33.015625 -1.421875 
Q 20.359375 -1.421875 13.671875 8.265625 
Q 6.984375 17.96875 6.984375 36.375 
Q 6.984375 53.65625 15.1875 63.9375 
Q 23.390625 74.21875 37.203125 74.21875 
Q 40.921875 74.21875 44.703125 73.484375 
Q 48.484375 72.75 52.59375 71.296875 
z
" id="DejaVuSans-36"/>
      </defs>
      <g transform="translate(287.227214 317.076875)scale(0.2 -0.2)">
       <use xlink:href="#DejaVuSans-36"/>
      </g>
     </g>
    </g>
    <g id="xtick_5">
     <g id="line2d_13">
      <path clip-path="url(#p966f4c02f6)" d="M 56.12 294.88 
L 56.12 6.845228 
" style="fill:none;stroke:#b0b0b0;stroke-linecap:square;stroke-width:0.8;"/>
     </g>
     <g id="line2d_14">
      <defs>
       <path d="M 0 0 
L 0 2 
" id="ma4bdb7fdaa" style="stroke:#000000;stroke-width:0.6;"/>
      </defs>
      <g>
       <use style="stroke:#000000;stroke-width:0.6;" x="56.12" xlink:href="#ma4bdb7fdaa" y="294.88"/>
      </g>
     </g>
    </g>
    <g id="xtick_6">
     <g id="line2d_15">
      <path clip-path="url(#p966f4c02f6)" d="M 95.698286 294.88 
L 95.698286 6.845228 
" style="fill:none;stroke:#b0b0b0;stroke-linecap:square;stroke-width:0.8;"/>
     </g>
     <g id="line2d_16">
      <g>
       <use style="stroke:#000000;stroke-width:0.6;" x="95.698286" xlink:href="#ma4bdb7fdaa" y="294.88"/>
      </g>
     </g>
    </g>
    <g id="xtick_7">
     <g id="line2d_17">
      <path clip-path="url(#p966f4c02f6)" d="M 135.276571 294.88 
L 135.276571 6.845228 
" style="fill:none;stroke:#b0b0b0;stroke-linecap:square;stroke-width:0.8;"/>
     </g>
     <g id="line2d_18">
      <g>
       <use style="stroke:#000000;stroke-width:0.6;" x="135.276571" xlink:href="#ma4bdb7fdaa" y="294.88"/>
      </g>
     </g>
    </g>
    <g id="xtick_8">
     <g id="line2d_19">
      <path clip-path="url(#p966f4c02f6)" d="M 174.854857 294.88 
L 174.854857 6.845228 
" style="fill:none;stroke:#b0b0b0;stroke-linecap:square;stroke-width:0.8;"/>
     </g>
     <g id="line2d_20">
      <g>
       <use style="stroke:#000000;stroke-width:0.6;" x="174.854857" xlink:href="#ma4bdb7fdaa" y="294.88"/>
      </g>
     </g>
    </g>
    <g id="xtick_9">
     <g id="line2d_21">
      <path clip-path="url(#p966f4c02f6)" d="M 214.433143 294.88 
L 214.433143 6.845228 
" style="fill:none;stroke:#b0b0b0;stroke-linecap:square;stroke-width:0.8;"/>
     </g>
     <g id="line2d_22">
      <g>
       <use style="stroke:#000000;stroke-width:0.6;" x="214.433143" xlink:href="#ma4bdb7fdaa" y="294.88"/>
      </g>
     </g>
    </g>
    <g id="xtick_10">
     <g id="line2d_23">
      <path clip-path="url(#p966f4c02f6)" d="M 254.011429 294.88 
L 254.011429 6.845228 
" style="fill:none;stroke:#b0b0b0;stroke-linecap:square;stroke-width:0.8;"/>
     </g>
     <g id="line2d_24">
      <g>
       <use style="stroke:#000000;stroke-width:0.6;" x="254.011429" xlink:href="#ma4bdb7fdaa" y="294.88"/>
      </g>
     </g>
    </g>
    <g id="xtick_11">
     <g id="line2d_25">
      <path clip-path="url(#p966f4c02f6)" d="M 293.589714 294.88 
L 293.589714 6.845228 
" style="fill:none;stroke:#b0b0b0;stroke-linecap:square;stroke-width:0.8;"/>
     </g>
     <g id="line2d_26">
      <g>
       <use style="stroke:#000000;stroke-width:0.6;" x="293.589714" xlink:href="#ma4bdb7fdaa" y="294.88"/>
      </g>
     </g>
    </g>
    <g id="xtick_12">
     <g id="line2d_27">
      <path clip-path="url(#p966f4c02f6)" d="M 333.168 294.88 
L 333.168 6.845228 
" style="fill:none;stroke:#b0b0b0;stroke-linecap:square;stroke-width:0.8;"/>
     </g>
     <g id="line2d_28">
      <g>
       <use style="stroke:#000000;stroke-width:0.6;" x="333.168" xlink:href="#ma4bdb7fdaa" y="294.88"/>
      </g>
     </g>
    </g>
    <g id="text_5">
     <!-- log10(# f-evals / dimension) -->
     <defs>
      <path d="M 9.421875 75.984375 
L 18.40625 75.984375 
L 18.40625 0 
L 9.421875 0 
z
" id="DejaVuSans-6c"/>
      <path d="M 30.609375 48.390625 
Q 23.390625 48.390625 19.1875 42.75 
Q 14.984375 37.109375 14.984375 27.296875 
Q 14.984375 17.484375 19.15625 11.84375 
Q 23.34375 6.203125 30.609375 6.203125 
Q 37.796875 6.203125 41.984375 11.859375 
Q 46.1875 17.53125 46.1875 27.296875 
Q 46.1875 37.015625 41.984375 42.703125 
Q 37.796875 48.390625 30.609375 48.390625 
z
M 30.609375 56 
Q 42.328125 56 49.015625 48.375 
Q 55.71875 40.765625 55.71875 27.296875 
Q 55.71875 13.875 49.015625 6.21875 
Q 42.328125 -1.421875 30.609375 -1.421875 
Q 18.84375 -1.421875 12.171875 6.21875 
Q 5.515625 13.875 5.515625 27.296875 
Q 5.515625 40.765625 12.171875 48.375 
Q 18.84375 56 30.609375 56 
z
" id="DejaVuSans-6f"/>
      <path d="M 45.40625 27.984375 
Q 45.40625 37.75 41.375 43.109375 
Q 37.359375 48.484375 30.078125 48.484375 
Q 22.859375 48.484375 18.828125 43.109375 
Q 14.796875 37.75 14.796875 27.984375 
Q 14.796875 18.265625 18.828125 12.890625 
Q 22.859375 7.515625 30.078125 7.515625 
Q 37.359375 7.515625 41.375 12.890625 
Q 45.40625 18.265625 45.40625 27.984375 
z
M 54.390625 6.78125 
Q 54.390625 -7.171875 48.1875 -13.984375 
Q 42 -20.796875 29.203125 -20.796875 
Q 24.46875 -20.796875 20.265625 -20.09375 
Q 16.0625 -19.390625 12.109375 -17.921875 
L 12.109375 -9.1875 
Q 16.0625 -11.328125 19.921875 -12.34375 
Q 23.78125 -13.375 27.78125 -13.375 
Q 36.625 -13.375 41.015625 -8.765625 
Q 45.40625 -4.15625 45.40625 5.171875 
L 45.40625 9.625 
Q 42.625 4.78125 38.28125 2.390625 
Q 33.9375 0 27.875 0 
Q 17.828125 0 11.671875 7.65625 
Q 5.515625 15.328125 5.515625 27.984375 
Q 5.515625 40.671875 11.671875 48.328125 
Q 17.828125 56 27.875 56 
Q 33.9375 56 38.28125 53.609375 
Q 42.625 51.21875 45.40625 46.390625 
L 45.40625 54.6875 
L 54.390625 54.6875 
z
" id="DejaVuSans-67"/>
      <path d="M 12.40625 8.296875 
L 28.515625 8.296875 
L 28.515625 63.921875 
L 10.984375 60.40625 
L 10.984375 69.390625 
L 28.421875 72.90625 
L 38.28125 72.90625 
L 38.28125 8.296875 
L 54.390625 8.296875 
L 54.390625 0 
L 12.40625 0 
z
" id="DejaVuSans-31"/>
      <path d="M 31 75.875 
Q 24.46875 64.65625 21.28125 53.65625 
Q 18.109375 42.671875 18.109375 31.390625 
Q 18.109375 20.125 21.3125 9.0625 
Q 24.515625 -2 31 -13.1875 
L 23.1875 -13.1875 
Q 15.875 -1.703125 12.234375 9.375 
Q 8.59375 20.453125 8.59375 31.390625 
Q 8.59375 42.28125 12.203125 53.3125 
Q 15.828125 64.359375 23.1875 75.875 
z
" id="DejaVuSans-28"/>
      <path d="M 51.125 44 
L 36.921875 44 
L 32.8125 27.6875 
L 47.125 27.6875 
z
M 43.796875 71.78125 
L 38.71875 51.515625 
L 52.984375 51.515625 
L 58.109375 71.78125 
L 65.921875 71.78125 
L 60.890625 51.515625 
L 76.125 51.515625 
L 76.125 44 
L 58.984375 44 
L 54.984375 27.6875 
L 70.515625 27.6875 
L 70.515625 20.21875 
L 53.078125 20.21875 
L 48 0 
L 40.1875 0 
L 45.21875 20.21875 
L 30.90625 20.21875 
L 25.875 0 
L 18.015625 0 
L 23.09375 20.21875 
L 7.71875 20.21875 
L 7.71875 27.6875 
L 24.90625 27.6875 
L 29 44 
L 13.28125 44 
L 13.28125 51.515625 
L 30.90625 51.515625 
L 35.890625 71.78125 
z
" id="DejaVuSans-23"/>
      <path id="DejaVuSans-20"/>
      <path d="M 37.109375 75.984375 
L 37.109375 68.5 
L 28.515625 68.5 
Q 23.6875 68.5 21.796875 66.546875 
Q 19.921875 64.59375 19.921875 59.515625 
L 19.921875 54.6875 
L 34.71875 54.6875 
L 34.71875 47.703125 
L 19.921875 47.703125 
L 19.921875 0 
L 10.890625 0 
L 10.890625 47.703125 
L 2.296875 47.703125 
L 2.296875 54.6875 
L 10.890625 54.6875 
L 10.890625 58.5 
Q 10.890625 67.625 15.140625 71.796875 
Q 19.390625 75.984375 28.609375 75.984375 
z
" id="DejaVuSans-66"/>
      <path d="M 4.890625 31.390625 
L 31.203125 31.390625 
L 31.203125 23.390625 
L 4.890625 23.390625 
z
" id="DejaVuSans-2d"/>
      <path d="M 56.203125 29.59375 
L 56.203125 25.203125 
L 14.890625 25.203125 
Q 15.484375 15.921875 20.484375 11.0625 
Q 25.484375 6.203125 34.421875 6.203125 
Q 39.59375 6.203125 44.453125 7.46875 
Q 49.3125 8.734375 54.109375 11.28125 
L 54.109375 2.78125 
Q 49.265625 0.734375 44.1875 -0.34375 
Q 39.109375 -1.421875 33.890625 -1.421875 
Q 20.796875 -1.421875 13.15625 6.1875 
Q 5.515625 13.8125 5.515625 26.8125 
Q 5.515625 40.234375 12.765625 48.109375 
Q 20.015625 56 32.328125 56 
Q 43.359375 56 49.78125 48.890625 
Q 56.203125 41.796875 56.203125 29.59375 
z
M 47.21875 32.234375 
Q 47.125 39.59375 43.09375 43.984375 
Q 39.0625 48.390625 32.421875 48.390625 
Q 24.90625 48.390625 20.390625 44.140625 
Q 15.875 39.890625 15.1875 32.171875 
z
" id="DejaVuSans-65"/>
      <path d="M 2.984375 54.6875 
L 12.5 54.6875 
L 29.59375 8.796875 
L 46.6875 54.6875 
L 56.203125 54.6875 
L 35.6875 0 
L 23.484375 0 
z
" id="DejaVuSans-76"/>
      <path d="M 34.28125 27.484375 
Q 23.390625 27.484375 19.1875 25 
Q 14.984375 22.515625 14.984375 16.5 
Q 14.984375 11.71875 18.140625 8.90625 
Q 21.296875 6.109375 26.703125 6.109375 
Q 34.1875 6.109375 38.703125 11.40625 
Q 43.21875 16.703125 43.21875 25.484375 
L 43.21875 27.484375 
z
M 52.203125 31.203125 
L 52.203125 0 
L 43.21875 0 
L 43.21875 8.296875 
Q 40.140625 3.328125 35.546875 0.953125 
Q 30.953125 -1.421875 24.3125 -1.421875 
Q 15.921875 -1.421875 10.953125 3.296875 
Q 6 8.015625 6 15.921875 
Q 6 25.140625 12.171875 29.828125 
Q 18.359375 34.515625 30.609375 34.515625 
L 43.21875 34.515625 
L 43.21875 35.40625 
Q 43.21875 41.609375 39.140625 45 
Q 35.0625 48.390625 27.6875 48.390625 
Q 23 48.390625 18.546875 47.265625 
Q 14.109375 46.140625 10.015625 43.890625 
L 10.015625 52.203125 
Q 14.9375 54.109375 19.578125 55.046875 
Q 24.21875 56 28.609375 56 
Q 40.484375 56 46.34375 49.84375 
Q 52.203125 43.703125 52.203125 31.203125 
z
" id="DejaVuSans-61"/>
      <path d="M 44.28125 53.078125 
L 44.28125 44.578125 
Q 40.484375 46.53125 36.375 47.5 
Q 32.28125 48.484375 27.875 48.484375 
Q 21.1875 48.484375 17.84375 46.4375 
Q 14.5 44.390625 14.5 40.28125 
Q 14.5 37.15625 16.890625 35.375 
Q 19.28125 33.59375 26.515625 31.984375 
L 29.59375 31.296875 
Q 39.15625 29.25 43.1875 25.515625 
Q 47.21875 21.78125 47.21875 15.09375 
Q 47.21875 7.46875 41.1875 3.015625 
Q 35.15625 -1.421875 24.609375 -1.421875 
Q 20.21875 -1.421875 15.453125 -0.5625 
Q 10.6875 0.296875 5.421875 2 
L 5.421875 11.28125 
Q 10.40625 8.6875 15.234375 7.390625 
Q 20.0625 6.109375 24.8125 6.109375 
Q 31.15625 6.109375 34.5625 8.28125 
Q 37.984375 10.453125 37.984375 14.40625 
Q 37.984375 18.0625 35.515625 20.015625 
Q 33.0625 21.96875 24.703125 23.78125 
L 21.578125 24.515625 
Q 13.234375 26.265625 9.515625 29.90625 
Q 5.8125 33.546875 5.8125 39.890625 
Q 5.8125 47.609375 11.28125 51.796875 
Q 16.75 56 26.8125 56 
Q 31.78125 56 36.171875 55.265625 
Q 40.578125 54.546875 44.28125 53.078125 
z
" id="DejaVuSans-73"/>
      <path d="M 25.390625 72.90625 
L 33.6875 72.90625 
L 8.296875 -9.28125 
L 0 -9.28125 
z
" id="DejaVuSans-2f"/>
      <path d="M 45.40625 46.390625 
L 45.40625 75.984375 
L 54.390625 75.984375 
L 54.390625 0 
L 45.40625 0 
L 45.40625 8.203125 
Q 42.578125 3.328125 38.25 0.953125 
Q 33.9375 -1.421875 27.875 -1.421875 
Q 17.96875 -1.421875 11.734375 6.484375 
Q 5.515625 14.40625 5.515625 27.296875 
Q 5.515625 40.1875 11.734375 48.09375 
Q 17.96875 56 27.875 56 
Q 33.9375 56 38.25 53.625 
Q 42.578125 51.265625 45.40625 46.390625 
z
M 14.796875 27.296875 
Q 14.796875 17.390625 18.875 11.75 
Q 22.953125 6.109375 30.078125 6.109375 
Q 37.203125 6.109375 41.296875 11.75 
Q 45.40625 17.390625 45.40625 27.296875 
Q 45.40625 37.203125 41.296875 42.84375 
Q 37.203125 48.484375 30.078125 48.484375 
Q 22.953125 48.484375 18.875 42.84375 
Q 14.796875 37.203125 14.796875 27.296875 
z
" id="DejaVuSans-64"/>
      <path d="M 9.421875 54.6875 
L 18.40625 54.6875 
L 18.40625 0 
L 9.421875 0 
z
M 9.421875 75.984375 
L 18.40625 75.984375 
L 18.40625 64.59375 
L 9.421875 64.59375 
z
" id="DejaVuSans-69"/>
      <path d="M 52 44.1875 
Q 55.375 50.25 60.0625 53.125 
Q 64.75 56 71.09375 56 
Q 79.640625 56 84.28125 50.015625 
Q 88.921875 44.046875 88.921875 33.015625 
L 88.921875 0 
L 79.890625 0 
L 79.890625 32.71875 
Q 79.890625 40.578125 77.09375 44.375 
Q 74.3125 48.1875 68.609375 48.1875 
Q 61.625 48.1875 57.5625 43.546875 
Q 53.515625 38.921875 53.515625 30.90625 
L 53.515625 0 
L 44.484375 0 
L 44.484375 32.71875 
Q 44.484375 40.625 41.703125 44.40625 
Q 38.921875 48.1875 33.109375 48.1875 
Q 26.21875 48.1875 22.15625 43.53125 
Q 18.109375 38.875 18.109375 30.90625 
L 18.109375 0 
L 9.078125 0 
L 9.078125 54.6875 
L 18.109375 54.6875 
L 18.109375 46.1875 
Q 21.1875 51.21875 25.484375 53.609375 
Q 29.78125 56 35.6875 56 
Q 41.65625 56 45.828125 52.96875 
Q 50 49.953125 52 44.1875 
z
" id="DejaVuSans-6d"/>
      <path d="M 54.890625 33.015625 
L 54.890625 0 
L 45.90625 0 
L 45.90625 32.71875 
Q 45.90625 40.484375 42.875 44.328125 
Q 39.84375 48.1875 33.796875 48.1875 
Q 26.515625 48.1875 22.3125 43.546875 
Q 18.109375 38.921875 18.109375 30.90625 
L 18.109375 0 
L 9.078125 0 
L 9.078125 54.6875 
L 18.109375 54.6875 
L 18.109375 46.1875 
Q 21.34375 51.125 25.703125 53.5625 
Q 30.078125 56 35.796875 56 
Q 45.21875 56 50.046875 50.171875 
Q 54.890625 44.34375 54.890625 33.015625 
z
" id="DejaVuSans-6e"/>
      <path d="M 8.015625 75.875 
L 15.828125 75.875 
Q 23.140625 64.359375 26.78125 53.3125 
Q 30.421875 42.28125 30.421875 31.390625 
Q 30.421875 20.453125 26.78125 9.375 
Q 23.140625 -1.703125 15.828125 -13.1875 
L 8.015625 -13.1875 
Q 14.5 -2 17.703125 9.0625 
Q 20.90625 20.125 20.90625 31.390625 
Q 20.90625 42.671875 17.703125 53.65625 
Q 14.5 64.65625 8.015625 75.875 
z
" id="DejaVuSans-29"/>
     </defs>
     <g transform="translate(73.803219 338.153594)scale(0.17 -0.17)">
      <use xlink:href="#DejaVuSans-6c"/>
      <use x="27.783203" xlink:href="#DejaVuSans-6f"/>
      <use x="88.964844" xlink:href="#DejaVuSans-67"/>
      <use x="152.441406" xlink:href="#DejaVuSans-31"/>
      <use x="216.064453" xlink:href="#DejaVuSans-30"/>
      <use x="279.6875" xlink:href="#DejaVuSans-28"/>
      <use x="318.701172" xlink:href="#DejaVuSans-23"/>
      <use x="402.490234" xlink:href="#DejaVuSans-20"/>
      <use x="434.277344" xlink:href="#DejaVuSans-66"/>
      <use x="469.404297" xlink:href="#DejaVuSans-2d"/>
      <use x="505.488281" xlink:href="#DejaVuSans-65"/>
      <use x="567.011719" xlink:href="#DejaVuSans-76"/>
      <use x="626.191406" xlink:href="#DejaVuSans-61"/>
      <use x="687.470703" xlink:href="#DejaVuSans-6c"/>
      <use x="715.253906" xlink:href="#DejaVuSans-73"/>
      <use x="767.353516" xlink:href="#DejaVuSans-20"/>
      <use x="799.140625" xlink:href="#DejaVuSans-2f"/>
      <use x="832.832031" xlink:href="#DejaVuSans-20"/>
      <use x="864.619141" xlink:href="#DejaVuSans-64"/>
      <use x="928.095703" xlink:href="#DejaVuSans-69"/>
      <use x="955.878906" xlink:href="#DejaVuSans-6d"/>
      <use x="1053.291016" xlink:href="#DejaVuSans-65"/>
      <use x="1114.814453" xlink:href="#DejaVuSans-6e"/>
      <use x="1178.193359" xlink:href="#DejaVuSans-73"/>
      <use x="1230.292969" xlink:href="#DejaVuSans-69"/>
      <use x="1258.076172" xlink:href="#DejaVuSans-6f"/>
      <use x="1319.257812" xlink:href="#DejaVuSans-6e"/>
      <use x="1382.636719" xlink:href="#DejaVuSans-29"/>
     </g>
    </g>
   </g>
   <g id="matplotlib.axis_2">
    <g id="ytick_1">
     <g id="line2d_29">
      <path clip-path="url(#p966f4c02f6)" d="M 56.12 294.88 
L 333.168 294.88 
" style="fill:none;stroke:#b0b0b0;stroke-linecap:square;stroke-width:0.8;"/>
     </g>
     <g id="line2d_30">
      <defs>
       <path d="M 0 0 
L -3.5 0 
" id="m2d51acc8d5" style="stroke:#000000;stroke-width:0.8;"/>
      </defs>
      <g>
       <use style="stroke:#000000;stroke-width:0.8;" x="56.12" xlink:href="#m2d51acc8d5" y="294.88"/>
      </g>
     </g>
     <g id="text_6">
      <!-- 0.0 -->
      <defs>
       <path d="M 10.6875 12.40625 
L 21 12.40625 
L 21 0 
L 10.6875 0 
z
" id="DejaVuSans-2e"/>
      </defs>
      <g transform="translate(23.675 300.95875)scale(0.16 -0.16)">
       <use xlink:href="#DejaVuSans-30"/>
       <use x="63.623047" xlink:href="#DejaVuSans-2e"/>
       <use x="95.410156" xlink:href="#DejaVuSans-30"/>
      </g>
     </g>
    </g>
    <g id="ytick_2">
     <g id="line2d_31">
      <path clip-path="url(#p966f4c02f6)" d="M 56.12 237.843411 
L 333.168 237.843411 
" style="fill:none;stroke:#b0b0b0;stroke-linecap:square;stroke-width:0.8;"/>
     </g>
     <g id="line2d_32">
      <g>
       <use style="stroke:#000000;stroke-width:0.8;" x="56.12" xlink:href="#m2d51acc8d5" y="237.843411"/>
      </g>
     </g>
     <g id="text_7">
      <!-- 0.2 -->
      <g transform="translate(23.675 243.922161)scale(0.16 -0.16)">
       <use xlink:href="#DejaVuSans-30"/>
       <use x="63.623047" xlink:href="#DejaVuSans-2e"/>
       <use x="95.410156" xlink:href="#DejaVuSans-32"/>
      </g>
     </g>
    </g>
    <g id="ytick_3">
     <g id="line2d_33">
      <path clip-path="url(#p966f4c02f6)" d="M 56.12 180.806823 
L 333.168 180.806823 
" style="fill:none;stroke:#b0b0b0;stroke-linecap:square;stroke-width:0.8;"/>
     </g>
     <g id="line2d_34">
      <g>
       <use style="stroke:#000000;stroke-width:0.8;" x="56.12" xlink:href="#m2d51acc8d5" y="180.806823"/>
      </g>
     </g>
     <g id="text_8">
      <!-- 0.4 -->
      <g transform="translate(23.675 186.885573)scale(0.16 -0.16)">
       <use xlink:href="#DejaVuSans-30"/>
       <use x="63.623047" xlink:href="#DejaVuSans-2e"/>
       <use x="95.410156" xlink:href="#DejaVuSans-34"/>
      </g>
     </g>
    </g>
    <g id="ytick_4">
     <g id="line2d_35">
      <path clip-path="url(#p966f4c02f6)" d="M 56.12 123.770234 
L 333.168 123.770234 
" style="fill:none;stroke:#b0b0b0;stroke-linecap:square;stroke-width:0.8;"/>
     </g>
     <g id="line2d_36">
      <g>
       <use style="stroke:#000000;stroke-width:0.8;" x="56.12" xlink:href="#m2d51acc8d5" y="123.770234"/>
      </g>
     </g>
     <g id="text_9">
      <!-- 0.6 -->
      <g transform="translate(23.675 129.848984)scale(0.16 -0.16)">
       <use xlink:href="#DejaVuSans-30"/>
       <use x="63.623047" xlink:href="#DejaVuSans-2e"/>
       <use x="95.410156" xlink:href="#DejaVuSans-36"/>
      </g>
     </g>
    </g>
    <g id="ytick_5">
     <g id="line2d_37">
      <path clip-path="url(#p966f4c02f6)" d="M 56.12 66.733646 
L 333.168 66.733646 
" style="fill:none;stroke:#b0b0b0;stroke-linecap:square;stroke-width:0.8;"/>
     </g>
     <g id="line2d_38">
      <g>
       <use style="stroke:#000000;stroke-width:0.8;" x="56.12" xlink:href="#m2d51acc8d5" y="66.733646"/>
      </g>
     </g>
     <g id="text_10">
      <!-- 0.8 -->
      <defs>
       <path d="M 31.78125 34.625 
Q 24.75 34.625 20.71875 30.859375 
Q 16.703125 27.09375 16.703125 20.515625 
Q 16.703125 13.921875 20.71875 10.15625 
Q 24.75 6.390625 31.78125 6.390625 
Q 38.8125 6.390625 42.859375 10.171875 
Q 46.921875 13.96875 46.921875 20.515625 
Q 46.921875 27.09375 42.890625 30.859375 
Q 38.875 34.625 31.78125 34.625 
z
M 21.921875 38.8125 
Q 15.578125 40.375 12.03125 44.71875 
Q 8.5 49.078125 8.5 55.328125 
Q 8.5 64.0625 14.71875 69.140625 
Q 20.953125 74.21875 31.78125 74.21875 
Q 42.671875 74.21875 48.875 69.140625 
Q 55.078125 64.0625 55.078125 55.328125 
Q 55.078125 49.078125 51.53125 44.71875 
Q 48 40.375 41.703125 38.8125 
Q 48.828125 37.15625 52.796875 32.3125 
Q 56.78125 27.484375 56.78125 20.515625 
Q 56.78125 9.90625 50.3125 4.234375 
Q 43.84375 -1.421875 31.78125 -1.421875 
Q 19.734375 -1.421875 13.25 4.234375 
Q 6.78125 9.90625 6.78125 20.515625 
Q 6.78125 27.484375 10.78125 32.3125 
Q 14.796875 37.15625 21.921875 38.8125 
z
M 18.3125 54.390625 
Q 18.3125 48.734375 21.84375 45.5625 
Q 25.390625 42.390625 31.78125 42.390625 
Q 38.140625 42.390625 41.71875 45.5625 
Q 45.3125 48.734375 45.3125 54.390625 
Q 45.3125 60.0625 41.71875 63.234375 
Q 38.140625 66.40625 31.78125 66.40625 
Q 25.390625 66.40625 21.84375 63.234375 
Q 18.3125 60.0625 18.3125 54.390625 
z
" id="DejaVuSans-38"/>
      </defs>
      <g transform="translate(23.675 72.812396)scale(0.16 -0.16)">
       <use xlink:href="#DejaVuSans-30"/>
       <use x="63.623047" xlink:href="#DejaVuSans-2e"/>
       <use x="95.410156" xlink:href="#DejaVuSans-38"/>
      </g>
     </g>
    </g>
    <g id="ytick_6">
     <g id="line2d_39">
      <path clip-path="url(#p966f4c02f6)" d="M 56.12 9.697057 
L 333.168 9.697057 
" style="fill:none;stroke:#b0b0b0;stroke-linecap:square;stroke-width:0.8;"/>
     </g>
     <g id="line2d_40">
      <g>
       <use style="stroke:#000000;stroke-width:0.8;" x="56.12" xlink:href="#m2d51acc8d5" y="9.697057"/>
      </g>
     </g>
     <g id="text_11">
      <!-- 1.0 -->
      <g transform="translate(23.675 15.775807)scale(0.16 -0.16)">
       <use xlink:href="#DejaVuSans-31"/>
       <use x="63.623047" xlink:href="#DejaVuSans-2e"/>
       <use x="95.410156" xlink:href="#DejaVuSans-30"/>
      </g>
     </g>
    </g>
    <g id="text_12">
     <!-- Fraction of function,target pairs -->
     <defs>
      <path d="M 9.8125 72.90625 
L 51.703125 72.90625 
L 51.703125 64.59375 
L 19.671875 64.59375 
L 19.671875 43.109375 
L 48.578125 43.109375 
L 48.578125 34.8125 
L 19.671875 34.8125 
L 19.671875 0 
L 9.8125 0 
z
" id="DejaVuSans-46"/>
      <path d="M 41.109375 46.296875 
Q 39.59375 47.171875 37.8125 47.578125 
Q 36.03125 48 33.890625 48 
Q 26.265625 48 22.1875 43.046875 
Q 18.109375 38.09375 18.109375 28.8125 
L 18.109375 0 
L 9.078125 0 
L 9.078125 54.6875 
L 18.109375 54.6875 
L 18.109375 46.1875 
Q 20.953125 51.171875 25.484375 53.578125 
Q 30.03125 56 36.53125 56 
Q 37.453125 56 38.578125 55.875 
Q 39.703125 55.765625 41.0625 55.515625 
z
" id="DejaVuSans-72"/>
      <path d="M 48.78125 52.59375 
L 48.78125 44.1875 
Q 44.96875 46.296875 41.140625 47.34375 
Q 37.3125 48.390625 33.40625 48.390625 
Q 24.65625 48.390625 19.8125 42.84375 
Q 14.984375 37.3125 14.984375 27.296875 
Q 14.984375 17.28125 19.8125 11.734375 
Q 24.65625 6.203125 33.40625 6.203125 
Q 37.3125 6.203125 41.140625 7.25 
Q 44.96875 8.296875 48.78125 10.40625 
L 48.78125 2.09375 
Q 45.015625 0.34375 40.984375 -0.53125 
Q 36.96875 -1.421875 32.421875 -1.421875 
Q 20.0625 -1.421875 12.78125 6.34375 
Q 5.515625 14.109375 5.515625 27.296875 
Q 5.515625 40.671875 12.859375 48.328125 
Q 20.21875 56 33.015625 56 
Q 37.15625 56 41.109375 55.140625 
Q 45.0625 54.296875 48.78125 52.59375 
z
" id="DejaVuSans-63"/>
      <path d="M 18.3125 70.21875 
L 18.3125 54.6875 
L 36.8125 54.6875 
L 36.8125 47.703125 
L 18.3125 47.703125 
L 18.3125 18.015625 
Q 18.3125 11.328125 20.140625 9.421875 
Q 21.96875 7.515625 27.59375 7.515625 
L 36.8125 7.515625 
L 36.8125 0 
L 27.59375 0 
Q 17.1875 0 13.234375 3.875 
Q 9.28125 7.765625 9.28125 18.015625 
L 9.28125 47.703125 
L 2.6875 47.703125 
L 2.6875 54.6875 
L 9.28125 54.6875 
L 9.28125 70.21875 
z
" id="DejaVuSans-74"/>
      <path d="M 8.5 21.578125 
L 8.5 54.6875 
L 17.484375 54.6875 
L 17.484375 21.921875 
Q 17.484375 14.15625 20.5 10.265625 
Q 23.53125 6.390625 29.59375 6.390625 
Q 36.859375 6.390625 41.078125 11.03125 
Q 45.3125 15.671875 45.3125 23.6875 
L 45.3125 54.6875 
L 54.296875 54.6875 
L 54.296875 0 
L 45.3125 0 
L 45.3125 8.40625 
Q 42.046875 3.421875 37.71875 1 
Q 33.40625 -1.421875 27.6875 -1.421875 
Q 18.265625 -1.421875 13.375 4.4375 
Q 8.5 10.296875 8.5 21.578125 
z
M 31.109375 56 
z
" id="DejaVuSans-75"/>
      <path d="M 11.71875 12.40625 
L 22.015625 12.40625 
L 22.015625 4 
L 14.015625 -11.625 
L 7.71875 -11.625 
L 11.71875 4 
z
" id="DejaVuSans-2c"/>
      <path d="M 18.109375 8.203125 
L 18.109375 -20.796875 
L 9.078125 -20.796875 
L 9.078125 54.6875 
L 18.109375 54.6875 
L 18.109375 46.390625 
Q 20.953125 51.265625 25.265625 53.625 
Q 29.59375 56 35.59375 56 
Q 45.5625 56 51.78125 48.09375 
Q 58.015625 40.1875 58.015625 27.296875 
Q 58.015625 14.40625 51.78125 6.484375 
Q 45.5625 -1.421875 35.59375 -1.421875 
Q 29.59375 -1.421875 25.265625 0.953125 
Q 20.953125 3.328125 18.109375 8.203125 
z
M 48.6875 27.296875 
Q 48.6875 37.203125 44.609375 42.84375 
Q 40.53125 48.484375 33.40625 48.484375 
Q 26.265625 48.484375 22.1875 42.84375 
Q 18.109375 37.203125 18.109375 27.296875 
Q 18.109375 17.390625 22.1875 11.75 
Q 26.265625 6.109375 33.40625 6.109375 
Q 40.53125 6.109375 44.609375 11.75 
Q 48.6875 17.390625 48.6875 27.296875 
z
" id="DejaVuSans-70"/>
     </defs>
     <g transform="translate(16.139531 286.001989)rotate(-90)scale(0.17 -0.17)">
      <use xlink:href="#DejaVuSans-46"/>
      <use x="57.410156" xlink:href="#DejaVuSans-72"/>
      <use x="98.523438" xlink:href="#DejaVuSans-61"/>
      <use x="159.802734" xlink:href="#DejaVuSans-63"/>
      <use x="214.783203" xlink:href="#DejaVuSans-74"/>
      <use x="253.992188" xlink:href="#DejaVuSans-69"/>
      <use x="281.775391" xlink:href="#DejaVuSans-6f"/>
      <use x="342.957031" xlink:href="#DejaVuSans-6e"/>
      <use x="406.335938" xlink:href="#DejaVuSans-20"/>
      <use x="438.123047" xlink:href="#DejaVuSans-6f"/>
      <use x="499.304688" xlink:href="#DejaVuSans-66"/>
      <use x="534.509766" xlink:href="#DejaVuSans-20"/>
      <use x="566.296875" xlink:href="#DejaVuSans-66"/>
      <use x="601.501953" xlink:href="#DejaVuSans-75"/>
      <use x="664.880859" xlink:href="#DejaVuSans-6e"/>
      <use x="728.259766" xlink:href="#DejaVuSans-63"/>
      <use x="783.240234" xlink:href="#DejaVuSans-74"/>
      <use x="822.449219" xlink:href="#DejaVuSans-69"/>
      <use x="850.232422" xlink:href="#DejaVuSans-6f"/>
      <use x="911.414062" xlink:href="#DejaVuSans-6e"/>
      <use x="974.792969" xlink:href="#DejaVuSans-2c"/>
      <use x="1006.580078" xlink:href="#DejaVuSans-74"/>
      <use x="1045.789062" xlink:href="#DejaVuSans-61"/>
      <use x="1107.068359" xlink:href="#DejaVuSans-72"/>
      <use x="1148.166016" xlink:href="#DejaVuSans-67"/>
      <use x="1211.642578" xlink:href="#DejaVuSans-65"/>
      <use x="1273.166016" xlink:href="#DejaVuSans-74"/>
      <use x="1312.375" xlink:href="#DejaVuSans-20"/>
      <use x="1344.162109" xlink:href="#DejaVuSans-70"/>
      <use x="1407.638672" xlink:href="#DejaVuSans-61"/>
      <use x="1468.917969" xlink:href="#DejaVuSans-69"/>
      <use x="1496.701172" xlink:href="#DejaVuSans-72"/>
      <use x="1537.814453" xlink:href="#DejaVuSans-73"/>
     </g>
    </g>
   </g>
   <g id="line2d_41">
    <defs>
     <path d="M 0 1.5 
C 0.397805 1.5 0.77937 1.341951 1.06066 1.06066 
C 1.341951 0.77937 1.5 0.397805 1.5 0 
C 1.5 -0.397805 1.341951 -0.77937 1.06066 -1.06066 
C 0.77937 -1.341951 0.397805 -1.5 0 -1.5 
C -0.397805 -1.5 -0.77937 -1.341951 -1.06066 -1.06066 
C -1.341951 -0.77937 -1.5 -0.397805 -1.5 0 
C -1.5 0.397805 -1.341951 0.77937 -1.06066 1.06066 
C -0.77937 1.341951 -0.397805 1.5 0 1.5 
z
" id="m84571ee924" style="stroke:#f5deb3;"/>
    </defs>
    <g>
     <use style="fill:#f5deb3;stroke:#f5deb3;" x="172.148114" xlink:href="#m84571ee924" y="9.697057"/>
     <use style="fill:#f5deb3;stroke:#f5deb3;" x="172.148114" xlink:href="#m84571ee924" y="9.697057"/>
    </g>
   </g>
   <g id="line2d_42">
    <defs>
     <path d="M 0 1.5 
C 0.397805 1.5 0.77937 1.341951 1.06066 1.06066 
C 1.341951 0.77937 1.5 0.397805 1.5 0 
C 1.5 -0.397805 1.341951 -0.77937 1.06066 -1.06066 
C 0.77937 -1.341951 0.397805 -1.5 0 -1.5 
C -0.397805 -1.5 -0.77937 -1.341951 -1.06066 -1.06066 
C -1.341951 -0.77937 -1.5 -0.397805 -1.5 0 
C -1.5 0.397805 -1.341951 0.77937 -1.06066 1.06066 
C -0.77937 1.341951 -0.397805 1.5 0 1.5 
z
" id="mcabfee1372" style="stroke:#000080;"/>
    </defs>
    <g>
     <use style="fill:#000080;stroke:#000080;" x="292.463282" xlink:href="#mcabfee1372" y="74.562197"/>
     <use style="fill:#000080;stroke:#000080;" x="292.463282" xlink:href="#mcabfee1372" y="74.562197"/>
    </g>
   </g>
   <g id="line2d_43">
    <path d="M 16.541714 294.88 
L 16.541714 293.985308 
L 59.253858 293.985308 
L 59.253858 293.202453 
L 70.436568 293.202453 
L 70.436568 290.965724 
L 77.155024 290.965724 
L 77.155024 289.623687 
L 81.973032 289.623687 
L 81.973032 288.393486 
L 85.732 288.393486 
L 85.732 287.834304 
L 88.814625 287.834304 
L 88.814625 287.163285 
L 91.427575 287.163285 
L 91.427575 285.933084 
L 93.695229 285.933084 
L 93.695229 285.485738 
L 95.698286 285.485738 
L 95.698286 284.255537 
L 97.492092 284.255537 
L 97.492092 283.249009 
L 99.11626 283.249009 
L 99.11626 281.683299 
L 100.600121 281.683299 
L 100.600121 280.900444 
L 101.966002 280.900444 
L 101.966002 279.782079 
L 103.231288 279.782079 
L 103.231288 278.999224 
L 104.409787 278.999224 
L 104.409787 277.657187 
L 105.512642 277.657187 
L 105.512642 276.31515 
L 106.548983 276.31515 
L 106.548983 275.196785 
L 107.526378 275.196785 
L 107.526378 273.854748 
L 108.451173 273.854748 
L 108.451173 272.624547 
L 109.328742 272.624547 
L 109.328742 270.611491 
L 110.163674 270.611491 
L 110.163674 268.374762 
L 110.959921 268.374762 
L 110.959921 266.249869 
L 111.72091 266.249869 
L 111.72091 264.124977 
L 112.449632 264.124977 
L 112.449632 262.671103 
L 113.148711 262.671103 
L 113.148711 260.769883 
L 113.820466 260.769883 
L 113.820466 257.750299 
L 114.466953 257.750299 
L 114.466953 256.296425 
L 115.090002 256.296425 
L 115.090002 254.842552 
L 115.691256 254.842552 
L 115.691256 253.500514 
L 116.272187 253.500514 
L 116.272187 252.158477 
L 116.834124 252.158477 
L 116.834124 251.040112 
L 117.37827 251.040112 
L 117.37827 250.033584 
L 117.905717 250.033584 
L 117.905717 248.91522 
L 118.417459 248.91522 
L 118.417459 247.573182 
L 118.914406 247.573182 
L 118.914406 246.454818 
L 119.397387 246.454818 
L 119.397387 245.336453 
L 119.867168 245.336453 
L 119.867168 244.441762 
L 120.32445 244.441762 
L 120.32445 243.211561 
L 120.769881 243.211561 
L 120.769881 242.093196 
L 121.20406 242.093196 
L 121.20406 241.422178 
L 121.627542 241.422178 
L 121.627542 240.41565 
L 122.04084 240.41565 
L 122.04084 239.409122 
L 122.444434 239.409122 
L 122.444434 238.51443 
L 122.838768 238.51443 
L 122.838768 237.619739 
L 123.224258 237.619739 
L 123.224258 236.836883 
L 123.601292 236.836883 
L 123.601292 236.165865 
L 123.970233 236.165865 
L 123.970233 234.935664 
L 124.331421 234.935664 
L 124.331421 234.152809 
L 124.685175 234.152809 
L 124.685175 233.369954 
L 125.031795 233.369954 
L 125.031795 232.251589 
L 125.371564 232.251589 
L 125.371564 231.245061 
L 125.704746 231.245061 
L 125.704746 230.01486 
L 126.031592 230.01486 
L 126.031592 228.560986 
L 126.352339 228.560986 
L 126.352339 227.554458 
L 126.667211 227.554458 
L 126.667211 226.54793 
L 126.976418 226.54793 
L 126.976418 225.541402 
L 127.28016 225.541402 
L 127.28016 224.98222 
L 127.578629 224.98222 
L 127.578629 223.752019 
L 127.872003 223.752019 
L 127.872003 223.304673 
L 128.160453 223.304673 
L 128.160453 222.633654 
L 128.444143 222.633654 
L 128.444143 222.186309 
L 128.723227 222.186309 
L 128.723227 221.627126 
L 128.997851 221.627126 
L 128.997851 220.620598 
L 129.268157 220.620598 
L 129.268157 219.61407 
L 129.534278 219.61407 
L 129.534278 219.166725 
L 129.796341 219.166725 
L 129.796341 218.495706 
L 130.054468 218.495706 
L 130.054468 218.04836 
L 130.308777 218.04836 
L 130.308777 217.153669 
L 130.559378 217.153669 
L 130.559378 216.594486 
L 130.806377 216.594486 
L 130.806377 215.811631 
L 131.049878 215.811631 
L 131.049878 215.028776 
L 131.289977 215.028776 
L 131.289977 214.469594 
L 131.526768 214.469594 
L 131.526768 214.245921 
L 131.760342 214.245921 
L 131.760342 213.463066 
L 131.990784 213.463066 
L 131.990784 212.792047 
L 132.218178 212.792047 
L 132.218178 212.009192 
L 132.442602 212.009192 
L 132.442602 211.561846 
L 132.882847 211.561846 
L 132.882847 211.002664 
L 133.098812 211.002664 
L 133.098812 210.778991 
L 133.312097 210.778991 
L 133.312097 210.219809 
L 133.522769 210.219809 
L 133.522769 209.325117 
L 133.730889 209.325117 
L 133.730889 208.765935 
L 133.936519 208.765935 
L 133.936519 208.542262 
L 134.139719 208.542262 
L 134.139719 207.98308 
L 134.340544 207.98308 
L 134.340544 207.423898 
L 134.53905 207.423898 
L 134.53905 206.864715 
L 134.73529 206.864715 
L 134.73529 206.529206 
L 134.929315 206.529206 
L 134.929315 206.305533 
L 135.121173 206.305533 
L 135.121173 205.746351 
L 135.310914 205.746351 
L 135.310914 204.627986 
L 135.498584 204.627986 
L 135.498584 204.180641 
L 135.684226 204.180641 
L 135.684226 203.845131 
L 135.867885 203.845131 
L 135.867885 203.285949 
L 136.049602 203.285949 
L 136.049602 202.391257 
L 136.229418 202.391257 
L 136.229418 201.832075 
L 136.407373 201.832075 
L 136.407373 201.161056 
L 136.583504 201.161056 
L 136.583504 200.601874 
L 136.757848 200.601874 
L 136.757848 200.154528 
L 136.930442 200.154528 
L 136.930442 199.819019 
L 137.10132 199.819019 
L 137.10132 199.595346 
L 137.270516 199.595346 
L 137.270516 199.148 
L 137.438063 199.148 
L 137.438063 198.588818 
L 137.603992 198.588818 
L 137.603992 198.365145 
L 137.768335 198.365145 
L 137.768335 197.917799 
L 137.931121 197.917799 
L 137.931121 197.470454 
L 138.09238 197.470454 
L 138.09238 197.023108 
L 138.25214 197.023108 
L 138.25214 196.575762 
L 138.410429 196.575762 
L 138.410429 196.463926 
L 138.567274 196.463926 
L 138.567274 196.352089 
L 138.7227 196.352089 
L 138.7227 195.569234 
L 138.876734 195.569234 
L 138.876734 195.457398 
L 139.0294 195.457398 
L 139.0294 195.121888 
L 139.180721 195.121888 
L 139.180721 194.898215 
L 139.330722 194.898215 
L 139.330722 194.003524 
L 139.479425 194.003524 
L 139.479425 193.779851 
L 139.626853 193.779851 
L 139.626853 193.332505 
L 139.773027 193.332505 
L 139.773027 192.996996 
L 139.917968 192.996996 
L 139.917968 192.773323 
L 140.061698 192.773323 
L 140.061698 192.437813 
L 140.204235 192.437813 
L 140.204235 192.214141 
L 140.3456 192.214141 
L 140.3456 191.766795 
L 140.485813 191.766795 
L 140.485813 191.319449 
L 140.62489 191.319449 
L 140.62489 190.872103 
L 140.762851 190.872103 
L 140.762851 190.64843 
L 140.899714 190.64843 
L 140.899714 190.312921 
L 141.436521 190.312921 
L 141.436521 189.977412 
L 141.568144 189.977412 
L 141.568144 189.530066 
L 141.698766 189.530066 
L 141.698766 189.194556 
L 141.828403 189.194556 
L 141.828403 188.970884 
L 141.95707 188.970884 
L 141.95707 188.747211 
L 142.084781 188.747211 
L 142.1079 188.299865 
L 142.21155 188.299865 
L 142.21155 188.076192 
L 142.337391 188.076192 
L 142.337391 187.51701 
L 142.462317 187.51701 
L 142.462317 187.405173 
L 142.586342 187.405173 
L 142.586342 187.293337 
L 142.709478 187.293337 
L 142.709478 186.734155 
L 142.831738 186.734155 
L 142.831738 186.510482 
L 142.953135 186.510482 
L 142.953135 185.951299 
L 143.073681 185.951299 
L 143.073681 185.392117 
L 143.193387 185.392117 
L 143.193387 184.832935 
L 143.312265 184.832935 
L 143.312265 184.05008 
L 143.430327 184.05008 
L 143.430327 183.714571 
L 143.547583 183.714571 
L 143.547583 183.267225 
L 143.664045 183.267225 
L 143.664045 182.931715 
L 143.779723 182.931715 
L 143.779723 182.708042 
L 143.894627 182.708042 
L 143.894627 182.48437 
L 144.008769 182.48437 
L 144.008769 182.14886 
L 144.122158 182.14886 
L 144.122158 181.701514 
L 144.234803 181.701514 
L 144.234803 181.030496 
L 144.346715 181.030496 
L 144.346715 180.58315 
L 144.457904 180.58315 
L 144.568377 179.576622 
L 144.678145 179.576622 
L 144.787217 179.01744 
L 144.895601 179.01744 
L 145.003305 178.458257 
L 145.110339 178.458257 
L 145.216711 177.563566 
L 145.322428 177.563566 
L 145.4275 176.780711 
L 145.531932 176.780711 
L 145.635734 176.109692 
L 145.738913 176.109692 
L 145.841477 175.55051 
L 145.943432 175.55051 
L 146.044786 175.215 
L 146.145545 175.215 
L 146.245718 173.9848 
L 146.34531 173.9848 
L 146.444328 172.642762 
L 146.542779 172.642762 
L 146.64067 171.524398 
L 146.738006 171.524398 
L 146.834794 170.51787 
L 146.93104 170.51787 
L 147.02675 169.623178 
L 147.12193 169.623178 
L 147.216586 168.728486 
L 147.310724 168.728486 
L 147.404349 168.057468 
L 147.497466 168.057468 
L 147.590082 167.274613 
L 147.682202 167.274613 
L 147.77383 166.827267 
L 147.864973 166.827267 
L 147.955635 166.268085 
L 148.045821 166.268085 
L 148.135537 165.14972 
L 148.224786 165.14972 
L 148.313575 164.478701 
L 148.401907 164.478701 
L 148.401907 164.143192 
L 148.577222 164.143192 
L 148.664213 163.024828 
L 148.750766 163.024828 
L 148.836885 161.68279 
L 148.922576 161.68279 
L 149.007841 160.564426 
L 149.092685 160.564426 
L 149.177112 159.781571 
L 149.261127 159.781571 
L 149.344733 158.886879 
L 149.427935 158.886879 
L 149.510735 158.104024 
L 149.593139 158.104024 
L 149.593139 157.544842 
L 149.756771 157.544842 
L 149.838006 156.985659 
L 149.918859 156.985659 
L 149.999334 156.090968 
L 150.159162 156.090968 
L 150.238522 155.531786 
L 150.317517 155.531786 
L 150.396151 154.972603 
L 150.474427 154.972603 
L 150.552348 153.854239 
L 150.629917 153.854239 
L 150.707138 153.295057 
L 150.784014 153.295057 
L 150.860547 152.288529 
L 150.936741 152.288529 
L 151.012598 151.505673 
L 151.088123 151.505673 
L 151.163317 150.163636 
L 151.238183 150.163636 
L 151.312725 149.604454 
L 151.386945 149.604454 
L 151.460846 148.933435 
L 151.53443 148.933435 
L 151.607701 147.367725 
L 151.680661 147.367725 
L 151.753312 146.025687 
L 151.825658 146.025687 
L 151.8977 144.907323 
L 151.969442 144.907323 
L 152.060318 144.124468 
L 152.112033 144.124468 
L 152.182887 143.006103 
L 152.253451 143.006103 
L 152.323726 141.775902 
L 152.393715 141.775902 
L 152.46342 140.322029 
L 152.532844 140.322029 
L 152.601988 139.203664 
L 152.670856 139.203664 
L 152.739448 138.308973 
L 152.807768 138.308973 
L 152.875817 136.743262 
L 152.943598 136.743262 
L 153.011113 135.960407 
L 153.078364 135.960407 
L 153.145352 134.506533 
L 153.212081 134.506533 
L 153.278551 134.059188 
L 153.344766 134.059188 
L 153.410726 133.052659 
L 153.476434 133.052659 
L 153.541892 131.822459 
L 153.607102 131.822459 
L 153.672065 131.375113 
L 153.736783 131.375113 
L 153.801259 130.704094 
L 153.929489 130.704094 
L 153.929489 130.592258 
L 154.05677 130.592258 
L 154.120059 130.144912 
L 154.183116 130.144912 
L 154.245942 129.58573 
L 154.370909 129.58573 
L 154.433054 129.25022 
L 154.494975 129.25022 
L 154.556673 129.026547 
L 154.618151 129.026547 
L 154.67941 128.467365 
L 154.740451 128.467365 
L 154.801276 127.908183 
L 154.861887 127.908183 
L 154.922285 127.460837 
L 154.982471 127.460837 
L 155.042447 127.125328 
L 155.107638 127.125328 
L 155.161776 126.901655 
L 155.22113 126.901655 
L 155.280281 126.342473 
L 155.339229 126.342473 
L 155.339229 126.1188 
L 155.456522 126.1188 
L 155.514869 125.671454 
L 155.688733 125.671454 
L 155.746298 125.335945 
L 155.974653 125.335945 
L 156.031271 125.112272 
L 156.087703 125.112272 
L 156.087703 125.000435 
L 156.367116 125.000435 
L 156.477622 124.664926 
L 156.696525 124.664926 
L 156.696525 124.553089 
L 156.912676 124.553089 
L 156.912676 124.441253 
L 157.073023 124.441253 
L 157.073023 124.329417 
L 157.231888 124.329417 
L 157.231888 124.21758 
L 157.44145 124.21758 
L 157.493444 123.993907 
L 157.648488 123.993907 
L 157.751079 123.770234 
L 157.853062 123.770234 
L 157.903827 123.546561 
L 158.055229 123.546561 
L 158.155428 123.099216 
L 158.227935 123.099216 
L 158.30464 122.875543 
L 158.354091 122.875543 
L 158.452567 122.428197 
L 158.501595 122.428197 
L 158.550483 122.092688 
L 159.314355 122.092688 
L 159.407496 121.533505 
L 159.500134 121.533505 
L 159.546267 121.197996 
L 159.683927 121.197996 
L 159.775092 120.862487 
L 159.865775 120.862487 
L 159.865775 120.75065 
L 160.098527 120.75065 
L 160.098527 120.638814 
L 162.267556 120.638814 
L 162.267556 120.526977 
L 162.694778 120.526977 
L 162.694778 120.415141 
L 163.408583 120.415141 
L 163.518628 120.079632 
L 163.591602 120.079632 
L 163.627973 119.744122 
L 163.736627 119.744122 
L 163.844598 119.520449 
L 163.880438 119.520449 
L 163.987513 118.961267 
L 164.093924 118.961267 
L 164.129249 118.402085 
L 164.304791 118.402085 
L 164.304791 118.290248 
L 164.478559 118.290248 
L 164.513103 117.731066 
L 164.820911 117.731066 
L 164.888571 117.507393 
L 164.989564 117.507393 
L 165.023097 117.28372 
L 165.123304 117.28372 
L 165.123304 117.171884 
L 165.256013 117.171884 
L 165.256013 117.060047 
L 165.42047 117.060047 
L 165.518394 116.724538 
L 165.550912 116.724538 
L 165.615764 116.389029 
L 165.712585 116.389029 
L 165.712585 116.165356 
L 165.881445 116.165356 
L 165.968139 115.941683 
L 165.999818 115.941683 
L 166.094506 115.158828 
L 166.157342 115.158828 
L 166.251168 114.599646 
L 166.803618 114.599646 
L 166.893991 114.375973 
L 166.92401 114.375973 
L 166.997472 113.81679 
L 167.043565 113.81679 
L 167.103032 113.593118 
L 167.368116 113.593118 
L 167.455577 113.257608 
L 167.513637 113.257608 
L 167.542594 113.033935 
L 167.829513 113.033935 
L 167.829513 112.922099 
L 168.52653 112.922099 
L 168.553832 112.698426 
L 170.16704 112.698426 
L 170.266097 112.027407 
L 170.290773 112.027407 
L 170.364587 111.468225 
L 170.413621 111.468225 
L 170.438085 111.020879 
L 170.752997 111.020879 
L 170.848744 110.797206 
L 171.132824 110.797206 
L 171.132824 110.68537 
L 171.412286 110.68537 
L 171.412286 110.573533 
L 171.755342 110.573533 
L 171.823139 110.349861 
L 172.091685 110.349861 
L 172.136038 110.014351 
L 172.33422 110.014351 
L 172.443342 109.678842 
L 173.312935 109.678842 
L 173.333605 109.455169 
L 173.862471 109.455169 
L 173.942409 109.007823 
L 174.568879 109.007823 
L 174.664735 108.113132 
L 174.702928 108.113132 
L 174.702928 108.001295 
L 175.117545 108.001295 
L 175.117545 107.889459 
L 175.467747 107.889459 
L 175.467747 107.777622 
L 176.425785 107.777622 
L 176.477476 107.330276 
L 177.609273 107.330276 
L 177.705649 107.106604 
L 177.785553 107.106604 
L 177.785553 106.994767 
L 178.088691 106.994767 
L 178.195166 106.323748 
L 178.210727 106.323748 
L 178.257326 105.988239 
L 178.39637 105.988239 
L 178.39637 105.876403 
L 179.852064 105.876403 
L 179.890577 105.540893 
L 180.316135 105.540893 
L 180.316135 105.429057 
L 180.52132 105.429057 
L 180.548493 105.205384 
L 180.977531 105.205384 
L 181.043611 104.869875 
L 181.383191 104.869875 
L 181.409037 104.534365 
L 181.627171 104.534365 
L 181.716193 103.639674 
L 182.61808 103.639674 
L 182.690145 102.744982 
L 183.569464 102.744982 
L 183.569464 102.633146 
L 183.736365 102.633146 
L 183.736365 102.521309 
L 184.367479 102.521309 
L 184.367479 102.409473 
L 184.497443 102.409473 
L 184.497443 102.297636 
L 184.669214 102.297636 
L 184.690565 102.073963 
L 184.783425 102.073963 
L 184.839285 101.738454 
L 186.279192 101.738454 
L 186.356833 101.291108 
L 186.434125 101.291108 
L 186.482256 100.843762 
L 186.587673 100.843762 
L 186.616312 100.62009 
L 186.74933 100.62009 
L 186.787147 100.060907 
L 187.777967 100.060907 
L 187.777967 99.949071 
L 189.164697 99.949071 
L 189.164697 99.725398 
L 190.077544 99.725398 
L 190.124272 99.278052 
L 191.201932 99.278052 
L 191.201932 99.166216 
L 192.270996 99.166216 
L 192.284719 98.830706 
L 192.719383 98.830706 
L 192.758248 98.607033 
L 193.134426 98.607033 
L 193.245044 98.047851 
L 193.251529 98.047851 
L 193.270969 97.824178 
L 193.36784 97.824178 
L 193.36784 97.712342 
L 193.483369 97.712342 
L 193.483369 97.600505 
L 193.743654 97.600505 
L 193.784274 96.929487 
L 194.037261 96.929487 
L 194.111427 96.705814 
L 194.191415 96.705814 
L 194.191415 96.593977 
L 195.117496 96.593977 
L 195.117496 96.370304 
L 195.41733 96.370304 
L 195.41733 96.258468 
L 195.701292 96.258468 
L 195.701292 96.146632 
L 196.465069 96.146632 
L 196.465069 96.034795 
L 197.548802 96.034795 
L 197.548802 95.922959 
L 198.813926 95.922959 
L 198.813926 95.811122 
L 200.03166 95.811122 
L 200.070948 95.475613 
L 200.322002 95.475613 
L 200.322002 95.363776 
L 201.287019 95.363776 
L 201.287019 95.25194 
L 201.484936 95.25194 
L 201.509014 95.028267 
L 201.75192 95.028267 
L 201.759826 94.692758 
L 201.936763 94.692758 
L 201.936763 94.580921 
L 202.077013 94.580921 
L 202.077013 94.469085 
L 202.243047 94.469085 
L 202.243047 94.357248 
L 202.828574 94.357248 
L 202.828574 94.245412 
L 203.418643 94.245412 
L 203.418643 94.133576 
L 204.181503 94.133576 
L 204.181503 94.021739 
L 204.844811 94.021739 
L 204.844811 93.909903 
L 205.638707 93.909903 
L 205.638707 93.798066 
L 205.88607 93.798066 
L 205.88607 93.68623 
L 206.463807 93.68623 
L 206.463807 93.574393 
L 206.826683 93.574393 
L 206.826683 93.462557 
L 207.288397 93.462557 
L 207.394084 93.238884 
L 207.40547 93.238884 
L 207.411161 93.015211 
L 208.168039 93.015211 
L 208.173483 92.791538 
L 208.843332 92.791538 
L 208.851182 92.567865 
L 209.048872 92.567865 
L 209.048872 92.456029 
L 209.859641 92.456029 
L 209.859641 92.344192 
L 210.544028 92.344192 
L 210.551139 92.120519 
L 210.977126 92.120519 
L 211.05785 91.561337 
L 212.123968 91.561337 
L 212.123968 91.449501 
L 212.605898 91.449501 
L 212.610104 91.113991 
L 212.992639 91.113991 
L 213.089002 90.778482 
L 213.893813 90.778482 
L 213.913312 90.554809 
L 214.018226 90.554809 
L 214.027908 90.331136 
L 214.336789 90.331136 
L 214.336789 90.2193 
L 214.544678 90.2193 
L 214.544678 90.107463 
L 214.766781 90.107463 
L 214.766781 89.88379 
L 214.954897 89.88379 
L 215.009836 89.548281 
L 217.181407 89.548281 
L 217.181407 89.436445 
L 218.720185 89.436445 
L 218.730496 89.100935 
L 218.856667 89.100935 
L 218.856667 88.989099 
L 219.566812 88.989099 
L 219.645177 88.765426 
L 219.696379 88.765426 
L 219.696379 88.65359 
L 220.024904 88.65359 
L 220.024904 88.541753 
L 220.316046 88.541753 
L 220.316046 88.429917 
L 220.435137 88.429917 
L 220.435137 88.31808 
L 220.737822 88.31808 
L 220.737822 88.206244 
L 221.598961 88.206244 
L 221.598961 88.094407 
L 222.477127 88.094407 
L 222.477127 87.982571 
L 224.055413 87.982571 
L 224.055413 87.758898 
L 224.374343 87.758898 
L 224.374343 87.647062 
L 224.74671 87.647062 
L 224.74671 87.535225 
L 224.89137 87.535225 
L 224.89137 87.423389 
L 225.423251 87.423389 
L 225.423251 87.311552 
L 225.571254 87.311552 
L 225.654133 87.087879 
L 226.458844 87.087879 
L 226.458844 86.976043 
L 226.930402 86.976043 
L 226.930402 86.864206 
L 227.485195 86.864206 
L 227.485195 86.75237 
L 227.752098 86.75237 
L 227.752098 86.640533 
L 227.965945 86.640533 
L 227.965945 86.528697 
L 228.08777 86.528697 
L 228.08777 86.416861 
L 228.452026 86.416861 
L 228.481276 86.081351 
L 228.5756 86.081351 
L 228.5756 85.969515 
L 228.696343 85.969515 
L 228.781741 85.745842 
L 228.88645 85.745842 
L 228.972682 85.522169 
L 229.11652 85.522169 
L 229.205611 85.18666 
L 229.23862 85.18666 
L 229.267143 84.962987 
L 229.433056 84.962987 
L 229.433056 84.85115 
L 229.564059 84.85115 
L 229.564059 84.739314 
L 229.687915 84.739314 
L 229.793664 84.403805 
L 229.993429 84.403805 
L 229.994959 84.068295 
L 230.366344 84.068295 
L 230.37906 83.844622 
L 230.80225 83.844622 
L 230.864149 83.620949 
L 231.051396 83.620949 
L 231.051396 83.509113 
L 231.952744 83.509113 
L 232.013362 83.28544 
L 232.69585 83.28544 
L 232.69585 83.173604 
L 232.854553 83.173604 
L 232.892709 82.949931 
L 232.976483 82.949931 
L 232.976483 82.838094 
L 233.105213 82.838094 
L 233.201291 82.614421 
L 233.53495 82.614421 
L 233.53495 82.502585 
L 234.086692 82.502585 
L 234.086692 82.390748 
L 234.992861 82.390748 
L 235.088639 82.167076 
L 235.578477 82.167076 
L 235.65786 81.943403 
L 235.719898 81.943403 
L 235.719898 81.831566 
L 236.141588 81.831566 
L 236.141588 81.71973 
L 237.150895 81.71973 
L 237.150895 81.607893 
L 237.37831 81.607893 
L 237.37831 81.496057 
L 238.382912 81.496057 
L 238.382912 81.38422 
L 240.026663 81.38422 
L 240.073714 81.160548 
L 240.1677 81.160548 
L 240.1677 81.048711 
L 241.349642 81.048711 
L 241.349642 80.936875 
L 241.606412 80.936875 
L 241.606412 80.825038 
L 241.985848 80.825038 
L 242.01513 80.601365 
L 243.437944 80.601365 
L 243.437944 80.489529 
L 244.087295 80.489529 
L 244.16995 80.265856 
L 244.40465 80.265856 
L 244.40465 80.15402 
L 244.524586 80.15402 
L 244.556078 79.930347 
L 244.640755 79.930347 
L 244.640755 79.81851 
L 244.829203 79.81851 
L 244.883954 79.594837 
L 244.947183 79.594837 
L 244.982068 79.371164 
L 245.07899 79.371164 
L 245.127247 79.147491 
L 247.22878 79.147491 
L 247.22878 79.035655 
L 247.570161 79.035655 
L 247.570161 78.923819 
L 247.779554 78.923819 
L 247.797206 78.700146 
L 248.132646 78.700146 
L 248.168808 78.364636 
L 248.835171 78.364636 
L 248.835171 78.2528 
L 249.299752 78.2528 
L 249.378906 78.029127 
L 251.312088 78.029127 
L 251.312088 77.917291 
L 254.023336 77.917291 
L 254.023336 77.805454 
L 254.57773 77.805454 
L 254.57773 77.693618 
L 255.937418 77.693618 
L 255.937418 77.581781 
L 256.699998 77.581781 
L 256.743923 77.358108 
L 257.792986 77.358108 
L 257.862492 77.134435 
L 259.124773 77.134435 
L 259.166429 76.910763 
L 259.933118 76.910763 
L 259.933118 76.798926 
L 260.50455 76.798926 
L 260.50455 76.68709 
L 261.066251 76.68709 
L 261.066251 76.575253 
L 261.52881 76.575253 
L 261.52881 76.463417 
L 261.983527 76.463417 
L 261.983527 76.35158 
L 262.191305 76.35158 
L 262.191305 76.239744 
L 262.738185 76.239744 
L 262.738185 76.127907 
L 265.278734 76.127907 
L 265.278734 76.016071 
L 268.36521 76.016071 
L 268.36521 75.904234 
L 270.935002 75.904234 
L 270.935002 75.792398 
L 272.416851 75.792398 
L 272.416851 75.680562 
L 273.219023 75.680562 
L 273.219023 75.568725 
L 274.142751 75.568725 
L 274.142751 75.456889 
L 274.384056 75.456889 
L 274.384056 75.345052 
L 282.325374 75.345052 
L 282.325374 75.233216 
L 286.0084 75.233216 
L 286.0084 75.121379 
L 286.672415 75.121379 
L 286.672415 75.009543 
L 287.473363 75.009543 
L 287.473363 74.897706 
L 288.085123 74.897706 
L 288.085123 74.78587 
L 292.427694 74.78587 
L 292.463282 74.562197 
L 333.168 74.562197 
L 333.168 74.562197 
" style="fill:none;stroke:#000080;stroke-linecap:square;stroke-width:1.5;"/>
   </g>
   <g id="line2d_44">
    <defs>
     <path d="M 0 6 
C 1.591219 6 3.117479 5.367802 4.242641 4.242641 
C 5.367802 3.117479 6 1.591219 6 0 
C 6 -1.591219 5.367802 -3.117479 4.242641 -4.242641 
C 3.117479 -5.367802 1.591219 -6 0 -6 
C -1.591219 -6 -3.117479 -5.367802 -4.242641 -4.242641 
C -5.367802 -3.117479 -6 -1.591219 -6 0 
C -6 1.591219 -5.367802 3.117479 -4.242641 4.242641 
C -3.117479 5.367802 -1.591219 6 0 6 
z
" id="m99814f7c4a" style="stroke:#000080;stroke-width:1.5;"/>
    </defs>
    <g>
     <use style="fill:none;stroke:#000080;stroke-width:1.5;" x="105.512642" xlink:href="#m99814f7c4a" y="276.31515"/>
     <use style="fill:none;stroke:#000080;stroke-width:1.5;" x="153.410726" xlink:href="#m99814f7c4a" y="133.835515"/>
     <use style="fill:none;stroke:#000080;stroke-width:1.5;" x="219.696379" xlink:href="#m99814f7c4a" y="88.765426"/>
     <use style="fill:none;stroke:#000080;stroke-width:1.5;" x="292.463282" xlink:href="#m99814f7c4a" y="74.562197"/>
     <use style="fill:none;stroke:#000080;stroke-width:1.5;" x="292.463282" xlink:href="#m99814f7c4a" y="74.562197"/>
     <use style="fill:none;stroke:#000080;stroke-width:1.5;" x="333.168" xlink:href="#m99814f7c4a" y="74.562197"/>
    </g>
   </g>
   <g id="line2d_45">
    <path style="fill:none;stroke:#000080;stroke-linecap:square;stroke-width:1.5;"/>
    <g/>
   </g>
   <g id="line2d_46">
    <path clip-path="url(#p966f4c02f6)" d="M 214.684824 90.107463 
" style="fill:none;stroke:#000080;stroke-linecap:square;stroke-width:1.5;"/>
    <defs>
     <path d="M -12 12 
L 12 -12 
M -12 -12 
L 12 12 
" id="m0a462cd09f" style="stroke:#000080;"/>
    </defs>
    <g clip-path="url(#p966f4c02f6)">
     <use style="fill:#000080;stroke:#000080;" x="214.684824" xlink:href="#m0a462cd09f" y="90.107463"/>
    </g>
   </g>
   <g id="line2d_47">
    <defs>
     <path d="M 0 1.5 
C 0.397805 1.5 0.77937 1.341951 1.06066 1.06066 
C 1.341951 0.77937 1.5 0.397805 1.5 0 
C 1.5 -0.397805 1.341951 -0.77937 1.06066 -1.06066 
C 0.77937 -1.341951 0.397805 -1.5 0 -1.5 
C -0.397805 -1.5 -0.77937 -1.341951 -1.06066 -1.06066 
C -1.341951 -0.77937 -1.5 -0.397805 -1.5 0 
C -1.5 0.397805 -1.341951 0.77937 -1.06066 1.06066 
C -0.77937 1.341951 -0.397805 1.5 0 1.5 
z
" id="m599845b3e5" style="stroke:#ff00ff;"/>
    </defs>
    <g>
     <use style="fill:#ff00ff;stroke:#ff00ff;" x="199.957205" xlink:href="#m599845b3e5" y="280.341262"/>
     <use style="fill:#ff00ff;stroke:#ff00ff;" x="199.957205" xlink:href="#m599845b3e5" y="280.341262"/>
    </g>
   </g>
   <g id="line2d_48">
    <path d="M 16.541714 294.88 
L 16.541714 292.419598 
L 97.492092 292.419598 
L 97.492092 292.307762 
L 99.533818 292.307762 
L 99.533818 292.195925 
L 100.856673 292.195925 
L 100.856673 292.084089 
L 101.109451 292.084089 
L 101.109451 291.860416 
L 101.481783 291.860416 
L 101.481783 291.748579 
L 101.725597 291.748579 
L 101.725597 291.636743 
L 101.84622 291.636743 
L 101.84622 291.524907 
L 102.20309 291.524907 
L 102.20309 291.41307 
L 102.320419 291.41307 
L 102.320419 291.301234 
L 102.552701 291.301234 
L 102.552701 291.189397 
L 102.895343 291.189397 
L 102.895343 291.077561 
L 103.008056 291.077561 
L 103.008056 290.965724 
L 103.451658 290.965724 
L 103.451658 290.853888 
L 103.669239 290.853888 
L 103.669239 290.742051 
L 103.990531 290.742051 
L 103.990531 290.630215 
L 104.201437 290.630215 
L 104.305927 290.294706 
L 104.513022 290.294706 
L 104.513022 290.182869 
L 104.717651 290.182869 
L 104.819059 289.959196 
L 104.919872 289.959196 
L 104.919872 289.84736 
L 105.119742 289.84736 
L 105.119742 289.51185 
L 105.512642 289.51185 
L 105.60948 289.288178 
L 105.801534 289.288178 
L 105.896762 289.064505 
L 107.783569 289.064505 
L 107.783569 288.952668 
L 108.6141 288.952668 
L 108.6141 288.840832 
L 109.17248 288.840832 
L 109.17248 288.728995 
L 111.100812 288.728995 
L 111.100812 288.617159 
L 111.310007 288.617159 
L 111.310007 288.505322 
L 111.855724 288.505322 
L 111.855724 288.393486 
L 112.055982 288.393486 
L 112.055982 288.28165 
L 112.57887 288.28165 
L 112.57887 288.169813 
L 112.770924 288.169813 
L 112.834468 287.94614 
L 112.897778 287.94614 
L 112.897778 287.834304 
L 113.880253 287.834304 
L 113.880253 287.722467 
L 115.637457 287.722467 
L 115.637457 287.610631 
L 117.37827 287.610631 
L 117.37827 287.498794 
L 117.715785 287.498794 
L 117.715785 287.386958 
L 117.85843 287.386958 
L 117.85843 287.275122 
L 117.999901 287.275122 
L 117.999901 287.163285 
L 118.869818 287.163285 
L 118.869818 287.051449 
L 122.874172 287.051449 
L 122.874172 286.939612 
L 126.119664 286.939612 
L 126.119664 286.827776 
L 128.056122 286.827776 
L 128.056122 286.715939 
L 128.212383 286.715939 
L 128.212383 286.604103 
L 128.367236 286.604103 
L 128.367236 286.492266 
L 130.193648 286.492266 
L 130.193648 286.38043 
L 130.445921 286.38043 
L 130.536746 286.156757 
L 131.289977 286.156757 
L 131.311639 285.933084 
L 134.213018 285.933084 
L 134.213018 285.821248 
L 135.345189 285.821248 
L 135.345189 285.709411 
L 135.549413 285.709411 
L 135.549413 285.597575 
L 136.261911 285.597575 
L 136.261911 285.485738 
L 137.422898 285.485738 
L 137.422898 285.373902 
L 137.753459 285.373902 
L 137.753459 285.262065 
L 138.324271 285.262065 
L 138.324271 285.150229 
L 138.7227 285.150229 
L 138.7227 285.038393 
L 139.49288 285.038393 
L 139.49288 284.926556 
L 140.15254 284.926556 
L 140.15254 284.81472 
L 140.998571 284.81472 
L 141.035496 284.591047 
L 141.828403 284.591047 
L 141.828403 284.47921 
L 142.608796 284.47921 
L 142.664803 284.255537 
L 143.494384 284.255537 
L 143.494384 284.143701 
L 144.346715 284.143701 
L 144.346715 284.031865 
L 148.55342 284.031865 
L 148.569291 283.808192 
L 150.580595 283.808192 
L 150.580595 283.696355 
L 152.937447 283.696355 
L 152.937447 283.584519 
L 155.242663 283.584519 
L 155.242663 283.472682 
L 155.387309 283.472682 
L 155.387309 283.360846 
L 155.514869 283.360846 
L 155.514869 283.249009 
L 155.767184 283.249009 
L 155.767184 283.137173 
L 156.602341 283.137173 
L 156.602341 283.025336 
L 160.633594 283.025336 
L 160.633594 282.9135 
L 166.69067 282.9135 
L 166.729321 282.689827 
L 168.175218 282.689827 
L 168.175218 282.577991 
L 169.393531 282.577991 
L 169.393531 282.466154 
L 169.669979 282.466154 
L 169.669979 282.354318 
L 169.987742 282.354318 
L 169.987742 282.242481 
L 172.704391 282.242481 
L 172.704391 282.130645 
L 173.339238 282.130645 
L 173.339238 282.018808 
L 173.655453 282.018808 
L 173.655453 281.906972 
L 174.034603 281.906972 
L 174.034603 281.795136 
L 175.980829 281.795136 
L 175.980829 281.683299 
L 176.804357 281.683299 
L 176.804357 281.571463 
L 176.958653 281.571463 
L 176.958653 281.459626 
L 177.20628 281.459626 
L 177.20628 281.34779 
L 179.400202 281.34779 
L 179.508059 281.01228 
L 181.68503 281.01228 
L 181.68503 280.900444 
L 186.107673 280.900444 
L 186.107673 280.788608 
L 190.548859 280.788608 
L 190.548859 280.676771 
L 190.918037 280.676771 
L 190.918037 280.564935 
L 196.060414 280.564935 
L 196.060414 280.453098 
L 199.957205 280.453098 
L 199.957205 280.341262 
L 333.168 280.341262 
L 333.168 280.341262 
" style="fill:none;stroke:#ff00ff;stroke-linecap:square;stroke-width:1.5;"/>
   </g>
   <g id="line2d_49">
    <defs>
     <path d="M -0 8.485281 
L 5.091169 0 
L 0 -8.485281 
L -5.091169 -0 
z
" id="mb2d97e1e4a" style="stroke:#ff00ff;stroke-linejoin:miter;stroke-width:1.5;"/>
    </defs>
    <g>
     <use style="fill:none;stroke:#ff00ff;stroke-linejoin:miter;stroke-width:1.5;" x="97.492092" xlink:href="#mb2d97e1e4a" y="292.419598"/>
     <use style="fill:none;stroke:#ff00ff;stroke-linejoin:miter;stroke-width:1.5;" x="160.633594" xlink:href="#mb2d97e1e4a" y="283.025336"/>
     <use style="fill:none;stroke:#ff00ff;stroke-linejoin:miter;stroke-width:1.5;" x="199.957205" xlink:href="#mb2d97e1e4a" y="280.453098"/>
     <use style="fill:none;stroke:#ff00ff;stroke-linejoin:miter;stroke-width:1.5;" x="199.957205" xlink:href="#mb2d97e1e4a" y="280.341262"/>
     <use style="fill:none;stroke:#ff00ff;stroke-linejoin:miter;stroke-width:1.5;" x="199.957205" xlink:href="#mb2d97e1e4a" y="280.341262"/>
     <use style="fill:none;stroke:#ff00ff;stroke-linejoin:miter;stroke-width:1.5;" x="333.168" xlink:href="#mb2d97e1e4a" y="280.341262"/>
    </g>
   </g>
   <g id="line2d_50">
    <path style="fill:none;stroke:#ff00ff;stroke-linecap:square;stroke-width:1.5;"/>
    <g/>
   </g>
   <g id="line2d_51">
    <path clip-path="url(#p966f4c02f6)" d="M 147.190823 284.031865 
" style="fill:none;stroke:#ff00ff;stroke-linecap:square;stroke-width:1.5;"/>
    <defs>
     <path d="M -12 12 
L 12 -12 
M -12 -12 
L 12 12 
" id="mac0a93fd3c" style="stroke:#ff00ff;"/>
    </defs>
    <g clip-path="url(#p966f4c02f6)">
     <use style="fill:#ff00ff;stroke:#ff00ff;" x="147.190823" xlink:href="#mac0a93fd3c" y="284.031865"/>
    </g>
   </g>
   <g id="line2d_52">
    <path d="M 333.168 280.341262 
L 363.64328 289.176341 
" style="fill:none;stroke:#ff00ff;stroke-linecap:square;stroke-width:1.5;"/>
    <g>
     <use style="fill:none;stroke:#ff00ff;stroke-linejoin:miter;stroke-width:1.5;" x="333.168" xlink:href="#mb2d97e1e4a" y="280.341262"/>
     <use style="fill:none;stroke:#ff00ff;stroke-linejoin:miter;stroke-width:1.5;" x="363.64328" xlink:href="#mb2d97e1e4a" y="289.176341"/>
    </g>
   </g>
   <g id="line2d_53">
    <path d="M 333.168 74.562197 
L 363.64328 152.288529 
" style="fill:none;stroke:#000080;stroke-linecap:square;stroke-width:1.5;"/>
    <g>
     <use style="fill:none;stroke:#000080;stroke-width:1.5;" x="333.168" xlink:href="#m99814f7c4a" y="74.562197"/>
     <use style="fill:none;stroke:#000080;stroke-width:1.5;" x="363.64328" xlink:href="#m99814f7c4a" y="152.288529"/>
    </g>
   </g>
   <g id="line2d_54">
    <path d="M 333.168 294.88 
L 333.168 9.697057 
" style="fill:none;stroke:#000000;stroke-linecap:square;stroke-width:1.5;"/>
   </g>
   <g id="patch_3">
    <path d="M 56.12 294.88 
L 56.12 6.845228 
" style="fill:none;stroke:#000000;stroke-linecap:square;stroke-linejoin:miter;stroke-width:0.8;"/>
   </g>
   <g id="patch_4">
    <path d="M 333.168 294.88 
L 333.168 6.845228 
" style="fill:none;stroke:#000000;stroke-linecap:square;stroke-linejoin:miter;stroke-width:0.8;"/>
   </g>
   <g id="patch_5">
    <path d="M 56.12 294.88 
L 333.168 294.88 
" style="fill:none;stroke:#000000;stroke-linecap:square;stroke-linejoin:miter;stroke-width:0.8;"/>
   </g>
   <g id="patch_6">
    <path d="M 56.12 6.845228 
L 333.168 6.845228 
" style="fill:none;stroke:#000000;stroke-linecap:square;stroke-linejoin:miter;stroke-width:0.8;"/>
   </g>
   <g id="text_13">
    <!-- scipy-opt -->
    <defs>
     <path d="M 32.171875 -5.078125 
Q 28.375 -14.84375 24.75 -17.8125 
Q 21.140625 -20.796875 15.09375 -20.796875 
L 7.90625 -20.796875 
L 7.90625 -13.28125 
L 13.1875 -13.28125 
Q 16.890625 -13.28125 18.9375 -11.515625 
Q 21 -9.765625 23.484375 -3.21875 
L 25.09375 0.875 
L 2.984375 54.6875 
L 12.5 54.6875 
L 29.59375 11.921875 
L 46.6875 54.6875 
L 56.203125 54.6875 
z
" id="DejaVuSans-79"/>
    </defs>
    <g transform="translate(369.18424 293.867279)scale(0.17 -0.17)">
     <use xlink:href="#DejaVuSans-73"/>
     <use x="52.099609" xlink:href="#DejaVuSans-63"/>
     <use x="107.080078" xlink:href="#DejaVuSans-69"/>
     <use x="134.863281" xlink:href="#DejaVuSans-70"/>
     <use x="198.339844" xlink:href="#DejaVuSans-79"/>
     <use x="257.503906" xlink:href="#DejaVuSans-2d"/>
     <use x="293.603516" xlink:href="#DejaVuSans-6f"/>
     <use x="354.785156" xlink:href="#DejaVuSans-70"/>
     <use x="418.261719" xlink:href="#DejaVuSans-74"/>
    </g>
   </g>
   <g id="text_14">
    <!-- BFGS ros  -->
    <defs>
     <path d="M 19.671875 34.8125 
L 19.671875 8.109375 
L 35.5 8.109375 
Q 43.453125 8.109375 47.28125 11.40625 
Q 51.125 14.703125 51.125 21.484375 
Q 51.125 28.328125 47.28125 31.5625 
Q 43.453125 34.8125 35.5 34.8125 
z
M 19.671875 64.796875 
L 19.671875 42.828125 
L 34.28125 42.828125 
Q 41.5 42.828125 45.03125 45.53125 
Q 48.578125 48.25 48.578125 53.8125 
Q 48.578125 59.328125 45.03125 62.0625 
Q 41.5 64.796875 34.28125 64.796875 
z
M 9.8125 72.90625 
L 35.015625 72.90625 
Q 46.296875 72.90625 52.390625 68.21875 
Q 58.5 63.53125 58.5 54.890625 
Q 58.5 48.1875 55.375 44.234375 
Q 52.25 40.28125 46.1875 39.3125 
Q 53.46875 37.75 57.5 32.78125 
Q 61.53125 27.828125 61.53125 20.40625 
Q 61.53125 10.640625 54.890625 5.3125 
Q 48.25 0 35.984375 0 
L 9.8125 0 
z
" id="DejaVuSans-42"/>
     <path d="M 59.515625 10.40625 
L 59.515625 29.984375 
L 43.40625 29.984375 
L 43.40625 38.09375 
L 69.28125 38.09375 
L 69.28125 6.78125 
Q 63.578125 2.734375 56.6875 0.65625 
Q 49.8125 -1.421875 42 -1.421875 
Q 24.90625 -1.421875 15.25 8.5625 
Q 5.609375 18.5625 5.609375 36.375 
Q 5.609375 54.25 15.25 64.234375 
Q 24.90625 74.21875 42 74.21875 
Q 49.125 74.21875 55.546875 72.453125 
Q 61.96875 70.703125 67.390625 67.28125 
L 67.390625 56.78125 
Q 61.921875 61.421875 55.765625 63.765625 
Q 49.609375 66.109375 42.828125 66.109375 
Q 29.4375 66.109375 22.71875 58.640625 
Q 16.015625 51.171875 16.015625 36.375 
Q 16.015625 21.625 22.71875 14.15625 
Q 29.4375 6.6875 42.828125 6.6875 
Q 48.046875 6.6875 52.140625 7.59375 
Q 56.25 8.5 59.515625 10.40625 
z
" id="DejaVuSans-47"/>
     <path d="M 53.515625 70.515625 
L 53.515625 60.890625 
Q 47.90625 63.578125 42.921875 64.890625 
Q 37.9375 66.21875 33.296875 66.21875 
Q 25.25 66.21875 20.875 63.09375 
Q 16.5 59.96875 16.5 54.203125 
Q 16.5 49.359375 19.40625 46.890625 
Q 22.3125 44.4375 30.421875 42.921875 
L 36.375 41.703125 
Q 47.40625 39.59375 52.65625 34.296875 
Q 57.90625 29 57.90625 20.125 
Q 57.90625 9.515625 50.796875 4.046875 
Q 43.703125 -1.421875 29.984375 -1.421875 
Q 24.8125 -1.421875 18.96875 -0.25 
Q 13.140625 0.921875 6.890625 3.21875 
L 6.890625 13.375 
Q 12.890625 10.015625 18.65625 8.296875 
Q 24.421875 6.59375 29.984375 6.59375 
Q 38.421875 6.59375 43.015625 9.90625 
Q 47.609375 13.234375 47.609375 19.390625 
Q 47.609375 24.75 44.3125 27.78125 
Q 41.015625 30.8125 33.5 32.328125 
L 27.484375 33.5 
Q 16.453125 35.6875 11.515625 40.375 
Q 6.59375 45.0625 6.59375 53.421875 
Q 6.59375 63.09375 13.40625 68.65625 
Q 20.21875 74.21875 32.171875 74.21875 
Q 37.3125 74.21875 42.625 73.28125 
Q 47.953125 72.359375 53.515625 70.515625 
z
" id="DejaVuSans-53"/>
    </defs>
    <g transform="translate(369.18424 156.979466)scale(0.17 -0.17)">
     <use xlink:href="#DejaVuSans-42"/>
     <use x="68.603516" xlink:href="#DejaVuSans-46"/>
     <use x="126.123047" xlink:href="#DejaVuSans-47"/>
     <use x="203.613281" xlink:href="#DejaVuSans-53"/>
     <use x="267.089844" xlink:href="#DejaVuSans-20"/>
     <use x="298.876953" xlink:href="#DejaVuSans-72"/>
     <use x="339.958984" xlink:href="#DejaVuSans-6f"/>
     <use x="401.140625" xlink:href="#DejaVuSans-73"/>
     <use x="453.240234" xlink:href="#DejaVuSans-20"/>
    </g>
   </g>
   <g id="text_15">
    <!-- best 2009 -->
    <defs>
     <path d="M 48.6875 27.296875 
Q 48.6875 37.203125 44.609375 42.84375 
Q 40.53125 48.484375 33.40625 48.484375 
Q 26.265625 48.484375 22.1875 42.84375 
Q 18.109375 37.203125 18.109375 27.296875 
Q 18.109375 17.390625 22.1875 11.75 
Q 26.265625 6.109375 33.40625 6.109375 
Q 40.53125 6.109375 44.609375 11.75 
Q 48.6875 17.390625 48.6875 27.296875 
z
M 18.109375 46.390625 
Q 20.953125 51.265625 25.265625 53.625 
Q 29.59375 56 35.59375 56 
Q 45.5625 56 51.78125 48.09375 
Q 58.015625 40.1875 58.015625 27.296875 
Q 58.015625 14.40625 51.78125 6.484375 
Q 45.5625 -1.421875 35.59375 -1.421875 
Q 29.59375 -1.421875 25.265625 0.953125 
Q 20.953125 3.328125 18.109375 8.203125 
L 18.109375 0 
L 9.078125 0 
L 9.078125 75.984375 
L 18.109375 75.984375 
z
" id="DejaVuSans-62"/>
     <path d="M 10.984375 1.515625 
L 10.984375 10.5 
Q 14.703125 8.734375 18.5 7.8125 
Q 22.3125 6.890625 25.984375 6.890625 
Q 35.75 6.890625 40.890625 13.453125 
Q 46.046875 20.015625 46.78125 33.40625 
Q 43.953125 29.203125 39.59375 26.953125 
Q 35.25 24.703125 29.984375 24.703125 
Q 19.046875 24.703125 12.671875 31.3125 
Q 6.296875 37.9375 6.296875 49.421875 
Q 6.296875 60.640625 12.9375 67.421875 
Q 19.578125 74.21875 30.609375 74.21875 
Q 43.265625 74.21875 49.921875 64.515625 
Q 56.59375 54.828125 56.59375 36.375 
Q 56.59375 19.140625 48.40625 8.859375 
Q 40.234375 -1.421875 26.421875 -1.421875 
Q 22.703125 -1.421875 18.890625 -0.6875 
Q 15.09375 0.046875 10.984375 1.515625 
z
M 30.609375 32.421875 
Q 37.25 32.421875 41.125 36.953125 
Q 45.015625 41.5 45.015625 49.421875 
Q 45.015625 57.28125 41.125 61.84375 
Q 37.25 66.40625 30.609375 66.40625 
Q 23.96875 66.40625 20.09375 61.84375 
Q 16.21875 57.28125 16.21875 49.421875 
Q 16.21875 41.5 20.09375 36.953125 
Q 23.96875 32.421875 30.609375 32.421875 
z
" id="DejaVuSans-39"/>
    </defs>
    <g transform="translate(369.18424 20.091654)scale(0.17 -0.17)">
     <use xlink:href="#DejaVuSans-62"/>
     <use x="63.476562" xlink:href="#DejaVuSans-65"/>
     <use x="125" xlink:href="#DejaVuSans-73"/>
     <use x="177.099609" xlink:href="#DejaVuSans-74"/>
     <use x="216.308594" xlink:href="#DejaVuSans-20"/>
     <use x="248.095703" xlink:href="#DejaVuSans-32"/>
     <use x="311.71875" xlink:href="#DejaVuSans-30"/>
     <use x="375.341797" xlink:href="#DejaVuSans-30"/>
     <use x="438.964844" xlink:href="#DejaVuSans-39"/>
    </g>
   </g>
   <g id="text_16">
    <!-- bbob f10-f14, 10-D -->
    <defs>
     <path d="M 19.671875 64.796875 
L 19.671875 8.109375 
L 31.59375 8.109375 
Q 46.6875 8.109375 53.6875 14.9375 
Q 60.6875 21.78125 60.6875 36.53125 
Q 60.6875 51.171875 53.6875 57.984375 
Q 46.6875 64.796875 31.59375 64.796875 
z
M 9.8125 72.90625 
L 30.078125 72.90625 
Q 51.265625 72.90625 61.171875 64.09375 
Q 71.09375 55.28125 71.09375 36.53125 
Q 71.09375 17.671875 61.125 8.828125 
Q 51.171875 0 30.078125 0 
L 9.8125 0 
z
" id="DejaVuSans-44"/>
    </defs>
    <g transform="translate(58.89048 17.475982)scale(0.102 -0.102)">
     <use xlink:href="#DejaVuSans-62"/>
     <use x="63.476562" xlink:href="#DejaVuSans-62"/>
     <use x="126.953125" xlink:href="#DejaVuSans-6f"/>
     <use x="188.134766" xlink:href="#DejaVuSans-62"/>
     <use x="251.611328" xlink:href="#DejaVuSans-20"/>
     <use x="283.398438" xlink:href="#DejaVuSans-66"/>
     <use x="318.603516" xlink:href="#DejaVuSans-31"/>
     <use x="382.226562" xlink:href="#DejaVuSans-30"/>
     <use x="445.849609" xlink:href="#DejaVuSans-2d"/>
     <use x="481.933594" xlink:href="#DejaVuSans-66"/>
     <use x="517.138672" xlink:href="#DejaVuSans-31"/>
     <use x="580.761719" xlink:href="#DejaVuSans-34"/>
     <use x="644.384766" xlink:href="#DejaVuSans-2c"/>
     <use x="676.171875" xlink:href="#DejaVuSans-20"/>
     <use x="707.958984" xlink:href="#DejaVuSans-31"/>
     <use x="771.582031" xlink:href="#DejaVuSans-30"/>
     <use x="835.205078" xlink:href="#DejaVuSans-2d"/>
     <use x="871.289062" xlink:href="#DejaVuSans-44"/>
    </g>
    <!-- 51 targets: 100..1e-08 -->
    <defs>
     <path d="M 10.796875 72.90625 
L 49.515625 72.90625 
L 49.515625 64.59375 
L 19.828125 64.59375 
L 19.828125 46.734375 
Q 21.96875 47.46875 24.109375 47.828125 
Q 26.265625 48.1875 28.421875 48.1875 
Q 40.625 48.1875 47.75 41.5 
Q 54.890625 34.8125 54.890625 23.390625 
Q 54.890625 11.625 47.5625 5.09375 
Q 40.234375 -1.421875 26.90625 -1.421875 
Q 22.3125 -1.421875 17.546875 -0.640625 
Q 12.796875 0.140625 7.71875 1.703125 
L 7.71875 11.625 
Q 12.109375 9.234375 16.796875 8.0625 
Q 21.484375 6.890625 26.703125 6.890625 
Q 35.15625 6.890625 40.078125 11.328125 
Q 45.015625 15.765625 45.015625 23.390625 
Q 45.015625 31 40.078125 35.4375 
Q 35.15625 39.890625 26.703125 39.890625 
Q 22.75 39.890625 18.8125 39.015625 
Q 14.890625 38.140625 10.796875 36.28125 
z
" id="DejaVuSans-35"/>
     <path d="M 11.71875 12.40625 
L 22.015625 12.40625 
L 22.015625 0 
L 11.71875 0 
z
M 11.71875 51.703125 
L 22.015625 51.703125 
L 22.015625 39.3125 
L 11.71875 39.3125 
z
" id="DejaVuSans-3a"/>
    </defs>
    <g transform="translate(58.89048 28.89775)scale(0.102 -0.102)">
     <use xlink:href="#DejaVuSans-35"/>
     <use x="63.623047" xlink:href="#DejaVuSans-31"/>
     <use x="127.246094" xlink:href="#DejaVuSans-20"/>
     <use x="159.033203" xlink:href="#DejaVuSans-74"/>
     <use x="198.242188" xlink:href="#DejaVuSans-61"/>
     <use x="259.521484" xlink:href="#DejaVuSans-72"/>
     <use x="300.619141" xlink:href="#DejaVuSans-67"/>
     <use x="364.095703" xlink:href="#DejaVuSans-65"/>
     <use x="425.619141" xlink:href="#DejaVuSans-74"/>
     <use x="464.828125" xlink:href="#DejaVuSans-73"/>
     <use x="516.927734" xlink:href="#DejaVuSans-3a"/>
     <use x="550.619141" xlink:href="#DejaVuSans-20"/>
     <use x="582.40625" xlink:href="#DejaVuSans-31"/>
     <use x="646.029297" xlink:href="#DejaVuSans-30"/>
     <use x="709.652344" xlink:href="#DejaVuSans-30"/>
     <use x="773.275391" xlink:href="#DejaVuSans-2e"/>
     <use x="805.0625" xlink:href="#DejaVuSans-2e"/>
     <use x="836.849609" xlink:href="#DejaVuSans-31"/>
     <use x="900.472656" xlink:href="#DejaVuSans-65"/>
     <use x="961.996094" xlink:href="#DejaVuSans-2d"/>
     <use x="998.080078" xlink:href="#DejaVuSans-30"/>
     <use x="1061.703125" xlink:href="#DejaVuSans-38"/>
    </g>
    <!-- 15 instances -->
    <g transform="translate(58.89048 40.319519)scale(0.102 -0.102)">
     <use xlink:href="#DejaVuSans-31"/>
     <use x="63.623047" xlink:href="#DejaVuSans-35"/>
     <use x="127.246094" xlink:href="#DejaVuSans-20"/>
     <use x="159.033203" xlink:href="#DejaVuSans-69"/>
     <use x="186.816406" xlink:href="#DejaVuSans-6e"/>
     <use x="250.195312" xlink:href="#DejaVuSans-73"/>
     <use x="302.294922" xlink:href="#DejaVuSans-74"/>
     <use x="341.503906" xlink:href="#DejaVuSans-61"/>
     <use x="402.783203" xlink:href="#DejaVuSans-6e"/>
     <use x="466.162109" xlink:href="#DejaVuSans-63"/>
     <use x="521.142578" xlink:href="#DejaVuSans-65"/>
     <use x="582.666016" xlink:href="#DejaVuSans-73"/>
    </g>
   </g>
   <g id="text_17">
    <!-- v0.0.0 -->
    <g style="fill:#808080;" transform="translate(178.96275 289.919965)scale(0.1 -0.1)">
     <use xlink:href="#DejaVuSans-76"/>
     <use x="59.179688" xlink:href="#DejaVuSans-30"/>
     <use x="122.802734" xlink:href="#DejaVuSans-2e"/>
     <use x="154.589844" xlink:href="#DejaVuSans-30"/>
     <use x="218.212891" xlink:href="#DejaVuSans-2e"/>
     <use x="250" xlink:href="#DejaVuSans-30"/>
    </g>
   </g>
  </g>
 </g>
 <defs>
  <clipPath id="p966f4c02f6">
   <rect height="288.034772" width="277.048" x="56.12" y="6.845228"/>
  </clipPath>
 </defs>
</svg>
