<?xml version="1.0" encoding="utf-8" standalone="no"?>
<!DOCTYPE svg PUBLIC "-//W3C//DTD SVG 1.1//EN"
  "http://www.w3.org/Graphics/SVG/1.1/DTD/svg11.dtd">
<!-- Created with matplotlib (http://matplotlib.org/) -->
<svg height="345pt" version="1.1" viewBox="0 0 460 345" width="460pt" xmlns="http://www.w3.org/2000/svg" xmlns:xlink="http://www.w3.org/1999/xlink">
 <defs>
  <style type="text/css">
*{stroke-linecap:butt;stroke-linejoin:round;}
  </style>
 </defs>
 <g id="figure_1">
  <g id="patch_1">
   <path d="M 0 345.6 
L 460.8 345.6 
L 460.8 0 
L 0 0 
z
" style="fill:#ffffff;"/>
  </g>
  <g id="axes_1">
   <g id="patch_2">
    <path d="M 56.12 294.88 
L 333.168 294.88 
L 333.168 6.845228 
L 56.12 6.845228 
z
" style="fill:#ffffff;"/>
   </g>
   <g id="line2d_1">
    <path d="M 44.205749 294.88 
L 44.205749 271.394346 
L 56.12 271.394346 
L 56.12 268.039252 
L 63.08939 268.039252 
L 63.08939 265.802523 
L 68.034251 265.802523 
L 68.034251 263.565795 
L 71.869783 263.565795 
L 71.869783 262.44743 
L 75.003641 262.44743 
L 75.003641 260.210701 
L 77.653281 260.210701 
L 77.653281 259.092337 
L 81.973032 259.092337 
L 81.973032 256.855608 
L 83.784035 256.855608 
L 83.784035 254.618879 
L 85.422286 254.618879 
L 85.422286 253.500514 
L 92.904808 253.500514 
L 92.904808 252.38215 
L 94.816624 252.38215 
L 94.816624 250.145421 
L 98.100602 250.145421 
L 98.100602 249.027056 
L 100.207968 249.027056 
L 100.207968 247.908692 
L 101.481783 247.908692 
L 101.481783 246.790327 
L 103.231288 246.790327 
L 103.231288 245.671963 
L 103.777005 245.671963 
L 103.777005 244.553598 
L 106.272485 244.553598 
L 106.272485 243.435234 
L 106.730875 243.435234 
L 106.730875 242.316869 
L 107.612537 242.316869 
L 107.612537 240.08014 
L 108.036969 240.08014 
L 108.036969 238.961776 
L 110.014853 238.961776 
L 110.014853 236.725047 
L 110.746395 236.725047 
L 110.746395 235.606682 
L 111.448069 235.606682 
L 111.448069 234.488318 
L 113.700266 234.488318 
L 113.700266 233.369954 
L 113.999206 233.369954 
L 113.999206 232.251589 
L 114.866043 232.251589 
L 114.866043 230.01486 
L 115.420563 230.01486 
L 115.420563 228.896496 
L 116.220179 228.896496 
L 116.220179 227.778131 
L 117.952873 227.778131 
L 117.952873 226.659767 
L 119.740314 226.659767 
L 119.740314 225.541402 
L 120.968596 225.541402 
L 120.968596 224.423038 
L 121.929105 224.423038 
L 121.929105 223.304673 
L 124.036471 223.304673 
L 124.036471 222.186309 
L 126.207287 222.186309 
L 126.207287 221.067944 
L 126.352339 221.067944 
L 126.352339 219.94958 
L 127.470694 219.94958 
L 127.470694 218.831215 
L 128.264156 218.831215 
L 128.264156 216.594486 
L 128.39291 216.594486 
L 128.39291 215.476122 
L 129.867125 215.476122 
L 129.867125 214.357757 
L 131.005861 214.357757 
L 131.005861 213.239393 
L 132.073821 213.239393 
L 132.073821 212.121028 
L 132.882847 212.121028 
L 132.882847 211.002664 
L 133.176677 211.002664 
L 133.176677 209.884299 
L 134.929315 209.884299 
L 134.929315 208.765935 
L 135.616951 208.765935 
L 135.616951 207.64757 
L 136.033161 207.64757 
L 136.033161 206.529206 
L 136.196864 206.529206 
L 136.196864 205.410841 
L 136.599426 205.410841 
L 136.599426 204.292477 
L 136.757848 204.292477 
L 136.836515 202.055748 
L 137.14763 202.055748 
L 137.224536 199.819019 
L 137.453213 199.819019 
L 137.453213 197.58229 
L 137.827708 197.58229 
L 137.901638 195.345561 
L 138.04855 195.345561 
L 138.04855 194.227197 
L 138.266591 194.227197 
L 138.266591 193.108832 
L 138.410429 193.108832 
L 138.410429 191.990468 
L 138.553074 191.990468 
L 138.553074 189.753739 
L 138.834862 189.753739 
L 138.834862 188.635374 
L 139.043211 188.635374 
L 139.043211 187.51701 
L 139.249066 187.51701 
L 139.317139 185.280281 
L 139.452484 185.280281 
L 139.452484 184.161916 
L 139.720016 184.161916 
L 139.720016 181.925187 
L 139.983449 181.925187 
L 140.048681 179.688458 
L 140.242905 179.688458 
L 140.307161 177.451729 
L 140.434959 177.451729 
L 140.434959 176.333365 
L 140.750355 176.333365 
L 140.812746 172.978271 
L 140.874911 172.978271 
L 140.936852 169.623178 
L 141.121347 169.623178 
L 141.182408 167.386449 
L 141.72241 167.386449 
L 141.72241 166.268085 
L 142.360172 166.268085 
L 142.360172 165.14972 
L 143.35529 165.14972 
L 143.462385 162.912991 
L 143.674593 162.912991 
L 143.779723 160.676262 
L 144.193927 160.676262 
L 144.193927 159.557898 
L 144.498158 159.557898 
L 144.498158 158.439533 
L 144.797098 158.439533 
L 144.797098 157.321169 
L 145.235981 157.321169 
L 145.284061 153.966075 
L 145.757607 153.966075 
L 145.757607 152.847711 
L 146.489148 152.847711 
L 146.489148 151.729346 
L 146.622913 151.729346 
L 146.667271 149.492617 
L 146.755644 149.492617 
L 146.799661 147.255888 
L 146.887358 147.255888 
L 146.887358 146.137524 
L 147.018071 146.137524 
L 147.018071 145.019159 
L 147.276552 145.019159 
L 147.276552 143.900795 
L 147.404349 143.900795 
L 147.404349 142.78243 
L 147.531203 142.78243 
L 147.57328 140.545702 
L 147.740567 140.545702 
L 147.740567 139.427337 
L 149.815889 139.427337 
L 149.815889 137.190608 
L 151.864991 137.190608 
L 151.930347 133.835515 
L 152.027918 133.835515 
L 152.092658 131.598786 
L 152.157156 131.598786 
L 152.221413 128.243692 
L 152.28543 128.243692 
L 152.28543 127.125328 
L 152.758108 127.125328 
L 152.851103 123.770234 
L 152.912822 123.770234 
L 152.97432 120.415141 
L 154.640452 120.415141 
L 154.640452 119.296776 
L 155.954019 119.296776 
L 155.954019 118.178412 
L 156.562529 118.178412 
L 156.562529 117.060047 
L 157.389299 117.060047 
L 157.389299 115.941683 
L 157.671858 115.941683 
L 157.741778 113.704954 
L 157.857683 113.704954 
L 157.857683 112.586589 
L 158.04152 112.586589 
L 158.04152 111.468225 
L 158.200781 111.468225 
L 158.200781 110.349861 
L 159.861664 110.349861 
L 159.96416 108.113132 
L 160.976132 108.113132 
L 160.976132 106.994767 
L 163.498673 106.994767 
L 163.498673 105.876403 
L 163.64778 105.876403 
L 163.68074 103.639674 
L 163.828282 103.639674 
L 163.828282 102.521309 
L 163.958377 102.521309 
L 164.039189 99.166216 
L 164.087494 99.166216 
L 164.119622 96.929487 
L 164.247538 96.929487 
L 164.247538 95.811122 
L 164.358689 95.811122 
L 164.374509 93.574393 
L 164.71892 93.574393 
L 164.780805 90.2193 
L 164.919238 90.2193 
L 164.919238 89.100935 
L 165.207874 89.100935 
L 165.283032 85.745842 
L 165.432369 85.745842 
L 165.432369 84.627477 
L 165.550912 84.627477 
L 165.550912 83.509113 
L 166.231309 83.509113 
L 166.231309 82.390748 
L 166.344485 82.390748 
L 166.442907 77.917291 
L 166.512865 77.917291 
L 166.512865 76.798926 
L 166.665777 76.798926 
L 166.762382 73.443833 
L 166.981174 73.443833 
L 166.994756 71.207104 
L 167.489909 71.207104 
L 167.489909 70.088739 
L 167.881169 70.088739 
L 167.881169 68.970375 
L 168.07351 68.970375 
L 168.07351 67.85201 
L 168.276328 67.85201 
L 168.276328 66.733646 
L 168.551352 66.733646 
L 168.551352 65.615281 
L 168.785382 65.615281 
L 168.870806 63.378552 
L 169.291675 63.378552 
L 169.398253 58.905094 
L 169.410055 58.905094 
L 169.44541 55.550001 
L 169.656029 55.550001 
L 169.656029 54.431636 
L 170.081029 54.431636 
L 170.103705 52.194907 
L 170.20538 52.194907 
L 170.20538 51.076543 
L 170.683027 51.076543 
L 170.759542 48.839814 
L 171.062243 48.839814 
L 171.062243 47.72145 
L 171.200991 47.72145 
L 171.200991 46.603085 
L 171.380757 46.603085 
L 171.380757 45.484721 
L 171.621015 45.484721 
L 171.621015 44.366356 
L 171.878412 44.366356 
L 171.878412 43.247992 
L 172.142077 43.247992 
L 172.142077 42.129627 
L 172.784071 42.129627 
L 172.784071 41.011263 
L 173.034302 41.011263 
L 173.034302 39.892898 
L 173.195967 39.892898 
L 173.205429 37.656169 
L 173.318575 37.656169 
L 173.33736 35.41944 
L 173.727184 35.41944 
L 173.727184 34.301076 
L 174.224653 34.301076 
L 174.224653 33.182711 
L 175.471064 33.182711 
L 175.471064 32.064347 
L 175.603221 32.064347 
L 175.636102 29.827618 
L 178.010187 29.827618 
L 178.067316 27.590889 
L 178.258736 27.590889 
L 178.258736 26.472524 
L 178.434096 26.472524 
L 178.434096 25.35416 
L 179.278381 25.35416 
L 179.357927 23.117431 
L 179.437107 23.117431 
L 179.50937 20.880702 
L 180.08313 20.880702 
L 180.08313 19.762337 
L 180.378572 19.762337 
L 180.378572 18.643973 
L 180.619928 18.643973 
L 180.619928 17.525609 
L 180.900316 17.525609 
L 180.990767 15.28888 
L 181.098683 15.28888 
L 181.188099 13.052151 
L 181.241526 13.052151 
L 181.241526 11.933786 
L 181.359661 11.933786 
L 181.418426 9.697057 
L 333.168 9.697057 
L 333.168 9.697057 
" style="fill:none;stroke:#f5deb3;stroke-linecap:square;stroke-width:4;"/>
   </g>
   <g id="line2d_2">
    <defs>
     <path d="M -0 7.778175 
L 7.778175 0 
L 0 -7.778175 
L -7.778175 -0 
z
" id="mce94ba461c" style="stroke:#f5deb3;stroke-linejoin:miter;stroke-width:1.5;"/>
    </defs>
    <g>
     <use style="fill:#f5deb3;stroke:#f5deb3;stroke-linejoin:miter;stroke-width:1.5;" x="98.100602" xlink:href="#mce94ba461c" y="249.027056"/>
     <use style="fill:#f5deb3;stroke:#f5deb3;stroke-linejoin:miter;stroke-width:1.5;" x="152.157156" xlink:href="#mce94ba461c" y="130.480421"/>
     <use style="fill:#f5deb3;stroke:#f5deb3;stroke-linejoin:miter;stroke-width:1.5;" x="175.603221" xlink:href="#mce94ba461c" y="30.945982"/>
     <use style="fill:#f5deb3;stroke:#f5deb3;stroke-linejoin:miter;stroke-width:1.5;" x="181.418426" xlink:href="#mce94ba461c" y="9.697057"/>
     <use style="fill:#f5deb3;stroke:#f5deb3;stroke-linejoin:miter;stroke-width:1.5;" x="181.418426" xlink:href="#mce94ba461c" y="9.697057"/>
     <use style="fill:#f5deb3;stroke:#f5deb3;stroke-linejoin:miter;stroke-width:1.5;" x="333.168" xlink:href="#mce94ba461c" y="9.697057"/>
    </g>
   </g>
   <g id="line2d_3">
    <path style="fill:none;stroke:#f5deb3;stroke-linecap:square;stroke-width:4;"/>
    <g/>
   </g>
   <g id="line2d_4">
    <path d="M 333.168 9.697057 
L 363.64328 15.400716 
" style="fill:none;stroke:#f5deb3;stroke-linecap:square;stroke-width:4;"/>
    <g>
     <use style="fill:#f5deb3;stroke:#f5deb3;stroke-linejoin:miter;stroke-width:1.5;" x="333.168" xlink:href="#mce94ba461c" y="9.697057"/>
     <use style="fill:#f5deb3;stroke:#f5deb3;stroke-linejoin:miter;stroke-width:1.5;" x="363.64328" xlink:href="#mce94ba461c" y="15.400716"/>
    </g>
   </g>
   <g id="matplotlib.axis_1">
    <g id="xtick_1">
     <g id="line2d_5">
      <path clip-path="url(#p8c4cc69bf8)" d="M 56.12 294.88 
L 56.12 6.845228 
" style="fill:none;stroke:#b0b0b0;stroke-linecap:square;stroke-width:0.8;"/>
     </g>
     <g id="line2d_6">
      <defs>
       <path d="M 0 0 
L 0 3.5 
" id="m1b05c2cf8e" style="stroke:#000000;stroke-width:0.8;"/>
      </defs>
      <g>
       <use style="stroke:#000000;stroke-width:0.8;" x="56.12" xlink:href="#m1b05c2cf8e" y="294.88"/>
      </g>
     </g>
     <g id="text_1">
      <!-- 0 -->
      <defs>
       <path d="M 31.78125 66.40625 
Q 24.171875 66.40625 20.328125 58.90625 
Q 16.5 51.421875 16.5 36.375 
Q 16.5 21.390625 20.328125 13.890625 
Q 24.171875 6.390625 31.78125 6.390625 
Q 39.453125 6.390625 43.28125 13.890625 
Q 47.125 21.390625 47.125 36.375 
Q 47.125 51.421875 43.28125 58.90625 
Q 39.453125 66.40625 31.78125 66.40625 
z
M 31.78125 74.21875 
Q 44.046875 74.21875 50.515625 64.515625 
Q 56.984375 54.828125 56.984375 36.375 
Q 56.984375 17.96875 50.515625 8.265625 
Q 44.046875 -1.421875 31.78125 -1.421875 
Q 19.53125 -1.421875 13.0625 8.265625 
Q 6.59375 17.96875 6.59375 36.375 
Q 6.59375 54.828125 13.0625 64.515625 
Q 19.53125 74.21875 31.78125 74.21875 
z
" id="DejaVuSans-30"/>
      </defs>
      <g transform="translate(49.7575 317.076875)scale(0.2 -0.2)">
       <use xlink:href="#DejaVuSans-30"/>
      </g>
     </g>
    </g>
    <g id="xtick_2">
     <g id="line2d_7">
      <path clip-path="url(#p8c4cc69bf8)" d="M 135.276571 294.88 
L 135.276571 6.845228 
" style="fill:none;stroke:#b0b0b0;stroke-linecap:square;stroke-width:0.8;"/>
     </g>
     <g id="line2d_8">
      <g>
       <use style="stroke:#000000;stroke-width:0.8;" x="135.276571" xlink:href="#m1b05c2cf8e" y="294.88"/>
      </g>
     </g>
     <g id="text_2">
      <!-- 2 -->
      <defs>
       <path d="M 19.1875 8.296875 
L 53.609375 8.296875 
L 53.609375 0 
L 7.328125 0 
L 7.328125 8.296875 
Q 12.9375 14.109375 22.625 23.890625 
Q 32.328125 33.6875 34.8125 36.53125 
Q 39.546875 41.84375 41.421875 45.53125 
Q 43.3125 49.21875 43.3125 52.78125 
Q 43.3125 58.59375 39.234375 62.25 
Q 35.15625 65.921875 28.609375 65.921875 
Q 23.96875 65.921875 18.8125 64.3125 
Q 13.671875 62.703125 7.8125 59.421875 
L 7.8125 69.390625 
Q 13.765625 71.78125 18.9375 73 
Q 24.125 74.21875 28.421875 74.21875 
Q 39.75 74.21875 46.484375 68.546875 
Q 53.21875 62.890625 53.21875 53.421875 
Q 53.21875 48.921875 51.53125 44.890625 
Q 49.859375 40.875 45.40625 35.40625 
Q 44.1875 33.984375 37.640625 27.21875 
Q 31.109375 20.453125 19.1875 8.296875 
z
" id="DejaVuSans-32"/>
      </defs>
      <g transform="translate(128.914071 317.076875)scale(0.2 -0.2)">
       <use xlink:href="#DejaVuSans-32"/>
      </g>
     </g>
    </g>
    <g id="xtick_3">
     <g id="line2d_9">
      <path clip-path="url(#p8c4cc69bf8)" d="M 214.433143 294.88 
L 214.433143 6.845228 
" style="fill:none;stroke:#b0b0b0;stroke-linecap:square;stroke-width:0.8;"/>
     </g>
     <g id="line2d_10">
      <g>
       <use style="stroke:#000000;stroke-width:0.8;" x="214.433143" xlink:href="#m1b05c2cf8e" y="294.88"/>
      </g>
     </g>
     <g id="text_3">
      <!-- 4 -->
      <defs>
       <path d="M 37.796875 64.3125 
L 12.890625 25.390625 
L 37.796875 25.390625 
z
M 35.203125 72.90625 
L 47.609375 72.90625 
L 47.609375 25.390625 
L 58.015625 25.390625 
L 58.015625 17.1875 
L 47.609375 17.1875 
L 47.609375 0 
L 37.796875 0 
L 37.796875 17.1875 
L 4.890625 17.1875 
L 4.890625 26.703125 
z
" id="DejaVuSans-34"/>
      </defs>
      <g transform="translate(208.070643 317.076875)scale(0.2 -0.2)">
       <use xlink:href="#DejaVuSans-34"/>
      </g>
     </g>
    </g>
    <g id="xtick_4">
     <g id="line2d_11">
      <path clip-path="url(#p8c4cc69bf8)" d="M 293.589714 294.88 
L 293.589714 6.845228 
" style="fill:none;stroke:#b0b0b0;stroke-linecap:square;stroke-width:0.8;"/>
     </g>
     <g id="line2d_12">
      <g>
       <use style="stroke:#000000;stroke-width:0.8;" x="293.589714" xlink:href="#m1b05c2cf8e" y="294.88"/>
      </g>
     </g>
     <g id="text_4">
      <!-- 6 -->
      <defs>
       <path d="M 33.015625 40.375 
Q 26.375 40.375 22.484375 35.828125 
Q 18.609375 31.296875 18.609375 23.390625 
Q 18.609375 15.53125 22.484375 10.953125 
Q 26.375 6.390625 33.015625 6.390625 
Q 39.65625 6.390625 43.53125 10.953125 
Q 47.40625 15.53125 47.40625 23.390625 
Q 47.40625 31.296875 43.53125 35.828125 
Q 39.65625 40.375 33.015625 40.375 
z
M 52.59375 71.296875 
L 52.59375 62.3125 
Q 48.875 64.0625 45.09375 64.984375 
Q 41.3125 65.921875 37.59375 65.921875 
Q 27.828125 65.921875 22.671875 59.328125 
Q 17.53125 52.734375 16.796875 39.40625 
Q 19.671875 43.65625 24.015625 45.921875 
Q 28.375 48.1875 33.59375 48.1875 
Q 44.578125 48.1875 50.953125 41.515625 
Q 57.328125 34.859375 57.328125 23.390625 
Q 57.328125 12.15625 50.6875 5.359375 
Q 44.046875 -1.421875 33.015625 -1.421875 
Q 20.359375 -1.421875 13.671875 8.265625 
Q 6.984375 17.96875 6.984375 36.375 
Q 6.984375 53.65625 15.1875 63.9375 
Q 23.390625 74.21875 37.203125 74.21875 
Q 40.921875 74.21875 44.703125 73.484375 
Q 48.484375 72.75 52.59375 71.296875 
z
" id="DejaVuSans-36"/>
      </defs>
      <g transform="translate(287.227214 317.076875)scale(0.2 -0.2)">
       <use xlink:href="#DejaVuSans-36"/>
      </g>
     </g>
    </g>
    <g id="xtick_5">
     <g id="line2d_13">
      <path clip-path="url(#p8c4cc69bf8)" d="M 56.12 294.88 
L 56.12 6.845228 
" style="fill:none;stroke:#b0b0b0;stroke-linecap:square;stroke-width:0.8;"/>
     </g>
     <g id="line2d_14">
      <defs>
       <path d="M 0 0 
L 0 2 
" id="m83cf678d9c" style="stroke:#000000;stroke-width:0.6;"/>
      </defs>
      <g>
       <use style="stroke:#000000;stroke-width:0.6;" x="56.12" xlink:href="#m83cf678d9c" y="294.88"/>
      </g>
     </g>
    </g>
    <g id="xtick_6">
     <g id="line2d_15">
      <path clip-path="url(#p8c4cc69bf8)" d="M 95.698286 294.88 
L 95.698286 6.845228 
" style="fill:none;stroke:#b0b0b0;stroke-linecap:square;stroke-width:0.8;"/>
     </g>
     <g id="line2d_16">
      <g>
       <use style="stroke:#000000;stroke-width:0.6;" x="95.698286" xlink:href="#m83cf678d9c" y="294.88"/>
      </g>
     </g>
    </g>
    <g id="xtick_7">
     <g id="line2d_17">
      <path clip-path="url(#p8c4cc69bf8)" d="M 135.276571 294.88 
L 135.276571 6.845228 
" style="fill:none;stroke:#b0b0b0;stroke-linecap:square;stroke-width:0.8;"/>
     </g>
     <g id="line2d_18">
      <g>
       <use style="stroke:#000000;stroke-width:0.6;" x="135.276571" xlink:href="#m83cf678d9c" y="294.88"/>
      </g>
     </g>
    </g>
    <g id="xtick_8">
     <g id="line2d_19">
      <path clip-path="url(#p8c4cc69bf8)" d="M 174.854857 294.88 
L 174.854857 6.845228 
" style="fill:none;stroke:#b0b0b0;stroke-linecap:square;stroke-width:0.8;"/>
     </g>
     <g id="line2d_20">
      <g>
       <use style="stroke:#000000;stroke-width:0.6;" x="174.854857" xlink:href="#m83cf678d9c" y="294.88"/>
      </g>
     </g>
    </g>
    <g id="xtick_9">
     <g id="line2d_21">
      <path clip-path="url(#p8c4cc69bf8)" d="M 214.433143 294.88 
L 214.433143 6.845228 
" style="fill:none;stroke:#b0b0b0;stroke-linecap:square;stroke-width:0.8;"/>
     </g>
     <g id="line2d_22">
      <g>
       <use style="stroke:#000000;stroke-width:0.6;" x="214.433143" xlink:href="#m83cf678d9c" y="294.88"/>
      </g>
     </g>
    </g>
    <g id="xtick_10">
     <g id="line2d_23">
      <path clip-path="url(#p8c4cc69bf8)" d="M 254.011429 294.88 
L 254.011429 6.845228 
" style="fill:none;stroke:#b0b0b0;stroke-linecap:square;stroke-width:0.8;"/>
     </g>
     <g id="line2d_24">
      <g>
       <use style="stroke:#000000;stroke-width:0.6;" x="254.011429" xlink:href="#m83cf678d9c" y="294.88"/>
      </g>
     </g>
    </g>
    <g id="xtick_11">
     <g id="line2d_25">
      <path clip-path="url(#p8c4cc69bf8)" d="M 293.589714 294.88 
L 293.589714 6.845228 
" style="fill:none;stroke:#b0b0b0;stroke-linecap:square;stroke-width:0.8;"/>
     </g>
     <g id="line2d_26">
      <g>
       <use style="stroke:#000000;stroke-width:0.6;" x="293.589714" xlink:href="#m83cf678d9c" y="294.88"/>
      </g>
     </g>
    </g>
    <g id="xtick_12">
     <g id="line2d_27">
      <path clip-path="url(#p8c4cc69bf8)" d="M 333.168 294.88 
L 333.168 6.845228 
" style="fill:none;stroke:#b0b0b0;stroke-linecap:square;stroke-width:0.8;"/>
     </g>
     <g id="line2d_28">
      <g>
       <use style="stroke:#000000;stroke-width:0.6;" x="333.168" xlink:href="#m83cf678d9c" y="294.88"/>
      </g>
     </g>
    </g>
    <g id="text_5">
     <!-- log10(# f-evals / dimension) -->
     <defs>
      <path d="M 9.421875 75.984375 
L 18.40625 75.984375 
L 18.40625 0 
L 9.421875 0 
z
" id="DejaVuSans-6c"/>
      <path d="M 30.609375 48.390625 
Q 23.390625 48.390625 19.1875 42.75 
Q 14.984375 37.109375 14.984375 27.296875 
Q 14.984375 17.484375 19.15625 11.84375 
Q 23.34375 6.203125 30.609375 6.203125 
Q 37.796875 6.203125 41.984375 11.859375 
Q 46.1875 17.53125 46.1875 27.296875 
Q 46.1875 37.015625 41.984375 42.703125 
Q 37.796875 48.390625 30.609375 48.390625 
z
M 30.609375 56 
Q 42.328125 56 49.015625 48.375 
Q 55.71875 40.765625 55.71875 27.296875 
Q 55.71875 13.875 49.015625 6.21875 
Q 42.328125 -1.421875 30.609375 -1.421875 
Q 18.84375 -1.421875 12.171875 6.21875 
Q 5.515625 13.875 5.515625 27.296875 
Q 5.515625 40.765625 12.171875 48.375 
Q 18.84375 56 30.609375 56 
z
" id="DejaVuSans-6f"/>
      <path d="M 45.40625 27.984375 
Q 45.40625 37.75 41.375 43.109375 
Q 37.359375 48.484375 30.078125 48.484375 
Q 22.859375 48.484375 18.828125 43.109375 
Q 14.796875 37.75 14.796875 27.984375 
Q 14.796875 18.265625 18.828125 12.890625 
Q 22.859375 7.515625 30.078125 7.515625 
Q 37.359375 7.515625 41.375 12.890625 
Q 45.40625 18.265625 45.40625 27.984375 
z
M 54.390625 6.78125 
Q 54.390625 -7.171875 48.1875 -13.984375 
Q 42 -20.796875 29.203125 -20.796875 
Q 24.46875 -20.796875 20.265625 -20.09375 
Q 16.0625 -19.390625 12.109375 -17.921875 
L 12.109375 -9.1875 
Q 16.0625 -11.328125 19.921875 -12.34375 
Q 23.78125 -13.375 27.78125 -13.375 
Q 36.625 -13.375 41.015625 -8.765625 
Q 45.40625 -4.15625 45.40625 5.171875 
L 45.40625 9.625 
Q 42.625 4.78125 38.28125 2.390625 
Q 33.9375 0 27.875 0 
Q 17.828125 0 11.671875 7.65625 
Q 5.515625 15.328125 5.515625 27.984375 
Q 5.515625 40.671875 11.671875 48.328125 
Q 17.828125 56 27.875 56 
Q 33.9375 56 38.28125 53.609375 
Q 42.625 51.21875 45.40625 46.390625 
L 45.40625 54.6875 
L 54.390625 54.6875 
z
" id="DejaVuSans-67"/>
      <path d="M 12.40625 8.296875 
L 28.515625 8.296875 
L 28.515625 63.921875 
L 10.984375 60.40625 
L 10.984375 69.390625 
L 28.421875 72.90625 
L 38.28125 72.90625 
L 38.28125 8.296875 
L 54.390625 8.296875 
L 54.390625 0 
L 12.40625 0 
z
" id="DejaVuSans-31"/>
      <path d="M 31 75.875 
Q 24.46875 64.65625 21.28125 53.65625 
Q 18.109375 42.671875 18.109375 31.390625 
Q 18.109375 20.125 21.3125 9.0625 
Q 24.515625 -2 31 -13.1875 
L 23.1875 -13.1875 
Q 15.875 -1.703125 12.234375 9.375 
Q 8.59375 20.453125 8.59375 31.390625 
Q 8.59375 42.28125 12.203125 53.3125 
Q 15.828125 64.359375 23.1875 75.875 
z
" id="DejaVuSans-28"/>
      <path d="M 51.125 44 
L 36.921875 44 
L 32.8125 27.6875 
L 47.125 27.6875 
z
M 43.796875 71.78125 
L 38.71875 51.515625 
L 52.984375 51.515625 
L 58.109375 71.78125 
L 65.921875 71.78125 
L 60.890625 51.515625 
L 76.125 51.515625 
L 76.125 44 
L 58.984375 44 
L 54.984375 27.6875 
L 70.515625 27.6875 
L 70.515625 20.21875 
L 53.078125 20.21875 
L 48 0 
L 40.1875 0 
L 45.21875 20.21875 
L 30.90625 20.21875 
L 25.875 0 
L 18.015625 0 
L 23.09375 20.21875 
L 7.71875 20.21875 
L 7.71875 27.6875 
L 24.90625 27.6875 
L 29 44 
L 13.28125 44 
L 13.28125 51.515625 
L 30.90625 51.515625 
L 35.890625 71.78125 
z
" id="DejaVuSans-23"/>
      <path id="DejaVuSans-20"/>
      <path d="M 37.109375 75.984375 
L 37.109375 68.5 
L 28.515625 68.5 
Q 23.6875 68.5 21.796875 66.546875 
Q 19.921875 64.59375 19.921875 59.515625 
L 19.921875 54.6875 
L 34.71875 54.6875 
L 34.71875 47.703125 
L 19.921875 47.703125 
L 19.921875 0 
L 10.890625 0 
L 10.890625 47.703125 
L 2.296875 47.703125 
L 2.296875 54.6875 
L 10.890625 54.6875 
L 10.890625 58.5 
Q 10.890625 67.625 15.140625 71.796875 
Q 19.390625 75.984375 28.609375 75.984375 
z
" id="DejaVuSans-66"/>
      <path d="M 4.890625 31.390625 
L 31.203125 31.390625 
L 31.203125 23.390625 
L 4.890625 23.390625 
z
" id="DejaVuSans-2d"/>
      <path d="M 56.203125 29.59375 
L 56.203125 25.203125 
L 14.890625 25.203125 
Q 15.484375 15.921875 20.484375 11.0625 
Q 25.484375 6.203125 34.421875 6.203125 
Q 39.59375 6.203125 44.453125 7.46875 
Q 49.3125 8.734375 54.109375 11.28125 
L 54.109375 2.78125 
Q 49.265625 0.734375 44.1875 -0.34375 
Q 39.109375 -1.421875 33.890625 -1.421875 
Q 20.796875 -1.421875 13.15625 6.1875 
Q 5.515625 13.8125 5.515625 26.8125 
Q 5.515625 40.234375 12.765625 48.109375 
Q 20.015625 56 32.328125 56 
Q 43.359375 56 49.78125 48.890625 
Q 56.203125 41.796875 56.203125 29.59375 
z
M 47.21875 32.234375 
Q 47.125 39.59375 43.09375 43.984375 
Q 39.0625 48.390625 32.421875 48.390625 
Q 24.90625 48.390625 20.390625 44.140625 
Q 15.875 39.890625 15.1875 32.171875 
z
" id="DejaVuSans-65"/>
      <path d="M 2.984375 54.6875 
L 12.5 54.6875 
L 29.59375 8.796875 
L 46.6875 54.6875 
L 56.203125 54.6875 
L 35.6875 0 
L 23.484375 0 
z
" id="DejaVuSans-76"/>
      <path d="M 34.28125 27.484375 
Q 23.390625 27.484375 19.1875 25 
Q 14.984375 22.515625 14.984375 16.5 
Q 14.984375 11.71875 18.140625 8.90625 
Q 21.296875 6.109375 26.703125 6.109375 
Q 34.1875 6.109375 38.703125 11.40625 
Q 43.21875 16.703125 43.21875 25.484375 
L 43.21875 27.484375 
z
M 52.203125 31.203125 
L 52.203125 0 
L 43.21875 0 
L 43.21875 8.296875 
Q 40.140625 3.328125 35.546875 0.953125 
Q 30.953125 -1.421875 24.3125 -1.421875 
Q 15.921875 -1.421875 10.953125 3.296875 
Q 6 8.015625 6 15.921875 
Q 6 25.140625 12.171875 29.828125 
Q 18.359375 34.515625 30.609375 34.515625 
L 43.21875 34.515625 
L 43.21875 35.40625 
Q 43.21875 41.609375 39.140625 45 
Q 35.0625 48.390625 27.6875 48.390625 
Q 23 48.390625 18.546875 47.265625 
Q 14.109375 46.140625 10.015625 43.890625 
L 10.015625 52.203125 
Q 14.9375 54.109375 19.578125 55.046875 
Q 24.21875 56 28.609375 56 
Q 40.484375 56 46.34375 49.84375 
Q 52.203125 43.703125 52.203125 31.203125 
z
" id="DejaVuSans-61"/>
      <path d="M 44.28125 53.078125 
L 44.28125 44.578125 
Q 40.484375 46.53125 36.375 47.5 
Q 32.28125 48.484375 27.875 48.484375 
Q 21.1875 48.484375 17.84375 46.4375 
Q 14.5 44.390625 14.5 40.28125 
Q 14.5 37.15625 16.890625 35.375 
Q 19.28125 33.59375 26.515625 31.984375 
L 29.59375 31.296875 
Q 39.15625 29.25 43.1875 25.515625 
Q 47.21875 21.78125 47.21875 15.09375 
Q 47.21875 7.46875 41.1875 3.015625 
Q 35.15625 -1.421875 24.609375 -1.421875 
Q 20.21875 -1.421875 15.453125 -0.5625 
Q 10.6875 0.296875 5.421875 2 
L 5.421875 11.28125 
Q 10.40625 8.6875 15.234375 7.390625 
Q 20.0625 6.109375 24.8125 6.109375 
Q 31.15625 6.109375 34.5625 8.28125 
Q 37.984375 10.453125 37.984375 14.40625 
Q 37.984375 18.0625 35.515625 20.015625 
Q 33.0625 21.96875 24.703125 23.78125 
L 21.578125 24.515625 
Q 13.234375 26.265625 9.515625 29.90625 
Q 5.8125 33.546875 5.8125 39.890625 
Q 5.8125 47.609375 11.28125 51.796875 
Q 16.75 56 26.8125 56 
Q 31.78125 56 36.171875 55.265625 
Q 40.578125 54.546875 44.28125 53.078125 
z
" id="DejaVuSans-73"/>
      <path d="M 25.390625 72.90625 
L 33.6875 72.90625 
L 8.296875 -9.28125 
L 0 -9.28125 
z
" id="DejaVuSans-2f"/>
      <path d="M 45.40625 46.390625 
L 45.40625 75.984375 
L 54.390625 75.984375 
L 54.390625 0 
L 45.40625 0 
L 45.40625 8.203125 
Q 42.578125 3.328125 38.25 0.953125 
Q 33.9375 -1.421875 27.875 -1.421875 
Q 17.96875 -1.421875 11.734375 6.484375 
Q 5.515625 14.40625 5.515625 27.296875 
Q 5.515625 40.1875 11.734375 48.09375 
Q 17.96875 56 27.875 56 
Q 33.9375 56 38.25 53.625 
Q 42.578125 51.265625 45.40625 46.390625 
z
M 14.796875 27.296875 
Q 14.796875 17.390625 18.875 11.75 
Q 22.953125 6.109375 30.078125 6.109375 
Q 37.203125 6.109375 41.296875 11.75 
Q 45.40625 17.390625 45.40625 27.296875 
Q 45.40625 37.203125 41.296875 42.84375 
Q 37.203125 48.484375 30.078125 48.484375 
Q 22.953125 48.484375 18.875 42.84375 
Q 14.796875 37.203125 14.796875 27.296875 
z
" id="DejaVuSans-64"/>
      <path d="M 9.421875 54.6875 
L 18.40625 54.6875 
L 18.40625 0 
L 9.421875 0 
z
M 9.421875 75.984375 
L 18.40625 75.984375 
L 18.40625 64.59375 
L 9.421875 64.59375 
z
" id="DejaVuSans-69"/>
      <path d="M 52 44.1875 
Q 55.375 50.25 60.0625 53.125 
Q 64.75 56 71.09375 56 
Q 79.640625 56 84.28125 50.015625 
Q 88.921875 44.046875 88.921875 33.015625 
L 88.921875 0 
L 79.890625 0 
L 79.890625 32.71875 
Q 79.890625 40.578125 77.09375 44.375 
Q 74.3125 48.1875 68.609375 48.1875 
Q 61.625 48.1875 57.5625 43.546875 
Q 53.515625 38.921875 53.515625 30.90625 
L 53.515625 0 
L 44.484375 0 
L 44.484375 32.71875 
Q 44.484375 40.625 41.703125 44.40625 
Q 38.921875 48.1875 33.109375 48.1875 
Q 26.21875 48.1875 22.15625 43.53125 
Q 18.109375 38.875 18.109375 30.90625 
L 18.109375 0 
L 9.078125 0 
L 9.078125 54.6875 
L 18.109375 54.6875 
L 18.109375 46.1875 
Q 21.1875 51.21875 25.484375 53.609375 
Q 29.78125 56 35.6875 56 
Q 41.65625 56 45.828125 52.96875 
Q 50 49.953125 52 44.1875 
z
" id="DejaVuSans-6d"/>
      <path d="M 54.890625 33.015625 
L 54.890625 0 
L 45.90625 0 
L 45.90625 32.71875 
Q 45.90625 40.484375 42.875 44.328125 
Q 39.84375 48.1875 33.796875 48.1875 
Q 26.515625 48.1875 22.3125 43.546875 
Q 18.109375 38.921875 18.109375 30.90625 
L 18.109375 0 
L 9.078125 0 
L 9.078125 54.6875 
L 18.109375 54.6875 
L 18.109375 46.1875 
Q 21.34375 51.125 25.703125 53.5625 
Q 30.078125 56 35.796875 56 
Q 45.21875 56 50.046875 50.171875 
Q 54.890625 44.34375 54.890625 33.015625 
z
" id="DejaVuSans-6e"/>
      <path d="M 8.015625 75.875 
L 15.828125 75.875 
Q 23.140625 64.359375 26.78125 53.3125 
Q 30.421875 42.28125 30.421875 31.390625 
Q 30.421875 20.453125 26.78125 9.375 
Q 23.140625 -1.703125 15.828125 -13.1875 
L 8.015625 -13.1875 
Q 14.5 -2 17.703125 9.0625 
Q 20.90625 20.125 20.90625 31.390625 
Q 20.90625 42.671875 17.703125 53.65625 
Q 14.5 64.65625 8.015625 75.875 
z
" id="DejaVuSans-29"/>
     </defs>
     <g transform="translate(73.803219 338.153594)scale(0.17 -0.17)">
      <use xlink:href="#DejaVuSans-6c"/>
      <use x="27.783203" xlink:href="#DejaVuSans-6f"/>
      <use x="88.964844" xlink:href="#DejaVuSans-67"/>
      <use x="152.441406" xlink:href="#DejaVuSans-31"/>
      <use x="216.064453" xlink:href="#DejaVuSans-30"/>
      <use x="279.6875" xlink:href="#DejaVuSans-28"/>
      <use x="318.701172" xlink:href="#DejaVuSans-23"/>
      <use x="402.490234" xlink:href="#DejaVuSans-20"/>
      <use x="434.277344" xlink:href="#DejaVuSans-66"/>
      <use x="469.404297" xlink:href="#DejaVuSans-2d"/>
      <use x="505.488281" xlink:href="#DejaVuSans-65"/>
      <use x="567.011719" xlink:href="#DejaVuSans-76"/>
      <use x="626.191406" xlink:href="#DejaVuSans-61"/>
      <use x="687.470703" xlink:href="#DejaVuSans-6c"/>
      <use x="715.253906" xlink:href="#DejaVuSans-73"/>
      <use x="767.353516" xlink:href="#DejaVuSans-20"/>
      <use x="799.140625" xlink:href="#DejaVuSans-2f"/>
      <use x="832.832031" xlink:href="#DejaVuSans-20"/>
      <use x="864.619141" xlink:href="#DejaVuSans-64"/>
      <use x="928.095703" xlink:href="#DejaVuSans-69"/>
      <use x="955.878906" xlink:href="#DejaVuSans-6d"/>
      <use x="1053.291016" xlink:href="#DejaVuSans-65"/>
      <use x="1114.814453" xlink:href="#DejaVuSans-6e"/>
      <use x="1178.193359" xlink:href="#DejaVuSans-73"/>
      <use x="1230.292969" xlink:href="#DejaVuSans-69"/>
      <use x="1258.076172" xlink:href="#DejaVuSans-6f"/>
      <use x="1319.257812" xlink:href="#DejaVuSans-6e"/>
      <use x="1382.636719" xlink:href="#DejaVuSans-29"/>
     </g>
    </g>
   </g>
   <g id="matplotlib.axis_2">
    <g id="ytick_1">
     <g id="line2d_29">
      <path clip-path="url(#p8c4cc69bf8)" d="M 56.12 294.88 
L 333.168 294.88 
" style="fill:none;stroke:#b0b0b0;stroke-linecap:square;stroke-width:0.8;"/>
     </g>
     <g id="line2d_30">
      <defs>
       <path d="M 0 0 
L -3.5 0 
" id="m820b9e72a4" style="stroke:#000000;stroke-width:0.8;"/>
      </defs>
      <g>
       <use style="stroke:#000000;stroke-width:0.8;" x="56.12" xlink:href="#m820b9e72a4" y="294.88"/>
      </g>
     </g>
     <g id="text_6">
      <!-- 0.0 -->
      <defs>
       <path d="M 10.6875 12.40625 
L 21 12.40625 
L 21 0 
L 10.6875 0 
z
" id="DejaVuSans-2e"/>
      </defs>
      <g transform="translate(23.675 300.95875)scale(0.16 -0.16)">
       <use xlink:href="#DejaVuSans-30"/>
       <use x="63.623047" xlink:href="#DejaVuSans-2e"/>
       <use x="95.410156" xlink:href="#DejaVuSans-30"/>
      </g>
     </g>
    </g>
    <g id="ytick_2">
     <g id="line2d_31">
      <path clip-path="url(#p8c4cc69bf8)" d="M 56.12 237.843411 
L 333.168 237.843411 
" style="fill:none;stroke:#b0b0b0;stroke-linecap:square;stroke-width:0.8;"/>
     </g>
     <g id="line2d_32">
      <g>
       <use style="stroke:#000000;stroke-width:0.8;" x="56.12" xlink:href="#m820b9e72a4" y="237.843411"/>
      </g>
     </g>
     <g id="text_7">
      <!-- 0.2 -->
      <g transform="translate(23.675 243.922161)scale(0.16 -0.16)">
       <use xlink:href="#DejaVuSans-30"/>
       <use x="63.623047" xlink:href="#DejaVuSans-2e"/>
       <use x="95.410156" xlink:href="#DejaVuSans-32"/>
      </g>
     </g>
    </g>
    <g id="ytick_3">
     <g id="line2d_33">
      <path clip-path="url(#p8c4cc69bf8)" d="M 56.12 180.806823 
L 333.168 180.806823 
" style="fill:none;stroke:#b0b0b0;stroke-linecap:square;stroke-width:0.8;"/>
     </g>
     <g id="line2d_34">
      <g>
       <use style="stroke:#000000;stroke-width:0.8;" x="56.12" xlink:href="#m820b9e72a4" y="180.806823"/>
      </g>
     </g>
     <g id="text_8">
      <!-- 0.4 -->
      <g transform="translate(23.675 186.885573)scale(0.16 -0.16)">
       <use xlink:href="#DejaVuSans-30"/>
       <use x="63.623047" xlink:href="#DejaVuSans-2e"/>
       <use x="95.410156" xlink:href="#DejaVuSans-34"/>
      </g>
     </g>
    </g>
    <g id="ytick_4">
     <g id="line2d_35">
      <path clip-path="url(#p8c4cc69bf8)" d="M 56.12 123.770234 
L 333.168 123.770234 
" style="fill:none;stroke:#b0b0b0;stroke-linecap:square;stroke-width:0.8;"/>
     </g>
     <g id="line2d_36">
      <g>
       <use style="stroke:#000000;stroke-width:0.8;" x="56.12" xlink:href="#m820b9e72a4" y="123.770234"/>
      </g>
     </g>
     <g id="text_9">
      <!-- 0.6 -->
      <g transform="translate(23.675 129.848984)scale(0.16 -0.16)">
       <use xlink:href="#DejaVuSans-30"/>
       <use x="63.623047" xlink:href="#DejaVuSans-2e"/>
       <use x="95.410156" xlink:href="#DejaVuSans-36"/>
      </g>
     </g>
    </g>
    <g id="ytick_5">
     <g id="line2d_37">
      <path clip-path="url(#p8c4cc69bf8)" d="M 56.12 66.733646 
L 333.168 66.733646 
" style="fill:none;stroke:#b0b0b0;stroke-linecap:square;stroke-width:0.8;"/>
     </g>
     <g id="line2d_38">
      <g>
       <use style="stroke:#000000;stroke-width:0.8;" x="56.12" xlink:href="#m820b9e72a4" y="66.733646"/>
      </g>
     </g>
     <g id="text_10">
      <!-- 0.8 -->
      <defs>
       <path d="M 31.78125 34.625 
Q 24.75 34.625 20.71875 30.859375 
Q 16.703125 27.09375 16.703125 20.515625 
Q 16.703125 13.921875 20.71875 10.15625 
Q 24.75 6.390625 31.78125 6.390625 
Q 38.8125 6.390625 42.859375 10.171875 
Q 46.921875 13.96875 46.921875 20.515625 
Q 46.921875 27.09375 42.890625 30.859375 
Q 38.875 34.625 31.78125 34.625 
z
M 21.921875 38.8125 
Q 15.578125 40.375 12.03125 44.71875 
Q 8.5 49.078125 8.5 55.328125 
Q 8.5 64.0625 14.71875 69.140625 
Q 20.953125 74.21875 31.78125 74.21875 
Q 42.671875 74.21875 48.875 69.140625 
Q 55.078125 64.0625 55.078125 55.328125 
Q 55.078125 49.078125 51.53125 44.71875 
Q 48 40.375 41.703125 38.8125 
Q 48.828125 37.15625 52.796875 32.3125 
Q 56.78125 27.484375 56.78125 20.515625 
Q 56.78125 9.90625 50.3125 4.234375 
Q 43.84375 -1.421875 31.78125 -1.421875 
Q 19.734375 -1.421875 13.25 4.234375 
Q 6.78125 9.90625 6.78125 20.515625 
Q 6.78125 27.484375 10.78125 32.3125 
Q 14.796875 37.15625 21.921875 38.8125 
z
M 18.3125 54.390625 
Q 18.3125 48.734375 21.84375 45.5625 
Q 25.390625 42.390625 31.78125 42.390625 
Q 38.140625 42.390625 41.71875 45.5625 
Q 45.3125 48.734375 45.3125 54.390625 
Q 45.3125 60.0625 41.71875 63.234375 
Q 38.140625 66.40625 31.78125 66.40625 
Q 25.390625 66.40625 21.84375 63.234375 
Q 18.3125 60.0625 18.3125 54.390625 
z
" id="DejaVuSans-38"/>
      </defs>
      <g transform="translate(23.675 72.812396)scale(0.16 -0.16)">
       <use xlink:href="#DejaVuSans-30"/>
       <use x="63.623047" xlink:href="#DejaVuSans-2e"/>
       <use x="95.410156" xlink:href="#DejaVuSans-38"/>
      </g>
     </g>
    </g>
    <g id="ytick_6">
     <g id="line2d_39">
      <path clip-path="url(#p8c4cc69bf8)" d="M 56.12 9.697057 
L 333.168 9.697057 
" style="fill:none;stroke:#b0b0b0;stroke-linecap:square;stroke-width:0.8;"/>
     </g>
     <g id="line2d_40">
      <g>
       <use style="stroke:#000000;stroke-width:0.8;" x="56.12" xlink:href="#m820b9e72a4" y="9.697057"/>
      </g>
     </g>
     <g id="text_11">
      <!-- 1.0 -->
      <g transform="translate(23.675 15.775807)scale(0.16 -0.16)">
       <use xlink:href="#DejaVuSans-31"/>
       <use x="63.623047" xlink:href="#DejaVuSans-2e"/>
       <use x="95.410156" xlink:href="#DejaVuSans-30"/>
      </g>
     </g>
    </g>
    <g id="text_12">
     <!-- Fraction of function,target pairs -->
     <defs>
      <path d="M 9.8125 72.90625 
L 51.703125 72.90625 
L 51.703125 64.59375 
L 19.671875 64.59375 
L 19.671875 43.109375 
L 48.578125 43.109375 
L 48.578125 34.8125 
L 19.671875 34.8125 
L 19.671875 0 
L 9.8125 0 
z
" id="DejaVuSans-46"/>
      <path d="M 41.109375 46.296875 
Q 39.59375 47.171875 37.8125 47.578125 
Q 36.03125 48 33.890625 48 
Q 26.265625 48 22.1875 43.046875 
Q 18.109375 38.09375 18.109375 28.8125 
L 18.109375 0 
L 9.078125 0 
L 9.078125 54.6875 
L 18.109375 54.6875 
L 18.109375 46.1875 
Q 20.953125 51.171875 25.484375 53.578125 
Q 30.03125 56 36.53125 56 
Q 37.453125 56 38.578125 55.875 
Q 39.703125 55.765625 41.0625 55.515625 
z
" id="DejaVuSans-72"/>
      <path d="M 48.78125 52.59375 
L 48.78125 44.1875 
Q 44.96875 46.296875 41.140625 47.34375 
Q 37.3125 48.390625 33.40625 48.390625 
Q 24.65625 48.390625 19.8125 42.84375 
Q 14.984375 37.3125 14.984375 27.296875 
Q 14.984375 17.28125 19.8125 11.734375 
Q 24.65625 6.203125 33.40625 6.203125 
Q 37.3125 6.203125 41.140625 7.25 
Q 44.96875 8.296875 48.78125 10.40625 
L 48.78125 2.09375 
Q 45.015625 0.34375 40.984375 -0.53125 
Q 36.96875 -1.421875 32.421875 -1.421875 
Q 20.0625 -1.421875 12.78125 6.34375 
Q 5.515625 14.109375 5.515625 27.296875 
Q 5.515625 40.671875 12.859375 48.328125 
Q 20.21875 56 33.015625 56 
Q 37.15625 56 41.109375 55.140625 
Q 45.0625 54.296875 48.78125 52.59375 
z
" id="DejaVuSans-63"/>
      <path d="M 18.3125 70.21875 
L 18.3125 54.6875 
L 36.8125 54.6875 
L 36.8125 47.703125 
L 18.3125 47.703125 
L 18.3125 18.015625 
Q 18.3125 11.328125 20.140625 9.421875 
Q 21.96875 7.515625 27.59375 7.515625 
L 36.8125 7.515625 
L 36.8125 0 
L 27.59375 0 
Q 17.1875 0 13.234375 3.875 
Q 9.28125 7.765625 9.28125 18.015625 
L 9.28125 47.703125 
L 2.6875 47.703125 
L 2.6875 54.6875 
L 9.28125 54.6875 
L 9.28125 70.21875 
z
" id="DejaVuSans-74"/>
      <path d="M 8.5 21.578125 
L 8.5 54.6875 
L 17.484375 54.6875 
L 17.484375 21.921875 
Q 17.484375 14.15625 20.5 10.265625 
Q 23.53125 6.390625 29.59375 6.390625 
Q 36.859375 6.390625 41.078125 11.03125 
Q 45.3125 15.671875 45.3125 23.6875 
L 45.3125 54.6875 
L 54.296875 54.6875 
L 54.296875 0 
L 45.3125 0 
L 45.3125 8.40625 
Q 42.046875 3.421875 37.71875 1 
Q 33.40625 -1.421875 27.6875 -1.421875 
Q 18.265625 -1.421875 13.375 4.4375 
Q 8.5 10.296875 8.5 21.578125 
z
M 31.109375 56 
z
" id="DejaVuSans-75"/>
      <path d="M 11.71875 12.40625 
L 22.015625 12.40625 
L 22.015625 4 
L 14.015625 -11.625 
L 7.71875 -11.625 
L 11.71875 4 
z
" id="DejaVuSans-2c"/>
      <path d="M 18.109375 8.203125 
L 18.109375 -20.796875 
L 9.078125 -20.796875 
L 9.078125 54.6875 
L 18.109375 54.6875 
L 18.109375 46.390625 
Q 20.953125 51.265625 25.265625 53.625 
Q 29.59375 56 35.59375 56 
Q 45.5625 56 51.78125 48.09375 
Q 58.015625 40.1875 58.015625 27.296875 
Q 58.015625 14.40625 51.78125 6.484375 
Q 45.5625 -1.421875 35.59375 -1.421875 
Q 29.59375 -1.421875 25.265625 0.953125 
Q 20.953125 3.328125 18.109375 8.203125 
z
M 48.6875 27.296875 
Q 48.6875 37.203125 44.609375 42.84375 
Q 40.53125 48.484375 33.40625 48.484375 
Q 26.265625 48.484375 22.1875 42.84375 
Q 18.109375 37.203125 18.109375 27.296875 
Q 18.109375 17.390625 22.1875 11.75 
Q 26.265625 6.109375 33.40625 6.109375 
Q 40.53125 6.109375 44.609375 11.75 
Q 48.6875 17.390625 48.6875 27.296875 
z
" id="DejaVuSans-70"/>
     </defs>
     <g transform="translate(16.139531 286.001989)rotate(-90)scale(0.17 -0.17)">
      <use xlink:href="#DejaVuSans-46"/>
      <use x="57.410156" xlink:href="#DejaVuSans-72"/>
      <use x="98.523438" xlink:href="#DejaVuSans-61"/>
      <use x="159.802734" xlink:href="#DejaVuSans-63"/>
      <use x="214.783203" xlink:href="#DejaVuSans-74"/>
      <use x="253.992188" xlink:href="#DejaVuSans-69"/>
      <use x="281.775391" xlink:href="#DejaVuSans-6f"/>
      <use x="342.957031" xlink:href="#DejaVuSans-6e"/>
      <use x="406.335938" xlink:href="#DejaVuSans-20"/>
      <use x="438.123047" xlink:href="#DejaVuSans-6f"/>
      <use x="499.304688" xlink:href="#DejaVuSans-66"/>
      <use x="534.509766" xlink:href="#DejaVuSans-20"/>
      <use x="566.296875" xlink:href="#DejaVuSans-66"/>
      <use x="601.501953" xlink:href="#DejaVuSans-75"/>
      <use x="664.880859" xlink:href="#DejaVuSans-6e"/>
      <use x="728.259766" xlink:href="#DejaVuSans-63"/>
      <use x="783.240234" xlink:href="#DejaVuSans-74"/>
      <use x="822.449219" xlink:href="#DejaVuSans-69"/>
      <use x="850.232422" xlink:href="#DejaVuSans-6f"/>
      <use x="911.414062" xlink:href="#DejaVuSans-6e"/>
      <use x="974.792969" xlink:href="#DejaVuSans-2c"/>
      <use x="1006.580078" xlink:href="#DejaVuSans-74"/>
      <use x="1045.789062" xlink:href="#DejaVuSans-61"/>
      <use x="1107.068359" xlink:href="#DejaVuSans-72"/>
      <use x="1148.166016" xlink:href="#DejaVuSans-67"/>
      <use x="1211.642578" xlink:href="#DejaVuSans-65"/>
      <use x="1273.166016" xlink:href="#DejaVuSans-74"/>
      <use x="1312.375" xlink:href="#DejaVuSans-20"/>
      <use x="1344.162109" xlink:href="#DejaVuSans-70"/>
      <use x="1407.638672" xlink:href="#DejaVuSans-61"/>
      <use x="1468.917969" xlink:href="#DejaVuSans-69"/>
      <use x="1496.701172" xlink:href="#DejaVuSans-72"/>
      <use x="1537.814453" xlink:href="#DejaVuSans-73"/>
     </g>
    </g>
   </g>
   <g id="line2d_41">
    <defs>
     <path d="M 0 1.5 
C 0.397805 1.5 0.77937 1.341951 1.06066 1.06066 
C 1.341951 0.77937 1.5 0.397805 1.5 0 
C 1.5 -0.397805 1.341951 -0.77937 1.06066 -1.06066 
C 0.77937 -1.341951 0.397805 -1.5 0 -1.5 
C -0.397805 -1.5 -0.77937 -1.341951 -1.06066 -1.06066 
C -1.341951 -0.77937 -1.5 -0.397805 -1.5 0 
C -1.5 0.397805 -1.341951 0.77937 -1.06066 1.06066 
C -0.77937 1.341951 -0.397805 1.5 0 1.5 
z
" id="mbcefcae631" style="stroke:#f5deb3;"/>
    </defs>
    <g>
     <use style="fill:#f5deb3;stroke:#f5deb3;" x="181.418426" xlink:href="#mbcefcae631" y="9.697057"/>
     <use style="fill:#f5deb3;stroke:#f5deb3;" x="181.418426" xlink:href="#mbcefcae631" y="9.697057"/>
    </g>
   </g>
   <g id="line2d_42">
    <defs>
     <path d="M 0 1.5 
C 0.397805 1.5 0.77937 1.341951 1.06066 1.06066 
C 1.341951 0.77937 1.5 0.397805 1.5 0 
C 1.5 -0.397805 1.341951 -0.77937 1.06066 -1.06066 
C 0.77937 -1.341951 0.397805 -1.5 0 -1.5 
C -0.397805 -1.5 -0.77937 -1.341951 -1.06066 -1.06066 
C -1.341951 -0.77937 -1.5 -0.397805 -1.5 0 
C -1.5 0.397805 -1.341951 0.77937 -1.06066 1.06066 
C -0.77937 1.341951 -0.397805 1.5 0 1.5 
z
" id="mefe6db7992" style="stroke:#000080;"/>
    </defs>
    <g>
     <use style="fill:#000080;stroke:#000080;" x="280.87728" xlink:href="#mefe6db7992" y="117.060047"/>
     <use style="fill:#000080;stroke:#000080;" x="280.87728" xlink:href="#mefe6db7992" y="117.060047"/>
    </g>
   </g>
   <g id="line2d_43">
    <path d="M 44.205749 294.88 
L 44.205749 284.143701 
L 68.034251 284.143701 
L 68.034251 280.229425 
L 77.653281 280.229425 
L 77.653281 278.328206 
L 83.784035 278.328206 
L 83.784035 275.867804 
L 88.293717 275.867804 
L 88.293717 274.749439 
L 91.862754 274.749439 
L 91.862754 273.854748 
L 94.816624 273.854748 
L 94.816624 273.742911 
L 97.336537 273.742911 
L 97.336537 273.631075 
L 99.533818 273.631075 
L 99.533818 271.729855 
L 101.481783 271.729855 
L 101.481783 271.282509 
L 103.231288 271.282509 
L 103.231288 270.611491 
L 104.819059 270.611491 
L 104.819059 270.387818 
L 106.272485 270.387818 
L 106.272485 270.164145 
L 107.612537 270.164145 
L 107.612537 269.493126 
L 108.85563 269.493126 
L 108.85563 268.822108 
L 110.014853 268.822108 
L 110.014853 268.598435 
L 111.100812 268.598435 
L 111.100812 267.368234 
L 112.122219 267.368234 
L 112.122219 267.256397 
L 113.086321 267.256397 
L 113.086321 266.585379 
L 113.999206 266.585379 
L 113.999206 266.026196 
L 114.866043 266.026196 
L 114.866043 265.802523 
L 115.691256 265.802523 
L 115.691256 265.131505 
L 116.478659 265.131505 
L 116.478659 264.572323 
L 117.231566 264.572323 
L 117.231566 264.236813 
L 117.952873 264.236813 
L 117.952873 263.901304 
L 118.645127 263.901304 
L 118.645127 263.677631 
L 119.310576 263.677631 
L 119.310576 263.453958 
L 119.95122 263.453958 
L 119.95122 263.006612 
L 120.568842 263.006612 
L 120.568842 262.671103 
L 121.741249 262.671103 
L 121.741249 262.335594 
L 122.298767 262.335594 
L 122.298767 262.223757 
L 123.36232 262.223757 
L 123.36232 262.000084 
L 123.870396 262.000084 
L 123.870396 261.776411 
L 124.363883 261.776411 
L 124.363883 261.440902 
L 125.310285 261.440902 
L 125.310285 260.88172 
L 125.764637 260.88172 
L 125.764637 260.658047 
L 126.207287 260.658047 
L 126.207287 260.210701 
L 127.05979 260.210701 
L 127.05979 260.098865 
L 127.872003 260.098865 
L 127.872003 259.987028 
L 128.264156 259.987028 
L 128.264156 259.763355 
L 128.647561 259.763355 
L 128.647561 258.868664 
L 129.022601 258.868664 
L 129.022601 258.644991 
L 129.389632 258.644991 
L 129.389632 257.862136 
L 129.748989 257.862136 
L 129.748989 257.526626 
L 130.100987 257.526626 
L 130.100987 256.743771 
L 130.445921 256.743771 
L 130.445921 256.520098 
L 130.784069 256.520098 
L 130.784069 255.51357 
L 131.115693 255.51357 
L 131.115693 254.618879 
L 131.441039 254.618879 
L 131.441039 253.612351 
L 131.760342 253.612351 
L 131.760342 253.388678 
L 132.073821 253.388678 
L 132.073821 253.276841 
L 132.381685 253.276841 
L 132.381685 252.605823 
L 132.684132 252.605823 
L 132.684132 251.934804 
L 132.98135 251.934804 
L 132.98135 251.375622 
L 133.273515 251.375622 
L 133.273515 250.816439 
L 133.560797 250.816439 
L 133.560797 250.704603 
L 134.121345 250.704603 
L 134.121345 250.48093 
L 134.39491 250.48093 
L 134.39491 250.369094 
L 134.664189 250.369094 
L 134.664189 250.033584 
L 134.929315 250.033584 
L 134.929315 249.809911 
L 135.447604 249.809911 
L 135.447604 249.698075 
L 135.701004 249.698075 
L 135.701004 249.362566 
L 135.950722 249.362566 
L 135.950722 249.250729 
L 136.196864 249.250729 
L 136.196864 249.027056 
L 136.439531 249.027056 
L 136.439531 248.91522 
L 136.67882 248.91522 
L 136.67882 248.803383 
L 136.914823 248.803383 
L 136.914823 248.57971 
L 137.827708 248.57971 
L 137.827708 248.356038 
L 138.04855 248.356038 
L 138.04855 248.132365 
L 138.266591 248.132365 
L 138.266591 248.020528 
L 138.694545 248.020528 
L 138.694545 247.796855 
L 138.904592 247.796855 
L 138.904592 247.34951 
L 139.112104 247.34951 
L 139.112104 246.678491 
L 139.317139 246.678491 
L 139.317139 246.566654 
L 139.720016 246.566654 
L 139.720016 246.007472 
L 139.917968 246.007472 
L 139.917968 245.895636 
L 140.113666 245.895636 
L 140.113666 245.671963 
L 140.498503 245.671963 
L 140.498503 245.44829 
L 140.687737 245.44829 
L 140.687737 245.000944 
L 140.874911 245.000944 
L 140.874911 244.889108 
L 141.060069 244.889108 
L 141.060069 244.441762 
L 141.603867 244.441762 
L 141.603867 244.329925 
L 141.781376 244.329925 
L 141.781376 244.218089 
L 142.303162 244.218089 
L 142.303162 244.106253 
L 142.473629 244.106253 
L 142.473629 243.994416 
L 143.139078 243.994416 
L 143.139078 243.88258 
L 143.462385 243.88258 
L 143.462385 243.658907 
L 143.621786 243.658907 
L 143.621786 243.54707 
L 143.936221 243.54707 
L 143.936221 243.211561 
L 144.091308 243.211561 
L 144.091308 243.099724 
L 144.548344 243.099724 
L 144.548344 242.764215 
L 144.698028 242.764215 
L 144.698028 242.540542 
L 144.993542 242.540542 
L 144.993542 242.316869 
L 145.4275 242.316869 
L 145.4275 241.086668 
L 145.710835 241.086668 
L 145.710835 240.751159 
L 145.85077 240.751159 
L 145.85077 240.639323 
L 145.989576 240.639323 
L 145.989576 240.303813 
L 146.263868 240.303813 
L 146.263868 240.08014 
L 146.533852 240.08014 
L 146.533852 239.744631 
L 146.667271 239.744631 
L 146.667271 239.409122 
L 146.799661 239.409122 
L 146.799661 239.297285 
L 147.446737 239.297285 
L 147.446737 238.067084 
L 147.57328 238.067084 
L 147.57328 237.843411 
L 147.698898 237.843411 
L 147.698898 237.731575 
L 147.823604 237.731575 
L 147.823604 237.619739 
L 148.070335 237.619739 
L 148.070335 237.396066 
L 148.192385 237.396066 
L 148.192385 237.172393 
L 148.313575 237.172393 
L 148.313575 237.060556 
L 148.55342 237.060556 
L 148.55342 236.725047 
L 148.789965 236.725047 
L 148.789965 236.501374 
L 148.907027 236.501374 
L 148.907027 235.942192 
L 149.023298 235.942192 
L 149.023298 235.718519 
L 149.253506 235.718519 
L 149.253506 235.606682 
L 149.480672 235.606682 
L 149.480672 235.38301 
L 149.593139 235.38301 
L 149.593139 234.935664 
L 149.704875 234.935664 
L 149.815889 234.040972 
L 149.926191 234.040972 
L 150.035789 233.034444 
L 150.252912 233.034444 
L 150.360453 232.251589 
L 150.573538 232.251589 
L 150.679098 231.91608 
L 151.094972 231.91608 
L 151.094972 231.692407 
L 151.299196 231.692407 
L 151.400405 231.021388 
L 151.601053 231.021388 
L 151.601053 230.685879 
L 151.799385 230.685879 
L 151.799385 230.574042 
L 151.995456 230.574042 
L 151.995456 230.462206 
L 152.381011 230.462206 
L 152.381011 230.350369 
L 152.664606 230.350369 
L 152.664606 230.238533 
L 153.035598 230.238533 
L 153.127109 230.01486 
L 153.30868 230.01486 
L 153.398752 229.567514 
L 153.488354 229.567514 
L 153.577492 229.120168 
L 153.666169 229.120168 
L 153.754391 228.896496 
L 153.842163 228.896496 
L 153.929489 228.560986 
L 154.016374 228.560986 
L 154.102822 228.225477 
L 154.274423 228.225477 
L 154.359586 227.778131 
L 154.528656 227.778131 
L 154.612571 227.107112 
L 155.269542 227.107112 
L 155.269542 226.995276 
L 155.902323 226.995276 
L 155.902323 226.88344 
L 156.2863 226.88344 
L 156.362076 226.54793 
L 156.661886 226.54793 
L 156.661886 226.436094 
L 157.317927 226.436094 
L 157.389299 226.212421 
L 157.601653 226.212421 
L 157.671858 225.653239 
L 157.811415 225.653239 
L 157.811415 225.205893 
L 157.949847 225.205893 
L 157.949847 225.094056 
L 158.291129 225.094056 
L 158.291129 224.423038 
L 158.559357 224.423038 
L 158.559357 224.311201 
L 158.757817 224.311201 
L 158.757817 224.087528 
L 159.466505 224.087528 
L 159.529506 223.752019 
L 159.592276 223.752019 
L 159.654819 223.528346 
L 159.717134 223.528346 
L 159.779224 223.192837 
L 159.841091 223.192837 
L 159.841091 223.081 
L 159.96416 223.081 
L 160.025366 222.745491 
L 160.086355 222.745491 
L 160.147128 222.409982 
L 160.207687 222.409982 
L 160.268033 221.51529 
L 160.328169 221.51529 
L 160.388094 220.844271 
L 160.447811 220.844271 
L 160.507322 220.620598 
L 160.566627 220.620598 
L 160.625729 220.285089 
L 160.743325 220.285089 
L 160.801823 219.837743 
L 161.148691 219.837743 
L 161.148691 219.61407 
L 161.376107 219.61407 
L 161.432494 219.054888 
L 162.256827 219.054888 
L 162.363811 218.831215 
L 162.417054 218.831215 
L 162.417054 218.719379 
L 163.04343 218.719379 
L 163.04343 218.607542 
L 163.196521 218.607542 
L 163.196521 218.495706 
L 163.64778 218.495706 
L 163.746471 217.712851 
L 164.279369 217.712851 
L 164.279369 217.601014 
L 164.421883 217.601014 
L 164.421883 217.489178 
L 165.117248 217.489178 
L 165.117248 217.377341 
L 165.432369 217.377341 
L 165.521353 216.929996 
L 165.565672 216.929996 
L 165.565672 216.818159 
L 166.045792 216.818159 
L 166.045792 216.48265 
L 166.344485 216.48265 
L 166.428881 216.14714 
L 167.290887 216.14714 
L 167.290887 216.035304 
L 167.764723 216.035304 
L 167.803626 215.699795 
L 167.881169 215.699795 
L 167.958364 215.252449 
L 167.996832 215.252449 
L 168.07351 214.805103 
L 168.149847 214.805103 
L 168.225847 214.469594 
L 168.263721 214.469594 
L 168.263721 214.357757 
L 168.376846 214.357757 
L 168.451851 213.910412 
L 168.931565 213.910412 
L 169.040393 212.009192 
L 169.076516 212.009192 
L 169.148535 211.561846 
L 169.220254 211.561846 
L 169.327275 211.226337 
L 169.398253 211.226337 
L 169.398253 210.443482 
L 169.887063 210.443482 
L 169.887063 210.331645 
L 170.126351 210.331645 
L 170.126351 210.219809 
L 170.462515 210.219809 
L 170.462515 210.107972 
L 171.243458 210.107972 
L 171.243458 209.996136 
L 171.589867 209.996136 
L 171.621015 209.772463 
L 172.589076 209.772463 
L 172.589076 209.436954 
L 173.195967 209.436954 
L 173.195967 209.213281 
L 173.449644 209.213281 
L 173.4776 208.877771 
L 173.699631 208.877771 
L 173.699631 208.765935 
L 174.108362 208.765935 
L 174.108362 208.542262 
L 174.349016 208.542262 
L 174.349016 207.98308 
L 174.923475 207.98308 
L 174.949136 207.64757 
L 175.051398 207.64757 
L 175.153056 206.976552 
L 175.178377 206.976552 
L 175.279289 206.305533 
L 175.304425 206.305533 
L 175.404602 205.746351 
L 175.504198 205.746351 
L 175.553781 205.075332 
L 175.945376 205.075332 
L 176.041896 204.851659 
L 177.069318 204.851659 
L 177.069318 204.739823 
L 177.494671 204.739823 
L 177.538839 204.51615 
L 177.931324 204.51615 
L 177.931324 204.404313 
L 178.166837 204.404313 
L 178.166837 204.292477 
L 178.420133 204.292477 
L 178.482878 203.733295 
L 178.566184 203.733295 
L 178.566184 203.621458 
L 179.138283 203.621458 
L 179.138283 203.285949 
L 179.574801 203.285949 
L 179.574801 203.062276 
L 180.190579 203.062276 
L 180.266023 202.279421 
L 180.303621 202.279421 
L 180.397258 201.272893 
L 180.415925 201.272893 
L 180.490388 200.601874 
L 180.527499 200.601874 
L 180.527499 200.490038 
L 181.092706 200.490038 
L 181.199986 199.819019 
L 181.217801 199.819019 
L 181.324306 198.476982 
L 181.341993 198.476982 
L 181.412559 196.799435 
L 181.50036 196.799435 
L 181.605134 196.575762 
L 182.321194 196.575762 
L 182.387859 196.240253 
L 182.928204 196.240253 
L 182.928204 196.128416 
L 183.200072 196.128416 
L 183.215931 195.904743 
L 183.869136 195.904743 
L 183.960457 195.457398 
L 184.804634 195.457398 
L 184.862347 194.786379 
L 185.03433 194.786379 
L 185.105485 193.779851 
L 185.162197 193.779851 
L 185.232826 192.996996 
L 185.54019 192.996996 
L 185.623071 192.437813 
L 185.705555 192.437813 
L 185.814921 190.760267 
L 185.842154 190.760267 
L 185.910049 189.530066 
L 186.004653 189.530066 
L 186.004653 189.418229 
L 186.258841 189.418229 
L 186.258841 189.306393 
L 186.39113 189.306393 
L 186.39113 189.194556 
L 186.910333 189.194556 
L 186.935886 188.970884 
L 187.050406 188.970884 
L 187.151566 187.964356 
L 187.164169 187.964356 
L 187.264663 186.957828 
L 187.277184 186.957828 
L 187.302197 186.398645 
L 188.426881 186.398645 
L 188.50863 185.727627 
L 188.543547 185.727627 
L 188.647873 184.609262 
L 188.659426 184.609262 
L 188.740078 183.379061 
L 188.968451 183.379061 
L 189.070238 182.48437 
L 189.160211 182.48437 
L 189.249716 181.925187 
L 189.27202 181.925187 
L 189.383106 180.023968 
L 189.394175 180.023968 
L 189.47146 179.464785 
L 189.581269 179.464785 
L 189.581269 179.352949 
L 190.528844 179.352949 
L 190.528844 179.241113 
L 190.724542 179.241113 
L 190.826653 177.228057 
L 190.836831 177.228057 
L 190.857168 176.221528 
L 190.978691 176.221528 
L 191.049184 175.886019 
L 191.387528 175.886019 
L 191.495581 175.662346 
L 191.709672 175.662346 
L 191.748312 175.215 
L 192.016391 175.215 
L 192.092224 174.991328 
L 192.177137 174.991328 
L 192.280354 174.543982 
L 192.289706 174.543982 
L 192.317734 174.208472 
L 192.438661 174.208472 
L 192.512657 173.64929 
L 192.558743 173.64929 
L 192.558743 173.537454 
L 192.841753 173.537454 
L 192.950066 171.859907 
L 192.959061 171.859907 
L 193.039808 170.406033 
L 193.084504 170.406033 
L 193.191303 169.623178 
L 193.226756 169.623178 
L 193.297443 168.61665 
L 193.385394 168.61665 
L 193.464168 167.833795 
L 193.542582 167.833795 
L 193.542582 167.610122 
L 193.655219 167.610122 
L 193.698345 167.386449 
L 193.878302 167.386449 
L 193.895343 167.162776 
L 194.224309 167.162776 
L 194.274365 166.603594 
L 194.34088 166.603594 
L 194.34088 166.491757 
L 194.538895 166.491757 
L 194.538895 166.379921 
L 194.944242 166.379921 
L 195.03215 165.932575 
L 195.19084 165.932575 
L 195.269639 165.597066 
L 195.46507 165.597066 
L 195.46507 165.485229 
L 195.734994 165.485229 
L 195.734994 165.373393 
L 195.894936 165.373393 
L 195.993208 165.14972 
L 196.549443 165.14972 
L 196.658562 164.814211 
L 196.795792 164.814211 
L 196.795792 164.702374 
L 196.939071 164.702374 
L 197.017369 164.255029 
L 197.165863 164.255029 
L 197.165863 164.143192 
L 197.576322 164.143192 
L 197.644931 163.919519 
L 198.336103 163.919519 
L 198.336103 163.807683 
L 198.454088 163.807683 
L 198.467147 163.360337 
L 198.687656 163.360337 
L 198.796859 162.912991 
L 199.044791 162.912991 
L 199.044791 162.801155 
L 199.195606 162.801155 
L 199.282975 162.0183 
L 199.40084 162.0183 
L 199.493324 161.347281 
L 199.536314 161.347281 
L 199.585313 160.899935 
L 199.670728 160.899935 
L 199.725414 160.564426 
L 199.798059 160.564426 
L 199.882425 160.228916 
L 200.091548 160.228916 
L 200.198113 159.669734 
L 200.21581 159.669734 
L 200.21581 159.557898 
L 200.542852 159.557898 
L 200.565976 159.334225 
L 200.846745 159.334225 
L 200.954393 158.998715 
L 200.982609 158.998715 
L 201.072593 158.663206 
L 201.095015 158.663206 
L 201.162107 157.880351 
L 201.499168 157.880351 
L 201.597379 157.656678 
L 202.101334 157.656678 
L 202.180402 157.433005 
L 202.290491 157.433005 
L 202.316599 157.209332 
L 202.662673 157.209332 
L 202.662673 157.097496 
L 202.80019 157.097496 
L 202.80019 156.873823 
L 202.926546 156.873823 
L 202.926546 156.761987 
L 203.116847 156.761987 
L 203.18643 156.314641 
L 203.231013 156.314641 
L 203.324756 155.643622 
L 203.344427 155.643622 
L 203.427776 155.308113 
L 203.476616 155.308113 
L 203.564181 155.08444 
L 203.612636 155.08444 
L 203.694698 154.74893 
L 203.737984 154.74893 
L 203.843338 154.413421 
L 203.94805 154.413421 
L 203.990704 153.854239 
L 204.080405 153.854239 
L 204.094525 153.630566 
L 204.323534 153.630566 
L 204.402278 153.295057 
L 204.44843 153.295057 
L 204.540365 152.624038 
L 204.709158 152.624038 
L 204.777118 152.288529 
L 204.87631 152.288529 
L 204.970461 151.505673 
L 204.988337 151.505673 
L 205.059653 151.282001 
L 205.108512 151.282001 
L 205.214633 150.610982 
L 205.232256 150.610982 
L 205.324483 149.939963 
L 205.346369 149.939963 
L 205.368228 149.604454 
L 205.649885 149.604454 
L 205.697096 149.268944 
L 205.77834 149.268944 
L 205.854954 148.821599 
L 205.910076 148.821599 
L 205.965021 148.15058 
L 206.336538 148.15058 
L 206.336538 148.038744 
L 206.488657 148.038744 
L 206.598819 147.703234 
L 206.602886 147.703234 
L 206.712321 146.24936 
L 206.720399 146.24936 
L 206.720399 145.913851 
L 206.841125 145.913851 
L 206.941087 145.354669 
L 207.170782 145.354669 
L 207.170782 145.242832 
L 207.307921 145.242832 
L 207.307921 145.130996 
L 207.432355 145.130996 
L 207.48265 144.795487 
L 207.766175 144.795487 
L 207.819293 144.124468 
L 207.898663 144.124468 
L 207.996425 143.677122 
L 208.011416 143.677122 
L 208.011416 143.565286 
L 208.359997 143.565286 
L 208.359997 143.453449 
L 208.643973 143.453449 
L 208.66923 143.229776 
L 208.941087 143.229776 
L 209.022519 142.894267 
L 209.163227 142.894267 
L 209.201721 142.670594 
L 209.441235 142.670594 
L 209.520337 142.446921 
L 209.554616 142.446921 
L 209.64683 141.999575 
L 209.752098 141.999575 
L 209.752098 141.887739 
L 209.94064 141.887739 
L 210.04413 141.55223 
L 210.305077 141.55223 
L 210.305077 141.440393 
L 210.633026 141.440393 
L 210.716445 140.769374 
L 210.77715 140.769374 
L 210.882079 140.098356 
L 210.916913 140.098356 
L 211.011559 139.874683 
L 211.068097 139.874683 
L 211.146315 139.65101 
L 211.378856 139.65101 
L 211.483247 139.315501 
L 211.507717 139.315501 
L 211.602214 139.091828 
L 211.69317 139.091828 
L 211.79868 138.868155 
L 211.807694 138.868155 
L 211.90056 138.644482 
L 211.92146 138.644482 
L 211.963185 138.420809 
L 212.081844 138.420809 
L 212.182064 137.861627 
L 212.281702 137.861627 
L 212.383672 137.302445 
L 212.409795 137.302445 
L 212.415595 137.078772 
L 212.562832 137.078772 
L 212.663153 136.519589 
L 212.674581 136.519589 
L 212.711669 136.295916 
L 212.836609 136.295916 
L 212.836609 136.18408 
L 212.960647 136.18408 
L 213.027929 135.736734 
L 213.128361 135.736734 
L 213.178357 135.401225 
L 213.297208 135.401225 
L 213.34397 134.953879 
L 213.497116 134.953879 
L 213.499838 134.730206 
L 213.705487 134.730206 
L 213.721618 134.506533 
L 213.863456 134.506533 
L 213.964436 133.947351 
L 214.014704 133.947351 
L 214.122679 133.723678 
L 214.135801 133.723678 
L 214.21432 133.276332 
L 214.388394 133.276332 
L 214.442594 133.052659 
L 214.982888 133.052659 
L 215.002853 132.828987 
L 215.225881 132.828987 
L 215.333873 132.605314 
L 215.372975 132.605314 
L 215.372975 132.493477 
L 215.547842 132.493477 
L 215.617775 132.269804 
L 215.692218 132.269804 
L 215.711377 132.046131 
L 215.842519 132.046131 
L 215.842519 131.934295 
L 216.015048 131.934295 
L 216.015048 131.822459 
L 216.162564 131.822459 
L 216.2254 131.486949 
L 216.345773 131.486949 
L 216.44468 131.263276 
L 216.654402 131.263276 
L 216.751554 131.039603 
L 216.89961 131.039603 
L 216.89961 130.927767 
L 217.055258 130.927767 
L 217.055258 130.815931 
L 217.244574 130.815931 
L 217.244574 130.704094 
L 217.520385 130.704094 
L 217.59348 130.480421 
L 217.891224 130.480421 
L 217.973257 130.144912 
L 218.031911 130.144912 
L 218.031911 130.033075 
L 218.2191 130.033075 
L 218.2191 129.921239 
L 218.412457 129.921239 
L 218.412457 129.809402 
L 218.726613 129.809402 
L 218.726613 129.697566 
L 218.920333 129.697566 
L 218.920333 129.58573 
L 219.231276 129.58573 
L 219.231276 129.473893 
L 219.438701 129.473893 
L 219.438701 129.362057 
L 219.626508 129.362057 
L 219.717752 128.914711 
L 219.755628 128.914711 
L 219.829246 128.691038 
L 220.224005 128.691038 
L 220.225846 128.467365 
L 220.410754 128.467365 
L 220.456217 128.243692 
L 220.670992 128.243692 
L 220.767574 128.020019 
L 220.828108 128.020019 
L 220.911437 127.68451 
L 220.94501 127.68451 
L 220.94501 127.572674 
L 221.148566 127.572674 
L 221.204298 127.349001 
L 221.380747 127.349001 
L 221.380747 127.237164 
L 221.643765 127.237164 
L 221.643765 127.125328 
L 221.921174 127.125328 
L 221.921174 127.013491 
L 222.266252 127.013491 
L 222.352669 126.789818 
L 222.966139 126.789818 
L 222.966139 126.677982 
L 223.438263 126.677982 
L 223.438263 126.566145 
L 224.03989 126.566145 
L 224.03989 126.454309 
L 224.493844 126.454309 
L 224.493844 126.342473 
L 225.374118 126.342473 
L 225.374118 126.230636 
L 225.636765 126.230636 
L 225.739909 126.006963 
L 225.769266 126.006963 
L 225.769266 125.895127 
L 226.404023 125.895127 
L 226.404023 125.78329 
L 226.567709 125.78329 
L 226.567709 125.671454 
L 227.068171 125.671454 
L 227.068171 125.559617 
L 227.373263 125.559617 
L 227.373263 125.447781 
L 227.497899 125.447781 
L 227.578491 125.224108 
L 227.694503 125.224108 
L 227.791968 124.888599 
L 227.962973 124.888599 
L 227.984083 124.664926 
L 228.118344 124.664926 
L 228.118344 124.553089 
L 228.400928 124.553089 
L 228.400928 124.441253 
L 228.903716 124.441253 
L 228.903716 124.329417 
L 229.475163 124.329417 
L 229.475163 124.21758 
L 229.652639 124.21758 
L 229.652639 124.105744 
L 231.233714 124.105744 
L 231.254075 123.882071 
L 231.39305 123.882071 
L 231.39305 123.770234 
L 231.518509 123.770234 
L 231.518509 123.658398 
L 232.061382 123.658398 
L 232.061382 123.546561 
L 232.22517 123.546561 
L 232.22517 123.434725 
L 232.389225 123.434725 
L 232.468864 123.211052 
L 233.11739 123.211052 
L 233.179877 122.987379 
L 233.522952 122.987379 
L 233.522952 122.875543 
L 235.021578 122.875543 
L 235.021578 122.763706 
L 235.227364 122.763706 
L 235.227364 122.65187 
L 235.439074 122.65187 
L 235.458812 122.428197 
L 235.562446 122.428197 
L 235.562446 122.31636 
L 237.158732 122.31636 
L 237.247848 122.092688 
L 238.050654 122.092688 
L 238.152798 121.869015 
L 238.178725 121.869015 
L 238.178725 121.757178 
L 238.323841 121.757178 
L 238.350795 121.533505 
L 238.507184 121.533505 
L 238.507184 121.421669 
L 238.652086 121.421669 
L 238.698021 121.197996 
L 239.055615 121.197996 
L 239.165434 120.974323 
L 239.651413 120.974323 
L 239.651413 120.862487 
L 241.111891 120.862487 
L 241.111891 120.75065 
L 241.37741 120.75065 
L 241.37741 120.638814 
L 242.954138 120.638814 
L 242.954138 120.526977 
L 243.232967 120.526977 
L 243.232967 120.415141 
L 243.68645 120.415141 
L 243.68645 120.303304 
L 244.413185 120.303304 
L 244.413185 120.191468 
L 245.261661 120.191468 
L 245.261661 120.079632 
L 246.313217 120.079632 
L 246.313217 119.967795 
L 247.066729 119.967795 
L 247.066729 119.855959 
L 247.60468 119.855959 
L 247.60468 119.744122 
L 248.482424 119.744122 
L 248.482424 119.632286 
L 248.723637 119.632286 
L 248.797475 119.408613 
L 249.678904 119.408613 
L 249.678904 119.296776 
L 250.744256 119.296776 
L 250.744256 119.18494 
L 251.340563 119.18494 
L 251.340563 119.073103 
L 252.026324 119.073103 
L 252.026324 118.961267 
L 252.703308 118.961267 
L 252.703308 118.849431 
L 252.834956 118.849431 
L 252.834956 118.737594 
L 253.237446 118.737594 
L 253.237446 118.625758 
L 253.605402 118.625758 
L 253.669959 118.402085 
L 254.27767 118.402085 
L 254.27767 118.290248 
L 257.103195 118.290248 
L 257.103195 118.178412 
L 259.42617 118.178412 
L 259.42617 118.066575 
L 259.973007 118.066575 
L 259.973007 117.954739 
L 261.447848 117.954739 
L 261.447848 117.842903 
L 262.149293 117.842903 
L 262.187471 117.61923 
L 263.249944 117.61923 
L 263.249944 117.507393 
L 264.735765 117.507393 
L 264.735765 117.395557 
L 268.239772 117.395557 
L 268.239772 117.28372 
L 277.521524 117.28372 
L 277.521524 117.171884 
L 280.87728 117.171884 
L 280.87728 117.060047 
L 333.168 117.060047 
L 333.168 117.060047 
" style="fill:none;stroke:#000080;stroke-linecap:square;stroke-width:1.5;"/>
   </g>
   <g id="line2d_44">
    <defs>
     <path d="M 0 6 
C 1.591219 6 3.117479 5.367802 4.242641 4.242641 
C 5.367802 3.117479 6 1.591219 6 0 
C 6 -1.591219 5.367802 -3.117479 4.242641 -4.242641 
C 3.117479 -5.367802 1.591219 -6 0 -6 
C -1.591219 -6 -3.117479 -5.367802 -4.242641 -4.242641 
C -5.367802 -3.117479 -6 -1.591219 -6 0 
C -6 1.591219 -5.367802 3.117479 -4.242641 4.242641 
C -3.117479 5.367802 -1.591219 6 0 6 
z
" id="mb1df7f48f6" style="stroke:#000080;stroke-width:1.5;"/>
    </defs>
    <g>
     <use style="fill:none;stroke:#000080;stroke-width:1.5;" x="129.022601" xlink:href="#mb1df7f48f6" y="258.644991"/>
     <use style="fill:none;stroke:#000080;stroke-width:1.5;" x="176.041896" xlink:href="#mb1df7f48f6" y="204.963496"/>
     <use style="fill:none;stroke:#000080;stroke-width:1.5;" x="228.400928" xlink:href="#mb1df7f48f6" y="124.441253"/>
     <use style="fill:none;stroke:#000080;stroke-width:1.5;" x="280.87728" xlink:href="#mb1df7f48f6" y="117.171884"/>
     <use style="fill:none;stroke:#000080;stroke-width:1.5;" x="280.87728" xlink:href="#mb1df7f48f6" y="117.060047"/>
     <use style="fill:none;stroke:#000080;stroke-width:1.5;" x="333.168" xlink:href="#mb1df7f48f6" y="117.060047"/>
    </g>
   </g>
   <g id="line2d_45">
    <path style="fill:none;stroke:#000080;stroke-linecap:square;stroke-width:1.5;"/>
    <g/>
   </g>
   <g id="line2d_46">
    <path clip-path="url(#p8c4cc69bf8)" d="M 191.065926 175.886019 
" style="fill:none;stroke:#000080;stroke-linecap:square;stroke-width:1.5;"/>
    <defs>
     <path d="M -12 12 
L 12 -12 
M -12 -12 
L 12 12 
" id="me123e81ff8" style="stroke:#000080;"/>
    </defs>
    <g clip-path="url(#p8c4cc69bf8)">
     <use style="fill:#000080;stroke:#000080;" x="191.065926" xlink:href="#me123e81ff8" y="175.886019"/>
    </g>
   </g>
   <g id="line2d_47">
    <defs>
     <path d="M 0 1.5 
C 0.397805 1.5 0.77937 1.341951 1.06066 1.06066 
C 1.341951 0.77937 1.5 0.397805 1.5 0 
C 1.5 -0.397805 1.341951 -0.77937 1.06066 -1.06066 
C 0.77937 -1.341951 0.397805 -1.5 0 -1.5 
C -0.397805 -1.5 -0.77937 -1.341951 -1.06066 -1.06066 
C -1.341951 -0.77937 -1.5 -0.397805 -1.5 0 
C -1.5 0.397805 -1.341951 0.77937 -1.06066 1.06066 
C -0.77937 1.341951 -0.397805 1.5 0 1.5 
z
" id="mc2ef99757e" style="stroke:#ff00ff;"/>
    </defs>
    <g>
     <use style="fill:#ff00ff;stroke:#ff00ff;" x="199.534269" xlink:href="#mc2ef99757e" y="243.435234"/>
     <use style="fill:#ff00ff;stroke:#ff00ff;" x="199.534269" xlink:href="#mc2ef99757e" y="243.435234"/>
    </g>
   </g>
   <g id="line2d_48">
    <path d="M 44.205749 294.88 
L 44.205749 270.387818 
L 68.034251 270.387818 
L 68.034251 270.275981 
L 71.869783 270.275981 
L 71.869783 270.164145 
L 75.003641 270.164145 
L 75.003641 269.940472 
L 77.653281 269.940472 
L 77.653281 269.269453 
L 79.948502 269.269453 
L 79.948502 268.598435 
L 81.973032 268.598435 
L 81.973032 267.144561 
L 83.784035 267.144561 
L 83.784035 266.138033 
L 85.422286 266.138033 
L 85.422286 264.684159 
L 86.917893 264.684159 
L 86.917893 264.460486 
L 88.293717 264.460486 
L 88.293717 264.34865 
L 89.567532 264.34865 
L 89.567532 264.236813 
L 90.753425 264.236813 
L 90.753425 264.124977 
L 91.862754 264.124977 
L 91.862754 264.01314 
L 92.904808 264.01314 
L 92.904808 263.565795 
L 93.887283 263.565795 
L 93.887283 263.453958 
L 94.816624 263.453958 
L 94.816624 263.230285 
L 95.698286 263.230285 
L 95.698286 262.894776 
L 96.536922 262.894776 
L 96.536922 262.335594 
L 97.336537 262.335594 
L 97.336537 261.552738 
L 98.100602 261.552738 
L 98.100602 260.769883 
L 98.832144 260.769883 
L 98.832144 260.658047 
L 99.533818 260.658047 
L 99.533818 260.434374 
L 100.207968 260.434374 
L 100.207968 260.322538 
L 100.856673 260.322538 
L 100.856673 260.210701 
L 101.481783 260.210701 
L 101.481783 260.098865 
L 105.801534 260.098865 
L 105.801534 259.987028 
L 109.250788 259.987028 
L 109.250788 259.875192 
L 109.637066 259.875192 
L 109.637066 259.539682 
L 111.100812 259.539682 
L 111.100812 259.427846 
L 111.448069 259.427846 
L 111.448069 259.204173 
L 111.788449 259.204173 
L 111.788449 259.092337 
L 112.122219 259.092337 
L 112.122219 258.9805 
L 112.770924 258.9805 
L 112.770924 258.756827 
L 113.086321 258.756827 
L 113.086321 258.644991 
L 114.293036 258.644991 
L 114.293036 258.533154 
L 115.145539 258.533154 
L 115.145539 258.421318 
L 116.220179 258.421318 
L 116.220179 258.197645 
L 117.231566 258.197645 
L 117.231566 257.973972 
L 117.952873 257.973972 
L 117.952873 257.862136 
L 118.645127 257.862136 
L 118.645127 257.638463 
L 119.310576 257.638463 
L 119.310576 257.41479 
L 120.15957 257.41479 
L 120.15957 257.302953 
L 120.365424 257.302953 
L 120.365424 257.191117 
L 120.568842 257.191117 
L 120.568842 257.079281 
L 121.359263 257.079281 
L 121.359263 256.855608 
L 122.480659 256.855608 
L 122.480659 256.743771 
L 123.533353 256.743771 
L 123.533353 256.631935 
L 124.200956 256.631935 
L 124.200956 256.408262 
L 124.685175 256.408262 
L 124.685175 256.296425 
L 124.843597 256.296425 
L 124.843597 256.184589 
L 125.156126 256.184589 
L 125.156126 255.960916 
L 125.310285 255.960916 
L 125.310285 255.84908 
L 125.463074 255.84908 
L 125.463074 255.625407 
L 125.764637 255.625407 
L 125.764637 255.51357 
L 126.061 255.51357 
L 126.061 255.401734 
L 126.207287 255.401734 
L 126.207287 255.289897 
L 126.780294 255.289897 
L 126.780294 255.178061 
L 126.92061 255.178061 
L 126.92061 254.954388 
L 127.05979 254.954388 
L 127.05979 254.842552 
L 127.334814 254.842552 
L 127.334814 254.730715 
L 127.872003 254.730715 
L 127.872003 254.618879 
L 128.264156 254.618879 
L 128.264156 254.507042 
L 128.898495 254.507042 
L 128.898495 254.395206 
L 129.022601 254.395206 
L 129.022601 254.283369 
L 129.867125 254.283369 
L 129.867125 254.171533 
L 129.984454 254.171533 
L 129.984454 254.059696 
L 130.784069 254.059696 
L 130.784069 253.724187 
L 131.760342 253.724187 
L 131.865471 253.500514 
L 132.483094 253.500514 
L 132.483094 253.388678 
L 132.98135 253.388678 
L 132.98135 253.276841 
L 133.749684 253.276841 
L 133.749684 253.053168 
L 134.029181 253.053168 
L 134.029181 252.829495 
L 134.304205 252.829495 
L 134.39491 252.605823 
L 135.190413 252.605823 
L 135.276571 252.38215 
L 135.532486 252.38215 
L 135.532486 252.270313 
L 135.867885 252.270313 
L 135.867885 252.158477 
L 136.359022 252.158477 
L 136.359022 252.04664 
L 137.528768 252.04664 
L 137.528768 251.934804 
L 138.764847 251.934804 
L 138.834862 251.711131 
L 139.112104 251.711131 
L 139.112104 251.599295 
L 139.249066 251.599295 
L 139.249066 251.487458 
L 139.384945 251.487458 
L 139.384945 251.375622 
L 139.917968 251.375622 
L 139.983449 251.151949 
L 141.544287 251.151949 
L 141.603867 250.928276 
L 141.72241 250.928276 
L 141.72241 250.816439 
L 141.898705 250.816439 
L 141.898705 250.704603 
L 142.245962 250.704603 
L 142.245962 250.592767 
L 142.530078 250.592767 
L 142.530078 250.48093 
L 142.642422 250.48093 
L 142.642422 250.369094 
L 142.754037 250.369094 
L 142.754037 250.257257 
L 143.084598 250.257257 
L 143.084598 250.145421 
L 144.346715 250.145421 
L 144.346715 250.033584 
L 145.804252 250.033584 
L 145.804252 249.921748 
L 147.947413 249.921748 
L 147.947413 249.809911 
L 148.192385 249.809911 
L 148.192385 249.698075 
L 149.100377 249.698075 
L 149.100377 249.586238 
L 149.480672 249.586238 
L 149.518243 249.362566 
L 150.288834 249.362566 
L 150.288834 249.250729 
L 150.467326 249.250729 
L 150.467326 249.138893 
L 151.332999 249.138893 
L 151.332999 249.027056 
L 152.060318 249.027056 
L 152.092658 248.803383 
L 152.28543 248.803383 
L 152.28543 248.691547 
L 152.539141 248.691547 
L 152.539141 248.57971 
L 152.88199 248.57971 
L 152.88199 248.467874 
L 153.187846 248.467874 
L 153.187846 248.356038 
L 153.812956 248.356038 
L 153.812956 248.244201 
L 154.274423 248.244201 
L 154.274423 248.132365 
L 154.500593 248.132365 
L 154.500593 248.020528 
L 154.751526 248.020528 
L 154.751526 247.908692 
L 154.889367 247.908692 
L 154.889367 247.796855 
L 155.18878 247.796855 
L 155.18878 247.685019 
L 155.562461 247.685019 
L 155.615187 247.461346 
L 155.824488 247.461346 
L 155.824488 247.34951 
L 155.979808 247.34951 
L 155.979808 247.237673 
L 158.779727 247.237673 
L 158.779727 247.125837 
L 160.348167 247.125837 
L 160.348167 247.014 
L 161.73014 247.014 
L 161.73014 246.902164 
L 162.888963 246.902164 
L 162.888963 246.790327 
L 163.631276 246.790327 
L 163.631276 246.678491 
L 164.327005 246.678491 
L 164.342854 246.454818 
L 165.14751 246.454818 
L 165.14751 246.342981 
L 165.668643 246.342981 
L 165.668643 246.231145 
L 166.831054 246.231145 
L 166.940362 245.895636 
L 169.08854 245.895636 
L 169.08854 245.783799 
L 169.679273 245.783799 
L 169.679273 245.671963 
L 170.20538 245.671963 
L 170.20538 245.560126 
L 171.91924 245.560126 
L 171.91924 245.44829 
L 173.402948 245.44829 
L 173.402948 245.336453 
L 173.533377 245.336453 
L 173.533377 245.224617 
L 173.773008 245.224617 
L 173.773008 245.112781 
L 173.909752 245.112781 
L 173.909752 245.000944 
L 174.322443 245.000944 
L 174.322443 244.889108 
L 175.799571 244.889108 
L 175.799571 244.777271 
L 176.344017 244.777271 
L 176.399096 244.553598 
L 176.802822 244.553598 
L 176.802822 244.441762 
L 177.144707 244.441762 
L 177.144707 244.329925 
L 179.93668 244.329925 
L 179.93668 244.218089 
L 181.772604 244.218089 
L 181.772604 244.106253 
L 182.492888 244.106253 
L 182.602755 243.88258 
L 183.462499 243.88258 
L 183.462499 243.770743 
L 184.644919 243.770743 
L 184.644919 243.658907 
L 187.766617 243.658907 
L 187.766617 243.54707 
L 199.534269 243.54707 
L 199.534269 243.435234 
L 333.168 243.435234 
L 333.168 243.435234 
" style="fill:none;stroke:#ff00ff;stroke-linecap:square;stroke-width:1.5;"/>
   </g>
   <g id="line2d_49">
    <defs>
     <path d="M -0 8.485281 
L 5.091169 0 
L 0 -8.485281 
L -5.091169 -0 
z
" id="mdc3be1ad6c" style="stroke:#ff00ff;stroke-linejoin:miter;stroke-width:1.5;"/>
    </defs>
    <g>
     <use style="fill:none;stroke:#ff00ff;stroke-linejoin:miter;stroke-width:1.5;" x="126.207287" xlink:href="#mdc3be1ad6c" y="255.289897"/>
     <use style="fill:none;stroke:#ff00ff;stroke-linejoin:miter;stroke-width:1.5;" x="182.492888" xlink:href="#mdc3be1ad6c" y="244.106253"/>
     <use style="fill:none;stroke:#ff00ff;stroke-linejoin:miter;stroke-width:1.5;" x="199.534269" xlink:href="#mdc3be1ad6c" y="243.435234"/>
     <use style="fill:none;stroke:#ff00ff;stroke-linejoin:miter;stroke-width:1.5;" x="199.534269" xlink:href="#mdc3be1ad6c" y="243.435234"/>
     <use style="fill:none;stroke:#ff00ff;stroke-linejoin:miter;stroke-width:1.5;" x="199.534269" xlink:href="#mdc3be1ad6c" y="243.435234"/>
     <use style="fill:none;stroke:#ff00ff;stroke-linejoin:miter;stroke-width:1.5;" x="333.168" xlink:href="#mdc3be1ad6c" y="243.435234"/>
    </g>
   </g>
   <g id="line2d_50">
    <path style="fill:none;stroke:#ff00ff;stroke-linecap:square;stroke-width:1.5;"/>
    <g/>
   </g>
   <g id="line2d_51">
    <path clip-path="url(#p8c4cc69bf8)" d="M 114.581927 258.533154 
" style="fill:none;stroke:#ff00ff;stroke-linecap:square;stroke-width:1.5;"/>
    <defs>
     <path d="M -12 12 
L 12 -12 
M -12 -12 
L 12 12 
" id="m830e377d3a" style="stroke:#ff00ff;"/>
    </defs>
    <g clip-path="url(#p8c4cc69bf8)">
     <use style="fill:#ff00ff;stroke:#ff00ff;" x="114.581927" xlink:href="#m830e377d3a" y="258.533154"/>
    </g>
   </g>
   <g id="line2d_52">
    <path d="M 333.168 243.435234 
L 363.64328 289.176341 
" style="fill:none;stroke:#ff00ff;stroke-linecap:square;stroke-width:1.5;"/>
    <g>
     <use style="fill:none;stroke:#ff00ff;stroke-linejoin:miter;stroke-width:1.5;" x="333.168" xlink:href="#mdc3be1ad6c" y="243.435234"/>
     <use style="fill:none;stroke:#ff00ff;stroke-linejoin:miter;stroke-width:1.5;" x="363.64328" xlink:href="#mdc3be1ad6c" y="289.176341"/>
    </g>
   </g>
   <g id="line2d_53">
    <path d="M 333.168 117.060047 
L 363.64328 152.288529 
" style="fill:none;stroke:#000080;stroke-linecap:square;stroke-width:1.5;"/>
    <g>
     <use style="fill:none;stroke:#000080;stroke-width:1.5;" x="333.168" xlink:href="#mb1df7f48f6" y="117.060047"/>
     <use style="fill:none;stroke:#000080;stroke-width:1.5;" x="363.64328" xlink:href="#mb1df7f48f6" y="152.288529"/>
    </g>
   </g>
   <g id="line2d_54">
    <path d="M 333.168 294.88 
L 333.168 9.697057 
" style="fill:none;stroke:#000000;stroke-linecap:square;stroke-width:1.5;"/>
   </g>
   <g id="patch_3">
    <path d="M 56.12 294.88 
L 56.12 6.845228 
" style="fill:none;stroke:#000000;stroke-linecap:square;stroke-linejoin:miter;stroke-width:0.8;"/>
   </g>
   <g id="patch_4">
    <path d="M 333.168 294.88 
L 333.168 6.845228 
" style="fill:none;stroke:#000000;stroke-linecap:square;stroke-linejoin:miter;stroke-width:0.8;"/>
   </g>
   <g id="patch_5">
    <path d="M 56.12 294.88 
L 333.168 294.88 
" style="fill:none;stroke:#000000;stroke-linecap:square;stroke-linejoin:miter;stroke-width:0.8;"/>
   </g>
   <g id="patch_6">
    <path d="M 56.12 6.845228 
L 333.168 6.845228 
" style="fill:none;stroke:#000000;stroke-linecap:square;stroke-linejoin:miter;stroke-width:0.8;"/>
   </g>
   <g id="text_13">
    <!-- scipy-opt -->
    <defs>
     <path d="M 32.171875 -5.078125 
Q 28.375 -14.84375 24.75 -17.8125 
Q 21.140625 -20.796875 15.09375 -20.796875 
L 7.90625 -20.796875 
L 7.90625 -13.28125 
L 13.1875 -13.28125 
Q 16.890625 -13.28125 18.9375 -11.515625 
Q 21 -9.765625 23.484375 -3.21875 
L 25.09375 0.875 
L 2.984375 54.6875 
L 12.5 54.6875 
L 29.59375 11.921875 
L 46.6875 54.6875 
L 56.203125 54.6875 
z
" id="DejaVuSans-79"/>
    </defs>
    <g transform="translate(369.18424 293.867279)scale(0.17 -0.17)">
     <use xlink:href="#DejaVuSans-73"/>
     <use x="52.099609" xlink:href="#DejaVuSans-63"/>
     <use x="107.080078" xlink:href="#DejaVuSans-69"/>
     <use x="134.863281" xlink:href="#DejaVuSans-70"/>
     <use x="198.339844" xlink:href="#DejaVuSans-79"/>
     <use x="257.503906" xlink:href="#DejaVuSans-2d"/>
     <use x="293.603516" xlink:href="#DejaVuSans-6f"/>
     <use x="354.785156" xlink:href="#DejaVuSans-70"/>
     <use x="418.261719" xlink:href="#DejaVuSans-74"/>
    </g>
   </g>
   <g id="text_14">
    <!-- BFGS ros  -->
    <defs>
     <path d="M 19.671875 34.8125 
L 19.671875 8.109375 
L 35.5 8.109375 
Q 43.453125 8.109375 47.28125 11.40625 
Q 51.125 14.703125 51.125 21.484375 
Q 51.125 28.328125 47.28125 31.5625 
Q 43.453125 34.8125 35.5 34.8125 
z
M 19.671875 64.796875 
L 19.671875 42.828125 
L 34.28125 42.828125 
Q 41.5 42.828125 45.03125 45.53125 
Q 48.578125 48.25 48.578125 53.8125 
Q 48.578125 59.328125 45.03125 62.0625 
Q 41.5 64.796875 34.28125 64.796875 
z
M 9.8125 72.90625 
L 35.015625 72.90625 
Q 46.296875 72.90625 52.390625 68.21875 
Q 58.5 63.53125 58.5 54.890625 
Q 58.5 48.1875 55.375 44.234375 
Q 52.25 40.28125 46.1875 39.3125 
Q 53.46875 37.75 57.5 32.78125 
Q 61.53125 27.828125 61.53125 20.40625 
Q 61.53125 10.640625 54.890625 5.3125 
Q 48.25 0 35.984375 0 
L 9.8125 0 
z
" id="DejaVuSans-42"/>
     <path d="M 59.515625 10.40625 
L 59.515625 29.984375 
L 43.40625 29.984375 
L 43.40625 38.09375 
L 69.28125 38.09375 
L 69.28125 6.78125 
Q 63.578125 2.734375 56.6875 0.65625 
Q 49.8125 -1.421875 42 -1.421875 
Q 24.90625 -1.421875 15.25 8.5625 
Q 5.609375 18.5625 5.609375 36.375 
Q 5.609375 54.25 15.25 64.234375 
Q 24.90625 74.21875 42 74.21875 
Q 49.125 74.21875 55.546875 72.453125 
Q 61.96875 70.703125 67.390625 67.28125 
L 67.390625 56.78125 
Q 61.921875 61.421875 55.765625 63.765625 
Q 49.609375 66.109375 42.828125 66.109375 
Q 29.4375 66.109375 22.71875 58.640625 
Q 16.015625 51.171875 16.015625 36.375 
Q 16.015625 21.625 22.71875 14.15625 
Q 29.4375 6.6875 42.828125 6.6875 
Q 48.046875 6.6875 52.140625 7.59375 
Q 56.25 8.5 59.515625 10.40625 
z
" id="DejaVuSans-47"/>
     <path d="M 53.515625 70.515625 
L 53.515625 60.890625 
Q 47.90625 63.578125 42.921875 64.890625 
Q 37.9375 66.21875 33.296875 66.21875 
Q 25.25 66.21875 20.875 63.09375 
Q 16.5 59.96875 16.5 54.203125 
Q 16.5 49.359375 19.40625 46.890625 
Q 22.3125 44.4375 30.421875 42.921875 
L 36.375 41.703125 
Q 47.40625 39.59375 52.65625 34.296875 
Q 57.90625 29 57.90625 20.125 
Q 57.90625 9.515625 50.796875 4.046875 
Q 43.703125 -1.421875 29.984375 -1.421875 
Q 24.8125 -1.421875 18.96875 -0.25 
Q 13.140625 0.921875 6.890625 3.21875 
L 6.890625 13.375 
Q 12.890625 10.015625 18.65625 8.296875 
Q 24.421875 6.59375 29.984375 6.59375 
Q 38.421875 6.59375 43.015625 9.90625 
Q 47.609375 13.234375 47.609375 19.390625 
Q 47.609375 24.75 44.3125 27.78125 
Q 41.015625 30.8125 33.5 32.328125 
L 27.484375 33.5 
Q 16.453125 35.6875 11.515625 40.375 
Q 6.59375 45.0625 6.59375 53.421875 
Q 6.59375 63.09375 13.40625 68.65625 
Q 20.21875 74.21875 32.171875 74.21875 
Q 37.3125 74.21875 42.625 73.28125 
Q 47.953125 72.359375 53.515625 70.515625 
z
" id="DejaVuSans-53"/>
    </defs>
    <g transform="translate(369.18424 156.979466)scale(0.17 -0.17)">
     <use xlink:href="#DejaVuSans-42"/>
     <use x="68.603516" xlink:href="#DejaVuSans-46"/>
     <use x="126.123047" xlink:href="#DejaVuSans-47"/>
     <use x="203.613281" xlink:href="#DejaVuSans-53"/>
     <use x="267.089844" xlink:href="#DejaVuSans-20"/>
     <use x="298.876953" xlink:href="#DejaVuSans-72"/>
     <use x="339.958984" xlink:href="#DejaVuSans-6f"/>
     <use x="401.140625" xlink:href="#DejaVuSans-73"/>
     <use x="453.240234" xlink:href="#DejaVuSans-20"/>
    </g>
   </g>
   <g id="text_15">
    <!-- best 2009 -->
    <defs>
     <path d="M 48.6875 27.296875 
Q 48.6875 37.203125 44.609375 42.84375 
Q 40.53125 48.484375 33.40625 48.484375 
Q 26.265625 48.484375 22.1875 42.84375 
Q 18.109375 37.203125 18.109375 27.296875 
Q 18.109375 17.390625 22.1875 11.75 
Q 26.265625 6.109375 33.40625 6.109375 
Q 40.53125 6.109375 44.609375 11.75 
Q 48.6875 17.390625 48.6875 27.296875 
z
M 18.109375 46.390625 
Q 20.953125 51.265625 25.265625 53.625 
Q 29.59375 56 35.59375 56 
Q 45.5625 56 51.78125 48.09375 
Q 58.015625 40.1875 58.015625 27.296875 
Q 58.015625 14.40625 51.78125 6.484375 
Q 45.5625 -1.421875 35.59375 -1.421875 
Q 29.59375 -1.421875 25.265625 0.953125 
Q 20.953125 3.328125 18.109375 8.203125 
L 18.109375 0 
L 9.078125 0 
L 9.078125 75.984375 
L 18.109375 75.984375 
z
" id="DejaVuSans-62"/>
     <path d="M 10.984375 1.515625 
L 10.984375 10.5 
Q 14.703125 8.734375 18.5 7.8125 
Q 22.3125 6.890625 25.984375 6.890625 
Q 35.75 6.890625 40.890625 13.453125 
Q 46.046875 20.015625 46.78125 33.40625 
Q 43.953125 29.203125 39.59375 26.953125 
Q 35.25 24.703125 29.984375 24.703125 
Q 19.046875 24.703125 12.671875 31.3125 
Q 6.296875 37.9375 6.296875 49.421875 
Q 6.296875 60.640625 12.9375 67.421875 
Q 19.578125 74.21875 30.609375 74.21875 
Q 43.265625 74.21875 49.921875 64.515625 
Q 56.59375 54.828125 56.59375 36.375 
Q 56.59375 19.140625 48.40625 8.859375 
Q 40.234375 -1.421875 26.421875 -1.421875 
Q 22.703125 -1.421875 18.890625 -0.6875 
Q 15.09375 0.046875 10.984375 1.515625 
z
M 30.609375 32.421875 
Q 37.25 32.421875 41.125 36.953125 
Q 45.015625 41.5 45.015625 49.421875 
Q 45.015625 57.28125 41.125 61.84375 
Q 37.25 66.40625 30.609375 66.40625 
Q 23.96875 66.40625 20.09375 61.84375 
Q 16.21875 57.28125 16.21875 49.421875 
Q 16.21875 41.5 20.09375 36.953125 
Q 23.96875 32.421875 30.609375 32.421875 
z
" id="DejaVuSans-39"/>
    </defs>
    <g transform="translate(369.18424 20.091654)scale(0.17 -0.17)">
     <use xlink:href="#DejaVuSans-62"/>
     <use x="63.476562" xlink:href="#DejaVuSans-65"/>
     <use x="125" xlink:href="#DejaVuSans-73"/>
     <use x="177.099609" xlink:href="#DejaVuSans-74"/>
     <use x="216.308594" xlink:href="#DejaVuSans-20"/>
     <use x="248.095703" xlink:href="#DejaVuSans-32"/>
     <use x="311.71875" xlink:href="#DejaVuSans-30"/>
     <use x="375.341797" xlink:href="#DejaVuSans-30"/>
     <use x="438.964844" xlink:href="#DejaVuSans-39"/>
    </g>
   </g>
   <g id="text_16">
    <!-- bbob f15-f19, 2-D -->
    <defs>
     <path d="M 10.796875 72.90625 
L 49.515625 72.90625 
L 49.515625 64.59375 
L 19.828125 64.59375 
L 19.828125 46.734375 
Q 21.96875 47.46875 24.109375 47.828125 
Q 26.265625 48.1875 28.421875 48.1875 
Q 40.625 48.1875 47.75 41.5 
Q 54.890625 34.8125 54.890625 23.390625 
Q 54.890625 11.625 47.5625 5.09375 
Q 40.234375 -1.421875 26.90625 -1.421875 
Q 22.3125 -1.421875 17.546875 -0.640625 
Q 12.796875 0.140625 7.71875 1.703125 
L 7.71875 11.625 
Q 12.109375 9.234375 16.796875 8.0625 
Q 21.484375 6.890625 26.703125 6.890625 
Q 35.15625 6.890625 40.078125 11.328125 
Q 45.015625 15.765625 45.015625 23.390625 
Q 45.015625 31 40.078125 35.4375 
Q 35.15625 39.890625 26.703125 39.890625 
Q 22.75 39.890625 18.8125 39.015625 
Q 14.890625 38.140625 10.796875 36.28125 
z
" id="DejaVuSans-35"/>
     <path d="M 19.671875 64.796875 
L 19.671875 8.109375 
L 31.59375 8.109375 
Q 46.6875 8.109375 53.6875 14.9375 
Q 60.6875 21.78125 60.6875 36.53125 
Q 60.6875 51.171875 53.6875 57.984375 
Q 46.6875 64.796875 31.59375 64.796875 
z
M 9.8125 72.90625 
L 30.078125 72.90625 
Q 51.265625 72.90625 61.171875 64.09375 
Q 71.09375 55.28125 71.09375 36.53125 
Q 71.09375 17.671875 61.125 8.828125 
Q 51.171875 0 30.078125 0 
L 9.8125 0 
z
" id="DejaVuSans-44"/>
    </defs>
    <g transform="translate(58.89048 17.475982)scale(0.102 -0.102)">
     <use xlink:href="#DejaVuSans-62"/>
     <use x="63.476562" xlink:href="#DejaVuSans-62"/>
     <use x="126.953125" xlink:href="#DejaVuSans-6f"/>
     <use x="188.134766" xlink:href="#DejaVuSans-62"/>
     <use x="251.611328" xlink:href="#DejaVuSans-20"/>
     <use x="283.398438" xlink:href="#DejaVuSans-66"/>
     <use x="318.603516" xlink:href="#DejaVuSans-31"/>
     <use x="382.226562" xlink:href="#DejaVuSans-35"/>
     <use x="445.849609" xlink:href="#DejaVuSans-2d"/>
     <use x="481.933594" xlink:href="#DejaVuSans-66"/>
     <use x="517.138672" xlink:href="#DejaVuSans-31"/>
     <use x="580.761719" xlink:href="#DejaVuSans-39"/>
     <use x="644.384766" xlink:href="#DejaVuSans-2c"/>
     <use x="676.171875" xlink:href="#DejaVuSans-20"/>
     <use x="707.958984" xlink:href="#DejaVuSans-32"/>
     <use x="771.582031" xlink:href="#DejaVuSans-2d"/>
     <use x="807.666016" xlink:href="#DejaVuSans-44"/>
    </g>
    <!-- 51 targets: 100..1e-08 -->
    <defs>
     <path d="M 11.71875 12.40625 
L 22.015625 12.40625 
L 22.015625 0 
L 11.71875 0 
z
M 11.71875 51.703125 
L 22.015625 51.703125 
L 22.015625 39.3125 
L 11.71875 39.3125 
z
" id="DejaVuSans-3a"/>
    </defs>
    <g transform="translate(58.89048 28.89775)scale(0.102 -0.102)">
     <use xlink:href="#DejaVuSans-35"/>
     <use x="63.623047" xlink:href="#DejaVuSans-31"/>
     <use x="127.246094" xlink:href="#DejaVuSans-20"/>
     <use x="159.033203" xlink:href="#DejaVuSans-74"/>
     <use x="198.242188" xlink:href="#DejaVuSans-61"/>
     <use x="259.521484" xlink:href="#DejaVuSans-72"/>
     <use x="300.619141" xlink:href="#DejaVuSans-67"/>
     <use x="364.095703" xlink:href="#DejaVuSans-65"/>
     <use x="425.619141" xlink:href="#DejaVuSans-74"/>
     <use x="464.828125" xlink:href="#DejaVuSans-73"/>
     <use x="516.927734" xlink:href="#DejaVuSans-3a"/>
     <use x="550.619141" xlink:href="#DejaVuSans-20"/>
     <use x="582.40625" xlink:href="#DejaVuSans-31"/>
     <use x="646.029297" xlink:href="#DejaVuSans-30"/>
     <use x="709.652344" xlink:href="#DejaVuSans-30"/>
     <use x="773.275391" xlink:href="#DejaVuSans-2e"/>
     <use x="805.0625" xlink:href="#DejaVuSans-2e"/>
     <use x="836.849609" xlink:href="#DejaVuSans-31"/>
     <use x="900.472656" xlink:href="#DejaVuSans-65"/>
     <use x="961.996094" xlink:href="#DejaVuSans-2d"/>
     <use x="998.080078" xlink:href="#DejaVuSans-30"/>
     <use x="1061.703125" xlink:href="#DejaVuSans-38"/>
    </g>
    <!-- 15 instances -->
    <g transform="translate(58.89048 40.319519)scale(0.102 -0.102)">
     <use xlink:href="#DejaVuSans-31"/>
     <use x="63.623047" xlink:href="#DejaVuSans-35"/>
     <use x="127.246094" xlink:href="#DejaVuSans-20"/>
     <use x="159.033203" xlink:href="#DejaVuSans-69"/>
     <use x="186.816406" xlink:href="#DejaVuSans-6e"/>
     <use x="250.195312" xlink:href="#DejaVuSans-73"/>
     <use x="302.294922" xlink:href="#DejaVuSans-74"/>
     <use x="341.503906" xlink:href="#DejaVuSans-61"/>
     <use x="402.783203" xlink:href="#DejaVuSans-6e"/>
     <use x="466.162109" xlink:href="#DejaVuSans-63"/>
     <use x="521.142578" xlink:href="#DejaVuSans-65"/>
     <use x="582.666016" xlink:href="#DejaVuSans-73"/>
    </g>
   </g>
   <g id="text_17">
    <!-- v0.0.0 -->
    <g style="fill:#808080;" transform="translate(178.96275 289.919965)scale(0.1 -0.1)">
     <use xlink:href="#DejaVuSans-76"/>
     <use x="59.179688" xlink:href="#DejaVuSans-30"/>
     <use x="122.802734" xlink:href="#DejaVuSans-2e"/>
     <use x="154.589844" xlink:href="#DejaVuSans-30"/>
     <use x="218.212891" xlink:href="#DejaVuSans-2e"/>
     <use x="250" xlink:href="#DejaVuSans-30"/>
    </g>
   </g>
  </g>
 </g>
 <defs>
  <clipPath id="p8c4cc69bf8">
   <rect height="288.034772" width="277.048" x="56.12" y="6.845228"/>
  </clipPath>
 </defs>
</svg>
