<?xml version="1.0" encoding="utf-8" standalone="no"?>
<!DOCTYPE svg PUBLIC "-//W3C//DTD SVG 1.1//EN"
  "http://www.w3.org/Graphics/SVG/1.1/DTD/svg11.dtd">
<!-- Created with matplotlib (http://matplotlib.org/) -->
<svg height="345pt" version="1.1" viewBox="0 0 460 345" width="460pt" xmlns="http://www.w3.org/2000/svg" xmlns:xlink="http://www.w3.org/1999/xlink">
 <defs>
  <style type="text/css">
*{stroke-linecap:butt;stroke-linejoin:round;}
  </style>
 </defs>
 <g id="figure_1">
  <g id="patch_1">
   <path d="M 0 345.6 
L 460.8 345.6 
L 460.8 0 
L 0 0 
z
" style="fill:#ffffff;"/>
  </g>
  <g id="axes_1">
   <g id="patch_2">
    <path d="M 56.12 294.88 
L 333.168 294.88 
L 333.168 6.845228 
L 56.12 6.845228 
z
" style="fill:#ffffff;"/>
   </g>
   <g id="line2d_1">
    <path d="M 114.894198 294.88 
L 114.894198 293.482044 
L 117.194694 293.482044 
L 117.194694 292.084089 
L 118.302485 292.084089 
L 118.302485 290.686133 
L 119.697821 290.686133 
L 119.697821 289.288178 
L 121.929105 289.288178 
L 121.938444 286.492266 
L 122.444434 286.492266 
L 122.444434 285.094311 
L 124.249997 285.094311 
L 124.249997 283.696355 
L 124.371989 283.696355 
L 124.371989 282.2984 
L 124.843597 282.2984 
L 124.843597 280.900444 
L 126.481848 280.900444 
L 126.481848 279.502488 
L 126.955511 279.502488 
L 126.955511 278.104533 
L 128.231816 278.104533 
L 128.231816 276.706577 
L 130.257064 276.706577 
L 130.257064 275.308622 
L 130.638354 275.308622 
L 130.638354 273.910666 
L 133.015693 273.910666 
L 133.015693 272.51271 
L 134.938082 272.51271 
L 134.938082 271.114755 
L 135.608524 271.114755 
L 135.608524 269.716799 
L 136.757848 269.716799 
L 136.757848 268.318844 
L 138.521082 268.318844 
L 138.521082 266.920888 
L 139.5968 266.920888 
L 139.5968 265.522932 
L 140.191326 265.522932 
L 140.191326 264.124977 
L 140.441324 264.124977 
L 140.441324 262.727021 
L 140.822085 262.727021 
L 140.822085 261.329066 
L 141.763707 261.329066 
L 141.763707 259.93111 
L 142.351633 259.93111 
L 142.351633 258.533154 
L 142.591958 258.533154 
L 142.591958 257.135199 
L 143.301492 257.135199 
L 143.323031 254.339288 
L 143.972533 254.339288 
L 144.042348 251.543376 
L 144.22204 251.543376 
L 144.22204 250.145421 
L 145.090928 250.145421 
L 145.090928 248.747465 
L 145.303255 248.747465 
L 145.303255 247.34951 
L 146.254795 247.34951 
L 146.254795 245.951554 
L 146.638451 245.951554 
L 146.638451 244.553598 
L 147.95358 244.553598 
L 147.95358 243.155643 
L 148.648429 243.155643 
L 148.648429 241.757687 
L 149.49571 241.757687 
L 149.49571 240.359732 
L 150.090328 240.359732 
L 150.090328 238.961776 
L 150.780527 238.961776 
L 150.780527 237.56382 
L 151.391994 237.56382 
L 151.418896 234.767909 
L 151.751664 234.767909 
L 151.751664 233.369954 
L 151.954792 233.369954 
L 152.042505 230.574042 
L 152.116873 230.574042 
L 152.186101 227.778131 
L 152.258252 227.778131 
L 152.258252 226.380175 
L 152.407996 226.380175 
L 152.509208 223.584264 
L 152.605125 223.584264 
L 152.683347 220.788353 
L 152.76743 220.788353 
L 152.800018 217.992442 
L 152.88199 217.992442 
L 152.958966 215.196531 
L 153.018769 215.196531 
L 153.073787 212.400619 
L 153.130151 212.400619 
L 153.230235 208.206753 
L 153.277043 208.206753 
L 153.36878 204.012886 
L 153.40923 204.012886 
L 153.4958 198.421063 
L 153.543377 198.421063 
L 153.624843 194.227197 
L 153.663221 194.227197 
L 153.76612 188.635374 
L 153.798333 188.635374 
L 153.871321 184.441507 
L 153.910606 184.441507 
L 153.988908 180.247641 
L 154.030812 180.247641 
L 154.115751 174.655818 
L 154.153049 174.655818 
L 154.23311 170.461951 
L 154.274423 170.461951 
L 154.314218 167.66604 
L 154.517436 167.66604 
L 154.517436 166.268085 
L 154.67524 166.268085 
L 154.67524 164.870129 
L 154.927765 164.870129 
L 154.927765 163.472173 
L 155.206311 163.472173 
L 155.206311 160.676262 
L 155.377971 160.676262 
L 155.377971 159.278307 
L 155.506924 159.278307 
L 155.512221 156.482395 
L 155.620451 156.482395 
L 155.708379 153.686484 
L 155.791952 153.686484 
L 155.895851 149.492617 
L 155.92819 149.492617 
L 155.987537 146.696706 
L 156.042829 146.696706 
L 156.138844 142.502839 
L 156.154157 142.502839 
L 156.253359 136.911017 
L 156.283768 136.911017 
L 156.375933 132.71715 
L 156.408639 132.71715 
L 156.508887 127.125328 
L 156.520128 127.125328 
L 156.614763 120.13555 
L 156.645779 120.13555 
L 156.75205 113.145772 
L 156.78159 113.145772 
L 156.891916 106.155994 
L 156.919997 106.155994 
L 157.010034 100.564171 
L 157.039135 100.564171 
L 157.129757 93.574393 
L 157.578187 93.574393 
L 157.578187 92.176438 
L 157.889997 92.176438 
L 157.889997 90.778482 
L 158.003764 90.778482 
L 158.003764 89.380526 
L 158.470412 89.380526 
L 158.470412 87.982571 
L 158.810355 87.982571 
L 158.810355 86.584615 
L 159.04912 86.584615 
L 159.04912 85.18666 
L 159.164058 85.18666 
L 159.164058 83.788704 
L 159.60689 83.788704 
L 159.60689 82.390748 
L 159.872968 82.390748 
L 159.872968 80.992793 
L 160.433896 80.992793 
L 160.433896 79.594837 
L 160.975168 79.594837 
L 161.011744 76.798926 
L 161.485891 76.798926 
L 161.485891 75.40097 
L 161.945488 75.40097 
L 161.945488 74.003015 
L 162.258616 74.003015 
L 162.258616 72.605059 
L 162.497492 72.605059 
L 162.497492 71.207104 
L 162.798212 71.207104 
L 162.798212 69.809148 
L 163.007511 69.809148 
L 163.007511 68.411192 
L 163.296988 68.411192 
L 163.296988 67.013237 
L 163.663444 67.013237 
L 163.663444 65.615281 
L 171.434846 65.615281 
L 171.434846 64.217326 
L 173.446379 64.217326 
L 173.446379 62.81937 
L 173.975005 62.81937 
L 173.975005 61.421414 
L 174.56582 61.421414 
L 174.56582 60.023459 
L 175.294794 60.023459 
L 175.294794 58.625503 
L 176.114332 58.625503 
L 176.114332 57.227548 
L 182.567674 57.227548 
L 182.567674 55.829592 
L 182.941363 55.829592 
L 182.941363 54.431636 
L 183.27106 54.431636 
L 183.27106 53.033681 
L 183.538896 53.033681 
L 183.538896 20.880702 
L 183.795728 20.880702 
L 183.795728 19.482746 
L 183.945271 19.482746 
L 184.012244 16.686835 
L 184.271345 16.686835 
L 184.271345 15.28888 
L 184.411896 15.28888 
L 184.51117 12.492968 
L 184.646864 12.492968 
L 184.668971 9.697057 
L 333.168 9.697057 
L 333.168 9.697057 
" style="fill:none;stroke:#f5deb3;stroke-linecap:square;stroke-width:4;"/>
   </g>
   <g id="line2d_2">
    <defs>
     <path d="M -0 7.778175 
L 7.778175 0 
L 0 -7.778175 
L -7.778175 -0 
z
" id="mfbf94f66ba" style="stroke:#f5deb3;stroke-linejoin:miter;stroke-width:1.5;"/>
    </defs>
    <g>
     <use style="fill:#f5deb3;stroke:#f5deb3;stroke-linejoin:miter;stroke-width:1.5;" x="152.88199" xlink:href="#mfbf94f66ba" y="217.992442"/>
     <use style="fill:#f5deb3;stroke:#f5deb3;stroke-linejoin:miter;stroke-width:1.5;" x="156.863789" xlink:href="#mfbf94f66ba" y="108.951905"/>
     <use style="fill:#f5deb3;stroke:#f5deb3;stroke-linejoin:miter;stroke-width:1.5;" x="184.668971" xlink:href="#mfbf94f66ba" y="11.095013"/>
     <use style="fill:#f5deb3;stroke:#f5deb3;stroke-linejoin:miter;stroke-width:1.5;" x="184.668971" xlink:href="#mfbf94f66ba" y="9.697057"/>
     <use style="fill:#f5deb3;stroke:#f5deb3;stroke-linejoin:miter;stroke-width:1.5;" x="333.168" xlink:href="#mfbf94f66ba" y="9.697057"/>
    </g>
   </g>
   <g id="line2d_3">
    <path style="fill:none;stroke:#f5deb3;stroke-linecap:square;stroke-width:4;"/>
    <g/>
   </g>
   <g id="line2d_4">
    <path d="M 333.168 9.697057 
L 363.64328 15.400716 
" style="fill:none;stroke:#f5deb3;stroke-linecap:square;stroke-width:4;"/>
    <g>
     <use style="fill:#f5deb3;stroke:#f5deb3;stroke-linejoin:miter;stroke-width:1.5;" x="333.168" xlink:href="#mfbf94f66ba" y="9.697057"/>
     <use style="fill:#f5deb3;stroke:#f5deb3;stroke-linejoin:miter;stroke-width:1.5;" x="363.64328" xlink:href="#mfbf94f66ba" y="15.400716"/>
    </g>
   </g>
   <g id="matplotlib.axis_1">
    <g id="xtick_1">
     <g id="line2d_5">
      <path clip-path="url(#p66f02d3428)" d="M 56.12 294.88 
L 56.12 6.845228 
" style="fill:none;stroke:#b0b0b0;stroke-linecap:square;stroke-width:0.8;"/>
     </g>
     <g id="line2d_6">
      <defs>
       <path d="M 0 0 
L 0 3.5 
" id="me8ae40602c" style="stroke:#000000;stroke-width:0.8;"/>
      </defs>
      <g>
       <use style="stroke:#000000;stroke-width:0.8;" x="56.12" xlink:href="#me8ae40602c" y="294.88"/>
      </g>
     </g>
     <g id="text_1">
      <!-- 0 -->
      <defs>
       <path d="M 31.78125 66.40625 
Q 24.171875 66.40625 20.328125 58.90625 
Q 16.5 51.421875 16.5 36.375 
Q 16.5 21.390625 20.328125 13.890625 
Q 24.171875 6.390625 31.78125 6.390625 
Q 39.453125 6.390625 43.28125 13.890625 
Q 47.125 21.390625 47.125 36.375 
Q 47.125 51.421875 43.28125 58.90625 
Q 39.453125 66.40625 31.78125 66.40625 
z
M 31.78125 74.21875 
Q 44.046875 74.21875 50.515625 64.515625 
Q 56.984375 54.828125 56.984375 36.375 
Q 56.984375 17.96875 50.515625 8.265625 
Q 44.046875 -1.421875 31.78125 -1.421875 
Q 19.53125 -1.421875 13.0625 8.265625 
Q 6.59375 17.96875 6.59375 36.375 
Q 6.59375 54.828125 13.0625 64.515625 
Q 19.53125 74.21875 31.78125 74.21875 
z
" id="DejaVuSans-30"/>
      </defs>
      <g transform="translate(49.7575 317.076875)scale(0.2 -0.2)">
       <use xlink:href="#DejaVuSans-30"/>
      </g>
     </g>
    </g>
    <g id="xtick_2">
     <g id="line2d_7">
      <path clip-path="url(#p66f02d3428)" d="M 135.276571 294.88 
L 135.276571 6.845228 
" style="fill:none;stroke:#b0b0b0;stroke-linecap:square;stroke-width:0.8;"/>
     </g>
     <g id="line2d_8">
      <g>
       <use style="stroke:#000000;stroke-width:0.8;" x="135.276571" xlink:href="#me8ae40602c" y="294.88"/>
      </g>
     </g>
     <g id="text_2">
      <!-- 2 -->
      <defs>
       <path d="M 19.1875 8.296875 
L 53.609375 8.296875 
L 53.609375 0 
L 7.328125 0 
L 7.328125 8.296875 
Q 12.9375 14.109375 22.625 23.890625 
Q 32.328125 33.6875 34.8125 36.53125 
Q 39.546875 41.84375 41.421875 45.53125 
Q 43.3125 49.21875 43.3125 52.78125 
Q 43.3125 58.59375 39.234375 62.25 
Q 35.15625 65.921875 28.609375 65.921875 
Q 23.96875 65.921875 18.8125 64.3125 
Q 13.671875 62.703125 7.8125 59.421875 
L 7.8125 69.390625 
Q 13.765625 71.78125 18.9375 73 
Q 24.125 74.21875 28.421875 74.21875 
Q 39.75 74.21875 46.484375 68.546875 
Q 53.21875 62.890625 53.21875 53.421875 
Q 53.21875 48.921875 51.53125 44.890625 
Q 49.859375 40.875 45.40625 35.40625 
Q 44.1875 33.984375 37.640625 27.21875 
Q 31.109375 20.453125 19.1875 8.296875 
z
" id="DejaVuSans-32"/>
      </defs>
      <g transform="translate(128.914071 317.076875)scale(0.2 -0.2)">
       <use xlink:href="#DejaVuSans-32"/>
      </g>
     </g>
    </g>
    <g id="xtick_3">
     <g id="line2d_9">
      <path clip-path="url(#p66f02d3428)" d="M 214.433143 294.88 
L 214.433143 6.845228 
" style="fill:none;stroke:#b0b0b0;stroke-linecap:square;stroke-width:0.8;"/>
     </g>
     <g id="line2d_10">
      <g>
       <use style="stroke:#000000;stroke-width:0.8;" x="214.433143" xlink:href="#me8ae40602c" y="294.88"/>
      </g>
     </g>
     <g id="text_3">
      <!-- 4 -->
      <defs>
       <path d="M 37.796875 64.3125 
L 12.890625 25.390625 
L 37.796875 25.390625 
z
M 35.203125 72.90625 
L 47.609375 72.90625 
L 47.609375 25.390625 
L 58.015625 25.390625 
L 58.015625 17.1875 
L 47.609375 17.1875 
L 47.609375 0 
L 37.796875 0 
L 37.796875 17.1875 
L 4.890625 17.1875 
L 4.890625 26.703125 
z
" id="DejaVuSans-34"/>
      </defs>
      <g transform="translate(208.070643 317.076875)scale(0.2 -0.2)">
       <use xlink:href="#DejaVuSans-34"/>
      </g>
     </g>
    </g>
    <g id="xtick_4">
     <g id="line2d_11">
      <path clip-path="url(#p66f02d3428)" d="M 293.589714 294.88 
L 293.589714 6.845228 
" style="fill:none;stroke:#b0b0b0;stroke-linecap:square;stroke-width:0.8;"/>
     </g>
     <g id="line2d_12">
      <g>
       <use style="stroke:#000000;stroke-width:0.8;" x="293.589714" xlink:href="#me8ae40602c" y="294.88"/>
      </g>
     </g>
     <g id="text_4">
      <!-- 6 -->
      <defs>
       <path d="M 33.015625 40.375 
Q 26.375 40.375 22.484375 35.828125 
Q 18.609375 31.296875 18.609375 23.390625 
Q 18.609375 15.53125 22.484375 10.953125 
Q 26.375 6.390625 33.015625 6.390625 
Q 39.65625 6.390625 43.53125 10.953125 
Q 47.40625 15.53125 47.40625 23.390625 
Q 47.40625 31.296875 43.53125 35.828125 
Q 39.65625 40.375 33.015625 40.375 
z
M 52.59375 71.296875 
L 52.59375 62.3125 
Q 48.875 64.0625 45.09375 64.984375 
Q 41.3125 65.921875 37.59375 65.921875 
Q 27.828125 65.921875 22.671875 59.328125 
Q 17.53125 52.734375 16.796875 39.40625 
Q 19.671875 43.65625 24.015625 45.921875 
Q 28.375 48.1875 33.59375 48.1875 
Q 44.578125 48.1875 50.953125 41.515625 
Q 57.328125 34.859375 57.328125 23.390625 
Q 57.328125 12.15625 50.6875 5.359375 
Q 44.046875 -1.421875 33.015625 -1.421875 
Q 20.359375 -1.421875 13.671875 8.265625 
Q 6.984375 17.96875 6.984375 36.375 
Q 6.984375 53.65625 15.1875 63.9375 
Q 23.390625 74.21875 37.203125 74.21875 
Q 40.921875 74.21875 44.703125 73.484375 
Q 48.484375 72.75 52.59375 71.296875 
z
" id="DejaVuSans-36"/>
      </defs>
      <g transform="translate(287.227214 317.076875)scale(0.2 -0.2)">
       <use xlink:href="#DejaVuSans-36"/>
      </g>
     </g>
    </g>
    <g id="xtick_5">
     <g id="line2d_13">
      <path clip-path="url(#p66f02d3428)" d="M 56.12 294.88 
L 56.12 6.845228 
" style="fill:none;stroke:#b0b0b0;stroke-linecap:square;stroke-width:0.8;"/>
     </g>
     <g id="line2d_14">
      <defs>
       <path d="M 0 0 
L 0 2 
" id="m4aab359210" style="stroke:#000000;stroke-width:0.6;"/>
      </defs>
      <g>
       <use style="stroke:#000000;stroke-width:0.6;" x="56.12" xlink:href="#m4aab359210" y="294.88"/>
      </g>
     </g>
    </g>
    <g id="xtick_6">
     <g id="line2d_15">
      <path clip-path="url(#p66f02d3428)" d="M 95.698286 294.88 
L 95.698286 6.845228 
" style="fill:none;stroke:#b0b0b0;stroke-linecap:square;stroke-width:0.8;"/>
     </g>
     <g id="line2d_16">
      <g>
       <use style="stroke:#000000;stroke-width:0.6;" x="95.698286" xlink:href="#m4aab359210" y="294.88"/>
      </g>
     </g>
    </g>
    <g id="xtick_7">
     <g id="line2d_17">
      <path clip-path="url(#p66f02d3428)" d="M 135.276571 294.88 
L 135.276571 6.845228 
" style="fill:none;stroke:#b0b0b0;stroke-linecap:square;stroke-width:0.8;"/>
     </g>
     <g id="line2d_18">
      <g>
       <use style="stroke:#000000;stroke-width:0.6;" x="135.276571" xlink:href="#m4aab359210" y="294.88"/>
      </g>
     </g>
    </g>
    <g id="xtick_8">
     <g id="line2d_19">
      <path clip-path="url(#p66f02d3428)" d="M 174.854857 294.88 
L 174.854857 6.845228 
" style="fill:none;stroke:#b0b0b0;stroke-linecap:square;stroke-width:0.8;"/>
     </g>
     <g id="line2d_20">
      <g>
       <use style="stroke:#000000;stroke-width:0.6;" x="174.854857" xlink:href="#m4aab359210" y="294.88"/>
      </g>
     </g>
    </g>
    <g id="xtick_9">
     <g id="line2d_21">
      <path clip-path="url(#p66f02d3428)" d="M 214.433143 294.88 
L 214.433143 6.845228 
" style="fill:none;stroke:#b0b0b0;stroke-linecap:square;stroke-width:0.8;"/>
     </g>
     <g id="line2d_22">
      <g>
       <use style="stroke:#000000;stroke-width:0.6;" x="214.433143" xlink:href="#m4aab359210" y="294.88"/>
      </g>
     </g>
    </g>
    <g id="xtick_10">
     <g id="line2d_23">
      <path clip-path="url(#p66f02d3428)" d="M 254.011429 294.88 
L 254.011429 6.845228 
" style="fill:none;stroke:#b0b0b0;stroke-linecap:square;stroke-width:0.8;"/>
     </g>
     <g id="line2d_24">
      <g>
       <use style="stroke:#000000;stroke-width:0.6;" x="254.011429" xlink:href="#m4aab359210" y="294.88"/>
      </g>
     </g>
    </g>
    <g id="xtick_11">
     <g id="line2d_25">
      <path clip-path="url(#p66f02d3428)" d="M 293.589714 294.88 
L 293.589714 6.845228 
" style="fill:none;stroke:#b0b0b0;stroke-linecap:square;stroke-width:0.8;"/>
     </g>
     <g id="line2d_26">
      <g>
       <use style="stroke:#000000;stroke-width:0.6;" x="293.589714" xlink:href="#m4aab359210" y="294.88"/>
      </g>
     </g>
    </g>
    <g id="xtick_12">
     <g id="line2d_27">
      <path clip-path="url(#p66f02d3428)" d="M 333.168 294.88 
L 333.168 6.845228 
" style="fill:none;stroke:#b0b0b0;stroke-linecap:square;stroke-width:0.8;"/>
     </g>
     <g id="line2d_28">
      <g>
       <use style="stroke:#000000;stroke-width:0.6;" x="333.168" xlink:href="#m4aab359210" y="294.88"/>
      </g>
     </g>
    </g>
    <g id="text_5">
     <!-- log10(# f-evals / dimension) -->
     <defs>
      <path d="M 9.421875 75.984375 
L 18.40625 75.984375 
L 18.40625 0 
L 9.421875 0 
z
" id="DejaVuSans-6c"/>
      <path d="M 30.609375 48.390625 
Q 23.390625 48.390625 19.1875 42.75 
Q 14.984375 37.109375 14.984375 27.296875 
Q 14.984375 17.484375 19.15625 11.84375 
Q 23.34375 6.203125 30.609375 6.203125 
Q 37.796875 6.203125 41.984375 11.859375 
Q 46.1875 17.53125 46.1875 27.296875 
Q 46.1875 37.015625 41.984375 42.703125 
Q 37.796875 48.390625 30.609375 48.390625 
z
M 30.609375 56 
Q 42.328125 56 49.015625 48.375 
Q 55.71875 40.765625 55.71875 27.296875 
Q 55.71875 13.875 49.015625 6.21875 
Q 42.328125 -1.421875 30.609375 -1.421875 
Q 18.84375 -1.421875 12.171875 6.21875 
Q 5.515625 13.875 5.515625 27.296875 
Q 5.515625 40.765625 12.171875 48.375 
Q 18.84375 56 30.609375 56 
z
" id="DejaVuSans-6f"/>
      <path d="M 45.40625 27.984375 
Q 45.40625 37.75 41.375 43.109375 
Q 37.359375 48.484375 30.078125 48.484375 
Q 22.859375 48.484375 18.828125 43.109375 
Q 14.796875 37.75 14.796875 27.984375 
Q 14.796875 18.265625 18.828125 12.890625 
Q 22.859375 7.515625 30.078125 7.515625 
Q 37.359375 7.515625 41.375 12.890625 
Q 45.40625 18.265625 45.40625 27.984375 
z
M 54.390625 6.78125 
Q 54.390625 -7.171875 48.1875 -13.984375 
Q 42 -20.796875 29.203125 -20.796875 
Q 24.46875 -20.796875 20.265625 -20.09375 
Q 16.0625 -19.390625 12.109375 -17.921875 
L 12.109375 -9.1875 
Q 16.0625 -11.328125 19.921875 -12.34375 
Q 23.78125 -13.375 27.78125 -13.375 
Q 36.625 -13.375 41.015625 -8.765625 
Q 45.40625 -4.15625 45.40625 5.171875 
L 45.40625 9.625 
Q 42.625 4.78125 38.28125 2.390625 
Q 33.9375 0 27.875 0 
Q 17.828125 0 11.671875 7.65625 
Q 5.515625 15.328125 5.515625 27.984375 
Q 5.515625 40.671875 11.671875 48.328125 
Q 17.828125 56 27.875 56 
Q 33.9375 56 38.28125 53.609375 
Q 42.625 51.21875 45.40625 46.390625 
L 45.40625 54.6875 
L 54.390625 54.6875 
z
" id="DejaVuSans-67"/>
      <path d="M 12.40625 8.296875 
L 28.515625 8.296875 
L 28.515625 63.921875 
L 10.984375 60.40625 
L 10.984375 69.390625 
L 28.421875 72.90625 
L 38.28125 72.90625 
L 38.28125 8.296875 
L 54.390625 8.296875 
L 54.390625 0 
L 12.40625 0 
z
" id="DejaVuSans-31"/>
      <path d="M 31 75.875 
Q 24.46875 64.65625 21.28125 53.65625 
Q 18.109375 42.671875 18.109375 31.390625 
Q 18.109375 20.125 21.3125 9.0625 
Q 24.515625 -2 31 -13.1875 
L 23.1875 -13.1875 
Q 15.875 -1.703125 12.234375 9.375 
Q 8.59375 20.453125 8.59375 31.390625 
Q 8.59375 42.28125 12.203125 53.3125 
Q 15.828125 64.359375 23.1875 75.875 
z
" id="DejaVuSans-28"/>
      <path d="M 51.125 44 
L 36.921875 44 
L 32.8125 27.6875 
L 47.125 27.6875 
z
M 43.796875 71.78125 
L 38.71875 51.515625 
L 52.984375 51.515625 
L 58.109375 71.78125 
L 65.921875 71.78125 
L 60.890625 51.515625 
L 76.125 51.515625 
L 76.125 44 
L 58.984375 44 
L 54.984375 27.6875 
L 70.515625 27.6875 
L 70.515625 20.21875 
L 53.078125 20.21875 
L 48 0 
L 40.1875 0 
L 45.21875 20.21875 
L 30.90625 20.21875 
L 25.875 0 
L 18.015625 0 
L 23.09375 20.21875 
L 7.71875 20.21875 
L 7.71875 27.6875 
L 24.90625 27.6875 
L 29 44 
L 13.28125 44 
L 13.28125 51.515625 
L 30.90625 51.515625 
L 35.890625 71.78125 
z
" id="DejaVuSans-23"/>
      <path id="DejaVuSans-20"/>
      <path d="M 37.109375 75.984375 
L 37.109375 68.5 
L 28.515625 68.5 
Q 23.6875 68.5 21.796875 66.546875 
Q 19.921875 64.59375 19.921875 59.515625 
L 19.921875 54.6875 
L 34.71875 54.6875 
L 34.71875 47.703125 
L 19.921875 47.703125 
L 19.921875 0 
L 10.890625 0 
L 10.890625 47.703125 
L 2.296875 47.703125 
L 2.296875 54.6875 
L 10.890625 54.6875 
L 10.890625 58.5 
Q 10.890625 67.625 15.140625 71.796875 
Q 19.390625 75.984375 28.609375 75.984375 
z
" id="DejaVuSans-66"/>
      <path d="M 4.890625 31.390625 
L 31.203125 31.390625 
L 31.203125 23.390625 
L 4.890625 23.390625 
z
" id="DejaVuSans-2d"/>
      <path d="M 56.203125 29.59375 
L 56.203125 25.203125 
L 14.890625 25.203125 
Q 15.484375 15.921875 20.484375 11.0625 
Q 25.484375 6.203125 34.421875 6.203125 
Q 39.59375 6.203125 44.453125 7.46875 
Q 49.3125 8.734375 54.109375 11.28125 
L 54.109375 2.78125 
Q 49.265625 0.734375 44.1875 -0.34375 
Q 39.109375 -1.421875 33.890625 -1.421875 
Q 20.796875 -1.421875 13.15625 6.1875 
Q 5.515625 13.8125 5.515625 26.8125 
Q 5.515625 40.234375 12.765625 48.109375 
Q 20.015625 56 32.328125 56 
Q 43.359375 56 49.78125 48.890625 
Q 56.203125 41.796875 56.203125 29.59375 
z
M 47.21875 32.234375 
Q 47.125 39.59375 43.09375 43.984375 
Q 39.0625 48.390625 32.421875 48.390625 
Q 24.90625 48.390625 20.390625 44.140625 
Q 15.875 39.890625 15.1875 32.171875 
z
" id="DejaVuSans-65"/>
      <path d="M 2.984375 54.6875 
L 12.5 54.6875 
L 29.59375 8.796875 
L 46.6875 54.6875 
L 56.203125 54.6875 
L 35.6875 0 
L 23.484375 0 
z
" id="DejaVuSans-76"/>
      <path d="M 34.28125 27.484375 
Q 23.390625 27.484375 19.1875 25 
Q 14.984375 22.515625 14.984375 16.5 
Q 14.984375 11.71875 18.140625 8.90625 
Q 21.296875 6.109375 26.703125 6.109375 
Q 34.1875 6.109375 38.703125 11.40625 
Q 43.21875 16.703125 43.21875 25.484375 
L 43.21875 27.484375 
z
M 52.203125 31.203125 
L 52.203125 0 
L 43.21875 0 
L 43.21875 8.296875 
Q 40.140625 3.328125 35.546875 0.953125 
Q 30.953125 -1.421875 24.3125 -1.421875 
Q 15.921875 -1.421875 10.953125 3.296875 
Q 6 8.015625 6 15.921875 
Q 6 25.140625 12.171875 29.828125 
Q 18.359375 34.515625 30.609375 34.515625 
L 43.21875 34.515625 
L 43.21875 35.40625 
Q 43.21875 41.609375 39.140625 45 
Q 35.0625 48.390625 27.6875 48.390625 
Q 23 48.390625 18.546875 47.265625 
Q 14.109375 46.140625 10.015625 43.890625 
L 10.015625 52.203125 
Q 14.9375 54.109375 19.578125 55.046875 
Q 24.21875 56 28.609375 56 
Q 40.484375 56 46.34375 49.84375 
Q 52.203125 43.703125 52.203125 31.203125 
z
" id="DejaVuSans-61"/>
      <path d="M 44.28125 53.078125 
L 44.28125 44.578125 
Q 40.484375 46.53125 36.375 47.5 
Q 32.28125 48.484375 27.875 48.484375 
Q 21.1875 48.484375 17.84375 46.4375 
Q 14.5 44.390625 14.5 40.28125 
Q 14.5 37.15625 16.890625 35.375 
Q 19.28125 33.59375 26.515625 31.984375 
L 29.59375 31.296875 
Q 39.15625 29.25 43.1875 25.515625 
Q 47.21875 21.78125 47.21875 15.09375 
Q 47.21875 7.46875 41.1875 3.015625 
Q 35.15625 -1.421875 24.609375 -1.421875 
Q 20.21875 -1.421875 15.453125 -0.5625 
Q 10.6875 0.296875 5.421875 2 
L 5.421875 11.28125 
Q 10.40625 8.6875 15.234375 7.390625 
Q 20.0625 6.109375 24.8125 6.109375 
Q 31.15625 6.109375 34.5625 8.28125 
Q 37.984375 10.453125 37.984375 14.40625 
Q 37.984375 18.0625 35.515625 20.015625 
Q 33.0625 21.96875 24.703125 23.78125 
L 21.578125 24.515625 
Q 13.234375 26.265625 9.515625 29.90625 
Q 5.8125 33.546875 5.8125 39.890625 
Q 5.8125 47.609375 11.28125 51.796875 
Q 16.75 56 26.8125 56 
Q 31.78125 56 36.171875 55.265625 
Q 40.578125 54.546875 44.28125 53.078125 
z
" id="DejaVuSans-73"/>
      <path d="M 25.390625 72.90625 
L 33.6875 72.90625 
L 8.296875 -9.28125 
L 0 -9.28125 
z
" id="DejaVuSans-2f"/>
      <path d="M 45.40625 46.390625 
L 45.40625 75.984375 
L 54.390625 75.984375 
L 54.390625 0 
L 45.40625 0 
L 45.40625 8.203125 
Q 42.578125 3.328125 38.25 0.953125 
Q 33.9375 -1.421875 27.875 -1.421875 
Q 17.96875 -1.421875 11.734375 6.484375 
Q 5.515625 14.40625 5.515625 27.296875 
Q 5.515625 40.1875 11.734375 48.09375 
Q 17.96875 56 27.875 56 
Q 33.9375 56 38.25 53.625 
Q 42.578125 51.265625 45.40625 46.390625 
z
M 14.796875 27.296875 
Q 14.796875 17.390625 18.875 11.75 
Q 22.953125 6.109375 30.078125 6.109375 
Q 37.203125 6.109375 41.296875 11.75 
Q 45.40625 17.390625 45.40625 27.296875 
Q 45.40625 37.203125 41.296875 42.84375 
Q 37.203125 48.484375 30.078125 48.484375 
Q 22.953125 48.484375 18.875 42.84375 
Q 14.796875 37.203125 14.796875 27.296875 
z
" id="DejaVuSans-64"/>
      <path d="M 9.421875 54.6875 
L 18.40625 54.6875 
L 18.40625 0 
L 9.421875 0 
z
M 9.421875 75.984375 
L 18.40625 75.984375 
L 18.40625 64.59375 
L 9.421875 64.59375 
z
" id="DejaVuSans-69"/>
      <path d="M 52 44.1875 
Q 55.375 50.25 60.0625 53.125 
Q 64.75 56 71.09375 56 
Q 79.640625 56 84.28125 50.015625 
Q 88.921875 44.046875 88.921875 33.015625 
L 88.921875 0 
L 79.890625 0 
L 79.890625 32.71875 
Q 79.890625 40.578125 77.09375 44.375 
Q 74.3125 48.1875 68.609375 48.1875 
Q 61.625 48.1875 57.5625 43.546875 
Q 53.515625 38.921875 53.515625 30.90625 
L 53.515625 0 
L 44.484375 0 
L 44.484375 32.71875 
Q 44.484375 40.625 41.703125 44.40625 
Q 38.921875 48.1875 33.109375 48.1875 
Q 26.21875 48.1875 22.15625 43.53125 
Q 18.109375 38.875 18.109375 30.90625 
L 18.109375 0 
L 9.078125 0 
L 9.078125 54.6875 
L 18.109375 54.6875 
L 18.109375 46.1875 
Q 21.1875 51.21875 25.484375 53.609375 
Q 29.78125 56 35.6875 56 
Q 41.65625 56 45.828125 52.96875 
Q 50 49.953125 52 44.1875 
z
" id="DejaVuSans-6d"/>
      <path d="M 54.890625 33.015625 
L 54.890625 0 
L 45.90625 0 
L 45.90625 32.71875 
Q 45.90625 40.484375 42.875 44.328125 
Q 39.84375 48.1875 33.796875 48.1875 
Q 26.515625 48.1875 22.3125 43.546875 
Q 18.109375 38.921875 18.109375 30.90625 
L 18.109375 0 
L 9.078125 0 
L 9.078125 54.6875 
L 18.109375 54.6875 
L 18.109375 46.1875 
Q 21.34375 51.125 25.703125 53.5625 
Q 30.078125 56 35.796875 56 
Q 45.21875 56 50.046875 50.171875 
Q 54.890625 44.34375 54.890625 33.015625 
z
" id="DejaVuSans-6e"/>
      <path d="M 8.015625 75.875 
L 15.828125 75.875 
Q 23.140625 64.359375 26.78125 53.3125 
Q 30.421875 42.28125 30.421875 31.390625 
Q 30.421875 20.453125 26.78125 9.375 
Q 23.140625 -1.703125 15.828125 -13.1875 
L 8.015625 -13.1875 
Q 14.5 -2 17.703125 9.0625 
Q 20.90625 20.125 20.90625 31.390625 
Q 20.90625 42.671875 17.703125 53.65625 
Q 14.5 64.65625 8.015625 75.875 
z
" id="DejaVuSans-29"/>
     </defs>
     <g transform="translate(73.803219 338.153594)scale(0.17 -0.17)">
      <use xlink:href="#DejaVuSans-6c"/>
      <use x="27.783203" xlink:href="#DejaVuSans-6f"/>
      <use x="88.964844" xlink:href="#DejaVuSans-67"/>
      <use x="152.441406" xlink:href="#DejaVuSans-31"/>
      <use x="216.064453" xlink:href="#DejaVuSans-30"/>
      <use x="279.6875" xlink:href="#DejaVuSans-28"/>
      <use x="318.701172" xlink:href="#DejaVuSans-23"/>
      <use x="402.490234" xlink:href="#DejaVuSans-20"/>
      <use x="434.277344" xlink:href="#DejaVuSans-66"/>
      <use x="469.404297" xlink:href="#DejaVuSans-2d"/>
      <use x="505.488281" xlink:href="#DejaVuSans-65"/>
      <use x="567.011719" xlink:href="#DejaVuSans-76"/>
      <use x="626.191406" xlink:href="#DejaVuSans-61"/>
      <use x="687.470703" xlink:href="#DejaVuSans-6c"/>
      <use x="715.253906" xlink:href="#DejaVuSans-73"/>
      <use x="767.353516" xlink:href="#DejaVuSans-20"/>
      <use x="799.140625" xlink:href="#DejaVuSans-2f"/>
      <use x="832.832031" xlink:href="#DejaVuSans-20"/>
      <use x="864.619141" xlink:href="#DejaVuSans-64"/>
      <use x="928.095703" xlink:href="#DejaVuSans-69"/>
      <use x="955.878906" xlink:href="#DejaVuSans-6d"/>
      <use x="1053.291016" xlink:href="#DejaVuSans-65"/>
      <use x="1114.814453" xlink:href="#DejaVuSans-6e"/>
      <use x="1178.193359" xlink:href="#DejaVuSans-73"/>
      <use x="1230.292969" xlink:href="#DejaVuSans-69"/>
      <use x="1258.076172" xlink:href="#DejaVuSans-6f"/>
      <use x="1319.257812" xlink:href="#DejaVuSans-6e"/>
      <use x="1382.636719" xlink:href="#DejaVuSans-29"/>
     </g>
    </g>
   </g>
   <g id="matplotlib.axis_2">
    <g id="ytick_1">
     <g id="line2d_29">
      <path clip-path="url(#p66f02d3428)" d="M 56.12 294.88 
L 333.168 294.88 
" style="fill:none;stroke:#b0b0b0;stroke-linecap:square;stroke-width:0.8;"/>
     </g>
     <g id="line2d_30">
      <defs>
       <path d="M 0 0 
L -3.5 0 
" id="m1e17b7be7e" style="stroke:#000000;stroke-width:0.8;"/>
      </defs>
      <g>
       <use style="stroke:#000000;stroke-width:0.8;" x="56.12" xlink:href="#m1e17b7be7e" y="294.88"/>
      </g>
     </g>
     <g id="text_6">
      <!-- 0.0 -->
      <defs>
       <path d="M 10.6875 12.40625 
L 21 12.40625 
L 21 0 
L 10.6875 0 
z
" id="DejaVuSans-2e"/>
      </defs>
      <g transform="translate(23.675 300.95875)scale(0.16 -0.16)">
       <use xlink:href="#DejaVuSans-30"/>
       <use x="63.623047" xlink:href="#DejaVuSans-2e"/>
       <use x="95.410156" xlink:href="#DejaVuSans-30"/>
      </g>
     </g>
    </g>
    <g id="ytick_2">
     <g id="line2d_31">
      <path clip-path="url(#p66f02d3428)" d="M 56.12 237.843411 
L 333.168 237.843411 
" style="fill:none;stroke:#b0b0b0;stroke-linecap:square;stroke-width:0.8;"/>
     </g>
     <g id="line2d_32">
      <g>
       <use style="stroke:#000000;stroke-width:0.8;" x="56.12" xlink:href="#m1e17b7be7e" y="237.843411"/>
      </g>
     </g>
     <g id="text_7">
      <!-- 0.2 -->
      <g transform="translate(23.675 243.922161)scale(0.16 -0.16)">
       <use xlink:href="#DejaVuSans-30"/>
       <use x="63.623047" xlink:href="#DejaVuSans-2e"/>
       <use x="95.410156" xlink:href="#DejaVuSans-32"/>
      </g>
     </g>
    </g>
    <g id="ytick_3">
     <g id="line2d_33">
      <path clip-path="url(#p66f02d3428)" d="M 56.12 180.806823 
L 333.168 180.806823 
" style="fill:none;stroke:#b0b0b0;stroke-linecap:square;stroke-width:0.8;"/>
     </g>
     <g id="line2d_34">
      <g>
       <use style="stroke:#000000;stroke-width:0.8;" x="56.12" xlink:href="#m1e17b7be7e" y="180.806823"/>
      </g>
     </g>
     <g id="text_8">
      <!-- 0.4 -->
      <g transform="translate(23.675 186.885573)scale(0.16 -0.16)">
       <use xlink:href="#DejaVuSans-30"/>
       <use x="63.623047" xlink:href="#DejaVuSans-2e"/>
       <use x="95.410156" xlink:href="#DejaVuSans-34"/>
      </g>
     </g>
    </g>
    <g id="ytick_4">
     <g id="line2d_35">
      <path clip-path="url(#p66f02d3428)" d="M 56.12 123.770234 
L 333.168 123.770234 
" style="fill:none;stroke:#b0b0b0;stroke-linecap:square;stroke-width:0.8;"/>
     </g>
     <g id="line2d_36">
      <g>
       <use style="stroke:#000000;stroke-width:0.8;" x="56.12" xlink:href="#m1e17b7be7e" y="123.770234"/>
      </g>
     </g>
     <g id="text_9">
      <!-- 0.6 -->
      <g transform="translate(23.675 129.848984)scale(0.16 -0.16)">
       <use xlink:href="#DejaVuSans-30"/>
       <use x="63.623047" xlink:href="#DejaVuSans-2e"/>
       <use x="95.410156" xlink:href="#DejaVuSans-36"/>
      </g>
     </g>
    </g>
    <g id="ytick_5">
     <g id="line2d_37">
      <path clip-path="url(#p66f02d3428)" d="M 56.12 66.733646 
L 333.168 66.733646 
" style="fill:none;stroke:#b0b0b0;stroke-linecap:square;stroke-width:0.8;"/>
     </g>
     <g id="line2d_38">
      <g>
       <use style="stroke:#000000;stroke-width:0.8;" x="56.12" xlink:href="#m1e17b7be7e" y="66.733646"/>
      </g>
     </g>
     <g id="text_10">
      <!-- 0.8 -->
      <defs>
       <path d="M 31.78125 34.625 
Q 24.75 34.625 20.71875 30.859375 
Q 16.703125 27.09375 16.703125 20.515625 
Q 16.703125 13.921875 20.71875 10.15625 
Q 24.75 6.390625 31.78125 6.390625 
Q 38.8125 6.390625 42.859375 10.171875 
Q 46.921875 13.96875 46.921875 20.515625 
Q 46.921875 27.09375 42.890625 30.859375 
Q 38.875 34.625 31.78125 34.625 
z
M 21.921875 38.8125 
Q 15.578125 40.375 12.03125 44.71875 
Q 8.5 49.078125 8.5 55.328125 
Q 8.5 64.0625 14.71875 69.140625 
Q 20.953125 74.21875 31.78125 74.21875 
Q 42.671875 74.21875 48.875 69.140625 
Q 55.078125 64.0625 55.078125 55.328125 
Q 55.078125 49.078125 51.53125 44.71875 
Q 48 40.375 41.703125 38.8125 
Q 48.828125 37.15625 52.796875 32.3125 
Q 56.78125 27.484375 56.78125 20.515625 
Q 56.78125 9.90625 50.3125 4.234375 
Q 43.84375 -1.421875 31.78125 -1.421875 
Q 19.734375 -1.421875 13.25 4.234375 
Q 6.78125 9.90625 6.78125 20.515625 
Q 6.78125 27.484375 10.78125 32.3125 
Q 14.796875 37.15625 21.921875 38.8125 
z
M 18.3125 54.390625 
Q 18.3125 48.734375 21.84375 45.5625 
Q 25.390625 42.390625 31.78125 42.390625 
Q 38.140625 42.390625 41.71875 45.5625 
Q 45.3125 48.734375 45.3125 54.390625 
Q 45.3125 60.0625 41.71875 63.234375 
Q 38.140625 66.40625 31.78125 66.40625 
Q 25.390625 66.40625 21.84375 63.234375 
Q 18.3125 60.0625 18.3125 54.390625 
z
" id="DejaVuSans-38"/>
      </defs>
      <g transform="translate(23.675 72.812396)scale(0.16 -0.16)">
       <use xlink:href="#DejaVuSans-30"/>
       <use x="63.623047" xlink:href="#DejaVuSans-2e"/>
       <use x="95.410156" xlink:href="#DejaVuSans-38"/>
      </g>
     </g>
    </g>
    <g id="ytick_6">
     <g id="line2d_39">
      <path clip-path="url(#p66f02d3428)" d="M 56.12 9.697057 
L 333.168 9.697057 
" style="fill:none;stroke:#b0b0b0;stroke-linecap:square;stroke-width:0.8;"/>
     </g>
     <g id="line2d_40">
      <g>
       <use style="stroke:#000000;stroke-width:0.8;" x="56.12" xlink:href="#m1e17b7be7e" y="9.697057"/>
      </g>
     </g>
     <g id="text_11">
      <!-- 1.0 -->
      <g transform="translate(23.675 15.775807)scale(0.16 -0.16)">
       <use xlink:href="#DejaVuSans-31"/>
       <use x="63.623047" xlink:href="#DejaVuSans-2e"/>
       <use x="95.410156" xlink:href="#DejaVuSans-30"/>
      </g>
     </g>
    </g>
    <g id="text_12">
     <!-- Fraction of function,target pairs -->
     <defs>
      <path d="M 9.8125 72.90625 
L 51.703125 72.90625 
L 51.703125 64.59375 
L 19.671875 64.59375 
L 19.671875 43.109375 
L 48.578125 43.109375 
L 48.578125 34.8125 
L 19.671875 34.8125 
L 19.671875 0 
L 9.8125 0 
z
" id="DejaVuSans-46"/>
      <path d="M 41.109375 46.296875 
Q 39.59375 47.171875 37.8125 47.578125 
Q 36.03125 48 33.890625 48 
Q 26.265625 48 22.1875 43.046875 
Q 18.109375 38.09375 18.109375 28.8125 
L 18.109375 0 
L 9.078125 0 
L 9.078125 54.6875 
L 18.109375 54.6875 
L 18.109375 46.1875 
Q 20.953125 51.171875 25.484375 53.578125 
Q 30.03125 56 36.53125 56 
Q 37.453125 56 38.578125 55.875 
Q 39.703125 55.765625 41.0625 55.515625 
z
" id="DejaVuSans-72"/>
      <path d="M 48.78125 52.59375 
L 48.78125 44.1875 
Q 44.96875 46.296875 41.140625 47.34375 
Q 37.3125 48.390625 33.40625 48.390625 
Q 24.65625 48.390625 19.8125 42.84375 
Q 14.984375 37.3125 14.984375 27.296875 
Q 14.984375 17.28125 19.8125 11.734375 
Q 24.65625 6.203125 33.40625 6.203125 
Q 37.3125 6.203125 41.140625 7.25 
Q 44.96875 8.296875 48.78125 10.40625 
L 48.78125 2.09375 
Q 45.015625 0.34375 40.984375 -0.53125 
Q 36.96875 -1.421875 32.421875 -1.421875 
Q 20.0625 -1.421875 12.78125 6.34375 
Q 5.515625 14.109375 5.515625 27.296875 
Q 5.515625 40.671875 12.859375 48.328125 
Q 20.21875 56 33.015625 56 
Q 37.15625 56 41.109375 55.140625 
Q 45.0625 54.296875 48.78125 52.59375 
z
" id="DejaVuSans-63"/>
      <path d="M 18.3125 70.21875 
L 18.3125 54.6875 
L 36.8125 54.6875 
L 36.8125 47.703125 
L 18.3125 47.703125 
L 18.3125 18.015625 
Q 18.3125 11.328125 20.140625 9.421875 
Q 21.96875 7.515625 27.59375 7.515625 
L 36.8125 7.515625 
L 36.8125 0 
L 27.59375 0 
Q 17.1875 0 13.234375 3.875 
Q 9.28125 7.765625 9.28125 18.015625 
L 9.28125 47.703125 
L 2.6875 47.703125 
L 2.6875 54.6875 
L 9.28125 54.6875 
L 9.28125 70.21875 
z
" id="DejaVuSans-74"/>
      <path d="M 8.5 21.578125 
L 8.5 54.6875 
L 17.484375 54.6875 
L 17.484375 21.921875 
Q 17.484375 14.15625 20.5 10.265625 
Q 23.53125 6.390625 29.59375 6.390625 
Q 36.859375 6.390625 41.078125 11.03125 
Q 45.3125 15.671875 45.3125 23.6875 
L 45.3125 54.6875 
L 54.296875 54.6875 
L 54.296875 0 
L 45.3125 0 
L 45.3125 8.40625 
Q 42.046875 3.421875 37.71875 1 
Q 33.40625 -1.421875 27.6875 -1.421875 
Q 18.265625 -1.421875 13.375 4.4375 
Q 8.5 10.296875 8.5 21.578125 
z
M 31.109375 56 
z
" id="DejaVuSans-75"/>
      <path d="M 11.71875 12.40625 
L 22.015625 12.40625 
L 22.015625 4 
L 14.015625 -11.625 
L 7.71875 -11.625 
L 11.71875 4 
z
" id="DejaVuSans-2c"/>
      <path d="M 18.109375 8.203125 
L 18.109375 -20.796875 
L 9.078125 -20.796875 
L 9.078125 54.6875 
L 18.109375 54.6875 
L 18.109375 46.390625 
Q 20.953125 51.265625 25.265625 53.625 
Q 29.59375 56 35.59375 56 
Q 45.5625 56 51.78125 48.09375 
Q 58.015625 40.1875 58.015625 27.296875 
Q 58.015625 14.40625 51.78125 6.484375 
Q 45.5625 -1.421875 35.59375 -1.421875 
Q 29.59375 -1.421875 25.265625 0.953125 
Q 20.953125 3.328125 18.109375 8.203125 
z
M 48.6875 27.296875 
Q 48.6875 37.203125 44.609375 42.84375 
Q 40.53125 48.484375 33.40625 48.484375 
Q 26.265625 48.484375 22.1875 42.84375 
Q 18.109375 37.203125 18.109375 27.296875 
Q 18.109375 17.390625 22.1875 11.75 
Q 26.265625 6.109375 33.40625 6.109375 
Q 40.53125 6.109375 44.609375 11.75 
Q 48.6875 17.390625 48.6875 27.296875 
z
" id="DejaVuSans-70"/>
     </defs>
     <g transform="translate(16.139531 286.001989)rotate(-90)scale(0.17 -0.17)">
      <use xlink:href="#DejaVuSans-46"/>
      <use x="57.410156" xlink:href="#DejaVuSans-72"/>
      <use x="98.523438" xlink:href="#DejaVuSans-61"/>
      <use x="159.802734" xlink:href="#DejaVuSans-63"/>
      <use x="214.783203" xlink:href="#DejaVuSans-74"/>
      <use x="253.992188" xlink:href="#DejaVuSans-69"/>
      <use x="281.775391" xlink:href="#DejaVuSans-6f"/>
      <use x="342.957031" xlink:href="#DejaVuSans-6e"/>
      <use x="406.335938" xlink:href="#DejaVuSans-20"/>
      <use x="438.123047" xlink:href="#DejaVuSans-6f"/>
      <use x="499.304688" xlink:href="#DejaVuSans-66"/>
      <use x="534.509766" xlink:href="#DejaVuSans-20"/>
      <use x="566.296875" xlink:href="#DejaVuSans-66"/>
      <use x="601.501953" xlink:href="#DejaVuSans-75"/>
      <use x="664.880859" xlink:href="#DejaVuSans-6e"/>
      <use x="728.259766" xlink:href="#DejaVuSans-63"/>
      <use x="783.240234" xlink:href="#DejaVuSans-74"/>
      <use x="822.449219" xlink:href="#DejaVuSans-69"/>
      <use x="850.232422" xlink:href="#DejaVuSans-6f"/>
      <use x="911.414062" xlink:href="#DejaVuSans-6e"/>
      <use x="974.792969" xlink:href="#DejaVuSans-2c"/>
      <use x="1006.580078" xlink:href="#DejaVuSans-74"/>
      <use x="1045.789062" xlink:href="#DejaVuSans-61"/>
      <use x="1107.068359" xlink:href="#DejaVuSans-72"/>
      <use x="1148.166016" xlink:href="#DejaVuSans-67"/>
      <use x="1211.642578" xlink:href="#DejaVuSans-65"/>
      <use x="1273.166016" xlink:href="#DejaVuSans-74"/>
      <use x="1312.375" xlink:href="#DejaVuSans-20"/>
      <use x="1344.162109" xlink:href="#DejaVuSans-70"/>
      <use x="1407.638672" xlink:href="#DejaVuSans-61"/>
      <use x="1468.917969" xlink:href="#DejaVuSans-69"/>
      <use x="1496.701172" xlink:href="#DejaVuSans-72"/>
      <use x="1537.814453" xlink:href="#DejaVuSans-73"/>
     </g>
    </g>
   </g>
   <g id="line2d_41">
    <defs>
     <path d="M 0 1.5 
C 0.397805 1.5 0.77937 1.341951 1.06066 1.06066 
C 1.341951 0.77937 1.5 0.397805 1.5 0 
C 1.5 -0.397805 1.341951 -0.77937 1.06066 -1.06066 
C 0.77937 -1.341951 0.397805 -1.5 0 -1.5 
C -0.397805 -1.5 -0.77937 -1.341951 -1.06066 -1.06066 
C -1.341951 -0.77937 -1.5 -0.397805 -1.5 0 
C -1.5 0.397805 -1.341951 0.77937 -1.06066 1.06066 
C -0.77937 1.341951 -0.397805 1.5 0 1.5 
z
" id="mcf2dd18e12" style="stroke:#f5deb3;"/>
    </defs>
    <g>
     <use style="fill:#f5deb3;stroke:#f5deb3;" x="184.668971" xlink:href="#mcf2dd18e12" y="9.697057"/>
     <use style="fill:#f5deb3;stroke:#f5deb3;" x="184.668971" xlink:href="#mcf2dd18e12" y="9.697057"/>
    </g>
   </g>
   <g id="line2d_42">
    <defs>
     <path d="M 0 1.5 
C 0.397805 1.5 0.77937 1.341951 1.06066 1.06066 
C 1.341951 0.77937 1.5 0.397805 1.5 0 
C 1.5 -0.397805 1.341951 -0.77937 1.06066 -1.06066 
C 0.77937 -1.341951 0.397805 -1.5 0 -1.5 
C -0.397805 -1.5 -0.77937 -1.341951 -1.06066 -1.06066 
C -1.341951 -0.77937 -1.5 -0.397805 -1.5 0 
C -1.5 0.397805 -1.341951 0.77937 -1.06066 1.06066 
C -0.77937 1.341951 -0.397805 1.5 0 1.5 
z
" id="mf5a44c3a81" style="stroke:#000080;"/>
    </defs>
    <g>
     <use style="fill:#000080;stroke:#000080;" x="300.831168" xlink:href="#mf5a44c3a81" y="83.788704"/>
     <use style="fill:#000080;stroke:#000080;" x="300.831168" xlink:href="#mf5a44c3a81" y="83.788704"/>
    </g>
   </g>
   <g id="line2d_43">
    <path d="M 112.562769 294.88 
L 112.562769 294.740204 
L 113.210876 294.740204 
L 113.210876 294.600409 
L 113.835432 294.600409 
L 113.835432 294.460613 
L 115.58349 294.460613 
L 115.58349 294.320818 
L 116.128784 294.320818 
L 116.128784 294.041227 
L 116.65731 294.041227 
L 116.65731 293.901431 
L 117.667972 293.901431 
L 117.667972 293.761636 
L 119.080588 293.761636 
L 119.080588 293.62184 
L 119.526788 293.62184 
L 119.526788 292.922862 
L 119.961698 292.922862 
L 119.961698 292.783067 
L 120.385875 292.783067 
L 120.385875 292.36368 
L 120.799835 292.36368 
L 120.799835 292.084089 
L 121.20406 292.084089 
L 121.20406 291.944293 
L 121.598997 291.944293 
L 121.598997 291.664702 
L 122.362648 291.664702 
L 122.362648 291.245315 
L 122.732117 291.245315 
L 122.732117 291.10552 
L 123.448049 291.10552 
L 123.448049 290.686133 
L 124.135351 290.686133 
L 124.135351 290.546338 
L 124.468963 290.546338 
L 124.468963 290.406542 
L 125.432625 290.406542 
L 125.432625 290.266747 
L 125.742202 290.266747 
L 125.742202 289.987155 
L 126.046302 289.987155 
L 126.046302 289.84736 
L 127.490983 289.84736 
L 127.490983 289.707564 
L 127.7659 289.707564 
L 127.7659 289.567769 
L 128.302884 289.567769 
L 128.302884 289.427973 
L 129.576238 289.427973 
L 129.576238 289.288178 
L 130.531084 289.288178 
L 130.531084 289.148382 
L 131.213945 289.148382 
L 131.213945 289.008586 
L 131.435667 289.008586 
L 131.435667 288.868791 
L 132.084173 288.868791 
L 132.084173 288.728995 
L 132.503304 288.728995 
L 132.503304 288.5892 
L 133.508486 288.5892 
L 133.508486 288.449404 
L 134.272344 288.449404 
L 134.272344 288.309609 
L 134.45812 288.309609 
L 134.45812 288.169813 
L 135.876187 288.169813 
L 135.876187 288.030018 
L 136.867881 288.030018 
L 136.867881 287.890222 
L 138.403266 287.890222 
L 138.403266 287.750426 
L 139.947465 287.750426 
L 139.947465 287.610631 
L 140.213911 287.610631 
L 140.213911 287.470835 
L 140.3456 287.470835 
L 140.3456 287.33104 
L 141.3643 287.33104 
L 141.3643 287.191244 
L 141.609813 287.191244 
L 141.609813 287.051449 
L 142.090564 287.051449 
L 142.090564 286.911653 
L 142.208679 286.911653 
L 142.208679 286.771858 
L 142.673188 286.771858 
L 142.673188 286.632062 
L 143.566164 286.632062 
L 143.566164 286.492266 
L 143.995836 286.492266 
L 143.995836 286.352471 
L 144.311186 286.352471 
L 144.311186 286.212675 
L 144.51825 286.212675 
L 144.51825 286.07288 
L 144.824243 286.07288 
L 144.824243 285.793289 
L 145.124883 285.793289 
L 145.124883 285.653493 
L 145.322428 285.653493 
L 145.420356 285.373902 
L 145.614553 285.373902 
L 145.614553 285.234106 
L 147.005044 285.234106 
L 147.005044 285.094311 
L 147.617351 285.094311 
L 147.703069 284.81472 
L 147.873235 284.81472 
L 147.95769 284.395333 
L 148.041732 284.395333 
L 148.041732 284.255537 
L 148.373851 284.255537 
L 148.373851 284.115742 
L 148.780173 284.115742 
L 148.860298 283.696355 
L 149.333356 283.696355 
L 149.410949 283.416764 
L 149.488193 283.416764 
L 149.488193 283.276969 
L 149.641647 283.276969 
L 149.717864 282.717786 
L 149.793743 282.717786 
L 149.793743 282.577991 
L 149.944506 282.577991 
L 150.019394 282.2984 
L 150.093957 282.2984 
L 150.093957 282.158604 
L 150.315726 282.158604 
L 150.315726 282.018808 
L 151.244973 282.018808 
L 151.244973 281.879013 
L 151.452464 281.879013 
L 151.521075 281.599422 
L 151.65748 281.599422 
L 151.65748 281.459626 
L 151.860079 281.459626 
L 151.860079 281.319831 
L 152.12655 281.319831 
L 152.12655 281.04024 
L 152.711421 281.04024 
L 152.775195 280.620853 
L 153.02795 280.620853 
L 153.02795 280.481057 
L 153.152948 280.481057 
L 153.152948 280.341262 
L 153.277043 280.341262 
L 153.277043 280.201466 
L 153.400249 280.201466 
L 153.461522 279.921875 
L 153.824645 279.921875 
L 153.884426 279.502488 
L 154.062534 279.502488 
L 154.062534 279.222897 
L 154.471077 279.222897 
L 154.471077 279.083102 
L 154.700244 279.083102 
L 154.757061 278.803511 
L 154.813691 278.803511 
L 154.870136 278.523919 
L 155.149609 278.523919 
L 155.260139 278.104533 
L 155.641489 278.104533 
L 155.748911 277.824942 
L 155.855664 277.824942 
L 155.961759 277.405555 
L 156.014562 277.405555 
L 156.119684 276.986168 
L 156.172005 276.986168 
L 156.276171 276.426986 
L 156.431246 276.426986 
L 156.533858 275.867804 
L 156.584935 275.867804 
L 156.584935 275.728008 
L 156.988177 275.728008 
L 156.988177 275.448417 
L 157.382175 275.448417 
L 157.382175 275.168826 
L 157.814889 275.168826 
L 157.909586 274.889235 
L 158.003764 274.889235 
L 158.050661 274.330053 
L 158.190587 274.330053 
L 158.283242 273.910666 
L 158.421295 273.910666 
L 158.512718 273.491279 
L 158.603658 273.491279 
L 158.694119 272.652506 
L 158.784106 272.652506 
L 158.873625 272.372915 
L 159.007034 272.372915 
L 159.095402 271.394346 
L 159.139417 271.394346 
L 159.183319 270.974959 
L 159.314355 270.974959 
L 159.401161 270.415777 
L 159.444401 270.415777 
L 159.530554 269.856595 
L 159.573469 269.856595 
L 159.65898 269.017821 
L 159.701576 269.017821 
L 159.786453 268.039252 
L 159.828735 268.039252 
L 159.912988 266.22191 
L 159.954961 266.22191 
L 160.038599 264.404568 
L 160.080266 264.404568 
L 160.163298 263.425999 
L 160.204664 263.425999 
L 160.287099 262.167839 
L 160.328169 262.167839 
L 160.410015 260.909679 
L 160.450792 260.909679 
L 160.532057 260.210701 
L 160.572547 260.210701 
L 160.65324 258.533154 
L 160.693445 258.533154 
L 160.773574 256.576016 
L 160.813499 256.576016 
L 160.893072 254.479083 
L 160.972278 254.479083 
L 161.05112 253.220923 
L 161.090406 253.220923 
L 161.16871 251.822967 
L 161.207729 251.822967 
L 161.285501 249.86583 
L 161.324256 249.86583 
L 161.401504 246.930123 
L 161.439998 246.930123 
L 161.516729 241.478096 
L 161.554967 241.478096 
L 161.631187 234.068931 
L 161.669171 234.068931 
L 161.744888 227.778131 
L 161.782622 227.778131 
L 161.857842 223.72406 
L 161.895329 223.72406 
L 161.970058 217.013873 
L 162.007301 217.013873 
L 162.081546 213.379188 
L 162.118549 213.379188 
L 162.229081 208.206753 
L 162.265768 208.206753 
L 162.375361 200.378201 
L 162.411737 200.378201 
L 162.520406 192.689445 
L 162.556477 192.689445 
L 162.664237 187.377214 
L 162.700008 187.377214 
L 162.806875 181.22621 
L 162.84235 181.22621 
L 162.948339 175.634387 
L 162.983524 175.634387 
L 163.088648 170.18236 
L 163.123547 170.18236 
L 163.227821 168.644609 
L 163.262439 168.644609 
L 163.296988 167.805836 
L 163.468695 167.805836 
L 163.468695 167.66604 
L 163.638705 167.66604 
L 163.638705 167.526245 
L 163.90727 167.526245 
L 163.90727 167.246654 
L 164.039995 167.246654 
L 164.073017 166.967062 
L 164.367392 166.967062 
L 164.43213 166.547676 
L 164.752211 166.547676 
L 164.752211 166.40788 
L 164.910043 166.40788 
L 164.972773 165.988493 
L 165.221426 165.988493 
L 165.252257 165.708902 
L 165.557556 165.708902 
L 165.557556 165.569107 
L 165.678173 165.569107 
L 165.678173 165.429311 
L 165.79795 165.429311 
L 165.887238 165.14972 
L 165.976064 165.14972 
L 166.035028 164.870129 
L 166.268881 164.870129 
L 166.29789 164.590538 
L 166.556793 164.590538 
L 166.58532 164.310947 
L 166.811853 164.310947 
L 166.868023 164.031356 
L 166.979815 164.031356 
L 166.979815 163.89156 
L 167.173718 163.89156 
L 167.173718 163.751765 
L 167.419851 163.751765 
L 167.474072 163.472173 
L 167.635715 163.472173 
L 167.662509 163.192582 
L 167.980814 163.192582 
L 167.980814 163.052787 
L 168.111721 163.052787 
L 168.111721 162.773196 
L 168.574899 162.773196 
L 168.600268 162.493604 
L 168.701375 162.493604 
L 168.701375 162.353809 
L 168.926712 162.353809 
L 169.001173 161.654831 
L 169.22264 161.654831 
L 169.320161 161.235444 
L 169.681015 161.235444 
L 169.775977 160.955853 
L 169.893946 160.955853 
L 169.987742 160.676262 
L 170.034449 160.676262 
L 170.034449 160.536467 
L 170.289091 160.536467 
L 170.357889 159.977284 
L 170.562647 159.977284 
L 170.585248 159.697693 
L 170.675356 159.697693 
L 170.742629 159.418102 
L 170.809639 159.418102 
L 170.920745 158.719124 
L 171.009116 158.719124 
L 171.118945 158.439533 
L 171.206305 158.439533 
L 171.206305 158.299738 
L 171.379705 158.299738 
L 171.487198 158.020147 
L 171.572711 158.020147 
L 171.636568 157.60076 
L 171.742472 157.60076 
L 171.784651 157.041578 
L 171.889649 157.041578 
L 171.994009 156.761987 
L 172.035577 156.761987 
L 172.139058 155.643622 
L 172.159679 155.643622 
L 172.262418 153.966075 
L 172.282892 153.966075 
L 172.344169 153.127302 
L 172.425533 153.127302 
L 172.466071 152.847711 
L 172.567 152.847711 
L 172.647319 152.56812 
L 172.826675 152.56812 
L 172.905792 152.148733 
L 172.964892 152.148733 
L 173.023789 151.729346 
L 173.082485 151.729346 
L 173.179869 151.30996 
L 173.218668 151.30996 
L 173.276704 150.890573 
L 173.334544 150.890573 
L 173.430514 150.191595 
L 173.449644 150.191595 
L 173.544975 148.79364 
L 173.563978 148.79364 
L 173.620861 146.976297 
L 173.677556 146.976297 
L 173.771635 146.137524 
L 173.790389 146.137524 
L 173.883854 144.040591 
L 173.995346 144.040591 
L 174.069273 143.760999 
L 174.124511 143.760999 
L 174.161238 143.481408 
L 174.289168 143.481408 
L 174.398069 142.363044 
L 174.434217 142.363044 
L 174.542206 138.448768 
L 174.560138 138.448768 
L 174.667341 137.190608 
L 174.685144 137.190608 
L 174.791573 135.792652 
L 174.809247 135.792652 
L 174.914912 133.835515 
L 174.93246 133.835515 
L 175.037373 129.362057 
L 175.054797 129.362057 
L 175.124314 128.243692 
L 175.176269 128.243692 
L 175.176269 128.103897 
L 175.484739 128.103897 
L 175.586345 127.544714 
L 175.65375 127.544714 
L 175.704131 127.265123 
L 175.837762 127.265123 
L 175.920757 126.705941 
L 175.986865 126.705941 
L 175.986865 126.566145 
L 176.118325 126.566145 
L 176.216264 126.286554 
L 176.458697 126.286554 
L 176.554721 125.727372 
L 176.570673 125.727372 
L 176.602532 125.307985 
L 176.760951 125.307985 
L 176.870981 124.888599 
L 176.949145 124.888599 
L 176.980311 124.609008 
L 177.242968 124.609008 
L 177.273607 124.329417 
L 177.395618 124.329417 
L 177.456301 123.91003 
L 177.577026 123.91003 
L 177.667018 123.490643 
L 177.711837 123.490643 
L 177.786277 122.791665 
L 177.889955 122.791665 
L 177.96363 122.512074 
L 178.007684 122.512074 
L 178.007684 122.372279 
L 178.139171 122.372279 
L 178.240749 121.952892 
L 178.298524 121.952892 
L 178.356107 121.39371 
L 178.556139 121.39371 
L 178.598702 120.974323 
L 178.683512 120.974323 
L 178.75387 120.694732 
L 178.865846 120.694732 
L 178.90765 120.415141 
L 178.990954 120.415141 
L 179.073855 119.855959 
L 179.128902 119.855959 
L 179.197463 119.436572 
L 179.252116 119.436572 
L 179.320189 118.737594 
L 179.401522 118.737594 
L 179.50937 118.178412 
L 179.616546 118.178412 
L 179.70978 117.898821 
L 179.776068 117.898821 
L 179.776068 117.759025 
L 179.921006 117.759025 
L 179.921006 117.479434 
L 180.116701 117.479434 
L 180.207268 116.920252 
L 180.271668 116.920252 
L 180.323015 116.500865 
L 180.412504 116.500865 
L 180.42525 116.081478 
L 180.539543 116.081478 
L 180.539543 115.941683 
L 180.728359 115.941683 
L 180.803308 115.242705 
L 180.853093 115.242705 
L 180.939872 114.543727 
L 180.964585 114.543727 
L 181.075359 112.726385 
L 181.124363 112.726385 
L 181.209787 111.608021 
L 181.25841 111.608021 
L 181.294787 111.188634 
L 181.415493 111.188634 
L 181.499485 110.629452 
L 181.606875 110.629452 
L 181.701773 110.210065 
L 181.80791 110.210065 
L 181.819663 109.930474 
L 182.029849 109.930474 
L 182.099344 109.511087 
L 182.237496 109.511087 
L 182.237496 109.371292 
L 182.442665 109.371292 
L 182.53307 108.812109 
L 182.56685 108.812109 
L 182.600564 108.532518 
L 182.768148 108.532518 
L 182.812562 108.252927 
L 182.890012 108.252927 
L 183.000053 107.693745 
L 183.021977 107.693745 
L 183.021977 107.553949 
L 183.163805 107.553949 
L 183.261313 106.854972 
L 183.326012 106.854972 
L 183.422606 106.155994 
L 183.443998 106.155994 
L 183.465363 105.876403 
L 183.586538 105.876403 
L 183.586538 105.736607 
L 183.772212 105.736607 
L 183.855905 105.037629 
L 183.980685 105.037629 
L 184.073679 104.618243 
L 184.145662 104.618243 
L 184.23777 104.05906 
L 184.349681 104.05906 
L 184.349681 103.919265 
L 184.481006 103.919265 
L 184.581347 103.639674 
L 184.770396 103.639674 
L 184.790176 103.360082 
L 184.888733 103.360082 
L 184.888733 103.220287 
L 185.07445 103.220287 
L 185.18106 102.661105 
L 185.334958 102.661105 
L 185.363662 102.241718 
L 185.477997 102.241718 
L 185.582141 101.402945 
L 185.629271 101.402945 
L 185.713781 100.703967 
L 185.900107 100.703967 
L 185.900107 100.564171 
L 186.038538 100.564171 
L 186.056912 100.28458 
L 186.203197 100.28458 
L 186.293997 100.004989 
L 186.375309 100.004989 
L 186.447265 99.166216 
L 186.50998 99.166216 
L 186.590279 98.886625 
L 186.625847 98.886625 
L 186.625847 98.746829 
L 186.855265 98.746829 
L 186.925243 98.327442 
L 186.994938 98.327442 
L 187.081661 97.908056 
L 187.133695 97.908056 
L 187.19375 97.348873 
L 187.288027 97.348873 
L 187.339234 97.069282 
L 187.424242 97.069282 
L 187.50883 96.789691 
L 187.609791 96.789691 
L 187.701819 95.950918 
L 187.743488 95.950918 
L 187.801656 95.671327 
L 187.933875 95.671327 
L 187.974986 95.25194 
L 188.089576 95.25194 
L 188.146586 94.832553 
L 188.260041 94.832553 
L 188.260041 94.692758 
L 188.412828 94.692758 
L 188.50863 93.99378 
L 188.548391 93.99378 
L 188.588059 93.714189 
L 188.777205 93.714189 
L 188.847601 93.294802 
L 188.972421 93.294802 
L 188.987535 93.015211 
L 189.134018 93.015211 
L 189.134018 92.875415 
L 189.29448 92.875415 
L 189.355216 92.595824 
L 189.483574 92.595824 
L 189.483574 92.456029 
L 189.892399 92.456029 
L 190.00223 92.176438 
L 190.075062 92.176438 
L 190.075062 92.036642 
L 190.241415 92.036642 
L 190.265099 91.757051 
L 190.377633 91.757051 
L 190.377633 91.617255 
L 191.152554 91.617255 
L 191.152554 91.47746 
L 191.972318 91.47746 
L 191.972318 91.337664 
L 195.806517 91.337664 
L 195.806517 91.197869 
L 196.324545 91.197869 
L 196.324545 91.058073 
L 196.495476 91.058073 
L 196.495476 90.918278 
L 196.822509 90.918278 
L 196.822509 90.778482 
L 196.96426 90.778482 
L 196.96426 90.638687 
L 197.25388 90.638687 
L 197.25388 90.498891 
L 197.482113 90.498891 
L 197.482113 90.359095 
L 197.613862 90.359095 
L 197.613862 90.079504 
L 197.772498 90.079504 
L 197.772498 89.939709 
L 198.468779 89.939709 
L 198.468779 89.799913 
L 198.91343 89.799913 
L 198.91343 89.660118 
L 200.378941 89.660118 
L 200.378941 89.520322 
L 200.510137 89.520322 
L 200.510137 89.380526 
L 200.750045 89.380526 
L 200.761757 89.100935 
L 200.905563 89.100935 
L 200.905563 88.96114 
L 201.026629 88.96114 
L 201.026629 88.821344 
L 201.216242 88.821344 
L 201.216242 88.681549 
L 201.610794 88.681549 
L 201.610794 88.541753 
L 202.029859 88.541753 
L 202.029859 88.401958 
L 207.418659 88.401958 
L 207.505878 87.982571 
L 211.669365 87.982571 
L 211.749874 87.70298 
L 211.905688 87.70298 
L 211.905688 87.563184 
L 212.023655 87.563184 
L 212.023655 87.423389 
L 215.218206 87.423389 
L 215.285402 87.143798 
L 218.750798 87.143798 
L 218.750798 87.004002 
L 220.234863 87.004002 
L 220.234863 86.864206 
L 221.915002 86.864206 
L 221.915002 86.724411 
L 224.352423 86.724411 
L 224.405764 86.44482 
L 226.491985 86.44482 
L 226.542385 86.165229 
L 229.409447 86.165229 
L 229.431566 85.885637 
L 234.564034 85.885637 
L 234.564034 85.745842 
L 236.59105 85.745842 
L 236.606576 85.466251 
L 238.437644 85.466251 
L 238.437644 85.326455 
L 240.146851 85.326455 
L 240.146851 85.18666 
L 249.714149 85.18666 
L 249.714149 85.046864 
L 250.323747 85.046864 
L 250.323747 84.907069 
L 251.585673 84.907069 
L 251.585673 84.767273 
L 256.265868 84.767273 
L 256.265868 84.627477 
L 257.699297 84.627477 
L 257.699297 84.487682 
L 269.388453 84.487682 
L 269.388453 84.347886 
L 271.144346 84.347886 
L 271.144346 84.208091 
L 280.646566 84.208091 
L 280.646566 84.068295 
L 290.260816 84.068295 
L 290.260816 83.9285 
L 300.831168 83.9285 
L 300.831168 83.788704 
L 333.168 83.788704 
L 333.168 83.788704 
" style="fill:none;stroke:#000080;stroke-linecap:square;stroke-width:1.5;"/>
   </g>
   <g id="line2d_44">
    <defs>
     <path d="M 0 6 
C 1.591219 6 3.117479 5.367802 4.242641 4.242641 
C 5.367802 3.117479 6 1.591219 6 0 
C 6 -1.591219 5.367802 -3.117479 4.242641 -4.242641 
C 3.117479 -5.367802 1.591219 -6 0 -6 
C -1.591219 -6 -3.117479 -5.367802 -4.242641 -4.242641 
C -5.367802 -3.117479 -6 -1.591219 -6 0 
C -6 1.591219 -5.367802 3.117479 -4.242641 4.242641 
C -3.117479 5.367802 -1.591219 6 0 6 
z
" id="me64511d1f5" style="stroke:#000080;stroke-width:1.5;"/>
    </defs>
    <g>
     <use style="fill:none;stroke:#000080;stroke-width:1.5;" x="174.93246" xlink:href="#me64511d1f5" y="133.416128"/>
     <use style="fill:none;stroke:#000080;stroke-width:1.5;" x="257.699297" xlink:href="#me64511d1f5" y="84.487682"/>
     <use style="fill:none;stroke:#000080;stroke-width:1.5;" x="300.831168" xlink:href="#me64511d1f5" y="83.788704"/>
     <use style="fill:none;stroke:#000080;stroke-width:1.5;" x="300.831168" xlink:href="#me64511d1f5" y="83.788704"/>
     <use style="fill:none;stroke:#000080;stroke-width:1.5;" x="333.168" xlink:href="#me64511d1f5" y="83.788704"/>
    </g>
   </g>
   <g id="line2d_45">
    <path style="fill:none;stroke:#000080;stroke-linecap:square;stroke-width:1.5;"/>
    <g/>
   </g>
   <g id="line2d_46">
    <path clip-path="url(#p66f02d3428)" d="M 135.701004 288.169813 
" style="fill:none;stroke:#000080;stroke-linecap:square;stroke-width:1.5;"/>
    <defs>
     <path d="M -12 12 
L 12 -12 
M -12 -12 
L 12 12 
" id="m1c2b80ffd8" style="stroke:#000080;"/>
    </defs>
    <g clip-path="url(#p66f02d3428)">
     <use style="fill:#000080;stroke:#000080;" x="135.701004" xlink:href="#m1c2b80ffd8" y="288.169813"/>
    </g>
   </g>
   <g id="line2d_47">
    <path clip-path="url(#p66f02d3428)" d="M 56.12 294.88 
L 56.12 294.88 
L 56.12 294.88 
L 56.12 294.88 
L 333.168 294.88 
" style="fill:none;stroke:#ff00ff;stroke-linecap:square;stroke-width:1.5;"/>
   </g>
   <g id="line2d_48">
    <defs>
     <path d="M -0 8.485281 
L 5.091169 0 
L 0 -8.485281 
L -5.091169 -0 
z
" id="me2b2637edb" style="stroke:#ff00ff;stroke-linejoin:miter;stroke-width:1.5;"/>
    </defs>
    <g clip-path="url(#p66f02d3428)">
     <use style="fill:none;stroke:#ff00ff;stroke-linejoin:miter;stroke-width:1.5;" x="56.12" xlink:href="#me2b2637edb" y="294.88"/>
    </g>
   </g>
   <g id="line2d_49">
    <path clip-path="url(#p66f02d3428)" style="fill:none;stroke:#ff00ff;stroke-linecap:square;stroke-width:1.5;"/>
    <g clip-path="url(#p66f02d3428)">
     <use style="fill:none;stroke:#ff00ff;stroke-linejoin:miter;stroke-width:1.5;" x="-1" xlink:href="#me2b2637edb" y="580.062943"/>
     <use style="fill:none;stroke:#ff00ff;stroke-linejoin:miter;stroke-width:1.5;" x="333.168" xlink:href="#me2b2637edb" y="580.062943"/>
    </g>
   </g>
   <g id="line2d_50">
    <path d="M 333.168 294.88 
L 363.64328 289.176341 
" style="fill:none;stroke:#ff00ff;stroke-linecap:square;stroke-width:1.5;"/>
    <g>
     <use style="fill:none;stroke:#ff00ff;stroke-linejoin:miter;stroke-width:1.5;" x="333.168" xlink:href="#me2b2637edb" y="294.88"/>
     <use style="fill:none;stroke:#ff00ff;stroke-linejoin:miter;stroke-width:1.5;" x="363.64328" xlink:href="#me2b2637edb" y="289.176341"/>
    </g>
   </g>
   <g id="line2d_51">
    <path d="M 333.168 83.788704 
L 363.64328 152.288529 
" style="fill:none;stroke:#000080;stroke-linecap:square;stroke-width:1.5;"/>
    <g>
     <use style="fill:none;stroke:#000080;stroke-width:1.5;" x="333.168" xlink:href="#me64511d1f5" y="83.788704"/>
     <use style="fill:none;stroke:#000080;stroke-width:1.5;" x="363.64328" xlink:href="#me64511d1f5" y="152.288529"/>
    </g>
   </g>
   <g id="line2d_52">
    <path d="M 333.168 294.88 
L 333.168 9.697057 
" style="fill:none;stroke:#000000;stroke-linecap:square;stroke-width:1.5;"/>
   </g>
   <g id="patch_3">
    <path d="M 56.12 294.88 
L 56.12 6.845228 
" style="fill:none;stroke:#000000;stroke-linecap:square;stroke-linejoin:miter;stroke-width:0.8;"/>
   </g>
   <g id="patch_4">
    <path d="M 333.168 294.88 
L 333.168 6.845228 
" style="fill:none;stroke:#000000;stroke-linecap:square;stroke-linejoin:miter;stroke-width:0.8;"/>
   </g>
   <g id="patch_5">
    <path d="M 56.12 294.88 
L 333.168 294.88 
" style="fill:none;stroke:#000000;stroke-linecap:square;stroke-linejoin:miter;stroke-width:0.8;"/>
   </g>
   <g id="patch_6">
    <path d="M 56.12 6.845228 
L 333.168 6.845228 
" style="fill:none;stroke:#000000;stroke-linecap:square;stroke-linejoin:miter;stroke-width:0.8;"/>
   </g>
   <g id="text_13">
    <!-- scipy-opt -->
    <defs>
     <path d="M 32.171875 -5.078125 
Q 28.375 -14.84375 24.75 -17.8125 
Q 21.140625 -20.796875 15.09375 -20.796875 
L 7.90625 -20.796875 
L 7.90625 -13.28125 
L 13.1875 -13.28125 
Q 16.890625 -13.28125 18.9375 -11.515625 
Q 21 -9.765625 23.484375 -3.21875 
L 25.09375 0.875 
L 2.984375 54.6875 
L 12.5 54.6875 
L 29.59375 11.921875 
L 46.6875 54.6875 
L 56.203125 54.6875 
z
" id="DejaVuSans-79"/>
    </defs>
    <g transform="translate(369.18424 293.867279)scale(0.17 -0.17)">
     <use xlink:href="#DejaVuSans-73"/>
     <use x="52.099609" xlink:href="#DejaVuSans-63"/>
     <use x="107.080078" xlink:href="#DejaVuSans-69"/>
     <use x="134.863281" xlink:href="#DejaVuSans-70"/>
     <use x="198.339844" xlink:href="#DejaVuSans-79"/>
     <use x="257.503906" xlink:href="#DejaVuSans-2d"/>
     <use x="293.603516" xlink:href="#DejaVuSans-6f"/>
     <use x="354.785156" xlink:href="#DejaVuSans-70"/>
     <use x="418.261719" xlink:href="#DejaVuSans-74"/>
    </g>
   </g>
   <g id="text_14">
    <!-- BFGS ros  -->
    <defs>
     <path d="M 19.671875 34.8125 
L 19.671875 8.109375 
L 35.5 8.109375 
Q 43.453125 8.109375 47.28125 11.40625 
Q 51.125 14.703125 51.125 21.484375 
Q 51.125 28.328125 47.28125 31.5625 
Q 43.453125 34.8125 35.5 34.8125 
z
M 19.671875 64.796875 
L 19.671875 42.828125 
L 34.28125 42.828125 
Q 41.5 42.828125 45.03125 45.53125 
Q 48.578125 48.25 48.578125 53.8125 
Q 48.578125 59.328125 45.03125 62.0625 
Q 41.5 64.796875 34.28125 64.796875 
z
M 9.8125 72.90625 
L 35.015625 72.90625 
Q 46.296875 72.90625 52.390625 68.21875 
Q 58.5 63.53125 58.5 54.890625 
Q 58.5 48.1875 55.375 44.234375 
Q 52.25 40.28125 46.1875 39.3125 
Q 53.46875 37.75 57.5 32.78125 
Q 61.53125 27.828125 61.53125 20.40625 
Q 61.53125 10.640625 54.890625 5.3125 
Q 48.25 0 35.984375 0 
L 9.8125 0 
z
" id="DejaVuSans-42"/>
     <path d="M 59.515625 10.40625 
L 59.515625 29.984375 
L 43.40625 29.984375 
L 43.40625 38.09375 
L 69.28125 38.09375 
L 69.28125 6.78125 
Q 63.578125 2.734375 56.6875 0.65625 
Q 49.8125 -1.421875 42 -1.421875 
Q 24.90625 -1.421875 15.25 8.5625 
Q 5.609375 18.5625 5.609375 36.375 
Q 5.609375 54.25 15.25 64.234375 
Q 24.90625 74.21875 42 74.21875 
Q 49.125 74.21875 55.546875 72.453125 
Q 61.96875 70.703125 67.390625 67.28125 
L 67.390625 56.78125 
Q 61.921875 61.421875 55.765625 63.765625 
Q 49.609375 66.109375 42.828125 66.109375 
Q 29.4375 66.109375 22.71875 58.640625 
Q 16.015625 51.171875 16.015625 36.375 
Q 16.015625 21.625 22.71875 14.15625 
Q 29.4375 6.6875 42.828125 6.6875 
Q 48.046875 6.6875 52.140625 7.59375 
Q 56.25 8.5 59.515625 10.40625 
z
" id="DejaVuSans-47"/>
     <path d="M 53.515625 70.515625 
L 53.515625 60.890625 
Q 47.90625 63.578125 42.921875 64.890625 
Q 37.9375 66.21875 33.296875 66.21875 
Q 25.25 66.21875 20.875 63.09375 
Q 16.5 59.96875 16.5 54.203125 
Q 16.5 49.359375 19.40625 46.890625 
Q 22.3125 44.4375 30.421875 42.921875 
L 36.375 41.703125 
Q 47.40625 39.59375 52.65625 34.296875 
Q 57.90625 29 57.90625 20.125 
Q 57.90625 9.515625 50.796875 4.046875 
Q 43.703125 -1.421875 29.984375 -1.421875 
Q 24.8125 -1.421875 18.96875 -0.25 
Q 13.140625 0.921875 6.890625 3.21875 
L 6.890625 13.375 
Q 12.890625 10.015625 18.65625 8.296875 
Q 24.421875 6.59375 29.984375 6.59375 
Q 38.421875 6.59375 43.015625 9.90625 
Q 47.609375 13.234375 47.609375 19.390625 
Q 47.609375 24.75 44.3125 27.78125 
Q 41.015625 30.8125 33.5 32.328125 
L 27.484375 33.5 
Q 16.453125 35.6875 11.515625 40.375 
Q 6.59375 45.0625 6.59375 53.421875 
Q 6.59375 63.09375 13.40625 68.65625 
Q 20.21875 74.21875 32.171875 74.21875 
Q 37.3125 74.21875 42.625 73.28125 
Q 47.953125 72.359375 53.515625 70.515625 
z
" id="DejaVuSans-53"/>
    </defs>
    <g transform="translate(369.18424 156.979466)scale(0.17 -0.17)">
     <use xlink:href="#DejaVuSans-42"/>
     <use x="68.603516" xlink:href="#DejaVuSans-46"/>
     <use x="126.123047" xlink:href="#DejaVuSans-47"/>
     <use x="203.613281" xlink:href="#DejaVuSans-53"/>
     <use x="267.089844" xlink:href="#DejaVuSans-20"/>
     <use x="298.876953" xlink:href="#DejaVuSans-72"/>
     <use x="339.958984" xlink:href="#DejaVuSans-6f"/>
     <use x="401.140625" xlink:href="#DejaVuSans-73"/>
     <use x="453.240234" xlink:href="#DejaVuSans-20"/>
    </g>
   </g>
   <g id="text_15">
    <!-- best 2009 -->
    <defs>
     <path d="M 48.6875 27.296875 
Q 48.6875 37.203125 44.609375 42.84375 
Q 40.53125 48.484375 33.40625 48.484375 
Q 26.265625 48.484375 22.1875 42.84375 
Q 18.109375 37.203125 18.109375 27.296875 
Q 18.109375 17.390625 22.1875 11.75 
Q 26.265625 6.109375 33.40625 6.109375 
Q 40.53125 6.109375 44.609375 11.75 
Q 48.6875 17.390625 48.6875 27.296875 
z
M 18.109375 46.390625 
Q 20.953125 51.265625 25.265625 53.625 
Q 29.59375 56 35.59375 56 
Q 45.5625 56 51.78125 48.09375 
Q 58.015625 40.1875 58.015625 27.296875 
Q 58.015625 14.40625 51.78125 6.484375 
Q 45.5625 -1.421875 35.59375 -1.421875 
Q 29.59375 -1.421875 25.265625 0.953125 
Q 20.953125 3.328125 18.109375 8.203125 
L 18.109375 0 
L 9.078125 0 
L 9.078125 75.984375 
L 18.109375 75.984375 
z
" id="DejaVuSans-62"/>
     <path d="M 10.984375 1.515625 
L 10.984375 10.5 
Q 14.703125 8.734375 18.5 7.8125 
Q 22.3125 6.890625 25.984375 6.890625 
Q 35.75 6.890625 40.890625 13.453125 
Q 46.046875 20.015625 46.78125 33.40625 
Q 43.953125 29.203125 39.59375 26.953125 
Q 35.25 24.703125 29.984375 24.703125 
Q 19.046875 24.703125 12.671875 31.3125 
Q 6.296875 37.9375 6.296875 49.421875 
Q 6.296875 60.640625 12.9375 67.421875 
Q 19.578125 74.21875 30.609375 74.21875 
Q 43.265625 74.21875 49.921875 64.515625 
Q 56.59375 54.828125 56.59375 36.375 
Q 56.59375 19.140625 48.40625 8.859375 
Q 40.234375 -1.421875 26.421875 -1.421875 
Q 22.703125 -1.421875 18.890625 -0.6875 
Q 15.09375 0.046875 10.984375 1.515625 
z
M 30.609375 32.421875 
Q 37.25 32.421875 41.125 36.953125 
Q 45.015625 41.5 45.015625 49.421875 
Q 45.015625 57.28125 41.125 61.84375 
Q 37.25 66.40625 30.609375 66.40625 
Q 23.96875 66.40625 20.09375 61.84375 
Q 16.21875 57.28125 16.21875 49.421875 
Q 16.21875 41.5 20.09375 36.953125 
Q 23.96875 32.421875 30.609375 32.421875 
z
" id="DejaVuSans-39"/>
    </defs>
    <g transform="translate(369.18424 20.091654)scale(0.17 -0.17)">
     <use xlink:href="#DejaVuSans-62"/>
     <use x="63.476562" xlink:href="#DejaVuSans-65"/>
     <use x="125" xlink:href="#DejaVuSans-73"/>
     <use x="177.099609" xlink:href="#DejaVuSans-74"/>
     <use x="216.308594" xlink:href="#DejaVuSans-20"/>
     <use x="248.095703" xlink:href="#DejaVuSans-32"/>
     <use x="311.71875" xlink:href="#DejaVuSans-30"/>
     <use x="375.341797" xlink:href="#DejaVuSans-30"/>
     <use x="438.964844" xlink:href="#DejaVuSans-39"/>
    </g>
   </g>
   <g id="text_16">
    <!-- bbob f6-f9, 40-D -->
    <defs>
     <path d="M 19.671875 64.796875 
L 19.671875 8.109375 
L 31.59375 8.109375 
Q 46.6875 8.109375 53.6875 14.9375 
Q 60.6875 21.78125 60.6875 36.53125 
Q 60.6875 51.171875 53.6875 57.984375 
Q 46.6875 64.796875 31.59375 64.796875 
z
M 9.8125 72.90625 
L 30.078125 72.90625 
Q 51.265625 72.90625 61.171875 64.09375 
Q 71.09375 55.28125 71.09375 36.53125 
Q 71.09375 17.671875 61.125 8.828125 
Q 51.171875 0 30.078125 0 
L 9.8125 0 
z
" id="DejaVuSans-44"/>
    </defs>
    <g transform="translate(58.89048 17.475982)scale(0.102 -0.102)">
     <use xlink:href="#DejaVuSans-62"/>
     <use x="63.476562" xlink:href="#DejaVuSans-62"/>
     <use x="126.953125" xlink:href="#DejaVuSans-6f"/>
     <use x="188.134766" xlink:href="#DejaVuSans-62"/>
     <use x="251.611328" xlink:href="#DejaVuSans-20"/>
     <use x="283.398438" xlink:href="#DejaVuSans-66"/>
     <use x="318.603516" xlink:href="#DejaVuSans-36"/>
     <use x="382.226562" xlink:href="#DejaVuSans-2d"/>
     <use x="418.310547" xlink:href="#DejaVuSans-66"/>
     <use x="453.515625" xlink:href="#DejaVuSans-39"/>
     <use x="517.138672" xlink:href="#DejaVuSans-2c"/>
     <use x="548.925781" xlink:href="#DejaVuSans-20"/>
     <use x="580.712891" xlink:href="#DejaVuSans-34"/>
     <use x="644.335938" xlink:href="#DejaVuSans-30"/>
     <use x="707.958984" xlink:href="#DejaVuSans-2d"/>
     <use x="744.042969" xlink:href="#DejaVuSans-44"/>
    </g>
    <!-- 51 targets: 100..1e-08 -->
    <defs>
     <path d="M 10.796875 72.90625 
L 49.515625 72.90625 
L 49.515625 64.59375 
L 19.828125 64.59375 
L 19.828125 46.734375 
Q 21.96875 47.46875 24.109375 47.828125 
Q 26.265625 48.1875 28.421875 48.1875 
Q 40.625 48.1875 47.75 41.5 
Q 54.890625 34.8125 54.890625 23.390625 
Q 54.890625 11.625 47.5625 5.09375 
Q 40.234375 -1.421875 26.90625 -1.421875 
Q 22.3125 -1.421875 17.546875 -0.640625 
Q 12.796875 0.140625 7.71875 1.703125 
L 7.71875 11.625 
Q 12.109375 9.234375 16.796875 8.0625 
Q 21.484375 6.890625 26.703125 6.890625 
Q 35.15625 6.890625 40.078125 11.328125 
Q 45.015625 15.765625 45.015625 23.390625 
Q 45.015625 31 40.078125 35.4375 
Q 35.15625 39.890625 26.703125 39.890625 
Q 22.75 39.890625 18.8125 39.015625 
Q 14.890625 38.140625 10.796875 36.28125 
z
" id="DejaVuSans-35"/>
     <path d="M 11.71875 12.40625 
L 22.015625 12.40625 
L 22.015625 0 
L 11.71875 0 
z
M 11.71875 51.703125 
L 22.015625 51.703125 
L 22.015625 39.3125 
L 11.71875 39.3125 
z
" id="DejaVuSans-3a"/>
    </defs>
    <g transform="translate(58.89048 28.89775)scale(0.102 -0.102)">
     <use xlink:href="#DejaVuSans-35"/>
     <use x="63.623047" xlink:href="#DejaVuSans-31"/>
     <use x="127.246094" xlink:href="#DejaVuSans-20"/>
     <use x="159.033203" xlink:href="#DejaVuSans-74"/>
     <use x="198.242188" xlink:href="#DejaVuSans-61"/>
     <use x="259.521484" xlink:href="#DejaVuSans-72"/>
     <use x="300.619141" xlink:href="#DejaVuSans-67"/>
     <use x="364.095703" xlink:href="#DejaVuSans-65"/>
     <use x="425.619141" xlink:href="#DejaVuSans-74"/>
     <use x="464.828125" xlink:href="#DejaVuSans-73"/>
     <use x="516.927734" xlink:href="#DejaVuSans-3a"/>
     <use x="550.619141" xlink:href="#DejaVuSans-20"/>
     <use x="582.40625" xlink:href="#DejaVuSans-31"/>
     <use x="646.029297" xlink:href="#DejaVuSans-30"/>
     <use x="709.652344" xlink:href="#DejaVuSans-30"/>
     <use x="773.275391" xlink:href="#DejaVuSans-2e"/>
     <use x="805.0625" xlink:href="#DejaVuSans-2e"/>
     <use x="836.849609" xlink:href="#DejaVuSans-31"/>
     <use x="900.472656" xlink:href="#DejaVuSans-65"/>
     <use x="961.996094" xlink:href="#DejaVuSans-2d"/>
     <use x="998.080078" xlink:href="#DejaVuSans-30"/>
     <use x="1061.703125" xlink:href="#DejaVuSans-38"/>
    </g>
    <!-- 15 instances -->
    <g transform="translate(58.89048 40.319519)scale(0.102 -0.102)">
     <use xlink:href="#DejaVuSans-31"/>
     <use x="63.623047" xlink:href="#DejaVuSans-35"/>
     <use x="127.246094" xlink:href="#DejaVuSans-20"/>
     <use x="159.033203" xlink:href="#DejaVuSans-69"/>
     <use x="186.816406" xlink:href="#DejaVuSans-6e"/>
     <use x="250.195312" xlink:href="#DejaVuSans-73"/>
     <use x="302.294922" xlink:href="#DejaVuSans-74"/>
     <use x="341.503906" xlink:href="#DejaVuSans-61"/>
     <use x="402.783203" xlink:href="#DejaVuSans-6e"/>
     <use x="466.162109" xlink:href="#DejaVuSans-63"/>
     <use x="521.142578" xlink:href="#DejaVuSans-65"/>
     <use x="582.666016" xlink:href="#DejaVuSans-73"/>
    </g>
   </g>
   <g id="text_17">
    <!-- v0.0.0 -->
    <g style="fill:#808080;" transform="translate(178.96275 289.919965)scale(0.1 -0.1)">
     <use xlink:href="#DejaVuSans-76"/>
     <use x="59.179688" xlink:href="#DejaVuSans-30"/>
     <use x="122.802734" xlink:href="#DejaVuSans-2e"/>
     <use x="154.589844" xlink:href="#DejaVuSans-30"/>
     <use x="218.212891" xlink:href="#DejaVuSans-2e"/>
     <use x="250" xlink:href="#DejaVuSans-30"/>
    </g>
   </g>
  </g>
 </g>
 <defs>
  <clipPath id="p66f02d3428">
   <rect height="288.034772" width="277.048" x="56.12" y="6.845228"/>
  </clipPath>
 </defs>
</svg>
