<?xml version="1.0" encoding="utf-8" standalone="no"?>
<!DOCTYPE svg PUBLIC "-//W3C//DTD SVG 1.1//EN"
  "http://www.w3.org/Graphics/SVG/1.1/DTD/svg11.dtd">
<!-- Created with matplotlib (http://matplotlib.org/) -->
<svg height="345pt" version="1.1" viewBox="0 0 460 345" width="460pt" xmlns="http://www.w3.org/2000/svg" xmlns:xlink="http://www.w3.org/1999/xlink">
 <defs>
  <style type="text/css">
*{stroke-linecap:butt;stroke-linejoin:round;}
  </style>
 </defs>
 <g id="figure_1">
  <g id="patch_1">
   <path d="M 0 345.6 
L 460.8 345.6 
L 460.8 0 
L 0 0 
z
" style="fill:#ffffff;"/>
  </g>
  <g id="axes_1">
   <g id="patch_2">
    <path d="M 56.12 294.88 
L 333.168 294.88 
L 333.168 6.845228 
L 56.12 6.845228 
z
" style="fill:#ffffff;"/>
   </g>
   <g id="line2d_1">
    <path d="M 28.455965 294.88 
L 28.455965 284.81472 
L 47.339607 284.81472 
L 47.339607 283.696355 
L 52.284468 283.696355 
L 52.284468 281.459626 
L 66.223248 281.459626 
L 66.223248 280.341262 
L 69.672503 280.341262 
L 69.672503 279.222897 
L 75.003641 279.222897 
L 75.003641 273.631075 
L 76.11297 273.631075 
L 76.11297 269.157617 
L 79.948502 269.157617 
L 79.948502 268.039252 
L 87.481505 268.039252 
L 87.481505 266.920888 
L 88.027221 266.920888 
L 88.027221 265.802523 
L 88.556144 265.802523 
L 88.556144 264.684159 
L 90.522701 264.684159 
L 90.522701 263.565795 
L 92.287186 263.565795 
L 92.287186 262.44743 
L 94.996612 262.44743 
L 94.996612 261.329066 
L 101.23446 261.329066 
L 101.23446 260.210701 
L 101.725597 260.210701 
L 101.725597 259.092337 
L 102.20309 259.092337 
L 102.20309 257.973972 
L 104.615641 257.973972 
L 104.615641 256.855608 
L 105.801534 256.855608 
L 105.801534 255.737243 
L 107.439785 255.737243 
L 107.439785 254.618879 
L 110.457504 254.618879 
L 110.457504 253.500514 
L 110.602556 253.500514 
L 110.602556 252.38215 
L 111.448069 252.38215 
L 111.448069 251.263785 
L 115.798351 251.263785 
L 115.798351 250.145421 
L 118.371562 250.145421 
L 118.371562 249.027056 
L 122.944762 249.027056 
L 122.944762 247.908692 
L 128.698042 247.908692 
L 128.698042 246.790327 
L 128.997851 246.790327 
L 128.997851 245.671963 
L 130.828657 245.671963 
L 130.828657 244.553598 
L 135.884484 244.553598 
L 135.884484 243.435234 
L 140.862496 243.435234 
L 140.862496 242.316869 
L 144.07071 242.316869 
L 144.07071 241.198505 
L 144.417555 241.198505 
L 144.417555 240.08014 
L 145.626324 240.08014 
L 145.626324 238.961776 
L 145.794933 238.961776 
L 145.832178 236.725047 
L 145.943432 236.725047 
L 145.943432 235.606682 
L 146.090659 235.606682 
L 146.090659 234.488318 
L 146.254795 234.488318 
L 146.254795 233.369954 
L 146.453301 233.369954 
L 146.542779 231.133225 
L 146.684982 231.133225 
L 146.684982 230.01486 
L 146.843566 230.01486 
L 146.896104 227.778131 
L 146.965905 227.778131 
L 146.965905 226.659767 
L 147.276552 226.659767 
L 147.327785 223.304673 
L 147.429795 223.304673 
L 147.497466 221.067944 
L 147.564873 221.067944 
L 147.648761 217.712851 
L 147.698898 217.712851 
L 147.715578 215.476122 
L 147.815319 215.476122 
L 147.864973 212.121028 
L 147.963853 212.121028 
L 147.980278 208.765935 
L 148.078499 208.765935 
L 148.159923 205.410841 
L 148.192385 205.410841 
L 148.273273 202.055748 
L 148.321624 202.055748 
L 148.401907 198.700655 
L 148.433916 198.700655 
L 148.513678 195.345561 
L 149.697448 195.345561 
L 149.697448 194.227197 
L 154.251642 194.227197 
L 154.251642 193.108832 
L 154.612571 193.108832 
L 154.612571 191.990468 
L 155.397975 191.990468 
L 155.504275 189.753739 
L 155.620451 189.753739 
L 155.620451 188.635374 
L 155.798464 188.635374 
L 155.850472 186.398645 
L 156.04668 186.398645 
L 156.138844 181.925187 
L 156.169456 181.925187 
L 156.260967 177.451729 
L 156.311596 177.451729 
L 156.412409 172.978271 
L 156.432501 172.978271 
L 156.542589 166.268085 
L 156.572491 166.268085 
L 156.661886 161.794627 
L 156.691581 161.794627 
L 156.790197 156.202804 
L 156.819671 156.202804 
L 156.927315 149.492617 
L 156.946814 149.492617 
L 156.976021 147.255888 
L 158.6346 147.255888 
L 158.6346 146.137524 
L 170.676452 146.137524 
L 170.676452 145.019159 
L 175.956664 145.019159 
L 175.956664 143.900795 
L 180.353624 143.900795 
L 180.353624 142.78243 
L 190.150412 142.78243 
L 190.150412 141.664066 
L 190.566095 141.664066 
L 190.566095 140.545702 
L 191.286722 140.545702 
L 191.286722 139.427337 
L 192.855631 139.427337 
L 192.855631 138.308973 
L 203.501634 138.308973 
L 203.501634 137.190608 
L 203.751749 137.190608 
L 203.840473 134.953879 
L 204.227628 134.953879 
L 204.227628 133.835515 
L 204.399197 133.835515 
L 204.399197 132.71715 
L 204.599555 132.71715 
L 204.599555 131.598786 
L 204.772897 131.598786 
L 204.858917 129.362057 
L 205.42551 129.362057 
L 205.42551 128.243692 
L 206.481561 128.243692 
L 206.575214 126.006963 
L 206.695882 126.006963 
L 206.764227 123.770234 
L 206.827486 123.770234 
L 206.896909 121.533505 
L 206.972421 121.533505 
L 207.047603 119.296776 
L 207.132975 119.296776 
L 207.190179 115.941683 
L 207.258155 115.941683 
L 207.30662 113.704954 
L 207.374657 113.704954 
L 207.458423 111.468225 
L 207.492949 111.468225 
L 207.548455 109.231496 
L 207.629849 109.231496 
L 207.684407 106.994767 
L 207.752489 106.994767 
L 207.802616 104.758038 
L 207.870232 104.758038 
L 207.933068 102.521309 
L 207.983672 102.521309 
L 208.070006 100.28458 
L 208.131621 100.28458 
L 208.183129 98.047851 
L 208.246804 98.047851 
L 208.246804 96.929487 
L 209.766085 96.929487 
L 209.766085 95.811122 
L 211.059733 95.811122 
L 211.059733 94.692758 
L 212.203016 94.692758 
L 212.203016 93.574393 
L 213.861324 93.574393 
L 213.861324 92.456029 
L 214.655155 92.456029 
L 214.655155 91.337664 
L 214.895098 91.337664 
L 214.895098 90.2193 
L 215.303181 90.2193 
L 215.303181 89.100935 
L 215.539463 89.100935 
L 215.539463 87.982571 
L 215.74549 87.982571 
L 215.74549 86.864206 
L 215.890117 86.864206 
L 215.986178 74.562197 
L 216.027899 74.562197 
L 216.138767 66.733646 
L 216.143747 66.733646 
L 216.197812 56.668365 
L 225.718082 56.668365 
L 225.718082 55.550001 
L 239.617731 55.550001 
L 239.617731 54.431636 
L 247.372203 54.431636 
L 247.381104 52.194907 
L 254.542418 52.194907 
L 254.542685 49.958178 
L 297.718212 49.958178 
L 297.765316 46.603085 
L 300.913621 46.603085 
L 300.913621 45.484721 
L 304.753236 45.484721 
L 304.842834 30.945982 
L 309.788001 30.945982 
L 309.795296 9.697057 
L 333.168 9.697057 
L 333.168 9.697057 
" style="fill:none;stroke:#f5deb3;stroke-linecap:square;stroke-width:4;"/>
   </g>
   <g id="line2d_2">
    <defs>
     <path d="M -0 7.778175 
L 7.778175 0 
L 0 -7.778175 
L -7.778175 -0 
z
" id="m7b8b52fd3b" style="stroke:#f5deb3;stroke-linejoin:miter;stroke-width:1.5;"/>
    </defs>
    <g>
     <use style="fill:#f5deb3;stroke:#f5deb3;stroke-linejoin:miter;stroke-width:1.5;" x="140.862496" xlink:href="#m7b8b52fd3b" y="242.316869"/>
     <use style="fill:#f5deb3;stroke:#f5deb3;stroke-linejoin:miter;stroke-width:1.5;" x="190.566095" xlink:href="#m7b8b52fd3b" y="140.545702"/>
     <use style="fill:#f5deb3;stroke:#f5deb3;stroke-linejoin:miter;stroke-width:1.5;" x="225.718082" xlink:href="#m7b8b52fd3b" y="56.668365"/>
     <use style="fill:#f5deb3;stroke:#f5deb3;stroke-linejoin:miter;stroke-width:1.5;" x="309.795296" xlink:href="#m7b8b52fd3b" y="9.697057"/>
     <use style="fill:#f5deb3;stroke:#f5deb3;stroke-linejoin:miter;stroke-width:1.5;" x="309.795296" xlink:href="#m7b8b52fd3b" y="9.697057"/>
     <use style="fill:#f5deb3;stroke:#f5deb3;stroke-linejoin:miter;stroke-width:1.5;" x="333.168" xlink:href="#m7b8b52fd3b" y="9.697057"/>
    </g>
   </g>
   <g id="line2d_3">
    <path style="fill:none;stroke:#f5deb3;stroke-linecap:square;stroke-width:4;"/>
    <g/>
   </g>
   <g id="line2d_4">
    <path d="M 333.168 9.697057 
L 363.64328 15.400716 
" style="fill:none;stroke:#f5deb3;stroke-linecap:square;stroke-width:4;"/>
    <g>
     <use style="fill:#f5deb3;stroke:#f5deb3;stroke-linejoin:miter;stroke-width:1.5;" x="333.168" xlink:href="#m7b8b52fd3b" y="9.697057"/>
     <use style="fill:#f5deb3;stroke:#f5deb3;stroke-linejoin:miter;stroke-width:1.5;" x="363.64328" xlink:href="#m7b8b52fd3b" y="15.400716"/>
    </g>
   </g>
   <g id="matplotlib.axis_1">
    <g id="xtick_1">
     <g id="line2d_5">
      <path clip-path="url(#p17e582e92a)" d="M 56.12 294.88 
L 56.12 6.845228 
" style="fill:none;stroke:#b0b0b0;stroke-linecap:square;stroke-width:0.8;"/>
     </g>
     <g id="line2d_6">
      <defs>
       <path d="M 0 0 
L 0 3.5 
" id="m39d63da868" style="stroke:#000000;stroke-width:0.8;"/>
      </defs>
      <g>
       <use style="stroke:#000000;stroke-width:0.8;" x="56.12" xlink:href="#m39d63da868" y="294.88"/>
      </g>
     </g>
     <g id="text_1">
      <!-- 0 -->
      <defs>
       <path d="M 31.78125 66.40625 
Q 24.171875 66.40625 20.328125 58.90625 
Q 16.5 51.421875 16.5 36.375 
Q 16.5 21.390625 20.328125 13.890625 
Q 24.171875 6.390625 31.78125 6.390625 
Q 39.453125 6.390625 43.28125 13.890625 
Q 47.125 21.390625 47.125 36.375 
Q 47.125 51.421875 43.28125 58.90625 
Q 39.453125 66.40625 31.78125 66.40625 
z
M 31.78125 74.21875 
Q 44.046875 74.21875 50.515625 64.515625 
Q 56.984375 54.828125 56.984375 36.375 
Q 56.984375 17.96875 50.515625 8.265625 
Q 44.046875 -1.421875 31.78125 -1.421875 
Q 19.53125 -1.421875 13.0625 8.265625 
Q 6.59375 17.96875 6.59375 36.375 
Q 6.59375 54.828125 13.0625 64.515625 
Q 19.53125 74.21875 31.78125 74.21875 
z
" id="DejaVuSans-30"/>
      </defs>
      <g transform="translate(49.7575 317.076875)scale(0.2 -0.2)">
       <use xlink:href="#DejaVuSans-30"/>
      </g>
     </g>
    </g>
    <g id="xtick_2">
     <g id="line2d_7">
      <path clip-path="url(#p17e582e92a)" d="M 135.276571 294.88 
L 135.276571 6.845228 
" style="fill:none;stroke:#b0b0b0;stroke-linecap:square;stroke-width:0.8;"/>
     </g>
     <g id="line2d_8">
      <g>
       <use style="stroke:#000000;stroke-width:0.8;" x="135.276571" xlink:href="#m39d63da868" y="294.88"/>
      </g>
     </g>
     <g id="text_2">
      <!-- 2 -->
      <defs>
       <path d="M 19.1875 8.296875 
L 53.609375 8.296875 
L 53.609375 0 
L 7.328125 0 
L 7.328125 8.296875 
Q 12.9375 14.109375 22.625 23.890625 
Q 32.328125 33.6875 34.8125 36.53125 
Q 39.546875 41.84375 41.421875 45.53125 
Q 43.3125 49.21875 43.3125 52.78125 
Q 43.3125 58.59375 39.234375 62.25 
Q 35.15625 65.921875 28.609375 65.921875 
Q 23.96875 65.921875 18.8125 64.3125 
Q 13.671875 62.703125 7.8125 59.421875 
L 7.8125 69.390625 
Q 13.765625 71.78125 18.9375 73 
Q 24.125 74.21875 28.421875 74.21875 
Q 39.75 74.21875 46.484375 68.546875 
Q 53.21875 62.890625 53.21875 53.421875 
Q 53.21875 48.921875 51.53125 44.890625 
Q 49.859375 40.875 45.40625 35.40625 
Q 44.1875 33.984375 37.640625 27.21875 
Q 31.109375 20.453125 19.1875 8.296875 
z
" id="DejaVuSans-32"/>
      </defs>
      <g transform="translate(128.914071 317.076875)scale(0.2 -0.2)">
       <use xlink:href="#DejaVuSans-32"/>
      </g>
     </g>
    </g>
    <g id="xtick_3">
     <g id="line2d_9">
      <path clip-path="url(#p17e582e92a)" d="M 214.433143 294.88 
L 214.433143 6.845228 
" style="fill:none;stroke:#b0b0b0;stroke-linecap:square;stroke-width:0.8;"/>
     </g>
     <g id="line2d_10">
      <g>
       <use style="stroke:#000000;stroke-width:0.8;" x="214.433143" xlink:href="#m39d63da868" y="294.88"/>
      </g>
     </g>
     <g id="text_3">
      <!-- 4 -->
      <defs>
       <path d="M 37.796875 64.3125 
L 12.890625 25.390625 
L 37.796875 25.390625 
z
M 35.203125 72.90625 
L 47.609375 72.90625 
L 47.609375 25.390625 
L 58.015625 25.390625 
L 58.015625 17.1875 
L 47.609375 17.1875 
L 47.609375 0 
L 37.796875 0 
L 37.796875 17.1875 
L 4.890625 17.1875 
L 4.890625 26.703125 
z
" id="DejaVuSans-34"/>
      </defs>
      <g transform="translate(208.070643 317.076875)scale(0.2 -0.2)">
       <use xlink:href="#DejaVuSans-34"/>
      </g>
     </g>
    </g>
    <g id="xtick_4">
     <g id="line2d_11">
      <path clip-path="url(#p17e582e92a)" d="M 293.589714 294.88 
L 293.589714 6.845228 
" style="fill:none;stroke:#b0b0b0;stroke-linecap:square;stroke-width:0.8;"/>
     </g>
     <g id="line2d_12">
      <g>
       <use style="stroke:#000000;stroke-width:0.8;" x="293.589714" xlink:href="#m39d63da868" y="294.88"/>
      </g>
     </g>
     <g id="text_4">
      <!-- 6 -->
      <defs>
       <path d="M 33.015625 40.375 
Q 26.375 40.375 22.484375 35.828125 
Q 18.609375 31.296875 18.609375 23.390625 
Q 18.609375 15.53125 22.484375 10.953125 
Q 26.375 6.390625 33.015625 6.390625 
Q 39.65625 6.390625 43.53125 10.953125 
Q 47.40625 15.53125 47.40625 23.390625 
Q 47.40625 31.296875 43.53125 35.828125 
Q 39.65625 40.375 33.015625 40.375 
z
M 52.59375 71.296875 
L 52.59375 62.3125 
Q 48.875 64.0625 45.09375 64.984375 
Q 41.3125 65.921875 37.59375 65.921875 
Q 27.828125 65.921875 22.671875 59.328125 
Q 17.53125 52.734375 16.796875 39.40625 
Q 19.671875 43.65625 24.015625 45.921875 
Q 28.375 48.1875 33.59375 48.1875 
Q 44.578125 48.1875 50.953125 41.515625 
Q 57.328125 34.859375 57.328125 23.390625 
Q 57.328125 12.15625 50.6875 5.359375 
Q 44.046875 -1.421875 33.015625 -1.421875 
Q 20.359375 -1.421875 13.671875 8.265625 
Q 6.984375 17.96875 6.984375 36.375 
Q 6.984375 53.65625 15.1875 63.9375 
Q 23.390625 74.21875 37.203125 74.21875 
Q 40.921875 74.21875 44.703125 73.484375 
Q 48.484375 72.75 52.59375 71.296875 
z
" id="DejaVuSans-36"/>
      </defs>
      <g transform="translate(287.227214 317.076875)scale(0.2 -0.2)">
       <use xlink:href="#DejaVuSans-36"/>
      </g>
     </g>
    </g>
    <g id="xtick_5">
     <g id="line2d_13">
      <path clip-path="url(#p17e582e92a)" d="M 56.12 294.88 
L 56.12 6.845228 
" style="fill:none;stroke:#b0b0b0;stroke-linecap:square;stroke-width:0.8;"/>
     </g>
     <g id="line2d_14">
      <defs>
       <path d="M 0 0 
L 0 2 
" id="m1b6c522121" style="stroke:#000000;stroke-width:0.6;"/>
      </defs>
      <g>
       <use style="stroke:#000000;stroke-width:0.6;" x="56.12" xlink:href="#m1b6c522121" y="294.88"/>
      </g>
     </g>
    </g>
    <g id="xtick_6">
     <g id="line2d_15">
      <path clip-path="url(#p17e582e92a)" d="M 95.698286 294.88 
L 95.698286 6.845228 
" style="fill:none;stroke:#b0b0b0;stroke-linecap:square;stroke-width:0.8;"/>
     </g>
     <g id="line2d_16">
      <g>
       <use style="stroke:#000000;stroke-width:0.6;" x="95.698286" xlink:href="#m1b6c522121" y="294.88"/>
      </g>
     </g>
    </g>
    <g id="xtick_7">
     <g id="line2d_17">
      <path clip-path="url(#p17e582e92a)" d="M 135.276571 294.88 
L 135.276571 6.845228 
" style="fill:none;stroke:#b0b0b0;stroke-linecap:square;stroke-width:0.8;"/>
     </g>
     <g id="line2d_18">
      <g>
       <use style="stroke:#000000;stroke-width:0.6;" x="135.276571" xlink:href="#m1b6c522121" y="294.88"/>
      </g>
     </g>
    </g>
    <g id="xtick_8">
     <g id="line2d_19">
      <path clip-path="url(#p17e582e92a)" d="M 174.854857 294.88 
L 174.854857 6.845228 
" style="fill:none;stroke:#b0b0b0;stroke-linecap:square;stroke-width:0.8;"/>
     </g>
     <g id="line2d_20">
      <g>
       <use style="stroke:#000000;stroke-width:0.6;" x="174.854857" xlink:href="#m1b6c522121" y="294.88"/>
      </g>
     </g>
    </g>
    <g id="xtick_9">
     <g id="line2d_21">
      <path clip-path="url(#p17e582e92a)" d="M 214.433143 294.88 
L 214.433143 6.845228 
" style="fill:none;stroke:#b0b0b0;stroke-linecap:square;stroke-width:0.8;"/>
     </g>
     <g id="line2d_22">
      <g>
       <use style="stroke:#000000;stroke-width:0.6;" x="214.433143" xlink:href="#m1b6c522121" y="294.88"/>
      </g>
     </g>
    </g>
    <g id="xtick_10">
     <g id="line2d_23">
      <path clip-path="url(#p17e582e92a)" d="M 254.011429 294.88 
L 254.011429 6.845228 
" style="fill:none;stroke:#b0b0b0;stroke-linecap:square;stroke-width:0.8;"/>
     </g>
     <g id="line2d_24">
      <g>
       <use style="stroke:#000000;stroke-width:0.6;" x="254.011429" xlink:href="#m1b6c522121" y="294.88"/>
      </g>
     </g>
    </g>
    <g id="xtick_11">
     <g id="line2d_25">
      <path clip-path="url(#p17e582e92a)" d="M 293.589714 294.88 
L 293.589714 6.845228 
" style="fill:none;stroke:#b0b0b0;stroke-linecap:square;stroke-width:0.8;"/>
     </g>
     <g id="line2d_26">
      <g>
       <use style="stroke:#000000;stroke-width:0.6;" x="293.589714" xlink:href="#m1b6c522121" y="294.88"/>
      </g>
     </g>
    </g>
    <g id="xtick_12">
     <g id="line2d_27">
      <path clip-path="url(#p17e582e92a)" d="M 333.168 294.88 
L 333.168 6.845228 
" style="fill:none;stroke:#b0b0b0;stroke-linecap:square;stroke-width:0.8;"/>
     </g>
     <g id="line2d_28">
      <g>
       <use style="stroke:#000000;stroke-width:0.6;" x="333.168" xlink:href="#m1b6c522121" y="294.88"/>
      </g>
     </g>
    </g>
    <g id="text_5">
     <!-- log10(# f-evals / dimension) -->
     <defs>
      <path d="M 9.421875 75.984375 
L 18.40625 75.984375 
L 18.40625 0 
L 9.421875 0 
z
" id="DejaVuSans-6c"/>
      <path d="M 30.609375 48.390625 
Q 23.390625 48.390625 19.1875 42.75 
Q 14.984375 37.109375 14.984375 27.296875 
Q 14.984375 17.484375 19.15625 11.84375 
Q 23.34375 6.203125 30.609375 6.203125 
Q 37.796875 6.203125 41.984375 11.859375 
Q 46.1875 17.53125 46.1875 27.296875 
Q 46.1875 37.015625 41.984375 42.703125 
Q 37.796875 48.390625 30.609375 48.390625 
z
M 30.609375 56 
Q 42.328125 56 49.015625 48.375 
Q 55.71875 40.765625 55.71875 27.296875 
Q 55.71875 13.875 49.015625 6.21875 
Q 42.328125 -1.421875 30.609375 -1.421875 
Q 18.84375 -1.421875 12.171875 6.21875 
Q 5.515625 13.875 5.515625 27.296875 
Q 5.515625 40.765625 12.171875 48.375 
Q 18.84375 56 30.609375 56 
z
" id="DejaVuSans-6f"/>
      <path d="M 45.40625 27.984375 
Q 45.40625 37.75 41.375 43.109375 
Q 37.359375 48.484375 30.078125 48.484375 
Q 22.859375 48.484375 18.828125 43.109375 
Q 14.796875 37.75 14.796875 27.984375 
Q 14.796875 18.265625 18.828125 12.890625 
Q 22.859375 7.515625 30.078125 7.515625 
Q 37.359375 7.515625 41.375 12.890625 
Q 45.40625 18.265625 45.40625 27.984375 
z
M 54.390625 6.78125 
Q 54.390625 -7.171875 48.1875 -13.984375 
Q 42 -20.796875 29.203125 -20.796875 
Q 24.46875 -20.796875 20.265625 -20.09375 
Q 16.0625 -19.390625 12.109375 -17.921875 
L 12.109375 -9.1875 
Q 16.0625 -11.328125 19.921875 -12.34375 
Q 23.78125 -13.375 27.78125 -13.375 
Q 36.625 -13.375 41.015625 -8.765625 
Q 45.40625 -4.15625 45.40625 5.171875 
L 45.40625 9.625 
Q 42.625 4.78125 38.28125 2.390625 
Q 33.9375 0 27.875 0 
Q 17.828125 0 11.671875 7.65625 
Q 5.515625 15.328125 5.515625 27.984375 
Q 5.515625 40.671875 11.671875 48.328125 
Q 17.828125 56 27.875 56 
Q 33.9375 56 38.28125 53.609375 
Q 42.625 51.21875 45.40625 46.390625 
L 45.40625 54.6875 
L 54.390625 54.6875 
z
" id="DejaVuSans-67"/>
      <path d="M 12.40625 8.296875 
L 28.515625 8.296875 
L 28.515625 63.921875 
L 10.984375 60.40625 
L 10.984375 69.390625 
L 28.421875 72.90625 
L 38.28125 72.90625 
L 38.28125 8.296875 
L 54.390625 8.296875 
L 54.390625 0 
L 12.40625 0 
z
" id="DejaVuSans-31"/>
      <path d="M 31 75.875 
Q 24.46875 64.65625 21.28125 53.65625 
Q 18.109375 42.671875 18.109375 31.390625 
Q 18.109375 20.125 21.3125 9.0625 
Q 24.515625 -2 31 -13.1875 
L 23.1875 -13.1875 
Q 15.875 -1.703125 12.234375 9.375 
Q 8.59375 20.453125 8.59375 31.390625 
Q 8.59375 42.28125 12.203125 53.3125 
Q 15.828125 64.359375 23.1875 75.875 
z
" id="DejaVuSans-28"/>
      <path d="M 51.125 44 
L 36.921875 44 
L 32.8125 27.6875 
L 47.125 27.6875 
z
M 43.796875 71.78125 
L 38.71875 51.515625 
L 52.984375 51.515625 
L 58.109375 71.78125 
L 65.921875 71.78125 
L 60.890625 51.515625 
L 76.125 51.515625 
L 76.125 44 
L 58.984375 44 
L 54.984375 27.6875 
L 70.515625 27.6875 
L 70.515625 20.21875 
L 53.078125 20.21875 
L 48 0 
L 40.1875 0 
L 45.21875 20.21875 
L 30.90625 20.21875 
L 25.875 0 
L 18.015625 0 
L 23.09375 20.21875 
L 7.71875 20.21875 
L 7.71875 27.6875 
L 24.90625 27.6875 
L 29 44 
L 13.28125 44 
L 13.28125 51.515625 
L 30.90625 51.515625 
L 35.890625 71.78125 
z
" id="DejaVuSans-23"/>
      <path id="DejaVuSans-20"/>
      <path d="M 37.109375 75.984375 
L 37.109375 68.5 
L 28.515625 68.5 
Q 23.6875 68.5 21.796875 66.546875 
Q 19.921875 64.59375 19.921875 59.515625 
L 19.921875 54.6875 
L 34.71875 54.6875 
L 34.71875 47.703125 
L 19.921875 47.703125 
L 19.921875 0 
L 10.890625 0 
L 10.890625 47.703125 
L 2.296875 47.703125 
L 2.296875 54.6875 
L 10.890625 54.6875 
L 10.890625 58.5 
Q 10.890625 67.625 15.140625 71.796875 
Q 19.390625 75.984375 28.609375 75.984375 
z
" id="DejaVuSans-66"/>
      <path d="M 4.890625 31.390625 
L 31.203125 31.390625 
L 31.203125 23.390625 
L 4.890625 23.390625 
z
" id="DejaVuSans-2d"/>
      <path d="M 56.203125 29.59375 
L 56.203125 25.203125 
L 14.890625 25.203125 
Q 15.484375 15.921875 20.484375 11.0625 
Q 25.484375 6.203125 34.421875 6.203125 
Q 39.59375 6.203125 44.453125 7.46875 
Q 49.3125 8.734375 54.109375 11.28125 
L 54.109375 2.78125 
Q 49.265625 0.734375 44.1875 -0.34375 
Q 39.109375 -1.421875 33.890625 -1.421875 
Q 20.796875 -1.421875 13.15625 6.1875 
Q 5.515625 13.8125 5.515625 26.8125 
Q 5.515625 40.234375 12.765625 48.109375 
Q 20.015625 56 32.328125 56 
Q 43.359375 56 49.78125 48.890625 
Q 56.203125 41.796875 56.203125 29.59375 
z
M 47.21875 32.234375 
Q 47.125 39.59375 43.09375 43.984375 
Q 39.0625 48.390625 32.421875 48.390625 
Q 24.90625 48.390625 20.390625 44.140625 
Q 15.875 39.890625 15.1875 32.171875 
z
" id="DejaVuSans-65"/>
      <path d="M 2.984375 54.6875 
L 12.5 54.6875 
L 29.59375 8.796875 
L 46.6875 54.6875 
L 56.203125 54.6875 
L 35.6875 0 
L 23.484375 0 
z
" id="DejaVuSans-76"/>
      <path d="M 34.28125 27.484375 
Q 23.390625 27.484375 19.1875 25 
Q 14.984375 22.515625 14.984375 16.5 
Q 14.984375 11.71875 18.140625 8.90625 
Q 21.296875 6.109375 26.703125 6.109375 
Q 34.1875 6.109375 38.703125 11.40625 
Q 43.21875 16.703125 43.21875 25.484375 
L 43.21875 27.484375 
z
M 52.203125 31.203125 
L 52.203125 0 
L 43.21875 0 
L 43.21875 8.296875 
Q 40.140625 3.328125 35.546875 0.953125 
Q 30.953125 -1.421875 24.3125 -1.421875 
Q 15.921875 -1.421875 10.953125 3.296875 
Q 6 8.015625 6 15.921875 
Q 6 25.140625 12.171875 29.828125 
Q 18.359375 34.515625 30.609375 34.515625 
L 43.21875 34.515625 
L 43.21875 35.40625 
Q 43.21875 41.609375 39.140625 45 
Q 35.0625 48.390625 27.6875 48.390625 
Q 23 48.390625 18.546875 47.265625 
Q 14.109375 46.140625 10.015625 43.890625 
L 10.015625 52.203125 
Q 14.9375 54.109375 19.578125 55.046875 
Q 24.21875 56 28.609375 56 
Q 40.484375 56 46.34375 49.84375 
Q 52.203125 43.703125 52.203125 31.203125 
z
" id="DejaVuSans-61"/>
      <path d="M 44.28125 53.078125 
L 44.28125 44.578125 
Q 40.484375 46.53125 36.375 47.5 
Q 32.28125 48.484375 27.875 48.484375 
Q 21.1875 48.484375 17.84375 46.4375 
Q 14.5 44.390625 14.5 40.28125 
Q 14.5 37.15625 16.890625 35.375 
Q 19.28125 33.59375 26.515625 31.984375 
L 29.59375 31.296875 
Q 39.15625 29.25 43.1875 25.515625 
Q 47.21875 21.78125 47.21875 15.09375 
Q 47.21875 7.46875 41.1875 3.015625 
Q 35.15625 -1.421875 24.609375 -1.421875 
Q 20.21875 -1.421875 15.453125 -0.5625 
Q 10.6875 0.296875 5.421875 2 
L 5.421875 11.28125 
Q 10.40625 8.6875 15.234375 7.390625 
Q 20.0625 6.109375 24.8125 6.109375 
Q 31.15625 6.109375 34.5625 8.28125 
Q 37.984375 10.453125 37.984375 14.40625 
Q 37.984375 18.0625 35.515625 20.015625 
Q 33.0625 21.96875 24.703125 23.78125 
L 21.578125 24.515625 
Q 13.234375 26.265625 9.515625 29.90625 
Q 5.8125 33.546875 5.8125 39.890625 
Q 5.8125 47.609375 11.28125 51.796875 
Q 16.75 56 26.8125 56 
Q 31.78125 56 36.171875 55.265625 
Q 40.578125 54.546875 44.28125 53.078125 
z
" id="DejaVuSans-73"/>
      <path d="M 25.390625 72.90625 
L 33.6875 72.90625 
L 8.296875 -9.28125 
L 0 -9.28125 
z
" id="DejaVuSans-2f"/>
      <path d="M 45.40625 46.390625 
L 45.40625 75.984375 
L 54.390625 75.984375 
L 54.390625 0 
L 45.40625 0 
L 45.40625 8.203125 
Q 42.578125 3.328125 38.25 0.953125 
Q 33.9375 -1.421875 27.875 -1.421875 
Q 17.96875 -1.421875 11.734375 6.484375 
Q 5.515625 14.40625 5.515625 27.296875 
Q 5.515625 40.1875 11.734375 48.09375 
Q 17.96875 56 27.875 56 
Q 33.9375 56 38.25 53.625 
Q 42.578125 51.265625 45.40625 46.390625 
z
M 14.796875 27.296875 
Q 14.796875 17.390625 18.875 11.75 
Q 22.953125 6.109375 30.078125 6.109375 
Q 37.203125 6.109375 41.296875 11.75 
Q 45.40625 17.390625 45.40625 27.296875 
Q 45.40625 37.203125 41.296875 42.84375 
Q 37.203125 48.484375 30.078125 48.484375 
Q 22.953125 48.484375 18.875 42.84375 
Q 14.796875 37.203125 14.796875 27.296875 
z
" id="DejaVuSans-64"/>
      <path d="M 9.421875 54.6875 
L 18.40625 54.6875 
L 18.40625 0 
L 9.421875 0 
z
M 9.421875 75.984375 
L 18.40625 75.984375 
L 18.40625 64.59375 
L 9.421875 64.59375 
z
" id="DejaVuSans-69"/>
      <path d="M 52 44.1875 
Q 55.375 50.25 60.0625 53.125 
Q 64.75 56 71.09375 56 
Q 79.640625 56 84.28125 50.015625 
Q 88.921875 44.046875 88.921875 33.015625 
L 88.921875 0 
L 79.890625 0 
L 79.890625 32.71875 
Q 79.890625 40.578125 77.09375 44.375 
Q 74.3125 48.1875 68.609375 48.1875 
Q 61.625 48.1875 57.5625 43.546875 
Q 53.515625 38.921875 53.515625 30.90625 
L 53.515625 0 
L 44.484375 0 
L 44.484375 32.71875 
Q 44.484375 40.625 41.703125 44.40625 
Q 38.921875 48.1875 33.109375 48.1875 
Q 26.21875 48.1875 22.15625 43.53125 
Q 18.109375 38.875 18.109375 30.90625 
L 18.109375 0 
L 9.078125 0 
L 9.078125 54.6875 
L 18.109375 54.6875 
L 18.109375 46.1875 
Q 21.1875 51.21875 25.484375 53.609375 
Q 29.78125 56 35.6875 56 
Q 41.65625 56 45.828125 52.96875 
Q 50 49.953125 52 44.1875 
z
" id="DejaVuSans-6d"/>
      <path d="M 54.890625 33.015625 
L 54.890625 0 
L 45.90625 0 
L 45.90625 32.71875 
Q 45.90625 40.484375 42.875 44.328125 
Q 39.84375 48.1875 33.796875 48.1875 
Q 26.515625 48.1875 22.3125 43.546875 
Q 18.109375 38.921875 18.109375 30.90625 
L 18.109375 0 
L 9.078125 0 
L 9.078125 54.6875 
L 18.109375 54.6875 
L 18.109375 46.1875 
Q 21.34375 51.125 25.703125 53.5625 
Q 30.078125 56 35.796875 56 
Q 45.21875 56 50.046875 50.171875 
Q 54.890625 44.34375 54.890625 33.015625 
z
" id="DejaVuSans-6e"/>
      <path d="M 8.015625 75.875 
L 15.828125 75.875 
Q 23.140625 64.359375 26.78125 53.3125 
Q 30.421875 42.28125 30.421875 31.390625 
Q 30.421875 20.453125 26.78125 9.375 
Q 23.140625 -1.703125 15.828125 -13.1875 
L 8.015625 -13.1875 
Q 14.5 -2 17.703125 9.0625 
Q 20.90625 20.125 20.90625 31.390625 
Q 20.90625 42.671875 17.703125 53.65625 
Q 14.5 64.65625 8.015625 75.875 
z
" id="DejaVuSans-29"/>
     </defs>
     <g transform="translate(73.803219 338.153594)scale(0.17 -0.17)">
      <use xlink:href="#DejaVuSans-6c"/>
      <use x="27.783203" xlink:href="#DejaVuSans-6f"/>
      <use x="88.964844" xlink:href="#DejaVuSans-67"/>
      <use x="152.441406" xlink:href="#DejaVuSans-31"/>
      <use x="216.064453" xlink:href="#DejaVuSans-30"/>
      <use x="279.6875" xlink:href="#DejaVuSans-28"/>
      <use x="318.701172" xlink:href="#DejaVuSans-23"/>
      <use x="402.490234" xlink:href="#DejaVuSans-20"/>
      <use x="434.277344" xlink:href="#DejaVuSans-66"/>
      <use x="469.404297" xlink:href="#DejaVuSans-2d"/>
      <use x="505.488281" xlink:href="#DejaVuSans-65"/>
      <use x="567.011719" xlink:href="#DejaVuSans-76"/>
      <use x="626.191406" xlink:href="#DejaVuSans-61"/>
      <use x="687.470703" xlink:href="#DejaVuSans-6c"/>
      <use x="715.253906" xlink:href="#DejaVuSans-73"/>
      <use x="767.353516" xlink:href="#DejaVuSans-20"/>
      <use x="799.140625" xlink:href="#DejaVuSans-2f"/>
      <use x="832.832031" xlink:href="#DejaVuSans-20"/>
      <use x="864.619141" xlink:href="#DejaVuSans-64"/>
      <use x="928.095703" xlink:href="#DejaVuSans-69"/>
      <use x="955.878906" xlink:href="#DejaVuSans-6d"/>
      <use x="1053.291016" xlink:href="#DejaVuSans-65"/>
      <use x="1114.814453" xlink:href="#DejaVuSans-6e"/>
      <use x="1178.193359" xlink:href="#DejaVuSans-73"/>
      <use x="1230.292969" xlink:href="#DejaVuSans-69"/>
      <use x="1258.076172" xlink:href="#DejaVuSans-6f"/>
      <use x="1319.257812" xlink:href="#DejaVuSans-6e"/>
      <use x="1382.636719" xlink:href="#DejaVuSans-29"/>
     </g>
    </g>
   </g>
   <g id="matplotlib.axis_2">
    <g id="ytick_1">
     <g id="line2d_29">
      <path clip-path="url(#p17e582e92a)" d="M 56.12 294.88 
L 333.168 294.88 
" style="fill:none;stroke:#b0b0b0;stroke-linecap:square;stroke-width:0.8;"/>
     </g>
     <g id="line2d_30">
      <defs>
       <path d="M 0 0 
L -3.5 0 
" id="m08221945d7" style="stroke:#000000;stroke-width:0.8;"/>
      </defs>
      <g>
       <use style="stroke:#000000;stroke-width:0.8;" x="56.12" xlink:href="#m08221945d7" y="294.88"/>
      </g>
     </g>
     <g id="text_6">
      <!-- 0.0 -->
      <defs>
       <path d="M 10.6875 12.40625 
L 21 12.40625 
L 21 0 
L 10.6875 0 
z
" id="DejaVuSans-2e"/>
      </defs>
      <g transform="translate(23.675 300.95875)scale(0.16 -0.16)">
       <use xlink:href="#DejaVuSans-30"/>
       <use x="63.623047" xlink:href="#DejaVuSans-2e"/>
       <use x="95.410156" xlink:href="#DejaVuSans-30"/>
      </g>
     </g>
    </g>
    <g id="ytick_2">
     <g id="line2d_31">
      <path clip-path="url(#p17e582e92a)" d="M 56.12 237.843411 
L 333.168 237.843411 
" style="fill:none;stroke:#b0b0b0;stroke-linecap:square;stroke-width:0.8;"/>
     </g>
     <g id="line2d_32">
      <g>
       <use style="stroke:#000000;stroke-width:0.8;" x="56.12" xlink:href="#m08221945d7" y="237.843411"/>
      </g>
     </g>
     <g id="text_7">
      <!-- 0.2 -->
      <g transform="translate(23.675 243.922161)scale(0.16 -0.16)">
       <use xlink:href="#DejaVuSans-30"/>
       <use x="63.623047" xlink:href="#DejaVuSans-2e"/>
       <use x="95.410156" xlink:href="#DejaVuSans-32"/>
      </g>
     </g>
    </g>
    <g id="ytick_3">
     <g id="line2d_33">
      <path clip-path="url(#p17e582e92a)" d="M 56.12 180.806823 
L 333.168 180.806823 
" style="fill:none;stroke:#b0b0b0;stroke-linecap:square;stroke-width:0.8;"/>
     </g>
     <g id="line2d_34">
      <g>
       <use style="stroke:#000000;stroke-width:0.8;" x="56.12" xlink:href="#m08221945d7" y="180.806823"/>
      </g>
     </g>
     <g id="text_8">
      <!-- 0.4 -->
      <g transform="translate(23.675 186.885573)scale(0.16 -0.16)">
       <use xlink:href="#DejaVuSans-30"/>
       <use x="63.623047" xlink:href="#DejaVuSans-2e"/>
       <use x="95.410156" xlink:href="#DejaVuSans-34"/>
      </g>
     </g>
    </g>
    <g id="ytick_4">
     <g id="line2d_35">
      <path clip-path="url(#p17e582e92a)" d="M 56.12 123.770234 
L 333.168 123.770234 
" style="fill:none;stroke:#b0b0b0;stroke-linecap:square;stroke-width:0.8;"/>
     </g>
     <g id="line2d_36">
      <g>
       <use style="stroke:#000000;stroke-width:0.8;" x="56.12" xlink:href="#m08221945d7" y="123.770234"/>
      </g>
     </g>
     <g id="text_9">
      <!-- 0.6 -->
      <g transform="translate(23.675 129.848984)scale(0.16 -0.16)">
       <use xlink:href="#DejaVuSans-30"/>
       <use x="63.623047" xlink:href="#DejaVuSans-2e"/>
       <use x="95.410156" xlink:href="#DejaVuSans-36"/>
      </g>
     </g>
    </g>
    <g id="ytick_5">
     <g id="line2d_37">
      <path clip-path="url(#p17e582e92a)" d="M 56.12 66.733646 
L 333.168 66.733646 
" style="fill:none;stroke:#b0b0b0;stroke-linecap:square;stroke-width:0.8;"/>
     </g>
     <g id="line2d_38">
      <g>
       <use style="stroke:#000000;stroke-width:0.8;" x="56.12" xlink:href="#m08221945d7" y="66.733646"/>
      </g>
     </g>
     <g id="text_10">
      <!-- 0.8 -->
      <defs>
       <path d="M 31.78125 34.625 
Q 24.75 34.625 20.71875 30.859375 
Q 16.703125 27.09375 16.703125 20.515625 
Q 16.703125 13.921875 20.71875 10.15625 
Q 24.75 6.390625 31.78125 6.390625 
Q 38.8125 6.390625 42.859375 10.171875 
Q 46.921875 13.96875 46.921875 20.515625 
Q 46.921875 27.09375 42.890625 30.859375 
Q 38.875 34.625 31.78125 34.625 
z
M 21.921875 38.8125 
Q 15.578125 40.375 12.03125 44.71875 
Q 8.5 49.078125 8.5 55.328125 
Q 8.5 64.0625 14.71875 69.140625 
Q 20.953125 74.21875 31.78125 74.21875 
Q 42.671875 74.21875 48.875 69.140625 
Q 55.078125 64.0625 55.078125 55.328125 
Q 55.078125 49.078125 51.53125 44.71875 
Q 48 40.375 41.703125 38.8125 
Q 48.828125 37.15625 52.796875 32.3125 
Q 56.78125 27.484375 56.78125 20.515625 
Q 56.78125 9.90625 50.3125 4.234375 
Q 43.84375 -1.421875 31.78125 -1.421875 
Q 19.734375 -1.421875 13.25 4.234375 
Q 6.78125 9.90625 6.78125 20.515625 
Q 6.78125 27.484375 10.78125 32.3125 
Q 14.796875 37.15625 21.921875 38.8125 
z
M 18.3125 54.390625 
Q 18.3125 48.734375 21.84375 45.5625 
Q 25.390625 42.390625 31.78125 42.390625 
Q 38.140625 42.390625 41.71875 45.5625 
Q 45.3125 48.734375 45.3125 54.390625 
Q 45.3125 60.0625 41.71875 63.234375 
Q 38.140625 66.40625 31.78125 66.40625 
Q 25.390625 66.40625 21.84375 63.234375 
Q 18.3125 60.0625 18.3125 54.390625 
z
" id="DejaVuSans-38"/>
      </defs>
      <g transform="translate(23.675 72.812396)scale(0.16 -0.16)">
       <use xlink:href="#DejaVuSans-30"/>
       <use x="63.623047" xlink:href="#DejaVuSans-2e"/>
       <use x="95.410156" xlink:href="#DejaVuSans-38"/>
      </g>
     </g>
    </g>
    <g id="ytick_6">
     <g id="line2d_39">
      <path clip-path="url(#p17e582e92a)" d="M 56.12 9.697057 
L 333.168 9.697057 
" style="fill:none;stroke:#b0b0b0;stroke-linecap:square;stroke-width:0.8;"/>
     </g>
     <g id="line2d_40">
      <g>
       <use style="stroke:#000000;stroke-width:0.8;" x="56.12" xlink:href="#m08221945d7" y="9.697057"/>
      </g>
     </g>
     <g id="text_11">
      <!-- 1.0 -->
      <g transform="translate(23.675 15.775807)scale(0.16 -0.16)">
       <use xlink:href="#DejaVuSans-31"/>
       <use x="63.623047" xlink:href="#DejaVuSans-2e"/>
       <use x="95.410156" xlink:href="#DejaVuSans-30"/>
      </g>
     </g>
    </g>
    <g id="text_12">
     <!-- Fraction of function,target pairs -->
     <defs>
      <path d="M 9.8125 72.90625 
L 51.703125 72.90625 
L 51.703125 64.59375 
L 19.671875 64.59375 
L 19.671875 43.109375 
L 48.578125 43.109375 
L 48.578125 34.8125 
L 19.671875 34.8125 
L 19.671875 0 
L 9.8125 0 
z
" id="DejaVuSans-46"/>
      <path d="M 41.109375 46.296875 
Q 39.59375 47.171875 37.8125 47.578125 
Q 36.03125 48 33.890625 48 
Q 26.265625 48 22.1875 43.046875 
Q 18.109375 38.09375 18.109375 28.8125 
L 18.109375 0 
L 9.078125 0 
L 9.078125 54.6875 
L 18.109375 54.6875 
L 18.109375 46.1875 
Q 20.953125 51.171875 25.484375 53.578125 
Q 30.03125 56 36.53125 56 
Q 37.453125 56 38.578125 55.875 
Q 39.703125 55.765625 41.0625 55.515625 
z
" id="DejaVuSans-72"/>
      <path d="M 48.78125 52.59375 
L 48.78125 44.1875 
Q 44.96875 46.296875 41.140625 47.34375 
Q 37.3125 48.390625 33.40625 48.390625 
Q 24.65625 48.390625 19.8125 42.84375 
Q 14.984375 37.3125 14.984375 27.296875 
Q 14.984375 17.28125 19.8125 11.734375 
Q 24.65625 6.203125 33.40625 6.203125 
Q 37.3125 6.203125 41.140625 7.25 
Q 44.96875 8.296875 48.78125 10.40625 
L 48.78125 2.09375 
Q 45.015625 0.34375 40.984375 -0.53125 
Q 36.96875 -1.421875 32.421875 -1.421875 
Q 20.0625 -1.421875 12.78125 6.34375 
Q 5.515625 14.109375 5.515625 27.296875 
Q 5.515625 40.671875 12.859375 48.328125 
Q 20.21875 56 33.015625 56 
Q 37.15625 56 41.109375 55.140625 
Q 45.0625 54.296875 48.78125 52.59375 
z
" id="DejaVuSans-63"/>
      <path d="M 18.3125 70.21875 
L 18.3125 54.6875 
L 36.8125 54.6875 
L 36.8125 47.703125 
L 18.3125 47.703125 
L 18.3125 18.015625 
Q 18.3125 11.328125 20.140625 9.421875 
Q 21.96875 7.515625 27.59375 7.515625 
L 36.8125 7.515625 
L 36.8125 0 
L 27.59375 0 
Q 17.1875 0 13.234375 3.875 
Q 9.28125 7.765625 9.28125 18.015625 
L 9.28125 47.703125 
L 2.6875 47.703125 
L 2.6875 54.6875 
L 9.28125 54.6875 
L 9.28125 70.21875 
z
" id="DejaVuSans-74"/>
      <path d="M 8.5 21.578125 
L 8.5 54.6875 
L 17.484375 54.6875 
L 17.484375 21.921875 
Q 17.484375 14.15625 20.5 10.265625 
Q 23.53125 6.390625 29.59375 6.390625 
Q 36.859375 6.390625 41.078125 11.03125 
Q 45.3125 15.671875 45.3125 23.6875 
L 45.3125 54.6875 
L 54.296875 54.6875 
L 54.296875 0 
L 45.3125 0 
L 45.3125 8.40625 
Q 42.046875 3.421875 37.71875 1 
Q 33.40625 -1.421875 27.6875 -1.421875 
Q 18.265625 -1.421875 13.375 4.4375 
Q 8.5 10.296875 8.5 21.578125 
z
M 31.109375 56 
z
" id="DejaVuSans-75"/>
      <path d="M 11.71875 12.40625 
L 22.015625 12.40625 
L 22.015625 4 
L 14.015625 -11.625 
L 7.71875 -11.625 
L 11.71875 4 
z
" id="DejaVuSans-2c"/>
      <path d="M 18.109375 8.203125 
L 18.109375 -20.796875 
L 9.078125 -20.796875 
L 9.078125 54.6875 
L 18.109375 54.6875 
L 18.109375 46.390625 
Q 20.953125 51.265625 25.265625 53.625 
Q 29.59375 56 35.59375 56 
Q 45.5625 56 51.78125 48.09375 
Q 58.015625 40.1875 58.015625 27.296875 
Q 58.015625 14.40625 51.78125 6.484375 
Q 45.5625 -1.421875 35.59375 -1.421875 
Q 29.59375 -1.421875 25.265625 0.953125 
Q 20.953125 3.328125 18.109375 8.203125 
z
M 48.6875 27.296875 
Q 48.6875 37.203125 44.609375 42.84375 
Q 40.53125 48.484375 33.40625 48.484375 
Q 26.265625 48.484375 22.1875 42.84375 
Q 18.109375 37.203125 18.109375 27.296875 
Q 18.109375 17.390625 22.1875 11.75 
Q 26.265625 6.109375 33.40625 6.109375 
Q 40.53125 6.109375 44.609375 11.75 
Q 48.6875 17.390625 48.6875 27.296875 
z
" id="DejaVuSans-70"/>
     </defs>
     <g transform="translate(16.139531 286.001989)rotate(-90)scale(0.17 -0.17)">
      <use xlink:href="#DejaVuSans-46"/>
      <use x="57.410156" xlink:href="#DejaVuSans-72"/>
      <use x="98.523438" xlink:href="#DejaVuSans-61"/>
      <use x="159.802734" xlink:href="#DejaVuSans-63"/>
      <use x="214.783203" xlink:href="#DejaVuSans-74"/>
      <use x="253.992188" xlink:href="#DejaVuSans-69"/>
      <use x="281.775391" xlink:href="#DejaVuSans-6f"/>
      <use x="342.957031" xlink:href="#DejaVuSans-6e"/>
      <use x="406.335938" xlink:href="#DejaVuSans-20"/>
      <use x="438.123047" xlink:href="#DejaVuSans-6f"/>
      <use x="499.304688" xlink:href="#DejaVuSans-66"/>
      <use x="534.509766" xlink:href="#DejaVuSans-20"/>
      <use x="566.296875" xlink:href="#DejaVuSans-66"/>
      <use x="601.501953" xlink:href="#DejaVuSans-75"/>
      <use x="664.880859" xlink:href="#DejaVuSans-6e"/>
      <use x="728.259766" xlink:href="#DejaVuSans-63"/>
      <use x="783.240234" xlink:href="#DejaVuSans-74"/>
      <use x="822.449219" xlink:href="#DejaVuSans-69"/>
      <use x="850.232422" xlink:href="#DejaVuSans-6f"/>
      <use x="911.414062" xlink:href="#DejaVuSans-6e"/>
      <use x="974.792969" xlink:href="#DejaVuSans-2c"/>
      <use x="1006.580078" xlink:href="#DejaVuSans-74"/>
      <use x="1045.789062" xlink:href="#DejaVuSans-61"/>
      <use x="1107.068359" xlink:href="#DejaVuSans-72"/>
      <use x="1148.166016" xlink:href="#DejaVuSans-67"/>
      <use x="1211.642578" xlink:href="#DejaVuSans-65"/>
      <use x="1273.166016" xlink:href="#DejaVuSans-74"/>
      <use x="1312.375" xlink:href="#DejaVuSans-20"/>
      <use x="1344.162109" xlink:href="#DejaVuSans-70"/>
      <use x="1407.638672" xlink:href="#DejaVuSans-61"/>
      <use x="1468.917969" xlink:href="#DejaVuSans-69"/>
      <use x="1496.701172" xlink:href="#DejaVuSans-72"/>
      <use x="1537.814453" xlink:href="#DejaVuSans-73"/>
     </g>
    </g>
   </g>
   <g id="line2d_41">
    <defs>
     <path d="M 0 1.5 
C 0.397805 1.5 0.77937 1.341951 1.06066 1.06066 
C 1.341951 0.77937 1.5 0.397805 1.5 0 
C 1.5 -0.397805 1.341951 -0.77937 1.06066 -1.06066 
C 0.77937 -1.341951 0.397805 -1.5 0 -1.5 
C -0.397805 -1.5 -0.77937 -1.341951 -1.06066 -1.06066 
C -1.341951 -0.77937 -1.5 -0.397805 -1.5 0 
C -1.5 0.397805 -1.341951 0.77937 -1.06066 1.06066 
C -0.77937 1.341951 -0.397805 1.5 0 1.5 
z
" id="mbd97f6a4e1" style="stroke:#f5deb3;"/>
    </defs>
    <g>
     <use style="fill:#f5deb3;stroke:#f5deb3;" x="309.795296" xlink:href="#mbd97f6a4e1" y="9.697057"/>
     <use style="fill:#f5deb3;stroke:#f5deb3;" x="309.795296" xlink:href="#mbd97f6a4e1" y="9.697057"/>
    </g>
   </g>
   <g id="line2d_42">
    <defs>
     <path d="M 0 1.5 
C 0.397805 1.5 0.77937 1.341951 1.06066 1.06066 
C 1.341951 0.77937 1.5 0.397805 1.5 0 
C 1.5 -0.397805 1.341951 -0.77937 1.06066 -1.06066 
C 0.77937 -1.341951 0.397805 -1.5 0 -1.5 
C -0.397805 -1.5 -0.77937 -1.341951 -1.06066 -1.06066 
C -1.341951 -0.77937 -1.5 -0.397805 -1.5 0 
C -1.5 0.397805 -1.341951 0.77937 -1.06066 1.06066 
C -0.77937 1.341951 -0.397805 1.5 0 1.5 
z
" id="mb988a02866" style="stroke:#000080;"/>
    </defs>
    <g>
     <use style="fill:#000080;stroke:#000080;" x="281.689463" xlink:href="#mb988a02866" y="102.521309"/>
     <use style="fill:#000080;stroke:#000080;" x="281.689463" xlink:href="#mb988a02866" y="102.521309"/>
    </g>
   </g>
   <g id="line2d_43">
    <path d="M 28.455965 294.88 
L 28.455965 286.604103 
L 61.903497 286.604103 
L 61.903497 285.038393 
L 72.543934 285.038393 
L 72.543934 283.808192 
L 79.066841 283.808192 
L 79.066841 280.117589 
L 83.784035 280.117589 
L 83.784035 275.532294 
L 87.481505 275.532294 
L 87.481505 273.407402 
L 90.522701 273.407402 
L 90.522701 271.170673 
L 93.105847 271.170673 
L 93.105847 269.604963 
L 95.351029 269.604963 
L 95.351029 268.598435 
L 97.336537 268.598435 
L 97.336537 267.144561 
L 99.11626 267.144561 
L 99.11626 266.473542 
L 100.728876 266.473542 
L 100.728876 266.026196 
L 102.20309 266.026196 
L 102.20309 265.690687 
L 103.560793 265.690687 
L 103.560793 264.795995 
L 104.819059 264.795995 
L 104.819059 264.460486 
L 105.991465 264.460486 
L 105.991465 264.236813 
L 107.088985 264.236813 
L 107.088985 263.901304 
L 110.014853 263.901304 
L 110.014853 263.789467 
L 110.88904 263.789467 
L 110.88904 263.453958 
L 111.72091 263.453958 
L 111.72091 263.342122 
L 112.514373 263.342122 
L 112.514373 263.230285 
L 113.272818 263.230285 
L 113.272818 262.559266 
L 114.696138 262.559266 
L 114.696138 262.44743 
L 115.365909 262.44743 
L 115.365909 262.223757 
L 116.010559 262.223757 
L 116.010559 261.440902 
L 116.631902 261.440902 
L 116.631902 261.105393 
L 117.231566 261.105393 
L 117.231566 260.993556 
L 117.811013 260.993556 
L 117.811013 260.658047 
L 118.371562 260.658047 
L 118.371562 260.322538 
L 119.440629 260.322538 
L 119.440629 260.210701 
L 120.447081 260.210701 
L 120.447081 259.875192 
L 120.929036 259.875192 
L 120.929036 259.539682 
L 121.397846 259.539682 
L 121.397846 259.204173 
L 121.854208 259.204173 
L 121.854208 258.9805 
L 122.298767 258.9805 
L 122.298767 258.533154 
L 122.732117 258.533154 
L 122.732117 258.421318 
L 123.567356 258.421318 
L 123.567356 258.197645 
L 123.970233 258.197645 
L 123.970233 257.973972 
L 124.363883 257.973972 
L 124.363883 257.750299 
L 124.748719 257.750299 
L 124.748719 257.191117 
L 125.125128 257.191117 
L 125.125128 256.855608 
L 125.49347 256.855608 
L 125.49347 256.408262 
L 125.854083 256.408262 
L 125.854083 255.960916 
L 126.207287 255.960916 
L 126.207287 255.625407 
L 126.892639 255.625407 
L 126.892639 255.401734 
L 127.225332 255.401734 
L 127.225332 255.178061 
L 127.551708 255.178061 
L 127.551708 254.618879 
L 127.872003 254.618879 
L 127.872003 253.94786 
L 128.798561 253.94786 
L 128.798561 253.724187 
L 129.096637 253.724187 
L 129.096637 253.500514 
L 129.389632 253.500514 
L 129.389632 253.276841 
L 129.677716 253.276841 
L 129.677716 253.053168 
L 130.784069 253.053168 
L 130.784069 252.829495 
L 131.049878 252.829495 
L 131.049878 252.717659 
L 131.311639 252.717659 
L 131.311639 252.38215 
L 132.073821 252.38215 
L 132.073821 252.270313 
L 132.803637 252.270313 
L 132.803637 252.158477 
L 133.040181 252.158477 
L 133.040181 251.711131 
L 133.273515 251.711131 
L 133.273515 251.263785 
L 133.503723 251.263785 
L 133.503723 251.151949 
L 133.730889 251.151949 
L 133.730889 251.040112 
L 133.955092 251.040112 
L 133.955092 250.704603 
L 134.39491 250.704603 
L 134.39491 250.592767 
L 134.823755 250.592767 
L 134.823755 250.145421 
L 135.03423 250.145421 
L 135.03423 249.921748 
L 135.24216 249.921748 
L 135.24216 248.467874 
L 135.650622 248.467874 
L 135.650622 247.685019 
L 135.851269 247.685019 
L 135.851269 247.237673 
L 136.049602 247.237673 
L 136.049602 246.007472 
L 136.439531 246.007472 
L 136.439531 245.895636 
L 136.631228 245.895636 
L 136.631228 245.44829 
L 136.82081 245.44829 
L 136.82081 245.000944 
L 137.008324 245.000944 
L 137.008324 244.553598 
L 137.193815 244.553598 
L 137.193815 244.441762 
L 137.377325 244.441762 
L 137.377325 244.329925 
L 137.558897 244.329925 
L 137.558897 244.106253 
L 137.738571 244.106253 
L 137.738571 243.994416 
L 137.916386 243.994416 
L 137.916386 243.88258 
L 138.09238 243.88258 
L 138.09238 243.658907 
L 138.266591 243.658907 
L 138.266591 243.54707 
L 138.439053 243.54707 
L 138.439053 243.435234 
L 138.609803 243.435234 
L 138.609803 243.323397 
L 138.778873 243.323397 
L 138.778873 243.211561 
L 138.946296 243.211561 
L 138.946296 242.987888 
L 139.276327 242.987888 
L 139.276327 242.652379 
L 139.438997 242.652379 
L 139.438997 242.205033 
L 139.600142 242.205033 
L 139.600142 241.310341 
L 140.230025 241.310341 
L 140.230025 240.974832 
L 140.536516 240.974832 
L 140.536516 240.639323 
L 140.687737 240.639323 
L 140.687737 239.968304 
L 140.837639 239.968304 
L 140.837639 239.856467 
L 140.986245 239.856467 
L 140.986245 238.961776 
L 141.133577 238.961776 
L 141.133577 238.067084 
L 141.279657 238.067084 
L 141.279657 237.955248 
L 141.568144 237.955248 
L 141.568144 237.731575 
L 141.710592 237.731575 
L 141.710592 237.172393 
L 141.851869 237.172393 
L 141.851869 236.389538 
L 141.991995 236.389538 
L 141.991995 235.718519 
L 142.130987 235.718519 
L 142.130987 235.606682 
L 142.268865 235.606682 
L 142.268865 235.494846 
L 142.405645 235.494846 
L 142.405645 234.935664 
L 142.675983 234.935664 
L 142.675983 234.600154 
L 142.809574 234.600154 
L 142.809574 234.152809 
L 142.942135 234.152809 
L 142.942135 233.817299 
L 143.073681 233.817299 
L 143.073681 233.705463 
L 143.462385 233.705463 
L 143.462385 233.369954 
L 143.842493 233.369954 
L 143.842493 233.146281 
L 143.967351 233.146281 
L 143.967351 232.698935 
L 144.091308 232.698935 
L 144.091308 232.475262 
L 144.214377 232.475262 
L 144.214377 231.804243 
L 144.336572 231.804243 
L 144.336572 231.58057 
L 144.578385 231.58057 
L 144.578385 231.468734 
L 144.698028 231.468734 
L 144.698028 231.356897 
L 144.816844 231.356897 
L 144.816844 230.909552 
L 145.05204 230.909552 
L 145.05204 230.685879 
L 145.168442 230.685879 
L 145.168442 230.574042 
L 145.398907 230.574042 
L 145.398907 230.462206 
L 145.512992 230.462206 
L 145.512992 230.350369 
L 145.626324 230.350369 
L 145.626324 230.01486 
L 145.85077 230.01486 
L 145.85077 229.679351 
L 145.961904 229.679351 
L 145.961904 229.567514 
L 146.182039 229.567514 
L 146.291058 229.232005 
L 146.507044 229.232005 
L 146.507044 229.120168 
L 146.826017 229.120168 
L 146.93104 228.896496 
L 147.035425 228.896496 
L 147.139179 228.225477 
L 147.242311 228.225477 
L 147.344828 227.889968 
L 147.446737 227.889968 
L 147.548046 226.88344 
L 147.648761 226.88344 
L 147.748889 225.205893 
L 147.848437 225.205893 
L 147.947413 224.199365 
L 148.045821 224.199365 
L 148.143669 223.863855 
L 148.240964 223.863855 
L 148.337711 222.857327 
L 148.433916 222.857327 
L 148.433916 222.745491 
L 148.624726 222.745491 
L 148.719342 221.291617 
L 148.813441 221.291617 
L 148.907027 220.844271 
L 149.000107 220.844271 
L 149.000107 220.508762 
L 149.184767 220.508762 
L 149.276358 220.061416 
L 149.367465 220.061416 
L 149.45809 219.390397 
L 149.548241 219.390397 
L 149.637921 218.607542 
L 149.727135 218.607542 
L 149.727135 218.383869 
L 149.904187 218.383869 
L 149.992034 218.160197 
L 150.166392 218.160197 
L 150.252912 217.712851 
L 150.338998 217.712851 
L 150.424656 217.041832 
L 150.509889 217.041832 
L 150.594702 216.370813 
L 150.679098 216.370813 
L 150.763082 215.811631 
L 150.846657 215.811631 
L 150.929828 215.140612 
L 151.012598 215.140612 
L 151.094972 214.693267 
L 151.176953 214.693267 
L 151.176953 214.245921 
L 151.339751 214.245921 
L 151.420576 213.798575 
L 151.501022 213.798575 
L 151.581093 213.463066 
L 151.660793 213.463066 
L 151.660793 213.351229 
L 151.819093 213.351229 
L 151.8977 213.127556 
L 151.975949 213.127556 
L 152.053843 212.009192 
L 152.131386 212.009192 
L 152.131386 211.673683 
L 152.28543 211.673683 
L 152.28543 211.338173 
L 152.438106 211.338173 
L 152.438106 210.890827 
L 152.589437 210.890827 
L 152.664606 210.331645 
L 152.739448 210.331645 
L 152.739448 209.996136 
L 153.470471 209.996136 
L 153.470471 209.884299 
L 153.68385 209.884299 
L 153.68385 209.772463 
L 154.171668 209.772463 
L 154.171668 209.660626 
L 154.308539 209.660626 
L 154.376568 209.436954 
L 154.444329 209.436954 
L 154.511824 209.101444 
L 154.579054 209.101444 
L 154.646023 208.318589 
L 154.712732 208.318589 
L 154.779183 207.423898 
L 154.845378 207.423898 
L 154.911319 207.088388 
L 154.977008 207.088388 
L 154.977008 206.976552 
L 155.107638 206.976552 
L 155.107638 206.864715 
L 155.237283 206.864715 
L 155.237283 206.752879 
L 155.933359 206.752879 
L 155.995263 206.305533 
L 156.179648 206.305533 
L 156.240673 205.634514 
L 156.301482 205.634514 
L 156.362076 205.187169 
L 156.422458 205.187169 
L 156.482628 204.963496 
L 156.602341 204.963496 
L 156.661886 204.51615 
L 156.839293 204.51615 
L 156.898024 204.292477 
L 156.956555 204.292477 
L 156.956555 204.180641 
L 157.073023 204.180641 
L 157.130962 203.845131 
L 157.246258 203.845131 
L 157.246258 203.733295 
L 157.360786 203.733295 
L 157.360786 203.397785 
L 157.531159 203.397785 
L 157.587577 202.726767 
L 157.64381 202.726767 
L 157.64381 202.391257 
L 157.755728 202.391257 
L 157.811415 201.608402 
L 157.866922 201.608402 
L 157.977401 200.937384 
L 158.032375 200.937384 
L 158.141799 200.601874 
L 158.250531 200.601874 
L 158.358579 199.819019 
L 158.41235 199.819019 
L 158.519389 198.924327 
L 158.572659 198.924327 
L 158.678708 197.805963 
L 158.731488 197.805963 
L 158.836564 197.470454 
L 158.888862 197.470454 
L 158.992983 197.023108 
L 159.044808 197.023108 
L 159.147992 196.463926 
L 159.199352 196.463926 
L 159.301615 195.792907 
L 159.352519 195.792907 
L 159.403273 194.898215 
L 159.504333 194.898215 
L 159.604803 194.11536 
L 159.754415 194.11536 
L 159.853438 192.54965 
L 159.902736 192.54965 
L 160.00091 191.543122 
L 160.098527 191.543122 
L 160.195592 190.760267 
L 160.24392 190.760267 
L 160.292113 190.201085 
L 160.388094 190.201085 
L 160.435885 189.865575 
L 160.531069 189.865575 
L 160.531069 189.418229 
L 160.71987 189.418229 
L 160.813499 189.08272 
L 160.90662 189.08272 
L 160.99924 188.747211 
L 161.091363 188.747211 
L 161.182996 187.964356 
L 161.228629 187.964356 
L 161.274142 187.628846 
L 161.364807 187.628846 
L 161.364807 187.293337 
L 161.499915 187.293337 
L 161.589401 186.845991 
L 161.678423 186.845991 
L 161.722762 186.510482 
L 161.811097 186.510482 
L 161.898981 186.286809 
L 162.073413 186.286809 
L 162.073413 186.174972 
L 162.203085 186.174972 
L 162.288992 185.61579 
L 162.331786 185.61579 
L 162.331786 185.503954 
L 162.501901 185.503954 
L 162.501901 185.168444 
L 162.628392 185.168444 
L 162.712205 184.832935 
L 162.753959 184.832935 
L 162.837164 184.609262 
L 162.878615 184.609262 
L 162.919967 184.273753 
L 163.084387 184.273753 
L 163.166011 183.826407 
L 163.206679 183.826407 
L 163.287725 182.819879 
L 163.64778 182.819879 
L 163.726778 182.596206 
L 163.844598 182.596206 
L 163.922699 182.260697 
L 163.961617 182.260697 
L 164.000446 181.701514 
L 164.077844 181.701514 
L 164.116412 181.477842 
L 164.19329 181.477842 
L 164.231601 180.471314 
L 164.307966 180.471314 
L 164.383994 180.135804 
L 164.421883 180.135804 
L 164.421883 180.023968 
L 166.217109 180.023968 
L 166.319085 179.241113 
L 166.352943 179.241113 
L 166.454119 178.570094 
L 166.487713 178.570094 
L 166.487713 178.010912 
L 166.820085 178.010912 
L 166.918556 177.11622 
L 166.951255 177.11622 
L 166.951255 177.004384 
L 167.623939 177.004384 
L 167.686652 176.557038 
L 167.780295 176.557038 
L 167.811397 175.103164 
L 167.966064 175.103164 
L 167.966064 174.991328 
L 168.149847 174.991328 
L 168.241007 174.432145 
L 168.271286 174.432145 
L 168.271286 174.320309 
L 168.719191 174.320309 
L 168.748641 173.9848 
L 169.011439 173.9848 
L 169.069297 173.64929 
L 169.27028 173.64929 
L 169.327275 173.425617 
L 169.525281 173.425617 
L 169.581438 173.090108 
L 169.66533 173.090108 
L 169.748816 172.419089 
L 169.776554 172.419089 
L 169.831897 171.636234 
L 170.641347 171.636234 
L 170.720234 171.300725 
L 171.160549 171.300725 
L 171.160549 171.188888 
L 171.788247 171.188888 
L 171.788247 171.077052 
L 171.935544 171.077052 
L 171.935544 170.965215 
L 172.370009 170.965215 
L 172.370009 170.853379 
L 173.184605 170.853379 
L 173.184605 170.741543 
L 173.297887 170.741543 
L 173.387979 170.406033 
L 173.455239 170.406033 
L 173.522236 169.735014 
L 173.566757 169.735014 
L 173.611162 169.399505 
L 173.699631 169.399505 
L 173.699631 169.287669 
L 174.005733 169.287669 
L 174.113747 168.728486 
L 174.178231 168.728486 
L 174.178231 168.392977 
L 174.327761 168.392977 
L 174.327761 168.281141 
L 174.454901 168.281141 
L 174.560138 167.498286 
L 174.581108 167.498286 
L 174.622972 166.603594 
L 175.558731 166.603594 
L 175.558731 166.491757 
L 176.046708 166.491757 
L 176.046708 166.379921 
L 176.219042 166.379921 
L 176.314042 165.373393 
L 176.351896 165.373393 
L 176.446167 165.14972 
L 176.464959 165.14972 
L 176.558613 164.143192 
L 176.577283 164.143192 
L 176.614562 163.2485 
L 177.397101 163.2485 
L 177.503514 162.689318 
L 177.609273 162.689318 
L 177.609273 162.577482 
L 177.731841 162.577482 
L 177.818857 162.353809 
L 177.905435 162.353809 
L 178.008757 161.68279 
L 178.04306 161.68279 
L 178.111461 161.347281 
L 178.179591 161.347281 
L 178.281283 160.899935 
L 178.449443 160.899935 
L 178.549555 160.340753 
L 178.566184 160.340753 
L 178.649087 160.11708 
L 178.682137 160.11708 
L 178.764484 159.557898 
L 178.846439 159.557898 
L 178.944272 158.886879 
L 178.960523 158.886879 
L 179.041551 158.663206 
L 179.250453 158.663206 
L 179.330128 158.327697 
L 179.441057 158.327697 
L 179.441057 158.21586 
L 179.939238 158.21586 
L 179.939238 158.104024 
L 180.076788 158.104024 
L 180.076788 157.992187 
L 181.110632 157.992187 
L 181.110632 157.880351 
L 183.263421 157.880351 
L 183.263421 157.768515 
L 184.624485 157.768515 
L 184.694444 157.209332 
L 184.752527 157.209332 
L 184.856584 155.979131 
L 184.868107 155.979131 
L 184.879623 154.413421 
L 185.051434 154.413421 
L 185.051434 154.301585 
L 185.929011 154.301585 
L 185.939837 153.966075 
L 186.058479 153.966075 
L 186.058479 153.854239 
L 186.566816 153.854239 
L 186.660477 152.512201 
L 186.743306 152.512201 
L 186.794872 151.61751 
L 186.897542 151.61751 
L 186.989424 149.71629 
L 187.009775 149.71629 
L 187.070686 149.157108 
L 187.12128 149.157108 
L 187.141477 148.038744 
L 187.242103 148.038744 
L 187.242103 147.926907 
L 187.697545 147.926907 
L 187.697545 147.815071 
L 188.55517 147.815071 
L 188.55517 147.703234 
L 189.16694 147.703234 
L 189.16694 147.591398 
L 189.91299 147.591398 
L 189.91299 147.479561 
L 190.219457 147.479561 
L 190.219457 147.367725 
L 193.173549 147.367725 
L 193.272735 147.032216 
L 193.55301 147.032216 
L 193.55301 146.920379 
L 195.632152 146.920379 
L 195.632152 146.473033 
L 195.85243 146.473033 
L 195.85243 146.361197 
L 196.758343 146.361197 
L 196.758343 146.24936 
L 197.353525 146.24936 
L 197.353525 146.137524 
L 197.777255 146.137524 
L 197.777255 146.025687 
L 198.174863 146.025687 
L 198.174863 145.913851 
L 198.907917 145.913851 
L 198.907917 145.802015 
L 199.973557 145.802015 
L 199.973557 145.690178 
L 200.366088 145.690178 
L 200.366088 145.578342 
L 200.667352 145.578342 
L 200.667352 145.466505 
L 201.675545 145.466505 
L 201.710172 145.130996 
L 202.916472 145.130996 
L 202.924532 144.907323 
L 204.586148 144.907323 
L 204.586148 144.795487 
L 204.710066 144.795487 
L 204.710066 144.68365 
L 206.013901 144.68365 
L 206.013901 144.571814 
L 206.58987 144.571814 
L 206.58987 144.459977 
L 208.201417 144.459977 
L 208.201417 144.348141 
L 208.47488 144.348141 
L 208.47488 144.236304 
L 208.738316 144.236304 
L 208.815708 143.229776 
L 208.855701 143.229776 
L 208.952439 142.446921 
L 209.014746 142.446921 
L 209.119028 141.664066 
L 209.16673 141.664066 
L 209.242221 140.769374 
L 209.546396 140.769374 
L 209.546396 140.657538 
L 210.046127 140.657538 
L 210.046127 140.545702 
L 210.170804 140.545702 
L 210.170804 140.433865 
L 211.278784 140.433865 
L 211.278784 140.322029 
L 211.539477 140.322029 
L 211.597957 140.098356 
L 212.338297 140.098356 
L 212.338297 139.986519 
L 215.929236 139.986519 
L 215.929236 139.874683 
L 216.100434 139.874683 
L 216.100434 139.762846 
L 218.244732 139.762846 
L 218.355088 139.539173 
L 218.358372 139.539173 
L 218.428812 139.203664 
L 218.507104 139.203664 
L 218.617411 138.532645 
L 218.635189 138.532645 
L 218.69968 137.973463 
L 218.770341 137.973463 
L 218.770341 137.861627 
L 218.899667 137.861627 
L 218.899667 137.74979 
L 219.690809 137.74979 
L 219.690809 137.637954 
L 220.378675 137.637954 
L 220.378675 137.526117 
L 221.135303 137.526117 
L 221.135303 137.414281 
L 221.254996 137.414281 
L 221.353188 137.190608 
L 221.795634 137.190608 
L 221.795634 137.078772 
L 223.187871 137.078772 
L 223.19035 136.855099 
L 223.485227 136.855099 
L 223.485227 136.743262 
L 224.428529 136.743262 
L 224.521679 136.295916 
L 224.551472 136.295916 
L 224.65762 135.065716 
L 224.682634 135.065716 
L 224.789107 134.61837 
L 224.810548 134.61837 
L 224.901656 133.947351 
L 226.9568 133.947351 
L 226.9568 133.835515 
L 227.093618 133.835515 
L 227.093618 133.723678 
L 228.05473 133.723678 
L 228.05473 133.611842 
L 229.070884 133.611842 
L 229.16043 132.605314 
L 229.202409 132.605314 
L 229.301699 131.822459 
L 229.324264 131.822459 
L 229.336402 131.598786 
L 229.478817 131.598786 
L 229.478817 131.486949 
L 230.262634 131.486949 
L 230.262634 131.375113 
L 232.626685 131.375113 
L 232.723747 130.815931 
L 232.739397 130.815931 
L 232.826632 129.697566 
L 232.857025 129.697566 
L 232.900048 129.362057 
L 232.996984 129.362057 
L 232.996984 129.25022 
L 235.602822 129.25022 
L 235.706042 128.355529 
L 235.717407 128.355529 
L 235.816971 127.572674 
L 235.828856 127.572674 
L 235.904728 127.237164 
L 236.345567 127.237164 
L 236.443861 127.013491 
L 238.214053 127.013491 
L 238.320244 126.342473 
L 238.334114 126.342473 
L 238.41301 126.006963 
L 238.50477 126.006963 
L 238.50477 125.895127 
L 240.275247 125.895127 
L 240.368558 125.447781 
L 240.422757 125.447781 
L 240.499436 124.553089 
L 240.549163 124.553089 
L 240.650878 123.882071 
L 242.31342 123.882071 
L 242.423869 123.322888 
L 242.436816 123.322888 
L 242.529992 122.428197 
L 242.561742 122.428197 
L 242.618264 121.980851 
L 243.262771 121.980851 
L 243.262771 121.869015 
L 244.11003 121.869015 
L 244.213926 120.638814 
L 244.279815 120.638814 
L 244.279815 120.526977 
L 245.27401 120.526977 
L 245.27401 120.415141 
L 245.664241 120.415141 
L 245.767512 119.632286 
L 245.805456 119.632286 
L 245.916146 118.737594 
L 246.18166 118.737594 
L 246.18166 118.625758 
L 247.044393 118.625758 
L 247.14956 118.290248 
L 247.179051 118.290248 
L 247.277298 117.61923 
L 247.295599 117.61923 
L 247.295599 117.507393 
L 248.447819 117.507393 
L 248.55525 116.724538 
L 248.574222 116.724538 
L 248.645111 116.053519 
L 249.739704 116.053519 
L 249.848579 115.046991 
L 249.933512 115.046991 
L 249.938218 114.823318 
L 250.889131 114.823318 
L 250.986066 114.375973 
L 251.01752 114.375973 
L 251.029791 114.1523 
L 252.016366 114.1523 
L 252.120523 113.593118 
L 252.151579 113.593118 
L 252.172481 113.369445 
L 252.959684 113.369445 
L 253.041499 112.922099 
L 253.076817 112.922099 
L 253.107715 112.698426 
L 253.982906 112.698426 
L 254.043953 112.362917 
L 254.09596 112.362917 
L 254.123442 112.139244 
L 254.950187 112.139244 
L 255.006536 111.915571 
L 255.708552 111.915571 
L 255.804522 111.580061 
L 255.820496 111.580061 
L 255.915476 110.909043 
L 256.594453 110.909043 
L 256.675726 110.349861 
L 257.332847 110.349861 
L 257.399028 110.126188 
L 258.167944 110.126188 
L 258.261946 109.678842 
L 258.819778 109.678842 
L 258.909671 109.343332 
L 258.984121 109.343332 
L 258.984121 109.231496 
L 259.551812 109.231496 
L 259.637669 108.560477 
L 260.244183 108.560477 
L 260.344647 108.001295 
L 260.903387 108.001295 
L 260.957862 107.777622 
L 261.538109 107.777622 
L 261.601756 107.442113 
L 262.118078 107.442113 
L 262.150096 107.106604 
L 262.627839 107.106604 
L 262.702394 106.547421 
L 262.750099 106.547421 
L 262.750099 106.435585 
L 263.239186 106.435585 
L 263.284584 106.100075 
L 263.746379 106.100075 
L 263.84118 105.764566 
L 263.857705 105.764566 
L 263.869449 105.540893 
L 264.340327 105.540893 
L 264.348807 105.31722 
L 264.803604 105.31722 
L 264.803604 105.205384 
L 265.381968 105.205384 
L 265.381968 105.093547 
L 266.255052 105.093547 
L 266.255052 104.981711 
L 266.764332 104.981711 
L 266.766002 104.758038 
L 267.147894 104.758038 
L 267.176494 104.422529 
L 267.265254 104.422529 
L 267.265254 104.310692 
L 268.036546 104.310692 
L 268.036546 104.198856 
L 268.451355 104.198856 
L 268.45367 103.975183 
L 268.796628 103.975183 
L 268.865866 103.75151 
L 269.597722 103.75151 
L 269.597722 103.639674 
L 269.962728 103.639674 
L 269.96868 103.416001 
L 270.382247 103.416001 
L 270.382247 103.304164 
L 271.338414 103.304164 
L 271.388622 103.080491 
L 272.113438 103.080491 
L 272.113438 102.968655 
L 272.698284 102.968655 
L 272.698284 102.856818 
L 274.23448 102.856818 
L 274.23448 102.744982 
L 274.769899 102.744982 
L 274.769899 102.633146 
L 281.689463 102.633146 
L 281.689463 102.521309 
L 333.168 102.521309 
L 333.168 102.521309 
" style="fill:none;stroke:#000080;stroke-linecap:square;stroke-width:1.5;"/>
   </g>
   <g id="line2d_44">
    <defs>
     <path d="M 0 6 
C 1.591219 6 3.117479 5.367802 4.242641 4.242641 
C 5.367802 3.117479 6 1.591219 6 0 
C 6 -1.591219 5.367802 -3.117479 4.242641 -4.242641 
C 3.117479 -5.367802 1.591219 -6 0 -6 
C -1.591219 -6 -3.117479 -5.367802 -4.242641 -4.242641 
C -5.367802 -3.117479 -6 -1.591219 -6 0 
C -6 1.591219 -5.367802 3.117479 -4.242641 4.242641 
C -3.117479 5.367802 -1.591219 6 0 6 
z
" id="mb2a104a6b1" style="stroke:#000080;stroke-width:1.5;"/>
    </defs>
    <g>
     <use style="fill:none;stroke:#000080;stroke-width:1.5;" x="93.105847" xlink:href="#mb2a104a6b1" y="271.170673"/>
     <use style="fill:none;stroke:#000080;stroke-width:1.5;" x="159.554642" xlink:href="#mb2a104a6b1" y="194.227197"/>
     <use style="fill:none;stroke:#000080;stroke-width:1.5;" x="197.353525" xlink:href="#mb2a104a6b1" y="146.24936"/>
     <use style="fill:none;stroke:#000080;stroke-width:1.5;" x="281.689463" xlink:href="#mb2a104a6b1" y="102.633146"/>
     <use style="fill:none;stroke:#000080;stroke-width:1.5;" x="281.689463" xlink:href="#mb2a104a6b1" y="102.521309"/>
     <use style="fill:none;stroke:#000080;stroke-width:1.5;" x="333.168" xlink:href="#mb2a104a6b1" y="102.521309"/>
    </g>
   </g>
   <g id="line2d_45">
    <path style="fill:none;stroke:#000080;stroke-linecap:square;stroke-width:1.5;"/>
    <g/>
   </g>
   <g id="line2d_46">
    <path clip-path="url(#p17e582e92a)" d="M 202.034987 145.130996 
" style="fill:none;stroke:#000080;stroke-linecap:square;stroke-width:1.5;"/>
    <defs>
     <path d="M -12 12 
L 12 -12 
M -12 -12 
L 12 12 
" id="m1d4fb6d521" style="stroke:#000080;"/>
    </defs>
    <g clip-path="url(#p17e582e92a)">
     <use style="fill:#000080;stroke:#000080;" x="202.034987" xlink:href="#m1d4fb6d521" y="145.130996"/>
    </g>
   </g>
   <g id="line2d_47">
    <defs>
     <path d="M 0 1.5 
C 0.397805 1.5 0.77937 1.341951 1.06066 1.06066 
C 1.341951 0.77937 1.5 0.397805 1.5 0 
C 1.5 -0.397805 1.341951 -0.77937 1.06066 -1.06066 
C 0.77937 -1.341951 0.397805 -1.5 0 -1.5 
C -0.397805 -1.5 -0.77937 -1.341951 -1.06066 -1.06066 
C -1.341951 -0.77937 -1.5 -0.397805 -1.5 0 
C -1.5 0.397805 -1.341951 0.77937 -1.06066 1.06066 
C -0.77937 1.341951 -0.397805 1.5 0 1.5 
z
" id="mb65b1a0174" style="stroke:#ff00ff;"/>
    </defs>
    <g>
     <use style="fill:#ff00ff;stroke:#ff00ff;" x="205.950386" xlink:href="#mb65b1a0174" y="185.280281"/>
     <use style="fill:#ff00ff;stroke:#ff00ff;" x="205.950386" xlink:href="#mb65b1a0174" y="185.280281"/>
    </g>
   </g>
   <g id="line2d_48">
    <path d="M 28.455965 294.88 
L 28.455965 284.591047 
L 68.034251 284.591047 
L 68.034251 284.47921 
L 79.948502 284.47921 
L 79.948502 284.367374 
L 80.787138 284.367374 
L 80.787138 284.255537 
L 81.586754 284.255537 
L 81.586754 284.143701 
L 82.350819 284.143701 
L 82.350819 283.920028 
L 83.784035 283.920028 
L 83.784035 283.808192 
L 85.732 283.808192 
L 85.732 283.696355 
L 86.917893 283.696355 
L 86.917893 283.584519 
L 87.481505 283.584519 
L 87.481505 283.472682 
L 88.027221 283.472682 
L 88.027221 283.360846 
L 89.567532 283.360846 
L 89.567532 283.249009 
L 90.05175 283.249009 
L 90.05175 283.025336 
L 90.981092 283.025336 
L 90.981092 282.9135 
L 92.287186 282.9135 
L 92.287186 282.801664 
L 94.996612 282.801664 
L 94.996612 282.689827 
L 95.351029 282.689827 
L 95.351029 282.577991 
L 96.038666 282.577991 
L 96.038666 282.466154 
L 97.336537 282.466154 
L 97.336537 282.242481 
L 97.950482 282.242481 
L 97.950482 282.018808 
L 98.249422 282.018808 
L 98.249422 281.906972 
L 98.543252 281.906972 
L 98.543252 281.571463 
L 98.832144 281.571463 
L 98.832144 281.459626 
L 99.395756 281.459626 
L 99.395756 281.235953 
L 99.941473 281.235953 
L 99.941473 280.788608 
L 100.207968 280.788608 
L 100.207968 280.341262 
L 100.470395 280.341262 
L 100.470395 280.117589 
L 100.728876 280.117589 
L 100.728876 277.992696 
L 100.983527 277.992696 
L 100.983527 277.769023 
L 101.23446 277.769023 
L 101.23446 277.433514 
L 101.481783 277.433514 
L 101.481783 277.098005 
L 101.725597 277.098005 
L 101.725597 276.538822 
L 102.20309 276.538822 
L 102.20309 276.426986 
L 102.436953 276.426986 
L 102.436953 276.203313 
L 103.120034 276.203313 
L 103.120034 276.091477 
L 104.409787 276.091477 
L 104.409787 275.97964 
L 108.775496 275.97964 
L 108.775496 275.867804 
L 111.989488 275.867804 
L 111.989488 275.755967 
L 112.122219 275.755967 
L 112.122219 275.644131 
L 112.514373 275.644131 
L 112.514373 275.532294 
L 113.518374 275.532294 
L 113.518374 275.420458 
L 113.639848 275.420458 
L 113.639848 275.308622 
L 113.880253 275.308622 
L 113.880253 274.973112 
L 113.999206 274.973112 
L 113.999206 274.190257 
L 114.23467 274.190257 
L 114.23467 274.078421 
L 114.581927 274.078421 
L 114.581927 273.854748 
L 115.365909 273.854748 
L 115.365909 273.742911 
L 115.58349 273.742911 
L 115.691256 273.407402 
L 115.798351 273.407402 
L 115.904782 273.071893 
L 116.010559 273.071893 
L 116.115688 272.736383 
L 116.220179 272.736383 
L 116.324038 272.289037 
L 116.631902 272.289037 
L 116.73331 271.841692 
L 116.834124 271.841692 
L 116.934349 271.506182 
L 117.426894 271.506182 
L 117.523731 271.170673 
L 117.620026 271.170673 
L 117.620026 271.058837 
L 118.186736 271.058837 
L 118.279397 270.723327 
L 118.463235 270.723327 
L 118.463235 270.611491 
L 118.825114 270.611491 
L 118.914406 270.164145 
L 119.09161 270.164145 
L 119.09161 269.828636 
L 119.267005 269.828636 
L 119.354037 269.04578 
L 119.526788 269.04578 
L 119.526788 268.933944 
L 120.118102 268.933944 
L 120.118102 268.710271 
L 120.528351 268.710271 
L 120.609239 268.486598 
L 120.929036 268.486598 
L 120.929036 268.374762 
L 121.086731 268.374762 
L 121.086731 268.262925 
L 121.627542 268.262925 
L 121.627542 268.151089 
L 122.151854 268.151089 
L 122.151854 268.039252 
L 123.430938 268.039252 
L 123.430938 267.927416 
L 123.836987 267.927416 
L 123.836987 267.81558 
L 123.970233 267.81558 
L 123.970233 267.703743 
L 124.168185 267.703743 
L 124.168185 267.591907 
L 124.298898 267.591907 
L 124.298898 267.48007 
L 125.125128 267.48007 
L 125.187069 267.256397 
L 125.432625 267.256397 
L 125.432625 267.144561 
L 125.734717 267.144561 
L 125.734717 267.032724 
L 126.090357 267.032724 
L 126.090357 266.920888 
L 126.438787 266.920888 
L 126.496178 266.697215 
L 126.723846 266.697215 
L 126.723846 266.585379 
L 127.497741 266.585379 
L 127.551708 266.361706 
L 127.659138 266.361706 
L 127.659138 266.138033 
L 127.819033 266.138033 
L 127.872003 265.802523 
L 127.977455 265.802523 
L 128.082264 265.467014 
L 128.238289 265.467014 
L 128.341524 264.795995 
L 128.698042 264.795995 
L 128.698042 264.684159 
L 128.948245 264.684159 
L 128.948245 264.572323 
L 129.243759 264.572323 
L 129.243759 264.460486 
L 129.437982 264.460486 
L 129.437982 264.34865 
L 129.630036 264.34865 
L 129.630036 264.236813 
L 129.867125 264.236813 
L 129.867125 264.124977 
L 130.33171 264.124977 
L 130.33171 264.01314 
L 130.468672 264.01314 
L 130.468672 263.901304 
L 131.181257 263.901304 
L 131.181257 263.789467 
L 131.612072 263.789467 
L 131.612072 263.677631 
L 131.823497 263.677631 
L 131.907344 263.230285 
L 131.990784 263.230285 
L 132.032353 262.894776 
L 132.11519 262.894776 
L 132.156459 262.44743 
L 132.442602 262.44743 
L 132.442602 262.111921 
L 132.803637 262.111921 
L 132.803637 262.000084 
L 133.118312 262.000084 
L 133.157244 261.776411 
L 133.350594 261.776411 
L 133.350594 261.664575 
L 133.880682 261.664575 
L 133.955092 261.440902 
L 134.066106 261.440902 
L 134.066106 261.329066 
L 134.213018 261.329066 
L 134.213018 261.105393 
L 134.574897 261.105393 
L 134.574897 260.993556 
L 134.717542 260.993556 
L 134.788423 260.54621 
L 134.999329 260.54621 
L 134.999329 260.434374 
L 135.24216 260.434374 
L 135.276571 260.210701 
L 135.447604 260.210701 
L 135.549413 259.987028 
L 135.717765 259.987028 
L 135.784647 259.651519 
L 135.884484 259.651519 
L 135.884484 259.539682 
L 136.115208 259.539682 
L 136.115208 259.092337 
L 136.852205 259.092337 
L 136.852205 258.9805 
L 138.033915 258.9805 
L 138.033915 258.868664 
L 138.179706 258.868664 
L 138.179706 258.756827 
L 138.295455 258.756827 
L 138.295455 258.644991 
L 138.410429 258.644991 
L 138.496158 258.309481 
L 138.52464 258.309481 
L 138.52464 258.197645 
L 138.666344 258.197645 
L 138.7227 257.750299 
L 139.112104 257.750299 
L 139.22176 257.526626 
L 139.303546 257.526626 
L 139.357855 257.302953 
L 140.100689 257.302953 
L 140.100689 257.191117 
L 140.612293 257.191117 
L 140.612293 257.079281 
L 140.936852 257.079281 
L 140.936852 256.967444 
L 141.206772 256.967444 
L 141.206772 256.855608 
L 141.448529 256.855608 
L 141.496475 256.631935 
L 141.615758 256.631935 
L 141.615758 256.520098 
L 141.781376 256.520098 
L 141.781376 256.408262 
L 141.96872 256.408262 
L 141.96872 256.184589 
L 142.084781 256.184589 
L 142.084781 256.072752 
L 142.200064 256.072752 
L 142.200064 255.960916 
L 142.314579 255.960916 
L 142.314579 255.84908 
L 142.675983 255.84908 
L 142.742908 255.51357 
L 142.831738 255.51357 
L 142.942135 255.066224 
L 142.986095 255.066224 
L 142.986095 254.954388 
L 143.117307 254.954388 
L 143.139078 254.395206 
L 143.247524 254.395206 
L 143.35529 253.94786 
L 143.376763 253.94786 
L 143.441019 253.500514 
L 143.590024 253.500514 
L 143.65349 252.941332 
L 143.716722 252.941332 
L 143.779723 252.605823 
L 143.863366 252.605823 
L 143.905035 252.158477 
L 143.988072 252.158477 
L 144.07071 250.704603 
L 144.152952 250.704603 
L 144.152952 250.369094 
L 144.437741 250.369094 
L 144.538318 249.921748 
L 144.678145 249.921748 
L 144.77733 249.362566 
L 144.973998 249.362566 
L 144.973998 249.250729 
L 145.110339 249.250729 
L 145.129729 249.027056 
L 145.37982 249.027056 
L 145.37982 248.91522 
L 145.531932 248.91522 
L 145.531932 248.803383 
L 145.794933 248.803383 
L 145.813566 248.57971 
L 146.035596 248.57971 
L 146.05397 248.244201 
L 146.218456 248.244201 
L 146.218456 248.132365 
L 146.34531 248.132365 
L 146.381382 247.908692 
L 146.702675 247.908692 
L 146.702675 247.796855 
L 146.896104 247.796855 
L 147.0007 247.461346 
L 147.018071 247.461346 
L 147.018071 247.34951 
L 147.173625 247.34951 
L 147.190823 246.902164 
L 147.446737 246.902164 
L 147.446737 246.790327 
L 147.615255 246.790327 
L 147.66549 246.566654 
L 148.045821 246.566654 
L 148.045821 246.454818 
L 148.176162 246.454818 
L 148.257126 246.007472 
L 148.481817 246.007472 
L 148.481817 245.895636 
L 148.593071 245.895636 
L 148.593071 245.783799 
L 148.875888 245.783799 
L 148.969136 245.560126 
L 149.200066 245.560126 
L 149.200066 245.44829 
L 149.548241 245.44829 
L 149.548241 245.336453 
L 149.815889 245.336453 
L 149.830637 245.000944 
L 150.093957 245.000944 
L 150.093957 244.889108 
L 150.238522 244.889108 
L 150.238522 244.777271 
L 150.594702 244.777271 
L 150.62288 244.441762 
L 151.012598 244.441762 
L 151.108663 244.218089 
L 151.190579 244.218089 
L 151.190579 244.106253 
L 151.312725 244.106253 
L 151.312725 243.994416 
L 151.674041 243.994416 
L 151.674041 243.88258 
L 151.805957 243.88258 
L 151.805957 243.770743 
L 151.936869 243.770743 
L 151.936869 243.658907 
L 152.066791 243.658907 
L 152.118486 243.323397 
L 152.361937 243.323397 
L 152.387364 243.099724 
L 152.61453 243.099724 
L 152.714537 242.652379 
L 152.801568 242.652379 
L 152.801568 242.540542 
L 152.925139 242.540542 
L 153.011113 242.316869 
L 153.338757 242.316869 
L 153.338757 242.205033 
L 153.482395 242.205033 
L 153.482395 242.093196 
L 153.812956 242.093196 
L 153.812956 241.98136 
L 154.251642 241.98136 
L 154.331245 241.645851 
L 154.376568 241.645851 
L 154.455596 241.198505 
L 155.020662 241.198505 
L 155.020662 241.086668 
L 155.204963 241.086668 
L 155.31246 240.862996 
L 155.355271 240.862996 
L 155.451207 240.41565 
L 155.514869 240.41565 
L 155.609922 240.191977 
L 155.630973 240.191977 
L 155.630973 240.08014 
L 155.746298 240.08014 
L 155.746298 239.968304 
L 155.871232 239.968304 
L 155.871232 239.856467 
L 156.005559 239.856467 
L 156.005559 239.744631 
L 156.149054 239.744631 
L 156.189834 239.520958 
L 156.311596 239.520958 
L 156.382227 238.849939 
L 156.432501 238.849939 
L 156.492636 238.51443 
L 156.562529 238.51443 
L 156.651976 238.178921 
L 156.701468 238.178921 
L 156.701468 238.067084 
L 156.819671 238.067084 
L 156.917557 237.731575 
L 157.034288 237.731575 
L 157.111671 236.94872 
L 157.188707 236.94872 
L 157.265399 236.613211 
L 157.313159 236.613211 
L 157.351271 236.165865 
L 157.474555 236.165865 
L 157.578187 235.830355 
L 157.596962 235.830355 
L 157.690531 235.159337 
L 157.718503 235.159337 
L 157.802146 234.600154 
L 157.829937 234.600154 
L 157.940653 233.929136 
L 157.986575 233.929136 
L 158.059796 233.705463 
L 158.105402 233.705463 
L 158.178119 233.369954 
L 158.358579 233.369954 
L 158.367553 233.146281 
L 158.528279 233.146281 
L 158.528279 233.034444 
L 158.705118 233.034444 
L 158.713912 232.810771 
L 158.923639 232.810771 
L 159.018915 232.587098 
L 159.113666 232.587098 
L 159.113666 232.475262 
L 159.386372 232.475262 
L 159.428594 232.251589 
L 159.688082 232.251589 
L 159.696387 232.027916 
L 159.869886 232.027916 
L 159.951893 231.692407 
L 160.017218 231.692407 
L 160.098527 231.356897 
L 160.139037 231.356897 
L 160.139037 231.245061 
L 160.372134 231.245061 
L 160.475609 230.909552 
L 160.657167 230.909552 
L 160.657167 230.797715 
L 160.829054 230.797715 
L 160.829054 230.685879 
L 160.945273 230.685879 
L 161.022317 230.238533 
L 161.205828 230.238533 
L 161.236223 230.01486 
L 161.319534 230.01486 
L 161.327088 229.791187 
L 161.574519 229.791187 
L 161.663618 229.567514 
L 161.693215 229.567514 
L 161.744888 229.232005 
L 161.891675 229.232005 
L 161.891675 229.120168 
L 162.029971 229.120168 
L 162.073413 228.896496 
L 162.28185 228.896496 
L 162.381577 228.44915 
L 162.452458 228.44915 
L 162.452458 228.337313 
L 162.572289 228.337313 
L 162.67035 228.11364 
L 162.733095 228.11364 
L 162.844079 227.889968 
L 162.878615 227.889968 
L 162.878615 227.778131 
L 163.036594 227.778131 
L 163.145642 227.554458 
L 163.213447 227.554458 
L 163.213447 227.442622 
L 163.468695 227.442622 
L 163.502 227.218949 
L 163.601529 227.218949 
L 163.693906 226.771603 
L 163.922699 226.771603 
L 164.026284 226.436094 
L 164.058527 226.436094 
L 164.148486 225.765075 
L 164.186897 225.765075 
L 164.295262 225.541402 
L 164.409262 225.541402 
L 164.503688 224.98222 
L 164.641248 224.98222 
L 164.740605 224.646711 
L 164.765354 224.646711 
L 164.870145 224.311201 
L 164.894709 224.311201 
L 164.9743 223.752019 
L 165.053524 223.752019 
L 165.083898 223.304673 
L 165.222932 223.304673 
L 165.307013 223.081 
L 165.37279 223.081 
L 165.450203 222.633654 
L 165.515435 222.633654 
L 165.515435 222.521818 
L 165.645161 222.521818 
L 165.750577 221.850799 
L 165.837933 221.850799 
L 165.837933 221.738963 
L 166.114524 221.738963 
L 166.114524 221.627126 
L 166.549131 221.627126 
L 166.549131 221.51529 
L 166.776138 221.51529 
L 166.776138 221.403454 
L 167.1999 221.403454 
L 167.1999 221.291617 
L 167.365459 221.291617 
L 167.42912 220.844271 
L 167.534702 220.844271 
L 167.534702 220.732435 
L 167.655324 220.732435 
L 167.754334 220.508762 
L 167.801036 220.508762 
L 167.852778 220.173253 
L 167.924955 220.173253 
L 167.924955 220.061416 
L 168.149847 220.061416 
L 168.149847 219.837743 
L 168.346752 219.837743 
L 168.401884 219.61407 
L 168.669997 219.61407 
L 168.719191 219.166725 
L 168.81716 219.166725 
L 168.909717 218.831215 
L 168.967918 218.831215 
L 168.967918 218.719379 
L 169.112563 218.719379 
L 169.112563 218.607542 
L 169.232178 218.607542 
L 169.336756 218.04836 
L 169.346231 218.04836 
L 169.454826 217.601014 
L 169.511213 217.601014 
L 169.614111 217.377341 
L 169.623435 217.377341 
L 169.642068 217.153669 
L 169.781173 217.153669 
L 169.891652 216.929996 
L 169.937476 216.929996 
L 169.96948 216.48265 
L 170.065137 216.48265 
L 170.151228 216.258977 
L 170.191858 216.258977 
L 170.27283 215.811631 
L 170.313174 215.811631 
L 170.384663 215.587958 
L 170.44253 215.587958 
L 170.48691 215.364285 
L 170.57533 215.364285 
L 170.672068 215.028776 
L 170.720234 215.028776 
L 170.720234 214.91694 
L 171.023622 214.91694 
L 171.113603 214.469594 
L 171.279473 214.469594 
L 171.279473 214.357757 
L 171.498171 214.357757 
L 171.498171 214.245921 
L 171.693475 214.245921 
L 171.705867 214.022248 
L 172.10581 214.022248 
L 172.210374 213.463066 
L 172.282393 213.463066 
L 172.346158 213.127556 
L 172.41365 213.127556 
L 172.41365 213.01572 
L 172.591037 213.01572 
L 172.696597 212.680211 
L 172.774374 212.680211 
L 172.863384 212.232865 
L 172.990295 212.232865 
L 173.097247 212.009192 
L 173.104861 212.009192 
L 173.104861 211.897355 
L 173.241339 211.897355 
L 173.279059 211.673683 
L 173.35425 211.673683 
L 173.421641 211.45001 
L 173.600072 211.45001 
L 173.703307 210.778991 
L 173.827836 210.778991 
L 173.827836 210.667155 
L 173.994894 210.667155 
L 174.023782 210.219809 
L 174.253159 210.219809 
L 174.341934 209.884299 
L 174.789416 209.884299 
L 174.851419 209.660626 
L 174.916625 209.660626 
L 174.926898 209.436954 
L 175.083655 209.436954 
L 175.107385 209.101444 
L 175.265869 209.101444 
L 175.2927 208.877771 
L 175.389613 208.877771 
L 175.466088 208.542262 
L 175.618025 208.542262 
L 175.713126 208.206753 
L 175.736003 208.206753 
L 175.827207 207.759407 
L 176.062738 207.759407 
L 176.120321 207.312061 
L 176.291923 207.312061 
L 176.291923 207.200225 
L 176.411661 207.200225 
L 176.461828 206.752879 
L 176.583502 206.752879 
L 176.583502 206.529206 
L 176.796682 206.529206 
L 176.888551 206.193697 
L 176.943438 206.193697 
L 176.99815 205.970024 
L 177.101021 205.970024 
L 177.182277 205.410841 
L 177.290025 205.410841 
L 177.293008 205.187169 
L 177.693996 205.187169 
L 177.755088 204.851659 
L 178.045915 204.851659 
L 178.071593 204.627986 
L 178.210727 204.627986 
L 178.216382 204.404313 
L 178.365568 204.404313 
L 178.365568 204.292477 
L 178.802779 204.292477 
L 178.884551 204.068804 
L 179.011885 204.068804 
L 179.063094 203.845131 
L 179.215811 203.845131 
L 179.31157 203.285949 
L 179.377757 203.285949 
L 179.480501 202.503094 
L 179.506748 202.503094 
L 179.587857 202.055748 
L 179.629571 202.055748 
L 179.684167 201.832075 
L 179.787682 201.832075 
L 179.872615 201.608402 
L 180.015791 201.608402 
L 180.033604 201.384729 
L 180.145153 201.384729 
L 180.238398 201.161056 
L 180.351128 201.161056 
L 180.351128 201.04922 
L 180.478 201.04922 
L 180.566996 200.601874 
L 180.591636 200.601874 
L 180.591636 200.490038 
L 180.738737 200.490038 
L 180.738737 200.378201 
L 180.978734 200.378201 
L 181.024414 200.042692 
L 181.258114 200.042692 
L 181.331383 199.819019 
L 181.651496 199.819019 
L 181.700041 199.595346 
L 181.865451 199.595346 
L 181.945286 199.259837 
L 182.058698 199.259837 
L 182.094833 199.036164 
L 182.198298 199.036164 
L 182.198298 198.924327 
L 182.310058 198.924327 
L 182.381205 198.700655 
L 182.458686 198.700655 
L 182.524821 198.476982 
L 182.619174 198.476982 
L 182.619174 198.365145 
L 182.890551 198.365145 
L 182.96363 197.805963 
L 183.002194 197.805963 
L 183.104609 197.58229 
L 183.15983 197.58229 
L 183.263421 197.246781 
L 183.307626 197.246781 
L 183.337034 197.023108 
L 183.497881 197.023108 
L 183.497881 196.911271 
L 183.782441 196.911271 
L 183.88439 196.575762 
L 183.959445 196.575762 
L 183.971586 196.128416 
L 184.680863 196.128416 
L 184.680863 196.01658 
L 184.877704 196.01658 
L 184.877704 195.904743 
L 185.068521 195.904743 
L 185.068521 195.792907 
L 185.208374 195.792907 
L 185.313458 195.457398 
L 185.414184 195.457398 
L 185.414184 195.345561 
L 185.562331 195.345561 
L 185.663446 194.898215 
L 185.842154 194.898215 
L 185.842154 194.786379 
L 186.104993 194.786379 
L 186.162069 194.45087 
L 186.307465 194.45087 
L 186.307465 194.339033 
L 186.634511 194.339033 
L 186.634511 194.227197 
L 187.074064 194.227197 
L 187.171726 193.891687 
L 187.268838 193.891687 
L 187.358761 193.668014 
L 187.393604 193.668014 
L 187.393604 193.556178 
L 187.509242 193.556178 
L 187.532276 193.332505 
L 187.655152 193.332505 
L 187.726833 193.108832 
L 187.885419 193.108832 
L 187.885419 192.996996 
L 188.099919 192.996996 
L 188.133294 192.773323 
L 188.231451 192.773323 
L 188.264572 192.437813 
L 188.530364 192.437813 
L 188.626287 192.102304 
L 188.647873 192.102304 
L 188.746208 191.878631 
L 188.836365 191.878631 
L 188.907848 191.654958 
L 189.036376 191.654958 
L 189.083013 191.319449 
L 189.51327 191.319449 
L 189.51327 191.207613 
L 189.657719 191.207613 
L 189.733108 190.872103 
L 190.099508 190.872103 
L 190.099508 190.760267 
L 190.299427 190.760267 
L 190.299427 190.64843 
L 190.4305 190.64843 
L 190.4305 190.536594 
L 190.559203 190.536594 
L 190.628001 190.312921 
L 190.76069 190.312921 
L 190.76069 190.201085 
L 191.03645 190.201085 
L 191.107375 189.865575 
L 191.151388 189.865575 
L 191.151388 189.753739 
L 191.413129 189.753739 
L 191.490358 189.530066 
L 191.673529 189.530066 
L 191.69161 189.194556 
L 191.793283 189.194556 
L 191.793283 189.08272 
L 192.289083 189.08272 
L 192.307774 188.859047 
L 192.487411 188.859047 
L 192.487411 188.747211 
L 192.741862 188.747211 
L 192.849598 188.411701 
L 193.010544 188.411701 
L 193.010544 188.299865 
L 193.528668 188.299865 
L 193.528668 188.188028 
L 193.916337 188.188028 
L 193.916337 188.076192 
L 194.10582 188.076192 
L 194.16852 187.852519 
L 194.293237 187.852519 
L 194.293237 187.740683 
L 194.51372 187.740683 
L 194.51372 187.628846 
L 194.631615 187.628846 
L 194.631615 187.51701 
L 195.401733 187.51701 
L 195.401733 187.405173 
L 196.799629 187.405173 
L 196.811132 187.1815 
L 197.043389 187.1815 
L 197.052841 186.957828 
L 197.651776 186.957828 
L 197.651776 186.845991 
L 198.585104 186.845991 
L 198.585104 186.734155 
L 198.717702 186.734155 
L 198.717702 186.622318 
L 198.933346 186.622318 
L 198.933346 186.510482 
L 199.291272 186.510482 
L 199.291272 186.398645 
L 200.247227 186.398645 
L 200.280935 186.063136 
L 200.803117 186.063136 
L 200.803117 185.951299 
L 202.102742 185.951299 
L 202.102742 185.839463 
L 203.957854 185.839463 
L 204.010888 185.61579 
L 204.706434 185.61579 
L 204.706434 185.503954 
L 204.92061 185.503954 
L 204.92061 185.392117 
L 205.950386 185.392117 
L 205.950386 185.280281 
L 333.168 185.280281 
L 333.168 185.280281 
" style="fill:none;stroke:#ff00ff;stroke-linecap:square;stroke-width:1.5;"/>
   </g>
   <g id="line2d_49">
    <defs>
     <path d="M -0 8.485281 
L 5.091169 0 
L 0 -8.485281 
L -5.091169 -0 
z
" id="mf4a3103b5a" style="stroke:#ff00ff;stroke-linejoin:miter;stroke-width:1.5;"/>
    </defs>
    <g>
     <use style="fill:none;stroke:#ff00ff;stroke-linejoin:miter;stroke-width:1.5;" x="108.775496" xlink:href="#mf4a3103b5a" y="275.867804"/>
     <use style="fill:none;stroke:#ff00ff;stroke-linejoin:miter;stroke-width:1.5;" x="158.528279" xlink:href="#mf4a3103b5a" y="233.034444"/>
     <use style="fill:none;stroke:#ff00ff;stroke-linejoin:miter;stroke-width:1.5;" x="205.950386" xlink:href="#mf4a3103b5a" y="185.392117"/>
     <use style="fill:none;stroke:#ff00ff;stroke-linejoin:miter;stroke-width:1.5;" x="205.950386" xlink:href="#mf4a3103b5a" y="185.280281"/>
     <use style="fill:none;stroke:#ff00ff;stroke-linejoin:miter;stroke-width:1.5;" x="205.950386" xlink:href="#mf4a3103b5a" y="185.280281"/>
     <use style="fill:none;stroke:#ff00ff;stroke-linejoin:miter;stroke-width:1.5;" x="333.168" xlink:href="#mf4a3103b5a" y="185.280281"/>
    </g>
   </g>
   <g id="line2d_50">
    <path style="fill:none;stroke:#ff00ff;stroke-linecap:square;stroke-width:1.5;"/>
    <g/>
   </g>
   <g id="line2d_51">
    <path clip-path="url(#p17e582e92a)" d="M 136.914823 258.9805 
" style="fill:none;stroke:#ff00ff;stroke-linecap:square;stroke-width:1.5;"/>
    <defs>
     <path d="M -12 12 
L 12 -12 
M -12 -12 
L 12 12 
" id="m2d6fa43d23" style="stroke:#ff00ff;"/>
    </defs>
    <g clip-path="url(#p17e582e92a)">
     <use style="fill:#ff00ff;stroke:#ff00ff;" x="136.914823" xlink:href="#m2d6fa43d23" y="258.9805"/>
    </g>
   </g>
   <g id="line2d_52">
    <path d="M 333.168 185.280281 
L 363.64328 289.176341 
" style="fill:none;stroke:#ff00ff;stroke-linecap:square;stroke-width:1.5;"/>
    <g>
     <use style="fill:none;stroke:#ff00ff;stroke-linejoin:miter;stroke-width:1.5;" x="333.168" xlink:href="#mf4a3103b5a" y="185.280281"/>
     <use style="fill:none;stroke:#ff00ff;stroke-linejoin:miter;stroke-width:1.5;" x="363.64328" xlink:href="#mf4a3103b5a" y="289.176341"/>
    </g>
   </g>
   <g id="line2d_53">
    <path d="M 333.168 102.521309 
L 363.64328 152.288529 
" style="fill:none;stroke:#000080;stroke-linecap:square;stroke-width:1.5;"/>
    <g>
     <use style="fill:none;stroke:#000080;stroke-width:1.5;" x="333.168" xlink:href="#mb2a104a6b1" y="102.521309"/>
     <use style="fill:none;stroke:#000080;stroke-width:1.5;" x="363.64328" xlink:href="#mb2a104a6b1" y="152.288529"/>
    </g>
   </g>
   <g id="line2d_54">
    <path d="M 333.168 294.88 
L 333.168 9.697057 
" style="fill:none;stroke:#000000;stroke-linecap:square;stroke-width:1.5;"/>
   </g>
   <g id="patch_3">
    <path d="M 56.12 294.88 
L 56.12 6.845228 
" style="fill:none;stroke:#000000;stroke-linecap:square;stroke-linejoin:miter;stroke-width:0.8;"/>
   </g>
   <g id="patch_4">
    <path d="M 333.168 294.88 
L 333.168 6.845228 
" style="fill:none;stroke:#000000;stroke-linecap:square;stroke-linejoin:miter;stroke-width:0.8;"/>
   </g>
   <g id="patch_5">
    <path d="M 56.12 294.88 
L 333.168 294.88 
" style="fill:none;stroke:#000000;stroke-linecap:square;stroke-linejoin:miter;stroke-width:0.8;"/>
   </g>
   <g id="patch_6">
    <path d="M 56.12 6.845228 
L 333.168 6.845228 
" style="fill:none;stroke:#000000;stroke-linecap:square;stroke-linejoin:miter;stroke-width:0.8;"/>
   </g>
   <g id="text_13">
    <!-- scipy-opt -->
    <defs>
     <path d="M 32.171875 -5.078125 
Q 28.375 -14.84375 24.75 -17.8125 
Q 21.140625 -20.796875 15.09375 -20.796875 
L 7.90625 -20.796875 
L 7.90625 -13.28125 
L 13.1875 -13.28125 
Q 16.890625 -13.28125 18.9375 -11.515625 
Q 21 -9.765625 23.484375 -3.21875 
L 25.09375 0.875 
L 2.984375 54.6875 
L 12.5 54.6875 
L 29.59375 11.921875 
L 46.6875 54.6875 
L 56.203125 54.6875 
z
" id="DejaVuSans-79"/>
    </defs>
    <g transform="translate(369.18424 293.867279)scale(0.17 -0.17)">
     <use xlink:href="#DejaVuSans-73"/>
     <use x="52.099609" xlink:href="#DejaVuSans-63"/>
     <use x="107.080078" xlink:href="#DejaVuSans-69"/>
     <use x="134.863281" xlink:href="#DejaVuSans-70"/>
     <use x="198.339844" xlink:href="#DejaVuSans-79"/>
     <use x="257.503906" xlink:href="#DejaVuSans-2d"/>
     <use x="293.603516" xlink:href="#DejaVuSans-6f"/>
     <use x="354.785156" xlink:href="#DejaVuSans-70"/>
     <use x="418.261719" xlink:href="#DejaVuSans-74"/>
    </g>
   </g>
   <g id="text_14">
    <!-- BFGS ros  -->
    <defs>
     <path d="M 19.671875 34.8125 
L 19.671875 8.109375 
L 35.5 8.109375 
Q 43.453125 8.109375 47.28125 11.40625 
Q 51.125 14.703125 51.125 21.484375 
Q 51.125 28.328125 47.28125 31.5625 
Q 43.453125 34.8125 35.5 34.8125 
z
M 19.671875 64.796875 
L 19.671875 42.828125 
L 34.28125 42.828125 
Q 41.5 42.828125 45.03125 45.53125 
Q 48.578125 48.25 48.578125 53.8125 
Q 48.578125 59.328125 45.03125 62.0625 
Q 41.5 64.796875 34.28125 64.796875 
z
M 9.8125 72.90625 
L 35.015625 72.90625 
Q 46.296875 72.90625 52.390625 68.21875 
Q 58.5 63.53125 58.5 54.890625 
Q 58.5 48.1875 55.375 44.234375 
Q 52.25 40.28125 46.1875 39.3125 
Q 53.46875 37.75 57.5 32.78125 
Q 61.53125 27.828125 61.53125 20.40625 
Q 61.53125 10.640625 54.890625 5.3125 
Q 48.25 0 35.984375 0 
L 9.8125 0 
z
" id="DejaVuSans-42"/>
     <path d="M 59.515625 10.40625 
L 59.515625 29.984375 
L 43.40625 29.984375 
L 43.40625 38.09375 
L 69.28125 38.09375 
L 69.28125 6.78125 
Q 63.578125 2.734375 56.6875 0.65625 
Q 49.8125 -1.421875 42 -1.421875 
Q 24.90625 -1.421875 15.25 8.5625 
Q 5.609375 18.5625 5.609375 36.375 
Q 5.609375 54.25 15.25 64.234375 
Q 24.90625 74.21875 42 74.21875 
Q 49.125 74.21875 55.546875 72.453125 
Q 61.96875 70.703125 67.390625 67.28125 
L 67.390625 56.78125 
Q 61.921875 61.421875 55.765625 63.765625 
Q 49.609375 66.109375 42.828125 66.109375 
Q 29.4375 66.109375 22.71875 58.640625 
Q 16.015625 51.171875 16.015625 36.375 
Q 16.015625 21.625 22.71875 14.15625 
Q 29.4375 6.6875 42.828125 6.6875 
Q 48.046875 6.6875 52.140625 7.59375 
Q 56.25 8.5 59.515625 10.40625 
z
" id="DejaVuSans-47"/>
     <path d="M 53.515625 70.515625 
L 53.515625 60.890625 
Q 47.90625 63.578125 42.921875 64.890625 
Q 37.9375 66.21875 33.296875 66.21875 
Q 25.25 66.21875 20.875 63.09375 
Q 16.5 59.96875 16.5 54.203125 
Q 16.5 49.359375 19.40625 46.890625 
Q 22.3125 44.4375 30.421875 42.921875 
L 36.375 41.703125 
Q 47.40625 39.59375 52.65625 34.296875 
Q 57.90625 29 57.90625 20.125 
Q 57.90625 9.515625 50.796875 4.046875 
Q 43.703125 -1.421875 29.984375 -1.421875 
Q 24.8125 -1.421875 18.96875 -0.25 
Q 13.140625 0.921875 6.890625 3.21875 
L 6.890625 13.375 
Q 12.890625 10.015625 18.65625 8.296875 
Q 24.421875 6.59375 29.984375 6.59375 
Q 38.421875 6.59375 43.015625 9.90625 
Q 47.609375 13.234375 47.609375 19.390625 
Q 47.609375 24.75 44.3125 27.78125 
Q 41.015625 30.8125 33.5 32.328125 
L 27.484375 33.5 
Q 16.453125 35.6875 11.515625 40.375 
Q 6.59375 45.0625 6.59375 53.421875 
Q 6.59375 63.09375 13.40625 68.65625 
Q 20.21875 74.21875 32.171875 74.21875 
Q 37.3125 74.21875 42.625 73.28125 
Q 47.953125 72.359375 53.515625 70.515625 
z
" id="DejaVuSans-53"/>
    </defs>
    <g transform="translate(369.18424 156.979466)scale(0.17 -0.17)">
     <use xlink:href="#DejaVuSans-42"/>
     <use x="68.603516" xlink:href="#DejaVuSans-46"/>
     <use x="126.123047" xlink:href="#DejaVuSans-47"/>
     <use x="203.613281" xlink:href="#DejaVuSans-53"/>
     <use x="267.089844" xlink:href="#DejaVuSans-20"/>
     <use x="298.876953" xlink:href="#DejaVuSans-72"/>
     <use x="339.958984" xlink:href="#DejaVuSans-6f"/>
     <use x="401.140625" xlink:href="#DejaVuSans-73"/>
     <use x="453.240234" xlink:href="#DejaVuSans-20"/>
    </g>
   </g>
   <g id="text_15">
    <!-- best 2009 -->
    <defs>
     <path d="M 48.6875 27.296875 
Q 48.6875 37.203125 44.609375 42.84375 
Q 40.53125 48.484375 33.40625 48.484375 
Q 26.265625 48.484375 22.1875 42.84375 
Q 18.109375 37.203125 18.109375 27.296875 
Q 18.109375 17.390625 22.1875 11.75 
Q 26.265625 6.109375 33.40625 6.109375 
Q 40.53125 6.109375 44.609375 11.75 
Q 48.6875 17.390625 48.6875 27.296875 
z
M 18.109375 46.390625 
Q 20.953125 51.265625 25.265625 53.625 
Q 29.59375 56 35.59375 56 
Q 45.5625 56 51.78125 48.09375 
Q 58.015625 40.1875 58.015625 27.296875 
Q 58.015625 14.40625 51.78125 6.484375 
Q 45.5625 -1.421875 35.59375 -1.421875 
Q 29.59375 -1.421875 25.265625 0.953125 
Q 20.953125 3.328125 18.109375 8.203125 
L 18.109375 0 
L 9.078125 0 
L 9.078125 75.984375 
L 18.109375 75.984375 
z
" id="DejaVuSans-62"/>
     <path d="M 10.984375 1.515625 
L 10.984375 10.5 
Q 14.703125 8.734375 18.5 7.8125 
Q 22.3125 6.890625 25.984375 6.890625 
Q 35.75 6.890625 40.890625 13.453125 
Q 46.046875 20.015625 46.78125 33.40625 
Q 43.953125 29.203125 39.59375 26.953125 
Q 35.25 24.703125 29.984375 24.703125 
Q 19.046875 24.703125 12.671875 31.3125 
Q 6.296875 37.9375 6.296875 49.421875 
Q 6.296875 60.640625 12.9375 67.421875 
Q 19.578125 74.21875 30.609375 74.21875 
Q 43.265625 74.21875 49.921875 64.515625 
Q 56.59375 54.828125 56.59375 36.375 
Q 56.59375 19.140625 48.40625 8.859375 
Q 40.234375 -1.421875 26.421875 -1.421875 
Q 22.703125 -1.421875 18.890625 -0.6875 
Q 15.09375 0.046875 10.984375 1.515625 
z
M 30.609375 32.421875 
Q 37.25 32.421875 41.125 36.953125 
Q 45.015625 41.5 45.015625 49.421875 
Q 45.015625 57.28125 41.125 61.84375 
Q 37.25 66.40625 30.609375 66.40625 
Q 23.96875 66.40625 20.09375 61.84375 
Q 16.21875 57.28125 16.21875 49.421875 
Q 16.21875 41.5 20.09375 36.953125 
Q 23.96875 32.421875 30.609375 32.421875 
z
" id="DejaVuSans-39"/>
    </defs>
    <g transform="translate(369.18424 20.091654)scale(0.17 -0.17)">
     <use xlink:href="#DejaVuSans-62"/>
     <use x="63.476562" xlink:href="#DejaVuSans-65"/>
     <use x="125" xlink:href="#DejaVuSans-73"/>
     <use x="177.099609" xlink:href="#DejaVuSans-74"/>
     <use x="216.308594" xlink:href="#DejaVuSans-20"/>
     <use x="248.095703" xlink:href="#DejaVuSans-32"/>
     <use x="311.71875" xlink:href="#DejaVuSans-30"/>
     <use x="375.341797" xlink:href="#DejaVuSans-30"/>
     <use x="438.964844" xlink:href="#DejaVuSans-39"/>
    </g>
   </g>
   <g id="text_16">
    <!-- bbob f20-f24, 5-D -->
    <defs>
     <path d="M 10.796875 72.90625 
L 49.515625 72.90625 
L 49.515625 64.59375 
L 19.828125 64.59375 
L 19.828125 46.734375 
Q 21.96875 47.46875 24.109375 47.828125 
Q 26.265625 48.1875 28.421875 48.1875 
Q 40.625 48.1875 47.75 41.5 
Q 54.890625 34.8125 54.890625 23.390625 
Q 54.890625 11.625 47.5625 5.09375 
Q 40.234375 -1.421875 26.90625 -1.421875 
Q 22.3125 -1.421875 17.546875 -0.640625 
Q 12.796875 0.140625 7.71875 1.703125 
L 7.71875 11.625 
Q 12.109375 9.234375 16.796875 8.0625 
Q 21.484375 6.890625 26.703125 6.890625 
Q 35.15625 6.890625 40.078125 11.328125 
Q 45.015625 15.765625 45.015625 23.390625 
Q 45.015625 31 40.078125 35.4375 
Q 35.15625 39.890625 26.703125 39.890625 
Q 22.75 39.890625 18.8125 39.015625 
Q 14.890625 38.140625 10.796875 36.28125 
z
" id="DejaVuSans-35"/>
     <path d="M 19.671875 64.796875 
L 19.671875 8.109375 
L 31.59375 8.109375 
Q 46.6875 8.109375 53.6875 14.9375 
Q 60.6875 21.78125 60.6875 36.53125 
Q 60.6875 51.171875 53.6875 57.984375 
Q 46.6875 64.796875 31.59375 64.796875 
z
M 9.8125 72.90625 
L 30.078125 72.90625 
Q 51.265625 72.90625 61.171875 64.09375 
Q 71.09375 55.28125 71.09375 36.53125 
Q 71.09375 17.671875 61.125 8.828125 
Q 51.171875 0 30.078125 0 
L 9.8125 0 
z
" id="DejaVuSans-44"/>
    </defs>
    <g transform="translate(58.89048 17.475982)scale(0.102 -0.102)">
     <use xlink:href="#DejaVuSans-62"/>
     <use x="63.476562" xlink:href="#DejaVuSans-62"/>
     <use x="126.953125" xlink:href="#DejaVuSans-6f"/>
     <use x="188.134766" xlink:href="#DejaVuSans-62"/>
     <use x="251.611328" xlink:href="#DejaVuSans-20"/>
     <use x="283.398438" xlink:href="#DejaVuSans-66"/>
     <use x="318.603516" xlink:href="#DejaVuSans-32"/>
     <use x="382.226562" xlink:href="#DejaVuSans-30"/>
     <use x="445.849609" xlink:href="#DejaVuSans-2d"/>
     <use x="481.933594" xlink:href="#DejaVuSans-66"/>
     <use x="517.138672" xlink:href="#DejaVuSans-32"/>
     <use x="580.761719" xlink:href="#DejaVuSans-34"/>
     <use x="644.384766" xlink:href="#DejaVuSans-2c"/>
     <use x="676.171875" xlink:href="#DejaVuSans-20"/>
     <use x="707.958984" xlink:href="#DejaVuSans-35"/>
     <use x="771.582031" xlink:href="#DejaVuSans-2d"/>
     <use x="807.666016" xlink:href="#DejaVuSans-44"/>
    </g>
    <!-- 51 targets: 100..1e-08 -->
    <defs>
     <path d="M 11.71875 12.40625 
L 22.015625 12.40625 
L 22.015625 0 
L 11.71875 0 
z
M 11.71875 51.703125 
L 22.015625 51.703125 
L 22.015625 39.3125 
L 11.71875 39.3125 
z
" id="DejaVuSans-3a"/>
    </defs>
    <g transform="translate(58.89048 28.89775)scale(0.102 -0.102)">
     <use xlink:href="#DejaVuSans-35"/>
     <use x="63.623047" xlink:href="#DejaVuSans-31"/>
     <use x="127.246094" xlink:href="#DejaVuSans-20"/>
     <use x="159.033203" xlink:href="#DejaVuSans-74"/>
     <use x="198.242188" xlink:href="#DejaVuSans-61"/>
     <use x="259.521484" xlink:href="#DejaVuSans-72"/>
     <use x="300.619141" xlink:href="#DejaVuSans-67"/>
     <use x="364.095703" xlink:href="#DejaVuSans-65"/>
     <use x="425.619141" xlink:href="#DejaVuSans-74"/>
     <use x="464.828125" xlink:href="#DejaVuSans-73"/>
     <use x="516.927734" xlink:href="#DejaVuSans-3a"/>
     <use x="550.619141" xlink:href="#DejaVuSans-20"/>
     <use x="582.40625" xlink:href="#DejaVuSans-31"/>
     <use x="646.029297" xlink:href="#DejaVuSans-30"/>
     <use x="709.652344" xlink:href="#DejaVuSans-30"/>
     <use x="773.275391" xlink:href="#DejaVuSans-2e"/>
     <use x="805.0625" xlink:href="#DejaVuSans-2e"/>
     <use x="836.849609" xlink:href="#DejaVuSans-31"/>
     <use x="900.472656" xlink:href="#DejaVuSans-65"/>
     <use x="961.996094" xlink:href="#DejaVuSans-2d"/>
     <use x="998.080078" xlink:href="#DejaVuSans-30"/>
     <use x="1061.703125" xlink:href="#DejaVuSans-38"/>
    </g>
    <!-- 15 instances -->
    <g transform="translate(58.89048 40.319519)scale(0.102 -0.102)">
     <use xlink:href="#DejaVuSans-31"/>
     <use x="63.623047" xlink:href="#DejaVuSans-35"/>
     <use x="127.246094" xlink:href="#DejaVuSans-20"/>
     <use x="159.033203" xlink:href="#DejaVuSans-69"/>
     <use x="186.816406" xlink:href="#DejaVuSans-6e"/>
     <use x="250.195312" xlink:href="#DejaVuSans-73"/>
     <use x="302.294922" xlink:href="#DejaVuSans-74"/>
     <use x="341.503906" xlink:href="#DejaVuSans-61"/>
     <use x="402.783203" xlink:href="#DejaVuSans-6e"/>
     <use x="466.162109" xlink:href="#DejaVuSans-63"/>
     <use x="521.142578" xlink:href="#DejaVuSans-65"/>
     <use x="582.666016" xlink:href="#DejaVuSans-73"/>
    </g>
   </g>
   <g id="text_17">
    <!-- v0.0.0 -->
    <g style="fill:#808080;" transform="translate(178.96275 289.919965)scale(0.1 -0.1)">
     <use xlink:href="#DejaVuSans-76"/>
     <use x="59.179688" xlink:href="#DejaVuSans-30"/>
     <use x="122.802734" xlink:href="#DejaVuSans-2e"/>
     <use x="154.589844" xlink:href="#DejaVuSans-30"/>
     <use x="218.212891" xlink:href="#DejaVuSans-2e"/>
     <use x="250" xlink:href="#DejaVuSans-30"/>
    </g>
   </g>
  </g>
 </g>
 <defs>
  <clipPath id="p17e582e92a">
   <rect height="288.034772" width="277.048" x="56.12" y="6.845228"/>
  </clipPath>
 </defs>
</svg>
