<?xml version="1.0" encoding="utf-8" standalone="no"?>
<!DOCTYPE svg PUBLIC "-//W3C//DTD SVG 1.1//EN"
  "http://www.w3.org/Graphics/SVG/1.1/DTD/svg11.dtd">
<!-- Created with matplotlib (http://matplotlib.org/) -->
<svg height="345pt" version="1.1" viewBox="0 0 460 345" width="460pt" xmlns="http://www.w3.org/2000/svg" xmlns:xlink="http://www.w3.org/1999/xlink">
 <defs>
  <style type="text/css">
*{stroke-linecap:butt;stroke-linejoin:round;}
  </style>
 </defs>
 <g id="figure_1">
  <g id="patch_1">
   <path d="M 0 345.6 
L 460.8 345.6 
L 460.8 0 
L 0 0 
z
" style="fill:#ffffff;"/>
  </g>
  <g id="axes_1">
   <g id="patch_2">
    <path d="M 59.72 291.28 
L 450.672 291.28 
L 450.672 6.845228 
L 59.72 6.845228 
z
" style="fill:#ffffff;"/>
   </g>
   <g id="line2d_1"/>
   <g id="line2d_2"/>
   <g id="line2d_3">
    <path clip-path="url(#pd57fc29af0)" d="M 207.801992 291.28 
L 207.801992 287.525086 
L 240.866042 287.525086 
L 240.866042 283.770171 
L 255.478626 283.770171 
L 255.478626 280.015257 
L 279.564065 280.015257 
L 279.564065 276.260342 
L 284.454617 276.260342 
L 284.454617 272.505428 
L 284.778844 272.505428 
L 284.778844 268.750513 
L 286.80484 268.750513 
L 286.80484 264.995599 
L 294.0719 264.995599 
L 294.0719 261.240684 
L 303.703102 261.240684 
L 303.703102 257.48577 
L 310.431705 257.48577 
L 310.431705 253.730855 
L 311.262554 253.730855 
L 311.262554 249.975941 
L 315.368843 249.975941 
L 315.368843 246.221026 
L 326.732732 246.221026 
L 326.732732 242.466112 
L 353.939226 242.466112 
L 353.939226 238.711197 
L 355.593393 238.711197 
L 355.593393 234.956283 
L 356.494336 234.956283 
L 356.494336 231.201368 
L 356.494336 231.201368 
L 356.494336 231.201368 
L 450.672 231.201368 
" style="fill:none;stroke:#f5deb3;stroke-linecap:square;stroke-width:1.5;"/>
   </g>
   <g id="line2d_4">
    <path clip-path="url(#pd57fc29af0)" d="M 235.759049 291.28 
L 235.759049 287.525086 
L 243.885932 287.525086 
L 243.885932 283.770171 
L 248.231606 283.770171 
L 248.231606 280.015257 
L 264.725369 280.015257 
L 264.725369 276.260342 
L 267.593111 276.260342 
L 267.593111 272.505428 
L 304.383037 272.505428 
L 304.383037 268.750513 
L 306.750154 268.750513 
L 306.750154 264.995599 
L 309.946466 264.995599 
L 309.946466 261.240684 
L 314.726553 261.240684 
L 314.726553 257.48577 
L 316.413694 257.48577 
L 316.413694 253.730855 
L 321.259265 253.730855 
L 321.259265 249.975941 
L 323.535654 249.975941 
L 323.535654 246.221026 
L 324.767372 246.221026 
L 324.767372 242.466112 
L 327.96304 242.466112 
L 327.96304 238.711197 
L 331.520257 238.711197 
L 331.520257 234.956283 
L 331.662233 234.956283 
L 331.662233 231.201368 
L 332.77475 231.201368 
L 332.77475 227.446454 
L 335.145913 227.446454 
L 335.145913 223.691539 
L 337.453434 223.691539 
L 337.453434 219.936625 
L 337.596869 219.936625 
L 337.596869 216.18171 
L 339.73694 216.18171 
L 339.73694 212.426796 
L 339.989814 212.426796 
L 339.989814 208.671881 
L 344.85778 208.671881 
L 344.85778 204.916967 
L 347.923146 204.916967 
L 347.923146 201.162052 
L 348.332178 201.162052 
L 348.332178 197.407138 
L 350.784677 197.407138 
L 350.784677 193.652223 
L 350.784677 193.652223 
L 350.784677 193.652223 
L 450.672 193.652223 
" style="fill:none;stroke:#f5deb3;stroke-linecap:square;stroke-width:1.5;"/>
   </g>
   <g id="line2d_5">
    <path clip-path="url(#pd57fc29af0)" d="M 206.858658 291.28 
L 206.858658 287.525086 
L 244.30212 287.525086 
L 244.30212 283.770171 
L 247.104034 283.770171 
L 247.104034 280.015257 
L 250.698546 280.015257 
L 250.698546 276.260342 
L 263.918583 276.260342 
L 263.918583 272.505428 
L 269.704982 272.505428 
L 269.704982 268.750513 
L 281.879821 268.750513 
L 281.879821 264.995599 
L 282.620681 264.995599 
L 282.620681 261.240684 
L 291.694171 261.240684 
L 291.694171 257.48577 
L 306.224126 257.48577 
L 306.224126 253.730855 
L 316.629577 253.730855 
L 316.629577 249.975941 
L 321.614821 249.975941 
L 321.614821 246.221026 
L 322.598085 246.221026 
L 322.598085 242.466112 
L 334.429879 242.466112 
L 334.429879 238.711197 
L 337.909788 238.711197 
L 337.909788 234.956283 
L 343.850125 234.956283 
L 343.850125 231.201368 
L 347.091464 231.201368 
L 347.091464 227.446454 
L 347.354363 227.446454 
L 347.354363 223.691539 
L 351.275055 223.691539 
L 351.275055 219.936625 
L 360.081552 219.936625 
L 360.081552 216.18171 
L 371.750417 216.18171 
L 371.750417 212.426796 
L 377.580382 212.426796 
L 377.580382 208.671881 
L 379.539834 208.671881 
L 379.539834 204.916967 
L 388.330088 204.916967 
L 388.330088 201.162052 
L 388.330088 201.162052 
L 388.330088 201.162052 
L 450.672 201.162052 
" style="fill:none;stroke:#f5deb3;stroke-linecap:square;stroke-width:1.5;"/>
   </g>
   <g id="line2d_6"/>
   <g id="line2d_7">
    <path clip-path="url(#pd57fc29af0)" d="M 212.31909 291.28 
L 212.31909 287.525086 
L 272.65377 287.525086 
L 272.65377 283.770171 
L 273.489936 283.770171 
L 273.489936 280.015257 
L 306.318971 280.015257 
L 306.318971 276.260342 
L 308.278029 276.260342 
L 308.278029 272.505428 
L 333.285798 272.505428 
L 333.285798 268.750513 
L 338.508315 268.750513 
L 338.508315 264.995599 
L 342.592008 264.995599 
L 342.592008 261.240684 
L 345.49059 261.240684 
L 345.49059 257.48577 
L 364.474934 257.48577 
L 364.474934 253.730855 
L 380.927155 253.730855 
L 380.927155 249.975941 
L 385.902814 249.975941 
L 385.902814 246.221026 
L 388.309456 246.221026 
L 388.309456 242.466112 
L 394.601037 242.466112 
L 394.601037 238.711197 
L 425.69934 238.711197 
L 425.69934 234.956283 
L 434.115615 234.956283 
L 434.115615 231.201368 
L 461.8 231.201368 
" style="fill:none;stroke:#f5deb3;stroke-linecap:square;stroke-width:1.5;"/>
   </g>
   <g id="line2d_8"/>
   <g id="line2d_9">
    <path clip-path="url(#pd57fc29af0)" d="M 212.174389 291.28 
L 212.174389 287.525086 
L 213.216113 287.525086 
L 213.216113 283.770171 
L 253.628747 283.770171 
L 253.628747 280.015257 
L 280.00508 280.015257 
L 280.00508 276.260342 
L 300.04216 276.260342 
L 300.04216 272.505428 
L 302.618034 272.505428 
L 302.618034 268.750513 
L 334.467581 268.750513 
L 334.467581 264.995599 
L 349.018699 264.995599 
L 349.018699 261.240684 
L 363.057736 261.240684 
L 363.057736 257.48577 
L 366.14664 257.48577 
L 366.14664 253.730855 
L 366.624858 253.730855 
L 366.624858 249.975941 
L 366.815544 249.975941 
L 366.815544 246.221026 
L 379.009752 246.221026 
L 379.009752 242.466112 
L 379.249903 242.466112 
L 379.249903 238.711197 
L 380.025109 238.711197 
L 380.025109 234.956283 
L 380.614241 234.956283 
L 380.614241 231.201368 
L 382.244808 231.201368 
L 382.244808 227.446454 
L 392.046524 227.446454 
L 392.046524 223.691539 
L 392.48943 223.691539 
L 392.48943 219.936625 
L 397.621537 219.936625 
L 397.621537 216.18171 
L 398.536957 216.18171 
L 398.536957 212.426796 
L 398.873352 212.426796 
L 398.873352 208.671881 
L 399.485885 208.671881 
L 399.485885 204.916967 
L 406.808689 204.916967 
L 406.808689 201.162052 
L 408.347828 201.162052 
L 408.347828 197.407138 
L 410.167718 197.407138 
L 410.167718 193.652223 
L 413.13203 193.652223 
L 413.13203 189.897309 
L 413.210573 189.897309 
L 413.210573 186.142394 
L 414.919825 186.142394 
L 414.919825 182.38748 
L 415.450544 182.38748 
L 415.450544 178.632565 
L 415.549558 178.632565 
L 415.549558 174.877651 
L 429.5821 174.877651 
L 429.5821 171.122736 
L 434.163463 171.122736 
L 434.163463 167.367822 
L 441.058701 167.367822 
L 441.058701 163.612907 
L 441.385246 163.612907 
L 441.385246 159.857993 
L 443.283903 159.857993 
L 443.283903 156.103079 
L 443.42821 156.103079 
L 443.42821 152.348164 
L 444.680216 152.348164 
L 444.680216 148.59325 
L 461.8 148.59325 
" style="fill:none;stroke:#f5deb3;stroke-linecap:square;stroke-width:1.5;"/>
   </g>
   <g id="line2d_10">
    <path clip-path="url(#pd57fc29af0)" d="M 374.694327 291.28 
L 374.694327 287.525086 
L 410.543618 287.525086 
L 410.543618 283.770171 
L 410.543618 283.770171 
L 410.543618 283.770171 
L 450.672 283.770171 
" style="fill:none;stroke:#f5deb3;stroke-linecap:square;stroke-width:1.5;"/>
   </g>
   <g id="line2d_11">
    <path clip-path="url(#pd57fc29af0)" d="M 235.294114 291.28 
L 235.294114 287.525086 
L 253.977037 287.525086 
L 253.977037 283.770171 
L 272.142401 283.770171 
L 272.142401 280.015257 
L 273.264824 280.015257 
L 273.264824 276.260342 
L 281.123311 276.260342 
L 281.123311 272.505428 
L 293.566613 272.505428 
L 293.566613 268.750513 
L 302.38981 268.750513 
L 302.38981 264.995599 
L 313.860039 264.995599 
L 313.860039 261.240684 
L 314.068142 261.240684 
L 314.068142 257.48577 
L 322.052018 257.48577 
L 322.052018 253.730855 
L 322.505877 253.730855 
L 322.505877 249.975941 
L 323.002022 249.975941 
L 323.002022 246.221026 
L 328.617959 246.221026 
L 328.617959 242.466112 
L 337.69902 242.466112 
L 337.69902 238.711197 
L 340.534946 238.711197 
L 340.534946 234.956283 
L 341.727512 234.956283 
L 341.727512 231.201368 
L 343.686751 231.201368 
L 343.686751 227.446454 
L 351.028815 227.446454 
L 351.028815 223.691539 
L 351.932307 223.691539 
L 351.932307 219.936625 
L 353.239507 219.936625 
L 353.239507 216.18171 
L 359.378901 216.18171 
L 359.378901 212.426796 
L 362.838527 212.426796 
L 362.838527 208.671881 
L 364.493878 208.671881 
L 364.493878 204.916967 
L 367.646838 204.916967 
L 367.646838 201.162052 
L 371.725674 201.162052 
L 371.725674 197.407138 
L 386.61941 197.407138 
L 386.61941 193.652223 
L 390.073289 193.652223 
L 390.073289 189.897309 
L 394.825041 189.897309 
L 394.825041 186.142394 
L 401.691228 186.142394 
L 401.691228 182.38748 
L 411.908755 182.38748 
L 411.908755 178.632565 
L 411.908755 178.632565 
L 411.908755 178.632565 
L 450.672 178.632565 
" style="fill:none;stroke:#f5deb3;stroke-linecap:square;stroke-width:1.5;"/>
   </g>
   <g id="line2d_12">
    <path clip-path="url(#pd57fc29af0)" d="M 246.931208 291.28 
L 246.931208 287.525086 
L 319.065798 287.525086 
L 319.065798 283.770171 
L 319.065798 283.770171 
L 319.065798 283.770171 
L 450.672 283.770171 
" style="fill:none;stroke:#f5deb3;stroke-linecap:square;stroke-width:1.5;"/>
   </g>
   <g id="line2d_13"/>
   <g id="line2d_14">
    <path clip-path="url(#pd57fc29af0)" d="M 194.547582 291.28 
L 194.547582 287.525086 
L 221.234366 287.525086 
L 221.234366 283.770171 
L 246.159606 283.770171 
L 246.159606 280.015257 
L 259.014653 280.015257 
L 259.014653 276.260342 
L 266.58168 276.260342 
L 266.58168 272.505428 
L 269.35543 272.505428 
L 269.35543 268.750513 
L 273.275788 268.750513 
L 273.275788 264.995599 
L 283.886386 264.995599 
L 283.886386 261.240684 
L 291.506314 261.240684 
L 291.506314 257.48577 
L 301.26636 257.48577 
L 301.26636 253.730855 
L 310.423364 253.730855 
L 310.423364 249.975941 
L 323.639762 249.975941 
L 323.639762 246.221026 
L 329.952454 246.221026 
L 329.952454 242.466112 
L 343.246338 242.466112 
L 343.246338 238.711197 
L 344.789153 238.711197 
L 344.789153 234.956283 
L 345.572755 234.956283 
L 345.572755 231.201368 
L 348.091458 231.201368 
L 348.091458 227.446454 
L 349.018699 227.446454 
L 349.018699 223.691539 
L 349.839853 223.691539 
L 349.839853 219.936625 
L 352.772794 219.936625 
L 352.772794 216.18171 
L 356.271779 216.18171 
L 356.271779 212.426796 
L 356.756545 212.426796 
L 356.756545 208.671881 
L 356.756545 208.671881 
L 356.756545 208.671881 
L 450.672 208.671881 
" style="fill:none;stroke:#f5deb3;stroke-linecap:square;stroke-width:1.5;"/>
   </g>
   <g id="line2d_15"/>
   <g id="line2d_16">
    <path clip-path="url(#pd57fc29af0)" d="M 287.365583 291.28 
L 287.365583 287.525086 
L 317.162781 287.525086 
L 317.162781 283.770171 
L 324.932906 283.770171 
L 324.932906 280.015257 
L 326.766719 280.015257 
L 326.766719 276.260342 
L 334.732888 276.260342 
L 334.732888 272.505428 
L 355.984871 272.505428 
L 355.984871 268.750513 
L 377.662629 268.750513 
L 377.662629 264.995599 
L 377.749957 264.995599 
L 377.749957 261.240684 
L 384.85453 261.240684 
L 384.85453 257.48577 
L 396.900634 257.48577 
L 396.900634 253.730855 
L 405.809821 253.730855 
L 405.809821 249.975941 
L 416.326628 249.975941 
L 416.326628 246.221026 
L 418.466005 246.221026 
L 418.466005 242.466112 
L 419.174702 242.466112 
L 419.174702 238.711197 
L 419.711502 238.711197 
L 419.711502 234.956283 
L 420.623312 234.956283 
L 420.623312 231.201368 
L 427.990932 231.201368 
L 427.990932 227.446454 
L 435.81324 227.446454 
L 435.81324 223.691539 
L 436.966973 223.691539 
L 436.966973 219.936625 
L 452.430791 219.936625 
L 452.430791 216.18171 
L 454.716137 216.18171 
L 454.716137 212.426796 
L 455.028796 212.426796 
L 455.028796 208.671881 
L 458.731444 208.671881 
L 458.731444 204.916967 
L 461.8 204.916967 
" style="fill:none;stroke:#f5deb3;stroke-linecap:square;stroke-width:1.5;"/>
   </g>
   <g id="line2d_17"/>
   <g id="line2d_18">
    <path clip-path="url(#pd57fc29af0)" d="M 187.098792 291.28 
L 187.098792 287.525086 
L 230.326522 287.525086 
L 230.326522 283.770171 
L 237.508352 283.770171 
L 237.508352 280.015257 
L 241.946708 280.015257 
L 241.946708 276.260342 
L 244.750117 276.260342 
L 244.750117 272.505428 
L 249.196789 272.505428 
L 249.196789 268.750513 
L 249.636928 268.750513 
L 249.636928 264.995599 
L 257.718005 264.995599 
L 257.718005 261.240684 
L 261.331906 261.240684 
L 261.331906 257.48577 
L 269.931883 257.48577 
L 269.931883 253.730855 
L 274.476595 253.730855 
L 274.476595 249.975941 
L 275.946781 249.975941 
L 275.946781 246.221026 
L 284.412694 246.221026 
L 284.412694 242.466112 
L 285.438786 242.466112 
L 285.438786 238.711197 
L 286.278232 238.711197 
L 286.278232 234.956283 
L 288.62964 234.956283 
L 288.62964 231.201368 
L 289.478934 231.201368 
L 289.478934 227.446454 
L 304.069825 227.446454 
L 304.069825 223.691539 
L 315.737803 223.691539 
L 315.737803 219.936625 
L 316.519801 219.936625 
L 316.519801 216.18171 
L 324.657438 216.18171 
L 324.657438 212.426796 
L 325.598877 212.426796 
L 325.598877 208.671881 
L 325.598877 208.671881 
L 325.598877 208.671881 
L 450.672 208.671881 
" style="fill:none;stroke:#f5deb3;stroke-linecap:square;stroke-width:1.5;"/>
   </g>
   <g id="line2d_19">
    <path clip-path="url(#pd57fc29af0)" d="M 335.965305 291.28 
L 335.965305 287.525086 
L 340.006807 287.525086 
L 340.006807 283.770171 
L 342.749737 283.770171 
L 342.749737 280.015257 
L 346.856169 280.015257 
L 346.856169 276.260342 
L 346.926398 276.260342 
L 346.926398 272.505428 
L 347.160292 272.505428 
L 347.160292 268.750513 
L 348.467308 268.750513 
L 348.467308 264.995599 
L 349.033028 264.995599 
L 349.033028 261.240684 
L 349.612206 261.240684 
L 349.612206 257.48577 
L 349.684963 257.48577 
L 349.684963 253.730855 
L 356.02885 253.730855 
L 356.02885 249.975941 
L 363.948178 249.975941 
L 363.948178 246.221026 
L 370.54218 246.221026 
L 370.54218 242.466112 
L 374.050152 242.466112 
L 374.050152 238.711197 
L 393.730189 238.711197 
L 393.730189 234.956283 
L 461.40462 234.956283 
L 461.40462 231.201368 
L 461.40462 231.201368 
" style="fill:none;stroke:#f5deb3;stroke-linecap:square;stroke-width:1.5;"/>
   </g>
   <g id="line2d_20">
    <path clip-path="url(#pd57fc29af0)" d="M 219.373578 291.28 
L 219.373578 287.525086 
L 224.751196 287.525086 
L 224.751196 283.770171 
L 260.846148 283.770171 
L 260.846148 280.015257 
L 266.962351 280.015257 
L 266.962351 276.260342 
L 272.606801 276.260342 
L 272.606801 272.505428 
L 274.985906 272.505428 
L 274.985906 268.750513 
L 276.803351 268.750513 
L 276.803351 264.995599 
L 277.044254 264.995599 
L 277.044254 261.240684 
L 288.716805 261.240684 
L 288.716805 257.48577 
L 300.203703 257.48577 
L 300.203703 253.730855 
L 302.840265 253.730855 
L 302.840265 249.975941 
L 304.876136 249.975941 
L 304.876136 246.221026 
L 305.019408 246.221026 
L 305.019408 242.466112 
L 305.535329 242.466112 
L 305.535329 238.711197 
L 306.810063 238.711197 
L 306.810063 234.956283 
L 313.111994 234.956283 
L 313.111994 231.201368 
L 313.294433 231.201368 
L 313.294433 227.446454 
L 314.246516 227.446454 
L 314.246516 223.691539 
L 315.36586 223.691539 
L 315.36586 219.936625 
L 319.512881 219.936625 
L 319.512881 216.18171 
L 322.229598 216.18171 
L 322.229598 212.426796 
L 327.087626 212.426796 
L 327.087626 208.671881 
L 341.959317 208.671881 
L 341.959317 204.916967 
L 354.337353 204.916967 
L 354.337353 201.162052 
L 368.912338 201.162052 
L 368.912338 197.407138 
L 369.354997 197.407138 
L 369.354997 193.652223 
L 374.548985 193.652223 
L 374.548985 189.897309 
L 377.217925 189.897309 
L 377.217925 186.142394 
L 377.217925 186.142394 
L 377.217925 186.142394 
L 450.672 186.142394 
" style="fill:none;stroke:#f5deb3;stroke-linecap:square;stroke-width:1.5;"/>
   </g>
   <g id="line2d_21">
    <path clip-path="url(#pd57fc29af0)" d="M 353.382546 291.28 
L 353.382546 287.525086 
L 353.382546 287.525086 
L 353.382546 287.525086 
L 450.672 287.525086 
" style="fill:none;stroke:#f5deb3;stroke-linecap:square;stroke-width:1.5;"/>
   </g>
   <g id="line2d_22">
    <path clip-path="url(#pd57fc29af0)" d="M 303.108079 291.28 
L 303.108079 287.525086 
L 325.574084 287.525086 
L 325.574084 283.770171 
L 333.982393 283.770171 
L 333.982393 280.015257 
L 336.03056 280.015257 
L 336.03056 276.260342 
L 338.52348 276.260342 
L 338.52348 272.505428 
L 343.666862 272.505428 
L 343.666862 268.750513 
L 352.420325 268.750513 
L 352.420325 264.995599 
L 352.621937 264.995599 
L 352.621937 261.240684 
L 355.040214 261.240684 
L 355.040214 257.48577 
L 355.040214 257.48577 
L 355.040214 257.48577 
L 450.672 257.48577 
" style="fill:none;stroke:#f5deb3;stroke-linecap:square;stroke-width:1.5;"/>
   </g>
   <g id="line2d_23">
    <path clip-path="url(#pd57fc29af0)" d="M 284.344258 291.28 
L 284.344258 287.525086 
L 284.344258 287.525086 
L 284.344258 287.525086 
L 450.672 287.525086 
" style="fill:none;stroke:#f5deb3;stroke-linecap:square;stroke-width:1.5;"/>
   </g>
   <g id="line2d_24">
    <path clip-path="url(#pd57fc29af0)" d="M 337.562647 291.28 
L 337.562647 287.525086 
L 343.350476 287.525086 
L 343.350476 283.770171 
L 345.818237 283.770171 
L 345.818237 280.015257 
L 380.029715 280.015257 
L 380.029715 276.260342 
L 380.061207 276.260342 
L 380.061207 272.505428 
L 381.137999 272.505428 
L 381.137999 268.750513 
L 381.258233 268.750513 
L 381.258233 264.995599 
L 381.43454 264.995599 
L 381.43454 261.240684 
L 385.084963 261.240684 
L 385.084963 257.48577 
L 387.910811 257.48577 
L 387.910811 253.730855 
L 389.631333 253.730855 
L 389.631333 249.975941 
L 392.625331 249.975941 
L 392.625331 246.221026 
L 410.591069 246.221026 
L 410.591069 242.466112 
L 419.697478 242.466112 
L 419.697478 238.711197 
L 421.902349 238.711197 
L 421.902349 234.956283 
L 459.881234 234.956283 
L 459.881234 231.201368 
L 461.113462 231.201368 
L 461.113462 227.446454 
L 461.8 227.446454 
" style="fill:none;stroke:#f5deb3;stroke-linecap:square;stroke-width:1.5;"/>
   </g>
   <g id="line2d_25">
    <path clip-path="url(#pd57fc29af0)" d="M 340.815106 291.28 
L 340.815106 287.525086 
L 341.194494 287.525086 
L 341.194494 283.770171 
L 342.160825 283.770171 
L 342.160825 280.015257 
L 342.160825 280.015257 
L 342.160825 280.015257 
L 450.672 280.015257 
" style="fill:none;stroke:#f5deb3;stroke-linecap:square;stroke-width:1.5;"/>
   </g>
   <g id="line2d_26">
    <path clip-path="url(#pd57fc29af0)" d="M 268.075622 291.28 
L 268.075622 288.115746 
L 331.998955 288.115746 
L 331.998955 284.951492 
L 354.970331 284.951492 
L 354.970331 281.787239 
L 356.920549 281.787239 
L 356.920549 278.622985 
L 380.870529 278.622985 
L 380.870529 275.458731 
L 385.898165 275.458731 
L 385.898165 272.294477 
L 385.898165 272.294477 
L 385.898165 272.294477 
L 450.672 272.294477 
" style="fill:none;stroke:#f5deb3;stroke-linecap:square;stroke-width:1.5;"/>
   </g>
   <g id="line2d_27"/>
   <g id="line2d_28">
    <path clip-path="url(#pd57fc29af0)" d="M 334.292594 291.28 
L 334.292594 287.525086 
L 334.456341 287.525086 
L 334.456341 283.770171 
L 336.570532 283.770171 
L 336.570532 280.015257 
L 371.082659 280.015257 
L 371.082659 276.260342 
L 371.522003 276.260342 
L 371.522003 272.505428 
L 398.480108 272.505428 
L 398.480108 268.750513 
L 400.754 268.750513 
L 400.754 264.995599 
L 401.569018 264.995599 
L 401.569018 261.240684 
L 416.445541 261.240684 
L 416.445541 257.48577 
L 421.749509 257.48577 
L 421.749509 253.730855 
L 422.885528 253.730855 
L 422.885528 249.975941 
L 424.064807 249.975941 
L 424.064807 246.221026 
L 427.909843 246.221026 
L 427.909843 242.466112 
L 432.508944 242.466112 
L 432.508944 238.711197 
L 433.961571 238.711197 
L 433.961571 234.956283 
L 434.227785 234.956283 
L 434.227785 231.201368 
L 440.56509 231.201368 
L 440.56509 227.446454 
L 446.984829 227.446454 
L 446.984829 223.691539 
L 456.53025 223.691539 
L 456.53025 219.936625 
L 457.931932 219.936625 
L 457.931932 216.18171 
L 458.224335 216.18171 
L 458.224335 212.426796 
L 461.8 212.426796 
" style="fill:none;stroke:#f5deb3;stroke-linecap:square;stroke-width:1.5;"/>
   </g>
   <g id="line2d_29">
    <path clip-path="url(#pd57fc29af0)" d="M 304.140816 291.28 
L 304.140816 287.525086 
L 324.707535 287.525086 
L 324.707535 283.770171 
L 324.707535 283.770171 
L 324.707535 283.770171 
L 450.672 283.770171 
" style="fill:none;stroke:#f5deb3;stroke-linecap:square;stroke-width:1.5;"/>
   </g>
   <g id="line2d_30">
    <path clip-path="url(#pd57fc29af0)" d="M 257.260786 291.28 
L 257.260786 287.525086 
L 279.217455 287.525086 
L 279.217455 283.770171 
L 301.243285 283.770171 
L 301.243285 280.015257 
L 307.308357 280.015257 
L 307.308357 276.260342 
L 327.024032 276.260342 
L 327.024032 272.505428 
L 333.539515 272.505428 
L 333.539515 268.750513 
L 343.509056 268.750513 
L 343.509056 264.995599 
L 355.307837 264.995599 
L 355.307837 261.240684 
L 356.120184 261.240684 
L 356.120184 257.48577 
L 356.901394 257.48577 
L 356.901394 253.730855 
L 356.901394 253.730855 
L 356.901394 253.730855 
L 450.672 253.730855 
" style="fill:none;stroke:#f5deb3;stroke-linecap:square;stroke-width:1.5;"/>
   </g>
   <g id="matplotlib.axis_1">
    <g id="xtick_1">
     <g id="line2d_31">
      <path clip-path="url(#pd57fc29af0)" d="M 59.72 291.28 
L 59.72 6.845228 
" style="fill:none;stroke:#b0b0b0;stroke-linecap:square;stroke-width:0.8;"/>
     </g>
     <g id="line2d_32">
      <defs>
       <path d="M 0 0 
L 0 3.5 
" id="m349bf4906e" style="stroke:#000000;stroke-width:0.8;"/>
      </defs>
      <g>
       <use style="stroke:#000000;stroke-width:0.8;" x="59.72" xlink:href="#m349bf4906e" y="291.28"/>
      </g>
     </g>
     <g id="text_1">
      <!-- 0 -->
      <defs>
       <path d="M 31.78125 66.40625 
Q 24.171875 66.40625 20.328125 58.90625 
Q 16.5 51.421875 16.5 36.375 
Q 16.5 21.390625 20.328125 13.890625 
Q 24.171875 6.390625 31.78125 6.390625 
Q 39.453125 6.390625 43.28125 13.890625 
Q 47.125 21.390625 47.125 36.375 
Q 47.125 51.421875 43.28125 58.90625 
Q 39.453125 66.40625 31.78125 66.40625 
z
M 31.78125 74.21875 
Q 44.046875 74.21875 50.515625 64.515625 
Q 56.984375 54.828125 56.984375 36.375 
Q 56.984375 17.96875 50.515625 8.265625 
Q 44.046875 -1.421875 31.78125 -1.421875 
Q 19.53125 -1.421875 13.0625 8.265625 
Q 6.59375 17.96875 6.59375 36.375 
Q 6.59375 54.828125 13.0625 64.515625 
Q 19.53125 74.21875 31.78125 74.21875 
z
" id="DejaVuSans-30"/>
      </defs>
      <g transform="translate(53.3575 313.476875)scale(0.2 -0.2)">
       <use xlink:href="#DejaVuSans-30"/>
      </g>
     </g>
    </g>
    <g id="xtick_2">
     <g id="line2d_33">
      <path clip-path="url(#pd57fc29af0)" d="M 208.653972 291.28 
L 208.653972 6.845228 
" style="fill:none;stroke:#b0b0b0;stroke-linecap:square;stroke-width:0.8;"/>
     </g>
     <g id="line2d_34">
      <g>
       <use style="stroke:#000000;stroke-width:0.8;" x="208.653972" xlink:href="#m349bf4906e" y="291.28"/>
      </g>
     </g>
     <g id="text_2">
      <!-- 2 -->
      <defs>
       <path d="M 19.1875 8.296875 
L 53.609375 8.296875 
L 53.609375 0 
L 7.328125 0 
L 7.328125 8.296875 
Q 12.9375 14.109375 22.625 23.890625 
Q 32.328125 33.6875 34.8125 36.53125 
Q 39.546875 41.84375 41.421875 45.53125 
Q 43.3125 49.21875 43.3125 52.78125 
Q 43.3125 58.59375 39.234375 62.25 
Q 35.15625 65.921875 28.609375 65.921875 
Q 23.96875 65.921875 18.8125 64.3125 
Q 13.671875 62.703125 7.8125 59.421875 
L 7.8125 69.390625 
Q 13.765625 71.78125 18.9375 73 
Q 24.125 74.21875 28.421875 74.21875 
Q 39.75 74.21875 46.484375 68.546875 
Q 53.21875 62.890625 53.21875 53.421875 
Q 53.21875 48.921875 51.53125 44.890625 
Q 49.859375 40.875 45.40625 35.40625 
Q 44.1875 33.984375 37.640625 27.21875 
Q 31.109375 20.453125 19.1875 8.296875 
z
" id="DejaVuSans-32"/>
      </defs>
      <g transform="translate(202.291472 313.476875)scale(0.2 -0.2)">
       <use xlink:href="#DejaVuSans-32"/>
      </g>
     </g>
    </g>
    <g id="xtick_3">
     <g id="line2d_35">
      <path clip-path="url(#pd57fc29af0)" d="M 357.587945 291.28 
L 357.587945 6.845228 
" style="fill:none;stroke:#b0b0b0;stroke-linecap:square;stroke-width:0.8;"/>
     </g>
     <g id="line2d_36">
      <g>
       <use style="stroke:#000000;stroke-width:0.8;" x="357.587945" xlink:href="#m349bf4906e" y="291.28"/>
      </g>
     </g>
     <g id="text_3">
      <!-- 4 -->
      <defs>
       <path d="M 37.796875 64.3125 
L 12.890625 25.390625 
L 37.796875 25.390625 
z
M 35.203125 72.90625 
L 47.609375 72.90625 
L 47.609375 25.390625 
L 58.015625 25.390625 
L 58.015625 17.1875 
L 47.609375 17.1875 
L 47.609375 0 
L 37.796875 0 
L 37.796875 17.1875 
L 4.890625 17.1875 
L 4.890625 26.703125 
z
" id="DejaVuSans-34"/>
      </defs>
      <g transform="translate(351.225445 313.476875)scale(0.2 -0.2)">
       <use xlink:href="#DejaVuSans-34"/>
      </g>
     </g>
    </g>
    <g id="xtick_4">
     <g id="line2d_37">
      <path clip-path="url(#pd57fc29af0)" d="M 82.136797 291.28 
L 82.136797 6.845228 
" style="fill:none;stroke:#b0b0b0;stroke-linecap:square;stroke-width:0.8;"/>
     </g>
     <g id="line2d_38">
      <defs>
       <path d="M 0 0 
L 0 2 
" id="m0b5e60c748" style="stroke:#000000;stroke-width:0.6;"/>
      </defs>
      <g>
       <use style="stroke:#000000;stroke-width:0.6;" x="82.136797" xlink:href="#m0b5e60c748" y="291.28"/>
      </g>
     </g>
    </g>
    <g id="xtick_5">
     <g id="line2d_39">
      <path clip-path="url(#pd57fc29af0)" d="M 95.249782 291.28 
L 95.249782 6.845228 
" style="fill:none;stroke:#b0b0b0;stroke-linecap:square;stroke-width:0.8;"/>
     </g>
     <g id="line2d_40">
      <g>
       <use style="stroke:#000000;stroke-width:0.6;" x="95.249782" xlink:href="#m0b5e60c748" y="291.28"/>
      </g>
     </g>
    </g>
    <g id="xtick_6">
     <g id="line2d_41">
      <path clip-path="url(#pd57fc29af0)" d="M 104.553593 291.28 
L 104.553593 6.845228 
" style="fill:none;stroke:#b0b0b0;stroke-linecap:square;stroke-width:0.8;"/>
     </g>
     <g id="line2d_42">
      <g>
       <use style="stroke:#000000;stroke-width:0.6;" x="104.553593" xlink:href="#m0b5e60c748" y="291.28"/>
      </g>
     </g>
    </g>
    <g id="xtick_7">
     <g id="line2d_43">
      <path clip-path="url(#pd57fc29af0)" d="M 111.77019 291.28 
L 111.77019 6.845228 
" style="fill:none;stroke:#b0b0b0;stroke-linecap:square;stroke-width:0.8;"/>
     </g>
     <g id="line2d_44">
      <g>
       <use style="stroke:#000000;stroke-width:0.6;" x="111.77019" xlink:href="#m0b5e60c748" y="291.28"/>
      </g>
     </g>
    </g>
    <g id="xtick_8">
     <g id="line2d_45">
      <path clip-path="url(#pd57fc29af0)" d="M 117.666578 291.28 
L 117.666578 6.845228 
" style="fill:none;stroke:#b0b0b0;stroke-linecap:square;stroke-width:0.8;"/>
     </g>
     <g id="line2d_46">
      <g>
       <use style="stroke:#000000;stroke-width:0.6;" x="117.666578" xlink:href="#m0b5e60c748" y="291.28"/>
      </g>
     </g>
    </g>
    <g id="xtick_9">
     <g id="line2d_47">
      <path clip-path="url(#pd57fc29af0)" d="M 122.651904 291.28 
L 122.651904 6.845228 
" style="fill:none;stroke:#b0b0b0;stroke-linecap:square;stroke-width:0.8;"/>
     </g>
     <g id="line2d_48">
      <g>
       <use style="stroke:#000000;stroke-width:0.6;" x="122.651904" xlink:href="#m0b5e60c748" y="291.28"/>
      </g>
     </g>
    </g>
    <g id="xtick_10">
     <g id="line2d_49">
      <path clip-path="url(#pd57fc29af0)" d="M 126.97039 291.28 
L 126.97039 6.845228 
" style="fill:none;stroke:#b0b0b0;stroke-linecap:square;stroke-width:0.8;"/>
     </g>
     <g id="line2d_50">
      <g>
       <use style="stroke:#000000;stroke-width:0.6;" x="126.97039" xlink:href="#m0b5e60c748" y="291.28"/>
      </g>
     </g>
    </g>
    <g id="xtick_11">
     <g id="line2d_51">
      <path clip-path="url(#pd57fc29af0)" d="M 130.779564 291.28 
L 130.779564 6.845228 
" style="fill:none;stroke:#b0b0b0;stroke-linecap:square;stroke-width:0.8;"/>
     </g>
     <g id="line2d_52">
      <g>
       <use style="stroke:#000000;stroke-width:0.6;" x="130.779564" xlink:href="#m0b5e60c748" y="291.28"/>
      </g>
     </g>
    </g>
    <g id="xtick_12">
     <g id="line2d_53">
      <path clip-path="url(#pd57fc29af0)" d="M 156.603783 291.28 
L 156.603783 6.845228 
" style="fill:none;stroke:#b0b0b0;stroke-linecap:square;stroke-width:0.8;"/>
     </g>
     <g id="line2d_54">
      <g>
       <use style="stroke:#000000;stroke-width:0.6;" x="156.603783" xlink:href="#m0b5e60c748" y="291.28"/>
      </g>
     </g>
    </g>
    <g id="xtick_13">
     <g id="line2d_55">
      <path clip-path="url(#pd57fc29af0)" d="M 169.716768 291.28 
L 169.716768 6.845228 
" style="fill:none;stroke:#b0b0b0;stroke-linecap:square;stroke-width:0.8;"/>
     </g>
     <g id="line2d_56">
      <g>
       <use style="stroke:#000000;stroke-width:0.6;" x="169.716768" xlink:href="#m0b5e60c748" y="291.28"/>
      </g>
     </g>
    </g>
    <g id="xtick_14">
     <g id="line2d_57">
      <path clip-path="url(#pd57fc29af0)" d="M 179.020579 291.28 
L 179.020579 6.845228 
" style="fill:none;stroke:#b0b0b0;stroke-linecap:square;stroke-width:0.8;"/>
     </g>
     <g id="line2d_58">
      <g>
       <use style="stroke:#000000;stroke-width:0.6;" x="179.020579" xlink:href="#m0b5e60c748" y="291.28"/>
      </g>
     </g>
    </g>
    <g id="xtick_15">
     <g id="line2d_59">
      <path clip-path="url(#pd57fc29af0)" d="M 186.237176 291.28 
L 186.237176 6.845228 
" style="fill:none;stroke:#b0b0b0;stroke-linecap:square;stroke-width:0.8;"/>
     </g>
     <g id="line2d_60">
      <g>
       <use style="stroke:#000000;stroke-width:0.6;" x="186.237176" xlink:href="#m0b5e60c748" y="291.28"/>
      </g>
     </g>
    </g>
    <g id="xtick_16">
     <g id="line2d_61">
      <path clip-path="url(#pd57fc29af0)" d="M 192.133565 291.28 
L 192.133565 6.845228 
" style="fill:none;stroke:#b0b0b0;stroke-linecap:square;stroke-width:0.8;"/>
     </g>
     <g id="line2d_62">
      <g>
       <use style="stroke:#000000;stroke-width:0.6;" x="192.133565" xlink:href="#m0b5e60c748" y="291.28"/>
      </g>
     </g>
    </g>
    <g id="xtick_17">
     <g id="line2d_63">
      <path clip-path="url(#pd57fc29af0)" d="M 197.11889 291.28 
L 197.11889 6.845228 
" style="fill:none;stroke:#b0b0b0;stroke-linecap:square;stroke-width:0.8;"/>
     </g>
     <g id="line2d_64">
      <g>
       <use style="stroke:#000000;stroke-width:0.6;" x="197.11889" xlink:href="#m0b5e60c748" y="291.28"/>
      </g>
     </g>
    </g>
    <g id="xtick_18">
     <g id="line2d_65">
      <path clip-path="url(#pd57fc29af0)" d="M 201.437376 291.28 
L 201.437376 6.845228 
" style="fill:none;stroke:#b0b0b0;stroke-linecap:square;stroke-width:0.8;"/>
     </g>
     <g id="line2d_66">
      <g>
       <use style="stroke:#000000;stroke-width:0.6;" x="201.437376" xlink:href="#m0b5e60c748" y="291.28"/>
      </g>
     </g>
    </g>
    <g id="xtick_19">
     <g id="line2d_67">
      <path clip-path="url(#pd57fc29af0)" d="M 205.24655 291.28 
L 205.24655 6.845228 
" style="fill:none;stroke:#b0b0b0;stroke-linecap:square;stroke-width:0.8;"/>
     </g>
     <g id="line2d_68">
      <g>
       <use style="stroke:#000000;stroke-width:0.6;" x="205.24655" xlink:href="#m0b5e60c748" y="291.28"/>
      </g>
     </g>
    </g>
    <g id="xtick_20">
     <g id="line2d_69">
      <path clip-path="url(#pd57fc29af0)" d="M 231.070769 291.28 
L 231.070769 6.845228 
" style="fill:none;stroke:#b0b0b0;stroke-linecap:square;stroke-width:0.8;"/>
     </g>
     <g id="line2d_70">
      <g>
       <use style="stroke:#000000;stroke-width:0.6;" x="231.070769" xlink:href="#m0b5e60c748" y="291.28"/>
      </g>
     </g>
    </g>
    <g id="xtick_21">
     <g id="line2d_71">
      <path clip-path="url(#pd57fc29af0)" d="M 244.183754 291.28 
L 244.183754 6.845228 
" style="fill:none;stroke:#b0b0b0;stroke-linecap:square;stroke-width:0.8;"/>
     </g>
     <g id="line2d_72">
      <g>
       <use style="stroke:#000000;stroke-width:0.6;" x="244.183754" xlink:href="#m0b5e60c748" y="291.28"/>
      </g>
     </g>
    </g>
    <g id="xtick_22">
     <g id="line2d_73">
      <path clip-path="url(#pd57fc29af0)" d="M 253.487565 291.28 
L 253.487565 6.845228 
" style="fill:none;stroke:#b0b0b0;stroke-linecap:square;stroke-width:0.8;"/>
     </g>
     <g id="line2d_74">
      <g>
       <use style="stroke:#000000;stroke-width:0.6;" x="253.487565" xlink:href="#m0b5e60c748" y="291.28"/>
      </g>
     </g>
    </g>
    <g id="xtick_23">
     <g id="line2d_75">
      <path clip-path="url(#pd57fc29af0)" d="M 260.704162 291.28 
L 260.704162 6.845228 
" style="fill:none;stroke:#b0b0b0;stroke-linecap:square;stroke-width:0.8;"/>
     </g>
     <g id="line2d_76">
      <g>
       <use style="stroke:#000000;stroke-width:0.6;" x="260.704162" xlink:href="#m0b5e60c748" y="291.28"/>
      </g>
     </g>
    </g>
    <g id="xtick_24">
     <g id="line2d_77">
      <path clip-path="url(#pd57fc29af0)" d="M 266.600551 291.28 
L 266.600551 6.845228 
" style="fill:none;stroke:#b0b0b0;stroke-linecap:square;stroke-width:0.8;"/>
     </g>
     <g id="line2d_78">
      <g>
       <use style="stroke:#000000;stroke-width:0.6;" x="266.600551" xlink:href="#m0b5e60c748" y="291.28"/>
      </g>
     </g>
    </g>
    <g id="xtick_25">
     <g id="line2d_79">
      <path clip-path="url(#pd57fc29af0)" d="M 271.585876 291.28 
L 271.585876 6.845228 
" style="fill:none;stroke:#b0b0b0;stroke-linecap:square;stroke-width:0.8;"/>
     </g>
     <g id="line2d_80">
      <g>
       <use style="stroke:#000000;stroke-width:0.6;" x="271.585876" xlink:href="#m0b5e60c748" y="291.28"/>
      </g>
     </g>
    </g>
    <g id="xtick_26">
     <g id="line2d_81">
      <path clip-path="url(#pd57fc29af0)" d="M 275.904362 291.28 
L 275.904362 6.845228 
" style="fill:none;stroke:#b0b0b0;stroke-linecap:square;stroke-width:0.8;"/>
     </g>
     <g id="line2d_82">
      <g>
       <use style="stroke:#000000;stroke-width:0.6;" x="275.904362" xlink:href="#m0b5e60c748" y="291.28"/>
      </g>
     </g>
    </g>
    <g id="xtick_27">
     <g id="line2d_83">
      <path clip-path="url(#pd57fc29af0)" d="M 279.713536 291.28 
L 279.713536 6.845228 
" style="fill:none;stroke:#b0b0b0;stroke-linecap:square;stroke-width:0.8;"/>
     </g>
     <g id="line2d_84">
      <g>
       <use style="stroke:#000000;stroke-width:0.6;" x="279.713536" xlink:href="#m0b5e60c748" y="291.28"/>
      </g>
     </g>
    </g>
    <g id="xtick_28">
     <g id="line2d_85">
      <path clip-path="url(#pd57fc29af0)" d="M 305.537755 291.28 
L 305.537755 6.845228 
" style="fill:none;stroke:#b0b0b0;stroke-linecap:square;stroke-width:0.8;"/>
     </g>
     <g id="line2d_86">
      <g>
       <use style="stroke:#000000;stroke-width:0.6;" x="305.537755" xlink:href="#m0b5e60c748" y="291.28"/>
      </g>
     </g>
    </g>
    <g id="xtick_29">
     <g id="line2d_87">
      <path clip-path="url(#pd57fc29af0)" d="M 318.65074 291.28 
L 318.65074 6.845228 
" style="fill:none;stroke:#b0b0b0;stroke-linecap:square;stroke-width:0.8;"/>
     </g>
     <g id="line2d_88">
      <g>
       <use style="stroke:#000000;stroke-width:0.6;" x="318.65074" xlink:href="#m0b5e60c748" y="291.28"/>
      </g>
     </g>
    </g>
    <g id="xtick_30">
     <g id="line2d_89">
      <path clip-path="url(#pd57fc29af0)" d="M 327.954552 291.28 
L 327.954552 6.845228 
" style="fill:none;stroke:#b0b0b0;stroke-linecap:square;stroke-width:0.8;"/>
     </g>
     <g id="line2d_90">
      <g>
       <use style="stroke:#000000;stroke-width:0.6;" x="327.954552" xlink:href="#m0b5e60c748" y="291.28"/>
      </g>
     </g>
    </g>
    <g id="xtick_31">
     <g id="line2d_91">
      <path clip-path="url(#pd57fc29af0)" d="M 335.171148 291.28 
L 335.171148 6.845228 
" style="fill:none;stroke:#b0b0b0;stroke-linecap:square;stroke-width:0.8;"/>
     </g>
     <g id="line2d_92">
      <g>
       <use style="stroke:#000000;stroke-width:0.6;" x="335.171148" xlink:href="#m0b5e60c748" y="291.28"/>
      </g>
     </g>
    </g>
    <g id="xtick_32">
     <g id="line2d_93">
      <path clip-path="url(#pd57fc29af0)" d="M 341.067537 291.28 
L 341.067537 6.845228 
" style="fill:none;stroke:#b0b0b0;stroke-linecap:square;stroke-width:0.8;"/>
     </g>
     <g id="line2d_94">
      <g>
       <use style="stroke:#000000;stroke-width:0.6;" x="341.067537" xlink:href="#m0b5e60c748" y="291.28"/>
      </g>
     </g>
    </g>
    <g id="xtick_33">
     <g id="line2d_95">
      <path clip-path="url(#pd57fc29af0)" d="M 346.052863 291.28 
L 346.052863 6.845228 
" style="fill:none;stroke:#b0b0b0;stroke-linecap:square;stroke-width:0.8;"/>
     </g>
     <g id="line2d_96">
      <g>
       <use style="stroke:#000000;stroke-width:0.6;" x="346.052863" xlink:href="#m0b5e60c748" y="291.28"/>
      </g>
     </g>
    </g>
    <g id="xtick_34">
     <g id="line2d_97">
      <path clip-path="url(#pd57fc29af0)" d="M 350.371348 291.28 
L 350.371348 6.845228 
" style="fill:none;stroke:#b0b0b0;stroke-linecap:square;stroke-width:0.8;"/>
     </g>
     <g id="line2d_98">
      <g>
       <use style="stroke:#000000;stroke-width:0.6;" x="350.371348" xlink:href="#m0b5e60c748" y="291.28"/>
      </g>
     </g>
    </g>
    <g id="xtick_35">
     <g id="line2d_99">
      <path clip-path="url(#pd57fc29af0)" d="M 354.180522 291.28 
L 354.180522 6.845228 
" style="fill:none;stroke:#b0b0b0;stroke-linecap:square;stroke-width:0.8;"/>
     </g>
     <g id="line2d_100">
      <g>
       <use style="stroke:#000000;stroke-width:0.6;" x="354.180522" xlink:href="#m0b5e60c748" y="291.28"/>
      </g>
     </g>
    </g>
    <g id="xtick_36">
     <g id="line2d_101">
      <path clip-path="url(#pd57fc29af0)" d="M 380.004741 291.28 
L 380.004741 6.845228 
" style="fill:none;stroke:#b0b0b0;stroke-linecap:square;stroke-width:0.8;"/>
     </g>
     <g id="line2d_102">
      <g>
       <use style="stroke:#000000;stroke-width:0.6;" x="380.004741" xlink:href="#m0b5e60c748" y="291.28"/>
      </g>
     </g>
    </g>
    <g id="xtick_37">
     <g id="line2d_103">
      <path clip-path="url(#pd57fc29af0)" d="M 393.117727 291.28 
L 393.117727 6.845228 
" style="fill:none;stroke:#b0b0b0;stroke-linecap:square;stroke-width:0.8;"/>
     </g>
     <g id="line2d_104">
      <g>
       <use style="stroke:#000000;stroke-width:0.6;" x="393.117727" xlink:href="#m0b5e60c748" y="291.28"/>
      </g>
     </g>
    </g>
    <g id="xtick_38">
     <g id="line2d_105">
      <path clip-path="url(#pd57fc29af0)" d="M 402.421538 291.28 
L 402.421538 6.845228 
" style="fill:none;stroke:#b0b0b0;stroke-linecap:square;stroke-width:0.8;"/>
     </g>
     <g id="line2d_106">
      <g>
       <use style="stroke:#000000;stroke-width:0.6;" x="402.421538" xlink:href="#m0b5e60c748" y="291.28"/>
      </g>
     </g>
    </g>
    <g id="xtick_39">
     <g id="line2d_107">
      <path clip-path="url(#pd57fc29af0)" d="M 409.638134 291.28 
L 409.638134 6.845228 
" style="fill:none;stroke:#b0b0b0;stroke-linecap:square;stroke-width:0.8;"/>
     </g>
     <g id="line2d_108">
      <g>
       <use style="stroke:#000000;stroke-width:0.6;" x="409.638134" xlink:href="#m0b5e60c748" y="291.28"/>
      </g>
     </g>
    </g>
    <g id="xtick_40">
     <g id="line2d_109">
      <path clip-path="url(#pd57fc29af0)" d="M 415.534523 291.28 
L 415.534523 6.845228 
" style="fill:none;stroke:#b0b0b0;stroke-linecap:square;stroke-width:0.8;"/>
     </g>
     <g id="line2d_110">
      <g>
       <use style="stroke:#000000;stroke-width:0.6;" x="415.534523" xlink:href="#m0b5e60c748" y="291.28"/>
      </g>
     </g>
    </g>
    <g id="xtick_41">
     <g id="line2d_111">
      <path clip-path="url(#pd57fc29af0)" d="M 420.519849 291.28 
L 420.519849 6.845228 
" style="fill:none;stroke:#b0b0b0;stroke-linecap:square;stroke-width:0.8;"/>
     </g>
     <g id="line2d_112">
      <g>
       <use style="stroke:#000000;stroke-width:0.6;" x="420.519849" xlink:href="#m0b5e60c748" y="291.28"/>
      </g>
     </g>
    </g>
    <g id="xtick_42">
     <g id="line2d_113">
      <path clip-path="url(#pd57fc29af0)" d="M 424.838334 291.28 
L 424.838334 6.845228 
" style="fill:none;stroke:#b0b0b0;stroke-linecap:square;stroke-width:0.8;"/>
     </g>
     <g id="line2d_114">
      <g>
       <use style="stroke:#000000;stroke-width:0.6;" x="424.838334" xlink:href="#m0b5e60c748" y="291.28"/>
      </g>
     </g>
    </g>
    <g id="xtick_43">
     <g id="line2d_115">
      <path clip-path="url(#pd57fc29af0)" d="M 428.647508 291.28 
L 428.647508 6.845228 
" style="fill:none;stroke:#b0b0b0;stroke-linecap:square;stroke-width:0.8;"/>
     </g>
     <g id="line2d_116">
      <g>
       <use style="stroke:#000000;stroke-width:0.6;" x="428.647508" xlink:href="#m0b5e60c748" y="291.28"/>
      </g>
     </g>
    </g>
    <g id="text_4">
     <!-- log10 of FEvals / DIM -->
     <defs>
      <path d="M 9.421875 75.984375 
L 18.40625 75.984375 
L 18.40625 0 
L 9.421875 0 
z
" id="DejaVuSans-6c"/>
      <path d="M 30.609375 48.390625 
Q 23.390625 48.390625 19.1875 42.75 
Q 14.984375 37.109375 14.984375 27.296875 
Q 14.984375 17.484375 19.15625 11.84375 
Q 23.34375 6.203125 30.609375 6.203125 
Q 37.796875 6.203125 41.984375 11.859375 
Q 46.1875 17.53125 46.1875 27.296875 
Q 46.1875 37.015625 41.984375 42.703125 
Q 37.796875 48.390625 30.609375 48.390625 
z
M 30.609375 56 
Q 42.328125 56 49.015625 48.375 
Q 55.71875 40.765625 55.71875 27.296875 
Q 55.71875 13.875 49.015625 6.21875 
Q 42.328125 -1.421875 30.609375 -1.421875 
Q 18.84375 -1.421875 12.171875 6.21875 
Q 5.515625 13.875 5.515625 27.296875 
Q 5.515625 40.765625 12.171875 48.375 
Q 18.84375 56 30.609375 56 
z
" id="DejaVuSans-6f"/>
      <path d="M 45.40625 27.984375 
Q 45.40625 37.75 41.375 43.109375 
Q 37.359375 48.484375 30.078125 48.484375 
Q 22.859375 48.484375 18.828125 43.109375 
Q 14.796875 37.75 14.796875 27.984375 
Q 14.796875 18.265625 18.828125 12.890625 
Q 22.859375 7.515625 30.078125 7.515625 
Q 37.359375 7.515625 41.375 12.890625 
Q 45.40625 18.265625 45.40625 27.984375 
z
M 54.390625 6.78125 
Q 54.390625 -7.171875 48.1875 -13.984375 
Q 42 -20.796875 29.203125 -20.796875 
Q 24.46875 -20.796875 20.265625 -20.09375 
Q 16.0625 -19.390625 12.109375 -17.921875 
L 12.109375 -9.1875 
Q 16.0625 -11.328125 19.921875 -12.34375 
Q 23.78125 -13.375 27.78125 -13.375 
Q 36.625 -13.375 41.015625 -8.765625 
Q 45.40625 -4.15625 45.40625 5.171875 
L 45.40625 9.625 
Q 42.625 4.78125 38.28125 2.390625 
Q 33.9375 0 27.875 0 
Q 17.828125 0 11.671875 7.65625 
Q 5.515625 15.328125 5.515625 27.984375 
Q 5.515625 40.671875 11.671875 48.328125 
Q 17.828125 56 27.875 56 
Q 33.9375 56 38.28125 53.609375 
Q 42.625 51.21875 45.40625 46.390625 
L 45.40625 54.6875 
L 54.390625 54.6875 
z
" id="DejaVuSans-67"/>
      <path d="M 12.40625 8.296875 
L 28.515625 8.296875 
L 28.515625 63.921875 
L 10.984375 60.40625 
L 10.984375 69.390625 
L 28.421875 72.90625 
L 38.28125 72.90625 
L 38.28125 8.296875 
L 54.390625 8.296875 
L 54.390625 0 
L 12.40625 0 
z
" id="DejaVuSans-31"/>
      <path id="DejaVuSans-20"/>
      <path d="M 37.109375 75.984375 
L 37.109375 68.5 
L 28.515625 68.5 
Q 23.6875 68.5 21.796875 66.546875 
Q 19.921875 64.59375 19.921875 59.515625 
L 19.921875 54.6875 
L 34.71875 54.6875 
L 34.71875 47.703125 
L 19.921875 47.703125 
L 19.921875 0 
L 10.890625 0 
L 10.890625 47.703125 
L 2.296875 47.703125 
L 2.296875 54.6875 
L 10.890625 54.6875 
L 10.890625 58.5 
Q 10.890625 67.625 15.140625 71.796875 
Q 19.390625 75.984375 28.609375 75.984375 
z
" id="DejaVuSans-66"/>
      <path d="M 9.8125 72.90625 
L 51.703125 72.90625 
L 51.703125 64.59375 
L 19.671875 64.59375 
L 19.671875 43.109375 
L 48.578125 43.109375 
L 48.578125 34.8125 
L 19.671875 34.8125 
L 19.671875 0 
L 9.8125 0 
z
" id="DejaVuSans-46"/>
      <path d="M 9.8125 72.90625 
L 55.90625 72.90625 
L 55.90625 64.59375 
L 19.671875 64.59375 
L 19.671875 43.015625 
L 54.390625 43.015625 
L 54.390625 34.71875 
L 19.671875 34.71875 
L 19.671875 8.296875 
L 56.78125 8.296875 
L 56.78125 0 
L 9.8125 0 
z
" id="DejaVuSans-45"/>
      <path d="M 2.984375 54.6875 
L 12.5 54.6875 
L 29.59375 8.796875 
L 46.6875 54.6875 
L 56.203125 54.6875 
L 35.6875 0 
L 23.484375 0 
z
" id="DejaVuSans-76"/>
      <path d="M 34.28125 27.484375 
Q 23.390625 27.484375 19.1875 25 
Q 14.984375 22.515625 14.984375 16.5 
Q 14.984375 11.71875 18.140625 8.90625 
Q 21.296875 6.109375 26.703125 6.109375 
Q 34.1875 6.109375 38.703125 11.40625 
Q 43.21875 16.703125 43.21875 25.484375 
L 43.21875 27.484375 
z
M 52.203125 31.203125 
L 52.203125 0 
L 43.21875 0 
L 43.21875 8.296875 
Q 40.140625 3.328125 35.546875 0.953125 
Q 30.953125 -1.421875 24.3125 -1.421875 
Q 15.921875 -1.421875 10.953125 3.296875 
Q 6 8.015625 6 15.921875 
Q 6 25.140625 12.171875 29.828125 
Q 18.359375 34.515625 30.609375 34.515625 
L 43.21875 34.515625 
L 43.21875 35.40625 
Q 43.21875 41.609375 39.140625 45 
Q 35.0625 48.390625 27.6875 48.390625 
Q 23 48.390625 18.546875 47.265625 
Q 14.109375 46.140625 10.015625 43.890625 
L 10.015625 52.203125 
Q 14.9375 54.109375 19.578125 55.046875 
Q 24.21875 56 28.609375 56 
Q 40.484375 56 46.34375 49.84375 
Q 52.203125 43.703125 52.203125 31.203125 
z
" id="DejaVuSans-61"/>
      <path d="M 44.28125 53.078125 
L 44.28125 44.578125 
Q 40.484375 46.53125 36.375 47.5 
Q 32.28125 48.484375 27.875 48.484375 
Q 21.1875 48.484375 17.84375 46.4375 
Q 14.5 44.390625 14.5 40.28125 
Q 14.5 37.15625 16.890625 35.375 
Q 19.28125 33.59375 26.515625 31.984375 
L 29.59375 31.296875 
Q 39.15625 29.25 43.1875 25.515625 
Q 47.21875 21.78125 47.21875 15.09375 
Q 47.21875 7.46875 41.1875 3.015625 
Q 35.15625 -1.421875 24.609375 -1.421875 
Q 20.21875 -1.421875 15.453125 -0.5625 
Q 10.6875 0.296875 5.421875 2 
L 5.421875 11.28125 
Q 10.40625 8.6875 15.234375 7.390625 
Q 20.0625 6.109375 24.8125 6.109375 
Q 31.15625 6.109375 34.5625 8.28125 
Q 37.984375 10.453125 37.984375 14.40625 
Q 37.984375 18.0625 35.515625 20.015625 
Q 33.0625 21.96875 24.703125 23.78125 
L 21.578125 24.515625 
Q 13.234375 26.265625 9.515625 29.90625 
Q 5.8125 33.546875 5.8125 39.890625 
Q 5.8125 47.609375 11.28125 51.796875 
Q 16.75 56 26.8125 56 
Q 31.78125 56 36.171875 55.265625 
Q 40.578125 54.546875 44.28125 53.078125 
z
" id="DejaVuSans-73"/>
      <path d="M 25.390625 72.90625 
L 33.6875 72.90625 
L 8.296875 -9.28125 
L 0 -9.28125 
z
" id="DejaVuSans-2f"/>
      <path d="M 19.671875 64.796875 
L 19.671875 8.109375 
L 31.59375 8.109375 
Q 46.6875 8.109375 53.6875 14.9375 
Q 60.6875 21.78125 60.6875 36.53125 
Q 60.6875 51.171875 53.6875 57.984375 
Q 46.6875 64.796875 31.59375 64.796875 
z
M 9.8125 72.90625 
L 30.078125 72.90625 
Q 51.265625 72.90625 61.171875 64.09375 
Q 71.09375 55.28125 71.09375 36.53125 
Q 71.09375 17.671875 61.125 8.828125 
Q 51.171875 0 30.078125 0 
L 9.8125 0 
z
" id="DejaVuSans-44"/>
      <path d="M 9.8125 72.90625 
L 19.671875 72.90625 
L 19.671875 0 
L 9.8125 0 
z
" id="DejaVuSans-49"/>
      <path d="M 9.8125 72.90625 
L 24.515625 72.90625 
L 43.109375 23.296875 
L 61.8125 72.90625 
L 76.515625 72.90625 
L 76.515625 0 
L 66.890625 0 
L 66.890625 64.015625 
L 48.09375 14.015625 
L 38.1875 14.015625 
L 19.390625 64.015625 
L 19.390625 0 
L 9.8125 0 
z
" id="DejaVuSans-4d"/>
     </defs>
     <g transform="translate(150.122563 336.833125)scale(0.2 -0.2)">
      <use xlink:href="#DejaVuSans-6c"/>
      <use x="27.783203" xlink:href="#DejaVuSans-6f"/>
      <use x="88.964844" xlink:href="#DejaVuSans-67"/>
      <use x="152.441406" xlink:href="#DejaVuSans-31"/>
      <use x="216.064453" xlink:href="#DejaVuSans-30"/>
      <use x="279.6875" xlink:href="#DejaVuSans-20"/>
      <use x="311.474609" xlink:href="#DejaVuSans-6f"/>
      <use x="372.65625" xlink:href="#DejaVuSans-66"/>
      <use x="407.861328" xlink:href="#DejaVuSans-20"/>
      <use x="439.648438" xlink:href="#DejaVuSans-46"/>
      <use x="497.167969" xlink:href="#DejaVuSans-45"/>
      <use x="560.351562" xlink:href="#DejaVuSans-76"/>
      <use x="619.53125" xlink:href="#DejaVuSans-61"/>
      <use x="680.810547" xlink:href="#DejaVuSans-6c"/>
      <use x="708.59375" xlink:href="#DejaVuSans-73"/>
      <use x="760.693359" xlink:href="#DejaVuSans-20"/>
      <use x="792.480469" xlink:href="#DejaVuSans-2f"/>
      <use x="826.171875" xlink:href="#DejaVuSans-20"/>
      <use x="857.958984" xlink:href="#DejaVuSans-44"/>
      <use x="934.960938" xlink:href="#DejaVuSans-49"/>
      <use x="964.453125" xlink:href="#DejaVuSans-4d"/>
     </g>
    </g>
   </g>
   <g id="matplotlib.axis_2">
    <g id="ytick_1">
     <g id="line2d_117">
      <path clip-path="url(#pd57fc29af0)" d="M 59.72 291.28 
L 450.672 291.28 
" style="fill:none;stroke:#b0b0b0;stroke-linecap:square;stroke-width:0.8;"/>
     </g>
     <g id="line2d_118">
      <defs>
       <path d="M 0 0 
L -3.5 0 
" id="mce734ec0fb" style="stroke:#000000;stroke-width:0.8;"/>
      </defs>
      <g>
       <use style="stroke:#000000;stroke-width:0.8;" x="59.72" xlink:href="#mce734ec0fb" y="291.28"/>
      </g>
     </g>
     <g id="text_5">
      <!-- 0.0 -->
      <defs>
       <path d="M 10.6875 12.40625 
L 21 12.40625 
L 21 0 
L 10.6875 0 
z
" id="DejaVuSans-2e"/>
      </defs>
      <g transform="translate(27.275 297.35875)scale(0.16 -0.16)">
       <use xlink:href="#DejaVuSans-30"/>
       <use x="63.623047" xlink:href="#DejaVuSans-2e"/>
       <use x="95.410156" xlink:href="#DejaVuSans-30"/>
      </g>
     </g>
    </g>
    <g id="ytick_2">
     <g id="line2d_119">
      <path clip-path="url(#pd57fc29af0)" d="M 59.72 234.956283 
L 450.672 234.956283 
" style="fill:none;stroke:#b0b0b0;stroke-linecap:square;stroke-width:0.8;"/>
     </g>
     <g id="line2d_120">
      <g>
       <use style="stroke:#000000;stroke-width:0.8;" x="59.72" xlink:href="#mce734ec0fb" y="234.956283"/>
      </g>
     </g>
     <g id="text_6">
      <!-- 0.2 -->
      <g transform="translate(27.275 241.035033)scale(0.16 -0.16)">
       <use xlink:href="#DejaVuSans-30"/>
       <use x="63.623047" xlink:href="#DejaVuSans-2e"/>
       <use x="95.410156" xlink:href="#DejaVuSans-32"/>
      </g>
     </g>
    </g>
    <g id="ytick_3">
     <g id="line2d_121">
      <path clip-path="url(#pd57fc29af0)" d="M 59.72 178.632565 
L 450.672 178.632565 
" style="fill:none;stroke:#b0b0b0;stroke-linecap:square;stroke-width:0.8;"/>
     </g>
     <g id="line2d_122">
      <g>
       <use style="stroke:#000000;stroke-width:0.8;" x="59.72" xlink:href="#mce734ec0fb" y="178.632565"/>
      </g>
     </g>
     <g id="text_7">
      <!-- 0.4 -->
      <g transform="translate(27.275 184.711315)scale(0.16 -0.16)">
       <use xlink:href="#DejaVuSans-30"/>
       <use x="63.623047" xlink:href="#DejaVuSans-2e"/>
       <use x="95.410156" xlink:href="#DejaVuSans-34"/>
      </g>
     </g>
    </g>
    <g id="ytick_4">
     <g id="line2d_123">
      <path clip-path="url(#pd57fc29af0)" d="M 59.72 122.308848 
L 450.672 122.308848 
" style="fill:none;stroke:#b0b0b0;stroke-linecap:square;stroke-width:0.8;"/>
     </g>
     <g id="line2d_124">
      <g>
       <use style="stroke:#000000;stroke-width:0.8;" x="59.72" xlink:href="#mce734ec0fb" y="122.308848"/>
      </g>
     </g>
     <g id="text_8">
      <!-- 0.6 -->
      <defs>
       <path d="M 33.015625 40.375 
Q 26.375 40.375 22.484375 35.828125 
Q 18.609375 31.296875 18.609375 23.390625 
Q 18.609375 15.53125 22.484375 10.953125 
Q 26.375 6.390625 33.015625 6.390625 
Q 39.65625 6.390625 43.53125 10.953125 
Q 47.40625 15.53125 47.40625 23.390625 
Q 47.40625 31.296875 43.53125 35.828125 
Q 39.65625 40.375 33.015625 40.375 
z
M 52.59375 71.296875 
L 52.59375 62.3125 
Q 48.875 64.0625 45.09375 64.984375 
Q 41.3125 65.921875 37.59375 65.921875 
Q 27.828125 65.921875 22.671875 59.328125 
Q 17.53125 52.734375 16.796875 39.40625 
Q 19.671875 43.65625 24.015625 45.921875 
Q 28.375 48.1875 33.59375 48.1875 
Q 44.578125 48.1875 50.953125 41.515625 
Q 57.328125 34.859375 57.328125 23.390625 
Q 57.328125 12.15625 50.6875 5.359375 
Q 44.046875 -1.421875 33.015625 -1.421875 
Q 20.359375 -1.421875 13.671875 8.265625 
Q 6.984375 17.96875 6.984375 36.375 
Q 6.984375 53.65625 15.1875 63.9375 
Q 23.390625 74.21875 37.203125 74.21875 
Q 40.921875 74.21875 44.703125 73.484375 
Q 48.484375 72.75 52.59375 71.296875 
z
" id="DejaVuSans-36"/>
      </defs>
      <g transform="translate(27.275 128.387598)scale(0.16 -0.16)">
       <use xlink:href="#DejaVuSans-30"/>
       <use x="63.623047" xlink:href="#DejaVuSans-2e"/>
       <use x="95.410156" xlink:href="#DejaVuSans-36"/>
      </g>
     </g>
    </g>
    <g id="ytick_5">
     <g id="line2d_125">
      <path clip-path="url(#pd57fc29af0)" d="M 59.72 65.985131 
L 450.672 65.985131 
" style="fill:none;stroke:#b0b0b0;stroke-linecap:square;stroke-width:0.8;"/>
     </g>
     <g id="line2d_126">
      <g>
       <use style="stroke:#000000;stroke-width:0.8;" x="59.72" xlink:href="#mce734ec0fb" y="65.985131"/>
      </g>
     </g>
     <g id="text_9">
      <!-- 0.8 -->
      <defs>
       <path d="M 31.78125 34.625 
Q 24.75 34.625 20.71875 30.859375 
Q 16.703125 27.09375 16.703125 20.515625 
Q 16.703125 13.921875 20.71875 10.15625 
Q 24.75 6.390625 31.78125 6.390625 
Q 38.8125 6.390625 42.859375 10.171875 
Q 46.921875 13.96875 46.921875 20.515625 
Q 46.921875 27.09375 42.890625 30.859375 
Q 38.875 34.625 31.78125 34.625 
z
M 21.921875 38.8125 
Q 15.578125 40.375 12.03125 44.71875 
Q 8.5 49.078125 8.5 55.328125 
Q 8.5 64.0625 14.71875 69.140625 
Q 20.953125 74.21875 31.78125 74.21875 
Q 42.671875 74.21875 48.875 69.140625 
Q 55.078125 64.0625 55.078125 55.328125 
Q 55.078125 49.078125 51.53125 44.71875 
Q 48 40.375 41.703125 38.8125 
Q 48.828125 37.15625 52.796875 32.3125 
Q 56.78125 27.484375 56.78125 20.515625 
Q 56.78125 9.90625 50.3125 4.234375 
Q 43.84375 -1.421875 31.78125 -1.421875 
Q 19.734375 -1.421875 13.25 4.234375 
Q 6.78125 9.90625 6.78125 20.515625 
Q 6.78125 27.484375 10.78125 32.3125 
Q 14.796875 37.15625 21.921875 38.8125 
z
M 18.3125 54.390625 
Q 18.3125 48.734375 21.84375 45.5625 
Q 25.390625 42.390625 31.78125 42.390625 
Q 38.140625 42.390625 41.71875 45.5625 
Q 45.3125 48.734375 45.3125 54.390625 
Q 45.3125 60.0625 41.71875 63.234375 
Q 38.140625 66.40625 31.78125 66.40625 
Q 25.390625 66.40625 21.84375 63.234375 
Q 18.3125 60.0625 18.3125 54.390625 
z
" id="DejaVuSans-38"/>
      </defs>
      <g transform="translate(27.275 72.063881)scale(0.16 -0.16)">
       <use xlink:href="#DejaVuSans-30"/>
       <use x="63.623047" xlink:href="#DejaVuSans-2e"/>
       <use x="95.410156" xlink:href="#DejaVuSans-38"/>
      </g>
     </g>
    </g>
    <g id="ytick_6">
     <g id="line2d_127">
      <path clip-path="url(#pd57fc29af0)" d="M 59.72 9.661414 
L 450.672 9.661414 
" style="fill:none;stroke:#b0b0b0;stroke-linecap:square;stroke-width:0.8;"/>
     </g>
     <g id="line2d_128">
      <g>
       <use style="stroke:#000000;stroke-width:0.8;" x="59.72" xlink:href="#mce734ec0fb" y="9.661414"/>
      </g>
     </g>
     <g id="text_10">
      <!-- 1.0 -->
      <g transform="translate(27.275 15.740164)scale(0.16 -0.16)">
       <use xlink:href="#DejaVuSans-31"/>
       <use x="63.623047" xlink:href="#DejaVuSans-2e"/>
       <use x="95.410156" xlink:href="#DejaVuSans-30"/>
      </g>
     </g>
    </g>
    <g id="text_11">
     <!-- proportion of trials -->
     <defs>
      <path d="M 18.109375 8.203125 
L 18.109375 -20.796875 
L 9.078125 -20.796875 
L 9.078125 54.6875 
L 18.109375 54.6875 
L 18.109375 46.390625 
Q 20.953125 51.265625 25.265625 53.625 
Q 29.59375 56 35.59375 56 
Q 45.5625 56 51.78125 48.09375 
Q 58.015625 40.1875 58.015625 27.296875 
Q 58.015625 14.40625 51.78125 6.484375 
Q 45.5625 -1.421875 35.59375 -1.421875 
Q 29.59375 -1.421875 25.265625 0.953125 
Q 20.953125 3.328125 18.109375 8.203125 
z
M 48.6875 27.296875 
Q 48.6875 37.203125 44.609375 42.84375 
Q 40.53125 48.484375 33.40625 48.484375 
Q 26.265625 48.484375 22.1875 42.84375 
Q 18.109375 37.203125 18.109375 27.296875 
Q 18.109375 17.390625 22.1875 11.75 
Q 26.265625 6.109375 33.40625 6.109375 
Q 40.53125 6.109375 44.609375 11.75 
Q 48.6875 17.390625 48.6875 27.296875 
z
" id="DejaVuSans-70"/>
      <path d="M 41.109375 46.296875 
Q 39.59375 47.171875 37.8125 47.578125 
Q 36.03125 48 33.890625 48 
Q 26.265625 48 22.1875 43.046875 
Q 18.109375 38.09375 18.109375 28.8125 
L 18.109375 0 
L 9.078125 0 
L 9.078125 54.6875 
L 18.109375 54.6875 
L 18.109375 46.1875 
Q 20.953125 51.171875 25.484375 53.578125 
Q 30.03125 56 36.53125 56 
Q 37.453125 56 38.578125 55.875 
Q 39.703125 55.765625 41.0625 55.515625 
z
" id="DejaVuSans-72"/>
      <path d="M 18.3125 70.21875 
L 18.3125 54.6875 
L 36.8125 54.6875 
L 36.8125 47.703125 
L 18.3125 47.703125 
L 18.3125 18.015625 
Q 18.3125 11.328125 20.140625 9.421875 
Q 21.96875 7.515625 27.59375 7.515625 
L 36.8125 7.515625 
L 36.8125 0 
L 27.59375 0 
Q 17.1875 0 13.234375 3.875 
Q 9.28125 7.765625 9.28125 18.015625 
L 9.28125 47.703125 
L 2.6875 47.703125 
L 2.6875 54.6875 
L 9.28125 54.6875 
L 9.28125 70.21875 
z
" id="DejaVuSans-74"/>
      <path d="M 9.421875 54.6875 
L 18.40625 54.6875 
L 18.40625 0 
L 9.421875 0 
z
M 9.421875 75.984375 
L 18.40625 75.984375 
L 18.40625 64.59375 
L 9.421875 64.59375 
z
" id="DejaVuSans-69"/>
      <path d="M 54.890625 33.015625 
L 54.890625 0 
L 45.90625 0 
L 45.90625 32.71875 
Q 45.90625 40.484375 42.875 44.328125 
Q 39.84375 48.1875 33.796875 48.1875 
Q 26.515625 48.1875 22.3125 43.546875 
Q 18.109375 38.921875 18.109375 30.90625 
L 18.109375 0 
L 9.078125 0 
L 9.078125 54.6875 
L 18.109375 54.6875 
L 18.109375 46.1875 
Q 21.34375 51.125 25.703125 53.5625 
Q 30.078125 56 35.796875 56 
Q 45.21875 56 50.046875 50.171875 
Q 54.890625 44.34375 54.890625 33.015625 
z
" id="DejaVuSans-6e"/>
     </defs>
     <g transform="translate(19.115625 242.290739)rotate(-90)scale(0.2 -0.2)">
      <use xlink:href="#DejaVuSans-70"/>
      <use x="63.476562" xlink:href="#DejaVuSans-72"/>
      <use x="104.558594" xlink:href="#DejaVuSans-6f"/>
      <use x="165.740234" xlink:href="#DejaVuSans-70"/>
      <use x="229.216797" xlink:href="#DejaVuSans-6f"/>
      <use x="290.398438" xlink:href="#DejaVuSans-72"/>
      <use x="331.511719" xlink:href="#DejaVuSans-74"/>
      <use x="370.720703" xlink:href="#DejaVuSans-69"/>
      <use x="398.503906" xlink:href="#DejaVuSans-6f"/>
      <use x="459.685547" xlink:href="#DejaVuSans-6e"/>
      <use x="523.064453" xlink:href="#DejaVuSans-20"/>
      <use x="554.851562" xlink:href="#DejaVuSans-6f"/>
      <use x="616.033203" xlink:href="#DejaVuSans-66"/>
      <use x="651.238281" xlink:href="#DejaVuSans-20"/>
      <use x="683.025391" xlink:href="#DejaVuSans-74"/>
      <use x="722.234375" xlink:href="#DejaVuSans-72"/>
      <use x="763.347656" xlink:href="#DejaVuSans-69"/>
      <use x="791.130859" xlink:href="#DejaVuSans-61"/>
      <use x="852.410156" xlink:href="#DejaVuSans-6c"/>
      <use x="880.193359" xlink:href="#DejaVuSans-73"/>
     </g>
    </g>
   </g>
   <g id="line2d_129">
    <path clip-path="url(#pd57fc29af0)" d="M -1 283.770171 
L 99.297633 283.770171 
L 99.297633 280.015257 
L 127.171889 280.015257 
L 127.171889 276.260342 
L 141.78936 276.260342 
L 141.78936 272.505428 
L 150.965089 272.505428 
L 150.965089 268.750513 
L 162.432725 268.750513 
L 162.432725 264.995599 
L 167.658288 264.995599 
L 167.658288 261.240684 
L 194.170207 261.240684 
L 194.170207 257.48577 
L 208.621616 257.48577 
L 208.621616 253.730855 
L 213.173958 253.730855 
L 213.173958 249.975941 
L 221.36561 249.975941 
L 221.36561 246.221026 
L 221.36561 246.221026 
L 221.36561 246.221026 
L 450.672 246.221026 
" style="fill:none;stroke:#000000;stroke-linecap:square;stroke-width:1.5;"/>
   </g>
   <g id="line2d_130">
    <defs>
     <path d="M -0 14.142136 
L 8.485281 0 
L -0 -14.142136 
L -8.485281 -0 
z
" id="m19f8f402ef" style="stroke:#000000;stroke-linejoin:miter;stroke-width:1.5;"/>
    </defs>
    <g clip-path="url(#pd57fc29af0)">
     <use style="fill:none;stroke:#000000;stroke-linejoin:miter;stroke-width:1.5;" x="141.78936" xlink:href="#m19f8f402ef" y="276.260342"/>
     <use style="fill:none;stroke:#000000;stroke-linejoin:miter;stroke-width:1.5;" x="167.658288" xlink:href="#m19f8f402ef" y="264.995599"/>
     <use style="fill:none;stroke:#000000;stroke-linejoin:miter;stroke-width:1.5;" x="221.36561" xlink:href="#m19f8f402ef" y="249.975941"/>
     <use style="fill:none;stroke:#000000;stroke-linejoin:miter;stroke-width:1.5;" x="221.36561" xlink:href="#m19f8f402ef" y="246.221026"/>
    </g>
   </g>
   <g id="line2d_131">
    <path clip-path="url(#pd57fc29af0)" style="fill:none;stroke:#000000;stroke-linecap:square;stroke-width:1.5;"/>
    <g clip-path="url(#pd57fc29af0)">
     <use style="fill:none;stroke:#000000;stroke-linejoin:miter;stroke-width:1.5;" x="-1" xlink:href="#m19f8f402ef" y="572.898586"/>
     <use style="fill:none;stroke:#000000;stroke-linejoin:miter;stroke-width:1.5;" x="450.672" xlink:href="#m19f8f402ef" y="572.898586"/>
    </g>
   </g>
   <g id="line2d_132">
    <path clip-path="url(#pd57fc29af0)" d="M -1 287.525086 
L 62.802389 287.525086 
L 62.802389 283.770171 
L 97.336996 283.770171 
L 97.336996 280.015257 
L 97.336996 280.015257 
L 97.336996 276.260342 
L 97.336996 276.260342 
L 97.336996 272.505428 
L 97.336996 272.505428 
L 97.336996 268.750513 
L 97.336996 268.750513 
L 97.336996 264.995599 
L 97.336996 264.995599 
L 97.336996 261.240684 
L 106.51423 261.240684 
L 106.51423 257.48577 
L 106.51423 257.48577 
L 106.51423 253.730855 
L 113.654641 253.730855 
L 113.654641 249.975941 
L 113.654641 249.975941 
L 113.654641 246.221026 
L 119.50014 246.221026 
L 119.50014 242.466112 
L 119.50014 242.466112 
L 119.50014 238.711197 
L 119.50014 238.711197 
L 119.50014 234.956283 
L 119.50014 234.956283 
L 119.50014 231.201368 
L 124.449066 231.201368 
L 124.449066 227.446454 
L 124.449066 227.446454 
L 124.449066 223.691539 
L 124.449066 223.691539 
L 124.449066 219.936625 
L 124.449066 219.936625 
L 124.449066 216.18171 
L 124.449066 216.18171 
L 124.449066 212.426796 
L 128.740226 212.426796 
L 128.740226 208.671881 
L 128.740226 208.671881 
L 128.740226 204.916967 
L 128.740226 204.916967 
L 128.740226 201.162052 
L 128.740226 201.162052 
L 128.740226 197.407138 
L 128.740226 197.407138 
L 128.740226 193.652223 
L 132.52813 193.652223 
L 132.52813 189.897309 
L 132.52813 189.897309 
L 132.52813 186.142394 
L 132.52813 186.142394 
L 132.52813 182.38748 
L 132.52813 182.38748 
L 132.52813 178.632565 
L 132.52813 178.632565 
L 132.52813 174.877651 
L 135.918527 174.877651 
L 135.918527 171.122736 
L 135.918527 171.122736 
L 135.918527 167.367822 
L 135.918527 167.367822 
L 135.918527 163.612907 
L 135.918527 163.612907 
L 135.918527 159.857993 
L 138.986978 159.857993 
L 138.986978 156.103079 
L 138.986978 156.103079 
L 138.986978 152.348164 
L 138.986978 152.348164 
L 138.986978 148.59325 
L 144.368155 148.59325 
L 144.368155 144.838335 
L 146.756419 144.838335 
L 146.756419 141.083421 
L 151.061198 141.083421 
L 151.061198 137.328506 
L 153.016189 137.328506 
L 153.016189 133.573592 
L 154.859708 133.573592 
L 154.859708 129.818677 
L 166.725882 129.818677 
L 166.725882 126.063763 
L 179.819153 126.063763 
L 179.819153 122.308848 
L 186.526939 122.308848 
L 186.526939 118.553934 
L 188.48569 118.553934 
L 188.48569 114.799019 
L 191.507686 114.799019 
L 191.507686 111.044105 
L 192.079619 111.044105 
L 192.079619 107.28919 
L 192.079619 107.28919 
L 192.079619 103.534276 
L 192.641613 103.534276 
L 192.641613 99.779361 
L 196.323781 99.779361 
L 196.323781 96.024447 
L 200.51476 96.024447 
L 200.51476 92.269532 
L 203.034524 92.269532 
L 203.034524 88.514618 
L 205.372075 88.514618 
L 205.372075 84.759703 
L 206.480401 84.759703 
L 206.480401 81.004789 
L 209.922394 81.004789 
L 209.922394 77.249874 
L 231.837776 77.249874 
L 231.837776 73.49496 
L 234.540387 73.49496 
L 234.540387 69.740045 
L 236.175994 69.740045 
L 236.175994 65.985131 
L 236.175994 65.985131 
L 236.175994 65.985131 
L 450.672 65.985131 
" style="fill:none;stroke:#000000;stroke-linecap:square;stroke-width:1.5;"/>
   </g>
   <g id="line2d_133">
    <defs>
     <path d="M 0 7.5 
C 1.989023 7.5 3.896849 6.709753 5.303301 5.303301 
C 6.709753 3.896849 7.5 1.989023 7.5 0 
C 7.5 -1.989023 6.709753 -3.896849 5.303301 -5.303301 
C 3.896849 -6.709753 1.989023 -7.5 0 -7.5 
C -1.989023 -7.5 -3.896849 -6.709753 -5.303301 -5.303301 
C -6.709753 -3.896849 -7.5 -1.989023 -7.5 0 
C -7.5 1.989023 -6.709753 3.896849 -5.303301 5.303301 
C -3.896849 6.709753 -1.989023 7.5 0 7.5 
z
" id="m974d344433" style="stroke:#000000;stroke-width:1.5;"/>
    </defs>
    <g clip-path="url(#pd57fc29af0)">
     <use style="fill:none;stroke:#000000;stroke-width:1.5;" x="132.52813" xlink:href="#m974d344433" y="182.38748"/>
     <use style="fill:none;stroke:#000000;stroke-width:1.5;" x="166.725882" xlink:href="#m974d344433" y="129.818677"/>
     <use style="fill:none;stroke:#000000;stroke-width:1.5;" x="209.922394" xlink:href="#m974d344433" y="81.004789"/>
     <use style="fill:none;stroke:#000000;stroke-width:1.5;" x="236.175994" xlink:href="#m974d344433" y="65.985131"/>
    </g>
   </g>
   <g id="line2d_134">
    <path clip-path="url(#pd57fc29af0)" style="fill:none;stroke:#000000;stroke-linecap:square;stroke-width:1.5;"/>
   </g>
   <g id="line2d_135"/>
   <g id="line2d_136">
    <path clip-path="url(#pd57fc29af0)" d="M 170.251336 291.28 
L 170.251336 287.525086 
L 215.045141 287.525086 
L 215.045141 283.770171 
L 272.370925 283.770171 
L 272.370925 280.015257 
L 274.256143 280.015257 
L 274.256143 276.260342 
L 287.900034 276.260342 
L 287.900034 272.505428 
L 293.135273 272.505428 
L 293.135273 268.750513 
L 296.425264 268.750513 
L 296.425264 264.995599 
L 296.627177 264.995599 
L 296.627177 261.240684 
L 296.649534 261.240684 
L 296.649534 257.48577 
L 302.853445 257.48577 
L 302.853445 253.730855 
L 308.617203 253.730855 
L 308.617203 249.975941 
L 312.013745 249.975941 
L 312.013745 246.221026 
L 314.164264 246.221026 
L 314.164264 242.466112 
L 314.744196 242.466112 
L 314.744196 238.711197 
L 317.214663 238.711197 
L 317.214663 234.956283 
L 325.700461 234.956283 
L 325.700461 231.201368 
L 327.531777 231.201368 
L 327.531777 227.446454 
L 332.156249 227.446454 
L 332.156249 223.691539 
L 335.199272 223.691539 
L 335.199272 219.936625 
L 336.846235 219.936625 
L 336.846235 216.18171 
L 336.846235 216.18171 
L 336.846235 216.18171 
L 450.672 216.18171 
" style="fill:none;stroke:#00bfbf;stroke-linecap:square;stroke-width:1.5;"/>
   </g>
   <g id="line2d_137">
    <defs>
     <path d="M 0 7.5 
C 1.989023 7.5 3.896849 6.709753 5.303301 5.303301 
C 6.709753 3.896849 7.5 1.989023 7.5 0 
C 7.5 -1.989023 6.709753 -3.896849 5.303301 -5.303301 
C 3.896849 -6.709753 1.989023 -7.5 0 -7.5 
C -1.989023 -7.5 -3.896849 -6.709753 -5.303301 -5.303301 
C -6.709753 -3.896849 -7.5 -1.989023 -7.5 0 
C -7.5 1.989023 -6.709753 3.896849 -5.303301 5.303301 
C -3.896849 6.709753 -1.989023 7.5 0 7.5 
z
" id="m2c2ee4ace8" style="stroke:#00bfbf;stroke-width:1.5;"/>
    </defs>
    <g clip-path="url(#pd57fc29af0)">
     <use style="fill:none;stroke:#00bfbf;stroke-width:1.5;" x="170.251336" xlink:href="#m2c2ee4ace8" y="291.28"/>
     <use style="fill:none;stroke:#00bfbf;stroke-width:1.5;" x="272.370925" xlink:href="#m2c2ee4ace8" y="283.770171"/>
     <use style="fill:none;stroke:#00bfbf;stroke-width:1.5;" x="312.013745" xlink:href="#m2c2ee4ace8" y="249.975941"/>
     <use style="fill:none;stroke:#00bfbf;stroke-width:1.5;" x="336.846235" xlink:href="#m2c2ee4ace8" y="219.936625"/>
     <use style="fill:none;stroke:#00bfbf;stroke-width:1.5;" x="336.846235" xlink:href="#m2c2ee4ace8" y="216.18171"/>
    </g>
   </g>
   <g id="line2d_138">
    <path clip-path="url(#pd57fc29af0)" style="fill:none;stroke:#00bfbf;stroke-linecap:square;stroke-width:1.5;"/>
   </g>
   <g id="line2d_139"/>
   <g id="line2d_140">
    <path clip-path="url(#pd57fc29af0)" d="M 206.115163 291.28 
L 206.115163 287.525086 
L 228.523213 287.525086 
L 228.523213 283.770171 
L 275.483225 283.770171 
L 275.483225 280.015257 
L 276.037493 280.015257 
L 276.037493 276.260342 
L 290.434432 276.260342 
L 290.434432 272.505428 
L 295.99482 272.505428 
L 295.99482 268.750513 
L 297.378779 268.750513 
L 297.378779 264.995599 
L 298.894141 264.995599 
L 298.894141 261.240684 
L 299.226045 261.240684 
L 299.226045 257.48577 
L 303.510853 257.48577 
L 303.510853 253.730855 
L 309.680112 253.730855 
L 309.680112 249.975941 
L 312.74206 249.975941 
L 312.74206 246.221026 
L 315.188172 246.221026 
L 315.188172 242.466112 
L 315.42666 242.466112 
L 315.42666 238.711197 
L 317.649553 238.711197 
L 317.649553 234.956283 
L 325.990428 234.956283 
L 325.990428 231.201368 
L 328.229487 231.201368 
L 328.229487 227.446454 
L 332.958814 227.446454 
L 332.958814 223.691539 
L 336.036543 223.691539 
L 336.036543 219.936625 
L 337.186223 219.936625 
L 337.186223 216.18171 
L 337.186223 216.18171 
L 337.186223 216.18171 
L 450.672 216.18171 
" style="fill:none;stroke:#bf00bf;stroke-linecap:square;stroke-width:1.5;"/>
   </g>
   <g id="line2d_141">
    <defs>
     <path d="M 0 7.5 
C 1.989023 7.5 3.896849 6.709753 5.303301 5.303301 
C 6.709753 3.896849 7.5 1.989023 7.5 0 
C 7.5 -1.989023 6.709753 -3.896849 5.303301 -5.303301 
C 3.896849 -6.709753 1.989023 -7.5 0 -7.5 
C -1.989023 -7.5 -3.896849 -6.709753 -5.303301 -5.303301 
C -6.709753 -3.896849 -7.5 -1.989023 -7.5 0 
C -7.5 1.989023 -6.709753 3.896849 -5.303301 5.303301 
C -3.896849 6.709753 -1.989023 7.5 0 7.5 
z
" id="m6dfb75a81c" style="stroke:#bf00bf;stroke-width:1.5;"/>
    </defs>
    <g clip-path="url(#pd57fc29af0)">
     <use style="fill:none;stroke:#bf00bf;stroke-width:1.5;" x="206.115163" xlink:href="#m6dfb75a81c" y="291.28"/>
     <use style="fill:none;stroke:#bf00bf;stroke-width:1.5;" x="290.434432" xlink:href="#m6dfb75a81c" y="276.260342"/>
     <use style="fill:none;stroke:#bf00bf;stroke-width:1.5;" x="332.958814" xlink:href="#m6dfb75a81c" y="227.446454"/>
     <use style="fill:none;stroke:#bf00bf;stroke-width:1.5;" x="337.186223" xlink:href="#m6dfb75a81c" y="216.18171"/>
    </g>
   </g>
   <g id="line2d_142">
    <path clip-path="url(#pd57fc29af0)" style="fill:none;stroke:#bf00bf;stroke-linecap:square;stroke-width:1.5;"/>
   </g>
   <g id="line2d_143"/>
   <g id="line2d_144">
    <path clip-path="url(#pd57fc29af0)" d="M 246.931208 291.28 
L 246.931208 287.525086 
L 319.065798 287.525086 
L 319.065798 283.770171 
L 319.065798 283.770171 
L 319.065798 283.770171 
L 450.672 283.770171 
" style="fill:none;stroke:#ff0000;stroke-linecap:square;stroke-width:3;"/>
   </g>
   <g id="line2d_145">
    <defs>
     <path d="M 0 7.5 
C 1.989023 7.5 3.896849 6.709753 5.303301 5.303301 
C 6.709753 3.896849 7.5 1.989023 7.5 0 
C 7.5 -1.989023 6.709753 -3.896849 5.303301 -5.303301 
C 3.896849 -6.709753 1.989023 -7.5 0 -7.5 
C -1.989023 -7.5 -3.896849 -6.709753 -5.303301 -5.303301 
C -6.709753 -3.896849 -7.5 -1.989023 -7.5 0 
C -7.5 1.989023 -6.709753 3.896849 -5.303301 5.303301 
C -3.896849 6.709753 -1.989023 7.5 0 7.5 
z
" id="m0ee59ae0ad" style="stroke:#ff0000;stroke-width:3;"/>
    </defs>
    <g clip-path="url(#pd57fc29af0)">
     <use style="fill:none;stroke:#ff0000;stroke-width:3;" x="246.931208" xlink:href="#m0ee59ae0ad" y="291.28"/>
     <use style="fill:none;stroke:#ff0000;stroke-width:3;" x="319.065798" xlink:href="#m0ee59ae0ad" y="287.525086"/>
     <use style="fill:none;stroke:#ff0000;stroke-width:3;" x="319.065798" xlink:href="#m0ee59ae0ad" y="283.770171"/>
    </g>
   </g>
   <g id="line2d_146">
    <path clip-path="url(#pd57fc29af0)" style="fill:none;stroke:#ff0000;stroke-linecap:square;stroke-width:3;"/>
   </g>
   <g id="line2d_147">
    <path clip-path="url(#pd57fc29af0)" d="M 231.078853 291.28 
L 231.078853 6.845228 
" style="fill:none;stroke:#000000;stroke-linecap:square;stroke-width:1.5;"/>
    <defs>
     <path d="M -10 0 
L 10 0 
M 0 10 
L 0 -10 
" id="mb1868ac47b" style="stroke:#000000;stroke-width:3;"/>
    </defs>
    <g clip-path="url(#pd57fc29af0)">
     <use style="stroke:#000000;stroke-width:3;" x="231.078853" xlink:href="#mb1868ac47b" y="291.28"/>
     <use style="stroke:#000000;stroke-width:3;" x="231.078853" xlink:href="#mb1868ac47b" y="6.845228"/>
    </g>
   </g>
   <g id="line2d_148">
    <path clip-path="url(#pd57fc29af0)" d="M 381.62143 291.28 
L 381.62143 6.845228 
" style="fill:none;stroke:#000000;stroke-linecap:square;stroke-width:1.5;"/>
    <defs>
     <path d="M 0 7.5 
C 1.989023 7.5 3.896849 6.709753 5.303301 5.303301 
C 6.709753 3.896849 7.5 1.989023 7.5 0 
C 7.5 -1.989023 6.709753 -3.896849 5.303301 -5.303301 
C 3.896849 -6.709753 1.989023 -7.5 0 -7.5 
C -1.989023 -7.5 -3.896849 -6.709753 -5.303301 -5.303301 
C -6.709753 -3.896849 -7.5 -1.989023 -7.5 0 
C -7.5 1.989023 -6.709753 3.896849 -5.303301 5.303301 
C -3.896849 6.709753 -1.989023 7.5 0 7.5 
z
" id="mab49c074f9" style="stroke:#000000;stroke-width:3;"/>
    </defs>
    <g clip-path="url(#pd57fc29af0)">
     <use style="fill:none;stroke:#000000;stroke-width:3;" x="381.62143" xlink:href="#mab49c074f9" y="291.28"/>
     <use style="fill:none;stroke:#000000;stroke-width:3;" x="381.62143" xlink:href="#mab49c074f9" y="6.845228"/>
    </g>
   </g>
   <g id="patch_3">
    <path d="M 59.72 291.28 
L 59.72 6.845228 
" style="fill:none;stroke:#000000;stroke-linecap:square;stroke-linejoin:miter;stroke-width:0.8;"/>
   </g>
   <g id="patch_4">
    <path d="M 450.672 291.28 
L 450.672 6.845228 
" style="fill:none;stroke:#000000;stroke-linecap:square;stroke-linejoin:miter;stroke-width:0.8;"/>
   </g>
   <g id="patch_5">
    <path d="M 59.72 291.28 
L 450.672 291.28 
" style="fill:none;stroke:#000000;stroke-linecap:square;stroke-linejoin:miter;stroke-width:0.8;"/>
   </g>
   <g id="patch_6">
    <path d="M 59.72 6.845228 
L 450.672 6.845228 
" style="fill:none;stroke:#000000;stroke-linecap:square;stroke-linejoin:miter;stroke-width:0.8;"/>
   </g>
   <g id="text_12">
    <!-- f20-f24 -->
    <defs>
     <path d="M 4.890625 31.390625 
L 31.203125 31.390625 
L 31.203125 23.390625 
L 4.890625 23.390625 
z
" id="DejaVuSans-2d"/>
    </defs>
    <g transform="translate(219.097563 27.730798)scale(0.2 -0.2)">
     <use xlink:href="#DejaVuSans-66"/>
     <use x="35.205078" xlink:href="#DejaVuSans-32"/>
     <use x="98.828125" xlink:href="#DejaVuSans-30"/>
     <use x="162.451172" xlink:href="#DejaVuSans-2d"/>
     <use x="198.535156" xlink:href="#DejaVuSans-66"/>
     <use x="233.740234" xlink:href="#DejaVuSans-32"/>
     <use x="297.363281" xlink:href="#DejaVuSans-34"/>
    </g>
   </g>
   <g id="text_13">
    <!-- absolute targets -->
    <defs>
     <path d="M 48.6875 27.296875 
Q 48.6875 37.203125 44.609375 42.84375 
Q 40.53125 48.484375 33.40625 48.484375 
Q 26.265625 48.484375 22.1875 42.84375 
Q 18.109375 37.203125 18.109375 27.296875 
Q 18.109375 17.390625 22.1875 11.75 
Q 26.265625 6.109375 33.40625 6.109375 
Q 40.53125 6.109375 44.609375 11.75 
Q 48.6875 17.390625 48.6875 27.296875 
z
M 18.109375 46.390625 
Q 20.953125 51.265625 25.265625 53.625 
Q 29.59375 56 35.59375 56 
Q 45.5625 56 51.78125 48.09375 
Q 58.015625 40.1875 58.015625 27.296875 
Q 58.015625 14.40625 51.78125 6.484375 
Q 45.5625 -1.421875 35.59375 -1.421875 
Q 29.59375 -1.421875 25.265625 0.953125 
Q 20.953125 3.328125 18.109375 8.203125 
L 18.109375 0 
L 9.078125 0 
L 9.078125 75.984375 
L 18.109375 75.984375 
z
" id="DejaVuSans-62"/>
     <path d="M 8.5 21.578125 
L 8.5 54.6875 
L 17.484375 54.6875 
L 17.484375 21.921875 
Q 17.484375 14.15625 20.5 10.265625 
Q 23.53125 6.390625 29.59375 6.390625 
Q 36.859375 6.390625 41.078125 11.03125 
Q 45.3125 15.671875 45.3125 23.6875 
L 45.3125 54.6875 
L 54.296875 54.6875 
L 54.296875 0 
L 45.3125 0 
L 45.3125 8.40625 
Q 42.046875 3.421875 37.71875 1 
Q 33.40625 -1.421875 27.6875 -1.421875 
Q 18.265625 -1.421875 13.375 4.4375 
Q 8.5 10.296875 8.5 21.578125 
z
M 31.109375 56 
z
" id="DejaVuSans-75"/>
     <path d="M 56.203125 29.59375 
L 56.203125 25.203125 
L 14.890625 25.203125 
Q 15.484375 15.921875 20.484375 11.0625 
Q 25.484375 6.203125 34.421875 6.203125 
Q 39.59375 6.203125 44.453125 7.46875 
Q 49.3125 8.734375 54.109375 11.28125 
L 54.109375 2.78125 
Q 49.265625 0.734375 44.1875 -0.34375 
Q 39.109375 -1.421875 33.890625 -1.421875 
Q 20.796875 -1.421875 13.15625 6.1875 
Q 5.515625 13.8125 5.515625 26.8125 
Q 5.515625 40.234375 12.765625 48.109375 
Q 20.015625 56 32.328125 56 
Q 43.359375 56 49.78125 48.890625 
Q 56.203125 41.796875 56.203125 29.59375 
z
M 47.21875 32.234375 
Q 47.125 39.59375 43.09375 43.984375 
Q 39.0625 48.390625 32.421875 48.390625 
Q 24.90625 48.390625 20.390625 44.140625 
Q 15.875 39.890625 15.1875 32.171875 
z
" id="DejaVuSans-65"/>
    </defs>
    <g transform="translate(59.72 598.244259)scale(0.14 -0.14)">
     <use xlink:href="#DejaVuSans-61"/>
     <use x="61.279297" xlink:href="#DejaVuSans-62"/>
     <use x="124.755859" xlink:href="#DejaVuSans-73"/>
     <use x="176.855469" xlink:href="#DejaVuSans-6f"/>
     <use x="238.037109" xlink:href="#DejaVuSans-6c"/>
     <use x="265.820312" xlink:href="#DejaVuSans-75"/>
     <use x="329.199219" xlink:href="#DejaVuSans-74"/>
     <use x="368.408203" xlink:href="#DejaVuSans-65"/>
     <use x="429.931641" xlink:href="#DejaVuSans-20"/>
     <use x="461.71875" xlink:href="#DejaVuSans-74"/>
     <use x="500.927734" xlink:href="#DejaVuSans-61"/>
     <use x="562.207031" xlink:href="#DejaVuSans-72"/>
     <use x="603.304688" xlink:href="#DejaVuSans-67"/>
     <use x="666.78125" xlink:href="#DejaVuSans-65"/>
     <use x="728.304688" xlink:href="#DejaVuSans-74"/>
     <use x="767.513672" xlink:href="#DejaVuSans-73"/>
    </g>
   </g>
   <g id="text_14">
    <!-- v0.0.0 -->
    <g style="fill:#808080;" transform="translate(239.51475 286.355965)scale(0.1 -0.1)">
     <use xlink:href="#DejaVuSans-76"/>
     <use x="59.179688" xlink:href="#DejaVuSans-30"/>
     <use x="122.802734" xlink:href="#DejaVuSans-2e"/>
     <use x="154.589844" xlink:href="#DejaVuSans-30"/>
     <use x="218.212891" xlink:href="#DejaVuSans-2e"/>
     <use x="250" xlink:href="#DejaVuSans-30"/>
    </g>
   </g>
   <g id="legend_1">
    <g id="patch_7">
     <path d="M 213.225687 210.775114 
L 297.166313 210.775114 
Q 301.166313 210.775114 301.166313 206.775114 
L 301.166313 91.350114 
Q 301.166313 87.350114 297.166313 87.350114 
L 213.225687 87.350114 
Q 209.225687 87.350114 209.225687 91.350114 
L 209.225687 206.775114 
Q 209.225687 210.775114 213.225687 210.775114 
z
" style="fill:#ffffff;opacity:0.2;stroke:#cccccc;stroke-linejoin:miter;"/>
    </g>
    <g id="line2d_149">
     <path d="M 217.225687 103.546989 
L 257.225687 103.546989 
" style="fill:none;stroke:#000000;stroke-linecap:square;stroke-width:1.5;"/>
    </g>
    <g id="line2d_150"/>
    <g id="text_15">
     <!-- 1 -->
     <g transform="translate(273.225687 110.546989)scale(0.2 -0.2)">
      <use xlink:href="#DejaVuSans-31"/>
     </g>
    </g>
    <g id="line2d_151">
     <path d="M 217.225687 132.903239 
L 257.225687 132.903239 
" style="fill:none;stroke:#00bfbf;stroke-linecap:square;stroke-width:1.5;"/>
    </g>
    <g id="line2d_152"/>
    <g id="text_16">
     <!-- -1 -->
     <g transform="translate(273.225687 139.903239)scale(0.2 -0.2)">
      <use xlink:href="#DejaVuSans-2d"/>
      <use x="36.083984" xlink:href="#DejaVuSans-31"/>
     </g>
    </g>
    <g id="line2d_153">
     <path d="M 217.225687 162.259489 
L 257.225687 162.259489 
" style="fill:none;stroke:#bf00bf;stroke-linecap:square;stroke-width:1.5;"/>
    </g>
    <g id="line2d_154"/>
    <g id="text_17">
     <!-- -4 -->
     <g transform="translate(273.225687 169.259489)scale(0.2 -0.2)">
      <use xlink:href="#DejaVuSans-2d"/>
      <use x="36.083984" xlink:href="#DejaVuSans-34"/>
     </g>
    </g>
    <g id="line2d_155">
     <path d="M 217.225687 191.615739 
L 257.225687 191.615739 
" style="fill:none;stroke:#ff0000;stroke-linecap:square;stroke-width:3;"/>
    </g>
    <g id="line2d_156"/>
    <g id="text_18">
     <!-- -8 -->
     <g transform="translate(273.225687 198.615739)scale(0.2 -0.2)">
      <use xlink:href="#DejaVuSans-2d"/>
      <use x="36.083984" xlink:href="#DejaVuSans-38"/>
     </g>
    </g>
   </g>
  </g>
 </g>
 <defs>
  <clipPath id="pd57fc29af0">
   <rect height="284.434772" width="390.952" x="59.72" y="6.845228"/>
  </clipPath>
 </defs>
</svg>
