<?xml version="1.0" encoding="utf-8" standalone="no"?>
<!DOCTYPE svg PUBLIC "-//W3C//DTD SVG 1.1//EN"
  "http://www.w3.org/Graphics/SVG/1.1/DTD/svg11.dtd">
<!-- Created with matplotlib (http://matplotlib.org/) -->
<svg height="345pt" version="1.1" viewBox="0 0 460 345" width="460pt" xmlns="http://www.w3.org/2000/svg" xmlns:xlink="http://www.w3.org/1999/xlink">
 <defs>
  <style type="text/css">
*{stroke-linecap:butt;stroke-linejoin:round;}
  </style>
 </defs>
 <g id="figure_1">
  <g id="patch_1">
   <path d="M 0 345.6 
L 460.8 345.6 
L 460.8 0 
L 0 0 
z
" style="fill:#ffffff;"/>
  </g>
  <g id="axes_1">
   <g id="patch_2">
    <path d="M 56.12 294.88 
L 333.168 294.88 
L 333.168 6.845228 
L 56.12 6.845228 
z
" style="fill:#ffffff;"/>
   </g>
   <g id="line2d_1">
    <path d="M 90.981092 294.88 
L 90.981092 293.482044 
L 103.723206 293.482044 
L 103.723206 292.084089 
L 105.657695 292.084089 
L 105.657695 290.686133 
L 105.896762 290.686133 
L 105.896762 289.288178 
L 108.286687 289.288178 
L 108.286687 287.890222 
L 108.410199 287.890222 
L 108.410199 286.492266 
L 111.889263 286.492266 
L 111.889263 285.094311 
L 112.122219 285.094311 
L 112.122219 283.696355 
L 113.396034 283.696355 
L 113.396034 282.2984 
L 114.351204 282.2984 
L 114.351204 280.900444 
L 115.664378 280.900444 
L 115.664378 279.502488 
L 116.834124 279.502488 
L 116.834124 278.104533 
L 117.033994 278.104533 
L 117.033994 276.706577 
L 118.554421 276.706577 
L 118.554421 275.308622 
L 119.223324 275.308622 
L 119.223324 273.910666 
L 121.665528 273.910666 
L 121.665528 272.51271 
L 122.133402 272.51271 
L 122.133402 271.114755 
L 122.624799 271.114755 
L 122.624799 269.716799 
L 124.653315 269.716799 
L 124.653315 268.318844 
L 127.819033 268.318844 
L 127.819033 266.920888 
L 128.533435 266.920888 
L 128.533435 265.522932 
L 129.984454 265.522932 
L 130.077743 262.727021 
L 131.928242 262.727021 
L 131.928242 261.329066 
L 132.644112 261.329066 
L 132.644112 259.93111 
L 134.158073 259.93111 
L 134.158073 258.533154 
L 135.591655 258.533154 
L 135.608524 255.737243 
L 135.717765 255.737243 
L 135.717765 254.339288 
L 137.997274 254.339288 
L 138.033915 251.543376 
L 138.960174 251.543376 
L 138.960174 250.145421 
L 139.885134 250.145421 
L 139.885134 248.747465 
L 141.090735 248.747465 
L 141.090735 247.34951 
L 141.538318 247.34951 
L 141.538318 245.951554 
L 142.125218 245.951554 
L 142.125218 244.553598 
L 142.382924 244.553598 
L 142.382924 243.155643 
L 142.524441 243.155643 
L 142.524441 241.757687 
L 142.636822 241.757687 
L 142.636822 240.359732 
L 142.82066 240.359732 
L 142.82066 238.961776 
L 143.057293 238.961776 
L 143.057293 237.56382 
L 143.301492 237.56382 
L 143.312265 234.767909 
L 143.489055 234.767909 
L 143.489055 233.369954 
L 143.632361 233.369954 
L 143.632361 231.971998 
L 143.763994 231.971998 
L 143.873793 229.176087 
L 143.972533 229.176087 
L 144.075862 226.380175 
L 144.173452 226.380175 
L 144.173452 224.98222 
L 144.29085 224.98222 
L 144.392288 222.186309 
L 144.457904 222.186309 
L 144.523269 217.992442 
L 144.598384 217.992442 
L 144.673171 213.798575 
L 144.74268 213.798575 
L 144.806974 211.002664 
L 144.871028 211.002664 
L 144.949537 208.206753 
L 145.037434 208.206753 
L 145.105489 205.410841 
L 145.173275 205.410841 
L 145.255229 202.61493 
L 145.293661 202.61493 
L 145.351148 199.819019 
L 145.408443 199.819019 
L 145.489287 195.625152 
L 145.522465 195.625152 
L 145.593346 191.431285 
L 145.673326 191.431285 
L 145.734237 188.635374 
L 145.818221 188.635374 
L 145.920313 184.441507 
L 145.975746 184.441507 
L 146.072324 178.849685 
L 146.13184 178.849685 
L 146.236635 174.655818 
L 146.390389 174.655818 
L 146.403889 171.859907 
L 146.627354 171.859907 
L 146.627354 170.461951 
L 146.830406 170.461951 
L 146.904844 166.268085 
L 147.0007 166.268085 
L 147.0007 164.870129 
L 147.143489 164.870129 
L 147.143489 163.472173 
L 147.267998 163.472173 
L 147.361855 160.676262 
L 147.459434 160.676262 
L 147.560668 156.482395 
L 147.652945 156.482395 
L 147.740567 153.686484 
L 147.815319 153.686484 
L 147.873235 150.890573 
L 147.939186 150.890573 
L 147.988485 148.094662 
L 148.053996 148.094662 
L 148.107041 145.298751 
L 148.172104 145.298751 
L 148.265202 139.706928 
L 148.329669 139.706928 
L 148.397902 135.513061 
L 148.469854 135.513061 
L 148.545479 132.71715 
L 148.604948 132.71715 
L 148.71541 128.523283 
L 148.746841 128.523283 
L 148.852497 124.329417 
L 148.899248 124.329417 
L 148.988499 120.13555 
L 149.034882 120.13555 
L 149.115752 115.941683 
L 149.154128 115.941683 
L 149.238255 111.747816 
L 149.283969 111.747816 
L 149.367465 106.155994 
L 150.389017 106.155994 
L 150.389017 104.758038 
L 150.85013 104.758038 
L 150.85013 103.360082 
L 151.299196 103.360082 
L 151.299196 101.962127 
L 151.766488 101.962127 
L 151.766488 100.564171 
L 152.163592 100.564171 
L 152.163592 99.166216 
L 152.708304 99.166216 
L 152.708304 97.76826 
L 153.224185 97.76826 
L 153.224185 96.370304 
L 153.497289 96.370304 
L 153.497289 94.972349 
L 154.033698 94.972349 
L 154.033698 93.574393 
L 154.718279 93.574393 
L 154.718279 92.176438 
L 155.161776 92.176438 
L 155.161776 90.778482 
L 155.520164 90.778482 
L 155.520164 89.380526 
L 155.788044 89.380526 
L 155.788044 87.982571 
L 156.128628 87.982571 
L 156.128628 86.584615 
L 156.510136 86.584615 
L 156.510136 85.18666 
L 156.790197 85.18666 
L 156.829485 82.390748 
L 157.231888 82.390748 
L 157.231888 80.992793 
L 157.549986 80.992793 
L 157.549986 79.594837 
L 157.813731 79.594837 
L 157.813731 78.196882 
L 158.264074 78.196882 
L 158.264074 76.798926 
L 158.691918 76.798926 
L 158.691918 75.40097 
L 159.003793 75.40097 
L 159.003793 74.003015 
L 159.259079 74.003015 
L 159.259079 72.605059 
L 159.596453 72.605059 
L 159.596453 71.207104 
L 159.962116 71.207104 
L 159.962116 69.809148 
L 160.118794 69.809148 
L 160.118794 68.411192 
L 160.554783 68.411192 
L 160.554783 67.013237 
L 160.879512 67.013237 
L 160.964566 64.217326 
L 161.454997 64.217326 
L 161.550308 61.421414 
L 161.836777 61.421414 
L 161.836777 60.023459 
L 162.064372 60.023459 
L 162.064372 58.625503 
L 162.840622 58.625503 
L 162.840622 57.227548 
L 163.869043 57.227548 
L 163.869043 55.829592 
L 168.375593 55.829592 
L 168.375593 54.431636 
L 171.323858 54.431636 
L 171.323858 53.033681 
L 171.572191 53.033681 
L 171.641749 20.880702 
L 171.716186 20.880702 
L 171.716186 19.482746 
L 171.857961 19.482746 
L 171.857961 18.084791 
L 172.030007 18.084791 
L 172.084619 15.28888 
L 172.150126 15.28888 
L 172.150126 13.890924 
L 172.349141 13.890924 
L 172.349141 12.492968 
L 172.637055 12.492968 
L 172.637055 11.095013 
L 172.873996 11.095013 
L 172.873996 9.697057 
L 333.168 9.697057 
L 333.168 9.697057 
" style="fill:none;stroke:#f5deb3;stroke-linecap:square;stroke-width:4;"/>
   </g>
   <g id="line2d_2">
    <defs>
     <path d="M -0 7.778175 
L 7.778175 0 
L 0 -7.778175 
L -7.778175 -0 
z
" id="m09f1223711" style="stroke:#f5deb3;stroke-linejoin:miter;stroke-width:1.5;"/>
    </defs>
    <g>
     <use style="fill:#f5deb3;stroke:#f5deb3;stroke-linejoin:miter;stroke-width:1.5;" x="144.806974" xlink:href="#m09f1223711" y="212.400619"/>
     <use style="fill:#f5deb3;stroke:#f5deb3;stroke-linejoin:miter;stroke-width:1.5;" x="160.554783" xlink:href="#m09f1223711" y="68.411192"/>
     <use style="fill:#f5deb3;stroke:#f5deb3;stroke-linejoin:miter;stroke-width:1.5;" x="172.873996" xlink:href="#m09f1223711" y="9.697057"/>
     <use style="fill:#f5deb3;stroke:#f5deb3;stroke-linejoin:miter;stroke-width:1.5;" x="172.873996" xlink:href="#m09f1223711" y="9.697057"/>
     <use style="fill:#f5deb3;stroke:#f5deb3;stroke-linejoin:miter;stroke-width:1.5;" x="333.168" xlink:href="#m09f1223711" y="9.697057"/>
    </g>
   </g>
   <g id="line2d_3">
    <path style="fill:none;stroke:#f5deb3;stroke-linecap:square;stroke-width:4;"/>
    <g/>
   </g>
   <g id="line2d_4">
    <path d="M 333.168 9.697057 
L 363.64328 15.400716 
" style="fill:none;stroke:#f5deb3;stroke-linecap:square;stroke-width:4;"/>
    <g>
     <use style="fill:#f5deb3;stroke:#f5deb3;stroke-linejoin:miter;stroke-width:1.5;" x="333.168" xlink:href="#m09f1223711" y="9.697057"/>
     <use style="fill:#f5deb3;stroke:#f5deb3;stroke-linejoin:miter;stroke-width:1.5;" x="363.64328" xlink:href="#m09f1223711" y="15.400716"/>
    </g>
   </g>
   <g id="matplotlib.axis_1">
    <g id="xtick_1">
     <g id="line2d_5">
      <path clip-path="url(#p886f9d8e43)" d="M 56.12 294.88 
L 56.12 6.845228 
" style="fill:none;stroke:#b0b0b0;stroke-linecap:square;stroke-width:0.8;"/>
     </g>
     <g id="line2d_6">
      <defs>
       <path d="M 0 0 
L 0 3.5 
" id="m06172ba3c7" style="stroke:#000000;stroke-width:0.8;"/>
      </defs>
      <g>
       <use style="stroke:#000000;stroke-width:0.8;" x="56.12" xlink:href="#m06172ba3c7" y="294.88"/>
      </g>
     </g>
     <g id="text_1">
      <!-- 0 -->
      <defs>
       <path d="M 31.78125 66.40625 
Q 24.171875 66.40625 20.328125 58.90625 
Q 16.5 51.421875 16.5 36.375 
Q 16.5 21.390625 20.328125 13.890625 
Q 24.171875 6.390625 31.78125 6.390625 
Q 39.453125 6.390625 43.28125 13.890625 
Q 47.125 21.390625 47.125 36.375 
Q 47.125 51.421875 43.28125 58.90625 
Q 39.453125 66.40625 31.78125 66.40625 
z
M 31.78125 74.21875 
Q 44.046875 74.21875 50.515625 64.515625 
Q 56.984375 54.828125 56.984375 36.375 
Q 56.984375 17.96875 50.515625 8.265625 
Q 44.046875 -1.421875 31.78125 -1.421875 
Q 19.53125 -1.421875 13.0625 8.265625 
Q 6.59375 17.96875 6.59375 36.375 
Q 6.59375 54.828125 13.0625 64.515625 
Q 19.53125 74.21875 31.78125 74.21875 
z
" id="DejaVuSans-30"/>
      </defs>
      <g transform="translate(49.7575 317.076875)scale(0.2 -0.2)">
       <use xlink:href="#DejaVuSans-30"/>
      </g>
     </g>
    </g>
    <g id="xtick_2">
     <g id="line2d_7">
      <path clip-path="url(#p886f9d8e43)" d="M 135.276571 294.88 
L 135.276571 6.845228 
" style="fill:none;stroke:#b0b0b0;stroke-linecap:square;stroke-width:0.8;"/>
     </g>
     <g id="line2d_8">
      <g>
       <use style="stroke:#000000;stroke-width:0.8;" x="135.276571" xlink:href="#m06172ba3c7" y="294.88"/>
      </g>
     </g>
     <g id="text_2">
      <!-- 2 -->
      <defs>
       <path d="M 19.1875 8.296875 
L 53.609375 8.296875 
L 53.609375 0 
L 7.328125 0 
L 7.328125 8.296875 
Q 12.9375 14.109375 22.625 23.890625 
Q 32.328125 33.6875 34.8125 36.53125 
Q 39.546875 41.84375 41.421875 45.53125 
Q 43.3125 49.21875 43.3125 52.78125 
Q 43.3125 58.59375 39.234375 62.25 
Q 35.15625 65.921875 28.609375 65.921875 
Q 23.96875 65.921875 18.8125 64.3125 
Q 13.671875 62.703125 7.8125 59.421875 
L 7.8125 69.390625 
Q 13.765625 71.78125 18.9375 73 
Q 24.125 74.21875 28.421875 74.21875 
Q 39.75 74.21875 46.484375 68.546875 
Q 53.21875 62.890625 53.21875 53.421875 
Q 53.21875 48.921875 51.53125 44.890625 
Q 49.859375 40.875 45.40625 35.40625 
Q 44.1875 33.984375 37.640625 27.21875 
Q 31.109375 20.453125 19.1875 8.296875 
z
" id="DejaVuSans-32"/>
      </defs>
      <g transform="translate(128.914071 317.076875)scale(0.2 -0.2)">
       <use xlink:href="#DejaVuSans-32"/>
      </g>
     </g>
    </g>
    <g id="xtick_3">
     <g id="line2d_9">
      <path clip-path="url(#p886f9d8e43)" d="M 214.433143 294.88 
L 214.433143 6.845228 
" style="fill:none;stroke:#b0b0b0;stroke-linecap:square;stroke-width:0.8;"/>
     </g>
     <g id="line2d_10">
      <g>
       <use style="stroke:#000000;stroke-width:0.8;" x="214.433143" xlink:href="#m06172ba3c7" y="294.88"/>
      </g>
     </g>
     <g id="text_3">
      <!-- 4 -->
      <defs>
       <path d="M 37.796875 64.3125 
L 12.890625 25.390625 
L 37.796875 25.390625 
z
M 35.203125 72.90625 
L 47.609375 72.90625 
L 47.609375 25.390625 
L 58.015625 25.390625 
L 58.015625 17.1875 
L 47.609375 17.1875 
L 47.609375 0 
L 37.796875 0 
L 37.796875 17.1875 
L 4.890625 17.1875 
L 4.890625 26.703125 
z
" id="DejaVuSans-34"/>
      </defs>
      <g transform="translate(208.070643 317.076875)scale(0.2 -0.2)">
       <use xlink:href="#DejaVuSans-34"/>
      </g>
     </g>
    </g>
    <g id="xtick_4">
     <g id="line2d_11">
      <path clip-path="url(#p886f9d8e43)" d="M 293.589714 294.88 
L 293.589714 6.845228 
" style="fill:none;stroke:#b0b0b0;stroke-linecap:square;stroke-width:0.8;"/>
     </g>
     <g id="line2d_12">
      <g>
       <use style="stroke:#000000;stroke-width:0.8;" x="293.589714" xlink:href="#m06172ba3c7" y="294.88"/>
      </g>
     </g>
     <g id="text_4">
      <!-- 6 -->
      <defs>
       <path d="M 33.015625 40.375 
Q 26.375 40.375 22.484375 35.828125 
Q 18.609375 31.296875 18.609375 23.390625 
Q 18.609375 15.53125 22.484375 10.953125 
Q 26.375 6.390625 33.015625 6.390625 
Q 39.65625 6.390625 43.53125 10.953125 
Q 47.40625 15.53125 47.40625 23.390625 
Q 47.40625 31.296875 43.53125 35.828125 
Q 39.65625 40.375 33.015625 40.375 
z
M 52.59375 71.296875 
L 52.59375 62.3125 
Q 48.875 64.0625 45.09375 64.984375 
Q 41.3125 65.921875 37.59375 65.921875 
Q 27.828125 65.921875 22.671875 59.328125 
Q 17.53125 52.734375 16.796875 39.40625 
Q 19.671875 43.65625 24.015625 45.921875 
Q 28.375 48.1875 33.59375 48.1875 
Q 44.578125 48.1875 50.953125 41.515625 
Q 57.328125 34.859375 57.328125 23.390625 
Q 57.328125 12.15625 50.6875 5.359375 
Q 44.046875 -1.421875 33.015625 -1.421875 
Q 20.359375 -1.421875 13.671875 8.265625 
Q 6.984375 17.96875 6.984375 36.375 
Q 6.984375 53.65625 15.1875 63.9375 
Q 23.390625 74.21875 37.203125 74.21875 
Q 40.921875 74.21875 44.703125 73.484375 
Q 48.484375 72.75 52.59375 71.296875 
z
" id="DejaVuSans-36"/>
      </defs>
      <g transform="translate(287.227214 317.076875)scale(0.2 -0.2)">
       <use xlink:href="#DejaVuSans-36"/>
      </g>
     </g>
    </g>
    <g id="xtick_5">
     <g id="line2d_13">
      <path clip-path="url(#p886f9d8e43)" d="M 56.12 294.88 
L 56.12 6.845228 
" style="fill:none;stroke:#b0b0b0;stroke-linecap:square;stroke-width:0.8;"/>
     </g>
     <g id="line2d_14">
      <defs>
       <path d="M 0 0 
L 0 2 
" id="ma0e96caa8d" style="stroke:#000000;stroke-width:0.6;"/>
      </defs>
      <g>
       <use style="stroke:#000000;stroke-width:0.6;" x="56.12" xlink:href="#ma0e96caa8d" y="294.88"/>
      </g>
     </g>
    </g>
    <g id="xtick_6">
     <g id="line2d_15">
      <path clip-path="url(#p886f9d8e43)" d="M 95.698286 294.88 
L 95.698286 6.845228 
" style="fill:none;stroke:#b0b0b0;stroke-linecap:square;stroke-width:0.8;"/>
     </g>
     <g id="line2d_16">
      <g>
       <use style="stroke:#000000;stroke-width:0.6;" x="95.698286" xlink:href="#ma0e96caa8d" y="294.88"/>
      </g>
     </g>
    </g>
    <g id="xtick_7">
     <g id="line2d_17">
      <path clip-path="url(#p886f9d8e43)" d="M 135.276571 294.88 
L 135.276571 6.845228 
" style="fill:none;stroke:#b0b0b0;stroke-linecap:square;stroke-width:0.8;"/>
     </g>
     <g id="line2d_18">
      <g>
       <use style="stroke:#000000;stroke-width:0.6;" x="135.276571" xlink:href="#ma0e96caa8d" y="294.88"/>
      </g>
     </g>
    </g>
    <g id="xtick_8">
     <g id="line2d_19">
      <path clip-path="url(#p886f9d8e43)" d="M 174.854857 294.88 
L 174.854857 6.845228 
" style="fill:none;stroke:#b0b0b0;stroke-linecap:square;stroke-width:0.8;"/>
     </g>
     <g id="line2d_20">
      <g>
       <use style="stroke:#000000;stroke-width:0.6;" x="174.854857" xlink:href="#ma0e96caa8d" y="294.88"/>
      </g>
     </g>
    </g>
    <g id="xtick_9">
     <g id="line2d_21">
      <path clip-path="url(#p886f9d8e43)" d="M 214.433143 294.88 
L 214.433143 6.845228 
" style="fill:none;stroke:#b0b0b0;stroke-linecap:square;stroke-width:0.8;"/>
     </g>
     <g id="line2d_22">
      <g>
       <use style="stroke:#000000;stroke-width:0.6;" x="214.433143" xlink:href="#ma0e96caa8d" y="294.88"/>
      </g>
     </g>
    </g>
    <g id="xtick_10">
     <g id="line2d_23">
      <path clip-path="url(#p886f9d8e43)" d="M 254.011429 294.88 
L 254.011429 6.845228 
" style="fill:none;stroke:#b0b0b0;stroke-linecap:square;stroke-width:0.8;"/>
     </g>
     <g id="line2d_24">
      <g>
       <use style="stroke:#000000;stroke-width:0.6;" x="254.011429" xlink:href="#ma0e96caa8d" y="294.88"/>
      </g>
     </g>
    </g>
    <g id="xtick_11">
     <g id="line2d_25">
      <path clip-path="url(#p886f9d8e43)" d="M 293.589714 294.88 
L 293.589714 6.845228 
" style="fill:none;stroke:#b0b0b0;stroke-linecap:square;stroke-width:0.8;"/>
     </g>
     <g id="line2d_26">
      <g>
       <use style="stroke:#000000;stroke-width:0.6;" x="293.589714" xlink:href="#ma0e96caa8d" y="294.88"/>
      </g>
     </g>
    </g>
    <g id="xtick_12">
     <g id="line2d_27">
      <path clip-path="url(#p886f9d8e43)" d="M 333.168 294.88 
L 333.168 6.845228 
" style="fill:none;stroke:#b0b0b0;stroke-linecap:square;stroke-width:0.8;"/>
     </g>
     <g id="line2d_28">
      <g>
       <use style="stroke:#000000;stroke-width:0.6;" x="333.168" xlink:href="#ma0e96caa8d" y="294.88"/>
      </g>
     </g>
    </g>
    <g id="text_5">
     <!-- log10(# f-evals / dimension) -->
     <defs>
      <path d="M 9.421875 75.984375 
L 18.40625 75.984375 
L 18.40625 0 
L 9.421875 0 
z
" id="DejaVuSans-6c"/>
      <path d="M 30.609375 48.390625 
Q 23.390625 48.390625 19.1875 42.75 
Q 14.984375 37.109375 14.984375 27.296875 
Q 14.984375 17.484375 19.15625 11.84375 
Q 23.34375 6.203125 30.609375 6.203125 
Q 37.796875 6.203125 41.984375 11.859375 
Q 46.1875 17.53125 46.1875 27.296875 
Q 46.1875 37.015625 41.984375 42.703125 
Q 37.796875 48.390625 30.609375 48.390625 
z
M 30.609375 56 
Q 42.328125 56 49.015625 48.375 
Q 55.71875 40.765625 55.71875 27.296875 
Q 55.71875 13.875 49.015625 6.21875 
Q 42.328125 -1.421875 30.609375 -1.421875 
Q 18.84375 -1.421875 12.171875 6.21875 
Q 5.515625 13.875 5.515625 27.296875 
Q 5.515625 40.765625 12.171875 48.375 
Q 18.84375 56 30.609375 56 
z
" id="DejaVuSans-6f"/>
      <path d="M 45.40625 27.984375 
Q 45.40625 37.75 41.375 43.109375 
Q 37.359375 48.484375 30.078125 48.484375 
Q 22.859375 48.484375 18.828125 43.109375 
Q 14.796875 37.75 14.796875 27.984375 
Q 14.796875 18.265625 18.828125 12.890625 
Q 22.859375 7.515625 30.078125 7.515625 
Q 37.359375 7.515625 41.375 12.890625 
Q 45.40625 18.265625 45.40625 27.984375 
z
M 54.390625 6.78125 
Q 54.390625 -7.171875 48.1875 -13.984375 
Q 42 -20.796875 29.203125 -20.796875 
Q 24.46875 -20.796875 20.265625 -20.09375 
Q 16.0625 -19.390625 12.109375 -17.921875 
L 12.109375 -9.1875 
Q 16.0625 -11.328125 19.921875 -12.34375 
Q 23.78125 -13.375 27.78125 -13.375 
Q 36.625 -13.375 41.015625 -8.765625 
Q 45.40625 -4.15625 45.40625 5.171875 
L 45.40625 9.625 
Q 42.625 4.78125 38.28125 2.390625 
Q 33.9375 0 27.875 0 
Q 17.828125 0 11.671875 7.65625 
Q 5.515625 15.328125 5.515625 27.984375 
Q 5.515625 40.671875 11.671875 48.328125 
Q 17.828125 56 27.875 56 
Q 33.9375 56 38.28125 53.609375 
Q 42.625 51.21875 45.40625 46.390625 
L 45.40625 54.6875 
L 54.390625 54.6875 
z
" id="DejaVuSans-67"/>
      <path d="M 12.40625 8.296875 
L 28.515625 8.296875 
L 28.515625 63.921875 
L 10.984375 60.40625 
L 10.984375 69.390625 
L 28.421875 72.90625 
L 38.28125 72.90625 
L 38.28125 8.296875 
L 54.390625 8.296875 
L 54.390625 0 
L 12.40625 0 
z
" id="DejaVuSans-31"/>
      <path d="M 31 75.875 
Q 24.46875 64.65625 21.28125 53.65625 
Q 18.109375 42.671875 18.109375 31.390625 
Q 18.109375 20.125 21.3125 9.0625 
Q 24.515625 -2 31 -13.1875 
L 23.1875 -13.1875 
Q 15.875 -1.703125 12.234375 9.375 
Q 8.59375 20.453125 8.59375 31.390625 
Q 8.59375 42.28125 12.203125 53.3125 
Q 15.828125 64.359375 23.1875 75.875 
z
" id="DejaVuSans-28"/>
      <path d="M 51.125 44 
L 36.921875 44 
L 32.8125 27.6875 
L 47.125 27.6875 
z
M 43.796875 71.78125 
L 38.71875 51.515625 
L 52.984375 51.515625 
L 58.109375 71.78125 
L 65.921875 71.78125 
L 60.890625 51.515625 
L 76.125 51.515625 
L 76.125 44 
L 58.984375 44 
L 54.984375 27.6875 
L 70.515625 27.6875 
L 70.515625 20.21875 
L 53.078125 20.21875 
L 48 0 
L 40.1875 0 
L 45.21875 20.21875 
L 30.90625 20.21875 
L 25.875 0 
L 18.015625 0 
L 23.09375 20.21875 
L 7.71875 20.21875 
L 7.71875 27.6875 
L 24.90625 27.6875 
L 29 44 
L 13.28125 44 
L 13.28125 51.515625 
L 30.90625 51.515625 
L 35.890625 71.78125 
z
" id="DejaVuSans-23"/>
      <path id="DejaVuSans-20"/>
      <path d="M 37.109375 75.984375 
L 37.109375 68.5 
L 28.515625 68.5 
Q 23.6875 68.5 21.796875 66.546875 
Q 19.921875 64.59375 19.921875 59.515625 
L 19.921875 54.6875 
L 34.71875 54.6875 
L 34.71875 47.703125 
L 19.921875 47.703125 
L 19.921875 0 
L 10.890625 0 
L 10.890625 47.703125 
L 2.296875 47.703125 
L 2.296875 54.6875 
L 10.890625 54.6875 
L 10.890625 58.5 
Q 10.890625 67.625 15.140625 71.796875 
Q 19.390625 75.984375 28.609375 75.984375 
z
" id="DejaVuSans-66"/>
      <path d="M 4.890625 31.390625 
L 31.203125 31.390625 
L 31.203125 23.390625 
L 4.890625 23.390625 
z
" id="DejaVuSans-2d"/>
      <path d="M 56.203125 29.59375 
L 56.203125 25.203125 
L 14.890625 25.203125 
Q 15.484375 15.921875 20.484375 11.0625 
Q 25.484375 6.203125 34.421875 6.203125 
Q 39.59375 6.203125 44.453125 7.46875 
Q 49.3125 8.734375 54.109375 11.28125 
L 54.109375 2.78125 
Q 49.265625 0.734375 44.1875 -0.34375 
Q 39.109375 -1.421875 33.890625 -1.421875 
Q 20.796875 -1.421875 13.15625 6.1875 
Q 5.515625 13.8125 5.515625 26.8125 
Q 5.515625 40.234375 12.765625 48.109375 
Q 20.015625 56 32.328125 56 
Q 43.359375 56 49.78125 48.890625 
Q 56.203125 41.796875 56.203125 29.59375 
z
M 47.21875 32.234375 
Q 47.125 39.59375 43.09375 43.984375 
Q 39.0625 48.390625 32.421875 48.390625 
Q 24.90625 48.390625 20.390625 44.140625 
Q 15.875 39.890625 15.1875 32.171875 
z
" id="DejaVuSans-65"/>
      <path d="M 2.984375 54.6875 
L 12.5 54.6875 
L 29.59375 8.796875 
L 46.6875 54.6875 
L 56.203125 54.6875 
L 35.6875 0 
L 23.484375 0 
z
" id="DejaVuSans-76"/>
      <path d="M 34.28125 27.484375 
Q 23.390625 27.484375 19.1875 25 
Q 14.984375 22.515625 14.984375 16.5 
Q 14.984375 11.71875 18.140625 8.90625 
Q 21.296875 6.109375 26.703125 6.109375 
Q 34.1875 6.109375 38.703125 11.40625 
Q 43.21875 16.703125 43.21875 25.484375 
L 43.21875 27.484375 
z
M 52.203125 31.203125 
L 52.203125 0 
L 43.21875 0 
L 43.21875 8.296875 
Q 40.140625 3.328125 35.546875 0.953125 
Q 30.953125 -1.421875 24.3125 -1.421875 
Q 15.921875 -1.421875 10.953125 3.296875 
Q 6 8.015625 6 15.921875 
Q 6 25.140625 12.171875 29.828125 
Q 18.359375 34.515625 30.609375 34.515625 
L 43.21875 34.515625 
L 43.21875 35.40625 
Q 43.21875 41.609375 39.140625 45 
Q 35.0625 48.390625 27.6875 48.390625 
Q 23 48.390625 18.546875 47.265625 
Q 14.109375 46.140625 10.015625 43.890625 
L 10.015625 52.203125 
Q 14.9375 54.109375 19.578125 55.046875 
Q 24.21875 56 28.609375 56 
Q 40.484375 56 46.34375 49.84375 
Q 52.203125 43.703125 52.203125 31.203125 
z
" id="DejaVuSans-61"/>
      <path d="M 44.28125 53.078125 
L 44.28125 44.578125 
Q 40.484375 46.53125 36.375 47.5 
Q 32.28125 48.484375 27.875 48.484375 
Q 21.1875 48.484375 17.84375 46.4375 
Q 14.5 44.390625 14.5 40.28125 
Q 14.5 37.15625 16.890625 35.375 
Q 19.28125 33.59375 26.515625 31.984375 
L 29.59375 31.296875 
Q 39.15625 29.25 43.1875 25.515625 
Q 47.21875 21.78125 47.21875 15.09375 
Q 47.21875 7.46875 41.1875 3.015625 
Q 35.15625 -1.421875 24.609375 -1.421875 
Q 20.21875 -1.421875 15.453125 -0.5625 
Q 10.6875 0.296875 5.421875 2 
L 5.421875 11.28125 
Q 10.40625 8.6875 15.234375 7.390625 
Q 20.0625 6.109375 24.8125 6.109375 
Q 31.15625 6.109375 34.5625 8.28125 
Q 37.984375 10.453125 37.984375 14.40625 
Q 37.984375 18.0625 35.515625 20.015625 
Q 33.0625 21.96875 24.703125 23.78125 
L 21.578125 24.515625 
Q 13.234375 26.265625 9.515625 29.90625 
Q 5.8125 33.546875 5.8125 39.890625 
Q 5.8125 47.609375 11.28125 51.796875 
Q 16.75 56 26.8125 56 
Q 31.78125 56 36.171875 55.265625 
Q 40.578125 54.546875 44.28125 53.078125 
z
" id="DejaVuSans-73"/>
      <path d="M 25.390625 72.90625 
L 33.6875 72.90625 
L 8.296875 -9.28125 
L 0 -9.28125 
z
" id="DejaVuSans-2f"/>
      <path d="M 45.40625 46.390625 
L 45.40625 75.984375 
L 54.390625 75.984375 
L 54.390625 0 
L 45.40625 0 
L 45.40625 8.203125 
Q 42.578125 3.328125 38.25 0.953125 
Q 33.9375 -1.421875 27.875 -1.421875 
Q 17.96875 -1.421875 11.734375 6.484375 
Q 5.515625 14.40625 5.515625 27.296875 
Q 5.515625 40.1875 11.734375 48.09375 
Q 17.96875 56 27.875 56 
Q 33.9375 56 38.25 53.625 
Q 42.578125 51.265625 45.40625 46.390625 
z
M 14.796875 27.296875 
Q 14.796875 17.390625 18.875 11.75 
Q 22.953125 6.109375 30.078125 6.109375 
Q 37.203125 6.109375 41.296875 11.75 
Q 45.40625 17.390625 45.40625 27.296875 
Q 45.40625 37.203125 41.296875 42.84375 
Q 37.203125 48.484375 30.078125 48.484375 
Q 22.953125 48.484375 18.875 42.84375 
Q 14.796875 37.203125 14.796875 27.296875 
z
" id="DejaVuSans-64"/>
      <path d="M 9.421875 54.6875 
L 18.40625 54.6875 
L 18.40625 0 
L 9.421875 0 
z
M 9.421875 75.984375 
L 18.40625 75.984375 
L 18.40625 64.59375 
L 9.421875 64.59375 
z
" id="DejaVuSans-69"/>
      <path d="M 52 44.1875 
Q 55.375 50.25 60.0625 53.125 
Q 64.75 56 71.09375 56 
Q 79.640625 56 84.28125 50.015625 
Q 88.921875 44.046875 88.921875 33.015625 
L 88.921875 0 
L 79.890625 0 
L 79.890625 32.71875 
Q 79.890625 40.578125 77.09375 44.375 
Q 74.3125 48.1875 68.609375 48.1875 
Q 61.625 48.1875 57.5625 43.546875 
Q 53.515625 38.921875 53.515625 30.90625 
L 53.515625 0 
L 44.484375 0 
L 44.484375 32.71875 
Q 44.484375 40.625 41.703125 44.40625 
Q 38.921875 48.1875 33.109375 48.1875 
Q 26.21875 48.1875 22.15625 43.53125 
Q 18.109375 38.875 18.109375 30.90625 
L 18.109375 0 
L 9.078125 0 
L 9.078125 54.6875 
L 18.109375 54.6875 
L 18.109375 46.1875 
Q 21.1875 51.21875 25.484375 53.609375 
Q 29.78125 56 35.6875 56 
Q 41.65625 56 45.828125 52.96875 
Q 50 49.953125 52 44.1875 
z
" id="DejaVuSans-6d"/>
      <path d="M 54.890625 33.015625 
L 54.890625 0 
L 45.90625 0 
L 45.90625 32.71875 
Q 45.90625 40.484375 42.875 44.328125 
Q 39.84375 48.1875 33.796875 48.1875 
Q 26.515625 48.1875 22.3125 43.546875 
Q 18.109375 38.921875 18.109375 30.90625 
L 18.109375 0 
L 9.078125 0 
L 9.078125 54.6875 
L 18.109375 54.6875 
L 18.109375 46.1875 
Q 21.34375 51.125 25.703125 53.5625 
Q 30.078125 56 35.796875 56 
Q 45.21875 56 50.046875 50.171875 
Q 54.890625 44.34375 54.890625 33.015625 
z
" id="DejaVuSans-6e"/>
      <path d="M 8.015625 75.875 
L 15.828125 75.875 
Q 23.140625 64.359375 26.78125 53.3125 
Q 30.421875 42.28125 30.421875 31.390625 
Q 30.421875 20.453125 26.78125 9.375 
Q 23.140625 -1.703125 15.828125 -13.1875 
L 8.015625 -13.1875 
Q 14.5 -2 17.703125 9.0625 
Q 20.90625 20.125 20.90625 31.390625 
Q 20.90625 42.671875 17.703125 53.65625 
Q 14.5 64.65625 8.015625 75.875 
z
" id="DejaVuSans-29"/>
     </defs>
     <g transform="translate(73.803219 338.153594)scale(0.17 -0.17)">
      <use xlink:href="#DejaVuSans-6c"/>
      <use x="27.783203" xlink:href="#DejaVuSans-6f"/>
      <use x="88.964844" xlink:href="#DejaVuSans-67"/>
      <use x="152.441406" xlink:href="#DejaVuSans-31"/>
      <use x="216.064453" xlink:href="#DejaVuSans-30"/>
      <use x="279.6875" xlink:href="#DejaVuSans-28"/>
      <use x="318.701172" xlink:href="#DejaVuSans-23"/>
      <use x="402.490234" xlink:href="#DejaVuSans-20"/>
      <use x="434.277344" xlink:href="#DejaVuSans-66"/>
      <use x="469.404297" xlink:href="#DejaVuSans-2d"/>
      <use x="505.488281" xlink:href="#DejaVuSans-65"/>
      <use x="567.011719" xlink:href="#DejaVuSans-76"/>
      <use x="626.191406" xlink:href="#DejaVuSans-61"/>
      <use x="687.470703" xlink:href="#DejaVuSans-6c"/>
      <use x="715.253906" xlink:href="#DejaVuSans-73"/>
      <use x="767.353516" xlink:href="#DejaVuSans-20"/>
      <use x="799.140625" xlink:href="#DejaVuSans-2f"/>
      <use x="832.832031" xlink:href="#DejaVuSans-20"/>
      <use x="864.619141" xlink:href="#DejaVuSans-64"/>
      <use x="928.095703" xlink:href="#DejaVuSans-69"/>
      <use x="955.878906" xlink:href="#DejaVuSans-6d"/>
      <use x="1053.291016" xlink:href="#DejaVuSans-65"/>
      <use x="1114.814453" xlink:href="#DejaVuSans-6e"/>
      <use x="1178.193359" xlink:href="#DejaVuSans-73"/>
      <use x="1230.292969" xlink:href="#DejaVuSans-69"/>
      <use x="1258.076172" xlink:href="#DejaVuSans-6f"/>
      <use x="1319.257812" xlink:href="#DejaVuSans-6e"/>
      <use x="1382.636719" xlink:href="#DejaVuSans-29"/>
     </g>
    </g>
   </g>
   <g id="matplotlib.axis_2">
    <g id="ytick_1">
     <g id="line2d_29">
      <path clip-path="url(#p886f9d8e43)" d="M 56.12 294.88 
L 333.168 294.88 
" style="fill:none;stroke:#b0b0b0;stroke-linecap:square;stroke-width:0.8;"/>
     </g>
     <g id="line2d_30">
      <defs>
       <path d="M 0 0 
L -3.5 0 
" id="m011c344e31" style="stroke:#000000;stroke-width:0.8;"/>
      </defs>
      <g>
       <use style="stroke:#000000;stroke-width:0.8;" x="56.12" xlink:href="#m011c344e31" y="294.88"/>
      </g>
     </g>
     <g id="text_6">
      <!-- 0.0 -->
      <defs>
       <path d="M 10.6875 12.40625 
L 21 12.40625 
L 21 0 
L 10.6875 0 
z
" id="DejaVuSans-2e"/>
      </defs>
      <g transform="translate(23.675 300.95875)scale(0.16 -0.16)">
       <use xlink:href="#DejaVuSans-30"/>
       <use x="63.623047" xlink:href="#DejaVuSans-2e"/>
       <use x="95.410156" xlink:href="#DejaVuSans-30"/>
      </g>
     </g>
    </g>
    <g id="ytick_2">
     <g id="line2d_31">
      <path clip-path="url(#p886f9d8e43)" d="M 56.12 237.843411 
L 333.168 237.843411 
" style="fill:none;stroke:#b0b0b0;stroke-linecap:square;stroke-width:0.8;"/>
     </g>
     <g id="line2d_32">
      <g>
       <use style="stroke:#000000;stroke-width:0.8;" x="56.12" xlink:href="#m011c344e31" y="237.843411"/>
      </g>
     </g>
     <g id="text_7">
      <!-- 0.2 -->
      <g transform="translate(23.675 243.922161)scale(0.16 -0.16)">
       <use xlink:href="#DejaVuSans-30"/>
       <use x="63.623047" xlink:href="#DejaVuSans-2e"/>
       <use x="95.410156" xlink:href="#DejaVuSans-32"/>
      </g>
     </g>
    </g>
    <g id="ytick_3">
     <g id="line2d_33">
      <path clip-path="url(#p886f9d8e43)" d="M 56.12 180.806823 
L 333.168 180.806823 
" style="fill:none;stroke:#b0b0b0;stroke-linecap:square;stroke-width:0.8;"/>
     </g>
     <g id="line2d_34">
      <g>
       <use style="stroke:#000000;stroke-width:0.8;" x="56.12" xlink:href="#m011c344e31" y="180.806823"/>
      </g>
     </g>
     <g id="text_8">
      <!-- 0.4 -->
      <g transform="translate(23.675 186.885573)scale(0.16 -0.16)">
       <use xlink:href="#DejaVuSans-30"/>
       <use x="63.623047" xlink:href="#DejaVuSans-2e"/>
       <use x="95.410156" xlink:href="#DejaVuSans-34"/>
      </g>
     </g>
    </g>
    <g id="ytick_4">
     <g id="line2d_35">
      <path clip-path="url(#p886f9d8e43)" d="M 56.12 123.770234 
L 333.168 123.770234 
" style="fill:none;stroke:#b0b0b0;stroke-linecap:square;stroke-width:0.8;"/>
     </g>
     <g id="line2d_36">
      <g>
       <use style="stroke:#000000;stroke-width:0.8;" x="56.12" xlink:href="#m011c344e31" y="123.770234"/>
      </g>
     </g>
     <g id="text_9">
      <!-- 0.6 -->
      <g transform="translate(23.675 129.848984)scale(0.16 -0.16)">
       <use xlink:href="#DejaVuSans-30"/>
       <use x="63.623047" xlink:href="#DejaVuSans-2e"/>
       <use x="95.410156" xlink:href="#DejaVuSans-36"/>
      </g>
     </g>
    </g>
    <g id="ytick_5">
     <g id="line2d_37">
      <path clip-path="url(#p886f9d8e43)" d="M 56.12 66.733646 
L 333.168 66.733646 
" style="fill:none;stroke:#b0b0b0;stroke-linecap:square;stroke-width:0.8;"/>
     </g>
     <g id="line2d_38">
      <g>
       <use style="stroke:#000000;stroke-width:0.8;" x="56.12" xlink:href="#m011c344e31" y="66.733646"/>
      </g>
     </g>
     <g id="text_10">
      <!-- 0.8 -->
      <defs>
       <path d="M 31.78125 34.625 
Q 24.75 34.625 20.71875 30.859375 
Q 16.703125 27.09375 16.703125 20.515625 
Q 16.703125 13.921875 20.71875 10.15625 
Q 24.75 6.390625 31.78125 6.390625 
Q 38.8125 6.390625 42.859375 10.171875 
Q 46.921875 13.96875 46.921875 20.515625 
Q 46.921875 27.09375 42.890625 30.859375 
Q 38.875 34.625 31.78125 34.625 
z
M 21.921875 38.8125 
Q 15.578125 40.375 12.03125 44.71875 
Q 8.5 49.078125 8.5 55.328125 
Q 8.5 64.0625 14.71875 69.140625 
Q 20.953125 74.21875 31.78125 74.21875 
Q 42.671875 74.21875 48.875 69.140625 
Q 55.078125 64.0625 55.078125 55.328125 
Q 55.078125 49.078125 51.53125 44.71875 
Q 48 40.375 41.703125 38.8125 
Q 48.828125 37.15625 52.796875 32.3125 
Q 56.78125 27.484375 56.78125 20.515625 
Q 56.78125 9.90625 50.3125 4.234375 
Q 43.84375 -1.421875 31.78125 -1.421875 
Q 19.734375 -1.421875 13.25 4.234375 
Q 6.78125 9.90625 6.78125 20.515625 
Q 6.78125 27.484375 10.78125 32.3125 
Q 14.796875 37.15625 21.921875 38.8125 
z
M 18.3125 54.390625 
Q 18.3125 48.734375 21.84375 45.5625 
Q 25.390625 42.390625 31.78125 42.390625 
Q 38.140625 42.390625 41.71875 45.5625 
Q 45.3125 48.734375 45.3125 54.390625 
Q 45.3125 60.0625 41.71875 63.234375 
Q 38.140625 66.40625 31.78125 66.40625 
Q 25.390625 66.40625 21.84375 63.234375 
Q 18.3125 60.0625 18.3125 54.390625 
z
" id="DejaVuSans-38"/>
      </defs>
      <g transform="translate(23.675 72.812396)scale(0.16 -0.16)">
       <use xlink:href="#DejaVuSans-30"/>
       <use x="63.623047" xlink:href="#DejaVuSans-2e"/>
       <use x="95.410156" xlink:href="#DejaVuSans-38"/>
      </g>
     </g>
    </g>
    <g id="ytick_6">
     <g id="line2d_39">
      <path clip-path="url(#p886f9d8e43)" d="M 56.12 9.697057 
L 333.168 9.697057 
" style="fill:none;stroke:#b0b0b0;stroke-linecap:square;stroke-width:0.8;"/>
     </g>
     <g id="line2d_40">
      <g>
       <use style="stroke:#000000;stroke-width:0.8;" x="56.12" xlink:href="#m011c344e31" y="9.697057"/>
      </g>
     </g>
     <g id="text_11">
      <!-- 1.0 -->
      <g transform="translate(23.675 15.775807)scale(0.16 -0.16)">
       <use xlink:href="#DejaVuSans-31"/>
       <use x="63.623047" xlink:href="#DejaVuSans-2e"/>
       <use x="95.410156" xlink:href="#DejaVuSans-30"/>
      </g>
     </g>
    </g>
    <g id="text_12">
     <!-- Fraction of function,target pairs -->
     <defs>
      <path d="M 9.8125 72.90625 
L 51.703125 72.90625 
L 51.703125 64.59375 
L 19.671875 64.59375 
L 19.671875 43.109375 
L 48.578125 43.109375 
L 48.578125 34.8125 
L 19.671875 34.8125 
L 19.671875 0 
L 9.8125 0 
z
" id="DejaVuSans-46"/>
      <path d="M 41.109375 46.296875 
Q 39.59375 47.171875 37.8125 47.578125 
Q 36.03125 48 33.890625 48 
Q 26.265625 48 22.1875 43.046875 
Q 18.109375 38.09375 18.109375 28.8125 
L 18.109375 0 
L 9.078125 0 
L 9.078125 54.6875 
L 18.109375 54.6875 
L 18.109375 46.1875 
Q 20.953125 51.171875 25.484375 53.578125 
Q 30.03125 56 36.53125 56 
Q 37.453125 56 38.578125 55.875 
Q 39.703125 55.765625 41.0625 55.515625 
z
" id="DejaVuSans-72"/>
      <path d="M 48.78125 52.59375 
L 48.78125 44.1875 
Q 44.96875 46.296875 41.140625 47.34375 
Q 37.3125 48.390625 33.40625 48.390625 
Q 24.65625 48.390625 19.8125 42.84375 
Q 14.984375 37.3125 14.984375 27.296875 
Q 14.984375 17.28125 19.8125 11.734375 
Q 24.65625 6.203125 33.40625 6.203125 
Q 37.3125 6.203125 41.140625 7.25 
Q 44.96875 8.296875 48.78125 10.40625 
L 48.78125 2.09375 
Q 45.015625 0.34375 40.984375 -0.53125 
Q 36.96875 -1.421875 32.421875 -1.421875 
Q 20.0625 -1.421875 12.78125 6.34375 
Q 5.515625 14.109375 5.515625 27.296875 
Q 5.515625 40.671875 12.859375 48.328125 
Q 20.21875 56 33.015625 56 
Q 37.15625 56 41.109375 55.140625 
Q 45.0625 54.296875 48.78125 52.59375 
z
" id="DejaVuSans-63"/>
      <path d="M 18.3125 70.21875 
L 18.3125 54.6875 
L 36.8125 54.6875 
L 36.8125 47.703125 
L 18.3125 47.703125 
L 18.3125 18.015625 
Q 18.3125 11.328125 20.140625 9.421875 
Q 21.96875 7.515625 27.59375 7.515625 
L 36.8125 7.515625 
L 36.8125 0 
L 27.59375 0 
Q 17.1875 0 13.234375 3.875 
Q 9.28125 7.765625 9.28125 18.015625 
L 9.28125 47.703125 
L 2.6875 47.703125 
L 2.6875 54.6875 
L 9.28125 54.6875 
L 9.28125 70.21875 
z
" id="DejaVuSans-74"/>
      <path d="M 8.5 21.578125 
L 8.5 54.6875 
L 17.484375 54.6875 
L 17.484375 21.921875 
Q 17.484375 14.15625 20.5 10.265625 
Q 23.53125 6.390625 29.59375 6.390625 
Q 36.859375 6.390625 41.078125 11.03125 
Q 45.3125 15.671875 45.3125 23.6875 
L 45.3125 54.6875 
L 54.296875 54.6875 
L 54.296875 0 
L 45.3125 0 
L 45.3125 8.40625 
Q 42.046875 3.421875 37.71875 1 
Q 33.40625 -1.421875 27.6875 -1.421875 
Q 18.265625 -1.421875 13.375 4.4375 
Q 8.5 10.296875 8.5 21.578125 
z
M 31.109375 56 
z
" id="DejaVuSans-75"/>
      <path d="M 11.71875 12.40625 
L 22.015625 12.40625 
L 22.015625 4 
L 14.015625 -11.625 
L 7.71875 -11.625 
L 11.71875 4 
z
" id="DejaVuSans-2c"/>
      <path d="M 18.109375 8.203125 
L 18.109375 -20.796875 
L 9.078125 -20.796875 
L 9.078125 54.6875 
L 18.109375 54.6875 
L 18.109375 46.390625 
Q 20.953125 51.265625 25.265625 53.625 
Q 29.59375 56 35.59375 56 
Q 45.5625 56 51.78125 48.09375 
Q 58.015625 40.1875 58.015625 27.296875 
Q 58.015625 14.40625 51.78125 6.484375 
Q 45.5625 -1.421875 35.59375 -1.421875 
Q 29.59375 -1.421875 25.265625 0.953125 
Q 20.953125 3.328125 18.109375 8.203125 
z
M 48.6875 27.296875 
Q 48.6875 37.203125 44.609375 42.84375 
Q 40.53125 48.484375 33.40625 48.484375 
Q 26.265625 48.484375 22.1875 42.84375 
Q 18.109375 37.203125 18.109375 27.296875 
Q 18.109375 17.390625 22.1875 11.75 
Q 26.265625 6.109375 33.40625 6.109375 
Q 40.53125 6.109375 44.609375 11.75 
Q 48.6875 17.390625 48.6875 27.296875 
z
" id="DejaVuSans-70"/>
     </defs>
     <g transform="translate(16.139531 286.001989)rotate(-90)scale(0.17 -0.17)">
      <use xlink:href="#DejaVuSans-46"/>
      <use x="57.410156" xlink:href="#DejaVuSans-72"/>
      <use x="98.523438" xlink:href="#DejaVuSans-61"/>
      <use x="159.802734" xlink:href="#DejaVuSans-63"/>
      <use x="214.783203" xlink:href="#DejaVuSans-74"/>
      <use x="253.992188" xlink:href="#DejaVuSans-69"/>
      <use x="281.775391" xlink:href="#DejaVuSans-6f"/>
      <use x="342.957031" xlink:href="#DejaVuSans-6e"/>
      <use x="406.335938" xlink:href="#DejaVuSans-20"/>
      <use x="438.123047" xlink:href="#DejaVuSans-6f"/>
      <use x="499.304688" xlink:href="#DejaVuSans-66"/>
      <use x="534.509766" xlink:href="#DejaVuSans-20"/>
      <use x="566.296875" xlink:href="#DejaVuSans-66"/>
      <use x="601.501953" xlink:href="#DejaVuSans-75"/>
      <use x="664.880859" xlink:href="#DejaVuSans-6e"/>
      <use x="728.259766" xlink:href="#DejaVuSans-63"/>
      <use x="783.240234" xlink:href="#DejaVuSans-74"/>
      <use x="822.449219" xlink:href="#DejaVuSans-69"/>
      <use x="850.232422" xlink:href="#DejaVuSans-6f"/>
      <use x="911.414062" xlink:href="#DejaVuSans-6e"/>
      <use x="974.792969" xlink:href="#DejaVuSans-2c"/>
      <use x="1006.580078" xlink:href="#DejaVuSans-74"/>
      <use x="1045.789062" xlink:href="#DejaVuSans-61"/>
      <use x="1107.068359" xlink:href="#DejaVuSans-72"/>
      <use x="1148.166016" xlink:href="#DejaVuSans-67"/>
      <use x="1211.642578" xlink:href="#DejaVuSans-65"/>
      <use x="1273.166016" xlink:href="#DejaVuSans-74"/>
      <use x="1312.375" xlink:href="#DejaVuSans-20"/>
      <use x="1344.162109" xlink:href="#DejaVuSans-70"/>
      <use x="1407.638672" xlink:href="#DejaVuSans-61"/>
      <use x="1468.917969" xlink:href="#DejaVuSans-69"/>
      <use x="1496.701172" xlink:href="#DejaVuSans-72"/>
      <use x="1537.814453" xlink:href="#DejaVuSans-73"/>
     </g>
    </g>
   </g>
   <g id="line2d_41">
    <defs>
     <path d="M 0 1.5 
C 0.397805 1.5 0.77937 1.341951 1.06066 1.06066 
C 1.341951 0.77937 1.5 0.397805 1.5 0 
C 1.5 -0.397805 1.341951 -0.77937 1.06066 -1.06066 
C 0.77937 -1.341951 0.397805 -1.5 0 -1.5 
C -0.397805 -1.5 -0.77937 -1.341951 -1.06066 -1.06066 
C -1.341951 -0.77937 -1.5 -0.397805 -1.5 0 
C -1.5 0.397805 -1.341951 0.77937 -1.06066 1.06066 
C -0.77937 1.341951 -0.397805 1.5 0 1.5 
z
" id="m6024dbbaae" style="stroke:#f5deb3;"/>
    </defs>
    <g>
     <use style="fill:#f5deb3;stroke:#f5deb3;" x="172.873996" xlink:href="#m6024dbbaae" y="9.697057"/>
     <use style="fill:#f5deb3;stroke:#f5deb3;" x="172.873996" xlink:href="#m6024dbbaae" y="9.697057"/>
    </g>
   </g>
   <g id="line2d_42">
    <defs>
     <path d="M 0 1.5 
C 0.397805 1.5 0.77937 1.341951 1.06066 1.06066 
C 1.341951 0.77937 1.5 0.397805 1.5 0 
C 1.5 -0.397805 1.341951 -0.77937 1.06066 -1.06066 
C 0.77937 -1.341951 0.397805 -1.5 0 -1.5 
C -0.397805 -1.5 -0.77937 -1.341951 -1.06066 -1.06066 
C -1.341951 -0.77937 -1.5 -0.397805 -1.5 0 
C -1.5 0.397805 -1.341951 0.77937 -1.06066 1.06066 
C -0.77937 1.341951 -0.397805 1.5 0 1.5 
z
" id="mcac811b9a7" style="stroke:#000080;"/>
    </defs>
    <g>
     <use style="fill:#000080;stroke:#000080;" x="288.135335" xlink:href="#mcac811b9a7" y="85.18666"/>
     <use style="fill:#000080;stroke:#000080;" x="288.135335" xlink:href="#mcac811b9a7" y="85.18666"/>
    </g>
   </g>
   <g id="line2d_43">
    <path d="M 98.249422 294.88 
L 98.249422 294.740204 
L 103.560793 294.740204 
L 103.560793 294.600409 
L 104.666722 294.600409 
L 104.666722 294.460613 
L 105.705775 294.460613 
L 105.705775 294.320818 
L 108.49205 294.320818 
L 108.49205 294.041227 
L 109.328742 294.041227 
L 109.328742 293.62184 
L 110.126589 293.62184 
L 110.126589 293.062658 
L 111.619102 293.062658 
L 111.619102 292.922862 
L 112.319414 292.922862 
L 112.319414 292.783067 
L 113.639848 292.783067 
L 113.639848 292.503475 
L 114.263878 292.503475 
L 114.263878 292.084089 
L 114.866043 292.084089 
L 114.866043 291.664702 
L 115.447825 291.664702 
L 115.447825 291.385111 
L 116.010559 291.385111 
L 116.010559 290.825929 
L 116.555451 290.825929 
L 116.555451 290.686133 
L 117.0836 290.686133 
L 117.0836 290.406542 
L 117.596003 290.406542 
L 117.596003 290.266747 
L 118.093572 290.266747 
L 118.093572 289.987155 
L 118.577142 289.987155 
L 118.577142 289.707564 
L 119.04748 289.707564 
L 119.04748 289.427973 
L 119.505289 289.427973 
L 119.505289 289.288178 
L 119.95122 289.288178 
L 119.95122 289.008586 
L 120.385875 289.008586 
L 120.385875 288.868791 
L 120.809808 288.868791 
L 120.809808 288.5892 
L 121.223538 288.5892 
L 121.223538 288.309609 
L 121.627542 288.309609 
L 121.627542 288.030018 
L 122.408133 288.030018 
L 122.408133 287.610631 
L 123.154809 287.610631 
L 123.154809 287.33104 
L 123.516326 287.33104 
L 123.516326 287.191244 
L 124.217319 287.191244 
L 124.217319 287.051449 
L 124.557378 287.051449 
L 124.557378 286.771858 
L 125.854083 286.771858 
L 125.854083 286.492266 
L 126.467507 286.492266 
L 126.467507 286.212675 
L 127.632343 286.212675 
L 127.632343 286.07288 
L 128.186438 286.07288 
L 128.186438 285.793289 
L 128.723227 285.793289 
L 128.723227 285.653493 
L 129.748989 285.653493 
L 129.748989 285.513697 
L 130.239792 285.513697 
L 130.239792 285.373902 
L 130.480037 285.373902 
L 130.480037 285.234106 
L 131.40878 285.234106 
L 131.40878 285.094311 
L 131.633332 285.094311 
L 131.633332 284.954515 
L 132.073821 284.954515 
L 132.073821 284.674924 
L 132.714086 284.674924 
L 132.714086 284.535129 
L 132.922316 284.535129 
L 132.922316 284.395333 
L 133.331356 284.395333 
L 133.331356 284.255537 
L 133.532283 284.255537 
L 133.532283 284.115742 
L 133.927226 284.115742 
L 133.927226 283.975946 
L 134.121345 283.975946 
L 134.121345 283.836151 
L 134.313297 283.836151 
L 134.313297 283.696355 
L 134.503128 283.696355 
L 134.503128 283.55656 
L 134.690886 283.55656 
L 134.690886 283.416764 
L 134.876616 283.416764 
L 134.876616 283.276969 
L 135.060359 283.276969 
L 135.060359 283.137173 
L 135.24216 283.137173 
L 135.24216 282.857582 
L 135.422057 282.857582 
L 135.422057 282.717786 
L 135.776301 282.717786 
L 135.776301 282.577991 
L 135.950722 282.577991 
L 135.950722 282.438195 
L 136.46361 282.438195 
L 136.46361 282.2984 
L 136.631228 282.2984 
L 136.631228 282.018808 
L 136.797226 282.018808 
L 136.797226 281.879013 
L 136.961637 281.879013 
L 136.961637 281.459626 
L 137.285815 281.459626 
L 137.285815 281.180035 
L 137.603992 281.180035 
L 137.603992 281.04024 
L 137.760898 281.04024 
L 137.760898 280.760648 
L 137.916386 280.760648 
L 137.916386 280.481057 
L 138.070479 280.481057 
L 138.070479 280.341262 
L 138.223203 280.341262 
L 138.223203 280.061671 
L 138.374582 280.061671 
L 138.374582 279.921875 
L 138.52464 279.921875 
L 138.52464 279.642284 
L 139.112104 279.642284 
L 139.112104 279.502488 
L 139.255885 279.502488 
L 139.255885 279.362693 
L 139.398474 279.362693 
L 139.398474 279.222897 
L 140.094197 279.222897 
L 140.094197 278.943306 
L 140.230025 278.943306 
L 140.230025 278.803511 
L 140.498503 278.803511 
L 140.498503 278.663715 
L 140.893517 278.663715 
L 140.893517 278.384124 
L 141.151905 278.384124 
L 141.151905 278.244328 
L 141.406466 278.244328 
L 141.406466 278.104533 
L 141.657312 278.104533 
L 141.657312 277.824942 
L 141.781376 277.824942 
L 141.781376 277.685146 
L 141.90455 277.685146 
L 141.90455 277.545351 
L 142.388607 277.545351 
L 142.388607 277.405555 
L 142.50752 277.405555 
L 142.50752 277.265759 
L 142.742908 277.265759 
L 142.742908 277.125964 
L 142.859404 277.125964 
L 142.859404 276.986168 
L 142.975116 276.986168 
L 142.975116 276.706577 
L 143.090054 276.706577 
L 143.090054 276.566782 
L 143.317649 276.566782 
L 143.317649 276.426986 
L 143.430327 276.426986 
L 143.430327 276.28719 
L 143.54227 276.28719 
L 143.54227 276.147395 
L 143.65349 276.147395 
L 143.65349 276.007599 
L 143.982894 276.007599 
L 144.091308 275.588213 
L 144.199041 275.588213 
L 144.199041 275.448417 
L 144.412504 275.448417 
L 144.412504 274.889235 
L 144.623349 274.889235 
L 144.623349 274.469848 
L 144.831638 274.469848 
L 144.934844 274.190257 
L 145.037434 274.190257 
L 145.139415 273.910666 
L 145.240795 273.910666 
L 145.34158 273.491279 
L 145.441778 273.491279 
L 145.541395 273.211688 
L 145.640438 273.211688 
L 145.640438 272.792301 
L 146.127269 272.792301 
L 146.223002 272.51271 
L 146.318205 272.51271 
L 146.412884 272.233119 
L 146.507044 272.233119 
L 146.600691 271.813733 
L 146.69383 271.813733 
L 146.786468 271.394346 
L 146.878609 271.394346 
L 146.970258 270.835164 
L 147.061422 270.835164 
L 147.152105 270.136186 
L 147.242311 270.136186 
L 147.332047 269.297412 
L 147.421317 269.297412 
L 147.510125 267.759661 
L 147.598477 267.759661 
L 147.686377 266.361706 
L 147.77383 266.361706 
L 147.77383 266.082115 
L 147.947413 266.082115 
L 148.033551 265.522932 
L 148.119259 265.522932 
L 148.204543 265.103546 
L 148.289405 265.103546 
L 148.373851 264.264772 
L 148.457883 264.264772 
L 148.541507 263.70559 
L 148.624726 263.70559 
L 148.707544 263.286203 
L 148.789965 263.286203 
L 148.871992 262.167839 
L 148.95363 262.167839 
L 149.034882 261.049474 
L 149.115752 261.049474 
L 149.196243 259.791314 
L 149.276358 259.791314 
L 149.356103 257.834177 
L 149.435479 257.834177 
L 149.51449 256.016834 
L 149.593139 256.016834 
L 149.67143 252.941332 
L 149.749367 252.941332 
L 149.826951 250.704603 
L 149.904187 250.704603 
L 149.981077 248.60767 
L 150.057625 248.60767 
L 150.133834 246.231145 
L 150.209706 246.231145 
L 150.285245 244.553598 
L 150.360453 244.553598 
L 150.435334 241.617892 
L 150.509889 241.617892 
L 150.584123 238.123003 
L 150.658038 238.123003 
L 150.731636 233.929136 
L 150.80492 233.929136 
L 150.877893 229.455678 
L 150.950558 229.455678 
L 151.022917 224.283242 
L 151.094972 224.283242 
L 151.166727 217.573055 
L 151.238183 217.573055 
L 151.309344 210.303686 
L 151.380211 210.303686 
L 151.450787 203.87309 
L 151.521075 203.87309 
L 151.591076 197.302699 
L 151.660793 197.302699 
L 151.730229 190.452717 
L 151.799385 190.452717 
L 151.868265 184.441507 
L 151.936869 184.441507 
L 152.005201 179.968049 
L 152.073262 179.968049 
L 152.141054 175.913978 
L 152.208581 175.913978 
L 152.275843 173.677249 
L 152.342842 173.677249 
L 152.409582 172.69868 
L 152.542289 172.69868 
L 152.60826 172.419089 
L 152.673979 172.419089 
L 152.739448 171.999703 
L 152.934371 171.999703 
L 152.998857 171.580316 
L 153.127109 171.580316 
L 153.190877 171.021134 
L 153.25441 171.021134 
L 153.317709 170.042565 
L 153.443611 170.042565 
L 153.506219 168.784405 
L 153.568599 168.784405 
L 153.568599 167.945631 
L 153.754391 167.945631 
L 153.754391 167.805836 
L 153.877147 167.805836 
L 153.877147 167.66604 
L 154.059652 167.66604 
L 154.059652 167.386449 
L 154.180254 167.386449 
L 154.24024 167.106858 
L 154.41895 167.106858 
L 154.478109 166.687471 
L 154.595821 166.687471 
L 154.654376 166.268085 
L 154.712732 166.268085 
L 154.712732 165.988493 
L 154.828853 165.988493 
L 154.828853 165.708902 
L 154.944195 165.708902 
L 155.001577 165.429311 
L 155.058768 165.429311 
L 155.11577 165.009925 
L 155.172583 165.009925 
L 155.172583 164.870129 
L 155.285648 164.870129 
L 155.341904 164.031356 
L 155.397975 164.031356 
L 155.453865 163.472173 
L 155.509573 163.472173 
L 155.565101 162.214013 
L 155.840083 162.214013 
L 155.840083 162.074218 
L 156.110735 162.074218 
L 156.110735 161.934422 
L 156.271104 161.934422 
L 156.271104 161.654831 
L 156.429991 161.654831 
L 156.535105 161.235444 
L 156.639581 161.235444 
L 156.639581 161.095649 
L 156.795113 161.095649 
L 156.846645 160.816058 
L 157.102017 160.816058 
L 157.102017 160.536467 
L 157.552337 160.536467 
L 157.552337 160.396671 
L 157.69986 160.396671 
L 157.79751 160.11708 
L 157.894608 160.11708 
L 157.991161 159.837489 
L 158.087174 159.837489 
L 158.182654 159.278307 
L 158.60587 159.278307 
L 158.60587 159.138511 
L 158.836564 159.138511 
L 158.836564 158.998715 
L 159.377915 158.998715 
L 159.377915 158.85892 
L 159.686004 158.85892 
L 159.686004 158.439533 
L 159.816371 158.439533 
L 159.816371 158.020147 
L 160.074175 158.020147 
L 160.074175 157.880351 
L 160.24392 157.880351 
L 160.328169 157.60076 
L 160.661092 157.60076 
L 160.743325 157.181373 
L 160.947203 157.181373 
L 160.947203 157.041578 
L 161.108582 157.041578 
L 161.108582 156.901782 
L 161.228629 156.901782 
L 161.308198 156.482395 
L 161.387399 156.482395 
L 161.466238 156.202804 
L 161.505522 156.202804 
L 161.583822 155.783418 
L 161.661766 155.783418 
L 161.661766 155.643622 
L 161.816603 155.643622 
L 161.816603 155.503826 
L 161.931822 155.503826 
L 161.931822 155.364031 
L 162.084256 155.364031 
L 162.084256 155.224235 
L 162.197701 155.224235 
L 162.272917 154.944644 
L 162.385128 154.944644 
L 162.45953 154.665053 
L 162.496611 154.665053 
L 162.607375 154.245666 
L 162.644138 154.245666 
L 162.753959 153.406893 
L 162.790411 153.406893 
L 162.899304 151.030369 
L 163.007511 151.030369 
L 163.115042 150.610982 
L 163.150736 150.610982 
L 163.257378 149.772208 
L 163.328106 149.772208 
L 163.398544 149.352822 
L 163.503664 149.352822 
L 163.608144 148.514048 
L 163.64283 148.514048 
L 163.746471 147.395684 
L 163.780879 147.395684 
L 163.883693 146.417115 
L 163.917828 146.417115 
L 164.019828 143.900795 
L 164.053694 143.900795 
L 164.154894 140.685497 
L 164.188495 140.685497 
L 164.288907 137.889586 
L 164.322247 137.889586 
L 164.421883 136.072244 
L 164.454966 136.072244 
L 164.487987 134.953879 
L 164.684787 134.953879 
L 164.74989 134.674288 
L 164.814747 134.674288 
L 164.814747 134.534492 
L 165.103613 134.534492 
L 165.167151 133.97531 
L 165.450203 133.97531 
L 165.543527 133.555924 
L 165.881445 133.555924 
L 165.881445 133.276332 
L 166.032874 133.276332 
L 166.093075 132.856946 
L 166.212847 132.856946 
L 166.212847 132.71715 
L 166.361398 132.71715 
L 166.390954 132.297763 
L 166.654702 132.297763 
L 166.683759 132.018172 
L 166.799499 132.018172 
L 166.799499 131.878377 
L 167.000186 131.878377 
L 167.028666 131.598786 
L 167.226711 131.598786 
L 167.310894 131.039603 
L 167.505732 131.039603 
L 167.560996 130.620217 
L 167.698386 130.620217 
L 167.698386 130.480421 
L 167.834686 130.480421 
L 167.91595 129.921239 
L 168.050542 129.921239 
L 168.130794 129.641648 
L 168.184089 129.641648 
L 168.263721 129.362057 
L 168.342987 129.362057 
L 168.448109 128.103897 
L 168.50043 128.103897 
L 168.578614 127.265123 
L 168.630539 127.265123 
L 168.733922 124.888599 
L 168.862283 124.888599 
L 168.862283 124.748803 
L 169.266712 124.748803 
L 169.366349 124.189621 
L 169.4407 124.189621 
L 169.539337 123.630439 
L 169.563909 123.630439 
L 169.563909 123.490643 
L 169.734929 123.490643 
L 169.783482 123.211052 
L 169.880177 123.211052 
L 169.880177 123.071256 
L 170.19073 123.071256 
L 170.261607 122.65187 
L 170.308696 122.65187 
L 170.355656 122.232483 
L 170.519015 122.232483 
L 170.588553 121.813096 
L 170.772625 121.813096 
L 170.841147 121.39371 
L 170.909397 121.39371 
L 170.977377 120.834528 
L 171.0676 120.834528 
L 171.157353 120.415141 
L 171.268888 120.415141 
L 171.379705 119.855959 
L 171.401782 119.855959 
L 171.511748 119.436572 
L 171.577392 119.436572 
L 171.664528 118.87739 
L 171.707931 118.87739 
L 171.751225 118.458003 
L 171.98741 118.458003 
L 172.072498 118.038616 
L 172.157166 118.038616 
L 172.241419 117.479434 
L 172.429492 117.479434 
L 172.512425 117.060047 
L 172.574362 117.060047 
L 172.574362 116.920252 
L 172.840209 116.920252 
L 172.840209 116.780456 
L 173.001786 116.780456 
L 173.021877 116.500865 
L 173.181763 116.500865 
L 173.181763 116.36107 
L 173.379553 116.36107 
L 173.458035 115.941683 
L 173.516663 115.941683 
L 173.516663 115.662092 
L 173.672033 115.662092 
L 173.768431 114.963114 
L 173.787646 114.963114 
L 173.845162 114.683523 
L 173.902487 114.683523 
L 173.940597 114.264136 
L 174.035504 114.264136 
L 174.073321 113.984545 
L 174.167501 113.984545 
L 174.205029 113.565158 
L 174.335735 113.565158 
L 174.428491 113.145772 
L 174.483906 113.145772 
L 174.575868 112.446794 
L 174.649086 112.446794 
L 174.703795 112.027407 
L 174.812693 112.027407 
L 174.920906 111.608021 
L 174.956826 111.608021 
L 174.956826 111.468225 
L 175.081959 111.468225 
L 175.188495 111.048838 
L 175.206187 111.048838 
L 175.276774 110.349861 
L 175.329524 110.349861 
L 175.329524 110.210065 
L 175.556256 110.210065 
L 175.556256 110.070269 
L 175.677115 110.070269 
L 175.677115 109.790678 
L 175.865336 109.790678 
L 175.950215 109.371292 
L 175.984049 109.371292 
L 176.085154 108.951905 
L 176.135484 108.951905 
L 176.185668 108.392723 
L 176.268983 108.392723 
L 176.335345 107.693745 
L 176.401452 107.693745 
L 176.467306 107.134563 
L 176.516532 107.134563 
L 176.549271 106.715176 
L 176.841147 106.715176 
L 176.937348 106.155994 
L 177.001184 106.155994 
L 177.001184 106.016198 
L 177.175521 106.016198 
L 177.269874 105.457016 
L 177.332489 105.457016 
L 177.332489 105.31722 
L 177.503514 105.31722 
L 177.596088 105.037629 
L 177.734021 105.037629 
L 177.779754 104.758038 
L 177.947126 104.758038 
L 177.961478 104.478447 
L 178.081569 104.478447 
L 178.17109 103.919265 
L 178.200826 103.919265 
L 178.215676 103.639674 
L 178.509997 103.639674 
L 178.597319 103.220287 
L 178.626328 103.220287 
L 178.727477 102.8009 
L 178.87095 102.8009 
L 178.970673 102.101922 
L 179.363879 102.101922 
L 179.446979 101.54274 
L 179.48838 101.54274 
L 179.586552 101.263149 
L 179.611985 101.263149 
L 179.611985 100.983558 
L 179.775422 100.983558 
L 179.883523 100.424376 
L 180.03106 100.424376 
L 180.124293 100.144785 
L 180.25661 100.144785 
L 180.269786 99.865193 
L 180.414059 99.865193 
L 180.479239 99.585602 
L 180.595944 99.585602 
L 180.699021 99.306011 
L 180.916028 99.306011 
L 180.99197 98.746829 
L 181.092706 98.746829 
L 181.167872 98.467238 
L 181.379076 98.467238 
L 181.489848 98.047851 
L 181.575513 98.047851 
L 181.672896 97.76826 
L 181.76973 97.76826 
L 181.842 97.348873 
L 182.176419 97.348873 
L 182.176419 97.209078 
L 182.421096 97.209078 
L 182.421096 96.929487 
L 182.55999 96.929487 
L 182.651967 96.5101 
L 183.003798 96.5101 
L 183.015029 96.230509 
L 183.260259 96.230509 
L 183.326537 95.950918 
L 183.425477 95.950918 
L 183.425477 95.811122 
L 183.815641 95.811122 
L 183.815641 95.671327 
L 184.102559 95.671327 
L 184.102559 95.531531 
L 184.642001 95.531531 
L 184.642001 95.391736 
L 189.905473 95.391736 
L 190.010417 94.972349 
L 190.136993 94.972349 
L 190.136993 94.832553 
L 190.255279 94.832553 
L 190.299427 94.552962 
L 190.503965 94.552962 
L 190.503965 94.413167 
L 190.61976 94.413167 
L 190.61976 94.273371 
L 191.402303 94.273371 
L 191.402303 94.133576 
L 194.294346 94.133576 
L 194.294346 93.99378 
L 197.231918 93.99378 
L 197.231918 93.853984 
L 199.161788 93.853984 
L 199.179332 93.574393 
L 199.375474 93.574393 
L 199.375474 93.434598 
L 199.569404 93.434598 
L 199.569404 93.294802 
L 199.718739 93.294802 
L 199.718739 93.155007 
L 199.87521 93.155007 
L 199.87521 93.015211 
L 200.059449 93.015211 
L 200.059449 92.875415 
L 201.066421 92.875415 
L 201.136978 92.595824 
L 201.304368 92.595824 
L 201.304368 92.456029 
L 202.645278 92.456029 
L 202.645278 92.316233 
L 202.866011 92.316233 
L 202.866011 92.176438 
L 204.068157 92.176438 
L 204.143856 91.896847 
L 208.344572 91.896847 
L 208.434356 91.617255 
L 208.497716 91.617255 
L 208.497716 91.47746 
L 211.360984 91.47746 
L 211.360984 91.337664 
L 212.135269 91.337664 
L 212.188822 91.058073 
L 214.264905 91.058073 
L 214.264905 90.918278 
L 215.420754 90.918278 
L 215.461603 90.638687 
L 215.556539 90.638687 
L 215.578503 90.2193 
L 216.07116 90.2193 
L 216.07116 90.079504 
L 216.195407 90.079504 
L 216.289627 89.799913 
L 218.698271 89.799913 
L 218.698271 89.660118 
L 219.086738 89.660118 
L 219.086738 89.520322 
L 219.302898 89.520322 
L 219.411446 89.240731 
L 219.453147 89.240731 
L 219.486807 88.96114 
L 219.94601 88.96114 
L 219.966951 88.681549 
L 221.055335 88.681549 
L 221.055335 88.541753 
L 226.047385 88.541753 
L 226.047385 88.401958 
L 226.224616 88.401958 
L 226.258471 88.122366 
L 226.930651 88.122366 
L 226.97856 87.842775 
L 229.935354 87.842775 
L 229.935354 87.70298 
L 231.551683 87.70298 
L 231.57909 87.423389 
L 232.168481 87.423389 
L 232.168481 87.283593 
L 241.906255 87.283593 
L 241.906255 87.143798 
L 242.604702 87.143798 
L 242.68477 86.724411 
L 247.199949 86.724411 
L 247.199949 86.584615 
L 248.234964 86.584615 
L 248.234964 86.44482 
L 251.297954 86.44482 
L 251.297954 86.305024 
L 253.903766 86.305024 
L 253.903766 86.165229 
L 261.179031 86.165229 
L 261.179031 86.025433 
L 264.62252 86.025433 
L 264.62252 85.885637 
L 269.880478 85.885637 
L 269.880478 85.745842 
L 270.913315 85.745842 
L 270.913315 85.606046 
L 276.375488 85.606046 
L 276.375488 85.466251 
L 279.930894 85.466251 
L 279.930894 85.326455 
L 288.135335 85.326455 
L 288.135335 85.18666 
L 333.168 85.18666 
L 333.168 85.18666 
" style="fill:none;stroke:#000080;stroke-linecap:square;stroke-width:1.5;"/>
   </g>
   <g id="line2d_44">
    <defs>
     <path d="M 0 6 
C 1.591219 6 3.117479 5.367802 4.242641 4.242641 
C 5.367802 3.117479 6 1.591219 6 0 
C 6 -1.591219 5.367802 -3.117479 4.242641 -4.242641 
C 3.117479 -5.367802 1.591219 -6 0 -6 
C -1.591219 -6 -3.117479 -5.367802 -4.242641 -4.242641 
C -5.367802 -3.117479 -6 -1.591219 -6 0 
C -6 1.591219 -5.367802 3.117479 -4.242641 4.242641 
C -3.117479 5.367802 -1.591219 6 0 6 
z
" id="m4907301548" style="stroke:#000080;stroke-width:1.5;"/>
    </defs>
    <g>
     <use style="fill:none;stroke:#000080;stroke-width:1.5;" x="153.443611" xlink:href="#m4907301548" y="170.042565"/>
     <use style="fill:none;stroke:#000080;stroke-width:1.5;" x="214.264905" xlink:href="#m4907301548" y="91.058073"/>
     <use style="fill:none;stroke:#000080;stroke-width:1.5;" x="288.135335" xlink:href="#m4907301548" y="85.18666"/>
     <use style="fill:none;stroke:#000080;stroke-width:1.5;" x="288.135335" xlink:href="#m4907301548" y="85.18666"/>
     <use style="fill:none;stroke:#000080;stroke-width:1.5;" x="333.168" xlink:href="#m4907301548" y="85.18666"/>
    </g>
   </g>
   <g id="line2d_45">
    <path style="fill:none;stroke:#000080;stroke-linecap:square;stroke-width:1.5;"/>
    <g/>
   </g>
   <g id="line2d_46">
    <path clip-path="url(#p886f9d8e43)" d="M 136.115208 282.438195 
" style="fill:none;stroke:#000080;stroke-linecap:square;stroke-width:1.5;"/>
    <defs>
     <path d="M -12 12 
L 12 -12 
M -12 -12 
L 12 12 
" id="ma91982cc41" style="stroke:#000080;"/>
    </defs>
    <g clip-path="url(#p886f9d8e43)">
     <use style="fill:#000080;stroke:#000080;" x="136.115208" xlink:href="#ma91982cc41" y="282.438195"/>
    </g>
   </g>
   <g id="line2d_47">
    <defs>
     <path d="M 0 1.5 
C 0.397805 1.5 0.77937 1.341951 1.06066 1.06066 
C 1.341951 0.77937 1.5 0.397805 1.5 0 
C 1.5 -0.397805 1.341951 -0.77937 1.06066 -1.06066 
C 0.77937 -1.341951 0.397805 -1.5 0 -1.5 
C -0.397805 -1.5 -0.77937 -1.341951 -1.06066 -1.06066 
C -1.341951 -0.77937 -1.5 -0.397805 -1.5 0 
C -1.5 0.397805 -1.341951 0.77937 -1.06066 1.06066 
C -0.77937 1.341951 -0.397805 1.5 0 1.5 
z
" id="m53977987d6" style="stroke:#ff00ff;"/>
    </defs>
    <g>
     <use style="fill:#ff00ff;stroke:#ff00ff;" x="214.378913" xlink:href="#m53977987d6" y="292.084089"/>
     <use style="fill:#ff00ff;stroke:#ff00ff;" x="214.378913" xlink:href="#m53977987d6" y="292.084089"/>
    </g>
   </g>
   <g id="line2d_48">
    <path d="M 126.638823 294.88 
L 126.638823 294.740204 
L 131.40878 294.740204 
L 131.40878 294.600409 
L 132.892723 294.600409 
L 132.892723 294.460613 
L 133.157244 294.460613 
L 133.157244 294.320818 
L 133.340978 294.320818 
L 133.340978 294.181022 
L 133.350594 294.181022 
L 133.350594 294.041227 
L 133.465568 294.041227 
L 133.465568 293.901431 
L 144.15808 293.901431 
L 144.15808 293.761636 
L 145.607487 293.761636 
L 145.607487 293.62184 
L 146.182039 293.62184 
L 146.182039 293.482044 
L 146.817236 293.482044 
L 146.817236 293.342249 
L 165.121791 293.342249 
L 165.121791 293.202453 
L 170.309816 293.202453 
L 170.309816 293.062658 
L 184.646864 293.062658 
L 184.646864 292.922862 
L 188.154714 292.922862 
L 188.154714 292.783067 
L 192.354722 292.783067 
L 192.354722 292.643271 
L 196.719608 292.643271 
L 196.719608 292.503475 
L 196.719608 292.503475 
L 196.719608 292.36368 
L 197.656111 292.36368 
L 197.656111 292.223884 
L 214.378913 292.223884 
L 214.378913 292.084089 
L 333.168 292.084089 
" style="fill:none;stroke:#ff00ff;stroke-linecap:square;stroke-width:1.5;"/>
   </g>
   <g id="line2d_49">
    <defs>
     <path d="M -0 8.485281 
L 5.091169 0 
L 0 -8.485281 
L -5.091169 -0 
z
" id="m57a7b0b7e7" style="stroke:#ff00ff;stroke-linejoin:miter;stroke-width:1.5;"/>
    </defs>
    <g>
     <use style="fill:none;stroke:#ff00ff;stroke-linejoin:miter;stroke-width:1.5;" x="146.817236" xlink:href="#m57a7b0b7e7" y="293.342249"/>
     <use style="fill:none;stroke:#ff00ff;stroke-linejoin:miter;stroke-width:1.5;" x="214.378913" xlink:href="#m57a7b0b7e7" y="292.223884"/>
     <use style="fill:none;stroke:#ff00ff;stroke-linejoin:miter;stroke-width:1.5;" x="214.378913" xlink:href="#m57a7b0b7e7" y="292.084089"/>
     <use style="fill:none;stroke:#ff00ff;stroke-linejoin:miter;stroke-width:1.5;" x="214.378913" xlink:href="#m57a7b0b7e7" y="292.084089"/>
     <use style="fill:none;stroke:#ff00ff;stroke-linejoin:miter;stroke-width:1.5;" x="333.168" xlink:href="#m57a7b0b7e7" y="292.084089"/>
    </g>
   </g>
   <g id="line2d_50">
    <path style="fill:none;stroke:#ff00ff;stroke-linecap:square;stroke-width:1.5;"/>
    <g/>
   </g>
   <g id="line2d_51">
    <path clip-path="url(#p886f9d8e43)" d="M 147.190823 293.342249 
" style="fill:none;stroke:#ff00ff;stroke-linecap:square;stroke-width:1.5;"/>
    <defs>
     <path d="M -12 12 
L 12 -12 
M -12 -12 
L 12 12 
" id="mcc90956659" style="stroke:#ff00ff;"/>
    </defs>
    <g clip-path="url(#p886f9d8e43)">
     <use style="fill:#ff00ff;stroke:#ff00ff;" x="147.190823" xlink:href="#mcc90956659" y="293.342249"/>
    </g>
   </g>
   <g id="line2d_52">
    <path d="M 333.168 292.084089 
L 363.64328 289.176341 
" style="fill:none;stroke:#ff00ff;stroke-linecap:square;stroke-width:1.5;"/>
    <g>
     <use style="fill:none;stroke:#ff00ff;stroke-linejoin:miter;stroke-width:1.5;" x="333.168" xlink:href="#m57a7b0b7e7" y="292.084089"/>
     <use style="fill:none;stroke:#ff00ff;stroke-linejoin:miter;stroke-width:1.5;" x="363.64328" xlink:href="#m57a7b0b7e7" y="289.176341"/>
    </g>
   </g>
   <g id="line2d_53">
    <path d="M 333.168 85.18666 
L 363.64328 152.288529 
" style="fill:none;stroke:#000080;stroke-linecap:square;stroke-width:1.5;"/>
    <g>
     <use style="fill:none;stroke:#000080;stroke-width:1.5;" x="333.168" xlink:href="#m4907301548" y="85.18666"/>
     <use style="fill:none;stroke:#000080;stroke-width:1.5;" x="363.64328" xlink:href="#m4907301548" y="152.288529"/>
    </g>
   </g>
   <g id="line2d_54">
    <path d="M 333.168 294.88 
L 333.168 9.697057 
" style="fill:none;stroke:#000000;stroke-linecap:square;stroke-width:1.5;"/>
   </g>
   <g id="patch_3">
    <path d="M 56.12 294.88 
L 56.12 6.845228 
" style="fill:none;stroke:#000000;stroke-linecap:square;stroke-linejoin:miter;stroke-width:0.8;"/>
   </g>
   <g id="patch_4">
    <path d="M 333.168 294.88 
L 333.168 6.845228 
" style="fill:none;stroke:#000000;stroke-linecap:square;stroke-linejoin:miter;stroke-width:0.8;"/>
   </g>
   <g id="patch_5">
    <path d="M 56.12 294.88 
L 333.168 294.88 
" style="fill:none;stroke:#000000;stroke-linecap:square;stroke-linejoin:miter;stroke-width:0.8;"/>
   </g>
   <g id="patch_6">
    <path d="M 56.12 6.845228 
L 333.168 6.845228 
" style="fill:none;stroke:#000000;stroke-linecap:square;stroke-linejoin:miter;stroke-width:0.8;"/>
   </g>
   <g id="text_13">
    <!-- scipy-opt -->
    <defs>
     <path d="M 32.171875 -5.078125 
Q 28.375 -14.84375 24.75 -17.8125 
Q 21.140625 -20.796875 15.09375 -20.796875 
L 7.90625 -20.796875 
L 7.90625 -13.28125 
L 13.1875 -13.28125 
Q 16.890625 -13.28125 18.9375 -11.515625 
Q 21 -9.765625 23.484375 -3.21875 
L 25.09375 0.875 
L 2.984375 54.6875 
L 12.5 54.6875 
L 29.59375 11.921875 
L 46.6875 54.6875 
L 56.203125 54.6875 
z
" id="DejaVuSans-79"/>
    </defs>
    <g transform="translate(369.18424 293.867279)scale(0.17 -0.17)">
     <use xlink:href="#DejaVuSans-73"/>
     <use x="52.099609" xlink:href="#DejaVuSans-63"/>
     <use x="107.080078" xlink:href="#DejaVuSans-69"/>
     <use x="134.863281" xlink:href="#DejaVuSans-70"/>
     <use x="198.339844" xlink:href="#DejaVuSans-79"/>
     <use x="257.503906" xlink:href="#DejaVuSans-2d"/>
     <use x="293.603516" xlink:href="#DejaVuSans-6f"/>
     <use x="354.785156" xlink:href="#DejaVuSans-70"/>
     <use x="418.261719" xlink:href="#DejaVuSans-74"/>
    </g>
   </g>
   <g id="text_14">
    <!-- BFGS ros  -->
    <defs>
     <path d="M 19.671875 34.8125 
L 19.671875 8.109375 
L 35.5 8.109375 
Q 43.453125 8.109375 47.28125 11.40625 
Q 51.125 14.703125 51.125 21.484375 
Q 51.125 28.328125 47.28125 31.5625 
Q 43.453125 34.8125 35.5 34.8125 
z
M 19.671875 64.796875 
L 19.671875 42.828125 
L 34.28125 42.828125 
Q 41.5 42.828125 45.03125 45.53125 
Q 48.578125 48.25 48.578125 53.8125 
Q 48.578125 59.328125 45.03125 62.0625 
Q 41.5 64.796875 34.28125 64.796875 
z
M 9.8125 72.90625 
L 35.015625 72.90625 
Q 46.296875 72.90625 52.390625 68.21875 
Q 58.5 63.53125 58.5 54.890625 
Q 58.5 48.1875 55.375 44.234375 
Q 52.25 40.28125 46.1875 39.3125 
Q 53.46875 37.75 57.5 32.78125 
Q 61.53125 27.828125 61.53125 20.40625 
Q 61.53125 10.640625 54.890625 5.3125 
Q 48.25 0 35.984375 0 
L 9.8125 0 
z
" id="DejaVuSans-42"/>
     <path d="M 59.515625 10.40625 
L 59.515625 29.984375 
L 43.40625 29.984375 
L 43.40625 38.09375 
L 69.28125 38.09375 
L 69.28125 6.78125 
Q 63.578125 2.734375 56.6875 0.65625 
Q 49.8125 -1.421875 42 -1.421875 
Q 24.90625 -1.421875 15.25 8.5625 
Q 5.609375 18.5625 5.609375 36.375 
Q 5.609375 54.25 15.25 64.234375 
Q 24.90625 74.21875 42 74.21875 
Q 49.125 74.21875 55.546875 72.453125 
Q 61.96875 70.703125 67.390625 67.28125 
L 67.390625 56.78125 
Q 61.921875 61.421875 55.765625 63.765625 
Q 49.609375 66.109375 42.828125 66.109375 
Q 29.4375 66.109375 22.71875 58.640625 
Q 16.015625 51.171875 16.015625 36.375 
Q 16.015625 21.625 22.71875 14.15625 
Q 29.4375 6.6875 42.828125 6.6875 
Q 48.046875 6.6875 52.140625 7.59375 
Q 56.25 8.5 59.515625 10.40625 
z
" id="DejaVuSans-47"/>
     <path d="M 53.515625 70.515625 
L 53.515625 60.890625 
Q 47.90625 63.578125 42.921875 64.890625 
Q 37.9375 66.21875 33.296875 66.21875 
Q 25.25 66.21875 20.875 63.09375 
Q 16.5 59.96875 16.5 54.203125 
Q 16.5 49.359375 19.40625 46.890625 
Q 22.3125 44.4375 30.421875 42.921875 
L 36.375 41.703125 
Q 47.40625 39.59375 52.65625 34.296875 
Q 57.90625 29 57.90625 20.125 
Q 57.90625 9.515625 50.796875 4.046875 
Q 43.703125 -1.421875 29.984375 -1.421875 
Q 24.8125 -1.421875 18.96875 -0.25 
Q 13.140625 0.921875 6.890625 3.21875 
L 6.890625 13.375 
Q 12.890625 10.015625 18.65625 8.296875 
Q 24.421875 6.59375 29.984375 6.59375 
Q 38.421875 6.59375 43.015625 9.90625 
Q 47.609375 13.234375 47.609375 19.390625 
Q 47.609375 24.75 44.3125 27.78125 
Q 41.015625 30.8125 33.5 32.328125 
L 27.484375 33.5 
Q 16.453125 35.6875 11.515625 40.375 
Q 6.59375 45.0625 6.59375 53.421875 
Q 6.59375 63.09375 13.40625 68.65625 
Q 20.21875 74.21875 32.171875 74.21875 
Q 37.3125 74.21875 42.625 73.28125 
Q 47.953125 72.359375 53.515625 70.515625 
z
" id="DejaVuSans-53"/>
    </defs>
    <g transform="translate(369.18424 156.979466)scale(0.17 -0.17)">
     <use xlink:href="#DejaVuSans-42"/>
     <use x="68.603516" xlink:href="#DejaVuSans-46"/>
     <use x="126.123047" xlink:href="#DejaVuSans-47"/>
     <use x="203.613281" xlink:href="#DejaVuSans-53"/>
     <use x="267.089844" xlink:href="#DejaVuSans-20"/>
     <use x="298.876953" xlink:href="#DejaVuSans-72"/>
     <use x="339.958984" xlink:href="#DejaVuSans-6f"/>
     <use x="401.140625" xlink:href="#DejaVuSans-73"/>
     <use x="453.240234" xlink:href="#DejaVuSans-20"/>
    </g>
   </g>
   <g id="text_15">
    <!-- best 2009 -->
    <defs>
     <path d="M 48.6875 27.296875 
Q 48.6875 37.203125 44.609375 42.84375 
Q 40.53125 48.484375 33.40625 48.484375 
Q 26.265625 48.484375 22.1875 42.84375 
Q 18.109375 37.203125 18.109375 27.296875 
Q 18.109375 17.390625 22.1875 11.75 
Q 26.265625 6.109375 33.40625 6.109375 
Q 40.53125 6.109375 44.609375 11.75 
Q 48.6875 17.390625 48.6875 27.296875 
z
M 18.109375 46.390625 
Q 20.953125 51.265625 25.265625 53.625 
Q 29.59375 56 35.59375 56 
Q 45.5625 56 51.78125 48.09375 
Q 58.015625 40.1875 58.015625 27.296875 
Q 58.015625 14.40625 51.78125 6.484375 
Q 45.5625 -1.421875 35.59375 -1.421875 
Q 29.59375 -1.421875 25.265625 0.953125 
Q 20.953125 3.328125 18.109375 8.203125 
L 18.109375 0 
L 9.078125 0 
L 9.078125 75.984375 
L 18.109375 75.984375 
z
" id="DejaVuSans-62"/>
     <path d="M 10.984375 1.515625 
L 10.984375 10.5 
Q 14.703125 8.734375 18.5 7.8125 
Q 22.3125 6.890625 25.984375 6.890625 
Q 35.75 6.890625 40.890625 13.453125 
Q 46.046875 20.015625 46.78125 33.40625 
Q 43.953125 29.203125 39.59375 26.953125 
Q 35.25 24.703125 29.984375 24.703125 
Q 19.046875 24.703125 12.671875 31.3125 
Q 6.296875 37.9375 6.296875 49.421875 
Q 6.296875 60.640625 12.9375 67.421875 
Q 19.578125 74.21875 30.609375 74.21875 
Q 43.265625 74.21875 49.921875 64.515625 
Q 56.59375 54.828125 56.59375 36.375 
Q 56.59375 19.140625 48.40625 8.859375 
Q 40.234375 -1.421875 26.421875 -1.421875 
Q 22.703125 -1.421875 18.890625 -0.6875 
Q 15.09375 0.046875 10.984375 1.515625 
z
M 30.609375 32.421875 
Q 37.25 32.421875 41.125 36.953125 
Q 45.015625 41.5 45.015625 49.421875 
Q 45.015625 57.28125 41.125 61.84375 
Q 37.25 66.40625 30.609375 66.40625 
Q 23.96875 66.40625 20.09375 61.84375 
Q 16.21875 57.28125 16.21875 49.421875 
Q 16.21875 41.5 20.09375 36.953125 
Q 23.96875 32.421875 30.609375 32.421875 
z
" id="DejaVuSans-39"/>
    </defs>
    <g transform="translate(369.18424 20.091654)scale(0.17 -0.17)">
     <use xlink:href="#DejaVuSans-62"/>
     <use x="63.476562" xlink:href="#DejaVuSans-65"/>
     <use x="125" xlink:href="#DejaVuSans-73"/>
     <use x="177.099609" xlink:href="#DejaVuSans-74"/>
     <use x="216.308594" xlink:href="#DejaVuSans-20"/>
     <use x="248.095703" xlink:href="#DejaVuSans-32"/>
     <use x="311.71875" xlink:href="#DejaVuSans-30"/>
     <use x="375.341797" xlink:href="#DejaVuSans-30"/>
     <use x="438.964844" xlink:href="#DejaVuSans-39"/>
    </g>
   </g>
   <g id="text_16">
    <!-- bbob f6-f9, 20-D -->
    <defs>
     <path d="M 19.671875 64.796875 
L 19.671875 8.109375 
L 31.59375 8.109375 
Q 46.6875 8.109375 53.6875 14.9375 
Q 60.6875 21.78125 60.6875 36.53125 
Q 60.6875 51.171875 53.6875 57.984375 
Q 46.6875 64.796875 31.59375 64.796875 
z
M 9.8125 72.90625 
L 30.078125 72.90625 
Q 51.265625 72.90625 61.171875 64.09375 
Q 71.09375 55.28125 71.09375 36.53125 
Q 71.09375 17.671875 61.125 8.828125 
Q 51.171875 0 30.078125 0 
L 9.8125 0 
z
" id="DejaVuSans-44"/>
    </defs>
    <g transform="translate(58.89048 17.475982)scale(0.102 -0.102)">
     <use xlink:href="#DejaVuSans-62"/>
     <use x="63.476562" xlink:href="#DejaVuSans-62"/>
     <use x="126.953125" xlink:href="#DejaVuSans-6f"/>
     <use x="188.134766" xlink:href="#DejaVuSans-62"/>
     <use x="251.611328" xlink:href="#DejaVuSans-20"/>
     <use x="283.398438" xlink:href="#DejaVuSans-66"/>
     <use x="318.603516" xlink:href="#DejaVuSans-36"/>
     <use x="382.226562" xlink:href="#DejaVuSans-2d"/>
     <use x="418.310547" xlink:href="#DejaVuSans-66"/>
     <use x="453.515625" xlink:href="#DejaVuSans-39"/>
     <use x="517.138672" xlink:href="#DejaVuSans-2c"/>
     <use x="548.925781" xlink:href="#DejaVuSans-20"/>
     <use x="580.712891" xlink:href="#DejaVuSans-32"/>
     <use x="644.335938" xlink:href="#DejaVuSans-30"/>
     <use x="707.958984" xlink:href="#DejaVuSans-2d"/>
     <use x="744.042969" xlink:href="#DejaVuSans-44"/>
    </g>
    <!-- 51 targets: 100..1e-08 -->
    <defs>
     <path d="M 10.796875 72.90625 
L 49.515625 72.90625 
L 49.515625 64.59375 
L 19.828125 64.59375 
L 19.828125 46.734375 
Q 21.96875 47.46875 24.109375 47.828125 
Q 26.265625 48.1875 28.421875 48.1875 
Q 40.625 48.1875 47.75 41.5 
Q 54.890625 34.8125 54.890625 23.390625 
Q 54.890625 11.625 47.5625 5.09375 
Q 40.234375 -1.421875 26.90625 -1.421875 
Q 22.3125 -1.421875 17.546875 -0.640625 
Q 12.796875 0.140625 7.71875 1.703125 
L 7.71875 11.625 
Q 12.109375 9.234375 16.796875 8.0625 
Q 21.484375 6.890625 26.703125 6.890625 
Q 35.15625 6.890625 40.078125 11.328125 
Q 45.015625 15.765625 45.015625 23.390625 
Q 45.015625 31 40.078125 35.4375 
Q 35.15625 39.890625 26.703125 39.890625 
Q 22.75 39.890625 18.8125 39.015625 
Q 14.890625 38.140625 10.796875 36.28125 
z
" id="DejaVuSans-35"/>
     <path d="M 11.71875 12.40625 
L 22.015625 12.40625 
L 22.015625 0 
L 11.71875 0 
z
M 11.71875 51.703125 
L 22.015625 51.703125 
L 22.015625 39.3125 
L 11.71875 39.3125 
z
" id="DejaVuSans-3a"/>
    </defs>
    <g transform="translate(58.89048 28.89775)scale(0.102 -0.102)">
     <use xlink:href="#DejaVuSans-35"/>
     <use x="63.623047" xlink:href="#DejaVuSans-31"/>
     <use x="127.246094" xlink:href="#DejaVuSans-20"/>
     <use x="159.033203" xlink:href="#DejaVuSans-74"/>
     <use x="198.242188" xlink:href="#DejaVuSans-61"/>
     <use x="259.521484" xlink:href="#DejaVuSans-72"/>
     <use x="300.619141" xlink:href="#DejaVuSans-67"/>
     <use x="364.095703" xlink:href="#DejaVuSans-65"/>
     <use x="425.619141" xlink:href="#DejaVuSans-74"/>
     <use x="464.828125" xlink:href="#DejaVuSans-73"/>
     <use x="516.927734" xlink:href="#DejaVuSans-3a"/>
     <use x="550.619141" xlink:href="#DejaVuSans-20"/>
     <use x="582.40625" xlink:href="#DejaVuSans-31"/>
     <use x="646.029297" xlink:href="#DejaVuSans-30"/>
     <use x="709.652344" xlink:href="#DejaVuSans-30"/>
     <use x="773.275391" xlink:href="#DejaVuSans-2e"/>
     <use x="805.0625" xlink:href="#DejaVuSans-2e"/>
     <use x="836.849609" xlink:href="#DejaVuSans-31"/>
     <use x="900.472656" xlink:href="#DejaVuSans-65"/>
     <use x="961.996094" xlink:href="#DejaVuSans-2d"/>
     <use x="998.080078" xlink:href="#DejaVuSans-30"/>
     <use x="1061.703125" xlink:href="#DejaVuSans-38"/>
    </g>
    <!-- 15 instances -->
    <g transform="translate(58.89048 40.319519)scale(0.102 -0.102)">
     <use xlink:href="#DejaVuSans-31"/>
     <use x="63.623047" xlink:href="#DejaVuSans-35"/>
     <use x="127.246094" xlink:href="#DejaVuSans-20"/>
     <use x="159.033203" xlink:href="#DejaVuSans-69"/>
     <use x="186.816406" xlink:href="#DejaVuSans-6e"/>
     <use x="250.195312" xlink:href="#DejaVuSans-73"/>
     <use x="302.294922" xlink:href="#DejaVuSans-74"/>
     <use x="341.503906" xlink:href="#DejaVuSans-61"/>
     <use x="402.783203" xlink:href="#DejaVuSans-6e"/>
     <use x="466.162109" xlink:href="#DejaVuSans-63"/>
     <use x="521.142578" xlink:href="#DejaVuSans-65"/>
     <use x="582.666016" xlink:href="#DejaVuSans-73"/>
    </g>
   </g>
   <g id="text_17">
    <!-- v0.0.0 -->
    <g style="fill:#808080;" transform="translate(178.96275 289.919965)scale(0.1 -0.1)">
     <use xlink:href="#DejaVuSans-76"/>
     <use x="59.179688" xlink:href="#DejaVuSans-30"/>
     <use x="122.802734" xlink:href="#DejaVuSans-2e"/>
     <use x="154.589844" xlink:href="#DejaVuSans-30"/>
     <use x="218.212891" xlink:href="#DejaVuSans-2e"/>
     <use x="250" xlink:href="#DejaVuSans-30"/>
    </g>
   </g>
  </g>
 </g>
 <defs>
  <clipPath id="p886f9d8e43">
   <rect height="288.034772" width="277.048" x="56.12" y="6.845228"/>
  </clipPath>
 </defs>
</svg>
