<?xml version="1.0" encoding="utf-8" standalone="no"?>
<!DOCTYPE svg PUBLIC "-//W3C//DTD SVG 1.1//EN"
  "http://www.w3.org/Graphics/SVG/1.1/DTD/svg11.dtd">
<!-- Created with matplotlib (http://matplotlib.org/) -->
<svg height="345pt" version="1.1" viewBox="0 0 460 345" width="460pt" xmlns="http://www.w3.org/2000/svg" xmlns:xlink="http://www.w3.org/1999/xlink">
 <defs>
  <style type="text/css">
*{stroke-linecap:butt;stroke-linejoin:round;}
  </style>
 </defs>
 <g id="figure_1">
  <g id="patch_1">
   <path d="M 0 345.6 
L 460.8 345.6 
L 460.8 0 
L 0 0 
z
" style="fill:#ffffff;"/>
  </g>
  <g id="axes_1">
   <g id="patch_2">
    <path d="M 56.12 294.88 
L 333.168 294.88 
L 333.168 6.845228 
L 56.12 6.845228 
z
" style="fill:#ffffff;"/>
   </g>
   <g id="line2d_1">
    <path d="M 28.455965 294.88 
L 28.455965 273.631075 
L 40.370217 273.631075 
L 40.370217 270.275981 
L 47.339607 270.275981 
L 47.339607 269.157617 
L 56.12 269.157617 
L 56.12 266.920888 
L 61.903497 266.920888 
L 61.903497 265.802523 
L 72.543934 265.802523 
L 72.543934 264.684159 
L 76.11297 264.684159 
L 76.11297 263.565795 
L 79.948502 263.565795 
L 79.948502 262.44743 
L 83.08236 262.44743 
L 83.08236 261.329066 
L 84.458185 261.329066 
L 84.458185 260.210701 
L 94.26507 260.210701 
L 94.26507 259.092337 
L 97.336537 259.092337 
L 97.336537 257.973972 
L 97.950482 257.973972 
L 97.950482 256.855608 
L 98.249422 256.855608 
L 98.249422 255.737243 
L 108.120612 255.737243 
L 108.120612 254.618879 
L 109.250788 254.618879 
L 109.250788 253.500514 
L 110.746395 253.500514 
L 110.746395 252.38215 
L 114.117341 252.38215 
L 114.117341 251.263785 
L 115.798351 251.263785 
L 115.798351 250.145421 
L 116.934349 250.145421 
L 116.934349 249.027056 
L 117.905717 249.027056 
L 117.905717 247.908692 
L 118.735356 247.908692 
L 118.735356 246.790327 
L 119.003236 246.790327 
L 119.003236 245.671963 
L 120.769881 245.671963 
L 120.769881 244.553598 
L 122.803291 244.553598 
L 122.803291 242.316869 
L 125.854083 242.316869 
L 125.854083 241.198505 
L 127.497741 241.198505 
L 127.497741 240.08014 
L 128.341524 240.08014 
L 128.341524 238.961776 
L 129.772681 238.961776 
L 129.772681 237.843411 
L 130.468672 237.843411 
L 130.468672 236.725047 
L 130.649607 236.725047 
L 130.649607 235.606682 
L 131.949115 235.606682 
L 131.949115 234.488318 
L 133.579779 234.488318 
L 133.579779 233.369954 
L 134.788423 233.369954 
L 134.788423 232.251589 
L 135.650622 232.251589 
L 135.650622 231.133225 
L 136.180564 231.133225 
L 136.180564 230.01486 
L 138.381758 230.01486 
L 138.381758 228.896496 
L 138.750809 228.896496 
L 138.750809 227.778131 
L 140.434959 227.778131 
L 140.434959 226.659767 
L 142.428336 226.659767 
L 142.428336 225.541402 
L 144.295937 225.541402 
L 144.295937 224.423038 
L 145.36071 224.423038 
L 145.36071 223.304673 
L 148.497755 223.304673 
L 148.497755 222.186309 
L 150.035789 222.186309 
L 150.035789 221.067944 
L 150.209706 221.067944 
L 150.209706 219.94958 
L 155.129314 219.94958 
L 155.129314 218.831215 
L 157.746429 218.831215 
L 157.746429 217.712851 
L 159.479124 217.712851 
L 159.479124 216.594486 
L 160.009066 216.594486 
L 160.033511 214.357757 
L 161.137241 214.357757 
L 161.137241 213.239393 
L 162.677333 213.239393 
L 162.677333 212.121028 
L 164.019828 212.121028 
L 164.019828 211.002664 
L 165.259017 211.002664 
L 165.259017 209.884299 
L 165.651034 209.884299 
L 165.651034 208.765935 
L 166.515657 208.765935 
L 166.515657 207.64757 
L 167.423824 207.64757 
L 167.423824 206.529206 
L 167.655324 206.529206 
L 167.655324 205.410841 
L 168.109176 205.410841 
L 168.109176 204.292477 
L 169.22741 204.292477 
L 169.22741 203.174112 
L 169.534653 203.174112 
L 169.534653 202.055748 
L 169.932899 202.055748 
L 169.932899 200.937384 
L 170.268342 200.937384 
L 170.268342 199.819019 
L 170.881263 199.819019 
L 170.881263 198.700655 
L 171.122149 198.700655 
L 171.12642 196.463926 
L 171.939617 196.463926 
L 171.939617 195.345561 
L 172.346158 195.345561 
L 172.346158 194.227197 
L 173.108667 194.227197 
L 173.108667 193.108832 
L 173.802272 193.108832 
L 173.802272 191.990468 
L 174.138853 191.990468 
L 174.138853 190.872103 
L 174.66821 190.872103 
L 174.66821 189.753739 
L 175.422905 189.753739 
L 175.422905 188.635374 
L 176.940393 188.635374 
L 176.940393 187.51701 
L 177.094987 187.51701 
L 177.094987 186.398645 
L 178.080144 186.398645 
L 178.080144 185.280281 
L 178.574492 185.280281 
L 178.574492 184.161916 
L 178.965937 184.161916 
L 178.965937 183.043552 
L 180.135042 183.043552 
L 180.135042 181.925187 
L 181.167872 181.925187 
L 181.167872 180.806823 
L 181.317226 180.806823 
L 181.399643 178.570094 
L 181.556319 178.570094 
L 181.556319 177.451729 
L 181.672318 177.451729 
L 181.672318 176.333365 
L 181.897429 176.333365 
L 181.897429 175.215 
L 182.171367 175.215 
L 182.171367 174.096636 
L 182.334548 174.096636 
L 182.334548 172.978271 
L 182.452058 172.978271 
L 182.452058 171.859907 
L 182.610419 171.859907 
L 182.610419 170.741543 
L 182.791182 170.741543 
L 182.791182 169.623178 
L 182.997913 169.623178 
L 183.042806 167.386449 
L 183.113116 167.386449 
L 183.113116 166.268085 
L 183.238109 166.268085 
L 183.347524 162.912991 
L 183.472913 162.912991 
L 183.472913 161.794627 
L 183.6325 161.794627 
L 183.6325 160.676262 
L 183.876256 160.676262 
L 183.876256 159.557898 
L 184.066389 159.557898 
L 184.066389 158.439533 
L 184.31601 158.439533 
L 184.31601 157.321169 
L 184.454231 157.321169 
L 184.454231 156.202804 
L 184.992448 156.202804 
L 184.992448 155.08444 
L 185.174461 155.08444 
L 185.174461 153.966075 
L 185.484713 153.966075 
L 185.54019 151.729346 
L 186.178087 151.729346 
L 186.178087 150.610982 
L 186.323349 150.610982 
L 186.323349 149.492617 
L 187.047024 149.492617 
L 187.151566 146.137524 
L 187.218676 146.137524 
L 187.317188 142.78243 
L 187.40686 142.78243 
L 187.421759 140.545702 
L 187.524053 140.545702 
L 187.540496 138.308973 
L 187.695917 138.308973 
L 187.695917 137.190608 
L 187.887029 137.190608 
L 187.887029 136.072244 
L 188.052129 136.072244 
L 188.052129 134.953879 
L 188.258268 134.953879 
L 188.258268 133.835515 
L 188.405797 133.835515 
L 188.405797 132.71715 
L 188.569107 132.71715 
L 188.675586 130.480421 
L 188.706327 130.480421 
L 188.813488 127.125328 
L 188.963914 127.125328 
L 189.045412 124.888599 
L 189.083013 124.888599 
L 189.18039 122.65187 
L 189.25641 122.65187 
L 189.332095 120.415141 
L 189.38532 120.415141 
L 189.45162 118.178412 
L 189.517665 118.178412 
L 189.628635 114.823318 
L 189.685304 114.823318 
L 189.769236 110.349861 
L 189.842701 110.349861 
L 189.902966 106.994767 
L 189.990121 106.994767 
L 190.089592 103.639674 
L 190.1377 103.639674 
L 190.211017 99.166216 
L 190.264398 99.166216 
L 190.289626 96.929487 
L 190.440221 96.929487 
L 190.440221 95.811122 
L 190.56196 95.811122 
L 190.655444 93.574393 
L 190.744331 93.574393 
L 190.843612 91.337664 
L 190.927486 91.337664 
L 191.016323 89.100935 
L 197.776349 89.100935 
L 197.776349 87.982571 
L 197.903622 87.982571 
L 198.001369 85.745842 
L 198.066523 85.745842 
L 198.132319 83.509113 
L 198.213769 83.509113 
L 198.300109 81.272384 
L 198.377271 81.272384 
L 198.461054 77.917291 
L 198.56175 77.917291 
L 198.659279 74.562197 
L 198.685938 74.562197 
L 198.745984 72.325468 
L 198.810087 72.325468 
L 198.877352 70.088739 
L 198.934193 70.088739 
L 199.038899 66.733646 
L 199.063295 66.733646 
L 199.15301 64.496917 
L 199.228109 64.496917 
L 199.331873 61.141823 
L 199.369901 61.141823 
L 199.4309 58.905094 
L 199.506437 58.905094 
L 199.575932 55.550001 
L 199.64271 55.550001 
L 199.715704 52.194907 
L 199.772265 52.194907 
L 199.813356 49.958178 
L 199.892041 49.958178 
L 199.971962 46.603085 
L 200.038016 46.603085 
L 200.09511 44.366356 
L 227.162769 44.366356 
L 227.162769 43.247992 
L 229.463625 43.247992 
L 229.568976 35.41944 
L 229.575246 35.41944 
L 229.684589 23.117431 
L 229.69025 23.117431 
L 229.799008 11.933786 
L 229.81194 11.933786 
L 229.821772 9.697057 
L 333.168 9.697057 
L 333.168 9.697057 
" style="fill:none;stroke:#f5deb3;stroke-linecap:square;stroke-width:4;"/>
   </g>
   <g id="line2d_2">
    <defs>
     <path d="M -0 7.778175 
L 7.778175 0 
L 0 -7.778175 
L -7.778175 -0 
z
" id="m7718a7160b" style="stroke:#f5deb3;stroke-linejoin:miter;stroke-width:1.5;"/>
    </defs>
    <g>
     <use style="fill:#f5deb3;stroke:#f5deb3;stroke-linejoin:miter;stroke-width:1.5;" x="76.11297" xlink:href="#m7718a7160b" y="263.565795"/>
     <use style="fill:#f5deb3;stroke:#f5deb3;stroke-linejoin:miter;stroke-width:1.5;" x="162.677333" xlink:href="#m7718a7160b" y="213.239393"/>
     <use style="fill:#f5deb3;stroke:#f5deb3;stroke-linejoin:miter;stroke-width:1.5;" x="190.289626" xlink:href="#m7718a7160b" y="98.047851"/>
     <use style="fill:#f5deb3;stroke:#f5deb3;stroke-linejoin:miter;stroke-width:1.5;" x="229.821772" xlink:href="#m7718a7160b" y="10.815422"/>
     <use style="fill:#f5deb3;stroke:#f5deb3;stroke-linejoin:miter;stroke-width:1.5;" x="229.821772" xlink:href="#m7718a7160b" y="9.697057"/>
     <use style="fill:#f5deb3;stroke:#f5deb3;stroke-linejoin:miter;stroke-width:1.5;" x="333.168" xlink:href="#m7718a7160b" y="9.697057"/>
    </g>
   </g>
   <g id="line2d_3">
    <path style="fill:none;stroke:#f5deb3;stroke-linecap:square;stroke-width:4;"/>
    <g/>
   </g>
   <g id="line2d_4">
    <path d="M 333.168 9.697057 
L 363.64328 15.400716 
" style="fill:none;stroke:#f5deb3;stroke-linecap:square;stroke-width:4;"/>
    <g>
     <use style="fill:#f5deb3;stroke:#f5deb3;stroke-linejoin:miter;stroke-width:1.5;" x="333.168" xlink:href="#m7718a7160b" y="9.697057"/>
     <use style="fill:#f5deb3;stroke:#f5deb3;stroke-linejoin:miter;stroke-width:1.5;" x="363.64328" xlink:href="#m7718a7160b" y="15.400716"/>
    </g>
   </g>
   <g id="matplotlib.axis_1">
    <g id="xtick_1">
     <g id="line2d_5">
      <path clip-path="url(#p4e84524b08)" d="M 56.12 294.88 
L 56.12 6.845228 
" style="fill:none;stroke:#b0b0b0;stroke-linecap:square;stroke-width:0.8;"/>
     </g>
     <g id="line2d_6">
      <defs>
       <path d="M 0 0 
L 0 3.5 
" id="m7857002cc1" style="stroke:#000000;stroke-width:0.8;"/>
      </defs>
      <g>
       <use style="stroke:#000000;stroke-width:0.8;" x="56.12" xlink:href="#m7857002cc1" y="294.88"/>
      </g>
     </g>
     <g id="text_1">
      <!-- 0 -->
      <defs>
       <path d="M 31.78125 66.40625 
Q 24.171875 66.40625 20.328125 58.90625 
Q 16.5 51.421875 16.5 36.375 
Q 16.5 21.390625 20.328125 13.890625 
Q 24.171875 6.390625 31.78125 6.390625 
Q 39.453125 6.390625 43.28125 13.890625 
Q 47.125 21.390625 47.125 36.375 
Q 47.125 51.421875 43.28125 58.90625 
Q 39.453125 66.40625 31.78125 66.40625 
z
M 31.78125 74.21875 
Q 44.046875 74.21875 50.515625 64.515625 
Q 56.984375 54.828125 56.984375 36.375 
Q 56.984375 17.96875 50.515625 8.265625 
Q 44.046875 -1.421875 31.78125 -1.421875 
Q 19.53125 -1.421875 13.0625 8.265625 
Q 6.59375 17.96875 6.59375 36.375 
Q 6.59375 54.828125 13.0625 64.515625 
Q 19.53125 74.21875 31.78125 74.21875 
z
" id="DejaVuSans-30"/>
      </defs>
      <g transform="translate(49.7575 317.076875)scale(0.2 -0.2)">
       <use xlink:href="#DejaVuSans-30"/>
      </g>
     </g>
    </g>
    <g id="xtick_2">
     <g id="line2d_7">
      <path clip-path="url(#p4e84524b08)" d="M 135.276571 294.88 
L 135.276571 6.845228 
" style="fill:none;stroke:#b0b0b0;stroke-linecap:square;stroke-width:0.8;"/>
     </g>
     <g id="line2d_8">
      <g>
       <use style="stroke:#000000;stroke-width:0.8;" x="135.276571" xlink:href="#m7857002cc1" y="294.88"/>
      </g>
     </g>
     <g id="text_2">
      <!-- 2 -->
      <defs>
       <path d="M 19.1875 8.296875 
L 53.609375 8.296875 
L 53.609375 0 
L 7.328125 0 
L 7.328125 8.296875 
Q 12.9375 14.109375 22.625 23.890625 
Q 32.328125 33.6875 34.8125 36.53125 
Q 39.546875 41.84375 41.421875 45.53125 
Q 43.3125 49.21875 43.3125 52.78125 
Q 43.3125 58.59375 39.234375 62.25 
Q 35.15625 65.921875 28.609375 65.921875 
Q 23.96875 65.921875 18.8125 64.3125 
Q 13.671875 62.703125 7.8125 59.421875 
L 7.8125 69.390625 
Q 13.765625 71.78125 18.9375 73 
Q 24.125 74.21875 28.421875 74.21875 
Q 39.75 74.21875 46.484375 68.546875 
Q 53.21875 62.890625 53.21875 53.421875 
Q 53.21875 48.921875 51.53125 44.890625 
Q 49.859375 40.875 45.40625 35.40625 
Q 44.1875 33.984375 37.640625 27.21875 
Q 31.109375 20.453125 19.1875 8.296875 
z
" id="DejaVuSans-32"/>
      </defs>
      <g transform="translate(128.914071 317.076875)scale(0.2 -0.2)">
       <use xlink:href="#DejaVuSans-32"/>
      </g>
     </g>
    </g>
    <g id="xtick_3">
     <g id="line2d_9">
      <path clip-path="url(#p4e84524b08)" d="M 214.433143 294.88 
L 214.433143 6.845228 
" style="fill:none;stroke:#b0b0b0;stroke-linecap:square;stroke-width:0.8;"/>
     </g>
     <g id="line2d_10">
      <g>
       <use style="stroke:#000000;stroke-width:0.8;" x="214.433143" xlink:href="#m7857002cc1" y="294.88"/>
      </g>
     </g>
     <g id="text_3">
      <!-- 4 -->
      <defs>
       <path d="M 37.796875 64.3125 
L 12.890625 25.390625 
L 37.796875 25.390625 
z
M 35.203125 72.90625 
L 47.609375 72.90625 
L 47.609375 25.390625 
L 58.015625 25.390625 
L 58.015625 17.1875 
L 47.609375 17.1875 
L 47.609375 0 
L 37.796875 0 
L 37.796875 17.1875 
L 4.890625 17.1875 
L 4.890625 26.703125 
z
" id="DejaVuSans-34"/>
      </defs>
      <g transform="translate(208.070643 317.076875)scale(0.2 -0.2)">
       <use xlink:href="#DejaVuSans-34"/>
      </g>
     </g>
    </g>
    <g id="xtick_4">
     <g id="line2d_11">
      <path clip-path="url(#p4e84524b08)" d="M 293.589714 294.88 
L 293.589714 6.845228 
" style="fill:none;stroke:#b0b0b0;stroke-linecap:square;stroke-width:0.8;"/>
     </g>
     <g id="line2d_12">
      <g>
       <use style="stroke:#000000;stroke-width:0.8;" x="293.589714" xlink:href="#m7857002cc1" y="294.88"/>
      </g>
     </g>
     <g id="text_4">
      <!-- 6 -->
      <defs>
       <path d="M 33.015625 40.375 
Q 26.375 40.375 22.484375 35.828125 
Q 18.609375 31.296875 18.609375 23.390625 
Q 18.609375 15.53125 22.484375 10.953125 
Q 26.375 6.390625 33.015625 6.390625 
Q 39.65625 6.390625 43.53125 10.953125 
Q 47.40625 15.53125 47.40625 23.390625 
Q 47.40625 31.296875 43.53125 35.828125 
Q 39.65625 40.375 33.015625 40.375 
z
M 52.59375 71.296875 
L 52.59375 62.3125 
Q 48.875 64.0625 45.09375 64.984375 
Q 41.3125 65.921875 37.59375 65.921875 
Q 27.828125 65.921875 22.671875 59.328125 
Q 17.53125 52.734375 16.796875 39.40625 
Q 19.671875 43.65625 24.015625 45.921875 
Q 28.375 48.1875 33.59375 48.1875 
Q 44.578125 48.1875 50.953125 41.515625 
Q 57.328125 34.859375 57.328125 23.390625 
Q 57.328125 12.15625 50.6875 5.359375 
Q 44.046875 -1.421875 33.015625 -1.421875 
Q 20.359375 -1.421875 13.671875 8.265625 
Q 6.984375 17.96875 6.984375 36.375 
Q 6.984375 53.65625 15.1875 63.9375 
Q 23.390625 74.21875 37.203125 74.21875 
Q 40.921875 74.21875 44.703125 73.484375 
Q 48.484375 72.75 52.59375 71.296875 
z
" id="DejaVuSans-36"/>
      </defs>
      <g transform="translate(287.227214 317.076875)scale(0.2 -0.2)">
       <use xlink:href="#DejaVuSans-36"/>
      </g>
     </g>
    </g>
    <g id="xtick_5">
     <g id="line2d_13">
      <path clip-path="url(#p4e84524b08)" d="M 56.12 294.88 
L 56.12 6.845228 
" style="fill:none;stroke:#b0b0b0;stroke-linecap:square;stroke-width:0.8;"/>
     </g>
     <g id="line2d_14">
      <defs>
       <path d="M 0 0 
L 0 2 
" id="mdee8ec6c0e" style="stroke:#000000;stroke-width:0.6;"/>
      </defs>
      <g>
       <use style="stroke:#000000;stroke-width:0.6;" x="56.12" xlink:href="#mdee8ec6c0e" y="294.88"/>
      </g>
     </g>
    </g>
    <g id="xtick_6">
     <g id="line2d_15">
      <path clip-path="url(#p4e84524b08)" d="M 95.698286 294.88 
L 95.698286 6.845228 
" style="fill:none;stroke:#b0b0b0;stroke-linecap:square;stroke-width:0.8;"/>
     </g>
     <g id="line2d_16">
      <g>
       <use style="stroke:#000000;stroke-width:0.6;" x="95.698286" xlink:href="#mdee8ec6c0e" y="294.88"/>
      </g>
     </g>
    </g>
    <g id="xtick_7">
     <g id="line2d_17">
      <path clip-path="url(#p4e84524b08)" d="M 135.276571 294.88 
L 135.276571 6.845228 
" style="fill:none;stroke:#b0b0b0;stroke-linecap:square;stroke-width:0.8;"/>
     </g>
     <g id="line2d_18">
      <g>
       <use style="stroke:#000000;stroke-width:0.6;" x="135.276571" xlink:href="#mdee8ec6c0e" y="294.88"/>
      </g>
     </g>
    </g>
    <g id="xtick_8">
     <g id="line2d_19">
      <path clip-path="url(#p4e84524b08)" d="M 174.854857 294.88 
L 174.854857 6.845228 
" style="fill:none;stroke:#b0b0b0;stroke-linecap:square;stroke-width:0.8;"/>
     </g>
     <g id="line2d_20">
      <g>
       <use style="stroke:#000000;stroke-width:0.6;" x="174.854857" xlink:href="#mdee8ec6c0e" y="294.88"/>
      </g>
     </g>
    </g>
    <g id="xtick_9">
     <g id="line2d_21">
      <path clip-path="url(#p4e84524b08)" d="M 214.433143 294.88 
L 214.433143 6.845228 
" style="fill:none;stroke:#b0b0b0;stroke-linecap:square;stroke-width:0.8;"/>
     </g>
     <g id="line2d_22">
      <g>
       <use style="stroke:#000000;stroke-width:0.6;" x="214.433143" xlink:href="#mdee8ec6c0e" y="294.88"/>
      </g>
     </g>
    </g>
    <g id="xtick_10">
     <g id="line2d_23">
      <path clip-path="url(#p4e84524b08)" d="M 254.011429 294.88 
L 254.011429 6.845228 
" style="fill:none;stroke:#b0b0b0;stroke-linecap:square;stroke-width:0.8;"/>
     </g>
     <g id="line2d_24">
      <g>
       <use style="stroke:#000000;stroke-width:0.6;" x="254.011429" xlink:href="#mdee8ec6c0e" y="294.88"/>
      </g>
     </g>
    </g>
    <g id="xtick_11">
     <g id="line2d_25">
      <path clip-path="url(#p4e84524b08)" d="M 293.589714 294.88 
L 293.589714 6.845228 
" style="fill:none;stroke:#b0b0b0;stroke-linecap:square;stroke-width:0.8;"/>
     </g>
     <g id="line2d_26">
      <g>
       <use style="stroke:#000000;stroke-width:0.6;" x="293.589714" xlink:href="#mdee8ec6c0e" y="294.88"/>
      </g>
     </g>
    </g>
    <g id="xtick_12">
     <g id="line2d_27">
      <path clip-path="url(#p4e84524b08)" d="M 333.168 294.88 
L 333.168 6.845228 
" style="fill:none;stroke:#b0b0b0;stroke-linecap:square;stroke-width:0.8;"/>
     </g>
     <g id="line2d_28">
      <g>
       <use style="stroke:#000000;stroke-width:0.6;" x="333.168" xlink:href="#mdee8ec6c0e" y="294.88"/>
      </g>
     </g>
    </g>
    <g id="text_5">
     <!-- log10(# f-evals / dimension) -->
     <defs>
      <path d="M 9.421875 75.984375 
L 18.40625 75.984375 
L 18.40625 0 
L 9.421875 0 
z
" id="DejaVuSans-6c"/>
      <path d="M 30.609375 48.390625 
Q 23.390625 48.390625 19.1875 42.75 
Q 14.984375 37.109375 14.984375 27.296875 
Q 14.984375 17.484375 19.15625 11.84375 
Q 23.34375 6.203125 30.609375 6.203125 
Q 37.796875 6.203125 41.984375 11.859375 
Q 46.1875 17.53125 46.1875 27.296875 
Q 46.1875 37.015625 41.984375 42.703125 
Q 37.796875 48.390625 30.609375 48.390625 
z
M 30.609375 56 
Q 42.328125 56 49.015625 48.375 
Q 55.71875 40.765625 55.71875 27.296875 
Q 55.71875 13.875 49.015625 6.21875 
Q 42.328125 -1.421875 30.609375 -1.421875 
Q 18.84375 -1.421875 12.171875 6.21875 
Q 5.515625 13.875 5.515625 27.296875 
Q 5.515625 40.765625 12.171875 48.375 
Q 18.84375 56 30.609375 56 
z
" id="DejaVuSans-6f"/>
      <path d="M 45.40625 27.984375 
Q 45.40625 37.75 41.375 43.109375 
Q 37.359375 48.484375 30.078125 48.484375 
Q 22.859375 48.484375 18.828125 43.109375 
Q 14.796875 37.75 14.796875 27.984375 
Q 14.796875 18.265625 18.828125 12.890625 
Q 22.859375 7.515625 30.078125 7.515625 
Q 37.359375 7.515625 41.375 12.890625 
Q 45.40625 18.265625 45.40625 27.984375 
z
M 54.390625 6.78125 
Q 54.390625 -7.171875 48.1875 -13.984375 
Q 42 -20.796875 29.203125 -20.796875 
Q 24.46875 -20.796875 20.265625 -20.09375 
Q 16.0625 -19.390625 12.109375 -17.921875 
L 12.109375 -9.1875 
Q 16.0625 -11.328125 19.921875 -12.34375 
Q 23.78125 -13.375 27.78125 -13.375 
Q 36.625 -13.375 41.015625 -8.765625 
Q 45.40625 -4.15625 45.40625 5.171875 
L 45.40625 9.625 
Q 42.625 4.78125 38.28125 2.390625 
Q 33.9375 0 27.875 0 
Q 17.828125 0 11.671875 7.65625 
Q 5.515625 15.328125 5.515625 27.984375 
Q 5.515625 40.671875 11.671875 48.328125 
Q 17.828125 56 27.875 56 
Q 33.9375 56 38.28125 53.609375 
Q 42.625 51.21875 45.40625 46.390625 
L 45.40625 54.6875 
L 54.390625 54.6875 
z
" id="DejaVuSans-67"/>
      <path d="M 12.40625 8.296875 
L 28.515625 8.296875 
L 28.515625 63.921875 
L 10.984375 60.40625 
L 10.984375 69.390625 
L 28.421875 72.90625 
L 38.28125 72.90625 
L 38.28125 8.296875 
L 54.390625 8.296875 
L 54.390625 0 
L 12.40625 0 
z
" id="DejaVuSans-31"/>
      <path d="M 31 75.875 
Q 24.46875 64.65625 21.28125 53.65625 
Q 18.109375 42.671875 18.109375 31.390625 
Q 18.109375 20.125 21.3125 9.0625 
Q 24.515625 -2 31 -13.1875 
L 23.1875 -13.1875 
Q 15.875 -1.703125 12.234375 9.375 
Q 8.59375 20.453125 8.59375 31.390625 
Q 8.59375 42.28125 12.203125 53.3125 
Q 15.828125 64.359375 23.1875 75.875 
z
" id="DejaVuSans-28"/>
      <path d="M 51.125 44 
L 36.921875 44 
L 32.8125 27.6875 
L 47.125 27.6875 
z
M 43.796875 71.78125 
L 38.71875 51.515625 
L 52.984375 51.515625 
L 58.109375 71.78125 
L 65.921875 71.78125 
L 60.890625 51.515625 
L 76.125 51.515625 
L 76.125 44 
L 58.984375 44 
L 54.984375 27.6875 
L 70.515625 27.6875 
L 70.515625 20.21875 
L 53.078125 20.21875 
L 48 0 
L 40.1875 0 
L 45.21875 20.21875 
L 30.90625 20.21875 
L 25.875 0 
L 18.015625 0 
L 23.09375 20.21875 
L 7.71875 20.21875 
L 7.71875 27.6875 
L 24.90625 27.6875 
L 29 44 
L 13.28125 44 
L 13.28125 51.515625 
L 30.90625 51.515625 
L 35.890625 71.78125 
z
" id="DejaVuSans-23"/>
      <path id="DejaVuSans-20"/>
      <path d="M 37.109375 75.984375 
L 37.109375 68.5 
L 28.515625 68.5 
Q 23.6875 68.5 21.796875 66.546875 
Q 19.921875 64.59375 19.921875 59.515625 
L 19.921875 54.6875 
L 34.71875 54.6875 
L 34.71875 47.703125 
L 19.921875 47.703125 
L 19.921875 0 
L 10.890625 0 
L 10.890625 47.703125 
L 2.296875 47.703125 
L 2.296875 54.6875 
L 10.890625 54.6875 
L 10.890625 58.5 
Q 10.890625 67.625 15.140625 71.796875 
Q 19.390625 75.984375 28.609375 75.984375 
z
" id="DejaVuSans-66"/>
      <path d="M 4.890625 31.390625 
L 31.203125 31.390625 
L 31.203125 23.390625 
L 4.890625 23.390625 
z
" id="DejaVuSans-2d"/>
      <path d="M 56.203125 29.59375 
L 56.203125 25.203125 
L 14.890625 25.203125 
Q 15.484375 15.921875 20.484375 11.0625 
Q 25.484375 6.203125 34.421875 6.203125 
Q 39.59375 6.203125 44.453125 7.46875 
Q 49.3125 8.734375 54.109375 11.28125 
L 54.109375 2.78125 
Q 49.265625 0.734375 44.1875 -0.34375 
Q 39.109375 -1.421875 33.890625 -1.421875 
Q 20.796875 -1.421875 13.15625 6.1875 
Q 5.515625 13.8125 5.515625 26.8125 
Q 5.515625 40.234375 12.765625 48.109375 
Q 20.015625 56 32.328125 56 
Q 43.359375 56 49.78125 48.890625 
Q 56.203125 41.796875 56.203125 29.59375 
z
M 47.21875 32.234375 
Q 47.125 39.59375 43.09375 43.984375 
Q 39.0625 48.390625 32.421875 48.390625 
Q 24.90625 48.390625 20.390625 44.140625 
Q 15.875 39.890625 15.1875 32.171875 
z
" id="DejaVuSans-65"/>
      <path d="M 2.984375 54.6875 
L 12.5 54.6875 
L 29.59375 8.796875 
L 46.6875 54.6875 
L 56.203125 54.6875 
L 35.6875 0 
L 23.484375 0 
z
" id="DejaVuSans-76"/>
      <path d="M 34.28125 27.484375 
Q 23.390625 27.484375 19.1875 25 
Q 14.984375 22.515625 14.984375 16.5 
Q 14.984375 11.71875 18.140625 8.90625 
Q 21.296875 6.109375 26.703125 6.109375 
Q 34.1875 6.109375 38.703125 11.40625 
Q 43.21875 16.703125 43.21875 25.484375 
L 43.21875 27.484375 
z
M 52.203125 31.203125 
L 52.203125 0 
L 43.21875 0 
L 43.21875 8.296875 
Q 40.140625 3.328125 35.546875 0.953125 
Q 30.953125 -1.421875 24.3125 -1.421875 
Q 15.921875 -1.421875 10.953125 3.296875 
Q 6 8.015625 6 15.921875 
Q 6 25.140625 12.171875 29.828125 
Q 18.359375 34.515625 30.609375 34.515625 
L 43.21875 34.515625 
L 43.21875 35.40625 
Q 43.21875 41.609375 39.140625 45 
Q 35.0625 48.390625 27.6875 48.390625 
Q 23 48.390625 18.546875 47.265625 
Q 14.109375 46.140625 10.015625 43.890625 
L 10.015625 52.203125 
Q 14.9375 54.109375 19.578125 55.046875 
Q 24.21875 56 28.609375 56 
Q 40.484375 56 46.34375 49.84375 
Q 52.203125 43.703125 52.203125 31.203125 
z
" id="DejaVuSans-61"/>
      <path d="M 44.28125 53.078125 
L 44.28125 44.578125 
Q 40.484375 46.53125 36.375 47.5 
Q 32.28125 48.484375 27.875 48.484375 
Q 21.1875 48.484375 17.84375 46.4375 
Q 14.5 44.390625 14.5 40.28125 
Q 14.5 37.15625 16.890625 35.375 
Q 19.28125 33.59375 26.515625 31.984375 
L 29.59375 31.296875 
Q 39.15625 29.25 43.1875 25.515625 
Q 47.21875 21.78125 47.21875 15.09375 
Q 47.21875 7.46875 41.1875 3.015625 
Q 35.15625 -1.421875 24.609375 -1.421875 
Q 20.21875 -1.421875 15.453125 -0.5625 
Q 10.6875 0.296875 5.421875 2 
L 5.421875 11.28125 
Q 10.40625 8.6875 15.234375 7.390625 
Q 20.0625 6.109375 24.8125 6.109375 
Q 31.15625 6.109375 34.5625 8.28125 
Q 37.984375 10.453125 37.984375 14.40625 
Q 37.984375 18.0625 35.515625 20.015625 
Q 33.0625 21.96875 24.703125 23.78125 
L 21.578125 24.515625 
Q 13.234375 26.265625 9.515625 29.90625 
Q 5.8125 33.546875 5.8125 39.890625 
Q 5.8125 47.609375 11.28125 51.796875 
Q 16.75 56 26.8125 56 
Q 31.78125 56 36.171875 55.265625 
Q 40.578125 54.546875 44.28125 53.078125 
z
" id="DejaVuSans-73"/>
      <path d="M 25.390625 72.90625 
L 33.6875 72.90625 
L 8.296875 -9.28125 
L 0 -9.28125 
z
" id="DejaVuSans-2f"/>
      <path d="M 45.40625 46.390625 
L 45.40625 75.984375 
L 54.390625 75.984375 
L 54.390625 0 
L 45.40625 0 
L 45.40625 8.203125 
Q 42.578125 3.328125 38.25 0.953125 
Q 33.9375 -1.421875 27.875 -1.421875 
Q 17.96875 -1.421875 11.734375 6.484375 
Q 5.515625 14.40625 5.515625 27.296875 
Q 5.515625 40.1875 11.734375 48.09375 
Q 17.96875 56 27.875 56 
Q 33.9375 56 38.25 53.625 
Q 42.578125 51.265625 45.40625 46.390625 
z
M 14.796875 27.296875 
Q 14.796875 17.390625 18.875 11.75 
Q 22.953125 6.109375 30.078125 6.109375 
Q 37.203125 6.109375 41.296875 11.75 
Q 45.40625 17.390625 45.40625 27.296875 
Q 45.40625 37.203125 41.296875 42.84375 
Q 37.203125 48.484375 30.078125 48.484375 
Q 22.953125 48.484375 18.875 42.84375 
Q 14.796875 37.203125 14.796875 27.296875 
z
" id="DejaVuSans-64"/>
      <path d="M 9.421875 54.6875 
L 18.40625 54.6875 
L 18.40625 0 
L 9.421875 0 
z
M 9.421875 75.984375 
L 18.40625 75.984375 
L 18.40625 64.59375 
L 9.421875 64.59375 
z
" id="DejaVuSans-69"/>
      <path d="M 52 44.1875 
Q 55.375 50.25 60.0625 53.125 
Q 64.75 56 71.09375 56 
Q 79.640625 56 84.28125 50.015625 
Q 88.921875 44.046875 88.921875 33.015625 
L 88.921875 0 
L 79.890625 0 
L 79.890625 32.71875 
Q 79.890625 40.578125 77.09375 44.375 
Q 74.3125 48.1875 68.609375 48.1875 
Q 61.625 48.1875 57.5625 43.546875 
Q 53.515625 38.921875 53.515625 30.90625 
L 53.515625 0 
L 44.484375 0 
L 44.484375 32.71875 
Q 44.484375 40.625 41.703125 44.40625 
Q 38.921875 48.1875 33.109375 48.1875 
Q 26.21875 48.1875 22.15625 43.53125 
Q 18.109375 38.875 18.109375 30.90625 
L 18.109375 0 
L 9.078125 0 
L 9.078125 54.6875 
L 18.109375 54.6875 
L 18.109375 46.1875 
Q 21.1875 51.21875 25.484375 53.609375 
Q 29.78125 56 35.6875 56 
Q 41.65625 56 45.828125 52.96875 
Q 50 49.953125 52 44.1875 
z
" id="DejaVuSans-6d"/>
      <path d="M 54.890625 33.015625 
L 54.890625 0 
L 45.90625 0 
L 45.90625 32.71875 
Q 45.90625 40.484375 42.875 44.328125 
Q 39.84375 48.1875 33.796875 48.1875 
Q 26.515625 48.1875 22.3125 43.546875 
Q 18.109375 38.921875 18.109375 30.90625 
L 18.109375 0 
L 9.078125 0 
L 9.078125 54.6875 
L 18.109375 54.6875 
L 18.109375 46.1875 
Q 21.34375 51.125 25.703125 53.5625 
Q 30.078125 56 35.796875 56 
Q 45.21875 56 50.046875 50.171875 
Q 54.890625 44.34375 54.890625 33.015625 
z
" id="DejaVuSans-6e"/>
      <path d="M 8.015625 75.875 
L 15.828125 75.875 
Q 23.140625 64.359375 26.78125 53.3125 
Q 30.421875 42.28125 30.421875 31.390625 
Q 30.421875 20.453125 26.78125 9.375 
Q 23.140625 -1.703125 15.828125 -13.1875 
L 8.015625 -13.1875 
Q 14.5 -2 17.703125 9.0625 
Q 20.90625 20.125 20.90625 31.390625 
Q 20.90625 42.671875 17.703125 53.65625 
Q 14.5 64.65625 8.015625 75.875 
z
" id="DejaVuSans-29"/>
     </defs>
     <g transform="translate(73.803219 338.153594)scale(0.17 -0.17)">
      <use xlink:href="#DejaVuSans-6c"/>
      <use x="27.783203" xlink:href="#DejaVuSans-6f"/>
      <use x="88.964844" xlink:href="#DejaVuSans-67"/>
      <use x="152.441406" xlink:href="#DejaVuSans-31"/>
      <use x="216.064453" xlink:href="#DejaVuSans-30"/>
      <use x="279.6875" xlink:href="#DejaVuSans-28"/>
      <use x="318.701172" xlink:href="#DejaVuSans-23"/>
      <use x="402.490234" xlink:href="#DejaVuSans-20"/>
      <use x="434.277344" xlink:href="#DejaVuSans-66"/>
      <use x="469.404297" xlink:href="#DejaVuSans-2d"/>
      <use x="505.488281" xlink:href="#DejaVuSans-65"/>
      <use x="567.011719" xlink:href="#DejaVuSans-76"/>
      <use x="626.191406" xlink:href="#DejaVuSans-61"/>
      <use x="687.470703" xlink:href="#DejaVuSans-6c"/>
      <use x="715.253906" xlink:href="#DejaVuSans-73"/>
      <use x="767.353516" xlink:href="#DejaVuSans-20"/>
      <use x="799.140625" xlink:href="#DejaVuSans-2f"/>
      <use x="832.832031" xlink:href="#DejaVuSans-20"/>
      <use x="864.619141" xlink:href="#DejaVuSans-64"/>
      <use x="928.095703" xlink:href="#DejaVuSans-69"/>
      <use x="955.878906" xlink:href="#DejaVuSans-6d"/>
      <use x="1053.291016" xlink:href="#DejaVuSans-65"/>
      <use x="1114.814453" xlink:href="#DejaVuSans-6e"/>
      <use x="1178.193359" xlink:href="#DejaVuSans-73"/>
      <use x="1230.292969" xlink:href="#DejaVuSans-69"/>
      <use x="1258.076172" xlink:href="#DejaVuSans-6f"/>
      <use x="1319.257812" xlink:href="#DejaVuSans-6e"/>
      <use x="1382.636719" xlink:href="#DejaVuSans-29"/>
     </g>
    </g>
   </g>
   <g id="matplotlib.axis_2">
    <g id="ytick_1">
     <g id="line2d_29">
      <path clip-path="url(#p4e84524b08)" d="M 56.12 294.88 
L 333.168 294.88 
" style="fill:none;stroke:#b0b0b0;stroke-linecap:square;stroke-width:0.8;"/>
     </g>
     <g id="line2d_30">
      <defs>
       <path d="M 0 0 
L -3.5 0 
" id="m3311368e4d" style="stroke:#000000;stroke-width:0.8;"/>
      </defs>
      <g>
       <use style="stroke:#000000;stroke-width:0.8;" x="56.12" xlink:href="#m3311368e4d" y="294.88"/>
      </g>
     </g>
     <g id="text_6">
      <!-- 0.0 -->
      <defs>
       <path d="M 10.6875 12.40625 
L 21 12.40625 
L 21 0 
L 10.6875 0 
z
" id="DejaVuSans-2e"/>
      </defs>
      <g transform="translate(23.675 300.95875)scale(0.16 -0.16)">
       <use xlink:href="#DejaVuSans-30"/>
       <use x="63.623047" xlink:href="#DejaVuSans-2e"/>
       <use x="95.410156" xlink:href="#DejaVuSans-30"/>
      </g>
     </g>
    </g>
    <g id="ytick_2">
     <g id="line2d_31">
      <path clip-path="url(#p4e84524b08)" d="M 56.12 237.843411 
L 333.168 237.843411 
" style="fill:none;stroke:#b0b0b0;stroke-linecap:square;stroke-width:0.8;"/>
     </g>
     <g id="line2d_32">
      <g>
       <use style="stroke:#000000;stroke-width:0.8;" x="56.12" xlink:href="#m3311368e4d" y="237.843411"/>
      </g>
     </g>
     <g id="text_7">
      <!-- 0.2 -->
      <g transform="translate(23.675 243.922161)scale(0.16 -0.16)">
       <use xlink:href="#DejaVuSans-30"/>
       <use x="63.623047" xlink:href="#DejaVuSans-2e"/>
       <use x="95.410156" xlink:href="#DejaVuSans-32"/>
      </g>
     </g>
    </g>
    <g id="ytick_3">
     <g id="line2d_33">
      <path clip-path="url(#p4e84524b08)" d="M 56.12 180.806823 
L 333.168 180.806823 
" style="fill:none;stroke:#b0b0b0;stroke-linecap:square;stroke-width:0.8;"/>
     </g>
     <g id="line2d_34">
      <g>
       <use style="stroke:#000000;stroke-width:0.8;" x="56.12" xlink:href="#m3311368e4d" y="180.806823"/>
      </g>
     </g>
     <g id="text_8">
      <!-- 0.4 -->
      <g transform="translate(23.675 186.885573)scale(0.16 -0.16)">
       <use xlink:href="#DejaVuSans-30"/>
       <use x="63.623047" xlink:href="#DejaVuSans-2e"/>
       <use x="95.410156" xlink:href="#DejaVuSans-34"/>
      </g>
     </g>
    </g>
    <g id="ytick_4">
     <g id="line2d_35">
      <path clip-path="url(#p4e84524b08)" d="M 56.12 123.770234 
L 333.168 123.770234 
" style="fill:none;stroke:#b0b0b0;stroke-linecap:square;stroke-width:0.8;"/>
     </g>
     <g id="line2d_36">
      <g>
       <use style="stroke:#000000;stroke-width:0.8;" x="56.12" xlink:href="#m3311368e4d" y="123.770234"/>
      </g>
     </g>
     <g id="text_9">
      <!-- 0.6 -->
      <g transform="translate(23.675 129.848984)scale(0.16 -0.16)">
       <use xlink:href="#DejaVuSans-30"/>
       <use x="63.623047" xlink:href="#DejaVuSans-2e"/>
       <use x="95.410156" xlink:href="#DejaVuSans-36"/>
      </g>
     </g>
    </g>
    <g id="ytick_5">
     <g id="line2d_37">
      <path clip-path="url(#p4e84524b08)" d="M 56.12 66.733646 
L 333.168 66.733646 
" style="fill:none;stroke:#b0b0b0;stroke-linecap:square;stroke-width:0.8;"/>
     </g>
     <g id="line2d_38">
      <g>
       <use style="stroke:#000000;stroke-width:0.8;" x="56.12" xlink:href="#m3311368e4d" y="66.733646"/>
      </g>
     </g>
     <g id="text_10">
      <!-- 0.8 -->
      <defs>
       <path d="M 31.78125 34.625 
Q 24.75 34.625 20.71875 30.859375 
Q 16.703125 27.09375 16.703125 20.515625 
Q 16.703125 13.921875 20.71875 10.15625 
Q 24.75 6.390625 31.78125 6.390625 
Q 38.8125 6.390625 42.859375 10.171875 
Q 46.921875 13.96875 46.921875 20.515625 
Q 46.921875 27.09375 42.890625 30.859375 
Q 38.875 34.625 31.78125 34.625 
z
M 21.921875 38.8125 
Q 15.578125 40.375 12.03125 44.71875 
Q 8.5 49.078125 8.5 55.328125 
Q 8.5 64.0625 14.71875 69.140625 
Q 20.953125 74.21875 31.78125 74.21875 
Q 42.671875 74.21875 48.875 69.140625 
Q 55.078125 64.0625 55.078125 55.328125 
Q 55.078125 49.078125 51.53125 44.71875 
Q 48 40.375 41.703125 38.8125 
Q 48.828125 37.15625 52.796875 32.3125 
Q 56.78125 27.484375 56.78125 20.515625 
Q 56.78125 9.90625 50.3125 4.234375 
Q 43.84375 -1.421875 31.78125 -1.421875 
Q 19.734375 -1.421875 13.25 4.234375 
Q 6.78125 9.90625 6.78125 20.515625 
Q 6.78125 27.484375 10.78125 32.3125 
Q 14.796875 37.15625 21.921875 38.8125 
z
M 18.3125 54.390625 
Q 18.3125 48.734375 21.84375 45.5625 
Q 25.390625 42.390625 31.78125 42.390625 
Q 38.140625 42.390625 41.71875 45.5625 
Q 45.3125 48.734375 45.3125 54.390625 
Q 45.3125 60.0625 41.71875 63.234375 
Q 38.140625 66.40625 31.78125 66.40625 
Q 25.390625 66.40625 21.84375 63.234375 
Q 18.3125 60.0625 18.3125 54.390625 
z
" id="DejaVuSans-38"/>
      </defs>
      <g transform="translate(23.675 72.812396)scale(0.16 -0.16)">
       <use xlink:href="#DejaVuSans-30"/>
       <use x="63.623047" xlink:href="#DejaVuSans-2e"/>
       <use x="95.410156" xlink:href="#DejaVuSans-38"/>
      </g>
     </g>
    </g>
    <g id="ytick_6">
     <g id="line2d_39">
      <path clip-path="url(#p4e84524b08)" d="M 56.12 9.697057 
L 333.168 9.697057 
" style="fill:none;stroke:#b0b0b0;stroke-linecap:square;stroke-width:0.8;"/>
     </g>
     <g id="line2d_40">
      <g>
       <use style="stroke:#000000;stroke-width:0.8;" x="56.12" xlink:href="#m3311368e4d" y="9.697057"/>
      </g>
     </g>
     <g id="text_11">
      <!-- 1.0 -->
      <g transform="translate(23.675 15.775807)scale(0.16 -0.16)">
       <use xlink:href="#DejaVuSans-31"/>
       <use x="63.623047" xlink:href="#DejaVuSans-2e"/>
       <use x="95.410156" xlink:href="#DejaVuSans-30"/>
      </g>
     </g>
    </g>
    <g id="text_12">
     <!-- Fraction of function,target pairs -->
     <defs>
      <path d="M 9.8125 72.90625 
L 51.703125 72.90625 
L 51.703125 64.59375 
L 19.671875 64.59375 
L 19.671875 43.109375 
L 48.578125 43.109375 
L 48.578125 34.8125 
L 19.671875 34.8125 
L 19.671875 0 
L 9.8125 0 
z
" id="DejaVuSans-46"/>
      <path d="M 41.109375 46.296875 
Q 39.59375 47.171875 37.8125 47.578125 
Q 36.03125 48 33.890625 48 
Q 26.265625 48 22.1875 43.046875 
Q 18.109375 38.09375 18.109375 28.8125 
L 18.109375 0 
L 9.078125 0 
L 9.078125 54.6875 
L 18.109375 54.6875 
L 18.109375 46.1875 
Q 20.953125 51.171875 25.484375 53.578125 
Q 30.03125 56 36.53125 56 
Q 37.453125 56 38.578125 55.875 
Q 39.703125 55.765625 41.0625 55.515625 
z
" id="DejaVuSans-72"/>
      <path d="M 48.78125 52.59375 
L 48.78125 44.1875 
Q 44.96875 46.296875 41.140625 47.34375 
Q 37.3125 48.390625 33.40625 48.390625 
Q 24.65625 48.390625 19.8125 42.84375 
Q 14.984375 37.3125 14.984375 27.296875 
Q 14.984375 17.28125 19.8125 11.734375 
Q 24.65625 6.203125 33.40625 6.203125 
Q 37.3125 6.203125 41.140625 7.25 
Q 44.96875 8.296875 48.78125 10.40625 
L 48.78125 2.09375 
Q 45.015625 0.34375 40.984375 -0.53125 
Q 36.96875 -1.421875 32.421875 -1.421875 
Q 20.0625 -1.421875 12.78125 6.34375 
Q 5.515625 14.109375 5.515625 27.296875 
Q 5.515625 40.671875 12.859375 48.328125 
Q 20.21875 56 33.015625 56 
Q 37.15625 56 41.109375 55.140625 
Q 45.0625 54.296875 48.78125 52.59375 
z
" id="DejaVuSans-63"/>
      <path d="M 18.3125 70.21875 
L 18.3125 54.6875 
L 36.8125 54.6875 
L 36.8125 47.703125 
L 18.3125 47.703125 
L 18.3125 18.015625 
Q 18.3125 11.328125 20.140625 9.421875 
Q 21.96875 7.515625 27.59375 7.515625 
L 36.8125 7.515625 
L 36.8125 0 
L 27.59375 0 
Q 17.1875 0 13.234375 3.875 
Q 9.28125 7.765625 9.28125 18.015625 
L 9.28125 47.703125 
L 2.6875 47.703125 
L 2.6875 54.6875 
L 9.28125 54.6875 
L 9.28125 70.21875 
z
" id="DejaVuSans-74"/>
      <path d="M 8.5 21.578125 
L 8.5 54.6875 
L 17.484375 54.6875 
L 17.484375 21.921875 
Q 17.484375 14.15625 20.5 10.265625 
Q 23.53125 6.390625 29.59375 6.390625 
Q 36.859375 6.390625 41.078125 11.03125 
Q 45.3125 15.671875 45.3125 23.6875 
L 45.3125 54.6875 
L 54.296875 54.6875 
L 54.296875 0 
L 45.3125 0 
L 45.3125 8.40625 
Q 42.046875 3.421875 37.71875 1 
Q 33.40625 -1.421875 27.6875 -1.421875 
Q 18.265625 -1.421875 13.375 4.4375 
Q 8.5 10.296875 8.5 21.578125 
z
M 31.109375 56 
z
" id="DejaVuSans-75"/>
      <path d="M 11.71875 12.40625 
L 22.015625 12.40625 
L 22.015625 4 
L 14.015625 -11.625 
L 7.71875 -11.625 
L 11.71875 4 
z
" id="DejaVuSans-2c"/>
      <path d="M 18.109375 8.203125 
L 18.109375 -20.796875 
L 9.078125 -20.796875 
L 9.078125 54.6875 
L 18.109375 54.6875 
L 18.109375 46.390625 
Q 20.953125 51.265625 25.265625 53.625 
Q 29.59375 56 35.59375 56 
Q 45.5625 56 51.78125 48.09375 
Q 58.015625 40.1875 58.015625 27.296875 
Q 58.015625 14.40625 51.78125 6.484375 
Q 45.5625 -1.421875 35.59375 -1.421875 
Q 29.59375 -1.421875 25.265625 0.953125 
Q 20.953125 3.328125 18.109375 8.203125 
z
M 48.6875 27.296875 
Q 48.6875 37.203125 44.609375 42.84375 
Q 40.53125 48.484375 33.40625 48.484375 
Q 26.265625 48.484375 22.1875 42.84375 
Q 18.109375 37.203125 18.109375 27.296875 
Q 18.109375 17.390625 22.1875 11.75 
Q 26.265625 6.109375 33.40625 6.109375 
Q 40.53125 6.109375 44.609375 11.75 
Q 48.6875 17.390625 48.6875 27.296875 
z
" id="DejaVuSans-70"/>
     </defs>
     <g transform="translate(16.139531 286.001989)rotate(-90)scale(0.17 -0.17)">
      <use xlink:href="#DejaVuSans-46"/>
      <use x="57.410156" xlink:href="#DejaVuSans-72"/>
      <use x="98.523438" xlink:href="#DejaVuSans-61"/>
      <use x="159.802734" xlink:href="#DejaVuSans-63"/>
      <use x="214.783203" xlink:href="#DejaVuSans-74"/>
      <use x="253.992188" xlink:href="#DejaVuSans-69"/>
      <use x="281.775391" xlink:href="#DejaVuSans-6f"/>
      <use x="342.957031" xlink:href="#DejaVuSans-6e"/>
      <use x="406.335938" xlink:href="#DejaVuSans-20"/>
      <use x="438.123047" xlink:href="#DejaVuSans-6f"/>
      <use x="499.304688" xlink:href="#DejaVuSans-66"/>
      <use x="534.509766" xlink:href="#DejaVuSans-20"/>
      <use x="566.296875" xlink:href="#DejaVuSans-66"/>
      <use x="601.501953" xlink:href="#DejaVuSans-75"/>
      <use x="664.880859" xlink:href="#DejaVuSans-6e"/>
      <use x="728.259766" xlink:href="#DejaVuSans-63"/>
      <use x="783.240234" xlink:href="#DejaVuSans-74"/>
      <use x="822.449219" xlink:href="#DejaVuSans-69"/>
      <use x="850.232422" xlink:href="#DejaVuSans-6f"/>
      <use x="911.414062" xlink:href="#DejaVuSans-6e"/>
      <use x="974.792969" xlink:href="#DejaVuSans-2c"/>
      <use x="1006.580078" xlink:href="#DejaVuSans-74"/>
      <use x="1045.789062" xlink:href="#DejaVuSans-61"/>
      <use x="1107.068359" xlink:href="#DejaVuSans-72"/>
      <use x="1148.166016" xlink:href="#DejaVuSans-67"/>
      <use x="1211.642578" xlink:href="#DejaVuSans-65"/>
      <use x="1273.166016" xlink:href="#DejaVuSans-74"/>
      <use x="1312.375" xlink:href="#DejaVuSans-20"/>
      <use x="1344.162109" xlink:href="#DejaVuSans-70"/>
      <use x="1407.638672" xlink:href="#DejaVuSans-61"/>
      <use x="1468.917969" xlink:href="#DejaVuSans-69"/>
      <use x="1496.701172" xlink:href="#DejaVuSans-72"/>
      <use x="1537.814453" xlink:href="#DejaVuSans-73"/>
     </g>
    </g>
   </g>
   <g id="line2d_41">
    <defs>
     <path d="M 0 1.5 
C 0.397805 1.5 0.77937 1.341951 1.06066 1.06066 
C 1.341951 0.77937 1.5 0.397805 1.5 0 
C 1.5 -0.397805 1.341951 -0.77937 1.06066 -1.06066 
C 0.77937 -1.341951 0.397805 -1.5 0 -1.5 
C -0.397805 -1.5 -0.77937 -1.341951 -1.06066 -1.06066 
C -1.341951 -0.77937 -1.5 -0.397805 -1.5 0 
C -1.5 0.397805 -1.341951 0.77937 -1.06066 1.06066 
C -0.77937 1.341951 -0.397805 1.5 0 1.5 
z
" id="m4763f44bd7" style="stroke:#f5deb3;"/>
    </defs>
    <g>
     <use style="fill:#f5deb3;stroke:#f5deb3;" x="229.821772" xlink:href="#m4763f44bd7" y="9.697057"/>
     <use style="fill:#f5deb3;stroke:#f5deb3;" x="229.821772" xlink:href="#m4763f44bd7" y="9.697057"/>
    </g>
   </g>
   <g id="line2d_42">
    <defs>
     <path d="M 0 1.5 
C 0.397805 1.5 0.77937 1.341951 1.06066 1.06066 
C 1.341951 0.77937 1.5 0.397805 1.5 0 
C 1.5 -0.397805 1.341951 -0.77937 1.06066 -1.06066 
C 0.77937 -1.341951 0.397805 -1.5 0 -1.5 
C -0.397805 -1.5 -0.77937 -1.341951 -1.06066 -1.06066 
C -1.341951 -0.77937 -1.5 -0.397805 -1.5 0 
C -1.5 0.397805 -1.341951 0.77937 -1.06066 1.06066 
C -0.77937 1.341951 -0.397805 1.5 0 1.5 
z
" id="mab97f45ddf" style="stroke:#000080;"/>
    </defs>
    <g>
     <use style="fill:#000080;stroke:#000080;" x="284.47883" xlink:href="#mab97f45ddf" y="235.606682"/>
     <use style="fill:#000080;stroke:#000080;" x="284.47883" xlink:href="#mab97f45ddf" y="235.606682"/>
    </g>
   </g>
   <g id="line2d_43">
    <path d="M 28.455965 294.88 
L 28.455965 286.827776 
L 61.903497 286.827776 
L 61.903497 284.47921 
L 72.543934 284.47921 
L 72.543934 283.696355 
L 79.066841 283.696355 
L 79.066841 282.9135 
L 83.784035 282.9135 
L 83.784035 282.689827 
L 87.481505 282.689827 
L 87.481505 282.354318 
L 90.522701 282.354318 
L 90.522701 282.130645 
L 93.105847 282.130645 
L 93.105847 282.018808 
L 97.336537 282.018808 
L 97.336537 281.683299 
L 99.11626 281.683299 
L 99.11626 281.571463 
L 103.560793 281.571463 
L 103.560793 281.459626 
L 104.819059 281.459626 
L 104.819059 281.34779 
L 105.991465 281.34779 
L 105.991465 281.235953 
L 107.088985 281.235953 
L 107.088985 281.124117 
L 108.120612 281.124117 
L 108.120612 280.900444 
L 109.093814 280.900444 
L 109.093814 280.788608 
L 110.014853 280.788608 
L 110.014853 280.676771 
L 110.88904 280.676771 
L 110.88904 280.564935 
L 111.72091 280.564935 
L 111.72091 280.341262 
L 113.272818 280.341262 
L 113.272818 280.229425 
L 116.010559 280.229425 
L 116.010559 280.117589 
L 116.631902 280.117589 
L 116.631902 280.005752 
L 117.231566 280.005752 
L 117.231566 279.782079 
L 117.811013 279.782079 
L 117.811013 279.334734 
L 118.371562 279.334734 
L 118.371562 279.222897 
L 119.440629 279.222897 
L 119.440629 279.111061 
L 119.95122 279.111061 
L 119.95122 278.775551 
L 120.447081 278.775551 
L 120.447081 278.663715 
L 121.397846 278.663715 
L 121.397846 278.551879 
L 122.298767 278.551879 
L 122.298767 278.328206 
L 122.732117 278.328206 
L 122.732117 277.992696 
L 123.154809 277.992696 
L 123.154809 277.88086 
L 123.970233 277.88086 
L 123.970233 277.769023 
L 124.748719 277.769023 
L 124.748719 277.545351 
L 125.125128 277.545351 
L 125.125128 276.986168 
L 125.854083 276.986168 
L 125.854083 276.874332 
L 126.207287 276.874332 
L 126.207287 276.762495 
L 126.892639 276.762495 
L 126.892639 276.650659 
L 127.551708 276.650659 
L 127.551708 276.538822 
L 128.186438 276.538822 
L 128.186438 276.426986 
L 128.495224 276.426986 
L 128.495224 276.203313 
L 129.096637 276.203313 
L 129.096637 276.091477 
L 129.677716 276.091477 
L 129.677716 275.755967 
L 130.239792 275.755967 
L 130.239792 275.644131 
L 130.514085 275.644131 
L 130.514085 275.532294 
L 131.569473 275.532294 
L 131.569473 275.308622 
L 132.320552 275.308622 
L 132.320552 275.196785 
L 132.563791 275.196785 
L 132.563791 275.084949 
L 133.040181 275.084949 
L 133.040181 274.973112 
L 133.503723 274.973112 
L 133.503723 274.749439 
L 133.730889 274.749439 
L 133.730889 274.525766 
L 136.245672 274.525766 
L 136.245672 274.41393 
L 136.439531 274.41393 
L 136.439531 274.302094 
L 137.558897 274.302094 
L 137.558897 274.190257 
L 137.738571 274.190257 
L 137.738571 274.078421 
L 138.266591 274.078421 
L 138.266591 273.742911 
L 138.439053 273.742911 
L 138.439053 273.519238 
L 138.778873 273.519238 
L 138.778873 273.407402 
L 138.946296 273.407402 
L 138.946296 273.295566 
L 139.276327 273.295566 
L 139.276327 273.071893 
L 139.600142 273.071893 
L 139.600142 272.960056 
L 139.75979 272.960056 
L 139.75979 272.84822 
L 139.917968 272.84822 
L 139.917968 272.736383 
L 140.230025 272.736383 
L 140.230025 272.624547 
L 140.383954 272.624547 
L 140.383954 272.400874 
L 140.837639 272.400874 
L 140.837639 272.289037 
L 140.986245 272.289037 
L 140.986245 272.177201 
L 141.279657 272.177201 
L 141.279657 272.065365 
L 142.268865 272.065365 
L 142.268865 271.953528 
L 142.541345 271.953528 
L 142.541345 271.841692 
L 142.809574 271.841692 
L 142.809574 271.618019 
L 142.942135 271.618019 
L 142.942135 271.506182 
L 143.073681 271.506182 
L 143.073681 271.394346 
L 143.842493 271.394346 
L 143.842493 271.170673 
L 143.967351 271.170673 
L 143.967351 270.947 
L 144.934844 270.947 
L 144.934844 270.723327 
L 145.168442 270.723327 
L 145.168442 270.611491 
L 145.512992 270.611491 
L 145.512992 270.499654 
L 145.85077 270.499654 
L 145.85077 270.387818 
L 145.961904 270.387818 
L 146.072324 270.164145 
L 148.624726 270.164145 
L 148.624726 270.052309 
L 148.813441 270.052309 
L 148.813441 269.940472 
L 149.000107 269.940472 
L 149.092685 269.716799 
L 149.276358 269.716799 
L 149.367465 269.493126 
L 149.548241 269.493126 
L 149.637921 269.157617 
L 149.904187 269.157617 
L 149.904187 269.04578 
L 150.166392 269.04578 
L 150.166392 268.822108 
L 151.339751 268.822108 
L 151.339751 268.598435 
L 151.660793 268.598435 
L 151.740126 268.374762 
L 152.131386 268.374762 
L 152.131386 268.262925 
L 152.28543 268.262925 
L 152.28543 268.151089 
L 152.438106 268.151089 
L 152.438106 268.039252 
L 152.813965 268.039252 
L 152.888161 267.703743 
L 153.108845 267.703743 
L 153.108845 267.591907 
L 153.541892 267.591907 
L 153.613017 267.368234 
L 153.68385 267.368234 
L 153.68385 267.256397 
L 153.964296 267.256397 
L 153.964296 267.144561 
L 154.171668 267.144561 
L 154.24024 266.920888 
L 154.511824 266.920888 
L 154.511824 266.809052 
L 154.646023 266.809052 
L 154.646023 266.585379 
L 155.172583 266.585379 
L 155.172583 266.473542 
L 156.542589 266.473542 
L 156.542589 266.361706 
L 156.898024 266.361706 
L 156.898024 266.249869 
L 157.014888 266.249869 
L 157.014888 266.138033 
L 157.130962 266.138033 
L 157.130962 266.026196 
L 157.246258 266.026196 
L 157.246258 265.91436 
L 157.866922 265.91436 
L 157.866922 265.802523 
L 158.087174 265.802523 
L 158.087174 265.690687 
L 158.250531 265.690687 
L 158.30464 265.467014 
L 159.403273 265.467014 
L 159.453878 265.243341 
L 159.654819 265.243341 
L 159.654819 265.131505 
L 159.853438 265.131505 
L 159.853438 265.019668 
L 160.098527 265.019668 
L 160.098527 264.907832 
L 162.073413 264.907832 
L 162.159969 264.684159 
L 162.45953 264.684159 
L 162.544168 264.460486 
L 162.795612 264.460486 
L 162.878615 264.236813 
L 163.125248 264.236813 
L 163.166011 263.901304 
L 164.383994 263.901304 
L 164.421883 263.677631 
L 164.943731 263.677631 
L 164.943731 263.565795 
L 165.234968 263.565795 
L 165.234968 263.453958 
L 165.521353 263.453958 
L 165.627529 263.230285 
L 167.048979 263.230285 
L 167.048979 263.118449 
L 167.210629 263.118449 
L 167.210629 263.006612 
L 167.402623 263.006612 
L 167.402623 262.894776 
L 167.873431 262.894776 
L 167.966064 262.44743 
L 168.088804 262.44743 
L 168.180287 262.111921 
L 168.924285 262.111921 
L 168.924285 262.000084 
L 169.126961 262.000084 
L 169.126961 261.888248 
L 170.078759 261.888248 
L 170.078759 261.776411 
L 170.509058 261.776411 
L 170.509058 261.664575 
L 170.798761 261.664575 
L 170.876931 261.440902 
L 171.006429 261.440902 
L 171.006429 261.329066 
L 171.689343 261.329066 
L 171.689343 261.217229 
L 172.536046 261.217229 
L 172.536046 261.105393 
L 172.978796 261.105393 
L 172.978796 260.88172 
L 173.161859 260.88172 
L 173.207321 260.658047 
L 174.263836 260.658047 
L 174.263836 260.54621 
L 174.851419 260.54621 
L 174.851419 260.434374 
L 175.814207 260.434374 
L 175.814207 260.322538 
L 176.891605 260.322538 
L 176.891605 260.210701 
L 177.325791 260.210701 
L 177.325791 260.098865 
L 177.609273 260.098865 
L 177.679418 259.539682 
L 177.853541 259.539682 
L 177.870856 259.316009 
L 178.162584 259.316009 
L 178.247452 258.9805 
L 178.331904 258.9805 
L 178.331904 258.868664 
L 178.748046 258.868664 
L 178.748046 258.756827 
L 180.363608 258.756827 
L 180.363608 258.644991 
L 180.630986 258.644991 
L 180.630986 258.533154 
L 181.660753 258.533154 
L 181.660753 258.421318 
L 181.867737 258.421318 
L 181.867737 258.309481 
L 182.72389 258.309481 
L 182.72389 258.197645 
L 182.931427 258.197645 
L 182.931427 258.085809 
L 183.339132 258.085809 
L 183.339132 257.973972 
L 184.856584 257.973972 
L 184.90263 257.638463 
L 185.005785 257.638463 
L 185.005785 257.526626 
L 186.250871 257.526626 
L 186.250871 257.41479 
L 186.856548 257.41479 
L 186.866805 257.191117 
L 187.090942 257.191117 
L 187.171726 256.855608 
L 187.211977 256.855608 
L 187.211977 256.743771 
L 189.981568 256.743771 
L 189.981568 256.631935 
L 190.219457 256.631935 
L 190.236323 256.408262 
L 190.35393 256.408262 
L 190.35393 256.296425 
L 190.68558 256.296425 
L 190.792003 255.737243 
L 190.873421 255.737243 
L 190.970616 255.289897 
L 191.002893 255.289897 
L 191.035109 255.066224 
L 191.409193 255.066224 
L 191.409193 254.954388 
L 191.821491 254.954388 
L 191.859881 254.618879 
L 192.698091 254.618879 
L 192.698091 254.507042 
L 193.336197 254.507042 
L 193.336197 254.395206 
L 194.486314 254.395206 
L 194.492895 254.171533 
L 194.998639 254.171533 
L 195.062414 253.94786 
L 195.252334 253.94786 
L 195.315177 253.500514 
L 196.792914 253.500514 
L 196.792914 253.388678 
L 196.970433 253.388678 
L 196.981823 253.165005 
L 197.453518 253.165005 
L 197.558439 252.829495 
L 198.185483 252.829495 
L 198.185483 252.717659 
L 198.317676 252.717659 
L 198.333471 252.493986 
L 198.58424 252.493986 
L 198.594609 252.158477 
L 198.759679 252.158477 
L 198.759679 252.04664 
L 198.968884 252.04664 
L 198.968884 251.934804 
L 199.105276 251.934804 
L 199.120364 251.711131 
L 199.66951 251.711131 
L 199.66951 251.599295 
L 199.920855 251.599295 
L 199.925653 251.375622 
L 201.053511 251.375622 
L 201.053511 251.263785 
L 201.303261 251.263785 
L 201.303261 251.151949 
L 202.454831 251.151949 
L 202.454831 251.040112 
L 203.279429 251.040112 
L 203.303093 250.704603 
L 203.444397 250.704603 
L 203.444397 250.592767 
L 203.788826 250.592767 
L 203.788826 250.369094 
L 203.95659 250.369094 
L 203.95659 250.257257 
L 204.789774 250.257257 
L 204.789774 250.145421 
L 204.948091 250.145421 
L 204.948091 250.033584 
L 206.084447 250.033584 
L 206.084447 249.921748 
L 206.324145 249.921748 
L 206.324145 249.809911 
L 207.188083 249.809911 
L 207.188083 249.698075 
L 208.390072 249.698075 
L 208.390072 249.586238 
L 208.718195 249.586238 
L 208.718195 249.474402 
L 209.079644 249.474402 
L 209.079644 249.362566 
L 209.231058 249.362566 
L 209.242221 249.027056 
L 209.584725 249.027056 
L 209.584725 248.91522 
L 210.160228 248.91522 
L 210.160228 248.803383 
L 210.466911 248.803383 
L 210.466911 248.691547 
L 210.604055 248.691547 
L 210.604055 248.57971 
L 210.727324 248.57971 
L 210.727324 248.467874 
L 211.021624 248.467874 
L 211.021624 248.356038 
L 212.219056 248.356038 
L 212.219056 248.244201 
L 212.897612 248.244201 
L 212.897612 248.132365 
L 213.29225 248.132365 
L 213.29225 248.020528 
L 213.919865 248.020528 
L 213.930488 247.796855 
L 214.040575 247.796855 
L 214.040575 247.685019 
L 214.38736 247.685019 
L 214.490457 247.461346 
L 214.846504 247.461346 
L 214.846504 247.34951 
L 214.98888 247.34951 
L 214.98888 247.237673 
L 215.102334 247.237673 
L 215.102334 247.125837 
L 215.315268 247.125837 
L 215.336809 246.902164 
L 216.089199 246.902164 
L 216.089199 246.790327 
L 216.556698 246.790327 
L 216.556698 246.678491 
L 216.870996 246.678491 
L 216.870996 246.566654 
L 217.344115 246.566654 
L 217.344115 246.454818 
L 218.41082 246.454818 
L 218.41082 246.342981 
L 219.398189 246.342981 
L 219.398189 246.231145 
L 219.548951 246.231145 
L 219.548951 246.119309 
L 219.759032 246.119309 
L 219.759032 246.007472 
L 220.039671 246.007472 
L 220.039671 245.895636 
L 220.23799 245.895636 
L 220.23799 245.783799 
L 220.425315 245.783799 
L 220.425315 245.671963 
L 220.91745 245.671963 
L 220.91745 245.560126 
L 221.260543 245.560126 
L 221.260543 245.44829 
L 222.098046 245.44829 
L 222.098046 245.336453 
L 222.27671 245.336453 
L 222.27671 245.224617 
L 224.230205 245.224617 
L 224.230205 245.112781 
L 224.795881 245.112781 
L 224.795881 245.000944 
L 225.217335 245.000944 
L 225.217335 244.889108 
L 225.67488 244.889108 
L 225.67488 244.777271 
L 225.827563 244.777271 
L 225.827563 244.665435 
L 226.216435 244.665435 
L 226.26728 244.441762 
L 227.272411 244.441762 
L 227.272411 244.329925 
L 227.566967 244.329925 
L 227.566967 244.218089 
L 227.70761 244.218089 
L 227.720944 243.994416 
L 229.246028 243.994416 
L 229.246028 243.88258 
L 229.627732 243.88258 
L 229.688128 243.658907 
L 230.073534 243.658907 
L 230.073534 243.54707 
L 231.897886 243.54707 
L 231.96719 243.323397 
L 232.107179 243.323397 
L 232.152118 243.099724 
L 232.238718 243.099724 
L 232.313225 242.876052 
L 232.57364 242.876052 
L 232.57364 242.764215 
L 233.106605 242.764215 
L 233.106605 242.652379 
L 233.337513 242.652379 
L 233.337513 242.540542 
L 233.466133 242.540542 
L 233.466133 242.428706 
L 233.684218 242.428706 
L 233.684218 242.316869 
L 234.378671 242.316869 
L 234.378671 242.205033 
L 234.53182 242.205033 
L 234.565739 241.98136 
L 234.660105 241.98136 
L 234.660105 241.869524 
L 235.493527 241.869524 
L 235.493527 241.757687 
L 235.741904 241.757687 
L 235.741904 241.645851 
L 236.11225 241.645851 
L 236.11225 241.534014 
L 237.557375 241.534014 
L 237.667155 241.310341 
L 238.604132 241.310341 
L 238.604132 241.198505 
L 240.457283 241.198505 
L 240.457283 241.086668 
L 240.687636 241.086668 
L 240.687636 240.974832 
L 240.825891 240.974832 
L 240.825891 240.862996 
L 240.965246 240.862996 
L 240.965246 240.751159 
L 242.771262 240.751159 
L 242.771262 240.639323 
L 242.958651 240.639323 
L 242.958651 240.527486 
L 243.221089 240.527486 
L 243.221089 240.41565 
L 243.73049 240.41565 
L 243.73049 240.303813 
L 245.176001 240.303813 
L 245.176001 240.191977 
L 245.491409 240.191977 
L 245.491409 240.08014 
L 245.870829 240.08014 
L 245.976492 239.744631 
L 246.662461 239.744631 
L 246.662461 239.632795 
L 247.638184 239.632795 
L 247.739493 239.409122 
L 248.243621 239.409122 
L 248.243621 239.297285 
L 248.758321 239.297285 
L 248.758321 239.185449 
L 248.902749 239.185449 
L 248.902749 239.073612 
L 249.466477 239.073612 
L 249.538336 238.849939 
L 249.760848 238.849939 
L 249.760848 238.738103 
L 250.507975 238.738103 
L 250.507975 238.626267 
L 251.032489 238.626267 
L 251.133011 238.402594 
L 251.875877 238.402594 
L 251.875877 238.290757 
L 252.723439 238.290757 
L 252.723439 238.178921 
L 252.97174 238.178921 
L 252.991669 237.955248 
L 253.275163 237.955248 
L 253.275163 237.843411 
L 254.114833 237.843411 
L 254.114833 237.731575 
L 255.417384 237.731575 
L 255.417384 237.619739 
L 256.551626 237.619739 
L 256.551626 237.507902 
L 257.035301 237.507902 
L 257.072626 237.284229 
L 257.56287 237.284229 
L 257.56287 237.172393 
L 257.712364 237.172393 
L 257.760526 236.94872 
L 258.895394 236.94872 
L 258.895394 236.836883 
L 259.335427 236.836883 
L 259.335427 236.725047 
L 259.828999 236.725047 
L 259.828999 236.613211 
L 260.588485 236.613211 
L 260.588485 236.501374 
L 262.794826 236.501374 
L 262.794826 236.389538 
L 263.147543 236.389538 
L 263.147543 236.277701 
L 263.613103 236.277701 
L 263.646931 235.942192 
L 264.943179 235.942192 
L 264.943179 235.830355 
L 266.403741 235.830355 
L 266.403741 235.718519 
L 284.47883 235.718519 
L 284.47883 235.606682 
L 333.168 235.606682 
L 333.168 235.606682 
" style="fill:none;stroke:#000080;stroke-linecap:square;stroke-width:1.5;"/>
   </g>
   <g id="line2d_44">
    <defs>
     <path d="M 0 6 
C 1.591219 6 3.117479 5.367802 4.242641 4.242641 
C 5.367802 3.117479 6 1.591219 6 0 
C 6 -1.591219 5.367802 -3.117479 4.242641 -4.242641 
C 3.117479 -5.367802 1.591219 -6 0 -6 
C -1.591219 -6 -3.117479 -5.367802 -4.242641 -4.242641 
C -5.367802 -3.117479 -6 -1.591219 -6 0 
C -6 1.591219 -5.367802 3.117479 -4.242641 4.242641 
C -3.117479 5.367802 -1.591219 6 0 6 
z
" id="m2097b55b71" style="stroke:#000080;stroke-width:1.5;"/>
    </defs>
    <g>
     <use style="fill:none;stroke:#000080;stroke-width:1.5;" x="61.903497" xlink:href="#m2097b55b71" y="286.827776"/>
     <use style="fill:none;stroke:#000080;stroke-width:1.5;" x="132.563791" xlink:href="#m2097b55b71" y="275.084949"/>
     <use style="fill:none;stroke:#000080;stroke-width:1.5;" x="215.336809" xlink:href="#m2097b55b71" y="246.902164"/>
     <use style="fill:none;stroke:#000080;stroke-width:1.5;" x="266.403741" xlink:href="#m2097b55b71" y="235.718519"/>
     <use style="fill:none;stroke:#000080;stroke-width:1.5;" x="284.47883" xlink:href="#m2097b55b71" y="235.606682"/>
     <use style="fill:none;stroke:#000080;stroke-width:1.5;" x="333.168" xlink:href="#m2097b55b71" y="235.606682"/>
    </g>
   </g>
   <g id="line2d_45">
    <path style="fill:none;stroke:#000080;stroke-linecap:square;stroke-width:1.5;"/>
    <g/>
   </g>
   <g id="line2d_46">
    <path clip-path="url(#p4e84524b08)" d="M 199.344283 251.711131 
" style="fill:none;stroke:#000080;stroke-linecap:square;stroke-width:1.5;"/>
    <defs>
     <path d="M -12 12 
L 12 -12 
M -12 -12 
L 12 12 
" id="m2f6bb4477a" style="stroke:#000080;"/>
    </defs>
    <g clip-path="url(#p4e84524b08)">
     <use style="fill:#000080;stroke:#000080;" x="199.344283" xlink:href="#m2f6bb4477a" y="251.711131"/>
    </g>
   </g>
   <g id="line2d_47">
    <defs>
     <path d="M 0 1.5 
C 0.397805 1.5 0.77937 1.341951 1.06066 1.06066 
C 1.341951 0.77937 1.5 0.397805 1.5 0 
C 1.5 -0.397805 1.341951 -0.77937 1.06066 -1.06066 
C 0.77937 -1.341951 0.397805 -1.5 0 -1.5 
C -0.397805 -1.5 -0.77937 -1.341951 -1.06066 -1.06066 
C -1.341951 -0.77937 -1.5 -0.397805 -1.5 0 
C -1.5 0.397805 -1.341951 0.77937 -1.06066 1.06066 
C -0.77937 1.341951 -0.397805 1.5 0 1.5 
z
" id="m6f28aca43d" style="stroke:#ff00ff;"/>
    </defs>
    <g>
     <use style="fill:#ff00ff;stroke:#ff00ff;" x="192.997388" xlink:href="#m6f28aca43d" y="251.263785"/>
     <use style="fill:#ff00ff;stroke:#ff00ff;" x="192.997388" xlink:href="#m6f28aca43d" y="251.263785"/>
    </g>
   </g>
   <g id="line2d_48">
    <path d="M 28.455965 294.88 
L 28.455965 272.177201 
L 40.370217 272.177201 
L 40.370217 272.065365 
L 61.903497 272.065365 
L 61.903497 271.953528 
L 64.198719 271.953528 
L 64.198719 271.841692 
L 79.948502 271.841692 
L 79.948502 271.729855 
L 82.350819 271.729855 
L 82.350819 271.618019 
L 83.08236 271.618019 
L 83.08236 271.506182 
L 83.784035 271.506182 
L 83.784035 271.394346 
L 84.458185 271.394346 
L 84.458185 271.282509 
L 85.106889 271.282509 
L 85.106889 271.170673 
L 87.481505 271.170673 
L 87.481505 271.058837 
L 88.027221 271.058837 
L 88.027221 270.947 
L 89.069276 270.947 
L 89.069276 270.835164 
L 90.05175 270.835164 
L 90.05175 270.723327 
L 90.522701 270.723327 
L 90.522701 270.611491 
L 90.981092 270.611491 
L 90.981092 270.387818 
L 91.427575 270.387818 
L 91.427575 269.940472 
L 92.70139 269.940472 
L 92.70139 269.828636 
L 93.105847 269.828636 
L 93.105847 269.38129 
L 93.501005 269.38129 
L 93.501005 269.269453 
L 93.887283 269.269453 
L 93.887283 269.157617 
L 94.26507 269.157617 
L 94.26507 268.822108 
L 94.634732 268.822108 
L 94.634732 268.486598 
L 94.996612 268.486598 
L 94.996612 268.262925 
L 95.351029 268.262925 
L 95.351029 267.927416 
L 95.698286 267.927416 
L 95.698286 267.48007 
L 96.372436 267.48007 
L 96.372436 267.032724 
L 97.021141 267.032724 
L 97.021141 266.697215 
L 97.646251 266.697215 
L 97.646251 266.585379 
L 97.950482 266.585379 
L 97.950482 266.361706 
L 98.249422 266.361706 
L 98.249422 266.138033 
L 98.543252 266.138033 
L 98.543252 266.026196 
L 99.11626 266.026196 
L 99.11626 265.802523 
L 99.395756 265.802523 
L 99.395756 265.690687 
L 99.941473 265.690687 
L 99.941473 265.243341 
L 100.207968 265.243341 
L 100.207968 265.131505 
L 100.470395 265.131505 
L 100.470395 264.795995 
L 101.966002 264.795995 
L 101.966002 264.684159 
L 102.436953 264.684159 
L 102.436953 264.572323 
L 103.120034 264.572323 
L 103.120034 264.460486 
L 103.990531 264.460486 
L 103.990531 264.236813 
L 104.615641 264.236813 
L 104.615641 264.124977 
L 105.020098 264.124977 
L 105.020098 264.01314 
L 106.179321 264.01314 
L 106.179321 263.901304 
L 106.365146 263.901304 
L 106.365146 263.789467 
L 107.088985 263.789467 
L 107.088985 263.677631 
L 107.783569 263.677631 
L 107.783569 263.565795 
L 108.286687 263.565795 
L 108.286687 263.453958 
L 108.775496 263.453958 
L 108.775496 263.230285 
L 108.935392 263.230285 
L 108.935392 263.118449 
L 109.250788 263.118449 
L 109.250788 263.006612 
L 109.406343 263.006612 
L 109.406343 262.894776 
L 109.713291 262.894776 
L 109.713291 262.782939 
L 110.602556 262.782939 
L 110.602556 262.559266 
L 112.122219 262.559266 
L 112.122219 262.44743 
L 112.253934 262.44743 
L 112.253934 262.223757 
L 115.475044 262.223757 
L 115.475044 262.111921 
L 115.691256 262.111921 
L 115.691256 262.000084 
L 116.427273 262.000084 
L 116.427273 261.888248 
L 116.73331 261.888248 
L 116.73331 261.664575 
L 118.371562 261.664575 
L 118.371562 261.552738 
L 121.086731 261.552738 
L 121.086731 261.440902 
L 121.242993 261.440902 
L 121.242993 261.329066 
L 121.551317 261.329066 
L 121.551317 261.217229 
L 122.874172 261.217229 
L 122.874172 261.105393 
L 124.298898 261.105393 
L 124.298898 260.993556 
L 124.685175 260.993556 
L 124.748719 260.769883 
L 125.310285 260.769883 
L 125.310285 260.658047 
L 127.334814 260.658047 
L 127.334814 260.54621 
L 127.92481 260.54621 
L 127.92481 260.434374 
L 128.798561 260.434374 
L 128.798561 260.322538 
L 130.193648 260.322538 
L 130.193648 260.210701 
L 130.828657 260.210701 
L 130.828657 260.098865 
L 131.949115 260.098865 
L 131.949115 259.987028 
L 132.279675 259.987028 
L 132.279675 259.875192 
L 132.52349 259.875192 
L 132.52349 259.763355 
L 134.066106 259.763355 
L 134.066106 259.651519 
L 136.535647 259.651519 
L 136.535647 259.539682 
L 137.039379 259.539682 
L 137.039379 259.427846 
L 138.09238 259.427846 
L 138.179706 259.204173 
L 139.600142 259.204173 
L 139.600142 259.092337 
L 140.178407 259.092337 
L 140.178407 258.9805 
L 141.424506 258.9805 
L 141.472518 258.756827 
L 141.851869 258.756827 
L 141.851869 258.644991 
L 142.586342 258.644991 
L 142.675983 258.421318 
L 143.117307 258.421318 
L 143.117307 258.309481 
L 143.758748 258.309481 
L 143.758748 258.197645 
L 143.884213 258.197645 
L 143.884213 258.085809 
L 144.029441 258.085809 
L 144.029441 257.973972 
L 144.377111 257.973972 
L 144.377111 257.862136 
L 147.156411 257.862136 
L 147.156411 257.750299 
L 148.208593 257.750299 
L 148.208593 257.638463 
L 148.38588 257.638463 
L 148.38588 257.526626 
L 149.66771 257.526626 
L 149.66771 257.41479 
L 150.367599 257.41479 
L 150.367599 257.302953 
L 151.366735 257.302953 
L 151.366735 257.191117 
L 151.541104 257.191117 
L 151.541104 257.079281 
L 152.040885 257.079281 
L 152.040885 256.967444 
L 152.323726 256.967444 
L 152.400064 256.743771 
L 152.438106 256.743771 
L 152.438106 256.631935 
L 152.652101 256.631935 
L 152.652101 256.520098 
L 153.121023 256.520098 
L 153.121023 256.408262 
L 153.494311 256.408262 
L 153.494311 256.296425 
L 154.114315 256.296425 
L 154.183116 255.960916 
L 154.977008 255.960916 
L 154.977008 255.84908 
L 157.179096 255.84908 
L 157.179096 255.737243 
L 157.64381 255.737243 
L 157.709184 255.51357 
L 157.92225 255.51357 
L 157.92225 255.401734 
L 158.757817 255.401734 
L 158.757817 255.289897 
L 159.147992 255.289897 
L 159.147992 255.178061 
L 159.836973 255.178061 
L 159.836973 255.066224 
L 161.129603 255.066224 
L 161.129603 254.954388 
L 161.759623 254.954388 
L 161.759623 254.842552 
L 162.705236 254.842552 
L 162.774798 254.618879 
L 163.581669 254.618879 
L 163.581669 254.507042 
L 163.922699 254.507042 
L 163.922699 254.395206 
L 164.269826 254.395206 
L 164.269826 254.283369 
L 164.955965 254.283369 
L 164.955965 254.171533 
L 165.855351 254.171533 
L 165.890134 253.94786 
L 166.880329 253.94786 
L 166.902183 253.724187 
L 168.605832 253.724187 
L 168.605832 253.612351 
L 170.495773 253.612351 
L 170.495773 253.500514 
L 170.733347 253.500514 
L 170.733347 253.388678 
L 172.716074 253.388678 
L 172.716074 253.276841 
L 172.909642 253.276841 
L 172.909642 253.165005 
L 174.030997 253.165005 
L 174.030997 253.053168 
L 174.224653 253.053168 
L 174.231784 252.829495 
L 174.716795 252.829495 
L 174.716795 252.717659 
L 175.296051 252.717659 
L 175.296051 252.605823 
L 176.909917 252.605823 
L 176.909917 252.493986 
L 177.88239 252.493986 
L 177.88239 252.38215 
L 178.510692 252.38215 
L 178.510692 252.270313 
L 178.976759 252.270313 
L 178.976759 252.158477 
L 179.130242 252.158477 
L 179.130242 252.04664 
L 179.298302 252.04664 
L 179.298302 251.934804 
L 179.759277 251.934804 
L 179.759277 251.822967 
L 182.396729 251.822967 
L 182.396729 251.711131 
L 182.535819 251.711131 
L 182.535819 251.599295 
L 188.815014 251.599295 
L 188.84246 251.375622 
L 192.997388 251.375622 
L 192.997388 251.263785 
L 333.168 251.263785 
L 333.168 251.263785 
" style="fill:none;stroke:#ff00ff;stroke-linecap:square;stroke-width:1.5;"/>
   </g>
   <g id="line2d_49">
    <defs>
     <path d="M -0 8.485281 
L 5.091169 0 
L 0 -8.485281 
L -5.091169 -0 
z
" id="ma4a80e2a60" style="stroke:#ff00ff;stroke-linejoin:miter;stroke-width:1.5;"/>
    </defs>
    <g>
     <use style="fill:none;stroke:#ff00ff;stroke-linejoin:miter;stroke-width:1.5;" x="112.253934" xlink:href="#ma4a80e2a60" y="262.44743"/>
     <use style="fill:none;stroke:#ff00ff;stroke-linejoin:miter;stroke-width:1.5;" x="179.759277" xlink:href="#ma4a80e2a60" y="251.822967"/>
     <use style="fill:none;stroke:#ff00ff;stroke-linejoin:miter;stroke-width:1.5;" x="192.997388" xlink:href="#ma4a80e2a60" y="251.263785"/>
     <use style="fill:none;stroke:#ff00ff;stroke-linejoin:miter;stroke-width:1.5;" x="192.997388" xlink:href="#ma4a80e2a60" y="251.263785"/>
     <use style="fill:none;stroke:#ff00ff;stroke-linejoin:miter;stroke-width:1.5;" x="192.997388" xlink:href="#ma4a80e2a60" y="251.263785"/>
     <use style="fill:none;stroke:#ff00ff;stroke-linejoin:miter;stroke-width:1.5;" x="333.168" xlink:href="#ma4a80e2a60" y="251.263785"/>
    </g>
   </g>
   <g id="line2d_50">
    <path style="fill:none;stroke:#ff00ff;stroke-linecap:square;stroke-width:1.5;"/>
    <g/>
   </g>
   <g id="line2d_51">
    <path clip-path="url(#p4e84524b08)" d="M 134.8942 259.651519 
" style="fill:none;stroke:#ff00ff;stroke-linecap:square;stroke-width:1.5;"/>
    <defs>
     <path d="M -12 12 
L 12 -12 
M -12 -12 
L 12 12 
" id="ma3b316e929" style="stroke:#ff00ff;"/>
    </defs>
    <g clip-path="url(#p4e84524b08)">
     <use style="fill:#ff00ff;stroke:#ff00ff;" x="134.8942" xlink:href="#ma3b316e929" y="259.651519"/>
    </g>
   </g>
   <g id="line2d_52">
    <path d="M 333.168 251.263785 
L 363.64328 289.176341 
" style="fill:none;stroke:#ff00ff;stroke-linecap:square;stroke-width:1.5;"/>
    <g>
     <use style="fill:none;stroke:#ff00ff;stroke-linejoin:miter;stroke-width:1.5;" x="333.168" xlink:href="#ma4a80e2a60" y="251.263785"/>
     <use style="fill:none;stroke:#ff00ff;stroke-linejoin:miter;stroke-width:1.5;" x="363.64328" xlink:href="#ma4a80e2a60" y="289.176341"/>
    </g>
   </g>
   <g id="line2d_53">
    <path d="M 333.168 235.606682 
L 363.64328 152.288529 
" style="fill:none;stroke:#000080;stroke-linecap:square;stroke-width:1.5;"/>
    <g>
     <use style="fill:none;stroke:#000080;stroke-width:1.5;" x="333.168" xlink:href="#m2097b55b71" y="235.606682"/>
     <use style="fill:none;stroke:#000080;stroke-width:1.5;" x="363.64328" xlink:href="#m2097b55b71" y="152.288529"/>
    </g>
   </g>
   <g id="line2d_54">
    <path d="M 333.168 294.88 
L 333.168 9.697057 
" style="fill:none;stroke:#000000;stroke-linecap:square;stroke-width:1.5;"/>
   </g>
   <g id="patch_3">
    <path d="M 56.12 294.88 
L 56.12 6.845228 
" style="fill:none;stroke:#000000;stroke-linecap:square;stroke-linejoin:miter;stroke-width:0.8;"/>
   </g>
   <g id="patch_4">
    <path d="M 333.168 294.88 
L 333.168 6.845228 
" style="fill:none;stroke:#000000;stroke-linecap:square;stroke-linejoin:miter;stroke-width:0.8;"/>
   </g>
   <g id="patch_5">
    <path d="M 56.12 294.88 
L 333.168 294.88 
" style="fill:none;stroke:#000000;stroke-linecap:square;stroke-linejoin:miter;stroke-width:0.8;"/>
   </g>
   <g id="patch_6">
    <path d="M 56.12 6.845228 
L 333.168 6.845228 
" style="fill:none;stroke:#000000;stroke-linecap:square;stroke-linejoin:miter;stroke-width:0.8;"/>
   </g>
   <g id="text_13">
    <!-- scipy-opt -->
    <defs>
     <path d="M 32.171875 -5.078125 
Q 28.375 -14.84375 24.75 -17.8125 
Q 21.140625 -20.796875 15.09375 -20.796875 
L 7.90625 -20.796875 
L 7.90625 -13.28125 
L 13.1875 -13.28125 
Q 16.890625 -13.28125 18.9375 -11.515625 
Q 21 -9.765625 23.484375 -3.21875 
L 25.09375 0.875 
L 2.984375 54.6875 
L 12.5 54.6875 
L 29.59375 11.921875 
L 46.6875 54.6875 
L 56.203125 54.6875 
z
" id="DejaVuSans-79"/>
    </defs>
    <g transform="translate(369.18424 293.867279)scale(0.17 -0.17)">
     <use xlink:href="#DejaVuSans-73"/>
     <use x="52.099609" xlink:href="#DejaVuSans-63"/>
     <use x="107.080078" xlink:href="#DejaVuSans-69"/>
     <use x="134.863281" xlink:href="#DejaVuSans-70"/>
     <use x="198.339844" xlink:href="#DejaVuSans-79"/>
     <use x="257.503906" xlink:href="#DejaVuSans-2d"/>
     <use x="293.603516" xlink:href="#DejaVuSans-6f"/>
     <use x="354.785156" xlink:href="#DejaVuSans-70"/>
     <use x="418.261719" xlink:href="#DejaVuSans-74"/>
    </g>
   </g>
   <g id="text_14">
    <!-- BFGS ros  -->
    <defs>
     <path d="M 19.671875 34.8125 
L 19.671875 8.109375 
L 35.5 8.109375 
Q 43.453125 8.109375 47.28125 11.40625 
Q 51.125 14.703125 51.125 21.484375 
Q 51.125 28.328125 47.28125 31.5625 
Q 43.453125 34.8125 35.5 34.8125 
z
M 19.671875 64.796875 
L 19.671875 42.828125 
L 34.28125 42.828125 
Q 41.5 42.828125 45.03125 45.53125 
Q 48.578125 48.25 48.578125 53.8125 
Q 48.578125 59.328125 45.03125 62.0625 
Q 41.5 64.796875 34.28125 64.796875 
z
M 9.8125 72.90625 
L 35.015625 72.90625 
Q 46.296875 72.90625 52.390625 68.21875 
Q 58.5 63.53125 58.5 54.890625 
Q 58.5 48.1875 55.375 44.234375 
Q 52.25 40.28125 46.1875 39.3125 
Q 53.46875 37.75 57.5 32.78125 
Q 61.53125 27.828125 61.53125 20.40625 
Q 61.53125 10.640625 54.890625 5.3125 
Q 48.25 0 35.984375 0 
L 9.8125 0 
z
" id="DejaVuSans-42"/>
     <path d="M 59.515625 10.40625 
L 59.515625 29.984375 
L 43.40625 29.984375 
L 43.40625 38.09375 
L 69.28125 38.09375 
L 69.28125 6.78125 
Q 63.578125 2.734375 56.6875 0.65625 
Q 49.8125 -1.421875 42 -1.421875 
Q 24.90625 -1.421875 15.25 8.5625 
Q 5.609375 18.5625 5.609375 36.375 
Q 5.609375 54.25 15.25 64.234375 
Q 24.90625 74.21875 42 74.21875 
Q 49.125 74.21875 55.546875 72.453125 
Q 61.96875 70.703125 67.390625 67.28125 
L 67.390625 56.78125 
Q 61.921875 61.421875 55.765625 63.765625 
Q 49.609375 66.109375 42.828125 66.109375 
Q 29.4375 66.109375 22.71875 58.640625 
Q 16.015625 51.171875 16.015625 36.375 
Q 16.015625 21.625 22.71875 14.15625 
Q 29.4375 6.6875 42.828125 6.6875 
Q 48.046875 6.6875 52.140625 7.59375 
Q 56.25 8.5 59.515625 10.40625 
z
" id="DejaVuSans-47"/>
     <path d="M 53.515625 70.515625 
L 53.515625 60.890625 
Q 47.90625 63.578125 42.921875 64.890625 
Q 37.9375 66.21875 33.296875 66.21875 
Q 25.25 66.21875 20.875 63.09375 
Q 16.5 59.96875 16.5 54.203125 
Q 16.5 49.359375 19.40625 46.890625 
Q 22.3125 44.4375 30.421875 42.921875 
L 36.375 41.703125 
Q 47.40625 39.59375 52.65625 34.296875 
Q 57.90625 29 57.90625 20.125 
Q 57.90625 9.515625 50.796875 4.046875 
Q 43.703125 -1.421875 29.984375 -1.421875 
Q 24.8125 -1.421875 18.96875 -0.25 
Q 13.140625 0.921875 6.890625 3.21875 
L 6.890625 13.375 
Q 12.890625 10.015625 18.65625 8.296875 
Q 24.421875 6.59375 29.984375 6.59375 
Q 38.421875 6.59375 43.015625 9.90625 
Q 47.609375 13.234375 47.609375 19.390625 
Q 47.609375 24.75 44.3125 27.78125 
Q 41.015625 30.8125 33.5 32.328125 
L 27.484375 33.5 
Q 16.453125 35.6875 11.515625 40.375 
Q 6.59375 45.0625 6.59375 53.421875 
Q 6.59375 63.09375 13.40625 68.65625 
Q 20.21875 74.21875 32.171875 74.21875 
Q 37.3125 74.21875 42.625 73.28125 
Q 47.953125 72.359375 53.515625 70.515625 
z
" id="DejaVuSans-53"/>
    </defs>
    <g transform="translate(369.18424 156.979466)scale(0.17 -0.17)">
     <use xlink:href="#DejaVuSans-42"/>
     <use x="68.603516" xlink:href="#DejaVuSans-46"/>
     <use x="126.123047" xlink:href="#DejaVuSans-47"/>
     <use x="203.613281" xlink:href="#DejaVuSans-53"/>
     <use x="267.089844" xlink:href="#DejaVuSans-20"/>
     <use x="298.876953" xlink:href="#DejaVuSans-72"/>
     <use x="339.958984" xlink:href="#DejaVuSans-6f"/>
     <use x="401.140625" xlink:href="#DejaVuSans-73"/>
     <use x="453.240234" xlink:href="#DejaVuSans-20"/>
    </g>
   </g>
   <g id="text_15">
    <!-- best 2009 -->
    <defs>
     <path d="M 48.6875 27.296875 
Q 48.6875 37.203125 44.609375 42.84375 
Q 40.53125 48.484375 33.40625 48.484375 
Q 26.265625 48.484375 22.1875 42.84375 
Q 18.109375 37.203125 18.109375 27.296875 
Q 18.109375 17.390625 22.1875 11.75 
Q 26.265625 6.109375 33.40625 6.109375 
Q 40.53125 6.109375 44.609375 11.75 
Q 48.6875 17.390625 48.6875 27.296875 
z
M 18.109375 46.390625 
Q 20.953125 51.265625 25.265625 53.625 
Q 29.59375 56 35.59375 56 
Q 45.5625 56 51.78125 48.09375 
Q 58.015625 40.1875 58.015625 27.296875 
Q 58.015625 14.40625 51.78125 6.484375 
Q 45.5625 -1.421875 35.59375 -1.421875 
Q 29.59375 -1.421875 25.265625 0.953125 
Q 20.953125 3.328125 18.109375 8.203125 
L 18.109375 0 
L 9.078125 0 
L 9.078125 75.984375 
L 18.109375 75.984375 
z
" id="DejaVuSans-62"/>
     <path d="M 10.984375 1.515625 
L 10.984375 10.5 
Q 14.703125 8.734375 18.5 7.8125 
Q 22.3125 6.890625 25.984375 6.890625 
Q 35.75 6.890625 40.890625 13.453125 
Q 46.046875 20.015625 46.78125 33.40625 
Q 43.953125 29.203125 39.59375 26.953125 
Q 35.25 24.703125 29.984375 24.703125 
Q 19.046875 24.703125 12.671875 31.3125 
Q 6.296875 37.9375 6.296875 49.421875 
Q 6.296875 60.640625 12.9375 67.421875 
Q 19.578125 74.21875 30.609375 74.21875 
Q 43.265625 74.21875 49.921875 64.515625 
Q 56.59375 54.828125 56.59375 36.375 
Q 56.59375 19.140625 48.40625 8.859375 
Q 40.234375 -1.421875 26.421875 -1.421875 
Q 22.703125 -1.421875 18.890625 -0.6875 
Q 15.09375 0.046875 10.984375 1.515625 
z
M 30.609375 32.421875 
Q 37.25 32.421875 41.125 36.953125 
Q 45.015625 41.5 45.015625 49.421875 
Q 45.015625 57.28125 41.125 61.84375 
Q 37.25 66.40625 30.609375 66.40625 
Q 23.96875 66.40625 20.09375 61.84375 
Q 16.21875 57.28125 16.21875 49.421875 
Q 16.21875 41.5 20.09375 36.953125 
Q 23.96875 32.421875 30.609375 32.421875 
z
" id="DejaVuSans-39"/>
    </defs>
    <g transform="translate(369.18424 20.091654)scale(0.17 -0.17)">
     <use xlink:href="#DejaVuSans-62"/>
     <use x="63.476562" xlink:href="#DejaVuSans-65"/>
     <use x="125" xlink:href="#DejaVuSans-73"/>
     <use x="177.099609" xlink:href="#DejaVuSans-74"/>
     <use x="216.308594" xlink:href="#DejaVuSans-20"/>
     <use x="248.095703" xlink:href="#DejaVuSans-32"/>
     <use x="311.71875" xlink:href="#DejaVuSans-30"/>
     <use x="375.341797" xlink:href="#DejaVuSans-30"/>
     <use x="438.964844" xlink:href="#DejaVuSans-39"/>
    </g>
   </g>
   <g id="text_16">
    <!-- bbob f15-f19, 5-D -->
    <defs>
     <path d="M 10.796875 72.90625 
L 49.515625 72.90625 
L 49.515625 64.59375 
L 19.828125 64.59375 
L 19.828125 46.734375 
Q 21.96875 47.46875 24.109375 47.828125 
Q 26.265625 48.1875 28.421875 48.1875 
Q 40.625 48.1875 47.75 41.5 
Q 54.890625 34.8125 54.890625 23.390625 
Q 54.890625 11.625 47.5625 5.09375 
Q 40.234375 -1.421875 26.90625 -1.421875 
Q 22.3125 -1.421875 17.546875 -0.640625 
Q 12.796875 0.140625 7.71875 1.703125 
L 7.71875 11.625 
Q 12.109375 9.234375 16.796875 8.0625 
Q 21.484375 6.890625 26.703125 6.890625 
Q 35.15625 6.890625 40.078125 11.328125 
Q 45.015625 15.765625 45.015625 23.390625 
Q 45.015625 31 40.078125 35.4375 
Q 35.15625 39.890625 26.703125 39.890625 
Q 22.75 39.890625 18.8125 39.015625 
Q 14.890625 38.140625 10.796875 36.28125 
z
" id="DejaVuSans-35"/>
     <path d="M 19.671875 64.796875 
L 19.671875 8.109375 
L 31.59375 8.109375 
Q 46.6875 8.109375 53.6875 14.9375 
Q 60.6875 21.78125 60.6875 36.53125 
Q 60.6875 51.171875 53.6875 57.984375 
Q 46.6875 64.796875 31.59375 64.796875 
z
M 9.8125 72.90625 
L 30.078125 72.90625 
Q 51.265625 72.90625 61.171875 64.09375 
Q 71.09375 55.28125 71.09375 36.53125 
Q 71.09375 17.671875 61.125 8.828125 
Q 51.171875 0 30.078125 0 
L 9.8125 0 
z
" id="DejaVuSans-44"/>
    </defs>
    <g transform="translate(58.89048 17.475982)scale(0.102 -0.102)">
     <use xlink:href="#DejaVuSans-62"/>
     <use x="63.476562" xlink:href="#DejaVuSans-62"/>
     <use x="126.953125" xlink:href="#DejaVuSans-6f"/>
     <use x="188.134766" xlink:href="#DejaVuSans-62"/>
     <use x="251.611328" xlink:href="#DejaVuSans-20"/>
     <use x="283.398438" xlink:href="#DejaVuSans-66"/>
     <use x="318.603516" xlink:href="#DejaVuSans-31"/>
     <use x="382.226562" xlink:href="#DejaVuSans-35"/>
     <use x="445.849609" xlink:href="#DejaVuSans-2d"/>
     <use x="481.933594" xlink:href="#DejaVuSans-66"/>
     <use x="517.138672" xlink:href="#DejaVuSans-31"/>
     <use x="580.761719" xlink:href="#DejaVuSans-39"/>
     <use x="644.384766" xlink:href="#DejaVuSans-2c"/>
     <use x="676.171875" xlink:href="#DejaVuSans-20"/>
     <use x="707.958984" xlink:href="#DejaVuSans-35"/>
     <use x="771.582031" xlink:href="#DejaVuSans-2d"/>
     <use x="807.666016" xlink:href="#DejaVuSans-44"/>
    </g>
    <!-- 51 targets: 100..1e-08 -->
    <defs>
     <path d="M 11.71875 12.40625 
L 22.015625 12.40625 
L 22.015625 0 
L 11.71875 0 
z
M 11.71875 51.703125 
L 22.015625 51.703125 
L 22.015625 39.3125 
L 11.71875 39.3125 
z
" id="DejaVuSans-3a"/>
    </defs>
    <g transform="translate(58.89048 28.89775)scale(0.102 -0.102)">
     <use xlink:href="#DejaVuSans-35"/>
     <use x="63.623047" xlink:href="#DejaVuSans-31"/>
     <use x="127.246094" xlink:href="#DejaVuSans-20"/>
     <use x="159.033203" xlink:href="#DejaVuSans-74"/>
     <use x="198.242188" xlink:href="#DejaVuSans-61"/>
     <use x="259.521484" xlink:href="#DejaVuSans-72"/>
     <use x="300.619141" xlink:href="#DejaVuSans-67"/>
     <use x="364.095703" xlink:href="#DejaVuSans-65"/>
     <use x="425.619141" xlink:href="#DejaVuSans-74"/>
     <use x="464.828125" xlink:href="#DejaVuSans-73"/>
     <use x="516.927734" xlink:href="#DejaVuSans-3a"/>
     <use x="550.619141" xlink:href="#DejaVuSans-20"/>
     <use x="582.40625" xlink:href="#DejaVuSans-31"/>
     <use x="646.029297" xlink:href="#DejaVuSans-30"/>
     <use x="709.652344" xlink:href="#DejaVuSans-30"/>
     <use x="773.275391" xlink:href="#DejaVuSans-2e"/>
     <use x="805.0625" xlink:href="#DejaVuSans-2e"/>
     <use x="836.849609" xlink:href="#DejaVuSans-31"/>
     <use x="900.472656" xlink:href="#DejaVuSans-65"/>
     <use x="961.996094" xlink:href="#DejaVuSans-2d"/>
     <use x="998.080078" xlink:href="#DejaVuSans-30"/>
     <use x="1061.703125" xlink:href="#DejaVuSans-38"/>
    </g>
    <!-- 15 instances -->
    <g transform="translate(58.89048 40.319519)scale(0.102 -0.102)">
     <use xlink:href="#DejaVuSans-31"/>
     <use x="63.623047" xlink:href="#DejaVuSans-35"/>
     <use x="127.246094" xlink:href="#DejaVuSans-20"/>
     <use x="159.033203" xlink:href="#DejaVuSans-69"/>
     <use x="186.816406" xlink:href="#DejaVuSans-6e"/>
     <use x="250.195312" xlink:href="#DejaVuSans-73"/>
     <use x="302.294922" xlink:href="#DejaVuSans-74"/>
     <use x="341.503906" xlink:href="#DejaVuSans-61"/>
     <use x="402.783203" xlink:href="#DejaVuSans-6e"/>
     <use x="466.162109" xlink:href="#DejaVuSans-63"/>
     <use x="521.142578" xlink:href="#DejaVuSans-65"/>
     <use x="582.666016" xlink:href="#DejaVuSans-73"/>
    </g>
   </g>
   <g id="text_17">
    <!-- v0.0.0 -->
    <g style="fill:#808080;" transform="translate(178.96275 289.919965)scale(0.1 -0.1)">
     <use xlink:href="#DejaVuSans-76"/>
     <use x="59.179688" xlink:href="#DejaVuSans-30"/>
     <use x="122.802734" xlink:href="#DejaVuSans-2e"/>
     <use x="154.589844" xlink:href="#DejaVuSans-30"/>
     <use x="218.212891" xlink:href="#DejaVuSans-2e"/>
     <use x="250" xlink:href="#DejaVuSans-30"/>
    </g>
   </g>
  </g>
 </g>
 <defs>
  <clipPath id="p4e84524b08">
   <rect height="288.034772" width="277.048" x="56.12" y="6.845228"/>
  </clipPath>
 </defs>
</svg>
