<?xml version="1.0" encoding="utf-8" standalone="no"?>
<!DOCTYPE svg PUBLIC "-//W3C//DTD SVG 1.1//EN"
  "http://www.w3.org/Graphics/SVG/1.1/DTD/svg11.dtd">
<!-- Created with matplotlib (http://matplotlib.org/) -->
<svg height="345pt" version="1.1" viewBox="0 0 460 345" width="460pt" xmlns="http://www.w3.org/2000/svg" xmlns:xlink="http://www.w3.org/1999/xlink">
 <defs>
  <style type="text/css">
*{stroke-linecap:butt;stroke-linejoin:round;}
  </style>
 </defs>
 <g id="figure_1">
  <g id="patch_1">
   <path d="M 0 345.6 
L 460.8 345.6 
L 460.8 0 
L 0 0 
z
" style="fill:#ffffff;"/>
  </g>
  <g id="axes_1">
   <g id="patch_2">
    <path d="M 56.12 294.88 
L 333.168 294.88 
L 333.168 6.845228 
L 56.12 6.845228 
z
" style="fill:#ffffff;"/>
   </g>
   <g id="line2d_1">
    <path d="M 44.205749 294.88 
L 44.205749 283.696355 
L 56.12 283.696355 
L 56.12 278.104533 
L 63.08939 278.104533 
L 63.08939 274.749439 
L 68.034251 274.749439 
L 68.034251 222.186309 
L 71.869783 222.186309 
L 71.869783 219.94958 
L 75.003641 219.94958 
L 75.003641 174.096636 
L 77.653281 174.096636 
L 77.653281 172.978271 
L 79.948502 172.978271 
L 79.948502 171.859907 
L 83.784035 171.859907 
L 83.784035 170.741543 
L 86.917893 170.741543 
L 86.917893 169.623178 
L 88.293717 169.623178 
L 88.293717 168.504814 
L 89.567532 168.504814 
L 89.567532 167.386449 
L 90.753425 167.386449 
L 90.753425 164.031356 
L 91.862754 164.031356 
L 91.862754 162.912991 
L 93.887283 162.912991 
L 93.887283 161.794627 
L 94.816624 161.794627 
L 94.816624 157.321169 
L 95.698286 157.321169 
L 95.698286 155.08444 
L 97.336537 155.08444 
L 97.336537 152.847711 
L 98.832144 152.847711 
L 98.832144 149.492617 
L 99.533818 149.492617 
L 99.533818 141.664066 
L 100.207968 141.664066 
L 100.207968 132.71715 
L 100.856673 132.71715 
L 100.856673 127.125328 
L 101.481783 127.125328 
L 101.481783 117.060047 
L 102.084955 117.060047 
L 102.084955 111.468225 
L 102.667676 111.468225 
L 102.667676 106.994767 
L 108.85563 106.994767 
L 108.85563 105.876403 
L 125.310285 105.876403 
L 125.310285 104.758038 
L 126.496178 104.758038 
L 126.496178 103.639674 
L 138.553074 103.639674 
L 138.553074 102.521309 
L 140.498503 102.521309 
L 140.498503 101.402945 
L 142.809574 101.402945 
L 142.809574 100.28458 
L 144.598384 100.28458 
L 144.598384 99.166216 
L 147.531203 99.166216 
L 147.531203 98.047851 
L 147.782136 98.047851 
L 147.782136 96.929487 
L 148.984628 96.929487 
L 149.061881 86.864206 
L 149.100377 86.864206 
L 149.138788 82.390748 
L 149.215352 82.390748 
L 149.291576 73.443833 
L 149.329562 73.443833 
L 149.405283 61.141823 
L 149.555732 61.141823 
L 149.630465 58.905094 
L 149.66771 58.905094 
L 149.741959 52.194907 
L 149.778964 52.194907 
L 149.778964 47.72145 
L 150.324681 47.72145 
L 150.360453 44.366356 
L 150.888293 44.366356 
L 150.922912 41.011263 
L 151.060698 41.011263 
L 151.060698 39.892898 
L 151.299196 39.892898 
L 151.299196 38.774534 
L 151.799385 38.774534 
L 151.799385 37.656169 
L 152.253451 37.656169 
L 152.34921 30.945982 
L 152.444438 30.945982 
L 152.476064 25.35416 
L 152.726997 25.35416 
L 152.726997 21.999066 
L 152.943598 21.999066 
L 152.943598 20.880702 
L 153.066156 20.880702 
L 153.157504 15.28888 
L 153.187846 15.28888 
L 153.248369 9.697057 
L 333.168 9.697057 
L 333.168 9.697057 
" style="fill:none;stroke:#f5deb3;stroke-linecap:square;stroke-width:4;"/>
   </g>
   <g id="line2d_2">
    <defs>
     <path d="M -0 7.778175 
L 7.778175 0 
L 0 -7.778175 
L -7.778175 -0 
z
" id="m514f39fc06" style="stroke:#f5deb3;stroke-linejoin:miter;stroke-width:1.5;"/>
    </defs>
    <g>
     <use style="fill:#f5deb3;stroke:#f5deb3;stroke-linejoin:miter;stroke-width:1.5;" x="83.784035" xlink:href="#m514f39fc06" y="170.741543"/>
     <use style="fill:#f5deb3;stroke:#f5deb3;stroke-linejoin:miter;stroke-width:1.5;" x="149.061881" xlink:href="#m514f39fc06" y="86.864206"/>
     <use style="fill:#f5deb3;stroke:#f5deb3;stroke-linejoin:miter;stroke-width:1.5;" x="153.248369" xlink:href="#m514f39fc06" y="10.815422"/>
     <use style="fill:#f5deb3;stroke:#f5deb3;stroke-linejoin:miter;stroke-width:1.5;" x="153.248369" xlink:href="#m514f39fc06" y="9.697057"/>
     <use style="fill:#f5deb3;stroke:#f5deb3;stroke-linejoin:miter;stroke-width:1.5;" x="153.248369" xlink:href="#m514f39fc06" y="9.697057"/>
     <use style="fill:#f5deb3;stroke:#f5deb3;stroke-linejoin:miter;stroke-width:1.5;" x="333.168" xlink:href="#m514f39fc06" y="9.697057"/>
    </g>
   </g>
   <g id="line2d_3">
    <path style="fill:none;stroke:#f5deb3;stroke-linecap:square;stroke-width:4;"/>
    <g/>
   </g>
   <g id="line2d_4">
    <path d="M 333.168 9.697057 
L 363.64328 15.400716 
" style="fill:none;stroke:#f5deb3;stroke-linecap:square;stroke-width:4;"/>
    <g>
     <use style="fill:#f5deb3;stroke:#f5deb3;stroke-linejoin:miter;stroke-width:1.5;" x="333.168" xlink:href="#m514f39fc06" y="9.697057"/>
     <use style="fill:#f5deb3;stroke:#f5deb3;stroke-linejoin:miter;stroke-width:1.5;" x="363.64328" xlink:href="#m514f39fc06" y="15.400716"/>
    </g>
   </g>
   <g id="matplotlib.axis_1">
    <g id="xtick_1">
     <g id="line2d_5">
      <path clip-path="url(#p21b861700e)" d="M 56.12 294.88 
L 56.12 6.845228 
" style="fill:none;stroke:#b0b0b0;stroke-linecap:square;stroke-width:0.8;"/>
     </g>
     <g id="line2d_6">
      <defs>
       <path d="M 0 0 
L 0 3.5 
" id="mf9bc7f5a88" style="stroke:#000000;stroke-width:0.8;"/>
      </defs>
      <g>
       <use style="stroke:#000000;stroke-width:0.8;" x="56.12" xlink:href="#mf9bc7f5a88" y="294.88"/>
      </g>
     </g>
     <g id="text_1">
      <!-- 0 -->
      <defs>
       <path d="M 31.78125 66.40625 
Q 24.171875 66.40625 20.328125 58.90625 
Q 16.5 51.421875 16.5 36.375 
Q 16.5 21.390625 20.328125 13.890625 
Q 24.171875 6.390625 31.78125 6.390625 
Q 39.453125 6.390625 43.28125 13.890625 
Q 47.125 21.390625 47.125 36.375 
Q 47.125 51.421875 43.28125 58.90625 
Q 39.453125 66.40625 31.78125 66.40625 
z
M 31.78125 74.21875 
Q 44.046875 74.21875 50.515625 64.515625 
Q 56.984375 54.828125 56.984375 36.375 
Q 56.984375 17.96875 50.515625 8.265625 
Q 44.046875 -1.421875 31.78125 -1.421875 
Q 19.53125 -1.421875 13.0625 8.265625 
Q 6.59375 17.96875 6.59375 36.375 
Q 6.59375 54.828125 13.0625 64.515625 
Q 19.53125 74.21875 31.78125 74.21875 
z
" id="DejaVuSans-30"/>
      </defs>
      <g transform="translate(49.7575 317.076875)scale(0.2 -0.2)">
       <use xlink:href="#DejaVuSans-30"/>
      </g>
     </g>
    </g>
    <g id="xtick_2">
     <g id="line2d_7">
      <path clip-path="url(#p21b861700e)" d="M 135.276571 294.88 
L 135.276571 6.845228 
" style="fill:none;stroke:#b0b0b0;stroke-linecap:square;stroke-width:0.8;"/>
     </g>
     <g id="line2d_8">
      <g>
       <use style="stroke:#000000;stroke-width:0.8;" x="135.276571" xlink:href="#mf9bc7f5a88" y="294.88"/>
      </g>
     </g>
     <g id="text_2">
      <!-- 2 -->
      <defs>
       <path d="M 19.1875 8.296875 
L 53.609375 8.296875 
L 53.609375 0 
L 7.328125 0 
L 7.328125 8.296875 
Q 12.9375 14.109375 22.625 23.890625 
Q 32.328125 33.6875 34.8125 36.53125 
Q 39.546875 41.84375 41.421875 45.53125 
Q 43.3125 49.21875 43.3125 52.78125 
Q 43.3125 58.59375 39.234375 62.25 
Q 35.15625 65.921875 28.609375 65.921875 
Q 23.96875 65.921875 18.8125 64.3125 
Q 13.671875 62.703125 7.8125 59.421875 
L 7.8125 69.390625 
Q 13.765625 71.78125 18.9375 73 
Q 24.125 74.21875 28.421875 74.21875 
Q 39.75 74.21875 46.484375 68.546875 
Q 53.21875 62.890625 53.21875 53.421875 
Q 53.21875 48.921875 51.53125 44.890625 
Q 49.859375 40.875 45.40625 35.40625 
Q 44.1875 33.984375 37.640625 27.21875 
Q 31.109375 20.453125 19.1875 8.296875 
z
" id="DejaVuSans-32"/>
      </defs>
      <g transform="translate(128.914071 317.076875)scale(0.2 -0.2)">
       <use xlink:href="#DejaVuSans-32"/>
      </g>
     </g>
    </g>
    <g id="xtick_3">
     <g id="line2d_9">
      <path clip-path="url(#p21b861700e)" d="M 214.433143 294.88 
L 214.433143 6.845228 
" style="fill:none;stroke:#b0b0b0;stroke-linecap:square;stroke-width:0.8;"/>
     </g>
     <g id="line2d_10">
      <g>
       <use style="stroke:#000000;stroke-width:0.8;" x="214.433143" xlink:href="#mf9bc7f5a88" y="294.88"/>
      </g>
     </g>
     <g id="text_3">
      <!-- 4 -->
      <defs>
       <path d="M 37.796875 64.3125 
L 12.890625 25.390625 
L 37.796875 25.390625 
z
M 35.203125 72.90625 
L 47.609375 72.90625 
L 47.609375 25.390625 
L 58.015625 25.390625 
L 58.015625 17.1875 
L 47.609375 17.1875 
L 47.609375 0 
L 37.796875 0 
L 37.796875 17.1875 
L 4.890625 17.1875 
L 4.890625 26.703125 
z
" id="DejaVuSans-34"/>
      </defs>
      <g transform="translate(208.070643 317.076875)scale(0.2 -0.2)">
       <use xlink:href="#DejaVuSans-34"/>
      </g>
     </g>
    </g>
    <g id="xtick_4">
     <g id="line2d_11">
      <path clip-path="url(#p21b861700e)" d="M 293.589714 294.88 
L 293.589714 6.845228 
" style="fill:none;stroke:#b0b0b0;stroke-linecap:square;stroke-width:0.8;"/>
     </g>
     <g id="line2d_12">
      <g>
       <use style="stroke:#000000;stroke-width:0.8;" x="293.589714" xlink:href="#mf9bc7f5a88" y="294.88"/>
      </g>
     </g>
     <g id="text_4">
      <!-- 6 -->
      <defs>
       <path d="M 33.015625 40.375 
Q 26.375 40.375 22.484375 35.828125 
Q 18.609375 31.296875 18.609375 23.390625 
Q 18.609375 15.53125 22.484375 10.953125 
Q 26.375 6.390625 33.015625 6.390625 
Q 39.65625 6.390625 43.53125 10.953125 
Q 47.40625 15.53125 47.40625 23.390625 
Q 47.40625 31.296875 43.53125 35.828125 
Q 39.65625 40.375 33.015625 40.375 
z
M 52.59375 71.296875 
L 52.59375 62.3125 
Q 48.875 64.0625 45.09375 64.984375 
Q 41.3125 65.921875 37.59375 65.921875 
Q 27.828125 65.921875 22.671875 59.328125 
Q 17.53125 52.734375 16.796875 39.40625 
Q 19.671875 43.65625 24.015625 45.921875 
Q 28.375 48.1875 33.59375 48.1875 
Q 44.578125 48.1875 50.953125 41.515625 
Q 57.328125 34.859375 57.328125 23.390625 
Q 57.328125 12.15625 50.6875 5.359375 
Q 44.046875 -1.421875 33.015625 -1.421875 
Q 20.359375 -1.421875 13.671875 8.265625 
Q 6.984375 17.96875 6.984375 36.375 
Q 6.984375 53.65625 15.1875 63.9375 
Q 23.390625 74.21875 37.203125 74.21875 
Q 40.921875 74.21875 44.703125 73.484375 
Q 48.484375 72.75 52.59375 71.296875 
z
" id="DejaVuSans-36"/>
      </defs>
      <g transform="translate(287.227214 317.076875)scale(0.2 -0.2)">
       <use xlink:href="#DejaVuSans-36"/>
      </g>
     </g>
    </g>
    <g id="xtick_5">
     <g id="line2d_13">
      <path clip-path="url(#p21b861700e)" d="M 56.12 294.88 
L 56.12 6.845228 
" style="fill:none;stroke:#b0b0b0;stroke-linecap:square;stroke-width:0.8;"/>
     </g>
     <g id="line2d_14">
      <defs>
       <path d="M 0 0 
L 0 2 
" id="mcb51810a68" style="stroke:#000000;stroke-width:0.6;"/>
      </defs>
      <g>
       <use style="stroke:#000000;stroke-width:0.6;" x="56.12" xlink:href="#mcb51810a68" y="294.88"/>
      </g>
     </g>
    </g>
    <g id="xtick_6">
     <g id="line2d_15">
      <path clip-path="url(#p21b861700e)" d="M 95.698286 294.88 
L 95.698286 6.845228 
" style="fill:none;stroke:#b0b0b0;stroke-linecap:square;stroke-width:0.8;"/>
     </g>
     <g id="line2d_16">
      <g>
       <use style="stroke:#000000;stroke-width:0.6;" x="95.698286" xlink:href="#mcb51810a68" y="294.88"/>
      </g>
     </g>
    </g>
    <g id="xtick_7">
     <g id="line2d_17">
      <path clip-path="url(#p21b861700e)" d="M 135.276571 294.88 
L 135.276571 6.845228 
" style="fill:none;stroke:#b0b0b0;stroke-linecap:square;stroke-width:0.8;"/>
     </g>
     <g id="line2d_18">
      <g>
       <use style="stroke:#000000;stroke-width:0.6;" x="135.276571" xlink:href="#mcb51810a68" y="294.88"/>
      </g>
     </g>
    </g>
    <g id="xtick_8">
     <g id="line2d_19">
      <path clip-path="url(#p21b861700e)" d="M 174.854857 294.88 
L 174.854857 6.845228 
" style="fill:none;stroke:#b0b0b0;stroke-linecap:square;stroke-width:0.8;"/>
     </g>
     <g id="line2d_20">
      <g>
       <use style="stroke:#000000;stroke-width:0.6;" x="174.854857" xlink:href="#mcb51810a68" y="294.88"/>
      </g>
     </g>
    </g>
    <g id="xtick_9">
     <g id="line2d_21">
      <path clip-path="url(#p21b861700e)" d="M 214.433143 294.88 
L 214.433143 6.845228 
" style="fill:none;stroke:#b0b0b0;stroke-linecap:square;stroke-width:0.8;"/>
     </g>
     <g id="line2d_22">
      <g>
       <use style="stroke:#000000;stroke-width:0.6;" x="214.433143" xlink:href="#mcb51810a68" y="294.88"/>
      </g>
     </g>
    </g>
    <g id="xtick_10">
     <g id="line2d_23">
      <path clip-path="url(#p21b861700e)" d="M 254.011429 294.88 
L 254.011429 6.845228 
" style="fill:none;stroke:#b0b0b0;stroke-linecap:square;stroke-width:0.8;"/>
     </g>
     <g id="line2d_24">
      <g>
       <use style="stroke:#000000;stroke-width:0.6;" x="254.011429" xlink:href="#mcb51810a68" y="294.88"/>
      </g>
     </g>
    </g>
    <g id="xtick_11">
     <g id="line2d_25">
      <path clip-path="url(#p21b861700e)" d="M 293.589714 294.88 
L 293.589714 6.845228 
" style="fill:none;stroke:#b0b0b0;stroke-linecap:square;stroke-width:0.8;"/>
     </g>
     <g id="line2d_26">
      <g>
       <use style="stroke:#000000;stroke-width:0.6;" x="293.589714" xlink:href="#mcb51810a68" y="294.88"/>
      </g>
     </g>
    </g>
    <g id="xtick_12">
     <g id="line2d_27">
      <path clip-path="url(#p21b861700e)" d="M 333.168 294.88 
L 333.168 6.845228 
" style="fill:none;stroke:#b0b0b0;stroke-linecap:square;stroke-width:0.8;"/>
     </g>
     <g id="line2d_28">
      <g>
       <use style="stroke:#000000;stroke-width:0.6;" x="333.168" xlink:href="#mcb51810a68" y="294.88"/>
      </g>
     </g>
    </g>
    <g id="text_5">
     <!-- log10(# f-evals / dimension) -->
     <defs>
      <path d="M 9.421875 75.984375 
L 18.40625 75.984375 
L 18.40625 0 
L 9.421875 0 
z
" id="DejaVuSans-6c"/>
      <path d="M 30.609375 48.390625 
Q 23.390625 48.390625 19.1875 42.75 
Q 14.984375 37.109375 14.984375 27.296875 
Q 14.984375 17.484375 19.15625 11.84375 
Q 23.34375 6.203125 30.609375 6.203125 
Q 37.796875 6.203125 41.984375 11.859375 
Q 46.1875 17.53125 46.1875 27.296875 
Q 46.1875 37.015625 41.984375 42.703125 
Q 37.796875 48.390625 30.609375 48.390625 
z
M 30.609375 56 
Q 42.328125 56 49.015625 48.375 
Q 55.71875 40.765625 55.71875 27.296875 
Q 55.71875 13.875 49.015625 6.21875 
Q 42.328125 -1.421875 30.609375 -1.421875 
Q 18.84375 -1.421875 12.171875 6.21875 
Q 5.515625 13.875 5.515625 27.296875 
Q 5.515625 40.765625 12.171875 48.375 
Q 18.84375 56 30.609375 56 
z
" id="DejaVuSans-6f"/>
      <path d="M 45.40625 27.984375 
Q 45.40625 37.75 41.375 43.109375 
Q 37.359375 48.484375 30.078125 48.484375 
Q 22.859375 48.484375 18.828125 43.109375 
Q 14.796875 37.75 14.796875 27.984375 
Q 14.796875 18.265625 18.828125 12.890625 
Q 22.859375 7.515625 30.078125 7.515625 
Q 37.359375 7.515625 41.375 12.890625 
Q 45.40625 18.265625 45.40625 27.984375 
z
M 54.390625 6.78125 
Q 54.390625 -7.171875 48.1875 -13.984375 
Q 42 -20.796875 29.203125 -20.796875 
Q 24.46875 -20.796875 20.265625 -20.09375 
Q 16.0625 -19.390625 12.109375 -17.921875 
L 12.109375 -9.1875 
Q 16.0625 -11.328125 19.921875 -12.34375 
Q 23.78125 -13.375 27.78125 -13.375 
Q 36.625 -13.375 41.015625 -8.765625 
Q 45.40625 -4.15625 45.40625 5.171875 
L 45.40625 9.625 
Q 42.625 4.78125 38.28125 2.390625 
Q 33.9375 0 27.875 0 
Q 17.828125 0 11.671875 7.65625 
Q 5.515625 15.328125 5.515625 27.984375 
Q 5.515625 40.671875 11.671875 48.328125 
Q 17.828125 56 27.875 56 
Q 33.9375 56 38.28125 53.609375 
Q 42.625 51.21875 45.40625 46.390625 
L 45.40625 54.6875 
L 54.390625 54.6875 
z
" id="DejaVuSans-67"/>
      <path d="M 12.40625 8.296875 
L 28.515625 8.296875 
L 28.515625 63.921875 
L 10.984375 60.40625 
L 10.984375 69.390625 
L 28.421875 72.90625 
L 38.28125 72.90625 
L 38.28125 8.296875 
L 54.390625 8.296875 
L 54.390625 0 
L 12.40625 0 
z
" id="DejaVuSans-31"/>
      <path d="M 31 75.875 
Q 24.46875 64.65625 21.28125 53.65625 
Q 18.109375 42.671875 18.109375 31.390625 
Q 18.109375 20.125 21.3125 9.0625 
Q 24.515625 -2 31 -13.1875 
L 23.1875 -13.1875 
Q 15.875 -1.703125 12.234375 9.375 
Q 8.59375 20.453125 8.59375 31.390625 
Q 8.59375 42.28125 12.203125 53.3125 
Q 15.828125 64.359375 23.1875 75.875 
z
" id="DejaVuSans-28"/>
      <path d="M 51.125 44 
L 36.921875 44 
L 32.8125 27.6875 
L 47.125 27.6875 
z
M 43.796875 71.78125 
L 38.71875 51.515625 
L 52.984375 51.515625 
L 58.109375 71.78125 
L 65.921875 71.78125 
L 60.890625 51.515625 
L 76.125 51.515625 
L 76.125 44 
L 58.984375 44 
L 54.984375 27.6875 
L 70.515625 27.6875 
L 70.515625 20.21875 
L 53.078125 20.21875 
L 48 0 
L 40.1875 0 
L 45.21875 20.21875 
L 30.90625 20.21875 
L 25.875 0 
L 18.015625 0 
L 23.09375 20.21875 
L 7.71875 20.21875 
L 7.71875 27.6875 
L 24.90625 27.6875 
L 29 44 
L 13.28125 44 
L 13.28125 51.515625 
L 30.90625 51.515625 
L 35.890625 71.78125 
z
" id="DejaVuSans-23"/>
      <path id="DejaVuSans-20"/>
      <path d="M 37.109375 75.984375 
L 37.109375 68.5 
L 28.515625 68.5 
Q 23.6875 68.5 21.796875 66.546875 
Q 19.921875 64.59375 19.921875 59.515625 
L 19.921875 54.6875 
L 34.71875 54.6875 
L 34.71875 47.703125 
L 19.921875 47.703125 
L 19.921875 0 
L 10.890625 0 
L 10.890625 47.703125 
L 2.296875 47.703125 
L 2.296875 54.6875 
L 10.890625 54.6875 
L 10.890625 58.5 
Q 10.890625 67.625 15.140625 71.796875 
Q 19.390625 75.984375 28.609375 75.984375 
z
" id="DejaVuSans-66"/>
      <path d="M 4.890625 31.390625 
L 31.203125 31.390625 
L 31.203125 23.390625 
L 4.890625 23.390625 
z
" id="DejaVuSans-2d"/>
      <path d="M 56.203125 29.59375 
L 56.203125 25.203125 
L 14.890625 25.203125 
Q 15.484375 15.921875 20.484375 11.0625 
Q 25.484375 6.203125 34.421875 6.203125 
Q 39.59375 6.203125 44.453125 7.46875 
Q 49.3125 8.734375 54.109375 11.28125 
L 54.109375 2.78125 
Q 49.265625 0.734375 44.1875 -0.34375 
Q 39.109375 -1.421875 33.890625 -1.421875 
Q 20.796875 -1.421875 13.15625 6.1875 
Q 5.515625 13.8125 5.515625 26.8125 
Q 5.515625 40.234375 12.765625 48.109375 
Q 20.015625 56 32.328125 56 
Q 43.359375 56 49.78125 48.890625 
Q 56.203125 41.796875 56.203125 29.59375 
z
M 47.21875 32.234375 
Q 47.125 39.59375 43.09375 43.984375 
Q 39.0625 48.390625 32.421875 48.390625 
Q 24.90625 48.390625 20.390625 44.140625 
Q 15.875 39.890625 15.1875 32.171875 
z
" id="DejaVuSans-65"/>
      <path d="M 2.984375 54.6875 
L 12.5 54.6875 
L 29.59375 8.796875 
L 46.6875 54.6875 
L 56.203125 54.6875 
L 35.6875 0 
L 23.484375 0 
z
" id="DejaVuSans-76"/>
      <path d="M 34.28125 27.484375 
Q 23.390625 27.484375 19.1875 25 
Q 14.984375 22.515625 14.984375 16.5 
Q 14.984375 11.71875 18.140625 8.90625 
Q 21.296875 6.109375 26.703125 6.109375 
Q 34.1875 6.109375 38.703125 11.40625 
Q 43.21875 16.703125 43.21875 25.484375 
L 43.21875 27.484375 
z
M 52.203125 31.203125 
L 52.203125 0 
L 43.21875 0 
L 43.21875 8.296875 
Q 40.140625 3.328125 35.546875 0.953125 
Q 30.953125 -1.421875 24.3125 -1.421875 
Q 15.921875 -1.421875 10.953125 3.296875 
Q 6 8.015625 6 15.921875 
Q 6 25.140625 12.171875 29.828125 
Q 18.359375 34.515625 30.609375 34.515625 
L 43.21875 34.515625 
L 43.21875 35.40625 
Q 43.21875 41.609375 39.140625 45 
Q 35.0625 48.390625 27.6875 48.390625 
Q 23 48.390625 18.546875 47.265625 
Q 14.109375 46.140625 10.015625 43.890625 
L 10.015625 52.203125 
Q 14.9375 54.109375 19.578125 55.046875 
Q 24.21875 56 28.609375 56 
Q 40.484375 56 46.34375 49.84375 
Q 52.203125 43.703125 52.203125 31.203125 
z
" id="DejaVuSans-61"/>
      <path d="M 44.28125 53.078125 
L 44.28125 44.578125 
Q 40.484375 46.53125 36.375 47.5 
Q 32.28125 48.484375 27.875 48.484375 
Q 21.1875 48.484375 17.84375 46.4375 
Q 14.5 44.390625 14.5 40.28125 
Q 14.5 37.15625 16.890625 35.375 
Q 19.28125 33.59375 26.515625 31.984375 
L 29.59375 31.296875 
Q 39.15625 29.25 43.1875 25.515625 
Q 47.21875 21.78125 47.21875 15.09375 
Q 47.21875 7.46875 41.1875 3.015625 
Q 35.15625 -1.421875 24.609375 -1.421875 
Q 20.21875 -1.421875 15.453125 -0.5625 
Q 10.6875 0.296875 5.421875 2 
L 5.421875 11.28125 
Q 10.40625 8.6875 15.234375 7.390625 
Q 20.0625 6.109375 24.8125 6.109375 
Q 31.15625 6.109375 34.5625 8.28125 
Q 37.984375 10.453125 37.984375 14.40625 
Q 37.984375 18.0625 35.515625 20.015625 
Q 33.0625 21.96875 24.703125 23.78125 
L 21.578125 24.515625 
Q 13.234375 26.265625 9.515625 29.90625 
Q 5.8125 33.546875 5.8125 39.890625 
Q 5.8125 47.609375 11.28125 51.796875 
Q 16.75 56 26.8125 56 
Q 31.78125 56 36.171875 55.265625 
Q 40.578125 54.546875 44.28125 53.078125 
z
" id="DejaVuSans-73"/>
      <path d="M 25.390625 72.90625 
L 33.6875 72.90625 
L 8.296875 -9.28125 
L 0 -9.28125 
z
" id="DejaVuSans-2f"/>
      <path d="M 45.40625 46.390625 
L 45.40625 75.984375 
L 54.390625 75.984375 
L 54.390625 0 
L 45.40625 0 
L 45.40625 8.203125 
Q 42.578125 3.328125 38.25 0.953125 
Q 33.9375 -1.421875 27.875 -1.421875 
Q 17.96875 -1.421875 11.734375 6.484375 
Q 5.515625 14.40625 5.515625 27.296875 
Q 5.515625 40.1875 11.734375 48.09375 
Q 17.96875 56 27.875 56 
Q 33.9375 56 38.25 53.625 
Q 42.578125 51.265625 45.40625 46.390625 
z
M 14.796875 27.296875 
Q 14.796875 17.390625 18.875 11.75 
Q 22.953125 6.109375 30.078125 6.109375 
Q 37.203125 6.109375 41.296875 11.75 
Q 45.40625 17.390625 45.40625 27.296875 
Q 45.40625 37.203125 41.296875 42.84375 
Q 37.203125 48.484375 30.078125 48.484375 
Q 22.953125 48.484375 18.875 42.84375 
Q 14.796875 37.203125 14.796875 27.296875 
z
" id="DejaVuSans-64"/>
      <path d="M 9.421875 54.6875 
L 18.40625 54.6875 
L 18.40625 0 
L 9.421875 0 
z
M 9.421875 75.984375 
L 18.40625 75.984375 
L 18.40625 64.59375 
L 9.421875 64.59375 
z
" id="DejaVuSans-69"/>
      <path d="M 52 44.1875 
Q 55.375 50.25 60.0625 53.125 
Q 64.75 56 71.09375 56 
Q 79.640625 56 84.28125 50.015625 
Q 88.921875 44.046875 88.921875 33.015625 
L 88.921875 0 
L 79.890625 0 
L 79.890625 32.71875 
Q 79.890625 40.578125 77.09375 44.375 
Q 74.3125 48.1875 68.609375 48.1875 
Q 61.625 48.1875 57.5625 43.546875 
Q 53.515625 38.921875 53.515625 30.90625 
L 53.515625 0 
L 44.484375 0 
L 44.484375 32.71875 
Q 44.484375 40.625 41.703125 44.40625 
Q 38.921875 48.1875 33.109375 48.1875 
Q 26.21875 48.1875 22.15625 43.53125 
Q 18.109375 38.875 18.109375 30.90625 
L 18.109375 0 
L 9.078125 0 
L 9.078125 54.6875 
L 18.109375 54.6875 
L 18.109375 46.1875 
Q 21.1875 51.21875 25.484375 53.609375 
Q 29.78125 56 35.6875 56 
Q 41.65625 56 45.828125 52.96875 
Q 50 49.953125 52 44.1875 
z
" id="DejaVuSans-6d"/>
      <path d="M 54.890625 33.015625 
L 54.890625 0 
L 45.90625 0 
L 45.90625 32.71875 
Q 45.90625 40.484375 42.875 44.328125 
Q 39.84375 48.1875 33.796875 48.1875 
Q 26.515625 48.1875 22.3125 43.546875 
Q 18.109375 38.921875 18.109375 30.90625 
L 18.109375 0 
L 9.078125 0 
L 9.078125 54.6875 
L 18.109375 54.6875 
L 18.109375 46.1875 
Q 21.34375 51.125 25.703125 53.5625 
Q 30.078125 56 35.796875 56 
Q 45.21875 56 50.046875 50.171875 
Q 54.890625 44.34375 54.890625 33.015625 
z
" id="DejaVuSans-6e"/>
      <path d="M 8.015625 75.875 
L 15.828125 75.875 
Q 23.140625 64.359375 26.78125 53.3125 
Q 30.421875 42.28125 30.421875 31.390625 
Q 30.421875 20.453125 26.78125 9.375 
Q 23.140625 -1.703125 15.828125 -13.1875 
L 8.015625 -13.1875 
Q 14.5 -2 17.703125 9.0625 
Q 20.90625 20.125 20.90625 31.390625 
Q 20.90625 42.671875 17.703125 53.65625 
Q 14.5 64.65625 8.015625 75.875 
z
" id="DejaVuSans-29"/>
     </defs>
     <g transform="translate(73.803219 338.153594)scale(0.17 -0.17)">
      <use xlink:href="#DejaVuSans-6c"/>
      <use x="27.783203" xlink:href="#DejaVuSans-6f"/>
      <use x="88.964844" xlink:href="#DejaVuSans-67"/>
      <use x="152.441406" xlink:href="#DejaVuSans-31"/>
      <use x="216.064453" xlink:href="#DejaVuSans-30"/>
      <use x="279.6875" xlink:href="#DejaVuSans-28"/>
      <use x="318.701172" xlink:href="#DejaVuSans-23"/>
      <use x="402.490234" xlink:href="#DejaVuSans-20"/>
      <use x="434.277344" xlink:href="#DejaVuSans-66"/>
      <use x="469.404297" xlink:href="#DejaVuSans-2d"/>
      <use x="505.488281" xlink:href="#DejaVuSans-65"/>
      <use x="567.011719" xlink:href="#DejaVuSans-76"/>
      <use x="626.191406" xlink:href="#DejaVuSans-61"/>
      <use x="687.470703" xlink:href="#DejaVuSans-6c"/>
      <use x="715.253906" xlink:href="#DejaVuSans-73"/>
      <use x="767.353516" xlink:href="#DejaVuSans-20"/>
      <use x="799.140625" xlink:href="#DejaVuSans-2f"/>
      <use x="832.832031" xlink:href="#DejaVuSans-20"/>
      <use x="864.619141" xlink:href="#DejaVuSans-64"/>
      <use x="928.095703" xlink:href="#DejaVuSans-69"/>
      <use x="955.878906" xlink:href="#DejaVuSans-6d"/>
      <use x="1053.291016" xlink:href="#DejaVuSans-65"/>
      <use x="1114.814453" xlink:href="#DejaVuSans-6e"/>
      <use x="1178.193359" xlink:href="#DejaVuSans-73"/>
      <use x="1230.292969" xlink:href="#DejaVuSans-69"/>
      <use x="1258.076172" xlink:href="#DejaVuSans-6f"/>
      <use x="1319.257812" xlink:href="#DejaVuSans-6e"/>
      <use x="1382.636719" xlink:href="#DejaVuSans-29"/>
     </g>
    </g>
   </g>
   <g id="matplotlib.axis_2">
    <g id="ytick_1">
     <g id="line2d_29">
      <path clip-path="url(#p21b861700e)" d="M 56.12 294.88 
L 333.168 294.88 
" style="fill:none;stroke:#b0b0b0;stroke-linecap:square;stroke-width:0.8;"/>
     </g>
     <g id="line2d_30">
      <defs>
       <path d="M 0 0 
L -3.5 0 
" id="m989c887bf5" style="stroke:#000000;stroke-width:0.8;"/>
      </defs>
      <g>
       <use style="stroke:#000000;stroke-width:0.8;" x="56.12" xlink:href="#m989c887bf5" y="294.88"/>
      </g>
     </g>
     <g id="text_6">
      <!-- 0.0 -->
      <defs>
       <path d="M 10.6875 12.40625 
L 21 12.40625 
L 21 0 
L 10.6875 0 
z
" id="DejaVuSans-2e"/>
      </defs>
      <g transform="translate(23.675 300.95875)scale(0.16 -0.16)">
       <use xlink:href="#DejaVuSans-30"/>
       <use x="63.623047" xlink:href="#DejaVuSans-2e"/>
       <use x="95.410156" xlink:href="#DejaVuSans-30"/>
      </g>
     </g>
    </g>
    <g id="ytick_2">
     <g id="line2d_31">
      <path clip-path="url(#p21b861700e)" d="M 56.12 237.843411 
L 333.168 237.843411 
" style="fill:none;stroke:#b0b0b0;stroke-linecap:square;stroke-width:0.8;"/>
     </g>
     <g id="line2d_32">
      <g>
       <use style="stroke:#000000;stroke-width:0.8;" x="56.12" xlink:href="#m989c887bf5" y="237.843411"/>
      </g>
     </g>
     <g id="text_7">
      <!-- 0.2 -->
      <g transform="translate(23.675 243.922161)scale(0.16 -0.16)">
       <use xlink:href="#DejaVuSans-30"/>
       <use x="63.623047" xlink:href="#DejaVuSans-2e"/>
       <use x="95.410156" xlink:href="#DejaVuSans-32"/>
      </g>
     </g>
    </g>
    <g id="ytick_3">
     <g id="line2d_33">
      <path clip-path="url(#p21b861700e)" d="M 56.12 180.806823 
L 333.168 180.806823 
" style="fill:none;stroke:#b0b0b0;stroke-linecap:square;stroke-width:0.8;"/>
     </g>
     <g id="line2d_34">
      <g>
       <use style="stroke:#000000;stroke-width:0.8;" x="56.12" xlink:href="#m989c887bf5" y="180.806823"/>
      </g>
     </g>
     <g id="text_8">
      <!-- 0.4 -->
      <g transform="translate(23.675 186.885573)scale(0.16 -0.16)">
       <use xlink:href="#DejaVuSans-30"/>
       <use x="63.623047" xlink:href="#DejaVuSans-2e"/>
       <use x="95.410156" xlink:href="#DejaVuSans-34"/>
      </g>
     </g>
    </g>
    <g id="ytick_4">
     <g id="line2d_35">
      <path clip-path="url(#p21b861700e)" d="M 56.12 123.770234 
L 333.168 123.770234 
" style="fill:none;stroke:#b0b0b0;stroke-linecap:square;stroke-width:0.8;"/>
     </g>
     <g id="line2d_36">
      <g>
       <use style="stroke:#000000;stroke-width:0.8;" x="56.12" xlink:href="#m989c887bf5" y="123.770234"/>
      </g>
     </g>
     <g id="text_9">
      <!-- 0.6 -->
      <g transform="translate(23.675 129.848984)scale(0.16 -0.16)">
       <use xlink:href="#DejaVuSans-30"/>
       <use x="63.623047" xlink:href="#DejaVuSans-2e"/>
       <use x="95.410156" xlink:href="#DejaVuSans-36"/>
      </g>
     </g>
    </g>
    <g id="ytick_5">
     <g id="line2d_37">
      <path clip-path="url(#p21b861700e)" d="M 56.12 66.733646 
L 333.168 66.733646 
" style="fill:none;stroke:#b0b0b0;stroke-linecap:square;stroke-width:0.8;"/>
     </g>
     <g id="line2d_38">
      <g>
       <use style="stroke:#000000;stroke-width:0.8;" x="56.12" xlink:href="#m989c887bf5" y="66.733646"/>
      </g>
     </g>
     <g id="text_10">
      <!-- 0.8 -->
      <defs>
       <path d="M 31.78125 34.625 
Q 24.75 34.625 20.71875 30.859375 
Q 16.703125 27.09375 16.703125 20.515625 
Q 16.703125 13.921875 20.71875 10.15625 
Q 24.75 6.390625 31.78125 6.390625 
Q 38.8125 6.390625 42.859375 10.171875 
Q 46.921875 13.96875 46.921875 20.515625 
Q 46.921875 27.09375 42.890625 30.859375 
Q 38.875 34.625 31.78125 34.625 
z
M 21.921875 38.8125 
Q 15.578125 40.375 12.03125 44.71875 
Q 8.5 49.078125 8.5 55.328125 
Q 8.5 64.0625 14.71875 69.140625 
Q 20.953125 74.21875 31.78125 74.21875 
Q 42.671875 74.21875 48.875 69.140625 
Q 55.078125 64.0625 55.078125 55.328125 
Q 55.078125 49.078125 51.53125 44.71875 
Q 48 40.375 41.703125 38.8125 
Q 48.828125 37.15625 52.796875 32.3125 
Q 56.78125 27.484375 56.78125 20.515625 
Q 56.78125 9.90625 50.3125 4.234375 
Q 43.84375 -1.421875 31.78125 -1.421875 
Q 19.734375 -1.421875 13.25 4.234375 
Q 6.78125 9.90625 6.78125 20.515625 
Q 6.78125 27.484375 10.78125 32.3125 
Q 14.796875 37.15625 21.921875 38.8125 
z
M 18.3125 54.390625 
Q 18.3125 48.734375 21.84375 45.5625 
Q 25.390625 42.390625 31.78125 42.390625 
Q 38.140625 42.390625 41.71875 45.5625 
Q 45.3125 48.734375 45.3125 54.390625 
Q 45.3125 60.0625 41.71875 63.234375 
Q 38.140625 66.40625 31.78125 66.40625 
Q 25.390625 66.40625 21.84375 63.234375 
Q 18.3125 60.0625 18.3125 54.390625 
z
" id="DejaVuSans-38"/>
      </defs>
      <g transform="translate(23.675 72.812396)scale(0.16 -0.16)">
       <use xlink:href="#DejaVuSans-30"/>
       <use x="63.623047" xlink:href="#DejaVuSans-2e"/>
       <use x="95.410156" xlink:href="#DejaVuSans-38"/>
      </g>
     </g>
    </g>
    <g id="ytick_6">
     <g id="line2d_39">
      <path clip-path="url(#p21b861700e)" d="M 56.12 9.697057 
L 333.168 9.697057 
" style="fill:none;stroke:#b0b0b0;stroke-linecap:square;stroke-width:0.8;"/>
     </g>
     <g id="line2d_40">
      <g>
       <use style="stroke:#000000;stroke-width:0.8;" x="56.12" xlink:href="#m989c887bf5" y="9.697057"/>
      </g>
     </g>
     <g id="text_11">
      <!-- 1.0 -->
      <g transform="translate(23.675 15.775807)scale(0.16 -0.16)">
       <use xlink:href="#DejaVuSans-31"/>
       <use x="63.623047" xlink:href="#DejaVuSans-2e"/>
       <use x="95.410156" xlink:href="#DejaVuSans-30"/>
      </g>
     </g>
    </g>
    <g id="text_12">
     <!-- Fraction of function,target pairs -->
     <defs>
      <path d="M 9.8125 72.90625 
L 51.703125 72.90625 
L 51.703125 64.59375 
L 19.671875 64.59375 
L 19.671875 43.109375 
L 48.578125 43.109375 
L 48.578125 34.8125 
L 19.671875 34.8125 
L 19.671875 0 
L 9.8125 0 
z
" id="DejaVuSans-46"/>
      <path d="M 41.109375 46.296875 
Q 39.59375 47.171875 37.8125 47.578125 
Q 36.03125 48 33.890625 48 
Q 26.265625 48 22.1875 43.046875 
Q 18.109375 38.09375 18.109375 28.8125 
L 18.109375 0 
L 9.078125 0 
L 9.078125 54.6875 
L 18.109375 54.6875 
L 18.109375 46.1875 
Q 20.953125 51.171875 25.484375 53.578125 
Q 30.03125 56 36.53125 56 
Q 37.453125 56 38.578125 55.875 
Q 39.703125 55.765625 41.0625 55.515625 
z
" id="DejaVuSans-72"/>
      <path d="M 48.78125 52.59375 
L 48.78125 44.1875 
Q 44.96875 46.296875 41.140625 47.34375 
Q 37.3125 48.390625 33.40625 48.390625 
Q 24.65625 48.390625 19.8125 42.84375 
Q 14.984375 37.3125 14.984375 27.296875 
Q 14.984375 17.28125 19.8125 11.734375 
Q 24.65625 6.203125 33.40625 6.203125 
Q 37.3125 6.203125 41.140625 7.25 
Q 44.96875 8.296875 48.78125 10.40625 
L 48.78125 2.09375 
Q 45.015625 0.34375 40.984375 -0.53125 
Q 36.96875 -1.421875 32.421875 -1.421875 
Q 20.0625 -1.421875 12.78125 6.34375 
Q 5.515625 14.109375 5.515625 27.296875 
Q 5.515625 40.671875 12.859375 48.328125 
Q 20.21875 56 33.015625 56 
Q 37.15625 56 41.109375 55.140625 
Q 45.0625 54.296875 48.78125 52.59375 
z
" id="DejaVuSans-63"/>
      <path d="M 18.3125 70.21875 
L 18.3125 54.6875 
L 36.8125 54.6875 
L 36.8125 47.703125 
L 18.3125 47.703125 
L 18.3125 18.015625 
Q 18.3125 11.328125 20.140625 9.421875 
Q 21.96875 7.515625 27.59375 7.515625 
L 36.8125 7.515625 
L 36.8125 0 
L 27.59375 0 
Q 17.1875 0 13.234375 3.875 
Q 9.28125 7.765625 9.28125 18.015625 
L 9.28125 47.703125 
L 2.6875 47.703125 
L 2.6875 54.6875 
L 9.28125 54.6875 
L 9.28125 70.21875 
z
" id="DejaVuSans-74"/>
      <path d="M 8.5 21.578125 
L 8.5 54.6875 
L 17.484375 54.6875 
L 17.484375 21.921875 
Q 17.484375 14.15625 20.5 10.265625 
Q 23.53125 6.390625 29.59375 6.390625 
Q 36.859375 6.390625 41.078125 11.03125 
Q 45.3125 15.671875 45.3125 23.6875 
L 45.3125 54.6875 
L 54.296875 54.6875 
L 54.296875 0 
L 45.3125 0 
L 45.3125 8.40625 
Q 42.046875 3.421875 37.71875 1 
Q 33.40625 -1.421875 27.6875 -1.421875 
Q 18.265625 -1.421875 13.375 4.4375 
Q 8.5 10.296875 8.5 21.578125 
z
M 31.109375 56 
z
" id="DejaVuSans-75"/>
      <path d="M 11.71875 12.40625 
L 22.015625 12.40625 
L 22.015625 4 
L 14.015625 -11.625 
L 7.71875 -11.625 
L 11.71875 4 
z
" id="DejaVuSans-2c"/>
      <path d="M 18.109375 8.203125 
L 18.109375 -20.796875 
L 9.078125 -20.796875 
L 9.078125 54.6875 
L 18.109375 54.6875 
L 18.109375 46.390625 
Q 20.953125 51.265625 25.265625 53.625 
Q 29.59375 56 35.59375 56 
Q 45.5625 56 51.78125 48.09375 
Q 58.015625 40.1875 58.015625 27.296875 
Q 58.015625 14.40625 51.78125 6.484375 
Q 45.5625 -1.421875 35.59375 -1.421875 
Q 29.59375 -1.421875 25.265625 0.953125 
Q 20.953125 3.328125 18.109375 8.203125 
z
M 48.6875 27.296875 
Q 48.6875 37.203125 44.609375 42.84375 
Q 40.53125 48.484375 33.40625 48.484375 
Q 26.265625 48.484375 22.1875 42.84375 
Q 18.109375 37.203125 18.109375 27.296875 
Q 18.109375 17.390625 22.1875 11.75 
Q 26.265625 6.109375 33.40625 6.109375 
Q 40.53125 6.109375 44.609375 11.75 
Q 48.6875 17.390625 48.6875 27.296875 
z
" id="DejaVuSans-70"/>
     </defs>
     <g transform="translate(16.139531 286.001989)rotate(-90)scale(0.17 -0.17)">
      <use xlink:href="#DejaVuSans-46"/>
      <use x="57.410156" xlink:href="#DejaVuSans-72"/>
      <use x="98.523438" xlink:href="#DejaVuSans-61"/>
      <use x="159.802734" xlink:href="#DejaVuSans-63"/>
      <use x="214.783203" xlink:href="#DejaVuSans-74"/>
      <use x="253.992188" xlink:href="#DejaVuSans-69"/>
      <use x="281.775391" xlink:href="#DejaVuSans-6f"/>
      <use x="342.957031" xlink:href="#DejaVuSans-6e"/>
      <use x="406.335938" xlink:href="#DejaVuSans-20"/>
      <use x="438.123047" xlink:href="#DejaVuSans-6f"/>
      <use x="499.304688" xlink:href="#DejaVuSans-66"/>
      <use x="534.509766" xlink:href="#DejaVuSans-20"/>
      <use x="566.296875" xlink:href="#DejaVuSans-66"/>
      <use x="601.501953" xlink:href="#DejaVuSans-75"/>
      <use x="664.880859" xlink:href="#DejaVuSans-6e"/>
      <use x="728.259766" xlink:href="#DejaVuSans-63"/>
      <use x="783.240234" xlink:href="#DejaVuSans-74"/>
      <use x="822.449219" xlink:href="#DejaVuSans-69"/>
      <use x="850.232422" xlink:href="#DejaVuSans-6f"/>
      <use x="911.414062" xlink:href="#DejaVuSans-6e"/>
      <use x="974.792969" xlink:href="#DejaVuSans-2c"/>
      <use x="1006.580078" xlink:href="#DejaVuSans-74"/>
      <use x="1045.789062" xlink:href="#DejaVuSans-61"/>
      <use x="1107.068359" xlink:href="#DejaVuSans-72"/>
      <use x="1148.166016" xlink:href="#DejaVuSans-67"/>
      <use x="1211.642578" xlink:href="#DejaVuSans-65"/>
      <use x="1273.166016" xlink:href="#DejaVuSans-74"/>
      <use x="1312.375" xlink:href="#DejaVuSans-20"/>
      <use x="1344.162109" xlink:href="#DejaVuSans-70"/>
      <use x="1407.638672" xlink:href="#DejaVuSans-61"/>
      <use x="1468.917969" xlink:href="#DejaVuSans-69"/>
      <use x="1496.701172" xlink:href="#DejaVuSans-72"/>
      <use x="1537.814453" xlink:href="#DejaVuSans-73"/>
     </g>
    </g>
   </g>
   <g id="line2d_41">
    <defs>
     <path d="M 0 1.5 
C 0.397805 1.5 0.77937 1.341951 1.06066 1.06066 
C 1.341951 0.77937 1.5 0.397805 1.5 0 
C 1.5 -0.397805 1.341951 -0.77937 1.06066 -1.06066 
C 0.77937 -1.341951 0.397805 -1.5 0 -1.5 
C -0.397805 -1.5 -0.77937 -1.341951 -1.06066 -1.06066 
C -1.341951 -0.77937 -1.5 -0.397805 -1.5 0 
C -1.5 0.397805 -1.341951 0.77937 -1.06066 1.06066 
C -0.77937 1.341951 -0.397805 1.5 0 1.5 
z
" id="m884054c806" style="stroke:#f5deb3;"/>
    </defs>
    <g>
     <use style="fill:#f5deb3;stroke:#f5deb3;" x="153.248369" xlink:href="#m884054c806" y="9.697057"/>
     <use style="fill:#f5deb3;stroke:#f5deb3;" x="153.248369" xlink:href="#m884054c806" y="9.697057"/>
    </g>
   </g>
   <g id="line2d_42">
    <defs>
     <path d="M 0 1.5 
C 0.397805 1.5 0.77937 1.341951 1.06066 1.06066 
C 1.341951 0.77937 1.5 0.397805 1.5 0 
C 1.5 -0.397805 1.341951 -0.77937 1.06066 -1.06066 
C 0.77937 -1.341951 0.397805 -1.5 0 -1.5 
C -0.397805 -1.5 -0.77937 -1.341951 -1.06066 -1.06066 
C -1.341951 -0.77937 -1.5 -0.397805 -1.5 0 
C -1.5 0.397805 -1.341951 0.77937 -1.06066 1.06066 
C -0.77937 1.341951 -0.397805 1.5 0 1.5 
z
" id="m0890784a6b" style="stroke:#000080;"/>
    </defs>
    <g>
     <use style="fill:#000080;stroke:#000080;" x="226.523106" xlink:href="#m0890784a6b" y="9.697057"/>
     <use style="fill:#000080;stroke:#000080;" x="226.523106" xlink:href="#m0890784a6b" y="9.697057"/>
    </g>
   </g>
   <g id="line2d_43">
    <path d="M 44.205749 294.88 
L 44.205749 284.591047 
L 68.034251 284.591047 
L 68.034251 281.124117 
L 77.653281 281.124117 
L 77.653281 223.640183 
L 83.784035 223.640183 
L 83.784035 221.738963 
L 88.293717 221.738963 
L 88.293717 175.886019 
L 91.862754 175.886019 
L 91.862754 174.655818 
L 94.816624 174.655818 
L 94.816624 172.754599 
L 97.336537 172.754599 
L 97.336537 170.51787 
L 99.533818 170.51787 
L 99.533818 168.952159 
L 101.481783 168.952159 
L 101.481783 168.61665 
L 103.231288 168.61665 
L 103.231288 168.057468 
L 104.819059 168.057468 
L 104.819059 167.498286 
L 106.272485 167.498286 
L 106.272485 167.05094 
L 107.612537 167.05094 
L 107.612537 166.71543 
L 108.85563 166.71543 
L 108.85563 166.491757 
L 110.014853 166.491757 
L 110.014853 166.156248 
L 111.100812 166.156248 
L 111.100812 165.597066 
L 112.122219 165.597066 
L 112.122219 165.485229 
L 113.086321 165.485229 
L 113.086321 165.261557 
L 113.999206 165.261557 
L 113.999206 164.926047 
L 114.866043 164.926047 
L 114.866043 164.478701 
L 115.691256 164.478701 
L 115.691256 163.919519 
L 116.478659 163.919519 
L 116.478659 163.472173 
L 117.231566 163.472173 
L 117.231566 161.459117 
L 117.952873 161.459117 
L 117.952873 160.788099 
L 118.645127 160.788099 
L 118.645127 158.55137 
L 119.310576 158.55137 
L 119.310576 156.538314 
L 119.95122 156.538314 
L 119.95122 154.413421 
L 120.568842 154.413421 
L 120.568842 152.400365 
L 121.16504 152.400365 
L 121.16504 150.0518 
L 121.741249 150.0518 
L 121.741249 146.920379 
L 122.298767 146.920379 
L 122.298767 145.242832 
L 122.838768 145.242832 
L 122.838768 141.775902 
L 123.36232 141.775902 
L 123.36232 139.427337 
L 123.870396 139.427337 
L 123.870396 137.526117 
L 124.363883 137.526117 
L 124.363883 135.401225 
L 124.843597 135.401225 
L 124.843597 132.493477 
L 125.310285 132.493477 
L 125.310285 130.480421 
L 125.614517 130.480421 
L 125.614517 130.368585 
L 125.764637 130.368585 
L 125.764637 127.237164 
L 126.061 127.237164 
L 126.061 127.013491 
L 126.207287 127.013491 
L 126.207287 124.441253 
L 126.638823 124.441253 
L 126.638823 122.540033 
L 127.05979 122.540033 
L 127.05979 121.08616 
L 127.470694 121.08616 
L 127.470694 120.079632 
L 127.872003 120.079632 
L 127.872003 119.632286 
L 128.13443 119.632286 
L 128.13443 119.520449 
L 128.264156 119.520449 
L 128.264156 118.961267 
L 128.647561 118.961267 
L 128.647561 118.066575 
L 129.022601 118.066575 
L 129.022601 117.395557 
L 129.389632 117.395557 
L 129.389632 116.500865 
L 129.748989 116.500865 
L 129.748989 116.389029 
L 130.100987 116.389029 
L 130.100987 115.71801 
L 130.445921 115.71801 
L 130.445921 115.606174 
L 130.784069 115.606174 
L 130.784069 114.599646 
L 131.115693 114.599646 
L 131.115693 114.264136 
L 131.441039 114.264136 
L 131.441039 113.369445 
L 132.073821 113.369445 
L 132.073821 112.810262 
L 132.381685 112.810262 
L 132.381685 112.474753 
L 132.583907 112.474753 
L 132.684132 112.139244 
L 132.98135 112.139244 
L 132.98135 112.027407 
L 133.273515 112.027407 
L 133.273515 111.915571 
L 133.465568 111.915571 
L 133.560797 111.356389 
L 134.121345 111.356389 
L 134.121345 111.132716 
L 134.664189 111.132716 
L 134.664189 110.573533 
L 134.841393 110.573533 
L 134.929315 110.349861 
L 135.447604 110.349861 
L 135.447604 110.014351 
L 135.701004 110.014351 
L 135.701004 109.231496 
L 135.950722 109.231496 
L 135.950722 108.895987 
L 136.439531 108.895987 
L 136.439531 108.78415 
L 136.599426 108.78415 
L 136.67882 108.560477 
L 136.914823 108.560477 
L 136.914823 108.336804 
L 137.14763 108.336804 
L 137.14763 107.777622 
L 137.603992 107.777622 
L 137.603992 107.665786 
L 137.827708 107.665786 
L 137.827708 107.442113 
L 139.317139 107.442113 
L 139.317139 107.330276 
L 139.519758 107.330276 
L 139.519758 106.994767 
L 139.720016 106.994767 
L 139.720016 106.659258 
L 140.113666 106.659258 
L 140.113666 106.547421 
L 140.498503 106.547421 
L 140.498503 106.435585 
L 140.687737 106.435585 
L 140.687737 106.323748 
L 140.874911 106.323748 
L 140.874911 106.100075 
L 141.060069 106.100075 
L 141.060069 105.764566 
L 141.424506 105.764566 
L 141.424506 105.65273 
L 142.809574 105.65273 
L 142.809574 105.31722 
L 143.139078 105.31722 
L 143.139078 105.205384 
L 143.301492 105.205384 
L 143.301492 105.093547 
L 143.936221 105.093547 
L 143.936221 104.981711 
L 144.397345 104.981711 
L 144.397345 104.869875 
L 146.39939 104.869875 
L 146.39939 104.758038 
L 146.667271 104.758038 
L 146.667271 104.534365 
L 146.799661 104.534365 
L 146.799661 104.310692 
L 147.061422 104.310692 
L 147.061422 104.198856 
L 147.319256 104.198856 
L 147.319256 104.087019 
L 147.823604 104.087019 
L 147.823604 103.863347 
L 148.433916 103.863347 
L 148.433916 103.75151 
L 148.55342 103.75151 
L 148.55342 103.639674 
L 148.672099 103.639674 
L 148.672099 103.416001 
L 149.138788 103.416001 
L 149.138788 103.304164 
L 149.480672 103.304164 
L 149.480672 102.968655 
L 149.704875 102.968655 
L 149.815889 101.738454 
L 149.926191 101.738454 
L 150.035789 100.62009 
L 150.144693 100.62009 
L 150.252912 99.837234 
L 150.360453 99.837234 
L 150.467326 99.389889 
L 150.573538 99.389889 
L 150.573538 99.278052 
L 151.197387 99.278052 
L 151.197387 98.830706 
L 151.501022 98.830706 
L 151.601053 98.159688 
L 151.799385 98.159688 
L 151.8977 97.376833 
L 151.995456 97.376833 
L 152.092658 96.81765 
L 152.189314 96.81765 
L 152.189314 96.482141 
L 152.381011 96.482141 
L 152.381011 96.034795 
L 152.570594 96.034795 
L 152.570594 95.587449 
L 154.696079 95.587449 
L 154.696079 95.363776 
L 154.861887 95.363776 
L 154.944195 94.804594 
L 155.026111 94.804594 
L 155.107638 93.798066 
L 155.18878 93.798066 
L 155.269542 92.903375 
L 155.349925 92.903375 
L 155.429934 92.008683 
L 155.509573 92.008683 
L 155.509573 91.78501 
L 155.824488 91.78501 
L 155.824488 91.673174 
L 156.056945 91.673174 
L 156.056945 91.561337 
L 156.210188 91.561337 
L 156.2863 91.113991 
L 156.43752 91.113991 
L 156.43752 90.890319 
L 156.661886 90.890319 
L 156.661886 90.778482 
L 156.809852 90.778482 
L 156.809852 90.554809 
L 157.02944 90.554809 
L 157.02944 90.331136 
L 157.246258 90.331136 
L 157.246258 90.107463 
L 157.460375 90.107463 
L 157.460375 89.995627 
L 157.601653 89.995627 
L 157.601653 89.548281 
L 158.691918 89.548281 
L 158.691918 89.436445 
L 158.888862 89.436445 
L 158.888862 89.212772 
L 159.083575 89.212772 
L 159.083575 89.100935 
L 160.147128 89.100935 
L 160.207687 88.877262 
L 160.447811 88.877262 
L 160.447811 88.765426 
L 160.743325 88.765426 
L 160.743325 88.65359 
L 160.860123 88.65359 
L 160.860123 88.541753 
L 161.766986 88.541753 
L 161.822107 88.206244 
L 163.094612 88.206244 
L 163.094612 88.094407 
L 166.302131 88.094407 
L 166.302131 87.982571 
L 168.149847 87.982571 
L 168.149847 87.758898 
L 168.301512 87.758898 
L 168.301512 87.647062 
L 168.41439 87.647062 
L 168.41439 87.535225 
L 168.822044 87.535225 
L 168.822044 87.423389 
L 169.539337 87.423389 
L 169.644396 86.081351 
L 169.679273 86.081351 
L 169.714079 85.298496 
L 169.818078 85.298496 
L 169.921451 83.956459 
L 170.092371 83.956459 
L 170.194112 83.061767 
L 170.227893 83.061767 
L 170.328838 82.390748 
L 170.395806 82.390748 
L 170.495773 82.055239 
L 170.628164 82.055239 
L 170.726792 81.160548 
L 170.759542 81.160548 
L 170.792231 80.825038 
L 171.464706 80.825038 
L 171.464706 80.713202 
L 171.621015 80.713202 
L 171.683143 80.042183 
L 171.745046 80.042183 
L 171.837486 79.035655 
L 171.868189 79.035655 
L 171.959971 78.140963 
L 172.020888 78.140963 
L 172.051265 77.581781 
L 172.142077 77.581781 
L 172.142077 77.134435 
L 173.754693 77.134435 
L 173.864292 74.674034 
L 173.891582 74.674034 
L 173.946034 73.891178 
L 174.242475 73.891178 
L 174.242475 73.779342 
L 174.375549 73.779342 
L 174.375549 73.667506 
L 174.586347 73.667506 
L 174.690785 72.101795 
L 174.768698 72.101795 
L 174.872037 71.095267 
L 174.897775 71.095267 
L 175.000343 70.647921 
L 176.089954 70.647921 
L 176.185668 67.740174 
L 176.209513 67.740174 
L 176.304566 67.069155 
L 176.328247 67.069155 
L 176.399096 65.838954 
L 176.446167 65.838954 
L 176.539923 64.832426 
L 176.563282 64.832426 
L 176.563282 64.608753 
L 177.974385 64.608753 
L 177.974385 64.496917 
L 178.752157 64.496917 
L 178.752157 64.38508 
L 179.788972 64.38508 
L 179.885447 62.483861 
L 179.904677 62.483861 
L 179.943073 61.477333 
L 182.553401 61.477333 
L 182.651967 59.687949 
L 182.701038 59.687949 
L 182.701038 59.128767 
L 183.823293 59.128767 
L 183.914857 57.78673 
L 183.945271 57.78673 
L 184.036189 56.780202 
L 184.081469 56.780202 
L 184.171672 54.431636 
L 184.261404 54.431636 
L 184.365503 52.977763 
L 184.586471 52.977763 
L 184.688625 51.635725 
L 184.703169 51.635725 
L 184.775705 49.846342 
L 185.077058 49.846342 
L 185.091277 49.510833 
L 185.595489 49.510833 
L 185.595489 49.398996 
L 189.71212 49.398996 
L 189.787992 46.938594 
L 189.895803 46.938594 
L 190.002942 45.932066 
L 190.58056 45.932066 
L 190.683527 45.484721 
L 190.704047 45.484721 
L 190.785881 44.366356 
L 190.816469 44.366356 
L 190.867328 42.912482 
L 191.651547 42.912482 
L 191.71934 42.3533 
L 191.7676 42.3533 
L 191.854128 42.017791 
L 191.940223 42.017791 
L 191.940223 41.905954 
L 192.148879 41.905954 
L 192.214742 38.774534 
L 192.429389 38.774534 
L 192.429389 38.662697 
L 192.549536 38.662697 
L 192.549536 38.439024 
L 192.723638 38.439024 
L 192.723638 38.327188 
L 193.182429 38.327188 
L 193.235608 37.768006 
L 193.385394 37.768006 
L 193.429202 37.096987 
L 193.672482 37.096987 
L 193.706957 36.649641 
L 193.84417 36.649641 
L 193.912367 36.202295 
L 194.00852 36.202295 
L 194.106942 35.866786 
L 194.182484 35.866786 
L 194.266032 35.41944 
L 194.448421 35.41944 
L 194.522481 34.972094 
L 194.588045 34.972094 
L 194.628895 34.748422 
L 194.718427 34.748422 
L 194.718427 34.636585 
L 195.206629 34.636585 
L 195.206629 34.524749 
L 195.363723 34.524749 
L 195.449517 34.189239 
L 195.503891 34.189239 
L 195.503891 34.077403 
L 195.627532 34.077403 
L 195.665989 33.85373 
L 195.96303 33.85373 
L 196.008277 33.406384 
L 196.098414 33.406384 
L 196.128355 33.182711 
L 196.217866 33.182711 
L 196.299511 32.959038 
L 196.446969 32.959038 
L 196.446969 32.847202 
L 196.564032 32.847202 
L 196.564032 32.735365 
L 196.716477 32.735365 
L 196.824544 31.95251 
L 196.896213 31.95251 
L 196.931936 31.728837 
L 197.017369 31.728837 
L 197.123567 30.945982 
L 197.137677 30.945982 
L 197.208055 30.498637 
L 197.562568 30.498637 
L 197.596934 30.051291 
L 197.720085 30.051291 
L 197.740524 29.827618 
L 197.909916 29.827618 
L 198.004052 29.603945 
L 198.177519 29.603945 
L 198.2636 29.156599 
L 198.303185 29.156599 
L 198.375521 28.373744 
L 198.642488 28.373744 
L 198.745556 27.926398 
L 198.758396 27.926398 
L 198.854392 27.702725 
L 198.873527 27.702725 
L 198.879901 27.367216 
L 199.070019 27.367216 
L 199.120364 27.143543 
L 199.29542 27.143543 
L 199.29542 27.031707 
L 199.858363 27.031707 
L 199.858363 26.91987 
L 200.103421 26.91987 
L 200.204014 26.360688 
L 200.25115 26.360688 
L 200.292287 26.025179 
L 200.461673 26.025179 
L 200.560198 25.242323 
L 200.640914 25.242323 
L 200.738419 24.683141 
L 200.761281 24.683141 
L 200.863787 24.012123 
L 200.903486 24.012123 
L 201.01078 23.229267 
L 201.022035 23.229267 
L 201.050141 22.670085 
L 201.405896 22.670085 
L 201.471788 22.334576 
L 201.526505 22.334576 
L 201.531967 22.110903 
L 202.971808 22.110903 
L 203.076958 21.551721 
L 203.181469 21.551721 
L 203.240905 20.768866 
L 203.300137 20.768866 
L 203.300137 20.657029 
L 203.447329 20.657029 
L 203.447329 20.545193 
L 203.564181 20.545193 
L 203.63198 19.98601 
L 203.694698 19.98601 
L 203.79553 19.426828 
L 203.871959 19.426828 
L 203.886252 18.979482 
L 204.004898 18.979482 
L 204.056845 18.643973 
L 204.3096 18.643973 
L 204.416137 18.196627 
L 204.499055 18.196627 
L 204.608994 17.861118 
L 204.826785 17.861118 
L 204.921208 17.637445 
L 205.135103 17.637445 
L 205.188164 17.413772 
L 205.271843 17.413772 
L 205.376963 16.966426 
L 205.403143 16.966426 
L 205.403143 16.85459 
L 205.69281 16.85459 
L 205.791133 16.407244 
L 205.850707 16.407244 
L 205.850707 16.295408 
L 205.990321 16.295408 
L 206.099527 16.071735 
L 206.22052 16.071735 
L 206.328277 15.848062 
L 206.525456 15.848062 
L 206.635384 15.400716 
L 206.700196 15.400716 
L 206.700196 15.28888 
L 206.937099 15.28888 
L 206.953043 15.065207 
L 207.178648 15.065207 
L 207.276671 14.841534 
L 207.311823 14.841534 
L 207.311823 14.729697 
L 207.463323 14.729697 
L 207.463323 14.617861 
L 207.575117 14.617861 
L 207.65562 14.394188 
L 207.857133 14.394188 
L 207.860913 14.170515 
L 208.582479 14.170515 
L 208.665624 13.946842 
L 208.766304 13.946842 
L 208.766304 13.835006 
L 208.923333 13.835006 
L 209.02605 13.499496 
L 209.110596 13.499496 
L 209.173734 13.052151 
L 209.540913 13.052151 
L 209.540913 12.940314 
L 209.674057 12.940314 
L 209.674057 12.828478 
L 210.344371 12.828478 
L 210.403143 12.604805 
L 210.56858 12.604805 
L 210.56858 12.492968 
L 210.735638 12.492968 
L 210.745227 12.269295 
L 211.310969 12.269295 
L 211.310969 12.157459 
L 211.723382 12.157459 
L 211.723382 12.045623 
L 211.855687 12.045623 
L 211.888605 11.82195 
L 212.001839 11.82195 
L 212.102525 11.598277 
L 212.120232 11.598277 
L 212.120232 11.48644 
L 212.395287 11.48644 
L 212.395287 11.374604 
L 212.929722 11.374604 
L 212.997124 11.150931 
L 213.461685 11.150931 
L 213.461685 11.039095 
L 213.796697 11.039095 
L 213.796697 10.927258 
L 215.097374 10.927258 
L 215.097374 10.815422 
L 218.206684 10.815422 
L 218.206684 10.703585 
L 218.993655 10.703585 
L 219.058787 10.368076 
L 219.450259 10.368076 
L 219.450259 10.256239 
L 220.810326 10.256239 
L 220.817441 10.032566 
L 221.697917 10.032566 
L 221.697917 9.92073 
L 226.023361 9.92073 
L 226.023361 9.808894 
L 226.523106 9.808894 
L 226.523106 9.697057 
L 333.168 9.697057 
L 333.168 9.697057 
" style="fill:none;stroke:#000080;stroke-linecap:square;stroke-width:1.5;"/>
   </g>
   <g id="line2d_44">
    <defs>
     <path d="M 0 6 
C 1.591219 6 3.117479 5.367802 4.242641 4.242641 
C 5.367802 3.117479 6 1.591219 6 0 
C 6 -1.591219 5.367802 -3.117479 4.242641 -4.242641 
C 3.117479 -5.367802 1.591219 -6 0 -6 
C -1.591219 -6 -3.117479 -5.367802 -4.242641 -4.242641 
C -5.367802 -3.117479 -6 -1.591219 -6 0 
C -6 1.591219 -5.367802 3.117479 -4.242641 4.242641 
C -3.117479 5.367802 -1.591219 6 0 6 
z
" id="m9f2651b8e5" style="stroke:#000080;stroke-width:1.5;"/>
    </defs>
    <g>
     <use style="fill:none;stroke:#000080;stroke-width:1.5;" x="88.293717" xlink:href="#m9f2651b8e5" y="221.738963"/>
     <use style="fill:none;stroke:#000080;stroke-width:1.5;" x="136.914823" xlink:href="#m9f2651b8e5" y="108.560477"/>
     <use style="fill:none;stroke:#000080;stroke-width:1.5;" x="197.590066" xlink:href="#m9f2651b8e5" y="30.274964"/>
     <use style="fill:none;stroke:#000080;stroke-width:1.5;" x="226.523106" xlink:href="#m9f2651b8e5" y="9.697057"/>
     <use style="fill:none;stroke:#000080;stroke-width:1.5;" x="226.523106" xlink:href="#m9f2651b8e5" y="9.697057"/>
     <use style="fill:none;stroke:#000080;stroke-width:1.5;" x="333.168" xlink:href="#m9f2651b8e5" y="9.697057"/>
    </g>
   </g>
   <g id="line2d_45">
    <path style="fill:none;stroke:#000080;stroke-linecap:square;stroke-width:1.5;"/>
    <g/>
   </g>
   <g id="line2d_46">
    <path clip-path="url(#p21b861700e)" d="M 192.249141 38.774534 
" style="fill:none;stroke:#000080;stroke-linecap:square;stroke-width:1.5;"/>
    <defs>
     <path d="M -12 12 
L 12 -12 
M -12 -12 
L 12 12 
" id="m3d232e8074" style="stroke:#000080;"/>
    </defs>
    <g clip-path="url(#p21b861700e)">
     <use style="fill:#000080;stroke:#000080;" x="192.249141" xlink:href="#m3d232e8074" y="38.774534"/>
    </g>
   </g>
   <g id="line2d_47">
    <defs>
     <path d="M 0 1.5 
C 0.397805 1.5 0.77937 1.341951 1.06066 1.06066 
C 1.341951 0.77937 1.5 0.397805 1.5 0 
C 1.5 -0.397805 1.341951 -0.77937 1.06066 -1.06066 
C 0.77937 -1.341951 0.397805 -1.5 0 -1.5 
C -0.397805 -1.5 -0.77937 -1.341951 -1.06066 -1.06066 
C -1.341951 -0.77937 -1.5 -0.397805 -1.5 0 
C -1.5 0.397805 -1.341951 0.77937 -1.06066 1.06066 
C -0.77937 1.341951 -0.397805 1.5 0 1.5 
z
" id="m3f74c9c1f1" style="stroke:#ff00ff;"/>
    </defs>
    <g>
     <use style="fill:#ff00ff;stroke:#ff00ff;" x="191.735442" xlink:href="#m3f74c9c1f1" y="99.166216"/>
     <use style="fill:#ff00ff;stroke:#ff00ff;" x="191.735442" xlink:href="#m3f74c9c1f1" y="99.166216"/>
    </g>
   </g>
   <g id="line2d_48">
    <path d="M 44.205749 294.88 
L 44.205749 280.676771 
L 90.753425 280.676771 
L 90.753425 280.564935 
L 92.904808 280.564935 
L 92.904808 280.341262 
L 94.816624 280.341262 
L 94.816624 280.229425 
L 95.698286 280.229425 
L 95.698286 280.117589 
L 97.336537 280.117589 
L 97.336537 279.893916 
L 98.100602 279.893916 
L 98.100602 279.558407 
L 98.832144 279.558407 
L 98.832144 279.44657 
L 100.207968 279.44657 
L 100.207968 279.334734 
L 100.856673 279.334734 
L 100.856673 278.663715 
L 101.481783 278.663715 
L 101.481783 277.992696 
L 102.084955 277.992696 
L 102.084955 277.769023 
L 102.667676 277.769023 
L 102.667676 277.433514 
L 103.231288 277.433514 
L 103.231288 276.986168 
L 103.777005 276.986168 
L 103.777005 276.650659 
L 104.305927 276.650659 
L 104.305927 275.644131 
L 104.819059 275.644131 
L 104.819059 275.420458 
L 105.317315 275.420458 
L 105.317315 272.736383 
L 105.801534 272.736383 
L 105.801534 272.177201 
L 106.272485 272.177201 
L 106.272485 270.499654 
L 106.730875 270.499654 
L 106.730875 268.262925 
L 107.177358 268.262925 
L 107.177358 264.572323 
L 107.612537 264.572323 
L 107.612537 243.54707 
L 108.036969 243.54707 
L 108.036969 242.987888 
L 108.451173 242.987888 
L 108.451173 242.876052 
L 108.85563 242.876052 
L 108.85563 242.093196 
L 109.250788 242.093196 
L 109.250788 241.086668 
L 109.637066 241.086668 
L 109.637066 240.303813 
L 110.014853 240.303813 
L 110.014853 238.849939 
L 110.384516 238.849939 
L 110.384516 229.455678 
L 110.746395 229.455678 
L 110.746395 229.343841 
L 111.100812 229.343841 
L 111.100812 229.232005 
L 111.448069 229.232005 
L 111.448069 228.896496 
L 111.788449 228.896496 
L 111.788449 228.44915 
L 112.122219 228.44915 
L 112.122219 228.11364 
L 112.449632 228.11364 
L 112.449632 227.218949 
L 112.770924 227.218949 
L 112.770924 226.436094 
L 113.086321 226.436094 
L 113.086321 226.212421 
L 113.396034 226.212421 
L 113.396034 226.100584 
L 113.700266 226.100584 
L 113.700266 225.876911 
L 113.999206 225.876911 
L 113.999206 223.640183 
L 114.293036 223.640183 
L 114.293036 223.081 
L 114.581927 223.081 
L 114.581927 222.745491 
L 114.866043 222.745491 
L 114.866043 221.962636 
L 115.145539 221.962636 
L 115.145539 221.403454 
L 115.420563 221.403454 
L 115.420563 221.067944 
L 115.957752 221.067944 
L 115.957752 219.94958 
L 116.220179 219.94958 
L 116.220179 219.837743 
L 116.478659 219.837743 
L 116.478659 219.054888 
L 116.73331 219.054888 
L 116.73331 218.719379 
L 116.984244 218.719379 
L 116.984244 218.383869 
L 117.231566 218.383869 
L 117.231566 217.601014 
L 117.475381 217.601014 
L 117.475381 217.153669 
L 117.715785 217.153669 
L 117.715785 217.041832 
L 117.952873 217.041832 
L 117.952873 216.370813 
L 118.186736 216.370813 
L 118.186736 215.811631 
L 118.417459 215.811631 
L 118.417459 214.91694 
L 118.645127 214.91694 
L 118.645127 214.022248 
L 118.869818 214.022248 
L 118.869818 213.239393 
L 119.09161 213.239393 
L 119.09161 212.680211 
L 119.310576 212.680211 
L 119.310576 211.561846 
L 119.526788 211.561846 
L 119.526788 211.1145 
L 119.740314 211.1145 
L 119.740314 210.331645 
L 119.95122 210.331645 
L 119.95122 209.884299 
L 120.15957 209.884299 
L 120.15957 209.54879 
L 120.365424 209.54879 
L 120.365424 208.989608 
L 120.568842 208.989608 
L 120.568842 208.318589 
L 120.769881 208.318589 
L 120.769881 207.64757 
L 120.968596 207.64757 
L 120.968596 206.752879 
L 121.16504 206.752879 
L 121.16504 205.634514 
L 121.359263 205.634514 
L 121.359263 205.075332 
L 121.551317 205.075332 
L 121.551317 204.963496 
L 121.741249 204.963496 
L 121.741249 204.292477 
L 121.929105 204.292477 
L 121.929105 202.95044 
L 122.114929 202.95044 
L 122.114929 201.608402 
L 122.298767 201.608402 
L 122.298767 199.595346 
L 122.480659 199.595346 
L 122.480659 198.924327 
L 122.660646 198.924327 
L 122.660646 198.476982 
L 122.838768 198.476982 
L 122.838768 197.805963 
L 123.015063 197.805963 
L 123.015063 196.799435 
L 123.189569 196.799435 
L 123.189569 196.01658 
L 123.36232 196.01658 
L 123.36232 195.010052 
L 123.533353 195.010052 
L 123.533353 194.003524 
L 123.7027 194.003524 
L 123.7027 193.779851 
L 123.870396 193.779851 
L 123.870396 192.661486 
L 124.036471 192.661486 
L 124.036471 191.207613 
L 124.200956 191.207613 
L 124.200956 190.201085 
L 124.363883 190.201085 
L 124.363883 189.753739 
L 124.52528 189.753739 
L 124.52528 188.635374 
L 124.685175 188.635374 
L 124.685175 187.405173 
L 124.843597 187.405173 
L 124.843597 186.398645 
L 125.000572 186.398645 
L 125.000572 185.392117 
L 125.156126 185.392117 
L 125.156126 184.721099 
L 125.310285 184.721099 
L 125.310285 183.155388 
L 125.463074 183.155388 
L 125.463074 182.037024 
L 125.614517 182.037024 
L 125.614517 180.58315 
L 125.764637 180.58315 
L 125.764637 179.576622 
L 125.913457 179.576622 
L 125.913457 177.675402 
L 126.061 177.675402 
L 126.061 176.109692 
L 126.207287 176.109692 
L 126.207287 174.879491 
L 126.352339 174.879491 
L 126.352339 174.208472 
L 126.496178 174.208472 
L 126.496178 172.754599 
L 126.638823 172.754599 
L 126.638823 172.307253 
L 126.780294 172.307253 
L 126.780294 170.51787 
L 126.92061 170.51787 
L 126.92061 168.952159 
L 127.05979 168.952159 
L 127.05979 168.840323 
L 127.197852 168.840323 
L 127.197852 167.610122 
L 127.334814 167.610122 
L 127.334814 167.162776 
L 127.470694 167.162776 
L 127.470694 166.379921 
L 127.605507 166.379921 
L 127.605507 165.932575 
L 127.739271 165.932575 
L 127.739271 163.919519 
L 127.872003 163.919519 
L 127.872003 163.024828 
L 128.003717 163.024828 
L 128.003717 162.0183 
L 128.13443 162.0183 
L 128.13443 161.347281 
L 128.264156 161.347281 
L 128.264156 160.899935 
L 128.39291 160.899935 
L 128.39291 160.11708 
L 128.520707 160.11708 
L 128.520707 159.557898 
L 128.647561 159.557898 
L 128.647561 159.110552 
L 128.773486 159.110552 
L 128.773486 158.104024 
L 128.898495 158.104024 
L 128.898495 157.097496 
L 129.022601 157.097496 
L 129.022601 156.314641 
L 129.145817 156.314641 
L 129.145817 155.643622 
L 129.268157 155.643622 
L 129.268157 154.860767 
L 129.389632 154.860767 
L 129.389632 154.189748 
L 129.510254 154.189748 
L 129.510254 153.966075 
L 129.630036 153.966075 
L 129.630036 153.406893 
L 129.748989 153.406893 
L 129.748989 152.735874 
L 129.867125 152.735874 
L 129.867125 151.841183 
L 129.984454 151.841183 
L 129.984454 151.058328 
L 130.100987 151.058328 
L 130.100987 150.610982 
L 130.216736 150.610982 
L 130.216736 150.275473 
L 130.33171 150.275473 
L 130.33171 149.492617 
L 130.445921 149.492617 
L 130.445921 149.157108 
L 130.559378 149.157108 
L 130.559378 148.709762 
L 130.67209 148.709762 
L 130.67209 148.262416 
L 130.784069 148.262416 
L 130.784069 147.591398 
L 130.895323 147.591398 
L 131.005861 145.690178 
L 131.115693 145.690178 
L 131.224827 144.236304 
L 131.333273 144.236304 
L 131.441039 143.229776 
L 131.548134 143.229776 
L 131.654565 142.670594 
L 131.760342 142.670594 
L 131.865471 142.111412 
L 131.969962 142.111412 
L 132.073821 140.769374 
L 132.177056 140.769374 
L 132.279675 140.433865 
L 132.381685 140.433865 
L 132.483094 133.276332 
L 132.583907 133.276332 
L 132.583907 132.71715 
L 132.783777 132.71715 
L 132.882847 132.493477 
L 133.079291 132.493477 
L 133.176677 129.25022 
L 133.273515 129.25022 
L 133.273515 129.138384 
L 133.465568 129.138384 
L 133.560797 128.802874 
L 133.843356 128.802874 
L 133.936519 128.467365 
L 134.121345 128.467365 
L 134.121345 128.243692 
L 134.39491 128.243692 
L 134.485139 127.908183 
L 134.841393 127.908183 
L 134.841393 127.68451 
L 135.3623 127.68451 
L 135.3623 127.460837 
L 135.532486 127.460837 
L 135.616951 127.013491 
L 135.701004 127.013491 
L 135.784647 126.454309 
L 135.867885 126.454309 
L 135.950722 126.230636 
L 136.033161 126.230636 
L 136.033161 126.006963 
L 136.196864 126.006963 
L 136.278134 125.559617 
L 136.359022 125.559617 
L 136.439531 125.224108 
L 136.67882 125.224108 
L 136.757848 124.776762 
L 136.836515 124.776762 
L 136.914823 124.441253 
L 136.992776 124.441253 
L 137.070377 123.993907 
L 137.377325 123.993907 
L 137.377325 123.770234 
L 137.528768 123.770234 
L 137.528768 123.434725 
L 137.678888 123.434725 
L 137.678888 123.211052 
L 137.827708 123.211052 
L 137.827708 123.099216 
L 137.975251 123.099216 
L 137.975251 122.987379 
L 138.121538 122.987379 
L 138.194217 122.31636 
L 138.33866 122.31636 
L 138.410429 121.869015 
L 138.4819 121.869015 
L 138.553074 121.533505 
L 138.623956 121.533505 
L 138.694545 120.75065 
L 138.834862 120.75065 
L 138.834862 120.638814 
L 138.974042 120.638814 
L 139.043211 120.415141 
L 139.112104 120.415141 
L 139.180721 120.191468 
L 139.384945 120.191468 
L 139.384945 120.079632 
L 139.586771 120.079632 
L 139.586771 119.855959 
L 139.720016 119.855959 
L 139.786254 119.520449 
L 139.852237 119.520449 
L 139.852237 119.408613 
L 140.113666 119.408613 
L 140.178407 119.18494 
L 140.242905 119.18494 
L 140.242905 119.073103 
L 140.498503 119.073103 
L 140.498503 118.961267 
L 140.750355 118.961267 
L 140.750355 118.849431 
L 140.936852 118.849431 
L 140.936852 118.737594 
L 141.484501 118.737594 
L 141.484501 118.513921 
L 141.603867 118.513921 
L 141.603867 118.402085 
L 141.72241 118.402085 
L 141.72241 118.290248 
L 142.18857 118.290248 
L 142.245962 115.270664 
L 142.473629 115.270664 
L 142.473629 115.158828 
L 142.586342 115.158828 
L 142.642422 113.704954 
L 142.920112 113.704954 
L 143.029944 113.481281 
L 143.139078 113.481281 
L 143.193387 113.145772 
L 143.301492 113.145772 
L 143.301492 113.033935 
L 143.674593 113.033935 
L 143.779723 112.698426 
L 143.884213 112.698426 
L 143.884213 112.586589 
L 144.142694 112.586589 
L 144.142694 112.474753 
L 144.295937 112.474753 
L 144.295937 112.362917 
L 144.698028 112.362917 
L 144.747635 112.139244 
L 144.84642 112.139244 
L 144.944641 111.915571 
L 145.37982 111.915571 
L 145.37982 111.803734 
L 145.943432 111.803734 
L 145.943432 111.691898 
L 146.127269 111.691898 
L 146.127269 111.580061 
L 146.39939 111.580061 
L 146.489148 111.244552 
L 146.799661 111.244552 
L 146.799661 111.132716 
L 147.147797 111.132716 
L 147.147797 111.020879 
L 147.361855 111.020879 
L 147.361855 110.909043 
L 147.657127 110.909043 
L 147.657127 110.797206 
L 147.782136 110.797206 
L 147.864973 110.238024 
L 148.433916 110.238024 
L 148.433916 109.007823 
L 148.711478 109.007823 
L 148.711478 108.78415 
L 149.253506 108.78415 
L 149.253506 108.672314 
L 149.593139 108.672314 
L 149.593139 108.560477 
L 149.704875 108.560477 
L 149.704875 108.448641 
L 150.072167 108.448641 
L 150.072167 108.336804 
L 150.216915 108.336804 
L 150.216915 108.224968 
L 151.434009 108.224968 
L 151.434009 108.113132 
L 151.8977 108.113132 
L 151.8977 108.001295 
L 152.476064 108.001295 
L 152.476064 107.889459 
L 152.97432 107.889459 
L 152.97432 107.330276 
L 153.187846 107.330276 
L 153.187846 107.106604 
L 153.458539 107.106604 
L 153.54783 106.882931 
L 154.779183 106.882931 
L 154.779183 106.771094 
L 155.05333 106.771094 
L 155.05333 106.659258 
L 155.641489 106.659258 
L 155.641489 106.547421 
L 155.92819 106.547421 
L 155.92819 106.435585 
L 156.056945 106.435585 
L 156.056945 106.323748 
L 156.311596 106.323748 
L 156.311596 106.211912 
L 156.462595 106.211912 
L 156.562529 105.988239 
L 157.053666 105.988239 
L 157.150232 105.764566 
L 157.601653 105.764566 
L 157.601653 105.65273 
L 159.062048 105.65273 
L 159.062048 105.540893 
L 159.382144 105.540893 
L 159.382144 105.429057 
L 159.508531 105.429057 
L 159.529506 105.205384 
L 160.066049 105.205384 
L 160.066049 105.093547 
L 160.227826 105.093547 
L 160.227826 104.981711 
L 161.205828 104.981711 
L 161.205828 104.869875 
L 161.319534 104.869875 
L 161.319534 104.758038 
L 161.544716 104.758038 
L 161.544716 104.646202 
L 162.221018 104.646202 
L 162.221018 104.534365 
L 162.733095 104.534365 
L 162.733095 104.422529 
L 163.297829 104.422529 
L 163.297829 104.310692 
L 163.614756 104.310692 
L 163.614756 104.198856 
L 163.97457 104.198856 
L 163.97457 104.087019 
L 164.263461 104.087019 
L 164.263461 103.975183 
L 164.500549 103.975183 
L 164.578857 103.75151 
L 164.74989 103.75151 
L 164.74989 103.639674 
L 165.298024 103.639674 
L 165.298024 103.527837 
L 166.002695 103.527837 
L 166.002695 103.416001 
L 166.28799 103.416001 
L 166.28799 103.304164 
L 166.803618 103.304164 
L 166.803618 103.192328 
L 167.089534 103.192328 
L 167.089534 103.080491 
L 168.137148 103.080491 
L 168.137148 102.968655 
L 168.38937 102.968655 
L 168.439373 102.744982 
L 168.797611 102.744982 
L 168.822044 102.521309 
L 169.667655 102.521309 
L 169.667655 102.409473 
L 169.887063 102.409473 
L 169.887063 102.297636 
L 170.517909 102.297636 
L 170.517909 102.1858 
L 170.900745 102.1858 
L 170.911559 101.962127 
L 172.754963 101.962127 
L 172.754963 101.85029 
L 174.188955 101.85029 
L 174.188955 101.738454 
L 175.093829 101.738454 
L 175.093829 101.626618 
L 175.279289 101.626618 
L 175.279289 101.514781 
L 175.880726 101.514781 
L 175.880726 101.402945 
L 176.217455 101.402945 
L 176.233326 101.179272 
L 177.129655 101.179272 
L 177.129655 101.067435 
L 178.258736 101.067435 
L 178.300986 100.843762 
L 178.834171 100.843762 
L 178.834171 100.731926 
L 179.191788 100.731926 
L 179.191788 100.62009 
L 180.681272 100.62009 
L 180.681272 100.508253 
L 181.04481 100.508253 
L 181.04481 100.396417 
L 182.304487 100.396417 
L 182.304487 100.28458 
L 182.613703 100.28458 
L 182.684696 100.060907 
L 185.18106 100.060907 
L 185.18106 99.949071 
L 185.335893 99.949071 
L 185.335893 99.837234 
L 187.574973 99.837234 
L 187.574973 99.725398 
L 187.972181 99.725398 
L 188.07604 99.501725 
L 190.253875 99.501725 
L 190.253875 99.389889 
L 190.938279 99.389889 
L 190.938279 99.278052 
L 191.735442 99.278052 
L 191.735442 99.166216 
L 333.168 99.166216 
L 333.168 99.166216 
" style="fill:none;stroke:#ff00ff;stroke-linecap:square;stroke-width:1.5;"/>
   </g>
   <g id="line2d_49">
    <defs>
     <path d="M -0 8.485281 
L 5.091169 0 
L 0 -8.485281 
L -5.091169 -0 
z
" id="m00cd90bf49" style="stroke:#ff00ff;stroke-linejoin:miter;stroke-width:1.5;"/>
    </defs>
    <g>
     <use style="fill:none;stroke:#ff00ff;stroke-linejoin:miter;stroke-width:1.5;" x="123.015063" xlink:href="#m00cd90bf49" y="197.805963"/>
     <use style="fill:none;stroke:#ff00ff;stroke-linejoin:miter;stroke-width:1.5;" x="190.253875" xlink:href="#m00cd90bf49" y="99.389889"/>
     <use style="fill:none;stroke:#ff00ff;stroke-linejoin:miter;stroke-width:1.5;" x="191.735442" xlink:href="#m00cd90bf49" y="99.166216"/>
     <use style="fill:none;stroke:#ff00ff;stroke-linejoin:miter;stroke-width:1.5;" x="191.735442" xlink:href="#m00cd90bf49" y="99.166216"/>
     <use style="fill:none;stroke:#ff00ff;stroke-linejoin:miter;stroke-width:1.5;" x="333.168" xlink:href="#m00cd90bf49" y="99.166216"/>
    </g>
   </g>
   <g id="line2d_50">
    <path style="fill:none;stroke:#ff00ff;stroke-linecap:square;stroke-width:1.5;"/>
    <g/>
   </g>
   <g id="line2d_51">
    <path clip-path="url(#p21b861700e)" d="M 124.685175 187.405173 
" style="fill:none;stroke:#ff00ff;stroke-linecap:square;stroke-width:1.5;"/>
    <defs>
     <path d="M -12 12 
L 12 -12 
M -12 -12 
L 12 12 
" id="m8c1ea3b475" style="stroke:#ff00ff;"/>
    </defs>
    <g clip-path="url(#p21b861700e)">
     <use style="fill:#ff00ff;stroke:#ff00ff;" x="124.685175" xlink:href="#m8c1ea3b475" y="187.405173"/>
    </g>
   </g>
   <g id="line2d_52">
    <path d="M 333.168 99.166216 
L 363.64328 289.176341 
" style="fill:none;stroke:#ff00ff;stroke-linecap:square;stroke-width:1.5;"/>
    <g>
     <use style="fill:none;stroke:#ff00ff;stroke-linejoin:miter;stroke-width:1.5;" x="333.168" xlink:href="#m00cd90bf49" y="99.166216"/>
     <use style="fill:none;stroke:#ff00ff;stroke-linejoin:miter;stroke-width:1.5;" x="363.64328" xlink:href="#m00cd90bf49" y="289.176341"/>
    </g>
   </g>
   <g id="line2d_53">
    <path d="M 333.168 9.697057 
L 363.64328 152.288529 
" style="fill:none;stroke:#000080;stroke-linecap:square;stroke-width:1.5;"/>
    <g>
     <use style="fill:none;stroke:#000080;stroke-width:1.5;" x="333.168" xlink:href="#m9f2651b8e5" y="9.697057"/>
     <use style="fill:none;stroke:#000080;stroke-width:1.5;" x="363.64328" xlink:href="#m9f2651b8e5" y="152.288529"/>
    </g>
   </g>
   <g id="line2d_54">
    <path d="M 333.168 294.88 
L 333.168 9.697057 
" style="fill:none;stroke:#000000;stroke-linecap:square;stroke-width:1.5;"/>
   </g>
   <g id="patch_3">
    <path d="M 56.12 294.88 
L 56.12 6.845228 
" style="fill:none;stroke:#000000;stroke-linecap:square;stroke-linejoin:miter;stroke-width:0.8;"/>
   </g>
   <g id="patch_4">
    <path d="M 333.168 294.88 
L 333.168 6.845228 
" style="fill:none;stroke:#000000;stroke-linecap:square;stroke-linejoin:miter;stroke-width:0.8;"/>
   </g>
   <g id="patch_5">
    <path d="M 56.12 294.88 
L 333.168 294.88 
" style="fill:none;stroke:#000000;stroke-linecap:square;stroke-linejoin:miter;stroke-width:0.8;"/>
   </g>
   <g id="patch_6">
    <path d="M 56.12 6.845228 
L 333.168 6.845228 
" style="fill:none;stroke:#000000;stroke-linecap:square;stroke-linejoin:miter;stroke-width:0.8;"/>
   </g>
   <g id="text_13">
    <!-- scipy-opt -->
    <defs>
     <path d="M 32.171875 -5.078125 
Q 28.375 -14.84375 24.75 -17.8125 
Q 21.140625 -20.796875 15.09375 -20.796875 
L 7.90625 -20.796875 
L 7.90625 -13.28125 
L 13.1875 -13.28125 
Q 16.890625 -13.28125 18.9375 -11.515625 
Q 21 -9.765625 23.484375 -3.21875 
L 25.09375 0.875 
L 2.984375 54.6875 
L 12.5 54.6875 
L 29.59375 11.921875 
L 46.6875 54.6875 
L 56.203125 54.6875 
z
" id="DejaVuSans-79"/>
    </defs>
    <g transform="translate(369.18424 293.867279)scale(0.17 -0.17)">
     <use xlink:href="#DejaVuSans-73"/>
     <use x="52.099609" xlink:href="#DejaVuSans-63"/>
     <use x="107.080078" xlink:href="#DejaVuSans-69"/>
     <use x="134.863281" xlink:href="#DejaVuSans-70"/>
     <use x="198.339844" xlink:href="#DejaVuSans-79"/>
     <use x="257.503906" xlink:href="#DejaVuSans-2d"/>
     <use x="293.603516" xlink:href="#DejaVuSans-6f"/>
     <use x="354.785156" xlink:href="#DejaVuSans-70"/>
     <use x="418.261719" xlink:href="#DejaVuSans-74"/>
    </g>
   </g>
   <g id="text_14">
    <!-- BFGS ros  -->
    <defs>
     <path d="M 19.671875 34.8125 
L 19.671875 8.109375 
L 35.5 8.109375 
Q 43.453125 8.109375 47.28125 11.40625 
Q 51.125 14.703125 51.125 21.484375 
Q 51.125 28.328125 47.28125 31.5625 
Q 43.453125 34.8125 35.5 34.8125 
z
M 19.671875 64.796875 
L 19.671875 42.828125 
L 34.28125 42.828125 
Q 41.5 42.828125 45.03125 45.53125 
Q 48.578125 48.25 48.578125 53.8125 
Q 48.578125 59.328125 45.03125 62.0625 
Q 41.5 64.796875 34.28125 64.796875 
z
M 9.8125 72.90625 
L 35.015625 72.90625 
Q 46.296875 72.90625 52.390625 68.21875 
Q 58.5 63.53125 58.5 54.890625 
Q 58.5 48.1875 55.375 44.234375 
Q 52.25 40.28125 46.1875 39.3125 
Q 53.46875 37.75 57.5 32.78125 
Q 61.53125 27.828125 61.53125 20.40625 
Q 61.53125 10.640625 54.890625 5.3125 
Q 48.25 0 35.984375 0 
L 9.8125 0 
z
" id="DejaVuSans-42"/>
     <path d="M 59.515625 10.40625 
L 59.515625 29.984375 
L 43.40625 29.984375 
L 43.40625 38.09375 
L 69.28125 38.09375 
L 69.28125 6.78125 
Q 63.578125 2.734375 56.6875 0.65625 
Q 49.8125 -1.421875 42 -1.421875 
Q 24.90625 -1.421875 15.25 8.5625 
Q 5.609375 18.5625 5.609375 36.375 
Q 5.609375 54.25 15.25 64.234375 
Q 24.90625 74.21875 42 74.21875 
Q 49.125 74.21875 55.546875 72.453125 
Q 61.96875 70.703125 67.390625 67.28125 
L 67.390625 56.78125 
Q 61.921875 61.421875 55.765625 63.765625 
Q 49.609375 66.109375 42.828125 66.109375 
Q 29.4375 66.109375 22.71875 58.640625 
Q 16.015625 51.171875 16.015625 36.375 
Q 16.015625 21.625 22.71875 14.15625 
Q 29.4375 6.6875 42.828125 6.6875 
Q 48.046875 6.6875 52.140625 7.59375 
Q 56.25 8.5 59.515625 10.40625 
z
" id="DejaVuSans-47"/>
     <path d="M 53.515625 70.515625 
L 53.515625 60.890625 
Q 47.90625 63.578125 42.921875 64.890625 
Q 37.9375 66.21875 33.296875 66.21875 
Q 25.25 66.21875 20.875 63.09375 
Q 16.5 59.96875 16.5 54.203125 
Q 16.5 49.359375 19.40625 46.890625 
Q 22.3125 44.4375 30.421875 42.921875 
L 36.375 41.703125 
Q 47.40625 39.59375 52.65625 34.296875 
Q 57.90625 29 57.90625 20.125 
Q 57.90625 9.515625 50.796875 4.046875 
Q 43.703125 -1.421875 29.984375 -1.421875 
Q 24.8125 -1.421875 18.96875 -0.25 
Q 13.140625 0.921875 6.890625 3.21875 
L 6.890625 13.375 
Q 12.890625 10.015625 18.65625 8.296875 
Q 24.421875 6.59375 29.984375 6.59375 
Q 38.421875 6.59375 43.015625 9.90625 
Q 47.609375 13.234375 47.609375 19.390625 
Q 47.609375 24.75 44.3125 27.78125 
Q 41.015625 30.8125 33.5 32.328125 
L 27.484375 33.5 
Q 16.453125 35.6875 11.515625 40.375 
Q 6.59375 45.0625 6.59375 53.421875 
Q 6.59375 63.09375 13.40625 68.65625 
Q 20.21875 74.21875 32.171875 74.21875 
Q 37.3125 74.21875 42.625 73.28125 
Q 47.953125 72.359375 53.515625 70.515625 
z
" id="DejaVuSans-53"/>
    </defs>
    <g transform="translate(369.18424 156.979466)scale(0.17 -0.17)">
     <use xlink:href="#DejaVuSans-42"/>
     <use x="68.603516" xlink:href="#DejaVuSans-46"/>
     <use x="126.123047" xlink:href="#DejaVuSans-47"/>
     <use x="203.613281" xlink:href="#DejaVuSans-53"/>
     <use x="267.089844" xlink:href="#DejaVuSans-20"/>
     <use x="298.876953" xlink:href="#DejaVuSans-72"/>
     <use x="339.958984" xlink:href="#DejaVuSans-6f"/>
     <use x="401.140625" xlink:href="#DejaVuSans-73"/>
     <use x="453.240234" xlink:href="#DejaVuSans-20"/>
    </g>
   </g>
   <g id="text_15">
    <!-- best 2009 -->
    <defs>
     <path d="M 48.6875 27.296875 
Q 48.6875 37.203125 44.609375 42.84375 
Q 40.53125 48.484375 33.40625 48.484375 
Q 26.265625 48.484375 22.1875 42.84375 
Q 18.109375 37.203125 18.109375 27.296875 
Q 18.109375 17.390625 22.1875 11.75 
Q 26.265625 6.109375 33.40625 6.109375 
Q 40.53125 6.109375 44.609375 11.75 
Q 48.6875 17.390625 48.6875 27.296875 
z
M 18.109375 46.390625 
Q 20.953125 51.265625 25.265625 53.625 
Q 29.59375 56 35.59375 56 
Q 45.5625 56 51.78125 48.09375 
Q 58.015625 40.1875 58.015625 27.296875 
Q 58.015625 14.40625 51.78125 6.484375 
Q 45.5625 -1.421875 35.59375 -1.421875 
Q 29.59375 -1.421875 25.265625 0.953125 
Q 20.953125 3.328125 18.109375 8.203125 
L 18.109375 0 
L 9.078125 0 
L 9.078125 75.984375 
L 18.109375 75.984375 
z
" id="DejaVuSans-62"/>
     <path d="M 10.984375 1.515625 
L 10.984375 10.5 
Q 14.703125 8.734375 18.5 7.8125 
Q 22.3125 6.890625 25.984375 6.890625 
Q 35.75 6.890625 40.890625 13.453125 
Q 46.046875 20.015625 46.78125 33.40625 
Q 43.953125 29.203125 39.59375 26.953125 
Q 35.25 24.703125 29.984375 24.703125 
Q 19.046875 24.703125 12.671875 31.3125 
Q 6.296875 37.9375 6.296875 49.421875 
Q 6.296875 60.640625 12.9375 67.421875 
Q 19.578125 74.21875 30.609375 74.21875 
Q 43.265625 74.21875 49.921875 64.515625 
Q 56.59375 54.828125 56.59375 36.375 
Q 56.59375 19.140625 48.40625 8.859375 
Q 40.234375 -1.421875 26.421875 -1.421875 
Q 22.703125 -1.421875 18.890625 -0.6875 
Q 15.09375 0.046875 10.984375 1.515625 
z
M 30.609375 32.421875 
Q 37.25 32.421875 41.125 36.953125 
Q 45.015625 41.5 45.015625 49.421875 
Q 45.015625 57.28125 41.125 61.84375 
Q 37.25 66.40625 30.609375 66.40625 
Q 23.96875 66.40625 20.09375 61.84375 
Q 16.21875 57.28125 16.21875 49.421875 
Q 16.21875 41.5 20.09375 36.953125 
Q 23.96875 32.421875 30.609375 32.421875 
z
" id="DejaVuSans-39"/>
    </defs>
    <g transform="translate(369.18424 20.091654)scale(0.17 -0.17)">
     <use xlink:href="#DejaVuSans-62"/>
     <use x="63.476562" xlink:href="#DejaVuSans-65"/>
     <use x="125" xlink:href="#DejaVuSans-73"/>
     <use x="177.099609" xlink:href="#DejaVuSans-74"/>
     <use x="216.308594" xlink:href="#DejaVuSans-20"/>
     <use x="248.095703" xlink:href="#DejaVuSans-32"/>
     <use x="311.71875" xlink:href="#DejaVuSans-30"/>
     <use x="375.341797" xlink:href="#DejaVuSans-30"/>
     <use x="438.964844" xlink:href="#DejaVuSans-39"/>
    </g>
   </g>
   <g id="text_16">
    <!-- bbob f1-f5, 2-D -->
    <defs>
     <path d="M 10.796875 72.90625 
L 49.515625 72.90625 
L 49.515625 64.59375 
L 19.828125 64.59375 
L 19.828125 46.734375 
Q 21.96875 47.46875 24.109375 47.828125 
Q 26.265625 48.1875 28.421875 48.1875 
Q 40.625 48.1875 47.75 41.5 
Q 54.890625 34.8125 54.890625 23.390625 
Q 54.890625 11.625 47.5625 5.09375 
Q 40.234375 -1.421875 26.90625 -1.421875 
Q 22.3125 -1.421875 17.546875 -0.640625 
Q 12.796875 0.140625 7.71875 1.703125 
L 7.71875 11.625 
Q 12.109375 9.234375 16.796875 8.0625 
Q 21.484375 6.890625 26.703125 6.890625 
Q 35.15625 6.890625 40.078125 11.328125 
Q 45.015625 15.765625 45.015625 23.390625 
Q 45.015625 31 40.078125 35.4375 
Q 35.15625 39.890625 26.703125 39.890625 
Q 22.75 39.890625 18.8125 39.015625 
Q 14.890625 38.140625 10.796875 36.28125 
z
" id="DejaVuSans-35"/>
     <path d="M 19.671875 64.796875 
L 19.671875 8.109375 
L 31.59375 8.109375 
Q 46.6875 8.109375 53.6875 14.9375 
Q 60.6875 21.78125 60.6875 36.53125 
Q 60.6875 51.171875 53.6875 57.984375 
Q 46.6875 64.796875 31.59375 64.796875 
z
M 9.8125 72.90625 
L 30.078125 72.90625 
Q 51.265625 72.90625 61.171875 64.09375 
Q 71.09375 55.28125 71.09375 36.53125 
Q 71.09375 17.671875 61.125 8.828125 
Q 51.171875 0 30.078125 0 
L 9.8125 0 
z
" id="DejaVuSans-44"/>
    </defs>
    <g transform="translate(58.89048 17.475982)scale(0.102 -0.102)">
     <use xlink:href="#DejaVuSans-62"/>
     <use x="63.476562" xlink:href="#DejaVuSans-62"/>
     <use x="126.953125" xlink:href="#DejaVuSans-6f"/>
     <use x="188.134766" xlink:href="#DejaVuSans-62"/>
     <use x="251.611328" xlink:href="#DejaVuSans-20"/>
     <use x="283.398438" xlink:href="#DejaVuSans-66"/>
     <use x="318.603516" xlink:href="#DejaVuSans-31"/>
     <use x="382.226562" xlink:href="#DejaVuSans-2d"/>
     <use x="418.310547" xlink:href="#DejaVuSans-66"/>
     <use x="453.515625" xlink:href="#DejaVuSans-35"/>
     <use x="517.138672" xlink:href="#DejaVuSans-2c"/>
     <use x="548.925781" xlink:href="#DejaVuSans-20"/>
     <use x="580.712891" xlink:href="#DejaVuSans-32"/>
     <use x="644.335938" xlink:href="#DejaVuSans-2d"/>
     <use x="680.419922" xlink:href="#DejaVuSans-44"/>
    </g>
    <!-- 51 targets: 100..1e-08 -->
    <defs>
     <path d="M 11.71875 12.40625 
L 22.015625 12.40625 
L 22.015625 0 
L 11.71875 0 
z
M 11.71875 51.703125 
L 22.015625 51.703125 
L 22.015625 39.3125 
L 11.71875 39.3125 
z
" id="DejaVuSans-3a"/>
    </defs>
    <g transform="translate(58.89048 28.89775)scale(0.102 -0.102)">
     <use xlink:href="#DejaVuSans-35"/>
     <use x="63.623047" xlink:href="#DejaVuSans-31"/>
     <use x="127.246094" xlink:href="#DejaVuSans-20"/>
     <use x="159.033203" xlink:href="#DejaVuSans-74"/>
     <use x="198.242188" xlink:href="#DejaVuSans-61"/>
     <use x="259.521484" xlink:href="#DejaVuSans-72"/>
     <use x="300.619141" xlink:href="#DejaVuSans-67"/>
     <use x="364.095703" xlink:href="#DejaVuSans-65"/>
     <use x="425.619141" xlink:href="#DejaVuSans-74"/>
     <use x="464.828125" xlink:href="#DejaVuSans-73"/>
     <use x="516.927734" xlink:href="#DejaVuSans-3a"/>
     <use x="550.619141" xlink:href="#DejaVuSans-20"/>
     <use x="582.40625" xlink:href="#DejaVuSans-31"/>
     <use x="646.029297" xlink:href="#DejaVuSans-30"/>
     <use x="709.652344" xlink:href="#DejaVuSans-30"/>
     <use x="773.275391" xlink:href="#DejaVuSans-2e"/>
     <use x="805.0625" xlink:href="#DejaVuSans-2e"/>
     <use x="836.849609" xlink:href="#DejaVuSans-31"/>
     <use x="900.472656" xlink:href="#DejaVuSans-65"/>
     <use x="961.996094" xlink:href="#DejaVuSans-2d"/>
     <use x="998.080078" xlink:href="#DejaVuSans-30"/>
     <use x="1061.703125" xlink:href="#DejaVuSans-38"/>
    </g>
    <!-- 15 instances -->
    <g transform="translate(58.89048 40.319519)scale(0.102 -0.102)">
     <use xlink:href="#DejaVuSans-31"/>
     <use x="63.623047" xlink:href="#DejaVuSans-35"/>
     <use x="127.246094" xlink:href="#DejaVuSans-20"/>
     <use x="159.033203" xlink:href="#DejaVuSans-69"/>
     <use x="186.816406" xlink:href="#DejaVuSans-6e"/>
     <use x="250.195312" xlink:href="#DejaVuSans-73"/>
     <use x="302.294922" xlink:href="#DejaVuSans-74"/>
     <use x="341.503906" xlink:href="#DejaVuSans-61"/>
     <use x="402.783203" xlink:href="#DejaVuSans-6e"/>
     <use x="466.162109" xlink:href="#DejaVuSans-63"/>
     <use x="521.142578" xlink:href="#DejaVuSans-65"/>
     <use x="582.666016" xlink:href="#DejaVuSans-73"/>
    </g>
   </g>
   <g id="text_17">
    <!-- v0.0.0 -->
    <g style="fill:#808080;" transform="translate(178.96275 289.919965)scale(0.1 -0.1)">
     <use xlink:href="#DejaVuSans-76"/>
     <use x="59.179688" xlink:href="#DejaVuSans-30"/>
     <use x="122.802734" xlink:href="#DejaVuSans-2e"/>
     <use x="154.589844" xlink:href="#DejaVuSans-30"/>
     <use x="218.212891" xlink:href="#DejaVuSans-2e"/>
     <use x="250" xlink:href="#DejaVuSans-30"/>
    </g>
   </g>
  </g>
 </g>
 <defs>
  <clipPath id="p21b861700e">
   <rect height="288.034772" width="277.048" x="56.12" y="6.845228"/>
  </clipPath>
 </defs>
</svg>
