<?xml version="1.0" encoding="utf-8" standalone="no"?>
<!DOCTYPE svg PUBLIC "-//W3C//DTD SVG 1.1//EN"
  "http://www.w3.org/Graphics/SVG/1.1/DTD/svg11.dtd">
<!-- Created with matplotlib (http://matplotlib.org/) -->
<svg height="345pt" version="1.1" viewBox="0 0 460 345" width="460pt" xmlns="http://www.w3.org/2000/svg" xmlns:xlink="http://www.w3.org/1999/xlink">
 <defs>
  <style type="text/css">
*{stroke-linecap:butt;stroke-linejoin:round;}
  </style>
 </defs>
 <g id="figure_1">
  <g id="patch_1">
   <path d="M 0 345.6 
L 460.8 345.6 
L 460.8 0 
L 0 0 
z
" style="fill:#ffffff;"/>
  </g>
  <g id="axes_1">
   <g id="patch_2">
    <path d="M 56.12 294.88 
L 333.168 294.88 
L 333.168 6.845228 
L 56.12 6.845228 
z
" style="fill:#ffffff;"/>
   </g>
   <g id="line2d_1">
    <path d="M 44.205749 294.88 
L 44.205749 286.492266 
L 56.12 286.492266 
L 56.12 279.502488 
L 63.08939 279.502488 
L 63.08939 272.51271 
L 71.869783 272.51271 
L 71.869783 262.727021 
L 75.003641 262.727021 
L 75.003641 261.329066 
L 77.653281 261.329066 
L 77.653281 259.93111 
L 83.784035 259.93111 
L 83.784035 258.533154 
L 86.917893 258.533154 
L 86.917893 252.941332 
L 88.293717 252.941332 
L 88.293717 250.145421 
L 89.567532 250.145421 
L 89.567532 247.34951 
L 90.753425 247.34951 
L 90.753425 244.553598 
L 91.862754 244.553598 
L 91.862754 243.155643 
L 92.904808 243.155643 
L 92.904808 241.757687 
L 93.887283 241.757687 
L 93.887283 236.165865 
L 94.816624 236.165865 
L 94.816624 233.369954 
L 95.698286 233.369954 
L 95.698286 230.574042 
L 96.536922 230.574042 
L 96.536922 226.380175 
L 98.100602 226.380175 
L 98.100602 224.98222 
L 100.856673 224.98222 
L 100.856673 222.186309 
L 102.667676 222.186309 
L 102.667676 220.788353 
L 103.231288 220.788353 
L 103.231288 219.390397 
L 103.777005 219.390397 
L 103.777005 217.992442 
L 105.317315 217.992442 
L 105.317315 215.196531 
L 106.272485 215.196531 
L 106.272485 213.798575 
L 106.730875 213.798575 
L 106.730875 211.002664 
L 107.177358 211.002664 
L 107.177358 209.604708 
L 108.036969 209.604708 
L 108.036969 206.808797 
L 108.451173 206.808797 
L 108.451173 205.410841 
L 108.85563 205.410841 
L 108.85563 202.61493 
L 109.250788 202.61493 
L 109.250788 197.023108 
L 109.637066 197.023108 
L 109.637066 195.625152 
L 110.014853 195.625152 
L 110.014853 190.03333 
L 110.384516 190.03333 
L 110.384516 185.839463 
L 111.100812 185.839463 
L 111.100812 184.441507 
L 111.448069 184.441507 
L 111.448069 181.645596 
L 112.122219 181.645596 
L 112.122219 180.247641 
L 112.770924 180.247641 
L 112.770924 178.849685 
L 114.293036 178.849685 
L 114.293036 177.451729 
L 114.581927 177.451729 
L 114.581927 176.053774 
L 114.866043 176.053774 
L 114.866043 174.655818 
L 115.420563 174.655818 
L 115.420563 173.257863 
L 115.957752 173.257863 
L 115.957752 171.859907 
L 116.220179 171.859907 
L 116.220179 170.461951 
L 116.478659 170.461951 
L 116.478659 169.063996 
L 116.73331 169.063996 
L 116.73331 167.66604 
L 116.984244 167.66604 
L 116.984244 166.268085 
L 117.715785 166.268085 
L 117.715785 163.472173 
L 117.952873 163.472173 
L 117.952873 160.676262 
L 118.645127 160.676262 
L 118.645127 159.278307 
L 118.869818 159.278307 
L 118.869818 156.482395 
L 119.09161 156.482395 
L 119.09161 153.686484 
L 119.526788 153.686484 
L 119.526788 146.696706 
L 119.740314 146.696706 
L 119.740314 141.104884 
L 119.95122 141.104884 
L 119.95122 138.308973 
L 120.365424 138.308973 
L 120.365424 136.911017 
L 120.568842 136.911017 
L 120.568842 135.513061 
L 120.769881 135.513061 
L 120.769881 131.319195 
L 121.16504 131.319195 
L 121.16504 129.921239 
L 121.359263 129.921239 
L 121.359263 122.931461 
L 121.551317 122.931461 
L 121.551317 118.737594 
L 121.741249 118.737594 
L 121.741249 115.941683 
L 121.929105 115.941683 
L 121.929105 108.951905 
L 122.114929 108.951905 
L 122.114929 104.758038 
L 122.298767 104.758038 
L 122.298767 97.76826 
L 122.480659 97.76826 
L 122.480659 94.972349 
L 122.660646 94.972349 
L 122.660646 92.176438 
L 123.015063 92.176438 
L 123.015063 90.778482 
L 123.36232 90.778482 
L 123.36232 87.982571 
L 123.870396 87.982571 
L 123.870396 85.18666 
L 124.363883 85.18666 
L 124.363883 82.390748 
L 124.52528 82.390748 
L 124.52528 79.594837 
L 125.000572 79.594837 
L 125.000572 76.798926 
L 125.310285 76.798926 
L 125.310285 71.207104 
L 125.614517 71.207104 
L 125.614517 67.013237 
L 125.913457 67.013237 
L 125.913457 65.615281 
L 126.207287 65.615281 
L 126.207287 64.217326 
L 126.638823 64.217326 
L 126.638823 62.81937 
L 127.05979 62.81937 
L 127.05979 61.421414 
L 127.197852 61.421414 
L 127.197852 60.023459 
L 127.334814 60.023459 
L 127.334814 58.625503 
L 127.872003 58.625503 
L 127.872003 57.227548 
L 128.264156 57.227548 
L 128.264156 55.829592 
L 128.647561 55.829592 
L 128.647561 54.431636 
L 134.213018 54.431636 
L 134.213018 53.033681 
L 134.664189 53.033681 
L 134.664189 51.635725 
L 135.784647 51.635725 
L 135.784647 50.23777 
L 136.519665 50.23777 
L 136.519665 48.839814 
L 136.67882 48.839814 
L 136.67882 22.278658 
L 137.14763 22.278658 
L 137.14763 20.880702 
L 137.603992 20.880702 
L 137.603992 19.482746 
L 138.04855 19.482746 
L 138.04855 18.084791 
L 138.4819 18.084791 
L 138.4819 16.686835 
L 138.623956 16.686835 
L 138.623956 15.28888 
L 139.112104 15.28888 
L 139.112104 13.890924 
L 139.317139 13.890924 
L 139.317139 12.492968 
L 139.519758 12.492968 
L 139.519758 11.095013 
L 139.653523 11.095013 
L 139.653523 9.697057 
L 333.168 9.697057 
L 333.168 9.697057 
" style="fill:none;stroke:#f5deb3;stroke-linecap:square;stroke-width:4;"/>
   </g>
   <g id="line2d_2">
    <defs>
     <path d="M -0 7.778175 
L 7.778175 0 
L 0 -7.778175 
L -7.778175 -0 
z
" id="mf22424794e" style="stroke:#f5deb3;stroke-linejoin:miter;stroke-width:1.5;"/>
    </defs>
    <g>
     <use style="fill:#f5deb3;stroke:#f5deb3;stroke-linejoin:miter;stroke-width:1.5;" x="89.567532" xlink:href="#mf22424794e" y="250.145421"/>
     <use style="fill:#f5deb3;stroke:#f5deb3;stroke-linejoin:miter;stroke-width:1.5;" x="119.95122" xlink:href="#mf22424794e" y="141.104884"/>
     <use style="fill:#f5deb3;stroke:#f5deb3;stroke-linejoin:miter;stroke-width:1.5;" x="139.112104" xlink:href="#mf22424794e" y="13.890924"/>
     <use style="fill:#f5deb3;stroke:#f5deb3;stroke-linejoin:miter;stroke-width:1.5;" x="139.653523" xlink:href="#mf22424794e" y="9.697057"/>
     <use style="fill:#f5deb3;stroke:#f5deb3;stroke-linejoin:miter;stroke-width:1.5;" x="139.653523" xlink:href="#mf22424794e" y="9.697057"/>
     <use style="fill:#f5deb3;stroke:#f5deb3;stroke-linejoin:miter;stroke-width:1.5;" x="333.168" xlink:href="#mf22424794e" y="9.697057"/>
    </g>
   </g>
   <g id="line2d_3">
    <path style="fill:none;stroke:#f5deb3;stroke-linecap:square;stroke-width:4;"/>
    <g/>
   </g>
   <g id="line2d_4">
    <path d="M 333.168 9.697057 
L 363.64328 15.400716 
" style="fill:none;stroke:#f5deb3;stroke-linecap:square;stroke-width:4;"/>
    <g>
     <use style="fill:#f5deb3;stroke:#f5deb3;stroke-linejoin:miter;stroke-width:1.5;" x="333.168" xlink:href="#mf22424794e" y="9.697057"/>
     <use style="fill:#f5deb3;stroke:#f5deb3;stroke-linejoin:miter;stroke-width:1.5;" x="363.64328" xlink:href="#mf22424794e" y="15.400716"/>
    </g>
   </g>
   <g id="matplotlib.axis_1">
    <g id="xtick_1">
     <g id="line2d_5">
      <path clip-path="url(#p52307941b0)" d="M 56.12 294.88 
L 56.12 6.845228 
" style="fill:none;stroke:#b0b0b0;stroke-linecap:square;stroke-width:0.8;"/>
     </g>
     <g id="line2d_6">
      <defs>
       <path d="M 0 0 
L 0 3.5 
" id="m486888054c" style="stroke:#000000;stroke-width:0.8;"/>
      </defs>
      <g>
       <use style="stroke:#000000;stroke-width:0.8;" x="56.12" xlink:href="#m486888054c" y="294.88"/>
      </g>
     </g>
     <g id="text_1">
      <!-- 0 -->
      <defs>
       <path d="M 31.78125 66.40625 
Q 24.171875 66.40625 20.328125 58.90625 
Q 16.5 51.421875 16.5 36.375 
Q 16.5 21.390625 20.328125 13.890625 
Q 24.171875 6.390625 31.78125 6.390625 
Q 39.453125 6.390625 43.28125 13.890625 
Q 47.125 21.390625 47.125 36.375 
Q 47.125 51.421875 43.28125 58.90625 
Q 39.453125 66.40625 31.78125 66.40625 
z
M 31.78125 74.21875 
Q 44.046875 74.21875 50.515625 64.515625 
Q 56.984375 54.828125 56.984375 36.375 
Q 56.984375 17.96875 50.515625 8.265625 
Q 44.046875 -1.421875 31.78125 -1.421875 
Q 19.53125 -1.421875 13.0625 8.265625 
Q 6.59375 17.96875 6.59375 36.375 
Q 6.59375 54.828125 13.0625 64.515625 
Q 19.53125 74.21875 31.78125 74.21875 
z
" id="DejaVuSans-30"/>
      </defs>
      <g transform="translate(49.7575 317.076875)scale(0.2 -0.2)">
       <use xlink:href="#DejaVuSans-30"/>
      </g>
     </g>
    </g>
    <g id="xtick_2">
     <g id="line2d_7">
      <path clip-path="url(#p52307941b0)" d="M 135.276571 294.88 
L 135.276571 6.845228 
" style="fill:none;stroke:#b0b0b0;stroke-linecap:square;stroke-width:0.8;"/>
     </g>
     <g id="line2d_8">
      <g>
       <use style="stroke:#000000;stroke-width:0.8;" x="135.276571" xlink:href="#m486888054c" y="294.88"/>
      </g>
     </g>
     <g id="text_2">
      <!-- 2 -->
      <defs>
       <path d="M 19.1875 8.296875 
L 53.609375 8.296875 
L 53.609375 0 
L 7.328125 0 
L 7.328125 8.296875 
Q 12.9375 14.109375 22.625 23.890625 
Q 32.328125 33.6875 34.8125 36.53125 
Q 39.546875 41.84375 41.421875 45.53125 
Q 43.3125 49.21875 43.3125 52.78125 
Q 43.3125 58.59375 39.234375 62.25 
Q 35.15625 65.921875 28.609375 65.921875 
Q 23.96875 65.921875 18.8125 64.3125 
Q 13.671875 62.703125 7.8125 59.421875 
L 7.8125 69.390625 
Q 13.765625 71.78125 18.9375 73 
Q 24.125 74.21875 28.421875 74.21875 
Q 39.75 74.21875 46.484375 68.546875 
Q 53.21875 62.890625 53.21875 53.421875 
Q 53.21875 48.921875 51.53125 44.890625 
Q 49.859375 40.875 45.40625 35.40625 
Q 44.1875 33.984375 37.640625 27.21875 
Q 31.109375 20.453125 19.1875 8.296875 
z
" id="DejaVuSans-32"/>
      </defs>
      <g transform="translate(128.914071 317.076875)scale(0.2 -0.2)">
       <use xlink:href="#DejaVuSans-32"/>
      </g>
     </g>
    </g>
    <g id="xtick_3">
     <g id="line2d_9">
      <path clip-path="url(#p52307941b0)" d="M 214.433143 294.88 
L 214.433143 6.845228 
" style="fill:none;stroke:#b0b0b0;stroke-linecap:square;stroke-width:0.8;"/>
     </g>
     <g id="line2d_10">
      <g>
       <use style="stroke:#000000;stroke-width:0.8;" x="214.433143" xlink:href="#m486888054c" y="294.88"/>
      </g>
     </g>
     <g id="text_3">
      <!-- 4 -->
      <defs>
       <path d="M 37.796875 64.3125 
L 12.890625 25.390625 
L 37.796875 25.390625 
z
M 35.203125 72.90625 
L 47.609375 72.90625 
L 47.609375 25.390625 
L 58.015625 25.390625 
L 58.015625 17.1875 
L 47.609375 17.1875 
L 47.609375 0 
L 37.796875 0 
L 37.796875 17.1875 
L 4.890625 17.1875 
L 4.890625 26.703125 
z
" id="DejaVuSans-34"/>
      </defs>
      <g transform="translate(208.070643 317.076875)scale(0.2 -0.2)">
       <use xlink:href="#DejaVuSans-34"/>
      </g>
     </g>
    </g>
    <g id="xtick_4">
     <g id="line2d_11">
      <path clip-path="url(#p52307941b0)" d="M 293.589714 294.88 
L 293.589714 6.845228 
" style="fill:none;stroke:#b0b0b0;stroke-linecap:square;stroke-width:0.8;"/>
     </g>
     <g id="line2d_12">
      <g>
       <use style="stroke:#000000;stroke-width:0.8;" x="293.589714" xlink:href="#m486888054c" y="294.88"/>
      </g>
     </g>
     <g id="text_4">
      <!-- 6 -->
      <defs>
       <path d="M 33.015625 40.375 
Q 26.375 40.375 22.484375 35.828125 
Q 18.609375 31.296875 18.609375 23.390625 
Q 18.609375 15.53125 22.484375 10.953125 
Q 26.375 6.390625 33.015625 6.390625 
Q 39.65625 6.390625 43.53125 10.953125 
Q 47.40625 15.53125 47.40625 23.390625 
Q 47.40625 31.296875 43.53125 35.828125 
Q 39.65625 40.375 33.015625 40.375 
z
M 52.59375 71.296875 
L 52.59375 62.3125 
Q 48.875 64.0625 45.09375 64.984375 
Q 41.3125 65.921875 37.59375 65.921875 
Q 27.828125 65.921875 22.671875 59.328125 
Q 17.53125 52.734375 16.796875 39.40625 
Q 19.671875 43.65625 24.015625 45.921875 
Q 28.375 48.1875 33.59375 48.1875 
Q 44.578125 48.1875 50.953125 41.515625 
Q 57.328125 34.859375 57.328125 23.390625 
Q 57.328125 12.15625 50.6875 5.359375 
Q 44.046875 -1.421875 33.015625 -1.421875 
Q 20.359375 -1.421875 13.671875 8.265625 
Q 6.984375 17.96875 6.984375 36.375 
Q 6.984375 53.65625 15.1875 63.9375 
Q 23.390625 74.21875 37.203125 74.21875 
Q 40.921875 74.21875 44.703125 73.484375 
Q 48.484375 72.75 52.59375 71.296875 
z
" id="DejaVuSans-36"/>
      </defs>
      <g transform="translate(287.227214 317.076875)scale(0.2 -0.2)">
       <use xlink:href="#DejaVuSans-36"/>
      </g>
     </g>
    </g>
    <g id="xtick_5">
     <g id="line2d_13">
      <path clip-path="url(#p52307941b0)" d="M 56.12 294.88 
L 56.12 6.845228 
" style="fill:none;stroke:#b0b0b0;stroke-linecap:square;stroke-width:0.8;"/>
     </g>
     <g id="line2d_14">
      <defs>
       <path d="M 0 0 
L 0 2 
" id="md038ce307d" style="stroke:#000000;stroke-width:0.6;"/>
      </defs>
      <g>
       <use style="stroke:#000000;stroke-width:0.6;" x="56.12" xlink:href="#md038ce307d" y="294.88"/>
      </g>
     </g>
    </g>
    <g id="xtick_6">
     <g id="line2d_15">
      <path clip-path="url(#p52307941b0)" d="M 95.698286 294.88 
L 95.698286 6.845228 
" style="fill:none;stroke:#b0b0b0;stroke-linecap:square;stroke-width:0.8;"/>
     </g>
     <g id="line2d_16">
      <g>
       <use style="stroke:#000000;stroke-width:0.6;" x="95.698286" xlink:href="#md038ce307d" y="294.88"/>
      </g>
     </g>
    </g>
    <g id="xtick_7">
     <g id="line2d_17">
      <path clip-path="url(#p52307941b0)" d="M 135.276571 294.88 
L 135.276571 6.845228 
" style="fill:none;stroke:#b0b0b0;stroke-linecap:square;stroke-width:0.8;"/>
     </g>
     <g id="line2d_18">
      <g>
       <use style="stroke:#000000;stroke-width:0.6;" x="135.276571" xlink:href="#md038ce307d" y="294.88"/>
      </g>
     </g>
    </g>
    <g id="xtick_8">
     <g id="line2d_19">
      <path clip-path="url(#p52307941b0)" d="M 174.854857 294.88 
L 174.854857 6.845228 
" style="fill:none;stroke:#b0b0b0;stroke-linecap:square;stroke-width:0.8;"/>
     </g>
     <g id="line2d_20">
      <g>
       <use style="stroke:#000000;stroke-width:0.6;" x="174.854857" xlink:href="#md038ce307d" y="294.88"/>
      </g>
     </g>
    </g>
    <g id="xtick_9">
     <g id="line2d_21">
      <path clip-path="url(#p52307941b0)" d="M 214.433143 294.88 
L 214.433143 6.845228 
" style="fill:none;stroke:#b0b0b0;stroke-linecap:square;stroke-width:0.8;"/>
     </g>
     <g id="line2d_22">
      <g>
       <use style="stroke:#000000;stroke-width:0.6;" x="214.433143" xlink:href="#md038ce307d" y="294.88"/>
      </g>
     </g>
    </g>
    <g id="xtick_10">
     <g id="line2d_23">
      <path clip-path="url(#p52307941b0)" d="M 254.011429 294.88 
L 254.011429 6.845228 
" style="fill:none;stroke:#b0b0b0;stroke-linecap:square;stroke-width:0.8;"/>
     </g>
     <g id="line2d_24">
      <g>
       <use style="stroke:#000000;stroke-width:0.6;" x="254.011429" xlink:href="#md038ce307d" y="294.88"/>
      </g>
     </g>
    </g>
    <g id="xtick_11">
     <g id="line2d_25">
      <path clip-path="url(#p52307941b0)" d="M 293.589714 294.88 
L 293.589714 6.845228 
" style="fill:none;stroke:#b0b0b0;stroke-linecap:square;stroke-width:0.8;"/>
     </g>
     <g id="line2d_26">
      <g>
       <use style="stroke:#000000;stroke-width:0.6;" x="293.589714" xlink:href="#md038ce307d" y="294.88"/>
      </g>
     </g>
    </g>
    <g id="xtick_12">
     <g id="line2d_27">
      <path clip-path="url(#p52307941b0)" d="M 333.168 294.88 
L 333.168 6.845228 
" style="fill:none;stroke:#b0b0b0;stroke-linecap:square;stroke-width:0.8;"/>
     </g>
     <g id="line2d_28">
      <g>
       <use style="stroke:#000000;stroke-width:0.6;" x="333.168" xlink:href="#md038ce307d" y="294.88"/>
      </g>
     </g>
    </g>
    <g id="text_5">
     <!-- log10(# f-evals / dimension) -->
     <defs>
      <path d="M 9.421875 75.984375 
L 18.40625 75.984375 
L 18.40625 0 
L 9.421875 0 
z
" id="DejaVuSans-6c"/>
      <path d="M 30.609375 48.390625 
Q 23.390625 48.390625 19.1875 42.75 
Q 14.984375 37.109375 14.984375 27.296875 
Q 14.984375 17.484375 19.15625 11.84375 
Q 23.34375 6.203125 30.609375 6.203125 
Q 37.796875 6.203125 41.984375 11.859375 
Q 46.1875 17.53125 46.1875 27.296875 
Q 46.1875 37.015625 41.984375 42.703125 
Q 37.796875 48.390625 30.609375 48.390625 
z
M 30.609375 56 
Q 42.328125 56 49.015625 48.375 
Q 55.71875 40.765625 55.71875 27.296875 
Q 55.71875 13.875 49.015625 6.21875 
Q 42.328125 -1.421875 30.609375 -1.421875 
Q 18.84375 -1.421875 12.171875 6.21875 
Q 5.515625 13.875 5.515625 27.296875 
Q 5.515625 40.765625 12.171875 48.375 
Q 18.84375 56 30.609375 56 
z
" id="DejaVuSans-6f"/>
      <path d="M 45.40625 27.984375 
Q 45.40625 37.75 41.375 43.109375 
Q 37.359375 48.484375 30.078125 48.484375 
Q 22.859375 48.484375 18.828125 43.109375 
Q 14.796875 37.75 14.796875 27.984375 
Q 14.796875 18.265625 18.828125 12.890625 
Q 22.859375 7.515625 30.078125 7.515625 
Q 37.359375 7.515625 41.375 12.890625 
Q 45.40625 18.265625 45.40625 27.984375 
z
M 54.390625 6.78125 
Q 54.390625 -7.171875 48.1875 -13.984375 
Q 42 -20.796875 29.203125 -20.796875 
Q 24.46875 -20.796875 20.265625 -20.09375 
Q 16.0625 -19.390625 12.109375 -17.921875 
L 12.109375 -9.1875 
Q 16.0625 -11.328125 19.921875 -12.34375 
Q 23.78125 -13.375 27.78125 -13.375 
Q 36.625 -13.375 41.015625 -8.765625 
Q 45.40625 -4.15625 45.40625 5.171875 
L 45.40625 9.625 
Q 42.625 4.78125 38.28125 2.390625 
Q 33.9375 0 27.875 0 
Q 17.828125 0 11.671875 7.65625 
Q 5.515625 15.328125 5.515625 27.984375 
Q 5.515625 40.671875 11.671875 48.328125 
Q 17.828125 56 27.875 56 
Q 33.9375 56 38.28125 53.609375 
Q 42.625 51.21875 45.40625 46.390625 
L 45.40625 54.6875 
L 54.390625 54.6875 
z
" id="DejaVuSans-67"/>
      <path d="M 12.40625 8.296875 
L 28.515625 8.296875 
L 28.515625 63.921875 
L 10.984375 60.40625 
L 10.984375 69.390625 
L 28.421875 72.90625 
L 38.28125 72.90625 
L 38.28125 8.296875 
L 54.390625 8.296875 
L 54.390625 0 
L 12.40625 0 
z
" id="DejaVuSans-31"/>
      <path d="M 31 75.875 
Q 24.46875 64.65625 21.28125 53.65625 
Q 18.109375 42.671875 18.109375 31.390625 
Q 18.109375 20.125 21.3125 9.0625 
Q 24.515625 -2 31 -13.1875 
L 23.1875 -13.1875 
Q 15.875 -1.703125 12.234375 9.375 
Q 8.59375 20.453125 8.59375 31.390625 
Q 8.59375 42.28125 12.203125 53.3125 
Q 15.828125 64.359375 23.1875 75.875 
z
" id="DejaVuSans-28"/>
      <path d="M 51.125 44 
L 36.921875 44 
L 32.8125 27.6875 
L 47.125 27.6875 
z
M 43.796875 71.78125 
L 38.71875 51.515625 
L 52.984375 51.515625 
L 58.109375 71.78125 
L 65.921875 71.78125 
L 60.890625 51.515625 
L 76.125 51.515625 
L 76.125 44 
L 58.984375 44 
L 54.984375 27.6875 
L 70.515625 27.6875 
L 70.515625 20.21875 
L 53.078125 20.21875 
L 48 0 
L 40.1875 0 
L 45.21875 20.21875 
L 30.90625 20.21875 
L 25.875 0 
L 18.015625 0 
L 23.09375 20.21875 
L 7.71875 20.21875 
L 7.71875 27.6875 
L 24.90625 27.6875 
L 29 44 
L 13.28125 44 
L 13.28125 51.515625 
L 30.90625 51.515625 
L 35.890625 71.78125 
z
" id="DejaVuSans-23"/>
      <path id="DejaVuSans-20"/>
      <path d="M 37.109375 75.984375 
L 37.109375 68.5 
L 28.515625 68.5 
Q 23.6875 68.5 21.796875 66.546875 
Q 19.921875 64.59375 19.921875 59.515625 
L 19.921875 54.6875 
L 34.71875 54.6875 
L 34.71875 47.703125 
L 19.921875 47.703125 
L 19.921875 0 
L 10.890625 0 
L 10.890625 47.703125 
L 2.296875 47.703125 
L 2.296875 54.6875 
L 10.890625 54.6875 
L 10.890625 58.5 
Q 10.890625 67.625 15.140625 71.796875 
Q 19.390625 75.984375 28.609375 75.984375 
z
" id="DejaVuSans-66"/>
      <path d="M 4.890625 31.390625 
L 31.203125 31.390625 
L 31.203125 23.390625 
L 4.890625 23.390625 
z
" id="DejaVuSans-2d"/>
      <path d="M 56.203125 29.59375 
L 56.203125 25.203125 
L 14.890625 25.203125 
Q 15.484375 15.921875 20.484375 11.0625 
Q 25.484375 6.203125 34.421875 6.203125 
Q 39.59375 6.203125 44.453125 7.46875 
Q 49.3125 8.734375 54.109375 11.28125 
L 54.109375 2.78125 
Q 49.265625 0.734375 44.1875 -0.34375 
Q 39.109375 -1.421875 33.890625 -1.421875 
Q 20.796875 -1.421875 13.15625 6.1875 
Q 5.515625 13.8125 5.515625 26.8125 
Q 5.515625 40.234375 12.765625 48.109375 
Q 20.015625 56 32.328125 56 
Q 43.359375 56 49.78125 48.890625 
Q 56.203125 41.796875 56.203125 29.59375 
z
M 47.21875 32.234375 
Q 47.125 39.59375 43.09375 43.984375 
Q 39.0625 48.390625 32.421875 48.390625 
Q 24.90625 48.390625 20.390625 44.140625 
Q 15.875 39.890625 15.1875 32.171875 
z
" id="DejaVuSans-65"/>
      <path d="M 2.984375 54.6875 
L 12.5 54.6875 
L 29.59375 8.796875 
L 46.6875 54.6875 
L 56.203125 54.6875 
L 35.6875 0 
L 23.484375 0 
z
" id="DejaVuSans-76"/>
      <path d="M 34.28125 27.484375 
Q 23.390625 27.484375 19.1875 25 
Q 14.984375 22.515625 14.984375 16.5 
Q 14.984375 11.71875 18.140625 8.90625 
Q 21.296875 6.109375 26.703125 6.109375 
Q 34.1875 6.109375 38.703125 11.40625 
Q 43.21875 16.703125 43.21875 25.484375 
L 43.21875 27.484375 
z
M 52.203125 31.203125 
L 52.203125 0 
L 43.21875 0 
L 43.21875 8.296875 
Q 40.140625 3.328125 35.546875 0.953125 
Q 30.953125 -1.421875 24.3125 -1.421875 
Q 15.921875 -1.421875 10.953125 3.296875 
Q 6 8.015625 6 15.921875 
Q 6 25.140625 12.171875 29.828125 
Q 18.359375 34.515625 30.609375 34.515625 
L 43.21875 34.515625 
L 43.21875 35.40625 
Q 43.21875 41.609375 39.140625 45 
Q 35.0625 48.390625 27.6875 48.390625 
Q 23 48.390625 18.546875 47.265625 
Q 14.109375 46.140625 10.015625 43.890625 
L 10.015625 52.203125 
Q 14.9375 54.109375 19.578125 55.046875 
Q 24.21875 56 28.609375 56 
Q 40.484375 56 46.34375 49.84375 
Q 52.203125 43.703125 52.203125 31.203125 
z
" id="DejaVuSans-61"/>
      <path d="M 44.28125 53.078125 
L 44.28125 44.578125 
Q 40.484375 46.53125 36.375 47.5 
Q 32.28125 48.484375 27.875 48.484375 
Q 21.1875 48.484375 17.84375 46.4375 
Q 14.5 44.390625 14.5 40.28125 
Q 14.5 37.15625 16.890625 35.375 
Q 19.28125 33.59375 26.515625 31.984375 
L 29.59375 31.296875 
Q 39.15625 29.25 43.1875 25.515625 
Q 47.21875 21.78125 47.21875 15.09375 
Q 47.21875 7.46875 41.1875 3.015625 
Q 35.15625 -1.421875 24.609375 -1.421875 
Q 20.21875 -1.421875 15.453125 -0.5625 
Q 10.6875 0.296875 5.421875 2 
L 5.421875 11.28125 
Q 10.40625 8.6875 15.234375 7.390625 
Q 20.0625 6.109375 24.8125 6.109375 
Q 31.15625 6.109375 34.5625 8.28125 
Q 37.984375 10.453125 37.984375 14.40625 
Q 37.984375 18.0625 35.515625 20.015625 
Q 33.0625 21.96875 24.703125 23.78125 
L 21.578125 24.515625 
Q 13.234375 26.265625 9.515625 29.90625 
Q 5.8125 33.546875 5.8125 39.890625 
Q 5.8125 47.609375 11.28125 51.796875 
Q 16.75 56 26.8125 56 
Q 31.78125 56 36.171875 55.265625 
Q 40.578125 54.546875 44.28125 53.078125 
z
" id="DejaVuSans-73"/>
      <path d="M 25.390625 72.90625 
L 33.6875 72.90625 
L 8.296875 -9.28125 
L 0 -9.28125 
z
" id="DejaVuSans-2f"/>
      <path d="M 45.40625 46.390625 
L 45.40625 75.984375 
L 54.390625 75.984375 
L 54.390625 0 
L 45.40625 0 
L 45.40625 8.203125 
Q 42.578125 3.328125 38.25 0.953125 
Q 33.9375 -1.421875 27.875 -1.421875 
Q 17.96875 -1.421875 11.734375 6.484375 
Q 5.515625 14.40625 5.515625 27.296875 
Q 5.515625 40.1875 11.734375 48.09375 
Q 17.96875 56 27.875 56 
Q 33.9375 56 38.25 53.625 
Q 42.578125 51.265625 45.40625 46.390625 
z
M 14.796875 27.296875 
Q 14.796875 17.390625 18.875 11.75 
Q 22.953125 6.109375 30.078125 6.109375 
Q 37.203125 6.109375 41.296875 11.75 
Q 45.40625 17.390625 45.40625 27.296875 
Q 45.40625 37.203125 41.296875 42.84375 
Q 37.203125 48.484375 30.078125 48.484375 
Q 22.953125 48.484375 18.875 42.84375 
Q 14.796875 37.203125 14.796875 27.296875 
z
" id="DejaVuSans-64"/>
      <path d="M 9.421875 54.6875 
L 18.40625 54.6875 
L 18.40625 0 
L 9.421875 0 
z
M 9.421875 75.984375 
L 18.40625 75.984375 
L 18.40625 64.59375 
L 9.421875 64.59375 
z
" id="DejaVuSans-69"/>
      <path d="M 52 44.1875 
Q 55.375 50.25 60.0625 53.125 
Q 64.75 56 71.09375 56 
Q 79.640625 56 84.28125 50.015625 
Q 88.921875 44.046875 88.921875 33.015625 
L 88.921875 0 
L 79.890625 0 
L 79.890625 32.71875 
Q 79.890625 40.578125 77.09375 44.375 
Q 74.3125 48.1875 68.609375 48.1875 
Q 61.625 48.1875 57.5625 43.546875 
Q 53.515625 38.921875 53.515625 30.90625 
L 53.515625 0 
L 44.484375 0 
L 44.484375 32.71875 
Q 44.484375 40.625 41.703125 44.40625 
Q 38.921875 48.1875 33.109375 48.1875 
Q 26.21875 48.1875 22.15625 43.53125 
Q 18.109375 38.875 18.109375 30.90625 
L 18.109375 0 
L 9.078125 0 
L 9.078125 54.6875 
L 18.109375 54.6875 
L 18.109375 46.1875 
Q 21.1875 51.21875 25.484375 53.609375 
Q 29.78125 56 35.6875 56 
Q 41.65625 56 45.828125 52.96875 
Q 50 49.953125 52 44.1875 
z
" id="DejaVuSans-6d"/>
      <path d="M 54.890625 33.015625 
L 54.890625 0 
L 45.90625 0 
L 45.90625 32.71875 
Q 45.90625 40.484375 42.875 44.328125 
Q 39.84375 48.1875 33.796875 48.1875 
Q 26.515625 48.1875 22.3125 43.546875 
Q 18.109375 38.921875 18.109375 30.90625 
L 18.109375 0 
L 9.078125 0 
L 9.078125 54.6875 
L 18.109375 54.6875 
L 18.109375 46.1875 
Q 21.34375 51.125 25.703125 53.5625 
Q 30.078125 56 35.796875 56 
Q 45.21875 56 50.046875 50.171875 
Q 54.890625 44.34375 54.890625 33.015625 
z
" id="DejaVuSans-6e"/>
      <path d="M 8.015625 75.875 
L 15.828125 75.875 
Q 23.140625 64.359375 26.78125 53.3125 
Q 30.421875 42.28125 30.421875 31.390625 
Q 30.421875 20.453125 26.78125 9.375 
Q 23.140625 -1.703125 15.828125 -13.1875 
L 8.015625 -13.1875 
Q 14.5 -2 17.703125 9.0625 
Q 20.90625 20.125 20.90625 31.390625 
Q 20.90625 42.671875 17.703125 53.65625 
Q 14.5 64.65625 8.015625 75.875 
z
" id="DejaVuSans-29"/>
     </defs>
     <g transform="translate(73.803219 338.153594)scale(0.17 -0.17)">
      <use xlink:href="#DejaVuSans-6c"/>
      <use x="27.783203" xlink:href="#DejaVuSans-6f"/>
      <use x="88.964844" xlink:href="#DejaVuSans-67"/>
      <use x="152.441406" xlink:href="#DejaVuSans-31"/>
      <use x="216.064453" xlink:href="#DejaVuSans-30"/>
      <use x="279.6875" xlink:href="#DejaVuSans-28"/>
      <use x="318.701172" xlink:href="#DejaVuSans-23"/>
      <use x="402.490234" xlink:href="#DejaVuSans-20"/>
      <use x="434.277344" xlink:href="#DejaVuSans-66"/>
      <use x="469.404297" xlink:href="#DejaVuSans-2d"/>
      <use x="505.488281" xlink:href="#DejaVuSans-65"/>
      <use x="567.011719" xlink:href="#DejaVuSans-76"/>
      <use x="626.191406" xlink:href="#DejaVuSans-61"/>
      <use x="687.470703" xlink:href="#DejaVuSans-6c"/>
      <use x="715.253906" xlink:href="#DejaVuSans-73"/>
      <use x="767.353516" xlink:href="#DejaVuSans-20"/>
      <use x="799.140625" xlink:href="#DejaVuSans-2f"/>
      <use x="832.832031" xlink:href="#DejaVuSans-20"/>
      <use x="864.619141" xlink:href="#DejaVuSans-64"/>
      <use x="928.095703" xlink:href="#DejaVuSans-69"/>
      <use x="955.878906" xlink:href="#DejaVuSans-6d"/>
      <use x="1053.291016" xlink:href="#DejaVuSans-65"/>
      <use x="1114.814453" xlink:href="#DejaVuSans-6e"/>
      <use x="1178.193359" xlink:href="#DejaVuSans-73"/>
      <use x="1230.292969" xlink:href="#DejaVuSans-69"/>
      <use x="1258.076172" xlink:href="#DejaVuSans-6f"/>
      <use x="1319.257812" xlink:href="#DejaVuSans-6e"/>
      <use x="1382.636719" xlink:href="#DejaVuSans-29"/>
     </g>
    </g>
   </g>
   <g id="matplotlib.axis_2">
    <g id="ytick_1">
     <g id="line2d_29">
      <path clip-path="url(#p52307941b0)" d="M 56.12 294.88 
L 333.168 294.88 
" style="fill:none;stroke:#b0b0b0;stroke-linecap:square;stroke-width:0.8;"/>
     </g>
     <g id="line2d_30">
      <defs>
       <path d="M 0 0 
L -3.5 0 
" id="m7f30d9c893" style="stroke:#000000;stroke-width:0.8;"/>
      </defs>
      <g>
       <use style="stroke:#000000;stroke-width:0.8;" x="56.12" xlink:href="#m7f30d9c893" y="294.88"/>
      </g>
     </g>
     <g id="text_6">
      <!-- 0.0 -->
      <defs>
       <path d="M 10.6875 12.40625 
L 21 12.40625 
L 21 0 
L 10.6875 0 
z
" id="DejaVuSans-2e"/>
      </defs>
      <g transform="translate(23.675 300.95875)scale(0.16 -0.16)">
       <use xlink:href="#DejaVuSans-30"/>
       <use x="63.623047" xlink:href="#DejaVuSans-2e"/>
       <use x="95.410156" xlink:href="#DejaVuSans-30"/>
      </g>
     </g>
    </g>
    <g id="ytick_2">
     <g id="line2d_31">
      <path clip-path="url(#p52307941b0)" d="M 56.12 237.843411 
L 333.168 237.843411 
" style="fill:none;stroke:#b0b0b0;stroke-linecap:square;stroke-width:0.8;"/>
     </g>
     <g id="line2d_32">
      <g>
       <use style="stroke:#000000;stroke-width:0.8;" x="56.12" xlink:href="#m7f30d9c893" y="237.843411"/>
      </g>
     </g>
     <g id="text_7">
      <!-- 0.2 -->
      <g transform="translate(23.675 243.922161)scale(0.16 -0.16)">
       <use xlink:href="#DejaVuSans-30"/>
       <use x="63.623047" xlink:href="#DejaVuSans-2e"/>
       <use x="95.410156" xlink:href="#DejaVuSans-32"/>
      </g>
     </g>
    </g>
    <g id="ytick_3">
     <g id="line2d_33">
      <path clip-path="url(#p52307941b0)" d="M 56.12 180.806823 
L 333.168 180.806823 
" style="fill:none;stroke:#b0b0b0;stroke-linecap:square;stroke-width:0.8;"/>
     </g>
     <g id="line2d_34">
      <g>
       <use style="stroke:#000000;stroke-width:0.8;" x="56.12" xlink:href="#m7f30d9c893" y="180.806823"/>
      </g>
     </g>
     <g id="text_8">
      <!-- 0.4 -->
      <g transform="translate(23.675 186.885573)scale(0.16 -0.16)">
       <use xlink:href="#DejaVuSans-30"/>
       <use x="63.623047" xlink:href="#DejaVuSans-2e"/>
       <use x="95.410156" xlink:href="#DejaVuSans-34"/>
      </g>
     </g>
    </g>
    <g id="ytick_4">
     <g id="line2d_35">
      <path clip-path="url(#p52307941b0)" d="M 56.12 123.770234 
L 333.168 123.770234 
" style="fill:none;stroke:#b0b0b0;stroke-linecap:square;stroke-width:0.8;"/>
     </g>
     <g id="line2d_36">
      <g>
       <use style="stroke:#000000;stroke-width:0.8;" x="56.12" xlink:href="#m7f30d9c893" y="123.770234"/>
      </g>
     </g>
     <g id="text_9">
      <!-- 0.6 -->
      <g transform="translate(23.675 129.848984)scale(0.16 -0.16)">
       <use xlink:href="#DejaVuSans-30"/>
       <use x="63.623047" xlink:href="#DejaVuSans-2e"/>
       <use x="95.410156" xlink:href="#DejaVuSans-36"/>
      </g>
     </g>
    </g>
    <g id="ytick_5">
     <g id="line2d_37">
      <path clip-path="url(#p52307941b0)" d="M 56.12 66.733646 
L 333.168 66.733646 
" style="fill:none;stroke:#b0b0b0;stroke-linecap:square;stroke-width:0.8;"/>
     </g>
     <g id="line2d_38">
      <g>
       <use style="stroke:#000000;stroke-width:0.8;" x="56.12" xlink:href="#m7f30d9c893" y="66.733646"/>
      </g>
     </g>
     <g id="text_10">
      <!-- 0.8 -->
      <defs>
       <path d="M 31.78125 34.625 
Q 24.75 34.625 20.71875 30.859375 
Q 16.703125 27.09375 16.703125 20.515625 
Q 16.703125 13.921875 20.71875 10.15625 
Q 24.75 6.390625 31.78125 6.390625 
Q 38.8125 6.390625 42.859375 10.171875 
Q 46.921875 13.96875 46.921875 20.515625 
Q 46.921875 27.09375 42.890625 30.859375 
Q 38.875 34.625 31.78125 34.625 
z
M 21.921875 38.8125 
Q 15.578125 40.375 12.03125 44.71875 
Q 8.5 49.078125 8.5 55.328125 
Q 8.5 64.0625 14.71875 69.140625 
Q 20.953125 74.21875 31.78125 74.21875 
Q 42.671875 74.21875 48.875 69.140625 
Q 55.078125 64.0625 55.078125 55.328125 
Q 55.078125 49.078125 51.53125 44.71875 
Q 48 40.375 41.703125 38.8125 
Q 48.828125 37.15625 52.796875 32.3125 
Q 56.78125 27.484375 56.78125 20.515625 
Q 56.78125 9.90625 50.3125 4.234375 
Q 43.84375 -1.421875 31.78125 -1.421875 
Q 19.734375 -1.421875 13.25 4.234375 
Q 6.78125 9.90625 6.78125 20.515625 
Q 6.78125 27.484375 10.78125 32.3125 
Q 14.796875 37.15625 21.921875 38.8125 
z
M 18.3125 54.390625 
Q 18.3125 48.734375 21.84375 45.5625 
Q 25.390625 42.390625 31.78125 42.390625 
Q 38.140625 42.390625 41.71875 45.5625 
Q 45.3125 48.734375 45.3125 54.390625 
Q 45.3125 60.0625 41.71875 63.234375 
Q 38.140625 66.40625 31.78125 66.40625 
Q 25.390625 66.40625 21.84375 63.234375 
Q 18.3125 60.0625 18.3125 54.390625 
z
" id="DejaVuSans-38"/>
      </defs>
      <g transform="translate(23.675 72.812396)scale(0.16 -0.16)">
       <use xlink:href="#DejaVuSans-30"/>
       <use x="63.623047" xlink:href="#DejaVuSans-2e"/>
       <use x="95.410156" xlink:href="#DejaVuSans-38"/>
      </g>
     </g>
    </g>
    <g id="ytick_6">
     <g id="line2d_39">
      <path clip-path="url(#p52307941b0)" d="M 56.12 9.697057 
L 333.168 9.697057 
" style="fill:none;stroke:#b0b0b0;stroke-linecap:square;stroke-width:0.8;"/>
     </g>
     <g id="line2d_40">
      <g>
       <use style="stroke:#000000;stroke-width:0.8;" x="56.12" xlink:href="#m7f30d9c893" y="9.697057"/>
      </g>
     </g>
     <g id="text_11">
      <!-- 1.0 -->
      <g transform="translate(23.675 15.775807)scale(0.16 -0.16)">
       <use xlink:href="#DejaVuSans-31"/>
       <use x="63.623047" xlink:href="#DejaVuSans-2e"/>
       <use x="95.410156" xlink:href="#DejaVuSans-30"/>
      </g>
     </g>
    </g>
    <g id="text_12">
     <!-- Fraction of function,target pairs -->
     <defs>
      <path d="M 9.8125 72.90625 
L 51.703125 72.90625 
L 51.703125 64.59375 
L 19.671875 64.59375 
L 19.671875 43.109375 
L 48.578125 43.109375 
L 48.578125 34.8125 
L 19.671875 34.8125 
L 19.671875 0 
L 9.8125 0 
z
" id="DejaVuSans-46"/>
      <path d="M 41.109375 46.296875 
Q 39.59375 47.171875 37.8125 47.578125 
Q 36.03125 48 33.890625 48 
Q 26.265625 48 22.1875 43.046875 
Q 18.109375 38.09375 18.109375 28.8125 
L 18.109375 0 
L 9.078125 0 
L 9.078125 54.6875 
L 18.109375 54.6875 
L 18.109375 46.1875 
Q 20.953125 51.171875 25.484375 53.578125 
Q 30.03125 56 36.53125 56 
Q 37.453125 56 38.578125 55.875 
Q 39.703125 55.765625 41.0625 55.515625 
z
" id="DejaVuSans-72"/>
      <path d="M 48.78125 52.59375 
L 48.78125 44.1875 
Q 44.96875 46.296875 41.140625 47.34375 
Q 37.3125 48.390625 33.40625 48.390625 
Q 24.65625 48.390625 19.8125 42.84375 
Q 14.984375 37.3125 14.984375 27.296875 
Q 14.984375 17.28125 19.8125 11.734375 
Q 24.65625 6.203125 33.40625 6.203125 
Q 37.3125 6.203125 41.140625 7.25 
Q 44.96875 8.296875 48.78125 10.40625 
L 48.78125 2.09375 
Q 45.015625 0.34375 40.984375 -0.53125 
Q 36.96875 -1.421875 32.421875 -1.421875 
Q 20.0625 -1.421875 12.78125 6.34375 
Q 5.515625 14.109375 5.515625 27.296875 
Q 5.515625 40.671875 12.859375 48.328125 
Q 20.21875 56 33.015625 56 
Q 37.15625 56 41.109375 55.140625 
Q 45.0625 54.296875 48.78125 52.59375 
z
" id="DejaVuSans-63"/>
      <path d="M 18.3125 70.21875 
L 18.3125 54.6875 
L 36.8125 54.6875 
L 36.8125 47.703125 
L 18.3125 47.703125 
L 18.3125 18.015625 
Q 18.3125 11.328125 20.140625 9.421875 
Q 21.96875 7.515625 27.59375 7.515625 
L 36.8125 7.515625 
L 36.8125 0 
L 27.59375 0 
Q 17.1875 0 13.234375 3.875 
Q 9.28125 7.765625 9.28125 18.015625 
L 9.28125 47.703125 
L 2.6875 47.703125 
L 2.6875 54.6875 
L 9.28125 54.6875 
L 9.28125 70.21875 
z
" id="DejaVuSans-74"/>
      <path d="M 8.5 21.578125 
L 8.5 54.6875 
L 17.484375 54.6875 
L 17.484375 21.921875 
Q 17.484375 14.15625 20.5 10.265625 
Q 23.53125 6.390625 29.59375 6.390625 
Q 36.859375 6.390625 41.078125 11.03125 
Q 45.3125 15.671875 45.3125 23.6875 
L 45.3125 54.6875 
L 54.296875 54.6875 
L 54.296875 0 
L 45.3125 0 
L 45.3125 8.40625 
Q 42.046875 3.421875 37.71875 1 
Q 33.40625 -1.421875 27.6875 -1.421875 
Q 18.265625 -1.421875 13.375 4.4375 
Q 8.5 10.296875 8.5 21.578125 
z
M 31.109375 56 
z
" id="DejaVuSans-75"/>
      <path d="M 11.71875 12.40625 
L 22.015625 12.40625 
L 22.015625 4 
L 14.015625 -11.625 
L 7.71875 -11.625 
L 11.71875 4 
z
" id="DejaVuSans-2c"/>
      <path d="M 18.109375 8.203125 
L 18.109375 -20.796875 
L 9.078125 -20.796875 
L 9.078125 54.6875 
L 18.109375 54.6875 
L 18.109375 46.390625 
Q 20.953125 51.265625 25.265625 53.625 
Q 29.59375 56 35.59375 56 
Q 45.5625 56 51.78125 48.09375 
Q 58.015625 40.1875 58.015625 27.296875 
Q 58.015625 14.40625 51.78125 6.484375 
Q 45.5625 -1.421875 35.59375 -1.421875 
Q 29.59375 -1.421875 25.265625 0.953125 
Q 20.953125 3.328125 18.109375 8.203125 
z
M 48.6875 27.296875 
Q 48.6875 37.203125 44.609375 42.84375 
Q 40.53125 48.484375 33.40625 48.484375 
Q 26.265625 48.484375 22.1875 42.84375 
Q 18.109375 37.203125 18.109375 27.296875 
Q 18.109375 17.390625 22.1875 11.75 
Q 26.265625 6.109375 33.40625 6.109375 
Q 40.53125 6.109375 44.609375 11.75 
Q 48.6875 17.390625 48.6875 27.296875 
z
" id="DejaVuSans-70"/>
     </defs>
     <g transform="translate(16.139531 286.001989)rotate(-90)scale(0.17 -0.17)">
      <use xlink:href="#DejaVuSans-46"/>
      <use x="57.410156" xlink:href="#DejaVuSans-72"/>
      <use x="98.523438" xlink:href="#DejaVuSans-61"/>
      <use x="159.802734" xlink:href="#DejaVuSans-63"/>
      <use x="214.783203" xlink:href="#DejaVuSans-74"/>
      <use x="253.992188" xlink:href="#DejaVuSans-69"/>
      <use x="281.775391" xlink:href="#DejaVuSans-6f"/>
      <use x="342.957031" xlink:href="#DejaVuSans-6e"/>
      <use x="406.335938" xlink:href="#DejaVuSans-20"/>
      <use x="438.123047" xlink:href="#DejaVuSans-6f"/>
      <use x="499.304688" xlink:href="#DejaVuSans-66"/>
      <use x="534.509766" xlink:href="#DejaVuSans-20"/>
      <use x="566.296875" xlink:href="#DejaVuSans-66"/>
      <use x="601.501953" xlink:href="#DejaVuSans-75"/>
      <use x="664.880859" xlink:href="#DejaVuSans-6e"/>
      <use x="728.259766" xlink:href="#DejaVuSans-63"/>
      <use x="783.240234" xlink:href="#DejaVuSans-74"/>
      <use x="822.449219" xlink:href="#DejaVuSans-69"/>
      <use x="850.232422" xlink:href="#DejaVuSans-6f"/>
      <use x="911.414062" xlink:href="#DejaVuSans-6e"/>
      <use x="974.792969" xlink:href="#DejaVuSans-2c"/>
      <use x="1006.580078" xlink:href="#DejaVuSans-74"/>
      <use x="1045.789062" xlink:href="#DejaVuSans-61"/>
      <use x="1107.068359" xlink:href="#DejaVuSans-72"/>
      <use x="1148.166016" xlink:href="#DejaVuSans-67"/>
      <use x="1211.642578" xlink:href="#DejaVuSans-65"/>
      <use x="1273.166016" xlink:href="#DejaVuSans-74"/>
      <use x="1312.375" xlink:href="#DejaVuSans-20"/>
      <use x="1344.162109" xlink:href="#DejaVuSans-70"/>
      <use x="1407.638672" xlink:href="#DejaVuSans-61"/>
      <use x="1468.917969" xlink:href="#DejaVuSans-69"/>
      <use x="1496.701172" xlink:href="#DejaVuSans-72"/>
      <use x="1537.814453" xlink:href="#DejaVuSans-73"/>
     </g>
    </g>
   </g>
   <g id="line2d_41">
    <defs>
     <path d="M 0 1.5 
C 0.397805 1.5 0.77937 1.341951 1.06066 1.06066 
C 1.341951 0.77937 1.5 0.397805 1.5 0 
C 1.5 -0.397805 1.341951 -0.77937 1.06066 -1.06066 
C 0.77937 -1.341951 0.397805 -1.5 0 -1.5 
C -0.397805 -1.5 -0.77937 -1.341951 -1.06066 -1.06066 
C -1.341951 -0.77937 -1.5 -0.397805 -1.5 0 
C -1.5 0.397805 -1.341951 0.77937 -1.06066 1.06066 
C -0.77937 1.341951 -0.397805 1.5 0 1.5 
z
" id="m9d2f5e1373" style="stroke:#f5deb3;"/>
    </defs>
    <g>
     <use style="fill:#f5deb3;stroke:#f5deb3;" x="139.653523" xlink:href="#m9d2f5e1373" y="9.697057"/>
     <use style="fill:#f5deb3;stroke:#f5deb3;" x="139.653523" xlink:href="#m9d2f5e1373" y="9.697057"/>
    </g>
   </g>
   <g id="line2d_42">
    <defs>
     <path d="M 0 1.5 
C 0.397805 1.5 0.77937 1.341951 1.06066 1.06066 
C 1.341951 0.77937 1.5 0.397805 1.5 0 
C 1.5 -0.397805 1.341951 -0.77937 1.06066 -1.06066 
C 0.77937 -1.341951 0.397805 -1.5 0 -1.5 
C -0.397805 -1.5 -0.77937 -1.341951 -1.06066 -1.06066 
C -1.341951 -0.77937 -1.5 -0.397805 -1.5 0 
C -1.5 0.397805 -1.341951 0.77937 -1.06066 1.06066 
C -0.77937 1.341951 -0.397805 1.5 0 1.5 
z
" id="m0948a233ab" style="stroke:#000080;"/>
    </defs>
    <g>
     <use style="fill:#000080;stroke:#000080;" x="211.252123" xlink:href="#m0948a233ab" y="57.227548"/>
     <use style="fill:#000080;stroke:#000080;" x="211.252123" xlink:href="#m0948a233ab" y="57.227548"/>
    </g>
   </g>
   <g id="line2d_43">
    <path d="M 44.205749 294.88 
L 44.205749 287.33104 
L 68.034251 287.33104 
L 68.034251 283.836151 
L 77.653281 283.836151 
L 77.653281 279.921875 
L 83.784035 279.921875 
L 83.784035 273.211688 
L 88.293717 273.211688 
L 88.293717 266.920888 
L 91.862754 266.920888 
L 91.862754 263.146408 
L 94.816624 263.146408 
L 94.816624 259.791314 
L 97.336537 259.791314 
L 97.336537 256.576016 
L 99.533818 256.576016 
L 99.533818 255.178061 
L 101.481783 255.178061 
L 101.481783 254.199492 
L 103.231288 254.199492 
L 103.231288 251.962763 
L 104.819059 251.962763 
L 104.819059 248.328078 
L 106.272485 248.328078 
L 106.272485 245.532167 
L 107.612537 245.532167 
L 107.612537 243.714825 
L 108.85563 243.714825 
L 108.85563 240.499527 
L 110.014853 240.499527 
L 110.014853 237.983207 
L 111.100812 237.983207 
L 111.100812 234.488318 
L 112.122219 234.488318 
L 112.122219 233.649545 
L 113.086321 233.649545 
L 113.086321 230.853633 
L 113.999206 230.853633 
L 113.999206 228.477109 
L 114.866043 228.477109 
L 114.866043 223.164878 
L 115.691256 223.164878 
L 115.691256 219.530193 
L 116.478659 219.530193 
L 116.478659 215.615917 
L 117.231566 215.615917 
L 117.231566 214.078166 
L 117.952873 214.078166 
L 117.952873 211.561846 
L 118.645127 211.561846 
L 118.645127 207.088388 
L 119.310576 207.088388 
L 119.310576 204.292477 
L 119.95122 204.292477 
L 119.95122 199.399632 
L 120.568842 199.399632 
L 120.568842 195.764948 
L 121.16504 195.764948 
L 121.16504 191.29149 
L 121.741249 191.29149 
L 121.741249 185.979259 
L 122.298767 185.979259 
L 122.298767 182.48437 
L 122.838768 182.48437 
L 122.838768 176.47316 
L 123.36232 176.47316 
L 123.36232 171.44052 
L 123.870396 171.44052 
L 123.870396 166.268085 
L 124.363883 166.268085 
L 124.363883 160.955853 
L 124.843597 160.955853 
L 124.843597 158.579329 
L 125.310285 158.579329 
L 125.310285 156.3426 
L 125.764637 156.3426 
L 125.764637 153.267097 
L 126.207287 153.267097 
L 126.207287 149.352822 
L 126.638823 149.352822 
L 126.638823 144.879364 
L 127.05979 144.879364 
L 127.05979 140.685497 
L 127.470694 140.685497 
L 127.470694 135.513061 
L 127.872003 135.513061 
L 127.872003 132.157968 
L 128.264156 132.157968 
L 128.264156 127.964101 
L 128.647561 127.964101 
L 128.647561 123.211052 
L 129.022601 123.211052 
L 129.022601 119.017185 
L 129.389632 119.017185 
L 129.389632 115.10291 
L 129.748989 115.10291 
L 129.748989 112.027407 
L 130.100987 112.027407 
L 130.100987 109.0917 
L 130.445921 109.0917 
L 130.445921 104.478447 
L 130.784069 104.478447 
L 130.784069 101.682536 
L 131.115693 101.682536 
L 131.115693 100.004989 
L 131.441039 100.004989 
L 131.441039 96.929487 
L 131.760342 96.929487 
L 131.760342 93.434598 
L 132.073821 93.434598 
L 132.073821 91.058073 
L 132.381685 91.058073 
L 132.381685 88.262162 
L 132.684132 88.262162 
L 132.684132 87.143798 
L 132.98135 87.143798 
L 132.98135 85.18666 
L 133.273515 85.18666 
L 133.273515 84.347886 
L 133.560797 84.347886 
L 133.560797 83.9285 
L 133.843356 83.9285 
L 133.843356 81.971362 
L 134.121345 81.971362 
L 134.121345 80.713202 
L 134.39491 80.713202 
L 134.39491 79.455042 
L 134.664189 79.455042 
L 134.664189 79.315246 
L 134.929315 79.315246 
L 134.929315 77.218313 
L 135.447604 77.218313 
L 135.447604 76.519335 
L 135.701004 76.519335 
L 135.701004 74.701993 
L 135.950722 74.701993 
L 135.950722 74.003015 
L 136.196864 74.003015 
L 136.196864 72.325468 
L 136.439531 72.325468 
L 136.439531 71.207104 
L 136.67882 71.207104 
L 136.67882 70.228535 
L 136.914823 70.228535 
L 136.914823 70.088739 
L 137.14763 70.088739 
L 137.14763 69.809148 
L 137.603992 69.809148 
L 137.603992 69.249966 
L 138.266591 69.249966 
L 138.266591 69.11017 
L 139.720016 69.11017 
L 139.720016 68.690784 
L 139.917968 68.690784 
L 139.917968 67.991806 
L 140.687737 67.991806 
L 140.687737 67.712215 
L 140.874911 67.712215 
L 140.874911 67.432624 
L 141.060069 67.432624 
L 141.060069 67.153032 
L 142.303162 67.153032 
L 142.303162 67.013237 
L 145.4275 67.013237 
L 145.4275 66.454055 
L 145.85077 66.454055 
L 145.85077 66.314259 
L 147.57328 66.314259 
L 147.57328 66.034668 
L 147.698898 66.034668 
L 147.698898 64.636712 
L 147.823604 64.636712 
L 147.823604 64.496917 
L 148.070335 64.496917 
L 148.070335 63.797939 
L 150.252912 63.797939 
L 150.252912 63.658143 
L 151.299196 63.658143 
L 151.299196 63.238757 
L 152.943598 63.238757 
L 152.943598 62.959166 
L 154.779183 62.959166 
L 154.779183 62.81937 
L 155.824488 62.81937 
L 155.824488 62.539779 
L 156.88336 62.539779 
L 156.88336 62.260188 
L 157.317927 62.260188 
L 157.317927 61.840801 
L 158.625765 61.840801 
L 158.625765 61.701006 
L 162.256827 61.701006 
L 162.256827 61.281619 
L 163.297829 61.281619 
L 163.297829 61.002028 
L 163.942169 61.002028 
L 163.942169 60.862232 
L 166.926736 60.862232 
L 166.926736 60.582641 
L 170.595161 60.582641 
L 170.595161 60.442846 
L 171.243458 60.442846 
L 171.243458 60.163254 
L 172.647807 60.163254 
L 172.647807 60.023459 
L 176.656404 60.023459 
L 176.656404 59.743868 
L 178.420133 59.743868 
L 178.420133 59.604072 
L 178.834171 59.604072 
L 178.834171 59.464277 
L 180.397258 59.464277 
L 180.397258 59.324481 
L 180.766788 59.324481 
L 180.766788 59.184685 
L 182.503906 59.184685 
L 182.503906 59.04489 
L 184.081469 59.04489 
L 184.081469 58.905094 
L 186.859113 58.905094 
L 186.859113 58.765299 
L 188.024189 58.765299 
L 188.024189 58.485708 
L 189.249716 58.485708 
L 189.249716 58.345912 
L 190.330892 58.345912 
L 190.330892 58.206117 
L 192.120575 58.206117 
L 192.120575 58.066321 
L 193.164666 58.066321 
L 193.2179 57.78673 
L 194.904135 57.78673 
L 194.904135 57.646934 
L 196.439626 57.646934 
L 196.439626 57.507139 
L 198.382082 57.507139 
L 198.382082 57.367343 
L 211.252123 57.367343 
L 211.252123 57.227548 
L 333.168 57.227548 
L 333.168 57.227548 
" style="fill:none;stroke:#000080;stroke-linecap:square;stroke-width:1.5;"/>
   </g>
   <g id="line2d_44">
    <defs>
     <path d="M 0 6 
C 1.591219 6 3.117479 5.367802 4.242641 4.242641 
C 5.367802 3.117479 6 1.591219 6 0 
C 6 -1.591219 5.367802 -3.117479 4.242641 -4.242641 
C 3.117479 -5.367802 1.591219 -6 0 -6 
C -1.591219 -6 -3.117479 -5.367802 -4.242641 -4.242641 
C -5.367802 -3.117479 -6 -1.591219 -6 0 
C -6 1.591219 -5.367802 3.117479 -4.242641 4.242641 
C -3.117479 5.367802 -1.591219 6 0 6 
z
" id="ma1d61766e6" style="stroke:#000080;stroke-width:1.5;"/>
    </defs>
    <g>
     <use style="fill:none;stroke:#000080;stroke-width:1.5;" x="106.272485" xlink:href="#ma1d61766e6" y="245.532167"/>
     <use style="fill:none;stroke:#000080;stroke-width:1.5;" x="130.445921" xlink:href="#ma1d61766e6" y="109.0917"/>
     <use style="fill:none;stroke:#000080;stroke-width:1.5;" x="172.647807" xlink:href="#ma1d61766e6" y="60.163254"/>
     <use style="fill:none;stroke:#000080;stroke-width:1.5;" x="211.252123" xlink:href="#ma1d61766e6" y="57.367343"/>
     <use style="fill:none;stroke:#000080;stroke-width:1.5;" x="211.252123" xlink:href="#ma1d61766e6" y="57.227548"/>
     <use style="fill:none;stroke:#000080;stroke-width:1.5;" x="333.168" xlink:href="#ma1d61766e6" y="57.227548"/>
    </g>
   </g>
   <g id="line2d_45">
    <path style="fill:none;stroke:#000080;stroke-linecap:square;stroke-width:1.5;"/>
    <g/>
   </g>
   <g id="line2d_46">
    <path clip-path="url(#p52307941b0)" d="M 142.245962 67.153032 
" style="fill:none;stroke:#000080;stroke-linecap:square;stroke-width:1.5;"/>
    <defs>
     <path d="M -12 12 
L 12 -12 
M -12 -12 
L 12 12 
" id="ma82a5da38e" style="stroke:#000080;"/>
    </defs>
    <g clip-path="url(#p52307941b0)">
     <use style="fill:#000080;stroke:#000080;" x="142.245962" xlink:href="#ma82a5da38e" y="67.153032"/>
    </g>
   </g>
   <g id="line2d_47">
    <defs>
     <path d="M 0 1.5 
C 0.397805 1.5 0.77937 1.341951 1.06066 1.06066 
C 1.341951 0.77937 1.5 0.397805 1.5 0 
C 1.5 -0.397805 1.341951 -0.77937 1.06066 -1.06066 
C 0.77937 -1.341951 0.397805 -1.5 0 -1.5 
C -0.397805 -1.5 -0.77937 -1.341951 -1.06066 -1.06066 
C -1.341951 -0.77937 -1.5 -0.397805 -1.5 0 
C -1.5 0.397805 -1.341951 0.77937 -1.06066 1.06066 
C -0.77937 1.341951 -0.397805 1.5 0 1.5 
z
" id="m36263da53d" style="stroke:#ff00ff;"/>
    </defs>
    <g>
     <use style="fill:#ff00ff;stroke:#ff00ff;" x="192.18341" xlink:href="#m36263da53d" y="62.81937"/>
     <use style="fill:#ff00ff;stroke:#ff00ff;" x="192.18341" xlink:href="#m36263da53d" y="62.81937"/>
    </g>
   </g>
   <g id="line2d_48">
    <path d="M 44.205749 294.88 
L 44.205749 278.244328 
L 83.784035 278.244328 
L 83.784035 277.824942 
L 85.422286 277.824942 
L 85.422286 277.265759 
L 86.917893 277.265759 
L 86.917893 273.631075 
L 88.293717 273.631075 
L 88.293717 273.491279 
L 94.816624 273.491279 
L 94.816624 273.071893 
L 95.698286 273.071893 
L 95.698286 272.652506 
L 96.536922 272.652506 
L 96.536922 271.813733 
L 97.336537 271.813733 
L 97.336537 270.555573 
L 98.100602 270.555573 
L 98.100602 266.920888 
L 98.832144 266.920888 
L 98.832144 264.823955 
L 99.533818 264.823955 
L 99.533818 261.468861 
L 100.207968 261.468861 
L 100.207968 259.371928 
L 100.856673 259.371928 
L 100.856673 257.834177 
L 101.481783 257.834177 
L 101.481783 257.41479 
L 102.667676 257.41479 
L 102.667676 257.274994 
L 103.231288 257.274994 
L 103.231288 256.296425 
L 103.777005 256.296425 
L 103.777005 255.457652 
L 104.305927 255.457652 
L 104.305927 252.102559 
L 104.819059 252.102559 
L 104.819059 248.60767 
L 105.317315 248.60767 
L 105.317315 247.34951 
L 105.801534 247.34951 
L 105.801534 245.532167 
L 106.272485 245.532167 
L 106.272485 244.553598 
L 106.730875 244.553598 
L 106.730875 243.155643 
L 107.177358 243.155643 
L 107.177358 242.59646 
L 107.612537 242.59646 
L 107.612537 241.198505 
L 108.036969 241.198505 
L 108.036969 240.219936 
L 108.451173 240.219936 
L 108.451173 239.101571 
L 108.85563 239.101571 
L 108.85563 238.961776 
L 109.637066 238.961776 
L 109.637066 237.004638 
L 110.014853 237.004638 
L 110.014853 236.026069 
L 110.384516 236.026069 
L 110.384516 235.466887 
L 110.746395 235.466887 
L 110.746395 235.0475 
L 111.100812 235.0475 
L 111.100812 234.907705 
L 111.448069 234.907705 
L 111.448069 234.767909 
L 111.788449 234.767909 
L 111.788449 234.628114 
L 112.122219 234.628114 
L 112.122219 234.488318 
L 112.449632 234.488318 
L 112.449632 234.208727 
L 112.770924 234.208727 
L 112.770924 234.068931 
L 113.396034 234.068931 
L 113.396034 233.509749 
L 113.700266 233.509749 
L 113.700266 233.369954 
L 113.999206 233.369954 
L 113.999206 233.230158 
L 114.581927 233.230158 
L 114.581927 232.950567 
L 114.866043 232.950567 
L 114.866043 232.810771 
L 115.420563 232.810771 
L 115.420563 232.670976 
L 115.957752 232.670976 
L 115.957752 232.111793 
L 116.478659 232.111793 
L 116.478659 230.853633 
L 116.73331 230.853633 
L 116.73331 230.434247 
L 116.984244 230.434247 
L 116.984244 230.154656 
L 117.231566 230.154656 
L 117.231566 229.875064 
L 117.715785 229.875064 
L 117.715785 229.455678 
L 117.952873 229.455678 
L 117.952873 228.477109 
L 118.186736 228.477109 
L 118.186736 228.337313 
L 118.417459 228.337313 
L 118.417459 227.079153 
L 118.645127 227.079153 
L 118.645127 226.519971 
L 118.869818 226.519971 
L 118.869818 226.380175 
L 119.09161 226.380175 
L 119.09161 225.401607 
L 119.310576 225.401607 
L 119.310576 224.842424 
L 119.526788 224.842424 
L 119.526788 224.003651 
L 119.740314 224.003651 
L 119.740314 223.584264 
L 119.95122 223.584264 
L 119.95122 223.444469 
L 120.15957 223.444469 
L 120.15957 222.745491 
L 120.365424 222.745491 
L 120.365424 221.627126 
L 120.568842 221.627126 
L 120.568842 221.487331 
L 120.769881 221.487331 
L 120.769881 220.089375 
L 120.968596 220.089375 
L 120.968596 219.809784 
L 121.16504 219.809784 
L 121.16504 218.551624 
L 121.359263 218.551624 
L 121.359263 216.454691 
L 121.551317 216.454691 
L 121.551317 215.336326 
L 121.741249 215.336326 
L 121.741249 214.357757 
L 121.929105 214.357757 
L 121.929105 213.099597 
L 122.114929 213.099597 
L 122.114929 211.841437 
L 122.298767 211.841437 
L 122.298767 209.604708 
L 122.480659 209.604708 
L 122.480659 209.045526 
L 122.660646 209.045526 
L 122.660646 208.486344 
L 122.838768 208.486344 
L 122.838768 207.64757 
L 123.015063 207.64757 
L 123.015063 206.808797 
L 123.189569 206.808797 
L 123.189569 205.410841 
L 123.36232 205.410841 
L 123.36232 203.453704 
L 123.533353 203.453704 
L 123.533353 201.915952 
L 123.7027 201.915952 
L 123.7027 200.937384 
L 123.870396 200.937384 
L 123.870396 199.539428 
L 124.036471 199.539428 
L 124.036471 198.141472 
L 124.200956 198.141472 
L 124.200956 196.184334 
L 124.363883 196.184334 
L 124.363883 193.528219 
L 124.52528 193.528219 
L 124.52528 191.571081 
L 124.685175 191.571081 
L 124.685175 190.592512 
L 124.843597 190.592512 
L 124.843597 187.097623 
L 125.000572 187.097623 
L 125.000572 185.420076 
L 125.156126 185.420076 
L 125.156126 182.903756 
L 125.310285 182.903756 
L 125.310285 181.086414 
L 125.463074 181.086414 
L 125.463074 179.129276 
L 125.614517 179.129276 
L 125.614517 178.849685 
L 125.764637 178.849685 
L 125.764637 177.451729 
L 125.913457 177.451729 
L 125.913457 177.172138 
L 126.061 177.172138 
L 126.061 172.558885 
L 126.207287 172.558885 
L 126.207287 170.601747 
L 126.352339 170.601747 
L 126.352339 169.063996 
L 126.496178 169.063996 
L 126.496178 167.526245 
L 126.638823 167.526245 
L 126.638823 166.268085 
L 126.780294 166.268085 
L 126.780294 164.310947 
L 126.92061 164.310947 
L 126.92061 162.353809 
L 127.05979 162.353809 
L 127.05979 159.418102 
L 127.197852 159.418102 
L 127.197852 156.622191 
L 127.334814 156.622191 
L 127.334814 154.944644 
L 127.470694 154.944644 
L 127.470694 153.82628 
L 127.605507 153.82628 
L 127.605507 151.030369 
L 127.739271 151.030369 
L 127.739271 148.653844 
L 127.872003 148.653844 
L 127.872003 147.255888 
L 128.003717 147.255888 
L 128.003717 145.997728 
L 128.13443 145.997728 
L 128.13443 142.502839 
L 128.264156 142.502839 
L 128.264156 139.986519 
L 128.39291 139.986519 
L 128.39291 137.609995 
L 128.520707 137.609995 
L 128.520707 136.212039 
L 128.647561 136.212039 
L 128.647561 134.115106 
L 128.773486 134.115106 
L 128.773486 133.416128 
L 128.898495 133.416128 
L 128.898495 131.45899 
L 129.022601 131.45899 
L 129.022601 130.340626 
L 129.145817 130.340626 
L 129.145817 129.082466 
L 129.268157 129.082466 
L 129.268157 127.404919 
L 129.389632 127.404919 
L 129.389632 126.146759 
L 129.510254 126.146759 
L 129.510254 124.329417 
L 129.630036 124.329417 
L 129.630036 122.931461 
L 129.748989 122.931461 
L 129.748989 121.673301 
L 129.867125 121.673301 
L 129.867125 121.253914 
L 129.984454 121.253914 
L 129.984454 120.275345 
L 130.100987 120.275345 
L 130.100987 117.339639 
L 130.216736 117.339639 
L 130.216736 116.640661 
L 130.33171 116.640661 
L 130.33171 114.264136 
L 130.445921 114.264136 
L 130.445921 113.565158 
L 130.559378 113.565158 
L 130.559378 111.608021 
L 130.67209 111.608021 
L 130.67209 111.048838 
L 130.784069 111.048838 
L 130.784069 109.790678 
L 130.895323 109.790678 
L 131.005861 108.252927 
L 131.115693 108.252927 
L 131.224827 105.596811 
L 131.333273 105.596811 
L 131.441039 104.758038 
L 131.548134 104.758038 
L 131.654565 103.080491 
L 131.760342 103.080491 
L 131.865471 100.144785 
L 132.073821 100.144785 
L 132.177056 98.047851 
L 132.279675 98.047851 
L 132.381685 97.348873 
L 132.483094 97.348873 
L 132.583907 95.531531 
L 132.684132 95.531531 
L 132.783777 94.413167 
L 133.079291 94.413167 
L 133.176677 93.015211 
L 133.273515 93.015211 
L 133.273515 92.73562 
L 133.465568 92.73562 
L 133.560797 91.757051 
L 133.6555 91.757051 
L 133.749684 90.918278 
L 133.843356 90.918278 
L 133.936519 89.380526 
L 134.029181 89.380526 
L 134.029181 88.401958 
L 134.213018 88.401958 
L 134.304205 87.70298 
L 134.39491 87.70298 
L 134.485139 87.283593 
L 134.574897 87.283593 
L 134.574897 87.004002 
L 134.753019 87.004002 
L 134.841393 86.165229 
L 134.929315 86.165229 
L 135.016789 85.745842 
L 135.10382 85.745842 
L 135.190413 84.907069 
L 135.276571 84.907069 
L 135.276571 84.208091 
L 135.532486 84.208091 
L 135.616951 83.648909 
L 135.701004 83.648909 
L 135.784647 82.390748 
L 135.867885 82.390748 
L 135.867885 82.250953 
L 136.115208 82.250953 
L 136.196864 80.852997 
L 136.278134 80.852997 
L 136.359022 80.433611 
L 136.439531 80.433611 
L 136.439531 80.293815 
L 136.836515 80.293815 
L 136.836515 80.014224 
L 136.992776 80.014224 
L 137.070377 78.756064 
L 137.377325 78.756064 
L 137.453213 78.196882 
L 137.603992 78.196882 
L 137.603992 77.777495 
L 137.753459 77.777495 
L 137.827708 76.938722 
L 137.901638 76.938722 
L 137.901638 76.519335 
L 138.04855 76.519335 
L 138.121538 76.239744 
L 138.410429 76.239744 
L 138.4819 75.121379 
L 138.553074 75.121379 
L 138.623956 74.841788 
L 138.834862 74.841788 
L 138.834862 74.562197 
L 139.317139 74.562197 
L 139.317139 74.14281 
L 139.452484 74.14281 
L 139.452484 73.723424 
L 140.048681 73.723424 
L 140.113666 73.024446 
L 140.242905 73.024446 
L 140.242905 72.88465 
L 140.498503 72.88465 
L 140.498503 72.605059 
L 140.750355 72.605059 
L 140.812746 72.325468 
L 141.484501 72.325468 
L 141.484501 72.045877 
L 141.603867 72.045877 
L 141.603867 71.906081 
L 141.781376 71.906081 
L 141.781376 71.766286 
L 142.473629 71.766286 
L 142.473629 71.62649 
L 143.139078 71.62649 
L 143.193387 71.346899 
L 143.35529 71.346899 
L 143.462385 71.067308 
L 143.568817 71.067308 
L 143.568817 70.927513 
L 144.193927 70.927513 
L 144.193927 70.787717 
L 144.548344 70.787717 
L 144.648278 70.36833 
L 144.797098 70.36833 
L 144.797098 70.228535 
L 145.042304 70.228535 
L 145.042304 70.088739 
L 145.37982 70.088739 
L 145.37982 69.948944 
L 145.757607 69.948944 
L 145.757607 69.809148 
L 146.172923 69.809148 
L 146.172923 69.669352 
L 146.444328 69.669352 
L 146.444328 69.529557 
L 147.061422 69.529557 
L 147.061422 69.249966 
L 147.489022 69.249966 
L 147.489022 69.11017 
L 147.864973 69.11017 
L 147.864973 68.970375 
L 148.070335 68.970375 
L 148.070335 68.830579 
L 148.473843 68.830579 
L 148.473843 68.690784 
L 150.180842 68.690784 
L 150.180842 68.550988 
L 150.991943 68.550988 
L 150.991943 68.411192 
L 151.197387 68.411192 
L 151.299196 68.131601 
L 153.725034 68.131601 
L 153.725034 67.991806 
L 154.045238 67.991806 
L 154.045238 67.85201 
L 154.584645 67.85201 
L 154.584645 67.712215 
L 154.696079 67.712215 
L 154.696079 67.572419 
L 155.92819 67.572419 
L 155.92819 67.432624 
L 157.648488 67.432624 
L 157.671858 67.153032 
L 158.954011 67.153032 
L 158.954011 67.013237 
L 160.527113 67.013237 
L 160.527113 66.873441 
L 161.014628 66.873441 
L 161.014628 66.733646 
L 164.215648 66.733646 
L 164.215648 66.59385 
L 164.358689 66.59385 
L 164.358689 66.454055 
L 164.656811 66.454055 
L 164.656811 66.314259 
L 165.69795 66.314259 
L 165.69795 66.174463 
L 167.129994 66.174463 
L 167.129994 66.034668 
L 167.958364 66.034668 
L 167.958364 65.894872 
L 168.364314 65.894872 
L 168.364314 65.755077 
L 169.028335 65.755077 
L 169.028335 65.615281 
L 170.846573 65.615281 
L 170.846573 65.475486 
L 171.878412 65.475486 
L 171.878412 65.33569 
L 172.252422 65.33569 
L 172.252422 65.195895 
L 172.706339 65.195895 
L 172.706339 65.056099 
L 173.177026 65.056099 
L 173.177026 64.916303 
L 173.486909 64.916303 
L 173.570462 64.636712 
L 174.171078 64.636712 
L 174.171078 64.496917 
L 176.145852 64.496917 
L 176.145852 64.357121 
L 177.331745 64.357121 
L 177.331745 64.217326 
L 177.553537 64.217326 
L 177.553537 64.07753 
L 180.000507 64.07753 
L 180.089469 63.797939 
L 180.742398 63.797939 
L 180.742398 63.658143 
L 181.353774 63.658143 
L 181.353774 63.518348 
L 183.530079 63.518348 
L 183.530079 63.378552 
L 183.715848 63.378552 
L 183.782441 63.098961 
L 187.176763 63.098961 
L 187.176763 62.959166 
L 192.18341 62.959166 
L 192.18341 62.81937 
L 333.168 62.81937 
L 333.168 62.81937 
" style="fill:none;stroke:#ff00ff;stroke-linecap:square;stroke-width:1.5;"/>
   </g>
   <g id="line2d_49">
    <defs>
     <path d="M -0 8.485281 
L 5.091169 0 
L 0 -8.485281 
L -5.091169 -0 
z
" id="m8a82c19666" style="stroke:#ff00ff;stroke-linejoin:miter;stroke-width:1.5;"/>
    </defs>
    <g>
     <use style="fill:none;stroke:#ff00ff;stroke-linejoin:miter;stroke-width:1.5;" x="123.189569" xlink:href="#m8a82c19666" y="205.410841"/>
     <use style="fill:none;stroke:#ff00ff;stroke-linejoin:miter;stroke-width:1.5;" x="137.070377" xlink:href="#m8a82c19666" y="78.756064"/>
     <use style="fill:none;stroke:#ff00ff;stroke-linejoin:miter;stroke-width:1.5;" x="192.18341" xlink:href="#m8a82c19666" y="62.959166"/>
     <use style="fill:none;stroke:#ff00ff;stroke-linejoin:miter;stroke-width:1.5;" x="192.18341" xlink:href="#m8a82c19666" y="62.81937"/>
     <use style="fill:none;stroke:#ff00ff;stroke-linejoin:miter;stroke-width:1.5;" x="192.18341" xlink:href="#m8a82c19666" y="62.81937"/>
     <use style="fill:none;stroke:#ff00ff;stroke-linejoin:miter;stroke-width:1.5;" x="333.168" xlink:href="#m8a82c19666" y="62.81937"/>
    </g>
   </g>
   <g id="line2d_50">
    <path style="fill:none;stroke:#ff00ff;stroke-linecap:square;stroke-width:1.5;"/>
    <g/>
   </g>
   <g id="line2d_51">
    <path clip-path="url(#p52307941b0)" d="M 85.422286 277.265759 
" style="fill:none;stroke:#ff00ff;stroke-linecap:square;stroke-width:1.5;"/>
    <defs>
     <path d="M -12 12 
L 12 -12 
M -12 -12 
L 12 12 
" id="md6bf62809b" style="stroke:#ff00ff;"/>
    </defs>
    <g clip-path="url(#p52307941b0)">
     <use style="fill:#ff00ff;stroke:#ff00ff;" x="85.422286" xlink:href="#md6bf62809b" y="277.265759"/>
    </g>
   </g>
   <g id="line2d_52">
    <path d="M 333.168 62.81937 
L 363.64328 289.176341 
" style="fill:none;stroke:#ff00ff;stroke-linecap:square;stroke-width:1.5;"/>
    <g>
     <use style="fill:none;stroke:#ff00ff;stroke-linejoin:miter;stroke-width:1.5;" x="333.168" xlink:href="#m8a82c19666" y="62.81937"/>
     <use style="fill:none;stroke:#ff00ff;stroke-linejoin:miter;stroke-width:1.5;" x="363.64328" xlink:href="#m8a82c19666" y="289.176341"/>
    </g>
   </g>
   <g id="line2d_53">
    <path d="M 333.168 57.227548 
L 363.64328 152.288529 
" style="fill:none;stroke:#000080;stroke-linecap:square;stroke-width:1.5;"/>
    <g>
     <use style="fill:none;stroke:#000080;stroke-width:1.5;" x="333.168" xlink:href="#ma1d61766e6" y="57.227548"/>
     <use style="fill:none;stroke:#000080;stroke-width:1.5;" x="363.64328" xlink:href="#ma1d61766e6" y="152.288529"/>
    </g>
   </g>
   <g id="line2d_54">
    <path d="M 333.168 294.88 
L 333.168 9.697057 
" style="fill:none;stroke:#000000;stroke-linecap:square;stroke-width:1.5;"/>
   </g>
   <g id="patch_3">
    <path d="M 56.12 294.88 
L 56.12 6.845228 
" style="fill:none;stroke:#000000;stroke-linecap:square;stroke-linejoin:miter;stroke-width:0.8;"/>
   </g>
   <g id="patch_4">
    <path d="M 333.168 294.88 
L 333.168 6.845228 
" style="fill:none;stroke:#000000;stroke-linecap:square;stroke-linejoin:miter;stroke-width:0.8;"/>
   </g>
   <g id="patch_5">
    <path d="M 56.12 294.88 
L 333.168 294.88 
" style="fill:none;stroke:#000000;stroke-linecap:square;stroke-linejoin:miter;stroke-width:0.8;"/>
   </g>
   <g id="patch_6">
    <path d="M 56.12 6.845228 
L 333.168 6.845228 
" style="fill:none;stroke:#000000;stroke-linecap:square;stroke-linejoin:miter;stroke-width:0.8;"/>
   </g>
   <g id="text_13">
    <!-- scipy-opt -->
    <defs>
     <path d="M 32.171875 -5.078125 
Q 28.375 -14.84375 24.75 -17.8125 
Q 21.140625 -20.796875 15.09375 -20.796875 
L 7.90625 -20.796875 
L 7.90625 -13.28125 
L 13.1875 -13.28125 
Q 16.890625 -13.28125 18.9375 -11.515625 
Q 21 -9.765625 23.484375 -3.21875 
L 25.09375 0.875 
L 2.984375 54.6875 
L 12.5 54.6875 
L 29.59375 11.921875 
L 46.6875 54.6875 
L 56.203125 54.6875 
z
" id="DejaVuSans-79"/>
    </defs>
    <g transform="translate(369.18424 293.867279)scale(0.17 -0.17)">
     <use xlink:href="#DejaVuSans-73"/>
     <use x="52.099609" xlink:href="#DejaVuSans-63"/>
     <use x="107.080078" xlink:href="#DejaVuSans-69"/>
     <use x="134.863281" xlink:href="#DejaVuSans-70"/>
     <use x="198.339844" xlink:href="#DejaVuSans-79"/>
     <use x="257.503906" xlink:href="#DejaVuSans-2d"/>
     <use x="293.603516" xlink:href="#DejaVuSans-6f"/>
     <use x="354.785156" xlink:href="#DejaVuSans-70"/>
     <use x="418.261719" xlink:href="#DejaVuSans-74"/>
    </g>
   </g>
   <g id="text_14">
    <!-- BFGS ros  -->
    <defs>
     <path d="M 19.671875 34.8125 
L 19.671875 8.109375 
L 35.5 8.109375 
Q 43.453125 8.109375 47.28125 11.40625 
Q 51.125 14.703125 51.125 21.484375 
Q 51.125 28.328125 47.28125 31.5625 
Q 43.453125 34.8125 35.5 34.8125 
z
M 19.671875 64.796875 
L 19.671875 42.828125 
L 34.28125 42.828125 
Q 41.5 42.828125 45.03125 45.53125 
Q 48.578125 48.25 48.578125 53.8125 
Q 48.578125 59.328125 45.03125 62.0625 
Q 41.5 64.796875 34.28125 64.796875 
z
M 9.8125 72.90625 
L 35.015625 72.90625 
Q 46.296875 72.90625 52.390625 68.21875 
Q 58.5 63.53125 58.5 54.890625 
Q 58.5 48.1875 55.375 44.234375 
Q 52.25 40.28125 46.1875 39.3125 
Q 53.46875 37.75 57.5 32.78125 
Q 61.53125 27.828125 61.53125 20.40625 
Q 61.53125 10.640625 54.890625 5.3125 
Q 48.25 0 35.984375 0 
L 9.8125 0 
z
" id="DejaVuSans-42"/>
     <path d="M 59.515625 10.40625 
L 59.515625 29.984375 
L 43.40625 29.984375 
L 43.40625 38.09375 
L 69.28125 38.09375 
L 69.28125 6.78125 
Q 63.578125 2.734375 56.6875 0.65625 
Q 49.8125 -1.421875 42 -1.421875 
Q 24.90625 -1.421875 15.25 8.5625 
Q 5.609375 18.5625 5.609375 36.375 
Q 5.609375 54.25 15.25 64.234375 
Q 24.90625 74.21875 42 74.21875 
Q 49.125 74.21875 55.546875 72.453125 
Q 61.96875 70.703125 67.390625 67.28125 
L 67.390625 56.78125 
Q 61.921875 61.421875 55.765625 63.765625 
Q 49.609375 66.109375 42.828125 66.109375 
Q 29.4375 66.109375 22.71875 58.640625 
Q 16.015625 51.171875 16.015625 36.375 
Q 16.015625 21.625 22.71875 14.15625 
Q 29.4375 6.6875 42.828125 6.6875 
Q 48.046875 6.6875 52.140625 7.59375 
Q 56.25 8.5 59.515625 10.40625 
z
" id="DejaVuSans-47"/>
     <path d="M 53.515625 70.515625 
L 53.515625 60.890625 
Q 47.90625 63.578125 42.921875 64.890625 
Q 37.9375 66.21875 33.296875 66.21875 
Q 25.25 66.21875 20.875 63.09375 
Q 16.5 59.96875 16.5 54.203125 
Q 16.5 49.359375 19.40625 46.890625 
Q 22.3125 44.4375 30.421875 42.921875 
L 36.375 41.703125 
Q 47.40625 39.59375 52.65625 34.296875 
Q 57.90625 29 57.90625 20.125 
Q 57.90625 9.515625 50.796875 4.046875 
Q 43.703125 -1.421875 29.984375 -1.421875 
Q 24.8125 -1.421875 18.96875 -0.25 
Q 13.140625 0.921875 6.890625 3.21875 
L 6.890625 13.375 
Q 12.890625 10.015625 18.65625 8.296875 
Q 24.421875 6.59375 29.984375 6.59375 
Q 38.421875 6.59375 43.015625 9.90625 
Q 47.609375 13.234375 47.609375 19.390625 
Q 47.609375 24.75 44.3125 27.78125 
Q 41.015625 30.8125 33.5 32.328125 
L 27.484375 33.5 
Q 16.453125 35.6875 11.515625 40.375 
Q 6.59375 45.0625 6.59375 53.421875 
Q 6.59375 63.09375 13.40625 68.65625 
Q 20.21875 74.21875 32.171875 74.21875 
Q 37.3125 74.21875 42.625 73.28125 
Q 47.953125 72.359375 53.515625 70.515625 
z
" id="DejaVuSans-53"/>
    </defs>
    <g transform="translate(369.18424 156.979466)scale(0.17 -0.17)">
     <use xlink:href="#DejaVuSans-42"/>
     <use x="68.603516" xlink:href="#DejaVuSans-46"/>
     <use x="126.123047" xlink:href="#DejaVuSans-47"/>
     <use x="203.613281" xlink:href="#DejaVuSans-53"/>
     <use x="267.089844" xlink:href="#DejaVuSans-20"/>
     <use x="298.876953" xlink:href="#DejaVuSans-72"/>
     <use x="339.958984" xlink:href="#DejaVuSans-6f"/>
     <use x="401.140625" xlink:href="#DejaVuSans-73"/>
     <use x="453.240234" xlink:href="#DejaVuSans-20"/>
    </g>
   </g>
   <g id="text_15">
    <!-- best 2009 -->
    <defs>
     <path d="M 48.6875 27.296875 
Q 48.6875 37.203125 44.609375 42.84375 
Q 40.53125 48.484375 33.40625 48.484375 
Q 26.265625 48.484375 22.1875 42.84375 
Q 18.109375 37.203125 18.109375 27.296875 
Q 18.109375 17.390625 22.1875 11.75 
Q 26.265625 6.109375 33.40625 6.109375 
Q 40.53125 6.109375 44.609375 11.75 
Q 48.6875 17.390625 48.6875 27.296875 
z
M 18.109375 46.390625 
Q 20.953125 51.265625 25.265625 53.625 
Q 29.59375 56 35.59375 56 
Q 45.5625 56 51.78125 48.09375 
Q 58.015625 40.1875 58.015625 27.296875 
Q 58.015625 14.40625 51.78125 6.484375 
Q 45.5625 -1.421875 35.59375 -1.421875 
Q 29.59375 -1.421875 25.265625 0.953125 
Q 20.953125 3.328125 18.109375 8.203125 
L 18.109375 0 
L 9.078125 0 
L 9.078125 75.984375 
L 18.109375 75.984375 
z
" id="DejaVuSans-62"/>
     <path d="M 10.984375 1.515625 
L 10.984375 10.5 
Q 14.703125 8.734375 18.5 7.8125 
Q 22.3125 6.890625 25.984375 6.890625 
Q 35.75 6.890625 40.890625 13.453125 
Q 46.046875 20.015625 46.78125 33.40625 
Q 43.953125 29.203125 39.59375 26.953125 
Q 35.25 24.703125 29.984375 24.703125 
Q 19.046875 24.703125 12.671875 31.3125 
Q 6.296875 37.9375 6.296875 49.421875 
Q 6.296875 60.640625 12.9375 67.421875 
Q 19.578125 74.21875 30.609375 74.21875 
Q 43.265625 74.21875 49.921875 64.515625 
Q 56.59375 54.828125 56.59375 36.375 
Q 56.59375 19.140625 48.40625 8.859375 
Q 40.234375 -1.421875 26.421875 -1.421875 
Q 22.703125 -1.421875 18.890625 -0.6875 
Q 15.09375 0.046875 10.984375 1.515625 
z
M 30.609375 32.421875 
Q 37.25 32.421875 41.125 36.953125 
Q 45.015625 41.5 45.015625 49.421875 
Q 45.015625 57.28125 41.125 61.84375 
Q 37.25 66.40625 30.609375 66.40625 
Q 23.96875 66.40625 20.09375 61.84375 
Q 16.21875 57.28125 16.21875 49.421875 
Q 16.21875 41.5 20.09375 36.953125 
Q 23.96875 32.421875 30.609375 32.421875 
z
" id="DejaVuSans-39"/>
    </defs>
    <g transform="translate(369.18424 20.091654)scale(0.17 -0.17)">
     <use xlink:href="#DejaVuSans-62"/>
     <use x="63.476562" xlink:href="#DejaVuSans-65"/>
     <use x="125" xlink:href="#DejaVuSans-73"/>
     <use x="177.099609" xlink:href="#DejaVuSans-74"/>
     <use x="216.308594" xlink:href="#DejaVuSans-20"/>
     <use x="248.095703" xlink:href="#DejaVuSans-32"/>
     <use x="311.71875" xlink:href="#DejaVuSans-30"/>
     <use x="375.341797" xlink:href="#DejaVuSans-30"/>
     <use x="438.964844" xlink:href="#DejaVuSans-39"/>
    </g>
   </g>
   <g id="text_16">
    <!-- bbob f6-f9, 2-D -->
    <defs>
     <path d="M 19.671875 64.796875 
L 19.671875 8.109375 
L 31.59375 8.109375 
Q 46.6875 8.109375 53.6875 14.9375 
Q 60.6875 21.78125 60.6875 36.53125 
Q 60.6875 51.171875 53.6875 57.984375 
Q 46.6875 64.796875 31.59375 64.796875 
z
M 9.8125 72.90625 
L 30.078125 72.90625 
Q 51.265625 72.90625 61.171875 64.09375 
Q 71.09375 55.28125 71.09375 36.53125 
Q 71.09375 17.671875 61.125 8.828125 
Q 51.171875 0 30.078125 0 
L 9.8125 0 
z
" id="DejaVuSans-44"/>
    </defs>
    <g transform="translate(58.89048 17.475982)scale(0.102 -0.102)">
     <use xlink:href="#DejaVuSans-62"/>
     <use x="63.476562" xlink:href="#DejaVuSans-62"/>
     <use x="126.953125" xlink:href="#DejaVuSans-6f"/>
     <use x="188.134766" xlink:href="#DejaVuSans-62"/>
     <use x="251.611328" xlink:href="#DejaVuSans-20"/>
     <use x="283.398438" xlink:href="#DejaVuSans-66"/>
     <use x="318.603516" xlink:href="#DejaVuSans-36"/>
     <use x="382.226562" xlink:href="#DejaVuSans-2d"/>
     <use x="418.310547" xlink:href="#DejaVuSans-66"/>
     <use x="453.515625" xlink:href="#DejaVuSans-39"/>
     <use x="517.138672" xlink:href="#DejaVuSans-2c"/>
     <use x="548.925781" xlink:href="#DejaVuSans-20"/>
     <use x="580.712891" xlink:href="#DejaVuSans-32"/>
     <use x="644.335938" xlink:href="#DejaVuSans-2d"/>
     <use x="680.419922" xlink:href="#DejaVuSans-44"/>
    </g>
    <!-- 51 targets: 100..1e-08 -->
    <defs>
     <path d="M 10.796875 72.90625 
L 49.515625 72.90625 
L 49.515625 64.59375 
L 19.828125 64.59375 
L 19.828125 46.734375 
Q 21.96875 47.46875 24.109375 47.828125 
Q 26.265625 48.1875 28.421875 48.1875 
Q 40.625 48.1875 47.75 41.5 
Q 54.890625 34.8125 54.890625 23.390625 
Q 54.890625 11.625 47.5625 5.09375 
Q 40.234375 -1.421875 26.90625 -1.421875 
Q 22.3125 -1.421875 17.546875 -0.640625 
Q 12.796875 0.140625 7.71875 1.703125 
L 7.71875 11.625 
Q 12.109375 9.234375 16.796875 8.0625 
Q 21.484375 6.890625 26.703125 6.890625 
Q 35.15625 6.890625 40.078125 11.328125 
Q 45.015625 15.765625 45.015625 23.390625 
Q 45.015625 31 40.078125 35.4375 
Q 35.15625 39.890625 26.703125 39.890625 
Q 22.75 39.890625 18.8125 39.015625 
Q 14.890625 38.140625 10.796875 36.28125 
z
" id="DejaVuSans-35"/>
     <path d="M 11.71875 12.40625 
L 22.015625 12.40625 
L 22.015625 0 
L 11.71875 0 
z
M 11.71875 51.703125 
L 22.015625 51.703125 
L 22.015625 39.3125 
L 11.71875 39.3125 
z
" id="DejaVuSans-3a"/>
    </defs>
    <g transform="translate(58.89048 28.89775)scale(0.102 -0.102)">
     <use xlink:href="#DejaVuSans-35"/>
     <use x="63.623047" xlink:href="#DejaVuSans-31"/>
     <use x="127.246094" xlink:href="#DejaVuSans-20"/>
     <use x="159.033203" xlink:href="#DejaVuSans-74"/>
     <use x="198.242188" xlink:href="#DejaVuSans-61"/>
     <use x="259.521484" xlink:href="#DejaVuSans-72"/>
     <use x="300.619141" xlink:href="#DejaVuSans-67"/>
     <use x="364.095703" xlink:href="#DejaVuSans-65"/>
     <use x="425.619141" xlink:href="#DejaVuSans-74"/>
     <use x="464.828125" xlink:href="#DejaVuSans-73"/>
     <use x="516.927734" xlink:href="#DejaVuSans-3a"/>
     <use x="550.619141" xlink:href="#DejaVuSans-20"/>
     <use x="582.40625" xlink:href="#DejaVuSans-31"/>
     <use x="646.029297" xlink:href="#DejaVuSans-30"/>
     <use x="709.652344" xlink:href="#DejaVuSans-30"/>
     <use x="773.275391" xlink:href="#DejaVuSans-2e"/>
     <use x="805.0625" xlink:href="#DejaVuSans-2e"/>
     <use x="836.849609" xlink:href="#DejaVuSans-31"/>
     <use x="900.472656" xlink:href="#DejaVuSans-65"/>
     <use x="961.996094" xlink:href="#DejaVuSans-2d"/>
     <use x="998.080078" xlink:href="#DejaVuSans-30"/>
     <use x="1061.703125" xlink:href="#DejaVuSans-38"/>
    </g>
    <!-- 15 instances -->
    <g transform="translate(58.89048 40.319519)scale(0.102 -0.102)">
     <use xlink:href="#DejaVuSans-31"/>
     <use x="63.623047" xlink:href="#DejaVuSans-35"/>
     <use x="127.246094" xlink:href="#DejaVuSans-20"/>
     <use x="159.033203" xlink:href="#DejaVuSans-69"/>
     <use x="186.816406" xlink:href="#DejaVuSans-6e"/>
     <use x="250.195312" xlink:href="#DejaVuSans-73"/>
     <use x="302.294922" xlink:href="#DejaVuSans-74"/>
     <use x="341.503906" xlink:href="#DejaVuSans-61"/>
     <use x="402.783203" xlink:href="#DejaVuSans-6e"/>
     <use x="466.162109" xlink:href="#DejaVuSans-63"/>
     <use x="521.142578" xlink:href="#DejaVuSans-65"/>
     <use x="582.666016" xlink:href="#DejaVuSans-73"/>
    </g>
   </g>
   <g id="text_17">
    <!-- v0.0.0 -->
    <g style="fill:#808080;" transform="translate(178.96275 289.919965)scale(0.1 -0.1)">
     <use xlink:href="#DejaVuSans-76"/>
     <use x="59.179688" xlink:href="#DejaVuSans-30"/>
     <use x="122.802734" xlink:href="#DejaVuSans-2e"/>
     <use x="154.589844" xlink:href="#DejaVuSans-30"/>
     <use x="218.212891" xlink:href="#DejaVuSans-2e"/>
     <use x="250" xlink:href="#DejaVuSans-30"/>
    </g>
   </g>
  </g>
 </g>
 <defs>
  <clipPath id="p52307941b0">
   <rect height="288.034772" width="277.048" x="56.12" y="6.845228"/>
  </clipPath>
 </defs>
</svg>
