<?xml version="1.0" encoding="utf-8" standalone="no"?>
<!DOCTYPE svg PUBLIC "-//W3C//DTD SVG 1.1//EN"
  "http://www.w3.org/Graphics/SVG/1.1/DTD/svg11.dtd">
<!-- Created with matplotlib (http://matplotlib.org/) -->
<svg height="345pt" version="1.1" viewBox="0 0 460 345" width="460pt" xmlns="http://www.w3.org/2000/svg" xmlns:xlink="http://www.w3.org/1999/xlink">
 <defs>
  <style type="text/css">
*{stroke-linecap:butt;stroke-linejoin:round;}
  </style>
 </defs>
 <g id="figure_1">
  <g id="patch_1">
   <path d="M 0 345.6 
L 460.8 345.6 
L 460.8 0 
L 0 0 
z
" style="fill:#ffffff;"/>
  </g>
  <g id="axes_1">
   <g id="patch_2">
    <path d="M 56.12 294.88 
L 333.168 294.88 
L 333.168 6.845228 
L 56.12 6.845228 
z
" style="fill:#ffffff;"/>
   </g>
   <g id="line2d_1">
    <path d="M 28.455965 294.88 
L 28.455965 290.406542 
L 52.284468 290.406542 
L 52.284468 289.288178 
L 56.12 289.288178 
L 56.12 288.169813 
L 64.198719 288.169813 
L 64.198719 287.051449 
L 68.034251 287.051449 
L 68.034251 232.251589 
L 69.672503 232.251589 
L 69.672503 231.133225 
L 71.168109 231.133225 
L 71.168109 180.806823 
L 75.003641 180.806823 
L 75.003641 179.688458 
L 79.066841 179.688458 
L 79.066841 178.570094 
L 82.350819 178.570094 
L 82.350819 177.451729 
L 88.027221 177.451729 
L 88.027221 176.333365 
L 90.05175 176.333365 
L 90.05175 175.215 
L 100.207968 175.215 
L 100.207968 174.096636 
L 102.20309 174.096636 
L 102.20309 172.978271 
L 102.667676 172.978271 
L 102.667676 171.859907 
L 103.120034 171.859907 
L 103.120034 170.741543 
L 103.341826 170.741543 
L 103.341826 169.623178 
L 103.560793 169.623178 
L 103.560793 168.504814 
L 104.201437 168.504814 
L 104.201437 167.386449 
L 104.409787 167.386449 
L 104.409787 164.031356 
L 104.819059 164.031356 
L 104.819059 162.912991 
L 105.218813 162.912991 
L 105.218813 158.439533 
L 105.415256 158.439533 
L 105.415256 151.729346 
L 105.60948 151.729346 
L 105.60948 145.019159 
L 105.801534 145.019159 
L 105.801534 139.427337 
L 105.991465 139.427337 
L 105.991465 132.71715 
L 106.179321 132.71715 
L 106.179321 129.362057 
L 106.365146 129.362057 
L 106.365146 121.533505 
L 106.548983 121.533505 
L 106.548983 117.060047 
L 106.730875 117.060047 
L 106.730875 113.704954 
L 132.843288 113.704954 
L 132.843288 112.586589 
L 141.448529 112.586589 
L 141.448529 111.468225 
L 143.547583 111.468225 
L 143.547583 110.349861 
L 146.808451 110.349861 
L 146.808451 109.231496 
L 147.344828 109.231496 
L 147.344828 108.113132 
L 149.261127 108.113132 
L 149.321972 105.876403 
L 151.567774 105.876403 
L 151.567774 104.758038 
L 153.374779 104.758038 
L 153.374779 103.639674 
L 155.419288 103.639674 
L 155.504275 101.402945 
L 155.578296 101.402945 
L 155.68349 92.456029 
L 155.693974 92.456029 
L 155.798464 71.207104 
L 155.808878 71.207104 
L 155.871232 54.431636 
L 156.026132 54.431636 
L 156.128628 51.076543 
L 156.159258 51.076543 
L 156.189834 48.839814 
L 156.522625 48.839814 
L 156.632139 45.484721 
L 156.711349 45.484721 
L 156.711349 44.366356 
L 156.888249 44.366356 
L 156.888249 43.247992 
L 157.014888 43.247992 
L 157.014888 42.129627 
L 157.16948 42.129627 
L 157.16948 41.011263 
L 157.370295 41.011263 
L 157.455646 37.656169 
L 157.502881 37.656169 
L 157.502881 36.537805 
L 157.634451 36.537805 
L 157.634451 34.301076 
L 157.77431 34.301076 
L 157.802146 29.827618 
L 158.00491 29.827618 
L 158.09629 25.35416 
L 158.159969 25.35416 
L 158.268586 11.933786 
L 158.30464 11.933786 
L 158.30464 10.815422 
L 189.116033 10.815422 
L 189.116033 9.697057 
L 333.168 9.697057 
L 333.168 9.697057 
" style="fill:none;stroke:#f5deb3;stroke-linecap:square;stroke-width:4;"/>
   </g>
   <g id="line2d_2">
    <defs>
     <path d="M -0 7.778175 
L 7.778175 0 
L 0 -7.778175 
L -7.778175 -0 
z
" id="m786889c12d" style="stroke:#f5deb3;stroke-linejoin:miter;stroke-width:1.5;"/>
    </defs>
    <g>
     <use style="fill:#f5deb3;stroke:#f5deb3;stroke-linejoin:miter;stroke-width:1.5;" x="71.168109" xlink:href="#m786889c12d" y="231.133225"/>
     <use style="fill:#f5deb3;stroke:#f5deb3;stroke-linejoin:miter;stroke-width:1.5;" x="143.547583" xlink:href="#m786889c12d" y="110.349861"/>
     <use style="fill:#f5deb3;stroke:#f5deb3;stroke-linejoin:miter;stroke-width:1.5;" x="158.30464" xlink:href="#m786889c12d" y="10.815422"/>
     <use style="fill:#f5deb3;stroke:#f5deb3;stroke-linejoin:miter;stroke-width:1.5;" x="189.116033" xlink:href="#m786889c12d" y="9.697057"/>
     <use style="fill:#f5deb3;stroke:#f5deb3;stroke-linejoin:miter;stroke-width:1.5;" x="189.116033" xlink:href="#m786889c12d" y="9.697057"/>
     <use style="fill:#f5deb3;stroke:#f5deb3;stroke-linejoin:miter;stroke-width:1.5;" x="333.168" xlink:href="#m786889c12d" y="9.697057"/>
    </g>
   </g>
   <g id="line2d_3">
    <path style="fill:none;stroke:#f5deb3;stroke-linecap:square;stroke-width:4;"/>
    <g/>
   </g>
   <g id="line2d_4">
    <path d="M 333.168 9.697057 
L 363.64328 15.400716 
" style="fill:none;stroke:#f5deb3;stroke-linecap:square;stroke-width:4;"/>
    <g>
     <use style="fill:#f5deb3;stroke:#f5deb3;stroke-linejoin:miter;stroke-width:1.5;" x="333.168" xlink:href="#m786889c12d" y="9.697057"/>
     <use style="fill:#f5deb3;stroke:#f5deb3;stroke-linejoin:miter;stroke-width:1.5;" x="363.64328" xlink:href="#m786889c12d" y="15.400716"/>
    </g>
   </g>
   <g id="matplotlib.axis_1">
    <g id="xtick_1">
     <g id="line2d_5">
      <path clip-path="url(#p351e2ee59e)" d="M 56.12 294.88 
L 56.12 6.845228 
" style="fill:none;stroke:#b0b0b0;stroke-linecap:square;stroke-width:0.8;"/>
     </g>
     <g id="line2d_6">
      <defs>
       <path d="M 0 0 
L 0 3.5 
" id="mabd9ddb12e" style="stroke:#000000;stroke-width:0.8;"/>
      </defs>
      <g>
       <use style="stroke:#000000;stroke-width:0.8;" x="56.12" xlink:href="#mabd9ddb12e" y="294.88"/>
      </g>
     </g>
     <g id="text_1">
      <!-- 0 -->
      <defs>
       <path d="M 31.78125 66.40625 
Q 24.171875 66.40625 20.328125 58.90625 
Q 16.5 51.421875 16.5 36.375 
Q 16.5 21.390625 20.328125 13.890625 
Q 24.171875 6.390625 31.78125 6.390625 
Q 39.453125 6.390625 43.28125 13.890625 
Q 47.125 21.390625 47.125 36.375 
Q 47.125 51.421875 43.28125 58.90625 
Q 39.453125 66.40625 31.78125 66.40625 
z
M 31.78125 74.21875 
Q 44.046875 74.21875 50.515625 64.515625 
Q 56.984375 54.828125 56.984375 36.375 
Q 56.984375 17.96875 50.515625 8.265625 
Q 44.046875 -1.421875 31.78125 -1.421875 
Q 19.53125 -1.421875 13.0625 8.265625 
Q 6.59375 17.96875 6.59375 36.375 
Q 6.59375 54.828125 13.0625 64.515625 
Q 19.53125 74.21875 31.78125 74.21875 
z
" id="DejaVuSans-30"/>
      </defs>
      <g transform="translate(49.7575 317.076875)scale(0.2 -0.2)">
       <use xlink:href="#DejaVuSans-30"/>
      </g>
     </g>
    </g>
    <g id="xtick_2">
     <g id="line2d_7">
      <path clip-path="url(#p351e2ee59e)" d="M 135.276571 294.88 
L 135.276571 6.845228 
" style="fill:none;stroke:#b0b0b0;stroke-linecap:square;stroke-width:0.8;"/>
     </g>
     <g id="line2d_8">
      <g>
       <use style="stroke:#000000;stroke-width:0.8;" x="135.276571" xlink:href="#mabd9ddb12e" y="294.88"/>
      </g>
     </g>
     <g id="text_2">
      <!-- 2 -->
      <defs>
       <path d="M 19.1875 8.296875 
L 53.609375 8.296875 
L 53.609375 0 
L 7.328125 0 
L 7.328125 8.296875 
Q 12.9375 14.109375 22.625 23.890625 
Q 32.328125 33.6875 34.8125 36.53125 
Q 39.546875 41.84375 41.421875 45.53125 
Q 43.3125 49.21875 43.3125 52.78125 
Q 43.3125 58.59375 39.234375 62.25 
Q 35.15625 65.921875 28.609375 65.921875 
Q 23.96875 65.921875 18.8125 64.3125 
Q 13.671875 62.703125 7.8125 59.421875 
L 7.8125 69.390625 
Q 13.765625 71.78125 18.9375 73 
Q 24.125 74.21875 28.421875 74.21875 
Q 39.75 74.21875 46.484375 68.546875 
Q 53.21875 62.890625 53.21875 53.421875 
Q 53.21875 48.921875 51.53125 44.890625 
Q 49.859375 40.875 45.40625 35.40625 
Q 44.1875 33.984375 37.640625 27.21875 
Q 31.109375 20.453125 19.1875 8.296875 
z
" id="DejaVuSans-32"/>
      </defs>
      <g transform="translate(128.914071 317.076875)scale(0.2 -0.2)">
       <use xlink:href="#DejaVuSans-32"/>
      </g>
     </g>
    </g>
    <g id="xtick_3">
     <g id="line2d_9">
      <path clip-path="url(#p351e2ee59e)" d="M 214.433143 294.88 
L 214.433143 6.845228 
" style="fill:none;stroke:#b0b0b0;stroke-linecap:square;stroke-width:0.8;"/>
     </g>
     <g id="line2d_10">
      <g>
       <use style="stroke:#000000;stroke-width:0.8;" x="214.433143" xlink:href="#mabd9ddb12e" y="294.88"/>
      </g>
     </g>
     <g id="text_3">
      <!-- 4 -->
      <defs>
       <path d="M 37.796875 64.3125 
L 12.890625 25.390625 
L 37.796875 25.390625 
z
M 35.203125 72.90625 
L 47.609375 72.90625 
L 47.609375 25.390625 
L 58.015625 25.390625 
L 58.015625 17.1875 
L 47.609375 17.1875 
L 47.609375 0 
L 37.796875 0 
L 37.796875 17.1875 
L 4.890625 17.1875 
L 4.890625 26.703125 
z
" id="DejaVuSans-34"/>
      </defs>
      <g transform="translate(208.070643 317.076875)scale(0.2 -0.2)">
       <use xlink:href="#DejaVuSans-34"/>
      </g>
     </g>
    </g>
    <g id="xtick_4">
     <g id="line2d_11">
      <path clip-path="url(#p351e2ee59e)" d="M 293.589714 294.88 
L 293.589714 6.845228 
" style="fill:none;stroke:#b0b0b0;stroke-linecap:square;stroke-width:0.8;"/>
     </g>
     <g id="line2d_12">
      <g>
       <use style="stroke:#000000;stroke-width:0.8;" x="293.589714" xlink:href="#mabd9ddb12e" y="294.88"/>
      </g>
     </g>
     <g id="text_4">
      <!-- 6 -->
      <defs>
       <path d="M 33.015625 40.375 
Q 26.375 40.375 22.484375 35.828125 
Q 18.609375 31.296875 18.609375 23.390625 
Q 18.609375 15.53125 22.484375 10.953125 
Q 26.375 6.390625 33.015625 6.390625 
Q 39.65625 6.390625 43.53125 10.953125 
Q 47.40625 15.53125 47.40625 23.390625 
Q 47.40625 31.296875 43.53125 35.828125 
Q 39.65625 40.375 33.015625 40.375 
z
M 52.59375 71.296875 
L 52.59375 62.3125 
Q 48.875 64.0625 45.09375 64.984375 
Q 41.3125 65.921875 37.59375 65.921875 
Q 27.828125 65.921875 22.671875 59.328125 
Q 17.53125 52.734375 16.796875 39.40625 
Q 19.671875 43.65625 24.015625 45.921875 
Q 28.375 48.1875 33.59375 48.1875 
Q 44.578125 48.1875 50.953125 41.515625 
Q 57.328125 34.859375 57.328125 23.390625 
Q 57.328125 12.15625 50.6875 5.359375 
Q 44.046875 -1.421875 33.015625 -1.421875 
Q 20.359375 -1.421875 13.671875 8.265625 
Q 6.984375 17.96875 6.984375 36.375 
Q 6.984375 53.65625 15.1875 63.9375 
Q 23.390625 74.21875 37.203125 74.21875 
Q 40.921875 74.21875 44.703125 73.484375 
Q 48.484375 72.75 52.59375 71.296875 
z
" id="DejaVuSans-36"/>
      </defs>
      <g transform="translate(287.227214 317.076875)scale(0.2 -0.2)">
       <use xlink:href="#DejaVuSans-36"/>
      </g>
     </g>
    </g>
    <g id="xtick_5">
     <g id="line2d_13">
      <path clip-path="url(#p351e2ee59e)" d="M 56.12 294.88 
L 56.12 6.845228 
" style="fill:none;stroke:#b0b0b0;stroke-linecap:square;stroke-width:0.8;"/>
     </g>
     <g id="line2d_14">
      <defs>
       <path d="M 0 0 
L 0 2 
" id="mb1799481ee" style="stroke:#000000;stroke-width:0.6;"/>
      </defs>
      <g>
       <use style="stroke:#000000;stroke-width:0.6;" x="56.12" xlink:href="#mb1799481ee" y="294.88"/>
      </g>
     </g>
    </g>
    <g id="xtick_6">
     <g id="line2d_15">
      <path clip-path="url(#p351e2ee59e)" d="M 95.698286 294.88 
L 95.698286 6.845228 
" style="fill:none;stroke:#b0b0b0;stroke-linecap:square;stroke-width:0.8;"/>
     </g>
     <g id="line2d_16">
      <g>
       <use style="stroke:#000000;stroke-width:0.6;" x="95.698286" xlink:href="#mb1799481ee" y="294.88"/>
      </g>
     </g>
    </g>
    <g id="xtick_7">
     <g id="line2d_17">
      <path clip-path="url(#p351e2ee59e)" d="M 135.276571 294.88 
L 135.276571 6.845228 
" style="fill:none;stroke:#b0b0b0;stroke-linecap:square;stroke-width:0.8;"/>
     </g>
     <g id="line2d_18">
      <g>
       <use style="stroke:#000000;stroke-width:0.6;" x="135.276571" xlink:href="#mb1799481ee" y="294.88"/>
      </g>
     </g>
    </g>
    <g id="xtick_8">
     <g id="line2d_19">
      <path clip-path="url(#p351e2ee59e)" d="M 174.854857 294.88 
L 174.854857 6.845228 
" style="fill:none;stroke:#b0b0b0;stroke-linecap:square;stroke-width:0.8;"/>
     </g>
     <g id="line2d_20">
      <g>
       <use style="stroke:#000000;stroke-width:0.6;" x="174.854857" xlink:href="#mb1799481ee" y="294.88"/>
      </g>
     </g>
    </g>
    <g id="xtick_9">
     <g id="line2d_21">
      <path clip-path="url(#p351e2ee59e)" d="M 214.433143 294.88 
L 214.433143 6.845228 
" style="fill:none;stroke:#b0b0b0;stroke-linecap:square;stroke-width:0.8;"/>
     </g>
     <g id="line2d_22">
      <g>
       <use style="stroke:#000000;stroke-width:0.6;" x="214.433143" xlink:href="#mb1799481ee" y="294.88"/>
      </g>
     </g>
    </g>
    <g id="xtick_10">
     <g id="line2d_23">
      <path clip-path="url(#p351e2ee59e)" d="M 254.011429 294.88 
L 254.011429 6.845228 
" style="fill:none;stroke:#b0b0b0;stroke-linecap:square;stroke-width:0.8;"/>
     </g>
     <g id="line2d_24">
      <g>
       <use style="stroke:#000000;stroke-width:0.6;" x="254.011429" xlink:href="#mb1799481ee" y="294.88"/>
      </g>
     </g>
    </g>
    <g id="xtick_11">
     <g id="line2d_25">
      <path clip-path="url(#p351e2ee59e)" d="M 293.589714 294.88 
L 293.589714 6.845228 
" style="fill:none;stroke:#b0b0b0;stroke-linecap:square;stroke-width:0.8;"/>
     </g>
     <g id="line2d_26">
      <g>
       <use style="stroke:#000000;stroke-width:0.6;" x="293.589714" xlink:href="#mb1799481ee" y="294.88"/>
      </g>
     </g>
    </g>
    <g id="xtick_12">
     <g id="line2d_27">
      <path clip-path="url(#p351e2ee59e)" d="M 333.168 294.88 
L 333.168 6.845228 
" style="fill:none;stroke:#b0b0b0;stroke-linecap:square;stroke-width:0.8;"/>
     </g>
     <g id="line2d_28">
      <g>
       <use style="stroke:#000000;stroke-width:0.6;" x="333.168" xlink:href="#mb1799481ee" y="294.88"/>
      </g>
     </g>
    </g>
    <g id="text_5">
     <!-- log10(# f-evals / dimension) -->
     <defs>
      <path d="M 9.421875 75.984375 
L 18.40625 75.984375 
L 18.40625 0 
L 9.421875 0 
z
" id="DejaVuSans-6c"/>
      <path d="M 30.609375 48.390625 
Q 23.390625 48.390625 19.1875 42.75 
Q 14.984375 37.109375 14.984375 27.296875 
Q 14.984375 17.484375 19.15625 11.84375 
Q 23.34375 6.203125 30.609375 6.203125 
Q 37.796875 6.203125 41.984375 11.859375 
Q 46.1875 17.53125 46.1875 27.296875 
Q 46.1875 37.015625 41.984375 42.703125 
Q 37.796875 48.390625 30.609375 48.390625 
z
M 30.609375 56 
Q 42.328125 56 49.015625 48.375 
Q 55.71875 40.765625 55.71875 27.296875 
Q 55.71875 13.875 49.015625 6.21875 
Q 42.328125 -1.421875 30.609375 -1.421875 
Q 18.84375 -1.421875 12.171875 6.21875 
Q 5.515625 13.875 5.515625 27.296875 
Q 5.515625 40.765625 12.171875 48.375 
Q 18.84375 56 30.609375 56 
z
" id="DejaVuSans-6f"/>
      <path d="M 45.40625 27.984375 
Q 45.40625 37.75 41.375 43.109375 
Q 37.359375 48.484375 30.078125 48.484375 
Q 22.859375 48.484375 18.828125 43.109375 
Q 14.796875 37.75 14.796875 27.984375 
Q 14.796875 18.265625 18.828125 12.890625 
Q 22.859375 7.515625 30.078125 7.515625 
Q 37.359375 7.515625 41.375 12.890625 
Q 45.40625 18.265625 45.40625 27.984375 
z
M 54.390625 6.78125 
Q 54.390625 -7.171875 48.1875 -13.984375 
Q 42 -20.796875 29.203125 -20.796875 
Q 24.46875 -20.796875 20.265625 -20.09375 
Q 16.0625 -19.390625 12.109375 -17.921875 
L 12.109375 -9.1875 
Q 16.0625 -11.328125 19.921875 -12.34375 
Q 23.78125 -13.375 27.78125 -13.375 
Q 36.625 -13.375 41.015625 -8.765625 
Q 45.40625 -4.15625 45.40625 5.171875 
L 45.40625 9.625 
Q 42.625 4.78125 38.28125 2.390625 
Q 33.9375 0 27.875 0 
Q 17.828125 0 11.671875 7.65625 
Q 5.515625 15.328125 5.515625 27.984375 
Q 5.515625 40.671875 11.671875 48.328125 
Q 17.828125 56 27.875 56 
Q 33.9375 56 38.28125 53.609375 
Q 42.625 51.21875 45.40625 46.390625 
L 45.40625 54.6875 
L 54.390625 54.6875 
z
" id="DejaVuSans-67"/>
      <path d="M 12.40625 8.296875 
L 28.515625 8.296875 
L 28.515625 63.921875 
L 10.984375 60.40625 
L 10.984375 69.390625 
L 28.421875 72.90625 
L 38.28125 72.90625 
L 38.28125 8.296875 
L 54.390625 8.296875 
L 54.390625 0 
L 12.40625 0 
z
" id="DejaVuSans-31"/>
      <path d="M 31 75.875 
Q 24.46875 64.65625 21.28125 53.65625 
Q 18.109375 42.671875 18.109375 31.390625 
Q 18.109375 20.125 21.3125 9.0625 
Q 24.515625 -2 31 -13.1875 
L 23.1875 -13.1875 
Q 15.875 -1.703125 12.234375 9.375 
Q 8.59375 20.453125 8.59375 31.390625 
Q 8.59375 42.28125 12.203125 53.3125 
Q 15.828125 64.359375 23.1875 75.875 
z
" id="DejaVuSans-28"/>
      <path d="M 51.125 44 
L 36.921875 44 
L 32.8125 27.6875 
L 47.125 27.6875 
z
M 43.796875 71.78125 
L 38.71875 51.515625 
L 52.984375 51.515625 
L 58.109375 71.78125 
L 65.921875 71.78125 
L 60.890625 51.515625 
L 76.125 51.515625 
L 76.125 44 
L 58.984375 44 
L 54.984375 27.6875 
L 70.515625 27.6875 
L 70.515625 20.21875 
L 53.078125 20.21875 
L 48 0 
L 40.1875 0 
L 45.21875 20.21875 
L 30.90625 20.21875 
L 25.875 0 
L 18.015625 0 
L 23.09375 20.21875 
L 7.71875 20.21875 
L 7.71875 27.6875 
L 24.90625 27.6875 
L 29 44 
L 13.28125 44 
L 13.28125 51.515625 
L 30.90625 51.515625 
L 35.890625 71.78125 
z
" id="DejaVuSans-23"/>
      <path id="DejaVuSans-20"/>
      <path d="M 37.109375 75.984375 
L 37.109375 68.5 
L 28.515625 68.5 
Q 23.6875 68.5 21.796875 66.546875 
Q 19.921875 64.59375 19.921875 59.515625 
L 19.921875 54.6875 
L 34.71875 54.6875 
L 34.71875 47.703125 
L 19.921875 47.703125 
L 19.921875 0 
L 10.890625 0 
L 10.890625 47.703125 
L 2.296875 47.703125 
L 2.296875 54.6875 
L 10.890625 54.6875 
L 10.890625 58.5 
Q 10.890625 67.625 15.140625 71.796875 
Q 19.390625 75.984375 28.609375 75.984375 
z
" id="DejaVuSans-66"/>
      <path d="M 4.890625 31.390625 
L 31.203125 31.390625 
L 31.203125 23.390625 
L 4.890625 23.390625 
z
" id="DejaVuSans-2d"/>
      <path d="M 56.203125 29.59375 
L 56.203125 25.203125 
L 14.890625 25.203125 
Q 15.484375 15.921875 20.484375 11.0625 
Q 25.484375 6.203125 34.421875 6.203125 
Q 39.59375 6.203125 44.453125 7.46875 
Q 49.3125 8.734375 54.109375 11.28125 
L 54.109375 2.78125 
Q 49.265625 0.734375 44.1875 -0.34375 
Q 39.109375 -1.421875 33.890625 -1.421875 
Q 20.796875 -1.421875 13.15625 6.1875 
Q 5.515625 13.8125 5.515625 26.8125 
Q 5.515625 40.234375 12.765625 48.109375 
Q 20.015625 56 32.328125 56 
Q 43.359375 56 49.78125 48.890625 
Q 56.203125 41.796875 56.203125 29.59375 
z
M 47.21875 32.234375 
Q 47.125 39.59375 43.09375 43.984375 
Q 39.0625 48.390625 32.421875 48.390625 
Q 24.90625 48.390625 20.390625 44.140625 
Q 15.875 39.890625 15.1875 32.171875 
z
" id="DejaVuSans-65"/>
      <path d="M 2.984375 54.6875 
L 12.5 54.6875 
L 29.59375 8.796875 
L 46.6875 54.6875 
L 56.203125 54.6875 
L 35.6875 0 
L 23.484375 0 
z
" id="DejaVuSans-76"/>
      <path d="M 34.28125 27.484375 
Q 23.390625 27.484375 19.1875 25 
Q 14.984375 22.515625 14.984375 16.5 
Q 14.984375 11.71875 18.140625 8.90625 
Q 21.296875 6.109375 26.703125 6.109375 
Q 34.1875 6.109375 38.703125 11.40625 
Q 43.21875 16.703125 43.21875 25.484375 
L 43.21875 27.484375 
z
M 52.203125 31.203125 
L 52.203125 0 
L 43.21875 0 
L 43.21875 8.296875 
Q 40.140625 3.328125 35.546875 0.953125 
Q 30.953125 -1.421875 24.3125 -1.421875 
Q 15.921875 -1.421875 10.953125 3.296875 
Q 6 8.015625 6 15.921875 
Q 6 25.140625 12.171875 29.828125 
Q 18.359375 34.515625 30.609375 34.515625 
L 43.21875 34.515625 
L 43.21875 35.40625 
Q 43.21875 41.609375 39.140625 45 
Q 35.0625 48.390625 27.6875 48.390625 
Q 23 48.390625 18.546875 47.265625 
Q 14.109375 46.140625 10.015625 43.890625 
L 10.015625 52.203125 
Q 14.9375 54.109375 19.578125 55.046875 
Q 24.21875 56 28.609375 56 
Q 40.484375 56 46.34375 49.84375 
Q 52.203125 43.703125 52.203125 31.203125 
z
" id="DejaVuSans-61"/>
      <path d="M 44.28125 53.078125 
L 44.28125 44.578125 
Q 40.484375 46.53125 36.375 47.5 
Q 32.28125 48.484375 27.875 48.484375 
Q 21.1875 48.484375 17.84375 46.4375 
Q 14.5 44.390625 14.5 40.28125 
Q 14.5 37.15625 16.890625 35.375 
Q 19.28125 33.59375 26.515625 31.984375 
L 29.59375 31.296875 
Q 39.15625 29.25 43.1875 25.515625 
Q 47.21875 21.78125 47.21875 15.09375 
Q 47.21875 7.46875 41.1875 3.015625 
Q 35.15625 -1.421875 24.609375 -1.421875 
Q 20.21875 -1.421875 15.453125 -0.5625 
Q 10.6875 0.296875 5.421875 2 
L 5.421875 11.28125 
Q 10.40625 8.6875 15.234375 7.390625 
Q 20.0625 6.109375 24.8125 6.109375 
Q 31.15625 6.109375 34.5625 8.28125 
Q 37.984375 10.453125 37.984375 14.40625 
Q 37.984375 18.0625 35.515625 20.015625 
Q 33.0625 21.96875 24.703125 23.78125 
L 21.578125 24.515625 
Q 13.234375 26.265625 9.515625 29.90625 
Q 5.8125 33.546875 5.8125 39.890625 
Q 5.8125 47.609375 11.28125 51.796875 
Q 16.75 56 26.8125 56 
Q 31.78125 56 36.171875 55.265625 
Q 40.578125 54.546875 44.28125 53.078125 
z
" id="DejaVuSans-73"/>
      <path d="M 25.390625 72.90625 
L 33.6875 72.90625 
L 8.296875 -9.28125 
L 0 -9.28125 
z
" id="DejaVuSans-2f"/>
      <path d="M 45.40625 46.390625 
L 45.40625 75.984375 
L 54.390625 75.984375 
L 54.390625 0 
L 45.40625 0 
L 45.40625 8.203125 
Q 42.578125 3.328125 38.25 0.953125 
Q 33.9375 -1.421875 27.875 -1.421875 
Q 17.96875 -1.421875 11.734375 6.484375 
Q 5.515625 14.40625 5.515625 27.296875 
Q 5.515625 40.1875 11.734375 48.09375 
Q 17.96875 56 27.875 56 
Q 33.9375 56 38.25 53.625 
Q 42.578125 51.265625 45.40625 46.390625 
z
M 14.796875 27.296875 
Q 14.796875 17.390625 18.875 11.75 
Q 22.953125 6.109375 30.078125 6.109375 
Q 37.203125 6.109375 41.296875 11.75 
Q 45.40625 17.390625 45.40625 27.296875 
Q 45.40625 37.203125 41.296875 42.84375 
Q 37.203125 48.484375 30.078125 48.484375 
Q 22.953125 48.484375 18.875 42.84375 
Q 14.796875 37.203125 14.796875 27.296875 
z
" id="DejaVuSans-64"/>
      <path d="M 9.421875 54.6875 
L 18.40625 54.6875 
L 18.40625 0 
L 9.421875 0 
z
M 9.421875 75.984375 
L 18.40625 75.984375 
L 18.40625 64.59375 
L 9.421875 64.59375 
z
" id="DejaVuSans-69"/>
      <path d="M 52 44.1875 
Q 55.375 50.25 60.0625 53.125 
Q 64.75 56 71.09375 56 
Q 79.640625 56 84.28125 50.015625 
Q 88.921875 44.046875 88.921875 33.015625 
L 88.921875 0 
L 79.890625 0 
L 79.890625 32.71875 
Q 79.890625 40.578125 77.09375 44.375 
Q 74.3125 48.1875 68.609375 48.1875 
Q 61.625 48.1875 57.5625 43.546875 
Q 53.515625 38.921875 53.515625 30.90625 
L 53.515625 0 
L 44.484375 0 
L 44.484375 32.71875 
Q 44.484375 40.625 41.703125 44.40625 
Q 38.921875 48.1875 33.109375 48.1875 
Q 26.21875 48.1875 22.15625 43.53125 
Q 18.109375 38.875 18.109375 30.90625 
L 18.109375 0 
L 9.078125 0 
L 9.078125 54.6875 
L 18.109375 54.6875 
L 18.109375 46.1875 
Q 21.1875 51.21875 25.484375 53.609375 
Q 29.78125 56 35.6875 56 
Q 41.65625 56 45.828125 52.96875 
Q 50 49.953125 52 44.1875 
z
" id="DejaVuSans-6d"/>
      <path d="M 54.890625 33.015625 
L 54.890625 0 
L 45.90625 0 
L 45.90625 32.71875 
Q 45.90625 40.484375 42.875 44.328125 
Q 39.84375 48.1875 33.796875 48.1875 
Q 26.515625 48.1875 22.3125 43.546875 
Q 18.109375 38.921875 18.109375 30.90625 
L 18.109375 0 
L 9.078125 0 
L 9.078125 54.6875 
L 18.109375 54.6875 
L 18.109375 46.1875 
Q 21.34375 51.125 25.703125 53.5625 
Q 30.078125 56 35.796875 56 
Q 45.21875 56 50.046875 50.171875 
Q 54.890625 44.34375 54.890625 33.015625 
z
" id="DejaVuSans-6e"/>
      <path d="M 8.015625 75.875 
L 15.828125 75.875 
Q 23.140625 64.359375 26.78125 53.3125 
Q 30.421875 42.28125 30.421875 31.390625 
Q 30.421875 20.453125 26.78125 9.375 
Q 23.140625 -1.703125 15.828125 -13.1875 
L 8.015625 -13.1875 
Q 14.5 -2 17.703125 9.0625 
Q 20.90625 20.125 20.90625 31.390625 
Q 20.90625 42.671875 17.703125 53.65625 
Q 14.5 64.65625 8.015625 75.875 
z
" id="DejaVuSans-29"/>
     </defs>
     <g transform="translate(73.803219 338.153594)scale(0.17 -0.17)">
      <use xlink:href="#DejaVuSans-6c"/>
      <use x="27.783203" xlink:href="#DejaVuSans-6f"/>
      <use x="88.964844" xlink:href="#DejaVuSans-67"/>
      <use x="152.441406" xlink:href="#DejaVuSans-31"/>
      <use x="216.064453" xlink:href="#DejaVuSans-30"/>
      <use x="279.6875" xlink:href="#DejaVuSans-28"/>
      <use x="318.701172" xlink:href="#DejaVuSans-23"/>
      <use x="402.490234" xlink:href="#DejaVuSans-20"/>
      <use x="434.277344" xlink:href="#DejaVuSans-66"/>
      <use x="469.404297" xlink:href="#DejaVuSans-2d"/>
      <use x="505.488281" xlink:href="#DejaVuSans-65"/>
      <use x="567.011719" xlink:href="#DejaVuSans-76"/>
      <use x="626.191406" xlink:href="#DejaVuSans-61"/>
      <use x="687.470703" xlink:href="#DejaVuSans-6c"/>
      <use x="715.253906" xlink:href="#DejaVuSans-73"/>
      <use x="767.353516" xlink:href="#DejaVuSans-20"/>
      <use x="799.140625" xlink:href="#DejaVuSans-2f"/>
      <use x="832.832031" xlink:href="#DejaVuSans-20"/>
      <use x="864.619141" xlink:href="#DejaVuSans-64"/>
      <use x="928.095703" xlink:href="#DejaVuSans-69"/>
      <use x="955.878906" xlink:href="#DejaVuSans-6d"/>
      <use x="1053.291016" xlink:href="#DejaVuSans-65"/>
      <use x="1114.814453" xlink:href="#DejaVuSans-6e"/>
      <use x="1178.193359" xlink:href="#DejaVuSans-73"/>
      <use x="1230.292969" xlink:href="#DejaVuSans-69"/>
      <use x="1258.076172" xlink:href="#DejaVuSans-6f"/>
      <use x="1319.257812" xlink:href="#DejaVuSans-6e"/>
      <use x="1382.636719" xlink:href="#DejaVuSans-29"/>
     </g>
    </g>
   </g>
   <g id="matplotlib.axis_2">
    <g id="ytick_1">
     <g id="line2d_29">
      <path clip-path="url(#p351e2ee59e)" d="M 56.12 294.88 
L 333.168 294.88 
" style="fill:none;stroke:#b0b0b0;stroke-linecap:square;stroke-width:0.8;"/>
     </g>
     <g id="line2d_30">
      <defs>
       <path d="M 0 0 
L -3.5 0 
" id="m453586b1a2" style="stroke:#000000;stroke-width:0.8;"/>
      </defs>
      <g>
       <use style="stroke:#000000;stroke-width:0.8;" x="56.12" xlink:href="#m453586b1a2" y="294.88"/>
      </g>
     </g>
     <g id="text_6">
      <!-- 0.0 -->
      <defs>
       <path d="M 10.6875 12.40625 
L 21 12.40625 
L 21 0 
L 10.6875 0 
z
" id="DejaVuSans-2e"/>
      </defs>
      <g transform="translate(23.675 300.95875)scale(0.16 -0.16)">
       <use xlink:href="#DejaVuSans-30"/>
       <use x="63.623047" xlink:href="#DejaVuSans-2e"/>
       <use x="95.410156" xlink:href="#DejaVuSans-30"/>
      </g>
     </g>
    </g>
    <g id="ytick_2">
     <g id="line2d_31">
      <path clip-path="url(#p351e2ee59e)" d="M 56.12 237.843411 
L 333.168 237.843411 
" style="fill:none;stroke:#b0b0b0;stroke-linecap:square;stroke-width:0.8;"/>
     </g>
     <g id="line2d_32">
      <g>
       <use style="stroke:#000000;stroke-width:0.8;" x="56.12" xlink:href="#m453586b1a2" y="237.843411"/>
      </g>
     </g>
     <g id="text_7">
      <!-- 0.2 -->
      <g transform="translate(23.675 243.922161)scale(0.16 -0.16)">
       <use xlink:href="#DejaVuSans-30"/>
       <use x="63.623047" xlink:href="#DejaVuSans-2e"/>
       <use x="95.410156" xlink:href="#DejaVuSans-32"/>
      </g>
     </g>
    </g>
    <g id="ytick_3">
     <g id="line2d_33">
      <path clip-path="url(#p351e2ee59e)" d="M 56.12 180.806823 
L 333.168 180.806823 
" style="fill:none;stroke:#b0b0b0;stroke-linecap:square;stroke-width:0.8;"/>
     </g>
     <g id="line2d_34">
      <g>
       <use style="stroke:#000000;stroke-width:0.8;" x="56.12" xlink:href="#m453586b1a2" y="180.806823"/>
      </g>
     </g>
     <g id="text_8">
      <!-- 0.4 -->
      <g transform="translate(23.675 186.885573)scale(0.16 -0.16)">
       <use xlink:href="#DejaVuSans-30"/>
       <use x="63.623047" xlink:href="#DejaVuSans-2e"/>
       <use x="95.410156" xlink:href="#DejaVuSans-34"/>
      </g>
     </g>
    </g>
    <g id="ytick_4">
     <g id="line2d_35">
      <path clip-path="url(#p351e2ee59e)" d="M 56.12 123.770234 
L 333.168 123.770234 
" style="fill:none;stroke:#b0b0b0;stroke-linecap:square;stroke-width:0.8;"/>
     </g>
     <g id="line2d_36">
      <g>
       <use style="stroke:#000000;stroke-width:0.8;" x="56.12" xlink:href="#m453586b1a2" y="123.770234"/>
      </g>
     </g>
     <g id="text_9">
      <!-- 0.6 -->
      <g transform="translate(23.675 129.848984)scale(0.16 -0.16)">
       <use xlink:href="#DejaVuSans-30"/>
       <use x="63.623047" xlink:href="#DejaVuSans-2e"/>
       <use x="95.410156" xlink:href="#DejaVuSans-36"/>
      </g>
     </g>
    </g>
    <g id="ytick_5">
     <g id="line2d_37">
      <path clip-path="url(#p351e2ee59e)" d="M 56.12 66.733646 
L 333.168 66.733646 
" style="fill:none;stroke:#b0b0b0;stroke-linecap:square;stroke-width:0.8;"/>
     </g>
     <g id="line2d_38">
      <g>
       <use style="stroke:#000000;stroke-width:0.8;" x="56.12" xlink:href="#m453586b1a2" y="66.733646"/>
      </g>
     </g>
     <g id="text_10">
      <!-- 0.8 -->
      <defs>
       <path d="M 31.78125 34.625 
Q 24.75 34.625 20.71875 30.859375 
Q 16.703125 27.09375 16.703125 20.515625 
Q 16.703125 13.921875 20.71875 10.15625 
Q 24.75 6.390625 31.78125 6.390625 
Q 38.8125 6.390625 42.859375 10.171875 
Q 46.921875 13.96875 46.921875 20.515625 
Q 46.921875 27.09375 42.890625 30.859375 
Q 38.875 34.625 31.78125 34.625 
z
M 21.921875 38.8125 
Q 15.578125 40.375 12.03125 44.71875 
Q 8.5 49.078125 8.5 55.328125 
Q 8.5 64.0625 14.71875 69.140625 
Q 20.953125 74.21875 31.78125 74.21875 
Q 42.671875 74.21875 48.875 69.140625 
Q 55.078125 64.0625 55.078125 55.328125 
Q 55.078125 49.078125 51.53125 44.71875 
Q 48 40.375 41.703125 38.8125 
Q 48.828125 37.15625 52.796875 32.3125 
Q 56.78125 27.484375 56.78125 20.515625 
Q 56.78125 9.90625 50.3125 4.234375 
Q 43.84375 -1.421875 31.78125 -1.421875 
Q 19.734375 -1.421875 13.25 4.234375 
Q 6.78125 9.90625 6.78125 20.515625 
Q 6.78125 27.484375 10.78125 32.3125 
Q 14.796875 37.15625 21.921875 38.8125 
z
M 18.3125 54.390625 
Q 18.3125 48.734375 21.84375 45.5625 
Q 25.390625 42.390625 31.78125 42.390625 
Q 38.140625 42.390625 41.71875 45.5625 
Q 45.3125 48.734375 45.3125 54.390625 
Q 45.3125 60.0625 41.71875 63.234375 
Q 38.140625 66.40625 31.78125 66.40625 
Q 25.390625 66.40625 21.84375 63.234375 
Q 18.3125 60.0625 18.3125 54.390625 
z
" id="DejaVuSans-38"/>
      </defs>
      <g transform="translate(23.675 72.812396)scale(0.16 -0.16)">
       <use xlink:href="#DejaVuSans-30"/>
       <use x="63.623047" xlink:href="#DejaVuSans-2e"/>
       <use x="95.410156" xlink:href="#DejaVuSans-38"/>
      </g>
     </g>
    </g>
    <g id="ytick_6">
     <g id="line2d_39">
      <path clip-path="url(#p351e2ee59e)" d="M 56.12 9.697057 
L 333.168 9.697057 
" style="fill:none;stroke:#b0b0b0;stroke-linecap:square;stroke-width:0.8;"/>
     </g>
     <g id="line2d_40">
      <g>
       <use style="stroke:#000000;stroke-width:0.8;" x="56.12" xlink:href="#m453586b1a2" y="9.697057"/>
      </g>
     </g>
     <g id="text_11">
      <!-- 1.0 -->
      <g transform="translate(23.675 15.775807)scale(0.16 -0.16)">
       <use xlink:href="#DejaVuSans-31"/>
       <use x="63.623047" xlink:href="#DejaVuSans-2e"/>
       <use x="95.410156" xlink:href="#DejaVuSans-30"/>
      </g>
     </g>
    </g>
    <g id="text_12">
     <!-- Fraction of function,target pairs -->
     <defs>
      <path d="M 9.8125 72.90625 
L 51.703125 72.90625 
L 51.703125 64.59375 
L 19.671875 64.59375 
L 19.671875 43.109375 
L 48.578125 43.109375 
L 48.578125 34.8125 
L 19.671875 34.8125 
L 19.671875 0 
L 9.8125 0 
z
" id="DejaVuSans-46"/>
      <path d="M 41.109375 46.296875 
Q 39.59375 47.171875 37.8125 47.578125 
Q 36.03125 48 33.890625 48 
Q 26.265625 48 22.1875 43.046875 
Q 18.109375 38.09375 18.109375 28.8125 
L 18.109375 0 
L 9.078125 0 
L 9.078125 54.6875 
L 18.109375 54.6875 
L 18.109375 46.1875 
Q 20.953125 51.171875 25.484375 53.578125 
Q 30.03125 56 36.53125 56 
Q 37.453125 56 38.578125 55.875 
Q 39.703125 55.765625 41.0625 55.515625 
z
" id="DejaVuSans-72"/>
      <path d="M 48.78125 52.59375 
L 48.78125 44.1875 
Q 44.96875 46.296875 41.140625 47.34375 
Q 37.3125 48.390625 33.40625 48.390625 
Q 24.65625 48.390625 19.8125 42.84375 
Q 14.984375 37.3125 14.984375 27.296875 
Q 14.984375 17.28125 19.8125 11.734375 
Q 24.65625 6.203125 33.40625 6.203125 
Q 37.3125 6.203125 41.140625 7.25 
Q 44.96875 8.296875 48.78125 10.40625 
L 48.78125 2.09375 
Q 45.015625 0.34375 40.984375 -0.53125 
Q 36.96875 -1.421875 32.421875 -1.421875 
Q 20.0625 -1.421875 12.78125 6.34375 
Q 5.515625 14.109375 5.515625 27.296875 
Q 5.515625 40.671875 12.859375 48.328125 
Q 20.21875 56 33.015625 56 
Q 37.15625 56 41.109375 55.140625 
Q 45.0625 54.296875 48.78125 52.59375 
z
" id="DejaVuSans-63"/>
      <path d="M 18.3125 70.21875 
L 18.3125 54.6875 
L 36.8125 54.6875 
L 36.8125 47.703125 
L 18.3125 47.703125 
L 18.3125 18.015625 
Q 18.3125 11.328125 20.140625 9.421875 
Q 21.96875 7.515625 27.59375 7.515625 
L 36.8125 7.515625 
L 36.8125 0 
L 27.59375 0 
Q 17.1875 0 13.234375 3.875 
Q 9.28125 7.765625 9.28125 18.015625 
L 9.28125 47.703125 
L 2.6875 47.703125 
L 2.6875 54.6875 
L 9.28125 54.6875 
L 9.28125 70.21875 
z
" id="DejaVuSans-74"/>
      <path d="M 8.5 21.578125 
L 8.5 54.6875 
L 17.484375 54.6875 
L 17.484375 21.921875 
Q 17.484375 14.15625 20.5 10.265625 
Q 23.53125 6.390625 29.59375 6.390625 
Q 36.859375 6.390625 41.078125 11.03125 
Q 45.3125 15.671875 45.3125 23.6875 
L 45.3125 54.6875 
L 54.296875 54.6875 
L 54.296875 0 
L 45.3125 0 
L 45.3125 8.40625 
Q 42.046875 3.421875 37.71875 1 
Q 33.40625 -1.421875 27.6875 -1.421875 
Q 18.265625 -1.421875 13.375 4.4375 
Q 8.5 10.296875 8.5 21.578125 
z
M 31.109375 56 
z
" id="DejaVuSans-75"/>
      <path d="M 11.71875 12.40625 
L 22.015625 12.40625 
L 22.015625 4 
L 14.015625 -11.625 
L 7.71875 -11.625 
L 11.71875 4 
z
" id="DejaVuSans-2c"/>
      <path d="M 18.109375 8.203125 
L 18.109375 -20.796875 
L 9.078125 -20.796875 
L 9.078125 54.6875 
L 18.109375 54.6875 
L 18.109375 46.390625 
Q 20.953125 51.265625 25.265625 53.625 
Q 29.59375 56 35.59375 56 
Q 45.5625 56 51.78125 48.09375 
Q 58.015625 40.1875 58.015625 27.296875 
Q 58.015625 14.40625 51.78125 6.484375 
Q 45.5625 -1.421875 35.59375 -1.421875 
Q 29.59375 -1.421875 25.265625 0.953125 
Q 20.953125 3.328125 18.109375 8.203125 
z
M 48.6875 27.296875 
Q 48.6875 37.203125 44.609375 42.84375 
Q 40.53125 48.484375 33.40625 48.484375 
Q 26.265625 48.484375 22.1875 42.84375 
Q 18.109375 37.203125 18.109375 27.296875 
Q 18.109375 17.390625 22.1875 11.75 
Q 26.265625 6.109375 33.40625 6.109375 
Q 40.53125 6.109375 44.609375 11.75 
Q 48.6875 17.390625 48.6875 27.296875 
z
" id="DejaVuSans-70"/>
     </defs>
     <g transform="translate(16.139531 286.001989)rotate(-90)scale(0.17 -0.17)">
      <use xlink:href="#DejaVuSans-46"/>
      <use x="57.410156" xlink:href="#DejaVuSans-72"/>
      <use x="98.523438" xlink:href="#DejaVuSans-61"/>
      <use x="159.802734" xlink:href="#DejaVuSans-63"/>
      <use x="214.783203" xlink:href="#DejaVuSans-74"/>
      <use x="253.992188" xlink:href="#DejaVuSans-69"/>
      <use x="281.775391" xlink:href="#DejaVuSans-6f"/>
      <use x="342.957031" xlink:href="#DejaVuSans-6e"/>
      <use x="406.335938" xlink:href="#DejaVuSans-20"/>
      <use x="438.123047" xlink:href="#DejaVuSans-6f"/>
      <use x="499.304688" xlink:href="#DejaVuSans-66"/>
      <use x="534.509766" xlink:href="#DejaVuSans-20"/>
      <use x="566.296875" xlink:href="#DejaVuSans-66"/>
      <use x="601.501953" xlink:href="#DejaVuSans-75"/>
      <use x="664.880859" xlink:href="#DejaVuSans-6e"/>
      <use x="728.259766" xlink:href="#DejaVuSans-63"/>
      <use x="783.240234" xlink:href="#DejaVuSans-74"/>
      <use x="822.449219" xlink:href="#DejaVuSans-69"/>
      <use x="850.232422" xlink:href="#DejaVuSans-6f"/>
      <use x="911.414062" xlink:href="#DejaVuSans-6e"/>
      <use x="974.792969" xlink:href="#DejaVuSans-2c"/>
      <use x="1006.580078" xlink:href="#DejaVuSans-74"/>
      <use x="1045.789062" xlink:href="#DejaVuSans-61"/>
      <use x="1107.068359" xlink:href="#DejaVuSans-72"/>
      <use x="1148.166016" xlink:href="#DejaVuSans-67"/>
      <use x="1211.642578" xlink:href="#DejaVuSans-65"/>
      <use x="1273.166016" xlink:href="#DejaVuSans-74"/>
      <use x="1312.375" xlink:href="#DejaVuSans-20"/>
      <use x="1344.162109" xlink:href="#DejaVuSans-70"/>
      <use x="1407.638672" xlink:href="#DejaVuSans-61"/>
      <use x="1468.917969" xlink:href="#DejaVuSans-69"/>
      <use x="1496.701172" xlink:href="#DejaVuSans-72"/>
      <use x="1537.814453" xlink:href="#DejaVuSans-73"/>
     </g>
    </g>
   </g>
   <g id="line2d_41">
    <defs>
     <path d="M 0 1.5 
C 0.397805 1.5 0.77937 1.341951 1.06066 1.06066 
C 1.341951 0.77937 1.5 0.397805 1.5 0 
C 1.5 -0.397805 1.341951 -0.77937 1.06066 -1.06066 
C 0.77937 -1.341951 0.397805 -1.5 0 -1.5 
C -0.397805 -1.5 -0.77937 -1.341951 -1.06066 -1.06066 
C -1.341951 -0.77937 -1.5 -0.397805 -1.5 0 
C -1.5 0.397805 -1.341951 0.77937 -1.06066 1.06066 
C -0.77937 1.341951 -0.397805 1.5 0 1.5 
z
" id="md5750199f0" style="stroke:#f5deb3;"/>
    </defs>
    <g>
     <use style="fill:#f5deb3;stroke:#f5deb3;" x="189.116033" xlink:href="#md5750199f0" y="9.697057"/>
     <use style="fill:#f5deb3;stroke:#f5deb3;" x="189.116033" xlink:href="#md5750199f0" y="9.697057"/>
    </g>
   </g>
   <g id="line2d_42">
    <defs>
     <path d="M 0 1.5 
C 0.397805 1.5 0.77937 1.341951 1.06066 1.06066 
C 1.341951 0.77937 1.5 0.397805 1.5 0 
C 1.5 -0.397805 1.341951 -0.77937 1.06066 -1.06066 
C 0.77937 -1.341951 0.397805 -1.5 0 -1.5 
C -0.397805 -1.5 -0.77937 -1.341951 -1.06066 -1.06066 
C -1.341951 -0.77937 -1.5 -0.397805 -1.5 0 
C -1.5 0.397805 -1.341951 0.77937 -1.06066 1.06066 
C -0.77937 1.341951 -0.397805 1.5 0 1.5 
z
" id="mb2db77c153" style="stroke:#000080;"/>
    </defs>
    <g>
     <use style="fill:#000080;stroke:#000080;" x="240.379503" xlink:href="#mb2db77c153" y="110.349861"/>
     <use style="fill:#000080;stroke:#000080;" x="240.379503" xlink:href="#mb2db77c153" y="110.349861"/>
    </g>
   </g>
   <g id="line2d_43">
    <path d="M 28.455965 294.88 
L 28.455965 292.755107 
L 61.903497 292.755107 
L 61.903497 291.41307 
L 72.543934 291.41307 
L 72.543934 232.698935 
L 79.066841 232.698935 
L 79.066841 224.646711 
L 83.784035 224.646711 
L 83.784035 219.94958 
L 87.481505 219.94958 
L 87.481505 193.891687 
L 90.522701 193.891687 
L 90.522701 184.05008 
L 93.105847 184.05008 
L 93.105847 180.694986 
L 105.991465 180.694986 
L 105.991465 180.58315 
L 110.014853 180.58315 
L 110.014853 180.471314 
L 110.88904 180.471314 
L 110.88904 180.359477 
L 112.514373 180.359477 
L 112.514373 180.247641 
L 113.272818 180.247641 
L 113.272818 180.135804 
L 114.696138 180.135804 
L 114.696138 179.464785 
L 115.365909 179.464785 
L 115.365909 179.241113 
L 116.010559 179.241113 
L 116.010559 178.905603 
L 116.631902 178.905603 
L 116.631902 178.68193 
L 117.231566 178.68193 
L 117.231566 178.458257 
L 117.811013 178.458257 
L 117.811013 178.346421 
L 119.95122 178.346421 
L 119.95122 178.234585 
L 120.447081 178.234585 
L 120.447081 178.122748 
L 120.929036 178.122748 
L 120.929036 178.010912 
L 121.397846 178.010912 
L 121.397846 177.787239 
L 121.854208 177.787239 
L 121.854208 177.563566 
L 122.298767 177.563566 
L 122.298767 177.228057 
L 122.732117 177.228057 
L 122.732117 176.668874 
L 123.154809 176.668874 
L 123.154809 176.333365 
L 123.567356 176.333365 
L 123.567356 176.109692 
L 123.970233 176.109692 
L 123.970233 175.662346 
L 124.363883 175.662346 
L 124.363883 175.55051 
L 124.748719 175.55051 
L 124.748719 175.438673 
L 125.854083 175.438673 
L 125.854083 174.879491 
L 126.207287 174.879491 
L 126.207287 174.767655 
L 126.553378 174.767655 
L 126.553378 174.320309 
L 126.892639 174.320309 
L 126.892639 173.761127 
L 127.225332 173.761127 
L 127.225332 173.425617 
L 127.551708 173.425617 
L 127.551708 173.090108 
L 127.872003 173.090108 
L 127.872003 172.642762 
L 128.186438 172.642762 
L 128.186438 172.307253 
L 128.798561 172.307253 
L 128.798561 172.195416 
L 129.096637 172.195416 
L 129.096637 171.859907 
L 129.677716 171.859907 
L 129.677716 171.636234 
L 130.239792 171.636234 
L 130.239792 171.524398 
L 130.514085 171.524398 
L 130.514085 171.412561 
L 130.784069 171.412561 
L 130.784069 171.077052 
L 131.569473 171.077052 
L 131.569473 170.51787 
L 131.823497 170.51787 
L 131.823497 170.18236 
L 132.073821 170.18236 
L 132.073821 169.846851 
L 132.320552 169.846851 
L 132.320552 169.399505 
L 132.563791 169.399505 
L 132.563791 169.063996 
L 132.803637 169.063996 
L 132.803637 168.728486 
L 133.040181 168.728486 
L 133.040181 167.610122 
L 133.273515 167.610122 
L 133.273515 167.274613 
L 133.503723 167.274613 
L 133.503723 166.939103 
L 133.730889 166.939103 
L 133.730889 166.156248 
L 133.955092 166.156248 
L 133.955092 165.597066 
L 134.176407 165.597066 
L 134.176407 164.814211 
L 134.39491 164.814211 
L 134.39491 164.255029 
L 134.61067 164.255029 
L 134.61067 163.58401 
L 134.823755 163.58401 
L 134.823755 162.465645 
L 135.03423 162.465645 
L 135.03423 159.893407 
L 135.24216 159.893407 
L 135.24216 158.55137 
L 135.447604 158.55137 
L 135.447604 156.65015 
L 135.650622 156.65015 
L 135.650622 155.755458 
L 135.851269 155.755458 
L 135.851269 154.637094 
L 136.049602 154.637094 
L 136.049602 152.735874 
L 136.245672 152.735874 
L 136.245672 152.064856 
L 136.439531 152.064856 
L 136.439531 150.834655 
L 136.631228 150.834655 
L 136.631228 150.387309 
L 136.82081 150.387309 
L 136.82081 149.604454 
L 137.008324 149.604454 
L 137.008324 148.486089 
L 137.193815 148.486089 
L 137.193815 147.703234 
L 137.377325 147.703234 
L 137.377325 146.58487 
L 137.558897 146.58487 
L 137.558897 146.025687 
L 137.916386 146.025687 
L 137.916386 145.466505 
L 138.09238 145.466505 
L 138.09238 145.130996 
L 138.266591 145.130996 
L 138.266591 144.795487 
L 138.439053 144.795487 
L 138.439053 143.900795 
L 138.609803 143.900795 
L 138.609803 143.565286 
L 138.778873 143.565286 
L 138.778873 142.78243 
L 138.946296 142.78243 
L 138.946296 142.223248 
L 139.08458 142.223248 
L 139.112104 141.104884 
L 139.276327 141.104884 
L 139.276327 140.098356 
L 139.438997 140.098356 
L 139.438997 139.65101 
L 139.573389 139.65101 
L 139.600142 138.644482 
L 139.75979 138.644482 
L 139.75979 137.973463 
L 139.917968 137.973463 
L 139.917968 137.302445 
L 140.074705 137.302445 
L 140.074705 136.855099 
L 140.230025 136.855099 
L 140.230025 136.743262 
L 140.536516 136.743262 
L 140.536516 135.960407 
L 140.687737 135.960407 
L 140.687737 135.289388 
L 140.837639 135.289388 
L 140.837639 134.506533 
L 140.986245 134.506533 
L 140.986245 133.947351 
L 141.133577 133.947351 
L 141.133577 133.388169 
L 141.279657 133.388169 
L 141.279657 132.940823 
L 141.424506 132.940823 
L 141.424506 132.605314 
L 141.568144 132.605314 
L 141.568144 131.822459 
L 141.710592 131.822459 
L 141.710592 131.15144 
L 141.851869 131.15144 
L 141.851869 130.704094 
L 141.991995 130.704094 
L 141.991995 129.921239 
L 142.130987 129.921239 
L 142.130987 129.697566 
L 142.245962 129.697566 
L 142.268865 129.362057 
L 142.405645 129.362057 
L 142.405645 128.802874 
L 142.541345 128.802874 
L 142.541345 128.243692 
L 142.675983 128.243692 
L 142.675983 127.796346 
L 142.809574 127.796346 
L 142.809574 127.237164 
L 142.942135 127.237164 
L 142.942135 126.1188 
L 143.073681 126.1188 
L 143.073681 125.447781 
L 143.204228 125.447781 
L 143.204228 124.888599 
L 143.333791 124.888599 
L 143.441019 124.329417 
L 143.462385 124.329417 
L 143.462385 123.993907 
L 143.590024 123.993907 
L 143.590024 123.770234 
L 143.716722 123.770234 
L 143.716722 123.658398 
L 143.842493 123.658398 
L 143.842493 123.546561 
L 143.967351 123.546561 
L 143.967351 123.211052 
L 144.091308 123.211052 
L 144.091308 122.987379 
L 144.214377 122.987379 
L 144.214377 122.875543 
L 144.336572 122.875543 
L 144.336572 122.763706 
L 144.578385 122.763706 
L 144.578385 122.540033 
L 144.934844 122.540033 
L 144.934844 122.204524 
L 145.05204 122.204524 
L 145.05204 122.092688 
L 145.284061 122.092688 
L 145.284061 121.980851 
L 145.512992 121.980851 
L 145.512992 121.869015 
L 145.626324 121.869015 
L 145.626324 121.645342 
L 145.738913 121.645342 
L 145.738913 121.533505 
L 145.85077 121.533505 
L 145.943432 121.309832 
L 145.961904 121.309832 
L 146.072324 120.862487 
L 146.182039 120.862487 
L 146.291058 120.303304 
L 147.648761 120.303304 
L 147.648761 120.191468 
L 148.240964 120.191468 
L 148.240964 120.079632 
L 148.907027 120.079632 
L 148.907027 119.967795 
L 153.108845 119.967795 
L 153.108845 119.855959 
L 154.511824 119.855959 
L 154.511824 119.744122 
L 155.746298 119.744122 
L 155.746298 119.632286 
L 157.188707 119.632286 
L 157.246258 119.408613 
L 159.147992 119.408613 
L 159.147992 119.296776 
L 159.352519 119.296776 
L 159.403273 119.073103 
L 160.049788 119.073103 
L 160.049788 118.961267 
L 160.24392 118.961267 
L 160.24392 118.849431 
L 160.531069 118.849431 
L 160.531069 118.737594 
L 161.228629 118.737594 
L 161.228629 118.625758 
L 161.678423 118.625758 
L 161.678423 118.513921 
L 162.159969 118.513921 
L 162.159969 118.402085 
L 163.002374 118.402085 
L 163.002374 118.290248 
L 163.287725 118.290248 
L 163.328106 118.066575 
L 163.64778 118.066575 
L 163.64778 117.954739 
L 165.126332 117.954739 
L 165.126332 117.842903 
L 165.450203 117.842903 
L 165.450203 117.731066 
L 167.17842 117.731066 
L 167.17842 117.61923 
L 172.536046 117.61923 
L 172.536046 117.507393 
L 172.65367 117.507393 
L 172.65367 117.395557 
L 173.047673 117.395557 
L 173.047673 117.28372 
L 173.230008 117.28372 
L 173.230008 117.171884 
L 174.005733 117.171884 
L 174.005733 117.060047 
L 174.242475 117.060047 
L 174.327761 116.836375 
L 175.736003 116.836375 
L 175.736003 116.724538 
L 177.073851 116.724538 
L 177.073851 116.612702 
L 177.200282 116.612702 
L 177.290025 116.389029 
L 179.377757 116.389029 
L 179.409436 116.165356 
L 183.823293 116.165356 
L 183.823293 115.941683 
L 185.356432 115.941683 
L 185.356432 115.829846 
L 185.787644 115.829846 
L 185.787644 115.71801 
L 187.756071 115.71801 
L 187.756071 115.606174 
L 188.255115 115.606174 
L 188.255115 115.494337 
L 189.60096 115.494337 
L 189.60096 115.382501 
L 189.998669 115.382501 
L 189.998669 115.270664 
L 190.710198 115.270664 
L 190.710198 115.158828 
L 193.052335 115.158828 
L 193.052335 115.046991 
L 193.279798 115.046991 
L 193.279798 114.935155 
L 193.725889 114.935155 
L 193.821947 114.599646 
L 195.377792 114.599646 
L 195.377792 114.487809 
L 197.820685 114.487809 
L 197.84236 114.264136 
L 198.068305 114.264136 
L 198.068305 114.1523 
L 198.877352 114.1523 
L 198.877352 114.040463 
L 200.016556 114.040463 
L 200.016556 113.928627 
L 200.130698 113.928627 
L 200.130698 113.81679 
L 204.376379 113.81679 
L 204.479743 113.593118 
L 204.807839 113.593118 
L 204.807839 113.481281 
L 205.670502 113.481281 
L 205.670502 113.369445 
L 207.294647 113.369445 
L 207.294647 113.257608 
L 207.977668 113.257608 
L 207.977668 113.145772 
L 208.761284 113.145772 
L 208.761284 113.033935 
L 209.496989 113.033935 
L 209.496989 112.922099 
L 209.633881 112.922099 
L 209.633881 112.810262 
L 210.22095 112.810262 
L 210.22095 112.698426 
L 211.179372 112.698426 
L 211.179372 112.586589 
L 213.177248 112.586589 
L 213.177248 112.474753 
L 214.650064 112.474753 
L 214.650064 112.362917 
L 215.066587 112.362917 
L 215.124143 112.139244 
L 215.230805 112.139244 
L 215.230805 112.027407 
L 219.736322 112.027407 
L 219.736322 111.915571 
L 220.171645 111.915571 
L 220.177553 111.691898 
L 224.023665 111.691898 
L 224.023665 111.580061 
L 224.653068 111.580061 
L 224.653068 111.468225 
L 224.822949 111.468225 
L 224.822949 111.356389 
L 227.580411 111.356389 
L 227.580411 111.244552 
L 228.986176 111.244552 
L 228.986176 111.132716 
L 229.74408 111.132716 
L 229.74408 111.020879 
L 230.033632 111.020879 
L 230.033632 110.909043 
L 230.227284 110.909043 
L 230.227284 110.797206 
L 235.961413 110.797206 
L 235.961413 110.68537 
L 236.467345 110.68537 
L 236.467345 110.573533 
L 239.223677 110.573533 
L 239.223677 110.461697 
L 240.379503 110.461697 
L 240.379503 110.349861 
L 333.168 110.349861 
L 333.168 110.349861 
" style="fill:none;stroke:#000080;stroke-linecap:square;stroke-width:1.5;"/>
   </g>
   <g id="line2d_44">
    <defs>
     <path d="M 0 6 
C 1.591219 6 3.117479 5.367802 4.242641 4.242641 
C 5.367802 3.117479 6 1.591219 6 0 
C 6 -1.591219 5.367802 -3.117479 4.242641 -4.242641 
C 3.117479 -5.367802 1.591219 -6 0 -6 
C -1.591219 -6 -3.117479 -5.367802 -4.242641 -4.242641 
C -5.367802 -3.117479 -6 -1.591219 -6 0 
C -6 1.591219 -5.367802 3.117479 -4.242641 4.242641 
C -3.117479 5.367802 -1.591219 6 0 6 
z
" id="m49fbd81834" style="stroke:#000080;stroke-width:1.5;"/>
    </defs>
    <g>
     <use style="fill:none;stroke:#000080;stroke-width:1.5;" x="87.481505" xlink:href="#m49fbd81834" y="219.94958"/>
     <use style="fill:none;stroke:#000080;stroke-width:1.5;" x="144.336572" xlink:href="#m49fbd81834" y="122.763706"/>
     <use style="fill:none;stroke:#000080;stroke-width:1.5;" x="213.177248" xlink:href="#m49fbd81834" y="112.474753"/>
     <use style="fill:none;stroke:#000080;stroke-width:1.5;" x="240.379503" xlink:href="#m49fbd81834" y="110.349861"/>
     <use style="fill:none;stroke:#000080;stroke-width:1.5;" x="240.379503" xlink:href="#m49fbd81834" y="110.349861"/>
     <use style="fill:none;stroke:#000080;stroke-width:1.5;" x="333.168" xlink:href="#m49fbd81834" y="110.349861"/>
    </g>
   </g>
   <g id="line2d_45">
    <path style="fill:none;stroke:#000080;stroke-linecap:square;stroke-width:1.5;"/>
    <g/>
   </g>
   <g id="line2d_46">
    <path clip-path="url(#p351e2ee59e)" d="M 197.302378 114.487809 
" style="fill:none;stroke:#000080;stroke-linecap:square;stroke-width:1.5;"/>
    <defs>
     <path d="M -12 12 
L 12 -12 
M -12 -12 
L 12 12 
" id="mab230000cb" style="stroke:#000080;"/>
    </defs>
    <g clip-path="url(#p351e2ee59e)">
     <use style="fill:#000080;stroke:#000080;" x="197.302378" xlink:href="#mab230000cb" y="114.487809"/>
    </g>
   </g>
   <g id="line2d_47">
    <defs>
     <path d="M 0 1.5 
C 0.397805 1.5 0.77937 1.341951 1.06066 1.06066 
C 1.341951 0.77937 1.5 0.397805 1.5 0 
C 1.5 -0.397805 1.341951 -0.77937 1.06066 -1.06066 
C 0.77937 -1.341951 0.397805 -1.5 0 -1.5 
C -0.397805 -1.5 -0.77937 -1.341951 -1.06066 -1.06066 
C -1.341951 -0.77937 -1.5 -0.397805 -1.5 0 
C -1.5 0.397805 -1.341951 0.77937 -1.06066 1.06066 
C -0.77937 1.341951 -0.397805 1.5 0 1.5 
z
" id="mf01ef3618a" style="stroke:#ff00ff;"/>
    </defs>
    <g>
     <use style="fill:#ff00ff;stroke:#ff00ff;" x="206.82695" xlink:href="#mf01ef3618a" y="170.741543"/>
     <use style="fill:#ff00ff;stroke:#ff00ff;" x="206.82695" xlink:href="#mf01ef3618a" y="170.741543"/>
    </g>
   </g>
   <g id="line2d_48">
    <path d="M 28.455965 294.88 
L 28.455965 290.965724 
L 94.996612 290.965724 
L 94.996612 290.853888 
L 97.021141 290.853888 
L 97.021141 290.630215 
L 98.832144 290.630215 
L 98.832144 290.182869 
L 99.395756 290.182869 
L 99.395756 289.959196 
L 99.67078 289.959196 
L 99.67078 289.400014 
L 99.941473 289.400014 
L 99.941473 288.952668 
L 100.207968 288.952668 
L 100.207968 288.840832 
L 100.728876 288.840832 
L 100.728876 288.617159 
L 100.983527 288.617159 
L 100.983527 288.505322 
L 101.23446 288.505322 
L 101.23446 288.393486 
L 101.481783 288.393486 
L 101.481783 288.28165 
L 101.725597 288.28165 
L 101.725597 287.834304 
L 102.436953 287.834304 
L 102.436953 287.051449 
L 102.667676 287.051449 
L 102.667676 286.604103 
L 102.895343 286.604103 
L 102.895343 286.38043 
L 103.120034 286.38043 
L 103.120034 285.821248 
L 103.341826 285.821248 
L 103.341826 285.373902 
L 103.560793 285.373902 
L 103.560793 285.038393 
L 103.777005 285.038393 
L 103.777005 284.702883 
L 103.990531 284.702883 
L 103.990531 284.591047 
L 104.201437 284.591047 
L 104.201437 284.255537 
L 104.409787 284.255537 
L 104.409787 283.808192 
L 104.615641 283.808192 
L 104.615641 283.696355 
L 104.819059 283.696355 
L 104.819059 283.249009 
L 105.218813 283.249009 
L 105.218813 282.801664 
L 105.415256 282.801664 
L 105.415256 282.689827 
L 105.60948 282.689827 
L 105.60948 282.577991 
L 105.801534 282.577991 
L 105.801534 282.466154 
L 106.365146 282.466154 
L 106.365146 282.354318 
L 106.548983 282.354318 
L 106.548983 282.242481 
L 106.730875 282.242481 
L 106.730875 282.130645 
L 106.910863 282.130645 
L 106.910863 282.018808 
L 107.26528 282.018808 
L 107.26528 281.571463 
L 107.612537 281.571463 
L 107.612537 276.203313 
L 107.783569 276.203313 
L 107.783569 275.97964 
L 108.120612 275.97964 
L 108.120612 275.644131 
L 108.286687 275.644131 
L 108.286687 275.420458 
L 108.451173 275.420458 
L 108.451173 272.624547 
L 108.775496 272.624547 
L 108.775496 266.026196 
L 111.030511 266.026196 
L 111.030511 265.91436 
L 113.880253 265.91436 
L 113.880253 265.802523 
L 113.999206 265.802523 
L 113.999206 265.690687 
L 115.365909 265.690687 
L 115.365909 265.467014 
L 115.58349 265.467014 
L 115.58349 265.355178 
L 115.798351 265.355178 
L 115.798351 265.243341 
L 116.324038 265.243341 
L 116.324038 265.131505 
L 116.529892 265.131505 
L 116.529892 265.019668 
L 116.834124 265.019668 
L 116.834124 264.907832 
L 117.231566 264.907832 
L 117.231566 264.795995 
L 117.620026 264.795995 
L 117.620026 264.684159 
L 118.186736 264.684159 
L 118.186736 264.572323 
L 118.371562 264.572323 
L 118.463235 264.34865 
L 118.645127 264.34865 
L 118.645127 264.236813 
L 118.825114 264.236813 
L 118.825114 264.01314 
L 119.003236 264.01314 
L 119.003236 260.769883 
L 119.179531 260.769883 
L 119.179531 260.658047 
L 119.612517 260.658047 
L 119.612517 260.54621 
L 119.782703 260.54621 
L 119.782703 260.434374 
L 119.95122 260.434374 
L 119.95122 260.322538 
L 120.528351 260.322538 
L 120.528351 260.210701 
L 120.769881 260.210701 
L 120.769881 260.098865 
L 121.320594 260.098865 
L 121.320594 259.987028 
L 123.293428 259.987028 
L 123.293428 259.875192 
L 124.036471 259.875192 
L 124.036471 259.763355 
L 124.812029 259.763355 
L 124.812029 259.651519 
L 125.125128 259.651519 
L 125.125128 259.539682 
L 125.248787 259.539682 
L 125.248787 259.427846 
L 125.854083 259.427846 
L 125.854083 259.316009 
L 126.207287 259.316009 
L 126.207287 259.204173 
L 126.438787 259.204173 
L 126.438787 259.092337 
L 126.836558 259.092337 
L 126.836558 258.9805 
L 127.004254 258.9805 
L 127.115148 258.756827 
L 127.712602 258.756827 
L 127.712602 258.644991 
L 128.029939 258.644991 
L 128.13443 258.197645 
L 128.186438 258.197645 
L 128.289984 257.862136 
L 128.39291 257.862136 
L 128.444143 251.711131 
L 129.096637 251.711131 
L 129.096637 251.599295 
L 129.292521 251.599295 
L 129.389632 248.467874 
L 129.867125 248.467874 
L 129.961052 248.132365 
L 130.193648 248.132365 
L 130.239792 247.573182 
L 132.483094 247.573182 
L 132.483094 247.461346 
L 133.503723 247.461346 
L 133.503723 247.34951 
L 133.843356 247.34951 
L 133.843356 246.790327 
L 134.249551 246.790327 
L 134.286006 246.566654 
L 134.431058 246.566654 
L 134.431058 246.342981 
L 134.8942 246.342981 
L 134.8942 246.231145 
L 135.10382 246.231145 
L 135.10382 246.119309 
L 135.379395 246.119309 
L 135.379395 246.007472 
L 136.599426 246.007472 
L 136.599426 245.895636 
L 136.789358 245.895636 
L 136.82081 245.671963 
L 136.946047 245.671963 
L 136.946047 245.560126 
L 137.070377 245.560126 
L 137.070377 245.44829 
L 137.193815 245.44829 
L 137.285815 245.224617 
L 137.346876 245.224617 
L 137.407721 244.218089 
L 137.468351 244.218089 
L 137.468351 244.106253 
L 137.738571 244.106253 
L 137.827708 243.770743 
L 137.945844 243.770743 
L 138.004608 243.54707 
L 138.09238 243.54707 
L 138.179706 243.323397 
L 138.208716 243.323397 
L 138.295455 242.987888 
L 138.439053 242.987888 
L 138.46763 242.205033 
L 138.581462 242.205033 
L 138.581462 242.093196 
L 139.001743 242.093196 
L 139.001743 241.757687 
L 139.706738 241.757687 
L 139.706738 241.645851 
L 139.865404 241.645851 
L 139.865404 241.422178 
L 140.307161 241.422178 
L 140.409475 241.198505 
L 140.434959 241.198505 
L 140.434959 241.086668 
L 140.73785 241.086668 
L 140.73785 240.862996 
L 140.862496 240.862996 
L 140.912102 239.856467 
L 142.200064 239.856467 
L 142.200064 239.744631 
L 142.563858 239.744631 
L 142.563858 239.632795 
L 142.765159 239.632795 
L 142.765159 239.520958 
L 142.942135 239.520958 
L 142.942135 239.297285 
L 143.182539 239.297285 
L 143.290712 238.402594 
L 143.312265 238.402594 
L 143.333791 237.619739 
L 143.441019 237.619739 
L 143.462385 237.396066 
L 143.568817 237.396066 
L 143.65349 237.060556 
L 143.779723 237.060556 
L 143.884213 236.613211 
L 144.029441 236.613211 
L 144.132429 236.277701 
L 144.234803 236.277701 
L 144.316266 236.054028 
L 144.417555 236.054028 
L 144.51825 235.606682 
L 144.538318 235.606682 
L 144.538318 235.271173 
L 144.737725 235.271173 
L 144.816844 234.823827 
L 144.895601 234.823827 
L 144.973998 234.376482 
L 145.05204 234.376482 
L 145.110339 234.040972 
L 145.168442 234.040972 
L 145.264845 233.48179 
L 145.284061 233.48179 
L 145.36071 233.034444 
L 145.569751 233.034444 
L 145.663936 232.251589 
L 145.682711 232.251589 
L 145.77628 231.245061 
L 145.813566 231.245061 
L 145.906427 230.350369 
L 145.961904 230.350369 
L 146.072324 229.343841 
L 146.090659 229.343841 
L 146.145545 228.672823 
L 146.236635 228.672823 
L 146.34531 228.225477 
L 146.363355 228.225477 
L 146.471234 227.330785 
L 146.489148 227.330785 
L 146.57844 226.771603 
L 146.614027 226.771603 
L 146.702675 225.541402 
L 146.773264 225.541402 
L 146.861096 224.646711 
L 146.913581 224.646711 
L 147.018071 223.975692 
L 147.08738 223.975692 
L 147.190823 222.857327 
L 147.242311 222.857327 
L 147.310724 221.627126 
L 147.463664 221.627126 
L 147.463664 221.51529 
L 147.66549 221.51529 
L 147.66549 221.179781 
L 147.980278 221.179781 
L 147.980278 220.620598 
L 148.159923 220.620598 
L 148.240964 220.285089 
L 148.735061 220.285089 
L 148.829074 219.837743 
L 148.875888 219.837743 
L 148.93811 218.607542 
L 149.123434 218.607542 
L 149.123434 218.495706 
L 149.637921 218.495706 
L 149.741959 218.160197 
L 150.832756 218.160197 
L 150.832756 217.712851 
L 150.971263 217.712851 
L 150.971263 217.601014 
L 151.094972 217.601014 
L 151.094972 217.377341 
L 151.312725 217.377341 
L 151.407131 217.041832 
L 151.434009 217.041832 
L 151.434009 216.929996 
L 152.092658 216.929996 
L 152.170027 216.258977 
L 152.28543 216.258977 
L 152.28543 216.14714 
L 152.476064 216.14714 
L 152.551729 215.923468 
L 152.639586 215.923468 
L 152.639586 215.811631 
L 152.75189 215.811631 
L 152.801568 215.587958 
L 152.863465 215.587958 
L 152.863465 215.476122 
L 152.986593 215.476122 
L 152.986593 215.364285 
L 153.553767 215.364285 
L 153.601184 215.140612 
L 153.742655 215.140612 
L 153.847999 214.693267 
L 153.882971 214.693267 
L 153.975883 214.357757 
L 154.125801 214.357757 
L 154.22883 214.022248 
L 154.274423 214.022248 
L 154.308539 213.798575 
L 154.579054 213.798575 
L 154.590234 213.463066 
L 154.779183 213.463066 
L 154.856386 213.01572 
L 154.998849 213.01572 
L 155.107638 212.680211 
L 155.215743 212.680211 
L 155.291014 212.344701 
L 155.355271 212.344701 
L 155.397975 211.897355 
L 155.504275 211.897355 
L 155.504275 211.673683 
L 155.662502 211.673683 
L 155.68349 211.338173 
L 155.777617 211.338173 
L 155.871232 210.778991 
L 155.891966 210.778991 
L 155.891966 210.667155 
L 156.097943 210.667155 
L 156.200014 210.107972 
L 156.230517 210.107972 
L 156.311596 209.772463 
L 156.45257 209.772463 
L 156.512635 209.54879 
L 156.632139 209.54879 
L 156.681688 209.325117 
L 156.750818 209.325117 
L 156.750818 209.213281 
L 156.878469 209.213281 
L 156.985746 208.877771 
L 157.063347 208.877771 
L 157.063347 208.765935 
L 157.217507 208.765935 
L 157.284519 208.206753 
L 157.389299 208.206753 
L 157.493444 207.98308 
L 157.512312 207.98308 
L 157.596962 207.759407 
L 157.829937 207.759407 
L 157.839191 207.535734 
L 157.959037 207.535734 
L 157.959037 207.423898 
L 158.078053 207.423898 
L 158.169046 207.200225 
L 158.223412 207.200225 
L 158.322638 206.641042 
L 158.340618 206.641042 
L 158.349601 206.305533 
L 158.47487 206.305533 
L 158.554921 205.634514 
L 158.59038 205.634514 
L 158.696319 204.627986 
L 158.731488 204.627986 
L 158.827832 203.845131 
L 158.862733 203.845131 
L 158.967012 203.397785 
L 159.062048 203.397785 
L 159.096477 203.174112 
L 159.3186 203.174112 
L 159.3186 203.062276 
L 159.504333 203.062276 
L 159.504333 202.95044 
L 159.72128 202.95044 
L 159.72128 202.838603 
L 159.902736 202.838603 
L 159.94371 202.61493 
L 160.163298 202.61493 
L 160.163298 202.503094 
L 160.292113 202.503094 
L 160.292113 202.391257 
L 160.443837 202.391257 
L 160.531069 202.167584 
L 160.58635 202.167584 
L 160.665017 201.943912 
L 160.891135 201.943912 
L 160.891135 201.832075 
L 161.022317 201.832075 
L 161.022317 201.720239 
L 161.152506 201.720239 
L 161.160133 201.496566 
L 161.289286 201.496566 
L 161.387399 201.272893 
L 161.432494 201.272893 
L 161.454997 201.04922 
L 161.71538 201.04922 
L 161.811097 200.825547 
L 161.862418 200.825547 
L 161.928177 200.490038 
L 162.06618 200.490038 
L 162.174353 200.266365 
L 162.28185 200.266365 
L 162.324661 199.930855 
L 162.663364 199.930855 
L 162.663364 199.819019 
L 163.036594 199.819019 
L 163.138847 199.595346 
L 163.172796 199.595346 
L 163.280986 199.259837 
L 163.321382 199.259837 
L 163.428644 198.700655 
L 163.528598 198.700655 
L 163.608144 198.141472 
L 163.64118 198.141472 
L 163.707062 197.694127 
L 163.772693 197.694127 
L 163.818486 197.358617 
L 163.922699 197.358617 
L 164.032738 196.911271 
L 164.071407 196.911271 
L 164.071407 196.799435 
L 164.21884 196.799435 
L 164.21884 196.687599 
L 164.358689 196.687599 
L 164.409262 196.463926 
L 164.497409 196.463926 
L 164.497409 196.352089 
L 164.616319 196.352089 
L 164.678574 196.01658 
L 164.734412 196.01658 
L 164.740605 195.792907 
L 164.863998 195.792907 
L 164.9743 195.569234 
L 165.277031 195.569234 
L 165.313003 195.345561 
L 165.402605 195.345561 
L 165.479884 195.121888 
L 165.521353 195.121888 
L 165.574523 194.786379 
L 165.656906 194.786379 
L 165.756415 193.891687 
L 165.837933 193.891687 
L 165.942177 193.444342 
L 165.976785 193.444342 
L 166.063001 192.661486 
L 166.103088 192.661486 
L 166.103088 192.54965 
L 166.599219 192.54965 
L 166.69896 192.325977 
L 166.836536 192.325977 
L 166.836536 192.214141 
L 167.108428 192.214141 
L 167.108428 192.102304 
L 167.42912 192.102304 
L 167.48727 191.766795 
L 167.650097 191.766795 
L 167.650097 191.654958 
L 168.001954 191.654958 
L 168.012195 191.431285 
L 168.180287 191.431285 
L 168.180287 191.319449 
L 168.586041 191.319449 
L 168.586041 191.207613 
L 168.79272 191.207613 
L 168.865936 190.98394 
L 168.967918 190.98394 
L 169.045213 190.760267 
L 169.102958 190.760267 
L 169.141347 190.536594 
L 169.241712 190.536594 
L 169.341494 190.089248 
L 169.398253 190.089248 
L 169.4407 189.865575 
L 169.702485 189.865575 
L 169.781173 189.641902 
L 169.923742 189.641902 
L 170.033311 189.306393 
L 170.092371 189.306393 
L 170.092371 189.194556 
L 170.588553 189.194556 
L 170.65013 188.970884 
L 170.750815 188.970884 
L 170.750815 188.859047 
L 170.885594 188.859047 
L 170.9763 188.188028 
L 171.070814 188.188028 
L 171.070814 188.076192 
L 171.262534 188.076192 
L 171.262534 187.964356 
L 171.45214 187.964356 
L 171.535742 187.740683 
L 172.270411 187.740683 
L 172.294367 187.51701 
L 172.409688 187.51701 
L 172.409688 187.405173 
L 172.571418 187.405173 
L 172.610634 187.069664 
L 173.017095 187.069664 
L 173.017095 186.957828 
L 173.211104 186.957828 
L 173.27529 186.622318 
L 173.361751 186.622318 
L 173.447778 186.174972 
L 173.514805 186.174972 
L 173.566757 185.727627 
L 173.802272 185.727627 
L 173.802272 185.61579 
L 173.91883 185.61579 
L 173.91883 185.503954 
L 174.156764 185.503954 
L 174.156764 185.392117 
L 174.345475 185.392117 
L 174.430253 185.056608 
L 174.598564 185.056608 
L 174.706396 184.832935 
L 174.744496 184.832935 
L 174.744496 184.721099 
L 175.342895 184.721099 
L 175.342895 184.609262 
L 175.466088 184.609262 
L 175.466088 184.497426 
L 175.637745 184.497426 
L 175.637745 184.385589 
L 175.901764 184.385589 
L 175.901764 184.273753 
L 176.069145 184.273753 
L 176.171345 183.938243 
L 176.234912 183.938243 
L 176.234912 183.826407 
L 176.642468 183.826407 
L 176.747484 183.602734 
L 176.802822 183.602734 
L 176.900763 183.043552 
L 177.082912 183.043552 
L 177.164254 182.819879 
L 177.340672 182.819879 
L 177.340672 182.708042 
L 177.7667 182.708042 
L 177.847765 182.48437 
L 177.896797 182.48437 
L 177.948561 182.037024 
L 178.020199 182.037024 
L 178.020199 181.925187 
L 178.137041 181.925187 
L 178.182424 181.589678 
L 178.53846 181.589678 
L 178.53846 181.477842 
L 178.687639 181.477842 
L 178.731593 181.254169 
L 179.148997 181.254169 
L 179.148997 181.142332 
L 179.561735 181.142332 
L 179.608727 180.918659 
L 179.684167 180.918659 
L 179.767029 180.471314 
L 179.81604 180.471314 
L 179.81604 180.359477 
L 179.941795 180.359477 
L 179.941795 180.247641 
L 180.069175 180.247641 
L 180.069175 180.023968 
L 180.433328 180.023968 
L 180.433328 179.912131 
L 180.667795 179.912131 
L 180.755817 179.576622 
L 180.923275 179.576622 
L 180.973919 179.352949 
L 181.160728 179.352949 
L 181.160728 179.241113 
L 181.312505 179.241113 
L 181.383191 178.905603 
L 181.588878 178.905603 
L 181.588878 178.793767 
L 181.821955 178.793767 
L 181.890582 178.570094 
L 182.063219 178.570094 
L 182.063219 178.458257 
L 182.193812 178.458257 
L 182.193812 178.346421 
L 182.365666 178.346421 
L 182.365666 178.234585 
L 182.595087 178.234585 
L 182.686876 177.787239 
L 182.778178 177.787239 
L 182.843098 177.563566 
L 183.178904 177.563566 
L 183.178904 177.451729 
L 183.514507 177.451729 
L 183.514507 177.339893 
L 183.876256 177.339893 
L 183.929057 177.11622 
L 184.078454 177.11622 
L 184.12663 176.892547 
L 184.371432 176.892547 
L 184.436522 176.668874 
L 184.773775 176.668874 
L 184.775705 176.445201 
L 185.419762 176.445201 
L 185.419762 176.333365 
L 185.661613 176.333365 
L 185.709212 176.109692 
L 185.910952 176.109692 
L 186.001058 175.886019 
L 186.087118 175.886019 
L 186.099633 175.662346 
L 186.731252 175.662346 
L 186.817169 175.326837 
L 186.938439 175.326837 
L 186.979239 175.103164 
L 187.237086 175.103164 
L 187.237086 174.991328 
L 187.997805 174.991328 
L 187.997805 174.879491 
L 188.419856 174.879491 
L 188.419856 174.767655 
L 189.363163 174.767655 
L 189.363163 174.655818 
L 189.52938 174.655818 
L 189.52938 174.543982 
L 190.919387 174.543982 
L 190.919387 174.432145 
L 191.347408 174.432145 
L 191.415753 174.096636 
L 191.766315 174.096636 
L 191.766315 173.9848 
L 191.932588 173.9848 
L 191.932588 173.872963 
L 192.096007 173.872963 
L 192.096007 173.761127 
L 192.580821 173.761127 
L 192.580821 173.64929 
L 193.381885 173.64929 
L 193.381885 173.537454 
L 193.606211 173.537454 
L 193.704087 173.201944 
L 194.169637 173.201944 
L 194.226537 172.978271 
L 194.353047 172.978271 
L 194.402729 172.754599 
L 194.475339 172.754599 
L 194.508242 172.530926 
L 194.77462 172.530926 
L 194.810186 172.307253 
L 195.244988 172.307253 
L 195.244988 172.195416 
L 196.107901 172.195416 
L 196.107901 172.08358 
L 197.117919 172.08358 
L 197.224903 171.859907 
L 197.290266 171.859907 
L 197.382286 171.636234 
L 197.456287 171.636234 
L 197.456287 171.524398 
L 197.971835 171.524398 
L 197.971835 171.412561 
L 198.655836 171.412561 
L 198.655836 171.300725 
L 199.273012 171.300725 
L 199.273012 171.188888 
L 201.337173 171.188888 
L 201.337173 171.077052 
L 203.452864 171.077052 
L 203.452864 170.965215 
L 204.035455 170.965215 
L 204.035455 170.853379 
L 206.82695 170.853379 
L 206.82695 170.741543 
L 333.168 170.741543 
L 333.168 170.741543 
" style="fill:none;stroke:#ff00ff;stroke-linecap:square;stroke-width:1.5;"/>
   </g>
   <g id="line2d_49">
    <defs>
     <path d="M -0 8.485281 
L 5.091169 0 
L 0 -8.485281 
L -5.091169 -0 
z
" id="m447f3ece1b" style="stroke:#ff00ff;stroke-linejoin:miter;stroke-width:1.5;"/>
    </defs>
    <g>
     <use style="fill:none;stroke:#ff00ff;stroke-linejoin:miter;stroke-width:1.5;" x="119.003236" xlink:href="#m447f3ece1b" y="264.01314"/>
     <use style="fill:none;stroke:#ff00ff;stroke-linejoin:miter;stroke-width:1.5;" x="177.847765" xlink:href="#m447f3ece1b" y="182.48437"/>
     <use style="fill:none;stroke:#ff00ff;stroke-linejoin:miter;stroke-width:1.5;" x="206.82695" xlink:href="#m447f3ece1b" y="170.853379"/>
     <use style="fill:none;stroke:#ff00ff;stroke-linejoin:miter;stroke-width:1.5;" x="206.82695" xlink:href="#m447f3ece1b" y="170.741543"/>
     <use style="fill:none;stroke:#ff00ff;stroke-linejoin:miter;stroke-width:1.5;" x="206.82695" xlink:href="#m447f3ece1b" y="170.741543"/>
     <use style="fill:none;stroke:#ff00ff;stroke-linejoin:miter;stroke-width:1.5;" x="333.168" xlink:href="#m447f3ece1b" y="170.741543"/>
    </g>
   </g>
   <g id="line2d_50">
    <path style="fill:none;stroke:#ff00ff;stroke-linecap:square;stroke-width:1.5;"/>
    <g/>
   </g>
   <g id="line2d_51">
    <path clip-path="url(#p351e2ee59e)" d="M 139.839061 241.645851 
" style="fill:none;stroke:#ff00ff;stroke-linecap:square;stroke-width:1.5;"/>
    <defs>
     <path d="M -12 12 
L 12 -12 
M -12 -12 
L 12 12 
" id="md1f9b4e0cb" style="stroke:#ff00ff;"/>
    </defs>
    <g clip-path="url(#p351e2ee59e)">
     <use style="fill:#ff00ff;stroke:#ff00ff;" x="139.839061" xlink:href="#md1f9b4e0cb" y="241.645851"/>
    </g>
   </g>
   <g id="line2d_52">
    <path d="M 333.168 170.741543 
L 363.64328 289.176341 
" style="fill:none;stroke:#ff00ff;stroke-linecap:square;stroke-width:1.5;"/>
    <g>
     <use style="fill:none;stroke:#ff00ff;stroke-linejoin:miter;stroke-width:1.5;" x="333.168" xlink:href="#m447f3ece1b" y="170.741543"/>
     <use style="fill:none;stroke:#ff00ff;stroke-linejoin:miter;stroke-width:1.5;" x="363.64328" xlink:href="#m447f3ece1b" y="289.176341"/>
    </g>
   </g>
   <g id="line2d_53">
    <path d="M 333.168 110.349861 
L 363.64328 152.288529 
" style="fill:none;stroke:#000080;stroke-linecap:square;stroke-width:1.5;"/>
    <g>
     <use style="fill:none;stroke:#000080;stroke-width:1.5;" x="333.168" xlink:href="#m49fbd81834" y="110.349861"/>
     <use style="fill:none;stroke:#000080;stroke-width:1.5;" x="363.64328" xlink:href="#m49fbd81834" y="152.288529"/>
    </g>
   </g>
   <g id="line2d_54">
    <path d="M 333.168 294.88 
L 333.168 9.697057 
" style="fill:none;stroke:#000000;stroke-linecap:square;stroke-width:1.5;"/>
   </g>
   <g id="patch_3">
    <path d="M 56.12 294.88 
L 56.12 6.845228 
" style="fill:none;stroke:#000000;stroke-linecap:square;stroke-linejoin:miter;stroke-width:0.8;"/>
   </g>
   <g id="patch_4">
    <path d="M 333.168 294.88 
L 333.168 6.845228 
" style="fill:none;stroke:#000000;stroke-linecap:square;stroke-linejoin:miter;stroke-width:0.8;"/>
   </g>
   <g id="patch_5">
    <path d="M 56.12 294.88 
L 333.168 294.88 
" style="fill:none;stroke:#000000;stroke-linecap:square;stroke-linejoin:miter;stroke-width:0.8;"/>
   </g>
   <g id="patch_6">
    <path d="M 56.12 6.845228 
L 333.168 6.845228 
" style="fill:none;stroke:#000000;stroke-linecap:square;stroke-linejoin:miter;stroke-width:0.8;"/>
   </g>
   <g id="text_13">
    <!-- scipy-opt -->
    <defs>
     <path d="M 32.171875 -5.078125 
Q 28.375 -14.84375 24.75 -17.8125 
Q 21.140625 -20.796875 15.09375 -20.796875 
L 7.90625 -20.796875 
L 7.90625 -13.28125 
L 13.1875 -13.28125 
Q 16.890625 -13.28125 18.9375 -11.515625 
Q 21 -9.765625 23.484375 -3.21875 
L 25.09375 0.875 
L 2.984375 54.6875 
L 12.5 54.6875 
L 29.59375 11.921875 
L 46.6875 54.6875 
L 56.203125 54.6875 
z
" id="DejaVuSans-79"/>
    </defs>
    <g transform="translate(369.18424 293.867279)scale(0.17 -0.17)">
     <use xlink:href="#DejaVuSans-73"/>
     <use x="52.099609" xlink:href="#DejaVuSans-63"/>
     <use x="107.080078" xlink:href="#DejaVuSans-69"/>
     <use x="134.863281" xlink:href="#DejaVuSans-70"/>
     <use x="198.339844" xlink:href="#DejaVuSans-79"/>
     <use x="257.503906" xlink:href="#DejaVuSans-2d"/>
     <use x="293.603516" xlink:href="#DejaVuSans-6f"/>
     <use x="354.785156" xlink:href="#DejaVuSans-70"/>
     <use x="418.261719" xlink:href="#DejaVuSans-74"/>
    </g>
   </g>
   <g id="text_14">
    <!-- BFGS ros  -->
    <defs>
     <path d="M 19.671875 34.8125 
L 19.671875 8.109375 
L 35.5 8.109375 
Q 43.453125 8.109375 47.28125 11.40625 
Q 51.125 14.703125 51.125 21.484375 
Q 51.125 28.328125 47.28125 31.5625 
Q 43.453125 34.8125 35.5 34.8125 
z
M 19.671875 64.796875 
L 19.671875 42.828125 
L 34.28125 42.828125 
Q 41.5 42.828125 45.03125 45.53125 
Q 48.578125 48.25 48.578125 53.8125 
Q 48.578125 59.328125 45.03125 62.0625 
Q 41.5 64.796875 34.28125 64.796875 
z
M 9.8125 72.90625 
L 35.015625 72.90625 
Q 46.296875 72.90625 52.390625 68.21875 
Q 58.5 63.53125 58.5 54.890625 
Q 58.5 48.1875 55.375 44.234375 
Q 52.25 40.28125 46.1875 39.3125 
Q 53.46875 37.75 57.5 32.78125 
Q 61.53125 27.828125 61.53125 20.40625 
Q 61.53125 10.640625 54.890625 5.3125 
Q 48.25 0 35.984375 0 
L 9.8125 0 
z
" id="DejaVuSans-42"/>
     <path d="M 59.515625 10.40625 
L 59.515625 29.984375 
L 43.40625 29.984375 
L 43.40625 38.09375 
L 69.28125 38.09375 
L 69.28125 6.78125 
Q 63.578125 2.734375 56.6875 0.65625 
Q 49.8125 -1.421875 42 -1.421875 
Q 24.90625 -1.421875 15.25 8.5625 
Q 5.609375 18.5625 5.609375 36.375 
Q 5.609375 54.25 15.25 64.234375 
Q 24.90625 74.21875 42 74.21875 
Q 49.125 74.21875 55.546875 72.453125 
Q 61.96875 70.703125 67.390625 67.28125 
L 67.390625 56.78125 
Q 61.921875 61.421875 55.765625 63.765625 
Q 49.609375 66.109375 42.828125 66.109375 
Q 29.4375 66.109375 22.71875 58.640625 
Q 16.015625 51.171875 16.015625 36.375 
Q 16.015625 21.625 22.71875 14.15625 
Q 29.4375 6.6875 42.828125 6.6875 
Q 48.046875 6.6875 52.140625 7.59375 
Q 56.25 8.5 59.515625 10.40625 
z
" id="DejaVuSans-47"/>
     <path d="M 53.515625 70.515625 
L 53.515625 60.890625 
Q 47.90625 63.578125 42.921875 64.890625 
Q 37.9375 66.21875 33.296875 66.21875 
Q 25.25 66.21875 20.875 63.09375 
Q 16.5 59.96875 16.5 54.203125 
Q 16.5 49.359375 19.40625 46.890625 
Q 22.3125 44.4375 30.421875 42.921875 
L 36.375 41.703125 
Q 47.40625 39.59375 52.65625 34.296875 
Q 57.90625 29 57.90625 20.125 
Q 57.90625 9.515625 50.796875 4.046875 
Q 43.703125 -1.421875 29.984375 -1.421875 
Q 24.8125 -1.421875 18.96875 -0.25 
Q 13.140625 0.921875 6.890625 3.21875 
L 6.890625 13.375 
Q 12.890625 10.015625 18.65625 8.296875 
Q 24.421875 6.59375 29.984375 6.59375 
Q 38.421875 6.59375 43.015625 9.90625 
Q 47.609375 13.234375 47.609375 19.390625 
Q 47.609375 24.75 44.3125 27.78125 
Q 41.015625 30.8125 33.5 32.328125 
L 27.484375 33.5 
Q 16.453125 35.6875 11.515625 40.375 
Q 6.59375 45.0625 6.59375 53.421875 
Q 6.59375 63.09375 13.40625 68.65625 
Q 20.21875 74.21875 32.171875 74.21875 
Q 37.3125 74.21875 42.625 73.28125 
Q 47.953125 72.359375 53.515625 70.515625 
z
" id="DejaVuSans-53"/>
    </defs>
    <g transform="translate(369.18424 156.979466)scale(0.17 -0.17)">
     <use xlink:href="#DejaVuSans-42"/>
     <use x="68.603516" xlink:href="#DejaVuSans-46"/>
     <use x="126.123047" xlink:href="#DejaVuSans-47"/>
     <use x="203.613281" xlink:href="#DejaVuSans-53"/>
     <use x="267.089844" xlink:href="#DejaVuSans-20"/>
     <use x="298.876953" xlink:href="#DejaVuSans-72"/>
     <use x="339.958984" xlink:href="#DejaVuSans-6f"/>
     <use x="401.140625" xlink:href="#DejaVuSans-73"/>
     <use x="453.240234" xlink:href="#DejaVuSans-20"/>
    </g>
   </g>
   <g id="text_15">
    <!-- best 2009 -->
    <defs>
     <path d="M 48.6875 27.296875 
Q 48.6875 37.203125 44.609375 42.84375 
Q 40.53125 48.484375 33.40625 48.484375 
Q 26.265625 48.484375 22.1875 42.84375 
Q 18.109375 37.203125 18.109375 27.296875 
Q 18.109375 17.390625 22.1875 11.75 
Q 26.265625 6.109375 33.40625 6.109375 
Q 40.53125 6.109375 44.609375 11.75 
Q 48.6875 17.390625 48.6875 27.296875 
z
M 18.109375 46.390625 
Q 20.953125 51.265625 25.265625 53.625 
Q 29.59375 56 35.59375 56 
Q 45.5625 56 51.78125 48.09375 
Q 58.015625 40.1875 58.015625 27.296875 
Q 58.015625 14.40625 51.78125 6.484375 
Q 45.5625 -1.421875 35.59375 -1.421875 
Q 29.59375 -1.421875 25.265625 0.953125 
Q 20.953125 3.328125 18.109375 8.203125 
L 18.109375 0 
L 9.078125 0 
L 9.078125 75.984375 
L 18.109375 75.984375 
z
" id="DejaVuSans-62"/>
     <path d="M 10.984375 1.515625 
L 10.984375 10.5 
Q 14.703125 8.734375 18.5 7.8125 
Q 22.3125 6.890625 25.984375 6.890625 
Q 35.75 6.890625 40.890625 13.453125 
Q 46.046875 20.015625 46.78125 33.40625 
Q 43.953125 29.203125 39.59375 26.953125 
Q 35.25 24.703125 29.984375 24.703125 
Q 19.046875 24.703125 12.671875 31.3125 
Q 6.296875 37.9375 6.296875 49.421875 
Q 6.296875 60.640625 12.9375 67.421875 
Q 19.578125 74.21875 30.609375 74.21875 
Q 43.265625 74.21875 49.921875 64.515625 
Q 56.59375 54.828125 56.59375 36.375 
Q 56.59375 19.140625 48.40625 8.859375 
Q 40.234375 -1.421875 26.421875 -1.421875 
Q 22.703125 -1.421875 18.890625 -0.6875 
Q 15.09375 0.046875 10.984375 1.515625 
z
M 30.609375 32.421875 
Q 37.25 32.421875 41.125 36.953125 
Q 45.015625 41.5 45.015625 49.421875 
Q 45.015625 57.28125 41.125 61.84375 
Q 37.25 66.40625 30.609375 66.40625 
Q 23.96875 66.40625 20.09375 61.84375 
Q 16.21875 57.28125 16.21875 49.421875 
Q 16.21875 41.5 20.09375 36.953125 
Q 23.96875 32.421875 30.609375 32.421875 
z
" id="DejaVuSans-39"/>
    </defs>
    <g transform="translate(369.18424 20.091654)scale(0.17 -0.17)">
     <use xlink:href="#DejaVuSans-62"/>
     <use x="63.476562" xlink:href="#DejaVuSans-65"/>
     <use x="125" xlink:href="#DejaVuSans-73"/>
     <use x="177.099609" xlink:href="#DejaVuSans-74"/>
     <use x="216.308594" xlink:href="#DejaVuSans-20"/>
     <use x="248.095703" xlink:href="#DejaVuSans-32"/>
     <use x="311.71875" xlink:href="#DejaVuSans-30"/>
     <use x="375.341797" xlink:href="#DejaVuSans-30"/>
     <use x="438.964844" xlink:href="#DejaVuSans-39"/>
    </g>
   </g>
   <g id="text_16">
    <!-- bbob f1-f5, 5-D -->
    <defs>
     <path d="M 10.796875 72.90625 
L 49.515625 72.90625 
L 49.515625 64.59375 
L 19.828125 64.59375 
L 19.828125 46.734375 
Q 21.96875 47.46875 24.109375 47.828125 
Q 26.265625 48.1875 28.421875 48.1875 
Q 40.625 48.1875 47.75 41.5 
Q 54.890625 34.8125 54.890625 23.390625 
Q 54.890625 11.625 47.5625 5.09375 
Q 40.234375 -1.421875 26.90625 -1.421875 
Q 22.3125 -1.421875 17.546875 -0.640625 
Q 12.796875 0.140625 7.71875 1.703125 
L 7.71875 11.625 
Q 12.109375 9.234375 16.796875 8.0625 
Q 21.484375 6.890625 26.703125 6.890625 
Q 35.15625 6.890625 40.078125 11.328125 
Q 45.015625 15.765625 45.015625 23.390625 
Q 45.015625 31 40.078125 35.4375 
Q 35.15625 39.890625 26.703125 39.890625 
Q 22.75 39.890625 18.8125 39.015625 
Q 14.890625 38.140625 10.796875 36.28125 
z
" id="DejaVuSans-35"/>
     <path d="M 19.671875 64.796875 
L 19.671875 8.109375 
L 31.59375 8.109375 
Q 46.6875 8.109375 53.6875 14.9375 
Q 60.6875 21.78125 60.6875 36.53125 
Q 60.6875 51.171875 53.6875 57.984375 
Q 46.6875 64.796875 31.59375 64.796875 
z
M 9.8125 72.90625 
L 30.078125 72.90625 
Q 51.265625 72.90625 61.171875 64.09375 
Q 71.09375 55.28125 71.09375 36.53125 
Q 71.09375 17.671875 61.125 8.828125 
Q 51.171875 0 30.078125 0 
L 9.8125 0 
z
" id="DejaVuSans-44"/>
    </defs>
    <g transform="translate(58.89048 17.475982)scale(0.102 -0.102)">
     <use xlink:href="#DejaVuSans-62"/>
     <use x="63.476562" xlink:href="#DejaVuSans-62"/>
     <use x="126.953125" xlink:href="#DejaVuSans-6f"/>
     <use x="188.134766" xlink:href="#DejaVuSans-62"/>
     <use x="251.611328" xlink:href="#DejaVuSans-20"/>
     <use x="283.398438" xlink:href="#DejaVuSans-66"/>
     <use x="318.603516" xlink:href="#DejaVuSans-31"/>
     <use x="382.226562" xlink:href="#DejaVuSans-2d"/>
     <use x="418.310547" xlink:href="#DejaVuSans-66"/>
     <use x="453.515625" xlink:href="#DejaVuSans-35"/>
     <use x="517.138672" xlink:href="#DejaVuSans-2c"/>
     <use x="548.925781" xlink:href="#DejaVuSans-20"/>
     <use x="580.712891" xlink:href="#DejaVuSans-35"/>
     <use x="644.335938" xlink:href="#DejaVuSans-2d"/>
     <use x="680.419922" xlink:href="#DejaVuSans-44"/>
    </g>
    <!-- 51 targets: 100..1e-08 -->
    <defs>
     <path d="M 11.71875 12.40625 
L 22.015625 12.40625 
L 22.015625 0 
L 11.71875 0 
z
M 11.71875 51.703125 
L 22.015625 51.703125 
L 22.015625 39.3125 
L 11.71875 39.3125 
z
" id="DejaVuSans-3a"/>
    </defs>
    <g transform="translate(58.89048 28.89775)scale(0.102 -0.102)">
     <use xlink:href="#DejaVuSans-35"/>
     <use x="63.623047" xlink:href="#DejaVuSans-31"/>
     <use x="127.246094" xlink:href="#DejaVuSans-20"/>
     <use x="159.033203" xlink:href="#DejaVuSans-74"/>
     <use x="198.242188" xlink:href="#DejaVuSans-61"/>
     <use x="259.521484" xlink:href="#DejaVuSans-72"/>
     <use x="300.619141" xlink:href="#DejaVuSans-67"/>
     <use x="364.095703" xlink:href="#DejaVuSans-65"/>
     <use x="425.619141" xlink:href="#DejaVuSans-74"/>
     <use x="464.828125" xlink:href="#DejaVuSans-73"/>
     <use x="516.927734" xlink:href="#DejaVuSans-3a"/>
     <use x="550.619141" xlink:href="#DejaVuSans-20"/>
     <use x="582.40625" xlink:href="#DejaVuSans-31"/>
     <use x="646.029297" xlink:href="#DejaVuSans-30"/>
     <use x="709.652344" xlink:href="#DejaVuSans-30"/>
     <use x="773.275391" xlink:href="#DejaVuSans-2e"/>
     <use x="805.0625" xlink:href="#DejaVuSans-2e"/>
     <use x="836.849609" xlink:href="#DejaVuSans-31"/>
     <use x="900.472656" xlink:href="#DejaVuSans-65"/>
     <use x="961.996094" xlink:href="#DejaVuSans-2d"/>
     <use x="998.080078" xlink:href="#DejaVuSans-30"/>
     <use x="1061.703125" xlink:href="#DejaVuSans-38"/>
    </g>
    <!-- 15 instances -->
    <g transform="translate(58.89048 40.319519)scale(0.102 -0.102)">
     <use xlink:href="#DejaVuSans-31"/>
     <use x="63.623047" xlink:href="#DejaVuSans-35"/>
     <use x="127.246094" xlink:href="#DejaVuSans-20"/>
     <use x="159.033203" xlink:href="#DejaVuSans-69"/>
     <use x="186.816406" xlink:href="#DejaVuSans-6e"/>
     <use x="250.195312" xlink:href="#DejaVuSans-73"/>
     <use x="302.294922" xlink:href="#DejaVuSans-74"/>
     <use x="341.503906" xlink:href="#DejaVuSans-61"/>
     <use x="402.783203" xlink:href="#DejaVuSans-6e"/>
     <use x="466.162109" xlink:href="#DejaVuSans-63"/>
     <use x="521.142578" xlink:href="#DejaVuSans-65"/>
     <use x="582.666016" xlink:href="#DejaVuSans-73"/>
    </g>
   </g>
   <g id="text_17">
    <!-- v0.0.0 -->
    <g style="fill:#808080;" transform="translate(178.96275 289.919965)scale(0.1 -0.1)">
     <use xlink:href="#DejaVuSans-76"/>
     <use x="59.179688" xlink:href="#DejaVuSans-30"/>
     <use x="122.802734" xlink:href="#DejaVuSans-2e"/>
     <use x="154.589844" xlink:href="#DejaVuSans-30"/>
     <use x="218.212891" xlink:href="#DejaVuSans-2e"/>
     <use x="250" xlink:href="#DejaVuSans-30"/>
    </g>
   </g>
  </g>
 </g>
 <defs>
  <clipPath id="p351e2ee59e">
   <rect height="288.034772" width="277.048" x="56.12" y="6.845228"/>
  </clipPath>
 </defs>
</svg>
