<?xml version="1.0" encoding="utf-8" standalone="no"?>
<!DOCTYPE svg PUBLIC "-//W3C//DTD SVG 1.1//EN"
  "http://www.w3.org/Graphics/SVG/1.1/DTD/svg11.dtd">
<!-- Created with matplotlib (http://matplotlib.org/) -->
<svg height="345pt" version="1.1" viewBox="0 0 460 345" width="460pt" xmlns="http://www.w3.org/2000/svg" xmlns:xlink="http://www.w3.org/1999/xlink">
 <defs>
  <style type="text/css">
*{stroke-linecap:butt;stroke-linejoin:round;}
  </style>
 </defs>
 <g id="figure_1">
  <g id="patch_1">
   <path d="M 0 345.6 
L 460.8 345.6 
L 460.8 0 
L 0 0 
z
" style="fill:#ffffff;"/>
  </g>
  <g id="axes_1">
   <g id="patch_2">
    <path d="M 56.12 294.88 
L 333.168 294.88 
L 333.168 6.845228 
L 56.12 6.845228 
z
" style="fill:#ffffff;"/>
   </g>
   <g id="line2d_1">
    <path d="M 37.236359 294.88 
L 37.236359 272.51271 
L 49.15061 272.51271 
L 49.15061 268.039252 
L 56.12 268.039252 
L 56.12 266.920888 
L 61.064861 266.920888 
L 61.064861 265.802523 
L 64.900393 265.802523 
L 64.900393 264.684159 
L 68.034251 264.684159 
L 68.034251 263.565795 
L 72.979112 263.565795 
L 72.979112 262.44743 
L 76.814644 262.44743 
L 76.814644 261.329066 
L 79.948502 261.329066 
L 79.948502 260.210701 
L 81.324327 260.210701 
L 81.324327 259.092337 
L 82.598142 259.092337 
L 82.598142 257.973972 
L 89.567532 257.973972 
L 89.567532 256.855608 
L 93.238578 256.855608 
L 93.238578 255.737243 
L 93.887283 255.737243 
L 93.887283 254.618879 
L 97.849669 254.618879 
L 97.849669 253.500514 
L 100.643147 253.500514 
L 100.643147 252.38215 
L 101.067579 252.38215 
L 101.067579 251.263785 
L 105.480242 251.263785 
L 105.480242 250.145421 
L 106.426644 250.145421 
L 106.426644 249.027056 
L 108.451173 249.027056 
L 108.451173 247.908692 
L 109.76392 247.908692 
L 109.76392 245.671963 
L 112.122219 245.671963 
L 112.122219 244.553598 
L 112.770924 244.553598 
L 112.770924 243.435234 
L 113.800491 243.435234 
L 113.800491 242.316869 
L 116.39293 242.316869 
L 116.39293 241.198505 
L 117.874207 241.198505 
L 117.874207 238.961776 
L 119.237897 238.961776 
L 119.237897 237.843411 
L 119.382949 237.843411 
L 119.382949 235.606682 
L 119.669433 235.606682 
L 119.669433 234.488318 
L 121.804096 234.488318 
L 121.804096 233.369954 
L 122.779599 233.369954 
L 122.779599 231.133225 
L 126.873966 231.133225 
L 126.873966 230.01486 
L 127.334814 230.01486 
L 127.334814 228.896496 
L 128.981332 228.896496 
L 128.981332 227.778131 
L 130.023386 227.778131 
L 130.023386 226.659767 
L 131.654565 226.659767 
L 131.654565 225.541402 
L 132.882847 225.541402 
L 132.882847 224.423038 
L 134.213018 224.423038 
L 134.213018 223.304673 
L 136.332102 223.304673 
L 136.332102 222.186309 
L 136.914823 222.186309 
L 136.914823 221.067944 
L 138.458109 221.067944 
L 138.458109 219.94958 
L 139.60905 219.94958 
L 139.60905 218.831215 
L 140.307161 218.831215 
L 140.307161 217.712851 
L 140.477347 217.712851 
L 140.477347 216.594486 
L 141.898705 216.594486 
L 141.898705 215.476122 
L 142.473629 215.476122 
L 142.473629 214.357757 
L 143.35529 214.357757 
L 143.35529 213.239393 
L 143.744751 213.239393 
L 143.744751 212.121028 
L 144.056965 212.121028 
L 144.056965 211.002664 
L 145.411621 211.002664 
L 145.411621 209.884299 
L 145.695216 209.884299 
L 145.695216 208.765935 
L 146.667271 208.765935 
L 146.667271 207.64757 
L 147.643181 207.64757 
L 147.643181 206.529206 
L 148.593071 206.529206 
L 148.593071 205.410841 
L 148.932933 205.410841 
L 148.932933 204.292477 
L 149.240798 204.292477 
L 149.240798 203.174112 
L 150.132627 203.174112 
L 150.132627 202.055748 
L 150.679098 202.055748 
L 150.679098 200.937384 
L 151.8977 200.937384 
L 151.962932 198.700655 
L 152.830481 198.700655 
L 152.830481 197.58229 
L 154.815989 197.58229 
L 154.815989 196.463926 
L 156.512635 196.463926 
L 156.512635 195.345561 
L 158.132707 195.345561 
L 158.132707 194.227197 
L 159.529506 194.227197 
L 159.529506 193.108832 
L 160.227826 193.108832 
L 160.334837 190.872103 
L 160.834236 190.872103 
L 160.834236 189.753739 
L 161.040245 189.753739 
L 161.065823 187.51701 
L 161.294331 187.51701 
L 161.294331 186.398645 
L 161.407456 186.398645 
L 161.407456 185.280281 
L 162.071002 185.280281 
L 162.131166 183.043552 
L 162.33416 183.043552 
L 162.33416 181.925187 
L 163.111639 181.925187 
L 163.111639 180.806823 
L 164.242227 180.806823 
L 164.242227 179.688458 
L 164.537137 179.688458 
L 164.537137 178.570094 
L 165.69795 178.570094 
L 165.69795 177.451729 
L 166.141179 177.451729 
L 166.141179 176.333365 
L 166.311552 176.333365 
L 166.311552 175.215 
L 166.675001 175.215 
L 166.675001 174.096636 
L 167.138972 174.096636 
L 167.138972 172.978271 
L 167.353052 172.978271 
L 167.353052 171.859907 
L 167.494306 171.859907 
L 167.494306 170.741543 
L 168.065007 170.741543 
L 168.065007 169.623178 
L 168.567879 169.623178 
L 168.567879 168.504814 
L 168.756812 168.504814 
L 168.756812 167.386449 
L 169.136553 167.386449 
L 169.208322 165.14972 
L 170.635489 165.14972 
L 170.635489 164.031356 
L 173.718004 164.031356 
L 173.773008 161.794627 
L 174.854857 161.794627 
L 174.854857 160.676262 
L 175.02589 160.676262 
L 175.02589 159.557898 
L 175.329524 159.557898 
L 175.424013 157.321169 
L 175.666188 157.321169 
L 175.737092 153.966075 
L 175.867227 153.966075 
L 175.867227 152.847711 
L 175.985658 152.847711 
L 175.985658 151.729346 
L 176.113932 151.729346 
L 176.19892 148.374253 
L 176.262385 148.374253 
L 176.28876 146.137524 
L 176.388618 146.137524 
L 176.461828 142.78243 
L 176.576246 142.78243 
L 176.669298 137.190608 
L 176.731053 137.190608 
L 176.807937 134.953879 
L 176.874293 134.953879 
L 176.960681 130.480421 
L 177.0214 130.480421 
L 177.081906 128.243692 
L 177.142199 128.243692 
L 177.172267 124.888599 
L 177.351576 124.888599 
L 177.351576 123.770234 
L 177.514316 123.770234 
L 177.617081 120.415141 
L 177.743468 120.415141 
L 177.743468 119.296776 
L 177.859315 119.296776 
L 177.940902 117.060047 
L 178.394505 117.060047 
L 178.394505 115.941683 
L 178.510692 115.941683 
L 178.510692 114.823318 
L 178.763571 114.823318 
L 178.763571 113.704954 
L 179.111467 113.704954 
L 179.111467 112.586589 
L 179.553018 112.586589 
L 179.553018 111.468225 
L 179.957982 111.468225 
L 180.051399 109.231496 
L 180.4325 109.231496 
L 180.4325 108.113132 
L 181.426246 108.113132 
L 181.426246 106.994767 
L 182.71011 106.994767 
L 182.71011 105.876403 
L 183.97226 105.876403 
L 183.97226 104.758038 
L 184.123288 104.758038 
L 184.123288 103.639674 
L 184.282936 103.639674 
L 184.381968 101.402945 
L 184.411567 101.402945 
L 184.411567 100.28458 
L 184.62059 100.28458 
L 184.62059 99.166216 
L 184.919866 99.166216 
L 184.919866 98.047851 
L 185.056499 98.047851 
L 185.056499 96.929487 
L 185.210884 96.929487 
L 185.210884 95.811122 
L 185.357676 95.811122 
L 185.357676 94.692758 
L 185.475449 94.692758 
L 185.558643 92.456029 
L 185.69336 92.456029 
L 185.790677 90.2193 
L 185.87538 90.2193 
L 185.87538 89.100935 
L 187.274402 89.100935 
L 187.321627 86.864206 
L 187.388078 86.864206 
L 187.476282 84.627477 
L 187.56677 84.627477 
L 187.618654 82.390748 
L 188.295007 82.390748 
L 188.295007 81.272384 
L 188.829251 81.272384 
L 188.829251 80.15402 
L 190.248027 80.15402 
L 190.352999 66.733646 
L 190.364623 66.733646 
L 190.468889 52.194907 
L 190.480435 52.194907 
L 190.563338 46.603085 
L 192.130015 46.603085 
L 192.228302 44.366356 
L 192.309434 44.366356 
L 192.412893 41.011263 
L 192.474671 41.011263 
L 192.556698 38.774534 
L 192.611845 38.774534 
L 192.717559 35.41944 
L 192.792385 35.41944 
L 192.840747 33.182711 
L 192.933062 33.182711 
L 193.032845 30.945982 
L 193.108295 30.945982 
L 193.147873 28.709253 
L 193.224788 28.709253 
L 193.32681 26.472524 
L 193.356127 26.472524 
L 193.467078 23.117431 
L 193.565747 23.117431 
L 193.64466 19.762337 
L 193.692601 19.762337 
L 193.740408 17.525609 
L 193.805214 17.525609 
L 193.903857 14.170515 
L 193.981237 14.170515 
L 194.082623 11.933786 
L 194.12189 11.933786 
L 194.213165 9.697057 
L 333.168 9.697057 
L 333.168 9.697057 
" style="fill:none;stroke:#f5deb3;stroke-linecap:square;stroke-width:4;"/>
   </g>
   <g id="line2d_2">
    <defs>
     <path d="M -0 7.778175 
L 7.778175 0 
L 0 -7.778175 
L -7.778175 -0 
z
" id="m597d0e5f3d" style="stroke:#f5deb3;stroke-linejoin:miter;stroke-width:1.5;"/>
    </defs>
    <g>
     <use style="fill:#f5deb3;stroke:#f5deb3;stroke-linejoin:miter;stroke-width:1.5;" x="140.477347" xlink:href="#m597d0e5f3d" y="217.712851"/>
     <use style="fill:#f5deb3;stroke:#f5deb3;stroke-linejoin:miter;stroke-width:1.5;" x="180.4325" xlink:href="#m597d0e5f3d" y="109.231496"/>
     <use style="fill:#f5deb3;stroke:#f5deb3;stroke-linejoin:miter;stroke-width:1.5;" x="194.213165" xlink:href="#m597d0e5f3d" y="10.815422"/>
     <use style="fill:#f5deb3;stroke:#f5deb3;stroke-linejoin:miter;stroke-width:1.5;" x="194.213165" xlink:href="#m597d0e5f3d" y="9.697057"/>
     <use style="fill:#f5deb3;stroke:#f5deb3;stroke-linejoin:miter;stroke-width:1.5;" x="194.213165" xlink:href="#m597d0e5f3d" y="9.697057"/>
     <use style="fill:#f5deb3;stroke:#f5deb3;stroke-linejoin:miter;stroke-width:1.5;" x="333.168" xlink:href="#m597d0e5f3d" y="9.697057"/>
    </g>
   </g>
   <g id="line2d_3">
    <path style="fill:none;stroke:#f5deb3;stroke-linecap:square;stroke-width:4;"/>
    <g/>
   </g>
   <g id="line2d_4">
    <path d="M 333.168 9.697057 
L 363.64328 15.400716 
" style="fill:none;stroke:#f5deb3;stroke-linecap:square;stroke-width:4;"/>
    <g>
     <use style="fill:#f5deb3;stroke:#f5deb3;stroke-linejoin:miter;stroke-width:1.5;" x="333.168" xlink:href="#m597d0e5f3d" y="9.697057"/>
     <use style="fill:#f5deb3;stroke:#f5deb3;stroke-linejoin:miter;stroke-width:1.5;" x="363.64328" xlink:href="#m597d0e5f3d" y="15.400716"/>
    </g>
   </g>
   <g id="matplotlib.axis_1">
    <g id="xtick_1">
     <g id="line2d_5">
      <path clip-path="url(#pab14af0244)" d="M 56.12 294.88 
L 56.12 6.845228 
" style="fill:none;stroke:#b0b0b0;stroke-linecap:square;stroke-width:0.8;"/>
     </g>
     <g id="line2d_6">
      <defs>
       <path d="M 0 0 
L 0 3.5 
" id="mcaa5683dc6" style="stroke:#000000;stroke-width:0.8;"/>
      </defs>
      <g>
       <use style="stroke:#000000;stroke-width:0.8;" x="56.12" xlink:href="#mcaa5683dc6" y="294.88"/>
      </g>
     </g>
     <g id="text_1">
      <!-- 0 -->
      <defs>
       <path d="M 31.78125 66.40625 
Q 24.171875 66.40625 20.328125 58.90625 
Q 16.5 51.421875 16.5 36.375 
Q 16.5 21.390625 20.328125 13.890625 
Q 24.171875 6.390625 31.78125 6.390625 
Q 39.453125 6.390625 43.28125 13.890625 
Q 47.125 21.390625 47.125 36.375 
Q 47.125 51.421875 43.28125 58.90625 
Q 39.453125 66.40625 31.78125 66.40625 
z
M 31.78125 74.21875 
Q 44.046875 74.21875 50.515625 64.515625 
Q 56.984375 54.828125 56.984375 36.375 
Q 56.984375 17.96875 50.515625 8.265625 
Q 44.046875 -1.421875 31.78125 -1.421875 
Q 19.53125 -1.421875 13.0625 8.265625 
Q 6.59375 17.96875 6.59375 36.375 
Q 6.59375 54.828125 13.0625 64.515625 
Q 19.53125 74.21875 31.78125 74.21875 
z
" id="DejaVuSans-30"/>
      </defs>
      <g transform="translate(49.7575 317.076875)scale(0.2 -0.2)">
       <use xlink:href="#DejaVuSans-30"/>
      </g>
     </g>
    </g>
    <g id="xtick_2">
     <g id="line2d_7">
      <path clip-path="url(#pab14af0244)" d="M 135.276571 294.88 
L 135.276571 6.845228 
" style="fill:none;stroke:#b0b0b0;stroke-linecap:square;stroke-width:0.8;"/>
     </g>
     <g id="line2d_8">
      <g>
       <use style="stroke:#000000;stroke-width:0.8;" x="135.276571" xlink:href="#mcaa5683dc6" y="294.88"/>
      </g>
     </g>
     <g id="text_2">
      <!-- 2 -->
      <defs>
       <path d="M 19.1875 8.296875 
L 53.609375 8.296875 
L 53.609375 0 
L 7.328125 0 
L 7.328125 8.296875 
Q 12.9375 14.109375 22.625 23.890625 
Q 32.328125 33.6875 34.8125 36.53125 
Q 39.546875 41.84375 41.421875 45.53125 
Q 43.3125 49.21875 43.3125 52.78125 
Q 43.3125 58.59375 39.234375 62.25 
Q 35.15625 65.921875 28.609375 65.921875 
Q 23.96875 65.921875 18.8125 64.3125 
Q 13.671875 62.703125 7.8125 59.421875 
L 7.8125 69.390625 
Q 13.765625 71.78125 18.9375 73 
Q 24.125 74.21875 28.421875 74.21875 
Q 39.75 74.21875 46.484375 68.546875 
Q 53.21875 62.890625 53.21875 53.421875 
Q 53.21875 48.921875 51.53125 44.890625 
Q 49.859375 40.875 45.40625 35.40625 
Q 44.1875 33.984375 37.640625 27.21875 
Q 31.109375 20.453125 19.1875 8.296875 
z
" id="DejaVuSans-32"/>
      </defs>
      <g transform="translate(128.914071 317.076875)scale(0.2 -0.2)">
       <use xlink:href="#DejaVuSans-32"/>
      </g>
     </g>
    </g>
    <g id="xtick_3">
     <g id="line2d_9">
      <path clip-path="url(#pab14af0244)" d="M 214.433143 294.88 
L 214.433143 6.845228 
" style="fill:none;stroke:#b0b0b0;stroke-linecap:square;stroke-width:0.8;"/>
     </g>
     <g id="line2d_10">
      <g>
       <use style="stroke:#000000;stroke-width:0.8;" x="214.433143" xlink:href="#mcaa5683dc6" y="294.88"/>
      </g>
     </g>
     <g id="text_3">
      <!-- 4 -->
      <defs>
       <path d="M 37.796875 64.3125 
L 12.890625 25.390625 
L 37.796875 25.390625 
z
M 35.203125 72.90625 
L 47.609375 72.90625 
L 47.609375 25.390625 
L 58.015625 25.390625 
L 58.015625 17.1875 
L 47.609375 17.1875 
L 47.609375 0 
L 37.796875 0 
L 37.796875 17.1875 
L 4.890625 17.1875 
L 4.890625 26.703125 
z
" id="DejaVuSans-34"/>
      </defs>
      <g transform="translate(208.070643 317.076875)scale(0.2 -0.2)">
       <use xlink:href="#DejaVuSans-34"/>
      </g>
     </g>
    </g>
    <g id="xtick_4">
     <g id="line2d_11">
      <path clip-path="url(#pab14af0244)" d="M 293.589714 294.88 
L 293.589714 6.845228 
" style="fill:none;stroke:#b0b0b0;stroke-linecap:square;stroke-width:0.8;"/>
     </g>
     <g id="line2d_12">
      <g>
       <use style="stroke:#000000;stroke-width:0.8;" x="293.589714" xlink:href="#mcaa5683dc6" y="294.88"/>
      </g>
     </g>
     <g id="text_4">
      <!-- 6 -->
      <defs>
       <path d="M 33.015625 40.375 
Q 26.375 40.375 22.484375 35.828125 
Q 18.609375 31.296875 18.609375 23.390625 
Q 18.609375 15.53125 22.484375 10.953125 
Q 26.375 6.390625 33.015625 6.390625 
Q 39.65625 6.390625 43.53125 10.953125 
Q 47.40625 15.53125 47.40625 23.390625 
Q 47.40625 31.296875 43.53125 35.828125 
Q 39.65625 40.375 33.015625 40.375 
z
M 52.59375 71.296875 
L 52.59375 62.3125 
Q 48.875 64.0625 45.09375 64.984375 
Q 41.3125 65.921875 37.59375 65.921875 
Q 27.828125 65.921875 22.671875 59.328125 
Q 17.53125 52.734375 16.796875 39.40625 
Q 19.671875 43.65625 24.015625 45.921875 
Q 28.375 48.1875 33.59375 48.1875 
Q 44.578125 48.1875 50.953125 41.515625 
Q 57.328125 34.859375 57.328125 23.390625 
Q 57.328125 12.15625 50.6875 5.359375 
Q 44.046875 -1.421875 33.015625 -1.421875 
Q 20.359375 -1.421875 13.671875 8.265625 
Q 6.984375 17.96875 6.984375 36.375 
Q 6.984375 53.65625 15.1875 63.9375 
Q 23.390625 74.21875 37.203125 74.21875 
Q 40.921875 74.21875 44.703125 73.484375 
Q 48.484375 72.75 52.59375 71.296875 
z
" id="DejaVuSans-36"/>
      </defs>
      <g transform="translate(287.227214 317.076875)scale(0.2 -0.2)">
       <use xlink:href="#DejaVuSans-36"/>
      </g>
     </g>
    </g>
    <g id="xtick_5">
     <g id="line2d_13">
      <path clip-path="url(#pab14af0244)" d="M 56.12 294.88 
L 56.12 6.845228 
" style="fill:none;stroke:#b0b0b0;stroke-linecap:square;stroke-width:0.8;"/>
     </g>
     <g id="line2d_14">
      <defs>
       <path d="M 0 0 
L 0 2 
" id="mb7debf366e" style="stroke:#000000;stroke-width:0.6;"/>
      </defs>
      <g>
       <use style="stroke:#000000;stroke-width:0.6;" x="56.12" xlink:href="#mb7debf366e" y="294.88"/>
      </g>
     </g>
    </g>
    <g id="xtick_6">
     <g id="line2d_15">
      <path clip-path="url(#pab14af0244)" d="M 95.698286 294.88 
L 95.698286 6.845228 
" style="fill:none;stroke:#b0b0b0;stroke-linecap:square;stroke-width:0.8;"/>
     </g>
     <g id="line2d_16">
      <g>
       <use style="stroke:#000000;stroke-width:0.6;" x="95.698286" xlink:href="#mb7debf366e" y="294.88"/>
      </g>
     </g>
    </g>
    <g id="xtick_7">
     <g id="line2d_17">
      <path clip-path="url(#pab14af0244)" d="M 135.276571 294.88 
L 135.276571 6.845228 
" style="fill:none;stroke:#b0b0b0;stroke-linecap:square;stroke-width:0.8;"/>
     </g>
     <g id="line2d_18">
      <g>
       <use style="stroke:#000000;stroke-width:0.6;" x="135.276571" xlink:href="#mb7debf366e" y="294.88"/>
      </g>
     </g>
    </g>
    <g id="xtick_8">
     <g id="line2d_19">
      <path clip-path="url(#pab14af0244)" d="M 174.854857 294.88 
L 174.854857 6.845228 
" style="fill:none;stroke:#b0b0b0;stroke-linecap:square;stroke-width:0.8;"/>
     </g>
     <g id="line2d_20">
      <g>
       <use style="stroke:#000000;stroke-width:0.6;" x="174.854857" xlink:href="#mb7debf366e" y="294.88"/>
      </g>
     </g>
    </g>
    <g id="xtick_9">
     <g id="line2d_21">
      <path clip-path="url(#pab14af0244)" d="M 214.433143 294.88 
L 214.433143 6.845228 
" style="fill:none;stroke:#b0b0b0;stroke-linecap:square;stroke-width:0.8;"/>
     </g>
     <g id="line2d_22">
      <g>
       <use style="stroke:#000000;stroke-width:0.6;" x="214.433143" xlink:href="#mb7debf366e" y="294.88"/>
      </g>
     </g>
    </g>
    <g id="xtick_10">
     <g id="line2d_23">
      <path clip-path="url(#pab14af0244)" d="M 254.011429 294.88 
L 254.011429 6.845228 
" style="fill:none;stroke:#b0b0b0;stroke-linecap:square;stroke-width:0.8;"/>
     </g>
     <g id="line2d_24">
      <g>
       <use style="stroke:#000000;stroke-width:0.6;" x="254.011429" xlink:href="#mb7debf366e" y="294.88"/>
      </g>
     </g>
    </g>
    <g id="xtick_11">
     <g id="line2d_25">
      <path clip-path="url(#pab14af0244)" d="M 293.589714 294.88 
L 293.589714 6.845228 
" style="fill:none;stroke:#b0b0b0;stroke-linecap:square;stroke-width:0.8;"/>
     </g>
     <g id="line2d_26">
      <g>
       <use style="stroke:#000000;stroke-width:0.6;" x="293.589714" xlink:href="#mb7debf366e" y="294.88"/>
      </g>
     </g>
    </g>
    <g id="xtick_12">
     <g id="line2d_27">
      <path clip-path="url(#pab14af0244)" d="M 333.168 294.88 
L 333.168 6.845228 
" style="fill:none;stroke:#b0b0b0;stroke-linecap:square;stroke-width:0.8;"/>
     </g>
     <g id="line2d_28">
      <g>
       <use style="stroke:#000000;stroke-width:0.6;" x="333.168" xlink:href="#mb7debf366e" y="294.88"/>
      </g>
     </g>
    </g>
    <g id="text_5">
     <!-- log10(# f-evals / dimension) -->
     <defs>
      <path d="M 9.421875 75.984375 
L 18.40625 75.984375 
L 18.40625 0 
L 9.421875 0 
z
" id="DejaVuSans-6c"/>
      <path d="M 30.609375 48.390625 
Q 23.390625 48.390625 19.1875 42.75 
Q 14.984375 37.109375 14.984375 27.296875 
Q 14.984375 17.484375 19.15625 11.84375 
Q 23.34375 6.203125 30.609375 6.203125 
Q 37.796875 6.203125 41.984375 11.859375 
Q 46.1875 17.53125 46.1875 27.296875 
Q 46.1875 37.015625 41.984375 42.703125 
Q 37.796875 48.390625 30.609375 48.390625 
z
M 30.609375 56 
Q 42.328125 56 49.015625 48.375 
Q 55.71875 40.765625 55.71875 27.296875 
Q 55.71875 13.875 49.015625 6.21875 
Q 42.328125 -1.421875 30.609375 -1.421875 
Q 18.84375 -1.421875 12.171875 6.21875 
Q 5.515625 13.875 5.515625 27.296875 
Q 5.515625 40.765625 12.171875 48.375 
Q 18.84375 56 30.609375 56 
z
" id="DejaVuSans-6f"/>
      <path d="M 45.40625 27.984375 
Q 45.40625 37.75 41.375 43.109375 
Q 37.359375 48.484375 30.078125 48.484375 
Q 22.859375 48.484375 18.828125 43.109375 
Q 14.796875 37.75 14.796875 27.984375 
Q 14.796875 18.265625 18.828125 12.890625 
Q 22.859375 7.515625 30.078125 7.515625 
Q 37.359375 7.515625 41.375 12.890625 
Q 45.40625 18.265625 45.40625 27.984375 
z
M 54.390625 6.78125 
Q 54.390625 -7.171875 48.1875 -13.984375 
Q 42 -20.796875 29.203125 -20.796875 
Q 24.46875 -20.796875 20.265625 -20.09375 
Q 16.0625 -19.390625 12.109375 -17.921875 
L 12.109375 -9.1875 
Q 16.0625 -11.328125 19.921875 -12.34375 
Q 23.78125 -13.375 27.78125 -13.375 
Q 36.625 -13.375 41.015625 -8.765625 
Q 45.40625 -4.15625 45.40625 5.171875 
L 45.40625 9.625 
Q 42.625 4.78125 38.28125 2.390625 
Q 33.9375 0 27.875 0 
Q 17.828125 0 11.671875 7.65625 
Q 5.515625 15.328125 5.515625 27.984375 
Q 5.515625 40.671875 11.671875 48.328125 
Q 17.828125 56 27.875 56 
Q 33.9375 56 38.28125 53.609375 
Q 42.625 51.21875 45.40625 46.390625 
L 45.40625 54.6875 
L 54.390625 54.6875 
z
" id="DejaVuSans-67"/>
      <path d="M 12.40625 8.296875 
L 28.515625 8.296875 
L 28.515625 63.921875 
L 10.984375 60.40625 
L 10.984375 69.390625 
L 28.421875 72.90625 
L 38.28125 72.90625 
L 38.28125 8.296875 
L 54.390625 8.296875 
L 54.390625 0 
L 12.40625 0 
z
" id="DejaVuSans-31"/>
      <path d="M 31 75.875 
Q 24.46875 64.65625 21.28125 53.65625 
Q 18.109375 42.671875 18.109375 31.390625 
Q 18.109375 20.125 21.3125 9.0625 
Q 24.515625 -2 31 -13.1875 
L 23.1875 -13.1875 
Q 15.875 -1.703125 12.234375 9.375 
Q 8.59375 20.453125 8.59375 31.390625 
Q 8.59375 42.28125 12.203125 53.3125 
Q 15.828125 64.359375 23.1875 75.875 
z
" id="DejaVuSans-28"/>
      <path d="M 51.125 44 
L 36.921875 44 
L 32.8125 27.6875 
L 47.125 27.6875 
z
M 43.796875 71.78125 
L 38.71875 51.515625 
L 52.984375 51.515625 
L 58.109375 71.78125 
L 65.921875 71.78125 
L 60.890625 51.515625 
L 76.125 51.515625 
L 76.125 44 
L 58.984375 44 
L 54.984375 27.6875 
L 70.515625 27.6875 
L 70.515625 20.21875 
L 53.078125 20.21875 
L 48 0 
L 40.1875 0 
L 45.21875 20.21875 
L 30.90625 20.21875 
L 25.875 0 
L 18.015625 0 
L 23.09375 20.21875 
L 7.71875 20.21875 
L 7.71875 27.6875 
L 24.90625 27.6875 
L 29 44 
L 13.28125 44 
L 13.28125 51.515625 
L 30.90625 51.515625 
L 35.890625 71.78125 
z
" id="DejaVuSans-23"/>
      <path id="DejaVuSans-20"/>
      <path d="M 37.109375 75.984375 
L 37.109375 68.5 
L 28.515625 68.5 
Q 23.6875 68.5 21.796875 66.546875 
Q 19.921875 64.59375 19.921875 59.515625 
L 19.921875 54.6875 
L 34.71875 54.6875 
L 34.71875 47.703125 
L 19.921875 47.703125 
L 19.921875 0 
L 10.890625 0 
L 10.890625 47.703125 
L 2.296875 47.703125 
L 2.296875 54.6875 
L 10.890625 54.6875 
L 10.890625 58.5 
Q 10.890625 67.625 15.140625 71.796875 
Q 19.390625 75.984375 28.609375 75.984375 
z
" id="DejaVuSans-66"/>
      <path d="M 4.890625 31.390625 
L 31.203125 31.390625 
L 31.203125 23.390625 
L 4.890625 23.390625 
z
" id="DejaVuSans-2d"/>
      <path d="M 56.203125 29.59375 
L 56.203125 25.203125 
L 14.890625 25.203125 
Q 15.484375 15.921875 20.484375 11.0625 
Q 25.484375 6.203125 34.421875 6.203125 
Q 39.59375 6.203125 44.453125 7.46875 
Q 49.3125 8.734375 54.109375 11.28125 
L 54.109375 2.78125 
Q 49.265625 0.734375 44.1875 -0.34375 
Q 39.109375 -1.421875 33.890625 -1.421875 
Q 20.796875 -1.421875 13.15625 6.1875 
Q 5.515625 13.8125 5.515625 26.8125 
Q 5.515625 40.234375 12.765625 48.109375 
Q 20.015625 56 32.328125 56 
Q 43.359375 56 49.78125 48.890625 
Q 56.203125 41.796875 56.203125 29.59375 
z
M 47.21875 32.234375 
Q 47.125 39.59375 43.09375 43.984375 
Q 39.0625 48.390625 32.421875 48.390625 
Q 24.90625 48.390625 20.390625 44.140625 
Q 15.875 39.890625 15.1875 32.171875 
z
" id="DejaVuSans-65"/>
      <path d="M 2.984375 54.6875 
L 12.5 54.6875 
L 29.59375 8.796875 
L 46.6875 54.6875 
L 56.203125 54.6875 
L 35.6875 0 
L 23.484375 0 
z
" id="DejaVuSans-76"/>
      <path d="M 34.28125 27.484375 
Q 23.390625 27.484375 19.1875 25 
Q 14.984375 22.515625 14.984375 16.5 
Q 14.984375 11.71875 18.140625 8.90625 
Q 21.296875 6.109375 26.703125 6.109375 
Q 34.1875 6.109375 38.703125 11.40625 
Q 43.21875 16.703125 43.21875 25.484375 
L 43.21875 27.484375 
z
M 52.203125 31.203125 
L 52.203125 0 
L 43.21875 0 
L 43.21875 8.296875 
Q 40.140625 3.328125 35.546875 0.953125 
Q 30.953125 -1.421875 24.3125 -1.421875 
Q 15.921875 -1.421875 10.953125 3.296875 
Q 6 8.015625 6 15.921875 
Q 6 25.140625 12.171875 29.828125 
Q 18.359375 34.515625 30.609375 34.515625 
L 43.21875 34.515625 
L 43.21875 35.40625 
Q 43.21875 41.609375 39.140625 45 
Q 35.0625 48.390625 27.6875 48.390625 
Q 23 48.390625 18.546875 47.265625 
Q 14.109375 46.140625 10.015625 43.890625 
L 10.015625 52.203125 
Q 14.9375 54.109375 19.578125 55.046875 
Q 24.21875 56 28.609375 56 
Q 40.484375 56 46.34375 49.84375 
Q 52.203125 43.703125 52.203125 31.203125 
z
" id="DejaVuSans-61"/>
      <path d="M 44.28125 53.078125 
L 44.28125 44.578125 
Q 40.484375 46.53125 36.375 47.5 
Q 32.28125 48.484375 27.875 48.484375 
Q 21.1875 48.484375 17.84375 46.4375 
Q 14.5 44.390625 14.5 40.28125 
Q 14.5 37.15625 16.890625 35.375 
Q 19.28125 33.59375 26.515625 31.984375 
L 29.59375 31.296875 
Q 39.15625 29.25 43.1875 25.515625 
Q 47.21875 21.78125 47.21875 15.09375 
Q 47.21875 7.46875 41.1875 3.015625 
Q 35.15625 -1.421875 24.609375 -1.421875 
Q 20.21875 -1.421875 15.453125 -0.5625 
Q 10.6875 0.296875 5.421875 2 
L 5.421875 11.28125 
Q 10.40625 8.6875 15.234375 7.390625 
Q 20.0625 6.109375 24.8125 6.109375 
Q 31.15625 6.109375 34.5625 8.28125 
Q 37.984375 10.453125 37.984375 14.40625 
Q 37.984375 18.0625 35.515625 20.015625 
Q 33.0625 21.96875 24.703125 23.78125 
L 21.578125 24.515625 
Q 13.234375 26.265625 9.515625 29.90625 
Q 5.8125 33.546875 5.8125 39.890625 
Q 5.8125 47.609375 11.28125 51.796875 
Q 16.75 56 26.8125 56 
Q 31.78125 56 36.171875 55.265625 
Q 40.578125 54.546875 44.28125 53.078125 
z
" id="DejaVuSans-73"/>
      <path d="M 25.390625 72.90625 
L 33.6875 72.90625 
L 8.296875 -9.28125 
L 0 -9.28125 
z
" id="DejaVuSans-2f"/>
      <path d="M 45.40625 46.390625 
L 45.40625 75.984375 
L 54.390625 75.984375 
L 54.390625 0 
L 45.40625 0 
L 45.40625 8.203125 
Q 42.578125 3.328125 38.25 0.953125 
Q 33.9375 -1.421875 27.875 -1.421875 
Q 17.96875 -1.421875 11.734375 6.484375 
Q 5.515625 14.40625 5.515625 27.296875 
Q 5.515625 40.1875 11.734375 48.09375 
Q 17.96875 56 27.875 56 
Q 33.9375 56 38.25 53.625 
Q 42.578125 51.265625 45.40625 46.390625 
z
M 14.796875 27.296875 
Q 14.796875 17.390625 18.875 11.75 
Q 22.953125 6.109375 30.078125 6.109375 
Q 37.203125 6.109375 41.296875 11.75 
Q 45.40625 17.390625 45.40625 27.296875 
Q 45.40625 37.203125 41.296875 42.84375 
Q 37.203125 48.484375 30.078125 48.484375 
Q 22.953125 48.484375 18.875 42.84375 
Q 14.796875 37.203125 14.796875 27.296875 
z
" id="DejaVuSans-64"/>
      <path d="M 9.421875 54.6875 
L 18.40625 54.6875 
L 18.40625 0 
L 9.421875 0 
z
M 9.421875 75.984375 
L 18.40625 75.984375 
L 18.40625 64.59375 
L 9.421875 64.59375 
z
" id="DejaVuSans-69"/>
      <path d="M 52 44.1875 
Q 55.375 50.25 60.0625 53.125 
Q 64.75 56 71.09375 56 
Q 79.640625 56 84.28125 50.015625 
Q 88.921875 44.046875 88.921875 33.015625 
L 88.921875 0 
L 79.890625 0 
L 79.890625 32.71875 
Q 79.890625 40.578125 77.09375 44.375 
Q 74.3125 48.1875 68.609375 48.1875 
Q 61.625 48.1875 57.5625 43.546875 
Q 53.515625 38.921875 53.515625 30.90625 
L 53.515625 0 
L 44.484375 0 
L 44.484375 32.71875 
Q 44.484375 40.625 41.703125 44.40625 
Q 38.921875 48.1875 33.109375 48.1875 
Q 26.21875 48.1875 22.15625 43.53125 
Q 18.109375 38.875 18.109375 30.90625 
L 18.109375 0 
L 9.078125 0 
L 9.078125 54.6875 
L 18.109375 54.6875 
L 18.109375 46.1875 
Q 21.1875 51.21875 25.484375 53.609375 
Q 29.78125 56 35.6875 56 
Q 41.65625 56 45.828125 52.96875 
Q 50 49.953125 52 44.1875 
z
" id="DejaVuSans-6d"/>
      <path d="M 54.890625 33.015625 
L 54.890625 0 
L 45.90625 0 
L 45.90625 32.71875 
Q 45.90625 40.484375 42.875 44.328125 
Q 39.84375 48.1875 33.796875 48.1875 
Q 26.515625 48.1875 22.3125 43.546875 
Q 18.109375 38.921875 18.109375 30.90625 
L 18.109375 0 
L 9.078125 0 
L 9.078125 54.6875 
L 18.109375 54.6875 
L 18.109375 46.1875 
Q 21.34375 51.125 25.703125 53.5625 
Q 30.078125 56 35.796875 56 
Q 45.21875 56 50.046875 50.171875 
Q 54.890625 44.34375 54.890625 33.015625 
z
" id="DejaVuSans-6e"/>
      <path d="M 8.015625 75.875 
L 15.828125 75.875 
Q 23.140625 64.359375 26.78125 53.3125 
Q 30.421875 42.28125 30.421875 31.390625 
Q 30.421875 20.453125 26.78125 9.375 
Q 23.140625 -1.703125 15.828125 -13.1875 
L 8.015625 -13.1875 
Q 14.5 -2 17.703125 9.0625 
Q 20.90625 20.125 20.90625 31.390625 
Q 20.90625 42.671875 17.703125 53.65625 
Q 14.5 64.65625 8.015625 75.875 
z
" id="DejaVuSans-29"/>
     </defs>
     <g transform="translate(73.803219 338.153594)scale(0.17 -0.17)">
      <use xlink:href="#DejaVuSans-6c"/>
      <use x="27.783203" xlink:href="#DejaVuSans-6f"/>
      <use x="88.964844" xlink:href="#DejaVuSans-67"/>
      <use x="152.441406" xlink:href="#DejaVuSans-31"/>
      <use x="216.064453" xlink:href="#DejaVuSans-30"/>
      <use x="279.6875" xlink:href="#DejaVuSans-28"/>
      <use x="318.701172" xlink:href="#DejaVuSans-23"/>
      <use x="402.490234" xlink:href="#DejaVuSans-20"/>
      <use x="434.277344" xlink:href="#DejaVuSans-66"/>
      <use x="469.404297" xlink:href="#DejaVuSans-2d"/>
      <use x="505.488281" xlink:href="#DejaVuSans-65"/>
      <use x="567.011719" xlink:href="#DejaVuSans-76"/>
      <use x="626.191406" xlink:href="#DejaVuSans-61"/>
      <use x="687.470703" xlink:href="#DejaVuSans-6c"/>
      <use x="715.253906" xlink:href="#DejaVuSans-73"/>
      <use x="767.353516" xlink:href="#DejaVuSans-20"/>
      <use x="799.140625" xlink:href="#DejaVuSans-2f"/>
      <use x="832.832031" xlink:href="#DejaVuSans-20"/>
      <use x="864.619141" xlink:href="#DejaVuSans-64"/>
      <use x="928.095703" xlink:href="#DejaVuSans-69"/>
      <use x="955.878906" xlink:href="#DejaVuSans-6d"/>
      <use x="1053.291016" xlink:href="#DejaVuSans-65"/>
      <use x="1114.814453" xlink:href="#DejaVuSans-6e"/>
      <use x="1178.193359" xlink:href="#DejaVuSans-73"/>
      <use x="1230.292969" xlink:href="#DejaVuSans-69"/>
      <use x="1258.076172" xlink:href="#DejaVuSans-6f"/>
      <use x="1319.257812" xlink:href="#DejaVuSans-6e"/>
      <use x="1382.636719" xlink:href="#DejaVuSans-29"/>
     </g>
    </g>
   </g>
   <g id="matplotlib.axis_2">
    <g id="ytick_1">
     <g id="line2d_29">
      <path clip-path="url(#pab14af0244)" d="M 56.12 294.88 
L 333.168 294.88 
" style="fill:none;stroke:#b0b0b0;stroke-linecap:square;stroke-width:0.8;"/>
     </g>
     <g id="line2d_30">
      <defs>
       <path d="M 0 0 
L -3.5 0 
" id="m8f280a147f" style="stroke:#000000;stroke-width:0.8;"/>
      </defs>
      <g>
       <use style="stroke:#000000;stroke-width:0.8;" x="56.12" xlink:href="#m8f280a147f" y="294.88"/>
      </g>
     </g>
     <g id="text_6">
      <!-- 0.0 -->
      <defs>
       <path d="M 10.6875 12.40625 
L 21 12.40625 
L 21 0 
L 10.6875 0 
z
" id="DejaVuSans-2e"/>
      </defs>
      <g transform="translate(23.675 300.95875)scale(0.16 -0.16)">
       <use xlink:href="#DejaVuSans-30"/>
       <use x="63.623047" xlink:href="#DejaVuSans-2e"/>
       <use x="95.410156" xlink:href="#DejaVuSans-30"/>
      </g>
     </g>
    </g>
    <g id="ytick_2">
     <g id="line2d_31">
      <path clip-path="url(#pab14af0244)" d="M 56.12 237.843411 
L 333.168 237.843411 
" style="fill:none;stroke:#b0b0b0;stroke-linecap:square;stroke-width:0.8;"/>
     </g>
     <g id="line2d_32">
      <g>
       <use style="stroke:#000000;stroke-width:0.8;" x="56.12" xlink:href="#m8f280a147f" y="237.843411"/>
      </g>
     </g>
     <g id="text_7">
      <!-- 0.2 -->
      <g transform="translate(23.675 243.922161)scale(0.16 -0.16)">
       <use xlink:href="#DejaVuSans-30"/>
       <use x="63.623047" xlink:href="#DejaVuSans-2e"/>
       <use x="95.410156" xlink:href="#DejaVuSans-32"/>
      </g>
     </g>
    </g>
    <g id="ytick_3">
     <g id="line2d_33">
      <path clip-path="url(#pab14af0244)" d="M 56.12 180.806823 
L 333.168 180.806823 
" style="fill:none;stroke:#b0b0b0;stroke-linecap:square;stroke-width:0.8;"/>
     </g>
     <g id="line2d_34">
      <g>
       <use style="stroke:#000000;stroke-width:0.8;" x="56.12" xlink:href="#m8f280a147f" y="180.806823"/>
      </g>
     </g>
     <g id="text_8">
      <!-- 0.4 -->
      <g transform="translate(23.675 186.885573)scale(0.16 -0.16)">
       <use xlink:href="#DejaVuSans-30"/>
       <use x="63.623047" xlink:href="#DejaVuSans-2e"/>
       <use x="95.410156" xlink:href="#DejaVuSans-34"/>
      </g>
     </g>
    </g>
    <g id="ytick_4">
     <g id="line2d_35">
      <path clip-path="url(#pab14af0244)" d="M 56.12 123.770234 
L 333.168 123.770234 
" style="fill:none;stroke:#b0b0b0;stroke-linecap:square;stroke-width:0.8;"/>
     </g>
     <g id="line2d_36">
      <g>
       <use style="stroke:#000000;stroke-width:0.8;" x="56.12" xlink:href="#m8f280a147f" y="123.770234"/>
      </g>
     </g>
     <g id="text_9">
      <!-- 0.6 -->
      <g transform="translate(23.675 129.848984)scale(0.16 -0.16)">
       <use xlink:href="#DejaVuSans-30"/>
       <use x="63.623047" xlink:href="#DejaVuSans-2e"/>
       <use x="95.410156" xlink:href="#DejaVuSans-36"/>
      </g>
     </g>
    </g>
    <g id="ytick_5">
     <g id="line2d_37">
      <path clip-path="url(#pab14af0244)" d="M 56.12 66.733646 
L 333.168 66.733646 
" style="fill:none;stroke:#b0b0b0;stroke-linecap:square;stroke-width:0.8;"/>
     </g>
     <g id="line2d_38">
      <g>
       <use style="stroke:#000000;stroke-width:0.8;" x="56.12" xlink:href="#m8f280a147f" y="66.733646"/>
      </g>
     </g>
     <g id="text_10">
      <!-- 0.8 -->
      <defs>
       <path d="M 31.78125 34.625 
Q 24.75 34.625 20.71875 30.859375 
Q 16.703125 27.09375 16.703125 20.515625 
Q 16.703125 13.921875 20.71875 10.15625 
Q 24.75 6.390625 31.78125 6.390625 
Q 38.8125 6.390625 42.859375 10.171875 
Q 46.921875 13.96875 46.921875 20.515625 
Q 46.921875 27.09375 42.890625 30.859375 
Q 38.875 34.625 31.78125 34.625 
z
M 21.921875 38.8125 
Q 15.578125 40.375 12.03125 44.71875 
Q 8.5 49.078125 8.5 55.328125 
Q 8.5 64.0625 14.71875 69.140625 
Q 20.953125 74.21875 31.78125 74.21875 
Q 42.671875 74.21875 48.875 69.140625 
Q 55.078125 64.0625 55.078125 55.328125 
Q 55.078125 49.078125 51.53125 44.71875 
Q 48 40.375 41.703125 38.8125 
Q 48.828125 37.15625 52.796875 32.3125 
Q 56.78125 27.484375 56.78125 20.515625 
Q 56.78125 9.90625 50.3125 4.234375 
Q 43.84375 -1.421875 31.78125 -1.421875 
Q 19.734375 -1.421875 13.25 4.234375 
Q 6.78125 9.90625 6.78125 20.515625 
Q 6.78125 27.484375 10.78125 32.3125 
Q 14.796875 37.15625 21.921875 38.8125 
z
M 18.3125 54.390625 
Q 18.3125 48.734375 21.84375 45.5625 
Q 25.390625 42.390625 31.78125 42.390625 
Q 38.140625 42.390625 41.71875 45.5625 
Q 45.3125 48.734375 45.3125 54.390625 
Q 45.3125 60.0625 41.71875 63.234375 
Q 38.140625 66.40625 31.78125 66.40625 
Q 25.390625 66.40625 21.84375 63.234375 
Q 18.3125 60.0625 18.3125 54.390625 
z
" id="DejaVuSans-38"/>
      </defs>
      <g transform="translate(23.675 72.812396)scale(0.16 -0.16)">
       <use xlink:href="#DejaVuSans-30"/>
       <use x="63.623047" xlink:href="#DejaVuSans-2e"/>
       <use x="95.410156" xlink:href="#DejaVuSans-38"/>
      </g>
     </g>
    </g>
    <g id="ytick_6">
     <g id="line2d_39">
      <path clip-path="url(#pab14af0244)" d="M 56.12 9.697057 
L 333.168 9.697057 
" style="fill:none;stroke:#b0b0b0;stroke-linecap:square;stroke-width:0.8;"/>
     </g>
     <g id="line2d_40">
      <g>
       <use style="stroke:#000000;stroke-width:0.8;" x="56.12" xlink:href="#m8f280a147f" y="9.697057"/>
      </g>
     </g>
     <g id="text_11">
      <!-- 1.0 -->
      <g transform="translate(23.675 15.775807)scale(0.16 -0.16)">
       <use xlink:href="#DejaVuSans-31"/>
       <use x="63.623047" xlink:href="#DejaVuSans-2e"/>
       <use x="95.410156" xlink:href="#DejaVuSans-30"/>
      </g>
     </g>
    </g>
    <g id="text_12">
     <!-- Fraction of function,target pairs -->
     <defs>
      <path d="M 9.8125 72.90625 
L 51.703125 72.90625 
L 51.703125 64.59375 
L 19.671875 64.59375 
L 19.671875 43.109375 
L 48.578125 43.109375 
L 48.578125 34.8125 
L 19.671875 34.8125 
L 19.671875 0 
L 9.8125 0 
z
" id="DejaVuSans-46"/>
      <path d="M 41.109375 46.296875 
Q 39.59375 47.171875 37.8125 47.578125 
Q 36.03125 48 33.890625 48 
Q 26.265625 48 22.1875 43.046875 
Q 18.109375 38.09375 18.109375 28.8125 
L 18.109375 0 
L 9.078125 0 
L 9.078125 54.6875 
L 18.109375 54.6875 
L 18.109375 46.1875 
Q 20.953125 51.171875 25.484375 53.578125 
Q 30.03125 56 36.53125 56 
Q 37.453125 56 38.578125 55.875 
Q 39.703125 55.765625 41.0625 55.515625 
z
" id="DejaVuSans-72"/>
      <path d="M 48.78125 52.59375 
L 48.78125 44.1875 
Q 44.96875 46.296875 41.140625 47.34375 
Q 37.3125 48.390625 33.40625 48.390625 
Q 24.65625 48.390625 19.8125 42.84375 
Q 14.984375 37.3125 14.984375 27.296875 
Q 14.984375 17.28125 19.8125 11.734375 
Q 24.65625 6.203125 33.40625 6.203125 
Q 37.3125 6.203125 41.140625 7.25 
Q 44.96875 8.296875 48.78125 10.40625 
L 48.78125 2.09375 
Q 45.015625 0.34375 40.984375 -0.53125 
Q 36.96875 -1.421875 32.421875 -1.421875 
Q 20.0625 -1.421875 12.78125 6.34375 
Q 5.515625 14.109375 5.515625 27.296875 
Q 5.515625 40.671875 12.859375 48.328125 
Q 20.21875 56 33.015625 56 
Q 37.15625 56 41.109375 55.140625 
Q 45.0625 54.296875 48.78125 52.59375 
z
" id="DejaVuSans-63"/>
      <path d="M 18.3125 70.21875 
L 18.3125 54.6875 
L 36.8125 54.6875 
L 36.8125 47.703125 
L 18.3125 47.703125 
L 18.3125 18.015625 
Q 18.3125 11.328125 20.140625 9.421875 
Q 21.96875 7.515625 27.59375 7.515625 
L 36.8125 7.515625 
L 36.8125 0 
L 27.59375 0 
Q 17.1875 0 13.234375 3.875 
Q 9.28125 7.765625 9.28125 18.015625 
L 9.28125 47.703125 
L 2.6875 47.703125 
L 2.6875 54.6875 
L 9.28125 54.6875 
L 9.28125 70.21875 
z
" id="DejaVuSans-74"/>
      <path d="M 8.5 21.578125 
L 8.5 54.6875 
L 17.484375 54.6875 
L 17.484375 21.921875 
Q 17.484375 14.15625 20.5 10.265625 
Q 23.53125 6.390625 29.59375 6.390625 
Q 36.859375 6.390625 41.078125 11.03125 
Q 45.3125 15.671875 45.3125 23.6875 
L 45.3125 54.6875 
L 54.296875 54.6875 
L 54.296875 0 
L 45.3125 0 
L 45.3125 8.40625 
Q 42.046875 3.421875 37.71875 1 
Q 33.40625 -1.421875 27.6875 -1.421875 
Q 18.265625 -1.421875 13.375 4.4375 
Q 8.5 10.296875 8.5 21.578125 
z
M 31.109375 56 
z
" id="DejaVuSans-75"/>
      <path d="M 11.71875 12.40625 
L 22.015625 12.40625 
L 22.015625 4 
L 14.015625 -11.625 
L 7.71875 -11.625 
L 11.71875 4 
z
" id="DejaVuSans-2c"/>
      <path d="M 18.109375 8.203125 
L 18.109375 -20.796875 
L 9.078125 -20.796875 
L 9.078125 54.6875 
L 18.109375 54.6875 
L 18.109375 46.390625 
Q 20.953125 51.265625 25.265625 53.625 
Q 29.59375 56 35.59375 56 
Q 45.5625 56 51.78125 48.09375 
Q 58.015625 40.1875 58.015625 27.296875 
Q 58.015625 14.40625 51.78125 6.484375 
Q 45.5625 -1.421875 35.59375 -1.421875 
Q 29.59375 -1.421875 25.265625 0.953125 
Q 20.953125 3.328125 18.109375 8.203125 
z
M 48.6875 27.296875 
Q 48.6875 37.203125 44.609375 42.84375 
Q 40.53125 48.484375 33.40625 48.484375 
Q 26.265625 48.484375 22.1875 42.84375 
Q 18.109375 37.203125 18.109375 27.296875 
Q 18.109375 17.390625 22.1875 11.75 
Q 26.265625 6.109375 33.40625 6.109375 
Q 40.53125 6.109375 44.609375 11.75 
Q 48.6875 17.390625 48.6875 27.296875 
z
" id="DejaVuSans-70"/>
     </defs>
     <g transform="translate(16.139531 286.001989)rotate(-90)scale(0.17 -0.17)">
      <use xlink:href="#DejaVuSans-46"/>
      <use x="57.410156" xlink:href="#DejaVuSans-72"/>
      <use x="98.523438" xlink:href="#DejaVuSans-61"/>
      <use x="159.802734" xlink:href="#DejaVuSans-63"/>
      <use x="214.783203" xlink:href="#DejaVuSans-74"/>
      <use x="253.992188" xlink:href="#DejaVuSans-69"/>
      <use x="281.775391" xlink:href="#DejaVuSans-6f"/>
      <use x="342.957031" xlink:href="#DejaVuSans-6e"/>
      <use x="406.335938" xlink:href="#DejaVuSans-20"/>
      <use x="438.123047" xlink:href="#DejaVuSans-6f"/>
      <use x="499.304688" xlink:href="#DejaVuSans-66"/>
      <use x="534.509766" xlink:href="#DejaVuSans-20"/>
      <use x="566.296875" xlink:href="#DejaVuSans-66"/>
      <use x="601.501953" xlink:href="#DejaVuSans-75"/>
      <use x="664.880859" xlink:href="#DejaVuSans-6e"/>
      <use x="728.259766" xlink:href="#DejaVuSans-63"/>
      <use x="783.240234" xlink:href="#DejaVuSans-74"/>
      <use x="822.449219" xlink:href="#DejaVuSans-69"/>
      <use x="850.232422" xlink:href="#DejaVuSans-6f"/>
      <use x="911.414062" xlink:href="#DejaVuSans-6e"/>
      <use x="974.792969" xlink:href="#DejaVuSans-2c"/>
      <use x="1006.580078" xlink:href="#DejaVuSans-74"/>
      <use x="1045.789062" xlink:href="#DejaVuSans-61"/>
      <use x="1107.068359" xlink:href="#DejaVuSans-72"/>
      <use x="1148.166016" xlink:href="#DejaVuSans-67"/>
      <use x="1211.642578" xlink:href="#DejaVuSans-65"/>
      <use x="1273.166016" xlink:href="#DejaVuSans-74"/>
      <use x="1312.375" xlink:href="#DejaVuSans-20"/>
      <use x="1344.162109" xlink:href="#DejaVuSans-70"/>
      <use x="1407.638672" xlink:href="#DejaVuSans-61"/>
      <use x="1468.917969" xlink:href="#DejaVuSans-69"/>
      <use x="1496.701172" xlink:href="#DejaVuSans-72"/>
      <use x="1537.814453" xlink:href="#DejaVuSans-73"/>
     </g>
    </g>
   </g>
   <g id="line2d_41">
    <defs>
     <path d="M 0 1.5 
C 0.397805 1.5 0.77937 1.341951 1.06066 1.06066 
C 1.341951 0.77937 1.5 0.397805 1.5 0 
C 1.5 -0.397805 1.341951 -0.77937 1.06066 -1.06066 
C 0.77937 -1.341951 0.397805 -1.5 0 -1.5 
C -0.397805 -1.5 -0.77937 -1.341951 -1.06066 -1.06066 
C -1.341951 -0.77937 -1.5 -0.397805 -1.5 0 
C -1.5 0.397805 -1.341951 0.77937 -1.06066 1.06066 
C -0.77937 1.341951 -0.397805 1.5 0 1.5 
z
" id="md859345288" style="stroke:#f5deb3;"/>
    </defs>
    <g>
     <use style="fill:#f5deb3;stroke:#f5deb3;" x="194.213165" xlink:href="#md859345288" y="9.697057"/>
     <use style="fill:#f5deb3;stroke:#f5deb3;" x="194.213165" xlink:href="#md859345288" y="9.697057"/>
    </g>
   </g>
   <g id="line2d_42">
    <defs>
     <path d="M 0 1.5 
C 0.397805 1.5 0.77937 1.341951 1.06066 1.06066 
C 1.341951 0.77937 1.5 0.397805 1.5 0 
C 1.5 -0.397805 1.341951 -0.77937 1.06066 -1.06066 
C 0.77937 -1.341951 0.397805 -1.5 0 -1.5 
C -0.397805 -1.5 -0.77937 -1.341951 -1.06066 -1.06066 
C -1.341951 -0.77937 -1.5 -0.397805 -1.5 0 
C -1.5 0.397805 -1.341951 0.77937 -1.06066 1.06066 
C -0.77937 1.341951 -0.397805 1.5 0 1.5 
z
" id="m556e02223e" style="stroke:#000080;"/>
    </defs>
    <g>
     <use style="fill:#000080;stroke:#000080;" x="279.806111" xlink:href="#m556e02223e" y="171.859907"/>
     <use style="fill:#000080;stroke:#000080;" x="279.806111" xlink:href="#m556e02223e" y="171.859907"/>
    </g>
   </g>
   <g id="line2d_43">
    <path d="M 37.236359 294.88 
L 37.236359 285.038393 
L 64.900393 285.038393 
L 64.900393 282.689827 
L 75.003641 282.689827 
L 75.003641 281.459626 
L 81.324327 281.459626 
L 81.324327 280.453098 
L 85.935418 280.453098 
L 85.935418 278.999224 
L 89.567532 278.999224 
L 89.567532 277.657187 
L 92.564428 277.657187 
L 92.564428 276.986168 
L 95.115564 276.986168 
L 95.115564 276.426986 
L 97.336537 276.426986 
L 97.336537 275.755967 
L 99.303095 275.755967 
L 99.303095 275.532294 
L 101.067579 275.532294 
L 101.067579 275.084949 
L 102.667676 275.084949 
L 102.667676 274.973112 
L 104.131422 274.973112 
L 104.131422 274.637603 
L 105.480242 274.637603 
L 105.480242 273.631075 
L 106.730875 273.631075 
L 106.730875 272.960056 
L 107.896653 272.960056 
L 107.896653 272.400874 
L 110.014853 272.400874 
L 110.014853 272.065365 
L 110.983483 272.065365 
L 110.983483 271.841692 
L 111.900428 271.841692 
L 111.900428 271.618019 
L 112.770924 271.618019 
L 112.770924 271.506182 
L 113.599452 271.506182 
L 113.599452 271.058837 
L 114.389873 271.058837 
L 114.389873 270.947 
L 115.145539 270.947 
L 115.145539 270.723327 
L 115.869378 270.723327 
L 115.869378 270.387818 
L 116.563963 270.387818 
L 116.563963 270.164145 
L 117.874207 270.164145 
L 117.874207 269.940472 
L 118.493684 269.940472 
L 118.493684 269.716799 
L 120.228462 269.716799 
L 120.228462 269.493126 
L 120.769881 269.493126 
L 120.769881 269.269453 
L 121.294766 269.269453 
L 121.294766 269.157617 
L 121.804096 269.157617 
L 121.804096 268.822108 
L 122.298767 268.822108 
L 122.298767 268.710271 
L 122.779599 268.710271 
L 122.779599 268.374762 
L 123.247346 268.374762 
L 123.247346 268.262925 
L 123.7027 268.262925 
L 123.7027 268.151089 
L 124.146303 268.151089 
L 124.146303 268.039252 
L 124.578744 268.039252 
L 124.578744 267.368234 
L 125.000572 267.368234 
L 125.000572 267.256397 
L 125.412295 267.256397 
L 125.412295 266.920888 
L 125.814387 266.920888 
L 125.814387 266.585379 
L 126.207287 266.585379 
L 126.207287 266.249869 
L 126.591406 266.249869 
L 126.591406 266.138033 
L 126.967129 266.138033 
L 126.967129 266.026196 
L 127.334814 266.026196 
L 127.334814 265.578851 
L 127.694799 265.578851 
L 127.694799 265.355178 
L 128.047399 265.355178 
L 128.047399 264.795995 
L 128.39291 264.795995 
L 128.39291 264.572323 
L 128.731613 264.572323 
L 128.731613 264.460486 
L 129.063771 264.460486 
L 129.063771 264.34865 
L 129.389632 264.34865 
L 129.389632 264.236813 
L 129.70943 264.236813 
L 129.70943 264.124977 
L 130.023386 264.124977 
L 130.023386 264.01314 
L 130.33171 264.01314 
L 130.33171 263.789467 
L 130.634602 263.789467 
L 130.634602 263.677631 
L 130.932248 263.677631 
L 130.932248 263.565795 
L 131.51251 263.565795 
L 131.51251 263.342122 
L 131.795457 263.342122 
L 131.795457 263.118449 
L 132.073821 263.118449 
L 132.073821 262.782939 
L 132.347749 262.782939 
L 132.347749 262.671103 
L 132.882847 262.671103 
L 132.882847 262.559266 
L 133.401789 262.559266 
L 133.401789 262.44743 
L 133.6555 262.44743 
L 133.6555 261.888248 
L 134.39491 261.888248 
L 134.39491 261.776411 
L 134.87075 261.776411 
L 134.87075 261.664575 
L 135.10382 261.664575 
L 135.10382 261.552738 
L 135.333772 261.552738 
L 135.333772 261.440902 
L 135.784647 261.440902 
L 135.784647 261.217229 
L 136.005725 261.217229 
L 136.005725 261.105393 
L 136.223997 261.105393 
L 136.223997 260.769883 
L 137.275617 260.769883 
L 137.275617 260.658047 
L 137.678888 260.658047 
L 137.678888 260.54621 
L 138.834862 260.54621 
L 138.834862 260.098865 
L 139.020186 260.098865 
L 139.020186 259.987028 
L 139.203533 259.987028 
L 139.203533 259.651519 
L 139.564462 259.651519 
L 139.564462 259.539682 
L 139.917968 259.539682 
L 139.917968 259.427846 
L 140.434959 259.427846 
L 140.434959 258.9805 
L 140.60389 258.9805 
L 140.60389 258.868664 
L 141.100945 258.868664 
L 141.100945 258.644991 
L 141.263487 258.644991 
L 141.263487 258.309481 
L 141.424506 258.309481 
L 141.424506 258.197645 
L 141.58403 258.197645 
L 141.58403 258.085809 
L 141.742087 258.085809 
L 141.742087 257.973972 
L 141.898705 257.973972 
L 141.898705 257.862136 
L 142.511282 257.862136 
L 142.511282 257.750299 
L 142.809574 257.750299 
L 142.809574 257.638463 
L 143.247524 257.638463 
L 143.247524 257.526626 
L 143.674593 257.526626 
L 143.674593 257.41479 
L 143.953522 257.41479 
L 143.953522 257.191117 
L 144.091308 257.191117 
L 144.091308 256.855608 
L 144.227997 256.855608 
L 144.227997 256.743771 
L 144.498158 256.743771 
L 144.498158 256.520098 
L 144.631663 256.520098 
L 144.631663 256.408262 
L 144.764138 256.408262 
L 144.764138 256.296425 
L 144.895601 256.296425 
L 144.895601 256.184589 
L 145.026065 256.184589 
L 145.026065 256.072752 
L 145.155547 256.072752 
L 145.155547 255.960916 
L 145.411621 255.960916 
L 145.411621 255.84908 
L 145.538241 255.84908 
L 145.538241 255.737243 
L 145.663936 255.737243 
L 145.663936 255.625407 
L 146.518964 255.625407 
L 146.518964 255.51357 
L 146.637711 255.51357 
L 146.637711 255.289897 
L 146.755644 255.289897 
L 146.755644 255.066224 
L 146.872773 255.066224 
L 146.872773 254.842552 
L 147.559266 254.842552 
L 147.559266 254.730715 
L 147.892497 254.730715 
L 147.892497 254.618879 
L 148.540183 254.618879 
L 148.540183 254.507042 
L 149.66771 254.507042 
L 149.766638 254.059696 
L 150.156751 254.059696 
L 150.156751 253.836024 
L 150.632262 253.836024 
L 150.632262 253.612351 
L 150.818844 253.612351 
L 150.818844 253.500514 
L 151.094972 253.500514 
L 151.186038 253.276841 
L 151.456376 253.276841 
L 151.456376 253.165005 
L 153.157504 253.165005 
L 153.157504 253.053168 
L 154.102822 253.053168 
L 154.102822 252.941332 
L 154.331245 252.941332 
L 154.406717 252.38215 
L 154.481859 252.38215 
L 154.556673 252.158477 
L 155.143749 252.158477 
L 155.143749 252.04664 
L 155.57126 252.04664 
L 155.57126 251.822967 
L 156.988987 251.822967 
L 157.053666 251.487458 
L 157.118104 251.487458 
L 157.118104 251.375622 
L 157.309979 251.375622 
L 157.309979 251.263785 
L 157.68742 251.263785 
L 157.68742 251.151949 
L 157.873078 251.151949 
L 157.873078 251.040112 
L 158.056752 251.040112 
L 158.056752 250.928276 
L 158.358579 250.928276 
L 158.358579 250.704603 
L 158.888862 250.704603 
L 158.888862 250.592767 
L 159.004513 250.592767 
L 159.062048 250.257257 
L 159.176544 250.257257 
L 159.176544 250.033584 
L 159.346871 250.033584 
L 159.346871 249.921748 
L 159.571378 249.921748 
L 159.571378 249.698075 
L 159.847951 249.698075 
L 159.847951 249.474402 
L 160.011784 249.474402 
L 160.011784 249.362566 
L 160.494115 249.362566 
L 160.546882 249.138893 
L 160.704216 249.138893 
L 160.808311 248.691547 
L 160.860123 248.691547 
L 160.911779 248.467874 
L 161.065823 248.467874 
L 161.116866 248.244201 
L 161.519841 248.244201 
L 161.569555 247.908692 
L 162.952061 247.908692 
L 162.952061 247.796855 
L 163.537454 247.796855 
L 163.581669 247.573182 
L 163.888031 247.573182 
L 163.931355 247.34951 
L 164.103566 247.34951 
L 164.103566 247.237673 
L 164.568437 247.237673 
L 164.610081 246.790327 
L 164.85785 246.790327 
L 164.85785 246.678491 
L 164.980407 246.678491 
L 164.980407 246.566654 
L 165.102097 246.566654 
L 165.14247 246.342981 
L 165.342922 246.342981 
L 165.342922 246.231145 
L 165.462082 246.231145 
L 165.462082 246.119309 
L 165.736948 246.119309 
L 165.736948 246.007472 
L 166.311552 246.007472 
L 166.386735 245.783799 
L 166.46159 245.783799 
L 166.46159 245.560126 
L 166.573266 245.560126 
L 166.573266 245.336453 
L 166.831054 245.336453 
L 166.831054 245.224617 
L 167.121011 245.224617 
L 167.228497 244.889108 
L 168.098993 244.889108 
L 168.098993 244.777271 
L 168.797611 244.777271 
L 168.797611 244.553598 
L 168.99211 244.553598 
L 169.024313 244.329925 
L 169.46894 244.329925 
L 169.46894 244.106253 
L 170.503155 244.106253 
L 170.503155 243.994416 
L 170.65013 243.994416 
L 170.65013 243.88258 
L 170.795859 243.88258 
L 170.795859 243.770743 
L 172.162193 243.770743 
L 172.269079 243.435234 
L 172.295697 243.435234 
L 172.322274 243.211561 
L 173.15174 243.211561 
L 173.177026 242.987888 
L 173.675102 242.987888 
L 173.675102 242.876052 
L 173.797398 242.876052 
L 173.846074 242.093196 
L 174.653144 242.093196 
L 174.653144 241.98136 
L 176.204217 241.98136 
L 176.204217 241.869524 
L 176.581429 241.869524 
L 176.581429 241.757687 
L 177.091969 241.757687 
L 177.192283 241.198505 
L 177.64633 241.198505 
L 177.64633 241.086668 
L 177.78217 241.086668 
L 177.878547 240.862996 
L 177.95526 240.862996 
L 177.95526 240.751159 
L 178.445724 240.751159 
L 178.445724 240.527486 
L 178.704135 240.527486 
L 178.740736 240.08014 
L 178.886364 240.08014 
L 178.886364 239.968304 
L 179.156136 239.968304 
L 179.156136 239.856467 
L 180.076788 239.856467 
L 180.16115 239.632795 
L 181.904274 239.632795 
L 181.934663 239.185449 
L 182.040603 239.185449 
L 182.070751 238.961776 
L 182.369367 238.961776 
L 182.369367 238.849939 
L 183.514507 238.849939 
L 183.514507 238.738103 
L 184.019389 238.738103 
L 184.032831 238.402594 
L 184.339125 238.402594 
L 184.339125 238.290757 
L 184.509863 238.290757 
L 184.562059 238.067084 
L 184.743505 238.067084 
L 184.743505 237.955248 
L 185.69641 237.955248 
L 185.79371 237.507902 
L 185.854244 237.507902 
L 185.854244 237.172393 
L 186.082348 237.172393 
L 186.177494 236.94872 
L 186.354485 236.94872 
L 186.354485 236.836883 
L 187.168368 236.836883 
L 187.168368 236.725047 
L 188.073385 236.725047 
L 188.15815 235.38301 
L 188.210916 235.38301 
L 188.315965 234.488318 
L 188.326435 234.488318 
L 188.347355 232.922608 
L 189.635911 232.922608 
L 189.645607 232.587098 
L 190.104699 232.587098 
L 190.104699 232.475262 
L 190.366947 232.475262 
L 190.37624 232.139753 
L 191.112716 232.139753 
L 191.15716 231.91608 
L 191.245704 231.91608 
L 191.245704 231.804243 
L 191.403943 231.804243 
L 191.403943 231.692407 
L 191.972001 231.692407 
L 191.988925 231.468734 
L 192.398446 231.468734 
L 192.398446 231.356897 
L 192.62 231.356897 
L 192.62 231.133225 
L 192.903013 231.133225 
L 192.903013 231.021388 
L 193.53292 231.021388 
L 193.53292 230.909552 
L 194.229878 230.909552 
L 194.229878 230.797715 
L 194.799416 230.797715 
L 194.799416 230.462206 
L 194.935338 230.462206 
L 194.935338 230.350369 
L 195.420101 230.350369 
L 195.420101 230.238533 
L 195.783387 230.238533 
L 195.783387 230.126697 
L 196.132509 230.126697 
L 196.132509 230.01486 
L 196.829331 230.01486 
L 196.829331 229.903024 
L 196.950166 229.903024 
L 196.950166 229.791187 
L 197.107875 229.791187 
L 197.132975 229.455678 
L 197.584722 229.455678 
L 197.694311 229.120168 
L 198.078397 229.120168 
L 198.078397 229.008332 
L 198.901129 229.008332 
L 198.901129 228.896496 
L 199.788659 228.896496 
L 199.826227 228.672823 
L 200.218431 228.672823 
L 200.218431 228.560986 
L 200.354134 228.560986 
L 200.462965 228.337313 
L 200.632603 228.337313 
L 200.637718 228.11364 
L 200.805649 228.11364 
L 200.805649 228.001804 
L 201.780174 228.001804 
L 201.842266 227.778131 
L 201.899383 227.778131 
L 202.00833 227.442622 
L 202.634241 227.442622 
L 202.715999 226.88344 
L 202.774807 226.88344 
L 202.86938 226.659767 
L 202.936615 226.659767 
L 203.012498 226.436094 
L 203.189736 226.436094 
L 203.189736 226.324257 
L 203.303969 226.324257 
L 203.334594 225.988748 
L 203.452213 225.988748 
L 203.538822 225.429566 
L 203.607797 225.429566 
L 203.710742 224.646711 
L 203.719293 224.646711 
L 203.740652 224.311201 
L 204.108112 224.311201 
L 204.11229 224.087528 
L 204.586148 224.087528 
L 204.642953 223.863855 
L 204.768072 223.863855 
L 204.768072 223.752019 
L 205.019574 223.752019 
L 205.019574 223.640183 
L 205.232256 223.640183 
L 205.294771 223.41651 
L 205.349285 223.41651 
L 205.426865 223.192837 
L 205.461662 223.192837 
L 205.461662 223.081 
L 206.951715 223.081 
L 206.951715 222.969164 
L 207.464612 222.969164 
L 207.464612 222.857327 
L 207.932566 222.857327 
L 207.932566 222.745491 
L 208.726821 222.745491 
L 208.726821 222.633654 
L 209.130888 222.633654 
L 209.130888 222.521818 
L 209.286182 222.521818 
L 209.286182 222.409982 
L 209.848872 222.409982 
L 209.848872 222.298145 
L 209.988939 222.298145 
L 210.098407 222.074472 
L 210.515051 222.074472 
L 210.515051 221.962636 
L 210.786362 221.962636 
L 210.786362 221.850799 
L 210.913398 221.850799 
L 210.913398 221.738963 
L 211.100818 221.738963 
L 211.211744 221.403454 
L 211.233844 221.403454 
L 211.330197 220.844271 
L 211.368587 220.844271 
L 211.439657 220.396926 
L 211.496846 220.396926 
L 211.59174 219.837743 
L 211.626853 219.837743 
L 211.686113 218.719379 
L 211.852026 218.719379 
L 211.96087 218.160197 
L 211.968807 218.160197 
L 211.968807 218.04836 
L 212.252132 218.04836 
L 212.252132 217.936524 
L 213.508607 217.936524 
L 213.544846 217.712851 
L 213.926712 217.712851 
L 213.926712 217.601014 
L 214.803268 217.601014 
L 214.803268 217.489178 
L 214.932872 217.489178 
L 214.932872 217.377341 
L 215.184798 217.377341 
L 215.184798 217.265505 
L 215.404951 217.265505 
L 215.404951 217.153669 
L 215.874951 217.153669 
L 215.874951 217.041832 
L 216.206806 217.041832 
L 216.279003 216.818159 
L 216.377526 216.818159 
L 216.377526 216.706323 
L 216.493794 216.706323 
L 216.599181 216.035304 
L 216.661701 216.035304 
L 216.750052 215.699795 
L 216.822002 215.699795 
L 216.923419 215.028776 
L 216.974892 215.028776 
L 217.067551 214.469594 
L 217.087201 214.469594 
L 217.19683 214.134084 
L 217.976987 214.134084 
L 217.976987 214.022248 
L 218.099627 214.022248 
L 218.099627 213.910412 
L 219.132612 213.910412 
L 219.132612 213.798575 
L 219.441913 213.798575 
L 219.441913 213.686739 
L 219.554567 213.686739 
L 219.554567 213.574902 
L 219.953117 213.574902 
L 220.029414 213.351229 
L 220.113609 213.351229 
L 220.113609 213.239393 
L 220.37024 213.239393 
L 220.460858 212.903883 
L 220.645464 212.903883 
L 220.753696 212.568374 
L 220.761628 212.568374 
L 220.839163 212.232865 
L 220.897479 212.232865 
L 220.996321 211.673683 
L 221.044749 211.673683 
L 221.130337 211.002664 
L 221.158255 211.002664 
L 221.254071 210.443482 
L 221.303317 210.443482 
L 221.341692 210.107972 
L 221.439544 210.107972 
L 221.439544 209.996136 
L 221.905787 209.996136 
L 221.905787 209.884299 
L 222.059413 209.884299 
L 222.059413 209.772463 
L 222.856805 209.772463 
L 222.856805 209.660626 
L 223.078593 209.660626 
L 223.078593 209.54879 
L 223.267424 209.54879 
L 223.267424 209.436954 
L 223.409398 209.436954 
L 223.409398 209.325117 
L 223.812487 209.325117 
L 223.829743 208.989608 
L 224.05119 208.989608 
L 224.138716 208.654098 
L 224.166058 208.654098 
L 224.272407 207.98308 
L 224.282747 207.98308 
L 224.352382 207.64757 
L 224.39865 207.64757 
L 224.507401 207.088388 
L 224.512501 207.088388 
L 224.609129 206.417369 
L 224.837093 206.417369 
L 224.837093 206.305533 
L 225.76734 206.305533 
L 225.809955 206.08186 
L 226.211931 206.08186 
L 226.211931 205.970024 
L 226.662197 205.970024 
L 226.755328 205.634514 
L 226.861309 205.634514 
L 226.955583 205.187169 
L 226.995356 205.187169 
L 227.095484 204.627986 
L 227.118507 204.627986 
L 227.198303 203.845131 
L 227.26144 203.845131 
L 227.355712 203.397785 
L 228.093905 203.397785 
L 228.093905 203.285949 
L 228.492962 203.285949 
L 228.492962 203.174112 
L 229.031621 203.174112 
L 229.065895 202.95044 
L 229.172198 202.95044 
L 229.172198 202.838603 
L 229.333802 202.838603 
L 229.413558 202.279421 
L 229.476716 202.279421 
L 229.571969 201.720239 
L 229.605183 201.720239 
L 229.687467 201.161056 
L 229.778747 201.161056 
L 229.804069 200.937384 
L 229.893802 200.937384 
L 229.893802 200.825547 
L 231.098873 200.825547 
L 231.098873 200.713711 
L 231.289032 200.713711 
L 231.289032 200.601874 
L 231.453286 200.601874 
L 231.532286 200.266365 
L 231.582217 200.266365 
L 231.689205 199.819019 
L 231.747892 199.819019 
L 231.835548 199.595346 
L 233.139595 199.595346 
L 233.215071 199.371673 
L 233.284095 199.371673 
L 233.358178 198.924327 
L 233.400803 198.924327 
L 233.49708 198.141472 
L 233.613106 198.141472 
L 233.613106 198.029636 
L 234.150509 198.029636 
L 234.150509 197.917799 
L 234.284621 197.917799 
L 234.284621 197.805963 
L 234.761051 197.805963 
L 234.796834 197.58229 
L 234.886318 197.58229 
L 234.933667 197.246781 
L 235.090103 197.246781 
L 235.191097 196.687599 
L 235.225313 196.687599 
L 235.31804 196.01658 
L 235.354041 196.01658 
L 235.354041 195.904743 
L 236.261968 195.904743 
L 236.261968 195.792907 
L 236.491496 195.792907 
L 236.53653 195.569234 
L 236.616159 195.569234 
L 236.702323 195.010052 
L 236.754315 195.010052 
L 236.754315 194.898215 
L 236.925464 194.898215 
L 236.925464 194.786379 
L 237.165909 194.786379 
L 237.21652 194.562706 
L 237.308215 194.562706 
L 237.332423 194.339033 
L 237.833076 194.339033 
L 237.900497 194.11536 
L 237.963574 194.11536 
L 237.992117 193.779851 
L 238.078618 193.779851 
L 238.078618 193.668014 
L 238.242297 193.668014 
L 238.295559 193.332505 
L 238.739238 193.332505 
L 238.739238 193.220669 
L 239.179358 193.220669 
L 239.230881 192.996996 
L 239.292506 192.996996 
L 239.373794 192.54965 
L 239.432234 192.54965 
L 239.510201 192.102304 
L 239.565524 192.102304 
L 239.60478 191.878631 
L 239.689354 191.878631 
L 239.773513 191.654958 
L 240.288848 191.654958 
L 240.348323 191.431285 
L 240.441442 191.431285 
L 240.544598 190.760267 
L 240.553626 190.760267 
L 240.662093 190.312921 
L 240.830184 190.312921 
L 240.830184 190.201085 
L 241.075143 190.201085 
L 241.075143 190.089248 
L 241.359776 190.089248 
L 241.36169 189.865575 
L 241.510307 189.865575 
L 241.61999 189.530066 
L 241.643537 189.530066 
L 241.689127 189.306393 
L 241.771539 189.306393 
L 241.838209 188.970884 
L 242.461919 188.970884 
L 242.540716 188.747211 
L 242.581762 188.747211 
L 242.667996 188.411701 
L 242.849271 188.411701 
L 242.960351 188.188028 
L 243.113976 188.188028 
L 243.113976 188.076192 
L 243.59201 188.076192 
L 243.650317 187.740683 
L 243.763429 187.740683 
L 243.856365 187.405173 
L 244.100405 187.405173 
L 244.100405 187.293337 
L 244.571585 187.293337 
L 244.666185 186.845991 
L 244.844855 186.845991 
L 244.883096 186.622318 
L 244.9601 186.622318 
L 244.9601 186.510482 
L 245.373017 186.510482 
L 245.481775 186.174972 
L 245.48855 186.174972 
L 245.48855 186.063136 
L 245.60331 186.063136 
L 245.60331 185.951299 
L 245.73364 185.951299 
L 245.73364 185.839463 
L 246.211415 185.839463 
L 246.211415 185.727627 
L 246.379799 185.727627 
L 246.478836 185.168444 
L 246.527078 185.168444 
L 246.563172 184.944771 
L 246.6587 184.944771 
L 246.6587 184.832935 
L 247.084013 184.832935 
L 247.084013 184.721099 
L 247.283129 184.721099 
L 247.34066 184.385589 
L 247.835516 184.385589 
L 247.835516 184.273753 
L 248.023563 184.273753 
L 248.118436 183.602734 
L 248.232366 183.602734 
L 248.268575 183.379061 
L 248.695362 183.379061 
L 248.763298 182.931715 
L 248.905156 182.931715 
L 248.923345 182.596206 
L 249.03361 182.596206 
L 249.03361 182.48437 
L 249.443234 182.48437 
L 249.540714 182.14886 
L 249.894651 182.14886 
L 249.894651 182.037024 
L 250.073679 182.037024 
L 250.154469 181.813351 
L 250.331676 181.813351 
L 250.356924 181.589678 
L 250.547494 181.589678 
L 250.547494 181.477842 
L 250.69961 181.477842 
L 250.794659 181.254169 
L 251.100872 181.254169 
L 251.100872 181.142332 
L 251.355247 181.142332 
L 251.46111 180.58315 
L 251.537501 180.58315 
L 251.537501 180.471314 
L 251.892425 180.471314 
L 251.892944 180.247641 
L 252.031082 180.247641 
L 252.114203 179.688458 
L 252.158421 179.688458 
L 252.222883 179.464785 
L 252.621566 179.464785 
L 252.682832 179.129276 
L 252.767549 179.129276 
L 252.796843 178.905603 
L 252.974247 178.905603 
L 253.036212 178.68193 
L 253.851 178.68193 
L 253.851 178.570094 
L 254.022254 178.570094 
L 254.022254 178.458257 
L 254.331406 178.458257 
L 254.331406 178.346421 
L 254.735804 178.346421 
L 254.740198 178.122748 
L 254.870624 178.122748 
L 254.870624 178.010912 
L 255.271835 178.010912 
L 255.339641 177.787239 
L 255.705063 177.787239 
L 255.80797 177.339893 
L 255.858884 177.339893 
L 255.858884 177.228057 
L 256.201443 177.228057 
L 256.304838 176.668874 
L 256.3641 176.668874 
L 256.3641 176.557038 
L 256.505422 176.557038 
L 256.597352 176.333365 
L 256.805482 176.333365 
L 256.901832 175.997856 
L 257.369985 175.997856 
L 257.369985 175.886019 
L 257.593599 175.886019 
L 257.655819 175.55051 
L 257.770381 175.55051 
L 257.770381 175.438673 
L 257.892782 175.438673 
L 257.892782 175.326837 
L 258.060917 175.326837 
L 258.097817 175.103164 
L 258.234057 175.103164 
L 258.234057 174.991328 
L 258.417358 174.991328 
L 258.417358 174.879491 
L 258.639743 174.879491 
L 258.639743 174.767655 
L 259.252842 174.767655 
L 259.252842 174.655818 
L 259.398363 174.655818 
L 259.41042 174.432145 
L 259.574362 174.432145 
L 259.574362 174.320309 
L 259.752844 174.320309 
L 259.752844 174.208472 
L 259.970374 174.208472 
L 259.970374 174.096636 
L 260.135025 174.096636 
L 260.135025 173.9848 
L 260.860344 173.9848 
L 260.860344 173.872963 
L 261.507019 173.872963 
L 261.507019 173.761127 
L 261.789635 173.761127 
L 261.789635 173.64929 
L 262.110654 173.64929 
L 262.190871 173.313781 
L 262.245182 173.313781 
L 262.245182 173.201944 
L 262.442214 173.201944 
L 262.442214 173.090108 
L 263.69128 173.090108 
L 263.69128 172.978271 
L 264.079531 172.978271 
L 264.079531 172.866435 
L 264.359706 172.866435 
L 264.359706 172.754599 
L 264.907446 172.754599 
L 264.907446 172.642762 
L 266.25069 172.642762 
L 266.25069 172.530926 
L 267.212661 172.530926 
L 267.212661 172.419089 
L 269.024097 172.419089 
L 269.068058 172.195416 
L 269.623173 172.195416 
L 269.623173 172.08358 
L 272.102138 172.08358 
L 272.102138 171.971743 
L 279.806111 171.971743 
L 279.806111 171.859907 
L 333.168 171.859907 
L 333.168 171.859907 
" style="fill:none;stroke:#000080;stroke-linecap:square;stroke-width:1.5;"/>
   </g>
   <g id="line2d_44">
    <defs>
     <path d="M 0 6 
C 1.591219 6 3.117479 5.367802 4.242641 4.242641 
C 5.367802 3.117479 6 1.591219 6 0 
C 6 -1.591219 5.367802 -3.117479 4.242641 -4.242641 
C 3.117479 -5.367802 1.591219 -6 0 -6 
C -1.591219 -6 -3.117479 -5.367802 -4.242641 -4.242641 
C -5.367802 -3.117479 -6 -1.591219 -6 0 
C -6 1.591219 -5.367802 3.117479 -4.242641 4.242641 
C -3.117479 5.367802 -1.591219 6 0 6 
z
" id="m6b21c155a8" style="stroke:#000080;stroke-width:1.5;"/>
    </defs>
    <g>
     <use style="fill:none;stroke:#000080;stroke-width:1.5;" x="133.6555" xlink:href="#m6b21c155a8" y="261.888248"/>
     <use style="fill:none;stroke:#000080;stroke-width:1.5;" x="205.461662" xlink:href="#m6b21c155a8" y="223.192837"/>
     <use style="fill:none;stroke:#000080;stroke-width:1.5;" x="256.597352" xlink:href="#m6b21c155a8" y="176.445201"/>
     <use style="fill:none;stroke:#000080;stroke-width:1.5;" x="279.806111" xlink:href="#m6b21c155a8" y="171.859907"/>
     <use style="fill:none;stroke:#000080;stroke-width:1.5;" x="279.806111" xlink:href="#m6b21c155a8" y="171.859907"/>
     <use style="fill:none;stroke:#000080;stroke-width:1.5;" x="333.168" xlink:href="#m6b21c155a8" y="171.859907"/>
    </g>
   </g>
   <g id="line2d_45">
    <path style="fill:none;stroke:#000080;stroke-linecap:square;stroke-width:1.5;"/>
    <g/>
   </g>
   <g id="line2d_46">
    <path clip-path="url(#pab14af0244)" d="M 194.544363 230.797715 
" style="fill:none;stroke:#000080;stroke-linecap:square;stroke-width:1.5;"/>
    <defs>
     <path d="M -12 12 
L 12 -12 
M -12 -12 
L 12 12 
" id="ma0b9c66e3d" style="stroke:#000080;"/>
    </defs>
    <g clip-path="url(#pab14af0244)">
     <use style="fill:#000080;stroke:#000080;" x="194.544363" xlink:href="#ma0b9c66e3d" y="230.797715"/>
    </g>
   </g>
   <g id="line2d_47">
    <defs>
     <path d="M 0 1.5 
C 0.397805 1.5 0.77937 1.341951 1.06066 1.06066 
C 1.341951 0.77937 1.5 0.397805 1.5 0 
C 1.5 -0.397805 1.341951 -0.77937 1.06066 -1.06066 
C 0.77937 -1.341951 0.397805 -1.5 0 -1.5 
C -0.397805 -1.5 -0.77937 -1.341951 -1.06066 -1.06066 
C -1.341951 -0.77937 -1.5 -0.397805 -1.5 0 
C -1.5 0.397805 -1.341951 0.77937 -1.06066 1.06066 
C -0.77937 1.341951 -0.397805 1.5 0 1.5 
z
" id="m0f98c03a5a" style="stroke:#ff00ff;"/>
    </defs>
    <g>
     <use style="fill:#ff00ff;stroke:#ff00ff;" x="196.813368" xlink:href="#m0f98c03a5a" y="237.843411"/>
     <use style="fill:#ff00ff;stroke:#ff00ff;" x="196.813368" xlink:href="#m0f98c03a5a" y="237.843411"/>
    </g>
   </g>
   <g id="line2d_48">
    <path d="M 37.236359 294.88 
L 37.236359 268.151089 
L 76.814644 268.151089 
L 76.814644 268.039252 
L 78.452896 268.039252 
L 78.452896 267.591907 
L 79.948502 267.591907 
L 79.948502 267.144561 
L 81.324327 267.144561 
L 81.324327 266.920888 
L 82.598142 266.920888 
L 82.598142 266.361706 
L 83.784035 266.361706 
L 83.784035 265.802523 
L 84.893363 265.802523 
L 84.893363 265.131505 
L 85.935418 265.131505 
L 85.935418 264.684159 
L 86.917893 264.684159 
L 86.917893 263.677631 
L 87.847234 263.677631 
L 87.847234 263.565795 
L 88.728896 263.565795 
L 88.728896 263.342122 
L 90.367147 263.342122 
L 90.367147 263.006612 
L 91.131212 263.006612 
L 91.131212 262.782939 
L 91.862754 262.782939 
L 91.862754 262.559266 
L 92.564428 262.559266 
L 92.564428 262.335594 
L 93.238578 262.335594 
L 93.238578 261.776411 
L 93.887283 261.776411 
L 93.887283 261.664575 
L 94.512393 261.664575 
L 94.512393 261.440902 
L 95.115564 261.440902 
L 95.115564 261.105393 
L 95.698286 261.105393 
L 95.698286 260.769883 
L 96.261898 260.769883 
L 96.261898 260.658047 
L 96.807615 260.658047 
L 96.807615 260.54621 
L 97.849669 260.54621 
L 97.849669 260.434374 
L 98.832144 260.434374 
L 98.832144 259.987028 
L 99.761485 259.987028 
L 99.761485 259.763355 
L 100.207968 259.763355 
L 100.207968 259.651519 
L 101.067579 259.651519 
L 101.067579 259.427846 
L 102.667676 259.427846 
L 102.667676 259.204173 
L 103.045463 259.204173 
L 103.045463 258.9805 
L 103.777005 258.9805 
L 103.777005 258.868664 
L 105.152829 258.868664 
L 105.152829 258.756827 
L 105.801534 258.756827 
L 105.801534 258.644991 
L 107.612537 258.644991 
L 107.612537 258.533154 
L 107.896653 258.533154 
L 107.896653 258.421318 
L 108.721866 258.421318 
L 108.721866 258.309481 
L 109.509269 258.309481 
L 109.509269 258.197645 
L 109.76392 258.197645 
L 109.76392 258.085809 
L 110.505991 258.085809 
L 110.505991 257.973972 
L 111.675736 257.973972 
L 111.675736 257.862136 
L 112.122219 257.862136 
L 112.122219 257.526626 
L 112.98183 257.526626 
L 112.98183 257.41479 
L 113.396034 257.41479 
L 113.396034 257.302953 
L 114.389873 257.302953 
L 114.389873 257.191117 
L 114.771859 257.191117 
L 114.771859 256.967444 
L 115.511269 256.967444 
L 115.511269 256.520098 
L 116.220179 256.520098 
L 116.220179 256.296425 
L 118.645127 256.296425 
L 118.645127 256.184589 
L 118.795247 256.184589 
L 118.795247 255.960916 
L 119.237897 255.960916 
L 119.237897 255.84908 
L 119.382949 255.84908 
L 119.382949 255.737243 
L 120.636117 255.737243 
L 120.636117 255.51357 
L 122.298767 255.51357 
L 122.298767 255.401734 
L 122.540864 255.401734 
L 122.540864 255.289897 
L 123.015063 255.289897 
L 123.015063 255.066224 
L 123.476531 255.066224 
L 123.476531 254.954388 
L 123.925932 254.954388 
L 124.036471 254.618879 
L 124.255437 254.618879 
L 124.255437 254.507042 
L 124.790952 254.507042 
L 124.790952 254.395206 
L 125.207666 254.395206 
L 125.207666 254.283369 
L 126.109901 254.283369 
L 126.207287 253.94786 
L 126.40042 253.94786 
L 126.40042 253.836024 
L 127.151955 253.836024 
L 127.151955 253.724187 
L 127.334814 253.724187 
L 127.334814 253.612351 
L 128.047399 253.612351 
L 128.047399 253.500514 
L 129.227474 253.500514 
L 129.308744 253.276841 
L 130.483823 253.276841 
L 130.483823 253.165005 
L 131.152148 253.165005 
L 131.224827 252.941332 
L 131.2972 252.941332 
L 131.2972 252.829495 
L 131.583684 252.829495 
L 131.583684 252.717659 
L 132.279675 252.717659 
L 132.279675 252.605823 
L 132.415555 252.605823 
L 132.483094 252.270313 
L 132.816864 252.270313 
L 132.882847 252.04664 
L 134.029181 252.04664 
L 134.029181 251.934804 
L 134.515111 251.934804 
L 134.515111 251.822967 
L 134.811986 251.822967 
L 134.87075 251.599295 
L 134.98768 251.599295 
L 134.98768 251.487458 
L 135.560688 251.487458 
L 135.616951 251.263785 
L 135.673032 251.263785 
L 135.673032 251.151949 
L 136.005725 251.151949 
L 136.005725 250.928276 
L 136.332102 250.928276 
L 136.332102 250.816439 
L 136.652396 250.816439 
L 136.652396 250.592767 
L 136.862657 250.592767 
L 136.862657 250.48093 
L 137.173303 250.48093 
L 137.173303 250.369094 
L 139.474938 250.369094 
L 139.474938 250.145421 
L 139.60905 250.145421 
L 139.60905 250.033584 
L 139.786254 250.033584 
L 139.786254 249.921748 
L 140.645865 249.921748 
L 140.645865 249.809911 
L 141.019094 249.809911 
L 141.100945 249.586238 
L 141.303883 249.586238 
L 141.303883 249.474402 
L 141.464526 249.474402 
L 141.544287 249.027056 
L 141.702709 249.027056 
L 141.742087 248.803383 
L 141.859684 248.803383 
L 141.859684 248.691547 
L 142.169397 248.691547 
L 142.245962 248.467874 
L 142.322186 248.467874 
L 142.322186 248.356038 
L 142.993411 248.356038 
L 142.993411 248.132365 
L 144.091308 248.132365 
L 144.091308 248.020528 
L 145.632598 248.020528 
L 145.632598 247.908692 
L 145.881713 247.908692 
L 145.881713 247.796855 
L 146.93104 247.796855 
L 146.93104 247.685019 
L 147.559266 247.685019 
L 147.559266 247.573182 
L 148.246353 247.573182 
L 148.326988 247.34951 
L 148.513678 247.34951 
L 148.513678 247.237673 
L 148.907027 247.237673 
L 148.932933 247.014 
L 149.791281 247.014 
L 149.791281 246.902164 
L 150.725806 246.902164 
L 150.725806 246.790327 
L 150.957462 246.790327 
L 151.003421 246.566654 
L 151.094972 246.566654 
L 151.094972 246.454818 
L 151.456376 246.454818 
L 151.545552 246.231145 
L 151.788427 246.231145 
L 151.788427 246.119309 
L 152.242778 246.119309 
L 152.242778 246.007472 
L 152.643759 246.007472 
L 152.643759 245.895636 
L 153.177738 245.895636 
L 153.177738 245.783799 
L 153.537932 245.783799 
L 153.537932 245.671963 
L 153.851888 245.671963 
L 153.890733 245.44829 
L 154.006742 245.44829 
L 154.006742 245.336453 
L 154.121973 245.336453 
L 154.217413 245.000944 
L 155.071451 245.000944 
L 155.071451 244.889108 
L 155.447664 244.889108 
L 155.447664 244.777271 
L 155.659002 244.777271 
L 155.746298 244.553598 
L 155.867773 244.553598 
L 155.867773 244.441762 
L 157.593834 244.441762 
L 157.593834 244.329925 
L 157.7805 244.329925 
L 157.7805 244.218089 
L 158.087174 244.218089 
L 158.087174 244.106253 
L 158.208328 244.106253 
L 158.208328 243.994416 
L 159.190803 243.994416 
L 159.219284 243.770743 
L 159.459491 243.770743 
L 159.459491 243.658907 
L 159.668686 243.658907 
L 159.668686 243.54707 
L 159.792992 243.54707 
L 159.792992 243.435234 
L 160.200969 243.435234 
L 160.200969 243.323397 
L 160.651931 243.323397 
L 160.651931 243.211561 
L 161.014628 243.211561 
L 161.027441 242.987888 
L 161.256457 242.987888 
L 161.256457 242.876052 
L 161.815992 242.876052 
L 161.815992 242.764215 
L 162.286612 242.764215 
L 162.286612 242.652379 
L 162.428863 242.652379 
L 162.428863 242.540542 
L 162.986381 242.540542 
L 162.986381 242.428706 
L 163.801055 242.428706 
L 163.801055 242.316869 
L 164.017676 242.316869 
L 164.017676 242.205033 
L 164.765354 242.205033 
L 164.765354 242.093196 
L 165.313003 242.093196 
L 165.313003 241.98136 
L 165.452183 241.98136 
L 165.452183 241.869524 
L 166.46159 241.869524 
L 166.46159 241.757687 
L 166.721046 241.757687 
L 166.776138 241.534014 
L 167.590748 241.534014 
L 167.599489 241.310341 
L 168.183666 241.310341 
L 168.183666 241.198505 
L 168.773143 241.198505 
L 168.773143 241.086668 
L 169.374626 241.086668 
L 169.374626 240.974832 
L 169.925268 240.974832 
L 169.925268 240.862996 
L 171.394777 240.862996 
L 171.436768 240.639323 
L 172.269079 240.639323 
L 172.269079 240.527486 
L 172.754963 240.527486 
L 172.754963 240.41565 
L 173.514805 240.41565 
L 173.514805 240.303813 
L 173.650538 240.303813 
L 173.650538 240.191977 
L 173.833918 240.191977 
L 173.833918 240.08014 
L 174.063425 240.08014 
L 174.111354 239.856467 
L 174.554309 239.856467 
L 174.577615 239.632795 
L 176.664141 239.632795 
L 176.664141 239.520958 
L 176.884478 239.520958 
L 176.884478 239.409122 
L 177.724084 239.409122 
L 177.724084 239.297285 
L 178.173924 239.297285 
L 178.173924 239.185449 
L 178.366502 239.185449 
L 178.366502 239.073612 
L 178.575415 239.073612 
L 178.575415 238.961776 
L 178.922579 238.961776 
L 178.981267 238.738103 
L 180.576856 238.738103 
L 180.576856 238.626267 
L 183.0549 238.626267 
L 183.0549 238.51443 
L 184.923056 238.51443 
L 184.923056 238.402594 
L 185.638376 238.402594 
L 185.69641 238.178921 
L 185.917576 238.178921 
L 185.917576 238.067084 
L 188.409964 238.067084 
L 188.409964 237.955248 
L 196.813368 237.955248 
L 196.813368 237.843411 
L 333.168 237.843411 
L 333.168 237.843411 
" style="fill:none;stroke:#ff00ff;stroke-linecap:square;stroke-width:1.5;"/>
   </g>
   <g id="line2d_49">
    <defs>
     <path d="M -0 8.485281 
L 5.091169 0 
L 0 -8.485281 
L -5.091169 -0 
z
" id="ma8a4971779" style="stroke:#ff00ff;stroke-linejoin:miter;stroke-width:1.5;"/>
    </defs>
    <g>
     <use style="fill:none;stroke:#ff00ff;stroke-linejoin:miter;stroke-width:1.5;" x="86.917893" xlink:href="#ma8a4971779" y="263.677631"/>
     <use style="fill:none;stroke:#ff00ff;stroke-linejoin:miter;stroke-width:1.5;" x="137.173303" xlink:href="#ma8a4971779" y="250.369094"/>
     <use style="fill:none;stroke:#ff00ff;stroke-linejoin:miter;stroke-width:1.5;" x="196.813368" xlink:href="#ma8a4971779" y="237.955248"/>
     <use style="fill:none;stroke:#ff00ff;stroke-linejoin:miter;stroke-width:1.5;" x="196.813368" xlink:href="#ma8a4971779" y="237.843411"/>
     <use style="fill:none;stroke:#ff00ff;stroke-linejoin:miter;stroke-width:1.5;" x="196.813368" xlink:href="#ma8a4971779" y="237.843411"/>
     <use style="fill:none;stroke:#ff00ff;stroke-linejoin:miter;stroke-width:1.5;" x="333.168" xlink:href="#ma8a4971779" y="237.843411"/>
    </g>
   </g>
   <g id="line2d_50">
    <path style="fill:none;stroke:#ff00ff;stroke-linecap:square;stroke-width:1.5;"/>
    <g/>
   </g>
   <g id="line2d_51">
    <path clip-path="url(#pab14af0244)" d="M 119.09161 255.960916 
" style="fill:none;stroke:#ff00ff;stroke-linecap:square;stroke-width:1.5;"/>
    <defs>
     <path d="M -12 12 
L 12 -12 
M -12 -12 
L 12 12 
" id="mc88b1d9019" style="stroke:#ff00ff;"/>
    </defs>
    <g clip-path="url(#pab14af0244)">
     <use style="fill:#ff00ff;stroke:#ff00ff;" x="119.09161" xlink:href="#mc88b1d9019" y="255.960916"/>
    </g>
   </g>
   <g id="line2d_52">
    <path d="M 333.168 237.843411 
L 363.64328 289.176341 
" style="fill:none;stroke:#ff00ff;stroke-linecap:square;stroke-width:1.5;"/>
    <g>
     <use style="fill:none;stroke:#ff00ff;stroke-linejoin:miter;stroke-width:1.5;" x="333.168" xlink:href="#ma8a4971779" y="237.843411"/>
     <use style="fill:none;stroke:#ff00ff;stroke-linejoin:miter;stroke-width:1.5;" x="363.64328" xlink:href="#ma8a4971779" y="289.176341"/>
    </g>
   </g>
   <g id="line2d_53">
    <path d="M 333.168 171.859907 
L 363.64328 152.288529 
" style="fill:none;stroke:#000080;stroke-linecap:square;stroke-width:1.5;"/>
    <g>
     <use style="fill:none;stroke:#000080;stroke-width:1.5;" x="333.168" xlink:href="#m6b21c155a8" y="171.859907"/>
     <use style="fill:none;stroke:#000080;stroke-width:1.5;" x="363.64328" xlink:href="#m6b21c155a8" y="152.288529"/>
    </g>
   </g>
   <g id="line2d_54">
    <path d="M 333.168 294.88 
L 333.168 9.697057 
" style="fill:none;stroke:#000000;stroke-linecap:square;stroke-width:1.5;"/>
   </g>
   <g id="patch_3">
    <path d="M 56.12 294.88 
L 56.12 6.845228 
" style="fill:none;stroke:#000000;stroke-linecap:square;stroke-linejoin:miter;stroke-width:0.8;"/>
   </g>
   <g id="patch_4">
    <path d="M 333.168 294.88 
L 333.168 6.845228 
" style="fill:none;stroke:#000000;stroke-linecap:square;stroke-linejoin:miter;stroke-width:0.8;"/>
   </g>
   <g id="patch_5">
    <path d="M 56.12 294.88 
L 333.168 294.88 
" style="fill:none;stroke:#000000;stroke-linecap:square;stroke-linejoin:miter;stroke-width:0.8;"/>
   </g>
   <g id="patch_6">
    <path d="M 56.12 6.845228 
L 333.168 6.845228 
" style="fill:none;stroke:#000000;stroke-linecap:square;stroke-linejoin:miter;stroke-width:0.8;"/>
   </g>
   <g id="text_13">
    <!-- scipy-opt -->
    <defs>
     <path d="M 32.171875 -5.078125 
Q 28.375 -14.84375 24.75 -17.8125 
Q 21.140625 -20.796875 15.09375 -20.796875 
L 7.90625 -20.796875 
L 7.90625 -13.28125 
L 13.1875 -13.28125 
Q 16.890625 -13.28125 18.9375 -11.515625 
Q 21 -9.765625 23.484375 -3.21875 
L 25.09375 0.875 
L 2.984375 54.6875 
L 12.5 54.6875 
L 29.59375 11.921875 
L 46.6875 54.6875 
L 56.203125 54.6875 
z
" id="DejaVuSans-79"/>
    </defs>
    <g transform="translate(369.18424 293.867279)scale(0.17 -0.17)">
     <use xlink:href="#DejaVuSans-73"/>
     <use x="52.099609" xlink:href="#DejaVuSans-63"/>
     <use x="107.080078" xlink:href="#DejaVuSans-69"/>
     <use x="134.863281" xlink:href="#DejaVuSans-70"/>
     <use x="198.339844" xlink:href="#DejaVuSans-79"/>
     <use x="257.503906" xlink:href="#DejaVuSans-2d"/>
     <use x="293.603516" xlink:href="#DejaVuSans-6f"/>
     <use x="354.785156" xlink:href="#DejaVuSans-70"/>
     <use x="418.261719" xlink:href="#DejaVuSans-74"/>
    </g>
   </g>
   <g id="text_14">
    <!-- BFGS ros  -->
    <defs>
     <path d="M 19.671875 34.8125 
L 19.671875 8.109375 
L 35.5 8.109375 
Q 43.453125 8.109375 47.28125 11.40625 
Q 51.125 14.703125 51.125 21.484375 
Q 51.125 28.328125 47.28125 31.5625 
Q 43.453125 34.8125 35.5 34.8125 
z
M 19.671875 64.796875 
L 19.671875 42.828125 
L 34.28125 42.828125 
Q 41.5 42.828125 45.03125 45.53125 
Q 48.578125 48.25 48.578125 53.8125 
Q 48.578125 59.328125 45.03125 62.0625 
Q 41.5 64.796875 34.28125 64.796875 
z
M 9.8125 72.90625 
L 35.015625 72.90625 
Q 46.296875 72.90625 52.390625 68.21875 
Q 58.5 63.53125 58.5 54.890625 
Q 58.5 48.1875 55.375 44.234375 
Q 52.25 40.28125 46.1875 39.3125 
Q 53.46875 37.75 57.5 32.78125 
Q 61.53125 27.828125 61.53125 20.40625 
Q 61.53125 10.640625 54.890625 5.3125 
Q 48.25 0 35.984375 0 
L 9.8125 0 
z
" id="DejaVuSans-42"/>
     <path d="M 59.515625 10.40625 
L 59.515625 29.984375 
L 43.40625 29.984375 
L 43.40625 38.09375 
L 69.28125 38.09375 
L 69.28125 6.78125 
Q 63.578125 2.734375 56.6875 0.65625 
Q 49.8125 -1.421875 42 -1.421875 
Q 24.90625 -1.421875 15.25 8.5625 
Q 5.609375 18.5625 5.609375 36.375 
Q 5.609375 54.25 15.25 64.234375 
Q 24.90625 74.21875 42 74.21875 
Q 49.125 74.21875 55.546875 72.453125 
Q 61.96875 70.703125 67.390625 67.28125 
L 67.390625 56.78125 
Q 61.921875 61.421875 55.765625 63.765625 
Q 49.609375 66.109375 42.828125 66.109375 
Q 29.4375 66.109375 22.71875 58.640625 
Q 16.015625 51.171875 16.015625 36.375 
Q 16.015625 21.625 22.71875 14.15625 
Q 29.4375 6.6875 42.828125 6.6875 
Q 48.046875 6.6875 52.140625 7.59375 
Q 56.25 8.5 59.515625 10.40625 
z
" id="DejaVuSans-47"/>
     <path d="M 53.515625 70.515625 
L 53.515625 60.890625 
Q 47.90625 63.578125 42.921875 64.890625 
Q 37.9375 66.21875 33.296875 66.21875 
Q 25.25 66.21875 20.875 63.09375 
Q 16.5 59.96875 16.5 54.203125 
Q 16.5 49.359375 19.40625 46.890625 
Q 22.3125 44.4375 30.421875 42.921875 
L 36.375 41.703125 
Q 47.40625 39.59375 52.65625 34.296875 
Q 57.90625 29 57.90625 20.125 
Q 57.90625 9.515625 50.796875 4.046875 
Q 43.703125 -1.421875 29.984375 -1.421875 
Q 24.8125 -1.421875 18.96875 -0.25 
Q 13.140625 0.921875 6.890625 3.21875 
L 6.890625 13.375 
Q 12.890625 10.015625 18.65625 8.296875 
Q 24.421875 6.59375 29.984375 6.59375 
Q 38.421875 6.59375 43.015625 9.90625 
Q 47.609375 13.234375 47.609375 19.390625 
Q 47.609375 24.75 44.3125 27.78125 
Q 41.015625 30.8125 33.5 32.328125 
L 27.484375 33.5 
Q 16.453125 35.6875 11.515625 40.375 
Q 6.59375 45.0625 6.59375 53.421875 
Q 6.59375 63.09375 13.40625 68.65625 
Q 20.21875 74.21875 32.171875 74.21875 
Q 37.3125 74.21875 42.625 73.28125 
Q 47.953125 72.359375 53.515625 70.515625 
z
" id="DejaVuSans-53"/>
    </defs>
    <g transform="translate(369.18424 156.979466)scale(0.17 -0.17)">
     <use xlink:href="#DejaVuSans-42"/>
     <use x="68.603516" xlink:href="#DejaVuSans-46"/>
     <use x="126.123047" xlink:href="#DejaVuSans-47"/>
     <use x="203.613281" xlink:href="#DejaVuSans-53"/>
     <use x="267.089844" xlink:href="#DejaVuSans-20"/>
     <use x="298.876953" xlink:href="#DejaVuSans-72"/>
     <use x="339.958984" xlink:href="#DejaVuSans-6f"/>
     <use x="401.140625" xlink:href="#DejaVuSans-73"/>
     <use x="453.240234" xlink:href="#DejaVuSans-20"/>
    </g>
   </g>
   <g id="text_15">
    <!-- best 2009 -->
    <defs>
     <path d="M 48.6875 27.296875 
Q 48.6875 37.203125 44.609375 42.84375 
Q 40.53125 48.484375 33.40625 48.484375 
Q 26.265625 48.484375 22.1875 42.84375 
Q 18.109375 37.203125 18.109375 27.296875 
Q 18.109375 17.390625 22.1875 11.75 
Q 26.265625 6.109375 33.40625 6.109375 
Q 40.53125 6.109375 44.609375 11.75 
Q 48.6875 17.390625 48.6875 27.296875 
z
M 18.109375 46.390625 
Q 20.953125 51.265625 25.265625 53.625 
Q 29.59375 56 35.59375 56 
Q 45.5625 56 51.78125 48.09375 
Q 58.015625 40.1875 58.015625 27.296875 
Q 58.015625 14.40625 51.78125 6.484375 
Q 45.5625 -1.421875 35.59375 -1.421875 
Q 29.59375 -1.421875 25.265625 0.953125 
Q 20.953125 3.328125 18.109375 8.203125 
L 18.109375 0 
L 9.078125 0 
L 9.078125 75.984375 
L 18.109375 75.984375 
z
" id="DejaVuSans-62"/>
     <path d="M 10.984375 1.515625 
L 10.984375 10.5 
Q 14.703125 8.734375 18.5 7.8125 
Q 22.3125 6.890625 25.984375 6.890625 
Q 35.75 6.890625 40.890625 13.453125 
Q 46.046875 20.015625 46.78125 33.40625 
Q 43.953125 29.203125 39.59375 26.953125 
Q 35.25 24.703125 29.984375 24.703125 
Q 19.046875 24.703125 12.671875 31.3125 
Q 6.296875 37.9375 6.296875 49.421875 
Q 6.296875 60.640625 12.9375 67.421875 
Q 19.578125 74.21875 30.609375 74.21875 
Q 43.265625 74.21875 49.921875 64.515625 
Q 56.59375 54.828125 56.59375 36.375 
Q 56.59375 19.140625 48.40625 8.859375 
Q 40.234375 -1.421875 26.421875 -1.421875 
Q 22.703125 -1.421875 18.890625 -0.6875 
Q 15.09375 0.046875 10.984375 1.515625 
z
M 30.609375 32.421875 
Q 37.25 32.421875 41.125 36.953125 
Q 45.015625 41.5 45.015625 49.421875 
Q 45.015625 57.28125 41.125 61.84375 
Q 37.25 66.40625 30.609375 66.40625 
Q 23.96875 66.40625 20.09375 61.84375 
Q 16.21875 57.28125 16.21875 49.421875 
Q 16.21875 41.5 20.09375 36.953125 
Q 23.96875 32.421875 30.609375 32.421875 
z
" id="DejaVuSans-39"/>
    </defs>
    <g transform="translate(369.18424 20.091654)scale(0.17 -0.17)">
     <use xlink:href="#DejaVuSans-62"/>
     <use x="63.476562" xlink:href="#DejaVuSans-65"/>
     <use x="125" xlink:href="#DejaVuSans-73"/>
     <use x="177.099609" xlink:href="#DejaVuSans-74"/>
     <use x="216.308594" xlink:href="#DejaVuSans-20"/>
     <use x="248.095703" xlink:href="#DejaVuSans-32"/>
     <use x="311.71875" xlink:href="#DejaVuSans-30"/>
     <use x="375.341797" xlink:href="#DejaVuSans-30"/>
     <use x="438.964844" xlink:href="#DejaVuSans-39"/>
    </g>
   </g>
   <g id="text_16">
    <!-- bbob f15-f19, 3-D -->
    <defs>
     <path d="M 10.796875 72.90625 
L 49.515625 72.90625 
L 49.515625 64.59375 
L 19.828125 64.59375 
L 19.828125 46.734375 
Q 21.96875 47.46875 24.109375 47.828125 
Q 26.265625 48.1875 28.421875 48.1875 
Q 40.625 48.1875 47.75 41.5 
Q 54.890625 34.8125 54.890625 23.390625 
Q 54.890625 11.625 47.5625 5.09375 
Q 40.234375 -1.421875 26.90625 -1.421875 
Q 22.3125 -1.421875 17.546875 -0.640625 
Q 12.796875 0.140625 7.71875 1.703125 
L 7.71875 11.625 
Q 12.109375 9.234375 16.796875 8.0625 
Q 21.484375 6.890625 26.703125 6.890625 
Q 35.15625 6.890625 40.078125 11.328125 
Q 45.015625 15.765625 45.015625 23.390625 
Q 45.015625 31 40.078125 35.4375 
Q 35.15625 39.890625 26.703125 39.890625 
Q 22.75 39.890625 18.8125 39.015625 
Q 14.890625 38.140625 10.796875 36.28125 
z
" id="DejaVuSans-35"/>
     <path d="M 40.578125 39.3125 
Q 47.65625 37.796875 51.625 33 
Q 55.609375 28.21875 55.609375 21.1875 
Q 55.609375 10.40625 48.1875 4.484375 
Q 40.765625 -1.421875 27.09375 -1.421875 
Q 22.515625 -1.421875 17.65625 -0.515625 
Q 12.796875 0.390625 7.625 2.203125 
L 7.625 11.71875 
Q 11.71875 9.328125 16.59375 8.109375 
Q 21.484375 6.890625 26.8125 6.890625 
Q 36.078125 6.890625 40.9375 10.546875 
Q 45.796875 14.203125 45.796875 21.1875 
Q 45.796875 27.640625 41.28125 31.265625 
Q 36.765625 34.90625 28.71875 34.90625 
L 20.21875 34.90625 
L 20.21875 43.015625 
L 29.109375 43.015625 
Q 36.375 43.015625 40.234375 45.921875 
Q 44.09375 48.828125 44.09375 54.296875 
Q 44.09375 59.90625 40.109375 62.90625 
Q 36.140625 65.921875 28.71875 65.921875 
Q 24.65625 65.921875 20.015625 65.03125 
Q 15.375 64.15625 9.8125 62.3125 
L 9.8125 71.09375 
Q 15.4375 72.65625 20.34375 73.4375 
Q 25.25 74.21875 29.59375 74.21875 
Q 40.828125 74.21875 47.359375 69.109375 
Q 53.90625 64.015625 53.90625 55.328125 
Q 53.90625 49.265625 50.4375 45.09375 
Q 46.96875 40.921875 40.578125 39.3125 
z
" id="DejaVuSans-33"/>
     <path d="M 19.671875 64.796875 
L 19.671875 8.109375 
L 31.59375 8.109375 
Q 46.6875 8.109375 53.6875 14.9375 
Q 60.6875 21.78125 60.6875 36.53125 
Q 60.6875 51.171875 53.6875 57.984375 
Q 46.6875 64.796875 31.59375 64.796875 
z
M 9.8125 72.90625 
L 30.078125 72.90625 
Q 51.265625 72.90625 61.171875 64.09375 
Q 71.09375 55.28125 71.09375 36.53125 
Q 71.09375 17.671875 61.125 8.828125 
Q 51.171875 0 30.078125 0 
L 9.8125 0 
z
" id="DejaVuSans-44"/>
    </defs>
    <g transform="translate(58.89048 17.475982)scale(0.102 -0.102)">
     <use xlink:href="#DejaVuSans-62"/>
     <use x="63.476562" xlink:href="#DejaVuSans-62"/>
     <use x="126.953125" xlink:href="#DejaVuSans-6f"/>
     <use x="188.134766" xlink:href="#DejaVuSans-62"/>
     <use x="251.611328" xlink:href="#DejaVuSans-20"/>
     <use x="283.398438" xlink:href="#DejaVuSans-66"/>
     <use x="318.603516" xlink:href="#DejaVuSans-31"/>
     <use x="382.226562" xlink:href="#DejaVuSans-35"/>
     <use x="445.849609" xlink:href="#DejaVuSans-2d"/>
     <use x="481.933594" xlink:href="#DejaVuSans-66"/>
     <use x="517.138672" xlink:href="#DejaVuSans-31"/>
     <use x="580.761719" xlink:href="#DejaVuSans-39"/>
     <use x="644.384766" xlink:href="#DejaVuSans-2c"/>
     <use x="676.171875" xlink:href="#DejaVuSans-20"/>
     <use x="707.958984" xlink:href="#DejaVuSans-33"/>
     <use x="771.582031" xlink:href="#DejaVuSans-2d"/>
     <use x="807.666016" xlink:href="#DejaVuSans-44"/>
    </g>
    <!-- 51 targets: 100..1e-08 -->
    <defs>
     <path d="M 11.71875 12.40625 
L 22.015625 12.40625 
L 22.015625 0 
L 11.71875 0 
z
M 11.71875 51.703125 
L 22.015625 51.703125 
L 22.015625 39.3125 
L 11.71875 39.3125 
z
" id="DejaVuSans-3a"/>
    </defs>
    <g transform="translate(58.89048 28.89775)scale(0.102 -0.102)">
     <use xlink:href="#DejaVuSans-35"/>
     <use x="63.623047" xlink:href="#DejaVuSans-31"/>
     <use x="127.246094" xlink:href="#DejaVuSans-20"/>
     <use x="159.033203" xlink:href="#DejaVuSans-74"/>
     <use x="198.242188" xlink:href="#DejaVuSans-61"/>
     <use x="259.521484" xlink:href="#DejaVuSans-72"/>
     <use x="300.619141" xlink:href="#DejaVuSans-67"/>
     <use x="364.095703" xlink:href="#DejaVuSans-65"/>
     <use x="425.619141" xlink:href="#DejaVuSans-74"/>
     <use x="464.828125" xlink:href="#DejaVuSans-73"/>
     <use x="516.927734" xlink:href="#DejaVuSans-3a"/>
     <use x="550.619141" xlink:href="#DejaVuSans-20"/>
     <use x="582.40625" xlink:href="#DejaVuSans-31"/>
     <use x="646.029297" xlink:href="#DejaVuSans-30"/>
     <use x="709.652344" xlink:href="#DejaVuSans-30"/>
     <use x="773.275391" xlink:href="#DejaVuSans-2e"/>
     <use x="805.0625" xlink:href="#DejaVuSans-2e"/>
     <use x="836.849609" xlink:href="#DejaVuSans-31"/>
     <use x="900.472656" xlink:href="#DejaVuSans-65"/>
     <use x="961.996094" xlink:href="#DejaVuSans-2d"/>
     <use x="998.080078" xlink:href="#DejaVuSans-30"/>
     <use x="1061.703125" xlink:href="#DejaVuSans-38"/>
    </g>
    <!-- 15 instances -->
    <g transform="translate(58.89048 40.319519)scale(0.102 -0.102)">
     <use xlink:href="#DejaVuSans-31"/>
     <use x="63.623047" xlink:href="#DejaVuSans-35"/>
     <use x="127.246094" xlink:href="#DejaVuSans-20"/>
     <use x="159.033203" xlink:href="#DejaVuSans-69"/>
     <use x="186.816406" xlink:href="#DejaVuSans-6e"/>
     <use x="250.195312" xlink:href="#DejaVuSans-73"/>
     <use x="302.294922" xlink:href="#DejaVuSans-74"/>
     <use x="341.503906" xlink:href="#DejaVuSans-61"/>
     <use x="402.783203" xlink:href="#DejaVuSans-6e"/>
     <use x="466.162109" xlink:href="#DejaVuSans-63"/>
     <use x="521.142578" xlink:href="#DejaVuSans-65"/>
     <use x="582.666016" xlink:href="#DejaVuSans-73"/>
    </g>
   </g>
   <g id="text_17">
    <!-- v0.0.0 -->
    <g style="fill:#808080;" transform="translate(178.96275 289.919965)scale(0.1 -0.1)">
     <use xlink:href="#DejaVuSans-76"/>
     <use x="59.179688" xlink:href="#DejaVuSans-30"/>
     <use x="122.802734" xlink:href="#DejaVuSans-2e"/>
     <use x="154.589844" xlink:href="#DejaVuSans-30"/>
     <use x="218.212891" xlink:href="#DejaVuSans-2e"/>
     <use x="250" xlink:href="#DejaVuSans-30"/>
    </g>
   </g>
  </g>
 </g>
 <defs>
  <clipPath id="pab14af0244">
   <rect height="288.034772" width="277.048" x="56.12" y="6.845228"/>
  </clipPath>
 </defs>
</svg>
