<?xml version="1.0" encoding="utf-8" standalone="no"?>
<!DOCTYPE svg PUBLIC "-//W3C//DTD SVG 1.1//EN"
  "http://www.w3.org/Graphics/SVG/1.1/DTD/svg11.dtd">
<!-- Created with matplotlib (http://matplotlib.org/) -->
<svg height="345pt" version="1.1" viewBox="0 0 460 345" width="460pt" xmlns="http://www.w3.org/2000/svg" xmlns:xlink="http://www.w3.org/1999/xlink">
 <defs>
  <style type="text/css">
*{stroke-linecap:butt;stroke-linejoin:round;}
  </style>
 </defs>
 <g id="figure_1">
  <g id="patch_1">
   <path d="M 0 345.6 
L 460.8 345.6 
L 460.8 0 
L 0 0 
z
" style="fill:#ffffff;"/>
  </g>
  <g id="axes_1">
   <g id="patch_2">
    <path d="M 56.12 294.88 
L 333.168 294.88 
L 333.168 6.845228 
L 56.12 6.845228 
z
" style="fill:#ffffff;"/>
   </g>
   <g id="line2d_1">
    <path d="M 37.236359 294.88 
L 37.236359 287.890222 
L 56.12 287.890222 
L 56.12 286.492266 
L 61.064861 286.492266 
L 61.064861 285.094311 
L 64.900393 285.094311 
L 64.900393 283.696355 
L 72.979112 283.696355 
L 72.979112 278.104533 
L 78.452896 278.104533 
L 78.452896 276.706577 
L 81.324327 276.706577 
L 81.324327 275.308622 
L 83.784035 275.308622 
L 83.784035 273.910666 
L 84.893363 273.910666 
L 84.893363 272.51271 
L 85.935418 272.51271 
L 85.935418 271.114755 
L 86.917893 271.114755 
L 86.917893 269.716799 
L 87.847234 269.716799 
L 87.847234 268.318844 
L 88.728896 268.318844 
L 88.728896 266.920888 
L 89.567532 266.920888 
L 89.567532 265.522932 
L 91.862754 265.522932 
L 91.862754 264.124977 
L 92.564428 264.124977 
L 92.564428 259.93111 
L 93.887283 259.93111 
L 93.887283 258.533154 
L 96.261898 258.533154 
L 96.261898 254.339288 
L 96.807615 254.339288 
L 96.807615 252.941332 
L 97.849669 252.941332 
L 97.849669 251.543376 
L 99.761485 251.543376 
L 99.761485 250.145421 
L 100.207968 250.145421 
L 100.207968 248.747465 
L 100.643147 248.747465 
L 100.643147 245.951554 
L 102.667676 245.951554 
L 102.667676 244.553598 
L 103.045463 244.553598 
L 103.045463 243.155643 
L 103.777005 243.155643 
L 103.777005 241.757687 
L 104.131422 241.757687 
L 104.131422 240.359732 
L 105.152829 240.359732 
L 105.152829 238.961776 
L 106.426644 238.961776 
L 106.426644 237.56382 
L 107.029816 237.56382 
L 107.029816 236.165865 
L 107.896653 236.165865 
L 107.896653 234.767909 
L 108.988361 234.767909 
L 108.988361 231.971998 
L 109.250788 231.971998 
L 109.250788 230.574042 
L 110.505991 230.574042 
L 110.505991 229.176087 
L 111.217346 229.176087 
L 111.217346 227.778131 
L 112.122219 227.778131 
L 112.122219 226.380175 
L 112.341186 226.380175 
L 112.341186 224.98222 
L 114.389873 224.98222 
L 114.389873 223.584264 
L 114.581927 223.584264 
L 114.581927 222.186309 
L 116.220179 222.186309 
L 116.220179 220.788353 
L 116.901005 220.788353 
L 116.901005 219.390397 
L 117.06708 219.390397 
L 117.06708 217.992442 
L 117.55589 217.992442 
L 117.55589 216.594486 
L 118.340895 216.594486 
L 118.340895 215.196531 
L 118.645127 215.196531 
L 118.645127 213.798575 
L 118.944067 213.798575 
L 118.944067 212.400619 
L 119.09161 212.400619 
L 119.09161 211.002664 
L 120.228462 211.002664 
L 120.228462 209.604708 
L 120.501303 209.604708 
L 120.501303 208.206753 
L 120.636117 208.206753 
L 120.636117 206.808797 
L 120.902613 206.808797 
L 120.902613 205.410841 
L 121.16504 205.410841 
L 121.16504 204.012886 
L 121.678171 204.012886 
L 121.678171 202.61493 
L 121.929105 202.61493 
L 121.929105 201.216975 
L 122.053211 201.216975 
L 122.053211 199.819019 
L 122.540864 199.819019 
L 122.540864 197.023108 
L 122.779599 197.023108 
L 122.779599 195.625152 
L 122.897734 195.625152 
L 122.897734 194.227197 
L 123.247346 194.227197 
L 123.247346 191.431285 
L 123.589988 191.431285 
L 123.589988 188.635374 
L 123.814679 188.635374 
L 123.814679 187.237419 
L 123.925932 187.237419 
L 123.925932 185.839463 
L 124.255437 185.839463 
L 124.363883 180.247641 
L 124.471649 180.247641 
L 124.471649 178.849685 
L 124.685175 178.849685 
L 124.685175 176.053774 
L 124.896081 176.053774 
L 125.000572 170.461951 
L 125.104431 170.461951 
L 125.207666 166.268085 
L 125.310285 166.268085 
L 125.412295 163.472173 
L 125.513703 163.472173 
L 125.614517 160.676262 
L 125.714742 160.676262 
L 125.714742 157.880351 
L 125.913457 157.880351 
L 126.011959 149.492617 
L 126.109901 149.492617 
L 126.207287 143.900795 
L 126.304124 143.900795 
L 126.40042 138.308973 
L 126.496178 138.308973 
L 126.591406 134.115106 
L 126.68611 134.115106 
L 126.780294 131.319195 
L 126.873966 131.319195 
L 126.873966 129.921239 
L 127.05979 129.921239 
L 127.05979 127.125328 
L 127.243628 127.125328 
L 127.334814 124.329417 
L 127.42552 124.329417 
L 127.515749 121.533505 
L 127.605507 121.533505 
L 127.605507 120.13555 
L 127.783629 120.13555 
L 127.872003 115.941683 
L 127.959924 115.941683 
L 128.047399 110.349861 
L 128.13443 110.349861 
L 128.13443 107.553949 
L 128.39291 107.553949 
L 128.478214 101.962127 
L 128.563096 101.962127 
L 128.647561 99.166216 
L 128.731613 99.166216 
L 128.815257 96.370304 
L 128.981332 96.370304 
L 129.063771 87.982571 
L 129.145817 87.982571 
L 129.145817 85.18666 
L 129.550274 85.18666 
L 129.630036 82.390748 
L 130.023386 82.390748 
L 130.023386 80.992793 
L 130.407935 80.992793 
L 130.407935 79.594837 
L 130.784069 79.594837 
L 130.784069 78.196882 
L 131.152148 78.196882 
L 131.152148 76.798926 
L 131.441039 76.798926 
L 131.441039 75.40097 
L 131.654565 75.40097 
L 131.654565 74.003015 
L 131.935202 74.003015 
L 131.935202 72.605059 
L 132.073821 72.605059 
L 132.073821 71.207104 
L 132.347749 71.207104 
L 132.347749 69.809148 
L 132.816864 69.809148 
L 132.816864 68.411192 
L 133.144276 68.411192 
L 133.144276 67.013237 
L 133.529112 67.013237 
L 133.529112 65.615281 
L 133.905521 65.615281 
L 133.905521 64.217326 
L 134.334493 64.217326 
L 134.334493 62.81937 
L 134.753019 62.81937 
L 134.753019 61.421414 
L 134.929315 61.421414 
L 134.929315 60.023459 
L 137.528768 60.023459 
L 137.528768 58.625503 
L 138.266591 58.625503 
L 138.266591 57.227548 
L 138.647518 57.227548 
L 138.647518 55.829592 
L 139.066206 55.829592 
L 139.066206 54.431636 
L 139.519758 54.431636 
L 139.519758 53.033681 
L 142.772569 53.033681 
L 142.772569 51.635725 
L 142.993411 51.635725 
L 142.993411 50.23777 
L 143.35529 50.23777 
L 143.426761 22.278658 
L 143.779723 22.278658 
L 143.779723 20.880702 
L 144.397345 20.880702 
L 144.397345 19.482746 
L 144.731115 19.482746 
L 144.731115 18.084791 
L 145.219924 18.084791 
L 145.219924 16.686835 
L 145.85077 16.686835 
L 145.85077 15.28888 
L 146.248744 15.28888 
L 146.248744 13.890924 
L 146.814308 13.890924 
L 146.814308 12.492968 
L 147.248023 12.492968 
L 147.248023 11.095013 
L 147.587283 11.095013 
L 147.587283 9.697057 
L 333.168 9.697057 
L 333.168 9.697057 
" style="fill:none;stroke:#f5deb3;stroke-linecap:square;stroke-width:4;"/>
   </g>
   <g id="line2d_2">
    <defs>
     <path d="M -0 7.778175 
L 7.778175 0 
L 0 -7.778175 
L -7.778175 -0 
z
" id="m07fbcdb1c8" style="stroke:#f5deb3;stroke-linejoin:miter;stroke-width:1.5;"/>
    </defs>
    <g>
     <use style="fill:#f5deb3;stroke:#f5deb3;stroke-linejoin:miter;stroke-width:1.5;" x="72.979112" xlink:href="#m07fbcdb1c8" y="283.696355"/>
     <use style="fill:#f5deb3;stroke:#f5deb3;stroke-linejoin:miter;stroke-width:1.5;" x="124.685175" xlink:href="#m07fbcdb1c8" y="176.053774"/>
     <use style="fill:#f5deb3;stroke:#f5deb3;stroke-linejoin:miter;stroke-width:1.5;" x="134.929315" xlink:href="#m07fbcdb1c8" y="60.023459"/>
     <use style="fill:#f5deb3;stroke:#f5deb3;stroke-linejoin:miter;stroke-width:1.5;" x="147.587283" xlink:href="#m07fbcdb1c8" y="11.095013"/>
     <use style="fill:#f5deb3;stroke:#f5deb3;stroke-linejoin:miter;stroke-width:1.5;" x="147.587283" xlink:href="#m07fbcdb1c8" y="9.697057"/>
     <use style="fill:#f5deb3;stroke:#f5deb3;stroke-linejoin:miter;stroke-width:1.5;" x="333.168" xlink:href="#m07fbcdb1c8" y="9.697057"/>
    </g>
   </g>
   <g id="line2d_3">
    <path style="fill:none;stroke:#f5deb3;stroke-linecap:square;stroke-width:4;"/>
    <g/>
   </g>
   <g id="line2d_4">
    <path d="M 333.168 9.697057 
L 363.64328 15.400716 
" style="fill:none;stroke:#f5deb3;stroke-linecap:square;stroke-width:4;"/>
    <g>
     <use style="fill:#f5deb3;stroke:#f5deb3;stroke-linejoin:miter;stroke-width:1.5;" x="333.168" xlink:href="#m07fbcdb1c8" y="9.697057"/>
     <use style="fill:#f5deb3;stroke:#f5deb3;stroke-linejoin:miter;stroke-width:1.5;" x="363.64328" xlink:href="#m07fbcdb1c8" y="15.400716"/>
    </g>
   </g>
   <g id="matplotlib.axis_1">
    <g id="xtick_1">
     <g id="line2d_5">
      <path clip-path="url(#p04b84ea186)" d="M 56.12 294.88 
L 56.12 6.845228 
" style="fill:none;stroke:#b0b0b0;stroke-linecap:square;stroke-width:0.8;"/>
     </g>
     <g id="line2d_6">
      <defs>
       <path d="M 0 0 
L 0 3.5 
" id="mbac99e94e9" style="stroke:#000000;stroke-width:0.8;"/>
      </defs>
      <g>
       <use style="stroke:#000000;stroke-width:0.8;" x="56.12" xlink:href="#mbac99e94e9" y="294.88"/>
      </g>
     </g>
     <g id="text_1">
      <!-- 0 -->
      <defs>
       <path d="M 31.78125 66.40625 
Q 24.171875 66.40625 20.328125 58.90625 
Q 16.5 51.421875 16.5 36.375 
Q 16.5 21.390625 20.328125 13.890625 
Q 24.171875 6.390625 31.78125 6.390625 
Q 39.453125 6.390625 43.28125 13.890625 
Q 47.125 21.390625 47.125 36.375 
Q 47.125 51.421875 43.28125 58.90625 
Q 39.453125 66.40625 31.78125 66.40625 
z
M 31.78125 74.21875 
Q 44.046875 74.21875 50.515625 64.515625 
Q 56.984375 54.828125 56.984375 36.375 
Q 56.984375 17.96875 50.515625 8.265625 
Q 44.046875 -1.421875 31.78125 -1.421875 
Q 19.53125 -1.421875 13.0625 8.265625 
Q 6.59375 17.96875 6.59375 36.375 
Q 6.59375 54.828125 13.0625 64.515625 
Q 19.53125 74.21875 31.78125 74.21875 
z
" id="DejaVuSans-30"/>
      </defs>
      <g transform="translate(49.7575 317.076875)scale(0.2 -0.2)">
       <use xlink:href="#DejaVuSans-30"/>
      </g>
     </g>
    </g>
    <g id="xtick_2">
     <g id="line2d_7">
      <path clip-path="url(#p04b84ea186)" d="M 135.276571 294.88 
L 135.276571 6.845228 
" style="fill:none;stroke:#b0b0b0;stroke-linecap:square;stroke-width:0.8;"/>
     </g>
     <g id="line2d_8">
      <g>
       <use style="stroke:#000000;stroke-width:0.8;" x="135.276571" xlink:href="#mbac99e94e9" y="294.88"/>
      </g>
     </g>
     <g id="text_2">
      <!-- 2 -->
      <defs>
       <path d="M 19.1875 8.296875 
L 53.609375 8.296875 
L 53.609375 0 
L 7.328125 0 
L 7.328125 8.296875 
Q 12.9375 14.109375 22.625 23.890625 
Q 32.328125 33.6875 34.8125 36.53125 
Q 39.546875 41.84375 41.421875 45.53125 
Q 43.3125 49.21875 43.3125 52.78125 
Q 43.3125 58.59375 39.234375 62.25 
Q 35.15625 65.921875 28.609375 65.921875 
Q 23.96875 65.921875 18.8125 64.3125 
Q 13.671875 62.703125 7.8125 59.421875 
L 7.8125 69.390625 
Q 13.765625 71.78125 18.9375 73 
Q 24.125 74.21875 28.421875 74.21875 
Q 39.75 74.21875 46.484375 68.546875 
Q 53.21875 62.890625 53.21875 53.421875 
Q 53.21875 48.921875 51.53125 44.890625 
Q 49.859375 40.875 45.40625 35.40625 
Q 44.1875 33.984375 37.640625 27.21875 
Q 31.109375 20.453125 19.1875 8.296875 
z
" id="DejaVuSans-32"/>
      </defs>
      <g transform="translate(128.914071 317.076875)scale(0.2 -0.2)">
       <use xlink:href="#DejaVuSans-32"/>
      </g>
     </g>
    </g>
    <g id="xtick_3">
     <g id="line2d_9">
      <path clip-path="url(#p04b84ea186)" d="M 214.433143 294.88 
L 214.433143 6.845228 
" style="fill:none;stroke:#b0b0b0;stroke-linecap:square;stroke-width:0.8;"/>
     </g>
     <g id="line2d_10">
      <g>
       <use style="stroke:#000000;stroke-width:0.8;" x="214.433143" xlink:href="#mbac99e94e9" y="294.88"/>
      </g>
     </g>
     <g id="text_3">
      <!-- 4 -->
      <defs>
       <path d="M 37.796875 64.3125 
L 12.890625 25.390625 
L 37.796875 25.390625 
z
M 35.203125 72.90625 
L 47.609375 72.90625 
L 47.609375 25.390625 
L 58.015625 25.390625 
L 58.015625 17.1875 
L 47.609375 17.1875 
L 47.609375 0 
L 37.796875 0 
L 37.796875 17.1875 
L 4.890625 17.1875 
L 4.890625 26.703125 
z
" id="DejaVuSans-34"/>
      </defs>
      <g transform="translate(208.070643 317.076875)scale(0.2 -0.2)">
       <use xlink:href="#DejaVuSans-34"/>
      </g>
     </g>
    </g>
    <g id="xtick_4">
     <g id="line2d_11">
      <path clip-path="url(#p04b84ea186)" d="M 293.589714 294.88 
L 293.589714 6.845228 
" style="fill:none;stroke:#b0b0b0;stroke-linecap:square;stroke-width:0.8;"/>
     </g>
     <g id="line2d_12">
      <g>
       <use style="stroke:#000000;stroke-width:0.8;" x="293.589714" xlink:href="#mbac99e94e9" y="294.88"/>
      </g>
     </g>
     <g id="text_4">
      <!-- 6 -->
      <defs>
       <path d="M 33.015625 40.375 
Q 26.375 40.375 22.484375 35.828125 
Q 18.609375 31.296875 18.609375 23.390625 
Q 18.609375 15.53125 22.484375 10.953125 
Q 26.375 6.390625 33.015625 6.390625 
Q 39.65625 6.390625 43.53125 10.953125 
Q 47.40625 15.53125 47.40625 23.390625 
Q 47.40625 31.296875 43.53125 35.828125 
Q 39.65625 40.375 33.015625 40.375 
z
M 52.59375 71.296875 
L 52.59375 62.3125 
Q 48.875 64.0625 45.09375 64.984375 
Q 41.3125 65.921875 37.59375 65.921875 
Q 27.828125 65.921875 22.671875 59.328125 
Q 17.53125 52.734375 16.796875 39.40625 
Q 19.671875 43.65625 24.015625 45.921875 
Q 28.375 48.1875 33.59375 48.1875 
Q 44.578125 48.1875 50.953125 41.515625 
Q 57.328125 34.859375 57.328125 23.390625 
Q 57.328125 12.15625 50.6875 5.359375 
Q 44.046875 -1.421875 33.015625 -1.421875 
Q 20.359375 -1.421875 13.671875 8.265625 
Q 6.984375 17.96875 6.984375 36.375 
Q 6.984375 53.65625 15.1875 63.9375 
Q 23.390625 74.21875 37.203125 74.21875 
Q 40.921875 74.21875 44.703125 73.484375 
Q 48.484375 72.75 52.59375 71.296875 
z
" id="DejaVuSans-36"/>
      </defs>
      <g transform="translate(287.227214 317.076875)scale(0.2 -0.2)">
       <use xlink:href="#DejaVuSans-36"/>
      </g>
     </g>
    </g>
    <g id="xtick_5">
     <g id="line2d_13">
      <path clip-path="url(#p04b84ea186)" d="M 56.12 294.88 
L 56.12 6.845228 
" style="fill:none;stroke:#b0b0b0;stroke-linecap:square;stroke-width:0.8;"/>
     </g>
     <g id="line2d_14">
      <defs>
       <path d="M 0 0 
L 0 2 
" id="mace61456f8" style="stroke:#000000;stroke-width:0.6;"/>
      </defs>
      <g>
       <use style="stroke:#000000;stroke-width:0.6;" x="56.12" xlink:href="#mace61456f8" y="294.88"/>
      </g>
     </g>
    </g>
    <g id="xtick_6">
     <g id="line2d_15">
      <path clip-path="url(#p04b84ea186)" d="M 95.698286 294.88 
L 95.698286 6.845228 
" style="fill:none;stroke:#b0b0b0;stroke-linecap:square;stroke-width:0.8;"/>
     </g>
     <g id="line2d_16">
      <g>
       <use style="stroke:#000000;stroke-width:0.6;" x="95.698286" xlink:href="#mace61456f8" y="294.88"/>
      </g>
     </g>
    </g>
    <g id="xtick_7">
     <g id="line2d_17">
      <path clip-path="url(#p04b84ea186)" d="M 135.276571 294.88 
L 135.276571 6.845228 
" style="fill:none;stroke:#b0b0b0;stroke-linecap:square;stroke-width:0.8;"/>
     </g>
     <g id="line2d_18">
      <g>
       <use style="stroke:#000000;stroke-width:0.6;" x="135.276571" xlink:href="#mace61456f8" y="294.88"/>
      </g>
     </g>
    </g>
    <g id="xtick_8">
     <g id="line2d_19">
      <path clip-path="url(#p04b84ea186)" d="M 174.854857 294.88 
L 174.854857 6.845228 
" style="fill:none;stroke:#b0b0b0;stroke-linecap:square;stroke-width:0.8;"/>
     </g>
     <g id="line2d_20">
      <g>
       <use style="stroke:#000000;stroke-width:0.6;" x="174.854857" xlink:href="#mace61456f8" y="294.88"/>
      </g>
     </g>
    </g>
    <g id="xtick_9">
     <g id="line2d_21">
      <path clip-path="url(#p04b84ea186)" d="M 214.433143 294.88 
L 214.433143 6.845228 
" style="fill:none;stroke:#b0b0b0;stroke-linecap:square;stroke-width:0.8;"/>
     </g>
     <g id="line2d_22">
      <g>
       <use style="stroke:#000000;stroke-width:0.6;" x="214.433143" xlink:href="#mace61456f8" y="294.88"/>
      </g>
     </g>
    </g>
    <g id="xtick_10">
     <g id="line2d_23">
      <path clip-path="url(#p04b84ea186)" d="M 254.011429 294.88 
L 254.011429 6.845228 
" style="fill:none;stroke:#b0b0b0;stroke-linecap:square;stroke-width:0.8;"/>
     </g>
     <g id="line2d_24">
      <g>
       <use style="stroke:#000000;stroke-width:0.6;" x="254.011429" xlink:href="#mace61456f8" y="294.88"/>
      </g>
     </g>
    </g>
    <g id="xtick_11">
     <g id="line2d_25">
      <path clip-path="url(#p04b84ea186)" d="M 293.589714 294.88 
L 293.589714 6.845228 
" style="fill:none;stroke:#b0b0b0;stroke-linecap:square;stroke-width:0.8;"/>
     </g>
     <g id="line2d_26">
      <g>
       <use style="stroke:#000000;stroke-width:0.6;" x="293.589714" xlink:href="#mace61456f8" y="294.88"/>
      </g>
     </g>
    </g>
    <g id="xtick_12">
     <g id="line2d_27">
      <path clip-path="url(#p04b84ea186)" d="M 333.168 294.88 
L 333.168 6.845228 
" style="fill:none;stroke:#b0b0b0;stroke-linecap:square;stroke-width:0.8;"/>
     </g>
     <g id="line2d_28">
      <g>
       <use style="stroke:#000000;stroke-width:0.6;" x="333.168" xlink:href="#mace61456f8" y="294.88"/>
      </g>
     </g>
    </g>
    <g id="text_5">
     <!-- log10(# f-evals / dimension) -->
     <defs>
      <path d="M 9.421875 75.984375 
L 18.40625 75.984375 
L 18.40625 0 
L 9.421875 0 
z
" id="DejaVuSans-6c"/>
      <path d="M 30.609375 48.390625 
Q 23.390625 48.390625 19.1875 42.75 
Q 14.984375 37.109375 14.984375 27.296875 
Q 14.984375 17.484375 19.15625 11.84375 
Q 23.34375 6.203125 30.609375 6.203125 
Q 37.796875 6.203125 41.984375 11.859375 
Q 46.1875 17.53125 46.1875 27.296875 
Q 46.1875 37.015625 41.984375 42.703125 
Q 37.796875 48.390625 30.609375 48.390625 
z
M 30.609375 56 
Q 42.328125 56 49.015625 48.375 
Q 55.71875 40.765625 55.71875 27.296875 
Q 55.71875 13.875 49.015625 6.21875 
Q 42.328125 -1.421875 30.609375 -1.421875 
Q 18.84375 -1.421875 12.171875 6.21875 
Q 5.515625 13.875 5.515625 27.296875 
Q 5.515625 40.765625 12.171875 48.375 
Q 18.84375 56 30.609375 56 
z
" id="DejaVuSans-6f"/>
      <path d="M 45.40625 27.984375 
Q 45.40625 37.75 41.375 43.109375 
Q 37.359375 48.484375 30.078125 48.484375 
Q 22.859375 48.484375 18.828125 43.109375 
Q 14.796875 37.75 14.796875 27.984375 
Q 14.796875 18.265625 18.828125 12.890625 
Q 22.859375 7.515625 30.078125 7.515625 
Q 37.359375 7.515625 41.375 12.890625 
Q 45.40625 18.265625 45.40625 27.984375 
z
M 54.390625 6.78125 
Q 54.390625 -7.171875 48.1875 -13.984375 
Q 42 -20.796875 29.203125 -20.796875 
Q 24.46875 -20.796875 20.265625 -20.09375 
Q 16.0625 -19.390625 12.109375 -17.921875 
L 12.109375 -9.1875 
Q 16.0625 -11.328125 19.921875 -12.34375 
Q 23.78125 -13.375 27.78125 -13.375 
Q 36.625 -13.375 41.015625 -8.765625 
Q 45.40625 -4.15625 45.40625 5.171875 
L 45.40625 9.625 
Q 42.625 4.78125 38.28125 2.390625 
Q 33.9375 0 27.875 0 
Q 17.828125 0 11.671875 7.65625 
Q 5.515625 15.328125 5.515625 27.984375 
Q 5.515625 40.671875 11.671875 48.328125 
Q 17.828125 56 27.875 56 
Q 33.9375 56 38.28125 53.609375 
Q 42.625 51.21875 45.40625 46.390625 
L 45.40625 54.6875 
L 54.390625 54.6875 
z
" id="DejaVuSans-67"/>
      <path d="M 12.40625 8.296875 
L 28.515625 8.296875 
L 28.515625 63.921875 
L 10.984375 60.40625 
L 10.984375 69.390625 
L 28.421875 72.90625 
L 38.28125 72.90625 
L 38.28125 8.296875 
L 54.390625 8.296875 
L 54.390625 0 
L 12.40625 0 
z
" id="DejaVuSans-31"/>
      <path d="M 31 75.875 
Q 24.46875 64.65625 21.28125 53.65625 
Q 18.109375 42.671875 18.109375 31.390625 
Q 18.109375 20.125 21.3125 9.0625 
Q 24.515625 -2 31 -13.1875 
L 23.1875 -13.1875 
Q 15.875 -1.703125 12.234375 9.375 
Q 8.59375 20.453125 8.59375 31.390625 
Q 8.59375 42.28125 12.203125 53.3125 
Q 15.828125 64.359375 23.1875 75.875 
z
" id="DejaVuSans-28"/>
      <path d="M 51.125 44 
L 36.921875 44 
L 32.8125 27.6875 
L 47.125 27.6875 
z
M 43.796875 71.78125 
L 38.71875 51.515625 
L 52.984375 51.515625 
L 58.109375 71.78125 
L 65.921875 71.78125 
L 60.890625 51.515625 
L 76.125 51.515625 
L 76.125 44 
L 58.984375 44 
L 54.984375 27.6875 
L 70.515625 27.6875 
L 70.515625 20.21875 
L 53.078125 20.21875 
L 48 0 
L 40.1875 0 
L 45.21875 20.21875 
L 30.90625 20.21875 
L 25.875 0 
L 18.015625 0 
L 23.09375 20.21875 
L 7.71875 20.21875 
L 7.71875 27.6875 
L 24.90625 27.6875 
L 29 44 
L 13.28125 44 
L 13.28125 51.515625 
L 30.90625 51.515625 
L 35.890625 71.78125 
z
" id="DejaVuSans-23"/>
      <path id="DejaVuSans-20"/>
      <path d="M 37.109375 75.984375 
L 37.109375 68.5 
L 28.515625 68.5 
Q 23.6875 68.5 21.796875 66.546875 
Q 19.921875 64.59375 19.921875 59.515625 
L 19.921875 54.6875 
L 34.71875 54.6875 
L 34.71875 47.703125 
L 19.921875 47.703125 
L 19.921875 0 
L 10.890625 0 
L 10.890625 47.703125 
L 2.296875 47.703125 
L 2.296875 54.6875 
L 10.890625 54.6875 
L 10.890625 58.5 
Q 10.890625 67.625 15.140625 71.796875 
Q 19.390625 75.984375 28.609375 75.984375 
z
" id="DejaVuSans-66"/>
      <path d="M 4.890625 31.390625 
L 31.203125 31.390625 
L 31.203125 23.390625 
L 4.890625 23.390625 
z
" id="DejaVuSans-2d"/>
      <path d="M 56.203125 29.59375 
L 56.203125 25.203125 
L 14.890625 25.203125 
Q 15.484375 15.921875 20.484375 11.0625 
Q 25.484375 6.203125 34.421875 6.203125 
Q 39.59375 6.203125 44.453125 7.46875 
Q 49.3125 8.734375 54.109375 11.28125 
L 54.109375 2.78125 
Q 49.265625 0.734375 44.1875 -0.34375 
Q 39.109375 -1.421875 33.890625 -1.421875 
Q 20.796875 -1.421875 13.15625 6.1875 
Q 5.515625 13.8125 5.515625 26.8125 
Q 5.515625 40.234375 12.765625 48.109375 
Q 20.015625 56 32.328125 56 
Q 43.359375 56 49.78125 48.890625 
Q 56.203125 41.796875 56.203125 29.59375 
z
M 47.21875 32.234375 
Q 47.125 39.59375 43.09375 43.984375 
Q 39.0625 48.390625 32.421875 48.390625 
Q 24.90625 48.390625 20.390625 44.140625 
Q 15.875 39.890625 15.1875 32.171875 
z
" id="DejaVuSans-65"/>
      <path d="M 2.984375 54.6875 
L 12.5 54.6875 
L 29.59375 8.796875 
L 46.6875 54.6875 
L 56.203125 54.6875 
L 35.6875 0 
L 23.484375 0 
z
" id="DejaVuSans-76"/>
      <path d="M 34.28125 27.484375 
Q 23.390625 27.484375 19.1875 25 
Q 14.984375 22.515625 14.984375 16.5 
Q 14.984375 11.71875 18.140625 8.90625 
Q 21.296875 6.109375 26.703125 6.109375 
Q 34.1875 6.109375 38.703125 11.40625 
Q 43.21875 16.703125 43.21875 25.484375 
L 43.21875 27.484375 
z
M 52.203125 31.203125 
L 52.203125 0 
L 43.21875 0 
L 43.21875 8.296875 
Q 40.140625 3.328125 35.546875 0.953125 
Q 30.953125 -1.421875 24.3125 -1.421875 
Q 15.921875 -1.421875 10.953125 3.296875 
Q 6 8.015625 6 15.921875 
Q 6 25.140625 12.171875 29.828125 
Q 18.359375 34.515625 30.609375 34.515625 
L 43.21875 34.515625 
L 43.21875 35.40625 
Q 43.21875 41.609375 39.140625 45 
Q 35.0625 48.390625 27.6875 48.390625 
Q 23 48.390625 18.546875 47.265625 
Q 14.109375 46.140625 10.015625 43.890625 
L 10.015625 52.203125 
Q 14.9375 54.109375 19.578125 55.046875 
Q 24.21875 56 28.609375 56 
Q 40.484375 56 46.34375 49.84375 
Q 52.203125 43.703125 52.203125 31.203125 
z
" id="DejaVuSans-61"/>
      <path d="M 44.28125 53.078125 
L 44.28125 44.578125 
Q 40.484375 46.53125 36.375 47.5 
Q 32.28125 48.484375 27.875 48.484375 
Q 21.1875 48.484375 17.84375 46.4375 
Q 14.5 44.390625 14.5 40.28125 
Q 14.5 37.15625 16.890625 35.375 
Q 19.28125 33.59375 26.515625 31.984375 
L 29.59375 31.296875 
Q 39.15625 29.25 43.1875 25.515625 
Q 47.21875 21.78125 47.21875 15.09375 
Q 47.21875 7.46875 41.1875 3.015625 
Q 35.15625 -1.421875 24.609375 -1.421875 
Q 20.21875 -1.421875 15.453125 -0.5625 
Q 10.6875 0.296875 5.421875 2 
L 5.421875 11.28125 
Q 10.40625 8.6875 15.234375 7.390625 
Q 20.0625 6.109375 24.8125 6.109375 
Q 31.15625 6.109375 34.5625 8.28125 
Q 37.984375 10.453125 37.984375 14.40625 
Q 37.984375 18.0625 35.515625 20.015625 
Q 33.0625 21.96875 24.703125 23.78125 
L 21.578125 24.515625 
Q 13.234375 26.265625 9.515625 29.90625 
Q 5.8125 33.546875 5.8125 39.890625 
Q 5.8125 47.609375 11.28125 51.796875 
Q 16.75 56 26.8125 56 
Q 31.78125 56 36.171875 55.265625 
Q 40.578125 54.546875 44.28125 53.078125 
z
" id="DejaVuSans-73"/>
      <path d="M 25.390625 72.90625 
L 33.6875 72.90625 
L 8.296875 -9.28125 
L 0 -9.28125 
z
" id="DejaVuSans-2f"/>
      <path d="M 45.40625 46.390625 
L 45.40625 75.984375 
L 54.390625 75.984375 
L 54.390625 0 
L 45.40625 0 
L 45.40625 8.203125 
Q 42.578125 3.328125 38.25 0.953125 
Q 33.9375 -1.421875 27.875 -1.421875 
Q 17.96875 -1.421875 11.734375 6.484375 
Q 5.515625 14.40625 5.515625 27.296875 
Q 5.515625 40.1875 11.734375 48.09375 
Q 17.96875 56 27.875 56 
Q 33.9375 56 38.25 53.625 
Q 42.578125 51.265625 45.40625 46.390625 
z
M 14.796875 27.296875 
Q 14.796875 17.390625 18.875 11.75 
Q 22.953125 6.109375 30.078125 6.109375 
Q 37.203125 6.109375 41.296875 11.75 
Q 45.40625 17.390625 45.40625 27.296875 
Q 45.40625 37.203125 41.296875 42.84375 
Q 37.203125 48.484375 30.078125 48.484375 
Q 22.953125 48.484375 18.875 42.84375 
Q 14.796875 37.203125 14.796875 27.296875 
z
" id="DejaVuSans-64"/>
      <path d="M 9.421875 54.6875 
L 18.40625 54.6875 
L 18.40625 0 
L 9.421875 0 
z
M 9.421875 75.984375 
L 18.40625 75.984375 
L 18.40625 64.59375 
L 9.421875 64.59375 
z
" id="DejaVuSans-69"/>
      <path d="M 52 44.1875 
Q 55.375 50.25 60.0625 53.125 
Q 64.75 56 71.09375 56 
Q 79.640625 56 84.28125 50.015625 
Q 88.921875 44.046875 88.921875 33.015625 
L 88.921875 0 
L 79.890625 0 
L 79.890625 32.71875 
Q 79.890625 40.578125 77.09375 44.375 
Q 74.3125 48.1875 68.609375 48.1875 
Q 61.625 48.1875 57.5625 43.546875 
Q 53.515625 38.921875 53.515625 30.90625 
L 53.515625 0 
L 44.484375 0 
L 44.484375 32.71875 
Q 44.484375 40.625 41.703125 44.40625 
Q 38.921875 48.1875 33.109375 48.1875 
Q 26.21875 48.1875 22.15625 43.53125 
Q 18.109375 38.875 18.109375 30.90625 
L 18.109375 0 
L 9.078125 0 
L 9.078125 54.6875 
L 18.109375 54.6875 
L 18.109375 46.1875 
Q 21.1875 51.21875 25.484375 53.609375 
Q 29.78125 56 35.6875 56 
Q 41.65625 56 45.828125 52.96875 
Q 50 49.953125 52 44.1875 
z
" id="DejaVuSans-6d"/>
      <path d="M 54.890625 33.015625 
L 54.890625 0 
L 45.90625 0 
L 45.90625 32.71875 
Q 45.90625 40.484375 42.875 44.328125 
Q 39.84375 48.1875 33.796875 48.1875 
Q 26.515625 48.1875 22.3125 43.546875 
Q 18.109375 38.921875 18.109375 30.90625 
L 18.109375 0 
L 9.078125 0 
L 9.078125 54.6875 
L 18.109375 54.6875 
L 18.109375 46.1875 
Q 21.34375 51.125 25.703125 53.5625 
Q 30.078125 56 35.796875 56 
Q 45.21875 56 50.046875 50.171875 
Q 54.890625 44.34375 54.890625 33.015625 
z
" id="DejaVuSans-6e"/>
      <path d="M 8.015625 75.875 
L 15.828125 75.875 
Q 23.140625 64.359375 26.78125 53.3125 
Q 30.421875 42.28125 30.421875 31.390625 
Q 30.421875 20.453125 26.78125 9.375 
Q 23.140625 -1.703125 15.828125 -13.1875 
L 8.015625 -13.1875 
Q 14.5 -2 17.703125 9.0625 
Q 20.90625 20.125 20.90625 31.390625 
Q 20.90625 42.671875 17.703125 53.65625 
Q 14.5 64.65625 8.015625 75.875 
z
" id="DejaVuSans-29"/>
     </defs>
     <g transform="translate(73.803219 338.153594)scale(0.17 -0.17)">
      <use xlink:href="#DejaVuSans-6c"/>
      <use x="27.783203" xlink:href="#DejaVuSans-6f"/>
      <use x="88.964844" xlink:href="#DejaVuSans-67"/>
      <use x="152.441406" xlink:href="#DejaVuSans-31"/>
      <use x="216.064453" xlink:href="#DejaVuSans-30"/>
      <use x="279.6875" xlink:href="#DejaVuSans-28"/>
      <use x="318.701172" xlink:href="#DejaVuSans-23"/>
      <use x="402.490234" xlink:href="#DejaVuSans-20"/>
      <use x="434.277344" xlink:href="#DejaVuSans-66"/>
      <use x="469.404297" xlink:href="#DejaVuSans-2d"/>
      <use x="505.488281" xlink:href="#DejaVuSans-65"/>
      <use x="567.011719" xlink:href="#DejaVuSans-76"/>
      <use x="626.191406" xlink:href="#DejaVuSans-61"/>
      <use x="687.470703" xlink:href="#DejaVuSans-6c"/>
      <use x="715.253906" xlink:href="#DejaVuSans-73"/>
      <use x="767.353516" xlink:href="#DejaVuSans-20"/>
      <use x="799.140625" xlink:href="#DejaVuSans-2f"/>
      <use x="832.832031" xlink:href="#DejaVuSans-20"/>
      <use x="864.619141" xlink:href="#DejaVuSans-64"/>
      <use x="928.095703" xlink:href="#DejaVuSans-69"/>
      <use x="955.878906" xlink:href="#DejaVuSans-6d"/>
      <use x="1053.291016" xlink:href="#DejaVuSans-65"/>
      <use x="1114.814453" xlink:href="#DejaVuSans-6e"/>
      <use x="1178.193359" xlink:href="#DejaVuSans-73"/>
      <use x="1230.292969" xlink:href="#DejaVuSans-69"/>
      <use x="1258.076172" xlink:href="#DejaVuSans-6f"/>
      <use x="1319.257812" xlink:href="#DejaVuSans-6e"/>
      <use x="1382.636719" xlink:href="#DejaVuSans-29"/>
     </g>
    </g>
   </g>
   <g id="matplotlib.axis_2">
    <g id="ytick_1">
     <g id="line2d_29">
      <path clip-path="url(#p04b84ea186)" d="M 56.12 294.88 
L 333.168 294.88 
" style="fill:none;stroke:#b0b0b0;stroke-linecap:square;stroke-width:0.8;"/>
     </g>
     <g id="line2d_30">
      <defs>
       <path d="M 0 0 
L -3.5 0 
" id="m67890f8842" style="stroke:#000000;stroke-width:0.8;"/>
      </defs>
      <g>
       <use style="stroke:#000000;stroke-width:0.8;" x="56.12" xlink:href="#m67890f8842" y="294.88"/>
      </g>
     </g>
     <g id="text_6">
      <!-- 0.0 -->
      <defs>
       <path d="M 10.6875 12.40625 
L 21 12.40625 
L 21 0 
L 10.6875 0 
z
" id="DejaVuSans-2e"/>
      </defs>
      <g transform="translate(23.675 300.95875)scale(0.16 -0.16)">
       <use xlink:href="#DejaVuSans-30"/>
       <use x="63.623047" xlink:href="#DejaVuSans-2e"/>
       <use x="95.410156" xlink:href="#DejaVuSans-30"/>
      </g>
     </g>
    </g>
    <g id="ytick_2">
     <g id="line2d_31">
      <path clip-path="url(#p04b84ea186)" d="M 56.12 237.843411 
L 333.168 237.843411 
" style="fill:none;stroke:#b0b0b0;stroke-linecap:square;stroke-width:0.8;"/>
     </g>
     <g id="line2d_32">
      <g>
       <use style="stroke:#000000;stroke-width:0.8;" x="56.12" xlink:href="#m67890f8842" y="237.843411"/>
      </g>
     </g>
     <g id="text_7">
      <!-- 0.2 -->
      <g transform="translate(23.675 243.922161)scale(0.16 -0.16)">
       <use xlink:href="#DejaVuSans-30"/>
       <use x="63.623047" xlink:href="#DejaVuSans-2e"/>
       <use x="95.410156" xlink:href="#DejaVuSans-32"/>
      </g>
     </g>
    </g>
    <g id="ytick_3">
     <g id="line2d_33">
      <path clip-path="url(#p04b84ea186)" d="M 56.12 180.806823 
L 333.168 180.806823 
" style="fill:none;stroke:#b0b0b0;stroke-linecap:square;stroke-width:0.8;"/>
     </g>
     <g id="line2d_34">
      <g>
       <use style="stroke:#000000;stroke-width:0.8;" x="56.12" xlink:href="#m67890f8842" y="180.806823"/>
      </g>
     </g>
     <g id="text_8">
      <!-- 0.4 -->
      <g transform="translate(23.675 186.885573)scale(0.16 -0.16)">
       <use xlink:href="#DejaVuSans-30"/>
       <use x="63.623047" xlink:href="#DejaVuSans-2e"/>
       <use x="95.410156" xlink:href="#DejaVuSans-34"/>
      </g>
     </g>
    </g>
    <g id="ytick_4">
     <g id="line2d_35">
      <path clip-path="url(#p04b84ea186)" d="M 56.12 123.770234 
L 333.168 123.770234 
" style="fill:none;stroke:#b0b0b0;stroke-linecap:square;stroke-width:0.8;"/>
     </g>
     <g id="line2d_36">
      <g>
       <use style="stroke:#000000;stroke-width:0.8;" x="56.12" xlink:href="#m67890f8842" y="123.770234"/>
      </g>
     </g>
     <g id="text_9">
      <!-- 0.6 -->
      <g transform="translate(23.675 129.848984)scale(0.16 -0.16)">
       <use xlink:href="#DejaVuSans-30"/>
       <use x="63.623047" xlink:href="#DejaVuSans-2e"/>
       <use x="95.410156" xlink:href="#DejaVuSans-36"/>
      </g>
     </g>
    </g>
    <g id="ytick_5">
     <g id="line2d_37">
      <path clip-path="url(#p04b84ea186)" d="M 56.12 66.733646 
L 333.168 66.733646 
" style="fill:none;stroke:#b0b0b0;stroke-linecap:square;stroke-width:0.8;"/>
     </g>
     <g id="line2d_38">
      <g>
       <use style="stroke:#000000;stroke-width:0.8;" x="56.12" xlink:href="#m67890f8842" y="66.733646"/>
      </g>
     </g>
     <g id="text_10">
      <!-- 0.8 -->
      <defs>
       <path d="M 31.78125 34.625 
Q 24.75 34.625 20.71875 30.859375 
Q 16.703125 27.09375 16.703125 20.515625 
Q 16.703125 13.921875 20.71875 10.15625 
Q 24.75 6.390625 31.78125 6.390625 
Q 38.8125 6.390625 42.859375 10.171875 
Q 46.921875 13.96875 46.921875 20.515625 
Q 46.921875 27.09375 42.890625 30.859375 
Q 38.875 34.625 31.78125 34.625 
z
M 21.921875 38.8125 
Q 15.578125 40.375 12.03125 44.71875 
Q 8.5 49.078125 8.5 55.328125 
Q 8.5 64.0625 14.71875 69.140625 
Q 20.953125 74.21875 31.78125 74.21875 
Q 42.671875 74.21875 48.875 69.140625 
Q 55.078125 64.0625 55.078125 55.328125 
Q 55.078125 49.078125 51.53125 44.71875 
Q 48 40.375 41.703125 38.8125 
Q 48.828125 37.15625 52.796875 32.3125 
Q 56.78125 27.484375 56.78125 20.515625 
Q 56.78125 9.90625 50.3125 4.234375 
Q 43.84375 -1.421875 31.78125 -1.421875 
Q 19.734375 -1.421875 13.25 4.234375 
Q 6.78125 9.90625 6.78125 20.515625 
Q 6.78125 27.484375 10.78125 32.3125 
Q 14.796875 37.15625 21.921875 38.8125 
z
M 18.3125 54.390625 
Q 18.3125 48.734375 21.84375 45.5625 
Q 25.390625 42.390625 31.78125 42.390625 
Q 38.140625 42.390625 41.71875 45.5625 
Q 45.3125 48.734375 45.3125 54.390625 
Q 45.3125 60.0625 41.71875 63.234375 
Q 38.140625 66.40625 31.78125 66.40625 
Q 25.390625 66.40625 21.84375 63.234375 
Q 18.3125 60.0625 18.3125 54.390625 
z
" id="DejaVuSans-38"/>
      </defs>
      <g transform="translate(23.675 72.812396)scale(0.16 -0.16)">
       <use xlink:href="#DejaVuSans-30"/>
       <use x="63.623047" xlink:href="#DejaVuSans-2e"/>
       <use x="95.410156" xlink:href="#DejaVuSans-38"/>
      </g>
     </g>
    </g>
    <g id="ytick_6">
     <g id="line2d_39">
      <path clip-path="url(#p04b84ea186)" d="M 56.12 9.697057 
L 333.168 9.697057 
" style="fill:none;stroke:#b0b0b0;stroke-linecap:square;stroke-width:0.8;"/>
     </g>
     <g id="line2d_40">
      <g>
       <use style="stroke:#000000;stroke-width:0.8;" x="56.12" xlink:href="#m67890f8842" y="9.697057"/>
      </g>
     </g>
     <g id="text_11">
      <!-- 1.0 -->
      <g transform="translate(23.675 15.775807)scale(0.16 -0.16)">
       <use xlink:href="#DejaVuSans-31"/>
       <use x="63.623047" xlink:href="#DejaVuSans-2e"/>
       <use x="95.410156" xlink:href="#DejaVuSans-30"/>
      </g>
     </g>
    </g>
    <g id="text_12">
     <!-- Fraction of function,target pairs -->
     <defs>
      <path d="M 9.8125 72.90625 
L 51.703125 72.90625 
L 51.703125 64.59375 
L 19.671875 64.59375 
L 19.671875 43.109375 
L 48.578125 43.109375 
L 48.578125 34.8125 
L 19.671875 34.8125 
L 19.671875 0 
L 9.8125 0 
z
" id="DejaVuSans-46"/>
      <path d="M 41.109375 46.296875 
Q 39.59375 47.171875 37.8125 47.578125 
Q 36.03125 48 33.890625 48 
Q 26.265625 48 22.1875 43.046875 
Q 18.109375 38.09375 18.109375 28.8125 
L 18.109375 0 
L 9.078125 0 
L 9.078125 54.6875 
L 18.109375 54.6875 
L 18.109375 46.1875 
Q 20.953125 51.171875 25.484375 53.578125 
Q 30.03125 56 36.53125 56 
Q 37.453125 56 38.578125 55.875 
Q 39.703125 55.765625 41.0625 55.515625 
z
" id="DejaVuSans-72"/>
      <path d="M 48.78125 52.59375 
L 48.78125 44.1875 
Q 44.96875 46.296875 41.140625 47.34375 
Q 37.3125 48.390625 33.40625 48.390625 
Q 24.65625 48.390625 19.8125 42.84375 
Q 14.984375 37.3125 14.984375 27.296875 
Q 14.984375 17.28125 19.8125 11.734375 
Q 24.65625 6.203125 33.40625 6.203125 
Q 37.3125 6.203125 41.140625 7.25 
Q 44.96875 8.296875 48.78125 10.40625 
L 48.78125 2.09375 
Q 45.015625 0.34375 40.984375 -0.53125 
Q 36.96875 -1.421875 32.421875 -1.421875 
Q 20.0625 -1.421875 12.78125 6.34375 
Q 5.515625 14.109375 5.515625 27.296875 
Q 5.515625 40.671875 12.859375 48.328125 
Q 20.21875 56 33.015625 56 
Q 37.15625 56 41.109375 55.140625 
Q 45.0625 54.296875 48.78125 52.59375 
z
" id="DejaVuSans-63"/>
      <path d="M 18.3125 70.21875 
L 18.3125 54.6875 
L 36.8125 54.6875 
L 36.8125 47.703125 
L 18.3125 47.703125 
L 18.3125 18.015625 
Q 18.3125 11.328125 20.140625 9.421875 
Q 21.96875 7.515625 27.59375 7.515625 
L 36.8125 7.515625 
L 36.8125 0 
L 27.59375 0 
Q 17.1875 0 13.234375 3.875 
Q 9.28125 7.765625 9.28125 18.015625 
L 9.28125 47.703125 
L 2.6875 47.703125 
L 2.6875 54.6875 
L 9.28125 54.6875 
L 9.28125 70.21875 
z
" id="DejaVuSans-74"/>
      <path d="M 8.5 21.578125 
L 8.5 54.6875 
L 17.484375 54.6875 
L 17.484375 21.921875 
Q 17.484375 14.15625 20.5 10.265625 
Q 23.53125 6.390625 29.59375 6.390625 
Q 36.859375 6.390625 41.078125 11.03125 
Q 45.3125 15.671875 45.3125 23.6875 
L 45.3125 54.6875 
L 54.296875 54.6875 
L 54.296875 0 
L 45.3125 0 
L 45.3125 8.40625 
Q 42.046875 3.421875 37.71875 1 
Q 33.40625 -1.421875 27.6875 -1.421875 
Q 18.265625 -1.421875 13.375 4.4375 
Q 8.5 10.296875 8.5 21.578125 
z
M 31.109375 56 
z
" id="DejaVuSans-75"/>
      <path d="M 11.71875 12.40625 
L 22.015625 12.40625 
L 22.015625 4 
L 14.015625 -11.625 
L 7.71875 -11.625 
L 11.71875 4 
z
" id="DejaVuSans-2c"/>
      <path d="M 18.109375 8.203125 
L 18.109375 -20.796875 
L 9.078125 -20.796875 
L 9.078125 54.6875 
L 18.109375 54.6875 
L 18.109375 46.390625 
Q 20.953125 51.265625 25.265625 53.625 
Q 29.59375 56 35.59375 56 
Q 45.5625 56 51.78125 48.09375 
Q 58.015625 40.1875 58.015625 27.296875 
Q 58.015625 14.40625 51.78125 6.484375 
Q 45.5625 -1.421875 35.59375 -1.421875 
Q 29.59375 -1.421875 25.265625 0.953125 
Q 20.953125 3.328125 18.109375 8.203125 
z
M 48.6875 27.296875 
Q 48.6875 37.203125 44.609375 42.84375 
Q 40.53125 48.484375 33.40625 48.484375 
Q 26.265625 48.484375 22.1875 42.84375 
Q 18.109375 37.203125 18.109375 27.296875 
Q 18.109375 17.390625 22.1875 11.75 
Q 26.265625 6.109375 33.40625 6.109375 
Q 40.53125 6.109375 44.609375 11.75 
Q 48.6875 17.390625 48.6875 27.296875 
z
" id="DejaVuSans-70"/>
     </defs>
     <g transform="translate(16.139531 286.001989)rotate(-90)scale(0.17 -0.17)">
      <use xlink:href="#DejaVuSans-46"/>
      <use x="57.410156" xlink:href="#DejaVuSans-72"/>
      <use x="98.523438" xlink:href="#DejaVuSans-61"/>
      <use x="159.802734" xlink:href="#DejaVuSans-63"/>
      <use x="214.783203" xlink:href="#DejaVuSans-74"/>
      <use x="253.992188" xlink:href="#DejaVuSans-69"/>
      <use x="281.775391" xlink:href="#DejaVuSans-6f"/>
      <use x="342.957031" xlink:href="#DejaVuSans-6e"/>
      <use x="406.335938" xlink:href="#DejaVuSans-20"/>
      <use x="438.123047" xlink:href="#DejaVuSans-6f"/>
      <use x="499.304688" xlink:href="#DejaVuSans-66"/>
      <use x="534.509766" xlink:href="#DejaVuSans-20"/>
      <use x="566.296875" xlink:href="#DejaVuSans-66"/>
      <use x="601.501953" xlink:href="#DejaVuSans-75"/>
      <use x="664.880859" xlink:href="#DejaVuSans-6e"/>
      <use x="728.259766" xlink:href="#DejaVuSans-63"/>
      <use x="783.240234" xlink:href="#DejaVuSans-74"/>
      <use x="822.449219" xlink:href="#DejaVuSans-69"/>
      <use x="850.232422" xlink:href="#DejaVuSans-6f"/>
      <use x="911.414062" xlink:href="#DejaVuSans-6e"/>
      <use x="974.792969" xlink:href="#DejaVuSans-2c"/>
      <use x="1006.580078" xlink:href="#DejaVuSans-74"/>
      <use x="1045.789062" xlink:href="#DejaVuSans-61"/>
      <use x="1107.068359" xlink:href="#DejaVuSans-72"/>
      <use x="1148.166016" xlink:href="#DejaVuSans-67"/>
      <use x="1211.642578" xlink:href="#DejaVuSans-65"/>
      <use x="1273.166016" xlink:href="#DejaVuSans-74"/>
      <use x="1312.375" xlink:href="#DejaVuSans-20"/>
      <use x="1344.162109" xlink:href="#DejaVuSans-70"/>
      <use x="1407.638672" xlink:href="#DejaVuSans-61"/>
      <use x="1468.917969" xlink:href="#DejaVuSans-69"/>
      <use x="1496.701172" xlink:href="#DejaVuSans-72"/>
      <use x="1537.814453" xlink:href="#DejaVuSans-73"/>
     </g>
    </g>
   </g>
   <g id="line2d_41">
    <defs>
     <path d="M 0 1.5 
C 0.397805 1.5 0.77937 1.341951 1.06066 1.06066 
C 1.341951 0.77937 1.5 0.397805 1.5 0 
C 1.5 -0.397805 1.341951 -0.77937 1.06066 -1.06066 
C 0.77937 -1.341951 0.397805 -1.5 0 -1.5 
C -0.397805 -1.5 -0.77937 -1.341951 -1.06066 -1.06066 
C -1.341951 -0.77937 -1.5 -0.397805 -1.5 0 
C -1.5 0.397805 -1.341951 0.77937 -1.06066 1.06066 
C -0.77937 1.341951 -0.397805 1.5 0 1.5 
z
" id="m56bc982db2" style="stroke:#f5deb3;"/>
    </defs>
    <g>
     <use style="fill:#f5deb3;stroke:#f5deb3;" x="147.587283" xlink:href="#m56bc982db2" y="9.697057"/>
     <use style="fill:#f5deb3;stroke:#f5deb3;" x="147.587283" xlink:href="#m56bc982db2" y="9.697057"/>
    </g>
   </g>
   <g id="line2d_42">
    <defs>
     <path d="M 0 1.5 
C 0.397805 1.5 0.77937 1.341951 1.06066 1.06066 
C 1.341951 0.77937 1.5 0.397805 1.5 0 
C 1.5 -0.397805 1.341951 -0.77937 1.06066 -1.06066 
C 0.77937 -1.341951 0.397805 -1.5 0 -1.5 
C -0.397805 -1.5 -0.77937 -1.341951 -1.06066 -1.06066 
C -1.341951 -0.77937 -1.5 -0.397805 -1.5 0 
C -1.5 0.397805 -1.341951 0.77937 -1.06066 1.06066 
C -0.77937 1.341951 -0.397805 1.5 0 1.5 
z
" id="m1af498d0d1" style="stroke:#000080;"/>
    </defs>
    <g>
     <use style="fill:#000080;stroke:#000080;" x="203.633591" xlink:href="#m1af498d0d1" y="65.615281"/>
     <use style="fill:#000080;stroke:#000080;" x="203.633591" xlink:href="#m1af498d0d1" y="65.615281"/>
    </g>
   </g>
   <g id="line2d_43">
    <path d="M 37.236359 294.88 
L 37.236359 293.482044 
L 64.900393 293.482044 
L 64.900393 290.965724 
L 75.003641 290.965724 
L 75.003641 288.169813 
L 81.324327 288.169813 
L 81.324327 284.255537 
L 85.935418 284.255537 
L 85.935418 281.879013 
L 89.567532 281.879013 
L 89.567532 279.083102 
L 92.564428 279.083102 
L 92.564428 273.491279 
L 95.115564 273.491279 
L 95.115564 270.974959 
L 97.336537 270.974959 
L 97.336537 269.297412 
L 99.303095 269.297412 
L 99.303095 267.060684 
L 101.067579 267.060684 
L 101.067579 263.985181 
L 102.667676 263.985181 
L 102.667676 261.608657 
L 104.131422 261.608657 
L 104.131422 259.371928 
L 105.480242 259.371928 
L 105.480242 258.113768 
L 106.730875 258.113768 
L 106.730875 256.296425 
L 107.896653 256.296425 
L 107.896653 255.038265 
L 108.988361 255.038265 
L 108.988361 254.199492 
L 110.014853 254.199492 
L 110.014853 253.64031 
L 110.983483 253.64031 
L 110.983483 253.360719 
L 111.900428 253.360719 
L 111.900428 252.941332 
L 112.770924 252.941332 
L 112.770924 252.661741 
L 113.599452 252.661741 
L 113.599452 252.102559 
L 114.389873 252.102559 
L 114.389873 250.844399 
L 115.145539 250.844399 
L 115.145539 249.586238 
L 115.869378 249.586238 
L 115.869378 248.048487 
L 116.563963 248.048487 
L 116.563963 246.650532 
L 117.231566 246.650532 
L 117.231566 245.112781 
L 117.874207 245.112781 
L 117.874207 243.155643 
L 118.493684 243.155643 
L 118.493684 240.499527 
L 119.09161 240.499527 
L 119.09161 238.402594 
L 119.669433 238.402594 
L 119.669433 235.0475 
L 120.228462 235.0475 
L 120.228462 231.133225 
L 120.769881 231.133225 
L 120.769881 228.616904 
L 121.294766 228.616904 
L 121.294766 226.659767 
L 121.804096 226.659767 
L 121.804096 222.885286 
L 122.298767 222.885286 
L 122.298767 218.69142 
L 122.779599 218.69142 
L 122.779599 215.056735 
L 123.247346 215.056735 
L 123.247346 212.121028 
L 123.7027 212.121028 
L 123.7027 206.948593 
L 124.146303 206.948593 
L 124.146303 202.894521 
L 124.578744 202.894521 
L 124.578744 198.84045 
L 125.000572 198.84045 
L 125.000572 193.528219 
L 125.412295 193.528219 
L 125.412295 186.818032 
L 125.814387 186.818032 
L 125.814387 184.441507 
L 126.207287 184.441507 
L 126.207287 180.107845 
L 126.591406 180.107845 
L 126.591406 176.892547 
L 126.967129 176.892547 
L 126.967129 174.795614 
L 127.334814 174.795614 
L 127.334814 172.69868 
L 127.694799 172.69868 
L 127.694799 169.343587 
L 128.047399 169.343587 
L 128.047399 165.429311 
L 128.39291 165.429311 
L 128.39291 161.095649 
L 128.731613 161.095649 
L 128.731613 157.460964 
L 129.063771 157.460964 
L 129.063771 152.987506 
L 129.389632 152.987506 
L 129.389632 149.772208 
L 129.70943 149.772208 
L 129.70943 147.395684 
L 130.023386 147.395684 
L 130.023386 144.739568 
L 130.33171 144.739568 
L 130.33171 142.922226 
L 130.634602 142.922226 
L 130.634602 141.384475 
L 130.932248 141.384475 
L 130.932248 140.26611 
L 131.224827 140.26611 
L 131.224827 138.588564 
L 131.51251 138.588564 
L 131.51251 137.74979 
L 131.795457 137.74979 
L 131.795457 136.49163 
L 132.073821 136.49163 
L 132.073821 133.97531 
L 132.347749 133.97531 
L 132.347749 132.297763 
L 132.61738 132.297763 
L 132.61738 129.641648 
L 132.882847 129.641648 
L 132.882847 128.243692 
L 133.144276 128.243692 
L 133.144276 124.609008 
L 133.401789 124.609008 
L 133.401789 122.232483 
L 133.6555 122.232483 
L 133.6555 120.13555 
L 133.905521 120.13555 
L 133.905521 117.339639 
L 134.151957 117.339639 
L 134.151957 113.005976 
L 134.39491 113.005976 
L 134.39491 110.349861 
L 134.634477 110.349861 
L 134.634477 107.414154 
L 134.87075 107.414154 
L 134.87075 105.037629 
L 135.10382 105.037629 
L 135.10382 104.05906 
L 135.333772 104.05906 
L 135.333772 102.661105 
L 135.784647 102.661105 
L 135.784647 102.101922 
L 136.005725 102.101922 
L 136.005725 101.263149 
L 136.223997 101.263149 
L 136.223997 100.983558 
L 136.439531 100.983558 
L 136.439531 100.28458 
L 136.652396 100.28458 
L 136.652396 100.144785 
L 136.862657 100.144785 
L 136.862657 99.725398 
L 137.070377 99.725398 
L 137.070377 99.445807 
L 137.275617 99.445807 
L 137.275617 99.166216 
L 137.478435 99.166216 
L 137.478435 97.628465 
L 137.678888 97.628465 
L 137.678888 97.488669 
L 137.87703 97.488669 
L 137.87703 96.5101 
L 138.072914 96.5101 
L 138.072914 95.531531 
L 138.266591 95.531531 
L 138.266591 94.832553 
L 138.458109 94.832553 
L 138.458109 94.273371 
L 138.647518 94.273371 
L 138.647518 93.714189 
L 138.834862 93.714189 
L 138.834862 93.574393 
L 139.020186 93.574393 
L 139.020186 92.73562 
L 139.203533 92.73562 
L 139.203533 92.036642 
L 139.384945 92.036642 
L 139.384945 90.918278 
L 139.564462 90.918278 
L 139.564462 90.778482 
L 139.742124 90.778482 
L 139.742124 90.359095 
L 139.917968 90.359095 
L 139.917968 89.939709 
L 140.26435 89.939709 
L 140.26435 89.240731 
L 140.434959 89.240731 
L 140.434959 88.262162 
L 140.60389 88.262162 
L 140.60389 86.864206 
L 140.771177 86.864206 
L 140.771177 86.44482 
L 140.936852 86.44482 
L 140.936852 85.606046 
L 141.100945 85.606046 
L 141.100945 84.907069 
L 141.263487 84.907069 
L 141.263487 84.068295 
L 141.424506 84.068295 
L 141.424506 83.229522 
L 141.58403 83.229522 
L 141.58403 83.089726 
L 141.742087 83.089726 
L 141.742087 82.949931 
L 141.898705 82.949931 
L 141.898705 82.250953 
L 142.053908 82.250953 
L 142.053908 81.551975 
L 142.207722 81.551975 
L 142.207722 81.41218 
L 142.360172 81.41218 
L 142.360172 80.992793 
L 142.511282 80.992793 
L 142.511282 80.713202 
L 142.661075 80.713202 
L 142.661075 80.573406 
L 142.809574 80.573406 
L 142.809574 80.433611 
L 142.956801 80.433611 
L 142.956801 80.293815 
L 143.102777 80.293815 
L 143.102777 79.734633 
L 143.247524 79.734633 
L 143.247524 79.594837 
L 143.391063 79.594837 
L 143.391063 79.315246 
L 143.814623 79.315246 
L 143.814623 79.035655 
L 144.895601 79.035655 
L 144.895601 78.895859 
L 145.284061 78.895859 
L 145.284061 78.756064 
L 145.663936 78.756064 
L 145.663936 78.616268 
L 145.9126 78.616268 
L 145.9126 78.476473 
L 147.104664 78.476473 
L 147.104664 78.336677 
L 147.559266 78.336677 
L 147.559266 78.057086 
L 147.671062 78.057086 
L 147.671062 77.777495 
L 148.111115 77.777495 
L 148.111115 77.358108 
L 150.252912 77.358108 
L 150.252912 77.078517 
L 150.632262 77.078517 
L 150.632262 76.938722 
L 151.094972 76.938722 
L 151.186038 76.519335 
L 152.664606 76.519335 
L 152.664606 76.379539 
L 154.179301 76.379539 
L 154.179301 76.239744 
L 154.331245 76.239744 
L 154.331245 76.099948 
L 154.556673 76.099948 
L 154.556673 75.960153 
L 154.852717 75.960153 
L 154.925938 75.540766 
L 155.287437 75.540766 
L 155.358833 75.121379 
L 155.429934 75.121379 
L 155.429934 74.422402 
L 155.57126 74.422402 
L 155.57126 74.003015 
L 155.711433 74.003015 
L 155.711433 73.863219 
L 156.529282 73.863219 
L 156.529282 73.583628 
L 157.562525 73.583628 
L 157.562525 73.443833 
L 157.934521 73.443833 
L 157.934521 73.304037 
L 158.056752 73.304037 
L 158.056752 73.164241 
L 158.178119 73.164241 
L 158.178119 72.88465 
L 158.298636 72.88465 
L 158.298636 72.744855 
L 158.596282 72.744855 
L 158.596282 72.605059 
L 159.233507 72.605059 
L 159.233507 72.465264 
L 159.459491 72.465264 
L 159.459491 72.325468 
L 160.120144 72.325468 
L 160.120144 72.185673 
L 160.281415 72.185673 
L 160.281415 71.906081 
L 160.441186 71.906081 
L 160.441186 71.766286 
L 161.962175 71.766286 
L 161.962175 71.62649 
L 163.448681 71.62649 
L 163.493125 70.927513 
L 164.713752 70.927513 
L 164.713752 70.787717 
L 164.837338 70.787717 
L 164.837338 70.647921 
L 165.303018 70.647921 
L 165.382734 69.948944 
L 165.422454 69.948944 
L 165.422454 69.529557 
L 166.573266 69.529557 
L 166.573266 69.389761 
L 167.156915 69.389761 
L 167.156915 69.249966 
L 170.354912 69.249966 
L 170.384663 68.970375 
L 170.628164 68.970375 
L 170.628164 68.830579 
L 170.911559 68.830579 
L 170.969118 68.411192 
L 171.026485 68.411192 
L 171.055097 68.131601 
L 171.892032 68.131601 
L 171.892032 67.991806 
L 173.821753 67.991806 
L 173.821753 67.85201 
L 175.0429 67.85201 
L 175.0429 67.712215 
L 175.991022 67.712215 
L 176.09795 67.153032 
L 176.309831 67.153032 
L 176.309831 66.733646 
L 179.066682 66.733646 
L 179.066682 66.454055 
L 182.951472 66.454055 
L 182.951472 66.314259 
L 198.108046 66.314259 
L 198.108046 66.174463 
L 199.799401 66.174463 
L 199.799401 65.894872 
L 201.339136 65.894872 
L 201.339136 65.755077 
L 203.633591 65.755077 
L 203.633591 65.615281 
L 333.168 65.615281 
L 333.168 65.615281 
" style="fill:none;stroke:#000080;stroke-linecap:square;stroke-width:1.5;"/>
   </g>
   <g id="line2d_44">
    <defs>
     <path d="M 0 6 
C 1.591219 6 3.117479 5.367802 4.242641 4.242641 
C 5.367802 3.117479 6 1.591219 6 0 
C 6 -1.591219 5.367802 -3.117479 4.242641 -4.242641 
C 3.117479 -5.367802 1.591219 -6 0 -6 
C -1.591219 -6 -3.117479 -5.367802 -4.242641 -4.242641 
C -5.367802 -3.117479 -6 -1.591219 -6 0 
C -6 1.591219 -5.367802 3.117479 -4.242641 4.242641 
C -3.117479 5.367802 -1.591219 6 0 6 
z
" id="mb02e39a834" style="stroke:#000080;stroke-width:1.5;"/>
    </defs>
    <g>
     <use style="fill:none;stroke:#000080;stroke-width:1.5;" x="121.294766" xlink:href="#mb02e39a834" y="228.616904"/>
     <use style="fill:none;stroke:#000080;stroke-width:1.5;" x="136.862657" xlink:href="#mb02e39a834" y="100.144785"/>
     <use style="fill:none;stroke:#000080;stroke-width:1.5;" x="203.633591" xlink:href="#mb02e39a834" y="65.755077"/>
     <use style="fill:none;stroke:#000080;stroke-width:1.5;" x="203.633591" xlink:href="#mb02e39a834" y="65.615281"/>
     <use style="fill:none;stroke:#000080;stroke-width:1.5;" x="203.633591" xlink:href="#mb02e39a834" y="65.615281"/>
     <use style="fill:none;stroke:#000080;stroke-width:1.5;" x="333.168" xlink:href="#mb02e39a834" y="65.615281"/>
    </g>
   </g>
   <g id="line2d_45">
    <path style="fill:none;stroke:#000080;stroke-linecap:square;stroke-width:1.5;"/>
    <g/>
   </g>
   <g id="line2d_46">
    <path clip-path="url(#p04b84ea186)" d="M 140.221432 89.939709 
" style="fill:none;stroke:#000080;stroke-linecap:square;stroke-width:1.5;"/>
    <defs>
     <path d="M -12 12 
L 12 -12 
M -12 -12 
L 12 12 
" id="m005bb11b5d" style="stroke:#000080;"/>
    </defs>
    <g clip-path="url(#p04b84ea186)">
     <use style="fill:#000080;stroke:#000080;" x="140.221432" xlink:href="#m005bb11b5d" y="89.939709"/>
    </g>
   </g>
   <g id="line2d_47">
    <defs>
     <path d="M 0 1.5 
C 0.397805 1.5 0.77937 1.341951 1.06066 1.06066 
C 1.341951 0.77937 1.5 0.397805 1.5 0 
C 1.5 -0.397805 1.341951 -0.77937 1.06066 -1.06066 
C 0.77937 -1.341951 0.397805 -1.5 0 -1.5 
C -0.397805 -1.5 -0.77937 -1.341951 -1.06066 -1.06066 
C -1.341951 -0.77937 -1.5 -0.397805 -1.5 0 
C -1.5 0.397805 -1.341951 0.77937 -1.06066 1.06066 
C -0.77937 1.341951 -0.397805 1.5 0 1.5 
z
" id="mf531f2f695" style="stroke:#ff00ff;"/>
    </defs>
    <g>
     <use style="fill:#ff00ff;stroke:#ff00ff;" x="198.579917" xlink:href="#mf531f2f695" y="72.605059"/>
     <use style="fill:#ff00ff;stroke:#ff00ff;" x="198.579917" xlink:href="#mf531f2f695" y="72.605059"/>
    </g>
   </g>
   <g id="line2d_48">
    <path d="M 37.236359 294.88 
L 37.236359 285.933084 
L 83.784035 285.933084 
L 83.784035 283.836151 
L 90.367147 283.836151 
L 90.367147 283.696355 
L 93.238578 283.696355 
L 93.238578 283.55656 
L 93.887283 283.55656 
L 93.887283 282.997377 
L 94.512393 282.997377 
L 94.512393 282.577991 
L 95.115564 282.577991 
L 95.115564 280.760648 
L 96.261898 280.760648 
L 96.261898 279.782079 
L 96.807615 279.782079 
L 96.807615 279.222897 
L 97.336537 279.222897 
L 97.336537 278.523919 
L 97.849669 278.523919 
L 97.849669 277.265759 
L 98.347925 277.265759 
L 98.347925 276.426986 
L 98.832144 276.426986 
L 98.832144 276.007599 
L 100.643147 276.007599 
L 100.643147 275.02903 
L 101.067579 275.02903 
L 101.067579 274.749439 
L 101.88624 274.749439 
L 101.88624 273.77087 
L 102.281398 273.77087 
L 102.281398 273.631075 
L 102.667676 273.631075 
L 102.667676 273.211688 
L 103.045463 273.211688 
L 103.045463 272.652506 
L 103.415125 272.652506 
L 103.415125 272.233119 
L 103.777005 272.233119 
L 103.777005 271.673937 
L 104.131422 271.673937 
L 104.131422 271.114755 
L 104.478679 271.114755 
L 104.478679 270.974959 
L 105.480242 270.974959 
L 105.480242 270.835164 
L 105.801534 270.835164 
L 105.801534 270.695368 
L 106.11693 270.695368 
L 106.11693 270.555573 
L 106.730875 270.555573 
L 106.730875 269.716799 
L 107.029816 269.716799 
L 107.029816 269.577004 
L 107.896653 269.577004 
L 107.896653 269.297412 
L 108.721866 269.297412 
L 108.721866 269.017821 
L 109.509269 269.017821 
L 109.509269 268.878026 
L 109.76392 268.878026 
L 109.76392 268.73823 
L 110.014853 268.73823 
L 110.014853 268.598435 
L 110.262176 268.598435 
L 110.262176 268.179048 
L 110.505991 268.179048 
L 110.505991 266.641297 
L 110.746395 266.641297 
L 110.746395 266.501501 
L 110.983483 266.501501 
L 110.983483 266.082115 
L 111.217346 266.082115 
L 111.217346 265.802523 
L 111.675736 265.802523 
L 111.675736 265.662728 
L 112.122219 265.662728 
L 112.122219 265.383137 
L 112.341186 265.383137 
L 112.341186 265.243341 
L 112.557398 265.243341 
L 112.557398 265.103546 
L 112.770924 265.103546 
L 112.770924 264.823955 
L 112.98183 264.823955 
L 112.98183 264.264772 
L 113.396034 264.264772 
L 113.396034 264.124977 
L 113.599452 264.124977 
L 113.599452 263.70559 
L 114.195649 263.70559 
L 114.195649 263.425999 
L 114.389873 263.425999 
L 114.389873 263.146408 
L 114.581927 263.146408 
L 114.581927 262.727021 
L 114.771859 262.727021 
L 114.771859 262.307634 
L 114.959714 262.307634 
L 114.959714 262.028043 
L 115.145539 262.028043 
L 115.145539 261.888248 
L 115.329377 261.888248 
L 115.329377 261.608657 
L 115.511269 261.608657 
L 115.511269 261.18927 
L 115.691256 261.18927 
L 115.691256 260.909679 
L 115.869378 260.909679 
L 115.869378 260.630088 
L 116.045673 260.630088 
L 116.045673 260.350497 
L 116.220179 260.350497 
L 116.220179 259.651519 
L 116.39293 259.651519 
L 116.39293 258.952541 
L 116.563963 258.952541 
L 116.563963 258.533154 
L 116.73331 258.533154 
L 116.73331 258.253563 
L 117.06708 258.253563 
L 117.06708 257.973972 
L 117.394493 257.973972 
L 117.394493 257.694381 
L 117.55589 257.694381 
L 117.55589 257.41479 
L 117.715785 257.41479 
L 117.715785 257.274994 
L 117.874207 257.274994 
L 117.874207 257.135199 
L 118.031182 257.135199 
L 118.031182 256.436221 
L 118.186736 256.436221 
L 118.186736 256.296425 
L 118.340895 256.296425 
L 118.340895 255.737243 
L 118.493684 255.737243 
L 118.493684 255.038265 
L 118.645127 255.038265 
L 118.645127 253.919901 
L 118.795247 253.919901 
L 118.795247 253.780105 
L 119.09161 253.780105 
L 119.09161 253.360719 
L 119.237897 253.360719 
L 119.237897 252.941332 
L 119.382949 252.941332 
L 119.382949 252.801536 
L 119.526788 252.801536 
L 119.526788 252.242354 
L 119.669433 252.242354 
L 119.669433 252.102559 
L 119.810904 252.102559 
L 119.810904 251.683172 
L 119.95122 251.683172 
L 119.95122 251.263785 
L 120.0904 251.263785 
L 120.0904 251.12399 
L 120.228462 251.12399 
L 120.228462 250.984194 
L 120.365424 250.984194 
L 120.365424 250.844399 
L 120.501303 250.844399 
L 120.501303 250.145421 
L 120.636117 250.145421 
L 120.636117 250.005625 
L 120.902613 250.005625 
L 120.902613 249.726034 
L 121.034327 249.726034 
L 121.034327 249.446443 
L 121.16504 249.446443 
L 121.16504 249.166852 
L 121.294766 249.166852 
L 121.294766 249.027056 
L 121.42352 249.027056 
L 121.42352 248.60767 
L 121.551317 248.60767 
L 121.551317 248.188283 
L 121.678171 248.188283 
L 121.678171 247.069918 
L 121.804096 247.069918 
L 121.804096 246.650532 
L 122.053211 246.650532 
L 122.053211 245.811758 
L 122.298767 245.811758 
L 122.298767 245.112781 
L 122.540864 245.112781 
L 122.540864 244.833189 
L 122.660646 244.833189 
L 122.660646 244.134212 
L 122.779599 244.134212 
L 122.779599 243.854621 
L 122.897734 243.854621 
L 122.897734 243.575029 
L 123.015063 243.575029 
L 123.015063 243.295438 
L 123.247346 243.295438 
L 123.247346 242.876052 
L 123.476531 242.876052 
L 123.476531 242.456665 
L 123.589988 242.456665 
L 123.589988 242.177074 
L 123.7027 242.177074 
L 123.7027 241.617892 
L 123.814679 241.617892 
L 123.814679 241.3383 
L 123.925932 241.3383 
L 124.036471 240.639323 
L 124.363883 240.639323 
L 124.363883 240.499527 
L 124.578744 240.499527 
L 124.685175 239.940345 
L 125.104431 239.940345 
L 125.104431 239.520958 
L 125.310285 239.520958 
L 125.412295 239.101571 
L 125.614517 239.101571 
L 125.714742 238.682185 
L 125.814387 238.682185 
L 125.913457 238.262798 
L 126.011959 238.262798 
L 126.109901 237.424025 
L 126.207287 237.424025 
L 126.304124 236.725047 
L 126.40042 236.725047 
L 126.496178 236.026069 
L 126.68611 236.026069 
L 126.780294 235.746478 
L 126.873966 235.746478 
L 126.873966 235.327091 
L 127.05979 235.327091 
L 127.151955 234.767909 
L 127.243628 234.767909 
L 127.334814 234.068931 
L 127.42552 234.068931 
L 127.515749 233.369954 
L 127.605507 233.369954 
L 127.694799 232.950567 
L 127.783629 232.950567 
L 127.783629 232.53118 
L 127.959924 232.53118 
L 128.047399 231.552611 
L 128.13443 231.552611 
L 128.13443 230.713838 
L 128.307181 230.713838 
L 128.307181 230.154656 
L 128.478214 230.154656 
L 128.563096 229.595473 
L 128.647561 229.595473 
L 128.731613 229.036291 
L 128.815257 229.036291 
L 128.898495 228.197518 
L 128.981332 228.197518 
L 129.063771 227.218949 
L 129.145817 227.218949 
L 129.227474 226.659767 
L 129.308744 226.659767 
L 129.389632 226.100584 
L 129.470141 226.100584 
L 129.470141 225.681198 
L 129.630036 225.681198 
L 129.70943 224.143447 
L 129.788458 224.143447 
L 129.867125 223.164878 
L 129.945433 223.164878 
L 129.945433 222.605695 
L 130.100987 222.605695 
L 130.178239 221.766922 
L 130.255146 221.766922 
L 130.33171 220.229171 
L 130.407935 220.229171 
L 130.483823 218.272033 
L 130.559378 218.272033 
L 130.634602 217.573055 
L 130.709498 217.573055 
L 130.784069 216.1751 
L 130.858318 216.1751 
L 130.932248 215.336326 
L 131.005861 215.336326 
L 131.07916 214.217962 
L 131.152148 214.217962 
L 131.224827 213.239393 
L 131.2972 213.239393 
L 131.36927 211.701642 
L 131.441039 211.701642 
L 131.51251 210.303686 
L 131.583684 210.303686 
L 131.654565 209.325117 
L 131.725155 209.325117 
L 131.795457 208.626139 
L 131.865471 208.626139 
L 131.935202 207.367979 
L 132.004651 207.367979 
L 132.073821 206.109819 
L 132.142713 206.109819 
L 132.211331 203.733295 
L 132.279675 203.733295 
L 132.347749 201.915952 
L 132.415555 201.915952 
L 132.483094 200.937384 
L 132.550368 200.937384 
L 132.61738 199.679223 
L 132.684132 199.679223 
L 132.750626 198.141472 
L 132.816864 198.141472 
L 132.882847 196.184334 
L 132.948578 196.184334 
L 133.014059 194.087401 
L 133.079291 194.087401 
L 133.144276 193.248628 
L 133.209017 193.248628 
L 133.273515 191.710877 
L 133.337771 191.710877 
L 133.401789 190.452717 
L 133.465568 190.452717 
L 133.529112 188.215988 
L 133.592422 188.215988 
L 133.6555 187.796601 
L 133.718347 187.796601 
L 133.780965 186.538441 
L 133.843356 186.538441 
L 133.905521 184.161916 
L 134.029181 184.161916 
L 134.029181 183.043552 
L 134.151957 183.043552 
L 134.213018 181.785392 
L 134.273863 181.785392 
L 134.334493 180.667027 
L 134.39491 180.667027 
L 134.455115 179.688458 
L 134.515111 179.688458 
L 134.574897 178.570094 
L 134.634477 178.570094 
L 134.69385 177.451729 
L 134.753019 177.451729 
L 134.811986 177.032343 
L 134.87075 177.032343 
L 134.929315 175.774183 
L 134.98768 175.774183 
L 135.045848 174.376227 
L 135.10382 174.376227 
L 135.161597 173.257863 
L 135.21918 173.257863 
L 135.276571 171.720111 
L 135.333772 171.720111 
L 135.333772 171.300725 
L 135.447604 171.300725 
L 135.504239 169.762974 
L 135.560688 169.762974 
L 135.616951 168.9242 
L 135.673032 168.9242 
L 135.72893 168.365018 
L 135.784647 168.365018 
L 135.895542 166.827267 
L 135.950722 166.827267 
L 136.005725 165.708902 
L 136.115208 165.708902 
L 136.223997 164.730333 
L 136.278134 164.730333 
L 136.3859 162.912991 
L 136.439531 162.912991 
L 136.546293 162.493604 
L 136.652396 162.493604 
L 136.757848 161.654831 
L 136.810332 161.654831 
L 136.862657 161.235444 
L 136.966831 161.235444 
L 137.070377 160.676262 
L 137.121917 160.676262 
L 137.224536 159.977284 
L 137.275617 159.977284 
L 137.377325 158.579329 
L 137.427955 158.579329 
L 137.528768 157.880351 
L 137.578954 157.880351 
L 137.628993 157.460964 
L 137.728638 157.460964 
L 137.778244 157.041578 
L 137.87703 157.041578 
L 137.975251 156.202804 
L 138.170025 156.202804 
L 138.266591 155.643622 
L 138.362617 155.643622 
L 138.362617 155.364031 
L 138.505658 155.364031 
L 138.553074 154.665053 
L 138.647518 154.665053 
L 138.647518 154.525258 
L 138.788217 154.525258 
L 138.834862 154.245666 
L 138.974042 154.245666 
L 139.020186 153.82628 
L 139.112104 153.82628 
L 139.203533 153.267097 
L 139.384945 153.267097 
L 139.474938 152.707915 
L 139.60905 152.707915 
L 139.60905 152.148733 
L 139.830271 152.148733 
L 139.830271 152.008937 
L 139.96165 152.008937 
L 139.96165 151.869142 
L 140.092032 151.869142 
L 140.092032 151.449755 
L 140.26435 151.449755 
L 140.307161 151.030369 
L 140.392465 151.030369 
L 140.392465 150.890573 
L 140.561812 150.890573 
L 140.645865 150.610982 
L 140.687737 150.610982 
L 140.771177 149.912004 
L 140.812746 149.912004 
L 140.812746 149.632413 
L 140.978022 149.632413 
L 141.060069 149.073231 
L 141.100945 149.073231 
L 141.100945 148.933435 
L 141.222995 148.933435 
L 141.222995 148.653844 
L 141.424506 148.653844 
L 141.504453 148.094662 
L 141.702709 148.094662 
L 141.781376 147.675275 
L 141.898705 147.675275 
L 141.937637 147.116093 
L 142.092491 147.116093 
L 142.092491 146.976297 
L 142.207722 146.976297 
L 142.284116 146.556911 
L 142.322186 146.556911 
L 142.398074 146.137524 
L 142.435893 146.137524 
L 142.473629 145.718137 
L 142.548853 145.718137 
L 142.586342 145.019159 
L 142.661075 145.019159 
L 142.735485 144.040591 
L 142.772569 144.040591 
L 142.883345 143.201817 
L 142.956801 143.201817 
L 143.029944 142.78243 
L 143.102777 142.78243 
L 143.211452 141.803862 
L 143.247524 141.803862 
L 143.35529 140.965088 
L 143.391063 140.965088 
L 143.497935 140.26611 
L 143.533413 140.26611 
L 143.568817 139.706928 
L 143.709708 139.706928 
L 143.744751 139.147746 
L 143.849453 139.147746 
L 143.953522 138.169177 
L 143.988072 138.169177 
L 144.091308 137.330404 
L 144.125582 137.330404 
L 144.193927 136.771221 
L 144.262 136.771221 
L 144.363608 136.072244 
L 144.431015 136.072244 
L 144.498158 135.792652 
L 144.56504 135.792652 
L 144.631663 135.373266 
L 144.698028 135.373266 
L 144.797098 134.814084 
L 144.829995 134.814084 
L 144.92831 133.835515 
L 145.026065 133.835515 
L 145.123268 133.416128 
L 145.155547 133.416128 
L 145.187766 132.996741 
L 145.347959 132.996741 
L 145.443364 132.018172 
L 145.506674 132.018172 
L 145.601203 131.598786 
L 145.695216 131.598786 
L 145.757607 130.899808 
L 145.819772 130.899808 
L 145.9126 130.20083 
L 145.974208 130.20083 
L 146.066208 129.781443 
L 146.157718 129.781443 
L 146.188114 129.501852 
L 146.309161 129.501852 
L 146.369367 128.802874 
L 146.429362 128.802874 
L 146.518964 128.383488 
L 146.57844 128.383488 
L 146.667271 127.404919 
L 146.696779 127.404919 
L 146.755644 126.985532 
L 146.843566 126.985532 
L 146.93104 126.146759 
L 146.960099 126.146759 
L 146.98911 125.867168 
L 147.075848 125.867168 
L 147.162151 124.888599 
L 147.333468 124.888599 
L 147.41849 124.189621 
L 147.446737 124.189621 
L 147.531203 123.490643 
L 147.643181 123.490643 
L 147.698898 122.791665 
L 147.754435 122.791665 
L 147.782136 122.372279 
L 147.892497 122.372279 
L 147.974805 122.092688 
L 148.056721 122.092688 
L 148.138248 121.39371 
L 148.192385 121.39371 
L 148.273273 120.974323 
L 148.353782 120.974323 
L 148.460544 120.694732 
L 148.487131 120.694732 
L 148.593071 120.275345 
L 148.698361 120.275345 
L 148.776908 119.855959 
L 148.9588 119.855959 
L 149.061881 119.296776 
L 149.087555 119.296776 
L 149.164347 118.458003 
L 149.215352 118.458003 
L 149.291576 117.898821 
L 149.367465 117.898821 
L 149.417871 117.61923 
L 149.56821 117.61923 
L 149.66771 117.199843 
L 149.840462 117.199843 
L 149.938403 116.640661 
L 149.962801 116.640661 
L 149.962801 116.500865 
L 150.108469 116.500865 
L 150.204899 116.081478 
L 150.300791 116.081478 
L 150.372361 115.662092 
L 150.490985 115.662092 
L 150.561769 115.10291 
L 150.679098 115.10291 
L 150.772388 114.683523 
L 150.818844 114.683523 
L 150.865174 114.124341 
L 150.934437 114.124341 
L 151.026355 113.565158 
L 151.07213 113.565158 
L 151.117784 113.285567 
L 151.276624 113.285567 
L 151.366735 112.726385 
L 151.411614 112.726385 
L 151.478713 112.306998 
L 151.612132 112.306998 
L 151.722528 111.887612 
L 151.766488 111.887612 
L 151.788427 111.468225 
L 151.8977 111.468225 
L 152.006283 110.210065 
L 152.027918 110.210065 
L 152.114184 109.650883 
L 152.157156 109.650883 
L 152.221413 109.231496 
L 152.28543 109.231496 
L 152.34921 108.951905 
L 152.497115 108.951905 
L 152.581065 107.973336 
L 152.622886 107.973336 
L 152.726997 107.553949 
L 152.768465 107.553949 
L 152.809834 107.134563 
L 152.933346 107.134563 
L 153.015196 106.715176 
L 153.096659 106.715176 
L 153.137246 106.435585 
L 153.218134 106.435585 
L 153.318712 106.016198 
L 153.338757 106.016198 
L 153.398752 105.596811 
L 153.478421 105.596811 
L 153.577492 105.037629 
L 153.597237 105.037629 
L 153.636661 104.478447 
L 153.734826 104.478447 
L 153.812956 103.779469 
L 153.851888 103.779469 
L 153.929489 103.220287 
L 153.987461 103.220287 
L 154.026001 102.940696 
L 154.217413 102.940696 
L 154.293385 102.521309 
L 154.444329 102.521309 
L 154.519307 102.241718 
L 154.668288 102.241718 
L 154.742297 101.962127 
L 154.925938 101.962127 
L 154.925938 101.822331 
L 155.071451 101.822331 
L 155.179784 101.402945 
L 155.358833 101.402945 
L 155.465375 100.983558 
L 155.500742 100.983558 
L 155.588844 100.564171 
L 155.623959 100.564171 
L 155.676497 100.144785 
L 155.781093 100.144785 
L 155.781093 100.004989 
L 155.936804 100.004989 
L 155.988396 99.445807 
L 156.056945 99.445807 
L 156.056945 99.306011 
L 156.244057 99.306011 
L 156.260967 99.02642 
L 156.495971 99.02642 
L 156.495971 98.886625 
L 156.694877 98.886625 
L 156.77708 98.327442 
L 156.809852 98.327442 
L 156.891508 97.628465 
L 156.940317 97.628465 
L 156.972779 97.069282 
L 157.053666 97.069282 
L 157.150232 96.5101 
L 157.420925 96.5101 
L 157.484002 96.230509 
L 157.593834 96.230509 
L 157.702969 95.950918 
L 157.826851 95.950918 
L 157.903827 95.671327 
L 157.96516 95.671327 
L 157.96516 95.531531 
L 158.102365 95.531531 
L 158.102365 95.391736 
L 158.238483 95.391736 
L 158.343613 94.692758 
L 158.373532 94.692758 
L 158.448103 93.99378 
L 158.492691 93.99378 
L 158.581522 93.574393 
L 158.61103 93.574393 
L 158.699253 93.294802 
L 158.87435 93.294802 
L 158.888862 93.015211 
L 158.990099 93.015211 
L 158.990099 92.875415 
L 159.276106 92.875415 
L 159.375095 92.595824 
L 159.38919 92.595824 
L 159.445454 92.036642 
L 159.501534 92.036642 
L 159.599237 91.757051 
L 159.613149 91.757051 
L 159.710221 91.47746 
L 159.737856 91.47746 
L 159.847951 90.918278 
L 160.052499 90.918278 
L 160.106637 90.638687 
L 160.174069 90.638687 
L 160.281415 89.939709 
L 160.294786 89.939709 
L 160.374795 89.660118 
L 160.612613 89.660118 
L 160.651931 89.380526 
L 160.730299 89.380526 
L 160.756342 89.100935 
L 160.911779 89.100935 
L 161.001806 88.681549 
L 161.053039 88.681549 
L 161.129603 88.401958 
L 161.243814 88.401958 
L 161.256457 88.122366 
L 161.469983 88.122366 
L 161.532283 87.70298 
L 161.643858 87.70298 
L 161.643858 87.563184 
L 161.815992 87.563184 
L 161.815992 87.423389 
L 161.962175 87.423389 
L 162.071002 87.004002 
L 162.11915 87.004002 
L 162.179145 86.724411 
L 162.322285 86.724411 
L 162.322285 86.584615 
L 162.581652 86.584615 
L 162.581652 86.44482 
L 162.883215 86.44482 
L 162.963509 86.025433 
L 163.009223 86.025433 
L 163.009223 85.885637 
L 163.12298 85.885637 
L 163.168273 85.606046 
L 163.280986 85.606046 
L 163.359447 85.326455 
L 163.493125 85.326455 
L 163.493125 85.18666 
L 163.614756 85.18666 
L 163.724588 84.767273 
L 163.779242 84.767273 
L 163.844598 84.487682 
L 163.942169 84.487682 
L 163.942169 84.347886 
L 164.252847 84.347886 
L 164.337573 83.9285 
L 164.411366 83.9285 
L 164.484845 83.369317 
L 164.620476 83.369317 
L 164.620476 83.229522 
L 165.051498 83.229522 
L 165.152548 82.949931 
L 165.232963 82.949931 
L 165.342922 82.530544 
L 165.57059 82.530544 
L 165.658863 82.111157 
L 165.727207 82.111157 
L 165.727207 81.971362 
L 165.9691 81.971362 
L 165.9691 81.831566 
L 166.619584 81.831566 
L 166.68422 81.551975 
L 166.940362 81.551975 
L 167.048979 80.992793 
L 167.156915 80.992793 
L 167.192743 80.713202 
L 167.406159 80.713202 
L 167.485511 80.293815 
L 167.712715 80.293815 
L 167.773376 80.014224 
L 167.928385 80.014224 
L 167.928385 79.874428 
L 168.107479 79.874428 
L 168.175218 79.594837 
L 168.259517 79.594837 
L 168.368492 79.315246 
L 168.617367 79.315246 
L 168.69953 79.035655 
L 169.072506 79.035655 
L 169.168487 78.756064 
L 169.208322 78.756064 
L 169.208322 78.616268 
L 169.327275 78.616268 
L 169.374626 78.336677 
L 169.648274 78.336677 
L 169.748816 78.057086 
L 169.925268 78.057086 
L 169.925268 77.917291 
L 170.107481 77.917291 
L 170.20538 77.497904 
L 170.362355 77.497904 
L 170.362355 77.358108 
L 170.817612 77.358108 
L 170.817612 77.218313 
L 171.004995 77.218313 
L 171.004995 77.078517 
L 171.401782 77.078517 
L 171.401782 76.938722 
L 171.652107 76.938722 
L 171.652107 76.798926 
L 172.000606 76.798926 
L 172.000606 76.65913 
L 172.34218 76.65913 
L 172.441364 76.379539 
L 172.832476 76.379539 
L 172.832476 76.239744 
L 173.145412 76.239744 
L 173.221189 75.960153 
L 173.427868 75.960153 
L 173.50861 75.680562 
L 173.625939 75.680562 
L 173.625939 75.540766 
L 175.32395 75.540766 
L 175.362932 75.261175 
L 175.446171 75.261175 
L 175.446171 75.121379 
L 175.578519 75.121379 
L 175.578519 74.981584 
L 175.904998 74.981584 
L 175.904998 74.841788 
L 176.09262 74.841788 
L 176.09262 74.701993 
L 176.519132 74.701993 
L 176.519132 74.562197 
L 177.465163 74.562197 
L 177.465163 74.422402 
L 177.868933 74.422402 
L 177.868933 74.282606 
L 178.06494 74.282606 
L 178.06494 74.14281 
L 178.589252 74.14281 
L 178.589252 74.003015 
L 179.975005 74.003015 
L 179.975005 73.863219 
L 181.881447 73.863219 
L 181.881447 73.723424 
L 183.958771 73.723424 
L 183.958771 73.583628 
L 185.422861 73.583628 
L 185.422861 73.443833 
L 187.123526 73.443833 
L 187.123526 73.304037 
L 187.673101 73.304037 
L 187.673101 73.164241 
L 187.894544 73.164241 
L 187.894544 73.024446 
L 188.36564 73.024446 
L 188.36564 72.88465 
L 191.373288 72.88465 
L 191.373288 72.744855 
L 198.579917 72.744855 
L 198.579917 72.605059 
L 333.168 72.605059 
L 333.168 72.605059 
" style="fill:none;stroke:#ff00ff;stroke-linecap:square;stroke-width:1.5;"/>
   </g>
   <g id="line2d_49">
    <defs>
     <path d="M -0 8.485281 
L 5.091169 0 
L 0 -8.485281 
L -5.091169 -0 
z
" id="mb3b054c7d2" style="stroke:#ff00ff;stroke-linejoin:miter;stroke-width:1.5;"/>
    </defs>
    <g>
     <use style="fill:none;stroke:#ff00ff;stroke-linejoin:miter;stroke-width:1.5;" x="94.512393" xlink:href="#mb3b054c7d2" y="282.997377"/>
     <use style="fill:none;stroke:#ff00ff;stroke-linejoin:miter;stroke-width:1.5;" x="132.279675" xlink:href="#mb3b054c7d2" y="203.174112"/>
     <use style="fill:none;stroke:#ff00ff;stroke-linejoin:miter;stroke-width:1.5;" x="162.322285" xlink:href="#mb3b054c7d2" y="86.724411"/>
     <use style="fill:none;stroke:#ff00ff;stroke-linejoin:miter;stroke-width:1.5;" x="198.579917" xlink:href="#mb3b054c7d2" y="72.744855"/>
     <use style="fill:none;stroke:#ff00ff;stroke-linejoin:miter;stroke-width:1.5;" x="198.579917" xlink:href="#mb3b054c7d2" y="72.605059"/>
     <use style="fill:none;stroke:#ff00ff;stroke-linejoin:miter;stroke-width:1.5;" x="333.168" xlink:href="#mb3b054c7d2" y="72.605059"/>
    </g>
   </g>
   <g id="line2d_50">
    <path style="fill:none;stroke:#ff00ff;stroke-linecap:square;stroke-width:1.5;"/>
    <g/>
   </g>
   <g id="line2d_51">
    <path clip-path="url(#p04b84ea186)" d="M 125.412295 239.101571 
" style="fill:none;stroke:#ff00ff;stroke-linecap:square;stroke-width:1.5;"/>
    <defs>
     <path d="M -12 12 
L 12 -12 
M -12 -12 
L 12 12 
" id="m0d69742885" style="stroke:#ff00ff;"/>
    </defs>
    <g clip-path="url(#p04b84ea186)">
     <use style="fill:#ff00ff;stroke:#ff00ff;" x="125.412295" xlink:href="#m0d69742885" y="239.101571"/>
    </g>
   </g>
   <g id="line2d_52">
    <path d="M 333.168 72.605059 
L 363.64328 289.176341 
" style="fill:none;stroke:#ff00ff;stroke-linecap:square;stroke-width:1.5;"/>
    <g>
     <use style="fill:none;stroke:#ff00ff;stroke-linejoin:miter;stroke-width:1.5;" x="333.168" xlink:href="#mb3b054c7d2" y="72.605059"/>
     <use style="fill:none;stroke:#ff00ff;stroke-linejoin:miter;stroke-width:1.5;" x="363.64328" xlink:href="#mb3b054c7d2" y="289.176341"/>
    </g>
   </g>
   <g id="line2d_53">
    <path d="M 333.168 65.615281 
L 363.64328 152.288529 
" style="fill:none;stroke:#000080;stroke-linecap:square;stroke-width:1.5;"/>
    <g>
     <use style="fill:none;stroke:#000080;stroke-width:1.5;" x="333.168" xlink:href="#mb02e39a834" y="65.615281"/>
     <use style="fill:none;stroke:#000080;stroke-width:1.5;" x="363.64328" xlink:href="#mb02e39a834" y="152.288529"/>
    </g>
   </g>
   <g id="line2d_54">
    <path d="M 333.168 294.88 
L 333.168 9.697057 
" style="fill:none;stroke:#000000;stroke-linecap:square;stroke-width:1.5;"/>
   </g>
   <g id="patch_3">
    <path d="M 56.12 294.88 
L 56.12 6.845228 
" style="fill:none;stroke:#000000;stroke-linecap:square;stroke-linejoin:miter;stroke-width:0.8;"/>
   </g>
   <g id="patch_4">
    <path d="M 333.168 294.88 
L 333.168 6.845228 
" style="fill:none;stroke:#000000;stroke-linecap:square;stroke-linejoin:miter;stroke-width:0.8;"/>
   </g>
   <g id="patch_5">
    <path d="M 56.12 294.88 
L 333.168 294.88 
" style="fill:none;stroke:#000000;stroke-linecap:square;stroke-linejoin:miter;stroke-width:0.8;"/>
   </g>
   <g id="patch_6">
    <path d="M 56.12 6.845228 
L 333.168 6.845228 
" style="fill:none;stroke:#000000;stroke-linecap:square;stroke-linejoin:miter;stroke-width:0.8;"/>
   </g>
   <g id="text_13">
    <!-- scipy-opt -->
    <defs>
     <path d="M 32.171875 -5.078125 
Q 28.375 -14.84375 24.75 -17.8125 
Q 21.140625 -20.796875 15.09375 -20.796875 
L 7.90625 -20.796875 
L 7.90625 -13.28125 
L 13.1875 -13.28125 
Q 16.890625 -13.28125 18.9375 -11.515625 
Q 21 -9.765625 23.484375 -3.21875 
L 25.09375 0.875 
L 2.984375 54.6875 
L 12.5 54.6875 
L 29.59375 11.921875 
L 46.6875 54.6875 
L 56.203125 54.6875 
z
" id="DejaVuSans-79"/>
    </defs>
    <g transform="translate(369.18424 293.867279)scale(0.17 -0.17)">
     <use xlink:href="#DejaVuSans-73"/>
     <use x="52.099609" xlink:href="#DejaVuSans-63"/>
     <use x="107.080078" xlink:href="#DejaVuSans-69"/>
     <use x="134.863281" xlink:href="#DejaVuSans-70"/>
     <use x="198.339844" xlink:href="#DejaVuSans-79"/>
     <use x="257.503906" xlink:href="#DejaVuSans-2d"/>
     <use x="293.603516" xlink:href="#DejaVuSans-6f"/>
     <use x="354.785156" xlink:href="#DejaVuSans-70"/>
     <use x="418.261719" xlink:href="#DejaVuSans-74"/>
    </g>
   </g>
   <g id="text_14">
    <!-- BFGS ros  -->
    <defs>
     <path d="M 19.671875 34.8125 
L 19.671875 8.109375 
L 35.5 8.109375 
Q 43.453125 8.109375 47.28125 11.40625 
Q 51.125 14.703125 51.125 21.484375 
Q 51.125 28.328125 47.28125 31.5625 
Q 43.453125 34.8125 35.5 34.8125 
z
M 19.671875 64.796875 
L 19.671875 42.828125 
L 34.28125 42.828125 
Q 41.5 42.828125 45.03125 45.53125 
Q 48.578125 48.25 48.578125 53.8125 
Q 48.578125 59.328125 45.03125 62.0625 
Q 41.5 64.796875 34.28125 64.796875 
z
M 9.8125 72.90625 
L 35.015625 72.90625 
Q 46.296875 72.90625 52.390625 68.21875 
Q 58.5 63.53125 58.5 54.890625 
Q 58.5 48.1875 55.375 44.234375 
Q 52.25 40.28125 46.1875 39.3125 
Q 53.46875 37.75 57.5 32.78125 
Q 61.53125 27.828125 61.53125 20.40625 
Q 61.53125 10.640625 54.890625 5.3125 
Q 48.25 0 35.984375 0 
L 9.8125 0 
z
" id="DejaVuSans-42"/>
     <path d="M 59.515625 10.40625 
L 59.515625 29.984375 
L 43.40625 29.984375 
L 43.40625 38.09375 
L 69.28125 38.09375 
L 69.28125 6.78125 
Q 63.578125 2.734375 56.6875 0.65625 
Q 49.8125 -1.421875 42 -1.421875 
Q 24.90625 -1.421875 15.25 8.5625 
Q 5.609375 18.5625 5.609375 36.375 
Q 5.609375 54.25 15.25 64.234375 
Q 24.90625 74.21875 42 74.21875 
Q 49.125 74.21875 55.546875 72.453125 
Q 61.96875 70.703125 67.390625 67.28125 
L 67.390625 56.78125 
Q 61.921875 61.421875 55.765625 63.765625 
Q 49.609375 66.109375 42.828125 66.109375 
Q 29.4375 66.109375 22.71875 58.640625 
Q 16.015625 51.171875 16.015625 36.375 
Q 16.015625 21.625 22.71875 14.15625 
Q 29.4375 6.6875 42.828125 6.6875 
Q 48.046875 6.6875 52.140625 7.59375 
Q 56.25 8.5 59.515625 10.40625 
z
" id="DejaVuSans-47"/>
     <path d="M 53.515625 70.515625 
L 53.515625 60.890625 
Q 47.90625 63.578125 42.921875 64.890625 
Q 37.9375 66.21875 33.296875 66.21875 
Q 25.25 66.21875 20.875 63.09375 
Q 16.5 59.96875 16.5 54.203125 
Q 16.5 49.359375 19.40625 46.890625 
Q 22.3125 44.4375 30.421875 42.921875 
L 36.375 41.703125 
Q 47.40625 39.59375 52.65625 34.296875 
Q 57.90625 29 57.90625 20.125 
Q 57.90625 9.515625 50.796875 4.046875 
Q 43.703125 -1.421875 29.984375 -1.421875 
Q 24.8125 -1.421875 18.96875 -0.25 
Q 13.140625 0.921875 6.890625 3.21875 
L 6.890625 13.375 
Q 12.890625 10.015625 18.65625 8.296875 
Q 24.421875 6.59375 29.984375 6.59375 
Q 38.421875 6.59375 43.015625 9.90625 
Q 47.609375 13.234375 47.609375 19.390625 
Q 47.609375 24.75 44.3125 27.78125 
Q 41.015625 30.8125 33.5 32.328125 
L 27.484375 33.5 
Q 16.453125 35.6875 11.515625 40.375 
Q 6.59375 45.0625 6.59375 53.421875 
Q 6.59375 63.09375 13.40625 68.65625 
Q 20.21875 74.21875 32.171875 74.21875 
Q 37.3125 74.21875 42.625 73.28125 
Q 47.953125 72.359375 53.515625 70.515625 
z
" id="DejaVuSans-53"/>
    </defs>
    <g transform="translate(369.18424 156.979466)scale(0.17 -0.17)">
     <use xlink:href="#DejaVuSans-42"/>
     <use x="68.603516" xlink:href="#DejaVuSans-46"/>
     <use x="126.123047" xlink:href="#DejaVuSans-47"/>
     <use x="203.613281" xlink:href="#DejaVuSans-53"/>
     <use x="267.089844" xlink:href="#DejaVuSans-20"/>
     <use x="298.876953" xlink:href="#DejaVuSans-72"/>
     <use x="339.958984" xlink:href="#DejaVuSans-6f"/>
     <use x="401.140625" xlink:href="#DejaVuSans-73"/>
     <use x="453.240234" xlink:href="#DejaVuSans-20"/>
    </g>
   </g>
   <g id="text_15">
    <!-- best 2009 -->
    <defs>
     <path d="M 48.6875 27.296875 
Q 48.6875 37.203125 44.609375 42.84375 
Q 40.53125 48.484375 33.40625 48.484375 
Q 26.265625 48.484375 22.1875 42.84375 
Q 18.109375 37.203125 18.109375 27.296875 
Q 18.109375 17.390625 22.1875 11.75 
Q 26.265625 6.109375 33.40625 6.109375 
Q 40.53125 6.109375 44.609375 11.75 
Q 48.6875 17.390625 48.6875 27.296875 
z
M 18.109375 46.390625 
Q 20.953125 51.265625 25.265625 53.625 
Q 29.59375 56 35.59375 56 
Q 45.5625 56 51.78125 48.09375 
Q 58.015625 40.1875 58.015625 27.296875 
Q 58.015625 14.40625 51.78125 6.484375 
Q 45.5625 -1.421875 35.59375 -1.421875 
Q 29.59375 -1.421875 25.265625 0.953125 
Q 20.953125 3.328125 18.109375 8.203125 
L 18.109375 0 
L 9.078125 0 
L 9.078125 75.984375 
L 18.109375 75.984375 
z
" id="DejaVuSans-62"/>
     <path d="M 10.984375 1.515625 
L 10.984375 10.5 
Q 14.703125 8.734375 18.5 7.8125 
Q 22.3125 6.890625 25.984375 6.890625 
Q 35.75 6.890625 40.890625 13.453125 
Q 46.046875 20.015625 46.78125 33.40625 
Q 43.953125 29.203125 39.59375 26.953125 
Q 35.25 24.703125 29.984375 24.703125 
Q 19.046875 24.703125 12.671875 31.3125 
Q 6.296875 37.9375 6.296875 49.421875 
Q 6.296875 60.640625 12.9375 67.421875 
Q 19.578125 74.21875 30.609375 74.21875 
Q 43.265625 74.21875 49.921875 64.515625 
Q 56.59375 54.828125 56.59375 36.375 
Q 56.59375 19.140625 48.40625 8.859375 
Q 40.234375 -1.421875 26.421875 -1.421875 
Q 22.703125 -1.421875 18.890625 -0.6875 
Q 15.09375 0.046875 10.984375 1.515625 
z
M 30.609375 32.421875 
Q 37.25 32.421875 41.125 36.953125 
Q 45.015625 41.5 45.015625 49.421875 
Q 45.015625 57.28125 41.125 61.84375 
Q 37.25 66.40625 30.609375 66.40625 
Q 23.96875 66.40625 20.09375 61.84375 
Q 16.21875 57.28125 16.21875 49.421875 
Q 16.21875 41.5 20.09375 36.953125 
Q 23.96875 32.421875 30.609375 32.421875 
z
" id="DejaVuSans-39"/>
    </defs>
    <g transform="translate(369.18424 20.091654)scale(0.17 -0.17)">
     <use xlink:href="#DejaVuSans-62"/>
     <use x="63.476562" xlink:href="#DejaVuSans-65"/>
     <use x="125" xlink:href="#DejaVuSans-73"/>
     <use x="177.099609" xlink:href="#DejaVuSans-74"/>
     <use x="216.308594" xlink:href="#DejaVuSans-20"/>
     <use x="248.095703" xlink:href="#DejaVuSans-32"/>
     <use x="311.71875" xlink:href="#DejaVuSans-30"/>
     <use x="375.341797" xlink:href="#DejaVuSans-30"/>
     <use x="438.964844" xlink:href="#DejaVuSans-39"/>
    </g>
   </g>
   <g id="text_16">
    <!-- bbob f6-f9, 3-D -->
    <defs>
     <path d="M 40.578125 39.3125 
Q 47.65625 37.796875 51.625 33 
Q 55.609375 28.21875 55.609375 21.1875 
Q 55.609375 10.40625 48.1875 4.484375 
Q 40.765625 -1.421875 27.09375 -1.421875 
Q 22.515625 -1.421875 17.65625 -0.515625 
Q 12.796875 0.390625 7.625 2.203125 
L 7.625 11.71875 
Q 11.71875 9.328125 16.59375 8.109375 
Q 21.484375 6.890625 26.8125 6.890625 
Q 36.078125 6.890625 40.9375 10.546875 
Q 45.796875 14.203125 45.796875 21.1875 
Q 45.796875 27.640625 41.28125 31.265625 
Q 36.765625 34.90625 28.71875 34.90625 
L 20.21875 34.90625 
L 20.21875 43.015625 
L 29.109375 43.015625 
Q 36.375 43.015625 40.234375 45.921875 
Q 44.09375 48.828125 44.09375 54.296875 
Q 44.09375 59.90625 40.109375 62.90625 
Q 36.140625 65.921875 28.71875 65.921875 
Q 24.65625 65.921875 20.015625 65.03125 
Q 15.375 64.15625 9.8125 62.3125 
L 9.8125 71.09375 
Q 15.4375 72.65625 20.34375 73.4375 
Q 25.25 74.21875 29.59375 74.21875 
Q 40.828125 74.21875 47.359375 69.109375 
Q 53.90625 64.015625 53.90625 55.328125 
Q 53.90625 49.265625 50.4375 45.09375 
Q 46.96875 40.921875 40.578125 39.3125 
z
" id="DejaVuSans-33"/>
     <path d="M 19.671875 64.796875 
L 19.671875 8.109375 
L 31.59375 8.109375 
Q 46.6875 8.109375 53.6875 14.9375 
Q 60.6875 21.78125 60.6875 36.53125 
Q 60.6875 51.171875 53.6875 57.984375 
Q 46.6875 64.796875 31.59375 64.796875 
z
M 9.8125 72.90625 
L 30.078125 72.90625 
Q 51.265625 72.90625 61.171875 64.09375 
Q 71.09375 55.28125 71.09375 36.53125 
Q 71.09375 17.671875 61.125 8.828125 
Q 51.171875 0 30.078125 0 
L 9.8125 0 
z
" id="DejaVuSans-44"/>
    </defs>
    <g transform="translate(58.89048 17.475982)scale(0.102 -0.102)">
     <use xlink:href="#DejaVuSans-62"/>
     <use x="63.476562" xlink:href="#DejaVuSans-62"/>
     <use x="126.953125" xlink:href="#DejaVuSans-6f"/>
     <use x="188.134766" xlink:href="#DejaVuSans-62"/>
     <use x="251.611328" xlink:href="#DejaVuSans-20"/>
     <use x="283.398438" xlink:href="#DejaVuSans-66"/>
     <use x="318.603516" xlink:href="#DejaVuSans-36"/>
     <use x="382.226562" xlink:href="#DejaVuSans-2d"/>
     <use x="418.310547" xlink:href="#DejaVuSans-66"/>
     <use x="453.515625" xlink:href="#DejaVuSans-39"/>
     <use x="517.138672" xlink:href="#DejaVuSans-2c"/>
     <use x="548.925781" xlink:href="#DejaVuSans-20"/>
     <use x="580.712891" xlink:href="#DejaVuSans-33"/>
     <use x="644.335938" xlink:href="#DejaVuSans-2d"/>
     <use x="680.419922" xlink:href="#DejaVuSans-44"/>
    </g>
    <!-- 51 targets: 100..1e-08 -->
    <defs>
     <path d="M 10.796875 72.90625 
L 49.515625 72.90625 
L 49.515625 64.59375 
L 19.828125 64.59375 
L 19.828125 46.734375 
Q 21.96875 47.46875 24.109375 47.828125 
Q 26.265625 48.1875 28.421875 48.1875 
Q 40.625 48.1875 47.75 41.5 
Q 54.890625 34.8125 54.890625 23.390625 
Q 54.890625 11.625 47.5625 5.09375 
Q 40.234375 -1.421875 26.90625 -1.421875 
Q 22.3125 -1.421875 17.546875 -0.640625 
Q 12.796875 0.140625 7.71875 1.703125 
L 7.71875 11.625 
Q 12.109375 9.234375 16.796875 8.0625 
Q 21.484375 6.890625 26.703125 6.890625 
Q 35.15625 6.890625 40.078125 11.328125 
Q 45.015625 15.765625 45.015625 23.390625 
Q 45.015625 31 40.078125 35.4375 
Q 35.15625 39.890625 26.703125 39.890625 
Q 22.75 39.890625 18.8125 39.015625 
Q 14.890625 38.140625 10.796875 36.28125 
z
" id="DejaVuSans-35"/>
     <path d="M 11.71875 12.40625 
L 22.015625 12.40625 
L 22.015625 0 
L 11.71875 0 
z
M 11.71875 51.703125 
L 22.015625 51.703125 
L 22.015625 39.3125 
L 11.71875 39.3125 
z
" id="DejaVuSans-3a"/>
    </defs>
    <g transform="translate(58.89048 28.89775)scale(0.102 -0.102)">
     <use xlink:href="#DejaVuSans-35"/>
     <use x="63.623047" xlink:href="#DejaVuSans-31"/>
     <use x="127.246094" xlink:href="#DejaVuSans-20"/>
     <use x="159.033203" xlink:href="#DejaVuSans-74"/>
     <use x="198.242188" xlink:href="#DejaVuSans-61"/>
     <use x="259.521484" xlink:href="#DejaVuSans-72"/>
     <use x="300.619141" xlink:href="#DejaVuSans-67"/>
     <use x="364.095703" xlink:href="#DejaVuSans-65"/>
     <use x="425.619141" xlink:href="#DejaVuSans-74"/>
     <use x="464.828125" xlink:href="#DejaVuSans-73"/>
     <use x="516.927734" xlink:href="#DejaVuSans-3a"/>
     <use x="550.619141" xlink:href="#DejaVuSans-20"/>
     <use x="582.40625" xlink:href="#DejaVuSans-31"/>
     <use x="646.029297" xlink:href="#DejaVuSans-30"/>
     <use x="709.652344" xlink:href="#DejaVuSans-30"/>
     <use x="773.275391" xlink:href="#DejaVuSans-2e"/>
     <use x="805.0625" xlink:href="#DejaVuSans-2e"/>
     <use x="836.849609" xlink:href="#DejaVuSans-31"/>
     <use x="900.472656" xlink:href="#DejaVuSans-65"/>
     <use x="961.996094" xlink:href="#DejaVuSans-2d"/>
     <use x="998.080078" xlink:href="#DejaVuSans-30"/>
     <use x="1061.703125" xlink:href="#DejaVuSans-38"/>
    </g>
    <!-- 15 instances -->
    <g transform="translate(58.89048 40.319519)scale(0.102 -0.102)">
     <use xlink:href="#DejaVuSans-31"/>
     <use x="63.623047" xlink:href="#DejaVuSans-35"/>
     <use x="127.246094" xlink:href="#DejaVuSans-20"/>
     <use x="159.033203" xlink:href="#DejaVuSans-69"/>
     <use x="186.816406" xlink:href="#DejaVuSans-6e"/>
     <use x="250.195312" xlink:href="#DejaVuSans-73"/>
     <use x="302.294922" xlink:href="#DejaVuSans-74"/>
     <use x="341.503906" xlink:href="#DejaVuSans-61"/>
     <use x="402.783203" xlink:href="#DejaVuSans-6e"/>
     <use x="466.162109" xlink:href="#DejaVuSans-63"/>
     <use x="521.142578" xlink:href="#DejaVuSans-65"/>
     <use x="582.666016" xlink:href="#DejaVuSans-73"/>
    </g>
   </g>
   <g id="text_17">
    <!-- v0.0.0 -->
    <g style="fill:#808080;" transform="translate(178.96275 289.919965)scale(0.1 -0.1)">
     <use xlink:href="#DejaVuSans-76"/>
     <use x="59.179688" xlink:href="#DejaVuSans-30"/>
     <use x="122.802734" xlink:href="#DejaVuSans-2e"/>
     <use x="154.589844" xlink:href="#DejaVuSans-30"/>
     <use x="218.212891" xlink:href="#DejaVuSans-2e"/>
     <use x="250" xlink:href="#DejaVuSans-30"/>
    </g>
   </g>
  </g>
 </g>
 <defs>
  <clipPath id="p04b84ea186">
   <rect height="288.034772" width="277.048" x="56.12" y="6.845228"/>
  </clipPath>
 </defs>
</svg>
