<?xml version="1.0" encoding="utf-8" standalone="no"?>
<!DOCTYPE svg PUBLIC "-//W3C//DTD SVG 1.1//EN"
  "http://www.w3.org/Graphics/SVG/1.1/DTD/svg11.dtd">
<!-- Created with matplotlib (http://matplotlib.org/) -->
<svg height="345pt" version="1.1" viewBox="0 0 460 345" width="460pt" xmlns="http://www.w3.org/2000/svg" xmlns:xlink="http://www.w3.org/1999/xlink">
 <defs>
  <style type="text/css">
*{stroke-linecap:butt;stroke-linejoin:round;}
  </style>
 </defs>
 <g id="figure_1">
  <g id="patch_1">
   <path d="M 0 345.6 
L 460.8 345.6 
L 460.8 0 
L 0 0 
z
" style="fill:#ffffff;"/>
  </g>
  <g id="axes_1">
   <g id="patch_2">
    <path d="M 56.12 294.88 
L 333.168 294.88 
L 333.168 6.845228 
L 56.12 6.845228 
z
" style="fill:#ffffff;"/>
   </g>
   <g id="line2d_1">
    <path d="M 16.541714 294.88 
L 16.541714 288.169813 
L 28.455965 288.169813 
L 28.455965 287.051449 
L 35.425356 287.051449 
L 35.425356 285.933084 
L 40.370217 285.933084 
L 40.370217 284.81472 
L 56.12 284.81472 
L 56.12 283.696355 
L 66.223248 283.696355 
L 66.223248 282.577991 
L 75.003641 282.577991 
L 75.003641 278.104533 
L 75.567254 278.104533 
L 75.567254 274.749439 
L 76.11297 274.749439 
L 76.11297 272.51271 
L 79.948502 272.51271 
L 79.948502 271.394346 
L 81.191596 271.394346 
L 81.191596 270.275981 
L 82.350819 270.275981 
L 82.350819 269.157617 
L 85.732 269.157617 
L 85.732 268.039252 
L 87.481505 268.039252 
L 87.481505 266.920888 
L 88.556144 266.920888 
L 88.556144 265.802523 
L 91.205783 265.802523 
L 91.205783 264.684159 
L 95.351029 264.684159 
L 95.351029 263.565795 
L 99.11626 263.565795 
L 99.11626 262.44743 
L 100.207968 262.44743 
L 100.207968 261.329066 
L 103.231288 261.329066 
L 103.231288 260.210701 
L 103.990531 260.210701 
L 103.990531 259.092337 
L 111.310007 259.092337 
L 111.310007 257.973972 
L 116.884309 257.973972 
L 116.884309 256.855608 
L 126.381204 256.855608 
L 126.381204 255.737243 
L 127.362076 255.737243 
L 127.362076 254.618879 
L 127.578629 254.618879 
L 127.578629 253.500514 
L 130.761732 253.500514 
L 130.761732 252.38215 
L 131.696954 252.38215 
L 131.696954 251.263785 
L 132.664134 251.263785 
L 132.664134 250.145421 
L 133.749684 250.145421 
L 133.749684 249.027056 
L 140.549169 249.027056 
L 140.549169 247.908692 
L 141.804906 247.908692 
L 141.804906 246.790327 
L 149.108066 246.790327 
L 149.108066 245.671963 
L 153.145352 245.671963 
L 153.212081 243.435234 
L 155.16718 243.435234 
L 155.16718 242.316869 
L 156.301482 242.316869 
L 156.301482 241.198505 
L 160.475609 241.198505 
L 160.574519 238.961776 
L 160.602113 238.961776 
L 160.712045 235.606682 
L 160.758944 235.606682 
L 160.860123 232.251589 
L 160.925957 232.251589 
L 160.925957 231.133225 
L 161.079875 231.133225 
L 161.186803 227.778131 
L 161.443749 227.778131 
L 161.526063 225.541402 
L 161.574519 225.541402 
L 161.574519 224.423038 
L 161.880709 224.423038 
L 161.968239 222.186309 
L 162.080643 222.186309 
L 162.080643 221.067944 
L 162.25325 221.067944 
L 162.25325 219.94958 
L 162.438305 219.94958 
L 162.438305 218.831215 
L 162.582822 218.831215 
L 162.666857 216.594486 
L 162.909639 216.594486 
L 162.909639 215.476122 
L 163.108235 215.476122 
L 163.193134 213.239393 
L 163.515304 213.239393 
L 163.515304 212.121028 
L 163.64118 212.121028 
L 163.64118 211.002664 
L 163.75303 211.002664 
L 163.75303 209.884299 
L 165.18677 209.884299 
L 165.18677 208.765935 
L 165.42047 208.765935 
L 165.500631 206.529206 
L 166.355762 206.529206 
L 166.355762 205.410841 
L 166.63253 205.410841 
L 166.737592 203.174112 
L 166.784387 203.174112 
L 166.784387 202.055748 
L 167.057098 202.055748 
L 167.148843 199.819019 
L 167.330876 199.819019 
L 167.330876 198.700655 
L 167.455577 198.700655 
L 167.56625 196.463926 
L 167.764723 196.463926 
L 167.842442 194.227197 
L 167.881169 194.227197 
L 167.881169 193.108832 
L 168.083708 193.108832 
L 168.083708 191.990468 
L 168.195487 191.990468 
L 168.220791 189.753739 
L 168.41689 189.753739 
L 168.501673 185.280281 
L 168.536463 185.280281 
L 168.536463 184.161916 
L 168.768246 184.161916 
L 168.797611 181.925187 
L 168.941267 181.925187 
L 168.941267 180.806823 
L 170.261607 180.806823 
L 170.340017 177.451729 
L 171.625164 177.451729 
L 171.643821 175.215 
L 171.839535 175.215 
L 171.913122 171.859907 
L 172.004664 171.859907 
L 172.004664 170.741543 
L 175.316142 170.741543 
L 175.404602 165.14972 
L 175.447831 165.14972 
L 175.459451 162.912991 
L 176.958653 162.912991 
L 177.037556 159.557898 
L 179.980108 159.557898 
L 180.053939 156.202804 
L 180.282325 156.202804 
L 180.314884 153.966075 
L 181.06638 153.966075 
L 181.06638 152.847711 
L 181.215427 152.847711 
L 181.300695 150.610982 
L 181.349062 150.610982 
L 181.349062 149.492617 
L 181.750752 149.492617 
L 181.750752 148.374253 
L 182.305601 148.374253 
L 182.305601 147.255888 
L 183.384191 147.255888 
L 183.384191 146.137524 
L 184.827743 146.137524 
L 184.827743 145.019159 
L 196.431301 145.019159 
L 196.431301 143.900795 
L 199.289198 143.900795 
L 199.289198 142.78243 
L 202.492401 142.78243 
L 202.492401 141.664066 
L 206.992308 141.664066 
L 206.992308 140.545702 
L 207.512756 140.545702 
L 207.512756 139.427337 
L 211.279816 139.427337 
L 211.279816 138.308973 
L 211.696999 138.308973 
L 211.696999 137.190608 
L 214.218845 137.190608 
L 214.218845 136.072244 
L 223.355511 136.072244 
L 223.355511 134.953879 
L 224.904554 134.953879 
L 224.978608 132.71715 
L 226.457478 132.71715 
L 226.568134 129.362057 
L 226.645931 129.362057 
L 226.753118 126.006963 
L 226.801985 126.006963 
L 226.889812 122.65187 
L 226.936465 122.65187 
L 227.016089 119.296776 
L 227.053495 119.296776 
L 227.150634 115.941683 
L 227.185948 115.941683 
L 227.254403 112.586589 
L 227.297801 112.586589 
L 227.402305 108.113132 
L 227.437993 108.113132 
L 227.515092 104.758038 
L 227.568087 104.758038 
L 227.661732 101.402945 
L 227.699032 101.402945 
L 227.699032 100.28458 
L 232.805101 100.28458 
L 232.805101 99.166216 
L 240.3589 99.166216 
L 240.3589 98.047851 
L 241.063952 98.047851 
L 241.063952 96.929487 
L 243.735679 96.929487 
L 243.8467 94.692758 
L 244.043853 94.692758 
L 244.137162 92.456029 
L 244.241107 92.456029 
L 244.326954 87.982571 
L 244.367066 87.982571 
L 244.469664 82.390748 
L 244.492198 82.390748 
L 244.573083 77.917291 
L 244.603655 77.917291 
L 244.699773 72.325468 
L 244.717906 72.325468 
L 244.824627 66.733646 
L 244.846525 66.733646 
L 244.941853 61.141823 
L 244.968489 61.141823 
L 245.032076 56.668365 
L 252.288663 56.668365 
L 252.288663 55.550001 
L 254.767361 55.550001 
L 254.767361 54.431636 
L 273.726578 54.431636 
L 273.726578 53.313272 
L 281.591308 53.313272 
L 281.591308 52.194907 
L 303.089624 52.194907 
L 303.089624 51.076543 
L 328.165393 51.076543 
L 328.17278 9.697057 
L 333.168 9.697057 
L 333.168 9.697057 
" style="fill:none;stroke:#f5deb3;stroke-linecap:square;stroke-width:4;"/>
   </g>
   <g id="line2d_2">
    <defs>
     <path d="M -0 7.778175 
L 7.778175 0 
L 0 -7.778175 
L -7.778175 -0 
z
" id="m7b14cfd3c8" style="stroke:#f5deb3;stroke-linejoin:miter;stroke-width:1.5;"/>
    </defs>
    <g>
     <use style="fill:#f5deb3;stroke:#f5deb3;stroke-linejoin:miter;stroke-width:1.5;" x="116.884309" xlink:href="#m7b14cfd3c8" y="257.973972"/>
     <use style="fill:#f5deb3;stroke:#f5deb3;stroke-linejoin:miter;stroke-width:1.5;" x="170.340017" xlink:href="#m7b14cfd3c8" y="178.570094"/>
     <use style="fill:#f5deb3;stroke:#f5deb3;stroke-linejoin:miter;stroke-width:1.5;" x="244.771364" xlink:href="#m7b14cfd3c8" y="68.970375"/>
     <use style="fill:#f5deb3;stroke:#f5deb3;stroke-linejoin:miter;stroke-width:1.5;" x="303.089624" xlink:href="#m7b14cfd3c8" y="51.076543"/>
     <use style="fill:#f5deb3;stroke:#f5deb3;stroke-linejoin:miter;stroke-width:1.5;" x="328.17278" xlink:href="#m7b14cfd3c8" y="9.697057"/>
     <use style="fill:#f5deb3;stroke:#f5deb3;stroke-linejoin:miter;stroke-width:1.5;" x="333.168" xlink:href="#m7b14cfd3c8" y="9.697057"/>
    </g>
   </g>
   <g id="line2d_3">
    <path style="fill:none;stroke:#f5deb3;stroke-linecap:square;stroke-width:4;"/>
    <g/>
   </g>
   <g id="line2d_4">
    <path d="M 333.168 9.697057 
L 363.64328 15.400716 
" style="fill:none;stroke:#f5deb3;stroke-linecap:square;stroke-width:4;"/>
    <g>
     <use style="fill:#f5deb3;stroke:#f5deb3;stroke-linejoin:miter;stroke-width:1.5;" x="333.168" xlink:href="#m7b14cfd3c8" y="9.697057"/>
     <use style="fill:#f5deb3;stroke:#f5deb3;stroke-linejoin:miter;stroke-width:1.5;" x="363.64328" xlink:href="#m7b14cfd3c8" y="15.400716"/>
    </g>
   </g>
   <g id="matplotlib.axis_1">
    <g id="xtick_1">
     <g id="line2d_5">
      <path clip-path="url(#pfa197cdd20)" d="M 56.12 294.88 
L 56.12 6.845228 
" style="fill:none;stroke:#b0b0b0;stroke-linecap:square;stroke-width:0.8;"/>
     </g>
     <g id="line2d_6">
      <defs>
       <path d="M 0 0 
L 0 3.5 
" id="mcc99890597" style="stroke:#000000;stroke-width:0.8;"/>
      </defs>
      <g>
       <use style="stroke:#000000;stroke-width:0.8;" x="56.12" xlink:href="#mcc99890597" y="294.88"/>
      </g>
     </g>
     <g id="text_1">
      <!-- 0 -->
      <defs>
       <path d="M 31.78125 66.40625 
Q 24.171875 66.40625 20.328125 58.90625 
Q 16.5 51.421875 16.5 36.375 
Q 16.5 21.390625 20.328125 13.890625 
Q 24.171875 6.390625 31.78125 6.390625 
Q 39.453125 6.390625 43.28125 13.890625 
Q 47.125 21.390625 47.125 36.375 
Q 47.125 51.421875 43.28125 58.90625 
Q 39.453125 66.40625 31.78125 66.40625 
z
M 31.78125 74.21875 
Q 44.046875 74.21875 50.515625 64.515625 
Q 56.984375 54.828125 56.984375 36.375 
Q 56.984375 17.96875 50.515625 8.265625 
Q 44.046875 -1.421875 31.78125 -1.421875 
Q 19.53125 -1.421875 13.0625 8.265625 
Q 6.59375 17.96875 6.59375 36.375 
Q 6.59375 54.828125 13.0625 64.515625 
Q 19.53125 74.21875 31.78125 74.21875 
z
" id="DejaVuSans-30"/>
      </defs>
      <g transform="translate(49.7575 317.076875)scale(0.2 -0.2)">
       <use xlink:href="#DejaVuSans-30"/>
      </g>
     </g>
    </g>
    <g id="xtick_2">
     <g id="line2d_7">
      <path clip-path="url(#pfa197cdd20)" d="M 135.276571 294.88 
L 135.276571 6.845228 
" style="fill:none;stroke:#b0b0b0;stroke-linecap:square;stroke-width:0.8;"/>
     </g>
     <g id="line2d_8">
      <g>
       <use style="stroke:#000000;stroke-width:0.8;" x="135.276571" xlink:href="#mcc99890597" y="294.88"/>
      </g>
     </g>
     <g id="text_2">
      <!-- 2 -->
      <defs>
       <path d="M 19.1875 8.296875 
L 53.609375 8.296875 
L 53.609375 0 
L 7.328125 0 
L 7.328125 8.296875 
Q 12.9375 14.109375 22.625 23.890625 
Q 32.328125 33.6875 34.8125 36.53125 
Q 39.546875 41.84375 41.421875 45.53125 
Q 43.3125 49.21875 43.3125 52.78125 
Q 43.3125 58.59375 39.234375 62.25 
Q 35.15625 65.921875 28.609375 65.921875 
Q 23.96875 65.921875 18.8125 64.3125 
Q 13.671875 62.703125 7.8125 59.421875 
L 7.8125 69.390625 
Q 13.765625 71.78125 18.9375 73 
Q 24.125 74.21875 28.421875 74.21875 
Q 39.75 74.21875 46.484375 68.546875 
Q 53.21875 62.890625 53.21875 53.421875 
Q 53.21875 48.921875 51.53125 44.890625 
Q 49.859375 40.875 45.40625 35.40625 
Q 44.1875 33.984375 37.640625 27.21875 
Q 31.109375 20.453125 19.1875 8.296875 
z
" id="DejaVuSans-32"/>
      </defs>
      <g transform="translate(128.914071 317.076875)scale(0.2 -0.2)">
       <use xlink:href="#DejaVuSans-32"/>
      </g>
     </g>
    </g>
    <g id="xtick_3">
     <g id="line2d_9">
      <path clip-path="url(#pfa197cdd20)" d="M 214.433143 294.88 
L 214.433143 6.845228 
" style="fill:none;stroke:#b0b0b0;stroke-linecap:square;stroke-width:0.8;"/>
     </g>
     <g id="line2d_10">
      <g>
       <use style="stroke:#000000;stroke-width:0.8;" x="214.433143" xlink:href="#mcc99890597" y="294.88"/>
      </g>
     </g>
     <g id="text_3">
      <!-- 4 -->
      <defs>
       <path d="M 37.796875 64.3125 
L 12.890625 25.390625 
L 37.796875 25.390625 
z
M 35.203125 72.90625 
L 47.609375 72.90625 
L 47.609375 25.390625 
L 58.015625 25.390625 
L 58.015625 17.1875 
L 47.609375 17.1875 
L 47.609375 0 
L 37.796875 0 
L 37.796875 17.1875 
L 4.890625 17.1875 
L 4.890625 26.703125 
z
" id="DejaVuSans-34"/>
      </defs>
      <g transform="translate(208.070643 317.076875)scale(0.2 -0.2)">
       <use xlink:href="#DejaVuSans-34"/>
      </g>
     </g>
    </g>
    <g id="xtick_4">
     <g id="line2d_11">
      <path clip-path="url(#pfa197cdd20)" d="M 293.589714 294.88 
L 293.589714 6.845228 
" style="fill:none;stroke:#b0b0b0;stroke-linecap:square;stroke-width:0.8;"/>
     </g>
     <g id="line2d_12">
      <g>
       <use style="stroke:#000000;stroke-width:0.8;" x="293.589714" xlink:href="#mcc99890597" y="294.88"/>
      </g>
     </g>
     <g id="text_4">
      <!-- 6 -->
      <defs>
       <path d="M 33.015625 40.375 
Q 26.375 40.375 22.484375 35.828125 
Q 18.609375 31.296875 18.609375 23.390625 
Q 18.609375 15.53125 22.484375 10.953125 
Q 26.375 6.390625 33.015625 6.390625 
Q 39.65625 6.390625 43.53125 10.953125 
Q 47.40625 15.53125 47.40625 23.390625 
Q 47.40625 31.296875 43.53125 35.828125 
Q 39.65625 40.375 33.015625 40.375 
z
M 52.59375 71.296875 
L 52.59375 62.3125 
Q 48.875 64.0625 45.09375 64.984375 
Q 41.3125 65.921875 37.59375 65.921875 
Q 27.828125 65.921875 22.671875 59.328125 
Q 17.53125 52.734375 16.796875 39.40625 
Q 19.671875 43.65625 24.015625 45.921875 
Q 28.375 48.1875 33.59375 48.1875 
Q 44.578125 48.1875 50.953125 41.515625 
Q 57.328125 34.859375 57.328125 23.390625 
Q 57.328125 12.15625 50.6875 5.359375 
Q 44.046875 -1.421875 33.015625 -1.421875 
Q 20.359375 -1.421875 13.671875 8.265625 
Q 6.984375 17.96875 6.984375 36.375 
Q 6.984375 53.65625 15.1875 63.9375 
Q 23.390625 74.21875 37.203125 74.21875 
Q 40.921875 74.21875 44.703125 73.484375 
Q 48.484375 72.75 52.59375 71.296875 
z
" id="DejaVuSans-36"/>
      </defs>
      <g transform="translate(287.227214 317.076875)scale(0.2 -0.2)">
       <use xlink:href="#DejaVuSans-36"/>
      </g>
     </g>
    </g>
    <g id="xtick_5">
     <g id="line2d_13">
      <path clip-path="url(#pfa197cdd20)" d="M 56.12 294.88 
L 56.12 6.845228 
" style="fill:none;stroke:#b0b0b0;stroke-linecap:square;stroke-width:0.8;"/>
     </g>
     <g id="line2d_14">
      <defs>
       <path d="M 0 0 
L 0 2 
" id="maec3ab29d3" style="stroke:#000000;stroke-width:0.6;"/>
      </defs>
      <g>
       <use style="stroke:#000000;stroke-width:0.6;" x="56.12" xlink:href="#maec3ab29d3" y="294.88"/>
      </g>
     </g>
    </g>
    <g id="xtick_6">
     <g id="line2d_15">
      <path clip-path="url(#pfa197cdd20)" d="M 95.698286 294.88 
L 95.698286 6.845228 
" style="fill:none;stroke:#b0b0b0;stroke-linecap:square;stroke-width:0.8;"/>
     </g>
     <g id="line2d_16">
      <g>
       <use style="stroke:#000000;stroke-width:0.6;" x="95.698286" xlink:href="#maec3ab29d3" y="294.88"/>
      </g>
     </g>
    </g>
    <g id="xtick_7">
     <g id="line2d_17">
      <path clip-path="url(#pfa197cdd20)" d="M 135.276571 294.88 
L 135.276571 6.845228 
" style="fill:none;stroke:#b0b0b0;stroke-linecap:square;stroke-width:0.8;"/>
     </g>
     <g id="line2d_18">
      <g>
       <use style="stroke:#000000;stroke-width:0.6;" x="135.276571" xlink:href="#maec3ab29d3" y="294.88"/>
      </g>
     </g>
    </g>
    <g id="xtick_8">
     <g id="line2d_19">
      <path clip-path="url(#pfa197cdd20)" d="M 174.854857 294.88 
L 174.854857 6.845228 
" style="fill:none;stroke:#b0b0b0;stroke-linecap:square;stroke-width:0.8;"/>
     </g>
     <g id="line2d_20">
      <g>
       <use style="stroke:#000000;stroke-width:0.6;" x="174.854857" xlink:href="#maec3ab29d3" y="294.88"/>
      </g>
     </g>
    </g>
    <g id="xtick_9">
     <g id="line2d_21">
      <path clip-path="url(#pfa197cdd20)" d="M 214.433143 294.88 
L 214.433143 6.845228 
" style="fill:none;stroke:#b0b0b0;stroke-linecap:square;stroke-width:0.8;"/>
     </g>
     <g id="line2d_22">
      <g>
       <use style="stroke:#000000;stroke-width:0.6;" x="214.433143" xlink:href="#maec3ab29d3" y="294.88"/>
      </g>
     </g>
    </g>
    <g id="xtick_10">
     <g id="line2d_23">
      <path clip-path="url(#pfa197cdd20)" d="M 254.011429 294.88 
L 254.011429 6.845228 
" style="fill:none;stroke:#b0b0b0;stroke-linecap:square;stroke-width:0.8;"/>
     </g>
     <g id="line2d_24">
      <g>
       <use style="stroke:#000000;stroke-width:0.6;" x="254.011429" xlink:href="#maec3ab29d3" y="294.88"/>
      </g>
     </g>
    </g>
    <g id="xtick_11">
     <g id="line2d_25">
      <path clip-path="url(#pfa197cdd20)" d="M 293.589714 294.88 
L 293.589714 6.845228 
" style="fill:none;stroke:#b0b0b0;stroke-linecap:square;stroke-width:0.8;"/>
     </g>
     <g id="line2d_26">
      <g>
       <use style="stroke:#000000;stroke-width:0.6;" x="293.589714" xlink:href="#maec3ab29d3" y="294.88"/>
      </g>
     </g>
    </g>
    <g id="xtick_12">
     <g id="line2d_27">
      <path clip-path="url(#pfa197cdd20)" d="M 333.168 294.88 
L 333.168 6.845228 
" style="fill:none;stroke:#b0b0b0;stroke-linecap:square;stroke-width:0.8;"/>
     </g>
     <g id="line2d_28">
      <g>
       <use style="stroke:#000000;stroke-width:0.6;" x="333.168" xlink:href="#maec3ab29d3" y="294.88"/>
      </g>
     </g>
    </g>
    <g id="text_5">
     <!-- log10(# f-evals / dimension) -->
     <defs>
      <path d="M 9.421875 75.984375 
L 18.40625 75.984375 
L 18.40625 0 
L 9.421875 0 
z
" id="DejaVuSans-6c"/>
      <path d="M 30.609375 48.390625 
Q 23.390625 48.390625 19.1875 42.75 
Q 14.984375 37.109375 14.984375 27.296875 
Q 14.984375 17.484375 19.15625 11.84375 
Q 23.34375 6.203125 30.609375 6.203125 
Q 37.796875 6.203125 41.984375 11.859375 
Q 46.1875 17.53125 46.1875 27.296875 
Q 46.1875 37.015625 41.984375 42.703125 
Q 37.796875 48.390625 30.609375 48.390625 
z
M 30.609375 56 
Q 42.328125 56 49.015625 48.375 
Q 55.71875 40.765625 55.71875 27.296875 
Q 55.71875 13.875 49.015625 6.21875 
Q 42.328125 -1.421875 30.609375 -1.421875 
Q 18.84375 -1.421875 12.171875 6.21875 
Q 5.515625 13.875 5.515625 27.296875 
Q 5.515625 40.765625 12.171875 48.375 
Q 18.84375 56 30.609375 56 
z
" id="DejaVuSans-6f"/>
      <path d="M 45.40625 27.984375 
Q 45.40625 37.75 41.375 43.109375 
Q 37.359375 48.484375 30.078125 48.484375 
Q 22.859375 48.484375 18.828125 43.109375 
Q 14.796875 37.75 14.796875 27.984375 
Q 14.796875 18.265625 18.828125 12.890625 
Q 22.859375 7.515625 30.078125 7.515625 
Q 37.359375 7.515625 41.375 12.890625 
Q 45.40625 18.265625 45.40625 27.984375 
z
M 54.390625 6.78125 
Q 54.390625 -7.171875 48.1875 -13.984375 
Q 42 -20.796875 29.203125 -20.796875 
Q 24.46875 -20.796875 20.265625 -20.09375 
Q 16.0625 -19.390625 12.109375 -17.921875 
L 12.109375 -9.1875 
Q 16.0625 -11.328125 19.921875 -12.34375 
Q 23.78125 -13.375 27.78125 -13.375 
Q 36.625 -13.375 41.015625 -8.765625 
Q 45.40625 -4.15625 45.40625 5.171875 
L 45.40625 9.625 
Q 42.625 4.78125 38.28125 2.390625 
Q 33.9375 0 27.875 0 
Q 17.828125 0 11.671875 7.65625 
Q 5.515625 15.328125 5.515625 27.984375 
Q 5.515625 40.671875 11.671875 48.328125 
Q 17.828125 56 27.875 56 
Q 33.9375 56 38.28125 53.609375 
Q 42.625 51.21875 45.40625 46.390625 
L 45.40625 54.6875 
L 54.390625 54.6875 
z
" id="DejaVuSans-67"/>
      <path d="M 12.40625 8.296875 
L 28.515625 8.296875 
L 28.515625 63.921875 
L 10.984375 60.40625 
L 10.984375 69.390625 
L 28.421875 72.90625 
L 38.28125 72.90625 
L 38.28125 8.296875 
L 54.390625 8.296875 
L 54.390625 0 
L 12.40625 0 
z
" id="DejaVuSans-31"/>
      <path d="M 31 75.875 
Q 24.46875 64.65625 21.28125 53.65625 
Q 18.109375 42.671875 18.109375 31.390625 
Q 18.109375 20.125 21.3125 9.0625 
Q 24.515625 -2 31 -13.1875 
L 23.1875 -13.1875 
Q 15.875 -1.703125 12.234375 9.375 
Q 8.59375 20.453125 8.59375 31.390625 
Q 8.59375 42.28125 12.203125 53.3125 
Q 15.828125 64.359375 23.1875 75.875 
z
" id="DejaVuSans-28"/>
      <path d="M 51.125 44 
L 36.921875 44 
L 32.8125 27.6875 
L 47.125 27.6875 
z
M 43.796875 71.78125 
L 38.71875 51.515625 
L 52.984375 51.515625 
L 58.109375 71.78125 
L 65.921875 71.78125 
L 60.890625 51.515625 
L 76.125 51.515625 
L 76.125 44 
L 58.984375 44 
L 54.984375 27.6875 
L 70.515625 27.6875 
L 70.515625 20.21875 
L 53.078125 20.21875 
L 48 0 
L 40.1875 0 
L 45.21875 20.21875 
L 30.90625 20.21875 
L 25.875 0 
L 18.015625 0 
L 23.09375 20.21875 
L 7.71875 20.21875 
L 7.71875 27.6875 
L 24.90625 27.6875 
L 29 44 
L 13.28125 44 
L 13.28125 51.515625 
L 30.90625 51.515625 
L 35.890625 71.78125 
z
" id="DejaVuSans-23"/>
      <path id="DejaVuSans-20"/>
      <path d="M 37.109375 75.984375 
L 37.109375 68.5 
L 28.515625 68.5 
Q 23.6875 68.5 21.796875 66.546875 
Q 19.921875 64.59375 19.921875 59.515625 
L 19.921875 54.6875 
L 34.71875 54.6875 
L 34.71875 47.703125 
L 19.921875 47.703125 
L 19.921875 0 
L 10.890625 0 
L 10.890625 47.703125 
L 2.296875 47.703125 
L 2.296875 54.6875 
L 10.890625 54.6875 
L 10.890625 58.5 
Q 10.890625 67.625 15.140625 71.796875 
Q 19.390625 75.984375 28.609375 75.984375 
z
" id="DejaVuSans-66"/>
      <path d="M 4.890625 31.390625 
L 31.203125 31.390625 
L 31.203125 23.390625 
L 4.890625 23.390625 
z
" id="DejaVuSans-2d"/>
      <path d="M 56.203125 29.59375 
L 56.203125 25.203125 
L 14.890625 25.203125 
Q 15.484375 15.921875 20.484375 11.0625 
Q 25.484375 6.203125 34.421875 6.203125 
Q 39.59375 6.203125 44.453125 7.46875 
Q 49.3125 8.734375 54.109375 11.28125 
L 54.109375 2.78125 
Q 49.265625 0.734375 44.1875 -0.34375 
Q 39.109375 -1.421875 33.890625 -1.421875 
Q 20.796875 -1.421875 13.15625 6.1875 
Q 5.515625 13.8125 5.515625 26.8125 
Q 5.515625 40.234375 12.765625 48.109375 
Q 20.015625 56 32.328125 56 
Q 43.359375 56 49.78125 48.890625 
Q 56.203125 41.796875 56.203125 29.59375 
z
M 47.21875 32.234375 
Q 47.125 39.59375 43.09375 43.984375 
Q 39.0625 48.390625 32.421875 48.390625 
Q 24.90625 48.390625 20.390625 44.140625 
Q 15.875 39.890625 15.1875 32.171875 
z
" id="DejaVuSans-65"/>
      <path d="M 2.984375 54.6875 
L 12.5 54.6875 
L 29.59375 8.796875 
L 46.6875 54.6875 
L 56.203125 54.6875 
L 35.6875 0 
L 23.484375 0 
z
" id="DejaVuSans-76"/>
      <path d="M 34.28125 27.484375 
Q 23.390625 27.484375 19.1875 25 
Q 14.984375 22.515625 14.984375 16.5 
Q 14.984375 11.71875 18.140625 8.90625 
Q 21.296875 6.109375 26.703125 6.109375 
Q 34.1875 6.109375 38.703125 11.40625 
Q 43.21875 16.703125 43.21875 25.484375 
L 43.21875 27.484375 
z
M 52.203125 31.203125 
L 52.203125 0 
L 43.21875 0 
L 43.21875 8.296875 
Q 40.140625 3.328125 35.546875 0.953125 
Q 30.953125 -1.421875 24.3125 -1.421875 
Q 15.921875 -1.421875 10.953125 3.296875 
Q 6 8.015625 6 15.921875 
Q 6 25.140625 12.171875 29.828125 
Q 18.359375 34.515625 30.609375 34.515625 
L 43.21875 34.515625 
L 43.21875 35.40625 
Q 43.21875 41.609375 39.140625 45 
Q 35.0625 48.390625 27.6875 48.390625 
Q 23 48.390625 18.546875 47.265625 
Q 14.109375 46.140625 10.015625 43.890625 
L 10.015625 52.203125 
Q 14.9375 54.109375 19.578125 55.046875 
Q 24.21875 56 28.609375 56 
Q 40.484375 56 46.34375 49.84375 
Q 52.203125 43.703125 52.203125 31.203125 
z
" id="DejaVuSans-61"/>
      <path d="M 44.28125 53.078125 
L 44.28125 44.578125 
Q 40.484375 46.53125 36.375 47.5 
Q 32.28125 48.484375 27.875 48.484375 
Q 21.1875 48.484375 17.84375 46.4375 
Q 14.5 44.390625 14.5 40.28125 
Q 14.5 37.15625 16.890625 35.375 
Q 19.28125 33.59375 26.515625 31.984375 
L 29.59375 31.296875 
Q 39.15625 29.25 43.1875 25.515625 
Q 47.21875 21.78125 47.21875 15.09375 
Q 47.21875 7.46875 41.1875 3.015625 
Q 35.15625 -1.421875 24.609375 -1.421875 
Q 20.21875 -1.421875 15.453125 -0.5625 
Q 10.6875 0.296875 5.421875 2 
L 5.421875 11.28125 
Q 10.40625 8.6875 15.234375 7.390625 
Q 20.0625 6.109375 24.8125 6.109375 
Q 31.15625 6.109375 34.5625 8.28125 
Q 37.984375 10.453125 37.984375 14.40625 
Q 37.984375 18.0625 35.515625 20.015625 
Q 33.0625 21.96875 24.703125 23.78125 
L 21.578125 24.515625 
Q 13.234375 26.265625 9.515625 29.90625 
Q 5.8125 33.546875 5.8125 39.890625 
Q 5.8125 47.609375 11.28125 51.796875 
Q 16.75 56 26.8125 56 
Q 31.78125 56 36.171875 55.265625 
Q 40.578125 54.546875 44.28125 53.078125 
z
" id="DejaVuSans-73"/>
      <path d="M 25.390625 72.90625 
L 33.6875 72.90625 
L 8.296875 -9.28125 
L 0 -9.28125 
z
" id="DejaVuSans-2f"/>
      <path d="M 45.40625 46.390625 
L 45.40625 75.984375 
L 54.390625 75.984375 
L 54.390625 0 
L 45.40625 0 
L 45.40625 8.203125 
Q 42.578125 3.328125 38.25 0.953125 
Q 33.9375 -1.421875 27.875 -1.421875 
Q 17.96875 -1.421875 11.734375 6.484375 
Q 5.515625 14.40625 5.515625 27.296875 
Q 5.515625 40.1875 11.734375 48.09375 
Q 17.96875 56 27.875 56 
Q 33.9375 56 38.25 53.625 
Q 42.578125 51.265625 45.40625 46.390625 
z
M 14.796875 27.296875 
Q 14.796875 17.390625 18.875 11.75 
Q 22.953125 6.109375 30.078125 6.109375 
Q 37.203125 6.109375 41.296875 11.75 
Q 45.40625 17.390625 45.40625 27.296875 
Q 45.40625 37.203125 41.296875 42.84375 
Q 37.203125 48.484375 30.078125 48.484375 
Q 22.953125 48.484375 18.875 42.84375 
Q 14.796875 37.203125 14.796875 27.296875 
z
" id="DejaVuSans-64"/>
      <path d="M 9.421875 54.6875 
L 18.40625 54.6875 
L 18.40625 0 
L 9.421875 0 
z
M 9.421875 75.984375 
L 18.40625 75.984375 
L 18.40625 64.59375 
L 9.421875 64.59375 
z
" id="DejaVuSans-69"/>
      <path d="M 52 44.1875 
Q 55.375 50.25 60.0625 53.125 
Q 64.75 56 71.09375 56 
Q 79.640625 56 84.28125 50.015625 
Q 88.921875 44.046875 88.921875 33.015625 
L 88.921875 0 
L 79.890625 0 
L 79.890625 32.71875 
Q 79.890625 40.578125 77.09375 44.375 
Q 74.3125 48.1875 68.609375 48.1875 
Q 61.625 48.1875 57.5625 43.546875 
Q 53.515625 38.921875 53.515625 30.90625 
L 53.515625 0 
L 44.484375 0 
L 44.484375 32.71875 
Q 44.484375 40.625 41.703125 44.40625 
Q 38.921875 48.1875 33.109375 48.1875 
Q 26.21875 48.1875 22.15625 43.53125 
Q 18.109375 38.875 18.109375 30.90625 
L 18.109375 0 
L 9.078125 0 
L 9.078125 54.6875 
L 18.109375 54.6875 
L 18.109375 46.1875 
Q 21.1875 51.21875 25.484375 53.609375 
Q 29.78125 56 35.6875 56 
Q 41.65625 56 45.828125 52.96875 
Q 50 49.953125 52 44.1875 
z
" id="DejaVuSans-6d"/>
      <path d="M 54.890625 33.015625 
L 54.890625 0 
L 45.90625 0 
L 45.90625 32.71875 
Q 45.90625 40.484375 42.875 44.328125 
Q 39.84375 48.1875 33.796875 48.1875 
Q 26.515625 48.1875 22.3125 43.546875 
Q 18.109375 38.921875 18.109375 30.90625 
L 18.109375 0 
L 9.078125 0 
L 9.078125 54.6875 
L 18.109375 54.6875 
L 18.109375 46.1875 
Q 21.34375 51.125 25.703125 53.5625 
Q 30.078125 56 35.796875 56 
Q 45.21875 56 50.046875 50.171875 
Q 54.890625 44.34375 54.890625 33.015625 
z
" id="DejaVuSans-6e"/>
      <path d="M 8.015625 75.875 
L 15.828125 75.875 
Q 23.140625 64.359375 26.78125 53.3125 
Q 30.421875 42.28125 30.421875 31.390625 
Q 30.421875 20.453125 26.78125 9.375 
Q 23.140625 -1.703125 15.828125 -13.1875 
L 8.015625 -13.1875 
Q 14.5 -2 17.703125 9.0625 
Q 20.90625 20.125 20.90625 31.390625 
Q 20.90625 42.671875 17.703125 53.65625 
Q 14.5 64.65625 8.015625 75.875 
z
" id="DejaVuSans-29"/>
     </defs>
     <g transform="translate(73.803219 338.153594)scale(0.17 -0.17)">
      <use xlink:href="#DejaVuSans-6c"/>
      <use x="27.783203" xlink:href="#DejaVuSans-6f"/>
      <use x="88.964844" xlink:href="#DejaVuSans-67"/>
      <use x="152.441406" xlink:href="#DejaVuSans-31"/>
      <use x="216.064453" xlink:href="#DejaVuSans-30"/>
      <use x="279.6875" xlink:href="#DejaVuSans-28"/>
      <use x="318.701172" xlink:href="#DejaVuSans-23"/>
      <use x="402.490234" xlink:href="#DejaVuSans-20"/>
      <use x="434.277344" xlink:href="#DejaVuSans-66"/>
      <use x="469.404297" xlink:href="#DejaVuSans-2d"/>
      <use x="505.488281" xlink:href="#DejaVuSans-65"/>
      <use x="567.011719" xlink:href="#DejaVuSans-76"/>
      <use x="626.191406" xlink:href="#DejaVuSans-61"/>
      <use x="687.470703" xlink:href="#DejaVuSans-6c"/>
      <use x="715.253906" xlink:href="#DejaVuSans-73"/>
      <use x="767.353516" xlink:href="#DejaVuSans-20"/>
      <use x="799.140625" xlink:href="#DejaVuSans-2f"/>
      <use x="832.832031" xlink:href="#DejaVuSans-20"/>
      <use x="864.619141" xlink:href="#DejaVuSans-64"/>
      <use x="928.095703" xlink:href="#DejaVuSans-69"/>
      <use x="955.878906" xlink:href="#DejaVuSans-6d"/>
      <use x="1053.291016" xlink:href="#DejaVuSans-65"/>
      <use x="1114.814453" xlink:href="#DejaVuSans-6e"/>
      <use x="1178.193359" xlink:href="#DejaVuSans-73"/>
      <use x="1230.292969" xlink:href="#DejaVuSans-69"/>
      <use x="1258.076172" xlink:href="#DejaVuSans-6f"/>
      <use x="1319.257812" xlink:href="#DejaVuSans-6e"/>
      <use x="1382.636719" xlink:href="#DejaVuSans-29"/>
     </g>
    </g>
   </g>
   <g id="matplotlib.axis_2">
    <g id="ytick_1">
     <g id="line2d_29">
      <path clip-path="url(#pfa197cdd20)" d="M 56.12 294.88 
L 333.168 294.88 
" style="fill:none;stroke:#b0b0b0;stroke-linecap:square;stroke-width:0.8;"/>
     </g>
     <g id="line2d_30">
      <defs>
       <path d="M 0 0 
L -3.5 0 
" id="m2b6f3f672c" style="stroke:#000000;stroke-width:0.8;"/>
      </defs>
      <g>
       <use style="stroke:#000000;stroke-width:0.8;" x="56.12" xlink:href="#m2b6f3f672c" y="294.88"/>
      </g>
     </g>
     <g id="text_6">
      <!-- 0.0 -->
      <defs>
       <path d="M 10.6875 12.40625 
L 21 12.40625 
L 21 0 
L 10.6875 0 
z
" id="DejaVuSans-2e"/>
      </defs>
      <g transform="translate(23.675 300.95875)scale(0.16 -0.16)">
       <use xlink:href="#DejaVuSans-30"/>
       <use x="63.623047" xlink:href="#DejaVuSans-2e"/>
       <use x="95.410156" xlink:href="#DejaVuSans-30"/>
      </g>
     </g>
    </g>
    <g id="ytick_2">
     <g id="line2d_31">
      <path clip-path="url(#pfa197cdd20)" d="M 56.12 237.843411 
L 333.168 237.843411 
" style="fill:none;stroke:#b0b0b0;stroke-linecap:square;stroke-width:0.8;"/>
     </g>
     <g id="line2d_32">
      <g>
       <use style="stroke:#000000;stroke-width:0.8;" x="56.12" xlink:href="#m2b6f3f672c" y="237.843411"/>
      </g>
     </g>
     <g id="text_7">
      <!-- 0.2 -->
      <g transform="translate(23.675 243.922161)scale(0.16 -0.16)">
       <use xlink:href="#DejaVuSans-30"/>
       <use x="63.623047" xlink:href="#DejaVuSans-2e"/>
       <use x="95.410156" xlink:href="#DejaVuSans-32"/>
      </g>
     </g>
    </g>
    <g id="ytick_3">
     <g id="line2d_33">
      <path clip-path="url(#pfa197cdd20)" d="M 56.12 180.806823 
L 333.168 180.806823 
" style="fill:none;stroke:#b0b0b0;stroke-linecap:square;stroke-width:0.8;"/>
     </g>
     <g id="line2d_34">
      <g>
       <use style="stroke:#000000;stroke-width:0.8;" x="56.12" xlink:href="#m2b6f3f672c" y="180.806823"/>
      </g>
     </g>
     <g id="text_8">
      <!-- 0.4 -->
      <g transform="translate(23.675 186.885573)scale(0.16 -0.16)">
       <use xlink:href="#DejaVuSans-30"/>
       <use x="63.623047" xlink:href="#DejaVuSans-2e"/>
       <use x="95.410156" xlink:href="#DejaVuSans-34"/>
      </g>
     </g>
    </g>
    <g id="ytick_4">
     <g id="line2d_35">
      <path clip-path="url(#pfa197cdd20)" d="M 56.12 123.770234 
L 333.168 123.770234 
" style="fill:none;stroke:#b0b0b0;stroke-linecap:square;stroke-width:0.8;"/>
     </g>
     <g id="line2d_36">
      <g>
       <use style="stroke:#000000;stroke-width:0.8;" x="56.12" xlink:href="#m2b6f3f672c" y="123.770234"/>
      </g>
     </g>
     <g id="text_9">
      <!-- 0.6 -->
      <g transform="translate(23.675 129.848984)scale(0.16 -0.16)">
       <use xlink:href="#DejaVuSans-30"/>
       <use x="63.623047" xlink:href="#DejaVuSans-2e"/>
       <use x="95.410156" xlink:href="#DejaVuSans-36"/>
      </g>
     </g>
    </g>
    <g id="ytick_5">
     <g id="line2d_37">
      <path clip-path="url(#pfa197cdd20)" d="M 56.12 66.733646 
L 333.168 66.733646 
" style="fill:none;stroke:#b0b0b0;stroke-linecap:square;stroke-width:0.8;"/>
     </g>
     <g id="line2d_38">
      <g>
       <use style="stroke:#000000;stroke-width:0.8;" x="56.12" xlink:href="#m2b6f3f672c" y="66.733646"/>
      </g>
     </g>
     <g id="text_10">
      <!-- 0.8 -->
      <defs>
       <path d="M 31.78125 34.625 
Q 24.75 34.625 20.71875 30.859375 
Q 16.703125 27.09375 16.703125 20.515625 
Q 16.703125 13.921875 20.71875 10.15625 
Q 24.75 6.390625 31.78125 6.390625 
Q 38.8125 6.390625 42.859375 10.171875 
Q 46.921875 13.96875 46.921875 20.515625 
Q 46.921875 27.09375 42.890625 30.859375 
Q 38.875 34.625 31.78125 34.625 
z
M 21.921875 38.8125 
Q 15.578125 40.375 12.03125 44.71875 
Q 8.5 49.078125 8.5 55.328125 
Q 8.5 64.0625 14.71875 69.140625 
Q 20.953125 74.21875 31.78125 74.21875 
Q 42.671875 74.21875 48.875 69.140625 
Q 55.078125 64.0625 55.078125 55.328125 
Q 55.078125 49.078125 51.53125 44.71875 
Q 48 40.375 41.703125 38.8125 
Q 48.828125 37.15625 52.796875 32.3125 
Q 56.78125 27.484375 56.78125 20.515625 
Q 56.78125 9.90625 50.3125 4.234375 
Q 43.84375 -1.421875 31.78125 -1.421875 
Q 19.734375 -1.421875 13.25 4.234375 
Q 6.78125 9.90625 6.78125 20.515625 
Q 6.78125 27.484375 10.78125 32.3125 
Q 14.796875 37.15625 21.921875 38.8125 
z
M 18.3125 54.390625 
Q 18.3125 48.734375 21.84375 45.5625 
Q 25.390625 42.390625 31.78125 42.390625 
Q 38.140625 42.390625 41.71875 45.5625 
Q 45.3125 48.734375 45.3125 54.390625 
Q 45.3125 60.0625 41.71875 63.234375 
Q 38.140625 66.40625 31.78125 66.40625 
Q 25.390625 66.40625 21.84375 63.234375 
Q 18.3125 60.0625 18.3125 54.390625 
z
" id="DejaVuSans-38"/>
      </defs>
      <g transform="translate(23.675 72.812396)scale(0.16 -0.16)">
       <use xlink:href="#DejaVuSans-30"/>
       <use x="63.623047" xlink:href="#DejaVuSans-2e"/>
       <use x="95.410156" xlink:href="#DejaVuSans-38"/>
      </g>
     </g>
    </g>
    <g id="ytick_6">
     <g id="line2d_39">
      <path clip-path="url(#pfa197cdd20)" d="M 56.12 9.697057 
L 333.168 9.697057 
" style="fill:none;stroke:#b0b0b0;stroke-linecap:square;stroke-width:0.8;"/>
     </g>
     <g id="line2d_40">
      <g>
       <use style="stroke:#000000;stroke-width:0.8;" x="56.12" xlink:href="#m2b6f3f672c" y="9.697057"/>
      </g>
     </g>
     <g id="text_11">
      <!-- 1.0 -->
      <g transform="translate(23.675 15.775807)scale(0.16 -0.16)">
       <use xlink:href="#DejaVuSans-31"/>
       <use x="63.623047" xlink:href="#DejaVuSans-2e"/>
       <use x="95.410156" xlink:href="#DejaVuSans-30"/>
      </g>
     </g>
    </g>
    <g id="text_12">
     <!-- Fraction of function,target pairs -->
     <defs>
      <path d="M 9.8125 72.90625 
L 51.703125 72.90625 
L 51.703125 64.59375 
L 19.671875 64.59375 
L 19.671875 43.109375 
L 48.578125 43.109375 
L 48.578125 34.8125 
L 19.671875 34.8125 
L 19.671875 0 
L 9.8125 0 
z
" id="DejaVuSans-46"/>
      <path d="M 41.109375 46.296875 
Q 39.59375 47.171875 37.8125 47.578125 
Q 36.03125 48 33.890625 48 
Q 26.265625 48 22.1875 43.046875 
Q 18.109375 38.09375 18.109375 28.8125 
L 18.109375 0 
L 9.078125 0 
L 9.078125 54.6875 
L 18.109375 54.6875 
L 18.109375 46.1875 
Q 20.953125 51.171875 25.484375 53.578125 
Q 30.03125 56 36.53125 56 
Q 37.453125 56 38.578125 55.875 
Q 39.703125 55.765625 41.0625 55.515625 
z
" id="DejaVuSans-72"/>
      <path d="M 48.78125 52.59375 
L 48.78125 44.1875 
Q 44.96875 46.296875 41.140625 47.34375 
Q 37.3125 48.390625 33.40625 48.390625 
Q 24.65625 48.390625 19.8125 42.84375 
Q 14.984375 37.3125 14.984375 27.296875 
Q 14.984375 17.28125 19.8125 11.734375 
Q 24.65625 6.203125 33.40625 6.203125 
Q 37.3125 6.203125 41.140625 7.25 
Q 44.96875 8.296875 48.78125 10.40625 
L 48.78125 2.09375 
Q 45.015625 0.34375 40.984375 -0.53125 
Q 36.96875 -1.421875 32.421875 -1.421875 
Q 20.0625 -1.421875 12.78125 6.34375 
Q 5.515625 14.109375 5.515625 27.296875 
Q 5.515625 40.671875 12.859375 48.328125 
Q 20.21875 56 33.015625 56 
Q 37.15625 56 41.109375 55.140625 
Q 45.0625 54.296875 48.78125 52.59375 
z
" id="DejaVuSans-63"/>
      <path d="M 18.3125 70.21875 
L 18.3125 54.6875 
L 36.8125 54.6875 
L 36.8125 47.703125 
L 18.3125 47.703125 
L 18.3125 18.015625 
Q 18.3125 11.328125 20.140625 9.421875 
Q 21.96875 7.515625 27.59375 7.515625 
L 36.8125 7.515625 
L 36.8125 0 
L 27.59375 0 
Q 17.1875 0 13.234375 3.875 
Q 9.28125 7.765625 9.28125 18.015625 
L 9.28125 47.703125 
L 2.6875 47.703125 
L 2.6875 54.6875 
L 9.28125 54.6875 
L 9.28125 70.21875 
z
" id="DejaVuSans-74"/>
      <path d="M 8.5 21.578125 
L 8.5 54.6875 
L 17.484375 54.6875 
L 17.484375 21.921875 
Q 17.484375 14.15625 20.5 10.265625 
Q 23.53125 6.390625 29.59375 6.390625 
Q 36.859375 6.390625 41.078125 11.03125 
Q 45.3125 15.671875 45.3125 23.6875 
L 45.3125 54.6875 
L 54.296875 54.6875 
L 54.296875 0 
L 45.3125 0 
L 45.3125 8.40625 
Q 42.046875 3.421875 37.71875 1 
Q 33.40625 -1.421875 27.6875 -1.421875 
Q 18.265625 -1.421875 13.375 4.4375 
Q 8.5 10.296875 8.5 21.578125 
z
M 31.109375 56 
z
" id="DejaVuSans-75"/>
      <path d="M 11.71875 12.40625 
L 22.015625 12.40625 
L 22.015625 4 
L 14.015625 -11.625 
L 7.71875 -11.625 
L 11.71875 4 
z
" id="DejaVuSans-2c"/>
      <path d="M 18.109375 8.203125 
L 18.109375 -20.796875 
L 9.078125 -20.796875 
L 9.078125 54.6875 
L 18.109375 54.6875 
L 18.109375 46.390625 
Q 20.953125 51.265625 25.265625 53.625 
Q 29.59375 56 35.59375 56 
Q 45.5625 56 51.78125 48.09375 
Q 58.015625 40.1875 58.015625 27.296875 
Q 58.015625 14.40625 51.78125 6.484375 
Q 45.5625 -1.421875 35.59375 -1.421875 
Q 29.59375 -1.421875 25.265625 0.953125 
Q 20.953125 3.328125 18.109375 8.203125 
z
M 48.6875 27.296875 
Q 48.6875 37.203125 44.609375 42.84375 
Q 40.53125 48.484375 33.40625 48.484375 
Q 26.265625 48.484375 22.1875 42.84375 
Q 18.109375 37.203125 18.109375 27.296875 
Q 18.109375 17.390625 22.1875 11.75 
Q 26.265625 6.109375 33.40625 6.109375 
Q 40.53125 6.109375 44.609375 11.75 
Q 48.6875 17.390625 48.6875 27.296875 
z
" id="DejaVuSans-70"/>
     </defs>
     <g transform="translate(16.139531 286.001989)rotate(-90)scale(0.17 -0.17)">
      <use xlink:href="#DejaVuSans-46"/>
      <use x="57.410156" xlink:href="#DejaVuSans-72"/>
      <use x="98.523438" xlink:href="#DejaVuSans-61"/>
      <use x="159.802734" xlink:href="#DejaVuSans-63"/>
      <use x="214.783203" xlink:href="#DejaVuSans-74"/>
      <use x="253.992188" xlink:href="#DejaVuSans-69"/>
      <use x="281.775391" xlink:href="#DejaVuSans-6f"/>
      <use x="342.957031" xlink:href="#DejaVuSans-6e"/>
      <use x="406.335938" xlink:href="#DejaVuSans-20"/>
      <use x="438.123047" xlink:href="#DejaVuSans-6f"/>
      <use x="499.304688" xlink:href="#DejaVuSans-66"/>
      <use x="534.509766" xlink:href="#DejaVuSans-20"/>
      <use x="566.296875" xlink:href="#DejaVuSans-66"/>
      <use x="601.501953" xlink:href="#DejaVuSans-75"/>
      <use x="664.880859" xlink:href="#DejaVuSans-6e"/>
      <use x="728.259766" xlink:href="#DejaVuSans-63"/>
      <use x="783.240234" xlink:href="#DejaVuSans-74"/>
      <use x="822.449219" xlink:href="#DejaVuSans-69"/>
      <use x="850.232422" xlink:href="#DejaVuSans-6f"/>
      <use x="911.414062" xlink:href="#DejaVuSans-6e"/>
      <use x="974.792969" xlink:href="#DejaVuSans-2c"/>
      <use x="1006.580078" xlink:href="#DejaVuSans-74"/>
      <use x="1045.789062" xlink:href="#DejaVuSans-61"/>
      <use x="1107.068359" xlink:href="#DejaVuSans-72"/>
      <use x="1148.166016" xlink:href="#DejaVuSans-67"/>
      <use x="1211.642578" xlink:href="#DejaVuSans-65"/>
      <use x="1273.166016" xlink:href="#DejaVuSans-74"/>
      <use x="1312.375" xlink:href="#DejaVuSans-20"/>
      <use x="1344.162109" xlink:href="#DejaVuSans-70"/>
      <use x="1407.638672" xlink:href="#DejaVuSans-61"/>
      <use x="1468.917969" xlink:href="#DejaVuSans-69"/>
      <use x="1496.701172" xlink:href="#DejaVuSans-72"/>
      <use x="1537.814453" xlink:href="#DejaVuSans-73"/>
     </g>
    </g>
   </g>
   <g id="line2d_41">
    <defs>
     <path d="M 0 1.5 
C 0.397805 1.5 0.77937 1.341951 1.06066 1.06066 
C 1.341951 0.77937 1.5 0.397805 1.5 0 
C 1.5 -0.397805 1.341951 -0.77937 1.06066 -1.06066 
C 0.77937 -1.341951 0.397805 -1.5 0 -1.5 
C -0.397805 -1.5 -0.77937 -1.341951 -1.06066 -1.06066 
C -1.341951 -0.77937 -1.5 -0.397805 -1.5 0 
C -1.5 0.397805 -1.341951 0.77937 -1.06066 1.06066 
C -0.77937 1.341951 -0.397805 1.5 0 1.5 
z
" id="mccd143cc60" style="stroke:#f5deb3;"/>
    </defs>
    <g>
     <use style="fill:#f5deb3;stroke:#f5deb3;" x="328.17278" xlink:href="#mccd143cc60" y="9.697057"/>
     <use style="fill:#f5deb3;stroke:#f5deb3;" x="328.17278" xlink:href="#mccd143cc60" y="9.697057"/>
    </g>
   </g>
   <g id="line2d_42">
    <defs>
     <path d="M 0 1.5 
C 0.397805 1.5 0.77937 1.341951 1.06066 1.06066 
C 1.341951 0.77937 1.5 0.397805 1.5 0 
C 1.5 -0.397805 1.341951 -0.77937 1.06066 -1.06066 
C 0.77937 -1.341951 0.397805 -1.5 0 -1.5 
C -0.397805 -1.5 -0.77937 -1.341951 -1.06066 -1.06066 
C -1.341951 -0.77937 -1.5 -0.397805 -1.5 0 
C -1.5 0.397805 -1.341951 0.77937 -1.06066 1.06066 
C -0.77937 1.341951 -0.397805 1.5 0 1.5 
z
" id="m22e555b948" style="stroke:#000080;"/>
    </defs>
    <g>
     <use style="fill:#000080;stroke:#000080;" x="277.333855" xlink:href="#m22e555b948" y="151.729346"/>
     <use style="fill:#000080;stroke:#000080;" x="277.333855" xlink:href="#m22e555b948" y="151.729346"/>
    </g>
   </g>
   <g id="line2d_43">
    <path d="M 16.541714 294.88 
L 16.541714 287.722467 
L 59.253858 287.722467 
L 59.253858 286.156757 
L 70.436568 286.156757 
L 70.436568 285.038393 
L 77.155024 285.038393 
L 77.155024 283.472682 
L 81.973032 283.472682 
L 81.973032 282.018808 
L 85.732 282.018808 
L 85.732 280.229425 
L 88.814625 280.229425 
L 88.814625 277.209841 
L 91.427575 277.209841 
L 91.427575 274.973112 
L 93.695229 274.973112 
L 93.695229 273.295566 
L 95.698286 273.295566 
L 95.698286 271.841692 
L 97.492092 271.841692 
L 97.492092 270.947 
L 99.11626 270.947 
L 99.11626 269.940472 
L 100.600121 269.940472 
L 100.600121 269.157617 
L 101.966002 269.157617 
L 101.966002 268.486598 
L 103.231288 268.486598 
L 103.231288 268.262925 
L 104.409787 268.262925 
L 104.409787 267.81558 
L 105.512642 267.81558 
L 105.512642 267.591907 
L 106.548983 267.591907 
L 106.548983 267.256397 
L 107.526378 267.256397 
L 107.526378 267.032724 
L 108.451173 267.032724 
L 108.451173 266.920888 
L 109.328742 266.920888 
L 109.328742 266.473542 
L 110.959921 266.473542 
L 110.959921 266.361706 
L 111.72091 266.361706 
L 111.72091 266.138033 
L 112.449632 266.138033 
L 112.449632 265.690687 
L 113.148711 265.690687 
L 113.148711 265.355178 
L 114.466953 265.355178 
L 114.466953 265.243341 
L 115.691256 265.243341 
L 115.691256 265.019668 
L 116.834124 265.019668 
L 116.834124 264.795995 
L 117.905717 264.795995 
L 117.905717 264.684159 
L 118.914406 264.684159 
L 118.914406 264.460486 
L 119.397387 264.460486 
L 119.397387 264.34865 
L 119.867168 264.34865 
L 119.867168 264.124977 
L 120.32445 264.124977 
L 120.32445 263.901304 
L 120.769881 263.901304 
L 120.769881 263.677631 
L 121.20406 263.677631 
L 121.20406 263.565795 
L 121.627542 263.565795 
L 121.627542 263.230285 
L 122.04084 263.230285 
L 122.04084 262.894776 
L 122.444434 262.894776 
L 122.444434 262.782939 
L 122.838768 262.782939 
L 122.838768 262.559266 
L 123.224258 262.559266 
L 123.224258 262.223757 
L 123.601292 262.223757 
L 123.601292 262.111921 
L 123.970233 262.111921 
L 123.970233 261.664575 
L 124.331421 261.664575 
L 124.331421 261.217229 
L 124.685175 261.217229 
L 124.685175 260.993556 
L 125.031795 260.993556 
L 125.031795 260.54621 
L 125.371564 260.54621 
L 125.371564 260.210701 
L 125.704746 260.210701 
L 125.704746 259.875192 
L 126.031592 259.875192 
L 126.031592 259.651519 
L 126.352339 259.651519 
L 126.352339 259.316009 
L 126.667211 259.316009 
L 126.667211 259.204173 
L 126.976418 259.204173 
L 126.976418 258.9805 
L 127.28016 258.9805 
L 127.28016 258.533154 
L 127.872003 258.533154 
L 127.872003 258.421318 
L 128.160453 258.421318 
L 128.160453 258.309481 
L 128.444143 258.309481 
L 128.444143 258.197645 
L 128.997851 258.197645 
L 128.997851 258.085809 
L 129.268157 258.085809 
L 129.268157 257.973972 
L 129.796341 257.973972 
L 129.796341 257.750299 
L 130.308777 257.750299 
L 130.308777 257.41479 
L 130.559378 257.41479 
L 130.559378 257.191117 
L 130.806377 257.191117 
L 130.806377 256.967444 
L 131.289977 256.967444 
L 131.289977 256.855608 
L 131.526768 256.855608 
L 131.526768 256.743771 
L 131.760342 256.743771 
L 131.760342 256.631935 
L 133.098812 256.631935 
L 133.098812 256.408262 
L 133.522769 256.408262 
L 133.522769 256.296425 
L 133.730889 256.296425 
L 133.730889 256.072752 
L 134.340544 256.072752 
L 134.340544 255.84908 
L 134.53905 255.84908 
L 134.53905 255.625407 
L 134.929315 255.625407 
L 134.929315 255.401734 
L 135.310914 255.401734 
L 135.310914 255.066224 
L 135.498584 255.066224 
L 135.498584 254.954388 
L 135.684226 254.954388 
L 135.684226 254.730715 
L 135.867885 254.730715 
L 135.867885 254.618879 
L 136.407373 254.618879 
L 136.407373 254.507042 
L 136.583504 254.507042 
L 136.583504 254.283369 
L 136.757848 254.283369 
L 136.757848 253.94786 
L 136.930442 253.94786 
L 136.930442 253.836024 
L 137.768335 253.836024 
L 137.768335 253.724187 
L 138.25214 253.724187 
L 138.25214 253.612351 
L 138.410429 253.612351 
L 138.410429 253.165005 
L 139.773027 253.165005 
L 139.773027 252.941332 
L 139.917968 252.941332 
L 139.917968 252.829495 
L 140.061698 252.829495 
L 140.061698 252.717659 
L 140.204235 252.717659 
L 140.204235 252.605823 
L 140.3456 252.605823 
L 140.3456 252.38215 
L 140.485813 252.38215 
L 140.485813 252.270313 
L 142.21155 252.270313 
L 142.21155 252.158477 
L 142.337391 252.158477 
L 142.337391 252.04664 
L 142.709478 252.04664 
L 142.709478 251.934804 
L 142.831738 251.934804 
L 142.831738 251.822967 
L 142.953135 251.822967 
L 142.953135 251.711131 
L 143.193387 251.711131 
L 143.193387 251.487458 
L 143.547583 251.487458 
L 143.547583 251.375622 
L 143.779723 251.375622 
L 143.779723 251.263785 
L 144.008769 251.263785 
L 144.008769 251.151949 
L 144.346715 251.151949 
L 144.346715 250.816439 
L 144.568377 250.816439 
L 144.568377 250.704603 
L 144.895601 250.704603 
L 145.003305 250.369094 
L 145.4275 250.369094 
L 145.531932 250.033584 
L 145.635734 250.033584 
L 145.738913 249.698075 
L 145.943432 249.698075 
L 145.943432 249.586238 
L 146.245718 249.586238 
L 146.34531 249.250729 
L 146.64067 249.250729 
L 146.738006 248.691547 
L 146.834794 248.691547 
L 146.834794 248.356038 
L 147.02675 248.356038 
L 147.12193 248.020528 
L 147.216586 248.020528 
L 147.310724 247.685019 
L 147.404349 247.685019 
L 147.497466 247.461346 
L 147.682202 247.461346 
L 147.682202 247.34951 
L 148.224786 247.34951 
L 148.313575 247.014 
L 148.401907 247.014 
L 148.401907 246.902164 
L 148.750766 246.902164 
L 148.750766 246.790327 
L 149.092685 246.790327 
L 149.092685 246.678491 
L 149.427935 246.678491 
L 149.510735 246.454818 
L 149.918859 246.454818 
L 149.918859 246.342981 
L 150.159162 246.342981 
L 150.159162 246.119309 
L 150.317517 246.119309 
L 150.317517 246.007472 
L 150.474427 246.007472 
L 150.474427 245.895636 
L 150.707138 245.895636 
L 150.707138 245.783799 
L 150.936741 245.783799 
L 151.012598 245.44829 
L 151.088123 245.44829 
L 151.163317 245.000944 
L 151.312725 245.000944 
L 151.312725 244.889108 
L 151.8977 244.889108 
L 151.8977 244.777271 
L 152.040885 244.777271 
L 152.040885 244.665435 
L 152.253451 244.665435 
L 152.253451 244.553598 
L 152.46342 244.553598 
L 152.46342 244.441762 
L 152.601988 244.441762 
L 152.601988 244.218089 
L 152.739448 244.218089 
L 152.739448 244.106253 
L 152.875817 244.106253 
L 152.943598 243.88258 
L 153.078364 243.88258 
L 153.078364 243.770743 
L 153.212081 243.770743 
L 153.212081 243.658907 
L 153.541892 243.658907 
L 153.607102 243.435234 
L 153.672065 243.435234 
L 153.736783 242.876052 
L 153.801259 242.876052 
L 153.801259 242.764215 
L 153.929489 242.764215 
L 153.993248 242.316869 
L 154.05677 242.316869 
L 154.05677 242.205033 
L 154.433054 242.205033 
L 154.494975 241.98136 
L 154.740451 241.98136 
L 154.801276 241.757687 
L 154.922285 241.757687 
L 154.922285 241.645851 
L 155.042447 241.645851 
L 155.042447 241.534014 
L 155.161776 241.534014 
L 155.22113 241.310341 
L 155.397975 241.310341 
L 155.456522 241.086668 
L 155.514869 241.086668 
L 155.573019 240.862996 
L 155.688733 240.862996 
L 155.746298 240.41565 
L 156.031271 240.41565 
L 156.031271 240.191977 
L 156.14395 240.191977 
L 156.14395 240.08014 
L 156.696525 240.08014 
L 156.80494 239.744631 
L 157.01974 239.744631 
L 157.126141 239.185449 
L 157.179096 239.185449 
L 157.284519 238.961776 
L 157.751079 238.961776 
L 157.853062 238.626267 
L 158.055229 238.626267 
L 158.155428 238.290757 
L 158.30464 238.290757 
L 158.30464 238.178921 
L 158.744657 238.178921 
L 158.840928 237.955248 
L 158.98433 237.955248 
L 158.98433 237.843411 
L 159.126546 237.843411 
L 159.126546 237.731575 
L 159.865775 237.731575 
L 159.955983 237.396066 
L 160.00091 237.396066 
L 160.090413 236.94872 
L 160.134991 236.94872 
L 160.179453 236.725047 
L 160.268033 236.725047 
L 160.312153 236.277701 
L 160.400054 236.277701 
L 160.443837 235.830355 
L 160.531069 235.830355 
L 160.61786 235.38301 
L 160.704216 235.38301 
L 160.747231 235.159337 
L 160.832941 235.159337 
L 160.918225 234.600154 
L 160.960709 234.600154 
L 161.045364 233.258117 
L 161.087535 233.258117 
L 161.129603 233.034444 
L 161.213431 233.034444 
L 161.213431 232.922608 
L 161.338413 232.922608 
L 161.421232 232.475262 
L 161.544716 232.475262 
L 161.626549 231.91608 
L 161.789056 231.91608 
L 161.869737 231.468734 
L 161.909935 231.468734 
L 161.909935 231.356897 
L 162.029971 231.356897 
L 162.069797 230.909552 
L 162.267556 230.909552 
L 162.306836 230.685879 
L 162.424141 230.685879 
L 162.501901 229.903024 
L 162.656375 229.903024 
L 162.733095 229.120168 
L 162.923409 229.120168 
L 162.998948 228.337313 
L 163.036594 228.337313 
L 163.111639 227.778131 
L 163.186357 227.778131 
L 163.260752 227.330785 
L 163.297829 227.330785 
L 163.408583 226.659767 
L 163.445343 226.659767 
L 163.555154 225.765075 
L 163.591602 225.765075 
L 163.700485 225.429566 
L 163.808683 225.429566 
L 163.916204 225.205893 
L 163.987513 225.205893 
L 164.058527 224.870383 
L 164.129249 224.870383 
L 164.129249 224.758547 
L 164.269826 224.758547 
L 164.339686 224.534874 
L 164.409262 224.534874 
L 164.443946 223.863855 
L 164.547577 223.863855 
L 164.650587 223.304673 
L 164.752984 223.304673 
L 164.854774 222.857327 
L 164.922301 222.857327 
L 164.989564 222.521818 
L 165.056564 222.521818 
L 165.123304 222.186309 
L 165.222932 222.186309 
L 165.321984 221.627126 
L 165.550912 221.627126 
L 165.550912 221.51529 
L 166.094506 221.51529 
L 166.125953 221.291617 
L 166.251168 221.291617 
L 166.313436 221.067944 
L 166.437298 221.067944 
L 166.437298 220.844271 
L 166.712767 220.844271 
L 166.803618 220.396926 
L 167.073324 220.396926 
L 167.073324 220.173253 
L 167.191848 220.173253 
L 167.250805 219.94958 
L 167.542594 219.94958 
L 167.542594 219.725907 
L 167.657937 219.725907 
L 167.657937 219.61407 
L 167.801036 219.61407 
L 167.829513 219.390397 
L 168.055649 219.390397 
L 168.111721 219.054888 
L 168.16761 219.054888 
L 168.223319 218.719379 
L 168.41689 218.719379 
L 168.52653 218.383869 
L 168.662605 218.383869 
L 168.743736 218.04836 
L 168.797611 218.04836 
L 168.904858 217.601014 
L 168.984856 217.601014 
L 169.037982 217.377341 
L 169.483043 217.377341 
L 169.483043 217.265505 
L 169.967196 217.265505 
L 170.067409 216.706323 
L 170.092371 216.706323 
L 170.16704 216.48265 
L 170.21664 216.48265 
L 170.266097 216.258977 
L 170.535597 216.258977 
L 170.632559 216.035304 
L 171.596101 216.035304 
L 171.596101 215.923468 
L 173.721677 215.923468 
L 173.721677 215.699795 
L 173.862471 215.699795 
L 173.942409 215.364285 
L 173.98224 215.364285 
L 174.061625 214.91694 
L 174.10118 214.91694 
L 174.160343 214.58143 
L 174.530386 214.58143 
L 174.530386 214.469594 
L 174.683842 214.469594 
L 174.760059 214.134084 
L 174.817 214.134084 
L 174.817 214.022248 
L 175.005455 214.022248 
L 175.061591 213.239393 
L 175.136155 213.239393 
L 175.136155 213.127556 
L 176.164975 213.127556 
L 176.269774 212.792047 
L 176.373939 212.792047 
L 176.443032 212.456538 
L 176.51185 212.456538 
L 176.614562 211.338173 
L 176.631621 211.338173 
L 176.733622 210.890827 
L 176.767488 210.890827 
L 176.868688 210.555318 
L 176.919065 210.555318 
L 176.986006 209.996136 
L 177.069318 209.996136 
L 177.168761 209.772463 
L 177.234739 209.772463 
L 177.284057 209.325117 
L 177.414882 209.325117 
L 177.496146 209.101444 
L 177.625373 209.101444 
L 177.673584 208.877771 
L 177.833317 208.877771 
L 177.912631 208.654098 
L 179.295647 208.654098 
L 179.295647 208.542262 
L 179.785102 208.542262 
L 179.785102 208.430426 
L 181.703504 208.430426 
L 181.703504 208.318589 
L 181.943011 208.318589 
L 181.943011 208.206753 
L 182.569868 208.206753 
L 182.60604 207.98308 
L 182.690145 207.98308 
L 182.76191 207.759407 
L 183.010751 207.759407 
L 183.116305 207.423898 
L 183.151346 207.423898 
L 183.256042 207.200225 
L 183.30237 207.200225 
L 183.371628 206.864715 
L 183.452078 206.864715 
L 183.520737 206.641042 
L 183.589123 206.641042 
L 183.679883 206.193697 
L 183.702498 206.193697 
L 183.8039 204.51615 
L 183.81513 204.51615 
L 183.81513 204.404313 
L 183.938179 204.404313 
L 183.938179 204.292477 
L 184.214602 204.292477 
L 184.323939 203.956968 
L 184.400063 203.956968 
L 184.508229 203.621458 
L 184.529781 203.621458 
L 184.583543 203.062276 
L 184.934216 203.062276 
L 184.976239 202.838603 
L 185.174461 202.838603 
L 185.174461 202.726767 
L 185.543882 202.726767 
L 185.543882 202.61493 
L 186.063853 202.61493 
L 186.14247 201.943912 
L 187.123806 201.943912 
L 187.225373 201.720239 
L 187.252969 201.720239 
L 187.335493 201.04922 
L 187.417622 201.04922 
L 187.43582 200.601874 
L 187.535565 200.601874 
L 187.643721 199.48351 
L 187.652703 199.48351 
L 187.724394 199.148 
L 187.769049 199.148 
L 187.849138 198.365145 
L 188.052129 198.365145 
L 188.157093 197.805963 
L 188.244076 197.805963 
L 188.347878 197.246781 
L 188.373731 197.246781 
L 188.433904 196.911271 
L 188.502415 196.911271 
L 188.502415 196.799435 
L 188.966183 196.799435 
L 189.057453 196.463926 
L 189.148242 196.463926 
L 189.254923 195.792907 
L 189.279448 195.792907 
L 189.336537 194.786379 
L 189.442059 194.786379 
L 189.506675 194.339033 
L 189.57105 194.339033 
L 189.643184 193.332505 
L 189.746846 193.332505 
L 189.818247 192.325977 
L 189.968017 192.325977 
L 190.007214 191.543122 
L 190.10871 191.543122 
L 190.139819 191.095776 
L 190.263697 191.095776 
L 190.356022 190.536594 
L 190.855135 190.536594 
L 190.855135 190.424757 
L 191.055213 190.424757 
L 191.165369 188.299865 
L 191.216535 188.299865 
L 191.311154 187.628846 
L 191.840057 187.628846 
L 191.840057 187.51701 
L 191.973271 187.51701 
L 192.029053 186.845991 
L 192.209107 186.845991 
L 192.312132 186.286809 
L 192.36 186.286809 
L 192.455338 185.61579 
L 192.610825 185.61579 
L 192.610825 185.503954 
L 192.751574 185.503954 
L 192.818195 185.056608 
L 192.884558 185.056608 
L 192.983624 184.273753 
L 193.01652 184.273753 
L 193.108295 183.826407 
L 193.153999 183.826407 
L 193.238557 183.490898 
L 193.283917 183.490898 
L 193.380715 182.819879 
L 193.406436 182.819879 
L 193.419282 182.596206 
L 193.693175 182.596206 
L 193.800266 182.14886 
L 193.806545 182.14886 
L 193.906694 181.589678 
L 193.919172 181.589678 
L 193.956551 181.366005 
L 194.71139 181.366005 
L 194.71139 181.254169 
L 195.96303 181.254169 
L 195.96303 181.142332 
L 196.089921 181.142332 
L 196.117383 180.918659 
L 196.427381 180.918659 
L 196.45969 180.694986 
L 196.689474 180.694986 
L 196.705391 180.471314 
L 196.963311 180.471314 
L 197.020683 179.800295 
L 197.114153 179.800295 
L 197.207118 178.905603 
L 197.309827 178.905603 
L 197.396649 177.451729 
L 197.442436 177.451729 
L 197.442436 177.339893 
L 197.799436 177.339893 
L 197.799436 177.228057 
L 198.134538 177.228057 
L 198.217302 176.892547 
L 198.256112 176.892547 
L 198.333471 176.333365 
L 198.39607 176.333365 
L 198.410484 176.109692 
L 198.511042 176.109692 
L 198.577755 175.55051 
L 198.648948 175.55051 
L 198.75754 174.767655 
L 198.762246 174.767655 
L 198.781057 174.320309 
L 198.898159 174.320309 
L 198.898159 174.208472 
L 199.740776 174.208472 
L 199.740776 174.096636 
L 200.805016 174.096636 
L 200.896687 173.425617 
L 200.917453 173.425617 
L 201.008528 172.754599 
L 201.074462 172.754599 
L 201.156526 171.971743 
L 201.209658 171.971743 
L 201.213739 171.748071 
L 201.589034 171.748071 
L 201.692507 170.741543 
L 202.266088 170.741543 
L 202.377017 170.070524 
L 202.38083 170.070524 
L 202.472075 169.735014 
L 202.506167 169.735014 
L 202.547744 169.287669 
L 202.74294 169.287669 
L 202.772774 169.063996 
L 202.861968 169.063996 
L 202.950701 168.61665 
L 203.064641 168.61665 
L 203.166909 168.281141 
L 203.185107 168.281141 
L 203.185107 168.169304 
L 203.326396 168.169304 
L 203.373236 167.721958 
L 203.880219 167.721958 
L 203.880219 167.610122 
L 204.105813 167.610122 
L 204.105813 167.498286 
L 204.219223 167.498286 
L 204.219223 167.386449 
L 204.426908 167.386449 
L 204.524771 167.05094 
L 204.615386 167.05094 
L 204.615386 166.939103 
L 204.745437 166.939103 
L 204.745437 166.827267 
L 205.352493 166.827267 
L 205.352493 166.603594 
L 205.489834 166.603594 
L 205.594496 166.379921 
L 206.442752 166.379921 
L 206.442752 166.268085 
L 206.574671 166.268085 
L 206.664039 166.044412 
L 206.687792 166.044412 
L 206.711513 165.820739 
L 206.829626 165.820739 
L 206.829626 165.708902 
L 207.121406 165.708902 
L 207.127192 165.485229 
L 207.282665 165.485229 
L 207.337036 165.261557 
L 207.538703 165.261557 
L 207.541527 165.037884 
L 207.673713 165.037884 
L 207.710097 164.814211 
L 207.893634 164.814211 
L 207.995675 164.590538 
L 208.091646 164.590538 
L 208.184365 164.366865 
L 208.376386 164.366865 
L 208.483629 163.58401 
L 208.66971 163.58401 
L 208.714599 163.2485 
L 208.811895 163.2485 
L 208.903427 162.912991 
L 208.926885 162.912991 
L 208.939904 162.689318 
L 209.110831 162.689318 
L 209.141727 162.353809 
L 209.40719 162.353809 
L 209.40719 162.241972 
L 209.618649 162.241972 
L 209.618649 162.130136 
L 209.800328 162.130136 
L 209.879367 161.68279 
L 209.943319 161.68279 
L 210.014371 161.347281 
L 210.158024 161.347281 
L 210.216118 161.011772 
L 210.281239 161.011772 
L 210.331719 160.564426 
L 210.798187 160.564426 
L 210.798187 160.452589 
L 211.367971 160.452589 
L 211.367971 160.340753 
L 211.596944 160.340753 
L 211.703649 160.11708 
L 211.792067 160.11708 
L 211.792067 160.005243 
L 211.971915 160.005243 
L 211.971915 159.893407 
L 212.160693 159.893407 
L 212.251091 159.446061 
L 212.426223 159.446061 
L 212.426223 159.334225 
L 212.781634 159.334225 
L 212.835666 159.110552 
L 213.031659 159.110552 
L 213.031659 158.998715 
L 213.215298 158.998715 
L 213.29225 158.775043 
L 213.511086 158.775043 
L 213.511086 158.663206 
L 213.754729 158.663206 
L 213.754729 158.55137 
L 213.981385 158.55137 
L 214.070444 158.21586 
L 214.155202 158.21586 
L 214.155202 158.104024 
L 214.382361 158.104024 
L 214.490115 157.880351 
L 214.690582 157.880351 
L 214.744514 157.656678 
L 214.816777 157.656678 
L 214.816777 157.544842 
L 215.091916 157.544842 
L 215.091916 157.433005 
L 216.559584 157.433005 
L 216.62129 157.209332 
L 216.68941 157.209332 
L 216.68941 157.097496 
L 217.194293 157.097496 
L 217.194293 156.985659 
L 217.344986 156.985659 
L 217.344986 156.873823 
L 217.574877 156.873823 
L 217.574877 156.761987 
L 217.74569 156.761987 
L 217.828136 156.538314 
L 218.358372 156.538314 
L 218.404955 156.314641 
L 218.891712 156.314641 
L 218.891712 156.202804 
L 219.362226 156.202804 
L 219.39484 155.979131 
L 219.867128 155.979131 
L 219.867128 155.867295 
L 221.294709 155.867295 
L 221.294709 155.755458 
L 221.641279 155.755458 
L 221.641279 155.643622 
L 221.807054 155.643622 
L 221.807054 155.531786 
L 222.551565 155.531786 
L 222.551565 155.419949 
L 223.056924 155.419949 
L 223.056924 155.308113 
L 223.290027 155.308113 
L 223.290027 155.196276 
L 223.587855 155.196276 
L 223.680844 154.972603 
L 223.943788 154.972603 
L 223.943788 154.860767 
L 224.800583 154.860767 
L 224.800583 154.74893 
L 225.678723 154.74893 
L 225.678723 154.637094 
L 226.078011 154.637094 
L 226.078011 154.525258 
L 226.576786 154.525258 
L 226.576786 154.413421 
L 227.642853 154.413421 
L 227.642853 154.301585 
L 228.054341 154.301585 
L 228.054341 154.189748 
L 228.587826 154.189748 
L 228.587826 154.077912 
L 230.556102 154.077912 
L 230.556102 153.966075 
L 232.449712 153.966075 
L 232.449712 153.854239 
L 232.737619 153.854239 
L 232.737619 153.742402 
L 233.159999 153.742402 
L 233.159999 153.630566 
L 234.111985 153.630566 
L 234.111985 153.51873 
L 234.2564 153.51873 
L 234.2564 153.406893 
L 234.443937 153.406893 
L 234.443937 153.295057 
L 235.362182 153.295057 
L 235.362182 153.18322 
L 237.085725 153.18322 
L 237.085725 153.071384 
L 238.126139 153.071384 
L 238.126139 152.959547 
L 239.328918 152.959547 
L 239.328918 152.847711 
L 243.057763 152.847711 
L 243.057763 152.735874 
L 244.978231 152.735874 
L 244.978231 152.624038 
L 247.333386 152.624038 
L 247.333386 152.512201 
L 248.8096 152.512201 
L 248.8096 152.400365 
L 257.996469 152.400365 
L 257.996469 152.288529 
L 259.472294 152.288529 
L 259.472294 152.176692 
L 269.199846 152.176692 
L 269.199846 152.064856 
L 273.69696 152.064856 
L 273.723046 151.841183 
L 277.333855 151.841183 
L 277.333855 151.729346 
L 333.168 151.729346 
L 333.168 151.729346 
" style="fill:none;stroke:#000080;stroke-linecap:square;stroke-width:1.5;"/>
   </g>
   <g id="line2d_44">
    <defs>
     <path d="M 0 6 
C 1.591219 6 3.117479 5.367802 4.242641 4.242641 
C 5.367802 3.117479 6 1.591219 6 0 
C 6 -1.591219 5.367802 -3.117479 4.242641 -4.242641 
C 3.117479 -5.367802 1.591219 -6 0 -6 
C -1.591219 -6 -3.117479 -5.367802 -4.242641 -4.242641 
C -5.367802 -3.117479 -6 -1.591219 -6 0 
C -6 1.591219 -5.367802 3.117479 -4.242641 4.242641 
C -3.117479 5.367802 -1.591219 6 0 6 
z
" id="m841ab3ce68" style="stroke:#000080;stroke-width:1.5;"/>
    </defs>
    <g>
     <use style="fill:none;stroke:#000080;stroke-width:1.5;" x="81.973032" xlink:href="#m841ab3ce68" y="282.018808"/>
     <use style="fill:none;stroke:#000080;stroke-width:1.5;" x="164.854774" xlink:href="#m841ab3ce68" y="222.857327"/>
     <use style="fill:none;stroke:#000080;stroke-width:1.5;" x="221.807054" xlink:href="#m841ab3ce68" y="155.531786"/>
     <use style="fill:none;stroke:#000080;stroke-width:1.5;" x="277.333855" xlink:href="#m841ab3ce68" y="151.841183"/>
     <use style="fill:none;stroke:#000080;stroke-width:1.5;" x="277.333855" xlink:href="#m841ab3ce68" y="151.729346"/>
     <use style="fill:none;stroke:#000080;stroke-width:1.5;" x="333.168" xlink:href="#m841ab3ce68" y="151.729346"/>
    </g>
   </g>
   <g id="line2d_45">
    <path style="fill:none;stroke:#000080;stroke-linecap:square;stroke-width:1.5;"/>
    <g/>
   </g>
   <g id="line2d_46">
    <path clip-path="url(#pfa197cdd20)" d="M 202.399533 169.958687 
" style="fill:none;stroke:#000080;stroke-linecap:square;stroke-width:1.5;"/>
    <defs>
     <path d="M -12 12 
L 12 -12 
M -12 -12 
L 12 12 
" id="meb1362dfae" style="stroke:#000080;"/>
    </defs>
    <g clip-path="url(#pfa197cdd20)">
     <use style="fill:#000080;stroke:#000080;" x="202.399533" xlink:href="#meb1362dfae" y="169.958687"/>
    </g>
   </g>
   <g id="line2d_47">
    <defs>
     <path d="M 0 1.5 
C 0.397805 1.5 0.77937 1.341951 1.06066 1.06066 
C 1.341951 0.77937 1.5 0.397805 1.5 0 
C 1.5 -0.397805 1.341951 -0.77937 1.06066 -1.06066 
C 0.77937 -1.341951 0.397805 -1.5 0 -1.5 
C -0.397805 -1.5 -0.77937 -1.341951 -1.06066 -1.06066 
C -1.341951 -0.77937 -1.5 -0.397805 -1.5 0 
C -1.5 0.397805 -1.341951 0.77937 -1.06066 1.06066 
C -0.77937 1.341951 -0.397805 1.5 0 1.5 
z
" id="m6339b70bee" style="stroke:#ff00ff;"/>
    </defs>
    <g>
     <use style="fill:#ff00ff;stroke:#ff00ff;" x="214.923019" xlink:href="#m6339b70bee" y="249.027056"/>
     <use style="fill:#ff00ff;stroke:#ff00ff;" x="214.923019" xlink:href="#m6339b70bee" y="249.027056"/>
    </g>
   </g>
   <g id="line2d_48">
    <path d="M 16.541714 294.88 
L 16.541714 287.498794 
L 74.42092 287.498794 
L 74.42092 287.386958 
L 79.948502 287.386958 
L 79.948502 287.275122 
L 80.372935 287.275122 
L 80.372935 287.163285 
L 83.436778 287.163285 
L 83.436778 287.051449 
L 87.481505 287.051449 
L 87.481505 286.939612 
L 89.069276 286.939612 
L 89.069276 286.827776 
L 93.695229 286.827776 
L 93.695229 286.715939 
L 94.077214 286.715939 
L 94.077214 286.604103 
L 98.688305 286.604103 
L 98.688305 286.38043 
L 100.856673 286.38043 
L 100.856673 286.268593 
L 101.23446 286.268593 
L 101.23446 286.156757 
L 101.84622 286.156757 
L 101.84622 286.044921 
L 101.966002 286.044921 
L 101.966002 285.933084 
L 102.436953 285.933084 
L 102.436953 285.821248 
L 103.008056 285.821248 
L 103.008056 285.709411 
L 103.560793 285.709411 
L 103.669239 285.262065 
L 103.990531 285.262065 
L 103.990531 285.150229 
L 104.305927 285.150229 
L 104.305927 285.038393 
L 104.513022 285.038393 
L 104.615641 284.702883 
L 105.020098 284.702883 
L 105.020098 284.591047 
L 105.317315 284.591047 
L 105.317315 284.47921 
L 105.512642 284.47921 
L 105.60948 284.143701 
L 105.705775 284.143701 
L 105.705775 283.808192 
L 105.896762 283.808192 
L 105.991465 283.472682 
L 108.369127 283.472682 
L 108.369127 283.360846 
L 110.014853 283.360846 
L 110.014853 283.249009 
L 111.379177 283.249009 
L 111.379177 283.137173 
L 114.639127 283.137173 
L 114.639127 283.025336 
L 115.420563 283.025336 
L 115.420563 282.801664 
L 115.904782 282.801664 
L 115.957752 282.354318 
L 116.220179 282.354318 
L 116.220179 282.130645 
L 116.427273 282.130645 
L 116.427273 281.906972 
L 116.682681 281.906972 
L 116.682681 281.683299 
L 117.182386 281.683299 
L 117.182386 281.571463 
L 117.715785 281.571463 
L 117.763465 281.34779 
L 117.952873 281.34779 
L 117.952873 281.235953 
L 118.093572 281.235953 
L 118.186736 280.900444 
L 118.279397 280.900444 
L 118.371562 280.676771 
L 118.508888 280.676771 
L 118.599834 280.453098 
L 118.645127 280.453098 
L 118.645127 280.341262 
L 118.825114 280.341262 
L 118.825114 280.117589 
L 118.958878 280.117589 
L 118.958878 279.782079 
L 119.135627 279.782079 
L 119.179531 279.222897 
L 119.483763 279.222897 
L 119.483763 279.111061 
L 119.740314 279.111061 
L 119.740314 278.999224 
L 119.867168 278.999224 
L 119.867168 278.887388 
L 120.283378 278.887388 
L 120.365424 278.551879 
L 120.689748 278.551879 
L 120.769881 277.992696 
L 122.480659 277.992696 
L 122.588877 277.769023 
L 122.979949 277.769023 
L 122.979949 277.657187 
L 123.36232 277.657187 
L 123.36232 277.545351 
L 123.7027 277.545351 
L 123.7027 277.433514 
L 124.135351 277.433514 
L 124.135351 277.321678 
L 125.000572 277.321678 
L 125.062963 277.098005 
L 125.279564 277.098005 
L 125.279564 276.986168 
L 125.463074 276.986168 
L 125.5541 276.650659 
L 125.644646 276.650659 
L 125.734717 276.203313 
L 125.764637 276.203313 
L 125.764637 276.091477 
L 125.883796 276.091477 
L 125.972626 275.755967 
L 126.090357 275.755967 
L 126.178129 275.308622 
L 126.207287 275.308622 
L 126.265455 275.084949 
L 126.323427 275.084949 
L 126.410019 274.749439 
L 126.438787 274.749439 
L 126.467507 274.525766 
L 126.610389 274.525766 
L 126.610389 274.41393 
L 126.808449 274.41393 
L 126.808449 274.302094 
L 127.92481 274.302094 
L 127.92481 274.190257 
L 128.160453 274.190257 
L 128.212383 273.966584 
L 128.418546 273.966584 
L 128.418546 273.854748 
L 128.571561 273.854748 
L 128.622265 273.631075 
L 128.698042 273.631075 
L 128.698042 273.519238 
L 128.973066 273.519238 
L 128.973066 273.407402 
L 129.437982 273.407402 
L 129.437982 273.295566 
L 129.677716 273.295566 
L 129.677716 273.183729 
L 129.984454 273.183729 
L 129.984454 273.071893 
L 130.124199 273.071893 
L 130.124199 272.960056 
L 130.850907 272.960056 
L 130.850907 272.84822 
L 131.823497 272.84822 
L 131.823497 272.736383 
L 132.135837 272.736383 
L 132.135837 272.624547 
L 132.42232 272.624547 
L 132.42232 272.51271 
L 132.644112 272.51271 
L 132.644112 272.400874 
L 132.902593 272.400874 
L 132.902593 272.289037 
L 133.020593 272.289037 
L 133.079291 271.841692 
L 133.484656 271.841692 
L 133.484656 271.729855 
L 134.176407 271.729855 
L 134.176407 271.618019 
L 134.322384 271.618019 
L 134.322384 271.506182 
L 136.375154 271.506182 
L 136.375154 271.394346 
L 136.67882 271.394346 
L 136.67882 271.282509 
L 137.708755 271.282509 
L 137.708755 271.170673 
L 137.960554 271.170673 
L 138.04855 270.947 
L 139.180721 270.947 
L 139.180721 270.835164 
L 139.4255 270.835164 
L 139.4255 270.723327 
L 139.69345 270.723327 
L 139.69345 270.611491 
L 139.891706 270.611491 
L 139.891706 270.499654 
L 140.009571 270.499654 
L 140.035654 270.275981 
L 140.165478 270.275981 
L 140.165478 270.164145 
L 140.473113 270.164145 
L 140.523855 269.940472 
L 140.687737 269.940472 
L 140.687737 269.828636 
L 140.800286 269.828636 
L 140.800286 269.716799 
L 140.986245 269.716799 
L 140.986245 269.604963 
L 141.55622 269.604963 
L 141.639516 269.38129 
L 142.268865 269.38129 
L 142.268865 269.269453 
L 142.43967 269.269453 
L 142.43967 269.157617 
L 142.765159 269.157617 
L 142.864932 268.933944 
L 143.117307 268.933944 
L 143.117307 268.822108 
L 143.515683 268.822108 
L 143.621786 268.598435 
L 144.091308 268.598435 
L 144.091308 268.486598 
L 144.427651 268.486598 
L 144.427651 268.374762 
L 144.925042 268.374762 
L 144.925042 268.262925 
L 145.110339 268.262925 
L 145.110339 268.151089 
L 145.37982 268.151089 
L 145.37982 268.039252 
L 145.822874 268.039252 
L 145.822874 267.927416 
L 146.381382 267.927416 
L 146.381382 267.81558 
L 146.596243 267.81558 
L 146.596243 267.703743 
L 146.887358 267.703743 
L 146.887358 267.591907 
L 147.08738 267.591907 
L 147.08738 267.48007 
L 147.199415 267.48007 
L 147.199415 267.368234 
L 148.409915 267.368234 
L 148.497755 266.920888 
L 148.577222 266.920888 
L 148.577222 266.809052 
L 148.695737 266.809052 
L 148.695737 266.697215 
L 149.948166 266.697215 
L 150.013925 266.473542 
L 150.756099 266.473542 
L 150.860547 266.249869 
L 151.14967 266.249869 
L 151.183767 266.026196 
L 151.332999 266.026196 
L 151.427294 265.690687 
L 151.759902 265.690687 
L 151.759902 265.578851 
L 152.355575 265.578851 
L 152.425434 265.355178 
L 152.992726 265.355178 
L 152.992726 265.243341 
L 153.326732 265.243341 
L 153.332746 265.019668 
L 153.500266 265.019668 
L 153.500266 264.907832 
L 153.981673 264.907832 
L 153.981673 264.795995 
L 155.102215 264.795995 
L 155.102215 264.572323 
L 155.296378 264.572323 
L 155.360615 264.34865 
L 155.761965 264.34865 
L 155.761965 264.236813 
L 156.492636 264.236813 
L 156.552562 264.01314 
L 156.691581 264.01314 
L 156.721225 263.789467 
L 157.365541 263.789467 
L 157.365541 263.677631 
L 158.105402 263.677631 
L 158.105402 263.565795 
L 158.814726 263.565795 
L 158.814726 263.453958 
L 159.495934 263.453958 
L 159.495934 263.342122 
L 159.853438 263.342122 
L 159.906838 263.006612 
L 160.606051 263.006612 
L 160.7003 262.782939 
L 160.891135 262.782939 
L 160.891135 262.671103 
L 161.308198 262.671103 
L 161.391162 262.111921 
L 162.149174 262.111921 
L 162.149174 262.000084 
L 162.409964 262.000084 
L 162.409964 261.888248 
L 162.544168 261.888248 
L 162.544168 261.776411 
L 162.774798 261.776411 
L 162.774798 261.664575 
L 162.992095 261.664575 
L 162.992095 261.552738 
L 163.125248 261.552738 
L 163.176187 261.329066 
L 163.301196 261.329066 
L 163.301196 261.217229 
L 163.502 261.217229 
L 163.502 261.105393 
L 163.841336 261.105393 
L 163.932437 260.658047 
L 164.418728 260.658047 
L 164.418728 260.54621 
L 164.641248 260.54621 
L 164.641248 260.434374 
L 165.414517 260.434374 
L 165.414517 260.322538 
L 165.595155 260.322538 
L 165.595155 260.210701 
L 166.563059 260.210701 
L 166.563059 260.098865 
L 167.626557 260.098865 
L 167.704901 259.763355 
L 169.372262 259.763355 
L 169.4407 259.427846 
L 169.795022 259.427846 
L 169.795022 259.316009 
L 170.189603 259.316009 
L 170.189603 259.204173 
L 170.948275 259.204173 
L 170.948275 259.092337 
L 171.169071 259.092337 
L 171.169071 258.9805 
L 171.945726 258.9805 
L 171.945726 258.868664 
L 172.240419 258.868664 
L 172.256421 258.644991 
L 172.532111 258.644991 
L 172.532111 258.533154 
L 172.772434 258.533154 
L 172.772434 258.421318 
L 173.548221 258.421318 
L 173.605618 257.973972 
L 173.718004 257.973972 
L 173.718004 257.862136 
L 173.964147 257.862136 
L 173.964147 257.750299 
L 174.194315 257.750299 
L 174.194315 257.638463 
L 174.549643 257.638463 
L 174.549643 257.526626 
L 174.739306 257.526626 
L 174.739306 257.41479 
L 175.311122 257.41479 
L 175.311122 257.302953 
L 175.467747 257.302953 
L 175.467747 257.191117 
L 175.732737 257.191117 
L 175.843442 256.743771 
L 176.075551 256.743771 
L 176.075551 256.631935 
L 176.231739 256.631935 
L 176.34244 256.072752 
L 176.39281 256.072752 
L 176.39281 255.960916 
L 177.042097 255.960916 
L 177.04815 255.737243 
L 177.171766 255.737243 
L 177.171766 255.625407 
L 177.535898 255.625407 
L 177.535898 255.51357 
L 177.938508 255.51357 
L 177.938508 255.401734 
L 178.78501 255.401734 
L 178.817799 255.178061 
L 179.010536 255.178061 
L 179.010536 255.066224 
L 179.161043 255.066224 
L 179.179764 254.730715 
L 179.326153 254.730715 
L 179.326153 254.618879 
L 179.729531 254.618879 
L 179.729531 254.507042 
L 180.344884 254.507042 
L 180.344884 254.395206 
L 180.557131 254.395206 
L 180.557131 254.283369 
L 181.71504 254.283369 
L 181.71504 254.171533 
L 182.897011 254.171533 
L 182.951829 253.94786 
L 183.848776 253.94786 
L 183.849795 253.724187 
L 184.257426 253.724187 
L 184.357593 253.500514 
L 184.618642 253.500514 
L 184.618642 253.388678 
L 184.896881 253.388678 
L 184.926564 253.165005 
L 185.403021 253.165005 
L 185.403021 253.053168 
L 186.600697 253.053168 
L 186.600697 252.941332 
L 186.739863 252.941332 
L 186.739863 252.829495 
L 187.835412 252.829495 
L 187.835412 252.717659 
L 187.951334 252.717659 
L 187.951334 252.605823 
L 188.865298 252.605823 
L 188.865298 252.493986 
L 189.028842 252.493986 
L 189.028842 252.38215 
L 190.309922 252.38215 
L 190.309922 252.270313 
L 190.472815 252.270313 
L 190.472815 252.04664 
L 190.797443 252.04664 
L 190.798123 251.822967 
L 191.236428 251.822967 
L 191.236428 251.711131 
L 191.759245 251.711131 
L 191.759245 251.599295 
L 192.158932 251.599295 
L 192.158932 251.487458 
L 192.913436 251.487458 
L 192.913436 251.263785 
L 193.082123 251.263785 
L 193.083314 250.928276 
L 194.830092 250.928276 
L 194.830092 250.816439 
L 195.312564 250.816439 
L 195.312564 250.704603 
L 196.471423 250.704603 
L 196.565976 250.369094 
L 196.857549 250.369094 
L 196.857549 250.257257 
L 197.485799 250.257257 
L 197.485799 250.145421 
L 199.75572 250.145421 
L 199.75572 250.033584 
L 200.657011 250.033584 
L 200.661225 249.809911 
L 201.560706 249.809911 
L 201.589397 249.586238 
L 201.80683 249.586238 
L 201.80683 249.474402 
L 202.957069 249.474402 
L 202.957069 249.362566 
L 205.451616 249.362566 
L 205.451616 249.250729 
L 212.230978 249.250729 
L 212.230978 249.138893 
L 214.923019 249.138893 
L 214.923019 249.027056 
L 333.168 249.027056 
L 333.168 249.027056 
" style="fill:none;stroke:#ff00ff;stroke-linecap:square;stroke-width:1.5;"/>
   </g>
   <g id="line2d_49">
    <defs>
     <path d="M -0 8.485281 
L 5.091169 0 
L 0 -8.485281 
L -5.091169 -0 
z
" id="m1849647160" style="stroke:#ff00ff;stroke-linejoin:miter;stroke-width:1.5;"/>
    </defs>
    <g>
     <use style="fill:none;stroke:#ff00ff;stroke-linejoin:miter;stroke-width:1.5;" x="101.23446" xlink:href="#m1849647160" y="286.268593"/>
     <use style="fill:none;stroke:#ff00ff;stroke-linejoin:miter;stroke-width:1.5;" x="177.535898" xlink:href="#m1849647160" y="255.625407"/>
     <use style="fill:none;stroke:#ff00ff;stroke-linejoin:miter;stroke-width:1.5;" x="214.923019" xlink:href="#m1849647160" y="249.138893"/>
     <use style="fill:none;stroke:#ff00ff;stroke-linejoin:miter;stroke-width:1.5;" x="214.923019" xlink:href="#m1849647160" y="249.027056"/>
     <use style="fill:none;stroke:#ff00ff;stroke-linejoin:miter;stroke-width:1.5;" x="214.923019" xlink:href="#m1849647160" y="249.027056"/>
     <use style="fill:none;stroke:#ff00ff;stroke-linejoin:miter;stroke-width:1.5;" x="333.168" xlink:href="#m1849647160" y="249.027056"/>
    </g>
   </g>
   <g id="line2d_50">
    <path style="fill:none;stroke:#ff00ff;stroke-linecap:square;stroke-width:1.5;"/>
    <g/>
   </g>
   <g id="line2d_51">
    <path clip-path="url(#pfa197cdd20)" d="M 147.190823 267.48007 
" style="fill:none;stroke:#ff00ff;stroke-linecap:square;stroke-width:1.5;"/>
    <defs>
     <path d="M -12 12 
L 12 -12 
M -12 -12 
L 12 12 
" id="me48db1ad08" style="stroke:#ff00ff;"/>
    </defs>
    <g clip-path="url(#pfa197cdd20)">
     <use style="fill:#ff00ff;stroke:#ff00ff;" x="147.190823" xlink:href="#me48db1ad08" y="267.48007"/>
    </g>
   </g>
   <g id="line2d_52">
    <path d="M 333.168 249.027056 
L 363.64328 289.176341 
" style="fill:none;stroke:#ff00ff;stroke-linecap:square;stroke-width:1.5;"/>
    <g>
     <use style="fill:none;stroke:#ff00ff;stroke-linejoin:miter;stroke-width:1.5;" x="333.168" xlink:href="#m1849647160" y="249.027056"/>
     <use style="fill:none;stroke:#ff00ff;stroke-linejoin:miter;stroke-width:1.5;" x="363.64328" xlink:href="#m1849647160" y="289.176341"/>
    </g>
   </g>
   <g id="line2d_53">
    <path d="M 333.168 151.729346 
L 363.64328 152.288529 
" style="fill:none;stroke:#000080;stroke-linecap:square;stroke-width:1.5;"/>
    <g>
     <use style="fill:none;stroke:#000080;stroke-width:1.5;" x="333.168" xlink:href="#m841ab3ce68" y="151.729346"/>
     <use style="fill:none;stroke:#000080;stroke-width:1.5;" x="363.64328" xlink:href="#m841ab3ce68" y="152.288529"/>
    </g>
   </g>
   <g id="line2d_54">
    <path d="M 333.168 294.88 
L 333.168 9.697057 
" style="fill:none;stroke:#000000;stroke-linecap:square;stroke-width:1.5;"/>
   </g>
   <g id="patch_3">
    <path d="M 56.12 294.88 
L 56.12 6.845228 
" style="fill:none;stroke:#000000;stroke-linecap:square;stroke-linejoin:miter;stroke-width:0.8;"/>
   </g>
   <g id="patch_4">
    <path d="M 333.168 294.88 
L 333.168 6.845228 
" style="fill:none;stroke:#000000;stroke-linecap:square;stroke-linejoin:miter;stroke-width:0.8;"/>
   </g>
   <g id="patch_5">
    <path d="M 56.12 294.88 
L 333.168 294.88 
" style="fill:none;stroke:#000000;stroke-linecap:square;stroke-linejoin:miter;stroke-width:0.8;"/>
   </g>
   <g id="patch_6">
    <path d="M 56.12 6.845228 
L 333.168 6.845228 
" style="fill:none;stroke:#000000;stroke-linecap:square;stroke-linejoin:miter;stroke-width:0.8;"/>
   </g>
   <g id="text_13">
    <!-- scipy-opt -->
    <defs>
     <path d="M 32.171875 -5.078125 
Q 28.375 -14.84375 24.75 -17.8125 
Q 21.140625 -20.796875 15.09375 -20.796875 
L 7.90625 -20.796875 
L 7.90625 -13.28125 
L 13.1875 -13.28125 
Q 16.890625 -13.28125 18.9375 -11.515625 
Q 21 -9.765625 23.484375 -3.21875 
L 25.09375 0.875 
L 2.984375 54.6875 
L 12.5 54.6875 
L 29.59375 11.921875 
L 46.6875 54.6875 
L 56.203125 54.6875 
z
" id="DejaVuSans-79"/>
    </defs>
    <g transform="translate(369.18424 293.867279)scale(0.17 -0.17)">
     <use xlink:href="#DejaVuSans-73"/>
     <use x="52.099609" xlink:href="#DejaVuSans-63"/>
     <use x="107.080078" xlink:href="#DejaVuSans-69"/>
     <use x="134.863281" xlink:href="#DejaVuSans-70"/>
     <use x="198.339844" xlink:href="#DejaVuSans-79"/>
     <use x="257.503906" xlink:href="#DejaVuSans-2d"/>
     <use x="293.603516" xlink:href="#DejaVuSans-6f"/>
     <use x="354.785156" xlink:href="#DejaVuSans-70"/>
     <use x="418.261719" xlink:href="#DejaVuSans-74"/>
    </g>
   </g>
   <g id="text_14">
    <!-- BFGS ros  -->
    <defs>
     <path d="M 19.671875 34.8125 
L 19.671875 8.109375 
L 35.5 8.109375 
Q 43.453125 8.109375 47.28125 11.40625 
Q 51.125 14.703125 51.125 21.484375 
Q 51.125 28.328125 47.28125 31.5625 
Q 43.453125 34.8125 35.5 34.8125 
z
M 19.671875 64.796875 
L 19.671875 42.828125 
L 34.28125 42.828125 
Q 41.5 42.828125 45.03125 45.53125 
Q 48.578125 48.25 48.578125 53.8125 
Q 48.578125 59.328125 45.03125 62.0625 
Q 41.5 64.796875 34.28125 64.796875 
z
M 9.8125 72.90625 
L 35.015625 72.90625 
Q 46.296875 72.90625 52.390625 68.21875 
Q 58.5 63.53125 58.5 54.890625 
Q 58.5 48.1875 55.375 44.234375 
Q 52.25 40.28125 46.1875 39.3125 
Q 53.46875 37.75 57.5 32.78125 
Q 61.53125 27.828125 61.53125 20.40625 
Q 61.53125 10.640625 54.890625 5.3125 
Q 48.25 0 35.984375 0 
L 9.8125 0 
z
" id="DejaVuSans-42"/>
     <path d="M 59.515625 10.40625 
L 59.515625 29.984375 
L 43.40625 29.984375 
L 43.40625 38.09375 
L 69.28125 38.09375 
L 69.28125 6.78125 
Q 63.578125 2.734375 56.6875 0.65625 
Q 49.8125 -1.421875 42 -1.421875 
Q 24.90625 -1.421875 15.25 8.5625 
Q 5.609375 18.5625 5.609375 36.375 
Q 5.609375 54.25 15.25 64.234375 
Q 24.90625 74.21875 42 74.21875 
Q 49.125 74.21875 55.546875 72.453125 
Q 61.96875 70.703125 67.390625 67.28125 
L 67.390625 56.78125 
Q 61.921875 61.421875 55.765625 63.765625 
Q 49.609375 66.109375 42.828125 66.109375 
Q 29.4375 66.109375 22.71875 58.640625 
Q 16.015625 51.171875 16.015625 36.375 
Q 16.015625 21.625 22.71875 14.15625 
Q 29.4375 6.6875 42.828125 6.6875 
Q 48.046875 6.6875 52.140625 7.59375 
Q 56.25 8.5 59.515625 10.40625 
z
" id="DejaVuSans-47"/>
     <path d="M 53.515625 70.515625 
L 53.515625 60.890625 
Q 47.90625 63.578125 42.921875 64.890625 
Q 37.9375 66.21875 33.296875 66.21875 
Q 25.25 66.21875 20.875 63.09375 
Q 16.5 59.96875 16.5 54.203125 
Q 16.5 49.359375 19.40625 46.890625 
Q 22.3125 44.4375 30.421875 42.921875 
L 36.375 41.703125 
Q 47.40625 39.59375 52.65625 34.296875 
Q 57.90625 29 57.90625 20.125 
Q 57.90625 9.515625 50.796875 4.046875 
Q 43.703125 -1.421875 29.984375 -1.421875 
Q 24.8125 -1.421875 18.96875 -0.25 
Q 13.140625 0.921875 6.890625 3.21875 
L 6.890625 13.375 
Q 12.890625 10.015625 18.65625 8.296875 
Q 24.421875 6.59375 29.984375 6.59375 
Q 38.421875 6.59375 43.015625 9.90625 
Q 47.609375 13.234375 47.609375 19.390625 
Q 47.609375 24.75 44.3125 27.78125 
Q 41.015625 30.8125 33.5 32.328125 
L 27.484375 33.5 
Q 16.453125 35.6875 11.515625 40.375 
Q 6.59375 45.0625 6.59375 53.421875 
Q 6.59375 63.09375 13.40625 68.65625 
Q 20.21875 74.21875 32.171875 74.21875 
Q 37.3125 74.21875 42.625 73.28125 
Q 47.953125 72.359375 53.515625 70.515625 
z
" id="DejaVuSans-53"/>
    </defs>
    <g transform="translate(369.18424 156.979466)scale(0.17 -0.17)">
     <use xlink:href="#DejaVuSans-42"/>
     <use x="68.603516" xlink:href="#DejaVuSans-46"/>
     <use x="126.123047" xlink:href="#DejaVuSans-47"/>
     <use x="203.613281" xlink:href="#DejaVuSans-53"/>
     <use x="267.089844" xlink:href="#DejaVuSans-20"/>
     <use x="298.876953" xlink:href="#DejaVuSans-72"/>
     <use x="339.958984" xlink:href="#DejaVuSans-6f"/>
     <use x="401.140625" xlink:href="#DejaVuSans-73"/>
     <use x="453.240234" xlink:href="#DejaVuSans-20"/>
    </g>
   </g>
   <g id="text_15">
    <!-- best 2009 -->
    <defs>
     <path d="M 48.6875 27.296875 
Q 48.6875 37.203125 44.609375 42.84375 
Q 40.53125 48.484375 33.40625 48.484375 
Q 26.265625 48.484375 22.1875 42.84375 
Q 18.109375 37.203125 18.109375 27.296875 
Q 18.109375 17.390625 22.1875 11.75 
Q 26.265625 6.109375 33.40625 6.109375 
Q 40.53125 6.109375 44.609375 11.75 
Q 48.6875 17.390625 48.6875 27.296875 
z
M 18.109375 46.390625 
Q 20.953125 51.265625 25.265625 53.625 
Q 29.59375 56 35.59375 56 
Q 45.5625 56 51.78125 48.09375 
Q 58.015625 40.1875 58.015625 27.296875 
Q 58.015625 14.40625 51.78125 6.484375 
Q 45.5625 -1.421875 35.59375 -1.421875 
Q 29.59375 -1.421875 25.265625 0.953125 
Q 20.953125 3.328125 18.109375 8.203125 
L 18.109375 0 
L 9.078125 0 
L 9.078125 75.984375 
L 18.109375 75.984375 
z
" id="DejaVuSans-62"/>
     <path d="M 10.984375 1.515625 
L 10.984375 10.5 
Q 14.703125 8.734375 18.5 7.8125 
Q 22.3125 6.890625 25.984375 6.890625 
Q 35.75 6.890625 40.890625 13.453125 
Q 46.046875 20.015625 46.78125 33.40625 
Q 43.953125 29.203125 39.59375 26.953125 
Q 35.25 24.703125 29.984375 24.703125 
Q 19.046875 24.703125 12.671875 31.3125 
Q 6.296875 37.9375 6.296875 49.421875 
Q 6.296875 60.640625 12.9375 67.421875 
Q 19.578125 74.21875 30.609375 74.21875 
Q 43.265625 74.21875 49.921875 64.515625 
Q 56.59375 54.828125 56.59375 36.375 
Q 56.59375 19.140625 48.40625 8.859375 
Q 40.234375 -1.421875 26.421875 -1.421875 
Q 22.703125 -1.421875 18.890625 -0.6875 
Q 15.09375 0.046875 10.984375 1.515625 
z
M 30.609375 32.421875 
Q 37.25 32.421875 41.125 36.953125 
Q 45.015625 41.5 45.015625 49.421875 
Q 45.015625 57.28125 41.125 61.84375 
Q 37.25 66.40625 30.609375 66.40625 
Q 23.96875 66.40625 20.09375 61.84375 
Q 16.21875 57.28125 16.21875 49.421875 
Q 16.21875 41.5 20.09375 36.953125 
Q 23.96875 32.421875 30.609375 32.421875 
z
" id="DejaVuSans-39"/>
    </defs>
    <g transform="translate(369.18424 20.091654)scale(0.17 -0.17)">
     <use xlink:href="#DejaVuSans-62"/>
     <use x="63.476562" xlink:href="#DejaVuSans-65"/>
     <use x="125" xlink:href="#DejaVuSans-73"/>
     <use x="177.099609" xlink:href="#DejaVuSans-74"/>
     <use x="216.308594" xlink:href="#DejaVuSans-20"/>
     <use x="248.095703" xlink:href="#DejaVuSans-32"/>
     <use x="311.71875" xlink:href="#DejaVuSans-30"/>
     <use x="375.341797" xlink:href="#DejaVuSans-30"/>
     <use x="438.964844" xlink:href="#DejaVuSans-39"/>
    </g>
   </g>
   <g id="text_16">
    <!-- bbob f20-f24, 10-D -->
    <defs>
     <path d="M 19.671875 64.796875 
L 19.671875 8.109375 
L 31.59375 8.109375 
Q 46.6875 8.109375 53.6875 14.9375 
Q 60.6875 21.78125 60.6875 36.53125 
Q 60.6875 51.171875 53.6875 57.984375 
Q 46.6875 64.796875 31.59375 64.796875 
z
M 9.8125 72.90625 
L 30.078125 72.90625 
Q 51.265625 72.90625 61.171875 64.09375 
Q 71.09375 55.28125 71.09375 36.53125 
Q 71.09375 17.671875 61.125 8.828125 
Q 51.171875 0 30.078125 0 
L 9.8125 0 
z
" id="DejaVuSans-44"/>
    </defs>
    <g transform="translate(58.89048 17.475982)scale(0.102 -0.102)">
     <use xlink:href="#DejaVuSans-62"/>
     <use x="63.476562" xlink:href="#DejaVuSans-62"/>
     <use x="126.953125" xlink:href="#DejaVuSans-6f"/>
     <use x="188.134766" xlink:href="#DejaVuSans-62"/>
     <use x="251.611328" xlink:href="#DejaVuSans-20"/>
     <use x="283.398438" xlink:href="#DejaVuSans-66"/>
     <use x="318.603516" xlink:href="#DejaVuSans-32"/>
     <use x="382.226562" xlink:href="#DejaVuSans-30"/>
     <use x="445.849609" xlink:href="#DejaVuSans-2d"/>
     <use x="481.933594" xlink:href="#DejaVuSans-66"/>
     <use x="517.138672" xlink:href="#DejaVuSans-32"/>
     <use x="580.761719" xlink:href="#DejaVuSans-34"/>
     <use x="644.384766" xlink:href="#DejaVuSans-2c"/>
     <use x="676.171875" xlink:href="#DejaVuSans-20"/>
     <use x="707.958984" xlink:href="#DejaVuSans-31"/>
     <use x="771.582031" xlink:href="#DejaVuSans-30"/>
     <use x="835.205078" xlink:href="#DejaVuSans-2d"/>
     <use x="871.289062" xlink:href="#DejaVuSans-44"/>
    </g>
    <!-- 51 targets: 100..1e-08 -->
    <defs>
     <path d="M 10.796875 72.90625 
L 49.515625 72.90625 
L 49.515625 64.59375 
L 19.828125 64.59375 
L 19.828125 46.734375 
Q 21.96875 47.46875 24.109375 47.828125 
Q 26.265625 48.1875 28.421875 48.1875 
Q 40.625 48.1875 47.75 41.5 
Q 54.890625 34.8125 54.890625 23.390625 
Q 54.890625 11.625 47.5625 5.09375 
Q 40.234375 -1.421875 26.90625 -1.421875 
Q 22.3125 -1.421875 17.546875 -0.640625 
Q 12.796875 0.140625 7.71875 1.703125 
L 7.71875 11.625 
Q 12.109375 9.234375 16.796875 8.0625 
Q 21.484375 6.890625 26.703125 6.890625 
Q 35.15625 6.890625 40.078125 11.328125 
Q 45.015625 15.765625 45.015625 23.390625 
Q 45.015625 31 40.078125 35.4375 
Q 35.15625 39.890625 26.703125 39.890625 
Q 22.75 39.890625 18.8125 39.015625 
Q 14.890625 38.140625 10.796875 36.28125 
z
" id="DejaVuSans-35"/>
     <path d="M 11.71875 12.40625 
L 22.015625 12.40625 
L 22.015625 0 
L 11.71875 0 
z
M 11.71875 51.703125 
L 22.015625 51.703125 
L 22.015625 39.3125 
L 11.71875 39.3125 
z
" id="DejaVuSans-3a"/>
    </defs>
    <g transform="translate(58.89048 28.89775)scale(0.102 -0.102)">
     <use xlink:href="#DejaVuSans-35"/>
     <use x="63.623047" xlink:href="#DejaVuSans-31"/>
     <use x="127.246094" xlink:href="#DejaVuSans-20"/>
     <use x="159.033203" xlink:href="#DejaVuSans-74"/>
     <use x="198.242188" xlink:href="#DejaVuSans-61"/>
     <use x="259.521484" xlink:href="#DejaVuSans-72"/>
     <use x="300.619141" xlink:href="#DejaVuSans-67"/>
     <use x="364.095703" xlink:href="#DejaVuSans-65"/>
     <use x="425.619141" xlink:href="#DejaVuSans-74"/>
     <use x="464.828125" xlink:href="#DejaVuSans-73"/>
     <use x="516.927734" xlink:href="#DejaVuSans-3a"/>
     <use x="550.619141" xlink:href="#DejaVuSans-20"/>
     <use x="582.40625" xlink:href="#DejaVuSans-31"/>
     <use x="646.029297" xlink:href="#DejaVuSans-30"/>
     <use x="709.652344" xlink:href="#DejaVuSans-30"/>
     <use x="773.275391" xlink:href="#DejaVuSans-2e"/>
     <use x="805.0625" xlink:href="#DejaVuSans-2e"/>
     <use x="836.849609" xlink:href="#DejaVuSans-31"/>
     <use x="900.472656" xlink:href="#DejaVuSans-65"/>
     <use x="961.996094" xlink:href="#DejaVuSans-2d"/>
     <use x="998.080078" xlink:href="#DejaVuSans-30"/>
     <use x="1061.703125" xlink:href="#DejaVuSans-38"/>
    </g>
    <!-- 15 instances -->
    <g transform="translate(58.89048 40.319519)scale(0.102 -0.102)">
     <use xlink:href="#DejaVuSans-31"/>
     <use x="63.623047" xlink:href="#DejaVuSans-35"/>
     <use x="127.246094" xlink:href="#DejaVuSans-20"/>
     <use x="159.033203" xlink:href="#DejaVuSans-69"/>
     <use x="186.816406" xlink:href="#DejaVuSans-6e"/>
     <use x="250.195312" xlink:href="#DejaVuSans-73"/>
     <use x="302.294922" xlink:href="#DejaVuSans-74"/>
     <use x="341.503906" xlink:href="#DejaVuSans-61"/>
     <use x="402.783203" xlink:href="#DejaVuSans-6e"/>
     <use x="466.162109" xlink:href="#DejaVuSans-63"/>
     <use x="521.142578" xlink:href="#DejaVuSans-65"/>
     <use x="582.666016" xlink:href="#DejaVuSans-73"/>
    </g>
   </g>
   <g id="text_17">
    <!-- v0.0.0 -->
    <g style="fill:#808080;" transform="translate(178.96275 289.919965)scale(0.1 -0.1)">
     <use xlink:href="#DejaVuSans-76"/>
     <use x="59.179688" xlink:href="#DejaVuSans-30"/>
     <use x="122.802734" xlink:href="#DejaVuSans-2e"/>
     <use x="154.589844" xlink:href="#DejaVuSans-30"/>
     <use x="218.212891" xlink:href="#DejaVuSans-2e"/>
     <use x="250" xlink:href="#DejaVuSans-30"/>
    </g>
   </g>
  </g>
 </g>
 <defs>
  <clipPath id="pfa197cdd20">
   <rect height="288.034772" width="277.048" x="56.12" y="6.845228"/>
  </clipPath>
 </defs>
</svg>
