<?xml version="1.0" encoding="utf-8" standalone="no"?>
<!DOCTYPE svg PUBLIC "-//W3C//DTD SVG 1.1//EN"
  "http://www.w3.org/Graphics/SVG/1.1/DTD/svg11.dtd">
<!-- Created with matplotlib (http://matplotlib.org/) -->
<svg height="345pt" version="1.1" viewBox="0 0 460 345" width="460pt" xmlns="http://www.w3.org/2000/svg" xmlns:xlink="http://www.w3.org/1999/xlink">
 <defs>
  <style type="text/css">
*{stroke-linecap:butt;stroke-linejoin:round;}
  </style>
 </defs>
 <g id="figure_1">
  <g id="patch_1">
   <path d="M 0 345.6 
L 460.8 345.6 
L 460.8 0 
L 0 0 
z
" style="fill:#ffffff;"/>
  </g>
  <g id="axes_1">
   <g id="patch_2">
    <path d="M 56.12 294.88 
L 333.168 294.88 
L 333.168 6.845228 
L 56.12 6.845228 
z
" style="fill:#ffffff;"/>
   </g>
   <g id="line2d_1">
    <path d="M 44.205749 294.88 
L 44.205749 288.169813 
L 56.12 288.169813 
L 56.12 285.933084 
L 68.034251 285.933084 
L 68.034251 283.696355 
L 71.869783 283.696355 
L 71.869783 282.577991 
L 77.653281 282.577991 
L 77.653281 281.459626 
L 81.973032 281.459626 
L 81.973032 280.341262 
L 85.422286 280.341262 
L 85.422286 276.986168 
L 86.917893 276.986168 
L 86.917893 275.867804 
L 89.567532 275.867804 
L 89.567532 272.51271 
L 90.753425 272.51271 
L 90.753425 268.039252 
L 91.862754 268.039252 
L 91.862754 266.920888 
L 93.887283 266.920888 
L 93.887283 263.565795 
L 94.816624 263.565795 
L 94.816624 261.329066 
L 95.698286 261.329066 
L 95.698286 259.092337 
L 96.536922 259.092337 
L 96.536922 256.855608 
L 97.336537 256.855608 
L 97.336537 255.737243 
L 98.100602 255.737243 
L 98.100602 253.500514 
L 98.832144 253.500514 
L 98.832144 250.145421 
L 100.207968 250.145421 
L 100.207968 249.027056 
L 100.856673 249.027056 
L 100.856673 247.908692 
L 101.481783 247.908692 
L 101.481783 246.790327 
L 102.667676 246.790327 
L 102.667676 245.671963 
L 103.231288 245.671963 
L 103.231288 242.316869 
L 103.777005 242.316869 
L 103.777005 241.198505 
L 104.305927 241.198505 
L 104.305927 238.961776 
L 105.317315 238.961776 
L 105.317315 234.488318 
L 106.272485 234.488318 
L 106.272485 233.369954 
L 106.730875 233.369954 
L 106.730875 228.896496 
L 107.177358 228.896496 
L 107.177358 227.778131 
L 107.612537 227.778131 
L 107.612537 223.304673 
L 108.451173 223.304673 
L 108.451173 217.712851 
L 108.85563 217.712851 
L 108.85563 216.594486 
L 109.250788 216.594486 
L 109.250788 215.476122 
L 109.637066 215.476122 
L 109.637066 213.239393 
L 110.014853 213.239393 
L 110.014853 206.529206 
L 110.746395 206.529206 
L 110.746395 204.292477 
L 111.100812 204.292477 
L 111.100812 202.055748 
L 111.448069 202.055748 
L 111.448069 198.700655 
L 111.788449 198.700655 
L 111.788449 194.227197 
L 112.449632 194.227197 
L 112.449632 191.990468 
L 112.770924 191.990468 
L 112.770924 189.753739 
L 113.086321 189.753739 
L 113.086321 187.51701 
L 113.396034 187.51701 
L 113.396034 183.043552 
L 113.700266 183.043552 
L 113.700266 181.925187 
L 113.999206 181.925187 
L 113.999206 179.688458 
L 114.293036 179.688458 
L 114.293036 177.451729 
L 114.581927 177.451729 
L 114.581927 175.215 
L 114.866043 175.215 
L 114.866043 174.096636 
L 115.145539 174.096636 
L 115.145539 168.504814 
L 115.420563 168.504814 
L 115.420563 167.386449 
L 115.691256 167.386449 
L 115.691256 164.031356 
L 115.957752 164.031356 
L 115.957752 160.676262 
L 116.220179 160.676262 
L 116.220179 159.557898 
L 116.478659 159.557898 
L 116.478659 153.966075 
L 116.73331 153.966075 
L 116.73331 150.610982 
L 116.984244 150.610982 
L 116.984244 149.492617 
L 117.231566 149.492617 
L 117.231566 146.137524 
L 117.475381 146.137524 
L 117.475381 145.019159 
L 117.715785 145.019159 
L 117.715785 143.900795 
L 117.952873 143.900795 
L 117.952873 141.664066 
L 118.186736 141.664066 
L 118.186736 138.308973 
L 118.417459 138.308973 
L 118.417459 134.953879 
L 118.645127 134.953879 
L 118.645127 131.598786 
L 118.869818 131.598786 
L 118.869818 130.480421 
L 119.09161 130.480421 
L 119.09161 128.243692 
L 119.310576 128.243692 
L 119.310576 124.888599 
L 119.526788 124.888599 
L 119.526788 122.65187 
L 119.740314 122.65187 
L 119.740314 115.941683 
L 119.95122 115.941683 
L 119.95122 114.823318 
L 120.15957 114.823318 
L 120.15957 112.586589 
L 120.365424 112.586589 
L 120.365424 109.231496 
L 120.568842 109.231496 
L 120.568842 108.113132 
L 120.769881 108.113132 
L 120.769881 105.876403 
L 120.968596 105.876403 
L 120.968596 102.521309 
L 121.16504 102.521309 
L 121.16504 99.166216 
L 121.359263 99.166216 
L 121.359263 96.929487 
L 121.551317 96.929487 
L 121.551317 93.574393 
L 121.741249 93.574393 
L 121.741249 89.100935 
L 121.929105 89.100935 
L 121.929105 87.982571 
L 122.114929 87.982571 
L 122.114929 84.627477 
L 122.298767 84.627477 
L 122.298767 82.390748 
L 122.480659 82.390748 
L 122.480659 80.15402 
L 122.660646 80.15402 
L 122.660646 75.680562 
L 122.838768 75.680562 
L 122.838768 73.443833 
L 123.015063 73.443833 
L 123.015063 70.088739 
L 123.189569 70.088739 
L 123.189569 65.615281 
L 123.36232 65.615281 
L 123.36232 62.260188 
L 123.533353 62.260188 
L 123.533353 57.78673 
L 123.7027 57.78673 
L 123.7027 54.431636 
L 124.036471 54.431636 
L 124.036471 52.194907 
L 124.200956 52.194907 
L 124.200956 49.958178 
L 124.685175 49.958178 
L 124.685175 47.72145 
L 125.310285 47.72145 
L 125.310285 45.484721 
L 125.614517 45.484721 
L 125.614517 44.366356 
L 125.913457 44.366356 
L 125.913457 42.129627 
L 126.207287 42.129627 
L 126.207287 41.011263 
L 126.496178 41.011263 
L 126.496178 39.892898 
L 126.780294 39.892898 
L 126.780294 38.774534 
L 127.05979 38.774534 
L 127.05979 37.656169 
L 127.197852 37.656169 
L 127.197852 36.537805 
L 127.470694 36.537805 
L 127.470694 35.41944 
L 127.605507 35.41944 
L 127.605507 34.301076 
L 127.872003 34.301076 
L 127.872003 33.182711 
L 128.13443 33.182711 
L 128.13443 32.064347 
L 128.264156 32.064347 
L 128.264156 30.945982 
L 128.520707 30.945982 
L 128.520707 29.827618 
L 129.389632 29.827618 
L 129.389632 28.709253 
L 130.100987 28.709253 
L 130.100987 27.590889 
L 130.67209 27.590889 
L 130.67209 26.472524 
L 131.005861 26.472524 
L 131.005861 25.35416 
L 131.441039 25.35416 
L 131.441039 24.235795 
L 131.969962 24.235795 
L 131.969962 23.117431 
L 132.483094 23.117431 
L 132.483094 21.999066 
L 132.98135 21.999066 
L 132.98135 20.880702 
L 133.465568 20.880702 
L 133.465568 19.762337 
L 133.843356 19.762337 
L 133.843356 18.643973 
L 134.121345 18.643973 
L 134.121345 17.525609 
L 134.485139 17.525609 
L 134.485139 16.407244 
L 134.841393 16.407244 
L 134.841393 15.28888 
L 135.276571 15.28888 
L 135.276571 14.170515 
L 135.447604 14.170515 
L 135.447604 13.052151 
L 135.616951 13.052151 
L 135.616951 11.933786 
L 135.950722 11.933786 
L 135.950722 10.815422 
L 136.196864 10.815422 
L 136.196864 9.697057 
L 333.168 9.697057 
L 333.168 9.697057 
" style="fill:none;stroke:#f5deb3;stroke-linecap:square;stroke-width:4;"/>
   </g>
   <g id="line2d_2">
    <defs>
     <path d="M -0 7.778175 
L 7.778175 0 
L 0 -7.778175 
L -7.778175 -0 
z
" id="mf7dbf83721" style="stroke:#f5deb3;stroke-linejoin:miter;stroke-width:1.5;"/>
    </defs>
    <g>
     <use style="fill:#f5deb3;stroke:#f5deb3;stroke-linejoin:miter;stroke-width:1.5;" x="108.451173" xlink:href="#mf7dbf83721" y="223.304673"/>
     <use style="fill:#f5deb3;stroke:#f5deb3;stroke-linejoin:miter;stroke-width:1.5;" x="119.526788" xlink:href="#mf7dbf83721" y="124.888599"/>
     <use style="fill:#f5deb3;stroke:#f5deb3;stroke-linejoin:miter;stroke-width:1.5;" x="136.196864" xlink:href="#mf7dbf83721" y="10.815422"/>
     <use style="fill:#f5deb3;stroke:#f5deb3;stroke-linejoin:miter;stroke-width:1.5;" x="136.196864" xlink:href="#mf7dbf83721" y="9.697057"/>
     <use style="fill:#f5deb3;stroke:#f5deb3;stroke-linejoin:miter;stroke-width:1.5;" x="136.196864" xlink:href="#mf7dbf83721" y="9.697057"/>
     <use style="fill:#f5deb3;stroke:#f5deb3;stroke-linejoin:miter;stroke-width:1.5;" x="333.168" xlink:href="#mf7dbf83721" y="9.697057"/>
    </g>
   </g>
   <g id="line2d_3">
    <path style="fill:none;stroke:#f5deb3;stroke-linecap:square;stroke-width:4;"/>
    <g/>
   </g>
   <g id="line2d_4">
    <path d="M 333.168 9.697057 
L 363.64328 15.400716 
" style="fill:none;stroke:#f5deb3;stroke-linecap:square;stroke-width:4;"/>
    <g>
     <use style="fill:#f5deb3;stroke:#f5deb3;stroke-linejoin:miter;stroke-width:1.5;" x="333.168" xlink:href="#mf7dbf83721" y="9.697057"/>
     <use style="fill:#f5deb3;stroke:#f5deb3;stroke-linejoin:miter;stroke-width:1.5;" x="363.64328" xlink:href="#mf7dbf83721" y="15.400716"/>
    </g>
   </g>
   <g id="matplotlib.axis_1">
    <g id="xtick_1">
     <g id="line2d_5">
      <path clip-path="url(#p5c3f0455d1)" d="M 56.12 294.88 
L 56.12 6.845228 
" style="fill:none;stroke:#b0b0b0;stroke-linecap:square;stroke-width:0.8;"/>
     </g>
     <g id="line2d_6">
      <defs>
       <path d="M 0 0 
L 0 3.5 
" id="m0f27285247" style="stroke:#000000;stroke-width:0.8;"/>
      </defs>
      <g>
       <use style="stroke:#000000;stroke-width:0.8;" x="56.12" xlink:href="#m0f27285247" y="294.88"/>
      </g>
     </g>
     <g id="text_1">
      <!-- 0 -->
      <defs>
       <path d="M 31.78125 66.40625 
Q 24.171875 66.40625 20.328125 58.90625 
Q 16.5 51.421875 16.5 36.375 
Q 16.5 21.390625 20.328125 13.890625 
Q 24.171875 6.390625 31.78125 6.390625 
Q 39.453125 6.390625 43.28125 13.890625 
Q 47.125 21.390625 47.125 36.375 
Q 47.125 51.421875 43.28125 58.90625 
Q 39.453125 66.40625 31.78125 66.40625 
z
M 31.78125 74.21875 
Q 44.046875 74.21875 50.515625 64.515625 
Q 56.984375 54.828125 56.984375 36.375 
Q 56.984375 17.96875 50.515625 8.265625 
Q 44.046875 -1.421875 31.78125 -1.421875 
Q 19.53125 -1.421875 13.0625 8.265625 
Q 6.59375 17.96875 6.59375 36.375 
Q 6.59375 54.828125 13.0625 64.515625 
Q 19.53125 74.21875 31.78125 74.21875 
z
" id="DejaVuSans-30"/>
      </defs>
      <g transform="translate(49.7575 317.076875)scale(0.2 -0.2)">
       <use xlink:href="#DejaVuSans-30"/>
      </g>
     </g>
    </g>
    <g id="xtick_2">
     <g id="line2d_7">
      <path clip-path="url(#p5c3f0455d1)" d="M 135.276571 294.88 
L 135.276571 6.845228 
" style="fill:none;stroke:#b0b0b0;stroke-linecap:square;stroke-width:0.8;"/>
     </g>
     <g id="line2d_8">
      <g>
       <use style="stroke:#000000;stroke-width:0.8;" x="135.276571" xlink:href="#m0f27285247" y="294.88"/>
      </g>
     </g>
     <g id="text_2">
      <!-- 2 -->
      <defs>
       <path d="M 19.1875 8.296875 
L 53.609375 8.296875 
L 53.609375 0 
L 7.328125 0 
L 7.328125 8.296875 
Q 12.9375 14.109375 22.625 23.890625 
Q 32.328125 33.6875 34.8125 36.53125 
Q 39.546875 41.84375 41.421875 45.53125 
Q 43.3125 49.21875 43.3125 52.78125 
Q 43.3125 58.59375 39.234375 62.25 
Q 35.15625 65.921875 28.609375 65.921875 
Q 23.96875 65.921875 18.8125 64.3125 
Q 13.671875 62.703125 7.8125 59.421875 
L 7.8125 69.390625 
Q 13.765625 71.78125 18.9375 73 
Q 24.125 74.21875 28.421875 74.21875 
Q 39.75 74.21875 46.484375 68.546875 
Q 53.21875 62.890625 53.21875 53.421875 
Q 53.21875 48.921875 51.53125 44.890625 
Q 49.859375 40.875 45.40625 35.40625 
Q 44.1875 33.984375 37.640625 27.21875 
Q 31.109375 20.453125 19.1875 8.296875 
z
" id="DejaVuSans-32"/>
      </defs>
      <g transform="translate(128.914071 317.076875)scale(0.2 -0.2)">
       <use xlink:href="#DejaVuSans-32"/>
      </g>
     </g>
    </g>
    <g id="xtick_3">
     <g id="line2d_9">
      <path clip-path="url(#p5c3f0455d1)" d="M 214.433143 294.88 
L 214.433143 6.845228 
" style="fill:none;stroke:#b0b0b0;stroke-linecap:square;stroke-width:0.8;"/>
     </g>
     <g id="line2d_10">
      <g>
       <use style="stroke:#000000;stroke-width:0.8;" x="214.433143" xlink:href="#m0f27285247" y="294.88"/>
      </g>
     </g>
     <g id="text_3">
      <!-- 4 -->
      <defs>
       <path d="M 37.796875 64.3125 
L 12.890625 25.390625 
L 37.796875 25.390625 
z
M 35.203125 72.90625 
L 47.609375 72.90625 
L 47.609375 25.390625 
L 58.015625 25.390625 
L 58.015625 17.1875 
L 47.609375 17.1875 
L 47.609375 0 
L 37.796875 0 
L 37.796875 17.1875 
L 4.890625 17.1875 
L 4.890625 26.703125 
z
" id="DejaVuSans-34"/>
      </defs>
      <g transform="translate(208.070643 317.076875)scale(0.2 -0.2)">
       <use xlink:href="#DejaVuSans-34"/>
      </g>
     </g>
    </g>
    <g id="xtick_4">
     <g id="line2d_11">
      <path clip-path="url(#p5c3f0455d1)" d="M 293.589714 294.88 
L 293.589714 6.845228 
" style="fill:none;stroke:#b0b0b0;stroke-linecap:square;stroke-width:0.8;"/>
     </g>
     <g id="line2d_12">
      <g>
       <use style="stroke:#000000;stroke-width:0.8;" x="293.589714" xlink:href="#m0f27285247" y="294.88"/>
      </g>
     </g>
     <g id="text_4">
      <!-- 6 -->
      <defs>
       <path d="M 33.015625 40.375 
Q 26.375 40.375 22.484375 35.828125 
Q 18.609375 31.296875 18.609375 23.390625 
Q 18.609375 15.53125 22.484375 10.953125 
Q 26.375 6.390625 33.015625 6.390625 
Q 39.65625 6.390625 43.53125 10.953125 
Q 47.40625 15.53125 47.40625 23.390625 
Q 47.40625 31.296875 43.53125 35.828125 
Q 39.65625 40.375 33.015625 40.375 
z
M 52.59375 71.296875 
L 52.59375 62.3125 
Q 48.875 64.0625 45.09375 64.984375 
Q 41.3125 65.921875 37.59375 65.921875 
Q 27.828125 65.921875 22.671875 59.328125 
Q 17.53125 52.734375 16.796875 39.40625 
Q 19.671875 43.65625 24.015625 45.921875 
Q 28.375 48.1875 33.59375 48.1875 
Q 44.578125 48.1875 50.953125 41.515625 
Q 57.328125 34.859375 57.328125 23.390625 
Q 57.328125 12.15625 50.6875 5.359375 
Q 44.046875 -1.421875 33.015625 -1.421875 
Q 20.359375 -1.421875 13.671875 8.265625 
Q 6.984375 17.96875 6.984375 36.375 
Q 6.984375 53.65625 15.1875 63.9375 
Q 23.390625 74.21875 37.203125 74.21875 
Q 40.921875 74.21875 44.703125 73.484375 
Q 48.484375 72.75 52.59375 71.296875 
z
" id="DejaVuSans-36"/>
      </defs>
      <g transform="translate(287.227214 317.076875)scale(0.2 -0.2)">
       <use xlink:href="#DejaVuSans-36"/>
      </g>
     </g>
    </g>
    <g id="xtick_5">
     <g id="line2d_13">
      <path clip-path="url(#p5c3f0455d1)" d="M 56.12 294.88 
L 56.12 6.845228 
" style="fill:none;stroke:#b0b0b0;stroke-linecap:square;stroke-width:0.8;"/>
     </g>
     <g id="line2d_14">
      <defs>
       <path d="M 0 0 
L 0 2 
" id="m8b5aa92619" style="stroke:#000000;stroke-width:0.6;"/>
      </defs>
      <g>
       <use style="stroke:#000000;stroke-width:0.6;" x="56.12" xlink:href="#m8b5aa92619" y="294.88"/>
      </g>
     </g>
    </g>
    <g id="xtick_6">
     <g id="line2d_15">
      <path clip-path="url(#p5c3f0455d1)" d="M 95.698286 294.88 
L 95.698286 6.845228 
" style="fill:none;stroke:#b0b0b0;stroke-linecap:square;stroke-width:0.8;"/>
     </g>
     <g id="line2d_16">
      <g>
       <use style="stroke:#000000;stroke-width:0.6;" x="95.698286" xlink:href="#m8b5aa92619" y="294.88"/>
      </g>
     </g>
    </g>
    <g id="xtick_7">
     <g id="line2d_17">
      <path clip-path="url(#p5c3f0455d1)" d="M 135.276571 294.88 
L 135.276571 6.845228 
" style="fill:none;stroke:#b0b0b0;stroke-linecap:square;stroke-width:0.8;"/>
     </g>
     <g id="line2d_18">
      <g>
       <use style="stroke:#000000;stroke-width:0.6;" x="135.276571" xlink:href="#m8b5aa92619" y="294.88"/>
      </g>
     </g>
    </g>
    <g id="xtick_8">
     <g id="line2d_19">
      <path clip-path="url(#p5c3f0455d1)" d="M 174.854857 294.88 
L 174.854857 6.845228 
" style="fill:none;stroke:#b0b0b0;stroke-linecap:square;stroke-width:0.8;"/>
     </g>
     <g id="line2d_20">
      <g>
       <use style="stroke:#000000;stroke-width:0.6;" x="174.854857" xlink:href="#m8b5aa92619" y="294.88"/>
      </g>
     </g>
    </g>
    <g id="xtick_9">
     <g id="line2d_21">
      <path clip-path="url(#p5c3f0455d1)" d="M 214.433143 294.88 
L 214.433143 6.845228 
" style="fill:none;stroke:#b0b0b0;stroke-linecap:square;stroke-width:0.8;"/>
     </g>
     <g id="line2d_22">
      <g>
       <use style="stroke:#000000;stroke-width:0.6;" x="214.433143" xlink:href="#m8b5aa92619" y="294.88"/>
      </g>
     </g>
    </g>
    <g id="xtick_10">
     <g id="line2d_23">
      <path clip-path="url(#p5c3f0455d1)" d="M 254.011429 294.88 
L 254.011429 6.845228 
" style="fill:none;stroke:#b0b0b0;stroke-linecap:square;stroke-width:0.8;"/>
     </g>
     <g id="line2d_24">
      <g>
       <use style="stroke:#000000;stroke-width:0.6;" x="254.011429" xlink:href="#m8b5aa92619" y="294.88"/>
      </g>
     </g>
    </g>
    <g id="xtick_11">
     <g id="line2d_25">
      <path clip-path="url(#p5c3f0455d1)" d="M 293.589714 294.88 
L 293.589714 6.845228 
" style="fill:none;stroke:#b0b0b0;stroke-linecap:square;stroke-width:0.8;"/>
     </g>
     <g id="line2d_26">
      <g>
       <use style="stroke:#000000;stroke-width:0.6;" x="293.589714" xlink:href="#m8b5aa92619" y="294.88"/>
      </g>
     </g>
    </g>
    <g id="xtick_12">
     <g id="line2d_27">
      <path clip-path="url(#p5c3f0455d1)" d="M 333.168 294.88 
L 333.168 6.845228 
" style="fill:none;stroke:#b0b0b0;stroke-linecap:square;stroke-width:0.8;"/>
     </g>
     <g id="line2d_28">
      <g>
       <use style="stroke:#000000;stroke-width:0.6;" x="333.168" xlink:href="#m8b5aa92619" y="294.88"/>
      </g>
     </g>
    </g>
    <g id="text_5">
     <!-- log10(# f-evals / dimension) -->
     <defs>
      <path d="M 9.421875 75.984375 
L 18.40625 75.984375 
L 18.40625 0 
L 9.421875 0 
z
" id="DejaVuSans-6c"/>
      <path d="M 30.609375 48.390625 
Q 23.390625 48.390625 19.1875 42.75 
Q 14.984375 37.109375 14.984375 27.296875 
Q 14.984375 17.484375 19.15625 11.84375 
Q 23.34375 6.203125 30.609375 6.203125 
Q 37.796875 6.203125 41.984375 11.859375 
Q 46.1875 17.53125 46.1875 27.296875 
Q 46.1875 37.015625 41.984375 42.703125 
Q 37.796875 48.390625 30.609375 48.390625 
z
M 30.609375 56 
Q 42.328125 56 49.015625 48.375 
Q 55.71875 40.765625 55.71875 27.296875 
Q 55.71875 13.875 49.015625 6.21875 
Q 42.328125 -1.421875 30.609375 -1.421875 
Q 18.84375 -1.421875 12.171875 6.21875 
Q 5.515625 13.875 5.515625 27.296875 
Q 5.515625 40.765625 12.171875 48.375 
Q 18.84375 56 30.609375 56 
z
" id="DejaVuSans-6f"/>
      <path d="M 45.40625 27.984375 
Q 45.40625 37.75 41.375 43.109375 
Q 37.359375 48.484375 30.078125 48.484375 
Q 22.859375 48.484375 18.828125 43.109375 
Q 14.796875 37.75 14.796875 27.984375 
Q 14.796875 18.265625 18.828125 12.890625 
Q 22.859375 7.515625 30.078125 7.515625 
Q 37.359375 7.515625 41.375 12.890625 
Q 45.40625 18.265625 45.40625 27.984375 
z
M 54.390625 6.78125 
Q 54.390625 -7.171875 48.1875 -13.984375 
Q 42 -20.796875 29.203125 -20.796875 
Q 24.46875 -20.796875 20.265625 -20.09375 
Q 16.0625 -19.390625 12.109375 -17.921875 
L 12.109375 -9.1875 
Q 16.0625 -11.328125 19.921875 -12.34375 
Q 23.78125 -13.375 27.78125 -13.375 
Q 36.625 -13.375 41.015625 -8.765625 
Q 45.40625 -4.15625 45.40625 5.171875 
L 45.40625 9.625 
Q 42.625 4.78125 38.28125 2.390625 
Q 33.9375 0 27.875 0 
Q 17.828125 0 11.671875 7.65625 
Q 5.515625 15.328125 5.515625 27.984375 
Q 5.515625 40.671875 11.671875 48.328125 
Q 17.828125 56 27.875 56 
Q 33.9375 56 38.28125 53.609375 
Q 42.625 51.21875 45.40625 46.390625 
L 45.40625 54.6875 
L 54.390625 54.6875 
z
" id="DejaVuSans-67"/>
      <path d="M 12.40625 8.296875 
L 28.515625 8.296875 
L 28.515625 63.921875 
L 10.984375 60.40625 
L 10.984375 69.390625 
L 28.421875 72.90625 
L 38.28125 72.90625 
L 38.28125 8.296875 
L 54.390625 8.296875 
L 54.390625 0 
L 12.40625 0 
z
" id="DejaVuSans-31"/>
      <path d="M 31 75.875 
Q 24.46875 64.65625 21.28125 53.65625 
Q 18.109375 42.671875 18.109375 31.390625 
Q 18.109375 20.125 21.3125 9.0625 
Q 24.515625 -2 31 -13.1875 
L 23.1875 -13.1875 
Q 15.875 -1.703125 12.234375 9.375 
Q 8.59375 20.453125 8.59375 31.390625 
Q 8.59375 42.28125 12.203125 53.3125 
Q 15.828125 64.359375 23.1875 75.875 
z
" id="DejaVuSans-28"/>
      <path d="M 51.125 44 
L 36.921875 44 
L 32.8125 27.6875 
L 47.125 27.6875 
z
M 43.796875 71.78125 
L 38.71875 51.515625 
L 52.984375 51.515625 
L 58.109375 71.78125 
L 65.921875 71.78125 
L 60.890625 51.515625 
L 76.125 51.515625 
L 76.125 44 
L 58.984375 44 
L 54.984375 27.6875 
L 70.515625 27.6875 
L 70.515625 20.21875 
L 53.078125 20.21875 
L 48 0 
L 40.1875 0 
L 45.21875 20.21875 
L 30.90625 20.21875 
L 25.875 0 
L 18.015625 0 
L 23.09375 20.21875 
L 7.71875 20.21875 
L 7.71875 27.6875 
L 24.90625 27.6875 
L 29 44 
L 13.28125 44 
L 13.28125 51.515625 
L 30.90625 51.515625 
L 35.890625 71.78125 
z
" id="DejaVuSans-23"/>
      <path id="DejaVuSans-20"/>
      <path d="M 37.109375 75.984375 
L 37.109375 68.5 
L 28.515625 68.5 
Q 23.6875 68.5 21.796875 66.546875 
Q 19.921875 64.59375 19.921875 59.515625 
L 19.921875 54.6875 
L 34.71875 54.6875 
L 34.71875 47.703125 
L 19.921875 47.703125 
L 19.921875 0 
L 10.890625 0 
L 10.890625 47.703125 
L 2.296875 47.703125 
L 2.296875 54.6875 
L 10.890625 54.6875 
L 10.890625 58.5 
Q 10.890625 67.625 15.140625 71.796875 
Q 19.390625 75.984375 28.609375 75.984375 
z
" id="DejaVuSans-66"/>
      <path d="M 4.890625 31.390625 
L 31.203125 31.390625 
L 31.203125 23.390625 
L 4.890625 23.390625 
z
" id="DejaVuSans-2d"/>
      <path d="M 56.203125 29.59375 
L 56.203125 25.203125 
L 14.890625 25.203125 
Q 15.484375 15.921875 20.484375 11.0625 
Q 25.484375 6.203125 34.421875 6.203125 
Q 39.59375 6.203125 44.453125 7.46875 
Q 49.3125 8.734375 54.109375 11.28125 
L 54.109375 2.78125 
Q 49.265625 0.734375 44.1875 -0.34375 
Q 39.109375 -1.421875 33.890625 -1.421875 
Q 20.796875 -1.421875 13.15625 6.1875 
Q 5.515625 13.8125 5.515625 26.8125 
Q 5.515625 40.234375 12.765625 48.109375 
Q 20.015625 56 32.328125 56 
Q 43.359375 56 49.78125 48.890625 
Q 56.203125 41.796875 56.203125 29.59375 
z
M 47.21875 32.234375 
Q 47.125 39.59375 43.09375 43.984375 
Q 39.0625 48.390625 32.421875 48.390625 
Q 24.90625 48.390625 20.390625 44.140625 
Q 15.875 39.890625 15.1875 32.171875 
z
" id="DejaVuSans-65"/>
      <path d="M 2.984375 54.6875 
L 12.5 54.6875 
L 29.59375 8.796875 
L 46.6875 54.6875 
L 56.203125 54.6875 
L 35.6875 0 
L 23.484375 0 
z
" id="DejaVuSans-76"/>
      <path d="M 34.28125 27.484375 
Q 23.390625 27.484375 19.1875 25 
Q 14.984375 22.515625 14.984375 16.5 
Q 14.984375 11.71875 18.140625 8.90625 
Q 21.296875 6.109375 26.703125 6.109375 
Q 34.1875 6.109375 38.703125 11.40625 
Q 43.21875 16.703125 43.21875 25.484375 
L 43.21875 27.484375 
z
M 52.203125 31.203125 
L 52.203125 0 
L 43.21875 0 
L 43.21875 8.296875 
Q 40.140625 3.328125 35.546875 0.953125 
Q 30.953125 -1.421875 24.3125 -1.421875 
Q 15.921875 -1.421875 10.953125 3.296875 
Q 6 8.015625 6 15.921875 
Q 6 25.140625 12.171875 29.828125 
Q 18.359375 34.515625 30.609375 34.515625 
L 43.21875 34.515625 
L 43.21875 35.40625 
Q 43.21875 41.609375 39.140625 45 
Q 35.0625 48.390625 27.6875 48.390625 
Q 23 48.390625 18.546875 47.265625 
Q 14.109375 46.140625 10.015625 43.890625 
L 10.015625 52.203125 
Q 14.9375 54.109375 19.578125 55.046875 
Q 24.21875 56 28.609375 56 
Q 40.484375 56 46.34375 49.84375 
Q 52.203125 43.703125 52.203125 31.203125 
z
" id="DejaVuSans-61"/>
      <path d="M 44.28125 53.078125 
L 44.28125 44.578125 
Q 40.484375 46.53125 36.375 47.5 
Q 32.28125 48.484375 27.875 48.484375 
Q 21.1875 48.484375 17.84375 46.4375 
Q 14.5 44.390625 14.5 40.28125 
Q 14.5 37.15625 16.890625 35.375 
Q 19.28125 33.59375 26.515625 31.984375 
L 29.59375 31.296875 
Q 39.15625 29.25 43.1875 25.515625 
Q 47.21875 21.78125 47.21875 15.09375 
Q 47.21875 7.46875 41.1875 3.015625 
Q 35.15625 -1.421875 24.609375 -1.421875 
Q 20.21875 -1.421875 15.453125 -0.5625 
Q 10.6875 0.296875 5.421875 2 
L 5.421875 11.28125 
Q 10.40625 8.6875 15.234375 7.390625 
Q 20.0625 6.109375 24.8125 6.109375 
Q 31.15625 6.109375 34.5625 8.28125 
Q 37.984375 10.453125 37.984375 14.40625 
Q 37.984375 18.0625 35.515625 20.015625 
Q 33.0625 21.96875 24.703125 23.78125 
L 21.578125 24.515625 
Q 13.234375 26.265625 9.515625 29.90625 
Q 5.8125 33.546875 5.8125 39.890625 
Q 5.8125 47.609375 11.28125 51.796875 
Q 16.75 56 26.8125 56 
Q 31.78125 56 36.171875 55.265625 
Q 40.578125 54.546875 44.28125 53.078125 
z
" id="DejaVuSans-73"/>
      <path d="M 25.390625 72.90625 
L 33.6875 72.90625 
L 8.296875 -9.28125 
L 0 -9.28125 
z
" id="DejaVuSans-2f"/>
      <path d="M 45.40625 46.390625 
L 45.40625 75.984375 
L 54.390625 75.984375 
L 54.390625 0 
L 45.40625 0 
L 45.40625 8.203125 
Q 42.578125 3.328125 38.25 0.953125 
Q 33.9375 -1.421875 27.875 -1.421875 
Q 17.96875 -1.421875 11.734375 6.484375 
Q 5.515625 14.40625 5.515625 27.296875 
Q 5.515625 40.1875 11.734375 48.09375 
Q 17.96875 56 27.875 56 
Q 33.9375 56 38.25 53.625 
Q 42.578125 51.265625 45.40625 46.390625 
z
M 14.796875 27.296875 
Q 14.796875 17.390625 18.875 11.75 
Q 22.953125 6.109375 30.078125 6.109375 
Q 37.203125 6.109375 41.296875 11.75 
Q 45.40625 17.390625 45.40625 27.296875 
Q 45.40625 37.203125 41.296875 42.84375 
Q 37.203125 48.484375 30.078125 48.484375 
Q 22.953125 48.484375 18.875 42.84375 
Q 14.796875 37.203125 14.796875 27.296875 
z
" id="DejaVuSans-64"/>
      <path d="M 9.421875 54.6875 
L 18.40625 54.6875 
L 18.40625 0 
L 9.421875 0 
z
M 9.421875 75.984375 
L 18.40625 75.984375 
L 18.40625 64.59375 
L 9.421875 64.59375 
z
" id="DejaVuSans-69"/>
      <path d="M 52 44.1875 
Q 55.375 50.25 60.0625 53.125 
Q 64.75 56 71.09375 56 
Q 79.640625 56 84.28125 50.015625 
Q 88.921875 44.046875 88.921875 33.015625 
L 88.921875 0 
L 79.890625 0 
L 79.890625 32.71875 
Q 79.890625 40.578125 77.09375 44.375 
Q 74.3125 48.1875 68.609375 48.1875 
Q 61.625 48.1875 57.5625 43.546875 
Q 53.515625 38.921875 53.515625 30.90625 
L 53.515625 0 
L 44.484375 0 
L 44.484375 32.71875 
Q 44.484375 40.625 41.703125 44.40625 
Q 38.921875 48.1875 33.109375 48.1875 
Q 26.21875 48.1875 22.15625 43.53125 
Q 18.109375 38.875 18.109375 30.90625 
L 18.109375 0 
L 9.078125 0 
L 9.078125 54.6875 
L 18.109375 54.6875 
L 18.109375 46.1875 
Q 21.1875 51.21875 25.484375 53.609375 
Q 29.78125 56 35.6875 56 
Q 41.65625 56 45.828125 52.96875 
Q 50 49.953125 52 44.1875 
z
" id="DejaVuSans-6d"/>
      <path d="M 54.890625 33.015625 
L 54.890625 0 
L 45.90625 0 
L 45.90625 32.71875 
Q 45.90625 40.484375 42.875 44.328125 
Q 39.84375 48.1875 33.796875 48.1875 
Q 26.515625 48.1875 22.3125 43.546875 
Q 18.109375 38.921875 18.109375 30.90625 
L 18.109375 0 
L 9.078125 0 
L 9.078125 54.6875 
L 18.109375 54.6875 
L 18.109375 46.1875 
Q 21.34375 51.125 25.703125 53.5625 
Q 30.078125 56 35.796875 56 
Q 45.21875 56 50.046875 50.171875 
Q 54.890625 44.34375 54.890625 33.015625 
z
" id="DejaVuSans-6e"/>
      <path d="M 8.015625 75.875 
L 15.828125 75.875 
Q 23.140625 64.359375 26.78125 53.3125 
Q 30.421875 42.28125 30.421875 31.390625 
Q 30.421875 20.453125 26.78125 9.375 
Q 23.140625 -1.703125 15.828125 -13.1875 
L 8.015625 -13.1875 
Q 14.5 -2 17.703125 9.0625 
Q 20.90625 20.125 20.90625 31.390625 
Q 20.90625 42.671875 17.703125 53.65625 
Q 14.5 64.65625 8.015625 75.875 
z
" id="DejaVuSans-29"/>
     </defs>
     <g transform="translate(73.803219 338.153594)scale(0.17 -0.17)">
      <use xlink:href="#DejaVuSans-6c"/>
      <use x="27.783203" xlink:href="#DejaVuSans-6f"/>
      <use x="88.964844" xlink:href="#DejaVuSans-67"/>
      <use x="152.441406" xlink:href="#DejaVuSans-31"/>
      <use x="216.064453" xlink:href="#DejaVuSans-30"/>
      <use x="279.6875" xlink:href="#DejaVuSans-28"/>
      <use x="318.701172" xlink:href="#DejaVuSans-23"/>
      <use x="402.490234" xlink:href="#DejaVuSans-20"/>
      <use x="434.277344" xlink:href="#DejaVuSans-66"/>
      <use x="469.404297" xlink:href="#DejaVuSans-2d"/>
      <use x="505.488281" xlink:href="#DejaVuSans-65"/>
      <use x="567.011719" xlink:href="#DejaVuSans-76"/>
      <use x="626.191406" xlink:href="#DejaVuSans-61"/>
      <use x="687.470703" xlink:href="#DejaVuSans-6c"/>
      <use x="715.253906" xlink:href="#DejaVuSans-73"/>
      <use x="767.353516" xlink:href="#DejaVuSans-20"/>
      <use x="799.140625" xlink:href="#DejaVuSans-2f"/>
      <use x="832.832031" xlink:href="#DejaVuSans-20"/>
      <use x="864.619141" xlink:href="#DejaVuSans-64"/>
      <use x="928.095703" xlink:href="#DejaVuSans-69"/>
      <use x="955.878906" xlink:href="#DejaVuSans-6d"/>
      <use x="1053.291016" xlink:href="#DejaVuSans-65"/>
      <use x="1114.814453" xlink:href="#DejaVuSans-6e"/>
      <use x="1178.193359" xlink:href="#DejaVuSans-73"/>
      <use x="1230.292969" xlink:href="#DejaVuSans-69"/>
      <use x="1258.076172" xlink:href="#DejaVuSans-6f"/>
      <use x="1319.257812" xlink:href="#DejaVuSans-6e"/>
      <use x="1382.636719" xlink:href="#DejaVuSans-29"/>
     </g>
    </g>
   </g>
   <g id="matplotlib.axis_2">
    <g id="ytick_1">
     <g id="line2d_29">
      <path clip-path="url(#p5c3f0455d1)" d="M 56.12 294.88 
L 333.168 294.88 
" style="fill:none;stroke:#b0b0b0;stroke-linecap:square;stroke-width:0.8;"/>
     </g>
     <g id="line2d_30">
      <defs>
       <path d="M 0 0 
L -3.5 0 
" id="m788cdfd24e" style="stroke:#000000;stroke-width:0.8;"/>
      </defs>
      <g>
       <use style="stroke:#000000;stroke-width:0.8;" x="56.12" xlink:href="#m788cdfd24e" y="294.88"/>
      </g>
     </g>
     <g id="text_6">
      <!-- 0.0 -->
      <defs>
       <path d="M 10.6875 12.40625 
L 21 12.40625 
L 21 0 
L 10.6875 0 
z
" id="DejaVuSans-2e"/>
      </defs>
      <g transform="translate(23.675 300.95875)scale(0.16 -0.16)">
       <use xlink:href="#DejaVuSans-30"/>
       <use x="63.623047" xlink:href="#DejaVuSans-2e"/>
       <use x="95.410156" xlink:href="#DejaVuSans-30"/>
      </g>
     </g>
    </g>
    <g id="ytick_2">
     <g id="line2d_31">
      <path clip-path="url(#p5c3f0455d1)" d="M 56.12 237.843411 
L 333.168 237.843411 
" style="fill:none;stroke:#b0b0b0;stroke-linecap:square;stroke-width:0.8;"/>
     </g>
     <g id="line2d_32">
      <g>
       <use style="stroke:#000000;stroke-width:0.8;" x="56.12" xlink:href="#m788cdfd24e" y="237.843411"/>
      </g>
     </g>
     <g id="text_7">
      <!-- 0.2 -->
      <g transform="translate(23.675 243.922161)scale(0.16 -0.16)">
       <use xlink:href="#DejaVuSans-30"/>
       <use x="63.623047" xlink:href="#DejaVuSans-2e"/>
       <use x="95.410156" xlink:href="#DejaVuSans-32"/>
      </g>
     </g>
    </g>
    <g id="ytick_3">
     <g id="line2d_33">
      <path clip-path="url(#p5c3f0455d1)" d="M 56.12 180.806823 
L 333.168 180.806823 
" style="fill:none;stroke:#b0b0b0;stroke-linecap:square;stroke-width:0.8;"/>
     </g>
     <g id="line2d_34">
      <g>
       <use style="stroke:#000000;stroke-width:0.8;" x="56.12" xlink:href="#m788cdfd24e" y="180.806823"/>
      </g>
     </g>
     <g id="text_8">
      <!-- 0.4 -->
      <g transform="translate(23.675 186.885573)scale(0.16 -0.16)">
       <use xlink:href="#DejaVuSans-30"/>
       <use x="63.623047" xlink:href="#DejaVuSans-2e"/>
       <use x="95.410156" xlink:href="#DejaVuSans-34"/>
      </g>
     </g>
    </g>
    <g id="ytick_4">
     <g id="line2d_35">
      <path clip-path="url(#p5c3f0455d1)" d="M 56.12 123.770234 
L 333.168 123.770234 
" style="fill:none;stroke:#b0b0b0;stroke-linecap:square;stroke-width:0.8;"/>
     </g>
     <g id="line2d_36">
      <g>
       <use style="stroke:#000000;stroke-width:0.8;" x="56.12" xlink:href="#m788cdfd24e" y="123.770234"/>
      </g>
     </g>
     <g id="text_9">
      <!-- 0.6 -->
      <g transform="translate(23.675 129.848984)scale(0.16 -0.16)">
       <use xlink:href="#DejaVuSans-30"/>
       <use x="63.623047" xlink:href="#DejaVuSans-2e"/>
       <use x="95.410156" xlink:href="#DejaVuSans-36"/>
      </g>
     </g>
    </g>
    <g id="ytick_5">
     <g id="line2d_37">
      <path clip-path="url(#p5c3f0455d1)" d="M 56.12 66.733646 
L 333.168 66.733646 
" style="fill:none;stroke:#b0b0b0;stroke-linecap:square;stroke-width:0.8;"/>
     </g>
     <g id="line2d_38">
      <g>
       <use style="stroke:#000000;stroke-width:0.8;" x="56.12" xlink:href="#m788cdfd24e" y="66.733646"/>
      </g>
     </g>
     <g id="text_10">
      <!-- 0.8 -->
      <defs>
       <path d="M 31.78125 34.625 
Q 24.75 34.625 20.71875 30.859375 
Q 16.703125 27.09375 16.703125 20.515625 
Q 16.703125 13.921875 20.71875 10.15625 
Q 24.75 6.390625 31.78125 6.390625 
Q 38.8125 6.390625 42.859375 10.171875 
Q 46.921875 13.96875 46.921875 20.515625 
Q 46.921875 27.09375 42.890625 30.859375 
Q 38.875 34.625 31.78125 34.625 
z
M 21.921875 38.8125 
Q 15.578125 40.375 12.03125 44.71875 
Q 8.5 49.078125 8.5 55.328125 
Q 8.5 64.0625 14.71875 69.140625 
Q 20.953125 74.21875 31.78125 74.21875 
Q 42.671875 74.21875 48.875 69.140625 
Q 55.078125 64.0625 55.078125 55.328125 
Q 55.078125 49.078125 51.53125 44.71875 
Q 48 40.375 41.703125 38.8125 
Q 48.828125 37.15625 52.796875 32.3125 
Q 56.78125 27.484375 56.78125 20.515625 
Q 56.78125 9.90625 50.3125 4.234375 
Q 43.84375 -1.421875 31.78125 -1.421875 
Q 19.734375 -1.421875 13.25 4.234375 
Q 6.78125 9.90625 6.78125 20.515625 
Q 6.78125 27.484375 10.78125 32.3125 
Q 14.796875 37.15625 21.921875 38.8125 
z
M 18.3125 54.390625 
Q 18.3125 48.734375 21.84375 45.5625 
Q 25.390625 42.390625 31.78125 42.390625 
Q 38.140625 42.390625 41.71875 45.5625 
Q 45.3125 48.734375 45.3125 54.390625 
Q 45.3125 60.0625 41.71875 63.234375 
Q 38.140625 66.40625 31.78125 66.40625 
Q 25.390625 66.40625 21.84375 63.234375 
Q 18.3125 60.0625 18.3125 54.390625 
z
" id="DejaVuSans-38"/>
      </defs>
      <g transform="translate(23.675 72.812396)scale(0.16 -0.16)">
       <use xlink:href="#DejaVuSans-30"/>
       <use x="63.623047" xlink:href="#DejaVuSans-2e"/>
       <use x="95.410156" xlink:href="#DejaVuSans-38"/>
      </g>
     </g>
    </g>
    <g id="ytick_6">
     <g id="line2d_39">
      <path clip-path="url(#p5c3f0455d1)" d="M 56.12 9.697057 
L 333.168 9.697057 
" style="fill:none;stroke:#b0b0b0;stroke-linecap:square;stroke-width:0.8;"/>
     </g>
     <g id="line2d_40">
      <g>
       <use style="stroke:#000000;stroke-width:0.8;" x="56.12" xlink:href="#m788cdfd24e" y="9.697057"/>
      </g>
     </g>
     <g id="text_11">
      <!-- 1.0 -->
      <g transform="translate(23.675 15.775807)scale(0.16 -0.16)">
       <use xlink:href="#DejaVuSans-31"/>
       <use x="63.623047" xlink:href="#DejaVuSans-2e"/>
       <use x="95.410156" xlink:href="#DejaVuSans-30"/>
      </g>
     </g>
    </g>
    <g id="text_12">
     <!-- Fraction of function,target pairs -->
     <defs>
      <path d="M 9.8125 72.90625 
L 51.703125 72.90625 
L 51.703125 64.59375 
L 19.671875 64.59375 
L 19.671875 43.109375 
L 48.578125 43.109375 
L 48.578125 34.8125 
L 19.671875 34.8125 
L 19.671875 0 
L 9.8125 0 
z
" id="DejaVuSans-46"/>
      <path d="M 41.109375 46.296875 
Q 39.59375 47.171875 37.8125 47.578125 
Q 36.03125 48 33.890625 48 
Q 26.265625 48 22.1875 43.046875 
Q 18.109375 38.09375 18.109375 28.8125 
L 18.109375 0 
L 9.078125 0 
L 9.078125 54.6875 
L 18.109375 54.6875 
L 18.109375 46.1875 
Q 20.953125 51.171875 25.484375 53.578125 
Q 30.03125 56 36.53125 56 
Q 37.453125 56 38.578125 55.875 
Q 39.703125 55.765625 41.0625 55.515625 
z
" id="DejaVuSans-72"/>
      <path d="M 48.78125 52.59375 
L 48.78125 44.1875 
Q 44.96875 46.296875 41.140625 47.34375 
Q 37.3125 48.390625 33.40625 48.390625 
Q 24.65625 48.390625 19.8125 42.84375 
Q 14.984375 37.3125 14.984375 27.296875 
Q 14.984375 17.28125 19.8125 11.734375 
Q 24.65625 6.203125 33.40625 6.203125 
Q 37.3125 6.203125 41.140625 7.25 
Q 44.96875 8.296875 48.78125 10.40625 
L 48.78125 2.09375 
Q 45.015625 0.34375 40.984375 -0.53125 
Q 36.96875 -1.421875 32.421875 -1.421875 
Q 20.0625 -1.421875 12.78125 6.34375 
Q 5.515625 14.109375 5.515625 27.296875 
Q 5.515625 40.671875 12.859375 48.328125 
Q 20.21875 56 33.015625 56 
Q 37.15625 56 41.109375 55.140625 
Q 45.0625 54.296875 48.78125 52.59375 
z
" id="DejaVuSans-63"/>
      <path d="M 18.3125 70.21875 
L 18.3125 54.6875 
L 36.8125 54.6875 
L 36.8125 47.703125 
L 18.3125 47.703125 
L 18.3125 18.015625 
Q 18.3125 11.328125 20.140625 9.421875 
Q 21.96875 7.515625 27.59375 7.515625 
L 36.8125 7.515625 
L 36.8125 0 
L 27.59375 0 
Q 17.1875 0 13.234375 3.875 
Q 9.28125 7.765625 9.28125 18.015625 
L 9.28125 47.703125 
L 2.6875 47.703125 
L 2.6875 54.6875 
L 9.28125 54.6875 
L 9.28125 70.21875 
z
" id="DejaVuSans-74"/>
      <path d="M 8.5 21.578125 
L 8.5 54.6875 
L 17.484375 54.6875 
L 17.484375 21.921875 
Q 17.484375 14.15625 20.5 10.265625 
Q 23.53125 6.390625 29.59375 6.390625 
Q 36.859375 6.390625 41.078125 11.03125 
Q 45.3125 15.671875 45.3125 23.6875 
L 45.3125 54.6875 
L 54.296875 54.6875 
L 54.296875 0 
L 45.3125 0 
L 45.3125 8.40625 
Q 42.046875 3.421875 37.71875 1 
Q 33.40625 -1.421875 27.6875 -1.421875 
Q 18.265625 -1.421875 13.375 4.4375 
Q 8.5 10.296875 8.5 21.578125 
z
M 31.109375 56 
z
" id="DejaVuSans-75"/>
      <path d="M 11.71875 12.40625 
L 22.015625 12.40625 
L 22.015625 4 
L 14.015625 -11.625 
L 7.71875 -11.625 
L 11.71875 4 
z
" id="DejaVuSans-2c"/>
      <path d="M 18.109375 8.203125 
L 18.109375 -20.796875 
L 9.078125 -20.796875 
L 9.078125 54.6875 
L 18.109375 54.6875 
L 18.109375 46.390625 
Q 20.953125 51.265625 25.265625 53.625 
Q 29.59375 56 35.59375 56 
Q 45.5625 56 51.78125 48.09375 
Q 58.015625 40.1875 58.015625 27.296875 
Q 58.015625 14.40625 51.78125 6.484375 
Q 45.5625 -1.421875 35.59375 -1.421875 
Q 29.59375 -1.421875 25.265625 0.953125 
Q 20.953125 3.328125 18.109375 8.203125 
z
M 48.6875 27.296875 
Q 48.6875 37.203125 44.609375 42.84375 
Q 40.53125 48.484375 33.40625 48.484375 
Q 26.265625 48.484375 22.1875 42.84375 
Q 18.109375 37.203125 18.109375 27.296875 
Q 18.109375 17.390625 22.1875 11.75 
Q 26.265625 6.109375 33.40625 6.109375 
Q 40.53125 6.109375 44.609375 11.75 
Q 48.6875 17.390625 48.6875 27.296875 
z
" id="DejaVuSans-70"/>
     </defs>
     <g transform="translate(16.139531 286.001989)rotate(-90)scale(0.17 -0.17)">
      <use xlink:href="#DejaVuSans-46"/>
      <use x="57.410156" xlink:href="#DejaVuSans-72"/>
      <use x="98.523438" xlink:href="#DejaVuSans-61"/>
      <use x="159.802734" xlink:href="#DejaVuSans-63"/>
      <use x="214.783203" xlink:href="#DejaVuSans-74"/>
      <use x="253.992188" xlink:href="#DejaVuSans-69"/>
      <use x="281.775391" xlink:href="#DejaVuSans-6f"/>
      <use x="342.957031" xlink:href="#DejaVuSans-6e"/>
      <use x="406.335938" xlink:href="#DejaVuSans-20"/>
      <use x="438.123047" xlink:href="#DejaVuSans-6f"/>
      <use x="499.304688" xlink:href="#DejaVuSans-66"/>
      <use x="534.509766" xlink:href="#DejaVuSans-20"/>
      <use x="566.296875" xlink:href="#DejaVuSans-66"/>
      <use x="601.501953" xlink:href="#DejaVuSans-75"/>
      <use x="664.880859" xlink:href="#DejaVuSans-6e"/>
      <use x="728.259766" xlink:href="#DejaVuSans-63"/>
      <use x="783.240234" xlink:href="#DejaVuSans-74"/>
      <use x="822.449219" xlink:href="#DejaVuSans-69"/>
      <use x="850.232422" xlink:href="#DejaVuSans-6f"/>
      <use x="911.414062" xlink:href="#DejaVuSans-6e"/>
      <use x="974.792969" xlink:href="#DejaVuSans-2c"/>
      <use x="1006.580078" xlink:href="#DejaVuSans-74"/>
      <use x="1045.789062" xlink:href="#DejaVuSans-61"/>
      <use x="1107.068359" xlink:href="#DejaVuSans-72"/>
      <use x="1148.166016" xlink:href="#DejaVuSans-67"/>
      <use x="1211.642578" xlink:href="#DejaVuSans-65"/>
      <use x="1273.166016" xlink:href="#DejaVuSans-74"/>
      <use x="1312.375" xlink:href="#DejaVuSans-20"/>
      <use x="1344.162109" xlink:href="#DejaVuSans-70"/>
      <use x="1407.638672" xlink:href="#DejaVuSans-61"/>
      <use x="1468.917969" xlink:href="#DejaVuSans-69"/>
      <use x="1496.701172" xlink:href="#DejaVuSans-72"/>
      <use x="1537.814453" xlink:href="#DejaVuSans-73"/>
     </g>
    </g>
   </g>
   <g id="line2d_41">
    <defs>
     <path d="M 0 1.5 
C 0.397805 1.5 0.77937 1.341951 1.06066 1.06066 
C 1.341951 0.77937 1.5 0.397805 1.5 0 
C 1.5 -0.397805 1.341951 -0.77937 1.06066 -1.06066 
C 0.77937 -1.341951 0.397805 -1.5 0 -1.5 
C -0.397805 -1.5 -0.77937 -1.341951 -1.06066 -1.06066 
C -1.341951 -0.77937 -1.5 -0.397805 -1.5 0 
C -1.5 0.397805 -1.341951 0.77937 -1.06066 1.06066 
C -0.77937 1.341951 -0.397805 1.5 0 1.5 
z
" id="m7b88f387c2" style="stroke:#f5deb3;"/>
    </defs>
    <g>
     <use style="fill:#f5deb3;stroke:#f5deb3;" x="136.196864" xlink:href="#m7b88f387c2" y="9.697057"/>
     <use style="fill:#f5deb3;stroke:#f5deb3;" x="136.196864" xlink:href="#m7b88f387c2" y="9.697057"/>
    </g>
   </g>
   <g id="line2d_42">
    <defs>
     <path d="M 0 1.5 
C 0.397805 1.5 0.77937 1.341951 1.06066 1.06066 
C 1.341951 0.77937 1.5 0.397805 1.5 0 
C 1.5 -0.397805 1.341951 -0.77937 1.06066 -1.06066 
C 0.77937 -1.341951 0.397805 -1.5 0 -1.5 
C -0.397805 -1.5 -0.77937 -1.341951 -1.06066 -1.06066 
C -1.341951 -0.77937 -1.5 -0.397805 -1.5 0 
C -1.5 0.397805 -1.341951 0.77937 -1.06066 1.06066 
C -0.77937 1.341951 -0.397805 1.5 0 1.5 
z
" id="me5c5c106cd" style="stroke:#000080;"/>
    </defs>
    <g>
     <use style="fill:#000080;stroke:#000080;" x="272.006652" xlink:href="#me5c5c106cd" y="18.643973"/>
     <use style="fill:#000080;stroke:#000080;" x="272.006652" xlink:href="#me5c5c106cd" y="18.643973"/>
    </g>
   </g>
   <g id="line2d_43">
    <path d="M 44.205749 294.88 
L 44.205749 288.393486 
L 68.034251 288.393486 
L 68.034251 286.044921 
L 77.653281 286.044921 
L 77.653281 282.801664 
L 83.784035 282.801664 
L 83.784035 277.769023 
L 88.293717 277.769023 
L 88.293717 271.953528 
L 91.862754 271.953528 
L 91.862754 265.578851 
L 94.816624 265.578851 
L 94.816624 259.427846 
L 97.336537 259.427846 
L 97.336537 255.178061 
L 99.533818 255.178061 
L 99.533818 252.270313 
L 101.481783 252.270313 
L 101.481783 249.586238 
L 103.231288 249.586238 
L 103.231288 246.454818 
L 104.819059 246.454818 
L 104.819059 243.770743 
L 106.272485 243.770743 
L 106.272485 241.310341 
L 107.612537 241.310341 
L 107.612537 237.619739 
L 108.85563 237.619739 
L 108.85563 236.277701 
L 110.014853 236.277701 
L 110.014853 234.264645 
L 111.100812 234.264645 
L 111.100812 232.139753 
L 112.122219 232.139753 
L 112.122219 229.679351 
L 113.086321 229.679351 
L 113.086321 228.11364 
L 113.999206 228.11364 
L 113.999206 225.653239 
L 114.866043 225.653239 
L 114.866043 222.521818 
L 115.691256 222.521818 
L 115.691256 219.278561 
L 116.478659 219.278561 
L 116.478659 217.153669 
L 117.231566 217.153669 
L 117.231566 214.134084 
L 117.952873 214.134084 
L 117.952873 210.331645 
L 118.417459 210.331645 
L 118.417459 210.219809 
L 118.645127 210.219809 
L 118.645127 206.752879 
L 119.310576 206.752879 
L 119.310576 201.496566 
L 119.95122 201.496566 
L 119.95122 196.799435 
L 120.568842 196.799435 
L 120.568842 192.102304 
L 121.16504 192.102304 
L 121.16504 186.174972 
L 121.551317 186.174972 
L 121.551317 186.063136 
L 121.741249 186.063136 
L 121.741249 179.129276 
L 122.298767 179.129276 
L 122.298767 173.425617 
L 122.838768 173.425617 
L 122.838768 168.61665 
L 123.36232 168.61665 
L 123.36232 165.261557 
L 123.870396 165.261557 
L 123.870396 161.347281 
L 124.363883 161.347281 
L 124.363883 158.439533 
L 124.843597 158.439533 
L 124.843597 154.189748 
L 125.310285 154.189748 
L 125.310285 149.828127 
L 125.764637 149.828127 
L 125.764637 145.913851 
L 126.207287 145.913851 
L 126.207287 144.012631 
L 126.638823 144.012631 
L 126.638823 142.111412 
L 126.92061 142.111412 
L 126.92061 141.999575 
L 127.05979 141.999575 
L 127.05979 140.881211 
L 127.470694 140.881211 
L 127.470694 137.861627 
L 127.605507 137.861627 
L 127.605507 137.74979 
L 127.872003 137.74979 
L 127.872003 137.190608 
L 128.647561 137.190608 
L 128.647561 136.519589 
L 129.022601 136.519589 
L 129.022601 136.295916 
L 129.389632 136.295916 
L 129.389632 135.848571 
L 129.748989 135.848571 
L 129.748989 134.61837 
L 130.100987 134.61837 
L 130.100987 134.28286 
L 130.445921 134.28286 
L 130.445921 133.835515 
L 130.784069 133.835515 
L 130.784069 133.611842 
L 131.115693 133.611842 
L 131.115693 132.940823 
L 131.441039 132.940823 
L 131.441039 132.828987 
L 131.760342 132.828987 
L 131.760342 132.605314 
L 132.073821 132.605314 
L 132.073821 132.493477 
L 132.684132 132.493477 
L 132.684132 131.710622 
L 133.273515 131.710622 
L 133.273515 131.375113 
L 133.843356 131.375113 
L 133.843356 131.15144 
L 134.121345 131.15144 
L 134.121345 131.039603 
L 134.39491 131.039603 
L 134.39491 130.927767 
L 134.664189 130.927767 
L 134.664189 130.815931 
L 134.929315 130.815931 
L 134.929315 130.704094 
L 135.190413 130.704094 
L 135.190413 130.256748 
L 135.447604 130.256748 
L 135.447604 129.921239 
L 135.701004 129.921239 
L 135.701004 129.362057 
L 135.950722 129.362057 
L 135.950722 128.914711 
L 136.196864 128.914711 
L 136.196864 128.020019 
L 136.439531 128.020019 
L 136.439531 127.460837 
L 136.67882 127.460837 
L 136.67882 127.013491 
L 136.914823 127.013491 
L 136.914823 126.789818 
L 137.14763 126.789818 
L 137.14763 126.677982 
L 137.377325 126.677982 
L 137.377325 126.454309 
L 137.827708 126.454309 
L 137.827708 126.342473 
L 138.04855 126.342473 
L 138.04855 126.230636 
L 138.266591 126.230636 
L 138.266591 126.1188 
L 138.4819 126.1188 
L 138.4819 125.335945 
L 138.904592 125.335945 
L 138.904592 125.000435 
L 139.112104 125.000435 
L 139.112104 124.888599 
L 139.317139 124.888599 
L 139.317139 124.441253 
L 139.519758 124.441253 
L 139.519758 123.546561 
L 139.720016 123.546561 
L 139.720016 123.322888 
L 139.917968 123.322888 
L 139.917968 123.099216 
L 140.307161 123.099216 
L 140.307161 122.204524 
L 140.498503 122.204524 
L 140.498503 122.092688 
L 140.687737 122.092688 
L 140.687737 119.744122 
L 141.243253 119.744122 
L 141.243253 119.18494 
L 141.424506 119.18494 
L 141.424506 118.625758 
L 141.603867 118.625758 
L 141.603867 118.290248 
L 141.781376 118.290248 
L 141.781376 117.060047 
L 141.95707 117.060047 
L 141.95707 116.724538 
L 142.130987 116.724538 
L 142.130987 116.612702 
L 142.303162 116.612702 
L 142.360172 115.941683 
L 142.473629 115.941683 
L 142.473629 115.829846 
L 142.809574 115.829846 
L 142.809574 115.606174 
L 142.975116 115.606174 
L 142.975116 115.382501 
L 143.301492 115.382501 
L 143.301492 115.158828 
L 143.462385 115.158828 
L 143.462385 114.823318 
L 143.621786 114.823318 
L 143.621786 114.487809 
L 143.779723 114.487809 
L 143.779723 114.264136 
L 143.936221 114.264136 
L 143.936221 114.1523 
L 144.091308 114.1523 
L 144.091308 113.704954 
L 144.245007 113.704954 
L 144.245007 113.369445 
L 144.397345 113.369445 
L 144.397345 112.922099 
L 144.548344 112.922099 
L 144.648278 111.803734 
L 144.698028 111.803734 
L 144.698028 111.132716 
L 144.84642 111.132716 
L 144.84642 110.909043 
L 144.993542 110.909043 
L 144.993542 110.238024 
L 145.139415 110.238024 
L 145.139415 109.902515 
L 145.4275 109.902515 
L 145.4275 109.790678 
L 145.569751 109.790678 
L 145.569751 108.895987 
L 145.710835 108.895987 
L 145.710835 108.224968 
L 145.85077 108.224968 
L 145.85077 108.001295 
L 145.989576 108.001295 
L 145.989576 107.777622 
L 146.127269 107.777622 
L 146.127269 107.665786 
L 146.263868 107.665786 
L 146.263868 107.553949 
L 146.39939 107.553949 
L 146.39939 107.442113 
L 146.533852 107.442113 
L 146.533852 107.21844 
L 146.667271 107.21844 
L 146.667271 106.994767 
L 146.799661 106.994767 
L 146.799661 106.771094 
L 146.93104 106.771094 
L 146.93104 106.659258 
L 147.190823 106.659258 
L 147.190823 106.547421 
L 147.319256 106.547421 
L 147.319256 106.323748 
L 147.446737 106.323748 
L 147.446737 106.211912 
L 147.698898 106.211912 
L 147.698898 105.988239 
L 147.823604 105.988239 
L 147.823604 105.764566 
L 147.947413 105.764566 
L 147.947413 105.65273 
L 148.192385 105.65273 
L 148.192385 105.540893 
L 148.433916 105.540893 
L 148.433916 105.429057 
L 148.55342 105.429057 
L 148.55342 105.205384 
L 148.672099 105.205384 
L 148.672099 105.093547 
L 148.789965 105.093547 
L 148.789965 104.869875 
L 148.907027 104.869875 
L 148.907027 104.422529 
L 149.138788 104.422529 
L 149.138788 103.75151 
L 149.253506 103.75151 
L 149.253506 103.304164 
L 149.367465 103.304164 
L 149.367465 102.1858 
L 149.480672 102.1858 
L 149.555732 101.85029 
L 149.593139 101.85029 
L 149.593139 101.291108 
L 149.704875 101.291108 
L 149.815889 100.843762 
L 149.926191 100.843762 
L 150.035789 100.28458 
L 150.252912 100.28458 
L 150.360453 99.949071 
L 150.396151 99.949071 
L 150.396151 99.837234 
L 150.573538 99.837234 
L 150.679098 99.613561 
L 150.888293 99.613561 
L 150.991943 99.278052 
L 151.299196 99.278052 
L 151.400405 98.495197 
L 151.501022 98.495197 
L 151.601053 98.047851 
L 151.634268 98.047851 
L 151.634268 97.824178 
L 151.8977 97.824178 
L 151.8977 97.600505 
L 152.092658 97.600505 
L 152.189314 96.929487 
L 152.381011 96.929487 
L 152.476064 96.258468 
L 152.570594 96.258468 
L 152.570594 96.034795 
L 152.851103 96.034795 
L 152.943598 94.580921 
L 153.035598 94.580921 
L 153.127109 94.133576 
L 153.218134 94.133576 
L 153.30868 93.574393 
L 153.398752 93.574393 
L 153.488354 93.238884 
L 153.666169 93.238884 
L 153.754391 92.791538 
L 154.016374 92.791538 
L 154.102822 91.896847 
L 154.444329 91.896847 
L 154.444329 91.78501 
L 154.612571 91.78501 
L 154.696079 90.890319 
L 154.944195 90.890319 
L 155.026111 90.442973 
L 155.18878 90.442973 
L 155.269542 89.660118 
L 155.349925 89.660118 
L 155.456522 88.989099 
L 155.509573 88.989099 
L 155.588844 88.541753 
L 155.746298 88.541753 
L 155.824488 88.206244 
L 155.902323 88.206244 
L 155.979808 87.870734 
L 156.056945 87.870734 
L 156.133737 87.311552 
L 156.210188 87.311552 
L 156.210188 86.640533 
L 156.43752 86.640533 
L 156.512635 86.416861 
L 156.587422 86.416861 
L 156.587422 86.305024 
L 156.809852 86.305024 
L 156.809852 86.193188 
L 156.956555 86.193188 
L 156.956555 86.081351 
L 157.174289 86.081351 
L 157.174289 85.969515 
L 157.389299 85.969515 
L 157.460375 85.410333 
L 157.601653 85.410333 
L 157.671858 84.962987 
L 157.741778 84.962987 
L 157.811415 84.515641 
L 157.949847 84.515641 
L 158.018648 84.291968 
L 158.087174 84.291968 
L 158.087174 84.180132 
L 158.223412 84.180132 
L 158.291129 83.844622 
L 158.492691 83.844622 
L 158.492691 83.732786 
L 158.625765 83.732786 
L 158.735879 82.390748 
L 158.757817 82.390748 
L 158.845291 81.38422 
L 159.083575 81.38422 
L 159.083575 81.160548 
L 159.403273 81.160548 
L 159.466505 80.713202 
L 159.592276 80.713202 
L 159.592276 80.15402 
L 159.717134 80.15402 
L 159.820493 79.259328 
L 159.902736 79.259328 
L 159.902736 79.147491 
L 160.086355 79.147491 
L 160.126894 78.923819 
L 160.207687 78.923819 
L 160.207687 78.811982 
L 160.388094 78.811982 
L 160.388094 78.588309 
L 160.684628 78.588309 
L 160.684628 78.364636 
L 160.918225 78.364636 
L 160.976132 78.029127 
L 161.319534 78.029127 
L 161.413719 77.805454 
L 161.544716 77.805454 
L 161.544716 77.693618 
L 161.65621 77.693618 
L 161.693215 77.358108 
L 161.931822 77.358108 
L 161.931822 77.246272 
L 162.149174 77.246272 
L 162.256827 77.022599 
L 162.399325 77.022599 
L 162.399325 76.910763 
L 162.575801 76.910763 
L 162.575801 76.798926 
L 162.819862 76.798926 
L 162.837164 76.575253 
L 162.940606 76.575253 
L 163.04343 76.239744 
L 163.297829 76.239744 
L 163.398544 75.904234 
L 163.548519 75.904234 
L 163.598221 75.568725 
L 164.135664 75.568725 
L 164.135664 75.345052 
L 164.469126 75.345052 
L 164.563224 74.450361 
L 164.74989 74.450361 
L 164.74989 74.226688 
L 164.980407 74.226688 
L 164.980407 74.003015 
L 165.253008 74.003015 
L 165.253008 73.443833 
L 165.387704 73.443833 
L 165.387704 73.331996 
L 165.916175 73.331996 
L 165.916175 72.996487 
L 166.088782 72.996487 
L 166.131664 72.101795 
L 166.217109 72.101795 
L 166.259673 71.542613 
L 166.344485 71.542613 
L 166.344485 71.430777 
L 167.647483 71.430777 
L 167.647483 71.31894 
L 168.41439 71.31894 
L 168.489231 70.983431 
L 168.822044 70.983431 
L 168.822044 70.759758 
L 169.076516 70.759758 
L 169.148535 70.200576 
L 169.748816 70.200576 
L 169.818078 69.641393 
L 169.921451 69.641393 
L 169.921451 69.529557 
L 170.462515 69.529557 
L 170.562096 68.970375 
L 171.019325 68.970375 
L 171.051523 68.523029 
L 171.147759 68.523029 
L 171.190358 68.18752 
L 171.652107 68.18752 
L 171.745046 67.404664 
L 171.816987 67.404664 
L 171.837486 67.180992 
L 172.020888 67.180992 
L 172.101776 66.062627 
L 172.202353 66.062627 
L 172.202353 65.838954 
L 174.349016 65.838954 
L 174.349016 65.056099 
L 174.560138 65.056099 
L 174.560138 64.944263 
L 174.846261 64.944263 
L 174.846261 64.496917 
L 175.228907 64.496917 
L 175.228907 64.38508 
L 175.823958 64.38508 
L 175.896911 63.937735 
L 175.969557 63.937735 
L 175.969557 63.602225 
L 176.563282 63.602225 
L 176.656404 62.595697 
L 176.702776 62.595697 
L 176.772101 62.260188 
L 177.45039 62.260188 
L 177.45039 62.036515 
L 177.670666 62.036515 
L 177.779754 61.029987 
L 178.038776 61.029987 
L 178.038776 60.806314 
L 178.552327 60.806314 
L 178.649087 60.023459 
L 178.731593 60.023459 
L 178.752157 59.799786 
L 179.3182 59.799786 
L 179.3182 59.576113 
L 179.535572 59.576113 
L 179.535572 59.464277 
L 179.691952 59.464277 
L 179.730826 58.905094 
L 179.904677 58.905094 
L 179.962239 58.234076 
L 180.133778 58.234076 
L 180.152732 58.010403 
L 180.378572 58.010403 
L 180.378572 57.78673 
L 180.675148 57.78673 
L 180.675148 57.339384 
L 180.803308 57.339384 
L 180.857942 56.780202 
L 180.984752 56.780202 
L 180.984752 56.556529 
L 181.465293 56.556529 
L 181.465293 56.444692 
L 182.187081 56.444692 
L 182.187081 56.332856 
L 183.200072 56.332856 
L 183.295008 55.997347 
L 183.358008 55.997347 
L 183.405108 55.550001 
L 183.592225 55.550001 
L 183.685025 54.655309 
L 183.777327 54.655309 
L 183.787552 54.3198 
L 184.141657 54.3198 
L 184.246481 54.096127 
L 184.261404 54.096127 
L 184.276314 53.872454 
L 185.091277 53.872454 
L 185.166915 53.648781 
L 185.814921 53.648781 
L 185.828543 53.201435 
L 186.272116 53.201435 
L 186.272116 52.75409 
L 186.39113 52.75409 
L 186.430619 52.41858 
L 186.644037 52.41858 
L 186.717465 51.747562 
L 186.871932 51.747562 
L 186.871932 51.523889 
L 187.58727 51.523889 
L 187.58727 51.412052 
L 187.855593 51.412052 
L 187.903933 50.741034 
L 188.036169 50.741034 
L 188.143611 50.405524 
L 189.058958 50.405524 
L 189.115283 49.510833 
L 189.205022 49.510833 
L 189.238553 49.28716 
L 189.559363 49.28716 
L 189.559363 49.175323 
L 189.906547 49.175323 
L 189.906547 49.063487 
L 190.785881 49.063487 
L 190.785881 48.95165 
L 190.988779 48.95165 
L 190.988779 48.616141 
L 191.436727 48.616141 
L 191.456368 48.056959 
L 191.670944 48.056959 
L 191.670944 47.833286 
L 192.044868 47.833286 
L 192.044868 47.609613 
L 192.177137 47.609613 
L 192.261633 47.050431 
L 192.45719 47.050431 
L 192.475699 46.826758 
L 192.760068 46.826758 
L 192.832696 45.708393 
L 193.499062 45.708393 
L 193.507775 45.484721 
L 194.481376 45.484721 
L 194.506051 44.142683 
L 195.016201 44.142683 
L 195.048085 43.807174 
L 195.159219 43.807174 
L 195.19084 43.247992 
L 195.441735 43.247992 
L 195.496134 42.912482 
L 195.742644 42.912482 
L 195.745193 42.465136 
L 195.9328 42.465136 
L 195.9328 42.3533 
L 196.766993 42.3533 
L 196.774197 42.129627 
L 197.165863 42.129627 
L 197.179938 41.794118 
L 197.651776 41.794118 
L 197.66546 41.458608 
L 198.43448 41.458608 
L 198.438839 41.234936 
L 198.719847 41.234936 
L 198.745556 40.899426 
L 199.26429 40.899426 
L 199.270521 40.45208 
L 199.65246 40.45208 
L 199.65246 40.116571 
L 200.008204 40.116571 
L 200.008204 39.781062 
L 202.059014 39.781062 
L 202.059014 39.333716 
L 202.647325 39.333716 
L 202.647325 38.215351 
L 203.176507 38.215351 
L 203.193042 37.208823 
L 203.728374 37.208823 
L 203.728374 37.096987 
L 204.952567 37.096987 
L 204.961517 36.873314 
L 205.537775 36.873314 
L 205.55507 36.649641 
L 205.782605 36.649641 
L 205.782605 36.537805 
L 209.885862 36.537805 
L 209.885862 36.425968 
L 210.014149 36.425968 
L 210.014149 36.314132 
L 210.207548 36.314132 
L 210.300706 36.090459 
L 210.494168 36.090459 
L 210.542734 35.866786 
L 210.620156 35.866786 
L 210.620156 35.75495 
L 211.224179 35.75495 
L 211.267629 35.41944 
L 211.351116 35.41944 
L 211.351116 35.307604 
L 211.67199 35.307604 
L 211.696193 34.748422 
L 211.800684 34.748422 
L 211.849696 34.301076 
L 212.825288 34.301076 
L 212.856402 34.077403 
L 213.083797 34.077403 
L 213.083797 33.965566 
L 213.197761 33.965566 
L 213.197761 33.85373 
L 213.310058 33.85373 
L 213.363188 33.630057 
L 213.627306 33.630057 
L 213.627306 33.518221 
L 213.743103 33.518221 
L 213.743103 33.406384 
L 213.900728 33.406384 
L 213.990911 32.959038 
L 215.007841 32.959038 
L 215.114729 32.735365 
L 215.129591 32.735365 
L 215.228343 32.399856 
L 215.262773 32.399856 
L 215.262773 32.28802 
L 215.387616 32.28802 
L 215.416859 32.064347 
L 215.499446 32.064347 
L 215.579227 31.840674 
L 216.516395 31.840674 
L 216.516395 31.728837 
L 216.850399 31.728837 
L 216.850399 31.393328 
L 216.982057 31.393328 
L 216.982057 31.281492 
L 217.218282 31.281492 
L 217.218282 31.169655 
L 217.629911 31.169655 
L 217.629911 31.057819 
L 217.887006 31.057819 
L 217.887006 30.945982 
L 218.420636 30.945982 
L 218.420636 30.834146 
L 218.999586 30.834146 
L 218.999586 30.722309 
L 220.164997 30.722309 
L 220.269965 30.3868 
L 220.57206 30.3868 
L 220.57206 30.274964 
L 220.84232 30.274964 
L 220.84232 30.163127 
L 221.5008 30.163127 
L 221.5008 30.051291 
L 221.662399 30.051291 
L 221.716492 29.827618 
L 221.917838 29.827618 
L 221.917838 29.715781 
L 222.207304 29.715781 
L 222.207304 29.603945 
L 222.400852 29.603945 
L 222.400852 29.492108 
L 222.697248 29.492108 
L 222.697248 29.380272 
L 223.318239 29.380272 
L 223.318239 29.268436 
L 224.089946 29.268436 
L 224.117854 29.044763 
L 224.361228 29.044763 
L 224.413243 28.82109 
L 225.707827 28.82109 
L 225.809217 28.597417 
L 226.062726 28.597417 
L 226.062726 28.48558 
L 226.424569 28.48558 
L 226.424569 28.373744 
L 226.827912 28.373744 
L 226.930402 28.038235 
L 226.965259 28.038235 
L 226.965259 27.926398 
L 227.532027 27.926398 
L 227.577291 27.590889 
L 227.643171 27.590889 
L 227.643171 27.479052 
L 227.974704 27.479052 
L 227.974704 27.367216 
L 228.486513 27.367216 
L 228.486513 27.25538 
L 229.998017 27.25538 
L 230.023018 27.031707 
L 230.383545 27.031707 
L 230.383545 26.91987 
L 230.579163 26.91987 
L 230.579163 26.808034 
L 231.285056 26.808034 
L 231.285056 26.696197 
L 231.546159 26.696197 
L 231.546159 26.584361 
L 231.890418 26.584361 
L 231.890418 26.472524 
L 232.084481 26.472524 
L 232.084481 26.360688 
L 232.203177 26.360688 
L 232.286418 26.025179 
L 232.536447 26.025179 
L 232.55712 25.801506 
L 234.717712 25.801506 
L 234.717712 25.689669 
L 235.133287 25.689669 
L 235.133287 25.577833 
L 235.288776 25.577833 
L 235.288776 25.465996 
L 235.539806 25.465996 
L 235.539806 25.35416 
L 235.884459 25.35416 
L 235.884459 25.242323 
L 236.121889 25.242323 
L 236.121889 25.130487 
L 236.815814 25.130487 
L 236.815814 25.018651 
L 237.195577 25.018651 
L 237.280636 24.794978 
L 237.413875 24.794978 
L 237.413875 24.683141 
L 237.599763 24.683141 
L 237.599763 24.571305 
L 237.962991 24.571305 
L 238.048697 24.347632 
L 238.08846 24.347632 
L 238.141767 23.900286 
L 238.321272 23.900286 
L 238.321272 23.78845 
L 238.474747 23.78845 
L 238.474747 23.676613 
L 238.699907 23.676613 
L 238.699907 23.564777 
L 238.88179 23.564777 
L 238.932076 23.341104 
L 239.07161 23.341104 
L 239.07161 23.229267 
L 240.031238 23.229267 
L 240.085814 23.005594 
L 240.176582 23.005594 
L 240.176582 22.893758 
L 240.391466 22.893758 
L 240.391466 22.781922 
L 240.556948 22.781922 
L 240.556948 22.670085 
L 240.730904 22.670085 
L 240.730904 22.558249 
L 241.061031 22.558249 
L 241.061031 22.446412 
L 241.392459 22.446412 
L 241.392459 22.334576 
L 242.367311 22.334576 
L 242.403315 22.110903 
L 242.733935 22.110903 
L 242.733935 21.999066 
L 243.106522 21.999066 
L 243.106522 21.88723 
L 243.720265 21.88723 
L 243.720265 21.775394 
L 244.242442 21.775394 
L 244.242442 21.663557 
L 244.419943 21.663557 
L 244.419943 21.551721 
L 245.595552 21.551721 
L 245.702079 21.328048 
L 245.833279 21.328048 
L 245.833279 21.216211 
L 246.421015 21.216211 
L 246.438649 20.992538 
L 247.015677 20.992538 
L 247.110313 20.768866 
L 247.401745 20.768866 
L 247.401745 20.657029 
L 248.391134 20.657029 
L 248.391134 20.545193 
L 249.325643 20.545193 
L 249.325643 20.433356 
L 250.185884 20.433356 
L 250.185884 20.32152 
L 251.062145 20.32152 
L 251.062145 20.209683 
L 251.177763 20.209683 
L 251.177763 20.097847 
L 251.713849 20.097847 
L 251.713849 19.98601 
L 252.090738 19.98601 
L 252.090738 19.874174 
L 253.048699 19.874174 
L 253.048699 19.762337 
L 253.37418 19.762337 
L 253.37418 19.650501 
L 258.494249 19.650501 
L 258.494249 19.538665 
L 261.059591 19.538665 
L 261.059591 19.426828 
L 262.694742 19.426828 
L 262.694742 19.314992 
L 263.442123 19.314992 
L 263.442123 19.203155 
L 263.5798 19.203155 
L 263.5798 19.091319 
L 265.808614 19.091319 
L 265.808614 18.979482 
L 266.062045 18.979482 
L 266.062045 18.867646 
L 271.523244 18.867646 
L 271.523244 18.755809 
L 272.006652 18.755809 
L 272.006652 18.643973 
L 333.168 18.643973 
L 333.168 18.643973 
" style="fill:none;stroke:#000080;stroke-linecap:square;stroke-width:1.5;"/>
   </g>
   <g id="line2d_44">
    <defs>
     <path d="M 0 6 
C 1.591219 6 3.117479 5.367802 4.242641 4.242641 
C 5.367802 3.117479 6 1.591219 6 0 
C 6 -1.591219 5.367802 -3.117479 4.242641 -4.242641 
C 3.117479 -5.367802 1.591219 -6 0 -6 
C -1.591219 -6 -3.117479 -5.367802 -4.242641 -4.242641 
C -5.367802 -3.117479 -6 -1.591219 -6 0 
C -6 1.591219 -5.367802 3.117479 -4.242641 4.242641 
C -3.117479 5.367802 -1.591219 6 0 6 
z
" id="mdcb4373a51" style="stroke:#000080;stroke-width:1.5;"/>
    </defs>
    <g>
     <use style="fill:none;stroke:#000080;stroke-width:1.5;" x="125.764637" xlink:href="#mdcb4373a51" y="145.913851"/>
     <use style="fill:none;stroke:#000080;stroke-width:1.5;" x="171.190358" xlink:href="#mdcb4373a51" y="68.18752"/>
     <use style="fill:none;stroke:#000080;stroke-width:1.5;" x="253.37418" xlink:href="#mdcb4373a51" y="19.762337"/>
     <use style="fill:none;stroke:#000080;stroke-width:1.5;" x="272.006652" xlink:href="#mdcb4373a51" y="18.643973"/>
     <use style="fill:none;stroke:#000080;stroke-width:1.5;" x="272.006652" xlink:href="#mdcb4373a51" y="18.643973"/>
     <use style="fill:none;stroke:#000080;stroke-width:1.5;" x="333.168" xlink:href="#mdcb4373a51" y="18.643973"/>
    </g>
   </g>
   <g id="line2d_45">
    <path style="fill:none;stroke:#000080;stroke-linecap:square;stroke-width:1.5;"/>
    <g/>
   </g>
   <g id="line2d_46">
    <path clip-path="url(#p5c3f0455d1)" d="M 204.26152 37.096987 
" style="fill:none;stroke:#000080;stroke-linecap:square;stroke-width:1.5;"/>
    <defs>
     <path d="M -12 12 
L 12 -12 
M -12 -12 
L 12 12 
" id="m0130926486" style="stroke:#000080;"/>
    </defs>
    <g clip-path="url(#p5c3f0455d1)">
     <use style="fill:#000080;stroke:#000080;" x="204.26152" xlink:href="#m0130926486" y="37.096987"/>
    </g>
   </g>
   <g id="line2d_47">
    <defs>
     <path d="M 0 1.5 
C 0.397805 1.5 0.77937 1.341951 1.06066 1.06066 
C 1.341951 0.77937 1.5 0.397805 1.5 0 
C 1.5 -0.397805 1.341951 -0.77937 1.06066 -1.06066 
C 0.77937 -1.341951 0.397805 -1.5 0 -1.5 
C -0.397805 -1.5 -0.77937 -1.341951 -1.06066 -1.06066 
C -1.341951 -0.77937 -1.5 -0.397805 -1.5 0 
C -1.5 0.397805 -1.341951 0.77937 -1.06066 1.06066 
C -0.77937 1.341951 -0.397805 1.5 0 1.5 
z
" id="mc499609b3f" style="stroke:#ff00ff;"/>
    </defs>
    <g>
     <use style="fill:#ff00ff;stroke:#ff00ff;" x="200.907262" xlink:href="#mc499609b3f" y="11.933786"/>
     <use style="fill:#ff00ff;stroke:#ff00ff;" x="200.907262" xlink:href="#mc499609b3f" y="11.933786"/>
    </g>
   </g>
   <g id="line2d_48">
    <path d="M 44.205749 294.88 
L 44.205749 287.94614 
L 81.973032 287.94614 
L 81.973032 287.834304 
L 92.904808 287.834304 
L 92.904808 287.610631 
L 93.887283 287.610631 
L 93.887283 287.498794 
L 94.816624 287.498794 
L 94.816624 286.939612 
L 95.698286 286.939612 
L 95.698286 286.604103 
L 96.536922 286.604103 
L 96.536922 286.492266 
L 98.100602 286.492266 
L 98.100602 286.38043 
L 99.533818 286.38043 
L 99.533818 286.156757 
L 100.207968 286.156757 
L 100.207968 285.821248 
L 101.481783 285.821248 
L 101.481783 285.709411 
L 102.084955 285.709411 
L 102.084955 285.150229 
L 103.231288 285.150229 
L 103.231288 284.255537 
L 103.777005 284.255537 
L 103.777005 283.808192 
L 104.305927 283.808192 
L 104.305927 282.689827 
L 104.819059 282.689827 
L 104.819059 281.795136 
L 105.317315 281.795136 
L 105.317315 280.788608 
L 105.801534 280.788608 
L 105.801534 279.44657 
L 106.272485 279.44657 
L 106.272485 278.887388 
L 106.730875 278.887388 
L 106.730875 278.440042 
L 107.612537 278.440042 
L 107.612537 276.650659 
L 108.036969 276.650659 
L 108.036969 276.31515 
L 108.451173 276.31515 
L 108.451173 274.861276 
L 108.85563 274.861276 
L 108.85563 273.966584 
L 109.250788 273.966584 
L 109.250788 273.854748 
L 109.637066 273.854748 
L 109.637066 272.624547 
L 110.014853 272.624547 
L 110.014853 272.065365 
L 110.384516 272.065365 
L 110.384516 271.282509 
L 110.746395 271.282509 
L 110.746395 270.275981 
L 111.100812 270.275981 
L 111.100812 269.604963 
L 111.448069 269.604963 
L 111.448069 268.710271 
L 111.788449 268.710271 
L 111.788449 267.703743 
L 112.122219 267.703743 
L 112.122219 266.697215 
L 112.449632 266.697215 
L 112.449632 264.684159 
L 112.770924 264.684159 
L 112.770924 264.124977 
L 113.086321 264.124977 
L 113.086321 261.776411 
L 113.396034 261.776411 
L 113.396034 260.434374 
L 113.700266 260.434374 
L 113.700266 258.309481 
L 113.999206 258.309481 
L 113.999206 255.84908 
L 114.293036 255.84908 
L 114.293036 254.507042 
L 114.581927 254.507042 
L 114.581927 253.94786 
L 114.866043 253.94786 
L 114.866043 253.165005 
L 115.145539 253.165005 
L 115.145539 251.934804 
L 115.420563 251.934804 
L 115.420563 251.599295 
L 115.691256 251.599295 
L 115.691256 250.48093 
L 115.957752 250.48093 
L 115.957752 249.362566 
L 116.220179 249.362566 
L 116.220179 248.244201 
L 116.478659 248.244201 
L 116.478659 247.796855 
L 116.73331 247.796855 
L 116.73331 247.014 
L 116.984244 247.014 
L 116.984244 246.678491 
L 117.231566 246.678491 
L 117.231566 246.342981 
L 117.475381 246.342981 
L 117.475381 245.44829 
L 117.715785 245.44829 
L 117.715785 245.336453 
L 117.952873 245.336453 
L 117.952873 244.553598 
L 118.186736 244.553598 
L 118.186736 244.441762 
L 118.417459 244.441762 
L 118.417459 244.329925 
L 118.645127 244.329925 
L 118.645127 243.88258 
L 118.869818 243.88258 
L 118.869818 243.770743 
L 119.09161 243.770743 
L 119.09161 243.323397 
L 119.310576 243.323397 
L 119.310576 243.099724 
L 119.526788 243.099724 
L 119.526788 241.869524 
L 119.740314 241.869524 
L 119.740314 241.534014 
L 119.95122 241.534014 
L 119.95122 240.862996 
L 120.15957 240.862996 
L 120.15957 239.968304 
L 120.365424 239.968304 
L 120.365424 239.632795 
L 120.568842 239.632795 
L 120.568842 239.520958 
L 120.769881 239.520958 
L 120.769881 239.185449 
L 121.16504 239.185449 
L 121.16504 238.402594 
L 121.359263 238.402594 
L 121.359263 238.178921 
L 121.551317 238.178921 
L 121.551317 237.955248 
L 121.741249 237.955248 
L 121.741249 237.284229 
L 121.929105 237.284229 
L 121.929105 236.613211 
L 122.114929 236.613211 
L 122.114929 236.054028 
L 122.298767 236.054028 
L 122.298767 235.606682 
L 122.480659 235.606682 
L 122.480659 235.0475 
L 122.660646 235.0475 
L 122.660646 234.376482 
L 122.838768 234.376482 
L 122.838768 233.593626 
L 123.015063 233.593626 
L 123.015063 232.810771 
L 123.189569 232.810771 
L 123.189569 231.468734 
L 123.36232 231.468734 
L 123.36232 231.021388 
L 123.533353 231.021388 
L 123.533353 230.01486 
L 123.7027 230.01486 
L 123.7027 229.343841 
L 123.870396 229.343841 
L 123.870396 228.560986 
L 124.036471 228.560986 
L 124.036471 228.001804 
L 124.200956 228.001804 
L 124.200956 226.88344 
L 124.363883 226.88344 
L 124.363883 226.324257 
L 124.52528 226.324257 
L 124.52528 225.765075 
L 124.685175 225.765075 
L 124.685175 225.205893 
L 124.843597 225.205893 
L 124.843597 224.311201 
L 125.000572 224.311201 
L 125.000572 223.192837 
L 125.156126 223.192837 
L 125.156126 221.738963 
L 125.310285 221.738963 
L 125.310285 220.285089 
L 125.463074 220.285089 
L 125.463074 218.607542 
L 125.614517 218.607542 
L 125.614517 217.712851 
L 125.764637 217.712851 
L 125.764637 216.258977 
L 125.913457 216.258977 
L 125.913457 215.140612 
L 126.061 215.140612 
L 126.061 212.568374 
L 126.207287 212.568374 
L 126.207287 211.338173 
L 126.352339 211.338173 
L 126.352339 210.555318 
L 126.496178 210.555318 
L 126.496178 208.542262 
L 126.638823 208.542262 
L 126.638823 207.64757 
L 126.780294 207.64757 
L 126.780294 205.075332 
L 126.92061 205.075332 
L 126.92061 202.838603 
L 127.05979 202.838603 
L 127.05979 200.825547 
L 127.197852 200.825547 
L 127.197852 199.259837 
L 127.334814 199.259837 
L 127.334814 197.023108 
L 127.470694 197.023108 
L 127.470694 194.003524 
L 127.605507 194.003524 
L 127.605507 192.437813 
L 127.739271 192.437813 
L 127.739271 191.095776 
L 127.872003 191.095776 
L 127.872003 187.740683 
L 128.003717 187.740683 
L 128.003717 185.951299 
L 128.13443 185.951299 
L 128.13443 183.826407 
L 128.264156 183.826407 
L 128.264156 181.477842 
L 128.39291 181.477842 
L 128.39291 180.694986 
L 128.520707 180.694986 
L 128.520707 178.458257 
L 128.647561 178.458257 
L 128.647561 176.892547 
L 128.773486 176.892547 
L 128.773486 175.215 
L 128.898495 175.215 
L 128.898495 173.425617 
L 129.022601 173.425617 
L 129.022601 170.070524 
L 129.145817 170.070524 
L 129.145817 168.169304 
L 129.268157 168.169304 
L 129.268157 166.156248 
L 129.389632 166.156248 
L 129.389632 164.478701 
L 129.510254 164.478701 
L 129.510254 163.472173 
L 129.630036 163.472173 
L 129.630036 161.68279 
L 129.748989 161.68279 
L 129.748989 159.669734 
L 129.867125 159.669734 
L 129.867125 157.544842 
L 129.984454 157.544842 
L 129.984454 156.090968 
L 130.100987 156.090968 
L 130.100987 153.854239 
L 130.216736 153.854239 
L 130.216736 151.729346 
L 130.33171 151.729346 
L 130.33171 149.828127 
L 130.445921 149.828127 
L 130.445921 148.374253 
L 130.559378 148.374253 
L 130.559378 146.920379 
L 130.67209 146.920379 
L 130.67209 143.788959 
L 130.784069 143.788959 
L 130.784069 141.104884 
L 130.895323 141.104884 
L 131.005861 136.966935 
L 131.115693 136.966935 
L 131.224827 134.28286 
L 131.333273 134.28286 
L 131.441039 129.697566 
L 131.548134 129.697566 
L 131.654565 126.230636 
L 131.760342 126.230636 
L 131.865471 122.428197 
L 131.969962 122.428197 
L 132.073821 119.744122 
L 132.177056 119.744122 
L 132.279675 116.500865 
L 132.381685 116.500865 
L 132.483094 113.257608 
L 132.583907 113.257608 
L 132.684132 110.238024 
L 132.783777 110.238024 
L 132.882847 107.21844 
L 132.98135 107.21844 
L 133.079291 104.758038 
L 133.176677 104.758038 
L 133.273515 101.291108 
L 133.36981 101.291108 
L 133.465568 98.830706 
L 133.560797 98.830706 
L 133.6555 96.482141 
L 133.749684 96.482141 
L 133.843356 93.909903 
L 133.936519 93.909903 
L 134.029181 91.673174 
L 134.121345 91.673174 
L 134.213018 90.2193 
L 134.304205 90.2193 
L 134.39491 88.429917 
L 134.485139 88.429917 
L 134.574897 86.864206 
L 134.664189 86.864206 
L 134.753019 85.410333 
L 134.841393 85.410333 
L 134.929315 83.620949 
L 135.016789 83.620949 
L 135.10382 81.943403 
L 135.190413 81.943403 
L 135.276571 80.936875 
L 135.3623 80.936875 
L 135.447604 79.81851 
L 135.532486 79.81851 
L 135.616951 79.147491 
L 135.701004 79.147491 
L 135.784647 77.469945 
L 135.867885 77.469945 
L 135.950722 75.568725 
L 136.033161 75.568725 
L 136.115208 74.674034 
L 136.196864 74.674034 
L 136.278134 73.22016 
L 136.359022 73.22016 
L 136.439531 71.31894 
L 136.519665 71.31894 
L 136.599426 70.200576 
L 136.67882 70.200576 
L 136.757848 67.740174 
L 136.836515 67.740174 
L 136.914823 66.957319 
L 136.992776 66.957319 
L 137.070377 65.391608 
L 137.14763 65.391608 
L 137.224536 63.378552 
L 137.301101 63.378552 
L 137.377325 62.707534 
L 137.453213 62.707534 
L 137.528768 61.701006 
L 137.603992 61.701006 
L 137.678888 60.470805 
L 137.753459 60.470805 
L 137.827708 59.240604 
L 137.901638 59.240604 
L 137.975251 58.010403 
L 138.04855 58.010403 
L 138.121538 57.227548 
L 138.194217 57.227548 
L 138.266591 55.661837 
L 138.33866 55.661837 
L 138.410429 54.096127 
L 138.4819 54.096127 
L 138.553074 52.642253 
L 138.623956 52.642253 
L 138.694545 52.194907 
L 138.764847 52.194907 
L 138.764847 51.523889 
L 138.904592 51.523889 
L 138.974042 51.076543 
L 139.043211 51.076543 
L 139.112104 50.070015 
L 139.180721 50.070015 
L 139.249066 49.622669 
L 139.317139 49.622669 
L 139.384945 48.727978 
L 139.452484 48.727978 
L 139.519758 47.72145 
L 139.586771 47.72145 
L 139.653523 47.274104 
L 139.720016 47.274104 
L 139.786254 46.826758 
L 139.852237 46.826758 
L 139.917968 46.155739 
L 139.983449 46.155739 
L 140.048681 45.372884 
L 140.113666 45.372884 
L 140.178407 44.25452 
L 140.242905 44.25452 
L 140.307161 43.91901 
L 140.371179 43.91901 
L 140.434959 43.359828 
L 140.498503 43.359828 
L 140.498503 42.912482 
L 140.62489 42.912482 
L 140.62489 42.576973 
L 140.750355 42.576973 
L 140.812746 42.241464 
L 140.874911 42.241464 
L 140.936852 41.794118 
L 140.998571 41.794118 
L 140.998571 41.682281 
L 141.121347 41.682281 
L 141.121347 41.234936 
L 141.243253 41.234936 
L 141.303883 40.78759 
L 141.3643 40.78759 
L 141.424506 40.228408 
L 141.484501 40.228408 
L 141.544287 39.892898 
L 141.603867 39.892898 
L 141.66324 39.557389 
L 141.781376 39.557389 
L 141.84014 38.88637 
L 141.898705 38.88637 
L 141.95707 38.662697 
L 142.015238 38.662697 
L 142.07321 38.327188 
L 142.130987 38.327188 
L 142.18857 37.991679 
L 142.245962 37.991679 
L 142.303162 37.544333 
L 142.416994 37.544333 
L 142.473629 37.096987 
L 142.530078 37.096987 
L 142.586342 36.425968 
L 142.642422 36.425968 
L 142.69832 35.75495 
L 142.754037 35.75495 
L 142.864932 35.41944 
L 142.920112 35.41944 
L 143.029944 34.412912 
L 143.084598 34.412912 
L 143.084598 34.301076 
L 143.247524 34.301076 
L 143.35529 33.518221 
L 143.408921 33.518221 
L 143.515683 33.182711 
L 143.568817 33.182711 
L 143.568817 33.070875 
L 143.727238 33.070875 
L 143.832047 32.511693 
L 143.884213 32.511693 
L 143.988072 31.95251 
L 144.091308 31.95251 
L 144.193927 31.393328 
L 144.245007 31.393328 
L 144.346715 30.834146 
L 144.397345 30.834146 
L 144.498158 30.051291 
L 144.598384 30.051291 
L 144.698028 29.492108 
L 144.797098 29.492108 
L 144.797098 29.380272 
L 144.944641 29.380272 
L 145.042304 29.156599 
L 145.090928 29.156599 
L 145.187766 28.82109 
L 145.235981 28.82109 
L 145.332007 28.597417 
L 145.4275 28.597417 
L 145.522465 28.261908 
L 145.804252 28.261908 
L 145.804252 28.150071 
L 145.989576 28.150071 
L 146.035596 27.814562 
L 146.127269 27.814562 
L 146.172923 27.479052 
L 146.263868 27.479052 
L 146.309161 27.143543 
L 146.39939 27.143543 
L 146.489148 26.696197 
L 146.533852 26.696197 
L 146.622913 26.137015 
L 146.667271 26.137015 
L 146.755644 25.913342 
L 146.799661 25.913342 
L 146.843566 25.465996 
L 146.974611 25.465996 
L 147.061422 25.130487 
L 147.147797 25.130487 
L 147.147797 25.018651 
L 147.276552 25.018651 
L 147.361855 24.683141 
L 147.489022 24.683141 
L 147.489022 24.571305 
L 147.657127 24.571305 
L 147.657127 24.347632 
L 147.782136 24.347632 
L 147.782136 24.123959 
L 147.906242 24.123959 
L 147.947413 23.900286 
L 148.111115 23.900286 
L 148.192385 23.676613 
L 148.313575 23.676613 
L 148.353782 23.45294 
L 148.433916 23.45294 
L 148.473843 23.117431 
L 148.829074 23.117431 
L 148.829074 23.005594 
L 149.367465 23.005594 
L 149.405283 22.670085 
L 149.852735 22.670085 
L 149.852735 22.558249 
L 150.035789 22.558249 
L 150.035789 22.446412 
L 150.216915 22.446412 
L 150.216915 22.334576 
L 150.784014 22.334576 
L 150.784014 22.222739 
L 150.957462 22.222739 
L 151.026355 21.88723 
L 151.094972 21.88723 
L 151.129178 21.663557 
L 151.265327 21.663557 
L 151.265327 21.551721 
L 151.601053 21.551721 
L 151.667418 21.216211 
L 152.317349 21.216211 
L 152.381011 20.992538 
L 152.539141 20.992538 
L 152.633326 20.545193 
L 152.758108 20.545193 
L 152.789162 20.209683 
L 152.912822 20.209683 
L 152.97432 19.98601 
L 153.035598 19.98601 
L 153.035598 19.762337 
L 153.157504 19.762337 
L 153.187846 19.314992 
L 153.398752 19.314992 
L 153.428671 19.091319 
L 153.666169 19.091319 
L 153.754391 18.532137 
L 153.871321 18.532137 
L 153.871321 18.4203 
L 154.102822 18.4203 
L 154.102822 18.308464 
L 154.331245 18.308464 
L 154.416128 17.972954 
L 154.500593 17.972954 
L 154.500593 17.861118 
L 154.640452 17.861118 
L 154.723825 17.301936 
L 154.944195 17.301936 
L 155.05333 17.078263 
L 155.080505 17.078263 
L 155.080505 16.85459 
L 155.242663 16.85459 
L 155.242663 16.742753 
L 155.376636 16.742753 
L 155.376636 16.630917 
L 155.562461 16.630917 
L 155.562461 16.51908 
L 155.746298 16.51908 
L 155.824488 16.071735 
L 155.954019 16.071735 
L 156.005559 15.848062 
L 156.108178 15.848062 
L 156.108178 15.736225 
L 156.5376 15.736225 
L 156.5376 15.624389 
L 156.83439 15.624389 
L 156.83439 15.512552 
L 156.956555 15.512552 
L 156.956555 15.400716 
L 157.102017 15.400716 
L 157.174289 15.177043 
L 157.811415 15.177043 
L 157.811415 15.065207 
L 157.972811 15.065207 
L 158.018648 14.841534 
L 159.297366 14.841534 
L 159.297366 14.729697 
L 160.368142 14.729697 
L 160.368142 14.617861 
L 161.205828 14.617861 
L 161.205828 14.506024 
L 161.693215 14.506024 
L 161.693215 14.394188 
L 162.095093 14.394188 
L 162.095093 14.282352 
L 162.871714 14.282352 
L 162.871714 14.170515 
L 163.04343 14.170515 
L 163.04343 14.058679 
L 163.565102 14.058679 
L 163.565102 13.946842 
L 163.942169 13.946842 
L 163.942169 13.835006 
L 165.357863 13.835006 
L 165.357863 13.723169 
L 166.28799 13.723169 
L 166.28799 13.611333 
L 166.899453 13.611333 
L 166.899453 13.499496 
L 167.777701 13.499496 
L 167.777701 13.38766 
L 168.035213 13.38766 
L 168.035213 13.275823 
L 168.339221 13.275823 
L 168.401884 13.052151 
L 168.501673 13.052151 
L 168.501673 12.940314 
L 169.632754 12.940314 
L 169.632754 12.828478 
L 170.001425 12.828478 
L 170.001425 12.716641 
L 173.33736 12.716641 
L 173.384234 12.492968 
L 179.89827 12.492968 
L 179.89827 12.381132 
L 190.452711 12.381132 
L 190.452711 12.269295 
L 192.500346 12.269295 
L 192.500346 12.157459 
L 197.896426 12.157459 
L 197.896426 12.045623 
L 200.907262 12.045623 
L 200.907262 11.933786 
L 333.168 11.933786 
L 333.168 11.933786 
" style="fill:none;stroke:#ff00ff;stroke-linecap:square;stroke-width:1.5;"/>
   </g>
   <g id="line2d_49">
    <defs>
     <path d="M -0 8.485281 
L 5.091169 0 
L 0 -8.485281 
L -5.091169 -0 
z
" id="macfabfa5d3" style="stroke:#ff00ff;stroke-linejoin:miter;stroke-width:1.5;"/>
    </defs>
    <g>
     <use style="fill:none;stroke:#ff00ff;stroke-linejoin:miter;stroke-width:1.5;" x="126.780294" xlink:href="#macfabfa5d3" y="207.64757"/>
     <use style="fill:none;stroke:#ff00ff;stroke-linejoin:miter;stroke-width:1.5;" x="142.015238" xlink:href="#macfabfa5d3" y="38.662697"/>
     <use style="fill:none;stroke:#ff00ff;stroke-linejoin:miter;stroke-width:1.5;" x="200.907262" xlink:href="#macfabfa5d3" y="12.045623"/>
     <use style="fill:none;stroke:#ff00ff;stroke-linejoin:miter;stroke-width:1.5;" x="200.907262" xlink:href="#macfabfa5d3" y="11.933786"/>
     <use style="fill:none;stroke:#ff00ff;stroke-linejoin:miter;stroke-width:1.5;" x="200.907262" xlink:href="#macfabfa5d3" y="11.933786"/>
     <use style="fill:none;stroke:#ff00ff;stroke-linejoin:miter;stroke-width:1.5;" x="333.168" xlink:href="#macfabfa5d3" y="11.933786"/>
    </g>
   </g>
   <g id="line2d_50">
    <path style="fill:none;stroke:#ff00ff;stroke-linecap:square;stroke-width:1.5;"/>
    <g/>
   </g>
   <g id="line2d_51">
    <path clip-path="url(#p5c3f0455d1)" d="M 121.741249 237.284229 
" style="fill:none;stroke:#ff00ff;stroke-linecap:square;stroke-width:1.5;"/>
    <defs>
     <path d="M -12 12 
L 12 -12 
M -12 -12 
L 12 12 
" id="md207cbb76d" style="stroke:#ff00ff;"/>
    </defs>
    <g clip-path="url(#p5c3f0455d1)">
     <use style="fill:#ff00ff;stroke:#ff00ff;" x="121.741249" xlink:href="#md207cbb76d" y="237.284229"/>
    </g>
   </g>
   <g id="line2d_52">
    <path d="M 333.168 18.643973 
L 363.64328 289.176341 
" style="fill:none;stroke:#000080;stroke-linecap:square;stroke-width:1.5;"/>
    <g>
     <use style="fill:none;stroke:#000080;stroke-width:1.5;" x="333.168" xlink:href="#mdcb4373a51" y="18.643973"/>
     <use style="fill:none;stroke:#000080;stroke-width:1.5;" x="363.64328" xlink:href="#mdcb4373a51" y="289.176341"/>
    </g>
   </g>
   <g id="line2d_53">
    <path d="M 333.168 11.933786 
L 363.64328 152.288529 
" style="fill:none;stroke:#ff00ff;stroke-linecap:square;stroke-width:1.5;"/>
    <g>
     <use style="fill:none;stroke:#ff00ff;stroke-linejoin:miter;stroke-width:1.5;" x="333.168" xlink:href="#macfabfa5d3" y="11.933786"/>
     <use style="fill:none;stroke:#ff00ff;stroke-linejoin:miter;stroke-width:1.5;" x="363.64328" xlink:href="#macfabfa5d3" y="152.288529"/>
    </g>
   </g>
   <g id="line2d_54">
    <path d="M 333.168 294.88 
L 333.168 9.697057 
" style="fill:none;stroke:#000000;stroke-linecap:square;stroke-width:1.5;"/>
   </g>
   <g id="patch_3">
    <path d="M 56.12 294.88 
L 56.12 6.845228 
" style="fill:none;stroke:#000000;stroke-linecap:square;stroke-linejoin:miter;stroke-width:0.8;"/>
   </g>
   <g id="patch_4">
    <path d="M 333.168 294.88 
L 333.168 6.845228 
" style="fill:none;stroke:#000000;stroke-linecap:square;stroke-linejoin:miter;stroke-width:0.8;"/>
   </g>
   <g id="patch_5">
    <path d="M 56.12 294.88 
L 333.168 294.88 
" style="fill:none;stroke:#000000;stroke-linecap:square;stroke-linejoin:miter;stroke-width:0.8;"/>
   </g>
   <g id="patch_6">
    <path d="M 56.12 6.845228 
L 333.168 6.845228 
" style="fill:none;stroke:#000000;stroke-linecap:square;stroke-linejoin:miter;stroke-width:0.8;"/>
   </g>
   <g id="text_13">
    <!-- BFGS ros  -->
    <defs>
     <path d="M 19.671875 34.8125 
L 19.671875 8.109375 
L 35.5 8.109375 
Q 43.453125 8.109375 47.28125 11.40625 
Q 51.125 14.703125 51.125 21.484375 
Q 51.125 28.328125 47.28125 31.5625 
Q 43.453125 34.8125 35.5 34.8125 
z
M 19.671875 64.796875 
L 19.671875 42.828125 
L 34.28125 42.828125 
Q 41.5 42.828125 45.03125 45.53125 
Q 48.578125 48.25 48.578125 53.8125 
Q 48.578125 59.328125 45.03125 62.0625 
Q 41.5 64.796875 34.28125 64.796875 
z
M 9.8125 72.90625 
L 35.015625 72.90625 
Q 46.296875 72.90625 52.390625 68.21875 
Q 58.5 63.53125 58.5 54.890625 
Q 58.5 48.1875 55.375 44.234375 
Q 52.25 40.28125 46.1875 39.3125 
Q 53.46875 37.75 57.5 32.78125 
Q 61.53125 27.828125 61.53125 20.40625 
Q 61.53125 10.640625 54.890625 5.3125 
Q 48.25 0 35.984375 0 
L 9.8125 0 
z
" id="DejaVuSans-42"/>
     <path d="M 59.515625 10.40625 
L 59.515625 29.984375 
L 43.40625 29.984375 
L 43.40625 38.09375 
L 69.28125 38.09375 
L 69.28125 6.78125 
Q 63.578125 2.734375 56.6875 0.65625 
Q 49.8125 -1.421875 42 -1.421875 
Q 24.90625 -1.421875 15.25 8.5625 
Q 5.609375 18.5625 5.609375 36.375 
Q 5.609375 54.25 15.25 64.234375 
Q 24.90625 74.21875 42 74.21875 
Q 49.125 74.21875 55.546875 72.453125 
Q 61.96875 70.703125 67.390625 67.28125 
L 67.390625 56.78125 
Q 61.921875 61.421875 55.765625 63.765625 
Q 49.609375 66.109375 42.828125 66.109375 
Q 29.4375 66.109375 22.71875 58.640625 
Q 16.015625 51.171875 16.015625 36.375 
Q 16.015625 21.625 22.71875 14.15625 
Q 29.4375 6.6875 42.828125 6.6875 
Q 48.046875 6.6875 52.140625 7.59375 
Q 56.25 8.5 59.515625 10.40625 
z
" id="DejaVuSans-47"/>
     <path d="M 53.515625 70.515625 
L 53.515625 60.890625 
Q 47.90625 63.578125 42.921875 64.890625 
Q 37.9375 66.21875 33.296875 66.21875 
Q 25.25 66.21875 20.875 63.09375 
Q 16.5 59.96875 16.5 54.203125 
Q 16.5 49.359375 19.40625 46.890625 
Q 22.3125 44.4375 30.421875 42.921875 
L 36.375 41.703125 
Q 47.40625 39.59375 52.65625 34.296875 
Q 57.90625 29 57.90625 20.125 
Q 57.90625 9.515625 50.796875 4.046875 
Q 43.703125 -1.421875 29.984375 -1.421875 
Q 24.8125 -1.421875 18.96875 -0.25 
Q 13.140625 0.921875 6.890625 3.21875 
L 6.890625 13.375 
Q 12.890625 10.015625 18.65625 8.296875 
Q 24.421875 6.59375 29.984375 6.59375 
Q 38.421875 6.59375 43.015625 9.90625 
Q 47.609375 13.234375 47.609375 19.390625 
Q 47.609375 24.75 44.3125 27.78125 
Q 41.015625 30.8125 33.5 32.328125 
L 27.484375 33.5 
Q 16.453125 35.6875 11.515625 40.375 
Q 6.59375 45.0625 6.59375 53.421875 
Q 6.59375 63.09375 13.40625 68.65625 
Q 20.21875 74.21875 32.171875 74.21875 
Q 37.3125 74.21875 42.625 73.28125 
Q 47.953125 72.359375 53.515625 70.515625 
z
" id="DejaVuSans-53"/>
    </defs>
    <g transform="translate(369.18424 293.867279)scale(0.17 -0.17)">
     <use xlink:href="#DejaVuSans-42"/>
     <use x="68.603516" xlink:href="#DejaVuSans-46"/>
     <use x="126.123047" xlink:href="#DejaVuSans-47"/>
     <use x="203.613281" xlink:href="#DejaVuSans-53"/>
     <use x="267.089844" xlink:href="#DejaVuSans-20"/>
     <use x="298.876953" xlink:href="#DejaVuSans-72"/>
     <use x="339.958984" xlink:href="#DejaVuSans-6f"/>
     <use x="401.140625" xlink:href="#DejaVuSans-73"/>
     <use x="453.240234" xlink:href="#DejaVuSans-20"/>
    </g>
   </g>
   <g id="text_14">
    <!-- scipy-opt -->
    <defs>
     <path d="M 32.171875 -5.078125 
Q 28.375 -14.84375 24.75 -17.8125 
Q 21.140625 -20.796875 15.09375 -20.796875 
L 7.90625 -20.796875 
L 7.90625 -13.28125 
L 13.1875 -13.28125 
Q 16.890625 -13.28125 18.9375 -11.515625 
Q 21 -9.765625 23.484375 -3.21875 
L 25.09375 0.875 
L 2.984375 54.6875 
L 12.5 54.6875 
L 29.59375 11.921875 
L 46.6875 54.6875 
L 56.203125 54.6875 
z
" id="DejaVuSans-79"/>
    </defs>
    <g transform="translate(369.18424 156.979466)scale(0.17 -0.17)">
     <use xlink:href="#DejaVuSans-73"/>
     <use x="52.099609" xlink:href="#DejaVuSans-63"/>
     <use x="107.080078" xlink:href="#DejaVuSans-69"/>
     <use x="134.863281" xlink:href="#DejaVuSans-70"/>
     <use x="198.339844" xlink:href="#DejaVuSans-79"/>
     <use x="257.503906" xlink:href="#DejaVuSans-2d"/>
     <use x="293.603516" xlink:href="#DejaVuSans-6f"/>
     <use x="354.785156" xlink:href="#DejaVuSans-70"/>
     <use x="418.261719" xlink:href="#DejaVuSans-74"/>
    </g>
   </g>
   <g id="text_15">
    <!-- best 2009 -->
    <defs>
     <path d="M 48.6875 27.296875 
Q 48.6875 37.203125 44.609375 42.84375 
Q 40.53125 48.484375 33.40625 48.484375 
Q 26.265625 48.484375 22.1875 42.84375 
Q 18.109375 37.203125 18.109375 27.296875 
Q 18.109375 17.390625 22.1875 11.75 
Q 26.265625 6.109375 33.40625 6.109375 
Q 40.53125 6.109375 44.609375 11.75 
Q 48.6875 17.390625 48.6875 27.296875 
z
M 18.109375 46.390625 
Q 20.953125 51.265625 25.265625 53.625 
Q 29.59375 56 35.59375 56 
Q 45.5625 56 51.78125 48.09375 
Q 58.015625 40.1875 58.015625 27.296875 
Q 58.015625 14.40625 51.78125 6.484375 
Q 45.5625 -1.421875 35.59375 -1.421875 
Q 29.59375 -1.421875 25.265625 0.953125 
Q 20.953125 3.328125 18.109375 8.203125 
L 18.109375 0 
L 9.078125 0 
L 9.078125 75.984375 
L 18.109375 75.984375 
z
" id="DejaVuSans-62"/>
     <path d="M 10.984375 1.515625 
L 10.984375 10.5 
Q 14.703125 8.734375 18.5 7.8125 
Q 22.3125 6.890625 25.984375 6.890625 
Q 35.75 6.890625 40.890625 13.453125 
Q 46.046875 20.015625 46.78125 33.40625 
Q 43.953125 29.203125 39.59375 26.953125 
Q 35.25 24.703125 29.984375 24.703125 
Q 19.046875 24.703125 12.671875 31.3125 
Q 6.296875 37.9375 6.296875 49.421875 
Q 6.296875 60.640625 12.9375 67.421875 
Q 19.578125 74.21875 30.609375 74.21875 
Q 43.265625 74.21875 49.921875 64.515625 
Q 56.59375 54.828125 56.59375 36.375 
Q 56.59375 19.140625 48.40625 8.859375 
Q 40.234375 -1.421875 26.421875 -1.421875 
Q 22.703125 -1.421875 18.890625 -0.6875 
Q 15.09375 0.046875 10.984375 1.515625 
z
M 30.609375 32.421875 
Q 37.25 32.421875 41.125 36.953125 
Q 45.015625 41.5 45.015625 49.421875 
Q 45.015625 57.28125 41.125 61.84375 
Q 37.25 66.40625 30.609375 66.40625 
Q 23.96875 66.40625 20.09375 61.84375 
Q 16.21875 57.28125 16.21875 49.421875 
Q 16.21875 41.5 20.09375 36.953125 
Q 23.96875 32.421875 30.609375 32.421875 
z
" id="DejaVuSans-39"/>
    </defs>
    <g transform="translate(369.18424 20.091654)scale(0.17 -0.17)">
     <use xlink:href="#DejaVuSans-62"/>
     <use x="63.476562" xlink:href="#DejaVuSans-65"/>
     <use x="125" xlink:href="#DejaVuSans-73"/>
     <use x="177.099609" xlink:href="#DejaVuSans-74"/>
     <use x="216.308594" xlink:href="#DejaVuSans-20"/>
     <use x="248.095703" xlink:href="#DejaVuSans-32"/>
     <use x="311.71875" xlink:href="#DejaVuSans-30"/>
     <use x="375.341797" xlink:href="#DejaVuSans-30"/>
     <use x="438.964844" xlink:href="#DejaVuSans-39"/>
    </g>
   </g>
   <g id="text_16">
    <!-- bbob f10-f14, 2-D -->
    <defs>
     <path d="M 19.671875 64.796875 
L 19.671875 8.109375 
L 31.59375 8.109375 
Q 46.6875 8.109375 53.6875 14.9375 
Q 60.6875 21.78125 60.6875 36.53125 
Q 60.6875 51.171875 53.6875 57.984375 
Q 46.6875 64.796875 31.59375 64.796875 
z
M 9.8125 72.90625 
L 30.078125 72.90625 
Q 51.265625 72.90625 61.171875 64.09375 
Q 71.09375 55.28125 71.09375 36.53125 
Q 71.09375 17.671875 61.125 8.828125 
Q 51.171875 0 30.078125 0 
L 9.8125 0 
z
" id="DejaVuSans-44"/>
    </defs>
    <g transform="translate(58.89048 17.475982)scale(0.102 -0.102)">
     <use xlink:href="#DejaVuSans-62"/>
     <use x="63.476562" xlink:href="#DejaVuSans-62"/>
     <use x="126.953125" xlink:href="#DejaVuSans-6f"/>
     <use x="188.134766" xlink:href="#DejaVuSans-62"/>
     <use x="251.611328" xlink:href="#DejaVuSans-20"/>
     <use x="283.398438" xlink:href="#DejaVuSans-66"/>
     <use x="318.603516" xlink:href="#DejaVuSans-31"/>
     <use x="382.226562" xlink:href="#DejaVuSans-30"/>
     <use x="445.849609" xlink:href="#DejaVuSans-2d"/>
     <use x="481.933594" xlink:href="#DejaVuSans-66"/>
     <use x="517.138672" xlink:href="#DejaVuSans-31"/>
     <use x="580.761719" xlink:href="#DejaVuSans-34"/>
     <use x="644.384766" xlink:href="#DejaVuSans-2c"/>
     <use x="676.171875" xlink:href="#DejaVuSans-20"/>
     <use x="707.958984" xlink:href="#DejaVuSans-32"/>
     <use x="771.582031" xlink:href="#DejaVuSans-2d"/>
     <use x="807.666016" xlink:href="#DejaVuSans-44"/>
    </g>
    <!-- 51 targets: 100..1e-08 -->
    <defs>
     <path d="M 10.796875 72.90625 
L 49.515625 72.90625 
L 49.515625 64.59375 
L 19.828125 64.59375 
L 19.828125 46.734375 
Q 21.96875 47.46875 24.109375 47.828125 
Q 26.265625 48.1875 28.421875 48.1875 
Q 40.625 48.1875 47.75 41.5 
Q 54.890625 34.8125 54.890625 23.390625 
Q 54.890625 11.625 47.5625 5.09375 
Q 40.234375 -1.421875 26.90625 -1.421875 
Q 22.3125 -1.421875 17.546875 -0.640625 
Q 12.796875 0.140625 7.71875 1.703125 
L 7.71875 11.625 
Q 12.109375 9.234375 16.796875 8.0625 
Q 21.484375 6.890625 26.703125 6.890625 
Q 35.15625 6.890625 40.078125 11.328125 
Q 45.015625 15.765625 45.015625 23.390625 
Q 45.015625 31 40.078125 35.4375 
Q 35.15625 39.890625 26.703125 39.890625 
Q 22.75 39.890625 18.8125 39.015625 
Q 14.890625 38.140625 10.796875 36.28125 
z
" id="DejaVuSans-35"/>
     <path d="M 11.71875 12.40625 
L 22.015625 12.40625 
L 22.015625 0 
L 11.71875 0 
z
M 11.71875 51.703125 
L 22.015625 51.703125 
L 22.015625 39.3125 
L 11.71875 39.3125 
z
" id="DejaVuSans-3a"/>
    </defs>
    <g transform="translate(58.89048 28.89775)scale(0.102 -0.102)">
     <use xlink:href="#DejaVuSans-35"/>
     <use x="63.623047" xlink:href="#DejaVuSans-31"/>
     <use x="127.246094" xlink:href="#DejaVuSans-20"/>
     <use x="159.033203" xlink:href="#DejaVuSans-74"/>
     <use x="198.242188" xlink:href="#DejaVuSans-61"/>
     <use x="259.521484" xlink:href="#DejaVuSans-72"/>
     <use x="300.619141" xlink:href="#DejaVuSans-67"/>
     <use x="364.095703" xlink:href="#DejaVuSans-65"/>
     <use x="425.619141" xlink:href="#DejaVuSans-74"/>
     <use x="464.828125" xlink:href="#DejaVuSans-73"/>
     <use x="516.927734" xlink:href="#DejaVuSans-3a"/>
     <use x="550.619141" xlink:href="#DejaVuSans-20"/>
     <use x="582.40625" xlink:href="#DejaVuSans-31"/>
     <use x="646.029297" xlink:href="#DejaVuSans-30"/>
     <use x="709.652344" xlink:href="#DejaVuSans-30"/>
     <use x="773.275391" xlink:href="#DejaVuSans-2e"/>
     <use x="805.0625" xlink:href="#DejaVuSans-2e"/>
     <use x="836.849609" xlink:href="#DejaVuSans-31"/>
     <use x="900.472656" xlink:href="#DejaVuSans-65"/>
     <use x="961.996094" xlink:href="#DejaVuSans-2d"/>
     <use x="998.080078" xlink:href="#DejaVuSans-30"/>
     <use x="1061.703125" xlink:href="#DejaVuSans-38"/>
    </g>
    <!-- 15 instances -->
    <g transform="translate(58.89048 40.319519)scale(0.102 -0.102)">
     <use xlink:href="#DejaVuSans-31"/>
     <use x="63.623047" xlink:href="#DejaVuSans-35"/>
     <use x="127.246094" xlink:href="#DejaVuSans-20"/>
     <use x="159.033203" xlink:href="#DejaVuSans-69"/>
     <use x="186.816406" xlink:href="#DejaVuSans-6e"/>
     <use x="250.195312" xlink:href="#DejaVuSans-73"/>
     <use x="302.294922" xlink:href="#DejaVuSans-74"/>
     <use x="341.503906" xlink:href="#DejaVuSans-61"/>
     <use x="402.783203" xlink:href="#DejaVuSans-6e"/>
     <use x="466.162109" xlink:href="#DejaVuSans-63"/>
     <use x="521.142578" xlink:href="#DejaVuSans-65"/>
     <use x="582.666016" xlink:href="#DejaVuSans-73"/>
    </g>
   </g>
   <g id="text_17">
    <!-- v0.0.0 -->
    <g style="fill:#808080;" transform="translate(178.96275 289.919965)scale(0.1 -0.1)">
     <use xlink:href="#DejaVuSans-76"/>
     <use x="59.179688" xlink:href="#DejaVuSans-30"/>
     <use x="122.802734" xlink:href="#DejaVuSans-2e"/>
     <use x="154.589844" xlink:href="#DejaVuSans-30"/>
     <use x="218.212891" xlink:href="#DejaVuSans-2e"/>
     <use x="250" xlink:href="#DejaVuSans-30"/>
    </g>
   </g>
  </g>
 </g>
 <defs>
  <clipPath id="p5c3f0455d1">
   <rect height="288.034772" width="277.048" x="56.12" y="6.845228"/>
  </clipPath>
 </defs>
</svg>
