<?xml version="1.0" encoding="utf-8" standalone="no"?>
<!DOCTYPE svg PUBLIC "-//W3C//DTD SVG 1.1//EN"
  "http://www.w3.org/Graphics/SVG/1.1/DTD/svg11.dtd">
<!-- Created with matplotlib (http://matplotlib.org/) -->
<svg height="345pt" version="1.1" viewBox="0 0 460 345" width="460pt" xmlns="http://www.w3.org/2000/svg" xmlns:xlink="http://www.w3.org/1999/xlink">
 <defs>
  <style type="text/css">
*{stroke-linecap:butt;stroke-linejoin:round;}
  </style>
 </defs>
 <g id="figure_1">
  <g id="patch_1">
   <path d="M 0 345.6 
L 460.8 345.6 
L 460.8 0 
L 0 0 
z
" style="fill:#ffffff;"/>
  </g>
  <g id="axes_1">
   <g id="patch_2">
    <path d="M 56.12 294.88 
L 333.168 294.88 
L 333.168 6.845228 
L 56.12 6.845228 
z
" style="fill:#ffffff;"/>
   </g>
   <g id="line2d_1">
    <path d="M 37.236359 294.88 
L 37.236359 280.341262 
L 56.12 280.341262 
L 56.12 276.986168 
L 64.900393 276.986168 
L 64.900393 274.749439 
L 68.034251 274.749439 
L 68.034251 273.631075 
L 72.979112 273.631075 
L 72.979112 266.920888 
L 75.003641 266.920888 
L 75.003641 264.684159 
L 81.324327 264.684159 
L 81.324327 262.44743 
L 82.598142 262.44743 
L 82.598142 261.329066 
L 84.893363 261.329066 
L 84.893363 260.210701 
L 86.917893 260.210701 
L 86.917893 259.092337 
L 90.367147 259.092337 
L 90.367147 257.973972 
L 91.131212 257.973972 
L 91.131212 256.855608 
L 97.336537 256.855608 
L 97.336537 255.737243 
L 101.067579 255.737243 
L 101.067579 253.500514 
L 102.281398 253.500514 
L 102.281398 252.38215 
L 103.415125 252.38215 
L 103.415125 251.263785 
L 108.176149 251.263785 
L 108.176149 250.145421 
L 112.341186 250.145421 
L 112.341186 249.027056 
L 113.599452 249.027056 
L 113.599452 247.908692 
L 115.869378 247.908692 
L 115.869378 246.790327 
L 123.247346 246.790327 
L 123.247346 245.671963 
L 125.207666 245.671963 
L 125.207666 244.553598 
L 125.513703 244.553598 
L 125.513703 243.435234 
L 126.873966 243.435234 
L 126.873966 242.316869 
L 128.13443 242.316869 
L 128.13443 241.198505 
L 136.439531 241.198505 
L 136.439531 240.08014 
L 137.018682 240.08014 
L 137.070377 237.843411 
L 137.926211 237.843411 
L 137.926211 236.725047 
L 138.121538 236.725047 
L 138.218376 234.488318 
L 138.266591 234.488318 
L 138.362617 231.133225 
L 138.505658 231.133225 
L 138.600361 226.659767 
L 138.788217 226.659767 
L 138.788217 225.541402 
L 139.43 225.541402 
L 139.519758 222.186309 
L 139.564462 222.186309 
L 139.564462 221.067944 
L 139.742124 221.067944 
L 139.830271 217.712851 
L 139.917968 217.712851 
L 140.00522 214.357757 
L 140.048681 214.357757 
L 140.135274 211.002664 
L 140.26435 211.002664 
L 140.349866 207.64757 
L 140.434959 207.64757 
L 140.519632 204.292477 
L 140.561812 204.292477 
L 140.645865 200.937384 
L 140.687737 200.937384 
L 140.771177 197.58229 
L 140.812746 197.58229 
L 140.854214 195.345561 
L 140.936852 195.345561 
L 140.978022 191.990468 
L 141.182408 191.990468 
L 141.263487 188.635374 
L 141.623681 188.635374 
L 141.702709 185.280281 
L 141.742087 185.280281 
L 141.820574 183.043552 
L 142.284116 183.043552 
L 142.360172 180.806823 
L 142.473629 180.806823 
L 142.548853 177.451729 
L 142.661075 177.451729 
L 142.69832 174.096636 
L 142.772569 174.096636 
L 142.883345 168.504814 
L 142.920112 168.504814 
L 142.956801 166.268085 
L 143.102777 166.268085 
L 143.211452 161.794627 
L 143.283522 161.794627 
L 143.391063 156.202804 
L 143.426761 156.202804 
L 143.533413 151.729346 
L 143.568817 151.729346 
L 143.604148 149.492617 
L 144.498158 149.492617 
L 144.498158 148.374253 
L 145.757607 148.374253 
L 145.757607 147.255888 
L 148.326988 147.255888 
L 148.326988 146.137524 
L 149.593139 146.137524 
L 149.593139 145.019159 
L 152.027918 145.019159 
L 152.027918 143.900795 
L 152.933346 143.900795 
L 152.933346 142.78243 
L 154.274423 142.78243 
L 154.274423 141.664066 
L 155.05333 141.664066 
L 155.05333 140.545702 
L 155.500742 140.545702 
L 155.500742 139.427337 
L 157.765022 139.427337 
L 157.765022 138.308973 
L 158.132707 138.308973 
L 158.132707 137.190608 
L 159.3186 137.190608 
L 159.417345 134.953879 
L 159.599237 134.953879 
L 159.599237 133.835515 
L 161.332122 133.835515 
L 161.41998 131.598786 
L 161.519841 131.598786 
L 161.519841 130.480421 
L 169.593892 130.480421 
L 169.694751 127.125328 
L 169.779633 127.125328 
L 169.856437 123.770234 
L 169.894711 123.770234 
L 169.978614 120.415141 
L 170.046958 120.415141 
L 170.092371 117.060047 
L 170.190355 117.060047 
L 170.280309 112.586589 
L 170.317651 112.586589 
L 170.317651 111.468225 
L 170.436604 111.468225 
L 170.547379 106.994767 
L 170.584146 106.994767 
L 170.65013 103.639674 
L 170.824857 103.639674 
L 170.897139 100.28458 
L 170.940363 100.28458 
L 171.012162 95.811122 
L 171.055097 95.811122 
L 171.147759 92.456029 
L 171.17617 92.456029 
L 171.268182 89.100935 
L 171.429777 89.100935 
L 171.5274 86.864206 
L 171.589867 86.864206 
L 171.665907 84.627477 
L 171.727873 84.627477 
L 171.823823 81.272384 
L 171.892032 81.272384 
L 171.980301 79.035655 
L 172.047893 79.035655 
L 172.081589 76.798926 
L 172.188977 76.798926 
L 172.289047 73.443833 
L 172.381922 73.443833 
L 172.454546 71.207104 
L 172.533423 71.207104 
L 172.61194 68.970375 
L 172.664086 68.970375 
L 172.696597 66.733646 
L 172.935287 66.733646 
L 172.935287 65.615281 
L 173.214887 65.615281 
L 173.214887 64.496917 
L 173.520998 64.496917 
L 173.520998 63.378552 
L 173.815667 63.378552 
L 173.815667 62.260188 
L 174.07542 62.260188 
L 174.117336 60.023459 
L 174.188955 60.023459 
L 174.254345 57.78673 
L 180.076788 57.78673 
L 180.076788 56.668365 
L 186.215997 56.668365 
L 186.215997 55.550001 
L 196.208771 55.550001 
L 196.208771 54.431636 
L 207.001227 54.431636 
L 207.001227 53.313272 
L 213.744594 53.313272 
L 213.744594 52.194907 
L 220.341011 52.194907 
L 220.341011 51.076543 
L 224.305668 51.076543 
L 224.305668 49.958178 
L 235.578025 49.958178 
L 235.578025 48.839814 
L 239.456703 48.839814 
L 239.456703 47.72145 
L 249.722859 47.72145 
L 249.722859 46.603085 
L 257.026418 46.603085 
L 257.027187 9.697057 
L 333.168 9.697057 
L 333.168 9.697057 
" style="fill:none;stroke:#f5deb3;stroke-linecap:square;stroke-width:4;"/>
   </g>
   <g id="line2d_2">
    <defs>
     <path d="M -0 7.778175 
L 7.778175 0 
L 0 -7.778175 
L -7.778175 -0 
z
" id="mac167badec" style="stroke:#f5deb3;stroke-linejoin:miter;stroke-width:1.5;"/>
    </defs>
    <g>
     <use style="fill:#f5deb3;stroke:#f5deb3;stroke-linejoin:miter;stroke-width:1.5;" x="115.869378" xlink:href="#mac167badec" y="247.908692"/>
     <use style="fill:#f5deb3;stroke:#f5deb3;stroke-linejoin:miter;stroke-width:1.5;" x="149.593139" xlink:href="#mac167badec" y="145.019159"/>
     <use style="fill:#f5deb3;stroke:#f5deb3;stroke-linejoin:miter;stroke-width:1.5;" x="174.254345" xlink:href="#mac167badec" y="57.78673"/>
     <use style="fill:#f5deb3;stroke:#f5deb3;stroke-linejoin:miter;stroke-width:1.5;" x="257.027187" xlink:href="#mac167badec" y="9.697057"/>
     <use style="fill:#f5deb3;stroke:#f5deb3;stroke-linejoin:miter;stroke-width:1.5;" x="257.027187" xlink:href="#mac167badec" y="9.697057"/>
     <use style="fill:#f5deb3;stroke:#f5deb3;stroke-linejoin:miter;stroke-width:1.5;" x="333.168" xlink:href="#mac167badec" y="9.697057"/>
    </g>
   </g>
   <g id="line2d_3">
    <path style="fill:none;stroke:#f5deb3;stroke-linecap:square;stroke-width:4;"/>
    <g/>
   </g>
   <g id="line2d_4">
    <path d="M 333.168 9.697057 
L 363.64328 15.400716 
" style="fill:none;stroke:#f5deb3;stroke-linecap:square;stroke-width:4;"/>
    <g>
     <use style="fill:#f5deb3;stroke:#f5deb3;stroke-linejoin:miter;stroke-width:1.5;" x="333.168" xlink:href="#mac167badec" y="9.697057"/>
     <use style="fill:#f5deb3;stroke:#f5deb3;stroke-linejoin:miter;stroke-width:1.5;" x="363.64328" xlink:href="#mac167badec" y="15.400716"/>
    </g>
   </g>
   <g id="matplotlib.axis_1">
    <g id="xtick_1">
     <g id="line2d_5">
      <path clip-path="url(#pd1cfc4473b)" d="M 56.12 294.88 
L 56.12 6.845228 
" style="fill:none;stroke:#b0b0b0;stroke-linecap:square;stroke-width:0.8;"/>
     </g>
     <g id="line2d_6">
      <defs>
       <path d="M 0 0 
L 0 3.5 
" id="m9045cb1010" style="stroke:#000000;stroke-width:0.8;"/>
      </defs>
      <g>
       <use style="stroke:#000000;stroke-width:0.8;" x="56.12" xlink:href="#m9045cb1010" y="294.88"/>
      </g>
     </g>
     <g id="text_1">
      <!-- 0 -->
      <defs>
       <path d="M 31.78125 66.40625 
Q 24.171875 66.40625 20.328125 58.90625 
Q 16.5 51.421875 16.5 36.375 
Q 16.5 21.390625 20.328125 13.890625 
Q 24.171875 6.390625 31.78125 6.390625 
Q 39.453125 6.390625 43.28125 13.890625 
Q 47.125 21.390625 47.125 36.375 
Q 47.125 51.421875 43.28125 58.90625 
Q 39.453125 66.40625 31.78125 66.40625 
z
M 31.78125 74.21875 
Q 44.046875 74.21875 50.515625 64.515625 
Q 56.984375 54.828125 56.984375 36.375 
Q 56.984375 17.96875 50.515625 8.265625 
Q 44.046875 -1.421875 31.78125 -1.421875 
Q 19.53125 -1.421875 13.0625 8.265625 
Q 6.59375 17.96875 6.59375 36.375 
Q 6.59375 54.828125 13.0625 64.515625 
Q 19.53125 74.21875 31.78125 74.21875 
z
" id="DejaVuSans-30"/>
      </defs>
      <g transform="translate(49.7575 317.076875)scale(0.2 -0.2)">
       <use xlink:href="#DejaVuSans-30"/>
      </g>
     </g>
    </g>
    <g id="xtick_2">
     <g id="line2d_7">
      <path clip-path="url(#pd1cfc4473b)" d="M 135.276571 294.88 
L 135.276571 6.845228 
" style="fill:none;stroke:#b0b0b0;stroke-linecap:square;stroke-width:0.8;"/>
     </g>
     <g id="line2d_8">
      <g>
       <use style="stroke:#000000;stroke-width:0.8;" x="135.276571" xlink:href="#m9045cb1010" y="294.88"/>
      </g>
     </g>
     <g id="text_2">
      <!-- 2 -->
      <defs>
       <path d="M 19.1875 8.296875 
L 53.609375 8.296875 
L 53.609375 0 
L 7.328125 0 
L 7.328125 8.296875 
Q 12.9375 14.109375 22.625 23.890625 
Q 32.328125 33.6875 34.8125 36.53125 
Q 39.546875 41.84375 41.421875 45.53125 
Q 43.3125 49.21875 43.3125 52.78125 
Q 43.3125 58.59375 39.234375 62.25 
Q 35.15625 65.921875 28.609375 65.921875 
Q 23.96875 65.921875 18.8125 64.3125 
Q 13.671875 62.703125 7.8125 59.421875 
L 7.8125 69.390625 
Q 13.765625 71.78125 18.9375 73 
Q 24.125 74.21875 28.421875 74.21875 
Q 39.75 74.21875 46.484375 68.546875 
Q 53.21875 62.890625 53.21875 53.421875 
Q 53.21875 48.921875 51.53125 44.890625 
Q 49.859375 40.875 45.40625 35.40625 
Q 44.1875 33.984375 37.640625 27.21875 
Q 31.109375 20.453125 19.1875 8.296875 
z
" id="DejaVuSans-32"/>
      </defs>
      <g transform="translate(128.914071 317.076875)scale(0.2 -0.2)">
       <use xlink:href="#DejaVuSans-32"/>
      </g>
     </g>
    </g>
    <g id="xtick_3">
     <g id="line2d_9">
      <path clip-path="url(#pd1cfc4473b)" d="M 214.433143 294.88 
L 214.433143 6.845228 
" style="fill:none;stroke:#b0b0b0;stroke-linecap:square;stroke-width:0.8;"/>
     </g>
     <g id="line2d_10">
      <g>
       <use style="stroke:#000000;stroke-width:0.8;" x="214.433143" xlink:href="#m9045cb1010" y="294.88"/>
      </g>
     </g>
     <g id="text_3">
      <!-- 4 -->
      <defs>
       <path d="M 37.796875 64.3125 
L 12.890625 25.390625 
L 37.796875 25.390625 
z
M 35.203125 72.90625 
L 47.609375 72.90625 
L 47.609375 25.390625 
L 58.015625 25.390625 
L 58.015625 17.1875 
L 47.609375 17.1875 
L 47.609375 0 
L 37.796875 0 
L 37.796875 17.1875 
L 4.890625 17.1875 
L 4.890625 26.703125 
z
" id="DejaVuSans-34"/>
      </defs>
      <g transform="translate(208.070643 317.076875)scale(0.2 -0.2)">
       <use xlink:href="#DejaVuSans-34"/>
      </g>
     </g>
    </g>
    <g id="xtick_4">
     <g id="line2d_11">
      <path clip-path="url(#pd1cfc4473b)" d="M 293.589714 294.88 
L 293.589714 6.845228 
" style="fill:none;stroke:#b0b0b0;stroke-linecap:square;stroke-width:0.8;"/>
     </g>
     <g id="line2d_12">
      <g>
       <use style="stroke:#000000;stroke-width:0.8;" x="293.589714" xlink:href="#m9045cb1010" y="294.88"/>
      </g>
     </g>
     <g id="text_4">
      <!-- 6 -->
      <defs>
       <path d="M 33.015625 40.375 
Q 26.375 40.375 22.484375 35.828125 
Q 18.609375 31.296875 18.609375 23.390625 
Q 18.609375 15.53125 22.484375 10.953125 
Q 26.375 6.390625 33.015625 6.390625 
Q 39.65625 6.390625 43.53125 10.953125 
Q 47.40625 15.53125 47.40625 23.390625 
Q 47.40625 31.296875 43.53125 35.828125 
Q 39.65625 40.375 33.015625 40.375 
z
M 52.59375 71.296875 
L 52.59375 62.3125 
Q 48.875 64.0625 45.09375 64.984375 
Q 41.3125 65.921875 37.59375 65.921875 
Q 27.828125 65.921875 22.671875 59.328125 
Q 17.53125 52.734375 16.796875 39.40625 
Q 19.671875 43.65625 24.015625 45.921875 
Q 28.375 48.1875 33.59375 48.1875 
Q 44.578125 48.1875 50.953125 41.515625 
Q 57.328125 34.859375 57.328125 23.390625 
Q 57.328125 12.15625 50.6875 5.359375 
Q 44.046875 -1.421875 33.015625 -1.421875 
Q 20.359375 -1.421875 13.671875 8.265625 
Q 6.984375 17.96875 6.984375 36.375 
Q 6.984375 53.65625 15.1875 63.9375 
Q 23.390625 74.21875 37.203125 74.21875 
Q 40.921875 74.21875 44.703125 73.484375 
Q 48.484375 72.75 52.59375 71.296875 
z
" id="DejaVuSans-36"/>
      </defs>
      <g transform="translate(287.227214 317.076875)scale(0.2 -0.2)">
       <use xlink:href="#DejaVuSans-36"/>
      </g>
     </g>
    </g>
    <g id="xtick_5">
     <g id="line2d_13">
      <path clip-path="url(#pd1cfc4473b)" d="M 56.12 294.88 
L 56.12 6.845228 
" style="fill:none;stroke:#b0b0b0;stroke-linecap:square;stroke-width:0.8;"/>
     </g>
     <g id="line2d_14">
      <defs>
       <path d="M 0 0 
L 0 2 
" id="md45c46edf1" style="stroke:#000000;stroke-width:0.6;"/>
      </defs>
      <g>
       <use style="stroke:#000000;stroke-width:0.6;" x="56.12" xlink:href="#md45c46edf1" y="294.88"/>
      </g>
     </g>
    </g>
    <g id="xtick_6">
     <g id="line2d_15">
      <path clip-path="url(#pd1cfc4473b)" d="M 95.698286 294.88 
L 95.698286 6.845228 
" style="fill:none;stroke:#b0b0b0;stroke-linecap:square;stroke-width:0.8;"/>
     </g>
     <g id="line2d_16">
      <g>
       <use style="stroke:#000000;stroke-width:0.6;" x="95.698286" xlink:href="#md45c46edf1" y="294.88"/>
      </g>
     </g>
    </g>
    <g id="xtick_7">
     <g id="line2d_17">
      <path clip-path="url(#pd1cfc4473b)" d="M 135.276571 294.88 
L 135.276571 6.845228 
" style="fill:none;stroke:#b0b0b0;stroke-linecap:square;stroke-width:0.8;"/>
     </g>
     <g id="line2d_18">
      <g>
       <use style="stroke:#000000;stroke-width:0.6;" x="135.276571" xlink:href="#md45c46edf1" y="294.88"/>
      </g>
     </g>
    </g>
    <g id="xtick_8">
     <g id="line2d_19">
      <path clip-path="url(#pd1cfc4473b)" d="M 174.854857 294.88 
L 174.854857 6.845228 
" style="fill:none;stroke:#b0b0b0;stroke-linecap:square;stroke-width:0.8;"/>
     </g>
     <g id="line2d_20">
      <g>
       <use style="stroke:#000000;stroke-width:0.6;" x="174.854857" xlink:href="#md45c46edf1" y="294.88"/>
      </g>
     </g>
    </g>
    <g id="xtick_9">
     <g id="line2d_21">
      <path clip-path="url(#pd1cfc4473b)" d="M 214.433143 294.88 
L 214.433143 6.845228 
" style="fill:none;stroke:#b0b0b0;stroke-linecap:square;stroke-width:0.8;"/>
     </g>
     <g id="line2d_22">
      <g>
       <use style="stroke:#000000;stroke-width:0.6;" x="214.433143" xlink:href="#md45c46edf1" y="294.88"/>
      </g>
     </g>
    </g>
    <g id="xtick_10">
     <g id="line2d_23">
      <path clip-path="url(#pd1cfc4473b)" d="M 254.011429 294.88 
L 254.011429 6.845228 
" style="fill:none;stroke:#b0b0b0;stroke-linecap:square;stroke-width:0.8;"/>
     </g>
     <g id="line2d_24">
      <g>
       <use style="stroke:#000000;stroke-width:0.6;" x="254.011429" xlink:href="#md45c46edf1" y="294.88"/>
      </g>
     </g>
    </g>
    <g id="xtick_11">
     <g id="line2d_25">
      <path clip-path="url(#pd1cfc4473b)" d="M 293.589714 294.88 
L 293.589714 6.845228 
" style="fill:none;stroke:#b0b0b0;stroke-linecap:square;stroke-width:0.8;"/>
     </g>
     <g id="line2d_26">
      <g>
       <use style="stroke:#000000;stroke-width:0.6;" x="293.589714" xlink:href="#md45c46edf1" y="294.88"/>
      </g>
     </g>
    </g>
    <g id="xtick_12">
     <g id="line2d_27">
      <path clip-path="url(#pd1cfc4473b)" d="M 333.168 294.88 
L 333.168 6.845228 
" style="fill:none;stroke:#b0b0b0;stroke-linecap:square;stroke-width:0.8;"/>
     </g>
     <g id="line2d_28">
      <g>
       <use style="stroke:#000000;stroke-width:0.6;" x="333.168" xlink:href="#md45c46edf1" y="294.88"/>
      </g>
     </g>
    </g>
    <g id="text_5">
     <!-- log10(# f-evals / dimension) -->
     <defs>
      <path d="M 9.421875 75.984375 
L 18.40625 75.984375 
L 18.40625 0 
L 9.421875 0 
z
" id="DejaVuSans-6c"/>
      <path d="M 30.609375 48.390625 
Q 23.390625 48.390625 19.1875 42.75 
Q 14.984375 37.109375 14.984375 27.296875 
Q 14.984375 17.484375 19.15625 11.84375 
Q 23.34375 6.203125 30.609375 6.203125 
Q 37.796875 6.203125 41.984375 11.859375 
Q 46.1875 17.53125 46.1875 27.296875 
Q 46.1875 37.015625 41.984375 42.703125 
Q 37.796875 48.390625 30.609375 48.390625 
z
M 30.609375 56 
Q 42.328125 56 49.015625 48.375 
Q 55.71875 40.765625 55.71875 27.296875 
Q 55.71875 13.875 49.015625 6.21875 
Q 42.328125 -1.421875 30.609375 -1.421875 
Q 18.84375 -1.421875 12.171875 6.21875 
Q 5.515625 13.875 5.515625 27.296875 
Q 5.515625 40.765625 12.171875 48.375 
Q 18.84375 56 30.609375 56 
z
" id="DejaVuSans-6f"/>
      <path d="M 45.40625 27.984375 
Q 45.40625 37.75 41.375 43.109375 
Q 37.359375 48.484375 30.078125 48.484375 
Q 22.859375 48.484375 18.828125 43.109375 
Q 14.796875 37.75 14.796875 27.984375 
Q 14.796875 18.265625 18.828125 12.890625 
Q 22.859375 7.515625 30.078125 7.515625 
Q 37.359375 7.515625 41.375 12.890625 
Q 45.40625 18.265625 45.40625 27.984375 
z
M 54.390625 6.78125 
Q 54.390625 -7.171875 48.1875 -13.984375 
Q 42 -20.796875 29.203125 -20.796875 
Q 24.46875 -20.796875 20.265625 -20.09375 
Q 16.0625 -19.390625 12.109375 -17.921875 
L 12.109375 -9.1875 
Q 16.0625 -11.328125 19.921875 -12.34375 
Q 23.78125 -13.375 27.78125 -13.375 
Q 36.625 -13.375 41.015625 -8.765625 
Q 45.40625 -4.15625 45.40625 5.171875 
L 45.40625 9.625 
Q 42.625 4.78125 38.28125 2.390625 
Q 33.9375 0 27.875 0 
Q 17.828125 0 11.671875 7.65625 
Q 5.515625 15.328125 5.515625 27.984375 
Q 5.515625 40.671875 11.671875 48.328125 
Q 17.828125 56 27.875 56 
Q 33.9375 56 38.28125 53.609375 
Q 42.625 51.21875 45.40625 46.390625 
L 45.40625 54.6875 
L 54.390625 54.6875 
z
" id="DejaVuSans-67"/>
      <path d="M 12.40625 8.296875 
L 28.515625 8.296875 
L 28.515625 63.921875 
L 10.984375 60.40625 
L 10.984375 69.390625 
L 28.421875 72.90625 
L 38.28125 72.90625 
L 38.28125 8.296875 
L 54.390625 8.296875 
L 54.390625 0 
L 12.40625 0 
z
" id="DejaVuSans-31"/>
      <path d="M 31 75.875 
Q 24.46875 64.65625 21.28125 53.65625 
Q 18.109375 42.671875 18.109375 31.390625 
Q 18.109375 20.125 21.3125 9.0625 
Q 24.515625 -2 31 -13.1875 
L 23.1875 -13.1875 
Q 15.875 -1.703125 12.234375 9.375 
Q 8.59375 20.453125 8.59375 31.390625 
Q 8.59375 42.28125 12.203125 53.3125 
Q 15.828125 64.359375 23.1875 75.875 
z
" id="DejaVuSans-28"/>
      <path d="M 51.125 44 
L 36.921875 44 
L 32.8125 27.6875 
L 47.125 27.6875 
z
M 43.796875 71.78125 
L 38.71875 51.515625 
L 52.984375 51.515625 
L 58.109375 71.78125 
L 65.921875 71.78125 
L 60.890625 51.515625 
L 76.125 51.515625 
L 76.125 44 
L 58.984375 44 
L 54.984375 27.6875 
L 70.515625 27.6875 
L 70.515625 20.21875 
L 53.078125 20.21875 
L 48 0 
L 40.1875 0 
L 45.21875 20.21875 
L 30.90625 20.21875 
L 25.875 0 
L 18.015625 0 
L 23.09375 20.21875 
L 7.71875 20.21875 
L 7.71875 27.6875 
L 24.90625 27.6875 
L 29 44 
L 13.28125 44 
L 13.28125 51.515625 
L 30.90625 51.515625 
L 35.890625 71.78125 
z
" id="DejaVuSans-23"/>
      <path id="DejaVuSans-20"/>
      <path d="M 37.109375 75.984375 
L 37.109375 68.5 
L 28.515625 68.5 
Q 23.6875 68.5 21.796875 66.546875 
Q 19.921875 64.59375 19.921875 59.515625 
L 19.921875 54.6875 
L 34.71875 54.6875 
L 34.71875 47.703125 
L 19.921875 47.703125 
L 19.921875 0 
L 10.890625 0 
L 10.890625 47.703125 
L 2.296875 47.703125 
L 2.296875 54.6875 
L 10.890625 54.6875 
L 10.890625 58.5 
Q 10.890625 67.625 15.140625 71.796875 
Q 19.390625 75.984375 28.609375 75.984375 
z
" id="DejaVuSans-66"/>
      <path d="M 4.890625 31.390625 
L 31.203125 31.390625 
L 31.203125 23.390625 
L 4.890625 23.390625 
z
" id="DejaVuSans-2d"/>
      <path d="M 56.203125 29.59375 
L 56.203125 25.203125 
L 14.890625 25.203125 
Q 15.484375 15.921875 20.484375 11.0625 
Q 25.484375 6.203125 34.421875 6.203125 
Q 39.59375 6.203125 44.453125 7.46875 
Q 49.3125 8.734375 54.109375 11.28125 
L 54.109375 2.78125 
Q 49.265625 0.734375 44.1875 -0.34375 
Q 39.109375 -1.421875 33.890625 -1.421875 
Q 20.796875 -1.421875 13.15625 6.1875 
Q 5.515625 13.8125 5.515625 26.8125 
Q 5.515625 40.234375 12.765625 48.109375 
Q 20.015625 56 32.328125 56 
Q 43.359375 56 49.78125 48.890625 
Q 56.203125 41.796875 56.203125 29.59375 
z
M 47.21875 32.234375 
Q 47.125 39.59375 43.09375 43.984375 
Q 39.0625 48.390625 32.421875 48.390625 
Q 24.90625 48.390625 20.390625 44.140625 
Q 15.875 39.890625 15.1875 32.171875 
z
" id="DejaVuSans-65"/>
      <path d="M 2.984375 54.6875 
L 12.5 54.6875 
L 29.59375 8.796875 
L 46.6875 54.6875 
L 56.203125 54.6875 
L 35.6875 0 
L 23.484375 0 
z
" id="DejaVuSans-76"/>
      <path d="M 34.28125 27.484375 
Q 23.390625 27.484375 19.1875 25 
Q 14.984375 22.515625 14.984375 16.5 
Q 14.984375 11.71875 18.140625 8.90625 
Q 21.296875 6.109375 26.703125 6.109375 
Q 34.1875 6.109375 38.703125 11.40625 
Q 43.21875 16.703125 43.21875 25.484375 
L 43.21875 27.484375 
z
M 52.203125 31.203125 
L 52.203125 0 
L 43.21875 0 
L 43.21875 8.296875 
Q 40.140625 3.328125 35.546875 0.953125 
Q 30.953125 -1.421875 24.3125 -1.421875 
Q 15.921875 -1.421875 10.953125 3.296875 
Q 6 8.015625 6 15.921875 
Q 6 25.140625 12.171875 29.828125 
Q 18.359375 34.515625 30.609375 34.515625 
L 43.21875 34.515625 
L 43.21875 35.40625 
Q 43.21875 41.609375 39.140625 45 
Q 35.0625 48.390625 27.6875 48.390625 
Q 23 48.390625 18.546875 47.265625 
Q 14.109375 46.140625 10.015625 43.890625 
L 10.015625 52.203125 
Q 14.9375 54.109375 19.578125 55.046875 
Q 24.21875 56 28.609375 56 
Q 40.484375 56 46.34375 49.84375 
Q 52.203125 43.703125 52.203125 31.203125 
z
" id="DejaVuSans-61"/>
      <path d="M 44.28125 53.078125 
L 44.28125 44.578125 
Q 40.484375 46.53125 36.375 47.5 
Q 32.28125 48.484375 27.875 48.484375 
Q 21.1875 48.484375 17.84375 46.4375 
Q 14.5 44.390625 14.5 40.28125 
Q 14.5 37.15625 16.890625 35.375 
Q 19.28125 33.59375 26.515625 31.984375 
L 29.59375 31.296875 
Q 39.15625 29.25 43.1875 25.515625 
Q 47.21875 21.78125 47.21875 15.09375 
Q 47.21875 7.46875 41.1875 3.015625 
Q 35.15625 -1.421875 24.609375 -1.421875 
Q 20.21875 -1.421875 15.453125 -0.5625 
Q 10.6875 0.296875 5.421875 2 
L 5.421875 11.28125 
Q 10.40625 8.6875 15.234375 7.390625 
Q 20.0625 6.109375 24.8125 6.109375 
Q 31.15625 6.109375 34.5625 8.28125 
Q 37.984375 10.453125 37.984375 14.40625 
Q 37.984375 18.0625 35.515625 20.015625 
Q 33.0625 21.96875 24.703125 23.78125 
L 21.578125 24.515625 
Q 13.234375 26.265625 9.515625 29.90625 
Q 5.8125 33.546875 5.8125 39.890625 
Q 5.8125 47.609375 11.28125 51.796875 
Q 16.75 56 26.8125 56 
Q 31.78125 56 36.171875 55.265625 
Q 40.578125 54.546875 44.28125 53.078125 
z
" id="DejaVuSans-73"/>
      <path d="M 25.390625 72.90625 
L 33.6875 72.90625 
L 8.296875 -9.28125 
L 0 -9.28125 
z
" id="DejaVuSans-2f"/>
      <path d="M 45.40625 46.390625 
L 45.40625 75.984375 
L 54.390625 75.984375 
L 54.390625 0 
L 45.40625 0 
L 45.40625 8.203125 
Q 42.578125 3.328125 38.25 0.953125 
Q 33.9375 -1.421875 27.875 -1.421875 
Q 17.96875 -1.421875 11.734375 6.484375 
Q 5.515625 14.40625 5.515625 27.296875 
Q 5.515625 40.1875 11.734375 48.09375 
Q 17.96875 56 27.875 56 
Q 33.9375 56 38.25 53.625 
Q 42.578125 51.265625 45.40625 46.390625 
z
M 14.796875 27.296875 
Q 14.796875 17.390625 18.875 11.75 
Q 22.953125 6.109375 30.078125 6.109375 
Q 37.203125 6.109375 41.296875 11.75 
Q 45.40625 17.390625 45.40625 27.296875 
Q 45.40625 37.203125 41.296875 42.84375 
Q 37.203125 48.484375 30.078125 48.484375 
Q 22.953125 48.484375 18.875 42.84375 
Q 14.796875 37.203125 14.796875 27.296875 
z
" id="DejaVuSans-64"/>
      <path d="M 9.421875 54.6875 
L 18.40625 54.6875 
L 18.40625 0 
L 9.421875 0 
z
M 9.421875 75.984375 
L 18.40625 75.984375 
L 18.40625 64.59375 
L 9.421875 64.59375 
z
" id="DejaVuSans-69"/>
      <path d="M 52 44.1875 
Q 55.375 50.25 60.0625 53.125 
Q 64.75 56 71.09375 56 
Q 79.640625 56 84.28125 50.015625 
Q 88.921875 44.046875 88.921875 33.015625 
L 88.921875 0 
L 79.890625 0 
L 79.890625 32.71875 
Q 79.890625 40.578125 77.09375 44.375 
Q 74.3125 48.1875 68.609375 48.1875 
Q 61.625 48.1875 57.5625 43.546875 
Q 53.515625 38.921875 53.515625 30.90625 
L 53.515625 0 
L 44.484375 0 
L 44.484375 32.71875 
Q 44.484375 40.625 41.703125 44.40625 
Q 38.921875 48.1875 33.109375 48.1875 
Q 26.21875 48.1875 22.15625 43.53125 
Q 18.109375 38.875 18.109375 30.90625 
L 18.109375 0 
L 9.078125 0 
L 9.078125 54.6875 
L 18.109375 54.6875 
L 18.109375 46.1875 
Q 21.1875 51.21875 25.484375 53.609375 
Q 29.78125 56 35.6875 56 
Q 41.65625 56 45.828125 52.96875 
Q 50 49.953125 52 44.1875 
z
" id="DejaVuSans-6d"/>
      <path d="M 54.890625 33.015625 
L 54.890625 0 
L 45.90625 0 
L 45.90625 32.71875 
Q 45.90625 40.484375 42.875 44.328125 
Q 39.84375 48.1875 33.796875 48.1875 
Q 26.515625 48.1875 22.3125 43.546875 
Q 18.109375 38.921875 18.109375 30.90625 
L 18.109375 0 
L 9.078125 0 
L 9.078125 54.6875 
L 18.109375 54.6875 
L 18.109375 46.1875 
Q 21.34375 51.125 25.703125 53.5625 
Q 30.078125 56 35.796875 56 
Q 45.21875 56 50.046875 50.171875 
Q 54.890625 44.34375 54.890625 33.015625 
z
" id="DejaVuSans-6e"/>
      <path d="M 8.015625 75.875 
L 15.828125 75.875 
Q 23.140625 64.359375 26.78125 53.3125 
Q 30.421875 42.28125 30.421875 31.390625 
Q 30.421875 20.453125 26.78125 9.375 
Q 23.140625 -1.703125 15.828125 -13.1875 
L 8.015625 -13.1875 
Q 14.5 -2 17.703125 9.0625 
Q 20.90625 20.125 20.90625 31.390625 
Q 20.90625 42.671875 17.703125 53.65625 
Q 14.5 64.65625 8.015625 75.875 
z
" id="DejaVuSans-29"/>
     </defs>
     <g transform="translate(73.803219 338.153594)scale(0.17 -0.17)">
      <use xlink:href="#DejaVuSans-6c"/>
      <use x="27.783203" xlink:href="#DejaVuSans-6f"/>
      <use x="88.964844" xlink:href="#DejaVuSans-67"/>
      <use x="152.441406" xlink:href="#DejaVuSans-31"/>
      <use x="216.064453" xlink:href="#DejaVuSans-30"/>
      <use x="279.6875" xlink:href="#DejaVuSans-28"/>
      <use x="318.701172" xlink:href="#DejaVuSans-23"/>
      <use x="402.490234" xlink:href="#DejaVuSans-20"/>
      <use x="434.277344" xlink:href="#DejaVuSans-66"/>
      <use x="469.404297" xlink:href="#DejaVuSans-2d"/>
      <use x="505.488281" xlink:href="#DejaVuSans-65"/>
      <use x="567.011719" xlink:href="#DejaVuSans-76"/>
      <use x="626.191406" xlink:href="#DejaVuSans-61"/>
      <use x="687.470703" xlink:href="#DejaVuSans-6c"/>
      <use x="715.253906" xlink:href="#DejaVuSans-73"/>
      <use x="767.353516" xlink:href="#DejaVuSans-20"/>
      <use x="799.140625" xlink:href="#DejaVuSans-2f"/>
      <use x="832.832031" xlink:href="#DejaVuSans-20"/>
      <use x="864.619141" xlink:href="#DejaVuSans-64"/>
      <use x="928.095703" xlink:href="#DejaVuSans-69"/>
      <use x="955.878906" xlink:href="#DejaVuSans-6d"/>
      <use x="1053.291016" xlink:href="#DejaVuSans-65"/>
      <use x="1114.814453" xlink:href="#DejaVuSans-6e"/>
      <use x="1178.193359" xlink:href="#DejaVuSans-73"/>
      <use x="1230.292969" xlink:href="#DejaVuSans-69"/>
      <use x="1258.076172" xlink:href="#DejaVuSans-6f"/>
      <use x="1319.257812" xlink:href="#DejaVuSans-6e"/>
      <use x="1382.636719" xlink:href="#DejaVuSans-29"/>
     </g>
    </g>
   </g>
   <g id="matplotlib.axis_2">
    <g id="ytick_1">
     <g id="line2d_29">
      <path clip-path="url(#pd1cfc4473b)" d="M 56.12 294.88 
L 333.168 294.88 
" style="fill:none;stroke:#b0b0b0;stroke-linecap:square;stroke-width:0.8;"/>
     </g>
     <g id="line2d_30">
      <defs>
       <path d="M 0 0 
L -3.5 0 
" id="m8cf6119b6f" style="stroke:#000000;stroke-width:0.8;"/>
      </defs>
      <g>
       <use style="stroke:#000000;stroke-width:0.8;" x="56.12" xlink:href="#m8cf6119b6f" y="294.88"/>
      </g>
     </g>
     <g id="text_6">
      <!-- 0.0 -->
      <defs>
       <path d="M 10.6875 12.40625 
L 21 12.40625 
L 21 0 
L 10.6875 0 
z
" id="DejaVuSans-2e"/>
      </defs>
      <g transform="translate(23.675 300.95875)scale(0.16 -0.16)">
       <use xlink:href="#DejaVuSans-30"/>
       <use x="63.623047" xlink:href="#DejaVuSans-2e"/>
       <use x="95.410156" xlink:href="#DejaVuSans-30"/>
      </g>
     </g>
    </g>
    <g id="ytick_2">
     <g id="line2d_31">
      <path clip-path="url(#pd1cfc4473b)" d="M 56.12 237.843411 
L 333.168 237.843411 
" style="fill:none;stroke:#b0b0b0;stroke-linecap:square;stroke-width:0.8;"/>
     </g>
     <g id="line2d_32">
      <g>
       <use style="stroke:#000000;stroke-width:0.8;" x="56.12" xlink:href="#m8cf6119b6f" y="237.843411"/>
      </g>
     </g>
     <g id="text_7">
      <!-- 0.2 -->
      <g transform="translate(23.675 243.922161)scale(0.16 -0.16)">
       <use xlink:href="#DejaVuSans-30"/>
       <use x="63.623047" xlink:href="#DejaVuSans-2e"/>
       <use x="95.410156" xlink:href="#DejaVuSans-32"/>
      </g>
     </g>
    </g>
    <g id="ytick_3">
     <g id="line2d_33">
      <path clip-path="url(#pd1cfc4473b)" d="M 56.12 180.806823 
L 333.168 180.806823 
" style="fill:none;stroke:#b0b0b0;stroke-linecap:square;stroke-width:0.8;"/>
     </g>
     <g id="line2d_34">
      <g>
       <use style="stroke:#000000;stroke-width:0.8;" x="56.12" xlink:href="#m8cf6119b6f" y="180.806823"/>
      </g>
     </g>
     <g id="text_8">
      <!-- 0.4 -->
      <g transform="translate(23.675 186.885573)scale(0.16 -0.16)">
       <use xlink:href="#DejaVuSans-30"/>
       <use x="63.623047" xlink:href="#DejaVuSans-2e"/>
       <use x="95.410156" xlink:href="#DejaVuSans-34"/>
      </g>
     </g>
    </g>
    <g id="ytick_4">
     <g id="line2d_35">
      <path clip-path="url(#pd1cfc4473b)" d="M 56.12 123.770234 
L 333.168 123.770234 
" style="fill:none;stroke:#b0b0b0;stroke-linecap:square;stroke-width:0.8;"/>
     </g>
     <g id="line2d_36">
      <g>
       <use style="stroke:#000000;stroke-width:0.8;" x="56.12" xlink:href="#m8cf6119b6f" y="123.770234"/>
      </g>
     </g>
     <g id="text_9">
      <!-- 0.6 -->
      <g transform="translate(23.675 129.848984)scale(0.16 -0.16)">
       <use xlink:href="#DejaVuSans-30"/>
       <use x="63.623047" xlink:href="#DejaVuSans-2e"/>
       <use x="95.410156" xlink:href="#DejaVuSans-36"/>
      </g>
     </g>
    </g>
    <g id="ytick_5">
     <g id="line2d_37">
      <path clip-path="url(#pd1cfc4473b)" d="M 56.12 66.733646 
L 333.168 66.733646 
" style="fill:none;stroke:#b0b0b0;stroke-linecap:square;stroke-width:0.8;"/>
     </g>
     <g id="line2d_38">
      <g>
       <use style="stroke:#000000;stroke-width:0.8;" x="56.12" xlink:href="#m8cf6119b6f" y="66.733646"/>
      </g>
     </g>
     <g id="text_10">
      <!-- 0.8 -->
      <defs>
       <path d="M 31.78125 34.625 
Q 24.75 34.625 20.71875 30.859375 
Q 16.703125 27.09375 16.703125 20.515625 
Q 16.703125 13.921875 20.71875 10.15625 
Q 24.75 6.390625 31.78125 6.390625 
Q 38.8125 6.390625 42.859375 10.171875 
Q 46.921875 13.96875 46.921875 20.515625 
Q 46.921875 27.09375 42.890625 30.859375 
Q 38.875 34.625 31.78125 34.625 
z
M 21.921875 38.8125 
Q 15.578125 40.375 12.03125 44.71875 
Q 8.5 49.078125 8.5 55.328125 
Q 8.5 64.0625 14.71875 69.140625 
Q 20.953125 74.21875 31.78125 74.21875 
Q 42.671875 74.21875 48.875 69.140625 
Q 55.078125 64.0625 55.078125 55.328125 
Q 55.078125 49.078125 51.53125 44.71875 
Q 48 40.375 41.703125 38.8125 
Q 48.828125 37.15625 52.796875 32.3125 
Q 56.78125 27.484375 56.78125 20.515625 
Q 56.78125 9.90625 50.3125 4.234375 
Q 43.84375 -1.421875 31.78125 -1.421875 
Q 19.734375 -1.421875 13.25 4.234375 
Q 6.78125 9.90625 6.78125 20.515625 
Q 6.78125 27.484375 10.78125 32.3125 
Q 14.796875 37.15625 21.921875 38.8125 
z
M 18.3125 54.390625 
Q 18.3125 48.734375 21.84375 45.5625 
Q 25.390625 42.390625 31.78125 42.390625 
Q 38.140625 42.390625 41.71875 45.5625 
Q 45.3125 48.734375 45.3125 54.390625 
Q 45.3125 60.0625 41.71875 63.234375 
Q 38.140625 66.40625 31.78125 66.40625 
Q 25.390625 66.40625 21.84375 63.234375 
Q 18.3125 60.0625 18.3125 54.390625 
z
" id="DejaVuSans-38"/>
      </defs>
      <g transform="translate(23.675 72.812396)scale(0.16 -0.16)">
       <use xlink:href="#DejaVuSans-30"/>
       <use x="63.623047" xlink:href="#DejaVuSans-2e"/>
       <use x="95.410156" xlink:href="#DejaVuSans-38"/>
      </g>
     </g>
    </g>
    <g id="ytick_6">
     <g id="line2d_39">
      <path clip-path="url(#pd1cfc4473b)" d="M 56.12 9.697057 
L 333.168 9.697057 
" style="fill:none;stroke:#b0b0b0;stroke-linecap:square;stroke-width:0.8;"/>
     </g>
     <g id="line2d_40">
      <g>
       <use style="stroke:#000000;stroke-width:0.8;" x="56.12" xlink:href="#m8cf6119b6f" y="9.697057"/>
      </g>
     </g>
     <g id="text_11">
      <!-- 1.0 -->
      <g transform="translate(23.675 15.775807)scale(0.16 -0.16)">
       <use xlink:href="#DejaVuSans-31"/>
       <use x="63.623047" xlink:href="#DejaVuSans-2e"/>
       <use x="95.410156" xlink:href="#DejaVuSans-30"/>
      </g>
     </g>
    </g>
    <g id="text_12">
     <!-- Fraction of function,target pairs -->
     <defs>
      <path d="M 9.8125 72.90625 
L 51.703125 72.90625 
L 51.703125 64.59375 
L 19.671875 64.59375 
L 19.671875 43.109375 
L 48.578125 43.109375 
L 48.578125 34.8125 
L 19.671875 34.8125 
L 19.671875 0 
L 9.8125 0 
z
" id="DejaVuSans-46"/>
      <path d="M 41.109375 46.296875 
Q 39.59375 47.171875 37.8125 47.578125 
Q 36.03125 48 33.890625 48 
Q 26.265625 48 22.1875 43.046875 
Q 18.109375 38.09375 18.109375 28.8125 
L 18.109375 0 
L 9.078125 0 
L 9.078125 54.6875 
L 18.109375 54.6875 
L 18.109375 46.1875 
Q 20.953125 51.171875 25.484375 53.578125 
Q 30.03125 56 36.53125 56 
Q 37.453125 56 38.578125 55.875 
Q 39.703125 55.765625 41.0625 55.515625 
z
" id="DejaVuSans-72"/>
      <path d="M 48.78125 52.59375 
L 48.78125 44.1875 
Q 44.96875 46.296875 41.140625 47.34375 
Q 37.3125 48.390625 33.40625 48.390625 
Q 24.65625 48.390625 19.8125 42.84375 
Q 14.984375 37.3125 14.984375 27.296875 
Q 14.984375 17.28125 19.8125 11.734375 
Q 24.65625 6.203125 33.40625 6.203125 
Q 37.3125 6.203125 41.140625 7.25 
Q 44.96875 8.296875 48.78125 10.40625 
L 48.78125 2.09375 
Q 45.015625 0.34375 40.984375 -0.53125 
Q 36.96875 -1.421875 32.421875 -1.421875 
Q 20.0625 -1.421875 12.78125 6.34375 
Q 5.515625 14.109375 5.515625 27.296875 
Q 5.515625 40.671875 12.859375 48.328125 
Q 20.21875 56 33.015625 56 
Q 37.15625 56 41.109375 55.140625 
Q 45.0625 54.296875 48.78125 52.59375 
z
" id="DejaVuSans-63"/>
      <path d="M 18.3125 70.21875 
L 18.3125 54.6875 
L 36.8125 54.6875 
L 36.8125 47.703125 
L 18.3125 47.703125 
L 18.3125 18.015625 
Q 18.3125 11.328125 20.140625 9.421875 
Q 21.96875 7.515625 27.59375 7.515625 
L 36.8125 7.515625 
L 36.8125 0 
L 27.59375 0 
Q 17.1875 0 13.234375 3.875 
Q 9.28125 7.765625 9.28125 18.015625 
L 9.28125 47.703125 
L 2.6875 47.703125 
L 2.6875 54.6875 
L 9.28125 54.6875 
L 9.28125 70.21875 
z
" id="DejaVuSans-74"/>
      <path d="M 8.5 21.578125 
L 8.5 54.6875 
L 17.484375 54.6875 
L 17.484375 21.921875 
Q 17.484375 14.15625 20.5 10.265625 
Q 23.53125 6.390625 29.59375 6.390625 
Q 36.859375 6.390625 41.078125 11.03125 
Q 45.3125 15.671875 45.3125 23.6875 
L 45.3125 54.6875 
L 54.296875 54.6875 
L 54.296875 0 
L 45.3125 0 
L 45.3125 8.40625 
Q 42.046875 3.421875 37.71875 1 
Q 33.40625 -1.421875 27.6875 -1.421875 
Q 18.265625 -1.421875 13.375 4.4375 
Q 8.5 10.296875 8.5 21.578125 
z
M 31.109375 56 
z
" id="DejaVuSans-75"/>
      <path d="M 11.71875 12.40625 
L 22.015625 12.40625 
L 22.015625 4 
L 14.015625 -11.625 
L 7.71875 -11.625 
L 11.71875 4 
z
" id="DejaVuSans-2c"/>
      <path d="M 18.109375 8.203125 
L 18.109375 -20.796875 
L 9.078125 -20.796875 
L 9.078125 54.6875 
L 18.109375 54.6875 
L 18.109375 46.390625 
Q 20.953125 51.265625 25.265625 53.625 
Q 29.59375 56 35.59375 56 
Q 45.5625 56 51.78125 48.09375 
Q 58.015625 40.1875 58.015625 27.296875 
Q 58.015625 14.40625 51.78125 6.484375 
Q 45.5625 -1.421875 35.59375 -1.421875 
Q 29.59375 -1.421875 25.265625 0.953125 
Q 20.953125 3.328125 18.109375 8.203125 
z
M 48.6875 27.296875 
Q 48.6875 37.203125 44.609375 42.84375 
Q 40.53125 48.484375 33.40625 48.484375 
Q 26.265625 48.484375 22.1875 42.84375 
Q 18.109375 37.203125 18.109375 27.296875 
Q 18.109375 17.390625 22.1875 11.75 
Q 26.265625 6.109375 33.40625 6.109375 
Q 40.53125 6.109375 44.609375 11.75 
Q 48.6875 17.390625 48.6875 27.296875 
z
" id="DejaVuSans-70"/>
     </defs>
     <g transform="translate(16.139531 286.001989)rotate(-90)scale(0.17 -0.17)">
      <use xlink:href="#DejaVuSans-46"/>
      <use x="57.410156" xlink:href="#DejaVuSans-72"/>
      <use x="98.523438" xlink:href="#DejaVuSans-61"/>
      <use x="159.802734" xlink:href="#DejaVuSans-63"/>
      <use x="214.783203" xlink:href="#DejaVuSans-74"/>
      <use x="253.992188" xlink:href="#DejaVuSans-69"/>
      <use x="281.775391" xlink:href="#DejaVuSans-6f"/>
      <use x="342.957031" xlink:href="#DejaVuSans-6e"/>
      <use x="406.335938" xlink:href="#DejaVuSans-20"/>
      <use x="438.123047" xlink:href="#DejaVuSans-6f"/>
      <use x="499.304688" xlink:href="#DejaVuSans-66"/>
      <use x="534.509766" xlink:href="#DejaVuSans-20"/>
      <use x="566.296875" xlink:href="#DejaVuSans-66"/>
      <use x="601.501953" xlink:href="#DejaVuSans-75"/>
      <use x="664.880859" xlink:href="#DejaVuSans-6e"/>
      <use x="728.259766" xlink:href="#DejaVuSans-63"/>
      <use x="783.240234" xlink:href="#DejaVuSans-74"/>
      <use x="822.449219" xlink:href="#DejaVuSans-69"/>
      <use x="850.232422" xlink:href="#DejaVuSans-6f"/>
      <use x="911.414062" xlink:href="#DejaVuSans-6e"/>
      <use x="974.792969" xlink:href="#DejaVuSans-2c"/>
      <use x="1006.580078" xlink:href="#DejaVuSans-74"/>
      <use x="1045.789062" xlink:href="#DejaVuSans-61"/>
      <use x="1107.068359" xlink:href="#DejaVuSans-72"/>
      <use x="1148.166016" xlink:href="#DejaVuSans-67"/>
      <use x="1211.642578" xlink:href="#DejaVuSans-65"/>
      <use x="1273.166016" xlink:href="#DejaVuSans-74"/>
      <use x="1312.375" xlink:href="#DejaVuSans-20"/>
      <use x="1344.162109" xlink:href="#DejaVuSans-70"/>
      <use x="1407.638672" xlink:href="#DejaVuSans-61"/>
      <use x="1468.917969" xlink:href="#DejaVuSans-69"/>
      <use x="1496.701172" xlink:href="#DejaVuSans-72"/>
      <use x="1537.814453" xlink:href="#DejaVuSans-73"/>
     </g>
    </g>
   </g>
   <g id="line2d_41">
    <defs>
     <path d="M 0 1.5 
C 0.397805 1.5 0.77937 1.341951 1.06066 1.06066 
C 1.341951 0.77937 1.5 0.397805 1.5 0 
C 1.5 -0.397805 1.341951 -0.77937 1.06066 -1.06066 
C 0.77937 -1.341951 0.397805 -1.5 0 -1.5 
C -0.397805 -1.5 -0.77937 -1.341951 -1.06066 -1.06066 
C -1.341951 -0.77937 -1.5 -0.397805 -1.5 0 
C -1.5 0.397805 -1.341951 0.77937 -1.06066 1.06066 
C -0.77937 1.341951 -0.397805 1.5 0 1.5 
z
" id="m52daf18c09" style="stroke:#f5deb3;"/>
    </defs>
    <g>
     <use style="fill:#f5deb3;stroke:#f5deb3;" x="257.027187" xlink:href="#m52daf18c09" y="9.697057"/>
     <use style="fill:#f5deb3;stroke:#f5deb3;" x="257.027187" xlink:href="#m52daf18c09" y="9.697057"/>
    </g>
   </g>
   <g id="line2d_42">
    <defs>
     <path d="M 0 1.5 
C 0.397805 1.5 0.77937 1.341951 1.06066 1.06066 
C 1.341951 0.77937 1.5 0.397805 1.5 0 
C 1.5 -0.397805 1.341951 -0.77937 1.06066 -1.06066 
C 0.77937 -1.341951 0.397805 -1.5 0 -1.5 
C -0.397805 -1.5 -0.77937 -1.341951 -1.06066 -1.06066 
C -1.341951 -0.77937 -1.5 -0.397805 -1.5 0 
C -1.5 0.397805 -1.341951 0.77937 -1.06066 1.06066 
C -0.77937 1.341951 -0.397805 1.5 0 1.5 
z
" id="m3473ee3d07" style="stroke:#000080;"/>
    </defs>
    <g>
     <use style="fill:#000080;stroke:#000080;" x="255.65494" xlink:href="#m3473ee3d07" y="93.574393"/>
     <use style="fill:#000080;stroke:#000080;" x="255.65494" xlink:href="#m3473ee3d07" y="93.574393"/>
    </g>
   </g>
   <g id="line2d_43">
    <path d="M 37.236359 294.88 
L 37.236359 284.031865 
L 64.900393 284.031865 
L 64.900393 278.440042 
L 75.003641 278.440042 
L 75.003641 273.854748 
L 81.324327 273.854748 
L 81.324327 270.723327 
L 85.935418 270.723327 
L 85.935418 267.032724 
L 89.567532 267.032724 
L 89.567532 264.907832 
L 92.564428 264.907832 
L 92.564428 262.223757 
L 95.115564 262.223757 
L 95.115564 260.54621 
L 97.336537 260.54621 
L 97.336537 258.644991 
L 99.303095 258.644991 
L 99.303095 257.638463 
L 101.067579 257.638463 
L 101.067579 257.079281 
L 102.667676 257.079281 
L 102.667676 255.84908 
L 104.131422 255.84908 
L 104.131422 254.842552 
L 105.480242 254.842552 
L 105.480242 253.612351 
L 107.896653 253.612351 
L 107.896653 253.276841 
L 108.988361 253.276841 
L 108.988361 253.053168 
L 110.014853 253.053168 
L 110.014853 252.717659 
L 110.983483 252.717659 
L 110.983483 252.493986 
L 111.900428 252.493986 
L 111.900428 251.934804 
L 112.770924 251.934804 
L 112.770924 251.711131 
L 113.599452 251.711131 
L 113.599452 251.375622 
L 114.389873 251.375622 
L 114.389873 249.362566 
L 115.145539 249.362566 
L 115.145539 248.691547 
L 115.869378 248.691547 
L 115.869378 248.132365 
L 116.563963 248.132365 
L 116.563963 247.908692 
L 119.09161 247.908692 
L 119.09161 247.573182 
L 119.669433 247.573182 
L 119.669433 247.461346 
L 120.228462 247.461346 
L 120.228462 247.237673 
L 120.769881 247.237673 
L 120.769881 246.902164 
L 121.294766 246.902164 
L 121.294766 245.224617 
L 121.804096 245.224617 
L 121.804096 244.441762 
L 122.298767 244.441762 
L 122.298767 243.994416 
L 122.779599 243.994416 
L 122.779599 243.323397 
L 123.247346 243.323397 
L 123.247346 242.428706 
L 123.7027 242.428706 
L 123.7027 241.645851 
L 124.146303 241.645851 
L 124.146303 240.974832 
L 124.578744 240.974832 
L 124.578744 240.751159 
L 125.000572 240.751159 
L 125.000572 239.856467 
L 125.412295 239.856467 
L 125.412295 239.520958 
L 125.814387 239.520958 
L 125.814387 238.738103 
L 126.207287 238.738103 
L 126.207287 237.955248 
L 126.591406 237.955248 
L 126.591406 237.731575 
L 126.967129 237.731575 
L 126.967129 237.507902 
L 127.334814 237.507902 
L 127.334814 237.060556 
L 127.694799 237.060556 
L 127.694799 236.501374 
L 128.047399 236.501374 
L 128.047399 234.823827 
L 128.39291 234.823827 
L 128.39291 234.711991 
L 128.731613 234.711991 
L 128.731613 233.258117 
L 129.063771 233.258117 
L 129.063771 233.034444 
L 129.389632 233.034444 
L 129.389632 232.922608 
L 129.70943 232.922608 
L 129.70943 232.698935 
L 130.023386 232.698935 
L 130.023386 232.587098 
L 130.33171 232.587098 
L 130.33171 232.251589 
L 130.634602 232.251589 
L 130.634602 232.027916 
L 131.224827 232.027916 
L 131.224827 231.804243 
L 131.51251 231.804243 
L 131.51251 231.468734 
L 131.795457 231.468734 
L 131.795457 231.133225 
L 132.073821 231.133225 
L 132.073821 230.462206 
L 132.347749 230.462206 
L 132.347749 230.126697 
L 132.61738 230.126697 
L 132.61738 229.567514 
L 132.882847 229.567514 
L 132.882847 229.343841 
L 133.144276 229.343841 
L 133.144276 228.225477 
L 133.401789 228.225477 
L 133.401789 228.001804 
L 133.905521 228.001804 
L 133.905521 227.889968 
L 134.151957 227.889968 
L 134.151957 227.554458 
L 134.39491 227.554458 
L 134.39491 227.330785 
L 134.634477 227.330785 
L 134.634477 226.54793 
L 134.87075 226.54793 
L 134.87075 226.324257 
L 135.10382 226.324257 
L 135.10382 225.429566 
L 135.333772 225.429566 
L 135.333772 224.98222 
L 135.560688 224.98222 
L 135.560688 224.534874 
L 136.439531 224.534874 
L 136.439531 223.41651 
L 136.652396 223.41651 
L 136.652396 223.192837 
L 137.070377 223.192837 
L 137.070377 222.409982 
L 137.275617 222.409982 
L 137.275617 222.186309 
L 137.478435 222.186309 
L 137.478435 222.074472 
L 137.678888 222.074472 
L 137.678888 221.51529 
L 137.87703 221.51529 
L 137.87703 221.403454 
L 138.072914 221.403454 
L 138.072914 219.61407 
L 138.266591 219.61407 
L 138.266591 219.502234 
L 138.458109 219.502234 
L 138.458109 219.390397 
L 138.647518 219.390397 
L 138.647518 219.166725 
L 138.834862 219.166725 
L 138.834862 218.383869 
L 139.203533 218.383869 
L 139.203533 218.272033 
L 139.384945 218.272033 
L 139.384945 218.160197 
L 139.564462 218.160197 
L 139.564462 217.824687 
L 139.742124 217.824687 
L 139.742124 217.265505 
L 139.917968 217.265505 
L 139.917968 216.258977 
L 140.092032 216.258977 
L 140.092032 214.91694 
L 140.26435 214.91694 
L 140.26435 214.693267 
L 140.434959 214.693267 
L 140.434959 214.58143 
L 140.60389 214.58143 
L 140.60389 213.910412 
L 140.771177 213.910412 
L 140.771177 212.232865 
L 140.936852 212.232865 
L 140.936852 211.785519 
L 141.100945 211.785519 
L 141.100945 209.996136 
L 141.263487 209.996136 
L 141.263487 209.54879 
L 141.424506 209.54879 
L 141.424506 208.877771 
L 141.58403 208.877771 
L 141.58403 208.318589 
L 141.742087 208.318589 
L 141.742087 207.871243 
L 141.898705 207.871243 
L 141.898705 207.312061 
L 142.053908 207.312061 
L 142.053908 207.200225 
L 142.207722 207.200225 
L 142.207722 206.864715 
L 142.511282 206.864715 
L 142.511282 206.752879 
L 142.661075 206.752879 
L 142.661075 206.641042 
L 142.809574 206.641042 
L 142.809574 206.529206 
L 142.956801 206.529206 
L 142.956801 206.193697 
L 143.247524 206.193697 
L 143.247524 206.08186 
L 143.391063 206.08186 
L 143.391063 205.970024 
L 143.533413 205.970024 
L 143.533413 205.858187 
L 143.674593 205.858187 
L 143.674593 205.410841 
L 143.953522 205.410841 
L 143.953522 205.299005 
L 144.091308 205.299005 
L 144.091308 205.075332 
L 144.227997 205.075332 
L 144.227997 204.851659 
L 144.363608 204.851659 
L 144.363608 204.51615 
L 144.498158 204.51615 
L 144.498158 204.404313 
L 145.284061 204.404313 
L 145.284061 204.292477 
L 145.9126 204.292477 
L 145.9126 204.180641 
L 146.278979 204.180641 
L 146.278979 203.621458 
L 146.39939 203.621458 
L 146.39939 203.174112 
L 146.518964 203.174112 
L 146.518964 202.838603 
L 146.637711 202.838603 
L 146.637711 202.503094 
L 146.872773 202.503094 
L 146.872773 202.279421 
L 147.104664 202.279421 
L 147.104664 202.167584 
L 147.219446 202.167584 
L 147.219446 202.055748 
L 147.671062 202.055748 
L 147.782136 201.832075 
L 147.892497 201.832075 
L 148.002154 201.608402 
L 148.111115 201.608402 
L 148.21939 201.272893 
L 148.433916 201.272893 
L 148.540183 200.825547 
L 148.645797 200.825547 
L 148.645797 200.490038 
L 148.855098 200.490038 
L 148.855098 199.707183 
L 149.061881 199.707183 
L 149.164347 199.371673 
L 149.266206 199.371673 
L 149.367465 198.365145 
L 149.56821 198.365145 
L 149.56821 198.029636 
L 150.348537 198.029636 
L 150.443634 197.694127 
L 150.725806 197.694127 
L 150.818844 197.246781 
L 150.91138 197.246781 
L 151.003421 196.799435 
L 151.276624 196.799435 
L 151.276624 196.575762 
L 151.456376 196.575762 
L 151.545552 195.121888 
L 151.634268 195.121888 
L 151.722528 194.674542 
L 151.810337 194.674542 
L 151.810337 194.339033 
L 151.984621 194.339033 
L 151.984621 193.444342 
L 152.242778 193.444342 
L 152.242778 193.220669 
L 152.497115 193.220669 
L 152.497115 193.108832 
L 152.747744 193.108832 
L 152.747744 192.996996 
L 152.99477 192.996996 
L 152.99477 192.885159 
L 153.238297 192.885159 
L 153.318712 191.654958 
L 153.398752 191.654958 
L 153.478421 190.872103 
L 153.557723 190.872103 
L 153.636661 190.536594 
L 153.715237 190.536594 
L 153.793457 189.194556 
L 153.871321 189.194556 
L 153.948835 188.411701 
L 154.026001 188.411701 
L 154.102822 186.510482 
L 154.179301 186.510482 
L 154.255441 184.721099 
L 154.406717 184.721099 
L 154.406717 184.609262 
L 155.143749 184.609262 
L 155.143749 184.497426 
L 155.287437 184.497426 
L 155.287437 184.161916 
L 155.641489 184.161916 
L 155.711433 183.826407 
L 155.781093 183.826407 
L 155.781093 183.490898 
L 156.056945 183.490898 
L 156.125221 182.708042 
L 156.260967 182.708042 
L 156.328439 182.14886 
L 156.395648 182.14886 
L 156.462595 181.925187 
L 156.988987 181.925187 
L 156.988987 181.813351 
L 157.118104 181.813351 
L 157.118104 181.477842 
L 157.562525 181.477842 
L 157.562525 181.366005 
L 157.811415 181.366005 
L 157.811415 181.254169 
L 157.995745 181.254169 
L 157.995745 181.142332 
L 158.117543 181.142332 
L 158.178119 180.806823 
L 158.238483 180.806823 
L 158.298636 180.359477 
L 158.946785 180.359477 
L 159.004513 180.135804 
L 159.119392 180.135804 
L 159.119392 180.023968 
L 159.233507 180.023968 
L 159.290283 179.800295 
L 159.459491 179.800295 
L 159.515526 179.352949 
L 159.62705 179.352949 
L 159.737856 177.11622 
L 159.902736 177.11622 
L 160.011784 176.557038 
L 160.227826 176.557038 
L 160.227826 176.445201 
L 160.441186 176.445201 
L 160.546882 175.997856 
L 160.704216 175.997856 
L 160.704216 175.662346 
L 160.860123 175.662346 
L 160.963281 174.208472 
L 161.065823 174.208472 
L 161.116866 173.64929 
L 161.218499 173.64929 
L 161.319534 173.201944 
L 161.36983 173.201944 
L 161.469983 172.530926 
L 161.569555 172.530926 
L 161.668554 171.859907 
L 161.717841 171.859907 
L 161.766986 171.636234 
L 161.864858 171.636234 
L 161.962175 171.077052 
L 162.010628 171.077052 
L 162.010628 170.853379 
L 162.534785 170.853379 
L 162.581652 170.294197 
L 162.675005 170.294197 
L 162.767854 169.511342 
L 162.860205 169.511342 
L 162.952061 169.287669 
L 162.997806 169.287669 
L 163.088932 168.61665 
L 163.224722 168.61665 
L 163.314656 167.386449 
L 163.359447 167.386449 
L 163.359447 167.05094 
L 164.189028 167.05094 
L 164.274068 166.491757 
L 164.526692 166.491757 
L 164.526692 166.379921 
L 165.303018 166.379921 
L 165.303018 166.268085 
L 165.422454 166.268085 
L 165.501618 165.485229 
L 165.541064 165.485229 
L 165.619686 163.136664 
L 165.69795 163.136664 
L 165.69795 162.465645 
L 165.814681 162.465645 
L 165.892064 161.235444 
L 166.045792 161.235444 
L 166.122144 159.669734 
L 166.160193 159.669734 
L 166.236039 158.55137 
L 166.273837 158.55137 
L 166.349185 157.880351 
L 166.386735 157.880351 
L 166.46159 157.544842 
L 166.498896 157.544842 
L 166.573266 156.873823 
L 166.61033 156.873823 
L 166.721046 155.867295 
L 166.757794 155.867295 
L 166.867567 154.74893 
L 166.904003 154.74893 
L 167.01285 154.077912 
L 167.048979 154.077912 
L 167.121011 153.295057 
L 167.192743 153.295057 
L 167.299782 152.512201 
L 167.335314 152.512201 
L 167.441472 152.176692 
L 167.546978 152.176692 
L 167.582003 151.953019 
L 167.721394 151.953019 
L 167.790669 151.61751 
L 167.859665 151.61751 
L 167.962642 150.0518 
L 168.030953 150.0518 
L 168.132912 149.604454 
L 168.166765 149.604454 
L 168.166765 148.933435 
L 168.69953 148.933435 
L 168.76498 148.038744 
L 168.862689 148.038744 
L 168.959846 147.144052 
L 168.99211 147.144052 
L 169.08854 146.696706 
L 169.120564 146.696706 
L 169.120564 146.58487 
L 169.53153 146.58487 
L 169.593892 146.361197 
L 170.145201 146.361197 
L 170.23539 146.025687 
L 170.503155 146.025687 
L 170.503155 145.913851 
L 170.65013 145.913851 
L 170.65013 145.802015 
L 171.282294 145.802015 
L 171.282294 145.690178 
L 172.054637 145.690178 
L 172.054637 145.466505 
L 172.999233 145.466505 
L 172.999233 145.354669 
L 173.177026 145.354669 
L 173.177026 145.242832 
L 173.527189 145.242832 
L 173.625939 144.907323 
L 173.675102 144.907323 
L 173.724125 144.571814 
L 173.894612 144.571814 
L 173.967163 144.124468 
L 174.03941 144.124468 
L 174.111354 142.223248 
L 174.15915 142.223248 
L 174.15915 142.111412 
L 174.325397 142.111412 
L 174.419679 141.440393 
L 174.443168 141.440393 
L 174.536808 139.986519 
L 174.560138 139.986519 
L 174.62994 138.868155 
L 174.768698 138.868155 
L 174.860586 138.420809 
L 175.178377 138.420809 
L 175.178377 138.197136 
L 175.796859 138.197136 
L 175.904998 136.631426 
L 175.926545 136.631426 
L 175.969557 135.624898 
L 176.828381 135.624898 
L 176.828381 135.513061 
L 177.292014 135.513061 
L 177.292014 135.401225 
L 177.878547 135.401225 
L 177.878547 135.289388 
L 178.813704 135.289388 
L 178.813704 135.177552 
L 179.821191 135.177552 
L 179.872615 134.842043 
L 180.461468 134.842043 
L 180.461468 134.730206 
L 180.75663 134.730206 
L 180.853901 134.394697 
L 180.87006 134.394697 
L 180.918444 134.171024 
L 180.982746 134.171024 
L 181.07875 133.164496 
L 181.094699 133.164496 
L 181.142456 132.381641 
L 181.316439 132.381641 
L 181.426246 131.710622 
L 181.441876 131.710622 
L 181.457491 131.039603 
L 183.992474 131.039603 
L 184.073093 128.243692 
L 186.564496 128.243692 
L 186.564496 128.131856 
L 187.390842 128.131856 
L 187.434993 125.112272 
L 188.48272 125.112272 
L 188.48272 125.000435 
L 189.684337 125.000435 
L 189.77116 124.553089 
L 189.953027 124.553089 
L 189.953027 124.441253 
L 190.37624 124.441253 
L 190.37624 124.329417 
L 192.497267 124.329417 
L 192.497267 124.21758 
L 192.782292 124.21758 
L 192.854826 123.658398 
L 192.943066 123.658398 
L 192.943066 123.546561 
L 193.062667 123.546561 
L 193.141942 123.322888 
L 193.228723 123.322888 
L 193.252315 123.099216 
L 193.717477 123.099216 
L 193.793795 120.415141 
L 195.329808 120.415141 
L 195.329808 120.303304 
L 195.461615 120.303304 
L 195.489236 120.079632 
L 195.783387 120.079632 
L 195.783387 119.967795 
L 195.985668 119.967795 
L 195.999069 119.744122 
L 196.861212 119.744122 
L 196.899391 119.408613 
L 197.051266 119.408613 
L 197.120429 119.073103 
L 197.388156 119.073103 
L 197.468282 117.954739 
L 197.523537 117.954739 
L 197.633515 116.948211 
L 197.639604 116.948211 
L 197.730686 116.500865 
L 197.754893 116.500865 
L 197.863406 115.71801 
L 197.887427 115.71801 
L 197.917406 115.270664 
L 198.113969 115.270664 
L 198.196685 114.487809 
L 198.279005 114.487809 
L 198.279005 114.375973 
L 198.59864 114.375973 
L 198.604397 114.1523 
L 198.889811 114.1523 
L 198.889811 114.040463 
L 199.025144 114.040463 
L 199.08122 113.81679 
L 199.358887 113.81679 
L 199.391908 113.481281 
L 199.474183 113.481281 
L 199.485123 113.145772 
L 199.691677 113.145772 
L 199.783286 112.922099 
L 199.901117 112.922099 
L 199.901117 112.810262 
L 200.028746 112.810262 
L 200.028746 112.698426 
L 200.79045 112.698426 
L 200.815774 112.362917 
L 200.916698 112.362917 
L 200.992005 111.468225 
L 201.235731 111.468225 
L 201.339136 110.68537 
L 201.611881 110.68537 
L 201.611881 110.573533 
L 202.579518 110.573533 
L 202.579518 110.461697 
L 203.110205 110.461697 
L 203.211763 109.790678 
L 203.242553 109.790678 
L 203.255732 109.455169 
L 203.486909 109.455169 
L 203.569033 108.895987 
L 203.808823 108.895987 
L 203.808823 108.672314 
L 204.286869 108.672314 
L 204.381726 108.113132 
L 204.63485 108.113132 
L 204.723779 107.553949 
L 207.068195 107.553949 
L 207.08226 107.330276 
L 207.19437 107.330276 
L 207.281449 106.659258 
L 207.326557 106.659258 
L 207.33695 106.323748 
L 207.526377 106.323748 
L 207.526377 106.100075 
L 208.637151 106.100075 
L 208.637151 105.988239 
L 208.771481 105.988239 
L 208.869961 105.429057 
L 208.926885 105.429057 
L 209.021341 105.205384 
L 209.04017 105.205384 
L 209.09966 104.646202 
L 209.258333 104.646202 
L 209.27381 104.422529 
L 209.437022 104.422529 
L 209.461523 104.198856 
L 209.586549 104.198856 
L 209.626002 103.863347 
L 209.716703 103.863347 
L 209.776906 103.527837 
L 209.860837 103.527837 
L 209.959233 103.304164 
L 210.048197 103.304164 
L 210.104304 102.968655 
L 210.477588 102.968655 
L 210.477588 102.856818 
L 210.823158 102.856818 
L 210.823158 102.744982 
L 210.949923 102.744982 
L 210.949923 102.633146 
L 211.145274 102.633146 
L 211.145274 102.521309 
L 211.485967 102.521309 
L 211.485967 102.409473 
L 211.97674 102.409473 
L 211.97674 102.297636 
L 212.09268 102.297636 
L 212.100557 102.073963 
L 212.420427 102.073963 
L 212.420427 101.962127 
L 212.576881 101.962127 
L 212.683781 101.738454 
L 212.779931 101.738454 
L 212.850435 101.514781 
L 212.910639 101.514781 
L 212.993075 100.955599 
L 213.129597 100.955599 
L 213.129597 100.843762 
L 214.516021 100.843762 
L 214.591123 100.62009 
L 214.771838 100.62009 
L 214.877128 100.396417 
L 215.132067 100.396417 
L 215.132067 100.28458 
L 215.491367 100.28458 
L 215.573062 99.949071 
L 215.756528 99.949071 
L 215.756528 99.837234 
L 215.992563 99.837234 
L 215.992563 99.725398 
L 216.544541 99.725398 
L 216.544541 99.613561 
L 216.693881 99.613561 
L 216.693881 99.501725 
L 217.774395 99.501725 
L 217.806444 99.278052 
L 218.121832 99.278052 
L 218.129227 99.054379 
L 218.413366 99.054379 
L 218.413366 98.942543 
L 218.867294 98.942543 
L 218.867294 98.830706 
L 219.006613 98.830706 
L 219.006613 98.71887 
L 219.356074 98.71887 
L 219.356074 98.607033 
L 219.503452 98.607033 
L 219.513687 98.383361 
L 219.615704 98.383361 
L 219.615704 98.271524 
L 219.727229 98.271524 
L 219.817941 97.936015 
L 220.592692 97.936015 
L 220.592692 97.824178 
L 220.891184 97.824178 
L 220.891184 97.712342 
L 221.309463 97.712342 
L 221.347824 97.488669 
L 221.489782 97.488669 
L 221.489782 97.376833 
L 221.936918 97.376833 
L 221.936918 97.264996 
L 223.927637 97.264996 
L 223.927637 97.15316 
L 224.112635 97.15316 
L 224.112635 97.041323 
L 224.517601 97.041323 
L 224.597715 96.81765 
L 224.638265 96.81765 
L 224.638265 96.705814 
L 224.783209 96.705814 
L 224.783209 96.593977 
L 226.266129 96.593977 
L 226.266129 96.482141 
L 227.299428 96.482141 
L 227.299428 96.370304 
L 227.469878 96.370304 
L 227.490262 96.146632 
L 228.248487 96.146632 
L 228.248487 96.034795 
L 228.751952 96.034795 
L 228.751952 95.922959 
L 229.660083 95.922959 
L 229.660083 95.811122 
L 230.203311 95.811122 
L 230.203311 95.699286 
L 230.813168 95.699286 
L 230.813168 95.587449 
L 231.057975 95.587449 
L 231.057975 95.475613 
L 234.549037 95.475613 
L 234.549037 95.363776 
L 234.727304 95.363776 
L 234.727304 95.25194 
L 237.448151 95.25194 
L 237.448151 95.140104 
L 238.556606 95.140104 
L 238.556606 95.028267 
L 238.836482 95.028267 
L 238.836482 94.916431 
L 239.193474 94.916431 
L 239.193474 94.804594 
L 240.215364 94.804594 
L 240.215364 94.692758 
L 241.156188 94.692758 
L 241.156188 94.580921 
L 241.293142 94.580921 
L 241.293142 94.469085 
L 242.39853 94.469085 
L 242.39853 94.357248 
L 243.842705 94.357248 
L 243.842705 94.245412 
L 244.564042 94.245412 
L 244.564042 94.133576 
L 245.792152 94.133576 
L 245.792152 94.021739 
L 248.638126 94.021739 
L 248.638126 93.909903 
L 249.211788 93.909903 
L 249.211788 93.798066 
L 254.65608 93.798066 
L 254.65608 93.68623 
L 255.65494 93.68623 
L 255.65494 93.574393 
L 333.168 93.574393 
L 333.168 93.574393 
" style="fill:none;stroke:#000080;stroke-linecap:square;stroke-width:1.5;"/>
   </g>
   <g id="line2d_44">
    <defs>
     <path d="M 0 6 
C 1.591219 6 3.117479 5.367802 4.242641 4.242641 
C 5.367802 3.117479 6 1.591219 6 0 
C 6 -1.591219 5.367802 -3.117479 4.242641 -4.242641 
C 3.117479 -5.367802 1.591219 -6 0 -6 
C -1.591219 -6 -3.117479 -5.367802 -4.242641 -4.242641 
C -5.367802 -3.117479 -6 -1.591219 -6 0 
C -6 1.591219 -5.367802 3.117479 -4.242641 4.242641 
C -3.117479 5.367802 -1.591219 6 0 6 
z
" id="mdc92eac234" style="stroke:#000080;stroke-width:1.5;"/>
    </defs>
    <g>
     <use style="fill:none;stroke:#000080;stroke-width:1.5;" x="95.115564" xlink:href="#mdc92eac234" y="260.54621"/>
     <use style="fill:none;stroke:#000080;stroke-width:1.5;" x="151.984621" xlink:href="#mdc92eac234" y="193.444342"/>
     <use style="fill:none;stroke:#000080;stroke-width:1.5;" x="200.028746" xlink:href="#mdc92eac234" y="112.810262"/>
     <use style="fill:none;stroke:#000080;stroke-width:1.5;" x="255.65494" xlink:href="#mdc92eac234" y="93.68623"/>
     <use style="fill:none;stroke:#000080;stroke-width:1.5;" x="255.65494" xlink:href="#mdc92eac234" y="93.574393"/>
     <use style="fill:none;stroke:#000080;stroke-width:1.5;" x="333.168" xlink:href="#mdc92eac234" y="93.574393"/>
    </g>
   </g>
   <g id="line2d_45">
    <path style="fill:none;stroke:#000080;stroke-linecap:square;stroke-width:1.5;"/>
    <g/>
   </g>
   <g id="line2d_46">
    <path clip-path="url(#pd1cfc4473b)" d="M 196.440442 119.744122 
" style="fill:none;stroke:#000080;stroke-linecap:square;stroke-width:1.5;"/>
    <defs>
     <path d="M -12 12 
L 12 -12 
M -12 -12 
L 12 12 
" id="m34c3866e4a" style="stroke:#000080;"/>
    </defs>
    <g clip-path="url(#pd1cfc4473b)">
     <use style="fill:#000080;stroke:#000080;" x="196.440442" xlink:href="#m34c3866e4a" y="119.744122"/>
    </g>
   </g>
   <g id="line2d_47">
    <defs>
     <path d="M 0 1.5 
C 0.397805 1.5 0.77937 1.341951 1.06066 1.06066 
C 1.341951 0.77937 1.5 0.397805 1.5 0 
C 1.5 -0.397805 1.341951 -0.77937 1.06066 -1.06066 
C 0.77937 -1.341951 0.397805 -1.5 0 -1.5 
C -0.397805 -1.5 -0.77937 -1.341951 -1.06066 -1.06066 
C -1.341951 -0.77937 -1.5 -0.397805 -1.5 0 
C -1.5 0.397805 -1.341951 0.77937 -1.06066 1.06066 
C -0.77937 1.341951 -0.397805 1.5 0 1.5 
z
" id="m1c058d771b" style="stroke:#ff00ff;"/>
    </defs>
    <g>
     <use style="fill:#ff00ff;stroke:#ff00ff;" x="200.230217" xlink:href="#m1c058d771b" y="152.847711"/>
     <use style="fill:#ff00ff;stroke:#ff00ff;" x="200.230217" xlink:href="#m1c058d771b" y="152.847711"/>
    </g>
   </g>
   <g id="line2d_48">
    <path d="M 37.236359 294.88 
L 37.236359 282.242481 
L 72.979112 282.242481 
L 72.979112 282.130645 
L 81.324327 282.130645 
L 81.324327 282.018808 
L 82.598142 282.018808 
L 82.598142 281.906972 
L 83.784035 281.906972 
L 83.784035 281.795136 
L 85.935418 281.795136 
L 85.935418 281.571463 
L 86.917893 281.571463 
L 86.917893 281.459626 
L 87.847234 281.459626 
L 87.847234 281.235953 
L 88.728896 281.235953 
L 88.728896 280.900444 
L 90.367147 280.900444 
L 90.367147 280.676771 
L 92.564428 280.676771 
L 92.564428 280.564935 
L 95.115564 280.564935 
L 95.115564 280.453098 
L 95.698286 280.453098 
L 95.698286 280.341262 
L 96.261898 280.341262 
L 96.261898 280.117589 
L 96.807615 280.117589 
L 96.807615 279.893916 
L 97.336537 279.893916 
L 97.336537 279.558407 
L 97.849669 279.558407 
L 97.849669 279.222897 
L 98.347925 279.222897 
L 98.347925 278.999224 
L 98.832144 278.999224 
L 98.832144 278.887388 
L 99.303095 278.887388 
L 99.303095 278.775551 
L 99.761485 278.775551 
L 99.761485 278.216369 
L 100.207968 278.216369 
L 100.207968 277.992696 
L 100.643147 277.992696 
L 100.643147 276.874332 
L 101.067579 276.874332 
L 101.067579 275.867804 
L 101.481783 275.867804 
L 101.481783 274.861276 
L 101.88624 274.861276 
L 101.88624 270.947 
L 102.281398 270.947 
L 102.281398 268.822108 
L 102.667676 268.822108 
L 102.667676 268.262925 
L 103.045463 268.262925 
L 103.045463 267.703743 
L 103.415125 267.703743 
L 103.415125 266.473542 
L 104.478679 266.473542 
L 104.478679 266.361706 
L 105.480242 266.361706 
L 105.480242 266.249869 
L 107.612537 266.249869 
L 107.612537 266.026196 
L 107.896653 266.026196 
L 107.896653 265.91436 
L 108.176149 265.91436 
L 108.176149 265.802523 
L 108.451173 265.802523 
L 108.451173 265.690687 
L 110.014853 265.690687 
L 110.014853 265.578851 
L 110.505991 265.578851 
L 110.505991 265.467014 
L 111.217346 265.467014 
L 111.217346 265.355178 
L 112.122219 265.355178 
L 112.122219 265.243341 
L 112.341186 265.243341 
L 112.341186 265.131505 
L 112.770924 265.131505 
L 112.770924 265.019668 
L 112.98183 265.019668 
L 112.98183 264.907832 
L 113.599452 264.907832 
L 113.599452 264.795995 
L 113.800491 264.795995 
L 113.800491 263.677631 
L 114.195649 263.677631 
L 114.195649 263.342122 
L 114.959714 263.342122 
L 114.959714 263.230285 
L 115.145539 263.230285 
L 115.145539 263.118449 
L 115.511269 263.118449 
L 115.511269 262.559266 
L 115.691256 262.559266 
L 115.691256 262.223757 
L 115.869378 262.223757 
L 115.869378 262.111921 
L 116.045673 262.111921 
L 116.045673 261.552738 
L 116.39293 261.552738 
L 116.39293 261.329066 
L 116.73331 261.329066 
L 116.73331 261.217229 
L 116.901005 261.217229 
L 116.901005 260.993556 
L 117.06708 260.993556 
L 117.06708 260.54621 
L 117.231566 260.54621 
L 117.231566 260.210701 
L 117.394493 260.210701 
L 117.394493 259.875192 
L 117.55589 259.875192 
L 117.55589 259.651519 
L 117.715785 259.651519 
L 117.715785 259.427846 
L 117.874207 259.427846 
L 117.874207 259.204173 
L 118.031182 259.204173 
L 118.031182 258.9805 
L 118.186736 258.9805 
L 118.186736 258.756827 
L 118.645127 258.756827 
L 118.645127 258.644991 
L 118.795247 258.644991 
L 118.795247 258.309481 
L 119.09161 258.309481 
L 119.09161 257.862136 
L 119.669433 257.862136 
L 119.669433 257.750299 
L 119.810904 257.750299 
L 119.810904 257.41479 
L 120.0904 257.41479 
L 120.0904 257.302953 
L 120.228462 257.302953 
L 120.228462 257.191117 
L 120.365424 257.191117 
L 120.365424 257.079281 
L 120.501303 257.079281 
L 120.501303 256.855608 
L 120.769881 256.855608 
L 120.769881 256.743771 
L 121.034327 256.743771 
L 121.034327 256.296425 
L 121.42352 256.296425 
L 121.42352 256.184589 
L 121.551317 256.184589 
L 121.551317 256.072752 
L 121.929105 256.072752 
L 121.929105 255.84908 
L 122.420242 255.84908 
L 122.420242 255.737243 
L 122.540864 255.737243 
L 122.540864 255.625407 
L 122.897734 255.625407 
L 122.897734 255.401734 
L 123.247346 255.401734 
L 123.247346 255.289897 
L 123.925932 255.289897 
L 123.925932 255.178061 
L 124.146303 255.178061 
L 124.255437 254.954388 
L 124.363883 254.954388 
L 124.363883 254.842552 
L 124.578744 254.842552 
L 124.578744 254.730715 
L 125.104431 254.730715 
L 125.207666 254.507042 
L 125.412295 254.507042 
L 125.412295 254.283369 
L 125.614517 254.283369 
L 125.614517 254.171533 
L 125.913457 254.171533 
L 126.011959 253.724187 
L 126.109901 253.724187 
L 126.207287 252.829495 
L 126.40042 252.829495 
L 126.496178 252.38215 
L 127.243628 252.38215 
L 127.243628 252.270313 
L 127.515749 252.270313 
L 127.605507 251.711131 
L 127.783629 251.711131 
L 127.872003 251.375622 
L 127.959924 251.375622 
L 127.959924 251.263785 
L 128.13443 251.263785 
L 128.221023 251.040112 
L 128.39291 251.040112 
L 128.39291 250.592767 
L 128.647561 250.592767 
L 128.647561 250.033584 
L 128.815257 250.033584 
L 128.815257 249.921748 
L 128.981332 249.921748 
L 128.981332 249.809911 
L 129.308744 249.809911 
L 129.308744 249.698075 
L 129.470141 249.698075 
L 129.470141 249.586238 
L 129.630036 249.586238 
L 129.630036 249.474402 
L 129.788458 249.474402 
L 129.788458 249.250729 
L 129.945433 249.250729 
L 129.945433 249.138893 
L 130.178239 249.138893 
L 130.255146 248.91522 
L 130.559378 248.91522 
L 130.559378 248.691547 
L 130.709498 248.691547 
L 130.709498 248.467874 
L 131.005861 248.467874 
L 131.005861 248.356038 
L 131.725155 248.356038 
L 131.725155 248.244201 
L 131.865471 248.244201 
L 131.865471 248.132365 
L 132.004651 248.132365 
L 132.073821 247.908692 
L 132.142713 247.908692 
L 132.211331 247.461346 
L 132.415555 247.461346 
L 132.483094 247.125837 
L 132.550368 247.125837 
L 132.550368 247.014 
L 132.684132 247.014 
L 132.750626 246.678491 
L 133.079291 246.678491 
L 133.079291 246.342981 
L 133.209017 246.342981 
L 133.209017 246.007472 
L 133.718347 246.007472 
L 133.718347 245.895636 
L 133.905521 245.895636 
L 133.967462 245.671963 
L 134.029181 245.671963 
L 134.090678 245.224617 
L 134.213018 245.224617 
L 134.273863 244.665435 
L 134.334493 244.665435 
L 134.334493 244.441762 
L 134.455115 244.441762 
L 134.455115 244.329925 
L 134.574897 244.329925 
L 134.634477 243.994416 
L 134.69385 243.994416 
L 134.753019 243.099724 
L 134.811986 243.099724 
L 134.811986 242.987888 
L 134.929315 242.987888 
L 134.929315 242.316869 
L 135.10382 242.316869 
L 135.10382 242.205033 
L 135.21918 242.205033 
L 135.21918 241.310341 
L 135.333772 241.310341 
L 135.333772 240.974832 
L 135.504239 240.974832 
L 135.560688 240.191977 
L 135.673032 240.191977 
L 135.673032 240.08014 
L 135.784647 240.08014 
L 135.895542 239.409122 
L 136.005725 239.409122 
L 136.115208 238.51443 
L 136.223997 238.51443 
L 136.332102 238.178921 
L 136.3859 238.178921 
L 136.492995 237.843411 
L 136.599426 237.843411 
L 136.705203 237.507902 
L 136.810332 237.507902 
L 136.914823 236.725047 
L 137.121917 236.725047 
L 137.224536 236.389538 
L 137.275617 236.389538 
L 137.326546 236.165865 
L 137.427955 236.165865 
L 137.427955 236.054028 
L 137.578954 236.054028 
L 137.628993 235.830355 
L 138.834862 235.830355 
L 138.834862 235.718519 
L 139.066206 235.718519 
L 139.066206 235.606682 
L 139.294478 235.606682 
L 139.339771 235.38301 
L 139.474938 235.38301 
L 139.474938 235.271173 
L 139.69788 235.271173 
L 139.69788 235.159337 
L 140.00522 235.159337 
L 140.092032 234.823827 
L 140.178407 234.823827 
L 140.221432 234.600154 
L 140.392465 234.600154 
L 140.392465 234.488318 
L 140.519632 234.488318 
L 140.60389 234.152809 
L 140.645865 234.152809 
L 140.729508 233.929136 
L 140.812746 233.929136 
L 140.854214 233.705463 
L 141.019094 233.705463 
L 141.019094 233.48179 
L 141.141725 233.48179 
L 141.182408 233.146281 
L 141.303883 233.146281 
L 141.384392 232.587098 
L 141.504453 232.587098 
L 141.504453 232.475262 
L 141.742087 232.475262 
L 141.820574 232.139753 
L 142.092491 232.139753 
L 142.169397 231.804243 
L 142.284116 231.804243 
L 142.360172 231.58057 
L 142.473629 231.58057 
L 142.511282 231.021388 
L 142.661075 231.021388 
L 142.69832 230.797715 
L 142.772569 230.797715 
L 142.846499 230.462206 
L 143.066399 230.462206 
L 143.175303 230.126697 
L 143.211452 230.126697 
L 143.247524 229.791187 
L 143.533413 229.791187 
L 143.568817 229.455678 
L 143.674593 229.455678 
L 143.674593 229.343841 
L 143.814623 229.343841 
L 143.918903 229.008332 
L 143.953522 229.008332 
L 144.022553 228.672823 
L 144.125582 228.672823 
L 144.125582 228.560986 
L 144.295937 228.560986 
L 144.397345 227.889968 
L 144.431015 227.889968 
L 144.531632 227.666295 
L 144.598384 227.666295 
L 144.698028 227.330785 
L 144.797098 227.330785 
L 144.862829 226.995276 
L 144.92831 226.995276 
L 144.993542 226.771603 
L 145.123268 226.771603 
L 145.219924 226.54793 
L 145.252022 226.54793 
L 145.347959 226.324257 
L 145.411621 226.324257 
L 145.411621 226.212421 
L 145.632598 226.212421 
L 145.632598 226.100584 
L 145.819772 226.100584 
L 145.9126 225.765075 
L 145.974208 225.765075 
L 146.035596 225.429566 
L 146.096766 225.429566 
L 146.188114 225.094056 
L 146.218456 225.094056 
L 146.278979 224.758547 
L 146.608101 224.758547 
L 146.637711 224.423038 
L 146.785001 224.423038 
L 146.785001 224.199365 
L 147.018071 224.199365 
L 147.075848 223.863855 
L 147.219446 223.863855 
L 147.305033 223.304673 
L 147.361855 223.304673 
L 147.390196 223.081 
L 147.531203 223.081 
L 147.615255 222.745491 
L 147.726689 222.745491 
L 147.837405 222.298145 
L 147.892497 222.298145 
L 147.974805 221.738963 
L 148.029459 221.738963 
L 148.138248 221.403454 
L 148.165338 221.403454 
L 148.246353 221.179781 
L 148.326988 221.179781 
L 148.407246 220.844271 
L 148.460544 220.844271 
L 148.566647 220.285089 
L 148.593071 220.285089 
L 148.698361 219.390397 
L 148.829074 219.390397 
L 148.907027 219.166725 
L 149.010418 219.166725 
L 149.11319 218.495706 
L 149.138788 218.495706 
L 149.138788 218.383869 
L 149.342206 218.383869 
L 149.342206 218.272033 
L 149.493205 218.272033 
L 149.543245 218.04836 
L 149.66771 218.04836 
L 149.741959 217.712851 
L 149.864999 217.712851 
L 149.962801 217.377341 
L 150.084276 217.377341 
L 150.108469 217.153669 
L 150.228922 217.153669 
L 150.324681 216.706323 
L 150.348537 216.706323 
L 150.443634 216.258977 
L 150.514612 216.258977 
L 150.561769 215.811631 
L 150.655696 215.811631 
L 150.725806 215.140612 
L 150.818844 215.140612 
L 150.818844 215.028776 
L 150.980457 215.028776 
L 151.049258 214.58143 
L 151.094972 214.58143 
L 151.186038 214.245921 
L 151.208729 214.245921 
L 151.254022 213.910412 
L 151.321738 213.910412 
L 151.321738 213.798575 
L 151.501022 213.798575 
L 151.545552 213.463066 
L 151.634268 213.463066 
L 151.634268 213.239393 
L 151.788427 213.239393 
L 151.788427 213.127556 
L 151.984621 213.127556 
L 152.049525 212.903883 
L 152.114184 212.903883 
L 152.221413 212.568374 
L 152.242778 212.568374 
L 152.28543 212.232865 
L 152.412754 212.232865 
L 152.518141 212.009192 
L 152.560116 212.009192 
L 152.581065 211.785519 
L 152.685428 211.785519 
L 152.768465 211.338173 
L 152.809834 211.338173 
L 152.912822 211.002664 
L 152.933346 211.002664 
L 153.015196 210.667155 
L 153.055976 210.667155 
L 153.137246 210.219809 
L 153.318712 210.219809 
L 153.318712 209.996136 
L 153.656339 209.996136 
L 153.656339 209.884299 
L 153.929489 209.884299 
L 154.026001 209.660626 
L 154.102822 209.660626 
L 154.179301 208.989608 
L 154.236437 208.989608 
L 154.331245 208.430426 
L 154.406717 208.430426 
L 154.444329 207.98308 
L 154.519307 207.98308 
L 154.556673 207.535734 
L 154.649736 207.535734 
L 154.68682 207.312061 
L 154.779183 207.312061 
L 154.852717 206.864715 
L 154.907662 206.864715 
L 154.998849 206.417369 
L 155.089554 206.417369 
L 155.089554 206.305533 
L 155.215743 206.305533 
L 155.305314 205.970024 
L 155.376636 205.970024 
L 155.483068 205.299005 
L 155.536037 205.299005 
L 155.641489 204.739823 
L 155.711433 204.739823 
L 155.746298 204.404313 
L 155.885057 204.404313 
L 155.954019 204.180641 
L 156.005559 204.180641 
L 156.074039 203.509622 
L 156.142248 203.509622 
L 156.210188 203.285949 
L 156.27786 203.285949 
L 156.362076 202.61493 
L 156.445883 202.61493 
L 156.512635 202.279421 
L 156.612279 202.279421 
L 156.645366 201.943912 
L 156.77708 201.943912 
L 156.842561 201.496566 
L 156.891508 201.496566 
L 156.907793 200.937384 
L 157.021357 200.937384 
L 157.102017 200.601874 
L 157.134175 200.601874 
L 157.230291 200.266365 
L 157.341751 200.266365 
L 157.452492 200.042692 
L 157.515455 200.042692 
L 157.578187 199.819019 
L 157.671858 199.819019 
L 157.749529 199.48351 
L 157.811415 199.48351 
L 157.888459 199.259837 
L 158.102365 199.259837 
L 158.208328 198.924327 
L 158.268586 198.924327 
L 158.373532 198.588818 
L 158.433215 198.588818 
L 158.522353 198.365145 
L 158.596282 198.365145 
L 158.596282 198.253309 
L 158.713912 198.253309 
L 158.80161 197.58229 
L 158.830743 197.58229 
L 158.917848 197.358617 
L 159.004513 197.358617 
L 159.090744 196.911271 
L 159.162274 196.911271 
L 159.261918 196.463926 
L 159.276106 196.463926 
L 159.304447 196.128416 
L 159.487531 196.128416 
L 159.557432 195.904743 
L 159.654819 195.904743 
L 159.682542 195.68107 
L 159.806748 195.68107 
L 159.916405 195.233725 
L 159.984587 195.233725 
L 160.093118 194.898215 
L 160.214403 194.898215 
L 160.308147 194.562706 
L 160.441186 194.562706 
L 160.546882 194.339033 
L 160.573204 194.339033 
L 160.665017 193.779851 
L 160.795333 193.779851 
L 160.821278 193.556178 
L 160.911779 193.556178 
L 160.963281 193.108832 
L 161.027441 193.108832 
L 161.116866 192.661486 
L 161.256457 192.661486 
L 161.256457 192.437813 
L 161.407456 192.437813 
L 161.482461 192.214141 
L 161.519841 192.214141 
L 161.606747 191.766795 
L 161.631496 191.766795 
L 161.73014 191.431285 
L 162.02272 191.431285 
L 162.11915 190.760267 
L 162.215042 190.760267 
L 162.250864 190.536594 
L 162.393411 190.536594 
L 162.487789 189.977412 
L 162.511303 189.977412 
L 162.511303 189.865575 
L 162.686639 189.865575 
L 162.686639 189.753739 
L 162.917672 189.753739 
L 162.986381 189.530066 
L 163.088932 189.530066 
L 163.145642 189.08272 
L 163.202165 189.08272 
L 163.202165 188.970884 
L 163.359447 188.970884 
L 163.459803 188.635374 
L 163.504218 188.635374 
L 163.614756 188.188028 
L 163.68074 188.188028 
L 163.768325 187.740683 
L 163.833723 187.740683 
L 163.920534 187.51701 
L 163.952976 187.51701 
L 164.017676 187.293337 
L 164.114272 187.293337 
L 164.199681 186.845991 
L 164.284668 186.845991 
L 164.379779 186.622318 
L 164.400844 186.622318 
L 164.400844 186.510482 
L 164.516239 186.510482 
L 164.589272 186.174972 
L 164.630865 186.174972 
L 164.724085 185.727627 
L 164.765354 185.727627 
L 164.785952 185.503954 
L 164.939652 185.503954 
L 164.94985 185.168444 
L 165.091989 185.168444 
L 165.14247 184.721099 
L 165.263022 184.721099 
L 165.37279 184.161916 
L 165.382734 184.161916 
L 165.382734 184.05008 
L 165.511488 184.05008 
L 165.511488 183.938243 
L 165.629489 183.938243 
L 165.629489 183.826407 
L 165.872751 183.826407 
L 165.930625 183.602734 
L 166.007489 183.602734 
L 166.026651 183.379061 
L 166.207636 183.379061 
L 166.292705 183.155388 
L 166.349185 183.155388 
L 166.349185 183.043552 
L 166.50821 183.043552 
L 166.591808 182.48437 
L 167.003805 182.48437 
L 167.094035 182.14886 
L 167.183793 182.14886 
L 167.281988 181.813351 
L 167.317557 181.813351 
L 167.379626 181.366005 
L 167.43265 181.366005 
L 167.503095 180.918659 
L 167.686652 180.918659 
L 167.773376 180.471314 
L 167.851055 180.471314 
L 167.859665 180.247641 
L 167.979745 180.247641 
L 168.047988 179.800295 
L 168.107479 179.800295 
L 168.192111 179.464785 
L 168.225847 179.464785 
L 168.284727 179.129276 
L 168.435212 179.129276 
L 168.435212 179.01744 
L 168.600887 179.01744 
L 168.707725 178.570094 
L 168.975985 178.570094 
L 169.040393 178.234585 
L 169.08854 178.234585 
L 169.160509 178.010912 
L 169.287715 178.010912 
L 169.31937 177.675402 
L 169.429706 177.675402 
L 169.44541 177.451729 
L 169.687014 177.451729 
L 169.717942 177.228057 
L 170.122579 177.228057 
L 170.20538 176.892547 
L 170.295255 176.892547 
L 170.384663 176.668874 
L 170.598831 176.668874 
L 170.672068 176.109692 
L 170.803113 176.109692 
L 170.90435 175.662346 
L 171.12642 175.662346 
L 171.190358 175.438673 
L 171.548248 175.438673 
L 171.624472 175.103164 
L 171.748479 175.103164 
L 171.775915 174.767655 
L 171.96675 174.767655 
L 172.074855 174.208472 
L 172.17559 174.208472 
L 172.17559 174.096636 
L 172.322274 174.096636 
L 172.388537 173.64929 
L 172.520302 173.64929 
L 172.585808 173.425617 
L 172.64455 173.425617 
L 172.677098 173.201944 
L 172.813131 173.201944 
L 172.877532 172.866435 
L 172.96729 172.866435 
L 173.018371 172.530926 
L 173.164388 172.530926 
L 173.258952 172.08358 
L 173.315442 172.08358 
L 173.315442 171.971743 
L 173.427868 171.971743 
L 173.434092 171.748071 
L 173.558109 171.748071 
L 173.558109 171.636234 
L 173.693502 171.636234 
L 173.766905 171.412561 
L 173.839997 171.412561 
L 173.906725 171.077052 
L 173.997303 171.077052 
L 173.997303 170.965215 
L 174.230596 170.965215 
L 174.307662 170.51787 
L 174.396157 170.51787 
L 174.413801 170.18236 
L 174.542643 170.18236 
L 174.542643 170.070524 
L 174.780211 170.070524 
L 174.854857 169.623178 
L 174.894917 169.623178 
L 174.894917 169.511342 
L 175.071212 169.511342 
L 175.172754 169.063996 
L 175.183999 169.063996 
L 175.279289 168.728486 
L 175.340667 168.728486 
L 175.451705 168.281141 
L 175.655254 168.281141 
L 175.655254 168.169304 
L 175.926545 168.169304 
L 176.017817 167.721958 
L 176.087287 167.721958 
L 176.145852 167.386449 
L 176.19892 167.386449 
L 176.309831 166.939103 
L 176.388618 166.939103 
L 176.425262 166.603594 
L 176.503523 166.603594 
L 176.503523 166.491757 
L 176.684757 166.491757 
L 176.777225 166.156248 
L 176.889569 166.156248 
L 176.899746 165.932575 
L 177.02645 165.932575 
L 177.107054 165.708902 
L 177.326783 165.708902 
L 177.420805 165.373393 
L 177.475005 165.373393 
L 177.538839 165.14972 
L 177.617081 165.14972 
L 177.617081 165.037884 
L 177.772503 165.037884 
L 177.777337 164.814211 
L 177.892956 164.814211 
L 177.960044 164.478701 
L 178.079194 164.478701 
L 178.079194 164.366865 
L 178.216382 164.366865 
L 178.272831 164.143192 
L 178.441074 164.143192 
L 178.506059 163.919519 
L 178.556947 163.919519 
L 178.556947 163.807683 
L 178.717869 163.807683 
L 178.795491 163.472173 
L 178.854613 163.472173 
L 178.854613 163.360337 
L 179.133816 163.360337 
L 179.209586 163.024828 
L 179.298302 163.024828 
L 179.298302 162.912991 
L 180.076788 162.912991 
L 180.110583 162.689318 
L 180.411778 162.689318 
L 180.48213 162.353809 
L 180.556308 162.353809 
L 180.642446 162.0183 
L 180.675148 162.0183 
L 180.683313 161.794627 
L 180.797227 161.794627 
L 180.829635 161.570954 
L 181.114614 161.570954 
L 181.225713 161.235444 
L 181.253376 161.235444 
L 181.253376 161.123608 
L 181.782179 161.123608 
L 181.892865 160.452589 
L 181.919475 160.452589 
L 182.021733 160.11708 
L 182.250543 160.11708 
L 182.250543 160.005243 
L 182.461631 160.005243 
L 182.461631 159.893407 
L 182.655606 159.893407 
L 182.702853 159.669734 
L 182.775287 159.669734 
L 182.851016 159.446061 
L 182.908491 159.446061 
L 182.976494 159.222388 
L 183.022868 159.222388 
L 183.132949 158.775043 
L 183.140027 158.775043 
L 183.140027 158.663206 
L 183.469442 158.663206 
L 183.469442 158.55137 
L 183.7244 158.55137 
L 183.7244 158.439533 
L 183.908091 158.439533 
L 183.999206 158.104024 
L 184.299481 158.104024 
L 184.39184 157.768515 
L 185.481626 157.768515 
L 185.481626 157.656678 
L 185.641435 157.656678 
L 185.729919 157.209332 
L 185.941641 157.209332 
L 185.941641 157.097496 
L 186.055493 157.097496 
L 186.055493 156.985659 
L 186.213038 156.985659 
L 186.236694 156.761987 
L 186.325113 156.761987 
L 186.325113 156.65015 
L 186.46856 156.65015 
L 186.46856 156.538314 
L 186.812026 156.538314 
L 186.812026 156.426477 
L 186.954317 156.426477 
L 186.971313 156.202804 
L 187.089817 156.202804 
L 187.089817 156.090968 
L 187.210302 156.090968 
L 187.210302 155.979131 
L 187.732793 155.979131 
L 187.811163 155.419949 
L 188.49568 155.419949 
L 188.49568 155.308113 
L 188.839413 155.308113 
L 188.877466 155.08444 
L 189.066479 155.08444 
L 189.066479 154.972603 
L 189.384336 154.972603 
L 189.384336 154.860767 
L 189.720566 154.860767 
L 189.720566 154.74893 
L 189.886247 154.74893 
L 189.886247 154.637094 
L 190.727955 154.637094 
L 190.727955 154.525258 
L 190.918037 154.525258 
L 190.945021 154.301585 
L 191.192632 154.301585 
L 191.192632 154.189748 
L 191.560739 154.189748 
L 191.621331 153.966075 
L 191.882874 153.966075 
L 191.882874 153.854239 
L 192.00372 153.854239 
L 192.039598 153.630566 
L 192.50958 153.630566 
L 192.50958 153.51873 
L 193.153801 153.51873 
L 193.153801 153.406893 
L 193.465138 153.406893 
L 193.465138 153.295057 
L 195.347209 153.295057 
L 195.347209 153.18322 
L 195.672816 153.18322 
L 195.672816 153.071384 
L 199.255287 153.071384 
L 199.255287 152.959547 
L 200.230217 152.959547 
L 200.230217 152.847711 
L 333.168 152.847711 
L 333.168 152.847711 
" style="fill:none;stroke:#ff00ff;stroke-linecap:square;stroke-width:1.5;"/>
   </g>
   <g id="line2d_49">
    <defs>
     <path d="M -0 8.485281 
L 5.091169 0 
L 0 -8.485281 
L -5.091169 -0 
z
" id="m7263b1174a" style="stroke:#ff00ff;stroke-linejoin:miter;stroke-width:1.5;"/>
    </defs>
    <g>
     <use style="fill:none;stroke:#ff00ff;stroke-linejoin:miter;stroke-width:1.5;" x="104.478679" xlink:href="#m7263b1174a" y="266.361706"/>
     <use style="fill:none;stroke:#ff00ff;stroke-linejoin:miter;stroke-width:1.5;" x="160.441186" xlink:href="#m7263b1174a" y="194.45087"/>
     <use style="fill:none;stroke:#ff00ff;stroke-linejoin:miter;stroke-width:1.5;" x="200.230217" xlink:href="#m7263b1174a" y="152.959547"/>
     <use style="fill:none;stroke:#ff00ff;stroke-linejoin:miter;stroke-width:1.5;" x="200.230217" xlink:href="#m7263b1174a" y="152.847711"/>
     <use style="fill:none;stroke:#ff00ff;stroke-linejoin:miter;stroke-width:1.5;" x="200.230217" xlink:href="#m7263b1174a" y="152.847711"/>
     <use style="fill:none;stroke:#ff00ff;stroke-linejoin:miter;stroke-width:1.5;" x="333.168" xlink:href="#m7263b1174a" y="152.847711"/>
    </g>
   </g>
   <g id="line2d_50">
    <path style="fill:none;stroke:#ff00ff;stroke-linecap:square;stroke-width:1.5;"/>
    <g/>
   </g>
   <g id="line2d_51">
    <path clip-path="url(#pd1cfc4473b)" d="M 129.788458 249.250729 
" style="fill:none;stroke:#ff00ff;stroke-linecap:square;stroke-width:1.5;"/>
    <defs>
     <path d="M -12 12 
L 12 -12 
M -12 -12 
L 12 12 
" id="m4bb09c8ec9" style="stroke:#ff00ff;"/>
    </defs>
    <g clip-path="url(#pd1cfc4473b)">
     <use style="fill:#ff00ff;stroke:#ff00ff;" x="129.788458" xlink:href="#m4bb09c8ec9" y="249.250729"/>
    </g>
   </g>
   <g id="line2d_52">
    <path d="M 333.168 152.847711 
L 363.64328 289.176341 
" style="fill:none;stroke:#ff00ff;stroke-linecap:square;stroke-width:1.5;"/>
    <g>
     <use style="fill:none;stroke:#ff00ff;stroke-linejoin:miter;stroke-width:1.5;" x="333.168" xlink:href="#m7263b1174a" y="152.847711"/>
     <use style="fill:none;stroke:#ff00ff;stroke-linejoin:miter;stroke-width:1.5;" x="363.64328" xlink:href="#m7263b1174a" y="289.176341"/>
    </g>
   </g>
   <g id="line2d_53">
    <path d="M 333.168 93.574393 
L 363.64328 152.288529 
" style="fill:none;stroke:#000080;stroke-linecap:square;stroke-width:1.5;"/>
    <g>
     <use style="fill:none;stroke:#000080;stroke-width:1.5;" x="333.168" xlink:href="#mdc92eac234" y="93.574393"/>
     <use style="fill:none;stroke:#000080;stroke-width:1.5;" x="363.64328" xlink:href="#mdc92eac234" y="152.288529"/>
    </g>
   </g>
   <g id="line2d_54">
    <path d="M 333.168 294.88 
L 333.168 9.697057 
" style="fill:none;stroke:#000000;stroke-linecap:square;stroke-width:1.5;"/>
   </g>
   <g id="patch_3">
    <path d="M 56.12 294.88 
L 56.12 6.845228 
" style="fill:none;stroke:#000000;stroke-linecap:square;stroke-linejoin:miter;stroke-width:0.8;"/>
   </g>
   <g id="patch_4">
    <path d="M 333.168 294.88 
L 333.168 6.845228 
" style="fill:none;stroke:#000000;stroke-linecap:square;stroke-linejoin:miter;stroke-width:0.8;"/>
   </g>
   <g id="patch_5">
    <path d="M 56.12 294.88 
L 333.168 294.88 
" style="fill:none;stroke:#000000;stroke-linecap:square;stroke-linejoin:miter;stroke-width:0.8;"/>
   </g>
   <g id="patch_6">
    <path d="M 56.12 6.845228 
L 333.168 6.845228 
" style="fill:none;stroke:#000000;stroke-linecap:square;stroke-linejoin:miter;stroke-width:0.8;"/>
   </g>
   <g id="text_13">
    <!-- scipy-opt -->
    <defs>
     <path d="M 32.171875 -5.078125 
Q 28.375 -14.84375 24.75 -17.8125 
Q 21.140625 -20.796875 15.09375 -20.796875 
L 7.90625 -20.796875 
L 7.90625 -13.28125 
L 13.1875 -13.28125 
Q 16.890625 -13.28125 18.9375 -11.515625 
Q 21 -9.765625 23.484375 -3.21875 
L 25.09375 0.875 
L 2.984375 54.6875 
L 12.5 54.6875 
L 29.59375 11.921875 
L 46.6875 54.6875 
L 56.203125 54.6875 
z
" id="DejaVuSans-79"/>
    </defs>
    <g transform="translate(369.18424 293.867279)scale(0.17 -0.17)">
     <use xlink:href="#DejaVuSans-73"/>
     <use x="52.099609" xlink:href="#DejaVuSans-63"/>
     <use x="107.080078" xlink:href="#DejaVuSans-69"/>
     <use x="134.863281" xlink:href="#DejaVuSans-70"/>
     <use x="198.339844" xlink:href="#DejaVuSans-79"/>
     <use x="257.503906" xlink:href="#DejaVuSans-2d"/>
     <use x="293.603516" xlink:href="#DejaVuSans-6f"/>
     <use x="354.785156" xlink:href="#DejaVuSans-70"/>
     <use x="418.261719" xlink:href="#DejaVuSans-74"/>
    </g>
   </g>
   <g id="text_14">
    <!-- BFGS ros  -->
    <defs>
     <path d="M 19.671875 34.8125 
L 19.671875 8.109375 
L 35.5 8.109375 
Q 43.453125 8.109375 47.28125 11.40625 
Q 51.125 14.703125 51.125 21.484375 
Q 51.125 28.328125 47.28125 31.5625 
Q 43.453125 34.8125 35.5 34.8125 
z
M 19.671875 64.796875 
L 19.671875 42.828125 
L 34.28125 42.828125 
Q 41.5 42.828125 45.03125 45.53125 
Q 48.578125 48.25 48.578125 53.8125 
Q 48.578125 59.328125 45.03125 62.0625 
Q 41.5 64.796875 34.28125 64.796875 
z
M 9.8125 72.90625 
L 35.015625 72.90625 
Q 46.296875 72.90625 52.390625 68.21875 
Q 58.5 63.53125 58.5 54.890625 
Q 58.5 48.1875 55.375 44.234375 
Q 52.25 40.28125 46.1875 39.3125 
Q 53.46875 37.75 57.5 32.78125 
Q 61.53125 27.828125 61.53125 20.40625 
Q 61.53125 10.640625 54.890625 5.3125 
Q 48.25 0 35.984375 0 
L 9.8125 0 
z
" id="DejaVuSans-42"/>
     <path d="M 59.515625 10.40625 
L 59.515625 29.984375 
L 43.40625 29.984375 
L 43.40625 38.09375 
L 69.28125 38.09375 
L 69.28125 6.78125 
Q 63.578125 2.734375 56.6875 0.65625 
Q 49.8125 -1.421875 42 -1.421875 
Q 24.90625 -1.421875 15.25 8.5625 
Q 5.609375 18.5625 5.609375 36.375 
Q 5.609375 54.25 15.25 64.234375 
Q 24.90625 74.21875 42 74.21875 
Q 49.125 74.21875 55.546875 72.453125 
Q 61.96875 70.703125 67.390625 67.28125 
L 67.390625 56.78125 
Q 61.921875 61.421875 55.765625 63.765625 
Q 49.609375 66.109375 42.828125 66.109375 
Q 29.4375 66.109375 22.71875 58.640625 
Q 16.015625 51.171875 16.015625 36.375 
Q 16.015625 21.625 22.71875 14.15625 
Q 29.4375 6.6875 42.828125 6.6875 
Q 48.046875 6.6875 52.140625 7.59375 
Q 56.25 8.5 59.515625 10.40625 
z
" id="DejaVuSans-47"/>
     <path d="M 53.515625 70.515625 
L 53.515625 60.890625 
Q 47.90625 63.578125 42.921875 64.890625 
Q 37.9375 66.21875 33.296875 66.21875 
Q 25.25 66.21875 20.875 63.09375 
Q 16.5 59.96875 16.5 54.203125 
Q 16.5 49.359375 19.40625 46.890625 
Q 22.3125 44.4375 30.421875 42.921875 
L 36.375 41.703125 
Q 47.40625 39.59375 52.65625 34.296875 
Q 57.90625 29 57.90625 20.125 
Q 57.90625 9.515625 50.796875 4.046875 
Q 43.703125 -1.421875 29.984375 -1.421875 
Q 24.8125 -1.421875 18.96875 -0.25 
Q 13.140625 0.921875 6.890625 3.21875 
L 6.890625 13.375 
Q 12.890625 10.015625 18.65625 8.296875 
Q 24.421875 6.59375 29.984375 6.59375 
Q 38.421875 6.59375 43.015625 9.90625 
Q 47.609375 13.234375 47.609375 19.390625 
Q 47.609375 24.75 44.3125 27.78125 
Q 41.015625 30.8125 33.5 32.328125 
L 27.484375 33.5 
Q 16.453125 35.6875 11.515625 40.375 
Q 6.59375 45.0625 6.59375 53.421875 
Q 6.59375 63.09375 13.40625 68.65625 
Q 20.21875 74.21875 32.171875 74.21875 
Q 37.3125 74.21875 42.625 73.28125 
Q 47.953125 72.359375 53.515625 70.515625 
z
" id="DejaVuSans-53"/>
    </defs>
    <g transform="translate(369.18424 156.979466)scale(0.17 -0.17)">
     <use xlink:href="#DejaVuSans-42"/>
     <use x="68.603516" xlink:href="#DejaVuSans-46"/>
     <use x="126.123047" xlink:href="#DejaVuSans-47"/>
     <use x="203.613281" xlink:href="#DejaVuSans-53"/>
     <use x="267.089844" xlink:href="#DejaVuSans-20"/>
     <use x="298.876953" xlink:href="#DejaVuSans-72"/>
     <use x="339.958984" xlink:href="#DejaVuSans-6f"/>
     <use x="401.140625" xlink:href="#DejaVuSans-73"/>
     <use x="453.240234" xlink:href="#DejaVuSans-20"/>
    </g>
   </g>
   <g id="text_15">
    <!-- best 2009 -->
    <defs>
     <path d="M 48.6875 27.296875 
Q 48.6875 37.203125 44.609375 42.84375 
Q 40.53125 48.484375 33.40625 48.484375 
Q 26.265625 48.484375 22.1875 42.84375 
Q 18.109375 37.203125 18.109375 27.296875 
Q 18.109375 17.390625 22.1875 11.75 
Q 26.265625 6.109375 33.40625 6.109375 
Q 40.53125 6.109375 44.609375 11.75 
Q 48.6875 17.390625 48.6875 27.296875 
z
M 18.109375 46.390625 
Q 20.953125 51.265625 25.265625 53.625 
Q 29.59375 56 35.59375 56 
Q 45.5625 56 51.78125 48.09375 
Q 58.015625 40.1875 58.015625 27.296875 
Q 58.015625 14.40625 51.78125 6.484375 
Q 45.5625 -1.421875 35.59375 -1.421875 
Q 29.59375 -1.421875 25.265625 0.953125 
Q 20.953125 3.328125 18.109375 8.203125 
L 18.109375 0 
L 9.078125 0 
L 9.078125 75.984375 
L 18.109375 75.984375 
z
" id="DejaVuSans-62"/>
     <path d="M 10.984375 1.515625 
L 10.984375 10.5 
Q 14.703125 8.734375 18.5 7.8125 
Q 22.3125 6.890625 25.984375 6.890625 
Q 35.75 6.890625 40.890625 13.453125 
Q 46.046875 20.015625 46.78125 33.40625 
Q 43.953125 29.203125 39.59375 26.953125 
Q 35.25 24.703125 29.984375 24.703125 
Q 19.046875 24.703125 12.671875 31.3125 
Q 6.296875 37.9375 6.296875 49.421875 
Q 6.296875 60.640625 12.9375 67.421875 
Q 19.578125 74.21875 30.609375 74.21875 
Q 43.265625 74.21875 49.921875 64.515625 
Q 56.59375 54.828125 56.59375 36.375 
Q 56.59375 19.140625 48.40625 8.859375 
Q 40.234375 -1.421875 26.421875 -1.421875 
Q 22.703125 -1.421875 18.890625 -0.6875 
Q 15.09375 0.046875 10.984375 1.515625 
z
M 30.609375 32.421875 
Q 37.25 32.421875 41.125 36.953125 
Q 45.015625 41.5 45.015625 49.421875 
Q 45.015625 57.28125 41.125 61.84375 
Q 37.25 66.40625 30.609375 66.40625 
Q 23.96875 66.40625 20.09375 61.84375 
Q 16.21875 57.28125 16.21875 49.421875 
Q 16.21875 41.5 20.09375 36.953125 
Q 23.96875 32.421875 30.609375 32.421875 
z
" id="DejaVuSans-39"/>
    </defs>
    <g transform="translate(369.18424 20.091654)scale(0.17 -0.17)">
     <use xlink:href="#DejaVuSans-62"/>
     <use x="63.476562" xlink:href="#DejaVuSans-65"/>
     <use x="125" xlink:href="#DejaVuSans-73"/>
     <use x="177.099609" xlink:href="#DejaVuSans-74"/>
     <use x="216.308594" xlink:href="#DejaVuSans-20"/>
     <use x="248.095703" xlink:href="#DejaVuSans-32"/>
     <use x="311.71875" xlink:href="#DejaVuSans-30"/>
     <use x="375.341797" xlink:href="#DejaVuSans-30"/>
     <use x="438.964844" xlink:href="#DejaVuSans-39"/>
    </g>
   </g>
   <g id="text_16">
    <!-- bbob f20-f24, 3-D -->
    <defs>
     <path d="M 40.578125 39.3125 
Q 47.65625 37.796875 51.625 33 
Q 55.609375 28.21875 55.609375 21.1875 
Q 55.609375 10.40625 48.1875 4.484375 
Q 40.765625 -1.421875 27.09375 -1.421875 
Q 22.515625 -1.421875 17.65625 -0.515625 
Q 12.796875 0.390625 7.625 2.203125 
L 7.625 11.71875 
Q 11.71875 9.328125 16.59375 8.109375 
Q 21.484375 6.890625 26.8125 6.890625 
Q 36.078125 6.890625 40.9375 10.546875 
Q 45.796875 14.203125 45.796875 21.1875 
Q 45.796875 27.640625 41.28125 31.265625 
Q 36.765625 34.90625 28.71875 34.90625 
L 20.21875 34.90625 
L 20.21875 43.015625 
L 29.109375 43.015625 
Q 36.375 43.015625 40.234375 45.921875 
Q 44.09375 48.828125 44.09375 54.296875 
Q 44.09375 59.90625 40.109375 62.90625 
Q 36.140625 65.921875 28.71875 65.921875 
Q 24.65625 65.921875 20.015625 65.03125 
Q 15.375 64.15625 9.8125 62.3125 
L 9.8125 71.09375 
Q 15.4375 72.65625 20.34375 73.4375 
Q 25.25 74.21875 29.59375 74.21875 
Q 40.828125 74.21875 47.359375 69.109375 
Q 53.90625 64.015625 53.90625 55.328125 
Q 53.90625 49.265625 50.4375 45.09375 
Q 46.96875 40.921875 40.578125 39.3125 
z
" id="DejaVuSans-33"/>
     <path d="M 19.671875 64.796875 
L 19.671875 8.109375 
L 31.59375 8.109375 
Q 46.6875 8.109375 53.6875 14.9375 
Q 60.6875 21.78125 60.6875 36.53125 
Q 60.6875 51.171875 53.6875 57.984375 
Q 46.6875 64.796875 31.59375 64.796875 
z
M 9.8125 72.90625 
L 30.078125 72.90625 
Q 51.265625 72.90625 61.171875 64.09375 
Q 71.09375 55.28125 71.09375 36.53125 
Q 71.09375 17.671875 61.125 8.828125 
Q 51.171875 0 30.078125 0 
L 9.8125 0 
z
" id="DejaVuSans-44"/>
    </defs>
    <g transform="translate(58.89048 17.475982)scale(0.102 -0.102)">
     <use xlink:href="#DejaVuSans-62"/>
     <use x="63.476562" xlink:href="#DejaVuSans-62"/>
     <use x="126.953125" xlink:href="#DejaVuSans-6f"/>
     <use x="188.134766" xlink:href="#DejaVuSans-62"/>
     <use x="251.611328" xlink:href="#DejaVuSans-20"/>
     <use x="283.398438" xlink:href="#DejaVuSans-66"/>
     <use x="318.603516" xlink:href="#DejaVuSans-32"/>
     <use x="382.226562" xlink:href="#DejaVuSans-30"/>
     <use x="445.849609" xlink:href="#DejaVuSans-2d"/>
     <use x="481.933594" xlink:href="#DejaVuSans-66"/>
     <use x="517.138672" xlink:href="#DejaVuSans-32"/>
     <use x="580.761719" xlink:href="#DejaVuSans-34"/>
     <use x="644.384766" xlink:href="#DejaVuSans-2c"/>
     <use x="676.171875" xlink:href="#DejaVuSans-20"/>
     <use x="707.958984" xlink:href="#DejaVuSans-33"/>
     <use x="771.582031" xlink:href="#DejaVuSans-2d"/>
     <use x="807.666016" xlink:href="#DejaVuSans-44"/>
    </g>
    <!-- 51 targets: 100..1e-08 -->
    <defs>
     <path d="M 10.796875 72.90625 
L 49.515625 72.90625 
L 49.515625 64.59375 
L 19.828125 64.59375 
L 19.828125 46.734375 
Q 21.96875 47.46875 24.109375 47.828125 
Q 26.265625 48.1875 28.421875 48.1875 
Q 40.625 48.1875 47.75 41.5 
Q 54.890625 34.8125 54.890625 23.390625 
Q 54.890625 11.625 47.5625 5.09375 
Q 40.234375 -1.421875 26.90625 -1.421875 
Q 22.3125 -1.421875 17.546875 -0.640625 
Q 12.796875 0.140625 7.71875 1.703125 
L 7.71875 11.625 
Q 12.109375 9.234375 16.796875 8.0625 
Q 21.484375 6.890625 26.703125 6.890625 
Q 35.15625 6.890625 40.078125 11.328125 
Q 45.015625 15.765625 45.015625 23.390625 
Q 45.015625 31 40.078125 35.4375 
Q 35.15625 39.890625 26.703125 39.890625 
Q 22.75 39.890625 18.8125 39.015625 
Q 14.890625 38.140625 10.796875 36.28125 
z
" id="DejaVuSans-35"/>
     <path d="M 11.71875 12.40625 
L 22.015625 12.40625 
L 22.015625 0 
L 11.71875 0 
z
M 11.71875 51.703125 
L 22.015625 51.703125 
L 22.015625 39.3125 
L 11.71875 39.3125 
z
" id="DejaVuSans-3a"/>
    </defs>
    <g transform="translate(58.89048 28.89775)scale(0.102 -0.102)">
     <use xlink:href="#DejaVuSans-35"/>
     <use x="63.623047" xlink:href="#DejaVuSans-31"/>
     <use x="127.246094" xlink:href="#DejaVuSans-20"/>
     <use x="159.033203" xlink:href="#DejaVuSans-74"/>
     <use x="198.242188" xlink:href="#DejaVuSans-61"/>
     <use x="259.521484" xlink:href="#DejaVuSans-72"/>
     <use x="300.619141" xlink:href="#DejaVuSans-67"/>
     <use x="364.095703" xlink:href="#DejaVuSans-65"/>
     <use x="425.619141" xlink:href="#DejaVuSans-74"/>
     <use x="464.828125" xlink:href="#DejaVuSans-73"/>
     <use x="516.927734" xlink:href="#DejaVuSans-3a"/>
     <use x="550.619141" xlink:href="#DejaVuSans-20"/>
     <use x="582.40625" xlink:href="#DejaVuSans-31"/>
     <use x="646.029297" xlink:href="#DejaVuSans-30"/>
     <use x="709.652344" xlink:href="#DejaVuSans-30"/>
     <use x="773.275391" xlink:href="#DejaVuSans-2e"/>
     <use x="805.0625" xlink:href="#DejaVuSans-2e"/>
     <use x="836.849609" xlink:href="#DejaVuSans-31"/>
     <use x="900.472656" xlink:href="#DejaVuSans-65"/>
     <use x="961.996094" xlink:href="#DejaVuSans-2d"/>
     <use x="998.080078" xlink:href="#DejaVuSans-30"/>
     <use x="1061.703125" xlink:href="#DejaVuSans-38"/>
    </g>
    <!-- 15 instances -->
    <g transform="translate(58.89048 40.319519)scale(0.102 -0.102)">
     <use xlink:href="#DejaVuSans-31"/>
     <use x="63.623047" xlink:href="#DejaVuSans-35"/>
     <use x="127.246094" xlink:href="#DejaVuSans-20"/>
     <use x="159.033203" xlink:href="#DejaVuSans-69"/>
     <use x="186.816406" xlink:href="#DejaVuSans-6e"/>
     <use x="250.195312" xlink:href="#DejaVuSans-73"/>
     <use x="302.294922" xlink:href="#DejaVuSans-74"/>
     <use x="341.503906" xlink:href="#DejaVuSans-61"/>
     <use x="402.783203" xlink:href="#DejaVuSans-6e"/>
     <use x="466.162109" xlink:href="#DejaVuSans-63"/>
     <use x="521.142578" xlink:href="#DejaVuSans-65"/>
     <use x="582.666016" xlink:href="#DejaVuSans-73"/>
    </g>
   </g>
   <g id="text_17">
    <!-- v0.0.0 -->
    <g style="fill:#808080;" transform="translate(178.96275 289.919965)scale(0.1 -0.1)">
     <use xlink:href="#DejaVuSans-76"/>
     <use x="59.179688" xlink:href="#DejaVuSans-30"/>
     <use x="122.802734" xlink:href="#DejaVuSans-2e"/>
     <use x="154.589844" xlink:href="#DejaVuSans-30"/>
     <use x="218.212891" xlink:href="#DejaVuSans-2e"/>
     <use x="250" xlink:href="#DejaVuSans-30"/>
    </g>
   </g>
  </g>
 </g>
 <defs>
  <clipPath id="pd1cfc4473b">
   <rect height="288.034772" width="277.048" x="56.12" y="6.845228"/>
  </clipPath>
 </defs>
</svg>
