<?xml version="1.0" encoding="utf-8" standalone="no"?>
<!DOCTYPE svg PUBLIC "-//W3C//DTD SVG 1.1//EN"
  "http://www.w3.org/Graphics/SVG/1.1/DTD/svg11.dtd">
<!-- Created with matplotlib (http://matplotlib.org/) -->
<svg height="345pt" version="1.1" viewBox="0 0 460 345" width="460pt" xmlns="http://www.w3.org/2000/svg" xmlns:xlink="http://www.w3.org/1999/xlink">
 <defs>
  <style type="text/css">
*{stroke-linecap:butt;stroke-linejoin:round;}
  </style>
 </defs>
 <g id="figure_1">
  <g id="patch_1">
   <path d="M 0 345.6 
L 460.8 345.6 
L 460.8 0 
L 0 0 
z
" style="fill:#ffffff;"/>
  </g>
  <g id="axes_1">
   <g id="patch_2">
    <path d="M 59.72 291.28 
L 450.672 291.28 
L 450.672 6.845228 
L 59.72 6.845228 
z
" style="fill:#ffffff;"/>
   </g>
   <g id="line2d_1"/>
   <g id="line2d_2"/>
   <g id="line2d_3"/>
   <g id="line2d_4">
    <path clip-path="url(#pf057f31a60)" d="M 276.198132 291.28 
L 276.214152 283.770171 
L 276.932839 283.770171 
L 276.932839 280.015257 
L 277.447596 280.015257 
L 277.447596 276.260342 
L 277.786907 276.260342 
L 277.786907 272.505428 
L 278.103816 272.505428 
L 278.132129 264.995599 
L 278.220685 264.995599 
L 278.220685 261.240684 
L 278.772891 261.240684 
L 278.811712 249.975941 
L 280.069117 249.975941 
L 280.069117 246.221026 
L 280.492823 246.221026 
L 280.492823 242.466112 
L 281.176589 242.466112 
L 281.176589 238.711197 
L 281.294861 238.711197 
L 281.294861 234.956283 
L 282.008945 234.956283 
L 282.008945 231.201368 
L 282.484087 231.201368 
L 282.484087 227.446454 
L 283.174277 227.446454 
L 283.174277 223.691539 
L 283.332099 223.691539 
L 283.332099 219.936625 
L 283.74553 219.936625 
L 283.74553 216.18171 
L 284.1177 216.18171 
L 284.1177 212.426796 
L 285.654811 212.426796 
L 285.684701 204.916967 
L 286.856744 204.916967 
L 286.856744 201.162052 
L 287.813435 201.162052 
L 287.813435 197.407138 
L 288.903957 197.407138 
L 288.956652 189.897309 
L 289.5108 189.897309 
L 289.5108 186.142394 
L 289.781722 186.142394 
L 289.781722 182.38748 
L 292.247625 182.38748 
L 292.247625 178.632565 
L 294.115667 178.632565 
L 294.115667 174.877651 
L 294.710973 174.877651 
L 294.710973 171.122736 
L 294.863164 171.122736 
L 294.863164 167.367822 
L 295.718883 167.367822 
L 295.718883 163.612907 
L 296.068585 163.612907 
L 296.068585 159.857993 
L 297.009372 159.857993 
L 297.009372 156.103079 
L 297.197219 156.103079 
L 297.203497 148.59325 
L 297.403742 148.59325 
L 297.403742 144.838335 
L 297.729608 144.838335 
L 297.800552 137.328506 
L 298.093978 137.328506 
L 298.093978 133.573592 
L 298.427102 133.573592 
L 298.463346 126.063763 
L 298.819588 126.063763 
L 298.819588 122.308848 
L 299.41614 122.308848 
L 299.41614 118.553934 
L 300.770798 118.553934 
L 300.770798 114.799019 
L 302.795413 114.799019 
L 302.795413 111.044105 
L 309.074121 111.044105 
L 309.074121 107.28919 
L 309.527531 107.28919 
L 309.618168 99.779361 
L 309.936588 99.779361 
L 309.936588 96.024447 
L 312.308878 96.024447 
L 312.308878 92.269532 
L 317.833053 92.269532 
L 317.833053 88.514618 
L 321.719406 88.514618 
L 321.719406 84.759703 
L 325.19064 84.759703 
L 325.19064 81.004789 
L 325.58061 81.004789 
L 325.58061 77.249874 
L 325.797838 77.249874 
L 325.797838 73.49496 
L 325.926789 73.49496 
L 325.926789 69.740045 
L 326.596001 69.740045 
L 326.596001 65.985131 
L 327.568208 65.985131 
L 327.568208 62.230216 
L 342.330775 62.230216 
L 342.330775 58.475302 
L 352.33655 58.475302 
L 352.33655 54.720387 
L 354.343968 54.720387 
L 354.343968 50.965473 
L 354.343968 50.965473 
L 450.672 50.965473 
L 450.672 50.965473 
" style="fill:none;stroke:#f5deb3;stroke-linecap:square;stroke-width:1.5;"/>
   </g>
   <g id="line2d_5">
    <path clip-path="url(#pf057f31a60)" d="M 270.024139 291.28 
L 270.024139 287.525086 
L 270.219917 287.525086 
L 270.219917 283.770171 
L 270.550757 283.770171 
L 270.550757 280.015257 
L 271.19778 280.015257 
L 271.19778 276.260342 
L 271.89395 276.260342 
L 271.89395 272.505428 
L 275.201455 272.505428 
L 275.201455 268.750513 
L 276.938713 268.750513 
L 276.938713 264.995599 
L 278.058462 264.995599 
L 278.058462 261.240684 
L 280.871202 261.240684 
L 280.871202 257.48577 
L 281.102664 257.48577 
L 281.102664 253.730855 
L 285.89019 253.730855 
L 285.89019 249.975941 
L 286.568781 249.975941 
L 286.568781 246.221026 
L 288.326833 246.221026 
L 288.326833 242.466112 
L 289.763292 242.466112 
L 289.763292 238.711197 
L 290.956416 238.711197 
L 290.956416 234.956283 
L 338.382348 234.956283 
L 338.382348 231.201368 
L 341.466094 231.201368 
L 341.466094 227.446454 
L 342.066369 227.446454 
L 342.066369 223.691539 
L 342.080216 223.691539 
L 342.080216 219.936625 
L 342.296805 219.936625 
L 342.296805 216.18171 
L 342.447972 216.18171 
L 342.447972 212.426796 
L 343.137313 212.426796 
L 343.137313 208.671881 
L 343.6594 208.671881 
L 343.6594 204.916967 
L 343.878056 204.916967 
L 343.878056 201.162052 
L 344.031371 201.162052 
L 344.031371 197.407138 
L 344.804763 197.407138 
L 344.804763 193.652223 
L 345.39643 193.652223 
L 345.39643 189.897309 
L 346.176214 189.897309 
L 346.176214 186.142394 
L 346.287862 186.142394 
L 346.287862 182.38748 
L 348.096012 182.38748 
L 348.096012 178.632565 
L 356.367804 178.632565 
L 356.367804 174.877651 
L 374.264439 174.877651 
L 374.264439 171.122736 
L 377.020358 171.122736 
L 377.020358 167.367822 
L 377.934943 167.367822 
L 377.934943 163.612907 
L 379.769499 163.612907 
L 379.769499 159.857993 
L 380.802842 159.857993 
L 380.802842 156.103079 
L 380.908527 156.103079 
L 380.908527 152.348164 
L 381.951069 152.348164 
L 381.951069 148.59325 
L 382.225715 148.59325 
L 382.225715 144.838335 
L 382.44501 144.838335 
L 382.44501 141.083421 
L 382.545247 141.083421 
L 382.545247 137.328506 
L 382.548012 137.328506 
L 382.548012 133.573592 
L 387.735837 133.573592 
L 387.735837 129.818677 
L 388.00874 129.818677 
L 388.00874 126.063763 
L 388.58862 126.063763 
L 388.58862 122.308848 
L 393.130068 122.308848 
L 393.130068 118.553934 
L 393.130068 118.553934 
L 393.130068 118.553934 
L 450.672 118.553934 
" style="fill:none;stroke:#f5deb3;stroke-linecap:square;stroke-width:1.5;"/>
   </g>
   <g id="line2d_6"/>
   <g id="line2d_7">
    <path clip-path="url(#pf057f31a60)" d="M 275.41763 291.28 
L 275.520064 280.015257 
L 275.699565 280.015257 
L 275.699565 276.260342 
L 275.985113 276.260342 
L 275.985113 272.505428 
L 276.166068 272.505428 
L 276.166068 268.750513 
L 276.399806 268.750513 
L 276.399806 264.995599 
L 276.556679 264.995599 
L 276.592316 257.48577 
L 276.97002 257.48577 
L 277.044254 246.221026 
L 277.106635 246.221026 
L 277.106635 242.466112 
L 278.425129 242.466112 
L 278.425129 238.711197 
L 284.541396 238.711197 
L 284.541396 234.956283 
L 284.684999 234.956283 
L 284.684999 231.201368 
L 284.840235 231.201368 
L 284.840235 227.446454 
L 285.222824 227.446454 
L 285.33023 219.936625 
L 285.358912 219.936625 
L 285.358912 216.18171 
L 285.710085 216.18171 
L 285.710085 212.426796 
L 286.418722 212.426796 
L 286.418722 208.671881 
L 286.846658 208.671881 
L 286.846658 204.916967 
L 287.732212 204.916967 
L 287.795248 197.407138 
L 288.330962 197.407138 
L 288.330962 193.652223 
L 288.780666 193.652223 
L 288.780666 189.897309 
L 288.976896 189.897309 
L 288.976896 186.142394 
L 290.167645 186.142394 
L 290.167645 182.38748 
L 290.582414 182.38748 
L 290.614495 174.877651 
L 291.686727 174.877651 
L 291.686727 171.122736 
L 291.887109 171.122736 
L 291.887109 167.367822 
L 292.381485 167.367822 
L 292.381485 163.612907 
L 292.800159 163.612907 
L 292.800159 159.857993 
L 293.897395 159.857993 
L 293.897395 156.103079 
L 294.021148 156.103079 
L 294.021148 152.348164 
L 294.364473 152.348164 
L 294.364473 148.59325 
L 295.744065 148.59325 
L 295.744065 144.838335 
L 296.381296 144.838335 
L 296.381296 141.083421 
L 296.66443 141.083421 
L 296.66443 137.328506 
L 298.062412 137.328506 
L 298.062412 133.573592 
L 298.442209 133.573592 
L 298.488492 126.063763 
L 299.739855 126.063763 
L 299.739855 122.308848 
L 300.414689 122.308848 
L 300.414689 118.553934 
L 308.129121 118.553934 
L 308.129121 114.799019 
L 314.650395 114.799019 
L 314.650395 111.044105 
L 319.275312 111.044105 
L 319.275312 107.28919 
L 322.447455 107.28919 
L 322.447455 103.534276 
L 330.163446 103.534276 
L 330.163446 99.779361 
L 330.716732 99.779361 
L 330.716732 96.024447 
L 331.243918 96.024447 
L 331.243918 92.269532 
L 332.243816 92.269532 
L 332.243816 88.514618 
L 332.75071 88.514618 
L 332.75071 84.759703 
L 332.924165 84.759703 
L 332.924165 81.004789 
L 343.090512 81.004789 
L 343.090512 77.249874 
L 346.009405 77.249874 
L 346.009405 73.49496 
L 346.296576 73.49496 
L 346.296576 69.740045 
L 346.636396 69.740045 
L 346.636396 65.985131 
L 461.8 65.985131 
L 461.8 65.985131 
" style="fill:none;stroke:#f5deb3;stroke-linecap:square;stroke-width:1.5;"/>
   </g>
   <g id="line2d_8"/>
   <g id="line2d_9">
    <path clip-path="url(#pf057f31a60)" d="M 274.002037 291.28 
L 274.002037 287.525086 
L 274.279531 287.525086 
L 274.279531 283.770171 
L 274.425854 283.770171 
L 274.425854 280.015257 
L 274.573625 280.015257 
L 274.573625 276.260342 
L 274.865069 276.260342 
L 274.865069 272.505428 
L 275.035776 272.505428 
L 275.035776 268.750513 
L 275.339562 268.750513 
L 275.339562 264.995599 
L 275.452494 264.995599 
L 275.452494 261.240684 
L 275.583411 261.240684 
L 275.689393 249.975941 
L 275.746316 249.975941 
L 275.760531 238.711197 
L 276.111887 238.711197 
L 276.111887 234.956283 
L 278.344631 234.956283 
L 278.344631 231.201368 
L 281.475717 231.201368 
L 281.475717 227.446454 
L 281.864695 227.446454 
L 281.925157 216.18171 
L 282.112542 216.18171 
L 282.189191 208.671881 
L 282.336975 208.671881 
L 282.376712 197.407138 
L 282.46099 197.407138 
L 282.46099 193.652223 
L 282.573021 193.652223 
L 282.573021 189.897309 
L 283.056213 189.897309 
L 283.056213 186.142394 
L 283.232342 186.142394 
L 283.232342 182.38748 
L 283.562612 182.38748 
L 283.562612 178.632565 
L 283.674077 178.632565 
L 283.674077 174.877651 
L 283.944764 174.877651 
L 283.944764 171.122736 
L 284.758867 171.122736 
L 284.758867 167.367822 
L 284.91528 167.367822 
L 284.91528 163.612907 
L 285.692169 163.612907 
L 285.692169 159.857993 
L 286.450832 159.857993 
L 286.450832 156.103079 
L 286.967482 156.103079 
L 286.967482 152.348164 
L 287.097868 152.348164 
L 287.097868 148.59325 
L 287.348561 148.59325 
L 287.39535 141.083421 
L 287.4647 141.083421 
L 287.4647 137.328506 
L 287.761644 137.328506 
L 287.761644 133.573592 
L 288.008653 133.573592 
L 288.086412 122.308848 
L 288.303422 122.308848 
L 288.340596 114.799019 
L 288.491605 114.799019 
L 288.491605 111.044105 
L 288.656904 111.044105 
L 288.656904 107.28919 
L 288.834918 107.28919 
L 288.834918 103.534276 
L 292.086258 103.534276 
L 292.118106 96.024447 
L 295.077271 96.024447 
L 295.077271 92.269532 
L 295.433942 92.269532 
L 295.433942 88.514618 
L 298.847441 88.514618 
L 298.847441 84.759703 
L 300.836316 84.759703 
L 300.898902 77.249874 
L 304.063902 77.249874 
L 304.063902 73.49496 
L 305.290213 73.49496 
L 305.290213 69.740045 
L 308.387041 69.740045 
L 308.387041 65.985131 
L 310.916618 65.985131 
L 310.916618 62.230216 
L 314.583227 62.230216 
L 314.583227 58.475302 
L 315.967016 58.475302 
L 315.967016 54.720387 
L 316.131165 54.720387 
L 316.131165 50.965473 
L 316.635888 50.965473 
L 316.635888 47.210558 
L 316.878209 47.210558 
L 316.878209 43.455644 
L 326.95114 43.455644 
L 326.95114 39.700729 
L 335.11515 39.700729 
L 335.11515 35.945815 
L 345.485888 35.945815 
L 345.485888 32.1909 
L 347.565359 32.1909 
L 347.565359 28.435986 
L 348.124192 28.435986 
L 348.124192 24.681072 
L 348.437495 24.681072 
L 348.437495 20.926157 
L 349.088807 20.926157 
L 349.088807 17.171243 
L 350.866195 17.171243 
L 350.866195 13.416328 
L 351.43818 13.416328 
L 351.43818 9.661414 
L 351.43818 9.661414 
L 450.672 9.661414 
L 450.672 9.661414 
" style="fill:none;stroke:#f5deb3;stroke-linecap:square;stroke-width:1.5;"/>
   </g>
   <g id="line2d_10"/>
   <g id="line2d_11">
    <path clip-path="url(#pf057f31a60)" d="M 437.773768 291.28 
L 437.773768 287.525086 
L 461.8 287.525086 
" style="fill:none;stroke:#f5deb3;stroke-linecap:square;stroke-width:1.5;"/>
   </g>
   <g id="line2d_12">
    <path clip-path="url(#pf057f31a60)" d="M 341.689465 291.28 
L 341.689465 287.525086 
L 341.689465 287.525086 
L 341.689465 287.525086 
L 450.672 287.525086 
" style="fill:none;stroke:#f5deb3;stroke-linecap:square;stroke-width:1.5;"/>
   </g>
   <g id="line2d_13"/>
   <g id="line2d_14"/>
   <g id="line2d_15"/>
   <g id="line2d_16">
    <path clip-path="url(#pf057f31a60)" style="fill:none;stroke:#f5deb3;stroke-linecap:square;stroke-width:1.5;"/>
   </g>
   <g id="line2d_17">
    <path clip-path="url(#pf057f31a60)" d="M 369.974879 291.28 
L 369.974879 287.525086 
L 372.319875 287.525086 
L 372.319875 283.770171 
L 376.017752 283.770171 
L 376.017752 280.015257 
L 376.18924 280.015257 
L 376.18924 276.260342 
L 376.685417 276.260342 
L 376.685417 272.505428 
L 376.728928 272.505428 
L 376.728928 268.750513 
L 376.874526 268.750513 
L 376.874526 264.995599 
L 377.429443 264.995599 
L 377.429443 261.240684 
L 377.767724 261.240684 
L 377.767724 257.48577 
L 378.109447 257.48577 
L 378.109447 253.730855 
L 378.526741 253.730855 
L 378.526741 249.975941 
L 378.68967 249.975941 
L 378.68967 246.221026 
L 379.244605 246.221026 
L 379.244605 242.466112 
L 379.272654 242.466112 
L 379.272654 238.711197 
L 379.322898 238.711197 
L 379.322898 234.956283 
L 379.559842 234.956283 
L 379.559842 231.201368 
L 379.868625 231.201368 
L 379.868625 227.446454 
L 380.346707 227.446454 
L 380.346707 223.691539 
L 381.138545 223.691539 
L 381.138545 219.936625 
L 382.015106 219.936625 
L 382.015106 216.18171 
L 382.047153 216.18171 
L 382.047153 212.426796 
L 383.231312 212.426796 
L 383.231312 208.671881 
L 384.264678 208.671881 
L 384.264678 204.916967 
L 384.591939 204.916967 
L 384.591939 201.162052 
L 384.827865 201.162052 
L 384.827865 197.407138 
L 385.32817 197.407138 
L 385.32817 193.652223 
L 386.154614 193.652223 
L 386.154614 189.897309 
L 386.250669 189.897309 
L 386.250669 186.142394 
L 386.305743 186.142394 
L 386.305743 182.38748 
L 386.440071 182.38748 
L 386.440071 178.632565 
L 387.090157 178.632565 
L 387.090157 174.877651 
L 387.288536 174.877651 
L 387.288536 171.122736 
L 387.435627 171.122736 
L 387.435627 167.367822 
L 387.541024 167.367822 
L 387.541024 163.612907 
L 388.848977 163.612907 
L 388.848977 159.857993 
L 389.079052 159.857993 
L 389.079052 156.103079 
L 389.11793 156.103079 
L 389.11793 152.348164 
L 389.390291 152.348164 
L 389.390291 148.59325 
L 389.83911 148.59325 
L 389.83911 144.838335 
L 389.885248 144.838335 
L 389.885248 141.083421 
L 390.141204 141.083421 
L 390.141204 137.328506 
L 390.848375 137.328506 
L 390.848375 133.573592 
L 390.986614 133.573592 
L 390.986614 129.818677 
L 391.715328 129.818677 
L 391.715328 126.063763 
L 393.019964 126.063763 
L 393.019964 122.308848 
L 393.376705 122.308848 
L 393.376705 118.553934 
L 397.85814 118.553934 
L 397.85814 114.799019 
L 398.900003 114.799019 
L 398.900003 111.044105 
L 399.035354 111.044105 
L 399.035354 107.28919 
L 399.040785 107.28919 
L 399.040785 103.534276 
L 399.246981 103.534276 
L 399.246981 99.779361 
L 399.363699 99.779361 
L 399.363699 96.024447 
L 400.324145 96.024447 
L 400.324145 92.269532 
L 400.715711 92.269532 
L 400.715711 88.514618 
L 400.964604 88.514618 
L 400.964604 84.759703 
L 401.237438 84.759703 
L 401.237438 81.004789 
L 402.524822 81.004789 
L 402.524822 77.249874 
L 402.871286 77.249874 
L 402.871286 73.49496 
L 403.036195 73.49496 
L 403.036195 69.740045 
L 403.374622 69.740045 
L 403.374622 65.985131 
L 403.374622 65.985131 
L 403.374622 65.985131 
L 450.672 65.985131 
" style="fill:none;stroke:#f5deb3;stroke-linecap:square;stroke-width:1.5;"/>
   </g>
   <g id="line2d_18">
    <path clip-path="url(#pf057f31a60)" d="M 255.972788 291.28 
L 255.972788 287.525086 
L 260.852588 287.525086 
L 260.852588 283.770171 
L 262.062638 283.770171 
L 262.062638 280.015257 
L 262.807543 280.015257 
L 262.807543 276.260342 
L 263.064108 276.260342 
L 263.064108 272.505428 
L 264.533453 272.505428 
L 264.533453 268.750513 
L 268.67513 268.750513 
L 268.67513 264.995599 
L 272.325801 264.995599 
L 272.325801 261.240684 
L 272.514902 261.240684 
L 272.514902 257.48577 
L 272.557521 257.48577 
L 272.557521 253.730855 
L 276.515052 253.730855 
L 276.515052 249.975941 
L 280.225121 249.975941 
L 280.225121 246.221026 
L 282.502223 246.221026 
L 282.502223 242.466112 
L 284.999307 242.466112 
L 284.999307 238.711197 
L 291.134867 238.711197 
L 291.134867 234.956283 
L 332.185346 234.956283 
L 332.185346 231.201368 
L 332.80782 231.201368 
L 332.80782 227.446454 
L 334.010229 227.446454 
L 334.010229 223.691539 
L 334.236052 223.691539 
L 334.236052 219.936625 
L 335.49647 219.936625 
L 335.49647 216.18171 
L 335.679408 216.18171 
L 335.679408 212.426796 
L 335.861635 212.426796 
L 335.861635 208.671881 
L 336.235242 208.671881 
L 336.235242 204.916967 
L 336.281524 204.916967 
L 336.281524 201.162052 
L 336.690786 201.162052 
L 336.690786 197.407138 
L 337.077864 197.407138 
L 337.077864 193.652223 
L 337.17741 193.652223 
L 337.17741 189.897309 
L 337.292404 189.897309 
L 337.292404 186.142394 
L 337.333871 186.142394 
L 337.333871 182.38748 
L 337.612167 182.38748 
L 337.612167 178.632565 
L 337.665504 178.632565 
L 337.665504 174.877651 
L 337.954626 174.877651 
L 337.954626 171.122736 
L 338.15401 171.122736 
L 338.15401 167.367822 
L 338.175237 167.367822 
L 338.175237 163.612907 
L 338.904917 163.612907 
L 338.904917 159.857993 
L 338.929112 159.857993 
L 338.929112 156.103079 
L 342.34969 156.103079 
L 342.34969 152.348164 
L 346.39524 152.348164 
L 346.39524 148.59325 
L 355.296904 148.59325 
L 355.296904 144.838335 
L 360.743605 144.838335 
L 360.743605 141.083421 
L 361.191933 141.083421 
L 361.191933 137.328506 
L 363.014833 137.328506 
L 363.014833 133.573592 
L 376.220066 133.573592 
L 376.220066 129.818677 
L 391.895795 129.818677 
L 391.895795 126.063763 
L 400.90793 126.063763 
L 400.90793 122.308848 
L 400.90793 122.308848 
L 400.90793 122.308848 
L 450.672 122.308848 
" style="fill:none;stroke:#f5deb3;stroke-linecap:square;stroke-width:1.5;"/>
   </g>
   <g id="line2d_19"/>
   <g id="line2d_20"/>
   <g id="line2d_21"/>
   <g id="line2d_22"/>
   <g id="line2d_23"/>
   <g id="line2d_24">
    <path clip-path="url(#pf057f31a60)" d="M 290.442169 291.28 
L 290.442169 287.525086 
L 291.510057 287.525086 
L 291.510057 283.770171 
L 292.236648 283.770171 
L 292.236648 280.015257 
L 292.783372 280.015257 
L 292.783372 276.260342 
L 293.264335 276.260342 
L 293.264335 272.505428 
L 294.913736 272.505428 
L 294.913736 268.750513 
L 295.429521 268.750513 
L 295.429521 264.995599 
L 295.747349 264.995599 
L 295.79765 257.48577 
L 296.394171 257.48577 
L 296.394171 253.730855 
L 297.047239 253.730855 
L 297.047239 249.975941 
L 297.979787 249.975941 
L 298.021636 242.466112 
L 298.46234 242.466112 
L 298.474413 234.956283 
L 299.058543 234.956283 
L 299.058543 231.201368 
L 299.865356 231.201368 
L 299.914458 223.691539 
L 300.091951 223.691539 
L 300.105344 216.18171 
L 300.929684 216.18171 
L 300.929684 212.426796 
L 301.169334 212.426796 
L 301.169334 208.671881 
L 301.661607 208.671881 
L 301.758078 197.407138 
L 302.033165 197.407138 
L 302.033165 193.652223 
L 302.735513 193.652223 
L 302.81125 186.142394 
L 302.864863 186.142394 
L 302.864863 182.38748 
L 303.198599 182.38748 
L 303.198599 178.632565 
L 303.35294 178.632565 
L 303.35294 174.877651 
L 304.481759 174.877651 
L 304.481759 171.122736 
L 304.928908 171.122736 
L 304.928908 167.367822 
L 305.241292 167.367822 
L 305.241292 163.612907 
L 305.39027 163.612907 
L 305.490827 156.103079 
L 305.793846 156.103079 
L 305.793846 152.348164 
L 307.307591 152.348164 
L 307.319836 144.838335 
L 307.773446 144.838335 
L 307.773446 141.083421 
L 308.499376 141.083421 
L 308.499376 137.328506 
L 309.269939 137.328506 
L 309.318169 129.818677 
L 309.69078 129.818677 
L 309.69078 126.063763 
L 310.090065 126.063763 
L 310.090065 122.308848 
L 314.964832 122.308848 
L 314.964832 118.553934 
L 315.167768 118.553934 
L 315.167768 114.799019 
L 315.66813 114.799019 
L 315.66813 111.044105 
L 315.899596 111.044105 
L 315.909571 103.534276 
L 316.441985 103.534276 
L 316.441985 99.779361 
L 316.606044 99.779361 
L 316.606044 96.024447 
L 317.059898 96.024447 
L 317.059898 92.269532 
L 317.658447 92.269532 
L 317.683448 84.759703 
L 318.505421 84.759703 
L 318.505421 81.004789 
L 318.629173 81.004789 
L 318.651818 73.49496 
L 320.046924 73.49496 
L 320.046924 69.740045 
L 323.637914 69.740045 
L 323.637914 65.985131 
L 330.8992 65.985131 
L 330.8992 62.230216 
L 338.113286 62.230216 
L 338.113286 58.475302 
L 338.645124 58.475302 
L 338.645124 54.720387 
L 340.957392 54.720387 
L 341.006031 47.210558 
L 341.445324 47.210558 
L 341.445324 43.455644 
L 341.65799 43.455644 
L 341.65799 39.700729 
L 341.948828 39.700729 
L 341.948828 35.945815 
L 342.220435 35.945815 
L 342.230056 28.435986 
L 342.536428 28.435986 
L 342.536428 24.681072 
L 345.546015 24.681072 
L 345.546015 20.926157 
L 345.729229 20.926157 
L 345.729229 17.171243 
L 346.420373 17.171243 
L 346.420373 13.416328 
L 347.069981 13.416328 
L 347.069981 9.661414 
L 347.069981 9.661414 
L 450.672 9.661414 
L 450.672 9.661414 
" style="fill:none;stroke:#f5deb3;stroke-linecap:square;stroke-width:1.5;"/>
   </g>
   <g id="line2d_25"/>
   <g id="line2d_26">
    <path clip-path="url(#pf057f31a60)" d="M 294.543299 291.28 
L 294.543299 287.525086 
L 308.196959 287.525086 
L 308.196959 283.770171 
L 308.266142 283.770171 
L 308.266142 280.015257 
L 312.232718 280.015257 
L 312.232718 276.260342 
L 314.371656 276.260342 
L 314.371656 272.505428 
L 314.891655 272.505428 
L 314.891655 268.750513 
L 315.99687 268.750513 
L 315.99687 264.995599 
L 316.149806 264.995599 
L 316.149806 261.240684 
L 316.192289 261.240684 
L 316.192289 257.48577 
L 316.558351 257.48577 
L 316.558351 253.730855 
L 316.647932 253.730855 
L 316.647932 249.975941 
L 317.131724 249.975941 
L 317.131724 246.221026 
L 317.218607 246.221026 
L 317.218607 242.466112 
L 317.2704 242.466112 
L 317.2704 238.711197 
L 317.327164 238.711197 
L 317.327164 234.956283 
L 317.670672 234.956283 
L 317.670672 231.201368 
L 317.766647 231.201368 
L 317.766647 227.446454 
L 317.852396 227.446454 
L 317.852396 223.691539 
L 318.394778 223.691539 
L 318.394778 219.936625 
L 318.958128 219.936625 
L 318.958128 216.18171 
L 319.414589 216.18171 
L 319.414589 212.426796 
L 319.421958 212.426796 
L 319.421958 208.671881 
L 319.480851 208.671881 
L 319.480851 204.916967 
L 320.283012 204.916967 
L 320.283012 201.162052 
L 320.361838 201.162052 
L 320.361838 197.407138 
L 320.406285 197.407138 
L 320.406285 193.652223 
L 320.508739 193.652223 
L 320.508739 189.897309 
L 321.447173 189.897309 
L 321.447173 186.142394 
L 321.77671 186.142394 
L 321.77671 182.38748 
L 323.341818 182.38748 
L 323.341818 178.632565 
L 323.738009 178.632565 
L 323.738009 174.877651 
L 324.584838 174.877651 
L 324.584838 171.122736 
L 326.395966 171.122736 
L 326.395966 167.367822 
L 326.472658 167.367822 
L 326.472658 163.612907 
L 331.166777 163.612907 
L 331.166777 159.857993 
L 334.17274 159.857993 
L 334.17274 156.103079 
L 340.986584 156.103079 
L 340.986584 152.348164 
L 345.259411 152.348164 
L 345.259411 148.59325 
L 347.145555 148.59325 
L 347.145555 144.838335 
L 348.404647 144.838335 
L 348.404647 141.083421 
L 348.473954 141.083421 
L 348.473954 137.328506 
L 349.658938 137.328506 
L 349.658938 133.573592 
L 349.725611 133.573592 
L 349.725611 129.818677 
L 349.941405 129.818677 
L 349.941405 126.063763 
L 351.268568 126.063763 
L 351.268568 122.308848 
L 357.484289 122.308848 
L 357.484289 118.553934 
L 357.811613 118.553934 
L 357.811613 114.799019 
L 358.287769 114.799019 
L 358.287769 111.044105 
L 364.555598 111.044105 
L 364.555598 107.28919 
L 365.202588 107.28919 
L 365.202588 103.534276 
L 365.825859 103.534276 
L 365.825859 99.779361 
L 366.339542 99.779361 
L 366.339542 96.024447 
L 376.280541 96.024447 
L 376.280541 92.269532 
L 382.973297 92.269532 
L 382.973297 88.514618 
L 410.546857 88.514618 
L 410.546857 84.759703 
L 414.458695 84.759703 
L 414.458695 81.004789 
L 415.385115 81.004789 
L 415.385115 77.249874 
L 417.714886 77.249874 
L 417.714886 73.49496 
L 424.593257 73.49496 
L 424.593257 69.740045 
L 424.593257 69.740045 
L 424.593257 69.740045 
L 450.672 69.740045 
" style="fill:none;stroke:#f5deb3;stroke-linecap:square;stroke-width:1.5;"/>
   </g>
   <g id="line2d_27"/>
   <g id="line2d_28">
    <path clip-path="url(#pf057f31a60)" d="M 274.200794 291.28 
L 274.258269 283.770171 
L 274.370796 283.770171 
L 274.370796 280.015257 
L 274.638851 280.015257 
L 274.685061 272.505428 
L 274.913041 272.505428 
L 274.913041 268.750513 
L 275.039928 268.750513 
L 275.039928 264.995599 
L 275.57116 264.995599 
L 275.669038 257.48577 
L 275.711767 257.48577 
L 275.711767 253.730855 
L 276.294133 253.730855 
L 276.294133 249.975941 
L 276.604186 249.975941 
L 276.604186 246.221026 
L 277.048157 246.221026 
L 277.11053 234.956283 
L 277.240736 234.956283 
L 277.240736 231.201368 
L 277.48804 231.201368 
L 277.48804 227.446454 
L 277.939107 227.446454 
L 277.939107 223.691539 
L 278.337133 223.691539 
L 278.337133 219.936625 
L 278.469971 219.936625 
L 278.469971 216.18171 
L 279.127932 216.18171 
L 279.127932 212.426796 
L 279.383057 212.426796 
L 279.383057 208.671881 
L 279.799663 208.671881 
L 279.799663 204.916967 
L 280.086883 204.916967 
L 280.086883 201.162052 
L 280.559403 201.162052 
L 280.559403 197.407138 
L 281.594597 197.407138 
L 281.628483 189.897309 
L 281.941932 189.897309 
L 281.941932 186.142394 
L 282.057443 186.142394 
L 282.057443 182.38748 
L 282.640382 182.38748 
L 282.640382 178.632565 
L 283.436353 178.632565 
L 283.471564 171.122736 
L 283.979425 171.122736 
L 284.045494 156.103079 
L 284.849434 156.103079 
L 284.849434 152.348164 
L 285.054189 152.348164 
L 285.054189 148.59325 
L 285.377014 148.59325 
L 285.377014 144.838335 
L 285.644343 144.838335 
L 285.644343 141.083421 
L 286.004282 141.083421 
L 286.014634 133.573592 
L 286.930133 133.573592 
L 286.930133 129.818677 
L 287.376926 129.818677 
L 287.376926 126.063763 
L 288.54771 126.063763 
L 288.54771 122.308848 
L 295.113004 122.308848 
L 295.113004 118.553934 
L 295.491352 118.553934 
L 295.491352 114.799019 
L 296.349087 114.799019 
L 296.349087 111.044105 
L 296.738808 111.044105 
L 296.738808 107.28919 
L 296.90184 107.28919 
L 296.90184 103.534276 
L 297.551047 103.534276 
L 297.551047 99.779361 
L 297.780004 99.779361 
L 297.780004 96.024447 
L 298.175297 96.024447 
L 298.175297 92.269532 
L 298.743865 92.269532 
L 298.743865 88.514618 
L 298.960596 88.514618 
L 298.960596 84.759703 
L 299.957722 84.759703 
L 299.957722 81.004789 
L 301.624215 81.004789 
L 301.624215 77.249874 
L 301.74808 77.249874 
L 301.74808 73.49496 
L 304.750458 73.49496 
L 304.750458 69.740045 
L 305.534521 69.740045 
L 305.534521 65.985131 
L 308.838439 65.985131 
L 308.838439 62.230216 
L 309.945761 62.230216 
L 309.945761 58.475302 
L 314.496313 58.475302 
L 314.496313 54.720387 
L 315.235531 54.720387 
L 315.235531 50.965473 
L 316.096769 50.965473 
L 316.164361 43.455644 
L 316.226584 43.455644 
L 316.226584 39.700729 
L 316.583643 39.700729 
L 316.583643 35.945815 
L 316.704081 35.945815 
L 316.704081 32.1909 
L 317.946181 32.1909 
L 317.995173 24.681072 
L 319.703879 24.681072 
L 319.703879 20.926157 
L 320.688395 20.926157 
L 320.688395 17.171243 
L 321.811924 17.171243 
L 321.811924 13.416328 
L 322.630033 13.416328 
L 322.630033 9.661414 
L 322.630033 9.661414 
L 450.672 9.661414 
L 450.672 9.661414 
" style="fill:none;stroke:#f5deb3;stroke-linecap:square;stroke-width:1.5;"/>
   </g>
   <g id="line2d_29"/>
   <g id="line2d_30"/>
   <g id="matplotlib.axis_1">
    <g id="xtick_1">
     <g id="line2d_31">
      <path clip-path="url(#pf057f31a60)" d="M 59.72 291.28 
L 59.72 6.845228 
" style="fill:none;stroke:#b0b0b0;stroke-linecap:square;stroke-width:0.8;"/>
     </g>
     <g id="line2d_32">
      <defs>
       <path d="M 0 0 
L 0 3.5 
" id="m231175b284" style="stroke:#000000;stroke-width:0.8;"/>
      </defs>
      <g>
       <use style="stroke:#000000;stroke-width:0.8;" x="59.72" xlink:href="#m231175b284" y="291.28"/>
      </g>
     </g>
     <g id="text_1">
      <!-- 0 -->
      <defs>
       <path d="M 31.78125 66.40625 
Q 24.171875 66.40625 20.328125 58.90625 
Q 16.5 51.421875 16.5 36.375 
Q 16.5 21.390625 20.328125 13.890625 
Q 24.171875 6.390625 31.78125 6.390625 
Q 39.453125 6.390625 43.28125 13.890625 
Q 47.125 21.390625 47.125 36.375 
Q 47.125 51.421875 43.28125 58.90625 
Q 39.453125 66.40625 31.78125 66.40625 
z
M 31.78125 74.21875 
Q 44.046875 74.21875 50.515625 64.515625 
Q 56.984375 54.828125 56.984375 36.375 
Q 56.984375 17.96875 50.515625 8.265625 
Q 44.046875 -1.421875 31.78125 -1.421875 
Q 19.53125 -1.421875 13.0625 8.265625 
Q 6.59375 17.96875 6.59375 36.375 
Q 6.59375 54.828125 13.0625 64.515625 
Q 19.53125 74.21875 31.78125 74.21875 
z
" id="DejaVuSans-30"/>
      </defs>
      <g transform="translate(53.3575 313.476875)scale(0.2 -0.2)">
       <use xlink:href="#DejaVuSans-30"/>
      </g>
     </g>
    </g>
    <g id="xtick_2">
     <g id="line2d_33">
      <path clip-path="url(#pf057f31a60)" d="M 208.653972 291.28 
L 208.653972 6.845228 
" style="fill:none;stroke:#b0b0b0;stroke-linecap:square;stroke-width:0.8;"/>
     </g>
     <g id="line2d_34">
      <g>
       <use style="stroke:#000000;stroke-width:0.8;" x="208.653972" xlink:href="#m231175b284" y="291.28"/>
      </g>
     </g>
     <g id="text_2">
      <!-- 2 -->
      <defs>
       <path d="M 19.1875 8.296875 
L 53.609375 8.296875 
L 53.609375 0 
L 7.328125 0 
L 7.328125 8.296875 
Q 12.9375 14.109375 22.625 23.890625 
Q 32.328125 33.6875 34.8125 36.53125 
Q 39.546875 41.84375 41.421875 45.53125 
Q 43.3125 49.21875 43.3125 52.78125 
Q 43.3125 58.59375 39.234375 62.25 
Q 35.15625 65.921875 28.609375 65.921875 
Q 23.96875 65.921875 18.8125 64.3125 
Q 13.671875 62.703125 7.8125 59.421875 
L 7.8125 69.390625 
Q 13.765625 71.78125 18.9375 73 
Q 24.125 74.21875 28.421875 74.21875 
Q 39.75 74.21875 46.484375 68.546875 
Q 53.21875 62.890625 53.21875 53.421875 
Q 53.21875 48.921875 51.53125 44.890625 
Q 49.859375 40.875 45.40625 35.40625 
Q 44.1875 33.984375 37.640625 27.21875 
Q 31.109375 20.453125 19.1875 8.296875 
z
" id="DejaVuSans-32"/>
      </defs>
      <g transform="translate(202.291472 313.476875)scale(0.2 -0.2)">
       <use xlink:href="#DejaVuSans-32"/>
      </g>
     </g>
    </g>
    <g id="xtick_3">
     <g id="line2d_35">
      <path clip-path="url(#pf057f31a60)" d="M 357.587945 291.28 
L 357.587945 6.845228 
" style="fill:none;stroke:#b0b0b0;stroke-linecap:square;stroke-width:0.8;"/>
     </g>
     <g id="line2d_36">
      <g>
       <use style="stroke:#000000;stroke-width:0.8;" x="357.587945" xlink:href="#m231175b284" y="291.28"/>
      </g>
     </g>
     <g id="text_3">
      <!-- 4 -->
      <defs>
       <path d="M 37.796875 64.3125 
L 12.890625 25.390625 
L 37.796875 25.390625 
z
M 35.203125 72.90625 
L 47.609375 72.90625 
L 47.609375 25.390625 
L 58.015625 25.390625 
L 58.015625 17.1875 
L 47.609375 17.1875 
L 47.609375 0 
L 37.796875 0 
L 37.796875 17.1875 
L 4.890625 17.1875 
L 4.890625 26.703125 
z
" id="DejaVuSans-34"/>
      </defs>
      <g transform="translate(351.225445 313.476875)scale(0.2 -0.2)">
       <use xlink:href="#DejaVuSans-34"/>
      </g>
     </g>
    </g>
    <g id="xtick_4">
     <g id="line2d_37">
      <path clip-path="url(#pf057f31a60)" d="M 82.136797 291.28 
L 82.136797 6.845228 
" style="fill:none;stroke:#b0b0b0;stroke-linecap:square;stroke-width:0.8;"/>
     </g>
     <g id="line2d_38">
      <defs>
       <path d="M 0 0 
L 0 2 
" id="me246ef0169" style="stroke:#000000;stroke-width:0.6;"/>
      </defs>
      <g>
       <use style="stroke:#000000;stroke-width:0.6;" x="82.136797" xlink:href="#me246ef0169" y="291.28"/>
      </g>
     </g>
    </g>
    <g id="xtick_5">
     <g id="line2d_39">
      <path clip-path="url(#pf057f31a60)" d="M 95.249782 291.28 
L 95.249782 6.845228 
" style="fill:none;stroke:#b0b0b0;stroke-linecap:square;stroke-width:0.8;"/>
     </g>
     <g id="line2d_40">
      <g>
       <use style="stroke:#000000;stroke-width:0.6;" x="95.249782" xlink:href="#me246ef0169" y="291.28"/>
      </g>
     </g>
    </g>
    <g id="xtick_6">
     <g id="line2d_41">
      <path clip-path="url(#pf057f31a60)" d="M 104.553593 291.28 
L 104.553593 6.845228 
" style="fill:none;stroke:#b0b0b0;stroke-linecap:square;stroke-width:0.8;"/>
     </g>
     <g id="line2d_42">
      <g>
       <use style="stroke:#000000;stroke-width:0.6;" x="104.553593" xlink:href="#me246ef0169" y="291.28"/>
      </g>
     </g>
    </g>
    <g id="xtick_7">
     <g id="line2d_43">
      <path clip-path="url(#pf057f31a60)" d="M 111.77019 291.28 
L 111.77019 6.845228 
" style="fill:none;stroke:#b0b0b0;stroke-linecap:square;stroke-width:0.8;"/>
     </g>
     <g id="line2d_44">
      <g>
       <use style="stroke:#000000;stroke-width:0.6;" x="111.77019" xlink:href="#me246ef0169" y="291.28"/>
      </g>
     </g>
    </g>
    <g id="xtick_8">
     <g id="line2d_45">
      <path clip-path="url(#pf057f31a60)" d="M 117.666578 291.28 
L 117.666578 6.845228 
" style="fill:none;stroke:#b0b0b0;stroke-linecap:square;stroke-width:0.8;"/>
     </g>
     <g id="line2d_46">
      <g>
       <use style="stroke:#000000;stroke-width:0.6;" x="117.666578" xlink:href="#me246ef0169" y="291.28"/>
      </g>
     </g>
    </g>
    <g id="xtick_9">
     <g id="line2d_47">
      <path clip-path="url(#pf057f31a60)" d="M 122.651904 291.28 
L 122.651904 6.845228 
" style="fill:none;stroke:#b0b0b0;stroke-linecap:square;stroke-width:0.8;"/>
     </g>
     <g id="line2d_48">
      <g>
       <use style="stroke:#000000;stroke-width:0.6;" x="122.651904" xlink:href="#me246ef0169" y="291.28"/>
      </g>
     </g>
    </g>
    <g id="xtick_10">
     <g id="line2d_49">
      <path clip-path="url(#pf057f31a60)" d="M 126.97039 291.28 
L 126.97039 6.845228 
" style="fill:none;stroke:#b0b0b0;stroke-linecap:square;stroke-width:0.8;"/>
     </g>
     <g id="line2d_50">
      <g>
       <use style="stroke:#000000;stroke-width:0.6;" x="126.97039" xlink:href="#me246ef0169" y="291.28"/>
      </g>
     </g>
    </g>
    <g id="xtick_11">
     <g id="line2d_51">
      <path clip-path="url(#pf057f31a60)" d="M 130.779564 291.28 
L 130.779564 6.845228 
" style="fill:none;stroke:#b0b0b0;stroke-linecap:square;stroke-width:0.8;"/>
     </g>
     <g id="line2d_52">
      <g>
       <use style="stroke:#000000;stroke-width:0.6;" x="130.779564" xlink:href="#me246ef0169" y="291.28"/>
      </g>
     </g>
    </g>
    <g id="xtick_12">
     <g id="line2d_53">
      <path clip-path="url(#pf057f31a60)" d="M 156.603783 291.28 
L 156.603783 6.845228 
" style="fill:none;stroke:#b0b0b0;stroke-linecap:square;stroke-width:0.8;"/>
     </g>
     <g id="line2d_54">
      <g>
       <use style="stroke:#000000;stroke-width:0.6;" x="156.603783" xlink:href="#me246ef0169" y="291.28"/>
      </g>
     </g>
    </g>
    <g id="xtick_13">
     <g id="line2d_55">
      <path clip-path="url(#pf057f31a60)" d="M 169.716768 291.28 
L 169.716768 6.845228 
" style="fill:none;stroke:#b0b0b0;stroke-linecap:square;stroke-width:0.8;"/>
     </g>
     <g id="line2d_56">
      <g>
       <use style="stroke:#000000;stroke-width:0.6;" x="169.716768" xlink:href="#me246ef0169" y="291.28"/>
      </g>
     </g>
    </g>
    <g id="xtick_14">
     <g id="line2d_57">
      <path clip-path="url(#pf057f31a60)" d="M 179.020579 291.28 
L 179.020579 6.845228 
" style="fill:none;stroke:#b0b0b0;stroke-linecap:square;stroke-width:0.8;"/>
     </g>
     <g id="line2d_58">
      <g>
       <use style="stroke:#000000;stroke-width:0.6;" x="179.020579" xlink:href="#me246ef0169" y="291.28"/>
      </g>
     </g>
    </g>
    <g id="xtick_15">
     <g id="line2d_59">
      <path clip-path="url(#pf057f31a60)" d="M 186.237176 291.28 
L 186.237176 6.845228 
" style="fill:none;stroke:#b0b0b0;stroke-linecap:square;stroke-width:0.8;"/>
     </g>
     <g id="line2d_60">
      <g>
       <use style="stroke:#000000;stroke-width:0.6;" x="186.237176" xlink:href="#me246ef0169" y="291.28"/>
      </g>
     </g>
    </g>
    <g id="xtick_16">
     <g id="line2d_61">
      <path clip-path="url(#pf057f31a60)" d="M 192.133565 291.28 
L 192.133565 6.845228 
" style="fill:none;stroke:#b0b0b0;stroke-linecap:square;stroke-width:0.8;"/>
     </g>
     <g id="line2d_62">
      <g>
       <use style="stroke:#000000;stroke-width:0.6;" x="192.133565" xlink:href="#me246ef0169" y="291.28"/>
      </g>
     </g>
    </g>
    <g id="xtick_17">
     <g id="line2d_63">
      <path clip-path="url(#pf057f31a60)" d="M 197.11889 291.28 
L 197.11889 6.845228 
" style="fill:none;stroke:#b0b0b0;stroke-linecap:square;stroke-width:0.8;"/>
     </g>
     <g id="line2d_64">
      <g>
       <use style="stroke:#000000;stroke-width:0.6;" x="197.11889" xlink:href="#me246ef0169" y="291.28"/>
      </g>
     </g>
    </g>
    <g id="xtick_18">
     <g id="line2d_65">
      <path clip-path="url(#pf057f31a60)" d="M 201.437376 291.28 
L 201.437376 6.845228 
" style="fill:none;stroke:#b0b0b0;stroke-linecap:square;stroke-width:0.8;"/>
     </g>
     <g id="line2d_66">
      <g>
       <use style="stroke:#000000;stroke-width:0.6;" x="201.437376" xlink:href="#me246ef0169" y="291.28"/>
      </g>
     </g>
    </g>
    <g id="xtick_19">
     <g id="line2d_67">
      <path clip-path="url(#pf057f31a60)" d="M 205.24655 291.28 
L 205.24655 6.845228 
" style="fill:none;stroke:#b0b0b0;stroke-linecap:square;stroke-width:0.8;"/>
     </g>
     <g id="line2d_68">
      <g>
       <use style="stroke:#000000;stroke-width:0.6;" x="205.24655" xlink:href="#me246ef0169" y="291.28"/>
      </g>
     </g>
    </g>
    <g id="xtick_20">
     <g id="line2d_69">
      <path clip-path="url(#pf057f31a60)" d="M 231.070769 291.28 
L 231.070769 6.845228 
" style="fill:none;stroke:#b0b0b0;stroke-linecap:square;stroke-width:0.8;"/>
     </g>
     <g id="line2d_70">
      <g>
       <use style="stroke:#000000;stroke-width:0.6;" x="231.070769" xlink:href="#me246ef0169" y="291.28"/>
      </g>
     </g>
    </g>
    <g id="xtick_21">
     <g id="line2d_71">
      <path clip-path="url(#pf057f31a60)" d="M 244.183754 291.28 
L 244.183754 6.845228 
" style="fill:none;stroke:#b0b0b0;stroke-linecap:square;stroke-width:0.8;"/>
     </g>
     <g id="line2d_72">
      <g>
       <use style="stroke:#000000;stroke-width:0.6;" x="244.183754" xlink:href="#me246ef0169" y="291.28"/>
      </g>
     </g>
    </g>
    <g id="xtick_22">
     <g id="line2d_73">
      <path clip-path="url(#pf057f31a60)" d="M 253.487565 291.28 
L 253.487565 6.845228 
" style="fill:none;stroke:#b0b0b0;stroke-linecap:square;stroke-width:0.8;"/>
     </g>
     <g id="line2d_74">
      <g>
       <use style="stroke:#000000;stroke-width:0.6;" x="253.487565" xlink:href="#me246ef0169" y="291.28"/>
      </g>
     </g>
    </g>
    <g id="xtick_23">
     <g id="line2d_75">
      <path clip-path="url(#pf057f31a60)" d="M 260.704162 291.28 
L 260.704162 6.845228 
" style="fill:none;stroke:#b0b0b0;stroke-linecap:square;stroke-width:0.8;"/>
     </g>
     <g id="line2d_76">
      <g>
       <use style="stroke:#000000;stroke-width:0.6;" x="260.704162" xlink:href="#me246ef0169" y="291.28"/>
      </g>
     </g>
    </g>
    <g id="xtick_24">
     <g id="line2d_77">
      <path clip-path="url(#pf057f31a60)" d="M 266.600551 291.28 
L 266.600551 6.845228 
" style="fill:none;stroke:#b0b0b0;stroke-linecap:square;stroke-width:0.8;"/>
     </g>
     <g id="line2d_78">
      <g>
       <use style="stroke:#000000;stroke-width:0.6;" x="266.600551" xlink:href="#me246ef0169" y="291.28"/>
      </g>
     </g>
    </g>
    <g id="xtick_25">
     <g id="line2d_79">
      <path clip-path="url(#pf057f31a60)" d="M 271.585876 291.28 
L 271.585876 6.845228 
" style="fill:none;stroke:#b0b0b0;stroke-linecap:square;stroke-width:0.8;"/>
     </g>
     <g id="line2d_80">
      <g>
       <use style="stroke:#000000;stroke-width:0.6;" x="271.585876" xlink:href="#me246ef0169" y="291.28"/>
      </g>
     </g>
    </g>
    <g id="xtick_26">
     <g id="line2d_81">
      <path clip-path="url(#pf057f31a60)" d="M 275.904362 291.28 
L 275.904362 6.845228 
" style="fill:none;stroke:#b0b0b0;stroke-linecap:square;stroke-width:0.8;"/>
     </g>
     <g id="line2d_82">
      <g>
       <use style="stroke:#000000;stroke-width:0.6;" x="275.904362" xlink:href="#me246ef0169" y="291.28"/>
      </g>
     </g>
    </g>
    <g id="xtick_27">
     <g id="line2d_83">
      <path clip-path="url(#pf057f31a60)" d="M 279.713536 291.28 
L 279.713536 6.845228 
" style="fill:none;stroke:#b0b0b0;stroke-linecap:square;stroke-width:0.8;"/>
     </g>
     <g id="line2d_84">
      <g>
       <use style="stroke:#000000;stroke-width:0.6;" x="279.713536" xlink:href="#me246ef0169" y="291.28"/>
      </g>
     </g>
    </g>
    <g id="xtick_28">
     <g id="line2d_85">
      <path clip-path="url(#pf057f31a60)" d="M 305.537755 291.28 
L 305.537755 6.845228 
" style="fill:none;stroke:#b0b0b0;stroke-linecap:square;stroke-width:0.8;"/>
     </g>
     <g id="line2d_86">
      <g>
       <use style="stroke:#000000;stroke-width:0.6;" x="305.537755" xlink:href="#me246ef0169" y="291.28"/>
      </g>
     </g>
    </g>
    <g id="xtick_29">
     <g id="line2d_87">
      <path clip-path="url(#pf057f31a60)" d="M 318.65074 291.28 
L 318.65074 6.845228 
" style="fill:none;stroke:#b0b0b0;stroke-linecap:square;stroke-width:0.8;"/>
     </g>
     <g id="line2d_88">
      <g>
       <use style="stroke:#000000;stroke-width:0.6;" x="318.65074" xlink:href="#me246ef0169" y="291.28"/>
      </g>
     </g>
    </g>
    <g id="xtick_30">
     <g id="line2d_89">
      <path clip-path="url(#pf057f31a60)" d="M 327.954552 291.28 
L 327.954552 6.845228 
" style="fill:none;stroke:#b0b0b0;stroke-linecap:square;stroke-width:0.8;"/>
     </g>
     <g id="line2d_90">
      <g>
       <use style="stroke:#000000;stroke-width:0.6;" x="327.954552" xlink:href="#me246ef0169" y="291.28"/>
      </g>
     </g>
    </g>
    <g id="xtick_31">
     <g id="line2d_91">
      <path clip-path="url(#pf057f31a60)" d="M 335.171148 291.28 
L 335.171148 6.845228 
" style="fill:none;stroke:#b0b0b0;stroke-linecap:square;stroke-width:0.8;"/>
     </g>
     <g id="line2d_92">
      <g>
       <use style="stroke:#000000;stroke-width:0.6;" x="335.171148" xlink:href="#me246ef0169" y="291.28"/>
      </g>
     </g>
    </g>
    <g id="xtick_32">
     <g id="line2d_93">
      <path clip-path="url(#pf057f31a60)" d="M 341.067537 291.28 
L 341.067537 6.845228 
" style="fill:none;stroke:#b0b0b0;stroke-linecap:square;stroke-width:0.8;"/>
     </g>
     <g id="line2d_94">
      <g>
       <use style="stroke:#000000;stroke-width:0.6;" x="341.067537" xlink:href="#me246ef0169" y="291.28"/>
      </g>
     </g>
    </g>
    <g id="xtick_33">
     <g id="line2d_95">
      <path clip-path="url(#pf057f31a60)" d="M 346.052863 291.28 
L 346.052863 6.845228 
" style="fill:none;stroke:#b0b0b0;stroke-linecap:square;stroke-width:0.8;"/>
     </g>
     <g id="line2d_96">
      <g>
       <use style="stroke:#000000;stroke-width:0.6;" x="346.052863" xlink:href="#me246ef0169" y="291.28"/>
      </g>
     </g>
    </g>
    <g id="xtick_34">
     <g id="line2d_97">
      <path clip-path="url(#pf057f31a60)" d="M 350.371348 291.28 
L 350.371348 6.845228 
" style="fill:none;stroke:#b0b0b0;stroke-linecap:square;stroke-width:0.8;"/>
     </g>
     <g id="line2d_98">
      <g>
       <use style="stroke:#000000;stroke-width:0.6;" x="350.371348" xlink:href="#me246ef0169" y="291.28"/>
      </g>
     </g>
    </g>
    <g id="xtick_35">
     <g id="line2d_99">
      <path clip-path="url(#pf057f31a60)" d="M 354.180522 291.28 
L 354.180522 6.845228 
" style="fill:none;stroke:#b0b0b0;stroke-linecap:square;stroke-width:0.8;"/>
     </g>
     <g id="line2d_100">
      <g>
       <use style="stroke:#000000;stroke-width:0.6;" x="354.180522" xlink:href="#me246ef0169" y="291.28"/>
      </g>
     </g>
    </g>
    <g id="xtick_36">
     <g id="line2d_101">
      <path clip-path="url(#pf057f31a60)" d="M 380.004741 291.28 
L 380.004741 6.845228 
" style="fill:none;stroke:#b0b0b0;stroke-linecap:square;stroke-width:0.8;"/>
     </g>
     <g id="line2d_102">
      <g>
       <use style="stroke:#000000;stroke-width:0.6;" x="380.004741" xlink:href="#me246ef0169" y="291.28"/>
      </g>
     </g>
    </g>
    <g id="xtick_37">
     <g id="line2d_103">
      <path clip-path="url(#pf057f31a60)" d="M 393.117727 291.28 
L 393.117727 6.845228 
" style="fill:none;stroke:#b0b0b0;stroke-linecap:square;stroke-width:0.8;"/>
     </g>
     <g id="line2d_104">
      <g>
       <use style="stroke:#000000;stroke-width:0.6;" x="393.117727" xlink:href="#me246ef0169" y="291.28"/>
      </g>
     </g>
    </g>
    <g id="xtick_38">
     <g id="line2d_105">
      <path clip-path="url(#pf057f31a60)" d="M 402.421538 291.28 
L 402.421538 6.845228 
" style="fill:none;stroke:#b0b0b0;stroke-linecap:square;stroke-width:0.8;"/>
     </g>
     <g id="line2d_106">
      <g>
       <use style="stroke:#000000;stroke-width:0.6;" x="402.421538" xlink:href="#me246ef0169" y="291.28"/>
      </g>
     </g>
    </g>
    <g id="xtick_39">
     <g id="line2d_107">
      <path clip-path="url(#pf057f31a60)" d="M 409.638134 291.28 
L 409.638134 6.845228 
" style="fill:none;stroke:#b0b0b0;stroke-linecap:square;stroke-width:0.8;"/>
     </g>
     <g id="line2d_108">
      <g>
       <use style="stroke:#000000;stroke-width:0.6;" x="409.638134" xlink:href="#me246ef0169" y="291.28"/>
      </g>
     </g>
    </g>
    <g id="xtick_40">
     <g id="line2d_109">
      <path clip-path="url(#pf057f31a60)" d="M 415.534523 291.28 
L 415.534523 6.845228 
" style="fill:none;stroke:#b0b0b0;stroke-linecap:square;stroke-width:0.8;"/>
     </g>
     <g id="line2d_110">
      <g>
       <use style="stroke:#000000;stroke-width:0.6;" x="415.534523" xlink:href="#me246ef0169" y="291.28"/>
      </g>
     </g>
    </g>
    <g id="xtick_41">
     <g id="line2d_111">
      <path clip-path="url(#pf057f31a60)" d="M 420.519849 291.28 
L 420.519849 6.845228 
" style="fill:none;stroke:#b0b0b0;stroke-linecap:square;stroke-width:0.8;"/>
     </g>
     <g id="line2d_112">
      <g>
       <use style="stroke:#000000;stroke-width:0.6;" x="420.519849" xlink:href="#me246ef0169" y="291.28"/>
      </g>
     </g>
    </g>
    <g id="xtick_42">
     <g id="line2d_113">
      <path clip-path="url(#pf057f31a60)" d="M 424.838334 291.28 
L 424.838334 6.845228 
" style="fill:none;stroke:#b0b0b0;stroke-linecap:square;stroke-width:0.8;"/>
     </g>
     <g id="line2d_114">
      <g>
       <use style="stroke:#000000;stroke-width:0.6;" x="424.838334" xlink:href="#me246ef0169" y="291.28"/>
      </g>
     </g>
    </g>
    <g id="xtick_43">
     <g id="line2d_115">
      <path clip-path="url(#pf057f31a60)" d="M 428.647508 291.28 
L 428.647508 6.845228 
" style="fill:none;stroke:#b0b0b0;stroke-linecap:square;stroke-width:0.8;"/>
     </g>
     <g id="line2d_116">
      <g>
       <use style="stroke:#000000;stroke-width:0.6;" x="428.647508" xlink:href="#me246ef0169" y="291.28"/>
      </g>
     </g>
    </g>
    <g id="text_4">
     <!-- log10 of FEvals / DIM -->
     <defs>
      <path d="M 9.421875 75.984375 
L 18.40625 75.984375 
L 18.40625 0 
L 9.421875 0 
z
" id="DejaVuSans-6c"/>
      <path d="M 30.609375 48.390625 
Q 23.390625 48.390625 19.1875 42.75 
Q 14.984375 37.109375 14.984375 27.296875 
Q 14.984375 17.484375 19.15625 11.84375 
Q 23.34375 6.203125 30.609375 6.203125 
Q 37.796875 6.203125 41.984375 11.859375 
Q 46.1875 17.53125 46.1875 27.296875 
Q 46.1875 37.015625 41.984375 42.703125 
Q 37.796875 48.390625 30.609375 48.390625 
z
M 30.609375 56 
Q 42.328125 56 49.015625 48.375 
Q 55.71875 40.765625 55.71875 27.296875 
Q 55.71875 13.875 49.015625 6.21875 
Q 42.328125 -1.421875 30.609375 -1.421875 
Q 18.84375 -1.421875 12.171875 6.21875 
Q 5.515625 13.875 5.515625 27.296875 
Q 5.515625 40.765625 12.171875 48.375 
Q 18.84375 56 30.609375 56 
z
" id="DejaVuSans-6f"/>
      <path d="M 45.40625 27.984375 
Q 45.40625 37.75 41.375 43.109375 
Q 37.359375 48.484375 30.078125 48.484375 
Q 22.859375 48.484375 18.828125 43.109375 
Q 14.796875 37.75 14.796875 27.984375 
Q 14.796875 18.265625 18.828125 12.890625 
Q 22.859375 7.515625 30.078125 7.515625 
Q 37.359375 7.515625 41.375 12.890625 
Q 45.40625 18.265625 45.40625 27.984375 
z
M 54.390625 6.78125 
Q 54.390625 -7.171875 48.1875 -13.984375 
Q 42 -20.796875 29.203125 -20.796875 
Q 24.46875 -20.796875 20.265625 -20.09375 
Q 16.0625 -19.390625 12.109375 -17.921875 
L 12.109375 -9.1875 
Q 16.0625 -11.328125 19.921875 -12.34375 
Q 23.78125 -13.375 27.78125 -13.375 
Q 36.625 -13.375 41.015625 -8.765625 
Q 45.40625 -4.15625 45.40625 5.171875 
L 45.40625 9.625 
Q 42.625 4.78125 38.28125 2.390625 
Q 33.9375 0 27.875 0 
Q 17.828125 0 11.671875 7.65625 
Q 5.515625 15.328125 5.515625 27.984375 
Q 5.515625 40.671875 11.671875 48.328125 
Q 17.828125 56 27.875 56 
Q 33.9375 56 38.28125 53.609375 
Q 42.625 51.21875 45.40625 46.390625 
L 45.40625 54.6875 
L 54.390625 54.6875 
z
" id="DejaVuSans-67"/>
      <path d="M 12.40625 8.296875 
L 28.515625 8.296875 
L 28.515625 63.921875 
L 10.984375 60.40625 
L 10.984375 69.390625 
L 28.421875 72.90625 
L 38.28125 72.90625 
L 38.28125 8.296875 
L 54.390625 8.296875 
L 54.390625 0 
L 12.40625 0 
z
" id="DejaVuSans-31"/>
      <path id="DejaVuSans-20"/>
      <path d="M 37.109375 75.984375 
L 37.109375 68.5 
L 28.515625 68.5 
Q 23.6875 68.5 21.796875 66.546875 
Q 19.921875 64.59375 19.921875 59.515625 
L 19.921875 54.6875 
L 34.71875 54.6875 
L 34.71875 47.703125 
L 19.921875 47.703125 
L 19.921875 0 
L 10.890625 0 
L 10.890625 47.703125 
L 2.296875 47.703125 
L 2.296875 54.6875 
L 10.890625 54.6875 
L 10.890625 58.5 
Q 10.890625 67.625 15.140625 71.796875 
Q 19.390625 75.984375 28.609375 75.984375 
z
" id="DejaVuSans-66"/>
      <path d="M 9.8125 72.90625 
L 51.703125 72.90625 
L 51.703125 64.59375 
L 19.671875 64.59375 
L 19.671875 43.109375 
L 48.578125 43.109375 
L 48.578125 34.8125 
L 19.671875 34.8125 
L 19.671875 0 
L 9.8125 0 
z
" id="DejaVuSans-46"/>
      <path d="M 9.8125 72.90625 
L 55.90625 72.90625 
L 55.90625 64.59375 
L 19.671875 64.59375 
L 19.671875 43.015625 
L 54.390625 43.015625 
L 54.390625 34.71875 
L 19.671875 34.71875 
L 19.671875 8.296875 
L 56.78125 8.296875 
L 56.78125 0 
L 9.8125 0 
z
" id="DejaVuSans-45"/>
      <path d="M 2.984375 54.6875 
L 12.5 54.6875 
L 29.59375 8.796875 
L 46.6875 54.6875 
L 56.203125 54.6875 
L 35.6875 0 
L 23.484375 0 
z
" id="DejaVuSans-76"/>
      <path d="M 34.28125 27.484375 
Q 23.390625 27.484375 19.1875 25 
Q 14.984375 22.515625 14.984375 16.5 
Q 14.984375 11.71875 18.140625 8.90625 
Q 21.296875 6.109375 26.703125 6.109375 
Q 34.1875 6.109375 38.703125 11.40625 
Q 43.21875 16.703125 43.21875 25.484375 
L 43.21875 27.484375 
z
M 52.203125 31.203125 
L 52.203125 0 
L 43.21875 0 
L 43.21875 8.296875 
Q 40.140625 3.328125 35.546875 0.953125 
Q 30.953125 -1.421875 24.3125 -1.421875 
Q 15.921875 -1.421875 10.953125 3.296875 
Q 6 8.015625 6 15.921875 
Q 6 25.140625 12.171875 29.828125 
Q 18.359375 34.515625 30.609375 34.515625 
L 43.21875 34.515625 
L 43.21875 35.40625 
Q 43.21875 41.609375 39.140625 45 
Q 35.0625 48.390625 27.6875 48.390625 
Q 23 48.390625 18.546875 47.265625 
Q 14.109375 46.140625 10.015625 43.890625 
L 10.015625 52.203125 
Q 14.9375 54.109375 19.578125 55.046875 
Q 24.21875 56 28.609375 56 
Q 40.484375 56 46.34375 49.84375 
Q 52.203125 43.703125 52.203125 31.203125 
z
" id="DejaVuSans-61"/>
      <path d="M 44.28125 53.078125 
L 44.28125 44.578125 
Q 40.484375 46.53125 36.375 47.5 
Q 32.28125 48.484375 27.875 48.484375 
Q 21.1875 48.484375 17.84375 46.4375 
Q 14.5 44.390625 14.5 40.28125 
Q 14.5 37.15625 16.890625 35.375 
Q 19.28125 33.59375 26.515625 31.984375 
L 29.59375 31.296875 
Q 39.15625 29.25 43.1875 25.515625 
Q 47.21875 21.78125 47.21875 15.09375 
Q 47.21875 7.46875 41.1875 3.015625 
Q 35.15625 -1.421875 24.609375 -1.421875 
Q 20.21875 -1.421875 15.453125 -0.5625 
Q 10.6875 0.296875 5.421875 2 
L 5.421875 11.28125 
Q 10.40625 8.6875 15.234375 7.390625 
Q 20.0625 6.109375 24.8125 6.109375 
Q 31.15625 6.109375 34.5625 8.28125 
Q 37.984375 10.453125 37.984375 14.40625 
Q 37.984375 18.0625 35.515625 20.015625 
Q 33.0625 21.96875 24.703125 23.78125 
L 21.578125 24.515625 
Q 13.234375 26.265625 9.515625 29.90625 
Q 5.8125 33.546875 5.8125 39.890625 
Q 5.8125 47.609375 11.28125 51.796875 
Q 16.75 56 26.8125 56 
Q 31.78125 56 36.171875 55.265625 
Q 40.578125 54.546875 44.28125 53.078125 
z
" id="DejaVuSans-73"/>
      <path d="M 25.390625 72.90625 
L 33.6875 72.90625 
L 8.296875 -9.28125 
L 0 -9.28125 
z
" id="DejaVuSans-2f"/>
      <path d="M 19.671875 64.796875 
L 19.671875 8.109375 
L 31.59375 8.109375 
Q 46.6875 8.109375 53.6875 14.9375 
Q 60.6875 21.78125 60.6875 36.53125 
Q 60.6875 51.171875 53.6875 57.984375 
Q 46.6875 64.796875 31.59375 64.796875 
z
M 9.8125 72.90625 
L 30.078125 72.90625 
Q 51.265625 72.90625 61.171875 64.09375 
Q 71.09375 55.28125 71.09375 36.53125 
Q 71.09375 17.671875 61.125 8.828125 
Q 51.171875 0 30.078125 0 
L 9.8125 0 
z
" id="DejaVuSans-44"/>
      <path d="M 9.8125 72.90625 
L 19.671875 72.90625 
L 19.671875 0 
L 9.8125 0 
z
" id="DejaVuSans-49"/>
      <path d="M 9.8125 72.90625 
L 24.515625 72.90625 
L 43.109375 23.296875 
L 61.8125 72.90625 
L 76.515625 72.90625 
L 76.515625 0 
L 66.890625 0 
L 66.890625 64.015625 
L 48.09375 14.015625 
L 38.1875 14.015625 
L 19.390625 64.015625 
L 19.390625 0 
L 9.8125 0 
z
" id="DejaVuSans-4d"/>
     </defs>
     <g transform="translate(150.122563 336.833125)scale(0.2 -0.2)">
      <use xlink:href="#DejaVuSans-6c"/>
      <use x="27.783203" xlink:href="#DejaVuSans-6f"/>
      <use x="88.964844" xlink:href="#DejaVuSans-67"/>
      <use x="152.441406" xlink:href="#DejaVuSans-31"/>
      <use x="216.064453" xlink:href="#DejaVuSans-30"/>
      <use x="279.6875" xlink:href="#DejaVuSans-20"/>
      <use x="311.474609" xlink:href="#DejaVuSans-6f"/>
      <use x="372.65625" xlink:href="#DejaVuSans-66"/>
      <use x="407.861328" xlink:href="#DejaVuSans-20"/>
      <use x="439.648438" xlink:href="#DejaVuSans-46"/>
      <use x="497.167969" xlink:href="#DejaVuSans-45"/>
      <use x="560.351562" xlink:href="#DejaVuSans-76"/>
      <use x="619.53125" xlink:href="#DejaVuSans-61"/>
      <use x="680.810547" xlink:href="#DejaVuSans-6c"/>
      <use x="708.59375" xlink:href="#DejaVuSans-73"/>
      <use x="760.693359" xlink:href="#DejaVuSans-20"/>
      <use x="792.480469" xlink:href="#DejaVuSans-2f"/>
      <use x="826.171875" xlink:href="#DejaVuSans-20"/>
      <use x="857.958984" xlink:href="#DejaVuSans-44"/>
      <use x="934.960938" xlink:href="#DejaVuSans-49"/>
      <use x="964.453125" xlink:href="#DejaVuSans-4d"/>
     </g>
    </g>
   </g>
   <g id="matplotlib.axis_2">
    <g id="ytick_1">
     <g id="line2d_117">
      <path clip-path="url(#pf057f31a60)" d="M 59.72 291.28 
L 450.672 291.28 
" style="fill:none;stroke:#b0b0b0;stroke-linecap:square;stroke-width:0.8;"/>
     </g>
     <g id="line2d_118">
      <defs>
       <path d="M 0 0 
L -3.5 0 
" id="mcc4cf0636d" style="stroke:#000000;stroke-width:0.8;"/>
      </defs>
      <g>
       <use style="stroke:#000000;stroke-width:0.8;" x="59.72" xlink:href="#mcc4cf0636d" y="291.28"/>
      </g>
     </g>
     <g id="text_5">
      <!-- 0.0 -->
      <defs>
       <path d="M 10.6875 12.40625 
L 21 12.40625 
L 21 0 
L 10.6875 0 
z
" id="DejaVuSans-2e"/>
      </defs>
      <g transform="translate(27.275 297.35875)scale(0.16 -0.16)">
       <use xlink:href="#DejaVuSans-30"/>
       <use x="63.623047" xlink:href="#DejaVuSans-2e"/>
       <use x="95.410156" xlink:href="#DejaVuSans-30"/>
      </g>
     </g>
    </g>
    <g id="ytick_2">
     <g id="line2d_119">
      <path clip-path="url(#pf057f31a60)" d="M 59.72 234.956283 
L 450.672 234.956283 
" style="fill:none;stroke:#b0b0b0;stroke-linecap:square;stroke-width:0.8;"/>
     </g>
     <g id="line2d_120">
      <g>
       <use style="stroke:#000000;stroke-width:0.8;" x="59.72" xlink:href="#mcc4cf0636d" y="234.956283"/>
      </g>
     </g>
     <g id="text_6">
      <!-- 0.2 -->
      <g transform="translate(27.275 241.035033)scale(0.16 -0.16)">
       <use xlink:href="#DejaVuSans-30"/>
       <use x="63.623047" xlink:href="#DejaVuSans-2e"/>
       <use x="95.410156" xlink:href="#DejaVuSans-32"/>
      </g>
     </g>
    </g>
    <g id="ytick_3">
     <g id="line2d_121">
      <path clip-path="url(#pf057f31a60)" d="M 59.72 178.632565 
L 450.672 178.632565 
" style="fill:none;stroke:#b0b0b0;stroke-linecap:square;stroke-width:0.8;"/>
     </g>
     <g id="line2d_122">
      <g>
       <use style="stroke:#000000;stroke-width:0.8;" x="59.72" xlink:href="#mcc4cf0636d" y="178.632565"/>
      </g>
     </g>
     <g id="text_7">
      <!-- 0.4 -->
      <g transform="translate(27.275 184.711315)scale(0.16 -0.16)">
       <use xlink:href="#DejaVuSans-30"/>
       <use x="63.623047" xlink:href="#DejaVuSans-2e"/>
       <use x="95.410156" xlink:href="#DejaVuSans-34"/>
      </g>
     </g>
    </g>
    <g id="ytick_4">
     <g id="line2d_123">
      <path clip-path="url(#pf057f31a60)" d="M 59.72 122.308848 
L 450.672 122.308848 
" style="fill:none;stroke:#b0b0b0;stroke-linecap:square;stroke-width:0.8;"/>
     </g>
     <g id="line2d_124">
      <g>
       <use style="stroke:#000000;stroke-width:0.8;" x="59.72" xlink:href="#mcc4cf0636d" y="122.308848"/>
      </g>
     </g>
     <g id="text_8">
      <!-- 0.6 -->
      <defs>
       <path d="M 33.015625 40.375 
Q 26.375 40.375 22.484375 35.828125 
Q 18.609375 31.296875 18.609375 23.390625 
Q 18.609375 15.53125 22.484375 10.953125 
Q 26.375 6.390625 33.015625 6.390625 
Q 39.65625 6.390625 43.53125 10.953125 
Q 47.40625 15.53125 47.40625 23.390625 
Q 47.40625 31.296875 43.53125 35.828125 
Q 39.65625 40.375 33.015625 40.375 
z
M 52.59375 71.296875 
L 52.59375 62.3125 
Q 48.875 64.0625 45.09375 64.984375 
Q 41.3125 65.921875 37.59375 65.921875 
Q 27.828125 65.921875 22.671875 59.328125 
Q 17.53125 52.734375 16.796875 39.40625 
Q 19.671875 43.65625 24.015625 45.921875 
Q 28.375 48.1875 33.59375 48.1875 
Q 44.578125 48.1875 50.953125 41.515625 
Q 57.328125 34.859375 57.328125 23.390625 
Q 57.328125 12.15625 50.6875 5.359375 
Q 44.046875 -1.421875 33.015625 -1.421875 
Q 20.359375 -1.421875 13.671875 8.265625 
Q 6.984375 17.96875 6.984375 36.375 
Q 6.984375 53.65625 15.1875 63.9375 
Q 23.390625 74.21875 37.203125 74.21875 
Q 40.921875 74.21875 44.703125 73.484375 
Q 48.484375 72.75 52.59375 71.296875 
z
" id="DejaVuSans-36"/>
      </defs>
      <g transform="translate(27.275 128.387598)scale(0.16 -0.16)">
       <use xlink:href="#DejaVuSans-30"/>
       <use x="63.623047" xlink:href="#DejaVuSans-2e"/>
       <use x="95.410156" xlink:href="#DejaVuSans-36"/>
      </g>
     </g>
    </g>
    <g id="ytick_5">
     <g id="line2d_125">
      <path clip-path="url(#pf057f31a60)" d="M 59.72 65.985131 
L 450.672 65.985131 
" style="fill:none;stroke:#b0b0b0;stroke-linecap:square;stroke-width:0.8;"/>
     </g>
     <g id="line2d_126">
      <g>
       <use style="stroke:#000000;stroke-width:0.8;" x="59.72" xlink:href="#mcc4cf0636d" y="65.985131"/>
      </g>
     </g>
     <g id="text_9">
      <!-- 0.8 -->
      <defs>
       <path d="M 31.78125 34.625 
Q 24.75 34.625 20.71875 30.859375 
Q 16.703125 27.09375 16.703125 20.515625 
Q 16.703125 13.921875 20.71875 10.15625 
Q 24.75 6.390625 31.78125 6.390625 
Q 38.8125 6.390625 42.859375 10.171875 
Q 46.921875 13.96875 46.921875 20.515625 
Q 46.921875 27.09375 42.890625 30.859375 
Q 38.875 34.625 31.78125 34.625 
z
M 21.921875 38.8125 
Q 15.578125 40.375 12.03125 44.71875 
Q 8.5 49.078125 8.5 55.328125 
Q 8.5 64.0625 14.71875 69.140625 
Q 20.953125 74.21875 31.78125 74.21875 
Q 42.671875 74.21875 48.875 69.140625 
Q 55.078125 64.0625 55.078125 55.328125 
Q 55.078125 49.078125 51.53125 44.71875 
Q 48 40.375 41.703125 38.8125 
Q 48.828125 37.15625 52.796875 32.3125 
Q 56.78125 27.484375 56.78125 20.515625 
Q 56.78125 9.90625 50.3125 4.234375 
Q 43.84375 -1.421875 31.78125 -1.421875 
Q 19.734375 -1.421875 13.25 4.234375 
Q 6.78125 9.90625 6.78125 20.515625 
Q 6.78125 27.484375 10.78125 32.3125 
Q 14.796875 37.15625 21.921875 38.8125 
z
M 18.3125 54.390625 
Q 18.3125 48.734375 21.84375 45.5625 
Q 25.390625 42.390625 31.78125 42.390625 
Q 38.140625 42.390625 41.71875 45.5625 
Q 45.3125 48.734375 45.3125 54.390625 
Q 45.3125 60.0625 41.71875 63.234375 
Q 38.140625 66.40625 31.78125 66.40625 
Q 25.390625 66.40625 21.84375 63.234375 
Q 18.3125 60.0625 18.3125 54.390625 
z
" id="DejaVuSans-38"/>
      </defs>
      <g transform="translate(27.275 72.063881)scale(0.16 -0.16)">
       <use xlink:href="#DejaVuSans-30"/>
       <use x="63.623047" xlink:href="#DejaVuSans-2e"/>
       <use x="95.410156" xlink:href="#DejaVuSans-38"/>
      </g>
     </g>
    </g>
    <g id="ytick_6">
     <g id="line2d_127">
      <path clip-path="url(#pf057f31a60)" d="M 59.72 9.661414 
L 450.672 9.661414 
" style="fill:none;stroke:#b0b0b0;stroke-linecap:square;stroke-width:0.8;"/>
     </g>
     <g id="line2d_128">
      <g>
       <use style="stroke:#000000;stroke-width:0.8;" x="59.72" xlink:href="#mcc4cf0636d" y="9.661414"/>
      </g>
     </g>
     <g id="text_10">
      <!-- 1.0 -->
      <g transform="translate(27.275 15.740164)scale(0.16 -0.16)">
       <use xlink:href="#DejaVuSans-31"/>
       <use x="63.623047" xlink:href="#DejaVuSans-2e"/>
       <use x="95.410156" xlink:href="#DejaVuSans-30"/>
      </g>
     </g>
    </g>
    <g id="text_11">
     <!-- proportion of trials -->
     <defs>
      <path d="M 18.109375 8.203125 
L 18.109375 -20.796875 
L 9.078125 -20.796875 
L 9.078125 54.6875 
L 18.109375 54.6875 
L 18.109375 46.390625 
Q 20.953125 51.265625 25.265625 53.625 
Q 29.59375 56 35.59375 56 
Q 45.5625 56 51.78125 48.09375 
Q 58.015625 40.1875 58.015625 27.296875 
Q 58.015625 14.40625 51.78125 6.484375 
Q 45.5625 -1.421875 35.59375 -1.421875 
Q 29.59375 -1.421875 25.265625 0.953125 
Q 20.953125 3.328125 18.109375 8.203125 
z
M 48.6875 27.296875 
Q 48.6875 37.203125 44.609375 42.84375 
Q 40.53125 48.484375 33.40625 48.484375 
Q 26.265625 48.484375 22.1875 42.84375 
Q 18.109375 37.203125 18.109375 27.296875 
Q 18.109375 17.390625 22.1875 11.75 
Q 26.265625 6.109375 33.40625 6.109375 
Q 40.53125 6.109375 44.609375 11.75 
Q 48.6875 17.390625 48.6875 27.296875 
z
" id="DejaVuSans-70"/>
      <path d="M 41.109375 46.296875 
Q 39.59375 47.171875 37.8125 47.578125 
Q 36.03125 48 33.890625 48 
Q 26.265625 48 22.1875 43.046875 
Q 18.109375 38.09375 18.109375 28.8125 
L 18.109375 0 
L 9.078125 0 
L 9.078125 54.6875 
L 18.109375 54.6875 
L 18.109375 46.1875 
Q 20.953125 51.171875 25.484375 53.578125 
Q 30.03125 56 36.53125 56 
Q 37.453125 56 38.578125 55.875 
Q 39.703125 55.765625 41.0625 55.515625 
z
" id="DejaVuSans-72"/>
      <path d="M 18.3125 70.21875 
L 18.3125 54.6875 
L 36.8125 54.6875 
L 36.8125 47.703125 
L 18.3125 47.703125 
L 18.3125 18.015625 
Q 18.3125 11.328125 20.140625 9.421875 
Q 21.96875 7.515625 27.59375 7.515625 
L 36.8125 7.515625 
L 36.8125 0 
L 27.59375 0 
Q 17.1875 0 13.234375 3.875 
Q 9.28125 7.765625 9.28125 18.015625 
L 9.28125 47.703125 
L 2.6875 47.703125 
L 2.6875 54.6875 
L 9.28125 54.6875 
L 9.28125 70.21875 
z
" id="DejaVuSans-74"/>
      <path d="M 9.421875 54.6875 
L 18.40625 54.6875 
L 18.40625 0 
L 9.421875 0 
z
M 9.421875 75.984375 
L 18.40625 75.984375 
L 18.40625 64.59375 
L 9.421875 64.59375 
z
" id="DejaVuSans-69"/>
      <path d="M 54.890625 33.015625 
L 54.890625 0 
L 45.90625 0 
L 45.90625 32.71875 
Q 45.90625 40.484375 42.875 44.328125 
Q 39.84375 48.1875 33.796875 48.1875 
Q 26.515625 48.1875 22.3125 43.546875 
Q 18.109375 38.921875 18.109375 30.90625 
L 18.109375 0 
L 9.078125 0 
L 9.078125 54.6875 
L 18.109375 54.6875 
L 18.109375 46.1875 
Q 21.34375 51.125 25.703125 53.5625 
Q 30.078125 56 35.796875 56 
Q 45.21875 56 50.046875 50.171875 
Q 54.890625 44.34375 54.890625 33.015625 
z
" id="DejaVuSans-6e"/>
     </defs>
     <g transform="translate(19.115625 242.290739)rotate(-90)scale(0.2 -0.2)">
      <use xlink:href="#DejaVuSans-70"/>
      <use x="63.476562" xlink:href="#DejaVuSans-72"/>
      <use x="104.558594" xlink:href="#DejaVuSans-6f"/>
      <use x="165.740234" xlink:href="#DejaVuSans-70"/>
      <use x="229.216797" xlink:href="#DejaVuSans-6f"/>
      <use x="290.398438" xlink:href="#DejaVuSans-72"/>
      <use x="331.511719" xlink:href="#DejaVuSans-74"/>
      <use x="370.720703" xlink:href="#DejaVuSans-69"/>
      <use x="398.503906" xlink:href="#DejaVuSans-6f"/>
      <use x="459.685547" xlink:href="#DejaVuSans-6e"/>
      <use x="523.064453" xlink:href="#DejaVuSans-20"/>
      <use x="554.851562" xlink:href="#DejaVuSans-6f"/>
      <use x="616.033203" xlink:href="#DejaVuSans-66"/>
      <use x="651.238281" xlink:href="#DejaVuSans-20"/>
      <use x="683.025391" xlink:href="#DejaVuSans-74"/>
      <use x="722.234375" xlink:href="#DejaVuSans-72"/>
      <use x="763.347656" xlink:href="#DejaVuSans-69"/>
      <use x="791.130859" xlink:href="#DejaVuSans-61"/>
      <use x="852.410156" xlink:href="#DejaVuSans-6c"/>
      <use x="880.193359" xlink:href="#DejaVuSans-73"/>
     </g>
    </g>
   </g>
   <g id="line2d_129">
    <path clip-path="url(#pf057f31a60)" d="M 218.203445 291.28 
L 218.203445 287.525086 
L 221.680601 287.525086 
L 221.680601 283.770171 
L 230.185568 283.770171 
L 230.185568 280.015257 
L 230.185568 280.015257 
L 230.185568 280.015257 
L 450.672 280.015257 
" style="fill:none;stroke:#000000;stroke-linecap:square;stroke-width:1.5;"/>
   </g>
   <g id="line2d_130">
    <defs>
     <path d="M -0 14.142136 
L 8.485281 0 
L -0 -14.142136 
L -8.485281 -0 
z
" id="m2edb730874" style="stroke:#000000;stroke-linejoin:miter;stroke-width:1.5;"/>
    </defs>
    <g clip-path="url(#pf057f31a60)">
     <use style="fill:none;stroke:#000000;stroke-linejoin:miter;stroke-width:1.5;" x="221.680601" xlink:href="#m2edb730874" y="287.525086"/>
     <use style="fill:none;stroke:#000000;stroke-linejoin:miter;stroke-width:1.5;" x="230.185568" xlink:href="#m2edb730874" y="283.770171"/>
     <use style="fill:none;stroke:#000000;stroke-linejoin:miter;stroke-width:1.5;" x="230.185568" xlink:href="#m2edb730874" y="280.015257"/>
    </g>
   </g>
   <g id="line2d_131">
    <path clip-path="url(#pf057f31a60)" style="fill:none;stroke:#000000;stroke-linecap:square;stroke-width:1.5;"/>
    <g clip-path="url(#pf057f31a60)">
     <use style="fill:none;stroke:#000000;stroke-linejoin:miter;stroke-width:1.5;" x="-1" xlink:href="#m2edb730874" y="572.898586"/>
     <use style="fill:none;stroke:#000000;stroke-linejoin:miter;stroke-width:1.5;" x="450.672" xlink:href="#m2edb730874" y="572.898586"/>
    </g>
   </g>
   <g id="line2d_132">
    <path clip-path="url(#pf057f31a60)" d="M 106.51423 291.28 
L 106.51423 287.525086 
L 119.50014 287.525086 
L 119.50014 276.260342 
L 128.740226 276.260342 
L 128.740226 268.750513 
L 132.52813 268.750513 
L 132.52813 264.995599 
L 135.918527 264.995599 
L 135.918527 253.730855 
L 138.986978 253.730855 
L 138.986978 249.975941 
L 141.78936 249.975941 
L 141.78936 242.466112 
L 144.368155 242.466112 
L 144.368155 238.711197 
L 156.603783 238.711197 
L 156.603783 234.956283 
L 164.142179 234.956283 
L 164.142179 231.201368 
L 166.725882 231.201368 
L 166.725882 223.691539 
L 175.387786 223.691539 
L 175.387786 216.18171 
L 176.323968 216.18171 
L 176.323968 208.671881 
L 179.819153 208.671881 
L 179.819153 204.916967 
L 180.63696 204.916967 
L 180.63696 201.162052 
L 182.213032 201.162052 
L 182.213032 197.407138 
L 182.973171 197.407138 
L 182.973171 189.897309 
L 183.715853 189.897309 
L 183.715853 182.38748 
L 184.441861 182.38748 
L 184.441861 171.122736 
L 185.846741 171.122736 
L 185.846741 159.857993 
L 186.526939 159.857993 
L 186.526939 152.348164 
L 187.845865 152.348164 
L 187.845865 148.59325 
L 188.48569 148.59325 
L 188.48569 137.328506 
L 189.113103 137.328506 
L 189.113103 129.818677 
L 189.728575 129.818677 
L 189.728575 126.063763 
L 190.332552 126.063763 
L 190.332552 122.308848 
L 191.507686 122.308848 
L 191.507686 114.799019 
L 192.079619 114.799019 
L 192.079619 111.044105 
L 192.641613 111.044105 
L 192.641613 103.534276 
L 193.194007 103.534276 
L 193.194007 96.024447 
L 194.271272 96.024447 
L 194.271272 92.269532 
L 197.303168 92.269532 
L 197.303168 88.514618 
L 198.718786 88.514618 
L 198.718786 84.759703 
L 200.51476 84.759703 
L 200.51476 81.004789 
L 200.948592 81.004789 
L 200.948592 77.249874 
L 216.939356 77.249874 
L 216.939356 73.49496 
L 219.466311 73.49496 
L 219.466311 69.740045 
L 241.387389 69.740045 
L 241.387389 65.985131 
L 242.359938 65.985131 
L 242.359938 62.230216 
L 248.055154 62.230216 
L 248.055154 58.475302 
L 248.255377 58.475302 
L 248.255377 54.720387 
L 248.750576 54.720387 
L 248.750576 50.965473 
L 250.098105 50.965473 
L 250.098105 47.210558 
L 250.658862 47.210558 
L 250.751383 39.700729 
L 251.662324 39.700729 
L 251.662324 35.945815 
L 252.285052 35.945815 
L 252.285052 32.1909 
L 253.917254 32.1909 
L 253.917254 28.435986 
L 254.167603 28.435986 
L 254.167603 24.681072 
L 254.744323 24.681072 
L 254.744323 20.926157 
L 256.181751 20.926157 
L 256.181751 17.171243 
L 256.569954 17.171243 
L 256.569954 13.416328 
L 257.558 13.416328 
L 257.558 9.661414 
L 257.558 9.661414 
L 450.672 9.661414 
L 450.672 9.661414 
" style="fill:none;stroke:#000000;stroke-linecap:square;stroke-width:1.5;"/>
   </g>
   <g id="line2d_133">
    <defs>
     <path d="M 0 7.5 
C 1.989023 7.5 3.896849 6.709753 5.303301 5.303301 
C 6.709753 3.896849 7.5 1.989023 7.5 0 
C 7.5 -1.989023 6.709753 -3.896849 5.303301 -5.303301 
C 3.896849 -6.709753 1.989023 -7.5 0 -7.5 
C -1.989023 -7.5 -3.896849 -6.709753 -5.303301 -5.303301 
C -6.709753 -3.896849 -7.5 -1.989023 -7.5 0 
C -7.5 1.989023 -6.709753 3.896849 -5.303301 5.303301 
C -3.896849 6.709753 -1.989023 7.5 0 7.5 
z
" id="m36106af39a" style="stroke:#000000;stroke-width:1.5;"/>
    </defs>
    <g clip-path="url(#pf057f31a60)">
     <use style="fill:none;stroke:#000000;stroke-width:1.5;" x="141.78936" xlink:href="#m36106af39a" y="246.221026"/>
     <use style="fill:none;stroke:#000000;stroke-width:1.5;" x="184.441861" xlink:href="#m36106af39a" y="182.38748"/>
     <use style="fill:none;stroke:#000000;stroke-width:1.5;" x="200.51476" xlink:href="#m36106af39a" y="84.759703"/>
     <use style="fill:none;stroke:#000000;stroke-width:1.5;" x="250.098105" xlink:href="#m36106af39a" y="50.965473"/>
     <use style="fill:none;stroke:#000000;stroke-width:1.5;" x="257.558" xlink:href="#m36106af39a" y="9.661414"/>
    </g>
   </g>
   <g id="line2d_134">
    <path clip-path="url(#pf057f31a60)" style="fill:none;stroke:#000000;stroke-linecap:square;stroke-width:1.5;"/>
   </g>
   <g id="line2d_135"/>
   <g id="line2d_136">
    <path clip-path="url(#pf057f31a60)" d="M 151.061198 291.28 
L 151.061198 287.525086 
L 156.603783 287.525086 
L 156.603783 283.770171 
L 159.832841 283.770171 
L 159.832841 280.015257 
L 161.334 280.015257 
L 161.334 276.260342 
L 164.142179 276.260342 
L 164.142179 272.505428 
L 165.459825 272.505428 
L 165.459825 268.750513 
L 167.944237 268.750513 
L 167.944237 264.995599 
L 169.118355 264.995599 
L 169.118355 261.240684 
L 173.429976 261.240684 
L 173.429976 257.48577 
L 175.387786 257.48577 
L 175.387786 253.730855 
L 176.323968 253.730855 
L 176.323968 249.975941 
L 177.23381 249.975941 
L 177.23381 246.221026 
L 178.118755 246.221026 
L 178.118755 242.466112 
L 179.819153 242.466112 
L 179.819153 234.956283 
L 186.526939 234.956283 
L 186.526939 231.201368 
L 195.822736 231.201368 
L 195.822736 227.446454 
L 202.216224 227.446454 
L 202.216224 223.691539 
L 204.224414 223.691539 
L 204.224414 219.936625 
L 213.03304 219.936625 
L 213.03304 216.18171 
L 216.939356 216.18171 
L 216.939356 212.426796 
L 218.479094 212.426796 
L 218.479094 208.671881 
L 218.728738 208.671881 
L 218.728738 197.407138 
L 218.976469 197.407138 
L 218.976469 186.142394 
L 219.222318 186.142394 
L 219.222318 171.122736 
L 219.466311 171.122736 
L 219.466311 163.612907 
L 219.708478 163.612907 
L 219.708478 156.103079 
L 225.643139 156.103079 
L 225.643139 152.348164 
L 227.211023 152.348164 
L 227.211023 148.59325 
L 229.42893 148.59325 
L 229.42893 141.083421 
L 229.960429 141.083421 
L 229.960429 137.328506 
L 230.135672 137.328506 
L 230.135672 133.573592 
L 230.309971 133.573592 
L 230.309971 129.818677 
L 230.997921 129.818677 
L 230.997921 126.063763 
L 232.003161 126.063763 
L 232.003161 122.308848 
L 233.137764 122.308848 
L 233.137764 118.553934 
L 233.454758 118.553934 
L 233.454758 111.044105 
L 237.870734 111.044105 
L 237.870734 107.28919 
L 238.819812 107.28919 
L 238.819812 103.534276 
L 239.741831 103.534276 
L 239.741831 99.779361 
L 240.000508 99.779361 
L 240.000508 96.024447 
L 244.108205 96.024447 
L 244.108205 92.269532 
L 250.003693 92.269532 
L 250.003693 88.514618 
L 251.482177 88.514618 
L 251.482177 84.759703 
L 251.841473 84.759703 
L 251.841473 81.004789 
L 255.788832 81.004789 
L 255.788832 77.249874 
L 256.025156 77.249874 
L 256.103548 69.740045 
L 256.647038 69.740045 
L 256.647038 65.985131 
L 257.105726 65.985131 
L 257.105726 62.230216 
L 257.332654 62.230216 
L 257.332654 58.475302 
L 258.004035 58.475302 
L 258.004035 54.720387 
L 258.661762 54.720387 
L 258.661762 50.965473 
L 259.306378 50.965473 
L 259.306378 47.210558 
L 259.729094 47.210558 
L 259.729094 43.455644 
L 260.558301 43.455644 
L 260.558301 39.700729 
L 261.166545 39.700729 
L 261.166545 35.945815 
L 261.63184 35.945815 
L 261.63184 32.1909 
L 264.533453 32.1909 
L 264.533453 28.435986 
L 264.95304 28.435986 
L 264.95304 24.681072 
L 265.249447 24.681072 
L 265.249447 20.926157 
L 280.676462 20.926157 
L 280.676462 17.171243 
L 281.898299 17.171243 
L 281.898299 13.416328 
L 315.175571 13.416328 
L 315.175571 9.661414 
L 315.175571 9.661414 
L 450.672 9.661414 
L 450.672 9.661414 
" style="fill:none;stroke:#00bfbf;stroke-linecap:square;stroke-width:1.5;"/>
   </g>
   <g id="line2d_137">
    <defs>
     <path d="M 0 7.5 
C 1.989023 7.5 3.896849 6.709753 5.303301 5.303301 
C 6.709753 3.896849 7.5 1.989023 7.5 0 
C 7.5 -1.989023 6.709753 -3.896849 5.303301 -5.303301 
C 3.896849 -6.709753 1.989023 -7.5 0 -7.5 
C -1.989023 -7.5 -3.896849 -6.709753 -5.303301 -5.303301 
C -6.709753 -3.896849 -7.5 -1.989023 -7.5 0 
C -7.5 1.989023 -6.709753 3.896849 -5.303301 5.303301 
C -3.896849 6.709753 -1.989023 7.5 0 7.5 
z
" id="mf87779ff41" style="stroke:#00bfbf;stroke-width:1.5;"/>
    </defs>
    <g clip-path="url(#pf057f31a60)">
     <use style="fill:none;stroke:#00bfbf;stroke-width:1.5;" x="167.944237" xlink:href="#mf87779ff41" y="268.750513"/>
     <use style="fill:none;stroke:#00bfbf;stroke-width:1.5;" x="218.976469" xlink:href="#mf87779ff41" y="193.652223"/>
     <use style="fill:none;stroke:#00bfbf;stroke-width:1.5;" x="251.841473" xlink:href="#mf87779ff41" y="84.759703"/>
     <use style="fill:none;stroke:#00bfbf;stroke-width:1.5;" x="265.249447" xlink:href="#mf87779ff41" y="24.681072"/>
     <use style="fill:none;stroke:#00bfbf;stroke-width:1.5;" x="315.175571" xlink:href="#mf87779ff41" y="9.661414"/>
    </g>
   </g>
   <g id="line2d_138">
    <path clip-path="url(#pf057f31a60)" style="fill:none;stroke:#00bfbf;stroke-linecap:square;stroke-width:1.5;"/>
   </g>
   <g id="line2d_139"/>
   <g id="line2d_140">
    <path clip-path="url(#pf057f31a60)" d="M 189.113103 291.28 
L 189.113103 287.525086 
L 189.728575 287.525086 
L 189.728575 283.770171 
L 192.641613 283.770171 
L 192.641613 280.015257 
L 193.194007 280.015257 
L 193.194007 276.260342 
L 193.737125 276.260342 
L 193.737125 272.505428 
L 194.79674 272.505428 
L 194.79674 268.750513 
L 195.313807 268.750513 
L 195.313807 264.995599 
L 195.822736 264.995599 
L 195.822736 261.240684 
L 200.948592 261.240684 
L 200.948592 257.48577 
L 203.034524 257.48577 
L 203.034524 253.730855 
L 203.832628 253.730855 
L 203.832628 249.975941 
L 203.832628 249.975941 
L 203.832628 246.221026 
L 203.832628 246.221026 
L 203.832628 242.466112 
L 204.224414 242.466112 
L 204.224414 238.711197 
L 204.994029 238.711197 
L 204.994029 234.956283 
L 233.137764 234.956283 
L 233.137764 231.201368 
L 234.079572 231.201368 
L 234.079572 227.446454 
L 238.144753 227.446454 
L 238.144753 223.691539 
L 240.275385 223.691539 
L 240.275385 219.936625 
L 241.015009 219.936625 
L 241.015009 216.18171 
L 241.387389 216.18171 
L 241.387389 212.426796 
L 243.535886 212.426796 
L 243.535886 208.671881 
L 245.76679 208.671881 
L 245.76679 204.916967 
L 255.069318 204.916967 
L 255.069318 201.162052 
L 257.930122 201.162052 
L 257.930122 197.407138 
L 258.589338 197.407138 
L 258.589338 193.652223 
L 259.799012 193.652223 
L 259.799012 189.897309 
L 261.565778 189.897309 
L 261.565778 186.142394 
L 261.63184 186.142394 
L 261.63184 182.38748 
L 263.115177 182.38748 
L 263.115177 178.632565 
L 263.428833 178.632565 
L 263.428833 174.877651 
L 263.615576 174.877651 
L 263.615576 171.122736 
L 266.06522 171.122736 
L 266.06522 167.367822 
L 266.237383 167.367822 
L 266.237383 163.612907 
L 266.465517 163.612907 
L 266.465517 159.857993 
L 275.930628 159.857993 
L 275.930628 156.103079 
L 281.863014 156.103079 
L 281.863014 152.348164 
L 282.664991 152.348164 
L 282.664991 148.59325 
L 283.177505 148.59325 
L 283.177505 144.838335 
L 284.01405 144.838335 
L 284.01405 141.083421 
L 284.080048 141.083421 
L 284.080048 137.328506 
L 284.112996 137.328506 
L 284.112996 133.573592 
L 285.812912 133.573592 
L 285.812912 129.818677 
L 295.650901 129.818677 
L 295.650901 126.063763 
L 298.53772 126.063763 
L 298.53772 122.308848 
L 299.452269 122.308848 
L 299.452269 118.553934 
L 314.526331 118.553934 
L 314.526331 114.799019 
L 332.260452 114.799019 
L 332.260452 111.044105 
L 332.260452 111.044105 
L 332.260452 111.044105 
L 450.672 111.044105 
" style="fill:none;stroke:#bf00bf;stroke-linecap:square;stroke-width:1.5;"/>
   </g>
   <g id="line2d_141">
    <defs>
     <path d="M 0 7.5 
C 1.989023 7.5 3.896849 6.709753 5.303301 5.303301 
C 6.709753 3.896849 7.5 1.989023 7.5 0 
C 7.5 -1.989023 6.709753 -3.896849 5.303301 -5.303301 
C 3.896849 -6.709753 1.989023 -7.5 0 -7.5 
C -1.989023 -7.5 -3.896849 -6.709753 -5.303301 -5.303301 
C -6.709753 -3.896849 -7.5 -1.989023 -7.5 0 
C -7.5 1.989023 -6.709753 3.896849 -5.303301 5.303301 
C -3.896849 6.709753 -1.989023 7.5 0 7.5 
z
" id="mdddcf7abb8" style="stroke:#bf00bf;stroke-width:1.5;"/>
    </defs>
    <g clip-path="url(#pf057f31a60)">
     <use style="fill:none;stroke:#bf00bf;stroke-width:1.5;" x="258.589338" xlink:href="#mdddcf7abb8" y="197.407138"/>
     <use style="fill:none;stroke:#bf00bf;stroke-width:1.5;" x="285.812912" xlink:href="#mdddcf7abb8" y="133.573592"/>
     <use style="fill:none;stroke:#bf00bf;stroke-width:1.5;" x="332.260452" xlink:href="#mdddcf7abb8" y="114.799019"/>
     <use style="fill:none;stroke:#bf00bf;stroke-width:1.5;" x="332.260452" xlink:href="#mdddcf7abb8" y="111.044105"/>
    </g>
   </g>
   <g id="line2d_142">
    <path clip-path="url(#pf057f31a60)" style="fill:none;stroke:#bf00bf;stroke-linecap:square;stroke-width:1.5;"/>
   </g>
   <g id="line2d_143"/>
   <g id="line2d_144">
    <path clip-path="url(#pf057f31a60)" d="M 341.689465 291.28 
L 341.689465 287.525086 
L 341.689465 287.525086 
L 341.689465 287.525086 
L 450.672 287.525086 
" style="fill:none;stroke:#ff0000;stroke-linecap:square;stroke-width:3;"/>
   </g>
   <g id="line2d_145">
    <defs>
     <path d="M 0 7.5 
C 1.989023 7.5 3.896849 6.709753 5.303301 5.303301 
C 6.709753 3.896849 7.5 1.989023 7.5 0 
C 7.5 -1.989023 6.709753 -3.896849 5.303301 -5.303301 
C 3.896849 -6.709753 1.989023 -7.5 0 -7.5 
C -1.989023 -7.5 -3.896849 -6.709753 -5.303301 -5.303301 
C -6.709753 -3.896849 -7.5 -1.989023 -7.5 0 
C -7.5 1.989023 -6.709753 3.896849 -5.303301 5.303301 
C -3.896849 6.709753 -1.989023 7.5 0 7.5 
z
" id="m24b72dd64d" style="stroke:#ff0000;stroke-width:3;"/>
    </defs>
    <g clip-path="url(#pf057f31a60)">
     <use style="fill:none;stroke:#ff0000;stroke-width:3;" x="341.689465" xlink:href="#m24b72dd64d" y="291.28"/>
     <use style="fill:none;stroke:#ff0000;stroke-width:3;" x="341.689465" xlink:href="#m24b72dd64d" y="291.28"/>
     <use style="fill:none;stroke:#ff0000;stroke-width:3;" x="341.689465" xlink:href="#m24b72dd64d" y="287.525086"/>
    </g>
   </g>
   <g id="line2d_146">
    <path clip-path="url(#pf057f31a60)" style="fill:none;stroke:#ff0000;stroke-linecap:square;stroke-width:3;"/>
   </g>
   <g id="line2d_147">
    <path clip-path="url(#pf057f31a60)" d="M 231.078853 291.28 
L 231.078853 6.845228 
" style="fill:none;stroke:#000000;stroke-linecap:square;stroke-width:1.5;"/>
    <defs>
     <path d="M -10 0 
L 10 0 
M 0 10 
L 0 -10 
" id="m2621ef51f0" style="stroke:#000000;stroke-width:3;"/>
    </defs>
    <g clip-path="url(#pf057f31a60)">
     <use style="stroke:#000000;stroke-width:3;" x="231.078853" xlink:href="#m2621ef51f0" y="291.28"/>
     <use style="stroke:#000000;stroke-width:3;" x="231.078853" xlink:href="#m2621ef51f0" y="6.845228"/>
    </g>
   </g>
   <g id="line2d_148">
    <path clip-path="url(#pf057f31a60)" d="M 412.886825 291.28 
L 412.886825 6.845228 
" style="fill:none;stroke:#000000;stroke-linecap:square;stroke-width:1.5;"/>
    <defs>
     <path d="M 0 7.5 
C 1.989023 7.5 3.896849 6.709753 5.303301 5.303301 
C 6.709753 3.896849 7.5 1.989023 7.5 0 
C 7.5 -1.989023 6.709753 -3.896849 5.303301 -5.303301 
C 3.896849 -6.709753 1.989023 -7.5 0 -7.5 
C -1.989023 -7.5 -3.896849 -6.709753 -5.303301 -5.303301 
C -6.709753 -3.896849 -7.5 -1.989023 -7.5 0 
C -7.5 1.989023 -6.709753 3.896849 -5.303301 5.303301 
C -3.896849 6.709753 -1.989023 7.5 0 7.5 
z
" id="m88b563920a" style="stroke:#000000;stroke-width:3;"/>
    </defs>
    <g clip-path="url(#pf057f31a60)">
     <use style="fill:none;stroke:#000000;stroke-width:3;" x="412.886825" xlink:href="#m88b563920a" y="291.28"/>
     <use style="fill:none;stroke:#000000;stroke-width:3;" x="412.886825" xlink:href="#m88b563920a" y="6.845228"/>
    </g>
   </g>
   <g id="patch_3">
    <path d="M 59.72 291.28 
L 59.72 6.845228 
" style="fill:none;stroke:#000000;stroke-linecap:square;stroke-linejoin:miter;stroke-width:0.8;"/>
   </g>
   <g id="patch_4">
    <path d="M 450.672 291.28 
L 450.672 6.845228 
" style="fill:none;stroke:#000000;stroke-linecap:square;stroke-linejoin:miter;stroke-width:0.8;"/>
   </g>
   <g id="patch_5">
    <path d="M 59.72 291.28 
L 450.672 291.28 
" style="fill:none;stroke:#000000;stroke-linecap:square;stroke-linejoin:miter;stroke-width:0.8;"/>
   </g>
   <g id="patch_6">
    <path d="M 59.72 6.845228 
L 450.672 6.845228 
" style="fill:none;stroke:#000000;stroke-linecap:square;stroke-linejoin:miter;stroke-width:0.8;"/>
   </g>
   <g id="text_12">
    <!-- f10-f14 -->
    <defs>
     <path d="M 4.890625 31.390625 
L 31.203125 31.390625 
L 31.203125 23.390625 
L 4.890625 23.390625 
z
" id="DejaVuSans-2d"/>
    </defs>
    <g transform="translate(219.097563 27.730798)scale(0.2 -0.2)">
     <use xlink:href="#DejaVuSans-66"/>
     <use x="35.205078" xlink:href="#DejaVuSans-31"/>
     <use x="98.828125" xlink:href="#DejaVuSans-30"/>
     <use x="162.451172" xlink:href="#DejaVuSans-2d"/>
     <use x="198.535156" xlink:href="#DejaVuSans-66"/>
     <use x="233.740234" xlink:href="#DejaVuSans-31"/>
     <use x="297.363281" xlink:href="#DejaVuSans-34"/>
    </g>
   </g>
   <g id="text_13">
    <!-- absolute targets -->
    <defs>
     <path d="M 48.6875 27.296875 
Q 48.6875 37.203125 44.609375 42.84375 
Q 40.53125 48.484375 33.40625 48.484375 
Q 26.265625 48.484375 22.1875 42.84375 
Q 18.109375 37.203125 18.109375 27.296875 
Q 18.109375 17.390625 22.1875 11.75 
Q 26.265625 6.109375 33.40625 6.109375 
Q 40.53125 6.109375 44.609375 11.75 
Q 48.6875 17.390625 48.6875 27.296875 
z
M 18.109375 46.390625 
Q 20.953125 51.265625 25.265625 53.625 
Q 29.59375 56 35.59375 56 
Q 45.5625 56 51.78125 48.09375 
Q 58.015625 40.1875 58.015625 27.296875 
Q 58.015625 14.40625 51.78125 6.484375 
Q 45.5625 -1.421875 35.59375 -1.421875 
Q 29.59375 -1.421875 25.265625 0.953125 
Q 20.953125 3.328125 18.109375 8.203125 
L 18.109375 0 
L 9.078125 0 
L 9.078125 75.984375 
L 18.109375 75.984375 
z
" id="DejaVuSans-62"/>
     <path d="M 8.5 21.578125 
L 8.5 54.6875 
L 17.484375 54.6875 
L 17.484375 21.921875 
Q 17.484375 14.15625 20.5 10.265625 
Q 23.53125 6.390625 29.59375 6.390625 
Q 36.859375 6.390625 41.078125 11.03125 
Q 45.3125 15.671875 45.3125 23.6875 
L 45.3125 54.6875 
L 54.296875 54.6875 
L 54.296875 0 
L 45.3125 0 
L 45.3125 8.40625 
Q 42.046875 3.421875 37.71875 1 
Q 33.40625 -1.421875 27.6875 -1.421875 
Q 18.265625 -1.421875 13.375 4.4375 
Q 8.5 10.296875 8.5 21.578125 
z
M 31.109375 56 
z
" id="DejaVuSans-75"/>
     <path d="M 56.203125 29.59375 
L 56.203125 25.203125 
L 14.890625 25.203125 
Q 15.484375 15.921875 20.484375 11.0625 
Q 25.484375 6.203125 34.421875 6.203125 
Q 39.59375 6.203125 44.453125 7.46875 
Q 49.3125 8.734375 54.109375 11.28125 
L 54.109375 2.78125 
Q 49.265625 0.734375 44.1875 -0.34375 
Q 39.109375 -1.421875 33.890625 -1.421875 
Q 20.796875 -1.421875 13.15625 6.1875 
Q 5.515625 13.8125 5.515625 26.8125 
Q 5.515625 40.234375 12.765625 48.109375 
Q 20.015625 56 32.328125 56 
Q 43.359375 56 49.78125 48.890625 
Q 56.203125 41.796875 56.203125 29.59375 
z
M 47.21875 32.234375 
Q 47.125 39.59375 43.09375 43.984375 
Q 39.0625 48.390625 32.421875 48.390625 
Q 24.90625 48.390625 20.390625 44.140625 
Q 15.875 39.890625 15.1875 32.171875 
z
" id="DejaVuSans-65"/>
    </defs>
    <g transform="translate(59.72 601.060445)scale(0.14 -0.14)">
     <use xlink:href="#DejaVuSans-61"/>
     <use x="61.279297" xlink:href="#DejaVuSans-62"/>
     <use x="124.755859" xlink:href="#DejaVuSans-73"/>
     <use x="176.855469" xlink:href="#DejaVuSans-6f"/>
     <use x="238.037109" xlink:href="#DejaVuSans-6c"/>
     <use x="265.820312" xlink:href="#DejaVuSans-75"/>
     <use x="329.199219" xlink:href="#DejaVuSans-74"/>
     <use x="368.408203" xlink:href="#DejaVuSans-65"/>
     <use x="429.931641" xlink:href="#DejaVuSans-20"/>
     <use x="461.71875" xlink:href="#DejaVuSans-74"/>
     <use x="500.927734" xlink:href="#DejaVuSans-61"/>
     <use x="562.207031" xlink:href="#DejaVuSans-72"/>
     <use x="603.304688" xlink:href="#DejaVuSans-67"/>
     <use x="666.78125" xlink:href="#DejaVuSans-65"/>
     <use x="728.304688" xlink:href="#DejaVuSans-74"/>
     <use x="767.513672" xlink:href="#DejaVuSans-73"/>
    </g>
   </g>
   <g id="text_14">
    <!-- v0.0.0 -->
    <g style="fill:#808080;" transform="translate(239.51475 286.355965)scale(0.1 -0.1)">
     <use xlink:href="#DejaVuSans-76"/>
     <use x="59.179688" xlink:href="#DejaVuSans-30"/>
     <use x="122.802734" xlink:href="#DejaVuSans-2e"/>
     <use x="154.589844" xlink:href="#DejaVuSans-30"/>
     <use x="218.212891" xlink:href="#DejaVuSans-2e"/>
     <use x="250" xlink:href="#DejaVuSans-30"/>
    </g>
   </g>
   <g id="legend_1">
    <g id="patch_7">
     <path d="M 73.72 140.270228 
L 157.660625 140.270228 
Q 161.660625 140.270228 161.660625 136.270228 
L 161.660625 20.845228 
Q 161.660625 16.845228 157.660625 16.845228 
L 73.72 16.845228 
Q 69.72 16.845228 69.72 20.845228 
L 69.72 136.270228 
Q 69.72 140.270228 73.72 140.270228 
z
" style="fill:#ffffff;opacity:0.2;stroke:#cccccc;stroke-linejoin:miter;"/>
    </g>
    <g id="line2d_149">
     <path d="M 77.72 33.042103 
L 117.72 33.042103 
" style="fill:none;stroke:#000000;stroke-linecap:square;stroke-width:1.5;"/>
    </g>
    <g id="line2d_150"/>
    <g id="text_15">
     <!-- 1 -->
     <g transform="translate(133.72 40.042103)scale(0.2 -0.2)">
      <use xlink:href="#DejaVuSans-31"/>
     </g>
    </g>
    <g id="line2d_151">
     <path d="M 77.72 62.398353 
L 117.72 62.398353 
" style="fill:none;stroke:#00bfbf;stroke-linecap:square;stroke-width:1.5;"/>
    </g>
    <g id="line2d_152"/>
    <g id="text_16">
     <!-- -1 -->
     <g transform="translate(133.72 69.398353)scale(0.2 -0.2)">
      <use xlink:href="#DejaVuSans-2d"/>
      <use x="36.083984" xlink:href="#DejaVuSans-31"/>
     </g>
    </g>
    <g id="line2d_153">
     <path d="M 77.72 91.754603 
L 117.72 91.754603 
" style="fill:none;stroke:#bf00bf;stroke-linecap:square;stroke-width:1.5;"/>
    </g>
    <g id="line2d_154"/>
    <g id="text_17">
     <!-- -4 -->
     <g transform="translate(133.72 98.754603)scale(0.2 -0.2)">
      <use xlink:href="#DejaVuSans-2d"/>
      <use x="36.083984" xlink:href="#DejaVuSans-34"/>
     </g>
    </g>
    <g id="line2d_155">
     <path d="M 77.72 121.110853 
L 117.72 121.110853 
" style="fill:none;stroke:#ff0000;stroke-linecap:square;stroke-width:3;"/>
    </g>
    <g id="line2d_156"/>
    <g id="text_18">
     <!-- -8 -->
     <g transform="translate(133.72 128.110853)scale(0.2 -0.2)">
      <use xlink:href="#DejaVuSans-2d"/>
      <use x="36.083984" xlink:href="#DejaVuSans-38"/>
     </g>
    </g>
   </g>
  </g>
 </g>
 <defs>
  <clipPath id="pf057f31a60">
   <rect height="284.434772" width="390.952" x="59.72" y="6.845228"/>
  </clipPath>
 </defs>
</svg>
