<?xml version="1.0" encoding="utf-8" standalone="no"?>
<!DOCTYPE svg PUBLIC "-//W3C//DTD SVG 1.1//EN"
  "http://www.w3.org/Graphics/SVG/1.1/DTD/svg11.dtd">
<!-- Created with matplotlib (http://matplotlib.org/) -->
<svg height="345pt" version="1.1" viewBox="0 0 460 345" width="460pt" xmlns="http://www.w3.org/2000/svg" xmlns:xlink="http://www.w3.org/1999/xlink">
 <defs>
  <style type="text/css">
*{stroke-linecap:butt;stroke-linejoin:round;}
  </style>
 </defs>
 <g id="figure_1">
  <g id="patch_1">
   <path d="M 0 345.6 
L 460.8 345.6 
L 460.8 0 
L 0 0 
z
" style="fill:#ffffff;"/>
  </g>
  <g id="axes_1">
   <g id="patch_2">
    <path d="M 56.12 294.88 
L 333.168 294.88 
L 333.168 6.845228 
L 56.12 6.845228 
z
" style="fill:#ffffff;"/>
   </g>
   <g id="line2d_1">
    <path d="M 4.627463 294.88 
L 4.627463 292.643271 
L 23.511104 292.643271 
L 23.511104 291.524907 
L 51.175139 291.524907 
L 51.175139 290.406542 
L 68.872887 290.406542 
L 68.872887 289.288178 
L 78.839174 289.288178 
L 78.839174 288.169813 
L 86.186351 288.169813 
L 86.186351 287.051449 
L 92.287186 287.051449 
L 92.287186 285.933084 
L 92.904808 285.933084 
L 92.904808 284.81472 
L 94.543059 284.81472 
L 94.543059 283.696355 
L 95.085903 283.696355 
L 95.085903 282.577991 
L 96.618578 282.577991 
L 96.618578 281.459626 
L 97.258229 281.459626 
L 97.258229 280.341262 
L 98.688305 280.341262 
L 98.760375 278.104533 
L 99.806659 278.104533 
L 99.806659 276.986168 
L 100.664619 276.986168 
L 100.664619 275.867804 
L 101.358566 275.867804 
L 101.358566 274.749439 
L 102.20309 274.749439 
L 102.20309 273.631075 
L 102.895343 273.631075 
L 102.895343 272.51271 
L 103.990531 272.51271 
L 103.990531 271.394346 
L 105.415256 271.394346 
L 105.415256 270.275981 
L 106.955567 270.275981 
L 106.955567 269.157617 
L 108.20385 269.157617 
L 108.20385 268.039252 
L 109.675221 268.039252 
L 109.675221 266.920888 
L 110.782167 266.920888 
L 110.782167 265.802523 
L 111.135855 265.802523 
L 111.135855 264.684159 
L 111.413657 264.684159 
L 111.413657 263.565795 
L 111.855724 263.565795 
L 111.922736 261.329066 
L 114.293036 261.329066 
L 114.380214 259.092337 
L 114.837842 259.092337 
L 114.837842 257.973972 
L 115.256077 257.973972 
L 115.256077 256.855608 
L 116.010559 256.855608 
L 116.036901 254.618879 
L 116.631902 254.618879 
L 116.65731 252.38215 
L 117.009137 252.38215 
L 117.009137 251.263785 
L 119.569706 251.263785 
L 119.569706 250.145421 
L 120.242208 250.145421 
L 120.242208 249.027056 
L 120.948828 249.027056 
L 120.948828 247.908692 
L 121.417105 247.908692 
L 121.417105 246.790327 
L 122.151854 246.790327 
L 122.151854 245.671963 
L 123.396663 245.671963 
L 123.396663 244.553598 
L 124.069494 244.553598 
L 124.069494 243.435234 
L 125.094073 243.435234 
L 125.094073 242.316869 
L 126.031592 242.316869 
L 126.031592 241.198505 
L 126.366778 241.198505 
L 126.366778 240.08014 
L 126.752093 240.08014 
L 126.752093 238.961776 
L 127.416471 238.961776 
L 127.511249 236.725047 
L 128.277075 236.725047 
L 128.277075 235.606682 
L 128.985463 235.606682 
L 128.985463 234.488318 
L 129.450049 234.488318 
L 129.450049 233.369954 
L 129.677716 233.369954 
L 129.677716 232.251589 
L 129.808158 232.251589 
L 129.808158 231.133225 
L 130.411737 231.133225 
L 130.411737 230.01486 
L 130.660852 230.01486 
L 130.660852 228.896496 
L 131.257433 228.896496 
L 131.257433 227.778131 
L 131.537454 227.778131 
L 131.537454 226.659767 
L 131.686367 226.659767 
L 131.686367 225.541402 
L 131.949115 225.541402 
L 131.949115 224.423038 
L 132.72406 224.423038 
L 132.833383 222.186309 
L 132.882847 222.186309 
L 132.882847 221.067944 
L 134.056882 221.067944 
L 134.056882 219.94958 
L 134.73529 219.94958 
L 134.73529 218.831215 
L 135.456111 218.831215 
L 135.456111 217.712851 
L 135.917635 217.712851 
L 135.917635 216.594486 
L 136.686739 216.594486 
L 136.686739 215.476122 
L 136.82081 215.476122 
L 136.82081 214.357757 
L 137.132207 214.357757 
L 137.132207 213.239393 
L 137.760898 213.239393 
L 137.760898 212.121028 
L 138.345851 212.121028 
L 138.345851 211.002664 
L 138.890669 211.002664 
L 138.890669 209.884299 
L 139.411992 209.884299 
L 139.411992 208.765935 
L 139.779642 208.765935 
L 139.779642 207.64757 
L 140.687737 207.64757 
L 140.756604 205.410841 
L 140.818973 205.410841 
L 140.818973 204.292477 
L 141.334118 204.292477 
L 141.334118 203.174112 
L 141.681012 203.174112 
L 141.681012 202.055748 
L 141.793145 202.055748 
L 141.793145 200.937384 
L 142.428336 200.937384 
L 142.428336 199.819019 
L 142.541345 199.819019 
L 142.541345 198.700655 
L 142.776273 198.700655 
L 142.776273 197.58229 
L 143.117307 197.58229 
L 143.117307 196.463926 
L 143.392849 196.463926 
L 143.478392 193.108832 
L 143.863366 193.108832 
L 143.863366 191.990468 
L 144.122158 191.990468 
L 144.122158 190.872103 
L 144.321345 190.872103 
L 144.321345 189.753739 
L 144.752587 189.753739 
L 144.752587 188.635374 
L 144.929944 188.635374 
L 144.929944 187.51701 
L 145.785609 187.51701 
L 145.887895 185.280281 
L 147.255159 185.280281 
L 147.255159 184.161916 
L 147.782136 184.161916 
L 147.782136 183.043552 
L 149.061881 183.043552 
L 149.061881 181.925187 
L 150.378311 181.925187 
L 150.463774 179.688458 
L 151.887894 179.688458 
L 151.887894 178.570094 
L 152.419095 178.570094 
L 152.419095 177.451729 
L 152.686469 177.451729 
L 152.686469 176.333365 
L 153.568599 176.333365 
L 153.568599 175.215 
L 154.701632 175.215 
L 154.701632 174.096636 
L 154.93872 174.096636 
L 154.93872 172.978271 
L 155.129314 172.978271 
L 155.129314 171.859907 
L 155.344578 171.859907 
L 155.344578 170.741543 
L 155.580934 170.741543 
L 155.657252 168.504814 
L 155.814083 168.504814 
L 155.814083 167.386449 
L 156.77298 167.386449 
L 156.77298 166.268085 
L 157.795191 166.268085 
L 157.795191 165.14972 
L 157.972811 165.14972 
L 157.972811 164.031356 
L 158.691918 164.031356 
L 158.709516 161.794627 
L 158.88451 161.794627 
L 158.88451 160.676262 
L 159.143705 160.676262 
L 159.143705 159.557898 
L 159.717134 159.557898 
L 159.756484 157.321169 
L 160.189542 157.321169 
L 160.189542 156.202804 
L 160.320163 156.202804 
L 160.320163 155.08444 
L 160.469656 155.08444 
L 160.469656 153.966075 
L 160.764798 153.966075 
L 160.80377 151.729346 
L 161.247608 151.729346 
L 161.247608 150.610982 
L 161.555898 150.610982 
L 161.641386 148.374253 
L 162.127562 148.374253 
L 162.127562 147.255888 
L 162.441844 147.255888 
L 162.52657 145.019159 
L 162.638891 145.019159 
L 162.638891 143.900795 
L 163.007511 143.900795 
L 163.007511 142.78243 
L 163.42196 142.78243 
L 163.42196 141.664066 
L 163.912956 141.664066 
L 163.956757 139.427337 
L 164.159698 139.427337 
L 164.159698 138.308973 
L 164.303203 138.308973 
L 164.303203 137.190608 
L 164.706516 137.190608 
L 164.706516 136.072244 
L 165.032231 136.072244 
L 165.032231 134.953879 
L 165.456143 134.953879 
L 165.456143 133.835515 
L 165.768084 133.835515 
L 165.768084 132.71715 
L 165.952278 132.71715 
L 165.952278 131.598786 
L 166.140228 131.598786 
L 166.234147 129.362057 
L 166.430284 129.362057 
L 166.477922 127.125328 
L 166.647777 127.125328 
L 166.661625 124.888599 
L 166.851602 124.888599 
L 166.852971 122.65187 
L 167.051686 122.65187 
L 167.051686 121.533505 
L 167.233407 121.533505 
L 167.338863 117.060047 
L 167.441031 117.060047 
L 167.441031 115.941683 
L 167.579378 115.941683 
L 167.644869 112.586589 
L 167.833393 112.586589 
L 167.921096 108.113132 
L 168.024987 108.113132 
L 168.024987 106.994767 
L 168.195487 106.994767 
L 168.277588 103.639674 
L 168.36306 103.639674 
L 168.36306 102.521309 
L 168.510377 102.521309 
L 168.562509 98.047851 
L 168.652745 98.047851 
L 168.652745 96.929487 
L 168.79272 96.929487 
L 168.844004 93.574393 
L 168.944903 93.574393 
L 169.048828 91.337664 
L 169.104159 91.337664 
L 169.193992 87.982571 
L 169.42892 87.982571 
L 169.460708 84.627477 
L 169.584941 84.627477 
L 169.584941 83.509113 
L 169.715238 83.509113 
L 169.818078 81.272384 
L 170.035586 81.272384 
L 170.13314 79.035655 
L 170.146708 79.035655 
L 170.146708 77.917291 
L 170.375743 77.917291 
L 170.39135 75.680562 
L 170.503524 75.680562 
L 170.559889 73.443833 
L 170.647934 73.443833 
L 170.656714 70.088739 
L 170.929927 70.088739 
L 170.929927 68.970375 
L 171.107192 68.970375 
L 171.107192 67.85201 
L 171.242398 67.85201 
L 171.242398 66.733646 
L 171.519054 66.733646 
L 171.519054 65.615281 
L 171.655213 65.615281 
L 171.655213 64.496917 
L 171.791328 64.496917 
L 171.791328 63.378552 
L 172.041145 63.378552 
L 172.135031 58.905094 
L 172.174251 58.905094 
L 172.255421 55.550001 
L 172.292372 55.550001 
L 172.375967 52.194907 
L 172.41365 52.194907 
L 172.503558 47.72145 
L 172.536046 47.72145 
L 172.617488 44.366356 
L 172.655623 44.366356 
L 172.74039 41.011263 
L 172.919264 41.011263 
L 172.919264 39.892898 
L 173.14383 39.892898 
L 173.14383 38.774534 
L 173.744612 38.774534 
L 173.744612 37.656169 
L 174.250488 37.656169 
L 174.250488 36.537805 
L 174.678633 36.537805 
L 174.678633 35.41944 
L 175.260833 35.41944 
L 175.260833 34.301076 
L 175.795503 34.301076 
L 175.795503 33.182711 
L 176.271357 33.182711 
L 176.271357 32.064347 
L 176.701232 32.064347 
L 176.701232 30.945982 
L 177.120618 30.945982 
L 177.120618 29.827618 
L 177.534428 29.827618 
L 177.534428 28.709253 
L 177.929887 28.709253 
L 177.929887 27.590889 
L 178.311532 27.590889 
L 178.311532 26.472524 
L 178.735022 26.472524 
L 178.735022 25.35416 
L 179.133593 25.35416 
L 179.133593 24.235795 
L 179.540808 24.235795 
L 179.540808 23.117431 
L 179.916845 23.117431 
L 179.916845 21.999066 
L 180.282325 21.999066 
L 180.282325 20.880702 
L 180.632828 20.880702 
L 180.632828 19.762337 
L 180.966693 19.762337 
L 180.966693 18.643973 
L 181.253376 18.643973 
L 181.253376 17.525609 
L 181.608615 17.525609 
L 181.608615 16.407244 
L 181.939027 16.407244 
L 181.939027 15.28888 
L 182.274373 15.28888 
L 182.274373 14.170515 
L 182.540766 14.170515 
L 182.540766 13.052151 
L 182.850116 13.052151 
L 182.850116 11.933786 
L 183.129055 11.933786 
L 183.129055 10.815422 
L 183.38733 10.815422 
L 183.38733 9.697057 
L 333.168 9.697057 
L 333.168 9.697057 
" style="fill:none;stroke:#f5deb3;stroke-linecap:square;stroke-width:4;"/>
   </g>
   <g id="line2d_2">
    <defs>
     <path d="M -0 7.778175 
L 7.778175 0 
L 0 -7.778175 
L -7.778175 -0 
z
" id="mab679bd016" style="stroke:#f5deb3;stroke-linejoin:miter;stroke-width:1.5;"/>
    </defs>
    <g>
     <use style="fill:#f5deb3;stroke:#f5deb3;stroke-linejoin:miter;stroke-width:1.5;" x="95.085903" xlink:href="#mab679bd016" y="283.696355"/>
     <use style="fill:#f5deb3;stroke:#f5deb3;stroke-linejoin:miter;stroke-width:1.5;" x="142.541345" xlink:href="#mab679bd016" y="198.700655"/>
     <use style="fill:#f5deb3;stroke:#f5deb3;stroke-linejoin:miter;stroke-width:1.5;" x="172.174251" xlink:href="#mab679bd016" y="57.78673"/>
     <use style="fill:#f5deb3;stroke:#f5deb3;stroke-linejoin:miter;stroke-width:1.5;" x="183.38733" xlink:href="#mab679bd016" y="10.815422"/>
     <use style="fill:#f5deb3;stroke:#f5deb3;stroke-linejoin:miter;stroke-width:1.5;" x="183.38733" xlink:href="#mab679bd016" y="9.697057"/>
     <use style="fill:#f5deb3;stroke:#f5deb3;stroke-linejoin:miter;stroke-width:1.5;" x="333.168" xlink:href="#mab679bd016" y="9.697057"/>
    </g>
   </g>
   <g id="line2d_3">
    <path style="fill:none;stroke:#f5deb3;stroke-linecap:square;stroke-width:4;"/>
    <g/>
   </g>
   <g id="line2d_4">
    <path d="M 333.168 9.697057 
L 363.64328 15.400716 
" style="fill:none;stroke:#f5deb3;stroke-linecap:square;stroke-width:4;"/>
    <g>
     <use style="fill:#f5deb3;stroke:#f5deb3;stroke-linejoin:miter;stroke-width:1.5;" x="333.168" xlink:href="#mab679bd016" y="9.697057"/>
     <use style="fill:#f5deb3;stroke:#f5deb3;stroke-linejoin:miter;stroke-width:1.5;" x="363.64328" xlink:href="#mab679bd016" y="15.400716"/>
    </g>
   </g>
   <g id="matplotlib.axis_1">
    <g id="xtick_1">
     <g id="line2d_5">
      <path clip-path="url(#pf212869f97)" d="M 56.12 294.88 
L 56.12 6.845228 
" style="fill:none;stroke:#b0b0b0;stroke-linecap:square;stroke-width:0.8;"/>
     </g>
     <g id="line2d_6">
      <defs>
       <path d="M 0 0 
L 0 3.5 
" id="mda911d634c" style="stroke:#000000;stroke-width:0.8;"/>
      </defs>
      <g>
       <use style="stroke:#000000;stroke-width:0.8;" x="56.12" xlink:href="#mda911d634c" y="294.88"/>
      </g>
     </g>
     <g id="text_1">
      <!-- 0 -->
      <defs>
       <path d="M 31.78125 66.40625 
Q 24.171875 66.40625 20.328125 58.90625 
Q 16.5 51.421875 16.5 36.375 
Q 16.5 21.390625 20.328125 13.890625 
Q 24.171875 6.390625 31.78125 6.390625 
Q 39.453125 6.390625 43.28125 13.890625 
Q 47.125 21.390625 47.125 36.375 
Q 47.125 51.421875 43.28125 58.90625 
Q 39.453125 66.40625 31.78125 66.40625 
z
M 31.78125 74.21875 
Q 44.046875 74.21875 50.515625 64.515625 
Q 56.984375 54.828125 56.984375 36.375 
Q 56.984375 17.96875 50.515625 8.265625 
Q 44.046875 -1.421875 31.78125 -1.421875 
Q 19.53125 -1.421875 13.0625 8.265625 
Q 6.59375 17.96875 6.59375 36.375 
Q 6.59375 54.828125 13.0625 64.515625 
Q 19.53125 74.21875 31.78125 74.21875 
z
" id="DejaVuSans-30"/>
      </defs>
      <g transform="translate(49.7575 317.076875)scale(0.2 -0.2)">
       <use xlink:href="#DejaVuSans-30"/>
      </g>
     </g>
    </g>
    <g id="xtick_2">
     <g id="line2d_7">
      <path clip-path="url(#pf212869f97)" d="M 135.276571 294.88 
L 135.276571 6.845228 
" style="fill:none;stroke:#b0b0b0;stroke-linecap:square;stroke-width:0.8;"/>
     </g>
     <g id="line2d_8">
      <g>
       <use style="stroke:#000000;stroke-width:0.8;" x="135.276571" xlink:href="#mda911d634c" y="294.88"/>
      </g>
     </g>
     <g id="text_2">
      <!-- 2 -->
      <defs>
       <path d="M 19.1875 8.296875 
L 53.609375 8.296875 
L 53.609375 0 
L 7.328125 0 
L 7.328125 8.296875 
Q 12.9375 14.109375 22.625 23.890625 
Q 32.328125 33.6875 34.8125 36.53125 
Q 39.546875 41.84375 41.421875 45.53125 
Q 43.3125 49.21875 43.3125 52.78125 
Q 43.3125 58.59375 39.234375 62.25 
Q 35.15625 65.921875 28.609375 65.921875 
Q 23.96875 65.921875 18.8125 64.3125 
Q 13.671875 62.703125 7.8125 59.421875 
L 7.8125 69.390625 
Q 13.765625 71.78125 18.9375 73 
Q 24.125 74.21875 28.421875 74.21875 
Q 39.75 74.21875 46.484375 68.546875 
Q 53.21875 62.890625 53.21875 53.421875 
Q 53.21875 48.921875 51.53125 44.890625 
Q 49.859375 40.875 45.40625 35.40625 
Q 44.1875 33.984375 37.640625 27.21875 
Q 31.109375 20.453125 19.1875 8.296875 
z
" id="DejaVuSans-32"/>
      </defs>
      <g transform="translate(128.914071 317.076875)scale(0.2 -0.2)">
       <use xlink:href="#DejaVuSans-32"/>
      </g>
     </g>
    </g>
    <g id="xtick_3">
     <g id="line2d_9">
      <path clip-path="url(#pf212869f97)" d="M 214.433143 294.88 
L 214.433143 6.845228 
" style="fill:none;stroke:#b0b0b0;stroke-linecap:square;stroke-width:0.8;"/>
     </g>
     <g id="line2d_10">
      <g>
       <use style="stroke:#000000;stroke-width:0.8;" x="214.433143" xlink:href="#mda911d634c" y="294.88"/>
      </g>
     </g>
     <g id="text_3">
      <!-- 4 -->
      <defs>
       <path d="M 37.796875 64.3125 
L 12.890625 25.390625 
L 37.796875 25.390625 
z
M 35.203125 72.90625 
L 47.609375 72.90625 
L 47.609375 25.390625 
L 58.015625 25.390625 
L 58.015625 17.1875 
L 47.609375 17.1875 
L 47.609375 0 
L 37.796875 0 
L 37.796875 17.1875 
L 4.890625 17.1875 
L 4.890625 26.703125 
z
" id="DejaVuSans-34"/>
      </defs>
      <g transform="translate(208.070643 317.076875)scale(0.2 -0.2)">
       <use xlink:href="#DejaVuSans-34"/>
      </g>
     </g>
    </g>
    <g id="xtick_4">
     <g id="line2d_11">
      <path clip-path="url(#pf212869f97)" d="M 293.589714 294.88 
L 293.589714 6.845228 
" style="fill:none;stroke:#b0b0b0;stroke-linecap:square;stroke-width:0.8;"/>
     </g>
     <g id="line2d_12">
      <g>
       <use style="stroke:#000000;stroke-width:0.8;" x="293.589714" xlink:href="#mda911d634c" y="294.88"/>
      </g>
     </g>
     <g id="text_4">
      <!-- 6 -->
      <defs>
       <path d="M 33.015625 40.375 
Q 26.375 40.375 22.484375 35.828125 
Q 18.609375 31.296875 18.609375 23.390625 
Q 18.609375 15.53125 22.484375 10.953125 
Q 26.375 6.390625 33.015625 6.390625 
Q 39.65625 6.390625 43.53125 10.953125 
Q 47.40625 15.53125 47.40625 23.390625 
Q 47.40625 31.296875 43.53125 35.828125 
Q 39.65625 40.375 33.015625 40.375 
z
M 52.59375 71.296875 
L 52.59375 62.3125 
Q 48.875 64.0625 45.09375 64.984375 
Q 41.3125 65.921875 37.59375 65.921875 
Q 27.828125 65.921875 22.671875 59.328125 
Q 17.53125 52.734375 16.796875 39.40625 
Q 19.671875 43.65625 24.015625 45.921875 
Q 28.375 48.1875 33.59375 48.1875 
Q 44.578125 48.1875 50.953125 41.515625 
Q 57.328125 34.859375 57.328125 23.390625 
Q 57.328125 12.15625 50.6875 5.359375 
Q 44.046875 -1.421875 33.015625 -1.421875 
Q 20.359375 -1.421875 13.671875 8.265625 
Q 6.984375 17.96875 6.984375 36.375 
Q 6.984375 53.65625 15.1875 63.9375 
Q 23.390625 74.21875 37.203125 74.21875 
Q 40.921875 74.21875 44.703125 73.484375 
Q 48.484375 72.75 52.59375 71.296875 
z
" id="DejaVuSans-36"/>
      </defs>
      <g transform="translate(287.227214 317.076875)scale(0.2 -0.2)">
       <use xlink:href="#DejaVuSans-36"/>
      </g>
     </g>
    </g>
    <g id="xtick_5">
     <g id="line2d_13">
      <path clip-path="url(#pf212869f97)" d="M 56.12 294.88 
L 56.12 6.845228 
" style="fill:none;stroke:#b0b0b0;stroke-linecap:square;stroke-width:0.8;"/>
     </g>
     <g id="line2d_14">
      <defs>
       <path d="M 0 0 
L 0 2 
" id="m8e801494cf" style="stroke:#000000;stroke-width:0.6;"/>
      </defs>
      <g>
       <use style="stroke:#000000;stroke-width:0.6;" x="56.12" xlink:href="#m8e801494cf" y="294.88"/>
      </g>
     </g>
    </g>
    <g id="xtick_6">
     <g id="line2d_15">
      <path clip-path="url(#pf212869f97)" d="M 95.698286 294.88 
L 95.698286 6.845228 
" style="fill:none;stroke:#b0b0b0;stroke-linecap:square;stroke-width:0.8;"/>
     </g>
     <g id="line2d_16">
      <g>
       <use style="stroke:#000000;stroke-width:0.6;" x="95.698286" xlink:href="#m8e801494cf" y="294.88"/>
      </g>
     </g>
    </g>
    <g id="xtick_7">
     <g id="line2d_17">
      <path clip-path="url(#pf212869f97)" d="M 135.276571 294.88 
L 135.276571 6.845228 
" style="fill:none;stroke:#b0b0b0;stroke-linecap:square;stroke-width:0.8;"/>
     </g>
     <g id="line2d_18">
      <g>
       <use style="stroke:#000000;stroke-width:0.6;" x="135.276571" xlink:href="#m8e801494cf" y="294.88"/>
      </g>
     </g>
    </g>
    <g id="xtick_8">
     <g id="line2d_19">
      <path clip-path="url(#pf212869f97)" d="M 174.854857 294.88 
L 174.854857 6.845228 
" style="fill:none;stroke:#b0b0b0;stroke-linecap:square;stroke-width:0.8;"/>
     </g>
     <g id="line2d_20">
      <g>
       <use style="stroke:#000000;stroke-width:0.6;" x="174.854857" xlink:href="#m8e801494cf" y="294.88"/>
      </g>
     </g>
    </g>
    <g id="xtick_9">
     <g id="line2d_21">
      <path clip-path="url(#pf212869f97)" d="M 214.433143 294.88 
L 214.433143 6.845228 
" style="fill:none;stroke:#b0b0b0;stroke-linecap:square;stroke-width:0.8;"/>
     </g>
     <g id="line2d_22">
      <g>
       <use style="stroke:#000000;stroke-width:0.6;" x="214.433143" xlink:href="#m8e801494cf" y="294.88"/>
      </g>
     </g>
    </g>
    <g id="xtick_10">
     <g id="line2d_23">
      <path clip-path="url(#pf212869f97)" d="M 254.011429 294.88 
L 254.011429 6.845228 
" style="fill:none;stroke:#b0b0b0;stroke-linecap:square;stroke-width:0.8;"/>
     </g>
     <g id="line2d_24">
      <g>
       <use style="stroke:#000000;stroke-width:0.6;" x="254.011429" xlink:href="#m8e801494cf" y="294.88"/>
      </g>
     </g>
    </g>
    <g id="xtick_11">
     <g id="line2d_25">
      <path clip-path="url(#pf212869f97)" d="M 293.589714 294.88 
L 293.589714 6.845228 
" style="fill:none;stroke:#b0b0b0;stroke-linecap:square;stroke-width:0.8;"/>
     </g>
     <g id="line2d_26">
      <g>
       <use style="stroke:#000000;stroke-width:0.6;" x="293.589714" xlink:href="#m8e801494cf" y="294.88"/>
      </g>
     </g>
    </g>
    <g id="xtick_12">
     <g id="line2d_27">
      <path clip-path="url(#pf212869f97)" d="M 333.168 294.88 
L 333.168 6.845228 
" style="fill:none;stroke:#b0b0b0;stroke-linecap:square;stroke-width:0.8;"/>
     </g>
     <g id="line2d_28">
      <g>
       <use style="stroke:#000000;stroke-width:0.6;" x="333.168" xlink:href="#m8e801494cf" y="294.88"/>
      </g>
     </g>
    </g>
    <g id="text_5">
     <!-- log10(# f-evals / dimension) -->
     <defs>
      <path d="M 9.421875 75.984375 
L 18.40625 75.984375 
L 18.40625 0 
L 9.421875 0 
z
" id="DejaVuSans-6c"/>
      <path d="M 30.609375 48.390625 
Q 23.390625 48.390625 19.1875 42.75 
Q 14.984375 37.109375 14.984375 27.296875 
Q 14.984375 17.484375 19.15625 11.84375 
Q 23.34375 6.203125 30.609375 6.203125 
Q 37.796875 6.203125 41.984375 11.859375 
Q 46.1875 17.53125 46.1875 27.296875 
Q 46.1875 37.015625 41.984375 42.703125 
Q 37.796875 48.390625 30.609375 48.390625 
z
M 30.609375 56 
Q 42.328125 56 49.015625 48.375 
Q 55.71875 40.765625 55.71875 27.296875 
Q 55.71875 13.875 49.015625 6.21875 
Q 42.328125 -1.421875 30.609375 -1.421875 
Q 18.84375 -1.421875 12.171875 6.21875 
Q 5.515625 13.875 5.515625 27.296875 
Q 5.515625 40.765625 12.171875 48.375 
Q 18.84375 56 30.609375 56 
z
" id="DejaVuSans-6f"/>
      <path d="M 45.40625 27.984375 
Q 45.40625 37.75 41.375 43.109375 
Q 37.359375 48.484375 30.078125 48.484375 
Q 22.859375 48.484375 18.828125 43.109375 
Q 14.796875 37.75 14.796875 27.984375 
Q 14.796875 18.265625 18.828125 12.890625 
Q 22.859375 7.515625 30.078125 7.515625 
Q 37.359375 7.515625 41.375 12.890625 
Q 45.40625 18.265625 45.40625 27.984375 
z
M 54.390625 6.78125 
Q 54.390625 -7.171875 48.1875 -13.984375 
Q 42 -20.796875 29.203125 -20.796875 
Q 24.46875 -20.796875 20.265625 -20.09375 
Q 16.0625 -19.390625 12.109375 -17.921875 
L 12.109375 -9.1875 
Q 16.0625 -11.328125 19.921875 -12.34375 
Q 23.78125 -13.375 27.78125 -13.375 
Q 36.625 -13.375 41.015625 -8.765625 
Q 45.40625 -4.15625 45.40625 5.171875 
L 45.40625 9.625 
Q 42.625 4.78125 38.28125 2.390625 
Q 33.9375 0 27.875 0 
Q 17.828125 0 11.671875 7.65625 
Q 5.515625 15.328125 5.515625 27.984375 
Q 5.515625 40.671875 11.671875 48.328125 
Q 17.828125 56 27.875 56 
Q 33.9375 56 38.28125 53.609375 
Q 42.625 51.21875 45.40625 46.390625 
L 45.40625 54.6875 
L 54.390625 54.6875 
z
" id="DejaVuSans-67"/>
      <path d="M 12.40625 8.296875 
L 28.515625 8.296875 
L 28.515625 63.921875 
L 10.984375 60.40625 
L 10.984375 69.390625 
L 28.421875 72.90625 
L 38.28125 72.90625 
L 38.28125 8.296875 
L 54.390625 8.296875 
L 54.390625 0 
L 12.40625 0 
z
" id="DejaVuSans-31"/>
      <path d="M 31 75.875 
Q 24.46875 64.65625 21.28125 53.65625 
Q 18.109375 42.671875 18.109375 31.390625 
Q 18.109375 20.125 21.3125 9.0625 
Q 24.515625 -2 31 -13.1875 
L 23.1875 -13.1875 
Q 15.875 -1.703125 12.234375 9.375 
Q 8.59375 20.453125 8.59375 31.390625 
Q 8.59375 42.28125 12.203125 53.3125 
Q 15.828125 64.359375 23.1875 75.875 
z
" id="DejaVuSans-28"/>
      <path d="M 51.125 44 
L 36.921875 44 
L 32.8125 27.6875 
L 47.125 27.6875 
z
M 43.796875 71.78125 
L 38.71875 51.515625 
L 52.984375 51.515625 
L 58.109375 71.78125 
L 65.921875 71.78125 
L 60.890625 51.515625 
L 76.125 51.515625 
L 76.125 44 
L 58.984375 44 
L 54.984375 27.6875 
L 70.515625 27.6875 
L 70.515625 20.21875 
L 53.078125 20.21875 
L 48 0 
L 40.1875 0 
L 45.21875 20.21875 
L 30.90625 20.21875 
L 25.875 0 
L 18.015625 0 
L 23.09375 20.21875 
L 7.71875 20.21875 
L 7.71875 27.6875 
L 24.90625 27.6875 
L 29 44 
L 13.28125 44 
L 13.28125 51.515625 
L 30.90625 51.515625 
L 35.890625 71.78125 
z
" id="DejaVuSans-23"/>
      <path id="DejaVuSans-20"/>
      <path d="M 37.109375 75.984375 
L 37.109375 68.5 
L 28.515625 68.5 
Q 23.6875 68.5 21.796875 66.546875 
Q 19.921875 64.59375 19.921875 59.515625 
L 19.921875 54.6875 
L 34.71875 54.6875 
L 34.71875 47.703125 
L 19.921875 47.703125 
L 19.921875 0 
L 10.890625 0 
L 10.890625 47.703125 
L 2.296875 47.703125 
L 2.296875 54.6875 
L 10.890625 54.6875 
L 10.890625 58.5 
Q 10.890625 67.625 15.140625 71.796875 
Q 19.390625 75.984375 28.609375 75.984375 
z
" id="DejaVuSans-66"/>
      <path d="M 4.890625 31.390625 
L 31.203125 31.390625 
L 31.203125 23.390625 
L 4.890625 23.390625 
z
" id="DejaVuSans-2d"/>
      <path d="M 56.203125 29.59375 
L 56.203125 25.203125 
L 14.890625 25.203125 
Q 15.484375 15.921875 20.484375 11.0625 
Q 25.484375 6.203125 34.421875 6.203125 
Q 39.59375 6.203125 44.453125 7.46875 
Q 49.3125 8.734375 54.109375 11.28125 
L 54.109375 2.78125 
Q 49.265625 0.734375 44.1875 -0.34375 
Q 39.109375 -1.421875 33.890625 -1.421875 
Q 20.796875 -1.421875 13.15625 6.1875 
Q 5.515625 13.8125 5.515625 26.8125 
Q 5.515625 40.234375 12.765625 48.109375 
Q 20.015625 56 32.328125 56 
Q 43.359375 56 49.78125 48.890625 
Q 56.203125 41.796875 56.203125 29.59375 
z
M 47.21875 32.234375 
Q 47.125 39.59375 43.09375 43.984375 
Q 39.0625 48.390625 32.421875 48.390625 
Q 24.90625 48.390625 20.390625 44.140625 
Q 15.875 39.890625 15.1875 32.171875 
z
" id="DejaVuSans-65"/>
      <path d="M 2.984375 54.6875 
L 12.5 54.6875 
L 29.59375 8.796875 
L 46.6875 54.6875 
L 56.203125 54.6875 
L 35.6875 0 
L 23.484375 0 
z
" id="DejaVuSans-76"/>
      <path d="M 34.28125 27.484375 
Q 23.390625 27.484375 19.1875 25 
Q 14.984375 22.515625 14.984375 16.5 
Q 14.984375 11.71875 18.140625 8.90625 
Q 21.296875 6.109375 26.703125 6.109375 
Q 34.1875 6.109375 38.703125 11.40625 
Q 43.21875 16.703125 43.21875 25.484375 
L 43.21875 27.484375 
z
M 52.203125 31.203125 
L 52.203125 0 
L 43.21875 0 
L 43.21875 8.296875 
Q 40.140625 3.328125 35.546875 0.953125 
Q 30.953125 -1.421875 24.3125 -1.421875 
Q 15.921875 -1.421875 10.953125 3.296875 
Q 6 8.015625 6 15.921875 
Q 6 25.140625 12.171875 29.828125 
Q 18.359375 34.515625 30.609375 34.515625 
L 43.21875 34.515625 
L 43.21875 35.40625 
Q 43.21875 41.609375 39.140625 45 
Q 35.0625 48.390625 27.6875 48.390625 
Q 23 48.390625 18.546875 47.265625 
Q 14.109375 46.140625 10.015625 43.890625 
L 10.015625 52.203125 
Q 14.9375 54.109375 19.578125 55.046875 
Q 24.21875 56 28.609375 56 
Q 40.484375 56 46.34375 49.84375 
Q 52.203125 43.703125 52.203125 31.203125 
z
" id="DejaVuSans-61"/>
      <path d="M 44.28125 53.078125 
L 44.28125 44.578125 
Q 40.484375 46.53125 36.375 47.5 
Q 32.28125 48.484375 27.875 48.484375 
Q 21.1875 48.484375 17.84375 46.4375 
Q 14.5 44.390625 14.5 40.28125 
Q 14.5 37.15625 16.890625 35.375 
Q 19.28125 33.59375 26.515625 31.984375 
L 29.59375 31.296875 
Q 39.15625 29.25 43.1875 25.515625 
Q 47.21875 21.78125 47.21875 15.09375 
Q 47.21875 7.46875 41.1875 3.015625 
Q 35.15625 -1.421875 24.609375 -1.421875 
Q 20.21875 -1.421875 15.453125 -0.5625 
Q 10.6875 0.296875 5.421875 2 
L 5.421875 11.28125 
Q 10.40625 8.6875 15.234375 7.390625 
Q 20.0625 6.109375 24.8125 6.109375 
Q 31.15625 6.109375 34.5625 8.28125 
Q 37.984375 10.453125 37.984375 14.40625 
Q 37.984375 18.0625 35.515625 20.015625 
Q 33.0625 21.96875 24.703125 23.78125 
L 21.578125 24.515625 
Q 13.234375 26.265625 9.515625 29.90625 
Q 5.8125 33.546875 5.8125 39.890625 
Q 5.8125 47.609375 11.28125 51.796875 
Q 16.75 56 26.8125 56 
Q 31.78125 56 36.171875 55.265625 
Q 40.578125 54.546875 44.28125 53.078125 
z
" id="DejaVuSans-73"/>
      <path d="M 25.390625 72.90625 
L 33.6875 72.90625 
L 8.296875 -9.28125 
L 0 -9.28125 
z
" id="DejaVuSans-2f"/>
      <path d="M 45.40625 46.390625 
L 45.40625 75.984375 
L 54.390625 75.984375 
L 54.390625 0 
L 45.40625 0 
L 45.40625 8.203125 
Q 42.578125 3.328125 38.25 0.953125 
Q 33.9375 -1.421875 27.875 -1.421875 
Q 17.96875 -1.421875 11.734375 6.484375 
Q 5.515625 14.40625 5.515625 27.296875 
Q 5.515625 40.1875 11.734375 48.09375 
Q 17.96875 56 27.875 56 
Q 33.9375 56 38.25 53.625 
Q 42.578125 51.265625 45.40625 46.390625 
z
M 14.796875 27.296875 
Q 14.796875 17.390625 18.875 11.75 
Q 22.953125 6.109375 30.078125 6.109375 
Q 37.203125 6.109375 41.296875 11.75 
Q 45.40625 17.390625 45.40625 27.296875 
Q 45.40625 37.203125 41.296875 42.84375 
Q 37.203125 48.484375 30.078125 48.484375 
Q 22.953125 48.484375 18.875 42.84375 
Q 14.796875 37.203125 14.796875 27.296875 
z
" id="DejaVuSans-64"/>
      <path d="M 9.421875 54.6875 
L 18.40625 54.6875 
L 18.40625 0 
L 9.421875 0 
z
M 9.421875 75.984375 
L 18.40625 75.984375 
L 18.40625 64.59375 
L 9.421875 64.59375 
z
" id="DejaVuSans-69"/>
      <path d="M 52 44.1875 
Q 55.375 50.25 60.0625 53.125 
Q 64.75 56 71.09375 56 
Q 79.640625 56 84.28125 50.015625 
Q 88.921875 44.046875 88.921875 33.015625 
L 88.921875 0 
L 79.890625 0 
L 79.890625 32.71875 
Q 79.890625 40.578125 77.09375 44.375 
Q 74.3125 48.1875 68.609375 48.1875 
Q 61.625 48.1875 57.5625 43.546875 
Q 53.515625 38.921875 53.515625 30.90625 
L 53.515625 0 
L 44.484375 0 
L 44.484375 32.71875 
Q 44.484375 40.625 41.703125 44.40625 
Q 38.921875 48.1875 33.109375 48.1875 
Q 26.21875 48.1875 22.15625 43.53125 
Q 18.109375 38.875 18.109375 30.90625 
L 18.109375 0 
L 9.078125 0 
L 9.078125 54.6875 
L 18.109375 54.6875 
L 18.109375 46.1875 
Q 21.1875 51.21875 25.484375 53.609375 
Q 29.78125 56 35.6875 56 
Q 41.65625 56 45.828125 52.96875 
Q 50 49.953125 52 44.1875 
z
" id="DejaVuSans-6d"/>
      <path d="M 54.890625 33.015625 
L 54.890625 0 
L 45.90625 0 
L 45.90625 32.71875 
Q 45.90625 40.484375 42.875 44.328125 
Q 39.84375 48.1875 33.796875 48.1875 
Q 26.515625 48.1875 22.3125 43.546875 
Q 18.109375 38.921875 18.109375 30.90625 
L 18.109375 0 
L 9.078125 0 
L 9.078125 54.6875 
L 18.109375 54.6875 
L 18.109375 46.1875 
Q 21.34375 51.125 25.703125 53.5625 
Q 30.078125 56 35.796875 56 
Q 45.21875 56 50.046875 50.171875 
Q 54.890625 44.34375 54.890625 33.015625 
z
" id="DejaVuSans-6e"/>
      <path d="M 8.015625 75.875 
L 15.828125 75.875 
Q 23.140625 64.359375 26.78125 53.3125 
Q 30.421875 42.28125 30.421875 31.390625 
Q 30.421875 20.453125 26.78125 9.375 
Q 23.140625 -1.703125 15.828125 -13.1875 
L 8.015625 -13.1875 
Q 14.5 -2 17.703125 9.0625 
Q 20.90625 20.125 20.90625 31.390625 
Q 20.90625 42.671875 17.703125 53.65625 
Q 14.5 64.65625 8.015625 75.875 
z
" id="DejaVuSans-29"/>
     </defs>
     <g transform="translate(73.803219 338.153594)scale(0.17 -0.17)">
      <use xlink:href="#DejaVuSans-6c"/>
      <use x="27.783203" xlink:href="#DejaVuSans-6f"/>
      <use x="88.964844" xlink:href="#DejaVuSans-67"/>
      <use x="152.441406" xlink:href="#DejaVuSans-31"/>
      <use x="216.064453" xlink:href="#DejaVuSans-30"/>
      <use x="279.6875" xlink:href="#DejaVuSans-28"/>
      <use x="318.701172" xlink:href="#DejaVuSans-23"/>
      <use x="402.490234" xlink:href="#DejaVuSans-20"/>
      <use x="434.277344" xlink:href="#DejaVuSans-66"/>
      <use x="469.404297" xlink:href="#DejaVuSans-2d"/>
      <use x="505.488281" xlink:href="#DejaVuSans-65"/>
      <use x="567.011719" xlink:href="#DejaVuSans-76"/>
      <use x="626.191406" xlink:href="#DejaVuSans-61"/>
      <use x="687.470703" xlink:href="#DejaVuSans-6c"/>
      <use x="715.253906" xlink:href="#DejaVuSans-73"/>
      <use x="767.353516" xlink:href="#DejaVuSans-20"/>
      <use x="799.140625" xlink:href="#DejaVuSans-2f"/>
      <use x="832.832031" xlink:href="#DejaVuSans-20"/>
      <use x="864.619141" xlink:href="#DejaVuSans-64"/>
      <use x="928.095703" xlink:href="#DejaVuSans-69"/>
      <use x="955.878906" xlink:href="#DejaVuSans-6d"/>
      <use x="1053.291016" xlink:href="#DejaVuSans-65"/>
      <use x="1114.814453" xlink:href="#DejaVuSans-6e"/>
      <use x="1178.193359" xlink:href="#DejaVuSans-73"/>
      <use x="1230.292969" xlink:href="#DejaVuSans-69"/>
      <use x="1258.076172" xlink:href="#DejaVuSans-6f"/>
      <use x="1319.257812" xlink:href="#DejaVuSans-6e"/>
      <use x="1382.636719" xlink:href="#DejaVuSans-29"/>
     </g>
    </g>
   </g>
   <g id="matplotlib.axis_2">
    <g id="ytick_1">
     <g id="line2d_29">
      <path clip-path="url(#pf212869f97)" d="M 56.12 294.88 
L 333.168 294.88 
" style="fill:none;stroke:#b0b0b0;stroke-linecap:square;stroke-width:0.8;"/>
     </g>
     <g id="line2d_30">
      <defs>
       <path d="M 0 0 
L -3.5 0 
" id="m1e1e5c9f52" style="stroke:#000000;stroke-width:0.8;"/>
      </defs>
      <g>
       <use style="stroke:#000000;stroke-width:0.8;" x="56.12" xlink:href="#m1e1e5c9f52" y="294.88"/>
      </g>
     </g>
     <g id="text_6">
      <!-- 0.0 -->
      <defs>
       <path d="M 10.6875 12.40625 
L 21 12.40625 
L 21 0 
L 10.6875 0 
z
" id="DejaVuSans-2e"/>
      </defs>
      <g transform="translate(23.675 300.95875)scale(0.16 -0.16)">
       <use xlink:href="#DejaVuSans-30"/>
       <use x="63.623047" xlink:href="#DejaVuSans-2e"/>
       <use x="95.410156" xlink:href="#DejaVuSans-30"/>
      </g>
     </g>
    </g>
    <g id="ytick_2">
     <g id="line2d_31">
      <path clip-path="url(#pf212869f97)" d="M 56.12 237.843411 
L 333.168 237.843411 
" style="fill:none;stroke:#b0b0b0;stroke-linecap:square;stroke-width:0.8;"/>
     </g>
     <g id="line2d_32">
      <g>
       <use style="stroke:#000000;stroke-width:0.8;" x="56.12" xlink:href="#m1e1e5c9f52" y="237.843411"/>
      </g>
     </g>
     <g id="text_7">
      <!-- 0.2 -->
      <g transform="translate(23.675 243.922161)scale(0.16 -0.16)">
       <use xlink:href="#DejaVuSans-30"/>
       <use x="63.623047" xlink:href="#DejaVuSans-2e"/>
       <use x="95.410156" xlink:href="#DejaVuSans-32"/>
      </g>
     </g>
    </g>
    <g id="ytick_3">
     <g id="line2d_33">
      <path clip-path="url(#pf212869f97)" d="M 56.12 180.806823 
L 333.168 180.806823 
" style="fill:none;stroke:#b0b0b0;stroke-linecap:square;stroke-width:0.8;"/>
     </g>
     <g id="line2d_34">
      <g>
       <use style="stroke:#000000;stroke-width:0.8;" x="56.12" xlink:href="#m1e1e5c9f52" y="180.806823"/>
      </g>
     </g>
     <g id="text_8">
      <!-- 0.4 -->
      <g transform="translate(23.675 186.885573)scale(0.16 -0.16)">
       <use xlink:href="#DejaVuSans-30"/>
       <use x="63.623047" xlink:href="#DejaVuSans-2e"/>
       <use x="95.410156" xlink:href="#DejaVuSans-34"/>
      </g>
     </g>
    </g>
    <g id="ytick_4">
     <g id="line2d_35">
      <path clip-path="url(#pf212869f97)" d="M 56.12 123.770234 
L 333.168 123.770234 
" style="fill:none;stroke:#b0b0b0;stroke-linecap:square;stroke-width:0.8;"/>
     </g>
     <g id="line2d_36">
      <g>
       <use style="stroke:#000000;stroke-width:0.8;" x="56.12" xlink:href="#m1e1e5c9f52" y="123.770234"/>
      </g>
     </g>
     <g id="text_9">
      <!-- 0.6 -->
      <g transform="translate(23.675 129.848984)scale(0.16 -0.16)">
       <use xlink:href="#DejaVuSans-30"/>
       <use x="63.623047" xlink:href="#DejaVuSans-2e"/>
       <use x="95.410156" xlink:href="#DejaVuSans-36"/>
      </g>
     </g>
    </g>
    <g id="ytick_5">
     <g id="line2d_37">
      <path clip-path="url(#pf212869f97)" d="M 56.12 66.733646 
L 333.168 66.733646 
" style="fill:none;stroke:#b0b0b0;stroke-linecap:square;stroke-width:0.8;"/>
     </g>
     <g id="line2d_38">
      <g>
       <use style="stroke:#000000;stroke-width:0.8;" x="56.12" xlink:href="#m1e1e5c9f52" y="66.733646"/>
      </g>
     </g>
     <g id="text_10">
      <!-- 0.8 -->
      <defs>
       <path d="M 31.78125 34.625 
Q 24.75 34.625 20.71875 30.859375 
Q 16.703125 27.09375 16.703125 20.515625 
Q 16.703125 13.921875 20.71875 10.15625 
Q 24.75 6.390625 31.78125 6.390625 
Q 38.8125 6.390625 42.859375 10.171875 
Q 46.921875 13.96875 46.921875 20.515625 
Q 46.921875 27.09375 42.890625 30.859375 
Q 38.875 34.625 31.78125 34.625 
z
M 21.921875 38.8125 
Q 15.578125 40.375 12.03125 44.71875 
Q 8.5 49.078125 8.5 55.328125 
Q 8.5 64.0625 14.71875 69.140625 
Q 20.953125 74.21875 31.78125 74.21875 
Q 42.671875 74.21875 48.875 69.140625 
Q 55.078125 64.0625 55.078125 55.328125 
Q 55.078125 49.078125 51.53125 44.71875 
Q 48 40.375 41.703125 38.8125 
Q 48.828125 37.15625 52.796875 32.3125 
Q 56.78125 27.484375 56.78125 20.515625 
Q 56.78125 9.90625 50.3125 4.234375 
Q 43.84375 -1.421875 31.78125 -1.421875 
Q 19.734375 -1.421875 13.25 4.234375 
Q 6.78125 9.90625 6.78125 20.515625 
Q 6.78125 27.484375 10.78125 32.3125 
Q 14.796875 37.15625 21.921875 38.8125 
z
M 18.3125 54.390625 
Q 18.3125 48.734375 21.84375 45.5625 
Q 25.390625 42.390625 31.78125 42.390625 
Q 38.140625 42.390625 41.71875 45.5625 
Q 45.3125 48.734375 45.3125 54.390625 
Q 45.3125 60.0625 41.71875 63.234375 
Q 38.140625 66.40625 31.78125 66.40625 
Q 25.390625 66.40625 21.84375 63.234375 
Q 18.3125 60.0625 18.3125 54.390625 
z
" id="DejaVuSans-38"/>
      </defs>
      <g transform="translate(23.675 72.812396)scale(0.16 -0.16)">
       <use xlink:href="#DejaVuSans-30"/>
       <use x="63.623047" xlink:href="#DejaVuSans-2e"/>
       <use x="95.410156" xlink:href="#DejaVuSans-38"/>
      </g>
     </g>
    </g>
    <g id="ytick_6">
     <g id="line2d_39">
      <path clip-path="url(#pf212869f97)" d="M 56.12 9.697057 
L 333.168 9.697057 
" style="fill:none;stroke:#b0b0b0;stroke-linecap:square;stroke-width:0.8;"/>
     </g>
     <g id="line2d_40">
      <g>
       <use style="stroke:#000000;stroke-width:0.8;" x="56.12" xlink:href="#m1e1e5c9f52" y="9.697057"/>
      </g>
     </g>
     <g id="text_11">
      <!-- 1.0 -->
      <g transform="translate(23.675 15.775807)scale(0.16 -0.16)">
       <use xlink:href="#DejaVuSans-31"/>
       <use x="63.623047" xlink:href="#DejaVuSans-2e"/>
       <use x="95.410156" xlink:href="#DejaVuSans-30"/>
      </g>
     </g>
    </g>
    <g id="text_12">
     <!-- Fraction of function,target pairs -->
     <defs>
      <path d="M 9.8125 72.90625 
L 51.703125 72.90625 
L 51.703125 64.59375 
L 19.671875 64.59375 
L 19.671875 43.109375 
L 48.578125 43.109375 
L 48.578125 34.8125 
L 19.671875 34.8125 
L 19.671875 0 
L 9.8125 0 
z
" id="DejaVuSans-46"/>
      <path d="M 41.109375 46.296875 
Q 39.59375 47.171875 37.8125 47.578125 
Q 36.03125 48 33.890625 48 
Q 26.265625 48 22.1875 43.046875 
Q 18.109375 38.09375 18.109375 28.8125 
L 18.109375 0 
L 9.078125 0 
L 9.078125 54.6875 
L 18.109375 54.6875 
L 18.109375 46.1875 
Q 20.953125 51.171875 25.484375 53.578125 
Q 30.03125 56 36.53125 56 
Q 37.453125 56 38.578125 55.875 
Q 39.703125 55.765625 41.0625 55.515625 
z
" id="DejaVuSans-72"/>
      <path d="M 48.78125 52.59375 
L 48.78125 44.1875 
Q 44.96875 46.296875 41.140625 47.34375 
Q 37.3125 48.390625 33.40625 48.390625 
Q 24.65625 48.390625 19.8125 42.84375 
Q 14.984375 37.3125 14.984375 27.296875 
Q 14.984375 17.28125 19.8125 11.734375 
Q 24.65625 6.203125 33.40625 6.203125 
Q 37.3125 6.203125 41.140625 7.25 
Q 44.96875 8.296875 48.78125 10.40625 
L 48.78125 2.09375 
Q 45.015625 0.34375 40.984375 -0.53125 
Q 36.96875 -1.421875 32.421875 -1.421875 
Q 20.0625 -1.421875 12.78125 6.34375 
Q 5.515625 14.109375 5.515625 27.296875 
Q 5.515625 40.671875 12.859375 48.328125 
Q 20.21875 56 33.015625 56 
Q 37.15625 56 41.109375 55.140625 
Q 45.0625 54.296875 48.78125 52.59375 
z
" id="DejaVuSans-63"/>
      <path d="M 18.3125 70.21875 
L 18.3125 54.6875 
L 36.8125 54.6875 
L 36.8125 47.703125 
L 18.3125 47.703125 
L 18.3125 18.015625 
Q 18.3125 11.328125 20.140625 9.421875 
Q 21.96875 7.515625 27.59375 7.515625 
L 36.8125 7.515625 
L 36.8125 0 
L 27.59375 0 
Q 17.1875 0 13.234375 3.875 
Q 9.28125 7.765625 9.28125 18.015625 
L 9.28125 47.703125 
L 2.6875 47.703125 
L 2.6875 54.6875 
L 9.28125 54.6875 
L 9.28125 70.21875 
z
" id="DejaVuSans-74"/>
      <path d="M 8.5 21.578125 
L 8.5 54.6875 
L 17.484375 54.6875 
L 17.484375 21.921875 
Q 17.484375 14.15625 20.5 10.265625 
Q 23.53125 6.390625 29.59375 6.390625 
Q 36.859375 6.390625 41.078125 11.03125 
Q 45.3125 15.671875 45.3125 23.6875 
L 45.3125 54.6875 
L 54.296875 54.6875 
L 54.296875 0 
L 45.3125 0 
L 45.3125 8.40625 
Q 42.046875 3.421875 37.71875 1 
Q 33.40625 -1.421875 27.6875 -1.421875 
Q 18.265625 -1.421875 13.375 4.4375 
Q 8.5 10.296875 8.5 21.578125 
z
M 31.109375 56 
z
" id="DejaVuSans-75"/>
      <path d="M 11.71875 12.40625 
L 22.015625 12.40625 
L 22.015625 4 
L 14.015625 -11.625 
L 7.71875 -11.625 
L 11.71875 4 
z
" id="DejaVuSans-2c"/>
      <path d="M 18.109375 8.203125 
L 18.109375 -20.796875 
L 9.078125 -20.796875 
L 9.078125 54.6875 
L 18.109375 54.6875 
L 18.109375 46.390625 
Q 20.953125 51.265625 25.265625 53.625 
Q 29.59375 56 35.59375 56 
Q 45.5625 56 51.78125 48.09375 
Q 58.015625 40.1875 58.015625 27.296875 
Q 58.015625 14.40625 51.78125 6.484375 
Q 45.5625 -1.421875 35.59375 -1.421875 
Q 29.59375 -1.421875 25.265625 0.953125 
Q 20.953125 3.328125 18.109375 8.203125 
z
M 48.6875 27.296875 
Q 48.6875 37.203125 44.609375 42.84375 
Q 40.53125 48.484375 33.40625 48.484375 
Q 26.265625 48.484375 22.1875 42.84375 
Q 18.109375 37.203125 18.109375 27.296875 
Q 18.109375 17.390625 22.1875 11.75 
Q 26.265625 6.109375 33.40625 6.109375 
Q 40.53125 6.109375 44.609375 11.75 
Q 48.6875 17.390625 48.6875 27.296875 
z
" id="DejaVuSans-70"/>
     </defs>
     <g transform="translate(16.139531 286.001989)rotate(-90)scale(0.17 -0.17)">
      <use xlink:href="#DejaVuSans-46"/>
      <use x="57.410156" xlink:href="#DejaVuSans-72"/>
      <use x="98.523438" xlink:href="#DejaVuSans-61"/>
      <use x="159.802734" xlink:href="#DejaVuSans-63"/>
      <use x="214.783203" xlink:href="#DejaVuSans-74"/>
      <use x="253.992188" xlink:href="#DejaVuSans-69"/>
      <use x="281.775391" xlink:href="#DejaVuSans-6f"/>
      <use x="342.957031" xlink:href="#DejaVuSans-6e"/>
      <use x="406.335938" xlink:href="#DejaVuSans-20"/>
      <use x="438.123047" xlink:href="#DejaVuSans-6f"/>
      <use x="499.304688" xlink:href="#DejaVuSans-66"/>
      <use x="534.509766" xlink:href="#DejaVuSans-20"/>
      <use x="566.296875" xlink:href="#DejaVuSans-66"/>
      <use x="601.501953" xlink:href="#DejaVuSans-75"/>
      <use x="664.880859" xlink:href="#DejaVuSans-6e"/>
      <use x="728.259766" xlink:href="#DejaVuSans-63"/>
      <use x="783.240234" xlink:href="#DejaVuSans-74"/>
      <use x="822.449219" xlink:href="#DejaVuSans-69"/>
      <use x="850.232422" xlink:href="#DejaVuSans-6f"/>
      <use x="911.414062" xlink:href="#DejaVuSans-6e"/>
      <use x="974.792969" xlink:href="#DejaVuSans-2c"/>
      <use x="1006.580078" xlink:href="#DejaVuSans-74"/>
      <use x="1045.789062" xlink:href="#DejaVuSans-61"/>
      <use x="1107.068359" xlink:href="#DejaVuSans-72"/>
      <use x="1148.166016" xlink:href="#DejaVuSans-67"/>
      <use x="1211.642578" xlink:href="#DejaVuSans-65"/>
      <use x="1273.166016" xlink:href="#DejaVuSans-74"/>
      <use x="1312.375" xlink:href="#DejaVuSans-20"/>
      <use x="1344.162109" xlink:href="#DejaVuSans-70"/>
      <use x="1407.638672" xlink:href="#DejaVuSans-61"/>
      <use x="1468.917969" xlink:href="#DejaVuSans-69"/>
      <use x="1496.701172" xlink:href="#DejaVuSans-72"/>
      <use x="1537.814453" xlink:href="#DejaVuSans-73"/>
     </g>
    </g>
   </g>
   <g id="line2d_41">
    <defs>
     <path d="M 0 1.5 
C 0.397805 1.5 0.77937 1.341951 1.06066 1.06066 
C 1.341951 0.77937 1.5 0.397805 1.5 0 
C 1.5 -0.397805 1.341951 -0.77937 1.06066 -1.06066 
C 0.77937 -1.341951 0.397805 -1.5 0 -1.5 
C -0.397805 -1.5 -0.77937 -1.341951 -1.06066 -1.06066 
C -1.341951 -0.77937 -1.5 -0.397805 -1.5 0 
C -1.5 0.397805 -1.341951 0.77937 -1.06066 1.06066 
C -0.77937 1.341951 -0.397805 1.5 0 1.5 
z
" id="m723b9f4013" style="stroke:#f5deb3;"/>
    </defs>
    <g>
     <use style="fill:#f5deb3;stroke:#f5deb3;" x="183.38733" xlink:href="#m723b9f4013" y="9.697057"/>
     <use style="fill:#f5deb3;stroke:#f5deb3;" x="183.38733" xlink:href="#m723b9f4013" y="9.697057"/>
    </g>
   </g>
   <g id="line2d_42">
    <defs>
     <path d="M 0 1.5 
C 0.397805 1.5 0.77937 1.341951 1.06066 1.06066 
C 1.341951 0.77937 1.5 0.397805 1.5 0 
C 1.5 -0.397805 1.341951 -0.77937 1.06066 -1.06066 
C 0.77937 -1.341951 0.397805 -1.5 0 -1.5 
C -0.397805 -1.5 -0.77937 -1.341951 -1.06066 -1.06066 
C -1.341951 -0.77937 -1.5 -0.397805 -1.5 0 
C -1.5 0.397805 -1.341951 0.77937 -1.06066 1.06066 
C -0.77937 1.341951 -0.397805 1.5 0 1.5 
z
" id="meeaedfc4da" style="stroke:#000080;"/>
    </defs>
    <g>
     <use style="fill:#000080;stroke:#000080;" x="306.053453" xlink:href="#meeaedfc4da" y="75.680562"/>
     <use style="fill:#000080;stroke:#000080;" x="306.053453" xlink:href="#meeaedfc4da" y="75.680562"/>
    </g>
   </g>
   <g id="line2d_43">
    <path d="M 4.627463 294.88 
L 4.627463 294.320818 
L 57.758252 294.320818 
L 57.758252 293.649799 
L 69.277344 293.649799 
L 69.277344 292.755107 
L 76.11297 292.755107 
L 76.11297 291.860416 
L 80.990557 291.860416 
L 80.990557 290.965724 
L 84.785597 290.965724 
L 84.785597 289.959196 
L 87.892408 289.959196 
L 87.892408 289.51185 
L 92.8034 289.51185 
L 92.8034 289.176341 
L 94.816624 289.176341 
L 94.816624 287.94614 
L 96.618578 287.94614 
L 96.618578 287.386958 
L 98.249422 287.386958 
L 98.249422 286.827776 
L 99.738854 286.827776 
L 99.738854 286.268593 
L 101.109451 286.268593 
L 101.109451 285.373902 
L 102.378785 285.373902 
L 102.378785 284.702883 
L 103.560793 284.702883 
L 103.560793 283.808192 
L 104.666722 283.808192 
L 104.666722 282.466154 
L 105.705775 282.466154 
L 105.705775 281.795136 
L 106.685583 281.795136 
L 106.685583 281.124117 
L 107.612537 281.124117 
L 107.612537 280.229425 
L 108.49205 280.229425 
L 108.49205 278.887388 
L 109.328742 278.887388 
L 109.328742 277.769023 
L 110.126589 277.769023 
L 110.126589 276.31515 
L 110.88904 276.31515 
L 110.88904 275.196785 
L 111.619102 275.196785 
L 111.619102 273.854748 
L 112.319414 273.854748 
L 112.319414 272.736383 
L 112.992308 272.736383 
L 112.992308 272.065365 
L 113.639848 272.065365 
L 113.639848 271.394346 
L 114.263878 271.394346 
L 114.263878 270.387818 
L 114.866043 270.387818 
L 114.866043 268.598435 
L 115.447825 268.598435 
L 115.447825 267.703743 
L 116.010559 267.703743 
L 116.010559 266.920888 
L 116.555451 266.920888 
L 116.555451 266.026196 
L 117.0836 266.026196 
L 117.0836 265.467014 
L 117.596003 265.467014 
L 117.596003 264.124977 
L 118.093572 264.124977 
L 118.093572 263.342122 
L 118.577142 263.342122 
L 118.577142 262.111921 
L 119.04748 262.111921 
L 119.04748 261.552738 
L 119.505289 261.552738 
L 119.505289 261.105393 
L 119.95122 261.105393 
L 119.95122 259.875192 
L 120.385875 259.875192 
L 120.385875 259.204173 
L 120.809808 259.204173 
L 120.809808 258.309481 
L 121.223538 258.309481 
L 121.223538 257.302953 
L 121.627542 257.302953 
L 121.627542 256.072752 
L 122.022268 256.072752 
L 122.022268 254.842552 
L 122.408133 254.842552 
L 122.408133 253.276841 
L 122.785525 253.276841 
L 122.785525 252.493986 
L 123.154809 252.493986 
L 123.154809 251.263785 
L 123.516326 251.263785 
L 123.516326 250.145421 
L 123.870396 250.145421 
L 123.870396 248.57971 
L 124.217319 248.57971 
L 124.217319 247.237673 
L 124.557378 247.237673 
L 124.557378 246.231145 
L 124.89084 246.231145 
L 124.89084 245.112781 
L 125.217956 245.112781 
L 125.217956 243.994416 
L 125.538962 243.994416 
L 125.538962 242.764215 
L 125.854083 242.764215 
L 125.854083 241.645851 
L 126.163531 241.645851 
L 126.163531 240.191977 
L 126.467507 240.191977 
L 126.467507 239.520958 
L 126.766199 239.520958 
L 126.766199 238.51443 
L 127.05979 238.51443 
L 127.05979 237.619739 
L 127.348451 237.619739 
L 127.348451 236.725047 
L 127.632343 236.725047 
L 127.632343 235.942192 
L 127.911623 235.942192 
L 127.911623 235.271173 
L 128.186438 235.271173 
L 128.186438 234.376482 
L 128.456928 234.376482 
L 128.456928 233.705463 
L 128.723227 233.705463 
L 128.723227 232.251589 
L 128.985463 232.251589 
L 128.985463 231.692407 
L 129.243759 231.692407 
L 129.243759 231.021388 
L 129.49823 231.021388 
L 129.49823 230.238533 
L 129.748989 230.238533 
L 129.748989 230.01486 
L 129.996143 230.01486 
L 129.996143 229.455678 
L 130.239792 229.455678 
L 130.239792 228.784659 
L 130.480037 228.784659 
L 130.480037 228.225477 
L 130.716969 228.225477 
L 130.716969 227.554458 
L 130.950681 227.554458 
L 130.950681 226.659767 
L 131.181257 226.659767 
L 131.181257 225.765075 
L 131.40878 225.765075 
L 131.40878 224.870383 
L 131.633332 224.870383 
L 131.633332 224.423038 
L 131.854987 224.423038 
L 131.854987 223.975692 
L 132.073821 223.975692 
L 132.073821 223.41651 
L 132.289904 223.41651 
L 132.289904 222.857327 
L 132.503304 222.857327 
L 132.503304 222.633654 
L 132.714086 222.633654 
L 132.714086 222.186309 
L 132.922316 222.186309 
L 132.922316 221.738963 
L 133.128053 221.738963 
L 133.128053 221.403454 
L 133.331356 221.403454 
L 133.331356 220.844271 
L 133.532283 220.844271 
L 133.532283 220.396926 
L 133.730889 220.396926 
L 133.730889 219.502234 
L 134.313297 219.502234 
L 134.313297 219.278561 
L 134.503128 219.278561 
L 134.503128 218.943052 
L 134.690886 218.943052 
L 134.690886 218.719379 
L 134.876616 218.719379 
L 134.876616 218.607542 
L 135.060359 218.607542 
L 135.060359 218.383869 
L 135.24216 218.383869 
L 135.24216 218.160197 
L 135.422057 218.160197 
L 135.422057 217.712851 
L 135.600092 217.712851 
L 135.600092 217.265505 
L 135.776301 217.265505 
L 135.776301 217.153669 
L 135.950722 217.153669 
L 135.950722 216.929996 
L 136.123391 216.929996 
L 136.123391 216.594486 
L 136.294342 216.594486 
L 136.294342 216.370813 
L 136.46361 216.370813 
L 136.46361 216.14714 
L 136.631228 216.14714 
L 136.631228 215.699795 
L 136.797226 215.699795 
L 136.797226 215.140612 
L 136.961637 215.140612 
L 136.961637 214.469594 
L 137.12449 214.469594 
L 137.12449 214.134084 
L 137.285815 214.134084 
L 137.285815 213.910412 
L 137.44564 213.910412 
L 137.44564 213.463066 
L 137.603992 213.463066 
L 137.603992 213.351229 
L 137.760898 213.351229 
L 137.760898 213.239393 
L 137.916386 213.239393 
L 137.916386 213.01572 
L 138.223203 213.01572 
L 138.223203 212.792047 
L 138.374582 212.792047 
L 138.374582 212.456538 
L 138.52464 212.456538 
L 138.52464 212.232865 
L 138.967109 212.232865 
L 138.967109 212.009192 
L 139.112104 212.009192 
L 139.112104 211.561846 
L 139.255885 211.561846 
L 139.255885 211.338173 
L 139.398474 211.338173 
L 139.398474 210.890827 
L 139.539889 210.890827 
L 139.539889 210.778991 
L 139.680151 210.778991 
L 139.680151 210.443482 
L 139.819277 210.443482 
L 139.819277 210.107972 
L 139.957287 210.107972 
L 139.957287 209.772463 
L 140.094197 209.772463 
L 140.094197 209.54879 
L 140.230025 209.54879 
L 140.230025 209.325117 
L 140.498503 209.325117 
L 140.498503 209.101444 
L 140.631185 209.101444 
L 140.631185 208.877771 
L 140.762851 208.877771 
L 140.762851 208.542262 
L 140.893517 208.542262 
L 140.893517 208.318589 
L 141.023196 208.318589 
L 141.023196 208.206753 
L 141.151905 208.206753 
L 141.151905 208.094916 
L 141.532347 208.094916 
L 141.532347 207.871243 
L 141.657312 207.871243 
L 141.657312 207.535734 
L 141.781376 207.535734 
L 141.781376 207.312061 
L 141.90455 207.312061 
L 141.90455 206.976552 
L 142.026848 206.976552 
L 142.026848 206.752879 
L 142.148282 206.752879 
L 142.148282 206.641042 
L 142.268865 206.641042 
L 142.268865 206.305533 
L 142.388607 206.305533 
L 142.388607 205.858187 
L 142.50752 205.858187 
L 142.50752 205.522678 
L 142.625617 205.522678 
L 142.625617 205.299005 
L 142.742908 205.299005 
L 142.742908 205.187169 
L 142.975116 205.187169 
L 142.975116 204.851659 
L 143.090054 204.851659 
L 143.090054 204.627986 
L 143.317649 204.627986 
L 143.317649 204.068804 
L 143.430327 204.068804 
L 143.430327 203.845131 
L 143.54227 203.845131 
L 143.54227 203.621458 
L 143.65349 203.621458 
L 143.763994 203.174112 
L 143.873793 203.174112 
L 143.982894 202.726767 
L 144.091308 202.726767 
L 144.199041 202.279421 
L 144.306104 202.279421 
L 144.412504 201.720239 
L 144.623349 201.720239 
L 144.727809 201.272893 
L 144.934844 201.272893 
L 145.037434 200.601874 
L 145.139415 200.601874 
L 145.240795 200.154528 
L 145.34158 200.154528 
L 145.441778 199.371673 
L 145.541395 199.371673 
L 145.640438 198.924327 
L 145.738913 198.924327 
L 145.836828 198.253309 
L 145.934188 198.253309 
L 146.031 197.246781 
L 146.127269 197.246781 
L 146.223002 196.352089 
L 146.318205 196.352089 
L 146.412884 195.68107 
L 146.507044 195.68107 
L 146.600691 195.010052 
L 146.69383 195.010052 
L 146.786468 194.11536 
L 146.878609 194.11536 
L 146.970258 193.444342 
L 147.061422 193.444342 
L 147.152105 192.996996 
L 147.242311 192.996996 
L 147.332047 192.54965 
L 147.421317 192.54965 
L 147.510125 191.990468 
L 147.598477 191.990468 
L 147.686377 191.543122 
L 147.860841 191.543122 
L 147.947413 191.207613 
L 148.033551 191.207613 
L 148.119259 190.872103 
L 148.289405 190.872103 
L 148.373851 190.089248 
L 148.457883 190.089248 
L 148.541507 189.530066 
L 148.624726 189.530066 
L 148.707544 188.188028 
L 148.789965 188.188028 
L 148.871992 187.405173 
L 148.95363 187.405173 
L 149.034882 186.957828 
L 149.115752 186.957828 
L 149.196243 186.510482 
L 149.276358 186.510482 
L 149.356103 186.063136 
L 149.435479 186.063136 
L 149.51449 185.392117 
L 149.593139 185.392117 
L 149.67143 185.056608 
L 149.749367 185.056608 
L 149.826951 184.721099 
L 149.904187 184.721099 
L 149.981077 184.161916 
L 150.057625 184.161916 
L 150.057625 183.938243 
L 150.209706 183.938243 
L 150.285245 183.267225 
L 150.360453 183.267225 
L 150.435334 182.708042 
L 150.509889 182.708042 
L 150.584123 182.372533 
L 150.658038 182.372533 
L 150.658038 182.14886 
L 150.80492 182.14886 
L 150.80492 181.589678 
L 150.950558 181.589678 
L 151.022917 181.142332 
L 151.166727 181.142332 
L 151.238183 180.58315 
L 151.309344 180.58315 
L 151.309344 180.135804 
L 151.521075 180.135804 
L 151.604377 179.688458 
L 151.730229 179.688458 
L 151.799385 179.241113 
L 151.868265 179.241113 
L 151.936869 178.570094 
L 152.073262 178.570094 
L 152.082963 178.234585 
L 152.208581 178.234585 
L 152.275843 177.675402 
L 152.342842 177.675402 
L 152.409582 177.339893 
L 152.476064 177.339893 
L 152.542289 177.004384 
L 152.673979 177.004384 
L 152.758108 176.780711 
L 152.804668 176.780711 
L 152.804668 176.557038 
L 152.934371 176.557038 
L 152.998857 176.221528 
L 153.063103 176.221528 
L 153.127109 175.997856 
L 153.190877 175.997856 
L 153.25441 175.774183 
L 153.317709 175.774183 
L 153.317709 175.55051 
L 153.443611 175.55051 
L 153.443611 175.326837 
L 153.568599 175.326837 
L 153.630753 175.103164 
L 153.692683 175.103164 
L 153.692683 174.991328 
L 153.815879 174.991328 
L 153.877147 174.543982 
L 154.059652 174.543982 
L 154.120059 174.320309 
L 154.24024 174.320309 
L 154.300016 173.761127 
L 154.359586 173.761127 
L 154.359586 173.537454 
L 154.478109 173.537454 
L 154.478109 173.313781 
L 154.595821 173.313781 
L 154.595821 173.201944 
L 154.712732 173.201944 
L 154.770891 172.866435 
L 154.828853 172.866435 
L 154.842625 172.642762 
L 154.944195 172.642762 
L 155.001577 172.307253 
L 155.058768 172.307253 
L 155.11577 171.971743 
L 155.172583 171.971743 
L 155.229208 171.748071 
L 155.341904 171.748071 
L 155.397975 171.524398 
L 155.453865 171.524398 
L 155.509573 170.965215 
L 155.565101 170.965215 
L 155.675622 170.406033 
L 155.730618 170.406033 
L 155.785438 170.18236 
L 155.948856 170.18236 
L 156.056945 169.735014 
L 156.110735 169.735014 
L 156.217814 169.287669 
L 156.271104 169.287669 
L 156.377192 169.063996 
L 156.482628 169.063996 
L 156.587422 168.392977 
L 156.639581 168.392977 
L 156.639581 168.169304 
L 156.795113 168.169304 
L 156.846645 167.498286 
L 156.94925 167.498286 
L 156.94925 167.274613 
L 157.253438 167.274613 
L 157.35365 166.71543 
L 157.502881 166.71543 
L 157.601653 166.379921 
L 157.748754 166.379921 
L 157.846128 165.932575 
L 157.942952 165.932575 
L 158.039234 165.597066 
L 158.13498 165.597066 
L 158.230196 164.702374 
L 158.324887 164.702374 
L 158.372038 164.478701 
L 158.465953 164.478701 
L 158.559357 164.143192 
L 158.652257 164.143192 
L 158.698519 163.919519 
L 158.790672 163.919519 
L 158.882333 163.2485 
L 158.927981 163.2485 
L 159.018915 162.912991 
L 159.064202 162.912991 
L 159.15442 162.353809 
L 159.288865 162.353809 
L 159.377915 161.906463 
L 159.422267 161.906463 
L 159.51063 161.347281 
L 159.554642 161.347281 
L 159.642328 160.788099 
L 159.686004 160.788099 
L 159.773025 160.228916 
L 159.816371 160.228916 
L 159.902736 159.669734 
L 159.945756 159.669734 
L 160.031475 158.775043 
L 160.074175 158.775043 
L 160.159257 158.327697 
L 160.24392 158.327697 
L 160.24392 158.21586 
L 160.370138 158.21586 
L 160.453772 157.433005 
L 160.495436 157.433005 
L 160.578464 156.65015 
L 160.661092 156.65015 
L 160.743325 156.202804 
L 160.784295 156.202804 
L 160.865942 155.419949 
L 160.90662 155.419949 
L 160.98769 154.972603 
L 161.028082 154.972603 
L 161.028082 154.860767 
L 161.268459 154.860767 
L 161.347844 154.077912 
L 161.387399 154.077912 
L 161.466238 153.854239 
L 161.505522 153.854239 
L 161.505522 153.742402 
L 161.622838 153.742402 
L 161.700606 153.295057 
L 161.739359 153.295057 
L 161.816603 152.847711 
L 161.931822 152.847711 
L 162.008208 152.400365 
L 162.046274 152.400365 
L 162.122155 151.505673 
L 162.159969 151.505673 
L 162.23535 150.499145 
L 162.272917 150.499145 
L 162.347806 150.0518 
L 162.422369 150.0518 
L 162.496611 149.492617 
L 162.533611 149.492617 
L 162.644138 148.374253 
L 162.680823 148.374253 
L 162.790411 147.703234 
L 162.863083 147.703234 
L 162.971518 146.920379 
L 163.007511 146.920379 
L 163.115042 145.913851 
L 163.186357 145.913851 
L 163.292778 145.242832 
L 163.328106 145.242832 
L 163.433656 143.453449 
L 163.468695 143.453449 
L 163.503664 143.229776 
L 163.64283 143.229776 
L 163.746471 142.223248 
L 163.780879 142.223248 
L 163.883693 141.664066 
L 163.917828 141.664066 
L 164.019828 141.328557 
L 164.222031 141.328557 
L 164.255501 141.104884 
L 164.388735 141.104884 
L 164.487987 140.769374 
L 164.774626 140.769374 
L 164.87936 140.433865 
L 164.975827 140.433865 
L 164.975827 140.322029 
L 165.185262 140.322029 
L 165.293528 139.65101 
L 165.324977 139.65101 
L 165.418982 138.756318 
L 165.450203 138.756318 
L 165.512475 138.308973 
L 165.574523 138.308973 
L 165.574523 138.197136 
L 165.69795 138.197136 
L 165.789942 137.526117 
L 165.850998 137.526117 
L 165.942177 136.295916 
L 165.972462 136.295916 
L 166.063001 135.736734 
L 166.449916 135.736734 
L 166.479321 135.513061 
L 166.625596 135.513061 
L 166.712767 135.289388 
L 166.770637 135.289388 
L 166.770637 135.177552 
L 166.885795 135.177552 
L 166.885795 135.065716 
L 167.057098 135.065716 
L 167.113822 134.842043 
L 167.670995 134.842043 
L 167.780295 134.61837 
L 167.807512 134.61837 
L 167.834686 134.28286 
L 168.421889 134.28286 
L 168.474289 133.835515 
L 168.552592 133.835515 
L 168.552592 133.500005 
L 169.141347 133.500005 
L 169.241712 133.276332 
L 169.49009 133.276332 
L 169.514731 132.828987 
L 169.759223 132.828987 
L 169.856054 132.157968 
L 169.880177 132.157968 
L 169.976331 131.934295 
L 170.19073 131.934295 
L 170.261607 131.710622 
L 171.179718 131.710622 
L 171.202054 131.375113 
L 171.357598 131.375113 
L 171.379705 131.15144 
L 171.469939 131.15144 
L 171.469939 131.039603 
L 171.79441 131.039603 
L 171.9019 130.815931 
L 172.346158 130.815931 
L 172.450263 130.592258 
L 173.141931 130.592258 
L 173.141931 130.480421 
L 173.555637 130.480421 
L 173.555637 130.368585 
L 174.073321 130.368585 
L 174.167501 129.809402 
L 174.186275 129.809402 
L 174.279839 128.802874 
L 174.317123 128.802874 
L 174.40998 128.243692 
L 174.465454 128.243692 
L 174.575868 127.68451 
L 174.594202 127.68451 
L 174.667341 126.677982 
L 174.75833 126.677982 
L 174.866885 126.230636 
L 174.884911 126.230636 
L 174.956826 125.447781 
L 175.010566 125.447781 
L 175.099761 124.888599 
L 175.13531 124.888599 
L 175.241517 123.434725 
L 175.259154 123.434725 
L 175.364601 122.65187 
L 175.382113 122.65187 
L 175.486811 121.645342 
L 175.504198 121.645342 
L 175.573574 121.421669 
L 176.000941 121.421669 
L 176.000941 121.309832 
L 176.135484 121.309832 
L 176.235705 120.526977 
L 176.252352 120.526977 
L 176.351896 119.855959 
L 176.889315 119.855959 
L 176.985247 119.296776 
L 177.30121 119.296776 
L 177.394877 119.073103 
L 178.111461 119.073103 
L 178.111461 118.961267 
L 178.813704 118.961267 
L 178.828033 118.737594 
L 180.634671 118.737594 
L 180.66044 118.402085 
L 181.341993 118.402085 
L 181.453003 117.954739 
L 181.477575 117.954739 
L 181.587716 117.060047 
L 181.721381 117.060047 
L 181.721381 116.948211 
L 182.40947 116.948211 
L 182.467519 116.724538 
L 182.55999 116.724538 
L 182.55999 116.612702 
L 182.754855 116.612702 
L 182.754855 116.500865 
L 182.92498 116.500865 
L 183.015029 116.053519 
L 183.071071 116.053519 
L 183.149224 115.829846 
L 183.534747 115.829846 
L 183.545636 115.158828 
L 183.933112 115.158828 
L 183.954384 114.599646 
L 184.060353 114.599646 
L 184.060353 114.487809 
L 185.352233 114.487809 
L 185.420692 114.264136 
L 185.682225 114.264136 
L 185.682225 114.1523 
L 186.043694 114.1523 
L 186.043694 114.040463 
L 186.32379 114.040463 
L 186.32379 113.928627 
L 187.547889 113.928627 
L 187.608154 113.704954 
L 187.676769 113.704954 
L 187.745112 113.145772 
L 187.838642 113.145772 
L 187.838642 113.033935 
L 187.956949 113.033935 
L 187.956949 112.810262 
L 188.082809 112.810262 
L 188.082809 112.698426 
L 188.232635 112.698426 
L 188.274023 112.362917 
L 189.349855 112.362917 
L 189.349855 112.25108 
L 190.321458 112.25108 
L 190.321458 112.139244 
L 191.566916 112.139244 
L 191.67579 111.803734 
L 191.696127 111.803734 
L 191.696127 111.691898 
L 191.878087 111.691898 
L 191.918262 111.020879 
L 192.104515 111.020879 
L 192.163956 110.68537 
L 193.293033 110.68537 
L 193.299206 110.461697 
L 194.101052 110.461697 
L 194.101052 110.349861 
L 194.311811 110.349861 
L 194.311811 110.238024 
L 194.685924 110.238024 
L 194.771113 109.902515 
L 195.201894 109.902515 
L 195.301058 109.343332 
L 195.568141 109.343332 
L 195.589762 109.11966 
L 196.340188 109.11966 
L 196.366024 108.78415 
L 196.586621 108.78415 
L 196.586621 108.560477 
L 196.844641 108.560477 
L 196.844641 108.448641 
L 197.432041 108.448641 
L 197.432041 108.336804 
L 197.758899 108.336804 
L 197.811194 108.113132 
L 197.891702 108.113132 
L 197.891702 108.001295 
L 198.037547 108.001295 
L 198.039778 107.442113 
L 198.219289 107.442113 
L 198.23319 107.21844 
L 199.577972 107.21844 
L 199.629904 106.771094 
L 199.871 106.771094 
L 199.871 106.659258 
L 200.825134 106.659258 
L 200.825134 106.547421 
L 200.956087 106.547421 
L 200.983737 106.323748 
L 201.958087 106.323748 
L 201.958087 106.211912 
L 202.154613 106.211912 
L 202.154613 106.100075 
L 202.526625 106.100075 
L 202.526625 105.988239 
L 204.274717 105.988239 
L 204.274717 105.876403 
L 204.41429 105.876403 
L 204.41429 105.764566 
L 204.89563 105.764566 
L 204.89563 105.65273 
L 205.97388 105.65273 
L 205.983297 104.869875 
L 208.564351 104.869875 
L 208.564351 104.758038 
L 209.372846 104.758038 
L 209.42123 104.422529 
L 210.436683 104.422529 
L 210.436683 104.310692 
L 211.436349 104.310692 
L 211.436349 104.198856 
L 212.013122 104.198856 
L 212.013122 104.087019 
L 212.689426 104.087019 
L 212.707394 103.863347 
L 213.263019 103.863347 
L 213.263019 103.75151 
L 213.818088 103.75151 
L 213.855459 103.416001 
L 214.304955 103.416001 
L 214.304955 103.304164 
L 214.570361 103.304164 
L 214.570361 103.192328 
L 214.682621 103.192328 
L 214.682621 103.080491 
L 215.116464 103.080491 
L 215.130334 102.856818 
L 215.338766 102.856818 
L 215.357589 102.409473 
L 216.441239 102.409473 
L 216.490948 102.1858 
L 216.806663 102.1858 
L 216.806663 102.073963 
L 216.995834 102.073963 
L 216.995834 101.85029 
L 217.285755 101.85029 
L 217.355865 101.626618 
L 217.662205 101.626618 
L 217.669682 101.402945 
L 218.007217 101.402945 
L 218.007217 101.291108 
L 218.148832 101.291108 
L 218.148832 101.179272 
L 218.445765 101.179272 
L 218.445765 101.067435 
L 218.60083 101.067435 
L 218.60083 100.955599 
L 219.806754 100.955599 
L 219.908114 100.731926 
L 220.071274 100.731926 
L 220.071274 100.62009 
L 220.244794 100.62009 
L 220.244794 100.508253 
L 220.488696 100.508253 
L 220.489965 100.28458 
L 221.534777 100.28458 
L 221.534777 100.172744 
L 222.083513 100.172744 
L 222.083513 100.060907 
L 222.769311 100.060907 
L 222.769311 99.949071 
L 223.456576 99.949071 
L 223.525835 99.725398 
L 223.744559 99.725398 
L 223.744559 99.613561 
L 224.563632 99.613561 
L 224.563632 99.501725 
L 225.000512 99.501725 
L 225.000512 99.389889 
L 228.213557 99.389889 
L 228.31687 99.166216 
L 228.493 99.166216 
L 228.493 99.054379 
L 228.649989 99.054379 
L 228.733448 98.830706 
L 228.775026 98.830706 
L 228.775026 98.71887 
L 228.89138 98.71887 
L 228.983744 98.159688 
L 229.00927 98.159688 
L 229.011588 97.936015 
L 229.414373 97.936015 
L 229.524884 97.600505 
L 229.584645 97.600505 
L 229.641361 97.041323 
L 229.77051 97.041323 
L 229.835459 96.705814 
L 230.074503 96.705814 
L 230.074503 96.593977 
L 230.251749 96.593977 
L 230.253187 96.370304 
L 230.502296 96.370304 
L 230.570897 96.034795 
L 230.72198 96.034795 
L 230.72198 95.922959 
L 230.914002 95.922959 
L 230.916769 95.475613 
L 231.055252 95.475613 
L 231.063517 95.25194 
L 231.468818 95.25194 
L 231.533674 94.916431 
L 231.747892 94.916431 
L 231.784762 94.580921 
L 232.006933 94.580921 
L 232.11437 94.133576 
L 232.33617 94.133576 
L 232.33617 94.021739 
L 232.604752 94.021739 
L 232.612902 93.68623 
L 232.740907 93.68623 
L 232.843867 93.35072 
L 232.934003 93.35072 
L 232.934003 93.238884 
L 233.103473 93.238884 
L 233.103473 93.127047 
L 233.291269 93.127047 
L 233.291269 92.903375 
L 233.451387 92.903375 
L 233.451387 92.791538 
L 233.697925 92.791538 
L 233.772491 92.567865 
L 234.046817 92.567865 
L 234.046817 92.456029 
L 234.484027 92.456029 
L 234.486837 92.232356 
L 234.859111 92.232356 
L 234.859111 92.120519 
L 236.79851 92.120519 
L 236.79851 92.008683 
L 237.142803 92.008683 
L 237.142803 91.896847 
L 237.508081 91.896847 
L 237.508081 91.78501 
L 238.053656 91.78501 
L 238.053656 91.673174 
L 238.247566 91.673174 
L 238.247566 91.561337 
L 238.908007 91.561337 
L 238.963106 91.337664 
L 240.264465 91.337664 
L 240.264465 91.225828 
L 240.42198 91.225828 
L 240.42198 91.113991 
L 240.589178 91.113991 
L 240.629213 90.666646 
L 240.767045 90.666646 
L 240.767045 90.554809 
L 240.912291 90.554809 
L 240.912291 90.442973 
L 241.204475 90.442973 
L 241.304935 89.995627 
L 241.36832 89.995627 
L 241.36832 89.88379 
L 241.52543 89.88379 
L 241.631614 89.660118 
L 241.646619 89.660118 
L 241.721676 89.436445 
L 242.302179 89.436445 
L 242.302179 89.324608 
L 242.622916 89.324608 
L 242.702203 89.100935 
L 243.258338 89.100935 
L 243.258338 88.989099 
L 244.33269 88.989099 
L 244.33269 88.877262 
L 244.533404 88.877262 
L 244.533404 88.765426 
L 245.497334 88.765426 
L 245.497334 88.65359 
L 246.114889 88.65359 
L 246.114889 88.541753 
L 246.26651 88.541753 
L 246.26651 88.429917 
L 247.207994 88.429917 
L 247.207994 88.31808 
L 247.578535 88.31808 
L 247.578535 88.206244 
L 247.721212 88.206244 
L 247.746436 87.982571 
L 248.026599 87.982571 
L 248.133638 87.758898 
L 248.206399 87.758898 
L 248.206399 87.647062 
L 248.525262 87.647062 
L 248.590169 87.423389 
L 248.958905 87.423389 
L 248.958905 87.311552 
L 249.548367 87.311552 
L 249.548367 87.199716 
L 250.05684 87.199716 
L 250.05684 87.087879 
L 250.254376 87.087879 
L 250.313327 86.864206 
L 250.589058 86.864206 
L 250.620964 86.416861 
L 250.834411 86.416861 
L 250.913046 86.193188 
L 251.069244 86.193188 
L 251.069244 86.081351 
L 251.31992 86.081351 
L 251.31992 85.969515 
L 251.77771 85.969515 
L 251.77771 85.857678 
L 252.462473 85.857678 
L 252.501534 85.522169 
L 252.789792 85.522169 
L 252.852231 85.298496 
L 252.905968 85.298496 
L 253.010782 85.074823 
L 253.091321 85.074823 
L 253.185521 84.85115 
L 253.254734 84.85115 
L 253.360342 84.515641 
L 253.466856 84.515641 
L 253.466856 84.403805 
L 253.706425 84.403805 
L 253.706425 84.291968 
L 253.849499 84.291968 
L 253.932912 84.068295 
L 254.974241 84.068295 
L 254.974241 83.956459 
L 255.149648 83.956459 
L 255.149648 83.844622 
L 255.370493 83.844622 
L 255.370493 83.732786 
L 255.706706 83.732786 
L 255.706706 83.620949 
L 255.899805 83.620949 
L 255.899805 83.509113 
L 256.222353 83.509113 
L 256.260338 83.28544 
L 256.825486 83.28544 
L 256.892214 82.949931 
L 256.971804 82.949931 
L 256.971804 82.838094 
L 257.332493 82.838094 
L 257.332493 82.726258 
L 257.523611 82.726258 
L 257.523611 82.614421 
L 258.227845 82.614421 
L 258.227845 82.502585 
L 259.071624 82.502585 
L 259.164283 82.278912 
L 259.253784 82.278912 
L 259.257641 82.055239 
L 259.402408 82.055239 
L 259.402408 81.943403 
L 259.74266 81.943403 
L 259.830714 81.496057 
L 259.85681 81.496057 
L 259.85681 81.38422 
L 260.032899 81.38422 
L 260.032899 81.272384 
L 260.617108 81.272384 
L 260.617108 81.160548 
L 262.331985 81.160548 
L 262.399176 80.936875 
L 262.726724 80.936875 
L 262.726724 80.825038 
L 262.98167 80.825038 
L 262.98167 80.713202 
L 263.150392 80.713202 
L 263.150392 80.601365 
L 264.738008 80.601365 
L 264.738008 80.489529 
L 265.023198 80.489529 
L 265.023198 80.377692 
L 265.19502 80.377692 
L 265.240627 80.15402 
L 266.821051 80.15402 
L 266.916537 79.81851 
L 266.976233 79.81851 
L 266.989641 79.594837 
L 268.317198 79.594837 
L 268.317198 79.483001 
L 269.374256 79.483001 
L 269.374256 79.371164 
L 270.13609 79.371164 
L 270.228092 79.147491 
L 270.286711 79.147491 
L 270.286711 79.035655 
L 271.697595 79.035655 
L 271.697595 78.923819 
L 272.084173 78.923819 
L 272.084173 78.811982 
L 272.782186 78.811982 
L 272.782186 78.700146 
L 273.444712 78.700146 
L 273.444712 78.588309 
L 274.831626 78.588309 
L 274.831626 78.476473 
L 275.509094 78.476473 
L 275.599165 78.2528 
L 276.881836 78.2528 
L 276.881836 78.140963 
L 278.033515 78.140963 
L 278.033515 78.029127 
L 278.329571 78.029127 
L 278.329571 77.917291 
L 279.707029 77.917291 
L 279.707029 77.805454 
L 280.089014 77.805454 
L 280.089014 77.693618 
L 281.395499 77.693618 
L 281.395499 77.581781 
L 282.183008 77.581781 
L 282.183008 77.469945 
L 283.834982 77.469945 
L 283.851274 77.246272 
L 284.145137 77.246272 
L 284.145137 77.134435 
L 285.19415 77.134435 
L 285.19415 77.022599 
L 285.505622 77.022599 
L 285.505622 76.910763 
L 288.15711 76.910763 
L 288.15711 76.798926 
L 288.271283 76.798926 
L 288.271283 76.68709 
L 289.961416 76.68709 
L 289.961416 76.575253 
L 290.449168 76.575253 
L 290.449168 76.463417 
L 290.566565 76.463417 
L 290.566565 76.35158 
L 291.645992 76.35158 
L 291.645992 76.239744 
L 292.50766 76.239744 
L 292.50766 76.127907 
L 292.682484 76.127907 
L 292.682484 76.016071 
L 302.767281 76.016071 
L 302.767281 75.904234 
L 303.208686 75.904234 
L 303.208686 75.792398 
L 306.053453 75.792398 
L 306.053453 75.680562 
L 333.168 75.680562 
L 333.168 75.680562 
" style="fill:none;stroke:#000080;stroke-linecap:square;stroke-width:1.5;"/>
   </g>
   <g id="line2d_44">
    <defs>
     <path d="M 0 6 
C 1.591219 6 3.117479 5.367802 4.242641 4.242641 
C 5.367802 3.117479 6 1.591219 6 0 
C 6 -1.591219 5.367802 -3.117479 4.242641 -4.242641 
C 3.117479 -5.367802 1.591219 -6 0 -6 
C -1.591219 -6 -3.117479 -5.367802 -4.242641 -4.242641 
C -5.367802 -3.117479 -6 -1.591219 -6 0 
C -6 1.591219 -5.367802 3.117479 -4.242641 4.242641 
C -3.117479 5.367802 -1.591219 6 0 6 
z
" id="mac17e985ec" style="stroke:#000080;stroke-width:1.5;"/>
    </defs>
    <g>
     <use style="fill:none;stroke:#000080;stroke-width:1.5;" x="130.950681" xlink:href="#mac17e985ec" y="227.554458"/>
     <use style="fill:none;stroke:#000080;stroke-width:1.5;" x="166.770637" xlink:href="#mac17e985ec" y="135.289388"/>
     <use style="fill:none;stroke:#000080;stroke-width:1.5;" x="242.302179" xlink:href="#mac17e985ec" y="89.436445"/>
     <use style="fill:none;stroke:#000080;stroke-width:1.5;" x="306.053453" xlink:href="#mac17e985ec" y="75.680562"/>
     <use style="fill:none;stroke:#000080;stroke-width:1.5;" x="306.053453" xlink:href="#mac17e985ec" y="75.680562"/>
     <use style="fill:none;stroke:#000080;stroke-width:1.5;" x="333.168" xlink:href="#mac17e985ec" y="75.680562"/>
    </g>
   </g>
   <g id="line2d_45">
    <path style="fill:none;stroke:#000080;stroke-linecap:square;stroke-width:1.5;"/>
    <g/>
   </g>
   <g id="line2d_46">
    <path clip-path="url(#pf212869f97)" d="M 218.800698 100.955599 
" style="fill:none;stroke:#000080;stroke-linecap:square;stroke-width:1.5;"/>
    <defs>
     <path d="M -12 12 
L 12 -12 
M -12 -12 
L 12 12 
" id="m22e2a75879" style="stroke:#000080;"/>
    </defs>
    <g clip-path="url(#pf212869f97)">
     <use style="fill:#000080;stroke:#000080;" x="218.800698" xlink:href="#m22e2a75879" y="100.955599"/>
    </g>
   </g>
   <g id="line2d_47">
    <defs>
     <path d="M 0 1.5 
C 0.397805 1.5 0.77937 1.341951 1.06066 1.06066 
C 1.341951 0.77937 1.5 0.397805 1.5 0 
C 1.5 -0.397805 1.341951 -0.77937 1.06066 -1.06066 
C 0.77937 -1.341951 0.397805 -1.5 0 -1.5 
C -0.397805 -1.5 -0.77937 -1.341951 -1.06066 -1.06066 
C -1.341951 -0.77937 -1.5 -0.397805 -1.5 0 
C -1.5 0.397805 -1.341951 0.77937 -1.06066 1.06066 
C -0.77937 1.341951 -0.397805 1.5 0 1.5 
z
" id="m5a65bf74bc" style="stroke:#ff00ff;"/>
    </defs>
    <g>
     <use style="fill:#ff00ff;stroke:#ff00ff;" x="184.906462" xlink:href="#m5a65bf74bc" y="287.051449"/>
     <use style="fill:#ff00ff;stroke:#ff00ff;" x="184.906462" xlink:href="#m5a65bf74bc" y="287.051449"/>
    </g>
   </g>
   <g id="line2d_48">
    <path d="M 4.627463 294.88 
L 4.627463 292.195925 
L 104.919872 292.195925 
L 104.919872 292.084089 
L 106.776049 292.084089 
L 106.776049 291.972252 
L 108.120612 291.972252 
L 108.120612 291.860416 
L 108.327957 291.860416 
L 108.327957 291.748579 
L 108.85563 291.748579 
L 108.85563 291.636743 
L 109.289809 291.636743 
L 109.289809 291.524907 
L 109.483595 291.524907 
L 109.483595 291.41307 
L 109.977446 291.41307 
L 109.977446 291.301234 
L 110.384516 291.301234 
L 110.384516 291.189397 
L 111.100812 291.189397 
L 111.100812 291.077561 
L 111.889263 291.077561 
L 111.889263 290.965724 
L 121.665528 290.965724 
L 121.665528 290.853888 
L 122.003676 290.853888 
L 122.003676 290.742051 
L 123.102538 290.742051 
L 123.102538 290.630215 
L 128.698042 290.630215 
L 128.698042 290.518379 
L 129.677716 290.518379 
L 129.677716 290.406542 
L 130.705761 290.406542 
L 130.705761 290.294706 
L 130.728171 290.294706 
L 130.728171 290.182869 
L 131.224827 290.182869 
L 131.224827 290.071033 
L 131.41954 290.071033 
L 131.41954 289.959196 
L 131.462512 289.959196 
L 131.462512 289.84736 
L 136.471629 289.84736 
L 136.471629 289.735523 
L 136.487656 289.735523 
L 136.487656 289.623687 
L 136.781486 289.623687 
L 136.781486 289.51185 
L 137.109047 289.51185 
L 137.109047 289.400014 
L 138.7227 289.400014 
L 138.7227 289.288178 
L 139.680151 289.288178 
L 139.680151 289.176341 
L 140.009571 289.176341 
L 140.009571 289.064505 
L 140.351999 289.064505 
L 140.351999 288.952668 
L 142.200064 288.952668 
L 142.200064 288.840832 
L 144.613367 288.840832 
L 144.613367 288.728995 
L 145.546124 288.728995 
L 145.546124 288.617159 
L 149.98473 288.617159 
L 149.98473 288.505322 
L 156.792655 288.505322 
L 156.792655 288.393486 
L 157.970516 288.393486 
L 157.970516 288.28165 
L 160.629662 288.28165 
L 160.629662 288.169813 
L 162.885514 288.169813 
L 162.885514 288.057977 
L 164.566352 288.057977 
L 164.566352 287.94614 
L 165.920511 287.94614 
L 165.920511 287.834304 
L 167.326882 287.834304 
L 167.326882 287.722467 
L 169.485392 287.722467 
L 169.485392 287.610631 
L 170.902908 287.610631 
L 170.902908 287.498794 
L 170.90399 287.498794 
L 170.90399 287.386958 
L 177.911911 287.386958 
L 177.911911 287.275122 
L 180.008787 287.275122 
L 180.008787 287.163285 
L 184.906462 287.163285 
L 184.906462 287.051449 
L 333.168 287.051449 
" style="fill:none;stroke:#ff00ff;stroke-linecap:square;stroke-width:1.5;"/>
   </g>
   <g id="line2d_49">
    <defs>
     <path d="M -0 8.485281 
L 5.091169 0 
L 0 -8.485281 
L -5.091169 -0 
z
" id="md66d0b7e9e" style="stroke:#ff00ff;stroke-linejoin:miter;stroke-width:1.5;"/>
    </defs>
    <g>
     <use style="fill:none;stroke:#ff00ff;stroke-linejoin:miter;stroke-width:1.5;" x="149.98473" xlink:href="#md66d0b7e9e" y="288.505322"/>
     <use style="fill:none;stroke:#ff00ff;stroke-linejoin:miter;stroke-width:1.5;" x="184.906462" xlink:href="#md66d0b7e9e" y="287.163285"/>
     <use style="fill:none;stroke:#ff00ff;stroke-linejoin:miter;stroke-width:1.5;" x="184.906462" xlink:href="#md66d0b7e9e" y="287.051449"/>
     <use style="fill:none;stroke:#ff00ff;stroke-linejoin:miter;stroke-width:1.5;" x="184.906462" xlink:href="#md66d0b7e9e" y="287.051449"/>
     <use style="fill:none;stroke:#ff00ff;stroke-linejoin:miter;stroke-width:1.5;" x="333.168" xlink:href="#md66d0b7e9e" y="287.051449"/>
    </g>
   </g>
   <g id="line2d_50">
    <path style="fill:none;stroke:#ff00ff;stroke-linecap:square;stroke-width:1.5;"/>
    <g/>
   </g>
   <g id="line2d_51">
    <path clip-path="url(#pf212869f97)" d="M 147.190823 288.617159 
" style="fill:none;stroke:#ff00ff;stroke-linecap:square;stroke-width:1.5;"/>
    <defs>
     <path d="M -12 12 
L 12 -12 
M -12 -12 
L 12 12 
" id="mda5a537aa3" style="stroke:#ff00ff;"/>
    </defs>
    <g clip-path="url(#pf212869f97)">
     <use style="fill:#ff00ff;stroke:#ff00ff;" x="147.190823" xlink:href="#mda5a537aa3" y="288.617159"/>
    </g>
   </g>
   <g id="line2d_52">
    <path d="M 333.168 287.051449 
L 363.64328 289.176341 
" style="fill:none;stroke:#ff00ff;stroke-linecap:square;stroke-width:1.5;"/>
    <g>
     <use style="fill:none;stroke:#ff00ff;stroke-linejoin:miter;stroke-width:1.5;" x="333.168" xlink:href="#md66d0b7e9e" y="287.051449"/>
     <use style="fill:none;stroke:#ff00ff;stroke-linejoin:miter;stroke-width:1.5;" x="363.64328" xlink:href="#md66d0b7e9e" y="289.176341"/>
    </g>
   </g>
   <g id="line2d_53">
    <path d="M 333.168 75.680562 
L 363.64328 152.288529 
" style="fill:none;stroke:#000080;stroke-linecap:square;stroke-width:1.5;"/>
    <g>
     <use style="fill:none;stroke:#000080;stroke-width:1.5;" x="333.168" xlink:href="#mac17e985ec" y="75.680562"/>
     <use style="fill:none;stroke:#000080;stroke-width:1.5;" x="363.64328" xlink:href="#mac17e985ec" y="152.288529"/>
    </g>
   </g>
   <g id="line2d_54">
    <path d="M 333.168 294.88 
L 333.168 9.697057 
" style="fill:none;stroke:#000000;stroke-linecap:square;stroke-width:1.5;"/>
   </g>
   <g id="patch_3">
    <path d="M 56.12 294.88 
L 56.12 6.845228 
" style="fill:none;stroke:#000000;stroke-linecap:square;stroke-linejoin:miter;stroke-width:0.8;"/>
   </g>
   <g id="patch_4">
    <path d="M 333.168 294.88 
L 333.168 6.845228 
" style="fill:none;stroke:#000000;stroke-linecap:square;stroke-linejoin:miter;stroke-width:0.8;"/>
   </g>
   <g id="patch_5">
    <path d="M 56.12 294.88 
L 333.168 294.88 
" style="fill:none;stroke:#000000;stroke-linecap:square;stroke-linejoin:miter;stroke-width:0.8;"/>
   </g>
   <g id="patch_6">
    <path d="M 56.12 6.845228 
L 333.168 6.845228 
" style="fill:none;stroke:#000000;stroke-linecap:square;stroke-linejoin:miter;stroke-width:0.8;"/>
   </g>
   <g id="text_13">
    <!-- scipy-opt -->
    <defs>
     <path d="M 32.171875 -5.078125 
Q 28.375 -14.84375 24.75 -17.8125 
Q 21.140625 -20.796875 15.09375 -20.796875 
L 7.90625 -20.796875 
L 7.90625 -13.28125 
L 13.1875 -13.28125 
Q 16.890625 -13.28125 18.9375 -11.515625 
Q 21 -9.765625 23.484375 -3.21875 
L 25.09375 0.875 
L 2.984375 54.6875 
L 12.5 54.6875 
L 29.59375 11.921875 
L 46.6875 54.6875 
L 56.203125 54.6875 
z
" id="DejaVuSans-79"/>
    </defs>
    <g transform="translate(369.18424 293.867279)scale(0.17 -0.17)">
     <use xlink:href="#DejaVuSans-73"/>
     <use x="52.099609" xlink:href="#DejaVuSans-63"/>
     <use x="107.080078" xlink:href="#DejaVuSans-69"/>
     <use x="134.863281" xlink:href="#DejaVuSans-70"/>
     <use x="198.339844" xlink:href="#DejaVuSans-79"/>
     <use x="257.503906" xlink:href="#DejaVuSans-2d"/>
     <use x="293.603516" xlink:href="#DejaVuSans-6f"/>
     <use x="354.785156" xlink:href="#DejaVuSans-70"/>
     <use x="418.261719" xlink:href="#DejaVuSans-74"/>
    </g>
   </g>
   <g id="text_14">
    <!-- BFGS ros  -->
    <defs>
     <path d="M 19.671875 34.8125 
L 19.671875 8.109375 
L 35.5 8.109375 
Q 43.453125 8.109375 47.28125 11.40625 
Q 51.125 14.703125 51.125 21.484375 
Q 51.125 28.328125 47.28125 31.5625 
Q 43.453125 34.8125 35.5 34.8125 
z
M 19.671875 64.796875 
L 19.671875 42.828125 
L 34.28125 42.828125 
Q 41.5 42.828125 45.03125 45.53125 
Q 48.578125 48.25 48.578125 53.8125 
Q 48.578125 59.328125 45.03125 62.0625 
Q 41.5 64.796875 34.28125 64.796875 
z
M 9.8125 72.90625 
L 35.015625 72.90625 
Q 46.296875 72.90625 52.390625 68.21875 
Q 58.5 63.53125 58.5 54.890625 
Q 58.5 48.1875 55.375 44.234375 
Q 52.25 40.28125 46.1875 39.3125 
Q 53.46875 37.75 57.5 32.78125 
Q 61.53125 27.828125 61.53125 20.40625 
Q 61.53125 10.640625 54.890625 5.3125 
Q 48.25 0 35.984375 0 
L 9.8125 0 
z
" id="DejaVuSans-42"/>
     <path d="M 59.515625 10.40625 
L 59.515625 29.984375 
L 43.40625 29.984375 
L 43.40625 38.09375 
L 69.28125 38.09375 
L 69.28125 6.78125 
Q 63.578125 2.734375 56.6875 0.65625 
Q 49.8125 -1.421875 42 -1.421875 
Q 24.90625 -1.421875 15.25 8.5625 
Q 5.609375 18.5625 5.609375 36.375 
Q 5.609375 54.25 15.25 64.234375 
Q 24.90625 74.21875 42 74.21875 
Q 49.125 74.21875 55.546875 72.453125 
Q 61.96875 70.703125 67.390625 67.28125 
L 67.390625 56.78125 
Q 61.921875 61.421875 55.765625 63.765625 
Q 49.609375 66.109375 42.828125 66.109375 
Q 29.4375 66.109375 22.71875 58.640625 
Q 16.015625 51.171875 16.015625 36.375 
Q 16.015625 21.625 22.71875 14.15625 
Q 29.4375 6.6875 42.828125 6.6875 
Q 48.046875 6.6875 52.140625 7.59375 
Q 56.25 8.5 59.515625 10.40625 
z
" id="DejaVuSans-47"/>
     <path d="M 53.515625 70.515625 
L 53.515625 60.890625 
Q 47.90625 63.578125 42.921875 64.890625 
Q 37.9375 66.21875 33.296875 66.21875 
Q 25.25 66.21875 20.875 63.09375 
Q 16.5 59.96875 16.5 54.203125 
Q 16.5 49.359375 19.40625 46.890625 
Q 22.3125 44.4375 30.421875 42.921875 
L 36.375 41.703125 
Q 47.40625 39.59375 52.65625 34.296875 
Q 57.90625 29 57.90625 20.125 
Q 57.90625 9.515625 50.796875 4.046875 
Q 43.703125 -1.421875 29.984375 -1.421875 
Q 24.8125 -1.421875 18.96875 -0.25 
Q 13.140625 0.921875 6.890625 3.21875 
L 6.890625 13.375 
Q 12.890625 10.015625 18.65625 8.296875 
Q 24.421875 6.59375 29.984375 6.59375 
Q 38.421875 6.59375 43.015625 9.90625 
Q 47.609375 13.234375 47.609375 19.390625 
Q 47.609375 24.75 44.3125 27.78125 
Q 41.015625 30.8125 33.5 32.328125 
L 27.484375 33.5 
Q 16.453125 35.6875 11.515625 40.375 
Q 6.59375 45.0625 6.59375 53.421875 
Q 6.59375 63.09375 13.40625 68.65625 
Q 20.21875 74.21875 32.171875 74.21875 
Q 37.3125 74.21875 42.625 73.28125 
Q 47.953125 72.359375 53.515625 70.515625 
z
" id="DejaVuSans-53"/>
    </defs>
    <g transform="translate(369.18424 156.979466)scale(0.17 -0.17)">
     <use xlink:href="#DejaVuSans-42"/>
     <use x="68.603516" xlink:href="#DejaVuSans-46"/>
     <use x="126.123047" xlink:href="#DejaVuSans-47"/>
     <use x="203.613281" xlink:href="#DejaVuSans-53"/>
     <use x="267.089844" xlink:href="#DejaVuSans-20"/>
     <use x="298.876953" xlink:href="#DejaVuSans-72"/>
     <use x="339.958984" xlink:href="#DejaVuSans-6f"/>
     <use x="401.140625" xlink:href="#DejaVuSans-73"/>
     <use x="453.240234" xlink:href="#DejaVuSans-20"/>
    </g>
   </g>
   <g id="text_15">
    <!-- best 2009 -->
    <defs>
     <path d="M 48.6875 27.296875 
Q 48.6875 37.203125 44.609375 42.84375 
Q 40.53125 48.484375 33.40625 48.484375 
Q 26.265625 48.484375 22.1875 42.84375 
Q 18.109375 37.203125 18.109375 27.296875 
Q 18.109375 17.390625 22.1875 11.75 
Q 26.265625 6.109375 33.40625 6.109375 
Q 40.53125 6.109375 44.609375 11.75 
Q 48.6875 17.390625 48.6875 27.296875 
z
M 18.109375 46.390625 
Q 20.953125 51.265625 25.265625 53.625 
Q 29.59375 56 35.59375 56 
Q 45.5625 56 51.78125 48.09375 
Q 58.015625 40.1875 58.015625 27.296875 
Q 58.015625 14.40625 51.78125 6.484375 
Q 45.5625 -1.421875 35.59375 -1.421875 
Q 29.59375 -1.421875 25.265625 0.953125 
Q 20.953125 3.328125 18.109375 8.203125 
L 18.109375 0 
L 9.078125 0 
L 9.078125 75.984375 
L 18.109375 75.984375 
z
" id="DejaVuSans-62"/>
     <path d="M 10.984375 1.515625 
L 10.984375 10.5 
Q 14.703125 8.734375 18.5 7.8125 
Q 22.3125 6.890625 25.984375 6.890625 
Q 35.75 6.890625 40.890625 13.453125 
Q 46.046875 20.015625 46.78125 33.40625 
Q 43.953125 29.203125 39.59375 26.953125 
Q 35.25 24.703125 29.984375 24.703125 
Q 19.046875 24.703125 12.671875 31.3125 
Q 6.296875 37.9375 6.296875 49.421875 
Q 6.296875 60.640625 12.9375 67.421875 
Q 19.578125 74.21875 30.609375 74.21875 
Q 43.265625 74.21875 49.921875 64.515625 
Q 56.59375 54.828125 56.59375 36.375 
Q 56.59375 19.140625 48.40625 8.859375 
Q 40.234375 -1.421875 26.421875 -1.421875 
Q 22.703125 -1.421875 18.890625 -0.6875 
Q 15.09375 0.046875 10.984375 1.515625 
z
M 30.609375 32.421875 
Q 37.25 32.421875 41.125 36.953125 
Q 45.015625 41.5 45.015625 49.421875 
Q 45.015625 57.28125 41.125 61.84375 
Q 37.25 66.40625 30.609375 66.40625 
Q 23.96875 66.40625 20.09375 61.84375 
Q 16.21875 57.28125 16.21875 49.421875 
Q 16.21875 41.5 20.09375 36.953125 
Q 23.96875 32.421875 30.609375 32.421875 
z
" id="DejaVuSans-39"/>
    </defs>
    <g transform="translate(369.18424 20.091654)scale(0.17 -0.17)">
     <use xlink:href="#DejaVuSans-62"/>
     <use x="63.476562" xlink:href="#DejaVuSans-65"/>
     <use x="125" xlink:href="#DejaVuSans-73"/>
     <use x="177.099609" xlink:href="#DejaVuSans-74"/>
     <use x="216.308594" xlink:href="#DejaVuSans-20"/>
     <use x="248.095703" xlink:href="#DejaVuSans-32"/>
     <use x="311.71875" xlink:href="#DejaVuSans-30"/>
     <use x="375.341797" xlink:href="#DejaVuSans-30"/>
     <use x="438.964844" xlink:href="#DejaVuSans-39"/>
    </g>
   </g>
   <g id="text_16">
    <!-- bbob f10-f14, 20-D -->
    <defs>
     <path d="M 19.671875 64.796875 
L 19.671875 8.109375 
L 31.59375 8.109375 
Q 46.6875 8.109375 53.6875 14.9375 
Q 60.6875 21.78125 60.6875 36.53125 
Q 60.6875 51.171875 53.6875 57.984375 
Q 46.6875 64.796875 31.59375 64.796875 
z
M 9.8125 72.90625 
L 30.078125 72.90625 
Q 51.265625 72.90625 61.171875 64.09375 
Q 71.09375 55.28125 71.09375 36.53125 
Q 71.09375 17.671875 61.125 8.828125 
Q 51.171875 0 30.078125 0 
L 9.8125 0 
z
" id="DejaVuSans-44"/>
    </defs>
    <g transform="translate(58.89048 17.475982)scale(0.102 -0.102)">
     <use xlink:href="#DejaVuSans-62"/>
     <use x="63.476562" xlink:href="#DejaVuSans-62"/>
     <use x="126.953125" xlink:href="#DejaVuSans-6f"/>
     <use x="188.134766" xlink:href="#DejaVuSans-62"/>
     <use x="251.611328" xlink:href="#DejaVuSans-20"/>
     <use x="283.398438" xlink:href="#DejaVuSans-66"/>
     <use x="318.603516" xlink:href="#DejaVuSans-31"/>
     <use x="382.226562" xlink:href="#DejaVuSans-30"/>
     <use x="445.849609" xlink:href="#DejaVuSans-2d"/>
     <use x="481.933594" xlink:href="#DejaVuSans-66"/>
     <use x="517.138672" xlink:href="#DejaVuSans-31"/>
     <use x="580.761719" xlink:href="#DejaVuSans-34"/>
     <use x="644.384766" xlink:href="#DejaVuSans-2c"/>
     <use x="676.171875" xlink:href="#DejaVuSans-20"/>
     <use x="707.958984" xlink:href="#DejaVuSans-32"/>
     <use x="771.582031" xlink:href="#DejaVuSans-30"/>
     <use x="835.205078" xlink:href="#DejaVuSans-2d"/>
     <use x="871.289062" xlink:href="#DejaVuSans-44"/>
    </g>
    <!-- 51 targets: 100..1e-08 -->
    <defs>
     <path d="M 10.796875 72.90625 
L 49.515625 72.90625 
L 49.515625 64.59375 
L 19.828125 64.59375 
L 19.828125 46.734375 
Q 21.96875 47.46875 24.109375 47.828125 
Q 26.265625 48.1875 28.421875 48.1875 
Q 40.625 48.1875 47.75 41.5 
Q 54.890625 34.8125 54.890625 23.390625 
Q 54.890625 11.625 47.5625 5.09375 
Q 40.234375 -1.421875 26.90625 -1.421875 
Q 22.3125 -1.421875 17.546875 -0.640625 
Q 12.796875 0.140625 7.71875 1.703125 
L 7.71875 11.625 
Q 12.109375 9.234375 16.796875 8.0625 
Q 21.484375 6.890625 26.703125 6.890625 
Q 35.15625 6.890625 40.078125 11.328125 
Q 45.015625 15.765625 45.015625 23.390625 
Q 45.015625 31 40.078125 35.4375 
Q 35.15625 39.890625 26.703125 39.890625 
Q 22.75 39.890625 18.8125 39.015625 
Q 14.890625 38.140625 10.796875 36.28125 
z
" id="DejaVuSans-35"/>
     <path d="M 11.71875 12.40625 
L 22.015625 12.40625 
L 22.015625 0 
L 11.71875 0 
z
M 11.71875 51.703125 
L 22.015625 51.703125 
L 22.015625 39.3125 
L 11.71875 39.3125 
z
" id="DejaVuSans-3a"/>
    </defs>
    <g transform="translate(58.89048 28.89775)scale(0.102 -0.102)">
     <use xlink:href="#DejaVuSans-35"/>
     <use x="63.623047" xlink:href="#DejaVuSans-31"/>
     <use x="127.246094" xlink:href="#DejaVuSans-20"/>
     <use x="159.033203" xlink:href="#DejaVuSans-74"/>
     <use x="198.242188" xlink:href="#DejaVuSans-61"/>
     <use x="259.521484" xlink:href="#DejaVuSans-72"/>
     <use x="300.619141" xlink:href="#DejaVuSans-67"/>
     <use x="364.095703" xlink:href="#DejaVuSans-65"/>
     <use x="425.619141" xlink:href="#DejaVuSans-74"/>
     <use x="464.828125" xlink:href="#DejaVuSans-73"/>
     <use x="516.927734" xlink:href="#DejaVuSans-3a"/>
     <use x="550.619141" xlink:href="#DejaVuSans-20"/>
     <use x="582.40625" xlink:href="#DejaVuSans-31"/>
     <use x="646.029297" xlink:href="#DejaVuSans-30"/>
     <use x="709.652344" xlink:href="#DejaVuSans-30"/>
     <use x="773.275391" xlink:href="#DejaVuSans-2e"/>
     <use x="805.0625" xlink:href="#DejaVuSans-2e"/>
     <use x="836.849609" xlink:href="#DejaVuSans-31"/>
     <use x="900.472656" xlink:href="#DejaVuSans-65"/>
     <use x="961.996094" xlink:href="#DejaVuSans-2d"/>
     <use x="998.080078" xlink:href="#DejaVuSans-30"/>
     <use x="1061.703125" xlink:href="#DejaVuSans-38"/>
    </g>
    <!-- 15 instances -->
    <g transform="translate(58.89048 40.319519)scale(0.102 -0.102)">
     <use xlink:href="#DejaVuSans-31"/>
     <use x="63.623047" xlink:href="#DejaVuSans-35"/>
     <use x="127.246094" xlink:href="#DejaVuSans-20"/>
     <use x="159.033203" xlink:href="#DejaVuSans-69"/>
     <use x="186.816406" xlink:href="#DejaVuSans-6e"/>
     <use x="250.195312" xlink:href="#DejaVuSans-73"/>
     <use x="302.294922" xlink:href="#DejaVuSans-74"/>
     <use x="341.503906" xlink:href="#DejaVuSans-61"/>
     <use x="402.783203" xlink:href="#DejaVuSans-6e"/>
     <use x="466.162109" xlink:href="#DejaVuSans-63"/>
     <use x="521.142578" xlink:href="#DejaVuSans-65"/>
     <use x="582.666016" xlink:href="#DejaVuSans-73"/>
    </g>
   </g>
   <g id="text_17">
    <!-- v0.0.0 -->
    <g style="fill:#808080;" transform="translate(178.96275 289.919965)scale(0.1 -0.1)">
     <use xlink:href="#DejaVuSans-76"/>
     <use x="59.179688" xlink:href="#DejaVuSans-30"/>
     <use x="122.802734" xlink:href="#DejaVuSans-2e"/>
     <use x="154.589844" xlink:href="#DejaVuSans-30"/>
     <use x="218.212891" xlink:href="#DejaVuSans-2e"/>
     <use x="250" xlink:href="#DejaVuSans-30"/>
    </g>
   </g>
  </g>
 </g>
 <defs>
  <clipPath id="pf212869f97">
   <rect height="288.034772" width="277.048" x="56.12" y="6.845228"/>
  </clipPath>
 </defs>
</svg>
