<?xml version="1.0" encoding="utf-8" standalone="no"?>
<!DOCTYPE svg PUBLIC "-//W3C//DTD SVG 1.1//EN"
  "http://www.w3.org/Graphics/SVG/1.1/DTD/svg11.dtd">
<!-- Created with matplotlib (http://matplotlib.org/) -->
<svg height="345pt" version="1.1" viewBox="0 0 460 345" width="460pt" xmlns="http://www.w3.org/2000/svg" xmlns:xlink="http://www.w3.org/1999/xlink">
 <defs>
  <style type="text/css">
*{stroke-linecap:butt;stroke-linejoin:round;}
  </style>
 </defs>
 <g id="figure_1">
  <g id="patch_1">
   <path d="M 0 345.6 
L 460.8 345.6 
L 460.8 0 
L 0 0 
z
" style="fill:#ffffff;"/>
  </g>
  <g id="axes_1">
   <g id="patch_2">
    <path d="M 56.12 294.88 
L 333.168 294.88 
L 333.168 24.84 
L 56.12 24.84 
z
" style="fill:#ffffff;"/>
   </g>
   <g id="line2d_1">
    <path d="M 28.455965 294.88 
L 28.455965 284.395046 
L 52.284468 284.395046 
L 52.284468 279.152568 
L 69.672503 279.152568 
L 69.672503 273.910091 
L 87.481505 273.910091 
L 87.481505 268.667614 
L 92.287186 268.667614 
L 92.287186 263.425137 
L 102.20309 263.425137 
L 102.20309 258.18266 
L 105.801534 258.18266 
L 105.801534 252.940182 
L 110.602556 252.940182 
L 110.602556 247.697705 
L 128.997851 247.697705 
L 128.997851 242.455228 
L 149.697448 242.455228 
L 149.697448 237.212751 
L 155.397975 237.212751 
L 155.397975 231.970274 
L 155.620451 231.970274 
L 155.620451 226.727797 
L 155.798464 226.727797 
L 155.798464 221.485319 
L 155.850472 221.485319 
L 155.850472 216.242842 
L 156.04668 216.242842 
L 156.04668 211.000365 
L 156.077456 211.000365 
L 156.077456 205.757888 
L 156.108178 205.757888 
L 156.108178 200.515411 
L 156.138844 200.515411 
L 156.138844 195.272933 
L 156.169456 195.272933 
L 156.169456 190.030456 
L 156.230517 190.030456 
L 156.230517 184.787979 
L 156.250823 184.787979 
L 156.250823 179.545502 
L 156.260967 179.545502 
L 156.260967 174.303025 
L 156.311596 174.303025 
L 156.311596 169.060547 
L 156.331806 169.060547 
L 156.331806 163.81807 
L 156.362076 163.81807 
L 156.362076 158.575593 
L 156.412409 158.575593 
L 156.412409 153.333116 
L 156.432501 153.333116 
L 156.432501 148.090639 
L 156.45257 148.090639 
L 156.45257 142.848162 
L 156.472615 142.848162 
L 156.472615 137.605684 
L 156.492636 137.605684 
L 156.492636 132.363207 
L 156.512635 132.363207 
L 156.512635 127.12073 
L 156.542589 127.12073 
L 156.542589 121.878253 
L 156.572491 121.878253 
L 156.572491 116.635776 
L 156.602341 116.635776 
L 156.602341 106.150821 
L 156.661886 106.150821 
L 156.661886 100.908344 
L 156.691581 100.908344 
L 156.691581 95.665867 
L 156.701468 95.665867 
L 156.701468 90.42339 
L 156.74096 90.42339 
L 156.74096 85.180912 
L 156.770519 85.180912 
L 156.770519 79.938435 
L 156.790197 79.938435 
L 156.790197 74.695958 
L 156.819671 74.695958 
L 156.819671 69.453481 
L 156.829485 69.453481 
L 156.829485 64.211004 
L 156.858892 64.211004 
L 156.858892 58.968526 
L 156.878469 58.968526 
L 156.878469 53.726049 
L 156.898024 53.726049 
L 156.898024 48.483572 
L 156.927315 48.483572 
L 156.927315 43.241095 
L 156.946814 43.241095 
L 156.946814 37.998618 
L 156.976021 37.998618 
L 156.976021 32.756141 
L 158.6346 32.756141 
L 158.6346 27.513663 
L 333.168 27.513663 
" style="fill:none;stroke:#f5deb3;stroke-linecap:square;stroke-width:4;"/>
   </g>
   <g id="line2d_2">
    <defs>
     <path d="M -0 7.778175 
L 7.778175 0 
L 0 -7.778175 
L -7.778175 -0 
z
" id="mef3e421b40" style="stroke:#f5deb3;stroke-linejoin:miter;stroke-width:1.5;"/>
    </defs>
    <g>
     <use style="fill:#f5deb3;stroke:#f5deb3;stroke-linejoin:miter;stroke-width:1.5;" x="87.481505" xlink:href="#mef3e421b40" y="268.667614"/>
     <use style="fill:#f5deb3;stroke:#f5deb3;stroke-linejoin:miter;stroke-width:1.5;" x="156.169456" xlink:href="#mef3e421b40" y="190.030456"/>
     <use style="fill:#f5deb3;stroke:#f5deb3;stroke-linejoin:miter;stroke-width:1.5;" x="156.898024" xlink:href="#mef3e421b40" y="48.483572"/>
     <use style="fill:#f5deb3;stroke:#f5deb3;stroke-linejoin:miter;stroke-width:1.5;" x="158.6346" xlink:href="#mef3e421b40" y="27.513663"/>
     <use style="fill:#f5deb3;stroke:#f5deb3;stroke-linejoin:miter;stroke-width:1.5;" x="158.6346" xlink:href="#mef3e421b40" y="27.513663"/>
     <use style="fill:#f5deb3;stroke:#f5deb3;stroke-linejoin:miter;stroke-width:1.5;" x="333.168" xlink:href="#mef3e421b40" y="27.513663"/>
    </g>
   </g>
   <g id="line2d_3">
    <path style="fill:none;stroke:#f5deb3;stroke-linecap:square;stroke-width:4;"/>
    <g/>
   </g>
   <g id="line2d_4">
    <path d="M 333.168 27.513663 
L 363.64328 32.86099 
" style="fill:none;stroke:#f5deb3;stroke-linecap:square;stroke-width:4;"/>
    <g>
     <use style="fill:#f5deb3;stroke:#f5deb3;stroke-linejoin:miter;stroke-width:1.5;" x="333.168" xlink:href="#mef3e421b40" y="27.513663"/>
     <use style="fill:#f5deb3;stroke:#f5deb3;stroke-linejoin:miter;stroke-width:1.5;" x="363.64328" xlink:href="#mef3e421b40" y="32.86099"/>
    </g>
   </g>
   <g id="matplotlib.axis_1">
    <g id="xtick_1">
     <g id="line2d_5">
      <path clip-path="url(#pf81dcb67d0)" d="M 56.12 294.88 
L 56.12 24.84 
" style="fill:none;stroke:#b0b0b0;stroke-linecap:square;stroke-width:0.8;"/>
     </g>
     <g id="line2d_6">
      <defs>
       <path d="M 0 0 
L 0 3.5 
" id="m83d8bf2b0f" style="stroke:#000000;stroke-width:0.8;"/>
      </defs>
      <g>
       <use style="stroke:#000000;stroke-width:0.8;" x="56.12" xlink:href="#m83d8bf2b0f" y="294.88"/>
      </g>
     </g>
     <g id="text_1">
      <!-- 0 -->
      <defs>
       <path d="M 31.78125 66.40625 
Q 24.171875 66.40625 20.328125 58.90625 
Q 16.5 51.421875 16.5 36.375 
Q 16.5 21.390625 20.328125 13.890625 
Q 24.171875 6.390625 31.78125 6.390625 
Q 39.453125 6.390625 43.28125 13.890625 
Q 47.125 21.390625 47.125 36.375 
Q 47.125 51.421875 43.28125 58.90625 
Q 39.453125 66.40625 31.78125 66.40625 
z
M 31.78125 74.21875 
Q 44.046875 74.21875 50.515625 64.515625 
Q 56.984375 54.828125 56.984375 36.375 
Q 56.984375 17.96875 50.515625 8.265625 
Q 44.046875 -1.421875 31.78125 -1.421875 
Q 19.53125 -1.421875 13.0625 8.265625 
Q 6.59375 17.96875 6.59375 36.375 
Q 6.59375 54.828125 13.0625 64.515625 
Q 19.53125 74.21875 31.78125 74.21875 
z
" id="DejaVuSans-30"/>
      </defs>
      <g transform="translate(49.7575 317.076875)scale(0.2 -0.2)">
       <use xlink:href="#DejaVuSans-30"/>
      </g>
     </g>
    </g>
    <g id="xtick_2">
     <g id="line2d_7">
      <path clip-path="url(#pf81dcb67d0)" d="M 135.276571 294.88 
L 135.276571 24.84 
" style="fill:none;stroke:#b0b0b0;stroke-linecap:square;stroke-width:0.8;"/>
     </g>
     <g id="line2d_8">
      <g>
       <use style="stroke:#000000;stroke-width:0.8;" x="135.276571" xlink:href="#m83d8bf2b0f" y="294.88"/>
      </g>
     </g>
     <g id="text_2">
      <!-- 2 -->
      <defs>
       <path d="M 19.1875 8.296875 
L 53.609375 8.296875 
L 53.609375 0 
L 7.328125 0 
L 7.328125 8.296875 
Q 12.9375 14.109375 22.625 23.890625 
Q 32.328125 33.6875 34.8125 36.53125 
Q 39.546875 41.84375 41.421875 45.53125 
Q 43.3125 49.21875 43.3125 52.78125 
Q 43.3125 58.59375 39.234375 62.25 
Q 35.15625 65.921875 28.609375 65.921875 
Q 23.96875 65.921875 18.8125 64.3125 
Q 13.671875 62.703125 7.8125 59.421875 
L 7.8125 69.390625 
Q 13.765625 71.78125 18.9375 73 
Q 24.125 74.21875 28.421875 74.21875 
Q 39.75 74.21875 46.484375 68.546875 
Q 53.21875 62.890625 53.21875 53.421875 
Q 53.21875 48.921875 51.53125 44.890625 
Q 49.859375 40.875 45.40625 35.40625 
Q 44.1875 33.984375 37.640625 27.21875 
Q 31.109375 20.453125 19.1875 8.296875 
z
" id="DejaVuSans-32"/>
      </defs>
      <g transform="translate(128.914071 317.076875)scale(0.2 -0.2)">
       <use xlink:href="#DejaVuSans-32"/>
      </g>
     </g>
    </g>
    <g id="xtick_3">
     <g id="line2d_9">
      <path clip-path="url(#pf81dcb67d0)" d="M 214.433143 294.88 
L 214.433143 24.84 
" style="fill:none;stroke:#b0b0b0;stroke-linecap:square;stroke-width:0.8;"/>
     </g>
     <g id="line2d_10">
      <g>
       <use style="stroke:#000000;stroke-width:0.8;" x="214.433143" xlink:href="#m83d8bf2b0f" y="294.88"/>
      </g>
     </g>
     <g id="text_3">
      <!-- 4 -->
      <defs>
       <path d="M 37.796875 64.3125 
L 12.890625 25.390625 
L 37.796875 25.390625 
z
M 35.203125 72.90625 
L 47.609375 72.90625 
L 47.609375 25.390625 
L 58.015625 25.390625 
L 58.015625 17.1875 
L 47.609375 17.1875 
L 47.609375 0 
L 37.796875 0 
L 37.796875 17.1875 
L 4.890625 17.1875 
L 4.890625 26.703125 
z
" id="DejaVuSans-34"/>
      </defs>
      <g transform="translate(208.070643 317.076875)scale(0.2 -0.2)">
       <use xlink:href="#DejaVuSans-34"/>
      </g>
     </g>
    </g>
    <g id="xtick_4">
     <g id="line2d_11">
      <path clip-path="url(#pf81dcb67d0)" d="M 293.589714 294.88 
L 293.589714 24.84 
" style="fill:none;stroke:#b0b0b0;stroke-linecap:square;stroke-width:0.8;"/>
     </g>
     <g id="line2d_12">
      <g>
       <use style="stroke:#000000;stroke-width:0.8;" x="293.589714" xlink:href="#m83d8bf2b0f" y="294.88"/>
      </g>
     </g>
     <g id="text_4">
      <!-- 6 -->
      <defs>
       <path d="M 33.015625 40.375 
Q 26.375 40.375 22.484375 35.828125 
Q 18.609375 31.296875 18.609375 23.390625 
Q 18.609375 15.53125 22.484375 10.953125 
Q 26.375 6.390625 33.015625 6.390625 
Q 39.65625 6.390625 43.53125 10.953125 
Q 47.40625 15.53125 47.40625 23.390625 
Q 47.40625 31.296875 43.53125 35.828125 
Q 39.65625 40.375 33.015625 40.375 
z
M 52.59375 71.296875 
L 52.59375 62.3125 
Q 48.875 64.0625 45.09375 64.984375 
Q 41.3125 65.921875 37.59375 65.921875 
Q 27.828125 65.921875 22.671875 59.328125 
Q 17.53125 52.734375 16.796875 39.40625 
Q 19.671875 43.65625 24.015625 45.921875 
Q 28.375 48.1875 33.59375 48.1875 
Q 44.578125 48.1875 50.953125 41.515625 
Q 57.328125 34.859375 57.328125 23.390625 
Q 57.328125 12.15625 50.6875 5.359375 
Q 44.046875 -1.421875 33.015625 -1.421875 
Q 20.359375 -1.421875 13.671875 8.265625 
Q 6.984375 17.96875 6.984375 36.375 
Q 6.984375 53.65625 15.1875 63.9375 
Q 23.390625 74.21875 37.203125 74.21875 
Q 40.921875 74.21875 44.703125 73.484375 
Q 48.484375 72.75 52.59375 71.296875 
z
" id="DejaVuSans-36"/>
      </defs>
      <g transform="translate(287.227214 317.076875)scale(0.2 -0.2)">
       <use xlink:href="#DejaVuSans-36"/>
      </g>
     </g>
    </g>
    <g id="xtick_5">
     <g id="line2d_13">
      <path clip-path="url(#pf81dcb67d0)" d="M 56.12 294.88 
L 56.12 24.84 
" style="fill:none;stroke:#b0b0b0;stroke-linecap:square;stroke-width:0.8;"/>
     </g>
     <g id="line2d_14">
      <defs>
       <path d="M 0 0 
L 0 2 
" id="ma175be3368" style="stroke:#000000;stroke-width:0.6;"/>
      </defs>
      <g>
       <use style="stroke:#000000;stroke-width:0.6;" x="56.12" xlink:href="#ma175be3368" y="294.88"/>
      </g>
     </g>
    </g>
    <g id="xtick_6">
     <g id="line2d_15">
      <path clip-path="url(#pf81dcb67d0)" d="M 95.698286 294.88 
L 95.698286 24.84 
" style="fill:none;stroke:#b0b0b0;stroke-linecap:square;stroke-width:0.8;"/>
     </g>
     <g id="line2d_16">
      <g>
       <use style="stroke:#000000;stroke-width:0.6;" x="95.698286" xlink:href="#ma175be3368" y="294.88"/>
      </g>
     </g>
    </g>
    <g id="xtick_7">
     <g id="line2d_17">
      <path clip-path="url(#pf81dcb67d0)" d="M 135.276571 294.88 
L 135.276571 24.84 
" style="fill:none;stroke:#b0b0b0;stroke-linecap:square;stroke-width:0.8;"/>
     </g>
     <g id="line2d_18">
      <g>
       <use style="stroke:#000000;stroke-width:0.6;" x="135.276571" xlink:href="#ma175be3368" y="294.88"/>
      </g>
     </g>
    </g>
    <g id="xtick_8">
     <g id="line2d_19">
      <path clip-path="url(#pf81dcb67d0)" d="M 174.854857 294.88 
L 174.854857 24.84 
" style="fill:none;stroke:#b0b0b0;stroke-linecap:square;stroke-width:0.8;"/>
     </g>
     <g id="line2d_20">
      <g>
       <use style="stroke:#000000;stroke-width:0.6;" x="174.854857" xlink:href="#ma175be3368" y="294.88"/>
      </g>
     </g>
    </g>
    <g id="xtick_9">
     <g id="line2d_21">
      <path clip-path="url(#pf81dcb67d0)" d="M 214.433143 294.88 
L 214.433143 24.84 
" style="fill:none;stroke:#b0b0b0;stroke-linecap:square;stroke-width:0.8;"/>
     </g>
     <g id="line2d_22">
      <g>
       <use style="stroke:#000000;stroke-width:0.6;" x="214.433143" xlink:href="#ma175be3368" y="294.88"/>
      </g>
     </g>
    </g>
    <g id="xtick_10">
     <g id="line2d_23">
      <path clip-path="url(#pf81dcb67d0)" d="M 254.011429 294.88 
L 254.011429 24.84 
" style="fill:none;stroke:#b0b0b0;stroke-linecap:square;stroke-width:0.8;"/>
     </g>
     <g id="line2d_24">
      <g>
       <use style="stroke:#000000;stroke-width:0.6;" x="254.011429" xlink:href="#ma175be3368" y="294.88"/>
      </g>
     </g>
    </g>
    <g id="xtick_11">
     <g id="line2d_25">
      <path clip-path="url(#pf81dcb67d0)" d="M 293.589714 294.88 
L 293.589714 24.84 
" style="fill:none;stroke:#b0b0b0;stroke-linecap:square;stroke-width:0.8;"/>
     </g>
     <g id="line2d_26">
      <g>
       <use style="stroke:#000000;stroke-width:0.6;" x="293.589714" xlink:href="#ma175be3368" y="294.88"/>
      </g>
     </g>
    </g>
    <g id="xtick_12">
     <g id="line2d_27">
      <path clip-path="url(#pf81dcb67d0)" d="M 333.168 294.88 
L 333.168 24.84 
" style="fill:none;stroke:#b0b0b0;stroke-linecap:square;stroke-width:0.8;"/>
     </g>
     <g id="line2d_28">
      <g>
       <use style="stroke:#000000;stroke-width:0.6;" x="333.168" xlink:href="#ma175be3368" y="294.88"/>
      </g>
     </g>
    </g>
    <g id="text_5">
     <!-- log10(# f-evals / dimension) -->
     <defs>
      <path d="M 9.421875 75.984375 
L 18.40625 75.984375 
L 18.40625 0 
L 9.421875 0 
z
" id="DejaVuSans-6c"/>
      <path d="M 30.609375 48.390625 
Q 23.390625 48.390625 19.1875 42.75 
Q 14.984375 37.109375 14.984375 27.296875 
Q 14.984375 17.484375 19.15625 11.84375 
Q 23.34375 6.203125 30.609375 6.203125 
Q 37.796875 6.203125 41.984375 11.859375 
Q 46.1875 17.53125 46.1875 27.296875 
Q 46.1875 37.015625 41.984375 42.703125 
Q 37.796875 48.390625 30.609375 48.390625 
z
M 30.609375 56 
Q 42.328125 56 49.015625 48.375 
Q 55.71875 40.765625 55.71875 27.296875 
Q 55.71875 13.875 49.015625 6.21875 
Q 42.328125 -1.421875 30.609375 -1.421875 
Q 18.84375 -1.421875 12.171875 6.21875 
Q 5.515625 13.875 5.515625 27.296875 
Q 5.515625 40.765625 12.171875 48.375 
Q 18.84375 56 30.609375 56 
z
" id="DejaVuSans-6f"/>
      <path d="M 45.40625 27.984375 
Q 45.40625 37.75 41.375 43.109375 
Q 37.359375 48.484375 30.078125 48.484375 
Q 22.859375 48.484375 18.828125 43.109375 
Q 14.796875 37.75 14.796875 27.984375 
Q 14.796875 18.265625 18.828125 12.890625 
Q 22.859375 7.515625 30.078125 7.515625 
Q 37.359375 7.515625 41.375 12.890625 
Q 45.40625 18.265625 45.40625 27.984375 
z
M 54.390625 6.78125 
Q 54.390625 -7.171875 48.1875 -13.984375 
Q 42 -20.796875 29.203125 -20.796875 
Q 24.46875 -20.796875 20.265625 -20.09375 
Q 16.0625 -19.390625 12.109375 -17.921875 
L 12.109375 -9.1875 
Q 16.0625 -11.328125 19.921875 -12.34375 
Q 23.78125 -13.375 27.78125 -13.375 
Q 36.625 -13.375 41.015625 -8.765625 
Q 45.40625 -4.15625 45.40625 5.171875 
L 45.40625 9.625 
Q 42.625 4.78125 38.28125 2.390625 
Q 33.9375 0 27.875 0 
Q 17.828125 0 11.671875 7.65625 
Q 5.515625 15.328125 5.515625 27.984375 
Q 5.515625 40.671875 11.671875 48.328125 
Q 17.828125 56 27.875 56 
Q 33.9375 56 38.28125 53.609375 
Q 42.625 51.21875 45.40625 46.390625 
L 45.40625 54.6875 
L 54.390625 54.6875 
z
" id="DejaVuSans-67"/>
      <path d="M 12.40625 8.296875 
L 28.515625 8.296875 
L 28.515625 63.921875 
L 10.984375 60.40625 
L 10.984375 69.390625 
L 28.421875 72.90625 
L 38.28125 72.90625 
L 38.28125 8.296875 
L 54.390625 8.296875 
L 54.390625 0 
L 12.40625 0 
z
" id="DejaVuSans-31"/>
      <path d="M 31 75.875 
Q 24.46875 64.65625 21.28125 53.65625 
Q 18.109375 42.671875 18.109375 31.390625 
Q 18.109375 20.125 21.3125 9.0625 
Q 24.515625 -2 31 -13.1875 
L 23.1875 -13.1875 
Q 15.875 -1.703125 12.234375 9.375 
Q 8.59375 20.453125 8.59375 31.390625 
Q 8.59375 42.28125 12.203125 53.3125 
Q 15.828125 64.359375 23.1875 75.875 
z
" id="DejaVuSans-28"/>
      <path d="M 51.125 44 
L 36.921875 44 
L 32.8125 27.6875 
L 47.125 27.6875 
z
M 43.796875 71.78125 
L 38.71875 51.515625 
L 52.984375 51.515625 
L 58.109375 71.78125 
L 65.921875 71.78125 
L 60.890625 51.515625 
L 76.125 51.515625 
L 76.125 44 
L 58.984375 44 
L 54.984375 27.6875 
L 70.515625 27.6875 
L 70.515625 20.21875 
L 53.078125 20.21875 
L 48 0 
L 40.1875 0 
L 45.21875 20.21875 
L 30.90625 20.21875 
L 25.875 0 
L 18.015625 0 
L 23.09375 20.21875 
L 7.71875 20.21875 
L 7.71875 27.6875 
L 24.90625 27.6875 
L 29 44 
L 13.28125 44 
L 13.28125 51.515625 
L 30.90625 51.515625 
L 35.890625 71.78125 
z
" id="DejaVuSans-23"/>
      <path id="DejaVuSans-20"/>
      <path d="M 37.109375 75.984375 
L 37.109375 68.5 
L 28.515625 68.5 
Q 23.6875 68.5 21.796875 66.546875 
Q 19.921875 64.59375 19.921875 59.515625 
L 19.921875 54.6875 
L 34.71875 54.6875 
L 34.71875 47.703125 
L 19.921875 47.703125 
L 19.921875 0 
L 10.890625 0 
L 10.890625 47.703125 
L 2.296875 47.703125 
L 2.296875 54.6875 
L 10.890625 54.6875 
L 10.890625 58.5 
Q 10.890625 67.625 15.140625 71.796875 
Q 19.390625 75.984375 28.609375 75.984375 
z
" id="DejaVuSans-66"/>
      <path d="M 4.890625 31.390625 
L 31.203125 31.390625 
L 31.203125 23.390625 
L 4.890625 23.390625 
z
" id="DejaVuSans-2d"/>
      <path d="M 56.203125 29.59375 
L 56.203125 25.203125 
L 14.890625 25.203125 
Q 15.484375 15.921875 20.484375 11.0625 
Q 25.484375 6.203125 34.421875 6.203125 
Q 39.59375 6.203125 44.453125 7.46875 
Q 49.3125 8.734375 54.109375 11.28125 
L 54.109375 2.78125 
Q 49.265625 0.734375 44.1875 -0.34375 
Q 39.109375 -1.421875 33.890625 -1.421875 
Q 20.796875 -1.421875 13.15625 6.1875 
Q 5.515625 13.8125 5.515625 26.8125 
Q 5.515625 40.234375 12.765625 48.109375 
Q 20.015625 56 32.328125 56 
Q 43.359375 56 49.78125 48.890625 
Q 56.203125 41.796875 56.203125 29.59375 
z
M 47.21875 32.234375 
Q 47.125 39.59375 43.09375 43.984375 
Q 39.0625 48.390625 32.421875 48.390625 
Q 24.90625 48.390625 20.390625 44.140625 
Q 15.875 39.890625 15.1875 32.171875 
z
" id="DejaVuSans-65"/>
      <path d="M 2.984375 54.6875 
L 12.5 54.6875 
L 29.59375 8.796875 
L 46.6875 54.6875 
L 56.203125 54.6875 
L 35.6875 0 
L 23.484375 0 
z
" id="DejaVuSans-76"/>
      <path d="M 34.28125 27.484375 
Q 23.390625 27.484375 19.1875 25 
Q 14.984375 22.515625 14.984375 16.5 
Q 14.984375 11.71875 18.140625 8.90625 
Q 21.296875 6.109375 26.703125 6.109375 
Q 34.1875 6.109375 38.703125 11.40625 
Q 43.21875 16.703125 43.21875 25.484375 
L 43.21875 27.484375 
z
M 52.203125 31.203125 
L 52.203125 0 
L 43.21875 0 
L 43.21875 8.296875 
Q 40.140625 3.328125 35.546875 0.953125 
Q 30.953125 -1.421875 24.3125 -1.421875 
Q 15.921875 -1.421875 10.953125 3.296875 
Q 6 8.015625 6 15.921875 
Q 6 25.140625 12.171875 29.828125 
Q 18.359375 34.515625 30.609375 34.515625 
L 43.21875 34.515625 
L 43.21875 35.40625 
Q 43.21875 41.609375 39.140625 45 
Q 35.0625 48.390625 27.6875 48.390625 
Q 23 48.390625 18.546875 47.265625 
Q 14.109375 46.140625 10.015625 43.890625 
L 10.015625 52.203125 
Q 14.9375 54.109375 19.578125 55.046875 
Q 24.21875 56 28.609375 56 
Q 40.484375 56 46.34375 49.84375 
Q 52.203125 43.703125 52.203125 31.203125 
z
" id="DejaVuSans-61"/>
      <path d="M 44.28125 53.078125 
L 44.28125 44.578125 
Q 40.484375 46.53125 36.375 47.5 
Q 32.28125 48.484375 27.875 48.484375 
Q 21.1875 48.484375 17.84375 46.4375 
Q 14.5 44.390625 14.5 40.28125 
Q 14.5 37.15625 16.890625 35.375 
Q 19.28125 33.59375 26.515625 31.984375 
L 29.59375 31.296875 
Q 39.15625 29.25 43.1875 25.515625 
Q 47.21875 21.78125 47.21875 15.09375 
Q 47.21875 7.46875 41.1875 3.015625 
Q 35.15625 -1.421875 24.609375 -1.421875 
Q 20.21875 -1.421875 15.453125 -0.5625 
Q 10.6875 0.296875 5.421875 2 
L 5.421875 11.28125 
Q 10.40625 8.6875 15.234375 7.390625 
Q 20.0625 6.109375 24.8125 6.109375 
Q 31.15625 6.109375 34.5625 8.28125 
Q 37.984375 10.453125 37.984375 14.40625 
Q 37.984375 18.0625 35.515625 20.015625 
Q 33.0625 21.96875 24.703125 23.78125 
L 21.578125 24.515625 
Q 13.234375 26.265625 9.515625 29.90625 
Q 5.8125 33.546875 5.8125 39.890625 
Q 5.8125 47.609375 11.28125 51.796875 
Q 16.75 56 26.8125 56 
Q 31.78125 56 36.171875 55.265625 
Q 40.578125 54.546875 44.28125 53.078125 
z
" id="DejaVuSans-73"/>
      <path d="M 25.390625 72.90625 
L 33.6875 72.90625 
L 8.296875 -9.28125 
L 0 -9.28125 
z
" id="DejaVuSans-2f"/>
      <path d="M 45.40625 46.390625 
L 45.40625 75.984375 
L 54.390625 75.984375 
L 54.390625 0 
L 45.40625 0 
L 45.40625 8.203125 
Q 42.578125 3.328125 38.25 0.953125 
Q 33.9375 -1.421875 27.875 -1.421875 
Q 17.96875 -1.421875 11.734375 6.484375 
Q 5.515625 14.40625 5.515625 27.296875 
Q 5.515625 40.1875 11.734375 48.09375 
Q 17.96875 56 27.875 56 
Q 33.9375 56 38.25 53.625 
Q 42.578125 51.265625 45.40625 46.390625 
z
M 14.796875 27.296875 
Q 14.796875 17.390625 18.875 11.75 
Q 22.953125 6.109375 30.078125 6.109375 
Q 37.203125 6.109375 41.296875 11.75 
Q 45.40625 17.390625 45.40625 27.296875 
Q 45.40625 37.203125 41.296875 42.84375 
Q 37.203125 48.484375 30.078125 48.484375 
Q 22.953125 48.484375 18.875 42.84375 
Q 14.796875 37.203125 14.796875 27.296875 
z
" id="DejaVuSans-64"/>
      <path d="M 9.421875 54.6875 
L 18.40625 54.6875 
L 18.40625 0 
L 9.421875 0 
z
M 9.421875 75.984375 
L 18.40625 75.984375 
L 18.40625 64.59375 
L 9.421875 64.59375 
z
" id="DejaVuSans-69"/>
      <path d="M 52 44.1875 
Q 55.375 50.25 60.0625 53.125 
Q 64.75 56 71.09375 56 
Q 79.640625 56 84.28125 50.015625 
Q 88.921875 44.046875 88.921875 33.015625 
L 88.921875 0 
L 79.890625 0 
L 79.890625 32.71875 
Q 79.890625 40.578125 77.09375 44.375 
Q 74.3125 48.1875 68.609375 48.1875 
Q 61.625 48.1875 57.5625 43.546875 
Q 53.515625 38.921875 53.515625 30.90625 
L 53.515625 0 
L 44.484375 0 
L 44.484375 32.71875 
Q 44.484375 40.625 41.703125 44.40625 
Q 38.921875 48.1875 33.109375 48.1875 
Q 26.21875 48.1875 22.15625 43.53125 
Q 18.109375 38.875 18.109375 30.90625 
L 18.109375 0 
L 9.078125 0 
L 9.078125 54.6875 
L 18.109375 54.6875 
L 18.109375 46.1875 
Q 21.1875 51.21875 25.484375 53.609375 
Q 29.78125 56 35.6875 56 
Q 41.65625 56 45.828125 52.96875 
Q 50 49.953125 52 44.1875 
z
" id="DejaVuSans-6d"/>
      <path d="M 54.890625 33.015625 
L 54.890625 0 
L 45.90625 0 
L 45.90625 32.71875 
Q 45.90625 40.484375 42.875 44.328125 
Q 39.84375 48.1875 33.796875 48.1875 
Q 26.515625 48.1875 22.3125 43.546875 
Q 18.109375 38.921875 18.109375 30.90625 
L 18.109375 0 
L 9.078125 0 
L 9.078125 54.6875 
L 18.109375 54.6875 
L 18.109375 46.1875 
Q 21.34375 51.125 25.703125 53.5625 
Q 30.078125 56 35.796875 56 
Q 45.21875 56 50.046875 50.171875 
Q 54.890625 44.34375 54.890625 33.015625 
z
" id="DejaVuSans-6e"/>
      <path d="M 8.015625 75.875 
L 15.828125 75.875 
Q 23.140625 64.359375 26.78125 53.3125 
Q 30.421875 42.28125 30.421875 31.390625 
Q 30.421875 20.453125 26.78125 9.375 
Q 23.140625 -1.703125 15.828125 -13.1875 
L 8.015625 -13.1875 
Q 14.5 -2 17.703125 9.0625 
Q 20.90625 20.125 20.90625 31.390625 
Q 20.90625 42.671875 17.703125 53.65625 
Q 14.5 64.65625 8.015625 75.875 
z
" id="DejaVuSans-29"/>
     </defs>
     <g transform="translate(73.803219 338.153594)scale(0.17 -0.17)">
      <use xlink:href="#DejaVuSans-6c"/>
      <use x="27.783203" xlink:href="#DejaVuSans-6f"/>
      <use x="88.964844" xlink:href="#DejaVuSans-67"/>
      <use x="152.441406" xlink:href="#DejaVuSans-31"/>
      <use x="216.064453" xlink:href="#DejaVuSans-30"/>
      <use x="279.6875" xlink:href="#DejaVuSans-28"/>
      <use x="318.701172" xlink:href="#DejaVuSans-23"/>
      <use x="402.490234" xlink:href="#DejaVuSans-20"/>
      <use x="434.277344" xlink:href="#DejaVuSans-66"/>
      <use x="469.404297" xlink:href="#DejaVuSans-2d"/>
      <use x="505.488281" xlink:href="#DejaVuSans-65"/>
      <use x="567.011719" xlink:href="#DejaVuSans-76"/>
      <use x="626.191406" xlink:href="#DejaVuSans-61"/>
      <use x="687.470703" xlink:href="#DejaVuSans-6c"/>
      <use x="715.253906" xlink:href="#DejaVuSans-73"/>
      <use x="767.353516" xlink:href="#DejaVuSans-20"/>
      <use x="799.140625" xlink:href="#DejaVuSans-2f"/>
      <use x="832.832031" xlink:href="#DejaVuSans-20"/>
      <use x="864.619141" xlink:href="#DejaVuSans-64"/>
      <use x="928.095703" xlink:href="#DejaVuSans-69"/>
      <use x="955.878906" xlink:href="#DejaVuSans-6d"/>
      <use x="1053.291016" xlink:href="#DejaVuSans-65"/>
      <use x="1114.814453" xlink:href="#DejaVuSans-6e"/>
      <use x="1178.193359" xlink:href="#DejaVuSans-73"/>
      <use x="1230.292969" xlink:href="#DejaVuSans-69"/>
      <use x="1258.076172" xlink:href="#DejaVuSans-6f"/>
      <use x="1319.257812" xlink:href="#DejaVuSans-6e"/>
      <use x="1382.636719" xlink:href="#DejaVuSans-29"/>
     </g>
    </g>
   </g>
   <g id="matplotlib.axis_2">
    <g id="ytick_1">
     <g id="line2d_29">
      <path clip-path="url(#pf81dcb67d0)" d="M 56.12 294.88 
L 333.168 294.88 
" style="fill:none;stroke:#b0b0b0;stroke-linecap:square;stroke-width:0.8;"/>
     </g>
     <g id="line2d_30">
      <defs>
       <path d="M 0 0 
L -3.5 0 
" id="m815ece2e57" style="stroke:#000000;stroke-width:0.8;"/>
      </defs>
      <g>
       <use style="stroke:#000000;stroke-width:0.8;" x="56.12" xlink:href="#m815ece2e57" y="294.88"/>
      </g>
     </g>
     <g id="text_6">
      <!-- 0.0 -->
      <defs>
       <path d="M 10.6875 12.40625 
L 21 12.40625 
L 21 0 
L 10.6875 0 
z
" id="DejaVuSans-2e"/>
      </defs>
      <g transform="translate(23.675 300.95875)scale(0.16 -0.16)">
       <use xlink:href="#DejaVuSans-30"/>
       <use x="63.623047" xlink:href="#DejaVuSans-2e"/>
       <use x="95.410156" xlink:href="#DejaVuSans-30"/>
      </g>
     </g>
    </g>
    <g id="ytick_2">
     <g id="line2d_31">
      <path clip-path="url(#pf81dcb67d0)" d="M 56.12 241.406733 
L 333.168 241.406733 
" style="fill:none;stroke:#b0b0b0;stroke-linecap:square;stroke-width:0.8;"/>
     </g>
     <g id="line2d_32">
      <g>
       <use style="stroke:#000000;stroke-width:0.8;" x="56.12" xlink:href="#m815ece2e57" y="241.406733"/>
      </g>
     </g>
     <g id="text_7">
      <!-- 0.2 -->
      <g transform="translate(23.675 247.485483)scale(0.16 -0.16)">
       <use xlink:href="#DejaVuSans-30"/>
       <use x="63.623047" xlink:href="#DejaVuSans-2e"/>
       <use x="95.410156" xlink:href="#DejaVuSans-32"/>
      </g>
     </g>
    </g>
    <g id="ytick_3">
     <g id="line2d_33">
      <path clip-path="url(#pf81dcb67d0)" d="M 56.12 187.933465 
L 333.168 187.933465 
" style="fill:none;stroke:#b0b0b0;stroke-linecap:square;stroke-width:0.8;"/>
     </g>
     <g id="line2d_34">
      <g>
       <use style="stroke:#000000;stroke-width:0.8;" x="56.12" xlink:href="#m815ece2e57" y="187.933465"/>
      </g>
     </g>
     <g id="text_8">
      <!-- 0.4 -->
      <g transform="translate(23.675 194.012215)scale(0.16 -0.16)">
       <use xlink:href="#DejaVuSans-30"/>
       <use x="63.623047" xlink:href="#DejaVuSans-2e"/>
       <use x="95.410156" xlink:href="#DejaVuSans-34"/>
      </g>
     </g>
    </g>
    <g id="ytick_4">
     <g id="line2d_35">
      <path clip-path="url(#pf81dcb67d0)" d="M 56.12 134.460198 
L 333.168 134.460198 
" style="fill:none;stroke:#b0b0b0;stroke-linecap:square;stroke-width:0.8;"/>
     </g>
     <g id="line2d_36">
      <g>
       <use style="stroke:#000000;stroke-width:0.8;" x="56.12" xlink:href="#m815ece2e57" y="134.460198"/>
      </g>
     </g>
     <g id="text_9">
      <!-- 0.6 -->
      <g transform="translate(23.675 140.538948)scale(0.16 -0.16)">
       <use xlink:href="#DejaVuSans-30"/>
       <use x="63.623047" xlink:href="#DejaVuSans-2e"/>
       <use x="95.410156" xlink:href="#DejaVuSans-36"/>
      </g>
     </g>
    </g>
    <g id="ytick_5">
     <g id="line2d_37">
      <path clip-path="url(#pf81dcb67d0)" d="M 56.12 80.986931 
L 333.168 80.986931 
" style="fill:none;stroke:#b0b0b0;stroke-linecap:square;stroke-width:0.8;"/>
     </g>
     <g id="line2d_38">
      <g>
       <use style="stroke:#000000;stroke-width:0.8;" x="56.12" xlink:href="#m815ece2e57" y="80.986931"/>
      </g>
     </g>
     <g id="text_10">
      <!-- 0.8 -->
      <defs>
       <path d="M 31.78125 34.625 
Q 24.75 34.625 20.71875 30.859375 
Q 16.703125 27.09375 16.703125 20.515625 
Q 16.703125 13.921875 20.71875 10.15625 
Q 24.75 6.390625 31.78125 6.390625 
Q 38.8125 6.390625 42.859375 10.171875 
Q 46.921875 13.96875 46.921875 20.515625 
Q 46.921875 27.09375 42.890625 30.859375 
Q 38.875 34.625 31.78125 34.625 
z
M 21.921875 38.8125 
Q 15.578125 40.375 12.03125 44.71875 
Q 8.5 49.078125 8.5 55.328125 
Q 8.5 64.0625 14.71875 69.140625 
Q 20.953125 74.21875 31.78125 74.21875 
Q 42.671875 74.21875 48.875 69.140625 
Q 55.078125 64.0625 55.078125 55.328125 
Q 55.078125 49.078125 51.53125 44.71875 
Q 48 40.375 41.703125 38.8125 
Q 48.828125 37.15625 52.796875 32.3125 
Q 56.78125 27.484375 56.78125 20.515625 
Q 56.78125 9.90625 50.3125 4.234375 
Q 43.84375 -1.421875 31.78125 -1.421875 
Q 19.734375 -1.421875 13.25 4.234375 
Q 6.78125 9.90625 6.78125 20.515625 
Q 6.78125 27.484375 10.78125 32.3125 
Q 14.796875 37.15625 21.921875 38.8125 
z
M 18.3125 54.390625 
Q 18.3125 48.734375 21.84375 45.5625 
Q 25.390625 42.390625 31.78125 42.390625 
Q 38.140625 42.390625 41.71875 45.5625 
Q 45.3125 48.734375 45.3125 54.390625 
Q 45.3125 60.0625 41.71875 63.234375 
Q 38.140625 66.40625 31.78125 66.40625 
Q 25.390625 66.40625 21.84375 63.234375 
Q 18.3125 60.0625 18.3125 54.390625 
z
" id="DejaVuSans-38"/>
      </defs>
      <g transform="translate(23.675 87.065681)scale(0.16 -0.16)">
       <use xlink:href="#DejaVuSans-30"/>
       <use x="63.623047" xlink:href="#DejaVuSans-2e"/>
       <use x="95.410156" xlink:href="#DejaVuSans-38"/>
      </g>
     </g>
    </g>
    <g id="ytick_6">
     <g id="line2d_39">
      <path clip-path="url(#pf81dcb67d0)" d="M 56.12 27.513663 
L 333.168 27.513663 
" style="fill:none;stroke:#b0b0b0;stroke-linecap:square;stroke-width:0.8;"/>
     </g>
     <g id="line2d_40">
      <g>
       <use style="stroke:#000000;stroke-width:0.8;" x="56.12" xlink:href="#m815ece2e57" y="27.513663"/>
      </g>
     </g>
     <g id="text_11">
      <!-- 1.0 -->
      <g transform="translate(23.675 33.592413)scale(0.16 -0.16)">
       <use xlink:href="#DejaVuSans-31"/>
       <use x="63.623047" xlink:href="#DejaVuSans-2e"/>
       <use x="95.410156" xlink:href="#DejaVuSans-30"/>
      </g>
     </g>
    </g>
    <g id="text_12">
     <!-- Fraction of function,target pairs -->
     <defs>
      <path d="M 9.8125 72.90625 
L 51.703125 72.90625 
L 51.703125 64.59375 
L 19.671875 64.59375 
L 19.671875 43.109375 
L 48.578125 43.109375 
L 48.578125 34.8125 
L 19.671875 34.8125 
L 19.671875 0 
L 9.8125 0 
z
" id="DejaVuSans-46"/>
      <path d="M 41.109375 46.296875 
Q 39.59375 47.171875 37.8125 47.578125 
Q 36.03125 48 33.890625 48 
Q 26.265625 48 22.1875 43.046875 
Q 18.109375 38.09375 18.109375 28.8125 
L 18.109375 0 
L 9.078125 0 
L 9.078125 54.6875 
L 18.109375 54.6875 
L 18.109375 46.1875 
Q 20.953125 51.171875 25.484375 53.578125 
Q 30.03125 56 36.53125 56 
Q 37.453125 56 38.578125 55.875 
Q 39.703125 55.765625 41.0625 55.515625 
z
" id="DejaVuSans-72"/>
      <path d="M 48.78125 52.59375 
L 48.78125 44.1875 
Q 44.96875 46.296875 41.140625 47.34375 
Q 37.3125 48.390625 33.40625 48.390625 
Q 24.65625 48.390625 19.8125 42.84375 
Q 14.984375 37.3125 14.984375 27.296875 
Q 14.984375 17.28125 19.8125 11.734375 
Q 24.65625 6.203125 33.40625 6.203125 
Q 37.3125 6.203125 41.140625 7.25 
Q 44.96875 8.296875 48.78125 10.40625 
L 48.78125 2.09375 
Q 45.015625 0.34375 40.984375 -0.53125 
Q 36.96875 -1.421875 32.421875 -1.421875 
Q 20.0625 -1.421875 12.78125 6.34375 
Q 5.515625 14.109375 5.515625 27.296875 
Q 5.515625 40.671875 12.859375 48.328125 
Q 20.21875 56 33.015625 56 
Q 37.15625 56 41.109375 55.140625 
Q 45.0625 54.296875 48.78125 52.59375 
z
" id="DejaVuSans-63"/>
      <path d="M 18.3125 70.21875 
L 18.3125 54.6875 
L 36.8125 54.6875 
L 36.8125 47.703125 
L 18.3125 47.703125 
L 18.3125 18.015625 
Q 18.3125 11.328125 20.140625 9.421875 
Q 21.96875 7.515625 27.59375 7.515625 
L 36.8125 7.515625 
L 36.8125 0 
L 27.59375 0 
Q 17.1875 0 13.234375 3.875 
Q 9.28125 7.765625 9.28125 18.015625 
L 9.28125 47.703125 
L 2.6875 47.703125 
L 2.6875 54.6875 
L 9.28125 54.6875 
L 9.28125 70.21875 
z
" id="DejaVuSans-74"/>
      <path d="M 8.5 21.578125 
L 8.5 54.6875 
L 17.484375 54.6875 
L 17.484375 21.921875 
Q 17.484375 14.15625 20.5 10.265625 
Q 23.53125 6.390625 29.59375 6.390625 
Q 36.859375 6.390625 41.078125 11.03125 
Q 45.3125 15.671875 45.3125 23.6875 
L 45.3125 54.6875 
L 54.296875 54.6875 
L 54.296875 0 
L 45.3125 0 
L 45.3125 8.40625 
Q 42.046875 3.421875 37.71875 1 
Q 33.40625 -1.421875 27.6875 -1.421875 
Q 18.265625 -1.421875 13.375 4.4375 
Q 8.5 10.296875 8.5 21.578125 
z
M 31.109375 56 
z
" id="DejaVuSans-75"/>
      <path d="M 11.71875 12.40625 
L 22.015625 12.40625 
L 22.015625 4 
L 14.015625 -11.625 
L 7.71875 -11.625 
L 11.71875 4 
z
" id="DejaVuSans-2c"/>
      <path d="M 18.109375 8.203125 
L 18.109375 -20.796875 
L 9.078125 -20.796875 
L 9.078125 54.6875 
L 18.109375 54.6875 
L 18.109375 46.390625 
Q 20.953125 51.265625 25.265625 53.625 
Q 29.59375 56 35.59375 56 
Q 45.5625 56 51.78125 48.09375 
Q 58.015625 40.1875 58.015625 27.296875 
Q 58.015625 14.40625 51.78125 6.484375 
Q 45.5625 -1.421875 35.59375 -1.421875 
Q 29.59375 -1.421875 25.265625 0.953125 
Q 20.953125 3.328125 18.109375 8.203125 
z
M 48.6875 27.296875 
Q 48.6875 37.203125 44.609375 42.84375 
Q 40.53125 48.484375 33.40625 48.484375 
Q 26.265625 48.484375 22.1875 42.84375 
Q 18.109375 37.203125 18.109375 27.296875 
Q 18.109375 17.390625 22.1875 11.75 
Q 26.265625 6.109375 33.40625 6.109375 
Q 40.53125 6.109375 44.609375 11.75 
Q 48.6875 17.390625 48.6875 27.296875 
z
" id="DejaVuSans-70"/>
     </defs>
     <g transform="translate(16.139531 294.999375)rotate(-90)scale(0.17 -0.17)">
      <use xlink:href="#DejaVuSans-46"/>
      <use x="57.410156" xlink:href="#DejaVuSans-72"/>
      <use x="98.523438" xlink:href="#DejaVuSans-61"/>
      <use x="159.802734" xlink:href="#DejaVuSans-63"/>
      <use x="214.783203" xlink:href="#DejaVuSans-74"/>
      <use x="253.992188" xlink:href="#DejaVuSans-69"/>
      <use x="281.775391" xlink:href="#DejaVuSans-6f"/>
      <use x="342.957031" xlink:href="#DejaVuSans-6e"/>
      <use x="406.335938" xlink:href="#DejaVuSans-20"/>
      <use x="438.123047" xlink:href="#DejaVuSans-6f"/>
      <use x="499.304688" xlink:href="#DejaVuSans-66"/>
      <use x="534.509766" xlink:href="#DejaVuSans-20"/>
      <use x="566.296875" xlink:href="#DejaVuSans-66"/>
      <use x="601.501953" xlink:href="#DejaVuSans-75"/>
      <use x="664.880859" xlink:href="#DejaVuSans-6e"/>
      <use x="728.259766" xlink:href="#DejaVuSans-63"/>
      <use x="783.240234" xlink:href="#DejaVuSans-74"/>
      <use x="822.449219" xlink:href="#DejaVuSans-69"/>
      <use x="850.232422" xlink:href="#DejaVuSans-6f"/>
      <use x="911.414062" xlink:href="#DejaVuSans-6e"/>
      <use x="974.792969" xlink:href="#DejaVuSans-2c"/>
      <use x="1006.580078" xlink:href="#DejaVuSans-74"/>
      <use x="1045.789062" xlink:href="#DejaVuSans-61"/>
      <use x="1107.068359" xlink:href="#DejaVuSans-72"/>
      <use x="1148.166016" xlink:href="#DejaVuSans-67"/>
      <use x="1211.642578" xlink:href="#DejaVuSans-65"/>
      <use x="1273.166016" xlink:href="#DejaVuSans-74"/>
      <use x="1312.375" xlink:href="#DejaVuSans-20"/>
      <use x="1344.162109" xlink:href="#DejaVuSans-70"/>
      <use x="1407.638672" xlink:href="#DejaVuSans-61"/>
      <use x="1468.917969" xlink:href="#DejaVuSans-69"/>
      <use x="1496.701172" xlink:href="#DejaVuSans-72"/>
      <use x="1537.814453" xlink:href="#DejaVuSans-73"/>
     </g>
    </g>
   </g>
   <g id="line2d_41">
    <defs>
     <path d="M 0 1.5 
C 0.397805 1.5 0.77937 1.341951 1.06066 1.06066 
C 1.341951 0.77937 1.5 0.397805 1.5 0 
C 1.5 -0.397805 1.341951 -0.77937 1.06066 -1.06066 
C 0.77937 -1.341951 0.397805 -1.5 0 -1.5 
C -0.397805 -1.5 -0.77937 -1.341951 -1.06066 -1.06066 
C -1.341951 -0.77937 -1.5 -0.397805 -1.5 0 
C -1.5 0.397805 -1.341951 0.77937 -1.06066 1.06066 
C -0.77937 1.341951 -0.397805 1.5 0 1.5 
z
" id="m9daf48d383" style="stroke:#f5deb3;"/>
    </defs>
    <g>
     <use style="fill:#f5deb3;stroke:#f5deb3;" x="158.6346" xlink:href="#m9daf48d383" y="27.513663"/>
     <use style="fill:#f5deb3;stroke:#f5deb3;" x="158.6346" xlink:href="#m9daf48d383" y="27.513663"/>
    </g>
   </g>
   <g id="line2d_42">
    <defs>
     <path d="M 0 1.5 
C 0.397805 1.5 0.77937 1.341951 1.06066 1.06066 
C 1.341951 0.77937 1.5 0.397805 1.5 0 
C 1.5 -0.397805 1.341951 -0.77937 1.06066 -1.06066 
C 0.77937 -1.341951 0.397805 -1.5 0 -1.5 
C -0.397805 -1.5 -0.77937 -1.341951 -1.06066 -1.06066 
C -1.341951 -0.77937 -1.5 -0.397805 -1.5 0 
C -1.5 0.397805 -1.341951 0.77937 -1.06066 1.06066 
C -0.77937 1.341951 -0.397805 1.5 0 1.5 
z
" id="m6f100f01d3" style="stroke:#000080;"/>
    </defs>
    <g>
     <use style="fill:#000080;stroke:#000080;" x="189.91299" xlink:href="#m6f100f01d3" y="27.513663"/>
     <use style="fill:#000080;stroke:#000080;" x="189.91299" xlink:href="#m6f100f01d3" y="27.513663"/>
    </g>
   </g>
   <g id="line2d_43">
    <path d="M 28.455965 294.88 
L 28.455965 288.06478 
L 61.903497 288.06478 
L 61.903497 284.919293 
L 72.543934 284.919293 
L 72.543934 282.822302 
L 79.066841 282.822302 
L 79.066841 278.104073 
L 83.784035 278.104073 
L 83.784035 274.434339 
L 87.481505 274.434339 
L 87.481505 272.861596 
L 90.522701 272.861596 
L 90.522701 270.764605 
L 93.105847 270.764605 
L 93.105847 270.240357 
L 95.351029 270.240357 
L 95.351029 267.094871 
L 97.336537 267.094871 
L 97.336537 264.99788 
L 99.11626 264.99788 
L 99.11626 263.949385 
L 102.20309 263.949385 
L 102.20309 263.425137 
L 103.560793 263.425137 
L 103.560793 262.376641 
L 104.819059 262.376641 
L 104.819059 261.852394 
L 107.088985 261.852394 
L 107.088985 261.328146 
L 109.093814 261.328146 
L 109.093814 260.803898 
L 110.88904 260.803898 
L 110.88904 259.755403 
L 112.514373 259.755403 
L 112.514373 259.231155 
L 113.272818 259.231155 
L 113.272818 258.706907 
L 115.365909 258.706907 
L 115.365909 258.18266 
L 116.010559 258.18266 
L 116.010559 257.134164 
L 117.811013 257.134164 
L 117.811013 256.609917 
L 118.371562 256.609917 
L 118.371562 256.085669 
L 119.440629 256.085669 
L 119.440629 255.561421 
L 119.95122 255.561421 
L 119.95122 255.037173 
L 120.929036 255.037173 
L 120.929036 253.988678 
L 121.397846 253.988678 
L 121.397846 251.891687 
L 121.854208 251.891687 
L 121.854208 251.367439 
L 122.298767 251.367439 
L 122.298767 250.843192 
L 123.567356 250.843192 
L 123.567356 250.318944 
L 124.748719 250.318944 
L 124.748719 249.270448 
L 125.125128 249.270448 
L 125.125128 247.173458 
L 125.49347 247.173458 
L 125.49347 246.124962 
L 126.207287 246.124962 
L 126.207287 245.600714 
L 126.892639 245.600714 
L 126.892639 245.076467 
L 127.225332 245.076467 
L 127.225332 244.552219 
L 127.551708 244.552219 
L 127.551708 244.027971 
L 127.872003 244.027971 
L 127.872003 241.406733 
L 128.798561 241.406733 
L 128.798561 240.882485 
L 129.096637 240.882485 
L 129.096637 239.83399 
L 129.389632 239.83399 
L 129.389632 238.785494 
L 132.073821 238.785494 
L 132.073821 238.261246 
L 132.803637 238.261246 
L 132.803637 237.212751 
L 133.273515 237.212751 
L 133.273515 235.640008 
L 133.955092 235.640008 
L 133.955092 235.11576 
L 134.823755 235.11576 
L 134.823755 234.067265 
L 135.03423 234.067265 
L 135.03423 233.543017 
L 135.24216 233.543017 
L 135.24216 229.873283 
L 135.650622 229.873283 
L 135.650622 227.776292 
L 135.851269 227.776292 
L 135.851269 227.252044 
L 136.049602 227.252044 
L 136.049602 223.058063 
L 136.631228 223.058063 
L 136.631228 222.009567 
L 137.916386 222.009567 
L 137.916386 221.485319 
L 138.946296 221.485319 
L 138.946296 220.961072 
L 139.276327 220.961072 
L 139.276327 220.436824 
L 139.438997 220.436824 
L 139.438997 217.815585 
L 139.600142 217.815585 
L 139.600142 213.621604 
L 140.230025 213.621604 
L 140.230025 213.097356 
L 140.687737 213.097356 
L 140.687737 212.04886 
L 140.837639 212.04886 
L 140.837639 211.524613 
L 141.133577 211.524613 
L 141.133577 208.379126 
L 141.568144 208.379126 
L 141.568144 206.806383 
L 141.710592 206.806383 
L 141.710592 205.757888 
L 141.991995 205.757888 
L 141.991995 203.136649 
L 142.268865 203.136649 
L 142.268865 202.612401 
L 142.405645 202.612401 
L 142.405645 202.088154 
L 142.541345 202.088154 
L 142.541345 201.563906 
L 142.675983 201.563906 
L 142.675983 201.039658 
L 142.942135 201.039658 
L 142.942135 200.515411 
L 143.842493 200.515411 
L 143.842493 199.991163 
L 144.091308 199.991163 
L 144.091308 199.466915 
L 144.214377 199.466915 
L 144.214377 197.369924 
L 144.336572 197.369924 
L 144.336572 196.845677 
L 144.457904 196.845677 
L 144.457904 196.321429 
L 144.578385 196.321429 
L 144.578385 195.797181 
L 144.816844 195.797181 
L 144.816844 194.748686 
L 145.168442 194.748686 
L 145.168442 194.224438 
L 145.626324 194.224438 
L 145.626324 193.175943 
L 145.85077 193.175943 
L 145.85077 192.651695 
L 145.961904 192.651695 
L 145.961904 192.127447 
L 146.182039 192.127447 
L 146.291058 191.078952 
L 146.39939 191.078952 
L 146.39939 190.554704 
L 147.139179 190.554704 
L 147.242311 188.457713 
L 147.446737 188.457713 
L 147.548046 185.836474 
L 147.648761 185.836474 
L 147.748889 182.690988 
L 147.848437 182.690988 
L 147.947413 179.021254 
L 148.143669 179.021254 
L 148.143669 178.497006 
L 148.337711 178.497006 
L 148.433916 176.924263 
L 148.624726 176.924263 
L 148.719342 174.827272 
L 148.813441 174.827272 
L 148.907027 173.778777 
L 149.637921 173.778777 
L 149.727135 172.206034 
L 149.904187 172.206034 
L 149.904187 171.681786 
L 150.079434 171.681786 
L 150.166392 170.633291 
L 150.424656 170.633291 
L 150.509889 165.915061 
L 150.594702 165.915061 
L 150.679098 164.342318 
L 150.763082 164.342318 
L 150.846657 163.293823 
L 150.929828 163.293823 
L 150.929828 162.245327 
L 151.501022 162.245327 
L 151.501022 161.721079 
L 152.438106 161.721079 
L 152.513938 160.672584 
L 152.589437 160.672584 
L 152.664606 159.099841 
L 152.739448 159.099841 
L 152.813965 158.051345 
L 153.470471 158.051345 
L 153.470471 157.527098 
L 154.779183 157.527098 
L 154.779183 157.00285 
L 155.237283 157.00285 
L 155.237283 156.478602 
L 155.808878 156.478602 
L 155.808878 155.954354 
L 155.995263 155.954354 
L 155.995263 154.905859 
L 156.179648 154.905859 
L 156.240673 153.857364 
L 156.301482 153.857364 
L 156.362076 152.28462 
L 156.422458 152.28462 
L 156.482628 150.711877 
L 156.602341 150.711877 
L 156.661886 149.663382 
L 156.839293 149.663382 
L 156.898024 148.614886 
L 157.531159 148.614886 
L 157.587577 146.517896 
L 157.64381 146.517896 
L 157.64381 145.993648 
L 157.755728 145.993648 
L 157.811415 142.848162 
L 157.92225 142.848162 
L 157.977401 140.226923 
L 158.141799 140.226923 
L 158.250531 138.129932 
L 158.30464 138.129932 
L 158.41235 133.93595 
L 158.465953 133.93595 
L 158.572659 129.741969 
L 158.625765 129.741969 
L 158.731488 125.023739 
L 158.784106 125.023739 
L 158.888862 122.4025 
L 158.941001 122.4025 
L 158.992983 121.354005 
L 159.096477 121.354005 
L 159.199352 118.732766 
L 159.25056 118.732766 
L 159.352519 114.538785 
L 159.504333 114.538785 
L 159.554642 111.393298 
L 159.704689 111.393298 
L 159.754415 110.344803 
L 159.902736 110.344803 
L 160.00091 105.626573 
L 160.049788 105.626573 
L 160.147128 104.05383 
L 160.195592 104.05383 
L 160.292113 101.956839 
L 160.388094 101.956839 
L 160.435885 100.384096 
L 160.531069 100.384096 
L 160.531069 99.335601 
L 169.637412 99.335601 
L 169.637412 98.811353 
L 173.297887 98.811353 
L 173.387979 97.23861 
L 173.455239 97.23861 
L 173.544511 94.093124 
L 173.940597 94.093124 
L 174.04902 92.520381 
L 174.113747 92.520381 
L 174.221087 88.850646 
L 174.327761 88.850646 
L 174.327761 88.326399 
L 174.560138 88.326399 
L 174.622972 83.608169 
L 177.397101 83.608169 
L 177.503514 78.88994 
L 177.818857 78.88994 
L 177.905435 77.317197 
L 177.957174 77.317197 
L 178.060186 74.17171 
L 178.094386 74.17171 
L 178.196581 72.074719 
L 178.230512 72.074719 
L 178.230512 71.026224 
L 178.415942 71.026224 
L 178.499572 68.404985 
L 178.53291 68.404985 
L 178.566184 66.307995 
L 178.649087 66.307995 
L 178.731593 63.686756 
L 178.764484 63.686756 
L 178.830079 62.638261 
L 178.879112 62.638261 
L 178.976759 58.444279 
L 179.041551 58.444279 
L 179.041551 57.920031 
L 179.441057 57.920031 
L 179.441057 57.395783 
L 186.566816 57.395783 
L 186.660477 51.104811 
L 186.722636 51.104811 
L 186.794872 45.862334 
L 186.897542 45.862334 
L 186.989424 36.425875 
L 187.009775 36.425875 
L 187.090942 33.280388 
L 187.12128 33.280388 
L 187.201923 28.562159 
L 188.55517 28.562159 
L 188.55517 28.037911 
L 189.91299 28.037911 
L 189.91299 27.513663 
L 333.168 27.513663 
L 333.168 27.513663 
" style="fill:none;stroke:#000080;stroke-linecap:square;stroke-width:1.5;"/>
   </g>
   <g id="line2d_44">
    <defs>
     <path d="M 0 6 
C 1.591219 6 3.117479 5.367802 4.242641 4.242641 
C 5.367802 3.117479 6 1.591219 6 0 
C 6 -1.591219 5.367802 -3.117479 4.242641 -4.242641 
C 3.117479 -5.367802 1.591219 -6 0 -6 
C -1.591219 -6 -3.117479 -5.367802 -4.242641 -4.242641 
C -5.367802 -3.117479 -6 -1.591219 -6 0 
C -6 1.591219 -5.367802 3.117479 -4.242641 4.242641 
C -3.117479 5.367802 -1.591219 6 0 6 
z
" id="mb6eaa6f3c1" style="stroke:#000080;stroke-width:1.5;"/>
    </defs>
    <g>
     <use style="fill:none;stroke:#000080;stroke-width:1.5;" x="127.872003" xlink:href="#mb6eaa6f3c1" y="244.027971"/>
     <use style="fill:none;stroke:#000080;stroke-width:1.5;" x="158.888862" xlink:href="#mb6eaa6f3c1" y="123.975244"/>
     <use style="fill:none;stroke:#000080;stroke-width:1.5;" x="189.91299" xlink:href="#mb6eaa6f3c1" y="28.037911"/>
     <use style="fill:none;stroke:#000080;stroke-width:1.5;" x="189.91299" xlink:href="#mb6eaa6f3c1" y="27.513663"/>
     <use style="fill:none;stroke:#000080;stroke-width:1.5;" x="189.91299" xlink:href="#mb6eaa6f3c1" y="27.513663"/>
     <use style="fill:none;stroke:#000080;stroke-width:1.5;" x="333.168" xlink:href="#mb6eaa6f3c1" y="27.513663"/>
    </g>
   </g>
   <g id="line2d_45">
    <path style="fill:none;stroke:#000080;stroke-linecap:square;stroke-width:1.5;"/>
    <g/>
   </g>
   <g id="line2d_46">
    <defs>
     <path d="M 0 1.5 
C 0.397805 1.5 0.77937 1.341951 1.06066 1.06066 
C 1.341951 0.77937 1.5 0.397805 1.5 0 
C 1.5 -0.397805 1.341951 -0.77937 1.06066 -1.06066 
C 0.77937 -1.341951 0.397805 -1.5 0 -1.5 
C -0.397805 -1.5 -0.77937 -1.341951 -1.06066 -1.06066 
C -1.341951 -0.77937 -1.5 -0.397805 -1.5 0 
C -1.5 0.397805 -1.341951 0.77937 -1.06066 1.06066 
C -0.77937 1.341951 -0.397805 1.5 0 1.5 
z
" id="mee47d35d31" style="stroke:#ff00ff;"/>
    </defs>
    <g>
     <use style="fill:#ff00ff;stroke:#ff00ff;" x="214.158696" xlink:href="#mee47d35d31" y="27.513663"/>
     <use style="fill:#ff00ff;stroke:#ff00ff;" x="214.158696" xlink:href="#mee47d35d31" y="27.513663"/>
    </g>
   </g>
   <g id="line2d_47">
    <path d="M 28.455965 294.88 
L 28.455965 283.870798 
L 96.699848 283.870798 
L 96.699848 283.34655 
L 98.249422 283.34655 
L 98.249422 282.298055 
L 98.543252 282.298055 
L 98.543252 281.773807 
L 99.941473 281.773807 
L 99.941473 280.725312 
L 100.207968 280.725312 
L 100.207968 279.152568 
L 100.470395 279.152568 
L 100.470395 278.104073 
L 100.728876 278.104073 
L 100.728876 277.579825 
L 101.23446 277.579825 
L 101.23446 277.055578 
L 101.725597 277.055578 
L 101.725597 274.958587 
L 101.966002 274.958587 
L 101.966002 274.434339 
L 102.20309 274.434339 
L 102.20309 273.910091 
L 102.436953 273.910091 
L 102.436953 273.385844 
L 102.895343 273.385844 
L 102.895343 272.861596 
L 113.396034 272.861596 
L 113.396034 272.337348 
L 113.880253 272.337348 
L 113.880253 271.8131 
L 113.999206 271.8131 
L 113.999206 271.288853 
L 114.922307 271.288853 
L 114.922307 270.764605 
L 116.73331 270.764605 
L 116.73331 270.240357 
L 121.627542 270.240357 
L 121.627542 269.716109 
L 122.151854 269.716109 
L 122.151854 269.191862 
L 123.293428 269.191862 
L 123.293428 268.667614 
L 123.430938 268.667614 
L 123.430938 268.143366 
L 125.000572 268.143366 
L 125.000572 267.619119 
L 125.125128 267.619119 
L 125.187069 266.570623 
L 125.432625 266.570623 
L 125.432625 266.046375 
L 125.913457 266.046375 
L 125.913457 265.522128 
L 126.265455 265.522128 
L 126.265455 264.99788 
L 126.438787 264.99788 
L 126.438787 264.473632 
L 126.723846 264.473632 
L 126.723846 263.949385 
L 127.872003 263.949385 
L 127.872003 263.425137 
L 128.029939 263.425137 
L 128.082264 261.852394 
L 128.238289 261.852394 
L 128.341524 259.755403 
L 129.437982 259.755403 
L 129.437982 259.231155 
L 131.181257 259.231155 
L 131.181257 258.706907 
L 131.907344 258.706907 
L 131.907344 258.18266 
L 135.24216 258.18266 
L 135.24216 257.658412 
L 138.410429 257.658412 
L 138.410429 257.134164 
L 141.206772 257.134164 
L 141.206772 256.609917 
L 141.615758 256.609917 
L 141.615758 256.085669 
L 141.781376 256.085669 
L 141.781376 255.561421 
L 141.96872 255.561421 
L 141.96872 255.037173 
L 142.496231 255.037173 
L 142.496231 254.512926 
L 142.631221 254.512926 
L 142.675983 253.46443 
L 142.809574 253.46443 
L 142.920112 250.843192 
L 142.964129 250.843192 
L 142.986095 249.794696 
L 143.117307 249.794696 
L 143.182539 246.64921 
L 143.247524 246.64921 
L 143.247524 246.124962 
L 143.376763 246.124962 
L 143.462385 244.027971 
L 143.590024 244.027971 
L 143.65349 241.93098 
L 143.716722 241.93098 
L 143.779723 239.309742 
L 143.863366 239.309742 
L 143.905035 236.688503 
L 143.988072 236.688503 
L 144.07071 233.018769 
L 144.437741 233.018769 
L 144.538318 231.446026 
L 144.77733 231.446026 
L 144.77733 229.349035 
L 144.973998 229.349035 
L 144.973998 228.824787 
L 145.110339 228.824787 
L 145.129729 227.776292 
L 145.37982 227.776292 
L 145.37982 227.252044 
L 145.588629 227.252044 
L 145.588629 226.727797 
L 145.813566 226.727797 
L 145.813566 226.203549 
L 145.980357 226.203549 
L 146.035596 225.155053 
L 146.218456 225.155053 
L 146.218456 224.630806 
L 146.363355 224.630806 
L 146.381382 223.58231 
L 146.507044 223.58231 
L 146.507044 223.058063 
L 146.738006 223.058063 
L 146.738006 222.533815 
L 146.896104 222.533815 
L 147.0007 221.485319 
L 147.018071 221.485319 
L 147.018071 220.961072 
L 147.139179 220.961072 
L 147.190823 218.339833 
L 147.429795 218.339833 
L 147.429795 217.815585 
L 148.369839 217.815585 
L 148.369839 217.291338 
L 149.801129 217.291338 
L 149.801129 216.76709 
L 150.790985 216.76709 
L 150.790985 216.242842 
L 151.012598 216.242842 
L 151.122343 214.670099 
L 151.393676 214.670099 
L 151.393676 214.145851 
L 151.753312 214.145851 
L 151.858442 213.097356 
L 152.07973 213.097356 
L 152.07973 211.524613 
L 152.298205 211.524613 
L 152.298205 211.000365 
L 153.060049 211.000365 
L 153.060049 209.95187 
L 153.193908 209.95187 
L 153.193908 209.427622 
L 153.482395 209.427622 
L 153.482395 208.903374 
L 153.64847 208.903374 
L 153.64847 208.379126 
L 154.14875 208.379126 
L 154.14875 207.854879 
L 154.331245 207.854879 
L 154.331245 207.330631 
L 154.466857 207.330631 
L 154.466857 206.806383 
L 154.856386 206.806383 
L 154.856386 206.282136 
L 155.323172 206.282136 
L 155.323172 205.757888 
L 155.693974 205.757888 
L 155.798464 204.185145 
L 156.04668 204.185145 
L 156.04668 203.660897 
L 156.240673 203.660897 
L 156.341902 202.088154 
L 156.362076 202.088154 
L 156.392294 201.039658 
L 156.522625 201.039658 
L 156.522625 200.515411 
L 156.819671 200.515411 
L 156.907793 198.41842 
L 156.995466 198.41842 
L 157.082693 196.321429 
L 157.23668 196.321429 
L 157.341751 194.748686 
L 157.370295 194.748686 
L 157.474555 190.554704 
L 157.484002 190.554704 
L 157.587577 189.506209 
L 157.596962 189.506209 
L 157.625086 188.457713 
L 157.792872 188.457713 
L 157.792872 187.933465 
L 157.92225 187.933465 
L 157.949847 185.836474 
L 158.105402 185.836474 
L 158.214363 184.787979 
L 158.322638 184.787979 
L 158.41235 183.739484 
L 158.492691 183.739484 
L 158.546045 182.16674 
L 158.625765 182.16674 
L 158.625765 181.642493 
L 159.02755 181.642493 
L 159.096477 179.545502 
L 159.31011 179.545502 
L 159.31011 179.021254 
L 159.754415 179.021254 
L 159.754415 178.497006 
L 159.984587 178.497006 
L 159.984587 177.972759 
L 161.030003 177.972759 
L 161.030003 177.448511 
L 161.19822 177.448511 
L 161.236223 176.400016 
L 161.311977 176.400016 
L 161.387399 174.827272 
L 161.574519 174.827272 
L 161.6488 173.778777 
L 162.188725 173.778777 
L 162.274704 172.730281 
L 162.338907 172.730281 
L 162.338907 172.206034 
L 162.878615 172.206034 
L 162.878615 171.681786 
L 163.488686 171.681786 
L 163.575044 170.633291 
L 163.621366 170.633291 
L 163.674153 169.584795 
L 163.759587 169.584795 
L 163.864157 166.963557 
L 163.916204 166.963557 
L 163.987513 164.342318 
L 164.282549 164.342318 
L 164.339686 162.245327 
L 164.459688 162.245327 
L 164.459688 161.721079 
L 164.622555 161.721079 
L 164.703413 159.624089 
L 164.734412 159.624089 
L 164.83939 157.527098 
L 164.925364 157.527098 
L 164.980407 154.381611 
L 165.053524 154.381611 
L 165.150533 152.808868 
L 165.234968 152.808868 
L 165.313003 151.236125 
L 165.37279 151.236125 
L 165.456143 150.18763 
L 165.533182 150.18763 
L 165.627529 149.139134 
L 165.686233 149.139134 
L 165.703805 148.090639 
L 165.808863 148.090639 
L 165.808863 147.566391 
L 166.011323 147.566391 
L 166.057267 146.517896 
L 167.03273 146.517896 
L 167.03273 145.993648 
L 167.146151 145.993648 
L 167.146151 145.4694 
L 167.264176 145.4694 
L 167.264176 144.945152 
L 167.529438 144.945152 
L 167.634407 143.896657 
L 167.707506 143.896657 
L 167.707506 143.372409 
L 167.904364 143.372409 
L 167.904364 142.848162 
L 168.109176 142.848162 
L 168.180287 141.799666 
L 168.225847 141.799666 
L 168.225847 141.275418 
L 168.531498 141.275418 
L 168.531498 140.751171 
L 168.895136 140.751171 
L 168.895136 140.226923 
L 169.045213 140.226923 
L 169.07411 139.178427 
L 169.17965 139.178427 
L 169.236946 137.605684 
L 169.313044 137.605684 
L 169.374626 136.557189 
L 169.435989 136.557189 
L 169.529968 134.460198 
L 169.553382 134.460198 
L 169.590779 133.411703 
L 169.702485 133.411703 
L 169.799635 131.838959 
L 169.987742 131.838959 
L 170.07422 129.741969 
L 170.196366 129.741969 
L 170.263852 128.693473 
L 170.398034 128.693473 
L 170.438085 127.12073 
L 170.623767 127.12073 
L 170.623767 126.596482 
L 170.872597 126.596482 
L 170.933166 125.547987 
L 171.220114 125.547987 
L 171.220114 125.023739 
L 171.431176 125.023739 
L 171.431176 124.499491 
L 171.681075 124.499491 
L 171.681075 123.975244 
L 171.816987 123.975244 
L 171.816987 123.450996 
L 172.004664 123.450996 
L 172.037096 122.4025 
L 172.234414 122.4025 
L 172.234414 121.878253 
L 172.385892 121.878253 
L 172.449275 120.829757 
L 172.638033 120.829757 
L 172.72775 119.781262 
L 172.801513 119.781262 
L 172.801513 119.257014 
L 173.017095 119.257014 
L 173.062942 118.208519 
L 173.15427 118.208519 
L 173.15427 117.684271 
L 173.361751 117.684271 
L 173.451509 114.538785 
L 173.496213 114.538785 
L 173.596373 111.917546 
L 173.614858 111.917546 
L 173.718004 109.820555 
L 173.743695 109.820555 
L 173.838781 108.77206 
L 173.88249 108.77206 
L 173.955093 107.199317 
L 174.009344 107.199317 
L 174.041813 105.626573 
L 174.206814 105.626573 
L 174.206814 105.102326 
L 174.341934 105.102326 
L 174.341934 104.578078 
L 174.650825 104.578078 
L 174.650825 104.05383 
L 174.851419 104.05383 
L 174.916625 103.005335 
L 174.964514 103.005335 
L 174.964514 102.481087 
L 175.087047 102.481087 
L 175.158124 101.432592 
L 175.51578 101.432592 
L 175.51578 100.908344 
L 175.637745 100.908344 
L 175.637745 100.384096 
L 175.888821 100.384096 
L 175.888821 99.859849 
L 176.101148 99.859849 
L 176.145852 98.811353 
L 176.51185 98.811353 
L 176.51185 98.287105 
L 176.76595 98.287105 
L 176.851862 95.665867 
L 177.287041 95.665867 
L 177.295991 94.617371 
L 177.94569 94.617371 
L 178.00017 93.568876 
L 178.06589 93.568876 
L 178.085842 92.520381 
L 178.238984 92.520381 
L 178.238984 91.996133 
L 178.407557 91.996133 
L 178.415942 90.947637 
L 178.671127 90.947637 
L 178.671127 90.42339 
L 178.976759 90.42339 
L 179.055019 88.850646 
L 179.122198 88.850646 
L 179.122198 88.326399 
L 179.348666 88.326399 
L 179.406798 86.753656 
L 179.462105 86.753656 
L 179.546042 85.70516 
L 180.240912 85.70516 
L 180.253472 84.656665 
L 180.539852 84.656665 
L 180.539852 84.132417 
L 180.719196 84.132417 
L 180.799659 83.083922 
L 180.930519 83.083922 
L 181.005195 82.035426 
L 181.274686 82.035426 
L 181.319586 80.986931 
L 181.439532 80.986931 
L 181.439532 80.462683 
L 181.632966 80.462683 
L 181.632966 79.938435 
L 181.780648 79.938435 
L 181.805903 78.88994 
L 181.922514 78.88994 
L 181.993011 77.317197 
L 182.225186 77.317197 
L 182.252033 75.744454 
L 182.387859 75.744454 
L 182.465311 74.695958 
L 182.562186 74.695958 
L 182.586319 73.647463 
L 182.697771 73.647463 
L 182.697771 73.123215 
L 183.343329 73.123215 
L 183.355912 72.074719 
L 183.520737 72.074719 
L 183.568429 70.501976 
L 183.659298 70.501976 
L 183.659298 69.977729 
L 183.969563 69.977729 
L 183.969563 69.453481 
L 184.082474 69.453481 
L 184.082474 68.929233 
L 184.21859 68.929233 
L 184.276314 67.35649 
L 184.337805 67.35649 
L 184.375384 66.307995 
L 184.597201 66.307995 
L 184.597201 65.783747 
L 184.725446 65.783747 
L 184.804634 64.735251 
L 184.854663 64.735251 
L 184.917952 63.162508 
L 185.041934 63.162508 
L 185.041934 62.638261 
L 185.2441 62.638261 
L 185.2441 62.114013 
L 185.391851 62.114013 
L 185.391851 61.589765 
L 186.154945 61.589765 
L 186.245556 60.54127 
L 186.416589 60.54127 
L 186.421851 59.492774 
L 186.741584 59.492774 
L 186.844572 58.444279 
L 187.048715 58.444279 
L 187.133064 57.395783 
L 187.218676 57.395783 
L 187.30553 55.298792 
L 187.385315 55.298792 
L 187.385315 54.774545 
L 187.573333 54.774545 
L 187.573333 54.250297 
L 187.922427 54.250297 
L 187.972181 53.201802 
L 188.199849 53.201802 
L 188.199849 52.677554 
L 188.321201 52.677554 
L 188.404234 51.629058 
L 188.475977 51.629058 
L 188.475977 51.104811 
L 188.623201 51.104811 
L 188.623201 50.580563 
L 188.90633 50.580563 
L 188.956348 49.532068 
L 189.220678 49.532068 
L 189.314317 47.435077 
L 189.510339 47.435077 
L 189.510339 46.910829 
L 189.938739 46.910829 
L 189.938739 46.386581 
L 190.302226 46.386581 
L 190.302226 45.862334 
L 190.78384 45.862334 
L 190.800162 44.813838 
L 191.227147 44.813838 
L 191.227147 44.28959 
L 191.430176 44.28959 
L 191.430176 43.765343 
L 191.559439 43.765343 
L 191.559439 43.241095 
L 191.904562 43.241095 
L 191.994845 42.192599 
L 192.55997 42.192599 
L 192.649326 41.144104 
L 193.526347 41.144104 
L 193.57269 40.095609 
L 194.110306 40.095609 
L 194.110306 39.571361 
L 194.967729 39.571361 
L 195.047555 38.522865 
L 195.150249 38.522865 
L 195.150249 37.998618 
L 195.363202 37.998618 
L 195.371541 36.950122 
L 195.504408 36.950122 
L 195.504408 36.425875 
L 195.807787 36.425875 
L 195.807787 35.901627 
L 196.392066 35.901627 
L 196.392066 35.377379 
L 197.334014 35.377379 
L 197.334014 34.853131 
L 198.25435 34.853131 
L 198.296594 33.804636 
L 198.52189 33.804636 
L 198.52189 33.280388 
L 199.10276 33.280388 
L 199.10276 32.756141 
L 199.850335 32.756141 
L 199.850335 32.231893 
L 200.925753 32.231893 
L 200.98975 31.183397 
L 201.062493 31.183397 
L 201.062493 30.65915 
L 201.396724 30.65915 
L 201.396724 30.134902 
L 202.877462 30.134902 
L 202.877462 29.610654 
L 203.145377 29.610654 
L 203.145377 29.086407 
L 204.089506 29.086407 
L 204.089506 28.562159 
L 204.705223 28.562159 
L 204.705223 28.037911 
L 214.158696 28.037911 
L 214.158696 27.513663 
L 333.168 27.513663 
L 333.168 27.513663 
" style="fill:none;stroke:#ff00ff;stroke-linecap:square;stroke-width:1.5;"/>
   </g>
   <g id="line2d_48">
    <defs>
     <path d="M -0 8.485281 
L 5.091169 0 
L 0 -8.485281 
L -5.091169 -0 
z
" id="m4a0215210f" style="stroke:#ff00ff;stroke-linejoin:miter;stroke-width:1.5;"/>
    </defs>
    <g>
     <use style="fill:none;stroke:#ff00ff;stroke-linejoin:miter;stroke-width:1.5;" x="122.151854" xlink:href="#m4a0215210f" y="269.716109"/>
     <use style="fill:none;stroke:#ff00ff;stroke-linejoin:miter;stroke-width:1.5;" x="165.703805" xlink:href="#m4a0215210f" y="148.090639"/>
     <use style="fill:none;stroke:#ff00ff;stroke-linejoin:miter;stroke-width:1.5;" x="190.302226" xlink:href="#m4a0215210f" y="45.862334"/>
     <use style="fill:none;stroke:#ff00ff;stroke-linejoin:miter;stroke-width:1.5;" x="214.158696" xlink:href="#m4a0215210f" y="28.037911"/>
     <use style="fill:none;stroke:#ff00ff;stroke-linejoin:miter;stroke-width:1.5;" x="214.158696" xlink:href="#m4a0215210f" y="27.513663"/>
     <use style="fill:none;stroke:#ff00ff;stroke-linejoin:miter;stroke-width:1.5;" x="333.168" xlink:href="#m4a0215210f" y="27.513663"/>
    </g>
   </g>
   <g id="line2d_49">
    <path style="fill:none;stroke:#ff00ff;stroke-linecap:square;stroke-width:1.5;"/>
    <g/>
   </g>
   <g id="line2d_50">
    <path clip-path="url(#pf81dcb67d0)" d="M 146.843566 222.533815 
" style="fill:none;stroke:#ff00ff;stroke-linecap:square;stroke-width:1.5;"/>
    <defs>
     <path d="M -12 12 
L 12 -12 
M -12 -12 
L 12 12 
" id="m29637a3d8d" style="stroke:#ff00ff;"/>
    </defs>
    <g clip-path="url(#pf81dcb67d0)">
     <use style="fill:#ff00ff;stroke:#ff00ff;" x="146.843566" xlink:href="#m29637a3d8d" y="222.533815"/>
    </g>
   </g>
   <g id="line2d_51">
    <path d="M 333.168 27.513663 
L 363.64328 289.532673 
" style="fill:none;stroke:#ff00ff;stroke-linecap:square;stroke-width:1.5;"/>
    <g>
     <use style="fill:none;stroke:#ff00ff;stroke-linejoin:miter;stroke-width:1.5;" x="333.168" xlink:href="#m4a0215210f" y="27.513663"/>
     <use style="fill:none;stroke:#ff00ff;stroke-linejoin:miter;stroke-width:1.5;" x="363.64328" xlink:href="#m4a0215210f" y="289.532673"/>
    </g>
   </g>
   <g id="line2d_52">
    <path d="M 333.168 27.513663 
L 363.64328 161.196832 
" style="fill:none;stroke:#000080;stroke-linecap:square;stroke-width:1.5;"/>
    <g>
     <use style="fill:none;stroke:#000080;stroke-width:1.5;" x="333.168" xlink:href="#mb6eaa6f3c1" y="27.513663"/>
     <use style="fill:none;stroke:#000080;stroke-width:1.5;" x="363.64328" xlink:href="#mb6eaa6f3c1" y="161.196832"/>
    </g>
   </g>
   <g id="line2d_53">
    <path d="M 333.168 294.88 
L 333.168 27.513663 
" style="fill:none;stroke:#000000;stroke-linecap:square;stroke-width:1.5;"/>
   </g>
   <g id="patch_3">
    <path d="M 56.12 294.88 
L 56.12 24.84 
" style="fill:none;stroke:#000000;stroke-linecap:square;stroke-linejoin:miter;stroke-width:0.8;"/>
   </g>
   <g id="patch_4">
    <path d="M 333.168 294.88 
L 333.168 24.84 
" style="fill:none;stroke:#000000;stroke-linecap:square;stroke-linejoin:miter;stroke-width:0.8;"/>
   </g>
   <g id="patch_5">
    <path d="M 56.12 294.88 
L 333.168 294.88 
" style="fill:none;stroke:#000000;stroke-linecap:square;stroke-linejoin:miter;stroke-width:0.8;"/>
   </g>
   <g id="patch_6">
    <path d="M 56.12 24.84 
L 333.168 24.84 
" style="fill:none;stroke:#000000;stroke-linecap:square;stroke-linejoin:miter;stroke-width:0.8;"/>
   </g>
   <g id="text_13">
    <!-- scipy-opt -->
    <defs>
     <path d="M 32.171875 -5.078125 
Q 28.375 -14.84375 24.75 -17.8125 
Q 21.140625 -20.796875 15.09375 -20.796875 
L 7.90625 -20.796875 
L 7.90625 -13.28125 
L 13.1875 -13.28125 
Q 16.890625 -13.28125 18.9375 -11.515625 
Q 21 -9.765625 23.484375 -3.21875 
L 25.09375 0.875 
L 2.984375 54.6875 
L 12.5 54.6875 
L 29.59375 11.921875 
L 46.6875 54.6875 
L 56.203125 54.6875 
z
" id="DejaVuSans-79"/>
    </defs>
    <g transform="translate(369.18424 294.223611)scale(0.17 -0.17)">
     <use xlink:href="#DejaVuSans-73"/>
     <use x="52.099609" xlink:href="#DejaVuSans-63"/>
     <use x="107.080078" xlink:href="#DejaVuSans-69"/>
     <use x="134.863281" xlink:href="#DejaVuSans-70"/>
     <use x="198.339844" xlink:href="#DejaVuSans-79"/>
     <use x="257.503906" xlink:href="#DejaVuSans-2d"/>
     <use x="293.603516" xlink:href="#DejaVuSans-6f"/>
     <use x="354.785156" xlink:href="#DejaVuSans-70"/>
     <use x="418.261719" xlink:href="#DejaVuSans-74"/>
    </g>
   </g>
   <g id="text_14">
    <!-- BFGS ros  -->
    <defs>
     <path d="M 19.671875 34.8125 
L 19.671875 8.109375 
L 35.5 8.109375 
Q 43.453125 8.109375 47.28125 11.40625 
Q 51.125 14.703125 51.125 21.484375 
Q 51.125 28.328125 47.28125 31.5625 
Q 43.453125 34.8125 35.5 34.8125 
z
M 19.671875 64.796875 
L 19.671875 42.828125 
L 34.28125 42.828125 
Q 41.5 42.828125 45.03125 45.53125 
Q 48.578125 48.25 48.578125 53.8125 
Q 48.578125 59.328125 45.03125 62.0625 
Q 41.5 64.796875 34.28125 64.796875 
z
M 9.8125 72.90625 
L 35.015625 72.90625 
Q 46.296875 72.90625 52.390625 68.21875 
Q 58.5 63.53125 58.5 54.890625 
Q 58.5 48.1875 55.375 44.234375 
Q 52.25 40.28125 46.1875 39.3125 
Q 53.46875 37.75 57.5 32.78125 
Q 61.53125 27.828125 61.53125 20.40625 
Q 61.53125 10.640625 54.890625 5.3125 
Q 48.25 0 35.984375 0 
L 9.8125 0 
z
" id="DejaVuSans-42"/>
     <path d="M 59.515625 10.40625 
L 59.515625 29.984375 
L 43.40625 29.984375 
L 43.40625 38.09375 
L 69.28125 38.09375 
L 69.28125 6.78125 
Q 63.578125 2.734375 56.6875 0.65625 
Q 49.8125 -1.421875 42 -1.421875 
Q 24.90625 -1.421875 15.25 8.5625 
Q 5.609375 18.5625 5.609375 36.375 
Q 5.609375 54.25 15.25 64.234375 
Q 24.90625 74.21875 42 74.21875 
Q 49.125 74.21875 55.546875 72.453125 
Q 61.96875 70.703125 67.390625 67.28125 
L 67.390625 56.78125 
Q 61.921875 61.421875 55.765625 63.765625 
Q 49.609375 66.109375 42.828125 66.109375 
Q 29.4375 66.109375 22.71875 58.640625 
Q 16.015625 51.171875 16.015625 36.375 
Q 16.015625 21.625 22.71875 14.15625 
Q 29.4375 6.6875 42.828125 6.6875 
Q 48.046875 6.6875 52.140625 7.59375 
Q 56.25 8.5 59.515625 10.40625 
z
" id="DejaVuSans-47"/>
     <path d="M 53.515625 70.515625 
L 53.515625 60.890625 
Q 47.90625 63.578125 42.921875 64.890625 
Q 37.9375 66.21875 33.296875 66.21875 
Q 25.25 66.21875 20.875 63.09375 
Q 16.5 59.96875 16.5 54.203125 
Q 16.5 49.359375 19.40625 46.890625 
Q 22.3125 44.4375 30.421875 42.921875 
L 36.375 41.703125 
Q 47.40625 39.59375 52.65625 34.296875 
Q 57.90625 29 57.90625 20.125 
Q 57.90625 9.515625 50.796875 4.046875 
Q 43.703125 -1.421875 29.984375 -1.421875 
Q 24.8125 -1.421875 18.96875 -0.25 
Q 13.140625 0.921875 6.890625 3.21875 
L 6.890625 13.375 
Q 12.890625 10.015625 18.65625 8.296875 
Q 24.421875 6.59375 29.984375 6.59375 
Q 38.421875 6.59375 43.015625 9.90625 
Q 47.609375 13.234375 47.609375 19.390625 
Q 47.609375 24.75 44.3125 27.78125 
Q 41.015625 30.8125 33.5 32.328125 
L 27.484375 33.5 
Q 16.453125 35.6875 11.515625 40.375 
Q 6.59375 45.0625 6.59375 53.421875 
Q 6.59375 63.09375 13.40625 68.65625 
Q 20.21875 74.21875 32.171875 74.21875 
Q 37.3125 74.21875 42.625 73.28125 
Q 47.953125 72.359375 53.515625 70.515625 
z
" id="DejaVuSans-53"/>
    </defs>
    <g transform="translate(369.18424 165.887769)scale(0.17 -0.17)">
     <use xlink:href="#DejaVuSans-42"/>
     <use x="68.603516" xlink:href="#DejaVuSans-46"/>
     <use x="126.123047" xlink:href="#DejaVuSans-47"/>
     <use x="203.613281" xlink:href="#DejaVuSans-53"/>
     <use x="267.089844" xlink:href="#DejaVuSans-20"/>
     <use x="298.876953" xlink:href="#DejaVuSans-72"/>
     <use x="339.958984" xlink:href="#DejaVuSans-6f"/>
     <use x="401.140625" xlink:href="#DejaVuSans-73"/>
     <use x="453.240234" xlink:href="#DejaVuSans-20"/>
    </g>
   </g>
   <g id="text_15">
    <!-- best 2009 -->
    <defs>
     <path d="M 48.6875 27.296875 
Q 48.6875 37.203125 44.609375 42.84375 
Q 40.53125 48.484375 33.40625 48.484375 
Q 26.265625 48.484375 22.1875 42.84375 
Q 18.109375 37.203125 18.109375 27.296875 
Q 18.109375 17.390625 22.1875 11.75 
Q 26.265625 6.109375 33.40625 6.109375 
Q 40.53125 6.109375 44.609375 11.75 
Q 48.6875 17.390625 48.6875 27.296875 
z
M 18.109375 46.390625 
Q 20.953125 51.265625 25.265625 53.625 
Q 29.59375 56 35.59375 56 
Q 45.5625 56 51.78125 48.09375 
Q 58.015625 40.1875 58.015625 27.296875 
Q 58.015625 14.40625 51.78125 6.484375 
Q 45.5625 -1.421875 35.59375 -1.421875 
Q 29.59375 -1.421875 25.265625 0.953125 
Q 20.953125 3.328125 18.109375 8.203125 
L 18.109375 0 
L 9.078125 0 
L 9.078125 75.984375 
L 18.109375 75.984375 
z
" id="DejaVuSans-62"/>
     <path d="M 10.984375 1.515625 
L 10.984375 10.5 
Q 14.703125 8.734375 18.5 7.8125 
Q 22.3125 6.890625 25.984375 6.890625 
Q 35.75 6.890625 40.890625 13.453125 
Q 46.046875 20.015625 46.78125 33.40625 
Q 43.953125 29.203125 39.59375 26.953125 
Q 35.25 24.703125 29.984375 24.703125 
Q 19.046875 24.703125 12.671875 31.3125 
Q 6.296875 37.9375 6.296875 49.421875 
Q 6.296875 60.640625 12.9375 67.421875 
Q 19.578125 74.21875 30.609375 74.21875 
Q 43.265625 74.21875 49.921875 64.515625 
Q 56.59375 54.828125 56.59375 36.375 
Q 56.59375 19.140625 48.40625 8.859375 
Q 40.234375 -1.421875 26.421875 -1.421875 
Q 22.703125 -1.421875 18.890625 -0.6875 
Q 15.09375 0.046875 10.984375 1.515625 
z
M 30.609375 32.421875 
Q 37.25 32.421875 41.125 36.953125 
Q 45.015625 41.5 45.015625 49.421875 
Q 45.015625 57.28125 41.125 61.84375 
Q 37.25 66.40625 30.609375 66.40625 
Q 23.96875 66.40625 20.09375 61.84375 
Q 16.21875 57.28125 16.21875 49.421875 
Q 16.21875 41.5 20.09375 36.953125 
Q 23.96875 32.421875 30.609375 32.421875 
z
" id="DejaVuSans-39"/>
    </defs>
    <g transform="translate(369.18424 37.551928)scale(0.17 -0.17)">
     <use xlink:href="#DejaVuSans-62"/>
     <use x="63.476562" xlink:href="#DejaVuSans-65"/>
     <use x="125" xlink:href="#DejaVuSans-73"/>
     <use x="177.099609" xlink:href="#DejaVuSans-74"/>
     <use x="216.308594" xlink:href="#DejaVuSans-20"/>
     <use x="248.095703" xlink:href="#DejaVuSans-32"/>
     <use x="311.71875" xlink:href="#DejaVuSans-30"/>
     <use x="375.341797" xlink:href="#DejaVuSans-30"/>
     <use x="438.964844" xlink:href="#DejaVuSans-39"/>
    </g>
   </g>
   <g id="text_16">
    <!-- bbob f21, 5-D -->
    <defs>
     <path d="M 10.796875 72.90625 
L 49.515625 72.90625 
L 49.515625 64.59375 
L 19.828125 64.59375 
L 19.828125 46.734375 
Q 21.96875 47.46875 24.109375 47.828125 
Q 26.265625 48.1875 28.421875 48.1875 
Q 40.625 48.1875 47.75 41.5 
Q 54.890625 34.8125 54.890625 23.390625 
Q 54.890625 11.625 47.5625 5.09375 
Q 40.234375 -1.421875 26.90625 -1.421875 
Q 22.3125 -1.421875 17.546875 -0.640625 
Q 12.796875 0.140625 7.71875 1.703125 
L 7.71875 11.625 
Q 12.109375 9.234375 16.796875 8.0625 
Q 21.484375 6.890625 26.703125 6.890625 
Q 35.15625 6.890625 40.078125 11.328125 
Q 45.015625 15.765625 45.015625 23.390625 
Q 45.015625 31 40.078125 35.4375 
Q 35.15625 39.890625 26.703125 39.890625 
Q 22.75 39.890625 18.8125 39.015625 
Q 14.890625 38.140625 10.796875 36.28125 
z
" id="DejaVuSans-35"/>
     <path d="M 19.671875 64.796875 
L 19.671875 8.109375 
L 31.59375 8.109375 
Q 46.6875 8.109375 53.6875 14.9375 
Q 60.6875 21.78125 60.6875 36.53125 
Q 60.6875 51.171875 53.6875 57.984375 
Q 46.6875 64.796875 31.59375 64.796875 
z
M 9.8125 72.90625 
L 30.078125 72.90625 
Q 51.265625 72.90625 61.171875 64.09375 
Q 71.09375 55.28125 71.09375 36.53125 
Q 71.09375 17.671875 61.125 8.828125 
Q 51.171875 0 30.078125 0 
L 9.8125 0 
z
" id="DejaVuSans-44"/>
    </defs>
    <g transform="translate(58.89048 35.290806)scale(0.102 -0.102)">
     <use xlink:href="#DejaVuSans-62"/>
     <use x="63.476562" xlink:href="#DejaVuSans-62"/>
     <use x="126.953125" xlink:href="#DejaVuSans-6f"/>
     <use x="188.134766" xlink:href="#DejaVuSans-62"/>
     <use x="251.611328" xlink:href="#DejaVuSans-20"/>
     <use x="283.398438" xlink:href="#DejaVuSans-66"/>
     <use x="318.603516" xlink:href="#DejaVuSans-32"/>
     <use x="382.226562" xlink:href="#DejaVuSans-31"/>
     <use x="445.849609" xlink:href="#DejaVuSans-2c"/>
     <use x="477.636719" xlink:href="#DejaVuSans-20"/>
     <use x="509.423828" xlink:href="#DejaVuSans-35"/>
     <use x="573.046875" xlink:href="#DejaVuSans-2d"/>
     <use x="609.130859" xlink:href="#DejaVuSans-44"/>
    </g>
    <!-- 51 targets: 100..1e-08 -->
    <defs>
     <path d="M 11.71875 12.40625 
L 22.015625 12.40625 
L 22.015625 0 
L 11.71875 0 
z
M 11.71875 51.703125 
L 22.015625 51.703125 
L 22.015625 39.3125 
L 11.71875 39.3125 
z
" id="DejaVuSans-3a"/>
    </defs>
    <g transform="translate(58.89048 46.712575)scale(0.102 -0.102)">
     <use xlink:href="#DejaVuSans-35"/>
     <use x="63.623047" xlink:href="#DejaVuSans-31"/>
     <use x="127.246094" xlink:href="#DejaVuSans-20"/>
     <use x="159.033203" xlink:href="#DejaVuSans-74"/>
     <use x="198.242188" xlink:href="#DejaVuSans-61"/>
     <use x="259.521484" xlink:href="#DejaVuSans-72"/>
     <use x="300.619141" xlink:href="#DejaVuSans-67"/>
     <use x="364.095703" xlink:href="#DejaVuSans-65"/>
     <use x="425.619141" xlink:href="#DejaVuSans-74"/>
     <use x="464.828125" xlink:href="#DejaVuSans-73"/>
     <use x="516.927734" xlink:href="#DejaVuSans-3a"/>
     <use x="550.619141" xlink:href="#DejaVuSans-20"/>
     <use x="582.40625" xlink:href="#DejaVuSans-31"/>
     <use x="646.029297" xlink:href="#DejaVuSans-30"/>
     <use x="709.652344" xlink:href="#DejaVuSans-30"/>
     <use x="773.275391" xlink:href="#DejaVuSans-2e"/>
     <use x="805.0625" xlink:href="#DejaVuSans-2e"/>
     <use x="836.849609" xlink:href="#DejaVuSans-31"/>
     <use x="900.472656" xlink:href="#DejaVuSans-65"/>
     <use x="961.996094" xlink:href="#DejaVuSans-2d"/>
     <use x="998.080078" xlink:href="#DejaVuSans-30"/>
     <use x="1061.703125" xlink:href="#DejaVuSans-38"/>
    </g>
    <!-- 15 instances -->
    <g transform="translate(58.89048 58.134344)scale(0.102 -0.102)">
     <use xlink:href="#DejaVuSans-31"/>
     <use x="63.623047" xlink:href="#DejaVuSans-35"/>
     <use x="127.246094" xlink:href="#DejaVuSans-20"/>
     <use x="159.033203" xlink:href="#DejaVuSans-69"/>
     <use x="186.816406" xlink:href="#DejaVuSans-6e"/>
     <use x="250.195312" xlink:href="#DejaVuSans-73"/>
     <use x="302.294922" xlink:href="#DejaVuSans-74"/>
     <use x="341.503906" xlink:href="#DejaVuSans-61"/>
     <use x="402.783203" xlink:href="#DejaVuSans-6e"/>
     <use x="466.162109" xlink:href="#DejaVuSans-63"/>
     <use x="521.142578" xlink:href="#DejaVuSans-65"/>
     <use x="582.666016" xlink:href="#DejaVuSans-73"/>
    </g>
   </g>
   <g id="text_17">
    <!-- v0.0.0 -->
    <g style="fill:#808080;" transform="translate(178.96275 290.099912)scale(0.1 -0.1)">
     <use xlink:href="#DejaVuSans-76"/>
     <use x="59.179688" xlink:href="#DejaVuSans-30"/>
     <use x="122.802734" xlink:href="#DejaVuSans-2e"/>
     <use x="154.589844" xlink:href="#DejaVuSans-30"/>
     <use x="218.212891" xlink:href="#DejaVuSans-2e"/>
     <use x="250" xlink:href="#DejaVuSans-30"/>
    </g>
   </g>
   <g id="text_18">
    <!-- 21 Gallagher 101 peaks -->
    <defs>
     <path d="M 54.890625 33.015625 
L 54.890625 0 
L 45.90625 0 
L 45.90625 32.71875 
Q 45.90625 40.484375 42.875 44.328125 
Q 39.84375 48.1875 33.796875 48.1875 
Q 26.515625 48.1875 22.3125 43.546875 
Q 18.109375 38.921875 18.109375 30.90625 
L 18.109375 0 
L 9.078125 0 
L 9.078125 75.984375 
L 18.109375 75.984375 
L 18.109375 46.1875 
Q 21.34375 51.125 25.703125 53.5625 
Q 30.078125 56 35.796875 56 
Q 45.21875 56 50.046875 50.171875 
Q 54.890625 44.34375 54.890625 33.015625 
z
" id="DejaVuSans-68"/>
     <path d="M 9.078125 75.984375 
L 18.109375 75.984375 
L 18.109375 31.109375 
L 44.921875 54.6875 
L 56.390625 54.6875 
L 27.390625 29.109375 
L 57.625 0 
L 45.90625 0 
L 18.109375 26.703125 
L 18.109375 0 
L 9.078125 0 
z
" id="DejaVuSans-6b"/>
    </defs>
    <g transform="translate(75.1565 18.84)scale(0.2 -0.2)">
     <use xlink:href="#DejaVuSans-32"/>
     <use x="63.623047" xlink:href="#DejaVuSans-31"/>
     <use x="127.246094" xlink:href="#DejaVuSans-20"/>
     <use x="159.033203" xlink:href="#DejaVuSans-47"/>
     <use x="236.523438" xlink:href="#DejaVuSans-61"/>
     <use x="297.802734" xlink:href="#DejaVuSans-6c"/>
     <use x="325.585938" xlink:href="#DejaVuSans-6c"/>
     <use x="353.369141" xlink:href="#DejaVuSans-61"/>
     <use x="414.648438" xlink:href="#DejaVuSans-67"/>
     <use x="478.125" xlink:href="#DejaVuSans-68"/>
     <use x="541.503906" xlink:href="#DejaVuSans-65"/>
     <use x="603.027344" xlink:href="#DejaVuSans-72"/>
     <use x="644.140625" xlink:href="#DejaVuSans-20"/>
     <use x="675.927734" xlink:href="#DejaVuSans-31"/>
     <use x="739.550781" xlink:href="#DejaVuSans-30"/>
     <use x="803.173828" xlink:href="#DejaVuSans-31"/>
     <use x="866.796875" xlink:href="#DejaVuSans-20"/>
     <use x="898.583984" xlink:href="#DejaVuSans-70"/>
     <use x="962.060547" xlink:href="#DejaVuSans-65"/>
     <use x="1023.583984" xlink:href="#DejaVuSans-61"/>
     <use x="1084.863281" xlink:href="#DejaVuSans-6b"/>
     <use x="1142.773438" xlink:href="#DejaVuSans-73"/>
    </g>
   </g>
  </g>
 </g>
 <defs>
  <clipPath id="pf81dcb67d0">
   <rect height="270.04" width="277.048" x="56.12" y="24.84"/>
  </clipPath>
 </defs>
</svg>
