<?xml version="1.0" encoding="utf-8" standalone="no"?>
<!DOCTYPE svg PUBLIC "-//W3C//DTD SVG 1.1//EN"
  "http://www.w3.org/Graphics/SVG/1.1/DTD/svg11.dtd">
<!-- Created with matplotlib (http://matplotlib.org/) -->
<svg height="345pt" version="1.1" viewBox="0 0 460 345" width="460pt" xmlns="http://www.w3.org/2000/svg" xmlns:xlink="http://www.w3.org/1999/xlink">
 <defs>
  <style type="text/css">
*{stroke-linecap:butt;stroke-linejoin:round;}
  </style>
 </defs>
 <g id="figure_1">
  <g id="patch_1">
   <path d="M 0 345.6 
L 460.8 345.6 
L 460.8 0 
L 0 0 
z
" style="fill:#ffffff;"/>
  </g>
  <g id="axes_1">
   <g id="patch_2">
    <path d="M 56.12 294.88 
L 333.168 294.88 
L 333.168 24.84 
L 56.12 24.84 
z
" style="fill:#ffffff;"/>
   </g>
   <g id="line2d_1">
    <path d="M 28.455965 294.88 
L 28.455965 279.152568 
L 79.948502 279.152568 
L 79.948502 273.910091 
L 84.458185 273.910091 
L 84.458185 268.667614 
L 89.567532 268.667614 
L 89.567532 263.425137 
L 94.996612 263.425137 
L 94.996612 258.18266 
L 99.395756 258.18266 
L 99.395756 252.940182 
L 101.725597 252.940182 
L 101.725597 247.697705 
L 108.775496 247.697705 
L 108.775496 242.455228 
L 111.72091 242.455228 
L 111.72091 237.212751 
L 116.115688 237.212751 
L 116.115688 231.970274 
L 117.620026 231.970274 
L 117.620026 226.727797 
L 118.914406 226.727797 
L 118.914406 221.485319 
L 120.365424 221.485319 
L 120.365424 216.242842 
L 120.689748 216.242842 
L 120.689748 211.000365 
L 121.397846 211.000365 
L 121.397846 205.757888 
L 122.298767 205.757888 
L 122.298767 200.515411 
L 122.588877 200.515411 
L 122.588877 195.272933 
L 123.769975 195.272933 
L 123.769975 190.030456 
L 124.233665 190.030456 
L 124.233665 184.787979 
L 124.748719 184.787979 
L 124.748719 179.545502 
L 125.125128 179.545502 
L 125.125128 169.060547 
L 126.090357 169.060547 
L 126.090357 163.81807 
L 126.496178 163.81807 
L 126.496178 158.575593 
L 126.723846 158.575593 
L 126.723846 153.333116 
L 127.659138 153.333116 
L 127.659138 137.605684 
L 127.819033 137.605684 
L 127.819033 121.878253 
L 127.872003 121.878253 
L 127.872003 116.635776 
L 127.977455 116.635776 
L 127.977455 111.393298 
L 128.39291 111.393298 
L 128.39291 106.150821 
L 128.546153 106.150821 
L 128.546153 100.908344 
L 128.647561 100.908344 
L 128.647561 95.665867 
L 128.8486 95.665867 
L 128.8486 90.42339 
L 128.898495 90.42339 
L 128.898495 85.180912 
L 129.389632 85.180912 
L 129.389632 79.938435 
L 129.437982 79.938435 
L 129.437982 69.453481 
L 129.630036 69.453481 
L 129.630036 64.211004 
L 129.914152 64.211004 
L 129.914152 58.968526 
L 130.054468 58.968526 
L 130.054468 53.726049 
L 130.239792 53.726049 
L 130.239792 27.513663 
L 333.168 27.513663 
" style="fill:none;stroke:#f5deb3;stroke-linecap:square;stroke-width:4;"/>
   </g>
   <g id="line2d_2">
    <defs>
     <path d="M -0 7.778175 
L 7.778175 0 
L 0 -7.778175 
L -7.778175 -0 
z
" id="mca4d27152f" style="stroke:#f5deb3;stroke-linejoin:miter;stroke-width:1.5;"/>
    </defs>
    <g>
     <use style="fill:#f5deb3;stroke:#f5deb3;stroke-linejoin:miter;stroke-width:1.5;" x="101.725597" xlink:href="#mca4d27152f" y="252.940182"/>
     <use style="fill:#f5deb3;stroke:#f5deb3;stroke-linejoin:miter;stroke-width:1.5;" x="127.659138" xlink:href="#mca4d27152f" y="137.605684"/>
     <use style="fill:#f5deb3;stroke:#f5deb3;stroke-linejoin:miter;stroke-width:1.5;" x="130.239792" xlink:href="#mca4d27152f" y="53.726049"/>
     <use style="fill:#f5deb3;stroke:#f5deb3;stroke-linejoin:miter;stroke-width:1.5;" x="130.239792" xlink:href="#mca4d27152f" y="27.513663"/>
     <use style="fill:#f5deb3;stroke:#f5deb3;stroke-linejoin:miter;stroke-width:1.5;" x="130.239792" xlink:href="#mca4d27152f" y="27.513663"/>
     <use style="fill:#f5deb3;stroke:#f5deb3;stroke-linejoin:miter;stroke-width:1.5;" x="333.168" xlink:href="#mca4d27152f" y="27.513663"/>
    </g>
   </g>
   <g id="line2d_3">
    <path style="fill:none;stroke:#f5deb3;stroke-linecap:square;stroke-width:4;"/>
    <g/>
   </g>
   <g id="line2d_4">
    <path d="M 333.168 27.513663 
L 363.64328 32.86099 
" style="fill:none;stroke:#f5deb3;stroke-linecap:square;stroke-width:4;"/>
    <g>
     <use style="fill:#f5deb3;stroke:#f5deb3;stroke-linejoin:miter;stroke-width:1.5;" x="333.168" xlink:href="#mca4d27152f" y="27.513663"/>
     <use style="fill:#f5deb3;stroke:#f5deb3;stroke-linejoin:miter;stroke-width:1.5;" x="363.64328" xlink:href="#mca4d27152f" y="32.86099"/>
    </g>
   </g>
   <g id="matplotlib.axis_1">
    <g id="xtick_1">
     <g id="line2d_5">
      <path clip-path="url(#p5738dd5137)" d="M 56.12 294.88 
L 56.12 24.84 
" style="fill:none;stroke:#b0b0b0;stroke-linecap:square;stroke-width:0.8;"/>
     </g>
     <g id="line2d_6">
      <defs>
       <path d="M 0 0 
L 0 3.5 
" id="me042fa8535" style="stroke:#000000;stroke-width:0.8;"/>
      </defs>
      <g>
       <use style="stroke:#000000;stroke-width:0.8;" x="56.12" xlink:href="#me042fa8535" y="294.88"/>
      </g>
     </g>
     <g id="text_1">
      <!-- 0 -->
      <defs>
       <path d="M 31.78125 66.40625 
Q 24.171875 66.40625 20.328125 58.90625 
Q 16.5 51.421875 16.5 36.375 
Q 16.5 21.390625 20.328125 13.890625 
Q 24.171875 6.390625 31.78125 6.390625 
Q 39.453125 6.390625 43.28125 13.890625 
Q 47.125 21.390625 47.125 36.375 
Q 47.125 51.421875 43.28125 58.90625 
Q 39.453125 66.40625 31.78125 66.40625 
z
M 31.78125 74.21875 
Q 44.046875 74.21875 50.515625 64.515625 
Q 56.984375 54.828125 56.984375 36.375 
Q 56.984375 17.96875 50.515625 8.265625 
Q 44.046875 -1.421875 31.78125 -1.421875 
Q 19.53125 -1.421875 13.0625 8.265625 
Q 6.59375 17.96875 6.59375 36.375 
Q 6.59375 54.828125 13.0625 64.515625 
Q 19.53125 74.21875 31.78125 74.21875 
z
" id="DejaVuSans-30"/>
      </defs>
      <g transform="translate(49.7575 317.076875)scale(0.2 -0.2)">
       <use xlink:href="#DejaVuSans-30"/>
      </g>
     </g>
    </g>
    <g id="xtick_2">
     <g id="line2d_7">
      <path clip-path="url(#p5738dd5137)" d="M 135.276571 294.88 
L 135.276571 24.84 
" style="fill:none;stroke:#b0b0b0;stroke-linecap:square;stroke-width:0.8;"/>
     </g>
     <g id="line2d_8">
      <g>
       <use style="stroke:#000000;stroke-width:0.8;" x="135.276571" xlink:href="#me042fa8535" y="294.88"/>
      </g>
     </g>
     <g id="text_2">
      <!-- 2 -->
      <defs>
       <path d="M 19.1875 8.296875 
L 53.609375 8.296875 
L 53.609375 0 
L 7.328125 0 
L 7.328125 8.296875 
Q 12.9375 14.109375 22.625 23.890625 
Q 32.328125 33.6875 34.8125 36.53125 
Q 39.546875 41.84375 41.421875 45.53125 
Q 43.3125 49.21875 43.3125 52.78125 
Q 43.3125 58.59375 39.234375 62.25 
Q 35.15625 65.921875 28.609375 65.921875 
Q 23.96875 65.921875 18.8125 64.3125 
Q 13.671875 62.703125 7.8125 59.421875 
L 7.8125 69.390625 
Q 13.765625 71.78125 18.9375 73 
Q 24.125 74.21875 28.421875 74.21875 
Q 39.75 74.21875 46.484375 68.546875 
Q 53.21875 62.890625 53.21875 53.421875 
Q 53.21875 48.921875 51.53125 44.890625 
Q 49.859375 40.875 45.40625 35.40625 
Q 44.1875 33.984375 37.640625 27.21875 
Q 31.109375 20.453125 19.1875 8.296875 
z
" id="DejaVuSans-32"/>
      </defs>
      <g transform="translate(128.914071 317.076875)scale(0.2 -0.2)">
       <use xlink:href="#DejaVuSans-32"/>
      </g>
     </g>
    </g>
    <g id="xtick_3">
     <g id="line2d_9">
      <path clip-path="url(#p5738dd5137)" d="M 214.433143 294.88 
L 214.433143 24.84 
" style="fill:none;stroke:#b0b0b0;stroke-linecap:square;stroke-width:0.8;"/>
     </g>
     <g id="line2d_10">
      <g>
       <use style="stroke:#000000;stroke-width:0.8;" x="214.433143" xlink:href="#me042fa8535" y="294.88"/>
      </g>
     </g>
     <g id="text_3">
      <!-- 4 -->
      <defs>
       <path d="M 37.796875 64.3125 
L 12.890625 25.390625 
L 37.796875 25.390625 
z
M 35.203125 72.90625 
L 47.609375 72.90625 
L 47.609375 25.390625 
L 58.015625 25.390625 
L 58.015625 17.1875 
L 47.609375 17.1875 
L 47.609375 0 
L 37.796875 0 
L 37.796875 17.1875 
L 4.890625 17.1875 
L 4.890625 26.703125 
z
" id="DejaVuSans-34"/>
      </defs>
      <g transform="translate(208.070643 317.076875)scale(0.2 -0.2)">
       <use xlink:href="#DejaVuSans-34"/>
      </g>
     </g>
    </g>
    <g id="xtick_4">
     <g id="line2d_11">
      <path clip-path="url(#p5738dd5137)" d="M 293.589714 294.88 
L 293.589714 24.84 
" style="fill:none;stroke:#b0b0b0;stroke-linecap:square;stroke-width:0.8;"/>
     </g>
     <g id="line2d_12">
      <g>
       <use style="stroke:#000000;stroke-width:0.8;" x="293.589714" xlink:href="#me042fa8535" y="294.88"/>
      </g>
     </g>
     <g id="text_4">
      <!-- 6 -->
      <defs>
       <path d="M 33.015625 40.375 
Q 26.375 40.375 22.484375 35.828125 
Q 18.609375 31.296875 18.609375 23.390625 
Q 18.609375 15.53125 22.484375 10.953125 
Q 26.375 6.390625 33.015625 6.390625 
Q 39.65625 6.390625 43.53125 10.953125 
Q 47.40625 15.53125 47.40625 23.390625 
Q 47.40625 31.296875 43.53125 35.828125 
Q 39.65625 40.375 33.015625 40.375 
z
M 52.59375 71.296875 
L 52.59375 62.3125 
Q 48.875 64.0625 45.09375 64.984375 
Q 41.3125 65.921875 37.59375 65.921875 
Q 27.828125 65.921875 22.671875 59.328125 
Q 17.53125 52.734375 16.796875 39.40625 
Q 19.671875 43.65625 24.015625 45.921875 
Q 28.375 48.1875 33.59375 48.1875 
Q 44.578125 48.1875 50.953125 41.515625 
Q 57.328125 34.859375 57.328125 23.390625 
Q 57.328125 12.15625 50.6875 5.359375 
Q 44.046875 -1.421875 33.015625 -1.421875 
Q 20.359375 -1.421875 13.671875 8.265625 
Q 6.984375 17.96875 6.984375 36.375 
Q 6.984375 53.65625 15.1875 63.9375 
Q 23.390625 74.21875 37.203125 74.21875 
Q 40.921875 74.21875 44.703125 73.484375 
Q 48.484375 72.75 52.59375 71.296875 
z
" id="DejaVuSans-36"/>
      </defs>
      <g transform="translate(287.227214 317.076875)scale(0.2 -0.2)">
       <use xlink:href="#DejaVuSans-36"/>
      </g>
     </g>
    </g>
    <g id="xtick_5">
     <g id="line2d_13">
      <path clip-path="url(#p5738dd5137)" d="M 56.12 294.88 
L 56.12 24.84 
" style="fill:none;stroke:#b0b0b0;stroke-linecap:square;stroke-width:0.8;"/>
     </g>
     <g id="line2d_14">
      <defs>
       <path d="M 0 0 
L 0 2 
" id="m792438988b" style="stroke:#000000;stroke-width:0.6;"/>
      </defs>
      <g>
       <use style="stroke:#000000;stroke-width:0.6;" x="56.12" xlink:href="#m792438988b" y="294.88"/>
      </g>
     </g>
    </g>
    <g id="xtick_6">
     <g id="line2d_15">
      <path clip-path="url(#p5738dd5137)" d="M 95.698286 294.88 
L 95.698286 24.84 
" style="fill:none;stroke:#b0b0b0;stroke-linecap:square;stroke-width:0.8;"/>
     </g>
     <g id="line2d_16">
      <g>
       <use style="stroke:#000000;stroke-width:0.6;" x="95.698286" xlink:href="#m792438988b" y="294.88"/>
      </g>
     </g>
    </g>
    <g id="xtick_7">
     <g id="line2d_17">
      <path clip-path="url(#p5738dd5137)" d="M 135.276571 294.88 
L 135.276571 24.84 
" style="fill:none;stroke:#b0b0b0;stroke-linecap:square;stroke-width:0.8;"/>
     </g>
     <g id="line2d_18">
      <g>
       <use style="stroke:#000000;stroke-width:0.6;" x="135.276571" xlink:href="#m792438988b" y="294.88"/>
      </g>
     </g>
    </g>
    <g id="xtick_8">
     <g id="line2d_19">
      <path clip-path="url(#p5738dd5137)" d="M 174.854857 294.88 
L 174.854857 24.84 
" style="fill:none;stroke:#b0b0b0;stroke-linecap:square;stroke-width:0.8;"/>
     </g>
     <g id="line2d_20">
      <g>
       <use style="stroke:#000000;stroke-width:0.6;" x="174.854857" xlink:href="#m792438988b" y="294.88"/>
      </g>
     </g>
    </g>
    <g id="xtick_9">
     <g id="line2d_21">
      <path clip-path="url(#p5738dd5137)" d="M 214.433143 294.88 
L 214.433143 24.84 
" style="fill:none;stroke:#b0b0b0;stroke-linecap:square;stroke-width:0.8;"/>
     </g>
     <g id="line2d_22">
      <g>
       <use style="stroke:#000000;stroke-width:0.6;" x="214.433143" xlink:href="#m792438988b" y="294.88"/>
      </g>
     </g>
    </g>
    <g id="xtick_10">
     <g id="line2d_23">
      <path clip-path="url(#p5738dd5137)" d="M 254.011429 294.88 
L 254.011429 24.84 
" style="fill:none;stroke:#b0b0b0;stroke-linecap:square;stroke-width:0.8;"/>
     </g>
     <g id="line2d_24">
      <g>
       <use style="stroke:#000000;stroke-width:0.6;" x="254.011429" xlink:href="#m792438988b" y="294.88"/>
      </g>
     </g>
    </g>
    <g id="xtick_11">
     <g id="line2d_25">
      <path clip-path="url(#p5738dd5137)" d="M 293.589714 294.88 
L 293.589714 24.84 
" style="fill:none;stroke:#b0b0b0;stroke-linecap:square;stroke-width:0.8;"/>
     </g>
     <g id="line2d_26">
      <g>
       <use style="stroke:#000000;stroke-width:0.6;" x="293.589714" xlink:href="#m792438988b" y="294.88"/>
      </g>
     </g>
    </g>
    <g id="xtick_12">
     <g id="line2d_27">
      <path clip-path="url(#p5738dd5137)" d="M 333.168 294.88 
L 333.168 24.84 
" style="fill:none;stroke:#b0b0b0;stroke-linecap:square;stroke-width:0.8;"/>
     </g>
     <g id="line2d_28">
      <g>
       <use style="stroke:#000000;stroke-width:0.6;" x="333.168" xlink:href="#m792438988b" y="294.88"/>
      </g>
     </g>
    </g>
    <g id="text_5">
     <!-- log10(# f-evals / dimension) -->
     <defs>
      <path d="M 9.421875 75.984375 
L 18.40625 75.984375 
L 18.40625 0 
L 9.421875 0 
z
" id="DejaVuSans-6c"/>
      <path d="M 30.609375 48.390625 
Q 23.390625 48.390625 19.1875 42.75 
Q 14.984375 37.109375 14.984375 27.296875 
Q 14.984375 17.484375 19.15625 11.84375 
Q 23.34375 6.203125 30.609375 6.203125 
Q 37.796875 6.203125 41.984375 11.859375 
Q 46.1875 17.53125 46.1875 27.296875 
Q 46.1875 37.015625 41.984375 42.703125 
Q 37.796875 48.390625 30.609375 48.390625 
z
M 30.609375 56 
Q 42.328125 56 49.015625 48.375 
Q 55.71875 40.765625 55.71875 27.296875 
Q 55.71875 13.875 49.015625 6.21875 
Q 42.328125 -1.421875 30.609375 -1.421875 
Q 18.84375 -1.421875 12.171875 6.21875 
Q 5.515625 13.875 5.515625 27.296875 
Q 5.515625 40.765625 12.171875 48.375 
Q 18.84375 56 30.609375 56 
z
" id="DejaVuSans-6f"/>
      <path d="M 45.40625 27.984375 
Q 45.40625 37.75 41.375 43.109375 
Q 37.359375 48.484375 30.078125 48.484375 
Q 22.859375 48.484375 18.828125 43.109375 
Q 14.796875 37.75 14.796875 27.984375 
Q 14.796875 18.265625 18.828125 12.890625 
Q 22.859375 7.515625 30.078125 7.515625 
Q 37.359375 7.515625 41.375 12.890625 
Q 45.40625 18.265625 45.40625 27.984375 
z
M 54.390625 6.78125 
Q 54.390625 -7.171875 48.1875 -13.984375 
Q 42 -20.796875 29.203125 -20.796875 
Q 24.46875 -20.796875 20.265625 -20.09375 
Q 16.0625 -19.390625 12.109375 -17.921875 
L 12.109375 -9.1875 
Q 16.0625 -11.328125 19.921875 -12.34375 
Q 23.78125 -13.375 27.78125 -13.375 
Q 36.625 -13.375 41.015625 -8.765625 
Q 45.40625 -4.15625 45.40625 5.171875 
L 45.40625 9.625 
Q 42.625 4.78125 38.28125 2.390625 
Q 33.9375 0 27.875 0 
Q 17.828125 0 11.671875 7.65625 
Q 5.515625 15.328125 5.515625 27.984375 
Q 5.515625 40.671875 11.671875 48.328125 
Q 17.828125 56 27.875 56 
Q 33.9375 56 38.28125 53.609375 
Q 42.625 51.21875 45.40625 46.390625 
L 45.40625 54.6875 
L 54.390625 54.6875 
z
" id="DejaVuSans-67"/>
      <path d="M 12.40625 8.296875 
L 28.515625 8.296875 
L 28.515625 63.921875 
L 10.984375 60.40625 
L 10.984375 69.390625 
L 28.421875 72.90625 
L 38.28125 72.90625 
L 38.28125 8.296875 
L 54.390625 8.296875 
L 54.390625 0 
L 12.40625 0 
z
" id="DejaVuSans-31"/>
      <path d="M 31 75.875 
Q 24.46875 64.65625 21.28125 53.65625 
Q 18.109375 42.671875 18.109375 31.390625 
Q 18.109375 20.125 21.3125 9.0625 
Q 24.515625 -2 31 -13.1875 
L 23.1875 -13.1875 
Q 15.875 -1.703125 12.234375 9.375 
Q 8.59375 20.453125 8.59375 31.390625 
Q 8.59375 42.28125 12.203125 53.3125 
Q 15.828125 64.359375 23.1875 75.875 
z
" id="DejaVuSans-28"/>
      <path d="M 51.125 44 
L 36.921875 44 
L 32.8125 27.6875 
L 47.125 27.6875 
z
M 43.796875 71.78125 
L 38.71875 51.515625 
L 52.984375 51.515625 
L 58.109375 71.78125 
L 65.921875 71.78125 
L 60.890625 51.515625 
L 76.125 51.515625 
L 76.125 44 
L 58.984375 44 
L 54.984375 27.6875 
L 70.515625 27.6875 
L 70.515625 20.21875 
L 53.078125 20.21875 
L 48 0 
L 40.1875 0 
L 45.21875 20.21875 
L 30.90625 20.21875 
L 25.875 0 
L 18.015625 0 
L 23.09375 20.21875 
L 7.71875 20.21875 
L 7.71875 27.6875 
L 24.90625 27.6875 
L 29 44 
L 13.28125 44 
L 13.28125 51.515625 
L 30.90625 51.515625 
L 35.890625 71.78125 
z
" id="DejaVuSans-23"/>
      <path id="DejaVuSans-20"/>
      <path d="M 37.109375 75.984375 
L 37.109375 68.5 
L 28.515625 68.5 
Q 23.6875 68.5 21.796875 66.546875 
Q 19.921875 64.59375 19.921875 59.515625 
L 19.921875 54.6875 
L 34.71875 54.6875 
L 34.71875 47.703125 
L 19.921875 47.703125 
L 19.921875 0 
L 10.890625 0 
L 10.890625 47.703125 
L 2.296875 47.703125 
L 2.296875 54.6875 
L 10.890625 54.6875 
L 10.890625 58.5 
Q 10.890625 67.625 15.140625 71.796875 
Q 19.390625 75.984375 28.609375 75.984375 
z
" id="DejaVuSans-66"/>
      <path d="M 4.890625 31.390625 
L 31.203125 31.390625 
L 31.203125 23.390625 
L 4.890625 23.390625 
z
" id="DejaVuSans-2d"/>
      <path d="M 56.203125 29.59375 
L 56.203125 25.203125 
L 14.890625 25.203125 
Q 15.484375 15.921875 20.484375 11.0625 
Q 25.484375 6.203125 34.421875 6.203125 
Q 39.59375 6.203125 44.453125 7.46875 
Q 49.3125 8.734375 54.109375 11.28125 
L 54.109375 2.78125 
Q 49.265625 0.734375 44.1875 -0.34375 
Q 39.109375 -1.421875 33.890625 -1.421875 
Q 20.796875 -1.421875 13.15625 6.1875 
Q 5.515625 13.8125 5.515625 26.8125 
Q 5.515625 40.234375 12.765625 48.109375 
Q 20.015625 56 32.328125 56 
Q 43.359375 56 49.78125 48.890625 
Q 56.203125 41.796875 56.203125 29.59375 
z
M 47.21875 32.234375 
Q 47.125 39.59375 43.09375 43.984375 
Q 39.0625 48.390625 32.421875 48.390625 
Q 24.90625 48.390625 20.390625 44.140625 
Q 15.875 39.890625 15.1875 32.171875 
z
" id="DejaVuSans-65"/>
      <path d="M 2.984375 54.6875 
L 12.5 54.6875 
L 29.59375 8.796875 
L 46.6875 54.6875 
L 56.203125 54.6875 
L 35.6875 0 
L 23.484375 0 
z
" id="DejaVuSans-76"/>
      <path d="M 34.28125 27.484375 
Q 23.390625 27.484375 19.1875 25 
Q 14.984375 22.515625 14.984375 16.5 
Q 14.984375 11.71875 18.140625 8.90625 
Q 21.296875 6.109375 26.703125 6.109375 
Q 34.1875 6.109375 38.703125 11.40625 
Q 43.21875 16.703125 43.21875 25.484375 
L 43.21875 27.484375 
z
M 52.203125 31.203125 
L 52.203125 0 
L 43.21875 0 
L 43.21875 8.296875 
Q 40.140625 3.328125 35.546875 0.953125 
Q 30.953125 -1.421875 24.3125 -1.421875 
Q 15.921875 -1.421875 10.953125 3.296875 
Q 6 8.015625 6 15.921875 
Q 6 25.140625 12.171875 29.828125 
Q 18.359375 34.515625 30.609375 34.515625 
L 43.21875 34.515625 
L 43.21875 35.40625 
Q 43.21875 41.609375 39.140625 45 
Q 35.0625 48.390625 27.6875 48.390625 
Q 23 48.390625 18.546875 47.265625 
Q 14.109375 46.140625 10.015625 43.890625 
L 10.015625 52.203125 
Q 14.9375 54.109375 19.578125 55.046875 
Q 24.21875 56 28.609375 56 
Q 40.484375 56 46.34375 49.84375 
Q 52.203125 43.703125 52.203125 31.203125 
z
" id="DejaVuSans-61"/>
      <path d="M 44.28125 53.078125 
L 44.28125 44.578125 
Q 40.484375 46.53125 36.375 47.5 
Q 32.28125 48.484375 27.875 48.484375 
Q 21.1875 48.484375 17.84375 46.4375 
Q 14.5 44.390625 14.5 40.28125 
Q 14.5 37.15625 16.890625 35.375 
Q 19.28125 33.59375 26.515625 31.984375 
L 29.59375 31.296875 
Q 39.15625 29.25 43.1875 25.515625 
Q 47.21875 21.78125 47.21875 15.09375 
Q 47.21875 7.46875 41.1875 3.015625 
Q 35.15625 -1.421875 24.609375 -1.421875 
Q 20.21875 -1.421875 15.453125 -0.5625 
Q 10.6875 0.296875 5.421875 2 
L 5.421875 11.28125 
Q 10.40625 8.6875 15.234375 7.390625 
Q 20.0625 6.109375 24.8125 6.109375 
Q 31.15625 6.109375 34.5625 8.28125 
Q 37.984375 10.453125 37.984375 14.40625 
Q 37.984375 18.0625 35.515625 20.015625 
Q 33.0625 21.96875 24.703125 23.78125 
L 21.578125 24.515625 
Q 13.234375 26.265625 9.515625 29.90625 
Q 5.8125 33.546875 5.8125 39.890625 
Q 5.8125 47.609375 11.28125 51.796875 
Q 16.75 56 26.8125 56 
Q 31.78125 56 36.171875 55.265625 
Q 40.578125 54.546875 44.28125 53.078125 
z
" id="DejaVuSans-73"/>
      <path d="M 25.390625 72.90625 
L 33.6875 72.90625 
L 8.296875 -9.28125 
L 0 -9.28125 
z
" id="DejaVuSans-2f"/>
      <path d="M 45.40625 46.390625 
L 45.40625 75.984375 
L 54.390625 75.984375 
L 54.390625 0 
L 45.40625 0 
L 45.40625 8.203125 
Q 42.578125 3.328125 38.25 0.953125 
Q 33.9375 -1.421875 27.875 -1.421875 
Q 17.96875 -1.421875 11.734375 6.484375 
Q 5.515625 14.40625 5.515625 27.296875 
Q 5.515625 40.1875 11.734375 48.09375 
Q 17.96875 56 27.875 56 
Q 33.9375 56 38.25 53.625 
Q 42.578125 51.265625 45.40625 46.390625 
z
M 14.796875 27.296875 
Q 14.796875 17.390625 18.875 11.75 
Q 22.953125 6.109375 30.078125 6.109375 
Q 37.203125 6.109375 41.296875 11.75 
Q 45.40625 17.390625 45.40625 27.296875 
Q 45.40625 37.203125 41.296875 42.84375 
Q 37.203125 48.484375 30.078125 48.484375 
Q 22.953125 48.484375 18.875 42.84375 
Q 14.796875 37.203125 14.796875 27.296875 
z
" id="DejaVuSans-64"/>
      <path d="M 9.421875 54.6875 
L 18.40625 54.6875 
L 18.40625 0 
L 9.421875 0 
z
M 9.421875 75.984375 
L 18.40625 75.984375 
L 18.40625 64.59375 
L 9.421875 64.59375 
z
" id="DejaVuSans-69"/>
      <path d="M 52 44.1875 
Q 55.375 50.25 60.0625 53.125 
Q 64.75 56 71.09375 56 
Q 79.640625 56 84.28125 50.015625 
Q 88.921875 44.046875 88.921875 33.015625 
L 88.921875 0 
L 79.890625 0 
L 79.890625 32.71875 
Q 79.890625 40.578125 77.09375 44.375 
Q 74.3125 48.1875 68.609375 48.1875 
Q 61.625 48.1875 57.5625 43.546875 
Q 53.515625 38.921875 53.515625 30.90625 
L 53.515625 0 
L 44.484375 0 
L 44.484375 32.71875 
Q 44.484375 40.625 41.703125 44.40625 
Q 38.921875 48.1875 33.109375 48.1875 
Q 26.21875 48.1875 22.15625 43.53125 
Q 18.109375 38.875 18.109375 30.90625 
L 18.109375 0 
L 9.078125 0 
L 9.078125 54.6875 
L 18.109375 54.6875 
L 18.109375 46.1875 
Q 21.1875 51.21875 25.484375 53.609375 
Q 29.78125 56 35.6875 56 
Q 41.65625 56 45.828125 52.96875 
Q 50 49.953125 52 44.1875 
z
" id="DejaVuSans-6d"/>
      <path d="M 54.890625 33.015625 
L 54.890625 0 
L 45.90625 0 
L 45.90625 32.71875 
Q 45.90625 40.484375 42.875 44.328125 
Q 39.84375 48.1875 33.796875 48.1875 
Q 26.515625 48.1875 22.3125 43.546875 
Q 18.109375 38.921875 18.109375 30.90625 
L 18.109375 0 
L 9.078125 0 
L 9.078125 54.6875 
L 18.109375 54.6875 
L 18.109375 46.1875 
Q 21.34375 51.125 25.703125 53.5625 
Q 30.078125 56 35.796875 56 
Q 45.21875 56 50.046875 50.171875 
Q 54.890625 44.34375 54.890625 33.015625 
z
" id="DejaVuSans-6e"/>
      <path d="M 8.015625 75.875 
L 15.828125 75.875 
Q 23.140625 64.359375 26.78125 53.3125 
Q 30.421875 42.28125 30.421875 31.390625 
Q 30.421875 20.453125 26.78125 9.375 
Q 23.140625 -1.703125 15.828125 -13.1875 
L 8.015625 -13.1875 
Q 14.5 -2 17.703125 9.0625 
Q 20.90625 20.125 20.90625 31.390625 
Q 20.90625 42.671875 17.703125 53.65625 
Q 14.5 64.65625 8.015625 75.875 
z
" id="DejaVuSans-29"/>
     </defs>
     <g transform="translate(73.803219 338.153594)scale(0.17 -0.17)">
      <use xlink:href="#DejaVuSans-6c"/>
      <use x="27.783203" xlink:href="#DejaVuSans-6f"/>
      <use x="88.964844" xlink:href="#DejaVuSans-67"/>
      <use x="152.441406" xlink:href="#DejaVuSans-31"/>
      <use x="216.064453" xlink:href="#DejaVuSans-30"/>
      <use x="279.6875" xlink:href="#DejaVuSans-28"/>
      <use x="318.701172" xlink:href="#DejaVuSans-23"/>
      <use x="402.490234" xlink:href="#DejaVuSans-20"/>
      <use x="434.277344" xlink:href="#DejaVuSans-66"/>
      <use x="469.404297" xlink:href="#DejaVuSans-2d"/>
      <use x="505.488281" xlink:href="#DejaVuSans-65"/>
      <use x="567.011719" xlink:href="#DejaVuSans-76"/>
      <use x="626.191406" xlink:href="#DejaVuSans-61"/>
      <use x="687.470703" xlink:href="#DejaVuSans-6c"/>
      <use x="715.253906" xlink:href="#DejaVuSans-73"/>
      <use x="767.353516" xlink:href="#DejaVuSans-20"/>
      <use x="799.140625" xlink:href="#DejaVuSans-2f"/>
      <use x="832.832031" xlink:href="#DejaVuSans-20"/>
      <use x="864.619141" xlink:href="#DejaVuSans-64"/>
      <use x="928.095703" xlink:href="#DejaVuSans-69"/>
      <use x="955.878906" xlink:href="#DejaVuSans-6d"/>
      <use x="1053.291016" xlink:href="#DejaVuSans-65"/>
      <use x="1114.814453" xlink:href="#DejaVuSans-6e"/>
      <use x="1178.193359" xlink:href="#DejaVuSans-73"/>
      <use x="1230.292969" xlink:href="#DejaVuSans-69"/>
      <use x="1258.076172" xlink:href="#DejaVuSans-6f"/>
      <use x="1319.257812" xlink:href="#DejaVuSans-6e"/>
      <use x="1382.636719" xlink:href="#DejaVuSans-29"/>
     </g>
    </g>
   </g>
   <g id="matplotlib.axis_2">
    <g id="ytick_1">
     <g id="line2d_29">
      <path clip-path="url(#p5738dd5137)" d="M 56.12 294.88 
L 333.168 294.88 
" style="fill:none;stroke:#b0b0b0;stroke-linecap:square;stroke-width:0.8;"/>
     </g>
     <g id="line2d_30">
      <defs>
       <path d="M 0 0 
L -3.5 0 
" id="m177e54acf3" style="stroke:#000000;stroke-width:0.8;"/>
      </defs>
      <g>
       <use style="stroke:#000000;stroke-width:0.8;" x="56.12" xlink:href="#m177e54acf3" y="294.88"/>
      </g>
     </g>
     <g id="text_6">
      <!-- 0.0 -->
      <defs>
       <path d="M 10.6875 12.40625 
L 21 12.40625 
L 21 0 
L 10.6875 0 
z
" id="DejaVuSans-2e"/>
      </defs>
      <g transform="translate(23.675 300.95875)scale(0.16 -0.16)">
       <use xlink:href="#DejaVuSans-30"/>
       <use x="63.623047" xlink:href="#DejaVuSans-2e"/>
       <use x="95.410156" xlink:href="#DejaVuSans-30"/>
      </g>
     </g>
    </g>
    <g id="ytick_2">
     <g id="line2d_31">
      <path clip-path="url(#p5738dd5137)" d="M 56.12 241.406733 
L 333.168 241.406733 
" style="fill:none;stroke:#b0b0b0;stroke-linecap:square;stroke-width:0.8;"/>
     </g>
     <g id="line2d_32">
      <g>
       <use style="stroke:#000000;stroke-width:0.8;" x="56.12" xlink:href="#m177e54acf3" y="241.406733"/>
      </g>
     </g>
     <g id="text_7">
      <!-- 0.2 -->
      <g transform="translate(23.675 247.485483)scale(0.16 -0.16)">
       <use xlink:href="#DejaVuSans-30"/>
       <use x="63.623047" xlink:href="#DejaVuSans-2e"/>
       <use x="95.410156" xlink:href="#DejaVuSans-32"/>
      </g>
     </g>
    </g>
    <g id="ytick_3">
     <g id="line2d_33">
      <path clip-path="url(#p5738dd5137)" d="M 56.12 187.933465 
L 333.168 187.933465 
" style="fill:none;stroke:#b0b0b0;stroke-linecap:square;stroke-width:0.8;"/>
     </g>
     <g id="line2d_34">
      <g>
       <use style="stroke:#000000;stroke-width:0.8;" x="56.12" xlink:href="#m177e54acf3" y="187.933465"/>
      </g>
     </g>
     <g id="text_8">
      <!-- 0.4 -->
      <g transform="translate(23.675 194.012215)scale(0.16 -0.16)">
       <use xlink:href="#DejaVuSans-30"/>
       <use x="63.623047" xlink:href="#DejaVuSans-2e"/>
       <use x="95.410156" xlink:href="#DejaVuSans-34"/>
      </g>
     </g>
    </g>
    <g id="ytick_4">
     <g id="line2d_35">
      <path clip-path="url(#p5738dd5137)" d="M 56.12 134.460198 
L 333.168 134.460198 
" style="fill:none;stroke:#b0b0b0;stroke-linecap:square;stroke-width:0.8;"/>
     </g>
     <g id="line2d_36">
      <g>
       <use style="stroke:#000000;stroke-width:0.8;" x="56.12" xlink:href="#m177e54acf3" y="134.460198"/>
      </g>
     </g>
     <g id="text_9">
      <!-- 0.6 -->
      <g transform="translate(23.675 140.538948)scale(0.16 -0.16)">
       <use xlink:href="#DejaVuSans-30"/>
       <use x="63.623047" xlink:href="#DejaVuSans-2e"/>
       <use x="95.410156" xlink:href="#DejaVuSans-36"/>
      </g>
     </g>
    </g>
    <g id="ytick_5">
     <g id="line2d_37">
      <path clip-path="url(#p5738dd5137)" d="M 56.12 80.986931 
L 333.168 80.986931 
" style="fill:none;stroke:#b0b0b0;stroke-linecap:square;stroke-width:0.8;"/>
     </g>
     <g id="line2d_38">
      <g>
       <use style="stroke:#000000;stroke-width:0.8;" x="56.12" xlink:href="#m177e54acf3" y="80.986931"/>
      </g>
     </g>
     <g id="text_10">
      <!-- 0.8 -->
      <defs>
       <path d="M 31.78125 34.625 
Q 24.75 34.625 20.71875 30.859375 
Q 16.703125 27.09375 16.703125 20.515625 
Q 16.703125 13.921875 20.71875 10.15625 
Q 24.75 6.390625 31.78125 6.390625 
Q 38.8125 6.390625 42.859375 10.171875 
Q 46.921875 13.96875 46.921875 20.515625 
Q 46.921875 27.09375 42.890625 30.859375 
Q 38.875 34.625 31.78125 34.625 
z
M 21.921875 38.8125 
Q 15.578125 40.375 12.03125 44.71875 
Q 8.5 49.078125 8.5 55.328125 
Q 8.5 64.0625 14.71875 69.140625 
Q 20.953125 74.21875 31.78125 74.21875 
Q 42.671875 74.21875 48.875 69.140625 
Q 55.078125 64.0625 55.078125 55.328125 
Q 55.078125 49.078125 51.53125 44.71875 
Q 48 40.375 41.703125 38.8125 
Q 48.828125 37.15625 52.796875 32.3125 
Q 56.78125 27.484375 56.78125 20.515625 
Q 56.78125 9.90625 50.3125 4.234375 
Q 43.84375 -1.421875 31.78125 -1.421875 
Q 19.734375 -1.421875 13.25 4.234375 
Q 6.78125 9.90625 6.78125 20.515625 
Q 6.78125 27.484375 10.78125 32.3125 
Q 14.796875 37.15625 21.921875 38.8125 
z
M 18.3125 54.390625 
Q 18.3125 48.734375 21.84375 45.5625 
Q 25.390625 42.390625 31.78125 42.390625 
Q 38.140625 42.390625 41.71875 45.5625 
Q 45.3125 48.734375 45.3125 54.390625 
Q 45.3125 60.0625 41.71875 63.234375 
Q 38.140625 66.40625 31.78125 66.40625 
Q 25.390625 66.40625 21.84375 63.234375 
Q 18.3125 60.0625 18.3125 54.390625 
z
" id="DejaVuSans-38"/>
      </defs>
      <g transform="translate(23.675 87.065681)scale(0.16 -0.16)">
       <use xlink:href="#DejaVuSans-30"/>
       <use x="63.623047" xlink:href="#DejaVuSans-2e"/>
       <use x="95.410156" xlink:href="#DejaVuSans-38"/>
      </g>
     </g>
    </g>
    <g id="ytick_6">
     <g id="line2d_39">
      <path clip-path="url(#p5738dd5137)" d="M 56.12 27.513663 
L 333.168 27.513663 
" style="fill:none;stroke:#b0b0b0;stroke-linecap:square;stroke-width:0.8;"/>
     </g>
     <g id="line2d_40">
      <g>
       <use style="stroke:#000000;stroke-width:0.8;" x="56.12" xlink:href="#m177e54acf3" y="27.513663"/>
      </g>
     </g>
     <g id="text_11">
      <!-- 1.0 -->
      <g transform="translate(23.675 33.592413)scale(0.16 -0.16)">
       <use xlink:href="#DejaVuSans-31"/>
       <use x="63.623047" xlink:href="#DejaVuSans-2e"/>
       <use x="95.410156" xlink:href="#DejaVuSans-30"/>
      </g>
     </g>
    </g>
    <g id="text_12">
     <!-- Fraction of function,target pairs -->
     <defs>
      <path d="M 9.8125 72.90625 
L 51.703125 72.90625 
L 51.703125 64.59375 
L 19.671875 64.59375 
L 19.671875 43.109375 
L 48.578125 43.109375 
L 48.578125 34.8125 
L 19.671875 34.8125 
L 19.671875 0 
L 9.8125 0 
z
" id="DejaVuSans-46"/>
      <path d="M 41.109375 46.296875 
Q 39.59375 47.171875 37.8125 47.578125 
Q 36.03125 48 33.890625 48 
Q 26.265625 48 22.1875 43.046875 
Q 18.109375 38.09375 18.109375 28.8125 
L 18.109375 0 
L 9.078125 0 
L 9.078125 54.6875 
L 18.109375 54.6875 
L 18.109375 46.1875 
Q 20.953125 51.171875 25.484375 53.578125 
Q 30.03125 56 36.53125 56 
Q 37.453125 56 38.578125 55.875 
Q 39.703125 55.765625 41.0625 55.515625 
z
" id="DejaVuSans-72"/>
      <path d="M 48.78125 52.59375 
L 48.78125 44.1875 
Q 44.96875 46.296875 41.140625 47.34375 
Q 37.3125 48.390625 33.40625 48.390625 
Q 24.65625 48.390625 19.8125 42.84375 
Q 14.984375 37.3125 14.984375 27.296875 
Q 14.984375 17.28125 19.8125 11.734375 
Q 24.65625 6.203125 33.40625 6.203125 
Q 37.3125 6.203125 41.140625 7.25 
Q 44.96875 8.296875 48.78125 10.40625 
L 48.78125 2.09375 
Q 45.015625 0.34375 40.984375 -0.53125 
Q 36.96875 -1.421875 32.421875 -1.421875 
Q 20.0625 -1.421875 12.78125 6.34375 
Q 5.515625 14.109375 5.515625 27.296875 
Q 5.515625 40.671875 12.859375 48.328125 
Q 20.21875 56 33.015625 56 
Q 37.15625 56 41.109375 55.140625 
Q 45.0625 54.296875 48.78125 52.59375 
z
" id="DejaVuSans-63"/>
      <path d="M 18.3125 70.21875 
L 18.3125 54.6875 
L 36.8125 54.6875 
L 36.8125 47.703125 
L 18.3125 47.703125 
L 18.3125 18.015625 
Q 18.3125 11.328125 20.140625 9.421875 
Q 21.96875 7.515625 27.59375 7.515625 
L 36.8125 7.515625 
L 36.8125 0 
L 27.59375 0 
Q 17.1875 0 13.234375 3.875 
Q 9.28125 7.765625 9.28125 18.015625 
L 9.28125 47.703125 
L 2.6875 47.703125 
L 2.6875 54.6875 
L 9.28125 54.6875 
L 9.28125 70.21875 
z
" id="DejaVuSans-74"/>
      <path d="M 8.5 21.578125 
L 8.5 54.6875 
L 17.484375 54.6875 
L 17.484375 21.921875 
Q 17.484375 14.15625 20.5 10.265625 
Q 23.53125 6.390625 29.59375 6.390625 
Q 36.859375 6.390625 41.078125 11.03125 
Q 45.3125 15.671875 45.3125 23.6875 
L 45.3125 54.6875 
L 54.296875 54.6875 
L 54.296875 0 
L 45.3125 0 
L 45.3125 8.40625 
Q 42.046875 3.421875 37.71875 1 
Q 33.40625 -1.421875 27.6875 -1.421875 
Q 18.265625 -1.421875 13.375 4.4375 
Q 8.5 10.296875 8.5 21.578125 
z
M 31.109375 56 
z
" id="DejaVuSans-75"/>
      <path d="M 11.71875 12.40625 
L 22.015625 12.40625 
L 22.015625 4 
L 14.015625 -11.625 
L 7.71875 -11.625 
L 11.71875 4 
z
" id="DejaVuSans-2c"/>
      <path d="M 18.109375 8.203125 
L 18.109375 -20.796875 
L 9.078125 -20.796875 
L 9.078125 54.6875 
L 18.109375 54.6875 
L 18.109375 46.390625 
Q 20.953125 51.265625 25.265625 53.625 
Q 29.59375 56 35.59375 56 
Q 45.5625 56 51.78125 48.09375 
Q 58.015625 40.1875 58.015625 27.296875 
Q 58.015625 14.40625 51.78125 6.484375 
Q 45.5625 -1.421875 35.59375 -1.421875 
Q 29.59375 -1.421875 25.265625 0.953125 
Q 20.953125 3.328125 18.109375 8.203125 
z
M 48.6875 27.296875 
Q 48.6875 37.203125 44.609375 42.84375 
Q 40.53125 48.484375 33.40625 48.484375 
Q 26.265625 48.484375 22.1875 42.84375 
Q 18.109375 37.203125 18.109375 27.296875 
Q 18.109375 17.390625 22.1875 11.75 
Q 26.265625 6.109375 33.40625 6.109375 
Q 40.53125 6.109375 44.609375 11.75 
Q 48.6875 17.390625 48.6875 27.296875 
z
" id="DejaVuSans-70"/>
     </defs>
     <g transform="translate(16.139531 294.999375)rotate(-90)scale(0.17 -0.17)">
      <use xlink:href="#DejaVuSans-46"/>
      <use x="57.410156" xlink:href="#DejaVuSans-72"/>
      <use x="98.523438" xlink:href="#DejaVuSans-61"/>
      <use x="159.802734" xlink:href="#DejaVuSans-63"/>
      <use x="214.783203" xlink:href="#DejaVuSans-74"/>
      <use x="253.992188" xlink:href="#DejaVuSans-69"/>
      <use x="281.775391" xlink:href="#DejaVuSans-6f"/>
      <use x="342.957031" xlink:href="#DejaVuSans-6e"/>
      <use x="406.335938" xlink:href="#DejaVuSans-20"/>
      <use x="438.123047" xlink:href="#DejaVuSans-6f"/>
      <use x="499.304688" xlink:href="#DejaVuSans-66"/>
      <use x="534.509766" xlink:href="#DejaVuSans-20"/>
      <use x="566.296875" xlink:href="#DejaVuSans-66"/>
      <use x="601.501953" xlink:href="#DejaVuSans-75"/>
      <use x="664.880859" xlink:href="#DejaVuSans-6e"/>
      <use x="728.259766" xlink:href="#DejaVuSans-63"/>
      <use x="783.240234" xlink:href="#DejaVuSans-74"/>
      <use x="822.449219" xlink:href="#DejaVuSans-69"/>
      <use x="850.232422" xlink:href="#DejaVuSans-6f"/>
      <use x="911.414062" xlink:href="#DejaVuSans-6e"/>
      <use x="974.792969" xlink:href="#DejaVuSans-2c"/>
      <use x="1006.580078" xlink:href="#DejaVuSans-74"/>
      <use x="1045.789062" xlink:href="#DejaVuSans-61"/>
      <use x="1107.068359" xlink:href="#DejaVuSans-72"/>
      <use x="1148.166016" xlink:href="#DejaVuSans-67"/>
      <use x="1211.642578" xlink:href="#DejaVuSans-65"/>
      <use x="1273.166016" xlink:href="#DejaVuSans-74"/>
      <use x="1312.375" xlink:href="#DejaVuSans-20"/>
      <use x="1344.162109" xlink:href="#DejaVuSans-70"/>
      <use x="1407.638672" xlink:href="#DejaVuSans-61"/>
      <use x="1468.917969" xlink:href="#DejaVuSans-69"/>
      <use x="1496.701172" xlink:href="#DejaVuSans-72"/>
      <use x="1537.814453" xlink:href="#DejaVuSans-73"/>
     </g>
    </g>
   </g>
   <g id="line2d_41">
    <defs>
     <path d="M 0 1.5 
C 0.397805 1.5 0.77937 1.341951 1.06066 1.06066 
C 1.341951 0.77937 1.5 0.397805 1.5 0 
C 1.5 -0.397805 1.341951 -0.77937 1.06066 -1.06066 
C 0.77937 -1.341951 0.397805 -1.5 0 -1.5 
C -0.397805 -1.5 -0.77937 -1.341951 -1.06066 -1.06066 
C -1.341951 -0.77937 -1.5 -0.397805 -1.5 0 
C -1.5 0.397805 -1.341951 0.77937 -1.06066 1.06066 
C -0.77937 1.341951 -0.397805 1.5 0 1.5 
z
" id="m9edbe889fe" style="stroke:#f5deb3;"/>
    </defs>
    <g>
     <use style="fill:#f5deb3;stroke:#f5deb3;" x="130.239792" xlink:href="#m9edbe889fe" y="27.513663"/>
     <use style="fill:#f5deb3;stroke:#f5deb3;" x="130.239792" xlink:href="#m9edbe889fe" y="27.513663"/>
    </g>
   </g>
   <g id="line2d_42">
    <defs>
     <path d="M 0 1.5 
C 0.397805 1.5 0.77937 1.341951 1.06066 1.06066 
C 1.341951 0.77937 1.5 0.397805 1.5 0 
C 1.5 -0.397805 1.341951 -0.77937 1.06066 -1.06066 
C 0.77937 -1.341951 0.397805 -1.5 0 -1.5 
C -0.397805 -1.5 -0.77937 -1.341951 -1.06066 -1.06066 
C -1.341951 -0.77937 -1.5 -0.397805 -1.5 0 
C -1.5 0.397805 -1.341951 0.77937 -1.06066 1.06066 
C -0.77937 1.341951 -0.397805 1.5 0 1.5 
z
" id="mdd2c822ea1" style="stroke:#000080;"/>
    </defs>
    <g>
     <use style="fill:#000080;stroke:#000080;" x="210.228855" xlink:href="#mdd2c822ea1" y="27.513663"/>
     <use style="fill:#000080;stroke:#000080;" x="210.228855" xlink:href="#mdd2c822ea1" y="27.513663"/>
    </g>
   </g>
   <g id="line2d_43">
    <path d="M 28.455965 294.88 
L 28.455965 279.152568 
L 88.027221 279.152568 
L 88.027221 278.104073 
L 88.556144 278.104073 
L 88.556144 275.482834 
L 89.069276 275.482834 
L 89.069276 274.958587 
L 89.567532 274.958587 
L 89.567532 274.434339 
L 90.522701 274.434339 
L 90.522701 273.910091 
L 96.038666 273.910091 
L 96.038666 273.385844 
L 96.372436 273.385844 
L 96.372436 272.861596 
L 96.699848 272.861596 
L 96.699848 272.337348 
L 97.646251 272.337348 
L 97.646251 271.8131 
L 98.543252 271.8131 
L 98.543252 270.764605 
L 104.615641 270.764605 
L 104.615641 270.240357 
L 107.952917 270.240357 
L 107.952917 269.716109 
L 108.286687 269.716109 
L 108.286687 269.191862 
L 108.451173 269.191862 
L 108.451173 268.667614 
L 108.775496 268.667614 
L 108.775496 268.143366 
L 110.014853 268.143366 
L 110.014853 267.094871 
L 110.746395 267.094871 
L 110.746395 266.570623 
L 111.585031 266.570623 
L 111.585031 265.522128 
L 112.122219 265.522128 
L 112.122219 264.473632 
L 112.514373 264.473632 
L 112.514373 263.949385 
L 115.904782 263.949385 
L 115.904782 263.425137 
L 116.73331 263.425137 
L 116.73331 262.900889 
L 117.033994 262.900889 
L 117.033994 262.376641 
L 117.329507 262.376641 
L 117.426894 261.328146 
L 117.715785 261.328146 
L 117.715785 260.803898 
L 118.371562 260.803898 
L 118.371562 260.279651 
L 118.645127 260.279651 
L 118.645127 259.755403 
L 118.914406 259.755403 
L 119.003236 258.706907 
L 119.267005 258.706907 
L 119.267005 258.18266 
L 120.200938 258.18266 
L 120.283378 257.134164 
L 120.528351 257.134164 
L 120.609239 256.085669 
L 120.929036 256.085669 
L 120.929036 255.561421 
L 121.320594 255.561421 
L 121.320594 255.037173 
L 121.627542 255.037173 
L 121.627542 254.512926 
L 122.444434 254.512926 
L 122.444434 253.988678 
L 123.769975 253.988678 
L 123.769975 252.940182 
L 124.363883 252.940182 
L 124.363883 252.415935 
L 124.493121 252.415935 
L 124.493121 251.891687 
L 124.621395 251.891687 
L 124.685175 250.843192 
L 125.248787 250.843192 
L 125.248787 250.318944 
L 125.854083 250.318944 
L 125.854083 249.794696 
L 125.972626 249.794696 
L 125.972626 249.270448 
L 126.323427 249.270448 
L 126.323427 248.746201 
L 126.438787 248.746201 
L 126.438787 248.221953 
L 126.553378 248.221953 
L 126.553378 247.697705 
L 126.780294 247.697705 
L 126.780294 246.64921 
L 127.605507 246.64921 
L 127.605507 245.600714 
L 127.7659 245.600714 
L 127.7659 245.076467 
L 127.92481 245.076467 
L 127.92481 244.552219 
L 128.289984 244.552219 
L 128.289984 244.027971 
L 128.444143 244.027971 
L 128.546153 242.979476 
L 129.243759 242.979476 
L 129.243759 242.455228 
L 129.725264 242.455228 
L 129.725264 241.93098 
L 129.961052 241.93098 
L 129.961052 240.882485 
L 130.100987 240.882485 
L 130.100987 240.358237 
L 130.468672 240.358237 
L 130.468672 239.83399 
L 130.604552 239.83399 
L 130.604552 239.309742 
L 131.005861 239.309742 
L 131.093782 238.261246 
L 131.654565 238.261246 
L 131.739239 237.212751 
L 132.442602 237.212751 
L 132.442602 236.688503 
L 133.157244 236.688503 
L 133.157244 236.164255 
L 133.579779 236.164255 
L 133.579779 235.640008 
L 137.827708 235.640008 
L 137.916386 234.591512 
L 138.150647 234.591512 
L 138.150647 234.067265 
L 139.0294 234.067265 
L 139.0294 233.543017 
L 139.573389 233.543017 
L 139.573389 233.018769 
L 140.204235 233.018769 
L 140.204235 232.494521 
L 141.010888 232.494521 
L 141.010888 231.970274 
L 141.376358 231.970274 
L 141.400449 230.921778 
L 141.544287 230.921778 
L 141.544287 230.397531 
L 141.710592 230.397531 
L 141.757814 228.30054 
L 141.922075 228.30054 
L 141.96872 226.727797 
L 142.223028 226.727797 
L 142.245962 225.679301 
L 142.337391 225.679301 
L 142.382924 224.106558 
L 142.518803 224.106558 
L 142.586342 222.533815 
L 142.742908 222.533815 
L 142.787381 220.961072 
L 142.898061 220.961072 
L 143.008034 219.912576 
L 143.073681 219.912576 
L 143.139078 218.864081 
L 143.269132 218.864081 
L 143.312265 217.815585 
L 143.462385 217.815585 
L 143.505037 215.194347 
L 143.716722 215.194347 
L 143.716722 214.145851 
L 143.967351 214.145851 
L 144.050088 211.524613 
L 144.11188 211.524613 
L 144.193927 208.903374 
L 144.255205 208.903374 
L 144.356853 207.854879 
L 144.397345 207.854879 
L 144.457904 206.806383 
L 144.558363 206.806383 
L 144.598384 204.709392 
L 144.717888 204.709392 
L 144.717888 203.660897 
L 144.875945 203.660897 
L 144.895601 200.515411 
L 145.013063 200.515411 
L 145.013063 199.991163 
L 145.207068 199.991163 
L 145.207068 199.466915 
L 145.36071 199.466915 
L 145.398907 198.41842 
L 145.64514 198.41842 
L 145.64514 197.369924 
L 145.832178 197.369924 
L 145.906427 195.797181 
L 145.980357 195.797181 
L 145.99879 194.224438 
L 146.163802 194.224438 
L 146.254795 193.175943 
L 146.291058 193.175943 
L 146.291058 192.127447 
L 146.57844 192.127447 
L 146.57844 191.078952 
L 146.790867 191.078952 
L 146.826017 190.030456 
L 146.913581 190.030456 
L 147.018071 188.457713 
L 147.190823 188.457713 
L 147.190823 187.933465 
L 147.598477 187.933465 
L 147.598477 187.409218 
L 148.907027 187.409218 
L 148.907027 186.88497 
L 149.061881 186.88497 
L 149.061881 186.360722 
L 149.261127 186.360722 
L 149.352314 184.263731 
L 149.518243 184.263731 
L 149.56322 183.215236 
L 150.122968 183.215236 
L 150.180842 182.16674 
L 150.281655 182.16674 
L 150.381881 181.118245 
L 150.509889 181.118245 
L 150.509889 180.593997 
L 150.693124 180.593997 
L 150.693124 180.06975 
L 150.846657 180.06975 
L 150.957462 177.448511 
L 151.0401 177.448511 
L 151.136011 175.875768 
L 151.353248 175.875768 
L 151.380211 174.827272 
L 151.514393 174.827272 
L 151.554444 172.730281 
L 151.634268 172.730281 
L 151.713722 171.681786 
L 151.792811 171.681786 
L 151.871538 169.584795 
L 151.988956 169.584795 
L 152.092658 167.487804 
L 152.234235 167.487804 
L 152.323726 164.866566 
L 152.387364 164.866566 
L 152.400064 163.81807 
L 152.564308 163.81807 
L 152.576877 162.769575 
L 152.677103 162.769575 
L 152.776747 161.721079 
L 152.888161 161.721079 
L 152.949747 159.624089 
L 153.047828 159.624089 
L 153.133192 158.575593 
L 153.169647 158.575593 
L 153.169647 158.051345 
L 153.290609 158.051345 
L 153.398752 155.954354 
L 153.577492 155.954354 
L 153.601184 154.905859 
L 153.871321 154.905859 
L 153.964296 153.857364 
L 154.251642 153.857364 
L 154.297175 152.808868 
L 154.812312 152.808868 
L 154.812312 152.28462 
L 154.998849 152.28462 
L 155.031558 151.236125 
L 155.756744 151.236125 
L 155.798464 150.18763 
L 156.118406 150.18763 
L 156.200014 149.139134 
L 156.271104 149.139134 
L 156.271104 148.614886 
L 156.512635 148.614886 
L 156.622212 146.517896 
L 156.64206 146.517896 
L 156.721225 144.945152 
L 157.005179 144.945152 
L 157.092358 143.896657 
L 157.159859 143.896657 
L 157.159859 143.372409 
L 157.341751 143.372409 
L 157.436716 141.799666 
L 157.512312 141.799666 
L 157.559391 140.751171 
L 157.625086 140.751171 
L 157.681197 138.65418 
L 157.802146 138.65418 
L 157.913041 136.032941 
L 157.92225 136.032941 
L 157.995745 134.984446 
L 158.232457 134.984446 
L 158.232457 134.460198 
L 158.421295 134.460198 
L 158.421295 133.93595 
L 158.906259 133.93595 
L 158.975673 132.363207 
L 159.018915 132.363207 
L 159.018915 131.838959 
L 159.3186 131.838959 
L 159.411718 130.790464 
L 159.470713 130.790464 
L 159.563012 129.741969 
L 159.646493 129.741969 
L 159.704689 128.693473 
L 160.057921 128.693473 
L 160.098527 127.644978 
L 160.308147 127.644978 
L 160.308147 127.12073 
L 160.602113 127.12073 
L 160.609988 126.072235 
L 160.782346 126.072235 
L 160.79014 125.023739 
L 160.89888 125.023739 
L 160.983838 123.975244 
L 161.037685 123.975244 
L 161.137241 122.4025 
L 161.152506 122.4025 
L 161.221032 121.354005 
L 161.304417 121.354005 
L 161.327088 119.781262 
L 161.439998 119.781262 
L 161.439998 119.257014 
L 161.700606 119.257014 
L 161.803753 117.160023 
L 161.818438 117.160023 
L 161.818438 116.635776 
L 161.95004 116.635776 
L 162.029971 115.58728 
L 162.095093 115.58728 
L 162.095093 115.063032 
L 162.296132 115.063032 
L 162.388678 113.490289 
L 162.480729 113.490289 
L 162.501901 112.441794 
L 163.022914 112.441794 
L 163.036594 111.393298 
L 163.172796 111.393298 
L 163.172796 110.869051 
L 163.883693 110.869051 
L 163.993981 107.723564 
L 164.084278 107.723564 
L 164.084278 107.199317 
L 164.237977 107.199317 
L 164.339686 106.150821 
L 164.421883 106.150821 
L 164.478559 105.102326 
L 164.622555 105.102326 
L 164.715819 102.481087 
L 164.746796 102.481087 
L 164.746796 101.956839 
L 164.9743 101.956839 
L 165.071755 100.908344 
L 165.132385 100.908344 
L 165.144486 99.859849 
L 165.307013 99.859849 
L 165.408562 97.762858 
L 165.878547 97.762858 
L 165.878547 97.23861 
L 166.313436 97.23861 
L 166.369848 96.190115 
L 166.431687 96.190115 
L 166.431687 95.665867 
L 166.588101 95.665867 
L 166.693434 94.093124 
L 166.776138 94.093124 
L 166.820085 93.044628 
L 166.929462 93.044628 
L 167.005615 91.996133 
L 167.097634 91.996133 
L 167.113822 90.947637 
L 167.285548 90.947637 
L 167.354825 89.374894 
L 167.555741 89.374894 
L 167.665773 88.326399 
L 167.87859 88.326399 
L 167.960931 86.753656 
L 168.032657 86.753656 
L 168.114265 85.70516 
L 168.190422 85.70516 
L 168.276328 84.656665 
L 168.356789 84.656665 
L 168.39688 83.608169 
L 168.481762 83.608169 
L 168.481762 83.083922 
L 168.875675 83.083922 
L 168.875675 82.559674 
L 168.996944 82.559674 
L 169.07411 81.511178 
L 169.25124 81.511178 
L 169.313044 79.938435 
L 169.511213 79.938435 
L 169.609448 78.88994 
L 169.753442 78.88994 
L 169.841104 77.841444 
L 169.955771 77.841444 
L 170.060594 76.268701 
L 170.187348 76.268701 
L 170.263852 75.220206 
L 170.357889 75.220206 
L 170.438085 73.647463 
L 171.13069 73.647463 
L 171.177589 72.598967 
L 171.249819 72.598967 
L 171.249819 72.074719 
L 171.368129 72.074719 
L 171.368129 71.550472 
L 171.623089 71.550472 
L 171.718249 69.453481 
L 171.80057 69.453481 
L 171.82519 68.404985 
L 171.923317 68.404985 
L 172.008722 67.35649 
L 172.125968 67.35649 
L 172.182285 65.783747 
L 172.25842 65.783747 
L 172.25842 65.259499 
L 172.809259 65.259499 
L 172.847937 64.211004 
L 172.940412 64.211004 
L 172.940412 63.686756 
L 173.361751 63.686756 
L 173.361751 63.162508 
L 173.673874 63.162508 
L 173.754693 61.589765 
L 173.853363 61.589765 
L 173.897035 60.54127 
L 174.059825 60.54127 
L 174.106567 59.492774 
L 174.21752 59.492774 
L 174.256718 58.444279 
L 174.40204 58.444279 
L 174.40204 57.920031 
L 174.539142 57.920031 
L 174.539142 57.395783 
L 174.827333 57.395783 
L 174.827333 56.871536 
L 174.988408 56.871536 
L 174.988408 56.347288 
L 175.181751 56.347288 
L 175.252437 55.298792 
L 175.389613 55.298792 
L 175.389613 54.774545 
L 175.914697 54.774545 
L 175.914697 54.250297 
L 176.040292 54.250297 
L 176.040292 53.726049 
L 176.339287 53.726049 
L 176.339287 53.201802 
L 176.477476 53.201802 
L 176.477476 52.677554 
L 176.870217 52.677554 
L 176.943438 50.580563 
L 177.12815 50.580563 
L 177.188281 49.532068 
L 177.263151 49.532068 
L 177.263151 49.00782 
L 177.626836 49.00782 
L 177.626836 48.483572 
L 177.743468 48.483572 
L 177.743468 47.959324 
L 177.934198 47.959324 
L 177.934198 47.435077 
L 178.424323 47.435077 
L 178.452231 46.386581 
L 179.071166 46.386581 
L 179.1811 45.338086 
L 179.35925 45.338086 
L 179.35925 44.813838 
L 179.803156 44.813838 
L 179.859773 43.765343 
L 179.944352 43.765343 
L 179.944352 43.241095 
L 180.245937 43.241095 
L 180.296108 42.192599 
L 180.373585 42.192599 
L 180.373585 41.668352 
L 180.675148 41.668352 
L 180.743619 40.095609 
L 181.062786 40.095609 
L 181.062786 39.571361 
L 181.697733 39.571361 
L 181.762257 37.998618 
L 181.895147 37.998618 
L 181.895147 37.47437 
L 182.182593 37.47437 
L 182.182593 36.950122 
L 182.43216 36.950122 
L 182.43216 36.425875 
L 183.085452 36.425875 
L 183.085452 35.901627 
L 184.319975 35.901627 
L 184.319975 35.377379 
L 184.571828 35.377379 
L 184.667272 33.804636 
L 185.189542 33.804636 
L 185.189542 32.756141 
L 185.523566 32.756141 
L 185.523566 32.231893 
L 186.28096 32.231893 
L 186.28096 31.707645 
L 187.173405 31.707645 
L 187.173405 31.183397 
L 191.633424 31.183397 
L 191.633424 30.65915 
L 192.296562 30.65915 
L 192.296562 30.134902 
L 194.736818 30.134902 
L 194.736818 29.610654 
L 196.166703 29.610654 
L 196.166703 29.086407 
L 203.852566 29.086407 
L 203.852566 28.562159 
L 205.030271 28.562159 
L 205.030271 28.037911 
L 210.228855 28.037911 
L 210.228855 27.513663 
L 333.168 27.513663 
L 333.168 27.513663 
" style="fill:none;stroke:#000080;stroke-linecap:square;stroke-width:1.5;"/>
   </g>
   <g id="line2d_44">
    <defs>
     <path d="M 0 6 
C 1.591219 6 3.117479 5.367802 4.242641 4.242641 
C 5.367802 3.117479 6 1.591219 6 0 
C 6 -1.591219 5.367802 -3.117479 4.242641 -4.242641 
C 3.117479 -5.367802 1.591219 -6 0 -6 
C -1.591219 -6 -3.117479 -5.367802 -4.242641 -4.242641 
C -5.367802 -3.117479 -6 -1.591219 -6 0 
C -6 1.591219 -5.367802 3.117479 -4.242641 4.242641 
C -3.117479 5.367802 -1.591219 6 0 6 
z
" id="ma2bd9c5a80" style="stroke:#000080;stroke-width:1.5;"/>
    </defs>
    <g>
     <use style="fill:none;stroke:#000080;stroke-width:1.5;" x="144.895601" xlink:href="#ma2bd9c5a80" y="201.563906"/>
     <use style="fill:none;stroke:#000080;stroke-width:1.5;" x="172.940412" xlink:href="#ma2bd9c5a80" y="63.686756"/>
     <use style="fill:none;stroke:#000080;stroke-width:1.5;" x="210.228855" xlink:href="#ma2bd9c5a80" y="28.037911"/>
     <use style="fill:none;stroke:#000080;stroke-width:1.5;" x="210.228855" xlink:href="#ma2bd9c5a80" y="27.513663"/>
     <use style="fill:none;stroke:#000080;stroke-width:1.5;" x="333.168" xlink:href="#ma2bd9c5a80" y="27.513663"/>
    </g>
   </g>
   <g id="line2d_45">
    <path style="fill:none;stroke:#000080;stroke-linecap:square;stroke-width:1.5;"/>
    <g/>
   </g>
   <g id="line2d_46">
    <path clip-path="url(#p5738dd5137)" d="M 134.841393 235.640008 
" style="fill:none;stroke:#000080;stroke-linecap:square;stroke-width:1.5;"/>
    <defs>
     <path d="M -12 12 
L 12 -12 
M -12 -12 
L 12 12 
" id="m686a97dca5" style="stroke:#000080;"/>
    </defs>
    <g clip-path="url(#p5738dd5137)">
     <use style="fill:#000080;stroke:#000080;" x="134.841393" xlink:href="#m686a97dca5" y="235.640008"/>
    </g>
   </g>
   <g id="line2d_47">
    <defs>
     <path d="M 0 1.5 
C 0.397805 1.5 0.77937 1.341951 1.06066 1.06066 
C 1.341951 0.77937 1.5 0.397805 1.5 0 
C 1.5 -0.397805 1.341951 -0.77937 1.06066 -1.06066 
C 0.77937 -1.341951 0.397805 -1.5 0 -1.5 
C -0.397805 -1.5 -0.77937 -1.341951 -1.06066 -1.06066 
C -1.341951 -0.77937 -1.5 -0.397805 -1.5 0 
C -1.5 0.397805 -1.341951 0.77937 -1.06066 1.06066 
C -0.77937 1.341951 -0.397805 1.5 0 1.5 
z
" id="m72827b4f0c" style="stroke:#ff00ff;"/>
    </defs>
    <g>
     <use style="fill:#ff00ff;stroke:#ff00ff;" x="204.034196" xlink:href="#m72827b4f0c" y="27.513663"/>
     <use style="fill:#ff00ff;stroke:#ff00ff;" x="204.034196" xlink:href="#m72827b4f0c" y="27.513663"/>
    </g>
   </g>
   <g id="line2d_48">
    <path d="M 28.455965 294.88 
L 28.455965 279.152568 
L 88.027221 279.152568 
L 88.027221 278.104073 
L 88.556144 278.104073 
L 88.556144 274.958587 
L 89.069276 274.958587 
L 89.069276 274.434339 
L 89.567532 274.434339 
L 89.567532 273.910091 
L 96.372436 273.910091 
L 96.372436 273.385844 
L 96.699848 273.385844 
L 96.699848 272.861596 
L 97.021141 272.861596 
L 97.021141 272.337348 
L 97.336537 272.337348 
L 97.336537 271.8131 
L 97.646251 271.8131 
L 97.646251 271.288853 
L 98.543252 271.288853 
L 98.543252 270.240357 
L 108.451173 270.240357 
L 108.451173 269.716109 
L 109.250788 269.716109 
L 109.250788 269.191862 
L 109.560502 269.191862 
L 109.560502 268.667614 
L 110.746395 268.667614 
L 110.746395 268.143366 
L 111.585031 268.143366 
L 111.585031 267.094871 
L 111.855724 267.094871 
L 111.855724 266.570623 
L 112.122219 266.570623 
L 112.122219 266.046375 
L 112.514373 266.046375 
L 112.514373 265.522128 
L 113.272818 265.522128 
L 113.272818 264.99788 
L 115.904782 264.99788 
L 115.904782 264.473632 
L 116.73331 264.473632 
L 116.73331 263.949385 
L 117.033994 263.949385 
L 117.033994 263.425137 
L 117.329507 263.425137 
L 117.426894 262.376641 
L 117.715785 262.376641 
L 117.715785 261.852394 
L 118.371562 261.852394 
L 118.371562 261.328146 
L 118.914406 261.328146 
L 119.003236 260.279651 
L 119.179531 260.279651 
L 119.267005 259.231155 
L 119.354037 259.231155 
L 119.354037 258.706907 
L 120.200938 258.706907 
L 120.283378 257.658412 
L 120.528351 257.658412 
L 120.609239 256.609917 
L 121.320594 256.609917 
L 121.397846 255.037173 
L 121.627542 255.037173 
L 121.627542 254.512926 
L 122.444434 254.512926 
L 122.444434 253.988678 
L 123.769975 253.988678 
L 123.769975 253.46443 
L 124.363883 253.46443 
L 124.363883 252.940182 
L 124.621395 252.940182 
L 124.685175 251.891687 
L 125.187069 251.891687 
L 125.248787 250.843192 
L 125.5541 250.843192 
L 125.5541 250.318944 
L 125.854083 250.318944 
L 125.854083 249.794696 
L 125.972626 249.794696 
L 125.972626 249.270448 
L 126.323427 249.270448 
L 126.323427 248.746201 
L 126.438787 248.746201 
L 126.438787 248.221953 
L 126.553378 248.221953 
L 126.610389 247.173458 
L 126.780294 247.173458 
L 126.780294 246.124962 
L 127.497741 246.124962 
L 127.605507 244.552219 
L 128.546153 244.552219 
L 128.546153 244.027971 
L 128.748375 244.027971 
L 128.748375 243.503724 
L 129.243759 243.503724 
L 129.243759 242.979476 
L 129.961052 242.979476 
L 129.961052 241.93098 
L 130.468672 241.93098 
L 130.468672 241.406733 
L 131.005861 241.406733 
L 131.093782 240.358237 
L 131.354881 240.358237 
L 131.354881 239.83399 
L 131.654565 239.83399 
L 131.739239 238.785494 
L 133.157244 238.785494 
L 133.157244 238.261246 
L 133.579779 238.261246 
L 133.579779 237.736999 
L 137.827708 237.736999 
L 137.916386 236.688503 
L 138.150647 236.688503 
L 138.150647 236.164255 
L 138.52464 236.164255 
L 138.52464 235.640008 
L 138.750809 235.640008 
L 138.80689 234.591512 
L 139.0294 234.591512 
L 139.0294 234.067265 
L 139.194412 234.067265 
L 139.194412 233.543017 
L 139.970373 233.543017 
L 139.970373 233.018769 
L 140.178407 233.018769 
L 140.204235 231.970274 
L 140.409475 231.970274 
L 140.409475 231.446026 
L 140.612293 231.446026 
L 140.612293 230.921778 
L 140.762851 230.921778 
L 140.762851 230.397531 
L 141.010888 230.397531 
L 141.084606 229.349035 
L 141.303883 229.349035 
L 141.400449 228.30054 
L 141.544287 228.30054 
L 141.544287 227.776292 
L 141.66324 227.776292 
L 141.757814 226.727797 
L 141.922075 226.727797 
L 141.96872 225.679301 
L 142.223028 225.679301 
L 142.245962 224.106558 
L 142.337391 224.106558 
L 142.382924 223.058063 
L 142.518803 223.058063 
L 142.586342 221.485319 
L 142.675983 221.485319 
L 142.742908 220.436824 
L 142.787381 220.436824 
L 142.898061 217.815585 
L 143.008034 217.815585 
L 143.073681 216.242842 
L 143.139078 216.242842 
L 143.139078 215.718594 
L 143.312265 215.718594 
L 143.333791 214.670099 
L 143.462385 214.670099 
L 143.505037 213.621604 
L 143.674593 213.621604 
L 143.716722 212.04886 
L 143.884213 212.04886 
L 143.988072 211.000365 
L 144.008769 211.000365 
L 144.008769 209.95187 
L 144.132429 209.95187 
L 144.193927 208.903374 
L 144.255205 208.903374 
L 144.356853 206.806383 
L 144.397345 206.806383 
L 144.397345 206.282136 
L 144.558363 206.282136 
L 144.598384 204.185145 
L 144.717888 204.185145 
L 144.797098 202.612401 
L 144.875945 202.612401 
L 144.973998 199.466915 
L 145.013063 199.466915 
L 145.013063 198.942667 
L 145.149096 198.942667 
L 145.207068 197.894172 
L 145.36071 197.894172 
L 145.36071 197.369924 
L 145.550852 197.369924 
L 145.64514 196.321429 
L 145.832178 196.321429 
L 145.906427 195.272933 
L 145.980357 195.272933 
L 145.99879 194.224438 
L 146.163802 194.224438 
L 146.163802 193.70019 
L 146.291058 193.70019 
L 146.291058 192.651695 
L 146.471234 192.651695 
L 146.57844 191.078952 
L 146.790867 191.078952 
L 146.826017 190.030456 
L 146.93104 190.030456 
L 146.93104 189.506209 
L 147.190823 189.506209 
L 147.190823 188.981961 
L 148.984628 188.981961 
L 149.000107 187.933465 
L 149.200066 187.933465 
L 149.291576 186.88497 
L 149.443019 186.88497 
L 149.443019 186.360722 
L 149.578186 186.360722 
L 149.682586 184.787979 
L 149.727135 184.787979 
L 149.727135 184.263731 
L 149.874805 184.263731 
L 149.977424 183.215236 
L 150.22412 183.215236 
L 150.238522 182.16674 
L 150.580595 182.16674 
L 150.651012 180.593997 
L 150.749113 180.593997 
L 150.749113 180.06975 
L 151.012598 180.06975 
L 151.012598 179.545502 
L 151.163317 179.545502 
L 151.163317 178.497006 
L 151.326243 178.497006 
L 151.407131 175.35152 
L 151.541104 175.35152 
L 151.634268 172.730281 
L 151.660793 172.730281 
L 151.740126 170.633291 
L 151.832219 170.633291 
L 151.871538 169.584795 
L 152.040885 169.584795 
L 152.07973 168.5363 
L 152.323726 168.5363 
L 152.425434 164.866566 
L 152.488698 164.866566 
L 152.501323 163.81807 
L 152.813965 163.81807 
L 152.875817 162.245327 
L 152.949747 162.245327 
L 153.060049 158.575593 
L 153.096659 158.575593 
L 153.096659 158.051345 
L 153.218134 158.051345 
L 153.242327 157.00285 
L 153.374779 157.00285 
L 153.374779 156.478602 
L 153.518118 156.478602 
L 153.518118 155.954354 
L 153.742655 155.954354 
L 153.742655 155.430107 
L 154.09132 155.430107 
L 154.114315 154.381611 
L 154.433054 154.381611 
L 154.433054 153.857364 
L 154.823341 153.857364 
L 154.823341 153.333116 
L 155.031558 153.333116 
L 155.031558 152.808868 
L 155.693974 152.808868 
L 155.693974 152.28462 
L 155.954019 152.28462 
L 155.954019 151.760373 
L 156.442538 151.760373 
L 156.462595 150.18763 
L 156.562529 150.18763 
L 156.612279 149.139134 
L 156.691581 149.139134 
L 156.691581 148.614886 
L 156.809852 148.614886 
L 156.809852 148.090639 
L 156.927315 148.090639 
L 156.976021 145.993648 
L 157.053666 145.993648 
L 157.1406 144.945152 
L 157.446184 144.945152 
L 157.446184 144.420905 
L 157.559391 144.420905 
L 157.578187 143.372409 
L 157.727817 143.372409 
L 157.792872 141.799666 
L 157.839191 141.799666 
L 157.839191 141.275418 
L 157.959037 141.275418 
L 157.995745 140.226923 
L 158.178119 140.226923 
L 158.268586 139.178427 
L 158.295634 139.178427 
L 158.367553 137.081437 
L 158.421295 137.081437 
L 158.439172 135.508693 
L 158.625765 135.508693 
L 158.678708 134.460198 
L 158.906259 134.460198 
L 158.923639 133.411703 
L 159.062048 133.411703 
L 159.062048 132.887455 
L 159.621491 132.887455 
L 159.704689 131.838959 
L 159.878104 131.838959 
L 159.919137 130.790464 
L 160.122845 130.790464 
L 160.122845 130.266216 
L 160.235875 130.266216 
L 160.276064 129.217721 
L 160.35616 129.217721 
L 160.35616 128.693473 
L 160.499399 128.693473 
L 160.609988 126.596482 
L 160.641455 126.596482 
L 160.71987 125.547987 
L 160.860123 125.547987 
L 160.922092 123.975244 
L 161.053039 123.975244 
L 161.121962 122.4025 
L 161.167758 122.4025 
L 161.19822 121.354005 
L 161.289286 121.354005 
L 161.394923 119.257014 
L 161.402444 119.257014 
L 161.462492 118.208519 
L 161.52233 118.208519 
L 161.574519 117.160023 
L 161.671022 117.160023 
L 161.73014 116.111528 
L 161.796406 116.111528 
L 161.825776 115.063032 
L 161.935468 115.063032 
L 161.964601 114.014537 
L 162.188725 114.014537 
L 162.224602 112.966042 
L 162.409964 112.966042 
L 162.409964 112.441794 
L 162.544168 112.441794 
L 162.544168 111.917546 
L 162.656375 111.917546 
L 162.698265 110.869051 
L 163.152434 110.869051 
L 163.152434 110.344803 
L 163.521952 110.344803 
L 163.521952 109.820555 
L 163.654377 109.820555 
L 163.746471 108.77206 
L 163.864157 108.77206 
L 163.864157 108.247812 
L 163.993981 108.247812 
L 164.103566 107.199317 
L 164.174103 107.199317 
L 164.250724 105.102326 
L 164.478559 105.102326 
L 164.585107 103.005335 
L 164.684787 103.005335 
L 164.75917 101.956839 
L 164.906977 101.956839 
L 164.906977 101.432592 
L 165.04136 101.432592 
L 165.06568 99.859849 
L 165.259017 99.859849 
L 165.259017 99.335601 
L 165.396646 99.335601 
L 165.44426 98.287105 
L 165.527269 98.287105 
L 165.527269 97.762858 
L 166.154491 97.762858 
L 166.256838 96.190115 
L 166.324733 96.190115 
L 166.324733 95.665867 
L 166.498896 95.665867 
L 166.526822 94.617371 
L 166.64362 94.617371 
L 166.748614 92.520381 
L 166.820085 92.520381 
L 166.92401 89.374894 
L 167.081431 89.374894 
L 167.081431 88.850646 
L 167.550483 88.850646 
L 167.608225 87.802151 
L 167.754334 87.802151 
L 167.764723 86.753656 
L 168.129524 86.753656 
L 168.144768 85.70516 
L 168.291443 85.70516 
L 168.301512 84.656665 
L 168.802501 84.656665 
L 168.81716 83.608169 
L 169.011439 83.608169 
L 169.112563 81.511178 
L 169.131758 81.511178 
L 169.131758 80.986931 
L 169.275037 80.986931 
L 169.374626 79.938435 
L 169.450119 79.938435 
L 169.450119 79.414188 
L 169.600116 79.414188 
L 169.600116 78.88994 
L 169.767313 78.88994 
L 169.868694 77.317197 
L 169.923742 77.317197 
L 170.028759 74.17171 
L 170.096905 74.17171 
L 170.096905 73.647463 
L 170.495773 73.647463 
L 170.544435 72.074719 
L 170.680836 72.074719 
L 170.680836 71.550472 
L 170.816163 71.550472 
L 170.816163 71.026224 
L 170.984913 71.026224 
L 170.984913 70.501976 
L 171.384964 70.501976 
L 171.384964 69.977729 
L 171.627238 69.977729 
L 171.627238 69.453481 
L 171.763574 69.453481 
L 171.763574 68.929233 
L 171.882499 68.929233 
L 171.964039 67.880738 
L 172.004664 67.880738 
L 172.004664 67.35649 
L 172.121938 67.35649 
L 172.206364 65.783747 
L 172.246421 65.783747 
L 172.246421 65.259499 
L 172.44532 65.259499 
L 172.44532 64.735251 
L 172.571418 64.735251 
L 172.571418 64.211004 
L 173.188393 64.211004 
L 173.211104 63.162508 
L 173.305413 63.162508 
L 173.305413 62.638261 
L 173.499933 62.638261 
L 173.499933 62.114013 
L 173.662824 62.114013 
L 173.662824 61.589765 
L 174.04902 61.589765 
L 174.120924 60.54127 
L 174.174655 60.54127 
L 174.249598 58.968526 
L 174.373781 58.968526 
L 174.373781 58.444279 
L 174.577615 58.444279 
L 174.650825 57.395783 
L 175.01227 57.395783 
L 175.01227 56.871536 
L 175.439526 56.871536 
L 175.512472 55.82304 
L 175.85642 55.82304 
L 175.950215 54.774545 
L 176.285598 54.774545 
L 176.285598 54.250297 
L 176.433627 54.250297 
L 176.433627 53.726049 
L 176.63627 53.726049 
L 176.63627 53.201802 
L 176.762874 53.201802 
L 176.762874 52.677554 
L 176.897711 52.677554 
L 176.897711 52.153306 
L 177.20628 52.153306 
L 177.245212 51.104811 
L 177.319835 51.104811 
L 177.319835 50.580563 
L 177.532957 50.580563 
L 177.615129 49.532068 
L 177.667747 49.532068 
L 177.667747 49.00782 
L 178.082994 49.00782 
L 178.102926 47.959324 
L 178.24463 47.959324 
L 178.315046 46.386581 
L 178.432701 46.386581 
L 178.432701 45.862334 
L 178.640815 45.862334 
L 178.640815 45.338086 
L 178.86006 45.338086 
L 178.86006 44.813838 
L 179.022679 44.813838 
L 179.111467 43.765343 
L 179.255776 43.765343 
L 179.255776 43.241095 
L 179.957131 43.241095 
L 179.957131 42.716847 
L 180.633443 42.716847 
L 180.633443 42.192599 
L 180.954644 42.192599 
L 180.954644 41.668352 
L 181.298332 41.668352 
L 181.300695 40.619856 
L 181.45593 40.619856 
L 181.45593 40.095609 
L 182.318967 40.095609 
L 182.318967 39.571361 
L 182.498398 39.571361 
L 182.498398 39.047113 
L 182.80634 39.047113 
L 182.832295 37.998618 
L 183.751737 37.998618 
L 183.751737 37.47437 
L 184.001899 37.47437 
L 184.001899 36.950122 
L 184.196644 36.950122 
L 184.242499 35.901627 
L 184.864267 35.901627 
L 184.864267 35.377379 
L 185.30223 35.377379 
L 185.30223 34.853131 
L 185.523566 34.853131 
L 185.523566 34.328884 
L 186.28096 34.328884 
L 186.28096 33.804636 
L 187.725207 33.804636 
L 187.725207 33.280388 
L 189.510339 33.280388 
L 189.510339 32.756141 
L 189.731662 32.756141 
L 189.731662 32.231893 
L 189.990121 32.231893 
L 189.990121 31.707645 
L 190.33159 31.707645 
L 190.33159 31.183397 
L 190.876128 31.183397 
L 190.876128 30.65915 
L 193.550693 30.65915 
L 193.550693 30.134902 
L 194.247686 30.134902 
L 194.247686 29.610654 
L 197.200562 29.610654 
L 197.290266 28.562159 
L 200.01417 28.562159 
L 200.01417 28.037911 
L 204.034196 28.037911 
L 204.034196 27.513663 
L 333.168 27.513663 
L 333.168 27.513663 
" style="fill:none;stroke:#ff00ff;stroke-linecap:square;stroke-width:1.5;"/>
   </g>
   <g id="line2d_49">
    <defs>
     <path d="M -0 8.485281 
L 5.091169 0 
L 0 -8.485281 
L -5.091169 -0 
z
" id="m18e1ed1d96" style="stroke:#ff00ff;stroke-linejoin:miter;stroke-width:1.5;"/>
    </defs>
    <g>
     <use style="fill:none;stroke:#ff00ff;stroke-linejoin:miter;stroke-width:1.5;" x="120.609239" xlink:href="#m18e1ed1d96" y="256.609917"/>
     <use style="fill:none;stroke:#ff00ff;stroke-linejoin:miter;stroke-width:1.5;" x="156.442538" xlink:href="#m18e1ed1d96" y="151.760373"/>
     <use style="fill:none;stroke:#ff00ff;stroke-linejoin:miter;stroke-width:1.5;" x="204.034196" xlink:href="#m18e1ed1d96" y="28.037911"/>
     <use style="fill:none;stroke:#ff00ff;stroke-linejoin:miter;stroke-width:1.5;" x="204.034196" xlink:href="#m18e1ed1d96" y="27.513663"/>
     <use style="fill:none;stroke:#ff00ff;stroke-linejoin:miter;stroke-width:1.5;" x="204.034196" xlink:href="#m18e1ed1d96" y="27.513663"/>
     <use style="fill:none;stroke:#ff00ff;stroke-linejoin:miter;stroke-width:1.5;" x="333.168" xlink:href="#m18e1ed1d96" y="27.513663"/>
    </g>
   </g>
   <g id="line2d_50">
    <path style="fill:none;stroke:#ff00ff;stroke-linecap:square;stroke-width:1.5;"/>
    <g/>
   </g>
   <g id="line2d_51">
    <path clip-path="url(#p5738dd5137)" d="M 134.841393 237.736999 
" style="fill:none;stroke:#ff00ff;stroke-linecap:square;stroke-width:1.5;"/>
    <defs>
     <path d="M -12 12 
L 12 -12 
M -12 -12 
L 12 12 
" id="maf1e2525f7" style="stroke:#ff00ff;"/>
    </defs>
    <g clip-path="url(#p5738dd5137)">
     <use style="fill:#ff00ff;stroke:#ff00ff;" x="134.841393" xlink:href="#maf1e2525f7" y="237.736999"/>
    </g>
   </g>
   <g id="line2d_52">
    <path d="M 333.168 27.513663 
L 363.64328 289.532673 
" style="fill:none;stroke:#000080;stroke-linecap:square;stroke-width:1.5;"/>
    <g>
     <use style="fill:none;stroke:#000080;stroke-width:1.5;" x="333.168" xlink:href="#ma2bd9c5a80" y="27.513663"/>
     <use style="fill:none;stroke:#000080;stroke-width:1.5;" x="363.64328" xlink:href="#ma2bd9c5a80" y="289.532673"/>
    </g>
   </g>
   <g id="line2d_53">
    <path d="M 333.168 27.513663 
L 363.64328 161.196832 
" style="fill:none;stroke:#ff00ff;stroke-linecap:square;stroke-width:1.5;"/>
    <g>
     <use style="fill:none;stroke:#ff00ff;stroke-linejoin:miter;stroke-width:1.5;" x="333.168" xlink:href="#m18e1ed1d96" y="27.513663"/>
     <use style="fill:none;stroke:#ff00ff;stroke-linejoin:miter;stroke-width:1.5;" x="363.64328" xlink:href="#m18e1ed1d96" y="161.196832"/>
    </g>
   </g>
   <g id="line2d_54">
    <path d="M 333.168 294.88 
L 333.168 27.513663 
" style="fill:none;stroke:#000000;stroke-linecap:square;stroke-width:1.5;"/>
   </g>
   <g id="patch_3">
    <path d="M 56.12 294.88 
L 56.12 24.84 
" style="fill:none;stroke:#000000;stroke-linecap:square;stroke-linejoin:miter;stroke-width:0.8;"/>
   </g>
   <g id="patch_4">
    <path d="M 333.168 294.88 
L 333.168 24.84 
" style="fill:none;stroke:#000000;stroke-linecap:square;stroke-linejoin:miter;stroke-width:0.8;"/>
   </g>
   <g id="patch_5">
    <path d="M 56.12 294.88 
L 333.168 294.88 
" style="fill:none;stroke:#000000;stroke-linecap:square;stroke-linejoin:miter;stroke-width:0.8;"/>
   </g>
   <g id="patch_6">
    <path d="M 56.12 24.84 
L 333.168 24.84 
" style="fill:none;stroke:#000000;stroke-linecap:square;stroke-linejoin:miter;stroke-width:0.8;"/>
   </g>
   <g id="text_13">
    <!-- scipyAlg -->
    <defs>
     <path d="M 32.171875 -5.078125 
Q 28.375 -14.84375 24.75 -17.8125 
Q 21.140625 -20.796875 15.09375 -20.796875 
L 7.90625 -20.796875 
L 7.90625 -13.28125 
L 13.1875 -13.28125 
Q 16.890625 -13.28125 18.9375 -11.515625 
Q 21 -9.765625 23.484375 -3.21875 
L 25.09375 0.875 
L 2.984375 54.6875 
L 12.5 54.6875 
L 29.59375 11.921875 
L 46.6875 54.6875 
L 56.203125 54.6875 
z
" id="DejaVuSans-79"/>
     <path d="M 34.1875 63.1875 
L 20.796875 26.90625 
L 47.609375 26.90625 
z
M 28.609375 72.90625 
L 39.796875 72.90625 
L 67.578125 0 
L 57.328125 0 
L 50.6875 18.703125 
L 17.828125 18.703125 
L 11.1875 0 
L 0.78125 0 
z
" id="DejaVuSans-41"/>
    </defs>
    <g transform="translate(369.18424 294.223611)scale(0.17 -0.17)">
     <use xlink:href="#DejaVuSans-73"/>
     <use x="52.099609" xlink:href="#DejaVuSans-63"/>
     <use x="107.080078" xlink:href="#DejaVuSans-69"/>
     <use x="134.863281" xlink:href="#DejaVuSans-70"/>
     <use x="198.339844" xlink:href="#DejaVuSans-79"/>
     <use x="257.519531" xlink:href="#DejaVuSans-41"/>
     <use x="325.927734" xlink:href="#DejaVuSans-6c"/>
     <use x="353.710938" xlink:href="#DejaVuSans-67"/>
    </g>
   </g>
   <g id="text_14">
    <!-- scipy-opt -->
    <g transform="translate(369.18424 165.887769)scale(0.17 -0.17)">
     <use xlink:href="#DejaVuSans-73"/>
     <use x="52.099609" xlink:href="#DejaVuSans-63"/>
     <use x="107.080078" xlink:href="#DejaVuSans-69"/>
     <use x="134.863281" xlink:href="#DejaVuSans-70"/>
     <use x="198.339844" xlink:href="#DejaVuSans-79"/>
     <use x="257.503906" xlink:href="#DejaVuSans-2d"/>
     <use x="293.603516" xlink:href="#DejaVuSans-6f"/>
     <use x="354.785156" xlink:href="#DejaVuSans-70"/>
     <use x="418.261719" xlink:href="#DejaVuSans-74"/>
    </g>
   </g>
   <g id="text_15">
    <!-- best 2009 -->
    <defs>
     <path d="M 48.6875 27.296875 
Q 48.6875 37.203125 44.609375 42.84375 
Q 40.53125 48.484375 33.40625 48.484375 
Q 26.265625 48.484375 22.1875 42.84375 
Q 18.109375 37.203125 18.109375 27.296875 
Q 18.109375 17.390625 22.1875 11.75 
Q 26.265625 6.109375 33.40625 6.109375 
Q 40.53125 6.109375 44.609375 11.75 
Q 48.6875 17.390625 48.6875 27.296875 
z
M 18.109375 46.390625 
Q 20.953125 51.265625 25.265625 53.625 
Q 29.59375 56 35.59375 56 
Q 45.5625 56 51.78125 48.09375 
Q 58.015625 40.1875 58.015625 27.296875 
Q 58.015625 14.40625 51.78125 6.484375 
Q 45.5625 -1.421875 35.59375 -1.421875 
Q 29.59375 -1.421875 25.265625 0.953125 
Q 20.953125 3.328125 18.109375 8.203125 
L 18.109375 0 
L 9.078125 0 
L 9.078125 75.984375 
L 18.109375 75.984375 
z
" id="DejaVuSans-62"/>
     <path d="M 10.984375 1.515625 
L 10.984375 10.5 
Q 14.703125 8.734375 18.5 7.8125 
Q 22.3125 6.890625 25.984375 6.890625 
Q 35.75 6.890625 40.890625 13.453125 
Q 46.046875 20.015625 46.78125 33.40625 
Q 43.953125 29.203125 39.59375 26.953125 
Q 35.25 24.703125 29.984375 24.703125 
Q 19.046875 24.703125 12.671875 31.3125 
Q 6.296875 37.9375 6.296875 49.421875 
Q 6.296875 60.640625 12.9375 67.421875 
Q 19.578125 74.21875 30.609375 74.21875 
Q 43.265625 74.21875 49.921875 64.515625 
Q 56.59375 54.828125 56.59375 36.375 
Q 56.59375 19.140625 48.40625 8.859375 
Q 40.234375 -1.421875 26.421875 -1.421875 
Q 22.703125 -1.421875 18.890625 -0.6875 
Q 15.09375 0.046875 10.984375 1.515625 
z
M 30.609375 32.421875 
Q 37.25 32.421875 41.125 36.953125 
Q 45.015625 41.5 45.015625 49.421875 
Q 45.015625 57.28125 41.125 61.84375 
Q 37.25 66.40625 30.609375 66.40625 
Q 23.96875 66.40625 20.09375 61.84375 
Q 16.21875 57.28125 16.21875 49.421875 
Q 16.21875 41.5 20.09375 36.953125 
Q 23.96875 32.421875 30.609375 32.421875 
z
" id="DejaVuSans-39"/>
    </defs>
    <g transform="translate(369.18424 37.551928)scale(0.17 -0.17)">
     <use xlink:href="#DejaVuSans-62"/>
     <use x="63.476562" xlink:href="#DejaVuSans-65"/>
     <use x="125" xlink:href="#DejaVuSans-73"/>
     <use x="177.099609" xlink:href="#DejaVuSans-74"/>
     <use x="216.308594" xlink:href="#DejaVuSans-20"/>
     <use x="248.095703" xlink:href="#DejaVuSans-32"/>
     <use x="311.71875" xlink:href="#DejaVuSans-30"/>
     <use x="375.341797" xlink:href="#DejaVuSans-30"/>
     <use x="438.964844" xlink:href="#DejaVuSans-39"/>
    </g>
   </g>
   <g id="text_16">
    <!-- bbob f9, 5-D -->
    <defs>
     <path d="M 10.796875 72.90625 
L 49.515625 72.90625 
L 49.515625 64.59375 
L 19.828125 64.59375 
L 19.828125 46.734375 
Q 21.96875 47.46875 24.109375 47.828125 
Q 26.265625 48.1875 28.421875 48.1875 
Q 40.625 48.1875 47.75 41.5 
Q 54.890625 34.8125 54.890625 23.390625 
Q 54.890625 11.625 47.5625 5.09375 
Q 40.234375 -1.421875 26.90625 -1.421875 
Q 22.3125 -1.421875 17.546875 -0.640625 
Q 12.796875 0.140625 7.71875 1.703125 
L 7.71875 11.625 
Q 12.109375 9.234375 16.796875 8.0625 
Q 21.484375 6.890625 26.703125 6.890625 
Q 35.15625 6.890625 40.078125 11.328125 
Q 45.015625 15.765625 45.015625 23.390625 
Q 45.015625 31 40.078125 35.4375 
Q 35.15625 39.890625 26.703125 39.890625 
Q 22.75 39.890625 18.8125 39.015625 
Q 14.890625 38.140625 10.796875 36.28125 
z
" id="DejaVuSans-35"/>
     <path d="M 19.671875 64.796875 
L 19.671875 8.109375 
L 31.59375 8.109375 
Q 46.6875 8.109375 53.6875 14.9375 
Q 60.6875 21.78125 60.6875 36.53125 
Q 60.6875 51.171875 53.6875 57.984375 
Q 46.6875 64.796875 31.59375 64.796875 
z
M 9.8125 72.90625 
L 30.078125 72.90625 
Q 51.265625 72.90625 61.171875 64.09375 
Q 71.09375 55.28125 71.09375 36.53125 
Q 71.09375 17.671875 61.125 8.828125 
Q 51.171875 0 30.078125 0 
L 9.8125 0 
z
" id="DejaVuSans-44"/>
    </defs>
    <g transform="translate(58.89048 35.290806)scale(0.102 -0.102)">
     <use xlink:href="#DejaVuSans-62"/>
     <use x="63.476562" xlink:href="#DejaVuSans-62"/>
     <use x="126.953125" xlink:href="#DejaVuSans-6f"/>
     <use x="188.134766" xlink:href="#DejaVuSans-62"/>
     <use x="251.611328" xlink:href="#DejaVuSans-20"/>
     <use x="283.398438" xlink:href="#DejaVuSans-66"/>
     <use x="318.603516" xlink:href="#DejaVuSans-39"/>
     <use x="382.226562" xlink:href="#DejaVuSans-2c"/>
     <use x="414.013672" xlink:href="#DejaVuSans-20"/>
     <use x="445.800781" xlink:href="#DejaVuSans-35"/>
     <use x="509.423828" xlink:href="#DejaVuSans-2d"/>
     <use x="545.507812" xlink:href="#DejaVuSans-44"/>
    </g>
    <!-- 51 targets: 100..1e-08 -->
    <defs>
     <path d="M 11.71875 12.40625 
L 22.015625 12.40625 
L 22.015625 0 
L 11.71875 0 
z
M 11.71875 51.703125 
L 22.015625 51.703125 
L 22.015625 39.3125 
L 11.71875 39.3125 
z
" id="DejaVuSans-3a"/>
    </defs>
    <g transform="translate(58.89048 46.712575)scale(0.102 -0.102)">
     <use xlink:href="#DejaVuSans-35"/>
     <use x="63.623047" xlink:href="#DejaVuSans-31"/>
     <use x="127.246094" xlink:href="#DejaVuSans-20"/>
     <use x="159.033203" xlink:href="#DejaVuSans-74"/>
     <use x="198.242188" xlink:href="#DejaVuSans-61"/>
     <use x="259.521484" xlink:href="#DejaVuSans-72"/>
     <use x="300.619141" xlink:href="#DejaVuSans-67"/>
     <use x="364.095703" xlink:href="#DejaVuSans-65"/>
     <use x="425.619141" xlink:href="#DejaVuSans-74"/>
     <use x="464.828125" xlink:href="#DejaVuSans-73"/>
     <use x="516.927734" xlink:href="#DejaVuSans-3a"/>
     <use x="550.619141" xlink:href="#DejaVuSans-20"/>
     <use x="582.40625" xlink:href="#DejaVuSans-31"/>
     <use x="646.029297" xlink:href="#DejaVuSans-30"/>
     <use x="709.652344" xlink:href="#DejaVuSans-30"/>
     <use x="773.275391" xlink:href="#DejaVuSans-2e"/>
     <use x="805.0625" xlink:href="#DejaVuSans-2e"/>
     <use x="836.849609" xlink:href="#DejaVuSans-31"/>
     <use x="900.472656" xlink:href="#DejaVuSans-65"/>
     <use x="961.996094" xlink:href="#DejaVuSans-2d"/>
     <use x="998.080078" xlink:href="#DejaVuSans-30"/>
     <use x="1061.703125" xlink:href="#DejaVuSans-38"/>
    </g>
    <!-- 15 instances -->
    <g transform="translate(58.89048 58.134344)scale(0.102 -0.102)">
     <use xlink:href="#DejaVuSans-31"/>
     <use x="63.623047" xlink:href="#DejaVuSans-35"/>
     <use x="127.246094" xlink:href="#DejaVuSans-20"/>
     <use x="159.033203" xlink:href="#DejaVuSans-69"/>
     <use x="186.816406" xlink:href="#DejaVuSans-6e"/>
     <use x="250.195312" xlink:href="#DejaVuSans-73"/>
     <use x="302.294922" xlink:href="#DejaVuSans-74"/>
     <use x="341.503906" xlink:href="#DejaVuSans-61"/>
     <use x="402.783203" xlink:href="#DejaVuSans-6e"/>
     <use x="466.162109" xlink:href="#DejaVuSans-63"/>
     <use x="521.142578" xlink:href="#DejaVuSans-65"/>
     <use x="582.666016" xlink:href="#DejaVuSans-73"/>
    </g>
   </g>
   <g id="text_17">
    <!-- v0.0.0 -->
    <g style="fill:#808080;" transform="translate(178.96275 290.099912)scale(0.1 -0.1)">
     <use xlink:href="#DejaVuSans-76"/>
     <use x="59.179688" xlink:href="#DejaVuSans-30"/>
     <use x="122.802734" xlink:href="#DejaVuSans-2e"/>
     <use x="154.589844" xlink:href="#DejaVuSans-30"/>
     <use x="218.212891" xlink:href="#DejaVuSans-2e"/>
     <use x="250" xlink:href="#DejaVuSans-30"/>
    </g>
   </g>
   <g id="text_18">
    <!-- 9 Rosenbrock rotated -->
    <defs>
     <path d="M 44.390625 34.1875 
Q 47.5625 33.109375 50.5625 29.59375 
Q 53.5625 26.078125 56.59375 19.921875 
L 66.609375 0 
L 56 0 
L 46.6875 18.703125 
Q 43.0625 26.03125 39.671875 28.421875 
Q 36.28125 30.8125 30.421875 30.8125 
L 19.671875 30.8125 
L 19.671875 0 
L 9.8125 0 
L 9.8125 72.90625 
L 32.078125 72.90625 
Q 44.578125 72.90625 50.734375 67.671875 
Q 56.890625 62.453125 56.890625 51.90625 
Q 56.890625 45.015625 53.6875 40.46875 
Q 50.484375 35.9375 44.390625 34.1875 
z
M 19.671875 64.796875 
L 19.671875 38.921875 
L 32.078125 38.921875 
Q 39.203125 38.921875 42.84375 42.21875 
Q 46.484375 45.515625 46.484375 51.90625 
Q 46.484375 58.296875 42.84375 61.546875 
Q 39.203125 64.796875 32.078125 64.796875 
z
" id="DejaVuSans-52"/>
     <path d="M 9.078125 75.984375 
L 18.109375 75.984375 
L 18.109375 31.109375 
L 44.921875 54.6875 
L 56.390625 54.6875 
L 27.390625 29.109375 
L 57.625 0 
L 45.90625 0 
L 18.109375 26.703125 
L 18.109375 0 
L 9.078125 0 
z
" id="DejaVuSans-6b"/>
    </defs>
    <g transform="translate(86.603375 18.84)scale(0.2 -0.2)">
     <use xlink:href="#DejaVuSans-39"/>
     <use x="63.623047" xlink:href="#DejaVuSans-20"/>
     <use x="95.410156" xlink:href="#DejaVuSans-52"/>
     <use x="164.830078" xlink:href="#DejaVuSans-6f"/>
     <use x="226.011719" xlink:href="#DejaVuSans-73"/>
     <use x="278.111328" xlink:href="#DejaVuSans-65"/>
     <use x="339.634766" xlink:href="#DejaVuSans-6e"/>
     <use x="403.013672" xlink:href="#DejaVuSans-62"/>
     <use x="466.490234" xlink:href="#DejaVuSans-72"/>
     <use x="507.572266" xlink:href="#DejaVuSans-6f"/>
     <use x="568.753906" xlink:href="#DejaVuSans-63"/>
     <use x="623.734375" xlink:href="#DejaVuSans-6b"/>
     <use x="681.644531" xlink:href="#DejaVuSans-20"/>
     <use x="713.431641" xlink:href="#DejaVuSans-72"/>
     <use x="754.513672" xlink:href="#DejaVuSans-6f"/>
     <use x="815.695312" xlink:href="#DejaVuSans-74"/>
     <use x="854.904297" xlink:href="#DejaVuSans-61"/>
     <use x="916.183594" xlink:href="#DejaVuSans-74"/>
     <use x="955.392578" xlink:href="#DejaVuSans-65"/>
     <use x="1016.916016" xlink:href="#DejaVuSans-64"/>
    </g>
   </g>
  </g>
 </g>
 <defs>
  <clipPath id="p5738dd5137">
   <rect height="270.04" width="277.048" x="56.12" y="24.84"/>
  </clipPath>
 </defs>
</svg>
