<?xml version="1.0" encoding="utf-8" standalone="no"?>
<!DOCTYPE svg PUBLIC "-//W3C//DTD SVG 1.1//EN"
  "http://www.w3.org/Graphics/SVG/1.1/DTD/svg11.dtd">
<!-- Created with matplotlib (http://matplotlib.org/) -->
<svg height="345pt" version="1.1" viewBox="0 0 460 345" width="460pt" xmlns="http://www.w3.org/2000/svg" xmlns:xlink="http://www.w3.org/1999/xlink">
 <defs>
  <style type="text/css">
*{stroke-linecap:butt;stroke-linejoin:round;}
  </style>
 </defs>
 <g id="figure_1">
  <g id="patch_1">
   <path d="M 0 345.6 
L 460.8 345.6 
L 460.8 0 
L 0 0 
z
" style="fill:#ffffff;"/>
  </g>
  <g id="axes_1">
   <g id="patch_2">
    <path d="M 56.12 294.88 
L 333.168 294.88 
L 333.168 24.84 
L 56.12 24.84 
z
" style="fill:#ffffff;"/>
   </g>
   <g id="line2d_1">
    <path d="M 37.236359 294.88 
L 37.236359 273.910091 
L 56.12 273.910091 
L 56.12 268.667614 
L 68.034251 268.667614 
L 68.034251 263.425137 
L 82.598142 263.425137 
L 82.598142 258.18266 
L 91.131212 258.18266 
L 91.131212 252.940182 
L 101.067579 252.940182 
L 101.067579 247.697705 
L 125.207666 247.697705 
L 125.207666 242.455228 
L 126.873966 242.455228 
L 126.873966 237.212751 
L 138.553074 237.212751 
L 138.553074 231.970274 
L 139.96165 231.970274 
L 139.96165 226.727797 
L 141.182408 226.727797 
L 141.182408 221.485319 
L 141.222995 221.485319 
L 141.222995 216.242842 
L 141.263487 216.242842 
L 141.263487 211.000365 
L 141.623681 211.000365 
L 141.623681 205.757888 
L 141.66324 205.757888 
L 141.66324 200.515411 
L 141.702709 200.515411 
L 141.702709 195.272933 
L 141.742087 195.272933 
L 141.742087 190.030456 
L 141.820574 190.030456 
L 141.820574 184.787979 
L 142.284116 184.787979 
L 142.284116 179.545502 
L 142.360172 179.545502 
L 142.360172 174.303025 
L 142.473629 174.303025 
L 142.473629 163.81807 
L 142.548853 163.81807 
L 142.548853 158.575593 
L 142.661075 158.575593 
L 142.661075 148.090639 
L 142.69832 148.090639 
L 142.69832 142.848162 
L 142.772569 142.848162 
L 142.772569 137.605684 
L 142.809574 137.605684 
L 142.809574 132.363207 
L 142.846499 132.363207 
L 142.846499 127.12073 
L 142.883345 127.12073 
L 142.883345 116.635776 
L 142.920112 116.635776 
L 142.920112 111.393298 
L 142.956801 111.393298 
L 142.956801 106.150821 
L 143.102777 106.150821 
L 143.102777 100.908344 
L 143.139078 100.908344 
L 143.139078 90.42339 
L 143.211452 90.42339 
L 143.211452 85.180912 
L 143.283522 85.180912 
L 143.283522 74.695958 
L 143.319443 74.695958 
L 143.319443 69.453481 
L 143.35529 69.453481 
L 143.35529 64.211004 
L 143.391063 64.211004 
L 143.391063 58.968526 
L 143.426761 58.968526 
L 143.426761 48.483572 
L 143.462385 48.483572 
L 143.462385 43.241095 
L 143.533413 43.241095 
L 143.533413 37.998618 
L 143.568817 37.998618 
L 143.568817 32.756141 
L 145.757607 32.756141 
L 145.757607 27.513663 
L 333.168 27.513663 
" style="fill:none;stroke:#f5deb3;stroke-linecap:square;stroke-width:4;"/>
   </g>
   <g id="line2d_2">
    <defs>
     <path d="M -0 7.778175 
L 7.778175 0 
L 0 -7.778175 
L -7.778175 -0 
z
" id="m70943b16e1" style="stroke:#f5deb3;stroke-linejoin:miter;stroke-width:1.5;"/>
    </defs>
    <g>
     <use style="fill:#f5deb3;stroke:#f5deb3;stroke-linejoin:miter;stroke-width:1.5;" x="141.623681" xlink:href="#m70943b16e1" y="205.757888"/>
     <use style="fill:#f5deb3;stroke:#f5deb3;stroke-linejoin:miter;stroke-width:1.5;" x="142.883345" xlink:href="#m70943b16e1" y="116.635776"/>
     <use style="fill:#f5deb3;stroke:#f5deb3;stroke-linejoin:miter;stroke-width:1.5;" x="145.757607" xlink:href="#m70943b16e1" y="32.756141"/>
     <use style="fill:#f5deb3;stroke:#f5deb3;stroke-linejoin:miter;stroke-width:1.5;" x="145.757607" xlink:href="#m70943b16e1" y="27.513663"/>
     <use style="fill:#f5deb3;stroke:#f5deb3;stroke-linejoin:miter;stroke-width:1.5;" x="145.757607" xlink:href="#m70943b16e1" y="27.513663"/>
     <use style="fill:#f5deb3;stroke:#f5deb3;stroke-linejoin:miter;stroke-width:1.5;" x="333.168" xlink:href="#m70943b16e1" y="27.513663"/>
    </g>
   </g>
   <g id="line2d_3">
    <path style="fill:none;stroke:#f5deb3;stroke-linecap:square;stroke-width:4;"/>
    <g/>
   </g>
   <g id="line2d_4">
    <path d="M 333.168 27.513663 
L 363.64328 32.86099 
" style="fill:none;stroke:#f5deb3;stroke-linecap:square;stroke-width:4;"/>
    <g>
     <use style="fill:#f5deb3;stroke:#f5deb3;stroke-linejoin:miter;stroke-width:1.5;" x="333.168" xlink:href="#m70943b16e1" y="27.513663"/>
     <use style="fill:#f5deb3;stroke:#f5deb3;stroke-linejoin:miter;stroke-width:1.5;" x="363.64328" xlink:href="#m70943b16e1" y="32.86099"/>
    </g>
   </g>
   <g id="matplotlib.axis_1">
    <g id="xtick_1">
     <g id="line2d_5">
      <path clip-path="url(#p33fed648c2)" d="M 56.12 294.88 
L 56.12 24.84 
" style="fill:none;stroke:#b0b0b0;stroke-linecap:square;stroke-width:0.8;"/>
     </g>
     <g id="line2d_6">
      <defs>
       <path d="M 0 0 
L 0 3.5 
" id="mba18de89c8" style="stroke:#000000;stroke-width:0.8;"/>
      </defs>
      <g>
       <use style="stroke:#000000;stroke-width:0.8;" x="56.12" xlink:href="#mba18de89c8" y="294.88"/>
      </g>
     </g>
     <g id="text_1">
      <!-- 0 -->
      <defs>
       <path d="M 31.78125 66.40625 
Q 24.171875 66.40625 20.328125 58.90625 
Q 16.5 51.421875 16.5 36.375 
Q 16.5 21.390625 20.328125 13.890625 
Q 24.171875 6.390625 31.78125 6.390625 
Q 39.453125 6.390625 43.28125 13.890625 
Q 47.125 21.390625 47.125 36.375 
Q 47.125 51.421875 43.28125 58.90625 
Q 39.453125 66.40625 31.78125 66.40625 
z
M 31.78125 74.21875 
Q 44.046875 74.21875 50.515625 64.515625 
Q 56.984375 54.828125 56.984375 36.375 
Q 56.984375 17.96875 50.515625 8.265625 
Q 44.046875 -1.421875 31.78125 -1.421875 
Q 19.53125 -1.421875 13.0625 8.265625 
Q 6.59375 17.96875 6.59375 36.375 
Q 6.59375 54.828125 13.0625 64.515625 
Q 19.53125 74.21875 31.78125 74.21875 
z
" id="DejaVuSans-30"/>
      </defs>
      <g transform="translate(49.7575 317.076875)scale(0.2 -0.2)">
       <use xlink:href="#DejaVuSans-30"/>
      </g>
     </g>
    </g>
    <g id="xtick_2">
     <g id="line2d_7">
      <path clip-path="url(#p33fed648c2)" d="M 135.276571 294.88 
L 135.276571 24.84 
" style="fill:none;stroke:#b0b0b0;stroke-linecap:square;stroke-width:0.8;"/>
     </g>
     <g id="line2d_8">
      <g>
       <use style="stroke:#000000;stroke-width:0.8;" x="135.276571" xlink:href="#mba18de89c8" y="294.88"/>
      </g>
     </g>
     <g id="text_2">
      <!-- 2 -->
      <defs>
       <path d="M 19.1875 8.296875 
L 53.609375 8.296875 
L 53.609375 0 
L 7.328125 0 
L 7.328125 8.296875 
Q 12.9375 14.109375 22.625 23.890625 
Q 32.328125 33.6875 34.8125 36.53125 
Q 39.546875 41.84375 41.421875 45.53125 
Q 43.3125 49.21875 43.3125 52.78125 
Q 43.3125 58.59375 39.234375 62.25 
Q 35.15625 65.921875 28.609375 65.921875 
Q 23.96875 65.921875 18.8125 64.3125 
Q 13.671875 62.703125 7.8125 59.421875 
L 7.8125 69.390625 
Q 13.765625 71.78125 18.9375 73 
Q 24.125 74.21875 28.421875 74.21875 
Q 39.75 74.21875 46.484375 68.546875 
Q 53.21875 62.890625 53.21875 53.421875 
Q 53.21875 48.921875 51.53125 44.890625 
Q 49.859375 40.875 45.40625 35.40625 
Q 44.1875 33.984375 37.640625 27.21875 
Q 31.109375 20.453125 19.1875 8.296875 
z
" id="DejaVuSans-32"/>
      </defs>
      <g transform="translate(128.914071 317.076875)scale(0.2 -0.2)">
       <use xlink:href="#DejaVuSans-32"/>
      </g>
     </g>
    </g>
    <g id="xtick_3">
     <g id="line2d_9">
      <path clip-path="url(#p33fed648c2)" d="M 214.433143 294.88 
L 214.433143 24.84 
" style="fill:none;stroke:#b0b0b0;stroke-linecap:square;stroke-width:0.8;"/>
     </g>
     <g id="line2d_10">
      <g>
       <use style="stroke:#000000;stroke-width:0.8;" x="214.433143" xlink:href="#mba18de89c8" y="294.88"/>
      </g>
     </g>
     <g id="text_3">
      <!-- 4 -->
      <defs>
       <path d="M 37.796875 64.3125 
L 12.890625 25.390625 
L 37.796875 25.390625 
z
M 35.203125 72.90625 
L 47.609375 72.90625 
L 47.609375 25.390625 
L 58.015625 25.390625 
L 58.015625 17.1875 
L 47.609375 17.1875 
L 47.609375 0 
L 37.796875 0 
L 37.796875 17.1875 
L 4.890625 17.1875 
L 4.890625 26.703125 
z
" id="DejaVuSans-34"/>
      </defs>
      <g transform="translate(208.070643 317.076875)scale(0.2 -0.2)">
       <use xlink:href="#DejaVuSans-34"/>
      </g>
     </g>
    </g>
    <g id="xtick_4">
     <g id="line2d_11">
      <path clip-path="url(#p33fed648c2)" d="M 293.589714 294.88 
L 293.589714 24.84 
" style="fill:none;stroke:#b0b0b0;stroke-linecap:square;stroke-width:0.8;"/>
     </g>
     <g id="line2d_12">
      <g>
       <use style="stroke:#000000;stroke-width:0.8;" x="293.589714" xlink:href="#mba18de89c8" y="294.88"/>
      </g>
     </g>
     <g id="text_4">
      <!-- 6 -->
      <defs>
       <path d="M 33.015625 40.375 
Q 26.375 40.375 22.484375 35.828125 
Q 18.609375 31.296875 18.609375 23.390625 
Q 18.609375 15.53125 22.484375 10.953125 
Q 26.375 6.390625 33.015625 6.390625 
Q 39.65625 6.390625 43.53125 10.953125 
Q 47.40625 15.53125 47.40625 23.390625 
Q 47.40625 31.296875 43.53125 35.828125 
Q 39.65625 40.375 33.015625 40.375 
z
M 52.59375 71.296875 
L 52.59375 62.3125 
Q 48.875 64.0625 45.09375 64.984375 
Q 41.3125 65.921875 37.59375 65.921875 
Q 27.828125 65.921875 22.671875 59.328125 
Q 17.53125 52.734375 16.796875 39.40625 
Q 19.671875 43.65625 24.015625 45.921875 
Q 28.375 48.1875 33.59375 48.1875 
Q 44.578125 48.1875 50.953125 41.515625 
Q 57.328125 34.859375 57.328125 23.390625 
Q 57.328125 12.15625 50.6875 5.359375 
Q 44.046875 -1.421875 33.015625 -1.421875 
Q 20.359375 -1.421875 13.671875 8.265625 
Q 6.984375 17.96875 6.984375 36.375 
Q 6.984375 53.65625 15.1875 63.9375 
Q 23.390625 74.21875 37.203125 74.21875 
Q 40.921875 74.21875 44.703125 73.484375 
Q 48.484375 72.75 52.59375 71.296875 
z
" id="DejaVuSans-36"/>
      </defs>
      <g transform="translate(287.227214 317.076875)scale(0.2 -0.2)">
       <use xlink:href="#DejaVuSans-36"/>
      </g>
     </g>
    </g>
    <g id="xtick_5">
     <g id="line2d_13">
      <path clip-path="url(#p33fed648c2)" d="M 56.12 294.88 
L 56.12 24.84 
" style="fill:none;stroke:#b0b0b0;stroke-linecap:square;stroke-width:0.8;"/>
     </g>
     <g id="line2d_14">
      <defs>
       <path d="M 0 0 
L 0 2 
" id="m9b1c91e26a" style="stroke:#000000;stroke-width:0.6;"/>
      </defs>
      <g>
       <use style="stroke:#000000;stroke-width:0.6;" x="56.12" xlink:href="#m9b1c91e26a" y="294.88"/>
      </g>
     </g>
    </g>
    <g id="xtick_6">
     <g id="line2d_15">
      <path clip-path="url(#p33fed648c2)" d="M 95.698286 294.88 
L 95.698286 24.84 
" style="fill:none;stroke:#b0b0b0;stroke-linecap:square;stroke-width:0.8;"/>
     </g>
     <g id="line2d_16">
      <g>
       <use style="stroke:#000000;stroke-width:0.6;" x="95.698286" xlink:href="#m9b1c91e26a" y="294.88"/>
      </g>
     </g>
    </g>
    <g id="xtick_7">
     <g id="line2d_17">
      <path clip-path="url(#p33fed648c2)" d="M 135.276571 294.88 
L 135.276571 24.84 
" style="fill:none;stroke:#b0b0b0;stroke-linecap:square;stroke-width:0.8;"/>
     </g>
     <g id="line2d_18">
      <g>
       <use style="stroke:#000000;stroke-width:0.6;" x="135.276571" xlink:href="#m9b1c91e26a" y="294.88"/>
      </g>
     </g>
    </g>
    <g id="xtick_8">
     <g id="line2d_19">
      <path clip-path="url(#p33fed648c2)" d="M 174.854857 294.88 
L 174.854857 24.84 
" style="fill:none;stroke:#b0b0b0;stroke-linecap:square;stroke-width:0.8;"/>
     </g>
     <g id="line2d_20">
      <g>
       <use style="stroke:#000000;stroke-width:0.6;" x="174.854857" xlink:href="#m9b1c91e26a" y="294.88"/>
      </g>
     </g>
    </g>
    <g id="xtick_9">
     <g id="line2d_21">
      <path clip-path="url(#p33fed648c2)" d="M 214.433143 294.88 
L 214.433143 24.84 
" style="fill:none;stroke:#b0b0b0;stroke-linecap:square;stroke-width:0.8;"/>
     </g>
     <g id="line2d_22">
      <g>
       <use style="stroke:#000000;stroke-width:0.6;" x="214.433143" xlink:href="#m9b1c91e26a" y="294.88"/>
      </g>
     </g>
    </g>
    <g id="xtick_10">
     <g id="line2d_23">
      <path clip-path="url(#p33fed648c2)" d="M 254.011429 294.88 
L 254.011429 24.84 
" style="fill:none;stroke:#b0b0b0;stroke-linecap:square;stroke-width:0.8;"/>
     </g>
     <g id="line2d_24">
      <g>
       <use style="stroke:#000000;stroke-width:0.6;" x="254.011429" xlink:href="#m9b1c91e26a" y="294.88"/>
      </g>
     </g>
    </g>
    <g id="xtick_11">
     <g id="line2d_25">
      <path clip-path="url(#p33fed648c2)" d="M 293.589714 294.88 
L 293.589714 24.84 
" style="fill:none;stroke:#b0b0b0;stroke-linecap:square;stroke-width:0.8;"/>
     </g>
     <g id="line2d_26">
      <g>
       <use style="stroke:#000000;stroke-width:0.6;" x="293.589714" xlink:href="#m9b1c91e26a" y="294.88"/>
      </g>
     </g>
    </g>
    <g id="xtick_12">
     <g id="line2d_27">
      <path clip-path="url(#p33fed648c2)" d="M 333.168 294.88 
L 333.168 24.84 
" style="fill:none;stroke:#b0b0b0;stroke-linecap:square;stroke-width:0.8;"/>
     </g>
     <g id="line2d_28">
      <g>
       <use style="stroke:#000000;stroke-width:0.6;" x="333.168" xlink:href="#m9b1c91e26a" y="294.88"/>
      </g>
     </g>
    </g>
    <g id="text_5">
     <!-- log10(# f-evals / dimension) -->
     <defs>
      <path d="M 9.421875 75.984375 
L 18.40625 75.984375 
L 18.40625 0 
L 9.421875 0 
z
" id="DejaVuSans-6c"/>
      <path d="M 30.609375 48.390625 
Q 23.390625 48.390625 19.1875 42.75 
Q 14.984375 37.109375 14.984375 27.296875 
Q 14.984375 17.484375 19.15625 11.84375 
Q 23.34375 6.203125 30.609375 6.203125 
Q 37.796875 6.203125 41.984375 11.859375 
Q 46.1875 17.53125 46.1875 27.296875 
Q 46.1875 37.015625 41.984375 42.703125 
Q 37.796875 48.390625 30.609375 48.390625 
z
M 30.609375 56 
Q 42.328125 56 49.015625 48.375 
Q 55.71875 40.765625 55.71875 27.296875 
Q 55.71875 13.875 49.015625 6.21875 
Q 42.328125 -1.421875 30.609375 -1.421875 
Q 18.84375 -1.421875 12.171875 6.21875 
Q 5.515625 13.875 5.515625 27.296875 
Q 5.515625 40.765625 12.171875 48.375 
Q 18.84375 56 30.609375 56 
z
" id="DejaVuSans-6f"/>
      <path d="M 45.40625 27.984375 
Q 45.40625 37.75 41.375 43.109375 
Q 37.359375 48.484375 30.078125 48.484375 
Q 22.859375 48.484375 18.828125 43.109375 
Q 14.796875 37.75 14.796875 27.984375 
Q 14.796875 18.265625 18.828125 12.890625 
Q 22.859375 7.515625 30.078125 7.515625 
Q 37.359375 7.515625 41.375 12.890625 
Q 45.40625 18.265625 45.40625 27.984375 
z
M 54.390625 6.78125 
Q 54.390625 -7.171875 48.1875 -13.984375 
Q 42 -20.796875 29.203125 -20.796875 
Q 24.46875 -20.796875 20.265625 -20.09375 
Q 16.0625 -19.390625 12.109375 -17.921875 
L 12.109375 -9.1875 
Q 16.0625 -11.328125 19.921875 -12.34375 
Q 23.78125 -13.375 27.78125 -13.375 
Q 36.625 -13.375 41.015625 -8.765625 
Q 45.40625 -4.15625 45.40625 5.171875 
L 45.40625 9.625 
Q 42.625 4.78125 38.28125 2.390625 
Q 33.9375 0 27.875 0 
Q 17.828125 0 11.671875 7.65625 
Q 5.515625 15.328125 5.515625 27.984375 
Q 5.515625 40.671875 11.671875 48.328125 
Q 17.828125 56 27.875 56 
Q 33.9375 56 38.28125 53.609375 
Q 42.625 51.21875 45.40625 46.390625 
L 45.40625 54.6875 
L 54.390625 54.6875 
z
" id="DejaVuSans-67"/>
      <path d="M 12.40625 8.296875 
L 28.515625 8.296875 
L 28.515625 63.921875 
L 10.984375 60.40625 
L 10.984375 69.390625 
L 28.421875 72.90625 
L 38.28125 72.90625 
L 38.28125 8.296875 
L 54.390625 8.296875 
L 54.390625 0 
L 12.40625 0 
z
" id="DejaVuSans-31"/>
      <path d="M 31 75.875 
Q 24.46875 64.65625 21.28125 53.65625 
Q 18.109375 42.671875 18.109375 31.390625 
Q 18.109375 20.125 21.3125 9.0625 
Q 24.515625 -2 31 -13.1875 
L 23.1875 -13.1875 
Q 15.875 -1.703125 12.234375 9.375 
Q 8.59375 20.453125 8.59375 31.390625 
Q 8.59375 42.28125 12.203125 53.3125 
Q 15.828125 64.359375 23.1875 75.875 
z
" id="DejaVuSans-28"/>
      <path d="M 51.125 44 
L 36.921875 44 
L 32.8125 27.6875 
L 47.125 27.6875 
z
M 43.796875 71.78125 
L 38.71875 51.515625 
L 52.984375 51.515625 
L 58.109375 71.78125 
L 65.921875 71.78125 
L 60.890625 51.515625 
L 76.125 51.515625 
L 76.125 44 
L 58.984375 44 
L 54.984375 27.6875 
L 70.515625 27.6875 
L 70.515625 20.21875 
L 53.078125 20.21875 
L 48 0 
L 40.1875 0 
L 45.21875 20.21875 
L 30.90625 20.21875 
L 25.875 0 
L 18.015625 0 
L 23.09375 20.21875 
L 7.71875 20.21875 
L 7.71875 27.6875 
L 24.90625 27.6875 
L 29 44 
L 13.28125 44 
L 13.28125 51.515625 
L 30.90625 51.515625 
L 35.890625 71.78125 
z
" id="DejaVuSans-23"/>
      <path id="DejaVuSans-20"/>
      <path d="M 37.109375 75.984375 
L 37.109375 68.5 
L 28.515625 68.5 
Q 23.6875 68.5 21.796875 66.546875 
Q 19.921875 64.59375 19.921875 59.515625 
L 19.921875 54.6875 
L 34.71875 54.6875 
L 34.71875 47.703125 
L 19.921875 47.703125 
L 19.921875 0 
L 10.890625 0 
L 10.890625 47.703125 
L 2.296875 47.703125 
L 2.296875 54.6875 
L 10.890625 54.6875 
L 10.890625 58.5 
Q 10.890625 67.625 15.140625 71.796875 
Q 19.390625 75.984375 28.609375 75.984375 
z
" id="DejaVuSans-66"/>
      <path d="M 4.890625 31.390625 
L 31.203125 31.390625 
L 31.203125 23.390625 
L 4.890625 23.390625 
z
" id="DejaVuSans-2d"/>
      <path d="M 56.203125 29.59375 
L 56.203125 25.203125 
L 14.890625 25.203125 
Q 15.484375 15.921875 20.484375 11.0625 
Q 25.484375 6.203125 34.421875 6.203125 
Q 39.59375 6.203125 44.453125 7.46875 
Q 49.3125 8.734375 54.109375 11.28125 
L 54.109375 2.78125 
Q 49.265625 0.734375 44.1875 -0.34375 
Q 39.109375 -1.421875 33.890625 -1.421875 
Q 20.796875 -1.421875 13.15625 6.1875 
Q 5.515625 13.8125 5.515625 26.8125 
Q 5.515625 40.234375 12.765625 48.109375 
Q 20.015625 56 32.328125 56 
Q 43.359375 56 49.78125 48.890625 
Q 56.203125 41.796875 56.203125 29.59375 
z
M 47.21875 32.234375 
Q 47.125 39.59375 43.09375 43.984375 
Q 39.0625 48.390625 32.421875 48.390625 
Q 24.90625 48.390625 20.390625 44.140625 
Q 15.875 39.890625 15.1875 32.171875 
z
" id="DejaVuSans-65"/>
      <path d="M 2.984375 54.6875 
L 12.5 54.6875 
L 29.59375 8.796875 
L 46.6875 54.6875 
L 56.203125 54.6875 
L 35.6875 0 
L 23.484375 0 
z
" id="DejaVuSans-76"/>
      <path d="M 34.28125 27.484375 
Q 23.390625 27.484375 19.1875 25 
Q 14.984375 22.515625 14.984375 16.5 
Q 14.984375 11.71875 18.140625 8.90625 
Q 21.296875 6.109375 26.703125 6.109375 
Q 34.1875 6.109375 38.703125 11.40625 
Q 43.21875 16.703125 43.21875 25.484375 
L 43.21875 27.484375 
z
M 52.203125 31.203125 
L 52.203125 0 
L 43.21875 0 
L 43.21875 8.296875 
Q 40.140625 3.328125 35.546875 0.953125 
Q 30.953125 -1.421875 24.3125 -1.421875 
Q 15.921875 -1.421875 10.953125 3.296875 
Q 6 8.015625 6 15.921875 
Q 6 25.140625 12.171875 29.828125 
Q 18.359375 34.515625 30.609375 34.515625 
L 43.21875 34.515625 
L 43.21875 35.40625 
Q 43.21875 41.609375 39.140625 45 
Q 35.0625 48.390625 27.6875 48.390625 
Q 23 48.390625 18.546875 47.265625 
Q 14.109375 46.140625 10.015625 43.890625 
L 10.015625 52.203125 
Q 14.9375 54.109375 19.578125 55.046875 
Q 24.21875 56 28.609375 56 
Q 40.484375 56 46.34375 49.84375 
Q 52.203125 43.703125 52.203125 31.203125 
z
" id="DejaVuSans-61"/>
      <path d="M 44.28125 53.078125 
L 44.28125 44.578125 
Q 40.484375 46.53125 36.375 47.5 
Q 32.28125 48.484375 27.875 48.484375 
Q 21.1875 48.484375 17.84375 46.4375 
Q 14.5 44.390625 14.5 40.28125 
Q 14.5 37.15625 16.890625 35.375 
Q 19.28125 33.59375 26.515625 31.984375 
L 29.59375 31.296875 
Q 39.15625 29.25 43.1875 25.515625 
Q 47.21875 21.78125 47.21875 15.09375 
Q 47.21875 7.46875 41.1875 3.015625 
Q 35.15625 -1.421875 24.609375 -1.421875 
Q 20.21875 -1.421875 15.453125 -0.5625 
Q 10.6875 0.296875 5.421875 2 
L 5.421875 11.28125 
Q 10.40625 8.6875 15.234375 7.390625 
Q 20.0625 6.109375 24.8125 6.109375 
Q 31.15625 6.109375 34.5625 8.28125 
Q 37.984375 10.453125 37.984375 14.40625 
Q 37.984375 18.0625 35.515625 20.015625 
Q 33.0625 21.96875 24.703125 23.78125 
L 21.578125 24.515625 
Q 13.234375 26.265625 9.515625 29.90625 
Q 5.8125 33.546875 5.8125 39.890625 
Q 5.8125 47.609375 11.28125 51.796875 
Q 16.75 56 26.8125 56 
Q 31.78125 56 36.171875 55.265625 
Q 40.578125 54.546875 44.28125 53.078125 
z
" id="DejaVuSans-73"/>
      <path d="M 25.390625 72.90625 
L 33.6875 72.90625 
L 8.296875 -9.28125 
L 0 -9.28125 
z
" id="DejaVuSans-2f"/>
      <path d="M 45.40625 46.390625 
L 45.40625 75.984375 
L 54.390625 75.984375 
L 54.390625 0 
L 45.40625 0 
L 45.40625 8.203125 
Q 42.578125 3.328125 38.25 0.953125 
Q 33.9375 -1.421875 27.875 -1.421875 
Q 17.96875 -1.421875 11.734375 6.484375 
Q 5.515625 14.40625 5.515625 27.296875 
Q 5.515625 40.1875 11.734375 48.09375 
Q 17.96875 56 27.875 56 
Q 33.9375 56 38.25 53.625 
Q 42.578125 51.265625 45.40625 46.390625 
z
M 14.796875 27.296875 
Q 14.796875 17.390625 18.875 11.75 
Q 22.953125 6.109375 30.078125 6.109375 
Q 37.203125 6.109375 41.296875 11.75 
Q 45.40625 17.390625 45.40625 27.296875 
Q 45.40625 37.203125 41.296875 42.84375 
Q 37.203125 48.484375 30.078125 48.484375 
Q 22.953125 48.484375 18.875 42.84375 
Q 14.796875 37.203125 14.796875 27.296875 
z
" id="DejaVuSans-64"/>
      <path d="M 9.421875 54.6875 
L 18.40625 54.6875 
L 18.40625 0 
L 9.421875 0 
z
M 9.421875 75.984375 
L 18.40625 75.984375 
L 18.40625 64.59375 
L 9.421875 64.59375 
z
" id="DejaVuSans-69"/>
      <path d="M 52 44.1875 
Q 55.375 50.25 60.0625 53.125 
Q 64.75 56 71.09375 56 
Q 79.640625 56 84.28125 50.015625 
Q 88.921875 44.046875 88.921875 33.015625 
L 88.921875 0 
L 79.890625 0 
L 79.890625 32.71875 
Q 79.890625 40.578125 77.09375 44.375 
Q 74.3125 48.1875 68.609375 48.1875 
Q 61.625 48.1875 57.5625 43.546875 
Q 53.515625 38.921875 53.515625 30.90625 
L 53.515625 0 
L 44.484375 0 
L 44.484375 32.71875 
Q 44.484375 40.625 41.703125 44.40625 
Q 38.921875 48.1875 33.109375 48.1875 
Q 26.21875 48.1875 22.15625 43.53125 
Q 18.109375 38.875 18.109375 30.90625 
L 18.109375 0 
L 9.078125 0 
L 9.078125 54.6875 
L 18.109375 54.6875 
L 18.109375 46.1875 
Q 21.1875 51.21875 25.484375 53.609375 
Q 29.78125 56 35.6875 56 
Q 41.65625 56 45.828125 52.96875 
Q 50 49.953125 52 44.1875 
z
" id="DejaVuSans-6d"/>
      <path d="M 54.890625 33.015625 
L 54.890625 0 
L 45.90625 0 
L 45.90625 32.71875 
Q 45.90625 40.484375 42.875 44.328125 
Q 39.84375 48.1875 33.796875 48.1875 
Q 26.515625 48.1875 22.3125 43.546875 
Q 18.109375 38.921875 18.109375 30.90625 
L 18.109375 0 
L 9.078125 0 
L 9.078125 54.6875 
L 18.109375 54.6875 
L 18.109375 46.1875 
Q 21.34375 51.125 25.703125 53.5625 
Q 30.078125 56 35.796875 56 
Q 45.21875 56 50.046875 50.171875 
Q 54.890625 44.34375 54.890625 33.015625 
z
" id="DejaVuSans-6e"/>
      <path d="M 8.015625 75.875 
L 15.828125 75.875 
Q 23.140625 64.359375 26.78125 53.3125 
Q 30.421875 42.28125 30.421875 31.390625 
Q 30.421875 20.453125 26.78125 9.375 
Q 23.140625 -1.703125 15.828125 -13.1875 
L 8.015625 -13.1875 
Q 14.5 -2 17.703125 9.0625 
Q 20.90625 20.125 20.90625 31.390625 
Q 20.90625 42.671875 17.703125 53.65625 
Q 14.5 64.65625 8.015625 75.875 
z
" id="DejaVuSans-29"/>
     </defs>
     <g transform="translate(73.803219 338.153594)scale(0.17 -0.17)">
      <use xlink:href="#DejaVuSans-6c"/>
      <use x="27.783203" xlink:href="#DejaVuSans-6f"/>
      <use x="88.964844" xlink:href="#DejaVuSans-67"/>
      <use x="152.441406" xlink:href="#DejaVuSans-31"/>
      <use x="216.064453" xlink:href="#DejaVuSans-30"/>
      <use x="279.6875" xlink:href="#DejaVuSans-28"/>
      <use x="318.701172" xlink:href="#DejaVuSans-23"/>
      <use x="402.490234" xlink:href="#DejaVuSans-20"/>
      <use x="434.277344" xlink:href="#DejaVuSans-66"/>
      <use x="469.404297" xlink:href="#DejaVuSans-2d"/>
      <use x="505.488281" xlink:href="#DejaVuSans-65"/>
      <use x="567.011719" xlink:href="#DejaVuSans-76"/>
      <use x="626.191406" xlink:href="#DejaVuSans-61"/>
      <use x="687.470703" xlink:href="#DejaVuSans-6c"/>
      <use x="715.253906" xlink:href="#DejaVuSans-73"/>
      <use x="767.353516" xlink:href="#DejaVuSans-20"/>
      <use x="799.140625" xlink:href="#DejaVuSans-2f"/>
      <use x="832.832031" xlink:href="#DejaVuSans-20"/>
      <use x="864.619141" xlink:href="#DejaVuSans-64"/>
      <use x="928.095703" xlink:href="#DejaVuSans-69"/>
      <use x="955.878906" xlink:href="#DejaVuSans-6d"/>
      <use x="1053.291016" xlink:href="#DejaVuSans-65"/>
      <use x="1114.814453" xlink:href="#DejaVuSans-6e"/>
      <use x="1178.193359" xlink:href="#DejaVuSans-73"/>
      <use x="1230.292969" xlink:href="#DejaVuSans-69"/>
      <use x="1258.076172" xlink:href="#DejaVuSans-6f"/>
      <use x="1319.257812" xlink:href="#DejaVuSans-6e"/>
      <use x="1382.636719" xlink:href="#DejaVuSans-29"/>
     </g>
    </g>
   </g>
   <g id="matplotlib.axis_2">
    <g id="ytick_1">
     <g id="line2d_29">
      <path clip-path="url(#p33fed648c2)" d="M 56.12 294.88 
L 333.168 294.88 
" style="fill:none;stroke:#b0b0b0;stroke-linecap:square;stroke-width:0.8;"/>
     </g>
     <g id="line2d_30">
      <defs>
       <path d="M 0 0 
L -3.5 0 
" id="m5c0c760251" style="stroke:#000000;stroke-width:0.8;"/>
      </defs>
      <g>
       <use style="stroke:#000000;stroke-width:0.8;" x="56.12" xlink:href="#m5c0c760251" y="294.88"/>
      </g>
     </g>
     <g id="text_6">
      <!-- 0.0 -->
      <defs>
       <path d="M 10.6875 12.40625 
L 21 12.40625 
L 21 0 
L 10.6875 0 
z
" id="DejaVuSans-2e"/>
      </defs>
      <g transform="translate(23.675 300.95875)scale(0.16 -0.16)">
       <use xlink:href="#DejaVuSans-30"/>
       <use x="63.623047" xlink:href="#DejaVuSans-2e"/>
       <use x="95.410156" xlink:href="#DejaVuSans-30"/>
      </g>
     </g>
    </g>
    <g id="ytick_2">
     <g id="line2d_31">
      <path clip-path="url(#p33fed648c2)" d="M 56.12 241.406733 
L 333.168 241.406733 
" style="fill:none;stroke:#b0b0b0;stroke-linecap:square;stroke-width:0.8;"/>
     </g>
     <g id="line2d_32">
      <g>
       <use style="stroke:#000000;stroke-width:0.8;" x="56.12" xlink:href="#m5c0c760251" y="241.406733"/>
      </g>
     </g>
     <g id="text_7">
      <!-- 0.2 -->
      <g transform="translate(23.675 247.485483)scale(0.16 -0.16)">
       <use xlink:href="#DejaVuSans-30"/>
       <use x="63.623047" xlink:href="#DejaVuSans-2e"/>
       <use x="95.410156" xlink:href="#DejaVuSans-32"/>
      </g>
     </g>
    </g>
    <g id="ytick_3">
     <g id="line2d_33">
      <path clip-path="url(#p33fed648c2)" d="M 56.12 187.933465 
L 333.168 187.933465 
" style="fill:none;stroke:#b0b0b0;stroke-linecap:square;stroke-width:0.8;"/>
     </g>
     <g id="line2d_34">
      <g>
       <use style="stroke:#000000;stroke-width:0.8;" x="56.12" xlink:href="#m5c0c760251" y="187.933465"/>
      </g>
     </g>
     <g id="text_8">
      <!-- 0.4 -->
      <g transform="translate(23.675 194.012215)scale(0.16 -0.16)">
       <use xlink:href="#DejaVuSans-30"/>
       <use x="63.623047" xlink:href="#DejaVuSans-2e"/>
       <use x="95.410156" xlink:href="#DejaVuSans-34"/>
      </g>
     </g>
    </g>
    <g id="ytick_4">
     <g id="line2d_35">
      <path clip-path="url(#p33fed648c2)" d="M 56.12 134.460198 
L 333.168 134.460198 
" style="fill:none;stroke:#b0b0b0;stroke-linecap:square;stroke-width:0.8;"/>
     </g>
     <g id="line2d_36">
      <g>
       <use style="stroke:#000000;stroke-width:0.8;" x="56.12" xlink:href="#m5c0c760251" y="134.460198"/>
      </g>
     </g>
     <g id="text_9">
      <!-- 0.6 -->
      <g transform="translate(23.675 140.538948)scale(0.16 -0.16)">
       <use xlink:href="#DejaVuSans-30"/>
       <use x="63.623047" xlink:href="#DejaVuSans-2e"/>
       <use x="95.410156" xlink:href="#DejaVuSans-36"/>
      </g>
     </g>
    </g>
    <g id="ytick_5">
     <g id="line2d_37">
      <path clip-path="url(#p33fed648c2)" d="M 56.12 80.986931 
L 333.168 80.986931 
" style="fill:none;stroke:#b0b0b0;stroke-linecap:square;stroke-width:0.8;"/>
     </g>
     <g id="line2d_38">
      <g>
       <use style="stroke:#000000;stroke-width:0.8;" x="56.12" xlink:href="#m5c0c760251" y="80.986931"/>
      </g>
     </g>
     <g id="text_10">
      <!-- 0.8 -->
      <defs>
       <path d="M 31.78125 34.625 
Q 24.75 34.625 20.71875 30.859375 
Q 16.703125 27.09375 16.703125 20.515625 
Q 16.703125 13.921875 20.71875 10.15625 
Q 24.75 6.390625 31.78125 6.390625 
Q 38.8125 6.390625 42.859375 10.171875 
Q 46.921875 13.96875 46.921875 20.515625 
Q 46.921875 27.09375 42.890625 30.859375 
Q 38.875 34.625 31.78125 34.625 
z
M 21.921875 38.8125 
Q 15.578125 40.375 12.03125 44.71875 
Q 8.5 49.078125 8.5 55.328125 
Q 8.5 64.0625 14.71875 69.140625 
Q 20.953125 74.21875 31.78125 74.21875 
Q 42.671875 74.21875 48.875 69.140625 
Q 55.078125 64.0625 55.078125 55.328125 
Q 55.078125 49.078125 51.53125 44.71875 
Q 48 40.375 41.703125 38.8125 
Q 48.828125 37.15625 52.796875 32.3125 
Q 56.78125 27.484375 56.78125 20.515625 
Q 56.78125 9.90625 50.3125 4.234375 
Q 43.84375 -1.421875 31.78125 -1.421875 
Q 19.734375 -1.421875 13.25 4.234375 
Q 6.78125 9.90625 6.78125 20.515625 
Q 6.78125 27.484375 10.78125 32.3125 
Q 14.796875 37.15625 21.921875 38.8125 
z
M 18.3125 54.390625 
Q 18.3125 48.734375 21.84375 45.5625 
Q 25.390625 42.390625 31.78125 42.390625 
Q 38.140625 42.390625 41.71875 45.5625 
Q 45.3125 48.734375 45.3125 54.390625 
Q 45.3125 60.0625 41.71875 63.234375 
Q 38.140625 66.40625 31.78125 66.40625 
Q 25.390625 66.40625 21.84375 63.234375 
Q 18.3125 60.0625 18.3125 54.390625 
z
" id="DejaVuSans-38"/>
      </defs>
      <g transform="translate(23.675 87.065681)scale(0.16 -0.16)">
       <use xlink:href="#DejaVuSans-30"/>
       <use x="63.623047" xlink:href="#DejaVuSans-2e"/>
       <use x="95.410156" xlink:href="#DejaVuSans-38"/>
      </g>
     </g>
    </g>
    <g id="ytick_6">
     <g id="line2d_39">
      <path clip-path="url(#p33fed648c2)" d="M 56.12 27.513663 
L 333.168 27.513663 
" style="fill:none;stroke:#b0b0b0;stroke-linecap:square;stroke-width:0.8;"/>
     </g>
     <g id="line2d_40">
      <g>
       <use style="stroke:#000000;stroke-width:0.8;" x="56.12" xlink:href="#m5c0c760251" y="27.513663"/>
      </g>
     </g>
     <g id="text_11">
      <!-- 1.0 -->
      <g transform="translate(23.675 33.592413)scale(0.16 -0.16)">
       <use xlink:href="#DejaVuSans-31"/>
       <use x="63.623047" xlink:href="#DejaVuSans-2e"/>
       <use x="95.410156" xlink:href="#DejaVuSans-30"/>
      </g>
     </g>
    </g>
    <g id="text_12">
     <!-- Fraction of function,target pairs -->
     <defs>
      <path d="M 9.8125 72.90625 
L 51.703125 72.90625 
L 51.703125 64.59375 
L 19.671875 64.59375 
L 19.671875 43.109375 
L 48.578125 43.109375 
L 48.578125 34.8125 
L 19.671875 34.8125 
L 19.671875 0 
L 9.8125 0 
z
" id="DejaVuSans-46"/>
      <path d="M 41.109375 46.296875 
Q 39.59375 47.171875 37.8125 47.578125 
Q 36.03125 48 33.890625 48 
Q 26.265625 48 22.1875 43.046875 
Q 18.109375 38.09375 18.109375 28.8125 
L 18.109375 0 
L 9.078125 0 
L 9.078125 54.6875 
L 18.109375 54.6875 
L 18.109375 46.1875 
Q 20.953125 51.171875 25.484375 53.578125 
Q 30.03125 56 36.53125 56 
Q 37.453125 56 38.578125 55.875 
Q 39.703125 55.765625 41.0625 55.515625 
z
" id="DejaVuSans-72"/>
      <path d="M 48.78125 52.59375 
L 48.78125 44.1875 
Q 44.96875 46.296875 41.140625 47.34375 
Q 37.3125 48.390625 33.40625 48.390625 
Q 24.65625 48.390625 19.8125 42.84375 
Q 14.984375 37.3125 14.984375 27.296875 
Q 14.984375 17.28125 19.8125 11.734375 
Q 24.65625 6.203125 33.40625 6.203125 
Q 37.3125 6.203125 41.140625 7.25 
Q 44.96875 8.296875 48.78125 10.40625 
L 48.78125 2.09375 
Q 45.015625 0.34375 40.984375 -0.53125 
Q 36.96875 -1.421875 32.421875 -1.421875 
Q 20.0625 -1.421875 12.78125 6.34375 
Q 5.515625 14.109375 5.515625 27.296875 
Q 5.515625 40.671875 12.859375 48.328125 
Q 20.21875 56 33.015625 56 
Q 37.15625 56 41.109375 55.140625 
Q 45.0625 54.296875 48.78125 52.59375 
z
" id="DejaVuSans-63"/>
      <path d="M 18.3125 70.21875 
L 18.3125 54.6875 
L 36.8125 54.6875 
L 36.8125 47.703125 
L 18.3125 47.703125 
L 18.3125 18.015625 
Q 18.3125 11.328125 20.140625 9.421875 
Q 21.96875 7.515625 27.59375 7.515625 
L 36.8125 7.515625 
L 36.8125 0 
L 27.59375 0 
Q 17.1875 0 13.234375 3.875 
Q 9.28125 7.765625 9.28125 18.015625 
L 9.28125 47.703125 
L 2.6875 47.703125 
L 2.6875 54.6875 
L 9.28125 54.6875 
L 9.28125 70.21875 
z
" id="DejaVuSans-74"/>
      <path d="M 8.5 21.578125 
L 8.5 54.6875 
L 17.484375 54.6875 
L 17.484375 21.921875 
Q 17.484375 14.15625 20.5 10.265625 
Q 23.53125 6.390625 29.59375 6.390625 
Q 36.859375 6.390625 41.078125 11.03125 
Q 45.3125 15.671875 45.3125 23.6875 
L 45.3125 54.6875 
L 54.296875 54.6875 
L 54.296875 0 
L 45.3125 0 
L 45.3125 8.40625 
Q 42.046875 3.421875 37.71875 1 
Q 33.40625 -1.421875 27.6875 -1.421875 
Q 18.265625 -1.421875 13.375 4.4375 
Q 8.5 10.296875 8.5 21.578125 
z
M 31.109375 56 
z
" id="DejaVuSans-75"/>
      <path d="M 11.71875 12.40625 
L 22.015625 12.40625 
L 22.015625 4 
L 14.015625 -11.625 
L 7.71875 -11.625 
L 11.71875 4 
z
" id="DejaVuSans-2c"/>
      <path d="M 18.109375 8.203125 
L 18.109375 -20.796875 
L 9.078125 -20.796875 
L 9.078125 54.6875 
L 18.109375 54.6875 
L 18.109375 46.390625 
Q 20.953125 51.265625 25.265625 53.625 
Q 29.59375 56 35.59375 56 
Q 45.5625 56 51.78125 48.09375 
Q 58.015625 40.1875 58.015625 27.296875 
Q 58.015625 14.40625 51.78125 6.484375 
Q 45.5625 -1.421875 35.59375 -1.421875 
Q 29.59375 -1.421875 25.265625 0.953125 
Q 20.953125 3.328125 18.109375 8.203125 
z
M 48.6875 27.296875 
Q 48.6875 37.203125 44.609375 42.84375 
Q 40.53125 48.484375 33.40625 48.484375 
Q 26.265625 48.484375 22.1875 42.84375 
Q 18.109375 37.203125 18.109375 27.296875 
Q 18.109375 17.390625 22.1875 11.75 
Q 26.265625 6.109375 33.40625 6.109375 
Q 40.53125 6.109375 44.609375 11.75 
Q 48.6875 17.390625 48.6875 27.296875 
z
" id="DejaVuSans-70"/>
     </defs>
     <g transform="translate(16.139531 294.999375)rotate(-90)scale(0.17 -0.17)">
      <use xlink:href="#DejaVuSans-46"/>
      <use x="57.410156" xlink:href="#DejaVuSans-72"/>
      <use x="98.523438" xlink:href="#DejaVuSans-61"/>
      <use x="159.802734" xlink:href="#DejaVuSans-63"/>
      <use x="214.783203" xlink:href="#DejaVuSans-74"/>
      <use x="253.992188" xlink:href="#DejaVuSans-69"/>
      <use x="281.775391" xlink:href="#DejaVuSans-6f"/>
      <use x="342.957031" xlink:href="#DejaVuSans-6e"/>
      <use x="406.335938" xlink:href="#DejaVuSans-20"/>
      <use x="438.123047" xlink:href="#DejaVuSans-6f"/>
      <use x="499.304688" xlink:href="#DejaVuSans-66"/>
      <use x="534.509766" xlink:href="#DejaVuSans-20"/>
      <use x="566.296875" xlink:href="#DejaVuSans-66"/>
      <use x="601.501953" xlink:href="#DejaVuSans-75"/>
      <use x="664.880859" xlink:href="#DejaVuSans-6e"/>
      <use x="728.259766" xlink:href="#DejaVuSans-63"/>
      <use x="783.240234" xlink:href="#DejaVuSans-74"/>
      <use x="822.449219" xlink:href="#DejaVuSans-69"/>
      <use x="850.232422" xlink:href="#DejaVuSans-6f"/>
      <use x="911.414062" xlink:href="#DejaVuSans-6e"/>
      <use x="974.792969" xlink:href="#DejaVuSans-2c"/>
      <use x="1006.580078" xlink:href="#DejaVuSans-74"/>
      <use x="1045.789062" xlink:href="#DejaVuSans-61"/>
      <use x="1107.068359" xlink:href="#DejaVuSans-72"/>
      <use x="1148.166016" xlink:href="#DejaVuSans-67"/>
      <use x="1211.642578" xlink:href="#DejaVuSans-65"/>
      <use x="1273.166016" xlink:href="#DejaVuSans-74"/>
      <use x="1312.375" xlink:href="#DejaVuSans-20"/>
      <use x="1344.162109" xlink:href="#DejaVuSans-70"/>
      <use x="1407.638672" xlink:href="#DejaVuSans-61"/>
      <use x="1468.917969" xlink:href="#DejaVuSans-69"/>
      <use x="1496.701172" xlink:href="#DejaVuSans-72"/>
      <use x="1537.814453" xlink:href="#DejaVuSans-73"/>
     </g>
    </g>
   </g>
   <g id="line2d_41">
    <defs>
     <path d="M 0 1.5 
C 0.397805 1.5 0.77937 1.341951 1.06066 1.06066 
C 1.341951 0.77937 1.5 0.397805 1.5 0 
C 1.5 -0.397805 1.341951 -0.77937 1.06066 -1.06066 
C 0.77937 -1.341951 0.397805 -1.5 0 -1.5 
C -0.397805 -1.5 -0.77937 -1.341951 -1.06066 -1.06066 
C -1.341951 -0.77937 -1.5 -0.397805 -1.5 0 
C -1.5 0.397805 -1.341951 0.77937 -1.06066 1.06066 
C -0.77937 1.341951 -0.397805 1.5 0 1.5 
z
" id="m77b693e162" style="stroke:#f5deb3;"/>
    </defs>
    <g>
     <use style="fill:#f5deb3;stroke:#f5deb3;" x="145.757607" xlink:href="#m77b693e162" y="27.513663"/>
     <use style="fill:#f5deb3;stroke:#f5deb3;" x="145.757607" xlink:href="#m77b693e162" y="27.513663"/>
    </g>
   </g>
   <g id="line2d_42">
    <defs>
     <path d="M 0 1.5 
C 0.397805 1.5 0.77937 1.341951 1.06066 1.06066 
C 1.341951 0.77937 1.5 0.397805 1.5 0 
C 1.5 -0.397805 1.341951 -0.77937 1.06066 -1.06066 
C 0.77937 -1.341951 0.397805 -1.5 0 -1.5 
C -0.397805 -1.5 -0.77937 -1.341951 -1.06066 -1.06066 
C -1.341951 -0.77937 -1.5 -0.397805 -1.5 0 
C -1.5 0.397805 -1.341951 0.77937 -1.06066 1.06066 
C -0.77937 1.341951 -0.397805 1.5 0 1.5 
z
" id="m9a5fd3ed5f" style="stroke:#000080;"/>
    </defs>
    <g>
     <use style="fill:#000080;stroke:#000080;" x="201.634818" xlink:href="#m9a5fd3ed5f" y="27.513663"/>
     <use style="fill:#000080;stroke:#000080;" x="201.634818" xlink:href="#m9a5fd3ed5f" y="27.513663"/>
    </g>
   </g>
   <g id="line2d_43">
    <path d="M 37.236359 294.88 
L 37.236359 276.007082 
L 91.862754 276.007082 
L 91.862754 275.482834 
L 92.564428 275.482834 
L 92.564428 274.958587 
L 96.807615 274.958587 
L 96.807615 274.434339 
L 97.336537 274.434339 
L 97.336537 273.910091 
L 97.849669 273.910091 
L 97.849669 272.861596 
L 98.347925 272.861596 
L 98.347925 271.8131 
L 98.832144 271.8131 
L 98.832144 271.288853 
L 99.303095 271.288853 
L 99.303095 270.764605 
L 100.643147 270.764605 
L 100.643147 269.716109 
L 101.067579 269.716109 
L 101.067579 267.619119 
L 101.481783 267.619119 
L 101.481783 266.570623 
L 101.88624 266.570623 
L 101.88624 265.522128 
L 114.195649 265.522128 
L 114.195649 264.99788 
L 115.511269 264.99788 
L 115.511269 264.473632 
L 115.691256 264.473632 
L 115.691256 263.949385 
L 115.869378 263.949385 
L 115.869378 263.425137 
L 116.045673 263.425137 
L 116.045673 262.900889 
L 117.06708 262.900889 
L 117.06708 262.376641 
L 118.645127 262.376641 
L 118.645127 261.852394 
L 119.810904 261.852394 
L 119.810904 260.803898 
L 121.929105 260.803898 
L 121.929105 260.279651 
L 122.420242 260.279651 
L 122.420242 259.755403 
L 124.255437 259.755403 
L 124.363883 258.706907 
L 124.471649 258.706907 
L 124.471649 258.18266 
L 124.790952 258.18266 
L 124.790952 257.658412 
L 125.207666 257.658412 
L 125.310285 256.085669 
L 125.412295 256.085669 
L 125.412295 255.561421 
L 125.614517 255.561421 
L 125.614517 254.512926 
L 126.011959 254.512926 
L 126.109901 248.746201 
L 126.207287 248.746201 
L 126.207287 248.221953 
L 126.40042 248.221953 
L 126.496178 245.600714 
L 127.243628 245.600714 
L 127.243628 244.552219 
L 127.42552 244.552219 
L 127.515749 243.503724 
L 127.605507 243.503724 
L 127.605507 242.455228 
L 127.783629 242.455228 
L 127.872003 240.358237 
L 128.13443 240.358237 
L 128.221023 238.785494 
L 128.39291 238.785494 
L 128.39291 234.591512 
L 128.647561 234.591512 
L 128.647561 233.018769 
L 128.898495 233.018769 
L 128.898495 232.494521 
L 129.227474 232.494521 
L 129.227474 231.970274 
L 129.470141 231.970274 
L 129.550274 230.397531 
L 129.630036 230.397531 
L 129.630036 229.349035 
L 129.788458 229.349035 
L 129.788458 228.30054 
L 130.255146 228.30054 
L 130.255146 227.776292 
L 130.709498 227.776292 
L 130.709498 227.252044 
L 131.441039 227.252044 
L 131.441039 226.727797 
L 132.142713 226.727797 
L 132.142713 226.203549 
L 134.090678 226.203549 
L 134.090678 225.679301 
L 134.634477 225.679301 
L 134.634477 225.155053 
L 135.333772 225.155053 
L 135.333772 224.630806 
L 136.005725 224.630806 
L 136.005725 224.106558 
L 136.169688 224.106558 
L 136.169688 223.58231 
L 136.492995 223.58231 
L 136.492995 223.058063 
L 137.827708 223.058063 
L 137.827708 222.533815 
L 138.218376 222.533815 
L 138.218376 222.009567 
L 138.600361 222.009567 
L 138.600361 221.485319 
L 138.834862 221.485319 
L 138.927773 220.436824 
L 139.339771 220.436824 
L 139.339771 219.388328 
L 140.178407 219.388328 
L 140.221432 218.339833 
L 140.349866 218.339833 
L 140.349866 217.815585 
L 140.561812 217.815585 
L 140.561812 217.291338 
L 140.687737 217.291338 
L 140.687737 216.76709 
L 140.812746 216.76709 
L 140.812746 216.242842 
L 141.060069 216.242842 
L 141.060069 215.718594 
L 141.344185 215.718594 
L 141.384392 214.145851 
L 141.464526 214.145851 
L 141.544287 212.573108 
L 141.623681 212.573108 
L 141.623681 212.04886 
L 141.937637 212.04886 
L 142.015238 211.000365 
L 142.130987 211.000365 
L 142.169397 209.427622 
L 142.993411 209.427622 
L 142.993411 208.379126 
L 143.139078 208.379126 
L 143.175303 207.330631 
L 143.319443 207.330631 
L 143.391063 206.282136 
L 143.533413 206.282136 
L 143.533413 205.757888 
L 144.022553 205.757888 
L 144.022553 205.23364 
L 144.262 205.23364 
L 144.262 204.709392 
L 144.531632 204.709392 
L 144.631663 203.660897 
L 144.664877 203.660897 
L 144.764138 201.563906 
L 144.797098 201.563906 
L 144.797098 201.039658 
L 144.92831 201.039658 
L 145.026065 198.942667 
L 146.309161 198.942667 
L 146.309161 198.41842 
L 146.814308 198.41842 
L 146.814308 197.894172 
L 146.93104 197.894172 
L 146.93104 197.369924 
L 147.361855 197.369924 
L 147.41849 196.321429 
L 147.754435 196.321429 
L 147.754435 195.797181 
L 147.892497 195.797181 
L 147.919977 194.748686 
L 148.246353 194.748686 
L 148.353782 193.70019 
L 148.566647 193.70019 
L 148.619454 192.651695 
L 149.010418 192.651695 
L 149.010418 192.127447 
L 149.31691 192.127447 
L 149.31691 191.603199 
L 149.791281 191.603199 
L 149.840462 190.554704 
L 149.938403 190.554704 
L 150.035789 188.981961 
L 150.06005 188.981961 
L 150.06005 188.457713 
L 150.204899 188.457713 
L 150.252912 187.409218 
L 150.419909 187.409218 
L 150.490985 186.360722 
L 150.538207 186.360722 
L 150.585299 185.312227 
L 150.818844 185.312227 
L 150.842025 183.739484 
L 151.026355 183.739484 
L 151.117784 181.118245 
L 151.163317 181.118245 
L 151.163317 180.593997 
L 151.321738 180.593997 
L 151.321738 179.545502 
L 151.434009 179.545502 
L 151.501022 177.972759 
L 151.567774 177.972759 
L 151.567774 177.448511 
L 151.788427 177.448511 
L 151.810337 176.400016 
L 152.027918 176.400016 
L 152.027918 175.875768 
L 152.221413 175.875768 
L 152.327976 173.778777 
L 152.581065 173.778777 
L 152.581065 173.254529 
L 152.768465 173.254529 
L 152.789162 171.681786 
L 152.892274 171.681786 
L 152.97432 169.584795 
L 153.298643 169.584795 
L 153.398752 168.012052 
L 153.557723 168.012052 
L 153.557723 167.487804 
L 153.734826 167.487804 
L 153.734826 166.963557 
L 153.890733 166.963557 
L 153.890733 166.439309 
L 154.236437 166.439309 
L 154.293385 165.390813 
L 154.631164 165.390813 
L 154.631164 163.81807 
L 154.779183 163.81807 
L 154.797596 162.769575 
L 155.693974 162.769575 
L 155.798464 161.721079 
L 155.936804 161.721079 
L 156.039833 159.099841 
L 156.159258 159.099841 
L 156.260967 157.527098 
L 156.579129 157.527098 
L 156.579129 157.00285 
L 156.858892 157.00285 
L 156.956555 155.430107 
L 157.021357 155.430107 
L 157.069798 154.381611 
L 157.26221 154.381611 
L 157.341751 153.333116 
L 157.888459 153.333116 
L 157.919181 152.28462 
L 158.388472 152.28462 
L 158.462979 151.236125 
L 158.655198 151.236125 
L 158.72856 150.18763 
L 158.816182 150.18763 
L 158.816182 149.663382 
L 159.047683 149.663382 
L 159.119392 148.614886 
L 159.332741 148.614886 
L 159.332741 148.090639 
L 159.445454 148.090639 
L 159.445454 147.042143 
L 159.792992 147.042143 
L 159.792992 146.517896 
L 159.94371 146.517896 
L 159.957346 145.4694 
L 160.147128 145.4694 
L 160.147128 144.420905 
L 160.268033 144.420905 
L 160.294786 142.848162 
L 160.494115 142.848162 
L 160.58635 141.799666 
L 160.625729 141.799666 
L 160.730299 140.226923 
L 160.782346 140.226923 
L 160.88597 138.65418 
L 161.142331 138.65418 
L 161.142331 138.129932 
L 161.294331 138.129932 
L 161.382381 137.081437 
L 161.643858 137.081437 
L 161.742431 136.032941 
L 161.828221 136.032941 
L 161.828221 135.508693 
L 161.998527 135.508693 
L 162.071002 133.93595 
L 162.440665 133.93595 
L 162.452458 132.887455 
L 162.569947 132.887455 
L 162.569947 132.363207 
L 162.837164 132.363207 
L 162.837164 131.838959 
L 163.168273 131.838959 
L 163.168273 131.314712 
L 163.470918 131.314712 
L 163.493125 130.266216 
L 163.801055 130.266216 
L 163.877183 128.693473 
L 163.931355 128.693473 
L 163.931355 128.169225 
L 164.060674 128.169225 
L 164.060674 127.644978 
L 164.220967 127.644978 
L 164.220967 127.12073 
L 164.484845 127.12073 
L 164.578857 125.023739 
L 165.04136 125.023739 
L 165.04136 124.499491 
L 165.16262 124.499491 
L 165.16262 123.975244 
L 165.37279 123.975244 
L 165.412532 122.4025 
L 165.590245 122.4025 
L 165.649077 121.354005 
L 165.756415 121.354005 
L 165.756415 120.829757 
L 165.911355 120.829757 
L 165.988305 119.257014 
L 166.150689 119.257014 
L 166.254949 118.208519 
L 166.273837 118.208519 
L 166.35858 117.160023 
L 166.517519 117.160023 
L 166.563987 115.58728 
L 166.785303 115.58728 
L 166.785303 115.063032 
L 166.9131 115.063032 
L 167.021889 112.966042 
L 167.030924 112.966042 
L 167.030924 111.917546 
L 167.183793 111.917546 
L 167.183793 111.393298 
L 167.379626 111.393298 
L 167.379626 110.869051 
L 167.634407 110.869051 
L 167.669255 109.820555 
L 167.807944 109.820555 
L 167.894059 108.247812 
L 167.936956 108.247812 
L 168.013901 106.675069 
L 168.149847 106.675069 
L 168.259517 105.102326 
L 168.293122 105.102326 
L 168.293122 104.578078 
L 168.543082 104.578078 
L 168.650279 103.529583 
L 168.674922 103.529583 
L 168.732286 102.481087 
L 168.846443 102.481087 
L 168.935608 100.908344 
L 169.024313 100.908344 
L 169.096552 99.859849 
L 169.192399 99.859849 
L 169.279792 97.762858 
L 169.350967 97.762858 
L 169.350967 97.23861 
L 169.539337 97.23861 
L 169.539337 96.714362 
L 169.671528 96.714362 
L 169.671528 96.190115 
L 169.948151 96.190115 
L 170.031794 94.093124 
L 170.399519 94.093124 
L 170.510533 92.520381 
L 170.744994 92.520381 
L 170.824857 90.947637 
L 170.933166 90.947637 
L 171.004995 89.374894 
L 171.499564 89.374894 
L 171.499564 88.850646 
L 171.987072 88.850646 
L 172.061379 87.802151 
L 172.182285 87.802151 
L 172.182285 87.277903 
L 172.34218 87.277903 
L 172.34218 86.753656 
L 172.454546 86.753656 
L 172.546534 85.180912 
L 172.624991 85.180912 
L 172.624991 84.656665 
L 172.82603 84.656665 
L 172.916057 82.559674 
L 172.948095 82.559674 
L 172.948095 82.035426 
L 173.15174 82.035426 
L 173.252664 80.986931 
L 173.340489 80.986931 
L 173.340489 80.462683 
L 173.50861 80.462683 
L 173.545748 79.414188 
L 173.80349 79.414188 
L 173.80349 78.88994 
L 173.930926 78.88994 
L 173.930926 78.365692 
L 174.07542 78.365692 
L 174.171078 76.268701 
L 174.218709 76.268701 
L 174.301746 75.220206 
L 174.419679 75.220206 
L 174.437299 74.17171 
L 174.641546 74.17171 
L 174.65894 72.598967 
L 174.860586 72.598967 
L 174.951984 71.550472 
L 175.172754 71.550472 
L 175.228907 70.501976 
L 175.616929 70.501976 
L 175.616929 69.977729 
L 175.845606 69.977729 
L 175.845606 69.453481 
L 175.980293 69.453481 
L 175.980293 68.929233 
L 176.151166 68.929233 
L 176.156478 67.880738 
L 176.367644 67.880738 
L 176.367644 67.35649 
L 176.59179 67.35649 
L 176.607319 66.307995 
L 176.761848 66.307995 
L 176.761848 65.259499 
L 176.955611 65.259499 
L 176.955611 64.735251 
L 177.117103 64.735251 
L 177.117103 64.211004 
L 177.336705 64.211004 
L 177.420805 63.162508 
L 177.582894 63.162508 
L 177.582894 62.638261 
L 177.92174 62.638261 
L 177.926533 61.589765 
L 178.083943 61.589765 
L 178.164474 59.492774 
L 178.515323 59.492774 
L 178.515323 58.968526 
L 178.800046 58.968526 
L 178.850073 57.395783 
L 178.999284 57.395783 
L 178.999284 56.871536 
L 179.209586 56.871536 
L 179.222923 55.82304 
L 179.38216 55.82304 
L 179.42174 54.774545 
L 179.522476 54.774545 
L 179.522476 54.250297 
L 179.73514 54.250297 
L 179.773916 52.677554 
L 180.004754 52.677554 
L 180.004754 52.153306 
L 180.291097 52.153306 
L 180.291097 51.629058 
L 180.465603 51.629058 
L 180.552196 50.580563 
L 180.77694 50.580563 
L 180.77694 50.056315 
L 181.118594 50.056315 
L 181.154374 49.00782 
L 181.233621 49.00782 
L 181.233621 48.483572 
L 181.375352 48.483572 
L 181.449685 46.910829 
L 181.67463 46.910829 
L 181.766856 45.338086 
L 182.138394 45.338086 
L 182.175858 44.28959 
L 183.037112 44.28959 
L 183.037112 43.765343 
L 183.200072 43.765343 
L 183.203597 42.716847 
L 183.504118 42.716847 
L 183.604283 41.668352 
L 184.113261 41.668352 
L 184.113261 41.144104 
L 184.358912 41.144104 
L 184.358912 40.619856 
L 184.614096 40.619856 
L 184.614096 40.095609 
L 185.091277 40.095609 
L 185.091277 39.571361 
L 185.285998 39.571361 
L 185.285998 39.047113 
L 185.714695 39.047113 
L 185.754248 37.998618 
L 186.037567 37.998618 
L 186.037567 37.47437 
L 186.474389 37.47437 
L 186.474389 36.950122 
L 187.019377 36.950122 
L 187.033488 35.901627 
L 187.354885 35.901627 
L 187.354885 35.377379 
L 187.53666 35.377379 
L 187.607744 34.328884 
L 188.391727 34.328884 
L 188.391727 33.804636 
L 188.996157 33.804636 
L 188.996157 33.280388 
L 189.344924 33.280388 
L 189.344924 32.756141 
L 189.883857 32.756141 
L 189.883857 32.231893 
L 190.385527 32.231893 
L 190.385527 31.707645 
L 190.503504 31.707645 
L 190.503504 31.183397 
L 193.010942 31.183397 
L 193.010942 30.65915 
L 193.432118 30.65915 
L 193.432118 30.134902 
L 194.187136 30.134902 
L 194.187136 29.610654 
L 196.41431 29.610654 
L 196.41431 29.086407 
L 199.053205 29.086407 
L 199.053205 28.562159 
L 199.44132 28.562159 
L 199.44132 28.037911 
L 201.634818 28.037911 
L 201.634818 27.513663 
L 333.168 27.513663 
L 333.168 27.513663 
" style="fill:none;stroke:#000080;stroke-linecap:square;stroke-width:1.5;"/>
   </g>
   <g id="line2d_44">
    <defs>
     <path d="M 0 6 
C 1.591219 6 3.117479 5.367802 4.242641 4.242641 
C 5.367802 3.117479 6 1.591219 6 0 
C 6 -1.591219 5.367802 -3.117479 4.242641 -4.242641 
C 3.117479 -5.367802 1.591219 -6 0 -6 
C -1.591219 -6 -3.117479 -5.367802 -4.242641 -4.242641 
C -5.367802 -3.117479 -6 -1.591219 -6 0 
C -6 1.591219 -5.367802 3.117479 -4.242641 4.242641 
C -3.117479 5.367802 -1.591219 6 0 6 
z
" id="m39d69128c2" style="stroke:#000080;stroke-width:1.5;"/>
    </defs>
    <g>
     <use style="fill:none;stroke:#000080;stroke-width:1.5;" x="118.645127" xlink:href="#m39d69128c2" y="261.852394"/>
     <use style="fill:none;stroke:#000080;stroke-width:1.5;" x="156.858892" xlink:href="#m39d69128c2" y="157.00285"/>
     <use style="fill:none;stroke:#000080;stroke-width:1.5;" x="199.44132" xlink:href="#m39d69128c2" y="28.037911"/>
     <use style="fill:none;stroke:#000080;stroke-width:1.5;" x="201.634818" xlink:href="#m39d69128c2" y="28.037911"/>
     <use style="fill:none;stroke:#000080;stroke-width:1.5;" x="201.634818" xlink:href="#m39d69128c2" y="27.513663"/>
     <use style="fill:none;stroke:#000080;stroke-width:1.5;" x="333.168" xlink:href="#m39d69128c2" y="27.513663"/>
    </g>
   </g>
   <g id="line2d_45">
    <path style="fill:none;stroke:#000080;stroke-linecap:square;stroke-width:1.5;"/>
    <g/>
   </g>
   <g id="line2d_46">
    <path clip-path="url(#p33fed648c2)" d="M 135.21918 225.155053 
" style="fill:none;stroke:#000080;stroke-linecap:square;stroke-width:1.5;"/>
    <defs>
     <path d="M -12 12 
L 12 -12 
M -12 -12 
L 12 12 
" id="mfa1ae26bea" style="stroke:#000080;"/>
    </defs>
    <g clip-path="url(#p33fed648c2)">
     <use style="fill:#000080;stroke:#000080;" x="135.21918" xlink:href="#mfa1ae26bea" y="225.155053"/>
    </g>
   </g>
   <g id="line2d_47">
    <defs>
     <path d="M 0 1.5 
C 0.397805 1.5 0.77937 1.341951 1.06066 1.06066 
C 1.341951 0.77937 1.5 0.397805 1.5 0 
C 1.5 -0.397805 1.341951 -0.77937 1.06066 -1.06066 
C 0.77937 -1.341951 0.397805 -1.5 0 -1.5 
C -0.397805 -1.5 -0.77937 -1.341951 -1.06066 -1.06066 
C -1.341951 -0.77937 -1.5 -0.397805 -1.5 0 
C -1.5 0.397805 -1.341951 0.77937 -1.06066 1.06066 
C -0.77937 1.341951 -0.397805 1.5 0 1.5 
z
" id="m4b2e40f81e" style="stroke:#ff00ff;"/>
    </defs>
    <g>
     <use style="fill:#ff00ff;stroke:#ff00ff;" x="195.640361" xlink:href="#m4b2e40f81e" y="27.513663"/>
     <use style="fill:#ff00ff;stroke:#ff00ff;" x="195.640361" xlink:href="#m4b2e40f81e" y="27.513663"/>
    </g>
   </g>
   <g id="line2d_48">
    <path d="M 37.236359 294.88 
L 37.236359 277.055578 
L 91.862754 277.055578 
L 91.862754 276.53133 
L 92.564428 276.53133 
L 92.564428 276.007082 
L 96.807615 276.007082 
L 96.807615 275.482834 
L 97.336537 275.482834 
L 97.336537 274.958587 
L 97.849669 274.958587 
L 97.849669 273.910091 
L 98.347925 273.910091 
L 98.347925 272.861596 
L 98.832144 272.861596 
L 98.832144 272.337348 
L 99.303095 272.337348 
L 99.303095 271.8131 
L 99.761485 271.8131 
L 99.761485 271.288853 
L 100.643147 271.288853 
L 100.643147 270.240357 
L 101.067579 270.240357 
L 101.067579 268.143366 
L 101.88624 268.143366 
L 101.88624 267.094871 
L 102.281398 267.094871 
L 102.281398 266.570623 
L 111.217346 266.570623 
L 111.217346 266.046375 
L 112.341186 266.046375 
L 112.341186 265.522128 
L 114.195649 265.522128 
L 114.195649 264.99788 
L 114.581927 264.99788 
L 114.581927 264.473632 
L 115.145539 264.473632 
L 115.145539 263.425137 
L 115.691256 263.425137 
L 115.691256 262.376641 
L 116.045673 262.376641 
L 116.045673 261.328146 
L 116.563963 261.328146 
L 116.563963 260.803898 
L 117.06708 260.803898 
L 117.06708 259.755403 
L 118.645127 259.755403 
L 118.645127 259.231155 
L 119.810904 259.231155 
L 119.810904 258.706907 
L 121.929105 258.706907 
L 121.929105 258.18266 
L 123.476531 258.18266 
L 123.476531 257.658412 
L 123.814679 257.658412 
L 123.814679 257.134164 
L 124.363883 257.134164 
L 124.471649 256.085669 
L 124.790952 256.085669 
L 124.790952 255.561421 
L 125.207666 255.561421 
L 125.310285 254.512926 
L 125.412295 254.512926 
L 125.412295 253.988678 
L 125.614517 253.988678 
L 125.614517 252.940182 
L 125.913457 252.940182 
L 126.011959 249.794696 
L 126.109901 249.794696 
L 126.109901 246.64921 
L 126.40042 246.64921 
L 126.496178 245.600714 
L 127.243628 245.600714 
L 127.243628 245.076467 
L 127.515749 245.076467 
L 127.605507 242.455228 
L 127.783629 242.455228 
L 127.872003 240.882485 
L 127.959924 240.882485 
L 127.959924 240.358237 
L 128.13443 240.358237 
L 128.221023 238.785494 
L 128.39291 238.785494 
L 128.39291 236.164255 
L 128.647561 236.164255 
L 128.647561 234.591512 
L 128.815257 234.591512 
L 128.898495 233.543017 
L 128.981332 233.543017 
L 128.981332 233.018769 
L 129.227474 233.018769 
L 129.308744 231.446026 
L 129.470141 231.446026 
L 129.470141 230.397531 
L 129.630036 230.397531 
L 129.630036 229.349035 
L 129.788458 229.349035 
L 129.788458 228.30054 
L 130.255146 228.30054 
L 130.255146 227.776292 
L 130.483823 227.776292 
L 130.483823 227.252044 
L 130.709498 227.252044 
L 130.709498 226.727797 
L 132.073821 226.727797 
L 132.073821 226.203549 
L 132.684132 226.203549 
L 132.684132 225.679301 
L 136.060554 225.679301 
L 136.060554 225.155053 
L 137.121917 225.155053 
L 137.121917 224.630806 
L 137.478435 224.630806 
L 137.528768 223.58231 
L 137.628993 223.58231 
L 137.628993 223.058063 
L 137.975251 223.058063 
L 137.975251 222.533815 
L 138.410429 222.533815 
L 138.410429 222.009567 
L 139.249066 222.009567 
L 139.249066 221.485319 
L 139.786254 221.485319 
L 139.786254 220.961072 
L 139.917968 220.961072 
L 139.96165 219.912576 
L 140.307161 219.912576 
L 140.307161 219.388328 
L 140.477347 219.388328 
L 140.561812 217.815585 
L 140.812746 217.815585 
L 140.812746 217.291338 
L 140.936852 217.291338 
L 140.936852 216.76709 
L 141.182408 216.76709 
L 141.222995 215.194347 
L 141.303883 215.194347 
L 141.303883 214.670099 
L 141.504453 214.670099 
L 141.504453 214.145851 
L 141.820574 214.145851 
L 141.898705 213.097356 
L 142.015238 213.097356 
L 142.015238 212.573108 
L 142.169397 212.573108 
L 142.169397 212.04886 
L 142.360172 212.04886 
L 142.360172 211.524613 
L 142.473629 211.524613 
L 142.473629 211.000365 
L 142.623749 211.000365 
L 142.623749 210.476117 
L 142.809574 210.476117 
L 142.809574 209.95187 
L 142.993411 209.95187 
L 142.993411 208.903374 
L 143.175303 208.903374 
L 143.211452 207.854879 
L 143.319443 207.854879 
L 143.426761 205.757888 
L 143.533413 205.757888 
L 143.568817 204.709392 
L 143.674593 204.709392 
L 143.674593 204.185145 
L 143.884213 204.185145 
L 143.988072 203.136649 
L 144.056965 203.136649 
L 144.125582 201.039658 
L 144.431015 201.039658 
L 144.431015 200.515411 
L 144.598384 200.515411 
L 144.698028 199.466915 
L 144.960957 199.466915 
L 144.960957 198.41842 
L 145.123268 198.41842 
L 145.219924 197.369924 
L 145.411621 197.369924 
L 145.506674 196.321429 
L 145.569751 196.321429 
L 145.601203 195.272933 
L 145.819772 195.272933 
L 145.819772 194.748686 
L 146.278979 194.748686 
L 146.278979 194.224438 
L 146.785001 194.224438 
L 146.785001 193.70019 
L 147.162151 193.70019 
L 147.162151 193.175943 
L 147.305033 193.175943 
L 147.305033 192.651695 
L 147.531203 192.651695 
L 147.615255 191.603199 
L 147.754435 191.603199 
L 147.754435 191.078952 
L 148.246353 191.078952 
L 148.246353 190.554704 
L 148.540183 190.554704 
L 148.566647 189.506209 
L 148.776908 189.506209 
L 148.776908 188.981961 
L 148.932933 188.981961 
L 148.932933 188.457713 
L 149.443019 188.457713 
L 149.46813 187.409218 
L 149.741959 187.409218 
L 149.741959 186.88497 
L 150.06005 186.88497 
L 150.084276 185.836474 
L 150.324681 185.836474 
L 150.324681 185.312227 
L 150.490985 185.312227 
L 150.561769 184.263731 
L 150.749113 184.263731 
L 150.749113 183.215236 
L 151.231391 183.215236 
L 151.254022 182.16674 
L 151.389189 182.16674 
L 151.456376 180.06975 
L 151.766488 180.06975 
L 151.810337 178.497006 
L 152.006283 178.497006 
L 152.006283 177.972759 
L 152.157156 177.972759 
L 152.242778 176.924263 
L 152.685428 176.924263 
L 152.685428 176.400016 
L 152.953845 176.400016 
L 153.015196 175.35152 
L 153.458539 175.35152 
L 153.458539 174.827272 
L 153.812956 174.827272 
L 153.812956 174.303025 
L 153.968159 174.303025 
L 154.026001 173.254529 
L 154.198367 173.254529 
L 154.198367 172.730281 
L 154.519307 172.730281 
L 154.519307 172.206034 
L 154.68682 172.206034 
L 154.705333 171.157538 
L 154.889367 171.157538 
L 154.889367 170.633291 
L 155.089554 170.633291 
L 155.143749 169.584795 
L 155.412187 169.584795 
L 155.412187 169.060547 
L 155.623959 169.060547 
L 155.728875 168.012052 
L 155.919572 168.012052 
L 156.022705 166.439309 
L 156.294736 166.439309 
L 156.311596 165.390813 
L 156.462595 165.390813 
L 156.462595 164.342318 
L 156.727806 164.342318 
L 156.727806 163.81807 
L 156.858892 163.81807 
L 156.858892 163.293823 
L 156.972779 163.293823 
L 156.972779 162.769575 
L 157.166274 162.769575 
L 157.1823 161.196832 
L 157.325872 161.196832 
L 157.341751 160.148336 
L 157.468255 160.148336 
L 157.531159 159.099841 
L 157.718503 159.099841 
L 157.811415 158.051345 
L 157.995745 158.051345 
L 157.995745 157.527098 
L 158.147858 157.527098 
L 158.147858 157.00285 
L 158.448103 157.00285 
L 158.448103 156.478602 
L 158.61103 156.478602 
L 158.655198 155.430107 
L 158.845291 155.430107 
L 158.845291 154.905859 
L 159.047683 154.905859 
L 159.076402 153.857364 
L 159.417345 153.857364 
L 159.431405 152.808868 
L 159.682542 152.808868 
L 159.751656 151.236125 
L 159.902736 151.236125 
L 159.94371 150.18763 
L 160.025366 150.18763 
L 160.025366 149.663382 
L 160.187524 149.663382 
L 160.281415 148.090639 
L 160.414661 148.090639 
L 160.427929 147.042143 
L 160.546882 147.042143 
L 160.651931 145.4694 
L 160.717262 145.4694 
L 160.769349 144.420905 
L 160.88597 144.420905 
L 160.95042 143.372409 
L 161.027441 143.372409 
L 161.129603 142.323914 
L 161.218499 142.323914 
L 161.319534 141.275418 
L 161.668554 141.275418 
L 161.754713 139.178427 
L 161.889239 139.178427 
L 161.913585 138.129932 
L 162.034803 138.129932 
L 162.034803 137.605684 
L 162.464243 137.605684 
L 162.511303 136.557189 
L 162.675005 136.557189 
L 162.733095 135.508693 
L 163.020633 135.508693 
L 163.111639 134.460198 
L 163.224722 134.460198 
L 163.314656 132.887455 
L 163.426416 132.887455 
L 163.459803 131.838959 
L 163.548519 131.838959 
L 163.559576 130.790464 
L 163.768325 130.790464 
L 163.811951 129.217721 
L 163.888031 129.217721 
L 163.952976 127.12073 
L 164.028436 127.12073 
L 164.124971 125.547987 
L 164.210328 125.547987 
L 164.316431 124.499491 
L 164.400844 124.499491 
L 164.400844 123.975244 
L 164.568437 123.975244 
L 164.620476 122.4025 
L 164.682717 122.4025 
L 164.755046 121.354005 
L 165.051498 121.354005 
L 165.061629 120.30551 
L 165.242988 120.30551 
L 165.352884 117.684271 
L 165.452183 117.684271 
L 165.541064 116.635776 
L 165.590245 116.635776 
L 165.590245 116.111528 
L 165.853416 116.111528 
L 165.853416 115.58728 
L 166.007489 115.58728 
L 166.007489 115.063032 
L 166.349185 115.063032 
L 166.424203 114.014537 
L 166.748614 114.014537 
L 166.748614 113.490289 
L 167.121011 113.490289 
L 167.121011 112.966042 
L 167.299782 112.966042 
L 167.317557 111.917546 
L 167.414994 111.917546 
L 167.414994 111.393298 
L 167.66055 111.393298 
L 167.66055 110.869051 
L 167.885467 110.869051 
L 167.936956 109.820555 
L 168.410222 109.820555 
L 168.410222 109.296308 
L 168.674922 109.296308 
L 168.756812 107.199317 
L 168.789459 107.199317 
L 168.789459 106.675069 
L 169.048427 106.675069 
L 169.048427 106.150821 
L 169.44541 106.150821 
L 169.44541 105.626573 
L 169.562739 105.626573 
L 169.640516 104.578078 
L 169.717942 104.578078 
L 169.756525 103.005335 
L 169.971003 103.005335 
L 169.971003 102.481087 
L 170.175317 102.481087 
L 170.220392 101.432592 
L 170.332565 101.432592 
L 170.384663 100.384096 
L 170.473608 100.384096 
L 170.481 99.335601 
L 170.59149 99.335601 
L 170.59149 98.811353 
L 170.846573 98.811353 
L 170.868263 97.762858 
L 171.019325 97.762858 
L 171.019325 97.23861 
L 171.147759 97.23861 
L 171.239923 96.190115 
L 171.352682 96.190115 
L 171.380757 95.141619 
L 171.48563 95.141619 
L 171.48563 94.617371 
L 171.686587 94.617371 
L 171.734745 93.568876 
L 171.959971 93.568876 
L 172.020888 92.520381 
L 172.101776 92.520381 
L 172.101776 91.996133 
L 172.295697 91.996133 
L 172.375305 90.947637 
L 172.579268 90.947637 
L 172.579268 90.42339 
L 172.696597 90.42339 
L 172.800222 88.850646 
L 172.8518 88.850646 
L 172.8518 88.326399 
L 173.075655 88.326399 
L 173.170708 86.753656 
L 173.240081 86.753656 
L 173.32797 84.656665 
L 173.452752 84.656665 
L 173.520998 83.608169 
L 173.80958 83.608169 
L 173.88249 82.035426 
L 174.069423 82.035426 
L 174.147214 80.986931 
L 174.218709 80.986931 
L 174.242475 79.938435 
L 174.431428 79.938435 
L 174.484198 77.841444 
L 174.785965 77.841444 
L 174.785965 77.317197 
L 175.037232 77.317197 
L 175.099479 75.744454 
L 175.217691 75.744454 
L 175.217691 75.220206 
L 175.362932 75.220206 
L 175.362932 74.695958 
L 175.495921 74.695958 
L 175.495921 74.17171 
L 175.937308 74.17171 
L 175.95344 73.123215 
L 176.336134 73.123215 
L 176.37289 72.074719 
L 176.451389 72.074719 
L 176.451389 71.550472 
L 176.607319 71.550472 
L 176.715635 69.977729 
L 176.802822 69.977729 
L 176.802822 69.453481 
L 176.960681 69.453481 
L 177.051679 66.832242 
L 177.147214 66.832242 
L 177.147214 66.307995 
L 177.504496 66.307995 
L 177.597554 64.735251 
L 177.69011 64.735251 
L 177.69011 64.211004 
L 178.022105 64.211004 
L 178.022105 63.686756 
L 178.183368 63.686756 
L 178.206956 62.638261 
L 178.315046 62.638261 
L 178.315046 62.114013 
L 178.552327 62.114013 
L 178.621497 61.065517 
L 178.722445 61.065517 
L 178.790935 60.017022 
L 179.030769 60.017022 
L 179.062197 58.968526 
L 179.262871 58.968526 
L 179.262871 58.444279 
L 179.756693 58.444279 
L 179.756693 57.920031 
L 179.906813 57.920031 
L 179.906813 57.395783 
L 180.085243 57.395783 
L 180.148522 56.347288 
L 180.228342 56.347288 
L 180.274385 54.774545 
L 180.650628 54.774545 
L 180.650628 54.250297 
L 180.833682 54.250297 
L 180.833682 53.726049 
L 180.954644 53.726049 
L 180.954644 53.201802 
L 181.336099 53.201802 
L 181.336099 52.677554 
L 181.624467 52.677554 
L 181.624467 52.153306 
L 181.919475 52.153306 
L 181.919475 51.629058 
L 182.317482 51.629058 
L 182.358262 50.580563 
L 182.822206 50.580563 
L 182.822206 49.532068 
L 182.997913 49.532068 
L 182.997913 49.00782 
L 183.35102 49.00782 
L 183.424259 47.435077 
L 184.093189 47.435077 
L 184.203298 46.386581 
L 184.483706 46.386581 
L 184.549025 45.338086 
L 185.235958 45.338086 
L 185.257869 44.28959 
L 185.348344 44.28959 
L 185.348344 43.765343 
L 186.08533 43.765343 
L 186.08533 43.241095 
L 186.459812 43.241095 
L 186.547093 42.192599 
L 186.61371 42.192599 
L 186.61371 41.668352 
L 186.925953 41.668352 
L 186.971313 40.619856 
L 187.42948 40.619856 
L 187.42948 40.095609 
L 187.751742 40.095609 
L 187.751742 39.571361 
L 188.134352 39.571361 
L 188.134352 39.047113 
L 188.258268 39.047113 
L 188.258268 38.522865 
L 188.472345 38.522865 
L 188.472345 37.998618 
L 188.599008 37.998618 
L 188.599008 37.47437 
L 189.248476 37.47437 
L 189.35725 36.425875 
L 189.900579 36.425875 
L 189.988695 35.377379 
L 190.271409 35.377379 
L 190.271409 34.853131 
L 190.387848 34.853131 
L 190.39481 33.804636 
L 190.613805 33.804636 
L 190.613805 33.280388 
L 191.032426 33.280388 
L 191.130507 32.231893 
L 191.15716 32.231893 
L 191.15716 31.707645 
L 191.300813 31.707645 
L 191.384243 30.134902 
L 192.870904 30.134902 
L 192.870904 29.610654 
L 193.05472 29.610654 
L 193.05472 29.086407 
L 193.432118 29.086407 
L 193.432118 28.562159 
L 194.881813 28.562159 
L 194.881813 28.037911 
L 195.640361 28.037911 
L 195.640361 27.513663 
L 333.168 27.513663 
L 333.168 27.513663 
" style="fill:none;stroke:#ff00ff;stroke-linecap:square;stroke-width:1.5;"/>
   </g>
   <g id="line2d_49">
    <defs>
     <path d="M -0 8.485281 
L 5.091169 0 
L 0 -8.485281 
L -5.091169 -0 
z
" id="m7415ae5506" style="stroke:#ff00ff;stroke-linejoin:miter;stroke-width:1.5;"/>
    </defs>
    <g>
     <use style="fill:none;stroke:#ff00ff;stroke-linejoin:miter;stroke-width:1.5;" x="102.281398" xlink:href="#m7415ae5506" y="266.570623"/>
     <use style="fill:none;stroke:#ff00ff;stroke-linejoin:miter;stroke-width:1.5;" x="148.246353" xlink:href="#m7415ae5506" y="190.554704"/>
     <use style="fill:none;stroke:#ff00ff;stroke-linejoin:miter;stroke-width:1.5;" x="194.881813" xlink:href="#m7415ae5506" y="28.562159"/>
     <use style="fill:none;stroke:#ff00ff;stroke-linejoin:miter;stroke-width:1.5;" x="195.640361" xlink:href="#m7415ae5506" y="27.513663"/>
     <use style="fill:none;stroke:#ff00ff;stroke-linejoin:miter;stroke-width:1.5;" x="195.640361" xlink:href="#m7415ae5506" y="27.513663"/>
     <use style="fill:none;stroke:#ff00ff;stroke-linejoin:miter;stroke-width:1.5;" x="333.168" xlink:href="#m7415ae5506" y="27.513663"/>
    </g>
   </g>
   <g id="line2d_50">
    <path style="fill:none;stroke:#ff00ff;stroke-linecap:square;stroke-width:1.5;"/>
    <g/>
   </g>
   <g id="line2d_51">
    <path clip-path="url(#p33fed648c2)" d="M 135.21918 225.679301 
" style="fill:none;stroke:#ff00ff;stroke-linecap:square;stroke-width:1.5;"/>
    <defs>
     <path d="M -12 12 
L 12 -12 
M -12 -12 
L 12 12 
" id="m9242d72892" style="stroke:#ff00ff;"/>
    </defs>
    <g clip-path="url(#p33fed648c2)">
     <use style="fill:#ff00ff;stroke:#ff00ff;" x="135.21918" xlink:href="#m9242d72892" y="225.679301"/>
    </g>
   </g>
   <g id="line2d_52">
    <path d="M 333.168 27.513663 
L 363.64328 289.532673 
" style="fill:none;stroke:#000080;stroke-linecap:square;stroke-width:1.5;"/>
    <g>
     <use style="fill:none;stroke:#000080;stroke-width:1.5;" x="333.168" xlink:href="#m39d69128c2" y="27.513663"/>
     <use style="fill:none;stroke:#000080;stroke-width:1.5;" x="363.64328" xlink:href="#m39d69128c2" y="289.532673"/>
    </g>
   </g>
   <g id="line2d_53">
    <path d="M 333.168 27.513663 
L 363.64328 161.196832 
" style="fill:none;stroke:#ff00ff;stroke-linecap:square;stroke-width:1.5;"/>
    <g>
     <use style="fill:none;stroke:#ff00ff;stroke-linejoin:miter;stroke-width:1.5;" x="333.168" xlink:href="#m7415ae5506" y="27.513663"/>
     <use style="fill:none;stroke:#ff00ff;stroke-linejoin:miter;stroke-width:1.5;" x="363.64328" xlink:href="#m7415ae5506" y="161.196832"/>
    </g>
   </g>
   <g id="line2d_54">
    <path d="M 333.168 294.88 
L 333.168 27.513663 
" style="fill:none;stroke:#000000;stroke-linecap:square;stroke-width:1.5;"/>
   </g>
   <g id="patch_3">
    <path d="M 56.12 294.88 
L 56.12 24.84 
" style="fill:none;stroke:#000000;stroke-linecap:square;stroke-linejoin:miter;stroke-width:0.8;"/>
   </g>
   <g id="patch_4">
    <path d="M 333.168 294.88 
L 333.168 24.84 
" style="fill:none;stroke:#000000;stroke-linecap:square;stroke-linejoin:miter;stroke-width:0.8;"/>
   </g>
   <g id="patch_5">
    <path d="M 56.12 294.88 
L 333.168 294.88 
" style="fill:none;stroke:#000000;stroke-linecap:square;stroke-linejoin:miter;stroke-width:0.8;"/>
   </g>
   <g id="patch_6">
    <path d="M 56.12 24.84 
L 333.168 24.84 
" style="fill:none;stroke:#000000;stroke-linecap:square;stroke-linejoin:miter;stroke-width:0.8;"/>
   </g>
   <g id="text_13">
    <!-- scipyAlg -->
    <defs>
     <path d="M 32.171875 -5.078125 
Q 28.375 -14.84375 24.75 -17.8125 
Q 21.140625 -20.796875 15.09375 -20.796875 
L 7.90625 -20.796875 
L 7.90625 -13.28125 
L 13.1875 -13.28125 
Q 16.890625 -13.28125 18.9375 -11.515625 
Q 21 -9.765625 23.484375 -3.21875 
L 25.09375 0.875 
L 2.984375 54.6875 
L 12.5 54.6875 
L 29.59375 11.921875 
L 46.6875 54.6875 
L 56.203125 54.6875 
z
" id="DejaVuSans-79"/>
     <path d="M 34.1875 63.1875 
L 20.796875 26.90625 
L 47.609375 26.90625 
z
M 28.609375 72.90625 
L 39.796875 72.90625 
L 67.578125 0 
L 57.328125 0 
L 50.6875 18.703125 
L 17.828125 18.703125 
L 11.1875 0 
L 0.78125 0 
z
" id="DejaVuSans-41"/>
    </defs>
    <g transform="translate(369.18424 294.223611)scale(0.17 -0.17)">
     <use xlink:href="#DejaVuSans-73"/>
     <use x="52.099609" xlink:href="#DejaVuSans-63"/>
     <use x="107.080078" xlink:href="#DejaVuSans-69"/>
     <use x="134.863281" xlink:href="#DejaVuSans-70"/>
     <use x="198.339844" xlink:href="#DejaVuSans-79"/>
     <use x="257.519531" xlink:href="#DejaVuSans-41"/>
     <use x="325.927734" xlink:href="#DejaVuSans-6c"/>
     <use x="353.710938" xlink:href="#DejaVuSans-67"/>
    </g>
   </g>
   <g id="text_14">
    <!-- scipy-opt -->
    <g transform="translate(369.18424 165.887769)scale(0.17 -0.17)">
     <use xlink:href="#DejaVuSans-73"/>
     <use x="52.099609" xlink:href="#DejaVuSans-63"/>
     <use x="107.080078" xlink:href="#DejaVuSans-69"/>
     <use x="134.863281" xlink:href="#DejaVuSans-70"/>
     <use x="198.339844" xlink:href="#DejaVuSans-79"/>
     <use x="257.503906" xlink:href="#DejaVuSans-2d"/>
     <use x="293.603516" xlink:href="#DejaVuSans-6f"/>
     <use x="354.785156" xlink:href="#DejaVuSans-70"/>
     <use x="418.261719" xlink:href="#DejaVuSans-74"/>
    </g>
   </g>
   <g id="text_15">
    <!-- best 2009 -->
    <defs>
     <path d="M 48.6875 27.296875 
Q 48.6875 37.203125 44.609375 42.84375 
Q 40.53125 48.484375 33.40625 48.484375 
Q 26.265625 48.484375 22.1875 42.84375 
Q 18.109375 37.203125 18.109375 27.296875 
Q 18.109375 17.390625 22.1875 11.75 
Q 26.265625 6.109375 33.40625 6.109375 
Q 40.53125 6.109375 44.609375 11.75 
Q 48.6875 17.390625 48.6875 27.296875 
z
M 18.109375 46.390625 
Q 20.953125 51.265625 25.265625 53.625 
Q 29.59375 56 35.59375 56 
Q 45.5625 56 51.78125 48.09375 
Q 58.015625 40.1875 58.015625 27.296875 
Q 58.015625 14.40625 51.78125 6.484375 
Q 45.5625 -1.421875 35.59375 -1.421875 
Q 29.59375 -1.421875 25.265625 0.953125 
Q 20.953125 3.328125 18.109375 8.203125 
L 18.109375 0 
L 9.078125 0 
L 9.078125 75.984375 
L 18.109375 75.984375 
z
" id="DejaVuSans-62"/>
     <path d="M 10.984375 1.515625 
L 10.984375 10.5 
Q 14.703125 8.734375 18.5 7.8125 
Q 22.3125 6.890625 25.984375 6.890625 
Q 35.75 6.890625 40.890625 13.453125 
Q 46.046875 20.015625 46.78125 33.40625 
Q 43.953125 29.203125 39.59375 26.953125 
Q 35.25 24.703125 29.984375 24.703125 
Q 19.046875 24.703125 12.671875 31.3125 
Q 6.296875 37.9375 6.296875 49.421875 
Q 6.296875 60.640625 12.9375 67.421875 
Q 19.578125 74.21875 30.609375 74.21875 
Q 43.265625 74.21875 49.921875 64.515625 
Q 56.59375 54.828125 56.59375 36.375 
Q 56.59375 19.140625 48.40625 8.859375 
Q 40.234375 -1.421875 26.421875 -1.421875 
Q 22.703125 -1.421875 18.890625 -0.6875 
Q 15.09375 0.046875 10.984375 1.515625 
z
M 30.609375 32.421875 
Q 37.25 32.421875 41.125 36.953125 
Q 45.015625 41.5 45.015625 49.421875 
Q 45.015625 57.28125 41.125 61.84375 
Q 37.25 66.40625 30.609375 66.40625 
Q 23.96875 66.40625 20.09375 61.84375 
Q 16.21875 57.28125 16.21875 49.421875 
Q 16.21875 41.5 20.09375 36.953125 
Q 23.96875 32.421875 30.609375 32.421875 
z
" id="DejaVuSans-39"/>
    </defs>
    <g transform="translate(369.18424 37.551928)scale(0.17 -0.17)">
     <use xlink:href="#DejaVuSans-62"/>
     <use x="63.476562" xlink:href="#DejaVuSans-65"/>
     <use x="125" xlink:href="#DejaVuSans-73"/>
     <use x="177.099609" xlink:href="#DejaVuSans-74"/>
     <use x="216.308594" xlink:href="#DejaVuSans-20"/>
     <use x="248.095703" xlink:href="#DejaVuSans-32"/>
     <use x="311.71875" xlink:href="#DejaVuSans-30"/>
     <use x="375.341797" xlink:href="#DejaVuSans-30"/>
     <use x="438.964844" xlink:href="#DejaVuSans-39"/>
    </g>
   </g>
   <g id="text_16">
    <!-- bbob f21, 3-D -->
    <defs>
     <path d="M 40.578125 39.3125 
Q 47.65625 37.796875 51.625 33 
Q 55.609375 28.21875 55.609375 21.1875 
Q 55.609375 10.40625 48.1875 4.484375 
Q 40.765625 -1.421875 27.09375 -1.421875 
Q 22.515625 -1.421875 17.65625 -0.515625 
Q 12.796875 0.390625 7.625 2.203125 
L 7.625 11.71875 
Q 11.71875 9.328125 16.59375 8.109375 
Q 21.484375 6.890625 26.8125 6.890625 
Q 36.078125 6.890625 40.9375 10.546875 
Q 45.796875 14.203125 45.796875 21.1875 
Q 45.796875 27.640625 41.28125 31.265625 
Q 36.765625 34.90625 28.71875 34.90625 
L 20.21875 34.90625 
L 20.21875 43.015625 
L 29.109375 43.015625 
Q 36.375 43.015625 40.234375 45.921875 
Q 44.09375 48.828125 44.09375 54.296875 
Q 44.09375 59.90625 40.109375 62.90625 
Q 36.140625 65.921875 28.71875 65.921875 
Q 24.65625 65.921875 20.015625 65.03125 
Q 15.375 64.15625 9.8125 62.3125 
L 9.8125 71.09375 
Q 15.4375 72.65625 20.34375 73.4375 
Q 25.25 74.21875 29.59375 74.21875 
Q 40.828125 74.21875 47.359375 69.109375 
Q 53.90625 64.015625 53.90625 55.328125 
Q 53.90625 49.265625 50.4375 45.09375 
Q 46.96875 40.921875 40.578125 39.3125 
z
" id="DejaVuSans-33"/>
     <path d="M 19.671875 64.796875 
L 19.671875 8.109375 
L 31.59375 8.109375 
Q 46.6875 8.109375 53.6875 14.9375 
Q 60.6875 21.78125 60.6875 36.53125 
Q 60.6875 51.171875 53.6875 57.984375 
Q 46.6875 64.796875 31.59375 64.796875 
z
M 9.8125 72.90625 
L 30.078125 72.90625 
Q 51.265625 72.90625 61.171875 64.09375 
Q 71.09375 55.28125 71.09375 36.53125 
Q 71.09375 17.671875 61.125 8.828125 
Q 51.171875 0 30.078125 0 
L 9.8125 0 
z
" id="DejaVuSans-44"/>
    </defs>
    <g transform="translate(58.89048 35.290806)scale(0.102 -0.102)">
     <use xlink:href="#DejaVuSans-62"/>
     <use x="63.476562" xlink:href="#DejaVuSans-62"/>
     <use x="126.953125" xlink:href="#DejaVuSans-6f"/>
     <use x="188.134766" xlink:href="#DejaVuSans-62"/>
     <use x="251.611328" xlink:href="#DejaVuSans-20"/>
     <use x="283.398438" xlink:href="#DejaVuSans-66"/>
     <use x="318.603516" xlink:href="#DejaVuSans-32"/>
     <use x="382.226562" xlink:href="#DejaVuSans-31"/>
     <use x="445.849609" xlink:href="#DejaVuSans-2c"/>
     <use x="477.636719" xlink:href="#DejaVuSans-20"/>
     <use x="509.423828" xlink:href="#DejaVuSans-33"/>
     <use x="573.046875" xlink:href="#DejaVuSans-2d"/>
     <use x="609.130859" xlink:href="#DejaVuSans-44"/>
    </g>
    <!-- 51 targets: 100..1e-08 -->
    <defs>
     <path d="M 10.796875 72.90625 
L 49.515625 72.90625 
L 49.515625 64.59375 
L 19.828125 64.59375 
L 19.828125 46.734375 
Q 21.96875 47.46875 24.109375 47.828125 
Q 26.265625 48.1875 28.421875 48.1875 
Q 40.625 48.1875 47.75 41.5 
Q 54.890625 34.8125 54.890625 23.390625 
Q 54.890625 11.625 47.5625 5.09375 
Q 40.234375 -1.421875 26.90625 -1.421875 
Q 22.3125 -1.421875 17.546875 -0.640625 
Q 12.796875 0.140625 7.71875 1.703125 
L 7.71875 11.625 
Q 12.109375 9.234375 16.796875 8.0625 
Q 21.484375 6.890625 26.703125 6.890625 
Q 35.15625 6.890625 40.078125 11.328125 
Q 45.015625 15.765625 45.015625 23.390625 
Q 45.015625 31 40.078125 35.4375 
Q 35.15625 39.890625 26.703125 39.890625 
Q 22.75 39.890625 18.8125 39.015625 
Q 14.890625 38.140625 10.796875 36.28125 
z
" id="DejaVuSans-35"/>
     <path d="M 11.71875 12.40625 
L 22.015625 12.40625 
L 22.015625 0 
L 11.71875 0 
z
M 11.71875 51.703125 
L 22.015625 51.703125 
L 22.015625 39.3125 
L 11.71875 39.3125 
z
" id="DejaVuSans-3a"/>
    </defs>
    <g transform="translate(58.89048 46.712575)scale(0.102 -0.102)">
     <use xlink:href="#DejaVuSans-35"/>
     <use x="63.623047" xlink:href="#DejaVuSans-31"/>
     <use x="127.246094" xlink:href="#DejaVuSans-20"/>
     <use x="159.033203" xlink:href="#DejaVuSans-74"/>
     <use x="198.242188" xlink:href="#DejaVuSans-61"/>
     <use x="259.521484" xlink:href="#DejaVuSans-72"/>
     <use x="300.619141" xlink:href="#DejaVuSans-67"/>
     <use x="364.095703" xlink:href="#DejaVuSans-65"/>
     <use x="425.619141" xlink:href="#DejaVuSans-74"/>
     <use x="464.828125" xlink:href="#DejaVuSans-73"/>
     <use x="516.927734" xlink:href="#DejaVuSans-3a"/>
     <use x="550.619141" xlink:href="#DejaVuSans-20"/>
     <use x="582.40625" xlink:href="#DejaVuSans-31"/>
     <use x="646.029297" xlink:href="#DejaVuSans-30"/>
     <use x="709.652344" xlink:href="#DejaVuSans-30"/>
     <use x="773.275391" xlink:href="#DejaVuSans-2e"/>
     <use x="805.0625" xlink:href="#DejaVuSans-2e"/>
     <use x="836.849609" xlink:href="#DejaVuSans-31"/>
     <use x="900.472656" xlink:href="#DejaVuSans-65"/>
     <use x="961.996094" xlink:href="#DejaVuSans-2d"/>
     <use x="998.080078" xlink:href="#DejaVuSans-30"/>
     <use x="1061.703125" xlink:href="#DejaVuSans-38"/>
    </g>
    <!-- 15 instances -->
    <g transform="translate(58.89048 58.134344)scale(0.102 -0.102)">
     <use xlink:href="#DejaVuSans-31"/>
     <use x="63.623047" xlink:href="#DejaVuSans-35"/>
     <use x="127.246094" xlink:href="#DejaVuSans-20"/>
     <use x="159.033203" xlink:href="#DejaVuSans-69"/>
     <use x="186.816406" xlink:href="#DejaVuSans-6e"/>
     <use x="250.195312" xlink:href="#DejaVuSans-73"/>
     <use x="302.294922" xlink:href="#DejaVuSans-74"/>
     <use x="341.503906" xlink:href="#DejaVuSans-61"/>
     <use x="402.783203" xlink:href="#DejaVuSans-6e"/>
     <use x="466.162109" xlink:href="#DejaVuSans-63"/>
     <use x="521.142578" xlink:href="#DejaVuSans-65"/>
     <use x="582.666016" xlink:href="#DejaVuSans-73"/>
    </g>
   </g>
   <g id="text_17">
    <!-- v0.0.0 -->
    <g style="fill:#808080;" transform="translate(178.96275 290.099912)scale(0.1 -0.1)">
     <use xlink:href="#DejaVuSans-76"/>
     <use x="59.179688" xlink:href="#DejaVuSans-30"/>
     <use x="122.802734" xlink:href="#DejaVuSans-2e"/>
     <use x="154.589844" xlink:href="#DejaVuSans-30"/>
     <use x="218.212891" xlink:href="#DejaVuSans-2e"/>
     <use x="250" xlink:href="#DejaVuSans-30"/>
    </g>
   </g>
   <g id="text_18">
    <!-- 21 Gallagher 101 peaks -->
    <defs>
     <path d="M 59.515625 10.40625 
L 59.515625 29.984375 
L 43.40625 29.984375 
L 43.40625 38.09375 
L 69.28125 38.09375 
L 69.28125 6.78125 
Q 63.578125 2.734375 56.6875 0.65625 
Q 49.8125 -1.421875 42 -1.421875 
Q 24.90625 -1.421875 15.25 8.5625 
Q 5.609375 18.5625 5.609375 36.375 
Q 5.609375 54.25 15.25 64.234375 
Q 24.90625 74.21875 42 74.21875 
Q 49.125 74.21875 55.546875 72.453125 
Q 61.96875 70.703125 67.390625 67.28125 
L 67.390625 56.78125 
Q 61.921875 61.421875 55.765625 63.765625 
Q 49.609375 66.109375 42.828125 66.109375 
Q 29.4375 66.109375 22.71875 58.640625 
Q 16.015625 51.171875 16.015625 36.375 
Q 16.015625 21.625 22.71875 14.15625 
Q 29.4375 6.6875 42.828125 6.6875 
Q 48.046875 6.6875 52.140625 7.59375 
Q 56.25 8.5 59.515625 10.40625 
z
" id="DejaVuSans-47"/>
     <path d="M 54.890625 33.015625 
L 54.890625 0 
L 45.90625 0 
L 45.90625 32.71875 
Q 45.90625 40.484375 42.875 44.328125 
Q 39.84375 48.1875 33.796875 48.1875 
Q 26.515625 48.1875 22.3125 43.546875 
Q 18.109375 38.921875 18.109375 30.90625 
L 18.109375 0 
L 9.078125 0 
L 9.078125 75.984375 
L 18.109375 75.984375 
L 18.109375 46.1875 
Q 21.34375 51.125 25.703125 53.5625 
Q 30.078125 56 35.796875 56 
Q 45.21875 56 50.046875 50.171875 
Q 54.890625 44.34375 54.890625 33.015625 
z
" id="DejaVuSans-68"/>
     <path d="M 9.078125 75.984375 
L 18.109375 75.984375 
L 18.109375 31.109375 
L 44.921875 54.6875 
L 56.390625 54.6875 
L 27.390625 29.109375 
L 57.625 0 
L 45.90625 0 
L 18.109375 26.703125 
L 18.109375 0 
L 9.078125 0 
z
" id="DejaVuSans-6b"/>
    </defs>
    <g transform="translate(75.1565 18.84)scale(0.2 -0.2)">
     <use xlink:href="#DejaVuSans-32"/>
     <use x="63.623047" xlink:href="#DejaVuSans-31"/>
     <use x="127.246094" xlink:href="#DejaVuSans-20"/>
     <use x="159.033203" xlink:href="#DejaVuSans-47"/>
     <use x="236.523438" xlink:href="#DejaVuSans-61"/>
     <use x="297.802734" xlink:href="#DejaVuSans-6c"/>
     <use x="325.585938" xlink:href="#DejaVuSans-6c"/>
     <use x="353.369141" xlink:href="#DejaVuSans-61"/>
     <use x="414.648438" xlink:href="#DejaVuSans-67"/>
     <use x="478.125" xlink:href="#DejaVuSans-68"/>
     <use x="541.503906" xlink:href="#DejaVuSans-65"/>
     <use x="603.027344" xlink:href="#DejaVuSans-72"/>
     <use x="644.140625" xlink:href="#DejaVuSans-20"/>
     <use x="675.927734" xlink:href="#DejaVuSans-31"/>
     <use x="739.550781" xlink:href="#DejaVuSans-30"/>
     <use x="803.173828" xlink:href="#DejaVuSans-31"/>
     <use x="866.796875" xlink:href="#DejaVuSans-20"/>
     <use x="898.583984" xlink:href="#DejaVuSans-70"/>
     <use x="962.060547" xlink:href="#DejaVuSans-65"/>
     <use x="1023.583984" xlink:href="#DejaVuSans-61"/>
     <use x="1084.863281" xlink:href="#DejaVuSans-6b"/>
     <use x="1142.773438" xlink:href="#DejaVuSans-73"/>
    </g>
   </g>
  </g>
 </g>
 <defs>
  <clipPath id="p33fed648c2">
   <rect height="270.04" width="277.048" x="56.12" y="24.84"/>
  </clipPath>
 </defs>
</svg>
