<?xml version="1.0" encoding="utf-8" standalone="no"?>
<!DOCTYPE svg PUBLIC "-//W3C//DTD SVG 1.1//EN"
  "http://www.w3.org/Graphics/SVG/1.1/DTD/svg11.dtd">
<!-- Created with matplotlib (http://matplotlib.org/) -->
<svg height="345pt" version="1.1" viewBox="0 0 460 345" width="460pt" xmlns="http://www.w3.org/2000/svg" xmlns:xlink="http://www.w3.org/1999/xlink">
 <defs>
  <style type="text/css">
*{stroke-linecap:butt;stroke-linejoin:round;}
  </style>
 </defs>
 <g id="figure_1">
  <g id="patch_1">
   <path d="M 0 345.6 
L 460.8 345.6 
L 460.8 0 
L 0 0 
z
" style="fill:#ffffff;"/>
  </g>
  <g id="axes_1">
   <g id="patch_2">
    <path d="M 56.12 294.88 
L 333.168 294.88 
L 333.168 24.84 
L 56.12 24.84 
z
" style="fill:#ffffff;"/>
   </g>
   <g id="line2d_1">
    <path d="M 85.935418 294.88 
L 85.935418 289.637523 
L 89.567532 289.637523 
L 89.567532 284.395046 
L 95.698286 284.395046 
L 95.698286 279.152568 
L 99.303095 279.152568 
L 99.303095 273.910091 
L 101.481783 273.910091 
L 101.481783 268.667614 
L 104.131422 268.667614 
L 104.131422 263.425137 
L 106.11693 263.425137 
L 106.11693 258.18266 
L 107.612537 258.18266 
L 107.612537 252.940182 
L 110.262176 252.940182 
L 110.262176 247.697705 
L 112.122219 247.697705 
L 112.122219 242.455228 
L 113.599452 242.455228 
L 113.599452 237.212751 
L 114.389873 237.212751 
L 114.389873 231.970274 
L 115.511269 231.970274 
L 115.511269 226.727797 
L 116.39293 226.727797 
L 116.39293 221.485319 
L 117.06708 221.485319 
L 117.06708 216.242842 
L 117.715785 216.242842 
L 117.715785 211.000365 
L 119.09161 211.000365 
L 119.09161 205.757888 
L 119.669433 205.757888 
L 119.669433 200.515411 
L 120.0904 200.515411 
L 120.0904 195.272933 
L 121.034327 195.272933 
L 121.034327 190.030456 
L 121.678171 190.030456 
L 121.678171 184.787979 
L 122.053211 184.787979 
L 122.053211 179.545502 
L 122.660646 179.545502 
L 122.660646 174.303025 
L 126.68611 174.303025 
L 126.68611 169.060547 
L 128.563096 169.060547 
L 128.563096 163.81807 
L 129.550274 163.81807 
L 129.550274 158.575593 
L 130.023386 158.575593 
L 130.023386 153.333116 
L 130.407935 153.333116 
L 130.407935 148.090639 
L 131.152148 148.090639 
L 131.152148 142.848162 
L 131.725155 142.848162 
L 131.725155 137.605684 
L 132.483094 137.605684 
L 132.483094 132.363207 
L 132.750626 132.363207 
L 132.750626 127.12073 
L 133.144276 127.12073 
L 133.144276 121.878253 
L 133.592422 121.878253 
L 133.592422 116.635776 
L 133.843356 116.635776 
L 133.843356 111.393298 
L 134.151957 111.393298 
L 134.151957 106.150821 
L 134.515111 106.150821 
L 134.515111 100.908344 
L 134.811986 100.908344 
L 134.811986 95.665867 
L 135.10382 95.665867 
L 135.10382 90.42339 
L 135.447604 90.42339 
L 135.447604 85.180912 
L 135.673032 85.180912 
L 135.673032 79.938435 
L 136.332102 79.938435 
L 136.332102 74.695958 
L 137.121917 74.695958 
L 137.121917 69.453481 
L 137.377325 69.453481 
L 137.377325 64.211004 
L 137.778244 64.211004 
L 137.778244 58.968526 
L 138.647518 58.968526 
L 138.647518 53.726049 
L 140.392465 53.726049 
L 140.392465 48.483572 
L 140.60389 48.483572 
L 140.60389 43.241095 
L 141.100945 43.241095 
L 141.100945 37.998618 
L 141.58403 37.998618 
L 141.58403 32.756141 
L 141.859684 32.756141 
L 141.859684 27.513663 
L 333.168 27.513663 
" style="fill:none;stroke:#f5deb3;stroke-linecap:square;stroke-width:4;"/>
   </g>
   <g id="line2d_2">
    <defs>
     <path d="M -0 7.778175 
L 7.778175 0 
L 0 -7.778175 
L -7.778175 -0 
z
" id="me220e2f8da" style="stroke:#f5deb3;stroke-linejoin:miter;stroke-width:1.5;"/>
    </defs>
    <g>
     <use style="fill:#f5deb3;stroke:#f5deb3;stroke-linejoin:miter;stroke-width:1.5;" x="132.750626" xlink:href="#me220e2f8da" y="132.363207"/>
     <use style="fill:#f5deb3;stroke:#f5deb3;stroke-linejoin:miter;stroke-width:1.5;" x="141.859684" xlink:href="#me220e2f8da" y="32.756141"/>
     <use style="fill:#f5deb3;stroke:#f5deb3;stroke-linejoin:miter;stroke-width:1.5;" x="141.859684" xlink:href="#me220e2f8da" y="27.513663"/>
     <use style="fill:#f5deb3;stroke:#f5deb3;stroke-linejoin:miter;stroke-width:1.5;" x="141.859684" xlink:href="#me220e2f8da" y="27.513663"/>
     <use style="fill:#f5deb3;stroke:#f5deb3;stroke-linejoin:miter;stroke-width:1.5;" x="333.168" xlink:href="#me220e2f8da" y="27.513663"/>
    </g>
   </g>
   <g id="line2d_3">
    <path style="fill:none;stroke:#f5deb3;stroke-linecap:square;stroke-width:4;"/>
    <g/>
   </g>
   <g id="line2d_4">
    <path d="M 333.168 27.513663 
L 363.64328 32.86099 
" style="fill:none;stroke:#f5deb3;stroke-linecap:square;stroke-width:4;"/>
    <g>
     <use style="fill:#f5deb3;stroke:#f5deb3;stroke-linejoin:miter;stroke-width:1.5;" x="333.168" xlink:href="#me220e2f8da" y="27.513663"/>
     <use style="fill:#f5deb3;stroke:#f5deb3;stroke-linejoin:miter;stroke-width:1.5;" x="363.64328" xlink:href="#me220e2f8da" y="32.86099"/>
    </g>
   </g>
   <g id="matplotlib.axis_1">
    <g id="xtick_1">
     <g id="line2d_5">
      <path clip-path="url(#p35a850e37d)" d="M 56.12 294.88 
L 56.12 24.84 
" style="fill:none;stroke:#b0b0b0;stroke-linecap:square;stroke-width:0.8;"/>
     </g>
     <g id="line2d_6">
      <defs>
       <path d="M 0 0 
L 0 3.5 
" id="mdca50bcc45" style="stroke:#000000;stroke-width:0.8;"/>
      </defs>
      <g>
       <use style="stroke:#000000;stroke-width:0.8;" x="56.12" xlink:href="#mdca50bcc45" y="294.88"/>
      </g>
     </g>
     <g id="text_1">
      <!-- 0 -->
      <defs>
       <path d="M 31.78125 66.40625 
Q 24.171875 66.40625 20.328125 58.90625 
Q 16.5 51.421875 16.5 36.375 
Q 16.5 21.390625 20.328125 13.890625 
Q 24.171875 6.390625 31.78125 6.390625 
Q 39.453125 6.390625 43.28125 13.890625 
Q 47.125 21.390625 47.125 36.375 
Q 47.125 51.421875 43.28125 58.90625 
Q 39.453125 66.40625 31.78125 66.40625 
z
M 31.78125 74.21875 
Q 44.046875 74.21875 50.515625 64.515625 
Q 56.984375 54.828125 56.984375 36.375 
Q 56.984375 17.96875 50.515625 8.265625 
Q 44.046875 -1.421875 31.78125 -1.421875 
Q 19.53125 -1.421875 13.0625 8.265625 
Q 6.59375 17.96875 6.59375 36.375 
Q 6.59375 54.828125 13.0625 64.515625 
Q 19.53125 74.21875 31.78125 74.21875 
z
" id="DejaVuSans-30"/>
      </defs>
      <g transform="translate(49.7575 317.076875)scale(0.2 -0.2)">
       <use xlink:href="#DejaVuSans-30"/>
      </g>
     </g>
    </g>
    <g id="xtick_2">
     <g id="line2d_7">
      <path clip-path="url(#p35a850e37d)" d="M 135.276571 294.88 
L 135.276571 24.84 
" style="fill:none;stroke:#b0b0b0;stroke-linecap:square;stroke-width:0.8;"/>
     </g>
     <g id="line2d_8">
      <g>
       <use style="stroke:#000000;stroke-width:0.8;" x="135.276571" xlink:href="#mdca50bcc45" y="294.88"/>
      </g>
     </g>
     <g id="text_2">
      <!-- 2 -->
      <defs>
       <path d="M 19.1875 8.296875 
L 53.609375 8.296875 
L 53.609375 0 
L 7.328125 0 
L 7.328125 8.296875 
Q 12.9375 14.109375 22.625 23.890625 
Q 32.328125 33.6875 34.8125 36.53125 
Q 39.546875 41.84375 41.421875 45.53125 
Q 43.3125 49.21875 43.3125 52.78125 
Q 43.3125 58.59375 39.234375 62.25 
Q 35.15625 65.921875 28.609375 65.921875 
Q 23.96875 65.921875 18.8125 64.3125 
Q 13.671875 62.703125 7.8125 59.421875 
L 7.8125 69.390625 
Q 13.765625 71.78125 18.9375 73 
Q 24.125 74.21875 28.421875 74.21875 
Q 39.75 74.21875 46.484375 68.546875 
Q 53.21875 62.890625 53.21875 53.421875 
Q 53.21875 48.921875 51.53125 44.890625 
Q 49.859375 40.875 45.40625 35.40625 
Q 44.1875 33.984375 37.640625 27.21875 
Q 31.109375 20.453125 19.1875 8.296875 
z
" id="DejaVuSans-32"/>
      </defs>
      <g transform="translate(128.914071 317.076875)scale(0.2 -0.2)">
       <use xlink:href="#DejaVuSans-32"/>
      </g>
     </g>
    </g>
    <g id="xtick_3">
     <g id="line2d_9">
      <path clip-path="url(#p35a850e37d)" d="M 214.433143 294.88 
L 214.433143 24.84 
" style="fill:none;stroke:#b0b0b0;stroke-linecap:square;stroke-width:0.8;"/>
     </g>
     <g id="line2d_10">
      <g>
       <use style="stroke:#000000;stroke-width:0.8;" x="214.433143" xlink:href="#mdca50bcc45" y="294.88"/>
      </g>
     </g>
     <g id="text_3">
      <!-- 4 -->
      <defs>
       <path d="M 37.796875 64.3125 
L 12.890625 25.390625 
L 37.796875 25.390625 
z
M 35.203125 72.90625 
L 47.609375 72.90625 
L 47.609375 25.390625 
L 58.015625 25.390625 
L 58.015625 17.1875 
L 47.609375 17.1875 
L 47.609375 0 
L 37.796875 0 
L 37.796875 17.1875 
L 4.890625 17.1875 
L 4.890625 26.703125 
z
" id="DejaVuSans-34"/>
      </defs>
      <g transform="translate(208.070643 317.076875)scale(0.2 -0.2)">
       <use xlink:href="#DejaVuSans-34"/>
      </g>
     </g>
    </g>
    <g id="xtick_4">
     <g id="line2d_11">
      <path clip-path="url(#p35a850e37d)" d="M 293.589714 294.88 
L 293.589714 24.84 
" style="fill:none;stroke:#b0b0b0;stroke-linecap:square;stroke-width:0.8;"/>
     </g>
     <g id="line2d_12">
      <g>
       <use style="stroke:#000000;stroke-width:0.8;" x="293.589714" xlink:href="#mdca50bcc45" y="294.88"/>
      </g>
     </g>
     <g id="text_4">
      <!-- 6 -->
      <defs>
       <path d="M 33.015625 40.375 
Q 26.375 40.375 22.484375 35.828125 
Q 18.609375 31.296875 18.609375 23.390625 
Q 18.609375 15.53125 22.484375 10.953125 
Q 26.375 6.390625 33.015625 6.390625 
Q 39.65625 6.390625 43.53125 10.953125 
Q 47.40625 15.53125 47.40625 23.390625 
Q 47.40625 31.296875 43.53125 35.828125 
Q 39.65625 40.375 33.015625 40.375 
z
M 52.59375 71.296875 
L 52.59375 62.3125 
Q 48.875 64.0625 45.09375 64.984375 
Q 41.3125 65.921875 37.59375 65.921875 
Q 27.828125 65.921875 22.671875 59.328125 
Q 17.53125 52.734375 16.796875 39.40625 
Q 19.671875 43.65625 24.015625 45.921875 
Q 28.375 48.1875 33.59375 48.1875 
Q 44.578125 48.1875 50.953125 41.515625 
Q 57.328125 34.859375 57.328125 23.390625 
Q 57.328125 12.15625 50.6875 5.359375 
Q 44.046875 -1.421875 33.015625 -1.421875 
Q 20.359375 -1.421875 13.671875 8.265625 
Q 6.984375 17.96875 6.984375 36.375 
Q 6.984375 53.65625 15.1875 63.9375 
Q 23.390625 74.21875 37.203125 74.21875 
Q 40.921875 74.21875 44.703125 73.484375 
Q 48.484375 72.75 52.59375 71.296875 
z
" id="DejaVuSans-36"/>
      </defs>
      <g transform="translate(287.227214 317.076875)scale(0.2 -0.2)">
       <use xlink:href="#DejaVuSans-36"/>
      </g>
     </g>
    </g>
    <g id="xtick_5">
     <g id="line2d_13">
      <path clip-path="url(#p35a850e37d)" d="M 56.12 294.88 
L 56.12 24.84 
" style="fill:none;stroke:#b0b0b0;stroke-linecap:square;stroke-width:0.8;"/>
     </g>
     <g id="line2d_14">
      <defs>
       <path d="M 0 0 
L 0 2 
" id="m7096abaaf9" style="stroke:#000000;stroke-width:0.6;"/>
      </defs>
      <g>
       <use style="stroke:#000000;stroke-width:0.6;" x="56.12" xlink:href="#m7096abaaf9" y="294.88"/>
      </g>
     </g>
    </g>
    <g id="xtick_6">
     <g id="line2d_15">
      <path clip-path="url(#p35a850e37d)" d="M 95.698286 294.88 
L 95.698286 24.84 
" style="fill:none;stroke:#b0b0b0;stroke-linecap:square;stroke-width:0.8;"/>
     </g>
     <g id="line2d_16">
      <g>
       <use style="stroke:#000000;stroke-width:0.6;" x="95.698286" xlink:href="#m7096abaaf9" y="294.88"/>
      </g>
     </g>
    </g>
    <g id="xtick_7">
     <g id="line2d_17">
      <path clip-path="url(#p35a850e37d)" d="M 135.276571 294.88 
L 135.276571 24.84 
" style="fill:none;stroke:#b0b0b0;stroke-linecap:square;stroke-width:0.8;"/>
     </g>
     <g id="line2d_18">
      <g>
       <use style="stroke:#000000;stroke-width:0.6;" x="135.276571" xlink:href="#m7096abaaf9" y="294.88"/>
      </g>
     </g>
    </g>
    <g id="xtick_8">
     <g id="line2d_19">
      <path clip-path="url(#p35a850e37d)" d="M 174.854857 294.88 
L 174.854857 24.84 
" style="fill:none;stroke:#b0b0b0;stroke-linecap:square;stroke-width:0.8;"/>
     </g>
     <g id="line2d_20">
      <g>
       <use style="stroke:#000000;stroke-width:0.6;" x="174.854857" xlink:href="#m7096abaaf9" y="294.88"/>
      </g>
     </g>
    </g>
    <g id="xtick_9">
     <g id="line2d_21">
      <path clip-path="url(#p35a850e37d)" d="M 214.433143 294.88 
L 214.433143 24.84 
" style="fill:none;stroke:#b0b0b0;stroke-linecap:square;stroke-width:0.8;"/>
     </g>
     <g id="line2d_22">
      <g>
       <use style="stroke:#000000;stroke-width:0.6;" x="214.433143" xlink:href="#m7096abaaf9" y="294.88"/>
      </g>
     </g>
    </g>
    <g id="xtick_10">
     <g id="line2d_23">
      <path clip-path="url(#p35a850e37d)" d="M 254.011429 294.88 
L 254.011429 24.84 
" style="fill:none;stroke:#b0b0b0;stroke-linecap:square;stroke-width:0.8;"/>
     </g>
     <g id="line2d_24">
      <g>
       <use style="stroke:#000000;stroke-width:0.6;" x="254.011429" xlink:href="#m7096abaaf9" y="294.88"/>
      </g>
     </g>
    </g>
    <g id="xtick_11">
     <g id="line2d_25">
      <path clip-path="url(#p35a850e37d)" d="M 293.589714 294.88 
L 293.589714 24.84 
" style="fill:none;stroke:#b0b0b0;stroke-linecap:square;stroke-width:0.8;"/>
     </g>
     <g id="line2d_26">
      <g>
       <use style="stroke:#000000;stroke-width:0.6;" x="293.589714" xlink:href="#m7096abaaf9" y="294.88"/>
      </g>
     </g>
    </g>
    <g id="xtick_12">
     <g id="line2d_27">
      <path clip-path="url(#p35a850e37d)" d="M 333.168 294.88 
L 333.168 24.84 
" style="fill:none;stroke:#b0b0b0;stroke-linecap:square;stroke-width:0.8;"/>
     </g>
     <g id="line2d_28">
      <g>
       <use style="stroke:#000000;stroke-width:0.6;" x="333.168" xlink:href="#m7096abaaf9" y="294.88"/>
      </g>
     </g>
    </g>
    <g id="text_5">
     <!-- log10(# f-evals / dimension) -->
     <defs>
      <path d="M 9.421875 75.984375 
L 18.40625 75.984375 
L 18.40625 0 
L 9.421875 0 
z
" id="DejaVuSans-6c"/>
      <path d="M 30.609375 48.390625 
Q 23.390625 48.390625 19.1875 42.75 
Q 14.984375 37.109375 14.984375 27.296875 
Q 14.984375 17.484375 19.15625 11.84375 
Q 23.34375 6.203125 30.609375 6.203125 
Q 37.796875 6.203125 41.984375 11.859375 
Q 46.1875 17.53125 46.1875 27.296875 
Q 46.1875 37.015625 41.984375 42.703125 
Q 37.796875 48.390625 30.609375 48.390625 
z
M 30.609375 56 
Q 42.328125 56 49.015625 48.375 
Q 55.71875 40.765625 55.71875 27.296875 
Q 55.71875 13.875 49.015625 6.21875 
Q 42.328125 -1.421875 30.609375 -1.421875 
Q 18.84375 -1.421875 12.171875 6.21875 
Q 5.515625 13.875 5.515625 27.296875 
Q 5.515625 40.765625 12.171875 48.375 
Q 18.84375 56 30.609375 56 
z
" id="DejaVuSans-6f"/>
      <path d="M 45.40625 27.984375 
Q 45.40625 37.75 41.375 43.109375 
Q 37.359375 48.484375 30.078125 48.484375 
Q 22.859375 48.484375 18.828125 43.109375 
Q 14.796875 37.75 14.796875 27.984375 
Q 14.796875 18.265625 18.828125 12.890625 
Q 22.859375 7.515625 30.078125 7.515625 
Q 37.359375 7.515625 41.375 12.890625 
Q 45.40625 18.265625 45.40625 27.984375 
z
M 54.390625 6.78125 
Q 54.390625 -7.171875 48.1875 -13.984375 
Q 42 -20.796875 29.203125 -20.796875 
Q 24.46875 -20.796875 20.265625 -20.09375 
Q 16.0625 -19.390625 12.109375 -17.921875 
L 12.109375 -9.1875 
Q 16.0625 -11.328125 19.921875 -12.34375 
Q 23.78125 -13.375 27.78125 -13.375 
Q 36.625 -13.375 41.015625 -8.765625 
Q 45.40625 -4.15625 45.40625 5.171875 
L 45.40625 9.625 
Q 42.625 4.78125 38.28125 2.390625 
Q 33.9375 0 27.875 0 
Q 17.828125 0 11.671875 7.65625 
Q 5.515625 15.328125 5.515625 27.984375 
Q 5.515625 40.671875 11.671875 48.328125 
Q 17.828125 56 27.875 56 
Q 33.9375 56 38.28125 53.609375 
Q 42.625 51.21875 45.40625 46.390625 
L 45.40625 54.6875 
L 54.390625 54.6875 
z
" id="DejaVuSans-67"/>
      <path d="M 12.40625 8.296875 
L 28.515625 8.296875 
L 28.515625 63.921875 
L 10.984375 60.40625 
L 10.984375 69.390625 
L 28.421875 72.90625 
L 38.28125 72.90625 
L 38.28125 8.296875 
L 54.390625 8.296875 
L 54.390625 0 
L 12.40625 0 
z
" id="DejaVuSans-31"/>
      <path d="M 31 75.875 
Q 24.46875 64.65625 21.28125 53.65625 
Q 18.109375 42.671875 18.109375 31.390625 
Q 18.109375 20.125 21.3125 9.0625 
Q 24.515625 -2 31 -13.1875 
L 23.1875 -13.1875 
Q 15.875 -1.703125 12.234375 9.375 
Q 8.59375 20.453125 8.59375 31.390625 
Q 8.59375 42.28125 12.203125 53.3125 
Q 15.828125 64.359375 23.1875 75.875 
z
" id="DejaVuSans-28"/>
      <path d="M 51.125 44 
L 36.921875 44 
L 32.8125 27.6875 
L 47.125 27.6875 
z
M 43.796875 71.78125 
L 38.71875 51.515625 
L 52.984375 51.515625 
L 58.109375 71.78125 
L 65.921875 71.78125 
L 60.890625 51.515625 
L 76.125 51.515625 
L 76.125 44 
L 58.984375 44 
L 54.984375 27.6875 
L 70.515625 27.6875 
L 70.515625 20.21875 
L 53.078125 20.21875 
L 48 0 
L 40.1875 0 
L 45.21875 20.21875 
L 30.90625 20.21875 
L 25.875 0 
L 18.015625 0 
L 23.09375 20.21875 
L 7.71875 20.21875 
L 7.71875 27.6875 
L 24.90625 27.6875 
L 29 44 
L 13.28125 44 
L 13.28125 51.515625 
L 30.90625 51.515625 
L 35.890625 71.78125 
z
" id="DejaVuSans-23"/>
      <path id="DejaVuSans-20"/>
      <path d="M 37.109375 75.984375 
L 37.109375 68.5 
L 28.515625 68.5 
Q 23.6875 68.5 21.796875 66.546875 
Q 19.921875 64.59375 19.921875 59.515625 
L 19.921875 54.6875 
L 34.71875 54.6875 
L 34.71875 47.703125 
L 19.921875 47.703125 
L 19.921875 0 
L 10.890625 0 
L 10.890625 47.703125 
L 2.296875 47.703125 
L 2.296875 54.6875 
L 10.890625 54.6875 
L 10.890625 58.5 
Q 10.890625 67.625 15.140625 71.796875 
Q 19.390625 75.984375 28.609375 75.984375 
z
" id="DejaVuSans-66"/>
      <path d="M 4.890625 31.390625 
L 31.203125 31.390625 
L 31.203125 23.390625 
L 4.890625 23.390625 
z
" id="DejaVuSans-2d"/>
      <path d="M 56.203125 29.59375 
L 56.203125 25.203125 
L 14.890625 25.203125 
Q 15.484375 15.921875 20.484375 11.0625 
Q 25.484375 6.203125 34.421875 6.203125 
Q 39.59375 6.203125 44.453125 7.46875 
Q 49.3125 8.734375 54.109375 11.28125 
L 54.109375 2.78125 
Q 49.265625 0.734375 44.1875 -0.34375 
Q 39.109375 -1.421875 33.890625 -1.421875 
Q 20.796875 -1.421875 13.15625 6.1875 
Q 5.515625 13.8125 5.515625 26.8125 
Q 5.515625 40.234375 12.765625 48.109375 
Q 20.015625 56 32.328125 56 
Q 43.359375 56 49.78125 48.890625 
Q 56.203125 41.796875 56.203125 29.59375 
z
M 47.21875 32.234375 
Q 47.125 39.59375 43.09375 43.984375 
Q 39.0625 48.390625 32.421875 48.390625 
Q 24.90625 48.390625 20.390625 44.140625 
Q 15.875 39.890625 15.1875 32.171875 
z
" id="DejaVuSans-65"/>
      <path d="M 2.984375 54.6875 
L 12.5 54.6875 
L 29.59375 8.796875 
L 46.6875 54.6875 
L 56.203125 54.6875 
L 35.6875 0 
L 23.484375 0 
z
" id="DejaVuSans-76"/>
      <path d="M 34.28125 27.484375 
Q 23.390625 27.484375 19.1875 25 
Q 14.984375 22.515625 14.984375 16.5 
Q 14.984375 11.71875 18.140625 8.90625 
Q 21.296875 6.109375 26.703125 6.109375 
Q 34.1875 6.109375 38.703125 11.40625 
Q 43.21875 16.703125 43.21875 25.484375 
L 43.21875 27.484375 
z
M 52.203125 31.203125 
L 52.203125 0 
L 43.21875 0 
L 43.21875 8.296875 
Q 40.140625 3.328125 35.546875 0.953125 
Q 30.953125 -1.421875 24.3125 -1.421875 
Q 15.921875 -1.421875 10.953125 3.296875 
Q 6 8.015625 6 15.921875 
Q 6 25.140625 12.171875 29.828125 
Q 18.359375 34.515625 30.609375 34.515625 
L 43.21875 34.515625 
L 43.21875 35.40625 
Q 43.21875 41.609375 39.140625 45 
Q 35.0625 48.390625 27.6875 48.390625 
Q 23 48.390625 18.546875 47.265625 
Q 14.109375 46.140625 10.015625 43.890625 
L 10.015625 52.203125 
Q 14.9375 54.109375 19.578125 55.046875 
Q 24.21875 56 28.609375 56 
Q 40.484375 56 46.34375 49.84375 
Q 52.203125 43.703125 52.203125 31.203125 
z
" id="DejaVuSans-61"/>
      <path d="M 44.28125 53.078125 
L 44.28125 44.578125 
Q 40.484375 46.53125 36.375 47.5 
Q 32.28125 48.484375 27.875 48.484375 
Q 21.1875 48.484375 17.84375 46.4375 
Q 14.5 44.390625 14.5 40.28125 
Q 14.5 37.15625 16.890625 35.375 
Q 19.28125 33.59375 26.515625 31.984375 
L 29.59375 31.296875 
Q 39.15625 29.25 43.1875 25.515625 
Q 47.21875 21.78125 47.21875 15.09375 
Q 47.21875 7.46875 41.1875 3.015625 
Q 35.15625 -1.421875 24.609375 -1.421875 
Q 20.21875 -1.421875 15.453125 -0.5625 
Q 10.6875 0.296875 5.421875 2 
L 5.421875 11.28125 
Q 10.40625 8.6875 15.234375 7.390625 
Q 20.0625 6.109375 24.8125 6.109375 
Q 31.15625 6.109375 34.5625 8.28125 
Q 37.984375 10.453125 37.984375 14.40625 
Q 37.984375 18.0625 35.515625 20.015625 
Q 33.0625 21.96875 24.703125 23.78125 
L 21.578125 24.515625 
Q 13.234375 26.265625 9.515625 29.90625 
Q 5.8125 33.546875 5.8125 39.890625 
Q 5.8125 47.609375 11.28125 51.796875 
Q 16.75 56 26.8125 56 
Q 31.78125 56 36.171875 55.265625 
Q 40.578125 54.546875 44.28125 53.078125 
z
" id="DejaVuSans-73"/>
      <path d="M 25.390625 72.90625 
L 33.6875 72.90625 
L 8.296875 -9.28125 
L 0 -9.28125 
z
" id="DejaVuSans-2f"/>
      <path d="M 45.40625 46.390625 
L 45.40625 75.984375 
L 54.390625 75.984375 
L 54.390625 0 
L 45.40625 0 
L 45.40625 8.203125 
Q 42.578125 3.328125 38.25 0.953125 
Q 33.9375 -1.421875 27.875 -1.421875 
Q 17.96875 -1.421875 11.734375 6.484375 
Q 5.515625 14.40625 5.515625 27.296875 
Q 5.515625 40.1875 11.734375 48.09375 
Q 17.96875 56 27.875 56 
Q 33.9375 56 38.25 53.625 
Q 42.578125 51.265625 45.40625 46.390625 
z
M 14.796875 27.296875 
Q 14.796875 17.390625 18.875 11.75 
Q 22.953125 6.109375 30.078125 6.109375 
Q 37.203125 6.109375 41.296875 11.75 
Q 45.40625 17.390625 45.40625 27.296875 
Q 45.40625 37.203125 41.296875 42.84375 
Q 37.203125 48.484375 30.078125 48.484375 
Q 22.953125 48.484375 18.875 42.84375 
Q 14.796875 37.203125 14.796875 27.296875 
z
" id="DejaVuSans-64"/>
      <path d="M 9.421875 54.6875 
L 18.40625 54.6875 
L 18.40625 0 
L 9.421875 0 
z
M 9.421875 75.984375 
L 18.40625 75.984375 
L 18.40625 64.59375 
L 9.421875 64.59375 
z
" id="DejaVuSans-69"/>
      <path d="M 52 44.1875 
Q 55.375 50.25 60.0625 53.125 
Q 64.75 56 71.09375 56 
Q 79.640625 56 84.28125 50.015625 
Q 88.921875 44.046875 88.921875 33.015625 
L 88.921875 0 
L 79.890625 0 
L 79.890625 32.71875 
Q 79.890625 40.578125 77.09375 44.375 
Q 74.3125 48.1875 68.609375 48.1875 
Q 61.625 48.1875 57.5625 43.546875 
Q 53.515625 38.921875 53.515625 30.90625 
L 53.515625 0 
L 44.484375 0 
L 44.484375 32.71875 
Q 44.484375 40.625 41.703125 44.40625 
Q 38.921875 48.1875 33.109375 48.1875 
Q 26.21875 48.1875 22.15625 43.53125 
Q 18.109375 38.875 18.109375 30.90625 
L 18.109375 0 
L 9.078125 0 
L 9.078125 54.6875 
L 18.109375 54.6875 
L 18.109375 46.1875 
Q 21.1875 51.21875 25.484375 53.609375 
Q 29.78125 56 35.6875 56 
Q 41.65625 56 45.828125 52.96875 
Q 50 49.953125 52 44.1875 
z
" id="DejaVuSans-6d"/>
      <path d="M 54.890625 33.015625 
L 54.890625 0 
L 45.90625 0 
L 45.90625 32.71875 
Q 45.90625 40.484375 42.875 44.328125 
Q 39.84375 48.1875 33.796875 48.1875 
Q 26.515625 48.1875 22.3125 43.546875 
Q 18.109375 38.921875 18.109375 30.90625 
L 18.109375 0 
L 9.078125 0 
L 9.078125 54.6875 
L 18.109375 54.6875 
L 18.109375 46.1875 
Q 21.34375 51.125 25.703125 53.5625 
Q 30.078125 56 35.796875 56 
Q 45.21875 56 50.046875 50.171875 
Q 54.890625 44.34375 54.890625 33.015625 
z
" id="DejaVuSans-6e"/>
      <path d="M 8.015625 75.875 
L 15.828125 75.875 
Q 23.140625 64.359375 26.78125 53.3125 
Q 30.421875 42.28125 30.421875 31.390625 
Q 30.421875 20.453125 26.78125 9.375 
Q 23.140625 -1.703125 15.828125 -13.1875 
L 8.015625 -13.1875 
Q 14.5 -2 17.703125 9.0625 
Q 20.90625 20.125 20.90625 31.390625 
Q 20.90625 42.671875 17.703125 53.65625 
Q 14.5 64.65625 8.015625 75.875 
z
" id="DejaVuSans-29"/>
     </defs>
     <g transform="translate(73.803219 338.153594)scale(0.17 -0.17)">
      <use xlink:href="#DejaVuSans-6c"/>
      <use x="27.783203" xlink:href="#DejaVuSans-6f"/>
      <use x="88.964844" xlink:href="#DejaVuSans-67"/>
      <use x="152.441406" xlink:href="#DejaVuSans-31"/>
      <use x="216.064453" xlink:href="#DejaVuSans-30"/>
      <use x="279.6875" xlink:href="#DejaVuSans-28"/>
      <use x="318.701172" xlink:href="#DejaVuSans-23"/>
      <use x="402.490234" xlink:href="#DejaVuSans-20"/>
      <use x="434.277344" xlink:href="#DejaVuSans-66"/>
      <use x="469.404297" xlink:href="#DejaVuSans-2d"/>
      <use x="505.488281" xlink:href="#DejaVuSans-65"/>
      <use x="567.011719" xlink:href="#DejaVuSans-76"/>
      <use x="626.191406" xlink:href="#DejaVuSans-61"/>
      <use x="687.470703" xlink:href="#DejaVuSans-6c"/>
      <use x="715.253906" xlink:href="#DejaVuSans-73"/>
      <use x="767.353516" xlink:href="#DejaVuSans-20"/>
      <use x="799.140625" xlink:href="#DejaVuSans-2f"/>
      <use x="832.832031" xlink:href="#DejaVuSans-20"/>
      <use x="864.619141" xlink:href="#DejaVuSans-64"/>
      <use x="928.095703" xlink:href="#DejaVuSans-69"/>
      <use x="955.878906" xlink:href="#DejaVuSans-6d"/>
      <use x="1053.291016" xlink:href="#DejaVuSans-65"/>
      <use x="1114.814453" xlink:href="#DejaVuSans-6e"/>
      <use x="1178.193359" xlink:href="#DejaVuSans-73"/>
      <use x="1230.292969" xlink:href="#DejaVuSans-69"/>
      <use x="1258.076172" xlink:href="#DejaVuSans-6f"/>
      <use x="1319.257812" xlink:href="#DejaVuSans-6e"/>
      <use x="1382.636719" xlink:href="#DejaVuSans-29"/>
     </g>
    </g>
   </g>
   <g id="matplotlib.axis_2">
    <g id="ytick_1">
     <g id="line2d_29">
      <path clip-path="url(#p35a850e37d)" d="M 56.12 294.88 
L 333.168 294.88 
" style="fill:none;stroke:#b0b0b0;stroke-linecap:square;stroke-width:0.8;"/>
     </g>
     <g id="line2d_30">
      <defs>
       <path d="M 0 0 
L -3.5 0 
" id="mc58cdcf36f" style="stroke:#000000;stroke-width:0.8;"/>
      </defs>
      <g>
       <use style="stroke:#000000;stroke-width:0.8;" x="56.12" xlink:href="#mc58cdcf36f" y="294.88"/>
      </g>
     </g>
     <g id="text_6">
      <!-- 0.0 -->
      <defs>
       <path d="M 10.6875 12.40625 
L 21 12.40625 
L 21 0 
L 10.6875 0 
z
" id="DejaVuSans-2e"/>
      </defs>
      <g transform="translate(23.675 300.95875)scale(0.16 -0.16)">
       <use xlink:href="#DejaVuSans-30"/>
       <use x="63.623047" xlink:href="#DejaVuSans-2e"/>
       <use x="95.410156" xlink:href="#DejaVuSans-30"/>
      </g>
     </g>
    </g>
    <g id="ytick_2">
     <g id="line2d_31">
      <path clip-path="url(#p35a850e37d)" d="M 56.12 241.406733 
L 333.168 241.406733 
" style="fill:none;stroke:#b0b0b0;stroke-linecap:square;stroke-width:0.8;"/>
     </g>
     <g id="line2d_32">
      <g>
       <use style="stroke:#000000;stroke-width:0.8;" x="56.12" xlink:href="#mc58cdcf36f" y="241.406733"/>
      </g>
     </g>
     <g id="text_7">
      <!-- 0.2 -->
      <g transform="translate(23.675 247.485483)scale(0.16 -0.16)">
       <use xlink:href="#DejaVuSans-30"/>
       <use x="63.623047" xlink:href="#DejaVuSans-2e"/>
       <use x="95.410156" xlink:href="#DejaVuSans-32"/>
      </g>
     </g>
    </g>
    <g id="ytick_3">
     <g id="line2d_33">
      <path clip-path="url(#p35a850e37d)" d="M 56.12 187.933465 
L 333.168 187.933465 
" style="fill:none;stroke:#b0b0b0;stroke-linecap:square;stroke-width:0.8;"/>
     </g>
     <g id="line2d_34">
      <g>
       <use style="stroke:#000000;stroke-width:0.8;" x="56.12" xlink:href="#mc58cdcf36f" y="187.933465"/>
      </g>
     </g>
     <g id="text_8">
      <!-- 0.4 -->
      <g transform="translate(23.675 194.012215)scale(0.16 -0.16)">
       <use xlink:href="#DejaVuSans-30"/>
       <use x="63.623047" xlink:href="#DejaVuSans-2e"/>
       <use x="95.410156" xlink:href="#DejaVuSans-34"/>
      </g>
     </g>
    </g>
    <g id="ytick_4">
     <g id="line2d_35">
      <path clip-path="url(#p35a850e37d)" d="M 56.12 134.460198 
L 333.168 134.460198 
" style="fill:none;stroke:#b0b0b0;stroke-linecap:square;stroke-width:0.8;"/>
     </g>
     <g id="line2d_36">
      <g>
       <use style="stroke:#000000;stroke-width:0.8;" x="56.12" xlink:href="#mc58cdcf36f" y="134.460198"/>
      </g>
     </g>
     <g id="text_9">
      <!-- 0.6 -->
      <g transform="translate(23.675 140.538948)scale(0.16 -0.16)">
       <use xlink:href="#DejaVuSans-30"/>
       <use x="63.623047" xlink:href="#DejaVuSans-2e"/>
       <use x="95.410156" xlink:href="#DejaVuSans-36"/>
      </g>
     </g>
    </g>
    <g id="ytick_5">
     <g id="line2d_37">
      <path clip-path="url(#p35a850e37d)" d="M 56.12 80.986931 
L 333.168 80.986931 
" style="fill:none;stroke:#b0b0b0;stroke-linecap:square;stroke-width:0.8;"/>
     </g>
     <g id="line2d_38">
      <g>
       <use style="stroke:#000000;stroke-width:0.8;" x="56.12" xlink:href="#mc58cdcf36f" y="80.986931"/>
      </g>
     </g>
     <g id="text_10">
      <!-- 0.8 -->
      <defs>
       <path d="M 31.78125 34.625 
Q 24.75 34.625 20.71875 30.859375 
Q 16.703125 27.09375 16.703125 20.515625 
Q 16.703125 13.921875 20.71875 10.15625 
Q 24.75 6.390625 31.78125 6.390625 
Q 38.8125 6.390625 42.859375 10.171875 
Q 46.921875 13.96875 46.921875 20.515625 
Q 46.921875 27.09375 42.890625 30.859375 
Q 38.875 34.625 31.78125 34.625 
z
M 21.921875 38.8125 
Q 15.578125 40.375 12.03125 44.71875 
Q 8.5 49.078125 8.5 55.328125 
Q 8.5 64.0625 14.71875 69.140625 
Q 20.953125 74.21875 31.78125 74.21875 
Q 42.671875 74.21875 48.875 69.140625 
Q 55.078125 64.0625 55.078125 55.328125 
Q 55.078125 49.078125 51.53125 44.71875 
Q 48 40.375 41.703125 38.8125 
Q 48.828125 37.15625 52.796875 32.3125 
Q 56.78125 27.484375 56.78125 20.515625 
Q 56.78125 9.90625 50.3125 4.234375 
Q 43.84375 -1.421875 31.78125 -1.421875 
Q 19.734375 -1.421875 13.25 4.234375 
Q 6.78125 9.90625 6.78125 20.515625 
Q 6.78125 27.484375 10.78125 32.3125 
Q 14.796875 37.15625 21.921875 38.8125 
z
M 18.3125 54.390625 
Q 18.3125 48.734375 21.84375 45.5625 
Q 25.390625 42.390625 31.78125 42.390625 
Q 38.140625 42.390625 41.71875 45.5625 
Q 45.3125 48.734375 45.3125 54.390625 
Q 45.3125 60.0625 41.71875 63.234375 
Q 38.140625 66.40625 31.78125 66.40625 
Q 25.390625 66.40625 21.84375 63.234375 
Q 18.3125 60.0625 18.3125 54.390625 
z
" id="DejaVuSans-38"/>
      </defs>
      <g transform="translate(23.675 87.065681)scale(0.16 -0.16)">
       <use xlink:href="#DejaVuSans-30"/>
       <use x="63.623047" xlink:href="#DejaVuSans-2e"/>
       <use x="95.410156" xlink:href="#DejaVuSans-38"/>
      </g>
     </g>
    </g>
    <g id="ytick_6">
     <g id="line2d_39">
      <path clip-path="url(#p35a850e37d)" d="M 56.12 27.513663 
L 333.168 27.513663 
" style="fill:none;stroke:#b0b0b0;stroke-linecap:square;stroke-width:0.8;"/>
     </g>
     <g id="line2d_40">
      <g>
       <use style="stroke:#000000;stroke-width:0.8;" x="56.12" xlink:href="#mc58cdcf36f" y="27.513663"/>
      </g>
     </g>
     <g id="text_11">
      <!-- 1.0 -->
      <g transform="translate(23.675 33.592413)scale(0.16 -0.16)">
       <use xlink:href="#DejaVuSans-31"/>
       <use x="63.623047" xlink:href="#DejaVuSans-2e"/>
       <use x="95.410156" xlink:href="#DejaVuSans-30"/>
      </g>
     </g>
    </g>
    <g id="text_12">
     <!-- Fraction of function,target pairs -->
     <defs>
      <path d="M 9.8125 72.90625 
L 51.703125 72.90625 
L 51.703125 64.59375 
L 19.671875 64.59375 
L 19.671875 43.109375 
L 48.578125 43.109375 
L 48.578125 34.8125 
L 19.671875 34.8125 
L 19.671875 0 
L 9.8125 0 
z
" id="DejaVuSans-46"/>
      <path d="M 41.109375 46.296875 
Q 39.59375 47.171875 37.8125 47.578125 
Q 36.03125 48 33.890625 48 
Q 26.265625 48 22.1875 43.046875 
Q 18.109375 38.09375 18.109375 28.8125 
L 18.109375 0 
L 9.078125 0 
L 9.078125 54.6875 
L 18.109375 54.6875 
L 18.109375 46.1875 
Q 20.953125 51.171875 25.484375 53.578125 
Q 30.03125 56 36.53125 56 
Q 37.453125 56 38.578125 55.875 
Q 39.703125 55.765625 41.0625 55.515625 
z
" id="DejaVuSans-72"/>
      <path d="M 48.78125 52.59375 
L 48.78125 44.1875 
Q 44.96875 46.296875 41.140625 47.34375 
Q 37.3125 48.390625 33.40625 48.390625 
Q 24.65625 48.390625 19.8125 42.84375 
Q 14.984375 37.3125 14.984375 27.296875 
Q 14.984375 17.28125 19.8125 11.734375 
Q 24.65625 6.203125 33.40625 6.203125 
Q 37.3125 6.203125 41.140625 7.25 
Q 44.96875 8.296875 48.78125 10.40625 
L 48.78125 2.09375 
Q 45.015625 0.34375 40.984375 -0.53125 
Q 36.96875 -1.421875 32.421875 -1.421875 
Q 20.0625 -1.421875 12.78125 6.34375 
Q 5.515625 14.109375 5.515625 27.296875 
Q 5.515625 40.671875 12.859375 48.328125 
Q 20.21875 56 33.015625 56 
Q 37.15625 56 41.109375 55.140625 
Q 45.0625 54.296875 48.78125 52.59375 
z
" id="DejaVuSans-63"/>
      <path d="M 18.3125 70.21875 
L 18.3125 54.6875 
L 36.8125 54.6875 
L 36.8125 47.703125 
L 18.3125 47.703125 
L 18.3125 18.015625 
Q 18.3125 11.328125 20.140625 9.421875 
Q 21.96875 7.515625 27.59375 7.515625 
L 36.8125 7.515625 
L 36.8125 0 
L 27.59375 0 
Q 17.1875 0 13.234375 3.875 
Q 9.28125 7.765625 9.28125 18.015625 
L 9.28125 47.703125 
L 2.6875 47.703125 
L 2.6875 54.6875 
L 9.28125 54.6875 
L 9.28125 70.21875 
z
" id="DejaVuSans-74"/>
      <path d="M 8.5 21.578125 
L 8.5 54.6875 
L 17.484375 54.6875 
L 17.484375 21.921875 
Q 17.484375 14.15625 20.5 10.265625 
Q 23.53125 6.390625 29.59375 6.390625 
Q 36.859375 6.390625 41.078125 11.03125 
Q 45.3125 15.671875 45.3125 23.6875 
L 45.3125 54.6875 
L 54.296875 54.6875 
L 54.296875 0 
L 45.3125 0 
L 45.3125 8.40625 
Q 42.046875 3.421875 37.71875 1 
Q 33.40625 -1.421875 27.6875 -1.421875 
Q 18.265625 -1.421875 13.375 4.4375 
Q 8.5 10.296875 8.5 21.578125 
z
M 31.109375 56 
z
" id="DejaVuSans-75"/>
      <path d="M 11.71875 12.40625 
L 22.015625 12.40625 
L 22.015625 4 
L 14.015625 -11.625 
L 7.71875 -11.625 
L 11.71875 4 
z
" id="DejaVuSans-2c"/>
      <path d="M 18.109375 8.203125 
L 18.109375 -20.796875 
L 9.078125 -20.796875 
L 9.078125 54.6875 
L 18.109375 54.6875 
L 18.109375 46.390625 
Q 20.953125 51.265625 25.265625 53.625 
Q 29.59375 56 35.59375 56 
Q 45.5625 56 51.78125 48.09375 
Q 58.015625 40.1875 58.015625 27.296875 
Q 58.015625 14.40625 51.78125 6.484375 
Q 45.5625 -1.421875 35.59375 -1.421875 
Q 29.59375 -1.421875 25.265625 0.953125 
Q 20.953125 3.328125 18.109375 8.203125 
z
M 48.6875 27.296875 
Q 48.6875 37.203125 44.609375 42.84375 
Q 40.53125 48.484375 33.40625 48.484375 
Q 26.265625 48.484375 22.1875 42.84375 
Q 18.109375 37.203125 18.109375 27.296875 
Q 18.109375 17.390625 22.1875 11.75 
Q 26.265625 6.109375 33.40625 6.109375 
Q 40.53125 6.109375 44.609375 11.75 
Q 48.6875 17.390625 48.6875 27.296875 
z
" id="DejaVuSans-70"/>
     </defs>
     <g transform="translate(16.139531 294.999375)rotate(-90)scale(0.17 -0.17)">
      <use xlink:href="#DejaVuSans-46"/>
      <use x="57.410156" xlink:href="#DejaVuSans-72"/>
      <use x="98.523438" xlink:href="#DejaVuSans-61"/>
      <use x="159.802734" xlink:href="#DejaVuSans-63"/>
      <use x="214.783203" xlink:href="#DejaVuSans-74"/>
      <use x="253.992188" xlink:href="#DejaVuSans-69"/>
      <use x="281.775391" xlink:href="#DejaVuSans-6f"/>
      <use x="342.957031" xlink:href="#DejaVuSans-6e"/>
      <use x="406.335938" xlink:href="#DejaVuSans-20"/>
      <use x="438.123047" xlink:href="#DejaVuSans-6f"/>
      <use x="499.304688" xlink:href="#DejaVuSans-66"/>
      <use x="534.509766" xlink:href="#DejaVuSans-20"/>
      <use x="566.296875" xlink:href="#DejaVuSans-66"/>
      <use x="601.501953" xlink:href="#DejaVuSans-75"/>
      <use x="664.880859" xlink:href="#DejaVuSans-6e"/>
      <use x="728.259766" xlink:href="#DejaVuSans-63"/>
      <use x="783.240234" xlink:href="#DejaVuSans-74"/>
      <use x="822.449219" xlink:href="#DejaVuSans-69"/>
      <use x="850.232422" xlink:href="#DejaVuSans-6f"/>
      <use x="911.414062" xlink:href="#DejaVuSans-6e"/>
      <use x="974.792969" xlink:href="#DejaVuSans-2c"/>
      <use x="1006.580078" xlink:href="#DejaVuSans-74"/>
      <use x="1045.789062" xlink:href="#DejaVuSans-61"/>
      <use x="1107.068359" xlink:href="#DejaVuSans-72"/>
      <use x="1148.166016" xlink:href="#DejaVuSans-67"/>
      <use x="1211.642578" xlink:href="#DejaVuSans-65"/>
      <use x="1273.166016" xlink:href="#DejaVuSans-74"/>
      <use x="1312.375" xlink:href="#DejaVuSans-20"/>
      <use x="1344.162109" xlink:href="#DejaVuSans-70"/>
      <use x="1407.638672" xlink:href="#DejaVuSans-61"/>
      <use x="1468.917969" xlink:href="#DejaVuSans-69"/>
      <use x="1496.701172" xlink:href="#DejaVuSans-72"/>
      <use x="1537.814453" xlink:href="#DejaVuSans-73"/>
     </g>
    </g>
   </g>
   <g id="line2d_41">
    <defs>
     <path d="M 0 1.5 
C 0.397805 1.5 0.77937 1.341951 1.06066 1.06066 
C 1.341951 0.77937 1.5 0.397805 1.5 0 
C 1.5 -0.397805 1.341951 -0.77937 1.06066 -1.06066 
C 0.77937 -1.341951 0.397805 -1.5 0 -1.5 
C -0.397805 -1.5 -0.77937 -1.341951 -1.06066 -1.06066 
C -1.341951 -0.77937 -1.5 -0.397805 -1.5 0 
C -1.5 0.397805 -1.341951 0.77937 -1.06066 1.06066 
C -0.77937 1.341951 -0.397805 1.5 0 1.5 
z
" id="m650fafba9c" style="stroke:#f5deb3;"/>
    </defs>
    <g>
     <use style="fill:#f5deb3;stroke:#f5deb3;" x="141.859684" xlink:href="#m650fafba9c" y="27.513663"/>
     <use style="fill:#f5deb3;stroke:#f5deb3;" x="141.859684" xlink:href="#m650fafba9c" y="27.513663"/>
    </g>
   </g>
   <g id="line2d_42">
    <defs>
     <path d="M 0 1.5 
C 0.397805 1.5 0.77937 1.341951 1.06066 1.06066 
C 1.341951 0.77937 1.5 0.397805 1.5 0 
C 1.5 -0.397805 1.341951 -0.77937 1.06066 -1.06066 
C 0.77937 -1.341951 0.397805 -1.5 0 -1.5 
C -0.397805 -1.5 -0.77937 -1.341951 -1.06066 -1.06066 
C -1.341951 -0.77937 -1.5 -0.397805 -1.5 0 
C -1.5 0.397805 -1.341951 0.77937 -1.06066 1.06066 
C -0.77937 1.341951 -0.397805 1.5 0 1.5 
z
" id="m28c7e947b4" style="stroke:#000080;"/>
    </defs>
    <g>
     <use style="fill:#000080;stroke:#000080;" x="201.547737" xlink:href="#m28c7e947b4" y="169.060547"/>
     <use style="fill:#000080;stroke:#000080;" x="201.547737" xlink:href="#m28c7e947b4" y="169.060547"/>
    </g>
   </g>
   <g id="line2d_43">
    <path d="M 102.281398 294.88 
L 102.281398 293.831505 
L 113.19018 293.831505 
L 113.19018 293.307257 
L 114.195649 293.307257 
L 114.195649 292.783009 
L 114.771859 292.783009 
L 114.771859 292.258761 
L 115.691256 292.258761 
L 115.691256 291.734514 
L 115.869378 291.734514 
L 115.869378 291.210266 
L 116.220179 291.210266 
L 116.220179 290.161771 
L 116.563963 290.161771 
L 116.563963 289.637523 
L 116.901005 289.637523 
L 116.901005 289.113275 
L 118.031182 289.113275 
L 118.031182 287.016284 
L 118.186736 287.016284 
L 118.186736 285.443541 
L 119.09161 285.443541 
L 119.09161 284.919293 
L 119.237897 284.919293 
L 119.237897 284.395046 
L 119.382949 284.395046 
L 119.382949 283.870798 
L 119.669433 283.870798 
L 119.669433 282.822302 
L 119.95122 282.822302 
L 119.95122 281.773807 
L 120.769881 281.773807 
L 120.769881 281.249559 
L 121.034327 281.249559 
L 121.034327 280.201064 
L 121.16504 280.201064 
L 121.16504 279.676816 
L 121.294766 279.676816 
L 121.294766 278.628321 
L 121.551317 278.628321 
L 121.551317 277.579825 
L 121.678171 277.579825 
L 121.678171 277.055578 
L 122.053211 277.055578 
L 122.053211 276.53133 
L 122.298767 276.53133 
L 122.298767 274.958587 
L 122.540864 274.958587 
L 122.540864 273.910091 
L 122.660646 273.910091 
L 122.660646 273.385844 
L 122.779599 273.385844 
L 122.779599 272.337348 
L 123.015063 272.337348 
L 123.015063 271.8131 
L 123.814679 271.8131 
L 123.814679 271.288853 
L 124.363883 271.288853 
L 124.363883 270.240357 
L 125.000572 270.240357 
L 125.104431 268.667614 
L 125.412295 268.667614 
L 125.412295 268.143366 
L 125.614517 268.143366 
L 125.614517 267.619119 
L 125.913457 267.619119 
L 125.913457 267.094871 
L 126.40042 267.094871 
L 126.496178 266.046375 
L 126.68611 266.046375 
L 126.780294 264.99788 
L 127.05979 264.99788 
L 127.05979 263.949385 
L 127.42552 263.949385 
L 127.42552 263.425137 
L 127.605507 263.425137 
L 127.605507 262.900889 
L 127.783629 262.900889 
L 127.783629 262.376641 
L 128.047399 262.376641 
L 128.047399 261.852394 
L 128.221023 261.852394 
L 128.221023 261.328146 
L 128.647561 261.328146 
L 128.647561 260.279651 
L 129.308744 260.279651 
L 129.308744 259.755403 
L 130.407935 259.755403 
L 130.407935 258.706907 
L 130.784069 258.706907 
L 130.784069 258.18266 
L 131.583684 258.18266 
L 131.583684 257.134164 
L 131.865471 257.134164 
L 131.865471 256.609917 
L 132.142713 256.609917 
L 132.211331 255.561421 
L 132.483094 255.561421 
L 132.483094 253.988678 
L 134.029181 253.988678 
L 134.029181 253.46443 
L 134.273863 253.46443 
L 134.273863 252.940182 
L 134.69385 252.940182 
L 134.69385 252.415935 
L 134.87075 252.415935 
L 134.87075 251.891687 
L 135.390782 251.891687 
L 135.390782 251.367439 
L 135.616951 251.367439 
L 135.616951 250.843192 
L 135.950722 250.843192 
L 135.950722 250.318944 
L 136.278134 250.318944 
L 136.278134 249.794696 
L 137.121917 249.794696 
L 137.121917 249.270448 
L 137.578954 249.270448 
L 137.628993 248.221953 
L 137.975251 248.221953 
L 137.975251 247.697705 
L 138.410429 247.697705 
L 138.410429 247.173458 
L 138.694545 247.173458 
L 138.694545 246.64921 
L 138.834862 246.64921 
L 138.834862 246.124962 
L 139.249066 246.124962 
L 139.249066 245.600714 
L 139.43 245.600714 
L 139.43 245.076467 
L 139.830271 245.076467 
L 139.830271 244.027971 
L 140.477347 244.027971 
L 140.477347 243.503724 
L 140.687737 243.503724 
L 140.687737 242.979476 
L 141.182408 242.979476 
L 141.182408 242.455228 
L 141.623681 242.455228 
L 141.623681 241.93098 
L 141.781376 241.93098 
L 141.781376 241.406733 
L 142.623749 241.406733 
L 142.69832 239.309742 
L 142.920112 239.309742 
L 142.920112 238.785494 
L 143.139078 238.785494 
L 143.139078 238.261246 
L 143.462385 238.261246 
L 143.462385 237.736999 
L 143.779723 237.736999 
L 143.849453 236.688503 
L 144.159788 236.688503 
L 144.159788 235.640008 
L 144.598384 235.640008 
L 144.598384 235.11576 
L 144.797098 235.11576 
L 144.797098 234.591512 
L 144.92831 234.591512 
L 144.92831 234.067265 
L 145.284061 234.067265 
L 145.284061 233.543017 
L 145.601203 233.543017 
L 145.601203 233.018769 
L 146.459281 233.018769 
L 146.459281 232.494521 
L 146.843566 232.494521 
L 146.93104 231.446026 
L 147.104664 231.446026 
L 147.104664 230.397531 
L 147.531203 230.397531 
L 147.531203 229.873283 
L 147.919977 229.873283 
L 147.919977 229.349035 
L 149.11319 229.349035 
L 149.11319 228.824787 
L 149.56821 228.824787 
L 149.618032 227.776292 
L 150.795631 227.776292 
L 150.795631 227.252044 
L 151.231391 227.252044 
L 151.231391 226.727797 
L 151.456376 226.727797 
L 151.456376 226.203549 
L 151.744522 226.203549 
L 151.854074 224.630806 
L 152.726997 224.630806 
L 152.747744 223.58231 
L 153.61696 223.58231 
L 153.61696 223.058063 
L 154.141104 223.058063 
L 154.141104 222.533815 
L 154.852717 222.533815 
L 154.871052 221.485319 
L 155.553658 221.485319 
L 155.606411 220.436824 
L 156.176252 220.436824 
L 156.176252 219.912576 
L 156.512635 219.912576 
L 156.595712 218.864081 
L 157.214309 218.864081 
L 157.309979 217.815585 
L 157.420925 217.815585 
L 157.515455 216.76709 
L 157.749529 216.76709 
L 157.749529 216.242842 
L 158.373532 216.242842 
L 158.373532 215.718594 
L 158.932322 215.718594 
L 158.932322 215.194347 
L 159.047683 215.194347 
L 159.047683 214.670099 
L 159.431405 214.670099 
L 159.431405 214.145851 
L 159.916405 214.145851 
L 159.916405 213.621604 
L 160.106637 213.621604 
L 160.106637 213.097356 
L 160.374795 213.097356 
L 160.374795 212.573108 
L 161.35727 212.573108 
L 161.36983 211.524613 
L 161.619126 211.524613 
L 161.717841 209.95187 
L 162.071002 209.95187 
L 162.071002 209.427622 
L 162.640057 209.427622 
L 162.675005 208.379126 
L 162.906194 208.379126 
L 162.906194 207.854879 
L 163.04343 207.854879 
L 163.077568 206.806383 
L 163.179578 206.806383 
L 163.224722 205.757888 
L 163.30344 205.757888 
L 163.30344 205.23364 
L 163.779242 205.23364 
L 163.855467 204.185145 
L 164.178369 204.185145 
L 164.284668 203.136649 
L 164.744732 203.136649 
L 164.744732 202.612401 
L 165.707708 202.612401 
L 165.707708 202.088154 
L 166.017073 202.088154 
L 166.017073 201.563906 
L 166.273837 201.563906 
L 166.273837 201.039658 
L 166.46159 201.039658 
L 166.517519 199.991163 
L 166.601072 199.991163 
L 166.601072 199.466915 
L 166.985703 199.466915 
L 167.094035 197.894172 
L 167.210629 197.894172 
L 167.210629 197.369924 
L 167.353052 197.369924 
L 167.379626 196.321429 
L 167.625684 196.321429 
L 167.625684 195.797181 
L 167.928385 195.797181 
L 167.928385 195.272933 
L 168.251106 195.272933 
L 168.251106 194.748686 
L 168.943691 194.748686 
L 168.943691 194.224438 
L 169.295634 194.224438 
L 169.366744 193.175943 
L 169.547142 193.175943 
L 169.601672 191.603199 
L 170.810364 191.603199 
L 170.897139 190.554704 
L 171.190358 190.554704 
L 171.190358 190.030456 
L 171.499564 190.030456 
L 171.5274 188.981961 
L 171.926035 188.981961 
L 171.926035 188.457713 
L 172.195666 188.457713 
L 172.195666 187.933465 
L 172.703092 187.933465 
L 172.703092 187.409218 
L 173.87036 187.409218 
L 173.87036 186.88497 
L 174.472486 186.88497 
L 174.554309 185.836474 
L 174.831924 185.836474 
L 174.831924 185.312227 
L 175.412924 185.312227 
L 175.412924 184.787979 
L 176.884478 184.787979 
L 176.884478 184.263731 
L 177.172267 184.263731 
L 177.172267 183.739484 
L 177.35653 183.739484 
L 177.35653 183.215236 
L 177.892956 183.215236 
L 177.998262 182.16674 
L 178.069693 182.16674 
L 178.069693 181.642493 
L 179.864055 181.642493 
L 179.906813 180.593997 
L 180.165357 180.593997 
L 180.165357 180.06975 
L 180.324473 180.06975 
L 180.349463 179.021254 
L 180.861982 179.021254 
L 180.950625 177.972759 
L 182.306344 177.972759 
L 182.306344 177.448511 
L 182.571697 177.448511 
L 182.571697 176.924263 
L 182.72099 176.924263 
L 182.768057 175.875768 
L 183.604283 175.875768 
L 183.604283 175.35152 
L 183.720979 175.35152 
L 183.720979 174.827272 
L 184.542504 174.827272 
L 184.542504 174.303025 
L 185.478538 174.303025 
L 185.478538 173.778777 
L 185.896491 173.778777 
L 185.896491 173.254529 
L 186.769108 173.254529 
L 186.769108 172.730281 
L 187.027845 172.730281 
L 187.027845 172.206034 
L 187.440504 172.206034 
L 187.440504 171.681786 
L 188.601584 171.681786 
L 188.601584 171.157538 
L 191.048068 171.157538 
L 191.048068 170.633291 
L 192.46439 170.633291 
L 192.46439 170.109043 
L 201.504031 170.109043 
L 201.547737 169.060547 
L 333.168 169.060547 
L 333.168 169.060547 
" style="fill:none;stroke:#000080;stroke-linecap:square;stroke-width:1.5;"/>
   </g>
   <g id="line2d_44">
    <defs>
     <path d="M 0 6 
C 1.591219 6 3.117479 5.367802 4.242641 4.242641 
C 5.367802 3.117479 6 1.591219 6 0 
C 6 -1.591219 5.367802 -3.117479 4.242641 -4.242641 
C 3.117479 -5.367802 1.591219 -6 0 -6 
C -1.591219 -6 -3.117479 -5.367802 -4.242641 -4.242641 
C -5.367802 -3.117479 -6 -1.591219 -6 0 
C -6 1.591219 -5.367802 3.117479 -4.242641 4.242641 
C -3.117479 5.367802 -1.591219 6 0 6 
z
" id="m635995f0de" style="stroke:#000080;stroke-width:1.5;"/>
    </defs>
    <g>
     <use style="fill:none;stroke:#000080;stroke-width:1.5;" x="128.647561" xlink:href="#m635995f0de" y="261.328146"/>
     <use style="fill:none;stroke:#000080;stroke-width:1.5;" x="169.601672" xlink:href="#m635995f0de" y="191.603199"/>
     <use style="fill:none;stroke:#000080;stroke-width:1.5;" x="201.547737" xlink:href="#m635995f0de" y="169.584795"/>
     <use style="fill:none;stroke:#000080;stroke-width:1.5;" x="201.547737" xlink:href="#m635995f0de" y="169.060547"/>
     <use style="fill:none;stroke:#000080;stroke-width:1.5;" x="333.168" xlink:href="#m635995f0de" y="169.060547"/>
    </g>
   </g>
   <g id="line2d_45">
    <path style="fill:none;stroke:#000080;stroke-linecap:square;stroke-width:1.5;"/>
    <g/>
   </g>
   <g id="line2d_46">
    <path clip-path="url(#p35a850e37d)" d="M 131.005861 258.18266 
" style="fill:none;stroke:#000080;stroke-linecap:square;stroke-width:1.5;"/>
    <defs>
     <path d="M -12 12 
L 12 -12 
M -12 -12 
L 12 12 
" id="meda1dbe607" style="stroke:#000080;"/>
    </defs>
    <g clip-path="url(#p35a850e37d)">
     <use style="fill:#000080;stroke:#000080;" x="131.005861" xlink:href="#meda1dbe607" y="258.18266"/>
    </g>
   </g>
   <g id="line2d_47">
    <defs>
     <path d="M 0 1.5 
C 0.397805 1.5 0.77937 1.341951 1.06066 1.06066 
C 1.341951 0.77937 1.5 0.397805 1.5 0 
C 1.5 -0.397805 1.341951 -0.77937 1.06066 -1.06066 
C 0.77937 -1.341951 0.397805 -1.5 0 -1.5 
C -0.397805 -1.5 -0.77937 -1.341951 -1.06066 -1.06066 
C -1.341951 -0.77937 -1.5 -0.397805 -1.5 0 
C -1.5 0.397805 -1.341951 0.77937 -1.06066 1.06066 
C -0.77937 1.341951 -0.397805 1.5 0 1.5 
z
" id="m27d2b76c33" style="stroke:#ff00ff;"/>
    </defs>
    <g>
     <use style="fill:#ff00ff;stroke:#ff00ff;" x="197.762451" xlink:href="#m27d2b76c33" y="169.060547"/>
     <use style="fill:#ff00ff;stroke:#ff00ff;" x="197.762451" xlink:href="#m27d2b76c33" y="169.060547"/>
    </g>
   </g>
   <g id="line2d_48">
    <path d="M 102.281398 294.88 
L 102.281398 294.355752 
L 114.195649 294.355752 
L 114.195649 293.831505 
L 114.771859 293.831505 
L 114.771859 293.307257 
L 115.329377 293.307257 
L 115.329377 292.783009 
L 115.511269 292.783009 
L 115.511269 292.258761 
L 115.691256 292.258761 
L 115.691256 291.210266 
L 115.869378 291.210266 
L 115.869378 290.686018 
L 116.220179 290.686018 
L 116.220179 289.637523 
L 116.73331 289.637523 
L 116.73331 289.113275 
L 117.874207 289.113275 
L 117.874207 288.06478 
L 118.031182 288.06478 
L 118.031182 286.492036 
L 118.186736 286.492036 
L 118.186736 285.967789 
L 119.09161 285.967789 
L 119.09161 285.443541 
L 119.237897 285.443541 
L 119.237897 284.919293 
L 119.382949 284.919293 
L 119.382949 284.395046 
L 119.95122 284.395046 
L 119.95122 282.822302 
L 120.228462 282.822302 
L 120.228462 282.298055 
L 120.636117 282.298055 
L 120.636117 281.773807 
L 121.034327 281.773807 
L 121.034327 280.725312 
L 121.16504 280.725312 
L 121.16504 280.201064 
L 121.294766 280.201064 
L 121.294766 279.676816 
L 121.551317 279.676816 
L 121.551317 278.628321 
L 121.678171 278.628321 
L 121.678171 278.104073 
L 122.298767 278.104073 
L 122.298767 276.53133 
L 122.420242 276.53133 
L 122.420242 276.007082 
L 122.540864 276.007082 
L 122.540864 274.958587 
L 122.660646 274.958587 
L 122.660646 274.434339 
L 122.779599 274.434339 
L 122.779599 273.910091 
L 122.897734 273.910091 
L 122.897734 273.385844 
L 123.247346 273.385844 
L 123.247346 272.337348 
L 123.7027 272.337348 
L 123.7027 271.8131 
L 123.814679 271.8131 
L 123.814679 271.288853 
L 124.146303 271.288853 
L 124.146303 270.764605 
L 124.363883 270.764605 
L 124.471649 269.191862 
L 125.000572 269.191862 
L 125.104431 268.143366 
L 125.412295 268.143366 
L 125.412295 267.619119 
L 125.614517 267.619119 
L 125.614517 267.094871 
L 125.913457 267.094871 
L 125.913457 266.570623 
L 126.304124 266.570623 
L 126.40042 265.522128 
L 126.496178 265.522128 
L 126.496178 264.99788 
L 126.68611 264.99788 
L 126.780294 263.949385 
L 127.05979 263.949385 
L 127.05979 262.900889 
L 127.42552 262.900889 
L 127.42552 262.376641 
L 127.605507 262.376641 
L 127.605507 261.852394 
L 127.783629 261.852394 
L 127.783629 261.328146 
L 128.047399 261.328146 
L 128.13443 260.279651 
L 128.221023 260.279651 
L 128.221023 259.755403 
L 128.647561 259.755403 
L 128.647561 259.231155 
L 129.145817 259.231155 
L 129.145817 258.706907 
L 129.308744 258.706907 
L 129.308744 258.18266 
L 129.945433 258.18266 
L 129.945433 257.658412 
L 131.224827 257.658412 
L 131.224827 257.134164 
L 131.583684 257.134164 
L 131.583684 256.085669 
L 132.142713 256.085669 
L 132.211331 255.037173 
L 132.483094 255.037173 
L 132.483094 253.988678 
L 133.144276 253.988678 
L 133.144276 253.46443 
L 133.905521 253.46443 
L 133.905521 252.940182 
L 134.029181 252.940182 
L 134.029181 252.415935 
L 134.69385 252.415935 
L 134.69385 251.367439 
L 134.87075 251.367439 
L 134.87075 250.843192 
L 135.390782 250.843192 
L 135.390782 249.794696 
L 135.616951 249.794696 
L 135.616951 249.270448 
L 135.72893 249.270448 
L 135.72893 248.746201 
L 135.840184 248.746201 
L 135.840184 248.221953 
L 136.278134 248.221953 
L 136.278134 247.173458 
L 136.492995 247.173458 
L 136.492995 246.64921 
L 137.173303 246.64921 
L 137.275617 245.076467 
L 137.578954 245.076467 
L 137.578954 244.552219 
L 137.778244 244.552219 
L 137.778244 244.027971 
L 138.266591 244.027971 
L 138.362617 242.979476 
L 138.458109 242.979476 
L 138.458109 242.455228 
L 139.020186 242.455228 
L 139.020186 241.93098 
L 140.60389 241.93098 
L 140.60389 241.406733 
L 140.895583 241.406733 
L 140.895583 240.882485 
L 141.060069 240.882485 
L 141.060069 240.358237 
L 141.344185 240.358237 
L 141.344185 239.83399 
L 141.820574 239.83399 
L 141.820574 239.309742 
L 141.976481 239.309742 
L 141.976481 238.785494 
L 142.207722 238.785494 
L 142.245962 237.212751 
L 142.846499 237.212751 
L 142.846499 236.688503 
L 143.139078 236.688503 
L 143.247524 235.640008 
L 143.35529 235.640008 
L 143.35529 235.11576 
L 143.639406 235.11576 
L 143.639406 234.591512 
L 143.988072 234.591512 
L 144.022553 233.543017 
L 144.262 233.543017 
L 144.262 233.018769 
L 144.631663 233.018769 
L 144.631663 232.494521 
L 144.92831 232.494521 
L 144.960957 231.446026 
L 145.155547 231.446026 
L 145.187766 230.397531 
L 145.31604 230.397531 
L 145.411621 228.824787 
L 145.538241 228.824787 
L 145.569751 227.776292 
L 145.943432 227.776292 
L 145.943432 227.252044 
L 146.278979 227.252044 
L 146.278979 226.727797 
L 146.459281 226.727797 
L 146.459281 226.203549 
L 146.755644 226.203549 
L 146.843566 225.155053 
L 147.018071 225.155053 
L 147.018071 224.630806 
L 147.162151 224.630806 
L 147.162151 224.106558 
L 147.474939 224.106558 
L 147.474939 223.58231 
L 147.587283 223.58231 
L 147.587283 223.058063 
L 147.754435 223.058063 
L 147.754435 222.533815 
L 148.138248 222.533815 
L 148.138248 222.009567 
L 149.036169 222.009567 
L 149.036169 221.485319 
L 149.240798 221.485319 
L 149.240798 220.961072 
L 149.367465 220.961072 
L 149.367465 220.436824 
L 150.180842 220.436824 
L 150.180842 219.912576 
L 150.419909 219.912576 
L 150.419909 219.388328 
L 150.795631 219.388328 
L 150.865174 218.339833 
L 151.003421 218.339833 
L 151.003421 217.815585 
L 151.163317 217.815585 
L 151.163317 217.291338 
L 151.456376 217.291338 
L 151.456376 216.76709 
L 151.941216 216.76709 
L 151.941216 216.242842 
L 152.601988 216.242842 
L 152.601988 215.718594 
L 153.715237 215.718594 
L 153.715237 215.194347 
L 154.006742 215.194347 
L 154.006742 214.670099 
L 154.179301 214.670099 
L 154.179301 214.145851 
L 154.331245 214.145851 
L 154.331245 213.621604 
L 155.394421 213.621604 
L 155.394421 213.097356 
L 155.606411 213.097356 
L 155.641489 212.04886 
L 156.294736 212.04886 
L 156.294736 211.524613 
L 156.612279 211.524613 
L 156.612279 211.000365 
L 156.940317 211.000365 
L 156.940317 210.476117 
L 157.671858 210.476117 
L 157.749529 209.427622 
L 158.132707 209.427622 
L 158.238483 208.379126 
L 158.640488 208.379126 
L 158.640488 207.854879 
L 158.859827 207.854879 
L 158.87435 206.806383 
L 159.004513 206.806383 
L 159.004513 206.282136 
L 159.162274 206.282136 
L 159.162274 205.757888 
L 159.360989 205.757888 
L 159.360989 205.23364 
L 159.613149 205.23364 
L 159.613149 204.709392 
L 160.281415 204.709392 
L 160.281415 204.185145 
L 161.014628 204.185145 
L 161.014628 203.660897 
L 161.319534 203.660897 
L 161.319534 203.136649 
L 161.606747 203.136649 
L 161.606747 202.612401 
L 162.546514 202.612401 
L 162.593349 201.563906 
L 162.756276 201.563906 
L 162.756276 201.039658 
L 162.997806 201.039658 
L 162.997806 200.515411 
L 163.292217 200.515411 
L 163.314656 199.466915 
L 163.920534 199.466915 
L 163.920534 198.942667 
L 164.358689 198.942667 
L 164.453392 197.369924 
L 164.505781 197.369924 
L 164.505781 196.845677 
L 164.661995 196.845677 
L 164.765354 195.272933 
L 165.412532 195.272933 
L 165.432369 194.224438 
L 165.785573 194.224438 
L 165.785573 193.70019 
L 166.638076 193.70019 
L 166.638076 193.175943 
L 167.003805 193.175943 
L 167.003805 192.651695 
L 167.210629 192.651695 
L 167.210629 192.127447 
L 167.790669 192.127447 
L 167.790669 191.603199 
L 167.988291 191.603199 
L 167.988291 191.078952 
L 169.072506 191.078952 
L 169.072506 190.554704 
L 169.366744 190.554704 
L 169.366744 190.030456 
L 169.993825 190.030456 
L 169.993825 189.506209 
L 170.414363 189.506209 
L 170.414363 188.981961 
L 170.686678 188.981961 
L 170.686678 188.457713 
L 171.499564 188.457713 
L 171.499564 187.933465 
L 171.720999 187.933465 
L 171.720999 187.409218 
L 171.878412 187.409218 
L 171.878412 186.88497 
L 172.081589 186.88497 
L 172.101776 185.836474 
L 173.011994 185.836474 
L 173.011994 185.312227 
L 173.359251 185.312227 
L 173.440315 184.263731 
L 173.471391 184.263731 
L 173.471391 183.739484 
L 173.613626 183.739484 
L 173.613626 183.215236 
L 173.754693 183.215236 
L 173.80958 181.642493 
L 173.91883 181.642493 
L 173.91883 181.118245 
L 174.093396 181.118245 
L 174.177039 180.06975 
L 174.495903 180.06975 
L 174.495903 179.545502 
L 175.616929 179.545502 
L 175.616929 179.021254 
L 175.731648 179.021254 
L 175.731648 178.497006 
L 176.477476 178.497006 
L 176.477476 177.972759 
L 176.869197 177.972759 
L 176.869197 177.448511 
L 178.093437 177.448511 
L 178.093437 176.924263 
L 178.93614 176.924263 
L 178.93614 176.400016 
L 179.518109 176.400016 
L 179.518109 175.875768 
L 179.859773 175.875768 
L 179.859773 175.35152 
L 180.000507 175.35152 
L 180.000507 174.827272 
L 180.894269 174.827272 
L 180.894269 174.303025 
L 182.22444 174.303025 
L 182.22444 173.778777 
L 182.753589 173.778777 
L 182.753589 173.254529 
L 183.175373 173.254529 
L 183.175373 172.730281 
L 186.786288 172.730281 
L 186.786288 172.206034 
L 187.067308 172.206034 
L 187.067308 171.681786 
L 188.467155 171.681786 
L 188.467155 171.157538 
L 189.8288 171.157538 
L 189.8288 170.633291 
L 191.683863 170.633291 
L 191.683863 170.109043 
L 193.690686 170.109043 
L 193.690686 169.584795 
L 197.762451 169.584795 
L 197.762451 169.060547 
L 333.168 169.060547 
L 333.168 169.060547 
" style="fill:none;stroke:#ff00ff;stroke-linecap:square;stroke-width:1.5;"/>
   </g>
   <g id="line2d_49">
    <defs>
     <path d="M -0 8.485281 
L 5.091169 0 
L 0 -8.485281 
L -5.091169 -0 
z
" id="m0db8fadfbb" style="stroke:#ff00ff;stroke-linejoin:miter;stroke-width:1.5;"/>
    </defs>
    <g>
     <use style="fill:none;stroke:#ff00ff;stroke-linejoin:miter;stroke-width:1.5;" x="136.492995" xlink:href="#m0db8fadfbb" y="247.173458"/>
     <use style="fill:none;stroke:#ff00ff;stroke-linejoin:miter;stroke-width:1.5;" x="183.175373" xlink:href="#m0db8fadfbb" y="173.254529"/>
     <use style="fill:none;stroke:#ff00ff;stroke-linejoin:miter;stroke-width:1.5;" x="197.762451" xlink:href="#m0db8fadfbb" y="169.060547"/>
     <use style="fill:none;stroke:#ff00ff;stroke-linejoin:miter;stroke-width:1.5;" x="197.762451" xlink:href="#m0db8fadfbb" y="169.060547"/>
     <use style="fill:none;stroke:#ff00ff;stroke-linejoin:miter;stroke-width:1.5;" x="333.168" xlink:href="#m0db8fadfbb" y="169.060547"/>
    </g>
   </g>
   <g id="line2d_50">
    <path style="fill:none;stroke:#ff00ff;stroke-linecap:square;stroke-width:1.5;"/>
    <g/>
   </g>
   <g id="line2d_51">
    <path clip-path="url(#p35a850e37d)" d="M 131.005861 257.658412 
" style="fill:none;stroke:#ff00ff;stroke-linecap:square;stroke-width:1.5;"/>
    <defs>
     <path d="M -12 12 
L 12 -12 
M -12 -12 
L 12 12 
" id="m902d2d4dad" style="stroke:#ff00ff;"/>
    </defs>
    <g clip-path="url(#p35a850e37d)">
     <use style="fill:#ff00ff;stroke:#ff00ff;" x="131.005861" xlink:href="#m902d2d4dad" y="257.658412"/>
    </g>
   </g>
   <g id="line2d_52">
    <path d="M 333.168 169.060547 
L 363.64328 289.532673 
" style="fill:none;stroke:#000080;stroke-linecap:square;stroke-width:1.5;"/>
    <g>
     <use style="fill:none;stroke:#000080;stroke-width:1.5;" x="333.168" xlink:href="#m635995f0de" y="169.060547"/>
     <use style="fill:none;stroke:#000080;stroke-width:1.5;" x="363.64328" xlink:href="#m635995f0de" y="289.532673"/>
    </g>
   </g>
   <g id="line2d_53">
    <path d="M 333.168 169.060547 
L 363.64328 161.196832 
" style="fill:none;stroke:#ff00ff;stroke-linecap:square;stroke-width:1.5;"/>
    <g>
     <use style="fill:none;stroke:#ff00ff;stroke-linejoin:miter;stroke-width:1.5;" x="333.168" xlink:href="#m0db8fadfbb" y="169.060547"/>
     <use style="fill:none;stroke:#ff00ff;stroke-linejoin:miter;stroke-width:1.5;" x="363.64328" xlink:href="#m0db8fadfbb" y="161.196832"/>
    </g>
   </g>
   <g id="line2d_54">
    <path d="M 333.168 294.88 
L 333.168 27.513663 
" style="fill:none;stroke:#000000;stroke-linecap:square;stroke-width:1.5;"/>
   </g>
   <g id="patch_3">
    <path d="M 56.12 294.88 
L 56.12 24.84 
" style="fill:none;stroke:#000000;stroke-linecap:square;stroke-linejoin:miter;stroke-width:0.8;"/>
   </g>
   <g id="patch_4">
    <path d="M 333.168 294.88 
L 333.168 24.84 
" style="fill:none;stroke:#000000;stroke-linecap:square;stroke-linejoin:miter;stroke-width:0.8;"/>
   </g>
   <g id="patch_5">
    <path d="M 56.12 294.88 
L 333.168 294.88 
" style="fill:none;stroke:#000000;stroke-linecap:square;stroke-linejoin:miter;stroke-width:0.8;"/>
   </g>
   <g id="patch_6">
    <path d="M 56.12 24.84 
L 333.168 24.84 
" style="fill:none;stroke:#000000;stroke-linecap:square;stroke-linejoin:miter;stroke-width:0.8;"/>
   </g>
   <g id="text_13">
    <!-- scipyAlg -->
    <defs>
     <path d="M 32.171875 -5.078125 
Q 28.375 -14.84375 24.75 -17.8125 
Q 21.140625 -20.796875 15.09375 -20.796875 
L 7.90625 -20.796875 
L 7.90625 -13.28125 
L 13.1875 -13.28125 
Q 16.890625 -13.28125 18.9375 -11.515625 
Q 21 -9.765625 23.484375 -3.21875 
L 25.09375 0.875 
L 2.984375 54.6875 
L 12.5 54.6875 
L 29.59375 11.921875 
L 46.6875 54.6875 
L 56.203125 54.6875 
z
" id="DejaVuSans-79"/>
     <path d="M 34.1875 63.1875 
L 20.796875 26.90625 
L 47.609375 26.90625 
z
M 28.609375 72.90625 
L 39.796875 72.90625 
L 67.578125 0 
L 57.328125 0 
L 50.6875 18.703125 
L 17.828125 18.703125 
L 11.1875 0 
L 0.78125 0 
z
" id="DejaVuSans-41"/>
    </defs>
    <g transform="translate(369.18424 294.223611)scale(0.17 -0.17)">
     <use xlink:href="#DejaVuSans-73"/>
     <use x="52.099609" xlink:href="#DejaVuSans-63"/>
     <use x="107.080078" xlink:href="#DejaVuSans-69"/>
     <use x="134.863281" xlink:href="#DejaVuSans-70"/>
     <use x="198.339844" xlink:href="#DejaVuSans-79"/>
     <use x="257.519531" xlink:href="#DejaVuSans-41"/>
     <use x="325.927734" xlink:href="#DejaVuSans-6c"/>
     <use x="353.710938" xlink:href="#DejaVuSans-67"/>
    </g>
   </g>
   <g id="text_14">
    <!-- scipy-opt -->
    <g transform="translate(369.18424 165.887769)scale(0.17 -0.17)">
     <use xlink:href="#DejaVuSans-73"/>
     <use x="52.099609" xlink:href="#DejaVuSans-63"/>
     <use x="107.080078" xlink:href="#DejaVuSans-69"/>
     <use x="134.863281" xlink:href="#DejaVuSans-70"/>
     <use x="198.339844" xlink:href="#DejaVuSans-79"/>
     <use x="257.503906" xlink:href="#DejaVuSans-2d"/>
     <use x="293.603516" xlink:href="#DejaVuSans-6f"/>
     <use x="354.785156" xlink:href="#DejaVuSans-70"/>
     <use x="418.261719" xlink:href="#DejaVuSans-74"/>
    </g>
   </g>
   <g id="text_15">
    <!-- best 2009 -->
    <defs>
     <path d="M 48.6875 27.296875 
Q 48.6875 37.203125 44.609375 42.84375 
Q 40.53125 48.484375 33.40625 48.484375 
Q 26.265625 48.484375 22.1875 42.84375 
Q 18.109375 37.203125 18.109375 27.296875 
Q 18.109375 17.390625 22.1875 11.75 
Q 26.265625 6.109375 33.40625 6.109375 
Q 40.53125 6.109375 44.609375 11.75 
Q 48.6875 17.390625 48.6875 27.296875 
z
M 18.109375 46.390625 
Q 20.953125 51.265625 25.265625 53.625 
Q 29.59375 56 35.59375 56 
Q 45.5625 56 51.78125 48.09375 
Q 58.015625 40.1875 58.015625 27.296875 
Q 58.015625 14.40625 51.78125 6.484375 
Q 45.5625 -1.421875 35.59375 -1.421875 
Q 29.59375 -1.421875 25.265625 0.953125 
Q 20.953125 3.328125 18.109375 8.203125 
L 18.109375 0 
L 9.078125 0 
L 9.078125 75.984375 
L 18.109375 75.984375 
z
" id="DejaVuSans-62"/>
     <path d="M 10.984375 1.515625 
L 10.984375 10.5 
Q 14.703125 8.734375 18.5 7.8125 
Q 22.3125 6.890625 25.984375 6.890625 
Q 35.75 6.890625 40.890625 13.453125 
Q 46.046875 20.015625 46.78125 33.40625 
Q 43.953125 29.203125 39.59375 26.953125 
Q 35.25 24.703125 29.984375 24.703125 
Q 19.046875 24.703125 12.671875 31.3125 
Q 6.296875 37.9375 6.296875 49.421875 
Q 6.296875 60.640625 12.9375 67.421875 
Q 19.578125 74.21875 30.609375 74.21875 
Q 43.265625 74.21875 49.921875 64.515625 
Q 56.59375 54.828125 56.59375 36.375 
Q 56.59375 19.140625 48.40625 8.859375 
Q 40.234375 -1.421875 26.421875 -1.421875 
Q 22.703125 -1.421875 18.890625 -0.6875 
Q 15.09375 0.046875 10.984375 1.515625 
z
M 30.609375 32.421875 
Q 37.25 32.421875 41.125 36.953125 
Q 45.015625 41.5 45.015625 49.421875 
Q 45.015625 57.28125 41.125 61.84375 
Q 37.25 66.40625 30.609375 66.40625 
Q 23.96875 66.40625 20.09375 61.84375 
Q 16.21875 57.28125 16.21875 49.421875 
Q 16.21875 41.5 20.09375 36.953125 
Q 23.96875 32.421875 30.609375 32.421875 
z
" id="DejaVuSans-39"/>
    </defs>
    <g transform="translate(369.18424 37.551928)scale(0.17 -0.17)">
     <use xlink:href="#DejaVuSans-62"/>
     <use x="63.476562" xlink:href="#DejaVuSans-65"/>
     <use x="125" xlink:href="#DejaVuSans-73"/>
     <use x="177.099609" xlink:href="#DejaVuSans-74"/>
     <use x="216.308594" xlink:href="#DejaVuSans-20"/>
     <use x="248.095703" xlink:href="#DejaVuSans-32"/>
     <use x="311.71875" xlink:href="#DejaVuSans-30"/>
     <use x="375.341797" xlink:href="#DejaVuSans-30"/>
     <use x="438.964844" xlink:href="#DejaVuSans-39"/>
    </g>
   </g>
   <g id="text_16">
    <!-- bbob f13, 3-D -->
    <defs>
     <path d="M 40.578125 39.3125 
Q 47.65625 37.796875 51.625 33 
Q 55.609375 28.21875 55.609375 21.1875 
Q 55.609375 10.40625 48.1875 4.484375 
Q 40.765625 -1.421875 27.09375 -1.421875 
Q 22.515625 -1.421875 17.65625 -0.515625 
Q 12.796875 0.390625 7.625 2.203125 
L 7.625 11.71875 
Q 11.71875 9.328125 16.59375 8.109375 
Q 21.484375 6.890625 26.8125 6.890625 
Q 36.078125 6.890625 40.9375 10.546875 
Q 45.796875 14.203125 45.796875 21.1875 
Q 45.796875 27.640625 41.28125 31.265625 
Q 36.765625 34.90625 28.71875 34.90625 
L 20.21875 34.90625 
L 20.21875 43.015625 
L 29.109375 43.015625 
Q 36.375 43.015625 40.234375 45.921875 
Q 44.09375 48.828125 44.09375 54.296875 
Q 44.09375 59.90625 40.109375 62.90625 
Q 36.140625 65.921875 28.71875 65.921875 
Q 24.65625 65.921875 20.015625 65.03125 
Q 15.375 64.15625 9.8125 62.3125 
L 9.8125 71.09375 
Q 15.4375 72.65625 20.34375 73.4375 
Q 25.25 74.21875 29.59375 74.21875 
Q 40.828125 74.21875 47.359375 69.109375 
Q 53.90625 64.015625 53.90625 55.328125 
Q 53.90625 49.265625 50.4375 45.09375 
Q 46.96875 40.921875 40.578125 39.3125 
z
" id="DejaVuSans-33"/>
     <path d="M 19.671875 64.796875 
L 19.671875 8.109375 
L 31.59375 8.109375 
Q 46.6875 8.109375 53.6875 14.9375 
Q 60.6875 21.78125 60.6875 36.53125 
Q 60.6875 51.171875 53.6875 57.984375 
Q 46.6875 64.796875 31.59375 64.796875 
z
M 9.8125 72.90625 
L 30.078125 72.90625 
Q 51.265625 72.90625 61.171875 64.09375 
Q 71.09375 55.28125 71.09375 36.53125 
Q 71.09375 17.671875 61.125 8.828125 
Q 51.171875 0 30.078125 0 
L 9.8125 0 
z
" id="DejaVuSans-44"/>
    </defs>
    <g transform="translate(58.89048 35.290806)scale(0.102 -0.102)">
     <use xlink:href="#DejaVuSans-62"/>
     <use x="63.476562" xlink:href="#DejaVuSans-62"/>
     <use x="126.953125" xlink:href="#DejaVuSans-6f"/>
     <use x="188.134766" xlink:href="#DejaVuSans-62"/>
     <use x="251.611328" xlink:href="#DejaVuSans-20"/>
     <use x="283.398438" xlink:href="#DejaVuSans-66"/>
     <use x="318.603516" xlink:href="#DejaVuSans-31"/>
     <use x="382.226562" xlink:href="#DejaVuSans-33"/>
     <use x="445.849609" xlink:href="#DejaVuSans-2c"/>
     <use x="477.636719" xlink:href="#DejaVuSans-20"/>
     <use x="509.423828" xlink:href="#DejaVuSans-33"/>
     <use x="573.046875" xlink:href="#DejaVuSans-2d"/>
     <use x="609.130859" xlink:href="#DejaVuSans-44"/>
    </g>
    <!-- 51 targets: 100..1e-08 -->
    <defs>
     <path d="M 10.796875 72.90625 
L 49.515625 72.90625 
L 49.515625 64.59375 
L 19.828125 64.59375 
L 19.828125 46.734375 
Q 21.96875 47.46875 24.109375 47.828125 
Q 26.265625 48.1875 28.421875 48.1875 
Q 40.625 48.1875 47.75 41.5 
Q 54.890625 34.8125 54.890625 23.390625 
Q 54.890625 11.625 47.5625 5.09375 
Q 40.234375 -1.421875 26.90625 -1.421875 
Q 22.3125 -1.421875 17.546875 -0.640625 
Q 12.796875 0.140625 7.71875 1.703125 
L 7.71875 11.625 
Q 12.109375 9.234375 16.796875 8.0625 
Q 21.484375 6.890625 26.703125 6.890625 
Q 35.15625 6.890625 40.078125 11.328125 
Q 45.015625 15.765625 45.015625 23.390625 
Q 45.015625 31 40.078125 35.4375 
Q 35.15625 39.890625 26.703125 39.890625 
Q 22.75 39.890625 18.8125 39.015625 
Q 14.890625 38.140625 10.796875 36.28125 
z
" id="DejaVuSans-35"/>
     <path d="M 11.71875 12.40625 
L 22.015625 12.40625 
L 22.015625 0 
L 11.71875 0 
z
M 11.71875 51.703125 
L 22.015625 51.703125 
L 22.015625 39.3125 
L 11.71875 39.3125 
z
" id="DejaVuSans-3a"/>
    </defs>
    <g transform="translate(58.89048 46.712575)scale(0.102 -0.102)">
     <use xlink:href="#DejaVuSans-35"/>
     <use x="63.623047" xlink:href="#DejaVuSans-31"/>
     <use x="127.246094" xlink:href="#DejaVuSans-20"/>
     <use x="159.033203" xlink:href="#DejaVuSans-74"/>
     <use x="198.242188" xlink:href="#DejaVuSans-61"/>
     <use x="259.521484" xlink:href="#DejaVuSans-72"/>
     <use x="300.619141" xlink:href="#DejaVuSans-67"/>
     <use x="364.095703" xlink:href="#DejaVuSans-65"/>
     <use x="425.619141" xlink:href="#DejaVuSans-74"/>
     <use x="464.828125" xlink:href="#DejaVuSans-73"/>
     <use x="516.927734" xlink:href="#DejaVuSans-3a"/>
     <use x="550.619141" xlink:href="#DejaVuSans-20"/>
     <use x="582.40625" xlink:href="#DejaVuSans-31"/>
     <use x="646.029297" xlink:href="#DejaVuSans-30"/>
     <use x="709.652344" xlink:href="#DejaVuSans-30"/>
     <use x="773.275391" xlink:href="#DejaVuSans-2e"/>
     <use x="805.0625" xlink:href="#DejaVuSans-2e"/>
     <use x="836.849609" xlink:href="#DejaVuSans-31"/>
     <use x="900.472656" xlink:href="#DejaVuSans-65"/>
     <use x="961.996094" xlink:href="#DejaVuSans-2d"/>
     <use x="998.080078" xlink:href="#DejaVuSans-30"/>
     <use x="1061.703125" xlink:href="#DejaVuSans-38"/>
    </g>
    <!-- 15 instances -->
    <g transform="translate(58.89048 58.134344)scale(0.102 -0.102)">
     <use xlink:href="#DejaVuSans-31"/>
     <use x="63.623047" xlink:href="#DejaVuSans-35"/>
     <use x="127.246094" xlink:href="#DejaVuSans-20"/>
     <use x="159.033203" xlink:href="#DejaVuSans-69"/>
     <use x="186.816406" xlink:href="#DejaVuSans-6e"/>
     <use x="250.195312" xlink:href="#DejaVuSans-73"/>
     <use x="302.294922" xlink:href="#DejaVuSans-74"/>
     <use x="341.503906" xlink:href="#DejaVuSans-61"/>
     <use x="402.783203" xlink:href="#DejaVuSans-6e"/>
     <use x="466.162109" xlink:href="#DejaVuSans-63"/>
     <use x="521.142578" xlink:href="#DejaVuSans-65"/>
     <use x="582.666016" xlink:href="#DejaVuSans-73"/>
    </g>
   </g>
   <g id="text_17">
    <!-- v0.0.0 -->
    <g style="fill:#808080;" transform="translate(178.96275 290.099912)scale(0.1 -0.1)">
     <use xlink:href="#DejaVuSans-76"/>
     <use x="59.179688" xlink:href="#DejaVuSans-30"/>
     <use x="122.802734" xlink:href="#DejaVuSans-2e"/>
     <use x="154.589844" xlink:href="#DejaVuSans-30"/>
     <use x="218.212891" xlink:href="#DejaVuSans-2e"/>
     <use x="250" xlink:href="#DejaVuSans-30"/>
    </g>
   </g>
   <g id="text_18">
    <!-- 13 Sharp ridge -->
    <defs>
     <path d="M 53.515625 70.515625 
L 53.515625 60.890625 
Q 47.90625 63.578125 42.921875 64.890625 
Q 37.9375 66.21875 33.296875 66.21875 
Q 25.25 66.21875 20.875 63.09375 
Q 16.5 59.96875 16.5 54.203125 
Q 16.5 49.359375 19.40625 46.890625 
Q 22.3125 44.4375 30.421875 42.921875 
L 36.375 41.703125 
Q 47.40625 39.59375 52.65625 34.296875 
Q 57.90625 29 57.90625 20.125 
Q 57.90625 9.515625 50.796875 4.046875 
Q 43.703125 -1.421875 29.984375 -1.421875 
Q 24.8125 -1.421875 18.96875 -0.25 
Q 13.140625 0.921875 6.890625 3.21875 
L 6.890625 13.375 
Q 12.890625 10.015625 18.65625 8.296875 
Q 24.421875 6.59375 29.984375 6.59375 
Q 38.421875 6.59375 43.015625 9.90625 
Q 47.609375 13.234375 47.609375 19.390625 
Q 47.609375 24.75 44.3125 27.78125 
Q 41.015625 30.8125 33.5 32.328125 
L 27.484375 33.5 
Q 16.453125 35.6875 11.515625 40.375 
Q 6.59375 45.0625 6.59375 53.421875 
Q 6.59375 63.09375 13.40625 68.65625 
Q 20.21875 74.21875 32.171875 74.21875 
Q 37.3125 74.21875 42.625 73.28125 
Q 47.953125 72.359375 53.515625 70.515625 
z
" id="DejaVuSans-53"/>
     <path d="M 54.890625 33.015625 
L 54.890625 0 
L 45.90625 0 
L 45.90625 32.71875 
Q 45.90625 40.484375 42.875 44.328125 
Q 39.84375 48.1875 33.796875 48.1875 
Q 26.515625 48.1875 22.3125 43.546875 
Q 18.109375 38.921875 18.109375 30.90625 
L 18.109375 0 
L 9.078125 0 
L 9.078125 75.984375 
L 18.109375 75.984375 
L 18.109375 46.1875 
Q 21.34375 51.125 25.703125 53.5625 
Q 30.078125 56 35.796875 56 
Q 45.21875 56 50.046875 50.171875 
Q 54.890625 44.34375 54.890625 33.015625 
z
" id="DejaVuSans-68"/>
    </defs>
    <g transform="translate(120.55025 18.84)scale(0.2 -0.2)">
     <use xlink:href="#DejaVuSans-31"/>
     <use x="63.623047" xlink:href="#DejaVuSans-33"/>
     <use x="127.246094" xlink:href="#DejaVuSans-20"/>
     <use x="159.033203" xlink:href="#DejaVuSans-53"/>
     <use x="222.509766" xlink:href="#DejaVuSans-68"/>
     <use x="285.888672" xlink:href="#DejaVuSans-61"/>
     <use x="347.167969" xlink:href="#DejaVuSans-72"/>
     <use x="388.28125" xlink:href="#DejaVuSans-70"/>
     <use x="451.757812" xlink:href="#DejaVuSans-20"/>
     <use x="483.544922" xlink:href="#DejaVuSans-72"/>
     <use x="524.658203" xlink:href="#DejaVuSans-69"/>
     <use x="552.441406" xlink:href="#DejaVuSans-64"/>
     <use x="615.917969" xlink:href="#DejaVuSans-67"/>
     <use x="679.394531" xlink:href="#DejaVuSans-65"/>
    </g>
   </g>
  </g>
 </g>
 <defs>
  <clipPath id="p35a850e37d">
   <rect height="270.04" width="277.048" x="56.12" y="24.84"/>
  </clipPath>
 </defs>
</svg>
