<?xml version="1.0" encoding="utf-8" standalone="no"?>
<!DOCTYPE svg PUBLIC "-//W3C//DTD SVG 1.1//EN"
  "http://www.w3.org/Graphics/SVG/1.1/DTD/svg11.dtd">
<!-- Created with matplotlib (http://matplotlib.org/) -->
<svg height="345pt" version="1.1" viewBox="0 0 460 345" width="460pt" xmlns="http://www.w3.org/2000/svg" xmlns:xlink="http://www.w3.org/1999/xlink">
 <defs>
  <style type="text/css">
*{stroke-linecap:butt;stroke-linejoin:round;}
  </style>
 </defs>
 <g id="figure_1">
  <g id="patch_1">
   <path d="M 0 345.6 
L 460.8 345.6 
L 460.8 0 
L 0 0 
z
" style="fill:#ffffff;"/>
  </g>
  <g id="axes_1">
   <g id="patch_2">
    <path d="M 56.12 294.88 
L 333.168 294.88 
L 333.168 24.84 
L 56.12 24.84 
z
" style="fill:#ffffff;"/>
   </g>
   <g id="line2d_1">
    <path d="M 83.784035 294.88 
L 83.784035 289.637523 
L 84.893363 289.637523 
L 84.893363 284.395046 
L 86.917893 284.395046 
L 86.917893 279.152568 
L 88.728896 279.152568 
L 88.728896 273.910091 
L 91.862754 273.910091 
L 91.862754 268.667614 
L 93.887283 268.667614 
L 93.887283 263.425137 
L 96.261898 263.425137 
L 96.261898 247.697705 
L 100.643147 247.697705 
L 100.643147 242.455228 
L 102.667676 242.455228 
L 102.667676 237.212751 
L 118.645127 237.212751 
L 118.645127 231.970274 
L 120.636117 231.970274 
L 120.636117 226.727797 
L 121.678171 226.727797 
L 121.678171 221.485319 
L 122.779599 221.485319 
L 122.779599 216.242842 
L 123.589988 216.242842 
L 123.589988 211.000365 
L 124.363883 211.000365 
L 124.363883 205.757888 
L 125.000572 205.757888 
L 125.000572 200.515411 
L 125.614517 200.515411 
L 125.614517 195.272933 
L 126.011959 195.272933 
L 126.011959 190.030456 
L 126.40042 190.030456 
L 126.40042 184.787979 
L 126.68611 184.787979 
L 126.68611 179.545502 
L 126.780294 179.545502 
L 126.780294 174.303025 
L 127.05979 174.303025 
L 127.05979 163.81807 
L 127.243628 163.81807 
L 127.243628 158.575593 
L 127.334814 158.575593 
L 127.334814 153.333116 
L 127.515749 153.333116 
L 127.515749 148.090639 
L 127.605507 148.090639 
L 127.605507 142.848162 
L 127.783629 142.848162 
L 127.783629 137.605684 
L 127.872003 137.605684 
L 127.872003 127.12073 
L 127.959924 127.12073 
L 127.959924 121.878253 
L 128.047399 121.878253 
L 128.047399 111.393298 
L 128.13443 111.393298 
L 128.13443 100.908344 
L 128.39291 100.908344 
L 128.39291 90.42339 
L 128.478214 90.42339 
L 128.478214 85.180912 
L 128.563096 85.180912 
L 128.563096 79.938435 
L 128.647561 79.938435 
L 128.647561 74.695958 
L 128.731613 74.695958 
L 128.731613 69.453481 
L 128.981332 69.453481 
L 128.981332 53.726049 
L 129.063771 53.726049 
L 129.063771 37.998618 
L 129.145817 37.998618 
L 129.145817 27.513663 
L 333.168 27.513663 
" style="fill:none;stroke:#f5deb3;stroke-linecap:square;stroke-width:4;"/>
   </g>
   <g id="line2d_2">
    <defs>
     <path d="M -0 7.778175 
L 7.778175 0 
L 0 -7.778175 
L -7.778175 -0 
z
" id="me5ee5b69bc" style="stroke:#f5deb3;stroke-linejoin:miter;stroke-width:1.5;"/>
    </defs>
    <g>
     <use style="fill:#f5deb3;stroke:#f5deb3;stroke-linejoin:miter;stroke-width:1.5;" x="128.13443" xlink:href="#me5ee5b69bc" y="111.393298"/>
     <use style="fill:#f5deb3;stroke:#f5deb3;stroke-linejoin:miter;stroke-width:1.5;" x="129.145817" xlink:href="#me5ee5b69bc" y="37.998618"/>
     <use style="fill:#f5deb3;stroke:#f5deb3;stroke-linejoin:miter;stroke-width:1.5;" x="129.145817" xlink:href="#me5ee5b69bc" y="27.513663"/>
     <use style="fill:#f5deb3;stroke:#f5deb3;stroke-linejoin:miter;stroke-width:1.5;" x="129.145817" xlink:href="#me5ee5b69bc" y="27.513663"/>
     <use style="fill:#f5deb3;stroke:#f5deb3;stroke-linejoin:miter;stroke-width:1.5;" x="333.168" xlink:href="#me5ee5b69bc" y="27.513663"/>
    </g>
   </g>
   <g id="line2d_3">
    <path style="fill:none;stroke:#f5deb3;stroke-linecap:square;stroke-width:4;"/>
    <g/>
   </g>
   <g id="line2d_4">
    <path d="M 333.168 27.513663 
L 363.64328 32.86099 
" style="fill:none;stroke:#f5deb3;stroke-linecap:square;stroke-width:4;"/>
    <g>
     <use style="fill:#f5deb3;stroke:#f5deb3;stroke-linejoin:miter;stroke-width:1.5;" x="333.168" xlink:href="#me5ee5b69bc" y="27.513663"/>
     <use style="fill:#f5deb3;stroke:#f5deb3;stroke-linejoin:miter;stroke-width:1.5;" x="363.64328" xlink:href="#me5ee5b69bc" y="32.86099"/>
    </g>
   </g>
   <g id="matplotlib.axis_1">
    <g id="xtick_1">
     <g id="line2d_5">
      <path clip-path="url(#pe878cb80a7)" d="M 56.12 294.88 
L 56.12 24.84 
" style="fill:none;stroke:#b0b0b0;stroke-linecap:square;stroke-width:0.8;"/>
     </g>
     <g id="line2d_6">
      <defs>
       <path d="M 0 0 
L 0 3.5 
" id="m79229e3473" style="stroke:#000000;stroke-width:0.8;"/>
      </defs>
      <g>
       <use style="stroke:#000000;stroke-width:0.8;" x="56.12" xlink:href="#m79229e3473" y="294.88"/>
      </g>
     </g>
     <g id="text_1">
      <!-- 0 -->
      <defs>
       <path d="M 31.78125 66.40625 
Q 24.171875 66.40625 20.328125 58.90625 
Q 16.5 51.421875 16.5 36.375 
Q 16.5 21.390625 20.328125 13.890625 
Q 24.171875 6.390625 31.78125 6.390625 
Q 39.453125 6.390625 43.28125 13.890625 
Q 47.125 21.390625 47.125 36.375 
Q 47.125 51.421875 43.28125 58.90625 
Q 39.453125 66.40625 31.78125 66.40625 
z
M 31.78125 74.21875 
Q 44.046875 74.21875 50.515625 64.515625 
Q 56.984375 54.828125 56.984375 36.375 
Q 56.984375 17.96875 50.515625 8.265625 
Q 44.046875 -1.421875 31.78125 -1.421875 
Q 19.53125 -1.421875 13.0625 8.265625 
Q 6.59375 17.96875 6.59375 36.375 
Q 6.59375 54.828125 13.0625 64.515625 
Q 19.53125 74.21875 31.78125 74.21875 
z
" id="DejaVuSans-30"/>
      </defs>
      <g transform="translate(49.7575 317.076875)scale(0.2 -0.2)">
       <use xlink:href="#DejaVuSans-30"/>
      </g>
     </g>
    </g>
    <g id="xtick_2">
     <g id="line2d_7">
      <path clip-path="url(#pe878cb80a7)" d="M 135.276571 294.88 
L 135.276571 24.84 
" style="fill:none;stroke:#b0b0b0;stroke-linecap:square;stroke-width:0.8;"/>
     </g>
     <g id="line2d_8">
      <g>
       <use style="stroke:#000000;stroke-width:0.8;" x="135.276571" xlink:href="#m79229e3473" y="294.88"/>
      </g>
     </g>
     <g id="text_2">
      <!-- 2 -->
      <defs>
       <path d="M 19.1875 8.296875 
L 53.609375 8.296875 
L 53.609375 0 
L 7.328125 0 
L 7.328125 8.296875 
Q 12.9375 14.109375 22.625 23.890625 
Q 32.328125 33.6875 34.8125 36.53125 
Q 39.546875 41.84375 41.421875 45.53125 
Q 43.3125 49.21875 43.3125 52.78125 
Q 43.3125 58.59375 39.234375 62.25 
Q 35.15625 65.921875 28.609375 65.921875 
Q 23.96875 65.921875 18.8125 64.3125 
Q 13.671875 62.703125 7.8125 59.421875 
L 7.8125 69.390625 
Q 13.765625 71.78125 18.9375 73 
Q 24.125 74.21875 28.421875 74.21875 
Q 39.75 74.21875 46.484375 68.546875 
Q 53.21875 62.890625 53.21875 53.421875 
Q 53.21875 48.921875 51.53125 44.890625 
Q 49.859375 40.875 45.40625 35.40625 
Q 44.1875 33.984375 37.640625 27.21875 
Q 31.109375 20.453125 19.1875 8.296875 
z
" id="DejaVuSans-32"/>
      </defs>
      <g transform="translate(128.914071 317.076875)scale(0.2 -0.2)">
       <use xlink:href="#DejaVuSans-32"/>
      </g>
     </g>
    </g>
    <g id="xtick_3">
     <g id="line2d_9">
      <path clip-path="url(#pe878cb80a7)" d="M 214.433143 294.88 
L 214.433143 24.84 
" style="fill:none;stroke:#b0b0b0;stroke-linecap:square;stroke-width:0.8;"/>
     </g>
     <g id="line2d_10">
      <g>
       <use style="stroke:#000000;stroke-width:0.8;" x="214.433143" xlink:href="#m79229e3473" y="294.88"/>
      </g>
     </g>
     <g id="text_3">
      <!-- 4 -->
      <defs>
       <path d="M 37.796875 64.3125 
L 12.890625 25.390625 
L 37.796875 25.390625 
z
M 35.203125 72.90625 
L 47.609375 72.90625 
L 47.609375 25.390625 
L 58.015625 25.390625 
L 58.015625 17.1875 
L 47.609375 17.1875 
L 47.609375 0 
L 37.796875 0 
L 37.796875 17.1875 
L 4.890625 17.1875 
L 4.890625 26.703125 
z
" id="DejaVuSans-34"/>
      </defs>
      <g transform="translate(208.070643 317.076875)scale(0.2 -0.2)">
       <use xlink:href="#DejaVuSans-34"/>
      </g>
     </g>
    </g>
    <g id="xtick_4">
     <g id="line2d_11">
      <path clip-path="url(#pe878cb80a7)" d="M 293.589714 294.88 
L 293.589714 24.84 
" style="fill:none;stroke:#b0b0b0;stroke-linecap:square;stroke-width:0.8;"/>
     </g>
     <g id="line2d_12">
      <g>
       <use style="stroke:#000000;stroke-width:0.8;" x="293.589714" xlink:href="#m79229e3473" y="294.88"/>
      </g>
     </g>
     <g id="text_4">
      <!-- 6 -->
      <defs>
       <path d="M 33.015625 40.375 
Q 26.375 40.375 22.484375 35.828125 
Q 18.609375 31.296875 18.609375 23.390625 
Q 18.609375 15.53125 22.484375 10.953125 
Q 26.375 6.390625 33.015625 6.390625 
Q 39.65625 6.390625 43.53125 10.953125 
Q 47.40625 15.53125 47.40625 23.390625 
Q 47.40625 31.296875 43.53125 35.828125 
Q 39.65625 40.375 33.015625 40.375 
z
M 52.59375 71.296875 
L 52.59375 62.3125 
Q 48.875 64.0625 45.09375 64.984375 
Q 41.3125 65.921875 37.59375 65.921875 
Q 27.828125 65.921875 22.671875 59.328125 
Q 17.53125 52.734375 16.796875 39.40625 
Q 19.671875 43.65625 24.015625 45.921875 
Q 28.375 48.1875 33.59375 48.1875 
Q 44.578125 48.1875 50.953125 41.515625 
Q 57.328125 34.859375 57.328125 23.390625 
Q 57.328125 12.15625 50.6875 5.359375 
Q 44.046875 -1.421875 33.015625 -1.421875 
Q 20.359375 -1.421875 13.671875 8.265625 
Q 6.984375 17.96875 6.984375 36.375 
Q 6.984375 53.65625 15.1875 63.9375 
Q 23.390625 74.21875 37.203125 74.21875 
Q 40.921875 74.21875 44.703125 73.484375 
Q 48.484375 72.75 52.59375 71.296875 
z
" id="DejaVuSans-36"/>
      </defs>
      <g transform="translate(287.227214 317.076875)scale(0.2 -0.2)">
       <use xlink:href="#DejaVuSans-36"/>
      </g>
     </g>
    </g>
    <g id="xtick_5">
     <g id="line2d_13">
      <path clip-path="url(#pe878cb80a7)" d="M 56.12 294.88 
L 56.12 24.84 
" style="fill:none;stroke:#b0b0b0;stroke-linecap:square;stroke-width:0.8;"/>
     </g>
     <g id="line2d_14">
      <defs>
       <path d="M 0 0 
L 0 2 
" id="m3f1335b080" style="stroke:#000000;stroke-width:0.6;"/>
      </defs>
      <g>
       <use style="stroke:#000000;stroke-width:0.6;" x="56.12" xlink:href="#m3f1335b080" y="294.88"/>
      </g>
     </g>
    </g>
    <g id="xtick_6">
     <g id="line2d_15">
      <path clip-path="url(#pe878cb80a7)" d="M 95.698286 294.88 
L 95.698286 24.84 
" style="fill:none;stroke:#b0b0b0;stroke-linecap:square;stroke-width:0.8;"/>
     </g>
     <g id="line2d_16">
      <g>
       <use style="stroke:#000000;stroke-width:0.6;" x="95.698286" xlink:href="#m3f1335b080" y="294.88"/>
      </g>
     </g>
    </g>
    <g id="xtick_7">
     <g id="line2d_17">
      <path clip-path="url(#pe878cb80a7)" d="M 135.276571 294.88 
L 135.276571 24.84 
" style="fill:none;stroke:#b0b0b0;stroke-linecap:square;stroke-width:0.8;"/>
     </g>
     <g id="line2d_18">
      <g>
       <use style="stroke:#000000;stroke-width:0.6;" x="135.276571" xlink:href="#m3f1335b080" y="294.88"/>
      </g>
     </g>
    </g>
    <g id="xtick_8">
     <g id="line2d_19">
      <path clip-path="url(#pe878cb80a7)" d="M 174.854857 294.88 
L 174.854857 24.84 
" style="fill:none;stroke:#b0b0b0;stroke-linecap:square;stroke-width:0.8;"/>
     </g>
     <g id="line2d_20">
      <g>
       <use style="stroke:#000000;stroke-width:0.6;" x="174.854857" xlink:href="#m3f1335b080" y="294.88"/>
      </g>
     </g>
    </g>
    <g id="xtick_9">
     <g id="line2d_21">
      <path clip-path="url(#pe878cb80a7)" d="M 214.433143 294.88 
L 214.433143 24.84 
" style="fill:none;stroke:#b0b0b0;stroke-linecap:square;stroke-width:0.8;"/>
     </g>
     <g id="line2d_22">
      <g>
       <use style="stroke:#000000;stroke-width:0.6;" x="214.433143" xlink:href="#m3f1335b080" y="294.88"/>
      </g>
     </g>
    </g>
    <g id="xtick_10">
     <g id="line2d_23">
      <path clip-path="url(#pe878cb80a7)" d="M 254.011429 294.88 
L 254.011429 24.84 
" style="fill:none;stroke:#b0b0b0;stroke-linecap:square;stroke-width:0.8;"/>
     </g>
     <g id="line2d_24">
      <g>
       <use style="stroke:#000000;stroke-width:0.6;" x="254.011429" xlink:href="#m3f1335b080" y="294.88"/>
      </g>
     </g>
    </g>
    <g id="xtick_11">
     <g id="line2d_25">
      <path clip-path="url(#pe878cb80a7)" d="M 293.589714 294.88 
L 293.589714 24.84 
" style="fill:none;stroke:#b0b0b0;stroke-linecap:square;stroke-width:0.8;"/>
     </g>
     <g id="line2d_26">
      <g>
       <use style="stroke:#000000;stroke-width:0.6;" x="293.589714" xlink:href="#m3f1335b080" y="294.88"/>
      </g>
     </g>
    </g>
    <g id="xtick_12">
     <g id="line2d_27">
      <path clip-path="url(#pe878cb80a7)" d="M 333.168 294.88 
L 333.168 24.84 
" style="fill:none;stroke:#b0b0b0;stroke-linecap:square;stroke-width:0.8;"/>
     </g>
     <g id="line2d_28">
      <g>
       <use style="stroke:#000000;stroke-width:0.6;" x="333.168" xlink:href="#m3f1335b080" y="294.88"/>
      </g>
     </g>
    </g>
    <g id="text_5">
     <!-- log10(# f-evals / dimension) -->
     <defs>
      <path d="M 9.421875 75.984375 
L 18.40625 75.984375 
L 18.40625 0 
L 9.421875 0 
z
" id="DejaVuSans-6c"/>
      <path d="M 30.609375 48.390625 
Q 23.390625 48.390625 19.1875 42.75 
Q 14.984375 37.109375 14.984375 27.296875 
Q 14.984375 17.484375 19.15625 11.84375 
Q 23.34375 6.203125 30.609375 6.203125 
Q 37.796875 6.203125 41.984375 11.859375 
Q 46.1875 17.53125 46.1875 27.296875 
Q 46.1875 37.015625 41.984375 42.703125 
Q 37.796875 48.390625 30.609375 48.390625 
z
M 30.609375 56 
Q 42.328125 56 49.015625 48.375 
Q 55.71875 40.765625 55.71875 27.296875 
Q 55.71875 13.875 49.015625 6.21875 
Q 42.328125 -1.421875 30.609375 -1.421875 
Q 18.84375 -1.421875 12.171875 6.21875 
Q 5.515625 13.875 5.515625 27.296875 
Q 5.515625 40.765625 12.171875 48.375 
Q 18.84375 56 30.609375 56 
z
" id="DejaVuSans-6f"/>
      <path d="M 45.40625 27.984375 
Q 45.40625 37.75 41.375 43.109375 
Q 37.359375 48.484375 30.078125 48.484375 
Q 22.859375 48.484375 18.828125 43.109375 
Q 14.796875 37.75 14.796875 27.984375 
Q 14.796875 18.265625 18.828125 12.890625 
Q 22.859375 7.515625 30.078125 7.515625 
Q 37.359375 7.515625 41.375 12.890625 
Q 45.40625 18.265625 45.40625 27.984375 
z
M 54.390625 6.78125 
Q 54.390625 -7.171875 48.1875 -13.984375 
Q 42 -20.796875 29.203125 -20.796875 
Q 24.46875 -20.796875 20.265625 -20.09375 
Q 16.0625 -19.390625 12.109375 -17.921875 
L 12.109375 -9.1875 
Q 16.0625 -11.328125 19.921875 -12.34375 
Q 23.78125 -13.375 27.78125 -13.375 
Q 36.625 -13.375 41.015625 -8.765625 
Q 45.40625 -4.15625 45.40625 5.171875 
L 45.40625 9.625 
Q 42.625 4.78125 38.28125 2.390625 
Q 33.9375 0 27.875 0 
Q 17.828125 0 11.671875 7.65625 
Q 5.515625 15.328125 5.515625 27.984375 
Q 5.515625 40.671875 11.671875 48.328125 
Q 17.828125 56 27.875 56 
Q 33.9375 56 38.28125 53.609375 
Q 42.625 51.21875 45.40625 46.390625 
L 45.40625 54.6875 
L 54.390625 54.6875 
z
" id="DejaVuSans-67"/>
      <path d="M 12.40625 8.296875 
L 28.515625 8.296875 
L 28.515625 63.921875 
L 10.984375 60.40625 
L 10.984375 69.390625 
L 28.421875 72.90625 
L 38.28125 72.90625 
L 38.28125 8.296875 
L 54.390625 8.296875 
L 54.390625 0 
L 12.40625 0 
z
" id="DejaVuSans-31"/>
      <path d="M 31 75.875 
Q 24.46875 64.65625 21.28125 53.65625 
Q 18.109375 42.671875 18.109375 31.390625 
Q 18.109375 20.125 21.3125 9.0625 
Q 24.515625 -2 31 -13.1875 
L 23.1875 -13.1875 
Q 15.875 -1.703125 12.234375 9.375 
Q 8.59375 20.453125 8.59375 31.390625 
Q 8.59375 42.28125 12.203125 53.3125 
Q 15.828125 64.359375 23.1875 75.875 
z
" id="DejaVuSans-28"/>
      <path d="M 51.125 44 
L 36.921875 44 
L 32.8125 27.6875 
L 47.125 27.6875 
z
M 43.796875 71.78125 
L 38.71875 51.515625 
L 52.984375 51.515625 
L 58.109375 71.78125 
L 65.921875 71.78125 
L 60.890625 51.515625 
L 76.125 51.515625 
L 76.125 44 
L 58.984375 44 
L 54.984375 27.6875 
L 70.515625 27.6875 
L 70.515625 20.21875 
L 53.078125 20.21875 
L 48 0 
L 40.1875 0 
L 45.21875 20.21875 
L 30.90625 20.21875 
L 25.875 0 
L 18.015625 0 
L 23.09375 20.21875 
L 7.71875 20.21875 
L 7.71875 27.6875 
L 24.90625 27.6875 
L 29 44 
L 13.28125 44 
L 13.28125 51.515625 
L 30.90625 51.515625 
L 35.890625 71.78125 
z
" id="DejaVuSans-23"/>
      <path id="DejaVuSans-20"/>
      <path d="M 37.109375 75.984375 
L 37.109375 68.5 
L 28.515625 68.5 
Q 23.6875 68.5 21.796875 66.546875 
Q 19.921875 64.59375 19.921875 59.515625 
L 19.921875 54.6875 
L 34.71875 54.6875 
L 34.71875 47.703125 
L 19.921875 47.703125 
L 19.921875 0 
L 10.890625 0 
L 10.890625 47.703125 
L 2.296875 47.703125 
L 2.296875 54.6875 
L 10.890625 54.6875 
L 10.890625 58.5 
Q 10.890625 67.625 15.140625 71.796875 
Q 19.390625 75.984375 28.609375 75.984375 
z
" id="DejaVuSans-66"/>
      <path d="M 4.890625 31.390625 
L 31.203125 31.390625 
L 31.203125 23.390625 
L 4.890625 23.390625 
z
" id="DejaVuSans-2d"/>
      <path d="M 56.203125 29.59375 
L 56.203125 25.203125 
L 14.890625 25.203125 
Q 15.484375 15.921875 20.484375 11.0625 
Q 25.484375 6.203125 34.421875 6.203125 
Q 39.59375 6.203125 44.453125 7.46875 
Q 49.3125 8.734375 54.109375 11.28125 
L 54.109375 2.78125 
Q 49.265625 0.734375 44.1875 -0.34375 
Q 39.109375 -1.421875 33.890625 -1.421875 
Q 20.796875 -1.421875 13.15625 6.1875 
Q 5.515625 13.8125 5.515625 26.8125 
Q 5.515625 40.234375 12.765625 48.109375 
Q 20.015625 56 32.328125 56 
Q 43.359375 56 49.78125 48.890625 
Q 56.203125 41.796875 56.203125 29.59375 
z
M 47.21875 32.234375 
Q 47.125 39.59375 43.09375 43.984375 
Q 39.0625 48.390625 32.421875 48.390625 
Q 24.90625 48.390625 20.390625 44.140625 
Q 15.875 39.890625 15.1875 32.171875 
z
" id="DejaVuSans-65"/>
      <path d="M 2.984375 54.6875 
L 12.5 54.6875 
L 29.59375 8.796875 
L 46.6875 54.6875 
L 56.203125 54.6875 
L 35.6875 0 
L 23.484375 0 
z
" id="DejaVuSans-76"/>
      <path d="M 34.28125 27.484375 
Q 23.390625 27.484375 19.1875 25 
Q 14.984375 22.515625 14.984375 16.5 
Q 14.984375 11.71875 18.140625 8.90625 
Q 21.296875 6.109375 26.703125 6.109375 
Q 34.1875 6.109375 38.703125 11.40625 
Q 43.21875 16.703125 43.21875 25.484375 
L 43.21875 27.484375 
z
M 52.203125 31.203125 
L 52.203125 0 
L 43.21875 0 
L 43.21875 8.296875 
Q 40.140625 3.328125 35.546875 0.953125 
Q 30.953125 -1.421875 24.3125 -1.421875 
Q 15.921875 -1.421875 10.953125 3.296875 
Q 6 8.015625 6 15.921875 
Q 6 25.140625 12.171875 29.828125 
Q 18.359375 34.515625 30.609375 34.515625 
L 43.21875 34.515625 
L 43.21875 35.40625 
Q 43.21875 41.609375 39.140625 45 
Q 35.0625 48.390625 27.6875 48.390625 
Q 23 48.390625 18.546875 47.265625 
Q 14.109375 46.140625 10.015625 43.890625 
L 10.015625 52.203125 
Q 14.9375 54.109375 19.578125 55.046875 
Q 24.21875 56 28.609375 56 
Q 40.484375 56 46.34375 49.84375 
Q 52.203125 43.703125 52.203125 31.203125 
z
" id="DejaVuSans-61"/>
      <path d="M 44.28125 53.078125 
L 44.28125 44.578125 
Q 40.484375 46.53125 36.375 47.5 
Q 32.28125 48.484375 27.875 48.484375 
Q 21.1875 48.484375 17.84375 46.4375 
Q 14.5 44.390625 14.5 40.28125 
Q 14.5 37.15625 16.890625 35.375 
Q 19.28125 33.59375 26.515625 31.984375 
L 29.59375 31.296875 
Q 39.15625 29.25 43.1875 25.515625 
Q 47.21875 21.78125 47.21875 15.09375 
Q 47.21875 7.46875 41.1875 3.015625 
Q 35.15625 -1.421875 24.609375 -1.421875 
Q 20.21875 -1.421875 15.453125 -0.5625 
Q 10.6875 0.296875 5.421875 2 
L 5.421875 11.28125 
Q 10.40625 8.6875 15.234375 7.390625 
Q 20.0625 6.109375 24.8125 6.109375 
Q 31.15625 6.109375 34.5625 8.28125 
Q 37.984375 10.453125 37.984375 14.40625 
Q 37.984375 18.0625 35.515625 20.015625 
Q 33.0625 21.96875 24.703125 23.78125 
L 21.578125 24.515625 
Q 13.234375 26.265625 9.515625 29.90625 
Q 5.8125 33.546875 5.8125 39.890625 
Q 5.8125 47.609375 11.28125 51.796875 
Q 16.75 56 26.8125 56 
Q 31.78125 56 36.171875 55.265625 
Q 40.578125 54.546875 44.28125 53.078125 
z
" id="DejaVuSans-73"/>
      <path d="M 25.390625 72.90625 
L 33.6875 72.90625 
L 8.296875 -9.28125 
L 0 -9.28125 
z
" id="DejaVuSans-2f"/>
      <path d="M 45.40625 46.390625 
L 45.40625 75.984375 
L 54.390625 75.984375 
L 54.390625 0 
L 45.40625 0 
L 45.40625 8.203125 
Q 42.578125 3.328125 38.25 0.953125 
Q 33.9375 -1.421875 27.875 -1.421875 
Q 17.96875 -1.421875 11.734375 6.484375 
Q 5.515625 14.40625 5.515625 27.296875 
Q 5.515625 40.1875 11.734375 48.09375 
Q 17.96875 56 27.875 56 
Q 33.9375 56 38.25 53.625 
Q 42.578125 51.265625 45.40625 46.390625 
z
M 14.796875 27.296875 
Q 14.796875 17.390625 18.875 11.75 
Q 22.953125 6.109375 30.078125 6.109375 
Q 37.203125 6.109375 41.296875 11.75 
Q 45.40625 17.390625 45.40625 27.296875 
Q 45.40625 37.203125 41.296875 42.84375 
Q 37.203125 48.484375 30.078125 48.484375 
Q 22.953125 48.484375 18.875 42.84375 
Q 14.796875 37.203125 14.796875 27.296875 
z
" id="DejaVuSans-64"/>
      <path d="M 9.421875 54.6875 
L 18.40625 54.6875 
L 18.40625 0 
L 9.421875 0 
z
M 9.421875 75.984375 
L 18.40625 75.984375 
L 18.40625 64.59375 
L 9.421875 64.59375 
z
" id="DejaVuSans-69"/>
      <path d="M 52 44.1875 
Q 55.375 50.25 60.0625 53.125 
Q 64.75 56 71.09375 56 
Q 79.640625 56 84.28125 50.015625 
Q 88.921875 44.046875 88.921875 33.015625 
L 88.921875 0 
L 79.890625 0 
L 79.890625 32.71875 
Q 79.890625 40.578125 77.09375 44.375 
Q 74.3125 48.1875 68.609375 48.1875 
Q 61.625 48.1875 57.5625 43.546875 
Q 53.515625 38.921875 53.515625 30.90625 
L 53.515625 0 
L 44.484375 0 
L 44.484375 32.71875 
Q 44.484375 40.625 41.703125 44.40625 
Q 38.921875 48.1875 33.109375 48.1875 
Q 26.21875 48.1875 22.15625 43.53125 
Q 18.109375 38.875 18.109375 30.90625 
L 18.109375 0 
L 9.078125 0 
L 9.078125 54.6875 
L 18.109375 54.6875 
L 18.109375 46.1875 
Q 21.1875 51.21875 25.484375 53.609375 
Q 29.78125 56 35.6875 56 
Q 41.65625 56 45.828125 52.96875 
Q 50 49.953125 52 44.1875 
z
" id="DejaVuSans-6d"/>
      <path d="M 54.890625 33.015625 
L 54.890625 0 
L 45.90625 0 
L 45.90625 32.71875 
Q 45.90625 40.484375 42.875 44.328125 
Q 39.84375 48.1875 33.796875 48.1875 
Q 26.515625 48.1875 22.3125 43.546875 
Q 18.109375 38.921875 18.109375 30.90625 
L 18.109375 0 
L 9.078125 0 
L 9.078125 54.6875 
L 18.109375 54.6875 
L 18.109375 46.1875 
Q 21.34375 51.125 25.703125 53.5625 
Q 30.078125 56 35.796875 56 
Q 45.21875 56 50.046875 50.171875 
Q 54.890625 44.34375 54.890625 33.015625 
z
" id="DejaVuSans-6e"/>
      <path d="M 8.015625 75.875 
L 15.828125 75.875 
Q 23.140625 64.359375 26.78125 53.3125 
Q 30.421875 42.28125 30.421875 31.390625 
Q 30.421875 20.453125 26.78125 9.375 
Q 23.140625 -1.703125 15.828125 -13.1875 
L 8.015625 -13.1875 
Q 14.5 -2 17.703125 9.0625 
Q 20.90625 20.125 20.90625 31.390625 
Q 20.90625 42.671875 17.703125 53.65625 
Q 14.5 64.65625 8.015625 75.875 
z
" id="DejaVuSans-29"/>
     </defs>
     <g transform="translate(73.803219 338.153594)scale(0.17 -0.17)">
      <use xlink:href="#DejaVuSans-6c"/>
      <use x="27.783203" xlink:href="#DejaVuSans-6f"/>
      <use x="88.964844" xlink:href="#DejaVuSans-67"/>
      <use x="152.441406" xlink:href="#DejaVuSans-31"/>
      <use x="216.064453" xlink:href="#DejaVuSans-30"/>
      <use x="279.6875" xlink:href="#DejaVuSans-28"/>
      <use x="318.701172" xlink:href="#DejaVuSans-23"/>
      <use x="402.490234" xlink:href="#DejaVuSans-20"/>
      <use x="434.277344" xlink:href="#DejaVuSans-66"/>
      <use x="469.404297" xlink:href="#DejaVuSans-2d"/>
      <use x="505.488281" xlink:href="#DejaVuSans-65"/>
      <use x="567.011719" xlink:href="#DejaVuSans-76"/>
      <use x="626.191406" xlink:href="#DejaVuSans-61"/>
      <use x="687.470703" xlink:href="#DejaVuSans-6c"/>
      <use x="715.253906" xlink:href="#DejaVuSans-73"/>
      <use x="767.353516" xlink:href="#DejaVuSans-20"/>
      <use x="799.140625" xlink:href="#DejaVuSans-2f"/>
      <use x="832.832031" xlink:href="#DejaVuSans-20"/>
      <use x="864.619141" xlink:href="#DejaVuSans-64"/>
      <use x="928.095703" xlink:href="#DejaVuSans-69"/>
      <use x="955.878906" xlink:href="#DejaVuSans-6d"/>
      <use x="1053.291016" xlink:href="#DejaVuSans-65"/>
      <use x="1114.814453" xlink:href="#DejaVuSans-6e"/>
      <use x="1178.193359" xlink:href="#DejaVuSans-73"/>
      <use x="1230.292969" xlink:href="#DejaVuSans-69"/>
      <use x="1258.076172" xlink:href="#DejaVuSans-6f"/>
      <use x="1319.257812" xlink:href="#DejaVuSans-6e"/>
      <use x="1382.636719" xlink:href="#DejaVuSans-29"/>
     </g>
    </g>
   </g>
   <g id="matplotlib.axis_2">
    <g id="ytick_1">
     <g id="line2d_29">
      <path clip-path="url(#pe878cb80a7)" d="M 56.12 294.88 
L 333.168 294.88 
" style="fill:none;stroke:#b0b0b0;stroke-linecap:square;stroke-width:0.8;"/>
     </g>
     <g id="line2d_30">
      <defs>
       <path d="M 0 0 
L -3.5 0 
" id="mfceae37dda" style="stroke:#000000;stroke-width:0.8;"/>
      </defs>
      <g>
       <use style="stroke:#000000;stroke-width:0.8;" x="56.12" xlink:href="#mfceae37dda" y="294.88"/>
      </g>
     </g>
     <g id="text_6">
      <!-- 0.0 -->
      <defs>
       <path d="M 10.6875 12.40625 
L 21 12.40625 
L 21 0 
L 10.6875 0 
z
" id="DejaVuSans-2e"/>
      </defs>
      <g transform="translate(23.675 300.95875)scale(0.16 -0.16)">
       <use xlink:href="#DejaVuSans-30"/>
       <use x="63.623047" xlink:href="#DejaVuSans-2e"/>
       <use x="95.410156" xlink:href="#DejaVuSans-30"/>
      </g>
     </g>
    </g>
    <g id="ytick_2">
     <g id="line2d_31">
      <path clip-path="url(#pe878cb80a7)" d="M 56.12 241.406733 
L 333.168 241.406733 
" style="fill:none;stroke:#b0b0b0;stroke-linecap:square;stroke-width:0.8;"/>
     </g>
     <g id="line2d_32">
      <g>
       <use style="stroke:#000000;stroke-width:0.8;" x="56.12" xlink:href="#mfceae37dda" y="241.406733"/>
      </g>
     </g>
     <g id="text_7">
      <!-- 0.2 -->
      <g transform="translate(23.675 247.485483)scale(0.16 -0.16)">
       <use xlink:href="#DejaVuSans-30"/>
       <use x="63.623047" xlink:href="#DejaVuSans-2e"/>
       <use x="95.410156" xlink:href="#DejaVuSans-32"/>
      </g>
     </g>
    </g>
    <g id="ytick_3">
     <g id="line2d_33">
      <path clip-path="url(#pe878cb80a7)" d="M 56.12 187.933465 
L 333.168 187.933465 
" style="fill:none;stroke:#b0b0b0;stroke-linecap:square;stroke-width:0.8;"/>
     </g>
     <g id="line2d_34">
      <g>
       <use style="stroke:#000000;stroke-width:0.8;" x="56.12" xlink:href="#mfceae37dda" y="187.933465"/>
      </g>
     </g>
     <g id="text_8">
      <!-- 0.4 -->
      <g transform="translate(23.675 194.012215)scale(0.16 -0.16)">
       <use xlink:href="#DejaVuSans-30"/>
       <use x="63.623047" xlink:href="#DejaVuSans-2e"/>
       <use x="95.410156" xlink:href="#DejaVuSans-34"/>
      </g>
     </g>
    </g>
    <g id="ytick_4">
     <g id="line2d_35">
      <path clip-path="url(#pe878cb80a7)" d="M 56.12 134.460198 
L 333.168 134.460198 
" style="fill:none;stroke:#b0b0b0;stroke-linecap:square;stroke-width:0.8;"/>
     </g>
     <g id="line2d_36">
      <g>
       <use style="stroke:#000000;stroke-width:0.8;" x="56.12" xlink:href="#mfceae37dda" y="134.460198"/>
      </g>
     </g>
     <g id="text_9">
      <!-- 0.6 -->
      <g transform="translate(23.675 140.538948)scale(0.16 -0.16)">
       <use xlink:href="#DejaVuSans-30"/>
       <use x="63.623047" xlink:href="#DejaVuSans-2e"/>
       <use x="95.410156" xlink:href="#DejaVuSans-36"/>
      </g>
     </g>
    </g>
    <g id="ytick_5">
     <g id="line2d_37">
      <path clip-path="url(#pe878cb80a7)" d="M 56.12 80.986931 
L 333.168 80.986931 
" style="fill:none;stroke:#b0b0b0;stroke-linecap:square;stroke-width:0.8;"/>
     </g>
     <g id="line2d_38">
      <g>
       <use style="stroke:#000000;stroke-width:0.8;" x="56.12" xlink:href="#mfceae37dda" y="80.986931"/>
      </g>
     </g>
     <g id="text_10">
      <!-- 0.8 -->
      <defs>
       <path d="M 31.78125 34.625 
Q 24.75 34.625 20.71875 30.859375 
Q 16.703125 27.09375 16.703125 20.515625 
Q 16.703125 13.921875 20.71875 10.15625 
Q 24.75 6.390625 31.78125 6.390625 
Q 38.8125 6.390625 42.859375 10.171875 
Q 46.921875 13.96875 46.921875 20.515625 
Q 46.921875 27.09375 42.890625 30.859375 
Q 38.875 34.625 31.78125 34.625 
z
M 21.921875 38.8125 
Q 15.578125 40.375 12.03125 44.71875 
Q 8.5 49.078125 8.5 55.328125 
Q 8.5 64.0625 14.71875 69.140625 
Q 20.953125 74.21875 31.78125 74.21875 
Q 42.671875 74.21875 48.875 69.140625 
Q 55.078125 64.0625 55.078125 55.328125 
Q 55.078125 49.078125 51.53125 44.71875 
Q 48 40.375 41.703125 38.8125 
Q 48.828125 37.15625 52.796875 32.3125 
Q 56.78125 27.484375 56.78125 20.515625 
Q 56.78125 9.90625 50.3125 4.234375 
Q 43.84375 -1.421875 31.78125 -1.421875 
Q 19.734375 -1.421875 13.25 4.234375 
Q 6.78125 9.90625 6.78125 20.515625 
Q 6.78125 27.484375 10.78125 32.3125 
Q 14.796875 37.15625 21.921875 38.8125 
z
M 18.3125 54.390625 
Q 18.3125 48.734375 21.84375 45.5625 
Q 25.390625 42.390625 31.78125 42.390625 
Q 38.140625 42.390625 41.71875 45.5625 
Q 45.3125 48.734375 45.3125 54.390625 
Q 45.3125 60.0625 41.71875 63.234375 
Q 38.140625 66.40625 31.78125 66.40625 
Q 25.390625 66.40625 21.84375 63.234375 
Q 18.3125 60.0625 18.3125 54.390625 
z
" id="DejaVuSans-38"/>
      </defs>
      <g transform="translate(23.675 87.065681)scale(0.16 -0.16)">
       <use xlink:href="#DejaVuSans-30"/>
       <use x="63.623047" xlink:href="#DejaVuSans-2e"/>
       <use x="95.410156" xlink:href="#DejaVuSans-38"/>
      </g>
     </g>
    </g>
    <g id="ytick_6">
     <g id="line2d_39">
      <path clip-path="url(#pe878cb80a7)" d="M 56.12 27.513663 
L 333.168 27.513663 
" style="fill:none;stroke:#b0b0b0;stroke-linecap:square;stroke-width:0.8;"/>
     </g>
     <g id="line2d_40">
      <g>
       <use style="stroke:#000000;stroke-width:0.8;" x="56.12" xlink:href="#mfceae37dda" y="27.513663"/>
      </g>
     </g>
     <g id="text_11">
      <!-- 1.0 -->
      <g transform="translate(23.675 33.592413)scale(0.16 -0.16)">
       <use xlink:href="#DejaVuSans-31"/>
       <use x="63.623047" xlink:href="#DejaVuSans-2e"/>
       <use x="95.410156" xlink:href="#DejaVuSans-30"/>
      </g>
     </g>
    </g>
    <g id="text_12">
     <!-- Fraction of function,target pairs -->
     <defs>
      <path d="M 9.8125 72.90625 
L 51.703125 72.90625 
L 51.703125 64.59375 
L 19.671875 64.59375 
L 19.671875 43.109375 
L 48.578125 43.109375 
L 48.578125 34.8125 
L 19.671875 34.8125 
L 19.671875 0 
L 9.8125 0 
z
" id="DejaVuSans-46"/>
      <path d="M 41.109375 46.296875 
Q 39.59375 47.171875 37.8125 47.578125 
Q 36.03125 48 33.890625 48 
Q 26.265625 48 22.1875 43.046875 
Q 18.109375 38.09375 18.109375 28.8125 
L 18.109375 0 
L 9.078125 0 
L 9.078125 54.6875 
L 18.109375 54.6875 
L 18.109375 46.1875 
Q 20.953125 51.171875 25.484375 53.578125 
Q 30.03125 56 36.53125 56 
Q 37.453125 56 38.578125 55.875 
Q 39.703125 55.765625 41.0625 55.515625 
z
" id="DejaVuSans-72"/>
      <path d="M 48.78125 52.59375 
L 48.78125 44.1875 
Q 44.96875 46.296875 41.140625 47.34375 
Q 37.3125 48.390625 33.40625 48.390625 
Q 24.65625 48.390625 19.8125 42.84375 
Q 14.984375 37.3125 14.984375 27.296875 
Q 14.984375 17.28125 19.8125 11.734375 
Q 24.65625 6.203125 33.40625 6.203125 
Q 37.3125 6.203125 41.140625 7.25 
Q 44.96875 8.296875 48.78125 10.40625 
L 48.78125 2.09375 
Q 45.015625 0.34375 40.984375 -0.53125 
Q 36.96875 -1.421875 32.421875 -1.421875 
Q 20.0625 -1.421875 12.78125 6.34375 
Q 5.515625 14.109375 5.515625 27.296875 
Q 5.515625 40.671875 12.859375 48.328125 
Q 20.21875 56 33.015625 56 
Q 37.15625 56 41.109375 55.140625 
Q 45.0625 54.296875 48.78125 52.59375 
z
" id="DejaVuSans-63"/>
      <path d="M 18.3125 70.21875 
L 18.3125 54.6875 
L 36.8125 54.6875 
L 36.8125 47.703125 
L 18.3125 47.703125 
L 18.3125 18.015625 
Q 18.3125 11.328125 20.140625 9.421875 
Q 21.96875 7.515625 27.59375 7.515625 
L 36.8125 7.515625 
L 36.8125 0 
L 27.59375 0 
Q 17.1875 0 13.234375 3.875 
Q 9.28125 7.765625 9.28125 18.015625 
L 9.28125 47.703125 
L 2.6875 47.703125 
L 2.6875 54.6875 
L 9.28125 54.6875 
L 9.28125 70.21875 
z
" id="DejaVuSans-74"/>
      <path d="M 8.5 21.578125 
L 8.5 54.6875 
L 17.484375 54.6875 
L 17.484375 21.921875 
Q 17.484375 14.15625 20.5 10.265625 
Q 23.53125 6.390625 29.59375 6.390625 
Q 36.859375 6.390625 41.078125 11.03125 
Q 45.3125 15.671875 45.3125 23.6875 
L 45.3125 54.6875 
L 54.296875 54.6875 
L 54.296875 0 
L 45.3125 0 
L 45.3125 8.40625 
Q 42.046875 3.421875 37.71875 1 
Q 33.40625 -1.421875 27.6875 -1.421875 
Q 18.265625 -1.421875 13.375 4.4375 
Q 8.5 10.296875 8.5 21.578125 
z
M 31.109375 56 
z
" id="DejaVuSans-75"/>
      <path d="M 11.71875 12.40625 
L 22.015625 12.40625 
L 22.015625 4 
L 14.015625 -11.625 
L 7.71875 -11.625 
L 11.71875 4 
z
" id="DejaVuSans-2c"/>
      <path d="M 18.109375 8.203125 
L 18.109375 -20.796875 
L 9.078125 -20.796875 
L 9.078125 54.6875 
L 18.109375 54.6875 
L 18.109375 46.390625 
Q 20.953125 51.265625 25.265625 53.625 
Q 29.59375 56 35.59375 56 
Q 45.5625 56 51.78125 48.09375 
Q 58.015625 40.1875 58.015625 27.296875 
Q 58.015625 14.40625 51.78125 6.484375 
Q 45.5625 -1.421875 35.59375 -1.421875 
Q 29.59375 -1.421875 25.265625 0.953125 
Q 20.953125 3.328125 18.109375 8.203125 
z
M 48.6875 27.296875 
Q 48.6875 37.203125 44.609375 42.84375 
Q 40.53125 48.484375 33.40625 48.484375 
Q 26.265625 48.484375 22.1875 42.84375 
Q 18.109375 37.203125 18.109375 27.296875 
Q 18.109375 17.390625 22.1875 11.75 
Q 26.265625 6.109375 33.40625 6.109375 
Q 40.53125 6.109375 44.609375 11.75 
Q 48.6875 17.390625 48.6875 27.296875 
z
" id="DejaVuSans-70"/>
     </defs>
     <g transform="translate(16.139531 294.999375)rotate(-90)scale(0.17 -0.17)">
      <use xlink:href="#DejaVuSans-46"/>
      <use x="57.410156" xlink:href="#DejaVuSans-72"/>
      <use x="98.523438" xlink:href="#DejaVuSans-61"/>
      <use x="159.802734" xlink:href="#DejaVuSans-63"/>
      <use x="214.783203" xlink:href="#DejaVuSans-74"/>
      <use x="253.992188" xlink:href="#DejaVuSans-69"/>
      <use x="281.775391" xlink:href="#DejaVuSans-6f"/>
      <use x="342.957031" xlink:href="#DejaVuSans-6e"/>
      <use x="406.335938" xlink:href="#DejaVuSans-20"/>
      <use x="438.123047" xlink:href="#DejaVuSans-6f"/>
      <use x="499.304688" xlink:href="#DejaVuSans-66"/>
      <use x="534.509766" xlink:href="#DejaVuSans-20"/>
      <use x="566.296875" xlink:href="#DejaVuSans-66"/>
      <use x="601.501953" xlink:href="#DejaVuSans-75"/>
      <use x="664.880859" xlink:href="#DejaVuSans-6e"/>
      <use x="728.259766" xlink:href="#DejaVuSans-63"/>
      <use x="783.240234" xlink:href="#DejaVuSans-74"/>
      <use x="822.449219" xlink:href="#DejaVuSans-69"/>
      <use x="850.232422" xlink:href="#DejaVuSans-6f"/>
      <use x="911.414062" xlink:href="#DejaVuSans-6e"/>
      <use x="974.792969" xlink:href="#DejaVuSans-2c"/>
      <use x="1006.580078" xlink:href="#DejaVuSans-74"/>
      <use x="1045.789062" xlink:href="#DejaVuSans-61"/>
      <use x="1107.068359" xlink:href="#DejaVuSans-72"/>
      <use x="1148.166016" xlink:href="#DejaVuSans-67"/>
      <use x="1211.642578" xlink:href="#DejaVuSans-65"/>
      <use x="1273.166016" xlink:href="#DejaVuSans-74"/>
      <use x="1312.375" xlink:href="#DejaVuSans-20"/>
      <use x="1344.162109" xlink:href="#DejaVuSans-70"/>
      <use x="1407.638672" xlink:href="#DejaVuSans-61"/>
      <use x="1468.917969" xlink:href="#DejaVuSans-69"/>
      <use x="1496.701172" xlink:href="#DejaVuSans-72"/>
      <use x="1537.814453" xlink:href="#DejaVuSans-73"/>
     </g>
    </g>
   </g>
   <g id="line2d_41">
    <defs>
     <path d="M 0 1.5 
C 0.397805 1.5 0.77937 1.341951 1.06066 1.06066 
C 1.341951 0.77937 1.5 0.397805 1.5 0 
C 1.5 -0.397805 1.341951 -0.77937 1.06066 -1.06066 
C 0.77937 -1.341951 0.397805 -1.5 0 -1.5 
C -0.397805 -1.5 -0.77937 -1.341951 -1.06066 -1.06066 
C -1.341951 -0.77937 -1.5 -0.397805 -1.5 0 
C -1.5 0.397805 -1.341951 0.77937 -1.06066 1.06066 
C -0.77937 1.341951 -0.397805 1.5 0 1.5 
z
" id="md37032ee55" style="stroke:#f5deb3;"/>
    </defs>
    <g>
     <use style="fill:#f5deb3;stroke:#f5deb3;" x="129.145817" xlink:href="#md37032ee55" y="27.513663"/>
     <use style="fill:#f5deb3;stroke:#f5deb3;" x="129.145817" xlink:href="#md37032ee55" y="27.513663"/>
    </g>
   </g>
   <g id="line2d_42">
    <defs>
     <path d="M 0 1.5 
C 0.397805 1.5 0.77937 1.341951 1.06066 1.06066 
C 1.341951 0.77937 1.5 0.397805 1.5 0 
C 1.5 -0.397805 1.341951 -0.77937 1.06066 -1.06066 
C 0.77937 -1.341951 0.397805 -1.5 0 -1.5 
C -0.397805 -1.5 -0.77937 -1.341951 -1.06066 -1.06066 
C -1.341951 -0.77937 -1.5 -0.397805 -1.5 0 
C -1.5 0.397805 -1.341951 0.77937 -1.06066 1.06066 
C -0.77937 1.341951 -0.397805 1.5 0 1.5 
z
" id="m2d688e6969" style="stroke:#000080;"/>
    </defs>
    <g>
     <use style="fill:#000080;stroke:#000080;" x="181.854778" xlink:href="#m2d688e6969" y="27.513663"/>
     <use style="fill:#000080;stroke:#000080;" x="181.854778" xlink:href="#m2d688e6969" y="27.513663"/>
    </g>
   </g>
   <g id="line2d_43">
    <path d="M 37.236359 294.88 
L 37.236359 294.355752 
L 90.367147 294.355752 
L 90.367147 293.831505 
L 93.887283 293.831505 
L 93.887283 293.307257 
L 95.115564 293.307257 
L 95.115564 292.783009 
L 96.261898 292.783009 
L 96.261898 292.258761 
L 96.807615 292.258761 
L 96.807615 291.734514 
L 97.336537 291.734514 
L 97.336537 291.210266 
L 97.849669 291.210266 
L 97.849669 290.686018 
L 101.88624 290.686018 
L 101.88624 290.161771 
L 102.281398 290.161771 
L 102.281398 289.637523 
L 102.667676 289.637523 
L 102.667676 288.589027 
L 103.045463 288.589027 
L 103.045463 287.540532 
L 103.415125 287.540532 
L 103.415125 287.016284 
L 105.480242 287.016284 
L 105.480242 286.492036 
L 106.11693 286.492036 
L 106.11693 285.967789 
L 107.896653 285.967789 
L 107.896653 285.443541 
L 111.675736 285.443541 
L 111.675736 284.919293 
L 114.195649 284.919293 
L 114.195649 284.395046 
L 114.389873 284.395046 
L 114.389873 283.870798 
L 114.771859 283.870798 
L 114.771859 283.34655 
L 115.511269 283.34655 
L 115.511269 282.298055 
L 115.691256 282.298055 
L 115.691256 280.725312 
L 116.39293 280.725312 
L 116.39293 278.628321 
L 116.563963 278.628321 
L 116.563963 277.055578 
L 117.06708 277.055578 
L 117.06708 276.53133 
L 117.394493 276.53133 
L 117.394493 275.482834 
L 117.55589 275.482834 
L 117.55589 273.910091 
L 117.715785 273.910091 
L 117.715785 272.337348 
L 118.031182 272.337348 
L 118.031182 270.764605 
L 118.186736 270.764605 
L 118.186736 269.716109 
L 118.340895 269.716109 
L 118.340895 267.094871 
L 118.645127 267.094871 
L 118.645127 266.570623 
L 118.795247 266.570623 
L 118.795247 266.046375 
L 119.09161 266.046375 
L 119.09161 264.473632 
L 119.237897 264.473632 
L 119.237897 262.900889 
L 119.382949 262.900889 
L 119.382949 262.376641 
L 119.526788 262.376641 
L 119.526788 260.803898 
L 119.669433 260.803898 
L 119.669433 260.279651 
L 119.95122 260.279651 
L 119.95122 258.706907 
L 120.0904 258.706907 
L 120.0904 258.18266 
L 120.365424 258.18266 
L 120.365424 257.134164 
L 120.769881 257.134164 
L 120.769881 256.609917 
L 120.902613 256.609917 
L 120.902613 255.037173 
L 121.034327 255.037173 
L 121.034327 253.988678 
L 121.16504 253.988678 
L 121.16504 252.940182 
L 121.294766 252.940182 
L 121.294766 252.415935 
L 121.42352 252.415935 
L 121.42352 250.843192 
L 121.551317 250.843192 
L 121.551317 248.746201 
L 121.678171 248.746201 
L 121.678171 247.173458 
L 121.804096 247.173458 
L 121.804096 246.64921 
L 122.053211 246.64921 
L 122.053211 246.124962 
L 122.298767 246.124962 
L 122.298767 244.552219 
L 122.540864 244.552219 
L 122.540864 242.979476 
L 122.660646 242.979476 
L 122.660646 241.406733 
L 122.779599 241.406733 
L 122.779599 240.358237 
L 122.897734 240.358237 
L 122.897734 239.83399 
L 123.015063 239.83399 
L 123.015063 238.785494 
L 123.247346 238.785494 
L 123.247346 238.261246 
L 123.589988 238.261246 
L 123.589988 237.736999 
L 123.7027 237.736999 
L 123.7027 236.688503 
L 124.036471 236.688503 
L 124.146303 235.11576 
L 124.896081 235.11576 
L 124.896081 234.591512 
L 125.104431 234.591512 
L 125.207666 233.543017 
L 125.814387 233.543017 
L 125.814387 233.018769 
L 126.011959 233.018769 
L 126.011959 232.494521 
L 126.207287 232.494521 
L 126.304124 230.397531 
L 126.40042 230.397531 
L 126.496178 229.349035 
L 126.68611 229.349035 
L 126.68611 228.30054 
L 126.873966 228.30054 
L 126.873966 227.252044 
L 127.243628 227.252044 
L 127.243628 226.727797 
L 128.731613 226.727797 
L 128.815257 225.679301 
L 129.227474 225.679301 
L 129.227474 224.630806 
L 129.70943 224.630806 
L 129.70943 223.058063 
L 130.483823 223.058063 
L 130.483823 222.533815 
L 130.709498 222.533815 
L 130.709498 221.485319 
L 130.858318 221.485319 
L 130.858318 220.961072 
L 131.07916 220.961072 
L 131.07916 220.436824 
L 131.2972 220.436824 
L 131.36927 219.388328 
L 131.654565 219.388328 
L 131.654565 217.815585 
L 131.795457 217.815585 
L 131.795457 216.76709 
L 132.004651 216.76709 
L 132.004651 216.242842 
L 132.142713 216.242842 
L 132.142713 215.718594 
L 132.279675 215.718594 
L 132.347749 214.670099 
L 132.483094 214.670099 
L 132.483094 213.097356 
L 132.750626 213.097356 
L 132.816864 212.04886 
L 132.948578 212.04886 
L 132.948578 211.000365 
L 133.079291 211.000365 
L 133.079291 210.476117 
L 133.209017 210.476117 
L 133.209017 209.95187 
L 133.401789 209.95187 
L 133.465568 208.379126 
L 133.780965 208.379126 
L 133.780965 207.854879 
L 133.905521 207.854879 
L 133.905521 207.330631 
L 134.029181 207.330631 
L 134.029181 206.806383 
L 134.151957 206.806383 
L 134.213018 205.757888 
L 134.574897 205.757888 
L 134.634477 204.185145 
L 134.69385 204.185145 
L 134.69385 203.660897 
L 135.045848 203.660897 
L 135.10382 202.612401 
L 135.276571 202.612401 
L 135.276571 201.039658 
L 135.447604 201.039658 
L 135.504239 199.466915 
L 135.72893 199.466915 
L 135.72893 197.894172 
L 135.950722 197.894172 
L 136.005725 196.321429 
L 136.169688 196.321429 
L 136.278134 193.70019 
L 136.332102 193.70019 
L 136.332102 192.651695 
L 136.705203 192.651695 
L 136.810332 188.457713 
L 137.018682 188.457713 
L 137.121917 185.836474 
L 137.173303 185.836474 
L 137.275617 183.739484 
L 137.377325 183.739484 
L 137.377325 182.16674 
L 137.528768 182.16674 
L 137.578954 180.593997 
L 137.87703 180.593997 
L 137.975251 177.972759 
L 138.024152 177.972759 
L 138.024152 177.448511 
L 138.170025 177.448511 
L 138.218376 175.875768 
L 138.362617 175.875768 
L 138.362617 174.827272 
L 138.505658 174.827272 
L 138.600361 173.778777 
L 138.788217 173.778777 
L 138.88138 172.730281 
L 138.974042 172.730281 
L 138.974042 171.157538 
L 139.339771 171.157538 
L 139.339771 169.584795 
L 139.474938 169.584795 
L 139.564462 168.5363 
L 139.60905 168.5363 
L 139.60905 165.915061 
L 139.830271 165.915061 
L 139.830271 165.390813 
L 139.96165 165.390813 
L 139.96165 164.866566 
L 140.092032 164.866566 
L 140.092032 164.342318 
L 140.26435 164.342318 
L 140.307161 162.245327 
L 140.392465 162.245327 
L 140.392465 161.721079 
L 140.519632 161.721079 
L 140.519632 161.196832 
L 140.645865 161.196832 
L 140.687737 160.148336 
L 140.771177 160.148336 
L 140.812746 158.051345 
L 141.222995 158.051345 
L 141.303883 157.00285 
L 141.424506 157.00285 
L 141.464526 155.430107 
L 141.702709 155.430107 
L 141.781376 154.381611 
L 141.898705 154.381611 
L 141.898705 153.333116 
L 142.245962 153.333116 
L 142.245962 152.808868 
L 142.398074 152.808868 
L 142.435893 151.760373 
L 142.511282 151.760373 
L 142.586342 150.711877 
L 142.623749 150.711877 
L 142.69832 149.139134 
L 142.735485 149.139134 
L 142.846499 146.517896 
L 142.956801 146.517896 
L 142.956801 145.993648 
L 143.211452 145.993648 
L 143.211452 145.4694 
L 143.391063 145.4694 
L 143.426761 144.420905 
L 143.814623 144.420905 
L 143.814623 143.896657 
L 143.953522 143.896657 
L 143.953522 143.372409 
L 144.125582 143.372409 
L 144.193927 142.323914 
L 144.262 142.323914 
L 144.262 141.799666 
L 144.464619 141.799666 
L 144.531632 140.226923 
L 144.598384 140.226923 
L 144.698028 138.65418 
L 144.764138 138.65418 
L 144.829995 136.557189 
L 145.219924 136.557189 
L 145.284061 135.508693 
L 145.347959 135.508693 
L 145.443364 132.887455 
L 145.569751 132.887455 
L 145.663936 131.314712 
L 145.819772 131.314712 
L 145.881713 129.741969 
L 145.943432 129.741969 
L 146.035596 128.693473 
L 146.127269 128.693473 
L 146.188114 127.644978 
L 146.489148 127.644978 
L 146.489148 127.12073 
L 146.608101 127.12073 
L 146.696779 125.023739 
L 146.726237 125.023739 
L 146.726237 124.499491 
L 146.901931 124.499491 
L 146.98911 121.878253 
L 147.018071 121.878253 
L 147.018071 121.354005 
L 147.248023 121.354005 
L 147.333468 118.208519 
L 147.361855 118.208519 
L 147.41849 116.635776 
L 147.531203 116.635776 
L 147.531203 116.111528 
L 147.643181 116.111528 
L 147.698898 115.063032 
L 147.754435 115.063032 
L 147.809793 112.966042 
L 147.919977 112.966042 
L 148.002154 111.393298 
L 148.433916 111.393298 
L 148.540183 109.296308 
L 148.672099 109.296308 
L 148.776908 107.723564 
L 148.855098 107.723564 
L 148.907027 106.150821 
L 149.087555 106.150821 
L 149.164347 104.05383 
L 149.266206 104.05383 
L 149.342206 102.481087 
L 149.392686 102.481087 
L 149.392686 101.956839 
L 149.642889 101.956839 
L 149.66771 100.908344 
L 149.766638 100.908344 
L 149.840462 99.859849 
L 150.132627 99.859849 
L 150.132627 99.335601 
L 150.372361 99.335601 
L 150.443634 98.287105 
L 150.749113 98.287105 
L 150.818844 97.23861 
L 151.07213 97.23861 
L 151.117784 95.665867 
L 151.186038 95.665867 
L 151.276624 93.044628 
L 151.678454 93.044628 
L 151.766488 91.996133 
L 151.8977 91.996133 
L 151.8977 91.471885 
L 152.027918 91.471885 
L 152.135684 89.374894 
L 152.157156 89.374894 
L 152.157156 88.850646 
L 152.306716 88.850646 
L 152.412754 87.277903 
L 152.539141 87.277903 
L 152.622886 86.229408 
L 152.747744 86.229408 
L 152.747744 85.70516 
L 152.97432 85.70516 
L 152.97432 84.132417 
L 153.197948 84.132417 
L 153.298643 83.083922 
L 153.478421 83.083922 
L 153.478421 82.559674 
L 153.636661 82.559674 
L 153.675994 81.511178 
L 153.832433 81.511178 
L 153.832433 80.986931 
L 153.968159 80.986931 
L 154.026001 79.414188 
L 154.198367 79.414188 
L 154.198367 78.88994 
L 154.331245 78.88994 
L 154.38788 77.317197 
L 154.705333 77.317197 
L 154.705333 76.792949 
L 154.907662 76.792949 
L 155.017028 75.744454 
L 155.035189 75.744454 
L 155.125703 74.17171 
L 155.161776 74.17171 
L 155.161776 73.647463 
L 155.358833 73.647463 
L 155.358833 73.123215 
L 155.553658 73.123215 
L 155.553658 72.598967 
L 155.798464 72.598967 
L 155.798464 71.550472 
L 155.936804 71.550472 
L 155.936804 71.026224 
L 156.091117 71.026224 
L 156.091117 70.501976 
L 156.260967 70.501976 
L 156.260967 69.977729 
L 156.512635 69.977729 
L 156.512635 69.453481 
L 156.678389 69.453481 
L 156.77708 67.880738 
L 157.005179 67.880738 
L 157.005179 67.35649 
L 157.150232 67.35649 
L 157.166274 66.307995 
L 157.578187 66.307995 
L 157.68742 65.259499 
L 157.734023 65.259499 
L 157.7805 64.211004 
L 158.147858 64.211004 
L 158.147858 63.686756 
L 158.4034 63.686756 
L 158.448103 62.114013 
L 158.537164 62.114013 
L 158.596282 61.065517 
L 158.68458 61.065517 
L 158.68458 60.54127 
L 158.946785 60.54127 
L 158.961235 58.968526 
L 159.247719 58.968526 
L 159.290283 57.920031 
L 159.375095 57.920031 
L 159.375095 57.395783 
L 159.543475 57.395783 
L 159.62705 55.298792 
L 159.696387 55.298792 
L 159.710221 54.250297 
L 159.820493 54.250297 
L 159.889056 53.201802 
L 160.066049 53.201802 
L 160.106637 52.153306 
L 160.795333 52.153306 
L 160.795333 51.629058 
L 161.193147 51.629058 
L 161.193147 51.104811 
L 161.631496 51.104811 
L 161.65621 50.056315 
L 161.95004 50.056315 
L 161.95004 49.532068 
L 162.581652 49.532068 
L 162.581652 49.00782 
L 162.721493 49.00782 
L 162.721493 48.483572 
L 163.325865 48.483572 
L 163.325865 47.959324 
L 163.603734 47.959324 
L 163.691712 46.386581 
L 163.888031 46.386581 
L 163.888031 45.862334 
L 164.049935 45.862334 
L 164.14635 44.813838 
L 164.327005 44.813838 
L 164.337573 43.765343 
L 164.568437 43.765343 
L 164.568437 43.241095 
L 164.878337 43.241095 
L 164.970227 41.668352 
L 165.091989 41.668352 
L 165.16262 40.095609 
L 165.382734 40.095609 
L 165.481861 39.047113 
L 166.103088 39.047113 
L 166.103088 38.522865 
L 166.283274 38.522865 
L 166.283274 37.998618 
L 166.442907 37.998618 
L 166.480253 36.950122 
L 167.183793 36.950122 
L 167.183793 36.425875 
L 167.573253 36.425875 
L 167.573253 35.901627 
L 168.124439 35.901627 
L 168.124439 35.377379 
L 168.543082 35.377379 
L 168.543082 34.853131 
L 169.31937 34.853131 
L 169.429706 33.804636 
L 169.632754 33.804636 
L 169.687014 32.756141 
L 170.190355 32.756141 
L 170.190355 32.231893 
L 170.613504 32.231893 
L 170.613504 31.707645 
L 170.925967 31.707645 
L 170.925967 31.183397 
L 171.727873 31.183397 
L 171.727873 30.65915 
L 172.11522 30.65915 
L 172.11522 30.134902 
L 172.308991 30.134902 
L 172.308991 29.610654 
L 174.212762 29.610654 
L 174.212762 29.086407 
L 175.256916 29.086407 
L 175.256916 28.562159 
L 176.607319 28.562159 
L 176.607319 28.037911 
L 181.854778 28.037911 
L 181.854778 27.513663 
L 333.168 27.513663 
L 333.168 27.513663 
" style="fill:none;stroke:#000080;stroke-linecap:square;stroke-width:1.5;"/>
   </g>
   <g id="line2d_44">
    <defs>
     <path d="M 0 6 
C 1.591219 6 3.117479 5.367802 4.242641 4.242641 
C 5.367802 3.117479 6 1.591219 6 0 
C 6 -1.591219 5.367802 -3.117479 4.242641 -4.242641 
C 3.117479 -5.367802 1.591219 -6 0 -6 
C -1.591219 -6 -3.117479 -5.367802 -4.242641 -4.242641 
C -5.367802 -3.117479 -6 -1.591219 -6 0 
C -6 1.591219 -5.367802 3.117479 -4.242641 4.242641 
C -3.117479 5.367802 -1.591219 6 0 6 
z
" id="mf48a5b9ba8" style="stroke:#000080;stroke-width:1.5;"/>
    </defs>
    <g>
     <use style="fill:none;stroke:#000080;stroke-width:1.5;" x="117.55589" xlink:href="#mf48a5b9ba8" y="273.910091"/>
     <use style="fill:none;stroke:#000080;stroke-width:1.5;" x="144.598384" xlink:href="#mf48a5b9ba8" y="140.226923"/>
     <use style="fill:none;stroke:#000080;stroke-width:1.5;" x="181.854778" xlink:href="#mf48a5b9ba8" y="28.037911"/>
     <use style="fill:none;stroke:#000080;stroke-width:1.5;" x="181.854778" xlink:href="#mf48a5b9ba8" y="27.513663"/>
     <use style="fill:none;stroke:#000080;stroke-width:1.5;" x="181.854778" xlink:href="#mf48a5b9ba8" y="27.513663"/>
     <use style="fill:none;stroke:#000080;stroke-width:1.5;" x="333.168" xlink:href="#mf48a5b9ba8" y="27.513663"/>
    </g>
   </g>
   <g id="line2d_45">
    <path style="fill:none;stroke:#000080;stroke-linecap:square;stroke-width:1.5;"/>
    <g/>
   </g>
   <g id="line2d_46">
    <path clip-path="url(#pe878cb80a7)" d="M 128.647561 226.727797 
" style="fill:none;stroke:#000080;stroke-linecap:square;stroke-width:1.5;"/>
    <defs>
     <path d="M -12 12 
L 12 -12 
M -12 -12 
L 12 12 
" id="m47d4c328bb" style="stroke:#000080;"/>
    </defs>
    <g clip-path="url(#pe878cb80a7)">
     <use style="fill:#000080;stroke:#000080;" x="128.647561" xlink:href="#m47d4c328bb" y="226.727797"/>
    </g>
   </g>
   <g id="line2d_47">
    <defs>
     <path d="M 0 1.5 
C 0.397805 1.5 0.77937 1.341951 1.06066 1.06066 
C 1.341951 0.77937 1.5 0.397805 1.5 0 
C 1.5 -0.397805 1.341951 -0.77937 1.06066 -1.06066 
C 0.77937 -1.341951 0.397805 -1.5 0 -1.5 
C -0.397805 -1.5 -0.77937 -1.341951 -1.06066 -1.06066 
C -1.341951 -0.77937 -1.5 -0.397805 -1.5 0 
C -1.5 0.397805 -1.341951 0.77937 -1.06066 1.06066 
C -0.77937 1.341951 -0.397805 1.5 0 1.5 
z
" id="mbccff6ea8b" style="stroke:#ff00ff;"/>
    </defs>
    <g>
     <use style="fill:#ff00ff;stroke:#ff00ff;" x="175.451705" xlink:href="#mbccff6ea8b" y="27.513663"/>
     <use style="fill:#ff00ff;stroke:#ff00ff;" x="175.451705" xlink:href="#mbccff6ea8b" y="27.513663"/>
    </g>
   </g>
   <g id="line2d_48">
    <path d="M 37.236359 294.88 
L 37.236359 294.355752 
L 95.115564 294.355752 
L 95.115564 293.831505 
L 96.261898 293.831505 
L 96.261898 293.307257 
L 96.807615 293.307257 
L 96.807615 292.783009 
L 97.849669 292.783009 
L 97.849669 292.258761 
L 98.347925 292.258761 
L 98.347925 291.734514 
L 101.88624 291.734514 
L 101.88624 291.210266 
L 102.667676 291.210266 
L 102.667676 289.637523 
L 103.045463 289.637523 
L 103.045463 288.06478 
L 103.415125 288.06478 
L 103.415125 287.540532 
L 105.480242 287.540532 
L 105.480242 287.016284 
L 106.11693 287.016284 
L 106.11693 286.492036 
L 107.896653 286.492036 
L 107.896653 285.967789 
L 111.675736 285.967789 
L 111.675736 285.443541 
L 114.195649 285.443541 
L 114.195649 284.919293 
L 114.389873 284.919293 
L 114.389873 284.395046 
L 114.581927 284.395046 
L 114.581927 283.870798 
L 114.771859 283.870798 
L 114.771859 282.298055 
L 114.959714 282.298055 
L 114.959714 281.773807 
L 115.329377 281.773807 
L 115.329377 281.249559 
L 115.511269 281.249559 
L 115.511269 280.201064 
L 115.691256 280.201064 
L 115.691256 278.104073 
L 116.220179 278.104073 
L 116.220179 277.579825 
L 116.39293 277.579825 
L 116.39293 276.007082 
L 116.563963 276.007082 
L 116.563963 274.434339 
L 117.394493 274.434339 
L 117.394493 272.861596 
L 117.55589 272.861596 
L 117.55589 271.8131 
L 117.715785 271.8131 
L 117.715785 270.240357 
L 117.874207 270.240357 
L 117.874207 269.716109 
L 118.031182 269.716109 
L 118.031182 266.570623 
L 118.186736 266.570623 
L 118.186736 266.046375 
L 118.340895 266.046375 
L 118.340895 264.99788 
L 118.645127 264.99788 
L 118.645127 264.473632 
L 118.795247 264.473632 
L 118.795247 263.949385 
L 119.09161 263.949385 
L 119.09161 262.376641 
L 119.237897 262.376641 
L 119.237897 261.328146 
L 119.382949 261.328146 
L 119.382949 260.279651 
L 119.526788 260.279651 
L 119.526788 258.706907 
L 119.95122 258.706907 
L 119.95122 257.134164 
L 120.365424 257.134164 
L 120.365424 255.561421 
L 120.902613 255.561421 
L 120.902613 253.988678 
L 121.034327 253.988678 
L 121.034327 253.46443 
L 121.294766 253.46443 
L 121.294766 252.940182 
L 121.42352 252.940182 
L 121.42352 251.367439 
L 121.551317 251.367439 
L 121.551317 249.794696 
L 121.678171 249.794696 
L 121.678171 247.697705 
L 121.804096 247.697705 
L 121.804096 246.124962 
L 122.053211 246.124962 
L 122.053211 245.076467 
L 122.298767 245.076467 
L 122.298767 244.552219 
L 122.540864 244.552219 
L 122.540864 244.027971 
L 122.660646 244.027971 
L 122.660646 241.93098 
L 122.779599 241.93098 
L 122.779599 241.406733 
L 122.897734 241.406733 
L 122.897734 240.358237 
L 123.015063 240.358237 
L 123.015063 239.83399 
L 123.247346 239.83399 
L 123.247346 238.785494 
L 123.589988 238.785494 
L 123.589988 238.261246 
L 123.7027 238.261246 
L 123.7027 237.212751 
L 124.036471 237.212751 
L 124.146303 235.11576 
L 125.207666 235.11576 
L 125.207666 234.591512 
L 125.714742 234.591512 
L 125.814387 233.543017 
L 126.011959 233.543017 
L 126.011959 232.494521 
L 126.207287 232.494521 
L 126.304124 231.446026 
L 126.40042 231.446026 
L 126.496178 230.397531 
L 126.68611 230.397531 
L 126.68611 229.873283 
L 126.873966 229.873283 
L 126.873966 228.824787 
L 127.243628 228.824787 
L 127.243628 227.776292 
L 127.42552 227.776292 
L 127.42552 227.252044 
L 128.731613 227.252044 
L 128.731613 226.727797 
L 129.227474 226.727797 
L 129.308744 225.155053 
L 129.70943 225.155053 
L 129.70943 223.58231 
L 130.483823 223.58231 
L 130.559378 222.533815 
L 130.709498 222.533815 
L 130.709498 221.485319 
L 131.07916 221.485319 
L 131.07916 220.436824 
L 131.224827 220.436824 
L 131.224827 219.912576 
L 131.36927 219.912576 
L 131.36927 219.388328 
L 131.654565 219.388328 
L 131.654565 218.864081 
L 131.795457 218.864081 
L 131.795457 218.339833 
L 132.004651 218.339833 
L 132.004651 217.815585 
L 132.211331 217.815585 
L 132.279675 216.242842 
L 132.347749 216.242842 
L 132.347749 215.194347 
L 132.483094 215.194347 
L 132.550368 213.621604 
L 132.816864 213.621604 
L 132.816864 213.097356 
L 132.948578 213.097356 
L 133.014059 211.000365 
L 133.079291 211.000365 
L 133.079291 210.476117 
L 133.209017 210.476117 
L 133.273515 209.427622 
L 133.401789 209.427622 
L 133.465568 206.806383 
L 133.718347 206.806383 
L 133.718347 206.282136 
L 133.905521 206.282136 
L 133.905521 205.23364 
L 134.029181 205.23364 
L 134.029181 204.709392 
L 134.151957 204.709392 
L 134.213018 203.660897 
L 134.515111 203.660897 
L 134.574897 202.612401 
L 134.634477 202.612401 
L 134.69385 200.515411 
L 134.87075 200.515411 
L 134.929315 199.466915 
L 135.045848 199.466915 
L 135.10382 198.41842 
L 135.276571 198.41842 
L 135.276571 196.321429 
L 135.447604 196.321429 
L 135.504239 194.224438 
L 135.72893 194.224438 
L 135.72893 193.175943 
L 135.895542 193.175943 
L 136.005725 191.603199 
L 136.115208 191.603199 
L 136.169688 188.981961 
L 136.278134 188.981961 
L 136.3859 186.88497 
L 136.546293 186.88497 
L 136.652396 185.836474 
L 136.757848 185.836474 
L 136.862657 181.118245 
L 137.018682 181.118245 
L 137.070377 179.545502 
L 137.173303 179.545502 
L 137.275617 176.924263 
L 137.377325 176.924263 
L 137.377325 175.35152 
L 137.528768 175.35152 
L 137.578954 174.303025 
L 137.926211 174.303025 
L 137.975251 172.730281 
L 138.072914 172.730281 
L 138.072914 172.206034 
L 138.218376 172.206034 
L 138.218376 171.681786 
L 138.362617 171.681786 
L 138.362617 171.157538 
L 138.505658 171.157538 
L 138.600361 170.109043 
L 138.788217 170.109043 
L 138.88138 168.5363 
L 138.974042 168.5363 
L 139.066206 167.487804 
L 139.384945 167.487804 
L 139.384945 166.439309 
L 139.564462 166.439309 
L 139.60905 162.769575 
L 139.69788 162.769575 
L 139.69788 162.245327 
L 139.830271 162.245327 
L 139.874176 161.196832 
L 139.96165 161.196832 
L 139.96165 160.672584 
L 140.092032 160.672584 
L 140.092032 159.624089 
L 140.26435 159.624089 
L 140.307161 157.00285 
L 140.392465 157.00285 
L 140.477347 155.954354 
L 140.561812 155.954354 
L 140.561812 155.430107 
L 140.771177 155.430107 
L 140.812746 151.760373 
L 141.060069 151.760373 
L 141.100945 150.18763 
L 141.263487 150.18763 
L 141.263487 149.663382 
L 141.424506 149.663382 
L 141.424506 149.139134 
L 141.742087 149.139134 
L 141.820574 147.042143 
L 141.898705 147.042143 
L 141.976481 144.420905 
L 142.130987 144.420905 
L 142.130987 143.896657 
L 142.245962 143.896657 
L 142.284116 142.323914 
L 142.586342 142.323914 
L 142.586342 141.275418 
L 142.69832 141.275418 
L 142.772569 140.226923 
L 142.846499 140.226923 
L 142.956801 137.081437 
L 143.102777 137.081437 
L 143.211452 135.508693 
L 143.426761 135.508693 
L 143.533413 133.93595 
L 143.639406 133.93595 
L 143.639406 132.887455 
L 143.814623 132.887455 
L 143.849453 131.838959 
L 143.953522 131.838959 
L 143.953522 130.790464 
L 144.091308 130.790464 
L 144.193927 127.644978 
L 144.262 127.644978 
L 144.329806 125.547987 
L 144.431015 125.547987 
L 144.431015 125.023739 
L 144.56504 125.023739 
L 144.664877 123.975244 
L 144.862829 123.975244 
L 144.862829 123.450996 
L 145.155547 123.450996 
L 145.155547 122.926748 
L 145.347959 122.926748 
L 145.411621 121.878253 
L 145.506674 121.878253 
L 145.569751 120.829757 
L 145.72644 120.829757 
L 145.819772 119.781262 
L 145.85077 119.781262 
L 145.9126 117.684271 
L 146.096766 117.684271 
L 146.096766 115.58728 
L 146.309161 115.58728 
L 146.309161 115.063032 
L 146.429362 115.063032 
L 146.518964 112.966042 
L 146.696779 112.966042 
L 146.696779 112.441794 
L 146.814308 112.441794 
L 146.901931 110.344803 
L 147.046984 110.344803 
L 147.133431 109.296308 
L 147.248023 109.296308 
L 147.305033 107.199317 
L 147.390196 107.199317 
L 147.41849 105.626573 
L 147.559266 105.626573 
L 147.559266 105.102326 
L 147.671062 105.102326 
L 147.782136 101.956839 
L 147.919977 101.956839 
L 147.947413 100.908344 
L 148.111115 100.908344 
L 148.111115 100.384096 
L 148.433916 100.384096 
L 148.513678 98.811353 
L 148.750766 98.811353 
L 148.750766 98.287105 
L 148.907027 98.287105 
L 148.984628 97.23861 
L 149.087555 97.23861 
L 149.087555 96.714362 
L 149.46813 96.714362 
L 149.56821 95.141619 
L 149.642889 95.141619 
L 149.642889 94.617371 
L 149.791281 94.617371 
L 149.840462 93.044628 
L 150.108469 93.044628 
L 150.108469 92.520381 
L 150.228922 92.520381 
L 150.228922 91.996133 
L 150.467326 91.996133 
L 150.538207 90.947637 
L 150.818844 90.947637 
L 150.818844 90.42339 
L 151.276624 90.42339 
L 151.321738 89.374894 
L 151.589967 89.374894 
L 151.678454 88.326399 
L 151.744522 88.326399 
L 151.788427 86.229408 
L 151.941216 86.229408 
L 151.941216 85.70516 
L 152.135684 85.70516 
L 152.242778 83.608169 
L 152.370417 83.608169 
L 152.433883 82.035426 
L 152.518141 82.035426 
L 152.539141 80.986931 
L 152.953845 80.986931 
L 152.953845 80.462683 
L 153.096659 80.462683 
L 153.177738 78.365692 
L 153.398752 78.365692 
L 153.398752 77.841444 
L 153.557723 77.841444 
L 153.557723 76.792949 
L 153.695627 76.792949 
L 153.793457 75.220206 
L 153.832433 75.220206 
L 153.910122 72.598967 
L 154.026001 72.598967 
L 154.026001 72.074719 
L 154.274423 72.074719 
L 154.274423 71.550472 
L 154.406717 71.550472 
L 154.406717 71.026224 
L 154.852717 71.026224 
L 154.852717 70.501976 
L 155.107638 70.501976 
L 155.215743 69.453481 
L 155.358833 69.453481 
L 155.358833 68.929233 
L 156.056945 68.929233 
L 156.108178 66.832242 
L 156.395648 66.832242 
L 156.479291 64.735251 
L 156.545914 64.735251 
L 156.545914 64.211004 
L 156.678389 64.211004 
L 156.678389 63.686756 
L 156.842561 63.686756 
L 156.842561 63.162508 
L 157.118104 63.162508 
L 157.118104 62.638261 
L 157.452492 62.638261 
L 157.515455 61.589765 
L 157.734023 61.589765 
L 157.826851 60.54127 
L 157.934521 60.54127 
L 157.96516 59.492774 
L 158.343613 59.492774 
L 158.4034 57.920031 
L 158.492691 57.920031 
L 158.551963 56.871536 
L 158.713912 56.871536 
L 158.816182 54.774545 
L 158.961235 54.774545 
L 158.961235 54.250297 
L 159.3186 54.250297 
L 159.417345 52.677554 
L 159.431405 52.677554 
L 159.487531 51.629058 
L 159.654819 51.629058 
L 159.654819 51.104811 
L 159.820493 51.104811 
L 159.820493 50.580563 
L 160.011784 50.580563 
L 160.120144 49.00782 
L 160.294786 49.00782 
L 160.401383 47.959324 
L 160.533705 47.959324 
L 160.625729 46.386581 
L 160.873051 46.386581 
L 160.89888 45.338086 
L 161.078598 45.338086 
L 161.167758 43.765343 
L 161.36983 43.765343 
L 161.36983 43.241095 
L 161.606747 43.241095 
L 161.705532 42.192599 
L 161.803753 42.192599 
L 161.803753 41.668352 
L 162.452458 41.668352 
L 162.452458 41.144104 
L 162.651715 41.144104 
L 162.651715 40.619856 
L 163.23599 40.619856 
L 163.23599 40.095609 
L 163.415273 40.095609 
L 163.415273 39.571361 
L 163.658773 39.571361 
L 163.658773 39.047113 
L 164.189028 39.047113 
L 164.242227 37.998618 
L 164.474367 37.998618 
L 164.474367 37.47437 
L 164.837338 37.47437 
L 164.929448 36.425875 
L 165.402605 36.425875 
L 165.402605 35.901627 
L 165.550912 35.901627 
L 165.550912 35.377379 
L 165.853416 35.377379 
L 165.88241 34.328884 
L 165.9691 34.328884 
L 165.9691 33.804636 
L 166.563987 33.804636 
L 166.563987 33.280388 
L 166.958513 33.280388 
L 166.958513 32.756141 
L 168.49338 32.756141 
L 168.559617 31.707645 
L 168.927521 31.707645 
L 168.927521 31.183397 
L 169.779633 31.183397 
L 169.887063 29.610654 
L 170.384663 29.610654 
L 170.384663 29.086407 
L 170.925967 29.086407 
L 170.925967 28.562159 
L 171.422783 28.562159 
L 171.422783 28.037911 
L 175.451705 28.037911 
L 175.451705 27.513663 
L 333.168 27.513663 
L 333.168 27.513663 
" style="fill:none;stroke:#ff00ff;stroke-linecap:square;stroke-width:1.5;"/>
   </g>
   <g id="line2d_49">
    <defs>
     <path d="M -0 8.485281 
L 5.091169 0 
L 0 -8.485281 
L -5.091169 -0 
z
" id="m1d32315aee" style="stroke:#ff00ff;stroke-linejoin:miter;stroke-width:1.5;"/>
    </defs>
    <g>
     <use style="fill:none;stroke:#ff00ff;stroke-linejoin:miter;stroke-width:1.5;" x="131.224827" xlink:href="#m1d32315aee" y="220.436824"/>
     <use style="fill:none;stroke:#ff00ff;stroke-linejoin:miter;stroke-width:1.5;" x="150.818844" xlink:href="#m1d32315aee" y="90.947637"/>
     <use style="fill:none;stroke:#ff00ff;stroke-linejoin:miter;stroke-width:1.5;" x="175.451705" xlink:href="#m1d32315aee" y="28.037911"/>
     <use style="fill:none;stroke:#ff00ff;stroke-linejoin:miter;stroke-width:1.5;" x="175.451705" xlink:href="#m1d32315aee" y="27.513663"/>
     <use style="fill:none;stroke:#ff00ff;stroke-linejoin:miter;stroke-width:1.5;" x="175.451705" xlink:href="#m1d32315aee" y="27.513663"/>
     <use style="fill:none;stroke:#ff00ff;stroke-linejoin:miter;stroke-width:1.5;" x="333.168" xlink:href="#m1d32315aee" y="27.513663"/>
    </g>
   </g>
   <g id="line2d_50">
    <path style="fill:none;stroke:#ff00ff;stroke-linecap:square;stroke-width:1.5;"/>
    <g/>
   </g>
   <g id="line2d_51">
    <path clip-path="url(#pe878cb80a7)" d="M 128.647561 227.252044 
" style="fill:none;stroke:#ff00ff;stroke-linecap:square;stroke-width:1.5;"/>
    <defs>
     <path d="M -12 12 
L 12 -12 
M -12 -12 
L 12 12 
" id="m7dfb571b12" style="stroke:#ff00ff;"/>
    </defs>
    <g clip-path="url(#pe878cb80a7)">
     <use style="fill:#ff00ff;stroke:#ff00ff;" x="128.647561" xlink:href="#m7dfb571b12" y="227.252044"/>
    </g>
   </g>
   <g id="line2d_52">
    <path d="M 333.168 27.513663 
L 363.64328 289.532673 
" style="fill:none;stroke:#000080;stroke-linecap:square;stroke-width:1.5;"/>
    <g>
     <use style="fill:none;stroke:#000080;stroke-width:1.5;" x="333.168" xlink:href="#mf48a5b9ba8" y="27.513663"/>
     <use style="fill:none;stroke:#000080;stroke-width:1.5;" x="363.64328" xlink:href="#mf48a5b9ba8" y="289.532673"/>
    </g>
   </g>
   <g id="line2d_53">
    <path d="M 333.168 27.513663 
L 363.64328 161.196832 
" style="fill:none;stroke:#ff00ff;stroke-linecap:square;stroke-width:1.5;"/>
    <g>
     <use style="fill:none;stroke:#ff00ff;stroke-linejoin:miter;stroke-width:1.5;" x="333.168" xlink:href="#m1d32315aee" y="27.513663"/>
     <use style="fill:none;stroke:#ff00ff;stroke-linejoin:miter;stroke-width:1.5;" x="363.64328" xlink:href="#m1d32315aee" y="161.196832"/>
    </g>
   </g>
   <g id="line2d_54">
    <path d="M 333.168 294.88 
L 333.168 27.513663 
" style="fill:none;stroke:#000000;stroke-linecap:square;stroke-width:1.5;"/>
   </g>
   <g id="patch_3">
    <path d="M 56.12 294.88 
L 56.12 24.84 
" style="fill:none;stroke:#000000;stroke-linecap:square;stroke-linejoin:miter;stroke-width:0.8;"/>
   </g>
   <g id="patch_4">
    <path d="M 333.168 294.88 
L 333.168 24.84 
" style="fill:none;stroke:#000000;stroke-linecap:square;stroke-linejoin:miter;stroke-width:0.8;"/>
   </g>
   <g id="patch_5">
    <path d="M 56.12 294.88 
L 333.168 294.88 
" style="fill:none;stroke:#000000;stroke-linecap:square;stroke-linejoin:miter;stroke-width:0.8;"/>
   </g>
   <g id="patch_6">
    <path d="M 56.12 24.84 
L 333.168 24.84 
" style="fill:none;stroke:#000000;stroke-linecap:square;stroke-linejoin:miter;stroke-width:0.8;"/>
   </g>
   <g id="text_13">
    <!-- scipyAlg -->
    <defs>
     <path d="M 32.171875 -5.078125 
Q 28.375 -14.84375 24.75 -17.8125 
Q 21.140625 -20.796875 15.09375 -20.796875 
L 7.90625 -20.796875 
L 7.90625 -13.28125 
L 13.1875 -13.28125 
Q 16.890625 -13.28125 18.9375 -11.515625 
Q 21 -9.765625 23.484375 -3.21875 
L 25.09375 0.875 
L 2.984375 54.6875 
L 12.5 54.6875 
L 29.59375 11.921875 
L 46.6875 54.6875 
L 56.203125 54.6875 
z
" id="DejaVuSans-79"/>
     <path d="M 34.1875 63.1875 
L 20.796875 26.90625 
L 47.609375 26.90625 
z
M 28.609375 72.90625 
L 39.796875 72.90625 
L 67.578125 0 
L 57.328125 0 
L 50.6875 18.703125 
L 17.828125 18.703125 
L 11.1875 0 
L 0.78125 0 
z
" id="DejaVuSans-41"/>
    </defs>
    <g transform="translate(369.18424 294.223611)scale(0.17 -0.17)">
     <use xlink:href="#DejaVuSans-73"/>
     <use x="52.099609" xlink:href="#DejaVuSans-63"/>
     <use x="107.080078" xlink:href="#DejaVuSans-69"/>
     <use x="134.863281" xlink:href="#DejaVuSans-70"/>
     <use x="198.339844" xlink:href="#DejaVuSans-79"/>
     <use x="257.519531" xlink:href="#DejaVuSans-41"/>
     <use x="325.927734" xlink:href="#DejaVuSans-6c"/>
     <use x="353.710938" xlink:href="#DejaVuSans-67"/>
    </g>
   </g>
   <g id="text_14">
    <!-- scipy-opt -->
    <g transform="translate(369.18424 165.887769)scale(0.17 -0.17)">
     <use xlink:href="#DejaVuSans-73"/>
     <use x="52.099609" xlink:href="#DejaVuSans-63"/>
     <use x="107.080078" xlink:href="#DejaVuSans-69"/>
     <use x="134.863281" xlink:href="#DejaVuSans-70"/>
     <use x="198.339844" xlink:href="#DejaVuSans-79"/>
     <use x="257.503906" xlink:href="#DejaVuSans-2d"/>
     <use x="293.603516" xlink:href="#DejaVuSans-6f"/>
     <use x="354.785156" xlink:href="#DejaVuSans-70"/>
     <use x="418.261719" xlink:href="#DejaVuSans-74"/>
    </g>
   </g>
   <g id="text_15">
    <!-- best 2009 -->
    <defs>
     <path d="M 48.6875 27.296875 
Q 48.6875 37.203125 44.609375 42.84375 
Q 40.53125 48.484375 33.40625 48.484375 
Q 26.265625 48.484375 22.1875 42.84375 
Q 18.109375 37.203125 18.109375 27.296875 
Q 18.109375 17.390625 22.1875 11.75 
Q 26.265625 6.109375 33.40625 6.109375 
Q 40.53125 6.109375 44.609375 11.75 
Q 48.6875 17.390625 48.6875 27.296875 
z
M 18.109375 46.390625 
Q 20.953125 51.265625 25.265625 53.625 
Q 29.59375 56 35.59375 56 
Q 45.5625 56 51.78125 48.09375 
Q 58.015625 40.1875 58.015625 27.296875 
Q 58.015625 14.40625 51.78125 6.484375 
Q 45.5625 -1.421875 35.59375 -1.421875 
Q 29.59375 -1.421875 25.265625 0.953125 
Q 20.953125 3.328125 18.109375 8.203125 
L 18.109375 0 
L 9.078125 0 
L 9.078125 75.984375 
L 18.109375 75.984375 
z
" id="DejaVuSans-62"/>
     <path d="M 10.984375 1.515625 
L 10.984375 10.5 
Q 14.703125 8.734375 18.5 7.8125 
Q 22.3125 6.890625 25.984375 6.890625 
Q 35.75 6.890625 40.890625 13.453125 
Q 46.046875 20.015625 46.78125 33.40625 
Q 43.953125 29.203125 39.59375 26.953125 
Q 35.25 24.703125 29.984375 24.703125 
Q 19.046875 24.703125 12.671875 31.3125 
Q 6.296875 37.9375 6.296875 49.421875 
Q 6.296875 60.640625 12.9375 67.421875 
Q 19.578125 74.21875 30.609375 74.21875 
Q 43.265625 74.21875 49.921875 64.515625 
Q 56.59375 54.828125 56.59375 36.375 
Q 56.59375 19.140625 48.40625 8.859375 
Q 40.234375 -1.421875 26.421875 -1.421875 
Q 22.703125 -1.421875 18.890625 -0.6875 
Q 15.09375 0.046875 10.984375 1.515625 
z
M 30.609375 32.421875 
Q 37.25 32.421875 41.125 36.953125 
Q 45.015625 41.5 45.015625 49.421875 
Q 45.015625 57.28125 41.125 61.84375 
Q 37.25 66.40625 30.609375 66.40625 
Q 23.96875 66.40625 20.09375 61.84375 
Q 16.21875 57.28125 16.21875 49.421875 
Q 16.21875 41.5 20.09375 36.953125 
Q 23.96875 32.421875 30.609375 32.421875 
z
" id="DejaVuSans-39"/>
    </defs>
    <g transform="translate(369.18424 37.551928)scale(0.17 -0.17)">
     <use xlink:href="#DejaVuSans-62"/>
     <use x="63.476562" xlink:href="#DejaVuSans-65"/>
     <use x="125" xlink:href="#DejaVuSans-73"/>
     <use x="177.099609" xlink:href="#DejaVuSans-74"/>
     <use x="216.308594" xlink:href="#DejaVuSans-20"/>
     <use x="248.095703" xlink:href="#DejaVuSans-32"/>
     <use x="311.71875" xlink:href="#DejaVuSans-30"/>
     <use x="375.341797" xlink:href="#DejaVuSans-30"/>
     <use x="438.964844" xlink:href="#DejaVuSans-39"/>
    </g>
   </g>
   <g id="text_16">
    <!-- bbob f8, 3-D -->
    <defs>
     <path d="M 40.578125 39.3125 
Q 47.65625 37.796875 51.625 33 
Q 55.609375 28.21875 55.609375 21.1875 
Q 55.609375 10.40625 48.1875 4.484375 
Q 40.765625 -1.421875 27.09375 -1.421875 
Q 22.515625 -1.421875 17.65625 -0.515625 
Q 12.796875 0.390625 7.625 2.203125 
L 7.625 11.71875 
Q 11.71875 9.328125 16.59375 8.109375 
Q 21.484375 6.890625 26.8125 6.890625 
Q 36.078125 6.890625 40.9375 10.546875 
Q 45.796875 14.203125 45.796875 21.1875 
Q 45.796875 27.640625 41.28125 31.265625 
Q 36.765625 34.90625 28.71875 34.90625 
L 20.21875 34.90625 
L 20.21875 43.015625 
L 29.109375 43.015625 
Q 36.375 43.015625 40.234375 45.921875 
Q 44.09375 48.828125 44.09375 54.296875 
Q 44.09375 59.90625 40.109375 62.90625 
Q 36.140625 65.921875 28.71875 65.921875 
Q 24.65625 65.921875 20.015625 65.03125 
Q 15.375 64.15625 9.8125 62.3125 
L 9.8125 71.09375 
Q 15.4375 72.65625 20.34375 73.4375 
Q 25.25 74.21875 29.59375 74.21875 
Q 40.828125 74.21875 47.359375 69.109375 
Q 53.90625 64.015625 53.90625 55.328125 
Q 53.90625 49.265625 50.4375 45.09375 
Q 46.96875 40.921875 40.578125 39.3125 
z
" id="DejaVuSans-33"/>
     <path d="M 19.671875 64.796875 
L 19.671875 8.109375 
L 31.59375 8.109375 
Q 46.6875 8.109375 53.6875 14.9375 
Q 60.6875 21.78125 60.6875 36.53125 
Q 60.6875 51.171875 53.6875 57.984375 
Q 46.6875 64.796875 31.59375 64.796875 
z
M 9.8125 72.90625 
L 30.078125 72.90625 
Q 51.265625 72.90625 61.171875 64.09375 
Q 71.09375 55.28125 71.09375 36.53125 
Q 71.09375 17.671875 61.125 8.828125 
Q 51.171875 0 30.078125 0 
L 9.8125 0 
z
" id="DejaVuSans-44"/>
    </defs>
    <g transform="translate(58.89048 35.290806)scale(0.102 -0.102)">
     <use xlink:href="#DejaVuSans-62"/>
     <use x="63.476562" xlink:href="#DejaVuSans-62"/>
     <use x="126.953125" xlink:href="#DejaVuSans-6f"/>
     <use x="188.134766" xlink:href="#DejaVuSans-62"/>
     <use x="251.611328" xlink:href="#DejaVuSans-20"/>
     <use x="283.398438" xlink:href="#DejaVuSans-66"/>
     <use x="318.603516" xlink:href="#DejaVuSans-38"/>
     <use x="382.226562" xlink:href="#DejaVuSans-2c"/>
     <use x="414.013672" xlink:href="#DejaVuSans-20"/>
     <use x="445.800781" xlink:href="#DejaVuSans-33"/>
     <use x="509.423828" xlink:href="#DejaVuSans-2d"/>
     <use x="545.507812" xlink:href="#DejaVuSans-44"/>
    </g>
    <!-- 51 targets: 100..1e-08 -->
    <defs>
     <path d="M 10.796875 72.90625 
L 49.515625 72.90625 
L 49.515625 64.59375 
L 19.828125 64.59375 
L 19.828125 46.734375 
Q 21.96875 47.46875 24.109375 47.828125 
Q 26.265625 48.1875 28.421875 48.1875 
Q 40.625 48.1875 47.75 41.5 
Q 54.890625 34.8125 54.890625 23.390625 
Q 54.890625 11.625 47.5625 5.09375 
Q 40.234375 -1.421875 26.90625 -1.421875 
Q 22.3125 -1.421875 17.546875 -0.640625 
Q 12.796875 0.140625 7.71875 1.703125 
L 7.71875 11.625 
Q 12.109375 9.234375 16.796875 8.0625 
Q 21.484375 6.890625 26.703125 6.890625 
Q 35.15625 6.890625 40.078125 11.328125 
Q 45.015625 15.765625 45.015625 23.390625 
Q 45.015625 31 40.078125 35.4375 
Q 35.15625 39.890625 26.703125 39.890625 
Q 22.75 39.890625 18.8125 39.015625 
Q 14.890625 38.140625 10.796875 36.28125 
z
" id="DejaVuSans-35"/>
     <path d="M 11.71875 12.40625 
L 22.015625 12.40625 
L 22.015625 0 
L 11.71875 0 
z
M 11.71875 51.703125 
L 22.015625 51.703125 
L 22.015625 39.3125 
L 11.71875 39.3125 
z
" id="DejaVuSans-3a"/>
    </defs>
    <g transform="translate(58.89048 46.712575)scale(0.102 -0.102)">
     <use xlink:href="#DejaVuSans-35"/>
     <use x="63.623047" xlink:href="#DejaVuSans-31"/>
     <use x="127.246094" xlink:href="#DejaVuSans-20"/>
     <use x="159.033203" xlink:href="#DejaVuSans-74"/>
     <use x="198.242188" xlink:href="#DejaVuSans-61"/>
     <use x="259.521484" xlink:href="#DejaVuSans-72"/>
     <use x="300.619141" xlink:href="#DejaVuSans-67"/>
     <use x="364.095703" xlink:href="#DejaVuSans-65"/>
     <use x="425.619141" xlink:href="#DejaVuSans-74"/>
     <use x="464.828125" xlink:href="#DejaVuSans-73"/>
     <use x="516.927734" xlink:href="#DejaVuSans-3a"/>
     <use x="550.619141" xlink:href="#DejaVuSans-20"/>
     <use x="582.40625" xlink:href="#DejaVuSans-31"/>
     <use x="646.029297" xlink:href="#DejaVuSans-30"/>
     <use x="709.652344" xlink:href="#DejaVuSans-30"/>
     <use x="773.275391" xlink:href="#DejaVuSans-2e"/>
     <use x="805.0625" xlink:href="#DejaVuSans-2e"/>
     <use x="836.849609" xlink:href="#DejaVuSans-31"/>
     <use x="900.472656" xlink:href="#DejaVuSans-65"/>
     <use x="961.996094" xlink:href="#DejaVuSans-2d"/>
     <use x="998.080078" xlink:href="#DejaVuSans-30"/>
     <use x="1061.703125" xlink:href="#DejaVuSans-38"/>
    </g>
    <!-- 15 instances -->
    <g transform="translate(58.89048 58.134344)scale(0.102 -0.102)">
     <use xlink:href="#DejaVuSans-31"/>
     <use x="63.623047" xlink:href="#DejaVuSans-35"/>
     <use x="127.246094" xlink:href="#DejaVuSans-20"/>
     <use x="159.033203" xlink:href="#DejaVuSans-69"/>
     <use x="186.816406" xlink:href="#DejaVuSans-6e"/>
     <use x="250.195312" xlink:href="#DejaVuSans-73"/>
     <use x="302.294922" xlink:href="#DejaVuSans-74"/>
     <use x="341.503906" xlink:href="#DejaVuSans-61"/>
     <use x="402.783203" xlink:href="#DejaVuSans-6e"/>
     <use x="466.162109" xlink:href="#DejaVuSans-63"/>
     <use x="521.142578" xlink:href="#DejaVuSans-65"/>
     <use x="582.666016" xlink:href="#DejaVuSans-73"/>
    </g>
   </g>
   <g id="text_17">
    <!-- v0.0.0 -->
    <g style="fill:#808080;" transform="translate(178.96275 290.099912)scale(0.1 -0.1)">
     <use xlink:href="#DejaVuSans-76"/>
     <use x="59.179688" xlink:href="#DejaVuSans-30"/>
     <use x="122.802734" xlink:href="#DejaVuSans-2e"/>
     <use x="154.589844" xlink:href="#DejaVuSans-30"/>
     <use x="218.212891" xlink:href="#DejaVuSans-2e"/>
     <use x="250" xlink:href="#DejaVuSans-30"/>
    </g>
   </g>
   <g id="text_18">
    <!-- 8 Rosenbrock original -->
    <defs>
     <path d="M 44.390625 34.1875 
Q 47.5625 33.109375 50.5625 29.59375 
Q 53.5625 26.078125 56.59375 19.921875 
L 66.609375 0 
L 56 0 
L 46.6875 18.703125 
Q 43.0625 26.03125 39.671875 28.421875 
Q 36.28125 30.8125 30.421875 30.8125 
L 19.671875 30.8125 
L 19.671875 0 
L 9.8125 0 
L 9.8125 72.90625 
L 32.078125 72.90625 
Q 44.578125 72.90625 50.734375 67.671875 
Q 56.890625 62.453125 56.890625 51.90625 
Q 56.890625 45.015625 53.6875 40.46875 
Q 50.484375 35.9375 44.390625 34.1875 
z
M 19.671875 64.796875 
L 19.671875 38.921875 
L 32.078125 38.921875 
Q 39.203125 38.921875 42.84375 42.21875 
Q 46.484375 45.515625 46.484375 51.90625 
Q 46.484375 58.296875 42.84375 61.546875 
Q 39.203125 64.796875 32.078125 64.796875 
z
" id="DejaVuSans-52"/>
     <path d="M 9.078125 75.984375 
L 18.109375 75.984375 
L 18.109375 31.109375 
L 44.921875 54.6875 
L 56.390625 54.6875 
L 27.390625 29.109375 
L 57.625 0 
L 45.90625 0 
L 18.109375 26.703125 
L 18.109375 0 
L 9.078125 0 
z
" id="DejaVuSans-6b"/>
    </defs>
    <g transform="translate(85.922125 18.84)scale(0.2 -0.2)">
     <use xlink:href="#DejaVuSans-38"/>
     <use x="63.623047" xlink:href="#DejaVuSans-20"/>
     <use x="95.410156" xlink:href="#DejaVuSans-52"/>
     <use x="164.830078" xlink:href="#DejaVuSans-6f"/>
     <use x="226.011719" xlink:href="#DejaVuSans-73"/>
     <use x="278.111328" xlink:href="#DejaVuSans-65"/>
     <use x="339.634766" xlink:href="#DejaVuSans-6e"/>
     <use x="403.013672" xlink:href="#DejaVuSans-62"/>
     <use x="466.490234" xlink:href="#DejaVuSans-72"/>
     <use x="507.572266" xlink:href="#DejaVuSans-6f"/>
     <use x="568.753906" xlink:href="#DejaVuSans-63"/>
     <use x="623.734375" xlink:href="#DejaVuSans-6b"/>
     <use x="681.644531" xlink:href="#DejaVuSans-20"/>
     <use x="713.431641" xlink:href="#DejaVuSans-6f"/>
     <use x="774.613281" xlink:href="#DejaVuSans-72"/>
     <use x="815.726562" xlink:href="#DejaVuSans-69"/>
     <use x="843.509766" xlink:href="#DejaVuSans-67"/>
     <use x="906.986328" xlink:href="#DejaVuSans-69"/>
     <use x="934.769531" xlink:href="#DejaVuSans-6e"/>
     <use x="998.148438" xlink:href="#DejaVuSans-61"/>
     <use x="1059.427734" xlink:href="#DejaVuSans-6c"/>
    </g>
   </g>
  </g>
 </g>
 <defs>
  <clipPath id="pe878cb80a7">
   <rect height="270.04" width="277.048" x="56.12" y="24.84"/>
  </clipPath>
 </defs>
</svg>
