<?xml version="1.0" encoding="utf-8" standalone="no"?>
<!DOCTYPE svg PUBLIC "-//W3C//DTD SVG 1.1//EN"
  "http://www.w3.org/Graphics/SVG/1.1/DTD/svg11.dtd">
<!-- Created with matplotlib (http://matplotlib.org/) -->
<svg height="345pt" version="1.1" viewBox="0 0 460 345" width="460pt" xmlns="http://www.w3.org/2000/svg" xmlns:xlink="http://www.w3.org/1999/xlink">
 <defs>
  <style type="text/css">
*{stroke-linecap:butt;stroke-linejoin:round;}
  </style>
 </defs>
 <g id="figure_1">
  <g id="patch_1">
   <path d="M 0 345.6 
L 460.8 345.6 
L 460.8 0 
L 0 0 
z
" style="fill:#ffffff;"/>
  </g>
  <g id="axes_1">
   <g id="patch_2">
    <path d="M 56.12 294.88 
L 333.168 294.88 
L 333.168 24.84 
L 56.12 24.84 
z
" style="fill:#ffffff;"/>
   </g>
   <g id="line2d_1">
    <path d="M 44.205749 294.88 
L 44.205749 268.667614 
L 56.12 268.667614 
L 56.12 263.425137 
L 63.08939 263.425137 
L 63.08939 258.18266 
L 71.869783 258.18266 
L 71.869783 252.940182 
L 79.948502 252.940182 
L 79.948502 247.697705 
L 102.667676 247.697705 
L 102.667676 242.455228 
L 111.788449 242.455228 
L 111.788449 237.212751 
L 117.231566 237.212751 
L 117.231566 231.970274 
L 124.200956 231.970274 
L 124.200956 226.727797 
L 125.463074 226.727797 
L 125.463074 221.485319 
L 129.022601 221.485319 
L 129.022601 216.242842 
L 132.882847 216.242842 
L 132.882847 211.000365 
L 134.213018 211.000365 
L 134.213018 200.515411 
L 135.016789 200.515411 
L 135.016789 195.272933 
L 137.453213 195.272933 
L 137.453213 190.030456 
L 140.812746 190.030456 
L 140.812746 184.787979 
L 141.060069 184.787979 
L 141.060069 174.303025 
L 141.66324 174.303025 
L 141.66324 158.575593 
L 141.84014 158.575593 
L 141.84014 153.333116 
L 142.18857 153.333116 
L 142.18857 142.848162 
L 142.586342 142.848162 
L 142.586342 137.605684 
L 142.642422 137.605684 
L 142.642422 132.363207 
L 143.35529 132.363207 
L 143.35529 127.12073 
L 143.408921 127.12073 
L 143.408921 121.878253 
L 143.462385 121.878253 
L 143.462385 116.635776 
L 143.515683 116.635776 
L 143.515683 111.393298 
L 143.568817 111.393298 
L 143.568817 100.908344 
L 143.621786 100.908344 
L 143.621786 90.42339 
L 143.674593 90.42339 
L 143.674593 79.938435 
L 143.727238 79.938435 
L 143.727238 74.695958 
L 143.779723 74.695958 
L 143.779723 69.453481 
L 143.832047 69.453481 
L 143.832047 58.968526 
L 143.884213 58.968526 
L 143.884213 53.726049 
L 143.936221 53.726049 
L 143.936221 48.483572 
L 143.988072 48.483572 
L 143.988072 32.756141 
L 144.142694 32.756141 
L 144.142694 27.513663 
L 333.168 27.513663 
" style="fill:none;stroke:#f5deb3;stroke-linecap:square;stroke-width:4;"/>
   </g>
   <g id="line2d_2">
    <defs>
     <path d="M -0 7.778175 
L 7.778175 0 
L 0 -7.778175 
L -7.778175 -0 
z
" id="mef9763561c" style="stroke:#f5deb3;stroke-linejoin:miter;stroke-width:1.5;"/>
    </defs>
    <g>
     <use style="fill:#f5deb3;stroke:#f5deb3;stroke-linejoin:miter;stroke-width:1.5;" x="125.463074" xlink:href="#mef9763561c" y="226.727797"/>
     <use style="fill:#f5deb3;stroke:#f5deb3;stroke-linejoin:miter;stroke-width:1.5;" x="143.515683" xlink:href="#mef9763561c" y="111.393298"/>
     <use style="fill:#f5deb3;stroke:#f5deb3;stroke-linejoin:miter;stroke-width:1.5;" x="144.142694" xlink:href="#mef9763561c" y="32.756141"/>
     <use style="fill:#f5deb3;stroke:#f5deb3;stroke-linejoin:miter;stroke-width:1.5;" x="144.142694" xlink:href="#mef9763561c" y="27.513663"/>
     <use style="fill:#f5deb3;stroke:#f5deb3;stroke-linejoin:miter;stroke-width:1.5;" x="144.142694" xlink:href="#mef9763561c" y="27.513663"/>
     <use style="fill:#f5deb3;stroke:#f5deb3;stroke-linejoin:miter;stroke-width:1.5;" x="333.168" xlink:href="#mef9763561c" y="27.513663"/>
    </g>
   </g>
   <g id="line2d_3">
    <path style="fill:none;stroke:#f5deb3;stroke-linecap:square;stroke-width:4;"/>
    <g/>
   </g>
   <g id="line2d_4">
    <path d="M 333.168 27.513663 
L 363.64328 32.86099 
" style="fill:none;stroke:#f5deb3;stroke-linecap:square;stroke-width:4;"/>
    <g>
     <use style="fill:#f5deb3;stroke:#f5deb3;stroke-linejoin:miter;stroke-width:1.5;" x="333.168" xlink:href="#mef9763561c" y="27.513663"/>
     <use style="fill:#f5deb3;stroke:#f5deb3;stroke-linejoin:miter;stroke-width:1.5;" x="363.64328" xlink:href="#mef9763561c" y="32.86099"/>
    </g>
   </g>
   <g id="matplotlib.axis_1">
    <g id="xtick_1">
     <g id="line2d_5">
      <path clip-path="url(#pf5834dd8a6)" d="M 56.12 294.88 
L 56.12 24.84 
" style="fill:none;stroke:#b0b0b0;stroke-linecap:square;stroke-width:0.8;"/>
     </g>
     <g id="line2d_6">
      <defs>
       <path d="M 0 0 
L 0 3.5 
" id="m8dc33c71b2" style="stroke:#000000;stroke-width:0.8;"/>
      </defs>
      <g>
       <use style="stroke:#000000;stroke-width:0.8;" x="56.12" xlink:href="#m8dc33c71b2" y="294.88"/>
      </g>
     </g>
     <g id="text_1">
      <!-- 0 -->
      <defs>
       <path d="M 31.78125 66.40625 
Q 24.171875 66.40625 20.328125 58.90625 
Q 16.5 51.421875 16.5 36.375 
Q 16.5 21.390625 20.328125 13.890625 
Q 24.171875 6.390625 31.78125 6.390625 
Q 39.453125 6.390625 43.28125 13.890625 
Q 47.125 21.390625 47.125 36.375 
Q 47.125 51.421875 43.28125 58.90625 
Q 39.453125 66.40625 31.78125 66.40625 
z
M 31.78125 74.21875 
Q 44.046875 74.21875 50.515625 64.515625 
Q 56.984375 54.828125 56.984375 36.375 
Q 56.984375 17.96875 50.515625 8.265625 
Q 44.046875 -1.421875 31.78125 -1.421875 
Q 19.53125 -1.421875 13.0625 8.265625 
Q 6.59375 17.96875 6.59375 36.375 
Q 6.59375 54.828125 13.0625 64.515625 
Q 19.53125 74.21875 31.78125 74.21875 
z
" id="DejaVuSans-30"/>
      </defs>
      <g transform="translate(49.7575 317.076875)scale(0.2 -0.2)">
       <use xlink:href="#DejaVuSans-30"/>
      </g>
     </g>
    </g>
    <g id="xtick_2">
     <g id="line2d_7">
      <path clip-path="url(#pf5834dd8a6)" d="M 135.276571 294.88 
L 135.276571 24.84 
" style="fill:none;stroke:#b0b0b0;stroke-linecap:square;stroke-width:0.8;"/>
     </g>
     <g id="line2d_8">
      <g>
       <use style="stroke:#000000;stroke-width:0.8;" x="135.276571" xlink:href="#m8dc33c71b2" y="294.88"/>
      </g>
     </g>
     <g id="text_2">
      <!-- 2 -->
      <defs>
       <path d="M 19.1875 8.296875 
L 53.609375 8.296875 
L 53.609375 0 
L 7.328125 0 
L 7.328125 8.296875 
Q 12.9375 14.109375 22.625 23.890625 
Q 32.328125 33.6875 34.8125 36.53125 
Q 39.546875 41.84375 41.421875 45.53125 
Q 43.3125 49.21875 43.3125 52.78125 
Q 43.3125 58.59375 39.234375 62.25 
Q 35.15625 65.921875 28.609375 65.921875 
Q 23.96875 65.921875 18.8125 64.3125 
Q 13.671875 62.703125 7.8125 59.421875 
L 7.8125 69.390625 
Q 13.765625 71.78125 18.9375 73 
Q 24.125 74.21875 28.421875 74.21875 
Q 39.75 74.21875 46.484375 68.546875 
Q 53.21875 62.890625 53.21875 53.421875 
Q 53.21875 48.921875 51.53125 44.890625 
Q 49.859375 40.875 45.40625 35.40625 
Q 44.1875 33.984375 37.640625 27.21875 
Q 31.109375 20.453125 19.1875 8.296875 
z
" id="DejaVuSans-32"/>
      </defs>
      <g transform="translate(128.914071 317.076875)scale(0.2 -0.2)">
       <use xlink:href="#DejaVuSans-32"/>
      </g>
     </g>
    </g>
    <g id="xtick_3">
     <g id="line2d_9">
      <path clip-path="url(#pf5834dd8a6)" d="M 214.433143 294.88 
L 214.433143 24.84 
" style="fill:none;stroke:#b0b0b0;stroke-linecap:square;stroke-width:0.8;"/>
     </g>
     <g id="line2d_10">
      <g>
       <use style="stroke:#000000;stroke-width:0.8;" x="214.433143" xlink:href="#m8dc33c71b2" y="294.88"/>
      </g>
     </g>
     <g id="text_3">
      <!-- 4 -->
      <defs>
       <path d="M 37.796875 64.3125 
L 12.890625 25.390625 
L 37.796875 25.390625 
z
M 35.203125 72.90625 
L 47.609375 72.90625 
L 47.609375 25.390625 
L 58.015625 25.390625 
L 58.015625 17.1875 
L 47.609375 17.1875 
L 47.609375 0 
L 37.796875 0 
L 37.796875 17.1875 
L 4.890625 17.1875 
L 4.890625 26.703125 
z
" id="DejaVuSans-34"/>
      </defs>
      <g transform="translate(208.070643 317.076875)scale(0.2 -0.2)">
       <use xlink:href="#DejaVuSans-34"/>
      </g>
     </g>
    </g>
    <g id="xtick_4">
     <g id="line2d_11">
      <path clip-path="url(#pf5834dd8a6)" d="M 293.589714 294.88 
L 293.589714 24.84 
" style="fill:none;stroke:#b0b0b0;stroke-linecap:square;stroke-width:0.8;"/>
     </g>
     <g id="line2d_12">
      <g>
       <use style="stroke:#000000;stroke-width:0.8;" x="293.589714" xlink:href="#m8dc33c71b2" y="294.88"/>
      </g>
     </g>
     <g id="text_4">
      <!-- 6 -->
      <defs>
       <path d="M 33.015625 40.375 
Q 26.375 40.375 22.484375 35.828125 
Q 18.609375 31.296875 18.609375 23.390625 
Q 18.609375 15.53125 22.484375 10.953125 
Q 26.375 6.390625 33.015625 6.390625 
Q 39.65625 6.390625 43.53125 10.953125 
Q 47.40625 15.53125 47.40625 23.390625 
Q 47.40625 31.296875 43.53125 35.828125 
Q 39.65625 40.375 33.015625 40.375 
z
M 52.59375 71.296875 
L 52.59375 62.3125 
Q 48.875 64.0625 45.09375 64.984375 
Q 41.3125 65.921875 37.59375 65.921875 
Q 27.828125 65.921875 22.671875 59.328125 
Q 17.53125 52.734375 16.796875 39.40625 
Q 19.671875 43.65625 24.015625 45.921875 
Q 28.375 48.1875 33.59375 48.1875 
Q 44.578125 48.1875 50.953125 41.515625 
Q 57.328125 34.859375 57.328125 23.390625 
Q 57.328125 12.15625 50.6875 5.359375 
Q 44.046875 -1.421875 33.015625 -1.421875 
Q 20.359375 -1.421875 13.671875 8.265625 
Q 6.984375 17.96875 6.984375 36.375 
Q 6.984375 53.65625 15.1875 63.9375 
Q 23.390625 74.21875 37.203125 74.21875 
Q 40.921875 74.21875 44.703125 73.484375 
Q 48.484375 72.75 52.59375 71.296875 
z
" id="DejaVuSans-36"/>
      </defs>
      <g transform="translate(287.227214 317.076875)scale(0.2 -0.2)">
       <use xlink:href="#DejaVuSans-36"/>
      </g>
     </g>
    </g>
    <g id="xtick_5">
     <g id="line2d_13">
      <path clip-path="url(#pf5834dd8a6)" d="M 56.12 294.88 
L 56.12 24.84 
" style="fill:none;stroke:#b0b0b0;stroke-linecap:square;stroke-width:0.8;"/>
     </g>
     <g id="line2d_14">
      <defs>
       <path d="M 0 0 
L 0 2 
" id="m8ae8d0b3f0" style="stroke:#000000;stroke-width:0.6;"/>
      </defs>
      <g>
       <use style="stroke:#000000;stroke-width:0.6;" x="56.12" xlink:href="#m8ae8d0b3f0" y="294.88"/>
      </g>
     </g>
    </g>
    <g id="xtick_6">
     <g id="line2d_15">
      <path clip-path="url(#pf5834dd8a6)" d="M 95.698286 294.88 
L 95.698286 24.84 
" style="fill:none;stroke:#b0b0b0;stroke-linecap:square;stroke-width:0.8;"/>
     </g>
     <g id="line2d_16">
      <g>
       <use style="stroke:#000000;stroke-width:0.6;" x="95.698286" xlink:href="#m8ae8d0b3f0" y="294.88"/>
      </g>
     </g>
    </g>
    <g id="xtick_7">
     <g id="line2d_17">
      <path clip-path="url(#pf5834dd8a6)" d="M 135.276571 294.88 
L 135.276571 24.84 
" style="fill:none;stroke:#b0b0b0;stroke-linecap:square;stroke-width:0.8;"/>
     </g>
     <g id="line2d_18">
      <g>
       <use style="stroke:#000000;stroke-width:0.6;" x="135.276571" xlink:href="#m8ae8d0b3f0" y="294.88"/>
      </g>
     </g>
    </g>
    <g id="xtick_8">
     <g id="line2d_19">
      <path clip-path="url(#pf5834dd8a6)" d="M 174.854857 294.88 
L 174.854857 24.84 
" style="fill:none;stroke:#b0b0b0;stroke-linecap:square;stroke-width:0.8;"/>
     </g>
     <g id="line2d_20">
      <g>
       <use style="stroke:#000000;stroke-width:0.6;" x="174.854857" xlink:href="#m8ae8d0b3f0" y="294.88"/>
      </g>
     </g>
    </g>
    <g id="xtick_9">
     <g id="line2d_21">
      <path clip-path="url(#pf5834dd8a6)" d="M 214.433143 294.88 
L 214.433143 24.84 
" style="fill:none;stroke:#b0b0b0;stroke-linecap:square;stroke-width:0.8;"/>
     </g>
     <g id="line2d_22">
      <g>
       <use style="stroke:#000000;stroke-width:0.6;" x="214.433143" xlink:href="#m8ae8d0b3f0" y="294.88"/>
      </g>
     </g>
    </g>
    <g id="xtick_10">
     <g id="line2d_23">
      <path clip-path="url(#pf5834dd8a6)" d="M 254.011429 294.88 
L 254.011429 24.84 
" style="fill:none;stroke:#b0b0b0;stroke-linecap:square;stroke-width:0.8;"/>
     </g>
     <g id="line2d_24">
      <g>
       <use style="stroke:#000000;stroke-width:0.6;" x="254.011429" xlink:href="#m8ae8d0b3f0" y="294.88"/>
      </g>
     </g>
    </g>
    <g id="xtick_11">
     <g id="line2d_25">
      <path clip-path="url(#pf5834dd8a6)" d="M 293.589714 294.88 
L 293.589714 24.84 
" style="fill:none;stroke:#b0b0b0;stroke-linecap:square;stroke-width:0.8;"/>
     </g>
     <g id="line2d_26">
      <g>
       <use style="stroke:#000000;stroke-width:0.6;" x="293.589714" xlink:href="#m8ae8d0b3f0" y="294.88"/>
      </g>
     </g>
    </g>
    <g id="xtick_12">
     <g id="line2d_27">
      <path clip-path="url(#pf5834dd8a6)" d="M 333.168 294.88 
L 333.168 24.84 
" style="fill:none;stroke:#b0b0b0;stroke-linecap:square;stroke-width:0.8;"/>
     </g>
     <g id="line2d_28">
      <g>
       <use style="stroke:#000000;stroke-width:0.6;" x="333.168" xlink:href="#m8ae8d0b3f0" y="294.88"/>
      </g>
     </g>
    </g>
    <g id="text_5">
     <!-- log10(# f-evals / dimension) -->
     <defs>
      <path d="M 9.421875 75.984375 
L 18.40625 75.984375 
L 18.40625 0 
L 9.421875 0 
z
" id="DejaVuSans-6c"/>
      <path d="M 30.609375 48.390625 
Q 23.390625 48.390625 19.1875 42.75 
Q 14.984375 37.109375 14.984375 27.296875 
Q 14.984375 17.484375 19.15625 11.84375 
Q 23.34375 6.203125 30.609375 6.203125 
Q 37.796875 6.203125 41.984375 11.859375 
Q 46.1875 17.53125 46.1875 27.296875 
Q 46.1875 37.015625 41.984375 42.703125 
Q 37.796875 48.390625 30.609375 48.390625 
z
M 30.609375 56 
Q 42.328125 56 49.015625 48.375 
Q 55.71875 40.765625 55.71875 27.296875 
Q 55.71875 13.875 49.015625 6.21875 
Q 42.328125 -1.421875 30.609375 -1.421875 
Q 18.84375 -1.421875 12.171875 6.21875 
Q 5.515625 13.875 5.515625 27.296875 
Q 5.515625 40.765625 12.171875 48.375 
Q 18.84375 56 30.609375 56 
z
" id="DejaVuSans-6f"/>
      <path d="M 45.40625 27.984375 
Q 45.40625 37.75 41.375 43.109375 
Q 37.359375 48.484375 30.078125 48.484375 
Q 22.859375 48.484375 18.828125 43.109375 
Q 14.796875 37.75 14.796875 27.984375 
Q 14.796875 18.265625 18.828125 12.890625 
Q 22.859375 7.515625 30.078125 7.515625 
Q 37.359375 7.515625 41.375 12.890625 
Q 45.40625 18.265625 45.40625 27.984375 
z
M 54.390625 6.78125 
Q 54.390625 -7.171875 48.1875 -13.984375 
Q 42 -20.796875 29.203125 -20.796875 
Q 24.46875 -20.796875 20.265625 -20.09375 
Q 16.0625 -19.390625 12.109375 -17.921875 
L 12.109375 -9.1875 
Q 16.0625 -11.328125 19.921875 -12.34375 
Q 23.78125 -13.375 27.78125 -13.375 
Q 36.625 -13.375 41.015625 -8.765625 
Q 45.40625 -4.15625 45.40625 5.171875 
L 45.40625 9.625 
Q 42.625 4.78125 38.28125 2.390625 
Q 33.9375 0 27.875 0 
Q 17.828125 0 11.671875 7.65625 
Q 5.515625 15.328125 5.515625 27.984375 
Q 5.515625 40.671875 11.671875 48.328125 
Q 17.828125 56 27.875 56 
Q 33.9375 56 38.28125 53.609375 
Q 42.625 51.21875 45.40625 46.390625 
L 45.40625 54.6875 
L 54.390625 54.6875 
z
" id="DejaVuSans-67"/>
      <path d="M 12.40625 8.296875 
L 28.515625 8.296875 
L 28.515625 63.921875 
L 10.984375 60.40625 
L 10.984375 69.390625 
L 28.421875 72.90625 
L 38.28125 72.90625 
L 38.28125 8.296875 
L 54.390625 8.296875 
L 54.390625 0 
L 12.40625 0 
z
" id="DejaVuSans-31"/>
      <path d="M 31 75.875 
Q 24.46875 64.65625 21.28125 53.65625 
Q 18.109375 42.671875 18.109375 31.390625 
Q 18.109375 20.125 21.3125 9.0625 
Q 24.515625 -2 31 -13.1875 
L 23.1875 -13.1875 
Q 15.875 -1.703125 12.234375 9.375 
Q 8.59375 20.453125 8.59375 31.390625 
Q 8.59375 42.28125 12.203125 53.3125 
Q 15.828125 64.359375 23.1875 75.875 
z
" id="DejaVuSans-28"/>
      <path d="M 51.125 44 
L 36.921875 44 
L 32.8125 27.6875 
L 47.125 27.6875 
z
M 43.796875 71.78125 
L 38.71875 51.515625 
L 52.984375 51.515625 
L 58.109375 71.78125 
L 65.921875 71.78125 
L 60.890625 51.515625 
L 76.125 51.515625 
L 76.125 44 
L 58.984375 44 
L 54.984375 27.6875 
L 70.515625 27.6875 
L 70.515625 20.21875 
L 53.078125 20.21875 
L 48 0 
L 40.1875 0 
L 45.21875 20.21875 
L 30.90625 20.21875 
L 25.875 0 
L 18.015625 0 
L 23.09375 20.21875 
L 7.71875 20.21875 
L 7.71875 27.6875 
L 24.90625 27.6875 
L 29 44 
L 13.28125 44 
L 13.28125 51.515625 
L 30.90625 51.515625 
L 35.890625 71.78125 
z
" id="DejaVuSans-23"/>
      <path id="DejaVuSans-20"/>
      <path d="M 37.109375 75.984375 
L 37.109375 68.5 
L 28.515625 68.5 
Q 23.6875 68.5 21.796875 66.546875 
Q 19.921875 64.59375 19.921875 59.515625 
L 19.921875 54.6875 
L 34.71875 54.6875 
L 34.71875 47.703125 
L 19.921875 47.703125 
L 19.921875 0 
L 10.890625 0 
L 10.890625 47.703125 
L 2.296875 47.703125 
L 2.296875 54.6875 
L 10.890625 54.6875 
L 10.890625 58.5 
Q 10.890625 67.625 15.140625 71.796875 
Q 19.390625 75.984375 28.609375 75.984375 
z
" id="DejaVuSans-66"/>
      <path d="M 4.890625 31.390625 
L 31.203125 31.390625 
L 31.203125 23.390625 
L 4.890625 23.390625 
z
" id="DejaVuSans-2d"/>
      <path d="M 56.203125 29.59375 
L 56.203125 25.203125 
L 14.890625 25.203125 
Q 15.484375 15.921875 20.484375 11.0625 
Q 25.484375 6.203125 34.421875 6.203125 
Q 39.59375 6.203125 44.453125 7.46875 
Q 49.3125 8.734375 54.109375 11.28125 
L 54.109375 2.78125 
Q 49.265625 0.734375 44.1875 -0.34375 
Q 39.109375 -1.421875 33.890625 -1.421875 
Q 20.796875 -1.421875 13.15625 6.1875 
Q 5.515625 13.8125 5.515625 26.8125 
Q 5.515625 40.234375 12.765625 48.109375 
Q 20.015625 56 32.328125 56 
Q 43.359375 56 49.78125 48.890625 
Q 56.203125 41.796875 56.203125 29.59375 
z
M 47.21875 32.234375 
Q 47.125 39.59375 43.09375 43.984375 
Q 39.0625 48.390625 32.421875 48.390625 
Q 24.90625 48.390625 20.390625 44.140625 
Q 15.875 39.890625 15.1875 32.171875 
z
" id="DejaVuSans-65"/>
      <path d="M 2.984375 54.6875 
L 12.5 54.6875 
L 29.59375 8.796875 
L 46.6875 54.6875 
L 56.203125 54.6875 
L 35.6875 0 
L 23.484375 0 
z
" id="DejaVuSans-76"/>
      <path d="M 34.28125 27.484375 
Q 23.390625 27.484375 19.1875 25 
Q 14.984375 22.515625 14.984375 16.5 
Q 14.984375 11.71875 18.140625 8.90625 
Q 21.296875 6.109375 26.703125 6.109375 
Q 34.1875 6.109375 38.703125 11.40625 
Q 43.21875 16.703125 43.21875 25.484375 
L 43.21875 27.484375 
z
M 52.203125 31.203125 
L 52.203125 0 
L 43.21875 0 
L 43.21875 8.296875 
Q 40.140625 3.328125 35.546875 0.953125 
Q 30.953125 -1.421875 24.3125 -1.421875 
Q 15.921875 -1.421875 10.953125 3.296875 
Q 6 8.015625 6 15.921875 
Q 6 25.140625 12.171875 29.828125 
Q 18.359375 34.515625 30.609375 34.515625 
L 43.21875 34.515625 
L 43.21875 35.40625 
Q 43.21875 41.609375 39.140625 45 
Q 35.0625 48.390625 27.6875 48.390625 
Q 23 48.390625 18.546875 47.265625 
Q 14.109375 46.140625 10.015625 43.890625 
L 10.015625 52.203125 
Q 14.9375 54.109375 19.578125 55.046875 
Q 24.21875 56 28.609375 56 
Q 40.484375 56 46.34375 49.84375 
Q 52.203125 43.703125 52.203125 31.203125 
z
" id="DejaVuSans-61"/>
      <path d="M 44.28125 53.078125 
L 44.28125 44.578125 
Q 40.484375 46.53125 36.375 47.5 
Q 32.28125 48.484375 27.875 48.484375 
Q 21.1875 48.484375 17.84375 46.4375 
Q 14.5 44.390625 14.5 40.28125 
Q 14.5 37.15625 16.890625 35.375 
Q 19.28125 33.59375 26.515625 31.984375 
L 29.59375 31.296875 
Q 39.15625 29.25 43.1875 25.515625 
Q 47.21875 21.78125 47.21875 15.09375 
Q 47.21875 7.46875 41.1875 3.015625 
Q 35.15625 -1.421875 24.609375 -1.421875 
Q 20.21875 -1.421875 15.453125 -0.5625 
Q 10.6875 0.296875 5.421875 2 
L 5.421875 11.28125 
Q 10.40625 8.6875 15.234375 7.390625 
Q 20.0625 6.109375 24.8125 6.109375 
Q 31.15625 6.109375 34.5625 8.28125 
Q 37.984375 10.453125 37.984375 14.40625 
Q 37.984375 18.0625 35.515625 20.015625 
Q 33.0625 21.96875 24.703125 23.78125 
L 21.578125 24.515625 
Q 13.234375 26.265625 9.515625 29.90625 
Q 5.8125 33.546875 5.8125 39.890625 
Q 5.8125 47.609375 11.28125 51.796875 
Q 16.75 56 26.8125 56 
Q 31.78125 56 36.171875 55.265625 
Q 40.578125 54.546875 44.28125 53.078125 
z
" id="DejaVuSans-73"/>
      <path d="M 25.390625 72.90625 
L 33.6875 72.90625 
L 8.296875 -9.28125 
L 0 -9.28125 
z
" id="DejaVuSans-2f"/>
      <path d="M 45.40625 46.390625 
L 45.40625 75.984375 
L 54.390625 75.984375 
L 54.390625 0 
L 45.40625 0 
L 45.40625 8.203125 
Q 42.578125 3.328125 38.25 0.953125 
Q 33.9375 -1.421875 27.875 -1.421875 
Q 17.96875 -1.421875 11.734375 6.484375 
Q 5.515625 14.40625 5.515625 27.296875 
Q 5.515625 40.1875 11.734375 48.09375 
Q 17.96875 56 27.875 56 
Q 33.9375 56 38.25 53.625 
Q 42.578125 51.265625 45.40625 46.390625 
z
M 14.796875 27.296875 
Q 14.796875 17.390625 18.875 11.75 
Q 22.953125 6.109375 30.078125 6.109375 
Q 37.203125 6.109375 41.296875 11.75 
Q 45.40625 17.390625 45.40625 27.296875 
Q 45.40625 37.203125 41.296875 42.84375 
Q 37.203125 48.484375 30.078125 48.484375 
Q 22.953125 48.484375 18.875 42.84375 
Q 14.796875 37.203125 14.796875 27.296875 
z
" id="DejaVuSans-64"/>
      <path d="M 9.421875 54.6875 
L 18.40625 54.6875 
L 18.40625 0 
L 9.421875 0 
z
M 9.421875 75.984375 
L 18.40625 75.984375 
L 18.40625 64.59375 
L 9.421875 64.59375 
z
" id="DejaVuSans-69"/>
      <path d="M 52 44.1875 
Q 55.375 50.25 60.0625 53.125 
Q 64.75 56 71.09375 56 
Q 79.640625 56 84.28125 50.015625 
Q 88.921875 44.046875 88.921875 33.015625 
L 88.921875 0 
L 79.890625 0 
L 79.890625 32.71875 
Q 79.890625 40.578125 77.09375 44.375 
Q 74.3125 48.1875 68.609375 48.1875 
Q 61.625 48.1875 57.5625 43.546875 
Q 53.515625 38.921875 53.515625 30.90625 
L 53.515625 0 
L 44.484375 0 
L 44.484375 32.71875 
Q 44.484375 40.625 41.703125 44.40625 
Q 38.921875 48.1875 33.109375 48.1875 
Q 26.21875 48.1875 22.15625 43.53125 
Q 18.109375 38.875 18.109375 30.90625 
L 18.109375 0 
L 9.078125 0 
L 9.078125 54.6875 
L 18.109375 54.6875 
L 18.109375 46.1875 
Q 21.1875 51.21875 25.484375 53.609375 
Q 29.78125 56 35.6875 56 
Q 41.65625 56 45.828125 52.96875 
Q 50 49.953125 52 44.1875 
z
" id="DejaVuSans-6d"/>
      <path d="M 54.890625 33.015625 
L 54.890625 0 
L 45.90625 0 
L 45.90625 32.71875 
Q 45.90625 40.484375 42.875 44.328125 
Q 39.84375 48.1875 33.796875 48.1875 
Q 26.515625 48.1875 22.3125 43.546875 
Q 18.109375 38.921875 18.109375 30.90625 
L 18.109375 0 
L 9.078125 0 
L 9.078125 54.6875 
L 18.109375 54.6875 
L 18.109375 46.1875 
Q 21.34375 51.125 25.703125 53.5625 
Q 30.078125 56 35.796875 56 
Q 45.21875 56 50.046875 50.171875 
Q 54.890625 44.34375 54.890625 33.015625 
z
" id="DejaVuSans-6e"/>
      <path d="M 8.015625 75.875 
L 15.828125 75.875 
Q 23.140625 64.359375 26.78125 53.3125 
Q 30.421875 42.28125 30.421875 31.390625 
Q 30.421875 20.453125 26.78125 9.375 
Q 23.140625 -1.703125 15.828125 -13.1875 
L 8.015625 -13.1875 
Q 14.5 -2 17.703125 9.0625 
Q 20.90625 20.125 20.90625 31.390625 
Q 20.90625 42.671875 17.703125 53.65625 
Q 14.5 64.65625 8.015625 75.875 
z
" id="DejaVuSans-29"/>
     </defs>
     <g transform="translate(73.803219 338.153594)scale(0.17 -0.17)">
      <use xlink:href="#DejaVuSans-6c"/>
      <use x="27.783203" xlink:href="#DejaVuSans-6f"/>
      <use x="88.964844" xlink:href="#DejaVuSans-67"/>
      <use x="152.441406" xlink:href="#DejaVuSans-31"/>
      <use x="216.064453" xlink:href="#DejaVuSans-30"/>
      <use x="279.6875" xlink:href="#DejaVuSans-28"/>
      <use x="318.701172" xlink:href="#DejaVuSans-23"/>
      <use x="402.490234" xlink:href="#DejaVuSans-20"/>
      <use x="434.277344" xlink:href="#DejaVuSans-66"/>
      <use x="469.404297" xlink:href="#DejaVuSans-2d"/>
      <use x="505.488281" xlink:href="#DejaVuSans-65"/>
      <use x="567.011719" xlink:href="#DejaVuSans-76"/>
      <use x="626.191406" xlink:href="#DejaVuSans-61"/>
      <use x="687.470703" xlink:href="#DejaVuSans-6c"/>
      <use x="715.253906" xlink:href="#DejaVuSans-73"/>
      <use x="767.353516" xlink:href="#DejaVuSans-20"/>
      <use x="799.140625" xlink:href="#DejaVuSans-2f"/>
      <use x="832.832031" xlink:href="#DejaVuSans-20"/>
      <use x="864.619141" xlink:href="#DejaVuSans-64"/>
      <use x="928.095703" xlink:href="#DejaVuSans-69"/>
      <use x="955.878906" xlink:href="#DejaVuSans-6d"/>
      <use x="1053.291016" xlink:href="#DejaVuSans-65"/>
      <use x="1114.814453" xlink:href="#DejaVuSans-6e"/>
      <use x="1178.193359" xlink:href="#DejaVuSans-73"/>
      <use x="1230.292969" xlink:href="#DejaVuSans-69"/>
      <use x="1258.076172" xlink:href="#DejaVuSans-6f"/>
      <use x="1319.257812" xlink:href="#DejaVuSans-6e"/>
      <use x="1382.636719" xlink:href="#DejaVuSans-29"/>
     </g>
    </g>
   </g>
   <g id="matplotlib.axis_2">
    <g id="ytick_1">
     <g id="line2d_29">
      <path clip-path="url(#pf5834dd8a6)" d="M 56.12 294.88 
L 333.168 294.88 
" style="fill:none;stroke:#b0b0b0;stroke-linecap:square;stroke-width:0.8;"/>
     </g>
     <g id="line2d_30">
      <defs>
       <path d="M 0 0 
L -3.5 0 
" id="m5c6b28ee05" style="stroke:#000000;stroke-width:0.8;"/>
      </defs>
      <g>
       <use style="stroke:#000000;stroke-width:0.8;" x="56.12" xlink:href="#m5c6b28ee05" y="294.88"/>
      </g>
     </g>
     <g id="text_6">
      <!-- 0.0 -->
      <defs>
       <path d="M 10.6875 12.40625 
L 21 12.40625 
L 21 0 
L 10.6875 0 
z
" id="DejaVuSans-2e"/>
      </defs>
      <g transform="translate(23.675 300.95875)scale(0.16 -0.16)">
       <use xlink:href="#DejaVuSans-30"/>
       <use x="63.623047" xlink:href="#DejaVuSans-2e"/>
       <use x="95.410156" xlink:href="#DejaVuSans-30"/>
      </g>
     </g>
    </g>
    <g id="ytick_2">
     <g id="line2d_31">
      <path clip-path="url(#pf5834dd8a6)" d="M 56.12 241.406733 
L 333.168 241.406733 
" style="fill:none;stroke:#b0b0b0;stroke-linecap:square;stroke-width:0.8;"/>
     </g>
     <g id="line2d_32">
      <g>
       <use style="stroke:#000000;stroke-width:0.8;" x="56.12" xlink:href="#m5c6b28ee05" y="241.406733"/>
      </g>
     </g>
     <g id="text_7">
      <!-- 0.2 -->
      <g transform="translate(23.675 247.485483)scale(0.16 -0.16)">
       <use xlink:href="#DejaVuSans-30"/>
       <use x="63.623047" xlink:href="#DejaVuSans-2e"/>
       <use x="95.410156" xlink:href="#DejaVuSans-32"/>
      </g>
     </g>
    </g>
    <g id="ytick_3">
     <g id="line2d_33">
      <path clip-path="url(#pf5834dd8a6)" d="M 56.12 187.933465 
L 333.168 187.933465 
" style="fill:none;stroke:#b0b0b0;stroke-linecap:square;stroke-width:0.8;"/>
     </g>
     <g id="line2d_34">
      <g>
       <use style="stroke:#000000;stroke-width:0.8;" x="56.12" xlink:href="#m5c6b28ee05" y="187.933465"/>
      </g>
     </g>
     <g id="text_8">
      <!-- 0.4 -->
      <g transform="translate(23.675 194.012215)scale(0.16 -0.16)">
       <use xlink:href="#DejaVuSans-30"/>
       <use x="63.623047" xlink:href="#DejaVuSans-2e"/>
       <use x="95.410156" xlink:href="#DejaVuSans-34"/>
      </g>
     </g>
    </g>
    <g id="ytick_4">
     <g id="line2d_35">
      <path clip-path="url(#pf5834dd8a6)" d="M 56.12 134.460198 
L 333.168 134.460198 
" style="fill:none;stroke:#b0b0b0;stroke-linecap:square;stroke-width:0.8;"/>
     </g>
     <g id="line2d_36">
      <g>
       <use style="stroke:#000000;stroke-width:0.8;" x="56.12" xlink:href="#m5c6b28ee05" y="134.460198"/>
      </g>
     </g>
     <g id="text_9">
      <!-- 0.6 -->
      <g transform="translate(23.675 140.538948)scale(0.16 -0.16)">
       <use xlink:href="#DejaVuSans-30"/>
       <use x="63.623047" xlink:href="#DejaVuSans-2e"/>
       <use x="95.410156" xlink:href="#DejaVuSans-36"/>
      </g>
     </g>
    </g>
    <g id="ytick_5">
     <g id="line2d_37">
      <path clip-path="url(#pf5834dd8a6)" d="M 56.12 80.986931 
L 333.168 80.986931 
" style="fill:none;stroke:#b0b0b0;stroke-linecap:square;stroke-width:0.8;"/>
     </g>
     <g id="line2d_38">
      <g>
       <use style="stroke:#000000;stroke-width:0.8;" x="56.12" xlink:href="#m5c6b28ee05" y="80.986931"/>
      </g>
     </g>
     <g id="text_10">
      <!-- 0.8 -->
      <defs>
       <path d="M 31.78125 34.625 
Q 24.75 34.625 20.71875 30.859375 
Q 16.703125 27.09375 16.703125 20.515625 
Q 16.703125 13.921875 20.71875 10.15625 
Q 24.75 6.390625 31.78125 6.390625 
Q 38.8125 6.390625 42.859375 10.171875 
Q 46.921875 13.96875 46.921875 20.515625 
Q 46.921875 27.09375 42.890625 30.859375 
Q 38.875 34.625 31.78125 34.625 
z
M 21.921875 38.8125 
Q 15.578125 40.375 12.03125 44.71875 
Q 8.5 49.078125 8.5 55.328125 
Q 8.5 64.0625 14.71875 69.140625 
Q 20.953125 74.21875 31.78125 74.21875 
Q 42.671875 74.21875 48.875 69.140625 
Q 55.078125 64.0625 55.078125 55.328125 
Q 55.078125 49.078125 51.53125 44.71875 
Q 48 40.375 41.703125 38.8125 
Q 48.828125 37.15625 52.796875 32.3125 
Q 56.78125 27.484375 56.78125 20.515625 
Q 56.78125 9.90625 50.3125 4.234375 
Q 43.84375 -1.421875 31.78125 -1.421875 
Q 19.734375 -1.421875 13.25 4.234375 
Q 6.78125 9.90625 6.78125 20.515625 
Q 6.78125 27.484375 10.78125 32.3125 
Q 14.796875 37.15625 21.921875 38.8125 
z
M 18.3125 54.390625 
Q 18.3125 48.734375 21.84375 45.5625 
Q 25.390625 42.390625 31.78125 42.390625 
Q 38.140625 42.390625 41.71875 45.5625 
Q 45.3125 48.734375 45.3125 54.390625 
Q 45.3125 60.0625 41.71875 63.234375 
Q 38.140625 66.40625 31.78125 66.40625 
Q 25.390625 66.40625 21.84375 63.234375 
Q 18.3125 60.0625 18.3125 54.390625 
z
" id="DejaVuSans-38"/>
      </defs>
      <g transform="translate(23.675 87.065681)scale(0.16 -0.16)">
       <use xlink:href="#DejaVuSans-30"/>
       <use x="63.623047" xlink:href="#DejaVuSans-2e"/>
       <use x="95.410156" xlink:href="#DejaVuSans-38"/>
      </g>
     </g>
    </g>
    <g id="ytick_6">
     <g id="line2d_39">
      <path clip-path="url(#pf5834dd8a6)" d="M 56.12 27.513663 
L 333.168 27.513663 
" style="fill:none;stroke:#b0b0b0;stroke-linecap:square;stroke-width:0.8;"/>
     </g>
     <g id="line2d_40">
      <g>
       <use style="stroke:#000000;stroke-width:0.8;" x="56.12" xlink:href="#m5c6b28ee05" y="27.513663"/>
      </g>
     </g>
     <g id="text_11">
      <!-- 1.0 -->
      <g transform="translate(23.675 33.592413)scale(0.16 -0.16)">
       <use xlink:href="#DejaVuSans-31"/>
       <use x="63.623047" xlink:href="#DejaVuSans-2e"/>
       <use x="95.410156" xlink:href="#DejaVuSans-30"/>
      </g>
     </g>
    </g>
    <g id="text_12">
     <!-- Fraction of function,target pairs -->
     <defs>
      <path d="M 9.8125 72.90625 
L 51.703125 72.90625 
L 51.703125 64.59375 
L 19.671875 64.59375 
L 19.671875 43.109375 
L 48.578125 43.109375 
L 48.578125 34.8125 
L 19.671875 34.8125 
L 19.671875 0 
L 9.8125 0 
z
" id="DejaVuSans-46"/>
      <path d="M 41.109375 46.296875 
Q 39.59375 47.171875 37.8125 47.578125 
Q 36.03125 48 33.890625 48 
Q 26.265625 48 22.1875 43.046875 
Q 18.109375 38.09375 18.109375 28.8125 
L 18.109375 0 
L 9.078125 0 
L 9.078125 54.6875 
L 18.109375 54.6875 
L 18.109375 46.1875 
Q 20.953125 51.171875 25.484375 53.578125 
Q 30.03125 56 36.53125 56 
Q 37.453125 56 38.578125 55.875 
Q 39.703125 55.765625 41.0625 55.515625 
z
" id="DejaVuSans-72"/>
      <path d="M 48.78125 52.59375 
L 48.78125 44.1875 
Q 44.96875 46.296875 41.140625 47.34375 
Q 37.3125 48.390625 33.40625 48.390625 
Q 24.65625 48.390625 19.8125 42.84375 
Q 14.984375 37.3125 14.984375 27.296875 
Q 14.984375 17.28125 19.8125 11.734375 
Q 24.65625 6.203125 33.40625 6.203125 
Q 37.3125 6.203125 41.140625 7.25 
Q 44.96875 8.296875 48.78125 10.40625 
L 48.78125 2.09375 
Q 45.015625 0.34375 40.984375 -0.53125 
Q 36.96875 -1.421875 32.421875 -1.421875 
Q 20.0625 -1.421875 12.78125 6.34375 
Q 5.515625 14.109375 5.515625 27.296875 
Q 5.515625 40.671875 12.859375 48.328125 
Q 20.21875 56 33.015625 56 
Q 37.15625 56 41.109375 55.140625 
Q 45.0625 54.296875 48.78125 52.59375 
z
" id="DejaVuSans-63"/>
      <path d="M 18.3125 70.21875 
L 18.3125 54.6875 
L 36.8125 54.6875 
L 36.8125 47.703125 
L 18.3125 47.703125 
L 18.3125 18.015625 
Q 18.3125 11.328125 20.140625 9.421875 
Q 21.96875 7.515625 27.59375 7.515625 
L 36.8125 7.515625 
L 36.8125 0 
L 27.59375 0 
Q 17.1875 0 13.234375 3.875 
Q 9.28125 7.765625 9.28125 18.015625 
L 9.28125 47.703125 
L 2.6875 47.703125 
L 2.6875 54.6875 
L 9.28125 54.6875 
L 9.28125 70.21875 
z
" id="DejaVuSans-74"/>
      <path d="M 8.5 21.578125 
L 8.5 54.6875 
L 17.484375 54.6875 
L 17.484375 21.921875 
Q 17.484375 14.15625 20.5 10.265625 
Q 23.53125 6.390625 29.59375 6.390625 
Q 36.859375 6.390625 41.078125 11.03125 
Q 45.3125 15.671875 45.3125 23.6875 
L 45.3125 54.6875 
L 54.296875 54.6875 
L 54.296875 0 
L 45.3125 0 
L 45.3125 8.40625 
Q 42.046875 3.421875 37.71875 1 
Q 33.40625 -1.421875 27.6875 -1.421875 
Q 18.265625 -1.421875 13.375 4.4375 
Q 8.5 10.296875 8.5 21.578125 
z
M 31.109375 56 
z
" id="DejaVuSans-75"/>
      <path d="M 11.71875 12.40625 
L 22.015625 12.40625 
L 22.015625 4 
L 14.015625 -11.625 
L 7.71875 -11.625 
L 11.71875 4 
z
" id="DejaVuSans-2c"/>
      <path d="M 18.109375 8.203125 
L 18.109375 -20.796875 
L 9.078125 -20.796875 
L 9.078125 54.6875 
L 18.109375 54.6875 
L 18.109375 46.390625 
Q 20.953125 51.265625 25.265625 53.625 
Q 29.59375 56 35.59375 56 
Q 45.5625 56 51.78125 48.09375 
Q 58.015625 40.1875 58.015625 27.296875 
Q 58.015625 14.40625 51.78125 6.484375 
Q 45.5625 -1.421875 35.59375 -1.421875 
Q 29.59375 -1.421875 25.265625 0.953125 
Q 20.953125 3.328125 18.109375 8.203125 
z
M 48.6875 27.296875 
Q 48.6875 37.203125 44.609375 42.84375 
Q 40.53125 48.484375 33.40625 48.484375 
Q 26.265625 48.484375 22.1875 42.84375 
Q 18.109375 37.203125 18.109375 27.296875 
Q 18.109375 17.390625 22.1875 11.75 
Q 26.265625 6.109375 33.40625 6.109375 
Q 40.53125 6.109375 44.609375 11.75 
Q 48.6875 17.390625 48.6875 27.296875 
z
" id="DejaVuSans-70"/>
     </defs>
     <g transform="translate(16.139531 294.999375)rotate(-90)scale(0.17 -0.17)">
      <use xlink:href="#DejaVuSans-46"/>
      <use x="57.410156" xlink:href="#DejaVuSans-72"/>
      <use x="98.523438" xlink:href="#DejaVuSans-61"/>
      <use x="159.802734" xlink:href="#DejaVuSans-63"/>
      <use x="214.783203" xlink:href="#DejaVuSans-74"/>
      <use x="253.992188" xlink:href="#DejaVuSans-69"/>
      <use x="281.775391" xlink:href="#DejaVuSans-6f"/>
      <use x="342.957031" xlink:href="#DejaVuSans-6e"/>
      <use x="406.335938" xlink:href="#DejaVuSans-20"/>
      <use x="438.123047" xlink:href="#DejaVuSans-6f"/>
      <use x="499.304688" xlink:href="#DejaVuSans-66"/>
      <use x="534.509766" xlink:href="#DejaVuSans-20"/>
      <use x="566.296875" xlink:href="#DejaVuSans-66"/>
      <use x="601.501953" xlink:href="#DejaVuSans-75"/>
      <use x="664.880859" xlink:href="#DejaVuSans-6e"/>
      <use x="728.259766" xlink:href="#DejaVuSans-63"/>
      <use x="783.240234" xlink:href="#DejaVuSans-74"/>
      <use x="822.449219" xlink:href="#DejaVuSans-69"/>
      <use x="850.232422" xlink:href="#DejaVuSans-6f"/>
      <use x="911.414062" xlink:href="#DejaVuSans-6e"/>
      <use x="974.792969" xlink:href="#DejaVuSans-2c"/>
      <use x="1006.580078" xlink:href="#DejaVuSans-74"/>
      <use x="1045.789062" xlink:href="#DejaVuSans-61"/>
      <use x="1107.068359" xlink:href="#DejaVuSans-72"/>
      <use x="1148.166016" xlink:href="#DejaVuSans-67"/>
      <use x="1211.642578" xlink:href="#DejaVuSans-65"/>
      <use x="1273.166016" xlink:href="#DejaVuSans-74"/>
      <use x="1312.375" xlink:href="#DejaVuSans-20"/>
      <use x="1344.162109" xlink:href="#DejaVuSans-70"/>
      <use x="1407.638672" xlink:href="#DejaVuSans-61"/>
      <use x="1468.917969" xlink:href="#DejaVuSans-69"/>
      <use x="1496.701172" xlink:href="#DejaVuSans-72"/>
      <use x="1537.814453" xlink:href="#DejaVuSans-73"/>
     </g>
    </g>
   </g>
   <g id="line2d_41">
    <defs>
     <path d="M 0 1.5 
C 0.397805 1.5 0.77937 1.341951 1.06066 1.06066 
C 1.341951 0.77937 1.5 0.397805 1.5 0 
C 1.5 -0.397805 1.341951 -0.77937 1.06066 -1.06066 
C 0.77937 -1.341951 0.397805 -1.5 0 -1.5 
C -0.397805 -1.5 -0.77937 -1.341951 -1.06066 -1.06066 
C -1.341951 -0.77937 -1.5 -0.397805 -1.5 0 
C -1.5 0.397805 -1.341951 0.77937 -1.06066 1.06066 
C -0.77937 1.341951 -0.397805 1.5 0 1.5 
z
" id="m26c118e779" style="stroke:#f5deb3;"/>
    </defs>
    <g>
     <use style="fill:#f5deb3;stroke:#f5deb3;" x="144.142694" xlink:href="#m26c118e779" y="27.513663"/>
     <use style="fill:#f5deb3;stroke:#f5deb3;" x="144.142694" xlink:href="#m26c118e779" y="27.513663"/>
    </g>
   </g>
   <g id="line2d_42">
    <defs>
     <path d="M 0 1.5 
C 0.397805 1.5 0.77937 1.341951 1.06066 1.06066 
C 1.341951 0.77937 1.5 0.397805 1.5 0 
C 1.5 -0.397805 1.341951 -0.77937 1.06066 -1.06066 
C 0.77937 -1.341951 0.397805 -1.5 0 -1.5 
C -0.397805 -1.5 -0.77937 -1.341951 -1.06066 -1.06066 
C -1.341951 -0.77937 -1.5 -0.397805 -1.5 0 
C -1.5 0.397805 -1.341951 0.77937 -1.06066 1.06066 
C -0.77937 1.341951 -0.397805 1.5 0 1.5 
z
" id="m3c2a314113" style="stroke:#000080;"/>
    </defs>
    <g>
     <use style="fill:#000080;stroke:#000080;" x="176.679606" xlink:href="#m3c2a314113" y="27.513663"/>
     <use style="fill:#000080;stroke:#000080;" x="176.679606" xlink:href="#m3c2a314113" y="27.513663"/>
    </g>
   </g>
   <g id="line2d_43">
    <path d="M 44.205749 294.88 
L 44.205749 266.046375 
L 91.862754 266.046375 
L 91.862754 265.522128 
L 92.904808 265.522128 
L 92.904808 264.99788 
L 95.698286 264.99788 
L 95.698286 264.473632 
L 97.336537 264.473632 
L 97.336537 263.425137 
L 98.100602 263.425137 
L 98.100602 261.852394 
L 99.533818 261.852394 
L 99.533818 260.803898 
L 100.207968 260.803898 
L 100.207968 260.279651 
L 100.856673 260.279651 
L 100.856673 259.231155 
L 101.481783 259.231155 
L 101.481783 257.658412 
L 102.084955 257.658412 
L 102.084955 257.134164 
L 102.667676 257.134164 
L 102.667676 256.609917 
L 103.231288 256.609917 
L 103.231288 256.085669 
L 111.100812 256.085669 
L 111.100812 255.561421 
L 111.448069 255.561421 
L 111.448069 255.037173 
L 112.122219 255.037173 
L 112.122219 254.512926 
L 114.866043 254.512926 
L 114.866043 253.988678 
L 115.957752 253.988678 
L 115.957752 252.940182 
L 116.478659 252.940182 
L 116.478659 252.415935 
L 116.73331 252.415935 
L 116.73331 251.891687 
L 116.984244 251.891687 
L 116.984244 250.843192 
L 117.231566 250.843192 
L 117.231566 250.318944 
L 117.475381 250.318944 
L 117.475381 249.270448 
L 117.952873 249.270448 
L 117.952873 246.124962 
L 118.186736 246.124962 
L 118.186736 243.503724 
L 118.645127 243.503724 
L 118.645127 242.979476 
L 118.869818 242.979476 
L 118.869818 242.455228 
L 119.526788 242.455228 
L 119.526788 237.736999 
L 119.95122 237.736999 
L 119.95122 236.688503 
L 120.365424 236.688503 
L 120.365424 236.164255 
L 120.568842 236.164255 
L 120.568842 234.591512 
L 120.769881 234.591512 
L 120.769881 233.018769 
L 120.968596 233.018769 
L 120.968596 232.494521 
L 121.16504 232.494521 
L 121.16504 226.727797 
L 121.359263 226.727797 
L 121.359263 225.679301 
L 121.551317 225.679301 
L 121.551317 222.009567 
L 121.741249 222.009567 
L 121.741249 218.864081 
L 121.929105 218.864081 
L 121.929105 216.242842 
L 122.114929 216.242842 
L 122.114929 215.718594 
L 122.298767 215.718594 
L 122.298767 213.097356 
L 122.660646 213.097356 
L 122.660646 210.476117 
L 123.015063 210.476117 
L 123.015063 209.95187 
L 123.189569 209.95187 
L 123.189569 204.185145 
L 123.533353 204.185145 
L 123.533353 203.136649 
L 123.870396 203.136649 
L 123.870396 199.991163 
L 124.363883 199.991163 
L 124.363883 197.894172 
L 124.685175 197.894172 
L 124.685175 194.748686 
L 125.000572 194.748686 
L 125.000572 193.175943 
L 125.614517 193.175943 
L 125.614517 191.078952 
L 125.764637 191.078952 
L 125.764637 190.030456 
L 126.207287 190.030456 
L 126.207287 189.506209 
L 126.496178 189.506209 
L 126.496178 188.981961 
L 126.638823 188.981961 
L 126.638823 188.457713 
L 126.92061 188.457713 
L 126.92061 187.409218 
L 129.630036 187.409218 
L 129.630036 186.360722 
L 131.969962 186.360722 
L 131.969962 185.836474 
L 132.381685 185.836474 
L 132.381685 185.312227 
L 132.98135 185.312227 
L 132.98135 184.263731 
L 133.176677 184.263731 
L 133.176677 183.739484 
L 133.560797 183.739484 
L 133.560797 182.690988 
L 133.749684 182.690988 
L 133.843356 180.593997 
L 133.936519 180.593997 
L 134.029181 179.545502 
L 134.121345 179.545502 
L 134.213018 177.448511 
L 134.304205 177.448511 
L 134.39491 174.827272 
L 134.485139 174.827272 
L 134.485139 173.254529 
L 134.664189 173.254529 
L 134.753019 172.206034 
L 134.841393 172.206034 
L 134.929315 170.633291 
L 135.016789 170.633291 
L 135.10382 169.584795 
L 135.190413 169.584795 
L 135.276571 168.5363 
L 135.3623 168.5363 
L 135.447604 166.439309 
L 135.532486 166.439309 
L 135.616951 162.769575 
L 135.701004 162.769575 
L 135.784647 160.672584 
L 135.867885 160.672584 
L 135.867885 159.099841 
L 136.115208 159.099841 
L 136.196864 157.527098 
L 136.278134 157.527098 
L 136.359022 155.430107 
L 136.439531 155.430107 
L 136.519665 153.857364 
L 136.67882 153.857364 
L 136.67882 153.333116 
L 136.836515 153.333116 
L 136.914823 152.28462 
L 136.992776 152.28462 
L 136.992776 151.760373 
L 137.14763 151.760373 
L 137.14763 151.236125 
L 137.301101 151.236125 
L 137.301101 150.18763 
L 137.453213 150.18763 
L 137.453213 149.663382 
L 137.603992 149.663382 
L 137.603992 149.139134 
L 137.901638 149.139134 
L 137.975251 148.090639 
L 138.121538 148.090639 
L 138.121538 147.566391 
L 138.410429 147.566391 
L 138.410429 147.042143 
L 138.553074 147.042143 
L 138.623956 145.993648 
L 138.694545 145.993648 
L 138.694545 145.4694 
L 139.043211 145.4694 
L 139.043211 144.945152 
L 139.317139 144.945152 
L 139.384945 143.896657 
L 139.720016 143.896657 
L 139.720016 142.323914 
L 139.917968 142.323914 
L 139.917968 141.799666 
L 140.561812 141.799666 
L 140.561812 141.275418 
L 140.687737 141.275418 
L 140.687737 140.751171 
L 140.812746 140.751171 
L 140.812746 140.226923 
L 141.121347 140.226923 
L 141.121347 139.702675 
L 141.303883 139.702675 
L 141.303883 139.178427 
L 141.484501 139.178427 
L 141.484501 138.65418 
L 141.84014 138.65418 
L 141.898705 137.605684 
L 142.07321 137.605684 
L 142.130987 136.557189 
L 142.18857 136.557189 
L 142.245962 134.984446 
L 142.303162 134.984446 
L 142.303162 134.460198 
L 142.416994 134.460198 
L 142.473629 133.411703 
L 142.530078 133.411703 
L 142.586342 131.314712 
L 142.642422 131.314712 
L 142.69832 129.741969 
L 142.809574 129.741969 
L 142.920112 128.693473 
L 143.029944 128.693473 
L 143.029944 127.644978 
L 143.301492 127.644978 
L 143.408921 125.023739 
L 143.462385 125.023739 
L 143.515683 123.450996 
L 143.621786 123.450996 
L 143.674593 121.354005 
L 143.832047 121.354005 
L 143.884213 118.732766 
L 144.039767 118.732766 
L 144.142694 117.684271 
L 144.346715 117.684271 
L 144.447825 115.58728 
L 144.598384 115.58728 
L 144.698028 114.538785 
L 144.895601 114.538785 
L 144.895601 114.014537 
L 145.235981 114.014537 
L 145.235981 112.966042 
L 145.522465 112.966042 
L 145.616908 111.917546 
L 145.663936 111.917546 
L 145.663936 111.393298 
L 145.897164 111.393298 
L 145.897164 110.869051 
L 146.081494 110.869051 
L 146.127269 109.820555 
L 146.218456 109.820555 
L 146.218456 109.296308 
L 146.354335 109.296308 
L 146.354335 108.77206 
L 146.711514 108.77206 
L 146.799661 107.199317 
L 147.147797 107.199317 
L 147.147797 106.675069 
L 147.657127 106.675069 
L 147.657127 106.150821 
L 148.029459 106.150821 
L 148.111115 104.578078 
L 148.353782 104.578078 
L 148.433916 103.529583 
L 148.513678 103.529583 
L 148.513678 101.956839 
L 148.63263 101.956839 
L 148.711478 100.908344 
L 148.829074 100.908344 
L 148.907027 99.859849 
L 148.984628 99.859849 
L 149.061881 98.287105 
L 149.100377 98.287105 
L 149.138788 96.714362 
L 149.253506 96.714362 
L 149.291576 95.665867 
L 149.367465 95.665867 
L 149.443019 94.617371 
L 149.518243 94.617371 
L 149.518243 94.093124 
L 149.630465 94.093124 
L 149.704875 92.520381 
L 149.815889 92.520381 
L 149.815889 91.996133 
L 149.962801 91.996133 
L 150.072167 90.947637 
L 150.288834 90.947637 
L 150.288834 90.42339 
L 150.608797 90.42339 
L 150.714141 88.850646 
L 150.888293 88.850646 
L 150.888293 88.326399 
L 151.060698 88.326399 
L 151.060698 87.802151 
L 151.53443 87.802151 
L 151.53443 87.277903 
L 151.700505 87.277903 
L 151.700505 86.753656 
L 151.930347 86.753656 
L 151.962932 85.70516 
L 152.060318 85.70516 
L 152.060318 85.180912 
L 152.317349 85.180912 
L 152.34921 84.132417 
L 152.507631 84.132417 
L 152.570594 80.986931 
L 152.758108 80.986931 
L 152.758108 80.462683 
L 152.912822 80.462683 
L 152.97432 78.88994 
L 153.398752 78.88994 
L 153.488354 77.317197 
L 153.54783 77.317197 
L 153.636661 75.744454 
L 153.871321 75.744454 
L 153.929489 74.17171 
L 154.245942 74.17171 
L 154.245942 73.123215 
L 154.38788 73.123215 
L 154.38788 72.598967 
L 154.640452 72.598967 
L 154.640452 72.074719 
L 154.806795 72.074719 
L 154.806795 71.550472 
L 155.05333 71.550472 
L 155.05333 71.026224 
L 155.323172 71.026224 
L 155.349925 69.977729 
L 155.509573 69.977729 
L 155.615187 68.929233 
L 155.798464 68.929233 
L 155.798464 68.404985 
L 155.92819 68.404985 
L 155.979808 67.35649 
L 156.2863 67.35649 
L 156.387261 66.307995 
L 156.612279 66.307995 
L 156.612279 65.783747 
L 156.736028 65.783747 
L 156.736028 65.259499 
L 157.053666 65.259499 
L 157.053666 64.735251 
L 157.198312 64.735251 
L 157.222302 63.162508 
L 157.341751 63.162508 
L 157.365541 62.114013 
L 157.625086 62.114013 
L 157.625086 61.589765 
L 157.741778 61.589765 
L 157.811415 60.54127 
L 158.109956 60.54127 
L 158.200781 59.492774 
L 158.448103 59.492774 
L 158.514942 57.395783 
L 158.691918 57.395783 
L 158.779727 55.82304 
L 158.845291 55.82304 
L 158.910606 54.774545 
L 159.147992 54.774545 
L 159.147992 54.250297 
L 159.276106 54.250297 
L 159.276106 53.726049 
L 159.403273 53.726049 
L 159.508531 51.629058 
L 159.550455 51.629058 
L 159.550455 51.104811 
L 159.675615 51.104811 
L 159.675615 50.580563 
L 159.94371 50.580563 
L 159.94371 50.056315 
L 160.268033 50.056315 
L 160.368142 49.00782 
L 160.684628 49.00782 
L 160.782346 46.910829 
L 161.033844 46.910829 
L 161.033844 45.862334 
L 161.376107 45.862334 
L 161.376107 45.338086 
L 161.803753 45.338086 
L 161.803753 44.813838 
L 161.95004 44.813838 
L 161.95004 44.28959 
L 162.221018 44.28959 
L 162.221018 43.765343 
L 162.680823 43.765343 
L 162.733095 42.716847 
L 162.871714 42.716847 
L 162.871714 42.192599 
L 163.009223 42.192599 
L 163.009223 41.668352 
L 163.230357 41.668352 
L 163.230357 41.144104 
L 163.877183 41.144104 
L 163.877183 40.619856 
L 163.990747 40.619856 
L 163.990747 40.095609 
L 164.183699 40.095609 
L 164.183699 39.571361 
L 164.406106 39.571361 
L 164.406106 39.047113 
L 164.531915 39.047113 
L 164.531915 38.522865 
L 164.672359 38.522865 
L 164.672359 37.998618 
L 165.026142 37.998618 
L 165.026142 37.47437 
L 166.61033 37.47437 
L 166.721046 35.901627 
L 167.608225 35.901627 
L 167.608225 35.377379 
L 167.881169 35.377379 
L 167.881169 34.853131 
L 168.149847 34.853131 
L 168.149847 34.328884 
L 168.314091 34.328884 
L 168.351772 33.280388 
L 168.967918 33.280388 
L 168.967918 32.756141 
L 170.373512 32.756141 
L 170.462515 31.707645 
L 171.190358 31.707645 
L 171.190358 31.183397 
L 171.338628 31.183397 
L 171.412286 30.134902 
L 171.980301 30.134902 
L 171.980301 29.610654 
L 172.192322 29.610654 
L 172.192322 29.086407 
L 174.144228 29.086407 
L 174.144228 28.562159 
L 176.555499 28.562159 
L 176.555499 28.037911 
L 176.679606 28.037911 
L 176.679606 27.513663 
L 333.168 27.513663 
L 333.168 27.513663 
" style="fill:none;stroke:#000080;stroke-linecap:square;stroke-width:1.5;"/>
   </g>
   <g id="line2d_44">
    <defs>
     <path d="M 0 6 
C 1.591219 6 3.117479 5.367802 4.242641 4.242641 
C 5.367802 3.117479 6 1.591219 6 0 
C 6 -1.591219 5.367802 -3.117479 4.242641 -4.242641 
C 3.117479 -5.367802 1.591219 -6 0 -6 
C -1.591219 -6 -3.117479 -5.367802 -4.242641 -4.242641 
C -5.367802 -3.117479 -6 -1.591219 -6 0 
C -6 1.591219 -5.367802 3.117479 -4.242641 4.242641 
C -3.117479 5.367802 -1.591219 6 0 6 
z
" id="m7e4eef28f1" style="stroke:#000080;stroke-width:1.5;"/>
    </defs>
    <g>
     <use style="fill:none;stroke:#000080;stroke-width:1.5;" x="135.532486" xlink:href="#m7e4eef28f1" y="164.866566"/>
     <use style="fill:none;stroke:#000080;stroke-width:1.5;" x="152.97432" xlink:href="#m7e4eef28f1" y="79.414188"/>
     <use style="fill:none;stroke:#000080;stroke-width:1.5;" x="176.679606" xlink:href="#m7e4eef28f1" y="28.037911"/>
     <use style="fill:none;stroke:#000080;stroke-width:1.5;" x="176.679606" xlink:href="#m7e4eef28f1" y="27.513663"/>
     <use style="fill:none;stroke:#000080;stroke-width:1.5;" x="176.679606" xlink:href="#m7e4eef28f1" y="27.513663"/>
     <use style="fill:none;stroke:#000080;stroke-width:1.5;" x="333.168" xlink:href="#m7e4eef28f1" y="27.513663"/>
    </g>
   </g>
   <g id="line2d_45">
    <path style="fill:none;stroke:#000080;stroke-linecap:square;stroke-width:1.5;"/>
    <g/>
   </g>
   <g id="line2d_46">
    <path clip-path="url(#pf5834dd8a6)" d="M 125.764637 190.030456 
" style="fill:none;stroke:#000080;stroke-linecap:square;stroke-width:1.5;"/>
    <defs>
     <path d="M -12 12 
L 12 -12 
M -12 -12 
L 12 12 
" id="m3d93a82c66" style="stroke:#000080;"/>
    </defs>
    <g clip-path="url(#pf5834dd8a6)">
     <use style="fill:#000080;stroke:#000080;" x="125.764637" xlink:href="#m3d93a82c66" y="190.030456"/>
    </g>
   </g>
   <g id="line2d_47">
    <defs>
     <path d="M 0 1.5 
C 0.397805 1.5 0.77937 1.341951 1.06066 1.06066 
C 1.341951 0.77937 1.5 0.397805 1.5 0 
C 1.5 -0.397805 1.341951 -0.77937 1.06066 -1.06066 
C 0.77937 -1.341951 0.397805 -1.5 0 -1.5 
C -0.397805 -1.5 -0.77937 -1.341951 -1.06066 -1.06066 
C -1.341951 -0.77937 -1.5 -0.397805 -1.5 0 
C -1.5 0.397805 -1.341951 0.77937 -1.06066 1.06066 
C -0.77937 1.341951 -0.397805 1.5 0 1.5 
z
" id="m799a1ba099" style="stroke:#ff00ff;"/>
    </defs>
    <g>
     <use style="fill:#ff00ff;stroke:#ff00ff;" x="178.265785" xlink:href="#m799a1ba099" y="27.513663"/>
     <use style="fill:#ff00ff;stroke:#ff00ff;" x="178.265785" xlink:href="#m799a1ba099" y="27.513663"/>
    </g>
   </g>
   <g id="line2d_48">
    <path d="M 44.205749 294.88 
L 44.205749 264.99788 
L 86.917893 264.99788 
L 86.917893 264.473632 
L 91.862754 264.473632 
L 91.862754 263.949385 
L 92.904808 263.949385 
L 92.904808 263.425137 
L 97.336537 263.425137 
L 97.336537 261.852394 
L 98.100602 261.852394 
L 98.100602 260.803898 
L 100.207968 260.803898 
L 100.207968 259.755403 
L 100.856673 259.755403 
L 100.856673 258.706907 
L 101.481783 258.706907 
L 101.481783 257.134164 
L 102.084955 257.134164 
L 102.084955 256.085669 
L 102.667676 256.085669 
L 102.667676 255.561421 
L 103.231288 255.561421 
L 103.231288 255.037173 
L 111.100812 255.037173 
L 111.100812 254.512926 
L 111.448069 254.512926 
L 111.448069 253.988678 
L 114.866043 253.988678 
L 114.866043 253.46443 
L 115.691256 253.46443 
L 115.691256 252.940182 
L 115.957752 252.940182 
L 115.957752 252.415935 
L 116.220179 252.415935 
L 116.220179 251.891687 
L 116.73331 251.891687 
L 116.73331 250.843192 
L 116.984244 250.843192 
L 116.984244 249.794696 
L 117.231566 249.794696 
L 117.231566 248.746201 
L 117.952873 248.746201 
L 117.952873 243.503724 
L 118.186736 243.503724 
L 118.186736 241.93098 
L 118.645127 241.93098 
L 118.645127 241.406733 
L 118.869818 241.406733 
L 118.869818 240.882485 
L 119.310576 240.882485 
L 119.310576 240.358237 
L 119.526788 240.358237 
L 119.526788 236.688503 
L 119.95122 236.688503 
L 119.95122 234.067265 
L 120.568842 234.067265 
L 120.568842 233.543017 
L 120.769881 233.543017 
L 120.769881 232.494521 
L 120.968596 232.494521 
L 120.968596 231.970274 
L 121.16504 231.970274 
L 121.16504 226.727797 
L 121.359263 226.727797 
L 121.359263 226.203549 
L 121.551317 226.203549 
L 121.551317 222.533815 
L 121.741249 222.533815 
L 121.741249 217.815585 
L 121.929105 217.815585 
L 121.929105 215.194347 
L 122.114929 215.194347 
L 122.114929 214.145851 
L 122.298767 214.145851 
L 122.298767 210.476117 
L 122.660646 210.476117 
L 122.660646 207.854879 
L 123.015063 207.854879 
L 123.015063 206.806383 
L 123.189569 206.806383 
L 123.189569 202.088154 
L 123.533353 202.088154 
L 123.533353 201.563906 
L 123.870396 201.563906 
L 123.870396 198.942667 
L 124.363883 198.942667 
L 124.363883 197.369924 
L 124.685175 197.369924 
L 124.685175 194.748686 
L 125.000572 194.748686 
L 125.000572 193.175943 
L 125.614517 193.175943 
L 125.614517 191.603199 
L 125.764637 191.603199 
L 125.764637 190.030456 
L 126.207287 190.030456 
L 126.207287 189.506209 
L 126.780294 189.506209 
L 126.780294 188.981961 
L 127.197852 188.981961 
L 127.197852 188.457713 
L 129.022601 188.457713 
L 129.022601 187.933465 
L 129.748989 187.933465 
L 129.748989 187.409218 
L 130.559378 187.409218 
L 130.559378 186.88497 
L 131.969962 186.88497 
L 131.969962 186.360722 
L 133.176677 186.360722 
L 133.176677 185.836474 
L 133.36981 185.836474 
L 133.36981 185.312227 
L 133.560797 185.312227 
L 133.6555 183.739484 
L 133.843356 183.739484 
L 133.843356 182.690988 
L 134.029181 182.690988 
L 134.121345 181.118245 
L 134.304205 181.118245 
L 134.39491 180.06975 
L 134.485139 180.06975 
L 134.574897 177.972759 
L 134.664189 177.972759 
L 134.664189 176.924263 
L 134.841393 176.924263 
L 134.841393 175.875768 
L 135.016789 175.875768 
L 135.10382 174.303025 
L 135.190413 174.303025 
L 135.276571 172.206034 
L 135.3623 172.206034 
L 135.447604 171.157538 
L 135.532486 171.157538 
L 135.532486 170.109043 
L 135.701004 170.109043 
L 135.784647 169.060547 
L 135.867885 169.060547 
L 135.950722 166.963557 
L 136.033161 166.963557 
L 136.115208 165.915061 
L 136.359022 165.915061 
L 136.359022 164.342318 
L 136.519665 164.342318 
L 136.599426 162.245327 
L 136.67882 162.245327 
L 136.757848 160.672584 
L 136.836515 160.672584 
L 136.914823 159.099841 
L 136.992776 159.099841 
L 137.070377 156.478602 
L 137.224536 156.478602 
L 137.301101 154.381611 
L 137.453213 154.381611 
L 137.528768 153.333116 
L 137.753459 153.333116 
L 137.753459 152.28462 
L 137.901638 152.28462 
L 137.975251 150.711877 
L 138.04855 150.711877 
L 138.04855 150.18763 
L 138.553074 150.18763 
L 138.553074 149.663382 
L 138.694545 149.663382 
L 138.694545 148.614886 
L 139.384945 148.614886 
L 139.384945 148.090639 
L 139.586771 148.090639 
L 139.586771 147.566391 
L 139.852237 147.566391 
L 139.852237 147.042143 
L 140.178407 147.042143 
L 140.178407 146.517896 
L 140.498503 146.517896 
L 140.498503 145.993648 
L 141.303883 145.993648 
L 141.303883 145.4694 
L 141.603867 145.4694 
L 141.603867 144.945152 
L 141.72241 144.945152 
L 141.72241 143.896657 
L 141.84014 143.896657 
L 141.84014 142.848162 
L 142.015238 142.848162 
L 142.07321 141.275418 
L 142.18857 141.275418 
L 142.18857 140.226923 
L 142.303162 140.226923 
L 142.360172 139.178427 
L 142.586342 139.178427 
L 142.586342 138.65418 
L 142.864932 138.65418 
L 142.920112 137.605684 
L 143.193387 137.605684 
L 143.247524 135.508693 
L 143.35529 135.508693 
L 143.408921 132.887455 
L 143.568817 132.887455 
L 143.568817 132.363207 
L 143.779723 132.363207 
L 143.832047 130.266216 
L 143.988072 130.266216 
L 143.988072 129.741969 
L 144.142694 129.741969 
L 144.245007 128.693473 
L 144.295937 128.693473 
L 144.295937 128.169225 
L 144.447825 128.169225 
L 144.548344 126.596482 
L 144.944641 126.596482 
L 145.042304 125.023739 
L 145.090928 125.023739 
L 145.139415 123.975244 
L 145.235981 123.975244 
L 145.332007 122.4025 
L 145.522465 122.4025 
L 145.616908 120.829757 
L 145.943432 120.829757 
L 145.943432 120.30551 
L 146.218456 120.30551 
L 146.218456 119.781262 
L 146.354335 119.781262 
L 146.354335 119.257014 
L 146.533852 119.257014 
L 146.533852 118.732766 
L 147.104664 118.732766 
L 147.104664 118.208519 
L 147.276552 118.208519 
L 147.361855 116.111528 
L 147.57328 116.111528 
L 147.615255 114.538785 
L 147.740567 114.538785 
L 147.740567 114.014537 
L 147.906242 114.014537 
L 147.988485 112.966042 
L 148.151798 112.966042 
L 148.151798 112.441794 
L 148.273273 112.441794 
L 148.353782 110.869051 
L 148.473843 110.869051 
L 148.55342 109.820555 
L 148.593071 109.820555 
L 148.63263 108.77206 
L 148.711478 108.77206 
L 148.750766 107.199317 
L 148.868095 107.199317 
L 148.945872 106.150821 
L 148.984628 106.150821 
L 149.061881 104.05383 
L 149.138788 104.05383 
L 149.138788 103.529583 
L 149.253506 103.529583 
L 149.329562 101.956839 
L 149.480672 101.956839 
L 149.518243 100.384096 
L 149.999334 100.384096 
L 150.108469 99.335601 
L 150.324681 99.335601 
L 150.324681 98.811353 
L 150.608797 98.811353 
L 150.714141 97.23861 
L 151.434009 97.23861 
L 151.501022 96.190115 
L 151.962932 96.190115 
L 151.995456 95.141619 
L 152.124937 95.141619 
L 152.157156 94.093124 
L 152.253451 94.093124 
L 152.34921 91.471885 
L 152.381011 91.471885 
L 152.412754 89.374894 
L 152.507631 89.374894 
L 152.507631 88.850646 
L 152.633326 88.850646 
L 152.726997 87.802151 
L 152.758108 87.802151 
L 152.758108 87.277903 
L 152.88199 87.277903 
L 152.88199 86.753656 
L 153.004986 86.753656 
L 153.004986 86.229408 
L 153.278551 86.229408 
L 153.30868 85.180912 
L 153.607102 85.180912 
L 153.607102 84.656665 
L 153.754391 84.656665 
L 153.783699 83.608169 
L 153.9585 83.608169 
L 153.9585 83.083922 
L 154.074054 83.083922 
L 154.074054 82.559674 
L 154.188837 82.559674 
L 154.274423 80.986931 
L 154.302858 80.986931 
L 154.302858 80.462683 
L 154.416128 80.462683 
L 154.472484 78.88994 
L 154.556673 78.88994 
L 154.556673 78.365692 
L 154.751526 78.365692 
L 154.751526 77.841444 
L 154.889367 77.841444 
L 154.998849 76.792949 
L 155.215743 76.792949 
L 155.215743 76.268701 
L 155.588844 76.268701 
L 155.588844 75.744454 
L 155.720156 75.744454 
L 155.772401 74.695958 
L 155.850472 74.695958 
L 155.954019 73.123215 
L 156.031271 73.123215 
L 156.031271 72.598967 
L 156.210188 72.598967 
L 156.311596 70.501976 
L 156.43752 70.501976 
L 156.43752 69.977729 
L 156.661886 69.977729 
L 156.760671 68.929233 
L 156.785279 68.929233 
L 156.785279 68.404985 
L 157.005179 68.404985 
L 157.005179 67.880738 
L 157.222302 67.880738 
L 157.294071 65.259499 
L 157.389299 65.259499 
L 157.389299 64.735251 
L 157.507597 64.735251 
L 157.531159 63.686756 
L 157.625086 63.686756 
L 157.671858 62.114013 
L 157.903827 62.114013 
L 157.903827 61.589765 
L 158.603658 61.589765 
L 158.603658 61.065517 
L 158.80161 61.065517 
L 158.888862 59.492774 
L 158.954011 59.492774 
L 158.954011 58.968526 
L 159.083575 58.968526 
L 159.126546 57.920031 
L 159.276106 57.920031 
L 159.276106 57.395783 
L 159.403273 57.395783 
L 159.403273 56.871536 
L 159.550455 56.871536 
L 159.550455 56.347288 
L 159.779224 56.347288 
L 159.820493 55.298792 
L 160.247941 55.298792 
L 160.308147 54.250297 
L 160.388094 54.250297 
L 160.388094 53.726049 
L 160.704216 53.726049 
L 160.704216 53.201802 
L 160.956851 53.201802 
L 160.956851 52.677554 
L 161.205828 52.677554 
L 161.205828 52.153306 
L 161.563349 52.153306 
L 161.637678 51.104811 
L 162.328224 51.104811 
L 162.381577 49.532068 
L 162.767854 49.532068 
L 162.767854 49.00782 
L 163.179578 49.00782 
L 163.179578 48.483572 
L 163.348261 48.483572 
L 163.348261 47.959324 
L 163.548519 47.959324 
L 163.581669 46.910829 
L 163.697196 46.910829 
L 163.697196 46.386581 
L 164.006909 46.386581 
L 164.023057 45.338086 
L 164.406106 45.338086 
L 164.406106 44.813838 
L 164.641248 44.813838 
L 164.672359 43.241095 
L 164.811664 43.241095 
L 164.811664 42.716847 
L 165.026142 42.716847 
L 165.132385 41.144104 
L 165.14751 41.144104 
L 165.14751 40.095609 
L 165.65397 40.095609 
L 165.65397 39.571361 
L 165.872751 39.571361 
L 165.872751 39.047113 
L 166.002695 39.047113 
L 166.002695 38.522865 
L 166.414844 38.522865 
L 166.512865 37.47437 
L 166.748614 37.47437 
L 166.748614 36.950122 
L 166.899453 36.950122 
L 166.940362 35.901627 
L 167.971196 35.901627 
L 167.971196 35.377379 
L 168.301512 35.377379 
L 168.364314 33.804636 
L 169.433633 33.804636 
L 169.46894 32.756141 
L 169.632754 32.756141 
L 169.632754 32.231893 
L 169.818078 32.231893 
L 169.818078 31.707645 
L 170.306457 31.707645 
L 170.306457 31.183397 
L 170.704923 31.183397 
L 170.704923 30.65915 
L 170.868263 30.65915 
L 170.868263 30.134902 
L 171.137092 30.134902 
L 171.137092 29.610654 
L 171.285821 29.610654 
L 171.285821 29.086407 
L 171.82724 29.086407 
L 171.82724 28.562159 
L 176.217455 28.562159 
L 176.217455 28.037911 
L 178.265785 28.037911 
L 178.265785 27.513663 
L 333.168 27.513663 
L 333.168 27.513663 
" style="fill:none;stroke:#ff00ff;stroke-linecap:square;stroke-width:1.5;"/>
   </g>
   <g id="line2d_49">
    <defs>
     <path d="M -0 8.485281 
L 5.091169 0 
L 0 -8.485281 
L -5.091169 -0 
z
" id="m17fa16fcb1" style="stroke:#ff00ff;stroke-linejoin:miter;stroke-width:1.5;"/>
    </defs>
    <g>
     <use style="fill:none;stroke:#ff00ff;stroke-linejoin:miter;stroke-width:1.5;" x="133.176677" xlink:href="#m17fa16fcb1" y="185.836474"/>
     <use style="fill:none;stroke:#ff00ff;stroke-linejoin:miter;stroke-width:1.5;" x="156.311596" xlink:href="#m17fa16fcb1" y="70.501976"/>
     <use style="fill:none;stroke:#ff00ff;stroke-linejoin:miter;stroke-width:1.5;" x="178.265785" xlink:href="#m17fa16fcb1" y="28.037911"/>
     <use style="fill:none;stroke:#ff00ff;stroke-linejoin:miter;stroke-width:1.5;" x="178.265785" xlink:href="#m17fa16fcb1" y="27.513663"/>
     <use style="fill:none;stroke:#ff00ff;stroke-linejoin:miter;stroke-width:1.5;" x="178.265785" xlink:href="#m17fa16fcb1" y="27.513663"/>
     <use style="fill:none;stroke:#ff00ff;stroke-linejoin:miter;stroke-width:1.5;" x="333.168" xlink:href="#m17fa16fcb1" y="27.513663"/>
    </g>
   </g>
   <g id="line2d_50">
    <path style="fill:none;stroke:#ff00ff;stroke-linecap:square;stroke-width:1.5;"/>
    <g/>
   </g>
   <g id="line2d_51">
    <path clip-path="url(#pf5834dd8a6)" d="M 125.764637 190.030456 
" style="fill:none;stroke:#ff00ff;stroke-linecap:square;stroke-width:1.5;"/>
    <defs>
     <path d="M -12 12 
L 12 -12 
M -12 -12 
L 12 12 
" id="m1555608816" style="stroke:#ff00ff;"/>
    </defs>
    <g clip-path="url(#pf5834dd8a6)">
     <use style="fill:#ff00ff;stroke:#ff00ff;" x="125.764637" xlink:href="#m1555608816" y="190.030456"/>
    </g>
   </g>
   <g id="line2d_52">
    <path d="M 333.168 27.513663 
L 363.64328 289.532673 
" style="fill:none;stroke:#ff00ff;stroke-linecap:square;stroke-width:1.5;"/>
    <g>
     <use style="fill:none;stroke:#ff00ff;stroke-linejoin:miter;stroke-width:1.5;" x="333.168" xlink:href="#m17fa16fcb1" y="27.513663"/>
     <use style="fill:none;stroke:#ff00ff;stroke-linejoin:miter;stroke-width:1.5;" x="363.64328" xlink:href="#m17fa16fcb1" y="289.532673"/>
    </g>
   </g>
   <g id="line2d_53">
    <path d="M 333.168 27.513663 
L 363.64328 161.196832 
" style="fill:none;stroke:#000080;stroke-linecap:square;stroke-width:1.5;"/>
    <g>
     <use style="fill:none;stroke:#000080;stroke-width:1.5;" x="333.168" xlink:href="#m7e4eef28f1" y="27.513663"/>
     <use style="fill:none;stroke:#000080;stroke-width:1.5;" x="363.64328" xlink:href="#m7e4eef28f1" y="161.196832"/>
    </g>
   </g>
   <g id="line2d_54">
    <path d="M 333.168 294.88 
L 333.168 27.513663 
" style="fill:none;stroke:#000000;stroke-linecap:square;stroke-width:1.5;"/>
   </g>
   <g id="patch_3">
    <path d="M 56.12 294.88 
L 56.12 24.84 
" style="fill:none;stroke:#000000;stroke-linecap:square;stroke-linejoin:miter;stroke-width:0.8;"/>
   </g>
   <g id="patch_4">
    <path d="M 333.168 294.88 
L 333.168 24.84 
" style="fill:none;stroke:#000000;stroke-linecap:square;stroke-linejoin:miter;stroke-width:0.8;"/>
   </g>
   <g id="patch_5">
    <path d="M 56.12 294.88 
L 333.168 294.88 
" style="fill:none;stroke:#000000;stroke-linecap:square;stroke-linejoin:miter;stroke-width:0.8;"/>
   </g>
   <g id="patch_6">
    <path d="M 56.12 24.84 
L 333.168 24.84 
" style="fill:none;stroke:#000000;stroke-linecap:square;stroke-linejoin:miter;stroke-width:0.8;"/>
   </g>
   <g id="text_13">
    <!-- scipy-opt -->
    <defs>
     <path d="M 32.171875 -5.078125 
Q 28.375 -14.84375 24.75 -17.8125 
Q 21.140625 -20.796875 15.09375 -20.796875 
L 7.90625 -20.796875 
L 7.90625 -13.28125 
L 13.1875 -13.28125 
Q 16.890625 -13.28125 18.9375 -11.515625 
Q 21 -9.765625 23.484375 -3.21875 
L 25.09375 0.875 
L 2.984375 54.6875 
L 12.5 54.6875 
L 29.59375 11.921875 
L 46.6875 54.6875 
L 56.203125 54.6875 
z
" id="DejaVuSans-79"/>
    </defs>
    <g transform="translate(369.18424 294.223611)scale(0.17 -0.17)">
     <use xlink:href="#DejaVuSans-73"/>
     <use x="52.099609" xlink:href="#DejaVuSans-63"/>
     <use x="107.080078" xlink:href="#DejaVuSans-69"/>
     <use x="134.863281" xlink:href="#DejaVuSans-70"/>
     <use x="198.339844" xlink:href="#DejaVuSans-79"/>
     <use x="257.503906" xlink:href="#DejaVuSans-2d"/>
     <use x="293.603516" xlink:href="#DejaVuSans-6f"/>
     <use x="354.785156" xlink:href="#DejaVuSans-70"/>
     <use x="418.261719" xlink:href="#DejaVuSans-74"/>
    </g>
   </g>
   <g id="text_14">
    <!-- scipyAlg -->
    <defs>
     <path d="M 34.1875 63.1875 
L 20.796875 26.90625 
L 47.609375 26.90625 
z
M 28.609375 72.90625 
L 39.796875 72.90625 
L 67.578125 0 
L 57.328125 0 
L 50.6875 18.703125 
L 17.828125 18.703125 
L 11.1875 0 
L 0.78125 0 
z
" id="DejaVuSans-41"/>
    </defs>
    <g transform="translate(369.18424 165.887769)scale(0.17 -0.17)">
     <use xlink:href="#DejaVuSans-73"/>
     <use x="52.099609" xlink:href="#DejaVuSans-63"/>
     <use x="107.080078" xlink:href="#DejaVuSans-69"/>
     <use x="134.863281" xlink:href="#DejaVuSans-70"/>
     <use x="198.339844" xlink:href="#DejaVuSans-79"/>
     <use x="257.519531" xlink:href="#DejaVuSans-41"/>
     <use x="325.927734" xlink:href="#DejaVuSans-6c"/>
     <use x="353.710938" xlink:href="#DejaVuSans-67"/>
    </g>
   </g>
   <g id="text_15">
    <!-- best 2009 -->
    <defs>
     <path d="M 48.6875 27.296875 
Q 48.6875 37.203125 44.609375 42.84375 
Q 40.53125 48.484375 33.40625 48.484375 
Q 26.265625 48.484375 22.1875 42.84375 
Q 18.109375 37.203125 18.109375 27.296875 
Q 18.109375 17.390625 22.1875 11.75 
Q 26.265625 6.109375 33.40625 6.109375 
Q 40.53125 6.109375 44.609375 11.75 
Q 48.6875 17.390625 48.6875 27.296875 
z
M 18.109375 46.390625 
Q 20.953125 51.265625 25.265625 53.625 
Q 29.59375 56 35.59375 56 
Q 45.5625 56 51.78125 48.09375 
Q 58.015625 40.1875 58.015625 27.296875 
Q 58.015625 14.40625 51.78125 6.484375 
Q 45.5625 -1.421875 35.59375 -1.421875 
Q 29.59375 -1.421875 25.265625 0.953125 
Q 20.953125 3.328125 18.109375 8.203125 
L 18.109375 0 
L 9.078125 0 
L 9.078125 75.984375 
L 18.109375 75.984375 
z
" id="DejaVuSans-62"/>
     <path d="M 10.984375 1.515625 
L 10.984375 10.5 
Q 14.703125 8.734375 18.5 7.8125 
Q 22.3125 6.890625 25.984375 6.890625 
Q 35.75 6.890625 40.890625 13.453125 
Q 46.046875 20.015625 46.78125 33.40625 
Q 43.953125 29.203125 39.59375 26.953125 
Q 35.25 24.703125 29.984375 24.703125 
Q 19.046875 24.703125 12.671875 31.3125 
Q 6.296875 37.9375 6.296875 49.421875 
Q 6.296875 60.640625 12.9375 67.421875 
Q 19.578125 74.21875 30.609375 74.21875 
Q 43.265625 74.21875 49.921875 64.515625 
Q 56.59375 54.828125 56.59375 36.375 
Q 56.59375 19.140625 48.40625 8.859375 
Q 40.234375 -1.421875 26.421875 -1.421875 
Q 22.703125 -1.421875 18.890625 -0.6875 
Q 15.09375 0.046875 10.984375 1.515625 
z
M 30.609375 32.421875 
Q 37.25 32.421875 41.125 36.953125 
Q 45.015625 41.5 45.015625 49.421875 
Q 45.015625 57.28125 41.125 61.84375 
Q 37.25 66.40625 30.609375 66.40625 
Q 23.96875 66.40625 20.09375 61.84375 
Q 16.21875 57.28125 16.21875 49.421875 
Q 16.21875 41.5 20.09375 36.953125 
Q 23.96875 32.421875 30.609375 32.421875 
z
" id="DejaVuSans-39"/>
    </defs>
    <g transform="translate(369.18424 37.551928)scale(0.17 -0.17)">
     <use xlink:href="#DejaVuSans-62"/>
     <use x="63.476562" xlink:href="#DejaVuSans-65"/>
     <use x="125" xlink:href="#DejaVuSans-73"/>
     <use x="177.099609" xlink:href="#DejaVuSans-74"/>
     <use x="216.308594" xlink:href="#DejaVuSans-20"/>
     <use x="248.095703" xlink:href="#DejaVuSans-32"/>
     <use x="311.71875" xlink:href="#DejaVuSans-30"/>
     <use x="375.341797" xlink:href="#DejaVuSans-30"/>
     <use x="438.964844" xlink:href="#DejaVuSans-39"/>
    </g>
   </g>
   <g id="text_16">
    <!-- bbob f21, 2-D -->
    <defs>
     <path d="M 19.671875 64.796875 
L 19.671875 8.109375 
L 31.59375 8.109375 
Q 46.6875 8.109375 53.6875 14.9375 
Q 60.6875 21.78125 60.6875 36.53125 
Q 60.6875 51.171875 53.6875 57.984375 
Q 46.6875 64.796875 31.59375 64.796875 
z
M 9.8125 72.90625 
L 30.078125 72.90625 
Q 51.265625 72.90625 61.171875 64.09375 
Q 71.09375 55.28125 71.09375 36.53125 
Q 71.09375 17.671875 61.125 8.828125 
Q 51.171875 0 30.078125 0 
L 9.8125 0 
z
" id="DejaVuSans-44"/>
    </defs>
    <g transform="translate(58.89048 35.290806)scale(0.102 -0.102)">
     <use xlink:href="#DejaVuSans-62"/>
     <use x="63.476562" xlink:href="#DejaVuSans-62"/>
     <use x="126.953125" xlink:href="#DejaVuSans-6f"/>
     <use x="188.134766" xlink:href="#DejaVuSans-62"/>
     <use x="251.611328" xlink:href="#DejaVuSans-20"/>
     <use x="283.398438" xlink:href="#DejaVuSans-66"/>
     <use x="318.603516" xlink:href="#DejaVuSans-32"/>
     <use x="382.226562" xlink:href="#DejaVuSans-31"/>
     <use x="445.849609" xlink:href="#DejaVuSans-2c"/>
     <use x="477.636719" xlink:href="#DejaVuSans-20"/>
     <use x="509.423828" xlink:href="#DejaVuSans-32"/>
     <use x="573.046875" xlink:href="#DejaVuSans-2d"/>
     <use x="609.130859" xlink:href="#DejaVuSans-44"/>
    </g>
    <!-- 51 targets: 100..1e-08 -->
    <defs>
     <path d="M 10.796875 72.90625 
L 49.515625 72.90625 
L 49.515625 64.59375 
L 19.828125 64.59375 
L 19.828125 46.734375 
Q 21.96875 47.46875 24.109375 47.828125 
Q 26.265625 48.1875 28.421875 48.1875 
Q 40.625 48.1875 47.75 41.5 
Q 54.890625 34.8125 54.890625 23.390625 
Q 54.890625 11.625 47.5625 5.09375 
Q 40.234375 -1.421875 26.90625 -1.421875 
Q 22.3125 -1.421875 17.546875 -0.640625 
Q 12.796875 0.140625 7.71875 1.703125 
L 7.71875 11.625 
Q 12.109375 9.234375 16.796875 8.0625 
Q 21.484375 6.890625 26.703125 6.890625 
Q 35.15625 6.890625 40.078125 11.328125 
Q 45.015625 15.765625 45.015625 23.390625 
Q 45.015625 31 40.078125 35.4375 
Q 35.15625 39.890625 26.703125 39.890625 
Q 22.75 39.890625 18.8125 39.015625 
Q 14.890625 38.140625 10.796875 36.28125 
z
" id="DejaVuSans-35"/>
     <path d="M 11.71875 12.40625 
L 22.015625 12.40625 
L 22.015625 0 
L 11.71875 0 
z
M 11.71875 51.703125 
L 22.015625 51.703125 
L 22.015625 39.3125 
L 11.71875 39.3125 
z
" id="DejaVuSans-3a"/>
    </defs>
    <g transform="translate(58.89048 46.712575)scale(0.102 -0.102)">
     <use xlink:href="#DejaVuSans-35"/>
     <use x="63.623047" xlink:href="#DejaVuSans-31"/>
     <use x="127.246094" xlink:href="#DejaVuSans-20"/>
     <use x="159.033203" xlink:href="#DejaVuSans-74"/>
     <use x="198.242188" xlink:href="#DejaVuSans-61"/>
     <use x="259.521484" xlink:href="#DejaVuSans-72"/>
     <use x="300.619141" xlink:href="#DejaVuSans-67"/>
     <use x="364.095703" xlink:href="#DejaVuSans-65"/>
     <use x="425.619141" xlink:href="#DejaVuSans-74"/>
     <use x="464.828125" xlink:href="#DejaVuSans-73"/>
     <use x="516.927734" xlink:href="#DejaVuSans-3a"/>
     <use x="550.619141" xlink:href="#DejaVuSans-20"/>
     <use x="582.40625" xlink:href="#DejaVuSans-31"/>
     <use x="646.029297" xlink:href="#DejaVuSans-30"/>
     <use x="709.652344" xlink:href="#DejaVuSans-30"/>
     <use x="773.275391" xlink:href="#DejaVuSans-2e"/>
     <use x="805.0625" xlink:href="#DejaVuSans-2e"/>
     <use x="836.849609" xlink:href="#DejaVuSans-31"/>
     <use x="900.472656" xlink:href="#DejaVuSans-65"/>
     <use x="961.996094" xlink:href="#DejaVuSans-2d"/>
     <use x="998.080078" xlink:href="#DejaVuSans-30"/>
     <use x="1061.703125" xlink:href="#DejaVuSans-38"/>
    </g>
    <!-- 15 instances -->
    <g transform="translate(58.89048 58.134344)scale(0.102 -0.102)">
     <use xlink:href="#DejaVuSans-31"/>
     <use x="63.623047" xlink:href="#DejaVuSans-35"/>
     <use x="127.246094" xlink:href="#DejaVuSans-20"/>
     <use x="159.033203" xlink:href="#DejaVuSans-69"/>
     <use x="186.816406" xlink:href="#DejaVuSans-6e"/>
     <use x="250.195312" xlink:href="#DejaVuSans-73"/>
     <use x="302.294922" xlink:href="#DejaVuSans-74"/>
     <use x="341.503906" xlink:href="#DejaVuSans-61"/>
     <use x="402.783203" xlink:href="#DejaVuSans-6e"/>
     <use x="466.162109" xlink:href="#DejaVuSans-63"/>
     <use x="521.142578" xlink:href="#DejaVuSans-65"/>
     <use x="582.666016" xlink:href="#DejaVuSans-73"/>
    </g>
   </g>
   <g id="text_17">
    <!-- v0.0.0 -->
    <g style="fill:#808080;" transform="translate(178.96275 290.099912)scale(0.1 -0.1)">
     <use xlink:href="#DejaVuSans-76"/>
     <use x="59.179688" xlink:href="#DejaVuSans-30"/>
     <use x="122.802734" xlink:href="#DejaVuSans-2e"/>
     <use x="154.589844" xlink:href="#DejaVuSans-30"/>
     <use x="218.212891" xlink:href="#DejaVuSans-2e"/>
     <use x="250" xlink:href="#DejaVuSans-30"/>
    </g>
   </g>
   <g id="text_18">
    <!-- 21 Gallagher 101 peaks -->
    <defs>
     <path d="M 59.515625 10.40625 
L 59.515625 29.984375 
L 43.40625 29.984375 
L 43.40625 38.09375 
L 69.28125 38.09375 
L 69.28125 6.78125 
Q 63.578125 2.734375 56.6875 0.65625 
Q 49.8125 -1.421875 42 -1.421875 
Q 24.90625 -1.421875 15.25 8.5625 
Q 5.609375 18.5625 5.609375 36.375 
Q 5.609375 54.25 15.25 64.234375 
Q 24.90625 74.21875 42 74.21875 
Q 49.125 74.21875 55.546875 72.453125 
Q 61.96875 70.703125 67.390625 67.28125 
L 67.390625 56.78125 
Q 61.921875 61.421875 55.765625 63.765625 
Q 49.609375 66.109375 42.828125 66.109375 
Q 29.4375 66.109375 22.71875 58.640625 
Q 16.015625 51.171875 16.015625 36.375 
Q 16.015625 21.625 22.71875 14.15625 
Q 29.4375 6.6875 42.828125 6.6875 
Q 48.046875 6.6875 52.140625 7.59375 
Q 56.25 8.5 59.515625 10.40625 
z
" id="DejaVuSans-47"/>
     <path d="M 54.890625 33.015625 
L 54.890625 0 
L 45.90625 0 
L 45.90625 32.71875 
Q 45.90625 40.484375 42.875 44.328125 
Q 39.84375 48.1875 33.796875 48.1875 
Q 26.515625 48.1875 22.3125 43.546875 
Q 18.109375 38.921875 18.109375 30.90625 
L 18.109375 0 
L 9.078125 0 
L 9.078125 75.984375 
L 18.109375 75.984375 
L 18.109375 46.1875 
Q 21.34375 51.125 25.703125 53.5625 
Q 30.078125 56 35.796875 56 
Q 45.21875 56 50.046875 50.171875 
Q 54.890625 44.34375 54.890625 33.015625 
z
" id="DejaVuSans-68"/>
     <path d="M 9.078125 75.984375 
L 18.109375 75.984375 
L 18.109375 31.109375 
L 44.921875 54.6875 
L 56.390625 54.6875 
L 27.390625 29.109375 
L 57.625 0 
L 45.90625 0 
L 18.109375 26.703125 
L 18.109375 0 
L 9.078125 0 
z
" id="DejaVuSans-6b"/>
    </defs>
    <g transform="translate(75.1565 18.84)scale(0.2 -0.2)">
     <use xlink:href="#DejaVuSans-32"/>
     <use x="63.623047" xlink:href="#DejaVuSans-31"/>
     <use x="127.246094" xlink:href="#DejaVuSans-20"/>
     <use x="159.033203" xlink:href="#DejaVuSans-47"/>
     <use x="236.523438" xlink:href="#DejaVuSans-61"/>
     <use x="297.802734" xlink:href="#DejaVuSans-6c"/>
     <use x="325.585938" xlink:href="#DejaVuSans-6c"/>
     <use x="353.369141" xlink:href="#DejaVuSans-61"/>
     <use x="414.648438" xlink:href="#DejaVuSans-67"/>
     <use x="478.125" xlink:href="#DejaVuSans-68"/>
     <use x="541.503906" xlink:href="#DejaVuSans-65"/>
     <use x="603.027344" xlink:href="#DejaVuSans-72"/>
     <use x="644.140625" xlink:href="#DejaVuSans-20"/>
     <use x="675.927734" xlink:href="#DejaVuSans-31"/>
     <use x="739.550781" xlink:href="#DejaVuSans-30"/>
     <use x="803.173828" xlink:href="#DejaVuSans-31"/>
     <use x="866.796875" xlink:href="#DejaVuSans-20"/>
     <use x="898.583984" xlink:href="#DejaVuSans-70"/>
     <use x="962.060547" xlink:href="#DejaVuSans-65"/>
     <use x="1023.583984" xlink:href="#DejaVuSans-61"/>
     <use x="1084.863281" xlink:href="#DejaVuSans-6b"/>
     <use x="1142.773438" xlink:href="#DejaVuSans-73"/>
    </g>
   </g>
  </g>
 </g>
 <defs>
  <clipPath id="pf5834dd8a6">
   <rect height="270.04" width="277.048" x="56.12" y="24.84"/>
  </clipPath>
 </defs>
</svg>
