<?xml version="1.0" encoding="utf-8" standalone="no"?>
<!DOCTYPE svg PUBLIC "-//W3C//DTD SVG 1.1//EN"
  "http://www.w3.org/Graphics/SVG/1.1/DTD/svg11.dtd">
<!-- Created with matplotlib (http://matplotlib.org/) -->
<svg height="345pt" version="1.1" viewBox="0 0 460 345" width="460pt" xmlns="http://www.w3.org/2000/svg" xmlns:xlink="http://www.w3.org/1999/xlink">
 <defs>
  <style type="text/css">
*{stroke-linecap:butt;stroke-linejoin:round;}
  </style>
 </defs>
 <g id="figure_1">
  <g id="patch_1">
   <path d="M 0 345.6 
L 460.8 345.6 
L 460.8 0 
L 0 0 
z
" style="fill:#ffffff;"/>
  </g>
  <g id="axes_1">
   <g id="patch_2">
    <path d="M 56.12 294.88 
L 333.168 294.88 
L 333.168 24.84 
L 56.12 24.84 
z
" style="fill:#ffffff;"/>
   </g>
   <g id="line2d_1">
    <path d="M 96.807615 294.88 
L 96.807615 289.637523 
L 97.849669 289.637523 
L 97.849669 279.152568 
L 99.761485 279.152568 
L 99.761485 263.425137 
L 100.207968 263.425137 
L 100.207968 258.18266 
L 100.643147 258.18266 
L 100.643147 247.697705 
L 101.067579 247.697705 
L 101.067579 242.455228 
L 101.481783 242.455228 
L 101.481783 237.212751 
L 101.88624 237.212751 
L 101.88624 205.757888 
L 102.281398 205.757888 
L 102.281398 169.060547 
L 102.667676 169.060547 
L 102.667676 148.090639 
L 103.045463 148.090639 
L 103.045463 121.878253 
L 103.415125 121.878253 
L 103.415125 79.938435 
L 103.777005 79.938435 
L 103.777005 43.241095 
L 104.131422 43.241095 
L 104.131422 27.513663 
L 333.168 27.513663 
" style="fill:none;stroke:#f5deb3;stroke-linecap:square;stroke-width:4;"/>
   </g>
   <g id="line2d_2">
    <defs>
     <path d="M -0 7.778175 
L 7.778175 0 
L 0 -7.778175 
L -7.778175 -0 
z
" id="m0f1bc7231b" style="stroke:#f5deb3;stroke-linejoin:miter;stroke-width:1.5;"/>
    </defs>
    <g>
     <use style="fill:#f5deb3;stroke:#f5deb3;stroke-linejoin:miter;stroke-width:1.5;" x="103.415125" xlink:href="#m0f1bc7231b" y="79.938435"/>
     <use style="fill:#f5deb3;stroke:#f5deb3;stroke-linejoin:miter;stroke-width:1.5;" x="104.131422" xlink:href="#m0f1bc7231b" y="43.241095"/>
     <use style="fill:#f5deb3;stroke:#f5deb3;stroke-linejoin:miter;stroke-width:1.5;" x="104.131422" xlink:href="#m0f1bc7231b" y="27.513663"/>
     <use style="fill:#f5deb3;stroke:#f5deb3;stroke-linejoin:miter;stroke-width:1.5;" x="104.131422" xlink:href="#m0f1bc7231b" y="27.513663"/>
     <use style="fill:#f5deb3;stroke:#f5deb3;stroke-linejoin:miter;stroke-width:1.5;" x="333.168" xlink:href="#m0f1bc7231b" y="27.513663"/>
    </g>
   </g>
   <g id="line2d_3">
    <path style="fill:none;stroke:#f5deb3;stroke-linecap:square;stroke-width:4;"/>
    <g/>
   </g>
   <g id="line2d_4">
    <path d="M 333.168 27.513663 
L 363.64328 32.86099 
" style="fill:none;stroke:#f5deb3;stroke-linecap:square;stroke-width:4;"/>
    <g>
     <use style="fill:#f5deb3;stroke:#f5deb3;stroke-linejoin:miter;stroke-width:1.5;" x="333.168" xlink:href="#m0f1bc7231b" y="27.513663"/>
     <use style="fill:#f5deb3;stroke:#f5deb3;stroke-linejoin:miter;stroke-width:1.5;" x="363.64328" xlink:href="#m0f1bc7231b" y="32.86099"/>
    </g>
   </g>
   <g id="matplotlib.axis_1">
    <g id="xtick_1">
     <g id="line2d_5">
      <path clip-path="url(#p501bd840c5)" d="M 56.12 294.88 
L 56.12 24.84 
" style="fill:none;stroke:#b0b0b0;stroke-linecap:square;stroke-width:0.8;"/>
     </g>
     <g id="line2d_6">
      <defs>
       <path d="M 0 0 
L 0 3.5 
" id="ma354cc65ae" style="stroke:#000000;stroke-width:0.8;"/>
      </defs>
      <g>
       <use style="stroke:#000000;stroke-width:0.8;" x="56.12" xlink:href="#ma354cc65ae" y="294.88"/>
      </g>
     </g>
     <g id="text_1">
      <!-- 0 -->
      <defs>
       <path d="M 31.78125 66.40625 
Q 24.171875 66.40625 20.328125 58.90625 
Q 16.5 51.421875 16.5 36.375 
Q 16.5 21.390625 20.328125 13.890625 
Q 24.171875 6.390625 31.78125 6.390625 
Q 39.453125 6.390625 43.28125 13.890625 
Q 47.125 21.390625 47.125 36.375 
Q 47.125 51.421875 43.28125 58.90625 
Q 39.453125 66.40625 31.78125 66.40625 
z
M 31.78125 74.21875 
Q 44.046875 74.21875 50.515625 64.515625 
Q 56.984375 54.828125 56.984375 36.375 
Q 56.984375 17.96875 50.515625 8.265625 
Q 44.046875 -1.421875 31.78125 -1.421875 
Q 19.53125 -1.421875 13.0625 8.265625 
Q 6.59375 17.96875 6.59375 36.375 
Q 6.59375 54.828125 13.0625 64.515625 
Q 19.53125 74.21875 31.78125 74.21875 
z
" id="DejaVuSans-30"/>
      </defs>
      <g transform="translate(49.7575 317.076875)scale(0.2 -0.2)">
       <use xlink:href="#DejaVuSans-30"/>
      </g>
     </g>
    </g>
    <g id="xtick_2">
     <g id="line2d_7">
      <path clip-path="url(#p501bd840c5)" d="M 135.276571 294.88 
L 135.276571 24.84 
" style="fill:none;stroke:#b0b0b0;stroke-linecap:square;stroke-width:0.8;"/>
     </g>
     <g id="line2d_8">
      <g>
       <use style="stroke:#000000;stroke-width:0.8;" x="135.276571" xlink:href="#ma354cc65ae" y="294.88"/>
      </g>
     </g>
     <g id="text_2">
      <!-- 2 -->
      <defs>
       <path d="M 19.1875 8.296875 
L 53.609375 8.296875 
L 53.609375 0 
L 7.328125 0 
L 7.328125 8.296875 
Q 12.9375 14.109375 22.625 23.890625 
Q 32.328125 33.6875 34.8125 36.53125 
Q 39.546875 41.84375 41.421875 45.53125 
Q 43.3125 49.21875 43.3125 52.78125 
Q 43.3125 58.59375 39.234375 62.25 
Q 35.15625 65.921875 28.609375 65.921875 
Q 23.96875 65.921875 18.8125 64.3125 
Q 13.671875 62.703125 7.8125 59.421875 
L 7.8125 69.390625 
Q 13.765625 71.78125 18.9375 73 
Q 24.125 74.21875 28.421875 74.21875 
Q 39.75 74.21875 46.484375 68.546875 
Q 53.21875 62.890625 53.21875 53.421875 
Q 53.21875 48.921875 51.53125 44.890625 
Q 49.859375 40.875 45.40625 35.40625 
Q 44.1875 33.984375 37.640625 27.21875 
Q 31.109375 20.453125 19.1875 8.296875 
z
" id="DejaVuSans-32"/>
      </defs>
      <g transform="translate(128.914071 317.076875)scale(0.2 -0.2)">
       <use xlink:href="#DejaVuSans-32"/>
      </g>
     </g>
    </g>
    <g id="xtick_3">
     <g id="line2d_9">
      <path clip-path="url(#p501bd840c5)" d="M 214.433143 294.88 
L 214.433143 24.84 
" style="fill:none;stroke:#b0b0b0;stroke-linecap:square;stroke-width:0.8;"/>
     </g>
     <g id="line2d_10">
      <g>
       <use style="stroke:#000000;stroke-width:0.8;" x="214.433143" xlink:href="#ma354cc65ae" y="294.88"/>
      </g>
     </g>
     <g id="text_3">
      <!-- 4 -->
      <defs>
       <path d="M 37.796875 64.3125 
L 12.890625 25.390625 
L 37.796875 25.390625 
z
M 35.203125 72.90625 
L 47.609375 72.90625 
L 47.609375 25.390625 
L 58.015625 25.390625 
L 58.015625 17.1875 
L 47.609375 17.1875 
L 47.609375 0 
L 37.796875 0 
L 37.796875 17.1875 
L 4.890625 17.1875 
L 4.890625 26.703125 
z
" id="DejaVuSans-34"/>
      </defs>
      <g transform="translate(208.070643 317.076875)scale(0.2 -0.2)">
       <use xlink:href="#DejaVuSans-34"/>
      </g>
     </g>
    </g>
    <g id="xtick_4">
     <g id="line2d_11">
      <path clip-path="url(#p501bd840c5)" d="M 293.589714 294.88 
L 293.589714 24.84 
" style="fill:none;stroke:#b0b0b0;stroke-linecap:square;stroke-width:0.8;"/>
     </g>
     <g id="line2d_12">
      <g>
       <use style="stroke:#000000;stroke-width:0.8;" x="293.589714" xlink:href="#ma354cc65ae" y="294.88"/>
      </g>
     </g>
     <g id="text_4">
      <!-- 6 -->
      <defs>
       <path d="M 33.015625 40.375 
Q 26.375 40.375 22.484375 35.828125 
Q 18.609375 31.296875 18.609375 23.390625 
Q 18.609375 15.53125 22.484375 10.953125 
Q 26.375 6.390625 33.015625 6.390625 
Q 39.65625 6.390625 43.53125 10.953125 
Q 47.40625 15.53125 47.40625 23.390625 
Q 47.40625 31.296875 43.53125 35.828125 
Q 39.65625 40.375 33.015625 40.375 
z
M 52.59375 71.296875 
L 52.59375 62.3125 
Q 48.875 64.0625 45.09375 64.984375 
Q 41.3125 65.921875 37.59375 65.921875 
Q 27.828125 65.921875 22.671875 59.328125 
Q 17.53125 52.734375 16.796875 39.40625 
Q 19.671875 43.65625 24.015625 45.921875 
Q 28.375 48.1875 33.59375 48.1875 
Q 44.578125 48.1875 50.953125 41.515625 
Q 57.328125 34.859375 57.328125 23.390625 
Q 57.328125 12.15625 50.6875 5.359375 
Q 44.046875 -1.421875 33.015625 -1.421875 
Q 20.359375 -1.421875 13.671875 8.265625 
Q 6.984375 17.96875 6.984375 36.375 
Q 6.984375 53.65625 15.1875 63.9375 
Q 23.390625 74.21875 37.203125 74.21875 
Q 40.921875 74.21875 44.703125 73.484375 
Q 48.484375 72.75 52.59375 71.296875 
z
" id="DejaVuSans-36"/>
      </defs>
      <g transform="translate(287.227214 317.076875)scale(0.2 -0.2)">
       <use xlink:href="#DejaVuSans-36"/>
      </g>
     </g>
    </g>
    <g id="xtick_5">
     <g id="line2d_13">
      <path clip-path="url(#p501bd840c5)" d="M 56.12 294.88 
L 56.12 24.84 
" style="fill:none;stroke:#b0b0b0;stroke-linecap:square;stroke-width:0.8;"/>
     </g>
     <g id="line2d_14">
      <defs>
       <path d="M 0 0 
L 0 2 
" id="m3a0a02db33" style="stroke:#000000;stroke-width:0.6;"/>
      </defs>
      <g>
       <use style="stroke:#000000;stroke-width:0.6;" x="56.12" xlink:href="#m3a0a02db33" y="294.88"/>
      </g>
     </g>
    </g>
    <g id="xtick_6">
     <g id="line2d_15">
      <path clip-path="url(#p501bd840c5)" d="M 95.698286 294.88 
L 95.698286 24.84 
" style="fill:none;stroke:#b0b0b0;stroke-linecap:square;stroke-width:0.8;"/>
     </g>
     <g id="line2d_16">
      <g>
       <use style="stroke:#000000;stroke-width:0.6;" x="95.698286" xlink:href="#m3a0a02db33" y="294.88"/>
      </g>
     </g>
    </g>
    <g id="xtick_7">
     <g id="line2d_17">
      <path clip-path="url(#p501bd840c5)" d="M 135.276571 294.88 
L 135.276571 24.84 
" style="fill:none;stroke:#b0b0b0;stroke-linecap:square;stroke-width:0.8;"/>
     </g>
     <g id="line2d_18">
      <g>
       <use style="stroke:#000000;stroke-width:0.6;" x="135.276571" xlink:href="#m3a0a02db33" y="294.88"/>
      </g>
     </g>
    </g>
    <g id="xtick_8">
     <g id="line2d_19">
      <path clip-path="url(#p501bd840c5)" d="M 174.854857 294.88 
L 174.854857 24.84 
" style="fill:none;stroke:#b0b0b0;stroke-linecap:square;stroke-width:0.8;"/>
     </g>
     <g id="line2d_20">
      <g>
       <use style="stroke:#000000;stroke-width:0.6;" x="174.854857" xlink:href="#m3a0a02db33" y="294.88"/>
      </g>
     </g>
    </g>
    <g id="xtick_9">
     <g id="line2d_21">
      <path clip-path="url(#p501bd840c5)" d="M 214.433143 294.88 
L 214.433143 24.84 
" style="fill:none;stroke:#b0b0b0;stroke-linecap:square;stroke-width:0.8;"/>
     </g>
     <g id="line2d_22">
      <g>
       <use style="stroke:#000000;stroke-width:0.6;" x="214.433143" xlink:href="#m3a0a02db33" y="294.88"/>
      </g>
     </g>
    </g>
    <g id="xtick_10">
     <g id="line2d_23">
      <path clip-path="url(#p501bd840c5)" d="M 254.011429 294.88 
L 254.011429 24.84 
" style="fill:none;stroke:#b0b0b0;stroke-linecap:square;stroke-width:0.8;"/>
     </g>
     <g id="line2d_24">
      <g>
       <use style="stroke:#000000;stroke-width:0.6;" x="254.011429" xlink:href="#m3a0a02db33" y="294.88"/>
      </g>
     </g>
    </g>
    <g id="xtick_11">
     <g id="line2d_25">
      <path clip-path="url(#p501bd840c5)" d="M 293.589714 294.88 
L 293.589714 24.84 
" style="fill:none;stroke:#b0b0b0;stroke-linecap:square;stroke-width:0.8;"/>
     </g>
     <g id="line2d_26">
      <g>
       <use style="stroke:#000000;stroke-width:0.6;" x="293.589714" xlink:href="#m3a0a02db33" y="294.88"/>
      </g>
     </g>
    </g>
    <g id="xtick_12">
     <g id="line2d_27">
      <path clip-path="url(#p501bd840c5)" d="M 333.168 294.88 
L 333.168 24.84 
" style="fill:none;stroke:#b0b0b0;stroke-linecap:square;stroke-width:0.8;"/>
     </g>
     <g id="line2d_28">
      <g>
       <use style="stroke:#000000;stroke-width:0.6;" x="333.168" xlink:href="#m3a0a02db33" y="294.88"/>
      </g>
     </g>
    </g>
    <g id="text_5">
     <!-- log10(# f-evals / dimension) -->
     <defs>
      <path d="M 9.421875 75.984375 
L 18.40625 75.984375 
L 18.40625 0 
L 9.421875 0 
z
" id="DejaVuSans-6c"/>
      <path d="M 30.609375 48.390625 
Q 23.390625 48.390625 19.1875 42.75 
Q 14.984375 37.109375 14.984375 27.296875 
Q 14.984375 17.484375 19.15625 11.84375 
Q 23.34375 6.203125 30.609375 6.203125 
Q 37.796875 6.203125 41.984375 11.859375 
Q 46.1875 17.53125 46.1875 27.296875 
Q 46.1875 37.015625 41.984375 42.703125 
Q 37.796875 48.390625 30.609375 48.390625 
z
M 30.609375 56 
Q 42.328125 56 49.015625 48.375 
Q 55.71875 40.765625 55.71875 27.296875 
Q 55.71875 13.875 49.015625 6.21875 
Q 42.328125 -1.421875 30.609375 -1.421875 
Q 18.84375 -1.421875 12.171875 6.21875 
Q 5.515625 13.875 5.515625 27.296875 
Q 5.515625 40.765625 12.171875 48.375 
Q 18.84375 56 30.609375 56 
z
" id="DejaVuSans-6f"/>
      <path d="M 45.40625 27.984375 
Q 45.40625 37.75 41.375 43.109375 
Q 37.359375 48.484375 30.078125 48.484375 
Q 22.859375 48.484375 18.828125 43.109375 
Q 14.796875 37.75 14.796875 27.984375 
Q 14.796875 18.265625 18.828125 12.890625 
Q 22.859375 7.515625 30.078125 7.515625 
Q 37.359375 7.515625 41.375 12.890625 
Q 45.40625 18.265625 45.40625 27.984375 
z
M 54.390625 6.78125 
Q 54.390625 -7.171875 48.1875 -13.984375 
Q 42 -20.796875 29.203125 -20.796875 
Q 24.46875 -20.796875 20.265625 -20.09375 
Q 16.0625 -19.390625 12.109375 -17.921875 
L 12.109375 -9.1875 
Q 16.0625 -11.328125 19.921875 -12.34375 
Q 23.78125 -13.375 27.78125 -13.375 
Q 36.625 -13.375 41.015625 -8.765625 
Q 45.40625 -4.15625 45.40625 5.171875 
L 45.40625 9.625 
Q 42.625 4.78125 38.28125 2.390625 
Q 33.9375 0 27.875 0 
Q 17.828125 0 11.671875 7.65625 
Q 5.515625 15.328125 5.515625 27.984375 
Q 5.515625 40.671875 11.671875 48.328125 
Q 17.828125 56 27.875 56 
Q 33.9375 56 38.28125 53.609375 
Q 42.625 51.21875 45.40625 46.390625 
L 45.40625 54.6875 
L 54.390625 54.6875 
z
" id="DejaVuSans-67"/>
      <path d="M 12.40625 8.296875 
L 28.515625 8.296875 
L 28.515625 63.921875 
L 10.984375 60.40625 
L 10.984375 69.390625 
L 28.421875 72.90625 
L 38.28125 72.90625 
L 38.28125 8.296875 
L 54.390625 8.296875 
L 54.390625 0 
L 12.40625 0 
z
" id="DejaVuSans-31"/>
      <path d="M 31 75.875 
Q 24.46875 64.65625 21.28125 53.65625 
Q 18.109375 42.671875 18.109375 31.390625 
Q 18.109375 20.125 21.3125 9.0625 
Q 24.515625 -2 31 -13.1875 
L 23.1875 -13.1875 
Q 15.875 -1.703125 12.234375 9.375 
Q 8.59375 20.453125 8.59375 31.390625 
Q 8.59375 42.28125 12.203125 53.3125 
Q 15.828125 64.359375 23.1875 75.875 
z
" id="DejaVuSans-28"/>
      <path d="M 51.125 44 
L 36.921875 44 
L 32.8125 27.6875 
L 47.125 27.6875 
z
M 43.796875 71.78125 
L 38.71875 51.515625 
L 52.984375 51.515625 
L 58.109375 71.78125 
L 65.921875 71.78125 
L 60.890625 51.515625 
L 76.125 51.515625 
L 76.125 44 
L 58.984375 44 
L 54.984375 27.6875 
L 70.515625 27.6875 
L 70.515625 20.21875 
L 53.078125 20.21875 
L 48 0 
L 40.1875 0 
L 45.21875 20.21875 
L 30.90625 20.21875 
L 25.875 0 
L 18.015625 0 
L 23.09375 20.21875 
L 7.71875 20.21875 
L 7.71875 27.6875 
L 24.90625 27.6875 
L 29 44 
L 13.28125 44 
L 13.28125 51.515625 
L 30.90625 51.515625 
L 35.890625 71.78125 
z
" id="DejaVuSans-23"/>
      <path id="DejaVuSans-20"/>
      <path d="M 37.109375 75.984375 
L 37.109375 68.5 
L 28.515625 68.5 
Q 23.6875 68.5 21.796875 66.546875 
Q 19.921875 64.59375 19.921875 59.515625 
L 19.921875 54.6875 
L 34.71875 54.6875 
L 34.71875 47.703125 
L 19.921875 47.703125 
L 19.921875 0 
L 10.890625 0 
L 10.890625 47.703125 
L 2.296875 47.703125 
L 2.296875 54.6875 
L 10.890625 54.6875 
L 10.890625 58.5 
Q 10.890625 67.625 15.140625 71.796875 
Q 19.390625 75.984375 28.609375 75.984375 
z
" id="DejaVuSans-66"/>
      <path d="M 4.890625 31.390625 
L 31.203125 31.390625 
L 31.203125 23.390625 
L 4.890625 23.390625 
z
" id="DejaVuSans-2d"/>
      <path d="M 56.203125 29.59375 
L 56.203125 25.203125 
L 14.890625 25.203125 
Q 15.484375 15.921875 20.484375 11.0625 
Q 25.484375 6.203125 34.421875 6.203125 
Q 39.59375 6.203125 44.453125 7.46875 
Q 49.3125 8.734375 54.109375 11.28125 
L 54.109375 2.78125 
Q 49.265625 0.734375 44.1875 -0.34375 
Q 39.109375 -1.421875 33.890625 -1.421875 
Q 20.796875 -1.421875 13.15625 6.1875 
Q 5.515625 13.8125 5.515625 26.8125 
Q 5.515625 40.234375 12.765625 48.109375 
Q 20.015625 56 32.328125 56 
Q 43.359375 56 49.78125 48.890625 
Q 56.203125 41.796875 56.203125 29.59375 
z
M 47.21875 32.234375 
Q 47.125 39.59375 43.09375 43.984375 
Q 39.0625 48.390625 32.421875 48.390625 
Q 24.90625 48.390625 20.390625 44.140625 
Q 15.875 39.890625 15.1875 32.171875 
z
" id="DejaVuSans-65"/>
      <path d="M 2.984375 54.6875 
L 12.5 54.6875 
L 29.59375 8.796875 
L 46.6875 54.6875 
L 56.203125 54.6875 
L 35.6875 0 
L 23.484375 0 
z
" id="DejaVuSans-76"/>
      <path d="M 34.28125 27.484375 
Q 23.390625 27.484375 19.1875 25 
Q 14.984375 22.515625 14.984375 16.5 
Q 14.984375 11.71875 18.140625 8.90625 
Q 21.296875 6.109375 26.703125 6.109375 
Q 34.1875 6.109375 38.703125 11.40625 
Q 43.21875 16.703125 43.21875 25.484375 
L 43.21875 27.484375 
z
M 52.203125 31.203125 
L 52.203125 0 
L 43.21875 0 
L 43.21875 8.296875 
Q 40.140625 3.328125 35.546875 0.953125 
Q 30.953125 -1.421875 24.3125 -1.421875 
Q 15.921875 -1.421875 10.953125 3.296875 
Q 6 8.015625 6 15.921875 
Q 6 25.140625 12.171875 29.828125 
Q 18.359375 34.515625 30.609375 34.515625 
L 43.21875 34.515625 
L 43.21875 35.40625 
Q 43.21875 41.609375 39.140625 45 
Q 35.0625 48.390625 27.6875 48.390625 
Q 23 48.390625 18.546875 47.265625 
Q 14.109375 46.140625 10.015625 43.890625 
L 10.015625 52.203125 
Q 14.9375 54.109375 19.578125 55.046875 
Q 24.21875 56 28.609375 56 
Q 40.484375 56 46.34375 49.84375 
Q 52.203125 43.703125 52.203125 31.203125 
z
" id="DejaVuSans-61"/>
      <path d="M 44.28125 53.078125 
L 44.28125 44.578125 
Q 40.484375 46.53125 36.375 47.5 
Q 32.28125 48.484375 27.875 48.484375 
Q 21.1875 48.484375 17.84375 46.4375 
Q 14.5 44.390625 14.5 40.28125 
Q 14.5 37.15625 16.890625 35.375 
Q 19.28125 33.59375 26.515625 31.984375 
L 29.59375 31.296875 
Q 39.15625 29.25 43.1875 25.515625 
Q 47.21875 21.78125 47.21875 15.09375 
Q 47.21875 7.46875 41.1875 3.015625 
Q 35.15625 -1.421875 24.609375 -1.421875 
Q 20.21875 -1.421875 15.453125 -0.5625 
Q 10.6875 0.296875 5.421875 2 
L 5.421875 11.28125 
Q 10.40625 8.6875 15.234375 7.390625 
Q 20.0625 6.109375 24.8125 6.109375 
Q 31.15625 6.109375 34.5625 8.28125 
Q 37.984375 10.453125 37.984375 14.40625 
Q 37.984375 18.0625 35.515625 20.015625 
Q 33.0625 21.96875 24.703125 23.78125 
L 21.578125 24.515625 
Q 13.234375 26.265625 9.515625 29.90625 
Q 5.8125 33.546875 5.8125 39.890625 
Q 5.8125 47.609375 11.28125 51.796875 
Q 16.75 56 26.8125 56 
Q 31.78125 56 36.171875 55.265625 
Q 40.578125 54.546875 44.28125 53.078125 
z
" id="DejaVuSans-73"/>
      <path d="M 25.390625 72.90625 
L 33.6875 72.90625 
L 8.296875 -9.28125 
L 0 -9.28125 
z
" id="DejaVuSans-2f"/>
      <path d="M 45.40625 46.390625 
L 45.40625 75.984375 
L 54.390625 75.984375 
L 54.390625 0 
L 45.40625 0 
L 45.40625 8.203125 
Q 42.578125 3.328125 38.25 0.953125 
Q 33.9375 -1.421875 27.875 -1.421875 
Q 17.96875 -1.421875 11.734375 6.484375 
Q 5.515625 14.40625 5.515625 27.296875 
Q 5.515625 40.1875 11.734375 48.09375 
Q 17.96875 56 27.875 56 
Q 33.9375 56 38.25 53.625 
Q 42.578125 51.265625 45.40625 46.390625 
z
M 14.796875 27.296875 
Q 14.796875 17.390625 18.875 11.75 
Q 22.953125 6.109375 30.078125 6.109375 
Q 37.203125 6.109375 41.296875 11.75 
Q 45.40625 17.390625 45.40625 27.296875 
Q 45.40625 37.203125 41.296875 42.84375 
Q 37.203125 48.484375 30.078125 48.484375 
Q 22.953125 48.484375 18.875 42.84375 
Q 14.796875 37.203125 14.796875 27.296875 
z
" id="DejaVuSans-64"/>
      <path d="M 9.421875 54.6875 
L 18.40625 54.6875 
L 18.40625 0 
L 9.421875 0 
z
M 9.421875 75.984375 
L 18.40625 75.984375 
L 18.40625 64.59375 
L 9.421875 64.59375 
z
" id="DejaVuSans-69"/>
      <path d="M 52 44.1875 
Q 55.375 50.25 60.0625 53.125 
Q 64.75 56 71.09375 56 
Q 79.640625 56 84.28125 50.015625 
Q 88.921875 44.046875 88.921875 33.015625 
L 88.921875 0 
L 79.890625 0 
L 79.890625 32.71875 
Q 79.890625 40.578125 77.09375 44.375 
Q 74.3125 48.1875 68.609375 48.1875 
Q 61.625 48.1875 57.5625 43.546875 
Q 53.515625 38.921875 53.515625 30.90625 
L 53.515625 0 
L 44.484375 0 
L 44.484375 32.71875 
Q 44.484375 40.625 41.703125 44.40625 
Q 38.921875 48.1875 33.109375 48.1875 
Q 26.21875 48.1875 22.15625 43.53125 
Q 18.109375 38.875 18.109375 30.90625 
L 18.109375 0 
L 9.078125 0 
L 9.078125 54.6875 
L 18.109375 54.6875 
L 18.109375 46.1875 
Q 21.1875 51.21875 25.484375 53.609375 
Q 29.78125 56 35.6875 56 
Q 41.65625 56 45.828125 52.96875 
Q 50 49.953125 52 44.1875 
z
" id="DejaVuSans-6d"/>
      <path d="M 54.890625 33.015625 
L 54.890625 0 
L 45.90625 0 
L 45.90625 32.71875 
Q 45.90625 40.484375 42.875 44.328125 
Q 39.84375 48.1875 33.796875 48.1875 
Q 26.515625 48.1875 22.3125 43.546875 
Q 18.109375 38.921875 18.109375 30.90625 
L 18.109375 0 
L 9.078125 0 
L 9.078125 54.6875 
L 18.109375 54.6875 
L 18.109375 46.1875 
Q 21.34375 51.125 25.703125 53.5625 
Q 30.078125 56 35.796875 56 
Q 45.21875 56 50.046875 50.171875 
Q 54.890625 44.34375 54.890625 33.015625 
z
" id="DejaVuSans-6e"/>
      <path d="M 8.015625 75.875 
L 15.828125 75.875 
Q 23.140625 64.359375 26.78125 53.3125 
Q 30.421875 42.28125 30.421875 31.390625 
Q 30.421875 20.453125 26.78125 9.375 
Q 23.140625 -1.703125 15.828125 -13.1875 
L 8.015625 -13.1875 
Q 14.5 -2 17.703125 9.0625 
Q 20.90625 20.125 20.90625 31.390625 
Q 20.90625 42.671875 17.703125 53.65625 
Q 14.5 64.65625 8.015625 75.875 
z
" id="DejaVuSans-29"/>
     </defs>
     <g transform="translate(73.803219 338.153594)scale(0.17 -0.17)">
      <use xlink:href="#DejaVuSans-6c"/>
      <use x="27.783203" xlink:href="#DejaVuSans-6f"/>
      <use x="88.964844" xlink:href="#DejaVuSans-67"/>
      <use x="152.441406" xlink:href="#DejaVuSans-31"/>
      <use x="216.064453" xlink:href="#DejaVuSans-30"/>
      <use x="279.6875" xlink:href="#DejaVuSans-28"/>
      <use x="318.701172" xlink:href="#DejaVuSans-23"/>
      <use x="402.490234" xlink:href="#DejaVuSans-20"/>
      <use x="434.277344" xlink:href="#DejaVuSans-66"/>
      <use x="469.404297" xlink:href="#DejaVuSans-2d"/>
      <use x="505.488281" xlink:href="#DejaVuSans-65"/>
      <use x="567.011719" xlink:href="#DejaVuSans-76"/>
      <use x="626.191406" xlink:href="#DejaVuSans-61"/>
      <use x="687.470703" xlink:href="#DejaVuSans-6c"/>
      <use x="715.253906" xlink:href="#DejaVuSans-73"/>
      <use x="767.353516" xlink:href="#DejaVuSans-20"/>
      <use x="799.140625" xlink:href="#DejaVuSans-2f"/>
      <use x="832.832031" xlink:href="#DejaVuSans-20"/>
      <use x="864.619141" xlink:href="#DejaVuSans-64"/>
      <use x="928.095703" xlink:href="#DejaVuSans-69"/>
      <use x="955.878906" xlink:href="#DejaVuSans-6d"/>
      <use x="1053.291016" xlink:href="#DejaVuSans-65"/>
      <use x="1114.814453" xlink:href="#DejaVuSans-6e"/>
      <use x="1178.193359" xlink:href="#DejaVuSans-73"/>
      <use x="1230.292969" xlink:href="#DejaVuSans-69"/>
      <use x="1258.076172" xlink:href="#DejaVuSans-6f"/>
      <use x="1319.257812" xlink:href="#DejaVuSans-6e"/>
      <use x="1382.636719" xlink:href="#DejaVuSans-29"/>
     </g>
    </g>
   </g>
   <g id="matplotlib.axis_2">
    <g id="ytick_1">
     <g id="line2d_29">
      <path clip-path="url(#p501bd840c5)" d="M 56.12 294.88 
L 333.168 294.88 
" style="fill:none;stroke:#b0b0b0;stroke-linecap:square;stroke-width:0.8;"/>
     </g>
     <g id="line2d_30">
      <defs>
       <path d="M 0 0 
L -3.5 0 
" id="m3f8bd04867" style="stroke:#000000;stroke-width:0.8;"/>
      </defs>
      <g>
       <use style="stroke:#000000;stroke-width:0.8;" x="56.12" xlink:href="#m3f8bd04867" y="294.88"/>
      </g>
     </g>
     <g id="text_6">
      <!-- 0.0 -->
      <defs>
       <path d="M 10.6875 12.40625 
L 21 12.40625 
L 21 0 
L 10.6875 0 
z
" id="DejaVuSans-2e"/>
      </defs>
      <g transform="translate(23.675 300.95875)scale(0.16 -0.16)">
       <use xlink:href="#DejaVuSans-30"/>
       <use x="63.623047" xlink:href="#DejaVuSans-2e"/>
       <use x="95.410156" xlink:href="#DejaVuSans-30"/>
      </g>
     </g>
    </g>
    <g id="ytick_2">
     <g id="line2d_31">
      <path clip-path="url(#p501bd840c5)" d="M 56.12 241.406733 
L 333.168 241.406733 
" style="fill:none;stroke:#b0b0b0;stroke-linecap:square;stroke-width:0.8;"/>
     </g>
     <g id="line2d_32">
      <g>
       <use style="stroke:#000000;stroke-width:0.8;" x="56.12" xlink:href="#m3f8bd04867" y="241.406733"/>
      </g>
     </g>
     <g id="text_7">
      <!-- 0.2 -->
      <g transform="translate(23.675 247.485483)scale(0.16 -0.16)">
       <use xlink:href="#DejaVuSans-30"/>
       <use x="63.623047" xlink:href="#DejaVuSans-2e"/>
       <use x="95.410156" xlink:href="#DejaVuSans-32"/>
      </g>
     </g>
    </g>
    <g id="ytick_3">
     <g id="line2d_33">
      <path clip-path="url(#p501bd840c5)" d="M 56.12 187.933465 
L 333.168 187.933465 
" style="fill:none;stroke:#b0b0b0;stroke-linecap:square;stroke-width:0.8;"/>
     </g>
     <g id="line2d_34">
      <g>
       <use style="stroke:#000000;stroke-width:0.8;" x="56.12" xlink:href="#m3f8bd04867" y="187.933465"/>
      </g>
     </g>
     <g id="text_8">
      <!-- 0.4 -->
      <g transform="translate(23.675 194.012215)scale(0.16 -0.16)">
       <use xlink:href="#DejaVuSans-30"/>
       <use x="63.623047" xlink:href="#DejaVuSans-2e"/>
       <use x="95.410156" xlink:href="#DejaVuSans-34"/>
      </g>
     </g>
    </g>
    <g id="ytick_4">
     <g id="line2d_35">
      <path clip-path="url(#p501bd840c5)" d="M 56.12 134.460198 
L 333.168 134.460198 
" style="fill:none;stroke:#b0b0b0;stroke-linecap:square;stroke-width:0.8;"/>
     </g>
     <g id="line2d_36">
      <g>
       <use style="stroke:#000000;stroke-width:0.8;" x="56.12" xlink:href="#m3f8bd04867" y="134.460198"/>
      </g>
     </g>
     <g id="text_9">
      <!-- 0.6 -->
      <g transform="translate(23.675 140.538948)scale(0.16 -0.16)">
       <use xlink:href="#DejaVuSans-30"/>
       <use x="63.623047" xlink:href="#DejaVuSans-2e"/>
       <use x="95.410156" xlink:href="#DejaVuSans-36"/>
      </g>
     </g>
    </g>
    <g id="ytick_5">
     <g id="line2d_37">
      <path clip-path="url(#p501bd840c5)" d="M 56.12 80.986931 
L 333.168 80.986931 
" style="fill:none;stroke:#b0b0b0;stroke-linecap:square;stroke-width:0.8;"/>
     </g>
     <g id="line2d_38">
      <g>
       <use style="stroke:#000000;stroke-width:0.8;" x="56.12" xlink:href="#m3f8bd04867" y="80.986931"/>
      </g>
     </g>
     <g id="text_10">
      <!-- 0.8 -->
      <defs>
       <path d="M 31.78125 34.625 
Q 24.75 34.625 20.71875 30.859375 
Q 16.703125 27.09375 16.703125 20.515625 
Q 16.703125 13.921875 20.71875 10.15625 
Q 24.75 6.390625 31.78125 6.390625 
Q 38.8125 6.390625 42.859375 10.171875 
Q 46.921875 13.96875 46.921875 20.515625 
Q 46.921875 27.09375 42.890625 30.859375 
Q 38.875 34.625 31.78125 34.625 
z
M 21.921875 38.8125 
Q 15.578125 40.375 12.03125 44.71875 
Q 8.5 49.078125 8.5 55.328125 
Q 8.5 64.0625 14.71875 69.140625 
Q 20.953125 74.21875 31.78125 74.21875 
Q 42.671875 74.21875 48.875 69.140625 
Q 55.078125 64.0625 55.078125 55.328125 
Q 55.078125 49.078125 51.53125 44.71875 
Q 48 40.375 41.703125 38.8125 
Q 48.828125 37.15625 52.796875 32.3125 
Q 56.78125 27.484375 56.78125 20.515625 
Q 56.78125 9.90625 50.3125 4.234375 
Q 43.84375 -1.421875 31.78125 -1.421875 
Q 19.734375 -1.421875 13.25 4.234375 
Q 6.78125 9.90625 6.78125 20.515625 
Q 6.78125 27.484375 10.78125 32.3125 
Q 14.796875 37.15625 21.921875 38.8125 
z
M 18.3125 54.390625 
Q 18.3125 48.734375 21.84375 45.5625 
Q 25.390625 42.390625 31.78125 42.390625 
Q 38.140625 42.390625 41.71875 45.5625 
Q 45.3125 48.734375 45.3125 54.390625 
Q 45.3125 60.0625 41.71875 63.234375 
Q 38.140625 66.40625 31.78125 66.40625 
Q 25.390625 66.40625 21.84375 63.234375 
Q 18.3125 60.0625 18.3125 54.390625 
z
" id="DejaVuSans-38"/>
      </defs>
      <g transform="translate(23.675 87.065681)scale(0.16 -0.16)">
       <use xlink:href="#DejaVuSans-30"/>
       <use x="63.623047" xlink:href="#DejaVuSans-2e"/>
       <use x="95.410156" xlink:href="#DejaVuSans-38"/>
      </g>
     </g>
    </g>
    <g id="ytick_6">
     <g id="line2d_39">
      <path clip-path="url(#p501bd840c5)" d="M 56.12 27.513663 
L 333.168 27.513663 
" style="fill:none;stroke:#b0b0b0;stroke-linecap:square;stroke-width:0.8;"/>
     </g>
     <g id="line2d_40">
      <g>
       <use style="stroke:#000000;stroke-width:0.8;" x="56.12" xlink:href="#m3f8bd04867" y="27.513663"/>
      </g>
     </g>
     <g id="text_11">
      <!-- 1.0 -->
      <g transform="translate(23.675 33.592413)scale(0.16 -0.16)">
       <use xlink:href="#DejaVuSans-31"/>
       <use x="63.623047" xlink:href="#DejaVuSans-2e"/>
       <use x="95.410156" xlink:href="#DejaVuSans-30"/>
      </g>
     </g>
    </g>
    <g id="text_12">
     <!-- Fraction of function,target pairs -->
     <defs>
      <path d="M 9.8125 72.90625 
L 51.703125 72.90625 
L 51.703125 64.59375 
L 19.671875 64.59375 
L 19.671875 43.109375 
L 48.578125 43.109375 
L 48.578125 34.8125 
L 19.671875 34.8125 
L 19.671875 0 
L 9.8125 0 
z
" id="DejaVuSans-46"/>
      <path d="M 41.109375 46.296875 
Q 39.59375 47.171875 37.8125 47.578125 
Q 36.03125 48 33.890625 48 
Q 26.265625 48 22.1875 43.046875 
Q 18.109375 38.09375 18.109375 28.8125 
L 18.109375 0 
L 9.078125 0 
L 9.078125 54.6875 
L 18.109375 54.6875 
L 18.109375 46.1875 
Q 20.953125 51.171875 25.484375 53.578125 
Q 30.03125 56 36.53125 56 
Q 37.453125 56 38.578125 55.875 
Q 39.703125 55.765625 41.0625 55.515625 
z
" id="DejaVuSans-72"/>
      <path d="M 48.78125 52.59375 
L 48.78125 44.1875 
Q 44.96875 46.296875 41.140625 47.34375 
Q 37.3125 48.390625 33.40625 48.390625 
Q 24.65625 48.390625 19.8125 42.84375 
Q 14.984375 37.3125 14.984375 27.296875 
Q 14.984375 17.28125 19.8125 11.734375 
Q 24.65625 6.203125 33.40625 6.203125 
Q 37.3125 6.203125 41.140625 7.25 
Q 44.96875 8.296875 48.78125 10.40625 
L 48.78125 2.09375 
Q 45.015625 0.34375 40.984375 -0.53125 
Q 36.96875 -1.421875 32.421875 -1.421875 
Q 20.0625 -1.421875 12.78125 6.34375 
Q 5.515625 14.109375 5.515625 27.296875 
Q 5.515625 40.671875 12.859375 48.328125 
Q 20.21875 56 33.015625 56 
Q 37.15625 56 41.109375 55.140625 
Q 45.0625 54.296875 48.78125 52.59375 
z
" id="DejaVuSans-63"/>
      <path d="M 18.3125 70.21875 
L 18.3125 54.6875 
L 36.8125 54.6875 
L 36.8125 47.703125 
L 18.3125 47.703125 
L 18.3125 18.015625 
Q 18.3125 11.328125 20.140625 9.421875 
Q 21.96875 7.515625 27.59375 7.515625 
L 36.8125 7.515625 
L 36.8125 0 
L 27.59375 0 
Q 17.1875 0 13.234375 3.875 
Q 9.28125 7.765625 9.28125 18.015625 
L 9.28125 47.703125 
L 2.6875 47.703125 
L 2.6875 54.6875 
L 9.28125 54.6875 
L 9.28125 70.21875 
z
" id="DejaVuSans-74"/>
      <path d="M 8.5 21.578125 
L 8.5 54.6875 
L 17.484375 54.6875 
L 17.484375 21.921875 
Q 17.484375 14.15625 20.5 10.265625 
Q 23.53125 6.390625 29.59375 6.390625 
Q 36.859375 6.390625 41.078125 11.03125 
Q 45.3125 15.671875 45.3125 23.6875 
L 45.3125 54.6875 
L 54.296875 54.6875 
L 54.296875 0 
L 45.3125 0 
L 45.3125 8.40625 
Q 42.046875 3.421875 37.71875 1 
Q 33.40625 -1.421875 27.6875 -1.421875 
Q 18.265625 -1.421875 13.375 4.4375 
Q 8.5 10.296875 8.5 21.578125 
z
M 31.109375 56 
z
" id="DejaVuSans-75"/>
      <path d="M 11.71875 12.40625 
L 22.015625 12.40625 
L 22.015625 4 
L 14.015625 -11.625 
L 7.71875 -11.625 
L 11.71875 4 
z
" id="DejaVuSans-2c"/>
      <path d="M 18.109375 8.203125 
L 18.109375 -20.796875 
L 9.078125 -20.796875 
L 9.078125 54.6875 
L 18.109375 54.6875 
L 18.109375 46.390625 
Q 20.953125 51.265625 25.265625 53.625 
Q 29.59375 56 35.59375 56 
Q 45.5625 56 51.78125 48.09375 
Q 58.015625 40.1875 58.015625 27.296875 
Q 58.015625 14.40625 51.78125 6.484375 
Q 45.5625 -1.421875 35.59375 -1.421875 
Q 29.59375 -1.421875 25.265625 0.953125 
Q 20.953125 3.328125 18.109375 8.203125 
z
M 48.6875 27.296875 
Q 48.6875 37.203125 44.609375 42.84375 
Q 40.53125 48.484375 33.40625 48.484375 
Q 26.265625 48.484375 22.1875 42.84375 
Q 18.109375 37.203125 18.109375 27.296875 
Q 18.109375 17.390625 22.1875 11.75 
Q 26.265625 6.109375 33.40625 6.109375 
Q 40.53125 6.109375 44.609375 11.75 
Q 48.6875 17.390625 48.6875 27.296875 
z
" id="DejaVuSans-70"/>
     </defs>
     <g transform="translate(16.139531 294.999375)rotate(-90)scale(0.17 -0.17)">
      <use xlink:href="#DejaVuSans-46"/>
      <use x="57.410156" xlink:href="#DejaVuSans-72"/>
      <use x="98.523438" xlink:href="#DejaVuSans-61"/>
      <use x="159.802734" xlink:href="#DejaVuSans-63"/>
      <use x="214.783203" xlink:href="#DejaVuSans-74"/>
      <use x="253.992188" xlink:href="#DejaVuSans-69"/>
      <use x="281.775391" xlink:href="#DejaVuSans-6f"/>
      <use x="342.957031" xlink:href="#DejaVuSans-6e"/>
      <use x="406.335938" xlink:href="#DejaVuSans-20"/>
      <use x="438.123047" xlink:href="#DejaVuSans-6f"/>
      <use x="499.304688" xlink:href="#DejaVuSans-66"/>
      <use x="534.509766" xlink:href="#DejaVuSans-20"/>
      <use x="566.296875" xlink:href="#DejaVuSans-66"/>
      <use x="601.501953" xlink:href="#DejaVuSans-75"/>
      <use x="664.880859" xlink:href="#DejaVuSans-6e"/>
      <use x="728.259766" xlink:href="#DejaVuSans-63"/>
      <use x="783.240234" xlink:href="#DejaVuSans-74"/>
      <use x="822.449219" xlink:href="#DejaVuSans-69"/>
      <use x="850.232422" xlink:href="#DejaVuSans-6f"/>
      <use x="911.414062" xlink:href="#DejaVuSans-6e"/>
      <use x="974.792969" xlink:href="#DejaVuSans-2c"/>
      <use x="1006.580078" xlink:href="#DejaVuSans-74"/>
      <use x="1045.789062" xlink:href="#DejaVuSans-61"/>
      <use x="1107.068359" xlink:href="#DejaVuSans-72"/>
      <use x="1148.166016" xlink:href="#DejaVuSans-67"/>
      <use x="1211.642578" xlink:href="#DejaVuSans-65"/>
      <use x="1273.166016" xlink:href="#DejaVuSans-74"/>
      <use x="1312.375" xlink:href="#DejaVuSans-20"/>
      <use x="1344.162109" xlink:href="#DejaVuSans-70"/>
      <use x="1407.638672" xlink:href="#DejaVuSans-61"/>
      <use x="1468.917969" xlink:href="#DejaVuSans-69"/>
      <use x="1496.701172" xlink:href="#DejaVuSans-72"/>
      <use x="1537.814453" xlink:href="#DejaVuSans-73"/>
     </g>
    </g>
   </g>
   <g id="line2d_41">
    <defs>
     <path d="M 0 1.5 
C 0.397805 1.5 0.77937 1.341951 1.06066 1.06066 
C 1.341951 0.77937 1.5 0.397805 1.5 0 
C 1.5 -0.397805 1.341951 -0.77937 1.06066 -1.06066 
C 0.77937 -1.341951 0.397805 -1.5 0 -1.5 
C -0.397805 -1.5 -0.77937 -1.341951 -1.06066 -1.06066 
C -1.341951 -0.77937 -1.5 -0.397805 -1.5 0 
C -1.5 0.397805 -1.341951 0.77937 -1.06066 1.06066 
C -0.77937 1.341951 -0.397805 1.5 0 1.5 
z
" id="mc9601707ab" style="stroke:#f5deb3;"/>
    </defs>
    <g>
     <use style="fill:#f5deb3;stroke:#f5deb3;" x="104.131422" xlink:href="#mc9601707ab" y="27.513663"/>
     <use style="fill:#f5deb3;stroke:#f5deb3;" x="104.131422" xlink:href="#mc9601707ab" y="27.513663"/>
    </g>
   </g>
   <g id="line2d_42">
    <defs>
     <path d="M 0 1.5 
C 0.397805 1.5 0.77937 1.341951 1.06066 1.06066 
C 1.341951 0.77937 1.5 0.397805 1.5 0 
C 1.5 -0.397805 1.341951 -0.77937 1.06066 -1.06066 
C 0.77937 -1.341951 0.397805 -1.5 0 -1.5 
C -0.397805 -1.5 -0.77937 -1.341951 -1.06066 -1.06066 
C -1.341951 -0.77937 -1.5 -0.397805 -1.5 0 
C -1.5 0.397805 -1.341951 0.77937 -1.06066 1.06066 
C -0.77937 1.341951 -0.397805 1.5 0 1.5 
z
" id="me11f850bcb" style="stroke:#000080;"/>
    </defs>
    <g>
     <use style="fill:#000080;stroke:#000080;" x="205.61451" xlink:href="#me11f850bcb" y="27.513663"/>
     <use style="fill:#000080;stroke:#000080;" x="205.61451" xlink:href="#me11f850bcb" y="27.513663"/>
    </g>
   </g>
   <g id="line2d_43">
    <path d="M 111.448069 294.88 
L 111.448069 294.355752 
L 111.900428 294.355752 
L 111.900428 293.831505 
L 112.122219 293.831505 
L 112.122219 293.307257 
L 112.770924 293.307257 
L 112.770924 292.783009 
L 112.98183 292.783009 
L 112.98183 292.258761 
L 113.396034 292.258761 
L 113.396034 291.734514 
L 113.599452 291.734514 
L 113.599452 291.210266 
L 114.581927 291.210266 
L 114.581927 290.686018 
L 114.959714 290.686018 
L 114.959714 289.637523 
L 116.39293 289.637523 
L 116.39293 289.113275 
L 120.228462 289.113275 
L 120.228462 288.06478 
L 121.551317 288.06478 
L 121.551317 287.540532 
L 124.790952 287.540532 
L 124.896081 285.443541 
L 125.104431 285.443541 
L 125.104431 284.395046 
L 126.011959 284.395046 
L 126.011959 283.34655 
L 127.959924 283.34655 
L 127.959924 282.298055 
L 128.898495 282.298055 
L 128.898495 280.725312 
L 129.308744 280.725312 
L 129.308744 279.676816 
L 129.788458 279.676816 
L 129.788458 279.152568 
L 130.255146 279.152568 
L 130.33171 277.055578 
L 130.932248 277.055578 
L 130.932248 276.007082 
L 131.224827 276.007082 
L 131.224827 275.482834 
L 132.483094 275.482834 
L 132.483094 273.910091 
L 133.079291 273.910091 
L 133.079291 272.861596 
L 133.209017 272.861596 
L 133.209017 271.8131 
L 133.401789 271.8131 
L 133.401789 270.764605 
L 134.455115 270.764605 
L 134.455115 269.191862 
L 134.929315 269.191862 
L 134.929315 268.667614 
L 135.045848 268.667614 
L 135.045848 268.143366 
L 135.390782 268.143366 
L 135.390782 267.094871 
L 135.504239 267.094871 
L 135.504239 265.522128 
L 135.840184 265.522128 
L 135.950722 264.473632 
L 136.332102 264.473632 
L 136.332102 263.949385 
L 137.926211 263.949385 
L 137.926211 263.425137 
L 138.458109 263.425137 
L 138.505658 261.852394 
L 139.066206 261.852394 
L 139.066206 261.328146 
L 139.249066 261.328146 
L 139.249066 260.803898 
L 139.653523 260.803898 
L 139.653523 260.279651 
L 139.917968 260.279651 
L 139.96165 259.231155 
L 140.477347 259.231155 
L 140.477347 258.706907 
L 140.729508 258.706907 
L 140.812746 257.658412 
L 140.895583 257.658412 
L 140.978022 254.512926 
L 141.222995 254.512926 
L 141.222995 253.988678 
L 141.344185 253.988678 
L 141.424506 251.891687 
L 141.464526 251.891687 
L 141.464526 251.367439 
L 141.742087 251.367439 
L 141.820574 250.318944 
L 141.859684 250.318944 
L 141.859684 248.746201 
L 142.169397 248.746201 
L 142.169397 248.221953 
L 142.284116 248.221953 
L 142.284116 247.697705 
L 142.69832 247.697705 
L 142.69832 246.64921 
L 142.846499 246.64921 
L 142.846499 246.124962 
L 143.102777 246.124962 
L 143.102777 245.076467 
L 143.568817 245.076467 
L 143.568817 244.027971 
L 143.744751 244.027971 
L 143.744751 243.503724 
L 143.988072 243.503724 
L 143.988072 242.979476 
L 144.125582 242.979476 
L 144.227997 241.406733 
L 144.363608 241.406733 
L 144.464619 239.83399 
L 144.698028 239.83399 
L 144.797098 237.736999 
L 145.632598 237.736999 
L 145.632598 237.212751 
L 145.974208 237.212751 
L 145.974208 236.688503 
L 146.39939 236.688503 
L 146.459281 235.640008 
L 146.98911 235.640008 
L 146.98911 235.11576 
L 147.190823 235.11576 
L 147.190823 234.591512 
L 147.333468 234.591512 
L 147.333468 234.067265 
L 147.503094 234.067265 
L 147.503094 233.018769 
L 147.782136 233.018769 
L 147.864973 231.446026 
L 148.002154 231.446026 
L 148.083939 230.397531 
L 148.300151 230.397531 
L 148.326988 229.349035 
L 148.724584 229.349035 
L 148.829074 227.776292 
L 148.9588 227.776292 
L 148.9588 227.252044 
L 149.11319 227.252044 
L 149.11319 226.727797 
L 149.240798 226.727797 
L 149.240798 226.203549 
L 149.56821 226.203549 
L 149.56821 225.155053 
L 149.692496 225.155053 
L 149.692496 224.106558 
L 149.864999 224.106558 
L 149.864999 223.58231 
L 149.987165 223.58231 
L 149.987165 223.058063 
L 150.132627 223.058063 
L 150.204899 222.009567 
L 150.252912 222.009567 
L 150.348537 220.436824 
L 150.396151 220.436824 
L 150.443634 219.388328 
L 150.632262 219.388328 
L 150.632262 218.864081 
L 150.749113 218.864081 
L 150.818844 217.815585 
L 150.980457 217.815585 
L 150.980457 217.291338 
L 151.208729 217.291338 
L 151.299196 215.718594 
L 151.456376 215.718594 
L 151.478713 214.670099 
L 151.567774 214.670099 
L 151.589967 213.621604 
L 151.722528 213.621604 
L 151.832219 212.04886 
L 151.962932 212.04886 
L 151.962932 211.000365 
L 152.092658 211.000365 
L 152.20002 209.95187 
L 152.28543 209.95187 
L 152.28543 209.427622 
L 152.830481 209.427622 
L 152.912822 207.854879 
L 153.258436 207.854879 
L 153.258436 207.330631 
L 153.871321 207.330631 
L 153.871321 206.806383 
L 153.987461 206.806383 
L 154.026001 205.757888 
L 154.236437 205.757888 
L 154.255441 204.709392 
L 154.350144 204.709392 
L 154.350144 204.185145 
L 154.481859 204.185145 
L 154.481859 203.660897 
L 154.631164 203.660897 
L 154.705333 202.612401 
L 154.834363 202.612401 
L 154.944195 201.039658 
L 155.05333 201.039658 
L 155.089554 199.991163 
L 155.341012 199.991163 
L 155.412187 198.942667 
L 155.693974 198.942667 
L 155.746298 197.894172 
L 155.902323 197.894172 
L 156.005559 196.321429 
L 156.159258 196.321429 
L 156.176252 195.272933 
L 156.294736 195.272933 
L 156.345266 194.224438 
L 156.579129 194.224438 
L 156.628831 193.175943 
L 156.907793 193.175943 
L 156.988987 192.127447 
L 157.150232 192.127447 
L 157.150232 191.603199 
L 157.26221 191.603199 
L 157.357615 189.506209 
L 157.515455 189.506209 
L 157.515455 188.981961 
L 157.671858 188.981961 
L 157.7805 187.409218 
L 157.96516 187.409218 
L 158.07197 186.360722 
L 158.147858 186.360722 
L 158.178119 185.312227 
L 158.313642 185.312227 
L 158.313642 184.787979 
L 158.888862 184.787979 
L 158.888862 183.215236 
L 159.090744 183.215236 
L 159.090744 182.690988 
L 159.261918 182.690988 
L 159.261918 182.16674 
L 159.459491 182.16674 
L 159.459491 181.642493 
L 159.724044 181.642493 
L 159.806748 180.06975 
L 159.861664 180.06975 
L 159.916405 179.021254 
L 159.998191 179.021254 
L 160.106637 176.924263 
L 160.120144 176.924263 
L 160.187524 175.875768 
L 160.281415 175.875768 
L 160.374795 174.303025 
L 160.441186 174.303025 
L 160.546882 172.730281 
L 160.704216 172.730281 
L 160.704216 172.206034 
L 161.078598 172.206034 
L 161.129603 171.157538 
L 161.407456 171.157538 
L 161.407456 170.633291 
L 161.544716 170.633291 
L 161.544716 170.109043 
L 161.925746 170.109043 
L 162.010628 169.060547 
L 162.071002 169.060547 
L 162.179145 167.487804 
L 162.238932 167.487804 
L 162.33416 166.439309 
L 162.440665 166.439309 
L 162.523048 163.81807 
L 162.593349 163.81807 
L 162.686639 162.245327 
L 162.744689 162.245327 
L 162.790989 161.196832 
L 163.009223 161.196832 
L 163.009223 160.672584 
L 163.145642 160.672584 
L 163.156961 159.624089 
L 163.292217 159.624089 
L 163.292217 159.099841 
L 163.404122 159.099841 
L 163.482025 157.527098 
L 163.64778 157.527098 
L 163.64778 157.00285 
L 163.82284 157.00285 
L 163.877183 155.954354 
L 164.082133 155.954354 
L 164.114272 154.905859 
L 164.199681 154.905859 
L 164.199681 154.381611 
L 164.337573 154.381611 
L 164.337573 153.857364 
L 164.537137 153.857364 
L 164.537137 153.333116 
L 164.755046 153.333116 
L 164.775656 152.28462 
L 165.091989 152.28462 
L 165.091989 151.760373 
L 165.242988 151.760373 
L 165.352884 150.711877 
L 165.382734 150.711877 
L 165.452183 149.663382 
L 165.71746 149.663382 
L 165.814681 147.566391 
L 165.872751 147.566391 
L 165.9691 145.993648 
L 166.036224 145.993648 
L 166.036224 145.4694 
L 166.46159 145.4694 
L 166.536121 143.896657 
L 166.647315 143.896657 
L 166.647315 143.372409 
L 166.894901 143.372409 
L 166.894901 142.848162 
L 167.021889 142.848162 
L 167.112024 141.275418 
L 167.237423 141.275418 
L 167.326438 140.226923 
L 167.441472 140.226923 
L 167.441472 139.702675 
L 167.564499 139.702675 
L 167.65184 138.65418 
L 167.902647 138.65418 
L 167.945522 137.605684 
L 168.07351 137.605684 
L 168.07351 137.081437 
L 168.234271 137.081437 
L 168.293122 135.508693 
L 168.376846 135.508693 
L 168.376846 134.984446 
L 168.49338 134.984446 
L 168.49338 134.460198 
L 168.650279 134.460198 
L 168.650279 133.93595 
L 168.838314 133.93595 
L 168.838314 133.411703 
L 168.967918 133.411703 
L 169.016268 132.363207 
L 169.168487 132.363207 
L 169.168487 131.838959 
L 169.295634 131.838959 
L 169.295634 131.314712 
L 169.476776 131.314712 
L 169.562739 130.266216 
L 169.748816 130.266216 
L 169.748816 129.741969 
L 169.887063 129.741969 
L 169.978614 128.169225 
L 170.42178 128.169225 
L 170.436604 127.12073 
L 170.540016 127.12073 
L 170.65013 125.023739 
L 170.889924 125.023739 
L 170.9763 123.975244 
L 171.062243 123.975244 
L 171.062243 123.450996 
L 171.218698 123.450996 
L 171.310484 122.4025 
L 171.450743 122.4025 
L 171.450743 121.878253 
L 171.796463 121.878253 
L 171.857961 120.829757 
L 172.095049 120.829757 
L 172.095049 120.30551 
L 172.335547 120.30551 
L 172.401759 119.257014 
L 172.447956 119.257014 
L 172.447956 118.732766 
L 172.559635 118.732766 
L 172.651064 117.684271 
L 172.6901 117.684271 
L 172.6901 117.160023 
L 172.82603 117.160023 
L 172.82603 116.635776 
L 172.96729 116.635776 
L 173.0693 114.014537 
L 173.126416 114.014537 
L 173.183342 112.441794 
L 173.258952 112.441794 
L 173.352999 111.393298 
L 173.415413 111.393298 
L 173.465181 110.344803 
L 173.582805 110.344803 
L 173.601304 109.296308 
L 173.833918 109.296308 
L 173.833918 108.77206 
L 173.949054 108.77206 
L 173.967163 107.723564 
L 174.081414 107.723564 
L 174.10537 106.675069 
L 174.218709 106.675069 
L 174.218709 105.626573 
L 174.460765 105.626573 
L 174.542643 104.578078 
L 174.693677 104.578078 
L 174.734114 103.005335 
L 174.826186 103.005335 
L 174.912057 101.956839 
L 175.01454 101.956839 
L 175.122058 100.908344 
L 175.127698 100.908344 
L 175.2233 99.335601 
L 175.240116 99.335601 
L 175.307216 98.287105 
L 175.517986 98.287105 
L 175.605963 96.714362 
L 175.769718 96.714362 
L 175.802282 95.665867 
L 175.899607 95.665867 
L 175.974926 94.093124 
L 176.09262 94.093124 
L 176.167099 91.996133 
L 176.461828 91.996133 
L 176.524332 90.947637 
L 176.741324 90.947637 
L 176.833489 89.899142 
L 176.986006 89.899142 
L 177.076872 88.326399 
L 177.127146 88.326399 
L 177.127146 87.802151 
L 177.46024 87.802151 
L 177.553537 86.229408 
L 177.777337 86.229408 
L 177.777337 85.70516 
L 177.988715 85.70516 
L 177.988715 85.180912 
L 178.408489 85.180912 
L 178.408489 84.656665 
L 178.708714 84.656665 
L 178.708714 84.132417 
L 179.504999 84.132417 
L 179.51374 83.083922 
L 179.726511 83.083922 
L 179.80831 82.035426 
L 179.846922 82.035426 
L 179.846922 81.511178 
L 180.135885 81.511178 
L 180.228342 80.462683 
L 180.295273 80.462683 
L 180.311965 78.88994 
L 180.511015 78.88994 
L 180.580963 77.317197 
L 180.642446 77.317197 
L 180.662892 76.268701 
L 181.066779 76.268701 
L 181.138481 74.695958 
L 181.312505 74.695958 
L 181.410602 73.123215 
L 181.515923 73.123215 
L 181.515923 72.598967 
L 181.964998 72.598967 
L 182.066986 71.550472 
L 182.398945 71.550472 
L 182.398945 71.026224 
L 182.731863 71.026224 
L 182.796958 69.977729 
L 183.005047 69.977729 
L 183.083322 68.929233 
L 183.375468 68.929233 
L 183.441651 67.35649 
L 183.511045 67.35649 
L 183.552546 66.307995 
L 183.945271 66.307995 
L 183.952022 65.259499 
L 184.246481 65.259499 
L 184.246481 64.735251 
L 184.464062 64.735251 
L 184.486978 63.686756 
L 184.62059 63.686756 
L 184.720929 62.638261 
L 184.74995 62.638261 
L 184.811056 61.589765 
L 184.910293 61.589765 
L 185.002611 60.54127 
L 185.537113 60.54127 
L 185.629195 59.492774 
L 185.708602 59.492774 
L 185.708602 58.968526 
L 185.974676 58.968526 
L 185.974676 58.444279 
L 186.09725 58.444279 
L 186.09725 57.920031 
L 186.436461 57.920031 
L 186.451059 56.871536 
L 186.578986 56.871536 
L 186.662784 55.82304 
L 186.80631 55.82304 
L 186.897542 54.774545 
L 187.047588 54.774545 
L 187.09544 53.201802 
L 187.268838 53.201802 
L 187.368723 51.104811 
L 187.509242 51.104811 
L 187.547616 50.056315 
L 187.673101 50.056315 
L 187.673101 49.532068 
L 187.972181 49.532068 
L 187.972181 49.00782 
L 188.11582 49.00782 
L 188.15815 47.959324 
L 188.334283 47.959324 
L 188.383905 46.910829 
L 188.547422 46.910829 
L 188.547422 46.386581 
L 188.699159 46.386581 
L 188.699159 45.862334 
L 189.504476 45.862334 
L 189.563016 44.813838 
L 189.691589 44.813838 
L 189.691589 44.28959 
L 189.831197 44.28959 
L 189.881467 43.241095 
L 189.969681 43.241095 
L 189.969681 42.716847 
L 190.238665 42.716847 
L 190.252706 41.668352 
L 190.72568 41.668352 
L 190.72568 41.144104 
L 191.882874 41.144104 
L 191.882874 40.619856 
L 192.00372 40.619856 
L 192.081711 39.047113 
L 192.425266 39.047113 
L 192.425266 38.522865 
L 192.611845 38.522865 
L 192.611845 37.998618 
L 193.391242 37.998618 
L 193.426285 36.950122 
L 193.704087 36.950122 
L 193.704087 36.425875 
L 194.759869 36.425875 
L 194.759869 35.901627 
L 195.65745 35.901627 
L 195.72734 34.853131 
L 196.581847 34.853131 
L 196.581847 34.328884 
L 197.849879 34.328884 
L 197.891927 33.280388 
L 198.143556 33.280388 
L 198.143556 32.756141 
L 199.109189 32.756141 
L 199.109189 32.231893 
L 199.434466 32.231893 
L 199.434466 31.707645 
L 200.022122 31.707645 
L 200.022122 31.183397 
L 200.248534 31.183397 
L 200.248534 30.65915 
L 201.110569 30.65915 
L 201.110569 30.134902 
L 201.493087 30.134902 
L 201.493087 29.610654 
L 201.661338 29.610654 
L 201.661338 29.086407 
L 202.061368 29.086407 
L 202.061368 28.562159 
L 202.828912 28.562159 
L 202.828912 28.037911 
L 205.61451 28.037911 
L 205.61451 27.513663 
L 333.168 27.513663 
L 333.168 27.513663 
" style="fill:none;stroke:#000080;stroke-linecap:square;stroke-width:1.5;"/>
   </g>
   <g id="line2d_44">
    <defs>
     <path d="M 0 6 
C 1.591219 6 3.117479 5.367802 4.242641 4.242641 
C 5.367802 3.117479 6 1.591219 6 0 
C 6 -1.591219 5.367802 -3.117479 4.242641 -4.242641 
C 3.117479 -5.367802 1.591219 -6 0 -6 
C -1.591219 -6 -3.117479 -5.367802 -4.242641 -4.242641 
C -5.367802 -3.117479 -6 -1.591219 -6 0 
C -6 1.591219 -5.367802 3.117479 -4.242641 4.242641 
C -3.117479 5.367802 -1.591219 6 0 6 
z
" id="m09e88d276f" style="stroke:#000080;stroke-width:1.5;"/>
    </defs>
    <g>
     <use style="fill:none;stroke:#000080;stroke-width:1.5;" x="162.010628" xlink:href="#m09e88d276f" y="169.060547"/>
     <use style="fill:none;stroke:#000080;stroke-width:1.5;" x="192.611845" xlink:href="#m09e88d276f" y="38.522865"/>
     <use style="fill:none;stroke:#000080;stroke-width:1.5;" x="205.61451" xlink:href="#m09e88d276f" y="27.513663"/>
     <use style="fill:none;stroke:#000080;stroke-width:1.5;" x="205.61451" xlink:href="#m09e88d276f" y="27.513663"/>
     <use style="fill:none;stroke:#000080;stroke-width:1.5;" x="333.168" xlink:href="#m09e88d276f" y="27.513663"/>
    </g>
   </g>
   <g id="line2d_45">
    <path style="fill:none;stroke:#000080;stroke-linecap:square;stroke-width:1.5;"/>
    <g/>
   </g>
   <g id="line2d_46">
    <path clip-path="url(#p501bd840c5)" d="M 131.36927 275.482834 
" style="fill:none;stroke:#000080;stroke-linecap:square;stroke-width:1.5;"/>
    <defs>
     <path d="M -12 12 
L 12 -12 
M -12 -12 
L 12 12 
" id="m6b6ec7fdf9" style="stroke:#000080;"/>
    </defs>
    <g clip-path="url(#p501bd840c5)">
     <use style="fill:#000080;stroke:#000080;" x="131.36927" xlink:href="#m6b6ec7fdf9" y="275.482834"/>
    </g>
   </g>
   <g id="line2d_47">
    <defs>
     <path d="M 0 1.5 
C 0.397805 1.5 0.77937 1.341951 1.06066 1.06066 
C 1.341951 0.77937 1.5 0.397805 1.5 0 
C 1.5 -0.397805 1.341951 -0.77937 1.06066 -1.06066 
C 0.77937 -1.341951 0.397805 -1.5 0 -1.5 
C -0.397805 -1.5 -0.77937 -1.341951 -1.06066 -1.06066 
C -1.341951 -0.77937 -1.5 -0.397805 -1.5 0 
C -1.5 0.397805 -1.341951 0.77937 -1.06066 1.06066 
C -0.77937 1.341951 -0.397805 1.5 0 1.5 
z
" id="m2cfe800423" style="stroke:#ff00ff;"/>
    </defs>
    <g>
     <use style="fill:#ff00ff;stroke:#ff00ff;" x="218.0607" xlink:href="#m2cfe800423" y="27.513663"/>
     <use style="fill:#ff00ff;stroke:#ff00ff;" x="218.0607" xlink:href="#m2cfe800423" y="27.513663"/>
    </g>
   </g>
   <g id="line2d_48">
    <path d="M 111.217346 294.88 
L 111.217346 294.355752 
L 111.448069 294.355752 
L 111.448069 293.831505 
L 112.122219 293.831505 
L 112.122219 293.307257 
L 112.770924 293.307257 
L 112.770924 292.783009 
L 113.396034 292.783009 
L 113.396034 292.258761 
L 113.599452 292.258761 
L 113.599452 291.734514 
L 114.581927 291.734514 
L 114.581927 291.210266 
L 114.959714 291.210266 
L 114.959714 290.161771 
L 121.551317 290.161771 
L 121.551317 289.637523 
L 124.790952 289.637523 
L 124.896081 287.016284 
L 125.104431 287.016284 
L 125.104431 286.492036 
L 126.011959 286.492036 
L 126.011959 285.967789 
L 127.959924 285.967789 
L 127.959924 284.919293 
L 128.563096 284.919293 
L 128.563096 284.395046 
L 128.898495 284.395046 
L 128.898495 283.870798 
L 129.308744 283.870798 
L 129.308744 282.822302 
L 129.70943 282.822302 
L 129.788458 281.249559 
L 130.255146 281.249559 
L 130.33171 278.628321 
L 130.559378 278.628321 
L 130.559378 277.579825 
L 130.932248 277.579825 
L 130.932248 277.055578 
L 131.224827 277.055578 
L 131.224827 276.53133 
L 132.483094 276.53133 
L 132.483094 275.482834 
L 133.079291 275.482834 
L 133.079291 274.434339 
L 133.209017 274.434339 
L 133.209017 273.910091 
L 133.401789 273.910091 
L 133.401789 271.8131 
L 133.780965 271.8131 
L 133.780965 271.288853 
L 133.967462 271.288853 
L 133.967462 270.764605 
L 134.151957 270.764605 
L 134.151957 270.240357 
L 134.273863 270.240357 
L 134.273863 269.716109 
L 134.455115 269.716109 
L 134.455115 268.143366 
L 134.929315 268.143366 
L 134.929315 267.619119 
L 135.045848 267.619119 
L 135.045848 267.094871 
L 135.21918 267.094871 
L 135.21918 266.570623 
L 135.390782 266.570623 
L 135.390782 265.522128 
L 135.504239 265.522128 
L 135.504239 264.99788 
L 135.840184 264.99788 
L 135.840184 264.473632 
L 136.005725 264.473632 
L 136.005725 263.949385 
L 137.478435 263.949385 
L 137.478435 263.425137 
L 138.505658 263.425137 
L 138.505658 262.900889 
L 139.43 262.900889 
L 139.43 262.376641 
L 140.307161 262.376641 
L 140.307161 261.852394 
L 140.477347 261.852394 
L 140.477347 261.328146 
L 140.812746 261.328146 
L 140.895583 259.231155 
L 140.936852 259.231155 
L 140.936852 257.134164 
L 141.100945 257.134164 
L 141.100945 256.609917 
L 141.344185 256.609917 
L 141.424506 255.037173 
L 141.859684 255.037173 
L 141.859684 253.46443 
L 142.284116 253.46443 
L 142.284116 252.940182 
L 142.586342 252.940182 
L 142.623749 251.891687 
L 142.69832 251.891687 
L 142.69832 251.367439 
L 142.846499 251.367439 
L 142.846499 250.318944 
L 143.102777 250.318944 
L 143.102777 248.221953 
L 143.568817 248.221953 
L 143.568817 247.173458 
L 143.744751 247.173458 
L 143.744751 246.64921 
L 143.918903 246.64921 
L 144.022553 245.076467 
L 144.125582 245.076467 
L 144.227997 243.503724 
L 144.262 243.503724 
L 144.363608 242.455228 
L 144.431015 242.455228 
L 144.431015 241.93098 
L 144.698028 241.93098 
L 144.797098 240.358237 
L 145.219924 240.358237 
L 145.219924 239.83399 
L 145.506674 239.83399 
L 145.506674 239.309742 
L 145.757607 239.309742 
L 145.757607 238.785494 
L 145.9126 238.785494 
L 145.9126 238.261246 
L 146.096766 238.261246 
L 146.188114 237.212751 
L 146.218456 237.212751 
L 146.218456 236.688503 
L 146.608101 236.688503 
L 146.608101 236.164255 
L 146.901931 236.164255 
L 146.960099 234.067265 
L 147.104664 234.067265 
L 147.133431 233.018769 
L 147.219446 233.018769 
L 147.305033 231.970274 
L 147.615255 231.970274 
L 147.643181 230.921778 
L 147.809793 230.921778 
L 147.919977 229.349035 
L 148.192385 229.349035 
L 148.246353 228.30054 
L 148.326988 228.30054 
L 148.433916 227.252044 
L 148.540183 227.252044 
L 148.619454 225.155053 
L 148.672099 225.155053 
L 148.776908 224.106558 
L 148.881082 224.106558 
L 148.881082 223.58231 
L 149.036169 223.58231 
L 149.036169 223.058063 
L 149.493205 223.058063 
L 149.493205 222.533815 
L 149.741959 222.533815 
L 149.741959 222.009567 
L 149.889502 222.009567 
L 149.889502 221.485319 
L 150.132627 221.485319 
L 150.132627 220.961072 
L 150.443634 220.961072 
L 150.443634 220.436824 
L 150.679098 220.436824 
L 150.725806 218.864081 
L 150.957462 218.864081 
L 151.049258 217.815585 
L 151.276624 217.815585 
L 151.276624 217.291338 
L 151.389189 217.291338 
L 151.478713 216.242842 
L 151.700505 216.242842 
L 151.766488 215.194347 
L 151.854074 215.194347 
L 151.962932 214.145851 
L 151.984621 214.145851 
L 152.049525 212.04886 
L 152.114184 212.04886 
L 152.221413 211.000365 
L 152.242778 211.000365 
L 152.242778 210.476117 
L 152.370417 210.476117 
L 152.433883 209.427622 
L 152.497115 209.427622 
L 152.497115 208.903374 
L 152.830481 208.903374 
L 152.871701 207.854879 
L 153.035598 207.854879 
L 153.137246 206.806383 
L 153.278551 206.806383 
L 153.278551 206.282136 
L 153.498281 206.282136 
L 153.537932 205.23364 
L 153.61696 205.23364 
L 153.61696 204.709392 
L 153.851888 204.709392 
L 153.948835 202.088154 
L 154.463104 202.088154 
L 154.556673 200.515411 
L 154.705333 200.515411 
L 154.705333 199.991163 
L 154.98065 199.991163 
L 154.998849 198.942667 
L 155.125703 198.942667 
L 155.215743 197.369924 
L 155.269542 197.369924 
L 155.269542 196.845677 
L 155.483068 196.845677 
L 155.588844 195.272933 
L 155.606411 195.272933 
L 155.711433 193.175943 
L 156.056945 193.175943 
L 156.056945 192.651695 
L 156.495971 192.651695 
L 156.495971 192.127447 
L 156.628831 192.127447 
L 156.678389 191.078952 
L 156.760671 191.078952 
L 156.760671 190.554704 
L 157.198312 190.554704 
L 157.198312 190.030456 
L 157.373464 190.030456 
L 157.373464 189.506209 
L 157.578187 189.506209 
L 157.593834 187.933465 
L 157.734023 187.933465 
L 157.765022 186.88497 
L 158.117543 186.88497 
L 158.178119 185.312227 
L 158.551963 185.312227 
L 158.655198 183.739484 
L 158.713912 183.739484 
L 158.816182 182.16674 
L 158.859827 182.16674 
L 158.859827 181.642493 
L 158.990099 181.642493 
L 159.018915 180.593997 
L 159.147992 180.593997 
L 159.247719 179.021254 
L 159.529506 179.021254 
L 159.585313 177.972759 
L 159.710221 177.972759 
L 159.737856 176.924263 
L 159.847951 176.924263 
L 159.847951 176.400016 
L 160.066049 176.400016 
L 160.133641 174.303025 
L 160.254641 174.303025 
L 160.254641 173.778777 
L 160.441186 173.778777 
L 160.441186 173.254529 
L 160.560048 173.254529 
L 160.612613 172.206034 
L 160.730299 172.206034 
L 160.834236 170.633291 
L 160.847184 170.633291 
L 160.860123 169.584795 
L 161.078598 169.584795 
L 161.180457 168.5363 
L 161.294331 168.5363 
L 161.294331 168.012052 
L 161.41998 168.012052 
L 161.457496 166.963557 
L 161.643858 166.963557 
L 161.754713 165.915061 
L 161.803753 165.915061 
L 161.840442 164.866566 
L 161.974301 164.866566 
L 161.974301 164.342318 
L 162.095093 164.342318 
L 162.143173 162.769575 
L 162.215042 162.769575 
L 162.310402 161.721079 
L 162.346026 161.721079 
L 162.346026 161.196832 
L 162.546514 161.196832 
L 162.546514 160.672584 
L 163.054817 160.672584 
L 163.054817 160.148336 
L 163.370627 160.148336 
L 163.404122 158.575593 
L 163.625771 158.575593 
L 163.636779 157.527098 
L 163.811951 157.527098 
L 163.920534 155.954354 
L 163.952976 155.954354 
L 164.028436 154.905859 
L 164.071407 154.905859 
L 164.167702 153.857364 
L 164.189028 153.857364 
L 164.295262 152.808868 
L 164.400844 152.808868 
L 164.463883 151.760373 
L 164.516239 151.760373 
L 164.620476 149.139134 
L 164.630865 149.139134 
L 164.703413 147.042143 
L 164.909021 147.042143 
L 165.000749 144.945152 
L 165.132385 144.945152 
L 165.132385 144.420905 
L 165.303018 144.420905 
L 165.303018 143.896657 
L 165.501618 143.896657 
L 165.501618 142.848162 
L 165.843741 142.848162 
L 165.872751 141.799666 
L 166.055355 141.799666 
L 166.103088 140.751171 
L 166.198158 140.751171 
L 166.198158 140.226923 
L 166.405479 140.226923 
L 166.405479 139.702675 
L 166.517519 139.702675 
L 166.582539 138.65418 
L 166.885795 138.65418 
L 166.885795 138.129932 
L 167.076027 138.129932 
L 167.129994 137.081437 
L 167.210629 137.081437 
L 167.281988 135.508693 
L 167.370773 135.508693 
L 167.43265 134.460198 
L 167.503095 134.460198 
L 167.503095 133.93595 
L 167.730069 133.93595 
L 167.764723 132.887455 
L 167.945522 132.887455 
L 167.996832 131.838959 
L 168.090503 131.838959 
L 168.124439 130.790464 
L 168.401884 130.790464 
L 168.401884 130.266216 
L 168.518249 130.266216 
L 168.592641 129.217721 
L 168.642057 129.217721 
L 168.642057 128.693473 
L 168.805759 128.693473 
L 168.862689 127.644978 
L 169.064483 127.644978 
L 169.152528 126.596482 
L 169.248064 126.596482 
L 169.248064 126.072235 
L 169.398253 126.072235 
L 169.492438 124.499491 
L 169.570533 124.499491 
L 169.671528 122.4025 
L 169.725666 122.4025 
L 169.725666 121.878253 
L 170.130123 121.878253 
L 170.130123 121.354005 
L 170.42178 121.354005 
L 170.53265 119.257014 
L 170.547379 119.257014 
L 170.562096 118.208519 
L 170.70857 118.208519 
L 170.70857 117.160023 
L 170.897139 117.160023 
L 170.897139 116.635776 
L 171.040797 116.635776 
L 171.147759 112.966042 
L 171.331596 112.966042 
L 171.429777 110.869051 
L 171.823823 110.869051 
L 171.892032 109.296308 
L 172.000606 109.296308 
L 172.054637 108.247812 
L 172.526864 108.247812 
L 172.526864 107.723564 
L 173.240081 107.723564 
L 173.334231 106.675069 
L 173.415413 106.675069 
L 173.434092 105.626573 
L 173.815667 105.626573 
L 173.815667 105.102326 
L 173.949054 105.102326 
L 174.015362 104.05383 
L 174.171078 104.05383 
L 174.242475 103.005335 
L 174.325397 103.005335 
L 174.40204 100.908344 
L 174.65894 100.908344 
L 174.762939 99.859849 
L 174.860586 99.859849 
L 174.860586 99.335601 
L 175.02589 99.335601 
L 175.02589 98.811353 
L 175.155872 98.811353 
L 175.155872 98.287105 
L 175.32395 98.287105 
L 175.418469 96.190115 
L 175.693493 96.190115 
L 175.720755 94.617371 
L 175.904998 94.617371 
L 175.904998 94.093124 
L 176.209513 94.093124 
L 176.209513 93.568876 
L 176.357147 93.568876 
L 176.378134 92.520381 
L 176.545117 92.520381 
L 176.59179 91.471885 
L 176.864101 91.471885 
L 176.864101 90.947637 
L 177.061761 90.947637 
L 177.086938 89.899142 
L 177.568222 89.899142 
L 177.670666 88.326399 
L 177.787002 88.326399 
L 177.787002 87.802151 
L 178.060186 87.802151 
L 178.093437 86.753656 
L 178.366502 86.753656 
L 178.366502 86.229408 
L 178.478238 86.229408 
L 178.584641 84.656665 
L 178.822803 84.656665 
L 178.895425 83.608169 
L 179.026275 83.608169 
L 179.026275 83.083922 
L 179.487504 83.083922 
L 179.49188 82.035426 
L 179.648656 82.035426 
L 179.648656 81.511178 
L 179.79542 81.511178 
L 179.79542 80.986931 
L 180.004754 80.986931 
L 180.042927 79.938435 
L 180.236723 79.938435 
L 180.257656 78.88994 
L 180.386879 78.88994 
L 180.490388 77.841444 
L 180.666978 77.841444 
L 180.760694 76.268701 
L 180.857942 76.268701 
L 180.857942 75.744454 
L 181.257324 75.744454 
L 181.308569 74.695958 
L 181.414515 74.695958 
L 181.414515 74.17171 
L 181.651496 74.17171 
L 181.651496 73.647463 
L 181.919475 73.647463 
L 181.919475 73.123215 
L 182.044374 73.123215 
L 182.044374 72.598967 
L 182.1796 72.598967 
L 182.183341 71.550472 
L 182.901317 71.550472 
L 183.008612 70.501976 
L 183.047787 70.501976 
L 183.136489 68.929233 
L 183.364994 68.929233 
L 183.445128 66.832242 
L 183.493723 66.832242 
L 183.493723 66.307995 
L 184.15 66.307995 
L 184.15 65.783747 
L 184.571828 65.783747 
L 184.617343 64.735251 
L 184.878344 64.735251 
L 184.961288 63.686756 
L 185.097593 63.686756 
L 185.097593 63.162508 
L 185.21402 63.162508 
L 185.21402 62.638261 
L 185.342119 62.638261 
L 185.447628 61.589765 
L 185.705555 61.589765 
L 185.705555 61.065517 
L 186.106184 61.065517 
L 186.106184 60.54127 
L 186.541288 60.54127 
L 186.541288 60.017022 
L 186.988292 60.017022 
L 187.092629 58.444279 
L 187.140355 58.444279 
L 187.213094 57.395783 
L 187.388078 57.395783 
L 187.388078 56.871536 
L 187.514729 56.871536 
L 187.514729 56.347288 
L 187.754448 56.347288 
L 187.803072 55.298792 
L 188.028183 55.298792 
L 188.094616 53.726049 
L 188.266147 53.726049 
L 188.266147 53.201802 
L 188.467155 53.201802 
L 188.562914 50.580563 
L 188.829251 50.580563 
L 188.829251 50.056315 
L 189.166442 50.056315 
L 189.166442 49.532068 
L 189.280685 49.532068 
L 189.280685 49.00782 
L 189.421203 49.00782 
L 189.421203 48.483572 
L 189.558145 48.483572 
L 189.558145 47.959324 
L 189.888636 47.959324 
L 189.976814 46.910829 
L 190.392489 46.910829 
L 190.392489 46.386581 
L 190.750695 46.386581 
L 190.750695 45.862334 
L 191.612688 45.862334 
L 191.640762 44.813838 
L 192.012169 44.813838 
L 192.012169 44.28959 
L 192.25747 44.28959 
L 192.25747 43.765343 
L 192.445869 43.765343 
L 192.534179 42.716847 
L 192.818598 42.716847 
L 192.818598 42.192599 
L 193.01891 42.192599 
L 193.022893 41.144104 
L 193.218884 41.144104 
L 193.218884 40.619856 
L 193.43795 40.619856 
L 193.43795 40.095609 
L 194.318737 40.095609 
L 194.318737 39.571361 
L 194.758069 39.571361 
L 194.837081 38.522865 
L 194.901458 38.522865 
L 194.901458 37.998618 
L 195.597562 37.998618 
L 195.665989 36.950122 
L 195.776603 36.950122 
L 195.776603 36.425875 
L 196.283048 36.425875 
L 196.307736 35.377379 
L 196.888264 35.377379 
L 196.888264 34.853131 
L 197.51434 34.853131 
L 197.51434 34.328884 
L 198.063554 34.328884 
L 198.063554 33.804636 
L 198.617343 33.804636 
L 198.617343 33.280388 
L 198.872819 33.280388 
L 198.977335 32.231893 
L 200.391785 32.231893 
L 200.391785 31.707645 
L 201.023285 31.707645 
L 201.023285 31.183397 
L 201.208546 31.183397 
L 201.277661 30.134902 
L 204.365267 30.134902 
L 204.365267 29.610654 
L 204.910244 29.610654 
L 204.910244 29.086407 
L 205.433636 29.086407 
L 205.433636 28.562159 
L 206.988862 28.562159 
L 206.988862 28.037911 
L 218.0607 28.037911 
L 218.0607 27.513663 
L 333.168 27.513663 
L 333.168 27.513663 
" style="fill:none;stroke:#ff00ff;stroke-linecap:square;stroke-width:1.5;"/>
   </g>
   <g id="line2d_49">
    <defs>
     <path d="M -0 8.485281 
L 5.091169 0 
L 0 -8.485281 
L -5.091169 -0 
z
" id="ma312c92535" style="stroke:#ff00ff;stroke-linejoin:miter;stroke-width:1.5;"/>
    </defs>
    <g>
     <use style="fill:none;stroke:#ff00ff;stroke-linejoin:miter;stroke-width:1.5;" x="159.737856" xlink:href="#ma312c92535" y="177.448511"/>
     <use style="fill:none;stroke:#ff00ff;stroke-linejoin:miter;stroke-width:1.5;" x="188.47494" xlink:href="#ma312c92535" y="51.629058"/>
     <use style="fill:none;stroke:#ff00ff;stroke-linejoin:miter;stroke-width:1.5;" x="218.0607" xlink:href="#ma312c92535" y="27.513663"/>
     <use style="fill:none;stroke:#ff00ff;stroke-linejoin:miter;stroke-width:1.5;" x="218.0607" xlink:href="#ma312c92535" y="27.513663"/>
     <use style="fill:none;stroke:#ff00ff;stroke-linejoin:miter;stroke-width:1.5;" x="333.168" xlink:href="#ma312c92535" y="27.513663"/>
    </g>
   </g>
   <g id="line2d_50">
    <path style="fill:none;stroke:#ff00ff;stroke-linecap:square;stroke-width:1.5;"/>
    <g/>
   </g>
   <g id="line2d_51">
    <path clip-path="url(#p501bd840c5)" d="M 131.36927 276.53133 
" style="fill:none;stroke:#ff00ff;stroke-linecap:square;stroke-width:1.5;"/>
    <defs>
     <path d="M -12 12 
L 12 -12 
M -12 -12 
L 12 12 
" id="m79c907dece" style="stroke:#ff00ff;"/>
    </defs>
    <g clip-path="url(#p501bd840c5)">
     <use style="fill:#ff00ff;stroke:#ff00ff;" x="131.36927" xlink:href="#m79c907dece" y="276.53133"/>
    </g>
   </g>
   <g id="line2d_52">
    <path d="M 333.168 27.513663 
L 363.64328 289.532673 
" style="fill:none;stroke:#ff00ff;stroke-linecap:square;stroke-width:1.5;"/>
    <g>
     <use style="fill:none;stroke:#ff00ff;stroke-linejoin:miter;stroke-width:1.5;" x="333.168" xlink:href="#ma312c92535" y="27.513663"/>
     <use style="fill:none;stroke:#ff00ff;stroke-linejoin:miter;stroke-width:1.5;" x="363.64328" xlink:href="#ma312c92535" y="289.532673"/>
    </g>
   </g>
   <g id="line2d_53">
    <path d="M 333.168 27.513663 
L 363.64328 161.196832 
" style="fill:none;stroke:#000080;stroke-linecap:square;stroke-width:1.5;"/>
    <g>
     <use style="fill:none;stroke:#000080;stroke-width:1.5;" x="333.168" xlink:href="#m09e88d276f" y="27.513663"/>
     <use style="fill:none;stroke:#000080;stroke-width:1.5;" x="363.64328" xlink:href="#m09e88d276f" y="161.196832"/>
    </g>
   </g>
   <g id="line2d_54">
    <path d="M 333.168 294.88 
L 333.168 27.513663 
" style="fill:none;stroke:#000000;stroke-linecap:square;stroke-width:1.5;"/>
   </g>
   <g id="patch_3">
    <path d="M 56.12 294.88 
L 56.12 24.84 
" style="fill:none;stroke:#000000;stroke-linecap:square;stroke-linejoin:miter;stroke-width:0.8;"/>
   </g>
   <g id="patch_4">
    <path d="M 333.168 294.88 
L 333.168 24.84 
" style="fill:none;stroke:#000000;stroke-linecap:square;stroke-linejoin:miter;stroke-width:0.8;"/>
   </g>
   <g id="patch_5">
    <path d="M 56.12 294.88 
L 333.168 294.88 
" style="fill:none;stroke:#000000;stroke-linecap:square;stroke-linejoin:miter;stroke-width:0.8;"/>
   </g>
   <g id="patch_6">
    <path d="M 56.12 24.84 
L 333.168 24.84 
" style="fill:none;stroke:#000000;stroke-linecap:square;stroke-linejoin:miter;stroke-width:0.8;"/>
   </g>
   <g id="text_13">
    <!-- scipy-opt -->
    <defs>
     <path d="M 32.171875 -5.078125 
Q 28.375 -14.84375 24.75 -17.8125 
Q 21.140625 -20.796875 15.09375 -20.796875 
L 7.90625 -20.796875 
L 7.90625 -13.28125 
L 13.1875 -13.28125 
Q 16.890625 -13.28125 18.9375 -11.515625 
Q 21 -9.765625 23.484375 -3.21875 
L 25.09375 0.875 
L 2.984375 54.6875 
L 12.5 54.6875 
L 29.59375 11.921875 
L 46.6875 54.6875 
L 56.203125 54.6875 
z
" id="DejaVuSans-79"/>
    </defs>
    <g transform="translate(369.18424 294.223611)scale(0.17 -0.17)">
     <use xlink:href="#DejaVuSans-73"/>
     <use x="52.099609" xlink:href="#DejaVuSans-63"/>
     <use x="107.080078" xlink:href="#DejaVuSans-69"/>
     <use x="134.863281" xlink:href="#DejaVuSans-70"/>
     <use x="198.339844" xlink:href="#DejaVuSans-79"/>
     <use x="257.503906" xlink:href="#DejaVuSans-2d"/>
     <use x="293.603516" xlink:href="#DejaVuSans-6f"/>
     <use x="354.785156" xlink:href="#DejaVuSans-70"/>
     <use x="418.261719" xlink:href="#DejaVuSans-74"/>
    </g>
   </g>
   <g id="text_14">
    <!-- scipyAlg -->
    <defs>
     <path d="M 34.1875 63.1875 
L 20.796875 26.90625 
L 47.609375 26.90625 
z
M 28.609375 72.90625 
L 39.796875 72.90625 
L 67.578125 0 
L 57.328125 0 
L 50.6875 18.703125 
L 17.828125 18.703125 
L 11.1875 0 
L 0.78125 0 
z
" id="DejaVuSans-41"/>
    </defs>
    <g transform="translate(369.18424 165.887769)scale(0.17 -0.17)">
     <use xlink:href="#DejaVuSans-73"/>
     <use x="52.099609" xlink:href="#DejaVuSans-63"/>
     <use x="107.080078" xlink:href="#DejaVuSans-69"/>
     <use x="134.863281" xlink:href="#DejaVuSans-70"/>
     <use x="198.339844" xlink:href="#DejaVuSans-79"/>
     <use x="257.519531" xlink:href="#DejaVuSans-41"/>
     <use x="325.927734" xlink:href="#DejaVuSans-6c"/>
     <use x="353.710938" xlink:href="#DejaVuSans-67"/>
    </g>
   </g>
   <g id="text_15">
    <!-- best 2009 -->
    <defs>
     <path d="M 48.6875 27.296875 
Q 48.6875 37.203125 44.609375 42.84375 
Q 40.53125 48.484375 33.40625 48.484375 
Q 26.265625 48.484375 22.1875 42.84375 
Q 18.109375 37.203125 18.109375 27.296875 
Q 18.109375 17.390625 22.1875 11.75 
Q 26.265625 6.109375 33.40625 6.109375 
Q 40.53125 6.109375 44.609375 11.75 
Q 48.6875 17.390625 48.6875 27.296875 
z
M 18.109375 46.390625 
Q 20.953125 51.265625 25.265625 53.625 
Q 29.59375 56 35.59375 56 
Q 45.5625 56 51.78125 48.09375 
Q 58.015625 40.1875 58.015625 27.296875 
Q 58.015625 14.40625 51.78125 6.484375 
Q 45.5625 -1.421875 35.59375 -1.421875 
Q 29.59375 -1.421875 25.265625 0.953125 
Q 20.953125 3.328125 18.109375 8.203125 
L 18.109375 0 
L 9.078125 0 
L 9.078125 75.984375 
L 18.109375 75.984375 
z
" id="DejaVuSans-62"/>
     <path d="M 10.984375 1.515625 
L 10.984375 10.5 
Q 14.703125 8.734375 18.5 7.8125 
Q 22.3125 6.890625 25.984375 6.890625 
Q 35.75 6.890625 40.890625 13.453125 
Q 46.046875 20.015625 46.78125 33.40625 
Q 43.953125 29.203125 39.59375 26.953125 
Q 35.25 24.703125 29.984375 24.703125 
Q 19.046875 24.703125 12.671875 31.3125 
Q 6.296875 37.9375 6.296875 49.421875 
Q 6.296875 60.640625 12.9375 67.421875 
Q 19.578125 74.21875 30.609375 74.21875 
Q 43.265625 74.21875 49.921875 64.515625 
Q 56.59375 54.828125 56.59375 36.375 
Q 56.59375 19.140625 48.40625 8.859375 
Q 40.234375 -1.421875 26.421875 -1.421875 
Q 22.703125 -1.421875 18.890625 -0.6875 
Q 15.09375 0.046875 10.984375 1.515625 
z
M 30.609375 32.421875 
Q 37.25 32.421875 41.125 36.953125 
Q 45.015625 41.5 45.015625 49.421875 
Q 45.015625 57.28125 41.125 61.84375 
Q 37.25 66.40625 30.609375 66.40625 
Q 23.96875 66.40625 20.09375 61.84375 
Q 16.21875 57.28125 16.21875 49.421875 
Q 16.21875 41.5 20.09375 36.953125 
Q 23.96875 32.421875 30.609375 32.421875 
z
" id="DejaVuSans-39"/>
    </defs>
    <g transform="translate(369.18424 37.551928)scale(0.17 -0.17)">
     <use xlink:href="#DejaVuSans-62"/>
     <use x="63.476562" xlink:href="#DejaVuSans-65"/>
     <use x="125" xlink:href="#DejaVuSans-73"/>
     <use x="177.099609" xlink:href="#DejaVuSans-74"/>
     <use x="216.308594" xlink:href="#DejaVuSans-20"/>
     <use x="248.095703" xlink:href="#DejaVuSans-32"/>
     <use x="311.71875" xlink:href="#DejaVuSans-30"/>
     <use x="375.341797" xlink:href="#DejaVuSans-30"/>
     <use x="438.964844" xlink:href="#DejaVuSans-39"/>
    </g>
   </g>
   <g id="text_16">
    <!-- bbob f2, 3-D -->
    <defs>
     <path d="M 40.578125 39.3125 
Q 47.65625 37.796875 51.625 33 
Q 55.609375 28.21875 55.609375 21.1875 
Q 55.609375 10.40625 48.1875 4.484375 
Q 40.765625 -1.421875 27.09375 -1.421875 
Q 22.515625 -1.421875 17.65625 -0.515625 
Q 12.796875 0.390625 7.625 2.203125 
L 7.625 11.71875 
Q 11.71875 9.328125 16.59375 8.109375 
Q 21.484375 6.890625 26.8125 6.890625 
Q 36.078125 6.890625 40.9375 10.546875 
Q 45.796875 14.203125 45.796875 21.1875 
Q 45.796875 27.640625 41.28125 31.265625 
Q 36.765625 34.90625 28.71875 34.90625 
L 20.21875 34.90625 
L 20.21875 43.015625 
L 29.109375 43.015625 
Q 36.375 43.015625 40.234375 45.921875 
Q 44.09375 48.828125 44.09375 54.296875 
Q 44.09375 59.90625 40.109375 62.90625 
Q 36.140625 65.921875 28.71875 65.921875 
Q 24.65625 65.921875 20.015625 65.03125 
Q 15.375 64.15625 9.8125 62.3125 
L 9.8125 71.09375 
Q 15.4375 72.65625 20.34375 73.4375 
Q 25.25 74.21875 29.59375 74.21875 
Q 40.828125 74.21875 47.359375 69.109375 
Q 53.90625 64.015625 53.90625 55.328125 
Q 53.90625 49.265625 50.4375 45.09375 
Q 46.96875 40.921875 40.578125 39.3125 
z
" id="DejaVuSans-33"/>
     <path d="M 19.671875 64.796875 
L 19.671875 8.109375 
L 31.59375 8.109375 
Q 46.6875 8.109375 53.6875 14.9375 
Q 60.6875 21.78125 60.6875 36.53125 
Q 60.6875 51.171875 53.6875 57.984375 
Q 46.6875 64.796875 31.59375 64.796875 
z
M 9.8125 72.90625 
L 30.078125 72.90625 
Q 51.265625 72.90625 61.171875 64.09375 
Q 71.09375 55.28125 71.09375 36.53125 
Q 71.09375 17.671875 61.125 8.828125 
Q 51.171875 0 30.078125 0 
L 9.8125 0 
z
" id="DejaVuSans-44"/>
    </defs>
    <g transform="translate(58.89048 35.290806)scale(0.102 -0.102)">
     <use xlink:href="#DejaVuSans-62"/>
     <use x="63.476562" xlink:href="#DejaVuSans-62"/>
     <use x="126.953125" xlink:href="#DejaVuSans-6f"/>
     <use x="188.134766" xlink:href="#DejaVuSans-62"/>
     <use x="251.611328" xlink:href="#DejaVuSans-20"/>
     <use x="283.398438" xlink:href="#DejaVuSans-66"/>
     <use x="318.603516" xlink:href="#DejaVuSans-32"/>
     <use x="382.226562" xlink:href="#DejaVuSans-2c"/>
     <use x="414.013672" xlink:href="#DejaVuSans-20"/>
     <use x="445.800781" xlink:href="#DejaVuSans-33"/>
     <use x="509.423828" xlink:href="#DejaVuSans-2d"/>
     <use x="545.507812" xlink:href="#DejaVuSans-44"/>
    </g>
    <!-- 51 targets: 100..1e-08 -->
    <defs>
     <path d="M 10.796875 72.90625 
L 49.515625 72.90625 
L 49.515625 64.59375 
L 19.828125 64.59375 
L 19.828125 46.734375 
Q 21.96875 47.46875 24.109375 47.828125 
Q 26.265625 48.1875 28.421875 48.1875 
Q 40.625 48.1875 47.75 41.5 
Q 54.890625 34.8125 54.890625 23.390625 
Q 54.890625 11.625 47.5625 5.09375 
Q 40.234375 -1.421875 26.90625 -1.421875 
Q 22.3125 -1.421875 17.546875 -0.640625 
Q 12.796875 0.140625 7.71875 1.703125 
L 7.71875 11.625 
Q 12.109375 9.234375 16.796875 8.0625 
Q 21.484375 6.890625 26.703125 6.890625 
Q 35.15625 6.890625 40.078125 11.328125 
Q 45.015625 15.765625 45.015625 23.390625 
Q 45.015625 31 40.078125 35.4375 
Q 35.15625 39.890625 26.703125 39.890625 
Q 22.75 39.890625 18.8125 39.015625 
Q 14.890625 38.140625 10.796875 36.28125 
z
" id="DejaVuSans-35"/>
     <path d="M 11.71875 12.40625 
L 22.015625 12.40625 
L 22.015625 0 
L 11.71875 0 
z
M 11.71875 51.703125 
L 22.015625 51.703125 
L 22.015625 39.3125 
L 11.71875 39.3125 
z
" id="DejaVuSans-3a"/>
    </defs>
    <g transform="translate(58.89048 46.712575)scale(0.102 -0.102)">
     <use xlink:href="#DejaVuSans-35"/>
     <use x="63.623047" xlink:href="#DejaVuSans-31"/>
     <use x="127.246094" xlink:href="#DejaVuSans-20"/>
     <use x="159.033203" xlink:href="#DejaVuSans-74"/>
     <use x="198.242188" xlink:href="#DejaVuSans-61"/>
     <use x="259.521484" xlink:href="#DejaVuSans-72"/>
     <use x="300.619141" xlink:href="#DejaVuSans-67"/>
     <use x="364.095703" xlink:href="#DejaVuSans-65"/>
     <use x="425.619141" xlink:href="#DejaVuSans-74"/>
     <use x="464.828125" xlink:href="#DejaVuSans-73"/>
     <use x="516.927734" xlink:href="#DejaVuSans-3a"/>
     <use x="550.619141" xlink:href="#DejaVuSans-20"/>
     <use x="582.40625" xlink:href="#DejaVuSans-31"/>
     <use x="646.029297" xlink:href="#DejaVuSans-30"/>
     <use x="709.652344" xlink:href="#DejaVuSans-30"/>
     <use x="773.275391" xlink:href="#DejaVuSans-2e"/>
     <use x="805.0625" xlink:href="#DejaVuSans-2e"/>
     <use x="836.849609" xlink:href="#DejaVuSans-31"/>
     <use x="900.472656" xlink:href="#DejaVuSans-65"/>
     <use x="961.996094" xlink:href="#DejaVuSans-2d"/>
     <use x="998.080078" xlink:href="#DejaVuSans-30"/>
     <use x="1061.703125" xlink:href="#DejaVuSans-38"/>
    </g>
    <!-- 15 instances -->
    <g transform="translate(58.89048 58.134344)scale(0.102 -0.102)">
     <use xlink:href="#DejaVuSans-31"/>
     <use x="63.623047" xlink:href="#DejaVuSans-35"/>
     <use x="127.246094" xlink:href="#DejaVuSans-20"/>
     <use x="159.033203" xlink:href="#DejaVuSans-69"/>
     <use x="186.816406" xlink:href="#DejaVuSans-6e"/>
     <use x="250.195312" xlink:href="#DejaVuSans-73"/>
     <use x="302.294922" xlink:href="#DejaVuSans-74"/>
     <use x="341.503906" xlink:href="#DejaVuSans-61"/>
     <use x="402.783203" xlink:href="#DejaVuSans-6e"/>
     <use x="466.162109" xlink:href="#DejaVuSans-63"/>
     <use x="521.142578" xlink:href="#DejaVuSans-65"/>
     <use x="582.666016" xlink:href="#DejaVuSans-73"/>
    </g>
   </g>
   <g id="text_17">
    <!-- v0.0.0 -->
    <g style="fill:#808080;" transform="translate(178.96275 290.099912)scale(0.1 -0.1)">
     <use xlink:href="#DejaVuSans-76"/>
     <use x="59.179688" xlink:href="#DejaVuSans-30"/>
     <use x="122.802734" xlink:href="#DejaVuSans-2e"/>
     <use x="154.589844" xlink:href="#DejaVuSans-30"/>
     <use x="218.212891" xlink:href="#DejaVuSans-2e"/>
     <use x="250" xlink:href="#DejaVuSans-30"/>
    </g>
   </g>
   <g id="text_18">
    <!-- 2 Ellipsoid separable -->
    <defs>
     <path d="M 9.8125 72.90625 
L 55.90625 72.90625 
L 55.90625 64.59375 
L 19.671875 64.59375 
L 19.671875 43.015625 
L 54.390625 43.015625 
L 54.390625 34.71875 
L 19.671875 34.71875 
L 19.671875 8.296875 
L 56.78125 8.296875 
L 56.78125 0 
L 9.8125 0 
z
" id="DejaVuSans-45"/>
    </defs>
    <g transform="translate(91.111187 18.84)scale(0.2 -0.2)">
     <use xlink:href="#DejaVuSans-32"/>
     <use x="63.623047" xlink:href="#DejaVuSans-20"/>
     <use x="95.410156" xlink:href="#DejaVuSans-45"/>
     <use x="158.59375" xlink:href="#DejaVuSans-6c"/>
     <use x="186.376953" xlink:href="#DejaVuSans-6c"/>
     <use x="214.160156" xlink:href="#DejaVuSans-69"/>
     <use x="241.943359" xlink:href="#DejaVuSans-70"/>
     <use x="305.419922" xlink:href="#DejaVuSans-73"/>
     <use x="357.519531" xlink:href="#DejaVuSans-6f"/>
     <use x="418.701172" xlink:href="#DejaVuSans-69"/>
     <use x="446.484375" xlink:href="#DejaVuSans-64"/>
     <use x="509.960938" xlink:href="#DejaVuSans-20"/>
     <use x="541.748047" xlink:href="#DejaVuSans-73"/>
     <use x="593.847656" xlink:href="#DejaVuSans-65"/>
     <use x="655.371094" xlink:href="#DejaVuSans-70"/>
     <use x="718.847656" xlink:href="#DejaVuSans-61"/>
     <use x="780.126953" xlink:href="#DejaVuSans-72"/>
     <use x="821.240234" xlink:href="#DejaVuSans-61"/>
     <use x="882.519531" xlink:href="#DejaVuSans-62"/>
     <use x="945.996094" xlink:href="#DejaVuSans-6c"/>
     <use x="973.779297" xlink:href="#DejaVuSans-65"/>
    </g>
   </g>
  </g>
 </g>
 <defs>
  <clipPath id="p501bd840c5">
   <rect height="270.04" width="277.048" x="56.12" y="24.84"/>
  </clipPath>
 </defs>
</svg>
