<?xml version="1.0" encoding="utf-8" standalone="no"?>
<!DOCTYPE svg PUBLIC "-//W3C//DTD SVG 1.1//EN"
  "http://www.w3.org/Graphics/SVG/1.1/DTD/svg11.dtd">
<!-- Created with matplotlib (http://matplotlib.org/) -->
<svg height="345pt" version="1.1" viewBox="0 0 460 345" width="460pt" xmlns="http://www.w3.org/2000/svg" xmlns:xlink="http://www.w3.org/1999/xlink">
 <defs>
  <style type="text/css">
*{stroke-linecap:butt;stroke-linejoin:round;}
  </style>
 </defs>
 <g id="figure_1">
  <g id="patch_1">
   <path d="M 0 345.6 
L 460.8 345.6 
L 460.8 0 
L 0 0 
z
" style="fill:#ffffff;"/>
  </g>
  <g id="axes_1">
   <g id="patch_2">
    <path d="M 34.16 291.28 
L 446.924475 291.28 
L 446.924475 5.52 
L 34.16 5.52 
z
" style="fill:#ffffff;"/>
   </g>
   <g id="matplotlib.axis_1">
    <g id="xtick_1">
     <g id="line2d_1">
      <path clip-path="url(#p26a0f922ab)" d="M 34.249547 291.28 
L 34.249547 5.52 
" style="fill:none;stroke:#b0b0b0;stroke-linecap:square;stroke-width:0.8;"/>
     </g>
     <g id="line2d_2">
      <defs>
       <path d="M 0 0 
L 0 3.5 
" id="m0425f23a47" style="stroke:#000000;stroke-width:0.8;"/>
      </defs>
      <g>
       <use style="stroke:#000000;stroke-width:0.8;" x="34.249547" xlink:href="#m0425f23a47" y="291.28"/>
      </g>
     </g>
     <g id="text_1">
      <!-- -1 -->
      <defs>
       <path d="M 4.890625 31.390625 
L 31.203125 31.390625 
L 31.203125 23.390625 
L 4.890625 23.390625 
z
" id="DejaVuSans-2d"/>
       <path d="M 12.40625 8.296875 
L 28.515625 8.296875 
L 28.515625 63.921875 
L 10.984375 60.40625 
L 10.984375 69.390625 
L 28.421875 72.90625 
L 38.28125 72.90625 
L 38.28125 8.296875 
L 54.390625 8.296875 
L 54.390625 0 
L 12.40625 0 
z
" id="DejaVuSans-31"/>
      </defs>
      <g transform="translate(24.279235 313.476875)scale(0.2 -0.2)">
       <use xlink:href="#DejaVuSans-2d"/>
       <use x="36.083984" xlink:href="#DejaVuSans-31"/>
      </g>
     </g>
    </g>
    <g id="xtick_2">
     <g id="line2d_3">
      <path clip-path="url(#p26a0f922ab)" d="M 240.542238 291.28 
L 240.542238 5.52 
" style="fill:none;stroke:#b0b0b0;stroke-linecap:square;stroke-width:0.8;"/>
     </g>
     <g id="line2d_4">
      <g>
       <use style="stroke:#000000;stroke-width:0.8;" x="240.542238" xlink:href="#m0425f23a47" y="291.28"/>
      </g>
     </g>
     <g id="text_2">
      <!-- 0 -->
      <defs>
       <path d="M 31.78125 66.40625 
Q 24.171875 66.40625 20.328125 58.90625 
Q 16.5 51.421875 16.5 36.375 
Q 16.5 21.390625 20.328125 13.890625 
Q 24.171875 6.390625 31.78125 6.390625 
Q 39.453125 6.390625 43.28125 13.890625 
Q 47.125 21.390625 47.125 36.375 
Q 47.125 51.421875 43.28125 58.90625 
Q 39.453125 66.40625 31.78125 66.40625 
z
M 31.78125 74.21875 
Q 44.046875 74.21875 50.515625 64.515625 
Q 56.984375 54.828125 56.984375 36.375 
Q 56.984375 17.96875 50.515625 8.265625 
Q 44.046875 -1.421875 31.78125 -1.421875 
Q 19.53125 -1.421875 13.0625 8.265625 
Q 6.59375 17.96875 6.59375 36.375 
Q 6.59375 54.828125 13.0625 64.515625 
Q 19.53125 74.21875 31.78125 74.21875 
z
" id="DejaVuSans-30"/>
      </defs>
      <g transform="translate(234.179738 313.476875)scale(0.2 -0.2)">
       <use xlink:href="#DejaVuSans-30"/>
      </g>
     </g>
    </g>
    <g id="xtick_3">
     <g id="line2d_5">
      <path clip-path="url(#p26a0f922ab)" d="M 446.834928 291.28 
L 446.834928 5.52 
" style="fill:none;stroke:#b0b0b0;stroke-linecap:square;stroke-width:0.8;"/>
     </g>
     <g id="line2d_6">
      <g>
       <use style="stroke:#000000;stroke-width:0.8;" x="446.834928" xlink:href="#m0425f23a47" y="291.28"/>
      </g>
     </g>
     <g id="text_3">
      <!-- 1 -->
      <g transform="translate(440.472428 313.476875)scale(0.2 -0.2)">
       <use xlink:href="#DejaVuSans-31"/>
      </g>
     </g>
    </g>
    <g id="xtick_4">
     <g id="line2d_7">
      <defs>
       <path d="M 0 0 
L 0 2 
" id="mb1ace588eb" style="stroke:#000000;stroke-width:0.6;"/>
      </defs>
      <g>
       <use style="stroke:#000000;stroke-width:0.6;" x="96.349835" xlink:href="#mb1ace588eb" y="291.28"/>
      </g>
     </g>
    </g>
    <g id="xtick_5">
     <g id="line2d_8">
      <g>
       <use style="stroke:#000000;stroke-width:0.6;" x="132.676174" xlink:href="#mb1ace588eb" y="291.28"/>
      </g>
     </g>
    </g>
    <g id="xtick_6">
     <g id="line2d_9">
      <g>
       <use style="stroke:#000000;stroke-width:0.6;" x="158.450123" xlink:href="#mb1ace588eb" y="291.28"/>
      </g>
     </g>
    </g>
    <g id="xtick_7">
     <g id="line2d_10">
      <g>
       <use style="stroke:#000000;stroke-width:0.6;" x="178.44195" xlink:href="#mb1ace588eb" y="291.28"/>
      </g>
     </g>
    </g>
    <g id="xtick_8">
     <g id="line2d_11">
      <g>
       <use style="stroke:#000000;stroke-width:0.6;" x="194.776462" xlink:href="#mb1ace588eb" y="291.28"/>
      </g>
     </g>
    </g>
    <g id="xtick_9">
     <g id="line2d_12">
      <g>
       <use style="stroke:#000000;stroke-width:0.6;" x="208.587096" xlink:href="#mb1ace588eb" y="291.28"/>
      </g>
     </g>
    </g>
    <g id="xtick_10">
     <g id="line2d_13">
      <g>
       <use style="stroke:#000000;stroke-width:0.6;" x="220.55041" xlink:href="#mb1ace588eb" y="291.28"/>
      </g>
     </g>
    </g>
    <g id="xtick_11">
     <g id="line2d_14">
      <g>
       <use style="stroke:#000000;stroke-width:0.6;" x="231.102802" xlink:href="#mb1ace588eb" y="291.28"/>
      </g>
     </g>
    </g>
    <g id="xtick_12">
     <g id="line2d_15">
      <g>
       <use style="stroke:#000000;stroke-width:0.6;" x="302.642525" xlink:href="#mb1ace588eb" y="291.28"/>
      </g>
     </g>
    </g>
    <g id="xtick_13">
     <g id="line2d_16">
      <g>
       <use style="stroke:#000000;stroke-width:0.6;" x="338.968865" xlink:href="#mb1ace588eb" y="291.28"/>
      </g>
     </g>
    </g>
    <g id="xtick_14">
     <g id="line2d_17">
      <g>
       <use style="stroke:#000000;stroke-width:0.6;" x="364.742813" xlink:href="#mb1ace588eb" y="291.28"/>
      </g>
     </g>
    </g>
    <g id="xtick_15">
     <g id="line2d_18">
      <g>
       <use style="stroke:#000000;stroke-width:0.6;" x="384.73464" xlink:href="#mb1ace588eb" y="291.28"/>
      </g>
     </g>
    </g>
    <g id="xtick_16">
     <g id="line2d_19">
      <g>
       <use style="stroke:#000000;stroke-width:0.6;" x="401.069153" xlink:href="#mb1ace588eb" y="291.28"/>
      </g>
     </g>
    </g>
    <g id="xtick_17">
     <g id="line2d_20">
      <g>
       <use style="stroke:#000000;stroke-width:0.6;" x="414.879786" xlink:href="#mb1ace588eb" y="291.28"/>
      </g>
     </g>
    </g>
    <g id="xtick_18">
     <g id="line2d_21">
      <g>
       <use style="stroke:#000000;stroke-width:0.6;" x="426.843101" xlink:href="#mb1ace588eb" y="291.28"/>
      </g>
     </g>
    </g>
    <g id="xtick_19">
     <g id="line2d_22">
      <g>
       <use style="stroke:#000000;stroke-width:0.6;" x="437.395492" xlink:href="#mb1ace588eb" y="291.28"/>
      </g>
     </g>
    </g>
    <g id="text_4">
     <!-- log10 of FEvals ratio -->
     <defs>
      <path d="M 9.421875 75.984375 
L 18.40625 75.984375 
L 18.40625 0 
L 9.421875 0 
z
" id="DejaVuSans-6c"/>
      <path d="M 30.609375 48.390625 
Q 23.390625 48.390625 19.1875 42.75 
Q 14.984375 37.109375 14.984375 27.296875 
Q 14.984375 17.484375 19.15625 11.84375 
Q 23.34375 6.203125 30.609375 6.203125 
Q 37.796875 6.203125 41.984375 11.859375 
Q 46.1875 17.53125 46.1875 27.296875 
Q 46.1875 37.015625 41.984375 42.703125 
Q 37.796875 48.390625 30.609375 48.390625 
z
M 30.609375 56 
Q 42.328125 56 49.015625 48.375 
Q 55.71875 40.765625 55.71875 27.296875 
Q 55.71875 13.875 49.015625 6.21875 
Q 42.328125 -1.421875 30.609375 -1.421875 
Q 18.84375 -1.421875 12.171875 6.21875 
Q 5.515625 13.875 5.515625 27.296875 
Q 5.515625 40.765625 12.171875 48.375 
Q 18.84375 56 30.609375 56 
z
" id="DejaVuSans-6f"/>
      <path d="M 45.40625 27.984375 
Q 45.40625 37.75 41.375 43.109375 
Q 37.359375 48.484375 30.078125 48.484375 
Q 22.859375 48.484375 18.828125 43.109375 
Q 14.796875 37.75 14.796875 27.984375 
Q 14.796875 18.265625 18.828125 12.890625 
Q 22.859375 7.515625 30.078125 7.515625 
Q 37.359375 7.515625 41.375 12.890625 
Q 45.40625 18.265625 45.40625 27.984375 
z
M 54.390625 6.78125 
Q 54.390625 -7.171875 48.1875 -13.984375 
Q 42 -20.796875 29.203125 -20.796875 
Q 24.46875 -20.796875 20.265625 -20.09375 
Q 16.0625 -19.390625 12.109375 -17.921875 
L 12.109375 -9.1875 
Q 16.0625 -11.328125 19.921875 -12.34375 
Q 23.78125 -13.375 27.78125 -13.375 
Q 36.625 -13.375 41.015625 -8.765625 
Q 45.40625 -4.15625 45.40625 5.171875 
L 45.40625 9.625 
Q 42.625 4.78125 38.28125 2.390625 
Q 33.9375 0 27.875 0 
Q 17.828125 0 11.671875 7.65625 
Q 5.515625 15.328125 5.515625 27.984375 
Q 5.515625 40.671875 11.671875 48.328125 
Q 17.828125 56 27.875 56 
Q 33.9375 56 38.28125 53.609375 
Q 42.625 51.21875 45.40625 46.390625 
L 45.40625 54.6875 
L 54.390625 54.6875 
z
" id="DejaVuSans-67"/>
      <path id="DejaVuSans-20"/>
      <path d="M 37.109375 75.984375 
L 37.109375 68.5 
L 28.515625 68.5 
Q 23.6875 68.5 21.796875 66.546875 
Q 19.921875 64.59375 19.921875 59.515625 
L 19.921875 54.6875 
L 34.71875 54.6875 
L 34.71875 47.703125 
L 19.921875 47.703125 
L 19.921875 0 
L 10.890625 0 
L 10.890625 47.703125 
L 2.296875 47.703125 
L 2.296875 54.6875 
L 10.890625 54.6875 
L 10.890625 58.5 
Q 10.890625 67.625 15.140625 71.796875 
Q 19.390625 75.984375 28.609375 75.984375 
z
" id="DejaVuSans-66"/>
      <path d="M 9.8125 72.90625 
L 51.703125 72.90625 
L 51.703125 64.59375 
L 19.671875 64.59375 
L 19.671875 43.109375 
L 48.578125 43.109375 
L 48.578125 34.8125 
L 19.671875 34.8125 
L 19.671875 0 
L 9.8125 0 
z
" id="DejaVuSans-46"/>
      <path d="M 9.8125 72.90625 
L 55.90625 72.90625 
L 55.90625 64.59375 
L 19.671875 64.59375 
L 19.671875 43.015625 
L 54.390625 43.015625 
L 54.390625 34.71875 
L 19.671875 34.71875 
L 19.671875 8.296875 
L 56.78125 8.296875 
L 56.78125 0 
L 9.8125 0 
z
" id="DejaVuSans-45"/>
      <path d="M 2.984375 54.6875 
L 12.5 54.6875 
L 29.59375 8.796875 
L 46.6875 54.6875 
L 56.203125 54.6875 
L 35.6875 0 
L 23.484375 0 
z
" id="DejaVuSans-76"/>
      <path d="M 34.28125 27.484375 
Q 23.390625 27.484375 19.1875 25 
Q 14.984375 22.515625 14.984375 16.5 
Q 14.984375 11.71875 18.140625 8.90625 
Q 21.296875 6.109375 26.703125 6.109375 
Q 34.1875 6.109375 38.703125 11.40625 
Q 43.21875 16.703125 43.21875 25.484375 
L 43.21875 27.484375 
z
M 52.203125 31.203125 
L 52.203125 0 
L 43.21875 0 
L 43.21875 8.296875 
Q 40.140625 3.328125 35.546875 0.953125 
Q 30.953125 -1.421875 24.3125 -1.421875 
Q 15.921875 -1.421875 10.953125 3.296875 
Q 6 8.015625 6 15.921875 
Q 6 25.140625 12.171875 29.828125 
Q 18.359375 34.515625 30.609375 34.515625 
L 43.21875 34.515625 
L 43.21875 35.40625 
Q 43.21875 41.609375 39.140625 45 
Q 35.0625 48.390625 27.6875 48.390625 
Q 23 48.390625 18.546875 47.265625 
Q 14.109375 46.140625 10.015625 43.890625 
L 10.015625 52.203125 
Q 14.9375 54.109375 19.578125 55.046875 
Q 24.21875 56 28.609375 56 
Q 40.484375 56 46.34375 49.84375 
Q 52.203125 43.703125 52.203125 31.203125 
z
" id="DejaVuSans-61"/>
      <path d="M 44.28125 53.078125 
L 44.28125 44.578125 
Q 40.484375 46.53125 36.375 47.5 
Q 32.28125 48.484375 27.875 48.484375 
Q 21.1875 48.484375 17.84375 46.4375 
Q 14.5 44.390625 14.5 40.28125 
Q 14.5 37.15625 16.890625 35.375 
Q 19.28125 33.59375 26.515625 31.984375 
L 29.59375 31.296875 
Q 39.15625 29.25 43.1875 25.515625 
Q 47.21875 21.78125 47.21875 15.09375 
Q 47.21875 7.46875 41.1875 3.015625 
Q 35.15625 -1.421875 24.609375 -1.421875 
Q 20.21875 -1.421875 15.453125 -0.5625 
Q 10.6875 0.296875 5.421875 2 
L 5.421875 11.28125 
Q 10.40625 8.6875 15.234375 7.390625 
Q 20.0625 6.109375 24.8125 6.109375 
Q 31.15625 6.109375 34.5625 8.28125 
Q 37.984375 10.453125 37.984375 14.40625 
Q 37.984375 18.0625 35.515625 20.015625 
Q 33.0625 21.96875 24.703125 23.78125 
L 21.578125 24.515625 
Q 13.234375 26.265625 9.515625 29.90625 
Q 5.8125 33.546875 5.8125 39.890625 
Q 5.8125 47.609375 11.28125 51.796875 
Q 16.75 56 26.8125 56 
Q 31.78125 56 36.171875 55.265625 
Q 40.578125 54.546875 44.28125 53.078125 
z
" id="DejaVuSans-73"/>
      <path d="M 41.109375 46.296875 
Q 39.59375 47.171875 37.8125 47.578125 
Q 36.03125 48 33.890625 48 
Q 26.265625 48 22.1875 43.046875 
Q 18.109375 38.09375 18.109375 28.8125 
L 18.109375 0 
L 9.078125 0 
L 9.078125 54.6875 
L 18.109375 54.6875 
L 18.109375 46.1875 
Q 20.953125 51.171875 25.484375 53.578125 
Q 30.03125 56 36.53125 56 
Q 37.453125 56 38.578125 55.875 
Q 39.703125 55.765625 41.0625 55.515625 
z
" id="DejaVuSans-72"/>
      <path d="M 18.3125 70.21875 
L 18.3125 54.6875 
L 36.8125 54.6875 
L 36.8125 47.703125 
L 18.3125 47.703125 
L 18.3125 18.015625 
Q 18.3125 11.328125 20.140625 9.421875 
Q 21.96875 7.515625 27.59375 7.515625 
L 36.8125 7.515625 
L 36.8125 0 
L 27.59375 0 
Q 17.1875 0 13.234375 3.875 
Q 9.28125 7.765625 9.28125 18.015625 
L 9.28125 47.703125 
L 2.6875 47.703125 
L 2.6875 54.6875 
L 9.28125 54.6875 
L 9.28125 70.21875 
z
" id="DejaVuSans-74"/>
      <path d="M 9.421875 54.6875 
L 18.40625 54.6875 
L 18.40625 0 
L 9.421875 0 
z
M 9.421875 75.984375 
L 18.40625 75.984375 
L 18.40625 64.59375 
L 9.421875 64.59375 
z
" id="DejaVuSans-69"/>
     </defs>
     <g transform="translate(138.23755 336.833125)scale(0.2 -0.2)">
      <use xlink:href="#DejaVuSans-6c"/>
      <use x="27.783203" xlink:href="#DejaVuSans-6f"/>
      <use x="88.964844" xlink:href="#DejaVuSans-67"/>
      <use x="152.441406" xlink:href="#DejaVuSans-31"/>
      <use x="216.064453" xlink:href="#DejaVuSans-30"/>
      <use x="279.6875" xlink:href="#DejaVuSans-20"/>
      <use x="311.474609" xlink:href="#DejaVuSans-6f"/>
      <use x="372.65625" xlink:href="#DejaVuSans-66"/>
      <use x="407.861328" xlink:href="#DejaVuSans-20"/>
      <use x="439.648438" xlink:href="#DejaVuSans-46"/>
      <use x="497.167969" xlink:href="#DejaVuSans-45"/>
      <use x="560.351562" xlink:href="#DejaVuSans-76"/>
      <use x="619.53125" xlink:href="#DejaVuSans-61"/>
      <use x="680.810547" xlink:href="#DejaVuSans-6c"/>
      <use x="708.59375" xlink:href="#DejaVuSans-73"/>
      <use x="760.693359" xlink:href="#DejaVuSans-20"/>
      <use x="792.480469" xlink:href="#DejaVuSans-72"/>
      <use x="833.59375" xlink:href="#DejaVuSans-61"/>
      <use x="894.873047" xlink:href="#DejaVuSans-74"/>
      <use x="934.082031" xlink:href="#DejaVuSans-69"/>
      <use x="961.865234" xlink:href="#DejaVuSans-6f"/>
     </g>
    </g>
   </g>
   <g id="matplotlib.axis_2">
    <g id="ytick_1">
     <g id="line2d_23">
      <path clip-path="url(#p26a0f922ab)" d="M 34.16 288.478431 
L 446.924475 288.478431 
" style="fill:none;stroke:#b0b0b0;stroke-linecap:square;stroke-width:0.8;"/>
     </g>
     <g id="line2d_24">
      <defs>
       <path d="M 0 0 
L -3.5 0 
" id="m483777bf48" style="stroke:#000000;stroke-width:0.8;"/>
      </defs>
      <g>
       <use style="stroke:#000000;stroke-width:0.8;" x="34.16" xlink:href="#m483777bf48" y="288.478431"/>
      </g>
     </g>
    </g>
    <g id="ytick_2">
     <g id="line2d_25">
      <path clip-path="url(#p26a0f922ab)" d="M 34.16 218.439216 
L 446.924475 218.439216 
" style="fill:none;stroke:#b0b0b0;stroke-linecap:square;stroke-width:0.8;"/>
     </g>
     <g id="line2d_26">
      <g>
       <use style="stroke:#000000;stroke-width:0.8;" x="34.16" xlink:href="#m483777bf48" y="218.439216"/>
      </g>
     </g>
    </g>
    <g id="ytick_3">
     <g id="line2d_27">
      <path clip-path="url(#p26a0f922ab)" d="M 34.16 148.4 
L 446.924475 148.4 
" style="fill:none;stroke:#b0b0b0;stroke-linecap:square;stroke-width:0.8;"/>
     </g>
     <g id="line2d_28">
      <g>
       <use style="stroke:#000000;stroke-width:0.8;" x="34.16" xlink:href="#m483777bf48" y="148.4"/>
      </g>
     </g>
    </g>
    <g id="ytick_4">
     <g id="line2d_29">
      <path clip-path="url(#p26a0f922ab)" d="M 34.16 78.360784 
L 446.924475 78.360784 
" style="fill:none;stroke:#b0b0b0;stroke-linecap:square;stroke-width:0.8;"/>
     </g>
     <g id="line2d_30">
      <g>
       <use style="stroke:#000000;stroke-width:0.8;" x="34.16" xlink:href="#m483777bf48" y="78.360784"/>
      </g>
     </g>
    </g>
    <g id="ytick_5">
     <g id="line2d_31">
      <path clip-path="url(#p26a0f922ab)" d="M 34.16 8.321569 
L 446.924475 8.321569 
" style="fill:none;stroke:#b0b0b0;stroke-linecap:square;stroke-width:0.8;"/>
     </g>
     <g id="line2d_32">
      <g>
       <use style="stroke:#000000;stroke-width:0.8;" x="34.16" xlink:href="#m483777bf48" y="8.321569"/>
      </g>
     </g>
    </g>
    <g id="text_5">
     <!-- proportion of trials -->
     <defs>
      <path d="M 18.109375 8.203125 
L 18.109375 -20.796875 
L 9.078125 -20.796875 
L 9.078125 54.6875 
L 18.109375 54.6875 
L 18.109375 46.390625 
Q 20.953125 51.265625 25.265625 53.625 
Q 29.59375 56 35.59375 56 
Q 45.5625 56 51.78125 48.09375 
Q 58.015625 40.1875 58.015625 27.296875 
Q 58.015625 14.40625 51.78125 6.484375 
Q 45.5625 -1.421875 35.59375 -1.421875 
Q 29.59375 -1.421875 25.265625 0.953125 
Q 20.953125 3.328125 18.109375 8.203125 
z
M 48.6875 27.296875 
Q 48.6875 37.203125 44.609375 42.84375 
Q 40.53125 48.484375 33.40625 48.484375 
Q 26.265625 48.484375 22.1875 42.84375 
Q 18.109375 37.203125 18.109375 27.296875 
Q 18.109375 17.390625 22.1875 11.75 
Q 26.265625 6.109375 33.40625 6.109375 
Q 40.53125 6.109375 44.609375 11.75 
Q 48.6875 17.390625 48.6875 27.296875 
z
" id="DejaVuSans-70"/>
      <path d="M 54.890625 33.015625 
L 54.890625 0 
L 45.90625 0 
L 45.90625 32.71875 
Q 45.90625 40.484375 42.875 44.328125 
Q 39.84375 48.1875 33.796875 48.1875 
Q 26.515625 48.1875 22.3125 43.546875 
Q 18.109375 38.921875 18.109375 30.90625 
L 18.109375 0 
L 9.078125 0 
L 9.078125 54.6875 
L 18.109375 54.6875 
L 18.109375 46.1875 
Q 21.34375 51.125 25.703125 53.5625 
Q 30.078125 56 35.796875 56 
Q 45.21875 56 50.046875 50.171875 
Q 54.890625 44.34375 54.890625 33.015625 
z
" id="DejaVuSans-6e"/>
     </defs>
     <g transform="translate(19.000625 241.628125)rotate(-90)scale(0.2 -0.2)">
      <use xlink:href="#DejaVuSans-70"/>
      <use x="63.476562" xlink:href="#DejaVuSans-72"/>
      <use x="104.558594" xlink:href="#DejaVuSans-6f"/>
      <use x="165.740234" xlink:href="#DejaVuSans-70"/>
      <use x="229.216797" xlink:href="#DejaVuSans-6f"/>
      <use x="290.398438" xlink:href="#DejaVuSans-72"/>
      <use x="331.511719" xlink:href="#DejaVuSans-74"/>
      <use x="370.720703" xlink:href="#DejaVuSans-69"/>
      <use x="398.503906" xlink:href="#DejaVuSans-6f"/>
      <use x="459.685547" xlink:href="#DejaVuSans-6e"/>
      <use x="523.064453" xlink:href="#DejaVuSans-20"/>
      <use x="554.851562" xlink:href="#DejaVuSans-6f"/>
      <use x="616.033203" xlink:href="#DejaVuSans-66"/>
      <use x="651.238281" xlink:href="#DejaVuSans-20"/>
      <use x="683.025391" xlink:href="#DejaVuSans-74"/>
      <use x="722.234375" xlink:href="#DejaVuSans-72"/>
      <use x="763.347656" xlink:href="#DejaVuSans-69"/>
      <use x="791.130859" xlink:href="#DejaVuSans-61"/>
      <use x="852.410156" xlink:href="#DejaVuSans-6c"/>
      <use x="880.193359" xlink:href="#DejaVuSans-73"/>
     </g>
    </g>
   </g>
   <g id="line2d_33">
    <path clip-path="url(#p26a0f922ab)" d="M 34.16 242.653517 
L 102.764037 242.653517 
L 102.764037 242.132779 
L 104.378347 242.132779 
L 104.378347 241.091304 
L 109.673114 241.091304 
L 109.673114 240.570566 
L 111.287424 240.570566 
L 111.287424 239.529091 
L 115.128211 239.529091 
L 115.128211 239.008353 
L 116.742521 239.008353 
L 116.742521 237.966878 
L 119.238646 237.966878 
L 119.238646 237.44614 
L 120.852956 237.44614 
L 120.93712 235.883927 
L 122.551429 235.883927 
L 122.551429 234.842452 
L 122.668415 234.842452 
L 122.668415 234.321714 
L 124.282725 234.321714 
L 124.282725 233.280239 
L 128.072573 233.280239 
L 128.072573 232.759501 
L 129.476128 232.759501 
L 129.476128 232.238764 
L 129.686883 232.238764 
L 129.686883 231.197288 
L 131.090438 231.197288 
L 131.090438 230.155813 
L 140.693489 230.155813 
L 140.704687 229.114338 
L 145.618015 229.114338 
L 145.618015 228.5936 
L 147.613763 228.5936 
L 147.613763 228.072862 
L 153.06886 228.072862 
L 153.06886 227.552125 
L 156.917632 227.552125 
L 156.917632 227.031387 
L 157.179296 227.031387 
L 157.179296 226.510649 
L 158.124925 226.510649 
L 158.15198 225.469174 
L 158.622029 225.469174 
L 158.622029 224.948436 
L 158.877769 224.948436 
L 158.877769 224.427699 
L 159.739235 224.427699 
L 159.739235 223.386223 
L 160.364235 223.386223 
L 160.364235 222.865486 
L 160.609065 222.865486 
L 160.609065 222.344748 
L 162.131294 222.344748 
L 162.131294 221.82401 
L 166.013222 221.82401 
L 166.013222 221.303273 
L 166.275248 221.303273 
L 166.275248 220.261798 
L 167.416777 220.261798 
L 167.416777 219.74106 
L 167.889558 219.74106 
L 167.889558 217.658109 
L 168.260847 217.658109 
L 168.260847 217.137372 
L 169.451597 217.137372 
L 169.451597 216.616634 
L 170.838634 216.616634 
L 170.838634 216.095896 
L 171.155994 216.095896 
L 171.155994 215.575159 
L 171.663852 215.575159 
L 171.663852 215.054421 
L 173.113301 215.054421 
L 173.113301 214.533683 
L 173.368249 214.533683 
L 173.368249 214.012946 
L 174.665259 214.012946 
L 174.665259 213.492208 
L 176.877514 213.492208 
L 176.877514 212.97147 
L 177.031027 212.97147 
L 177.031027 211.929995 
L 179.560463 211.929995 
L 179.560463 211.409257 
L 181.055834 211.409257 
L 181.055834 210.88852 
L 181.264861 210.88852 
L 181.264861 210.367782 
L 182.841776 210.367782 
L 182.841776 209.847044 
L 183.940103 209.847044 
L 183.940103 208.805569 
L 184.774126 208.805569 
L 184.774126 208.284831 
L 185.18135 208.284831 
L 185.18135 207.764094 
L 189.3952 207.764094 
L 189.3952 206.722618 
L 192.090426 206.722618 
L 192.090426 206.201881 
L 192.97254 206.201881 
L 192.97254 205.681143 
L 193.187713 205.681143 
L 193.187713 205.160405 
L 193.505635 205.160405 
L 193.589799 203.598192 
L 195.204109 203.598192 
L 195.204109 202.556717 
L 195.37574 202.556717 
L 195.37574 202.035979 
L 195.802054 202.035979 
L 195.802054 201.515242 
L 196.065575 201.515242 
L 196.065575 200.994504 
L 196.935405 200.994504 
L 196.935405 199.953029 
L 197.545523 199.953029 
L 197.587996 198.911553 
L 201.655959 198.911553 
L 201.655959 198.390816 
L 202.339562 198.390816 
L 202.339562 197.34934 
L 202.601588 197.34934 
L 202.601588 196.828603 
L 203.318477 196.828603 
L 203.354432 195.787127 
L 203.698666 195.787127 
L 203.743117 194.224914 
L 204.215898 194.224914 
L 204.272157 191.621226 
L 205.085728 191.621226 
L 205.104419 190.579751 
L 205.484607 190.579751 
L 205.484607 190.059013 
L 205.721678 190.059013 
L 205.721678 189.538275 
L 205.976554 189.538275 
L 205.976554 189.017538 
L 207.933933 189.017538 
L 207.933933 188.4968 
L 208.122425 188.4968 
L 208.122425 187.976062 
L 209.485819 187.976062 
L 209.485819 187.455325 
L 210.397092 187.455325 
L 210.489885 186.413849 
L 211.89344 186.413849 
L 211.89344 185.893112 
L 213.830147 185.893112 
L 213.830147 185.372374 
L 214.618094 185.372374 
L 214.618094 184.851636 
L 215.233702 184.851636 
L 215.233702 184.330899 
L 215.830545 184.330899 
L 215.830545 183.810161 
L 216.322491 183.810161 
L 216.404035 182.768686 
L 217.899406 182.768686 
L 217.899406 182.247948 
L 218.108433 182.247948 
L 218.108433 181.72721 
L 219.831756 181.72721 
L 219.831756 181.206473 
L 220.63786 181.206473 
L 220.739223 180.164997 
L 221.617698 180.164997 
L 221.617698 179.64426 
L 222.142779 179.64426 
L 222.142779 179.123522 
L 222.369156 179.123522 
L 222.369156 178.602784 
L 224.028959 178.602784 
L 224.067629 177.561309 
L 225.796018 177.561309 
L 225.796018 177.040571 
L 226.194321 177.040571 
L 226.194321 176.519834 
L 227.538224 176.519834 
L 227.597876 174.957621 
L 228.008273 174.957621 
L 228.008273 174.436883 
L 228.178064 174.436883 
L 228.178064 173.916145 
L 228.410359 173.916145 
L 228.410359 173.395408 
L 229.242621 173.395408 
L 229.278232 172.353933 
L 230.196301 172.353933 
L 230.304756 171.312457 
L 230.433371 171.312457 
L 230.433371 170.79172 
L 230.976705 170.79172 
L 230.976705 170.270982 
L 231.708311 170.270982 
L 231.708311 169.750244 
L 232.003229 169.750244 
L 232.003229 169.229507 
L 232.391914 169.229507 
L 232.391914 168.188031 
L 232.645626 168.188031 
L 232.645626 167.667294 
L 233.002033 167.667294 
L 233.002033 167.146556 
L 233.406784 167.146556 
L 233.406784 166.625818 
L 233.633161 166.625818 
L 233.734525 165.584343 
L 234.733329 165.584343 
L 234.733329 165.063605 
L 235.08714 165.063605 
L 235.13808 164.02213 
L 235.328575 164.02213 
L 235.328575 163.501392 
L 236.431802 163.501392 
L 236.431802 162.980655 
L 237.032973 162.980655 
L 237.112468 161.939179 
L 238.267571 161.939179 
L 238.329983 160.897704 
L 238.756296 160.897704 
L 238.843764 158.814753 
L 238.927928 158.814753 
L 238.927928 157.773278 
L 239.138682 157.773278 
L 239.138682 157.25254 
L 240.542238 157.25254 
L 240.542238 139.54746 
L 241.945793 139.54746 
L 241.945793 139.026722 
L 242.156548 139.026722 
L 242.246635 136.943771 
L 242.273534 136.943771 
L 242.328179 135.902296 
L 242.754493 135.902296 
L 242.816904 134.860821 
L 243.972007 134.860821 
L 244.051503 133.819345 
L 244.652673 133.819345 
L 244.652673 133.298608 
L 245.7559 133.298608 
L 245.7559 132.77787 
L 245.946395 132.77787 
L 245.997335 131.736395 
L 246.351146 131.736395 
L 246.351146 131.215657 
L 247.34995 131.215657 
L 247.451314 130.174182 
L 247.677691 130.174182 
L 247.677691 129.653444 
L 248.082442 129.653444 
L 248.082442 129.132706 
L 248.43885 129.132706 
L 248.43885 128.611969 
L 248.692561 128.611969 
L 248.692561 127.570493 
L 249.081246 127.570493 
L 249.081246 127.049756 
L 249.376164 127.049756 
L 249.376164 126.529018 
L 250.10777 126.529018 
L 250.10777 126.00828 
L 250.651105 126.00828 
L 250.651105 125.487543 
L 250.779719 125.487543 
L 250.888175 124.446067 
L 251.806243 124.446067 
L 251.841854 123.404592 
L 252.674116 123.404592 
L 252.674116 122.883855 
L 252.906411 122.883855 
L 252.906411 122.363117 
L 253.076203 122.363117 
L 253.076203 121.842379 
L 253.486599 121.842379 
L 253.546251 120.280166 
L 254.890155 120.280166 
L 254.890155 119.759429 
L 255.288458 119.759429 
L 255.288458 119.238691 
L 257.016847 119.238691 
L 257.055516 118.197216 
L 258.71532 118.197216 
L 258.71532 117.676478 
L 258.941697 117.676478 
L 258.941697 117.15574 
L 259.466778 117.15574 
L 259.466778 116.635003 
L 260.345252 116.635003 
L 260.446616 115.593527 
L 261.252719 115.593527 
L 261.252719 115.07279 
L 262.976043 115.07279 
L 262.976043 114.552052 
L 263.18507 114.552052 
L 263.18507 114.031314 
L 264.68044 114.031314 
L 264.761984 112.989839 
L 265.253931 112.989839 
L 265.253931 112.469101 
L 265.850773 112.469101 
L 265.850773 111.948364 
L 266.466382 111.948364 
L 266.466382 111.427626 
L 267.254328 111.427626 
L 267.254328 110.906888 
L 269.191035 110.906888 
L 269.191035 110.386151 
L 270.59459 110.386151 
L 270.687383 109.344675 
L 271.598657 109.344675 
L 271.598657 108.823938 
L 272.96205 108.823938 
L 272.96205 108.3032 
L 273.150543 108.3032 
L 273.150543 107.782462 
L 275.107921 107.782462 
L 275.107921 107.261725 
L 275.362798 107.261725 
L 275.362798 106.740987 
L 275.599868 106.740987 
L 275.599868 106.220249 
L 275.980056 106.220249 
L 275.998747 105.178774 
L 276.812319 105.178774 
L 276.868577 102.575086 
L 277.341358 102.575086 
L 277.38581 101.012873 
L 277.730043 101.012873 
L 277.765998 99.971397 
L 278.482887 99.971397 
L 278.482887 99.45066 
L 278.744913 99.45066 
L 278.744913 98.409184 
L 279.428516 98.409184 
L 279.428516 97.888447 
L 283.49648 97.888447 
L 283.538952 96.846971 
L 284.149071 96.846971 
L 284.149071 95.805496 
L 285.018901 95.805496 
L 285.018901 95.284758 
L 285.282421 95.284758 
L 285.282421 94.764021 
L 285.708735 94.764021 
L 285.708735 94.243283 
L 285.880367 94.243283 
L 285.880367 93.201808 
L 287.494676 93.201808 
L 287.57884 91.639595 
L 287.896763 91.639595 
L 287.896763 91.118857 
L 288.111935 91.118857 
L 288.111935 90.598119 
L 288.994049 90.598119 
L 288.994049 90.077382 
L 291.689275 90.077382 
L 291.689275 89.035906 
L 295.903125 89.035906 
L 295.903125 88.515169 
L 296.31035 88.515169 
L 296.31035 87.994431 
L 297.144372 87.994431 
L 297.144372 86.952956 
L 298.2427 86.952956 
L 298.2427 86.432218 
L 299.819615 86.432218 
L 299.819615 85.91148 
L 300.028641 85.91148 
L 300.028641 85.390743 
L 301.524012 85.390743 
L 301.524012 84.870005 
L 304.053449 84.870005 
L 304.053449 83.82853 
L 304.206962 83.82853 
L 304.206962 83.307792 
L 306.419217 83.307792 
L 306.419217 82.787054 
L 307.716226 82.787054 
L 307.716226 82.266317 
L 307.971174 82.266317 
L 307.971174 81.745579 
L 309.420624 81.745579 
L 309.420624 81.224841 
L 309.928482 81.224841 
L 309.928482 80.704104 
L 310.245841 80.704104 
L 310.245841 80.183366 
L 311.632879 80.183366 
L 311.632879 79.662628 
L 312.823628 79.662628 
L 312.823628 79.141891 
L 313.194917 79.141891 
L 313.194917 77.05894 
L 313.667698 77.05894 
L 313.667698 76.538202 
L 314.809227 76.538202 
L 314.809227 75.496727 
L 315.071253 75.496727 
L 315.071253 74.97599 
L 318.953182 74.97599 
L 318.953182 74.455252 
L 320.47541 74.455252 
L 320.47541 73.934514 
L 320.72024 73.934514 
L 320.72024 73.413777 
L 321.34524 73.413777 
L 321.34524 72.372301 
L 322.206706 72.372301 
L 322.206706 71.851564 
L 322.462446 71.851564 
L 322.462446 71.330826 
L 322.932495 71.330826 
L 322.95955 70.289351 
L 323.905179 70.289351 
L 323.905179 69.768613 
L 324.166844 69.768613 
L 324.166844 69.247875 
L 328.015615 69.247875 
L 328.015615 68.727138 
L 333.470712 68.727138 
L 333.470712 68.2064 
L 335.46646 68.2064 
L 335.46646 67.685662 
L 340.379788 67.685662 
L 340.390987 66.644187 
L 349.994037 66.644187 
L 349.994037 65.602712 
L 351.397593 65.602712 
L 351.397593 64.561236 
L 351.608347 64.561236 
L 351.608347 64.040499 
L 353.011903 64.040499 
L 353.011903 63.519761 
L 356.80175 63.519761 
L 356.80175 62.478286 
L 358.41606 62.478286 
L 358.41606 61.957548 
L 358.533046 61.957548 
L 358.533046 60.916073 
L 360.147356 60.916073 
L 360.231519 59.35386 
L 361.845829 59.35386 
L 361.845829 58.833122 
L 364.341954 58.833122 
L 364.341954 57.791647 
L 365.956264 57.791647 
L 365.956264 57.270909 
L 369.797052 57.270909 
L 369.797052 56.229434 
L 371.411362 56.229434 
L 371.411362 55.708696 
L 376.706128 55.708696 
L 376.706128 54.667221 
L 378.320438 54.667221 
L 378.320438 54.146483 
L 446.924475 54.146483 
L 446.924475 54.146483 
" style="fill:none;stroke:#000000;stroke-linecap:square;stroke-width:3;"/>
   </g>
   <g id="line2d_34">
    <path clip-path="url(#p26a0f922ab)" style="fill:none;stroke:#000000;stroke-linecap:square;stroke-width:3;"/>
   </g>
   <g id="line2d_35">
    <path clip-path="url(#p26a0f922ab)" d="M 34.16 167.329518 
L 210.549136 167.329518 
L 210.549136 165.815156 
L 210.748804 165.815156 
L 210.748804 164.300795 
L 214.068102 164.300795 
L 214.068102 162.786433 
L 218.676339 162.786433 
L 218.676339 161.272072 
L 223.861871 161.272072 
L 223.861871 159.757711 
L 227.42917 159.757711 
L 227.42917 158.243349 
L 232.415035 158.243349 
L 232.415035 156.728988 
L 235.934001 156.728988 
L 235.934001 155.214626 
L 237.023272 155.214626 
L 237.023272 153.700265 
L 240.542238 153.700265 
L 240.542238 152.185904 
L 240.542238 152.185904 
L 240.542238 150.671542 
L 240.542238 150.671542 
L 240.542238 149.157181 
L 240.542238 149.157181 
L 240.542238 147.642819 
L 240.542238 147.642819 
L 240.542238 146.128458 
L 240.542238 146.128458 
L 240.542238 144.614096 
L 240.542238 144.614096 
L 240.542238 143.099735 
L 244.061203 143.099735 
L 244.061203 141.585374 
L 245.150475 141.585374 
L 245.150475 140.071012 
L 248.66944 140.071012 
L 248.66944 138.556651 
L 253.655305 138.556651 
L 253.655305 137.042289 
L 257.222604 137.042289 
L 257.222604 135.527928 
L 262.408137 135.527928 
L 262.408137 134.013567 
L 267.016374 134.013567 
L 267.016374 132.499205 
L 270.335671 132.499205 
L 270.335671 130.984844 
L 270.535339 130.984844 
L 270.535339 129.470482 
L 446.924475 129.470482 
" style="fill:none;stroke:#00bfbf;stroke-linecap:square;stroke-width:3;"/>
   </g>
   <g id="line2d_36">
    <path clip-path="url(#p26a0f922ab)" style="fill:none;stroke:#00bfbf;stroke-linecap:square;stroke-width:3;"/>
   </g>
   <g id="line2d_37">
    <path clip-path="url(#p26a0f922ab)" d="M 34.16 163.96427 
L 230.130523 163.96427 
L 230.130523 160.505543 
L 233.183156 160.505543 
L 233.183156 157.046817 
L 237.489604 157.046817 
L 237.489604 153.58809 
L 240.542238 153.58809 
L 240.542238 150.129363 
L 240.542238 150.129363 
L 240.542238 146.670637 
L 240.542238 146.670637 
L 240.542238 143.21191 
L 243.594871 143.21191 
L 243.594871 139.753183 
L 247.901319 139.753183 
L 247.901319 136.294457 
L 250.953953 136.294457 
L 250.953953 132.83573 
L 446.924475 132.83573 
" style="fill:none;stroke:#bf00bf;stroke-linecap:square;stroke-width:3;"/>
   </g>
   <g id="line2d_38">
    <path clip-path="url(#p26a0f922ab)" style="fill:none;stroke:#bf00bf;stroke-linecap:square;stroke-width:3;"/>
   </g>
   <g id="line2d_39">
    <path clip-path="url(#p26a0f922ab)" d="M 34.16 153.230291 
L 240.542238 153.230291 
L 240.542238 143.569709 
L 446.924475 143.569709 
" style="fill:none;stroke:#ff0000;stroke-linecap:square;stroke-width:3;"/>
   </g>
   <g id="line2d_40">
    <path clip-path="url(#p26a0f922ab)" style="fill:none;stroke:#ff0000;stroke-linecap:square;stroke-width:3;"/>
   </g>
   <g id="line2d_41">
    <path clip-path="url(#p26a0f922ab)" d="M 240.542238 291.28 
L 240.542238 5.52 
" style="fill:none;stroke:#000000;stroke-linecap:square;stroke-width:1.5;"/>
   </g>
   <g id="line2d_42">
    <path clip-path="url(#p26a0f922ab)" d="M 34.16 148.4 
L 446.924475 148.4 
" style="fill:none;stroke:#000000;stroke-dasharray:2,3.3;stroke-dashoffset:0;stroke-width:2;"/>
   </g>
   <g id="patch_3">
    <path d="M 34.16 291.28 
L 34.16 5.52 
" style="fill:none;stroke:#000000;stroke-linecap:square;stroke-linejoin:miter;stroke-width:0.8;"/>
   </g>
   <g id="patch_4">
    <path d="M 446.924475 291.28 
L 446.924475 5.52 
" style="fill:none;stroke:#000000;stroke-linecap:square;stroke-linejoin:miter;stroke-width:0.8;"/>
   </g>
   <g id="patch_5">
    <path d="M 34.16 291.28 
L 446.924475 291.28 
" style="fill:none;stroke:#000000;stroke-linecap:square;stroke-linejoin:miter;stroke-width:0.8;"/>
   </g>
   <g id="patch_6">
    <path d="M 34.16 5.52 
L 446.924475 5.52 
" style="fill:none;stroke:#000000;stroke-linecap:square;stroke-linejoin:miter;stroke-width:0.8;"/>
   </g>
   <g id="text_6">
    <!-- f6-f9,5-D -->
    <defs>
     <path d="M 33.015625 40.375 
Q 26.375 40.375 22.484375 35.828125 
Q 18.609375 31.296875 18.609375 23.390625 
Q 18.609375 15.53125 22.484375 10.953125 
Q 26.375 6.390625 33.015625 6.390625 
Q 39.65625 6.390625 43.53125 10.953125 
Q 47.40625 15.53125 47.40625 23.390625 
Q 47.40625 31.296875 43.53125 35.828125 
Q 39.65625 40.375 33.015625 40.375 
z
M 52.59375 71.296875 
L 52.59375 62.3125 
Q 48.875 64.0625 45.09375 64.984375 
Q 41.3125 65.921875 37.59375 65.921875 
Q 27.828125 65.921875 22.671875 59.328125 
Q 17.53125 52.734375 16.796875 39.40625 
Q 19.671875 43.65625 24.015625 45.921875 
Q 28.375 48.1875 33.59375 48.1875 
Q 44.578125 48.1875 50.953125 41.515625 
Q 57.328125 34.859375 57.328125 23.390625 
Q 57.328125 12.15625 50.6875 5.359375 
Q 44.046875 -1.421875 33.015625 -1.421875 
Q 20.359375 -1.421875 13.671875 8.265625 
Q 6.984375 17.96875 6.984375 36.375 
Q 6.984375 53.65625 15.1875 63.9375 
Q 23.390625 74.21875 37.203125 74.21875 
Q 40.921875 74.21875 44.703125 73.484375 
Q 48.484375 72.75 52.59375 71.296875 
z
" id="DejaVuSans-36"/>
     <path d="M 10.984375 1.515625 
L 10.984375 10.5 
Q 14.703125 8.734375 18.5 7.8125 
Q 22.3125 6.890625 25.984375 6.890625 
Q 35.75 6.890625 40.890625 13.453125 
Q 46.046875 20.015625 46.78125 33.40625 
Q 43.953125 29.203125 39.59375 26.953125 
Q 35.25 24.703125 29.984375 24.703125 
Q 19.046875 24.703125 12.671875 31.3125 
Q 6.296875 37.9375 6.296875 49.421875 
Q 6.296875 60.640625 12.9375 67.421875 
Q 19.578125 74.21875 30.609375 74.21875 
Q 43.265625 74.21875 49.921875 64.515625 
Q 56.59375 54.828125 56.59375 36.375 
Q 56.59375 19.140625 48.40625 8.859375 
Q 40.234375 -1.421875 26.421875 -1.421875 
Q 22.703125 -1.421875 18.890625 -0.6875 
Q 15.09375 0.046875 10.984375 1.515625 
z
M 30.609375 32.421875 
Q 37.25 32.421875 41.125 36.953125 
Q 45.015625 41.5 45.015625 49.421875 
Q 45.015625 57.28125 41.125 61.84375 
Q 37.25 66.40625 30.609375 66.40625 
Q 23.96875 66.40625 20.09375 61.84375 
Q 16.21875 57.28125 16.21875 49.421875 
Q 16.21875 41.5 20.09375 36.953125 
Q 23.96875 32.421875 30.609375 32.421875 
z
" id="DejaVuSans-39"/>
     <path d="M 11.71875 12.40625 
L 22.015625 12.40625 
L 22.015625 4 
L 14.015625 -11.625 
L 7.71875 -11.625 
L 11.71875 4 
z
" id="DejaVuSans-2c"/>
     <path d="M 10.796875 72.90625 
L 49.515625 72.90625 
L 49.515625 64.59375 
L 19.828125 64.59375 
L 19.828125 46.734375 
Q 21.96875 47.46875 24.109375 47.828125 
Q 26.265625 48.1875 28.421875 48.1875 
Q 40.625 48.1875 47.75 41.5 
Q 54.890625 34.8125 54.890625 23.390625 
Q 54.890625 11.625 47.5625 5.09375 
Q 40.234375 -1.421875 26.90625 -1.421875 
Q 22.3125 -1.421875 17.546875 -0.640625 
Q 12.796875 0.140625 7.71875 1.703125 
L 7.71875 11.625 
Q 12.109375 9.234375 16.796875 8.0625 
Q 21.484375 6.890625 26.703125 6.890625 
Q 35.15625 6.890625 40.078125 11.328125 
Q 45.015625 15.765625 45.015625 23.390625 
Q 45.015625 31 40.078125 35.4375 
Q 35.15625 39.890625 26.703125 39.890625 
Q 22.75 39.890625 18.8125 39.015625 
Q 14.890625 38.140625 10.796875 36.28125 
z
" id="DejaVuSans-35"/>
     <path d="M 19.671875 64.796875 
L 19.671875 8.109375 
L 31.59375 8.109375 
Q 46.6875 8.109375 53.6875 14.9375 
Q 60.6875 21.78125 60.6875 36.53125 
Q 60.6875 51.171875 53.6875 57.984375 
Q 46.6875 64.796875 31.59375 64.796875 
z
M 9.8125 72.90625 
L 30.078125 72.90625 
Q 51.265625 72.90625 61.171875 64.09375 
Q 71.09375 55.28125 71.09375 36.53125 
Q 71.09375 17.671875 61.125 8.828125 
Q 51.171875 0 30.078125 0 
L 9.8125 0 
z
" id="DejaVuSans-44"/>
    </defs>
    <g transform="translate(350.225436 285.5648)scale(0.2 -0.2)">
     <use xlink:href="#DejaVuSans-66"/>
     <use x="35.205078" xlink:href="#DejaVuSans-36"/>
     <use x="98.828125" xlink:href="#DejaVuSans-2d"/>
     <use x="134.912109" xlink:href="#DejaVuSans-66"/>
     <use x="170.117188" xlink:href="#DejaVuSans-39"/>
     <use x="233.740234" xlink:href="#DejaVuSans-2c"/>
     <use x="265.527344" xlink:href="#DejaVuSans-35"/>
     <use x="329.150391" xlink:href="#DejaVuSans-2d"/>
     <use x="365.234375" xlink:href="#DejaVuSans-44"/>
    </g>
   </g>
   <g id="text_7">
    <!-- v0.0.0 -->
    <defs>
     <path d="M 10.6875 12.40625 
L 21 12.40625 
L 21 0 
L 10.6875 0 
z
" id="DejaVuSans-2e"/>
    </defs>
    <g style="fill:#808080;" transform="translate(224.860988 286.342713)scale(0.1 -0.1)">
     <use xlink:href="#DejaVuSans-76"/>
     <use x="59.179688" xlink:href="#DejaVuSans-30"/>
     <use x="122.802734" xlink:href="#DejaVuSans-2e"/>
     <use x="154.589844" xlink:href="#DejaVuSans-30"/>
     <use x="218.212891" xlink:href="#DejaVuSans-2e"/>
     <use x="250" xlink:href="#DejaVuSans-30"/>
    </g>
   </g>
   <g id="legend_1">
    <g id="patch_7">
     <path d="M 48.16 138.945 
L 177.381875 138.945 
Q 181.381875 138.945 181.381875 134.945 
L 181.381875 19.52 
Q 181.381875 15.52 177.381875 15.52 
L 48.16 15.52 
Q 44.16 15.52 44.16 19.52 
L 44.16 134.945 
Q 44.16 138.945 48.16 138.945 
z
" style="fill:#ffffff;opacity:0.2;stroke:#cccccc;stroke-linejoin:miter;"/>
    </g>
    <g id="line2d_43">
     <path d="M 52.16 31.716875 
L 92.16 31.716875 
" style="fill:none;stroke:#000000;stroke-linecap:square;stroke-width:3;"/>
    </g>
    <g id="line2d_44"/>
    <g id="text_8">
     <!-- 1: 3/3 -->
     <defs>
      <path d="M 11.71875 12.40625 
L 22.015625 12.40625 
L 22.015625 0 
L 11.71875 0 
z
M 11.71875 51.703125 
L 22.015625 51.703125 
L 22.015625 39.3125 
L 11.71875 39.3125 
z
" id="DejaVuSans-3a"/>
      <path d="M 40.578125 39.3125 
Q 47.65625 37.796875 51.625 33 
Q 55.609375 28.21875 55.609375 21.1875 
Q 55.609375 10.40625 48.1875 4.484375 
Q 40.765625 -1.421875 27.09375 -1.421875 
Q 22.515625 -1.421875 17.65625 -0.515625 
Q 12.796875 0.390625 7.625 2.203125 
L 7.625 11.71875 
Q 11.71875 9.328125 16.59375 8.109375 
Q 21.484375 6.890625 26.8125 6.890625 
Q 36.078125 6.890625 40.9375 10.546875 
Q 45.796875 14.203125 45.796875 21.1875 
Q 45.796875 27.640625 41.28125 31.265625 
Q 36.765625 34.90625 28.71875 34.90625 
L 20.21875 34.90625 
L 20.21875 43.015625 
L 29.109375 43.015625 
Q 36.375 43.015625 40.234375 45.921875 
Q 44.09375 48.828125 44.09375 54.296875 
Q 44.09375 59.90625 40.109375 62.90625 
Q 36.140625 65.921875 28.71875 65.921875 
Q 24.65625 65.921875 20.015625 65.03125 
Q 15.375 64.15625 9.8125 62.3125 
L 9.8125 71.09375 
Q 15.4375 72.65625 20.34375 73.4375 
Q 25.25 74.21875 29.59375 74.21875 
Q 40.828125 74.21875 47.359375 69.109375 
Q 53.90625 64.015625 53.90625 55.328125 
Q 53.90625 49.265625 50.4375 45.09375 
Q 46.96875 40.921875 40.578125 39.3125 
z
" id="DejaVuSans-33"/>
      <path d="M 25.390625 72.90625 
L 33.6875 72.90625 
L 8.296875 -9.28125 
L 0 -9.28125 
z
" id="DejaVuSans-2f"/>
     </defs>
     <g transform="translate(108.16 38.716875)scale(0.2 -0.2)">
      <use xlink:href="#DejaVuSans-31"/>
      <use x="63.623047" xlink:href="#DejaVuSans-3a"/>
      <use x="97.314453" xlink:href="#DejaVuSans-20"/>
      <use x="129.101562" xlink:href="#DejaVuSans-33"/>
      <use x="192.724609" xlink:href="#DejaVuSans-2f"/>
      <use x="226.416016" xlink:href="#DejaVuSans-33"/>
     </g>
    </g>
    <g id="line2d_45">
     <path d="M 52.16 61.073125 
L 92.16 61.073125 
" style="fill:none;stroke:#00bfbf;stroke-linecap:square;stroke-width:3;"/>
    </g>
    <g id="line2d_46"/>
    <g id="text_9">
     <!-- -1: 2/2 -->
     <defs>
      <path d="M 19.1875 8.296875 
L 53.609375 8.296875 
L 53.609375 0 
L 7.328125 0 
L 7.328125 8.296875 
Q 12.9375 14.109375 22.625 23.890625 
Q 32.328125 33.6875 34.8125 36.53125 
Q 39.546875 41.84375 41.421875 45.53125 
Q 43.3125 49.21875 43.3125 52.78125 
Q 43.3125 58.59375 39.234375 62.25 
Q 35.15625 65.921875 28.609375 65.921875 
Q 23.96875 65.921875 18.8125 64.3125 
Q 13.671875 62.703125 7.8125 59.421875 
L 7.8125 69.390625 
Q 13.765625 71.78125 18.9375 73 
Q 24.125 74.21875 28.421875 74.21875 
Q 39.75 74.21875 46.484375 68.546875 
Q 53.21875 62.890625 53.21875 53.421875 
Q 53.21875 48.921875 51.53125 44.890625 
Q 49.859375 40.875 45.40625 35.40625 
Q 44.1875 33.984375 37.640625 27.21875 
Q 31.109375 20.453125 19.1875 8.296875 
z
" id="DejaVuSans-32"/>
     </defs>
     <g transform="translate(108.16 68.073125)scale(0.2 -0.2)">
      <use xlink:href="#DejaVuSans-2d"/>
      <use x="36.083984" xlink:href="#DejaVuSans-31"/>
      <use x="99.707031" xlink:href="#DejaVuSans-3a"/>
      <use x="133.398438" xlink:href="#DejaVuSans-20"/>
      <use x="165.185547" xlink:href="#DejaVuSans-32"/>
      <use x="228.808594" xlink:href="#DejaVuSans-2f"/>
      <use x="262.5" xlink:href="#DejaVuSans-32"/>
     </g>
    </g>
    <g id="line2d_47">
     <path d="M 52.16 90.429375 
L 92.16 90.429375 
" style="fill:none;stroke:#bf00bf;stroke-linecap:square;stroke-width:3;"/>
    </g>
    <g id="line2d_48"/>
    <g id="text_10">
     <!-- -4: 1/1 -->
     <defs>
      <path d="M 37.796875 64.3125 
L 12.890625 25.390625 
L 37.796875 25.390625 
z
M 35.203125 72.90625 
L 47.609375 72.90625 
L 47.609375 25.390625 
L 58.015625 25.390625 
L 58.015625 17.1875 
L 47.609375 17.1875 
L 47.609375 0 
L 37.796875 0 
L 37.796875 17.1875 
L 4.890625 17.1875 
L 4.890625 26.703125 
z
" id="DejaVuSans-34"/>
     </defs>
     <g transform="translate(108.16 97.429375)scale(0.2 -0.2)">
      <use xlink:href="#DejaVuSans-2d"/>
      <use x="36.083984" xlink:href="#DejaVuSans-34"/>
      <use x="99.707031" xlink:href="#DejaVuSans-3a"/>
      <use x="133.398438" xlink:href="#DejaVuSans-20"/>
      <use x="165.185547" xlink:href="#DejaVuSans-31"/>
      <use x="228.808594" xlink:href="#DejaVuSans-2f"/>
      <use x="262.5" xlink:href="#DejaVuSans-31"/>
     </g>
    </g>
    <g id="line2d_49">
     <path d="M 52.16 119.785625 
L 92.16 119.785625 
" style="fill:none;stroke:#ff0000;stroke-linecap:square;stroke-width:3;"/>
    </g>
    <g id="line2d_50"/>
    <g id="text_11">
     <!-- -8: 1/1 -->
     <defs>
      <path d="M 31.78125 34.625 
Q 24.75 34.625 20.71875 30.859375 
Q 16.703125 27.09375 16.703125 20.515625 
Q 16.703125 13.921875 20.71875 10.15625 
Q 24.75 6.390625 31.78125 6.390625 
Q 38.8125 6.390625 42.859375 10.171875 
Q 46.921875 13.96875 46.921875 20.515625 
Q 46.921875 27.09375 42.890625 30.859375 
Q 38.875 34.625 31.78125 34.625 
z
M 21.921875 38.8125 
Q 15.578125 40.375 12.03125 44.71875 
Q 8.5 49.078125 8.5 55.328125 
Q 8.5 64.0625 14.71875 69.140625 
Q 20.953125 74.21875 31.78125 74.21875 
Q 42.671875 74.21875 48.875 69.140625 
Q 55.078125 64.0625 55.078125 55.328125 
Q 55.078125 49.078125 51.53125 44.71875 
Q 48 40.375 41.703125 38.8125 
Q 48.828125 37.15625 52.796875 32.3125 
Q 56.78125 27.484375 56.78125 20.515625 
Q 56.78125 9.90625 50.3125 4.234375 
Q 43.84375 -1.421875 31.78125 -1.421875 
Q 19.734375 -1.421875 13.25 4.234375 
Q 6.78125 9.90625 6.78125 20.515625 
Q 6.78125 27.484375 10.78125 32.3125 
Q 14.796875 37.15625 21.921875 38.8125 
z
M 18.3125 54.390625 
Q 18.3125 48.734375 21.84375 45.5625 
Q 25.390625 42.390625 31.78125 42.390625 
Q 38.140625 42.390625 41.71875 45.5625 
Q 45.3125 48.734375 45.3125 54.390625 
Q 45.3125 60.0625 41.71875 63.234375 
Q 38.140625 66.40625 31.78125 66.40625 
Q 25.390625 66.40625 21.84375 63.234375 
Q 18.3125 60.0625 18.3125 54.390625 
z
" id="DejaVuSans-38"/>
     </defs>
     <g transform="translate(108.16 126.785625)scale(0.2 -0.2)">
      <use xlink:href="#DejaVuSans-2d"/>
      <use x="36.083984" xlink:href="#DejaVuSans-38"/>
      <use x="99.707031" xlink:href="#DejaVuSans-3a"/>
      <use x="133.398438" xlink:href="#DejaVuSans-20"/>
      <use x="165.185547" xlink:href="#DejaVuSans-31"/>
      <use x="228.808594" xlink:href="#DejaVuSans-2f"/>
      <use x="262.5" xlink:href="#DejaVuSans-31"/>
     </g>
    </g>
   </g>
  </g>
 </g>
 <defs>
  <clipPath id="p26a0f922ab">
   <rect height="285.76" width="412.764475" x="34.16" y="5.52"/>
  </clipPath>
 </defs>
</svg>
