<?xml version="1.0" encoding="utf-8" standalone="no"?>
<!DOCTYPE svg PUBLIC "-//W3C//DTD SVG 1.1//EN"
  "http://www.w3.org/Graphics/SVG/1.1/DTD/svg11.dtd">
<!-- Created with matplotlib (http://matplotlib.org/) -->
<svg height="345pt" version="1.1" viewBox="0 0 460 345" width="460pt" xmlns="http://www.w3.org/2000/svg" xmlns:xlink="http://www.w3.org/1999/xlink">
 <defs>
  <style type="text/css">
*{stroke-linecap:butt;stroke-linejoin:round;}
  </style>
 </defs>
 <g id="figure_1">
  <g id="patch_1">
   <path d="M 0 345.6 
L 460.8 345.6 
L 460.8 0 
L 0 0 
z
" style="fill:#ffffff;"/>
  </g>
  <g id="axes_1">
   <g id="patch_2">
    <path d="M 34.16 291.28 
L 450.672 291.28 
L 450.672 5.52 
L 34.16 5.52 
z
" style="fill:#ffffff;"/>
   </g>
   <g id="matplotlib.axis_1">
    <g id="xtick_1">
     <g id="line2d_1">
      <path clip-path="url(#p9898c096e7)" d="M 104.751533 291.28 
L 104.751533 5.52 
" style="fill:none;stroke:#b0b0b0;stroke-linecap:square;stroke-width:0.8;"/>
     </g>
     <g id="line2d_2">
      <defs>
       <path d="M 0 0 
L 0 3.5 
" id="m2454183148" style="stroke:#000000;stroke-width:0.8;"/>
      </defs>
      <g>
       <use style="stroke:#000000;stroke-width:0.8;" x="104.751533" xlink:href="#m2454183148" y="291.28"/>
      </g>
     </g>
     <g id="text_1">
      <!-- -2 -->
      <defs>
       <path d="M 4.890625 31.390625 
L 31.203125 31.390625 
L 31.203125 23.390625 
L 4.890625 23.390625 
z
" id="DejaVuSans-2d"/>
       <path d="M 19.1875 8.296875 
L 53.609375 8.296875 
L 53.609375 0 
L 7.328125 0 
L 7.328125 8.296875 
Q 12.9375 14.109375 22.625 23.890625 
Q 32.328125 33.6875 34.8125 36.53125 
Q 39.546875 41.84375 41.421875 45.53125 
Q 43.3125 49.21875 43.3125 52.78125 
Q 43.3125 58.59375 39.234375 62.25 
Q 35.15625 65.921875 28.609375 65.921875 
Q 23.96875 65.921875 18.8125 64.3125 
Q 13.671875 62.703125 7.8125 59.421875 
L 7.8125 69.390625 
Q 13.765625 71.78125 18.9375 73 
Q 24.125 74.21875 28.421875 74.21875 
Q 39.75 74.21875 46.484375 68.546875 
Q 53.21875 62.890625 53.21875 53.421875 
Q 53.21875 48.921875 51.53125 44.890625 
Q 49.859375 40.875 45.40625 35.40625 
Q 44.1875 33.984375 37.640625 27.21875 
Q 31.109375 20.453125 19.1875 8.296875 
z
" id="DejaVuSans-32"/>
      </defs>
      <g transform="translate(94.78122 313.476875)scale(0.2 -0.2)">
       <use xlink:href="#DejaVuSans-2d"/>
       <use x="36.083984" xlink:href="#DejaVuSans-32"/>
      </g>
     </g>
    </g>
    <g id="xtick_2">
     <g id="line2d_3">
      <path clip-path="url(#p9898c096e7)" d="M 242.416 291.28 
L 242.416 5.52 
" style="fill:none;stroke:#b0b0b0;stroke-linecap:square;stroke-width:0.8;"/>
     </g>
     <g id="line2d_4">
      <g>
       <use style="stroke:#000000;stroke-width:0.8;" x="242.416" xlink:href="#m2454183148" y="291.28"/>
      </g>
     </g>
     <g id="text_2">
      <!-- 0 -->
      <defs>
       <path d="M 31.78125 66.40625 
Q 24.171875 66.40625 20.328125 58.90625 
Q 16.5 51.421875 16.5 36.375 
Q 16.5 21.390625 20.328125 13.890625 
Q 24.171875 6.390625 31.78125 6.390625 
Q 39.453125 6.390625 43.28125 13.890625 
Q 47.125 21.390625 47.125 36.375 
Q 47.125 51.421875 43.28125 58.90625 
Q 39.453125 66.40625 31.78125 66.40625 
z
M 31.78125 74.21875 
Q 44.046875 74.21875 50.515625 64.515625 
Q 56.984375 54.828125 56.984375 36.375 
Q 56.984375 17.96875 50.515625 8.265625 
Q 44.046875 -1.421875 31.78125 -1.421875 
Q 19.53125 -1.421875 13.0625 8.265625 
Q 6.59375 17.96875 6.59375 36.375 
Q 6.59375 54.828125 13.0625 64.515625 
Q 19.53125 74.21875 31.78125 74.21875 
z
" id="DejaVuSans-30"/>
      </defs>
      <g transform="translate(236.0535 313.476875)scale(0.2 -0.2)">
       <use xlink:href="#DejaVuSans-30"/>
      </g>
     </g>
    </g>
    <g id="xtick_3">
     <g id="line2d_5">
      <path clip-path="url(#p9898c096e7)" d="M 380.080467 291.28 
L 380.080467 5.52 
" style="fill:none;stroke:#b0b0b0;stroke-linecap:square;stroke-width:0.8;"/>
     </g>
     <g id="line2d_6">
      <g>
       <use style="stroke:#000000;stroke-width:0.8;" x="380.080467" xlink:href="#m2454183148" y="291.28"/>
      </g>
     </g>
     <g id="text_3">
      <!-- 2 -->
      <g transform="translate(373.717967 313.476875)scale(0.2 -0.2)">
       <use xlink:href="#DejaVuSans-32"/>
      </g>
     </g>
    </g>
    <g id="text_4">
     <!-- log10 of FEvals ratio -->
     <defs>
      <path d="M 9.421875 75.984375 
L 18.40625 75.984375 
L 18.40625 0 
L 9.421875 0 
z
" id="DejaVuSans-6c"/>
      <path d="M 30.609375 48.390625 
Q 23.390625 48.390625 19.1875 42.75 
Q 14.984375 37.109375 14.984375 27.296875 
Q 14.984375 17.484375 19.15625 11.84375 
Q 23.34375 6.203125 30.609375 6.203125 
Q 37.796875 6.203125 41.984375 11.859375 
Q 46.1875 17.53125 46.1875 27.296875 
Q 46.1875 37.015625 41.984375 42.703125 
Q 37.796875 48.390625 30.609375 48.390625 
z
M 30.609375 56 
Q 42.328125 56 49.015625 48.375 
Q 55.71875 40.765625 55.71875 27.296875 
Q 55.71875 13.875 49.015625 6.21875 
Q 42.328125 -1.421875 30.609375 -1.421875 
Q 18.84375 -1.421875 12.171875 6.21875 
Q 5.515625 13.875 5.515625 27.296875 
Q 5.515625 40.765625 12.171875 48.375 
Q 18.84375 56 30.609375 56 
z
" id="DejaVuSans-6f"/>
      <path d="M 45.40625 27.984375 
Q 45.40625 37.75 41.375 43.109375 
Q 37.359375 48.484375 30.078125 48.484375 
Q 22.859375 48.484375 18.828125 43.109375 
Q 14.796875 37.75 14.796875 27.984375 
Q 14.796875 18.265625 18.828125 12.890625 
Q 22.859375 7.515625 30.078125 7.515625 
Q 37.359375 7.515625 41.375 12.890625 
Q 45.40625 18.265625 45.40625 27.984375 
z
M 54.390625 6.78125 
Q 54.390625 -7.171875 48.1875 -13.984375 
Q 42 -20.796875 29.203125 -20.796875 
Q 24.46875 -20.796875 20.265625 -20.09375 
Q 16.0625 -19.390625 12.109375 -17.921875 
L 12.109375 -9.1875 
Q 16.0625 -11.328125 19.921875 -12.34375 
Q 23.78125 -13.375 27.78125 -13.375 
Q 36.625 -13.375 41.015625 -8.765625 
Q 45.40625 -4.15625 45.40625 5.171875 
L 45.40625 9.625 
Q 42.625 4.78125 38.28125 2.390625 
Q 33.9375 0 27.875 0 
Q 17.828125 0 11.671875 7.65625 
Q 5.515625 15.328125 5.515625 27.984375 
Q 5.515625 40.671875 11.671875 48.328125 
Q 17.828125 56 27.875 56 
Q 33.9375 56 38.28125 53.609375 
Q 42.625 51.21875 45.40625 46.390625 
L 45.40625 54.6875 
L 54.390625 54.6875 
z
" id="DejaVuSans-67"/>
      <path d="M 12.40625 8.296875 
L 28.515625 8.296875 
L 28.515625 63.921875 
L 10.984375 60.40625 
L 10.984375 69.390625 
L 28.421875 72.90625 
L 38.28125 72.90625 
L 38.28125 8.296875 
L 54.390625 8.296875 
L 54.390625 0 
L 12.40625 0 
z
" id="DejaVuSans-31"/>
      <path id="DejaVuSans-20"/>
      <path d="M 37.109375 75.984375 
L 37.109375 68.5 
L 28.515625 68.5 
Q 23.6875 68.5 21.796875 66.546875 
Q 19.921875 64.59375 19.921875 59.515625 
L 19.921875 54.6875 
L 34.71875 54.6875 
L 34.71875 47.703125 
L 19.921875 47.703125 
L 19.921875 0 
L 10.890625 0 
L 10.890625 47.703125 
L 2.296875 47.703125 
L 2.296875 54.6875 
L 10.890625 54.6875 
L 10.890625 58.5 
Q 10.890625 67.625 15.140625 71.796875 
Q 19.390625 75.984375 28.609375 75.984375 
z
" id="DejaVuSans-66"/>
      <path d="M 9.8125 72.90625 
L 51.703125 72.90625 
L 51.703125 64.59375 
L 19.671875 64.59375 
L 19.671875 43.109375 
L 48.578125 43.109375 
L 48.578125 34.8125 
L 19.671875 34.8125 
L 19.671875 0 
L 9.8125 0 
z
" id="DejaVuSans-46"/>
      <path d="M 9.8125 72.90625 
L 55.90625 72.90625 
L 55.90625 64.59375 
L 19.671875 64.59375 
L 19.671875 43.015625 
L 54.390625 43.015625 
L 54.390625 34.71875 
L 19.671875 34.71875 
L 19.671875 8.296875 
L 56.78125 8.296875 
L 56.78125 0 
L 9.8125 0 
z
" id="DejaVuSans-45"/>
      <path d="M 2.984375 54.6875 
L 12.5 54.6875 
L 29.59375 8.796875 
L 46.6875 54.6875 
L 56.203125 54.6875 
L 35.6875 0 
L 23.484375 0 
z
" id="DejaVuSans-76"/>
      <path d="M 34.28125 27.484375 
Q 23.390625 27.484375 19.1875 25 
Q 14.984375 22.515625 14.984375 16.5 
Q 14.984375 11.71875 18.140625 8.90625 
Q 21.296875 6.109375 26.703125 6.109375 
Q 34.1875 6.109375 38.703125 11.40625 
Q 43.21875 16.703125 43.21875 25.484375 
L 43.21875 27.484375 
z
M 52.203125 31.203125 
L 52.203125 0 
L 43.21875 0 
L 43.21875 8.296875 
Q 40.140625 3.328125 35.546875 0.953125 
Q 30.953125 -1.421875 24.3125 -1.421875 
Q 15.921875 -1.421875 10.953125 3.296875 
Q 6 8.015625 6 15.921875 
Q 6 25.140625 12.171875 29.828125 
Q 18.359375 34.515625 30.609375 34.515625 
L 43.21875 34.515625 
L 43.21875 35.40625 
Q 43.21875 41.609375 39.140625 45 
Q 35.0625 48.390625 27.6875 48.390625 
Q 23 48.390625 18.546875 47.265625 
Q 14.109375 46.140625 10.015625 43.890625 
L 10.015625 52.203125 
Q 14.9375 54.109375 19.578125 55.046875 
Q 24.21875 56 28.609375 56 
Q 40.484375 56 46.34375 49.84375 
Q 52.203125 43.703125 52.203125 31.203125 
z
" id="DejaVuSans-61"/>
      <path d="M 44.28125 53.078125 
L 44.28125 44.578125 
Q 40.484375 46.53125 36.375 47.5 
Q 32.28125 48.484375 27.875 48.484375 
Q 21.1875 48.484375 17.84375 46.4375 
Q 14.5 44.390625 14.5 40.28125 
Q 14.5 37.15625 16.890625 35.375 
Q 19.28125 33.59375 26.515625 31.984375 
L 29.59375 31.296875 
Q 39.15625 29.25 43.1875 25.515625 
Q 47.21875 21.78125 47.21875 15.09375 
Q 47.21875 7.46875 41.1875 3.015625 
Q 35.15625 -1.421875 24.609375 -1.421875 
Q 20.21875 -1.421875 15.453125 -0.5625 
Q 10.6875 0.296875 5.421875 2 
L 5.421875 11.28125 
Q 10.40625 8.6875 15.234375 7.390625 
Q 20.0625 6.109375 24.8125 6.109375 
Q 31.15625 6.109375 34.5625 8.28125 
Q 37.984375 10.453125 37.984375 14.40625 
Q 37.984375 18.0625 35.515625 20.015625 
Q 33.0625 21.96875 24.703125 23.78125 
L 21.578125 24.515625 
Q 13.234375 26.265625 9.515625 29.90625 
Q 5.8125 33.546875 5.8125 39.890625 
Q 5.8125 47.609375 11.28125 51.796875 
Q 16.75 56 26.8125 56 
Q 31.78125 56 36.171875 55.265625 
Q 40.578125 54.546875 44.28125 53.078125 
z
" id="DejaVuSans-73"/>
      <path d="M 41.109375 46.296875 
Q 39.59375 47.171875 37.8125 47.578125 
Q 36.03125 48 33.890625 48 
Q 26.265625 48 22.1875 43.046875 
Q 18.109375 38.09375 18.109375 28.8125 
L 18.109375 0 
L 9.078125 0 
L 9.078125 54.6875 
L 18.109375 54.6875 
L 18.109375 46.1875 
Q 20.953125 51.171875 25.484375 53.578125 
Q 30.03125 56 36.53125 56 
Q 37.453125 56 38.578125 55.875 
Q 39.703125 55.765625 41.0625 55.515625 
z
" id="DejaVuSans-72"/>
      <path d="M 18.3125 70.21875 
L 18.3125 54.6875 
L 36.8125 54.6875 
L 36.8125 47.703125 
L 18.3125 47.703125 
L 18.3125 18.015625 
Q 18.3125 11.328125 20.140625 9.421875 
Q 21.96875 7.515625 27.59375 7.515625 
L 36.8125 7.515625 
L 36.8125 0 
L 27.59375 0 
Q 17.1875 0 13.234375 3.875 
Q 9.28125 7.765625 9.28125 18.015625 
L 9.28125 47.703125 
L 2.6875 47.703125 
L 2.6875 54.6875 
L 9.28125 54.6875 
L 9.28125 70.21875 
z
" id="DejaVuSans-74"/>
      <path d="M 9.421875 54.6875 
L 18.40625 54.6875 
L 18.40625 0 
L 9.421875 0 
z
M 9.421875 75.984375 
L 18.40625 75.984375 
L 18.40625 64.59375 
L 9.421875 64.59375 
z
" id="DejaVuSans-69"/>
     </defs>
     <g transform="translate(140.111312 336.833125)scale(0.2 -0.2)">
      <use xlink:href="#DejaVuSans-6c"/>
      <use x="27.783203" xlink:href="#DejaVuSans-6f"/>
      <use x="88.964844" xlink:href="#DejaVuSans-67"/>
      <use x="152.441406" xlink:href="#DejaVuSans-31"/>
      <use x="216.064453" xlink:href="#DejaVuSans-30"/>
      <use x="279.6875" xlink:href="#DejaVuSans-20"/>
      <use x="311.474609" xlink:href="#DejaVuSans-6f"/>
      <use x="372.65625" xlink:href="#DejaVuSans-66"/>
      <use x="407.861328" xlink:href="#DejaVuSans-20"/>
      <use x="439.648438" xlink:href="#DejaVuSans-46"/>
      <use x="497.167969" xlink:href="#DejaVuSans-45"/>
      <use x="560.351562" xlink:href="#DejaVuSans-76"/>
      <use x="619.53125" xlink:href="#DejaVuSans-61"/>
      <use x="680.810547" xlink:href="#DejaVuSans-6c"/>
      <use x="708.59375" xlink:href="#DejaVuSans-73"/>
      <use x="760.693359" xlink:href="#DejaVuSans-20"/>
      <use x="792.480469" xlink:href="#DejaVuSans-72"/>
      <use x="833.59375" xlink:href="#DejaVuSans-61"/>
      <use x="894.873047" xlink:href="#DejaVuSans-74"/>
      <use x="934.082031" xlink:href="#DejaVuSans-69"/>
      <use x="961.865234" xlink:href="#DejaVuSans-6f"/>
     </g>
    </g>
   </g>
   <g id="matplotlib.axis_2">
    <g id="ytick_1">
     <g id="line2d_7">
      <path clip-path="url(#p9898c096e7)" d="M 34.16 288.478431 
L 450.672 288.478431 
" style="fill:none;stroke:#b0b0b0;stroke-linecap:square;stroke-width:0.8;"/>
     </g>
     <g id="line2d_8">
      <defs>
       <path d="M 0 0 
L -3.5 0 
" id="m6c34d2ebdd" style="stroke:#000000;stroke-width:0.8;"/>
      </defs>
      <g>
       <use style="stroke:#000000;stroke-width:0.8;" x="34.16" xlink:href="#m6c34d2ebdd" y="288.478431"/>
      </g>
     </g>
    </g>
    <g id="ytick_2">
     <g id="line2d_9">
      <path clip-path="url(#p9898c096e7)" d="M 34.16 218.439216 
L 450.672 218.439216 
" style="fill:none;stroke:#b0b0b0;stroke-linecap:square;stroke-width:0.8;"/>
     </g>
     <g id="line2d_10">
      <g>
       <use style="stroke:#000000;stroke-width:0.8;" x="34.16" xlink:href="#m6c34d2ebdd" y="218.439216"/>
      </g>
     </g>
    </g>
    <g id="ytick_3">
     <g id="line2d_11">
      <path clip-path="url(#p9898c096e7)" d="M 34.16 148.4 
L 450.672 148.4 
" style="fill:none;stroke:#b0b0b0;stroke-linecap:square;stroke-width:0.8;"/>
     </g>
     <g id="line2d_12">
      <g>
       <use style="stroke:#000000;stroke-width:0.8;" x="34.16" xlink:href="#m6c34d2ebdd" y="148.4"/>
      </g>
     </g>
    </g>
    <g id="ytick_4">
     <g id="line2d_13">
      <path clip-path="url(#p9898c096e7)" d="M 34.16 78.360784 
L 450.672 78.360784 
" style="fill:none;stroke:#b0b0b0;stroke-linecap:square;stroke-width:0.8;"/>
     </g>
     <g id="line2d_14">
      <g>
       <use style="stroke:#000000;stroke-width:0.8;" x="34.16" xlink:href="#m6c34d2ebdd" y="78.360784"/>
      </g>
     </g>
    </g>
    <g id="ytick_5">
     <g id="line2d_15">
      <path clip-path="url(#p9898c096e7)" d="M 34.16 8.321569 
L 450.672 8.321569 
" style="fill:none;stroke:#b0b0b0;stroke-linecap:square;stroke-width:0.8;"/>
     </g>
     <g id="line2d_16">
      <g>
       <use style="stroke:#000000;stroke-width:0.8;" x="34.16" xlink:href="#m6c34d2ebdd" y="8.321569"/>
      </g>
     </g>
    </g>
    <g id="text_5">
     <!-- proportion of trials -->
     <defs>
      <path d="M 18.109375 8.203125 
L 18.109375 -20.796875 
L 9.078125 -20.796875 
L 9.078125 54.6875 
L 18.109375 54.6875 
L 18.109375 46.390625 
Q 20.953125 51.265625 25.265625 53.625 
Q 29.59375 56 35.59375 56 
Q 45.5625 56 51.78125 48.09375 
Q 58.015625 40.1875 58.015625 27.296875 
Q 58.015625 14.40625 51.78125 6.484375 
Q 45.5625 -1.421875 35.59375 -1.421875 
Q 29.59375 -1.421875 25.265625 0.953125 
Q 20.953125 3.328125 18.109375 8.203125 
z
M 48.6875 27.296875 
Q 48.6875 37.203125 44.609375 42.84375 
Q 40.53125 48.484375 33.40625 48.484375 
Q 26.265625 48.484375 22.1875 42.84375 
Q 18.109375 37.203125 18.109375 27.296875 
Q 18.109375 17.390625 22.1875 11.75 
Q 26.265625 6.109375 33.40625 6.109375 
Q 40.53125 6.109375 44.609375 11.75 
Q 48.6875 17.390625 48.6875 27.296875 
z
" id="DejaVuSans-70"/>
      <path d="M 54.890625 33.015625 
L 54.890625 0 
L 45.90625 0 
L 45.90625 32.71875 
Q 45.90625 40.484375 42.875 44.328125 
Q 39.84375 48.1875 33.796875 48.1875 
Q 26.515625 48.1875 22.3125 43.546875 
Q 18.109375 38.921875 18.109375 30.90625 
L 18.109375 0 
L 9.078125 0 
L 9.078125 54.6875 
L 18.109375 54.6875 
L 18.109375 46.1875 
Q 21.34375 51.125 25.703125 53.5625 
Q 30.078125 56 35.796875 56 
Q 45.21875 56 50.046875 50.171875 
Q 54.890625 44.34375 54.890625 33.015625 
z
" id="DejaVuSans-6e"/>
     </defs>
     <g transform="translate(19.000625 241.628125)rotate(-90)scale(0.2 -0.2)">
      <use xlink:href="#DejaVuSans-70"/>
      <use x="63.476562" xlink:href="#DejaVuSans-72"/>
      <use x="104.558594" xlink:href="#DejaVuSans-6f"/>
      <use x="165.740234" xlink:href="#DejaVuSans-70"/>
      <use x="229.216797" xlink:href="#DejaVuSans-6f"/>
      <use x="290.398438" xlink:href="#DejaVuSans-72"/>
      <use x="331.511719" xlink:href="#DejaVuSans-74"/>
      <use x="370.720703" xlink:href="#DejaVuSans-69"/>
      <use x="398.503906" xlink:href="#DejaVuSans-6f"/>
      <use x="459.685547" xlink:href="#DejaVuSans-6e"/>
      <use x="523.064453" xlink:href="#DejaVuSans-20"/>
      <use x="554.851562" xlink:href="#DejaVuSans-6f"/>
      <use x="616.033203" xlink:href="#DejaVuSans-66"/>
      <use x="651.238281" xlink:href="#DejaVuSans-20"/>
      <use x="683.025391" xlink:href="#DejaVuSans-74"/>
      <use x="722.234375" xlink:href="#DejaVuSans-72"/>
      <use x="763.347656" xlink:href="#DejaVuSans-69"/>
      <use x="791.130859" xlink:href="#DejaVuSans-61"/>
      <use x="852.410156" xlink:href="#DejaVuSans-6c"/>
      <use x="880.193359" xlink:href="#DejaVuSans-73"/>
     </g>
    </g>
   </g>
   <g id="line2d_17">
    <path clip-path="url(#p9898c096e7)" d="M 34.16 222.181769 
L 53.092364 222.181769 
L 53.092364 221.468902 
L 57.92252 221.468902 
L 57.92252 220.756035 
L 68.522425 220.756035 
L 68.522425 220.043167 
L 77.003847 220.043167 
L 77.003847 219.3303 
L 90.515246 219.3303 
L 90.515246 218.617433 
L 116.280318 218.617433 
L 116.280318 217.904565 
L 172.321122 217.904565 
L 172.321122 217.548132 
L 179.228045 217.548132 
L 179.228045 217.191698 
L 184.027192 217.191698 
L 184.058201 216.478831 
L 186.636878 216.478831 
L 186.636878 216.122397 
L 192.257845 216.122397 
L 192.257845 215.765963 
L 193.883814 215.765963 
L 193.883814 215.40953 
L 194.214132 215.40953 
L 194.214132 215.053096 
L 194.337066 215.053096 
L 194.337066 214.696662 
L 194.658106 214.696662 
L 194.658106 214.340229 
L 198.342947 214.340229 
L 198.342947 213.983795 
L 203.139528 213.983795 
L 203.139528 213.627361 
L 204.993118 213.627361 
L 204.993118 213.270928 
L 205.589884 213.270928 
L 205.589884 212.914494 
L 205.920202 212.914494 
L 205.920202 212.55806 
L 206.043136 212.55806 
L 206.043136 212.201627 
L 206.161483 212.201627 
L 206.161483 211.845193 
L 206.365361 211.845193 
L 206.365361 211.488759 
L 206.573601 211.488759 
L 206.573601 211.132326 
L 208.371762 211.132326 
L 208.371762 210.775892 
L 208.575639 210.775892 
L 208.575639 210.419458 
L 209.823274 210.419458 
L 209.823274 210.063024 
L 213.820537 210.063024 
L 213.820537 209.706591 
L 214.150855 209.706591 
L 214.150855 209.350157 
L 214.273789 209.350157 
L 214.273789 208.993723 
L 216.650927 208.993723 
L 216.650927 208.63729 
L 217.278413 208.63729 
L 217.278413 208.280856 
L 218.504517 208.280856 
L 218.504517 207.924422 
L 220.077831 207.924422 
L 220.077831 207.567989 
L 220.281709 207.567989 
L 220.281709 207.211555 
L 220.400056 207.211555 
L 220.477239 206.142254 
L 220.52299 206.142254 
L 220.52299 205.78582 
L 220.681117 205.78582 
L 220.681117 205.429387 
L 220.853308 205.429387 
L 220.853308 205.072953 
L 222.479277 205.072953 
L 222.479277 204.716519 
L 223.334673 204.716519 
L 223.334673 204.360086 
L 224.850222 204.360086 
L 224.850222 204.003652 
L 226.985939 204.003652 
L 226.985939 203.647218 
L 227.724175 203.647218 
L 227.724175 203.290785 
L 227.928053 203.290785 
L 227.928053 202.934351 
L 228.054493 202.934351 
L 228.100244 202.221484 
L 228.177427 202.221484 
L 228.258371 201.508616 
L 228.308484 201.508616 
L 228.381305 200.795749 
L 228.512362 200.795749 
L 228.512362 200.439315 
L 228.904601 200.439315 
L 228.904601 200.082882 
L 229.058098 200.082882 
L 229.058098 199.726448 
L 230.636315 199.726448 
L 230.709931 199.013581 
L 231.340538 199.013581 
L 231.340538 198.657147 
L 231.816095 198.657147 
L 231.816095 198.300713 
L 233.934578 198.300713 
L 233.934578 197.94428 
L 234.185347 197.94428 
L 234.185347 197.587846 
L 234.554585 197.587846 
L 234.554585 197.231412 
L 234.715812 197.231412 
L 234.715812 196.874979 
L 234.838746 196.874979 
L 234.844192 196.162111 
L 235.169064 196.162111 
L 235.169064 195.805678 
L 237.585844 195.805678 
L 237.585844 195.449244 
L 238.208124 195.449244 
L 238.208124 195.09281 
L 239.201953 195.09281 
L 239.201953 194.736377 
L 241.962748 194.736377 
L 241.962748 194.379943 
L 242.085682 194.379943 
L 242.085682 194.023509 
L 242.212122 194.023509 
L 242.293066 193.310642 
L 242.416 193.310642 
L 242.416 103.489358 
L 242.538934 103.489358 
L 242.619878 102.776491 
L 242.746318 102.776491 
L 242.746318 102.420057 
L 242.869252 102.420057 
L 242.869252 102.063623 
L 245.630047 102.063623 
L 245.630047 101.70719 
L 246.623876 101.70719 
L 246.623876 101.350756 
L 247.246156 101.350756 
L 247.246156 100.994322 
L 249.662936 100.994322 
L 249.662936 100.637889 
L 249.987808 100.637889 
L 249.993254 99.925021 
L 250.116188 99.925021 
L 250.116188 99.568588 
L 250.277415 99.568588 
L 250.277415 99.212154 
L 250.646653 99.212154 
L 250.646653 98.85572 
L 250.897422 98.85572 
L 250.897422 98.499287 
L 253.015905 98.499287 
L 253.015905 98.142853 
L 253.491462 98.142853 
L 253.491462 97.786419 
L 254.122069 97.786419 
L 254.195685 97.073552 
L 255.773902 97.073552 
L 255.773902 96.717118 
L 255.927399 96.717118 
L 255.927399 96.360685 
L 256.319638 96.360685 
L 256.319638 96.004251 
L 256.450695 96.004251 
L 256.523516 95.291384 
L 256.573629 95.291384 
L 256.654573 94.578516 
L 256.731756 94.578516 
L 256.777507 93.865649 
L 256.903947 93.865649 
L 256.903947 93.509215 
L 257.107825 93.509215 
L 257.107825 93.152782 
L 257.846061 93.152782 
L 257.846061 92.796348 
L 259.981778 92.796348 
L 259.981778 92.439914 
L 261.497327 92.439914 
L 261.497327 92.083481 
L 262.352723 92.083481 
L 262.352723 91.727047 
L 263.978692 91.727047 
L 263.978692 91.370613 
L 264.150883 91.370613 
L 264.150883 91.01418 
L 264.30901 91.01418 
L 264.408821 89.944879 
L 264.431944 89.944879 
L 264.431944 89.588445 
L 264.550291 89.588445 
L 264.550291 89.232011 
L 264.754169 89.232011 
L 264.754169 88.875578 
L 266.327483 88.875578 
L 266.327483 88.519144 
L 267.553587 88.519144 
L 267.553587 88.16271 
L 268.181073 88.16271 
L 268.181073 87.806277 
L 270.558211 87.806277 
L 270.558211 87.449843 
L 270.681145 87.449843 
L 270.681145 87.093409 
L 271.011463 87.093409 
L 271.011463 86.736976 
L 275.008726 86.736976 
L 275.008726 86.380542 
L 276.256361 86.380542 
L 276.256361 86.024108 
L 276.460238 86.024108 
L 276.460238 85.667674 
L 278.258399 85.667674 
L 278.258399 85.311241 
L 278.466639 85.311241 
L 278.466639 84.954807 
L 278.670517 84.954807 
L 278.670517 84.598373 
L 278.788864 84.598373 
L 278.788864 84.24194 
L 278.911798 84.24194 
L 278.911798 83.885506 
L 279.242116 83.885506 
L 279.242116 83.529072 
L 279.838882 83.529072 
L 279.838882 83.172639 
L 281.692472 83.172639 
L 281.692472 82.816205 
L 286.489053 82.816205 
L 286.489053 82.459771 
L 290.173894 82.459771 
L 290.173894 82.103338 
L 290.494934 82.103338 
L 290.494934 81.746904 
L 290.617868 81.746904 
L 290.617868 81.39047 
L 290.948186 81.39047 
L 290.948186 81.034037 
L 292.574155 81.034037 
L 292.574155 80.677603 
L 298.195122 80.677603 
L 298.195122 80.321169 
L 300.773799 80.321169 
L 300.804808 79.608302 
L 305.603955 79.608302 
L 305.603955 79.251868 
L 312.510878 79.251868 
L 312.510878 78.895435 
L 368.551682 78.895435 
L 368.551682 78.182567 
L 394.316754 78.182567 
L 394.316754 77.4697 
L 407.828153 77.4697 
L 407.828153 76.756833 
L 416.309575 76.756833 
L 416.309575 76.043965 
L 426.90948 76.043965 
L 426.90948 75.331098 
L 431.739636 75.331098 
L 431.739636 74.618231 
L 450.672 74.618231 
L 450.672 74.618231 
" style="fill:none;stroke:#000000;stroke-linecap:square;stroke-width:3;"/>
   </g>
   <g id="line2d_18">
    <path clip-path="url(#p9898c096e7)" style="fill:none;stroke:#000000;stroke-linecap:square;stroke-width:3;"/>
   </g>
   <g id="line2d_19">
    <path clip-path="url(#p9898c096e7)" d="M 34.16 288.478431 
L 208.173043 288.478431 
L 208.173043 287.23329 
L 210.047855 287.23329 
L 210.047855 285.988148 
L 213.679645 285.988148 
L 213.679645 284.743007 
L 215.72969 284.743007 
L 215.72969 283.497865 
L 215.85185 283.497865 
L 215.85185 282.252723 
L 217.276487 282.252723 
L 217.276487 281.007582 
L 217.604503 281.007582 
L 217.604503 279.76244 
L 217.992311 279.76244 
L 217.992311 278.517298 
L 219.235779 278.517298 
L 219.235779 277.272157 
L 219.867123 277.272157 
L 219.867123 276.027015 
L 220.261532 276.027015 
L 220.261532 274.781874 
L 220.837189 274.781874 
L 220.837189 273.536732 
L 221.110591 273.536732 
L 221.110591 272.29159 
L 221.236292 272.29159 
L 221.236292 271.046449 
L 221.894775 271.046449 
L 221.894775 269.801307 
L 222.712001 269.801307 
L 222.712001 268.556166 
L 222.916359 268.556166 
L 222.916359 267.311024 
L 223.239535 267.311024 
L 223.335885 264.820741 
L 223.408498 264.820741 
L 223.498913 262.330458 
L 224.742381 262.330458 
L 224.833135 259.840174 
L 225.210697 259.840174 
L 225.210697 258.595033 
L 225.671118 258.595033 
L 225.671118 257.349891 
L 226.343791 257.349891 
L 226.343791 256.104749 
L 226.914586 256.104749 
L 226.914586 254.859608 
L 227.095755 254.859608 
L 227.095755 253.614466 
L 227.253158 253.614466 
L 227.349508 251.124183 
L 227.672684 251.124183 
L 227.672684 249.879041 
L 227.81818 249.879041 
L 227.81818 248.6339 
L 228.339223 248.6339 
L 228.339223 247.388758 
L 228.515996 247.388758 
L 228.515996 246.143617 
L 228.694268 246.143617 
L 228.694268 244.898475 
L 228.842487 244.898475 
L 228.842487 243.653333 
L 229.22432 243.653333 
L 229.22432 242.408192 
L 229.451422 242.408192 
L 229.547496 239.917908 
L 229.751854 239.917908 
L 229.751854 238.672767 
L 229.940633 238.672767 
L 229.940633 237.427625 
L 230.080801 237.427625 
L 230.080801 236.182484 
L 230.32751 236.182484 
L 230.32751 234.937342 
L 230.473007 234.937342 
L 230.56908 232.447059 
L 230.796182 232.447059 
L 230.796182 231.201917 
L 231.014692 231.201917 
L 231.014692 229.956776 
L 231.324269 229.956776 
L 231.353264 227.466492 
L 231.714043 227.466492 
L 231.714043 226.221351 
L 232.202323 226.221351 
L 232.202323 224.976209 
L 232.439329 224.976209 
L 232.439329 223.731068 
L 232.596732 223.731068 
L 232.596732 222.485926 
L 232.735627 222.485926 
L 232.735627 221.240784 
L 232.85611 221.240784 
L 232.957511 217.505359 
L 233.058803 217.505359 
L 233.058803 216.260218 
L 233.179286 216.260218 
L 233.179286 215.015076 
L 233.312556 215.015076 
L 233.312556 213.769935 
L 233.979095 213.769935 
L 233.979095 212.524793 
L 234.20087 212.524793 
L 234.302271 210.03451 
L 234.558921 210.03451 
L 234.558921 208.789368 
L 234.737193 208.789368 
L 234.809806 206.299085 
L 234.859352 206.299085 
L 234.859352 205.053943 
L 235.028315 205.053943 
L 235.028315 203.808802 
L 235.187368 203.808802 
L 235.187368 202.56366 
L 235.351491 202.56366 
L 235.424374 200.073377 
L 235.580505 200.073377 
L 235.580505 198.828235 
L 235.834112 198.828235 
L 235.903681 196.337952 
L 236.373075 196.337952 
L 236.452952 193.847669 
L 236.612005 193.847669 
L 236.612005 192.602527 
L 236.776128 192.602527 
L 236.776128 191.357386 
L 236.909398 191.357386 
L 236.909398 190.112244 
L 237.057617 190.112244 
L 237.072426 187.621961 
L 237.308502 187.621961 
L 237.308502 186.376819 
L 237.797713 186.376819 
L 237.797713 185.131678 
L 238.006318 185.131678 
L 238.079201 182.641394 
L 238.315894 182.641394 
L 238.402377 180.151111 
L 238.78421 180.151111 
L 238.819158 177.660828 
L 238.909912 177.660828 
L 238.909912 176.415686 
L 239.430955 176.415686 
L 239.437998 173.925403 
L 239.571122 173.925403 
L 239.571122 172.680261 
L 239.761173 172.680261 
L 239.761173 171.43512 
L 239.917304 171.43512 
L 239.917304 170.189978 
L 240.153379 170.189978 
L 240.243795 167.699695 
L 240.541188 167.699695 
L 240.541188 166.454553 
L 240.782758 166.454553 
L 240.81459 163.96427 
L 240.991363 163.96427 
L 241.07124 161.473987 
L 241.172532 161.473987 
L 241.172532 160.228845 
L 241.394416 160.228845 
L 241.394416 158.983704 
L 242.092824 158.983704 
L 242.092824 157.738562 
L 242.416 157.738562 
L 242.416 139.061438 
L 242.739176 139.061438 
L 242.739176 137.816296 
L 243.437584 137.816296 
L 243.437584 136.571155 
L 243.659468 136.571155 
L 243.76076 134.080871 
L 243.840637 134.080871 
L 243.840637 132.83573 
L 244.01741 132.83573 
L 244.049242 130.345447 
L 244.290812 130.345447 
L 244.290812 129.100305 
L 244.588205 129.100305 
L 244.678621 126.610022 
L 244.914696 126.610022 
L 244.914696 125.36488 
L 245.070827 125.36488 
L 245.070827 124.119739 
L 245.260878 124.119739 
L 245.260878 122.874597 
L 245.394002 122.874597 
L 245.401045 120.384314 
L 245.922088 120.384314 
L 246.012842 117.894031 
L 246.04779 117.894031 
L 246.04779 116.648889 
L 246.429623 116.648889 
L 246.516106 114.158606 
L 246.752799 114.158606 
L 246.825682 111.668322 
L 247.034287 111.668322 
L 247.034287 110.423181 
L 247.523498 110.423181 
L 247.523498 109.178039 
L 247.759574 109.178039 
L 247.774383 106.687756 
L 247.922602 106.687756 
L 247.922602 105.442614 
L 248.055872 105.442614 
L 248.055872 104.197473 
L 248.219995 104.197473 
L 248.219995 102.952331 
L 248.379048 102.952331 
L 248.458925 100.462048 
L 248.928319 100.462048 
L 248.997888 97.971765 
L 249.251495 97.971765 
L 249.251495 96.726623 
L 249.407626 96.726623 
L 249.480509 94.23634 
L 249.644632 94.23634 
L 249.644632 92.991198 
L 249.803685 92.991198 
L 249.803685 91.746057 
L 249.972648 91.746057 
L 250.022194 89.255773 
L 250.094807 89.255773 
L 250.094807 88.010632 
L 250.273079 88.010632 
L 250.273079 86.76549 
L 250.529729 86.76549 
L 250.63113 84.275207 
L 250.852905 84.275207 
L 250.852905 83.030065 
L 251.519444 83.030065 
L 251.519444 81.784924 
L 251.652714 81.784924 
L 251.652714 80.539782 
L 251.773197 80.539782 
L 251.874489 78.049499 
L 251.906322 78.049499 
L 251.97589 75.559216 
L 252.096373 75.559216 
L 252.096373 74.314074 
L 252.235268 74.314074 
L 252.235268 73.068932 
L 252.392671 73.068932 
L 252.392671 71.823791 
L 252.629677 71.823791 
L 252.629677 70.578649 
L 253.117957 70.578649 
L 253.117957 69.333508 
L 253.478736 69.333508 
L 253.507731 66.843224 
L 253.817308 66.843224 
L 253.817308 65.598083 
L 254.035818 65.598083 
L 254.035818 64.352941 
L 254.26292 64.352941 
L 254.358993 61.862658 
L 254.50449 61.862658 
L 254.50449 60.617516 
L 254.751199 60.617516 
L 254.751199 59.372375 
L 254.891367 59.372375 
L 254.891367 58.127233 
L 255.080146 58.127233 
L 255.080146 56.882092 
L 255.284504 56.882092 
L 255.380578 54.391808 
L 255.60768 54.391808 
L 255.60768 53.146667 
L 255.989513 53.146667 
L 255.989513 51.901525 
L 256.137732 51.901525 
L 256.137732 50.656383 
L 256.316004 50.656383 
L 256.316004 49.411242 
L 256.492777 49.411242 
L 256.492777 48.1661 
L 257.01382 48.1661 
L 257.01382 46.920959 
L 257.159316 46.920959 
L 257.159316 45.675817 
L 257.482492 45.675817 
L 257.578842 43.185534 
L 257.736245 43.185534 
L 257.736245 41.940392 
L 257.917414 41.940392 
L 257.917414 40.695251 
L 258.488209 40.695251 
L 258.488209 39.450109 
L 259.160882 39.450109 
L 259.160882 38.204967 
L 259.621303 38.204967 
L 259.621303 36.959826 
L 259.998865 36.959826 
L 260.089619 34.469542 
L 261.333087 34.469542 
L 261.423502 31.979259 
L 261.496115 31.979259 
L 261.592465 29.488976 
L 261.915641 29.488976 
L 261.915641 28.243834 
L 262.119999 28.243834 
L 262.119999 26.998693 
L 262.937225 26.998693 
L 262.937225 25.753551 
L 263.595708 25.753551 
L 263.595708 24.50841 
L 263.721409 24.50841 
L 263.721409 23.263268 
L 263.994811 23.263268 
L 263.994811 22.018126 
L 264.570468 22.018126 
L 264.570468 20.772985 
L 264.964877 20.772985 
L 264.964877 19.527843 
L 265.596221 19.527843 
L 265.596221 18.282702 
L 266.839689 18.282702 
L 266.839689 17.03756 
L 267.227497 17.03756 
L 267.227497 15.792418 
L 267.555513 15.792418 
L 267.555513 14.547277 
L 268.98015 14.547277 
L 268.98015 13.302135 
L 269.10231 13.302135 
L 269.10231 12.056993 
L 271.152355 12.056993 
L 271.152355 10.811852 
L 274.784145 10.811852 
L 274.784145 9.56671 
L 276.658957 9.56671 
L 276.658957 8.321569 
L 450.672 8.321569 
L 450.672 8.321569 
" style="fill:none;stroke:#00bfbf;stroke-linecap:square;stroke-width:3;"/>
   </g>
   <g id="line2d_20">
    <path clip-path="url(#p9898c096e7)" style="fill:none;stroke:#00bfbf;stroke-linecap:square;stroke-width:3;"/>
   </g>
   <g id="line2d_21"/>
   <g id="line2d_22"/>
   <g id="line2d_23">
    <path clip-path="url(#p9898c096e7)" d="M 242.416 291.28 
L 242.416 5.52 
" style="fill:none;stroke:#000000;stroke-linecap:square;stroke-width:1.5;"/>
   </g>
   <g id="line2d_24">
    <path clip-path="url(#p9898c096e7)" d="M 34.16 148.4 
L 450.672 148.4 
" style="fill:none;stroke:#000000;stroke-dasharray:2,3.3;stroke-dashoffset:0;stroke-width:2;"/>
   </g>
   <g id="patch_3">
    <path d="M 34.16 291.28 
L 34.16 5.52 
" style="fill:none;stroke:#000000;stroke-linecap:square;stroke-linejoin:miter;stroke-width:0.8;"/>
   </g>
   <g id="patch_4">
    <path d="M 450.672 291.28 
L 450.672 5.52 
" style="fill:none;stroke:#000000;stroke-linecap:square;stroke-linejoin:miter;stroke-width:0.8;"/>
   </g>
   <g id="patch_5">
    <path d="M 34.16 291.28 
L 450.672 291.28 
" style="fill:none;stroke:#000000;stroke-linecap:square;stroke-linejoin:miter;stroke-width:0.8;"/>
   </g>
   <g id="patch_6">
    <path d="M 34.16 5.52 
L 450.672 5.52 
" style="fill:none;stroke:#000000;stroke-linecap:square;stroke-linejoin:miter;stroke-width:0.8;"/>
   </g>
   <g id="text_6">
    <!-- f1-f24,20-D -->
    <defs>
     <path d="M 37.796875 64.3125 
L 12.890625 25.390625 
L 37.796875 25.390625 
z
M 35.203125 72.90625 
L 47.609375 72.90625 
L 47.609375 25.390625 
L 58.015625 25.390625 
L 58.015625 17.1875 
L 47.609375 17.1875 
L 47.609375 0 
L 37.796875 0 
L 37.796875 17.1875 
L 4.890625 17.1875 
L 4.890625 26.703125 
z
" id="DejaVuSans-34"/>
     <path d="M 11.71875 12.40625 
L 22.015625 12.40625 
L 22.015625 4 
L 14.015625 -11.625 
L 7.71875 -11.625 
L 11.71875 4 
z
" id="DejaVuSans-2c"/>
     <path d="M 19.671875 64.796875 
L 19.671875 8.109375 
L 31.59375 8.109375 
Q 46.6875 8.109375 53.6875 14.9375 
Q 60.6875 21.78125 60.6875 36.53125 
Q 60.6875 51.171875 53.6875 57.984375 
Q 46.6875 64.796875 31.59375 64.796875 
z
M 9.8125 72.90625 
L 30.078125 72.90625 
Q 51.265625 72.90625 61.171875 64.09375 
Q 71.09375 55.28125 71.09375 36.53125 
Q 71.09375 17.671875 61.125 8.828125 
Q 51.171875 0 30.078125 0 
L 9.8125 0 
z
" id="DejaVuSans-44"/>
    </defs>
    <g transform="translate(328.44801 285.5648)scale(0.2 -0.2)">
     <use xlink:href="#DejaVuSans-66"/>
     <use x="35.205078" xlink:href="#DejaVuSans-31"/>
     <use x="98.828125" xlink:href="#DejaVuSans-2d"/>
     <use x="134.912109" xlink:href="#DejaVuSans-66"/>
     <use x="170.117188" xlink:href="#DejaVuSans-32"/>
     <use x="233.740234" xlink:href="#DejaVuSans-34"/>
     <use x="297.363281" xlink:href="#DejaVuSans-2c"/>
     <use x="329.150391" xlink:href="#DejaVuSans-32"/>
     <use x="392.773438" xlink:href="#DejaVuSans-30"/>
     <use x="456.396484" xlink:href="#DejaVuSans-2d"/>
     <use x="492.480469" xlink:href="#DejaVuSans-44"/>
    </g>
   </g>
   <g id="text_7">
    <!-- v0.0.0 -->
    <defs>
     <path d="M 10.6875 12.40625 
L 21 12.40625 
L 21 0 
L 10.6875 0 
z
" id="DejaVuSans-2e"/>
    </defs>
    <g style="fill:#808080;" transform="translate(226.73475 286.342713)scale(0.1 -0.1)">
     <use xlink:href="#DejaVuSans-76"/>
     <use x="59.179688" xlink:href="#DejaVuSans-30"/>
     <use x="122.802734" xlink:href="#DejaVuSans-2e"/>
     <use x="154.589844" xlink:href="#DejaVuSans-30"/>
     <use x="218.212891" xlink:href="#DejaVuSans-2e"/>
     <use x="250" xlink:href="#DejaVuSans-30"/>
    </g>
   </g>
   <g id="legend_1">
    <g id="patch_7">
     <path d="M 48.16 138.945 
L 177.381875 138.945 
Q 181.381875 138.945 181.381875 134.945 
L 181.381875 19.52 
Q 181.381875 15.52 177.381875 15.52 
L 48.16 15.52 
Q 44.16 15.52 44.16 19.52 
L 44.16 134.945 
Q 44.16 138.945 48.16 138.945 
z
" style="fill:#ffffff;opacity:0.2;stroke:#cccccc;stroke-linejoin:miter;"/>
    </g>
    <g id="line2d_25">
     <path d="M 52.16 31.716875 
L 92.16 31.716875 
" style="fill:none;stroke:#000000;stroke-linecap:square;stroke-width:3;"/>
    </g>
    <g id="line2d_26"/>
    <g id="text_8">
     <!-- 1: 5/5 -->
     <defs>
      <path d="M 11.71875 12.40625 
L 22.015625 12.40625 
L 22.015625 0 
L 11.71875 0 
z
M 11.71875 51.703125 
L 22.015625 51.703125 
L 22.015625 39.3125 
L 11.71875 39.3125 
z
" id="DejaVuSans-3a"/>
      <path d="M 10.796875 72.90625 
L 49.515625 72.90625 
L 49.515625 64.59375 
L 19.828125 64.59375 
L 19.828125 46.734375 
Q 21.96875 47.46875 24.109375 47.828125 
Q 26.265625 48.1875 28.421875 48.1875 
Q 40.625 48.1875 47.75 41.5 
Q 54.890625 34.8125 54.890625 23.390625 
Q 54.890625 11.625 47.5625 5.09375 
Q 40.234375 -1.421875 26.90625 -1.421875 
Q 22.3125 -1.421875 17.546875 -0.640625 
Q 12.796875 0.140625 7.71875 1.703125 
L 7.71875 11.625 
Q 12.109375 9.234375 16.796875 8.0625 
Q 21.484375 6.890625 26.703125 6.890625 
Q 35.15625 6.890625 40.078125 11.328125 
Q 45.015625 15.765625 45.015625 23.390625 
Q 45.015625 31 40.078125 35.4375 
Q 35.15625 39.890625 26.703125 39.890625 
Q 22.75 39.890625 18.8125 39.015625 
Q 14.890625 38.140625 10.796875 36.28125 
z
" id="DejaVuSans-35"/>
      <path d="M 25.390625 72.90625 
L 33.6875 72.90625 
L 8.296875 -9.28125 
L 0 -9.28125 
z
" id="DejaVuSans-2f"/>
     </defs>
     <g transform="translate(108.16 38.716875)scale(0.2 -0.2)">
      <use xlink:href="#DejaVuSans-31"/>
      <use x="63.623047" xlink:href="#DejaVuSans-3a"/>
      <use x="97.314453" xlink:href="#DejaVuSans-20"/>
      <use x="129.101562" xlink:href="#DejaVuSans-35"/>
      <use x="192.724609" xlink:href="#DejaVuSans-2f"/>
      <use x="226.416016" xlink:href="#DejaVuSans-35"/>
     </g>
    </g>
    <g id="line2d_27">
     <path d="M 52.16 61.073125 
L 92.16 61.073125 
" style="fill:none;stroke:#00bfbf;stroke-linecap:square;stroke-width:3;"/>
    </g>
    <g id="line2d_28"/>
    <g id="text_9">
     <!-- -1: 1/1 -->
     <g transform="translate(108.16 68.073125)scale(0.2 -0.2)">
      <use xlink:href="#DejaVuSans-2d"/>
      <use x="36.083984" xlink:href="#DejaVuSans-31"/>
      <use x="99.707031" xlink:href="#DejaVuSans-3a"/>
      <use x="133.398438" xlink:href="#DejaVuSans-20"/>
      <use x="165.185547" xlink:href="#DejaVuSans-31"/>
      <use x="228.808594" xlink:href="#DejaVuSans-2f"/>
      <use x="262.5" xlink:href="#DejaVuSans-31"/>
     </g>
    </g>
    <g id="line2d_29">
     <path d="M 52.16 90.429375 
L 92.16 90.429375 
" style="fill:none;stroke:#bf00bf;stroke-linecap:square;stroke-width:3;"/>
    </g>
    <g id="line2d_30"/>
    <g id="text_10">
     <!-- -4: 0/0 -->
     <g transform="translate(108.16 97.429375)scale(0.2 -0.2)">
      <use xlink:href="#DejaVuSans-2d"/>
      <use x="36.083984" xlink:href="#DejaVuSans-34"/>
      <use x="99.707031" xlink:href="#DejaVuSans-3a"/>
      <use x="133.398438" xlink:href="#DejaVuSans-20"/>
      <use x="165.185547" xlink:href="#DejaVuSans-30"/>
      <use x="228.808594" xlink:href="#DejaVuSans-2f"/>
      <use x="262.5" xlink:href="#DejaVuSans-30"/>
     </g>
    </g>
    <g id="line2d_31">
     <path d="M 52.16 119.785625 
L 92.16 119.785625 
" style="fill:none;stroke:#ff0000;stroke-linecap:square;stroke-width:3;"/>
    </g>
    <g id="line2d_32"/>
    <g id="text_11">
     <!-- -8: 0/0 -->
     <defs>
      <path d="M 31.78125 34.625 
Q 24.75 34.625 20.71875 30.859375 
Q 16.703125 27.09375 16.703125 20.515625 
Q 16.703125 13.921875 20.71875 10.15625 
Q 24.75 6.390625 31.78125 6.390625 
Q 38.8125 6.390625 42.859375 10.171875 
Q 46.921875 13.96875 46.921875 20.515625 
Q 46.921875 27.09375 42.890625 30.859375 
Q 38.875 34.625 31.78125 34.625 
z
M 21.921875 38.8125 
Q 15.578125 40.375 12.03125 44.71875 
Q 8.5 49.078125 8.5 55.328125 
Q 8.5 64.0625 14.71875 69.140625 
Q 20.953125 74.21875 31.78125 74.21875 
Q 42.671875 74.21875 48.875 69.140625 
Q 55.078125 64.0625 55.078125 55.328125 
Q 55.078125 49.078125 51.53125 44.71875 
Q 48 40.375 41.703125 38.8125 
Q 48.828125 37.15625 52.796875 32.3125 
Q 56.78125 27.484375 56.78125 20.515625 
Q 56.78125 9.90625 50.3125 4.234375 
Q 43.84375 -1.421875 31.78125 -1.421875 
Q 19.734375 -1.421875 13.25 4.234375 
Q 6.78125 9.90625 6.78125 20.515625 
Q 6.78125 27.484375 10.78125 32.3125 
Q 14.796875 37.15625 21.921875 38.8125 
z
M 18.3125 54.390625 
Q 18.3125 48.734375 21.84375 45.5625 
Q 25.390625 42.390625 31.78125 42.390625 
Q 38.140625 42.390625 41.71875 45.5625 
Q 45.3125 48.734375 45.3125 54.390625 
Q 45.3125 60.0625 41.71875 63.234375 
Q 38.140625 66.40625 31.78125 66.40625 
Q 25.390625 66.40625 21.84375 63.234375 
Q 18.3125 60.0625 18.3125 54.390625 
z
" id="DejaVuSans-38"/>
     </defs>
     <g transform="translate(108.16 126.785625)scale(0.2 -0.2)">
      <use xlink:href="#DejaVuSans-2d"/>
      <use x="36.083984" xlink:href="#DejaVuSans-38"/>
      <use x="99.707031" xlink:href="#DejaVuSans-3a"/>
      <use x="133.398438" xlink:href="#DejaVuSans-20"/>
      <use x="165.185547" xlink:href="#DejaVuSans-30"/>
      <use x="228.808594" xlink:href="#DejaVuSans-2f"/>
      <use x="262.5" xlink:href="#DejaVuSans-30"/>
     </g>
    </g>
   </g>
  </g>
 </g>
 <defs>
  <clipPath id="p9898c096e7">
   <rect height="285.76" width="416.512" x="34.16" y="5.52"/>
  </clipPath>
 </defs>
</svg>
