<?xml version="1.0" encoding="utf-8" standalone="no"?>
<!DOCTYPE svg PUBLIC "-//W3C//DTD SVG 1.1//EN"
  "http://www.w3.org/Graphics/SVG/1.1/DTD/svg11.dtd">
<!-- Created with matplotlib (http://matplotlib.org/) -->
<svg height="345pt" version="1.1" viewBox="0 0 460 345" width="460pt" xmlns="http://www.w3.org/2000/svg" xmlns:xlink="http://www.w3.org/1999/xlink">
 <defs>
  <style type="text/css">
*{stroke-linecap:butt;stroke-linejoin:round;}
  </style>
 </defs>
 <g id="figure_1">
  <g id="patch_1">
   <path d="M 0 345.6 
L 460.8 345.6 
L 460.8 0 
L 0 0 
z
" style="fill:#ffffff;"/>
  </g>
  <g id="axes_1">
   <g id="patch_2">
    <path d="M 34.16 291.28 
L 450.672 291.28 
L 450.672 5.52 
L 34.16 5.52 
z
" style="fill:#ffffff;"/>
   </g>
   <g id="matplotlib.axis_1">
    <g id="xtick_1">
     <g id="line2d_1">
      <path clip-path="url(#pb2ff413298)" d="M 81.831719 291.28 
L 81.831719 5.52 
" style="fill:none;stroke:#b0b0b0;stroke-linecap:square;stroke-width:0.8;"/>
     </g>
     <g id="line2d_2">
      <defs>
       <path d="M 0 0 
L 0 3.5 
" id="m870f595eaf" style="stroke:#000000;stroke-width:0.8;"/>
      </defs>
      <g>
       <use style="stroke:#000000;stroke-width:0.8;" x="81.831719" xlink:href="#m870f595eaf" y="291.28"/>
      </g>
     </g>
     <g id="text_1">
      <!-- -2 -->
      <defs>
       <path d="M 4.890625 31.390625 
L 31.203125 31.390625 
L 31.203125 23.390625 
L 4.890625 23.390625 
z
" id="DejaVuSans-2d"/>
       <path d="M 19.1875 8.296875 
L 53.609375 8.296875 
L 53.609375 0 
L 7.328125 0 
L 7.328125 8.296875 
Q 12.9375 14.109375 22.625 23.890625 
Q 32.328125 33.6875 34.8125 36.53125 
Q 39.546875 41.84375 41.421875 45.53125 
Q 43.3125 49.21875 43.3125 52.78125 
Q 43.3125 58.59375 39.234375 62.25 
Q 35.15625 65.921875 28.609375 65.921875 
Q 23.96875 65.921875 18.8125 64.3125 
Q 13.671875 62.703125 7.8125 59.421875 
L 7.8125 69.390625 
Q 13.765625 71.78125 18.9375 73 
Q 24.125 74.21875 28.421875 74.21875 
Q 39.75 74.21875 46.484375 68.546875 
Q 53.21875 62.890625 53.21875 53.421875 
Q 53.21875 48.921875 51.53125 44.890625 
Q 49.859375 40.875 45.40625 35.40625 
Q 44.1875 33.984375 37.640625 27.21875 
Q 31.109375 20.453125 19.1875 8.296875 
z
" id="DejaVuSans-32"/>
      </defs>
      <g transform="translate(71.861406 313.476875)scale(0.2 -0.2)">
       <use xlink:href="#DejaVuSans-2d"/>
       <use x="36.083984" xlink:href="#DejaVuSans-32"/>
      </g>
     </g>
    </g>
    <g id="xtick_2">
     <g id="line2d_3">
      <path clip-path="url(#pb2ff413298)" d="M 162.123859 291.28 
L 162.123859 5.52 
" style="fill:none;stroke:#b0b0b0;stroke-linecap:square;stroke-width:0.8;"/>
     </g>
     <g id="line2d_4">
      <g>
       <use style="stroke:#000000;stroke-width:0.8;" x="162.123859" xlink:href="#m870f595eaf" y="291.28"/>
      </g>
     </g>
     <g id="text_2">
      <!-- -1 -->
      <defs>
       <path d="M 12.40625 8.296875 
L 28.515625 8.296875 
L 28.515625 63.921875 
L 10.984375 60.40625 
L 10.984375 69.390625 
L 28.421875 72.90625 
L 38.28125 72.90625 
L 38.28125 8.296875 
L 54.390625 8.296875 
L 54.390625 0 
L 12.40625 0 
z
" id="DejaVuSans-31"/>
      </defs>
      <g transform="translate(152.153547 313.476875)scale(0.2 -0.2)">
       <use xlink:href="#DejaVuSans-2d"/>
       <use x="36.083984" xlink:href="#DejaVuSans-31"/>
      </g>
     </g>
    </g>
    <g id="xtick_3">
     <g id="line2d_5">
      <path clip-path="url(#pb2ff413298)" d="M 242.416 291.28 
L 242.416 5.52 
" style="fill:none;stroke:#b0b0b0;stroke-linecap:square;stroke-width:0.8;"/>
     </g>
     <g id="line2d_6">
      <g>
       <use style="stroke:#000000;stroke-width:0.8;" x="242.416" xlink:href="#m870f595eaf" y="291.28"/>
      </g>
     </g>
     <g id="text_3">
      <!-- 0 -->
      <defs>
       <path d="M 31.78125 66.40625 
Q 24.171875 66.40625 20.328125 58.90625 
Q 16.5 51.421875 16.5 36.375 
Q 16.5 21.390625 20.328125 13.890625 
Q 24.171875 6.390625 31.78125 6.390625 
Q 39.453125 6.390625 43.28125 13.890625 
Q 47.125 21.390625 47.125 36.375 
Q 47.125 51.421875 43.28125 58.90625 
Q 39.453125 66.40625 31.78125 66.40625 
z
M 31.78125 74.21875 
Q 44.046875 74.21875 50.515625 64.515625 
Q 56.984375 54.828125 56.984375 36.375 
Q 56.984375 17.96875 50.515625 8.265625 
Q 44.046875 -1.421875 31.78125 -1.421875 
Q 19.53125 -1.421875 13.0625 8.265625 
Q 6.59375 17.96875 6.59375 36.375 
Q 6.59375 54.828125 13.0625 64.515625 
Q 19.53125 74.21875 31.78125 74.21875 
z
" id="DejaVuSans-30"/>
      </defs>
      <g transform="translate(236.0535 313.476875)scale(0.2 -0.2)">
       <use xlink:href="#DejaVuSans-30"/>
      </g>
     </g>
    </g>
    <g id="xtick_4">
     <g id="line2d_7">
      <path clip-path="url(#pb2ff413298)" d="M 322.708141 291.28 
L 322.708141 5.52 
" style="fill:none;stroke:#b0b0b0;stroke-linecap:square;stroke-width:0.8;"/>
     </g>
     <g id="line2d_8">
      <g>
       <use style="stroke:#000000;stroke-width:0.8;" x="322.708141" xlink:href="#m870f595eaf" y="291.28"/>
      </g>
     </g>
     <g id="text_4">
      <!-- 1 -->
      <g transform="translate(316.345641 313.476875)scale(0.2 -0.2)">
       <use xlink:href="#DejaVuSans-31"/>
      </g>
     </g>
    </g>
    <g id="xtick_5">
     <g id="line2d_9">
      <path clip-path="url(#pb2ff413298)" d="M 403.000281 291.28 
L 403.000281 5.52 
" style="fill:none;stroke:#b0b0b0;stroke-linecap:square;stroke-width:0.8;"/>
     </g>
     <g id="line2d_10">
      <g>
       <use style="stroke:#000000;stroke-width:0.8;" x="403.000281" xlink:href="#m870f595eaf" y="291.28"/>
      </g>
     </g>
     <g id="text_5">
      <!-- 2 -->
      <g transform="translate(396.637781 313.476875)scale(0.2 -0.2)">
       <use xlink:href="#DejaVuSans-32"/>
      </g>
     </g>
    </g>
    <g id="xtick_6">
     <g id="line2d_11">
      <defs>
       <path d="M 0 0 
L 0 2 
" id="mb31c716cb9" style="stroke:#000000;stroke-width:0.6;"/>
      </defs>
      <g>
       <use style="stroke:#000000;stroke-width:0.6;" x="39.848665" xlink:href="#mb31c716cb9" y="291.28"/>
      </g>
     </g>
    </g>
    <g id="xtick_7">
     <g id="line2d_12">
      <g>
       <use style="stroke:#000000;stroke-width:0.6;" x="49.880264" xlink:href="#mb31c716cb9" y="291.28"/>
      </g>
     </g>
    </g>
    <g id="xtick_8">
     <g id="line2d_13">
      <g>
       <use style="stroke:#000000;stroke-width:0.6;" x="57.661376" xlink:href="#mb31c716cb9" y="291.28"/>
      </g>
     </g>
    </g>
    <g id="xtick_9">
     <g id="line2d_14">
      <g>
       <use style="stroke:#000000;stroke-width:0.6;" x="64.019008" xlink:href="#mb31c716cb9" y="291.28"/>
      </g>
     </g>
    </g>
    <g id="xtick_10">
     <g id="line2d_15">
      <g>
       <use style="stroke:#000000;stroke-width:0.6;" x="69.394309" xlink:href="#mb31c716cb9" y="291.28"/>
      </g>
     </g>
    </g>
    <g id="xtick_11">
     <g id="line2d_16">
      <g>
       <use style="stroke:#000000;stroke-width:0.6;" x="74.050606" xlink:href="#mb31c716cb9" y="291.28"/>
      </g>
     </g>
    </g>
    <g id="xtick_12">
     <g id="line2d_17">
      <g>
       <use style="stroke:#000000;stroke-width:0.6;" x="78.157752" xlink:href="#mb31c716cb9" y="291.28"/>
      </g>
     </g>
    </g>
    <g id="xtick_13">
     <g id="line2d_18">
      <g>
       <use style="stroke:#000000;stroke-width:0.6;" x="106.002061" xlink:href="#mb31c716cb9" y="291.28"/>
      </g>
     </g>
    </g>
    <g id="xtick_14">
     <g id="line2d_19">
      <g>
       <use style="stroke:#000000;stroke-width:0.6;" x="120.140806" xlink:href="#mb31c716cb9" y="291.28"/>
      </g>
     </g>
    </g>
    <g id="xtick_15">
     <g id="line2d_20">
      <g>
       <use style="stroke:#000000;stroke-width:0.6;" x="130.172404" xlink:href="#mb31c716cb9" y="291.28"/>
      </g>
     </g>
    </g>
    <g id="xtick_16">
     <g id="line2d_21">
      <g>
       <use style="stroke:#000000;stroke-width:0.6;" x="137.953517" xlink:href="#mb31c716cb9" y="291.28"/>
      </g>
     </g>
    </g>
    <g id="xtick_17">
     <g id="line2d_22">
      <g>
       <use style="stroke:#000000;stroke-width:0.6;" x="144.311148" xlink:href="#mb31c716cb9" y="291.28"/>
      </g>
     </g>
    </g>
    <g id="xtick_18">
     <g id="line2d_23">
      <g>
       <use style="stroke:#000000;stroke-width:0.6;" x="149.686449" xlink:href="#mb31c716cb9" y="291.28"/>
      </g>
     </g>
    </g>
    <g id="xtick_19">
     <g id="line2d_24">
      <g>
       <use style="stroke:#000000;stroke-width:0.6;" x="154.342747" xlink:href="#mb31c716cb9" y="291.28"/>
      </g>
     </g>
    </g>
    <g id="xtick_20">
     <g id="line2d_25">
      <g>
       <use style="stroke:#000000;stroke-width:0.6;" x="158.449892" xlink:href="#mb31c716cb9" y="291.28"/>
      </g>
     </g>
    </g>
    <g id="xtick_21">
     <g id="line2d_26">
      <g>
       <use style="stroke:#000000;stroke-width:0.6;" x="186.294202" xlink:href="#mb31c716cb9" y="291.28"/>
      </g>
     </g>
    </g>
    <g id="xtick_22">
     <g id="line2d_27">
      <g>
       <use style="stroke:#000000;stroke-width:0.6;" x="200.432946" xlink:href="#mb31c716cb9" y="291.28"/>
      </g>
     </g>
    </g>
    <g id="xtick_23">
     <g id="line2d_28">
      <g>
       <use style="stroke:#000000;stroke-width:0.6;" x="210.464545" xlink:href="#mb31c716cb9" y="291.28"/>
      </g>
     </g>
    </g>
    <g id="xtick_24">
     <g id="line2d_29">
      <g>
       <use style="stroke:#000000;stroke-width:0.6;" x="218.245657" xlink:href="#mb31c716cb9" y="291.28"/>
      </g>
     </g>
    </g>
    <g id="xtick_25">
     <g id="line2d_30">
      <g>
       <use style="stroke:#000000;stroke-width:0.6;" x="224.603289" xlink:href="#mb31c716cb9" y="291.28"/>
      </g>
     </g>
    </g>
    <g id="xtick_26">
     <g id="line2d_31">
      <g>
       <use style="stroke:#000000;stroke-width:0.6;" x="229.97859" xlink:href="#mb31c716cb9" y="291.28"/>
      </g>
     </g>
    </g>
    <g id="xtick_27">
     <g id="line2d_32">
      <g>
       <use style="stroke:#000000;stroke-width:0.6;" x="234.634888" xlink:href="#mb31c716cb9" y="291.28"/>
      </g>
     </g>
    </g>
    <g id="xtick_28">
     <g id="line2d_33">
      <g>
       <use style="stroke:#000000;stroke-width:0.6;" x="238.742033" xlink:href="#mb31c716cb9" y="291.28"/>
      </g>
     </g>
    </g>
    <g id="xtick_29">
     <g id="line2d_34">
      <g>
       <use style="stroke:#000000;stroke-width:0.6;" x="266.586343" xlink:href="#mb31c716cb9" y="291.28"/>
      </g>
     </g>
    </g>
    <g id="xtick_30">
     <g id="line2d_35">
      <g>
       <use style="stroke:#000000;stroke-width:0.6;" x="280.725087" xlink:href="#mb31c716cb9" y="291.28"/>
      </g>
     </g>
    </g>
    <g id="xtick_31">
     <g id="line2d_36">
      <g>
       <use style="stroke:#000000;stroke-width:0.6;" x="290.756685" xlink:href="#mb31c716cb9" y="291.28"/>
      </g>
     </g>
    </g>
    <g id="xtick_32">
     <g id="line2d_37">
      <g>
       <use style="stroke:#000000;stroke-width:0.6;" x="298.537798" xlink:href="#mb31c716cb9" y="291.28"/>
      </g>
     </g>
    </g>
    <g id="xtick_33">
     <g id="line2d_38">
      <g>
       <use style="stroke:#000000;stroke-width:0.6;" x="304.89543" xlink:href="#mb31c716cb9" y="291.28"/>
      </g>
     </g>
    </g>
    <g id="xtick_34">
     <g id="line2d_39">
      <g>
       <use style="stroke:#000000;stroke-width:0.6;" x="310.270731" xlink:href="#mb31c716cb9" y="291.28"/>
      </g>
     </g>
    </g>
    <g id="xtick_35">
     <g id="line2d_40">
      <g>
       <use style="stroke:#000000;stroke-width:0.6;" x="314.927028" xlink:href="#mb31c716cb9" y="291.28"/>
      </g>
     </g>
    </g>
    <g id="xtick_36">
     <g id="line2d_41">
      <g>
       <use style="stroke:#000000;stroke-width:0.6;" x="319.034174" xlink:href="#mb31c716cb9" y="291.28"/>
      </g>
     </g>
    </g>
    <g id="xtick_37">
     <g id="line2d_42">
      <g>
       <use style="stroke:#000000;stroke-width:0.6;" x="346.878483" xlink:href="#mb31c716cb9" y="291.28"/>
      </g>
     </g>
    </g>
    <g id="xtick_38">
     <g id="line2d_43">
      <g>
       <use style="stroke:#000000;stroke-width:0.6;" x="361.017228" xlink:href="#mb31c716cb9" y="291.28"/>
      </g>
     </g>
    </g>
    <g id="xtick_39">
     <g id="line2d_44">
      <g>
       <use style="stroke:#000000;stroke-width:0.6;" x="371.048826" xlink:href="#mb31c716cb9" y="291.28"/>
      </g>
     </g>
    </g>
    <g id="xtick_40">
     <g id="line2d_45">
      <g>
       <use style="stroke:#000000;stroke-width:0.6;" x="378.829939" xlink:href="#mb31c716cb9" y="291.28"/>
      </g>
     </g>
    </g>
    <g id="xtick_41">
     <g id="line2d_46">
      <g>
       <use style="stroke:#000000;stroke-width:0.6;" x="385.18757" xlink:href="#mb31c716cb9" y="291.28"/>
      </g>
     </g>
    </g>
    <g id="xtick_42">
     <g id="line2d_47">
      <g>
       <use style="stroke:#000000;stroke-width:0.6;" x="390.562871" xlink:href="#mb31c716cb9" y="291.28"/>
      </g>
     </g>
    </g>
    <g id="xtick_43">
     <g id="line2d_48">
      <g>
       <use style="stroke:#000000;stroke-width:0.6;" x="395.219169" xlink:href="#mb31c716cb9" y="291.28"/>
      </g>
     </g>
    </g>
    <g id="xtick_44">
     <g id="line2d_49">
      <g>
       <use style="stroke:#000000;stroke-width:0.6;" x="399.326314" xlink:href="#mb31c716cb9" y="291.28"/>
      </g>
     </g>
    </g>
    <g id="xtick_45">
     <g id="line2d_50">
      <g>
       <use style="stroke:#000000;stroke-width:0.6;" x="427.170624" xlink:href="#mb31c716cb9" y="291.28"/>
      </g>
     </g>
    </g>
    <g id="xtick_46">
     <g id="line2d_51">
      <g>
       <use style="stroke:#000000;stroke-width:0.6;" x="441.309368" xlink:href="#mb31c716cb9" y="291.28"/>
      </g>
     </g>
    </g>
    <g id="text_6">
     <!-- log10 of FEvals ratio -->
     <defs>
      <path d="M 9.421875 75.984375 
L 18.40625 75.984375 
L 18.40625 0 
L 9.421875 0 
z
" id="DejaVuSans-6c"/>
      <path d="M 30.609375 48.390625 
Q 23.390625 48.390625 19.1875 42.75 
Q 14.984375 37.109375 14.984375 27.296875 
Q 14.984375 17.484375 19.15625 11.84375 
Q 23.34375 6.203125 30.609375 6.203125 
Q 37.796875 6.203125 41.984375 11.859375 
Q 46.1875 17.53125 46.1875 27.296875 
Q 46.1875 37.015625 41.984375 42.703125 
Q 37.796875 48.390625 30.609375 48.390625 
z
M 30.609375 56 
Q 42.328125 56 49.015625 48.375 
Q 55.71875 40.765625 55.71875 27.296875 
Q 55.71875 13.875 49.015625 6.21875 
Q 42.328125 -1.421875 30.609375 -1.421875 
Q 18.84375 -1.421875 12.171875 6.21875 
Q 5.515625 13.875 5.515625 27.296875 
Q 5.515625 40.765625 12.171875 48.375 
Q 18.84375 56 30.609375 56 
z
" id="DejaVuSans-6f"/>
      <path d="M 45.40625 27.984375 
Q 45.40625 37.75 41.375 43.109375 
Q 37.359375 48.484375 30.078125 48.484375 
Q 22.859375 48.484375 18.828125 43.109375 
Q 14.796875 37.75 14.796875 27.984375 
Q 14.796875 18.265625 18.828125 12.890625 
Q 22.859375 7.515625 30.078125 7.515625 
Q 37.359375 7.515625 41.375 12.890625 
Q 45.40625 18.265625 45.40625 27.984375 
z
M 54.390625 6.78125 
Q 54.390625 -7.171875 48.1875 -13.984375 
Q 42 -20.796875 29.203125 -20.796875 
Q 24.46875 -20.796875 20.265625 -20.09375 
Q 16.0625 -19.390625 12.109375 -17.921875 
L 12.109375 -9.1875 
Q 16.0625 -11.328125 19.921875 -12.34375 
Q 23.78125 -13.375 27.78125 -13.375 
Q 36.625 -13.375 41.015625 -8.765625 
Q 45.40625 -4.15625 45.40625 5.171875 
L 45.40625 9.625 
Q 42.625 4.78125 38.28125 2.390625 
Q 33.9375 0 27.875 0 
Q 17.828125 0 11.671875 7.65625 
Q 5.515625 15.328125 5.515625 27.984375 
Q 5.515625 40.671875 11.671875 48.328125 
Q 17.828125 56 27.875 56 
Q 33.9375 56 38.28125 53.609375 
Q 42.625 51.21875 45.40625 46.390625 
L 45.40625 54.6875 
L 54.390625 54.6875 
z
" id="DejaVuSans-67"/>
      <path id="DejaVuSans-20"/>
      <path d="M 37.109375 75.984375 
L 37.109375 68.5 
L 28.515625 68.5 
Q 23.6875 68.5 21.796875 66.546875 
Q 19.921875 64.59375 19.921875 59.515625 
L 19.921875 54.6875 
L 34.71875 54.6875 
L 34.71875 47.703125 
L 19.921875 47.703125 
L 19.921875 0 
L 10.890625 0 
L 10.890625 47.703125 
L 2.296875 47.703125 
L 2.296875 54.6875 
L 10.890625 54.6875 
L 10.890625 58.5 
Q 10.890625 67.625 15.140625 71.796875 
Q 19.390625 75.984375 28.609375 75.984375 
z
" id="DejaVuSans-66"/>
      <path d="M 9.8125 72.90625 
L 51.703125 72.90625 
L 51.703125 64.59375 
L 19.671875 64.59375 
L 19.671875 43.109375 
L 48.578125 43.109375 
L 48.578125 34.8125 
L 19.671875 34.8125 
L 19.671875 0 
L 9.8125 0 
z
" id="DejaVuSans-46"/>
      <path d="M 9.8125 72.90625 
L 55.90625 72.90625 
L 55.90625 64.59375 
L 19.671875 64.59375 
L 19.671875 43.015625 
L 54.390625 43.015625 
L 54.390625 34.71875 
L 19.671875 34.71875 
L 19.671875 8.296875 
L 56.78125 8.296875 
L 56.78125 0 
L 9.8125 0 
z
" id="DejaVuSans-45"/>
      <path d="M 2.984375 54.6875 
L 12.5 54.6875 
L 29.59375 8.796875 
L 46.6875 54.6875 
L 56.203125 54.6875 
L 35.6875 0 
L 23.484375 0 
z
" id="DejaVuSans-76"/>
      <path d="M 34.28125 27.484375 
Q 23.390625 27.484375 19.1875 25 
Q 14.984375 22.515625 14.984375 16.5 
Q 14.984375 11.71875 18.140625 8.90625 
Q 21.296875 6.109375 26.703125 6.109375 
Q 34.1875 6.109375 38.703125 11.40625 
Q 43.21875 16.703125 43.21875 25.484375 
L 43.21875 27.484375 
z
M 52.203125 31.203125 
L 52.203125 0 
L 43.21875 0 
L 43.21875 8.296875 
Q 40.140625 3.328125 35.546875 0.953125 
Q 30.953125 -1.421875 24.3125 -1.421875 
Q 15.921875 -1.421875 10.953125 3.296875 
Q 6 8.015625 6 15.921875 
Q 6 25.140625 12.171875 29.828125 
Q 18.359375 34.515625 30.609375 34.515625 
L 43.21875 34.515625 
L 43.21875 35.40625 
Q 43.21875 41.609375 39.140625 45 
Q 35.0625 48.390625 27.6875 48.390625 
Q 23 48.390625 18.546875 47.265625 
Q 14.109375 46.140625 10.015625 43.890625 
L 10.015625 52.203125 
Q 14.9375 54.109375 19.578125 55.046875 
Q 24.21875 56 28.609375 56 
Q 40.484375 56 46.34375 49.84375 
Q 52.203125 43.703125 52.203125 31.203125 
z
" id="DejaVuSans-61"/>
      <path d="M 44.28125 53.078125 
L 44.28125 44.578125 
Q 40.484375 46.53125 36.375 47.5 
Q 32.28125 48.484375 27.875 48.484375 
Q 21.1875 48.484375 17.84375 46.4375 
Q 14.5 44.390625 14.5 40.28125 
Q 14.5 37.15625 16.890625 35.375 
Q 19.28125 33.59375 26.515625 31.984375 
L 29.59375 31.296875 
Q 39.15625 29.25 43.1875 25.515625 
Q 47.21875 21.78125 47.21875 15.09375 
Q 47.21875 7.46875 41.1875 3.015625 
Q 35.15625 -1.421875 24.609375 -1.421875 
Q 20.21875 -1.421875 15.453125 -0.5625 
Q 10.6875 0.296875 5.421875 2 
L 5.421875 11.28125 
Q 10.40625 8.6875 15.234375 7.390625 
Q 20.0625 6.109375 24.8125 6.109375 
Q 31.15625 6.109375 34.5625 8.28125 
Q 37.984375 10.453125 37.984375 14.40625 
Q 37.984375 18.0625 35.515625 20.015625 
Q 33.0625 21.96875 24.703125 23.78125 
L 21.578125 24.515625 
Q 13.234375 26.265625 9.515625 29.90625 
Q 5.8125 33.546875 5.8125 39.890625 
Q 5.8125 47.609375 11.28125 51.796875 
Q 16.75 56 26.8125 56 
Q 31.78125 56 36.171875 55.265625 
Q 40.578125 54.546875 44.28125 53.078125 
z
" id="DejaVuSans-73"/>
      <path d="M 41.109375 46.296875 
Q 39.59375 47.171875 37.8125 47.578125 
Q 36.03125 48 33.890625 48 
Q 26.265625 48 22.1875 43.046875 
Q 18.109375 38.09375 18.109375 28.8125 
L 18.109375 0 
L 9.078125 0 
L 9.078125 54.6875 
L 18.109375 54.6875 
L 18.109375 46.1875 
Q 20.953125 51.171875 25.484375 53.578125 
Q 30.03125 56 36.53125 56 
Q 37.453125 56 38.578125 55.875 
Q 39.703125 55.765625 41.0625 55.515625 
z
" id="DejaVuSans-72"/>
      <path d="M 18.3125 70.21875 
L 18.3125 54.6875 
L 36.8125 54.6875 
L 36.8125 47.703125 
L 18.3125 47.703125 
L 18.3125 18.015625 
Q 18.3125 11.328125 20.140625 9.421875 
Q 21.96875 7.515625 27.59375 7.515625 
L 36.8125 7.515625 
L 36.8125 0 
L 27.59375 0 
Q 17.1875 0 13.234375 3.875 
Q 9.28125 7.765625 9.28125 18.015625 
L 9.28125 47.703125 
L 2.6875 47.703125 
L 2.6875 54.6875 
L 9.28125 54.6875 
L 9.28125 70.21875 
z
" id="DejaVuSans-74"/>
      <path d="M 9.421875 54.6875 
L 18.40625 54.6875 
L 18.40625 0 
L 9.421875 0 
z
M 9.421875 75.984375 
L 18.40625 75.984375 
L 18.40625 64.59375 
L 9.421875 64.59375 
z
" id="DejaVuSans-69"/>
     </defs>
     <g transform="translate(140.111312 336.833125)scale(0.2 -0.2)">
      <use xlink:href="#DejaVuSans-6c"/>
      <use x="27.783203" xlink:href="#DejaVuSans-6f"/>
      <use x="88.964844" xlink:href="#DejaVuSans-67"/>
      <use x="152.441406" xlink:href="#DejaVuSans-31"/>
      <use x="216.064453" xlink:href="#DejaVuSans-30"/>
      <use x="279.6875" xlink:href="#DejaVuSans-20"/>
      <use x="311.474609" xlink:href="#DejaVuSans-6f"/>
      <use x="372.65625" xlink:href="#DejaVuSans-66"/>
      <use x="407.861328" xlink:href="#DejaVuSans-20"/>
      <use x="439.648438" xlink:href="#DejaVuSans-46"/>
      <use x="497.167969" xlink:href="#DejaVuSans-45"/>
      <use x="560.351562" xlink:href="#DejaVuSans-76"/>
      <use x="619.53125" xlink:href="#DejaVuSans-61"/>
      <use x="680.810547" xlink:href="#DejaVuSans-6c"/>
      <use x="708.59375" xlink:href="#DejaVuSans-73"/>
      <use x="760.693359" xlink:href="#DejaVuSans-20"/>
      <use x="792.480469" xlink:href="#DejaVuSans-72"/>
      <use x="833.59375" xlink:href="#DejaVuSans-61"/>
      <use x="894.873047" xlink:href="#DejaVuSans-74"/>
      <use x="934.082031" xlink:href="#DejaVuSans-69"/>
      <use x="961.865234" xlink:href="#DejaVuSans-6f"/>
     </g>
    </g>
   </g>
   <g id="matplotlib.axis_2">
    <g id="ytick_1">
     <g id="line2d_52">
      <path clip-path="url(#pb2ff413298)" d="M 34.16 288.478431 
L 450.672 288.478431 
" style="fill:none;stroke:#b0b0b0;stroke-linecap:square;stroke-width:0.8;"/>
     </g>
     <g id="line2d_53">
      <defs>
       <path d="M 0 0 
L -3.5 0 
" id="meeacc45efb" style="stroke:#000000;stroke-width:0.8;"/>
      </defs>
      <g>
       <use style="stroke:#000000;stroke-width:0.8;" x="34.16" xlink:href="#meeacc45efb" y="288.478431"/>
      </g>
     </g>
    </g>
    <g id="ytick_2">
     <g id="line2d_54">
      <path clip-path="url(#pb2ff413298)" d="M 34.16 218.439216 
L 450.672 218.439216 
" style="fill:none;stroke:#b0b0b0;stroke-linecap:square;stroke-width:0.8;"/>
     </g>
     <g id="line2d_55">
      <g>
       <use style="stroke:#000000;stroke-width:0.8;" x="34.16" xlink:href="#meeacc45efb" y="218.439216"/>
      </g>
     </g>
    </g>
    <g id="ytick_3">
     <g id="line2d_56">
      <path clip-path="url(#pb2ff413298)" d="M 34.16 148.4 
L 450.672 148.4 
" style="fill:none;stroke:#b0b0b0;stroke-linecap:square;stroke-width:0.8;"/>
     </g>
     <g id="line2d_57">
      <g>
       <use style="stroke:#000000;stroke-width:0.8;" x="34.16" xlink:href="#meeacc45efb" y="148.4"/>
      </g>
     </g>
    </g>
    <g id="ytick_4">
     <g id="line2d_58">
      <path clip-path="url(#pb2ff413298)" d="M 34.16 78.360784 
L 450.672 78.360784 
" style="fill:none;stroke:#b0b0b0;stroke-linecap:square;stroke-width:0.8;"/>
     </g>
     <g id="line2d_59">
      <g>
       <use style="stroke:#000000;stroke-width:0.8;" x="34.16" xlink:href="#meeacc45efb" y="78.360784"/>
      </g>
     </g>
    </g>
    <g id="ytick_5">
     <g id="line2d_60">
      <path clip-path="url(#pb2ff413298)" d="M 34.16 8.321569 
L 450.672 8.321569 
" style="fill:none;stroke:#b0b0b0;stroke-linecap:square;stroke-width:0.8;"/>
     </g>
     <g id="line2d_61">
      <g>
       <use style="stroke:#000000;stroke-width:0.8;" x="34.16" xlink:href="#meeacc45efb" y="8.321569"/>
      </g>
     </g>
    </g>
    <g id="text_7">
     <!-- proportion of trials -->
     <defs>
      <path d="M 18.109375 8.203125 
L 18.109375 -20.796875 
L 9.078125 -20.796875 
L 9.078125 54.6875 
L 18.109375 54.6875 
L 18.109375 46.390625 
Q 20.953125 51.265625 25.265625 53.625 
Q 29.59375 56 35.59375 56 
Q 45.5625 56 51.78125 48.09375 
Q 58.015625 40.1875 58.015625 27.296875 
Q 58.015625 14.40625 51.78125 6.484375 
Q 45.5625 -1.421875 35.59375 -1.421875 
Q 29.59375 -1.421875 25.265625 0.953125 
Q 20.953125 3.328125 18.109375 8.203125 
z
M 48.6875 27.296875 
Q 48.6875 37.203125 44.609375 42.84375 
Q 40.53125 48.484375 33.40625 48.484375 
Q 26.265625 48.484375 22.1875 42.84375 
Q 18.109375 37.203125 18.109375 27.296875 
Q 18.109375 17.390625 22.1875 11.75 
Q 26.265625 6.109375 33.40625 6.109375 
Q 40.53125 6.109375 44.609375 11.75 
Q 48.6875 17.390625 48.6875 27.296875 
z
" id="DejaVuSans-70"/>
      <path d="M 54.890625 33.015625 
L 54.890625 0 
L 45.90625 0 
L 45.90625 32.71875 
Q 45.90625 40.484375 42.875 44.328125 
Q 39.84375 48.1875 33.796875 48.1875 
Q 26.515625 48.1875 22.3125 43.546875 
Q 18.109375 38.921875 18.109375 30.90625 
L 18.109375 0 
L 9.078125 0 
L 9.078125 54.6875 
L 18.109375 54.6875 
L 18.109375 46.1875 
Q 21.34375 51.125 25.703125 53.5625 
Q 30.078125 56 35.796875 56 
Q 45.21875 56 50.046875 50.171875 
Q 54.890625 44.34375 54.890625 33.015625 
z
" id="DejaVuSans-6e"/>
     </defs>
     <g transform="translate(19.000625 241.628125)rotate(-90)scale(0.2 -0.2)">
      <use xlink:href="#DejaVuSans-70"/>
      <use x="63.476562" xlink:href="#DejaVuSans-72"/>
      <use x="104.558594" xlink:href="#DejaVuSans-6f"/>
      <use x="165.740234" xlink:href="#DejaVuSans-70"/>
      <use x="229.216797" xlink:href="#DejaVuSans-6f"/>
      <use x="290.398438" xlink:href="#DejaVuSans-72"/>
      <use x="331.511719" xlink:href="#DejaVuSans-74"/>
      <use x="370.720703" xlink:href="#DejaVuSans-69"/>
      <use x="398.503906" xlink:href="#DejaVuSans-6f"/>
      <use x="459.685547" xlink:href="#DejaVuSans-6e"/>
      <use x="523.064453" xlink:href="#DejaVuSans-20"/>
      <use x="554.851562" xlink:href="#DejaVuSans-6f"/>
      <use x="616.033203" xlink:href="#DejaVuSans-66"/>
      <use x="651.238281" xlink:href="#DejaVuSans-20"/>
      <use x="683.025391" xlink:href="#DejaVuSans-74"/>
      <use x="722.234375" xlink:href="#DejaVuSans-72"/>
      <use x="763.347656" xlink:href="#DejaVuSans-69"/>
      <use x="791.130859" xlink:href="#DejaVuSans-61"/>
      <use x="852.410156" xlink:href="#DejaVuSans-6c"/>
      <use x="880.193359" xlink:href="#DejaVuSans-73"/>
     </g>
    </g>
   </g>
   <g id="line2d_62">
    <path clip-path="url(#pb2ff413298)" d="M 34.16 260.075431 
L 53.092364 260.075431 
L 53.092364 258.138863 
L 61.724961 258.138863 
L 61.724961 256.202295 
L 65.881116 256.202295 
L 65.881116 254.265727 
L 72.682963 254.265727 
L 72.682963 252.329159 
L 79.472432 252.329159 
L 79.472432 250.392591 
L 99.068046 250.392591 
L 99.068046 248.456022 
L 102.050241 248.456022 
L 102.050241 246.519454 
L 102.678554 246.519454 
L 102.678554 244.582886 
L 192.829809 244.582886 
L 192.829809 243.937363 
L 193.458123 243.937363 
L 193.458123 243.291841 
L 196.440318 243.291841 
L 196.440318 242.646318 
L 201.462407 242.646318 
L 201.462407 242.000795 
L 202.09072 242.000795 
L 202.09072 241.355272 
L 205.072915 241.355272 
L 205.072915 240.70975 
L 205.618562 240.70975 
L 205.618562 240.064227 
L 206.246875 240.064227 
L 206.246875 239.418704 
L 209.22907 239.418704 
L 209.22907 238.773182 
L 212.420409 238.773182 
L 212.420409 238.127659 
L 213.048722 238.127659 
L 213.048722 237.482136 
L 216.030917 237.482136 
L 216.035931 236.191091 
L 219.209878 236.191091 
L 219.209878 235.545568 
L 219.838191 235.545568 
L 219.838191 234.900045 
L 222.820387 234.900045 
L 222.825401 233.609 
L 224.668528 233.609 
L 224.668528 232.963477 
L 228.824684 232.963477 
L 228.824684 232.317954 
L 229.627248 232.317954 
L 229.627248 231.672432 
L 231.457998 231.672432 
L 231.457998 231.026909 
L 233.783403 231.026909 
L 233.783403 230.381386 
L 235.614153 230.381386 
L 235.626531 229.090341 
L 238.259845 229.090341 
L 238.259845 228.444818 
L 238.805492 228.444818 
L 238.805492 227.799295 
L 239.433805 227.799295 
L 239.433805 227.153772 
L 241.787687 227.153772 
L 241.787687 226.50825 
L 242.416 226.50825 
L 242.416 70.29175 
L 243.044313 70.29175 
L 243.044313 69.646228 
L 245.398195 69.646228 
L 245.398195 69.000705 
L 246.026508 69.000705 
L 246.026508 68.355182 
L 246.572155 68.355182 
L 246.572155 67.709659 
L 249.205469 67.709659 
L 249.217847 66.418614 
L 251.048597 66.418614 
L 251.048597 65.773091 
L 253.374002 65.773091 
L 253.374002 65.127568 
L 255.204752 65.127568 
L 255.204752 64.482046 
L 256.007316 64.482046 
L 256.007316 63.836523 
L 260.163472 63.836523 
L 260.163472 63.191 
L 262.006599 63.191 
L 262.011613 61.899955 
L 264.993809 61.899955 
L 264.993809 61.254432 
L 265.622122 61.254432 
L 265.622122 60.608909 
L 268.796069 60.608909 
L 268.801083 59.317864 
L 271.783278 59.317864 
L 271.783278 58.672341 
L 272.411591 58.672341 
L 272.411591 58.026818 
L 275.60293 58.026818 
L 275.60293 57.381296 
L 278.585125 57.381296 
L 278.585125 56.735773 
L 279.213438 56.735773 
L 279.213438 56.09025 
L 279.759085 56.09025 
L 279.759085 55.444728 
L 282.74128 55.444728 
L 282.74128 54.799205 
L 283.369593 54.799205 
L 283.369593 54.153682 
L 288.391682 54.153682 
L 288.391682 53.508159 
L 291.373877 53.508159 
L 291.373877 52.862637 
L 292.002191 52.862637 
L 292.002191 52.217114 
L 382.153446 52.217114 
L 382.153446 50.280546 
L 382.781759 50.280546 
L 382.781759 48.343978 
L 385.763954 48.343978 
L 385.763954 46.407409 
L 405.359568 46.407409 
L 405.359568 44.470841 
L 412.149037 44.470841 
L 412.149037 42.534273 
L 418.950884 42.534273 
L 418.950884 40.597705 
L 423.107039 40.597705 
L 423.107039 38.661137 
L 431.739636 38.661137 
L 431.739636 36.724569 
L 450.672 36.724569 
L 450.672 36.724569 
" style="fill:none;stroke:#000000;stroke-linecap:square;stroke-width:3;"/>
   </g>
   <g id="line2d_63">
    <path clip-path="url(#pb2ff413298)" style="fill:none;stroke:#000000;stroke-linecap:square;stroke-width:3;"/>
   </g>
   <g id="line2d_64">
    <path clip-path="url(#pb2ff413298)" d="M 34.16 288.478431 
L 216.36031 288.478431 
L 216.36031 287.23329 
L 218.245657 287.23329 
L 218.245657 285.988148 
L 218.852115 285.988148 
L 218.852115 283.497865 
L 219.561679 283.497865 
L 219.561679 281.007582 
L 220.238796 281.007582 
L 220.238796 279.76244 
L 220.737462 279.76244 
L 220.737462 277.272157 
L 220.929322 277.272157 
L 220.929322 274.781874 
L 221.633799 274.781874 
L 221.633799 273.536732 
L 222.053484 273.536732 
L 222.053484 268.556166 
L 222.730601 268.556166 
L 222.730601 266.065882 
L 223.421127 266.065882 
L 223.421127 261.085316 
L 223.836875 261.085316 
L 223.836875 259.840174 
L 224.125604 259.840174 
L 224.125604 257.349891 
L 226.188582 257.349891 
L 226.188582 254.859608 
L 226.32868 254.859608 
L 226.391908 251.124183 
L 228.277256 251.124183 
L 228.277256 249.879041 
L 228.680387 249.879041 
L 228.680387 244.898475 
L 229.593277 244.898475 
L 229.593277 242.408192 
L 230.270395 242.408192 
L 230.270395 241.16305 
L 230.960921 241.16305 
L 230.960921 238.672767 
L 231.665398 238.672767 
L 231.665398 237.427625 
L 232.384401 237.427625 
L 232.384401 236.182484 
L 232.587728 236.182484 
L 232.587728 233.6922 
L 233.868474 233.6922 
L 233.868474 232.447059 
L 234.473076 232.447059 
L 234.473076 229.956776 
L 234.876206 229.956776 
L 234.939435 226.221351 
L 235.789097 226.221351 
L 235.789097 221.240784 
L 236.22018 221.240784 
L 236.22018 218.750501 
L 236.466214 218.750501 
L 236.466214 216.260218 
L 236.824782 216.260218 
L 236.824782 215.015076 
L 237.142511 215.015076 
L 237.15674 208.789368 
L 237.846988 208.789368 
L 237.861218 203.808802 
L 238.140804 203.808802 
L 238.140804 201.318519 
L 238.537514 201.318519 
L 238.537514 200.073377 
L 238.817921 200.073377 
L 238.817921 198.828235 
L 239.027858 198.828235 
L 239.027858 197.583094 
L 239.214631 197.583094 
L 239.214631 195.09281 
L 239.508447 195.09281 
L 239.508447 192.602527 
L 239.732335 192.602527 
L 239.732335 190.112244 
L 239.924195 190.112244 
L 239.924195 187.621961 
L 240.064293 187.621961 
L 240.064293 185.131678 
L 240.212924 185.131678 
L 240.212924 183.886536 
L 240.34388 183.886536 
L 240.422861 180.151111 
L 240.530653 180.151111 
L 240.530653 178.905969 
L 241.020997 178.905969 
L 241.099978 170.189978 
L 241.711523 170.189978 
L 241.738883 162.719129 
L 242.416 162.719129 
L 242.416 134.080871 
L 243.093117 134.080871 
L 243.120477 126.610022 
L 243.732022 126.610022 
L 243.811003 117.894031 
L 244.301347 117.894031 
L 244.409139 115.403747 
L 244.48812 115.403747 
L 244.48812 112.913464 
L 244.619076 112.913464 
L 244.619076 111.668322 
L 244.767707 111.668322 
L 244.767707 109.178039 
L 244.907805 109.178039 
L 244.907805 106.687756 
L 245.099665 106.687756 
L 245.099665 104.197473 
L 245.323553 104.197473 
L 245.323553 101.70719 
L 245.617369 101.70719 
L 245.617369 99.216906 
L 245.804142 99.216906 
L 245.804142 97.971765 
L 246.014079 97.971765 
L 246.014079 96.726623 
L 246.294486 96.726623 
L 246.294486 95.481481 
L 246.691196 95.481481 
L 246.691196 92.991198 
L 246.970782 92.991198 
L 246.985012 88.010632 
L 247.67526 88.010632 
L 247.689489 81.784924 
L 248.007218 81.784924 
L 248.007218 80.539782 
L 248.365786 80.539782 
L 248.365786 78.049499 
L 248.61182 78.049499 
L 248.61182 75.559216 
L 249.042903 75.559216 
L 249.042903 70.578649 
L 249.892565 70.578649 
L 249.955794 66.843224 
L 250.358924 66.843224 
L 250.358924 64.352941 
L 250.963526 64.352941 
L 250.963526 63.1078 
L 252.244272 63.1078 
L 252.244272 60.617516 
L 252.447599 60.617516 
L 252.447599 59.372375 
L 253.166602 59.372375 
L 253.166602 58.127233 
L 253.871079 58.127233 
L 253.871079 55.63695 
L 254.561605 55.63695 
L 254.561605 54.391808 
L 255.238723 54.391808 
L 255.238723 51.901525 
L 256.151613 51.901525 
L 256.151613 46.920959 
L 256.554744 46.920959 
L 256.554744 45.675817 
L 258.440092 45.675817 
L 258.50332 41.940392 
L 258.643418 41.940392 
L 258.643418 39.450109 
L 260.706396 39.450109 
L 260.706396 36.959826 
L 260.995125 36.959826 
L 260.995125 35.714684 
L 261.410873 35.714684 
L 261.410873 30.734118 
L 262.101399 30.734118 
L 262.101399 28.243834 
L 262.778516 28.243834 
L 262.778516 23.263268 
L 263.198201 23.263268 
L 263.198201 22.018126 
L 263.902678 22.018126 
L 263.902678 19.527843 
L 264.094538 19.527843 
L 264.094538 17.03756 
L 264.593204 17.03756 
L 264.593204 15.792418 
L 265.270321 15.792418 
L 265.270321 13.302135 
L 265.979885 13.302135 
L 265.979885 10.811852 
L 266.586343 10.811852 
L 266.586343 9.56671 
L 268.47169 9.56671 
L 268.47169 8.321569 
L 450.672 8.321569 
L 450.672 8.321569 
" style="fill:none;stroke:#00bfbf;stroke-linecap:square;stroke-width:3;"/>
   </g>
   <g id="line2d_65">
    <path clip-path="url(#pb2ff413298)" style="fill:none;stroke:#00bfbf;stroke-linecap:square;stroke-width:3;"/>
   </g>
   <g id="line2d_66"/>
   <g id="line2d_67"/>
   <g id="line2d_68">
    <path clip-path="url(#pb2ff413298)" d="M 242.416 291.28 
L 242.416 5.52 
" style="fill:none;stroke:#000000;stroke-linecap:square;stroke-width:1.5;"/>
   </g>
   <g id="line2d_69">
    <path clip-path="url(#pb2ff413298)" d="M 34.16 148.4 
L 450.672 148.4 
" style="fill:none;stroke:#000000;stroke-dasharray:2,3.3;stroke-dashoffset:0;stroke-width:2;"/>
   </g>
   <g id="patch_3">
    <path d="M 34.16 291.28 
L 34.16 5.52 
" style="fill:none;stroke:#000000;stroke-linecap:square;stroke-linejoin:miter;stroke-width:0.8;"/>
   </g>
   <g id="patch_4">
    <path d="M 450.672 291.28 
L 450.672 5.52 
" style="fill:none;stroke:#000000;stroke-linecap:square;stroke-linejoin:miter;stroke-width:0.8;"/>
   </g>
   <g id="patch_5">
    <path d="M 34.16 291.28 
L 450.672 291.28 
" style="fill:none;stroke:#000000;stroke-linecap:square;stroke-linejoin:miter;stroke-width:0.8;"/>
   </g>
   <g id="patch_6">
    <path d="M 34.16 5.52 
L 450.672 5.52 
" style="fill:none;stroke:#000000;stroke-linecap:square;stroke-linejoin:miter;stroke-width:0.8;"/>
   </g>
   <g id="text_8">
    <!-- f15-f19,5-D -->
    <defs>
     <path d="M 10.796875 72.90625 
L 49.515625 72.90625 
L 49.515625 64.59375 
L 19.828125 64.59375 
L 19.828125 46.734375 
Q 21.96875 47.46875 24.109375 47.828125 
Q 26.265625 48.1875 28.421875 48.1875 
Q 40.625 48.1875 47.75 41.5 
Q 54.890625 34.8125 54.890625 23.390625 
Q 54.890625 11.625 47.5625 5.09375 
Q 40.234375 -1.421875 26.90625 -1.421875 
Q 22.3125 -1.421875 17.546875 -0.640625 
Q 12.796875 0.140625 7.71875 1.703125 
L 7.71875 11.625 
Q 12.109375 9.234375 16.796875 8.0625 
Q 21.484375 6.890625 26.703125 6.890625 
Q 35.15625 6.890625 40.078125 11.328125 
Q 45.015625 15.765625 45.015625 23.390625 
Q 45.015625 31 40.078125 35.4375 
Q 35.15625 39.890625 26.703125 39.890625 
Q 22.75 39.890625 18.8125 39.015625 
Q 14.890625 38.140625 10.796875 36.28125 
z
" id="DejaVuSans-35"/>
     <path d="M 10.984375 1.515625 
L 10.984375 10.5 
Q 14.703125 8.734375 18.5 7.8125 
Q 22.3125 6.890625 25.984375 6.890625 
Q 35.75 6.890625 40.890625 13.453125 
Q 46.046875 20.015625 46.78125 33.40625 
Q 43.953125 29.203125 39.59375 26.953125 
Q 35.25 24.703125 29.984375 24.703125 
Q 19.046875 24.703125 12.671875 31.3125 
Q 6.296875 37.9375 6.296875 49.421875 
Q 6.296875 60.640625 12.9375 67.421875 
Q 19.578125 74.21875 30.609375 74.21875 
Q 43.265625 74.21875 49.921875 64.515625 
Q 56.59375 54.828125 56.59375 36.375 
Q 56.59375 19.140625 48.40625 8.859375 
Q 40.234375 -1.421875 26.421875 -1.421875 
Q 22.703125 -1.421875 18.890625 -0.6875 
Q 15.09375 0.046875 10.984375 1.515625 
z
M 30.609375 32.421875 
Q 37.25 32.421875 41.125 36.953125 
Q 45.015625 41.5 45.015625 49.421875 
Q 45.015625 57.28125 41.125 61.84375 
Q 37.25 66.40625 30.609375 66.40625 
Q 23.96875 66.40625 20.09375 61.84375 
Q 16.21875 57.28125 16.21875 49.421875 
Q 16.21875 41.5 20.09375 36.953125 
Q 23.96875 32.421875 30.609375 32.421875 
z
" id="DejaVuSans-39"/>
     <path d="M 11.71875 12.40625 
L 22.015625 12.40625 
L 22.015625 4 
L 14.015625 -11.625 
L 7.71875 -11.625 
L 11.71875 4 
z
" id="DejaVuSans-2c"/>
     <path d="M 19.671875 64.796875 
L 19.671875 8.109375 
L 31.59375 8.109375 
Q 46.6875 8.109375 53.6875 14.9375 
Q 60.6875 21.78125 60.6875 36.53125 
Q 60.6875 51.171875 53.6875 57.984375 
Q 46.6875 64.796875 31.59375 64.796875 
z
M 9.8125 72.90625 
L 30.078125 72.90625 
Q 51.265625 72.90625 61.171875 64.09375 
Q 71.09375 55.28125 71.09375 36.53125 
Q 71.09375 17.671875 61.125 8.828125 
Q 51.171875 0 30.078125 0 
L 9.8125 0 
z
" id="DejaVuSans-44"/>
    </defs>
    <g transform="translate(328.44801 285.5648)scale(0.2 -0.2)">
     <use xlink:href="#DejaVuSans-66"/>
     <use x="35.205078" xlink:href="#DejaVuSans-31"/>
     <use x="98.828125" xlink:href="#DejaVuSans-35"/>
     <use x="162.451172" xlink:href="#DejaVuSans-2d"/>
     <use x="198.535156" xlink:href="#DejaVuSans-66"/>
     <use x="233.740234" xlink:href="#DejaVuSans-31"/>
     <use x="297.363281" xlink:href="#DejaVuSans-39"/>
     <use x="360.986328" xlink:href="#DejaVuSans-2c"/>
     <use x="392.773438" xlink:href="#DejaVuSans-35"/>
     <use x="456.396484" xlink:href="#DejaVuSans-2d"/>
     <use x="492.480469" xlink:href="#DejaVuSans-44"/>
    </g>
   </g>
   <g id="text_9">
    <!-- v0.0.0 -->
    <defs>
     <path d="M 10.6875 12.40625 
L 21 12.40625 
L 21 0 
L 10.6875 0 
z
" id="DejaVuSans-2e"/>
    </defs>
    <g style="fill:#808080;" transform="translate(226.73475 286.342713)scale(0.1 -0.1)">
     <use xlink:href="#DejaVuSans-76"/>
     <use x="59.179688" xlink:href="#DejaVuSans-30"/>
     <use x="122.802734" xlink:href="#DejaVuSans-2e"/>
     <use x="154.589844" xlink:href="#DejaVuSans-30"/>
     <use x="218.212891" xlink:href="#DejaVuSans-2e"/>
     <use x="250" xlink:href="#DejaVuSans-30"/>
    </g>
   </g>
   <g id="legend_1">
    <g id="patch_7">
     <path d="M 48.16 138.945 
L 177.381875 138.945 
Q 181.381875 138.945 181.381875 134.945 
L 181.381875 19.52 
Q 181.381875 15.52 177.381875 15.52 
L 48.16 15.52 
Q 44.16 15.52 44.16 19.52 
L 44.16 134.945 
Q 44.16 138.945 48.16 138.945 
z
" style="fill:#ffffff;opacity:0.2;stroke:#cccccc;stroke-linejoin:miter;"/>
    </g>
    <g id="line2d_70">
     <path d="M 52.16 31.716875 
L 92.16 31.716875 
" style="fill:none;stroke:#000000;stroke-linecap:square;stroke-width:3;"/>
    </g>
    <g id="line2d_71"/>
    <g id="text_10">
     <!-- 1: 2/2 -->
     <defs>
      <path d="M 11.71875 12.40625 
L 22.015625 12.40625 
L 22.015625 0 
L 11.71875 0 
z
M 11.71875 51.703125 
L 22.015625 51.703125 
L 22.015625 39.3125 
L 11.71875 39.3125 
z
" id="DejaVuSans-3a"/>
      <path d="M 25.390625 72.90625 
L 33.6875 72.90625 
L 8.296875 -9.28125 
L 0 -9.28125 
z
" id="DejaVuSans-2f"/>
     </defs>
     <g transform="translate(108.16 38.716875)scale(0.2 -0.2)">
      <use xlink:href="#DejaVuSans-31"/>
      <use x="63.623047" xlink:href="#DejaVuSans-3a"/>
      <use x="97.314453" xlink:href="#DejaVuSans-20"/>
      <use x="129.101562" xlink:href="#DejaVuSans-32"/>
      <use x="192.724609" xlink:href="#DejaVuSans-2f"/>
      <use x="226.416016" xlink:href="#DejaVuSans-32"/>
     </g>
    </g>
    <g id="line2d_72">
     <path d="M 52.16 61.073125 
L 92.16 61.073125 
" style="fill:none;stroke:#00bfbf;stroke-linecap:square;stroke-width:3;"/>
    </g>
    <g id="line2d_73"/>
    <g id="text_11">
     <!-- -1: 1/1 -->
     <g transform="translate(108.16 68.073125)scale(0.2 -0.2)">
      <use xlink:href="#DejaVuSans-2d"/>
      <use x="36.083984" xlink:href="#DejaVuSans-31"/>
      <use x="99.707031" xlink:href="#DejaVuSans-3a"/>
      <use x="133.398438" xlink:href="#DejaVuSans-20"/>
      <use x="165.185547" xlink:href="#DejaVuSans-31"/>
      <use x="228.808594" xlink:href="#DejaVuSans-2f"/>
      <use x="262.5" xlink:href="#DejaVuSans-31"/>
     </g>
    </g>
    <g id="line2d_74">
     <path d="M 52.16 90.429375 
L 92.16 90.429375 
" style="fill:none;stroke:#bf00bf;stroke-linecap:square;stroke-width:3;"/>
    </g>
    <g id="line2d_75"/>
    <g id="text_12">
     <!-- -4: 0/0 -->
     <defs>
      <path d="M 37.796875 64.3125 
L 12.890625 25.390625 
L 37.796875 25.390625 
z
M 35.203125 72.90625 
L 47.609375 72.90625 
L 47.609375 25.390625 
L 58.015625 25.390625 
L 58.015625 17.1875 
L 47.609375 17.1875 
L 47.609375 0 
L 37.796875 0 
L 37.796875 17.1875 
L 4.890625 17.1875 
L 4.890625 26.703125 
z
" id="DejaVuSans-34"/>
     </defs>
     <g transform="translate(108.16 97.429375)scale(0.2 -0.2)">
      <use xlink:href="#DejaVuSans-2d"/>
      <use x="36.083984" xlink:href="#DejaVuSans-34"/>
      <use x="99.707031" xlink:href="#DejaVuSans-3a"/>
      <use x="133.398438" xlink:href="#DejaVuSans-20"/>
      <use x="165.185547" xlink:href="#DejaVuSans-30"/>
      <use x="228.808594" xlink:href="#DejaVuSans-2f"/>
      <use x="262.5" xlink:href="#DejaVuSans-30"/>
     </g>
    </g>
    <g id="line2d_76">
     <path d="M 52.16 119.785625 
L 92.16 119.785625 
" style="fill:none;stroke:#ff0000;stroke-linecap:square;stroke-width:3;"/>
    </g>
    <g id="line2d_77"/>
    <g id="text_13">
     <!-- -8: 0/0 -->
     <defs>
      <path d="M 31.78125 34.625 
Q 24.75 34.625 20.71875 30.859375 
Q 16.703125 27.09375 16.703125 20.515625 
Q 16.703125 13.921875 20.71875 10.15625 
Q 24.75 6.390625 31.78125 6.390625 
Q 38.8125 6.390625 42.859375 10.171875 
Q 46.921875 13.96875 46.921875 20.515625 
Q 46.921875 27.09375 42.890625 30.859375 
Q 38.875 34.625 31.78125 34.625 
z
M 21.921875 38.8125 
Q 15.578125 40.375 12.03125 44.71875 
Q 8.5 49.078125 8.5 55.328125 
Q 8.5 64.0625 14.71875 69.140625 
Q 20.953125 74.21875 31.78125 74.21875 
Q 42.671875 74.21875 48.875 69.140625 
Q 55.078125 64.0625 55.078125 55.328125 
Q 55.078125 49.078125 51.53125 44.71875 
Q 48 40.375 41.703125 38.8125 
Q 48.828125 37.15625 52.796875 32.3125 
Q 56.78125 27.484375 56.78125 20.515625 
Q 56.78125 9.90625 50.3125 4.234375 
Q 43.84375 -1.421875 31.78125 -1.421875 
Q 19.734375 -1.421875 13.25 4.234375 
Q 6.78125 9.90625 6.78125 20.515625 
Q 6.78125 27.484375 10.78125 32.3125 
Q 14.796875 37.15625 21.921875 38.8125 
z
M 18.3125 54.390625 
Q 18.3125 48.734375 21.84375 45.5625 
Q 25.390625 42.390625 31.78125 42.390625 
Q 38.140625 42.390625 41.71875 45.5625 
Q 45.3125 48.734375 45.3125 54.390625 
Q 45.3125 60.0625 41.71875 63.234375 
Q 38.140625 66.40625 31.78125 66.40625 
Q 25.390625 66.40625 21.84375 63.234375 
Q 18.3125 60.0625 18.3125 54.390625 
z
" id="DejaVuSans-38"/>
     </defs>
     <g transform="translate(108.16 126.785625)scale(0.2 -0.2)">
      <use xlink:href="#DejaVuSans-2d"/>
      <use x="36.083984" xlink:href="#DejaVuSans-38"/>
      <use x="99.707031" xlink:href="#DejaVuSans-3a"/>
      <use x="133.398438" xlink:href="#DejaVuSans-20"/>
      <use x="165.185547" xlink:href="#DejaVuSans-30"/>
      <use x="228.808594" xlink:href="#DejaVuSans-2f"/>
      <use x="262.5" xlink:href="#DejaVuSans-30"/>
     </g>
    </g>
   </g>
  </g>
 </g>
 <defs>
  <clipPath id="pb2ff413298">
   <rect height="285.76" width="416.512" x="34.16" y="5.52"/>
  </clipPath>
 </defs>
</svg>
