<?xml version="1.0" encoding="utf-8" standalone="no"?>
<!DOCTYPE svg PUBLIC "-//W3C//DTD SVG 1.1//EN"
  "http://www.w3.org/Graphics/SVG/1.1/DTD/svg11.dtd">
<!-- Created with matplotlib (http://matplotlib.org/) -->
<svg height="345pt" version="1.1" viewBox="0 0 460 345" width="460pt" xmlns="http://www.w3.org/2000/svg" xmlns:xlink="http://www.w3.org/1999/xlink">
 <defs>
  <style type="text/css">
*{stroke-linecap:butt;stroke-linejoin:round;}
  </style>
 </defs>
 <g id="figure_1">
  <g id="patch_1">
   <path d="M 0 345.6 
L 460.8 345.6 
L 460.8 0 
L 0 0 
z
" style="fill:#ffffff;"/>
  </g>
  <g id="axes_1">
   <g id="patch_2">
    <path d="M 34.16 291.28 
L 450.672 291.28 
L 450.672 5.52 
L 34.16 5.52 
z
" style="fill:#ffffff;"/>
   </g>
   <g id="matplotlib.axis_1">
    <g id="xtick_1">
     <g id="line2d_1">
      <path clip-path="url(#p84316400e3)" d="M 84.829776 291.28 
L 84.829776 5.52 
" style="fill:none;stroke:#b0b0b0;stroke-linecap:square;stroke-width:0.8;"/>
     </g>
     <g id="line2d_2">
      <defs>
       <path d="M 0 0 
L 0 3.5 
" id="m054094e22a" style="stroke:#000000;stroke-width:0.8;"/>
      </defs>
      <g>
       <use style="stroke:#000000;stroke-width:0.8;" x="84.829776" xlink:href="#m054094e22a" y="291.28"/>
      </g>
     </g>
     <g id="text_1">
      <!-- -1 -->
      <defs>
       <path d="M 4.890625 31.390625 
L 31.203125 31.390625 
L 31.203125 23.390625 
L 4.890625 23.390625 
z
" id="DejaVuSans-2d"/>
       <path d="M 12.40625 8.296875 
L 28.515625 8.296875 
L 28.515625 63.921875 
L 10.984375 60.40625 
L 10.984375 69.390625 
L 28.421875 72.90625 
L 38.28125 72.90625 
L 38.28125 8.296875 
L 54.390625 8.296875 
L 54.390625 0 
L 12.40625 0 
z
" id="DejaVuSans-31"/>
      </defs>
      <g transform="translate(74.859463 313.476875)scale(0.2 -0.2)">
       <use xlink:href="#DejaVuSans-2d"/>
       <use x="36.083984" xlink:href="#DejaVuSans-31"/>
      </g>
     </g>
    </g>
    <g id="xtick_2">
     <g id="line2d_3">
      <path clip-path="url(#p84316400e3)" d="M 242.416 291.28 
L 242.416 5.52 
" style="fill:none;stroke:#b0b0b0;stroke-linecap:square;stroke-width:0.8;"/>
     </g>
     <g id="line2d_4">
      <g>
       <use style="stroke:#000000;stroke-width:0.8;" x="242.416" xlink:href="#m054094e22a" y="291.28"/>
      </g>
     </g>
     <g id="text_2">
      <!-- 0 -->
      <defs>
       <path d="M 31.78125 66.40625 
Q 24.171875 66.40625 20.328125 58.90625 
Q 16.5 51.421875 16.5 36.375 
Q 16.5 21.390625 20.328125 13.890625 
Q 24.171875 6.390625 31.78125 6.390625 
Q 39.453125 6.390625 43.28125 13.890625 
Q 47.125 21.390625 47.125 36.375 
Q 47.125 51.421875 43.28125 58.90625 
Q 39.453125 66.40625 31.78125 66.40625 
z
M 31.78125 74.21875 
Q 44.046875 74.21875 50.515625 64.515625 
Q 56.984375 54.828125 56.984375 36.375 
Q 56.984375 17.96875 50.515625 8.265625 
Q 44.046875 -1.421875 31.78125 -1.421875 
Q 19.53125 -1.421875 13.0625 8.265625 
Q 6.59375 17.96875 6.59375 36.375 
Q 6.59375 54.828125 13.0625 64.515625 
Q 19.53125 74.21875 31.78125 74.21875 
z
" id="DejaVuSans-30"/>
      </defs>
      <g transform="translate(236.0535 313.476875)scale(0.2 -0.2)">
       <use xlink:href="#DejaVuSans-30"/>
      </g>
     </g>
    </g>
    <g id="xtick_3">
     <g id="line2d_5">
      <path clip-path="url(#p84316400e3)" d="M 400.002224 291.28 
L 400.002224 5.52 
" style="fill:none;stroke:#b0b0b0;stroke-linecap:square;stroke-width:0.8;"/>
     </g>
     <g id="line2d_6">
      <g>
       <use style="stroke:#000000;stroke-width:0.8;" x="400.002224" xlink:href="#m054094e22a" y="291.28"/>
      </g>
     </g>
     <g id="text_3">
      <!-- 1 -->
      <g transform="translate(393.639724 313.476875)scale(0.2 -0.2)">
       <use xlink:href="#DejaVuSans-31"/>
      </g>
     </g>
    </g>
    <g id="xtick_4">
     <g id="line2d_7">
      <defs>
       <path d="M 0 0 
L 0 2 
" id="m2c4e1e89f4" style="stroke:#000000;stroke-width:0.6;"/>
      </defs>
      <g>
       <use style="stroke:#000000;stroke-width:0.6;" x="37.391596" xlink:href="#m2c4e1e89f4" y="291.28"/>
      </g>
     </g>
    </g>
    <g id="xtick_5">
     <g id="line2d_8">
      <g>
       <use style="stroke:#000000;stroke-width:0.6;" x="49.869469" xlink:href="#m2c4e1e89f4" y="291.28"/>
      </g>
     </g>
    </g>
    <g id="xtick_6">
     <g id="line2d_9">
      <g>
       <use style="stroke:#000000;stroke-width:0.6;" x="60.419361" xlink:href="#m2c4e1e89f4" y="291.28"/>
      </g>
     </g>
    </g>
    <g id="xtick_7">
     <g id="line2d_10">
      <g>
       <use style="stroke:#000000;stroke-width:0.6;" x="69.558093" xlink:href="#m2c4e1e89f4" y="291.28"/>
      </g>
     </g>
    </g>
    <g id="xtick_8">
     <g id="line2d_11">
      <g>
       <use style="stroke:#000000;stroke-width:0.6;" x="77.619026" xlink:href="#m2c4e1e89f4" y="291.28"/>
      </g>
     </g>
    </g>
    <g id="xtick_9">
     <g id="line2d_12">
      <g>
       <use style="stroke:#000000;stroke-width:0.6;" x="132.267956" xlink:href="#m2c4e1e89f4" y="291.28"/>
      </g>
     </g>
    </g>
    <g id="xtick_10">
     <g id="line2d_13">
      <g>
       <use style="stroke:#000000;stroke-width:0.6;" x="160.017513" xlink:href="#m2c4e1e89f4" y="291.28"/>
      </g>
     </g>
    </g>
    <g id="xtick_11">
     <g id="line2d_14">
      <g>
       <use style="stroke:#000000;stroke-width:0.6;" x="179.706137" xlink:href="#m2c4e1e89f4" y="291.28"/>
      </g>
     </g>
    </g>
    <g id="xtick_12">
     <g id="line2d_15">
      <g>
       <use style="stroke:#000000;stroke-width:0.6;" x="194.97782" xlink:href="#m2c4e1e89f4" y="291.28"/>
      </g>
     </g>
    </g>
    <g id="xtick_13">
     <g id="line2d_16">
      <g>
       <use style="stroke:#000000;stroke-width:0.6;" x="207.455693" xlink:href="#m2c4e1e89f4" y="291.28"/>
      </g>
     </g>
    </g>
    <g id="xtick_14">
     <g id="line2d_17">
      <g>
       <use style="stroke:#000000;stroke-width:0.6;" x="218.005585" xlink:href="#m2c4e1e89f4" y="291.28"/>
      </g>
     </g>
    </g>
    <g id="xtick_15">
     <g id="line2d_18">
      <g>
       <use style="stroke:#000000;stroke-width:0.6;" x="227.144317" xlink:href="#m2c4e1e89f4" y="291.28"/>
      </g>
     </g>
    </g>
    <g id="xtick_16">
     <g id="line2d_19">
      <g>
       <use style="stroke:#000000;stroke-width:0.6;" x="235.20525" xlink:href="#m2c4e1e89f4" y="291.28"/>
      </g>
     </g>
    </g>
    <g id="xtick_17">
     <g id="line2d_20">
      <g>
       <use style="stroke:#000000;stroke-width:0.6;" x="289.85418" xlink:href="#m2c4e1e89f4" y="291.28"/>
      </g>
     </g>
    </g>
    <g id="xtick_18">
     <g id="line2d_21">
      <g>
       <use style="stroke:#000000;stroke-width:0.6;" x="317.603737" xlink:href="#m2c4e1e89f4" y="291.28"/>
      </g>
     </g>
    </g>
    <g id="xtick_19">
     <g id="line2d_22">
      <g>
       <use style="stroke:#000000;stroke-width:0.6;" x="337.292361" xlink:href="#m2c4e1e89f4" y="291.28"/>
      </g>
     </g>
    </g>
    <g id="xtick_20">
     <g id="line2d_23">
      <g>
       <use style="stroke:#000000;stroke-width:0.6;" x="352.564044" xlink:href="#m2c4e1e89f4" y="291.28"/>
      </g>
     </g>
    </g>
    <g id="xtick_21">
     <g id="line2d_24">
      <g>
       <use style="stroke:#000000;stroke-width:0.6;" x="365.041917" xlink:href="#m2c4e1e89f4" y="291.28"/>
      </g>
     </g>
    </g>
    <g id="xtick_22">
     <g id="line2d_25">
      <g>
       <use style="stroke:#000000;stroke-width:0.6;" x="375.591809" xlink:href="#m2c4e1e89f4" y="291.28"/>
      </g>
     </g>
    </g>
    <g id="xtick_23">
     <g id="line2d_26">
      <g>
       <use style="stroke:#000000;stroke-width:0.6;" x="384.730541" xlink:href="#m2c4e1e89f4" y="291.28"/>
      </g>
     </g>
    </g>
    <g id="xtick_24">
     <g id="line2d_27">
      <g>
       <use style="stroke:#000000;stroke-width:0.6;" x="392.791474" xlink:href="#m2c4e1e89f4" y="291.28"/>
      </g>
     </g>
    </g>
    <g id="xtick_25">
     <g id="line2d_28">
      <g>
       <use style="stroke:#000000;stroke-width:0.6;" x="447.440404" xlink:href="#m2c4e1e89f4" y="291.28"/>
      </g>
     </g>
    </g>
    <g id="text_4">
     <!-- log10 of FEvals ratio -->
     <defs>
      <path d="M 9.421875 75.984375 
L 18.40625 75.984375 
L 18.40625 0 
L 9.421875 0 
z
" id="DejaVuSans-6c"/>
      <path d="M 30.609375 48.390625 
Q 23.390625 48.390625 19.1875 42.75 
Q 14.984375 37.109375 14.984375 27.296875 
Q 14.984375 17.484375 19.15625 11.84375 
Q 23.34375 6.203125 30.609375 6.203125 
Q 37.796875 6.203125 41.984375 11.859375 
Q 46.1875 17.53125 46.1875 27.296875 
Q 46.1875 37.015625 41.984375 42.703125 
Q 37.796875 48.390625 30.609375 48.390625 
z
M 30.609375 56 
Q 42.328125 56 49.015625 48.375 
Q 55.71875 40.765625 55.71875 27.296875 
Q 55.71875 13.875 49.015625 6.21875 
Q 42.328125 -1.421875 30.609375 -1.421875 
Q 18.84375 -1.421875 12.171875 6.21875 
Q 5.515625 13.875 5.515625 27.296875 
Q 5.515625 40.765625 12.171875 48.375 
Q 18.84375 56 30.609375 56 
z
" id="DejaVuSans-6f"/>
      <path d="M 45.40625 27.984375 
Q 45.40625 37.75 41.375 43.109375 
Q 37.359375 48.484375 30.078125 48.484375 
Q 22.859375 48.484375 18.828125 43.109375 
Q 14.796875 37.75 14.796875 27.984375 
Q 14.796875 18.265625 18.828125 12.890625 
Q 22.859375 7.515625 30.078125 7.515625 
Q 37.359375 7.515625 41.375 12.890625 
Q 45.40625 18.265625 45.40625 27.984375 
z
M 54.390625 6.78125 
Q 54.390625 -7.171875 48.1875 -13.984375 
Q 42 -20.796875 29.203125 -20.796875 
Q 24.46875 -20.796875 20.265625 -20.09375 
Q 16.0625 -19.390625 12.109375 -17.921875 
L 12.109375 -9.1875 
Q 16.0625 -11.328125 19.921875 -12.34375 
Q 23.78125 -13.375 27.78125 -13.375 
Q 36.625 -13.375 41.015625 -8.765625 
Q 45.40625 -4.15625 45.40625 5.171875 
L 45.40625 9.625 
Q 42.625 4.78125 38.28125 2.390625 
Q 33.9375 0 27.875 0 
Q 17.828125 0 11.671875 7.65625 
Q 5.515625 15.328125 5.515625 27.984375 
Q 5.515625 40.671875 11.671875 48.328125 
Q 17.828125 56 27.875 56 
Q 33.9375 56 38.28125 53.609375 
Q 42.625 51.21875 45.40625 46.390625 
L 45.40625 54.6875 
L 54.390625 54.6875 
z
" id="DejaVuSans-67"/>
      <path id="DejaVuSans-20"/>
      <path d="M 37.109375 75.984375 
L 37.109375 68.5 
L 28.515625 68.5 
Q 23.6875 68.5 21.796875 66.546875 
Q 19.921875 64.59375 19.921875 59.515625 
L 19.921875 54.6875 
L 34.71875 54.6875 
L 34.71875 47.703125 
L 19.921875 47.703125 
L 19.921875 0 
L 10.890625 0 
L 10.890625 47.703125 
L 2.296875 47.703125 
L 2.296875 54.6875 
L 10.890625 54.6875 
L 10.890625 58.5 
Q 10.890625 67.625 15.140625 71.796875 
Q 19.390625 75.984375 28.609375 75.984375 
z
" id="DejaVuSans-66"/>
      <path d="M 9.8125 72.90625 
L 51.703125 72.90625 
L 51.703125 64.59375 
L 19.671875 64.59375 
L 19.671875 43.109375 
L 48.578125 43.109375 
L 48.578125 34.8125 
L 19.671875 34.8125 
L 19.671875 0 
L 9.8125 0 
z
" id="DejaVuSans-46"/>
      <path d="M 9.8125 72.90625 
L 55.90625 72.90625 
L 55.90625 64.59375 
L 19.671875 64.59375 
L 19.671875 43.015625 
L 54.390625 43.015625 
L 54.390625 34.71875 
L 19.671875 34.71875 
L 19.671875 8.296875 
L 56.78125 8.296875 
L 56.78125 0 
L 9.8125 0 
z
" id="DejaVuSans-45"/>
      <path d="M 2.984375 54.6875 
L 12.5 54.6875 
L 29.59375 8.796875 
L 46.6875 54.6875 
L 56.203125 54.6875 
L 35.6875 0 
L 23.484375 0 
z
" id="DejaVuSans-76"/>
      <path d="M 34.28125 27.484375 
Q 23.390625 27.484375 19.1875 25 
Q 14.984375 22.515625 14.984375 16.5 
Q 14.984375 11.71875 18.140625 8.90625 
Q 21.296875 6.109375 26.703125 6.109375 
Q 34.1875 6.109375 38.703125 11.40625 
Q 43.21875 16.703125 43.21875 25.484375 
L 43.21875 27.484375 
z
M 52.203125 31.203125 
L 52.203125 0 
L 43.21875 0 
L 43.21875 8.296875 
Q 40.140625 3.328125 35.546875 0.953125 
Q 30.953125 -1.421875 24.3125 -1.421875 
Q 15.921875 -1.421875 10.953125 3.296875 
Q 6 8.015625 6 15.921875 
Q 6 25.140625 12.171875 29.828125 
Q 18.359375 34.515625 30.609375 34.515625 
L 43.21875 34.515625 
L 43.21875 35.40625 
Q 43.21875 41.609375 39.140625 45 
Q 35.0625 48.390625 27.6875 48.390625 
Q 23 48.390625 18.546875 47.265625 
Q 14.109375 46.140625 10.015625 43.890625 
L 10.015625 52.203125 
Q 14.9375 54.109375 19.578125 55.046875 
Q 24.21875 56 28.609375 56 
Q 40.484375 56 46.34375 49.84375 
Q 52.203125 43.703125 52.203125 31.203125 
z
" id="DejaVuSans-61"/>
      <path d="M 44.28125 53.078125 
L 44.28125 44.578125 
Q 40.484375 46.53125 36.375 47.5 
Q 32.28125 48.484375 27.875 48.484375 
Q 21.1875 48.484375 17.84375 46.4375 
Q 14.5 44.390625 14.5 40.28125 
Q 14.5 37.15625 16.890625 35.375 
Q 19.28125 33.59375 26.515625 31.984375 
L 29.59375 31.296875 
Q 39.15625 29.25 43.1875 25.515625 
Q 47.21875 21.78125 47.21875 15.09375 
Q 47.21875 7.46875 41.1875 3.015625 
Q 35.15625 -1.421875 24.609375 -1.421875 
Q 20.21875 -1.421875 15.453125 -0.5625 
Q 10.6875 0.296875 5.421875 2 
L 5.421875 11.28125 
Q 10.40625 8.6875 15.234375 7.390625 
Q 20.0625 6.109375 24.8125 6.109375 
Q 31.15625 6.109375 34.5625 8.28125 
Q 37.984375 10.453125 37.984375 14.40625 
Q 37.984375 18.0625 35.515625 20.015625 
Q 33.0625 21.96875 24.703125 23.78125 
L 21.578125 24.515625 
Q 13.234375 26.265625 9.515625 29.90625 
Q 5.8125 33.546875 5.8125 39.890625 
Q 5.8125 47.609375 11.28125 51.796875 
Q 16.75 56 26.8125 56 
Q 31.78125 56 36.171875 55.265625 
Q 40.578125 54.546875 44.28125 53.078125 
z
" id="DejaVuSans-73"/>
      <path d="M 41.109375 46.296875 
Q 39.59375 47.171875 37.8125 47.578125 
Q 36.03125 48 33.890625 48 
Q 26.265625 48 22.1875 43.046875 
Q 18.109375 38.09375 18.109375 28.8125 
L 18.109375 0 
L 9.078125 0 
L 9.078125 54.6875 
L 18.109375 54.6875 
L 18.109375 46.1875 
Q 20.953125 51.171875 25.484375 53.578125 
Q 30.03125 56 36.53125 56 
Q 37.453125 56 38.578125 55.875 
Q 39.703125 55.765625 41.0625 55.515625 
z
" id="DejaVuSans-72"/>
      <path d="M 18.3125 70.21875 
L 18.3125 54.6875 
L 36.8125 54.6875 
L 36.8125 47.703125 
L 18.3125 47.703125 
L 18.3125 18.015625 
Q 18.3125 11.328125 20.140625 9.421875 
Q 21.96875 7.515625 27.59375 7.515625 
L 36.8125 7.515625 
L 36.8125 0 
L 27.59375 0 
Q 17.1875 0 13.234375 3.875 
Q 9.28125 7.765625 9.28125 18.015625 
L 9.28125 47.703125 
L 2.6875 47.703125 
L 2.6875 54.6875 
L 9.28125 54.6875 
L 9.28125 70.21875 
z
" id="DejaVuSans-74"/>
      <path d="M 9.421875 54.6875 
L 18.40625 54.6875 
L 18.40625 0 
L 9.421875 0 
z
M 9.421875 75.984375 
L 18.40625 75.984375 
L 18.40625 64.59375 
L 9.421875 64.59375 
z
" id="DejaVuSans-69"/>
     </defs>
     <g transform="translate(140.111312 336.833125)scale(0.2 -0.2)">
      <use xlink:href="#DejaVuSans-6c"/>
      <use x="27.783203" xlink:href="#DejaVuSans-6f"/>
      <use x="88.964844" xlink:href="#DejaVuSans-67"/>
      <use x="152.441406" xlink:href="#DejaVuSans-31"/>
      <use x="216.064453" xlink:href="#DejaVuSans-30"/>
      <use x="279.6875" xlink:href="#DejaVuSans-20"/>
      <use x="311.474609" xlink:href="#DejaVuSans-6f"/>
      <use x="372.65625" xlink:href="#DejaVuSans-66"/>
      <use x="407.861328" xlink:href="#DejaVuSans-20"/>
      <use x="439.648438" xlink:href="#DejaVuSans-46"/>
      <use x="497.167969" xlink:href="#DejaVuSans-45"/>
      <use x="560.351562" xlink:href="#DejaVuSans-76"/>
      <use x="619.53125" xlink:href="#DejaVuSans-61"/>
      <use x="680.810547" xlink:href="#DejaVuSans-6c"/>
      <use x="708.59375" xlink:href="#DejaVuSans-73"/>
      <use x="760.693359" xlink:href="#DejaVuSans-20"/>
      <use x="792.480469" xlink:href="#DejaVuSans-72"/>
      <use x="833.59375" xlink:href="#DejaVuSans-61"/>
      <use x="894.873047" xlink:href="#DejaVuSans-74"/>
      <use x="934.082031" xlink:href="#DejaVuSans-69"/>
      <use x="961.865234" xlink:href="#DejaVuSans-6f"/>
     </g>
    </g>
   </g>
   <g id="matplotlib.axis_2">
    <g id="ytick_1">
     <g id="line2d_29">
      <path clip-path="url(#p84316400e3)" d="M 34.16 288.478431 
L 450.672 288.478431 
" style="fill:none;stroke:#b0b0b0;stroke-linecap:square;stroke-width:0.8;"/>
     </g>
     <g id="line2d_30">
      <defs>
       <path d="M 0 0 
L -3.5 0 
" id="m3075e09083" style="stroke:#000000;stroke-width:0.8;"/>
      </defs>
      <g>
       <use style="stroke:#000000;stroke-width:0.8;" x="34.16" xlink:href="#m3075e09083" y="288.478431"/>
      </g>
     </g>
    </g>
    <g id="ytick_2">
     <g id="line2d_31">
      <path clip-path="url(#p84316400e3)" d="M 34.16 218.439216 
L 450.672 218.439216 
" style="fill:none;stroke:#b0b0b0;stroke-linecap:square;stroke-width:0.8;"/>
     </g>
     <g id="line2d_32">
      <g>
       <use style="stroke:#000000;stroke-width:0.8;" x="34.16" xlink:href="#m3075e09083" y="218.439216"/>
      </g>
     </g>
    </g>
    <g id="ytick_3">
     <g id="line2d_33">
      <path clip-path="url(#p84316400e3)" d="M 34.16 148.4 
L 450.672 148.4 
" style="fill:none;stroke:#b0b0b0;stroke-linecap:square;stroke-width:0.8;"/>
     </g>
     <g id="line2d_34">
      <g>
       <use style="stroke:#000000;stroke-width:0.8;" x="34.16" xlink:href="#m3075e09083" y="148.4"/>
      </g>
     </g>
    </g>
    <g id="ytick_4">
     <g id="line2d_35">
      <path clip-path="url(#p84316400e3)" d="M 34.16 78.360784 
L 450.672 78.360784 
" style="fill:none;stroke:#b0b0b0;stroke-linecap:square;stroke-width:0.8;"/>
     </g>
     <g id="line2d_36">
      <g>
       <use style="stroke:#000000;stroke-width:0.8;" x="34.16" xlink:href="#m3075e09083" y="78.360784"/>
      </g>
     </g>
    </g>
    <g id="ytick_5">
     <g id="line2d_37">
      <path clip-path="url(#p84316400e3)" d="M 34.16 8.321569 
L 450.672 8.321569 
" style="fill:none;stroke:#b0b0b0;stroke-linecap:square;stroke-width:0.8;"/>
     </g>
     <g id="line2d_38">
      <g>
       <use style="stroke:#000000;stroke-width:0.8;" x="34.16" xlink:href="#m3075e09083" y="8.321569"/>
      </g>
     </g>
    </g>
    <g id="text_5">
     <!-- proportion of trials -->
     <defs>
      <path d="M 18.109375 8.203125 
L 18.109375 -20.796875 
L 9.078125 -20.796875 
L 9.078125 54.6875 
L 18.109375 54.6875 
L 18.109375 46.390625 
Q 20.953125 51.265625 25.265625 53.625 
Q 29.59375 56 35.59375 56 
Q 45.5625 56 51.78125 48.09375 
Q 58.015625 40.1875 58.015625 27.296875 
Q 58.015625 14.40625 51.78125 6.484375 
Q 45.5625 -1.421875 35.59375 -1.421875 
Q 29.59375 -1.421875 25.265625 0.953125 
Q 20.953125 3.328125 18.109375 8.203125 
z
M 48.6875 27.296875 
Q 48.6875 37.203125 44.609375 42.84375 
Q 40.53125 48.484375 33.40625 48.484375 
Q 26.265625 48.484375 22.1875 42.84375 
Q 18.109375 37.203125 18.109375 27.296875 
Q 18.109375 17.390625 22.1875 11.75 
Q 26.265625 6.109375 33.40625 6.109375 
Q 40.53125 6.109375 44.609375 11.75 
Q 48.6875 17.390625 48.6875 27.296875 
z
" id="DejaVuSans-70"/>
      <path d="M 54.890625 33.015625 
L 54.890625 0 
L 45.90625 0 
L 45.90625 32.71875 
Q 45.90625 40.484375 42.875 44.328125 
Q 39.84375 48.1875 33.796875 48.1875 
Q 26.515625 48.1875 22.3125 43.546875 
Q 18.109375 38.921875 18.109375 30.90625 
L 18.109375 0 
L 9.078125 0 
L 9.078125 54.6875 
L 18.109375 54.6875 
L 18.109375 46.1875 
Q 21.34375 51.125 25.703125 53.5625 
Q 30.078125 56 35.796875 56 
Q 45.21875 56 50.046875 50.171875 
Q 54.890625 44.34375 54.890625 33.015625 
z
" id="DejaVuSans-6e"/>
     </defs>
     <g transform="translate(19.000625 241.628125)rotate(-90)scale(0.2 -0.2)">
      <use xlink:href="#DejaVuSans-70"/>
      <use x="63.476562" xlink:href="#DejaVuSans-72"/>
      <use x="104.558594" xlink:href="#DejaVuSans-6f"/>
      <use x="165.740234" xlink:href="#DejaVuSans-70"/>
      <use x="229.216797" xlink:href="#DejaVuSans-6f"/>
      <use x="290.398438" xlink:href="#DejaVuSans-72"/>
      <use x="331.511719" xlink:href="#DejaVuSans-74"/>
      <use x="370.720703" xlink:href="#DejaVuSans-69"/>
      <use x="398.503906" xlink:href="#DejaVuSans-6f"/>
      <use x="459.685547" xlink:href="#DejaVuSans-6e"/>
      <use x="523.064453" xlink:href="#DejaVuSans-20"/>
      <use x="554.851562" xlink:href="#DejaVuSans-6f"/>
      <use x="616.033203" xlink:href="#DejaVuSans-66"/>
      <use x="651.238281" xlink:href="#DejaVuSans-20"/>
      <use x="683.025391" xlink:href="#DejaVuSans-74"/>
      <use x="722.234375" xlink:href="#DejaVuSans-72"/>
      <use x="763.347656" xlink:href="#DejaVuSans-69"/>
      <use x="791.130859" xlink:href="#DejaVuSans-61"/>
      <use x="852.410156" xlink:href="#DejaVuSans-6c"/>
      <use x="880.193359" xlink:href="#DejaVuSans-73"/>
     </g>
    </g>
   </g>
   <g id="line2d_39">
    <path clip-path="url(#p84316400e3)" d="M 34.16 260.075431 
L 53.092364 260.075431 
L 53.092364 259.429909 
L 54.22361 259.429909 
L 54.22361 258.784386 
L 59.615281 258.784386 
L 59.615281 258.138863 
L 61.658382 258.138863 
L 61.658382 257.493341 
L 62.657507 257.493341 
L 62.657507 256.847818 
L 67.445391 256.847818 
L 67.445391 255.556772 
L 68.364047 255.556772 
L 68.364047 254.91125 
L 70.165172 254.91125 
L 70.165172 254.265727 
L 87.032062 254.265727 
L 87.032062 253.620204 
L 88.163308 253.620204 
L 88.163308 252.974681 
L 90.518606 252.974681 
L 90.518606 251.683636 
L 93.554979 251.683636 
L 93.554979 251.038113 
L 93.702381 251.038113 
L 93.702381 250.392591 
L 95.598081 250.392591 
L 95.598081 249.747068 
L 96.597206 249.747068 
L 96.597206 249.101545 
L 101.385089 249.101545 
L 101.385089 247.8105 
L 101.66179 247.8105 
L 101.66179 247.164977 
L 102.303745 247.164977 
L 102.303745 246.519454 
L 103.132136 246.519454 
L 103.132136 245.228409 
L 104.104871 245.228409 
L 104.104871 244.582886 
L 120.645579 244.582886 
L 120.645579 243.937363 
L 131.980398 243.937363 
L 131.980398 243.291841 
L 135.601488 243.291841 
L 135.601488 242.646318 
L 138.973621 242.646318 
L 138.973621 242.000795 
L 140.104867 242.000795 
L 140.104867 241.355272 
L 145.28964 241.355272 
L 145.28964 240.70975 
L 145.496538 240.70975 
L 145.496538 240.064227 
L 147.539639 240.064227 
L 147.539639 239.418704 
L 148.538764 239.418704 
L 148.538764 238.773182 
L 150.452369 238.773182 
L 150.452369 236.191091 
L 151.579261 236.191091 
L 151.579261 235.545568 
L 153.326648 235.545568 
L 153.326648 234.254522 
L 153.636145 234.254522 
L 153.636145 232.963477 
L 154.245304 232.963477 
L 154.245304 232.317954 
L 154.585278 232.317954 
L 154.585278 231.672432 
L 156.046429 231.672432 
L 156.046429 231.026909 
L 156.534743 231.026909 
L 156.534743 230.381386 
L 163.0659 230.381386 
L 163.0659 227.799295 
L 163.527966 227.799295 
L 163.527966 227.153772 
L 164.659212 227.153772 
L 164.659212 226.50825 
L 165.089376 226.50825 
L 165.089376 225.217204 
L 165.920096 225.217204 
L 165.920096 224.571682 
L 167.84523 224.571682 
L 167.84523 223.926159 
L 168.273151 223.926159 
L 168.273151 223.280636 
L 170.050883 223.280636 
L 170.050883 222.635113 
L 172.093985 222.635113 
L 172.093985 221.989591 
L 173.093109 221.989591 
L 173.093109 221.344068 
L 174.862784 221.344068 
L 174.862784 220.698545 
L 175.99403 220.698545 
L 175.99403 220.053022 
L 177.702906 220.053022 
L 177.702906 218.761977 
L 177.880993 218.761977 
L 177.880993 217.470932 
L 178.799649 217.470932 
L 178.799649 216.825409 
L 180.600775 216.825409 
L 180.600775 216.179886 
L 181.355345 216.179886 
L 181.385701 214.243318 
L 182.482236 214.243318 
L 182.482236 212.952273 
L 183.428803 212.952273 
L 183.428803 212.30675 
L 184.427928 212.30675 
L 184.427928 211.661227 
L 184.53912 211.661227 
L 184.53912 211.015704 
L 187.543047 211.015704 
L 187.644966 209.079136 
L 189.215812 209.079136 
L 189.215812 207.788091 
L 190.134467 207.788091 
L 190.134467 207.142568 
L 190.474441 207.142568 
L 190.474441 206.497045 
L 190.828742 206.497045 
L 190.828742 205.851523 
L 191.935593 205.851523 
L 191.935593 205.206 
L 193.846574 205.206 
L 193.846574 204.560477 
L 193.968875 204.560477 
L 193.968875 203.269432 
L 194.97782 203.269432 
L 194.97782 202.623909 
L 200.258497 202.623909 
L 200.369491 200.687341 
L 202.412592 200.687341 
L 202.412592 200.041818 
L 203.411717 200.041818 
L 203.411717 199.396295 
L 205.223403 199.396295 
L 205.223403 198.10525 
L 206.526836 198.10525 
L 206.526836 197.459727 
L 208.199601 197.459727 
L 208.199601 196.168682 
L 208.476302 196.168682 
L 208.476302 195.523159 
L 209.118257 195.523159 
L 209.118257 194.877636 
L 210.919382 194.877636 
L 210.919382 194.232113 
L 211.513025 194.232113 
L 211.513025 192.941068 
L 212.097392 192.941068 
L 212.097392 192.295545 
L 217.861655 192.295545 
L 217.861655 191.650023 
L 219.860409 191.650023 
L 219.860409 191.0045 
L 223.432211 191.0045 
L 223.432211 190.358977 
L 225.343191 190.358977 
L 225.343191 189.713454 
L 226.150031 189.713454 
L 226.150031 189.067932 
L 226.474437 189.067932 
L 226.474437 188.422409 
L 227.144317 188.422409 
L 227.144317 187.776886 
L 227.778994 187.776886 
L 227.778994 186.485841 
L 228.062973 186.485841 
L 228.062973 185.194795 
L 228.275563 185.194795 
L 228.275563 184.549273 
L 229.194219 184.549273 
L 229.194219 183.258227 
L 229.80247 183.258227 
L 229.80247 180.676136 
L 231.081181 180.676136 
L 231.081181 180.030614 
L 231.866108 180.030614 
L 231.866108 179.385091 
L 232.850857 179.385091 
L 232.850857 178.739568 
L 232.986245 178.739568 
L 232.986245 177.448523 
L 233.667234 177.448523 
L 233.667234 176.803 
L 233.849981 176.803 
L 233.90921 175.511954 
L 233.982103 175.511954 
L 233.982103 174.866432 
L 234.58589 174.866432 
L 234.58589 173.575386 
L 234.908335 173.575386 
L 234.981227 172.284341 
L 235.710336 172.284341 
L 235.710336 171.638818 
L 235.893083 171.638818 
L 235.893083 170.993295 
L 236.126379 170.993295 
L 236.126379 170.347773 
L 236.628992 170.347773 
L 236.70946 168.411204 
L 237.024329 168.411204 
L 237.024329 167.765682 
L 237.628116 167.765682 
L 237.628116 166.474636 
L 239.232225 166.474636 
L 239.232225 165.183591 
L 239.373773 165.183591 
L 239.373773 164.538068 
L 239.696219 164.538068 
L 239.696219 163.247023 
L 240.372898 163.247023 
L 240.372898 162.6015 
L 240.614874 162.6015 
L 240.614874 161.955977 
L 241.284754 161.955977 
L 241.284754 161.310455 
L 241.416875 161.310455 
L 241.497344 159.373886 
L 242.416 159.373886 
L 242.416 137.426114 
L 243.334656 137.426114 
L 243.415125 135.489545 
L 243.547246 135.489545 
L 243.547246 134.844023 
L 244.217126 134.844023 
L 244.217126 134.1985 
L 244.459102 134.1985 
L 244.459102 133.552977 
L 245.135781 133.552977 
L 245.135781 132.261932 
L 245.458227 132.261932 
L 245.458227 131.616409 
L 245.599775 131.616409 
L 245.599775 130.325364 
L 247.203884 130.325364 
L 247.203884 129.034318 
L 247.807671 129.034318 
L 247.807671 128.388796 
L 248.12254 128.388796 
L 248.203008 126.452227 
L 248.705621 126.452227 
L 248.705621 125.806705 
L 248.938917 125.806705 
L 248.938917 125.161182 
L 249.121664 125.161182 
L 249.121664 124.515659 
L 249.850773 124.515659 
L 249.923665 123.224614 
L 250.24611 123.224614 
L 250.24611 121.933568 
L 250.849897 121.933568 
L 250.92279 120.642523 
L 250.982019 120.642523 
L 250.982019 119.997 
L 251.164766 119.997 
L 251.164766 119.351477 
L 251.845755 119.351477 
L 251.845755 118.060432 
L 251.981143 118.060432 
L 251.981143 117.414909 
L 252.965892 117.414909 
L 252.965892 116.769386 
L 253.750819 116.769386 
L 253.750819 116.123864 
L 255.02953 116.123864 
L 255.02953 113.541773 
L 255.637781 113.541773 
L 255.637781 112.250727 
L 256.556437 112.250727 
L 256.556437 111.605205 
L 256.769027 111.605205 
L 256.769027 110.314159 
L 257.053006 110.314159 
L 257.053006 109.023114 
L 257.687683 109.023114 
L 257.687683 108.377591 
L 258.357563 108.377591 
L 258.357563 107.732068 
L 258.681969 107.732068 
L 258.681969 107.086546 
L 259.488809 107.086546 
L 259.488809 106.441023 
L 261.399789 106.441023 
L 261.399789 105.7955 
L 264.971591 105.7955 
L 264.971591 105.149977 
L 266.970345 105.149977 
L 266.970345 104.504455 
L 272.734608 104.504455 
L 272.734608 103.858932 
L 273.318975 103.858932 
L 273.318975 102.567887 
L 273.912618 102.567887 
L 273.912618 101.922364 
L 275.713743 101.922364 
L 275.713743 101.276841 
L 276.355698 101.276841 
L 276.355698 100.631318 
L 276.632399 100.631318 
L 276.632399 99.340273 
L 278.305164 99.340273 
L 278.305164 98.69475 
L 279.608597 98.69475 
L 279.608597 97.403705 
L 281.420283 97.403705 
L 281.420283 96.758182 
L 282.419408 96.758182 
L 282.419408 96.112659 
L 284.462509 96.112659 
L 284.573503 94.176091 
L 289.85418 94.176091 
L 289.85418 93.530568 
L 290.863125 93.530568 
L 290.863125 92.239523 
L 290.985426 92.239523 
L 290.985426 91.594 
L 292.896407 91.594 
L 292.896407 90.948477 
L 294.003258 90.948477 
L 294.003258 90.302955 
L 294.357559 90.302955 
L 294.357559 89.657432 
L 294.697533 89.657432 
L 294.697533 89.011909 
L 295.616188 89.011909 
L 295.616188 87.720864 
L 297.187034 87.720864 
L 297.288953 85.784296 
L 300.29288 85.784296 
L 300.29288 85.138773 
L 300.404072 85.138773 
L 300.404072 84.49325 
L 301.403197 84.49325 
L 301.403197 83.847727 
L 302.349764 83.847727 
L 302.349764 82.556682 
L 303.446299 82.556682 
L 303.476655 80.620114 
L 304.231225 80.620114 
L 304.231225 79.974591 
L 306.032351 79.974591 
L 306.032351 79.329068 
L 306.951007 79.329068 
L 306.951007 78.038023 
L 307.129094 78.038023 
L 307.129094 76.746978 
L 308.83797 76.746978 
L 308.83797 76.101455 
L 309.969216 76.101455 
L 309.969216 75.455932 
L 311.738891 75.455932 
L 311.738891 74.810409 
L 312.738015 74.810409 
L 312.738015 74.164887 
L 314.781117 74.164887 
L 314.781117 73.519364 
L 316.558849 73.519364 
L 316.558849 72.873841 
L 316.98677 72.873841 
L 316.98677 72.228318 
L 318.911904 72.228318 
L 318.911904 71.582796 
L 319.742624 71.582796 
L 319.742624 70.29175 
L 320.172788 70.29175 
L 320.172788 69.646228 
L 321.304034 69.646228 
L 321.304034 69.000705 
L 321.7661 69.000705 
L 321.7661 66.418614 
L 328.297257 66.418614 
L 328.297257 65.773091 
L 328.785571 65.773091 
L 328.785571 65.127568 
L 330.246722 65.127568 
L 330.246722 64.482046 
L 330.586696 64.482046 
L 330.586696 63.836523 
L 331.195855 63.836523 
L 331.195855 62.545478 
L 331.505352 62.545478 
L 331.505352 61.254432 
L 333.252739 61.254432 
L 333.252739 60.608909 
L 334.379631 60.608909 
L 334.379631 58.026818 
L 336.293236 58.026818 
L 336.293236 57.381296 
L 337.292361 57.381296 
L 337.292361 56.735773 
L 339.335462 56.735773 
L 339.335462 56.09025 
L 339.54236 56.09025 
L 339.54236 55.444728 
L 344.727133 55.444728 
L 344.727133 54.799205 
L 345.858379 54.799205 
L 345.858379 54.153682 
L 349.230512 54.153682 
L 349.230512 53.508159 
L 352.851602 53.508159 
L 352.851602 52.862637 
L 364.186421 52.862637 
L 364.186421 52.217114 
L 380.727129 52.217114 
L 380.727129 51.571591 
L 381.699864 51.571591 
L 381.699864 50.280546 
L 382.528255 50.280546 
L 382.528255 49.635023 
L 383.17021 49.635023 
L 383.17021 48.9895 
L 383.446911 48.9895 
L 383.446911 47.698455 
L 388.234794 47.698455 
L 388.234794 47.052932 
L 389.233919 47.052932 
L 389.233919 46.407409 
L 391.129619 46.407409 
L 391.129619 45.761887 
L 391.277021 45.761887 
L 391.277021 45.116364 
L 394.313394 45.116364 
L 394.313394 43.825319 
L 396.668692 43.825319 
L 396.668692 43.179796 
L 397.799938 43.179796 
L 397.799938 42.534273 
L 414.666828 42.534273 
L 414.666828 41.88875 
L 416.467953 41.88875 
L 416.467953 41.243228 
L 417.386609 41.243228 
L 417.386609 39.952182 
L 422.174493 39.952182 
L 422.174493 39.306659 
L 423.173618 39.306659 
L 423.173618 38.661137 
L 425.216719 38.661137 
L 425.216719 38.015614 
L 430.60839 38.015614 
L 430.60839 37.370091 
L 431.739636 37.370091 
L 431.739636 36.724569 
L 450.672 36.724569 
L 450.672 36.724569 
" style="fill:none;stroke:#000000;stroke-linecap:square;stroke-width:3;"/>
   </g>
   <g id="line2d_40">
    <path clip-path="url(#p84316400e3)" style="fill:none;stroke:#000000;stroke-linecap:square;stroke-width:3;"/>
   </g>
   <g id="line2d_41">
    <path clip-path="url(#p84316400e3)" d="M 34.16 200.429132 
L 155.707591 200.429132 
L 155.707591 198.828235 
L 159.046733 198.828235 
L 159.046733 198.027787 
L 159.472181 198.027787 
L 159.472181 194.825994 
L 160.33807 194.825994 
L 160.33807 193.225098 
L 162.811322 193.225098 
L 162.811322 191.624202 
L 164.102659 191.624202 
L 164.102659 188.422409 
L 194.97782 188.422409 
L 194.97782 187.621961 
L 195.845977 187.621961 
L 195.845977 186.821513 
L 197.062412 186.821513 
L 197.062412 185.220616 
L 197.840558 185.220616 
L 197.840558 184.420168 
L 200.401554 184.420168 
L 200.401554 183.61972 
L 201.061179 183.61972 
L 201.061179 182.819272 
L 201.692891 182.819272 
L 201.692891 181.218375 
L 203.95243 181.218375 
L 203.95243 180.417927 
L 204.825769 180.417927 
L 204.825769 178.817031 
L 206.829797 178.817031 
L 206.829797 178.016583 
L 207.697955 178.016583 
L 207.697955 177.216134 
L 209.692536 177.216134 
L 209.692536 176.415686 
L 210.249503 176.415686 
L 210.249503 175.615238 
L 211.11766 175.615238 
L 211.11766 174.81479 
L 213.112241 174.81479 
L 213.112241 174.014342 
L 215.804407 174.014342 
L 215.804407 173.213894 
L 219.224113 173.213894 
L 219.224113 172.413445 
L 227.144317 172.413445 
L 227.144317 171.612997 
L 230.564022 171.612997 
L 230.564022 170.812549 
L 233.44139 170.812549 
L 233.44139 170.012101 
L 234.309547 170.012101 
L 234.309547 169.211653 
L 236.304128 169.211653 
L 236.304128 168.411204 
L 237.785521 168.411204 
L 237.785521 165.209412 
L 238.651411 165.209412 
L 238.651411 163.608515 
L 238.996295 163.608515 
L 239.076858 161.207171 
L 239.553262 161.207171 
L 239.553262 160.406723 
L 240.421419 160.406723 
L 240.421419 159.606275 
L 241.124663 159.606275 
L 241.124663 158.005378 
L 241.547843 158.005378 
L 241.547843 157.20493 
L 242.416 157.20493 
L 242.416 139.59507 
L 243.284157 139.59507 
L 243.284157 138.794622 
L 243.707337 138.794622 
L 243.707337 137.193725 
L 244.410581 137.193725 
L 244.410581 136.393277 
L 245.278738 136.393277 
L 245.278738 135.592829 
L 245.755142 135.592829 
L 245.835705 133.191485 
L 246.180589 133.191485 
L 246.180589 131.590588 
L 247.046479 131.590588 
L 247.046479 128.388796 
L 248.527872 128.388796 
L 248.527872 127.588347 
L 250.522453 127.588347 
L 250.522453 126.787899 
L 251.39061 126.787899 
L 251.39061 125.987451 
L 254.267978 125.987451 
L 254.267978 125.187003 
L 257.687683 125.187003 
L 257.687683 124.386555 
L 265.607887 124.386555 
L 265.607887 123.586106 
L 269.027593 123.586106 
L 269.027593 122.785658 
L 271.719759 122.785658 
L 271.719759 121.98521 
L 273.71434 121.98521 
L 273.71434 121.184762 
L 274.582497 121.184762 
L 274.582497 120.384314 
L 275.139464 120.384314 
L 275.139464 119.583866 
L 277.134045 119.583866 
L 277.134045 118.783417 
L 278.002203 118.783417 
L 278.002203 117.982969 
L 280.006231 117.982969 
L 280.006231 116.382073 
L 280.87957 116.382073 
L 280.87957 115.581625 
L 283.139109 115.581625 
L 283.139109 113.980728 
L 283.770821 113.980728 
L 283.770821 113.18028 
L 284.430446 113.18028 
L 284.430446 112.379832 
L 286.991442 112.379832 
L 286.991442 111.579384 
L 287.769588 111.579384 
L 287.769588 109.978487 
L 288.986023 109.978487 
L 288.986023 109.178039 
L 289.85418 109.178039 
L 289.85418 108.377591 
L 320.729341 108.377591 
L 320.729341 105.175798 
L 322.020678 105.175798 
L 322.020678 103.574902 
L 324.49393 103.574902 
L 324.49393 101.974006 
L 325.359819 101.974006 
L 325.359819 98.772213 
L 325.785267 98.772213 
L 325.785267 97.971765 
L 329.124409 97.971765 
L 329.124409 96.370868 
L 450.672 96.370868 
L 450.672 96.370868 
" style="fill:none;stroke:#00bfbf;stroke-linecap:square;stroke-width:3;"/>
   </g>
   <g id="line2d_42">
    <path clip-path="url(#p84316400e3)" style="fill:none;stroke:#00bfbf;stroke-linecap:square;stroke-width:3;"/>
   </g>
   <g id="line2d_43">
    <path clip-path="url(#p84316400e3)" d="M 34.16 194.774088 
L 155.707591 194.774088 
L 155.707591 192.861755 
L 159.046733 192.861755 
L 159.046733 191.905588 
L 159.472181 191.905588 
L 159.472181 188.080921 
L 160.33807 188.080921 
L 160.33807 186.168587 
L 162.811322 186.168587 
L 162.811322 184.256254 
L 164.102659 184.256254 
L 164.102659 180.431587 
L 197.062412 180.431587 
L 197.062412 178.519253 
L 200.401554 178.519253 
L 200.401554 177.563086 
L 201.061179 177.563086 
L 201.061179 176.60692 
L 201.692891 176.60692 
L 201.692891 174.694586 
L 204.825769 174.694586 
L 204.825769 172.782253 
L 235.189855 172.782253 
L 235.189855 171.826086 
L 237.162729 171.826086 
L 237.162729 170.869919 
L 237.785521 170.869919 
L 237.785521 167.045252 
L 238.525533 167.045252 
L 238.525533 166.089085 
L 238.651411 166.089085 
L 238.651411 164.176752 
L 239.076858 164.176752 
L 239.080322 161.308251 
L 240.443126 161.308251 
L 240.498407 159.395918 
L 241.124663 159.395918 
L 241.124663 157.483584 
L 242.416 157.483584 
L 242.416 139.316416 
L 243.707337 139.316416 
L 243.707337 137.404082 
L 244.333593 137.404082 
L 244.388874 135.491749 
L 245.751678 135.491749 
L 245.755142 132.623248 
L 246.180589 132.623248 
L 246.180589 130.710915 
L 246.306467 130.710915 
L 246.306467 129.754748 
L 247.046479 129.754748 
L 247.046479 125.930081 
L 247.669271 125.930081 
L 247.669271 124.973914 
L 249.642145 124.973914 
L 249.642145 124.017747 
L 280.006231 124.017747 
L 280.006231 122.105414 
L 283.139109 122.105414 
L 283.139109 120.19308 
L 283.770821 120.19308 
L 283.770821 119.236914 
L 284.430446 119.236914 
L 284.430446 118.280747 
L 287.769588 118.280747 
L 287.769588 116.368413 
L 320.729341 116.368413 
L 320.729341 112.543746 
L 322.020678 112.543746 
L 322.020678 110.631413 
L 324.49393 110.631413 
L 324.49393 108.719079 
L 325.359819 108.719079 
L 325.359819 104.894412 
L 325.785267 104.894412 
L 325.785267 103.938245 
L 329.124409 103.938245 
L 329.124409 102.025912 
L 450.672 102.025912 
L 450.672 102.025912 
" style="fill:none;stroke:#bf00bf;stroke-linecap:square;stroke-width:3;"/>
   </g>
   <g id="line2d_44">
    <path clip-path="url(#p84316400e3)" style="fill:none;stroke:#bf00bf;stroke-linecap:square;stroke-width:3;"/>
   </g>
   <g id="line2d_45">
    <path clip-path="url(#p84316400e3)" d="M 34.16 201.090052 
L 155.707591 201.090052 
L 155.707591 198.519806 
L 159.046733 198.519806 
L 159.046733 197.234682 
L 159.472181 197.234682 
L 159.472181 192.09419 
L 160.33807 192.09419 
L 160.33807 189.523943 
L 162.811322 189.523943 
L 162.811322 186.953697 
L 164.102659 186.953697 
L 164.102659 181.813204 
L 197.062412 181.813204 
L 197.062412 179.242957 
L 200.401554 179.242957 
L 200.401554 177.957834 
L 201.061179 177.957834 
L 201.061179 176.672711 
L 201.692891 176.672711 
L 201.692891 174.102464 
L 204.825769 174.102464 
L 204.825769 171.532218 
L 237.785521 171.532218 
L 237.785521 166.391725 
L 238.651411 166.391725 
L 238.651411 163.821479 
L 239.076858 163.821479 
L 239.076858 161.251232 
L 241.124663 161.251232 
L 241.124663 158.680986 
L 242.416 158.680986 
L 242.416 138.119014 
L 243.707337 138.119014 
L 243.707337 135.548768 
L 245.755142 135.548768 
L 245.755142 132.978521 
L 246.180589 132.978521 
L 246.180589 130.408275 
L 247.046479 130.408275 
L 247.046479 125.267782 
L 280.006231 125.267782 
L 280.006231 122.697536 
L 283.139109 122.697536 
L 283.139109 120.127289 
L 283.770821 120.127289 
L 283.770821 118.842166 
L 284.430446 118.842166 
L 284.430446 117.557043 
L 287.769588 117.557043 
L 287.769588 114.986796 
L 320.729341 114.986796 
L 320.729341 109.846303 
L 322.020678 109.846303 
L 322.020678 107.276057 
L 324.49393 107.276057 
L 324.49393 104.70581 
L 325.359819 104.70581 
L 325.359819 99.565318 
L 325.785267 99.565318 
L 325.785267 98.280194 
L 329.124409 98.280194 
L 329.124409 95.709948 
L 450.672 95.709948 
L 450.672 95.709948 
" style="fill:none;stroke:#ff0000;stroke-linecap:square;stroke-width:3;"/>
   </g>
   <g id="line2d_46">
    <path clip-path="url(#p84316400e3)" style="fill:none;stroke:#ff0000;stroke-linecap:square;stroke-width:3;"/>
   </g>
   <g id="line2d_47">
    <path clip-path="url(#p84316400e3)" d="M 242.416 291.28 
L 242.416 5.52 
" style="fill:none;stroke:#000000;stroke-linecap:square;stroke-width:1.5;"/>
   </g>
   <g id="line2d_48">
    <path clip-path="url(#p84316400e3)" d="M 34.16 148.4 
L 450.672 148.4 
" style="fill:none;stroke:#000000;stroke-dasharray:2,3.3;stroke-dashoffset:0;stroke-width:2;"/>
   </g>
   <g id="patch_3">
    <path d="M 34.16 291.28 
L 34.16 5.52 
" style="fill:none;stroke:#000000;stroke-linecap:square;stroke-linejoin:miter;stroke-width:0.8;"/>
   </g>
   <g id="patch_4">
    <path d="M 450.672 291.28 
L 450.672 5.52 
" style="fill:none;stroke:#000000;stroke-linecap:square;stroke-linejoin:miter;stroke-width:0.8;"/>
   </g>
   <g id="patch_5">
    <path d="M 34.16 291.28 
L 450.672 291.28 
" style="fill:none;stroke:#000000;stroke-linecap:square;stroke-linejoin:miter;stroke-width:0.8;"/>
   </g>
   <g id="patch_6">
    <path d="M 34.16 5.52 
L 450.672 5.52 
" style="fill:none;stroke:#000000;stroke-linecap:square;stroke-linejoin:miter;stroke-width:0.8;"/>
   </g>
   <g id="text_6">
    <!-- f1-f5,5-D -->
    <defs>
     <path d="M 10.796875 72.90625 
L 49.515625 72.90625 
L 49.515625 64.59375 
L 19.828125 64.59375 
L 19.828125 46.734375 
Q 21.96875 47.46875 24.109375 47.828125 
Q 26.265625 48.1875 28.421875 48.1875 
Q 40.625 48.1875 47.75 41.5 
Q 54.890625 34.8125 54.890625 23.390625 
Q 54.890625 11.625 47.5625 5.09375 
Q 40.234375 -1.421875 26.90625 -1.421875 
Q 22.3125 -1.421875 17.546875 -0.640625 
Q 12.796875 0.140625 7.71875 1.703125 
L 7.71875 11.625 
Q 12.109375 9.234375 16.796875 8.0625 
Q 21.484375 6.890625 26.703125 6.890625 
Q 35.15625 6.890625 40.078125 11.328125 
Q 45.015625 15.765625 45.015625 23.390625 
Q 45.015625 31 40.078125 35.4375 
Q 35.15625 39.890625 26.703125 39.890625 
Q 22.75 39.890625 18.8125 39.015625 
Q 14.890625 38.140625 10.796875 36.28125 
z
" id="DejaVuSans-35"/>
     <path d="M 11.71875 12.40625 
L 22.015625 12.40625 
L 22.015625 4 
L 14.015625 -11.625 
L 7.71875 -11.625 
L 11.71875 4 
z
" id="DejaVuSans-2c"/>
     <path d="M 19.671875 64.796875 
L 19.671875 8.109375 
L 31.59375 8.109375 
Q 46.6875 8.109375 53.6875 14.9375 
Q 60.6875 21.78125 60.6875 36.53125 
Q 60.6875 51.171875 53.6875 57.984375 
Q 46.6875 64.796875 31.59375 64.796875 
z
M 9.8125 72.90625 
L 30.078125 72.90625 
Q 51.265625 72.90625 61.171875 64.09375 
Q 71.09375 55.28125 71.09375 36.53125 
Q 71.09375 17.671875 61.125 8.828125 
Q 51.171875 0 30.078125 0 
L 9.8125 0 
z
" id="DejaVuSans-44"/>
    </defs>
    <g transform="translate(353.89801 285.5648)scale(0.2 -0.2)">
     <use xlink:href="#DejaVuSans-66"/>
     <use x="35.205078" xlink:href="#DejaVuSans-31"/>
     <use x="98.828125" xlink:href="#DejaVuSans-2d"/>
     <use x="134.912109" xlink:href="#DejaVuSans-66"/>
     <use x="170.117188" xlink:href="#DejaVuSans-35"/>
     <use x="233.740234" xlink:href="#DejaVuSans-2c"/>
     <use x="265.527344" xlink:href="#DejaVuSans-35"/>
     <use x="329.150391" xlink:href="#DejaVuSans-2d"/>
     <use x="365.234375" xlink:href="#DejaVuSans-44"/>
    </g>
   </g>
   <g id="text_7">
    <!-- v0.0.0 -->
    <defs>
     <path d="M 10.6875 12.40625 
L 21 12.40625 
L 21 0 
L 10.6875 0 
z
" id="DejaVuSans-2e"/>
    </defs>
    <g style="fill:#808080;" transform="translate(226.73475 286.342713)scale(0.1 -0.1)">
     <use xlink:href="#DejaVuSans-76"/>
     <use x="59.179688" xlink:href="#DejaVuSans-30"/>
     <use x="122.802734" xlink:href="#DejaVuSans-2e"/>
     <use x="154.589844" xlink:href="#DejaVuSans-30"/>
     <use x="218.212891" xlink:href="#DejaVuSans-2e"/>
     <use x="250" xlink:href="#DejaVuSans-30"/>
    </g>
   </g>
   <g id="legend_1">
    <g id="patch_7">
     <path d="M 48.16 138.945 
L 177.381875 138.945 
Q 181.381875 138.945 181.381875 134.945 
L 181.381875 19.52 
Q 181.381875 15.52 177.381875 15.52 
L 48.16 15.52 
Q 44.16 15.52 44.16 19.52 
L 44.16 134.945 
Q 44.16 138.945 48.16 138.945 
z
" style="fill:#ffffff;opacity:0.2;stroke:#cccccc;stroke-linejoin:miter;"/>
    </g>
    <g id="line2d_49">
     <path d="M 52.16 31.716875 
L 92.16 31.716875 
" style="fill:none;stroke:#000000;stroke-linecap:square;stroke-width:3;"/>
    </g>
    <g id="line2d_50"/>
    <g id="text_8">
     <!-- 1: 2/2 -->
     <defs>
      <path d="M 11.71875 12.40625 
L 22.015625 12.40625 
L 22.015625 0 
L 11.71875 0 
z
M 11.71875 51.703125 
L 22.015625 51.703125 
L 22.015625 39.3125 
L 11.71875 39.3125 
z
" id="DejaVuSans-3a"/>
      <path d="M 19.1875 8.296875 
L 53.609375 8.296875 
L 53.609375 0 
L 7.328125 0 
L 7.328125 8.296875 
Q 12.9375 14.109375 22.625 23.890625 
Q 32.328125 33.6875 34.8125 36.53125 
Q 39.546875 41.84375 41.421875 45.53125 
Q 43.3125 49.21875 43.3125 52.78125 
Q 43.3125 58.59375 39.234375 62.25 
Q 35.15625 65.921875 28.609375 65.921875 
Q 23.96875 65.921875 18.8125 64.3125 
Q 13.671875 62.703125 7.8125 59.421875 
L 7.8125 69.390625 
Q 13.765625 71.78125 18.9375 73 
Q 24.125 74.21875 28.421875 74.21875 
Q 39.75 74.21875 46.484375 68.546875 
Q 53.21875 62.890625 53.21875 53.421875 
Q 53.21875 48.921875 51.53125 44.890625 
Q 49.859375 40.875 45.40625 35.40625 
Q 44.1875 33.984375 37.640625 27.21875 
Q 31.109375 20.453125 19.1875 8.296875 
z
" id="DejaVuSans-32"/>
      <path d="M 25.390625 72.90625 
L 33.6875 72.90625 
L 8.296875 -9.28125 
L 0 -9.28125 
z
" id="DejaVuSans-2f"/>
     </defs>
     <g transform="translate(108.16 38.716875)scale(0.2 -0.2)">
      <use xlink:href="#DejaVuSans-31"/>
      <use x="63.623047" xlink:href="#DejaVuSans-3a"/>
      <use x="97.314453" xlink:href="#DejaVuSans-20"/>
      <use x="129.101562" xlink:href="#DejaVuSans-32"/>
      <use x="192.724609" xlink:href="#DejaVuSans-2f"/>
      <use x="226.416016" xlink:href="#DejaVuSans-32"/>
     </g>
    </g>
    <g id="line2d_51">
     <path d="M 52.16 61.073125 
L 92.16 61.073125 
" style="fill:none;stroke:#00bfbf;stroke-linecap:square;stroke-width:3;"/>
    </g>
    <g id="line2d_52"/>
    <g id="text_9">
     <!-- -1: 2/2 -->
     <g transform="translate(108.16 68.073125)scale(0.2 -0.2)">
      <use xlink:href="#DejaVuSans-2d"/>
      <use x="36.083984" xlink:href="#DejaVuSans-31"/>
      <use x="99.707031" xlink:href="#DejaVuSans-3a"/>
      <use x="133.398438" xlink:href="#DejaVuSans-20"/>
      <use x="165.185547" xlink:href="#DejaVuSans-32"/>
      <use x="228.808594" xlink:href="#DejaVuSans-2f"/>
      <use x="262.5" xlink:href="#DejaVuSans-32"/>
     </g>
    </g>
    <g id="line2d_53">
     <path d="M 52.16 90.429375 
L 92.16 90.429375 
" style="fill:none;stroke:#bf00bf;stroke-linecap:square;stroke-width:3;"/>
    </g>
    <g id="line2d_54"/>
    <g id="text_10">
     <!-- -4: 2/2 -->
     <defs>
      <path d="M 37.796875 64.3125 
L 12.890625 25.390625 
L 37.796875 25.390625 
z
M 35.203125 72.90625 
L 47.609375 72.90625 
L 47.609375 25.390625 
L 58.015625 25.390625 
L 58.015625 17.1875 
L 47.609375 17.1875 
L 47.609375 0 
L 37.796875 0 
L 37.796875 17.1875 
L 4.890625 17.1875 
L 4.890625 26.703125 
z
" id="DejaVuSans-34"/>
     </defs>
     <g transform="translate(108.16 97.429375)scale(0.2 -0.2)">
      <use xlink:href="#DejaVuSans-2d"/>
      <use x="36.083984" xlink:href="#DejaVuSans-34"/>
      <use x="99.707031" xlink:href="#DejaVuSans-3a"/>
      <use x="133.398438" xlink:href="#DejaVuSans-20"/>
      <use x="165.185547" xlink:href="#DejaVuSans-32"/>
      <use x="228.808594" xlink:href="#DejaVuSans-2f"/>
      <use x="262.5" xlink:href="#DejaVuSans-32"/>
     </g>
    </g>
    <g id="line2d_55">
     <path d="M 52.16 119.785625 
L 92.16 119.785625 
" style="fill:none;stroke:#ff0000;stroke-linecap:square;stroke-width:3;"/>
    </g>
    <g id="line2d_56"/>
    <g id="text_11">
     <!-- -8: 2/2 -->
     <defs>
      <path d="M 31.78125 34.625 
Q 24.75 34.625 20.71875 30.859375 
Q 16.703125 27.09375 16.703125 20.515625 
Q 16.703125 13.921875 20.71875 10.15625 
Q 24.75 6.390625 31.78125 6.390625 
Q 38.8125 6.390625 42.859375 10.171875 
Q 46.921875 13.96875 46.921875 20.515625 
Q 46.921875 27.09375 42.890625 30.859375 
Q 38.875 34.625 31.78125 34.625 
z
M 21.921875 38.8125 
Q 15.578125 40.375 12.03125 44.71875 
Q 8.5 49.078125 8.5 55.328125 
Q 8.5 64.0625 14.71875 69.140625 
Q 20.953125 74.21875 31.78125 74.21875 
Q 42.671875 74.21875 48.875 69.140625 
Q 55.078125 64.0625 55.078125 55.328125 
Q 55.078125 49.078125 51.53125 44.71875 
Q 48 40.375 41.703125 38.8125 
Q 48.828125 37.15625 52.796875 32.3125 
Q 56.78125 27.484375 56.78125 20.515625 
Q 56.78125 9.90625 50.3125 4.234375 
Q 43.84375 -1.421875 31.78125 -1.421875 
Q 19.734375 -1.421875 13.25 4.234375 
Q 6.78125 9.90625 6.78125 20.515625 
Q 6.78125 27.484375 10.78125 32.3125 
Q 14.796875 37.15625 21.921875 38.8125 
z
M 18.3125 54.390625 
Q 18.3125 48.734375 21.84375 45.5625 
Q 25.390625 42.390625 31.78125 42.390625 
Q 38.140625 42.390625 41.71875 45.5625 
Q 45.3125 48.734375 45.3125 54.390625 
Q 45.3125 60.0625 41.71875 63.234375 
Q 38.140625 66.40625 31.78125 66.40625 
Q 25.390625 66.40625 21.84375 63.234375 
Q 18.3125 60.0625 18.3125 54.390625 
z
" id="DejaVuSans-38"/>
     </defs>
     <g transform="translate(108.16 126.785625)scale(0.2 -0.2)">
      <use xlink:href="#DejaVuSans-2d"/>
      <use x="36.083984" xlink:href="#DejaVuSans-38"/>
      <use x="99.707031" xlink:href="#DejaVuSans-3a"/>
      <use x="133.398438" xlink:href="#DejaVuSans-20"/>
      <use x="165.185547" xlink:href="#DejaVuSans-32"/>
      <use x="228.808594" xlink:href="#DejaVuSans-2f"/>
      <use x="262.5" xlink:href="#DejaVuSans-32"/>
     </g>
    </g>
   </g>
  </g>
 </g>
 <defs>
  <clipPath id="p84316400e3">
   <rect height="285.76" width="416.512" x="34.16" y="5.52"/>
  </clipPath>
 </defs>
</svg>
