<?xml version="1.0" encoding="utf-8" standalone="no"?>
<!DOCTYPE svg PUBLIC "-//W3C//DTD SVG 1.1//EN"
  "http://www.w3.org/Graphics/SVG/1.1/DTD/svg11.dtd">
<!-- Created with matplotlib (http://matplotlib.org/) -->
<svg height="345pt" version="1.1" viewBox="0 0 460 345" width="460pt" xmlns="http://www.w3.org/2000/svg" xmlns:xlink="http://www.w3.org/1999/xlink">
 <defs>
  <style type="text/css">
*{stroke-linecap:butt;stroke-linejoin:round;}
  </style>
 </defs>
 <g id="figure_1">
  <g id="patch_1">
   <path d="M 0 345.6 
L 460.8 345.6 
L 460.8 0 
L 0 0 
z
" style="fill:#ffffff;"/>
  </g>
  <g id="axes_1">
   <g id="patch_2">
    <path d="M 34.16 291.28 
L 450.672 291.28 
L 450.672 5.52 
L 34.16 5.52 
z
" style="fill:#ffffff;"/>
   </g>
   <g id="matplotlib.axis_1">
    <g id="xtick_1">
     <g id="line2d_1">
      <path clip-path="url(#p146712012b)" d="M 56.502718 291.28 
L 56.502718 5.52 
" style="fill:none;stroke:#b0b0b0;stroke-linecap:square;stroke-width:0.8;"/>
     </g>
     <g id="line2d_2">
      <defs>
       <path d="M 0 0 
L 0 3.5 
" id="mc38dfa4388" style="stroke:#000000;stroke-width:0.8;"/>
      </defs>
      <g>
       <use style="stroke:#000000;stroke-width:0.8;" x="56.502718" xlink:href="#mc38dfa4388" y="291.28"/>
      </g>
     </g>
     <g id="text_1">
      <!-- -1 -->
      <defs>
       <path d="M 4.890625 31.390625 
L 31.203125 31.390625 
L 31.203125 23.390625 
L 4.890625 23.390625 
z
" id="DejaVuSans-2d"/>
       <path d="M 12.40625 8.296875 
L 28.515625 8.296875 
L 28.515625 63.921875 
L 10.984375 60.40625 
L 10.984375 69.390625 
L 28.421875 72.90625 
L 38.28125 72.90625 
L 38.28125 8.296875 
L 54.390625 8.296875 
L 54.390625 0 
L 12.40625 0 
z
" id="DejaVuSans-31"/>
      </defs>
      <g transform="translate(46.532405 313.476875)scale(0.2 -0.2)">
       <use xlink:href="#DejaVuSans-2d"/>
       <use x="36.083984" xlink:href="#DejaVuSans-31"/>
      </g>
     </g>
    </g>
    <g id="xtick_2">
     <g id="line2d_3">
      <path clip-path="url(#p146712012b)" d="M 242.416 291.28 
L 242.416 5.52 
" style="fill:none;stroke:#b0b0b0;stroke-linecap:square;stroke-width:0.8;"/>
     </g>
     <g id="line2d_4">
      <g>
       <use style="stroke:#000000;stroke-width:0.8;" x="242.416" xlink:href="#mc38dfa4388" y="291.28"/>
      </g>
     </g>
     <g id="text_2">
      <!-- 0 -->
      <defs>
       <path d="M 31.78125 66.40625 
Q 24.171875 66.40625 20.328125 58.90625 
Q 16.5 51.421875 16.5 36.375 
Q 16.5 21.390625 20.328125 13.890625 
Q 24.171875 6.390625 31.78125 6.390625 
Q 39.453125 6.390625 43.28125 13.890625 
Q 47.125 21.390625 47.125 36.375 
Q 47.125 51.421875 43.28125 58.90625 
Q 39.453125 66.40625 31.78125 66.40625 
z
M 31.78125 74.21875 
Q 44.046875 74.21875 50.515625 64.515625 
Q 56.984375 54.828125 56.984375 36.375 
Q 56.984375 17.96875 50.515625 8.265625 
Q 44.046875 -1.421875 31.78125 -1.421875 
Q 19.53125 -1.421875 13.0625 8.265625 
Q 6.59375 17.96875 6.59375 36.375 
Q 6.59375 54.828125 13.0625 64.515625 
Q 19.53125 74.21875 31.78125 74.21875 
z
" id="DejaVuSans-30"/>
      </defs>
      <g transform="translate(236.0535 313.476875)scale(0.2 -0.2)">
       <use xlink:href="#DejaVuSans-30"/>
      </g>
     </g>
    </g>
    <g id="xtick_3">
     <g id="line2d_5">
      <path clip-path="url(#p146712012b)" d="M 428.329282 291.28 
L 428.329282 5.52 
" style="fill:none;stroke:#b0b0b0;stroke-linecap:square;stroke-width:0.8;"/>
     </g>
     <g id="line2d_6">
      <g>
       <use style="stroke:#000000;stroke-width:0.8;" x="428.329282" xlink:href="#mc38dfa4388" y="291.28"/>
      </g>
     </g>
     <g id="text_3">
      <!-- 1 -->
      <g transform="translate(421.966782 313.476875)scale(0.2 -0.2)">
       <use xlink:href="#DejaVuSans-31"/>
      </g>
     </g>
    </g>
    <g id="xtick_4">
     <g id="line2d_7">
      <defs>
       <path d="M 0 0 
L 0 2 
" id="ma7d2041c37" style="stroke:#000000;stroke-width:0.6;"/>
      </defs>
      <g>
       <use style="stroke:#000000;stroke-width:0.6;" x="38.485859" xlink:href="#ma7d2041c37" y="291.28"/>
      </g>
     </g>
    </g>
    <g id="xtick_5">
     <g id="line2d_8">
      <g>
       <use style="stroke:#000000;stroke-width:0.6;" x="47.995792" xlink:href="#ma7d2041c37" y="291.28"/>
      </g>
     </g>
    </g>
    <g id="xtick_6">
     <g id="line2d_9">
      <g>
       <use style="stroke:#000000;stroke-width:0.6;" x="112.468192" xlink:href="#ma7d2041c37" y="291.28"/>
      </g>
     </g>
    </g>
    <g id="xtick_7">
     <g id="line2d_10">
      <g>
       <use style="stroke:#000000;stroke-width:0.6;" x="145.205896" xlink:href="#ma7d2041c37" y="291.28"/>
      </g>
     </g>
    </g>
    <g id="xtick_8">
     <g id="line2d_11">
      <g>
       <use style="stroke:#000000;stroke-width:0.6;" x="168.433667" xlink:href="#ma7d2041c37" y="291.28"/>
      </g>
     </g>
    </g>
    <g id="xtick_9">
     <g id="line2d_12">
      <g>
       <use style="stroke:#000000;stroke-width:0.6;" x="186.450525" xlink:href="#ma7d2041c37" y="291.28"/>
      </g>
     </g>
    </g>
    <g id="xtick_10">
     <g id="line2d_13">
      <g>
       <use style="stroke:#000000;stroke-width:0.6;" x="201.171371" xlink:href="#ma7d2041c37" y="291.28"/>
      </g>
     </g>
    </g>
    <g id="xtick_11">
     <g id="line2d_14">
      <g>
       <use style="stroke:#000000;stroke-width:0.6;" x="213.617668" xlink:href="#ma7d2041c37" y="291.28"/>
      </g>
     </g>
    </g>
    <g id="xtick_12">
     <g id="line2d_15">
      <g>
       <use style="stroke:#000000;stroke-width:0.6;" x="224.399141" xlink:href="#ma7d2041c37" y="291.28"/>
      </g>
     </g>
    </g>
    <g id="xtick_13">
     <g id="line2d_16">
      <g>
       <use style="stroke:#000000;stroke-width:0.6;" x="233.909075" xlink:href="#ma7d2041c37" y="291.28"/>
      </g>
     </g>
    </g>
    <g id="xtick_14">
     <g id="line2d_17">
      <g>
       <use style="stroke:#000000;stroke-width:0.6;" x="298.381475" xlink:href="#ma7d2041c37" y="291.28"/>
      </g>
     </g>
    </g>
    <g id="xtick_15">
     <g id="line2d_18">
      <g>
       <use style="stroke:#000000;stroke-width:0.6;" x="331.119179" xlink:href="#ma7d2041c37" y="291.28"/>
      </g>
     </g>
    </g>
    <g id="xtick_16">
     <g id="line2d_19">
      <g>
       <use style="stroke:#000000;stroke-width:0.6;" x="354.346949" xlink:href="#ma7d2041c37" y="291.28"/>
      </g>
     </g>
    </g>
    <g id="xtick_17">
     <g id="line2d_20">
      <g>
       <use style="stroke:#000000;stroke-width:0.6;" x="372.363808" xlink:href="#ma7d2041c37" y="291.28"/>
      </g>
     </g>
    </g>
    <g id="xtick_18">
     <g id="line2d_21">
      <g>
       <use style="stroke:#000000;stroke-width:0.6;" x="387.084653" xlink:href="#ma7d2041c37" y="291.28"/>
      </g>
     </g>
    </g>
    <g id="xtick_19">
     <g id="line2d_22">
      <g>
       <use style="stroke:#000000;stroke-width:0.6;" x="399.530951" xlink:href="#ma7d2041c37" y="291.28"/>
      </g>
     </g>
    </g>
    <g id="xtick_20">
     <g id="line2d_23">
      <g>
       <use style="stroke:#000000;stroke-width:0.6;" x="410.312424" xlink:href="#ma7d2041c37" y="291.28"/>
      </g>
     </g>
    </g>
    <g id="xtick_21">
     <g id="line2d_24">
      <g>
       <use style="stroke:#000000;stroke-width:0.6;" x="419.822357" xlink:href="#ma7d2041c37" y="291.28"/>
      </g>
     </g>
    </g>
    <g id="text_4">
     <!-- log10 of FEvals ratio -->
     <defs>
      <path d="M 9.421875 75.984375 
L 18.40625 75.984375 
L 18.40625 0 
L 9.421875 0 
z
" id="DejaVuSans-6c"/>
      <path d="M 30.609375 48.390625 
Q 23.390625 48.390625 19.1875 42.75 
Q 14.984375 37.109375 14.984375 27.296875 
Q 14.984375 17.484375 19.15625 11.84375 
Q 23.34375 6.203125 30.609375 6.203125 
Q 37.796875 6.203125 41.984375 11.859375 
Q 46.1875 17.53125 46.1875 27.296875 
Q 46.1875 37.015625 41.984375 42.703125 
Q 37.796875 48.390625 30.609375 48.390625 
z
M 30.609375 56 
Q 42.328125 56 49.015625 48.375 
Q 55.71875 40.765625 55.71875 27.296875 
Q 55.71875 13.875 49.015625 6.21875 
Q 42.328125 -1.421875 30.609375 -1.421875 
Q 18.84375 -1.421875 12.171875 6.21875 
Q 5.515625 13.875 5.515625 27.296875 
Q 5.515625 40.765625 12.171875 48.375 
Q 18.84375 56 30.609375 56 
z
" id="DejaVuSans-6f"/>
      <path d="M 45.40625 27.984375 
Q 45.40625 37.75 41.375 43.109375 
Q 37.359375 48.484375 30.078125 48.484375 
Q 22.859375 48.484375 18.828125 43.109375 
Q 14.796875 37.75 14.796875 27.984375 
Q 14.796875 18.265625 18.828125 12.890625 
Q 22.859375 7.515625 30.078125 7.515625 
Q 37.359375 7.515625 41.375 12.890625 
Q 45.40625 18.265625 45.40625 27.984375 
z
M 54.390625 6.78125 
Q 54.390625 -7.171875 48.1875 -13.984375 
Q 42 -20.796875 29.203125 -20.796875 
Q 24.46875 -20.796875 20.265625 -20.09375 
Q 16.0625 -19.390625 12.109375 -17.921875 
L 12.109375 -9.1875 
Q 16.0625 -11.328125 19.921875 -12.34375 
Q 23.78125 -13.375 27.78125 -13.375 
Q 36.625 -13.375 41.015625 -8.765625 
Q 45.40625 -4.15625 45.40625 5.171875 
L 45.40625 9.625 
Q 42.625 4.78125 38.28125 2.390625 
Q 33.9375 0 27.875 0 
Q 17.828125 0 11.671875 7.65625 
Q 5.515625 15.328125 5.515625 27.984375 
Q 5.515625 40.671875 11.671875 48.328125 
Q 17.828125 56 27.875 56 
Q 33.9375 56 38.28125 53.609375 
Q 42.625 51.21875 45.40625 46.390625 
L 45.40625 54.6875 
L 54.390625 54.6875 
z
" id="DejaVuSans-67"/>
      <path id="DejaVuSans-20"/>
      <path d="M 37.109375 75.984375 
L 37.109375 68.5 
L 28.515625 68.5 
Q 23.6875 68.5 21.796875 66.546875 
Q 19.921875 64.59375 19.921875 59.515625 
L 19.921875 54.6875 
L 34.71875 54.6875 
L 34.71875 47.703125 
L 19.921875 47.703125 
L 19.921875 0 
L 10.890625 0 
L 10.890625 47.703125 
L 2.296875 47.703125 
L 2.296875 54.6875 
L 10.890625 54.6875 
L 10.890625 58.5 
Q 10.890625 67.625 15.140625 71.796875 
Q 19.390625 75.984375 28.609375 75.984375 
z
" id="DejaVuSans-66"/>
      <path d="M 9.8125 72.90625 
L 51.703125 72.90625 
L 51.703125 64.59375 
L 19.671875 64.59375 
L 19.671875 43.109375 
L 48.578125 43.109375 
L 48.578125 34.8125 
L 19.671875 34.8125 
L 19.671875 0 
L 9.8125 0 
z
" id="DejaVuSans-46"/>
      <path d="M 9.8125 72.90625 
L 55.90625 72.90625 
L 55.90625 64.59375 
L 19.671875 64.59375 
L 19.671875 43.015625 
L 54.390625 43.015625 
L 54.390625 34.71875 
L 19.671875 34.71875 
L 19.671875 8.296875 
L 56.78125 8.296875 
L 56.78125 0 
L 9.8125 0 
z
" id="DejaVuSans-45"/>
      <path d="M 2.984375 54.6875 
L 12.5 54.6875 
L 29.59375 8.796875 
L 46.6875 54.6875 
L 56.203125 54.6875 
L 35.6875 0 
L 23.484375 0 
z
" id="DejaVuSans-76"/>
      <path d="M 34.28125 27.484375 
Q 23.390625 27.484375 19.1875 25 
Q 14.984375 22.515625 14.984375 16.5 
Q 14.984375 11.71875 18.140625 8.90625 
Q 21.296875 6.109375 26.703125 6.109375 
Q 34.1875 6.109375 38.703125 11.40625 
Q 43.21875 16.703125 43.21875 25.484375 
L 43.21875 27.484375 
z
M 52.203125 31.203125 
L 52.203125 0 
L 43.21875 0 
L 43.21875 8.296875 
Q 40.140625 3.328125 35.546875 0.953125 
Q 30.953125 -1.421875 24.3125 -1.421875 
Q 15.921875 -1.421875 10.953125 3.296875 
Q 6 8.015625 6 15.921875 
Q 6 25.140625 12.171875 29.828125 
Q 18.359375 34.515625 30.609375 34.515625 
L 43.21875 34.515625 
L 43.21875 35.40625 
Q 43.21875 41.609375 39.140625 45 
Q 35.0625 48.390625 27.6875 48.390625 
Q 23 48.390625 18.546875 47.265625 
Q 14.109375 46.140625 10.015625 43.890625 
L 10.015625 52.203125 
Q 14.9375 54.109375 19.578125 55.046875 
Q 24.21875 56 28.609375 56 
Q 40.484375 56 46.34375 49.84375 
Q 52.203125 43.703125 52.203125 31.203125 
z
" id="DejaVuSans-61"/>
      <path d="M 44.28125 53.078125 
L 44.28125 44.578125 
Q 40.484375 46.53125 36.375 47.5 
Q 32.28125 48.484375 27.875 48.484375 
Q 21.1875 48.484375 17.84375 46.4375 
Q 14.5 44.390625 14.5 40.28125 
Q 14.5 37.15625 16.890625 35.375 
Q 19.28125 33.59375 26.515625 31.984375 
L 29.59375 31.296875 
Q 39.15625 29.25 43.1875 25.515625 
Q 47.21875 21.78125 47.21875 15.09375 
Q 47.21875 7.46875 41.1875 3.015625 
Q 35.15625 -1.421875 24.609375 -1.421875 
Q 20.21875 -1.421875 15.453125 -0.5625 
Q 10.6875 0.296875 5.421875 2 
L 5.421875 11.28125 
Q 10.40625 8.6875 15.234375 7.390625 
Q 20.0625 6.109375 24.8125 6.109375 
Q 31.15625 6.109375 34.5625 8.28125 
Q 37.984375 10.453125 37.984375 14.40625 
Q 37.984375 18.0625 35.515625 20.015625 
Q 33.0625 21.96875 24.703125 23.78125 
L 21.578125 24.515625 
Q 13.234375 26.265625 9.515625 29.90625 
Q 5.8125 33.546875 5.8125 39.890625 
Q 5.8125 47.609375 11.28125 51.796875 
Q 16.75 56 26.8125 56 
Q 31.78125 56 36.171875 55.265625 
Q 40.578125 54.546875 44.28125 53.078125 
z
" id="DejaVuSans-73"/>
      <path d="M 41.109375 46.296875 
Q 39.59375 47.171875 37.8125 47.578125 
Q 36.03125 48 33.890625 48 
Q 26.265625 48 22.1875 43.046875 
Q 18.109375 38.09375 18.109375 28.8125 
L 18.109375 0 
L 9.078125 0 
L 9.078125 54.6875 
L 18.109375 54.6875 
L 18.109375 46.1875 
Q 20.953125 51.171875 25.484375 53.578125 
Q 30.03125 56 36.53125 56 
Q 37.453125 56 38.578125 55.875 
Q 39.703125 55.765625 41.0625 55.515625 
z
" id="DejaVuSans-72"/>
      <path d="M 18.3125 70.21875 
L 18.3125 54.6875 
L 36.8125 54.6875 
L 36.8125 47.703125 
L 18.3125 47.703125 
L 18.3125 18.015625 
Q 18.3125 11.328125 20.140625 9.421875 
Q 21.96875 7.515625 27.59375 7.515625 
L 36.8125 7.515625 
L 36.8125 0 
L 27.59375 0 
Q 17.1875 0 13.234375 3.875 
Q 9.28125 7.765625 9.28125 18.015625 
L 9.28125 47.703125 
L 2.6875 47.703125 
L 2.6875 54.6875 
L 9.28125 54.6875 
L 9.28125 70.21875 
z
" id="DejaVuSans-74"/>
      <path d="M 9.421875 54.6875 
L 18.40625 54.6875 
L 18.40625 0 
L 9.421875 0 
z
M 9.421875 75.984375 
L 18.40625 75.984375 
L 18.40625 64.59375 
L 9.421875 64.59375 
z
" id="DejaVuSans-69"/>
     </defs>
     <g transform="translate(140.111312 336.833125)scale(0.2 -0.2)">
      <use xlink:href="#DejaVuSans-6c"/>
      <use x="27.783203" xlink:href="#DejaVuSans-6f"/>
      <use x="88.964844" xlink:href="#DejaVuSans-67"/>
      <use x="152.441406" xlink:href="#DejaVuSans-31"/>
      <use x="216.064453" xlink:href="#DejaVuSans-30"/>
      <use x="279.6875" xlink:href="#DejaVuSans-20"/>
      <use x="311.474609" xlink:href="#DejaVuSans-6f"/>
      <use x="372.65625" xlink:href="#DejaVuSans-66"/>
      <use x="407.861328" xlink:href="#DejaVuSans-20"/>
      <use x="439.648438" xlink:href="#DejaVuSans-46"/>
      <use x="497.167969" xlink:href="#DejaVuSans-45"/>
      <use x="560.351562" xlink:href="#DejaVuSans-76"/>
      <use x="619.53125" xlink:href="#DejaVuSans-61"/>
      <use x="680.810547" xlink:href="#DejaVuSans-6c"/>
      <use x="708.59375" xlink:href="#DejaVuSans-73"/>
      <use x="760.693359" xlink:href="#DejaVuSans-20"/>
      <use x="792.480469" xlink:href="#DejaVuSans-72"/>
      <use x="833.59375" xlink:href="#DejaVuSans-61"/>
      <use x="894.873047" xlink:href="#DejaVuSans-74"/>
      <use x="934.082031" xlink:href="#DejaVuSans-69"/>
      <use x="961.865234" xlink:href="#DejaVuSans-6f"/>
     </g>
    </g>
   </g>
   <g id="matplotlib.axis_2">
    <g id="ytick_1">
     <g id="line2d_25">
      <path clip-path="url(#p146712012b)" d="M 34.16 288.478431 
L 450.672 288.478431 
" style="fill:none;stroke:#b0b0b0;stroke-linecap:square;stroke-width:0.8;"/>
     </g>
     <g id="line2d_26">
      <defs>
       <path d="M 0 0 
L -3.5 0 
" id="m6b5fb6736f" style="stroke:#000000;stroke-width:0.8;"/>
      </defs>
      <g>
       <use style="stroke:#000000;stroke-width:0.8;" x="34.16" xlink:href="#m6b5fb6736f" y="288.478431"/>
      </g>
     </g>
    </g>
    <g id="ytick_2">
     <g id="line2d_27">
      <path clip-path="url(#p146712012b)" d="M 34.16 218.439216 
L 450.672 218.439216 
" style="fill:none;stroke:#b0b0b0;stroke-linecap:square;stroke-width:0.8;"/>
     </g>
     <g id="line2d_28">
      <g>
       <use style="stroke:#000000;stroke-width:0.8;" x="34.16" xlink:href="#m6b5fb6736f" y="218.439216"/>
      </g>
     </g>
    </g>
    <g id="ytick_3">
     <g id="line2d_29">
      <path clip-path="url(#p146712012b)" d="M 34.16 148.4 
L 450.672 148.4 
" style="fill:none;stroke:#b0b0b0;stroke-linecap:square;stroke-width:0.8;"/>
     </g>
     <g id="line2d_30">
      <g>
       <use style="stroke:#000000;stroke-width:0.8;" x="34.16" xlink:href="#m6b5fb6736f" y="148.4"/>
      </g>
     </g>
    </g>
    <g id="ytick_4">
     <g id="line2d_31">
      <path clip-path="url(#p146712012b)" d="M 34.16 78.360784 
L 450.672 78.360784 
" style="fill:none;stroke:#b0b0b0;stroke-linecap:square;stroke-width:0.8;"/>
     </g>
     <g id="line2d_32">
      <g>
       <use style="stroke:#000000;stroke-width:0.8;" x="34.16" xlink:href="#m6b5fb6736f" y="78.360784"/>
      </g>
     </g>
    </g>
    <g id="ytick_5">
     <g id="line2d_33">
      <path clip-path="url(#p146712012b)" d="M 34.16 8.321569 
L 450.672 8.321569 
" style="fill:none;stroke:#b0b0b0;stroke-linecap:square;stroke-width:0.8;"/>
     </g>
     <g id="line2d_34">
      <g>
       <use style="stroke:#000000;stroke-width:0.8;" x="34.16" xlink:href="#m6b5fb6736f" y="8.321569"/>
      </g>
     </g>
    </g>
    <g id="text_5">
     <!-- proportion of trials -->
     <defs>
      <path d="M 18.109375 8.203125 
L 18.109375 -20.796875 
L 9.078125 -20.796875 
L 9.078125 54.6875 
L 18.109375 54.6875 
L 18.109375 46.390625 
Q 20.953125 51.265625 25.265625 53.625 
Q 29.59375 56 35.59375 56 
Q 45.5625 56 51.78125 48.09375 
Q 58.015625 40.1875 58.015625 27.296875 
Q 58.015625 14.40625 51.78125 6.484375 
Q 45.5625 -1.421875 35.59375 -1.421875 
Q 29.59375 -1.421875 25.265625 0.953125 
Q 20.953125 3.328125 18.109375 8.203125 
z
M 48.6875 27.296875 
Q 48.6875 37.203125 44.609375 42.84375 
Q 40.53125 48.484375 33.40625 48.484375 
Q 26.265625 48.484375 22.1875 42.84375 
Q 18.109375 37.203125 18.109375 27.296875 
Q 18.109375 17.390625 22.1875 11.75 
Q 26.265625 6.109375 33.40625 6.109375 
Q 40.53125 6.109375 44.609375 11.75 
Q 48.6875 17.390625 48.6875 27.296875 
z
" id="DejaVuSans-70"/>
      <path d="M 54.890625 33.015625 
L 54.890625 0 
L 45.90625 0 
L 45.90625 32.71875 
Q 45.90625 40.484375 42.875 44.328125 
Q 39.84375 48.1875 33.796875 48.1875 
Q 26.515625 48.1875 22.3125 43.546875 
Q 18.109375 38.921875 18.109375 30.90625 
L 18.109375 0 
L 9.078125 0 
L 9.078125 54.6875 
L 18.109375 54.6875 
L 18.109375 46.1875 
Q 21.34375 51.125 25.703125 53.5625 
Q 30.078125 56 35.796875 56 
Q 45.21875 56 50.046875 50.171875 
Q 54.890625 44.34375 54.890625 33.015625 
z
" id="DejaVuSans-6e"/>
     </defs>
     <g transform="translate(19.000625 241.628125)rotate(-90)scale(0.2 -0.2)">
      <use xlink:href="#DejaVuSans-70"/>
      <use x="63.476562" xlink:href="#DejaVuSans-72"/>
      <use x="104.558594" xlink:href="#DejaVuSans-6f"/>
      <use x="165.740234" xlink:href="#DejaVuSans-70"/>
      <use x="229.216797" xlink:href="#DejaVuSans-6f"/>
      <use x="290.398438" xlink:href="#DejaVuSans-72"/>
      <use x="331.511719" xlink:href="#DejaVuSans-74"/>
      <use x="370.720703" xlink:href="#DejaVuSans-69"/>
      <use x="398.503906" xlink:href="#DejaVuSans-6f"/>
      <use x="459.685547" xlink:href="#DejaVuSans-6e"/>
      <use x="523.064453" xlink:href="#DejaVuSans-20"/>
      <use x="554.851562" xlink:href="#DejaVuSans-6f"/>
      <use x="616.033203" xlink:href="#DejaVuSans-66"/>
      <use x="651.238281" xlink:href="#DejaVuSans-20"/>
      <use x="683.025391" xlink:href="#DejaVuSans-74"/>
      <use x="722.234375" xlink:href="#DejaVuSans-72"/>
      <use x="763.347656" xlink:href="#DejaVuSans-69"/>
      <use x="791.130859" xlink:href="#DejaVuSans-61"/>
      <use x="852.410156" xlink:href="#DejaVuSans-6c"/>
      <use x="880.193359" xlink:href="#DejaVuSans-73"/>
     </g>
    </g>
   </g>
   <g id="line2d_35">
    <path clip-path="url(#p146712012b)" d="M 34.16 255.5188 
L 53.092364 255.5188 
L 53.092364 254.859608 
L 84.710018 254.859608 
L 84.710018 254.200415 
L 91.758683 254.200415 
L 91.758683 253.541223 
L 106.940704 253.541223 
L 106.940704 252.88203 
L 111.332386 252.88203 
L 111.332386 252.222837 
L 112.224562 252.222837 
L 112.224562 251.563645 
L 112.556603 251.563645 
L 112.556603 250.904452 
L 123.376337 250.904452 
L 123.376337 250.24526 
L 142.95004 250.24526 
L 142.95004 249.586067 
L 143.842217 249.586067 
L 143.842217 248.926874 
L 144.174257 248.926874 
L 144.174257 248.267682 
L 144.493909 248.267682 
L 144.493909 247.608489 
L 145.044575 247.608489 
L 145.044575 246.949296 
L 145.607024 246.949296 
L 145.607024 246.290104 
L 150.463788 246.290104 
L 150.463788 245.630911 
L 151.014455 245.630911 
L 151.014455 244.971719 
L 165.180727 244.971719 
L 165.180727 244.312526 
L 166.072903 244.312526 
L 166.072903 243.653333 
L 166.404944 243.653333 
L 166.404944 242.994141 
L 182.081443 242.994141 
L 182.081443 242.334948 
L 182.632109 242.334948 
L 182.632109 241.675755 
L 182.951761 241.675755 
L 182.951761 241.016563 
L 183.160229 241.016563 
L 183.160229 240.35737 
L 183.283801 240.35737 
L 183.283801 239.698178 
L 183.710895 239.698178 
L 183.710895 239.038985 
L 184.175977 239.038985 
L 184.175977 238.379792 
L 188.567659 238.379792 
L 188.567659 237.7206 
L 202.733932 237.7206 
L 202.733932 237.061407 
L 203.284598 237.061407 
L 203.284598 236.402215 
L 203.626108 236.402215 
L 203.626108 235.743022 
L 203.749681 235.743022 
L 203.749681 235.083829 
L 203.958148 235.083829 
L 203.958148 234.424637 
L 204.176774 234.424637 
L 204.176774 233.765444 
L 204.312129 233.765444 
L 204.312129 233.106251 
L 204.508815 233.106251 
L 204.508815 232.447059 
L 204.862795 232.447059 
L 204.862795 231.787866 
L 210.798346 231.787866 
L 210.798346 231.128674 
L 220.185314 231.128674 
L 220.185314 230.469481 
L 221.61808 230.469481 
L 221.61808 229.810288 
L 221.950121 229.810288 
L 221.950121 229.151096 
L 222.842297 229.151096 
L 222.842297 228.491903 
L 241.191783 228.491903 
L 241.191783 227.83271 
L 241.523824 227.83271 
L 241.523824 227.173518 
L 241.865334 227.173518 
L 241.865334 226.514325 
L 242.083959 226.514325 
L 242.083959 225.855133 
L 242.416 225.855133 
L 242.416 70.944867 
L 242.748041 70.944867 
L 242.748041 70.285675 
L 242.966666 70.285675 
L 242.966666 69.626482 
L 243.308176 69.626482 
L 243.308176 68.96729 
L 243.640217 68.96729 
L 243.640217 68.308097 
L 261.989703 68.308097 
L 261.989703 67.648904 
L 262.881879 67.648904 
L 262.881879 66.989712 
L 263.21392 66.989712 
L 263.21392 66.330519 
L 264.646686 66.330519 
L 264.646686 65.671326 
L 274.033654 65.671326 
L 274.033654 65.012134 
L 279.969205 65.012134 
L 279.969205 64.352941 
L 280.323185 64.352941 
L 280.323185 63.693749 
L 280.519871 63.693749 
L 280.519871 63.034556 
L 280.655226 63.034556 
L 280.655226 62.375363 
L 280.873852 62.375363 
L 280.873852 61.716171 
L 281.082319 61.716171 
L 281.082319 61.056978 
L 281.205892 61.056978 
L 281.205892 60.397785 
L 281.547402 60.397785 
L 281.547402 59.738593 
L 282.098068 59.738593 
L 282.098068 59.0794 
L 296.264341 59.0794 
L 296.264341 58.420208 
L 300.656023 58.420208 
L 300.656023 57.761015 
L 301.121105 57.761015 
L 301.121105 57.101822 
L 301.548199 57.101822 
L 301.548199 56.44263 
L 301.671771 56.44263 
L 301.671771 55.783437 
L 301.880239 55.783437 
L 301.880239 55.124245 
L 302.199891 55.124245 
L 302.199891 54.465052 
L 302.750557 54.465052 
L 302.750557 53.805859 
L 318.427056 53.805859 
L 318.427056 53.146667 
L 318.759097 53.146667 
L 318.759097 52.487474 
L 319.651273 52.487474 
L 319.651273 51.828281 
L 333.817545 51.828281 
L 333.817545 51.169089 
L 334.368212 51.169089 
L 334.368212 50.509896 
L 339.224976 50.509896 
L 339.224976 49.850704 
L 339.787425 49.850704 
L 339.787425 49.191511 
L 340.338091 49.191511 
L 340.338091 48.532318 
L 340.657743 48.532318 
L 340.657743 47.873126 
L 340.989783 47.873126 
L 340.989783 47.213933 
L 341.88196 47.213933 
L 341.88196 46.55474 
L 361.455663 46.55474 
L 361.455663 45.895548 
L 372.275397 45.895548 
L 372.275397 45.236355 
L 372.607438 45.236355 
L 372.607438 44.577163 
L 373.499614 44.577163 
L 373.499614 43.91797 
L 377.891296 43.91797 
L 377.891296 43.258777 
L 393.073317 43.258777 
L 393.073317 42.599585 
L 400.121982 42.599585 
L 400.121982 41.940392 
L 431.739636 41.940392 
L 431.739636 41.2812 
L 450.672 41.2812 
L 450.672 41.2812 
" style="fill:none;stroke:#000000;stroke-linecap:square;stroke-width:3;"/>
   </g>
   <g id="line2d_36">
    <path clip-path="url(#p146712012b)" style="fill:none;stroke:#000000;stroke-linecap:square;stroke-width:3;"/>
   </g>
   <g id="line2d_37">
    <path clip-path="url(#p146712012b)" d="M 34.16 288.478431 
L 149.927056 288.478431 
L 149.927056 287.23329 
L 154.990854 287.23329 
L 154.990854 285.988148 
L 164.800182 285.988148 
L 164.800182 284.743007 
L 170.337278 284.743007 
L 170.337278 283.497865 
L 170.667227 283.497865 
L 170.667227 282.252723 
L 174.515118 282.252723 
L 174.515118 281.007582 
L 175.401076 281.007582 
L 175.401076 279.76244 
L 176.448531 279.76244 
L 176.448531 278.517298 
L 179.807092 278.517298 
L 179.807092 277.272157 
L 181.512329 277.272157 
L 181.512329 276.027015 
L 182.577614 276.027015 
L 182.577614 274.781874 
L 184.13244 274.781874 
L 184.13244 273.536732 
L 184.87089 273.536732 
L 184.87089 272.29159 
L 185.210404 272.29159 
L 185.210404 271.046449 
L 186.98894 271.046449 
L 186.98894 269.801307 
L 189.196237 269.801307 
L 189.196237 268.556166 
L 189.748201 268.556166 
L 189.748201 267.311024 
L 190.621086 267.311024 
L 190.621086 266.065882 
L 190.881324 266.065882 
L 190.881324 264.820741 
L 191.077449 264.820741 
L 191.077449 263.575599 
L 191.321657 263.575599 
L 191.321657 262.330458 
L 194.680217 262.330458 
L 194.680217 261.085316 
L 194.92534 261.085316 
L 194.92534 259.840174 
L 195.945122 259.840174 
L 195.945122 258.595033 
L 197.188702 258.595033 
L 197.188702 257.349891 
L 199.005565 257.349891 
L 199.005565 256.104749 
L 200.547262 256.104749 
L 200.547262 254.859608 
L 201.036594 254.859608 
L 201.036594 253.614466 
L 201.461732 253.614466 
L 201.461732 252.369325 
L 201.72197 252.369325 
L 201.72197 251.124183 
L 202.594855 251.124183 
L 202.594855 249.879041 
L 202.987836 249.879041 
L 202.987836 248.6339 
L 204.395154 248.6339 
L 204.395154 247.388758 
L 204.87261 247.388758 
L 204.87261 246.143617 
L 205.354117 246.143617 
L 205.354117 244.898475 
L 205.75445 244.898475 
L 205.75445 243.653333 
L 206.785768 243.653333 
L 206.785768 242.408192 
L 207.399162 242.408192 
L 207.399162 241.16305 
L 207.658653 241.16305 
L 207.658653 239.917908 
L 208.210617 239.917908 
L 208.210617 238.672767 
L 208.720502 238.672767 
L 208.720502 237.427625 
L 209.099089 237.427625 
L 209.099089 236.182484 
L 209.765442 236.182484 
L 209.765442 234.937342 
L 210.158423 234.937342 
L 210.158423 233.6922 
L 210.417914 233.6922 
L 210.417914 232.447059 
L 211.031308 232.447059 
L 211.031308 231.201917 
L 211.621494 231.201917 
L 211.621494 229.956776 
L 212.457649 229.956776 
L 212.535964 227.466492 
L 213.510415 227.466492 
L 213.510415 226.221351 
L 214.82924 226.221351 
L 214.82924 224.976209 
L 215.469386 224.976209 
L 215.469386 223.731068 
L 215.894525 223.731068 
L 215.894525 222.485926 
L 216.269676 222.485926 
L 216.269676 221.240784 
L 216.595095 221.240784 
L 216.595095 219.995643 
L 216.782997 219.995643 
L 216.868975 217.505359 
L 217.142562 217.505359 
L 217.142562 216.260218 
L 217.467981 216.260218 
L 217.467981 215.015076 
L 217.827938 215.015076 
L 217.827938 213.769935 
L 219.628237 213.769935 
L 219.628237 212.524793 
L 220.227242 212.524793 
L 220.227242 211.279651 
L 220.501122 211.279651 
L 220.501122 210.03451 
L 221.194323 210.03451 
L 221.194323 208.789368 
L 221.675829 208.789368 
L 221.675829 207.544227 
L 221.871954 207.544227 
L 221.871954 206.299085 
L 222.005778 206.299085 
L 222.005778 205.053943 
L 222.46214 205.053943 
L 222.46214 203.808802 
L 222.891736 203.808802 
L 222.891736 202.56366 
L 223.335026 202.56366 
L 223.335026 201.318519 
L 223.531882 201.318519 
L 223.531882 200.073377 
L 223.953584 200.073377 
L 223.953584 198.828235 
L 224.638568 198.828235 
L 224.638568 197.583094 
L 224.82647 197.583094 
L 224.82647 196.337952 
L 226.094287 196.337952 
L 226.094287 195.09281 
L 226.310032 195.09281 
L 226.310032 193.847669 
L 226.739627 193.847669 
L 226.739627 192.602527 
L 227.182917 192.602527 
L 227.182917 191.357386 
L 227.542874 191.357386 
L 227.542874 190.112244 
L 227.943207 190.112244 
L 227.983207 187.621961 
L 228.620839 187.621961 
L 228.620839 186.376819 
L 229.942179 186.376819 
L 229.942179 185.131678 
L 230.505613 185.131678 
L 230.505613 183.886536 
L 230.702469 183.886536 
L 230.702469 182.641394 
L 231.341768 182.641394 
L 231.341768 181.396253 
L 231.575354 181.396253 
L 231.575354 180.151111 
L 232.606672 180.151111 
L 232.701063 177.660828 
L 232.946186 177.660828 
L 232.946186 176.415686 
L 234.353505 176.415686 
L 234.372527 173.925403 
L 234.732092 173.925403 
L 234.732092 172.680261 
L 235.245413 172.680261 
L 235.245413 171.43512 
L 235.667116 171.43512 
L 235.667116 170.189978 
L 236.304747 170.189978 
L 236.304747 168.944837 
L 236.548955 168.944837 
L 236.548955 167.699695 
L 237.352202 167.699695 
L 237.352202 166.454553 
L 238.004674 166.454553 
L 238.090652 163.96427 
L 238.568108 163.96427 
L 238.568108 162.719129 
L 238.783853 162.719129 
L 238.783853 161.473987 
L 239.05744 161.473987 
L 239.05744 160.228845 
L 239.656739 160.228845 
L 239.656739 158.983704 
L 241.543115 158.983704 
L 241.543115 157.738562 
L 242.416 157.738562 
L 242.416 139.061438 
L 243.288885 139.061438 
L 243.288885 137.816296 
L 245.175261 137.816296 
L 245.175261 136.571155 
L 245.77456 136.571155 
L 245.77456 135.326013 
L 246.048147 135.326013 
L 246.048147 134.080871 
L 246.263892 134.080871 
L 246.263892 132.83573 
L 246.741348 132.83573 
L 246.827326 130.345447 
L 247.479798 130.345447 
L 247.479798 129.100305 
L 248.283045 129.100305 
L 248.283045 127.855163 
L 248.527253 127.855163 
L 248.527253 126.610022 
L 249.164884 126.610022 
L 249.164884 125.36488 
L 249.586587 125.36488 
L 249.586587 124.119739 
L 250.099908 124.119739 
L 250.099908 122.874597 
L 250.459473 122.874597 
L 250.478495 120.384314 
L 251.885814 120.384314 
L 251.885814 119.139172 
L 252.130937 119.139172 
L 252.225328 116.648889 
L 253.256646 116.648889 
L 253.256646 115.403747 
L 253.490232 115.403747 
L 253.490232 114.158606 
L 254.129531 114.158606 
L 254.129531 112.913464 
L 254.326387 112.913464 
L 254.326387 111.668322 
L 254.889821 111.668322 
L 254.889821 110.423181 
L 256.211161 110.423181 
L 256.211161 109.178039 
L 256.848793 109.178039 
L 256.888793 106.687756 
L 257.289126 106.687756 
L 257.289126 105.442614 
L 257.649083 105.442614 
L 257.649083 104.197473 
L 258.092373 104.197473 
L 258.092373 102.952331 
L 258.521968 102.952331 
L 258.521968 101.70719 
L 258.737713 101.70719 
L 258.737713 100.462048 
L 260.00553 100.462048 
L 260.00553 99.216906 
L 260.193432 99.216906 
L 260.193432 97.971765 
L 260.878416 97.971765 
L 260.878416 96.726623 
L 261.300118 96.726623 
L 261.300118 95.481481 
L 261.496974 95.481481 
L 261.496974 94.23634 
L 261.940264 94.23634 
L 261.940264 92.991198 
L 262.36986 92.991198 
L 262.36986 91.746057 
L 262.826222 91.746057 
L 262.826222 90.500915 
L 262.960046 90.500915 
L 262.960046 89.255773 
L 263.156171 89.255773 
L 263.156171 88.010632 
L 263.637677 88.010632 
L 263.637677 86.76549 
L 264.330878 86.76549 
L 264.330878 85.520349 
L 264.604758 85.520349 
L 264.604758 84.275207 
L 265.203763 84.275207 
L 265.203763 83.030065 
L 267.004062 83.030065 
L 267.004062 81.784924 
L 267.364019 81.784924 
L 267.364019 80.539782 
L 267.689438 80.539782 
L 267.689438 79.294641 
L 267.963025 79.294641 
L 268.049003 76.804357 
L 268.236905 76.804357 
L 268.236905 75.559216 
L 268.562324 75.559216 
L 268.562324 74.314074 
L 268.937475 74.314074 
L 268.937475 73.068932 
L 269.362614 73.068932 
L 269.362614 71.823791 
L 270.00276 71.823791 
L 270.00276 70.578649 
L 271.321585 70.578649 
L 271.321585 69.333508 
L 272.296036 69.333508 
L 272.374351 66.843224 
L 273.210506 66.843224 
L 273.210506 65.598083 
L 273.800692 65.598083 
L 273.800692 64.352941 
L 274.414086 64.352941 
L 274.414086 63.1078 
L 274.673577 63.1078 
L 274.673577 61.862658 
L 275.066558 61.862658 
L 275.066558 60.617516 
L 275.732911 60.617516 
L 275.732911 59.372375 
L 276.111498 59.372375 
L 276.111498 58.127233 
L 276.621383 58.127233 
L 276.621383 56.882092 
L 277.173347 56.882092 
L 277.173347 55.63695 
L 277.432838 55.63695 
L 277.432838 54.391808 
L 278.046232 54.391808 
L 278.046232 53.146667 
L 279.07755 53.146667 
L 279.07755 51.901525 
L 279.477883 51.901525 
L 279.477883 50.656383 
L 279.95939 50.656383 
L 279.95939 49.411242 
L 280.436846 49.411242 
L 280.436846 48.1661 
L 281.844164 48.1661 
L 281.844164 46.920959 
L 282.237145 46.920959 
L 282.237145 45.675817 
L 283.11003 45.675817 
L 283.11003 44.430675 
L 283.370268 44.430675 
L 283.370268 43.185534 
L 283.795406 43.185534 
L 283.795406 41.940392 
L 284.284738 41.940392 
L 284.284738 40.695251 
L 285.826435 40.695251 
L 285.826435 39.450109 
L 287.643298 39.450109 
L 287.643298 38.204967 
L 288.886878 38.204967 
L 288.886878 36.959826 
L 289.90666 36.959826 
L 289.90666 35.714684 
L 290.151783 35.714684 
L 290.151783 34.469542 
L 293.510343 34.469542 
L 293.510343 33.224401 
L 293.754551 33.224401 
L 293.754551 31.979259 
L 293.950676 31.979259 
L 293.950676 30.734118 
L 294.210914 30.734118 
L 294.210914 29.488976 
L 295.083799 29.488976 
L 295.083799 28.243834 
L 295.635763 28.243834 
L 295.635763 26.998693 
L 297.84306 26.998693 
L 297.84306 25.753551 
L 299.621596 25.753551 
L 299.621596 24.50841 
L 299.96111 24.50841 
L 299.96111 23.263268 
L 300.69956 23.263268 
L 300.69956 22.018126 
L 302.254386 22.018126 
L 302.254386 20.772985 
L 303.319671 20.772985 
L 303.319671 19.527843 
L 305.024908 19.527843 
L 305.024908 18.282702 
L 308.383469 18.282702 
L 308.383469 17.03756 
L 309.430924 17.03756 
L 309.430924 15.792418 
L 310.316882 15.792418 
L 310.316882 14.547277 
L 314.164773 14.547277 
L 314.164773 13.302135 
L 314.494722 13.302135 
L 314.494722 12.056993 
L 320.031818 12.056993 
L 320.031818 10.811852 
L 329.841146 10.811852 
L 329.841146 9.56671 
L 334.904944 9.56671 
L 334.904944 8.321569 
L 450.672 8.321569 
L 450.672 8.321569 
" style="fill:none;stroke:#00bfbf;stroke-linecap:square;stroke-width:3;"/>
   </g>
   <g id="line2d_38">
    <path clip-path="url(#p146712012b)" style="fill:none;stroke:#00bfbf;stroke-linecap:square;stroke-width:3;"/>
   </g>
   <g id="line2d_39"/>
   <g id="line2d_40"/>
   <g id="line2d_41">
    <path clip-path="url(#p146712012b)" d="M 242.416 291.28 
L 242.416 5.52 
" style="fill:none;stroke:#000000;stroke-linecap:square;stroke-width:1.5;"/>
   </g>
   <g id="line2d_42">
    <path clip-path="url(#p146712012b)" d="M 34.16 148.4 
L 450.672 148.4 
" style="fill:none;stroke:#000000;stroke-dasharray:2,3.3;stroke-dashoffset:0;stroke-width:2;"/>
   </g>
   <g id="patch_3">
    <path d="M 34.16 291.28 
L 34.16 5.52 
" style="fill:none;stroke:#000000;stroke-linecap:square;stroke-linejoin:miter;stroke-width:0.8;"/>
   </g>
   <g id="patch_4">
    <path d="M 450.672 291.28 
L 450.672 5.52 
" style="fill:none;stroke:#000000;stroke-linecap:square;stroke-linejoin:miter;stroke-width:0.8;"/>
   </g>
   <g id="patch_5">
    <path d="M 34.16 291.28 
L 450.672 291.28 
" style="fill:none;stroke:#000000;stroke-linecap:square;stroke-linejoin:miter;stroke-width:0.8;"/>
   </g>
   <g id="patch_6">
    <path d="M 34.16 5.52 
L 450.672 5.52 
" style="fill:none;stroke:#000000;stroke-linecap:square;stroke-linejoin:miter;stroke-width:0.8;"/>
   </g>
   <g id="text_6">
    <!-- f15-f19,20-D -->
    <defs>
     <path d="M 10.796875 72.90625 
L 49.515625 72.90625 
L 49.515625 64.59375 
L 19.828125 64.59375 
L 19.828125 46.734375 
Q 21.96875 47.46875 24.109375 47.828125 
Q 26.265625 48.1875 28.421875 48.1875 
Q 40.625 48.1875 47.75 41.5 
Q 54.890625 34.8125 54.890625 23.390625 
Q 54.890625 11.625 47.5625 5.09375 
Q 40.234375 -1.421875 26.90625 -1.421875 
Q 22.3125 -1.421875 17.546875 -0.640625 
Q 12.796875 0.140625 7.71875 1.703125 
L 7.71875 11.625 
Q 12.109375 9.234375 16.796875 8.0625 
Q 21.484375 6.890625 26.703125 6.890625 
Q 35.15625 6.890625 40.078125 11.328125 
Q 45.015625 15.765625 45.015625 23.390625 
Q 45.015625 31 40.078125 35.4375 
Q 35.15625 39.890625 26.703125 39.890625 
Q 22.75 39.890625 18.8125 39.015625 
Q 14.890625 38.140625 10.796875 36.28125 
z
" id="DejaVuSans-35"/>
     <path d="M 10.984375 1.515625 
L 10.984375 10.5 
Q 14.703125 8.734375 18.5 7.8125 
Q 22.3125 6.890625 25.984375 6.890625 
Q 35.75 6.890625 40.890625 13.453125 
Q 46.046875 20.015625 46.78125 33.40625 
Q 43.953125 29.203125 39.59375 26.953125 
Q 35.25 24.703125 29.984375 24.703125 
Q 19.046875 24.703125 12.671875 31.3125 
Q 6.296875 37.9375 6.296875 49.421875 
Q 6.296875 60.640625 12.9375 67.421875 
Q 19.578125 74.21875 30.609375 74.21875 
Q 43.265625 74.21875 49.921875 64.515625 
Q 56.59375 54.828125 56.59375 36.375 
Q 56.59375 19.140625 48.40625 8.859375 
Q 40.234375 -1.421875 26.421875 -1.421875 
Q 22.703125 -1.421875 18.890625 -0.6875 
Q 15.09375 0.046875 10.984375 1.515625 
z
M 30.609375 32.421875 
Q 37.25 32.421875 41.125 36.953125 
Q 45.015625 41.5 45.015625 49.421875 
Q 45.015625 57.28125 41.125 61.84375 
Q 37.25 66.40625 30.609375 66.40625 
Q 23.96875 66.40625 20.09375 61.84375 
Q 16.21875 57.28125 16.21875 49.421875 
Q 16.21875 41.5 20.09375 36.953125 
Q 23.96875 32.421875 30.609375 32.421875 
z
" id="DejaVuSans-39"/>
     <path d="M 11.71875 12.40625 
L 22.015625 12.40625 
L 22.015625 4 
L 14.015625 -11.625 
L 7.71875 -11.625 
L 11.71875 4 
z
" id="DejaVuSans-2c"/>
     <path d="M 19.1875 8.296875 
L 53.609375 8.296875 
L 53.609375 0 
L 7.328125 0 
L 7.328125 8.296875 
Q 12.9375 14.109375 22.625 23.890625 
Q 32.328125 33.6875 34.8125 36.53125 
Q 39.546875 41.84375 41.421875 45.53125 
Q 43.3125 49.21875 43.3125 52.78125 
Q 43.3125 58.59375 39.234375 62.25 
Q 35.15625 65.921875 28.609375 65.921875 
Q 23.96875 65.921875 18.8125 64.3125 
Q 13.671875 62.703125 7.8125 59.421875 
L 7.8125 69.390625 
Q 13.765625 71.78125 18.9375 73 
Q 24.125 74.21875 28.421875 74.21875 
Q 39.75 74.21875 46.484375 68.546875 
Q 53.21875 62.890625 53.21875 53.421875 
Q 53.21875 48.921875 51.53125 44.890625 
Q 49.859375 40.875 45.40625 35.40625 
Q 44.1875 33.984375 37.640625 27.21875 
Q 31.109375 20.453125 19.1875 8.296875 
z
" id="DejaVuSans-32"/>
     <path d="M 19.671875 64.796875 
L 19.671875 8.109375 
L 31.59375 8.109375 
Q 46.6875 8.109375 53.6875 14.9375 
Q 60.6875 21.78125 60.6875 36.53125 
Q 60.6875 51.171875 53.6875 57.984375 
Q 46.6875 64.796875 31.59375 64.796875 
z
M 9.8125 72.90625 
L 30.078125 72.90625 
Q 51.265625 72.90625 61.171875 64.09375 
Q 71.09375 55.28125 71.09375 36.53125 
Q 71.09375 17.671875 61.125 8.828125 
Q 51.171875 0 30.078125 0 
L 9.8125 0 
z
" id="DejaVuSans-44"/>
    </defs>
    <g transform="translate(315.72301 285.5648)scale(0.2 -0.2)">
     <use xlink:href="#DejaVuSans-66"/>
     <use x="35.205078" xlink:href="#DejaVuSans-31"/>
     <use x="98.828125" xlink:href="#DejaVuSans-35"/>
     <use x="162.451172" xlink:href="#DejaVuSans-2d"/>
     <use x="198.535156" xlink:href="#DejaVuSans-66"/>
     <use x="233.740234" xlink:href="#DejaVuSans-31"/>
     <use x="297.363281" xlink:href="#DejaVuSans-39"/>
     <use x="360.986328" xlink:href="#DejaVuSans-2c"/>
     <use x="392.773438" xlink:href="#DejaVuSans-32"/>
     <use x="456.396484" xlink:href="#DejaVuSans-30"/>
     <use x="520.019531" xlink:href="#DejaVuSans-2d"/>
     <use x="556.103516" xlink:href="#DejaVuSans-44"/>
    </g>
   </g>
   <g id="text_7">
    <!-- v0.0.0 -->
    <defs>
     <path d="M 10.6875 12.40625 
L 21 12.40625 
L 21 0 
L 10.6875 0 
z
" id="DejaVuSans-2e"/>
    </defs>
    <g style="fill:#808080;" transform="translate(226.73475 286.342713)scale(0.1 -0.1)">
     <use xlink:href="#DejaVuSans-76"/>
     <use x="59.179688" xlink:href="#DejaVuSans-30"/>
     <use x="122.802734" xlink:href="#DejaVuSans-2e"/>
     <use x="154.589844" xlink:href="#DejaVuSans-30"/>
     <use x="218.212891" xlink:href="#DejaVuSans-2e"/>
     <use x="250" xlink:href="#DejaVuSans-30"/>
    </g>
   </g>
   <g id="legend_1">
    <g id="patch_7">
     <path d="M 48.16 138.945 
L 177.381875 138.945 
Q 181.381875 138.945 181.381875 134.945 
L 181.381875 19.52 
Q 181.381875 15.52 177.381875 15.52 
L 48.16 15.52 
Q 44.16 15.52 44.16 19.52 
L 44.16 134.945 
Q 44.16 138.945 48.16 138.945 
z
" style="fill:#ffffff;opacity:0.2;stroke:#cccccc;stroke-linejoin:miter;"/>
    </g>
    <g id="line2d_43">
     <path d="M 52.16 31.716875 
L 92.16 31.716875 
" style="fill:none;stroke:#000000;stroke-linecap:square;stroke-width:3;"/>
    </g>
    <g id="line2d_44"/>
    <g id="text_8">
     <!-- 1: 2/2 -->
     <defs>
      <path d="M 11.71875 12.40625 
L 22.015625 12.40625 
L 22.015625 0 
L 11.71875 0 
z
M 11.71875 51.703125 
L 22.015625 51.703125 
L 22.015625 39.3125 
L 11.71875 39.3125 
z
" id="DejaVuSans-3a"/>
      <path d="M 25.390625 72.90625 
L 33.6875 72.90625 
L 8.296875 -9.28125 
L 0 -9.28125 
z
" id="DejaVuSans-2f"/>
     </defs>
     <g transform="translate(108.16 38.716875)scale(0.2 -0.2)">
      <use xlink:href="#DejaVuSans-31"/>
      <use x="63.623047" xlink:href="#DejaVuSans-3a"/>
      <use x="97.314453" xlink:href="#DejaVuSans-20"/>
      <use x="129.101562" xlink:href="#DejaVuSans-32"/>
      <use x="192.724609" xlink:href="#DejaVuSans-2f"/>
      <use x="226.416016" xlink:href="#DejaVuSans-32"/>
     </g>
    </g>
    <g id="line2d_45">
     <path d="M 52.16 61.073125 
L 92.16 61.073125 
" style="fill:none;stroke:#00bfbf;stroke-linecap:square;stroke-width:3;"/>
    </g>
    <g id="line2d_46"/>
    <g id="text_9">
     <!-- -1: 1/1 -->
     <g transform="translate(108.16 68.073125)scale(0.2 -0.2)">
      <use xlink:href="#DejaVuSans-2d"/>
      <use x="36.083984" xlink:href="#DejaVuSans-31"/>
      <use x="99.707031" xlink:href="#DejaVuSans-3a"/>
      <use x="133.398438" xlink:href="#DejaVuSans-20"/>
      <use x="165.185547" xlink:href="#DejaVuSans-31"/>
      <use x="228.808594" xlink:href="#DejaVuSans-2f"/>
      <use x="262.5" xlink:href="#DejaVuSans-31"/>
     </g>
    </g>
    <g id="line2d_47">
     <path d="M 52.16 90.429375 
L 92.16 90.429375 
" style="fill:none;stroke:#bf00bf;stroke-linecap:square;stroke-width:3;"/>
    </g>
    <g id="line2d_48"/>
    <g id="text_10">
     <!-- -4: 0/0 -->
     <defs>
      <path d="M 37.796875 64.3125 
L 12.890625 25.390625 
L 37.796875 25.390625 
z
M 35.203125 72.90625 
L 47.609375 72.90625 
L 47.609375 25.390625 
L 58.015625 25.390625 
L 58.015625 17.1875 
L 47.609375 17.1875 
L 47.609375 0 
L 37.796875 0 
L 37.796875 17.1875 
L 4.890625 17.1875 
L 4.890625 26.703125 
z
" id="DejaVuSans-34"/>
     </defs>
     <g transform="translate(108.16 97.429375)scale(0.2 -0.2)">
      <use xlink:href="#DejaVuSans-2d"/>
      <use x="36.083984" xlink:href="#DejaVuSans-34"/>
      <use x="99.707031" xlink:href="#DejaVuSans-3a"/>
      <use x="133.398438" xlink:href="#DejaVuSans-20"/>
      <use x="165.185547" xlink:href="#DejaVuSans-30"/>
      <use x="228.808594" xlink:href="#DejaVuSans-2f"/>
      <use x="262.5" xlink:href="#DejaVuSans-30"/>
     </g>
    </g>
    <g id="line2d_49">
     <path d="M 52.16 119.785625 
L 92.16 119.785625 
" style="fill:none;stroke:#ff0000;stroke-linecap:square;stroke-width:3;"/>
    </g>
    <g id="line2d_50"/>
    <g id="text_11">
     <!-- -8: 0/0 -->
     <defs>
      <path d="M 31.78125 34.625 
Q 24.75 34.625 20.71875 30.859375 
Q 16.703125 27.09375 16.703125 20.515625 
Q 16.703125 13.921875 20.71875 10.15625 
Q 24.75 6.390625 31.78125 6.390625 
Q 38.8125 6.390625 42.859375 10.171875 
Q 46.921875 13.96875 46.921875 20.515625 
Q 46.921875 27.09375 42.890625 30.859375 
Q 38.875 34.625 31.78125 34.625 
z
M 21.921875 38.8125 
Q 15.578125 40.375 12.03125 44.71875 
Q 8.5 49.078125 8.5 55.328125 
Q 8.5 64.0625 14.71875 69.140625 
Q 20.953125 74.21875 31.78125 74.21875 
Q 42.671875 74.21875 48.875 69.140625 
Q 55.078125 64.0625 55.078125 55.328125 
Q 55.078125 49.078125 51.53125 44.71875 
Q 48 40.375 41.703125 38.8125 
Q 48.828125 37.15625 52.796875 32.3125 
Q 56.78125 27.484375 56.78125 20.515625 
Q 56.78125 9.90625 50.3125 4.234375 
Q 43.84375 -1.421875 31.78125 -1.421875 
Q 19.734375 -1.421875 13.25 4.234375 
Q 6.78125 9.90625 6.78125 20.515625 
Q 6.78125 27.484375 10.78125 32.3125 
Q 14.796875 37.15625 21.921875 38.8125 
z
M 18.3125 54.390625 
Q 18.3125 48.734375 21.84375 45.5625 
Q 25.390625 42.390625 31.78125 42.390625 
Q 38.140625 42.390625 41.71875 45.5625 
Q 45.3125 48.734375 45.3125 54.390625 
Q 45.3125 60.0625 41.71875 63.234375 
Q 38.140625 66.40625 31.78125 66.40625 
Q 25.390625 66.40625 21.84375 63.234375 
Q 18.3125 60.0625 18.3125 54.390625 
z
" id="DejaVuSans-38"/>
     </defs>
     <g transform="translate(108.16 126.785625)scale(0.2 -0.2)">
      <use xlink:href="#DejaVuSans-2d"/>
      <use x="36.083984" xlink:href="#DejaVuSans-38"/>
      <use x="99.707031" xlink:href="#DejaVuSans-3a"/>
      <use x="133.398438" xlink:href="#DejaVuSans-20"/>
      <use x="165.185547" xlink:href="#DejaVuSans-30"/>
      <use x="228.808594" xlink:href="#DejaVuSans-2f"/>
      <use x="262.5" xlink:href="#DejaVuSans-30"/>
     </g>
    </g>
   </g>
  </g>
 </g>
 <defs>
  <clipPath id="p146712012b">
   <rect height="285.76" width="416.512" x="34.16" y="5.52"/>
  </clipPath>
 </defs>
</svg>
