<?xml version="1.0" encoding="utf-8" standalone="no"?>
<!DOCTYPE svg PUBLIC "-//W3C//DTD SVG 1.1//EN"
  "http://www.w3.org/Graphics/SVG/1.1/DTD/svg11.dtd">
<!-- Created with matplotlib (http://matplotlib.org/) -->
<svg height="345pt" version="1.1" viewBox="0 0 460 345" width="460pt" xmlns="http://www.w3.org/2000/svg" xmlns:xlink="http://www.w3.org/1999/xlink">
 <defs>
  <style type="text/css">
*{stroke-linecap:butt;stroke-linejoin:round;}
  </style>
 </defs>
 <g id="figure_1">
  <g id="patch_1">
   <path d="M 0 345.6 
L 460.8 345.6 
L 460.8 0 
L 0 0 
z
" style="fill:#ffffff;"/>
  </g>
  <g id="axes_1">
   <g id="patch_2">
    <path d="M 59.72 291.28 
L 450.672 291.28 
L 450.672 6.845228 
L 59.72 6.845228 
z
" style="fill:#ffffff;"/>
   </g>
   <g id="line2d_1">
    <path clip-path="url(#p593b4f5a37)" d="M 367.60552 291.28 
L 367.60552 287.525086 
L 374.142242 287.525086 
L 374.142242 283.770171 
L 376.192652 283.770171 
L 376.192652 280.015257 
L 378.636759 280.015257 
L 378.636759 276.260342 
L 378.93638 276.260342 
L 378.93638 272.505428 
L 379.531815 272.505428 
L 379.531815 268.750513 
L 387.642474 268.750513 
L 387.642474 264.995599 
L 391.246392 264.995599 
L 391.246392 261.240684 
L 396.093899 261.240684 
L 396.093899 257.48577 
L 403.215026 257.48577 
L 403.215026 253.730855 
L 405.197279 253.730855 
L 405.197279 249.975941 
L 417.179544 249.975941 
L 417.179544 246.221026 
L 430.923113 246.221026 
L 430.923113 242.466112 
L 440.572144 242.466112 
L 440.572144 238.711197 
L 441.987875 238.711197 
L 441.987875 234.956283 
L 443.315872 234.956283 
L 443.315872 231.201368 
L 444.677906 231.201368 
L 444.677906 227.446454 
L 445.20377 227.446454 
L 445.20377 223.691539 
L 450.310808 223.691539 
L 450.310808 219.936625 
L 451.969119 219.936625 
L 451.969119 216.18171 
L 461.8 216.18171 
" style="fill:none;stroke:#f5deb3;stroke-linecap:square;stroke-width:1.5;"/>
   </g>
   <g id="line2d_2">
    <path clip-path="url(#p593b4f5a37)" style="fill:none;stroke:#f5deb3;stroke-linecap:square;stroke-width:1.5;"/>
   </g>
   <g id="line2d_3">
    <path clip-path="url(#p593b4f5a37)" d="M 298.221513 291.28 
L 298.221513 287.525086 
L 306.654073 287.525086 
L 306.654073 283.770171 
L 373.012879 283.770171 
L 373.012879 280.015257 
L 375.724763 280.015257 
L 375.724763 276.260342 
L 379.827651 276.260342 
L 379.827651 272.505428 
L 391.746472 272.505428 
L 391.746472 268.750513 
L 398.962093 268.750513 
L 398.962093 264.995599 
L 405.197279 264.995599 
L 405.197279 261.240684 
L 410.448252 261.240684 
L 410.448252 257.48577 
L 411.302211 257.48577 
L 411.302211 253.730855 
L 419.231106 253.730855 
L 419.231106 249.975941 
L 423.162816 249.975941 
L 423.162816 246.221026 
L 434.740698 246.221026 
L 434.740698 242.466112 
L 438.104372 242.466112 
L 438.104372 238.711197 
L 450.418985 238.711197 
L 450.418985 234.956283 
L 461.8 234.956283 
" style="fill:none;stroke:#f5deb3;stroke-linecap:square;stroke-width:1.5;"/>
   </g>
   <g id="line2d_4">
    <path clip-path="url(#p593b4f5a37)" d="M 352.582862 291.28 
L 352.582862 287.525086 
L 389.080424 287.525086 
L 389.080424 283.770171 
L 389.209699 283.770171 
L 389.209699 280.015257 
L 394.194838 280.015257 
L 394.194838 276.260342 
L 449.76741 276.260342 
L 449.76741 272.505428 
L 451.810337 272.505428 
L 451.810337 268.750513 
L 459.387711 268.750513 
L 459.387711 264.995599 
L 459.861809 264.995599 
L 459.861809 261.240684 
L 461.8 261.240684 
" style="fill:none;stroke:#f5deb3;stroke-linecap:square;stroke-width:1.5;"/>
   </g>
   <g id="line2d_5">
    <path clip-path="url(#p593b4f5a37)" d="M 370.022598 291.28 
L 370.022598 287.525086 
L 386.577894 287.525086 
L 386.577894 283.770171 
L 449.821939 283.770171 
L 449.821939 280.015257 
L 461.8 280.015257 
" style="fill:none;stroke:#f5deb3;stroke-linecap:square;stroke-width:1.5;"/>
   </g>
   <g id="line2d_6"/>
   <g id="line2d_7">
    <path clip-path="url(#p593b4f5a37)" d="M 395.150785 291.28 
L 395.150785 287.525086 
L 407.424759 287.525086 
L 407.424759 283.770171 
L 411.018709 283.770171 
L 411.018709 280.015257 
L 418.468773 280.015257 
L 418.468773 276.260342 
L 433.993595 276.260342 
L 433.993595 272.505428 
L 461.8 272.505428 
" style="fill:none;stroke:#f5deb3;stroke-linecap:square;stroke-width:1.5;"/>
   </g>
   <g id="line2d_8">
    <path clip-path="url(#p593b4f5a37)" style="fill:none;stroke:#f5deb3;stroke-linecap:square;stroke-width:1.5;"/>
   </g>
   <g id="line2d_9">
    <path clip-path="url(#p593b4f5a37)" d="M 378.486468 291.28 
L 378.486468 287.525086 
L 386.979004 287.525086 
L 386.979004 283.770171 
L 409.680364 283.770171 
L 409.680364 280.015257 
L 411.490578 280.015257 
L 411.490578 276.260342 
L 461.8 276.260342 
" style="fill:none;stroke:#f5deb3;stroke-linecap:square;stroke-width:1.5;"/>
   </g>
   <g id="line2d_10">
    <path clip-path="url(#p593b4f5a37)" style="fill:none;stroke:#f5deb3;stroke-linecap:square;stroke-width:1.5;"/>
   </g>
   <g id="line2d_11">
    <path clip-path="url(#p593b4f5a37)" style="fill:none;stroke:#f5deb3;stroke-linecap:square;stroke-width:1.5;"/>
   </g>
   <g id="line2d_12">
    <path clip-path="url(#p593b4f5a37)" d="M 384.81279 291.28 
L 384.81279 287.525086 
L 391.120814 287.525086 
L 391.120814 283.770171 
L 394.074425 283.770171 
L 394.074425 280.015257 
L 419.818365 280.015257 
L 419.818365 276.260342 
L 420.317853 276.260342 
L 420.317853 272.505428 
L 447.268731 272.505428 
L 447.268731 268.750513 
L 450.903731 268.750513 
L 450.903731 264.995599 
L 453.434032 264.995599 
L 453.434032 261.240684 
L 454.970412 261.240684 
L 454.970412 257.48577 
L 461.8 257.48577 
" style="fill:none;stroke:#f5deb3;stroke-linecap:square;stroke-width:1.5;"/>
   </g>
   <g id="line2d_13">
    <path clip-path="url(#p593b4f5a37)" style="fill:none;stroke:#f5deb3;stroke-linecap:square;stroke-width:1.5;"/>
   </g>
   <g id="line2d_14">
    <path clip-path="url(#p593b4f5a37)" d="M 320.981145 291.28 
L 320.981145 287.525086 
L 340.766332 287.525086 
L 340.766332 283.770171 
L 445.898855 283.770171 
L 445.898855 280.015257 
L 461.8 280.015257 
" style="fill:none;stroke:#f5deb3;stroke-linecap:square;stroke-width:1.5;"/>
   </g>
   <g id="line2d_15">
    <path clip-path="url(#p593b4f5a37)" style="fill:none;stroke:#f5deb3;stroke-linecap:square;stroke-width:1.5;"/>
   </g>
   <g id="line2d_16">
    <path clip-path="url(#p593b4f5a37)" style="fill:none;stroke:#f5deb3;stroke-linecap:square;stroke-width:1.5;"/>
   </g>
   <g id="line2d_17">
    <path clip-path="url(#p593b4f5a37)" style="fill:none;stroke:#f5deb3;stroke-linecap:square;stroke-width:1.5;"/>
   </g>
   <g id="line2d_18">
    <path clip-path="url(#p593b4f5a37)" d="M 338.941269 291.28 
L 338.941269 287.525086 
L 372.19493 287.525086 
L 372.19493 283.770171 
L 386.039493 283.770171 
L 386.039493 280.015257 
L 388.950911 280.015257 
L 388.950911 276.260342 
L 389.596103 276.260342 
L 389.596103 272.505428 
L 411.018709 272.505428 
L 411.018709 268.750513 
L 424.190851 268.750513 
L 424.190851 264.995599 
L 426.734862 264.995599 
L 426.734862 261.240684 
L 431.84435 261.240684 
L 431.84435 257.48577 
L 439.000244 257.48577 
L 439.000244 253.730855 
L 454.206422 253.730855 
L 454.206422 249.975941 
L 455.776282 249.975941 
L 455.776282 246.221026 
L 458.766563 246.221026 
L 458.766563 242.466112 
L 459.814543 242.466112 
L 459.814543 238.711197 
L 461.8 238.711197 
" style="fill:none;stroke:#f5deb3;stroke-linecap:square;stroke-width:1.5;"/>
   </g>
   <g id="line2d_19">
    <path clip-path="url(#p593b4f5a37)" d="M 0 0 
" style="fill:none;stroke:#f5deb3;stroke-linecap:square;stroke-width:1.5;"/>
   </g>
   <g id="line2d_20">
    <path clip-path="url(#p593b4f5a37)" d="M 330.533523 291.28 
L 330.533523 287.525086 
L 330.533523 287.525086 
L 330.533523 283.770171 
L 337.876688 283.770171 
L 337.876688 280.015257 
L 341.788328 280.015257 
L 341.788328 276.260342 
L 364.92006 276.260342 
L 364.92006 272.505428 
L 397.024522 272.505428 
L 397.024522 268.750513 
L 405.094332 268.750513 
L 405.094332 264.995599 
L 417.43929 264.995599 
L 417.43929 261.240684 
L 432.614532 261.240684 
L 432.614532 257.48577 
L 449.930871 257.48577 
L 449.930871 253.730855 
L 452.28561 253.730855 
L 452.28561 249.975941 
L 455.926359 249.975941 
L 455.926359 246.221026 
L 458.766563 246.221026 
L 458.766563 242.466112 
L 461.8 242.466112 
" style="fill:none;stroke:#f5deb3;stroke-linecap:square;stroke-width:1.5;"/>
   </g>
   <g id="line2d_21">
    <path clip-path="url(#p593b4f5a37)" style="fill:none;stroke:#f5deb3;stroke-linecap:square;stroke-width:1.5;"/>
   </g>
   <g id="line2d_22">
    <path clip-path="url(#p593b4f5a37)" d="M 304.531223 291.28 
L 304.531223 287.525086 
L 315.300397 287.525086 
L 315.300397 283.770171 
L 329.332451 283.770171 
L 329.332451 280.015257 
L 331.126446 280.015257 
L 331.126446 276.260342 
L 341.788328 276.260342 
L 341.788328 272.505428 
L 347.626507 272.505428 
L 347.626507 268.750513 
L 435.94635 268.750513 
L 435.94635 264.995599 
L 461.8 264.995599 
" style="fill:none;stroke:#f5deb3;stroke-linecap:square;stroke-width:1.5;"/>
   </g>
   <g id="line2d_23">
    <path clip-path="url(#p593b4f5a37)" style="fill:none;stroke:#f5deb3;stroke-linecap:square;stroke-width:1.5;"/>
   </g>
   <g id="line2d_24">
    <path clip-path="url(#p593b4f5a37)" d="M 439.254123 291.28 
L 439.254123 287.525086 
L 441.621295 287.525086 
L 441.621295 283.770171 
L 452.809948 283.770171 
L 452.809948 280.015257 
L 454.716671 280.015257 
L 454.716671 276.260342 
L 461.8 276.260342 
" style="fill:none;stroke:#f5deb3;stroke-linecap:square;stroke-width:1.5;"/>
   </g>
   <g id="line2d_25">
    <path clip-path="url(#p593b4f5a37)" style="fill:none;stroke:#f5deb3;stroke-linecap:square;stroke-width:1.5;"/>
   </g>
   <g id="line2d_26">
    <path clip-path="url(#p593b4f5a37)" style="fill:none;stroke:#f5deb3;stroke-linecap:square;stroke-width:1.5;"/>
   </g>
   <g id="line2d_27">
    <path clip-path="url(#p593b4f5a37)" style="fill:none;stroke:#f5deb3;stroke-linecap:square;stroke-width:1.5;"/>
   </g>
   <g id="line2d_28">
    <path clip-path="url(#p593b4f5a37)" d="M 398.736897 291.28 
L 398.736897 287.525086 
L 399.855726 287.525086 
L 399.855726 283.770171 
L 414.527872 283.770171 
L 414.527872 280.015257 
L 431.278866 280.015257 
L 431.278866 276.260342 
L 461.8 276.260342 
" style="fill:none;stroke:#f5deb3;stroke-linecap:square;stroke-width:1.5;"/>
   </g>
   <g id="line2d_29">
    <path clip-path="url(#p593b4f5a37)" d="M 391.621785 291.28 
L 391.621785 287.525086 
L 391.621785 287.525086 
L 391.621785 283.770171 
L 391.621785 283.770171 
L 391.621785 280.015257 
L 440.882347 280.015257 
L 440.882347 276.260342 
L 440.882347 276.260342 
L 440.882347 272.505428 
L 440.882347 272.505428 
L 440.882347 268.750513 
L 451.225047 268.750513 
L 451.225047 264.995599 
L 451.225047 264.995599 
L 451.225047 261.240684 
L 451.225047 261.240684 
L 451.225047 257.48577 
L 461.8 257.48577 
" style="fill:none;stroke:#f5deb3;stroke-linecap:square;stroke-width:1.5;"/>
   </g>
   <g id="line2d_30">
    <path clip-path="url(#p593b4f5a37)" style="fill:none;stroke:#f5deb3;stroke-linecap:square;stroke-width:1.5;"/>
   </g>
   <g id="matplotlib.axis_1">
    <g id="xtick_1">
     <g id="line2d_31">
      <path clip-path="url(#p593b4f5a37)" d="M 59.72 291.28 
L 59.72 6.845228 
" style="fill:none;stroke:#b0b0b0;stroke-linecap:square;stroke-width:0.8;"/>
     </g>
     <g id="line2d_32">
      <defs>
       <path d="M 0 0 
L 0 3.5 
" id="maa9743b713" style="stroke:#000000;stroke-width:0.8;"/>
      </defs>
      <g>
       <use style="stroke:#000000;stroke-width:0.8;" x="59.72" xlink:href="#maa9743b713" y="291.28"/>
      </g>
     </g>
     <g id="text_1">
      <!-- 0 -->
      <defs>
       <path d="M 31.78125 66.40625 
Q 24.171875 66.40625 20.328125 58.90625 
Q 16.5 51.421875 16.5 36.375 
Q 16.5 21.390625 20.328125 13.890625 
Q 24.171875 6.390625 31.78125 6.390625 
Q 39.453125 6.390625 43.28125 13.890625 
Q 47.125 21.390625 47.125 36.375 
Q 47.125 51.421875 43.28125 58.90625 
Q 39.453125 66.40625 31.78125 66.40625 
z
M 31.78125 74.21875 
Q 44.046875 74.21875 50.515625 64.515625 
Q 56.984375 54.828125 56.984375 36.375 
Q 56.984375 17.96875 50.515625 8.265625 
Q 44.046875 -1.421875 31.78125 -1.421875 
Q 19.53125 -1.421875 13.0625 8.265625 
Q 6.59375 17.96875 6.59375 36.375 
Q 6.59375 54.828125 13.0625 64.515625 
Q 19.53125 74.21875 31.78125 74.21875 
z
" id="DejaVuSans-30"/>
      </defs>
      <g transform="translate(53.3575 313.476875)scale(0.2 -0.2)">
       <use xlink:href="#DejaVuSans-30"/>
      </g>
     </g>
    </g>
    <g id="xtick_2">
     <g id="line2d_33">
      <path clip-path="url(#p593b4f5a37)" d="M 383.283807 291.28 
L 383.283807 6.845228 
" style="fill:none;stroke:#b0b0b0;stroke-linecap:square;stroke-width:0.8;"/>
     </g>
     <g id="line2d_34">
      <g>
       <use style="stroke:#000000;stroke-width:0.8;" x="383.283807" xlink:href="#maa9743b713" y="291.28"/>
      </g>
     </g>
     <g id="text_2">
      <!-- 2 -->
      <defs>
       <path d="M 19.1875 8.296875 
L 53.609375 8.296875 
L 53.609375 0 
L 7.328125 0 
L 7.328125 8.296875 
Q 12.9375 14.109375 22.625 23.890625 
Q 32.328125 33.6875 34.8125 36.53125 
Q 39.546875 41.84375 41.421875 45.53125 
Q 43.3125 49.21875 43.3125 52.78125 
Q 43.3125 58.59375 39.234375 62.25 
Q 35.15625 65.921875 28.609375 65.921875 
Q 23.96875 65.921875 18.8125 64.3125 
Q 13.671875 62.703125 7.8125 59.421875 
L 7.8125 69.390625 
Q 13.765625 71.78125 18.9375 73 
Q 24.125 74.21875 28.421875 74.21875 
Q 39.75 74.21875 46.484375 68.546875 
Q 53.21875 62.890625 53.21875 53.421875 
Q 53.21875 48.921875 51.53125 44.890625 
Q 49.859375 40.875 45.40625 35.40625 
Q 44.1875 33.984375 37.640625 27.21875 
Q 31.109375 20.453125 19.1875 8.296875 
z
" id="DejaVuSans-32"/>
      </defs>
      <g transform="translate(376.921307 313.476875)scale(0.2 -0.2)">
       <use xlink:href="#DejaVuSans-32"/>
      </g>
     </g>
    </g>
    <g id="xtick_3">
     <g id="line2d_35">
      <path clip-path="url(#p593b4f5a37)" d="M 108.421206 291.28 
L 108.421206 6.845228 
" style="fill:none;stroke:#b0b0b0;stroke-linecap:square;stroke-width:0.8;"/>
     </g>
     <g id="line2d_36">
      <defs>
       <path d="M 0 0 
L 0 2 
" id="md4fa69a09a" style="stroke:#000000;stroke-width:0.6;"/>
      </defs>
      <g>
       <use style="stroke:#000000;stroke-width:0.6;" x="108.421206" xlink:href="#md4fa69a09a" y="291.28"/>
      </g>
     </g>
    </g>
    <g id="xtick_4">
     <g id="line2d_37">
      <path clip-path="url(#p593b4f5a37)" d="M 136.909585 291.28 
L 136.909585 6.845228 
" style="fill:none;stroke:#b0b0b0;stroke-linecap:square;stroke-width:0.8;"/>
     </g>
     <g id="line2d_38">
      <g>
       <use style="stroke:#000000;stroke-width:0.6;" x="136.909585" xlink:href="#md4fa69a09a" y="291.28"/>
      </g>
     </g>
    </g>
    <g id="xtick_5">
     <g id="line2d_39">
      <path clip-path="url(#p593b4f5a37)" d="M 157.122411 291.28 
L 157.122411 6.845228 
" style="fill:none;stroke:#b0b0b0;stroke-linecap:square;stroke-width:0.8;"/>
     </g>
     <g id="line2d_40">
      <g>
       <use style="stroke:#000000;stroke-width:0.6;" x="157.122411" xlink:href="#md4fa69a09a" y="291.28"/>
      </g>
     </g>
    </g>
    <g id="xtick_6">
     <g id="line2d_41">
      <path clip-path="url(#p593b4f5a37)" d="M 172.800698 291.28 
L 172.800698 6.845228 
" style="fill:none;stroke:#b0b0b0;stroke-linecap:square;stroke-width:0.8;"/>
     </g>
     <g id="line2d_42">
      <g>
       <use style="stroke:#000000;stroke-width:0.6;" x="172.800698" xlink:href="#md4fa69a09a" y="291.28"/>
      </g>
     </g>
    </g>
    <g id="xtick_7">
     <g id="line2d_43">
      <path clip-path="url(#p593b4f5a37)" d="M 185.61079 291.28 
L 185.61079 6.845228 
" style="fill:none;stroke:#b0b0b0;stroke-linecap:square;stroke-width:0.8;"/>
     </g>
     <g id="line2d_44">
      <g>
       <use style="stroke:#000000;stroke-width:0.6;" x="185.61079" xlink:href="#md4fa69a09a" y="291.28"/>
      </g>
     </g>
    </g>
    <g id="xtick_8">
     <g id="line2d_45">
      <path clip-path="url(#p593b4f5a37)" d="M 196.441569 291.28 
L 196.441569 6.845228 
" style="fill:none;stroke:#b0b0b0;stroke-linecap:square;stroke-width:0.8;"/>
     </g>
     <g id="line2d_46">
      <g>
       <use style="stroke:#000000;stroke-width:0.6;" x="196.441569" xlink:href="#md4fa69a09a" y="291.28"/>
      </g>
     </g>
    </g>
    <g id="xtick_9">
     <g id="line2d_47">
      <path clip-path="url(#p593b4f5a37)" d="M 205.823617 291.28 
L 205.823617 6.845228 
" style="fill:none;stroke:#b0b0b0;stroke-linecap:square;stroke-width:0.8;"/>
     </g>
     <g id="line2d_48">
      <g>
       <use style="stroke:#000000;stroke-width:0.6;" x="205.823617" xlink:href="#md4fa69a09a" y="291.28"/>
      </g>
     </g>
    </g>
    <g id="xtick_10">
     <g id="line2d_49">
      <path clip-path="url(#p593b4f5a37)" d="M 214.099169 291.28 
L 214.099169 6.845228 
" style="fill:none;stroke:#b0b0b0;stroke-linecap:square;stroke-width:0.8;"/>
     </g>
     <g id="line2d_50">
      <g>
       <use style="stroke:#000000;stroke-width:0.6;" x="214.099169" xlink:href="#md4fa69a09a" y="291.28"/>
      </g>
     </g>
    </g>
    <g id="xtick_11">
     <g id="line2d_51">
      <path clip-path="url(#p593b4f5a37)" d="M 270.203109 291.28 
L 270.203109 6.845228 
" style="fill:none;stroke:#b0b0b0;stroke-linecap:square;stroke-width:0.8;"/>
     </g>
     <g id="line2d_52">
      <g>
       <use style="stroke:#000000;stroke-width:0.6;" x="270.203109" xlink:href="#md4fa69a09a" y="291.28"/>
      </g>
     </g>
    </g>
    <g id="xtick_12">
     <g id="line2d_53">
      <path clip-path="url(#p593b4f5a37)" d="M 298.691488 291.28 
L 298.691488 6.845228 
" style="fill:none;stroke:#b0b0b0;stroke-linecap:square;stroke-width:0.8;"/>
     </g>
     <g id="line2d_54">
      <g>
       <use style="stroke:#000000;stroke-width:0.6;" x="298.691488" xlink:href="#md4fa69a09a" y="291.28"/>
      </g>
     </g>
    </g>
    <g id="xtick_13">
     <g id="line2d_55">
      <path clip-path="url(#p593b4f5a37)" d="M 318.904315 291.28 
L 318.904315 6.845228 
" style="fill:none;stroke:#b0b0b0;stroke-linecap:square;stroke-width:0.8;"/>
     </g>
     <g id="line2d_56">
      <g>
       <use style="stroke:#000000;stroke-width:0.6;" x="318.904315" xlink:href="#md4fa69a09a" y="291.28"/>
      </g>
     </g>
    </g>
    <g id="xtick_14">
     <g id="line2d_57">
      <path clip-path="url(#p593b4f5a37)" d="M 334.582601 291.28 
L 334.582601 6.845228 
" style="fill:none;stroke:#b0b0b0;stroke-linecap:square;stroke-width:0.8;"/>
     </g>
     <g id="line2d_58">
      <g>
       <use style="stroke:#000000;stroke-width:0.6;" x="334.582601" xlink:href="#md4fa69a09a" y="291.28"/>
      </g>
     </g>
    </g>
    <g id="xtick_15">
     <g id="line2d_59">
      <path clip-path="url(#p593b4f5a37)" d="M 347.392694 291.28 
L 347.392694 6.845228 
" style="fill:none;stroke:#b0b0b0;stroke-linecap:square;stroke-width:0.8;"/>
     </g>
     <g id="line2d_60">
      <g>
       <use style="stroke:#000000;stroke-width:0.6;" x="347.392694" xlink:href="#md4fa69a09a" y="291.28"/>
      </g>
     </g>
    </g>
    <g id="xtick_16">
     <g id="line2d_61">
      <path clip-path="url(#p593b4f5a37)" d="M 358.223473 291.28 
L 358.223473 6.845228 
" style="fill:none;stroke:#b0b0b0;stroke-linecap:square;stroke-width:0.8;"/>
     </g>
     <g id="line2d_62">
      <g>
       <use style="stroke:#000000;stroke-width:0.6;" x="358.223473" xlink:href="#md4fa69a09a" y="291.28"/>
      </g>
     </g>
    </g>
    <g id="xtick_17">
     <g id="line2d_63">
      <path clip-path="url(#p593b4f5a37)" d="M 367.60552 291.28 
L 367.60552 6.845228 
" style="fill:none;stroke:#b0b0b0;stroke-linecap:square;stroke-width:0.8;"/>
     </g>
     <g id="line2d_64">
      <g>
       <use style="stroke:#000000;stroke-width:0.6;" x="367.60552" xlink:href="#md4fa69a09a" y="291.28"/>
      </g>
     </g>
    </g>
    <g id="xtick_18">
     <g id="line2d_65">
      <path clip-path="url(#p593b4f5a37)" d="M 375.881073 291.28 
L 375.881073 6.845228 
" style="fill:none;stroke:#b0b0b0;stroke-linecap:square;stroke-width:0.8;"/>
     </g>
     <g id="line2d_66">
      <g>
       <use style="stroke:#000000;stroke-width:0.6;" x="375.881073" xlink:href="#md4fa69a09a" y="291.28"/>
      </g>
     </g>
    </g>
    <g id="xtick_19">
     <g id="line2d_67">
      <path clip-path="url(#p593b4f5a37)" d="M 431.985012 291.28 
L 431.985012 6.845228 
" style="fill:none;stroke:#b0b0b0;stroke-linecap:square;stroke-width:0.8;"/>
     </g>
     <g id="line2d_68">
      <g>
       <use style="stroke:#000000;stroke-width:0.6;" x="431.985012" xlink:href="#md4fa69a09a" y="291.28"/>
      </g>
     </g>
    </g>
    <g id="text_3">
     <!-- log10 of FEvals / DIM -->
     <defs>
      <path d="M 9.421875 75.984375 
L 18.40625 75.984375 
L 18.40625 0 
L 9.421875 0 
z
" id="DejaVuSans-6c"/>
      <path d="M 30.609375 48.390625 
Q 23.390625 48.390625 19.1875 42.75 
Q 14.984375 37.109375 14.984375 27.296875 
Q 14.984375 17.484375 19.15625 11.84375 
Q 23.34375 6.203125 30.609375 6.203125 
Q 37.796875 6.203125 41.984375 11.859375 
Q 46.1875 17.53125 46.1875 27.296875 
Q 46.1875 37.015625 41.984375 42.703125 
Q 37.796875 48.390625 30.609375 48.390625 
z
M 30.609375 56 
Q 42.328125 56 49.015625 48.375 
Q 55.71875 40.765625 55.71875 27.296875 
Q 55.71875 13.875 49.015625 6.21875 
Q 42.328125 -1.421875 30.609375 -1.421875 
Q 18.84375 -1.421875 12.171875 6.21875 
Q 5.515625 13.875 5.515625 27.296875 
Q 5.515625 40.765625 12.171875 48.375 
Q 18.84375 56 30.609375 56 
z
" id="DejaVuSans-6f"/>
      <path d="M 45.40625 27.984375 
Q 45.40625 37.75 41.375 43.109375 
Q 37.359375 48.484375 30.078125 48.484375 
Q 22.859375 48.484375 18.828125 43.109375 
Q 14.796875 37.75 14.796875 27.984375 
Q 14.796875 18.265625 18.828125 12.890625 
Q 22.859375 7.515625 30.078125 7.515625 
Q 37.359375 7.515625 41.375 12.890625 
Q 45.40625 18.265625 45.40625 27.984375 
z
M 54.390625 6.78125 
Q 54.390625 -7.171875 48.1875 -13.984375 
Q 42 -20.796875 29.203125 -20.796875 
Q 24.46875 -20.796875 20.265625 -20.09375 
Q 16.0625 -19.390625 12.109375 -17.921875 
L 12.109375 -9.1875 
Q 16.0625 -11.328125 19.921875 -12.34375 
Q 23.78125 -13.375 27.78125 -13.375 
Q 36.625 -13.375 41.015625 -8.765625 
Q 45.40625 -4.15625 45.40625 5.171875 
L 45.40625 9.625 
Q 42.625 4.78125 38.28125 2.390625 
Q 33.9375 0 27.875 0 
Q 17.828125 0 11.671875 7.65625 
Q 5.515625 15.328125 5.515625 27.984375 
Q 5.515625 40.671875 11.671875 48.328125 
Q 17.828125 56 27.875 56 
Q 33.9375 56 38.28125 53.609375 
Q 42.625 51.21875 45.40625 46.390625 
L 45.40625 54.6875 
L 54.390625 54.6875 
z
" id="DejaVuSans-67"/>
      <path d="M 12.40625 8.296875 
L 28.515625 8.296875 
L 28.515625 63.921875 
L 10.984375 60.40625 
L 10.984375 69.390625 
L 28.421875 72.90625 
L 38.28125 72.90625 
L 38.28125 8.296875 
L 54.390625 8.296875 
L 54.390625 0 
L 12.40625 0 
z
" id="DejaVuSans-31"/>
      <path id="DejaVuSans-20"/>
      <path d="M 37.109375 75.984375 
L 37.109375 68.5 
L 28.515625 68.5 
Q 23.6875 68.5 21.796875 66.546875 
Q 19.921875 64.59375 19.921875 59.515625 
L 19.921875 54.6875 
L 34.71875 54.6875 
L 34.71875 47.703125 
L 19.921875 47.703125 
L 19.921875 0 
L 10.890625 0 
L 10.890625 47.703125 
L 2.296875 47.703125 
L 2.296875 54.6875 
L 10.890625 54.6875 
L 10.890625 58.5 
Q 10.890625 67.625 15.140625 71.796875 
Q 19.390625 75.984375 28.609375 75.984375 
z
" id="DejaVuSans-66"/>
      <path d="M 9.8125 72.90625 
L 51.703125 72.90625 
L 51.703125 64.59375 
L 19.671875 64.59375 
L 19.671875 43.109375 
L 48.578125 43.109375 
L 48.578125 34.8125 
L 19.671875 34.8125 
L 19.671875 0 
L 9.8125 0 
z
" id="DejaVuSans-46"/>
      <path d="M 9.8125 72.90625 
L 55.90625 72.90625 
L 55.90625 64.59375 
L 19.671875 64.59375 
L 19.671875 43.015625 
L 54.390625 43.015625 
L 54.390625 34.71875 
L 19.671875 34.71875 
L 19.671875 8.296875 
L 56.78125 8.296875 
L 56.78125 0 
L 9.8125 0 
z
" id="DejaVuSans-45"/>
      <path d="M 2.984375 54.6875 
L 12.5 54.6875 
L 29.59375 8.796875 
L 46.6875 54.6875 
L 56.203125 54.6875 
L 35.6875 0 
L 23.484375 0 
z
" id="DejaVuSans-76"/>
      <path d="M 34.28125 27.484375 
Q 23.390625 27.484375 19.1875 25 
Q 14.984375 22.515625 14.984375 16.5 
Q 14.984375 11.71875 18.140625 8.90625 
Q 21.296875 6.109375 26.703125 6.109375 
Q 34.1875 6.109375 38.703125 11.40625 
Q 43.21875 16.703125 43.21875 25.484375 
L 43.21875 27.484375 
z
M 52.203125 31.203125 
L 52.203125 0 
L 43.21875 0 
L 43.21875 8.296875 
Q 40.140625 3.328125 35.546875 0.953125 
Q 30.953125 -1.421875 24.3125 -1.421875 
Q 15.921875 -1.421875 10.953125 3.296875 
Q 6 8.015625 6 15.921875 
Q 6 25.140625 12.171875 29.828125 
Q 18.359375 34.515625 30.609375 34.515625 
L 43.21875 34.515625 
L 43.21875 35.40625 
Q 43.21875 41.609375 39.140625 45 
Q 35.0625 48.390625 27.6875 48.390625 
Q 23 48.390625 18.546875 47.265625 
Q 14.109375 46.140625 10.015625 43.890625 
L 10.015625 52.203125 
Q 14.9375 54.109375 19.578125 55.046875 
Q 24.21875 56 28.609375 56 
Q 40.484375 56 46.34375 49.84375 
Q 52.203125 43.703125 52.203125 31.203125 
z
" id="DejaVuSans-61"/>
      <path d="M 44.28125 53.078125 
L 44.28125 44.578125 
Q 40.484375 46.53125 36.375 47.5 
Q 32.28125 48.484375 27.875 48.484375 
Q 21.1875 48.484375 17.84375 46.4375 
Q 14.5 44.390625 14.5 40.28125 
Q 14.5 37.15625 16.890625 35.375 
Q 19.28125 33.59375 26.515625 31.984375 
L 29.59375 31.296875 
Q 39.15625 29.25 43.1875 25.515625 
Q 47.21875 21.78125 47.21875 15.09375 
Q 47.21875 7.46875 41.1875 3.015625 
Q 35.15625 -1.421875 24.609375 -1.421875 
Q 20.21875 -1.421875 15.453125 -0.5625 
Q 10.6875 0.296875 5.421875 2 
L 5.421875 11.28125 
Q 10.40625 8.6875 15.234375 7.390625 
Q 20.0625 6.109375 24.8125 6.109375 
Q 31.15625 6.109375 34.5625 8.28125 
Q 37.984375 10.453125 37.984375 14.40625 
Q 37.984375 18.0625 35.515625 20.015625 
Q 33.0625 21.96875 24.703125 23.78125 
L 21.578125 24.515625 
Q 13.234375 26.265625 9.515625 29.90625 
Q 5.8125 33.546875 5.8125 39.890625 
Q 5.8125 47.609375 11.28125 51.796875 
Q 16.75 56 26.8125 56 
Q 31.78125 56 36.171875 55.265625 
Q 40.578125 54.546875 44.28125 53.078125 
z
" id="DejaVuSans-73"/>
      <path d="M 25.390625 72.90625 
L 33.6875 72.90625 
L 8.296875 -9.28125 
L 0 -9.28125 
z
" id="DejaVuSans-2f"/>
      <path d="M 19.671875 64.796875 
L 19.671875 8.109375 
L 31.59375 8.109375 
Q 46.6875 8.109375 53.6875 14.9375 
Q 60.6875 21.78125 60.6875 36.53125 
Q 60.6875 51.171875 53.6875 57.984375 
Q 46.6875 64.796875 31.59375 64.796875 
z
M 9.8125 72.90625 
L 30.078125 72.90625 
Q 51.265625 72.90625 61.171875 64.09375 
Q 71.09375 55.28125 71.09375 36.53125 
Q 71.09375 17.671875 61.125 8.828125 
Q 51.171875 0 30.078125 0 
L 9.8125 0 
z
" id="DejaVuSans-44"/>
      <path d="M 9.8125 72.90625 
L 19.671875 72.90625 
L 19.671875 0 
L 9.8125 0 
z
" id="DejaVuSans-49"/>
      <path d="M 9.8125 72.90625 
L 24.515625 72.90625 
L 43.109375 23.296875 
L 61.8125 72.90625 
L 76.515625 72.90625 
L 76.515625 0 
L 66.890625 0 
L 66.890625 64.015625 
L 48.09375 14.015625 
L 38.1875 14.015625 
L 19.390625 64.015625 
L 19.390625 0 
L 9.8125 0 
z
" id="DejaVuSans-4d"/>
     </defs>
     <g transform="translate(150.122563 336.833125)scale(0.2 -0.2)">
      <use xlink:href="#DejaVuSans-6c"/>
      <use x="27.783203" xlink:href="#DejaVuSans-6f"/>
      <use x="88.964844" xlink:href="#DejaVuSans-67"/>
      <use x="152.441406" xlink:href="#DejaVuSans-31"/>
      <use x="216.064453" xlink:href="#DejaVuSans-30"/>
      <use x="279.6875" xlink:href="#DejaVuSans-20"/>
      <use x="311.474609" xlink:href="#DejaVuSans-6f"/>
      <use x="372.65625" xlink:href="#DejaVuSans-66"/>
      <use x="407.861328" xlink:href="#DejaVuSans-20"/>
      <use x="439.648438" xlink:href="#DejaVuSans-46"/>
      <use x="497.167969" xlink:href="#DejaVuSans-45"/>
      <use x="560.351562" xlink:href="#DejaVuSans-76"/>
      <use x="619.53125" xlink:href="#DejaVuSans-61"/>
      <use x="680.810547" xlink:href="#DejaVuSans-6c"/>
      <use x="708.59375" xlink:href="#DejaVuSans-73"/>
      <use x="760.693359" xlink:href="#DejaVuSans-20"/>
      <use x="792.480469" xlink:href="#DejaVuSans-2f"/>
      <use x="826.171875" xlink:href="#DejaVuSans-20"/>
      <use x="857.958984" xlink:href="#DejaVuSans-44"/>
      <use x="934.960938" xlink:href="#DejaVuSans-49"/>
      <use x="964.453125" xlink:href="#DejaVuSans-4d"/>
     </g>
    </g>
   </g>
   <g id="matplotlib.axis_2">
    <g id="ytick_1">
     <g id="line2d_69">
      <path clip-path="url(#p593b4f5a37)" d="M 59.72 291.28 
L 450.672 291.28 
" style="fill:none;stroke:#b0b0b0;stroke-linecap:square;stroke-width:0.8;"/>
     </g>
     <g id="line2d_70">
      <defs>
       <path d="M 0 0 
L -3.5 0 
" id="m179c0b0bfb" style="stroke:#000000;stroke-width:0.8;"/>
      </defs>
      <g>
       <use style="stroke:#000000;stroke-width:0.8;" x="59.72" xlink:href="#m179c0b0bfb" y="291.28"/>
      </g>
     </g>
     <g id="text_4">
      <!-- 0.0 -->
      <defs>
       <path d="M 10.6875 12.40625 
L 21 12.40625 
L 21 0 
L 10.6875 0 
z
" id="DejaVuSans-2e"/>
      </defs>
      <g transform="translate(27.275 297.35875)scale(0.16 -0.16)">
       <use xlink:href="#DejaVuSans-30"/>
       <use x="63.623047" xlink:href="#DejaVuSans-2e"/>
       <use x="95.410156" xlink:href="#DejaVuSans-30"/>
      </g>
     </g>
    </g>
    <g id="ytick_2">
     <g id="line2d_71">
      <path clip-path="url(#p593b4f5a37)" d="M 59.72 234.956283 
L 450.672 234.956283 
" style="fill:none;stroke:#b0b0b0;stroke-linecap:square;stroke-width:0.8;"/>
     </g>
     <g id="line2d_72">
      <g>
       <use style="stroke:#000000;stroke-width:0.8;" x="59.72" xlink:href="#m179c0b0bfb" y="234.956283"/>
      </g>
     </g>
     <g id="text_5">
      <!-- 0.2 -->
      <g transform="translate(27.275 241.035033)scale(0.16 -0.16)">
       <use xlink:href="#DejaVuSans-30"/>
       <use x="63.623047" xlink:href="#DejaVuSans-2e"/>
       <use x="95.410156" xlink:href="#DejaVuSans-32"/>
      </g>
     </g>
    </g>
    <g id="ytick_3">
     <g id="line2d_73">
      <path clip-path="url(#p593b4f5a37)" d="M 59.72 178.632565 
L 450.672 178.632565 
" style="fill:none;stroke:#b0b0b0;stroke-linecap:square;stroke-width:0.8;"/>
     </g>
     <g id="line2d_74">
      <g>
       <use style="stroke:#000000;stroke-width:0.8;" x="59.72" xlink:href="#m179c0b0bfb" y="178.632565"/>
      </g>
     </g>
     <g id="text_6">
      <!-- 0.4 -->
      <defs>
       <path d="M 37.796875 64.3125 
L 12.890625 25.390625 
L 37.796875 25.390625 
z
M 35.203125 72.90625 
L 47.609375 72.90625 
L 47.609375 25.390625 
L 58.015625 25.390625 
L 58.015625 17.1875 
L 47.609375 17.1875 
L 47.609375 0 
L 37.796875 0 
L 37.796875 17.1875 
L 4.890625 17.1875 
L 4.890625 26.703125 
z
" id="DejaVuSans-34"/>
      </defs>
      <g transform="translate(27.275 184.711315)scale(0.16 -0.16)">
       <use xlink:href="#DejaVuSans-30"/>
       <use x="63.623047" xlink:href="#DejaVuSans-2e"/>
       <use x="95.410156" xlink:href="#DejaVuSans-34"/>
      </g>
     </g>
    </g>
    <g id="ytick_4">
     <g id="line2d_75">
      <path clip-path="url(#p593b4f5a37)" d="M 59.72 122.308848 
L 450.672 122.308848 
" style="fill:none;stroke:#b0b0b0;stroke-linecap:square;stroke-width:0.8;"/>
     </g>
     <g id="line2d_76">
      <g>
       <use style="stroke:#000000;stroke-width:0.8;" x="59.72" xlink:href="#m179c0b0bfb" y="122.308848"/>
      </g>
     </g>
     <g id="text_7">
      <!-- 0.6 -->
      <defs>
       <path d="M 33.015625 40.375 
Q 26.375 40.375 22.484375 35.828125 
Q 18.609375 31.296875 18.609375 23.390625 
Q 18.609375 15.53125 22.484375 10.953125 
Q 26.375 6.390625 33.015625 6.390625 
Q 39.65625 6.390625 43.53125 10.953125 
Q 47.40625 15.53125 47.40625 23.390625 
Q 47.40625 31.296875 43.53125 35.828125 
Q 39.65625 40.375 33.015625 40.375 
z
M 52.59375 71.296875 
L 52.59375 62.3125 
Q 48.875 64.0625 45.09375 64.984375 
Q 41.3125 65.921875 37.59375 65.921875 
Q 27.828125 65.921875 22.671875 59.328125 
Q 17.53125 52.734375 16.796875 39.40625 
Q 19.671875 43.65625 24.015625 45.921875 
Q 28.375 48.1875 33.59375 48.1875 
Q 44.578125 48.1875 50.953125 41.515625 
Q 57.328125 34.859375 57.328125 23.390625 
Q 57.328125 12.15625 50.6875 5.359375 
Q 44.046875 -1.421875 33.015625 -1.421875 
Q 20.359375 -1.421875 13.671875 8.265625 
Q 6.984375 17.96875 6.984375 36.375 
Q 6.984375 53.65625 15.1875 63.9375 
Q 23.390625 74.21875 37.203125 74.21875 
Q 40.921875 74.21875 44.703125 73.484375 
Q 48.484375 72.75 52.59375 71.296875 
z
" id="DejaVuSans-36"/>
      </defs>
      <g transform="translate(27.275 128.387598)scale(0.16 -0.16)">
       <use xlink:href="#DejaVuSans-30"/>
       <use x="63.623047" xlink:href="#DejaVuSans-2e"/>
       <use x="95.410156" xlink:href="#DejaVuSans-36"/>
      </g>
     </g>
    </g>
    <g id="ytick_5">
     <g id="line2d_77">
      <path clip-path="url(#p593b4f5a37)" d="M 59.72 65.985131 
L 450.672 65.985131 
" style="fill:none;stroke:#b0b0b0;stroke-linecap:square;stroke-width:0.8;"/>
     </g>
     <g id="line2d_78">
      <g>
       <use style="stroke:#000000;stroke-width:0.8;" x="59.72" xlink:href="#m179c0b0bfb" y="65.985131"/>
      </g>
     </g>
     <g id="text_8">
      <!-- 0.8 -->
      <defs>
       <path d="M 31.78125 34.625 
Q 24.75 34.625 20.71875 30.859375 
Q 16.703125 27.09375 16.703125 20.515625 
Q 16.703125 13.921875 20.71875 10.15625 
Q 24.75 6.390625 31.78125 6.390625 
Q 38.8125 6.390625 42.859375 10.171875 
Q 46.921875 13.96875 46.921875 20.515625 
Q 46.921875 27.09375 42.890625 30.859375 
Q 38.875 34.625 31.78125 34.625 
z
M 21.921875 38.8125 
Q 15.578125 40.375 12.03125 44.71875 
Q 8.5 49.078125 8.5 55.328125 
Q 8.5 64.0625 14.71875 69.140625 
Q 20.953125 74.21875 31.78125 74.21875 
Q 42.671875 74.21875 48.875 69.140625 
Q 55.078125 64.0625 55.078125 55.328125 
Q 55.078125 49.078125 51.53125 44.71875 
Q 48 40.375 41.703125 38.8125 
Q 48.828125 37.15625 52.796875 32.3125 
Q 56.78125 27.484375 56.78125 20.515625 
Q 56.78125 9.90625 50.3125 4.234375 
Q 43.84375 -1.421875 31.78125 -1.421875 
Q 19.734375 -1.421875 13.25 4.234375 
Q 6.78125 9.90625 6.78125 20.515625 
Q 6.78125 27.484375 10.78125 32.3125 
Q 14.796875 37.15625 21.921875 38.8125 
z
M 18.3125 54.390625 
Q 18.3125 48.734375 21.84375 45.5625 
Q 25.390625 42.390625 31.78125 42.390625 
Q 38.140625 42.390625 41.71875 45.5625 
Q 45.3125 48.734375 45.3125 54.390625 
Q 45.3125 60.0625 41.71875 63.234375 
Q 38.140625 66.40625 31.78125 66.40625 
Q 25.390625 66.40625 21.84375 63.234375 
Q 18.3125 60.0625 18.3125 54.390625 
z
" id="DejaVuSans-38"/>
      </defs>
      <g transform="translate(27.275 72.063881)scale(0.16 -0.16)">
       <use xlink:href="#DejaVuSans-30"/>
       <use x="63.623047" xlink:href="#DejaVuSans-2e"/>
       <use x="95.410156" xlink:href="#DejaVuSans-38"/>
      </g>
     </g>
    </g>
    <g id="ytick_6">
     <g id="line2d_79">
      <path clip-path="url(#p593b4f5a37)" d="M 59.72 9.661414 
L 450.672 9.661414 
" style="fill:none;stroke:#b0b0b0;stroke-linecap:square;stroke-width:0.8;"/>
     </g>
     <g id="line2d_80">
      <g>
       <use style="stroke:#000000;stroke-width:0.8;" x="59.72" xlink:href="#m179c0b0bfb" y="9.661414"/>
      </g>
     </g>
     <g id="text_9">
      <!-- 1.0 -->
      <g transform="translate(27.275 15.740164)scale(0.16 -0.16)">
       <use xlink:href="#DejaVuSans-31"/>
       <use x="63.623047" xlink:href="#DejaVuSans-2e"/>
       <use x="95.410156" xlink:href="#DejaVuSans-30"/>
      </g>
     </g>
    </g>
    <g id="text_10">
     <!-- proportion of trials -->
     <defs>
      <path d="M 18.109375 8.203125 
L 18.109375 -20.796875 
L 9.078125 -20.796875 
L 9.078125 54.6875 
L 18.109375 54.6875 
L 18.109375 46.390625 
Q 20.953125 51.265625 25.265625 53.625 
Q 29.59375 56 35.59375 56 
Q 45.5625 56 51.78125 48.09375 
Q 58.015625 40.1875 58.015625 27.296875 
Q 58.015625 14.40625 51.78125 6.484375 
Q 45.5625 -1.421875 35.59375 -1.421875 
Q 29.59375 -1.421875 25.265625 0.953125 
Q 20.953125 3.328125 18.109375 8.203125 
z
M 48.6875 27.296875 
Q 48.6875 37.203125 44.609375 42.84375 
Q 40.53125 48.484375 33.40625 48.484375 
Q 26.265625 48.484375 22.1875 42.84375 
Q 18.109375 37.203125 18.109375 27.296875 
Q 18.109375 17.390625 22.1875 11.75 
Q 26.265625 6.109375 33.40625 6.109375 
Q 40.53125 6.109375 44.609375 11.75 
Q 48.6875 17.390625 48.6875 27.296875 
z
" id="DejaVuSans-70"/>
      <path d="M 41.109375 46.296875 
Q 39.59375 47.171875 37.8125 47.578125 
Q 36.03125 48 33.890625 48 
Q 26.265625 48 22.1875 43.046875 
Q 18.109375 38.09375 18.109375 28.8125 
L 18.109375 0 
L 9.078125 0 
L 9.078125 54.6875 
L 18.109375 54.6875 
L 18.109375 46.1875 
Q 20.953125 51.171875 25.484375 53.578125 
Q 30.03125 56 36.53125 56 
Q 37.453125 56 38.578125 55.875 
Q 39.703125 55.765625 41.0625 55.515625 
z
" id="DejaVuSans-72"/>
      <path d="M 18.3125 70.21875 
L 18.3125 54.6875 
L 36.8125 54.6875 
L 36.8125 47.703125 
L 18.3125 47.703125 
L 18.3125 18.015625 
Q 18.3125 11.328125 20.140625 9.421875 
Q 21.96875 7.515625 27.59375 7.515625 
L 36.8125 7.515625 
L 36.8125 0 
L 27.59375 0 
Q 17.1875 0 13.234375 3.875 
Q 9.28125 7.765625 9.28125 18.015625 
L 9.28125 47.703125 
L 2.6875 47.703125 
L 2.6875 54.6875 
L 9.28125 54.6875 
L 9.28125 70.21875 
z
" id="DejaVuSans-74"/>
      <path d="M 9.421875 54.6875 
L 18.40625 54.6875 
L 18.40625 0 
L 9.421875 0 
z
M 9.421875 75.984375 
L 18.40625 75.984375 
L 18.40625 64.59375 
L 9.421875 64.59375 
z
" id="DejaVuSans-69"/>
      <path d="M 54.890625 33.015625 
L 54.890625 0 
L 45.90625 0 
L 45.90625 32.71875 
Q 45.90625 40.484375 42.875 44.328125 
Q 39.84375 48.1875 33.796875 48.1875 
Q 26.515625 48.1875 22.3125 43.546875 
Q 18.109375 38.921875 18.109375 30.90625 
L 18.109375 0 
L 9.078125 0 
L 9.078125 54.6875 
L 18.109375 54.6875 
L 18.109375 46.1875 
Q 21.34375 51.125 25.703125 53.5625 
Q 30.078125 56 35.796875 56 
Q 45.21875 56 50.046875 50.171875 
Q 54.890625 44.34375 54.890625 33.015625 
z
" id="DejaVuSans-6e"/>
     </defs>
     <g transform="translate(19.115625 242.290739)rotate(-90)scale(0.2 -0.2)">
      <use xlink:href="#DejaVuSans-70"/>
      <use x="63.476562" xlink:href="#DejaVuSans-72"/>
      <use x="104.558594" xlink:href="#DejaVuSans-6f"/>
      <use x="165.740234" xlink:href="#DejaVuSans-70"/>
      <use x="229.216797" xlink:href="#DejaVuSans-6f"/>
      <use x="290.398438" xlink:href="#DejaVuSans-72"/>
      <use x="331.511719" xlink:href="#DejaVuSans-74"/>
      <use x="370.720703" xlink:href="#DejaVuSans-69"/>
      <use x="398.503906" xlink:href="#DejaVuSans-6f"/>
      <use x="459.685547" xlink:href="#DejaVuSans-6e"/>
      <use x="523.064453" xlink:href="#DejaVuSans-20"/>
      <use x="554.851562" xlink:href="#DejaVuSans-6f"/>
      <use x="616.033203" xlink:href="#DejaVuSans-66"/>
      <use x="651.238281" xlink:href="#DejaVuSans-20"/>
      <use x="683.025391" xlink:href="#DejaVuSans-74"/>
      <use x="722.234375" xlink:href="#DejaVuSans-72"/>
      <use x="763.347656" xlink:href="#DejaVuSans-69"/>
      <use x="791.130859" xlink:href="#DejaVuSans-61"/>
      <use x="852.410156" xlink:href="#DejaVuSans-6c"/>
      <use x="880.193359" xlink:href="#DejaVuSans-73"/>
     </g>
    </g>
   </g>
   <g id="line2d_81">
    <path clip-path="url(#p593b4f5a37)" d="M -1 280.015257 
L 141.444125 280.015257 
L 141.444125 276.260342 
L 157.122411 276.260342 
L 157.122411 272.505428 
L 180.763283 272.505428 
L 180.763283 268.750513 
L 228.198491 268.750513 
L 228.198491 264.995599 
L 230.708078 264.995599 
L 230.708078 261.240684 
L 242.065159 261.240684 
L 242.065159 257.48577 
L 242.065159 257.48577 
L 242.065159 253.730855 
L 242.065159 253.730855 
L 242.065159 249.975941 
L 244.131808 249.975941 
L 244.131808 246.221026 
L 244.131808 246.221026 
L 244.131808 242.466112 
L 246.139401 242.466112 
L 246.139401 238.711197 
L 250.920905 238.711197 
L 250.920905 234.956283 
L 274.956872 234.956283 
L 274.956872 231.201368 
L 293.843981 231.201368 
L 293.843981 227.446454 
L 295.333669 227.446454 
L 295.333669 223.691539 
L 296.309531 223.691539 
L 296.309531 219.936625 
L 296.309531 219.936625 
L 296.309531 216.18171 
L 300.08284 216.18171 
L 300.08284 212.426796 
L 304.531223 212.426796 
L 304.531223 208.671881 
L 305.388075 208.671881 
L 305.388075 204.916967 
L 307.485574 204.916967 
L 307.485574 201.162052 
L 307.485574 201.162052 
L 307.485574 197.407138 
L 310.320696 197.407138 
L 310.320696 193.652223 
L 318.198168 193.652223 
L 318.198168 189.897309 
L 318.198168 189.897309 
L 318.198168 186.142394 
L 347.158099 186.142394 
L 347.158099 182.38748 
L 348.323316 182.38748 
L 348.323316 178.632565 
L 354.935809 178.632565 
L 354.935809 174.877651 
L 359.220099 174.877651 
L 359.220099 171.122736 
L 366.543621 171.122736 
L 366.543621 167.367822 
L 369.340448 167.367822 
L 369.340448 163.612907 
L 370.022598 163.612907 
L 370.022598 159.857993 
L 370.022598 159.857993 
L 370.022598 156.103079 
L 375.411098 156.103079 
L 375.411098 152.348164 
L 385.768737 152.348164 
L 385.768737 148.59325 
L 419.062412 148.59325 
L 419.062412 144.838335 
L 425.204061 144.838335 
L 425.204061 141.083421 
L 425.204061 141.083421 
L 425.204061 141.083421 
L 450.672 141.083421 
" style="fill:none;stroke:#000000;stroke-linecap:square;stroke-width:1.5;"/>
   </g>
   <g id="line2d_82">
    <defs>
     <path d="M -0 14.142136 
L 8.485281 0 
L -0 -14.142136 
L -8.485281 -0 
z
" id="mecab9f47fd" style="stroke:#000000;stroke-linejoin:miter;stroke-width:1.5;"/>
    </defs>
    <g clip-path="url(#p593b4f5a37)">
     <use style="fill:none;stroke:#000000;stroke-linejoin:miter;stroke-width:1.5;" x="180.763283" xlink:href="#mecab9f47fd" y="272.505428"/>
     <use style="fill:none;stroke:#000000;stroke-linejoin:miter;stroke-width:1.5;" x="295.333669" xlink:href="#mecab9f47fd" y="227.446454"/>
     <use style="fill:none;stroke:#000000;stroke-linejoin:miter;stroke-width:1.5;" x="359.220099" xlink:href="#mecab9f47fd" y="174.877651"/>
     <use style="fill:none;stroke:#000000;stroke-linejoin:miter;stroke-width:1.5;" x="425.204061" xlink:href="#mecab9f47fd" y="144.838335"/>
     <use style="fill:none;stroke:#000000;stroke-linejoin:miter;stroke-width:1.5;" x="425.204061" xlink:href="#mecab9f47fd" y="141.083421"/>
    </g>
   </g>
   <g id="line2d_83">
    <path clip-path="url(#p593b4f5a37)" style="fill:none;stroke:#000000;stroke-linecap:square;stroke-width:1.5;"/>
    <g clip-path="url(#p593b4f5a37)">
     <use style="fill:none;stroke:#000000;stroke-linejoin:miter;stroke-width:1.5;" x="-1" xlink:href="#mecab9f47fd" y="572.898586"/>
     <use style="fill:none;stroke:#000000;stroke-linejoin:miter;stroke-width:1.5;" x="450.672" xlink:href="#mecab9f47fd" y="572.898586"/>
    </g>
   </g>
   <g id="line2d_84">
    <path clip-path="url(#p593b4f5a37)" d="M -1 280.015257 
L 141.444125 280.015257 
L 141.444125 276.260342 
L 157.122411 276.260342 
L 157.122411 272.505428 
L 180.763283 272.505428 
L 180.763283 268.750513 
L 228.198491 268.750513 
L 228.198491 264.995599 
L 230.708078 264.995599 
L 230.708078 261.240684 
L 242.065159 261.240684 
L 242.065159 257.48577 
L 242.065159 257.48577 
L 242.065159 253.730855 
L 242.065159 253.730855 
L 242.065159 249.975941 
L 244.131808 249.975941 
L 244.131808 246.221026 
L 244.131808 246.221026 
L 244.131808 242.466112 
L 246.139401 242.466112 
L 246.139401 238.711197 
L 250.920905 238.711197 
L 250.920905 234.956283 
L 274.956872 234.956283 
L 274.956872 231.201368 
L 293.843981 231.201368 
L 293.843981 227.446454 
L 295.333669 227.446454 
L 295.333669 223.691539 
L 296.309531 223.691539 
L 296.309531 219.936625 
L 296.309531 219.936625 
L 296.309531 216.18171 
L 300.08284 216.18171 
L 300.08284 212.426796 
L 304.531223 212.426796 
L 304.531223 208.671881 
L 305.388075 208.671881 
L 305.388075 204.916967 
L 307.485574 204.916967 
L 307.485574 201.162052 
L 307.485574 201.162052 
L 307.485574 197.407138 
L 310.320696 197.407138 
L 310.320696 193.652223 
L 318.198168 193.652223 
L 318.198168 189.897309 
L 318.198168 189.897309 
L 318.198168 186.142394 
L 347.158099 186.142394 
L 347.158099 182.38748 
L 348.323316 182.38748 
L 348.323316 178.632565 
L 354.935809 178.632565 
L 354.935809 174.877651 
L 359.220099 174.877651 
L 359.220099 171.122736 
L 366.543621 171.122736 
L 366.543621 167.367822 
L 369.340448 167.367822 
L 369.340448 163.612907 
L 370.022598 163.612907 
L 370.022598 159.857993 
L 370.022598 159.857993 
L 370.022598 156.103079 
L 375.411098 156.103079 
L 375.411098 152.348164 
L 385.768737 152.348164 
L 385.768737 148.59325 
L 419.062412 148.59325 
L 419.062412 144.838335 
L 425.204061 144.838335 
L 425.204061 141.083421 
L 425.204061 141.083421 
L 425.204061 141.083421 
L 450.672 141.083421 
" style="fill:none;stroke:#000000;stroke-linecap:square;stroke-width:1.5;"/>
   </g>
   <g id="line2d_85">
    <defs>
     <path d="M 0 7.5 
C 1.989023 7.5 3.896849 6.709753 5.303301 5.303301 
C 6.709753 3.896849 7.5 1.989023 7.5 0 
C 7.5 -1.989023 6.709753 -3.896849 5.303301 -5.303301 
C 3.896849 -6.709753 1.989023 -7.5 0 -7.5 
C -1.989023 -7.5 -3.896849 -6.709753 -5.303301 -5.303301 
C -6.709753 -3.896849 -7.5 -1.989023 -7.5 0 
C -7.5 1.989023 -6.709753 3.896849 -5.303301 5.303301 
C -3.896849 6.709753 -1.989023 7.5 0 7.5 
z
" id="ma5062af8e2" style="stroke:#000000;stroke-width:1.5;"/>
    </defs>
    <g clip-path="url(#p593b4f5a37)">
     <use style="fill:none;stroke:#000000;stroke-width:1.5;" x="157.122411" xlink:href="#ma5062af8e2" y="276.260342"/>
     <use style="fill:none;stroke:#000000;stroke-width:1.5;" x="250.920905" xlink:href="#ma5062af8e2" y="238.711197"/>
     <use style="fill:none;stroke:#000000;stroke-width:1.5;" x="375.411098" xlink:href="#ma5062af8e2" y="156.103079"/>
     <use style="fill:none;stroke:#000000;stroke-width:1.5;" x="425.204061" xlink:href="#ma5062af8e2" y="141.083421"/>
    </g>
   </g>
   <g id="line2d_86">
    <path clip-path="url(#p593b4f5a37)" style="fill:none;stroke:#000000;stroke-linecap:square;stroke-width:1.5;"/>
   </g>
   <g id="line2d_87">
    <path clip-path="url(#p593b4f5a37)" d="M 238.846536 291.28 
L 238.846536 287.525086 
L 354.51382 287.525086 
L 354.51382 283.770171 
L 378.93638 283.770171 
L 378.93638 280.015257 
L 395.150785 280.015257 
L 395.150785 276.260342 
L 413.529958 276.260342 
L 413.529958 272.505428 
L 415.866217 272.505428 
L 415.866217 268.750513 
L 415.866217 268.750513 
L 415.866217 268.750513 
L 450.672 268.750513 
" style="fill:none;stroke:#00bfbf;stroke-linecap:square;stroke-width:1.5;"/>
   </g>
   <g id="line2d_88">
    <defs>
     <path d="M -0 14.142136 
L 8.485281 0 
L -0 -14.142136 
L -8.485281 -0 
z
" id="m52d2131be7" style="stroke:#00bfbf;stroke-linejoin:miter;stroke-width:1.5;"/>
    </defs>
    <g clip-path="url(#p593b4f5a37)">
     <use style="fill:none;stroke:#00bfbf;stroke-linejoin:miter;stroke-width:1.5;" x="238.846536" xlink:href="#m52d2131be7" y="291.28"/>
     <use style="fill:none;stroke:#00bfbf;stroke-linejoin:miter;stroke-width:1.5;" x="378.93638" xlink:href="#m52d2131be7" y="283.770171"/>
     <use style="fill:none;stroke:#00bfbf;stroke-linejoin:miter;stroke-width:1.5;" x="415.866217" xlink:href="#m52d2131be7" y="272.505428"/>
     <use style="fill:none;stroke:#00bfbf;stroke-linejoin:miter;stroke-width:1.5;" x="415.866217" xlink:href="#m52d2131be7" y="268.750513"/>
    </g>
   </g>
   <g id="line2d_89">
    <path clip-path="url(#p593b4f5a37)" style="fill:none;stroke:#00bfbf;stroke-linecap:square;stroke-width:1.5;"/>
    <g clip-path="url(#p593b4f5a37)">
     <use style="fill:none;stroke:#00bfbf;stroke-linejoin:miter;stroke-width:1.5;" x="-1" xlink:href="#m52d2131be7" y="572.898586"/>
     <use style="fill:none;stroke:#00bfbf;stroke-linejoin:miter;stroke-width:1.5;" x="450.672" xlink:href="#m52d2131be7" y="572.898586"/>
    </g>
   </g>
   <g id="line2d_90">
    <path clip-path="url(#p593b4f5a37)" d="M 238.846536 291.28 
L 238.846536 287.525086 
L 354.51382 287.525086 
L 354.51382 283.770171 
L 378.93638 283.770171 
L 378.93638 280.015257 
L 395.150785 280.015257 
L 395.150785 276.260342 
L 413.529958 276.260342 
L 413.529958 272.505428 
L 415.866217 272.505428 
L 415.866217 268.750513 
L 415.866217 268.750513 
L 415.866217 268.750513 
L 450.672 268.750513 
" style="fill:none;stroke:#00bfbf;stroke-linecap:square;stroke-width:1.5;"/>
   </g>
   <g id="line2d_91">
    <defs>
     <path d="M 0 7.5 
C 1.989023 7.5 3.896849 6.709753 5.303301 5.303301 
C 6.709753 3.896849 7.5 1.989023 7.5 0 
C 7.5 -1.989023 6.709753 -3.896849 5.303301 -5.303301 
C 3.896849 -6.709753 1.989023 -7.5 0 -7.5 
C -1.989023 -7.5 -3.896849 -6.709753 -5.303301 -5.303301 
C -6.709753 -3.896849 -7.5 -1.989023 -7.5 0 
C -7.5 1.989023 -6.709753 3.896849 -5.303301 5.303301 
C -3.896849 6.709753 -1.989023 7.5 0 7.5 
z
" id="m53af1ec043" style="stroke:#00bfbf;stroke-width:1.5;"/>
    </defs>
    <g clip-path="url(#p593b4f5a37)">
     <use style="fill:none;stroke:#00bfbf;stroke-width:1.5;" x="238.846536" xlink:href="#m53af1ec043" y="291.28"/>
     <use style="fill:none;stroke:#00bfbf;stroke-width:1.5;" x="354.51382" xlink:href="#m53af1ec043" y="287.525086"/>
     <use style="fill:none;stroke:#00bfbf;stroke-width:1.5;" x="415.866217" xlink:href="#m53af1ec043" y="272.505428"/>
     <use style="fill:none;stroke:#00bfbf;stroke-width:1.5;" x="415.866217" xlink:href="#m53af1ec043" y="268.750513"/>
    </g>
   </g>
   <g id="line2d_92">
    <path clip-path="url(#p593b4f5a37)" style="fill:none;stroke:#00bfbf;stroke-linecap:square;stroke-width:1.5;"/>
   </g>
   <g id="line2d_93">
    <path clip-path="url(#p593b4f5a37)" d="M 416.394497 291.28 
L 416.394497 287.525086 
L 419.062412 287.525086 
L 419.062412 283.770171 
L 429.189969 283.770171 
L 429.189969 280.015257 
L 429.189969 280.015257 
L 429.189969 280.015257 
L 450.672 280.015257 
" style="fill:none;stroke:#bf00bf;stroke-linecap:square;stroke-width:1.5;"/>
   </g>
   <g id="line2d_94">
    <defs>
     <path d="M -0 14.142136 
L 8.485281 0 
L -0 -14.142136 
L -8.485281 -0 
z
" id="m57a1cfda65" style="stroke:#bf00bf;stroke-linejoin:miter;stroke-width:1.5;"/>
    </defs>
    <g clip-path="url(#p593b4f5a37)">
     <use style="fill:none;stroke:#bf00bf;stroke-linejoin:miter;stroke-width:1.5;" x="416.394497" xlink:href="#m57a1cfda65" y="291.28"/>
     <use style="fill:none;stroke:#bf00bf;stroke-linejoin:miter;stroke-width:1.5;" x="429.189969" xlink:href="#m57a1cfda65" y="283.770171"/>
     <use style="fill:none;stroke:#bf00bf;stroke-linejoin:miter;stroke-width:1.5;" x="429.189969" xlink:href="#m57a1cfda65" y="280.015257"/>
    </g>
   </g>
   <g id="line2d_95">
    <path clip-path="url(#p593b4f5a37)" style="fill:none;stroke:#bf00bf;stroke-linecap:square;stroke-width:1.5;"/>
    <g clip-path="url(#p593b4f5a37)">
     <use style="fill:none;stroke:#bf00bf;stroke-linejoin:miter;stroke-width:1.5;" x="-1" xlink:href="#m57a1cfda65" y="572.898586"/>
     <use style="fill:none;stroke:#bf00bf;stroke-linejoin:miter;stroke-width:1.5;" x="450.672" xlink:href="#m57a1cfda65" y="572.898586"/>
    </g>
   </g>
   <g id="line2d_96">
    <path clip-path="url(#p593b4f5a37)" d="M 416.394497 291.28 
L 416.394497 287.525086 
L 419.062412 287.525086 
L 419.062412 283.770171 
L 429.189969 283.770171 
L 429.189969 280.015257 
L 429.189969 280.015257 
L 429.189969 280.015257 
L 450.672 280.015257 
" style="fill:none;stroke:#bf00bf;stroke-linecap:square;stroke-width:1.5;"/>
   </g>
   <g id="line2d_97">
    <defs>
     <path d="M 0 7.5 
C 1.989023 7.5 3.896849 6.709753 5.303301 5.303301 
C 6.709753 3.896849 7.5 1.989023 7.5 0 
C 7.5 -1.989023 6.709753 -3.896849 5.303301 -5.303301 
C 3.896849 -6.709753 1.989023 -7.5 0 -7.5 
C -1.989023 -7.5 -3.896849 -6.709753 -5.303301 -5.303301 
C -6.709753 -3.896849 -7.5 -1.989023 -7.5 0 
C -7.5 1.989023 -6.709753 3.896849 -5.303301 5.303301 
C -3.896849 6.709753 -1.989023 7.5 0 7.5 
z
" id="mfb0b7cd1e7" style="stroke:#bf00bf;stroke-width:1.5;"/>
    </defs>
    <g clip-path="url(#p593b4f5a37)">
     <use style="fill:none;stroke:#bf00bf;stroke-width:1.5;" x="419.062412" xlink:href="#mfb0b7cd1e7" y="287.525086"/>
     <use style="fill:none;stroke:#bf00bf;stroke-width:1.5;" x="429.189969" xlink:href="#mfb0b7cd1e7" y="283.770171"/>
     <use style="fill:none;stroke:#bf00bf;stroke-width:1.5;" x="429.189969" xlink:href="#mfb0b7cd1e7" y="280.015257"/>
    </g>
   </g>
   <g id="line2d_98">
    <path clip-path="url(#p593b4f5a37)" style="fill:none;stroke:#bf00bf;stroke-linecap:square;stroke-width:1.5;"/>
   </g>
   <g id="line2d_99">
    <path clip-path="url(#p593b4f5a37)" d="M 419.567283 291.28 
L 419.567283 287.525086 
L 422.923426 287.525086 
L 422.923426 283.770171 
L 422.923426 283.770171 
L 422.923426 283.770171 
L 450.672 283.770171 
" style="fill:none;stroke:#ff0000;stroke-linecap:square;stroke-width:3;"/>
   </g>
   <g id="line2d_100">
    <defs>
     <path d="M -0 14.142136 
L 8.485281 0 
L -0 -14.142136 
L -8.485281 -0 
z
" id="m04bfbbad1e" style="stroke:#ff0000;stroke-linejoin:miter;stroke-width:3;"/>
    </defs>
    <g clip-path="url(#p593b4f5a37)">
     <use style="fill:none;stroke:#ff0000;stroke-linejoin:miter;stroke-width:3;" x="419.567283" xlink:href="#m04bfbbad1e" y="291.28"/>
     <use style="fill:none;stroke:#ff0000;stroke-linejoin:miter;stroke-width:3;" x="422.923426" xlink:href="#m04bfbbad1e" y="287.525086"/>
     <use style="fill:none;stroke:#ff0000;stroke-linejoin:miter;stroke-width:3;" x="422.923426" xlink:href="#m04bfbbad1e" y="283.770171"/>
    </g>
   </g>
   <g id="line2d_101">
    <path clip-path="url(#p593b4f5a37)" style="fill:none;stroke:#ff0000;stroke-linecap:square;stroke-width:3;"/>
    <g clip-path="url(#p593b4f5a37)">
     <use style="fill:none;stroke:#ff0000;stroke-linejoin:miter;stroke-width:3;" x="-1" xlink:href="#m04bfbbad1e" y="572.898586"/>
     <use style="fill:none;stroke:#ff0000;stroke-linejoin:miter;stroke-width:3;" x="450.672" xlink:href="#m04bfbbad1e" y="572.898586"/>
    </g>
   </g>
   <g id="line2d_102">
    <path clip-path="url(#p593b4f5a37)" d="M 419.567283 291.28 
L 419.567283 287.525086 
L 422.923426 287.525086 
L 422.923426 283.770171 
L 422.923426 283.770171 
L 422.923426 283.770171 
L 450.672 283.770171 
" style="fill:none;stroke:#ff0000;stroke-linecap:square;stroke-width:3;"/>
   </g>
   <g id="line2d_103">
    <defs>
     <path d="M 0 7.5 
C 1.989023 7.5 3.896849 6.709753 5.303301 5.303301 
C 6.709753 3.896849 7.5 1.989023 7.5 0 
C 7.5 -1.989023 6.709753 -3.896849 5.303301 -5.303301 
C 3.896849 -6.709753 1.989023 -7.5 0 -7.5 
C -1.989023 -7.5 -3.896849 -6.709753 -5.303301 -5.303301 
C -6.709753 -3.896849 -7.5 -1.989023 -7.5 0 
C -7.5 1.989023 -6.709753 3.896849 -5.303301 5.303301 
C -3.896849 6.709753 -1.989023 7.5 0 7.5 
z
" id="mc4ea20d768" style="stroke:#ff0000;stroke-width:3;"/>
    </defs>
    <g clip-path="url(#p593b4f5a37)">
     <use style="fill:none;stroke:#ff0000;stroke-width:3;" x="419.567283" xlink:href="#mc4ea20d768" y="291.28"/>
     <use style="fill:none;stroke:#ff0000;stroke-width:3;" x="422.923426" xlink:href="#mc4ea20d768" y="287.525086"/>
     <use style="fill:none;stroke:#ff0000;stroke-width:3;" x="422.923426" xlink:href="#mc4ea20d768" y="283.770171"/>
    </g>
   </g>
   <g id="line2d_104">
    <path clip-path="url(#p593b4f5a37)" style="fill:none;stroke:#ff0000;stroke-linecap:square;stroke-width:3;"/>
   </g>
   <g id="line2d_105">
    <path clip-path="url(#p593b4f5a37)" d="M 432.055238 291.28 
L 432.055238 6.845228 
" style="fill:none;stroke:#000000;stroke-linecap:square;stroke-width:1.5;"/>
    <defs>
     <path d="M -10 0 
L 10 0 
M 0 10 
L 0 -10 
" id="m6a98536274" style="stroke:#000000;stroke-width:3;"/>
    </defs>
    <g clip-path="url(#p593b4f5a37)">
     <use style="stroke:#000000;stroke-width:3;" x="432.055238" xlink:href="#m6a98536274" y="291.28"/>
     <use style="stroke:#000000;stroke-width:3;" x="432.055238" xlink:href="#m6a98536274" y="6.845228"/>
    </g>
   </g>
   <g id="line2d_106">
    <path clip-path="url(#p593b4f5a37)" d="M 432.055238 291.28 
L 432.055238 6.845228 
" style="fill:none;stroke:#000000;stroke-linecap:square;stroke-width:1.5;"/>
    <defs>
     <path d="M 0 7.5 
C 1.989023 7.5 3.896849 6.709753 5.303301 5.303301 
C 6.709753 3.896849 7.5 1.989023 7.5 0 
C 7.5 -1.989023 6.709753 -3.896849 5.303301 -5.303301 
C 3.896849 -6.709753 1.989023 -7.5 0 -7.5 
C -1.989023 -7.5 -3.896849 -6.709753 -5.303301 -5.303301 
C -6.709753 -3.896849 -7.5 -1.989023 -7.5 0 
C -7.5 1.989023 -6.709753 3.896849 -5.303301 5.303301 
C -3.896849 6.709753 -1.989023 7.5 0 7.5 
z
" id="m5b5ea81bca" style="stroke:#000000;stroke-width:3;"/>
    </defs>
    <g clip-path="url(#p593b4f5a37)">
     <use style="fill:none;stroke:#000000;stroke-width:3;" x="432.055238" xlink:href="#m5b5ea81bca" y="291.28"/>
     <use style="fill:none;stroke:#000000;stroke-width:3;" x="432.055238" xlink:href="#m5b5ea81bca" y="6.845228"/>
    </g>
   </g>
   <g id="patch_3">
    <path d="M 59.72 291.28 
L 59.72 6.845228 
" style="fill:none;stroke:#000000;stroke-linecap:square;stroke-linejoin:miter;stroke-width:0.8;"/>
   </g>
   <g id="patch_4">
    <path d="M 450.672 291.28 
L 450.672 6.845228 
" style="fill:none;stroke:#000000;stroke-linecap:square;stroke-linejoin:miter;stroke-width:0.8;"/>
   </g>
   <g id="patch_5">
    <path d="M 59.72 291.28 
L 450.672 291.28 
" style="fill:none;stroke:#000000;stroke-linecap:square;stroke-linejoin:miter;stroke-width:0.8;"/>
   </g>
   <g id="patch_6">
    <path d="M 59.72 6.845228 
L 450.672 6.845228 
" style="fill:none;stroke:#000000;stroke-linecap:square;stroke-linejoin:miter;stroke-width:0.8;"/>
   </g>
   <g id="text_11">
    <!-- f20-f24 -->
    <defs>
     <path d="M 4.890625 31.390625 
L 31.203125 31.390625 
L 31.203125 23.390625 
L 4.890625 23.390625 
z
" id="DejaVuSans-2d"/>
    </defs>
    <g transform="translate(219.097563 27.730798)scale(0.2 -0.2)">
     <use xlink:href="#DejaVuSans-66"/>
     <use x="35.205078" xlink:href="#DejaVuSans-32"/>
     <use x="98.828125" xlink:href="#DejaVuSans-30"/>
     <use x="162.451172" xlink:href="#DejaVuSans-2d"/>
     <use x="198.535156" xlink:href="#DejaVuSans-66"/>
     <use x="233.740234" xlink:href="#DejaVuSans-32"/>
     <use x="297.363281" xlink:href="#DejaVuSans-34"/>
    </g>
   </g>
   <g id="text_12">
    <!-- absolute targets -->
    <defs>
     <path d="M 48.6875 27.296875 
Q 48.6875 37.203125 44.609375 42.84375 
Q 40.53125 48.484375 33.40625 48.484375 
Q 26.265625 48.484375 22.1875 42.84375 
Q 18.109375 37.203125 18.109375 27.296875 
Q 18.109375 17.390625 22.1875 11.75 
Q 26.265625 6.109375 33.40625 6.109375 
Q 40.53125 6.109375 44.609375 11.75 
Q 48.6875 17.390625 48.6875 27.296875 
z
M 18.109375 46.390625 
Q 20.953125 51.265625 25.265625 53.625 
Q 29.59375 56 35.59375 56 
Q 45.5625 56 51.78125 48.09375 
Q 58.015625 40.1875 58.015625 27.296875 
Q 58.015625 14.40625 51.78125 6.484375 
Q 45.5625 -1.421875 35.59375 -1.421875 
Q 29.59375 -1.421875 25.265625 0.953125 
Q 20.953125 3.328125 18.109375 8.203125 
L 18.109375 0 
L 9.078125 0 
L 9.078125 75.984375 
L 18.109375 75.984375 
z
" id="DejaVuSans-62"/>
     <path d="M 8.5 21.578125 
L 8.5 54.6875 
L 17.484375 54.6875 
L 17.484375 21.921875 
Q 17.484375 14.15625 20.5 10.265625 
Q 23.53125 6.390625 29.59375 6.390625 
Q 36.859375 6.390625 41.078125 11.03125 
Q 45.3125 15.671875 45.3125 23.6875 
L 45.3125 54.6875 
L 54.296875 54.6875 
L 54.296875 0 
L 45.3125 0 
L 45.3125 8.40625 
Q 42.046875 3.421875 37.71875 1 
Q 33.40625 -1.421875 27.6875 -1.421875 
Q 18.265625 -1.421875 13.375 4.4375 
Q 8.5 10.296875 8.5 21.578125 
z
M 31.109375 56 
z
" id="DejaVuSans-75"/>
     <path d="M 56.203125 29.59375 
L 56.203125 25.203125 
L 14.890625 25.203125 
Q 15.484375 15.921875 20.484375 11.0625 
Q 25.484375 6.203125 34.421875 6.203125 
Q 39.59375 6.203125 44.453125 7.46875 
Q 49.3125 8.734375 54.109375 11.28125 
L 54.109375 2.78125 
Q 49.265625 0.734375 44.1875 -0.34375 
Q 39.109375 -1.421875 33.890625 -1.421875 
Q 20.796875 -1.421875 13.15625 6.1875 
Q 5.515625 13.8125 5.515625 26.8125 
Q 5.515625 40.234375 12.765625 48.109375 
Q 20.015625 56 32.328125 56 
Q 43.359375 56 49.78125 48.890625 
Q 56.203125 41.796875 56.203125 29.59375 
z
M 47.21875 32.234375 
Q 47.125 39.59375 43.09375 43.984375 
Q 39.0625 48.390625 32.421875 48.390625 
Q 24.90625 48.390625 20.390625 44.140625 
Q 15.875 39.890625 15.1875 32.171875 
z
" id="DejaVuSans-65"/>
    </defs>
    <g transform="translate(59.72 598.807496)scale(0.14 -0.14)">
     <use xlink:href="#DejaVuSans-61"/>
     <use x="61.279297" xlink:href="#DejaVuSans-62"/>
     <use x="124.755859" xlink:href="#DejaVuSans-73"/>
     <use x="176.855469" xlink:href="#DejaVuSans-6f"/>
     <use x="238.037109" xlink:href="#DejaVuSans-6c"/>
     <use x="265.820312" xlink:href="#DejaVuSans-75"/>
     <use x="329.199219" xlink:href="#DejaVuSans-74"/>
     <use x="368.408203" xlink:href="#DejaVuSans-65"/>
     <use x="429.931641" xlink:href="#DejaVuSans-20"/>
     <use x="461.71875" xlink:href="#DejaVuSans-74"/>
     <use x="500.927734" xlink:href="#DejaVuSans-61"/>
     <use x="562.207031" xlink:href="#DejaVuSans-72"/>
     <use x="603.304688" xlink:href="#DejaVuSans-67"/>
     <use x="666.78125" xlink:href="#DejaVuSans-65"/>
     <use x="728.304688" xlink:href="#DejaVuSans-74"/>
     <use x="767.513672" xlink:href="#DejaVuSans-73"/>
    </g>
   </g>
   <g id="text_13">
    <!-- v0.0.0 -->
    <g style="fill:#808080;" transform="translate(239.51475 286.355965)scale(0.1 -0.1)">
     <use xlink:href="#DejaVuSans-76"/>
     <use x="59.179688" xlink:href="#DejaVuSans-30"/>
     <use x="122.802734" xlink:href="#DejaVuSans-2e"/>
     <use x="154.589844" xlink:href="#DejaVuSans-30"/>
     <use x="218.212891" xlink:href="#DejaVuSans-2e"/>
     <use x="250" xlink:href="#DejaVuSans-30"/>
    </g>
   </g>
   <g id="legend_1">
    <g id="patch_7">
     <path d="M 73.72 140.270228 
L 157.660625 140.270228 
Q 161.660625 140.270228 161.660625 136.270228 
L 161.660625 20.845228 
Q 161.660625 16.845228 157.660625 16.845228 
L 73.72 16.845228 
Q 69.72 16.845228 69.72 20.845228 
L 69.72 136.270228 
Q 69.72 140.270228 73.72 140.270228 
z
" style="fill:#ffffff;opacity:0.2;stroke:#cccccc;stroke-linejoin:miter;"/>
    </g>
    <g id="line2d_107">
     <path d="M 77.72 33.042103 
L 117.72 33.042103 
" style="fill:none;stroke:#000000;stroke-linecap:square;stroke-width:1.5;"/>
    </g>
    <g id="line2d_108"/>
    <g id="text_14">
     <!-- 1 -->
     <g transform="translate(133.72 40.042103)scale(0.2 -0.2)">
      <use xlink:href="#DejaVuSans-31"/>
     </g>
    </g>
    <g id="line2d_109">
     <path d="M 77.72 62.398353 
L 117.72 62.398353 
" style="fill:none;stroke:#00bfbf;stroke-linecap:square;stroke-width:1.5;"/>
    </g>
    <g id="line2d_110"/>
    <g id="text_15">
     <!-- -1 -->
     <g transform="translate(133.72 69.398353)scale(0.2 -0.2)">
      <use xlink:href="#DejaVuSans-2d"/>
      <use x="36.083984" xlink:href="#DejaVuSans-31"/>
     </g>
    </g>
    <g id="line2d_111">
     <path d="M 77.72 91.754603 
L 117.72 91.754603 
" style="fill:none;stroke:#bf00bf;stroke-linecap:square;stroke-width:1.5;"/>
    </g>
    <g id="line2d_112"/>
    <g id="text_16">
     <!-- -4 -->
     <g transform="translate(133.72 98.754603)scale(0.2 -0.2)">
      <use xlink:href="#DejaVuSans-2d"/>
      <use x="36.083984" xlink:href="#DejaVuSans-34"/>
     </g>
    </g>
    <g id="line2d_113">
     <path d="M 77.72 121.110853 
L 117.72 121.110853 
" style="fill:none;stroke:#ff0000;stroke-linecap:square;stroke-width:3;"/>
    </g>
    <g id="line2d_114"/>
    <g id="text_17">
     <!-- -8 -->
     <g transform="translate(133.72 128.110853)scale(0.2 -0.2)">
      <use xlink:href="#DejaVuSans-2d"/>
      <use x="36.083984" xlink:href="#DejaVuSans-38"/>
     </g>
    </g>
   </g>
  </g>
 </g>
 <defs>
  <clipPath id="p593b4f5a37">
   <rect height="284.434772" width="390.952" x="59.72" y="6.845228"/>
  </clipPath>
 </defs>
</svg>
