<?xml version="1.0" encoding="utf-8" standalone="no"?>
<!DOCTYPE svg PUBLIC "-//W3C//DTD SVG 1.1//EN"
  "http://www.w3.org/Graphics/SVG/1.1/DTD/svg11.dtd">
<!-- Created with matplotlib (http://matplotlib.org/) -->
<svg height="345pt" version="1.1" viewBox="0 0 460 345" width="460pt" xmlns="http://www.w3.org/2000/svg" xmlns:xlink="http://www.w3.org/1999/xlink">
 <defs>
  <style type="text/css">
*{stroke-linecap:butt;stroke-linejoin:round;}
  </style>
 </defs>
 <g id="figure_1">
  <g id="patch_1">
   <path d="M 0 345.6 
L 460.8 345.6 
L 460.8 0 
L 0 0 
z
" style="fill:#ffffff;"/>
  </g>
  <g id="axes_1">
   <g id="patch_2">
    <path d="M 56.12 294.88 
L 333.168 294.88 
L 333.168 6.845228 
L 56.12 6.845228 
z
" style="fill:#ffffff;"/>
   </g>
   <g id="line2d_1">
    <path d="M 16.541714 294.88 
L 16.541714 288.169813 
L 28.455965 288.169813 
L 28.455965 287.051449 
L 35.425356 287.051449 
L 35.425356 285.933084 
L 40.370217 285.933084 
L 40.370217 284.81472 
L 56.12 284.81472 
L 56.12 283.696355 
L 66.223248 283.696355 
L 66.223248 282.577991 
L 75.003641 282.577991 
L 75.003641 278.104533 
L 75.567254 278.104533 
L 75.567254 274.749439 
L 76.11297 274.749439 
L 76.11297 272.51271 
L 79.948502 272.51271 
L 79.948502 271.394346 
L 81.191596 271.394346 
L 81.191596 270.275981 
L 82.350819 270.275981 
L 82.350819 269.157617 
L 85.732 269.157617 
L 85.732 268.039252 
L 87.481505 268.039252 
L 87.481505 266.920888 
L 88.556144 266.920888 
L 88.556144 265.802523 
L 91.205783 265.802523 
L 91.205783 264.684159 
L 95.351029 264.684159 
L 95.351029 263.565795 
L 99.11626 263.565795 
L 99.11626 262.44743 
L 100.207968 262.44743 
L 100.207968 261.329066 
L 103.231288 261.329066 
L 103.231288 260.210701 
L 103.990531 260.210701 
L 103.990531 259.092337 
L 111.310007 259.092337 
L 111.310007 257.973972 
L 116.884309 257.973972 
L 116.884309 256.855608 
L 126.381204 256.855608 
L 126.381204 255.737243 
L 127.362076 255.737243 
L 127.362076 254.618879 
L 127.578629 254.618879 
L 127.578629 253.500514 
L 130.761732 253.500514 
L 130.761732 252.38215 
L 131.696954 252.38215 
L 131.696954 251.263785 
L 132.664134 251.263785 
L 132.664134 250.145421 
L 133.749684 250.145421 
L 133.749684 249.027056 
L 140.549169 249.027056 
L 140.549169 247.908692 
L 141.804906 247.908692 
L 141.804906 246.790327 
L 149.108066 246.790327 
L 149.108066 245.671963 
L 153.145352 245.671963 
L 153.212081 243.435234 
L 155.16718 243.435234 
L 155.16718 242.316869 
L 156.301482 242.316869 
L 156.301482 241.198505 
L 160.475609 241.198505 
L 160.574519 238.961776 
L 160.602113 238.961776 
L 160.712045 235.606682 
L 160.758944 235.606682 
L 160.860123 232.251589 
L 160.925957 232.251589 
L 160.925957 231.133225 
L 161.079875 231.133225 
L 161.186803 227.778131 
L 161.443749 227.778131 
L 161.526063 225.541402 
L 161.574519 225.541402 
L 161.574519 224.423038 
L 161.880709 224.423038 
L 161.968239 222.186309 
L 162.080643 222.186309 
L 162.080643 221.067944 
L 162.25325 221.067944 
L 162.25325 219.94958 
L 162.438305 219.94958 
L 162.438305 218.831215 
L 162.582822 218.831215 
L 162.666857 216.594486 
L 162.909639 216.594486 
L 162.909639 215.476122 
L 163.108235 215.476122 
L 163.193134 213.239393 
L 163.515304 213.239393 
L 163.515304 212.121028 
L 163.64118 212.121028 
L 163.64118 211.002664 
L 163.75303 211.002664 
L 163.75303 209.884299 
L 165.18677 209.884299 
L 165.18677 208.765935 
L 165.42047 208.765935 
L 165.500631 206.529206 
L 166.355762 206.529206 
L 166.355762 205.410841 
L 166.63253 205.410841 
L 166.737592 203.174112 
L 166.784387 203.174112 
L 166.784387 202.055748 
L 167.057098 202.055748 
L 167.148843 199.819019 
L 167.330876 199.819019 
L 167.330876 198.700655 
L 167.455577 198.700655 
L 167.56625 196.463926 
L 167.764723 196.463926 
L 167.842442 194.227197 
L 167.881169 194.227197 
L 167.881169 193.108832 
L 168.083708 193.108832 
L 168.083708 191.990468 
L 168.195487 191.990468 
L 168.220791 189.753739 
L 168.41689 189.753739 
L 168.501673 185.280281 
L 168.536463 185.280281 
L 168.536463 184.161916 
L 168.768246 184.161916 
L 168.797611 181.925187 
L 168.941267 181.925187 
L 168.941267 180.806823 
L 170.261607 180.806823 
L 170.340017 177.451729 
L 171.625164 177.451729 
L 171.643821 175.215 
L 171.839535 175.215 
L 171.913122 171.859907 
L 172.004664 171.859907 
L 172.004664 170.741543 
L 175.316142 170.741543 
L 175.404602 165.14972 
L 175.447831 165.14972 
L 175.459451 162.912991 
L 176.958653 162.912991 
L 177.037556 159.557898 
L 179.980108 159.557898 
L 180.053939 156.202804 
L 180.282325 156.202804 
L 180.314884 153.966075 
L 181.06638 153.966075 
L 181.06638 152.847711 
L 181.215427 152.847711 
L 181.300695 150.610982 
L 181.349062 150.610982 
L 181.349062 149.492617 
L 181.750752 149.492617 
L 181.750752 148.374253 
L 182.305601 148.374253 
L 182.305601 147.255888 
L 183.384191 147.255888 
L 183.384191 146.137524 
L 184.827743 146.137524 
L 184.827743 145.019159 
L 196.431301 145.019159 
L 196.431301 143.900795 
L 199.289198 143.900795 
L 199.289198 142.78243 
L 202.492401 142.78243 
L 202.492401 141.664066 
L 206.992308 141.664066 
L 206.992308 140.545702 
L 207.512756 140.545702 
L 207.512756 139.427337 
L 211.279816 139.427337 
L 211.279816 138.308973 
L 211.696999 138.308973 
L 211.696999 137.190608 
L 214.218845 137.190608 
L 214.218845 136.072244 
L 223.355511 136.072244 
L 223.355511 134.953879 
L 224.904554 134.953879 
L 224.978608 132.71715 
L 226.457478 132.71715 
L 226.568134 129.362057 
L 226.645931 129.362057 
L 226.753118 126.006963 
L 226.801985 126.006963 
L 226.889812 122.65187 
L 226.936465 122.65187 
L 227.016089 119.296776 
L 227.053495 119.296776 
L 227.150634 115.941683 
L 227.185948 115.941683 
L 227.254403 112.586589 
L 227.297801 112.586589 
L 227.402305 108.113132 
L 227.437993 108.113132 
L 227.515092 104.758038 
L 227.568087 104.758038 
L 227.661732 101.402945 
L 227.699032 101.402945 
L 227.699032 100.28458 
L 232.805101 100.28458 
L 232.805101 99.166216 
L 240.3589 99.166216 
L 240.3589 98.047851 
L 241.063952 98.047851 
L 241.063952 96.929487 
L 243.735679 96.929487 
L 243.8467 94.692758 
L 244.043853 94.692758 
L 244.137162 92.456029 
L 244.241107 92.456029 
L 244.326954 87.982571 
L 244.367066 87.982571 
L 244.469664 82.390748 
L 244.492198 82.390748 
L 244.573083 77.917291 
L 244.603655 77.917291 
L 244.699773 72.325468 
L 244.717906 72.325468 
L 244.824627 66.733646 
L 244.846525 66.733646 
L 244.941853 61.141823 
L 244.968489 61.141823 
L 245.032076 56.668365 
L 252.288663 56.668365 
L 252.288663 55.550001 
L 254.767361 55.550001 
L 254.767361 54.431636 
L 273.726578 54.431636 
L 273.726578 53.313272 
L 281.591308 53.313272 
L 281.591308 52.194907 
L 303.089624 52.194907 
L 303.089624 51.076543 
L 328.165393 51.076543 
L 328.17278 9.697057 
L 333.168 9.697057 
L 333.168 9.697057 
" style="fill:none;stroke:#f5deb3;stroke-linecap:square;stroke-width:4;"/>
   </g>
   <g id="line2d_2">
    <defs>
     <path d="M -0 7.778175 
L 7.778175 0 
L 0 -7.778175 
L -7.778175 -0 
z
" id="mef0259be29" style="stroke:#f5deb3;stroke-linejoin:miter;stroke-width:1.5;"/>
    </defs>
    <g>
     <use style="fill:#f5deb3;stroke:#f5deb3;stroke-linejoin:miter;stroke-width:1.5;" x="100.207968" xlink:href="#mef0259be29" y="261.329066"/>
     <use style="fill:#f5deb3;stroke:#f5deb3;stroke-linejoin:miter;stroke-width:1.5;" x="170.340017" xlink:href="#mef0259be29" y="177.451729"/>
     <use style="fill:#f5deb3;stroke:#f5deb3;stroke-linejoin:miter;stroke-width:1.5;" x="224.978608" xlink:href="#mef0259be29" y="132.71715"/>
     <use style="fill:#f5deb3;stroke:#f5deb3;stroke-linejoin:miter;stroke-width:1.5;" x="303.089624" xlink:href="#mef0259be29" y="52.194907"/>
     <use style="fill:#f5deb3;stroke:#f5deb3;stroke-linejoin:miter;stroke-width:1.5;" x="328.17278" xlink:href="#mef0259be29" y="9.697057"/>
     <use style="fill:#f5deb3;stroke:#f5deb3;stroke-linejoin:miter;stroke-width:1.5;" x="333.168" xlink:href="#mef0259be29" y="9.697057"/>
    </g>
   </g>
   <g id="line2d_3">
    <path style="fill:none;stroke:#f5deb3;stroke-linecap:square;stroke-width:4;"/>
    <g/>
   </g>
   <g id="line2d_4">
    <path d="M 333.168 9.697057 
L 363.64328 15.400716 
" style="fill:none;stroke:#f5deb3;stroke-linecap:square;stroke-width:4;"/>
    <g>
     <use style="fill:#f5deb3;stroke:#f5deb3;stroke-linejoin:miter;stroke-width:1.5;" x="333.168" xlink:href="#mef0259be29" y="9.697057"/>
     <use style="fill:#f5deb3;stroke:#f5deb3;stroke-linejoin:miter;stroke-width:1.5;" x="363.64328" xlink:href="#mef0259be29" y="15.400716"/>
    </g>
   </g>
   <g id="matplotlib.axis_1">
    <g id="xtick_1">
     <g id="line2d_5">
      <path clip-path="url(#p374f9bc9e1)" d="M 56.12 294.88 
L 56.12 6.845228 
" style="fill:none;stroke:#b0b0b0;stroke-linecap:square;stroke-width:0.8;"/>
     </g>
     <g id="line2d_6">
      <defs>
       <path d="M 0 0 
L 0 3.5 
" id="m5a0ae7b261" style="stroke:#000000;stroke-width:0.8;"/>
      </defs>
      <g>
       <use style="stroke:#000000;stroke-width:0.8;" x="56.12" xlink:href="#m5a0ae7b261" y="294.88"/>
      </g>
     </g>
     <g id="text_1">
      <!-- 0 -->
      <defs>
       <path d="M 31.78125 66.40625 
Q 24.171875 66.40625 20.328125 58.90625 
Q 16.5 51.421875 16.5 36.375 
Q 16.5 21.390625 20.328125 13.890625 
Q 24.171875 6.390625 31.78125 6.390625 
Q 39.453125 6.390625 43.28125 13.890625 
Q 47.125 21.390625 47.125 36.375 
Q 47.125 51.421875 43.28125 58.90625 
Q 39.453125 66.40625 31.78125 66.40625 
z
M 31.78125 74.21875 
Q 44.046875 74.21875 50.515625 64.515625 
Q 56.984375 54.828125 56.984375 36.375 
Q 56.984375 17.96875 50.515625 8.265625 
Q 44.046875 -1.421875 31.78125 -1.421875 
Q 19.53125 -1.421875 13.0625 8.265625 
Q 6.59375 17.96875 6.59375 36.375 
Q 6.59375 54.828125 13.0625 64.515625 
Q 19.53125 74.21875 31.78125 74.21875 
z
" id="DejaVuSans-30"/>
      </defs>
      <g transform="translate(49.7575 317.076875)scale(0.2 -0.2)">
       <use xlink:href="#DejaVuSans-30"/>
      </g>
     </g>
    </g>
    <g id="xtick_2">
     <g id="line2d_7">
      <path clip-path="url(#p374f9bc9e1)" d="M 135.276571 294.88 
L 135.276571 6.845228 
" style="fill:none;stroke:#b0b0b0;stroke-linecap:square;stroke-width:0.8;"/>
     </g>
     <g id="line2d_8">
      <g>
       <use style="stroke:#000000;stroke-width:0.8;" x="135.276571" xlink:href="#m5a0ae7b261" y="294.88"/>
      </g>
     </g>
     <g id="text_2">
      <!-- 2 -->
      <defs>
       <path d="M 19.1875 8.296875 
L 53.609375 8.296875 
L 53.609375 0 
L 7.328125 0 
L 7.328125 8.296875 
Q 12.9375 14.109375 22.625 23.890625 
Q 32.328125 33.6875 34.8125 36.53125 
Q 39.546875 41.84375 41.421875 45.53125 
Q 43.3125 49.21875 43.3125 52.78125 
Q 43.3125 58.59375 39.234375 62.25 
Q 35.15625 65.921875 28.609375 65.921875 
Q 23.96875 65.921875 18.8125 64.3125 
Q 13.671875 62.703125 7.8125 59.421875 
L 7.8125 69.390625 
Q 13.765625 71.78125 18.9375 73 
Q 24.125 74.21875 28.421875 74.21875 
Q 39.75 74.21875 46.484375 68.546875 
Q 53.21875 62.890625 53.21875 53.421875 
Q 53.21875 48.921875 51.53125 44.890625 
Q 49.859375 40.875 45.40625 35.40625 
Q 44.1875 33.984375 37.640625 27.21875 
Q 31.109375 20.453125 19.1875 8.296875 
z
" id="DejaVuSans-32"/>
      </defs>
      <g transform="translate(128.914071 317.076875)scale(0.2 -0.2)">
       <use xlink:href="#DejaVuSans-32"/>
      </g>
     </g>
    </g>
    <g id="xtick_3">
     <g id="line2d_9">
      <path clip-path="url(#p374f9bc9e1)" d="M 214.433143 294.88 
L 214.433143 6.845228 
" style="fill:none;stroke:#b0b0b0;stroke-linecap:square;stroke-width:0.8;"/>
     </g>
     <g id="line2d_10">
      <g>
       <use style="stroke:#000000;stroke-width:0.8;" x="214.433143" xlink:href="#m5a0ae7b261" y="294.88"/>
      </g>
     </g>
     <g id="text_3">
      <!-- 4 -->
      <defs>
       <path d="M 37.796875 64.3125 
L 12.890625 25.390625 
L 37.796875 25.390625 
z
M 35.203125 72.90625 
L 47.609375 72.90625 
L 47.609375 25.390625 
L 58.015625 25.390625 
L 58.015625 17.1875 
L 47.609375 17.1875 
L 47.609375 0 
L 37.796875 0 
L 37.796875 17.1875 
L 4.890625 17.1875 
L 4.890625 26.703125 
z
" id="DejaVuSans-34"/>
      </defs>
      <g transform="translate(208.070643 317.076875)scale(0.2 -0.2)">
       <use xlink:href="#DejaVuSans-34"/>
      </g>
     </g>
    </g>
    <g id="xtick_4">
     <g id="line2d_11">
      <path clip-path="url(#p374f9bc9e1)" d="M 293.589714 294.88 
L 293.589714 6.845228 
" style="fill:none;stroke:#b0b0b0;stroke-linecap:square;stroke-width:0.8;"/>
     </g>
     <g id="line2d_12">
      <g>
       <use style="stroke:#000000;stroke-width:0.8;" x="293.589714" xlink:href="#m5a0ae7b261" y="294.88"/>
      </g>
     </g>
     <g id="text_4">
      <!-- 6 -->
      <defs>
       <path d="M 33.015625 40.375 
Q 26.375 40.375 22.484375 35.828125 
Q 18.609375 31.296875 18.609375 23.390625 
Q 18.609375 15.53125 22.484375 10.953125 
Q 26.375 6.390625 33.015625 6.390625 
Q 39.65625 6.390625 43.53125 10.953125 
Q 47.40625 15.53125 47.40625 23.390625 
Q 47.40625 31.296875 43.53125 35.828125 
Q 39.65625 40.375 33.015625 40.375 
z
M 52.59375 71.296875 
L 52.59375 62.3125 
Q 48.875 64.0625 45.09375 64.984375 
Q 41.3125 65.921875 37.59375 65.921875 
Q 27.828125 65.921875 22.671875 59.328125 
Q 17.53125 52.734375 16.796875 39.40625 
Q 19.671875 43.65625 24.015625 45.921875 
Q 28.375 48.1875 33.59375 48.1875 
Q 44.578125 48.1875 50.953125 41.515625 
Q 57.328125 34.859375 57.328125 23.390625 
Q 57.328125 12.15625 50.6875 5.359375 
Q 44.046875 -1.421875 33.015625 -1.421875 
Q 20.359375 -1.421875 13.671875 8.265625 
Q 6.984375 17.96875 6.984375 36.375 
Q 6.984375 53.65625 15.1875 63.9375 
Q 23.390625 74.21875 37.203125 74.21875 
Q 40.921875 74.21875 44.703125 73.484375 
Q 48.484375 72.75 52.59375 71.296875 
z
" id="DejaVuSans-36"/>
      </defs>
      <g transform="translate(287.227214 317.076875)scale(0.2 -0.2)">
       <use xlink:href="#DejaVuSans-36"/>
      </g>
     </g>
    </g>
    <g id="xtick_5">
     <g id="line2d_13">
      <path clip-path="url(#p374f9bc9e1)" d="M 56.12 294.88 
L 56.12 6.845228 
" style="fill:none;stroke:#b0b0b0;stroke-linecap:square;stroke-width:0.8;"/>
     </g>
     <g id="line2d_14">
      <defs>
       <path d="M 0 0 
L 0 2 
" id="ma882189cf3" style="stroke:#000000;stroke-width:0.6;"/>
      </defs>
      <g>
       <use style="stroke:#000000;stroke-width:0.6;" x="56.12" xlink:href="#ma882189cf3" y="294.88"/>
      </g>
     </g>
    </g>
    <g id="xtick_6">
     <g id="line2d_15">
      <path clip-path="url(#p374f9bc9e1)" d="M 95.698286 294.88 
L 95.698286 6.845228 
" style="fill:none;stroke:#b0b0b0;stroke-linecap:square;stroke-width:0.8;"/>
     </g>
     <g id="line2d_16">
      <g>
       <use style="stroke:#000000;stroke-width:0.6;" x="95.698286" xlink:href="#ma882189cf3" y="294.88"/>
      </g>
     </g>
    </g>
    <g id="xtick_7">
     <g id="line2d_17">
      <path clip-path="url(#p374f9bc9e1)" d="M 135.276571 294.88 
L 135.276571 6.845228 
" style="fill:none;stroke:#b0b0b0;stroke-linecap:square;stroke-width:0.8;"/>
     </g>
     <g id="line2d_18">
      <g>
       <use style="stroke:#000000;stroke-width:0.6;" x="135.276571" xlink:href="#ma882189cf3" y="294.88"/>
      </g>
     </g>
    </g>
    <g id="xtick_8">
     <g id="line2d_19">
      <path clip-path="url(#p374f9bc9e1)" d="M 174.854857 294.88 
L 174.854857 6.845228 
" style="fill:none;stroke:#b0b0b0;stroke-linecap:square;stroke-width:0.8;"/>
     </g>
     <g id="line2d_20">
      <g>
       <use style="stroke:#000000;stroke-width:0.6;" x="174.854857" xlink:href="#ma882189cf3" y="294.88"/>
      </g>
     </g>
    </g>
    <g id="xtick_9">
     <g id="line2d_21">
      <path clip-path="url(#p374f9bc9e1)" d="M 214.433143 294.88 
L 214.433143 6.845228 
" style="fill:none;stroke:#b0b0b0;stroke-linecap:square;stroke-width:0.8;"/>
     </g>
     <g id="line2d_22">
      <g>
       <use style="stroke:#000000;stroke-width:0.6;" x="214.433143" xlink:href="#ma882189cf3" y="294.88"/>
      </g>
     </g>
    </g>
    <g id="xtick_10">
     <g id="line2d_23">
      <path clip-path="url(#p374f9bc9e1)" d="M 254.011429 294.88 
L 254.011429 6.845228 
" style="fill:none;stroke:#b0b0b0;stroke-linecap:square;stroke-width:0.8;"/>
     </g>
     <g id="line2d_24">
      <g>
       <use style="stroke:#000000;stroke-width:0.6;" x="254.011429" xlink:href="#ma882189cf3" y="294.88"/>
      </g>
     </g>
    </g>
    <g id="xtick_11">
     <g id="line2d_25">
      <path clip-path="url(#p374f9bc9e1)" d="M 293.589714 294.88 
L 293.589714 6.845228 
" style="fill:none;stroke:#b0b0b0;stroke-linecap:square;stroke-width:0.8;"/>
     </g>
     <g id="line2d_26">
      <g>
       <use style="stroke:#000000;stroke-width:0.6;" x="293.589714" xlink:href="#ma882189cf3" y="294.88"/>
      </g>
     </g>
    </g>
    <g id="xtick_12">
     <g id="line2d_27">
      <path clip-path="url(#p374f9bc9e1)" d="M 333.168 294.88 
L 333.168 6.845228 
" style="fill:none;stroke:#b0b0b0;stroke-linecap:square;stroke-width:0.8;"/>
     </g>
     <g id="line2d_28">
      <g>
       <use style="stroke:#000000;stroke-width:0.6;" x="333.168" xlink:href="#ma882189cf3" y="294.88"/>
      </g>
     </g>
    </g>
    <g id="text_5">
     <!-- log10(# f-evals / dimension) -->
     <defs>
      <path d="M 9.421875 75.984375 
L 18.40625 75.984375 
L 18.40625 0 
L 9.421875 0 
z
" id="DejaVuSans-6c"/>
      <path d="M 30.609375 48.390625 
Q 23.390625 48.390625 19.1875 42.75 
Q 14.984375 37.109375 14.984375 27.296875 
Q 14.984375 17.484375 19.15625 11.84375 
Q 23.34375 6.203125 30.609375 6.203125 
Q 37.796875 6.203125 41.984375 11.859375 
Q 46.1875 17.53125 46.1875 27.296875 
Q 46.1875 37.015625 41.984375 42.703125 
Q 37.796875 48.390625 30.609375 48.390625 
z
M 30.609375 56 
Q 42.328125 56 49.015625 48.375 
Q 55.71875 40.765625 55.71875 27.296875 
Q 55.71875 13.875 49.015625 6.21875 
Q 42.328125 -1.421875 30.609375 -1.421875 
Q 18.84375 -1.421875 12.171875 6.21875 
Q 5.515625 13.875 5.515625 27.296875 
Q 5.515625 40.765625 12.171875 48.375 
Q 18.84375 56 30.609375 56 
z
" id="DejaVuSans-6f"/>
      <path d="M 45.40625 27.984375 
Q 45.40625 37.75 41.375 43.109375 
Q 37.359375 48.484375 30.078125 48.484375 
Q 22.859375 48.484375 18.828125 43.109375 
Q 14.796875 37.75 14.796875 27.984375 
Q 14.796875 18.265625 18.828125 12.890625 
Q 22.859375 7.515625 30.078125 7.515625 
Q 37.359375 7.515625 41.375 12.890625 
Q 45.40625 18.265625 45.40625 27.984375 
z
M 54.390625 6.78125 
Q 54.390625 -7.171875 48.1875 -13.984375 
Q 42 -20.796875 29.203125 -20.796875 
Q 24.46875 -20.796875 20.265625 -20.09375 
Q 16.0625 -19.390625 12.109375 -17.921875 
L 12.109375 -9.1875 
Q 16.0625 -11.328125 19.921875 -12.34375 
Q 23.78125 -13.375 27.78125 -13.375 
Q 36.625 -13.375 41.015625 -8.765625 
Q 45.40625 -4.15625 45.40625 5.171875 
L 45.40625 9.625 
Q 42.625 4.78125 38.28125 2.390625 
Q 33.9375 0 27.875 0 
Q 17.828125 0 11.671875 7.65625 
Q 5.515625 15.328125 5.515625 27.984375 
Q 5.515625 40.671875 11.671875 48.328125 
Q 17.828125 56 27.875 56 
Q 33.9375 56 38.28125 53.609375 
Q 42.625 51.21875 45.40625 46.390625 
L 45.40625 54.6875 
L 54.390625 54.6875 
z
" id="DejaVuSans-67"/>
      <path d="M 12.40625 8.296875 
L 28.515625 8.296875 
L 28.515625 63.921875 
L 10.984375 60.40625 
L 10.984375 69.390625 
L 28.421875 72.90625 
L 38.28125 72.90625 
L 38.28125 8.296875 
L 54.390625 8.296875 
L 54.390625 0 
L 12.40625 0 
z
" id="DejaVuSans-31"/>
      <path d="M 31 75.875 
Q 24.46875 64.65625 21.28125 53.65625 
Q 18.109375 42.671875 18.109375 31.390625 
Q 18.109375 20.125 21.3125 9.0625 
Q 24.515625 -2 31 -13.1875 
L 23.1875 -13.1875 
Q 15.875 -1.703125 12.234375 9.375 
Q 8.59375 20.453125 8.59375 31.390625 
Q 8.59375 42.28125 12.203125 53.3125 
Q 15.828125 64.359375 23.1875 75.875 
z
" id="DejaVuSans-28"/>
      <path d="M 51.125 44 
L 36.921875 44 
L 32.8125 27.6875 
L 47.125 27.6875 
z
M 43.796875 71.78125 
L 38.71875 51.515625 
L 52.984375 51.515625 
L 58.109375 71.78125 
L 65.921875 71.78125 
L 60.890625 51.515625 
L 76.125 51.515625 
L 76.125 44 
L 58.984375 44 
L 54.984375 27.6875 
L 70.515625 27.6875 
L 70.515625 20.21875 
L 53.078125 20.21875 
L 48 0 
L 40.1875 0 
L 45.21875 20.21875 
L 30.90625 20.21875 
L 25.875 0 
L 18.015625 0 
L 23.09375 20.21875 
L 7.71875 20.21875 
L 7.71875 27.6875 
L 24.90625 27.6875 
L 29 44 
L 13.28125 44 
L 13.28125 51.515625 
L 30.90625 51.515625 
L 35.890625 71.78125 
z
" id="DejaVuSans-23"/>
      <path id="DejaVuSans-20"/>
      <path d="M 37.109375 75.984375 
L 37.109375 68.5 
L 28.515625 68.5 
Q 23.6875 68.5 21.796875 66.546875 
Q 19.921875 64.59375 19.921875 59.515625 
L 19.921875 54.6875 
L 34.71875 54.6875 
L 34.71875 47.703125 
L 19.921875 47.703125 
L 19.921875 0 
L 10.890625 0 
L 10.890625 47.703125 
L 2.296875 47.703125 
L 2.296875 54.6875 
L 10.890625 54.6875 
L 10.890625 58.5 
Q 10.890625 67.625 15.140625 71.796875 
Q 19.390625 75.984375 28.609375 75.984375 
z
" id="DejaVuSans-66"/>
      <path d="M 4.890625 31.390625 
L 31.203125 31.390625 
L 31.203125 23.390625 
L 4.890625 23.390625 
z
" id="DejaVuSans-2d"/>
      <path d="M 56.203125 29.59375 
L 56.203125 25.203125 
L 14.890625 25.203125 
Q 15.484375 15.921875 20.484375 11.0625 
Q 25.484375 6.203125 34.421875 6.203125 
Q 39.59375 6.203125 44.453125 7.46875 
Q 49.3125 8.734375 54.109375 11.28125 
L 54.109375 2.78125 
Q 49.265625 0.734375 44.1875 -0.34375 
Q 39.109375 -1.421875 33.890625 -1.421875 
Q 20.796875 -1.421875 13.15625 6.1875 
Q 5.515625 13.8125 5.515625 26.8125 
Q 5.515625 40.234375 12.765625 48.109375 
Q 20.015625 56 32.328125 56 
Q 43.359375 56 49.78125 48.890625 
Q 56.203125 41.796875 56.203125 29.59375 
z
M 47.21875 32.234375 
Q 47.125 39.59375 43.09375 43.984375 
Q 39.0625 48.390625 32.421875 48.390625 
Q 24.90625 48.390625 20.390625 44.140625 
Q 15.875 39.890625 15.1875 32.171875 
z
" id="DejaVuSans-65"/>
      <path d="M 2.984375 54.6875 
L 12.5 54.6875 
L 29.59375 8.796875 
L 46.6875 54.6875 
L 56.203125 54.6875 
L 35.6875 0 
L 23.484375 0 
z
" id="DejaVuSans-76"/>
      <path d="M 34.28125 27.484375 
Q 23.390625 27.484375 19.1875 25 
Q 14.984375 22.515625 14.984375 16.5 
Q 14.984375 11.71875 18.140625 8.90625 
Q 21.296875 6.109375 26.703125 6.109375 
Q 34.1875 6.109375 38.703125 11.40625 
Q 43.21875 16.703125 43.21875 25.484375 
L 43.21875 27.484375 
z
M 52.203125 31.203125 
L 52.203125 0 
L 43.21875 0 
L 43.21875 8.296875 
Q 40.140625 3.328125 35.546875 0.953125 
Q 30.953125 -1.421875 24.3125 -1.421875 
Q 15.921875 -1.421875 10.953125 3.296875 
Q 6 8.015625 6 15.921875 
Q 6 25.140625 12.171875 29.828125 
Q 18.359375 34.515625 30.609375 34.515625 
L 43.21875 34.515625 
L 43.21875 35.40625 
Q 43.21875 41.609375 39.140625 45 
Q 35.0625 48.390625 27.6875 48.390625 
Q 23 48.390625 18.546875 47.265625 
Q 14.109375 46.140625 10.015625 43.890625 
L 10.015625 52.203125 
Q 14.9375 54.109375 19.578125 55.046875 
Q 24.21875 56 28.609375 56 
Q 40.484375 56 46.34375 49.84375 
Q 52.203125 43.703125 52.203125 31.203125 
z
" id="DejaVuSans-61"/>
      <path d="M 44.28125 53.078125 
L 44.28125 44.578125 
Q 40.484375 46.53125 36.375 47.5 
Q 32.28125 48.484375 27.875 48.484375 
Q 21.1875 48.484375 17.84375 46.4375 
Q 14.5 44.390625 14.5 40.28125 
Q 14.5 37.15625 16.890625 35.375 
Q 19.28125 33.59375 26.515625 31.984375 
L 29.59375 31.296875 
Q 39.15625 29.25 43.1875 25.515625 
Q 47.21875 21.78125 47.21875 15.09375 
Q 47.21875 7.46875 41.1875 3.015625 
Q 35.15625 -1.421875 24.609375 -1.421875 
Q 20.21875 -1.421875 15.453125 -0.5625 
Q 10.6875 0.296875 5.421875 2 
L 5.421875 11.28125 
Q 10.40625 8.6875 15.234375 7.390625 
Q 20.0625 6.109375 24.8125 6.109375 
Q 31.15625 6.109375 34.5625 8.28125 
Q 37.984375 10.453125 37.984375 14.40625 
Q 37.984375 18.0625 35.515625 20.015625 
Q 33.0625 21.96875 24.703125 23.78125 
L 21.578125 24.515625 
Q 13.234375 26.265625 9.515625 29.90625 
Q 5.8125 33.546875 5.8125 39.890625 
Q 5.8125 47.609375 11.28125 51.796875 
Q 16.75 56 26.8125 56 
Q 31.78125 56 36.171875 55.265625 
Q 40.578125 54.546875 44.28125 53.078125 
z
" id="DejaVuSans-73"/>
      <path d="M 25.390625 72.90625 
L 33.6875 72.90625 
L 8.296875 -9.28125 
L 0 -9.28125 
z
" id="DejaVuSans-2f"/>
      <path d="M 45.40625 46.390625 
L 45.40625 75.984375 
L 54.390625 75.984375 
L 54.390625 0 
L 45.40625 0 
L 45.40625 8.203125 
Q 42.578125 3.328125 38.25 0.953125 
Q 33.9375 -1.421875 27.875 -1.421875 
Q 17.96875 -1.421875 11.734375 6.484375 
Q 5.515625 14.40625 5.515625 27.296875 
Q 5.515625 40.1875 11.734375 48.09375 
Q 17.96875 56 27.875 56 
Q 33.9375 56 38.25 53.625 
Q 42.578125 51.265625 45.40625 46.390625 
z
M 14.796875 27.296875 
Q 14.796875 17.390625 18.875 11.75 
Q 22.953125 6.109375 30.078125 6.109375 
Q 37.203125 6.109375 41.296875 11.75 
Q 45.40625 17.390625 45.40625 27.296875 
Q 45.40625 37.203125 41.296875 42.84375 
Q 37.203125 48.484375 30.078125 48.484375 
Q 22.953125 48.484375 18.875 42.84375 
Q 14.796875 37.203125 14.796875 27.296875 
z
" id="DejaVuSans-64"/>
      <path d="M 9.421875 54.6875 
L 18.40625 54.6875 
L 18.40625 0 
L 9.421875 0 
z
M 9.421875 75.984375 
L 18.40625 75.984375 
L 18.40625 64.59375 
L 9.421875 64.59375 
z
" id="DejaVuSans-69"/>
      <path d="M 52 44.1875 
Q 55.375 50.25 60.0625 53.125 
Q 64.75 56 71.09375 56 
Q 79.640625 56 84.28125 50.015625 
Q 88.921875 44.046875 88.921875 33.015625 
L 88.921875 0 
L 79.890625 0 
L 79.890625 32.71875 
Q 79.890625 40.578125 77.09375 44.375 
Q 74.3125 48.1875 68.609375 48.1875 
Q 61.625 48.1875 57.5625 43.546875 
Q 53.515625 38.921875 53.515625 30.90625 
L 53.515625 0 
L 44.484375 0 
L 44.484375 32.71875 
Q 44.484375 40.625 41.703125 44.40625 
Q 38.921875 48.1875 33.109375 48.1875 
Q 26.21875 48.1875 22.15625 43.53125 
Q 18.109375 38.875 18.109375 30.90625 
L 18.109375 0 
L 9.078125 0 
L 9.078125 54.6875 
L 18.109375 54.6875 
L 18.109375 46.1875 
Q 21.1875 51.21875 25.484375 53.609375 
Q 29.78125 56 35.6875 56 
Q 41.65625 56 45.828125 52.96875 
Q 50 49.953125 52 44.1875 
z
" id="DejaVuSans-6d"/>
      <path d="M 54.890625 33.015625 
L 54.890625 0 
L 45.90625 0 
L 45.90625 32.71875 
Q 45.90625 40.484375 42.875 44.328125 
Q 39.84375 48.1875 33.796875 48.1875 
Q 26.515625 48.1875 22.3125 43.546875 
Q 18.109375 38.921875 18.109375 30.90625 
L 18.109375 0 
L 9.078125 0 
L 9.078125 54.6875 
L 18.109375 54.6875 
L 18.109375 46.1875 
Q 21.34375 51.125 25.703125 53.5625 
Q 30.078125 56 35.796875 56 
Q 45.21875 56 50.046875 50.171875 
Q 54.890625 44.34375 54.890625 33.015625 
z
" id="DejaVuSans-6e"/>
      <path d="M 8.015625 75.875 
L 15.828125 75.875 
Q 23.140625 64.359375 26.78125 53.3125 
Q 30.421875 42.28125 30.421875 31.390625 
Q 30.421875 20.453125 26.78125 9.375 
Q 23.140625 -1.703125 15.828125 -13.1875 
L 8.015625 -13.1875 
Q 14.5 -2 17.703125 9.0625 
Q 20.90625 20.125 20.90625 31.390625 
Q 20.90625 42.671875 17.703125 53.65625 
Q 14.5 64.65625 8.015625 75.875 
z
" id="DejaVuSans-29"/>
     </defs>
     <g transform="translate(73.803219 338.153594)scale(0.17 -0.17)">
      <use xlink:href="#DejaVuSans-6c"/>
      <use x="27.783203" xlink:href="#DejaVuSans-6f"/>
      <use x="88.964844" xlink:href="#DejaVuSans-67"/>
      <use x="152.441406" xlink:href="#DejaVuSans-31"/>
      <use x="216.064453" xlink:href="#DejaVuSans-30"/>
      <use x="279.6875" xlink:href="#DejaVuSans-28"/>
      <use x="318.701172" xlink:href="#DejaVuSans-23"/>
      <use x="402.490234" xlink:href="#DejaVuSans-20"/>
      <use x="434.277344" xlink:href="#DejaVuSans-66"/>
      <use x="469.404297" xlink:href="#DejaVuSans-2d"/>
      <use x="505.488281" xlink:href="#DejaVuSans-65"/>
      <use x="567.011719" xlink:href="#DejaVuSans-76"/>
      <use x="626.191406" xlink:href="#DejaVuSans-61"/>
      <use x="687.470703" xlink:href="#DejaVuSans-6c"/>
      <use x="715.253906" xlink:href="#DejaVuSans-73"/>
      <use x="767.353516" xlink:href="#DejaVuSans-20"/>
      <use x="799.140625" xlink:href="#DejaVuSans-2f"/>
      <use x="832.832031" xlink:href="#DejaVuSans-20"/>
      <use x="864.619141" xlink:href="#DejaVuSans-64"/>
      <use x="928.095703" xlink:href="#DejaVuSans-69"/>
      <use x="955.878906" xlink:href="#DejaVuSans-6d"/>
      <use x="1053.291016" xlink:href="#DejaVuSans-65"/>
      <use x="1114.814453" xlink:href="#DejaVuSans-6e"/>
      <use x="1178.193359" xlink:href="#DejaVuSans-73"/>
      <use x="1230.292969" xlink:href="#DejaVuSans-69"/>
      <use x="1258.076172" xlink:href="#DejaVuSans-6f"/>
      <use x="1319.257812" xlink:href="#DejaVuSans-6e"/>
      <use x="1382.636719" xlink:href="#DejaVuSans-29"/>
     </g>
    </g>
   </g>
   <g id="matplotlib.axis_2">
    <g id="ytick_1">
     <g id="line2d_29">
      <path clip-path="url(#p374f9bc9e1)" d="M 56.12 294.88 
L 333.168 294.88 
" style="fill:none;stroke:#b0b0b0;stroke-linecap:square;stroke-width:0.8;"/>
     </g>
     <g id="line2d_30">
      <defs>
       <path d="M 0 0 
L -3.5 0 
" id="mc16e1fe01e" style="stroke:#000000;stroke-width:0.8;"/>
      </defs>
      <g>
       <use style="stroke:#000000;stroke-width:0.8;" x="56.12" xlink:href="#mc16e1fe01e" y="294.88"/>
      </g>
     </g>
     <g id="text_6">
      <!-- 0.0 -->
      <defs>
       <path d="M 10.6875 12.40625 
L 21 12.40625 
L 21 0 
L 10.6875 0 
z
" id="DejaVuSans-2e"/>
      </defs>
      <g transform="translate(23.675 300.95875)scale(0.16 -0.16)">
       <use xlink:href="#DejaVuSans-30"/>
       <use x="63.623047" xlink:href="#DejaVuSans-2e"/>
       <use x="95.410156" xlink:href="#DejaVuSans-30"/>
      </g>
     </g>
    </g>
    <g id="ytick_2">
     <g id="line2d_31">
      <path clip-path="url(#p374f9bc9e1)" d="M 56.12 237.843411 
L 333.168 237.843411 
" style="fill:none;stroke:#b0b0b0;stroke-linecap:square;stroke-width:0.8;"/>
     </g>
     <g id="line2d_32">
      <g>
       <use style="stroke:#000000;stroke-width:0.8;" x="56.12" xlink:href="#mc16e1fe01e" y="237.843411"/>
      </g>
     </g>
     <g id="text_7">
      <!-- 0.2 -->
      <g transform="translate(23.675 243.922161)scale(0.16 -0.16)">
       <use xlink:href="#DejaVuSans-30"/>
       <use x="63.623047" xlink:href="#DejaVuSans-2e"/>
       <use x="95.410156" xlink:href="#DejaVuSans-32"/>
      </g>
     </g>
    </g>
    <g id="ytick_3">
     <g id="line2d_33">
      <path clip-path="url(#p374f9bc9e1)" d="M 56.12 180.806823 
L 333.168 180.806823 
" style="fill:none;stroke:#b0b0b0;stroke-linecap:square;stroke-width:0.8;"/>
     </g>
     <g id="line2d_34">
      <g>
       <use style="stroke:#000000;stroke-width:0.8;" x="56.12" xlink:href="#mc16e1fe01e" y="180.806823"/>
      </g>
     </g>
     <g id="text_8">
      <!-- 0.4 -->
      <g transform="translate(23.675 186.885573)scale(0.16 -0.16)">
       <use xlink:href="#DejaVuSans-30"/>
       <use x="63.623047" xlink:href="#DejaVuSans-2e"/>
       <use x="95.410156" xlink:href="#DejaVuSans-34"/>
      </g>
     </g>
    </g>
    <g id="ytick_4">
     <g id="line2d_35">
      <path clip-path="url(#p374f9bc9e1)" d="M 56.12 123.770234 
L 333.168 123.770234 
" style="fill:none;stroke:#b0b0b0;stroke-linecap:square;stroke-width:0.8;"/>
     </g>
     <g id="line2d_36">
      <g>
       <use style="stroke:#000000;stroke-width:0.8;" x="56.12" xlink:href="#mc16e1fe01e" y="123.770234"/>
      </g>
     </g>
     <g id="text_9">
      <!-- 0.6 -->
      <g transform="translate(23.675 129.848984)scale(0.16 -0.16)">
       <use xlink:href="#DejaVuSans-30"/>
       <use x="63.623047" xlink:href="#DejaVuSans-2e"/>
       <use x="95.410156" xlink:href="#DejaVuSans-36"/>
      </g>
     </g>
    </g>
    <g id="ytick_5">
     <g id="line2d_37">
      <path clip-path="url(#p374f9bc9e1)" d="M 56.12 66.733646 
L 333.168 66.733646 
" style="fill:none;stroke:#b0b0b0;stroke-linecap:square;stroke-width:0.8;"/>
     </g>
     <g id="line2d_38">
      <g>
       <use style="stroke:#000000;stroke-width:0.8;" x="56.12" xlink:href="#mc16e1fe01e" y="66.733646"/>
      </g>
     </g>
     <g id="text_10">
      <!-- 0.8 -->
      <defs>
       <path d="M 31.78125 34.625 
Q 24.75 34.625 20.71875 30.859375 
Q 16.703125 27.09375 16.703125 20.515625 
Q 16.703125 13.921875 20.71875 10.15625 
Q 24.75 6.390625 31.78125 6.390625 
Q 38.8125 6.390625 42.859375 10.171875 
Q 46.921875 13.96875 46.921875 20.515625 
Q 46.921875 27.09375 42.890625 30.859375 
Q 38.875 34.625 31.78125 34.625 
z
M 21.921875 38.8125 
Q 15.578125 40.375 12.03125 44.71875 
Q 8.5 49.078125 8.5 55.328125 
Q 8.5 64.0625 14.71875 69.140625 
Q 20.953125 74.21875 31.78125 74.21875 
Q 42.671875 74.21875 48.875 69.140625 
Q 55.078125 64.0625 55.078125 55.328125 
Q 55.078125 49.078125 51.53125 44.71875 
Q 48 40.375 41.703125 38.8125 
Q 48.828125 37.15625 52.796875 32.3125 
Q 56.78125 27.484375 56.78125 20.515625 
Q 56.78125 9.90625 50.3125 4.234375 
Q 43.84375 -1.421875 31.78125 -1.421875 
Q 19.734375 -1.421875 13.25 4.234375 
Q 6.78125 9.90625 6.78125 20.515625 
Q 6.78125 27.484375 10.78125 32.3125 
Q 14.796875 37.15625 21.921875 38.8125 
z
M 18.3125 54.390625 
Q 18.3125 48.734375 21.84375 45.5625 
Q 25.390625 42.390625 31.78125 42.390625 
Q 38.140625 42.390625 41.71875 45.5625 
Q 45.3125 48.734375 45.3125 54.390625 
Q 45.3125 60.0625 41.71875 63.234375 
Q 38.140625 66.40625 31.78125 66.40625 
Q 25.390625 66.40625 21.84375 63.234375 
Q 18.3125 60.0625 18.3125 54.390625 
z
" id="DejaVuSans-38"/>
      </defs>
      <g transform="translate(23.675 72.812396)scale(0.16 -0.16)">
       <use xlink:href="#DejaVuSans-30"/>
       <use x="63.623047" xlink:href="#DejaVuSans-2e"/>
       <use x="95.410156" xlink:href="#DejaVuSans-38"/>
      </g>
     </g>
    </g>
    <g id="ytick_6">
     <g id="line2d_39">
      <path clip-path="url(#p374f9bc9e1)" d="M 56.12 9.697057 
L 333.168 9.697057 
" style="fill:none;stroke:#b0b0b0;stroke-linecap:square;stroke-width:0.8;"/>
     </g>
     <g id="line2d_40">
      <g>
       <use style="stroke:#000000;stroke-width:0.8;" x="56.12" xlink:href="#mc16e1fe01e" y="9.697057"/>
      </g>
     </g>
     <g id="text_11">
      <!-- 1.0 -->
      <g transform="translate(23.675 15.775807)scale(0.16 -0.16)">
       <use xlink:href="#DejaVuSans-31"/>
       <use x="63.623047" xlink:href="#DejaVuSans-2e"/>
       <use x="95.410156" xlink:href="#DejaVuSans-30"/>
      </g>
     </g>
    </g>
    <g id="text_12">
     <!-- Fraction of function,target pairs -->
     <defs>
      <path d="M 9.8125 72.90625 
L 51.703125 72.90625 
L 51.703125 64.59375 
L 19.671875 64.59375 
L 19.671875 43.109375 
L 48.578125 43.109375 
L 48.578125 34.8125 
L 19.671875 34.8125 
L 19.671875 0 
L 9.8125 0 
z
" id="DejaVuSans-46"/>
      <path d="M 41.109375 46.296875 
Q 39.59375 47.171875 37.8125 47.578125 
Q 36.03125 48 33.890625 48 
Q 26.265625 48 22.1875 43.046875 
Q 18.109375 38.09375 18.109375 28.8125 
L 18.109375 0 
L 9.078125 0 
L 9.078125 54.6875 
L 18.109375 54.6875 
L 18.109375 46.1875 
Q 20.953125 51.171875 25.484375 53.578125 
Q 30.03125 56 36.53125 56 
Q 37.453125 56 38.578125 55.875 
Q 39.703125 55.765625 41.0625 55.515625 
z
" id="DejaVuSans-72"/>
      <path d="M 48.78125 52.59375 
L 48.78125 44.1875 
Q 44.96875 46.296875 41.140625 47.34375 
Q 37.3125 48.390625 33.40625 48.390625 
Q 24.65625 48.390625 19.8125 42.84375 
Q 14.984375 37.3125 14.984375 27.296875 
Q 14.984375 17.28125 19.8125 11.734375 
Q 24.65625 6.203125 33.40625 6.203125 
Q 37.3125 6.203125 41.140625 7.25 
Q 44.96875 8.296875 48.78125 10.40625 
L 48.78125 2.09375 
Q 45.015625 0.34375 40.984375 -0.53125 
Q 36.96875 -1.421875 32.421875 -1.421875 
Q 20.0625 -1.421875 12.78125 6.34375 
Q 5.515625 14.109375 5.515625 27.296875 
Q 5.515625 40.671875 12.859375 48.328125 
Q 20.21875 56 33.015625 56 
Q 37.15625 56 41.109375 55.140625 
Q 45.0625 54.296875 48.78125 52.59375 
z
" id="DejaVuSans-63"/>
      <path d="M 18.3125 70.21875 
L 18.3125 54.6875 
L 36.8125 54.6875 
L 36.8125 47.703125 
L 18.3125 47.703125 
L 18.3125 18.015625 
Q 18.3125 11.328125 20.140625 9.421875 
Q 21.96875 7.515625 27.59375 7.515625 
L 36.8125 7.515625 
L 36.8125 0 
L 27.59375 0 
Q 17.1875 0 13.234375 3.875 
Q 9.28125 7.765625 9.28125 18.015625 
L 9.28125 47.703125 
L 2.6875 47.703125 
L 2.6875 54.6875 
L 9.28125 54.6875 
L 9.28125 70.21875 
z
" id="DejaVuSans-74"/>
      <path d="M 8.5 21.578125 
L 8.5 54.6875 
L 17.484375 54.6875 
L 17.484375 21.921875 
Q 17.484375 14.15625 20.5 10.265625 
Q 23.53125 6.390625 29.59375 6.390625 
Q 36.859375 6.390625 41.078125 11.03125 
Q 45.3125 15.671875 45.3125 23.6875 
L 45.3125 54.6875 
L 54.296875 54.6875 
L 54.296875 0 
L 45.3125 0 
L 45.3125 8.40625 
Q 42.046875 3.421875 37.71875 1 
Q 33.40625 -1.421875 27.6875 -1.421875 
Q 18.265625 -1.421875 13.375 4.4375 
Q 8.5 10.296875 8.5 21.578125 
z
M 31.109375 56 
z
" id="DejaVuSans-75"/>
      <path d="M 11.71875 12.40625 
L 22.015625 12.40625 
L 22.015625 4 
L 14.015625 -11.625 
L 7.71875 -11.625 
L 11.71875 4 
z
" id="DejaVuSans-2c"/>
      <path d="M 18.109375 8.203125 
L 18.109375 -20.796875 
L 9.078125 -20.796875 
L 9.078125 54.6875 
L 18.109375 54.6875 
L 18.109375 46.390625 
Q 20.953125 51.265625 25.265625 53.625 
Q 29.59375 56 35.59375 56 
Q 45.5625 56 51.78125 48.09375 
Q 58.015625 40.1875 58.015625 27.296875 
Q 58.015625 14.40625 51.78125 6.484375 
Q 45.5625 -1.421875 35.59375 -1.421875 
Q 29.59375 -1.421875 25.265625 0.953125 
Q 20.953125 3.328125 18.109375 8.203125 
z
M 48.6875 27.296875 
Q 48.6875 37.203125 44.609375 42.84375 
Q 40.53125 48.484375 33.40625 48.484375 
Q 26.265625 48.484375 22.1875 42.84375 
Q 18.109375 37.203125 18.109375 27.296875 
Q 18.109375 17.390625 22.1875 11.75 
Q 26.265625 6.109375 33.40625 6.109375 
Q 40.53125 6.109375 44.609375 11.75 
Q 48.6875 17.390625 48.6875 27.296875 
z
" id="DejaVuSans-70"/>
     </defs>
     <g transform="translate(16.139531 286.001989)rotate(-90)scale(0.17 -0.17)">
      <use xlink:href="#DejaVuSans-46"/>
      <use x="57.410156" xlink:href="#DejaVuSans-72"/>
      <use x="98.523438" xlink:href="#DejaVuSans-61"/>
      <use x="159.802734" xlink:href="#DejaVuSans-63"/>
      <use x="214.783203" xlink:href="#DejaVuSans-74"/>
      <use x="253.992188" xlink:href="#DejaVuSans-69"/>
      <use x="281.775391" xlink:href="#DejaVuSans-6f"/>
      <use x="342.957031" xlink:href="#DejaVuSans-6e"/>
      <use x="406.335938" xlink:href="#DejaVuSans-20"/>
      <use x="438.123047" xlink:href="#DejaVuSans-6f"/>
      <use x="499.304688" xlink:href="#DejaVuSans-66"/>
      <use x="534.509766" xlink:href="#DejaVuSans-20"/>
      <use x="566.296875" xlink:href="#DejaVuSans-66"/>
      <use x="601.501953" xlink:href="#DejaVuSans-75"/>
      <use x="664.880859" xlink:href="#DejaVuSans-6e"/>
      <use x="728.259766" xlink:href="#DejaVuSans-63"/>
      <use x="783.240234" xlink:href="#DejaVuSans-74"/>
      <use x="822.449219" xlink:href="#DejaVuSans-69"/>
      <use x="850.232422" xlink:href="#DejaVuSans-6f"/>
      <use x="911.414062" xlink:href="#DejaVuSans-6e"/>
      <use x="974.792969" xlink:href="#DejaVuSans-2c"/>
      <use x="1006.580078" xlink:href="#DejaVuSans-74"/>
      <use x="1045.789062" xlink:href="#DejaVuSans-61"/>
      <use x="1107.068359" xlink:href="#DejaVuSans-72"/>
      <use x="1148.166016" xlink:href="#DejaVuSans-67"/>
      <use x="1211.642578" xlink:href="#DejaVuSans-65"/>
      <use x="1273.166016" xlink:href="#DejaVuSans-74"/>
      <use x="1312.375" xlink:href="#DejaVuSans-20"/>
      <use x="1344.162109" xlink:href="#DejaVuSans-70"/>
      <use x="1407.638672" xlink:href="#DejaVuSans-61"/>
      <use x="1468.917969" xlink:href="#DejaVuSans-69"/>
      <use x="1496.701172" xlink:href="#DejaVuSans-72"/>
      <use x="1537.814453" xlink:href="#DejaVuSans-73"/>
     </g>
    </g>
   </g>
   <g id="line2d_41">
    <defs>
     <path d="M 0 1.5 
C 0.397805 1.5 0.77937 1.341951 1.06066 1.06066 
C 1.341951 0.77937 1.5 0.397805 1.5 0 
C 1.5 -0.397805 1.341951 -0.77937 1.06066 -1.06066 
C 0.77937 -1.341951 0.397805 -1.5 0 -1.5 
C -0.397805 -1.5 -0.77937 -1.341951 -1.06066 -1.06066 
C -1.341951 -0.77937 -1.5 -0.397805 -1.5 0 
C -1.5 0.397805 -1.341951 0.77937 -1.06066 1.06066 
C -0.77937 1.341951 -0.397805 1.5 0 1.5 
z
" id="mf8d0bfc40d" style="stroke:#f5deb3;"/>
    </defs>
    <g>
     <use style="fill:#f5deb3;stroke:#f5deb3;" x="328.17278" xlink:href="#mf8d0bfc40d" y="9.697057"/>
     <use style="fill:#f5deb3;stroke:#f5deb3;" x="328.17278" xlink:href="#mf8d0bfc40d" y="9.697057"/>
    </g>
   </g>
   <g id="line2d_42">
    <defs>
     <path d="M 0 1.5 
C 0.397805 1.5 0.77937 1.341951 1.06066 1.06066 
C 1.341951 0.77937 1.5 0.397805 1.5 0 
C 1.5 -0.397805 1.341951 -0.77937 1.06066 -1.06066 
C 0.77937 -1.341951 0.397805 -1.5 0 -1.5 
C -0.397805 -1.5 -0.77937 -1.341951 -1.06066 -1.06066 
C -1.341951 -0.77937 -1.5 -0.397805 -1.5 0 
C -1.5 0.397805 -1.341951 0.77937 -1.06066 1.06066 
C -0.77937 1.341951 -0.397805 1.5 0 1.5 
z
" id="m7242c6bae1" style="stroke:#000080;"/>
    </defs>
    <g>
     <use style="fill:#000080;stroke:#000080;" x="220.698591" xlink:href="#m7242c6bae1" y="249.027056"/>
     <use style="fill:#000080;stroke:#000080;" x="220.698591" xlink:href="#m7242c6bae1" y="249.027056"/>
    </g>
   </g>
   <g id="line2d_43">
    <path d="M 16.541714 294.88 
L 16.541714 287.163285 
L 72.543934 287.163285 
L 72.543934 287.051449 
L 74.42092 287.051449 
L 74.42092 286.939612 
L 87.481505 286.939612 
L 87.481505 286.827776 
L 90.288839 286.827776 
L 90.288839 286.715939 
L 90.753425 286.715939 
L 90.753425 286.604103 
L 92.287186 286.604103 
L 92.287186 286.492266 
L 93.695229 286.492266 
L 93.695229 286.38043 
L 94.077214 286.38043 
L 94.077214 286.268593 
L 98.688305 286.268593 
L 98.688305 286.156757 
L 100.339683 286.156757 
L 100.339683 286.044921 
L 101.358566 286.044921 
L 101.358566 285.933084 
L 101.84622 285.933084 
L 101.84622 285.821248 
L 101.966002 285.821248 
L 101.966002 285.709411 
L 102.436953 285.709411 
L 102.436953 285.597575 
L 103.560793 285.597575 
L 103.669239 285.262065 
L 104.513022 285.262065 
L 104.615641 284.81472 
L 105.020098 284.81472 
L 105.020098 284.702883 
L 105.317315 284.702883 
L 105.317315 284.591047 
L 105.512642 284.591047 
L 105.60948 284.255537 
L 105.705775 284.255537 
L 105.705775 284.031865 
L 105.896762 284.031865 
L 105.896762 283.808192 
L 107.352754 283.808192 
L 107.352754 283.696355 
L 108.369127 283.696355 
L 108.369127 283.584519 
L 110.014853 283.584519 
L 110.014853 283.472682 
L 111.379177 283.472682 
L 111.379177 283.360846 
L 113.939832 283.360846 
L 113.939832 283.249009 
L 114.639127 283.249009 
L 114.639127 283.137173 
L 115.420563 283.137173 
L 115.420563 283.025336 
L 115.904782 283.025336 
L 115.957752 282.466154 
L 116.220179 282.466154 
L 116.324038 282.130645 
L 116.427273 282.130645 
L 116.427273 282.018808 
L 116.682681 282.018808 
L 116.682681 281.906972 
L 117.182386 281.906972 
L 117.182386 281.795136 
L 117.763465 281.795136 
L 117.85843 281.571463 
L 118.093572 281.571463 
L 118.186736 281.235953 
L 118.279397 281.235953 
L 118.371562 281.01228 
L 118.508888 281.01228 
L 118.554421 280.788608 
L 118.645127 280.788608 
L 118.6903 280.564935 
L 118.825114 280.564935 
L 118.825114 280.341262 
L 118.958878 280.341262 
L 118.958878 280.005752 
L 119.135627 280.005752 
L 119.179531 279.334734 
L 119.354037 279.334734 
L 119.354037 279.222897 
L 119.483763 279.222897 
L 119.483763 279.111061 
L 119.740314 279.111061 
L 119.740314 278.999224 
L 119.867168 278.999224 
L 119.867168 278.887388 
L 119.993093 278.887388 
L 119.993093 278.775551 
L 120.200938 278.775551 
L 120.283378 278.551879 
L 120.32445 278.551879 
L 120.406301 278.104533 
L 120.64954 278.104533 
L 120.689748 277.657187 
L 120.769881 277.657187 
L 120.809808 277.433514 
L 121.20406 277.433514 
L 121.20406 277.321678 
L 122.480659 277.321678 
L 122.588877 277.098005 
L 122.979949 277.098005 
L 122.979949 276.986168 
L 123.189569 276.986168 
L 123.189569 276.874332 
L 123.36232 276.874332 
L 123.36232 276.762495 
L 124.135351 276.762495 
L 124.233665 276.538822 
L 124.266312 276.538822 
L 124.266312 276.426986 
L 125.000572 276.426986 
L 125.062963 276.203313 
L 125.125128 276.203313 
L 125.125128 276.091477 
L 125.279564 276.091477 
L 125.279564 275.97964 
L 125.49347 275.97964 
L 125.5541 275.755967 
L 125.734717 275.755967 
L 125.734717 275.532294 
L 125.943067 275.532294 
L 125.943067 275.420458 
L 126.178129 275.420458 
L 126.265455 274.861276 
L 126.323427 274.861276 
L 126.323427 274.749439 
L 126.467507 274.749439 
L 126.467507 274.525766 
L 126.723846 274.525766 
L 126.723846 274.41393 
L 127.362076 274.41393 
L 127.362076 274.302094 
L 127.739271 274.302094 
L 127.739271 274.190257 
L 128.003717 274.190257 
L 128.003717 274.078421 
L 128.212383 274.078421 
L 128.212383 273.966584 
L 128.39291 273.966584 
L 128.418546 273.742911 
L 128.622265 273.742911 
L 128.622265 273.631075 
L 128.973066 273.631075 
L 128.973066 273.519238 
L 129.31685 273.519238 
L 129.31685 273.407402 
L 129.677716 273.407402 
L 129.677716 273.295566 
L 131.483957 273.295566 
L 131.483957 273.183729 
L 131.760342 273.183729 
L 131.823497 272.960056 
L 132.135837 272.960056 
L 132.135837 272.84822 
L 132.42232 272.84822 
L 132.503304 272.624547 
L 132.583907 272.624547 
L 132.644112 272.400874 
L 132.902593 272.400874 
L 132.902593 272.289037 
L 133.020593 272.289037 
L 133.079291 271.953528 
L 133.196088 271.953528 
L 133.196088 271.841692 
L 133.484656 271.841692 
L 133.560797 271.618019 
L 134.322384 271.618019 
L 134.322384 271.506182 
L 135.81799 271.506182 
L 135.81799 271.394346 
L 136.375154 271.394346 
L 136.375154 271.282509 
L 136.551614 271.282509 
L 136.551614 271.170673 
L 136.867881 271.170673 
L 136.867881 271.058837 
L 137.422898 271.058837 
L 137.422898 270.947 
L 137.960554 270.947 
L 137.960554 270.835164 
L 138.4819 270.835164 
L 138.567274 270.611491 
L 138.834862 270.611491 
L 138.834862 270.499654 
L 139.317139 270.499654 
L 139.4255 270.164145 
L 139.69345 270.164145 
L 139.733284 269.828636 
L 139.891706 269.828636 
L 139.891706 269.716799 
L 140.009571 269.716799 
L 140.035654 269.493126 
L 140.165478 269.493126 
L 140.165478 269.38129 
L 140.460404 269.38129 
L 140.523855 269.04578 
L 140.800286 269.04578 
L 140.800286 268.933944 
L 140.986245 268.933944 
L 140.986245 268.822108 
L 141.55622 268.822108 
L 141.639516 268.598435 
L 142.268865 268.598435 
L 142.268865 268.486598 
L 142.687155 268.486598 
L 142.765159 268.262925 
L 142.864932 268.262925 
L 142.864932 268.151089 
L 143.008034 268.151089 
L 143.062757 267.81558 
L 143.515683 267.81558 
L 143.590024 267.591907 
L 144.648278 267.591907 
L 144.648278 267.48007 
L 144.866109 267.48007 
L 144.866109 267.368234 
L 145.64514 267.368234 
L 145.64514 267.256397 
L 145.822874 267.256397 
L 145.822874 267.144561 
L 146.596243 267.144561 
L 146.596243 267.032724 
L 147.08738 267.032724 
L 147.08738 266.920888 
L 147.208003 266.920888 
L 147.208003 266.809052 
L 148.102967 266.809052 
L 148.102967 266.697215 
L 149.390166 266.697215 
L 149.390166 266.585379 
L 149.845372 266.585379 
L 149.845372 266.473542 
L 150.137454 266.473542 
L 150.137454 266.361706 
L 150.374741 266.361706 
L 150.374741 266.249869 
L 150.61584 266.249869 
L 150.61584 266.138033 
L 151.183767 266.138033 
L 151.183767 266.026196 
L 151.434009 266.026196 
L 151.474248 265.690687 
L 151.640903 265.690687 
L 151.660793 265.355178 
L 152.355575 265.355178 
L 152.355575 265.243341 
L 152.776747 265.243341 
L 152.776747 265.131505 
L 153.260448 265.131505 
L 153.260448 265.019668 
L 153.583418 265.019668 
L 153.583418 264.907832 
L 153.801259 264.907832 
L 153.807108 264.684159 
L 153.981673 264.684159 
L 153.987461 264.460486 
L 154.534263 264.460486 
L 154.534263 264.236813 
L 154.646023 264.236813 
L 154.646023 264.124977 
L 155.102215 264.124977 
L 155.150962 263.901304 
L 155.630973 263.901304 
L 155.630973 263.789467 
L 155.782831 263.789467 
L 155.840083 263.565795 
L 156.092824 263.565795 
L 156.092824 263.453958 
L 156.271104 263.453958 
L 156.271104 263.342122 
L 156.502638 263.342122 
L 156.572491 262.894776 
L 157.365541 262.894776 
L 157.398793 262.559266 
L 158.4034 262.559266 
L 158.4034 262.44743 
L 159.533698 262.44743 
L 159.533698 262.335594 
L 159.741997 262.335594 
L 159.812247 262.000084 
L 160.475609 262.000084 
L 160.475609 261.888248 
L 161.300635 261.888248 
L 161.300635 261.776411 
L 161.413719 261.776411 
L 161.484956 261.552738 
L 161.807426 261.552738 
L 161.807426 261.440902 
L 162.181541 261.440902 
L 162.25325 261.217229 
L 162.448921 261.217229 
L 162.448921 261.105393 
L 163.172796 261.105393 
L 163.233737 260.88172 
L 163.502 260.88172 
L 163.551837 260.658047 
L 163.634578 260.658047 
L 163.634578 260.54621 
L 163.867414 260.54621 
L 163.932437 260.210701 
L 164.393474 260.210701 
L 164.393474 260.098865 
L 165.265024 260.098865 
L 165.265024 259.987028 
L 165.38174 259.987028 
L 165.38174 259.875192 
L 166.997472 259.875192 
L 166.997472 259.763355 
L 167.670995 259.763355 
L 167.670995 259.651519 
L 168.185356 259.651519 
L 168.185356 259.539682 
L 168.404386 259.539682 
L 168.446861 259.204173 
L 168.647813 259.204173 
L 168.647813 259.092337 
L 168.795166 259.092337 
L 168.795166 258.9805 
L 169.124562 258.9805 
L 169.126961 258.756827 
L 169.395892 258.756827 
L 169.443055 258.421318 
L 170.176069 258.421318 
L 170.176069 258.309481 
L 170.667683 258.309481 
L 170.667683 258.197645 
L 170.94396 258.197645 
L 170.94396 258.085809 
L 171.376548 258.085809 
L 171.376548 257.973972 
L 172.198341 257.973972 
L 172.198341 257.862136 
L 172.725805 257.862136 
L 172.824741 257.526626 
L 172.859524 257.526626 
L 172.859524 257.41479 
L 173.564904 257.41479 
L 173.564904 257.302953 
L 174.794591 257.302953 
L 174.794591 257.191117 
L 175.540573 257.191117 
L 175.540573 257.079281 
L 175.992095 257.079281 
L 175.992095 256.967444 
L 176.185668 256.967444 
L 176.230153 256.743771 
L 176.447733 256.743771 
L 176.447733 256.631935 
L 177.432645 256.631935 
L 177.432645 256.520098 
L 178.159748 256.520098 
L 178.159748 256.408262 
L 178.41175 256.408262 
L 178.41175 256.296425 
L 178.786377 256.296425 
L 178.819164 255.960916 
L 179.011885 255.960916 
L 179.011885 255.737243 
L 179.218479 255.737243 
L 179.235805 255.51357 
L 180.174189 255.51357 
L 180.174189 255.401734 
L 180.946204 255.401734 
L 180.946204 255.289897 
L 181.323126 255.289897 
L 181.351418 254.842552 
L 181.725416 254.842552 
L 181.725416 254.730715 
L 182.01569 254.730715 
L 182.01569 254.618879 
L 182.127514 254.618879 
L 182.164627 254.283369 
L 183.048142 254.283369 
L 183.048142 254.171533 
L 183.564287 254.171533 
L 183.564287 254.059696 
L 183.780395 254.059696 
L 183.848776 253.724187 
L 184.256431 253.724187 
L 184.354627 253.388678 
L 184.387234 253.388678 
L 184.387234 253.276841 
L 184.926564 253.276841 
L 184.926564 253.165005 
L 185.515247 253.165005 
L 185.515247 253.053168 
L 186.080857 253.053168 
L 186.139796 252.829495 
L 187.503479 252.829495 
L 187.503479 252.717659 
L 188.384687 252.717659 
L 188.384687 252.605823 
L 188.815777 252.605823 
L 188.815777 252.493986 
L 189.025828 252.493986 
L 189.025828 252.38215 
L 189.149738 252.38215 
L 189.149738 252.270313 
L 189.260871 252.270313 
L 189.29652 252.04664 
L 189.391224 252.04664 
L 189.391224 251.934804 
L 190.404783 251.934804 
L 190.404783 251.822967 
L 190.813752 251.822967 
L 190.813752 251.711131 
L 191.80547 251.711131 
L 191.80547 251.599295 
L 192.206601 251.599295 
L 192.20848 251.375622 
L 193.082719 251.375622 
L 193.082719 251.263785 
L 194.076632 251.263785 
L 194.076632 251.151949 
L 194.458314 251.151949 
L 194.458314 251.040112 
L 195.872178 251.040112 
L 195.874202 250.816439 
L 197.255281 250.816439 
L 197.255281 250.704603 
L 197.774537 250.704603 
L 197.774537 250.592767 
L 200.661991 250.592767 
L 200.661991 250.48093 
L 202.819118 250.48093 
L 202.819118 250.369094 
L 202.964105 250.369094 
L 202.964105 250.257257 
L 204.246292 250.257257 
L 204.246292 250.145421 
L 204.714907 250.145421 
L 204.737583 249.921748 
L 204.882303 249.921748 
L 204.882303 249.809911 
L 207.797306 249.809911 
L 207.797812 249.586238 
L 208.617232 249.586238 
L 208.617232 249.474402 
L 209.709615 249.474402 
L 209.709615 249.362566 
L 211.291995 249.362566 
L 211.291995 249.250729 
L 211.617001 249.250729 
L 211.617001 249.138893 
L 220.698591 249.138893 
L 220.698591 249.027056 
L 333.168 249.027056 
L 333.168 249.027056 
" style="fill:none;stroke:#000080;stroke-linecap:square;stroke-width:1.5;"/>
   </g>
   <g id="line2d_44">
    <defs>
     <path d="M 0 6 
C 1.591219 6 3.117479 5.367802 4.242641 4.242641 
C 5.367802 3.117479 6 1.591219 6 0 
C 6 -1.591219 5.367802 -3.117479 4.242641 -4.242641 
C 3.117479 -5.367802 1.591219 -6 0 -6 
C -1.591219 -6 -3.117479 -5.367802 -4.242641 -4.242641 
C -5.367802 -3.117479 -6 -1.591219 -6 0 
C -6 1.591219 -5.367802 3.117479 -4.242641 4.242641 
C -3.117479 5.367802 -1.591219 6 0 6 
z
" id="mde5449a8f0" style="stroke:#000080;stroke-width:1.5;"/>
    </defs>
    <g>
     <use style="fill:none;stroke:#000080;stroke-width:1.5;" x="111.379177" xlink:href="#mde5449a8f0" y="283.360846"/>
     <use style="fill:none;stroke:#000080;stroke-width:1.5;" x="195.874202" xlink:href="#mde5449a8f0" y="250.928276"/>
     <use style="fill:none;stroke:#000080;stroke-width:1.5;" x="220.698591" xlink:href="#mde5449a8f0" y="249.138893"/>
     <use style="fill:none;stroke:#000080;stroke-width:1.5;" x="220.698591" xlink:href="#mde5449a8f0" y="249.027056"/>
     <use style="fill:none;stroke:#000080;stroke-width:1.5;" x="333.168" xlink:href="#mde5449a8f0" y="249.027056"/>
    </g>
   </g>
   <g id="line2d_45">
    <path style="fill:none;stroke:#000080;stroke-linecap:square;stroke-width:1.5;"/>
    <g/>
   </g>
   <g id="line2d_46">
    <path clip-path="url(#p374f9bc9e1)" d="M 147.190823 266.920888 
" style="fill:none;stroke:#000080;stroke-linecap:square;stroke-width:1.5;"/>
    <defs>
     <path d="M -12 12 
L 12 -12 
M -12 -12 
L 12 12 
" id="ma00c5ac228" style="stroke:#000080;"/>
    </defs>
    <g clip-path="url(#p374f9bc9e1)">
     <use style="fill:#000080;stroke:#000080;" x="147.190823" xlink:href="#ma00c5ac228" y="266.920888"/>
    </g>
   </g>
   <g id="line2d_47">
    <defs>
     <path d="M 0 1.5 
C 0.397805 1.5 0.77937 1.341951 1.06066 1.06066 
C 1.341951 0.77937 1.5 0.397805 1.5 0 
C 1.5 -0.397805 1.341951 -0.77937 1.06066 -1.06066 
C 0.77937 -1.341951 0.397805 -1.5 0 -1.5 
C -0.397805 -1.5 -0.77937 -1.341951 -1.06066 -1.06066 
C -1.341951 -0.77937 -1.5 -0.397805 -1.5 0 
C -1.5 0.397805 -1.341951 0.77937 -1.06066 1.06066 
C -0.77937 1.341951 -0.397805 1.5 0 1.5 
z
" id="m9e9c8de9ad" style="stroke:#ff00ff;"/>
    </defs>
    <g>
     <use style="fill:#ff00ff;stroke:#ff00ff;" x="221.400356" xlink:href="#m9e9c8de9ad" y="249.027056"/>
     <use style="fill:#ff00ff;stroke:#ff00ff;" x="221.400356" xlink:href="#m9e9c8de9ad" y="249.027056"/>
    </g>
   </g>
   <g id="line2d_48">
    <path d="M 16.541714 294.88 
L 16.541714 287.275122 
L 79.948502 287.275122 
L 79.948502 287.163285 
L 80.372935 287.163285 
L 80.372935 287.051449 
L 83.436778 287.051449 
L 83.436778 286.939612 
L 87.481505 286.939612 
L 87.481505 286.827776 
L 89.069276 286.827776 
L 89.069276 286.715939 
L 90.288839 286.715939 
L 90.288839 286.604103 
L 93.695229 286.604103 
L 93.695229 286.492266 
L 100.339683 286.492266 
L 100.339683 286.38043 
L 100.728876 286.38043 
L 100.728876 286.268593 
L 101.23446 286.268593 
L 101.23446 286.156757 
L 101.358566 286.156757 
L 101.358566 286.044921 
L 101.84622 286.044921 
L 101.84622 285.933084 
L 101.966002 285.933084 
L 101.966002 285.821248 
L 102.20309 285.821248 
L 102.20309 285.709411 
L 102.436953 285.709411 
L 102.436953 285.597575 
L 103.008056 285.597575 
L 103.008056 285.485738 
L 103.560793 285.485738 
L 103.669239 285.150229 
L 103.990531 285.150229 
L 103.990531 285.038393 
L 104.305927 285.038393 
L 104.409787 284.81472 
L 104.513022 284.81472 
L 104.615641 284.47921 
L 105.020098 284.47921 
L 105.020098 284.367374 
L 105.317315 284.367374 
L 105.317315 284.255537 
L 105.512642 284.255537 
L 105.60948 284.031865 
L 105.705775 284.031865 
L 105.705775 283.920028 
L 105.896762 283.920028 
L 105.991465 283.472682 
L 107.352754 283.472682 
L 107.352754 283.360846 
L 108.369127 283.360846 
L 108.369127 283.249009 
L 108.694987 283.249009 
L 108.694987 283.137173 
L 113.272818 283.137173 
L 113.272818 283.025336 
L 113.939832 283.025336 
L 113.939832 282.9135 
L 114.639127 282.9135 
L 114.639127 282.801664 
L 115.420563 282.801664 
L 115.420563 282.577991 
L 115.691256 282.577991 
L 115.691256 282.466154 
L 115.904782 282.466154 
L 115.957752 282.242481 
L 116.220179 282.242481 
L 116.324038 281.683299 
L 116.427273 281.683299 
L 116.427273 281.571463 
L 116.682681 281.571463 
L 116.682681 281.459626 
L 117.133064 281.459626 
L 117.182386 281.235953 
L 117.715785 281.235953 
L 117.715785 281.124117 
L 117.952873 281.124117 
L 117.952873 281.01228 
L 118.093572 281.01228 
L 118.093572 280.788608 
L 118.279397 280.788608 
L 118.371562 280.564935 
L 118.508888 280.564935 
L 118.599834 280.229425 
L 118.645127 280.229425 
L 118.6903 280.005752 
L 118.958878 280.005752 
L 118.958878 279.670243 
L 119.135627 279.670243 
L 119.179531 279.222897 
L 119.483763 279.222897 
L 119.483763 279.111061 
L 120.200938 279.111061 
L 120.200938 278.887388 
L 120.365424 278.887388 
L 120.406301 278.663715 
L 120.64954 278.663715 
L 120.689748 278.104533 
L 120.769881 278.104533 
L 120.809808 277.769023 
L 121.20406 277.769023 
L 121.20406 277.657187 
L 122.979949 277.657187 
L 122.979949 277.545351 
L 123.635161 277.545351 
L 123.635161 277.433514 
L 124.135351 277.433514 
L 124.135351 277.321678 
L 125.000572 277.321678 
L 125.062963 276.986168 
L 125.125128 276.986168 
L 125.125128 276.874332 
L 125.463074 276.874332 
L 125.5541 276.426986 
L 125.614517 276.426986 
L 125.614517 276.31515 
L 125.734717 276.31515 
L 125.734717 275.97964 
L 125.883796 275.97964 
L 125.972626 275.532294 
L 126.090357 275.532294 
L 126.178129 275.308622 
L 126.207287 275.308622 
L 126.294465 274.861276 
L 126.323427 274.861276 
L 126.381204 274.525766 
L 126.467507 274.525766 
L 126.467507 274.302094 
L 126.610389 274.302094 
L 126.610389 274.190257 
L 126.808449 274.190257 
L 126.808449 274.078421 
L 127.307509 274.078421 
L 127.362076 273.854748 
L 127.739271 273.854748 
L 127.739271 273.742911 
L 128.003717 273.742911 
L 128.003717 273.631075 
L 128.160453 273.631075 
L 128.212383 273.407402 
L 128.418546 273.407402 
L 128.418546 273.295566 
L 128.571561 273.295566 
L 128.571561 273.183729 
L 128.898495 273.183729 
L 128.898495 273.071893 
L 129.437982 273.071893 
L 129.437982 272.960056 
L 129.677716 272.960056 
L 129.677716 272.84822 
L 129.984454 272.84822 
L 129.984454 272.736383 
L 131.760342 272.736383 
L 131.760342 272.624547 
L 132.135837 272.624547 
L 132.135837 272.51271 
L 132.503304 272.51271 
L 132.503304 272.400874 
L 132.644112 272.400874 
L 132.644112 272.289037 
L 132.902593 272.289037 
L 132.902593 272.177201 
L 133.079291 272.177201 
L 133.079291 271.841692 
L 133.196088 271.841692 
L 133.234845 271.618019 
L 133.484656 271.618019 
L 133.484656 271.506182 
L 136.67882 271.506182 
L 136.67882 271.394346 
L 138.4819 271.394346 
L 138.4819 271.282509 
L 138.638097 271.282509 
L 138.638097 271.170673 
L 138.834862 271.170673 
L 138.834862 271.058837 
L 139.357855 271.058837 
L 139.357855 270.835164 
L 139.479425 270.835164 
L 139.546595 270.611491 
L 139.69345 270.611491 
L 139.69345 270.387818 
L 139.891706 270.387818 
L 139.891706 270.275981 
L 140.035654 270.275981 
L 140.035654 270.164145 
L 140.165478 270.164145 
L 140.165478 270.052309 
L 140.473113 270.052309 
L 140.473113 269.940472 
L 140.800286 269.940472 
L 140.800286 269.828636 
L 141.194594 269.828636 
L 141.194594 269.716799 
L 141.340159 269.716799 
L 141.340159 269.604963 
L 141.568144 269.604963 
L 141.568144 269.493126 
L 142.268865 269.493126 
L 142.268865 269.38129 
L 142.43967 269.38129 
L 142.43967 269.269453 
L 142.687155 269.269453 
L 142.765159 269.04578 
L 142.864932 269.04578 
L 142.864932 268.933944 
L 143.062757 268.933944 
L 143.062757 268.822108 
L 143.515683 268.822108 
L 143.590024 268.598435 
L 145.37982 268.598435 
L 145.37982 268.486598 
L 146.263868 268.486598 
L 146.263868 268.374762 
L 146.596243 268.374762 
L 146.596243 268.262925 
L 146.887358 268.262925 
L 146.887358 268.151089 
L 147.08738 268.151089 
L 147.08738 268.039252 
L 147.285101 268.039252 
L 147.285101 267.927416 
L 148.345748 267.927416 
L 148.441909 267.591907 
L 148.513678 267.591907 
L 148.577222 267.144561 
L 148.687861 267.144561 
L 148.703609 266.920888 
L 149.741959 266.920888 
L 149.741959 266.809052 
L 149.977424 266.809052 
L 149.977424 266.697215 
L 150.381881 266.697215 
L 150.381881 266.585379 
L 150.61584 266.585379 
L 150.61584 266.473542 
L 150.860547 266.473542 
L 150.860547 266.361706 
L 151.366735 266.361706 
L 151.467548 266.026196 
L 151.527754 266.026196 
L 151.634268 265.802523 
L 152.68959 265.802523 
L 152.68959 265.690687 
L 152.992726 265.690687 
L 152.992726 265.578851 
L 153.175716 265.578851 
L 153.175716 265.355178 
L 153.332746 265.355178 
L 153.332746 265.243341 
L 153.494311 265.243341 
L 153.500266 265.019668 
L 153.801259 265.019668 
L 153.842163 264.684159 
L 155.435255 264.684159 
L 155.435255 264.572323 
L 155.630973 264.572323 
L 155.630973 264.460486 
L 156.128628 264.460486 
L 156.205102 264.236813 
L 156.552562 264.236813 
L 156.552562 264.124977 
L 157.159859 264.124977 
L 157.159859 264.01314 
L 157.403538 264.01314 
L 157.403538 263.901304 
L 157.606342 263.901304 
L 157.606342 263.789467 
L 158.00949 263.789467 
L 158.00949 263.677631 
L 158.954011 263.677631 
L 159.05774 263.453958 
L 159.692235 263.453958 
L 159.766824 263.230285 
L 159.849323 263.230285 
L 159.849323 263.118449 
L 160.688547 263.118449 
L 160.688547 263.006612 
L 161.296853 263.006612 
L 161.391162 262.559266 
L 161.454997 262.559266 
L 161.469983 262.223757 
L 161.770666 262.223757 
L 161.770666 262.111921 
L 162.249671 262.111921 
L 162.249671 262.000084 
L 162.424141 262.000084 
L 162.424141 261.888248 
L 162.600363 261.888248 
L 162.600363 261.776411 
L 162.795612 261.776411 
L 162.795612 261.664575 
L 163.077568 261.664575 
L 163.077568 261.552738 
L 163.551837 261.552738 
L 163.551837 261.440902 
L 163.670858 261.440902 
L 163.670858 261.329066 
L 163.870671 261.329066 
L 163.870671 261.105393 
L 164.295262 261.105393 
L 164.393474 260.88172 
L 164.585107 260.88172 
L 164.585107 260.769883 
L 165.881445 260.769883 
L 165.973903 260.54621 
L 166.590881 260.54621 
L 166.590881 260.434374 
L 166.839276 260.434374 
L 166.839276 260.322538 
L 167.108428 260.322538 
L 167.108428 260.210701 
L 167.516272 260.210701 
L 167.610845 259.875192 
L 167.650097 259.875192 
L 167.676216 259.651519 
L 168.233429 259.651519 
L 168.314091 259.427846 
L 168.346752 259.427846 
L 168.37434 259.204173 
L 168.459334 259.204173 
L 168.459334 259.092337 
L 169.369897 259.092337 
L 169.393531 258.756827 
L 169.576765 258.756827 
L 169.576765 258.644991 
L 169.774244 258.644991 
L 169.778864 258.421318 
L 170.173812 258.421318 
L 170.173812 258.309481 
L 170.438085 258.309481 
L 170.438085 258.197645 
L 171.380757 258.197645 
L 171.380757 258.085809 
L 171.915161 258.085809 
L 171.915161 257.973972 
L 172.172241 257.973972 
L 172.246421 257.526626 
L 172.772434 257.526626 
L 172.772434 257.41479 
L 173.594524 257.41479 
L 173.594524 257.302953 
L 173.718004 257.302953 
L 173.754693 257.079281 
L 174.194315 257.079281 
L 174.194315 256.967444 
L 174.796316 256.967444 
L 174.880621 256.631935 
L 175.424567 256.631935 
L 175.424567 256.520098 
L 175.739269 256.520098 
L 175.817458 255.737243 
L 176.293504 255.737243 
L 176.296665 255.51357 
L 176.716663 255.51357 
L 176.716663 255.401734 
L 176.94496 255.401734 
L 177.045123 255.178061 
L 177.343646 255.178061 
L 177.343646 255.066224 
L 177.939945 255.066224 
L 177.941381 254.842552 
L 178.248863 254.842552 
L 178.248863 254.730715 
L 178.431305 254.730715 
L 178.431305 254.618879 
L 179.1811 254.618879 
L 179.206473 254.283369 
L 179.73212 254.283369 
L 179.73212 254.171533 
L 181.345528 254.171533 
L 181.346706 253.94786 
L 182.165751 253.94786 
L 182.165751 253.836024 
L 183.492683 253.836024 
L 183.562216 253.612351 
L 183.777327 253.612351 
L 183.879307 253.053168 
L 184.427661 253.053168 
L 184.449314 252.829495 
L 185.511549 252.829495 
L 185.511549 252.717659 
L 185.646941 252.717659 
L 185.646941 252.605823 
L 185.761236 252.605823 
L 185.761236 252.493986 
L 186.156726 252.493986 
L 186.209191 252.270313 
L 186.282729 252.270313 
L 186.283613 252.04664 
L 187.44739 252.04664 
L 187.449042 251.822967 
L 187.837835 251.822967 
L 187.900714 251.599295 
L 188.871383 251.599295 
L 188.871383 251.487458 
L 189.879316 251.487458 
L 189.879316 251.375622 
L 190.823259 251.375622 
L 190.823259 251.263785 
L 191.237754 251.263785 
L 191.237754 251.151949 
L 192.124351 251.151949 
L 192.124351 251.040112 
L 194.07607 251.040112 
L 194.07607 250.928276 
L 195.300011 250.928276 
L 195.300011 250.816439 
L 195.87319 250.816439 
L 195.87319 250.704603 
L 197.286072 250.704603 
L 197.286072 250.592767 
L 197.787217 250.592767 
L 197.787217 250.48093 
L 199.191435 250.48093 
L 199.191435 250.369094 
L 200.298156 250.369094 
L 200.298156 250.257257 
L 200.662374 250.257257 
L 200.662374 250.145421 
L 200.816786 250.145421 
L 200.816786 250.033584 
L 201.558525 250.033584 
L 201.558525 249.921748 
L 203.481493 249.921748 
L 203.481818 249.698075 
L 203.613927 249.698075 
L 203.613927 249.586238 
L 204.857717 249.586238 
L 204.857717 249.474402 
L 206.024277 249.474402 
L 206.024277 249.362566 
L 207.000256 249.362566 
L 207.000256 249.250729 
L 211.016802 249.250729 
L 211.016802 249.138893 
L 221.400356 249.138893 
L 221.400356 249.027056 
L 333.168 249.027056 
L 333.168 249.027056 
" style="fill:none;stroke:#ff00ff;stroke-linecap:square;stroke-width:1.5;"/>
   </g>
   <g id="line2d_49">
    <defs>
     <path d="M -0 8.485281 
L 5.091169 0 
L 0 -8.485281 
L -5.091169 -0 
z
" id="mf45c4c7072" style="stroke:#ff00ff;stroke-linejoin:miter;stroke-width:1.5;"/>
    </defs>
    <g>
     <use style="fill:none;stroke:#ff00ff;stroke-linejoin:miter;stroke-width:1.5;" x="103.990531" xlink:href="#mf45c4c7072" y="285.038393"/>
     <use style="fill:none;stroke:#ff00ff;stroke-linejoin:miter;stroke-width:1.5;" x="178.248863" xlink:href="#mf45c4c7072" y="254.730715"/>
     <use style="fill:none;stroke:#ff00ff;stroke-linejoin:miter;stroke-width:1.5;" x="221.400356" xlink:href="#mf45c4c7072" y="249.138893"/>
     <use style="fill:none;stroke:#ff00ff;stroke-linejoin:miter;stroke-width:1.5;" x="221.400356" xlink:href="#mf45c4c7072" y="249.027056"/>
     <use style="fill:none;stroke:#ff00ff;stroke-linejoin:miter;stroke-width:1.5;" x="221.400356" xlink:href="#mf45c4c7072" y="249.027056"/>
     <use style="fill:none;stroke:#ff00ff;stroke-linejoin:miter;stroke-width:1.5;" x="333.168" xlink:href="#mf45c4c7072" y="249.027056"/>
    </g>
   </g>
   <g id="line2d_50">
    <path style="fill:none;stroke:#ff00ff;stroke-linecap:square;stroke-width:1.5;"/>
    <g/>
   </g>
   <g id="line2d_51">
    <path clip-path="url(#p374f9bc9e1)" d="M 147.190823 268.039252 
" style="fill:none;stroke:#ff00ff;stroke-linecap:square;stroke-width:1.5;"/>
    <defs>
     <path d="M -12 12 
L 12 -12 
M -12 -12 
L 12 12 
" id="m3ffd3ea9b6" style="stroke:#ff00ff;"/>
    </defs>
    <g clip-path="url(#p374f9bc9e1)">
     <use style="fill:#ff00ff;stroke:#ff00ff;" x="147.190823" xlink:href="#m3ffd3ea9b6" y="268.039252"/>
    </g>
   </g>
   <g id="line2d_52">
    <path d="M 333.168 249.027056 
L 363.64328 289.176341 
" style="fill:none;stroke:#ff00ff;stroke-linecap:square;stroke-width:1.5;"/>
    <g>
     <use style="fill:none;stroke:#ff00ff;stroke-linejoin:miter;stroke-width:1.5;" x="333.168" xlink:href="#mf45c4c7072" y="249.027056"/>
     <use style="fill:none;stroke:#ff00ff;stroke-linejoin:miter;stroke-width:1.5;" x="363.64328" xlink:href="#mf45c4c7072" y="289.176341"/>
    </g>
   </g>
   <g id="line2d_53">
    <path d="M 333.168 249.027056 
L 363.64328 152.288529 
" style="fill:none;stroke:#000080;stroke-linecap:square;stroke-width:1.5;"/>
    <g>
     <use style="fill:none;stroke:#000080;stroke-width:1.5;" x="333.168" xlink:href="#mde5449a8f0" y="249.027056"/>
     <use style="fill:none;stroke:#000080;stroke-width:1.5;" x="363.64328" xlink:href="#mde5449a8f0" y="152.288529"/>
    </g>
   </g>
   <g id="line2d_54">
    <path d="M 333.168 294.88 
L 333.168 9.697057 
" style="fill:none;stroke:#000000;stroke-linecap:square;stroke-width:1.5;"/>
   </g>
   <g id="patch_3">
    <path d="M 56.12 294.88 
L 56.12 6.845228 
" style="fill:none;stroke:#000000;stroke-linecap:square;stroke-linejoin:miter;stroke-width:0.8;"/>
   </g>
   <g id="patch_4">
    <path d="M 333.168 294.88 
L 333.168 6.845228 
" style="fill:none;stroke:#000000;stroke-linecap:square;stroke-linejoin:miter;stroke-width:0.8;"/>
   </g>
   <g id="patch_5">
    <path d="M 56.12 294.88 
L 333.168 294.88 
" style="fill:none;stroke:#000000;stroke-linecap:square;stroke-linejoin:miter;stroke-width:0.8;"/>
   </g>
   <g id="patch_6">
    <path d="M 56.12 6.845228 
L 333.168 6.845228 
" style="fill:none;stroke:#000000;stroke-linecap:square;stroke-linejoin:miter;stroke-width:0.8;"/>
   </g>
   <g id="text_13">
    <!-- scipy-opt -->
    <defs>
     <path d="M 32.171875 -5.078125 
Q 28.375 -14.84375 24.75 -17.8125 
Q 21.140625 -20.796875 15.09375 -20.796875 
L 7.90625 -20.796875 
L 7.90625 -13.28125 
L 13.1875 -13.28125 
Q 16.890625 -13.28125 18.9375 -11.515625 
Q 21 -9.765625 23.484375 -3.21875 
L 25.09375 0.875 
L 2.984375 54.6875 
L 12.5 54.6875 
L 29.59375 11.921875 
L 46.6875 54.6875 
L 56.203125 54.6875 
z
" id="DejaVuSans-79"/>
    </defs>
    <g transform="translate(369.18424 293.867279)scale(0.17 -0.17)">
     <use xlink:href="#DejaVuSans-73"/>
     <use x="52.099609" xlink:href="#DejaVuSans-63"/>
     <use x="107.080078" xlink:href="#DejaVuSans-69"/>
     <use x="134.863281" xlink:href="#DejaVuSans-70"/>
     <use x="198.339844" xlink:href="#DejaVuSans-79"/>
     <use x="257.503906" xlink:href="#DejaVuSans-2d"/>
     <use x="293.603516" xlink:href="#DejaVuSans-6f"/>
     <use x="354.785156" xlink:href="#DejaVuSans-70"/>
     <use x="418.261719" xlink:href="#DejaVuSans-74"/>
    </g>
   </g>
   <g id="text_14">
    <!-- scipyAlg -->
    <defs>
     <path d="M 34.1875 63.1875 
L 20.796875 26.90625 
L 47.609375 26.90625 
z
M 28.609375 72.90625 
L 39.796875 72.90625 
L 67.578125 0 
L 57.328125 0 
L 50.6875 18.703125 
L 17.828125 18.703125 
L 11.1875 0 
L 0.78125 0 
z
" id="DejaVuSans-41"/>
    </defs>
    <g transform="translate(369.18424 156.979466)scale(0.17 -0.17)">
     <use xlink:href="#DejaVuSans-73"/>
     <use x="52.099609" xlink:href="#DejaVuSans-63"/>
     <use x="107.080078" xlink:href="#DejaVuSans-69"/>
     <use x="134.863281" xlink:href="#DejaVuSans-70"/>
     <use x="198.339844" xlink:href="#DejaVuSans-79"/>
     <use x="257.519531" xlink:href="#DejaVuSans-41"/>
     <use x="325.927734" xlink:href="#DejaVuSans-6c"/>
     <use x="353.710938" xlink:href="#DejaVuSans-67"/>
    </g>
   </g>
   <g id="text_15">
    <!-- best 2009 -->
    <defs>
     <path d="M 48.6875 27.296875 
Q 48.6875 37.203125 44.609375 42.84375 
Q 40.53125 48.484375 33.40625 48.484375 
Q 26.265625 48.484375 22.1875 42.84375 
Q 18.109375 37.203125 18.109375 27.296875 
Q 18.109375 17.390625 22.1875 11.75 
Q 26.265625 6.109375 33.40625 6.109375 
Q 40.53125 6.109375 44.609375 11.75 
Q 48.6875 17.390625 48.6875 27.296875 
z
M 18.109375 46.390625 
Q 20.953125 51.265625 25.265625 53.625 
Q 29.59375 56 35.59375 56 
Q 45.5625 56 51.78125 48.09375 
Q 58.015625 40.1875 58.015625 27.296875 
Q 58.015625 14.40625 51.78125 6.484375 
Q 45.5625 -1.421875 35.59375 -1.421875 
Q 29.59375 -1.421875 25.265625 0.953125 
Q 20.953125 3.328125 18.109375 8.203125 
L 18.109375 0 
L 9.078125 0 
L 9.078125 75.984375 
L 18.109375 75.984375 
z
" id="DejaVuSans-62"/>
     <path d="M 10.984375 1.515625 
L 10.984375 10.5 
Q 14.703125 8.734375 18.5 7.8125 
Q 22.3125 6.890625 25.984375 6.890625 
Q 35.75 6.890625 40.890625 13.453125 
Q 46.046875 20.015625 46.78125 33.40625 
Q 43.953125 29.203125 39.59375 26.953125 
Q 35.25 24.703125 29.984375 24.703125 
Q 19.046875 24.703125 12.671875 31.3125 
Q 6.296875 37.9375 6.296875 49.421875 
Q 6.296875 60.640625 12.9375 67.421875 
Q 19.578125 74.21875 30.609375 74.21875 
Q 43.265625 74.21875 49.921875 64.515625 
Q 56.59375 54.828125 56.59375 36.375 
Q 56.59375 19.140625 48.40625 8.859375 
Q 40.234375 -1.421875 26.421875 -1.421875 
Q 22.703125 -1.421875 18.890625 -0.6875 
Q 15.09375 0.046875 10.984375 1.515625 
z
M 30.609375 32.421875 
Q 37.25 32.421875 41.125 36.953125 
Q 45.015625 41.5 45.015625 49.421875 
Q 45.015625 57.28125 41.125 61.84375 
Q 37.25 66.40625 30.609375 66.40625 
Q 23.96875 66.40625 20.09375 61.84375 
Q 16.21875 57.28125 16.21875 49.421875 
Q 16.21875 41.5 20.09375 36.953125 
Q 23.96875 32.421875 30.609375 32.421875 
z
" id="DejaVuSans-39"/>
    </defs>
    <g transform="translate(369.18424 20.091654)scale(0.17 -0.17)">
     <use xlink:href="#DejaVuSans-62"/>
     <use x="63.476562" xlink:href="#DejaVuSans-65"/>
     <use x="125" xlink:href="#DejaVuSans-73"/>
     <use x="177.099609" xlink:href="#DejaVuSans-74"/>
     <use x="216.308594" xlink:href="#DejaVuSans-20"/>
     <use x="248.095703" xlink:href="#DejaVuSans-32"/>
     <use x="311.71875" xlink:href="#DejaVuSans-30"/>
     <use x="375.341797" xlink:href="#DejaVuSans-30"/>
     <use x="438.964844" xlink:href="#DejaVuSans-39"/>
    </g>
   </g>
   <g id="text_16">
    <!-- bbob f20-f24, 10-D -->
    <defs>
     <path d="M 19.671875 64.796875 
L 19.671875 8.109375 
L 31.59375 8.109375 
Q 46.6875 8.109375 53.6875 14.9375 
Q 60.6875 21.78125 60.6875 36.53125 
Q 60.6875 51.171875 53.6875 57.984375 
Q 46.6875 64.796875 31.59375 64.796875 
z
M 9.8125 72.90625 
L 30.078125 72.90625 
Q 51.265625 72.90625 61.171875 64.09375 
Q 71.09375 55.28125 71.09375 36.53125 
Q 71.09375 17.671875 61.125 8.828125 
Q 51.171875 0 30.078125 0 
L 9.8125 0 
z
" id="DejaVuSans-44"/>
    </defs>
    <g transform="translate(58.89048 17.475982)scale(0.102 -0.102)">
     <use xlink:href="#DejaVuSans-62"/>
     <use x="63.476562" xlink:href="#DejaVuSans-62"/>
     <use x="126.953125" xlink:href="#DejaVuSans-6f"/>
     <use x="188.134766" xlink:href="#DejaVuSans-62"/>
     <use x="251.611328" xlink:href="#DejaVuSans-20"/>
     <use x="283.398438" xlink:href="#DejaVuSans-66"/>
     <use x="318.603516" xlink:href="#DejaVuSans-32"/>
     <use x="382.226562" xlink:href="#DejaVuSans-30"/>
     <use x="445.849609" xlink:href="#DejaVuSans-2d"/>
     <use x="481.933594" xlink:href="#DejaVuSans-66"/>
     <use x="517.138672" xlink:href="#DejaVuSans-32"/>
     <use x="580.761719" xlink:href="#DejaVuSans-34"/>
     <use x="644.384766" xlink:href="#DejaVuSans-2c"/>
     <use x="676.171875" xlink:href="#DejaVuSans-20"/>
     <use x="707.958984" xlink:href="#DejaVuSans-31"/>
     <use x="771.582031" xlink:href="#DejaVuSans-30"/>
     <use x="835.205078" xlink:href="#DejaVuSans-2d"/>
     <use x="871.289062" xlink:href="#DejaVuSans-44"/>
    </g>
    <!-- 51 targets: 100..1e-08 -->
    <defs>
     <path d="M 10.796875 72.90625 
L 49.515625 72.90625 
L 49.515625 64.59375 
L 19.828125 64.59375 
L 19.828125 46.734375 
Q 21.96875 47.46875 24.109375 47.828125 
Q 26.265625 48.1875 28.421875 48.1875 
Q 40.625 48.1875 47.75 41.5 
Q 54.890625 34.8125 54.890625 23.390625 
Q 54.890625 11.625 47.5625 5.09375 
Q 40.234375 -1.421875 26.90625 -1.421875 
Q 22.3125 -1.421875 17.546875 -0.640625 
Q 12.796875 0.140625 7.71875 1.703125 
L 7.71875 11.625 
Q 12.109375 9.234375 16.796875 8.0625 
Q 21.484375 6.890625 26.703125 6.890625 
Q 35.15625 6.890625 40.078125 11.328125 
Q 45.015625 15.765625 45.015625 23.390625 
Q 45.015625 31 40.078125 35.4375 
Q 35.15625 39.890625 26.703125 39.890625 
Q 22.75 39.890625 18.8125 39.015625 
Q 14.890625 38.140625 10.796875 36.28125 
z
" id="DejaVuSans-35"/>
     <path d="M 11.71875 12.40625 
L 22.015625 12.40625 
L 22.015625 0 
L 11.71875 0 
z
M 11.71875 51.703125 
L 22.015625 51.703125 
L 22.015625 39.3125 
L 11.71875 39.3125 
z
" id="DejaVuSans-3a"/>
    </defs>
    <g transform="translate(58.89048 28.89775)scale(0.102 -0.102)">
     <use xlink:href="#DejaVuSans-35"/>
     <use x="63.623047" xlink:href="#DejaVuSans-31"/>
     <use x="127.246094" xlink:href="#DejaVuSans-20"/>
     <use x="159.033203" xlink:href="#DejaVuSans-74"/>
     <use x="198.242188" xlink:href="#DejaVuSans-61"/>
     <use x="259.521484" xlink:href="#DejaVuSans-72"/>
     <use x="300.619141" xlink:href="#DejaVuSans-67"/>
     <use x="364.095703" xlink:href="#DejaVuSans-65"/>
     <use x="425.619141" xlink:href="#DejaVuSans-74"/>
     <use x="464.828125" xlink:href="#DejaVuSans-73"/>
     <use x="516.927734" xlink:href="#DejaVuSans-3a"/>
     <use x="550.619141" xlink:href="#DejaVuSans-20"/>
     <use x="582.40625" xlink:href="#DejaVuSans-31"/>
     <use x="646.029297" xlink:href="#DejaVuSans-30"/>
     <use x="709.652344" xlink:href="#DejaVuSans-30"/>
     <use x="773.275391" xlink:href="#DejaVuSans-2e"/>
     <use x="805.0625" xlink:href="#DejaVuSans-2e"/>
     <use x="836.849609" xlink:href="#DejaVuSans-31"/>
     <use x="900.472656" xlink:href="#DejaVuSans-65"/>
     <use x="961.996094" xlink:href="#DejaVuSans-2d"/>
     <use x="998.080078" xlink:href="#DejaVuSans-30"/>
     <use x="1061.703125" xlink:href="#DejaVuSans-38"/>
    </g>
    <!-- 15 instances -->
    <g transform="translate(58.89048 40.319519)scale(0.102 -0.102)">
     <use xlink:href="#DejaVuSans-31"/>
     <use x="63.623047" xlink:href="#DejaVuSans-35"/>
     <use x="127.246094" xlink:href="#DejaVuSans-20"/>
     <use x="159.033203" xlink:href="#DejaVuSans-69"/>
     <use x="186.816406" xlink:href="#DejaVuSans-6e"/>
     <use x="250.195312" xlink:href="#DejaVuSans-73"/>
     <use x="302.294922" xlink:href="#DejaVuSans-74"/>
     <use x="341.503906" xlink:href="#DejaVuSans-61"/>
     <use x="402.783203" xlink:href="#DejaVuSans-6e"/>
     <use x="466.162109" xlink:href="#DejaVuSans-63"/>
     <use x="521.142578" xlink:href="#DejaVuSans-65"/>
     <use x="582.666016" xlink:href="#DejaVuSans-73"/>
    </g>
   </g>
   <g id="text_17">
    <!-- v0.0.0 -->
    <g style="fill:#808080;" transform="translate(178.96275 289.919965)scale(0.1 -0.1)">
     <use xlink:href="#DejaVuSans-76"/>
     <use x="59.179688" xlink:href="#DejaVuSans-30"/>
     <use x="122.802734" xlink:href="#DejaVuSans-2e"/>
     <use x="154.589844" xlink:href="#DejaVuSans-30"/>
     <use x="218.212891" xlink:href="#DejaVuSans-2e"/>
     <use x="250" xlink:href="#DejaVuSans-30"/>
    </g>
   </g>
  </g>
 </g>
 <defs>
  <clipPath id="p374f9bc9e1">
   <rect height="288.034772" width="277.048" x="56.12" y="6.845228"/>
  </clipPath>
 </defs>
</svg>
