<?xml version="1.0" encoding="utf-8" standalone="no"?>
<!DOCTYPE svg PUBLIC "-//W3C//DTD SVG 1.1//EN"
  "http://www.w3.org/Graphics/SVG/1.1/DTD/svg11.dtd">
<!-- Created with matplotlib (http://matplotlib.org/) -->
<svg height="345pt" version="1.1" viewBox="0 0 460 345" width="460pt" xmlns="http://www.w3.org/2000/svg" xmlns:xlink="http://www.w3.org/1999/xlink">
 <defs>
  <style type="text/css">
*{stroke-linecap:butt;stroke-linejoin:round;}
  </style>
 </defs>
 <g id="figure_1">
  <g id="patch_1">
   <path d="M 0 345.6 
L 460.8 345.6 
L 460.8 0 
L 0 0 
z
" style="fill:#ffffff;"/>
  </g>
  <g id="axes_1">
   <g id="patch_2">
    <path d="M 59.72 291.28 
L 450.672 291.28 
L 450.672 6.845228 
L 59.72 6.845228 
z
" style="fill:#ffffff;"/>
   </g>
   <g id="line2d_1">
    <path clip-path="url(#p8bf2ce8c33)" d="M 259.429846 291.28 
L 259.429846 287.525086 
L 259.429846 287.525086 
L 259.429846 283.770171 
L 259.429846 283.770171 
L 259.429846 280.015257 
L 259.429846 280.015257 
L 259.429846 276.260342 
L 259.429846 276.260342 
L 259.429846 272.505428 
L 259.429846 272.505428 
L 259.429846 268.750513 
L 259.429846 268.750513 
L 259.429846 264.995599 
L 259.429846 264.995599 
L 259.429846 261.240684 
L 259.429846 261.240684 
L 259.429846 257.48577 
L 259.429846 257.48577 
L 259.429846 253.730855 
L 259.429846 253.730855 
L 259.429846 249.975941 
L 259.429846 249.975941 
L 259.429846 246.221026 
L 259.429846 246.221026 
L 259.429846 242.466112 
L 259.429846 242.466112 
L 259.429846 238.711197 
L 259.429846 238.711197 
L 259.429846 234.956283 
L 267.547044 234.956283 
L 267.547044 231.201368 
L 271.27912 231.201368 
L 271.27912 227.446454 
L 271.27912 227.446454 
L 271.27912 223.691539 
L 274.822943 223.691539 
L 274.822943 219.936625 
L 274.822943 219.936625 
L 274.822943 216.18171 
L 274.822943 216.18171 
L 274.822943 212.426796 
L 274.822943 212.426796 
L 274.822943 208.671881 
L 278.196595 208.671881 
L 278.196595 204.916967 
L 278.196595 204.916967 
L 278.196595 201.162052 
L 278.196595 201.162052 
L 278.196595 197.407138 
L 281.415674 197.407138 
L 281.415674 193.652223 
L 281.415674 193.652223 
L 281.415674 189.897309 
L 281.415674 189.897309 
L 281.415674 186.142394 
L 281.415674 186.142394 
L 281.415674 182.38748 
L 284.493725 182.38748 
L 284.493725 178.632565 
L 461.8 178.632565 
" style="fill:none;stroke:#f5deb3;stroke-linecap:square;stroke-width:1.5;"/>
   </g>
   <g id="line2d_2">
    <path clip-path="url(#p8bf2ce8c33)" style="fill:none;stroke:#f5deb3;stroke-linecap:square;stroke-width:1.5;"/>
   </g>
   <g id="line2d_3">
    <path clip-path="url(#p8bf2ce8c33)" d="M 232.256641 291.28 
L 232.256641 287.525086 
L 232.256641 287.525086 
L 232.256641 283.770171 
L 232.256641 283.770171 
L 232.256641 280.015257 
L 232.256641 280.015257 
L 232.256641 276.260342 
L 232.557588 276.260342 
L 232.557588 272.505428 
L 232.857251 272.505428 
L 232.857251 268.750513 
L 232.857251 268.750513 
L 232.857251 264.995599 
L 232.857251 264.995599 
L 232.857251 261.240684 
L 232.857251 261.240684 
L 232.857251 257.48577 
L 232.857251 257.48577 
L 232.857251 253.730855 
L 232.857251 253.730855 
L 232.857251 249.975941 
L 232.857251 249.975941 
L 232.857251 246.221026 
L 232.857251 246.221026 
L 232.857251 242.466112 
L 232.857251 242.466112 
L 232.857251 238.711197 
L 233.155642 238.711197 
L 233.155642 234.956283 
L 233.452771 234.956283 
L 233.452771 231.201368 
L 234.043286 231.201368 
L 234.043286 227.446454 
L 236.923646 227.446454 
L 236.923646 223.691539 
L 238.043525 223.691539 
L 238.043525 219.936625 
L 240.231123 219.936625 
L 240.231123 216.18171 
L 240.231123 216.18171 
L 240.231123 212.426796 
L 241.034228 212.426796 
L 241.034228 208.671881 
L 241.299903 208.671881 
L 241.299903 204.916967 
L 241.564577 204.916967 
L 241.564577 201.162052 
L 242.873199 201.162052 
L 242.873199 197.407138 
L 243.132024 197.407138 
L 243.132024 193.652223 
L 243.902828 193.652223 
L 243.902828 189.897309 
L 246.165772 189.897309 
L 246.165772 186.142394 
L 250.017198 186.142394 
L 250.017198 182.38748 
L 252.998141 182.38748 
L 252.998141 178.632565 
L 252.998141 178.632565 
L 252.998141 178.632565 
L 450.672 178.632565 
" style="fill:none;stroke:#f5deb3;stroke-linecap:square;stroke-width:1.5;"/>
   </g>
   <g id="line2d_4">
    <path clip-path="url(#p8bf2ce8c33)" d="M 181.40504 291.28 
L 181.40504 287.525086 
L 182.637895 287.525086 
L 182.637895 283.770171 
L 184.447547 283.770171 
L 184.447547 280.015257 
L 186.790128 280.015257 
L 186.790128 276.260342 
L 189.057129 276.260342 
L 189.057129 272.505428 
L 196.961061 272.505428 
L 196.961061 268.750513 
L 196.961061 268.750513 
L 196.961061 264.995599 
L 197.457677 264.995599 
L 197.457677 261.240684 
L 200.839062 261.240684 
L 200.839062 257.48577 
L 200.839062 257.48577 
L 200.839062 253.730855 
L 204.960362 253.730855 
L 204.960362 249.975941 
L 209.689854 249.975941 
L 209.689854 246.221026 
L 210.51658 246.221026 
L 210.51658 242.466112 
L 212.141414 242.466112 
L 212.141414 238.711197 
L 240.231123 238.711197 
L 240.231123 234.956283 
L 367.912097 234.956283 
L 367.912097 231.201368 
L 371.077604 231.201368 
L 371.077604 227.446454 
L 371.536211 227.446454 
L 371.536211 223.691539 
L 372.074371 223.691539 
L 372.074371 219.936625 
L 372.853572 219.936625 
L 372.853572 216.18171 
L 374.665298 216.18171 
L 374.665298 212.426796 
L 374.90337 212.426796 
L 374.90337 208.671881 
L 375.022104 208.671881 
L 375.022104 204.916967 
L 375.140638 204.916967 
L 375.140638 201.162052 
L 375.573561 201.162052 
L 375.573561 197.407138 
L 375.808581 197.407138 
L 375.808581 193.652223 
L 375.886746 193.652223 
L 375.886746 189.897309 
L 377.660969 189.897309 
L 377.660969 186.142394 
L 377.965008 186.142394 
L 377.965008 182.38748 
L 378.305487 182.38748 
L 378.305487 178.632565 
L 461.8 178.632565 
" style="fill:none;stroke:#f5deb3;stroke-linecap:square;stroke-width:1.5;"/>
   </g>
   <g id="line2d_5">
    <path clip-path="url(#p8bf2ce8c33)" d="M 310.157359 291.28 
L 310.157359 287.525086 
L 310.157359 287.525086 
L 310.157359 283.770171 
L 315.058617 283.770171 
L 315.058617 280.015257 
L 317.071724 280.015257 
L 317.071724 276.260342 
L 319.727113 276.260342 
L 319.727113 272.505428 
L 333.416606 272.505428 
L 333.416606 268.750513 
L 340.41892 268.750513 
L 340.41892 264.995599 
L 340.483597 264.995599 
L 340.483597 261.240684 
L 340.87041 261.240684 
L 340.87041 257.48577 
L 343.82896 257.48577 
L 343.82896 253.730855 
L 348.767502 253.730855 
L 348.767502 249.975941 
L 355.658039 249.975941 
L 355.658039 246.221026 
L 360.925182 246.221026 
L 360.925182 242.466112 
L 361.454805 242.466112 
L 361.454805 238.711197 
L 367.031497 238.711197 
L 367.031497 234.956283 
L 384.99616 234.956283 
L 384.99616 231.201368 
L 390.504606 231.201368 
L 390.504606 227.446454 
L 390.789553 227.446454 
L 390.789553 223.691539 
L 391.104811 223.691539 
L 391.104811 219.936625 
L 391.293289 219.936625 
L 391.293289 216.18171 
L 391.481264 216.18171 
L 391.481264 212.426796 
L 391.481264 212.426796 
L 391.481264 208.671881 
L 391.699933 208.671881 
L 391.699933 204.916967 
L 392.166231 204.916967 
L 392.166231 201.162052 
L 392.382783 201.162052 
L 392.382783 197.407138 
L 392.690989 197.407138 
L 392.690989 193.652223 
L 394.242153 193.652223 
L 394.242153 189.897309 
L 394.30229 189.897309 
L 394.30229 186.142394 
L 394.900854 186.142394 
L 394.900854 182.38748 
L 396.170756 182.38748 
L 396.170756 178.632565 
L 461.8 178.632565 
" style="fill:none;stroke:#f5deb3;stroke-linecap:square;stroke-width:1.5;"/>
   </g>
   <g id="line2d_6"/>
   <g id="line2d_7">
    <path clip-path="url(#p8bf2ce8c33)" d="M 230.732266 291.28 
L 230.732266 287.525086 
L 245.169005 287.525086 
L 245.169005 283.770171 
L 246.41277 283.770171 
L 246.41277 280.015257 
L 247.392172 280.015257 
L 247.392172 276.260342 
L 247.634904 276.260342 
L 247.634904 272.505428 
L 248.358111 272.505428 
L 248.358111 268.750513 
L 249.547156 268.750513 
L 249.547156 264.995599 
L 249.547156 264.995599 
L 249.547156 261.240684 
L 250.017198 261.240684 
L 250.017198 257.48577 
L 256.287552 257.48577 
L 256.287552 253.730855 
L 258.397949 253.730855 
L 258.397949 249.975941 
L 260.244591 249.975941 
L 260.244591 246.221026 
L 262.043944 246.221026 
L 262.043944 242.466112 
L 271.968056 242.466112 
L 271.968056 238.711197 
L 271.968056 238.711197 
L 271.968056 234.956283 
L 403.104692 234.956283 
L 403.104692 231.201368 
L 403.97436 231.201368 
L 403.97436 227.446454 
L 405.733165 227.446454 
L 405.733165 223.691539 
L 406.166073 223.691539 
L 406.166073 219.936625 
L 406.368875 219.936625 
L 406.368875 216.18171 
L 406.697186 216.18171 
L 406.697186 212.426796 
L 406.873335 212.426796 
L 406.873335 208.671881 
L 407.324273 208.671881 
L 407.324273 204.916967 
L 407.34924 204.916967 
L 407.34924 201.162052 
L 408.389943 201.162052 
L 408.389943 197.407138 
L 409.07528 197.407138 
L 409.07528 193.652223 
L 409.72987 193.652223 
L 409.72987 189.897309 
L 411.446205 189.897309 
L 411.446205 186.142394 
L 412.079176 186.142394 
L 412.079176 182.38748 
L 412.405151 182.38748 
L 412.405151 178.632565 
L 461.8 178.632565 
" style="fill:none;stroke:#f5deb3;stroke-linecap:square;stroke-width:1.5;"/>
   </g>
   <g id="line2d_8">
    <path clip-path="url(#p8bf2ce8c33)" d="M 0 0 
" style="fill:none;stroke:#f5deb3;stroke-linecap:square;stroke-width:1.5;"/>
   </g>
   <g id="line2d_9">
    <path clip-path="url(#p8bf2ce8c33)" d="M 223.601913 291.28 
L 223.601913 287.525086 
L 225.950086 287.525086 
L 225.950086 283.770171 
L 230.423383 283.770171 
L 230.423383 280.015257 
L 231.650854 280.015257 
L 231.650854 276.260342 
L 231.9544 276.260342 
L 231.9544 272.505428 
L 232.857251 272.505428 
L 232.857251 268.750513 
L 234.628881 268.750513 
L 234.628881 264.995599 
L 234.919858 264.995599 
L 234.919858 261.240684 
L 236.640865 261.240684 
L 236.640865 257.48577 
L 242.090954 257.48577 
L 242.090954 253.730855 
L 243.389899 253.730855 
L 243.389899 249.975941 
L 248.358111 249.975941 
L 248.358111 246.221026 
L 250.017198 246.221026 
L 250.017198 242.466112 
L 252.998141 242.466112 
L 252.998141 238.711197 
L 255.425322 238.711197 
L 255.425322 234.956283 
L 398.671969 234.956283 
L 398.671969 231.201368 
L 402.358256 231.201368 
L 402.358256 227.446454 
L 402.812394 227.446454 
L 402.812394 223.691539 
L 403.474957 223.691539 
L 403.474957 219.936625 
L 403.764518 219.936625 
L 403.764518 216.18171 
L 404.936813 216.18171 
L 404.936813 212.426796 
L 405.014275 212.426796 
L 405.014275 208.671881 
L 405.682059 208.671881 
L 405.682059 204.916967 
L 406.216828 204.916967 
L 406.216828 201.162052 
L 406.923582 201.162052 
L 406.923582 197.407138 
L 407.274311 197.407138 
L 407.274311 193.652223 
L 407.871518 193.652223 
L 407.871518 189.897309 
L 408.782382 189.897309 
L 408.782382 186.142394 
L 408.88015 186.142394 
L 408.88015 182.38748 
L 413.213536 182.38748 
L 413.213536 178.632565 
L 461.8 178.632565 
" style="fill:none;stroke:#f5deb3;stroke-linecap:square;stroke-width:1.5;"/>
   </g>
   <g id="line2d_10">
    <path clip-path="url(#p8bf2ce8c33)" d="M 276.930418 291.28 
L 276.930418 287.525086 
L 279.131477 287.525086 
L 279.131477 283.770171 
L 288.80447 283.770171 
L 288.80447 280.015257 
L 288.80447 280.015257 
L 288.80447 276.260342 
L 294.002472 276.260342 
L 294.002472 272.505428 
L 302.153823 272.505428 
L 302.153823 268.750513 
L 307.726999 268.750513 
L 307.726999 264.995599 
L 461.8 264.995599 
" style="fill:none;stroke:#f5deb3;stroke-linecap:square;stroke-width:1.5;"/>
   </g>
   <g id="line2d_11">
    <path clip-path="url(#p8bf2ce8c33)" d="M 169.948095 291.28 
L 169.948095 287.525086 
L 180.780406 287.525086 
L 180.780406 283.770171 
L 182.637895 283.770171 
L 182.637895 280.015257 
L 183.849493 280.015257 
L 183.849493 276.260342 
L 185.628599 276.260342 
L 185.628599 272.505428 
L 187.363772 272.505428 
L 187.363772 268.750513 
L 191.791751 268.750513 
L 191.791751 264.995599 
L 196.46091 264.995599 
L 196.46091 261.240684 
L 196.961061 261.240684 
L 196.961061 257.48577 
L 199.88944 257.48577 
L 199.88944 253.730855 
L 205.844285 253.730855 
L 205.844285 249.975941 
L 212.141414 249.975941 
L 212.141414 246.221026 
L 212.541819 246.221026 
L 212.541819 242.466112 
L 224.617896 242.466112 
L 224.617896 238.711197 
L 234.919858 238.711197 
L 234.919858 234.956283 
L 355.553779 234.956283 
L 355.553779 231.201368 
L 356.538055 231.201368 
L 356.538055 227.446454 
L 358.16524 227.446454 
L 358.16524 223.691539 
L 358.315874 223.691539 
L 358.315874 219.936625 
L 360.098742 219.936625 
L 360.098742 216.18171 
L 360.488866 216.18171 
L 360.488866 212.426796 
L 361.93284 212.426796 
L 361.93284 208.671881 
L 362.596673 208.671881 
L 362.596673 204.916967 
L 362.738111 204.916967 
L 362.738111 201.162052 
L 364.137047 201.162052 
L 364.137047 197.407138 
L 364.643092 197.407138 
L 364.643092 193.652223 
L 365.008849 193.652223 
L 365.008849 189.897309 
L 366.004974 189.897309 
L 366.004974 186.142394 
L 367.208502 186.142394 
L 367.208502 182.38748 
L 368.435208 182.38748 
L 368.435208 178.632565 
L 368.435208 178.632565 
L 368.435208 178.632565 
L 450.672 178.632565 
" style="fill:none;stroke:#f5deb3;stroke-linecap:square;stroke-width:1.5;"/>
   </g>
   <g id="line2d_12">
    <path clip-path="url(#p8bf2ce8c33)" d="M 113.510135 291.28 
L 113.510135 287.525086 
L 113.510135 287.525086 
L 113.510135 283.770171 
L 113.510135 283.770171 
L 113.510135 280.015257 
L 113.510135 280.015257 
L 113.510135 276.260342 
L 113.510135 276.260342 
L 113.510135 272.505428 
L 113.510135 272.505428 
L 113.510135 268.750513 
L 113.510135 268.750513 
L 113.510135 264.995599 
L 113.510135 264.995599 
L 113.510135 261.240684 
L 113.510135 261.240684 
L 113.510135 257.48577 
L 113.510135 257.48577 
L 113.510135 253.730855 
L 113.510135 253.730855 
L 113.510135 249.975941 
L 113.510135 249.975941 
L 113.510135 246.221026 
L 113.510135 246.221026 
L 113.510135 242.466112 
L 113.510135 242.466112 
L 113.510135 238.711197 
L 113.510135 238.711197 
L 113.510135 234.956283 
L 161.396338 234.956283 
L 161.396338 231.201368 
L 176.911304 231.201368 
L 176.911304 227.446454 
L 176.911304 227.446454 
L 176.911304 223.691539 
L 176.911304 223.691539 
L 176.911304 219.936625 
L 176.911304 219.936625 
L 176.911304 216.18171 
L 176.911304 216.18171 
L 176.911304 212.426796 
L 176.911304 212.426796 
L 176.911304 208.671881 
L 176.911304 208.671881 
L 176.911304 204.916967 
L 176.911304 204.916967 
L 176.911304 201.162052 
L 176.911304 201.162052 
L 176.911304 197.407138 
L 189.612633 197.407138 
L 189.612633 193.652223 
L 189.612633 193.652223 
L 189.612633 189.897309 
L 189.612633 189.897309 
L 189.612633 186.142394 
L 189.612633 186.142394 
L 189.612633 182.38748 
L 209.689854 182.38748 
L 209.689854 178.632565 
L 461.8 178.632565 
" style="fill:none;stroke:#f5deb3;stroke-linecap:square;stroke-width:1.5;"/>
   </g>
   <g id="line2d_13">
    <path clip-path="url(#p8bf2ce8c33)" d="M 378.154367 291.28 
L 378.154367 287.525086 
L 378.154367 287.525086 
L 378.154367 283.770171 
L 379.279926 283.770171 
L 379.279926 280.015257 
L 379.279926 280.015257 
L 379.279926 276.260342 
L 380.971511 276.260342 
L 380.971511 272.505428 
L 381.152949 272.505428 
L 381.152949 268.750513 
L 381.152949 268.750513 
L 381.152949 264.995599 
L 381.152949 264.995599 
L 381.152949 261.240684 
L 382.124701 261.240684 
L 382.124701 257.48577 
L 384.99616 257.48577 
L 384.99616 253.730855 
L 384.99616 253.730855 
L 384.99616 249.975941 
L 384.99616 249.975941 
L 384.99616 246.221026 
L 385.133274 246.221026 
L 385.133274 242.466112 
L 385.133274 242.466112 
L 385.133274 238.711197 
L 385.133274 238.711197 
L 385.133274 234.956283 
L 385.133274 234.956283 
L 385.133274 234.956283 
L 450.672 234.956283 
" style="fill:none;stroke:#f5deb3;stroke-linecap:square;stroke-width:1.5;"/>
   </g>
   <g id="line2d_14">
    <path clip-path="url(#p8bf2ce8c33)" d="M 206.282111 291.28 
L 206.282111 287.525086 
L 208.431237 287.525086 
L 208.431237 283.770171 
L 209.689854 283.770171 
L 209.689854 280.015257 
L 211.333693 280.015257 
L 211.333693 276.260342 
L 211.738714 276.260342 
L 211.738714 272.505428 
L 211.738714 272.505428 
L 211.738714 268.750513 
L 212.141414 268.750513 
L 212.141414 264.995599 
L 212.541819 264.995599 
L 212.541819 261.240684 
L 213.33585 261.240684 
L 213.33585 257.48577 
L 213.33585 257.48577 
L 213.33585 253.730855 
L 213.33585 253.730855 
L 213.33585 249.975941 
L 213.33585 249.975941 
L 213.33585 246.221026 
L 213.729525 246.221026 
L 213.729525 242.466112 
L 214.121008 242.466112 
L 214.121008 238.711197 
L 214.121008 238.711197 
L 214.121008 234.956283 
L 312.986134 234.956283 
L 312.986134 231.201368 
L 314.405797 231.201368 
L 314.405797 227.446454 
L 316.437424 227.446454 
L 316.437424 223.691539 
L 317.161873 223.691539 
L 317.161873 219.936625 
L 317.789696 219.936625 
L 317.789696 216.18171 
L 321.103332 216.18171 
L 321.103332 212.426796 
L 321.358399 212.426796 
L 321.358399 208.671881 
L 321.527931 208.671881 
L 321.527931 204.916967 
L 322.201997 204.916967 
L 322.201997 201.162052 
L 323.201127 201.162052 
L 323.201127 197.407138 
L 323.448705 197.407138 
L 323.448705 193.652223 
L 323.613274 193.652223 
L 323.613274 189.897309 
L 325.318372 189.897309 
L 325.318372 186.142394 
L 325.798039 186.142394 
L 325.798039 182.38748 
L 326.116007 182.38748 
L 326.116007 178.632565 
L 338.383842 178.632565 
L 338.383842 174.877651 
L 342.585195 174.877651 
L 342.585195 171.122736 
L 343.085346 171.122736 
L 343.085346 167.367822 
L 345.111646 167.367822 
L 345.111646 163.612907 
L 345.654282 163.612907 
L 345.654282 159.857993 
L 346.311862 159.857993 
L 346.311862 156.103079 
L 347.433388 156.103079 
L 347.433388 152.348164 
L 348.652492 152.348164 
L 348.652492 148.59325 
L 349.16856 148.59325 
L 349.16856 144.838335 
L 351.968569 144.838335 
L 351.968569 141.083421 
L 360.683119 141.083421 
L 360.683119 137.328506 
L 363.9984 137.328506 
L 363.9984 133.573592 
L 368.954453 133.573592 
L 368.954453 129.818677 
L 461.8 129.818677 
" style="fill:none;stroke:#f5deb3;stroke-linecap:square;stroke-width:1.5;"/>
   </g>
   <g id="line2d_15"/>
   <g id="line2d_16">
    <path clip-path="url(#p8bf2ce8c33)" d="M 392.936585 291.28 
L 392.936585 287.525086 
L 393.516457 287.525086 
L 393.516457 283.770171 
L 394.841226 283.770171 
L 394.841226 280.015257 
L 395.435236 280.015257 
L 395.435236 276.260342 
L 400.676664 276.260342 
L 400.676664 272.505428 
L 405.117425 272.505428 
L 405.117425 268.750513 
L 407.945813 268.750513 
L 407.945813 264.995599 
L 410.114917 264.995599 
L 410.114917 261.240684 
L 411.163045 261.240684 
L 411.163045 257.48577 
L 411.516818 257.48577 
L 411.516818 253.730855 
L 412.845142 253.730855 
L 412.845142 249.975941 
L 413.351187 249.975941 
L 413.351187 246.221026 
L 417.89926 246.221026 
L 417.89926 242.466112 
L 419.281962 242.466112 
L 419.281962 238.711197 
L 433.153108 238.711197 
L 433.153108 234.956283 
L 461.8 234.956283 
L 461.8 234.956283 
" style="fill:none;stroke:#f5deb3;stroke-linecap:square;stroke-width:1.5;"/>
   </g>
   <g id="line2d_17">
    <path clip-path="url(#p8bf2ce8c33)" d="M 427.070169 291.28 
L 427.070169 287.525086 
L 435.197993 287.525086 
L 435.197993 283.770171 
L 435.197993 283.770171 
L 435.197993 280.015257 
L 435.365744 280.015257 
L 435.365744 276.260342 
L 438.830966 276.260342 
L 438.830966 272.505428 
L 455.857347 272.505428 
L 455.857347 268.750513 
L 461.8 268.750513 
" style="fill:none;stroke:#f5deb3;stroke-linecap:square;stroke-width:1.5;"/>
   </g>
   <g id="line2d_18">
    <path clip-path="url(#p8bf2ce8c33)" d="M 113.510135 291.28 
L 113.510135 287.525086 
L 113.510135 287.525086 
L 113.510135 283.770171 
L 113.510135 283.770171 
L 113.510135 280.015257 
L 113.510135 280.015257 
L 113.510135 276.260342 
L 113.510135 276.260342 
L 113.510135 272.505428 
L 113.510135 272.505428 
L 113.510135 268.750513 
L 113.510135 268.750513 
L 113.510135 264.995599 
L 113.510135 264.995599 
L 113.510135 261.240684 
L 115.12563 261.240684 
L 115.12563 257.48577 
L 115.12563 257.48577 
L 115.12563 253.730855 
L 115.12563 253.730855 
L 115.12563 249.975941 
L 115.12563 249.975941 
L 115.12563 246.221026 
L 115.12563 246.221026 
L 115.12563 242.466112 
L 115.12563 242.466112 
L 115.12563 238.711197 
L 118.249296 238.711197 
L 118.249296 234.956283 
L 119.760557 234.956283 
L 119.760557 231.201368 
L 119.760557 231.201368 
L 119.760557 227.446454 
L 124.108599 227.446454 
L 124.108599 223.691539 
L 125.500148 223.691539 
L 125.500148 219.936625 
L 128.203209 219.936625 
L 128.203209 216.18171 
L 135.739452 216.18171 
L 135.739452 212.426796 
L 136.920504 212.426796 
L 136.920504 208.671881 
L 136.920504 208.671881 
L 136.920504 204.916967 
L 140.349034 204.916967 
L 140.349034 201.162052 
L 154.45035 201.162052 
L 154.45035 197.407138 
L 155.357084 197.407138 
L 155.357084 193.652223 
L 155.357084 193.652223 
L 155.357084 189.897309 
L 160.56472 189.897309 
L 160.56472 186.142394 
L 162.21823 186.142394 
L 162.21823 182.38748 
L 164.627755 182.38748 
L 164.627755 178.632565 
L 461.8 178.632565 
" style="fill:none;stroke:#f5deb3;stroke-linecap:square;stroke-width:1.5;"/>
   </g>
   <g id="line2d_19">
    <path clip-path="url(#p8bf2ce8c33)" style="fill:none;stroke:#f5deb3;stroke-linecap:square;stroke-width:1.5;"/>
   </g>
   <g id="line2d_20">
    <path clip-path="url(#p8bf2ce8c33)" d="M 203.158445 291.28 
L 203.158445 287.525086 
L 212.141414 287.525086 
L 212.141414 283.770171 
L 212.939956 283.770171 
L 212.939956 280.015257 
L 218.289239 280.015257 
L 218.289239 276.260342 
L 228.541013 276.260342 
L 228.541013 272.505428 
L 232.557588 272.505428 
L 232.557588 268.750513 
L 234.336694 268.750513 
L 234.336694 264.995599 
L 235.209636 264.995599 
L 235.209636 261.240684 
L 243.132024 261.240684 
L 243.132024 257.48577 
L 246.41277 257.48577 
L 246.41277 253.730855 
L 248.597535 253.730855 
L 248.597535 249.975941 
L 251.866539 249.975941 
L 251.866539 246.221026 
L 254.990206 246.221026 
L 254.990206 242.466112 
L 259.838399 242.466112 
L 259.838399 238.711197 
L 271.796455 238.711197 
L 271.796455 234.956283 
L 366.809612 234.956283 
L 366.809612 231.201368 
L 368.435208 231.201368 
L 368.435208 227.446454 
L 371.494643 227.446454 
L 371.494643 223.691539 
L 372.197979 223.691539 
L 372.197979 219.936625 
L 376.895066 219.936625 
L 376.895066 216.18171 
L 379.799081 216.18171 
L 379.799081 212.426796 
L 379.799081 212.426796 
L 379.799081 208.671881 
L 380.167571 208.671881 
L 380.167571 204.916967 
L 380.167571 204.916967 
L 380.167571 201.162052 
L 380.351094 201.162052 
L 380.351094 197.407138 
L 380.898805 197.407138 
L 380.898805 193.652223 
L 384.6522 193.652223 
L 384.6522 189.897309 
L 385.440806 189.897309 
L 385.440806 186.142394 
L 387.523558 186.142394 
L 387.523558 182.38748 
L 397.64776 182.38748 
L 397.64776 178.632565 
L 461.8 178.632565 
" style="fill:none;stroke:#f5deb3;stroke-linecap:square;stroke-width:1.5;"/>
   </g>
   <g id="line2d_21">
    <path clip-path="url(#p8bf2ce8c33)" d="M 0 0 
" style="fill:none;stroke:#f5deb3;stroke-linecap:square;stroke-width:1.5;"/>
   </g>
   <g id="line2d_22">
    <path clip-path="url(#p8bf2ce8c33)" d="M 236.356942 291.28 
L 236.356942 287.525086 
L 241.564577 287.525086 
L 241.564577 283.770171 
L 248.597535 283.770171 
L 248.597535 280.015257 
L 252.773274 280.015257 
L 252.773274 276.260342 
L 257.771458 276.260342 
L 257.771458 272.505428 
L 262.43762 272.505428 
L 262.43762 268.750513 
L 262.633634 268.750513 
L 262.633634 264.995599 
L 263.605585 264.995599 
L 263.605585 261.240684 
L 265.321921 261.240684 
L 265.321921 257.48577 
L 265.884842 257.48577 
L 265.884842 253.730855 
L 270.932103 253.730855 
L 270.932103 249.975941 
L 271.27912 249.975941 
L 271.27912 246.221026 
L 272.480362 246.221026 
L 272.480362 242.466112 
L 278.509607 242.466112 
L 278.509607 238.711197 
L 301.930386 238.711197 
L 301.930386 234.956283 
L 372.649355 234.956283 
L 372.649355 231.201368 
L 385.201731 231.201368 
L 385.201731 227.446454 
L 385.201731 227.446454 
L 385.201731 223.691539 
L 386.321745 223.691539 
L 386.321745 219.936625 
L 387.391033 219.936625 
L 387.391033 216.18171 
L 388.476956 216.18171 
L 388.476956 212.426796 
L 392.721736 212.426796 
L 392.721736 208.671881 
L 393.089647 208.671881 
L 393.089647 204.916967 
L 393.486056 204.916967 
L 393.486056 201.162052 
L 394.512368 201.162052 
L 394.512368 197.407138 
L 396.782698 197.407138 
L 396.782698 193.652223 
L 402.250972 193.652223 
L 402.250972 189.897309 
L 402.759118 189.897309 
L 402.759118 186.142394 
L 405.937219 186.142394 
L 405.937219 182.38748 
L 410.186879 182.38748 
L 410.186879 178.632565 
L 432.702095 178.632565 
L 432.702095 174.877651 
L 435.816682 174.877651 
L 435.816682 171.122736 
L 442.39152 171.122736 
L 442.39152 167.367822 
L 442.90511 167.367822 
L 442.90511 163.612907 
L 443.444851 163.612907 
L 443.444851 159.857993 
L 446.798665 159.857993 
L 446.798665 156.103079 
L 447.252851 156.103079 
L 447.252851 152.348164 
L 448.166478 152.348164 
L 448.166478 148.59325 
L 448.38956 148.59325 
L 448.38956 144.838335 
L 448.528628 144.838335 
L 448.528628 141.083421 
L 448.792101 141.083421 
L 448.792101 137.328506 
L 449.59033 137.328506 
L 449.59033 133.573592 
L 452.969969 133.573592 
L 452.969969 129.818677 
L 456.802264 129.818677 
L 456.802264 126.063763 
L 461.691611 126.063763 
L 461.691611 122.308848 
L 461.691611 122.308848 
" style="fill:none;stroke:#f5deb3;stroke-linecap:square;stroke-width:1.5;"/>
   </g>
   <g id="line2d_23">
    <path clip-path="url(#p8bf2ce8c33)" d="M 307.93277 291.28 
L 307.93277 287.525086 
L 319.900621 287.525086 
L 319.900621 283.770171 
L 322.453115 283.770171 
L 322.453115 280.015257 
L 323.695415 280.015257 
L 323.695415 276.260342 
L 325.798039 276.260342 
L 325.798039 272.505428 
L 329.143053 272.505428 
L 329.143053 268.750513 
L 331.826044 268.750513 
L 331.826044 264.995599 
L 347.491922 264.995599 
L 347.491922 261.240684 
L 461.8 261.240684 
" style="fill:none;stroke:#f5deb3;stroke-linecap:square;stroke-width:1.5;"/>
   </g>
   <g id="line2d_24">
    <path clip-path="url(#p8bf2ce8c33)" d="M 384.375814 291.28 
L 384.375814 287.525086 
L 393.455642 287.525086 
L 393.455642 283.770171 
L 408.02003 283.770171 
L 408.02003 280.015257 
L 408.094169 280.015257 
L 408.094169 276.260342 
L 408.118864 276.260342 
L 408.118864 272.505428 
L 412.195769 272.505428 
L 412.195769 268.750513 
L 414.780475 268.750513 
L 414.780475 264.995599 
L 414.915094 264.995599 
L 414.915094 261.240684 
L 420.823693 261.240684 
L 420.823693 257.48577 
L 421.173147 257.48577 
L 421.173147 253.730855 
L 426.445197 253.730855 
L 426.445197 249.975941 
L 426.578232 249.975941 
L 426.578232 246.221026 
L 431.667778 246.221026 
L 431.667778 242.466112 
L 436.512439 242.466112 
L 436.512439 238.711197 
L 436.578344 238.711197 
L 436.578344 234.956283 
L 461.8 234.956283 
" style="fill:none;stroke:#f5deb3;stroke-linecap:square;stroke-width:1.5;"/>
   </g>
   <g id="line2d_25">
    <path clip-path="url(#p8bf2ce8c33)" d="M 315.705428 291.28 
L 315.705428 287.525086 
L 319.987215 287.525086 
L 319.987215 283.770171 
L 320.847335 283.770171 
L 320.847335 280.015257 
L 322.201997 280.015257 
L 322.201997 276.260342 
L 338.116906 276.260342 
L 338.116906 272.505428 
L 339.899355 272.505428 
L 339.899355 268.750513 
L 340.289388 268.750513 
L 340.289388 264.995599 
L 345.292991 264.995599 
L 345.292991 261.240684 
L 354.872295 261.240684 
L 354.872295 257.48577 
L 361.358806 257.48577 
L 361.358806 253.730855 
L 362.832244 253.730855 
L 362.832244 249.975941 
L 369.640866 249.975941 
L 369.640866 246.221026 
L 370.742181 246.221026 
L 370.742181 242.466112 
L 375.180105 242.466112 
L 375.180105 238.711197 
L 461.8 238.711197 
" style="fill:none;stroke:#f5deb3;stroke-linecap:square;stroke-width:1.5;"/>
   </g>
   <g id="line2d_26">
    <path clip-path="url(#p8bf2ce8c33)" d="M 368.608716 291.28 
L 368.608716 287.525086 
L 369.726198 287.525086 
L 369.726198 283.770171 
L 373.70486 283.770171 
L 373.70486 280.015257 
L 374.665298 280.015257 
L 374.665298 276.260342 
L 374.824102 276.260342 
L 374.824102 272.505428 
L 375.180105 272.505428 
L 375.180105 268.750513 
L 375.21955 268.750513 
L 375.21955 264.995599 
L 376.276276 264.995599 
L 376.276276 261.240684 
L 376.276276 261.240684 
L 376.276276 257.48577 
L 377.622872 257.48577 
L 377.622872 253.730855 
L 378.981536 253.730855 
L 378.981536 249.975941 
L 379.688156 249.975941 
L 379.688156 246.221026 
L 381.297763 246.221026 
L 381.297763 242.466112 
L 381.622508 242.466112 
L 381.622508 238.711197 
L 399.17853 238.711197 
L 399.17853 234.956283 
L 461.8 234.956283 
" style="fill:none;stroke:#f5deb3;stroke-linecap:square;stroke-width:1.5;"/>
   </g>
   <g id="line2d_27">
    <path clip-path="url(#p8bf2ce8c33)" style="fill:none;stroke:#f5deb3;stroke-linecap:square;stroke-width:1.5;"/>
   </g>
   <g id="line2d_28">
    <path clip-path="url(#p8bf2ce8c33)" d="M 268.273365 291.28 
L 268.273365 287.525086 
L 268.453778 287.525086 
L 268.453778 283.770171 
L 268.633729 283.770171 
L 268.633729 280.015257 
L 268.813221 280.015257 
L 268.813221 276.260342 
L 275.641007 276.260342 
L 275.641007 272.505428 
L 275.641007 272.505428 
L 275.641007 268.750513 
L 275.641007 268.750513 
L 275.641007 264.995599 
L 275.641007 264.995599 
L 275.641007 261.240684 
L 275.803484 261.240684 
L 275.803484 257.48577 
L 282.308961 257.48577 
L 282.308961 253.730855 
L 282.308961 253.730855 
L 282.308961 249.975941 
L 282.751381 249.975941 
L 282.751381 246.221026 
L 289.073708 246.221026 
L 289.073708 242.466112 
L 294.12762 242.466112 
L 294.12762 238.711197 
L 304.457994 238.711197 
L 304.457994 234.956283 
L 461.8 234.956283 
" style="fill:none;stroke:#f5deb3;stroke-linecap:square;stroke-width:1.5;"/>
   </g>
   <g id="line2d_29">
    <path clip-path="url(#p8bf2ce8c33)" d="M 108.428095 291.28 
L 108.428095 287.525086 
L 108.428095 287.525086 
L 108.428095 283.770171 
L 108.428095 283.770171 
L 108.428095 280.015257 
L 108.428095 280.015257 
L 108.428095 276.260342 
L 108.428095 276.260342 
L 108.428095 272.505428 
L 108.428095 272.505428 
L 108.428095 268.750513 
L 110.163268 268.750513 
L 110.163268 264.995599 
L 110.163268 264.995599 
L 110.163268 261.240684 
L 110.163268 261.240684 
L 110.163268 257.48577 
L 110.163268 257.48577 
L 110.163268 253.730855 
L 110.163268 253.730855 
L 110.163268 249.975941 
L 110.163268 249.975941 
L 110.163268 246.221026 
L 110.163268 246.221026 
L 110.163268 242.466112 
L 110.163268 242.466112 
L 110.163268 238.711197 
L 110.163268 238.711197 
L 110.163268 234.956283 
L 143.618039 234.956283 
L 143.618039 231.201368 
L 143.618039 231.201368 
L 143.618039 227.446454 
L 143.618039 227.446454 
L 143.618039 223.691539 
L 261.049997 223.691539 
L 261.049997 219.936625 
L 261.049997 219.936625 
L 261.049997 216.18171 
L 261.049997 216.18171 
L 261.049997 212.426796 
L 262.043944 212.426796 
L 262.043944 208.671881 
L 262.043944 208.671881 
L 262.043944 204.916967 
L 262.043944 204.916967 
L 262.043944 201.162052 
L 262.829103 201.162052 
L 262.829103 197.407138 
L 262.829103 197.407138 
L 262.829103 193.652223 
L 262.829103 193.652223 
L 262.829103 189.897309 
L 263.218416 189.897309 
L 263.218416 186.142394 
L 263.218416 186.142394 
L 263.218416 182.38748 
L 263.218416 182.38748 
L 263.218416 178.632565 
L 263.218416 178.632565 
L 263.218416 178.632565 
L 450.672 178.632565 
" style="fill:none;stroke:#f5deb3;stroke-linecap:square;stroke-width:1.5;"/>
   </g>
   <g id="line2d_30">
    <path clip-path="url(#p8bf2ce8c33)" d="M 263.024029 291.28 
L 263.024029 287.525086 
L 263.024029 287.525086 
L 263.024029 283.770171 
L 263.990632 283.770171 
L 263.990632 280.015257 
L 265.697702 280.015257 
L 265.697702 276.260342 
L 266.443289 276.260342 
L 266.443289 272.505428 
L 266.443289 272.505428 
L 266.443289 268.750513 
L 267.547044 268.750513 
L 267.547044 264.995599 
L 267.911143 264.995599 
L 267.911143 261.240684 
L 268.092487 261.240684 
L 268.092487 257.48577 
L 268.273365 257.48577 
L 268.273365 253.730855 
L 268.813221 253.730855 
L 268.813221 249.975941 
L 269.880648 249.975941 
L 269.880648 246.221026 
L 270.757949 246.221026 
L 270.757949 242.466112 
L 270.932103 242.466112 
L 270.932103 238.711197 
L 272.480362 238.711197 
L 272.480362 234.956283 
L 272.819836 234.956283 
L 272.819836 231.201368 
L 273.325991 231.201368 
L 273.325991 227.446454 
L 274.493032 227.446454 
L 274.493032 223.691539 
L 274.98732 223.691539 
L 274.98732 219.936625 
L 275.641007 219.936625 
L 275.641007 216.18171 
L 276.77053 216.18171 
L 276.77053 212.426796 
L 277.249108 212.426796 
L 277.249108 208.671881 
L 278.82123 208.671881 
L 278.82123 204.916967 
L 280.510886 204.916967 
L 280.510886 201.162052 
L 280.964736 201.162052 
L 280.964736 197.407138 
L 281.265683 197.407138 
L 281.265683 193.652223 
L 282.456744 193.652223 
L 282.456744 189.897309 
L 283.336976 189.897309 
L 283.336976 186.142394 
L 283.627953 186.142394 
L 283.627953 182.38748 
L 299.192211 182.38748 
L 299.192211 178.632565 
L 304.565854 178.632565 
L 304.565854 174.877651 
L 304.565854 174.877651 
L 304.565854 171.122736 
L 304.565854 171.122736 
L 304.565854 167.367822 
L 304.565854 167.367822 
L 304.565854 163.612907 
L 304.565854 163.612907 
L 304.565854 159.857993 
L 304.565854 159.857993 
L 304.565854 156.103079 
L 304.565854 156.103079 
L 304.565854 152.348164 
L 304.565854 152.348164 
L 304.565854 148.59325 
L 304.565854 148.59325 
L 304.565854 144.838335 
L 304.565854 144.838335 
L 304.565854 141.083421 
L 304.565854 141.083421 
L 304.565854 137.328506 
L 304.565854 137.328506 
L 304.565854 133.573592 
L 304.565854 133.573592 
L 304.565854 129.818677 
L 304.565854 129.818677 
L 304.565854 126.063763 
L 304.565854 126.063763 
L 304.565854 122.308848 
L 304.565854 122.308848 
L 304.565854 122.308848 
L 450.672 122.308848 
" style="fill:none;stroke:#f5deb3;stroke-linecap:square;stroke-width:1.5;"/>
   </g>
   <g id="matplotlib.axis_1">
    <g id="xtick_1">
     <g id="line2d_31">
      <path clip-path="url(#p8bf2ce8c33)" d="M 221.524789 291.28 
L 221.524789 6.845228 
" style="fill:none;stroke:#b0b0b0;stroke-linecap:square;stroke-width:0.8;"/>
     </g>
     <g id="line2d_32">
      <defs>
       <path d="M 0 0 
L 0 3.5 
" id="mf9b70c4c04" style="stroke:#000000;stroke-width:0.8;"/>
      </defs>
      <g>
       <use style="stroke:#000000;stroke-width:0.8;" x="221.524789" xlink:href="#mf9b70c4c04" y="291.28"/>
      </g>
     </g>
     <g id="text_1">
      <!-- 1 -->
      <defs>
       <path d="M 12.40625 8.296875 
L 28.515625 8.296875 
L 28.515625 63.921875 
L 10.984375 60.40625 
L 10.984375 69.390625 
L 28.421875 72.90625 
L 38.28125 72.90625 
L 38.28125 8.296875 
L 54.390625 8.296875 
L 54.390625 0 
L 12.40625 0 
z
" id="DejaVuSans-31"/>
      </defs>
      <g transform="translate(215.162289 313.476875)scale(0.2 -0.2)">
       <use xlink:href="#DejaVuSans-31"/>
      </g>
     </g>
    </g>
    <g id="xtick_2">
     <g id="line2d_33">
      <path clip-path="url(#p8bf2ce8c33)" d="M 108.428095 291.28 
L 108.428095 6.845228 
" style="fill:none;stroke:#b0b0b0;stroke-linecap:square;stroke-width:0.8;"/>
     </g>
     <g id="line2d_34">
      <defs>
       <path d="M 0 0 
L 0 2 
" id="mf4f170ea4e" style="stroke:#000000;stroke-width:0.6;"/>
      </defs>
      <g>
       <use style="stroke:#000000;stroke-width:0.6;" x="108.428095" xlink:href="#mf4f170ea4e" y="291.28"/>
      </g>
     </g>
    </g>
    <g id="xtick_3">
     <g id="line2d_35">
      <path clip-path="url(#p8bf2ce8c33)" d="M 136.920504 291.28 
L 136.920504 6.845228 
" style="fill:none;stroke:#b0b0b0;stroke-linecap:square;stroke-width:0.8;"/>
     </g>
     <g id="line2d_36">
      <g>
       <use style="stroke:#000000;stroke-width:0.6;" x="136.920504" xlink:href="#mf4f170ea4e" y="291.28"/>
      </g>
     </g>
    </g>
    <g id="xtick_4">
     <g id="line2d_37">
      <path clip-path="url(#p8bf2ce8c33)" d="M 157.13619 291.28 
L 157.13619 6.845228 
" style="fill:none;stroke:#b0b0b0;stroke-linecap:square;stroke-width:0.8;"/>
     </g>
     <g id="line2d_38">
      <g>
       <use style="stroke:#000000;stroke-width:0.6;" x="157.13619" xlink:href="#mf4f170ea4e" y="291.28"/>
      </g>
     </g>
    </g>
    <g id="xtick_5">
     <g id="line2d_39">
      <path clip-path="url(#p8bf2ce8c33)" d="M 172.816694 291.28 
L 172.816694 6.845228 
" style="fill:none;stroke:#b0b0b0;stroke-linecap:square;stroke-width:0.8;"/>
     </g>
     <g id="line2d_40">
      <g>
       <use style="stroke:#000000;stroke-width:0.6;" x="172.816694" xlink:href="#mf4f170ea4e" y="291.28"/>
      </g>
     </g>
    </g>
    <g id="xtick_6">
     <g id="line2d_41">
      <path clip-path="url(#p8bf2ce8c33)" d="M 185.628599 291.28 
L 185.628599 6.845228 
" style="fill:none;stroke:#b0b0b0;stroke-linecap:square;stroke-width:0.8;"/>
     </g>
     <g id="line2d_42">
      <g>
       <use style="stroke:#000000;stroke-width:0.6;" x="185.628599" xlink:href="#mf4f170ea4e" y="291.28"/>
      </g>
     </g>
    </g>
    <g id="xtick_7">
     <g id="line2d_43">
      <path clip-path="url(#p8bf2ce8c33)" d="M 196.46091 291.28 
L 196.46091 6.845228 
" style="fill:none;stroke:#b0b0b0;stroke-linecap:square;stroke-width:0.8;"/>
     </g>
     <g id="line2d_44">
      <g>
       <use style="stroke:#000000;stroke-width:0.6;" x="196.46091" xlink:href="#mf4f170ea4e" y="291.28"/>
      </g>
     </g>
    </g>
    <g id="xtick_8">
     <g id="line2d_45">
      <path clip-path="url(#p8bf2ce8c33)" d="M 205.844285 291.28 
L 205.844285 6.845228 
" style="fill:none;stroke:#b0b0b0;stroke-linecap:square;stroke-width:0.8;"/>
     </g>
     <g id="line2d_46">
      <g>
       <use style="stroke:#000000;stroke-width:0.6;" x="205.844285" xlink:href="#mf4f170ea4e" y="291.28"/>
      </g>
     </g>
    </g>
    <g id="xtick_9">
     <g id="line2d_47">
      <path clip-path="url(#p8bf2ce8c33)" d="M 214.121008 291.28 
L 214.121008 6.845228 
" style="fill:none;stroke:#b0b0b0;stroke-linecap:square;stroke-width:0.8;"/>
     </g>
     <g id="line2d_48">
      <g>
       <use style="stroke:#000000;stroke-width:0.6;" x="214.121008" xlink:href="#mf4f170ea4e" y="291.28"/>
      </g>
     </g>
    </g>
    <g id="xtick_10">
     <g id="line2d_49">
      <path clip-path="url(#p8bf2ce8c33)" d="M 270.232884 291.28 
L 270.232884 6.845228 
" style="fill:none;stroke:#b0b0b0;stroke-linecap:square;stroke-width:0.8;"/>
     </g>
     <g id="line2d_50">
      <g>
       <use style="stroke:#000000;stroke-width:0.6;" x="270.232884" xlink:href="#mf4f170ea4e" y="291.28"/>
      </g>
     </g>
    </g>
    <g id="xtick_11">
     <g id="line2d_51">
      <path clip-path="url(#p8bf2ce8c33)" d="M 298.725293 291.28 
L 298.725293 6.845228 
" style="fill:none;stroke:#b0b0b0;stroke-linecap:square;stroke-width:0.8;"/>
     </g>
     <g id="line2d_52">
      <g>
       <use style="stroke:#000000;stroke-width:0.6;" x="298.725293" xlink:href="#mf4f170ea4e" y="291.28"/>
      </g>
     </g>
    </g>
    <g id="xtick_12">
     <g id="line2d_53">
      <path clip-path="url(#p8bf2ce8c33)" d="M 318.940979 291.28 
L 318.940979 6.845228 
" style="fill:none;stroke:#b0b0b0;stroke-linecap:square;stroke-width:0.8;"/>
     </g>
     <g id="line2d_54">
      <g>
       <use style="stroke:#000000;stroke-width:0.6;" x="318.940979" xlink:href="#mf4f170ea4e" y="291.28"/>
      </g>
     </g>
    </g>
    <g id="xtick_13">
     <g id="line2d_55">
      <path clip-path="url(#p8bf2ce8c33)" d="M 334.621483 291.28 
L 334.621483 6.845228 
" style="fill:none;stroke:#b0b0b0;stroke-linecap:square;stroke-width:0.8;"/>
     </g>
     <g id="line2d_56">
      <g>
       <use style="stroke:#000000;stroke-width:0.6;" x="334.621483" xlink:href="#mf4f170ea4e" y="291.28"/>
      </g>
     </g>
    </g>
    <g id="xtick_14">
     <g id="line2d_57">
      <path clip-path="url(#p8bf2ce8c33)" d="M 347.433388 291.28 
L 347.433388 6.845228 
" style="fill:none;stroke:#b0b0b0;stroke-linecap:square;stroke-width:0.8;"/>
     </g>
     <g id="line2d_58">
      <g>
       <use style="stroke:#000000;stroke-width:0.6;" x="347.433388" xlink:href="#mf4f170ea4e" y="291.28"/>
      </g>
     </g>
    </g>
    <g id="xtick_15">
     <g id="line2d_59">
      <path clip-path="url(#p8bf2ce8c33)" d="M 358.265699 291.28 
L 358.265699 6.845228 
" style="fill:none;stroke:#b0b0b0;stroke-linecap:square;stroke-width:0.8;"/>
     </g>
     <g id="line2d_60">
      <g>
       <use style="stroke:#000000;stroke-width:0.6;" x="358.265699" xlink:href="#mf4f170ea4e" y="291.28"/>
      </g>
     </g>
    </g>
    <g id="xtick_16">
     <g id="line2d_61">
      <path clip-path="url(#p8bf2ce8c33)" d="M 367.649073 291.28 
L 367.649073 6.845228 
" style="fill:none;stroke:#b0b0b0;stroke-linecap:square;stroke-width:0.8;"/>
     </g>
     <g id="line2d_62">
      <g>
       <use style="stroke:#000000;stroke-width:0.6;" x="367.649073" xlink:href="#mf4f170ea4e" y="291.28"/>
      </g>
     </g>
    </g>
    <g id="xtick_17">
     <g id="line2d_63">
      <path clip-path="url(#p8bf2ce8c33)" d="M 375.925797 291.28 
L 375.925797 6.845228 
" style="fill:none;stroke:#b0b0b0;stroke-linecap:square;stroke-width:0.8;"/>
     </g>
     <g id="line2d_64">
      <g>
       <use style="stroke:#000000;stroke-width:0.6;" x="375.925797" xlink:href="#mf4f170ea4e" y="291.28"/>
      </g>
     </g>
    </g>
    <g id="xtick_18">
     <g id="line2d_65">
      <path clip-path="url(#p8bf2ce8c33)" d="M 432.037673 291.28 
L 432.037673 6.845228 
" style="fill:none;stroke:#b0b0b0;stroke-linecap:square;stroke-width:0.8;"/>
     </g>
     <g id="line2d_66">
      <g>
       <use style="stroke:#000000;stroke-width:0.6;" x="432.037673" xlink:href="#mf4f170ea4e" y="291.28"/>
      </g>
     </g>
    </g>
    <g id="text_2">
     <!-- log10 of FEvals / DIM -->
     <defs>
      <path d="M 9.421875 75.984375 
L 18.40625 75.984375 
L 18.40625 0 
L 9.421875 0 
z
" id="DejaVuSans-6c"/>
      <path d="M 30.609375 48.390625 
Q 23.390625 48.390625 19.1875 42.75 
Q 14.984375 37.109375 14.984375 27.296875 
Q 14.984375 17.484375 19.15625 11.84375 
Q 23.34375 6.203125 30.609375 6.203125 
Q 37.796875 6.203125 41.984375 11.859375 
Q 46.1875 17.53125 46.1875 27.296875 
Q 46.1875 37.015625 41.984375 42.703125 
Q 37.796875 48.390625 30.609375 48.390625 
z
M 30.609375 56 
Q 42.328125 56 49.015625 48.375 
Q 55.71875 40.765625 55.71875 27.296875 
Q 55.71875 13.875 49.015625 6.21875 
Q 42.328125 -1.421875 30.609375 -1.421875 
Q 18.84375 -1.421875 12.171875 6.21875 
Q 5.515625 13.875 5.515625 27.296875 
Q 5.515625 40.765625 12.171875 48.375 
Q 18.84375 56 30.609375 56 
z
" id="DejaVuSans-6f"/>
      <path d="M 45.40625 27.984375 
Q 45.40625 37.75 41.375 43.109375 
Q 37.359375 48.484375 30.078125 48.484375 
Q 22.859375 48.484375 18.828125 43.109375 
Q 14.796875 37.75 14.796875 27.984375 
Q 14.796875 18.265625 18.828125 12.890625 
Q 22.859375 7.515625 30.078125 7.515625 
Q 37.359375 7.515625 41.375 12.890625 
Q 45.40625 18.265625 45.40625 27.984375 
z
M 54.390625 6.78125 
Q 54.390625 -7.171875 48.1875 -13.984375 
Q 42 -20.796875 29.203125 -20.796875 
Q 24.46875 -20.796875 20.265625 -20.09375 
Q 16.0625 -19.390625 12.109375 -17.921875 
L 12.109375 -9.1875 
Q 16.0625 -11.328125 19.921875 -12.34375 
Q 23.78125 -13.375 27.78125 -13.375 
Q 36.625 -13.375 41.015625 -8.765625 
Q 45.40625 -4.15625 45.40625 5.171875 
L 45.40625 9.625 
Q 42.625 4.78125 38.28125 2.390625 
Q 33.9375 0 27.875 0 
Q 17.828125 0 11.671875 7.65625 
Q 5.515625 15.328125 5.515625 27.984375 
Q 5.515625 40.671875 11.671875 48.328125 
Q 17.828125 56 27.875 56 
Q 33.9375 56 38.28125 53.609375 
Q 42.625 51.21875 45.40625 46.390625 
L 45.40625 54.6875 
L 54.390625 54.6875 
z
" id="DejaVuSans-67"/>
      <path d="M 31.78125 66.40625 
Q 24.171875 66.40625 20.328125 58.90625 
Q 16.5 51.421875 16.5 36.375 
Q 16.5 21.390625 20.328125 13.890625 
Q 24.171875 6.390625 31.78125 6.390625 
Q 39.453125 6.390625 43.28125 13.890625 
Q 47.125 21.390625 47.125 36.375 
Q 47.125 51.421875 43.28125 58.90625 
Q 39.453125 66.40625 31.78125 66.40625 
z
M 31.78125 74.21875 
Q 44.046875 74.21875 50.515625 64.515625 
Q 56.984375 54.828125 56.984375 36.375 
Q 56.984375 17.96875 50.515625 8.265625 
Q 44.046875 -1.421875 31.78125 -1.421875 
Q 19.53125 -1.421875 13.0625 8.265625 
Q 6.59375 17.96875 6.59375 36.375 
Q 6.59375 54.828125 13.0625 64.515625 
Q 19.53125 74.21875 31.78125 74.21875 
z
" id="DejaVuSans-30"/>
      <path id="DejaVuSans-20"/>
      <path d="M 37.109375 75.984375 
L 37.109375 68.5 
L 28.515625 68.5 
Q 23.6875 68.5 21.796875 66.546875 
Q 19.921875 64.59375 19.921875 59.515625 
L 19.921875 54.6875 
L 34.71875 54.6875 
L 34.71875 47.703125 
L 19.921875 47.703125 
L 19.921875 0 
L 10.890625 0 
L 10.890625 47.703125 
L 2.296875 47.703125 
L 2.296875 54.6875 
L 10.890625 54.6875 
L 10.890625 58.5 
Q 10.890625 67.625 15.140625 71.796875 
Q 19.390625 75.984375 28.609375 75.984375 
z
" id="DejaVuSans-66"/>
      <path d="M 9.8125 72.90625 
L 51.703125 72.90625 
L 51.703125 64.59375 
L 19.671875 64.59375 
L 19.671875 43.109375 
L 48.578125 43.109375 
L 48.578125 34.8125 
L 19.671875 34.8125 
L 19.671875 0 
L 9.8125 0 
z
" id="DejaVuSans-46"/>
      <path d="M 9.8125 72.90625 
L 55.90625 72.90625 
L 55.90625 64.59375 
L 19.671875 64.59375 
L 19.671875 43.015625 
L 54.390625 43.015625 
L 54.390625 34.71875 
L 19.671875 34.71875 
L 19.671875 8.296875 
L 56.78125 8.296875 
L 56.78125 0 
L 9.8125 0 
z
" id="DejaVuSans-45"/>
      <path d="M 2.984375 54.6875 
L 12.5 54.6875 
L 29.59375 8.796875 
L 46.6875 54.6875 
L 56.203125 54.6875 
L 35.6875 0 
L 23.484375 0 
z
" id="DejaVuSans-76"/>
      <path d="M 34.28125 27.484375 
Q 23.390625 27.484375 19.1875 25 
Q 14.984375 22.515625 14.984375 16.5 
Q 14.984375 11.71875 18.140625 8.90625 
Q 21.296875 6.109375 26.703125 6.109375 
Q 34.1875 6.109375 38.703125 11.40625 
Q 43.21875 16.703125 43.21875 25.484375 
L 43.21875 27.484375 
z
M 52.203125 31.203125 
L 52.203125 0 
L 43.21875 0 
L 43.21875 8.296875 
Q 40.140625 3.328125 35.546875 0.953125 
Q 30.953125 -1.421875 24.3125 -1.421875 
Q 15.921875 -1.421875 10.953125 3.296875 
Q 6 8.015625 6 15.921875 
Q 6 25.140625 12.171875 29.828125 
Q 18.359375 34.515625 30.609375 34.515625 
L 43.21875 34.515625 
L 43.21875 35.40625 
Q 43.21875 41.609375 39.140625 45 
Q 35.0625 48.390625 27.6875 48.390625 
Q 23 48.390625 18.546875 47.265625 
Q 14.109375 46.140625 10.015625 43.890625 
L 10.015625 52.203125 
Q 14.9375 54.109375 19.578125 55.046875 
Q 24.21875 56 28.609375 56 
Q 40.484375 56 46.34375 49.84375 
Q 52.203125 43.703125 52.203125 31.203125 
z
" id="DejaVuSans-61"/>
      <path d="M 44.28125 53.078125 
L 44.28125 44.578125 
Q 40.484375 46.53125 36.375 47.5 
Q 32.28125 48.484375 27.875 48.484375 
Q 21.1875 48.484375 17.84375 46.4375 
Q 14.5 44.390625 14.5 40.28125 
Q 14.5 37.15625 16.890625 35.375 
Q 19.28125 33.59375 26.515625 31.984375 
L 29.59375 31.296875 
Q 39.15625 29.25 43.1875 25.515625 
Q 47.21875 21.78125 47.21875 15.09375 
Q 47.21875 7.46875 41.1875 3.015625 
Q 35.15625 -1.421875 24.609375 -1.421875 
Q 20.21875 -1.421875 15.453125 -0.5625 
Q 10.6875 0.296875 5.421875 2 
L 5.421875 11.28125 
Q 10.40625 8.6875 15.234375 7.390625 
Q 20.0625 6.109375 24.8125 6.109375 
Q 31.15625 6.109375 34.5625 8.28125 
Q 37.984375 10.453125 37.984375 14.40625 
Q 37.984375 18.0625 35.515625 20.015625 
Q 33.0625 21.96875 24.703125 23.78125 
L 21.578125 24.515625 
Q 13.234375 26.265625 9.515625 29.90625 
Q 5.8125 33.546875 5.8125 39.890625 
Q 5.8125 47.609375 11.28125 51.796875 
Q 16.75 56 26.8125 56 
Q 31.78125 56 36.171875 55.265625 
Q 40.578125 54.546875 44.28125 53.078125 
z
" id="DejaVuSans-73"/>
      <path d="M 25.390625 72.90625 
L 33.6875 72.90625 
L 8.296875 -9.28125 
L 0 -9.28125 
z
" id="DejaVuSans-2f"/>
      <path d="M 19.671875 64.796875 
L 19.671875 8.109375 
L 31.59375 8.109375 
Q 46.6875 8.109375 53.6875 14.9375 
Q 60.6875 21.78125 60.6875 36.53125 
Q 60.6875 51.171875 53.6875 57.984375 
Q 46.6875 64.796875 31.59375 64.796875 
z
M 9.8125 72.90625 
L 30.078125 72.90625 
Q 51.265625 72.90625 61.171875 64.09375 
Q 71.09375 55.28125 71.09375 36.53125 
Q 71.09375 17.671875 61.125 8.828125 
Q 51.171875 0 30.078125 0 
L 9.8125 0 
z
" id="DejaVuSans-44"/>
      <path d="M 9.8125 72.90625 
L 19.671875 72.90625 
L 19.671875 0 
L 9.8125 0 
z
" id="DejaVuSans-49"/>
      <path d="M 9.8125 72.90625 
L 24.515625 72.90625 
L 43.109375 23.296875 
L 61.8125 72.90625 
L 76.515625 72.90625 
L 76.515625 0 
L 66.890625 0 
L 66.890625 64.015625 
L 48.09375 14.015625 
L 38.1875 14.015625 
L 19.390625 64.015625 
L 19.390625 0 
L 9.8125 0 
z
" id="DejaVuSans-4d"/>
     </defs>
     <g transform="translate(150.122563 336.833125)scale(0.2 -0.2)">
      <use xlink:href="#DejaVuSans-6c"/>
      <use x="27.783203" xlink:href="#DejaVuSans-6f"/>
      <use x="88.964844" xlink:href="#DejaVuSans-67"/>
      <use x="152.441406" xlink:href="#DejaVuSans-31"/>
      <use x="216.064453" xlink:href="#DejaVuSans-30"/>
      <use x="279.6875" xlink:href="#DejaVuSans-20"/>
      <use x="311.474609" xlink:href="#DejaVuSans-6f"/>
      <use x="372.65625" xlink:href="#DejaVuSans-66"/>
      <use x="407.861328" xlink:href="#DejaVuSans-20"/>
      <use x="439.648438" xlink:href="#DejaVuSans-46"/>
      <use x="497.167969" xlink:href="#DejaVuSans-45"/>
      <use x="560.351562" xlink:href="#DejaVuSans-76"/>
      <use x="619.53125" xlink:href="#DejaVuSans-61"/>
      <use x="680.810547" xlink:href="#DejaVuSans-6c"/>
      <use x="708.59375" xlink:href="#DejaVuSans-73"/>
      <use x="760.693359" xlink:href="#DejaVuSans-20"/>
      <use x="792.480469" xlink:href="#DejaVuSans-2f"/>
      <use x="826.171875" xlink:href="#DejaVuSans-20"/>
      <use x="857.958984" xlink:href="#DejaVuSans-44"/>
      <use x="934.960938" xlink:href="#DejaVuSans-49"/>
      <use x="964.453125" xlink:href="#DejaVuSans-4d"/>
     </g>
    </g>
   </g>
   <g id="matplotlib.axis_2">
    <g id="ytick_1">
     <g id="line2d_67">
      <path clip-path="url(#p8bf2ce8c33)" d="M 59.72 291.28 
L 450.672 291.28 
" style="fill:none;stroke:#b0b0b0;stroke-linecap:square;stroke-width:0.8;"/>
     </g>
     <g id="line2d_68">
      <defs>
       <path d="M 0 0 
L -3.5 0 
" id="m09ea6f27a9" style="stroke:#000000;stroke-width:0.8;"/>
      </defs>
      <g>
       <use style="stroke:#000000;stroke-width:0.8;" x="59.72" xlink:href="#m09ea6f27a9" y="291.28"/>
      </g>
     </g>
     <g id="text_3">
      <!-- 0.0 -->
      <defs>
       <path d="M 10.6875 12.40625 
L 21 12.40625 
L 21 0 
L 10.6875 0 
z
" id="DejaVuSans-2e"/>
      </defs>
      <g transform="translate(27.275 297.35875)scale(0.16 -0.16)">
       <use xlink:href="#DejaVuSans-30"/>
       <use x="63.623047" xlink:href="#DejaVuSans-2e"/>
       <use x="95.410156" xlink:href="#DejaVuSans-30"/>
      </g>
     </g>
    </g>
    <g id="ytick_2">
     <g id="line2d_69">
      <path clip-path="url(#p8bf2ce8c33)" d="M 59.72 234.956283 
L 450.672 234.956283 
" style="fill:none;stroke:#b0b0b0;stroke-linecap:square;stroke-width:0.8;"/>
     </g>
     <g id="line2d_70">
      <g>
       <use style="stroke:#000000;stroke-width:0.8;" x="59.72" xlink:href="#m09ea6f27a9" y="234.956283"/>
      </g>
     </g>
     <g id="text_4">
      <!-- 0.2 -->
      <defs>
       <path d="M 19.1875 8.296875 
L 53.609375 8.296875 
L 53.609375 0 
L 7.328125 0 
L 7.328125 8.296875 
Q 12.9375 14.109375 22.625 23.890625 
Q 32.328125 33.6875 34.8125 36.53125 
Q 39.546875 41.84375 41.421875 45.53125 
Q 43.3125 49.21875 43.3125 52.78125 
Q 43.3125 58.59375 39.234375 62.25 
Q 35.15625 65.921875 28.609375 65.921875 
Q 23.96875 65.921875 18.8125 64.3125 
Q 13.671875 62.703125 7.8125 59.421875 
L 7.8125 69.390625 
Q 13.765625 71.78125 18.9375 73 
Q 24.125 74.21875 28.421875 74.21875 
Q 39.75 74.21875 46.484375 68.546875 
Q 53.21875 62.890625 53.21875 53.421875 
Q 53.21875 48.921875 51.53125 44.890625 
Q 49.859375 40.875 45.40625 35.40625 
Q 44.1875 33.984375 37.640625 27.21875 
Q 31.109375 20.453125 19.1875 8.296875 
z
" id="DejaVuSans-32"/>
      </defs>
      <g transform="translate(27.275 241.035033)scale(0.16 -0.16)">
       <use xlink:href="#DejaVuSans-30"/>
       <use x="63.623047" xlink:href="#DejaVuSans-2e"/>
       <use x="95.410156" xlink:href="#DejaVuSans-32"/>
      </g>
     </g>
    </g>
    <g id="ytick_3">
     <g id="line2d_71">
      <path clip-path="url(#p8bf2ce8c33)" d="M 59.72 178.632565 
L 450.672 178.632565 
" style="fill:none;stroke:#b0b0b0;stroke-linecap:square;stroke-width:0.8;"/>
     </g>
     <g id="line2d_72">
      <g>
       <use style="stroke:#000000;stroke-width:0.8;" x="59.72" xlink:href="#m09ea6f27a9" y="178.632565"/>
      </g>
     </g>
     <g id="text_5">
      <!-- 0.4 -->
      <defs>
       <path d="M 37.796875 64.3125 
L 12.890625 25.390625 
L 37.796875 25.390625 
z
M 35.203125 72.90625 
L 47.609375 72.90625 
L 47.609375 25.390625 
L 58.015625 25.390625 
L 58.015625 17.1875 
L 47.609375 17.1875 
L 47.609375 0 
L 37.796875 0 
L 37.796875 17.1875 
L 4.890625 17.1875 
L 4.890625 26.703125 
z
" id="DejaVuSans-34"/>
      </defs>
      <g transform="translate(27.275 184.711315)scale(0.16 -0.16)">
       <use xlink:href="#DejaVuSans-30"/>
       <use x="63.623047" xlink:href="#DejaVuSans-2e"/>
       <use x="95.410156" xlink:href="#DejaVuSans-34"/>
      </g>
     </g>
    </g>
    <g id="ytick_4">
     <g id="line2d_73">
      <path clip-path="url(#p8bf2ce8c33)" d="M 59.72 122.308848 
L 450.672 122.308848 
" style="fill:none;stroke:#b0b0b0;stroke-linecap:square;stroke-width:0.8;"/>
     </g>
     <g id="line2d_74">
      <g>
       <use style="stroke:#000000;stroke-width:0.8;" x="59.72" xlink:href="#m09ea6f27a9" y="122.308848"/>
      </g>
     </g>
     <g id="text_6">
      <!-- 0.6 -->
      <defs>
       <path d="M 33.015625 40.375 
Q 26.375 40.375 22.484375 35.828125 
Q 18.609375 31.296875 18.609375 23.390625 
Q 18.609375 15.53125 22.484375 10.953125 
Q 26.375 6.390625 33.015625 6.390625 
Q 39.65625 6.390625 43.53125 10.953125 
Q 47.40625 15.53125 47.40625 23.390625 
Q 47.40625 31.296875 43.53125 35.828125 
Q 39.65625 40.375 33.015625 40.375 
z
M 52.59375 71.296875 
L 52.59375 62.3125 
Q 48.875 64.0625 45.09375 64.984375 
Q 41.3125 65.921875 37.59375 65.921875 
Q 27.828125 65.921875 22.671875 59.328125 
Q 17.53125 52.734375 16.796875 39.40625 
Q 19.671875 43.65625 24.015625 45.921875 
Q 28.375 48.1875 33.59375 48.1875 
Q 44.578125 48.1875 50.953125 41.515625 
Q 57.328125 34.859375 57.328125 23.390625 
Q 57.328125 12.15625 50.6875 5.359375 
Q 44.046875 -1.421875 33.015625 -1.421875 
Q 20.359375 -1.421875 13.671875 8.265625 
Q 6.984375 17.96875 6.984375 36.375 
Q 6.984375 53.65625 15.1875 63.9375 
Q 23.390625 74.21875 37.203125 74.21875 
Q 40.921875 74.21875 44.703125 73.484375 
Q 48.484375 72.75 52.59375 71.296875 
z
" id="DejaVuSans-36"/>
      </defs>
      <g transform="translate(27.275 128.387598)scale(0.16 -0.16)">
       <use xlink:href="#DejaVuSans-30"/>
       <use x="63.623047" xlink:href="#DejaVuSans-2e"/>
       <use x="95.410156" xlink:href="#DejaVuSans-36"/>
      </g>
     </g>
    </g>
    <g id="ytick_5">
     <g id="line2d_75">
      <path clip-path="url(#p8bf2ce8c33)" d="M 59.72 65.985131 
L 450.672 65.985131 
" style="fill:none;stroke:#b0b0b0;stroke-linecap:square;stroke-width:0.8;"/>
     </g>
     <g id="line2d_76">
      <g>
       <use style="stroke:#000000;stroke-width:0.8;" x="59.72" xlink:href="#m09ea6f27a9" y="65.985131"/>
      </g>
     </g>
     <g id="text_7">
      <!-- 0.8 -->
      <defs>
       <path d="M 31.78125 34.625 
Q 24.75 34.625 20.71875 30.859375 
Q 16.703125 27.09375 16.703125 20.515625 
Q 16.703125 13.921875 20.71875 10.15625 
Q 24.75 6.390625 31.78125 6.390625 
Q 38.8125 6.390625 42.859375 10.171875 
Q 46.921875 13.96875 46.921875 20.515625 
Q 46.921875 27.09375 42.890625 30.859375 
Q 38.875 34.625 31.78125 34.625 
z
M 21.921875 38.8125 
Q 15.578125 40.375 12.03125 44.71875 
Q 8.5 49.078125 8.5 55.328125 
Q 8.5 64.0625 14.71875 69.140625 
Q 20.953125 74.21875 31.78125 74.21875 
Q 42.671875 74.21875 48.875 69.140625 
Q 55.078125 64.0625 55.078125 55.328125 
Q 55.078125 49.078125 51.53125 44.71875 
Q 48 40.375 41.703125 38.8125 
Q 48.828125 37.15625 52.796875 32.3125 
Q 56.78125 27.484375 56.78125 20.515625 
Q 56.78125 9.90625 50.3125 4.234375 
Q 43.84375 -1.421875 31.78125 -1.421875 
Q 19.734375 -1.421875 13.25 4.234375 
Q 6.78125 9.90625 6.78125 20.515625 
Q 6.78125 27.484375 10.78125 32.3125 
Q 14.796875 37.15625 21.921875 38.8125 
z
M 18.3125 54.390625 
Q 18.3125 48.734375 21.84375 45.5625 
Q 25.390625 42.390625 31.78125 42.390625 
Q 38.140625 42.390625 41.71875 45.5625 
Q 45.3125 48.734375 45.3125 54.390625 
Q 45.3125 60.0625 41.71875 63.234375 
Q 38.140625 66.40625 31.78125 66.40625 
Q 25.390625 66.40625 21.84375 63.234375 
Q 18.3125 60.0625 18.3125 54.390625 
z
" id="DejaVuSans-38"/>
      </defs>
      <g transform="translate(27.275 72.063881)scale(0.16 -0.16)">
       <use xlink:href="#DejaVuSans-30"/>
       <use x="63.623047" xlink:href="#DejaVuSans-2e"/>
       <use x="95.410156" xlink:href="#DejaVuSans-38"/>
      </g>
     </g>
    </g>
    <g id="ytick_6">
     <g id="line2d_77">
      <path clip-path="url(#p8bf2ce8c33)" d="M 59.72 9.661414 
L 450.672 9.661414 
" style="fill:none;stroke:#b0b0b0;stroke-linecap:square;stroke-width:0.8;"/>
     </g>
     <g id="line2d_78">
      <g>
       <use style="stroke:#000000;stroke-width:0.8;" x="59.72" xlink:href="#m09ea6f27a9" y="9.661414"/>
      </g>
     </g>
     <g id="text_8">
      <!-- 1.0 -->
      <g transform="translate(27.275 15.740164)scale(0.16 -0.16)">
       <use xlink:href="#DejaVuSans-31"/>
       <use x="63.623047" xlink:href="#DejaVuSans-2e"/>
       <use x="95.410156" xlink:href="#DejaVuSans-30"/>
      </g>
     </g>
    </g>
    <g id="text_9">
     <!-- proportion of trials -->
     <defs>
      <path d="M 18.109375 8.203125 
L 18.109375 -20.796875 
L 9.078125 -20.796875 
L 9.078125 54.6875 
L 18.109375 54.6875 
L 18.109375 46.390625 
Q 20.953125 51.265625 25.265625 53.625 
Q 29.59375 56 35.59375 56 
Q 45.5625 56 51.78125 48.09375 
Q 58.015625 40.1875 58.015625 27.296875 
Q 58.015625 14.40625 51.78125 6.484375 
Q 45.5625 -1.421875 35.59375 -1.421875 
Q 29.59375 -1.421875 25.265625 0.953125 
Q 20.953125 3.328125 18.109375 8.203125 
z
M 48.6875 27.296875 
Q 48.6875 37.203125 44.609375 42.84375 
Q 40.53125 48.484375 33.40625 48.484375 
Q 26.265625 48.484375 22.1875 42.84375 
Q 18.109375 37.203125 18.109375 27.296875 
Q 18.109375 17.390625 22.1875 11.75 
Q 26.265625 6.109375 33.40625 6.109375 
Q 40.53125 6.109375 44.609375 11.75 
Q 48.6875 17.390625 48.6875 27.296875 
z
" id="DejaVuSans-70"/>
      <path d="M 41.109375 46.296875 
Q 39.59375 47.171875 37.8125 47.578125 
Q 36.03125 48 33.890625 48 
Q 26.265625 48 22.1875 43.046875 
Q 18.109375 38.09375 18.109375 28.8125 
L 18.109375 0 
L 9.078125 0 
L 9.078125 54.6875 
L 18.109375 54.6875 
L 18.109375 46.1875 
Q 20.953125 51.171875 25.484375 53.578125 
Q 30.03125 56 36.53125 56 
Q 37.453125 56 38.578125 55.875 
Q 39.703125 55.765625 41.0625 55.515625 
z
" id="DejaVuSans-72"/>
      <path d="M 18.3125 70.21875 
L 18.3125 54.6875 
L 36.8125 54.6875 
L 36.8125 47.703125 
L 18.3125 47.703125 
L 18.3125 18.015625 
Q 18.3125 11.328125 20.140625 9.421875 
Q 21.96875 7.515625 27.59375 7.515625 
L 36.8125 7.515625 
L 36.8125 0 
L 27.59375 0 
Q 17.1875 0 13.234375 3.875 
Q 9.28125 7.765625 9.28125 18.015625 
L 9.28125 47.703125 
L 2.6875 47.703125 
L 2.6875 54.6875 
L 9.28125 54.6875 
L 9.28125 70.21875 
z
" id="DejaVuSans-74"/>
      <path d="M 9.421875 54.6875 
L 18.40625 54.6875 
L 18.40625 0 
L 9.421875 0 
z
M 9.421875 75.984375 
L 18.40625 75.984375 
L 18.40625 64.59375 
L 9.421875 64.59375 
z
" id="DejaVuSans-69"/>
      <path d="M 54.890625 33.015625 
L 54.890625 0 
L 45.90625 0 
L 45.90625 32.71875 
Q 45.90625 40.484375 42.875 44.328125 
Q 39.84375 48.1875 33.796875 48.1875 
Q 26.515625 48.1875 22.3125 43.546875 
Q 18.109375 38.921875 18.109375 30.90625 
L 18.109375 0 
L 9.078125 0 
L 9.078125 54.6875 
L 18.109375 54.6875 
L 18.109375 46.1875 
Q 21.34375 51.125 25.703125 53.5625 
Q 30.078125 56 35.796875 56 
Q 45.21875 56 50.046875 50.171875 
Q 54.890625 44.34375 54.890625 33.015625 
z
" id="DejaVuSans-6e"/>
     </defs>
     <g transform="translate(19.115625 242.290739)rotate(-90)scale(0.2 -0.2)">
      <use xlink:href="#DejaVuSans-70"/>
      <use x="63.476562" xlink:href="#DejaVuSans-72"/>
      <use x="104.558594" xlink:href="#DejaVuSans-6f"/>
      <use x="165.740234" xlink:href="#DejaVuSans-70"/>
      <use x="229.216797" xlink:href="#DejaVuSans-6f"/>
      <use x="290.398438" xlink:href="#DejaVuSans-72"/>
      <use x="331.511719" xlink:href="#DejaVuSans-74"/>
      <use x="370.720703" xlink:href="#DejaVuSans-69"/>
      <use x="398.503906" xlink:href="#DejaVuSans-6f"/>
      <use x="459.685547" xlink:href="#DejaVuSans-6e"/>
      <use x="523.064453" xlink:href="#DejaVuSans-20"/>
      <use x="554.851562" xlink:href="#DejaVuSans-6f"/>
      <use x="616.033203" xlink:href="#DejaVuSans-66"/>
      <use x="651.238281" xlink:href="#DejaVuSans-20"/>
      <use x="683.025391" xlink:href="#DejaVuSans-74"/>
      <use x="722.234375" xlink:href="#DejaVuSans-72"/>
      <use x="763.347656" xlink:href="#DejaVuSans-69"/>
      <use x="791.130859" xlink:href="#DejaVuSans-61"/>
      <use x="852.410156" xlink:href="#DejaVuSans-6c"/>
      <use x="880.193359" xlink:href="#DejaVuSans-73"/>
     </g>
    </g>
   </g>
   <g id="line2d_79"/>
   <g id="line2d_80"/>
   <g id="line2d_81"/>
   <g id="line2d_82"/>
   <g id="line2d_83"/>
   <g id="line2d_84"/>
   <g id="line2d_85"/>
   <g id="line2d_86"/>
   <g id="line2d_87">
    <path clip-path="url(#p8bf2ce8c33)" d="M 432.055238 291.28 
L 432.055238 6.845228 
" style="fill:none;stroke:#000000;stroke-linecap:square;stroke-width:1.5;"/>
    <defs>
     <path d="M -10 0 
L 10 0 
M 0 10 
L 0 -10 
" id="m6b166047b6" style="stroke:#000000;stroke-width:3;"/>
    </defs>
    <g clip-path="url(#p8bf2ce8c33)">
     <use style="stroke:#000000;stroke-width:3;" x="432.055238" xlink:href="#m6b166047b6" y="291.28"/>
     <use style="stroke:#000000;stroke-width:3;" x="432.055238" xlink:href="#m6b166047b6" y="6.845228"/>
    </g>
   </g>
   <g id="line2d_88">
    <path clip-path="url(#p8bf2ce8c33)" d="M 432.055238 291.28 
L 432.055238 6.845228 
" style="fill:none;stroke:#000000;stroke-linecap:square;stroke-width:1.5;"/>
    <defs>
     <path d="M 0 7.5 
C 1.989023 7.5 3.896849 6.709753 5.303301 5.303301 
C 6.709753 3.896849 7.5 1.989023 7.5 0 
C 7.5 -1.989023 6.709753 -3.896849 5.303301 -5.303301 
C 3.896849 -6.709753 1.989023 -7.5 0 -7.5 
C -1.989023 -7.5 -3.896849 -6.709753 -5.303301 -5.303301 
C -6.709753 -3.896849 -7.5 -1.989023 -7.5 0 
C -7.5 1.989023 -6.709753 3.896849 -5.303301 5.303301 
C -3.896849 6.709753 -1.989023 7.5 0 7.5 
z
" id="m0bf503751f" style="stroke:#000000;stroke-width:3;"/>
    </defs>
    <g clip-path="url(#p8bf2ce8c33)">
     <use style="fill:none;stroke:#000000;stroke-width:3;" x="432.055238" xlink:href="#m0bf503751f" y="291.28"/>
     <use style="fill:none;stroke:#000000;stroke-width:3;" x="432.055238" xlink:href="#m0bf503751f" y="6.845228"/>
    </g>
   </g>
   <g id="patch_3">
    <path d="M 59.72 291.28 
L 59.72 6.845228 
" style="fill:none;stroke:#000000;stroke-linecap:square;stroke-linejoin:miter;stroke-width:0.8;"/>
   </g>
   <g id="patch_4">
    <path d="M 450.672 291.28 
L 450.672 6.845228 
" style="fill:none;stroke:#000000;stroke-linecap:square;stroke-linejoin:miter;stroke-width:0.8;"/>
   </g>
   <g id="patch_5">
    <path d="M 59.72 291.28 
L 450.672 291.28 
" style="fill:none;stroke:#000000;stroke-linecap:square;stroke-linejoin:miter;stroke-width:0.8;"/>
   </g>
   <g id="patch_6">
    <path d="M 59.72 6.845228 
L 450.672 6.845228 
" style="fill:none;stroke:#000000;stroke-linecap:square;stroke-linejoin:miter;stroke-width:0.8;"/>
   </g>
   <g id="text_10">
    <!-- f1-f5 -->
    <defs>
     <path d="M 4.890625 31.390625 
L 31.203125 31.390625 
L 31.203125 23.390625 
L 4.890625 23.390625 
z
" id="DejaVuSans-2d"/>
     <path d="M 10.796875 72.90625 
L 49.515625 72.90625 
L 49.515625 64.59375 
L 19.828125 64.59375 
L 19.828125 46.734375 
Q 21.96875 47.46875 24.109375 47.828125 
Q 26.265625 48.1875 28.421875 48.1875 
Q 40.625 48.1875 47.75 41.5 
Q 54.890625 34.8125 54.890625 23.390625 
Q 54.890625 11.625 47.5625 5.09375 
Q 40.234375 -1.421875 26.90625 -1.421875 
Q 22.3125 -1.421875 17.546875 -0.640625 
Q 12.796875 0.140625 7.71875 1.703125 
L 7.71875 11.625 
Q 12.109375 9.234375 16.796875 8.0625 
Q 21.484375 6.890625 26.703125 6.890625 
Q 35.15625 6.890625 40.078125 11.328125 
Q 45.015625 15.765625 45.015625 23.390625 
Q 45.015625 31 40.078125 35.4375 
Q 35.15625 39.890625 26.703125 39.890625 
Q 22.75 39.890625 18.8125 39.015625 
Q 14.890625 38.140625 10.796875 36.28125 
z
" id="DejaVuSans-35"/>
    </defs>
    <g transform="translate(231.822563 27.730798)scale(0.2 -0.2)">
     <use xlink:href="#DejaVuSans-66"/>
     <use x="35.205078" xlink:href="#DejaVuSans-31"/>
     <use x="98.828125" xlink:href="#DejaVuSans-2d"/>
     <use x="134.912109" xlink:href="#DejaVuSans-66"/>
     <use x="170.117188" xlink:href="#DejaVuSans-35"/>
    </g>
   </g>
   <g id="text_11">
    <!-- absolute targets -->
    <defs>
     <path d="M 48.6875 27.296875 
Q 48.6875 37.203125 44.609375 42.84375 
Q 40.53125 48.484375 33.40625 48.484375 
Q 26.265625 48.484375 22.1875 42.84375 
Q 18.109375 37.203125 18.109375 27.296875 
Q 18.109375 17.390625 22.1875 11.75 
Q 26.265625 6.109375 33.40625 6.109375 
Q 40.53125 6.109375 44.609375 11.75 
Q 48.6875 17.390625 48.6875 27.296875 
z
M 18.109375 46.390625 
Q 20.953125 51.265625 25.265625 53.625 
Q 29.59375 56 35.59375 56 
Q 45.5625 56 51.78125 48.09375 
Q 58.015625 40.1875 58.015625 27.296875 
Q 58.015625 14.40625 51.78125 6.484375 
Q 45.5625 -1.421875 35.59375 -1.421875 
Q 29.59375 -1.421875 25.265625 0.953125 
Q 20.953125 3.328125 18.109375 8.203125 
L 18.109375 0 
L 9.078125 0 
L 9.078125 75.984375 
L 18.109375 75.984375 
z
" id="DejaVuSans-62"/>
     <path d="M 8.5 21.578125 
L 8.5 54.6875 
L 17.484375 54.6875 
L 17.484375 21.921875 
Q 17.484375 14.15625 20.5 10.265625 
Q 23.53125 6.390625 29.59375 6.390625 
Q 36.859375 6.390625 41.078125 11.03125 
Q 45.3125 15.671875 45.3125 23.6875 
L 45.3125 54.6875 
L 54.296875 54.6875 
L 54.296875 0 
L 45.3125 0 
L 45.3125 8.40625 
Q 42.046875 3.421875 37.71875 1 
Q 33.40625 -1.421875 27.6875 -1.421875 
Q 18.265625 -1.421875 13.375 4.4375 
Q 8.5 10.296875 8.5 21.578125 
z
M 31.109375 56 
z
" id="DejaVuSans-75"/>
     <path d="M 56.203125 29.59375 
L 56.203125 25.203125 
L 14.890625 25.203125 
Q 15.484375 15.921875 20.484375 11.0625 
Q 25.484375 6.203125 34.421875 6.203125 
Q 39.59375 6.203125 44.453125 7.46875 
Q 49.3125 8.734375 54.109375 11.28125 
L 54.109375 2.78125 
Q 49.265625 0.734375 44.1875 -0.34375 
Q 39.109375 -1.421875 33.890625 -1.421875 
Q 20.796875 -1.421875 13.15625 6.1875 
Q 5.515625 13.8125 5.515625 26.8125 
Q 5.515625 40.234375 12.765625 48.109375 
Q 20.015625 56 32.328125 56 
Q 43.359375 56 49.78125 48.890625 
Q 56.203125 41.796875 56.203125 29.59375 
z
M 47.21875 32.234375 
Q 47.125 39.59375 43.09375 43.984375 
Q 39.0625 48.390625 32.421875 48.390625 
Q 24.90625 48.390625 20.390625 44.140625 
Q 15.875 39.890625 15.1875 32.171875 
z
" id="DejaVuSans-65"/>
    </defs>
    <g transform="translate(59.72 304.609946)scale(0.14 -0.14)">
     <use xlink:href="#DejaVuSans-61"/>
     <use x="61.279297" xlink:href="#DejaVuSans-62"/>
     <use x="124.755859" xlink:href="#DejaVuSans-73"/>
     <use x="176.855469" xlink:href="#DejaVuSans-6f"/>
     <use x="238.037109" xlink:href="#DejaVuSans-6c"/>
     <use x="265.820312" xlink:href="#DejaVuSans-75"/>
     <use x="329.199219" xlink:href="#DejaVuSans-74"/>
     <use x="368.408203" xlink:href="#DejaVuSans-65"/>
     <use x="429.931641" xlink:href="#DejaVuSans-20"/>
     <use x="461.71875" xlink:href="#DejaVuSans-74"/>
     <use x="500.927734" xlink:href="#DejaVuSans-61"/>
     <use x="562.207031" xlink:href="#DejaVuSans-72"/>
     <use x="603.304688" xlink:href="#DejaVuSans-67"/>
     <use x="666.78125" xlink:href="#DejaVuSans-65"/>
     <use x="728.304688" xlink:href="#DejaVuSans-74"/>
     <use x="767.513672" xlink:href="#DejaVuSans-73"/>
    </g>
   </g>
   <g id="text_12">
    <!-- v0.0.0 -->
    <g style="fill:#808080;" transform="translate(239.51475 286.355965)scale(0.1 -0.1)">
     <use xlink:href="#DejaVuSans-76"/>
     <use x="59.179688" xlink:href="#DejaVuSans-30"/>
     <use x="122.802734" xlink:href="#DejaVuSans-2e"/>
     <use x="154.589844" xlink:href="#DejaVuSans-30"/>
     <use x="218.212891" xlink:href="#DejaVuSans-2e"/>
     <use x="250" xlink:href="#DejaVuSans-30"/>
    </g>
   </g>
   <g id="legend_1">
    <g id="patch_7">
     <path d="M 73.72 140.270228 
L 157.660625 140.270228 
Q 161.660625 140.270228 161.660625 136.270228 
L 161.660625 20.845228 
Q 161.660625 16.845228 157.660625 16.845228 
L 73.72 16.845228 
Q 69.72 16.845228 69.72 20.845228 
L 69.72 136.270228 
Q 69.72 140.270228 73.72 140.270228 
z
" style="fill:#ffffff;opacity:0.2;stroke:#cccccc;stroke-linejoin:miter;"/>
    </g>
    <g id="line2d_89">
     <path d="M 77.72 33.042103 
L 117.72 33.042103 
" style="fill:none;stroke:#000000;stroke-linecap:square;stroke-width:1.5;"/>
    </g>
    <g id="line2d_90"/>
    <g id="text_13">
     <!-- 1 -->
     <g transform="translate(133.72 40.042103)scale(0.2 -0.2)">
      <use xlink:href="#DejaVuSans-31"/>
     </g>
    </g>
    <g id="line2d_91">
     <path d="M 77.72 62.398353 
L 117.72 62.398353 
" style="fill:none;stroke:#00bfbf;stroke-linecap:square;stroke-width:1.5;"/>
    </g>
    <g id="line2d_92"/>
    <g id="text_14">
     <!-- -1 -->
     <g transform="translate(133.72 69.398353)scale(0.2 -0.2)">
      <use xlink:href="#DejaVuSans-2d"/>
      <use x="36.083984" xlink:href="#DejaVuSans-31"/>
     </g>
    </g>
    <g id="line2d_93">
     <path d="M 77.72 91.754603 
L 117.72 91.754603 
" style="fill:none;stroke:#bf00bf;stroke-linecap:square;stroke-width:1.5;"/>
    </g>
    <g id="line2d_94"/>
    <g id="text_15">
     <!-- -4 -->
     <g transform="translate(133.72 98.754603)scale(0.2 -0.2)">
      <use xlink:href="#DejaVuSans-2d"/>
      <use x="36.083984" xlink:href="#DejaVuSans-34"/>
     </g>
    </g>
    <g id="line2d_95">
     <path d="M 77.72 121.110853 
L 117.72 121.110853 
" style="fill:none;stroke:#ff0000;stroke-linecap:square;stroke-width:3;"/>
    </g>
    <g id="line2d_96"/>
    <g id="text_16">
     <!-- -8 -->
     <g transform="translate(133.72 128.110853)scale(0.2 -0.2)">
      <use xlink:href="#DejaVuSans-2d"/>
      <use x="36.083984" xlink:href="#DejaVuSans-38"/>
     </g>
    </g>
   </g>
  </g>
 </g>
 <defs>
  <clipPath id="p8bf2ce8c33">
   <rect height="284.434772" width="390.952" x="59.72" y="6.845228"/>
  </clipPath>
 </defs>
</svg>
