<?xml version="1.0" encoding="utf-8" standalone="no"?>
<!DOCTYPE svg PUBLIC "-//W3C//DTD SVG 1.1//EN"
  "http://www.w3.org/Graphics/SVG/1.1/DTD/svg11.dtd">
<!-- Created with matplotlib (http://matplotlib.org/) -->
<svg height="345pt" version="1.1" viewBox="0 0 460 345" width="460pt" xmlns="http://www.w3.org/2000/svg" xmlns:xlink="http://www.w3.org/1999/xlink">
 <defs>
  <style type="text/css">
*{stroke-linecap:butt;stroke-linejoin:round;}
  </style>
 </defs>
 <g id="figure_1">
  <g id="patch_1">
   <path d="M 0 345.6 
L 460.8 345.6 
L 460.8 0 
L 0 0 
z
" style="fill:#ffffff;"/>
  </g>
  <g id="axes_1">
   <g id="patch_2">
    <path d="M 56.12 294.88 
L 333.168 294.88 
L 333.168 6.845228 
L 56.12 6.845228 
z
" style="fill:#ffffff;"/>
   </g>
   <g id="line2d_1">
    <path d="M 28.455965 294.88 
L 28.455965 292.643271 
L 40.370217 292.643271 
L 40.370217 290.406542 
L 47.339607 290.406542 
L 47.339607 289.288178 
L 68.034251 289.288178 
L 68.034251 288.169813 
L 75.003641 288.169813 
L 75.003641 287.051449 
L 81.586754 287.051449 
L 81.586754 285.933084 
L 83.08236 285.933084 
L 83.08236 284.81472 
L 86.335171 284.81472 
L 86.335171 283.696355 
L 89.567532 283.696355 
L 89.567532 282.577991 
L 92.287186 282.577991 
L 92.287186 281.459626 
L 93.501005 281.459626 
L 93.501005 280.341262 
L 94.26507 280.341262 
L 94.26507 279.222897 
L 95.351029 279.222897 
L 95.351029 278.104533 
L 96.372436 278.104533 
L 96.372436 276.986168 
L 96.699848 276.986168 
L 96.699848 275.867804 
L 97.336537 275.867804 
L 97.336537 274.749439 
L 98.249422 274.749439 
L 98.249422 272.51271 
L 99.67078 272.51271 
L 99.67078 271.394346 
L 101.23446 271.394346 
L 101.23446 270.275981 
L 101.966002 270.275981 
L 101.966002 269.157617 
L 102.436953 269.157617 
L 102.436953 268.039252 
L 103.560793 268.039252 
L 103.560793 266.920888 
L 103.777005 266.920888 
L 103.777005 265.802523 
L 104.201437 265.802523 
L 104.201437 264.684159 
L 104.409787 264.684159 
L 104.409787 263.565795 
L 105.218813 263.565795 
L 105.218813 262.44743 
L 105.801534 262.44743 
L 105.801534 261.329066 
L 106.365146 261.329066 
L 106.365146 260.210701 
L 107.439785 260.210701 
L 107.439785 259.092337 
L 107.612537 259.092337 
L 107.612537 257.973972 
L 107.783569 257.973972 
L 107.783569 256.855608 
L 108.775496 256.855608 
L 108.775496 255.737243 
L 108.935392 255.737243 
L 108.935392 254.618879 
L 109.093814 254.618879 
L 109.093814 253.500514 
L 109.713291 253.500514 
L 109.713291 252.38215 
L 110.602556 252.38215 
L 110.602556 251.263785 
L 111.72091 251.263785 
L 111.72091 250.145421 
L 112.384646 250.145421 
L 112.384646 249.027056 
L 112.770924 249.027056 
L 112.770924 247.908692 
L 113.272818 247.908692 
L 113.272818 246.790327 
L 113.760471 246.790327 
L 113.760471 245.671963 
L 113.999206 245.671963 
L 113.999206 244.553598 
L 114.117341 244.553598 
L 114.117341 243.435234 
L 114.351204 243.435234 
L 114.351204 242.316869 
L 114.809594 242.316869 
L 114.809594 241.198505 
L 115.58349 241.198505 
L 115.58349 240.08014 
L 116.010559 240.08014 
L 116.010559 237.843411 
L 116.834124 237.843411 
L 116.934349 235.606682 
L 117.620026 235.606682 
L 117.620026 233.369954 
L 117.999901 233.369954 
L 117.999901 232.251589 
L 118.463235 232.251589 
L 118.463235 231.133225 
L 119.09161 231.133225 
L 119.09161 230.01486 
L 119.354037 230.01486 
L 119.440629 227.778131 
L 119.526788 227.778131 
L 119.526788 226.659767 
L 119.697821 226.659767 
L 119.697821 225.541402 
L 119.867168 225.541402 
L 119.867168 224.423038 
L 120.283378 224.423038 
L 120.283378 223.304673 
L 120.447081 223.304673 
L 120.447081 222.186309 
L 121.086731 222.186309 
L 121.086731 219.94958 
L 121.70343 219.94958 
L 121.70343 218.831215 
L 121.854208 218.831215 
L 121.854208 217.712851 
L 122.003676 217.712851 
L 122.003676 216.594486 
L 122.444434 216.594486 
L 122.516807 214.357757 
L 122.588877 214.357757 
L 122.588877 213.239393 
L 122.944762 213.239393 
L 122.944762 212.121028 
L 123.36232 212.121028 
L 123.430938 209.884299 
L 124.036471 209.884299 
L 124.036471 208.765935 
L 124.298898 208.765935 
L 124.298898 207.64757 
L 124.557378 207.64757 
L 124.557378 206.529206 
L 125.062963 206.529206 
L 125.062963 205.410841 
L 126.148921 205.410841 
L 126.148921 204.292477 
L 126.323427 204.292477 
L 126.381204 202.055748 
L 126.610389 202.055748 
L 126.610389 200.937384 
L 126.780294 200.937384 
L 126.780294 199.819019 
L 127.28016 199.819019 
L 127.28016 198.700655 
L 127.551708 198.700655 
L 127.551708 197.58229 
L 127.977455 197.58229 
L 128.082264 195.345561 
L 128.698042 195.345561 
L 128.698042 194.227197 
L 128.948245 194.227197 
L 128.948245 193.108832 
L 129.096637 193.108832 
L 129.096637 191.990468 
L 129.582224 191.990468 
L 129.630036 189.753739 
L 129.914152 189.753739 
L 129.914152 188.635374 
L 130.14738 188.635374 
L 130.14738 187.51701 
L 130.377486 187.51701 
L 130.377486 186.398645 
L 130.604552 186.398645 
L 130.604552 185.280281 
L 130.961731 185.280281 
L 131.005861 183.043552 
L 131.311639 183.043552 
L 131.311639 181.925187 
L 131.526768 181.925187 
L 131.526768 180.806823 
L 131.654565 180.806823 
L 131.654565 179.688458 
L 131.907344 179.688458 
L 131.990784 177.451729 
L 132.032353 177.451729 
L 132.032353 176.333365 
L 132.320552 176.333365 
L 132.320552 175.215 
L 132.52349 175.215 
L 132.52349 174.096636 
L 132.72406 174.096636 
L 132.803637 171.859907 
L 132.882847 171.859907 
L 132.882847 170.741543 
L 133.196088 170.741543 
L 133.196088 169.623178 
L 133.350594 169.623178 
L 133.350594 168.504814 
L 133.503723 168.504814 
L 133.503723 167.386449 
L 133.617681 167.386449 
L 133.617681 166.268085 
L 133.880682 166.268085 
L 133.880682 165.14972 
L 133.992176 165.14972 
L 133.992176 164.031356 
L 134.176407 164.031356 
L 134.286006 161.794627 
L 134.431058 161.794627 
L 134.431058 160.676262 
L 134.646368 160.676262 
L 134.646368 159.557898 
L 134.8942 159.557898 
L 134.929315 157.321169 
L 135.276571 157.321169 
L 135.276571 156.202804 
L 135.549413 156.202804 
L 135.549413 155.08444 
L 135.717765 155.08444 
L 135.717765 153.966075 
L 135.950722 153.966075 
L 135.983745 151.729346 
L 136.471629 151.729346 
L 136.471629 150.610982 
L 136.757848 150.610982 
L 136.757848 149.492617 
L 136.883542 149.492617 
L 136.883542 148.374253 
L 137.498586 148.374253 
L 137.498586 147.255888 
L 137.648969 147.255888 
L 137.738571 145.019159 
L 137.916386 145.019159 
L 138.004608 142.78243 
L 138.381758 142.78243 
L 138.381758 141.664066 
L 138.553074 141.664066 
L 138.609803 139.427337 
L 138.7227 139.427337 
L 138.7227 138.308973 
L 138.834862 138.308973 
L 138.918505 136.072244 
L 139.001743 136.072244 
L 139.001743 134.953879 
L 139.139583 134.953879 
L 139.249066 132.71715 
L 139.330722 132.71715 
L 139.438997 130.480421 
L 139.600142 130.480421 
L 139.680151 128.243692 
L 139.812678 128.243692 
L 139.917968 126.006963 
L 141.328075 126.006963 
L 141.424506 122.65187 
L 142.541345 122.65187 
L 142.541345 121.533505 
L 142.986095 121.533505 
L 142.986095 120.415141 
L 143.946604 120.415141 
L 143.967351 118.178412 
L 144.091308 118.178412 
L 144.173452 115.941683 
L 144.275583 115.941683 
L 144.356853 113.704954 
L 144.457904 113.704954 
L 144.558363 111.468225 
L 144.678145 111.468225 
L 144.678145 110.349861 
L 144.816844 110.349861 
L 144.915234 106.994767 
L 144.993542 106.994767 
L 145.090928 104.758038 
L 145.168442 104.758038 
L 145.168442 103.639674 
L 145.284061 103.639674 
L 145.322428 101.402945 
L 145.417974 101.402945 
L 145.417974 100.28458 
L 145.943432 100.28458 
L 145.943432 99.166216 
L 146.145545 99.166216 
L 146.145545 98.047851 
L 146.790867 98.047851 
L 146.790867 96.929487 
L 147.276552 96.929487 
L 147.276552 95.811122 
L 148.273273 95.811122 
L 148.273273 94.692758 
L 148.624726 94.692758 
L 148.624726 93.574393 
L 149.306781 93.574393 
L 149.306781 92.456029 
L 149.623006 92.456029 
L 149.623006 91.337664 
L 149.830637 91.337664 
L 149.830637 90.2193 
L 149.992034 90.2193 
L 149.992034 89.100935 
L 150.424656 89.100935 
L 150.424656 87.982571 
L 150.580595 87.982571 
L 150.580595 86.864206 
L 150.832756 86.864206 
L 150.846657 84.627477 
L 151.244973 84.627477 
L 151.244973 83.509113 
L 151.501022 83.509113 
L 151.567774 81.272384 
L 151.740126 81.272384 
L 151.832219 79.035655 
L 151.8977 79.035655 
L 151.949905 76.798926 
L 152.131386 76.798926 
L 152.131386 75.680562 
L 152.374656 75.680562 
L 152.387364 73.443833 
L 152.488698 73.443833 
L 152.488698 72.325468 
L 152.61453 72.325468 
L 152.61453 71.207104 
L 152.900496 71.207104 
L 152.900496 70.088739 
L 153.035598 70.088739 
L 153.121023 66.733646 
L 153.266485 66.733646 
L 153.326732 64.496917 
L 153.458539 64.496917 
L 153.518118 61.141823 
L 153.707396 61.141823 
L 153.777841 58.905094 
L 153.917872 58.905094 
L 153.987461 55.550001 
L 154.09132 55.550001 
L 154.09132 54.431636 
L 154.217413 54.431636 
L 154.24024 52.194907 
L 154.421772 52.194907 
L 154.433054 49.958178 
L 154.601406 49.958178 
L 154.657159 47.72145 
L 154.779183 47.72145 
L 154.889367 45.484721 
L 154.900346 45.484721 
L 154.900346 43.247992 
L 155.09679 43.247992 
L 155.09679 42.129627 
L 155.344578 42.129627 
L 155.429934 38.774534 
L 155.651999 38.774534 
L 155.651999 37.656169 
L 155.788044 37.656169 
L 155.860855 35.41944 
L 156.036409 35.41944 
L 156.036409 34.301076 
L 156.159258 34.301076 
L 156.159258 33.182711 
L 156.291362 33.182711 
L 156.351992 30.945982 
L 156.651976 30.945982 
L 156.651976 29.827618 
L 156.829485 29.827618 
L 156.927315 27.590889 
L 157.063347 27.590889 
L 157.063347 26.472524 
L 157.284519 26.472524 
L 157.284519 25.35416 
L 157.820678 25.35416 
L 157.820678 24.235795 
L 158.241496 24.235795 
L 158.241496 23.117431 
L 158.862733 23.117431 
L 158.862733 21.999066 
L 159.165129 21.999066 
L 159.165129 20.880702 
L 159.579741 20.880702 
L 159.579741 19.762337 
L 159.910938 19.762337 
L 159.910938 18.643973 
L 160.35616 18.643973 
L 160.35616 17.525609 
L 160.758944 17.525609 
L 160.758944 16.407244 
L 161.167758 16.407244 
L 161.167758 15.28888 
L 161.394923 15.28888 
L 161.394923 14.170515 
L 161.65621 14.170515 
L 161.65621 13.052151 
L 162.029971 13.052151 
L 162.029971 11.933786 
L 162.487789 11.933786 
L 162.487789 10.815422 
L 162.774798 10.815422 
L 162.774798 9.697057 
L 333.168 9.697057 
L 333.168 9.697057 
" style="fill:none;stroke:#f5deb3;stroke-linecap:square;stroke-width:4;"/>
   </g>
   <g id="line2d_2">
    <defs>
     <path d="M -0 7.778175 
L 7.778175 0 
L 0 -7.778175 
L -7.778175 -0 
z
" id="m1646ecdbbe" style="stroke:#f5deb3;stroke-linejoin:miter;stroke-width:1.5;"/>
    </defs>
    <g>
     <use style="fill:#f5deb3;stroke:#f5deb3;stroke-linejoin:miter;stroke-width:1.5;" x="121.086731" xlink:href="#m1646ecdbbe" y="222.186309"/>
     <use style="fill:#f5deb3;stroke:#f5deb3;stroke-linejoin:miter;stroke-width:1.5;" x="146.145545" xlink:href="#m1646ecdbbe" y="98.047851"/>
     <use style="fill:#f5deb3;stroke:#f5deb3;stroke-linejoin:miter;stroke-width:1.5;" x="159.579741" xlink:href="#m1646ecdbbe" y="20.880702"/>
     <use style="fill:#f5deb3;stroke:#f5deb3;stroke-linejoin:miter;stroke-width:1.5;" x="162.774798" xlink:href="#m1646ecdbbe" y="9.697057"/>
     <use style="fill:#f5deb3;stroke:#f5deb3;stroke-linejoin:miter;stroke-width:1.5;" x="162.774798" xlink:href="#m1646ecdbbe" y="9.697057"/>
     <use style="fill:#f5deb3;stroke:#f5deb3;stroke-linejoin:miter;stroke-width:1.5;" x="333.168" xlink:href="#m1646ecdbbe" y="9.697057"/>
    </g>
   </g>
   <g id="line2d_3">
    <path style="fill:none;stroke:#f5deb3;stroke-linecap:square;stroke-width:4;"/>
    <g/>
   </g>
   <g id="line2d_4">
    <path d="M 333.168 9.697057 
L 363.64328 15.400716 
" style="fill:none;stroke:#f5deb3;stroke-linecap:square;stroke-width:4;"/>
    <g>
     <use style="fill:#f5deb3;stroke:#f5deb3;stroke-linejoin:miter;stroke-width:1.5;" x="333.168" xlink:href="#m1646ecdbbe" y="9.697057"/>
     <use style="fill:#f5deb3;stroke:#f5deb3;stroke-linejoin:miter;stroke-width:1.5;" x="363.64328" xlink:href="#m1646ecdbbe" y="15.400716"/>
    </g>
   </g>
   <g id="matplotlib.axis_1">
    <g id="xtick_1">
     <g id="line2d_5">
      <path clip-path="url(#pc4d372677d)" d="M 56.12 294.88 
L 56.12 6.845228 
" style="fill:none;stroke:#b0b0b0;stroke-linecap:square;stroke-width:0.8;"/>
     </g>
     <g id="line2d_6">
      <defs>
       <path d="M 0 0 
L 0 3.5 
" id="m7315e71233" style="stroke:#000000;stroke-width:0.8;"/>
      </defs>
      <g>
       <use style="stroke:#000000;stroke-width:0.8;" x="56.12" xlink:href="#m7315e71233" y="294.88"/>
      </g>
     </g>
     <g id="text_1">
      <!-- 0 -->
      <defs>
       <path d="M 31.78125 66.40625 
Q 24.171875 66.40625 20.328125 58.90625 
Q 16.5 51.421875 16.5 36.375 
Q 16.5 21.390625 20.328125 13.890625 
Q 24.171875 6.390625 31.78125 6.390625 
Q 39.453125 6.390625 43.28125 13.890625 
Q 47.125 21.390625 47.125 36.375 
Q 47.125 51.421875 43.28125 58.90625 
Q 39.453125 66.40625 31.78125 66.40625 
z
M 31.78125 74.21875 
Q 44.046875 74.21875 50.515625 64.515625 
Q 56.984375 54.828125 56.984375 36.375 
Q 56.984375 17.96875 50.515625 8.265625 
Q 44.046875 -1.421875 31.78125 -1.421875 
Q 19.53125 -1.421875 13.0625 8.265625 
Q 6.59375 17.96875 6.59375 36.375 
Q 6.59375 54.828125 13.0625 64.515625 
Q 19.53125 74.21875 31.78125 74.21875 
z
" id="DejaVuSans-30"/>
      </defs>
      <g transform="translate(49.7575 317.076875)scale(0.2 -0.2)">
       <use xlink:href="#DejaVuSans-30"/>
      </g>
     </g>
    </g>
    <g id="xtick_2">
     <g id="line2d_7">
      <path clip-path="url(#pc4d372677d)" d="M 135.276571 294.88 
L 135.276571 6.845228 
" style="fill:none;stroke:#b0b0b0;stroke-linecap:square;stroke-width:0.8;"/>
     </g>
     <g id="line2d_8">
      <g>
       <use style="stroke:#000000;stroke-width:0.8;" x="135.276571" xlink:href="#m7315e71233" y="294.88"/>
      </g>
     </g>
     <g id="text_2">
      <!-- 2 -->
      <defs>
       <path d="M 19.1875 8.296875 
L 53.609375 8.296875 
L 53.609375 0 
L 7.328125 0 
L 7.328125 8.296875 
Q 12.9375 14.109375 22.625 23.890625 
Q 32.328125 33.6875 34.8125 36.53125 
Q 39.546875 41.84375 41.421875 45.53125 
Q 43.3125 49.21875 43.3125 52.78125 
Q 43.3125 58.59375 39.234375 62.25 
Q 35.15625 65.921875 28.609375 65.921875 
Q 23.96875 65.921875 18.8125 64.3125 
Q 13.671875 62.703125 7.8125 59.421875 
L 7.8125 69.390625 
Q 13.765625 71.78125 18.9375 73 
Q 24.125 74.21875 28.421875 74.21875 
Q 39.75 74.21875 46.484375 68.546875 
Q 53.21875 62.890625 53.21875 53.421875 
Q 53.21875 48.921875 51.53125 44.890625 
Q 49.859375 40.875 45.40625 35.40625 
Q 44.1875 33.984375 37.640625 27.21875 
Q 31.109375 20.453125 19.1875 8.296875 
z
" id="DejaVuSans-32"/>
      </defs>
      <g transform="translate(128.914071 317.076875)scale(0.2 -0.2)">
       <use xlink:href="#DejaVuSans-32"/>
      </g>
     </g>
    </g>
    <g id="xtick_3">
     <g id="line2d_9">
      <path clip-path="url(#pc4d372677d)" d="M 214.433143 294.88 
L 214.433143 6.845228 
" style="fill:none;stroke:#b0b0b0;stroke-linecap:square;stroke-width:0.8;"/>
     </g>
     <g id="line2d_10">
      <g>
       <use style="stroke:#000000;stroke-width:0.8;" x="214.433143" xlink:href="#m7315e71233" y="294.88"/>
      </g>
     </g>
     <g id="text_3">
      <!-- 4 -->
      <defs>
       <path d="M 37.796875 64.3125 
L 12.890625 25.390625 
L 37.796875 25.390625 
z
M 35.203125 72.90625 
L 47.609375 72.90625 
L 47.609375 25.390625 
L 58.015625 25.390625 
L 58.015625 17.1875 
L 47.609375 17.1875 
L 47.609375 0 
L 37.796875 0 
L 37.796875 17.1875 
L 4.890625 17.1875 
L 4.890625 26.703125 
z
" id="DejaVuSans-34"/>
      </defs>
      <g transform="translate(208.070643 317.076875)scale(0.2 -0.2)">
       <use xlink:href="#DejaVuSans-34"/>
      </g>
     </g>
    </g>
    <g id="xtick_4">
     <g id="line2d_11">
      <path clip-path="url(#pc4d372677d)" d="M 293.589714 294.88 
L 293.589714 6.845228 
" style="fill:none;stroke:#b0b0b0;stroke-linecap:square;stroke-width:0.8;"/>
     </g>
     <g id="line2d_12">
      <g>
       <use style="stroke:#000000;stroke-width:0.8;" x="293.589714" xlink:href="#m7315e71233" y="294.88"/>
      </g>
     </g>
     <g id="text_4">
      <!-- 6 -->
      <defs>
       <path d="M 33.015625 40.375 
Q 26.375 40.375 22.484375 35.828125 
Q 18.609375 31.296875 18.609375 23.390625 
Q 18.609375 15.53125 22.484375 10.953125 
Q 26.375 6.390625 33.015625 6.390625 
Q 39.65625 6.390625 43.53125 10.953125 
Q 47.40625 15.53125 47.40625 23.390625 
Q 47.40625 31.296875 43.53125 35.828125 
Q 39.65625 40.375 33.015625 40.375 
z
M 52.59375 71.296875 
L 52.59375 62.3125 
Q 48.875 64.0625 45.09375 64.984375 
Q 41.3125 65.921875 37.59375 65.921875 
Q 27.828125 65.921875 22.671875 59.328125 
Q 17.53125 52.734375 16.796875 39.40625 
Q 19.671875 43.65625 24.015625 45.921875 
Q 28.375 48.1875 33.59375 48.1875 
Q 44.578125 48.1875 50.953125 41.515625 
Q 57.328125 34.859375 57.328125 23.390625 
Q 57.328125 12.15625 50.6875 5.359375 
Q 44.046875 -1.421875 33.015625 -1.421875 
Q 20.359375 -1.421875 13.671875 8.265625 
Q 6.984375 17.96875 6.984375 36.375 
Q 6.984375 53.65625 15.1875 63.9375 
Q 23.390625 74.21875 37.203125 74.21875 
Q 40.921875 74.21875 44.703125 73.484375 
Q 48.484375 72.75 52.59375 71.296875 
z
" id="DejaVuSans-36"/>
      </defs>
      <g transform="translate(287.227214 317.076875)scale(0.2 -0.2)">
       <use xlink:href="#DejaVuSans-36"/>
      </g>
     </g>
    </g>
    <g id="xtick_5">
     <g id="line2d_13">
      <path clip-path="url(#pc4d372677d)" d="M 56.12 294.88 
L 56.12 6.845228 
" style="fill:none;stroke:#b0b0b0;stroke-linecap:square;stroke-width:0.8;"/>
     </g>
     <g id="line2d_14">
      <defs>
       <path d="M 0 0 
L 0 2 
" id="m7746348b62" style="stroke:#000000;stroke-width:0.6;"/>
      </defs>
      <g>
       <use style="stroke:#000000;stroke-width:0.6;" x="56.12" xlink:href="#m7746348b62" y="294.88"/>
      </g>
     </g>
    </g>
    <g id="xtick_6">
     <g id="line2d_15">
      <path clip-path="url(#pc4d372677d)" d="M 95.698286 294.88 
L 95.698286 6.845228 
" style="fill:none;stroke:#b0b0b0;stroke-linecap:square;stroke-width:0.8;"/>
     </g>
     <g id="line2d_16">
      <g>
       <use style="stroke:#000000;stroke-width:0.6;" x="95.698286" xlink:href="#m7746348b62" y="294.88"/>
      </g>
     </g>
    </g>
    <g id="xtick_7">
     <g id="line2d_17">
      <path clip-path="url(#pc4d372677d)" d="M 135.276571 294.88 
L 135.276571 6.845228 
" style="fill:none;stroke:#b0b0b0;stroke-linecap:square;stroke-width:0.8;"/>
     </g>
     <g id="line2d_18">
      <g>
       <use style="stroke:#000000;stroke-width:0.6;" x="135.276571" xlink:href="#m7746348b62" y="294.88"/>
      </g>
     </g>
    </g>
    <g id="xtick_8">
     <g id="line2d_19">
      <path clip-path="url(#pc4d372677d)" d="M 174.854857 294.88 
L 174.854857 6.845228 
" style="fill:none;stroke:#b0b0b0;stroke-linecap:square;stroke-width:0.8;"/>
     </g>
     <g id="line2d_20">
      <g>
       <use style="stroke:#000000;stroke-width:0.6;" x="174.854857" xlink:href="#m7746348b62" y="294.88"/>
      </g>
     </g>
    </g>
    <g id="xtick_9">
     <g id="line2d_21">
      <path clip-path="url(#pc4d372677d)" d="M 214.433143 294.88 
L 214.433143 6.845228 
" style="fill:none;stroke:#b0b0b0;stroke-linecap:square;stroke-width:0.8;"/>
     </g>
     <g id="line2d_22">
      <g>
       <use style="stroke:#000000;stroke-width:0.6;" x="214.433143" xlink:href="#m7746348b62" y="294.88"/>
      </g>
     </g>
    </g>
    <g id="xtick_10">
     <g id="line2d_23">
      <path clip-path="url(#pc4d372677d)" d="M 254.011429 294.88 
L 254.011429 6.845228 
" style="fill:none;stroke:#b0b0b0;stroke-linecap:square;stroke-width:0.8;"/>
     </g>
     <g id="line2d_24">
      <g>
       <use style="stroke:#000000;stroke-width:0.6;" x="254.011429" xlink:href="#m7746348b62" y="294.88"/>
      </g>
     </g>
    </g>
    <g id="xtick_11">
     <g id="line2d_25">
      <path clip-path="url(#pc4d372677d)" d="M 293.589714 294.88 
L 293.589714 6.845228 
" style="fill:none;stroke:#b0b0b0;stroke-linecap:square;stroke-width:0.8;"/>
     </g>
     <g id="line2d_26">
      <g>
       <use style="stroke:#000000;stroke-width:0.6;" x="293.589714" xlink:href="#m7746348b62" y="294.88"/>
      </g>
     </g>
    </g>
    <g id="xtick_12">
     <g id="line2d_27">
      <path clip-path="url(#pc4d372677d)" d="M 333.168 294.88 
L 333.168 6.845228 
" style="fill:none;stroke:#b0b0b0;stroke-linecap:square;stroke-width:0.8;"/>
     </g>
     <g id="line2d_28">
      <g>
       <use style="stroke:#000000;stroke-width:0.6;" x="333.168" xlink:href="#m7746348b62" y="294.88"/>
      </g>
     </g>
    </g>
    <g id="text_5">
     <!-- log10(# f-evals / dimension) -->
     <defs>
      <path d="M 9.421875 75.984375 
L 18.40625 75.984375 
L 18.40625 0 
L 9.421875 0 
z
" id="DejaVuSans-6c"/>
      <path d="M 30.609375 48.390625 
Q 23.390625 48.390625 19.1875 42.75 
Q 14.984375 37.109375 14.984375 27.296875 
Q 14.984375 17.484375 19.15625 11.84375 
Q 23.34375 6.203125 30.609375 6.203125 
Q 37.796875 6.203125 41.984375 11.859375 
Q 46.1875 17.53125 46.1875 27.296875 
Q 46.1875 37.015625 41.984375 42.703125 
Q 37.796875 48.390625 30.609375 48.390625 
z
M 30.609375 56 
Q 42.328125 56 49.015625 48.375 
Q 55.71875 40.765625 55.71875 27.296875 
Q 55.71875 13.875 49.015625 6.21875 
Q 42.328125 -1.421875 30.609375 -1.421875 
Q 18.84375 -1.421875 12.171875 6.21875 
Q 5.515625 13.875 5.515625 27.296875 
Q 5.515625 40.765625 12.171875 48.375 
Q 18.84375 56 30.609375 56 
z
" id="DejaVuSans-6f"/>
      <path d="M 45.40625 27.984375 
Q 45.40625 37.75 41.375 43.109375 
Q 37.359375 48.484375 30.078125 48.484375 
Q 22.859375 48.484375 18.828125 43.109375 
Q 14.796875 37.75 14.796875 27.984375 
Q 14.796875 18.265625 18.828125 12.890625 
Q 22.859375 7.515625 30.078125 7.515625 
Q 37.359375 7.515625 41.375 12.890625 
Q 45.40625 18.265625 45.40625 27.984375 
z
M 54.390625 6.78125 
Q 54.390625 -7.171875 48.1875 -13.984375 
Q 42 -20.796875 29.203125 -20.796875 
Q 24.46875 -20.796875 20.265625 -20.09375 
Q 16.0625 -19.390625 12.109375 -17.921875 
L 12.109375 -9.1875 
Q 16.0625 -11.328125 19.921875 -12.34375 
Q 23.78125 -13.375 27.78125 -13.375 
Q 36.625 -13.375 41.015625 -8.765625 
Q 45.40625 -4.15625 45.40625 5.171875 
L 45.40625 9.625 
Q 42.625 4.78125 38.28125 2.390625 
Q 33.9375 0 27.875 0 
Q 17.828125 0 11.671875 7.65625 
Q 5.515625 15.328125 5.515625 27.984375 
Q 5.515625 40.671875 11.671875 48.328125 
Q 17.828125 56 27.875 56 
Q 33.9375 56 38.28125 53.609375 
Q 42.625 51.21875 45.40625 46.390625 
L 45.40625 54.6875 
L 54.390625 54.6875 
z
" id="DejaVuSans-67"/>
      <path d="M 12.40625 8.296875 
L 28.515625 8.296875 
L 28.515625 63.921875 
L 10.984375 60.40625 
L 10.984375 69.390625 
L 28.421875 72.90625 
L 38.28125 72.90625 
L 38.28125 8.296875 
L 54.390625 8.296875 
L 54.390625 0 
L 12.40625 0 
z
" id="DejaVuSans-31"/>
      <path d="M 31 75.875 
Q 24.46875 64.65625 21.28125 53.65625 
Q 18.109375 42.671875 18.109375 31.390625 
Q 18.109375 20.125 21.3125 9.0625 
Q 24.515625 -2 31 -13.1875 
L 23.1875 -13.1875 
Q 15.875 -1.703125 12.234375 9.375 
Q 8.59375 20.453125 8.59375 31.390625 
Q 8.59375 42.28125 12.203125 53.3125 
Q 15.828125 64.359375 23.1875 75.875 
z
" id="DejaVuSans-28"/>
      <path d="M 51.125 44 
L 36.921875 44 
L 32.8125 27.6875 
L 47.125 27.6875 
z
M 43.796875 71.78125 
L 38.71875 51.515625 
L 52.984375 51.515625 
L 58.109375 71.78125 
L 65.921875 71.78125 
L 60.890625 51.515625 
L 76.125 51.515625 
L 76.125 44 
L 58.984375 44 
L 54.984375 27.6875 
L 70.515625 27.6875 
L 70.515625 20.21875 
L 53.078125 20.21875 
L 48 0 
L 40.1875 0 
L 45.21875 20.21875 
L 30.90625 20.21875 
L 25.875 0 
L 18.015625 0 
L 23.09375 20.21875 
L 7.71875 20.21875 
L 7.71875 27.6875 
L 24.90625 27.6875 
L 29 44 
L 13.28125 44 
L 13.28125 51.515625 
L 30.90625 51.515625 
L 35.890625 71.78125 
z
" id="DejaVuSans-23"/>
      <path id="DejaVuSans-20"/>
      <path d="M 37.109375 75.984375 
L 37.109375 68.5 
L 28.515625 68.5 
Q 23.6875 68.5 21.796875 66.546875 
Q 19.921875 64.59375 19.921875 59.515625 
L 19.921875 54.6875 
L 34.71875 54.6875 
L 34.71875 47.703125 
L 19.921875 47.703125 
L 19.921875 0 
L 10.890625 0 
L 10.890625 47.703125 
L 2.296875 47.703125 
L 2.296875 54.6875 
L 10.890625 54.6875 
L 10.890625 58.5 
Q 10.890625 67.625 15.140625 71.796875 
Q 19.390625 75.984375 28.609375 75.984375 
z
" id="DejaVuSans-66"/>
      <path d="M 4.890625 31.390625 
L 31.203125 31.390625 
L 31.203125 23.390625 
L 4.890625 23.390625 
z
" id="DejaVuSans-2d"/>
      <path d="M 56.203125 29.59375 
L 56.203125 25.203125 
L 14.890625 25.203125 
Q 15.484375 15.921875 20.484375 11.0625 
Q 25.484375 6.203125 34.421875 6.203125 
Q 39.59375 6.203125 44.453125 7.46875 
Q 49.3125 8.734375 54.109375 11.28125 
L 54.109375 2.78125 
Q 49.265625 0.734375 44.1875 -0.34375 
Q 39.109375 -1.421875 33.890625 -1.421875 
Q 20.796875 -1.421875 13.15625 6.1875 
Q 5.515625 13.8125 5.515625 26.8125 
Q 5.515625 40.234375 12.765625 48.109375 
Q 20.015625 56 32.328125 56 
Q 43.359375 56 49.78125 48.890625 
Q 56.203125 41.796875 56.203125 29.59375 
z
M 47.21875 32.234375 
Q 47.125 39.59375 43.09375 43.984375 
Q 39.0625 48.390625 32.421875 48.390625 
Q 24.90625 48.390625 20.390625 44.140625 
Q 15.875 39.890625 15.1875 32.171875 
z
" id="DejaVuSans-65"/>
      <path d="M 2.984375 54.6875 
L 12.5 54.6875 
L 29.59375 8.796875 
L 46.6875 54.6875 
L 56.203125 54.6875 
L 35.6875 0 
L 23.484375 0 
z
" id="DejaVuSans-76"/>
      <path d="M 34.28125 27.484375 
Q 23.390625 27.484375 19.1875 25 
Q 14.984375 22.515625 14.984375 16.5 
Q 14.984375 11.71875 18.140625 8.90625 
Q 21.296875 6.109375 26.703125 6.109375 
Q 34.1875 6.109375 38.703125 11.40625 
Q 43.21875 16.703125 43.21875 25.484375 
L 43.21875 27.484375 
z
M 52.203125 31.203125 
L 52.203125 0 
L 43.21875 0 
L 43.21875 8.296875 
Q 40.140625 3.328125 35.546875 0.953125 
Q 30.953125 -1.421875 24.3125 -1.421875 
Q 15.921875 -1.421875 10.953125 3.296875 
Q 6 8.015625 6 15.921875 
Q 6 25.140625 12.171875 29.828125 
Q 18.359375 34.515625 30.609375 34.515625 
L 43.21875 34.515625 
L 43.21875 35.40625 
Q 43.21875 41.609375 39.140625 45 
Q 35.0625 48.390625 27.6875 48.390625 
Q 23 48.390625 18.546875 47.265625 
Q 14.109375 46.140625 10.015625 43.890625 
L 10.015625 52.203125 
Q 14.9375 54.109375 19.578125 55.046875 
Q 24.21875 56 28.609375 56 
Q 40.484375 56 46.34375 49.84375 
Q 52.203125 43.703125 52.203125 31.203125 
z
" id="DejaVuSans-61"/>
      <path d="M 44.28125 53.078125 
L 44.28125 44.578125 
Q 40.484375 46.53125 36.375 47.5 
Q 32.28125 48.484375 27.875 48.484375 
Q 21.1875 48.484375 17.84375 46.4375 
Q 14.5 44.390625 14.5 40.28125 
Q 14.5 37.15625 16.890625 35.375 
Q 19.28125 33.59375 26.515625 31.984375 
L 29.59375 31.296875 
Q 39.15625 29.25 43.1875 25.515625 
Q 47.21875 21.78125 47.21875 15.09375 
Q 47.21875 7.46875 41.1875 3.015625 
Q 35.15625 -1.421875 24.609375 -1.421875 
Q 20.21875 -1.421875 15.453125 -0.5625 
Q 10.6875 0.296875 5.421875 2 
L 5.421875 11.28125 
Q 10.40625 8.6875 15.234375 7.390625 
Q 20.0625 6.109375 24.8125 6.109375 
Q 31.15625 6.109375 34.5625 8.28125 
Q 37.984375 10.453125 37.984375 14.40625 
Q 37.984375 18.0625 35.515625 20.015625 
Q 33.0625 21.96875 24.703125 23.78125 
L 21.578125 24.515625 
Q 13.234375 26.265625 9.515625 29.90625 
Q 5.8125 33.546875 5.8125 39.890625 
Q 5.8125 47.609375 11.28125 51.796875 
Q 16.75 56 26.8125 56 
Q 31.78125 56 36.171875 55.265625 
Q 40.578125 54.546875 44.28125 53.078125 
z
" id="DejaVuSans-73"/>
      <path d="M 25.390625 72.90625 
L 33.6875 72.90625 
L 8.296875 -9.28125 
L 0 -9.28125 
z
" id="DejaVuSans-2f"/>
      <path d="M 45.40625 46.390625 
L 45.40625 75.984375 
L 54.390625 75.984375 
L 54.390625 0 
L 45.40625 0 
L 45.40625 8.203125 
Q 42.578125 3.328125 38.25 0.953125 
Q 33.9375 -1.421875 27.875 -1.421875 
Q 17.96875 -1.421875 11.734375 6.484375 
Q 5.515625 14.40625 5.515625 27.296875 
Q 5.515625 40.1875 11.734375 48.09375 
Q 17.96875 56 27.875 56 
Q 33.9375 56 38.25 53.625 
Q 42.578125 51.265625 45.40625 46.390625 
z
M 14.796875 27.296875 
Q 14.796875 17.390625 18.875 11.75 
Q 22.953125 6.109375 30.078125 6.109375 
Q 37.203125 6.109375 41.296875 11.75 
Q 45.40625 17.390625 45.40625 27.296875 
Q 45.40625 37.203125 41.296875 42.84375 
Q 37.203125 48.484375 30.078125 48.484375 
Q 22.953125 48.484375 18.875 42.84375 
Q 14.796875 37.203125 14.796875 27.296875 
z
" id="DejaVuSans-64"/>
      <path d="M 9.421875 54.6875 
L 18.40625 54.6875 
L 18.40625 0 
L 9.421875 0 
z
M 9.421875 75.984375 
L 18.40625 75.984375 
L 18.40625 64.59375 
L 9.421875 64.59375 
z
" id="DejaVuSans-69"/>
      <path d="M 52 44.1875 
Q 55.375 50.25 60.0625 53.125 
Q 64.75 56 71.09375 56 
Q 79.640625 56 84.28125 50.015625 
Q 88.921875 44.046875 88.921875 33.015625 
L 88.921875 0 
L 79.890625 0 
L 79.890625 32.71875 
Q 79.890625 40.578125 77.09375 44.375 
Q 74.3125 48.1875 68.609375 48.1875 
Q 61.625 48.1875 57.5625 43.546875 
Q 53.515625 38.921875 53.515625 30.90625 
L 53.515625 0 
L 44.484375 0 
L 44.484375 32.71875 
Q 44.484375 40.625 41.703125 44.40625 
Q 38.921875 48.1875 33.109375 48.1875 
Q 26.21875 48.1875 22.15625 43.53125 
Q 18.109375 38.875 18.109375 30.90625 
L 18.109375 0 
L 9.078125 0 
L 9.078125 54.6875 
L 18.109375 54.6875 
L 18.109375 46.1875 
Q 21.1875 51.21875 25.484375 53.609375 
Q 29.78125 56 35.6875 56 
Q 41.65625 56 45.828125 52.96875 
Q 50 49.953125 52 44.1875 
z
" id="DejaVuSans-6d"/>
      <path d="M 54.890625 33.015625 
L 54.890625 0 
L 45.90625 0 
L 45.90625 32.71875 
Q 45.90625 40.484375 42.875 44.328125 
Q 39.84375 48.1875 33.796875 48.1875 
Q 26.515625 48.1875 22.3125 43.546875 
Q 18.109375 38.921875 18.109375 30.90625 
L 18.109375 0 
L 9.078125 0 
L 9.078125 54.6875 
L 18.109375 54.6875 
L 18.109375 46.1875 
Q 21.34375 51.125 25.703125 53.5625 
Q 30.078125 56 35.796875 56 
Q 45.21875 56 50.046875 50.171875 
Q 54.890625 44.34375 54.890625 33.015625 
z
" id="DejaVuSans-6e"/>
      <path d="M 8.015625 75.875 
L 15.828125 75.875 
Q 23.140625 64.359375 26.78125 53.3125 
Q 30.421875 42.28125 30.421875 31.390625 
Q 30.421875 20.453125 26.78125 9.375 
Q 23.140625 -1.703125 15.828125 -13.1875 
L 8.015625 -13.1875 
Q 14.5 -2 17.703125 9.0625 
Q 20.90625 20.125 20.90625 31.390625 
Q 20.90625 42.671875 17.703125 53.65625 
Q 14.5 64.65625 8.015625 75.875 
z
" id="DejaVuSans-29"/>
     </defs>
     <g transform="translate(73.803219 338.153594)scale(0.17 -0.17)">
      <use xlink:href="#DejaVuSans-6c"/>
      <use x="27.783203" xlink:href="#DejaVuSans-6f"/>
      <use x="88.964844" xlink:href="#DejaVuSans-67"/>
      <use x="152.441406" xlink:href="#DejaVuSans-31"/>
      <use x="216.064453" xlink:href="#DejaVuSans-30"/>
      <use x="279.6875" xlink:href="#DejaVuSans-28"/>
      <use x="318.701172" xlink:href="#DejaVuSans-23"/>
      <use x="402.490234" xlink:href="#DejaVuSans-20"/>
      <use x="434.277344" xlink:href="#DejaVuSans-66"/>
      <use x="469.404297" xlink:href="#DejaVuSans-2d"/>
      <use x="505.488281" xlink:href="#DejaVuSans-65"/>
      <use x="567.011719" xlink:href="#DejaVuSans-76"/>
      <use x="626.191406" xlink:href="#DejaVuSans-61"/>
      <use x="687.470703" xlink:href="#DejaVuSans-6c"/>
      <use x="715.253906" xlink:href="#DejaVuSans-73"/>
      <use x="767.353516" xlink:href="#DejaVuSans-20"/>
      <use x="799.140625" xlink:href="#DejaVuSans-2f"/>
      <use x="832.832031" xlink:href="#DejaVuSans-20"/>
      <use x="864.619141" xlink:href="#DejaVuSans-64"/>
      <use x="928.095703" xlink:href="#DejaVuSans-69"/>
      <use x="955.878906" xlink:href="#DejaVuSans-6d"/>
      <use x="1053.291016" xlink:href="#DejaVuSans-65"/>
      <use x="1114.814453" xlink:href="#DejaVuSans-6e"/>
      <use x="1178.193359" xlink:href="#DejaVuSans-73"/>
      <use x="1230.292969" xlink:href="#DejaVuSans-69"/>
      <use x="1258.076172" xlink:href="#DejaVuSans-6f"/>
      <use x="1319.257812" xlink:href="#DejaVuSans-6e"/>
      <use x="1382.636719" xlink:href="#DejaVuSans-29"/>
     </g>
    </g>
   </g>
   <g id="matplotlib.axis_2">
    <g id="ytick_1">
     <g id="line2d_29">
      <path clip-path="url(#pc4d372677d)" d="M 56.12 294.88 
L 333.168 294.88 
" style="fill:none;stroke:#b0b0b0;stroke-linecap:square;stroke-width:0.8;"/>
     </g>
     <g id="line2d_30">
      <defs>
       <path d="M 0 0 
L -3.5 0 
" id="mc73d468d6b" style="stroke:#000000;stroke-width:0.8;"/>
      </defs>
      <g>
       <use style="stroke:#000000;stroke-width:0.8;" x="56.12" xlink:href="#mc73d468d6b" y="294.88"/>
      </g>
     </g>
     <g id="text_6">
      <!-- 0.0 -->
      <defs>
       <path d="M 10.6875 12.40625 
L 21 12.40625 
L 21 0 
L 10.6875 0 
z
" id="DejaVuSans-2e"/>
      </defs>
      <g transform="translate(23.675 300.95875)scale(0.16 -0.16)">
       <use xlink:href="#DejaVuSans-30"/>
       <use x="63.623047" xlink:href="#DejaVuSans-2e"/>
       <use x="95.410156" xlink:href="#DejaVuSans-30"/>
      </g>
     </g>
    </g>
    <g id="ytick_2">
     <g id="line2d_31">
      <path clip-path="url(#pc4d372677d)" d="M 56.12 237.843411 
L 333.168 237.843411 
" style="fill:none;stroke:#b0b0b0;stroke-linecap:square;stroke-width:0.8;"/>
     </g>
     <g id="line2d_32">
      <g>
       <use style="stroke:#000000;stroke-width:0.8;" x="56.12" xlink:href="#mc73d468d6b" y="237.843411"/>
      </g>
     </g>
     <g id="text_7">
      <!-- 0.2 -->
      <g transform="translate(23.675 243.922161)scale(0.16 -0.16)">
       <use xlink:href="#DejaVuSans-30"/>
       <use x="63.623047" xlink:href="#DejaVuSans-2e"/>
       <use x="95.410156" xlink:href="#DejaVuSans-32"/>
      </g>
     </g>
    </g>
    <g id="ytick_3">
     <g id="line2d_33">
      <path clip-path="url(#pc4d372677d)" d="M 56.12 180.806823 
L 333.168 180.806823 
" style="fill:none;stroke:#b0b0b0;stroke-linecap:square;stroke-width:0.8;"/>
     </g>
     <g id="line2d_34">
      <g>
       <use style="stroke:#000000;stroke-width:0.8;" x="56.12" xlink:href="#mc73d468d6b" y="180.806823"/>
      </g>
     </g>
     <g id="text_8">
      <!-- 0.4 -->
      <g transform="translate(23.675 186.885573)scale(0.16 -0.16)">
       <use xlink:href="#DejaVuSans-30"/>
       <use x="63.623047" xlink:href="#DejaVuSans-2e"/>
       <use x="95.410156" xlink:href="#DejaVuSans-34"/>
      </g>
     </g>
    </g>
    <g id="ytick_4">
     <g id="line2d_35">
      <path clip-path="url(#pc4d372677d)" d="M 56.12 123.770234 
L 333.168 123.770234 
" style="fill:none;stroke:#b0b0b0;stroke-linecap:square;stroke-width:0.8;"/>
     </g>
     <g id="line2d_36">
      <g>
       <use style="stroke:#000000;stroke-width:0.8;" x="56.12" xlink:href="#mc73d468d6b" y="123.770234"/>
      </g>
     </g>
     <g id="text_9">
      <!-- 0.6 -->
      <g transform="translate(23.675 129.848984)scale(0.16 -0.16)">
       <use xlink:href="#DejaVuSans-30"/>
       <use x="63.623047" xlink:href="#DejaVuSans-2e"/>
       <use x="95.410156" xlink:href="#DejaVuSans-36"/>
      </g>
     </g>
    </g>
    <g id="ytick_5">
     <g id="line2d_37">
      <path clip-path="url(#pc4d372677d)" d="M 56.12 66.733646 
L 333.168 66.733646 
" style="fill:none;stroke:#b0b0b0;stroke-linecap:square;stroke-width:0.8;"/>
     </g>
     <g id="line2d_38">
      <g>
       <use style="stroke:#000000;stroke-width:0.8;" x="56.12" xlink:href="#mc73d468d6b" y="66.733646"/>
      </g>
     </g>
     <g id="text_10">
      <!-- 0.8 -->
      <defs>
       <path d="M 31.78125 34.625 
Q 24.75 34.625 20.71875 30.859375 
Q 16.703125 27.09375 16.703125 20.515625 
Q 16.703125 13.921875 20.71875 10.15625 
Q 24.75 6.390625 31.78125 6.390625 
Q 38.8125 6.390625 42.859375 10.171875 
Q 46.921875 13.96875 46.921875 20.515625 
Q 46.921875 27.09375 42.890625 30.859375 
Q 38.875 34.625 31.78125 34.625 
z
M 21.921875 38.8125 
Q 15.578125 40.375 12.03125 44.71875 
Q 8.5 49.078125 8.5 55.328125 
Q 8.5 64.0625 14.71875 69.140625 
Q 20.953125 74.21875 31.78125 74.21875 
Q 42.671875 74.21875 48.875 69.140625 
Q 55.078125 64.0625 55.078125 55.328125 
Q 55.078125 49.078125 51.53125 44.71875 
Q 48 40.375 41.703125 38.8125 
Q 48.828125 37.15625 52.796875 32.3125 
Q 56.78125 27.484375 56.78125 20.515625 
Q 56.78125 9.90625 50.3125 4.234375 
Q 43.84375 -1.421875 31.78125 -1.421875 
Q 19.734375 -1.421875 13.25 4.234375 
Q 6.78125 9.90625 6.78125 20.515625 
Q 6.78125 27.484375 10.78125 32.3125 
Q 14.796875 37.15625 21.921875 38.8125 
z
M 18.3125 54.390625 
Q 18.3125 48.734375 21.84375 45.5625 
Q 25.390625 42.390625 31.78125 42.390625 
Q 38.140625 42.390625 41.71875 45.5625 
Q 45.3125 48.734375 45.3125 54.390625 
Q 45.3125 60.0625 41.71875 63.234375 
Q 38.140625 66.40625 31.78125 66.40625 
Q 25.390625 66.40625 21.84375 63.234375 
Q 18.3125 60.0625 18.3125 54.390625 
z
" id="DejaVuSans-38"/>
      </defs>
      <g transform="translate(23.675 72.812396)scale(0.16 -0.16)">
       <use xlink:href="#DejaVuSans-30"/>
       <use x="63.623047" xlink:href="#DejaVuSans-2e"/>
       <use x="95.410156" xlink:href="#DejaVuSans-38"/>
      </g>
     </g>
    </g>
    <g id="ytick_6">
     <g id="line2d_39">
      <path clip-path="url(#pc4d372677d)" d="M 56.12 9.697057 
L 333.168 9.697057 
" style="fill:none;stroke:#b0b0b0;stroke-linecap:square;stroke-width:0.8;"/>
     </g>
     <g id="line2d_40">
      <g>
       <use style="stroke:#000000;stroke-width:0.8;" x="56.12" xlink:href="#mc73d468d6b" y="9.697057"/>
      </g>
     </g>
     <g id="text_11">
      <!-- 1.0 -->
      <g transform="translate(23.675 15.775807)scale(0.16 -0.16)">
       <use xlink:href="#DejaVuSans-31"/>
       <use x="63.623047" xlink:href="#DejaVuSans-2e"/>
       <use x="95.410156" xlink:href="#DejaVuSans-30"/>
      </g>
     </g>
    </g>
    <g id="text_12">
     <!-- Fraction of function,target pairs -->
     <defs>
      <path d="M 9.8125 72.90625 
L 51.703125 72.90625 
L 51.703125 64.59375 
L 19.671875 64.59375 
L 19.671875 43.109375 
L 48.578125 43.109375 
L 48.578125 34.8125 
L 19.671875 34.8125 
L 19.671875 0 
L 9.8125 0 
z
" id="DejaVuSans-46"/>
      <path d="M 41.109375 46.296875 
Q 39.59375 47.171875 37.8125 47.578125 
Q 36.03125 48 33.890625 48 
Q 26.265625 48 22.1875 43.046875 
Q 18.109375 38.09375 18.109375 28.8125 
L 18.109375 0 
L 9.078125 0 
L 9.078125 54.6875 
L 18.109375 54.6875 
L 18.109375 46.1875 
Q 20.953125 51.171875 25.484375 53.578125 
Q 30.03125 56 36.53125 56 
Q 37.453125 56 38.578125 55.875 
Q 39.703125 55.765625 41.0625 55.515625 
z
" id="DejaVuSans-72"/>
      <path d="M 48.78125 52.59375 
L 48.78125 44.1875 
Q 44.96875 46.296875 41.140625 47.34375 
Q 37.3125 48.390625 33.40625 48.390625 
Q 24.65625 48.390625 19.8125 42.84375 
Q 14.984375 37.3125 14.984375 27.296875 
Q 14.984375 17.28125 19.8125 11.734375 
Q 24.65625 6.203125 33.40625 6.203125 
Q 37.3125 6.203125 41.140625 7.25 
Q 44.96875 8.296875 48.78125 10.40625 
L 48.78125 2.09375 
Q 45.015625 0.34375 40.984375 -0.53125 
Q 36.96875 -1.421875 32.421875 -1.421875 
Q 20.0625 -1.421875 12.78125 6.34375 
Q 5.515625 14.109375 5.515625 27.296875 
Q 5.515625 40.671875 12.859375 48.328125 
Q 20.21875 56 33.015625 56 
Q 37.15625 56 41.109375 55.140625 
Q 45.0625 54.296875 48.78125 52.59375 
z
" id="DejaVuSans-63"/>
      <path d="M 18.3125 70.21875 
L 18.3125 54.6875 
L 36.8125 54.6875 
L 36.8125 47.703125 
L 18.3125 47.703125 
L 18.3125 18.015625 
Q 18.3125 11.328125 20.140625 9.421875 
Q 21.96875 7.515625 27.59375 7.515625 
L 36.8125 7.515625 
L 36.8125 0 
L 27.59375 0 
Q 17.1875 0 13.234375 3.875 
Q 9.28125 7.765625 9.28125 18.015625 
L 9.28125 47.703125 
L 2.6875 47.703125 
L 2.6875 54.6875 
L 9.28125 54.6875 
L 9.28125 70.21875 
z
" id="DejaVuSans-74"/>
      <path d="M 8.5 21.578125 
L 8.5 54.6875 
L 17.484375 54.6875 
L 17.484375 21.921875 
Q 17.484375 14.15625 20.5 10.265625 
Q 23.53125 6.390625 29.59375 6.390625 
Q 36.859375 6.390625 41.078125 11.03125 
Q 45.3125 15.671875 45.3125 23.6875 
L 45.3125 54.6875 
L 54.296875 54.6875 
L 54.296875 0 
L 45.3125 0 
L 45.3125 8.40625 
Q 42.046875 3.421875 37.71875 1 
Q 33.40625 -1.421875 27.6875 -1.421875 
Q 18.265625 -1.421875 13.375 4.4375 
Q 8.5 10.296875 8.5 21.578125 
z
M 31.109375 56 
z
" id="DejaVuSans-75"/>
      <path d="M 11.71875 12.40625 
L 22.015625 12.40625 
L 22.015625 4 
L 14.015625 -11.625 
L 7.71875 -11.625 
L 11.71875 4 
z
" id="DejaVuSans-2c"/>
      <path d="M 18.109375 8.203125 
L 18.109375 -20.796875 
L 9.078125 -20.796875 
L 9.078125 54.6875 
L 18.109375 54.6875 
L 18.109375 46.390625 
Q 20.953125 51.265625 25.265625 53.625 
Q 29.59375 56 35.59375 56 
Q 45.5625 56 51.78125 48.09375 
Q 58.015625 40.1875 58.015625 27.296875 
Q 58.015625 14.40625 51.78125 6.484375 
Q 45.5625 -1.421875 35.59375 -1.421875 
Q 29.59375 -1.421875 25.265625 0.953125 
Q 20.953125 3.328125 18.109375 8.203125 
z
M 48.6875 27.296875 
Q 48.6875 37.203125 44.609375 42.84375 
Q 40.53125 48.484375 33.40625 48.484375 
Q 26.265625 48.484375 22.1875 42.84375 
Q 18.109375 37.203125 18.109375 27.296875 
Q 18.109375 17.390625 22.1875 11.75 
Q 26.265625 6.109375 33.40625 6.109375 
Q 40.53125 6.109375 44.609375 11.75 
Q 48.6875 17.390625 48.6875 27.296875 
z
" id="DejaVuSans-70"/>
     </defs>
     <g transform="translate(16.139531 286.001989)rotate(-90)scale(0.17 -0.17)">
      <use xlink:href="#DejaVuSans-46"/>
      <use x="57.410156" xlink:href="#DejaVuSans-72"/>
      <use x="98.523438" xlink:href="#DejaVuSans-61"/>
      <use x="159.802734" xlink:href="#DejaVuSans-63"/>
      <use x="214.783203" xlink:href="#DejaVuSans-74"/>
      <use x="253.992188" xlink:href="#DejaVuSans-69"/>
      <use x="281.775391" xlink:href="#DejaVuSans-6f"/>
      <use x="342.957031" xlink:href="#DejaVuSans-6e"/>
      <use x="406.335938" xlink:href="#DejaVuSans-20"/>
      <use x="438.123047" xlink:href="#DejaVuSans-6f"/>
      <use x="499.304688" xlink:href="#DejaVuSans-66"/>
      <use x="534.509766" xlink:href="#DejaVuSans-20"/>
      <use x="566.296875" xlink:href="#DejaVuSans-66"/>
      <use x="601.501953" xlink:href="#DejaVuSans-75"/>
      <use x="664.880859" xlink:href="#DejaVuSans-6e"/>
      <use x="728.259766" xlink:href="#DejaVuSans-63"/>
      <use x="783.240234" xlink:href="#DejaVuSans-74"/>
      <use x="822.449219" xlink:href="#DejaVuSans-69"/>
      <use x="850.232422" xlink:href="#DejaVuSans-6f"/>
      <use x="911.414062" xlink:href="#DejaVuSans-6e"/>
      <use x="974.792969" xlink:href="#DejaVuSans-2c"/>
      <use x="1006.580078" xlink:href="#DejaVuSans-74"/>
      <use x="1045.789062" xlink:href="#DejaVuSans-61"/>
      <use x="1107.068359" xlink:href="#DejaVuSans-72"/>
      <use x="1148.166016" xlink:href="#DejaVuSans-67"/>
      <use x="1211.642578" xlink:href="#DejaVuSans-65"/>
      <use x="1273.166016" xlink:href="#DejaVuSans-74"/>
      <use x="1312.375" xlink:href="#DejaVuSans-20"/>
      <use x="1344.162109" xlink:href="#DejaVuSans-70"/>
      <use x="1407.638672" xlink:href="#DejaVuSans-61"/>
      <use x="1468.917969" xlink:href="#DejaVuSans-69"/>
      <use x="1496.701172" xlink:href="#DejaVuSans-72"/>
      <use x="1537.814453" xlink:href="#DejaVuSans-73"/>
     </g>
    </g>
   </g>
   <g id="line2d_41">
    <defs>
     <path d="M 0 1.5 
C 0.397805 1.5 0.77937 1.341951 1.06066 1.06066 
C 1.341951 0.77937 1.5 0.397805 1.5 0 
C 1.5 -0.397805 1.341951 -0.77937 1.06066 -1.06066 
C 0.77937 -1.341951 0.397805 -1.5 0 -1.5 
C -0.397805 -1.5 -0.77937 -1.341951 -1.06066 -1.06066 
C -1.341951 -0.77937 -1.5 -0.397805 -1.5 0 
C -1.5 0.397805 -1.341951 0.77937 -1.06066 1.06066 
C -0.77937 1.341951 -0.397805 1.5 0 1.5 
z
" id="md439395ab2" style="stroke:#f5deb3;"/>
    </defs>
    <g>
     <use style="fill:#f5deb3;stroke:#f5deb3;" x="162.774798" xlink:href="#md439395ab2" y="9.697057"/>
     <use style="fill:#f5deb3;stroke:#f5deb3;" x="162.774798" xlink:href="#md439395ab2" y="9.697057"/>
    </g>
   </g>
   <g id="line2d_42">
    <defs>
     <path d="M 0 1.5 
C 0.397805 1.5 0.77937 1.341951 1.06066 1.06066 
C 1.341951 0.77937 1.5 0.397805 1.5 0 
C 1.5 -0.397805 1.341951 -0.77937 1.06066 -1.06066 
C 0.77937 -1.341951 0.397805 -1.5 0 -1.5 
C -0.397805 -1.5 -0.77937 -1.341951 -1.06066 -1.06066 
C -1.341951 -0.77937 -1.5 -0.397805 -1.5 0 
C -1.5 0.397805 -1.341951 0.77937 -1.06066 1.06066 
C -0.77937 1.341951 -0.397805 1.5 0 1.5 
z
" id="m9c68b6ec3a" style="stroke:#000080;"/>
    </defs>
    <g>
     <use style="fill:#000080;stroke:#000080;" x="217.736048" xlink:href="#m9c68b6ec3a" y="206.529206"/>
     <use style="fill:#000080;stroke:#000080;" x="217.736048" xlink:href="#m9c68b6ec3a" y="206.529206"/>
    </g>
   </g>
   <g id="line2d_43">
    <path d="M 28.455965 294.88 
L 28.455965 290.630215 
L 89.069276 290.630215 
L 89.069276 290.518379 
L 90.05175 290.518379 
L 90.05175 290.406542 
L 90.981092 290.406542 
L 90.981092 290.294706 
L 91.862754 290.294706 
L 91.862754 290.182869 
L 95.351029 290.182869 
L 95.351029 290.071033 
L 96.372436 290.071033 
L 96.372436 289.735523 
L 97.646251 289.735523 
L 97.646251 289.623687 
L 98.543252 289.623687 
L 98.543252 289.51185 
L 99.395756 289.51185 
L 99.395756 289.400014 
L 99.941473 289.400014 
L 99.941473 289.288178 
L 100.207968 289.288178 
L 100.207968 289.176341 
L 100.983527 289.176341 
L 100.983527 289.064505 
L 101.23446 289.064505 
L 101.23446 288.617159 
L 101.481783 288.617159 
L 101.481783 288.393486 
L 101.725597 288.393486 
L 101.725597 288.28165 
L 101.966002 288.28165 
L 101.966002 288.169813 
L 102.20309 288.169813 
L 102.20309 287.610631 
L 102.667676 287.610631 
L 102.667676 287.498794 
L 102.895343 287.498794 
L 102.895343 287.275122 
L 103.341826 287.275122 
L 103.341826 287.163285 
L 105.020098 287.163285 
L 105.020098 287.051449 
L 106.910863 287.051449 
L 106.910863 286.715939 
L 107.26528 286.715939 
L 107.26528 286.492266 
L 108.775496 286.492266 
L 108.775496 286.268593 
L 108.935392 286.268593 
L 108.935392 286.156757 
L 109.250788 286.156757 
L 109.250788 286.044921 
L 109.864733 286.044921 
L 109.864733 285.821248 
L 110.602556 285.821248 
L 110.602556 285.709411 
L 110.88904 285.709411 
L 110.88904 285.597575 
L 111.448069 285.597575 
L 111.448069 285.485738 
L 111.855724 285.485738 
L 111.855724 285.373902 
L 112.253934 285.373902 
L 112.253934 285.262065 
L 112.384646 285.262065 
L 112.384646 285.150229 
L 112.643127 285.150229 
L 112.643127 285.038393 
L 112.770924 285.038393 
L 112.770924 284.81472 
L 113.396034 284.81472 
L 113.396034 284.702883 
L 113.518374 284.702883 
L 113.518374 284.367374 
L 113.760471 284.367374 
L 113.760471 284.255537 
L 113.880253 284.255537 
L 113.880253 284.143701 
L 113.999206 284.143701 
L 113.999206 283.920028 
L 114.466953 283.920028 
L 114.466953 283.808192 
L 114.922307 283.808192 
L 114.922307 283.696355 
L 115.145539 283.696355 
L 115.145539 283.584519 
L 116.010559 283.584519 
L 116.010559 283.472682 
L 116.427273 283.472682 
L 116.427273 283.360846 
L 116.73331 283.360846 
L 116.73331 283.249009 
L 117.905717 283.249009 
L 117.905717 283.137173 
L 120.365424 283.137173 
L 120.365424 283.025336 
L 121.474753 283.025336 
L 121.474753 282.9135 
L 122.003676 282.9135 
L 122.003676 282.801664 
L 122.660646 282.801664 
L 122.660646 282.689827 
L 124.036471 282.689827 
L 124.036471 282.577991 
L 125.000572 282.577991 
L 125.000572 282.466154 
L 125.432625 282.466154 
L 125.432625 282.354318 
L 125.913457 282.354318 
L 125.913457 282.242481 
L 126.090357 282.242481 
L 126.090357 282.130645 
L 126.323427 282.130645 
L 126.381204 281.906972 
L 126.948537 281.906972 
L 126.948537 281.795136 
L 127.05979 281.795136 
L 127.05979 281.683299 
L 127.334814 281.683299 
L 127.334814 281.571463 
L 128.082264 281.571463 
L 128.082264 281.459626 
L 128.748375 281.459626 
L 128.798561 281.235953 
L 128.948245 281.235953 
L 128.948245 281.124117 
L 129.582224 281.124117 
L 129.582224 281.01228 
L 130.100987 281.01228 
L 130.100987 280.900444 
L 130.604552 280.900444 
L 130.604552 280.788608 
L 131.005861 280.788608 
L 131.005861 280.676771 
L 131.654565 280.676771 
L 131.654565 280.564935 
L 132.882847 280.564935 
L 132.922316 280.341262 
L 133.312097 280.341262 
L 133.312097 280.229425 
L 133.541793 280.229425 
L 133.541793 280.117589 
L 133.6555 280.117589 
L 133.6555 280.005752 
L 133.805948 280.005752 
L 133.880682 279.782079 
L 134.139719 279.782079 
L 134.213018 279.558407 
L 134.503128 279.558407 
L 134.503128 279.44657 
L 134.717542 279.44657 
L 134.823755 279.111061 
L 134.929315 279.111061 
L 134.964358 278.775551 
L 135.481607 278.775551 
L 135.549413 278.440042 
L 135.717765 278.440042 
L 135.784647 278.104533 
L 135.884484 278.104533 
L 135.884484 277.992696 
L 136.115208 277.992696 
L 136.115208 277.769023 
L 136.245672 277.769023 
L 136.278134 277.545351 
L 136.407373 277.545351 
L 136.471629 277.098005 
L 136.599426 277.098005 
L 136.66297 276.762495 
L 137.193815 276.762495 
L 137.285815 276.426986 
L 137.407721 276.426986 
L 137.468351 276.091477 
L 137.618997 276.091477 
L 137.678888 275.755967 
L 137.798047 275.755967 
L 137.798047 275.532294 
L 137.975251 275.532294 
L 138.063173 275.196785 
L 138.295455 275.196785 
L 138.381758 274.749439 
L 138.439053 274.749439 
L 138.439053 274.637603 
L 138.553074 274.637603 
L 138.609803 274.41393 
L 138.750809 274.41393 
L 138.834862 274.190257 
L 138.918505 274.190257 
L 138.946296 273.966584 
L 139.276327 273.966584 
L 139.276327 273.854748 
L 139.411992 273.854748 
L 139.519758 273.295566 
L 139.680151 273.295566 
L 139.680151 273.071893 
L 139.839061 273.071893 
L 139.917968 272.400874 
L 139.996515 272.400874 
L 139.996515 272.289037 
L 140.536516 272.289037 
L 140.637478 271.953528 
L 140.762851 271.953528 
L 140.762851 271.841692 
L 140.986245 271.841692 
L 141.035496 271.506182 
L 141.231101 271.506182 
L 141.231101 271.394346 
L 141.352234 271.394346 
L 141.376358 271.170673 
L 141.757814 271.170673 
L 141.757814 271.058837 
L 142.130987 271.058837 
L 142.177069 270.835164 
L 142.496231 270.835164 
L 142.541345 270.611491 
L 142.631221 270.611491 
L 142.631221 270.499654 
L 142.787381 270.499654 
L 142.787381 270.387818 
L 142.942135 270.387818 
L 143.051826 270.164145 
L 143.117307 270.164145 
L 143.22589 269.604963 
L 143.269132 269.604963 
L 143.290712 269.38129 
L 143.547583 269.38129 
L 143.632361 268.933944 
L 143.69567 268.933944 
L 143.758748 268.598435 
L 143.821595 268.598435 
L 143.821595 268.486598 
L 144.029441 268.486598 
L 144.132429 268.151089 
L 144.255205 268.151089 
L 144.316266 267.703743 
L 144.478043 267.703743 
L 144.478043 267.591907 
L 144.598384 267.591907 
L 144.65824 267.256397 
L 144.757539 267.256397 
L 144.797098 266.920888 
L 145.149096 266.920888 
L 145.226349 266.585379 
L 145.322428 266.585379 
L 145.37982 266.249869 
L 145.456044 266.249869 
L 145.550852 265.91436 
L 145.588629 265.91436 
L 145.588629 265.802523 
L 145.77628 265.802523 
L 145.813566 265.467014 
L 145.906427 265.467014 
L 145.99879 265.019668 
L 146.182039 265.019668 
L 146.291058 264.684159 
L 146.327245 264.684159 
L 146.43535 263.901304 
L 146.453301 263.901304 
L 146.542779 263.342122 
L 146.667271 263.342122 
L 146.720349 262.894776 
L 146.790867 262.894776 
L 146.896104 261.888248 
L 147.08738 261.888248 
L 147.139179 261.664575 
L 147.225166 261.664575 
L 147.225166 261.552738 
L 147.412835 261.552738 
L 147.412835 261.440902 
L 148.38588 261.440902 
L 148.417919 261.217229 
L 149.45809 261.217229 
L 149.45809 261.105393 
L 149.904187 261.105393 
L 149.904187 260.993556 
L 150.552348 260.993556 
L 150.608797 260.769883 
L 150.665061 260.769883 
L 150.665061 260.658047 
L 150.777039 260.658047 
L 150.790985 260.434374 
L 151.14967 260.434374 
L 151.231391 260.210701 
L 151.299196 260.210701 
L 151.299196 260.098865 
L 151.48764 260.098865 
L 151.581093 259.763355 
L 151.923823 259.763355 
L 152.01494 259.316009 
L 152.387364 259.316009 
L 152.476064 259.092337 
L 152.501323 259.092337 
L 152.513938 258.868664 
L 152.627063 258.868664 
L 152.627063 258.756827 
L 152.789162 258.756827 
L 152.875817 258.421318 
L 152.986593 258.421318 
L 152.986593 258.309481 
L 153.278551 258.309481 
L 153.302659 257.862136 
L 153.553767 257.862136 
L 153.660271 257.302953 
L 153.754391 257.302953 
L 153.859664 256.743771 
L 154.010595 256.743771 
L 154.102822 256.520098 
L 154.183116 256.520098 
L 154.285803 255.960916 
L 154.365249 255.960916 
L 154.421772 255.401734 
L 154.511824 255.401734 
L 154.567867 255.178061 
L 154.701632 255.178061 
L 154.701632 255.066224 
L 154.944195 255.066224 
L 155.020662 254.842552 
L 155.107638 254.842552 
L 155.107638 254.618879 
L 155.226516 254.618879 
L 155.323172 254.283369 
L 155.387309 254.283369 
L 155.397975 254.059696 
L 155.693974 254.059696 
L 155.767184 253.836024 
L 155.819286 253.836024 
L 155.840083 253.612351 
L 155.964339 253.612351 
L 155.964339 253.500514 
L 156.169456 253.500514 
L 156.169456 253.388678 
L 156.311596 253.388678 
L 156.311596 253.276841 
L 156.522625 253.276841 
L 156.522625 253.165005 
L 156.966291 253.165005 
L 156.966291 253.053168 
L 157.102017 253.053168 
L 157.198312 252.717659 
L 157.313159 252.717659 
L 157.417765 252.38215 
L 157.427243 252.38215 
L 157.512312 251.934804 
L 157.634451 251.934804 
L 157.737126 251.711131 
L 157.802146 251.711131 
L 157.839191 251.487458 
L 157.940653 251.487458 
L 157.940653 251.375622 
L 158.087174 251.375622 
L 158.132707 251.040112 
L 158.286622 251.040112 
L 158.349601 250.704603 
L 158.430236 250.704603 
L 158.519389 250.369094 
L 158.608082 250.369094 
L 158.687516 250.033584 
L 158.731488 250.033584 
L 158.740269 249.809911 
L 158.906259 249.809911 
L 158.992983 249.250729 
L 159.079271 249.250729 
L 159.156562 249.027056 
L 159.25056 249.027056 
L 159.360989 248.691547 
L 159.437026 248.691547 
L 159.437026 248.57971 
L 159.571378 248.57971 
L 159.571378 248.467874 
L 159.812247 248.467874 
L 159.812247 248.356038 
L 160.122845 248.356038 
L 160.122845 248.244201 
L 160.680707 248.244201 
L 160.680707 248.132365 
L 160.852361 248.132365 
L 160.852361 248.020528 
L 161.045364 248.020528 
L 161.152506 247.685019 
L 161.19822 247.685019 
L 161.251401 247.461346 
L 161.394923 247.461346 
L 161.499915 247.125837 
L 161.544716 247.125837 
L 161.60427 246.902164 
L 161.685821 246.902164 
L 161.752257 246.454818 
L 161.898981 246.454818 
L 161.95004 246.231145 
L 162.015466 246.231145 
L 162.116746 246.007472 
L 162.409964 246.007472 
L 162.516002 245.783799 
L 162.614384 245.783799 
L 162.684313 245.44829 
L 162.899304 245.44829 
L 162.981809 245.112781 
L 163.125248 245.112781 
L 163.125248 245.000944 
L 163.375097 245.000944 
L 163.475361 244.665435 
L 163.502 244.665435 
L 163.601529 244.329925 
L 163.64118 244.329925 
L 163.64118 244.218089 
L 163.818486 244.218089 
L 163.818486 244.106253 
L 163.981042 244.106253 
L 164.01337 243.770743 
L 164.174103 243.770743 
L 164.237977 243.435234 
L 164.288907 243.435234 
L 164.377672 243.099724 
L 164.659921 243.099724 
L 164.659921 242.987888 
L 164.870145 242.987888 
L 164.870145 242.876052 
L 165.053524 242.876052 
L 165.120276 242.652379 
L 165.198832 242.652379 
L 165.295027 242.316869 
L 165.354876 242.316869 
L 165.44426 242.093196 
L 165.485815 242.093196 
L 165.485815 241.98136 
L 165.615764 241.98136 
L 165.71551 241.534014 
L 165.768084 241.534014 
L 165.797222 241.310341 
L 165.942177 241.310341 
L 165.999818 240.862996 
L 166.103088 240.862996 
L 166.182982 240.41565 
L 166.487713 240.41565 
L 166.504485 240.191977 
L 166.626983 240.191977 
L 166.693434 239.856467 
L 166.765134 239.856467 
L 166.842016 239.632795 
L 166.945809 239.632795 
L 166.945809 239.520958 
L 167.097634 239.520958 
L 167.146151 239.297285 
L 167.381396 239.297285 
L 167.397319 239.073612 
L 167.665773 239.073612 
L 167.665773 238.961776 
L 167.966064 238.961776 
L 167.996832 238.738103 
L 168.134607 238.738103 
L 168.134607 238.626267 
L 168.286406 238.626267 
L 168.371834 238.290757 
L 168.421889 238.290757 
L 168.511621 237.955248 
L 168.674922 237.955248 
L 168.733922 237.731575 
L 168.787828 237.731575 
L 168.787828 237.619739 
L 168.899997 237.619739 
L 168.996944 237.284229 
L 169.025922 237.284229 
L 169.08854 237.060556 
L 169.232178 237.060556 
L 169.308298 236.836883 
L 169.417132 236.836883 
L 169.417132 236.725047 
L 169.534653 236.725047 
L 169.534653 236.613211 
L 169.822686 236.613211 
L 169.932899 236.165865 
L 169.955771 236.165865 
L 169.974048 235.942192 
L 170.20538 235.942192 
L 170.227893 235.606682 
L 170.548852 235.606682 
L 170.645739 235.0475 
L 170.711487 235.0475 
L 170.82051 234.600154 
L 170.902908 234.600154 
L 170.967682 234.264645 
L 171.117877 234.264645 
L 171.220114 234.040972 
L 171.792356 234.040972 
L 171.792356 233.929136 
L 171.915161 233.929136 
L 171.915161 233.817299 
L 172.065423 233.817299 
L 172.166213 233.593626 
L 172.210374 233.593626 
L 172.210374 233.48179 
L 172.381922 233.48179 
L 172.457181 233.034444 
L 172.543913 233.034444 
L 172.543913 232.922608 
L 172.719967 232.922608 
L 172.789887 232.698935 
L 172.832476 232.698935 
L 172.8518 232.475262 
L 173.15427 232.475262 
L 173.222449 232.251589 
L 173.35425 232.251589 
L 173.440315 231.804243 
L 173.48877 231.804243 
L 173.592674 231.58057 
L 173.64808 231.58057 
L 173.64808 231.468734 
L 173.857007 231.468734 
L 173.965957 231.245061 
L 173.984048 231.245061 
L 174.020174 230.909552 
L 174.196101 230.909552 
L 174.288724 230.574042 
L 174.356096 230.574042 
L 174.45842 230.238533 
L 174.584601 230.238533 
L 174.650825 230.01486 
L 174.734114 230.01486 
L 174.844541 229.343841 
L 174.854857 229.343841 
L 174.854857 229.232005 
L 175.032696 229.232005 
L 175.083655 229.008332 
L 175.175003 229.008332 
L 175.205345 228.784659 
L 175.359595 228.784659 
L 175.359595 228.672823 
L 175.492608 228.672823 
L 175.492608 228.560986 
L 175.627888 228.560986 
L 175.726202 228.225477 
L 175.791434 228.225477 
L 175.840197 228.001804 
L 175.904998 228.001804 
L 176.004961 227.778131 
L 176.133091 227.778131 
L 176.206336 227.442622 
L 176.424216 227.442622 
L 176.424216 227.330785 
L 177.016348 227.330785 
L 177.091969 226.995276 
L 177.295991 226.995276 
L 177.295991 226.88344 
L 177.524129 226.88344 
L 177.562349 226.659767 
L 177.862201 226.659767 
L 177.934198 226.324257 
L 178.085842 226.324257 
L 178.102926 226.100584 
L 178.480094 226.100584 
L 178.566184 225.876911 
L 178.632538 225.876911 
L 178.742564 225.653239 
L 178.789112 225.653239 
L 178.789112 225.541402 
L 178.906292 225.541402 
L 178.906292 225.429566 
L 179.098044 225.429566 
L 179.17308 225.205893 
L 179.375114 225.205893 
L 179.454215 224.98222 
L 179.582636 224.98222 
L 179.678975 224.534874 
L 179.81604 224.534874 
L 179.86748 224.311201 
L 179.972452 224.311201 
L 180.064098 223.975692 
L 180.170404 223.975692 
L 180.261004 223.752019 
L 180.38854 223.752019 
L 180.38854 223.640183 
L 180.537382 223.640183 
L 180.537382 223.528346 
L 180.650628 223.528346 
L 180.743619 223.081 
L 180.84339 223.081 
L 180.88459 222.857327 
L 181.017209 222.857327 
L 181.11541 222.633654 
L 181.189288 222.633654 
L 181.241526 222.298145 
L 181.321946 222.298145 
L 181.359661 222.074472 
L 181.560974 222.074472 
L 181.560974 221.962636 
L 181.686185 221.962636 
L 181.686185 221.850799 
L 181.956661 221.850799 
L 182.01569 221.627126 
L 182.101599 221.627126 
L 182.184837 221.403454 
L 182.220708 221.403454 
L 182.265441 221.179781 
L 182.429948 221.179781 
L 182.429948 221.067944 
L 182.595087 221.067944 
L 182.662883 220.844271 
L 182.853894 220.844271 
L 182.853894 220.732435 
L 183.053477 220.732435 
L 183.125869 220.396926 
L 183.353815 220.396926 
L 183.353815 220.285089 
L 183.466665 220.285089 
L 183.466665 220.173253 
L 183.665476 220.173253 
L 183.696333 219.94958 
L 183.847758 219.94958 
L 183.922973 219.725907 
L 183.963493 219.725907 
L 183.963493 219.61407 
L 184.184662 219.61407 
L 184.246481 219.278561 
L 184.38526 219.278561 
L 184.483706 218.943052 
L 184.973377 218.943052 
L 185.078007 218.719379 
L 185.14048 218.719379 
L 185.245978 218.383869 
L 185.326548 218.383869 
L 185.326548 218.272033 
L 185.468035 218.272033 
L 185.521717 217.936524 
L 185.705555 217.936524 
L 185.76397 217.712851 
L 185.96147 217.712851 
L 185.96147 217.601014 
L 186.138905 217.601014 
L 186.174529 217.265505 
L 186.348028 217.265505 
L 186.348028 217.153669 
L 187.002994 217.153669 
L 187.002994 217.041832 
L 187.14484 217.041832 
L 187.14484 216.929996 
L 187.298864 216.929996 
L 187.298864 216.818159 
L 187.743082 216.818159 
L 187.843487 216.594486 
L 188.020194 216.594486 
L 188.058508 216.258977 
L 188.789053 216.258977 
L 188.789053 216.14714 
L 189.046918 216.14714 
L 189.156472 215.811631 
L 189.184871 215.811631 
L 189.184871 215.587958 
L 189.345417 215.587958 
L 189.369074 215.252449 
L 189.565938 215.252449 
L 189.565938 215.140612 
L 189.688205 215.140612 
L 189.718636 214.91694 
L 189.87286 214.91694 
L 189.87286 214.805103 
L 190.326001 214.805103 
L 190.370665 214.469594 
L 190.802881 214.469594 
L 190.802881 214.357757 
L 191.107375 214.357757 
L 191.107375 214.245921 
L 191.458985 214.245921 
L 191.458985 214.134084 
L 191.867549 214.134084 
L 191.867549 214.022248 
L 192.292823 214.022248 
L 192.292823 213.910412 
L 192.426916 213.910412 
L 192.426916 213.798575 
L 192.789156 213.798575 
L 192.825447 213.574902 
L 193.049949 213.574902 
L 193.055912 213.351229 
L 193.233838 213.351229 
L 193.283328 213.127556 
L 193.548376 213.127556 
L 193.653491 212.903883 
L 193.725889 212.903883 
L 193.725889 212.792047 
L 194.150629 212.792047 
L 194.150629 212.680211 
L 194.323168 212.680211 
L 194.408241 212.456538 
L 194.588045 212.456538 
L 194.646839 212.232865 
L 195.012477 212.232865 
L 195.081501 212.009192 
L 195.36216 212.009192 
L 195.36216 211.897355 
L 195.488891 211.897355 
L 195.488891 211.785519 
L 195.882802 211.785519 
L 195.882802 211.673683 
L 196.037874 211.673683 
L 196.037874 211.561846 
L 196.310368 211.561846 
L 196.310368 211.45001 
L 196.540683 211.45001 
L 196.540683 211.338173 
L 197.33959 211.338173 
L 197.33959 211.226337 
L 197.699166 211.226337 
L 197.699166 211.1145 
L 197.852285 211.1145 
L 197.903622 210.778991 
L 198.022817 210.778991 
L 198.022817 210.667155 
L 199.142135 210.667155 
L 199.248912 210.443482 
L 199.830247 210.443482 
L 199.892041 210.219809 
L 200.049132 210.219809 
L 200.049132 210.107972 
L 200.467872 210.107972 
L 200.467872 209.996136 
L 200.583683 209.996136 
L 200.599834 209.772463 
L 201.068479 209.772463 
L 201.068479 209.660626 
L 201.51594 209.660626 
L 201.595202 209.436954 
L 201.666155 209.436954 
L 201.687095 209.213281 
L 202.872074 209.213281 
L 202.872074 209.101444 
L 203.022294 209.101444 
L 203.047648 208.877771 
L 203.71395 208.877771 
L 203.742147 208.654098 
L 203.949632 208.654098 
L 203.981866 208.430426 
L 204.461945 208.430426 
L 204.469312 208.206753 
L 205.647592 208.206753 
L 205.70481 207.98308 
L 205.870236 207.98308 
L 205.870236 207.871243 
L 208.290598 207.871243 
L 208.290598 207.759407 
L 208.61048 207.759407 
L 208.61048 207.64757 
L 209.162059 207.64757 
L 209.162059 207.535734 
L 209.783215 207.535734 
L 209.783215 207.423898 
L 209.995022 207.423898 
L 210.011036 207.200225 
L 210.781402 207.200225 
L 210.890319 206.976552 
L 211.517089 206.976552 
L 211.517089 206.864715 
L 212.660676 206.864715 
L 212.660676 206.752879 
L 214.586808 206.752879 
L 214.586808 206.641042 
L 217.736048 206.641042 
L 217.736048 206.529206 
L 333.168 206.529206 
L 333.168 206.529206 
" style="fill:none;stroke:#000080;stroke-linecap:square;stroke-width:1.5;"/>
   </g>
   <g id="line2d_44">
    <defs>
     <path d="M 0 6 
C 1.591219 6 3.117479 5.367802 4.242641 4.242641 
C 5.367802 3.117479 6 1.591219 6 0 
C 6 -1.591219 5.367802 -3.117479 4.242641 -4.242641 
C 3.117479 -5.367802 1.591219 -6 0 -6 
C -1.591219 -6 -3.117479 -5.367802 -4.242641 -4.242641 
C -5.367802 -3.117479 -6 -1.591219 -6 0 
C -6 1.591219 -5.367802 3.117479 -4.242641 4.242641 
C -3.117479 5.367802 -1.591219 6 0 6 
z
" id="m3e19787e43" style="stroke:#000080;stroke-width:1.5;"/>
    </defs>
    <g>
     <use style="fill:none;stroke:#000080;stroke-width:1.5;" x="145.588629" xlink:href="#m3e19787e43" y="265.91436"/>
     <use style="fill:none;stroke:#000080;stroke-width:1.5;" x="191.107375" xlink:href="#m3e19787e43" y="214.357757"/>
     <use style="fill:none;stroke:#000080;stroke-width:1.5;" x="217.736048" xlink:href="#m3e19787e43" y="206.641042"/>
     <use style="fill:none;stroke:#000080;stroke-width:1.5;" x="217.736048" xlink:href="#m3e19787e43" y="206.529206"/>
     <use style="fill:none;stroke:#000080;stroke-width:1.5;" x="333.168" xlink:href="#m3e19787e43" y="206.529206"/>
    </g>
   </g>
   <g id="line2d_45">
    <path style="fill:none;stroke:#000080;stroke-linecap:square;stroke-width:1.5;"/>
    <g/>
   </g>
   <g id="line2d_46">
    <path clip-path="url(#pc4d372677d)" d="M 142.541345 270.611491 
" style="fill:none;stroke:#000080;stroke-linecap:square;stroke-width:1.5;"/>
    <defs>
     <path d="M -12 12 
L 12 -12 
M -12 -12 
L 12 12 
" id="me814e38fdc" style="stroke:#000080;"/>
    </defs>
    <g clip-path="url(#pc4d372677d)">
     <use style="fill:#000080;stroke:#000080;" x="142.541345" xlink:href="#me814e38fdc" y="270.611491"/>
    </g>
   </g>
   <g id="line2d_47">
    <defs>
     <path d="M 0 1.5 
C 0.397805 1.5 0.77937 1.341951 1.06066 1.06066 
C 1.341951 0.77937 1.5 0.397805 1.5 0 
C 1.5 -0.397805 1.341951 -0.77937 1.06066 -1.06066 
C 0.77937 -1.341951 0.397805 -1.5 0 -1.5 
C -0.397805 -1.5 -0.77937 -1.341951 -1.06066 -1.06066 
C -1.341951 -0.77937 -1.5 -0.397805 -1.5 0 
C -1.5 0.397805 -1.341951 0.77937 -1.06066 1.06066 
C -0.77937 1.341951 -0.397805 1.5 0 1.5 
z
" id="md5e98543a2" style="stroke:#ff00ff;"/>
    </defs>
    <g>
     <use style="fill:#ff00ff;stroke:#ff00ff;" x="212.611441" xlink:href="#md5e98543a2" y="206.529206"/>
     <use style="fill:#ff00ff;stroke:#ff00ff;" x="212.611441" xlink:href="#md5e98543a2" y="206.529206"/>
    </g>
   </g>
   <g id="line2d_48">
    <path d="M 28.455965 294.88 
L 28.455965 290.182869 
L 89.069276 290.182869 
L 89.069276 290.071033 
L 90.05175 290.071033 
L 90.05175 289.959196 
L 91.862754 289.959196 
L 91.862754 289.84736 
L 96.372436 289.84736 
L 96.372436 289.623687 
L 97.646251 289.623687 
L 97.646251 289.51185 
L 98.543252 289.51185 
L 98.543252 289.288178 
L 100.207968 289.288178 
L 100.207968 289.176341 
L 100.470395 289.176341 
L 100.470395 289.064505 
L 100.728876 289.064505 
L 100.728876 288.952668 
L 100.983527 288.952668 
L 100.983527 288.840832 
L 101.23446 288.840832 
L 101.23446 288.393486 
L 101.481783 288.393486 
L 101.481783 288.169813 
L 101.725597 288.169813 
L 101.725597 288.057977 
L 101.966002 288.057977 
L 101.966002 287.834304 
L 102.20309 287.834304 
L 102.20309 287.275122 
L 102.667676 287.275122 
L 102.667676 287.163285 
L 102.895343 287.163285 
L 102.895343 286.827776 
L 103.341826 286.827776 
L 103.341826 286.715939 
L 103.777005 286.715939 
L 103.777005 286.604103 
L 105.801534 286.604103 
L 105.801534 286.492266 
L 106.548983 286.492266 
L 106.548983 286.38043 
L 106.910863 286.38043 
L 106.910863 286.044921 
L 107.26528 286.044921 
L 107.26528 285.933084 
L 107.952917 285.933084 
L 107.952917 285.821248 
L 108.775496 285.821248 
L 108.775496 285.597575 
L 109.250788 285.597575 
L 109.250788 285.485738 
L 109.864733 285.485738 
L 109.864733 285.262065 
L 110.163674 285.262065 
L 110.163674 285.150229 
L 110.88904 285.150229 
L 110.88904 285.038393 
L 111.030511 285.038393 
L 111.030511 284.926556 
L 111.310007 284.926556 
L 111.310007 284.81472 
L 111.585031 284.81472 
L 111.585031 284.702883 
L 111.855724 284.702883 
L 111.855724 284.591047 
L 111.989488 284.591047 
L 111.989488 284.47921 
L 112.253934 284.47921 
L 112.253934 284.367374 
L 112.384646 284.367374 
L 112.384646 284.143701 
L 112.643127 284.143701 
L 112.643127 284.031865 
L 112.770924 284.031865 
L 112.770924 283.808192 
L 113.396034 283.808192 
L 113.396034 283.696355 
L 113.518374 283.696355 
L 113.518374 283.584519 
L 113.880253 283.584519 
L 113.880253 283.472682 
L 114.466953 283.472682 
L 114.466953 283.360846 
L 114.922307 283.360846 
L 114.922307 283.137173 
L 115.145539 283.137173 
L 115.145539 283.025336 
L 116.010559 283.025336 
L 116.115688 282.801664 
L 121.474753 282.801664 
L 121.474753 282.689827 
L 123.836987 282.689827 
L 123.836987 282.577991 
L 124.363883 282.577991 
L 124.363883 282.466154 
L 124.685175 282.466154 
L 124.685175 282.354318 
L 125.000572 282.354318 
L 125.000572 282.242481 
L 125.432625 282.242481 
L 125.432625 282.130645 
L 125.854083 282.130645 
L 125.854083 282.018808 
L 126.090357 282.018808 
L 126.090357 281.906972 
L 126.948537 281.906972 
L 126.948537 281.795136 
L 127.05979 281.795136 
L 127.05979 281.683299 
L 127.334814 281.683299 
L 127.334814 281.571463 
L 127.551708 281.571463 
L 127.659138 281.34779 
L 128.444143 281.34779 
L 128.444143 281.235953 
L 128.798561 281.235953 
L 128.798561 281.124117 
L 129.243759 281.124117 
L 129.243759 281.01228 
L 129.582224 281.01228 
L 129.582224 280.900444 
L 130.100987 280.900444 
L 130.100987 280.788608 
L 130.604552 280.788608 
L 130.604552 280.676771 
L 131.005861 280.676771 
L 131.005861 280.564935 
L 131.354881 280.564935 
L 131.354881 280.453098 
L 131.654565 280.453098 
L 131.654565 280.341262 
L 132.402015 280.341262 
L 132.442602 280.117589 
L 132.882847 280.117589 
L 132.922316 279.893916 
L 133.312097 279.893916 
L 133.312097 279.782079 
L 133.617681 279.782079 
L 133.693236 279.44657 
L 133.880682 279.44657 
L 133.917927 278.999224 
L 134.029181 278.999224 
L 134.139719 278.775551 
L 134.213018 278.775551 
L 134.213018 278.663715 
L 134.503128 278.663715 
L 134.503128 278.440042 
L 134.788423 278.440042 
L 134.788423 278.328206 
L 134.929315 278.328206 
L 134.964358 277.992696 
L 135.06906 277.992696 
L 135.173129 277.769023 
L 135.481607 277.769023 
L 135.549413 277.545351 
L 135.616951 277.545351 
L 135.616951 277.433514 
L 135.784647 277.433514 
L 135.884484 277.098005 
L 136.245672 277.098005 
L 136.245672 276.986168 
L 136.407373 276.986168 
L 136.471629 276.762495 
L 136.599426 276.762495 
L 136.599426 276.538822 
L 136.883542 276.538822 
L 136.946047 276.31515 
L 137.193815 276.31515 
L 137.285815 275.867804 
L 137.377325 275.867804 
L 137.468351 275.420458 
L 137.678888 275.420458 
L 137.678888 275.308622 
L 137.798047 275.308622 
L 137.798047 275.196785 
L 137.975251 275.196785 
L 138.063173 274.973112 
L 138.266591 274.973112 
L 138.295455 274.749439 
L 138.381758 274.749439 
L 138.410429 274.41393 
L 138.553074 274.41393 
L 138.609803 274.190257 
L 138.666344 274.190257 
L 138.750809 273.854748 
L 138.834862 273.854748 
L 138.834862 273.742911 
L 138.946296 273.742911 
L 138.946296 273.631075 
L 139.46596 273.631075 
L 139.519758 273.407402 
L 139.680151 273.407402 
L 139.680151 273.183729 
L 139.839061 273.183729 
L 139.917968 272.51271 
L 139.996515 272.51271 
L 140.022618 272.177201 
L 140.332797 272.177201 
L 140.434959 271.953528 
L 140.460404 271.953528 
L 140.511183 271.729855 
L 140.587071 271.729855 
L 140.637478 271.506182 
L 140.762851 271.506182 
L 140.837639 271.282509 
L 140.986245 271.282509 
L 140.986245 271.170673 
L 141.206772 271.170673 
L 141.206772 271.058837 
L 141.352234 271.058837 
L 141.352234 270.947 
L 141.757814 270.947 
L 141.757814 270.835164 
L 142.496231 270.835164 
L 142.586342 270.611491 
L 142.631221 270.611491 
L 142.631221 270.499654 
L 142.942135 270.499654 
L 143.008034 270.275981 
L 143.117307 270.275981 
L 143.22589 269.828636 
L 143.269132 269.828636 
L 143.269132 269.716799 
L 143.547583 269.716799 
L 143.632361 269.157617 
L 143.69567 269.157617 
L 143.69567 269.04578 
L 143.821595 269.04578 
L 143.821595 268.933944 
L 144.029441 268.933944 
L 144.132429 268.598435 
L 144.295937 268.598435 
L 144.316266 268.374762 
L 144.457904 268.374762 
L 144.538318 268.151089 
L 144.578385 268.151089 
L 144.65824 267.591907 
L 144.717888 267.591907 
L 144.816844 267.144561 
L 145.013063 267.144561 
L 145.071495 266.920888 
L 145.149096 266.920888 
L 145.226349 266.697215 
L 145.322428 266.697215 
L 145.37982 266.361706 
L 145.456044 266.361706 
L 145.512992 266.138033 
L 145.588629 266.138033 
L 145.588629 266.026196 
L 145.77628 266.026196 
L 145.85077 265.467014 
L 145.906427 265.467014 
L 145.99879 265.019668 
L 146.090659 265.019668 
L 146.182039 264.684159 
L 146.236635 264.684159 
L 146.34531 264.236813 
L 146.363355 264.236813 
L 146.471234 263.342122 
L 146.507044 263.342122 
L 146.57844 262.894776 
L 146.667271 262.894776 
L 146.720349 262.559266 
L 146.790867 262.559266 
L 146.861096 262.000084 
L 146.913581 262.000084 
L 147.018071 261.664575 
L 147.070079 261.664575 
L 147.139179 261.440902 
L 147.190823 261.440902 
L 147.225166 261.217229 
L 147.881493 261.217229 
L 147.947413 260.993556 
L 148.192385 260.993556 
L 148.192385 260.88172 
L 149.443019 260.88172 
L 149.488193 260.658047 
L 149.874805 260.658047 
L 149.874805 260.54621 
L 150.324681 260.54621 
L 150.324681 260.434374 
L 150.608797 260.434374 
L 150.608797 260.322538 
L 150.763082 260.322538 
L 150.763082 260.210701 
L 150.902149 260.210701 
L 150.985052 259.875192 
L 151.094972 259.875192 
L 151.108663 259.651519 
L 151.447433 259.651519 
L 151.447433 259.539682 
L 151.819093 259.539682 
L 151.819093 259.427846 
L 152.01494 259.427846 
L 152.01494 259.204173 
L 152.247048 259.204173 
L 152.247048 259.092337 
L 152.513938 259.092337 
L 152.589437 258.756827 
L 152.652101 258.756827 
L 152.68959 258.533154 
L 152.764323 258.533154 
L 152.764323 258.421318 
L 152.900496 258.421318 
L 152.986593 258.085809 
L 153.02336 258.085809 
L 153.121023 257.862136 
L 153.181782 257.862136 
L 153.181782 257.750299 
L 153.3147 257.750299 
L 153.3147 257.638463 
L 153.506219 257.638463 
L 153.530009 257.41479 
L 153.695627 257.41479 
L 153.789554 257.079281 
L 153.824645 257.079281 
L 153.824645 256.967444 
L 154.010595 256.967444 
L 154.102822 256.520098 
L 154.205988 256.520098 
L 154.251642 256.072752 
L 154.511824 256.072752 
L 154.545472 255.737243 
L 154.668288 255.737243 
L 154.74599 255.51357 
L 155.064205 255.51357 
L 155.140141 254.954388 
L 155.215743 254.954388 
L 155.237283 254.730715 
L 155.397975 254.730715 
L 155.419288 254.507042 
L 155.798464 254.507042 
L 155.840083 254.283369 
L 156.067204 254.283369 
L 156.067204 254.171533 
L 156.422458 254.171533 
L 156.472615 253.836024 
L 156.681688 253.836024 
L 156.760671 253.500514 
L 156.800027 253.500514 
L 156.888249 253.276841 
L 156.917557 253.276841 
L 157.024591 253.053168 
L 157.102017 253.053168 
L 157.198312 252.829495 
L 157.303617 252.829495 
L 157.303617 252.717659 
L 157.737126 252.717659 
L 157.737126 252.605823 
L 157.913041 252.605823 
L 157.913041 252.493986 
L 158.04152 252.493986 
L 158.150886 251.934804 
L 158.205309 251.934804 
L 158.30464 251.487458 
L 158.448103 251.487458 
L 158.519389 251.040112 
L 158.616926 251.040112 
L 158.616926 250.816439 
L 158.731488 250.816439 
L 158.740269 250.369094 
L 158.845291 250.369094 
L 158.949676 249.698075 
L 158.967012 249.698075 
L 159.044808 249.362566 
L 159.079271 249.362566 
L 159.079271 249.250729 
L 159.276106 249.250729 
L 159.352519 248.91522 
L 159.420158 248.91522 
L 159.437026 248.691547 
L 159.588099 248.691547 
L 159.638163 248.467874 
L 159.894529 248.467874 
L 159.894529 248.356038 
L 160.090413 248.356038 
L 160.090413 248.244201 
L 160.211717 248.244201 
L 160.211717 248.132365 
L 160.58635 248.132365 
L 160.665017 247.908692 
L 160.735511 247.908692 
L 160.735511 247.796855 
L 160.937549 247.796855 
L 160.952993 247.573182 
L 161.121962 247.573182 
L 161.19822 247.34951 
L 161.424987 247.34951 
L 161.514862 246.902164 
L 161.6488 246.902164 
L 161.73014 246.454818 
L 161.811097 246.454818 
L 161.811097 246.342981 
L 161.993685 246.342981 
L 162.029971 246.119309 
L 162.152773 246.119309 
L 162.152773 246.007472 
L 162.288992 246.007472 
L 162.374473 245.783799 
L 162.409964 245.783799 
L 162.409964 245.671963 
L 162.614384 245.671963 
L 162.628392 245.44829 
L 162.726134 245.44829 
L 162.795612 245.112781 
L 162.878615 245.112781 
L 162.988667 244.665435 
L 163.091204 244.665435 
L 163.193134 244.218089 
L 163.825017 244.218089 
L 163.825017 244.106253 
L 164.282549 244.106253 
L 164.282549 243.994416 
L 164.541314 243.994416 
L 164.541314 243.88258 
L 164.678574 243.88258 
L 164.728217 243.658907 
L 164.894709 243.658907 
L 164.94985 243.435234 
L 165.01091 243.435234 
L 165.120276 243.211561 
L 165.168661 243.211561 
L 165.168661 243.099724 
L 165.354876 243.099724 
L 165.378757 242.876052 
L 165.468018 242.876052 
L 165.574523 242.205033 
L 165.586316 242.205033 
L 165.674508 241.98136 
L 165.76225 241.98136 
L 165.872751 241.645851 
L 165.878547 241.645851 
L 165.878547 241.534014 
L 166.319085 241.534014 
L 166.319085 241.422178 
L 166.660241 241.422178 
L 166.660241 241.310341 
L 166.896722 241.310341 
L 166.896722 241.198505 
L 167.076027 241.198505 
L 167.135382 240.974832 
L 167.450289 240.974832 
L 167.450289 240.862996 
L 167.58725 240.862996 
L 167.597741 240.639323 
L 167.733538 240.639323 
L 167.749138 240.303813 
L 167.883748 240.303813 
L 167.883748 240.191977 
L 168.321634 240.191977 
L 168.401884 239.856467 
L 168.461827 239.856467 
L 168.531498 239.632795 
L 168.660141 239.632795 
L 168.748641 239.409122 
L 168.831808 239.409122 
L 168.914574 239.185449 
L 169.054851 239.185449 
L 169.054851 239.073612 
L 169.17965 239.073612 
L 169.265522 238.738103 
L 169.501828 238.738103 
L 169.586109 238.402594 
L 169.716397 238.402594 
L 169.795022 238.178921 
L 169.960342 238.178921 
L 170.060594 237.843411 
L 170.092371 237.843411 
L 170.137663 237.396066 
L 170.241386 237.396066 
L 170.344487 236.94872 
L 170.460296 236.94872 
L 170.548852 236.613211 
L 170.584146 236.613211 
L 170.61057 236.277701 
L 170.763904 236.277701 
L 170.763904 236.165865 
L 170.898581 236.165865 
L 170.920205 235.942192 
L 171.55658 235.942192 
L 171.635531 235.494846 
L 171.681075 235.494846 
L 171.726499 235.271173 
L 172.154149 235.271173 
L 172.246421 235.0475 
L 172.322274 235.0475 
L 172.362063 234.823827 
L 172.472983 234.823827 
L 172.496659 234.600154 
L 172.793763 234.600154 
L 172.890383 234.264645 
L 173.230008 234.264645 
L 173.32797 233.929136 
L 173.525951 233.929136 
L 173.548221 233.593626 
L 173.831485 233.593626 
L 173.849719 233.258117 
L 174.030997 233.258117 
L 174.106567 233.034444 
L 174.171078 233.034444 
L 174.278062 232.363425 
L 174.292276 232.363425 
L 174.359634 232.027916 
L 174.416152 232.027916 
L 174.454901 231.692407 
L 174.595074 231.692407 
L 174.671685 231.356897 
L 174.754873 231.356897 
L 174.844541 231.021388 
L 174.89606 231.021388 
L 174.89606 230.909552 
L 175.02589 230.909552 
L 175.02589 230.797715 
L 175.369606 230.797715 
L 175.369606 230.685879 
L 175.482668 230.685879 
L 175.555431 230.350369 
L 175.621313 230.350369 
L 175.644313 230.126697 
L 175.827207 230.126697 
L 175.879107 229.903024 
L 175.943762 229.903024 
L 176.033873 229.455678 
L 176.107541 229.455678 
L 176.107541 229.343841 
L 176.260274 229.343841 
L 176.314042 229.120168 
L 176.436763 229.120168 
L 176.546155 228.896496 
L 176.747484 228.896496 
L 176.747484 228.784659 
L 176.937348 228.784659 
L 176.937348 228.672823 
L 177.052688 228.672823 
L 177.155235 228.44915 
L 177.218268 228.44915 
L 177.269127 228.225477 
L 177.39117 228.225477 
L 177.39117 228.11364 
L 177.518242 228.11364 
L 177.603414 227.778131 
L 177.667747 227.778131 
L 177.711473 227.554458 
L 177.818857 227.554458 
L 177.818857 227.442622 
L 177.931324 227.442622 
L 178.008757 227.218949 
L 178.173924 227.218949 
L 178.173924 227.107112 
L 178.320667 227.107112 
L 178.382376 226.88344 
L 178.783642 226.88344 
L 178.813704 226.436094 
L 178.895425 226.436094 
L 178.895425 226.324257 
L 179.079234 226.324257 
L 179.079234 226.212421 
L 179.242465 226.212421 
L 179.346019 225.876911 
L 179.527716 225.876911 
L 179.527716 225.765075 
L 179.668586 225.765075 
L 179.668586 225.653239 
L 179.82634 225.653239 
L 179.849493 225.429566 
L 180.170404 225.429566 
L 180.220796 225.205893 
L 180.316135 225.205893 
L 180.316135 225.094056 
L 180.662892 225.094056 
L 180.662892 224.98222 
L 180.833682 224.98222 
L 180.894269 224.646711 
L 181.038814 224.646711 
L 181.07476 224.423038 
L 181.369077 224.423038 
L 181.465293 223.975692 
L 181.605134 223.975692 
L 181.628331 223.640183 
L 181.849439 223.640183 
L 181.849439 223.528346 
L 182.024753 223.528346 
L 182.106109 223.304673 
L 182.243089 223.304673 
L 182.287764 223.081 
L 182.460894 223.081 
L 182.542415 222.857327 
L 182.610419 222.857327 
L 182.680336 222.409982 
L 182.747798 222.409982 
L 182.747798 222.298145 
L 183.042806 222.298145 
L 183.047075 222.074472 
L 183.21276 222.074472 
L 183.278169 221.850799 
L 183.349622 221.850799 
L 183.439565 221.627126 
L 183.489563 221.627126 
L 183.489563 221.51529 
L 183.74559 221.51529 
L 183.833491 221.291617 
L 183.937166 221.291617 
L 183.937166 221.179781 
L 184.058341 221.179781 
L 184.058341 221.067944 
L 184.196644 221.067944 
L 184.196644 220.956108 
L 184.337805 220.956108 
L 184.420765 220.732435 
L 184.626432 220.732435 
L 184.713827 220.396926 
L 184.74286 220.396926 
L 184.74286 220.285089 
L 185.074213 220.285089 
L 185.074213 220.173253 
L 185.495823 220.173253 
L 185.560487 219.837743 
L 186.128203 219.837743 
L 186.128203 219.725907 
L 186.531996 219.725907 
L 186.531996 219.61407 
L 186.655287 219.61407 
L 186.738141 219.390397 
L 186.788005 219.390397 
L 186.897542 219.166725 
L 186.904365 219.166725 
L 186.904365 219.054888 
L 187.016554 219.054888 
L 187.035181 218.831215 
L 187.283858 218.831215 
L 187.283858 218.719379 
L 187.449868 218.719379 
L 187.540496 218.272033 
L 187.817632 218.272033 
L 187.851559 218.04836 
L 188.021792 218.04836 
L 188.021792 217.936524 
L 188.209336 217.936524 
L 188.209336 217.824687 
L 188.432343 217.824687 
L 188.432343 217.712851 
L 188.677125 217.712851 
L 188.755398 217.489178 
L 189.120531 217.489178 
L 189.189351 217.153669 
L 189.289099 217.153669 
L 189.295036 216.818159 
L 189.413344 216.818159 
L 189.413344 216.706323 
L 189.563016 216.706323 
L 189.563016 216.594486 
L 190.028556 216.594486 
L 190.085341 216.370813 
L 190.208203 216.370813 
L 190.296627 216.14714 
L 190.419384 216.14714 
L 190.521936 215.811631 
L 190.692422 215.811631 
L 190.774312 215.476122 
L 190.830046 215.476122 
L 190.830046 215.364285 
L 191.123393 215.364285 
L 191.123393 215.252449 
L 191.328961 215.252449 
L 191.328961 215.140612 
L 191.56334 215.140612 
L 191.594524 214.805103 
L 191.826615 214.805103 
L 191.928769 214.357757 
L 192.017658 214.357757 
L 192.017658 214.245921 
L 192.292823 214.245921 
L 192.313999 214.022248 
L 192.564879 214.022248 
L 192.564879 213.910412 
L 192.692003 213.910412 
L 192.760068 213.574902 
L 192.959061 213.574902 
L 193.029661 213.351229 
L 193.142733 213.351229 
L 193.142733 213.239393 
L 193.329157 213.239393 
L 193.390072 213.01572 
L 193.719007 213.01572 
L 193.745373 212.680211 
L 193.842461 212.680211 
L 193.842461 212.568374 
L 194.210936 212.568374 
L 194.210936 212.456538 
L 194.330919 212.456538 
L 194.398319 212.121028 
L 195.002898 212.121028 
L 195.002898 212.009192 
L 195.235537 212.009192 
L 195.235537 211.897355 
L 195.503374 211.897355 
L 195.608529 211.45001 
L 195.668037 211.45001 
L 195.757934 211.002664 
L 195.825049 211.002664 
L 195.869648 210.778991 
L 196.035869 210.778991 
L 196.035869 210.667155 
L 196.527048 210.667155 
L 196.527048 210.555318 
L 197.373941 210.555318 
L 197.375796 210.331645 
L 197.733714 210.331645 
L 197.733714 210.219809 
L 197.915309 210.219809 
L 197.915309 210.107972 
L 198.037101 210.107972 
L 198.037101 209.996136 
L 198.466277 209.996136 
L 198.540965 209.772463 
L 198.592881 209.772463 
L 198.592881 209.660626 
L 199.248081 209.660626 
L 199.248081 209.54879 
L 199.429255 209.54879 
L 199.429255 209.436954 
L 199.928851 209.436954 
L 199.928851 209.325117 
L 200.582913 209.325117 
L 200.582913 209.213281 
L 200.967943 209.213281 
L 201.067731 208.989608 
L 201.14238 208.989608 
L 201.14238 208.877771 
L 201.636506 208.877771 
L 201.636506 208.765935 
L 202.352389 208.765935 
L 202.445857 208.542262 
L 202.474832 208.542262 
L 202.474832 208.430426 
L 202.824185 208.430426 
L 202.824185 208.318589 
L 203.00693 208.318589 
L 203.034975 208.094916 
L 203.143388 208.094916 
L 203.143388 207.98308 
L 203.400038 207.98308 
L 203.400038 207.871243 
L 203.552208 207.871243 
L 203.552208 207.759407 
L 204.984465 207.759407 
L 204.984465 207.64757 
L 205.25338 207.64757 
L 205.25338 207.535734 
L 205.536045 207.535734 
L 205.536045 207.423898 
L 205.691095 207.423898 
L 205.77322 207.200225 
L 207.283707 207.200225 
L 207.283707 207.088388 
L 207.51764 207.088388 
L 207.51764 206.976552 
L 208.106306 206.976552 
L 208.1073 206.752879 
L 208.261579 206.752879 
L 208.261579 206.641042 
L 212.611441 206.641042 
L 212.611441 206.529206 
L 333.168 206.529206 
L 333.168 206.529206 
" style="fill:none;stroke:#ff00ff;stroke-linecap:square;stroke-width:1.5;"/>
   </g>
   <g id="line2d_49">
    <defs>
     <path d="M -0 8.485281 
L 5.091169 0 
L 0 -8.485281 
L -5.091169 -0 
z
" id="mf65a60082f" style="stroke:#ff00ff;stroke-linejoin:miter;stroke-width:1.5;"/>
    </defs>
    <g>
     <use style="fill:none;stroke:#ff00ff;stroke-linejoin:miter;stroke-width:1.5;" x="101.23446" xlink:href="#mf65a60082f" y="288.840832"/>
     <use style="fill:none;stroke:#ff00ff;stroke-linejoin:miter;stroke-width:1.5;" x="149.488193" xlink:href="#mf65a60082f" y="260.769883"/>
     <use style="fill:none;stroke:#ff00ff;stroke-linejoin:miter;stroke-width:1.5;" x="212.611441" xlink:href="#mf65a60082f" y="206.641042"/>
     <use style="fill:none;stroke:#ff00ff;stroke-linejoin:miter;stroke-width:1.5;" x="212.611441" xlink:href="#mf65a60082f" y="206.529206"/>
     <use style="fill:none;stroke:#ff00ff;stroke-linejoin:miter;stroke-width:1.5;" x="212.611441" xlink:href="#mf65a60082f" y="206.529206"/>
     <use style="fill:none;stroke:#ff00ff;stroke-linejoin:miter;stroke-width:1.5;" x="333.168" xlink:href="#mf65a60082f" y="206.529206"/>
    </g>
   </g>
   <g id="line2d_50">
    <path style="fill:none;stroke:#ff00ff;stroke-linecap:square;stroke-width:1.5;"/>
    <g/>
   </g>
   <g id="line2d_51">
    <path clip-path="url(#pc4d372677d)" d="M 142.541345 270.723327 
" style="fill:none;stroke:#ff00ff;stroke-linecap:square;stroke-width:1.5;"/>
    <defs>
     <path d="M -12 12 
L 12 -12 
M -12 -12 
L 12 12 
" id="m9b0db0705f" style="stroke:#ff00ff;"/>
    </defs>
    <g clip-path="url(#pc4d372677d)">
     <use style="fill:#ff00ff;stroke:#ff00ff;" x="142.541345" xlink:href="#m9b0db0705f" y="270.723327"/>
    </g>
   </g>
   <g id="line2d_52">
    <path d="M 333.168 206.529206 
L 363.64328 289.176341 
" style="fill:none;stroke:#000080;stroke-linecap:square;stroke-width:1.5;"/>
    <g>
     <use style="fill:none;stroke:#000080;stroke-width:1.5;" x="333.168" xlink:href="#m3e19787e43" y="206.529206"/>
     <use style="fill:none;stroke:#000080;stroke-width:1.5;" x="363.64328" xlink:href="#m3e19787e43" y="289.176341"/>
    </g>
   </g>
   <g id="line2d_53">
    <path d="M 333.168 206.529206 
L 363.64328 152.288529 
" style="fill:none;stroke:#ff00ff;stroke-linecap:square;stroke-width:1.5;"/>
    <g>
     <use style="fill:none;stroke:#ff00ff;stroke-linejoin:miter;stroke-width:1.5;" x="333.168" xlink:href="#mf65a60082f" y="206.529206"/>
     <use style="fill:none;stroke:#ff00ff;stroke-linejoin:miter;stroke-width:1.5;" x="363.64328" xlink:href="#mf65a60082f" y="152.288529"/>
    </g>
   </g>
   <g id="line2d_54">
    <path d="M 333.168 294.88 
L 333.168 9.697057 
" style="fill:none;stroke:#000000;stroke-linecap:square;stroke-width:1.5;"/>
   </g>
   <g id="patch_3">
    <path d="M 56.12 294.88 
L 56.12 6.845228 
" style="fill:none;stroke:#000000;stroke-linecap:square;stroke-linejoin:miter;stroke-width:0.8;"/>
   </g>
   <g id="patch_4">
    <path d="M 333.168 294.88 
L 333.168 6.845228 
" style="fill:none;stroke:#000000;stroke-linecap:square;stroke-linejoin:miter;stroke-width:0.8;"/>
   </g>
   <g id="patch_5">
    <path d="M 56.12 294.88 
L 333.168 294.88 
" style="fill:none;stroke:#000000;stroke-linecap:square;stroke-linejoin:miter;stroke-width:0.8;"/>
   </g>
   <g id="patch_6">
    <path d="M 56.12 6.845228 
L 333.168 6.845228 
" style="fill:none;stroke:#000000;stroke-linecap:square;stroke-linejoin:miter;stroke-width:0.8;"/>
   </g>
   <g id="text_13">
    <!-- scipyAlg -->
    <defs>
     <path d="M 32.171875 -5.078125 
Q 28.375 -14.84375 24.75 -17.8125 
Q 21.140625 -20.796875 15.09375 -20.796875 
L 7.90625 -20.796875 
L 7.90625 -13.28125 
L 13.1875 -13.28125 
Q 16.890625 -13.28125 18.9375 -11.515625 
Q 21 -9.765625 23.484375 -3.21875 
L 25.09375 0.875 
L 2.984375 54.6875 
L 12.5 54.6875 
L 29.59375 11.921875 
L 46.6875 54.6875 
L 56.203125 54.6875 
z
" id="DejaVuSans-79"/>
     <path d="M 34.1875 63.1875 
L 20.796875 26.90625 
L 47.609375 26.90625 
z
M 28.609375 72.90625 
L 39.796875 72.90625 
L 67.578125 0 
L 57.328125 0 
L 50.6875 18.703125 
L 17.828125 18.703125 
L 11.1875 0 
L 0.78125 0 
z
" id="DejaVuSans-41"/>
    </defs>
    <g transform="translate(369.18424 293.867279)scale(0.17 -0.17)">
     <use xlink:href="#DejaVuSans-73"/>
     <use x="52.099609" xlink:href="#DejaVuSans-63"/>
     <use x="107.080078" xlink:href="#DejaVuSans-69"/>
     <use x="134.863281" xlink:href="#DejaVuSans-70"/>
     <use x="198.339844" xlink:href="#DejaVuSans-79"/>
     <use x="257.519531" xlink:href="#DejaVuSans-41"/>
     <use x="325.927734" xlink:href="#DejaVuSans-6c"/>
     <use x="353.710938" xlink:href="#DejaVuSans-67"/>
    </g>
   </g>
   <g id="text_14">
    <!-- scipy-opt -->
    <g transform="translate(369.18424 156.979466)scale(0.17 -0.17)">
     <use xlink:href="#DejaVuSans-73"/>
     <use x="52.099609" xlink:href="#DejaVuSans-63"/>
     <use x="107.080078" xlink:href="#DejaVuSans-69"/>
     <use x="134.863281" xlink:href="#DejaVuSans-70"/>
     <use x="198.339844" xlink:href="#DejaVuSans-79"/>
     <use x="257.503906" xlink:href="#DejaVuSans-2d"/>
     <use x="293.603516" xlink:href="#DejaVuSans-6f"/>
     <use x="354.785156" xlink:href="#DejaVuSans-70"/>
     <use x="418.261719" xlink:href="#DejaVuSans-74"/>
    </g>
   </g>
   <g id="text_15">
    <!-- best 2009 -->
    <defs>
     <path d="M 48.6875 27.296875 
Q 48.6875 37.203125 44.609375 42.84375 
Q 40.53125 48.484375 33.40625 48.484375 
Q 26.265625 48.484375 22.1875 42.84375 
Q 18.109375 37.203125 18.109375 27.296875 
Q 18.109375 17.390625 22.1875 11.75 
Q 26.265625 6.109375 33.40625 6.109375 
Q 40.53125 6.109375 44.609375 11.75 
Q 48.6875 17.390625 48.6875 27.296875 
z
M 18.109375 46.390625 
Q 20.953125 51.265625 25.265625 53.625 
Q 29.59375 56 35.59375 56 
Q 45.5625 56 51.78125 48.09375 
Q 58.015625 40.1875 58.015625 27.296875 
Q 58.015625 14.40625 51.78125 6.484375 
Q 45.5625 -1.421875 35.59375 -1.421875 
Q 29.59375 -1.421875 25.265625 0.953125 
Q 20.953125 3.328125 18.109375 8.203125 
L 18.109375 0 
L 9.078125 0 
L 9.078125 75.984375 
L 18.109375 75.984375 
z
" id="DejaVuSans-62"/>
     <path d="M 10.984375 1.515625 
L 10.984375 10.5 
Q 14.703125 8.734375 18.5 7.8125 
Q 22.3125 6.890625 25.984375 6.890625 
Q 35.75 6.890625 40.890625 13.453125 
Q 46.046875 20.015625 46.78125 33.40625 
Q 43.953125 29.203125 39.59375 26.953125 
Q 35.25 24.703125 29.984375 24.703125 
Q 19.046875 24.703125 12.671875 31.3125 
Q 6.296875 37.9375 6.296875 49.421875 
Q 6.296875 60.640625 12.9375 67.421875 
Q 19.578125 74.21875 30.609375 74.21875 
Q 43.265625 74.21875 49.921875 64.515625 
Q 56.59375 54.828125 56.59375 36.375 
Q 56.59375 19.140625 48.40625 8.859375 
Q 40.234375 -1.421875 26.421875 -1.421875 
Q 22.703125 -1.421875 18.890625 -0.6875 
Q 15.09375 0.046875 10.984375 1.515625 
z
M 30.609375 32.421875 
Q 37.25 32.421875 41.125 36.953125 
Q 45.015625 41.5 45.015625 49.421875 
Q 45.015625 57.28125 41.125 61.84375 
Q 37.25 66.40625 30.609375 66.40625 
Q 23.96875 66.40625 20.09375 61.84375 
Q 16.21875 57.28125 16.21875 49.421875 
Q 16.21875 41.5 20.09375 36.953125 
Q 23.96875 32.421875 30.609375 32.421875 
z
" id="DejaVuSans-39"/>
    </defs>
    <g transform="translate(369.18424 20.091654)scale(0.17 -0.17)">
     <use xlink:href="#DejaVuSans-62"/>
     <use x="63.476562" xlink:href="#DejaVuSans-65"/>
     <use x="125" xlink:href="#DejaVuSans-73"/>
     <use x="177.099609" xlink:href="#DejaVuSans-74"/>
     <use x="216.308594" xlink:href="#DejaVuSans-20"/>
     <use x="248.095703" xlink:href="#DejaVuSans-32"/>
     <use x="311.71875" xlink:href="#DejaVuSans-30"/>
     <use x="375.341797" xlink:href="#DejaVuSans-30"/>
     <use x="438.964844" xlink:href="#DejaVuSans-39"/>
    </g>
   </g>
   <g id="text_16">
    <!-- bbob f10-f14, 5-D -->
    <defs>
     <path d="M 10.796875 72.90625 
L 49.515625 72.90625 
L 49.515625 64.59375 
L 19.828125 64.59375 
L 19.828125 46.734375 
Q 21.96875 47.46875 24.109375 47.828125 
Q 26.265625 48.1875 28.421875 48.1875 
Q 40.625 48.1875 47.75 41.5 
Q 54.890625 34.8125 54.890625 23.390625 
Q 54.890625 11.625 47.5625 5.09375 
Q 40.234375 -1.421875 26.90625 -1.421875 
Q 22.3125 -1.421875 17.546875 -0.640625 
Q 12.796875 0.140625 7.71875 1.703125 
L 7.71875 11.625 
Q 12.109375 9.234375 16.796875 8.0625 
Q 21.484375 6.890625 26.703125 6.890625 
Q 35.15625 6.890625 40.078125 11.328125 
Q 45.015625 15.765625 45.015625 23.390625 
Q 45.015625 31 40.078125 35.4375 
Q 35.15625 39.890625 26.703125 39.890625 
Q 22.75 39.890625 18.8125 39.015625 
Q 14.890625 38.140625 10.796875 36.28125 
z
" id="DejaVuSans-35"/>
     <path d="M 19.671875 64.796875 
L 19.671875 8.109375 
L 31.59375 8.109375 
Q 46.6875 8.109375 53.6875 14.9375 
Q 60.6875 21.78125 60.6875 36.53125 
Q 60.6875 51.171875 53.6875 57.984375 
Q 46.6875 64.796875 31.59375 64.796875 
z
M 9.8125 72.90625 
L 30.078125 72.90625 
Q 51.265625 72.90625 61.171875 64.09375 
Q 71.09375 55.28125 71.09375 36.53125 
Q 71.09375 17.671875 61.125 8.828125 
Q 51.171875 0 30.078125 0 
L 9.8125 0 
z
" id="DejaVuSans-44"/>
    </defs>
    <g transform="translate(58.89048 17.475982)scale(0.102 -0.102)">
     <use xlink:href="#DejaVuSans-62"/>
     <use x="63.476562" xlink:href="#DejaVuSans-62"/>
     <use x="126.953125" xlink:href="#DejaVuSans-6f"/>
     <use x="188.134766" xlink:href="#DejaVuSans-62"/>
     <use x="251.611328" xlink:href="#DejaVuSans-20"/>
     <use x="283.398438" xlink:href="#DejaVuSans-66"/>
     <use x="318.603516" xlink:href="#DejaVuSans-31"/>
     <use x="382.226562" xlink:href="#DejaVuSans-30"/>
     <use x="445.849609" xlink:href="#DejaVuSans-2d"/>
     <use x="481.933594" xlink:href="#DejaVuSans-66"/>
     <use x="517.138672" xlink:href="#DejaVuSans-31"/>
     <use x="580.761719" xlink:href="#DejaVuSans-34"/>
     <use x="644.384766" xlink:href="#DejaVuSans-2c"/>
     <use x="676.171875" xlink:href="#DejaVuSans-20"/>
     <use x="707.958984" xlink:href="#DejaVuSans-35"/>
     <use x="771.582031" xlink:href="#DejaVuSans-2d"/>
     <use x="807.666016" xlink:href="#DejaVuSans-44"/>
    </g>
    <!-- 51 targets: 100..1e-08 -->
    <defs>
     <path d="M 11.71875 12.40625 
L 22.015625 12.40625 
L 22.015625 0 
L 11.71875 0 
z
M 11.71875 51.703125 
L 22.015625 51.703125 
L 22.015625 39.3125 
L 11.71875 39.3125 
z
" id="DejaVuSans-3a"/>
    </defs>
    <g transform="translate(58.89048 28.89775)scale(0.102 -0.102)">
     <use xlink:href="#DejaVuSans-35"/>
     <use x="63.623047" xlink:href="#DejaVuSans-31"/>
     <use x="127.246094" xlink:href="#DejaVuSans-20"/>
     <use x="159.033203" xlink:href="#DejaVuSans-74"/>
     <use x="198.242188" xlink:href="#DejaVuSans-61"/>
     <use x="259.521484" xlink:href="#DejaVuSans-72"/>
     <use x="300.619141" xlink:href="#DejaVuSans-67"/>
     <use x="364.095703" xlink:href="#DejaVuSans-65"/>
     <use x="425.619141" xlink:href="#DejaVuSans-74"/>
     <use x="464.828125" xlink:href="#DejaVuSans-73"/>
     <use x="516.927734" xlink:href="#DejaVuSans-3a"/>
     <use x="550.619141" xlink:href="#DejaVuSans-20"/>
     <use x="582.40625" xlink:href="#DejaVuSans-31"/>
     <use x="646.029297" xlink:href="#DejaVuSans-30"/>
     <use x="709.652344" xlink:href="#DejaVuSans-30"/>
     <use x="773.275391" xlink:href="#DejaVuSans-2e"/>
     <use x="805.0625" xlink:href="#DejaVuSans-2e"/>
     <use x="836.849609" xlink:href="#DejaVuSans-31"/>
     <use x="900.472656" xlink:href="#DejaVuSans-65"/>
     <use x="961.996094" xlink:href="#DejaVuSans-2d"/>
     <use x="998.080078" xlink:href="#DejaVuSans-30"/>
     <use x="1061.703125" xlink:href="#DejaVuSans-38"/>
    </g>
    <!-- 15 instances -->
    <g transform="translate(58.89048 40.319519)scale(0.102 -0.102)">
     <use xlink:href="#DejaVuSans-31"/>
     <use x="63.623047" xlink:href="#DejaVuSans-35"/>
     <use x="127.246094" xlink:href="#DejaVuSans-20"/>
     <use x="159.033203" xlink:href="#DejaVuSans-69"/>
     <use x="186.816406" xlink:href="#DejaVuSans-6e"/>
     <use x="250.195312" xlink:href="#DejaVuSans-73"/>
     <use x="302.294922" xlink:href="#DejaVuSans-74"/>
     <use x="341.503906" xlink:href="#DejaVuSans-61"/>
     <use x="402.783203" xlink:href="#DejaVuSans-6e"/>
     <use x="466.162109" xlink:href="#DejaVuSans-63"/>
     <use x="521.142578" xlink:href="#DejaVuSans-65"/>
     <use x="582.666016" xlink:href="#DejaVuSans-73"/>
    </g>
   </g>
   <g id="text_17">
    <!-- v0.0.0 -->
    <g style="fill:#808080;" transform="translate(178.96275 289.919965)scale(0.1 -0.1)">
     <use xlink:href="#DejaVuSans-76"/>
     <use x="59.179688" xlink:href="#DejaVuSans-30"/>
     <use x="122.802734" xlink:href="#DejaVuSans-2e"/>
     <use x="154.589844" xlink:href="#DejaVuSans-30"/>
     <use x="218.212891" xlink:href="#DejaVuSans-2e"/>
     <use x="250" xlink:href="#DejaVuSans-30"/>
    </g>
   </g>
  </g>
 </g>
 <defs>
  <clipPath id="pc4d372677d">
   <rect height="288.034772" width="277.048" x="56.12" y="6.845228"/>
  </clipPath>
 </defs>
</svg>
