<?xml version="1.0" encoding="utf-8" standalone="no"?>
<!DOCTYPE svg PUBLIC "-//W3C//DTD SVG 1.1//EN"
  "http://www.w3.org/Graphics/SVG/1.1/DTD/svg11.dtd">
<!-- Created with matplotlib (http://matplotlib.org/) -->
<svg height="345pt" version="1.1" viewBox="0 0 460 345" width="460pt" xmlns="http://www.w3.org/2000/svg" xmlns:xlink="http://www.w3.org/1999/xlink">
 <defs>
  <style type="text/css">
*{stroke-linecap:butt;stroke-linejoin:round;}
  </style>
 </defs>
 <g id="figure_1">
  <g id="patch_1">
   <path d="M 0 345.6 
L 460.8 345.6 
L 460.8 0 
L 0 0 
z
" style="fill:#ffffff;"/>
  </g>
  <g id="axes_1">
   <g id="patch_2">
    <path d="M 56.12 294.88 
L 333.168 294.88 
L 333.168 6.845228 
L 56.12 6.845228 
z
" style="fill:#ffffff;"/>
   </g>
   <g id="line2d_1">
    <path d="M 44.205749 294.88 
L 44.205749 286.492266 
L 56.12 286.492266 
L 56.12 279.502488 
L 63.08939 279.502488 
L 63.08939 272.51271 
L 71.869783 272.51271 
L 71.869783 262.727021 
L 75.003641 262.727021 
L 75.003641 261.329066 
L 77.653281 261.329066 
L 77.653281 259.93111 
L 83.784035 259.93111 
L 83.784035 258.533154 
L 86.917893 258.533154 
L 86.917893 252.941332 
L 88.293717 252.941332 
L 88.293717 250.145421 
L 89.567532 250.145421 
L 89.567532 247.34951 
L 90.753425 247.34951 
L 90.753425 244.553598 
L 91.862754 244.553598 
L 91.862754 243.155643 
L 92.904808 243.155643 
L 92.904808 241.757687 
L 93.887283 241.757687 
L 93.887283 236.165865 
L 94.816624 236.165865 
L 94.816624 233.369954 
L 95.698286 233.369954 
L 95.698286 230.574042 
L 96.536922 230.574042 
L 96.536922 226.380175 
L 98.100602 226.380175 
L 98.100602 224.98222 
L 100.856673 224.98222 
L 100.856673 222.186309 
L 102.667676 222.186309 
L 102.667676 220.788353 
L 103.231288 220.788353 
L 103.231288 219.390397 
L 103.777005 219.390397 
L 103.777005 217.992442 
L 105.317315 217.992442 
L 105.317315 215.196531 
L 106.272485 215.196531 
L 106.272485 213.798575 
L 106.730875 213.798575 
L 106.730875 211.002664 
L 107.177358 211.002664 
L 107.177358 209.604708 
L 108.036969 209.604708 
L 108.036969 206.808797 
L 108.451173 206.808797 
L 108.451173 205.410841 
L 108.85563 205.410841 
L 108.85563 202.61493 
L 109.250788 202.61493 
L 109.250788 197.023108 
L 109.637066 197.023108 
L 109.637066 195.625152 
L 110.014853 195.625152 
L 110.014853 190.03333 
L 110.384516 190.03333 
L 110.384516 185.839463 
L 111.100812 185.839463 
L 111.100812 184.441507 
L 111.448069 184.441507 
L 111.448069 181.645596 
L 112.122219 181.645596 
L 112.122219 180.247641 
L 112.770924 180.247641 
L 112.770924 178.849685 
L 114.293036 178.849685 
L 114.293036 177.451729 
L 114.581927 177.451729 
L 114.581927 176.053774 
L 114.866043 176.053774 
L 114.866043 174.655818 
L 115.420563 174.655818 
L 115.420563 173.257863 
L 115.957752 173.257863 
L 115.957752 171.859907 
L 116.220179 171.859907 
L 116.220179 170.461951 
L 116.478659 170.461951 
L 116.478659 169.063996 
L 116.73331 169.063996 
L 116.73331 167.66604 
L 116.984244 167.66604 
L 116.984244 166.268085 
L 117.715785 166.268085 
L 117.715785 163.472173 
L 117.952873 163.472173 
L 117.952873 160.676262 
L 118.645127 160.676262 
L 118.645127 159.278307 
L 118.869818 159.278307 
L 118.869818 156.482395 
L 119.09161 156.482395 
L 119.09161 153.686484 
L 119.526788 153.686484 
L 119.526788 146.696706 
L 119.740314 146.696706 
L 119.740314 141.104884 
L 119.95122 141.104884 
L 119.95122 138.308973 
L 120.365424 138.308973 
L 120.365424 136.911017 
L 120.568842 136.911017 
L 120.568842 135.513061 
L 120.769881 135.513061 
L 120.769881 131.319195 
L 121.16504 131.319195 
L 121.16504 129.921239 
L 121.359263 129.921239 
L 121.359263 122.931461 
L 121.551317 122.931461 
L 121.551317 118.737594 
L 121.741249 118.737594 
L 121.741249 115.941683 
L 121.929105 115.941683 
L 121.929105 108.951905 
L 122.114929 108.951905 
L 122.114929 104.758038 
L 122.298767 104.758038 
L 122.298767 97.76826 
L 122.480659 97.76826 
L 122.480659 94.972349 
L 122.660646 94.972349 
L 122.660646 92.176438 
L 123.015063 92.176438 
L 123.015063 90.778482 
L 123.36232 90.778482 
L 123.36232 87.982571 
L 123.870396 87.982571 
L 123.870396 85.18666 
L 124.363883 85.18666 
L 124.363883 82.390748 
L 124.52528 82.390748 
L 124.52528 79.594837 
L 125.000572 79.594837 
L 125.000572 76.798926 
L 125.310285 76.798926 
L 125.310285 71.207104 
L 125.614517 71.207104 
L 125.614517 67.013237 
L 125.913457 67.013237 
L 125.913457 65.615281 
L 126.207287 65.615281 
L 126.207287 64.217326 
L 126.638823 64.217326 
L 126.638823 62.81937 
L 127.05979 62.81937 
L 127.05979 61.421414 
L 127.197852 61.421414 
L 127.197852 60.023459 
L 127.334814 60.023459 
L 127.334814 58.625503 
L 127.872003 58.625503 
L 127.872003 57.227548 
L 128.264156 57.227548 
L 128.264156 55.829592 
L 128.647561 55.829592 
L 128.647561 54.431636 
L 134.213018 54.431636 
L 134.213018 53.033681 
L 134.664189 53.033681 
L 134.664189 51.635725 
L 135.784647 51.635725 
L 135.784647 50.23777 
L 136.519665 50.23777 
L 136.519665 48.839814 
L 136.67882 48.839814 
L 136.67882 22.278658 
L 137.14763 22.278658 
L 137.14763 20.880702 
L 137.603992 20.880702 
L 137.603992 19.482746 
L 138.04855 19.482746 
L 138.04855 18.084791 
L 138.4819 18.084791 
L 138.4819 16.686835 
L 138.623956 16.686835 
L 138.623956 15.28888 
L 139.112104 15.28888 
L 139.112104 13.890924 
L 139.317139 13.890924 
L 139.317139 12.492968 
L 139.519758 12.492968 
L 139.519758 11.095013 
L 139.653523 11.095013 
L 139.653523 9.697057 
L 333.168 9.697057 
L 333.168 9.697057 
" style="fill:none;stroke:#f5deb3;stroke-linecap:square;stroke-width:4;"/>
   </g>
   <g id="line2d_2">
    <defs>
     <path d="M -0 7.778175 
L 7.778175 0 
L 0 -7.778175 
L -7.778175 -0 
z
" id="mf8551302df" style="stroke:#f5deb3;stroke-linejoin:miter;stroke-width:1.5;"/>
    </defs>
    <g>
     <use style="fill:#f5deb3;stroke:#f5deb3;stroke-linejoin:miter;stroke-width:1.5;" x="94.816624" xlink:href="#mf8551302df" y="236.165865"/>
     <use style="fill:#f5deb3;stroke:#f5deb3;stroke-linejoin:miter;stroke-width:1.5;" x="122.480659" xlink:href="#mf8551302df" y="94.972349"/>
     <use style="fill:#f5deb3;stroke:#f5deb3;stroke-linejoin:miter;stroke-width:1.5;" x="139.653523" xlink:href="#mf8551302df" y="11.095013"/>
     <use style="fill:#f5deb3;stroke:#f5deb3;stroke-linejoin:miter;stroke-width:1.5;" x="139.653523" xlink:href="#mf8551302df" y="9.697057"/>
     <use style="fill:#f5deb3;stroke:#f5deb3;stroke-linejoin:miter;stroke-width:1.5;" x="139.653523" xlink:href="#mf8551302df" y="9.697057"/>
     <use style="fill:#f5deb3;stroke:#f5deb3;stroke-linejoin:miter;stroke-width:1.5;" x="333.168" xlink:href="#mf8551302df" y="9.697057"/>
    </g>
   </g>
   <g id="line2d_3">
    <path style="fill:none;stroke:#f5deb3;stroke-linecap:square;stroke-width:4;"/>
    <g/>
   </g>
   <g id="line2d_4">
    <path d="M 333.168 9.697057 
L 363.64328 15.400716 
" style="fill:none;stroke:#f5deb3;stroke-linecap:square;stroke-width:4;"/>
    <g>
     <use style="fill:#f5deb3;stroke:#f5deb3;stroke-linejoin:miter;stroke-width:1.5;" x="333.168" xlink:href="#mf8551302df" y="9.697057"/>
     <use style="fill:#f5deb3;stroke:#f5deb3;stroke-linejoin:miter;stroke-width:1.5;" x="363.64328" xlink:href="#mf8551302df" y="15.400716"/>
    </g>
   </g>
   <g id="matplotlib.axis_1">
    <g id="xtick_1">
     <g id="line2d_5">
      <path clip-path="url(#p24dea1d42c)" d="M 56.12 294.88 
L 56.12 6.845228 
" style="fill:none;stroke:#b0b0b0;stroke-linecap:square;stroke-width:0.8;"/>
     </g>
     <g id="line2d_6">
      <defs>
       <path d="M 0 0 
L 0 3.5 
" id="m7607ea03b9" style="stroke:#000000;stroke-width:0.8;"/>
      </defs>
      <g>
       <use style="stroke:#000000;stroke-width:0.8;" x="56.12" xlink:href="#m7607ea03b9" y="294.88"/>
      </g>
     </g>
     <g id="text_1">
      <!-- 0 -->
      <defs>
       <path d="M 31.78125 66.40625 
Q 24.171875 66.40625 20.328125 58.90625 
Q 16.5 51.421875 16.5 36.375 
Q 16.5 21.390625 20.328125 13.890625 
Q 24.171875 6.390625 31.78125 6.390625 
Q 39.453125 6.390625 43.28125 13.890625 
Q 47.125 21.390625 47.125 36.375 
Q 47.125 51.421875 43.28125 58.90625 
Q 39.453125 66.40625 31.78125 66.40625 
z
M 31.78125 74.21875 
Q 44.046875 74.21875 50.515625 64.515625 
Q 56.984375 54.828125 56.984375 36.375 
Q 56.984375 17.96875 50.515625 8.265625 
Q 44.046875 -1.421875 31.78125 -1.421875 
Q 19.53125 -1.421875 13.0625 8.265625 
Q 6.59375 17.96875 6.59375 36.375 
Q 6.59375 54.828125 13.0625 64.515625 
Q 19.53125 74.21875 31.78125 74.21875 
z
" id="DejaVuSans-30"/>
      </defs>
      <g transform="translate(49.7575 317.076875)scale(0.2 -0.2)">
       <use xlink:href="#DejaVuSans-30"/>
      </g>
     </g>
    </g>
    <g id="xtick_2">
     <g id="line2d_7">
      <path clip-path="url(#p24dea1d42c)" d="M 135.276571 294.88 
L 135.276571 6.845228 
" style="fill:none;stroke:#b0b0b0;stroke-linecap:square;stroke-width:0.8;"/>
     </g>
     <g id="line2d_8">
      <g>
       <use style="stroke:#000000;stroke-width:0.8;" x="135.276571" xlink:href="#m7607ea03b9" y="294.88"/>
      </g>
     </g>
     <g id="text_2">
      <!-- 2 -->
      <defs>
       <path d="M 19.1875 8.296875 
L 53.609375 8.296875 
L 53.609375 0 
L 7.328125 0 
L 7.328125 8.296875 
Q 12.9375 14.109375 22.625 23.890625 
Q 32.328125 33.6875 34.8125 36.53125 
Q 39.546875 41.84375 41.421875 45.53125 
Q 43.3125 49.21875 43.3125 52.78125 
Q 43.3125 58.59375 39.234375 62.25 
Q 35.15625 65.921875 28.609375 65.921875 
Q 23.96875 65.921875 18.8125 64.3125 
Q 13.671875 62.703125 7.8125 59.421875 
L 7.8125 69.390625 
Q 13.765625 71.78125 18.9375 73 
Q 24.125 74.21875 28.421875 74.21875 
Q 39.75 74.21875 46.484375 68.546875 
Q 53.21875 62.890625 53.21875 53.421875 
Q 53.21875 48.921875 51.53125 44.890625 
Q 49.859375 40.875 45.40625 35.40625 
Q 44.1875 33.984375 37.640625 27.21875 
Q 31.109375 20.453125 19.1875 8.296875 
z
" id="DejaVuSans-32"/>
      </defs>
      <g transform="translate(128.914071 317.076875)scale(0.2 -0.2)">
       <use xlink:href="#DejaVuSans-32"/>
      </g>
     </g>
    </g>
    <g id="xtick_3">
     <g id="line2d_9">
      <path clip-path="url(#p24dea1d42c)" d="M 214.433143 294.88 
L 214.433143 6.845228 
" style="fill:none;stroke:#b0b0b0;stroke-linecap:square;stroke-width:0.8;"/>
     </g>
     <g id="line2d_10">
      <g>
       <use style="stroke:#000000;stroke-width:0.8;" x="214.433143" xlink:href="#m7607ea03b9" y="294.88"/>
      </g>
     </g>
     <g id="text_3">
      <!-- 4 -->
      <defs>
       <path d="M 37.796875 64.3125 
L 12.890625 25.390625 
L 37.796875 25.390625 
z
M 35.203125 72.90625 
L 47.609375 72.90625 
L 47.609375 25.390625 
L 58.015625 25.390625 
L 58.015625 17.1875 
L 47.609375 17.1875 
L 47.609375 0 
L 37.796875 0 
L 37.796875 17.1875 
L 4.890625 17.1875 
L 4.890625 26.703125 
z
" id="DejaVuSans-34"/>
      </defs>
      <g transform="translate(208.070643 317.076875)scale(0.2 -0.2)">
       <use xlink:href="#DejaVuSans-34"/>
      </g>
     </g>
    </g>
    <g id="xtick_4">
     <g id="line2d_11">
      <path clip-path="url(#p24dea1d42c)" d="M 293.589714 294.88 
L 293.589714 6.845228 
" style="fill:none;stroke:#b0b0b0;stroke-linecap:square;stroke-width:0.8;"/>
     </g>
     <g id="line2d_12">
      <g>
       <use style="stroke:#000000;stroke-width:0.8;" x="293.589714" xlink:href="#m7607ea03b9" y="294.88"/>
      </g>
     </g>
     <g id="text_4">
      <!-- 6 -->
      <defs>
       <path d="M 33.015625 40.375 
Q 26.375 40.375 22.484375 35.828125 
Q 18.609375 31.296875 18.609375 23.390625 
Q 18.609375 15.53125 22.484375 10.953125 
Q 26.375 6.390625 33.015625 6.390625 
Q 39.65625 6.390625 43.53125 10.953125 
Q 47.40625 15.53125 47.40625 23.390625 
Q 47.40625 31.296875 43.53125 35.828125 
Q 39.65625 40.375 33.015625 40.375 
z
M 52.59375 71.296875 
L 52.59375 62.3125 
Q 48.875 64.0625 45.09375 64.984375 
Q 41.3125 65.921875 37.59375 65.921875 
Q 27.828125 65.921875 22.671875 59.328125 
Q 17.53125 52.734375 16.796875 39.40625 
Q 19.671875 43.65625 24.015625 45.921875 
Q 28.375 48.1875 33.59375 48.1875 
Q 44.578125 48.1875 50.953125 41.515625 
Q 57.328125 34.859375 57.328125 23.390625 
Q 57.328125 12.15625 50.6875 5.359375 
Q 44.046875 -1.421875 33.015625 -1.421875 
Q 20.359375 -1.421875 13.671875 8.265625 
Q 6.984375 17.96875 6.984375 36.375 
Q 6.984375 53.65625 15.1875 63.9375 
Q 23.390625 74.21875 37.203125 74.21875 
Q 40.921875 74.21875 44.703125 73.484375 
Q 48.484375 72.75 52.59375 71.296875 
z
" id="DejaVuSans-36"/>
      </defs>
      <g transform="translate(287.227214 317.076875)scale(0.2 -0.2)">
       <use xlink:href="#DejaVuSans-36"/>
      </g>
     </g>
    </g>
    <g id="xtick_5">
     <g id="line2d_13">
      <path clip-path="url(#p24dea1d42c)" d="M 56.12 294.88 
L 56.12 6.845228 
" style="fill:none;stroke:#b0b0b0;stroke-linecap:square;stroke-width:0.8;"/>
     </g>
     <g id="line2d_14">
      <defs>
       <path d="M 0 0 
L 0 2 
" id="m0e88243180" style="stroke:#000000;stroke-width:0.6;"/>
      </defs>
      <g>
       <use style="stroke:#000000;stroke-width:0.6;" x="56.12" xlink:href="#m0e88243180" y="294.88"/>
      </g>
     </g>
    </g>
    <g id="xtick_6">
     <g id="line2d_15">
      <path clip-path="url(#p24dea1d42c)" d="M 95.698286 294.88 
L 95.698286 6.845228 
" style="fill:none;stroke:#b0b0b0;stroke-linecap:square;stroke-width:0.8;"/>
     </g>
     <g id="line2d_16">
      <g>
       <use style="stroke:#000000;stroke-width:0.6;" x="95.698286" xlink:href="#m0e88243180" y="294.88"/>
      </g>
     </g>
    </g>
    <g id="xtick_7">
     <g id="line2d_17">
      <path clip-path="url(#p24dea1d42c)" d="M 135.276571 294.88 
L 135.276571 6.845228 
" style="fill:none;stroke:#b0b0b0;stroke-linecap:square;stroke-width:0.8;"/>
     </g>
     <g id="line2d_18">
      <g>
       <use style="stroke:#000000;stroke-width:0.6;" x="135.276571" xlink:href="#m0e88243180" y="294.88"/>
      </g>
     </g>
    </g>
    <g id="xtick_8">
     <g id="line2d_19">
      <path clip-path="url(#p24dea1d42c)" d="M 174.854857 294.88 
L 174.854857 6.845228 
" style="fill:none;stroke:#b0b0b0;stroke-linecap:square;stroke-width:0.8;"/>
     </g>
     <g id="line2d_20">
      <g>
       <use style="stroke:#000000;stroke-width:0.6;" x="174.854857" xlink:href="#m0e88243180" y="294.88"/>
      </g>
     </g>
    </g>
    <g id="xtick_9">
     <g id="line2d_21">
      <path clip-path="url(#p24dea1d42c)" d="M 214.433143 294.88 
L 214.433143 6.845228 
" style="fill:none;stroke:#b0b0b0;stroke-linecap:square;stroke-width:0.8;"/>
     </g>
     <g id="line2d_22">
      <g>
       <use style="stroke:#000000;stroke-width:0.6;" x="214.433143" xlink:href="#m0e88243180" y="294.88"/>
      </g>
     </g>
    </g>
    <g id="xtick_10">
     <g id="line2d_23">
      <path clip-path="url(#p24dea1d42c)" d="M 254.011429 294.88 
L 254.011429 6.845228 
" style="fill:none;stroke:#b0b0b0;stroke-linecap:square;stroke-width:0.8;"/>
     </g>
     <g id="line2d_24">
      <g>
       <use style="stroke:#000000;stroke-width:0.6;" x="254.011429" xlink:href="#m0e88243180" y="294.88"/>
      </g>
     </g>
    </g>
    <g id="xtick_11">
     <g id="line2d_25">
      <path clip-path="url(#p24dea1d42c)" d="M 293.589714 294.88 
L 293.589714 6.845228 
" style="fill:none;stroke:#b0b0b0;stroke-linecap:square;stroke-width:0.8;"/>
     </g>
     <g id="line2d_26">
      <g>
       <use style="stroke:#000000;stroke-width:0.6;" x="293.589714" xlink:href="#m0e88243180" y="294.88"/>
      </g>
     </g>
    </g>
    <g id="xtick_12">
     <g id="line2d_27">
      <path clip-path="url(#p24dea1d42c)" d="M 333.168 294.88 
L 333.168 6.845228 
" style="fill:none;stroke:#b0b0b0;stroke-linecap:square;stroke-width:0.8;"/>
     </g>
     <g id="line2d_28">
      <g>
       <use style="stroke:#000000;stroke-width:0.6;" x="333.168" xlink:href="#m0e88243180" y="294.88"/>
      </g>
     </g>
    </g>
    <g id="text_5">
     <!-- log10(# f-evals / dimension) -->
     <defs>
      <path d="M 9.421875 75.984375 
L 18.40625 75.984375 
L 18.40625 0 
L 9.421875 0 
z
" id="DejaVuSans-6c"/>
      <path d="M 30.609375 48.390625 
Q 23.390625 48.390625 19.1875 42.75 
Q 14.984375 37.109375 14.984375 27.296875 
Q 14.984375 17.484375 19.15625 11.84375 
Q 23.34375 6.203125 30.609375 6.203125 
Q 37.796875 6.203125 41.984375 11.859375 
Q 46.1875 17.53125 46.1875 27.296875 
Q 46.1875 37.015625 41.984375 42.703125 
Q 37.796875 48.390625 30.609375 48.390625 
z
M 30.609375 56 
Q 42.328125 56 49.015625 48.375 
Q 55.71875 40.765625 55.71875 27.296875 
Q 55.71875 13.875 49.015625 6.21875 
Q 42.328125 -1.421875 30.609375 -1.421875 
Q 18.84375 -1.421875 12.171875 6.21875 
Q 5.515625 13.875 5.515625 27.296875 
Q 5.515625 40.765625 12.171875 48.375 
Q 18.84375 56 30.609375 56 
z
" id="DejaVuSans-6f"/>
      <path d="M 45.40625 27.984375 
Q 45.40625 37.75 41.375 43.109375 
Q 37.359375 48.484375 30.078125 48.484375 
Q 22.859375 48.484375 18.828125 43.109375 
Q 14.796875 37.75 14.796875 27.984375 
Q 14.796875 18.265625 18.828125 12.890625 
Q 22.859375 7.515625 30.078125 7.515625 
Q 37.359375 7.515625 41.375 12.890625 
Q 45.40625 18.265625 45.40625 27.984375 
z
M 54.390625 6.78125 
Q 54.390625 -7.171875 48.1875 -13.984375 
Q 42 -20.796875 29.203125 -20.796875 
Q 24.46875 -20.796875 20.265625 -20.09375 
Q 16.0625 -19.390625 12.109375 -17.921875 
L 12.109375 -9.1875 
Q 16.0625 -11.328125 19.921875 -12.34375 
Q 23.78125 -13.375 27.78125 -13.375 
Q 36.625 -13.375 41.015625 -8.765625 
Q 45.40625 -4.15625 45.40625 5.171875 
L 45.40625 9.625 
Q 42.625 4.78125 38.28125 2.390625 
Q 33.9375 0 27.875 0 
Q 17.828125 0 11.671875 7.65625 
Q 5.515625 15.328125 5.515625 27.984375 
Q 5.515625 40.671875 11.671875 48.328125 
Q 17.828125 56 27.875 56 
Q 33.9375 56 38.28125 53.609375 
Q 42.625 51.21875 45.40625 46.390625 
L 45.40625 54.6875 
L 54.390625 54.6875 
z
" id="DejaVuSans-67"/>
      <path d="M 12.40625 8.296875 
L 28.515625 8.296875 
L 28.515625 63.921875 
L 10.984375 60.40625 
L 10.984375 69.390625 
L 28.421875 72.90625 
L 38.28125 72.90625 
L 38.28125 8.296875 
L 54.390625 8.296875 
L 54.390625 0 
L 12.40625 0 
z
" id="DejaVuSans-31"/>
      <path d="M 31 75.875 
Q 24.46875 64.65625 21.28125 53.65625 
Q 18.109375 42.671875 18.109375 31.390625 
Q 18.109375 20.125 21.3125 9.0625 
Q 24.515625 -2 31 -13.1875 
L 23.1875 -13.1875 
Q 15.875 -1.703125 12.234375 9.375 
Q 8.59375 20.453125 8.59375 31.390625 
Q 8.59375 42.28125 12.203125 53.3125 
Q 15.828125 64.359375 23.1875 75.875 
z
" id="DejaVuSans-28"/>
      <path d="M 51.125 44 
L 36.921875 44 
L 32.8125 27.6875 
L 47.125 27.6875 
z
M 43.796875 71.78125 
L 38.71875 51.515625 
L 52.984375 51.515625 
L 58.109375 71.78125 
L 65.921875 71.78125 
L 60.890625 51.515625 
L 76.125 51.515625 
L 76.125 44 
L 58.984375 44 
L 54.984375 27.6875 
L 70.515625 27.6875 
L 70.515625 20.21875 
L 53.078125 20.21875 
L 48 0 
L 40.1875 0 
L 45.21875 20.21875 
L 30.90625 20.21875 
L 25.875 0 
L 18.015625 0 
L 23.09375 20.21875 
L 7.71875 20.21875 
L 7.71875 27.6875 
L 24.90625 27.6875 
L 29 44 
L 13.28125 44 
L 13.28125 51.515625 
L 30.90625 51.515625 
L 35.890625 71.78125 
z
" id="DejaVuSans-23"/>
      <path id="DejaVuSans-20"/>
      <path d="M 37.109375 75.984375 
L 37.109375 68.5 
L 28.515625 68.5 
Q 23.6875 68.5 21.796875 66.546875 
Q 19.921875 64.59375 19.921875 59.515625 
L 19.921875 54.6875 
L 34.71875 54.6875 
L 34.71875 47.703125 
L 19.921875 47.703125 
L 19.921875 0 
L 10.890625 0 
L 10.890625 47.703125 
L 2.296875 47.703125 
L 2.296875 54.6875 
L 10.890625 54.6875 
L 10.890625 58.5 
Q 10.890625 67.625 15.140625 71.796875 
Q 19.390625 75.984375 28.609375 75.984375 
z
" id="DejaVuSans-66"/>
      <path d="M 4.890625 31.390625 
L 31.203125 31.390625 
L 31.203125 23.390625 
L 4.890625 23.390625 
z
" id="DejaVuSans-2d"/>
      <path d="M 56.203125 29.59375 
L 56.203125 25.203125 
L 14.890625 25.203125 
Q 15.484375 15.921875 20.484375 11.0625 
Q 25.484375 6.203125 34.421875 6.203125 
Q 39.59375 6.203125 44.453125 7.46875 
Q 49.3125 8.734375 54.109375 11.28125 
L 54.109375 2.78125 
Q 49.265625 0.734375 44.1875 -0.34375 
Q 39.109375 -1.421875 33.890625 -1.421875 
Q 20.796875 -1.421875 13.15625 6.1875 
Q 5.515625 13.8125 5.515625 26.8125 
Q 5.515625 40.234375 12.765625 48.109375 
Q 20.015625 56 32.328125 56 
Q 43.359375 56 49.78125 48.890625 
Q 56.203125 41.796875 56.203125 29.59375 
z
M 47.21875 32.234375 
Q 47.125 39.59375 43.09375 43.984375 
Q 39.0625 48.390625 32.421875 48.390625 
Q 24.90625 48.390625 20.390625 44.140625 
Q 15.875 39.890625 15.1875 32.171875 
z
" id="DejaVuSans-65"/>
      <path d="M 2.984375 54.6875 
L 12.5 54.6875 
L 29.59375 8.796875 
L 46.6875 54.6875 
L 56.203125 54.6875 
L 35.6875 0 
L 23.484375 0 
z
" id="DejaVuSans-76"/>
      <path d="M 34.28125 27.484375 
Q 23.390625 27.484375 19.1875 25 
Q 14.984375 22.515625 14.984375 16.5 
Q 14.984375 11.71875 18.140625 8.90625 
Q 21.296875 6.109375 26.703125 6.109375 
Q 34.1875 6.109375 38.703125 11.40625 
Q 43.21875 16.703125 43.21875 25.484375 
L 43.21875 27.484375 
z
M 52.203125 31.203125 
L 52.203125 0 
L 43.21875 0 
L 43.21875 8.296875 
Q 40.140625 3.328125 35.546875 0.953125 
Q 30.953125 -1.421875 24.3125 -1.421875 
Q 15.921875 -1.421875 10.953125 3.296875 
Q 6 8.015625 6 15.921875 
Q 6 25.140625 12.171875 29.828125 
Q 18.359375 34.515625 30.609375 34.515625 
L 43.21875 34.515625 
L 43.21875 35.40625 
Q 43.21875 41.609375 39.140625 45 
Q 35.0625 48.390625 27.6875 48.390625 
Q 23 48.390625 18.546875 47.265625 
Q 14.109375 46.140625 10.015625 43.890625 
L 10.015625 52.203125 
Q 14.9375 54.109375 19.578125 55.046875 
Q 24.21875 56 28.609375 56 
Q 40.484375 56 46.34375 49.84375 
Q 52.203125 43.703125 52.203125 31.203125 
z
" id="DejaVuSans-61"/>
      <path d="M 44.28125 53.078125 
L 44.28125 44.578125 
Q 40.484375 46.53125 36.375 47.5 
Q 32.28125 48.484375 27.875 48.484375 
Q 21.1875 48.484375 17.84375 46.4375 
Q 14.5 44.390625 14.5 40.28125 
Q 14.5 37.15625 16.890625 35.375 
Q 19.28125 33.59375 26.515625 31.984375 
L 29.59375 31.296875 
Q 39.15625 29.25 43.1875 25.515625 
Q 47.21875 21.78125 47.21875 15.09375 
Q 47.21875 7.46875 41.1875 3.015625 
Q 35.15625 -1.421875 24.609375 -1.421875 
Q 20.21875 -1.421875 15.453125 -0.5625 
Q 10.6875 0.296875 5.421875 2 
L 5.421875 11.28125 
Q 10.40625 8.6875 15.234375 7.390625 
Q 20.0625 6.109375 24.8125 6.109375 
Q 31.15625 6.109375 34.5625 8.28125 
Q 37.984375 10.453125 37.984375 14.40625 
Q 37.984375 18.0625 35.515625 20.015625 
Q 33.0625 21.96875 24.703125 23.78125 
L 21.578125 24.515625 
Q 13.234375 26.265625 9.515625 29.90625 
Q 5.8125 33.546875 5.8125 39.890625 
Q 5.8125 47.609375 11.28125 51.796875 
Q 16.75 56 26.8125 56 
Q 31.78125 56 36.171875 55.265625 
Q 40.578125 54.546875 44.28125 53.078125 
z
" id="DejaVuSans-73"/>
      <path d="M 25.390625 72.90625 
L 33.6875 72.90625 
L 8.296875 -9.28125 
L 0 -9.28125 
z
" id="DejaVuSans-2f"/>
      <path d="M 45.40625 46.390625 
L 45.40625 75.984375 
L 54.390625 75.984375 
L 54.390625 0 
L 45.40625 0 
L 45.40625 8.203125 
Q 42.578125 3.328125 38.25 0.953125 
Q 33.9375 -1.421875 27.875 -1.421875 
Q 17.96875 -1.421875 11.734375 6.484375 
Q 5.515625 14.40625 5.515625 27.296875 
Q 5.515625 40.1875 11.734375 48.09375 
Q 17.96875 56 27.875 56 
Q 33.9375 56 38.25 53.625 
Q 42.578125 51.265625 45.40625 46.390625 
z
M 14.796875 27.296875 
Q 14.796875 17.390625 18.875 11.75 
Q 22.953125 6.109375 30.078125 6.109375 
Q 37.203125 6.109375 41.296875 11.75 
Q 45.40625 17.390625 45.40625 27.296875 
Q 45.40625 37.203125 41.296875 42.84375 
Q 37.203125 48.484375 30.078125 48.484375 
Q 22.953125 48.484375 18.875 42.84375 
Q 14.796875 37.203125 14.796875 27.296875 
z
" id="DejaVuSans-64"/>
      <path d="M 9.421875 54.6875 
L 18.40625 54.6875 
L 18.40625 0 
L 9.421875 0 
z
M 9.421875 75.984375 
L 18.40625 75.984375 
L 18.40625 64.59375 
L 9.421875 64.59375 
z
" id="DejaVuSans-69"/>
      <path d="M 52 44.1875 
Q 55.375 50.25 60.0625 53.125 
Q 64.75 56 71.09375 56 
Q 79.640625 56 84.28125 50.015625 
Q 88.921875 44.046875 88.921875 33.015625 
L 88.921875 0 
L 79.890625 0 
L 79.890625 32.71875 
Q 79.890625 40.578125 77.09375 44.375 
Q 74.3125 48.1875 68.609375 48.1875 
Q 61.625 48.1875 57.5625 43.546875 
Q 53.515625 38.921875 53.515625 30.90625 
L 53.515625 0 
L 44.484375 0 
L 44.484375 32.71875 
Q 44.484375 40.625 41.703125 44.40625 
Q 38.921875 48.1875 33.109375 48.1875 
Q 26.21875 48.1875 22.15625 43.53125 
Q 18.109375 38.875 18.109375 30.90625 
L 18.109375 0 
L 9.078125 0 
L 9.078125 54.6875 
L 18.109375 54.6875 
L 18.109375 46.1875 
Q 21.1875 51.21875 25.484375 53.609375 
Q 29.78125 56 35.6875 56 
Q 41.65625 56 45.828125 52.96875 
Q 50 49.953125 52 44.1875 
z
" id="DejaVuSans-6d"/>
      <path d="M 54.890625 33.015625 
L 54.890625 0 
L 45.90625 0 
L 45.90625 32.71875 
Q 45.90625 40.484375 42.875 44.328125 
Q 39.84375 48.1875 33.796875 48.1875 
Q 26.515625 48.1875 22.3125 43.546875 
Q 18.109375 38.921875 18.109375 30.90625 
L 18.109375 0 
L 9.078125 0 
L 9.078125 54.6875 
L 18.109375 54.6875 
L 18.109375 46.1875 
Q 21.34375 51.125 25.703125 53.5625 
Q 30.078125 56 35.796875 56 
Q 45.21875 56 50.046875 50.171875 
Q 54.890625 44.34375 54.890625 33.015625 
z
" id="DejaVuSans-6e"/>
      <path d="M 8.015625 75.875 
L 15.828125 75.875 
Q 23.140625 64.359375 26.78125 53.3125 
Q 30.421875 42.28125 30.421875 31.390625 
Q 30.421875 20.453125 26.78125 9.375 
Q 23.140625 -1.703125 15.828125 -13.1875 
L 8.015625 -13.1875 
Q 14.5 -2 17.703125 9.0625 
Q 20.90625 20.125 20.90625 31.390625 
Q 20.90625 42.671875 17.703125 53.65625 
Q 14.5 64.65625 8.015625 75.875 
z
" id="DejaVuSans-29"/>
     </defs>
     <g transform="translate(73.803219 338.153594)scale(0.17 -0.17)">
      <use xlink:href="#DejaVuSans-6c"/>
      <use x="27.783203" xlink:href="#DejaVuSans-6f"/>
      <use x="88.964844" xlink:href="#DejaVuSans-67"/>
      <use x="152.441406" xlink:href="#DejaVuSans-31"/>
      <use x="216.064453" xlink:href="#DejaVuSans-30"/>
      <use x="279.6875" xlink:href="#DejaVuSans-28"/>
      <use x="318.701172" xlink:href="#DejaVuSans-23"/>
      <use x="402.490234" xlink:href="#DejaVuSans-20"/>
      <use x="434.277344" xlink:href="#DejaVuSans-66"/>
      <use x="469.404297" xlink:href="#DejaVuSans-2d"/>
      <use x="505.488281" xlink:href="#DejaVuSans-65"/>
      <use x="567.011719" xlink:href="#DejaVuSans-76"/>
      <use x="626.191406" xlink:href="#DejaVuSans-61"/>
      <use x="687.470703" xlink:href="#DejaVuSans-6c"/>
      <use x="715.253906" xlink:href="#DejaVuSans-73"/>
      <use x="767.353516" xlink:href="#DejaVuSans-20"/>
      <use x="799.140625" xlink:href="#DejaVuSans-2f"/>
      <use x="832.832031" xlink:href="#DejaVuSans-20"/>
      <use x="864.619141" xlink:href="#DejaVuSans-64"/>
      <use x="928.095703" xlink:href="#DejaVuSans-69"/>
      <use x="955.878906" xlink:href="#DejaVuSans-6d"/>
      <use x="1053.291016" xlink:href="#DejaVuSans-65"/>
      <use x="1114.814453" xlink:href="#DejaVuSans-6e"/>
      <use x="1178.193359" xlink:href="#DejaVuSans-73"/>
      <use x="1230.292969" xlink:href="#DejaVuSans-69"/>
      <use x="1258.076172" xlink:href="#DejaVuSans-6f"/>
      <use x="1319.257812" xlink:href="#DejaVuSans-6e"/>
      <use x="1382.636719" xlink:href="#DejaVuSans-29"/>
     </g>
    </g>
   </g>
   <g id="matplotlib.axis_2">
    <g id="ytick_1">
     <g id="line2d_29">
      <path clip-path="url(#p24dea1d42c)" d="M 56.12 294.88 
L 333.168 294.88 
" style="fill:none;stroke:#b0b0b0;stroke-linecap:square;stroke-width:0.8;"/>
     </g>
     <g id="line2d_30">
      <defs>
       <path d="M 0 0 
L -3.5 0 
" id="m55392bc6f2" style="stroke:#000000;stroke-width:0.8;"/>
      </defs>
      <g>
       <use style="stroke:#000000;stroke-width:0.8;" x="56.12" xlink:href="#m55392bc6f2" y="294.88"/>
      </g>
     </g>
     <g id="text_6">
      <!-- 0.0 -->
      <defs>
       <path d="M 10.6875 12.40625 
L 21 12.40625 
L 21 0 
L 10.6875 0 
z
" id="DejaVuSans-2e"/>
      </defs>
      <g transform="translate(23.675 300.95875)scale(0.16 -0.16)">
       <use xlink:href="#DejaVuSans-30"/>
       <use x="63.623047" xlink:href="#DejaVuSans-2e"/>
       <use x="95.410156" xlink:href="#DejaVuSans-30"/>
      </g>
     </g>
    </g>
    <g id="ytick_2">
     <g id="line2d_31">
      <path clip-path="url(#p24dea1d42c)" d="M 56.12 237.843411 
L 333.168 237.843411 
" style="fill:none;stroke:#b0b0b0;stroke-linecap:square;stroke-width:0.8;"/>
     </g>
     <g id="line2d_32">
      <g>
       <use style="stroke:#000000;stroke-width:0.8;" x="56.12" xlink:href="#m55392bc6f2" y="237.843411"/>
      </g>
     </g>
     <g id="text_7">
      <!-- 0.2 -->
      <g transform="translate(23.675 243.922161)scale(0.16 -0.16)">
       <use xlink:href="#DejaVuSans-30"/>
       <use x="63.623047" xlink:href="#DejaVuSans-2e"/>
       <use x="95.410156" xlink:href="#DejaVuSans-32"/>
      </g>
     </g>
    </g>
    <g id="ytick_3">
     <g id="line2d_33">
      <path clip-path="url(#p24dea1d42c)" d="M 56.12 180.806823 
L 333.168 180.806823 
" style="fill:none;stroke:#b0b0b0;stroke-linecap:square;stroke-width:0.8;"/>
     </g>
     <g id="line2d_34">
      <g>
       <use style="stroke:#000000;stroke-width:0.8;" x="56.12" xlink:href="#m55392bc6f2" y="180.806823"/>
      </g>
     </g>
     <g id="text_8">
      <!-- 0.4 -->
      <g transform="translate(23.675 186.885573)scale(0.16 -0.16)">
       <use xlink:href="#DejaVuSans-30"/>
       <use x="63.623047" xlink:href="#DejaVuSans-2e"/>
       <use x="95.410156" xlink:href="#DejaVuSans-34"/>
      </g>
     </g>
    </g>
    <g id="ytick_4">
     <g id="line2d_35">
      <path clip-path="url(#p24dea1d42c)" d="M 56.12 123.770234 
L 333.168 123.770234 
" style="fill:none;stroke:#b0b0b0;stroke-linecap:square;stroke-width:0.8;"/>
     </g>
     <g id="line2d_36">
      <g>
       <use style="stroke:#000000;stroke-width:0.8;" x="56.12" xlink:href="#m55392bc6f2" y="123.770234"/>
      </g>
     </g>
     <g id="text_9">
      <!-- 0.6 -->
      <g transform="translate(23.675 129.848984)scale(0.16 -0.16)">
       <use xlink:href="#DejaVuSans-30"/>
       <use x="63.623047" xlink:href="#DejaVuSans-2e"/>
       <use x="95.410156" xlink:href="#DejaVuSans-36"/>
      </g>
     </g>
    </g>
    <g id="ytick_5">
     <g id="line2d_37">
      <path clip-path="url(#p24dea1d42c)" d="M 56.12 66.733646 
L 333.168 66.733646 
" style="fill:none;stroke:#b0b0b0;stroke-linecap:square;stroke-width:0.8;"/>
     </g>
     <g id="line2d_38">
      <g>
       <use style="stroke:#000000;stroke-width:0.8;" x="56.12" xlink:href="#m55392bc6f2" y="66.733646"/>
      </g>
     </g>
     <g id="text_10">
      <!-- 0.8 -->
      <defs>
       <path d="M 31.78125 34.625 
Q 24.75 34.625 20.71875 30.859375 
Q 16.703125 27.09375 16.703125 20.515625 
Q 16.703125 13.921875 20.71875 10.15625 
Q 24.75 6.390625 31.78125 6.390625 
Q 38.8125 6.390625 42.859375 10.171875 
Q 46.921875 13.96875 46.921875 20.515625 
Q 46.921875 27.09375 42.890625 30.859375 
Q 38.875 34.625 31.78125 34.625 
z
M 21.921875 38.8125 
Q 15.578125 40.375 12.03125 44.71875 
Q 8.5 49.078125 8.5 55.328125 
Q 8.5 64.0625 14.71875 69.140625 
Q 20.953125 74.21875 31.78125 74.21875 
Q 42.671875 74.21875 48.875 69.140625 
Q 55.078125 64.0625 55.078125 55.328125 
Q 55.078125 49.078125 51.53125 44.71875 
Q 48 40.375 41.703125 38.8125 
Q 48.828125 37.15625 52.796875 32.3125 
Q 56.78125 27.484375 56.78125 20.515625 
Q 56.78125 9.90625 50.3125 4.234375 
Q 43.84375 -1.421875 31.78125 -1.421875 
Q 19.734375 -1.421875 13.25 4.234375 
Q 6.78125 9.90625 6.78125 20.515625 
Q 6.78125 27.484375 10.78125 32.3125 
Q 14.796875 37.15625 21.921875 38.8125 
z
M 18.3125 54.390625 
Q 18.3125 48.734375 21.84375 45.5625 
Q 25.390625 42.390625 31.78125 42.390625 
Q 38.140625 42.390625 41.71875 45.5625 
Q 45.3125 48.734375 45.3125 54.390625 
Q 45.3125 60.0625 41.71875 63.234375 
Q 38.140625 66.40625 31.78125 66.40625 
Q 25.390625 66.40625 21.84375 63.234375 
Q 18.3125 60.0625 18.3125 54.390625 
z
" id="DejaVuSans-38"/>
      </defs>
      <g transform="translate(23.675 72.812396)scale(0.16 -0.16)">
       <use xlink:href="#DejaVuSans-30"/>
       <use x="63.623047" xlink:href="#DejaVuSans-2e"/>
       <use x="95.410156" xlink:href="#DejaVuSans-38"/>
      </g>
     </g>
    </g>
    <g id="ytick_6">
     <g id="line2d_39">
      <path clip-path="url(#p24dea1d42c)" d="M 56.12 9.697057 
L 333.168 9.697057 
" style="fill:none;stroke:#b0b0b0;stroke-linecap:square;stroke-width:0.8;"/>
     </g>
     <g id="line2d_40">
      <g>
       <use style="stroke:#000000;stroke-width:0.8;" x="56.12" xlink:href="#m55392bc6f2" y="9.697057"/>
      </g>
     </g>
     <g id="text_11">
      <!-- 1.0 -->
      <g transform="translate(23.675 15.775807)scale(0.16 -0.16)">
       <use xlink:href="#DejaVuSans-31"/>
       <use x="63.623047" xlink:href="#DejaVuSans-2e"/>
       <use x="95.410156" xlink:href="#DejaVuSans-30"/>
      </g>
     </g>
    </g>
    <g id="text_12">
     <!-- Fraction of function,target pairs -->
     <defs>
      <path d="M 9.8125 72.90625 
L 51.703125 72.90625 
L 51.703125 64.59375 
L 19.671875 64.59375 
L 19.671875 43.109375 
L 48.578125 43.109375 
L 48.578125 34.8125 
L 19.671875 34.8125 
L 19.671875 0 
L 9.8125 0 
z
" id="DejaVuSans-46"/>
      <path d="M 41.109375 46.296875 
Q 39.59375 47.171875 37.8125 47.578125 
Q 36.03125 48 33.890625 48 
Q 26.265625 48 22.1875 43.046875 
Q 18.109375 38.09375 18.109375 28.8125 
L 18.109375 0 
L 9.078125 0 
L 9.078125 54.6875 
L 18.109375 54.6875 
L 18.109375 46.1875 
Q 20.953125 51.171875 25.484375 53.578125 
Q 30.03125 56 36.53125 56 
Q 37.453125 56 38.578125 55.875 
Q 39.703125 55.765625 41.0625 55.515625 
z
" id="DejaVuSans-72"/>
      <path d="M 48.78125 52.59375 
L 48.78125 44.1875 
Q 44.96875 46.296875 41.140625 47.34375 
Q 37.3125 48.390625 33.40625 48.390625 
Q 24.65625 48.390625 19.8125 42.84375 
Q 14.984375 37.3125 14.984375 27.296875 
Q 14.984375 17.28125 19.8125 11.734375 
Q 24.65625 6.203125 33.40625 6.203125 
Q 37.3125 6.203125 41.140625 7.25 
Q 44.96875 8.296875 48.78125 10.40625 
L 48.78125 2.09375 
Q 45.015625 0.34375 40.984375 -0.53125 
Q 36.96875 -1.421875 32.421875 -1.421875 
Q 20.0625 -1.421875 12.78125 6.34375 
Q 5.515625 14.109375 5.515625 27.296875 
Q 5.515625 40.671875 12.859375 48.328125 
Q 20.21875 56 33.015625 56 
Q 37.15625 56 41.109375 55.140625 
Q 45.0625 54.296875 48.78125 52.59375 
z
" id="DejaVuSans-63"/>
      <path d="M 18.3125 70.21875 
L 18.3125 54.6875 
L 36.8125 54.6875 
L 36.8125 47.703125 
L 18.3125 47.703125 
L 18.3125 18.015625 
Q 18.3125 11.328125 20.140625 9.421875 
Q 21.96875 7.515625 27.59375 7.515625 
L 36.8125 7.515625 
L 36.8125 0 
L 27.59375 0 
Q 17.1875 0 13.234375 3.875 
Q 9.28125 7.765625 9.28125 18.015625 
L 9.28125 47.703125 
L 2.6875 47.703125 
L 2.6875 54.6875 
L 9.28125 54.6875 
L 9.28125 70.21875 
z
" id="DejaVuSans-74"/>
      <path d="M 8.5 21.578125 
L 8.5 54.6875 
L 17.484375 54.6875 
L 17.484375 21.921875 
Q 17.484375 14.15625 20.5 10.265625 
Q 23.53125 6.390625 29.59375 6.390625 
Q 36.859375 6.390625 41.078125 11.03125 
Q 45.3125 15.671875 45.3125 23.6875 
L 45.3125 54.6875 
L 54.296875 54.6875 
L 54.296875 0 
L 45.3125 0 
L 45.3125 8.40625 
Q 42.046875 3.421875 37.71875 1 
Q 33.40625 -1.421875 27.6875 -1.421875 
Q 18.265625 -1.421875 13.375 4.4375 
Q 8.5 10.296875 8.5 21.578125 
z
M 31.109375 56 
z
" id="DejaVuSans-75"/>
      <path d="M 11.71875 12.40625 
L 22.015625 12.40625 
L 22.015625 4 
L 14.015625 -11.625 
L 7.71875 -11.625 
L 11.71875 4 
z
" id="DejaVuSans-2c"/>
      <path d="M 18.109375 8.203125 
L 18.109375 -20.796875 
L 9.078125 -20.796875 
L 9.078125 54.6875 
L 18.109375 54.6875 
L 18.109375 46.390625 
Q 20.953125 51.265625 25.265625 53.625 
Q 29.59375 56 35.59375 56 
Q 45.5625 56 51.78125 48.09375 
Q 58.015625 40.1875 58.015625 27.296875 
Q 58.015625 14.40625 51.78125 6.484375 
Q 45.5625 -1.421875 35.59375 -1.421875 
Q 29.59375 -1.421875 25.265625 0.953125 
Q 20.953125 3.328125 18.109375 8.203125 
z
M 48.6875 27.296875 
Q 48.6875 37.203125 44.609375 42.84375 
Q 40.53125 48.484375 33.40625 48.484375 
Q 26.265625 48.484375 22.1875 42.84375 
Q 18.109375 37.203125 18.109375 27.296875 
Q 18.109375 17.390625 22.1875 11.75 
Q 26.265625 6.109375 33.40625 6.109375 
Q 40.53125 6.109375 44.609375 11.75 
Q 48.6875 17.390625 48.6875 27.296875 
z
" id="DejaVuSans-70"/>
     </defs>
     <g transform="translate(16.139531 286.001989)rotate(-90)scale(0.17 -0.17)">
      <use xlink:href="#DejaVuSans-46"/>
      <use x="57.410156" xlink:href="#DejaVuSans-72"/>
      <use x="98.523438" xlink:href="#DejaVuSans-61"/>
      <use x="159.802734" xlink:href="#DejaVuSans-63"/>
      <use x="214.783203" xlink:href="#DejaVuSans-74"/>
      <use x="253.992188" xlink:href="#DejaVuSans-69"/>
      <use x="281.775391" xlink:href="#DejaVuSans-6f"/>
      <use x="342.957031" xlink:href="#DejaVuSans-6e"/>
      <use x="406.335938" xlink:href="#DejaVuSans-20"/>
      <use x="438.123047" xlink:href="#DejaVuSans-6f"/>
      <use x="499.304688" xlink:href="#DejaVuSans-66"/>
      <use x="534.509766" xlink:href="#DejaVuSans-20"/>
      <use x="566.296875" xlink:href="#DejaVuSans-66"/>
      <use x="601.501953" xlink:href="#DejaVuSans-75"/>
      <use x="664.880859" xlink:href="#DejaVuSans-6e"/>
      <use x="728.259766" xlink:href="#DejaVuSans-63"/>
      <use x="783.240234" xlink:href="#DejaVuSans-74"/>
      <use x="822.449219" xlink:href="#DejaVuSans-69"/>
      <use x="850.232422" xlink:href="#DejaVuSans-6f"/>
      <use x="911.414062" xlink:href="#DejaVuSans-6e"/>
      <use x="974.792969" xlink:href="#DejaVuSans-2c"/>
      <use x="1006.580078" xlink:href="#DejaVuSans-74"/>
      <use x="1045.789062" xlink:href="#DejaVuSans-61"/>
      <use x="1107.068359" xlink:href="#DejaVuSans-72"/>
      <use x="1148.166016" xlink:href="#DejaVuSans-67"/>
      <use x="1211.642578" xlink:href="#DejaVuSans-65"/>
      <use x="1273.166016" xlink:href="#DejaVuSans-74"/>
      <use x="1312.375" xlink:href="#DejaVuSans-20"/>
      <use x="1344.162109" xlink:href="#DejaVuSans-70"/>
      <use x="1407.638672" xlink:href="#DejaVuSans-61"/>
      <use x="1468.917969" xlink:href="#DejaVuSans-69"/>
      <use x="1496.701172" xlink:href="#DejaVuSans-72"/>
      <use x="1537.814453" xlink:href="#DejaVuSans-73"/>
     </g>
    </g>
   </g>
   <g id="line2d_41">
    <defs>
     <path d="M 0 1.5 
C 0.397805 1.5 0.77937 1.341951 1.06066 1.06066 
C 1.341951 0.77937 1.5 0.397805 1.5 0 
C 1.5 -0.397805 1.341951 -0.77937 1.06066 -1.06066 
C 0.77937 -1.341951 0.397805 -1.5 0 -1.5 
C -0.397805 -1.5 -0.77937 -1.341951 -1.06066 -1.06066 
C -1.341951 -0.77937 -1.5 -0.397805 -1.5 0 
C -1.5 0.397805 -1.341951 0.77937 -1.06066 1.06066 
C -0.77937 1.341951 -0.397805 1.5 0 1.5 
z
" id="mb8ac378a7a" style="stroke:#f5deb3;"/>
    </defs>
    <g>
     <use style="fill:#f5deb3;stroke:#f5deb3;" x="139.653523" xlink:href="#mb8ac378a7a" y="9.697057"/>
     <use style="fill:#f5deb3;stroke:#f5deb3;" x="139.653523" xlink:href="#mb8ac378a7a" y="9.697057"/>
    </g>
   </g>
   <g id="line2d_42">
    <defs>
     <path d="M 0 1.5 
C 0.397805 1.5 0.77937 1.341951 1.06066 1.06066 
C 1.341951 0.77937 1.5 0.397805 1.5 0 
C 1.5 -0.397805 1.341951 -0.77937 1.06066 -1.06066 
C 0.77937 -1.341951 0.397805 -1.5 0 -1.5 
C -0.397805 -1.5 -0.77937 -1.341951 -1.06066 -1.06066 
C -1.341951 -0.77937 -1.5 -0.397805 -1.5 0 
C -1.5 0.397805 -1.341951 0.77937 -1.06066 1.06066 
C -0.77937 1.341951 -0.397805 1.5 0 1.5 
z
" id="mc4fe3538a5" style="stroke:#000080;"/>
    </defs>
    <g>
     <use style="fill:#000080;stroke:#000080;" x="200.810712" xlink:href="#mc4fe3538a5" y="62.81937"/>
     <use style="fill:#000080;stroke:#000080;" x="200.810712" xlink:href="#mc4fe3538a5" y="62.81937"/>
    </g>
   </g>
   <g id="line2d_43">
    <path d="M 44.205749 294.88 
L 44.205749 277.964737 
L 83.784035 277.964737 
L 83.784035 277.545351 
L 85.422286 277.545351 
L 85.422286 276.846373 
L 86.917893 276.846373 
L 86.917893 274.330053 
L 94.816624 274.330053 
L 94.816624 274.190257 
L 95.698286 274.190257 
L 95.698286 273.910666 
L 96.536922 273.910666 
L 96.536922 273.071893 
L 97.336537 273.071893 
L 97.336537 271.953528 
L 98.100602 271.953528 
L 98.100602 268.179048 
L 98.832144 268.179048 
L 98.832144 266.641297 
L 99.533818 266.641297 
L 99.533818 262.866817 
L 100.207968 262.866817 
L 100.207968 260.909679 
L 100.856673 260.909679 
L 100.856673 259.092337 
L 101.481783 259.092337 
L 101.481783 258.67295 
L 102.084955 258.67295 
L 102.084955 258.533154 
L 102.667676 258.533154 
L 102.667676 258.393359 
L 103.231288 258.393359 
L 103.231288 257.554585 
L 103.777005 257.554585 
L 103.777005 257.274994 
L 104.305927 257.274994 
L 104.305927 254.479083 
L 104.819059 254.479083 
L 104.819059 249.586238 
L 105.317315 249.586238 
L 105.317315 248.328078 
L 105.801534 248.328078 
L 105.801534 246.370941 
L 106.272485 246.370941 
L 106.272485 245.532167 
L 106.730875 245.532167 
L 106.730875 244.134212 
L 107.177358 244.134212 
L 107.177358 243.435234 
L 107.612537 243.435234 
L 107.612537 241.617892 
L 108.036969 241.617892 
L 108.036969 240.779118 
L 108.451173 240.779118 
L 108.451173 240.219936 
L 108.85563 240.219936 
L 108.85563 239.660754 
L 109.637066 239.660754 
L 109.637066 238.402594 
L 110.014853 238.402594 
L 110.014853 237.703616 
L 110.384516 237.703616 
L 110.384516 237.004638 
L 110.746395 237.004638 
L 110.746395 236.30566 
L 111.100812 236.30566 
L 111.100812 236.026069 
L 111.448069 236.026069 
L 111.448069 235.746478 
L 111.788449 235.746478 
L 111.788449 235.606682 
L 112.122219 235.606682 
L 112.122219 235.466887 
L 112.449632 235.466887 
L 112.449632 235.187296 
L 112.770924 235.187296 
L 112.770924 235.0475 
L 113.396034 235.0475 
L 113.396034 233.929136 
L 114.581927 233.929136 
L 114.581927 233.649545 
L 114.866043 233.649545 
L 114.866043 233.369954 
L 115.420563 233.369954 
L 115.420563 233.230158 
L 115.691256 233.230158 
L 115.691256 233.090362 
L 115.957752 233.090362 
L 115.957752 232.670976 
L 116.478659 232.670976 
L 116.478659 231.27302 
L 116.73331 231.27302 
L 116.73331 230.993429 
L 116.984244 230.993429 
L 116.984244 230.574042 
L 117.231566 230.574042 
L 117.231566 230.01486 
L 117.475381 230.01486 
L 117.475381 229.735269 
L 117.715785 229.735269 
L 117.715785 229.455678 
L 117.952873 229.455678 
L 117.952873 229.036291 
L 118.417459 229.036291 
L 118.417459 227.917927 
L 118.645127 227.917927 
L 118.645127 227.358744 
L 118.869818 227.358744 
L 118.869818 227.218949 
L 119.09161 227.218949 
L 119.09161 226.100584 
L 119.310576 226.100584 
L 119.310576 225.122015 
L 119.526788 225.122015 
L 119.526788 224.423038 
L 119.740314 224.423038 
L 119.740314 223.72406 
L 119.95122 223.72406 
L 119.95122 223.444469 
L 120.15957 223.444469 
L 120.15957 222.605695 
L 120.365424 222.605695 
L 120.365424 221.766922 
L 120.568842 221.766922 
L 120.568842 221.487331 
L 120.769881 221.487331 
L 120.769881 220.508762 
L 120.968596 220.508762 
L 120.968596 220.229171 
L 121.16504 220.229171 
L 121.16504 218.551624 
L 121.359263 218.551624 
L 121.359263 216.594486 
L 121.551317 216.594486 
L 121.551317 215.196531 
L 121.741249 215.196531 
L 121.741249 214.078166 
L 121.929105 214.078166 
L 121.929105 213.099597 
L 122.114929 213.099597 
L 122.114929 211.841437 
L 122.298767 211.841437 
L 122.298767 209.185322 
L 122.480659 209.185322 
L 122.480659 208.206753 
L 122.660646 208.206753 
L 122.660646 207.64757 
L 122.838768 207.64757 
L 122.838768 206.808797 
L 123.015063 206.808797 
L 123.015063 205.690433 
L 123.189569 205.690433 
L 123.189569 203.733295 
L 123.36232 203.733295 
L 123.36232 201.35677 
L 123.533353 201.35677 
L 123.533353 200.09861 
L 123.7027 200.09861 
L 123.7027 198.980246 
L 123.870396 198.980246 
L 123.870396 197.442495 
L 124.036471 197.442495 
L 124.036471 196.044539 
L 124.200956 196.044539 
L 124.200956 193.248628 
L 124.363883 193.248628 
L 124.363883 191.29149 
L 124.52528 191.29149 
L 124.52528 189.194556 
L 124.685175 189.194556 
L 124.685175 187.936396 
L 124.843597 187.936396 
L 124.843597 184.581303 
L 125.000572 184.581303 
L 125.000572 183.043552 
L 125.156126 183.043552 
L 125.156126 180.667027 
L 125.310285 180.667027 
L 125.310285 179.129276 
L 125.463074 179.129276 
L 125.463074 177.172138 
L 125.614517 177.172138 
L 125.614517 176.892547 
L 125.764637 176.892547 
L 125.764637 175.913978 
L 125.913457 175.913978 
L 125.913457 175.494592 
L 126.061 175.494592 
L 126.061 171.300725 
L 126.207287 171.300725 
L 126.207287 169.343587 
L 126.352339 169.343587 
L 126.352339 168.085427 
L 126.496178 168.085427 
L 126.496178 165.848698 
L 126.638823 165.848698 
L 126.638823 164.310947 
L 126.780294 164.310947 
L 126.780294 162.353809 
L 126.92061 162.353809 
L 126.92061 160.676262 
L 127.05979 160.676262 
L 127.05979 157.880351 
L 127.197852 157.880351 
L 127.197852 155.783418 
L 127.334814 155.783418 
L 127.334814 154.105871 
L 127.470694 154.105871 
L 127.470694 152.847711 
L 127.605507 152.847711 
L 127.605507 150.0518 
L 127.739271 150.0518 
L 127.739271 147.954866 
L 127.872003 147.954866 
L 127.872003 146.556911 
L 128.003717 146.556911 
L 128.003717 145.019159 
L 128.13443 145.019159 
L 128.13443 142.083453 
L 128.264156 142.083453 
L 128.264156 139.846724 
L 128.39291 139.846724 
L 128.39291 137.74979 
L 128.520707 137.74979 
L 128.520707 136.351835 
L 128.647561 136.351835 
L 128.647561 134.254901 
L 128.773486 134.254901 
L 128.773486 133.136537 
L 128.898495 133.136537 
L 128.898495 131.738581 
L 129.022601 131.738581 
L 129.022601 130.480421 
L 129.145817 130.480421 
L 129.145817 129.222261 
L 129.268157 129.222261 
L 129.268157 127.404919 
L 129.389632 127.404919 
L 129.389632 126.845737 
L 129.510254 126.845737 
L 129.510254 124.748803 
L 129.630036 124.748803 
L 129.630036 123.490643 
L 129.748989 123.490643 
L 129.748989 122.512074 
L 129.867125 122.512074 
L 129.867125 121.813096 
L 129.984454 121.813096 
L 129.984454 120.275345 
L 130.100987 120.275345 
L 130.100987 117.61923 
L 130.216736 117.61923 
L 130.216736 116.640661 
L 130.33171 116.640661 
L 130.33171 114.543727 
L 130.445921 114.543727 
L 130.445921 113.84475 
L 130.559378 113.84475 
L 130.559378 111.468225 
L 130.67209 111.468225 
L 130.67209 110.769247 
L 130.784069 110.769247 
L 130.784069 109.790678 
L 130.895323 109.790678 
L 131.005861 108.392723 
L 131.115693 108.392723 
L 131.224827 105.037629 
L 131.333273 105.037629 
L 131.441039 104.478447 
L 131.548134 104.478447 
L 131.654565 103.080491 
L 131.760342 103.080491 
L 131.865471 100.004989 
L 131.969962 100.004989 
L 132.073821 99.306011 
L 132.177056 99.306011 
L 132.279675 97.069282 
L 132.483094 97.069282 
L 132.583907 95.25194 
L 132.684132 95.25194 
L 132.783777 94.133576 
L 132.882847 94.133576 
L 132.98135 93.714189 
L 133.079291 93.714189 
L 133.176677 92.036642 
L 133.273515 92.036642 
L 133.36981 91.197869 
L 133.465568 91.197869 
L 133.560797 90.2193 
L 133.6555 90.2193 
L 133.749684 88.401958 
L 133.843356 88.401958 
L 133.936519 87.283593 
L 134.029181 87.283593 
L 134.121345 86.44482 
L 134.213018 86.44482 
L 134.304205 85.606046 
L 134.39491 85.606046 
L 134.485139 85.18666 
L 134.574897 85.18666 
L 134.664189 84.767273 
L 134.753019 84.767273 
L 134.841393 84.208091 
L 134.929315 84.208091 
L 135.016789 83.9285 
L 135.10382 83.9285 
L 135.10382 83.788704 
L 135.276571 83.788704 
L 135.276571 83.509113 
L 135.532486 83.509113 
L 135.616951 83.089726 
L 135.701004 83.089726 
L 135.784647 82.111157 
L 135.867885 82.111157 
L 135.867885 81.971362 
L 136.033161 81.971362 
L 136.115208 81.551975 
L 136.196864 81.551975 
L 136.278134 80.713202 
L 136.836515 80.713202 
L 136.836515 80.433611 
L 136.992776 80.433611 
L 137.070377 79.455042 
L 137.14763 79.455042 
L 137.224536 79.175451 
L 137.377325 79.175451 
L 137.453213 78.336677 
L 137.603992 78.336677 
L 137.603992 78.057086 
L 137.753459 78.057086 
L 137.827708 77.218313 
L 137.901638 77.218313 
L 137.901638 77.078517 
L 138.121538 77.078517 
L 138.121538 76.798926 
L 138.410429 76.798926 
L 138.4819 75.680562 
L 138.764847 75.680562 
L 138.764847 75.540766 
L 139.384945 75.540766 
L 139.452484 74.701993 
L 139.653523 74.701993 
L 139.653523 74.562197 
L 139.852237 74.562197 
L 139.852237 74.422402 
L 140.113666 74.422402 
L 140.113666 74.14281 
L 140.498503 74.14281 
L 140.498503 73.723424 
L 140.750355 73.723424 
L 140.812746 73.304037 
L 142.130987 73.304037 
L 142.130987 73.164241 
L 142.473629 73.164241 
L 142.473629 73.024446 
L 142.586342 73.024446 
L 142.586342 72.88465 
L 142.975116 72.88465 
L 142.975116 72.744855 
L 143.301492 72.744855 
L 143.35529 72.325468 
L 143.462385 72.325468 
L 143.462385 72.185673 
L 144.397345 72.185673 
L 144.498158 71.906081 
L 144.598384 71.906081 
L 144.698028 71.207104 
L 144.84642 71.207104 
L 144.84642 71.067308 
L 144.993542 71.067308 
L 144.993542 70.927513 
L 145.139415 70.927513 
L 145.139415 70.787717 
L 145.284061 70.787717 
L 145.332007 70.508126 
L 145.663936 70.508126 
L 145.663936 70.36833 
L 146.081494 70.36833 
L 146.081494 70.088739 
L 146.263868 70.088739 
L 146.263868 69.948944 
L 146.887358 69.948944 
L 146.887358 69.669352 
L 147.104664 69.669352 
L 147.104664 69.529557 
L 147.531203 69.529557 
L 147.531203 69.389761 
L 147.947413 69.389761 
L 147.988485 69.11017 
L 148.433916 69.11017 
L 148.433916 68.970375 
L 148.593071 68.970375 
L 148.63263 68.690784 
L 149.329562 68.690784 
L 149.329562 68.550988 
L 150.853603 68.550988 
L 150.853603 68.411192 
L 150.991943 68.411192 
L 150.991943 68.271397 
L 151.265327 68.271397 
L 151.265327 68.131601 
L 151.700505 68.131601 
L 151.700505 67.991806 
L 151.930347 67.991806 
L 151.995456 67.712215 
L 152.34921 67.712215 
L 152.34921 67.572419 
L 152.69583 67.572419 
L 152.69583 67.432624 
L 152.851103 67.432624 
L 152.851103 67.292828 
L 154.331245 67.292828 
L 154.331245 67.153032 
L 154.640452 67.153032 
L 154.640452 67.013237 
L 156.210188 67.013237 
L 156.210188 66.873441 
L 157.02944 66.873441 
L 157.02944 66.733646 
L 157.834564 66.733646 
L 157.834564 66.59385 
L 158.064362 66.59385 
L 158.087174 66.314259 
L 160.408023 66.314259 
L 160.408023 66.174463 
L 161.186803 66.174463 
L 161.186803 66.034668 
L 161.803753 66.034668 
L 161.913585 65.755077 
L 163.465361 65.755077 
L 163.465361 65.615281 
L 164.374509 65.615281 
L 164.374509 65.475486 
L 165.565672 65.475486 
L 165.565672 65.33569 
L 165.712585 65.33569 
L 165.712585 65.195895 
L 166.017073 65.195895 
L 166.017073 65.056099 
L 166.188675 65.056099 
L 166.188675 64.916303 
L 169.136553 64.916303 
L 169.136553 64.776508 
L 170.148968 64.776508 
L 170.148968 64.636712 
L 170.562096 64.636712 
L 170.562096 64.496917 
L 171.222238 64.496917 
L 171.222238 64.357121 
L 172.041145 64.357121 
L 172.041145 64.217326 
L 172.53998 64.217326 
L 172.53998 64.07753 
L 172.784071 64.07753 
L 172.784071 63.937735 
L 174.357865 63.937735 
L 174.357865 63.797939 
L 175.611447 63.797939 
L 175.611447 63.658143 
L 177.45039 63.658143 
L 177.45039 63.518348 
L 179.098044 63.518348 
L 179.098044 63.378552 
L 182.684696 63.378552 
L 182.684696 63.238757 
L 187.656785 63.238757 
L 187.656785 63.098961 
L 198.048698 63.098961 
L 198.048698 62.959166 
L 200.810712 62.959166 
L 200.810712 62.81937 
L 333.168 62.81937 
L 333.168 62.81937 
" style="fill:none;stroke:#000080;stroke-linecap:square;stroke-width:1.5;"/>
   </g>
   <g id="line2d_44">
    <defs>
     <path d="M 0 6 
C 1.591219 6 3.117479 5.367802 4.242641 4.242641 
C 5.367802 3.117479 6 1.591219 6 0 
C 6 -1.591219 5.367802 -3.117479 4.242641 -4.242641 
C 3.117479 -5.367802 1.591219 -6 0 -6 
C -1.591219 -6 -3.117479 -5.367802 -4.242641 -4.242641 
C -5.367802 -3.117479 -6 -1.591219 -6 0 
C -6 1.591219 -5.367802 3.117479 -4.242641 4.242641 
C -3.117479 5.367802 -1.591219 6 0 6 
z
" id="m2af2efe6ff" style="stroke:#000080;stroke-width:1.5;"/>
    </defs>
    <g>
     <use style="fill:none;stroke:#000080;stroke-width:1.5;" x="125.000572" xlink:href="#m2af2efe6ff" y="184.581303"/>
     <use style="fill:none;stroke:#000080;stroke-width:1.5;" x="166.188675" xlink:href="#m2af2efe6ff" y="65.056099"/>
     <use style="fill:none;stroke:#000080;stroke-width:1.5;" x="200.810712" xlink:href="#m2af2efe6ff" y="62.959166"/>
     <use style="fill:none;stroke:#000080;stroke-width:1.5;" x="200.810712" xlink:href="#m2af2efe6ff" y="62.81937"/>
     <use style="fill:none;stroke:#000080;stroke-width:1.5;" x="333.168" xlink:href="#m2af2efe6ff" y="62.81937"/>
    </g>
   </g>
   <g id="line2d_45">
    <path style="fill:none;stroke:#000080;stroke-linecap:square;stroke-width:1.5;"/>
    <g/>
   </g>
   <g id="line2d_46">
    <path clip-path="url(#p24dea1d42c)" d="M 85.422286 276.846373 
" style="fill:none;stroke:#000080;stroke-linecap:square;stroke-width:1.5;"/>
    <defs>
     <path d="M -12 12 
L 12 -12 
M -12 -12 
L 12 12 
" id="m725970a18b" style="stroke:#000080;"/>
    </defs>
    <g clip-path="url(#p24dea1d42c)">
     <use style="fill:#000080;stroke:#000080;" x="85.422286" xlink:href="#m725970a18b" y="276.846373"/>
    </g>
   </g>
   <g id="line2d_47">
    <defs>
     <path d="M 0 1.5 
C 0.397805 1.5 0.77937 1.341951 1.06066 1.06066 
C 1.341951 0.77937 1.5 0.397805 1.5 0 
C 1.5 -0.397805 1.341951 -0.77937 1.06066 -1.06066 
C 0.77937 -1.341951 0.397805 -1.5 0 -1.5 
C -0.397805 -1.5 -0.77937 -1.341951 -1.06066 -1.06066 
C -1.341951 -0.77937 -1.5 -0.397805 -1.5 0 
C -1.5 0.397805 -1.341951 0.77937 -1.06066 1.06066 
C -0.77937 1.341951 -0.397805 1.5 0 1.5 
z
" id="m5871e52bd9" style="stroke:#ff00ff;"/>
    </defs>
    <g>
     <use style="fill:#ff00ff;stroke:#ff00ff;" x="194.019797" xlink:href="#m5871e52bd9" y="62.81937"/>
     <use style="fill:#ff00ff;stroke:#ff00ff;" x="194.019797" xlink:href="#m5871e52bd9" y="62.81937"/>
    </g>
   </g>
   <g id="line2d_48">
    <path d="M 44.205749 294.88 
L 44.205749 278.104533 
L 83.784035 278.104533 
L 83.784035 277.824942 
L 85.422286 277.824942 
L 85.422286 277.265759 
L 86.917893 277.265759 
L 86.917893 273.631075 
L 94.816624 273.631075 
L 94.816624 273.351484 
L 95.698286 273.351484 
L 95.698286 272.792301 
L 96.536922 272.792301 
L 96.536922 272.233119 
L 97.336537 272.233119 
L 97.336537 271.25455 
L 98.100602 271.25455 
L 98.100602 268.318844 
L 98.832144 268.318844 
L 98.832144 266.641297 
L 99.533818 266.641297 
L 99.533818 263.006612 
L 100.207968 263.006612 
L 100.207968 260.909679 
L 100.856673 260.909679 
L 100.856673 259.092337 
L 101.481783 259.092337 
L 101.481783 258.67295 
L 102.667676 258.67295 
L 102.667676 258.533154 
L 103.231288 258.533154 
L 103.231288 257.41479 
L 103.777005 257.41479 
L 103.777005 256.576016 
L 104.305927 256.576016 
L 104.305927 253.500514 
L 104.819059 253.500514 
L 104.819059 249.166852 
L 105.317315 249.166852 
L 105.317315 248.328078 
L 105.801534 248.328078 
L 105.801534 246.231145 
L 106.272485 246.231145 
L 106.272485 245.252576 
L 106.730875 245.252576 
L 106.730875 244.134212 
L 107.177358 244.134212 
L 107.177358 243.854621 
L 107.612537 243.854621 
L 107.612537 242.177074 
L 108.036969 242.177074 
L 108.036969 241.058709 
L 108.451173 241.058709 
L 108.451173 240.359732 
L 108.85563 240.359732 
L 108.85563 239.800549 
L 109.637066 239.800549 
L 109.637066 238.402594 
L 110.014853 238.402594 
L 110.014853 237.424025 
L 110.384516 237.424025 
L 110.384516 236.864843 
L 110.746395 236.864843 
L 110.746395 236.30566 
L 111.100812 236.30566 
L 111.100812 236.026069 
L 111.448069 236.026069 
L 111.448069 235.746478 
L 111.788449 235.746478 
L 111.788449 235.327091 
L 112.122219 235.327091 
L 112.122219 235.0475 
L 112.449632 235.0475 
L 112.449632 234.907705 
L 112.770924 234.907705 
L 112.770924 234.767909 
L 113.396034 234.767909 
L 113.396034 234.488318 
L 113.700266 234.488318 
L 113.700266 234.348522 
L 113.999206 234.348522 
L 113.999206 234.208727 
L 114.581927 234.208727 
L 114.581927 233.929136 
L 114.866043 233.929136 
L 114.866043 233.78934 
L 115.420563 233.78934 
L 115.420563 233.649545 
L 115.957752 233.649545 
L 115.957752 233.369954 
L 116.478659 233.369954 
L 116.478659 231.692407 
L 116.73331 231.692407 
L 116.73331 231.412816 
L 116.984244 231.412816 
L 116.984244 230.993429 
L 117.231566 230.993429 
L 117.231566 230.713838 
L 117.475381 230.713838 
L 117.475381 230.574042 
L 117.715785 230.574042 
L 117.715785 230.434247 
L 117.952873 230.434247 
L 117.952873 229.735269 
L 118.186736 229.735269 
L 118.186736 229.455678 
L 118.417459 229.455678 
L 118.417459 228.337313 
L 118.645127 228.337313 
L 118.645127 227.778131 
L 118.869818 227.778131 
L 118.869818 227.49854 
L 119.09161 227.49854 
L 119.09161 227.079153 
L 119.310576 227.079153 
L 119.310576 226.24038 
L 119.526788 226.24038 
L 119.526788 225.261811 
L 119.740314 225.261811 
L 119.740314 224.423038 
L 119.95122 224.423038 
L 119.95122 224.003651 
L 120.15957 224.003651 
L 120.15957 223.304673 
L 120.365424 223.304673 
L 120.365424 222.186309 
L 120.568842 222.186309 
L 120.568842 221.906718 
L 120.769881 221.906718 
L 120.769881 220.648558 
L 120.968596 220.648558 
L 120.968596 220.229171 
L 121.16504 220.229171 
L 121.16504 218.69142 
L 121.359263 218.69142 
L 121.359263 216.734282 
L 121.551317 216.734282 
L 121.551317 215.615917 
L 121.741249 215.615917 
L 121.741249 214.91694 
L 121.929105 214.91694 
L 121.929105 214.078166 
L 122.114929 214.078166 
L 122.114929 212.820006 
L 122.298767 212.820006 
L 122.298767 210.163891 
L 122.480659 210.163891 
L 122.480659 209.464913 
L 122.660646 209.464913 
L 122.660646 208.90573 
L 122.838768 208.90573 
L 122.838768 208.066957 
L 123.015063 208.066957 
L 123.015063 207.228184 
L 123.189569 207.228184 
L 123.189569 205.690433 
L 123.36232 205.690433 
L 123.36232 202.754726 
L 123.533353 202.754726 
L 123.533353 200.797588 
L 123.7027 200.797588 
L 123.7027 199.958815 
L 123.870396 199.958815 
L 123.870396 198.421063 
L 124.036471 198.421063 
L 124.036471 196.603721 
L 124.200956 196.603721 
L 124.200956 194.227197 
L 124.363883 194.227197 
L 124.363883 191.710877 
L 124.52528 191.710877 
L 124.52528 190.03333 
L 124.685175 190.03333 
L 124.685175 189.054761 
L 124.843597 189.054761 
L 124.843597 185.699667 
L 125.000572 185.699667 
L 125.000572 183.462939 
L 125.156126 183.462939 
L 125.156126 180.946618 
L 125.310285 180.946618 
L 125.310285 179.269072 
L 125.463074 179.269072 
L 125.463074 177.591525 
L 125.614517 177.591525 
L 125.614517 177.311934 
L 125.764637 177.311934 
L 125.764637 176.053774 
L 125.913457 176.053774 
L 125.913457 175.774183 
L 126.061 175.774183 
L 126.061 171.720111 
L 126.207287 171.720111 
L 126.207287 169.902769 
L 126.352339 169.902769 
L 126.352339 168.504814 
L 126.496178 168.504814 
L 126.496178 167.106858 
L 126.638823 167.106858 
L 126.638823 165.988493 
L 126.780294 165.988493 
L 126.780294 163.751765 
L 126.92061 163.751765 
L 126.92061 161.794627 
L 127.05979 161.794627 
L 127.05979 158.439533 
L 127.197852 158.439533 
L 127.197852 157.181373 
L 127.334814 157.181373 
L 127.334814 155.364031 
L 127.470694 155.364031 
L 127.470694 154.245666 
L 127.605507 154.245666 
L 127.605507 151.30996 
L 127.739271 151.30996 
L 127.739271 149.213026 
L 127.872003 149.213026 
L 127.872003 147.815071 
L 128.003717 147.815071 
L 128.003717 146.417115 
L 128.13443 146.417115 
L 128.13443 142.502839 
L 128.264156 142.502839 
L 128.264156 139.287541 
L 128.39291 139.287541 
L 128.39291 137.330404 
L 128.520707 137.330404 
L 128.520707 136.351835 
L 128.647561 136.351835 
L 128.647561 134.394697 
L 128.773486 134.394697 
L 128.773486 133.276332 
L 128.898495 133.276332 
L 128.898495 132.018172 
L 129.022601 132.018172 
L 129.022601 130.760012 
L 129.145817 130.760012 
L 129.145817 129.362057 
L 129.268157 129.362057 
L 129.268157 127.68451 
L 129.389632 127.68451 
L 129.389632 126.566145 
L 129.510254 126.566145 
L 129.510254 124.888599 
L 129.630036 124.888599 
L 129.630036 123.630439 
L 129.748989 123.630439 
L 129.748989 123.071256 
L 129.867125 123.071256 
L 129.867125 122.232483 
L 129.984454 122.232483 
L 129.984454 120.554936 
L 130.100987 120.554936 
L 130.100987 117.479434 
L 130.216736 117.479434 
L 130.216736 116.36107 
L 130.33171 116.36107 
L 130.33171 113.984545 
L 130.445921 113.984545 
L 130.445921 113.425363 
L 130.559378 113.425363 
L 130.559378 111.328429 
L 130.67209 111.328429 
L 130.67209 110.629452 
L 130.784069 110.629452 
L 130.784069 109.650883 
L 130.895323 109.650883 
L 131.005861 108.252927 
L 131.115693 108.252927 
L 131.224827 105.596811 
L 131.333273 105.596811 
L 131.441039 104.758038 
L 131.548134 104.758038 
L 131.654565 102.940696 
L 131.760342 102.940696 
L 131.865471 100.144785 
L 131.969962 100.144785 
L 132.073821 99.02642 
L 132.177056 99.02642 
L 132.279675 96.929487 
L 132.381685 96.929487 
L 132.483094 95.950918 
L 132.583907 95.950918 
L 132.684132 95.112144 
L 132.783777 95.112144 
L 132.882847 94.273371 
L 133.079291 94.273371 
L 133.176677 92.73562 
L 133.273515 92.73562 
L 133.36981 92.036642 
L 133.465568 92.036642 
L 133.560797 91.197869 
L 133.6555 91.197869 
L 133.749684 89.939709 
L 133.843356 89.939709 
L 133.936519 89.100935 
L 134.029181 89.100935 
L 134.121345 88.262162 
L 134.213018 88.262162 
L 134.213018 87.70298 
L 134.39491 87.70298 
L 134.485139 87.283593 
L 134.574897 87.283593 
L 134.664189 86.864206 
L 134.753019 86.864206 
L 134.841393 85.745842 
L 134.929315 85.745842 
L 135.016789 85.18666 
L 135.10382 85.18666 
L 135.190413 84.487682 
L 135.276571 84.487682 
L 135.3623 83.788704 
L 135.701004 83.788704 
L 135.784647 82.949931 
L 136.115208 82.949931 
L 136.196864 81.551975 
L 136.278134 81.551975 
L 136.359022 81.272384 
L 136.519665 81.272384 
L 136.519665 81.132588 
L 136.757848 81.132588 
L 136.836515 80.852997 
L 136.992776 80.852997 
L 137.070377 80.014224 
L 137.301101 80.014224 
L 137.377325 79.594837 
L 137.453213 79.594837 
L 137.453213 79.035655 
L 137.603992 79.035655 
L 137.678888 78.756064 
L 137.827708 78.756064 
L 137.901638 77.358108 
L 138.04855 77.358108 
L 138.121538 76.798926 
L 138.33866 76.798926 
L 138.410429 76.379539 
L 138.4819 76.379539 
L 138.553074 75.40097 
L 138.623956 75.40097 
L 138.623956 75.261175 
L 138.764847 75.261175 
L 138.834862 74.701993 
L 139.317139 74.701993 
L 139.384945 74.282606 
L 139.452484 74.282606 
L 139.452484 73.863219 
L 140.113666 73.863219 
L 140.113666 73.443833 
L 140.498503 73.443833 
L 140.498503 72.88465 
L 141.603867 72.88465 
L 141.603867 72.744855 
L 142.130987 72.744855 
L 142.130987 72.605059 
L 142.586342 72.605059 
L 142.586342 72.465264 
L 142.754037 72.465264 
L 142.754037 72.325468 
L 142.920112 72.325468 
L 142.920112 72.185673 
L 143.727238 72.185673 
L 143.727238 72.045877 
L 143.988072 72.045877 
L 143.988072 71.906081 
L 144.193927 71.906081 
L 144.193927 71.766286 
L 144.346715 71.766286 
L 144.397345 71.346899 
L 144.498158 71.346899 
L 144.548344 71.067308 
L 144.84642 71.067308 
L 144.84642 70.647921 
L 145.090928 70.647921 
L 145.090928 70.508126 
L 145.332007 70.508126 
L 145.332007 70.36833 
L 145.757607 70.36833 
L 145.757607 70.228535 
L 146.755644 70.228535 
L 146.843566 69.809148 
L 146.887358 69.809148 
L 146.887358 69.669352 
L 147.276552 69.669352 
L 147.276552 69.529557 
L 148.111115 69.529557 
L 148.111115 69.389761 
L 148.711478 69.389761 
L 148.711478 69.249966 
L 149.962801 69.249966 
L 149.999334 68.970375 
L 150.108469 68.970375 
L 150.108469 68.830579 
L 151.060698 68.830579 
L 151.060698 68.690784 
L 151.197387 68.690784 
L 151.197387 68.550988 
L 151.700505 68.550988 
L 151.700505 68.411192 
L 151.930347 68.411192 
L 151.930347 68.271397 
L 152.943598 68.271397 
L 152.943598 68.131601 
L 154.016374 68.131601 
L 154.016374 67.991806 
L 154.806795 67.991806 
L 154.806795 67.85201 
L 155.18878 67.85201 
L 155.18878 67.712215 
L 155.667752 67.712215 
L 155.667752 67.572419 
L 156.056945 67.572419 
L 156.056945 67.432624 
L 156.311596 67.432624 
L 156.311596 67.292828 
L 157.972811 67.292828 
L 157.972811 67.153032 
L 159.592276 67.153032 
L 159.592276 67.013237 
L 160.066049 67.013237 
L 160.066049 66.873441 
L 160.268033 66.873441 
L 160.268033 66.733646 
L 160.684628 66.733646 
L 160.684628 66.59385 
L 161.674723 66.59385 
L 161.674723 66.454055 
L 163.026335 66.454055 
L 163.026335 66.314259 
L 163.431985 66.314259 
L 163.531919 66.034668 
L 163.746471 66.034668 
L 163.746471 65.894872 
L 164.641248 65.894872 
L 164.641248 65.755077 
L 165.222932 65.755077 
L 165.268026 65.475486 
L 166.967581 65.475486 
L 166.967581 65.33569 
L 167.437061 65.33569 
L 167.437061 65.195895 
L 168.175218 65.195895 
L 168.175218 65.056099 
L 168.32666 65.056099 
L 168.32666 64.916303 
L 169.492438 64.916303 
L 169.492438 64.776508 
L 172.01075 64.776508 
L 172.01075 64.636712 
L 175.73437 64.636712 
L 175.73437 64.496917 
L 176.58661 64.496917 
L 176.58661 64.357121 
L 177.981552 64.357121 
L 177.981552 64.217326 
L 178.510692 64.217326 
L 178.510692 64.07753 
L 178.806876 64.07753 
L 178.806876 63.937735 
L 180.29736 63.937735 
L 180.29736 63.797939 
L 181.703504 63.797939 
L 181.703504 63.658143 
L 183.194782 63.658143 
L 183.194782 63.518348 
L 186.914594 63.518348 
L 186.914594 63.378552 
L 187.172566 63.378552 
L 187.172566 63.238757 
L 188.187191 63.238757 
L 188.187191 63.098961 
L 191.570492 63.098961 
L 191.570492 62.959166 
L 194.019797 62.959166 
L 194.019797 62.81937 
L 333.168 62.81937 
L 333.168 62.81937 
" style="fill:none;stroke:#ff00ff;stroke-linecap:square;stroke-width:1.5;"/>
   </g>
   <g id="line2d_49">
    <defs>
     <path d="M -0 8.485281 
L 5.091169 0 
L 0 -8.485281 
L -5.091169 -0 
z
" id="m89ce6e08d5" style="stroke:#ff00ff;stroke-linejoin:miter;stroke-width:1.5;"/>
    </defs>
    <g>
     <use style="fill:none;stroke:#ff00ff;stroke-linejoin:miter;stroke-width:1.5;" x="98.100602" xlink:href="#m89ce6e08d5" y="271.25455"/>
     <use style="fill:none;stroke:#ff00ff;stroke-linejoin:miter;stroke-width:1.5;" x="127.605507" xlink:href="#m89ce6e08d5" y="154.245666"/>
     <use style="fill:none;stroke:#ff00ff;stroke-linejoin:miter;stroke-width:1.5;" x="176.58661" xlink:href="#m89ce6e08d5" y="64.357121"/>
     <use style="fill:none;stroke:#ff00ff;stroke-linejoin:miter;stroke-width:1.5;" x="194.019797" xlink:href="#m89ce6e08d5" y="62.81937"/>
     <use style="fill:none;stroke:#ff00ff;stroke-linejoin:miter;stroke-width:1.5;" x="194.019797" xlink:href="#m89ce6e08d5" y="62.81937"/>
     <use style="fill:none;stroke:#ff00ff;stroke-linejoin:miter;stroke-width:1.5;" x="333.168" xlink:href="#m89ce6e08d5" y="62.81937"/>
    </g>
   </g>
   <g id="line2d_50">
    <path style="fill:none;stroke:#ff00ff;stroke-linecap:square;stroke-width:1.5;"/>
    <g/>
   </g>
   <g id="line2d_51">
    <path clip-path="url(#p24dea1d42c)" d="M 85.422286 277.265759 
" style="fill:none;stroke:#ff00ff;stroke-linecap:square;stroke-width:1.5;"/>
    <defs>
     <path d="M -12 12 
L 12 -12 
M -12 -12 
L 12 12 
" id="me02d35daad" style="stroke:#ff00ff;"/>
    </defs>
    <g clip-path="url(#p24dea1d42c)">
     <use style="fill:#ff00ff;stroke:#ff00ff;" x="85.422286" xlink:href="#me02d35daad" y="277.265759"/>
    </g>
   </g>
   <g id="line2d_52">
    <path d="M 333.168 62.81937 
L 363.64328 289.176341 
" style="fill:none;stroke:#000080;stroke-linecap:square;stroke-width:1.5;"/>
    <g>
     <use style="fill:none;stroke:#000080;stroke-width:1.5;" x="333.168" xlink:href="#m2af2efe6ff" y="62.81937"/>
     <use style="fill:none;stroke:#000080;stroke-width:1.5;" x="363.64328" xlink:href="#m2af2efe6ff" y="289.176341"/>
    </g>
   </g>
   <g id="line2d_53">
    <path d="M 333.168 62.81937 
L 363.64328 152.288529 
" style="fill:none;stroke:#ff00ff;stroke-linecap:square;stroke-width:1.5;"/>
    <g>
     <use style="fill:none;stroke:#ff00ff;stroke-linejoin:miter;stroke-width:1.5;" x="333.168" xlink:href="#m89ce6e08d5" y="62.81937"/>
     <use style="fill:none;stroke:#ff00ff;stroke-linejoin:miter;stroke-width:1.5;" x="363.64328" xlink:href="#m89ce6e08d5" y="152.288529"/>
    </g>
   </g>
   <g id="line2d_54">
    <path d="M 333.168 294.88 
L 333.168 9.697057 
" style="fill:none;stroke:#000000;stroke-linecap:square;stroke-width:1.5;"/>
   </g>
   <g id="patch_3">
    <path d="M 56.12 294.88 
L 56.12 6.845228 
" style="fill:none;stroke:#000000;stroke-linecap:square;stroke-linejoin:miter;stroke-width:0.8;"/>
   </g>
   <g id="patch_4">
    <path d="M 333.168 294.88 
L 333.168 6.845228 
" style="fill:none;stroke:#000000;stroke-linecap:square;stroke-linejoin:miter;stroke-width:0.8;"/>
   </g>
   <g id="patch_5">
    <path d="M 56.12 294.88 
L 333.168 294.88 
" style="fill:none;stroke:#000000;stroke-linecap:square;stroke-linejoin:miter;stroke-width:0.8;"/>
   </g>
   <g id="patch_6">
    <path d="M 56.12 6.845228 
L 333.168 6.845228 
" style="fill:none;stroke:#000000;stroke-linecap:square;stroke-linejoin:miter;stroke-width:0.8;"/>
   </g>
   <g id="text_13">
    <!-- scipyAlg -->
    <defs>
     <path d="M 32.171875 -5.078125 
Q 28.375 -14.84375 24.75 -17.8125 
Q 21.140625 -20.796875 15.09375 -20.796875 
L 7.90625 -20.796875 
L 7.90625 -13.28125 
L 13.1875 -13.28125 
Q 16.890625 -13.28125 18.9375 -11.515625 
Q 21 -9.765625 23.484375 -3.21875 
L 25.09375 0.875 
L 2.984375 54.6875 
L 12.5 54.6875 
L 29.59375 11.921875 
L 46.6875 54.6875 
L 56.203125 54.6875 
z
" id="DejaVuSans-79"/>
     <path d="M 34.1875 63.1875 
L 20.796875 26.90625 
L 47.609375 26.90625 
z
M 28.609375 72.90625 
L 39.796875 72.90625 
L 67.578125 0 
L 57.328125 0 
L 50.6875 18.703125 
L 17.828125 18.703125 
L 11.1875 0 
L 0.78125 0 
z
" id="DejaVuSans-41"/>
    </defs>
    <g transform="translate(369.18424 293.867279)scale(0.17 -0.17)">
     <use xlink:href="#DejaVuSans-73"/>
     <use x="52.099609" xlink:href="#DejaVuSans-63"/>
     <use x="107.080078" xlink:href="#DejaVuSans-69"/>
     <use x="134.863281" xlink:href="#DejaVuSans-70"/>
     <use x="198.339844" xlink:href="#DejaVuSans-79"/>
     <use x="257.519531" xlink:href="#DejaVuSans-41"/>
     <use x="325.927734" xlink:href="#DejaVuSans-6c"/>
     <use x="353.710938" xlink:href="#DejaVuSans-67"/>
    </g>
   </g>
   <g id="text_14">
    <!-- scipy-opt -->
    <g transform="translate(369.18424 156.979466)scale(0.17 -0.17)">
     <use xlink:href="#DejaVuSans-73"/>
     <use x="52.099609" xlink:href="#DejaVuSans-63"/>
     <use x="107.080078" xlink:href="#DejaVuSans-69"/>
     <use x="134.863281" xlink:href="#DejaVuSans-70"/>
     <use x="198.339844" xlink:href="#DejaVuSans-79"/>
     <use x="257.503906" xlink:href="#DejaVuSans-2d"/>
     <use x="293.603516" xlink:href="#DejaVuSans-6f"/>
     <use x="354.785156" xlink:href="#DejaVuSans-70"/>
     <use x="418.261719" xlink:href="#DejaVuSans-74"/>
    </g>
   </g>
   <g id="text_15">
    <!-- best 2009 -->
    <defs>
     <path d="M 48.6875 27.296875 
Q 48.6875 37.203125 44.609375 42.84375 
Q 40.53125 48.484375 33.40625 48.484375 
Q 26.265625 48.484375 22.1875 42.84375 
Q 18.109375 37.203125 18.109375 27.296875 
Q 18.109375 17.390625 22.1875 11.75 
Q 26.265625 6.109375 33.40625 6.109375 
Q 40.53125 6.109375 44.609375 11.75 
Q 48.6875 17.390625 48.6875 27.296875 
z
M 18.109375 46.390625 
Q 20.953125 51.265625 25.265625 53.625 
Q 29.59375 56 35.59375 56 
Q 45.5625 56 51.78125 48.09375 
Q 58.015625 40.1875 58.015625 27.296875 
Q 58.015625 14.40625 51.78125 6.484375 
Q 45.5625 -1.421875 35.59375 -1.421875 
Q 29.59375 -1.421875 25.265625 0.953125 
Q 20.953125 3.328125 18.109375 8.203125 
L 18.109375 0 
L 9.078125 0 
L 9.078125 75.984375 
L 18.109375 75.984375 
z
" id="DejaVuSans-62"/>
     <path d="M 10.984375 1.515625 
L 10.984375 10.5 
Q 14.703125 8.734375 18.5 7.8125 
Q 22.3125 6.890625 25.984375 6.890625 
Q 35.75 6.890625 40.890625 13.453125 
Q 46.046875 20.015625 46.78125 33.40625 
Q 43.953125 29.203125 39.59375 26.953125 
Q 35.25 24.703125 29.984375 24.703125 
Q 19.046875 24.703125 12.671875 31.3125 
Q 6.296875 37.9375 6.296875 49.421875 
Q 6.296875 60.640625 12.9375 67.421875 
Q 19.578125 74.21875 30.609375 74.21875 
Q 43.265625 74.21875 49.921875 64.515625 
Q 56.59375 54.828125 56.59375 36.375 
Q 56.59375 19.140625 48.40625 8.859375 
Q 40.234375 -1.421875 26.421875 -1.421875 
Q 22.703125 -1.421875 18.890625 -0.6875 
Q 15.09375 0.046875 10.984375 1.515625 
z
M 30.609375 32.421875 
Q 37.25 32.421875 41.125 36.953125 
Q 45.015625 41.5 45.015625 49.421875 
Q 45.015625 57.28125 41.125 61.84375 
Q 37.25 66.40625 30.609375 66.40625 
Q 23.96875 66.40625 20.09375 61.84375 
Q 16.21875 57.28125 16.21875 49.421875 
Q 16.21875 41.5 20.09375 36.953125 
Q 23.96875 32.421875 30.609375 32.421875 
z
" id="DejaVuSans-39"/>
    </defs>
    <g transform="translate(369.18424 20.091654)scale(0.17 -0.17)">
     <use xlink:href="#DejaVuSans-62"/>
     <use x="63.476562" xlink:href="#DejaVuSans-65"/>
     <use x="125" xlink:href="#DejaVuSans-73"/>
     <use x="177.099609" xlink:href="#DejaVuSans-74"/>
     <use x="216.308594" xlink:href="#DejaVuSans-20"/>
     <use x="248.095703" xlink:href="#DejaVuSans-32"/>
     <use x="311.71875" xlink:href="#DejaVuSans-30"/>
     <use x="375.341797" xlink:href="#DejaVuSans-30"/>
     <use x="438.964844" xlink:href="#DejaVuSans-39"/>
    </g>
   </g>
   <g id="text_16">
    <!-- bbob f6-f9, 2-D -->
    <defs>
     <path d="M 19.671875 64.796875 
L 19.671875 8.109375 
L 31.59375 8.109375 
Q 46.6875 8.109375 53.6875 14.9375 
Q 60.6875 21.78125 60.6875 36.53125 
Q 60.6875 51.171875 53.6875 57.984375 
Q 46.6875 64.796875 31.59375 64.796875 
z
M 9.8125 72.90625 
L 30.078125 72.90625 
Q 51.265625 72.90625 61.171875 64.09375 
Q 71.09375 55.28125 71.09375 36.53125 
Q 71.09375 17.671875 61.125 8.828125 
Q 51.171875 0 30.078125 0 
L 9.8125 0 
z
" id="DejaVuSans-44"/>
    </defs>
    <g transform="translate(58.89048 17.475982)scale(0.102 -0.102)">
     <use xlink:href="#DejaVuSans-62"/>
     <use x="63.476562" xlink:href="#DejaVuSans-62"/>
     <use x="126.953125" xlink:href="#DejaVuSans-6f"/>
     <use x="188.134766" xlink:href="#DejaVuSans-62"/>
     <use x="251.611328" xlink:href="#DejaVuSans-20"/>
     <use x="283.398438" xlink:href="#DejaVuSans-66"/>
     <use x="318.603516" xlink:href="#DejaVuSans-36"/>
     <use x="382.226562" xlink:href="#DejaVuSans-2d"/>
     <use x="418.310547" xlink:href="#DejaVuSans-66"/>
     <use x="453.515625" xlink:href="#DejaVuSans-39"/>
     <use x="517.138672" xlink:href="#DejaVuSans-2c"/>
     <use x="548.925781" xlink:href="#DejaVuSans-20"/>
     <use x="580.712891" xlink:href="#DejaVuSans-32"/>
     <use x="644.335938" xlink:href="#DejaVuSans-2d"/>
     <use x="680.419922" xlink:href="#DejaVuSans-44"/>
    </g>
    <!-- 51 targets: 100..1e-08 -->
    <defs>
     <path d="M 10.796875 72.90625 
L 49.515625 72.90625 
L 49.515625 64.59375 
L 19.828125 64.59375 
L 19.828125 46.734375 
Q 21.96875 47.46875 24.109375 47.828125 
Q 26.265625 48.1875 28.421875 48.1875 
Q 40.625 48.1875 47.75 41.5 
Q 54.890625 34.8125 54.890625 23.390625 
Q 54.890625 11.625 47.5625 5.09375 
Q 40.234375 -1.421875 26.90625 -1.421875 
Q 22.3125 -1.421875 17.546875 -0.640625 
Q 12.796875 0.140625 7.71875 1.703125 
L 7.71875 11.625 
Q 12.109375 9.234375 16.796875 8.0625 
Q 21.484375 6.890625 26.703125 6.890625 
Q 35.15625 6.890625 40.078125 11.328125 
Q 45.015625 15.765625 45.015625 23.390625 
Q 45.015625 31 40.078125 35.4375 
Q 35.15625 39.890625 26.703125 39.890625 
Q 22.75 39.890625 18.8125 39.015625 
Q 14.890625 38.140625 10.796875 36.28125 
z
" id="DejaVuSans-35"/>
     <path d="M 11.71875 12.40625 
L 22.015625 12.40625 
L 22.015625 0 
L 11.71875 0 
z
M 11.71875 51.703125 
L 22.015625 51.703125 
L 22.015625 39.3125 
L 11.71875 39.3125 
z
" id="DejaVuSans-3a"/>
    </defs>
    <g transform="translate(58.89048 28.89775)scale(0.102 -0.102)">
     <use xlink:href="#DejaVuSans-35"/>
     <use x="63.623047" xlink:href="#DejaVuSans-31"/>
     <use x="127.246094" xlink:href="#DejaVuSans-20"/>
     <use x="159.033203" xlink:href="#DejaVuSans-74"/>
     <use x="198.242188" xlink:href="#DejaVuSans-61"/>
     <use x="259.521484" xlink:href="#DejaVuSans-72"/>
     <use x="300.619141" xlink:href="#DejaVuSans-67"/>
     <use x="364.095703" xlink:href="#DejaVuSans-65"/>
     <use x="425.619141" xlink:href="#DejaVuSans-74"/>
     <use x="464.828125" xlink:href="#DejaVuSans-73"/>
     <use x="516.927734" xlink:href="#DejaVuSans-3a"/>
     <use x="550.619141" xlink:href="#DejaVuSans-20"/>
     <use x="582.40625" xlink:href="#DejaVuSans-31"/>
     <use x="646.029297" xlink:href="#DejaVuSans-30"/>
     <use x="709.652344" xlink:href="#DejaVuSans-30"/>
     <use x="773.275391" xlink:href="#DejaVuSans-2e"/>
     <use x="805.0625" xlink:href="#DejaVuSans-2e"/>
     <use x="836.849609" xlink:href="#DejaVuSans-31"/>
     <use x="900.472656" xlink:href="#DejaVuSans-65"/>
     <use x="961.996094" xlink:href="#DejaVuSans-2d"/>
     <use x="998.080078" xlink:href="#DejaVuSans-30"/>
     <use x="1061.703125" xlink:href="#DejaVuSans-38"/>
    </g>
    <!-- 15 instances -->
    <g transform="translate(58.89048 40.319519)scale(0.102 -0.102)">
     <use xlink:href="#DejaVuSans-31"/>
     <use x="63.623047" xlink:href="#DejaVuSans-35"/>
     <use x="127.246094" xlink:href="#DejaVuSans-20"/>
     <use x="159.033203" xlink:href="#DejaVuSans-69"/>
     <use x="186.816406" xlink:href="#DejaVuSans-6e"/>
     <use x="250.195312" xlink:href="#DejaVuSans-73"/>
     <use x="302.294922" xlink:href="#DejaVuSans-74"/>
     <use x="341.503906" xlink:href="#DejaVuSans-61"/>
     <use x="402.783203" xlink:href="#DejaVuSans-6e"/>
     <use x="466.162109" xlink:href="#DejaVuSans-63"/>
     <use x="521.142578" xlink:href="#DejaVuSans-65"/>
     <use x="582.666016" xlink:href="#DejaVuSans-73"/>
    </g>
   </g>
   <g id="text_17">
    <!-- v0.0.0 -->
    <g style="fill:#808080;" transform="translate(178.96275 289.919965)scale(0.1 -0.1)">
     <use xlink:href="#DejaVuSans-76"/>
     <use x="59.179688" xlink:href="#DejaVuSans-30"/>
     <use x="122.802734" xlink:href="#DejaVuSans-2e"/>
     <use x="154.589844" xlink:href="#DejaVuSans-30"/>
     <use x="218.212891" xlink:href="#DejaVuSans-2e"/>
     <use x="250" xlink:href="#DejaVuSans-30"/>
    </g>
   </g>
  </g>
 </g>
 <defs>
  <clipPath id="p24dea1d42c">
   <rect height="288.034772" width="277.048" x="56.12" y="6.845228"/>
  </clipPath>
 </defs>
</svg>
