<?xml version="1.0" encoding="utf-8" standalone="no"?>
<!DOCTYPE svg PUBLIC "-//W3C//DTD SVG 1.1//EN"
  "http://www.w3.org/Graphics/SVG/1.1/DTD/svg11.dtd">
<!-- Created with matplotlib (http://matplotlib.org/) -->
<svg height="345pt" version="1.1" viewBox="0 0 460 345" width="460pt" xmlns="http://www.w3.org/2000/svg" xmlns:xlink="http://www.w3.org/1999/xlink">
 <defs>
  <style type="text/css">
*{stroke-linecap:butt;stroke-linejoin:round;}
  </style>
 </defs>
 <g id="figure_1">
  <g id="patch_1">
   <path d="M 0 345.6 
L 460.8 345.6 
L 460.8 0 
L 0 0 
z
" style="fill:#ffffff;"/>
  </g>
  <g id="axes_1">
   <g id="patch_2">
    <path d="M 56.12 294.88 
L 333.168 294.88 
L 333.168 6.845228 
L 56.12 6.845228 
z
" style="fill:#ffffff;"/>
   </g>
   <g id="line2d_1">
    <path d="M 4.627463 294.88 
L 4.627463 288.5892 
L 23.511104 288.5892 
L 23.511104 287.657229 
L 35.425356 287.657229 
L 35.425356 287.424237 
L 38.074995 287.424237 
L 38.074995 286.958252 
L 45.844 286.958252 
L 45.844 286.725259 
L 51.175139 286.725259 
L 51.175139 286.492266 
L 59.253858 286.492266 
L 59.253858 286.259274 
L 60.629683 286.259274 
L 60.629683 286.026281 
L 62.506669 286.026281 
L 62.506669 285.793289 
L 66.223248 285.793289 
L 66.223248 285.560296 
L 66.694199 285.560296 
L 66.694199 285.327303 
L 67.599073 285.327303 
L 67.599073 285.094311 
L 68.458683 285.094311 
L 68.458683 273.677673 
L 68.872887 273.677673 
L 68.872887 272.978696 
L 69.277344 272.978696 
L 69.277344 262.028043 
L 70.05878 262.028043 
L 70.05878 261.795051 
L 75.842277 261.795051 
L 75.842277 261.562058 
L 77.155024 261.562058 
L 77.155024 261.329066 
L 77.897095 261.329066 
L 77.897095 261.096073 
L 78.60845 261.096073 
L 78.60845 260.86308 
L 78.839174 260.86308 
L 78.839174 260.397095 
L 79.291532 260.397095 
L 79.291532 260.164103 
L 79.513324 260.164103 
L 79.513324 259.93111 
L 79.948502 259.93111 
L 79.948502 259.698117 
L 80.372935 259.698117 
L 80.372935 259.465125 
L 81.191596 259.465125 
L 81.191596 259.232132 
L 82.536644 259.232132 
L 82.536644 258.99914 
L 83.955067 258.99914 
L 83.955067 258.766147 
L 86.186351 258.766147 
L 86.186351 258.533154 
L 86.335171 258.533154 
L 86.335171 258.300162 
L 86.629001 258.300162 
L 86.629001 258.067169 
L 87.892408 258.067169 
L 87.892408 257.834177 
L 90.981092 257.834177 
L 90.981092 257.601184 
L 91.317037 257.601184 
L 91.317037 257.368191 
L 92.287186 257.368191 
L 92.287186 257.135199 
L 92.904808 257.135199 
L 92.904808 256.902206 
L 94.543059 256.902206 
L 94.543059 256.669214 
L 95.085903 256.669214 
L 95.085903 256.436221 
L 96.618578 256.436221 
L 96.618578 256.203228 
L 97.258229 256.203228 
L 97.258229 255.970236 
L 98.175173 255.970236 
L 98.175173 255.737243 
L 98.688305 255.737243 
L 98.760375 255.271258 
L 99.533818 255.271258 
L 99.533818 255.038265 
L 99.67078 255.038265 
L 99.67078 254.805273 
L 99.806659 254.805273 
L 99.874198 254.339288 
L 100.664619 254.339288 
L 100.664619 254.106295 
L 101.358566 254.106295 
L 101.358566 253.873302 
L 102.20309 253.873302 
L 102.20309 253.64031 
L 102.895343 253.64031 
L 102.951792 253.174325 
L 103.008056 253.174325 
L 103.008056 252.941332 
L 103.723206 252.941332 
L 103.723206 252.708339 
L 103.990531 252.708339 
L 103.990531 252.475347 
L 105.169349 252.475347 
L 105.169349 252.242354 
L 105.415256 252.242354 
L 105.464018 251.776369 
L 105.657695 251.776369 
L 105.657695 251.543376 
L 105.896762 251.543376 
L 105.896762 251.310384 
L 106.730875 251.310384 
L 106.821105 250.844399 
L 106.866042 250.844399 
L 106.955567 248.747465 
L 107.000154 248.747465 
L 107.088985 246.184547 
L 107.133228 246.184547 
L 107.221375 242.456665 
L 107.26528 242.456665 
L 107.309073 239.893746 
L 107.396325 239.893746 
L 107.396325 239.660754 
L 107.783569 239.660754 
L 107.783569 239.427761 
L 108.120612 239.427761 
L 108.20385 238.961776 
L 108.286687 238.961776 
L 108.286687 238.728783 
L 108.410199 238.728783 
L 108.410199 238.495791 
L 108.85563 238.495791 
L 108.85563 238.262798 
L 109.675221 238.262798 
L 109.675221 238.029806 
L 109.864733 238.029806 
L 109.864733 237.796813 
L 110.274449 237.796813 
L 110.311216 237.330828 
L 110.782167 237.330828 
L 110.782167 237.097835 
L 111.135855 237.097835 
L 111.135855 236.864843 
L 111.413657 236.864843 
L 111.413657 236.63185 
L 111.855724 236.63185 
L 111.922736 235.932872 
L 112.122219 235.932872 
L 112.122219 235.69988 
L 112.57887 235.69988 
L 112.57887 235.466887 
L 112.770924 235.466887 
L 112.770924 235.233894 
L 113.396034 235.233894 
L 113.426701 234.767909 
L 114.293036 234.767909 
L 114.380214 234.068931 
L 114.837842 234.068931 
L 114.866043 233.602946 
L 115.17324 233.602946 
L 115.256077 233.136961 
L 115.664378 233.136961 
L 115.664378 232.903968 
L 116.010559 232.903968 
L 116.036901 232.437983 
L 116.631902 232.437983 
L 116.65731 231.971998 
L 116.834124 231.971998 
L 116.834124 231.739005 
L 117.009137 231.739005 
L 117.033994 231.27302 
L 118.325541 231.27302 
L 118.325541 231.040027 
L 118.554421 231.040027 
L 118.554421 230.807035 
L 119.223324 230.807035 
L 119.223324 230.574042 
L 119.569706 230.574042 
L 119.569706 230.34105 
L 120.242208 230.34105 
L 120.344949 229.875064 
L 120.467434 229.875064 
L 120.467434 229.642072 
L 120.948828 229.642072 
L 120.948828 229.409079 
L 121.417105 229.409079 
L 121.417105 229.176087 
L 121.665528 229.176087 
L 121.665528 228.943094 
L 121.891697 228.943094 
L 121.891697 228.710101 
L 122.133402 228.710101 
L 122.151854 228.244116 
L 122.624799 228.244116 
L 122.624799 228.011124 
L 123.396663 228.011124 
L 123.396663 227.778131 
L 123.870396 227.778131 
L 123.870396 227.545138 
L 124.069494 227.545138 
L 124.069494 227.312146 
L 124.653315 227.312146 
L 124.653315 227.079153 
L 124.843597 227.079153 
L 124.906559 226.613168 
L 125.094073 226.613168 
L 125.094073 226.380175 
L 126.031592 226.380175 
L 126.031592 226.147183 
L 126.366778 226.147183 
L 126.366778 225.91419 
L 126.752093 225.91419 
L 126.766199 225.448205 
L 127.416471 225.448205 
L 127.511249 224.98222 
L 127.819033 224.98222 
L 127.819033 224.749227 
L 128.121403 224.749227 
L 128.121403 224.516235 
L 128.277075 224.516235 
L 128.277075 224.283242 
L 128.533435 224.283242 
L 128.533435 224.050249 
L 128.948245 224.050249 
L 128.985463 223.584264 
L 129.450049 223.584264 
L 129.450049 223.351272 
L 129.677716 223.351272 
L 129.677716 223.118279 
L 129.808158 223.118279 
L 129.808158 222.885286 
L 129.984454 222.885286 
L 130.077743 222.186309 
L 130.411737 222.186309 
L 130.411737 221.953316 
L 130.660852 221.953316 
L 130.660852 221.720323 
L 131.257433 221.720323 
L 131.257433 221.487331 
L 131.537454 221.487331 
L 131.590786 221.021346 
L 131.686367 221.021346 
L 131.686367 220.788353 
L 131.928242 220.788353 
L 131.949115 220.322368 
L 132.187346 220.322368 
L 132.187346 220.089375 
L 132.644112 220.089375 
L 132.72406 219.62339 
L 132.833383 219.62339 
L 132.882847 219.157405 
L 133.627144 219.157405 
L 133.627144 218.924412 
L 134.056882 218.924412 
L 134.158073 218.458427 
L 134.63745 218.458427 
L 134.73529 217.992442 
L 135.456111 217.992442 
L 135.473113 217.526457 
L 135.591655 217.526457 
L 135.608524 217.060471 
L 135.717765 217.060471 
L 135.717765 216.827479 
L 135.917635 216.827479 
L 135.917635 216.594486 
L 136.631228 216.594486 
L 136.686739 216.128501 
L 136.82081 216.128501 
L 136.82081 215.895508 
L 137.132207 215.895508 
L 137.132207 215.662516 
L 137.760898 215.662516 
L 137.760898 215.429523 
L 137.997274 215.429523 
L 138.033915 214.963538 
L 138.345851 214.963538 
L 138.345851 214.730545 
L 138.890669 214.730545 
L 138.960174 214.26456 
L 139.08458 214.26456 
L 139.08458 214.031568 
L 139.357855 214.031568 
L 139.411992 213.565582 
L 139.620179 213.565582 
L 139.620179 213.33259 
L 139.779642 213.33259 
L 139.885134 212.866605 
L 140.687737 212.866605 
L 140.756604 212.400619 
L 140.818973 212.400619 
L 140.818973 212.167627 
L 140.97391 212.167627 
L 141.053929 211.701642 
L 141.090735 211.701642 
L 141.090735 211.468649 
L 141.334118 211.468649 
L 141.334118 211.235656 
L 141.538318 211.235656 
L 141.538318 211.002664 
L 141.681012 211.002664 
L 141.70468 210.536679 
L 141.793145 210.536679 
L 141.793145 210.303686 
L 142.125218 210.303686 
L 142.125218 210.070693 
L 142.382924 210.070693 
L 142.428336 209.604708 
L 142.524441 209.604708 
L 142.541345 209.138723 
L 142.636822 209.138723 
L 142.675983 208.672738 
L 142.776273 208.672738 
L 142.82066 208.206753 
L 143.057293 208.206753 
L 143.117307 207.740767 
L 143.301492 207.740767 
L 143.392849 207.04179 
L 143.435674 207.04179 
L 143.489055 206.342812 
L 143.632361 206.342812 
L 143.632361 206.109819 
L 143.763994 206.109819 
L 143.873793 205.177849 
L 143.972533 205.177849 
L 144.075862 204.711864 
L 144.122158 204.711864 
L 144.173452 204.245878 
L 144.29085 204.245878 
L 144.392288 203.546901 
L 144.457904 203.546901 
L 144.523269 202.847923 
L 144.598384 202.847923 
L 144.673171 202.148945 
L 144.74268 202.148945 
L 144.806974 201.449967 
L 144.871028 201.449967 
L 144.949537 200.750989 
L 145.037434 200.750989 
L 145.105489 200.285004 
L 145.173275 200.285004 
L 145.255229 199.819019 
L 145.293661 199.819019 
L 145.351148 199.353034 
L 145.408443 199.353034 
L 145.489287 198.654056 
L 145.522465 198.654056 
L 145.593346 197.955078 
L 145.673326 197.955078 
L 145.762277 197.2561 
L 145.785609 197.2561 
L 145.887895 196.32413 
L 145.897164 196.32413 
L 145.989576 195.39216 
L 146.031 195.39216 
L 146.13184 194.460189 
L 146.177482 194.460189 
L 146.236635 193.994204 
L 146.390389 193.994204 
L 146.403889 193.528219 
L 146.627354 193.528219 
L 146.627354 193.295226 
L 146.830406 193.295226 
L 146.904844 192.596248 
L 147.0007 192.596248 
L 147.070079 192.130263 
L 147.143489 192.130263 
L 147.212295 191.664278 
L 147.255159 191.664278 
L 147.361855 190.499315 
L 147.459434 190.499315 
L 147.560668 189.800337 
L 147.652945 189.800337 
L 147.740567 189.334352 
L 147.782136 189.334352 
L 147.873235 188.635374 
L 147.939186 188.635374 
L 147.988485 188.169389 
L 148.053996 188.169389 
L 148.107041 187.703404 
L 148.172104 187.703404 
L 148.265202 186.771433 
L 148.329669 186.771433 
L 148.397902 186.072456 
L 148.469854 186.072456 
L 148.545479 185.60647 
L 148.604948 185.60647 
L 148.71541 184.907493 
L 148.746841 184.907493 
L 148.852497 184.208515 
L 148.899248 184.208515 
L 148.988499 183.509537 
L 149.034882 183.509537 
L 149.115752 182.577567 
L 149.154128 182.577567 
L 149.238255 181.878589 
L 149.283969 181.878589 
L 149.367465 180.946618 
L 150.043071 180.946618 
L 150.043071 180.713626 
L 150.378311 180.713626 
L 150.463774 180.014648 
L 150.85013 180.014648 
L 150.85013 179.781655 
L 151.25176 179.781655 
L 151.299196 179.31567 
L 151.766488 179.31567 
L 151.796099 178.849685 
L 151.887894 178.849685 
L 151.887894 178.616692 
L 152.163592 178.616692 
L 152.163592 178.3837 
L 152.419095 178.3837 
L 152.419095 178.150707 
L 152.686469 178.150707 
L 152.789162 177.451729 
L 152.912822 177.451729 
L 152.912822 177.218737 
L 153.184814 177.218737 
L 153.224185 176.752752 
L 153.497289 176.752752 
L 153.568599 176.286766 
L 154.033698 176.286766 
L 154.033698 176.053774 
L 154.701632 176.053774 
L 154.718279 175.587789 
L 154.93872 175.587789 
L 154.93872 175.354796 
L 155.085935 175.354796 
L 155.161776 174.422826 
L 155.218437 174.422826 
L 155.218437 174.189833 
L 155.344578 174.189833 
L 155.344578 173.95684 
L 155.520164 173.95684 
L 155.580934 173.490855 
L 155.644117 173.490855 
L 155.667752 172.791877 
L 155.767184 172.791877 
L 155.871232 171.626914 
L 156.128628 171.626914 
L 156.128628 171.393922 
L 156.510136 171.393922 
L 156.510136 171.160929 
L 156.77298 171.160929 
L 156.829485 170.461951 
L 157.014888 170.461951 
L 157.014888 170.228959 
L 157.231888 170.228959 
L 157.231888 169.995966 
L 157.450915 169.995966 
L 157.549986 169.529981 
L 157.744104 169.529981 
L 157.813731 168.831003 
L 157.972811 168.831003 
L 157.972811 168.598011 
L 158.125885 168.598011 
L 158.125885 168.365018 
L 158.255046 168.365018 
L 158.36531 156.249403 
L 158.372038 156.249403 
L 158.448103 153.453492 
L 158.483783 153.453492 
L 158.594807 150.424588 
L 158.59702 150.424588 
L 158.691918 149.72561 
L 158.709516 149.72561 
L 158.709516 149.492617 
L 158.88451 149.492617 
L 158.88451 149.259625 
L 159.003793 149.259625 
L 159.003793 149.026632 
L 159.143705 149.026632 
L 159.18011 148.560647 
L 159.259079 148.560647 
L 159.259079 148.327654 
L 159.596453 148.327654 
L 159.596453 148.094662 
L 159.717134 148.094662 
L 159.756484 147.628677 
L 159.962116 147.628677 
L 159.962116 147.395684 
L 160.118794 147.395684 
L 160.189542 146.929699 
L 160.320163 146.929699 
L 160.320163 146.696706 
L 160.469656 146.696706 
L 160.554783 146.230721 
L 160.764798 146.230721 
L 160.80377 145.764736 
L 160.879512 145.764736 
L 160.964566 145.298751 
L 161.247608 145.298751 
L 161.247608 145.065758 
L 161.454997 145.065758 
L 161.555898 144.36678 
L 161.641386 144.36678 
L 161.641386 144.133788 
L 161.836777 144.133788 
L 161.931822 143.667802 
L 162.064372 143.667802 
L 162.127562 143.201817 
L 162.441844 143.201817 
L 162.52657 142.735832 
L 162.638891 142.735832 
L 162.741791 142.269847 
L 162.840622 142.269847 
L 162.840622 142.036854 
L 163.007511 142.036854 
L 163.007511 141.803862 
L 163.42196 141.803862 
L 163.42196 141.570869 
L 163.869043 141.570869 
L 163.956757 140.871891 
L 164.159698 140.871891 
L 164.159698 140.638899 
L 164.285728 140.638899 
L 164.303203 140.172913 
L 164.706516 140.172913 
L 164.706516 139.939921 
L 165.032231 139.939921 
L 165.032231 139.706928 
L 165.456143 139.706928 
L 165.456143 139.473936 
L 165.768084 139.473936 
L 165.768084 139.240943 
L 165.952278 139.240943 
L 165.952278 139.00795 
L 166.140228 139.00795 
L 166.234147 138.541965 
L 166.417652 138.541965 
L 166.477922 137.842987 
L 166.647777 137.842987 
L 166.661625 137.377002 
L 166.851602 137.377002 
L 166.852971 136.911017 
L 167.051686 136.911017 
L 167.051686 136.678024 
L 167.233407 136.678024 
L 167.338863 135.746054 
L 167.441031 135.746054 
L 167.441031 135.513061 
L 167.579378 135.513061 
L 167.644869 134.814084 
L 167.833393 134.814084 
L 167.921096 133.882113 
L 168.024987 133.882113 
L 168.024987 133.649121 
L 168.195487 133.649121 
L 168.277588 132.950143 
L 168.36306 132.950143 
L 168.375593 132.484158 
L 168.510377 132.484158 
L 168.61819 131.319195 
L 168.652745 131.319195 
L 168.744962 130.620217 
L 168.786605 130.620217 
L 168.884192 129.222261 
L 168.921858 129.222261 
L 169.002985 128.290291 
L 169.048828 128.290291 
L 169.147337 127.125328 
L 169.188018 127.125328 
L 169.193992 126.659343 
L 169.354518 126.659343 
L 169.460708 125.49438 
L 169.49596 125.49438 
L 169.584941 125.028394 
L 169.656029 125.028394 
L 169.760379 124.096424 
L 169.818078 124.096424 
L 169.879029 123.630439 
L 170.008263 123.630439 
L 170.118429 122.931461 
L 170.13314 122.931461 
L 170.168169 122.232483 
L 170.375743 122.232483 
L 170.39135 121.533505 
L 170.503524 121.533505 
L 170.559889 120.601535 
L 170.647934 120.601535 
L 170.656714 119.902557 
L 170.929927 119.902557 
L 170.989219 119.436572 
L 171.107192 119.436572 
L 171.169071 118.970587 
L 171.242398 118.970587 
L 171.323858 118.271609 
L 171.519054 118.271609 
L 171.573231 112.679787 
L 171.641749 112.679787 
L 171.724437 111.747816 
L 171.791328 111.747816 
L 171.857961 111.281831 
L 172.030007 111.281831 
L 172.135031 109.883875 
L 172.150126 109.883875 
L 172.255421 108.951905 
L 172.292372 108.951905 
L 172.375967 107.786942 
L 172.41365 107.786942 
L 172.503558 106.854972 
L 172.536046 106.854972 
L 172.64683 104.525046 
L 172.655623 104.525046 
L 172.744277 102.661105 
L 172.785041 102.661105 
L 172.873996 102.195119 
L 172.919264 102.195119 
L 172.919264 101.962127 
L 173.14383 101.962127 
L 173.215832 101.496142 
L 173.744612 101.496142 
L 173.744612 101.263149 
L 174.250488 101.263149 
L 174.250488 101.030156 
L 174.473364 101.030156 
L 174.473364 100.797164 
L 174.678633 100.797164 
L 174.678633 100.564171 
L 175.260833 100.564171 
L 175.298563 100.098186 
L 175.795503 100.098186 
L 175.795503 99.865193 
L 176.118724 99.865193 
L 176.118724 99.632201 
L 176.271357 99.632201 
L 176.271357 99.399208 
L 176.602921 99.399208 
L 176.701232 98.933223 
L 177.120618 98.933223 
L 177.190532 98.467238 
L 177.375591 98.467238 
L 177.468854 97.535267 
L 177.534428 97.535267 
L 177.620252 97.069282 
L 177.684522 97.069282 
L 177.779029 96.603297 
L 177.83982 96.603297 
L 177.939945 95.904319 
L 178.10506 95.904319 
L 178.182424 95.205341 
L 178.311532 95.205341 
L 178.311532 94.972349 
L 178.556485 94.972349 
L 178.6546 94.273371 
L 178.729535 94.273371 
L 178.735022 93.807386 
L 178.909686 93.807386 
L 179.007161 93.108408 
L 179.080578 93.108408 
L 179.133593 92.642423 
L 179.241133 92.642423 
L 179.241133 92.40943 
L 179.457503 92.40943 
L 179.540808 91.710452 
L 179.576107 91.710452 
L 179.641935 91.244467 
L 179.753462 91.244467 
L 179.834061 90.778482 
L 179.915565 90.778482 
L 179.916845 90.312497 
L 180.03106 90.312497 
L 180.03106 90.079504 
L 180.181125 90.079504 
L 180.282325 89.613519 
L 180.632828 89.613519 
L 180.632828 89.380526 
L 180.966693 89.380526 
L 180.975725 88.914541 
L 181.253376 88.914541 
L 181.253376 88.681549 
L 181.608615 88.681549 
L 181.608615 88.448556 
L 181.939027 88.448556 
L 182.039471 87.982571 
L 182.207825 87.982571 
L 182.274373 87.283593 
L 182.540766 87.283593 
L 182.540766 87.0506 
L 182.733131 87.0506 
L 182.733131 86.817608 
L 182.850116 86.817608 
L 182.850116 86.584615 
L 183.031594 86.584615 
L 183.129055 86.11863 
L 183.38733 86.11863 
L 183.490603 85.652645 
L 184.142658 85.652645 
L 184.142658 85.419652 
L 185.173518 85.419652 
L 185.173518 85.18666 
L 185.486565 85.18666 
L 185.573851 84.487682 
L 185.725657 84.487682 
L 185.781274 84.021697 
L 188.3565 84.021697 
L 188.3565 83.788704 
L 188.649799 83.788704 
L 188.649799 83.555711 
L 189.227383 83.555711 
L 189.267933 83.089726 
L 189.35651 83.089726 
L 189.410028 82.623741 
L 191.137396 82.623741 
L 191.212221 82.157756 
L 192.055297 82.157756 
L 192.055297 81.924763 
L 192.182783 81.924763 
L 192.182783 81.691771 
L 192.43588 81.691771 
L 192.43588 81.458778 
L 192.640778 81.458778 
L 192.640778 81.225785 
L 192.827259 81.225785 
L 192.83179 80.7598 
L 193.07617 80.7598 
L 193.077063 80.293815 
L 193.682832 80.293815 
L 193.682832 80.060822 
L 194.056114 80.060822 
L 194.056114 79.82783 
L 195.003164 79.82783 
L 195.003164 79.594837 
L 195.344948 79.594837 
L 195.374406 79.128852 
L 195.468438 79.128852 
L 195.468438 78.895859 
L 195.752074 78.895859 
L 195.780589 78.429874 
L 196.099912 78.429874 
L 196.099912 78.196882 
L 196.318259 78.196882 
L 196.318259 77.963889 
L 196.633405 77.963889 
L 196.633405 77.730896 
L 196.890967 77.730896 
L 196.890967 77.497904 
L 198.029737 77.497904 
L 198.029737 77.264911 
L 198.149172 77.264911 
L 198.149172 77.031919 
L 198.377927 77.031919 
L 198.377927 76.798926 
L 198.544864 76.798926 
L 198.566294 76.332941 
L 198.784474 76.332941 
L 198.784474 76.099948 
L 199.676813 76.099948 
L 199.786577 75.633963 
L 199.818184 75.633963 
L 199.818184 75.40097 
L 200.340352 75.40097 
L 200.392174 74.934985 
L 201.048269 74.934985 
L 201.145359 74.469 
L 201.255414 74.469 
L 201.36293 74.003015 
L 201.475075 74.003015 
L 201.56107 73.53703 
L 201.828315 73.53703 
L 201.828315 73.304037 
L 202.44016 73.304037 
L 202.44016 73.071044 
L 202.611119 73.071044 
L 202.611119 72.838052 
L 203.242224 72.838052 
L 203.242224 72.605059 
L 203.897043 72.605059 
L 203.897043 72.372067 
L 204.27363 72.372067 
L 204.27363 72.139074 
L 204.464554 72.139074 
L 204.464554 71.906081 
L 204.758418 71.906081 
L 204.758418 71.673089 
L 206.490431 71.673089 
L 206.490431 71.440096 
L 206.939891 71.440096 
L 206.939891 71.207104 
L 207.108382 71.207104 
L 207.108382 70.974111 
L 207.225116 70.974111 
L 207.321445 70.508126 
L 207.394213 70.508126 
L 207.486384 70.042141 
L 207.602889 70.042141 
L 207.694586 67.712215 
L 207.767188 67.712215 
L 207.767188 67.479222 
L 208.02627 67.479222 
L 208.02627 67.246229 
L 208.212158 67.246229 
L 208.212158 67.013237 
L 208.432163 67.013237 
L 208.452744 64.916303 
L 208.668629 64.916303 
L 208.668629 64.683311 
L 208.781594 64.683311 
L 208.781594 64.450318 
L 208.961776 64.450318 
L 208.961776 64.217326 
L 209.08598 64.217326 
L 209.086918 63.75134 
L 209.22431 63.75134 
L 209.316919 63.052363 
L 209.421345 63.052363 
L 209.512444 62.586377 
L 209.607273 62.586377 
L 209.607273 62.353385 
L 211.243641 62.353385 
L 211.243641 62.120392 
L 211.618014 62.120392 
L 211.618014 61.8874 
L 212.167166 61.8874 
L 212.167166 61.654407 
L 212.915552 61.654407 
L 212.915552 61.421414 
L 213.364103 61.421414 
L 213.46214 60.722437 
L 213.503739 60.722437 
L 213.571372 60.256451 
L 214.018843 60.256451 
L 214.103241 59.557474 
L 214.158958 59.557474 
L 214.2405 58.858496 
L 214.281213 58.858496 
L 214.33264 58.392511 
L 215.825804 58.392511 
L 215.930891 57.46054 
L 215.97086 57.46054 
L 216.079128 56.52857 
L 216.10909 56.52857 
L 216.216106 55.596599 
L 216.241963 55.596599 
L 216.241963 55.363607 
L 218.151808 55.363607 
L 218.151808 55.130614 
L 218.370679 55.130614 
L 218.370679 54.897622 
L 220.062357 54.897622 
L 220.157914 54.198644 
L 220.576268 54.198644 
L 220.576268 53.965651 
L 222.002535 53.965651 
L 222.105362 53.266673 
L 222.148264 53.266673 
L 222.235984 52.567696 
L 222.272353 52.567696 
L 222.369738 51.868718 
L 222.417117 51.868718 
L 222.507887 51.16974 
L 222.550171 51.16974 
L 222.656442 50.004777 
L 222.669327 50.004777 
L 222.669327 49.771784 
L 223.715436 49.771784 
L 223.729503 48.606821 
L 224.704681 48.606821 
L 224.797809 47.907844 
L 227.91942 47.907844 
L 227.91942 47.674851 
L 228.313689 47.674851 
L 228.390782 46.975873 
L 228.428362 46.975873 
L 228.531796 46.043903 
L 228.56431 46.043903 
L 228.64405 45.344925 
L 228.682356 45.344925 
L 228.781629 44.179962 
L 228.814643 44.179962 
L 228.893121 43.247992 
L 229.667417 43.247992 
L 229.667417 43.014999 
L 229.795 43.014999 
L 229.795 42.782006 
L 229.954107 42.782006 
L 229.954107 42.549014 
L 230.113516 42.549014 
L 230.113516 42.316021 
L 230.244763 42.316021 
L 230.244763 42.083029 
L 230.423797 42.083029 
L 230.523744 41.617043 
L 230.644847 41.617043 
L 230.644847 41.384051 
L 230.761015 41.384051 
L 230.761015 41.151058 
L 232.802031 41.151058 
L 232.802031 40.918066 
L 238.369081 40.918066 
L 238.442567 40.45208 
L 238.496718 40.45208 
L 238.554015 39.986095 
L 238.608133 39.986095 
L 238.664347 39.52011 
L 238.722136 39.52011 
L 238.783774 39.054125 
L 238.839107 39.054125 
L 238.946453 38.355147 
L 239.003652 38.355147 
L 239.108158 37.656169 
L 239.158664 37.656169 
L 239.252725 36.957191 
L 239.317748 36.957191 
L 239.317748 36.724199 
L 243.526589 36.724199 
L 243.526589 36.491206 
L 247.091646 36.491206 
L 247.091646 36.258214 
L 247.425916 36.258214 
L 247.425916 36.025221 
L 255.070121 36.025221 
L 255.070121 35.792228 
L 258.326376 35.792228 
L 258.326376 35.559236 
L 261.538286 35.559236 
L 261.642955 35.093251 
L 263.435632 35.093251 
L 263.496989 34.627265 
L 268.631575 34.627265 
L 268.631575 34.394273 
L 269.408763 34.394273 
L 269.408763 34.16128 
L 270.530078 34.16128 
L 270.530078 33.928288 
L 271.361776 33.928288 
L 271.457485 32.763325 
L 271.473446 32.763325 
L 271.577976 30.666391 
L 271.596345 30.666391 
L 271.694133 28.80245 
L 271.708784 28.80245 
L 271.818858 26.705517 
L 271.833994 26.705517 
L 271.890506 25.540554 
L 273.416524 25.540554 
L 273.519599 25.074569 
L 274.633657 25.074569 
L 274.736473 23.210628 
L 274.748555 23.210628 
L 274.84635 21.113695 
L 274.859814 21.113695 
L 274.938723 19.249754 
L 276.684822 19.249754 
L 276.684822 19.016761 
L 283.265502 19.016761 
L 283.265502 18.783769 
L 291.117921 18.783769 
L 291.117921 18.550776 
L 300.993062 18.550776 
L 300.993062 18.317783 
L 309.991797 18.317783 
L 310.033209 9.697057 
L 333.168 9.697057 
L 333.168 9.697057 
" style="fill:none;stroke:#f5deb3;stroke-linecap:square;stroke-width:4;"/>
   </g>
   <g id="line2d_2">
    <defs>
     <path d="M -0 7.778175 
L 7.778175 0 
L 0 -7.778175 
L -7.778175 -0 
z
" id="m42e9cfd5a5" style="stroke:#f5deb3;stroke-linejoin:miter;stroke-width:1.5;"/>
    </defs>
    <g>
     <use style="fill:#f5deb3;stroke:#f5deb3;stroke-linejoin:miter;stroke-width:1.5;" x="131.949115" xlink:href="#m42e9cfd5a5" y="220.55536"/>
     <use style="fill:#f5deb3;stroke:#f5deb3;stroke-linejoin:miter;stroke-width:1.5;" x="170.656714" xlink:href="#m42e9cfd5a5" y="120.13555"/>
     <use style="fill:#f5deb3;stroke:#f5deb3;stroke-linejoin:miter;stroke-width:1.5;" x="230.244763" xlink:href="#m42e9cfd5a5" y="42.083029"/>
     <use style="fill:#f5deb3;stroke:#f5deb3;stroke-linejoin:miter;stroke-width:1.5;" x="310.005681" xlink:href="#m42e9cfd5a5" y="15.28888"/>
     <use style="fill:#f5deb3;stroke:#f5deb3;stroke-linejoin:miter;stroke-width:1.5;" x="310.033209" xlink:href="#m42e9cfd5a5" y="9.697057"/>
     <use style="fill:#f5deb3;stroke:#f5deb3;stroke-linejoin:miter;stroke-width:1.5;" x="333.168" xlink:href="#m42e9cfd5a5" y="9.697057"/>
    </g>
   </g>
   <g id="line2d_3">
    <path style="fill:none;stroke:#f5deb3;stroke-linecap:square;stroke-width:4;"/>
    <g/>
   </g>
   <g id="line2d_4">
    <path d="M 333.168 9.697057 
L 363.64328 15.400716 
" style="fill:none;stroke:#f5deb3;stroke-linecap:square;stroke-width:4;"/>
    <g>
     <use style="fill:#f5deb3;stroke:#f5deb3;stroke-linejoin:miter;stroke-width:1.5;" x="333.168" xlink:href="#m42e9cfd5a5" y="9.697057"/>
     <use style="fill:#f5deb3;stroke:#f5deb3;stroke-linejoin:miter;stroke-width:1.5;" x="363.64328" xlink:href="#m42e9cfd5a5" y="15.400716"/>
    </g>
   </g>
   <g id="matplotlib.axis_1">
    <g id="xtick_1">
     <g id="line2d_5">
      <path clip-path="url(#p6c4c4b942c)" d="M 56.12 294.88 
L 56.12 6.845228 
" style="fill:none;stroke:#b0b0b0;stroke-linecap:square;stroke-width:0.8;"/>
     </g>
     <g id="line2d_6">
      <defs>
       <path d="M 0 0 
L 0 3.5 
" id="m0df3a12b85" style="stroke:#000000;stroke-width:0.8;"/>
      </defs>
      <g>
       <use style="stroke:#000000;stroke-width:0.8;" x="56.12" xlink:href="#m0df3a12b85" y="294.88"/>
      </g>
     </g>
     <g id="text_1">
      <!-- 0 -->
      <defs>
       <path d="M 31.78125 66.40625 
Q 24.171875 66.40625 20.328125 58.90625 
Q 16.5 51.421875 16.5 36.375 
Q 16.5 21.390625 20.328125 13.890625 
Q 24.171875 6.390625 31.78125 6.390625 
Q 39.453125 6.390625 43.28125 13.890625 
Q 47.125 21.390625 47.125 36.375 
Q 47.125 51.421875 43.28125 58.90625 
Q 39.453125 66.40625 31.78125 66.40625 
z
M 31.78125 74.21875 
Q 44.046875 74.21875 50.515625 64.515625 
Q 56.984375 54.828125 56.984375 36.375 
Q 56.984375 17.96875 50.515625 8.265625 
Q 44.046875 -1.421875 31.78125 -1.421875 
Q 19.53125 -1.421875 13.0625 8.265625 
Q 6.59375 17.96875 6.59375 36.375 
Q 6.59375 54.828125 13.0625 64.515625 
Q 19.53125 74.21875 31.78125 74.21875 
z
" id="DejaVuSans-30"/>
      </defs>
      <g transform="translate(49.7575 317.076875)scale(0.2 -0.2)">
       <use xlink:href="#DejaVuSans-30"/>
      </g>
     </g>
    </g>
    <g id="xtick_2">
     <g id="line2d_7">
      <path clip-path="url(#p6c4c4b942c)" d="M 135.276571 294.88 
L 135.276571 6.845228 
" style="fill:none;stroke:#b0b0b0;stroke-linecap:square;stroke-width:0.8;"/>
     </g>
     <g id="line2d_8">
      <g>
       <use style="stroke:#000000;stroke-width:0.8;" x="135.276571" xlink:href="#m0df3a12b85" y="294.88"/>
      </g>
     </g>
     <g id="text_2">
      <!-- 2 -->
      <defs>
       <path d="M 19.1875 8.296875 
L 53.609375 8.296875 
L 53.609375 0 
L 7.328125 0 
L 7.328125 8.296875 
Q 12.9375 14.109375 22.625 23.890625 
Q 32.328125 33.6875 34.8125 36.53125 
Q 39.546875 41.84375 41.421875 45.53125 
Q 43.3125 49.21875 43.3125 52.78125 
Q 43.3125 58.59375 39.234375 62.25 
Q 35.15625 65.921875 28.609375 65.921875 
Q 23.96875 65.921875 18.8125 64.3125 
Q 13.671875 62.703125 7.8125 59.421875 
L 7.8125 69.390625 
Q 13.765625 71.78125 18.9375 73 
Q 24.125 74.21875 28.421875 74.21875 
Q 39.75 74.21875 46.484375 68.546875 
Q 53.21875 62.890625 53.21875 53.421875 
Q 53.21875 48.921875 51.53125 44.890625 
Q 49.859375 40.875 45.40625 35.40625 
Q 44.1875 33.984375 37.640625 27.21875 
Q 31.109375 20.453125 19.1875 8.296875 
z
" id="DejaVuSans-32"/>
      </defs>
      <g transform="translate(128.914071 317.076875)scale(0.2 -0.2)">
       <use xlink:href="#DejaVuSans-32"/>
      </g>
     </g>
    </g>
    <g id="xtick_3">
     <g id="line2d_9">
      <path clip-path="url(#p6c4c4b942c)" d="M 214.433143 294.88 
L 214.433143 6.845228 
" style="fill:none;stroke:#b0b0b0;stroke-linecap:square;stroke-width:0.8;"/>
     </g>
     <g id="line2d_10">
      <g>
       <use style="stroke:#000000;stroke-width:0.8;" x="214.433143" xlink:href="#m0df3a12b85" y="294.88"/>
      </g>
     </g>
     <g id="text_3">
      <!-- 4 -->
      <defs>
       <path d="M 37.796875 64.3125 
L 12.890625 25.390625 
L 37.796875 25.390625 
z
M 35.203125 72.90625 
L 47.609375 72.90625 
L 47.609375 25.390625 
L 58.015625 25.390625 
L 58.015625 17.1875 
L 47.609375 17.1875 
L 47.609375 0 
L 37.796875 0 
L 37.796875 17.1875 
L 4.890625 17.1875 
L 4.890625 26.703125 
z
" id="DejaVuSans-34"/>
      </defs>
      <g transform="translate(208.070643 317.076875)scale(0.2 -0.2)">
       <use xlink:href="#DejaVuSans-34"/>
      </g>
     </g>
    </g>
    <g id="xtick_4">
     <g id="line2d_11">
      <path clip-path="url(#p6c4c4b942c)" d="M 293.589714 294.88 
L 293.589714 6.845228 
" style="fill:none;stroke:#b0b0b0;stroke-linecap:square;stroke-width:0.8;"/>
     </g>
     <g id="line2d_12">
      <g>
       <use style="stroke:#000000;stroke-width:0.8;" x="293.589714" xlink:href="#m0df3a12b85" y="294.88"/>
      </g>
     </g>
     <g id="text_4">
      <!-- 6 -->
      <defs>
       <path d="M 33.015625 40.375 
Q 26.375 40.375 22.484375 35.828125 
Q 18.609375 31.296875 18.609375 23.390625 
Q 18.609375 15.53125 22.484375 10.953125 
Q 26.375 6.390625 33.015625 6.390625 
Q 39.65625 6.390625 43.53125 10.953125 
Q 47.40625 15.53125 47.40625 23.390625 
Q 47.40625 31.296875 43.53125 35.828125 
Q 39.65625 40.375 33.015625 40.375 
z
M 52.59375 71.296875 
L 52.59375 62.3125 
Q 48.875 64.0625 45.09375 64.984375 
Q 41.3125 65.921875 37.59375 65.921875 
Q 27.828125 65.921875 22.671875 59.328125 
Q 17.53125 52.734375 16.796875 39.40625 
Q 19.671875 43.65625 24.015625 45.921875 
Q 28.375 48.1875 33.59375 48.1875 
Q 44.578125 48.1875 50.953125 41.515625 
Q 57.328125 34.859375 57.328125 23.390625 
Q 57.328125 12.15625 50.6875 5.359375 
Q 44.046875 -1.421875 33.015625 -1.421875 
Q 20.359375 -1.421875 13.671875 8.265625 
Q 6.984375 17.96875 6.984375 36.375 
Q 6.984375 53.65625 15.1875 63.9375 
Q 23.390625 74.21875 37.203125 74.21875 
Q 40.921875 74.21875 44.703125 73.484375 
Q 48.484375 72.75 52.59375 71.296875 
z
" id="DejaVuSans-36"/>
      </defs>
      <g transform="translate(287.227214 317.076875)scale(0.2 -0.2)">
       <use xlink:href="#DejaVuSans-36"/>
      </g>
     </g>
    </g>
    <g id="xtick_5">
     <g id="line2d_13">
      <path clip-path="url(#p6c4c4b942c)" d="M 56.12 294.88 
L 56.12 6.845228 
" style="fill:none;stroke:#b0b0b0;stroke-linecap:square;stroke-width:0.8;"/>
     </g>
     <g id="line2d_14">
      <defs>
       <path d="M 0 0 
L 0 2 
" id="m6802914ba5" style="stroke:#000000;stroke-width:0.6;"/>
      </defs>
      <g>
       <use style="stroke:#000000;stroke-width:0.6;" x="56.12" xlink:href="#m6802914ba5" y="294.88"/>
      </g>
     </g>
    </g>
    <g id="xtick_6">
     <g id="line2d_15">
      <path clip-path="url(#p6c4c4b942c)" d="M 95.698286 294.88 
L 95.698286 6.845228 
" style="fill:none;stroke:#b0b0b0;stroke-linecap:square;stroke-width:0.8;"/>
     </g>
     <g id="line2d_16">
      <g>
       <use style="stroke:#000000;stroke-width:0.6;" x="95.698286" xlink:href="#m6802914ba5" y="294.88"/>
      </g>
     </g>
    </g>
    <g id="xtick_7">
     <g id="line2d_17">
      <path clip-path="url(#p6c4c4b942c)" d="M 135.276571 294.88 
L 135.276571 6.845228 
" style="fill:none;stroke:#b0b0b0;stroke-linecap:square;stroke-width:0.8;"/>
     </g>
     <g id="line2d_18">
      <g>
       <use style="stroke:#000000;stroke-width:0.6;" x="135.276571" xlink:href="#m6802914ba5" y="294.88"/>
      </g>
     </g>
    </g>
    <g id="xtick_8">
     <g id="line2d_19">
      <path clip-path="url(#p6c4c4b942c)" d="M 174.854857 294.88 
L 174.854857 6.845228 
" style="fill:none;stroke:#b0b0b0;stroke-linecap:square;stroke-width:0.8;"/>
     </g>
     <g id="line2d_20">
      <g>
       <use style="stroke:#000000;stroke-width:0.6;" x="174.854857" xlink:href="#m6802914ba5" y="294.88"/>
      </g>
     </g>
    </g>
    <g id="xtick_9">
     <g id="line2d_21">
      <path clip-path="url(#p6c4c4b942c)" d="M 214.433143 294.88 
L 214.433143 6.845228 
" style="fill:none;stroke:#b0b0b0;stroke-linecap:square;stroke-width:0.8;"/>
     </g>
     <g id="line2d_22">
      <g>
       <use style="stroke:#000000;stroke-width:0.6;" x="214.433143" xlink:href="#m6802914ba5" y="294.88"/>
      </g>
     </g>
    </g>
    <g id="xtick_10">
     <g id="line2d_23">
      <path clip-path="url(#p6c4c4b942c)" d="M 254.011429 294.88 
L 254.011429 6.845228 
" style="fill:none;stroke:#b0b0b0;stroke-linecap:square;stroke-width:0.8;"/>
     </g>
     <g id="line2d_24">
      <g>
       <use style="stroke:#000000;stroke-width:0.6;" x="254.011429" xlink:href="#m6802914ba5" y="294.88"/>
      </g>
     </g>
    </g>
    <g id="xtick_11">
     <g id="line2d_25">
      <path clip-path="url(#p6c4c4b942c)" d="M 293.589714 294.88 
L 293.589714 6.845228 
" style="fill:none;stroke:#b0b0b0;stroke-linecap:square;stroke-width:0.8;"/>
     </g>
     <g id="line2d_26">
      <g>
       <use style="stroke:#000000;stroke-width:0.6;" x="293.589714" xlink:href="#m6802914ba5" y="294.88"/>
      </g>
     </g>
    </g>
    <g id="xtick_12">
     <g id="line2d_27">
      <path clip-path="url(#p6c4c4b942c)" d="M 333.168 294.88 
L 333.168 6.845228 
" style="fill:none;stroke:#b0b0b0;stroke-linecap:square;stroke-width:0.8;"/>
     </g>
     <g id="line2d_28">
      <g>
       <use style="stroke:#000000;stroke-width:0.6;" x="333.168" xlink:href="#m6802914ba5" y="294.88"/>
      </g>
     </g>
    </g>
    <g id="text_5">
     <!-- log10(# f-evals / dimension) -->
     <defs>
      <path d="M 9.421875 75.984375 
L 18.40625 75.984375 
L 18.40625 0 
L 9.421875 0 
z
" id="DejaVuSans-6c"/>
      <path d="M 30.609375 48.390625 
Q 23.390625 48.390625 19.1875 42.75 
Q 14.984375 37.109375 14.984375 27.296875 
Q 14.984375 17.484375 19.15625 11.84375 
Q 23.34375 6.203125 30.609375 6.203125 
Q 37.796875 6.203125 41.984375 11.859375 
Q 46.1875 17.53125 46.1875 27.296875 
Q 46.1875 37.015625 41.984375 42.703125 
Q 37.796875 48.390625 30.609375 48.390625 
z
M 30.609375 56 
Q 42.328125 56 49.015625 48.375 
Q 55.71875 40.765625 55.71875 27.296875 
Q 55.71875 13.875 49.015625 6.21875 
Q 42.328125 -1.421875 30.609375 -1.421875 
Q 18.84375 -1.421875 12.171875 6.21875 
Q 5.515625 13.875 5.515625 27.296875 
Q 5.515625 40.765625 12.171875 48.375 
Q 18.84375 56 30.609375 56 
z
" id="DejaVuSans-6f"/>
      <path d="M 45.40625 27.984375 
Q 45.40625 37.75 41.375 43.109375 
Q 37.359375 48.484375 30.078125 48.484375 
Q 22.859375 48.484375 18.828125 43.109375 
Q 14.796875 37.75 14.796875 27.984375 
Q 14.796875 18.265625 18.828125 12.890625 
Q 22.859375 7.515625 30.078125 7.515625 
Q 37.359375 7.515625 41.375 12.890625 
Q 45.40625 18.265625 45.40625 27.984375 
z
M 54.390625 6.78125 
Q 54.390625 -7.171875 48.1875 -13.984375 
Q 42 -20.796875 29.203125 -20.796875 
Q 24.46875 -20.796875 20.265625 -20.09375 
Q 16.0625 -19.390625 12.109375 -17.921875 
L 12.109375 -9.1875 
Q 16.0625 -11.328125 19.921875 -12.34375 
Q 23.78125 -13.375 27.78125 -13.375 
Q 36.625 -13.375 41.015625 -8.765625 
Q 45.40625 -4.15625 45.40625 5.171875 
L 45.40625 9.625 
Q 42.625 4.78125 38.28125 2.390625 
Q 33.9375 0 27.875 0 
Q 17.828125 0 11.671875 7.65625 
Q 5.515625 15.328125 5.515625 27.984375 
Q 5.515625 40.671875 11.671875 48.328125 
Q 17.828125 56 27.875 56 
Q 33.9375 56 38.28125 53.609375 
Q 42.625 51.21875 45.40625 46.390625 
L 45.40625 54.6875 
L 54.390625 54.6875 
z
" id="DejaVuSans-67"/>
      <path d="M 12.40625 8.296875 
L 28.515625 8.296875 
L 28.515625 63.921875 
L 10.984375 60.40625 
L 10.984375 69.390625 
L 28.421875 72.90625 
L 38.28125 72.90625 
L 38.28125 8.296875 
L 54.390625 8.296875 
L 54.390625 0 
L 12.40625 0 
z
" id="DejaVuSans-31"/>
      <path d="M 31 75.875 
Q 24.46875 64.65625 21.28125 53.65625 
Q 18.109375 42.671875 18.109375 31.390625 
Q 18.109375 20.125 21.3125 9.0625 
Q 24.515625 -2 31 -13.1875 
L 23.1875 -13.1875 
Q 15.875 -1.703125 12.234375 9.375 
Q 8.59375 20.453125 8.59375 31.390625 
Q 8.59375 42.28125 12.203125 53.3125 
Q 15.828125 64.359375 23.1875 75.875 
z
" id="DejaVuSans-28"/>
      <path d="M 51.125 44 
L 36.921875 44 
L 32.8125 27.6875 
L 47.125 27.6875 
z
M 43.796875 71.78125 
L 38.71875 51.515625 
L 52.984375 51.515625 
L 58.109375 71.78125 
L 65.921875 71.78125 
L 60.890625 51.515625 
L 76.125 51.515625 
L 76.125 44 
L 58.984375 44 
L 54.984375 27.6875 
L 70.515625 27.6875 
L 70.515625 20.21875 
L 53.078125 20.21875 
L 48 0 
L 40.1875 0 
L 45.21875 20.21875 
L 30.90625 20.21875 
L 25.875 0 
L 18.015625 0 
L 23.09375 20.21875 
L 7.71875 20.21875 
L 7.71875 27.6875 
L 24.90625 27.6875 
L 29 44 
L 13.28125 44 
L 13.28125 51.515625 
L 30.90625 51.515625 
L 35.890625 71.78125 
z
" id="DejaVuSans-23"/>
      <path id="DejaVuSans-20"/>
      <path d="M 37.109375 75.984375 
L 37.109375 68.5 
L 28.515625 68.5 
Q 23.6875 68.5 21.796875 66.546875 
Q 19.921875 64.59375 19.921875 59.515625 
L 19.921875 54.6875 
L 34.71875 54.6875 
L 34.71875 47.703125 
L 19.921875 47.703125 
L 19.921875 0 
L 10.890625 0 
L 10.890625 47.703125 
L 2.296875 47.703125 
L 2.296875 54.6875 
L 10.890625 54.6875 
L 10.890625 58.5 
Q 10.890625 67.625 15.140625 71.796875 
Q 19.390625 75.984375 28.609375 75.984375 
z
" id="DejaVuSans-66"/>
      <path d="M 4.890625 31.390625 
L 31.203125 31.390625 
L 31.203125 23.390625 
L 4.890625 23.390625 
z
" id="DejaVuSans-2d"/>
      <path d="M 56.203125 29.59375 
L 56.203125 25.203125 
L 14.890625 25.203125 
Q 15.484375 15.921875 20.484375 11.0625 
Q 25.484375 6.203125 34.421875 6.203125 
Q 39.59375 6.203125 44.453125 7.46875 
Q 49.3125 8.734375 54.109375 11.28125 
L 54.109375 2.78125 
Q 49.265625 0.734375 44.1875 -0.34375 
Q 39.109375 -1.421875 33.890625 -1.421875 
Q 20.796875 -1.421875 13.15625 6.1875 
Q 5.515625 13.8125 5.515625 26.8125 
Q 5.515625 40.234375 12.765625 48.109375 
Q 20.015625 56 32.328125 56 
Q 43.359375 56 49.78125 48.890625 
Q 56.203125 41.796875 56.203125 29.59375 
z
M 47.21875 32.234375 
Q 47.125 39.59375 43.09375 43.984375 
Q 39.0625 48.390625 32.421875 48.390625 
Q 24.90625 48.390625 20.390625 44.140625 
Q 15.875 39.890625 15.1875 32.171875 
z
" id="DejaVuSans-65"/>
      <path d="M 2.984375 54.6875 
L 12.5 54.6875 
L 29.59375 8.796875 
L 46.6875 54.6875 
L 56.203125 54.6875 
L 35.6875 0 
L 23.484375 0 
z
" id="DejaVuSans-76"/>
      <path d="M 34.28125 27.484375 
Q 23.390625 27.484375 19.1875 25 
Q 14.984375 22.515625 14.984375 16.5 
Q 14.984375 11.71875 18.140625 8.90625 
Q 21.296875 6.109375 26.703125 6.109375 
Q 34.1875 6.109375 38.703125 11.40625 
Q 43.21875 16.703125 43.21875 25.484375 
L 43.21875 27.484375 
z
M 52.203125 31.203125 
L 52.203125 0 
L 43.21875 0 
L 43.21875 8.296875 
Q 40.140625 3.328125 35.546875 0.953125 
Q 30.953125 -1.421875 24.3125 -1.421875 
Q 15.921875 -1.421875 10.953125 3.296875 
Q 6 8.015625 6 15.921875 
Q 6 25.140625 12.171875 29.828125 
Q 18.359375 34.515625 30.609375 34.515625 
L 43.21875 34.515625 
L 43.21875 35.40625 
Q 43.21875 41.609375 39.140625 45 
Q 35.0625 48.390625 27.6875 48.390625 
Q 23 48.390625 18.546875 47.265625 
Q 14.109375 46.140625 10.015625 43.890625 
L 10.015625 52.203125 
Q 14.9375 54.109375 19.578125 55.046875 
Q 24.21875 56 28.609375 56 
Q 40.484375 56 46.34375 49.84375 
Q 52.203125 43.703125 52.203125 31.203125 
z
" id="DejaVuSans-61"/>
      <path d="M 44.28125 53.078125 
L 44.28125 44.578125 
Q 40.484375 46.53125 36.375 47.5 
Q 32.28125 48.484375 27.875 48.484375 
Q 21.1875 48.484375 17.84375 46.4375 
Q 14.5 44.390625 14.5 40.28125 
Q 14.5 37.15625 16.890625 35.375 
Q 19.28125 33.59375 26.515625 31.984375 
L 29.59375 31.296875 
Q 39.15625 29.25 43.1875 25.515625 
Q 47.21875 21.78125 47.21875 15.09375 
Q 47.21875 7.46875 41.1875 3.015625 
Q 35.15625 -1.421875 24.609375 -1.421875 
Q 20.21875 -1.421875 15.453125 -0.5625 
Q 10.6875 0.296875 5.421875 2 
L 5.421875 11.28125 
Q 10.40625 8.6875 15.234375 7.390625 
Q 20.0625 6.109375 24.8125 6.109375 
Q 31.15625 6.109375 34.5625 8.28125 
Q 37.984375 10.453125 37.984375 14.40625 
Q 37.984375 18.0625 35.515625 20.015625 
Q 33.0625 21.96875 24.703125 23.78125 
L 21.578125 24.515625 
Q 13.234375 26.265625 9.515625 29.90625 
Q 5.8125 33.546875 5.8125 39.890625 
Q 5.8125 47.609375 11.28125 51.796875 
Q 16.75 56 26.8125 56 
Q 31.78125 56 36.171875 55.265625 
Q 40.578125 54.546875 44.28125 53.078125 
z
" id="DejaVuSans-73"/>
      <path d="M 25.390625 72.90625 
L 33.6875 72.90625 
L 8.296875 -9.28125 
L 0 -9.28125 
z
" id="DejaVuSans-2f"/>
      <path d="M 45.40625 46.390625 
L 45.40625 75.984375 
L 54.390625 75.984375 
L 54.390625 0 
L 45.40625 0 
L 45.40625 8.203125 
Q 42.578125 3.328125 38.25 0.953125 
Q 33.9375 -1.421875 27.875 -1.421875 
Q 17.96875 -1.421875 11.734375 6.484375 
Q 5.515625 14.40625 5.515625 27.296875 
Q 5.515625 40.1875 11.734375 48.09375 
Q 17.96875 56 27.875 56 
Q 33.9375 56 38.25 53.625 
Q 42.578125 51.265625 45.40625 46.390625 
z
M 14.796875 27.296875 
Q 14.796875 17.390625 18.875 11.75 
Q 22.953125 6.109375 30.078125 6.109375 
Q 37.203125 6.109375 41.296875 11.75 
Q 45.40625 17.390625 45.40625 27.296875 
Q 45.40625 37.203125 41.296875 42.84375 
Q 37.203125 48.484375 30.078125 48.484375 
Q 22.953125 48.484375 18.875 42.84375 
Q 14.796875 37.203125 14.796875 27.296875 
z
" id="DejaVuSans-64"/>
      <path d="M 9.421875 54.6875 
L 18.40625 54.6875 
L 18.40625 0 
L 9.421875 0 
z
M 9.421875 75.984375 
L 18.40625 75.984375 
L 18.40625 64.59375 
L 9.421875 64.59375 
z
" id="DejaVuSans-69"/>
      <path d="M 52 44.1875 
Q 55.375 50.25 60.0625 53.125 
Q 64.75 56 71.09375 56 
Q 79.640625 56 84.28125 50.015625 
Q 88.921875 44.046875 88.921875 33.015625 
L 88.921875 0 
L 79.890625 0 
L 79.890625 32.71875 
Q 79.890625 40.578125 77.09375 44.375 
Q 74.3125 48.1875 68.609375 48.1875 
Q 61.625 48.1875 57.5625 43.546875 
Q 53.515625 38.921875 53.515625 30.90625 
L 53.515625 0 
L 44.484375 0 
L 44.484375 32.71875 
Q 44.484375 40.625 41.703125 44.40625 
Q 38.921875 48.1875 33.109375 48.1875 
Q 26.21875 48.1875 22.15625 43.53125 
Q 18.109375 38.875 18.109375 30.90625 
L 18.109375 0 
L 9.078125 0 
L 9.078125 54.6875 
L 18.109375 54.6875 
L 18.109375 46.1875 
Q 21.1875 51.21875 25.484375 53.609375 
Q 29.78125 56 35.6875 56 
Q 41.65625 56 45.828125 52.96875 
Q 50 49.953125 52 44.1875 
z
" id="DejaVuSans-6d"/>
      <path d="M 54.890625 33.015625 
L 54.890625 0 
L 45.90625 0 
L 45.90625 32.71875 
Q 45.90625 40.484375 42.875 44.328125 
Q 39.84375 48.1875 33.796875 48.1875 
Q 26.515625 48.1875 22.3125 43.546875 
Q 18.109375 38.921875 18.109375 30.90625 
L 18.109375 0 
L 9.078125 0 
L 9.078125 54.6875 
L 18.109375 54.6875 
L 18.109375 46.1875 
Q 21.34375 51.125 25.703125 53.5625 
Q 30.078125 56 35.796875 56 
Q 45.21875 56 50.046875 50.171875 
Q 54.890625 44.34375 54.890625 33.015625 
z
" id="DejaVuSans-6e"/>
      <path d="M 8.015625 75.875 
L 15.828125 75.875 
Q 23.140625 64.359375 26.78125 53.3125 
Q 30.421875 42.28125 30.421875 31.390625 
Q 30.421875 20.453125 26.78125 9.375 
Q 23.140625 -1.703125 15.828125 -13.1875 
L 8.015625 -13.1875 
Q 14.5 -2 17.703125 9.0625 
Q 20.90625 20.125 20.90625 31.390625 
Q 20.90625 42.671875 17.703125 53.65625 
Q 14.5 64.65625 8.015625 75.875 
z
" id="DejaVuSans-29"/>
     </defs>
     <g transform="translate(73.803219 338.153594)scale(0.17 -0.17)">
      <use xlink:href="#DejaVuSans-6c"/>
      <use x="27.783203" xlink:href="#DejaVuSans-6f"/>
      <use x="88.964844" xlink:href="#DejaVuSans-67"/>
      <use x="152.441406" xlink:href="#DejaVuSans-31"/>
      <use x="216.064453" xlink:href="#DejaVuSans-30"/>
      <use x="279.6875" xlink:href="#DejaVuSans-28"/>
      <use x="318.701172" xlink:href="#DejaVuSans-23"/>
      <use x="402.490234" xlink:href="#DejaVuSans-20"/>
      <use x="434.277344" xlink:href="#DejaVuSans-66"/>
      <use x="469.404297" xlink:href="#DejaVuSans-2d"/>
      <use x="505.488281" xlink:href="#DejaVuSans-65"/>
      <use x="567.011719" xlink:href="#DejaVuSans-76"/>
      <use x="626.191406" xlink:href="#DejaVuSans-61"/>
      <use x="687.470703" xlink:href="#DejaVuSans-6c"/>
      <use x="715.253906" xlink:href="#DejaVuSans-73"/>
      <use x="767.353516" xlink:href="#DejaVuSans-20"/>
      <use x="799.140625" xlink:href="#DejaVuSans-2f"/>
      <use x="832.832031" xlink:href="#DejaVuSans-20"/>
      <use x="864.619141" xlink:href="#DejaVuSans-64"/>
      <use x="928.095703" xlink:href="#DejaVuSans-69"/>
      <use x="955.878906" xlink:href="#DejaVuSans-6d"/>
      <use x="1053.291016" xlink:href="#DejaVuSans-65"/>
      <use x="1114.814453" xlink:href="#DejaVuSans-6e"/>
      <use x="1178.193359" xlink:href="#DejaVuSans-73"/>
      <use x="1230.292969" xlink:href="#DejaVuSans-69"/>
      <use x="1258.076172" xlink:href="#DejaVuSans-6f"/>
      <use x="1319.257812" xlink:href="#DejaVuSans-6e"/>
      <use x="1382.636719" xlink:href="#DejaVuSans-29"/>
     </g>
    </g>
   </g>
   <g id="matplotlib.axis_2">
    <g id="ytick_1">
     <g id="line2d_29">
      <path clip-path="url(#p6c4c4b942c)" d="M 56.12 294.88 
L 333.168 294.88 
" style="fill:none;stroke:#b0b0b0;stroke-linecap:square;stroke-width:0.8;"/>
     </g>
     <g id="line2d_30">
      <defs>
       <path d="M 0 0 
L -3.5 0 
" id="mebc9e10ada" style="stroke:#000000;stroke-width:0.8;"/>
      </defs>
      <g>
       <use style="stroke:#000000;stroke-width:0.8;" x="56.12" xlink:href="#mebc9e10ada" y="294.88"/>
      </g>
     </g>
     <g id="text_6">
      <!-- 0.0 -->
      <defs>
       <path d="M 10.6875 12.40625 
L 21 12.40625 
L 21 0 
L 10.6875 0 
z
" id="DejaVuSans-2e"/>
      </defs>
      <g transform="translate(23.675 300.95875)scale(0.16 -0.16)">
       <use xlink:href="#DejaVuSans-30"/>
       <use x="63.623047" xlink:href="#DejaVuSans-2e"/>
       <use x="95.410156" xlink:href="#DejaVuSans-30"/>
      </g>
     </g>
    </g>
    <g id="ytick_2">
     <g id="line2d_31">
      <path clip-path="url(#p6c4c4b942c)" d="M 56.12 237.843411 
L 333.168 237.843411 
" style="fill:none;stroke:#b0b0b0;stroke-linecap:square;stroke-width:0.8;"/>
     </g>
     <g id="line2d_32">
      <g>
       <use style="stroke:#000000;stroke-width:0.8;" x="56.12" xlink:href="#mebc9e10ada" y="237.843411"/>
      </g>
     </g>
     <g id="text_7">
      <!-- 0.2 -->
      <g transform="translate(23.675 243.922161)scale(0.16 -0.16)">
       <use xlink:href="#DejaVuSans-30"/>
       <use x="63.623047" xlink:href="#DejaVuSans-2e"/>
       <use x="95.410156" xlink:href="#DejaVuSans-32"/>
      </g>
     </g>
    </g>
    <g id="ytick_3">
     <g id="line2d_33">
      <path clip-path="url(#p6c4c4b942c)" d="M 56.12 180.806823 
L 333.168 180.806823 
" style="fill:none;stroke:#b0b0b0;stroke-linecap:square;stroke-width:0.8;"/>
     </g>
     <g id="line2d_34">
      <g>
       <use style="stroke:#000000;stroke-width:0.8;" x="56.12" xlink:href="#mebc9e10ada" y="180.806823"/>
      </g>
     </g>
     <g id="text_8">
      <!-- 0.4 -->
      <g transform="translate(23.675 186.885573)scale(0.16 -0.16)">
       <use xlink:href="#DejaVuSans-30"/>
       <use x="63.623047" xlink:href="#DejaVuSans-2e"/>
       <use x="95.410156" xlink:href="#DejaVuSans-34"/>
      </g>
     </g>
    </g>
    <g id="ytick_4">
     <g id="line2d_35">
      <path clip-path="url(#p6c4c4b942c)" d="M 56.12 123.770234 
L 333.168 123.770234 
" style="fill:none;stroke:#b0b0b0;stroke-linecap:square;stroke-width:0.8;"/>
     </g>
     <g id="line2d_36">
      <g>
       <use style="stroke:#000000;stroke-width:0.8;" x="56.12" xlink:href="#mebc9e10ada" y="123.770234"/>
      </g>
     </g>
     <g id="text_9">
      <!-- 0.6 -->
      <g transform="translate(23.675 129.848984)scale(0.16 -0.16)">
       <use xlink:href="#DejaVuSans-30"/>
       <use x="63.623047" xlink:href="#DejaVuSans-2e"/>
       <use x="95.410156" xlink:href="#DejaVuSans-36"/>
      </g>
     </g>
    </g>
    <g id="ytick_5">
     <g id="line2d_37">
      <path clip-path="url(#p6c4c4b942c)" d="M 56.12 66.733646 
L 333.168 66.733646 
" style="fill:none;stroke:#b0b0b0;stroke-linecap:square;stroke-width:0.8;"/>
     </g>
     <g id="line2d_38">
      <g>
       <use style="stroke:#000000;stroke-width:0.8;" x="56.12" xlink:href="#mebc9e10ada" y="66.733646"/>
      </g>
     </g>
     <g id="text_10">
      <!-- 0.8 -->
      <defs>
       <path d="M 31.78125 34.625 
Q 24.75 34.625 20.71875 30.859375 
Q 16.703125 27.09375 16.703125 20.515625 
Q 16.703125 13.921875 20.71875 10.15625 
Q 24.75 6.390625 31.78125 6.390625 
Q 38.8125 6.390625 42.859375 10.171875 
Q 46.921875 13.96875 46.921875 20.515625 
Q 46.921875 27.09375 42.890625 30.859375 
Q 38.875 34.625 31.78125 34.625 
z
M 21.921875 38.8125 
Q 15.578125 40.375 12.03125 44.71875 
Q 8.5 49.078125 8.5 55.328125 
Q 8.5 64.0625 14.71875 69.140625 
Q 20.953125 74.21875 31.78125 74.21875 
Q 42.671875 74.21875 48.875 69.140625 
Q 55.078125 64.0625 55.078125 55.328125 
Q 55.078125 49.078125 51.53125 44.71875 
Q 48 40.375 41.703125 38.8125 
Q 48.828125 37.15625 52.796875 32.3125 
Q 56.78125 27.484375 56.78125 20.515625 
Q 56.78125 9.90625 50.3125 4.234375 
Q 43.84375 -1.421875 31.78125 -1.421875 
Q 19.734375 -1.421875 13.25 4.234375 
Q 6.78125 9.90625 6.78125 20.515625 
Q 6.78125 27.484375 10.78125 32.3125 
Q 14.796875 37.15625 21.921875 38.8125 
z
M 18.3125 54.390625 
Q 18.3125 48.734375 21.84375 45.5625 
Q 25.390625 42.390625 31.78125 42.390625 
Q 38.140625 42.390625 41.71875 45.5625 
Q 45.3125 48.734375 45.3125 54.390625 
Q 45.3125 60.0625 41.71875 63.234375 
Q 38.140625 66.40625 31.78125 66.40625 
Q 25.390625 66.40625 21.84375 63.234375 
Q 18.3125 60.0625 18.3125 54.390625 
z
" id="DejaVuSans-38"/>
      </defs>
      <g transform="translate(23.675 72.812396)scale(0.16 -0.16)">
       <use xlink:href="#DejaVuSans-30"/>
       <use x="63.623047" xlink:href="#DejaVuSans-2e"/>
       <use x="95.410156" xlink:href="#DejaVuSans-38"/>
      </g>
     </g>
    </g>
    <g id="ytick_6">
     <g id="line2d_39">
      <path clip-path="url(#p6c4c4b942c)" d="M 56.12 9.697057 
L 333.168 9.697057 
" style="fill:none;stroke:#b0b0b0;stroke-linecap:square;stroke-width:0.8;"/>
     </g>
     <g id="line2d_40">
      <g>
       <use style="stroke:#000000;stroke-width:0.8;" x="56.12" xlink:href="#mebc9e10ada" y="9.697057"/>
      </g>
     </g>
     <g id="text_11">
      <!-- 1.0 -->
      <g transform="translate(23.675 15.775807)scale(0.16 -0.16)">
       <use xlink:href="#DejaVuSans-31"/>
       <use x="63.623047" xlink:href="#DejaVuSans-2e"/>
       <use x="95.410156" xlink:href="#DejaVuSans-30"/>
      </g>
     </g>
    </g>
    <g id="text_12">
     <!-- Fraction of function,target pairs -->
     <defs>
      <path d="M 9.8125 72.90625 
L 51.703125 72.90625 
L 51.703125 64.59375 
L 19.671875 64.59375 
L 19.671875 43.109375 
L 48.578125 43.109375 
L 48.578125 34.8125 
L 19.671875 34.8125 
L 19.671875 0 
L 9.8125 0 
z
" id="DejaVuSans-46"/>
      <path d="M 41.109375 46.296875 
Q 39.59375 47.171875 37.8125 47.578125 
Q 36.03125 48 33.890625 48 
Q 26.265625 48 22.1875 43.046875 
Q 18.109375 38.09375 18.109375 28.8125 
L 18.109375 0 
L 9.078125 0 
L 9.078125 54.6875 
L 18.109375 54.6875 
L 18.109375 46.1875 
Q 20.953125 51.171875 25.484375 53.578125 
Q 30.03125 56 36.53125 56 
Q 37.453125 56 38.578125 55.875 
Q 39.703125 55.765625 41.0625 55.515625 
z
" id="DejaVuSans-72"/>
      <path d="M 48.78125 52.59375 
L 48.78125 44.1875 
Q 44.96875 46.296875 41.140625 47.34375 
Q 37.3125 48.390625 33.40625 48.390625 
Q 24.65625 48.390625 19.8125 42.84375 
Q 14.984375 37.3125 14.984375 27.296875 
Q 14.984375 17.28125 19.8125 11.734375 
Q 24.65625 6.203125 33.40625 6.203125 
Q 37.3125 6.203125 41.140625 7.25 
Q 44.96875 8.296875 48.78125 10.40625 
L 48.78125 2.09375 
Q 45.015625 0.34375 40.984375 -0.53125 
Q 36.96875 -1.421875 32.421875 -1.421875 
Q 20.0625 -1.421875 12.78125 6.34375 
Q 5.515625 14.109375 5.515625 27.296875 
Q 5.515625 40.671875 12.859375 48.328125 
Q 20.21875 56 33.015625 56 
Q 37.15625 56 41.109375 55.140625 
Q 45.0625 54.296875 48.78125 52.59375 
z
" id="DejaVuSans-63"/>
      <path d="M 18.3125 70.21875 
L 18.3125 54.6875 
L 36.8125 54.6875 
L 36.8125 47.703125 
L 18.3125 47.703125 
L 18.3125 18.015625 
Q 18.3125 11.328125 20.140625 9.421875 
Q 21.96875 7.515625 27.59375 7.515625 
L 36.8125 7.515625 
L 36.8125 0 
L 27.59375 0 
Q 17.1875 0 13.234375 3.875 
Q 9.28125 7.765625 9.28125 18.015625 
L 9.28125 47.703125 
L 2.6875 47.703125 
L 2.6875 54.6875 
L 9.28125 54.6875 
L 9.28125 70.21875 
z
" id="DejaVuSans-74"/>
      <path d="M 8.5 21.578125 
L 8.5 54.6875 
L 17.484375 54.6875 
L 17.484375 21.921875 
Q 17.484375 14.15625 20.5 10.265625 
Q 23.53125 6.390625 29.59375 6.390625 
Q 36.859375 6.390625 41.078125 11.03125 
Q 45.3125 15.671875 45.3125 23.6875 
L 45.3125 54.6875 
L 54.296875 54.6875 
L 54.296875 0 
L 45.3125 0 
L 45.3125 8.40625 
Q 42.046875 3.421875 37.71875 1 
Q 33.40625 -1.421875 27.6875 -1.421875 
Q 18.265625 -1.421875 13.375 4.4375 
Q 8.5 10.296875 8.5 21.578125 
z
M 31.109375 56 
z
" id="DejaVuSans-75"/>
      <path d="M 11.71875 12.40625 
L 22.015625 12.40625 
L 22.015625 4 
L 14.015625 -11.625 
L 7.71875 -11.625 
L 11.71875 4 
z
" id="DejaVuSans-2c"/>
      <path d="M 18.109375 8.203125 
L 18.109375 -20.796875 
L 9.078125 -20.796875 
L 9.078125 54.6875 
L 18.109375 54.6875 
L 18.109375 46.390625 
Q 20.953125 51.265625 25.265625 53.625 
Q 29.59375 56 35.59375 56 
Q 45.5625 56 51.78125 48.09375 
Q 58.015625 40.1875 58.015625 27.296875 
Q 58.015625 14.40625 51.78125 6.484375 
Q 45.5625 -1.421875 35.59375 -1.421875 
Q 29.59375 -1.421875 25.265625 0.953125 
Q 20.953125 3.328125 18.109375 8.203125 
z
M 48.6875 27.296875 
Q 48.6875 37.203125 44.609375 42.84375 
Q 40.53125 48.484375 33.40625 48.484375 
Q 26.265625 48.484375 22.1875 42.84375 
Q 18.109375 37.203125 18.109375 27.296875 
Q 18.109375 17.390625 22.1875 11.75 
Q 26.265625 6.109375 33.40625 6.109375 
Q 40.53125 6.109375 44.609375 11.75 
Q 48.6875 17.390625 48.6875 27.296875 
z
" id="DejaVuSans-70"/>
     </defs>
     <g transform="translate(16.139531 286.001989)rotate(-90)scale(0.17 -0.17)">
      <use xlink:href="#DejaVuSans-46"/>
      <use x="57.410156" xlink:href="#DejaVuSans-72"/>
      <use x="98.523438" xlink:href="#DejaVuSans-61"/>
      <use x="159.802734" xlink:href="#DejaVuSans-63"/>
      <use x="214.783203" xlink:href="#DejaVuSans-74"/>
      <use x="253.992188" xlink:href="#DejaVuSans-69"/>
      <use x="281.775391" xlink:href="#DejaVuSans-6f"/>
      <use x="342.957031" xlink:href="#DejaVuSans-6e"/>
      <use x="406.335938" xlink:href="#DejaVuSans-20"/>
      <use x="438.123047" xlink:href="#DejaVuSans-6f"/>
      <use x="499.304688" xlink:href="#DejaVuSans-66"/>
      <use x="534.509766" xlink:href="#DejaVuSans-20"/>
      <use x="566.296875" xlink:href="#DejaVuSans-66"/>
      <use x="601.501953" xlink:href="#DejaVuSans-75"/>
      <use x="664.880859" xlink:href="#DejaVuSans-6e"/>
      <use x="728.259766" xlink:href="#DejaVuSans-63"/>
      <use x="783.240234" xlink:href="#DejaVuSans-74"/>
      <use x="822.449219" xlink:href="#DejaVuSans-69"/>
      <use x="850.232422" xlink:href="#DejaVuSans-6f"/>
      <use x="911.414062" xlink:href="#DejaVuSans-6e"/>
      <use x="974.792969" xlink:href="#DejaVuSans-2c"/>
      <use x="1006.580078" xlink:href="#DejaVuSans-74"/>
      <use x="1045.789062" xlink:href="#DejaVuSans-61"/>
      <use x="1107.068359" xlink:href="#DejaVuSans-72"/>
      <use x="1148.166016" xlink:href="#DejaVuSans-67"/>
      <use x="1211.642578" xlink:href="#DejaVuSans-65"/>
      <use x="1273.166016" xlink:href="#DejaVuSans-74"/>
      <use x="1312.375" xlink:href="#DejaVuSans-20"/>
      <use x="1344.162109" xlink:href="#DejaVuSans-70"/>
      <use x="1407.638672" xlink:href="#DejaVuSans-61"/>
      <use x="1468.917969" xlink:href="#DejaVuSans-69"/>
      <use x="1496.701172" xlink:href="#DejaVuSans-72"/>
      <use x="1537.814453" xlink:href="#DejaVuSans-73"/>
     </g>
    </g>
   </g>
   <g id="line2d_41">
    <defs>
     <path d="M 0 1.5 
C 0.397805 1.5 0.77937 1.341951 1.06066 1.06066 
C 1.341951 0.77937 1.5 0.397805 1.5 0 
C 1.5 -0.397805 1.341951 -0.77937 1.06066 -1.06066 
C 0.77937 -1.341951 0.397805 -1.5 0 -1.5 
C -0.397805 -1.5 -0.77937 -1.341951 -1.06066 -1.06066 
C -1.341951 -0.77937 -1.5 -0.397805 -1.5 0 
C -1.5 0.397805 -1.341951 0.77937 -1.06066 1.06066 
C -0.77937 1.341951 -0.397805 1.5 0 1.5 
z
" id="m2174315db8" style="stroke:#f5deb3;"/>
    </defs>
    <g>
     <use style="fill:#f5deb3;stroke:#f5deb3;" x="310.033209" xlink:href="#m2174315db8" y="9.697057"/>
     <use style="fill:#f5deb3;stroke:#f5deb3;" x="310.033209" xlink:href="#m2174315db8" y="9.697057"/>
    </g>
   </g>
   <g id="line2d_42">
    <defs>
     <path d="M 0 1.5 
C 0.397805 1.5 0.77937 1.341951 1.06066 1.06066 
C 1.341951 0.77937 1.5 0.397805 1.5 0 
C 1.5 -0.397805 1.341951 -0.77937 1.06066 -1.06066 
C 0.77937 -1.341951 0.397805 -1.5 0 -1.5 
C -0.397805 -1.5 -0.77937 -1.341951 -1.06066 -1.06066 
C -1.341951 -0.77937 -1.5 -0.397805 -1.5 0 
C -1.5 0.397805 -1.341951 0.77937 -1.06066 1.06066 
C -0.77937 1.341951 -0.397805 1.5 0 1.5 
z
" id="m74d1cf2741" style="stroke:#000080;"/>
    </defs>
    <g>
     <use style="fill:#000080;stroke:#000080;" x="216.651759" xlink:href="#m74d1cf2741" y="279.502488"/>
     <use style="fill:#000080;stroke:#000080;" x="216.651759" xlink:href="#m74d1cf2741" y="279.502488"/>
    </g>
   </g>
   <g id="line2d_43">
    <path d="M 4.627463 294.88 
L 4.627463 287.820324 
L 92.8034 287.727127 
L 92.8034 287.703828 
L 97.100534 287.610631 
L 97.100534 287.587332 
L 104.409787 287.494135 
L 104.409787 287.470835 
L 108.120612 287.377638 
L 108.120612 287.30774 
L 109.483595 287.214543 
L 109.522091 287.167945 
L 110.638629 287.074748 
L 110.710548 287.00485 
L 111.516686 286.934952 
L 111.516686 286.888354 
L 113.210876 286.795157 
L 113.210876 286.771858 
L 115.090002 286.67866 
L 115.090002 286.655361 
L 117.009137 286.562164 
L 117.009137 286.538865 
L 119.440629 286.445668 
L 119.440629 286.422369 
L 121.589472 286.329172 
L 121.665528 286.282573 
L 123.327909 286.189376 
L 123.396663 286.142777 
L 125.310285 286.04958 
L 125.310285 286.026281 
L 126.695551 285.933084 
L 126.695551 285.909785 
L 127.578629 285.816588 
L 127.645746 285.74669 
L 129.133535 285.653493 
L 129.133535 285.630194 
L 130.33171 285.536997 
L 130.434534 285.490398 
L 131.224827 285.397201 
L 131.224827 285.373902 
L 132.42232 285.280705 
L 132.483094 285.234106 
L 132.961694 285.140909 
L 132.961694 285.094311 
L 133.636601 285.001114 
L 133.740289 284.954515 
L 134.583847 284.861318 
L 134.628528 284.81472 
L 134.955604 284.721523 
L 134.955604 284.698223 
L 136.188716 284.605026 
L 136.188716 284.581727 
L 137.109047 284.48853 
L 137.109047 284.441932 
L 137.626495 284.348734 
L 137.678888 284.255537 
L 138.652226 284.16234 
L 138.736761 284.115742 
L 140.009571 284.022545 
L 140.074705 283.975946 
L 141.74602 283.882749 
L 141.74602 283.85945 
L 142.29745 283.766253 
L 142.29745 283.742954 
L 144.10674 283.649757 
L 144.193927 283.603158 
L 146.182039 283.509961 
L 146.182039 283.486662 
L 147.130557 283.393465 
L 147.199415 283.183771 
L 149.521996 283.090574 
L 149.521996 283.067275 
L 151.386945 282.974078 
L 151.386945 282.950779 
L 152.946673 282.857582 
L 152.946673 282.834283 
L 154.013485 282.741086 
L 154.117187 282.671188 
L 154.987932 282.577991 
L 154.998849 282.531392 
L 158.09629 282.438195 
L 158.103124 282.391597 
L 159.107222 282.2984 
L 159.107222 282.2751 
L 160.58635 282.181903 
L 160.58635 282.158604 
L 163.250626 282.065407 
L 163.254002 281.995509 
L 164.357106 281.902312 
L 164.357106 281.855714 
L 166.896722 281.762517 
L 166.896722 281.739217 
L 167.819163 281.64602 
L 167.845026 281.599422 
L 168.998153 281.506225 
L 169.062076 281.459626 
L 170.312055 281.366429 
L 170.312055 281.34313 
L 172.36405 281.249933 
L 172.36405 281.226634 
L 173.130533 281.133437 
L 173.216778 281.086838 
L 173.538017 280.993641 
L 173.553784 280.947042 
L 175.19945 280.853845 
L 175.19945 280.830546 
L 176.897711 280.737349 
L 176.897711 280.71405 
L 177.52045 280.620853 
L 177.52045 280.597554 
L 179.923886 280.504357 
L 179.982022 280.434459 
L 182.926592 280.341262 
L 182.932502 280.294663 
L 186.196756 280.201466 
L 186.196756 280.178167 
L 190.119675 280.08497 
L 190.119675 280.061671 
L 191.065256 279.968474 
L 191.065256 279.945174 
L 193.436201 279.851977 
L 193.436201 279.828678 
L 200.699101 279.735481 
L 200.699101 279.712182 
L 207.208245 279.618985 
L 207.208245 279.595685 
L 333.168 279.502488 
L 333.168 279.502488 
" style="fill:none;stroke:#000080;stroke-linecap:square;stroke-width:1.5;"/>
   </g>
   <g id="line2d_44">
    <defs>
     <path d="M 0 6 
C 1.591219 6 3.117479 5.367802 4.242641 4.242641 
C 5.367802 3.117479 6 1.591219 6 0 
C 6 -1.591219 5.367802 -3.117479 4.242641 -4.242641 
C 3.117479 -5.367802 1.591219 -6 0 -6 
C -1.591219 -6 -3.117479 -5.367802 -4.242641 -4.242641 
C -5.367802 -3.117479 -6 -1.591219 -6 0 
C -6 1.591219 -5.367802 3.117479 -4.242641 4.242641 
C -3.117479 5.367802 -1.591219 6 0 6 
z
" id="mb0c54cc6b8" style="stroke:#000080;stroke-width:1.5;"/>
    </defs>
    <g>
     <use style="fill:none;stroke:#000080;stroke-width:1.5;" x="77.155024" xlink:href="#mb0c54cc6b8" y="287.820324"/>
     <use style="fill:none;stroke:#000080;stroke-width:1.5;" x="151.842057" xlink:href="#mb0c54cc6b8" y="282.950779"/>
     <use style="fill:none;stroke:#000080;stroke-width:1.5;" x="216.651759" xlink:href="#mb0c54cc6b8" y="279.525788"/>
     <use style="fill:none;stroke:#000080;stroke-width:1.5;" x="216.651759" xlink:href="#mb0c54cc6b8" y="279.502488"/>
     <use style="fill:none;stroke:#000080;stroke-width:1.5;" x="216.651759" xlink:href="#mb0c54cc6b8" y="279.502488"/>
     <use style="fill:none;stroke:#000080;stroke-width:1.5;" x="333.168" xlink:href="#mb0c54cc6b8" y="279.502488"/>
    </g>
   </g>
   <g id="line2d_45">
    <path style="fill:none;stroke:#000080;stroke-linecap:square;stroke-width:1.5;"/>
    <g/>
   </g>
   <g id="line2d_46">
    <path clip-path="url(#p6c4c4b942c)" d="M 147.190823 283.346866 
" style="fill:none;stroke:#000080;stroke-linecap:square;stroke-width:1.5;"/>
    <defs>
     <path d="M -12 12 
L 12 -12 
M -12 -12 
L 12 12 
" id="me440ba7ddc" style="stroke:#000080;"/>
    </defs>
    <g clip-path="url(#p6c4c4b942c)">
     <use style="fill:#000080;stroke:#000080;" x="147.190823" xlink:href="#me440ba7ddc" y="283.346866"/>
    </g>
   </g>
   <g id="line2d_47">
    <defs>
     <path d="M 0 1.5 
C 0.397805 1.5 0.77937 1.341951 1.06066 1.06066 
C 1.341951 0.77937 1.5 0.397805 1.5 0 
C 1.5 -0.397805 1.341951 -0.77937 1.06066 -1.06066 
C 0.77937 -1.341951 0.397805 -1.5 0 -1.5 
C -0.397805 -1.5 -0.77937 -1.341951 -1.06066 -1.06066 
C -1.341951 -0.77937 -1.5 -0.397805 -1.5 0 
C -1.5 0.397805 -1.341951 0.77937 -1.06066 1.06066 
C -0.77937 1.341951 -0.397805 1.5 0 1.5 
z
" id="m18f5108581" style="stroke:#ff00ff;"/>
    </defs>
    <g>
     <use style="fill:#ff00ff;stroke:#ff00ff;" x="214.736072" xlink:href="#m18f5108581" y="279.502488"/>
     <use style="fill:#ff00ff;stroke:#ff00ff;" x="214.736072" xlink:href="#m18f5108581" y="279.502488"/>
    </g>
   </g>
   <g id="line2d_48">
    <path d="M 4.627463 294.88 
L 4.627463 287.983419 
L 93.304561 287.890222 
L 93.304561 287.866923 
L 101.420285 287.773726 
L 101.420285 287.750426 
L 106.548983 287.657229 
L 106.548983 287.63393 
L 108.120612 287.564032 
L 108.120612 287.494135 
L 108.895557 287.424237 
L 108.895557 287.377638 
L 109.977446 287.284441 
L 109.977446 287.237843 
L 110.710548 287.144646 
L 110.710548 287.121346 
L 112.055982 287.028149 
L 112.055982 287.00485 
L 113.579218 286.911653 
L 113.579218 286.888354 
L 116.246202 286.795157 
L 116.246202 286.771858 
L 118.256279 286.67866 
L 118.256279 286.655361 
L 120.929036 286.562164 
L 120.929036 286.538865 
L 122.003676 286.445668 
L 122.04084 286.399069 
L 123.102538 286.305872 
L 123.102538 286.282573 
L 123.753181 286.189376 
L 123.753181 286.166077 
L 126.695551 286.07288 
L 126.723846 286.026281 
L 127.578629 285.956383 
L 127.645746 285.863186 
L 129.133535 285.769989 
L 129.133535 285.74669 
L 130.019497 285.653493 
L 130.019497 285.630194 
L 130.728171 285.536997 
L 130.728171 285.513697 
L 131.718109 285.4205 
L 131.718109 285.397201 
L 132.833383 285.327303 
L 132.892723 285.257406 
L 133.465568 285.164209 
L 133.465568 285.140909 
L 134.056882 285.047712 
L 134.158073 284.977814 
L 135.285164 284.884617 
L 135.285164 284.861318 
L 136.407373 284.768121 
L 136.487656 284.698223 
L 137.109047 284.605026 
L 137.109047 284.558428 
L 137.678888 284.465231 
L 137.678888 284.441932 
L 138.41759 284.348734 
L 138.41759 284.325435 
L 138.897632 284.232238 
L 138.925457 284.18564 
L 140.479464 284.092443 
L 140.542844 284.045844 
L 141.95707 283.952647 
L 142.03265 283.906049 
L 143.462385 283.812851 
L 143.505037 283.766253 
L 145.110339 283.673056 
L 145.124883 283.626457 
L 146.182039 283.53326 
L 146.182039 283.509961 
L 146.917947 283.416764 
L 146.917947 283.393465 
L 147.195119 283.346866 
L 147.195119 283.253669 
L 150.064898 283.160472 
L 150.064898 283.137173 
L 151.386945 283.043976 
L 151.386945 283.020677 
L 151.900968 282.92748 
L 152.011694 282.880881 
L 152.96818 282.787684 
L 152.980457 282.717786 
L 153.935295 282.624589 
L 153.935295 282.60129 
L 154.998849 282.508093 
L 154.998849 282.461494 
L 156.790197 282.368297 
L 156.790197 282.344998 
L 157.64381 282.251801 
L 157.64381 282.228502 
L 159.044808 282.135305 
L 159.111518 282.042108 
L 161.695063 281.948911 
L 161.695063 281.925611 
L 162.85272 281.832414 
L 162.85272 281.809115 
L 163.818486 281.739217 
L 163.818486 281.692619 
L 165.408562 281.599422 
L 165.408562 281.576123 
L 167.790669 281.482925 
L 167.790669 281.459626 
L 169.196381 281.366429 
L 169.291675 281.273232 
L 170.52565 281.180035 
L 170.52565 281.133437 
L 173.324213 281.04024 
L 173.324213 281.01694 
L 174.2905 280.923743 
L 174.2905 280.900444 
L 176.912204 280.807247 
L 176.912204 280.783948 
L 179.812819 280.690751 
L 179.832774 280.644152 
L 182.945926 280.550955 
L 182.945926 280.527656 
L 184.225069 280.434459 
L 184.225069 280.41116 
L 187.771887 280.317962 
L 187.771887 280.294663 
L 189.671517 280.201466 
L 189.671517 280.178167 
L 191.330609 280.08497 
L 191.330609 280.061671 
L 194.446772 279.968474 
L 194.446772 279.945174 
L 196.987753 279.851977 
L 196.987753 279.828678 
L 199.430078 279.735481 
L 199.430078 279.712182 
L 204.305418 279.618985 
L 204.305418 279.595685 
L 333.168 279.502488 
L 333.168 279.502488 
" style="fill:none;stroke:#ff00ff;stroke-linecap:square;stroke-width:1.5;"/>
   </g>
   <g id="line2d_49">
    <defs>
     <path d="M -0 8.485281 
L 5.091169 0 
L 0 -8.485281 
L -5.091169 -0 
z
" id="m0bb1be1094" style="stroke:#ff00ff;stroke-linejoin:miter;stroke-width:1.5;"/>
    </defs>
    <g>
     <use style="fill:none;stroke:#ff00ff;stroke-linejoin:miter;stroke-width:1.5;" x="138.41759" xlink:href="#m0bb1be1094" y="284.348734"/>
     <use style="fill:none;stroke:#ff00ff;stroke-linejoin:miter;stroke-width:1.5;" x="214.736072" xlink:href="#m0bb1be1094" y="279.525788"/>
     <use style="fill:none;stroke:#ff00ff;stroke-linejoin:miter;stroke-width:1.5;" x="214.736072" xlink:href="#m0bb1be1094" y="279.502488"/>
     <use style="fill:none;stroke:#ff00ff;stroke-linejoin:miter;stroke-width:1.5;" x="214.736072" xlink:href="#m0bb1be1094" y="279.502488"/>
     <use style="fill:none;stroke:#ff00ff;stroke-linejoin:miter;stroke-width:1.5;" x="333.168" xlink:href="#m0bb1be1094" y="279.502488"/>
    </g>
   </g>
   <g id="line2d_50">
    <path style="fill:none;stroke:#ff00ff;stroke-linecap:square;stroke-width:1.5;"/>
    <g/>
   </g>
   <g id="line2d_51">
    <path clip-path="url(#p6c4c4b942c)" d="M 147.190823 283.346866 
" style="fill:none;stroke:#ff00ff;stroke-linecap:square;stroke-width:1.5;"/>
    <defs>
     <path d="M -12 12 
L 12 -12 
M -12 -12 
L 12 12 
" id="mdc7ec61f32" style="stroke:#ff00ff;"/>
    </defs>
    <g clip-path="url(#p6c4c4b942c)">
     <use style="fill:#ff00ff;stroke:#ff00ff;" x="147.190823" xlink:href="#mdc7ec61f32" y="283.346866"/>
    </g>
   </g>
   <g id="line2d_52">
    <path d="M 333.168 279.502488 
L 363.64328 289.176341 
" style="fill:none;stroke:#000080;stroke-linecap:square;stroke-width:1.5;"/>
    <g>
     <use style="fill:none;stroke:#000080;stroke-width:1.5;" x="333.168" xlink:href="#mb0c54cc6b8" y="279.502488"/>
     <use style="fill:none;stroke:#000080;stroke-width:1.5;" x="363.64328" xlink:href="#mb0c54cc6b8" y="289.176341"/>
    </g>
   </g>
   <g id="line2d_53">
    <path d="M 333.168 279.502488 
L 363.64328 152.288529 
" style="fill:none;stroke:#ff00ff;stroke-linecap:square;stroke-width:1.5;"/>
    <g>
     <use style="fill:none;stroke:#ff00ff;stroke-linejoin:miter;stroke-width:1.5;" x="333.168" xlink:href="#m0bb1be1094" y="279.502488"/>
     <use style="fill:none;stroke:#ff00ff;stroke-linejoin:miter;stroke-width:1.5;" x="363.64328" xlink:href="#m0bb1be1094" y="152.288529"/>
    </g>
   </g>
   <g id="line2d_54">
    <path d="M 333.168 294.88 
L 333.168 9.697057 
" style="fill:none;stroke:#000000;stroke-linecap:square;stroke-width:1.5;"/>
   </g>
   <g id="patch_3">
    <path d="M 56.12 294.88 
L 56.12 6.845228 
" style="fill:none;stroke:#000000;stroke-linecap:square;stroke-linejoin:miter;stroke-width:0.8;"/>
   </g>
   <g id="patch_4">
    <path d="M 333.168 294.88 
L 333.168 6.845228 
" style="fill:none;stroke:#000000;stroke-linecap:square;stroke-linejoin:miter;stroke-width:0.8;"/>
   </g>
   <g id="patch_5">
    <path d="M 56.12 294.88 
L 333.168 294.88 
" style="fill:none;stroke:#000000;stroke-linecap:square;stroke-linejoin:miter;stroke-width:0.8;"/>
   </g>
   <g id="patch_6">
    <path d="M 56.12 6.845228 
L 333.168 6.845228 
" style="fill:none;stroke:#000000;stroke-linecap:square;stroke-linejoin:miter;stroke-width:0.8;"/>
   </g>
   <g id="text_13">
    <!-- scipyAlg -->
    <defs>
     <path d="M 32.171875 -5.078125 
Q 28.375 -14.84375 24.75 -17.8125 
Q 21.140625 -20.796875 15.09375 -20.796875 
L 7.90625 -20.796875 
L 7.90625 -13.28125 
L 13.1875 -13.28125 
Q 16.890625 -13.28125 18.9375 -11.515625 
Q 21 -9.765625 23.484375 -3.21875 
L 25.09375 0.875 
L 2.984375 54.6875 
L 12.5 54.6875 
L 29.59375 11.921875 
L 46.6875 54.6875 
L 56.203125 54.6875 
z
" id="DejaVuSans-79"/>
     <path d="M 34.1875 63.1875 
L 20.796875 26.90625 
L 47.609375 26.90625 
z
M 28.609375 72.90625 
L 39.796875 72.90625 
L 67.578125 0 
L 57.328125 0 
L 50.6875 18.703125 
L 17.828125 18.703125 
L 11.1875 0 
L 0.78125 0 
z
" id="DejaVuSans-41"/>
    </defs>
    <g transform="translate(369.18424 293.867279)scale(0.17 -0.17)">
     <use xlink:href="#DejaVuSans-73"/>
     <use x="52.099609" xlink:href="#DejaVuSans-63"/>
     <use x="107.080078" xlink:href="#DejaVuSans-69"/>
     <use x="134.863281" xlink:href="#DejaVuSans-70"/>
     <use x="198.339844" xlink:href="#DejaVuSans-79"/>
     <use x="257.519531" xlink:href="#DejaVuSans-41"/>
     <use x="325.927734" xlink:href="#DejaVuSans-6c"/>
     <use x="353.710938" xlink:href="#DejaVuSans-67"/>
    </g>
   </g>
   <g id="text_14">
    <!-- scipy-opt -->
    <g transform="translate(369.18424 156.979466)scale(0.17 -0.17)">
     <use xlink:href="#DejaVuSans-73"/>
     <use x="52.099609" xlink:href="#DejaVuSans-63"/>
     <use x="107.080078" xlink:href="#DejaVuSans-69"/>
     <use x="134.863281" xlink:href="#DejaVuSans-70"/>
     <use x="198.339844" xlink:href="#DejaVuSans-79"/>
     <use x="257.503906" xlink:href="#DejaVuSans-2d"/>
     <use x="293.603516" xlink:href="#DejaVuSans-6f"/>
     <use x="354.785156" xlink:href="#DejaVuSans-70"/>
     <use x="418.261719" xlink:href="#DejaVuSans-74"/>
    </g>
   </g>
   <g id="text_15">
    <!-- best 2009 -->
    <defs>
     <path d="M 48.6875 27.296875 
Q 48.6875 37.203125 44.609375 42.84375 
Q 40.53125 48.484375 33.40625 48.484375 
Q 26.265625 48.484375 22.1875 42.84375 
Q 18.109375 37.203125 18.109375 27.296875 
Q 18.109375 17.390625 22.1875 11.75 
Q 26.265625 6.109375 33.40625 6.109375 
Q 40.53125 6.109375 44.609375 11.75 
Q 48.6875 17.390625 48.6875 27.296875 
z
M 18.109375 46.390625 
Q 20.953125 51.265625 25.265625 53.625 
Q 29.59375 56 35.59375 56 
Q 45.5625 56 51.78125 48.09375 
Q 58.015625 40.1875 58.015625 27.296875 
Q 58.015625 14.40625 51.78125 6.484375 
Q 45.5625 -1.421875 35.59375 -1.421875 
Q 29.59375 -1.421875 25.265625 0.953125 
Q 20.953125 3.328125 18.109375 8.203125 
L 18.109375 0 
L 9.078125 0 
L 9.078125 75.984375 
L 18.109375 75.984375 
z
" id="DejaVuSans-62"/>
     <path d="M 10.984375 1.515625 
L 10.984375 10.5 
Q 14.703125 8.734375 18.5 7.8125 
Q 22.3125 6.890625 25.984375 6.890625 
Q 35.75 6.890625 40.890625 13.453125 
Q 46.046875 20.015625 46.78125 33.40625 
Q 43.953125 29.203125 39.59375 26.953125 
Q 35.25 24.703125 29.984375 24.703125 
Q 19.046875 24.703125 12.671875 31.3125 
Q 6.296875 37.9375 6.296875 49.421875 
Q 6.296875 60.640625 12.9375 67.421875 
Q 19.578125 74.21875 30.609375 74.21875 
Q 43.265625 74.21875 49.921875 64.515625 
Q 56.59375 54.828125 56.59375 36.375 
Q 56.59375 19.140625 48.40625 8.859375 
Q 40.234375 -1.421875 26.421875 -1.421875 
Q 22.703125 -1.421875 18.890625 -0.6875 
Q 15.09375 0.046875 10.984375 1.515625 
z
M 30.609375 32.421875 
Q 37.25 32.421875 41.125 36.953125 
Q 45.015625 41.5 45.015625 49.421875 
Q 45.015625 57.28125 41.125 61.84375 
Q 37.25 66.40625 30.609375 66.40625 
Q 23.96875 66.40625 20.09375 61.84375 
Q 16.21875 57.28125 16.21875 49.421875 
Q 16.21875 41.5 20.09375 36.953125 
Q 23.96875 32.421875 30.609375 32.421875 
z
" id="DejaVuSans-39"/>
    </defs>
    <g transform="translate(369.18424 20.091654)scale(0.17 -0.17)">
     <use xlink:href="#DejaVuSans-62"/>
     <use x="63.476562" xlink:href="#DejaVuSans-65"/>
     <use x="125" xlink:href="#DejaVuSans-73"/>
     <use x="177.099609" xlink:href="#DejaVuSans-74"/>
     <use x="216.308594" xlink:href="#DejaVuSans-20"/>
     <use x="248.095703" xlink:href="#DejaVuSans-32"/>
     <use x="311.71875" xlink:href="#DejaVuSans-30"/>
     <use x="375.341797" xlink:href="#DejaVuSans-30"/>
     <use x="438.964844" xlink:href="#DejaVuSans-39"/>
    </g>
   </g>
   <g id="text_16">
    <!-- bbob f1-f24, 20-D -->
    <defs>
     <path d="M 19.671875 64.796875 
L 19.671875 8.109375 
L 31.59375 8.109375 
Q 46.6875 8.109375 53.6875 14.9375 
Q 60.6875 21.78125 60.6875 36.53125 
Q 60.6875 51.171875 53.6875 57.984375 
Q 46.6875 64.796875 31.59375 64.796875 
z
M 9.8125 72.90625 
L 30.078125 72.90625 
Q 51.265625 72.90625 61.171875 64.09375 
Q 71.09375 55.28125 71.09375 36.53125 
Q 71.09375 17.671875 61.125 8.828125 
Q 51.171875 0 30.078125 0 
L 9.8125 0 
z
" id="DejaVuSans-44"/>
    </defs>
    <g transform="translate(58.89048 17.475982)scale(0.102 -0.102)">
     <use xlink:href="#DejaVuSans-62"/>
     <use x="63.476562" xlink:href="#DejaVuSans-62"/>
     <use x="126.953125" xlink:href="#DejaVuSans-6f"/>
     <use x="188.134766" xlink:href="#DejaVuSans-62"/>
     <use x="251.611328" xlink:href="#DejaVuSans-20"/>
     <use x="283.398438" xlink:href="#DejaVuSans-66"/>
     <use x="318.603516" xlink:href="#DejaVuSans-31"/>
     <use x="382.226562" xlink:href="#DejaVuSans-2d"/>
     <use x="418.310547" xlink:href="#DejaVuSans-66"/>
     <use x="453.515625" xlink:href="#DejaVuSans-32"/>
     <use x="517.138672" xlink:href="#DejaVuSans-34"/>
     <use x="580.761719" xlink:href="#DejaVuSans-2c"/>
     <use x="612.548828" xlink:href="#DejaVuSans-20"/>
     <use x="644.335938" xlink:href="#DejaVuSans-32"/>
     <use x="707.958984" xlink:href="#DejaVuSans-30"/>
     <use x="771.582031" xlink:href="#DejaVuSans-2d"/>
     <use x="807.666016" xlink:href="#DejaVuSans-44"/>
    </g>
    <!-- 51 targets: 100..1e-08 -->
    <defs>
     <path d="M 10.796875 72.90625 
L 49.515625 72.90625 
L 49.515625 64.59375 
L 19.828125 64.59375 
L 19.828125 46.734375 
Q 21.96875 47.46875 24.109375 47.828125 
Q 26.265625 48.1875 28.421875 48.1875 
Q 40.625 48.1875 47.75 41.5 
Q 54.890625 34.8125 54.890625 23.390625 
Q 54.890625 11.625 47.5625 5.09375 
Q 40.234375 -1.421875 26.90625 -1.421875 
Q 22.3125 -1.421875 17.546875 -0.640625 
Q 12.796875 0.140625 7.71875 1.703125 
L 7.71875 11.625 
Q 12.109375 9.234375 16.796875 8.0625 
Q 21.484375 6.890625 26.703125 6.890625 
Q 35.15625 6.890625 40.078125 11.328125 
Q 45.015625 15.765625 45.015625 23.390625 
Q 45.015625 31 40.078125 35.4375 
Q 35.15625 39.890625 26.703125 39.890625 
Q 22.75 39.890625 18.8125 39.015625 
Q 14.890625 38.140625 10.796875 36.28125 
z
" id="DejaVuSans-35"/>
     <path d="M 11.71875 12.40625 
L 22.015625 12.40625 
L 22.015625 0 
L 11.71875 0 
z
M 11.71875 51.703125 
L 22.015625 51.703125 
L 22.015625 39.3125 
L 11.71875 39.3125 
z
" id="DejaVuSans-3a"/>
    </defs>
    <g transform="translate(58.89048 28.89775)scale(0.102 -0.102)">
     <use xlink:href="#DejaVuSans-35"/>
     <use x="63.623047" xlink:href="#DejaVuSans-31"/>
     <use x="127.246094" xlink:href="#DejaVuSans-20"/>
     <use x="159.033203" xlink:href="#DejaVuSans-74"/>
     <use x="198.242188" xlink:href="#DejaVuSans-61"/>
     <use x="259.521484" xlink:href="#DejaVuSans-72"/>
     <use x="300.619141" xlink:href="#DejaVuSans-67"/>
     <use x="364.095703" xlink:href="#DejaVuSans-65"/>
     <use x="425.619141" xlink:href="#DejaVuSans-74"/>
     <use x="464.828125" xlink:href="#DejaVuSans-73"/>
     <use x="516.927734" xlink:href="#DejaVuSans-3a"/>
     <use x="550.619141" xlink:href="#DejaVuSans-20"/>
     <use x="582.40625" xlink:href="#DejaVuSans-31"/>
     <use x="646.029297" xlink:href="#DejaVuSans-30"/>
     <use x="709.652344" xlink:href="#DejaVuSans-30"/>
     <use x="773.275391" xlink:href="#DejaVuSans-2e"/>
     <use x="805.0625" xlink:href="#DejaVuSans-2e"/>
     <use x="836.849609" xlink:href="#DejaVuSans-31"/>
     <use x="900.472656" xlink:href="#DejaVuSans-65"/>
     <use x="961.996094" xlink:href="#DejaVuSans-2d"/>
     <use x="998.080078" xlink:href="#DejaVuSans-30"/>
     <use x="1061.703125" xlink:href="#DejaVuSans-38"/>
    </g>
    <!-- 15 instances -->
    <g transform="translate(58.89048 40.319519)scale(0.102 -0.102)">
     <use xlink:href="#DejaVuSans-31"/>
     <use x="63.623047" xlink:href="#DejaVuSans-35"/>
     <use x="127.246094" xlink:href="#DejaVuSans-20"/>
     <use x="159.033203" xlink:href="#DejaVuSans-69"/>
     <use x="186.816406" xlink:href="#DejaVuSans-6e"/>
     <use x="250.195312" xlink:href="#DejaVuSans-73"/>
     <use x="302.294922" xlink:href="#DejaVuSans-74"/>
     <use x="341.503906" xlink:href="#DejaVuSans-61"/>
     <use x="402.783203" xlink:href="#DejaVuSans-6e"/>
     <use x="466.162109" xlink:href="#DejaVuSans-63"/>
     <use x="521.142578" xlink:href="#DejaVuSans-65"/>
     <use x="582.666016" xlink:href="#DejaVuSans-73"/>
    </g>
   </g>
   <g id="text_17">
    <!-- v0.0.0 -->
    <g style="fill:#808080;" transform="translate(178.96275 289.919965)scale(0.1 -0.1)">
     <use xlink:href="#DejaVuSans-76"/>
     <use x="59.179688" xlink:href="#DejaVuSans-30"/>
     <use x="122.802734" xlink:href="#DejaVuSans-2e"/>
     <use x="154.589844" xlink:href="#DejaVuSans-30"/>
     <use x="218.212891" xlink:href="#DejaVuSans-2e"/>
     <use x="250" xlink:href="#DejaVuSans-30"/>
    </g>
   </g>
  </g>
 </g>
 <defs>
  <clipPath id="p6c4c4b942c">
   <rect height="288.034772" width="277.048" x="56.12" y="6.845228"/>
  </clipPath>
 </defs>
</svg>
