<?xml version="1.0" encoding="utf-8" standalone="no"?>
<!DOCTYPE svg PUBLIC "-//W3C//DTD SVG 1.1//EN"
  "http://www.w3.org/Graphics/SVG/1.1/DTD/svg11.dtd">
<!-- Created with matplotlib (http://matplotlib.org/) -->
<svg height="345pt" version="1.1" viewBox="0 0 460 345" width="460pt" xmlns="http://www.w3.org/2000/svg" xmlns:xlink="http://www.w3.org/1999/xlink">
 <defs>
  <style type="text/css">
*{stroke-linecap:butt;stroke-linejoin:round;}
  </style>
 </defs>
 <g id="figure_1">
  <g id="patch_1">
   <path d="M 0 345.6 
L 460.8 345.6 
L 460.8 0 
L 0 0 
z
" style="fill:#ffffff;"/>
  </g>
  <g id="axes_1">
   <g id="patch_2">
    <path d="M 56.12 294.88 
L 333.168 294.88 
L 333.168 6.845228 
L 56.12 6.845228 
z
" style="fill:#ffffff;"/>
   </g>
   <g id="line2d_1">
    <path d="M 28.455965 294.88 
L 28.455965 290.686133 
L 59.253858 290.686133 
L 59.253858 289.288178 
L 69.672503 289.288178 
L 69.672503 287.890222 
L 75.003641 287.890222 
L 75.003641 286.492266 
L 76.11297 286.492266 
L 76.11297 285.094311 
L 79.948502 285.094311 
L 79.948502 282.2984 
L 83.08236 282.2984 
L 83.08236 279.502488 
L 83.784035 279.502488 
L 83.784035 278.104533 
L 84.458185 278.104533 
L 84.458185 275.308622 
L 89.567532 275.308622 
L 89.567532 272.51271 
L 93.501005 272.51271 
L 93.501005 271.114755 
L 94.996612 271.114755 
L 94.996612 269.716799 
L 97.021141 269.716799 
L 97.021141 265.522932 
L 98.832144 265.522932 
L 98.832144 264.124977 
L 99.395756 264.124977 
L 99.395756 262.727021 
L 99.941473 262.727021 
L 99.941473 261.329066 
L 101.23446 261.329066 
L 101.23446 259.93111 
L 101.725597 259.93111 
L 101.725597 258.533154 
L 101.966002 258.533154 
L 101.966002 257.135199 
L 102.20309 257.135199 
L 102.20309 255.737243 
L 103.990531 255.737243 
L 103.990531 254.339288 
L 108.775496 254.339288 
L 108.775496 252.941332 
L 109.864733 252.941332 
L 109.864733 251.543376 
L 111.72091 251.543376 
L 111.72091 250.145421 
L 112.514373 250.145421 
L 112.514373 248.747465 
L 112.770924 248.747465 
L 112.770924 247.34951 
L 114.466953 247.34951 
L 114.466953 245.951554 
L 116.115688 245.951554 
L 116.115688 244.553598 
L 116.529892 244.553598 
L 116.529892 243.155643 
L 117.620026 243.155643 
L 117.620026 241.757687 
L 118.186736 241.757687 
L 118.186736 240.359732 
L 118.914406 240.359732 
L 118.914406 238.961776 
L 119.354037 238.961776 
L 119.354037 237.56382 
L 119.526788 237.56382 
L 119.526788 236.165865 
L 120.365424 236.165865 
L 120.365424 234.767909 
L 120.689748 234.767909 
L 120.689748 231.971998 
L 121.397846 231.971998 
L 121.397846 230.574042 
L 121.627542 230.574042 
L 121.627542 229.176087 
L 122.298767 229.176087 
L 122.371755 226.380175 
L 122.588877 226.380175 
L 122.588877 223.584264 
L 123.635161 223.584264 
L 123.635161 222.186309 
L 123.769975 222.186309 
L 123.769975 220.788353 
L 123.903739 220.788353 
L 123.903739 219.390397 
L 124.233665 219.390397 
L 124.233665 216.594486 
L 124.748719 216.594486 
L 124.748719 215.196531 
L 124.875107 215.196531 
L 124.875107 213.798575 
L 125.125128 213.798575 
L 125.125128 211.002664 
L 125.371564 211.002664 
L 125.371564 209.604708 
L 125.854083 209.604708 
L 125.854083 208.206753 
L 126.090357 208.206753 
L 126.090357 206.808797 
L 126.496178 206.808797 
L 126.496178 205.410841 
L 126.723846 205.410841 
L 126.723846 202.61493 
L 126.836558 202.61493 
L 126.836558 201.216975 
L 127.334814 201.216975 
L 127.334814 199.819019 
L 127.659138 199.819019 
L 127.7659 194.227197 
L 127.819033 194.227197 
L 127.872003 187.237419 
L 127.977455 187.237419 
L 128.082264 184.441507 
L 128.39291 184.441507 
L 128.444143 181.645596 
L 128.546153 181.645596 
L 128.647561 177.451729 
L 128.8486 177.451729 
L 128.898495 173.257863 
L 129.341145 173.257863 
L 129.437982 167.66604 
L 129.630036 167.66604 
L 129.677716 164.870129 
L 129.867125 164.870129 
L 129.914152 162.074218 
L 130.054468 162.074218 
L 130.054468 160.676262 
L 130.193648 160.676262 
L 130.239792 152.288529 
L 130.377486 152.288529 
L 130.42314 149.492617 
L 130.604552 149.492617 
L 130.604552 146.696706 
L 130.784069 146.696706 
L 130.784069 145.298751 
L 131.005861 145.298751 
L 131.049878 142.502839 
L 131.181257 142.502839 
L 131.268288 139.706928 
L 131.354881 139.706928 
L 131.398014 136.911017 
L 131.483957 136.911017 
L 131.483957 135.513061 
L 131.612072 135.513061 
L 131.654565 132.71715 
L 131.781419 132.71715 
L 131.865471 127.125328 
L 131.949115 127.125328 
L 132.032353 122.931461 
L 132.073821 122.931461 
L 132.156459 118.737594 
L 132.197629 118.737594 
L 132.279675 114.543727 
L 132.320552 114.543727 
L 132.402015 110.349861 
L 132.442602 110.349861 
L 132.442602 104.758038 
L 133.234845 104.758038 
L 133.234845 103.360082 
L 134.503128 103.360082 
L 134.503128 101.962127 
L 135.379395 101.962127 
L 135.379395 100.564171 
L 136.342875 100.564171 
L 136.342875 99.166216 
L 137.827708 99.166216 
L 137.827708 97.76826 
L 138.862788 97.76826 
L 138.862788 96.370304 
L 139.839061 96.370304 
L 139.839061 94.972349 
L 140.762851 94.972349 
L 140.762851 93.574393 
L 141.206772 93.574393 
L 141.206772 92.176438 
L 142.154044 92.176438 
L 142.154044 90.778482 
L 143.462385 90.778482 
L 143.462385 89.380526 
L 145.013063 89.380526 
L 145.013063 87.982571 
L 146.471234 87.982571 
L 146.471234 86.584615 
L 147.156411 86.584615 
L 147.156411 85.18666 
L 147.831886 85.18666 
L 147.831886 83.788704 
L 147.947413 83.788704 
L 147.947413 82.390748 
L 148.401907 82.390748 
L 148.497755 79.594837 
L 148.875888 79.594837 
L 148.875888 78.196882 
L 149.321972 78.196882 
L 149.321972 76.798926 
L 149.741959 76.798926 
L 149.741959 75.40097 
L 149.904187 75.40097 
L 149.918859 72.605059 
L 150.267289 72.605059 
L 150.267289 71.207104 
L 150.424656 71.207104 
L 150.424656 69.809148 
L 150.665061 69.809148 
L 150.665061 68.411192 
L 150.957462 68.411192 
L 150.957462 67.013237 
L 151.258545 67.013237 
L 151.326243 64.217326 
L 151.674041 64.217326 
L 151.674041 62.81937 
L 152.118486 62.81937 
L 152.118486 61.421414 
L 152.400064 61.421414 
L 152.400064 60.023459 
L 152.564308 60.023459 
L 152.564308 58.625503 
L 152.851103 58.625503 
L 152.851103 57.227548 
L 153.206025 57.227548 
L 153.206025 55.829592 
L 153.553767 55.829592 
L 153.589342 53.033681 
L 153.871321 53.033681 
L 153.871321 51.635725 
L 154.579054 51.635725 
L 154.579054 50.23777 
L 154.867386 50.23777 
L 154.966077 22.278658 
L 154.987932 22.278658 
L 154.987932 20.880702 
L 155.107638 20.880702 
L 155.150962 18.084791 
L 155.237283 18.084791 
L 155.237283 16.686835 
L 155.599386 16.686835 
L 155.599386 15.28888 
L 156.138844 15.28888 
L 156.138844 13.890924 
L 156.311596 13.890924 
L 156.311596 12.492968 
L 156.432501 12.492968 
L 156.432501 11.095013 
L 156.691581 11.095013 
L 156.691581 9.697057 
L 333.168 9.697057 
L 333.168 9.697057 
" style="fill:none;stroke:#f5deb3;stroke-linecap:square;stroke-width:4;"/>
   </g>
   <g id="line2d_2">
    <defs>
     <path d="M -0 7.778175 
L 7.778175 0 
L 0 -7.778175 
L -7.778175 -0 
z
" id="m4b6b34728e" style="stroke:#f5deb3;stroke-linejoin:miter;stroke-width:1.5;"/>
    </defs>
    <g>
     <use style="fill:#f5deb3;stroke:#f5deb3;stroke-linejoin:miter;stroke-width:1.5;" x="93.501005" xlink:href="#m4b6b34728e" y="272.51271"/>
     <use style="fill:#f5deb3;stroke:#f5deb3;stroke-linejoin:miter;stroke-width:1.5;" x="131.781419" xlink:href="#m4b6b34728e" y="131.319195"/>
     <use style="fill:#f5deb3;stroke:#f5deb3;stroke-linejoin:miter;stroke-width:1.5;" x="154.966077" xlink:href="#m4b6b34728e" y="48.839814"/>
     <use style="fill:#f5deb3;stroke:#f5deb3;stroke-linejoin:miter;stroke-width:1.5;" x="156.691581" xlink:href="#m4b6b34728e" y="9.697057"/>
     <use style="fill:#f5deb3;stroke:#f5deb3;stroke-linejoin:miter;stroke-width:1.5;" x="156.691581" xlink:href="#m4b6b34728e" y="9.697057"/>
     <use style="fill:#f5deb3;stroke:#f5deb3;stroke-linejoin:miter;stroke-width:1.5;" x="333.168" xlink:href="#m4b6b34728e" y="9.697057"/>
    </g>
   </g>
   <g id="line2d_3">
    <path style="fill:none;stroke:#f5deb3;stroke-linecap:square;stroke-width:4;"/>
    <g/>
   </g>
   <g id="line2d_4">
    <path d="M 333.168 9.697057 
L 363.64328 15.400716 
" style="fill:none;stroke:#f5deb3;stroke-linecap:square;stroke-width:4;"/>
    <g>
     <use style="fill:#f5deb3;stroke:#f5deb3;stroke-linejoin:miter;stroke-width:1.5;" x="333.168" xlink:href="#m4b6b34728e" y="9.697057"/>
     <use style="fill:#f5deb3;stroke:#f5deb3;stroke-linejoin:miter;stroke-width:1.5;" x="363.64328" xlink:href="#m4b6b34728e" y="15.400716"/>
    </g>
   </g>
   <g id="matplotlib.axis_1">
    <g id="xtick_1">
     <g id="line2d_5">
      <path clip-path="url(#p73dfe42939)" d="M 56.12 294.88 
L 56.12 6.845228 
" style="fill:none;stroke:#b0b0b0;stroke-linecap:square;stroke-width:0.8;"/>
     </g>
     <g id="line2d_6">
      <defs>
       <path d="M 0 0 
L 0 3.5 
" id="mf2b1c7b51b" style="stroke:#000000;stroke-width:0.8;"/>
      </defs>
      <g>
       <use style="stroke:#000000;stroke-width:0.8;" x="56.12" xlink:href="#mf2b1c7b51b" y="294.88"/>
      </g>
     </g>
     <g id="text_1">
      <!-- 0 -->
      <defs>
       <path d="M 31.78125 66.40625 
Q 24.171875 66.40625 20.328125 58.90625 
Q 16.5 51.421875 16.5 36.375 
Q 16.5 21.390625 20.328125 13.890625 
Q 24.171875 6.390625 31.78125 6.390625 
Q 39.453125 6.390625 43.28125 13.890625 
Q 47.125 21.390625 47.125 36.375 
Q 47.125 51.421875 43.28125 58.90625 
Q 39.453125 66.40625 31.78125 66.40625 
z
M 31.78125 74.21875 
Q 44.046875 74.21875 50.515625 64.515625 
Q 56.984375 54.828125 56.984375 36.375 
Q 56.984375 17.96875 50.515625 8.265625 
Q 44.046875 -1.421875 31.78125 -1.421875 
Q 19.53125 -1.421875 13.0625 8.265625 
Q 6.59375 17.96875 6.59375 36.375 
Q 6.59375 54.828125 13.0625 64.515625 
Q 19.53125 74.21875 31.78125 74.21875 
z
" id="DejaVuSans-30"/>
      </defs>
      <g transform="translate(49.7575 317.076875)scale(0.2 -0.2)">
       <use xlink:href="#DejaVuSans-30"/>
      </g>
     </g>
    </g>
    <g id="xtick_2">
     <g id="line2d_7">
      <path clip-path="url(#p73dfe42939)" d="M 135.276571 294.88 
L 135.276571 6.845228 
" style="fill:none;stroke:#b0b0b0;stroke-linecap:square;stroke-width:0.8;"/>
     </g>
     <g id="line2d_8">
      <g>
       <use style="stroke:#000000;stroke-width:0.8;" x="135.276571" xlink:href="#mf2b1c7b51b" y="294.88"/>
      </g>
     </g>
     <g id="text_2">
      <!-- 2 -->
      <defs>
       <path d="M 19.1875 8.296875 
L 53.609375 8.296875 
L 53.609375 0 
L 7.328125 0 
L 7.328125 8.296875 
Q 12.9375 14.109375 22.625 23.890625 
Q 32.328125 33.6875 34.8125 36.53125 
Q 39.546875 41.84375 41.421875 45.53125 
Q 43.3125 49.21875 43.3125 52.78125 
Q 43.3125 58.59375 39.234375 62.25 
Q 35.15625 65.921875 28.609375 65.921875 
Q 23.96875 65.921875 18.8125 64.3125 
Q 13.671875 62.703125 7.8125 59.421875 
L 7.8125 69.390625 
Q 13.765625 71.78125 18.9375 73 
Q 24.125 74.21875 28.421875 74.21875 
Q 39.75 74.21875 46.484375 68.546875 
Q 53.21875 62.890625 53.21875 53.421875 
Q 53.21875 48.921875 51.53125 44.890625 
Q 49.859375 40.875 45.40625 35.40625 
Q 44.1875 33.984375 37.640625 27.21875 
Q 31.109375 20.453125 19.1875 8.296875 
z
" id="DejaVuSans-32"/>
      </defs>
      <g transform="translate(128.914071 317.076875)scale(0.2 -0.2)">
       <use xlink:href="#DejaVuSans-32"/>
      </g>
     </g>
    </g>
    <g id="xtick_3">
     <g id="line2d_9">
      <path clip-path="url(#p73dfe42939)" d="M 214.433143 294.88 
L 214.433143 6.845228 
" style="fill:none;stroke:#b0b0b0;stroke-linecap:square;stroke-width:0.8;"/>
     </g>
     <g id="line2d_10">
      <g>
       <use style="stroke:#000000;stroke-width:0.8;" x="214.433143" xlink:href="#mf2b1c7b51b" y="294.88"/>
      </g>
     </g>
     <g id="text_3">
      <!-- 4 -->
      <defs>
       <path d="M 37.796875 64.3125 
L 12.890625 25.390625 
L 37.796875 25.390625 
z
M 35.203125 72.90625 
L 47.609375 72.90625 
L 47.609375 25.390625 
L 58.015625 25.390625 
L 58.015625 17.1875 
L 47.609375 17.1875 
L 47.609375 0 
L 37.796875 0 
L 37.796875 17.1875 
L 4.890625 17.1875 
L 4.890625 26.703125 
z
" id="DejaVuSans-34"/>
      </defs>
      <g transform="translate(208.070643 317.076875)scale(0.2 -0.2)">
       <use xlink:href="#DejaVuSans-34"/>
      </g>
     </g>
    </g>
    <g id="xtick_4">
     <g id="line2d_11">
      <path clip-path="url(#p73dfe42939)" d="M 293.589714 294.88 
L 293.589714 6.845228 
" style="fill:none;stroke:#b0b0b0;stroke-linecap:square;stroke-width:0.8;"/>
     </g>
     <g id="line2d_12">
      <g>
       <use style="stroke:#000000;stroke-width:0.8;" x="293.589714" xlink:href="#mf2b1c7b51b" y="294.88"/>
      </g>
     </g>
     <g id="text_4">
      <!-- 6 -->
      <defs>
       <path d="M 33.015625 40.375 
Q 26.375 40.375 22.484375 35.828125 
Q 18.609375 31.296875 18.609375 23.390625 
Q 18.609375 15.53125 22.484375 10.953125 
Q 26.375 6.390625 33.015625 6.390625 
Q 39.65625 6.390625 43.53125 10.953125 
Q 47.40625 15.53125 47.40625 23.390625 
Q 47.40625 31.296875 43.53125 35.828125 
Q 39.65625 40.375 33.015625 40.375 
z
M 52.59375 71.296875 
L 52.59375 62.3125 
Q 48.875 64.0625 45.09375 64.984375 
Q 41.3125 65.921875 37.59375 65.921875 
Q 27.828125 65.921875 22.671875 59.328125 
Q 17.53125 52.734375 16.796875 39.40625 
Q 19.671875 43.65625 24.015625 45.921875 
Q 28.375 48.1875 33.59375 48.1875 
Q 44.578125 48.1875 50.953125 41.515625 
Q 57.328125 34.859375 57.328125 23.390625 
Q 57.328125 12.15625 50.6875 5.359375 
Q 44.046875 -1.421875 33.015625 -1.421875 
Q 20.359375 -1.421875 13.671875 8.265625 
Q 6.984375 17.96875 6.984375 36.375 
Q 6.984375 53.65625 15.1875 63.9375 
Q 23.390625 74.21875 37.203125 74.21875 
Q 40.921875 74.21875 44.703125 73.484375 
Q 48.484375 72.75 52.59375 71.296875 
z
" id="DejaVuSans-36"/>
      </defs>
      <g transform="translate(287.227214 317.076875)scale(0.2 -0.2)">
       <use xlink:href="#DejaVuSans-36"/>
      </g>
     </g>
    </g>
    <g id="xtick_5">
     <g id="line2d_13">
      <path clip-path="url(#p73dfe42939)" d="M 56.12 294.88 
L 56.12 6.845228 
" style="fill:none;stroke:#b0b0b0;stroke-linecap:square;stroke-width:0.8;"/>
     </g>
     <g id="line2d_14">
      <defs>
       <path d="M 0 0 
L 0 2 
" id="m4140472bf1" style="stroke:#000000;stroke-width:0.6;"/>
      </defs>
      <g>
       <use style="stroke:#000000;stroke-width:0.6;" x="56.12" xlink:href="#m4140472bf1" y="294.88"/>
      </g>
     </g>
    </g>
    <g id="xtick_6">
     <g id="line2d_15">
      <path clip-path="url(#p73dfe42939)" d="M 95.698286 294.88 
L 95.698286 6.845228 
" style="fill:none;stroke:#b0b0b0;stroke-linecap:square;stroke-width:0.8;"/>
     </g>
     <g id="line2d_16">
      <g>
       <use style="stroke:#000000;stroke-width:0.6;" x="95.698286" xlink:href="#m4140472bf1" y="294.88"/>
      </g>
     </g>
    </g>
    <g id="xtick_7">
     <g id="line2d_17">
      <path clip-path="url(#p73dfe42939)" d="M 135.276571 294.88 
L 135.276571 6.845228 
" style="fill:none;stroke:#b0b0b0;stroke-linecap:square;stroke-width:0.8;"/>
     </g>
     <g id="line2d_18">
      <g>
       <use style="stroke:#000000;stroke-width:0.6;" x="135.276571" xlink:href="#m4140472bf1" y="294.88"/>
      </g>
     </g>
    </g>
    <g id="xtick_8">
     <g id="line2d_19">
      <path clip-path="url(#p73dfe42939)" d="M 174.854857 294.88 
L 174.854857 6.845228 
" style="fill:none;stroke:#b0b0b0;stroke-linecap:square;stroke-width:0.8;"/>
     </g>
     <g id="line2d_20">
      <g>
       <use style="stroke:#000000;stroke-width:0.6;" x="174.854857" xlink:href="#m4140472bf1" y="294.88"/>
      </g>
     </g>
    </g>
    <g id="xtick_9">
     <g id="line2d_21">
      <path clip-path="url(#p73dfe42939)" d="M 214.433143 294.88 
L 214.433143 6.845228 
" style="fill:none;stroke:#b0b0b0;stroke-linecap:square;stroke-width:0.8;"/>
     </g>
     <g id="line2d_22">
      <g>
       <use style="stroke:#000000;stroke-width:0.6;" x="214.433143" xlink:href="#m4140472bf1" y="294.88"/>
      </g>
     </g>
    </g>
    <g id="xtick_10">
     <g id="line2d_23">
      <path clip-path="url(#p73dfe42939)" d="M 254.011429 294.88 
L 254.011429 6.845228 
" style="fill:none;stroke:#b0b0b0;stroke-linecap:square;stroke-width:0.8;"/>
     </g>
     <g id="line2d_24">
      <g>
       <use style="stroke:#000000;stroke-width:0.6;" x="254.011429" xlink:href="#m4140472bf1" y="294.88"/>
      </g>
     </g>
    </g>
    <g id="xtick_11">
     <g id="line2d_25">
      <path clip-path="url(#p73dfe42939)" d="M 293.589714 294.88 
L 293.589714 6.845228 
" style="fill:none;stroke:#b0b0b0;stroke-linecap:square;stroke-width:0.8;"/>
     </g>
     <g id="line2d_26">
      <g>
       <use style="stroke:#000000;stroke-width:0.6;" x="293.589714" xlink:href="#m4140472bf1" y="294.88"/>
      </g>
     </g>
    </g>
    <g id="xtick_12">
     <g id="line2d_27">
      <path clip-path="url(#p73dfe42939)" d="M 333.168 294.88 
L 333.168 6.845228 
" style="fill:none;stroke:#b0b0b0;stroke-linecap:square;stroke-width:0.8;"/>
     </g>
     <g id="line2d_28">
      <g>
       <use style="stroke:#000000;stroke-width:0.6;" x="333.168" xlink:href="#m4140472bf1" y="294.88"/>
      </g>
     </g>
    </g>
    <g id="text_5">
     <!-- log10(# f-evals / dimension) -->
     <defs>
      <path d="M 9.421875 75.984375 
L 18.40625 75.984375 
L 18.40625 0 
L 9.421875 0 
z
" id="DejaVuSans-6c"/>
      <path d="M 30.609375 48.390625 
Q 23.390625 48.390625 19.1875 42.75 
Q 14.984375 37.109375 14.984375 27.296875 
Q 14.984375 17.484375 19.15625 11.84375 
Q 23.34375 6.203125 30.609375 6.203125 
Q 37.796875 6.203125 41.984375 11.859375 
Q 46.1875 17.53125 46.1875 27.296875 
Q 46.1875 37.015625 41.984375 42.703125 
Q 37.796875 48.390625 30.609375 48.390625 
z
M 30.609375 56 
Q 42.328125 56 49.015625 48.375 
Q 55.71875 40.765625 55.71875 27.296875 
Q 55.71875 13.875 49.015625 6.21875 
Q 42.328125 -1.421875 30.609375 -1.421875 
Q 18.84375 -1.421875 12.171875 6.21875 
Q 5.515625 13.875 5.515625 27.296875 
Q 5.515625 40.765625 12.171875 48.375 
Q 18.84375 56 30.609375 56 
z
" id="DejaVuSans-6f"/>
      <path d="M 45.40625 27.984375 
Q 45.40625 37.75 41.375 43.109375 
Q 37.359375 48.484375 30.078125 48.484375 
Q 22.859375 48.484375 18.828125 43.109375 
Q 14.796875 37.75 14.796875 27.984375 
Q 14.796875 18.265625 18.828125 12.890625 
Q 22.859375 7.515625 30.078125 7.515625 
Q 37.359375 7.515625 41.375 12.890625 
Q 45.40625 18.265625 45.40625 27.984375 
z
M 54.390625 6.78125 
Q 54.390625 -7.171875 48.1875 -13.984375 
Q 42 -20.796875 29.203125 -20.796875 
Q 24.46875 -20.796875 20.265625 -20.09375 
Q 16.0625 -19.390625 12.109375 -17.921875 
L 12.109375 -9.1875 
Q 16.0625 -11.328125 19.921875 -12.34375 
Q 23.78125 -13.375 27.78125 -13.375 
Q 36.625 -13.375 41.015625 -8.765625 
Q 45.40625 -4.15625 45.40625 5.171875 
L 45.40625 9.625 
Q 42.625 4.78125 38.28125 2.390625 
Q 33.9375 0 27.875 0 
Q 17.828125 0 11.671875 7.65625 
Q 5.515625 15.328125 5.515625 27.984375 
Q 5.515625 40.671875 11.671875 48.328125 
Q 17.828125 56 27.875 56 
Q 33.9375 56 38.28125 53.609375 
Q 42.625 51.21875 45.40625 46.390625 
L 45.40625 54.6875 
L 54.390625 54.6875 
z
" id="DejaVuSans-67"/>
      <path d="M 12.40625 8.296875 
L 28.515625 8.296875 
L 28.515625 63.921875 
L 10.984375 60.40625 
L 10.984375 69.390625 
L 28.421875 72.90625 
L 38.28125 72.90625 
L 38.28125 8.296875 
L 54.390625 8.296875 
L 54.390625 0 
L 12.40625 0 
z
" id="DejaVuSans-31"/>
      <path d="M 31 75.875 
Q 24.46875 64.65625 21.28125 53.65625 
Q 18.109375 42.671875 18.109375 31.390625 
Q 18.109375 20.125 21.3125 9.0625 
Q 24.515625 -2 31 -13.1875 
L 23.1875 -13.1875 
Q 15.875 -1.703125 12.234375 9.375 
Q 8.59375 20.453125 8.59375 31.390625 
Q 8.59375 42.28125 12.203125 53.3125 
Q 15.828125 64.359375 23.1875 75.875 
z
" id="DejaVuSans-28"/>
      <path d="M 51.125 44 
L 36.921875 44 
L 32.8125 27.6875 
L 47.125 27.6875 
z
M 43.796875 71.78125 
L 38.71875 51.515625 
L 52.984375 51.515625 
L 58.109375 71.78125 
L 65.921875 71.78125 
L 60.890625 51.515625 
L 76.125 51.515625 
L 76.125 44 
L 58.984375 44 
L 54.984375 27.6875 
L 70.515625 27.6875 
L 70.515625 20.21875 
L 53.078125 20.21875 
L 48 0 
L 40.1875 0 
L 45.21875 20.21875 
L 30.90625 20.21875 
L 25.875 0 
L 18.015625 0 
L 23.09375 20.21875 
L 7.71875 20.21875 
L 7.71875 27.6875 
L 24.90625 27.6875 
L 29 44 
L 13.28125 44 
L 13.28125 51.515625 
L 30.90625 51.515625 
L 35.890625 71.78125 
z
" id="DejaVuSans-23"/>
      <path id="DejaVuSans-20"/>
      <path d="M 37.109375 75.984375 
L 37.109375 68.5 
L 28.515625 68.5 
Q 23.6875 68.5 21.796875 66.546875 
Q 19.921875 64.59375 19.921875 59.515625 
L 19.921875 54.6875 
L 34.71875 54.6875 
L 34.71875 47.703125 
L 19.921875 47.703125 
L 19.921875 0 
L 10.890625 0 
L 10.890625 47.703125 
L 2.296875 47.703125 
L 2.296875 54.6875 
L 10.890625 54.6875 
L 10.890625 58.5 
Q 10.890625 67.625 15.140625 71.796875 
Q 19.390625 75.984375 28.609375 75.984375 
z
" id="DejaVuSans-66"/>
      <path d="M 4.890625 31.390625 
L 31.203125 31.390625 
L 31.203125 23.390625 
L 4.890625 23.390625 
z
" id="DejaVuSans-2d"/>
      <path d="M 56.203125 29.59375 
L 56.203125 25.203125 
L 14.890625 25.203125 
Q 15.484375 15.921875 20.484375 11.0625 
Q 25.484375 6.203125 34.421875 6.203125 
Q 39.59375 6.203125 44.453125 7.46875 
Q 49.3125 8.734375 54.109375 11.28125 
L 54.109375 2.78125 
Q 49.265625 0.734375 44.1875 -0.34375 
Q 39.109375 -1.421875 33.890625 -1.421875 
Q 20.796875 -1.421875 13.15625 6.1875 
Q 5.515625 13.8125 5.515625 26.8125 
Q 5.515625 40.234375 12.765625 48.109375 
Q 20.015625 56 32.328125 56 
Q 43.359375 56 49.78125 48.890625 
Q 56.203125 41.796875 56.203125 29.59375 
z
M 47.21875 32.234375 
Q 47.125 39.59375 43.09375 43.984375 
Q 39.0625 48.390625 32.421875 48.390625 
Q 24.90625 48.390625 20.390625 44.140625 
Q 15.875 39.890625 15.1875 32.171875 
z
" id="DejaVuSans-65"/>
      <path d="M 2.984375 54.6875 
L 12.5 54.6875 
L 29.59375 8.796875 
L 46.6875 54.6875 
L 56.203125 54.6875 
L 35.6875 0 
L 23.484375 0 
z
" id="DejaVuSans-76"/>
      <path d="M 34.28125 27.484375 
Q 23.390625 27.484375 19.1875 25 
Q 14.984375 22.515625 14.984375 16.5 
Q 14.984375 11.71875 18.140625 8.90625 
Q 21.296875 6.109375 26.703125 6.109375 
Q 34.1875 6.109375 38.703125 11.40625 
Q 43.21875 16.703125 43.21875 25.484375 
L 43.21875 27.484375 
z
M 52.203125 31.203125 
L 52.203125 0 
L 43.21875 0 
L 43.21875 8.296875 
Q 40.140625 3.328125 35.546875 0.953125 
Q 30.953125 -1.421875 24.3125 -1.421875 
Q 15.921875 -1.421875 10.953125 3.296875 
Q 6 8.015625 6 15.921875 
Q 6 25.140625 12.171875 29.828125 
Q 18.359375 34.515625 30.609375 34.515625 
L 43.21875 34.515625 
L 43.21875 35.40625 
Q 43.21875 41.609375 39.140625 45 
Q 35.0625 48.390625 27.6875 48.390625 
Q 23 48.390625 18.546875 47.265625 
Q 14.109375 46.140625 10.015625 43.890625 
L 10.015625 52.203125 
Q 14.9375 54.109375 19.578125 55.046875 
Q 24.21875 56 28.609375 56 
Q 40.484375 56 46.34375 49.84375 
Q 52.203125 43.703125 52.203125 31.203125 
z
" id="DejaVuSans-61"/>
      <path d="M 44.28125 53.078125 
L 44.28125 44.578125 
Q 40.484375 46.53125 36.375 47.5 
Q 32.28125 48.484375 27.875 48.484375 
Q 21.1875 48.484375 17.84375 46.4375 
Q 14.5 44.390625 14.5 40.28125 
Q 14.5 37.15625 16.890625 35.375 
Q 19.28125 33.59375 26.515625 31.984375 
L 29.59375 31.296875 
Q 39.15625 29.25 43.1875 25.515625 
Q 47.21875 21.78125 47.21875 15.09375 
Q 47.21875 7.46875 41.1875 3.015625 
Q 35.15625 -1.421875 24.609375 -1.421875 
Q 20.21875 -1.421875 15.453125 -0.5625 
Q 10.6875 0.296875 5.421875 2 
L 5.421875 11.28125 
Q 10.40625 8.6875 15.234375 7.390625 
Q 20.0625 6.109375 24.8125 6.109375 
Q 31.15625 6.109375 34.5625 8.28125 
Q 37.984375 10.453125 37.984375 14.40625 
Q 37.984375 18.0625 35.515625 20.015625 
Q 33.0625 21.96875 24.703125 23.78125 
L 21.578125 24.515625 
Q 13.234375 26.265625 9.515625 29.90625 
Q 5.8125 33.546875 5.8125 39.890625 
Q 5.8125 47.609375 11.28125 51.796875 
Q 16.75 56 26.8125 56 
Q 31.78125 56 36.171875 55.265625 
Q 40.578125 54.546875 44.28125 53.078125 
z
" id="DejaVuSans-73"/>
      <path d="M 25.390625 72.90625 
L 33.6875 72.90625 
L 8.296875 -9.28125 
L 0 -9.28125 
z
" id="DejaVuSans-2f"/>
      <path d="M 45.40625 46.390625 
L 45.40625 75.984375 
L 54.390625 75.984375 
L 54.390625 0 
L 45.40625 0 
L 45.40625 8.203125 
Q 42.578125 3.328125 38.25 0.953125 
Q 33.9375 -1.421875 27.875 -1.421875 
Q 17.96875 -1.421875 11.734375 6.484375 
Q 5.515625 14.40625 5.515625 27.296875 
Q 5.515625 40.1875 11.734375 48.09375 
Q 17.96875 56 27.875 56 
Q 33.9375 56 38.25 53.625 
Q 42.578125 51.265625 45.40625 46.390625 
z
M 14.796875 27.296875 
Q 14.796875 17.390625 18.875 11.75 
Q 22.953125 6.109375 30.078125 6.109375 
Q 37.203125 6.109375 41.296875 11.75 
Q 45.40625 17.390625 45.40625 27.296875 
Q 45.40625 37.203125 41.296875 42.84375 
Q 37.203125 48.484375 30.078125 48.484375 
Q 22.953125 48.484375 18.875 42.84375 
Q 14.796875 37.203125 14.796875 27.296875 
z
" id="DejaVuSans-64"/>
      <path d="M 9.421875 54.6875 
L 18.40625 54.6875 
L 18.40625 0 
L 9.421875 0 
z
M 9.421875 75.984375 
L 18.40625 75.984375 
L 18.40625 64.59375 
L 9.421875 64.59375 
z
" id="DejaVuSans-69"/>
      <path d="M 52 44.1875 
Q 55.375 50.25 60.0625 53.125 
Q 64.75 56 71.09375 56 
Q 79.640625 56 84.28125 50.015625 
Q 88.921875 44.046875 88.921875 33.015625 
L 88.921875 0 
L 79.890625 0 
L 79.890625 32.71875 
Q 79.890625 40.578125 77.09375 44.375 
Q 74.3125 48.1875 68.609375 48.1875 
Q 61.625 48.1875 57.5625 43.546875 
Q 53.515625 38.921875 53.515625 30.90625 
L 53.515625 0 
L 44.484375 0 
L 44.484375 32.71875 
Q 44.484375 40.625 41.703125 44.40625 
Q 38.921875 48.1875 33.109375 48.1875 
Q 26.21875 48.1875 22.15625 43.53125 
Q 18.109375 38.875 18.109375 30.90625 
L 18.109375 0 
L 9.078125 0 
L 9.078125 54.6875 
L 18.109375 54.6875 
L 18.109375 46.1875 
Q 21.1875 51.21875 25.484375 53.609375 
Q 29.78125 56 35.6875 56 
Q 41.65625 56 45.828125 52.96875 
Q 50 49.953125 52 44.1875 
z
" id="DejaVuSans-6d"/>
      <path d="M 54.890625 33.015625 
L 54.890625 0 
L 45.90625 0 
L 45.90625 32.71875 
Q 45.90625 40.484375 42.875 44.328125 
Q 39.84375 48.1875 33.796875 48.1875 
Q 26.515625 48.1875 22.3125 43.546875 
Q 18.109375 38.921875 18.109375 30.90625 
L 18.109375 0 
L 9.078125 0 
L 9.078125 54.6875 
L 18.109375 54.6875 
L 18.109375 46.1875 
Q 21.34375 51.125 25.703125 53.5625 
Q 30.078125 56 35.796875 56 
Q 45.21875 56 50.046875 50.171875 
Q 54.890625 44.34375 54.890625 33.015625 
z
" id="DejaVuSans-6e"/>
      <path d="M 8.015625 75.875 
L 15.828125 75.875 
Q 23.140625 64.359375 26.78125 53.3125 
Q 30.421875 42.28125 30.421875 31.390625 
Q 30.421875 20.453125 26.78125 9.375 
Q 23.140625 -1.703125 15.828125 -13.1875 
L 8.015625 -13.1875 
Q 14.5 -2 17.703125 9.0625 
Q 20.90625 20.125 20.90625 31.390625 
Q 20.90625 42.671875 17.703125 53.65625 
Q 14.5 64.65625 8.015625 75.875 
z
" id="DejaVuSans-29"/>
     </defs>
     <g transform="translate(73.803219 338.153594)scale(0.17 -0.17)">
      <use xlink:href="#DejaVuSans-6c"/>
      <use x="27.783203" xlink:href="#DejaVuSans-6f"/>
      <use x="88.964844" xlink:href="#DejaVuSans-67"/>
      <use x="152.441406" xlink:href="#DejaVuSans-31"/>
      <use x="216.064453" xlink:href="#DejaVuSans-30"/>
      <use x="279.6875" xlink:href="#DejaVuSans-28"/>
      <use x="318.701172" xlink:href="#DejaVuSans-23"/>
      <use x="402.490234" xlink:href="#DejaVuSans-20"/>
      <use x="434.277344" xlink:href="#DejaVuSans-66"/>
      <use x="469.404297" xlink:href="#DejaVuSans-2d"/>
      <use x="505.488281" xlink:href="#DejaVuSans-65"/>
      <use x="567.011719" xlink:href="#DejaVuSans-76"/>
      <use x="626.191406" xlink:href="#DejaVuSans-61"/>
      <use x="687.470703" xlink:href="#DejaVuSans-6c"/>
      <use x="715.253906" xlink:href="#DejaVuSans-73"/>
      <use x="767.353516" xlink:href="#DejaVuSans-20"/>
      <use x="799.140625" xlink:href="#DejaVuSans-2f"/>
      <use x="832.832031" xlink:href="#DejaVuSans-20"/>
      <use x="864.619141" xlink:href="#DejaVuSans-64"/>
      <use x="928.095703" xlink:href="#DejaVuSans-69"/>
      <use x="955.878906" xlink:href="#DejaVuSans-6d"/>
      <use x="1053.291016" xlink:href="#DejaVuSans-65"/>
      <use x="1114.814453" xlink:href="#DejaVuSans-6e"/>
      <use x="1178.193359" xlink:href="#DejaVuSans-73"/>
      <use x="1230.292969" xlink:href="#DejaVuSans-69"/>
      <use x="1258.076172" xlink:href="#DejaVuSans-6f"/>
      <use x="1319.257812" xlink:href="#DejaVuSans-6e"/>
      <use x="1382.636719" xlink:href="#DejaVuSans-29"/>
     </g>
    </g>
   </g>
   <g id="matplotlib.axis_2">
    <g id="ytick_1">
     <g id="line2d_29">
      <path clip-path="url(#p73dfe42939)" d="M 56.12 294.88 
L 333.168 294.88 
" style="fill:none;stroke:#b0b0b0;stroke-linecap:square;stroke-width:0.8;"/>
     </g>
     <g id="line2d_30">
      <defs>
       <path d="M 0 0 
L -3.5 0 
" id="m9480acd4c9" style="stroke:#000000;stroke-width:0.8;"/>
      </defs>
      <g>
       <use style="stroke:#000000;stroke-width:0.8;" x="56.12" xlink:href="#m9480acd4c9" y="294.88"/>
      </g>
     </g>
     <g id="text_6">
      <!-- 0.0 -->
      <defs>
       <path d="M 10.6875 12.40625 
L 21 12.40625 
L 21 0 
L 10.6875 0 
z
" id="DejaVuSans-2e"/>
      </defs>
      <g transform="translate(23.675 300.95875)scale(0.16 -0.16)">
       <use xlink:href="#DejaVuSans-30"/>
       <use x="63.623047" xlink:href="#DejaVuSans-2e"/>
       <use x="95.410156" xlink:href="#DejaVuSans-30"/>
      </g>
     </g>
    </g>
    <g id="ytick_2">
     <g id="line2d_31">
      <path clip-path="url(#p73dfe42939)" d="M 56.12 237.843411 
L 333.168 237.843411 
" style="fill:none;stroke:#b0b0b0;stroke-linecap:square;stroke-width:0.8;"/>
     </g>
     <g id="line2d_32">
      <g>
       <use style="stroke:#000000;stroke-width:0.8;" x="56.12" xlink:href="#m9480acd4c9" y="237.843411"/>
      </g>
     </g>
     <g id="text_7">
      <!-- 0.2 -->
      <g transform="translate(23.675 243.922161)scale(0.16 -0.16)">
       <use xlink:href="#DejaVuSans-30"/>
       <use x="63.623047" xlink:href="#DejaVuSans-2e"/>
       <use x="95.410156" xlink:href="#DejaVuSans-32"/>
      </g>
     </g>
    </g>
    <g id="ytick_3">
     <g id="line2d_33">
      <path clip-path="url(#p73dfe42939)" d="M 56.12 180.806823 
L 333.168 180.806823 
" style="fill:none;stroke:#b0b0b0;stroke-linecap:square;stroke-width:0.8;"/>
     </g>
     <g id="line2d_34">
      <g>
       <use style="stroke:#000000;stroke-width:0.8;" x="56.12" xlink:href="#m9480acd4c9" y="180.806823"/>
      </g>
     </g>
     <g id="text_8">
      <!-- 0.4 -->
      <g transform="translate(23.675 186.885573)scale(0.16 -0.16)">
       <use xlink:href="#DejaVuSans-30"/>
       <use x="63.623047" xlink:href="#DejaVuSans-2e"/>
       <use x="95.410156" xlink:href="#DejaVuSans-34"/>
      </g>
     </g>
    </g>
    <g id="ytick_4">
     <g id="line2d_35">
      <path clip-path="url(#p73dfe42939)" d="M 56.12 123.770234 
L 333.168 123.770234 
" style="fill:none;stroke:#b0b0b0;stroke-linecap:square;stroke-width:0.8;"/>
     </g>
     <g id="line2d_36">
      <g>
       <use style="stroke:#000000;stroke-width:0.8;" x="56.12" xlink:href="#m9480acd4c9" y="123.770234"/>
      </g>
     </g>
     <g id="text_9">
      <!-- 0.6 -->
      <g transform="translate(23.675 129.848984)scale(0.16 -0.16)">
       <use xlink:href="#DejaVuSans-30"/>
       <use x="63.623047" xlink:href="#DejaVuSans-2e"/>
       <use x="95.410156" xlink:href="#DejaVuSans-36"/>
      </g>
     </g>
    </g>
    <g id="ytick_5">
     <g id="line2d_37">
      <path clip-path="url(#p73dfe42939)" d="M 56.12 66.733646 
L 333.168 66.733646 
" style="fill:none;stroke:#b0b0b0;stroke-linecap:square;stroke-width:0.8;"/>
     </g>
     <g id="line2d_38">
      <g>
       <use style="stroke:#000000;stroke-width:0.8;" x="56.12" xlink:href="#m9480acd4c9" y="66.733646"/>
      </g>
     </g>
     <g id="text_10">
      <!-- 0.8 -->
      <defs>
       <path d="M 31.78125 34.625 
Q 24.75 34.625 20.71875 30.859375 
Q 16.703125 27.09375 16.703125 20.515625 
Q 16.703125 13.921875 20.71875 10.15625 
Q 24.75 6.390625 31.78125 6.390625 
Q 38.8125 6.390625 42.859375 10.171875 
Q 46.921875 13.96875 46.921875 20.515625 
Q 46.921875 27.09375 42.890625 30.859375 
Q 38.875 34.625 31.78125 34.625 
z
M 21.921875 38.8125 
Q 15.578125 40.375 12.03125 44.71875 
Q 8.5 49.078125 8.5 55.328125 
Q 8.5 64.0625 14.71875 69.140625 
Q 20.953125 74.21875 31.78125 74.21875 
Q 42.671875 74.21875 48.875 69.140625 
Q 55.078125 64.0625 55.078125 55.328125 
Q 55.078125 49.078125 51.53125 44.71875 
Q 48 40.375 41.703125 38.8125 
Q 48.828125 37.15625 52.796875 32.3125 
Q 56.78125 27.484375 56.78125 20.515625 
Q 56.78125 9.90625 50.3125 4.234375 
Q 43.84375 -1.421875 31.78125 -1.421875 
Q 19.734375 -1.421875 13.25 4.234375 
Q 6.78125 9.90625 6.78125 20.515625 
Q 6.78125 27.484375 10.78125 32.3125 
Q 14.796875 37.15625 21.921875 38.8125 
z
M 18.3125 54.390625 
Q 18.3125 48.734375 21.84375 45.5625 
Q 25.390625 42.390625 31.78125 42.390625 
Q 38.140625 42.390625 41.71875 45.5625 
Q 45.3125 48.734375 45.3125 54.390625 
Q 45.3125 60.0625 41.71875 63.234375 
Q 38.140625 66.40625 31.78125 66.40625 
Q 25.390625 66.40625 21.84375 63.234375 
Q 18.3125 60.0625 18.3125 54.390625 
z
" id="DejaVuSans-38"/>
      </defs>
      <g transform="translate(23.675 72.812396)scale(0.16 -0.16)">
       <use xlink:href="#DejaVuSans-30"/>
       <use x="63.623047" xlink:href="#DejaVuSans-2e"/>
       <use x="95.410156" xlink:href="#DejaVuSans-38"/>
      </g>
     </g>
    </g>
    <g id="ytick_6">
     <g id="line2d_39">
      <path clip-path="url(#p73dfe42939)" d="M 56.12 9.697057 
L 333.168 9.697057 
" style="fill:none;stroke:#b0b0b0;stroke-linecap:square;stroke-width:0.8;"/>
     </g>
     <g id="line2d_40">
      <g>
       <use style="stroke:#000000;stroke-width:0.8;" x="56.12" xlink:href="#m9480acd4c9" y="9.697057"/>
      </g>
     </g>
     <g id="text_11">
      <!-- 1.0 -->
      <g transform="translate(23.675 15.775807)scale(0.16 -0.16)">
       <use xlink:href="#DejaVuSans-31"/>
       <use x="63.623047" xlink:href="#DejaVuSans-2e"/>
       <use x="95.410156" xlink:href="#DejaVuSans-30"/>
      </g>
     </g>
    </g>
    <g id="text_12">
     <!-- Fraction of function,target pairs -->
     <defs>
      <path d="M 9.8125 72.90625 
L 51.703125 72.90625 
L 51.703125 64.59375 
L 19.671875 64.59375 
L 19.671875 43.109375 
L 48.578125 43.109375 
L 48.578125 34.8125 
L 19.671875 34.8125 
L 19.671875 0 
L 9.8125 0 
z
" id="DejaVuSans-46"/>
      <path d="M 41.109375 46.296875 
Q 39.59375 47.171875 37.8125 47.578125 
Q 36.03125 48 33.890625 48 
Q 26.265625 48 22.1875 43.046875 
Q 18.109375 38.09375 18.109375 28.8125 
L 18.109375 0 
L 9.078125 0 
L 9.078125 54.6875 
L 18.109375 54.6875 
L 18.109375 46.1875 
Q 20.953125 51.171875 25.484375 53.578125 
Q 30.03125 56 36.53125 56 
Q 37.453125 56 38.578125 55.875 
Q 39.703125 55.765625 41.0625 55.515625 
z
" id="DejaVuSans-72"/>
      <path d="M 48.78125 52.59375 
L 48.78125 44.1875 
Q 44.96875 46.296875 41.140625 47.34375 
Q 37.3125 48.390625 33.40625 48.390625 
Q 24.65625 48.390625 19.8125 42.84375 
Q 14.984375 37.3125 14.984375 27.296875 
Q 14.984375 17.28125 19.8125 11.734375 
Q 24.65625 6.203125 33.40625 6.203125 
Q 37.3125 6.203125 41.140625 7.25 
Q 44.96875 8.296875 48.78125 10.40625 
L 48.78125 2.09375 
Q 45.015625 0.34375 40.984375 -0.53125 
Q 36.96875 -1.421875 32.421875 -1.421875 
Q 20.0625 -1.421875 12.78125 6.34375 
Q 5.515625 14.109375 5.515625 27.296875 
Q 5.515625 40.671875 12.859375 48.328125 
Q 20.21875 56 33.015625 56 
Q 37.15625 56 41.109375 55.140625 
Q 45.0625 54.296875 48.78125 52.59375 
z
" id="DejaVuSans-63"/>
      <path d="M 18.3125 70.21875 
L 18.3125 54.6875 
L 36.8125 54.6875 
L 36.8125 47.703125 
L 18.3125 47.703125 
L 18.3125 18.015625 
Q 18.3125 11.328125 20.140625 9.421875 
Q 21.96875 7.515625 27.59375 7.515625 
L 36.8125 7.515625 
L 36.8125 0 
L 27.59375 0 
Q 17.1875 0 13.234375 3.875 
Q 9.28125 7.765625 9.28125 18.015625 
L 9.28125 47.703125 
L 2.6875 47.703125 
L 2.6875 54.6875 
L 9.28125 54.6875 
L 9.28125 70.21875 
z
" id="DejaVuSans-74"/>
      <path d="M 8.5 21.578125 
L 8.5 54.6875 
L 17.484375 54.6875 
L 17.484375 21.921875 
Q 17.484375 14.15625 20.5 10.265625 
Q 23.53125 6.390625 29.59375 6.390625 
Q 36.859375 6.390625 41.078125 11.03125 
Q 45.3125 15.671875 45.3125 23.6875 
L 45.3125 54.6875 
L 54.296875 54.6875 
L 54.296875 0 
L 45.3125 0 
L 45.3125 8.40625 
Q 42.046875 3.421875 37.71875 1 
Q 33.40625 -1.421875 27.6875 -1.421875 
Q 18.265625 -1.421875 13.375 4.4375 
Q 8.5 10.296875 8.5 21.578125 
z
M 31.109375 56 
z
" id="DejaVuSans-75"/>
      <path d="M 11.71875 12.40625 
L 22.015625 12.40625 
L 22.015625 4 
L 14.015625 -11.625 
L 7.71875 -11.625 
L 11.71875 4 
z
" id="DejaVuSans-2c"/>
      <path d="M 18.109375 8.203125 
L 18.109375 -20.796875 
L 9.078125 -20.796875 
L 9.078125 54.6875 
L 18.109375 54.6875 
L 18.109375 46.390625 
Q 20.953125 51.265625 25.265625 53.625 
Q 29.59375 56 35.59375 56 
Q 45.5625 56 51.78125 48.09375 
Q 58.015625 40.1875 58.015625 27.296875 
Q 58.015625 14.40625 51.78125 6.484375 
Q 45.5625 -1.421875 35.59375 -1.421875 
Q 29.59375 -1.421875 25.265625 0.953125 
Q 20.953125 3.328125 18.109375 8.203125 
z
M 48.6875 27.296875 
Q 48.6875 37.203125 44.609375 42.84375 
Q 40.53125 48.484375 33.40625 48.484375 
Q 26.265625 48.484375 22.1875 42.84375 
Q 18.109375 37.203125 18.109375 27.296875 
Q 18.109375 17.390625 22.1875 11.75 
Q 26.265625 6.109375 33.40625 6.109375 
Q 40.53125 6.109375 44.609375 11.75 
Q 48.6875 17.390625 48.6875 27.296875 
z
" id="DejaVuSans-70"/>
     </defs>
     <g transform="translate(16.139531 286.001989)rotate(-90)scale(0.17 -0.17)">
      <use xlink:href="#DejaVuSans-46"/>
      <use x="57.410156" xlink:href="#DejaVuSans-72"/>
      <use x="98.523438" xlink:href="#DejaVuSans-61"/>
      <use x="159.802734" xlink:href="#DejaVuSans-63"/>
      <use x="214.783203" xlink:href="#DejaVuSans-74"/>
      <use x="253.992188" xlink:href="#DejaVuSans-69"/>
      <use x="281.775391" xlink:href="#DejaVuSans-6f"/>
      <use x="342.957031" xlink:href="#DejaVuSans-6e"/>
      <use x="406.335938" xlink:href="#DejaVuSans-20"/>
      <use x="438.123047" xlink:href="#DejaVuSans-6f"/>
      <use x="499.304688" xlink:href="#DejaVuSans-66"/>
      <use x="534.509766" xlink:href="#DejaVuSans-20"/>
      <use x="566.296875" xlink:href="#DejaVuSans-66"/>
      <use x="601.501953" xlink:href="#DejaVuSans-75"/>
      <use x="664.880859" xlink:href="#DejaVuSans-6e"/>
      <use x="728.259766" xlink:href="#DejaVuSans-63"/>
      <use x="783.240234" xlink:href="#DejaVuSans-74"/>
      <use x="822.449219" xlink:href="#DejaVuSans-69"/>
      <use x="850.232422" xlink:href="#DejaVuSans-6f"/>
      <use x="911.414062" xlink:href="#DejaVuSans-6e"/>
      <use x="974.792969" xlink:href="#DejaVuSans-2c"/>
      <use x="1006.580078" xlink:href="#DejaVuSans-74"/>
      <use x="1045.789062" xlink:href="#DejaVuSans-61"/>
      <use x="1107.068359" xlink:href="#DejaVuSans-72"/>
      <use x="1148.166016" xlink:href="#DejaVuSans-67"/>
      <use x="1211.642578" xlink:href="#DejaVuSans-65"/>
      <use x="1273.166016" xlink:href="#DejaVuSans-74"/>
      <use x="1312.375" xlink:href="#DejaVuSans-20"/>
      <use x="1344.162109" xlink:href="#DejaVuSans-70"/>
      <use x="1407.638672" xlink:href="#DejaVuSans-61"/>
      <use x="1468.917969" xlink:href="#DejaVuSans-69"/>
      <use x="1496.701172" xlink:href="#DejaVuSans-72"/>
      <use x="1537.814453" xlink:href="#DejaVuSans-73"/>
     </g>
    </g>
   </g>
   <g id="line2d_41">
    <defs>
     <path d="M 0 1.5 
C 0.397805 1.5 0.77937 1.341951 1.06066 1.06066 
C 1.341951 0.77937 1.5 0.397805 1.5 0 
C 1.5 -0.397805 1.341951 -0.77937 1.06066 -1.06066 
C 0.77937 -1.341951 0.397805 -1.5 0 -1.5 
C -0.397805 -1.5 -0.77937 -1.341951 -1.06066 -1.06066 
C -1.341951 -0.77937 -1.5 -0.397805 -1.5 0 
C -1.5 0.397805 -1.341951 0.77937 -1.06066 1.06066 
C -0.77937 1.341951 -0.397805 1.5 0 1.5 
z
" id="m9a4a35cd5f" style="stroke:#f5deb3;"/>
    </defs>
    <g>
     <use style="fill:#f5deb3;stroke:#f5deb3;" x="156.691581" xlink:href="#m9a4a35cd5f" y="9.697057"/>
     <use style="fill:#f5deb3;stroke:#f5deb3;" x="156.691581" xlink:href="#m9a4a35cd5f" y="9.697057"/>
    </g>
   </g>
   <g id="line2d_42">
    <defs>
     <path d="M 0 1.5 
C 0.397805 1.5 0.77937 1.341951 1.06066 1.06066 
C 1.341951 0.77937 1.5 0.397805 1.5 0 
C 1.5 -0.397805 1.341951 -0.77937 1.06066 -1.06066 
C 0.77937 -1.341951 0.397805 -1.5 0 -1.5 
C -0.397805 -1.5 -0.77937 -1.341951 -1.06066 -1.06066 
C -1.341951 -0.77937 -1.5 -0.397805 -1.5 0 
C -1.5 0.397805 -1.341951 0.77937 -1.06066 1.06066 
C -0.77937 1.341951 -0.397805 1.5 0 1.5 
z
" id="m30c8325f32" style="stroke:#000080;"/>
    </defs>
    <g>
     <use style="fill:#000080;stroke:#000080;" x="205.86005" xlink:href="#m30c8325f32" y="181.645596"/>
     <use style="fill:#000080;stroke:#000080;" x="205.86005" xlink:href="#m30c8325f32" y="181.645596"/>
    </g>
   </g>
   <g id="line2d_43">
    <path d="M 28.455965 294.88 
L 28.455965 289.148382 
L 80.787138 289.148382 
L 80.787138 288.169813 
L 82.350819 288.169813 
L 82.350819 287.890222 
L 87.481505 287.890222 
L 87.481505 287.750426 
L 88.027221 287.750426 
L 88.027221 287.610631 
L 88.556144 287.610631 
L 88.556144 287.051449 
L 89.069276 287.051449 
L 89.069276 286.771858 
L 89.567532 286.771858 
L 89.567532 286.632062 
L 90.522701 286.632062 
L 90.522701 286.492266 
L 92.287186 286.492266 
L 92.287186 285.653493 
L 93.105847 285.653493 
L 93.105847 285.513697 
L 96.038666 285.513697 
L 96.038666 285.373902 
L 96.372436 285.373902 
L 96.372436 285.234106 
L 96.699848 285.234106 
L 96.699848 285.094311 
L 97.021141 285.094311 
L 97.021141 284.954515 
L 97.646251 284.954515 
L 97.646251 284.674924 
L 98.543252 284.674924 
L 98.543252 284.535129 
L 99.11626 284.535129 
L 99.11626 284.395333 
L 99.67078 284.395333 
L 99.67078 284.255537 
L 101.725597 284.255537 
L 101.725597 283.975946 
L 102.667676 283.975946 
L 102.667676 283.696355 
L 103.990531 283.696355 
L 103.990531 282.997377 
L 104.409787 282.997377 
L 104.409787 282.857582 
L 104.819059 282.857582 
L 104.819059 282.717786 
L 105.801534 282.717786 
L 105.801534 282.577991 
L 107.783569 282.577991 
L 107.783569 282.2984 
L 107.952917 282.2984 
L 107.952917 282.158604 
L 108.120612 282.158604 
L 108.120612 282.018808 
L 108.286687 282.018808 
L 108.286687 281.879013 
L 108.451173 281.879013 
L 108.451173 281.739217 
L 109.250788 281.739217 
L 109.250788 281.599422 
L 109.560502 281.599422 
L 109.560502 281.459626 
L 110.014853 281.459626 
L 110.014853 281.180035 
L 110.746395 281.180035 
L 110.746395 281.04024 
L 110.88904 281.04024 
L 110.88904 280.900444 
L 111.585031 280.900444 
L 111.585031 280.620853 
L 112.122219 280.620853 
L 112.122219 280.481057 
L 112.514373 280.481057 
L 112.514373 280.341262 
L 113.518374 280.341262 
L 113.518374 279.921875 
L 113.999206 279.921875 
L 113.999206 279.782079 
L 114.23467 279.782079 
L 114.23467 279.642284 
L 115.904782 279.642284 
L 115.904782 279.502488 
L 116.529892 279.502488 
L 116.529892 279.362693 
L 117.033994 279.362693 
L 117.033994 279.222897 
L 117.715785 279.222897 
L 117.715785 279.083102 
L 117.999901 279.083102 
L 117.999901 278.943306 
L 118.371562 278.943306 
L 118.371562 278.803511 
L 118.645127 278.803511 
L 118.645127 278.663715 
L 118.825114 278.663715 
L 118.914406 278.244328 
L 119.179531 278.244328 
L 119.267005 277.964737 
L 119.526788 277.964737 
L 119.612517 277.685146 
L 119.867168 277.685146 
L 119.95122 277.405555 
L 120.200938 277.405555 
L 120.283378 277.125964 
L 120.609239 277.125964 
L 120.609239 276.986168 
L 121.320594 276.986168 
L 121.397846 276.706577 
L 121.551317 276.706577 
L 121.551317 276.566782 
L 122.077925 276.566782 
L 122.077925 276.28719 
L 122.444434 276.28719 
L 122.444434 276.147395 
L 122.803291 276.147395 
L 122.803291 276.007599 
L 122.944762 276.007599 
L 122.944762 275.867804 
L 123.293428 275.867804 
L 123.36232 275.588213 
L 123.430938 275.588213 
L 123.430938 275.308622 
L 123.635161 275.308622 
L 123.635161 275.168826 
L 123.769975 275.168826 
L 123.769975 274.609644 
L 124.036471 274.609644 
L 124.036471 274.469848 
L 124.363883 274.469848 
L 124.363883 274.330053 
L 124.493121 274.330053 
L 124.493121 274.190257 
L 124.685175 274.190257 
L 124.685175 274.050462 
L 124.875107 274.050462 
L 124.875107 273.910666 
L 125.187069 273.910666 
L 125.248787 273.631075 
L 125.371564 273.631075 
L 125.371564 273.491279 
L 125.734717 273.491279 
L 125.734717 273.351484 
L 125.854083 273.351484 
L 125.854083 273.071893 
L 125.972626 273.071893 
L 125.972626 272.932097 
L 126.323427 272.932097 
L 126.323427 272.792301 
L 126.438787 272.792301 
L 126.438787 272.652506 
L 126.553378 272.652506 
L 126.610389 272.372915 
L 126.780294 272.372915 
L 126.780294 272.093324 
L 127.225332 272.093324 
L 127.225332 271.953528 
L 127.497741 271.953528 
L 127.497741 271.813733 
L 127.7659 271.813733 
L 127.7659 271.673937 
L 127.92481 271.673937 
L 128.029939 271.394346 
L 128.444143 271.394346 
L 128.546153 271.114755 
L 128.596932 271.114755 
L 128.596932 270.974959 
L 128.748375 270.974959 
L 128.8486 270.415777 
L 128.997851 270.415777 
L 128.997851 270.275981 
L 129.145817 270.275981 
L 129.243759 269.99639 
L 129.582224 269.99639 
L 129.677716 269.577004 
L 129.725264 269.577004 
L 129.772681 269.297412 
L 129.914152 269.297412 
L 129.961052 268.73823 
L 130.100987 268.73823 
L 130.100987 268.598435 
L 130.649607 268.598435 
L 130.649607 268.318844 
L 130.784069 268.318844 
L 130.784069 268.179048 
L 131.049878 268.179048 
L 131.093782 267.899457 
L 131.224827 267.899457 
L 131.224827 267.759661 
L 131.354881 267.759661 
L 131.398014 267.48007 
L 131.483957 267.48007 
L 131.569473 267.060684 
L 131.654565 267.060684 
L 131.739239 266.781092 
L 131.865471 266.781092 
L 131.865471 266.641297 
L 132.032353 266.641297 
L 132.032353 266.22191 
L 132.442602 266.22191 
L 132.483094 265.942319 
L 132.603999 265.942319 
L 132.603999 265.662728 
L 132.882847 265.662728 
L 132.882847 265.522932 
L 133.157244 265.522932 
L 133.157244 265.383137 
L 133.389004 265.383137 
L 133.389004 265.243341 
L 133.579779 265.243341 
L 133.579779 265.103546 
L 133.730889 265.103546 
L 133.805948 264.823955 
L 134.102952 264.823955 
L 134.102952 264.684159 
L 134.322384 264.684159 
L 134.322384 264.544363 
L 134.574897 264.544363 
L 134.574897 264.404568 
L 135.03423 264.404568 
L 135.03423 264.264772 
L 135.173129 264.264772 
L 135.173129 264.124977 
L 135.616951 264.124977 
L 135.650622 263.70559 
L 136.342875 263.70559 
L 136.342875 263.565795 
L 136.503668 263.565795 
L 136.503668 263.425999 
L 136.757848 263.425999 
L 136.789358 263.006612 
L 136.946047 263.006612 
L 136.946047 262.866817 
L 137.346876 262.866817 
L 137.407721 262.587226 
L 137.468351 262.587226 
L 137.558897 261.888248 
L 137.798047 261.888248 
L 137.827708 261.608657 
L 137.916386 261.608657 
L 138.004608 261.329066 
L 138.09238 261.329066 
L 138.150647 261.049474 
L 138.295455 261.049474 
L 138.324271 260.490292 
L 138.553074 260.490292 
L 138.638097 260.210701 
L 138.750809 260.210701 
L 138.778873 259.791314 
L 138.946296 259.791314 
L 139.057012 259.232132 
L 139.08458 259.232132 
L 139.194412 258.952541 
L 139.46596 258.952541 
L 139.46596 258.812745 
L 139.680151 258.812745 
L 139.706738 258.533154 
L 140.074705 258.533154 
L 140.178407 258.253563 
L 140.204235 258.253563 
L 140.230025 257.973972 
L 140.332797 257.973972 
L 140.332797 257.834177 
L 140.612293 257.834177 
L 140.612293 257.694381 
L 140.762851 257.694381 
L 140.812746 257.41479 
L 141.084606 257.41479 
L 141.084606 257.274994 
L 141.400449 257.274994 
L 141.400449 257.135199 
L 141.544287 257.135199 
L 141.544287 256.995403 
L 141.710592 256.995403 
L 141.757814 256.436221 
L 141.875303 256.436221 
L 141.96872 256.016834 
L 142.061631 256.016834 
L 142.154044 255.597448 
L 142.245962 255.597448 
L 142.337391 255.038265 
L 142.405645 255.038265 
L 142.405645 254.89847 
L 142.518803 254.89847 
L 142.563858 254.479083 
L 142.720629 254.479083 
L 142.787381 253.919901 
L 142.875982 253.919901 
L 142.920112 253.500514 
L 143.008034 253.500514 
L 143.073681 253.081127 
L 143.139078 253.081127 
L 143.247524 252.661741 
L 143.269132 252.661741 
L 143.333791 252.242354 
L 143.462385 252.242354 
L 143.526323 251.263785 
L 143.611205 251.263785 
L 143.716722 250.564807 
L 143.737748 250.564807 
L 143.737748 250.425012 
L 143.967351 250.425012 
L 144.07071 249.446443 
L 144.132429 249.446443 
L 144.234803 248.60767 
L 144.255205 248.60767 
L 144.356853 248.188283 
L 144.397345 248.188283 
L 144.397345 248.048487 
L 144.558363 248.048487 
L 144.598384 247.34951 
L 144.717888 247.34951 
L 144.737725 246.930123 
L 144.875945 246.930123 
L 144.973998 245.951554 
L 145.013063 245.951554 
L 145.071495 245.671963 
L 145.149096 245.671963 
L 145.226349 245.392372 
L 145.36071 245.392372 
L 145.43702 244.833189 
L 145.550852 244.833189 
L 145.64514 244.413803 
L 145.832178 244.413803 
L 145.906427 243.994416 
L 145.961904 243.994416 
L 146.05397 243.435234 
L 146.163802 243.435234 
L 146.163802 243.295438 
L 146.291058 243.295438 
L 146.39939 242.876052 
L 146.43535 242.876052 
L 146.507044 242.59646 
L 146.57844 242.59646 
L 146.57844 242.177074 
L 146.755644 242.177074 
L 146.826017 241.757687 
L 146.913581 241.757687 
L 146.93104 241.478096 
L 147.156411 241.478096 
L 147.190823 241.198505 
L 147.361855 241.198505 
L 147.361855 241.058709 
L 147.548046 241.058709 
L 147.548046 240.918914 
L 147.782136 240.918914 
L 147.864973 240.639323 
L 147.914484 240.639323 
L 147.914484 240.499527 
L 148.062168 240.499527 
L 148.062168 240.359732 
L 148.513678 240.359732 
L 148.513678 240.219936 
L 148.750766 240.219936 
L 148.750766 240.08014 
L 149.261127 240.08014 
L 149.337149 239.800549 
L 149.382602 239.800549 
L 149.488193 239.381163 
L 149.637921 239.381163 
L 149.637921 239.101571 
L 149.786355 239.101571 
L 149.801129 238.82198 
L 149.904187 238.82198 
L 150.006631 238.542389 
L 150.05035 238.542389 
L 150.122968 238.262798 
L 150.209706 238.262798 
L 150.310351 237.56382 
L 150.353304 237.56382 
L 150.453114 237.284229 
L 150.481525 237.284229 
L 150.552348 236.864843 
L 150.594702 236.864843 
L 150.693124 236.30566 
L 150.735133 236.30566 
L 150.80492 235.327091 
L 150.860547 235.327091 
L 150.971263 234.767909 
L 151.012598 234.767909 
L 151.122343 233.929136 
L 151.231391 233.929136 
L 151.339751 233.509749 
L 151.434009 233.509749 
L 151.541104 233.230158 
L 151.581093 233.230158 
L 151.674041 232.810771 
L 151.753312 232.810771 
L 151.858442 232.251589 
L 151.8977 232.251589 
L 151.975949 231.692407 
L 152.027918 231.692407 
L 152.027918 231.552611 
L 152.144276 231.552611 
L 152.247048 231.133225 
L 152.34921 231.133225 
L 152.387364 230.853633 
L 152.476064 230.853633 
L 152.476064 230.574042 
L 152.652101 230.574042 
L 152.714537 230.154656 
L 152.851103 230.154656 
L 152.962038 229.735269 
L 152.97432 229.735269 
L 153.035598 229.455678 
L 153.169647 229.455678 
L 153.206025 229.036291 
L 153.350772 229.036291 
L 153.458539 228.477109 
L 153.506219 228.477109 
L 153.577492 228.057722 
L 153.624843 228.057722 
L 153.68385 227.778131 
L 153.777841 227.778131 
L 153.777841 227.638336 
L 154.114315 227.638336 
L 154.194556 227.358744 
L 154.308539 227.358744 
L 154.319896 227.079153 
L 154.433054 227.079153 
L 154.534263 226.659767 
L 154.545472 226.659767 
L 154.545472 226.519971 
L 154.668288 226.519971 
L 154.668288 226.380175 
L 154.856386 226.380175 
L 154.95514 226.100584 
L 155.344578 226.100584 
L 155.408635 225.820993 
L 155.620451 225.820993 
L 155.714923 225.261811 
L 155.767184 225.261811 
L 155.767184 225.122015 
L 155.902323 225.122015 
L 155.974653 224.842424 
L 156.097943 224.842424 
L 156.159258 224.562833 
L 156.271104 224.562833 
L 156.271104 224.423038 
L 156.402354 224.423038 
L 156.402354 224.283242 
L 156.622212 224.283242 
L 156.731095 223.863855 
L 156.800027 223.863855 
L 156.907793 223.584264 
L 156.976021 223.584264 
L 157.073023 222.885286 
L 157.217507 222.885286 
L 157.217507 222.745491 
L 157.427243 222.745491 
L 157.465103 222.186309 
L 157.559391 222.186309 
L 157.634451 221.766922 
L 157.69986 221.766922 
L 157.755728 221.347535 
L 157.811415 221.347535 
L 157.811415 221.20774 
L 157.949847 221.20774 
L 158.01407 220.648558 
L 158.087174 220.648558 
L 158.087174 220.508762 
L 158.286622 220.508762 
L 158.394445 220.229171 
L 158.501595 220.229171 
L 158.501595 220.089375 
L 158.625765 220.089375 
L 158.625765 219.94958 
L 158.749045 219.94958 
L 158.836564 219.390397 
L 159.156562 219.390397 
L 159.259079 218.971011 
L 159.470713 218.971011 
L 159.470713 218.69142 
L 159.886319 218.69142 
L 159.94371 218.411829 
L 160.308147 218.411829 
L 160.412006 217.712851 
L 160.427929 217.712851 
L 160.451785 217.293464 
L 160.554783 217.293464 
L 160.554783 217.153669 
L 160.680707 217.153669 
L 160.774549 216.594486 
L 160.821278 216.594486 
L 160.90662 216.1751 
L 161.037685 216.1751 
L 161.121962 215.755713 
L 161.205828 215.755713 
L 161.281716 215.196531 
L 161.417476 215.196531 
L 161.514862 214.91694 
L 161.537258 214.91694 
L 161.60427 214.497553 
L 161.663618 214.497553 
L 161.774346 214.078166 
L 161.818438 214.078166 
L 161.913585 213.379188 
L 162.008208 213.379188 
L 162.116746 212.680211 
L 162.152773 212.680211 
L 162.246092 211.701642 
L 162.303269 211.701642 
L 162.374473 211.282255 
L 162.579312 211.282255 
L 162.579312 211.142459 
L 162.89241 211.142459 
L 162.981809 210.723073 
L 163.077568 210.723073 
L 163.10483 210.163891 
L 163.193134 210.163891 
L 163.226976 209.884299 
L 163.792333 209.884299 
L 163.838074 209.464913 
L 163.993981 209.464913 
L 163.993981 209.325117 
L 164.122832 209.325117 
L 164.167702 208.90573 
L 164.288907 208.90573 
L 164.346022 208.346548 
L 164.434493 208.346548 
L 164.503688 207.787366 
L 164.572606 207.787366 
L 164.603841 207.507775 
L 164.709617 207.507775 
L 164.802412 206.808797 
L 164.863998 206.808797 
L 164.870145 206.529206 
L 164.992615 206.529206 
L 165.053524 206.249615 
L 165.132385 206.249615 
L 165.16262 205.970024 
L 165.402605 205.970024 
L 165.402605 205.830228 
L 165.527269 205.830228 
L 165.603991 205.410841 
L 165.994063 205.410841 
L 166.103088 204.991455 
L 166.426075 204.991455 
L 166.482119 204.711864 
L 166.53798 204.711864 
L 166.53798 204.572068 
L 166.787135 204.572068 
L 166.787135 204.432273 
L 166.902183 204.432273 
L 166.929462 204.152681 
L 167.038148 204.152681 
L 167.113822 203.87309 
L 167.194532 203.87309 
L 167.226711 203.313908 
L 167.360143 203.313908 
L 167.360143 203.174112 
L 167.571503 203.174112 
L 167.571503 203.034317 
L 167.697082 203.034317 
L 167.785483 202.475135 
L 167.852778 202.475135 
L 167.924955 202.195544 
L 168.104085 202.195544 
L 168.104085 202.055748 
L 168.291443 202.055748 
L 168.336709 201.636361 
L 168.47678 201.636361 
L 168.531498 201.35677 
L 168.797611 201.35677 
L 168.846443 200.937384 
L 168.929139 200.937384 
L 168.929139 200.797588 
L 169.246477 200.797588 
L 169.355701 200.378201 
L 169.412414 200.378201 
L 169.511213 199.819019 
L 169.567416 199.819019 
L 169.674627 199.539428 
L 169.771934 199.539428 
L 169.808859 199.120041 
L 169.951199 199.120041 
L 170.04241 198.421063 
L 170.101439 198.421063 
L 170.101439 198.281268 
L 170.254869 198.281268 
L 170.344487 198.001677 
L 170.371281 198.001677 
L 170.429193 197.58229 
L 170.526755 197.58229 
L 170.526755 197.442495 
L 170.65452 197.442495 
L 170.65452 197.302699 
L 171.109329 197.302699 
L 171.109329 197.162903 
L 171.228606 197.162903 
L 171.228606 197.023108 
L 171.359705 197.023108 
L 171.443757 196.743517 
L 171.853868 196.743517 
L 171.947762 196.184334 
L 171.980301 196.184334 
L 171.996547 195.904743 
L 172.125968 195.904743 
L 172.146102 195.625152 
L 172.24242 195.625152 
L 172.24242 195.485357 
L 172.354112 195.485357 
L 172.354112 195.345561 
L 172.504543 195.345561 
L 172.543913 194.926174 
L 172.681 194.926174 
L 172.681 194.786379 
L 172.886529 194.786379 
L 172.886529 194.646583 
L 173.15427 194.646583 
L 173.15427 194.506788 
L 173.369248 194.506788 
L 173.432848 194.087401 
L 173.481324 194.087401 
L 173.481324 193.947606 
L 173.681237 193.947606 
L 173.743695 193.528219 
L 173.864292 193.528219 
L 173.929717 193.108832 
L 174.937165 193.108832 
L 174.971344 192.829241 
L 175.147988 192.829241 
L 175.147988 192.689445 
L 175.299401 192.689445 
L 175.392945 192.270059 
L 175.479353 192.270059 
L 175.532313 191.990468 
L 175.807704 191.990468 
L 175.807704 191.850672 
L 175.959888 191.850672 
L 175.959888 191.710877 
L 176.34244 191.710877 
L 176.427354 191.29149 
L 176.821229 191.29149 
L 176.87633 190.592512 
L 176.949525 190.592512 
L 176.949525 190.452717 
L 177.143202 190.452717 
L 177.143202 190.312921 
L 177.471069 190.312921 
L 177.530015 190.03333 
L 177.827535 190.03333 
L 177.827535 189.893534 
L 178.077294 189.893534 
L 178.159748 189.474148 
L 178.253095 189.474148 
L 178.270013 189.194556 
L 178.387975 189.194556 
L 178.429909 188.914965 
L 178.955108 188.914965 
L 178.955108 188.77517 
L 179.205139 188.77517 
L 179.205139 188.635374 
L 179.477875 188.635374 
L 179.477875 188.495579 
L 180.235885 188.495579 
L 180.235885 188.355783 
L 180.84339 188.355783 
L 180.916028 187.936396 
L 181.134506 187.936396 
L 181.151197 187.656805 
L 181.286513 187.656805 
L 181.286513 187.51701 
L 181.521366 187.51701 
L 181.521366 187.377214 
L 181.725416 187.377214 
L 181.725416 187.237419 
L 181.886015 187.237419 
L 181.886015 187.097623 
L 182.294455 187.097623 
L 182.294455 186.957828 
L 182.410024 186.957828 
L 182.518219 186.678236 
L 182.564381 186.678236 
L 182.658518 186.398645 
L 182.79768 186.398645 
L 182.79768 186.25885 
L 183.216988 186.25885 
L 183.216988 186.119054 
L 183.900646 186.119054 
L 183.900646 185.979259 
L 184.41091 185.979259 
L 184.41091 185.839463 
L 184.565967 185.839463 
L 184.565967 185.699667 
L 185.623071 185.699667 
L 185.667112 185.420076 
L 185.79856 185.420076 
L 185.79856 185.280281 
L 186.002856 185.280281 
L 186.024409 185.00069 
L 186.570294 185.00069 
L 186.570294 184.860894 
L 186.715741 184.860894 
L 186.789722 184.581303 
L 186.882181 184.581303 
L 186.92141 184.301712 
L 187.12128 184.301712 
L 187.200247 183.882325 
L 187.332166 183.882325 
L 187.3571 183.602734 
L 187.807927 183.602734 
L 187.814398 183.323143 
L 190.384599 183.323143 
L 190.384599 183.183347 
L 190.667779 183.183347 
L 190.667779 183.043552 
L 191.367151 183.043552 
L 191.367151 182.903756 
L 191.481213 182.903756 
L 191.481213 182.763961 
L 192.717559 182.763961 
L 192.717559 182.624165 
L 193.429785 182.624165 
L 193.429785 182.48437 
L 193.653491 182.48437 
L 193.653491 182.344574 
L 194.078879 182.344574 
L 194.078879 182.204778 
L 196.861849 182.204778 
L 196.861849 182.064983 
L 199.094371 182.064983 
L 199.094371 181.925187 
L 202.687201 181.925187 
L 202.687201 181.785392 
L 205.86005 181.785392 
L 205.86005 181.645596 
L 333.168 181.645596 
L 333.168 181.645596 
" style="fill:none;stroke:#000080;stroke-linecap:square;stroke-width:1.5;"/>
   </g>
   <g id="line2d_44">
    <defs>
     <path d="M 0 6 
C 1.591219 6 3.117479 5.367802 4.242641 4.242641 
C 5.367802 3.117479 6 1.591219 6 0 
C 6 -1.591219 5.367802 -3.117479 4.242641 -4.242641 
C 3.117479 -5.367802 1.591219 -6 0 -6 
C -1.591219 -6 -3.117479 -5.367802 -4.242641 -4.242641 
C -5.367802 -3.117479 -6 -1.591219 -6 0 
C -6 1.591219 -5.367802 3.117479 -4.242641 4.242641 
C -3.117479 5.367802 -1.591219 6 0 6 
z
" id="mdcc31ac59f" style="stroke:#000080;stroke-width:1.5;"/>
    </defs>
    <g>
     <use style="fill:none;stroke:#000080;stroke-width:1.5;" x="90.522701" xlink:href="#mdcc31ac59f" y="286.632062"/>
     <use style="fill:none;stroke:#000080;stroke-width:1.5;" x="157.073023" xlink:href="#mdcc31ac59f" y="223.025082"/>
     <use style="fill:none;stroke:#000080;stroke-width:1.5;" x="199.094371" xlink:href="#mdcc31ac59f" y="182.064983"/>
     <use style="fill:none;stroke:#000080;stroke-width:1.5;" x="205.86005" xlink:href="#mdcc31ac59f" y="181.645596"/>
     <use style="fill:none;stroke:#000080;stroke-width:1.5;" x="205.86005" xlink:href="#mdcc31ac59f" y="181.645596"/>
     <use style="fill:none;stroke:#000080;stroke-width:1.5;" x="333.168" xlink:href="#mdcc31ac59f" y="181.645596"/>
    </g>
   </g>
   <g id="line2d_45">
    <path style="fill:none;stroke:#000080;stroke-linecap:square;stroke-width:1.5;"/>
    <g/>
   </g>
   <g id="line2d_46">
    <path clip-path="url(#p73dfe42939)" d="M 136.082436 263.70559 
" style="fill:none;stroke:#000080;stroke-linecap:square;stroke-width:1.5;"/>
    <defs>
     <path d="M -12 12 
L 12 -12 
M -12 -12 
L 12 12 
" id="md8a67e11a5" style="stroke:#000080;"/>
    </defs>
    <g clip-path="url(#p73dfe42939)">
     <use style="fill:#000080;stroke:#000080;" x="136.082436" xlink:href="#md8a67e11a5" y="263.70559"/>
    </g>
   </g>
   <g id="line2d_47">
    <defs>
     <path d="M 0 1.5 
C 0.397805 1.5 0.77937 1.341951 1.06066 1.06066 
C 1.341951 0.77937 1.5 0.397805 1.5 0 
C 1.5 -0.397805 1.341951 -0.77937 1.06066 -1.06066 
C 0.77937 -1.341951 0.397805 -1.5 0 -1.5 
C -0.397805 -1.5 -0.77937 -1.341951 -1.06066 -1.06066 
C -1.341951 -0.77937 -1.5 -0.397805 -1.5 0 
C -1.5 0.397805 -1.341951 0.77937 -1.06066 1.06066 
C -0.77937 1.341951 -0.397805 1.5 0 1.5 
z
" id="m5536b21d7e" style="stroke:#ff00ff;"/>
    </defs>
    <g>
     <use style="fill:#ff00ff;stroke:#ff00ff;" x="214.05534" xlink:href="#m5536b21d7e" y="181.645596"/>
     <use style="fill:#ff00ff;stroke:#ff00ff;" x="214.05534" xlink:href="#m5536b21d7e" y="181.645596"/>
    </g>
   </g>
   <g id="line2d_48">
    <path d="M 28.455965 294.88 
L 28.455965 288.868791 
L 80.787138 288.868791 
L 80.787138 287.890222 
L 87.481505 287.890222 
L 87.481505 287.750426 
L 88.027221 287.750426 
L 88.027221 287.610631 
L 88.556144 287.610631 
L 88.556144 286.771858 
L 89.069276 286.771858 
L 89.069276 286.492266 
L 92.287186 286.492266 
L 92.287186 285.933084 
L 93.105847 285.933084 
L 93.105847 285.653493 
L 96.038666 285.653493 
L 96.038666 285.513697 
L 96.699848 285.513697 
L 96.699848 285.234106 
L 97.336537 285.234106 
L 97.336537 285.094311 
L 97.646251 285.094311 
L 97.646251 284.954515 
L 98.543252 284.954515 
L 98.543252 284.81472 
L 99.11626 284.81472 
L 99.11626 284.255537 
L 99.67078 284.255537 
L 99.67078 284.115742 
L 100.207968 284.115742 
L 100.207968 283.836151 
L 102.667676 283.836151 
L 102.667676 283.696355 
L 103.990531 283.696355 
L 103.990531 283.416764 
L 104.615641 283.416764 
L 104.615641 283.276969 
L 105.801534 283.276969 
L 105.801534 283.137173 
L 108.286687 283.137173 
L 108.286687 282.997377 
L 108.451173 282.997377 
L 108.451173 282.857582 
L 108.775496 282.857582 
L 108.775496 282.717786 
L 109.250788 282.717786 
L 109.250788 282.577991 
L 110.746395 282.577991 
L 110.746395 282.438195 
L 110.88904 282.438195 
L 110.88904 282.158604 
L 111.170827 282.158604 
L 111.170827 282.018808 
L 111.448069 282.018808 
L 111.448069 281.879013 
L 111.585031 281.879013 
L 111.585031 281.599422 
L 111.855724 281.599422 
L 111.855724 281.459626 
L 112.514373 281.459626 
L 112.514373 281.319831 
L 113.272818 281.319831 
L 113.272818 281.180035 
L 113.518374 281.180035 
L 113.518374 281.04024 
L 113.760471 281.04024 
L 113.760471 280.900444 
L 113.999206 280.900444 
L 113.999206 280.760648 
L 116.529892 280.760648 
L 116.529892 280.620853 
L 116.73331 280.620853 
L 116.73331 280.481057 
L 116.934349 280.481057 
L 116.934349 280.341262 
L 117.133064 280.341262 
L 117.133064 280.061671 
L 117.426894 280.061671 
L 117.426894 279.921875 
L 117.715785 279.921875 
L 117.715785 279.782079 
L 118.186736 279.782079 
L 118.186736 279.642284 
L 118.371562 279.642284 
L 118.371562 279.502488 
L 118.825114 279.502488 
L 118.825114 279.362693 
L 119.003236 279.362693 
L 119.003236 279.222897 
L 119.179531 279.222897 
L 119.267005 278.943306 
L 119.354037 278.943306 
L 119.354037 278.803511 
L 119.867168 278.803511 
L 119.95122 278.244328 
L 120.200938 278.244328 
L 120.283378 277.964737 
L 120.929036 277.964737 
L 120.929036 277.824942 
L 121.320594 277.824942 
L 121.397846 277.405555 
L 121.627542 277.405555 
L 121.627542 277.265759 
L 122.077925 277.265759 
L 122.077925 276.986168 
L 122.444434 276.986168 
L 122.444434 276.846373 
L 122.803291 276.846373 
L 122.803291 276.706577 
L 122.944762 276.706577 
L 122.944762 276.566782 
L 123.224258 276.566782 
L 123.293428 276.147395 
L 123.36232 276.147395 
L 123.430938 275.448417 
L 123.635161 275.448417 
L 123.635161 275.308622 
L 123.769975 275.308622 
L 123.769975 275.02903 
L 124.493121 275.02903 
L 124.493121 274.889235 
L 124.621395 274.889235 
L 124.685175 274.609644 
L 124.875107 274.609644 
L 124.875107 274.469848 
L 125.187069 274.469848 
L 125.248787 274.190257 
L 125.5541 274.190257 
L 125.5541 274.050462 
L 125.734717 274.050462 
L 125.734717 273.910666 
L 125.854083 273.910666 
L 125.854083 273.77087 
L 125.972626 273.77087 
L 125.972626 273.631075 
L 126.323427 273.631075 
L 126.323427 273.491279 
L 126.610389 273.491279 
L 126.610389 273.211688 
L 126.780294 273.211688 
L 126.780294 272.932097 
L 127.225332 272.932097 
L 127.225332 272.792301 
L 127.389295 272.792301 
L 127.497741 272.51271 
L 127.7659 272.51271 
L 127.819033 272.093324 
L 127.92481 272.093324 
L 127.92481 271.953528 
L 128.289984 271.953528 
L 128.39291 271.673937 
L 128.444143 271.673937 
L 128.546153 271.394346 
L 128.596932 271.394346 
L 128.596932 271.25455 
L 128.748375 271.25455 
L 128.8486 270.555573 
L 128.997851 270.555573 
L 128.997851 270.415777 
L 129.145817 270.415777 
L 129.145817 270.136186 
L 129.582224 270.136186 
L 129.677716 269.716799 
L 129.725264 269.716799 
L 129.772681 269.437208 
L 129.914152 269.437208 
L 129.961052 269.017821 
L 130.054468 269.017821 
L 130.100987 268.73823 
L 130.649607 268.73823 
L 130.649607 268.458639 
L 131.005861 268.458639 
L 131.005861 268.318844 
L 131.137575 268.318844 
L 131.224827 268.039252 
L 131.311639 268.039252 
L 131.398014 267.759661 
L 131.441039 267.759661 
L 131.483957 267.48007 
L 131.569473 267.48007 
L 131.654565 267.200479 
L 131.739239 267.200479 
L 131.739239 267.060684 
L 131.865471 267.060684 
L 131.865471 266.920888 
L 132.032353 266.920888 
L 132.032353 266.781092 
L 132.442602 266.781092 
L 132.52349 266.501501 
L 132.603999 266.501501 
L 132.603999 266.361706 
L 133.118312 266.361706 
L 133.118312 266.22191 
L 133.273515 266.22191 
L 133.273515 266.082115 
L 133.389004 266.082115 
L 133.389004 265.942319 
L 133.730889 265.942319 
L 133.805948 265.662728 
L 134.029181 265.662728 
L 134.102952 265.383137 
L 134.574897 265.383137 
L 134.574897 265.243341 
L 134.999329 265.243341 
L 135.03423 264.96375 
L 135.616951 264.96375 
L 135.717765 264.404568 
L 136.310535 264.404568 
L 136.342875 264.124977 
L 136.439531 264.124977 
L 136.503668 263.845386 
L 136.757848 263.845386 
L 136.789358 263.286203 
L 137.132207 263.286203 
L 137.132207 263.146408 
L 137.346876 263.146408 
L 137.407721 262.727021 
L 137.468351 262.727021 
L 137.558897 262.167839 
L 137.678888 262.167839 
L 137.678888 262.028043 
L 137.798047 262.028043 
L 137.886877 261.608657 
L 137.916386 261.608657 
L 138.004608 261.049474 
L 138.09238 261.049474 
L 138.150647 260.769883 
L 138.295455 260.769883 
L 138.324271 260.210701 
L 138.52464 260.210701 
L 138.581462 259.93111 
L 138.750809 259.93111 
L 138.80689 259.371928 
L 138.946296 259.371928 
L 139.057012 258.952541 
L 139.08458 258.952541 
L 139.139583 258.533154 
L 139.276327 258.533154 
L 139.276327 258.393359 
L 139.706738 258.393359 
L 139.706738 258.253563 
L 139.865404 258.253563 
L 139.970373 257.973972 
L 140.074705 257.973972 
L 140.100689 257.694381 
L 140.204235 257.694381 
L 140.204235 257.554585 
L 140.409475 257.554585 
L 140.409475 257.41479 
L 140.612293 257.41479 
L 140.612293 257.274994 
L 140.762851 257.274994 
L 140.762851 257.135199 
L 141.010888 257.135199 
L 141.084606 256.855608 
L 141.303883 256.855608 
L 141.400449 256.576016 
L 141.448529 256.576016 
L 141.544287 256.296425 
L 141.568144 256.296425 
L 141.568144 256.15663 
L 141.734219 256.15663 
L 141.757814 255.877039 
L 141.922075 255.877039 
L 141.96872 255.317856 
L 142.1079 255.317856 
L 142.154044 255.038265 
L 142.223028 255.038265 
L 142.314579 254.199492 
L 142.337391 254.199492 
L 142.405645 253.919901 
L 142.518803 253.919901 
L 142.608796 253.220923 
L 142.675983 253.220923 
L 142.742908 252.941332 
L 142.787381 252.941332 
L 142.898061 252.242354 
L 143.051826 252.242354 
L 143.117307 251.683172 
L 143.182539 251.683172 
L 143.269132 251.12399 
L 143.312265 251.12399 
L 143.398208 250.704603 
L 143.462385 250.704603 
L 143.526323 249.726034 
L 143.611205 249.726034 
L 143.716722 248.747465 
L 143.967351 248.747465 
L 144.07071 247.768896 
L 144.11188 247.768896 
L 144.193927 247.069918 
L 144.255205 247.069918 
L 144.275583 246.650532 
L 144.437741 246.650532 
L 144.498158 246.370941 
L 144.558363 246.370941 
L 144.598384 245.671963 
L 144.717888 245.671963 
L 144.797098 245.252576 
L 144.875945 245.252576 
L 144.973998 244.134212 
L 145.013063 244.134212 
L 145.071495 243.714825 
L 145.207068 243.714825 
L 145.264845 243.435234 
L 145.36071 243.435234 
L 145.43702 242.876052 
L 145.550852 242.876052 
L 145.64514 242.456665 
L 145.832178 242.456665 
L 145.906427 242.037278 
L 145.99879 242.037278 
L 146.108974 241.757687 
L 146.163802 241.757687 
L 146.254795 241.478096 
L 146.291058 241.478096 
L 146.291058 241.198505 
L 146.43535 241.198505 
L 146.471234 240.918914 
L 146.57844 240.918914 
L 146.57844 240.499527 
L 146.702675 240.499527 
L 146.790867 240.08014 
L 146.826017 240.08014 
L 146.913581 239.800549 
L 146.965905 239.800549 
L 147.070079 239.241367 
L 147.276552 239.241367 
L 147.276552 239.101571 
L 147.881493 239.101571 
L 147.881493 238.961776 
L 148.159923 238.961776 
L 148.159923 238.82198 
L 148.593071 238.82198 
L 148.672099 238.402594 
L 148.829074 238.402594 
L 148.860298 238.123003 
L 148.984628 238.123003 
L 148.984628 237.983207 
L 149.184767 237.983207 
L 149.184767 237.843411 
L 149.608079 237.843411 
L 149.608079 237.703616 
L 149.830637 237.703616 
L 149.860095 237.424025 
L 150.19528 237.424025 
L 150.209706 237.004638 
L 150.453114 237.004638 
L 150.495713 236.585251 
L 150.594702 236.585251 
L 150.594702 236.30566 
L 150.707138 236.30566 
L 150.707138 236.026069 
L 150.846657 236.026069 
L 150.915994 235.606682 
L 151.0401 235.606682 
L 151.067558 235.187296 
L 151.190579 235.187296 
L 151.244973 234.907705 
L 151.353248 234.907705 
L 151.447433 234.348522 
L 151.514393 234.348522 
L 151.567774 234.068931 
L 151.634268 234.068931 
L 151.687278 233.78934 
L 151.779655 233.78934 
L 151.884624 233.230158 
L 151.910766 233.230158 
L 151.962932 232.950567 
L 152.027918 232.950567 
L 152.131386 232.111793 
L 152.170027 232.111793 
L 152.247048 231.692407 
L 152.298205 231.692407 
L 152.387364 230.993429 
L 152.438106 230.993429 
L 152.539141 230.574042 
L 152.576877 230.574042 
L 152.677103 230.154656 
L 152.789162 230.154656 
L 152.813965 229.735269 
L 152.949747 229.735269 
L 153.047828 229.455678 
L 153.084464 229.455678 
L 153.157504 229.176087 
L 153.230235 229.176087 
L 153.3147 228.896496 
L 153.374779 228.896496 
L 153.482395 228.197518 
L 153.518118 228.197518 
L 153.518118 228.057722 
L 153.636661 228.057722 
L 153.64847 227.778131 
L 153.987461 227.778131 
L 154.045238 227.218949 
L 154.114315 227.218949 
L 154.194556 226.799562 
L 154.319896 226.799562 
L 154.319896 226.659767 
L 154.668288 226.659767 
L 154.723825 226.24038 
L 154.87838 226.24038 
L 154.933243 225.960789 
L 155.042447 225.960789 
L 155.042447 225.820993 
L 155.161776 225.820993 
L 155.194176 225.541402 
L 155.376636 225.541402 
L 155.461834 225.261811 
L 155.514869 225.261811 
L 155.514869 225.122015 
L 155.641489 225.122015 
L 155.672999 224.842424 
L 155.798464 224.842424 
L 155.902323 224.423038 
L 156.077456 224.423038 
L 156.077456 224.283242 
L 156.200014 224.283242 
L 156.240673 224.003651 
L 156.382227 224.003651 
L 156.462595 223.72406 
L 156.522625 223.72406 
L 156.572491 223.164878 
L 156.701468 223.164878 
L 156.750818 222.885286 
L 156.858892 222.885286 
L 156.956555 222.186309 
L 156.976021 222.186309 
L 157.04398 221.766922 
L 157.111671 221.766922 
L 157.130962 221.487331 
L 157.255831 221.487331 
L 157.360786 220.788353 
L 157.436716 220.788353 
L 157.531159 220.508762 
L 157.578187 220.508762 
L 157.578187 220.368966 
L 157.69986 220.368966 
L 157.755728 219.809784 
L 157.848439 219.809784 
L 157.848439 219.669989 
L 157.977401 219.669989 
L 158.00491 219.250602 
L 158.223412 219.250602 
L 158.286622 218.971011 
L 158.430236 218.971011 
L 158.430236 218.831215 
L 158.661078 218.831215 
L 158.757817 218.411829 
L 158.80161 218.411829 
L 158.80161 218.272033 
L 158.941001 218.272033 
L 158.941001 217.992442 
L 159.079271 217.992442 
L 159.130837 217.43326 
L 159.224975 217.43326 
L 159.327086 217.153669 
L 159.629829 217.153669 
L 159.704689 216.874077 
L 159.820493 216.874077 
L 159.853438 216.594486 
L 159.951893 216.594486 
L 160.041651 216.1751 
L 160.171377 216.1751 
L 160.235875 215.895508 
L 160.300132 215.895508 
L 160.35616 215.615917 
L 160.427929 215.615917 
L 160.427929 215.476122 
L 160.570574 215.476122 
L 160.641455 215.056735 
L 160.696383 215.056735 
L 160.79014 214.777144 
L 160.829054 214.777144 
L 160.929822 214.078166 
L 160.952993 214.078166 
L 160.952993 213.798575 
L 161.144875 213.798575 
L 161.236223 213.099597 
L 161.281716 213.099597 
L 161.34973 212.820006 
L 161.394923 212.820006 
L 161.394923 212.680211 
L 161.50739 212.680211 
L 161.6117 212.400619 
L 161.641386 212.400619 
L 161.707995 211.841437 
L 161.781702 211.841437 
L 161.891675 211.422051 
L 161.993685 211.422051 
L 162.06618 211.142459 
L 162.167163 211.142459 
L 162.167163 211.002664 
L 162.684313 211.002664 
L 162.684313 210.862868 
L 162.857902 210.862868 
L 162.96122 210.443482 
L 163.009223 210.443482 
L 163.009223 210.303686 
L 163.287725 210.303686 
L 163.287725 210.163891 
L 163.401891 210.163891 
L 163.401891 210.024095 
L 163.700485 210.024095 
L 163.746471 209.744504 
L 164.090709 209.744504 
L 164.180501 209.185322 
L 164.250724 209.185322 
L 164.250724 209.045526 
L 164.541314 209.045526 
L 164.541314 208.90573 
L 164.672359 208.90573 
L 164.734412 208.626139 
L 164.790068 208.626139 
L 164.894709 207.927162 
L 164.913109 207.927162 
L 165.017005 207.367979 
L 165.096033 207.367979 
L 165.150533 207.088388 
L 165.318991 207.088388 
L 165.42047 206.38941 
L 165.574523 206.38941 
L 165.674508 206.109819 
L 165.686233 206.109819 
L 165.686233 205.830228 
L 165.855351 205.830228 
L 165.907499 205.550637 
L 166.03431 205.550637 
L 166.045792 205.271046 
L 166.268173 205.271046 
L 166.268173 205.13125 
L 166.42046 205.13125 
L 166.42046 204.991455 
L 166.803618 204.991455 
L 166.902183 204.292477 
L 166.934913 204.292477 
L 167.043565 203.87309 
L 167.17842 203.87309 
L 167.258829 203.313908 
L 167.30156 203.313908 
L 167.360143 203.034317 
L 167.681435 203.034317 
L 167.785483 202.335339 
L 167.914663 202.335339 
L 168.001954 201.915952 
L 168.316606 201.915952 
L 168.316606 201.776157 
L 168.451851 201.776157 
L 168.516592 201.496566 
L 169.006609 201.496566 
L 169.030747 201.216975 
L 169.22264 201.216975 
L 169.22264 200.937384 
L 169.379354 200.937384 
L 169.487741 200.517997 
L 169.586109 200.517997 
L 169.693204 200.09861 
L 169.822686 200.09861 
L 169.891652 199.539428 
L 170.001425 199.539428 
L 170.05605 198.560859 
L 170.151228 198.560859 
L 170.151228 198.421063 
L 170.335546 198.421063 
L 170.335546 198.281268 
L 170.680836 198.281268 
L 170.715861 198.001677 
L 170.846573 198.001677 
L 170.928847 197.722086 
L 170.963371 197.722086 
L 171.015027 197.442495 
L 171.249819 197.442495 
L 171.249819 197.302699 
L 171.498171 197.302699 
L 171.606486 197.023108 
L 171.763574 197.023108 
L 171.780027 196.743517 
L 172.008722 196.743517 
L 172.09774 196.463926 
L 172.238417 196.463926 
L 172.238417 196.32413 
L 172.429492 196.32413 
L 172.453228 195.904743 
L 172.696597 195.904743 
L 172.696597 195.764948 
L 172.813131 195.764948 
L 172.813131 195.625152 
L 173.101054 195.625152 
L 173.207321 195.345561 
L 173.455239 195.345561 
L 173.503652 195.06597 
L 173.662824 195.06597 
L 173.662824 194.926174 
L 173.79496 194.926174 
L 173.79496 194.786379 
L 173.926089 194.786379 
L 173.944222 194.506788 
L 174.067024 194.506788 
L 174.077818 194.227197 
L 174.192528 194.227197 
L 174.192528 194.087401 
L 174.324216 194.087401 
L 174.324216 193.947606 
L 174.612516 193.947606 
L 174.612516 193.80781 
L 174.741036 193.80781 
L 174.741036 193.668014 
L 174.858295 193.668014 
L 174.858295 193.528219 
L 175.100608 193.528219 
L 175.100608 193.388423 
L 175.356256 193.388423 
L 175.389613 192.969037 
L 175.499232 192.969037 
L 175.499232 192.829241 
L 175.627888 192.829241 
L 175.627888 192.54965 
L 175.862905 192.54965 
L 175.862905 192.409854 
L 176.033873 192.409854 
L 176.085154 191.850672 
L 176.14904 191.850672 
L 176.14904 191.710877 
L 176.266608 191.710877 
L 176.266608 191.571081 
L 176.493109 191.571081 
L 176.549271 191.29149 
L 176.614562 191.29149 
L 176.713578 190.872103 
L 176.821229 190.872103 
L 176.821229 190.732308 
L 176.970815 190.732308 
L 177.046637 190.452717 
L 177.146211 190.452717 
L 177.146211 190.312921 
L 177.632686 190.312921 
L 177.723115 190.03333 
L 178.154074 190.03333 
L 178.154074 189.893534 
L 178.351549 189.893534 
L 178.432701 189.613943 
L 178.618735 189.613943 
L 178.715123 189.054761 
L 178.734336 189.054761 
L 178.734336 188.914965 
L 179.306264 188.914965 
L 179.306264 188.77517 
L 179.435791 188.77517 
L 179.435791 188.495579 
L 179.619152 188.495579 
L 179.684167 188.215988 
L 179.813464 188.215988 
L 179.813464 188.076192 
L 180.396013 188.076192 
L 180.396013 187.936396 
L 180.539852 187.936396 
L 180.539852 187.796601 
L 181.165491 187.796601 
L 181.215427 187.51701 
L 181.577257 187.51701 
L 181.577257 187.377214 
L 181.725416 187.377214 
L 181.725416 187.237419 
L 181.863164 187.237419 
L 181.863164 187.097623 
L 182.276606 187.097623 
L 182.276606 186.957828 
L 182.675975 186.957828 
L 182.771673 186.538441 
L 182.912077 186.538441 
L 183.010751 186.25885 
L 183.104609 186.25885 
L 183.178904 185.979259 
L 183.334935 185.979259 
L 183.334935 185.839463 
L 183.460415 185.839463 
L 183.497881 185.559872 
L 183.725084 185.559872 
L 183.725084 185.420076 
L 183.96754 185.420076 
L 183.987759 185.140485 
L 185.05903 185.140485 
L 185.072316 184.860894 
L 185.247856 184.860894 
L 185.247856 184.721099 
L 186.577248 184.721099 
L 186.637976 184.301712 
L 186.722636 184.301712 
L 186.722636 184.161916 
L 187.477932 184.161916 
L 187.477932 184.022121 
L 188.44794 184.022121 
L 188.44794 183.882325 
L 188.839413 183.882325 
L 188.839413 183.74253 
L 191.10871 183.74253 
L 191.10871 183.602734 
L 191.305215 183.602734 
L 191.305215 183.462939 
L 191.479907 183.462939 
L 191.479907 183.323143 
L 192.528033 183.323143 
L 192.528033 183.183347 
L 192.844771 183.183347 
L 192.844771 183.043552 
L 195.136522 183.043552 
L 195.136522 182.903756 
L 195.380916 182.903756 
L 195.380916 182.763961 
L 199.202279 182.763961 
L 199.202279 182.624165 
L 201.902946 182.624165 
L 201.902946 182.48437 
L 202.722569 182.48437 
L 202.722569 182.344574 
L 203.57162 182.344574 
L 203.57162 182.204778 
L 207.112988 182.204778 
L 207.112988 182.064983 
L 207.229951 182.064983 
L 207.229951 181.925187 
L 208.812848 181.925187 
L 208.812848 181.785392 
L 214.05534 181.785392 
L 214.05534 181.645596 
L 333.168 181.645596 
L 333.168 181.645596 
" style="fill:none;stroke:#ff00ff;stroke-linecap:square;stroke-width:1.5;"/>
   </g>
   <g id="line2d_49">
    <defs>
     <path d="M -0 8.485281 
L 5.091169 0 
L 0 -8.485281 
L -5.091169 -0 
z
" id="m00be236200" style="stroke:#ff00ff;stroke-linejoin:miter;stroke-width:1.5;"/>
    </defs>
    <g>
     <use style="fill:none;stroke:#ff00ff;stroke-linejoin:miter;stroke-width:1.5;" x="131.311639" xlink:href="#m00be236200" y="267.899457"/>
     <use style="fill:none;stroke:#ff00ff;stroke-linejoin:miter;stroke-width:1.5;" x="176.713578" xlink:href="#m00be236200" y="190.872103"/>
     <use style="fill:none;stroke:#ff00ff;stroke-linejoin:miter;stroke-width:1.5;" x="214.05534" xlink:href="#m00be236200" y="181.785392"/>
     <use style="fill:none;stroke:#ff00ff;stroke-linejoin:miter;stroke-width:1.5;" x="214.05534" xlink:href="#m00be236200" y="181.645596"/>
     <use style="fill:none;stroke:#ff00ff;stroke-linejoin:miter;stroke-width:1.5;" x="333.168" xlink:href="#m00be236200" y="181.645596"/>
    </g>
   </g>
   <g id="line2d_50">
    <path style="fill:none;stroke:#ff00ff;stroke-linecap:square;stroke-width:1.5;"/>
    <g/>
   </g>
   <g id="line2d_51">
    <path clip-path="url(#p73dfe42939)" d="M 136.082436 264.404568 
" style="fill:none;stroke:#ff00ff;stroke-linecap:square;stroke-width:1.5;"/>
    <defs>
     <path d="M -12 12 
L 12 -12 
M -12 -12 
L 12 12 
" id="m34571c6bea" style="stroke:#ff00ff;"/>
    </defs>
    <g clip-path="url(#p73dfe42939)">
     <use style="fill:#ff00ff;stroke:#ff00ff;" x="136.082436" xlink:href="#m34571c6bea" y="264.404568"/>
    </g>
   </g>
   <g id="line2d_52">
    <path d="M 333.168 181.645596 
L 363.64328 289.176341 
" style="fill:none;stroke:#ff00ff;stroke-linecap:square;stroke-width:1.5;"/>
    <g>
     <use style="fill:none;stroke:#ff00ff;stroke-linejoin:miter;stroke-width:1.5;" x="333.168" xlink:href="#m00be236200" y="181.645596"/>
     <use style="fill:none;stroke:#ff00ff;stroke-linejoin:miter;stroke-width:1.5;" x="363.64328" xlink:href="#m00be236200" y="289.176341"/>
    </g>
   </g>
   <g id="line2d_53">
    <path d="M 333.168 181.645596 
L 363.64328 152.288529 
" style="fill:none;stroke:#000080;stroke-linecap:square;stroke-width:1.5;"/>
    <g>
     <use style="fill:none;stroke:#000080;stroke-width:1.5;" x="333.168" xlink:href="#mdcc31ac59f" y="181.645596"/>
     <use style="fill:none;stroke:#000080;stroke-width:1.5;" x="363.64328" xlink:href="#mdcc31ac59f" y="152.288529"/>
    </g>
   </g>
   <g id="line2d_54">
    <path d="M 333.168 294.88 
L 333.168 9.697057 
" style="fill:none;stroke:#000000;stroke-linecap:square;stroke-width:1.5;"/>
   </g>
   <g id="patch_3">
    <path d="M 56.12 294.88 
L 56.12 6.845228 
" style="fill:none;stroke:#000000;stroke-linecap:square;stroke-linejoin:miter;stroke-width:0.8;"/>
   </g>
   <g id="patch_4">
    <path d="M 333.168 294.88 
L 333.168 6.845228 
" style="fill:none;stroke:#000000;stroke-linecap:square;stroke-linejoin:miter;stroke-width:0.8;"/>
   </g>
   <g id="patch_5">
    <path d="M 56.12 294.88 
L 333.168 294.88 
" style="fill:none;stroke:#000000;stroke-linecap:square;stroke-linejoin:miter;stroke-width:0.8;"/>
   </g>
   <g id="patch_6">
    <path d="M 56.12 6.845228 
L 333.168 6.845228 
" style="fill:none;stroke:#000000;stroke-linecap:square;stroke-linejoin:miter;stroke-width:0.8;"/>
   </g>
   <g id="text_13">
    <!-- scipy-opt -->
    <defs>
     <path d="M 32.171875 -5.078125 
Q 28.375 -14.84375 24.75 -17.8125 
Q 21.140625 -20.796875 15.09375 -20.796875 
L 7.90625 -20.796875 
L 7.90625 -13.28125 
L 13.1875 -13.28125 
Q 16.890625 -13.28125 18.9375 -11.515625 
Q 21 -9.765625 23.484375 -3.21875 
L 25.09375 0.875 
L 2.984375 54.6875 
L 12.5 54.6875 
L 29.59375 11.921875 
L 46.6875 54.6875 
L 56.203125 54.6875 
z
" id="DejaVuSans-79"/>
    </defs>
    <g transform="translate(369.18424 293.867279)scale(0.17 -0.17)">
     <use xlink:href="#DejaVuSans-73"/>
     <use x="52.099609" xlink:href="#DejaVuSans-63"/>
     <use x="107.080078" xlink:href="#DejaVuSans-69"/>
     <use x="134.863281" xlink:href="#DejaVuSans-70"/>
     <use x="198.339844" xlink:href="#DejaVuSans-79"/>
     <use x="257.503906" xlink:href="#DejaVuSans-2d"/>
     <use x="293.603516" xlink:href="#DejaVuSans-6f"/>
     <use x="354.785156" xlink:href="#DejaVuSans-70"/>
     <use x="418.261719" xlink:href="#DejaVuSans-74"/>
    </g>
   </g>
   <g id="text_14">
    <!-- scipyAlg -->
    <defs>
     <path d="M 34.1875 63.1875 
L 20.796875 26.90625 
L 47.609375 26.90625 
z
M 28.609375 72.90625 
L 39.796875 72.90625 
L 67.578125 0 
L 57.328125 0 
L 50.6875 18.703125 
L 17.828125 18.703125 
L 11.1875 0 
L 0.78125 0 
z
" id="DejaVuSans-41"/>
    </defs>
    <g transform="translate(369.18424 156.979466)scale(0.17 -0.17)">
     <use xlink:href="#DejaVuSans-73"/>
     <use x="52.099609" xlink:href="#DejaVuSans-63"/>
     <use x="107.080078" xlink:href="#DejaVuSans-69"/>
     <use x="134.863281" xlink:href="#DejaVuSans-70"/>
     <use x="198.339844" xlink:href="#DejaVuSans-79"/>
     <use x="257.519531" xlink:href="#DejaVuSans-41"/>
     <use x="325.927734" xlink:href="#DejaVuSans-6c"/>
     <use x="353.710938" xlink:href="#DejaVuSans-67"/>
    </g>
   </g>
   <g id="text_15">
    <!-- best 2009 -->
    <defs>
     <path d="M 48.6875 27.296875 
Q 48.6875 37.203125 44.609375 42.84375 
Q 40.53125 48.484375 33.40625 48.484375 
Q 26.265625 48.484375 22.1875 42.84375 
Q 18.109375 37.203125 18.109375 27.296875 
Q 18.109375 17.390625 22.1875 11.75 
Q 26.265625 6.109375 33.40625 6.109375 
Q 40.53125 6.109375 44.609375 11.75 
Q 48.6875 17.390625 48.6875 27.296875 
z
M 18.109375 46.390625 
Q 20.953125 51.265625 25.265625 53.625 
Q 29.59375 56 35.59375 56 
Q 45.5625 56 51.78125 48.09375 
Q 58.015625 40.1875 58.015625 27.296875 
Q 58.015625 14.40625 51.78125 6.484375 
Q 45.5625 -1.421875 35.59375 -1.421875 
Q 29.59375 -1.421875 25.265625 0.953125 
Q 20.953125 3.328125 18.109375 8.203125 
L 18.109375 0 
L 9.078125 0 
L 9.078125 75.984375 
L 18.109375 75.984375 
z
" id="DejaVuSans-62"/>
     <path d="M 10.984375 1.515625 
L 10.984375 10.5 
Q 14.703125 8.734375 18.5 7.8125 
Q 22.3125 6.890625 25.984375 6.890625 
Q 35.75 6.890625 40.890625 13.453125 
Q 46.046875 20.015625 46.78125 33.40625 
Q 43.953125 29.203125 39.59375 26.953125 
Q 35.25 24.703125 29.984375 24.703125 
Q 19.046875 24.703125 12.671875 31.3125 
Q 6.296875 37.9375 6.296875 49.421875 
Q 6.296875 60.640625 12.9375 67.421875 
Q 19.578125 74.21875 30.609375 74.21875 
Q 43.265625 74.21875 49.921875 64.515625 
Q 56.59375 54.828125 56.59375 36.375 
Q 56.59375 19.140625 48.40625 8.859375 
Q 40.234375 -1.421875 26.421875 -1.421875 
Q 22.703125 -1.421875 18.890625 -0.6875 
Q 15.09375 0.046875 10.984375 1.515625 
z
M 30.609375 32.421875 
Q 37.25 32.421875 41.125 36.953125 
Q 45.015625 41.5 45.015625 49.421875 
Q 45.015625 57.28125 41.125 61.84375 
Q 37.25 66.40625 30.609375 66.40625 
Q 23.96875 66.40625 20.09375 61.84375 
Q 16.21875 57.28125 16.21875 49.421875 
Q 16.21875 41.5 20.09375 36.953125 
Q 23.96875 32.421875 30.609375 32.421875 
z
" id="DejaVuSans-39"/>
    </defs>
    <g transform="translate(369.18424 20.091654)scale(0.17 -0.17)">
     <use xlink:href="#DejaVuSans-62"/>
     <use x="63.476562" xlink:href="#DejaVuSans-65"/>
     <use x="125" xlink:href="#DejaVuSans-73"/>
     <use x="177.099609" xlink:href="#DejaVuSans-74"/>
     <use x="216.308594" xlink:href="#DejaVuSans-20"/>
     <use x="248.095703" xlink:href="#DejaVuSans-32"/>
     <use x="311.71875" xlink:href="#DejaVuSans-30"/>
     <use x="375.341797" xlink:href="#DejaVuSans-30"/>
     <use x="438.964844" xlink:href="#DejaVuSans-39"/>
    </g>
   </g>
   <g id="text_16">
    <!-- bbob f6-f9, 5-D -->
    <defs>
     <path d="M 10.796875 72.90625 
L 49.515625 72.90625 
L 49.515625 64.59375 
L 19.828125 64.59375 
L 19.828125 46.734375 
Q 21.96875 47.46875 24.109375 47.828125 
Q 26.265625 48.1875 28.421875 48.1875 
Q 40.625 48.1875 47.75 41.5 
Q 54.890625 34.8125 54.890625 23.390625 
Q 54.890625 11.625 47.5625 5.09375 
Q 40.234375 -1.421875 26.90625 -1.421875 
Q 22.3125 -1.421875 17.546875 -0.640625 
Q 12.796875 0.140625 7.71875 1.703125 
L 7.71875 11.625 
Q 12.109375 9.234375 16.796875 8.0625 
Q 21.484375 6.890625 26.703125 6.890625 
Q 35.15625 6.890625 40.078125 11.328125 
Q 45.015625 15.765625 45.015625 23.390625 
Q 45.015625 31 40.078125 35.4375 
Q 35.15625 39.890625 26.703125 39.890625 
Q 22.75 39.890625 18.8125 39.015625 
Q 14.890625 38.140625 10.796875 36.28125 
z
" id="DejaVuSans-35"/>
     <path d="M 19.671875 64.796875 
L 19.671875 8.109375 
L 31.59375 8.109375 
Q 46.6875 8.109375 53.6875 14.9375 
Q 60.6875 21.78125 60.6875 36.53125 
Q 60.6875 51.171875 53.6875 57.984375 
Q 46.6875 64.796875 31.59375 64.796875 
z
M 9.8125 72.90625 
L 30.078125 72.90625 
Q 51.265625 72.90625 61.171875 64.09375 
Q 71.09375 55.28125 71.09375 36.53125 
Q 71.09375 17.671875 61.125 8.828125 
Q 51.171875 0 30.078125 0 
L 9.8125 0 
z
" id="DejaVuSans-44"/>
    </defs>
    <g transform="translate(58.89048 17.475982)scale(0.102 -0.102)">
     <use xlink:href="#DejaVuSans-62"/>
     <use x="63.476562" xlink:href="#DejaVuSans-62"/>
     <use x="126.953125" xlink:href="#DejaVuSans-6f"/>
     <use x="188.134766" xlink:href="#DejaVuSans-62"/>
     <use x="251.611328" xlink:href="#DejaVuSans-20"/>
     <use x="283.398438" xlink:href="#DejaVuSans-66"/>
     <use x="318.603516" xlink:href="#DejaVuSans-36"/>
     <use x="382.226562" xlink:href="#DejaVuSans-2d"/>
     <use x="418.310547" xlink:href="#DejaVuSans-66"/>
     <use x="453.515625" xlink:href="#DejaVuSans-39"/>
     <use x="517.138672" xlink:href="#DejaVuSans-2c"/>
     <use x="548.925781" xlink:href="#DejaVuSans-20"/>
     <use x="580.712891" xlink:href="#DejaVuSans-35"/>
     <use x="644.335938" xlink:href="#DejaVuSans-2d"/>
     <use x="680.419922" xlink:href="#DejaVuSans-44"/>
    </g>
    <!-- 51 targets: 100..1e-08 -->
    <defs>
     <path d="M 11.71875 12.40625 
L 22.015625 12.40625 
L 22.015625 0 
L 11.71875 0 
z
M 11.71875 51.703125 
L 22.015625 51.703125 
L 22.015625 39.3125 
L 11.71875 39.3125 
z
" id="DejaVuSans-3a"/>
    </defs>
    <g transform="translate(58.89048 28.89775)scale(0.102 -0.102)">
     <use xlink:href="#DejaVuSans-35"/>
     <use x="63.623047" xlink:href="#DejaVuSans-31"/>
     <use x="127.246094" xlink:href="#DejaVuSans-20"/>
     <use x="159.033203" xlink:href="#DejaVuSans-74"/>
     <use x="198.242188" xlink:href="#DejaVuSans-61"/>
     <use x="259.521484" xlink:href="#DejaVuSans-72"/>
     <use x="300.619141" xlink:href="#DejaVuSans-67"/>
     <use x="364.095703" xlink:href="#DejaVuSans-65"/>
     <use x="425.619141" xlink:href="#DejaVuSans-74"/>
     <use x="464.828125" xlink:href="#DejaVuSans-73"/>
     <use x="516.927734" xlink:href="#DejaVuSans-3a"/>
     <use x="550.619141" xlink:href="#DejaVuSans-20"/>
     <use x="582.40625" xlink:href="#DejaVuSans-31"/>
     <use x="646.029297" xlink:href="#DejaVuSans-30"/>
     <use x="709.652344" xlink:href="#DejaVuSans-30"/>
     <use x="773.275391" xlink:href="#DejaVuSans-2e"/>
     <use x="805.0625" xlink:href="#DejaVuSans-2e"/>
     <use x="836.849609" xlink:href="#DejaVuSans-31"/>
     <use x="900.472656" xlink:href="#DejaVuSans-65"/>
     <use x="961.996094" xlink:href="#DejaVuSans-2d"/>
     <use x="998.080078" xlink:href="#DejaVuSans-30"/>
     <use x="1061.703125" xlink:href="#DejaVuSans-38"/>
    </g>
    <!-- 15 instances -->
    <g transform="translate(58.89048 40.319519)scale(0.102 -0.102)">
     <use xlink:href="#DejaVuSans-31"/>
     <use x="63.623047" xlink:href="#DejaVuSans-35"/>
     <use x="127.246094" xlink:href="#DejaVuSans-20"/>
     <use x="159.033203" xlink:href="#DejaVuSans-69"/>
     <use x="186.816406" xlink:href="#DejaVuSans-6e"/>
     <use x="250.195312" xlink:href="#DejaVuSans-73"/>
     <use x="302.294922" xlink:href="#DejaVuSans-74"/>
     <use x="341.503906" xlink:href="#DejaVuSans-61"/>
     <use x="402.783203" xlink:href="#DejaVuSans-6e"/>
     <use x="466.162109" xlink:href="#DejaVuSans-63"/>
     <use x="521.142578" xlink:href="#DejaVuSans-65"/>
     <use x="582.666016" xlink:href="#DejaVuSans-73"/>
    </g>
   </g>
   <g id="text_17">
    <!-- v0.0.0 -->
    <g style="fill:#808080;" transform="translate(178.96275 289.919965)scale(0.1 -0.1)">
     <use xlink:href="#DejaVuSans-76"/>
     <use x="59.179688" xlink:href="#DejaVuSans-30"/>
     <use x="122.802734" xlink:href="#DejaVuSans-2e"/>
     <use x="154.589844" xlink:href="#DejaVuSans-30"/>
     <use x="218.212891" xlink:href="#DejaVuSans-2e"/>
     <use x="250" xlink:href="#DejaVuSans-30"/>
    </g>
   </g>
  </g>
 </g>
 <defs>
  <clipPath id="p73dfe42939">
   <rect height="288.034772" width="277.048" x="56.12" y="6.845228"/>
  </clipPath>
 </defs>
</svg>
