<?xml version="1.0" encoding="utf-8" standalone="no"?>
<!DOCTYPE svg PUBLIC "-//W3C//DTD SVG 1.1//EN"
  "http://www.w3.org/Graphics/SVG/1.1/DTD/svg11.dtd">
<!-- Created with matplotlib (http://matplotlib.org/) -->
<svg height="345pt" version="1.1" viewBox="0 0 460 345" width="460pt" xmlns="http://www.w3.org/2000/svg" xmlns:xlink="http://www.w3.org/1999/xlink">
 <defs>
  <style type="text/css">
*{stroke-linecap:butt;stroke-linejoin:round;}
  </style>
 </defs>
 <g id="figure_1">
  <g id="patch_1">
   <path d="M 0 345.6 
L 460.8 345.6 
L 460.8 0 
L 0 0 
z
" style="fill:#ffffff;"/>
  </g>
  <g id="axes_1">
   <g id="patch_2">
    <path d="M 56.12 294.88 
L 333.168 294.88 
L 333.168 6.845228 
L 56.12 6.845228 
z
" style="fill:#ffffff;"/>
   </g>
   <g id="line2d_1">
    <path d="M 16.541714 294.88 
L 16.541714 288.356207 
L 28.455965 288.356207 
L 28.455965 287.424237 
L 35.425356 287.424237 
L 35.425356 286.492266 
L 40.370217 286.492266 
L 40.370217 286.026281 
L 52.284468 286.026281 
L 52.284468 285.560296 
L 56.12 285.560296 
L 56.12 285.327303 
L 57.758252 285.327303 
L 57.758252 284.861318 
L 59.253858 284.861318 
L 59.253858 284.628326 
L 64.198719 284.628326 
L 64.198719 284.16234 
L 66.223248 284.16234 
L 66.223248 283.929348 
L 67.15259 283.929348 
L 67.15259 283.696355 
L 68.034251 283.696355 
L 68.034251 272.279718 
L 69.672503 272.279718 
L 69.672503 271.114755 
L 70.436568 271.114755 
L 70.436568 261.096073 
L 72.543934 261.096073 
L 72.543934 260.86308 
L 73.192638 260.86308 
L 73.192638 260.630088 
L 75.003641 260.630088 
L 75.003641 259.698117 
L 75.567254 259.698117 
L 75.567254 258.99914 
L 76.11297 258.99914 
L 76.11297 258.533154 
L 76.641893 258.533154 
L 76.641893 258.300162 
L 78.60845 258.300162 
L 78.60845 258.067169 
L 79.948502 258.067169 
L 79.948502 257.834177 
L 81.191596 257.834177 
L 81.191596 257.601184 
L 82.350819 257.601184 
L 82.350819 257.368191 
L 82.720481 257.368191 
L 82.720481 257.135199 
L 84.458185 257.135199 
L 84.458185 256.902206 
L 85.732 256.902206 
L 85.732 256.203228 
L 87.481505 256.203228 
L 87.481505 255.970236 
L 88.027221 255.970236 
L 88.027221 255.737243 
L 88.556144 255.737243 
L 88.556144 255.504251 
L 89.320209 255.504251 
L 89.320209 255.271258 
L 90.05175 255.271258 
L 90.05175 255.038265 
L 90.753425 255.038265 
L 90.753425 254.805273 
L 91.205783 254.805273 
L 91.205783 254.339288 
L 91.427575 254.339288 
L 91.427575 254.106295 
L 92.287186 254.106295 
L 92.287186 253.873302 
L 92.904808 253.873302 
L 92.904808 253.64031 
L 93.304561 253.64031 
L 93.304561 253.407317 
L 93.501005 253.407317 
L 93.501005 253.174325 
L 95.351029 253.174325 
L 95.351029 252.475347 
L 96.038666 252.475347 
L 96.038666 252.242354 
L 96.861245 252.242354 
L 96.861245 252.009362 
L 97.950482 252.009362 
L 97.950482 251.776369 
L 98.832144 251.776369 
L 98.832144 251.543376 
L 99.11626 251.543376 
L 99.11626 251.310384 
L 99.533818 251.310384 
L 99.533818 251.077391 
L 99.806659 251.077391 
L 99.806659 250.844399 
L 100.207968 250.844399 
L 100.207968 250.611406 
L 100.470395 250.611406 
L 100.470395 250.378413 
L 100.600121 250.378413 
L 100.600121 250.145421 
L 100.983527 250.145421 
L 100.983527 249.912428 
L 101.358566 249.912428 
L 101.358566 249.679436 
L 101.604122 249.679436 
L 101.604122 249.446443 
L 102.320419 249.446443 
L 102.320419 249.21345 
L 102.436953 249.21345 
L 102.436953 248.980458 
L 102.895343 248.980458 
L 102.895343 248.747465 
L 103.120034 248.747465 
L 103.120034 248.514473 
L 103.231288 248.514473 
L 103.231288 248.048487 
L 103.990531 248.048487 
L 103.990531 247.815495 
L 104.305927 247.815495 
L 104.305927 247.582502 
L 105.020098 247.582502 
L 105.020098 247.116517 
L 105.801534 247.116517 
L 105.896762 246.650532 
L 106.272485 246.650532 
L 106.365146 245.252576 
L 106.45731 245.252576 
L 106.45731 245.019584 
L 106.64017 245.019584 
L 106.730875 243.621628 
L 106.821105 243.621628 
L 106.910863 240.592724 
L 107.000154 240.592724 
L 107.088985 236.63185 
L 107.177358 236.63185 
L 107.26528 234.534917 
L 107.612537 234.534917 
L 107.612537 234.301924 
L 107.783569 234.301924 
L 107.868452 233.835939 
L 108.036969 233.835939 
L 108.036969 233.602946 
L 109.014785 233.602946 
L 109.014785 233.369954 
L 109.864733 233.369954 
L 109.864733 233.136961 
L 110.014853 233.136961 
L 110.014853 232.903968 
L 110.311216 232.903968 
L 110.311216 232.670976 
L 110.602556 232.670976 
L 110.602556 232.204991 
L 111.030511 232.204991 
L 111.030511 231.971998 
L 111.310007 231.971998 
L 111.379177 231.27302 
L 111.72091 231.27302 
L 111.72091 231.040027 
L 111.855724 231.040027 
L 111.855724 230.807035 
L 111.989488 230.807035 
L 111.989488 230.574042 
L 112.514373 230.574042 
L 112.514373 230.34105 
L 112.643127 230.34105 
L 112.643127 230.108057 
L 112.960856 230.108057 
L 112.960856 229.875064 
L 113.086321 229.875064 
L 113.086321 229.642072 
L 113.579218 229.642072 
L 113.579218 229.409079 
L 114.23467 229.409079 
L 114.23467 228.943094 
L 114.409176 228.943094 
L 114.409176 228.710101 
L 115.744887 228.710101 
L 115.744887 228.477109 
L 115.957752 228.477109 
L 116.010559 228.011124 
L 116.682681 228.011124 
L 116.783791 227.312146 
L 116.884309 227.312146 
L 116.884309 227.079153 
L 117.329507 227.079153 
L 117.37827 226.613168 
L 118.279397 226.613168 
L 118.279397 226.147183 
L 118.958878 226.147183 
L 119.003236 225.681198 
L 119.179531 225.681198 
L 119.179531 225.448205 
L 120.034863 225.448205 
L 120.118102 224.98222 
L 120.487764 224.98222 
L 120.568842 224.516235 
L 120.729861 224.516235 
L 120.809808 224.050249 
L 121.047443 224.050249 
L 121.12593 223.351272 
L 121.551317 223.351272 
L 121.551317 223.118279 
L 121.778985 223.118279 
L 121.816638 222.652294 
L 121.929105 222.652294 
L 121.929105 222.419301 
L 122.660646 222.419301 
L 122.767741 221.720323 
L 123.258878 221.720323 
L 123.258878 221.487331 
L 123.499282 221.487331 
L 123.533353 221.021346 
L 123.870396 221.021346 
L 123.870396 220.788353 
L 124.069494 220.788353 
L 124.069494 220.55536 
L 124.428624 220.55536 
L 124.428624 220.322368 
L 125.000572 220.322368 
L 125.031795 219.856383 
L 125.156126 219.856383 
L 125.156126 219.62339 
L 125.340952 219.62339 
L 125.402121 218.924412 
L 125.794504 218.924412 
L 125.794504 218.458427 
L 126.061 218.458427 
L 126.061 218.225434 
L 126.381204 218.225434 
L 126.381204 217.759449 
L 126.695551 217.759449 
L 126.695551 217.526457 
L 127.004254 217.526457 
L 127.004254 217.293464 
L 127.142761 217.293464 
L 127.197852 216.827479 
L 127.334814 216.827479 
L 127.362076 216.361494 
L 127.578629 216.361494 
L 127.578629 216.128501 
L 127.819033 216.128501 
L 127.819033 215.895508 
L 128.13443 215.895508 
L 128.13443 215.662516 
L 128.495224 215.662516 
L 128.596932 214.963538 
L 128.698042 214.963538 
L 128.798561 214.497553 
L 128.823599 214.497553 
L 128.823599 214.26456 
L 129.022601 214.26456 
L 129.096637 213.798575 
L 129.606147 213.798575 
L 129.606147 213.565582 
L 129.796341 213.565582 
L 129.890654 213.099597 
L 130.262818 213.099597 
L 130.262818 212.866605 
L 130.649607 212.866605 
L 130.716969 212.400619 
L 130.761732 212.400619 
L 130.761732 212.167627 
L 131.093782 212.167627 
L 131.181257 211.235656 
L 131.289977 211.235656 
L 131.376461 210.536679 
L 131.696954 210.536679 
L 131.718109 210.070693 
L 131.990784 210.070693 
L 131.990784 209.837701 
L 132.197629 209.837701 
L 132.259201 209.371716 
L 132.320552 209.371716 
L 132.320552 209.138723 
L 132.563791 209.138723 
L 132.664134 208.439745 
L 132.922316 208.439745 
L 133.020593 207.740767 
L 133.196088 207.740767 
L 133.196088 207.507775 
L 133.389004 207.507775 
L 133.389004 207.274782 
L 133.541793 207.274782 
L 133.636601 206.808797 
L 133.749684 206.808797 
L 133.843356 206.342812 
L 133.862029 206.342812 
L 133.862029 206.109819 
L 133.973644 206.109819 
L 134.084539 205.643834 
L 134.322384 205.643834 
L 134.322384 205.410841 
L 134.53905 205.410841 
L 134.646368 204.944856 
L 134.664189 204.944856 
L 134.681992 204.478871 
L 134.788423 204.478871 
L 134.788423 204.245878 
L 135.086449 204.245878 
L 135.155828 203.779893 
L 135.24216 203.779893 
L 135.259374 203.313908 
L 135.413533 203.313908 
L 135.515543 202.61493 
L 135.667432 202.61493 
L 135.667432 202.381938 
L 135.917635 202.381938 
L 135.983745 201.449967 
L 136.09883 201.449967 
L 136.115208 200.983982 
L 136.213149 200.983982 
L 136.213149 200.750989 
L 136.326713 200.750989 
L 136.359022 200.285004 
L 136.551614 200.285004 
L 136.551614 200.052012 
L 136.66297 200.052012 
L 136.67882 199.353034 
L 136.961637 199.353034 
L 137.054885 198.654056 
L 137.11677 198.654056 
L 137.132207 197.722086 
L 137.270516 197.722086 
L 137.377325 196.790115 
L 137.422898 196.790115 
L 137.528768 196.091137 
L 137.588973 196.091137 
L 137.588973 195.858145 
L 137.798047 195.858145 
L 137.886877 195.159167 
L 137.931121 195.159167 
L 137.945844 194.693182 
L 138.136099 194.693182 
L 138.223203 193.062234 
L 138.266591 193.062234 
L 138.367404 191.664278 
L 138.410429 191.664278 
L 138.410429 191.431285 
L 138.652226 191.431285 
L 138.652226 191.198293 
L 138.862788 191.198293 
L 138.862788 190.9653 
L 138.974042 190.9653 
L 139.015577 190.266322 
L 139.139583 190.266322 
L 139.22176 189.800337 
L 139.344294 189.800337 
L 139.4255 189.334352 
L 139.49288 189.334352 
L 139.600142 188.635374 
L 139.666842 188.635374 
L 139.720016 187.936396 
L 139.799471 187.936396 
L 139.904842 187.237419 
L 139.94419 187.237419 
L 140.035654 186.305448 
L 140.061698 186.305448 
L 140.165478 185.60647 
L 140.217135 185.60647 
L 140.319984 184.441507 
L 140.332797 184.441507 
L 140.434959 182.810559 
L 140.447686 182.810559 
L 140.549169 182.344574 
L 140.675186 182.344574 
L 140.675186 181.878589 
L 140.936852 181.878589 
L 141.035496 181.412604 
L 141.340159 181.412604 
L 141.388408 180.713626 
L 141.460528 180.713626 
L 141.55622 180.247641 
L 141.804906 180.247641 
L 141.851869 179.548663 
L 142.223028 179.548663 
L 142.303162 178.849685 
L 142.608796 178.849685 
L 142.608796 178.616692 
L 143.018992 178.616692 
L 143.051826 178.150707 
L 143.398208 178.150707 
L 143.473058 177.684722 
L 143.65349 177.684722 
L 143.65349 177.451729 
L 143.800672 177.451729 
L 143.800672 177.218737 
L 144.091308 177.218737 
L 144.183692 176.752752 
L 144.295937 176.752752 
L 144.295937 176.519759 
L 144.407453 176.519759 
L 144.407453 176.286766 
L 144.638311 176.286766 
L 144.638311 176.053774 
L 144.787217 176.053774 
L 144.806974 175.587789 
L 144.915234 175.587789 
L 144.983773 175.121803 
L 145.06177 175.121803 
L 145.06177 174.888811 
L 145.178107 174.888811 
L 145.178107 174.655818 
L 145.34158 174.655818 
L 145.34158 174.189833 
L 145.512992 174.189833 
L 145.512992 173.95684 
L 145.710835 173.95684 
L 145.766946 173.490855 
L 146.172923 173.490855 
L 146.182039 173.02487 
L 146.43535 173.02487 
L 146.453301 172.325892 
L 146.631793 172.325892 
L 146.631793 172.0929 
L 146.965905 172.0929 
L 146.965905 171.859907 
L 147.225166 171.859907 
L 147.233741 171.393922 
L 147.438268 171.393922 
L 147.438268 171.160929 
L 147.598477 171.160929 
L 147.657127 170.694944 
L 147.922722 170.694944 
L 147.922722 170.461951 
L 148.078499 170.461951 
L 148.078499 170.228959 
L 148.441909 170.228959 
L 148.441909 169.995966 
L 148.608906 169.995966 
L 148.608906 169.762974 
L 148.852497 169.762974 
L 148.875888 169.296988 
L 149.007841 169.296988 
L 149.108066 168.598011 
L 149.367465 168.598011 
L 149.443019 168.132025 
L 149.778964 168.132025 
L 149.778964 167.899033 
L 150.108469 167.899033 
L 150.130213 167.433048 
L 150.238522 167.433048 
L 150.238522 167.200055 
L 150.353304 167.200055 
L 150.353304 166.967062 
L 150.672081 166.967062 
L 150.714141 166.501077 
L 150.797954 166.501077 
L 150.874425 166.035092 
L 150.936741 166.035092 
L 150.998831 165.569107 
L 151.067558 165.569107 
L 151.081271 165.103122 
L 151.359993 165.103122 
L 151.359993 164.870129 
L 151.713722 164.870129 
L 151.713722 164.637136 
L 151.85189 164.637136 
L 151.878082 164.171151 
L 151.995456 164.171151 
L 151.995456 163.938159 
L 152.208581 163.938159 
L 152.208581 163.705166 
L 152.444438 163.705166 
L 152.526544 163.239181 
L 152.576877 163.239181 
L 152.645845 162.773196 
L 152.714537 162.773196 
L 152.789162 162.30721 
L 152.826354 162.30721 
L 152.918982 161.841225 
L 152.986593 161.841225 
L 153.053939 161.142247 
L 153.139273 161.142247 
L 153.212081 160.210277 
L 153.284581 160.210277 
L 153.284581 159.977284 
L 153.559701 159.977284 
L 153.589342 159.511299 
L 153.877147 159.511299 
L 153.894612 159.045314 
L 154.376568 159.045314 
L 154.376568 158.812321 
L 154.623729 158.812321 
L 154.696079 158.346336 
L 154.734911 158.346336 
L 154.828853 157.880351 
L 154.916803 157.880351 
L 154.916803 157.647358 
L 155.102215 157.647358 
L 155.204963 156.948381 
L 155.317817 156.948381 
L 155.317817 156.715388 
L 155.514869 156.715388 
L 155.525456 156.249403 
L 155.995263 156.249403 
L 155.995263 156.01641 
L 156.301482 156.01641 
L 156.301482 155.783418 
L 156.432501 155.783418 
L 156.467606 155.317432 
L 156.686635 155.317432 
L 156.686635 155.08444 
L 156.951685 155.08444 
L 156.951685 154.851447 
L 157.23668 154.851447 
L 157.346511 152.288529 
L 157.365541 152.288529 
L 157.46983 149.72561 
L 157.484002 149.72561 
L 157.59227 141.803862 
L 157.653165 141.803862 
L 157.741778 140.405906 
L 157.77431 140.405906 
L 157.806781 139.00795 
L 157.92225 139.00795 
L 158.032375 135.746054 
L 158.078053 135.746054 
L 158.105402 134.581091 
L 158.385485 134.581091 
L 158.407875 133.882113 
L 158.661078 133.882113 
L 158.661078 133.649121 
L 158.849653 133.649121 
L 158.914951 133.183135 
L 159.25482 133.183135 
L 159.31011 132.71715 
L 159.411718 132.71715 
L 159.495934 132.251165 
L 159.558827 132.251165 
L 159.629829 131.78518 
L 159.746137 131.78518 
L 159.746137 131.552187 
L 159.882212 131.552187 
L 159.923235 131.086202 
L 160.183489 131.086202 
L 160.183489 130.853209 
L 160.312153 130.853209 
L 160.372134 130.154232 
L 160.475609 130.154232 
L 160.574519 129.688246 
L 160.602113 129.688246 
L 160.712045 128.756276 
L 160.71987 128.756276 
L 160.821278 128.057298 
L 160.860123 128.057298 
L 160.925957 126.892335 
L 161.079875 126.892335 
L 161.186803 125.727372 
L 161.258984 125.727372 
L 161.29307 125.261387 
L 161.376107 125.261387 
L 161.458745 123.863431 
L 161.514862 123.863431 
L 161.574519 122.698468 
L 161.652506 122.698468 
L 161.763305 121.999491 
L 161.803753 121.999491 
L 161.880709 120.834528 
L 161.939112 120.834528 
L 162.037219 119.669565 
L 162.06618 119.669565 
L 162.145574 118.504602 
L 162.192316 118.504602 
L 162.26398 117.572631 
L 162.335347 117.572631 
L 162.445383 116.174676 
L 162.544168 116.174676 
L 162.65288 115.009713 
L 162.666857 115.009713 
L 162.666857 114.77672 
L 162.8164 114.77672 
L 162.909639 113.84475 
L 163.040012 113.84475 
L 163.121847 112.912779 
L 163.193134 112.912779 
L 163.277615 112.213801 
L 163.311292 112.213801 
L 163.418617 106.854972 
L 163.462027 106.854972 
L 163.515304 106.388986 
L 163.591602 106.388986 
L 163.68074 105.457016 
L 163.75303 105.457016 
L 163.85438 104.991031 
L 164.032738 104.991031 
L 164.081061 104.05906 
L 164.228411 104.05906 
L 164.257094 103.593075 
L 164.399791 103.593075 
L 164.484845 103.12709 
L 164.560096 103.12709 
L 164.560096 102.894097 
L 165.168661 102.894097 
L 165.192802 102.195119 
L 165.399626 102.195119 
L 165.500631 101.496142 
L 165.527269 101.496142 
L 165.609878 101.030156 
L 165.671576 101.030156 
L 165.765167 100.564171 
L 166.134519 100.564171 
L 166.134519 100.331179 
L 166.355762 100.331179 
L 166.355762 100.098186 
L 166.63253 100.098186 
L 166.737592 99.399208 
L 166.784387 99.399208 
L 166.784387 99.166216 
L 166.992041 99.166216 
L 167.057098 98.70023 
L 167.148843 98.70023 
L 167.17842 98.234245 
L 167.330876 98.234245 
L 167.330876 98.001253 
L 167.455577 98.001253 
L 167.56625 97.302275 
L 167.764723 97.302275 
L 167.842442 96.83629 
L 167.881169 96.83629 
L 167.96863 96.370304 
L 168.083708 96.370304 
L 168.083708 96.137312 
L 168.195487 96.137312 
L 168.304029 95.438334 
L 168.41689 95.438334 
L 168.501673 94.506364 
L 168.536463 94.506364 
L 168.61819 94.040378 
L 168.746189 94.040378 
L 168.797611 92.875415 
L 168.941267 92.875415 
L 168.941267 92.642423 
L 169.100556 92.642423 
L 169.100556 92.40943 
L 169.485392 92.40943 
L 169.485392 92.176438 
L 169.889357 92.176438 
L 169.889357 91.943445 
L 170.214388 91.943445 
L 170.290773 91.244467 
L 170.331074 91.244467 
L 170.340017 90.778482 
L 170.537807 90.778482 
L 170.537807 90.545489 
L 170.676452 90.545489 
L 170.676452 90.312497 
L 170.883429 90.312497 
L 170.883429 90.079504 
L 171.183974 90.079504 
L 171.183974 89.846512 
L 171.523228 89.846512 
L 171.625164 89.380526 
L 171.643821 89.380526 
L 171.643821 89.147534 
L 171.806728 89.147534 
L 171.913122 88.215563 
L 172.004664 88.215563 
L 172.012778 87.749578 
L 172.148114 87.749578 
L 172.148114 87.516586 
L 172.455205 87.516586 
L 172.455205 87.283593 
L 173.705145 87.283593 
L 173.705145 87.0506 
L 173.909752 87.0506 
L 173.909752 86.817608 
L 174.596819 86.817608 
L 174.596819 86.584615 
L 174.933744 86.584615 
L 174.933744 86.351623 
L 175.124314 86.351623 
L 175.124314 86.11863 
L 175.316142 86.11863 
L 175.404602 84.953667 
L 175.447831 84.953667 
L 175.459451 84.487682 
L 175.871008 84.487682 
L 175.927621 83.555711 
L 176.233326 83.555711 
L 176.299826 82.856734 
L 176.821229 82.856734 
L 176.821229 82.623741 
L 176.958653 82.623741 
L 177.037556 81.924763 
L 177.769602 81.924763 
L 177.769602 81.691771 
L 178.435492 81.691771 
L 178.435492 81.458778 
L 179.980108 81.458778 
L 180.053939 80.7598 
L 180.169143 80.7598 
L 180.169143 80.526808 
L 180.282325 80.526808 
L 180.314884 80.060822 
L 181.06638 80.060822 
L 181.06638 79.82783 
L 181.215427 79.82783 
L 181.300695 79.361845 
L 181.349062 79.361845 
L 181.349062 79.128852 
L 181.750752 79.128852 
L 181.758806 78.662867 
L 181.968029 78.662867 
L 181.968029 78.429874 
L 182.144394 78.429874 
L 182.215108 77.963889 
L 182.305601 77.963889 
L 182.305601 77.730896 
L 182.419989 77.730896 
L 182.419989 77.497904 
L 182.694503 77.497904 
L 182.694503 77.264911 
L 182.856053 77.264911 
L 182.856053 77.031919 
L 183.384191 77.031919 
L 183.384191 76.798926 
L 183.96754 76.798926 
L 183.96754 76.565933 
L 184.268363 76.565933 
L 184.268363 76.332941 
L 184.714796 76.332941 
L 184.714796 76.099948 
L 184.827743 76.099948 
L 184.827743 75.866956 
L 185.129138 75.866956 
L 185.129138 75.633963 
L 186.190536 75.633963 
L 186.190536 75.40097 
L 186.93163 75.40097 
L 187.019095 74.934985 
L 187.089255 74.934985 
L 187.089255 74.701993 
L 187.242939 74.701993 
L 187.242939 74.469 
L 188.1769 74.469 
L 188.1769 74.236007 
L 188.347878 74.236007 
L 188.347878 74.003015 
L 188.622429 74.003015 
L 188.622429 73.770022 
L 188.913159 73.770022 
L 188.913159 73.53703 
L 189.141505 73.53703 
L 189.141505 73.304037 
L 189.645365 73.304037 
L 189.645365 73.071044 
L 189.925869 73.071044 
L 189.925869 72.838052 
L 190.499123 72.838052 
L 190.499123 72.605059 
L 191.332916 72.605059 
L 191.332916 72.372067 
L 191.495581 72.372067 
L 191.495581 72.139074 
L 191.608149 72.139074 
L 191.712895 71.673089 
L 191.831737 71.673089 
L 191.920491 71.207104 
L 192.010057 71.207104 
L 192.072666 70.741118 
L 192.265379 70.741118 
L 192.265379 70.508126 
L 192.790367 70.508126 
L 192.860455 70.042141 
L 193.01652 70.042141 
L 193.01891 68.1782 
L 193.456598 68.1782 
L 193.456598 67.945207 
L 193.683981 67.945207 
L 193.683981 67.712215 
L 194.419259 67.712215 
L 194.419259 67.479222 
L 194.637054 67.479222 
L 194.747627 67.013237 
L 194.924468 67.013237 
L 194.924468 66.780244 
L 195.283261 66.780244 
L 195.283261 66.547252 
L 196.073423 66.547252 
L 196.073423 66.314259 
L 196.348312 66.314259 
L 196.431301 65.848274 
L 197.451671 65.848274 
L 197.451671 65.615281 
L 197.567154 65.615281 
L 197.567154 65.382289 
L 197.691883 65.382289 
L 197.751869 64.916303 
L 197.822493 64.916303 
L 197.822493 64.683311 
L 197.958841 64.683311 
L 197.978999 64.217326 
L 198.092783 64.217326 
L 198.154047 63.75134 
L 198.356261 63.75134 
L 198.430992 63.285355 
L 199.289198 63.285355 
L 199.289198 63.052363 
L 199.527315 63.052363 
L 199.527315 62.81937 
L 199.660582 62.81937 
L 199.660582 62.586377 
L 199.809332 62.586377 
L 199.809332 62.353385 
L 199.926053 62.353385 
L 199.926053 62.120392 
L 200.050323 62.120392 
L 200.146886 61.654407 
L 200.240948 61.654407 
L 200.333717 61.188422 
L 200.961545 61.188422 
L 200.961545 60.955429 
L 202.492401 60.955429 
L 202.492401 60.722437 
L 202.664718 60.722437 
L 202.749386 60.023459 
L 202.814726 60.023459 
L 202.910088 59.557474 
L 204.527524 59.557474 
L 204.636674 58.858496 
L 206.992308 58.858496 
L 207.086916 57.926525 
L 207.124036 57.926525 
L 207.218971 57.227548 
L 207.238313 57.227548 
L 207.279799 56.761562 
L 207.512756 56.761562 
L 207.512756 56.52857 
L 208.408873 56.52857 
L 208.512277 55.596599 
L 208.545477 55.596599 
L 208.618678 54.897622 
L 208.658891 54.897622 
L 208.746933 53.965651 
L 208.770366 53.965651 
L 208.823809 53.266673 
L 208.958586 53.266673 
L 209.050988 52.567696 
L 209.125115 52.567696 
L 209.232221 51.868718 
L 209.269401 51.868718 
L 209.369846 51.16974 
L 209.412255 51.16974 
L 209.46443 50.703755 
L 209.530628 50.703755 
L 209.621378 50.004777 
L 209.668389 50.004777 
L 209.757288 49.305799 
L 209.789296 49.305799 
L 209.881607 48.606821 
L 209.939078 48.606821 
L 210.031921 47.907844 
L 210.080481 47.907844 
L 210.173447 47.208866 
L 210.232366 47.208866 
L 210.333901 46.276895 
L 210.364637 46.276895 
L 210.470375 45.577918 
L 210.493952 45.577918 
L 210.597611 44.87894 
L 210.633883 44.87894 
L 210.721139 44.179962 
L 210.768431 44.179962 
L 210.768431 43.946969 
L 211.279816 43.946969 
L 211.279816 43.713977 
L 211.696999 43.713977 
L 211.696999 43.480984 
L 214.218845 43.480984 
L 214.218845 43.247992 
L 223.355511 43.247992 
L 223.355511 43.014999 
L 224.904554 43.014999 
L 224.978608 42.549014 
L 226.457478 42.549014 
L 226.568134 41.850036 
L 226.645931 41.850036 
L 226.753118 41.151058 
L 226.801985 41.151058 
L 226.889812 40.45208 
L 226.936465 40.45208 
L 227.016089 39.753103 
L 227.053495 39.753103 
L 227.150634 39.054125 
L 227.185948 39.054125 
L 227.254403 38.355147 
L 227.297801 38.355147 
L 227.402305 37.423177 
L 227.437993 37.423177 
L 227.515092 36.724199 
L 227.568087 36.724199 
L 227.661732 36.025221 
L 227.699032 36.025221 
L 227.699032 35.792228 
L 232.805101 35.792228 
L 232.805101 35.559236 
L 240.3589 35.559236 
L 240.3589 35.326243 
L 241.063952 35.326243 
L 241.063952 35.093251 
L 243.735679 35.093251 
L 243.8467 34.627265 
L 244.043853 34.627265 
L 244.137162 34.16128 
L 244.241107 34.16128 
L 244.326954 33.22931 
L 244.367066 33.22931 
L 244.469664 32.064347 
L 244.492198 32.064347 
L 244.573083 31.132376 
L 244.603655 31.132376 
L 244.699773 29.967413 
L 244.717906 29.967413 
L 244.824627 28.80245 
L 244.846525 28.80245 
L 244.941853 27.637487 
L 244.968489 27.637487 
L 245.032076 26.705517 
L 252.288663 26.705517 
L 252.288663 26.472524 
L 253.730518 26.472524 
L 253.730518 26.239532 
L 254.140937 26.239532 
L 254.140937 26.006539 
L 254.767361 26.006539 
L 254.767361 25.773547 
L 255.77664 25.773547 
L 255.77664 25.540554 
L 257.859263 25.540554 
L 257.859263 25.307561 
L 259.351989 25.307561 
L 259.462295 23.676613 
L 259.467615 23.676613 
L 259.562804 22.045665 
L 259.581436 22.045665 
L 259.682056 19.948732 
L 259.699275 19.948732 
L 259.743541 19.016761 
L 273.726578 19.016761 
L 273.726578 18.783769 
L 281.591308 18.783769 
L 281.591308 18.550776 
L 303.089624 18.550776 
L 303.089624 18.317783 
L 328.165393 18.317783 
L 328.17278 9.697057 
L 333.168 9.697057 
L 333.168 9.697057 
" style="fill:none;stroke:#f5deb3;stroke-linecap:square;stroke-width:4;"/>
   </g>
   <g id="line2d_2">
    <defs>
     <path d="M -0 7.778175 
L 7.778175 0 
L 0 -7.778175 
L -7.778175 -0 
z
" id="m902ddcedc3" style="stroke:#f5deb3;stroke-linejoin:miter;stroke-width:1.5;"/>
    </defs>
    <g>
     <use style="fill:#f5deb3;stroke:#f5deb3;stroke-linejoin:miter;stroke-width:1.5;" x="87.481505" xlink:href="#m902ddcedc3" y="256.203228"/>
     <use style="fill:#f5deb3;stroke:#f5deb3;stroke-linejoin:miter;stroke-width:1.5;" x="135.086449" xlink:href="#m902ddcedc3" y="204.245878"/>
     <use style="fill:#f5deb3;stroke:#f5deb3;stroke-linejoin:miter;stroke-width:1.5;" x="173.909752" xlink:href="#m902ddcedc3" y="86.817608"/>
     <use style="fill:#f5deb3;stroke:#f5deb3;stroke-linejoin:miter;stroke-width:1.5;" x="227.699032" xlink:href="#m902ddcedc3" y="35.792228"/>
     <use style="fill:#f5deb3;stroke:#f5deb3;stroke-linejoin:miter;stroke-width:1.5;" x="328.17278" xlink:href="#m902ddcedc3" y="9.697057"/>
     <use style="fill:#f5deb3;stroke:#f5deb3;stroke-linejoin:miter;stroke-width:1.5;" x="333.168" xlink:href="#m902ddcedc3" y="9.697057"/>
    </g>
   </g>
   <g id="line2d_3">
    <path style="fill:none;stroke:#f5deb3;stroke-linecap:square;stroke-width:4;"/>
    <g/>
   </g>
   <g id="line2d_4">
    <path d="M 333.168 9.697057 
L 363.64328 15.400716 
" style="fill:none;stroke:#f5deb3;stroke-linecap:square;stroke-width:4;"/>
    <g>
     <use style="fill:#f5deb3;stroke:#f5deb3;stroke-linejoin:miter;stroke-width:1.5;" x="333.168" xlink:href="#m902ddcedc3" y="9.697057"/>
     <use style="fill:#f5deb3;stroke:#f5deb3;stroke-linejoin:miter;stroke-width:1.5;" x="363.64328" xlink:href="#m902ddcedc3" y="15.400716"/>
    </g>
   </g>
   <g id="matplotlib.axis_1">
    <g id="xtick_1">
     <g id="line2d_5">
      <path clip-path="url(#pc5eddf1060)" d="M 56.12 294.88 
L 56.12 6.845228 
" style="fill:none;stroke:#b0b0b0;stroke-linecap:square;stroke-width:0.8;"/>
     </g>
     <g id="line2d_6">
      <defs>
       <path d="M 0 0 
L 0 3.5 
" id="m085f59bedb" style="stroke:#000000;stroke-width:0.8;"/>
      </defs>
      <g>
       <use style="stroke:#000000;stroke-width:0.8;" x="56.12" xlink:href="#m085f59bedb" y="294.88"/>
      </g>
     </g>
     <g id="text_1">
      <!-- 0 -->
      <defs>
       <path d="M 31.78125 66.40625 
Q 24.171875 66.40625 20.328125 58.90625 
Q 16.5 51.421875 16.5 36.375 
Q 16.5 21.390625 20.328125 13.890625 
Q 24.171875 6.390625 31.78125 6.390625 
Q 39.453125 6.390625 43.28125 13.890625 
Q 47.125 21.390625 47.125 36.375 
Q 47.125 51.421875 43.28125 58.90625 
Q 39.453125 66.40625 31.78125 66.40625 
z
M 31.78125 74.21875 
Q 44.046875 74.21875 50.515625 64.515625 
Q 56.984375 54.828125 56.984375 36.375 
Q 56.984375 17.96875 50.515625 8.265625 
Q 44.046875 -1.421875 31.78125 -1.421875 
Q 19.53125 -1.421875 13.0625 8.265625 
Q 6.59375 17.96875 6.59375 36.375 
Q 6.59375 54.828125 13.0625 64.515625 
Q 19.53125 74.21875 31.78125 74.21875 
z
" id="DejaVuSans-30"/>
      </defs>
      <g transform="translate(49.7575 317.076875)scale(0.2 -0.2)">
       <use xlink:href="#DejaVuSans-30"/>
      </g>
     </g>
    </g>
    <g id="xtick_2">
     <g id="line2d_7">
      <path clip-path="url(#pc5eddf1060)" d="M 135.276571 294.88 
L 135.276571 6.845228 
" style="fill:none;stroke:#b0b0b0;stroke-linecap:square;stroke-width:0.8;"/>
     </g>
     <g id="line2d_8">
      <g>
       <use style="stroke:#000000;stroke-width:0.8;" x="135.276571" xlink:href="#m085f59bedb" y="294.88"/>
      </g>
     </g>
     <g id="text_2">
      <!-- 2 -->
      <defs>
       <path d="M 19.1875 8.296875 
L 53.609375 8.296875 
L 53.609375 0 
L 7.328125 0 
L 7.328125 8.296875 
Q 12.9375 14.109375 22.625 23.890625 
Q 32.328125 33.6875 34.8125 36.53125 
Q 39.546875 41.84375 41.421875 45.53125 
Q 43.3125 49.21875 43.3125 52.78125 
Q 43.3125 58.59375 39.234375 62.25 
Q 35.15625 65.921875 28.609375 65.921875 
Q 23.96875 65.921875 18.8125 64.3125 
Q 13.671875 62.703125 7.8125 59.421875 
L 7.8125 69.390625 
Q 13.765625 71.78125 18.9375 73 
Q 24.125 74.21875 28.421875 74.21875 
Q 39.75 74.21875 46.484375 68.546875 
Q 53.21875 62.890625 53.21875 53.421875 
Q 53.21875 48.921875 51.53125 44.890625 
Q 49.859375 40.875 45.40625 35.40625 
Q 44.1875 33.984375 37.640625 27.21875 
Q 31.109375 20.453125 19.1875 8.296875 
z
" id="DejaVuSans-32"/>
      </defs>
      <g transform="translate(128.914071 317.076875)scale(0.2 -0.2)">
       <use xlink:href="#DejaVuSans-32"/>
      </g>
     </g>
    </g>
    <g id="xtick_3">
     <g id="line2d_9">
      <path clip-path="url(#pc5eddf1060)" d="M 214.433143 294.88 
L 214.433143 6.845228 
" style="fill:none;stroke:#b0b0b0;stroke-linecap:square;stroke-width:0.8;"/>
     </g>
     <g id="line2d_10">
      <g>
       <use style="stroke:#000000;stroke-width:0.8;" x="214.433143" xlink:href="#m085f59bedb" y="294.88"/>
      </g>
     </g>
     <g id="text_3">
      <!-- 4 -->
      <defs>
       <path d="M 37.796875 64.3125 
L 12.890625 25.390625 
L 37.796875 25.390625 
z
M 35.203125 72.90625 
L 47.609375 72.90625 
L 47.609375 25.390625 
L 58.015625 25.390625 
L 58.015625 17.1875 
L 47.609375 17.1875 
L 47.609375 0 
L 37.796875 0 
L 37.796875 17.1875 
L 4.890625 17.1875 
L 4.890625 26.703125 
z
" id="DejaVuSans-34"/>
      </defs>
      <g transform="translate(208.070643 317.076875)scale(0.2 -0.2)">
       <use xlink:href="#DejaVuSans-34"/>
      </g>
     </g>
    </g>
    <g id="xtick_4">
     <g id="line2d_11">
      <path clip-path="url(#pc5eddf1060)" d="M 293.589714 294.88 
L 293.589714 6.845228 
" style="fill:none;stroke:#b0b0b0;stroke-linecap:square;stroke-width:0.8;"/>
     </g>
     <g id="line2d_12">
      <g>
       <use style="stroke:#000000;stroke-width:0.8;" x="293.589714" xlink:href="#m085f59bedb" y="294.88"/>
      </g>
     </g>
     <g id="text_4">
      <!-- 6 -->
      <defs>
       <path d="M 33.015625 40.375 
Q 26.375 40.375 22.484375 35.828125 
Q 18.609375 31.296875 18.609375 23.390625 
Q 18.609375 15.53125 22.484375 10.953125 
Q 26.375 6.390625 33.015625 6.390625 
Q 39.65625 6.390625 43.53125 10.953125 
Q 47.40625 15.53125 47.40625 23.390625 
Q 47.40625 31.296875 43.53125 35.828125 
Q 39.65625 40.375 33.015625 40.375 
z
M 52.59375 71.296875 
L 52.59375 62.3125 
Q 48.875 64.0625 45.09375 64.984375 
Q 41.3125 65.921875 37.59375 65.921875 
Q 27.828125 65.921875 22.671875 59.328125 
Q 17.53125 52.734375 16.796875 39.40625 
Q 19.671875 43.65625 24.015625 45.921875 
Q 28.375 48.1875 33.59375 48.1875 
Q 44.578125 48.1875 50.953125 41.515625 
Q 57.328125 34.859375 57.328125 23.390625 
Q 57.328125 12.15625 50.6875 5.359375 
Q 44.046875 -1.421875 33.015625 -1.421875 
Q 20.359375 -1.421875 13.671875 8.265625 
Q 6.984375 17.96875 6.984375 36.375 
Q 6.984375 53.65625 15.1875 63.9375 
Q 23.390625 74.21875 37.203125 74.21875 
Q 40.921875 74.21875 44.703125 73.484375 
Q 48.484375 72.75 52.59375 71.296875 
z
" id="DejaVuSans-36"/>
      </defs>
      <g transform="translate(287.227214 317.076875)scale(0.2 -0.2)">
       <use xlink:href="#DejaVuSans-36"/>
      </g>
     </g>
    </g>
    <g id="xtick_5">
     <g id="line2d_13">
      <path clip-path="url(#pc5eddf1060)" d="M 56.12 294.88 
L 56.12 6.845228 
" style="fill:none;stroke:#b0b0b0;stroke-linecap:square;stroke-width:0.8;"/>
     </g>
     <g id="line2d_14">
      <defs>
       <path d="M 0 0 
L 0 2 
" id="mb9f59398d8" style="stroke:#000000;stroke-width:0.6;"/>
      </defs>
      <g>
       <use style="stroke:#000000;stroke-width:0.6;" x="56.12" xlink:href="#mb9f59398d8" y="294.88"/>
      </g>
     </g>
    </g>
    <g id="xtick_6">
     <g id="line2d_15">
      <path clip-path="url(#pc5eddf1060)" d="M 95.698286 294.88 
L 95.698286 6.845228 
" style="fill:none;stroke:#b0b0b0;stroke-linecap:square;stroke-width:0.8;"/>
     </g>
     <g id="line2d_16">
      <g>
       <use style="stroke:#000000;stroke-width:0.6;" x="95.698286" xlink:href="#mb9f59398d8" y="294.88"/>
      </g>
     </g>
    </g>
    <g id="xtick_7">
     <g id="line2d_17">
      <path clip-path="url(#pc5eddf1060)" d="M 135.276571 294.88 
L 135.276571 6.845228 
" style="fill:none;stroke:#b0b0b0;stroke-linecap:square;stroke-width:0.8;"/>
     </g>
     <g id="line2d_18">
      <g>
       <use style="stroke:#000000;stroke-width:0.6;" x="135.276571" xlink:href="#mb9f59398d8" y="294.88"/>
      </g>
     </g>
    </g>
    <g id="xtick_8">
     <g id="line2d_19">
      <path clip-path="url(#pc5eddf1060)" d="M 174.854857 294.88 
L 174.854857 6.845228 
" style="fill:none;stroke:#b0b0b0;stroke-linecap:square;stroke-width:0.8;"/>
     </g>
     <g id="line2d_20">
      <g>
       <use style="stroke:#000000;stroke-width:0.6;" x="174.854857" xlink:href="#mb9f59398d8" y="294.88"/>
      </g>
     </g>
    </g>
    <g id="xtick_9">
     <g id="line2d_21">
      <path clip-path="url(#pc5eddf1060)" d="M 214.433143 294.88 
L 214.433143 6.845228 
" style="fill:none;stroke:#b0b0b0;stroke-linecap:square;stroke-width:0.8;"/>
     </g>
     <g id="line2d_22">
      <g>
       <use style="stroke:#000000;stroke-width:0.6;" x="214.433143" xlink:href="#mb9f59398d8" y="294.88"/>
      </g>
     </g>
    </g>
    <g id="xtick_10">
     <g id="line2d_23">
      <path clip-path="url(#pc5eddf1060)" d="M 254.011429 294.88 
L 254.011429 6.845228 
" style="fill:none;stroke:#b0b0b0;stroke-linecap:square;stroke-width:0.8;"/>
     </g>
     <g id="line2d_24">
      <g>
       <use style="stroke:#000000;stroke-width:0.6;" x="254.011429" xlink:href="#mb9f59398d8" y="294.88"/>
      </g>
     </g>
    </g>
    <g id="xtick_11">
     <g id="line2d_25">
      <path clip-path="url(#pc5eddf1060)" d="M 293.589714 294.88 
L 293.589714 6.845228 
" style="fill:none;stroke:#b0b0b0;stroke-linecap:square;stroke-width:0.8;"/>
     </g>
     <g id="line2d_26">
      <g>
       <use style="stroke:#000000;stroke-width:0.6;" x="293.589714" xlink:href="#mb9f59398d8" y="294.88"/>
      </g>
     </g>
    </g>
    <g id="xtick_12">
     <g id="line2d_27">
      <path clip-path="url(#pc5eddf1060)" d="M 333.168 294.88 
L 333.168 6.845228 
" style="fill:none;stroke:#b0b0b0;stroke-linecap:square;stroke-width:0.8;"/>
     </g>
     <g id="line2d_28">
      <g>
       <use style="stroke:#000000;stroke-width:0.6;" x="333.168" xlink:href="#mb9f59398d8" y="294.88"/>
      </g>
     </g>
    </g>
    <g id="text_5">
     <!-- log10(# f-evals / dimension) -->
     <defs>
      <path d="M 9.421875 75.984375 
L 18.40625 75.984375 
L 18.40625 0 
L 9.421875 0 
z
" id="DejaVuSans-6c"/>
      <path d="M 30.609375 48.390625 
Q 23.390625 48.390625 19.1875 42.75 
Q 14.984375 37.109375 14.984375 27.296875 
Q 14.984375 17.484375 19.15625 11.84375 
Q 23.34375 6.203125 30.609375 6.203125 
Q 37.796875 6.203125 41.984375 11.859375 
Q 46.1875 17.53125 46.1875 27.296875 
Q 46.1875 37.015625 41.984375 42.703125 
Q 37.796875 48.390625 30.609375 48.390625 
z
M 30.609375 56 
Q 42.328125 56 49.015625 48.375 
Q 55.71875 40.765625 55.71875 27.296875 
Q 55.71875 13.875 49.015625 6.21875 
Q 42.328125 -1.421875 30.609375 -1.421875 
Q 18.84375 -1.421875 12.171875 6.21875 
Q 5.515625 13.875 5.515625 27.296875 
Q 5.515625 40.765625 12.171875 48.375 
Q 18.84375 56 30.609375 56 
z
" id="DejaVuSans-6f"/>
      <path d="M 45.40625 27.984375 
Q 45.40625 37.75 41.375 43.109375 
Q 37.359375 48.484375 30.078125 48.484375 
Q 22.859375 48.484375 18.828125 43.109375 
Q 14.796875 37.75 14.796875 27.984375 
Q 14.796875 18.265625 18.828125 12.890625 
Q 22.859375 7.515625 30.078125 7.515625 
Q 37.359375 7.515625 41.375 12.890625 
Q 45.40625 18.265625 45.40625 27.984375 
z
M 54.390625 6.78125 
Q 54.390625 -7.171875 48.1875 -13.984375 
Q 42 -20.796875 29.203125 -20.796875 
Q 24.46875 -20.796875 20.265625 -20.09375 
Q 16.0625 -19.390625 12.109375 -17.921875 
L 12.109375 -9.1875 
Q 16.0625 -11.328125 19.921875 -12.34375 
Q 23.78125 -13.375 27.78125 -13.375 
Q 36.625 -13.375 41.015625 -8.765625 
Q 45.40625 -4.15625 45.40625 5.171875 
L 45.40625 9.625 
Q 42.625 4.78125 38.28125 2.390625 
Q 33.9375 0 27.875 0 
Q 17.828125 0 11.671875 7.65625 
Q 5.515625 15.328125 5.515625 27.984375 
Q 5.515625 40.671875 11.671875 48.328125 
Q 17.828125 56 27.875 56 
Q 33.9375 56 38.28125 53.609375 
Q 42.625 51.21875 45.40625 46.390625 
L 45.40625 54.6875 
L 54.390625 54.6875 
z
" id="DejaVuSans-67"/>
      <path d="M 12.40625 8.296875 
L 28.515625 8.296875 
L 28.515625 63.921875 
L 10.984375 60.40625 
L 10.984375 69.390625 
L 28.421875 72.90625 
L 38.28125 72.90625 
L 38.28125 8.296875 
L 54.390625 8.296875 
L 54.390625 0 
L 12.40625 0 
z
" id="DejaVuSans-31"/>
      <path d="M 31 75.875 
Q 24.46875 64.65625 21.28125 53.65625 
Q 18.109375 42.671875 18.109375 31.390625 
Q 18.109375 20.125 21.3125 9.0625 
Q 24.515625 -2 31 -13.1875 
L 23.1875 -13.1875 
Q 15.875 -1.703125 12.234375 9.375 
Q 8.59375 20.453125 8.59375 31.390625 
Q 8.59375 42.28125 12.203125 53.3125 
Q 15.828125 64.359375 23.1875 75.875 
z
" id="DejaVuSans-28"/>
      <path d="M 51.125 44 
L 36.921875 44 
L 32.8125 27.6875 
L 47.125 27.6875 
z
M 43.796875 71.78125 
L 38.71875 51.515625 
L 52.984375 51.515625 
L 58.109375 71.78125 
L 65.921875 71.78125 
L 60.890625 51.515625 
L 76.125 51.515625 
L 76.125 44 
L 58.984375 44 
L 54.984375 27.6875 
L 70.515625 27.6875 
L 70.515625 20.21875 
L 53.078125 20.21875 
L 48 0 
L 40.1875 0 
L 45.21875 20.21875 
L 30.90625 20.21875 
L 25.875 0 
L 18.015625 0 
L 23.09375 20.21875 
L 7.71875 20.21875 
L 7.71875 27.6875 
L 24.90625 27.6875 
L 29 44 
L 13.28125 44 
L 13.28125 51.515625 
L 30.90625 51.515625 
L 35.890625 71.78125 
z
" id="DejaVuSans-23"/>
      <path id="DejaVuSans-20"/>
      <path d="M 37.109375 75.984375 
L 37.109375 68.5 
L 28.515625 68.5 
Q 23.6875 68.5 21.796875 66.546875 
Q 19.921875 64.59375 19.921875 59.515625 
L 19.921875 54.6875 
L 34.71875 54.6875 
L 34.71875 47.703125 
L 19.921875 47.703125 
L 19.921875 0 
L 10.890625 0 
L 10.890625 47.703125 
L 2.296875 47.703125 
L 2.296875 54.6875 
L 10.890625 54.6875 
L 10.890625 58.5 
Q 10.890625 67.625 15.140625 71.796875 
Q 19.390625 75.984375 28.609375 75.984375 
z
" id="DejaVuSans-66"/>
      <path d="M 4.890625 31.390625 
L 31.203125 31.390625 
L 31.203125 23.390625 
L 4.890625 23.390625 
z
" id="DejaVuSans-2d"/>
      <path d="M 56.203125 29.59375 
L 56.203125 25.203125 
L 14.890625 25.203125 
Q 15.484375 15.921875 20.484375 11.0625 
Q 25.484375 6.203125 34.421875 6.203125 
Q 39.59375 6.203125 44.453125 7.46875 
Q 49.3125 8.734375 54.109375 11.28125 
L 54.109375 2.78125 
Q 49.265625 0.734375 44.1875 -0.34375 
Q 39.109375 -1.421875 33.890625 -1.421875 
Q 20.796875 -1.421875 13.15625 6.1875 
Q 5.515625 13.8125 5.515625 26.8125 
Q 5.515625 40.234375 12.765625 48.109375 
Q 20.015625 56 32.328125 56 
Q 43.359375 56 49.78125 48.890625 
Q 56.203125 41.796875 56.203125 29.59375 
z
M 47.21875 32.234375 
Q 47.125 39.59375 43.09375 43.984375 
Q 39.0625 48.390625 32.421875 48.390625 
Q 24.90625 48.390625 20.390625 44.140625 
Q 15.875 39.890625 15.1875 32.171875 
z
" id="DejaVuSans-65"/>
      <path d="M 2.984375 54.6875 
L 12.5 54.6875 
L 29.59375 8.796875 
L 46.6875 54.6875 
L 56.203125 54.6875 
L 35.6875 0 
L 23.484375 0 
z
" id="DejaVuSans-76"/>
      <path d="M 34.28125 27.484375 
Q 23.390625 27.484375 19.1875 25 
Q 14.984375 22.515625 14.984375 16.5 
Q 14.984375 11.71875 18.140625 8.90625 
Q 21.296875 6.109375 26.703125 6.109375 
Q 34.1875 6.109375 38.703125 11.40625 
Q 43.21875 16.703125 43.21875 25.484375 
L 43.21875 27.484375 
z
M 52.203125 31.203125 
L 52.203125 0 
L 43.21875 0 
L 43.21875 8.296875 
Q 40.140625 3.328125 35.546875 0.953125 
Q 30.953125 -1.421875 24.3125 -1.421875 
Q 15.921875 -1.421875 10.953125 3.296875 
Q 6 8.015625 6 15.921875 
Q 6 25.140625 12.171875 29.828125 
Q 18.359375 34.515625 30.609375 34.515625 
L 43.21875 34.515625 
L 43.21875 35.40625 
Q 43.21875 41.609375 39.140625 45 
Q 35.0625 48.390625 27.6875 48.390625 
Q 23 48.390625 18.546875 47.265625 
Q 14.109375 46.140625 10.015625 43.890625 
L 10.015625 52.203125 
Q 14.9375 54.109375 19.578125 55.046875 
Q 24.21875 56 28.609375 56 
Q 40.484375 56 46.34375 49.84375 
Q 52.203125 43.703125 52.203125 31.203125 
z
" id="DejaVuSans-61"/>
      <path d="M 44.28125 53.078125 
L 44.28125 44.578125 
Q 40.484375 46.53125 36.375 47.5 
Q 32.28125 48.484375 27.875 48.484375 
Q 21.1875 48.484375 17.84375 46.4375 
Q 14.5 44.390625 14.5 40.28125 
Q 14.5 37.15625 16.890625 35.375 
Q 19.28125 33.59375 26.515625 31.984375 
L 29.59375 31.296875 
Q 39.15625 29.25 43.1875 25.515625 
Q 47.21875 21.78125 47.21875 15.09375 
Q 47.21875 7.46875 41.1875 3.015625 
Q 35.15625 -1.421875 24.609375 -1.421875 
Q 20.21875 -1.421875 15.453125 -0.5625 
Q 10.6875 0.296875 5.421875 2 
L 5.421875 11.28125 
Q 10.40625 8.6875 15.234375 7.390625 
Q 20.0625 6.109375 24.8125 6.109375 
Q 31.15625 6.109375 34.5625 8.28125 
Q 37.984375 10.453125 37.984375 14.40625 
Q 37.984375 18.0625 35.515625 20.015625 
Q 33.0625 21.96875 24.703125 23.78125 
L 21.578125 24.515625 
Q 13.234375 26.265625 9.515625 29.90625 
Q 5.8125 33.546875 5.8125 39.890625 
Q 5.8125 47.609375 11.28125 51.796875 
Q 16.75 56 26.8125 56 
Q 31.78125 56 36.171875 55.265625 
Q 40.578125 54.546875 44.28125 53.078125 
z
" id="DejaVuSans-73"/>
      <path d="M 25.390625 72.90625 
L 33.6875 72.90625 
L 8.296875 -9.28125 
L 0 -9.28125 
z
" id="DejaVuSans-2f"/>
      <path d="M 45.40625 46.390625 
L 45.40625 75.984375 
L 54.390625 75.984375 
L 54.390625 0 
L 45.40625 0 
L 45.40625 8.203125 
Q 42.578125 3.328125 38.25 0.953125 
Q 33.9375 -1.421875 27.875 -1.421875 
Q 17.96875 -1.421875 11.734375 6.484375 
Q 5.515625 14.40625 5.515625 27.296875 
Q 5.515625 40.1875 11.734375 48.09375 
Q 17.96875 56 27.875 56 
Q 33.9375 56 38.25 53.625 
Q 42.578125 51.265625 45.40625 46.390625 
z
M 14.796875 27.296875 
Q 14.796875 17.390625 18.875 11.75 
Q 22.953125 6.109375 30.078125 6.109375 
Q 37.203125 6.109375 41.296875 11.75 
Q 45.40625 17.390625 45.40625 27.296875 
Q 45.40625 37.203125 41.296875 42.84375 
Q 37.203125 48.484375 30.078125 48.484375 
Q 22.953125 48.484375 18.875 42.84375 
Q 14.796875 37.203125 14.796875 27.296875 
z
" id="DejaVuSans-64"/>
      <path d="M 9.421875 54.6875 
L 18.40625 54.6875 
L 18.40625 0 
L 9.421875 0 
z
M 9.421875 75.984375 
L 18.40625 75.984375 
L 18.40625 64.59375 
L 9.421875 64.59375 
z
" id="DejaVuSans-69"/>
      <path d="M 52 44.1875 
Q 55.375 50.25 60.0625 53.125 
Q 64.75 56 71.09375 56 
Q 79.640625 56 84.28125 50.015625 
Q 88.921875 44.046875 88.921875 33.015625 
L 88.921875 0 
L 79.890625 0 
L 79.890625 32.71875 
Q 79.890625 40.578125 77.09375 44.375 
Q 74.3125 48.1875 68.609375 48.1875 
Q 61.625 48.1875 57.5625 43.546875 
Q 53.515625 38.921875 53.515625 30.90625 
L 53.515625 0 
L 44.484375 0 
L 44.484375 32.71875 
Q 44.484375 40.625 41.703125 44.40625 
Q 38.921875 48.1875 33.109375 48.1875 
Q 26.21875 48.1875 22.15625 43.53125 
Q 18.109375 38.875 18.109375 30.90625 
L 18.109375 0 
L 9.078125 0 
L 9.078125 54.6875 
L 18.109375 54.6875 
L 18.109375 46.1875 
Q 21.1875 51.21875 25.484375 53.609375 
Q 29.78125 56 35.6875 56 
Q 41.65625 56 45.828125 52.96875 
Q 50 49.953125 52 44.1875 
z
" id="DejaVuSans-6d"/>
      <path d="M 54.890625 33.015625 
L 54.890625 0 
L 45.90625 0 
L 45.90625 32.71875 
Q 45.90625 40.484375 42.875 44.328125 
Q 39.84375 48.1875 33.796875 48.1875 
Q 26.515625 48.1875 22.3125 43.546875 
Q 18.109375 38.921875 18.109375 30.90625 
L 18.109375 0 
L 9.078125 0 
L 9.078125 54.6875 
L 18.109375 54.6875 
L 18.109375 46.1875 
Q 21.34375 51.125 25.703125 53.5625 
Q 30.078125 56 35.796875 56 
Q 45.21875 56 50.046875 50.171875 
Q 54.890625 44.34375 54.890625 33.015625 
z
" id="DejaVuSans-6e"/>
      <path d="M 8.015625 75.875 
L 15.828125 75.875 
Q 23.140625 64.359375 26.78125 53.3125 
Q 30.421875 42.28125 30.421875 31.390625 
Q 30.421875 20.453125 26.78125 9.375 
Q 23.140625 -1.703125 15.828125 -13.1875 
L 8.015625 -13.1875 
Q 14.5 -2 17.703125 9.0625 
Q 20.90625 20.125 20.90625 31.390625 
Q 20.90625 42.671875 17.703125 53.65625 
Q 14.5 64.65625 8.015625 75.875 
z
" id="DejaVuSans-29"/>
     </defs>
     <g transform="translate(73.803219 338.153594)scale(0.17 -0.17)">
      <use xlink:href="#DejaVuSans-6c"/>
      <use x="27.783203" xlink:href="#DejaVuSans-6f"/>
      <use x="88.964844" xlink:href="#DejaVuSans-67"/>
      <use x="152.441406" xlink:href="#DejaVuSans-31"/>
      <use x="216.064453" xlink:href="#DejaVuSans-30"/>
      <use x="279.6875" xlink:href="#DejaVuSans-28"/>
      <use x="318.701172" xlink:href="#DejaVuSans-23"/>
      <use x="402.490234" xlink:href="#DejaVuSans-20"/>
      <use x="434.277344" xlink:href="#DejaVuSans-66"/>
      <use x="469.404297" xlink:href="#DejaVuSans-2d"/>
      <use x="505.488281" xlink:href="#DejaVuSans-65"/>
      <use x="567.011719" xlink:href="#DejaVuSans-76"/>
      <use x="626.191406" xlink:href="#DejaVuSans-61"/>
      <use x="687.470703" xlink:href="#DejaVuSans-6c"/>
      <use x="715.253906" xlink:href="#DejaVuSans-73"/>
      <use x="767.353516" xlink:href="#DejaVuSans-20"/>
      <use x="799.140625" xlink:href="#DejaVuSans-2f"/>
      <use x="832.832031" xlink:href="#DejaVuSans-20"/>
      <use x="864.619141" xlink:href="#DejaVuSans-64"/>
      <use x="928.095703" xlink:href="#DejaVuSans-69"/>
      <use x="955.878906" xlink:href="#DejaVuSans-6d"/>
      <use x="1053.291016" xlink:href="#DejaVuSans-65"/>
      <use x="1114.814453" xlink:href="#DejaVuSans-6e"/>
      <use x="1178.193359" xlink:href="#DejaVuSans-73"/>
      <use x="1230.292969" xlink:href="#DejaVuSans-69"/>
      <use x="1258.076172" xlink:href="#DejaVuSans-6f"/>
      <use x="1319.257812" xlink:href="#DejaVuSans-6e"/>
      <use x="1382.636719" xlink:href="#DejaVuSans-29"/>
     </g>
    </g>
   </g>
   <g id="matplotlib.axis_2">
    <g id="ytick_1">
     <g id="line2d_29">
      <path clip-path="url(#pc5eddf1060)" d="M 56.12 294.88 
L 333.168 294.88 
" style="fill:none;stroke:#b0b0b0;stroke-linecap:square;stroke-width:0.8;"/>
     </g>
     <g id="line2d_30">
      <defs>
       <path d="M 0 0 
L -3.5 0 
" id="m45ed17774d" style="stroke:#000000;stroke-width:0.8;"/>
      </defs>
      <g>
       <use style="stroke:#000000;stroke-width:0.8;" x="56.12" xlink:href="#m45ed17774d" y="294.88"/>
      </g>
     </g>
     <g id="text_6">
      <!-- 0.0 -->
      <defs>
       <path d="M 10.6875 12.40625 
L 21 12.40625 
L 21 0 
L 10.6875 0 
z
" id="DejaVuSans-2e"/>
      </defs>
      <g transform="translate(23.675 300.95875)scale(0.16 -0.16)">
       <use xlink:href="#DejaVuSans-30"/>
       <use x="63.623047" xlink:href="#DejaVuSans-2e"/>
       <use x="95.410156" xlink:href="#DejaVuSans-30"/>
      </g>
     </g>
    </g>
    <g id="ytick_2">
     <g id="line2d_31">
      <path clip-path="url(#pc5eddf1060)" d="M 56.12 237.843411 
L 333.168 237.843411 
" style="fill:none;stroke:#b0b0b0;stroke-linecap:square;stroke-width:0.8;"/>
     </g>
     <g id="line2d_32">
      <g>
       <use style="stroke:#000000;stroke-width:0.8;" x="56.12" xlink:href="#m45ed17774d" y="237.843411"/>
      </g>
     </g>
     <g id="text_7">
      <!-- 0.2 -->
      <g transform="translate(23.675 243.922161)scale(0.16 -0.16)">
       <use xlink:href="#DejaVuSans-30"/>
       <use x="63.623047" xlink:href="#DejaVuSans-2e"/>
       <use x="95.410156" xlink:href="#DejaVuSans-32"/>
      </g>
     </g>
    </g>
    <g id="ytick_3">
     <g id="line2d_33">
      <path clip-path="url(#pc5eddf1060)" d="M 56.12 180.806823 
L 333.168 180.806823 
" style="fill:none;stroke:#b0b0b0;stroke-linecap:square;stroke-width:0.8;"/>
     </g>
     <g id="line2d_34">
      <g>
       <use style="stroke:#000000;stroke-width:0.8;" x="56.12" xlink:href="#m45ed17774d" y="180.806823"/>
      </g>
     </g>
     <g id="text_8">
      <!-- 0.4 -->
      <g transform="translate(23.675 186.885573)scale(0.16 -0.16)">
       <use xlink:href="#DejaVuSans-30"/>
       <use x="63.623047" xlink:href="#DejaVuSans-2e"/>
       <use x="95.410156" xlink:href="#DejaVuSans-34"/>
      </g>
     </g>
    </g>
    <g id="ytick_4">
     <g id="line2d_35">
      <path clip-path="url(#pc5eddf1060)" d="M 56.12 123.770234 
L 333.168 123.770234 
" style="fill:none;stroke:#b0b0b0;stroke-linecap:square;stroke-width:0.8;"/>
     </g>
     <g id="line2d_36">
      <g>
       <use style="stroke:#000000;stroke-width:0.8;" x="56.12" xlink:href="#m45ed17774d" y="123.770234"/>
      </g>
     </g>
     <g id="text_9">
      <!-- 0.6 -->
      <g transform="translate(23.675 129.848984)scale(0.16 -0.16)">
       <use xlink:href="#DejaVuSans-30"/>
       <use x="63.623047" xlink:href="#DejaVuSans-2e"/>
       <use x="95.410156" xlink:href="#DejaVuSans-36"/>
      </g>
     </g>
    </g>
    <g id="ytick_5">
     <g id="line2d_37">
      <path clip-path="url(#pc5eddf1060)" d="M 56.12 66.733646 
L 333.168 66.733646 
" style="fill:none;stroke:#b0b0b0;stroke-linecap:square;stroke-width:0.8;"/>
     </g>
     <g id="line2d_38">
      <g>
       <use style="stroke:#000000;stroke-width:0.8;" x="56.12" xlink:href="#m45ed17774d" y="66.733646"/>
      </g>
     </g>
     <g id="text_10">
      <!-- 0.8 -->
      <defs>
       <path d="M 31.78125 34.625 
Q 24.75 34.625 20.71875 30.859375 
Q 16.703125 27.09375 16.703125 20.515625 
Q 16.703125 13.921875 20.71875 10.15625 
Q 24.75 6.390625 31.78125 6.390625 
Q 38.8125 6.390625 42.859375 10.171875 
Q 46.921875 13.96875 46.921875 20.515625 
Q 46.921875 27.09375 42.890625 30.859375 
Q 38.875 34.625 31.78125 34.625 
z
M 21.921875 38.8125 
Q 15.578125 40.375 12.03125 44.71875 
Q 8.5 49.078125 8.5 55.328125 
Q 8.5 64.0625 14.71875 69.140625 
Q 20.953125 74.21875 31.78125 74.21875 
Q 42.671875 74.21875 48.875 69.140625 
Q 55.078125 64.0625 55.078125 55.328125 
Q 55.078125 49.078125 51.53125 44.71875 
Q 48 40.375 41.703125 38.8125 
Q 48.828125 37.15625 52.796875 32.3125 
Q 56.78125 27.484375 56.78125 20.515625 
Q 56.78125 9.90625 50.3125 4.234375 
Q 43.84375 -1.421875 31.78125 -1.421875 
Q 19.734375 -1.421875 13.25 4.234375 
Q 6.78125 9.90625 6.78125 20.515625 
Q 6.78125 27.484375 10.78125 32.3125 
Q 14.796875 37.15625 21.921875 38.8125 
z
M 18.3125 54.390625 
Q 18.3125 48.734375 21.84375 45.5625 
Q 25.390625 42.390625 31.78125 42.390625 
Q 38.140625 42.390625 41.71875 45.5625 
Q 45.3125 48.734375 45.3125 54.390625 
Q 45.3125 60.0625 41.71875 63.234375 
Q 38.140625 66.40625 31.78125 66.40625 
Q 25.390625 66.40625 21.84375 63.234375 
Q 18.3125 60.0625 18.3125 54.390625 
z
" id="DejaVuSans-38"/>
      </defs>
      <g transform="translate(23.675 72.812396)scale(0.16 -0.16)">
       <use xlink:href="#DejaVuSans-30"/>
       <use x="63.623047" xlink:href="#DejaVuSans-2e"/>
       <use x="95.410156" xlink:href="#DejaVuSans-38"/>
      </g>
     </g>
    </g>
    <g id="ytick_6">
     <g id="line2d_39">
      <path clip-path="url(#pc5eddf1060)" d="M 56.12 9.697057 
L 333.168 9.697057 
" style="fill:none;stroke:#b0b0b0;stroke-linecap:square;stroke-width:0.8;"/>
     </g>
     <g id="line2d_40">
      <g>
       <use style="stroke:#000000;stroke-width:0.8;" x="56.12" xlink:href="#m45ed17774d" y="9.697057"/>
      </g>
     </g>
     <g id="text_11">
      <!-- 1.0 -->
      <g transform="translate(23.675 15.775807)scale(0.16 -0.16)">
       <use xlink:href="#DejaVuSans-31"/>
       <use x="63.623047" xlink:href="#DejaVuSans-2e"/>
       <use x="95.410156" xlink:href="#DejaVuSans-30"/>
      </g>
     </g>
    </g>
    <g id="text_12">
     <!-- Fraction of function,target pairs -->
     <defs>
      <path d="M 9.8125 72.90625 
L 51.703125 72.90625 
L 51.703125 64.59375 
L 19.671875 64.59375 
L 19.671875 43.109375 
L 48.578125 43.109375 
L 48.578125 34.8125 
L 19.671875 34.8125 
L 19.671875 0 
L 9.8125 0 
z
" id="DejaVuSans-46"/>
      <path d="M 41.109375 46.296875 
Q 39.59375 47.171875 37.8125 47.578125 
Q 36.03125 48 33.890625 48 
Q 26.265625 48 22.1875 43.046875 
Q 18.109375 38.09375 18.109375 28.8125 
L 18.109375 0 
L 9.078125 0 
L 9.078125 54.6875 
L 18.109375 54.6875 
L 18.109375 46.1875 
Q 20.953125 51.171875 25.484375 53.578125 
Q 30.03125 56 36.53125 56 
Q 37.453125 56 38.578125 55.875 
Q 39.703125 55.765625 41.0625 55.515625 
z
" id="DejaVuSans-72"/>
      <path d="M 48.78125 52.59375 
L 48.78125 44.1875 
Q 44.96875 46.296875 41.140625 47.34375 
Q 37.3125 48.390625 33.40625 48.390625 
Q 24.65625 48.390625 19.8125 42.84375 
Q 14.984375 37.3125 14.984375 27.296875 
Q 14.984375 17.28125 19.8125 11.734375 
Q 24.65625 6.203125 33.40625 6.203125 
Q 37.3125 6.203125 41.140625 7.25 
Q 44.96875 8.296875 48.78125 10.40625 
L 48.78125 2.09375 
Q 45.015625 0.34375 40.984375 -0.53125 
Q 36.96875 -1.421875 32.421875 -1.421875 
Q 20.0625 -1.421875 12.78125 6.34375 
Q 5.515625 14.109375 5.515625 27.296875 
Q 5.515625 40.671875 12.859375 48.328125 
Q 20.21875 56 33.015625 56 
Q 37.15625 56 41.109375 55.140625 
Q 45.0625 54.296875 48.78125 52.59375 
z
" id="DejaVuSans-63"/>
      <path d="M 18.3125 70.21875 
L 18.3125 54.6875 
L 36.8125 54.6875 
L 36.8125 47.703125 
L 18.3125 47.703125 
L 18.3125 18.015625 
Q 18.3125 11.328125 20.140625 9.421875 
Q 21.96875 7.515625 27.59375 7.515625 
L 36.8125 7.515625 
L 36.8125 0 
L 27.59375 0 
Q 17.1875 0 13.234375 3.875 
Q 9.28125 7.765625 9.28125 18.015625 
L 9.28125 47.703125 
L 2.6875 47.703125 
L 2.6875 54.6875 
L 9.28125 54.6875 
L 9.28125 70.21875 
z
" id="DejaVuSans-74"/>
      <path d="M 8.5 21.578125 
L 8.5 54.6875 
L 17.484375 54.6875 
L 17.484375 21.921875 
Q 17.484375 14.15625 20.5 10.265625 
Q 23.53125 6.390625 29.59375 6.390625 
Q 36.859375 6.390625 41.078125 11.03125 
Q 45.3125 15.671875 45.3125 23.6875 
L 45.3125 54.6875 
L 54.296875 54.6875 
L 54.296875 0 
L 45.3125 0 
L 45.3125 8.40625 
Q 42.046875 3.421875 37.71875 1 
Q 33.40625 -1.421875 27.6875 -1.421875 
Q 18.265625 -1.421875 13.375 4.4375 
Q 8.5 10.296875 8.5 21.578125 
z
M 31.109375 56 
z
" id="DejaVuSans-75"/>
      <path d="M 11.71875 12.40625 
L 22.015625 12.40625 
L 22.015625 4 
L 14.015625 -11.625 
L 7.71875 -11.625 
L 11.71875 4 
z
" id="DejaVuSans-2c"/>
      <path d="M 18.109375 8.203125 
L 18.109375 -20.796875 
L 9.078125 -20.796875 
L 9.078125 54.6875 
L 18.109375 54.6875 
L 18.109375 46.390625 
Q 20.953125 51.265625 25.265625 53.625 
Q 29.59375 56 35.59375 56 
Q 45.5625 56 51.78125 48.09375 
Q 58.015625 40.1875 58.015625 27.296875 
Q 58.015625 14.40625 51.78125 6.484375 
Q 45.5625 -1.421875 35.59375 -1.421875 
Q 29.59375 -1.421875 25.265625 0.953125 
Q 20.953125 3.328125 18.109375 8.203125 
z
M 48.6875 27.296875 
Q 48.6875 37.203125 44.609375 42.84375 
Q 40.53125 48.484375 33.40625 48.484375 
Q 26.265625 48.484375 22.1875 42.84375 
Q 18.109375 37.203125 18.109375 27.296875 
Q 18.109375 17.390625 22.1875 11.75 
Q 26.265625 6.109375 33.40625 6.109375 
Q 40.53125 6.109375 44.609375 11.75 
Q 48.6875 17.390625 48.6875 27.296875 
z
" id="DejaVuSans-70"/>
     </defs>
     <g transform="translate(16.139531 286.001989)rotate(-90)scale(0.17 -0.17)">
      <use xlink:href="#DejaVuSans-46"/>
      <use x="57.410156" xlink:href="#DejaVuSans-72"/>
      <use x="98.523438" xlink:href="#DejaVuSans-61"/>
      <use x="159.802734" xlink:href="#DejaVuSans-63"/>
      <use x="214.783203" xlink:href="#DejaVuSans-74"/>
      <use x="253.992188" xlink:href="#DejaVuSans-69"/>
      <use x="281.775391" xlink:href="#DejaVuSans-6f"/>
      <use x="342.957031" xlink:href="#DejaVuSans-6e"/>
      <use x="406.335938" xlink:href="#DejaVuSans-20"/>
      <use x="438.123047" xlink:href="#DejaVuSans-6f"/>
      <use x="499.304688" xlink:href="#DejaVuSans-66"/>
      <use x="534.509766" xlink:href="#DejaVuSans-20"/>
      <use x="566.296875" xlink:href="#DejaVuSans-66"/>
      <use x="601.501953" xlink:href="#DejaVuSans-75"/>
      <use x="664.880859" xlink:href="#DejaVuSans-6e"/>
      <use x="728.259766" xlink:href="#DejaVuSans-63"/>
      <use x="783.240234" xlink:href="#DejaVuSans-74"/>
      <use x="822.449219" xlink:href="#DejaVuSans-69"/>
      <use x="850.232422" xlink:href="#DejaVuSans-6f"/>
      <use x="911.414062" xlink:href="#DejaVuSans-6e"/>
      <use x="974.792969" xlink:href="#DejaVuSans-2c"/>
      <use x="1006.580078" xlink:href="#DejaVuSans-74"/>
      <use x="1045.789062" xlink:href="#DejaVuSans-61"/>
      <use x="1107.068359" xlink:href="#DejaVuSans-72"/>
      <use x="1148.166016" xlink:href="#DejaVuSans-67"/>
      <use x="1211.642578" xlink:href="#DejaVuSans-65"/>
      <use x="1273.166016" xlink:href="#DejaVuSans-74"/>
      <use x="1312.375" xlink:href="#DejaVuSans-20"/>
      <use x="1344.162109" xlink:href="#DejaVuSans-70"/>
      <use x="1407.638672" xlink:href="#DejaVuSans-61"/>
      <use x="1468.917969" xlink:href="#DejaVuSans-69"/>
      <use x="1496.701172" xlink:href="#DejaVuSans-72"/>
      <use x="1537.814453" xlink:href="#DejaVuSans-73"/>
     </g>
    </g>
   </g>
   <g id="line2d_41">
    <defs>
     <path d="M 0 1.5 
C 0.397805 1.5 0.77937 1.341951 1.06066 1.06066 
C 1.341951 0.77937 1.5 0.397805 1.5 0 
C 1.5 -0.397805 1.341951 -0.77937 1.06066 -1.06066 
C 0.77937 -1.341951 0.397805 -1.5 0 -1.5 
C -0.397805 -1.5 -0.77937 -1.341951 -1.06066 -1.06066 
C -1.341951 -0.77937 -1.5 -0.397805 -1.5 0 
C -1.5 0.397805 -1.341951 0.77937 -1.06066 1.06066 
C -0.77937 1.341951 -0.397805 1.5 0 1.5 
z
" id="mdec4a2609f" style="stroke:#f5deb3;"/>
    </defs>
    <g>
     <use style="fill:#f5deb3;stroke:#f5deb3;" x="328.17278" xlink:href="#mdec4a2609f" y="9.697057"/>
     <use style="fill:#f5deb3;stroke:#f5deb3;" x="328.17278" xlink:href="#mdec4a2609f" y="9.697057"/>
    </g>
   </g>
   <g id="line2d_42">
    <defs>
     <path d="M 0 1.5 
C 0.397805 1.5 0.77937 1.341951 1.06066 1.06066 
C 1.341951 0.77937 1.5 0.397805 1.5 0 
C 1.5 -0.397805 1.341951 -0.77937 1.06066 -1.06066 
C 0.77937 -1.341951 0.397805 -1.5 0 -1.5 
C -0.397805 -1.5 -0.77937 -1.341951 -1.06066 -1.06066 
C -1.341951 -0.77937 -1.5 -0.397805 -1.5 0 
C -1.5 0.397805 -1.341951 0.77937 -1.06066 1.06066 
C -0.77937 1.341951 -0.397805 1.5 0 1.5 
z
" id="m9fbf06743a" style="stroke:#000080;"/>
    </defs>
    <g>
     <use style="fill:#000080;stroke:#000080;" x="216.969604" xlink:href="#m9fbf06743a" y="267.619866"/>
     <use style="fill:#000080;stroke:#000080;" x="216.969604" xlink:href="#m9fbf06743a" y="267.619866"/>
    </g>
   </g>
   <g id="line2d_43">
    <path d="M 16.541714 294.88 
L 16.541714 287.00485 
L 88.814625 286.911653 
L 88.814625 286.888354 
L 93.105847 286.795157 
L 93.105847 286.748558 
L 94.26507 286.655361 
L 94.26507 286.632062 
L 95.525534 286.538865 
L 95.525534 286.515566 
L 98.688305 286.422369 
L 98.688305 286.399069 
L 99.395756 286.329172 
L 99.395756 286.282573 
L 100.728876 286.189376 
L 100.728876 286.142777 
L 101.358566 286.07288 
L 101.358566 286.026281 
L 101.966002 285.933084 
L 101.966002 285.839887 
L 102.436953 285.769989 
L 102.436953 285.723391 
L 102.895343 285.630194 
L 102.895343 285.606895 
L 103.341826 285.513697 
L 103.451658 285.467099 
L 103.669239 285.397201 
L 103.669239 285.327303 
L 104.201437 285.280705 
L 104.305927 285.140909 
L 104.615641 285.094311 
L 104.717651 285.001114 
L 105.119742 284.931216 
L 105.119742 284.884617 
L 105.512642 284.81472 
L 105.60948 284.674924 
L 105.896762 284.581727 
L 105.991465 284.511829 
L 107.000154 284.418632 
L 107.088985 284.372034 
L 107.783569 284.325435 
L 107.783569 284.255537 
L 108.120612 284.16234 
L 108.120612 284.139041 
L 108.451173 284.045844 
L 108.451173 284.022545 
L 109.093814 283.929348 
L 109.17248 283.882749 
L 110.959921 283.812851 
L 111.030511 283.742954 
L 112.055982 283.649757 
L 112.122219 283.579859 
L 112.770924 283.509961 
L 112.834468 283.440063 
L 113.939832 283.346866 
L 113.939832 283.323567 
L 115.420563 283.23037 
L 115.420563 283.183771 
L 115.798351 283.113874 
L 115.904782 283.020677 
L 116.220179 282.974078 
L 116.220179 282.90418 
L 116.682681 282.834283 
L 116.682681 282.764385 
L 117.280607 282.671188 
L 117.280607 282.647888 
L 117.715785 282.554691 
L 117.715785 282.531392 
L 118.046801 282.461494 
L 118.046801 282.414896 
L 118.371562 282.321699 
L 118.371562 282.2751 
L 118.645127 282.205203 
L 118.645127 282.158604 
L 118.958878 282.088706 
L 119.003236 281.97221 
L 119.354037 281.879013 
L 119.354037 281.855714 
L 119.909246 281.762517 
L 119.909246 281.739217 
L 120.200938 281.66932 
L 120.283378 281.599422 
L 120.447081 281.506225 
L 120.487764 281.436327 
L 120.689748 281.34313 
L 120.769881 281.226634 
L 121.665528 281.133437 
L 121.665528 281.110137 
L 122.480659 281.04024 
L 122.588877 280.923743 
L 122.979949 280.830546 
L 123.015063 280.783948 
L 123.396663 280.71405 
L 123.396663 280.667451 
L 124.266312 280.574254 
L 124.331421 280.527656 
L 125.125128 280.434459 
L 125.187069 280.38786 
L 125.523811 280.294663 
L 125.523811 280.271364 
L 126.090357 280.178167 
L 126.178129 280.108269 
L 126.410019 280.015072 
L 126.467507 279.945174 
L 127.362076 279.851977 
L 127.362076 279.828678 
L 127.92481 279.735481 
L 128.003717 279.665583 
L 128.212383 279.572386 
L 128.212383 279.549087 
L 128.418546 279.502488 
L 128.418546 279.432591 
L 128.973066 279.339394 
L 128.973066 279.292795 
L 129.890654 279.199598 
L 129.984454 279.1297 
L 130.98381 279.036503 
L 131.071844 278.966605 
L 131.823497 278.873408 
L 131.823497 278.850109 
L 132.402015 278.756912 
L 132.503304 278.687014 
L 133.234845 278.593817 
L 133.234845 278.570518 
L 133.917927 278.477321 
L 133.917927 278.454022 
L 134.964358 278.360825 
L 134.964358 278.337525 
L 135.801327 278.244328 
L 135.801327 278.221029 
L 137.008324 278.127832 
L 137.008324 278.104533 
L 137.723669 278.011336 
L 137.723669 277.988036 
L 138.353038 277.894839 
L 138.353038 277.87154 
L 138.652226 277.778343 
L 138.7227 277.731745 
L 139.371405 277.638548 
L 139.479425 277.56865 
L 139.733284 277.475453 
L 139.733284 277.452153 
L 140.178407 277.358956 
L 140.178407 277.335657 
L 140.899714 277.24246 
L 140.998571 277.195862 
L 141.734219 277.102665 
L 141.828403 277.009468 
L 142.575104 276.916271 
L 142.664803 276.846373 
L 143.062757 276.753176 
L 143.062757 276.729876 
L 143.590024 276.636679 
L 143.590024 276.61338 
L 144.816844 276.543482 
L 144.885776 276.473585 
L 146.007999 276.380388 
L 146.035596 276.333789 
L 146.658408 276.240592 
L 146.658408 276.170694 
L 147.199415 276.100796 
L 147.25944 276.030899 
L 148.192385 275.937702 
L 148.192385 275.914402 
L 149.874805 275.821205 
L 149.98473 275.774607 
L 150.818844 275.68141 
L 150.853603 275.634811 
L 151.299196 275.564913 
L 151.393676 275.495016 
L 152.060318 275.401819 
L 152.150717 275.308622 
L 153.121023 275.215425 
L 153.175716 275.168826 
L 153.583418 275.075629 
L 153.68385 275.02903 
L 154.342587 274.959133 
L 154.342587 274.912534 
L 155.080505 274.819337 
L 155.080505 274.796038 
L 156.097943 274.702841 
L 156.097943 274.679542 
L 156.42748 274.586345 
L 156.517631 274.516447 
L 156.878469 274.42325 
L 156.932191 274.353352 
L 157.398793 274.260155 
L 157.398793 274.236856 
L 158.282115 274.143659 
L 158.336125 274.073761 
L 159.491733 273.980564 
L 159.495934 273.933965 
L 159.816371 273.840768 
L 159.836973 273.79417 
L 161.477471 273.700973 
L 161.529796 273.631075 
L 162.356699 273.537878 
L 162.452458 273.46798 
L 162.729615 273.374783 
L 162.833705 273.328184 
L 163.634578 273.234987 
L 163.716923 273.16509 
L 164.129249 273.071893 
L 164.129249 273.048593 
L 164.675467 272.955396 
L 164.780805 272.885499 
L 165.884341 272.792301 
L 165.942177 272.722404 
L 167.571503 272.629207 
L 167.678826 272.582608 
L 168.068408 272.489411 
L 168.083708 272.442813 
L 168.62807 272.349616 
L 168.62807 272.326316 
L 169.651377 272.233119 
L 169.651377 272.20982 
L 170.171555 272.139922 
L 170.254869 272.023426 
L 170.876931 271.930229 
L 170.876931 271.90693 
L 172.250422 271.813733 
L 172.324266 271.743835 
L 172.857593 271.650638 
L 172.857593 271.627338 
L 173.367374 271.534141 
L 173.367374 271.510842 
L 173.590824 271.417645 
L 173.649923 271.301149 
L 174.244256 271.207952 
L 174.244256 271.184653 
L 174.671685 271.091456 
L 174.749685 271.044857 
L 175.843442 270.95166 
L 175.929236 270.905061 
L 176.339287 270.811864 
L 176.339287 270.788565 
L 177.114591 270.695368 
L 177.189782 270.64877 
L 178.247452 270.555573 
L 178.340326 270.485675 
L 179.54735 270.392478 
L 179.577413 270.345879 
L 180.518847 270.252682 
L 180.599021 270.206084 
L 181.621375 270.112887 
L 181.678097 270.01969 
L 183.367439 269.926493 
L 183.441651 269.856595 
L 184.549351 269.763398 
L 184.549351 269.740098 
L 186.105886 269.646901 
L 186.21363 269.577004 
L 186.740724 269.483807 
L 186.740724 269.460507 
L 187.837027 269.36731 
L 187.837027 269.344011 
L 188.113436 269.250814 
L 188.134881 269.180916 
L 189.380153 269.087719 
L 189.380153 269.06442 
L 190.680789 268.971223 
L 190.680789 268.947924 
L 191.651547 268.854727 
L 191.665127 268.808128 
L 194.233775 268.714931 
L 194.235445 268.668332 
L 195.743664 268.575135 
L 195.743664 268.551836 
L 196.689957 268.458639 
L 196.71744 268.388741 
L 197.566695 268.295544 
L 197.566695 268.272245 
L 199.671945 268.179048 
L 199.671945 268.155749 
L 202.508575 268.062552 
L 202.508575 268.039252 
L 206.900373 267.946055 
L 206.900373 267.922756 
L 209.481634 267.829559 
L 209.481634 267.80626 
L 211.158381 267.713063 
L 211.158381 267.689764 
L 333.168 267.619866 
L 333.168 267.619866 
" style="fill:none;stroke:#000080;stroke-linecap:square;stroke-width:1.5;"/>
   </g>
   <g id="line2d_44">
    <defs>
     <path d="M 0 6 
C 1.591219 6 3.117479 5.367802 4.242641 4.242641 
C 5.367802 3.117479 6 1.591219 6 0 
C 6 -1.591219 5.367802 -3.117479 4.242641 -4.242641 
C 3.117479 -5.367802 1.591219 -6 0 -6 
C -1.591219 -6 -3.117479 -5.367802 -4.242641 -4.242641 
C -5.367802 -3.117479 -6 -1.591219 -6 0 
C -6 1.591219 -5.367802 3.117479 -4.242641 4.242641 
C -3.117479 5.367802 -1.591219 6 0 6 
z
" id="m7cad521621" style="stroke:#000080;stroke-width:1.5;"/>
    </defs>
    <g>
     <use style="fill:none;stroke:#000080;stroke-width:1.5;" x="109.483595" xlink:href="#m7cad521621" y="283.85945"/>
     <use style="fill:none;stroke:#000080;stroke-width:1.5;" x="184.662415" xlink:href="#m7cad521621" y="269.740098"/>
     <use style="fill:none;stroke:#000080;stroke-width:1.5;" x="216.969604" xlink:href="#m7cad521621" y="267.643165"/>
     <use style="fill:none;stroke:#000080;stroke-width:1.5;" x="216.969604" xlink:href="#m7cad521621" y="267.619866"/>
     <use style="fill:none;stroke:#000080;stroke-width:1.5;" x="216.969604" xlink:href="#m7cad521621" y="267.619866"/>
     <use style="fill:none;stroke:#000080;stroke-width:1.5;" x="333.168" xlink:href="#m7cad521621" y="267.619866"/>
    </g>
   </g>
   <g id="line2d_45">
    <path style="fill:none;stroke:#000080;stroke-linecap:square;stroke-width:1.5;"/>
    <g/>
   </g>
   <g id="line2d_46">
    <path clip-path="url(#pc5eddf1060)" d="M 147.190823 276.100796 
" style="fill:none;stroke:#000080;stroke-linecap:square;stroke-width:1.5;"/>
    <defs>
     <path d="M -12 12 
L 12 -12 
M -12 -12 
L 12 12 
" id="mfe8898b652" style="stroke:#000080;"/>
    </defs>
    <g clip-path="url(#pc5eddf1060)">
     <use style="fill:#000080;stroke:#000080;" x="147.190823" xlink:href="#mfe8898b652" y="276.100796"/>
    </g>
   </g>
   <g id="line2d_47">
    <defs>
     <path d="M 0 1.5 
C 0.397805 1.5 0.77937 1.341951 1.06066 1.06066 
C 1.341951 0.77937 1.5 0.397805 1.5 0 
C 1.5 -0.397805 1.341951 -0.77937 1.06066 -1.06066 
C 0.77937 -1.341951 0.397805 -1.5 0 -1.5 
C -0.397805 -1.5 -0.77937 -1.341951 -1.06066 -1.06066 
C -1.341951 -0.77937 -1.5 -0.397805 -1.5 0 
C -1.5 0.397805 -1.341951 0.77937 -1.06066 1.06066 
C -0.77937 1.341951 -0.397805 1.5 0 1.5 
z
" id="mde11095583" style="stroke:#ff00ff;"/>
    </defs>
    <g>
     <use style="fill:#ff00ff;stroke:#ff00ff;" x="221.276596" xlink:href="#mde11095583" y="267.619866"/>
     <use style="fill:#ff00ff;stroke:#ff00ff;" x="221.276596" xlink:href="#mde11095583" y="267.619866"/>
    </g>
   </g>
   <g id="line2d_48">
    <path d="M 16.541714 294.88 
L 16.541714 287.214543 
L 87.481505 287.121346 
L 87.481505 287.098047 
L 92.07628 287.00485 
L 92.07628 286.981551 
L 94.077214 286.888354 
L 94.077214 286.841755 
L 95.525534 286.748558 
L 95.525534 286.725259 
L 97.950482 286.655361 
L 97.950482 286.608763 
L 98.832144 286.562164 
L 98.832144 286.492266 
L 99.395756 286.445668 
L 99.395756 286.37577 
L 100.856673 286.282573 
L 100.856673 286.259274 
L 101.604122 286.166077 
L 101.604122 286.142777 
L 102.20309 286.04958 
L 102.20309 285.979683 
L 102.552701 285.886486 
L 102.552701 285.839887 
L 103.008056 285.74669 
L 103.008056 285.676792 
L 103.560793 285.606895 
L 103.669239 285.513697 
L 104.305927 285.4205 
L 104.409787 285.327303 
L 104.615641 285.280705 
L 104.717651 285.164209 
L 105.119742 285.094311 
L 105.119742 285.001114 
L 105.512642 284.931216 
L 105.60948 284.81472 
L 105.896762 284.744822 
L 105.991465 284.674924 
L 106.730875 284.581727 
L 106.821105 284.535129 
L 107.698266 284.441932 
L 107.783569 284.395333 
L 108.369127 284.348734 
L 108.451173 284.255537 
L 108.85563 284.16234 
L 108.85563 284.139041 
L 110.014853 284.045844 
L 110.014853 284.022545 
L 111.030511 283.929348 
L 111.030511 283.906049 
L 111.922736 283.812851 
L 111.922736 283.789552 
L 112.57887 283.696355 
L 112.57887 283.673056 
L 112.897778 283.579859 
L 112.960856 283.53326 
L 114.351204 283.440063 
L 114.351204 283.416764 
L 115.420563 283.323567 
L 115.420563 283.276969 
L 115.798351 283.207071 
L 115.904782 283.113874 
L 116.220179 283.043976 
L 116.324038 282.950779 
L 116.529892 282.857582 
L 116.529892 282.834283 
L 117.571946 282.741086 
L 117.620026 282.671188 
L 117.952873 282.577991 
L 118.046801 282.508093 
L 118.186736 282.438195 
L 118.279397 282.368297 
L 118.599834 282.2751 
L 118.6903 282.181903 
L 119.003236 282.088706 
L 119.09161 282.018808 
L 119.179531 281.948911 
L 119.179531 281.902312 
L 119.569706 281.809115 
L 119.569706 281.785816 
L 120.034863 281.692619 
L 120.076533 281.64602 
L 120.365424 281.552823 
L 120.447081 281.506225 
L 120.64954 281.413028 
L 120.689748 281.249933 
L 121.320594 281.156736 
L 121.320594 281.133437 
L 122.262156 281.063539 
L 122.262156 281.01694 
L 122.55288 280.923743 
L 122.588877 280.877145 
L 123.154809 280.783948 
L 123.258878 280.71405 
L 124.266312 280.620853 
L 124.363883 280.550955 
L 125.279564 280.457758 
L 125.371564 280.41116 
L 125.734717 280.364561 
L 125.794504 280.271364 
L 126.178129 280.178167 
L 126.265455 280.061671 
L 126.410019 279.968474 
L 126.467507 279.851977 
L 127.524746 279.75878 
L 127.524746 279.735481 
L 128.056122 279.642284 
L 128.13443 279.572386 
L 128.571561 279.502488 
L 128.67282 279.385992 
L 129.268157 279.292795 
L 129.268157 279.269496 
L 130.17053 279.176299 
L 130.17053 279.152999 
L 131.311639 279.059802 
L 131.311639 279.036503 
L 132.42232 278.943306 
L 132.42232 278.920007 
L 133.079291 278.82681 
L 133.079291 278.780211 
L 133.617681 278.687014 
L 133.693236 278.640416 
L 134.841393 278.547219 
L 134.841393 278.523919 
L 135.447604 278.430722 
L 135.515543 278.360825 
L 136.278134 278.267628 
L 136.278134 278.244328 
L 137.008324 278.151131 
L 137.008324 278.127832 
L 137.648969 278.034635 
L 137.723669 277.988036 
L 138.652226 277.894839 
L 138.708629 277.824942 
L 139.357855 277.755044 
L 139.357855 277.708445 
L 140.009571 277.615248 
L 140.009571 277.591949 
L 140.473113 277.498752 
L 140.473113 277.475453 
L 140.998571 277.382256 
L 141.084606 277.312358 
L 141.734219 277.219161 
L 141.84014 277.172562 
L 142.405645 277.079365 
L 142.43967 277.009468 
L 142.687155 276.916271 
L 142.687155 276.892971 
L 143.247524 276.799774 
L 143.247524 276.776475 
L 144.346715 276.683278 
L 144.377111 276.636679 
L 145.616908 276.543482 
L 145.616908 276.520183 
L 146.245718 276.450285 
L 146.245718 276.403687 
L 146.658408 276.31049 
L 146.658408 276.240592 
L 147.199415 276.170694 
L 147.199415 276.077497 
L 148.561358 275.9843 
L 148.664213 275.914402 
L 149.660268 275.821205 
L 149.660268 275.797906 
L 150.839708 275.704709 
L 150.860547 275.65811 
L 151.434009 275.564913 
L 151.527754 275.495016 
L 151.832219 275.401819 
L 151.832219 275.378519 
L 152.807768 275.285322 
L 152.807768 275.262023 
L 153.326732 275.168826 
L 153.422692 275.05233 
L 153.713277 274.959133 
L 153.801259 274.912534 
L 154.911319 274.819337 
L 154.911319 274.796038 
L 155.68349 274.702841 
L 155.777617 274.586345 
L 156.301482 274.493147 
L 156.377192 274.446549 
L 156.602341 274.353352 
L 156.602341 274.330053 
L 157.398793 274.236856 
L 157.47928 274.166958 
L 158.537164 274.073761 
L 158.643431 274.027162 
L 159.10937 273.933965 
L 159.177971 273.887367 
L 159.504333 273.817469 
L 159.504333 273.79417 
L 159.504333 273.77087 
L 160.594233 273.677673 
L 160.645384 273.631075 
L 161.342186 273.537878 
L 161.379872 273.491279 
L 162.420598 273.398082 
L 162.508953 273.328184 
L 162.974949 273.234987 
L 162.974949 273.211688 
L 163.498673 273.14179 
L 163.598221 273.048593 
L 164.126041 272.955396 
L 164.215648 272.908798 
L 164.93455 272.815601 
L 165.026142 272.745703 
L 166.759629 272.652506 
L 166.759629 272.629207 
L 167.389359 272.53601 
L 167.389359 272.51271 
L 168.311576 272.419513 
L 168.311576 272.396214 
L 168.982437 272.303017 
L 168.982437 272.279718 
L 169.63974 272.186521 
L 169.646723 272.139922 
L 170.275074 272.046725 
L 170.275074 272.023426 
L 170.874764 271.930229 
L 170.948275 271.837032 
L 171.782082 271.743835 
L 171.782082 271.720536 
L 172.196335 271.627338 
L 172.248422 271.510842 
L 172.75302 271.417645 
L 172.83441 271.347747 
L 173.594524 271.25455 
L 173.690436 271.161353 
L 173.866112 271.068156 
L 173.866112 271.044857 
L 174.806661 270.95166 
L 174.806661 270.928361 
L 176.340864 270.835164 
L 176.340864 270.811864 
L 177.170264 270.718667 
L 177.170264 270.695368 
L 177.72166 270.602171 
L 177.72166 270.578872 
L 179.162381 270.485675 
L 179.162381 270.462375 
L 179.792841 270.369178 
L 179.792841 270.345879 
L 181.294787 270.252682 
L 181.331383 270.206084 
L 181.82883 270.112887 
L 181.82883 270.089587 
L 182.695593 269.99639 
L 182.70757 269.926493 
L 183.543563 269.833295 
L 183.553928 269.786697 
L 185.010546 269.6935 
L 185.010546 269.670201 
L 186.392009 269.577004 
L 186.392009 269.553704 
L 188.376862 269.460507 
L 188.431563 269.36731 
L 189.76346 269.274113 
L 189.874295 269.204215 
L 191.4046 269.111018 
L 191.4046 269.087719 
L 193.536785 268.994522 
L 193.536785 268.971223 
L 194.642491 268.878026 
L 194.656618 268.831427 
L 195.61829 268.73823 
L 195.72785 268.668332 
L 196.875221 268.575135 
L 196.875221 268.551836 
L 198.196096 268.458639 
L 198.196096 268.43534 
L 199.241426 268.342143 
L 199.324009 268.272245 
L 202.12984 268.179048 
L 202.12984 268.155749 
L 203.829647 268.062552 
L 203.832513 268.015953 
L 206.01923 267.922756 
L 206.01923 267.899457 
L 207.372065 267.80626 
L 207.372065 267.782961 
L 220.419492 267.689764 
L 220.419492 267.666464 
L 333.168 267.619866 
L 333.168 267.619866 
" style="fill:none;stroke:#ff00ff;stroke-linecap:square;stroke-width:1.5;"/>
   </g>
   <g id="line2d_49">
    <defs>
     <path d="M -0 8.485281 
L 5.091169 0 
L 0 -8.485281 
L -5.091169 -0 
z
" id="m9b68c18f71" style="stroke:#ff00ff;stroke-linejoin:miter;stroke-width:1.5;"/>
    </defs>
    <g>
     <use style="fill:none;stroke:#ff00ff;stroke-linejoin:miter;stroke-width:1.5;" x="138.367404" xlink:href="#m9b68c18f71" y="277.988036"/>
     <use style="fill:none;stroke:#ff00ff;stroke-linejoin:miter;stroke-width:1.5;" x="196.875221" xlink:href="#m9b68c18f71" y="268.575135"/>
     <use style="fill:none;stroke:#ff00ff;stroke-linejoin:miter;stroke-width:1.5;" x="221.276596" xlink:href="#m9b68c18f71" y="267.619866"/>
     <use style="fill:none;stroke:#ff00ff;stroke-linejoin:miter;stroke-width:1.5;" x="221.276596" xlink:href="#m9b68c18f71" y="267.619866"/>
     <use style="fill:none;stroke:#ff00ff;stroke-linejoin:miter;stroke-width:1.5;" x="333.168" xlink:href="#m9b68c18f71" y="267.619866"/>
    </g>
   </g>
   <g id="line2d_50">
    <path style="fill:none;stroke:#ff00ff;stroke-linecap:square;stroke-width:1.5;"/>
    <g/>
   </g>
   <g id="line2d_51">
    <path clip-path="url(#pc5eddf1060)" d="M 147.190823 276.170694 
" style="fill:none;stroke:#ff00ff;stroke-linecap:square;stroke-width:1.5;"/>
    <defs>
     <path d="M -12 12 
L 12 -12 
M -12 -12 
L 12 12 
" id="m102efc2306" style="stroke:#ff00ff;"/>
    </defs>
    <g clip-path="url(#pc5eddf1060)">
     <use style="fill:#ff00ff;stroke:#ff00ff;" x="147.190823" xlink:href="#m102efc2306" y="276.170694"/>
    </g>
   </g>
   <g id="line2d_52">
    <path d="M 333.168 267.619866 
L 363.64328 289.176341 
" style="fill:none;stroke:#ff00ff;stroke-linecap:square;stroke-width:1.5;"/>
    <g>
     <use style="fill:none;stroke:#ff00ff;stroke-linejoin:miter;stroke-width:1.5;" x="333.168" xlink:href="#m9b68c18f71" y="267.619866"/>
     <use style="fill:none;stroke:#ff00ff;stroke-linejoin:miter;stroke-width:1.5;" x="363.64328" xlink:href="#m9b68c18f71" y="289.176341"/>
    </g>
   </g>
   <g id="line2d_53">
    <path d="M 333.168 267.619866 
L 363.64328 152.288529 
" style="fill:none;stroke:#000080;stroke-linecap:square;stroke-width:1.5;"/>
    <g>
     <use style="fill:none;stroke:#000080;stroke-width:1.5;" x="333.168" xlink:href="#m7cad521621" y="267.619866"/>
     <use style="fill:none;stroke:#000080;stroke-width:1.5;" x="363.64328" xlink:href="#m7cad521621" y="152.288529"/>
    </g>
   </g>
   <g id="line2d_54">
    <path d="M 333.168 294.88 
L 333.168 9.697057 
" style="fill:none;stroke:#000000;stroke-linecap:square;stroke-width:1.5;"/>
   </g>
   <g id="patch_3">
    <path d="M 56.12 294.88 
L 56.12 6.845228 
" style="fill:none;stroke:#000000;stroke-linecap:square;stroke-linejoin:miter;stroke-width:0.8;"/>
   </g>
   <g id="patch_4">
    <path d="M 333.168 294.88 
L 333.168 6.845228 
" style="fill:none;stroke:#000000;stroke-linecap:square;stroke-linejoin:miter;stroke-width:0.8;"/>
   </g>
   <g id="patch_5">
    <path d="M 56.12 294.88 
L 333.168 294.88 
" style="fill:none;stroke:#000000;stroke-linecap:square;stroke-linejoin:miter;stroke-width:0.8;"/>
   </g>
   <g id="patch_6">
    <path d="M 56.12 6.845228 
L 333.168 6.845228 
" style="fill:none;stroke:#000000;stroke-linecap:square;stroke-linejoin:miter;stroke-width:0.8;"/>
   </g>
   <g id="text_13">
    <!-- scipy-opt -->
    <defs>
     <path d="M 32.171875 -5.078125 
Q 28.375 -14.84375 24.75 -17.8125 
Q 21.140625 -20.796875 15.09375 -20.796875 
L 7.90625 -20.796875 
L 7.90625 -13.28125 
L 13.1875 -13.28125 
Q 16.890625 -13.28125 18.9375 -11.515625 
Q 21 -9.765625 23.484375 -3.21875 
L 25.09375 0.875 
L 2.984375 54.6875 
L 12.5 54.6875 
L 29.59375 11.921875 
L 46.6875 54.6875 
L 56.203125 54.6875 
z
" id="DejaVuSans-79"/>
    </defs>
    <g transform="translate(369.18424 293.867279)scale(0.17 -0.17)">
     <use xlink:href="#DejaVuSans-73"/>
     <use x="52.099609" xlink:href="#DejaVuSans-63"/>
     <use x="107.080078" xlink:href="#DejaVuSans-69"/>
     <use x="134.863281" xlink:href="#DejaVuSans-70"/>
     <use x="198.339844" xlink:href="#DejaVuSans-79"/>
     <use x="257.503906" xlink:href="#DejaVuSans-2d"/>
     <use x="293.603516" xlink:href="#DejaVuSans-6f"/>
     <use x="354.785156" xlink:href="#DejaVuSans-70"/>
     <use x="418.261719" xlink:href="#DejaVuSans-74"/>
    </g>
   </g>
   <g id="text_14">
    <!-- scipyAlg -->
    <defs>
     <path d="M 34.1875 63.1875 
L 20.796875 26.90625 
L 47.609375 26.90625 
z
M 28.609375 72.90625 
L 39.796875 72.90625 
L 67.578125 0 
L 57.328125 0 
L 50.6875 18.703125 
L 17.828125 18.703125 
L 11.1875 0 
L 0.78125 0 
z
" id="DejaVuSans-41"/>
    </defs>
    <g transform="translate(369.18424 156.979466)scale(0.17 -0.17)">
     <use xlink:href="#DejaVuSans-73"/>
     <use x="52.099609" xlink:href="#DejaVuSans-63"/>
     <use x="107.080078" xlink:href="#DejaVuSans-69"/>
     <use x="134.863281" xlink:href="#DejaVuSans-70"/>
     <use x="198.339844" xlink:href="#DejaVuSans-79"/>
     <use x="257.519531" xlink:href="#DejaVuSans-41"/>
     <use x="325.927734" xlink:href="#DejaVuSans-6c"/>
     <use x="353.710938" xlink:href="#DejaVuSans-67"/>
    </g>
   </g>
   <g id="text_15">
    <!-- best 2009 -->
    <defs>
     <path d="M 48.6875 27.296875 
Q 48.6875 37.203125 44.609375 42.84375 
Q 40.53125 48.484375 33.40625 48.484375 
Q 26.265625 48.484375 22.1875 42.84375 
Q 18.109375 37.203125 18.109375 27.296875 
Q 18.109375 17.390625 22.1875 11.75 
Q 26.265625 6.109375 33.40625 6.109375 
Q 40.53125 6.109375 44.609375 11.75 
Q 48.6875 17.390625 48.6875 27.296875 
z
M 18.109375 46.390625 
Q 20.953125 51.265625 25.265625 53.625 
Q 29.59375 56 35.59375 56 
Q 45.5625 56 51.78125 48.09375 
Q 58.015625 40.1875 58.015625 27.296875 
Q 58.015625 14.40625 51.78125 6.484375 
Q 45.5625 -1.421875 35.59375 -1.421875 
Q 29.59375 -1.421875 25.265625 0.953125 
Q 20.953125 3.328125 18.109375 8.203125 
L 18.109375 0 
L 9.078125 0 
L 9.078125 75.984375 
L 18.109375 75.984375 
z
" id="DejaVuSans-62"/>
     <path d="M 10.984375 1.515625 
L 10.984375 10.5 
Q 14.703125 8.734375 18.5 7.8125 
Q 22.3125 6.890625 25.984375 6.890625 
Q 35.75 6.890625 40.890625 13.453125 
Q 46.046875 20.015625 46.78125 33.40625 
Q 43.953125 29.203125 39.59375 26.953125 
Q 35.25 24.703125 29.984375 24.703125 
Q 19.046875 24.703125 12.671875 31.3125 
Q 6.296875 37.9375 6.296875 49.421875 
Q 6.296875 60.640625 12.9375 67.421875 
Q 19.578125 74.21875 30.609375 74.21875 
Q 43.265625 74.21875 49.921875 64.515625 
Q 56.59375 54.828125 56.59375 36.375 
Q 56.59375 19.140625 48.40625 8.859375 
Q 40.234375 -1.421875 26.421875 -1.421875 
Q 22.703125 -1.421875 18.890625 -0.6875 
Q 15.09375 0.046875 10.984375 1.515625 
z
M 30.609375 32.421875 
Q 37.25 32.421875 41.125 36.953125 
Q 45.015625 41.5 45.015625 49.421875 
Q 45.015625 57.28125 41.125 61.84375 
Q 37.25 66.40625 30.609375 66.40625 
Q 23.96875 66.40625 20.09375 61.84375 
Q 16.21875 57.28125 16.21875 49.421875 
Q 16.21875 41.5 20.09375 36.953125 
Q 23.96875 32.421875 30.609375 32.421875 
z
" id="DejaVuSans-39"/>
    </defs>
    <g transform="translate(369.18424 20.091654)scale(0.17 -0.17)">
     <use xlink:href="#DejaVuSans-62"/>
     <use x="63.476562" xlink:href="#DejaVuSans-65"/>
     <use x="125" xlink:href="#DejaVuSans-73"/>
     <use x="177.099609" xlink:href="#DejaVuSans-74"/>
     <use x="216.308594" xlink:href="#DejaVuSans-20"/>
     <use x="248.095703" xlink:href="#DejaVuSans-32"/>
     <use x="311.71875" xlink:href="#DejaVuSans-30"/>
     <use x="375.341797" xlink:href="#DejaVuSans-30"/>
     <use x="438.964844" xlink:href="#DejaVuSans-39"/>
    </g>
   </g>
   <g id="text_16">
    <!-- bbob f1-f24, 10-D -->
    <defs>
     <path d="M 19.671875 64.796875 
L 19.671875 8.109375 
L 31.59375 8.109375 
Q 46.6875 8.109375 53.6875 14.9375 
Q 60.6875 21.78125 60.6875 36.53125 
Q 60.6875 51.171875 53.6875 57.984375 
Q 46.6875 64.796875 31.59375 64.796875 
z
M 9.8125 72.90625 
L 30.078125 72.90625 
Q 51.265625 72.90625 61.171875 64.09375 
Q 71.09375 55.28125 71.09375 36.53125 
Q 71.09375 17.671875 61.125 8.828125 
Q 51.171875 0 30.078125 0 
L 9.8125 0 
z
" id="DejaVuSans-44"/>
    </defs>
    <g transform="translate(58.89048 17.475982)scale(0.102 -0.102)">
     <use xlink:href="#DejaVuSans-62"/>
     <use x="63.476562" xlink:href="#DejaVuSans-62"/>
     <use x="126.953125" xlink:href="#DejaVuSans-6f"/>
     <use x="188.134766" xlink:href="#DejaVuSans-62"/>
     <use x="251.611328" xlink:href="#DejaVuSans-20"/>
     <use x="283.398438" xlink:href="#DejaVuSans-66"/>
     <use x="318.603516" xlink:href="#DejaVuSans-31"/>
     <use x="382.226562" xlink:href="#DejaVuSans-2d"/>
     <use x="418.310547" xlink:href="#DejaVuSans-66"/>
     <use x="453.515625" xlink:href="#DejaVuSans-32"/>
     <use x="517.138672" xlink:href="#DejaVuSans-34"/>
     <use x="580.761719" xlink:href="#DejaVuSans-2c"/>
     <use x="612.548828" xlink:href="#DejaVuSans-20"/>
     <use x="644.335938" xlink:href="#DejaVuSans-31"/>
     <use x="707.958984" xlink:href="#DejaVuSans-30"/>
     <use x="771.582031" xlink:href="#DejaVuSans-2d"/>
     <use x="807.666016" xlink:href="#DejaVuSans-44"/>
    </g>
    <!-- 51 targets: 100..1e-08 -->
    <defs>
     <path d="M 10.796875 72.90625 
L 49.515625 72.90625 
L 49.515625 64.59375 
L 19.828125 64.59375 
L 19.828125 46.734375 
Q 21.96875 47.46875 24.109375 47.828125 
Q 26.265625 48.1875 28.421875 48.1875 
Q 40.625 48.1875 47.75 41.5 
Q 54.890625 34.8125 54.890625 23.390625 
Q 54.890625 11.625 47.5625 5.09375 
Q 40.234375 -1.421875 26.90625 -1.421875 
Q 22.3125 -1.421875 17.546875 -0.640625 
Q 12.796875 0.140625 7.71875 1.703125 
L 7.71875 11.625 
Q 12.109375 9.234375 16.796875 8.0625 
Q 21.484375 6.890625 26.703125 6.890625 
Q 35.15625 6.890625 40.078125 11.328125 
Q 45.015625 15.765625 45.015625 23.390625 
Q 45.015625 31 40.078125 35.4375 
Q 35.15625 39.890625 26.703125 39.890625 
Q 22.75 39.890625 18.8125 39.015625 
Q 14.890625 38.140625 10.796875 36.28125 
z
" id="DejaVuSans-35"/>
     <path d="M 11.71875 12.40625 
L 22.015625 12.40625 
L 22.015625 0 
L 11.71875 0 
z
M 11.71875 51.703125 
L 22.015625 51.703125 
L 22.015625 39.3125 
L 11.71875 39.3125 
z
" id="DejaVuSans-3a"/>
    </defs>
    <g transform="translate(58.89048 28.89775)scale(0.102 -0.102)">
     <use xlink:href="#DejaVuSans-35"/>
     <use x="63.623047" xlink:href="#DejaVuSans-31"/>
     <use x="127.246094" xlink:href="#DejaVuSans-20"/>
     <use x="159.033203" xlink:href="#DejaVuSans-74"/>
     <use x="198.242188" xlink:href="#DejaVuSans-61"/>
     <use x="259.521484" xlink:href="#DejaVuSans-72"/>
     <use x="300.619141" xlink:href="#DejaVuSans-67"/>
     <use x="364.095703" xlink:href="#DejaVuSans-65"/>
     <use x="425.619141" xlink:href="#DejaVuSans-74"/>
     <use x="464.828125" xlink:href="#DejaVuSans-73"/>
     <use x="516.927734" xlink:href="#DejaVuSans-3a"/>
     <use x="550.619141" xlink:href="#DejaVuSans-20"/>
     <use x="582.40625" xlink:href="#DejaVuSans-31"/>
     <use x="646.029297" xlink:href="#DejaVuSans-30"/>
     <use x="709.652344" xlink:href="#DejaVuSans-30"/>
     <use x="773.275391" xlink:href="#DejaVuSans-2e"/>
     <use x="805.0625" xlink:href="#DejaVuSans-2e"/>
     <use x="836.849609" xlink:href="#DejaVuSans-31"/>
     <use x="900.472656" xlink:href="#DejaVuSans-65"/>
     <use x="961.996094" xlink:href="#DejaVuSans-2d"/>
     <use x="998.080078" xlink:href="#DejaVuSans-30"/>
     <use x="1061.703125" xlink:href="#DejaVuSans-38"/>
    </g>
    <!-- 15 instances -->
    <g transform="translate(58.89048 40.319519)scale(0.102 -0.102)">
     <use xlink:href="#DejaVuSans-31"/>
     <use x="63.623047" xlink:href="#DejaVuSans-35"/>
     <use x="127.246094" xlink:href="#DejaVuSans-20"/>
     <use x="159.033203" xlink:href="#DejaVuSans-69"/>
     <use x="186.816406" xlink:href="#DejaVuSans-6e"/>
     <use x="250.195312" xlink:href="#DejaVuSans-73"/>
     <use x="302.294922" xlink:href="#DejaVuSans-74"/>
     <use x="341.503906" xlink:href="#DejaVuSans-61"/>
     <use x="402.783203" xlink:href="#DejaVuSans-6e"/>
     <use x="466.162109" xlink:href="#DejaVuSans-63"/>
     <use x="521.142578" xlink:href="#DejaVuSans-65"/>
     <use x="582.666016" xlink:href="#DejaVuSans-73"/>
    </g>
   </g>
   <g id="text_17">
    <!-- v0.0.0 -->
    <g style="fill:#808080;" transform="translate(178.96275 289.919965)scale(0.1 -0.1)">
     <use xlink:href="#DejaVuSans-76"/>
     <use x="59.179688" xlink:href="#DejaVuSans-30"/>
     <use x="122.802734" xlink:href="#DejaVuSans-2e"/>
     <use x="154.589844" xlink:href="#DejaVuSans-30"/>
     <use x="218.212891" xlink:href="#DejaVuSans-2e"/>
     <use x="250" xlink:href="#DejaVuSans-30"/>
    </g>
   </g>
  </g>
 </g>
 <defs>
  <clipPath id="pc5eddf1060">
   <rect height="288.034772" width="277.048" x="56.12" y="6.845228"/>
  </clipPath>
 </defs>
</svg>
