<?xml version="1.0" encoding="utf-8" standalone="no"?>
<!DOCTYPE svg PUBLIC "-//W3C//DTD SVG 1.1//EN"
  "http://www.w3.org/Graphics/SVG/1.1/DTD/svg11.dtd">
<!-- Created with matplotlib (http://matplotlib.org/) -->
<svg height="345pt" version="1.1" viewBox="0 0 460 345" width="460pt" xmlns="http://www.w3.org/2000/svg" xmlns:xlink="http://www.w3.org/1999/xlink">
 <defs>
  <style type="text/css">
*{stroke-linecap:butt;stroke-linejoin:round;}
  </style>
 </defs>
 <g id="figure_1">
  <g id="patch_1">
   <path d="M 0 345.6 
L 460.8 345.6 
L 460.8 0 
L 0 0 
z
" style="fill:#ffffff;"/>
  </g>
  <g id="axes_1">
   <g id="patch_2">
    <path d="M 56.12 294.88 
L 333.168 294.88 
L 333.168 6.845228 
L 56.12 6.845228 
z
" style="fill:#ffffff;"/>
   </g>
   <g id="line2d_1">
    <path d="M 28.455965 294.88 
L 28.455965 284.81472 
L 47.339607 284.81472 
L 47.339607 283.696355 
L 52.284468 283.696355 
L 52.284468 281.459626 
L 66.223248 281.459626 
L 66.223248 280.341262 
L 69.672503 280.341262 
L 69.672503 279.222897 
L 75.003641 279.222897 
L 75.003641 273.631075 
L 76.11297 273.631075 
L 76.11297 269.157617 
L 79.948502 269.157617 
L 79.948502 268.039252 
L 87.481505 268.039252 
L 87.481505 266.920888 
L 88.027221 266.920888 
L 88.027221 265.802523 
L 88.556144 265.802523 
L 88.556144 264.684159 
L 90.522701 264.684159 
L 90.522701 263.565795 
L 92.287186 263.565795 
L 92.287186 262.44743 
L 94.996612 262.44743 
L 94.996612 261.329066 
L 101.23446 261.329066 
L 101.23446 260.210701 
L 101.725597 260.210701 
L 101.725597 259.092337 
L 102.20309 259.092337 
L 102.20309 257.973972 
L 104.615641 257.973972 
L 104.615641 256.855608 
L 105.801534 256.855608 
L 105.801534 255.737243 
L 107.439785 255.737243 
L 107.439785 254.618879 
L 110.457504 254.618879 
L 110.457504 253.500514 
L 110.602556 253.500514 
L 110.602556 252.38215 
L 111.448069 252.38215 
L 111.448069 251.263785 
L 115.798351 251.263785 
L 115.798351 250.145421 
L 118.371562 250.145421 
L 118.371562 249.027056 
L 122.944762 249.027056 
L 122.944762 247.908692 
L 128.698042 247.908692 
L 128.698042 246.790327 
L 128.997851 246.790327 
L 128.997851 245.671963 
L 130.828657 245.671963 
L 130.828657 244.553598 
L 135.884484 244.553598 
L 135.884484 243.435234 
L 140.862496 243.435234 
L 140.862496 242.316869 
L 144.07071 242.316869 
L 144.07071 241.198505 
L 144.417555 241.198505 
L 144.417555 240.08014 
L 145.626324 240.08014 
L 145.626324 238.961776 
L 145.794933 238.961776 
L 145.832178 236.725047 
L 145.943432 236.725047 
L 145.943432 235.606682 
L 146.090659 235.606682 
L 146.090659 234.488318 
L 146.254795 234.488318 
L 146.254795 233.369954 
L 146.453301 233.369954 
L 146.542779 231.133225 
L 146.684982 231.133225 
L 146.684982 230.01486 
L 146.843566 230.01486 
L 146.896104 227.778131 
L 146.965905 227.778131 
L 146.965905 226.659767 
L 147.276552 226.659767 
L 147.327785 223.304673 
L 147.429795 223.304673 
L 147.497466 221.067944 
L 147.564873 221.067944 
L 147.648761 217.712851 
L 147.698898 217.712851 
L 147.715578 215.476122 
L 147.815319 215.476122 
L 147.864973 212.121028 
L 147.963853 212.121028 
L 147.980278 208.765935 
L 148.078499 208.765935 
L 148.159923 205.410841 
L 148.192385 205.410841 
L 148.273273 202.055748 
L 148.321624 202.055748 
L 148.401907 198.700655 
L 148.433916 198.700655 
L 148.513678 195.345561 
L 149.697448 195.345561 
L 149.697448 194.227197 
L 154.251642 194.227197 
L 154.251642 193.108832 
L 154.612571 193.108832 
L 154.612571 191.990468 
L 155.397975 191.990468 
L 155.504275 189.753739 
L 155.620451 189.753739 
L 155.620451 188.635374 
L 155.798464 188.635374 
L 155.850472 186.398645 
L 156.04668 186.398645 
L 156.138844 181.925187 
L 156.169456 181.925187 
L 156.260967 177.451729 
L 156.311596 177.451729 
L 156.412409 172.978271 
L 156.432501 172.978271 
L 156.542589 166.268085 
L 156.572491 166.268085 
L 156.661886 161.794627 
L 156.691581 161.794627 
L 156.790197 156.202804 
L 156.819671 156.202804 
L 156.927315 149.492617 
L 156.946814 149.492617 
L 156.976021 147.255888 
L 158.6346 147.255888 
L 158.6346 146.137524 
L 170.676452 146.137524 
L 170.676452 145.019159 
L 175.956664 145.019159 
L 175.956664 143.900795 
L 180.353624 143.900795 
L 180.353624 142.78243 
L 190.150412 142.78243 
L 190.150412 141.664066 
L 190.566095 141.664066 
L 190.566095 140.545702 
L 191.286722 140.545702 
L 191.286722 139.427337 
L 192.855631 139.427337 
L 192.855631 138.308973 
L 203.501634 138.308973 
L 203.501634 137.190608 
L 203.751749 137.190608 
L 203.840473 134.953879 
L 204.227628 134.953879 
L 204.227628 133.835515 
L 204.399197 133.835515 
L 204.399197 132.71715 
L 204.599555 132.71715 
L 204.599555 131.598786 
L 204.772897 131.598786 
L 204.858917 129.362057 
L 205.42551 129.362057 
L 205.42551 128.243692 
L 206.481561 128.243692 
L 206.575214 126.006963 
L 206.695882 126.006963 
L 206.764227 123.770234 
L 206.827486 123.770234 
L 206.896909 121.533505 
L 206.972421 121.533505 
L 207.047603 119.296776 
L 207.132975 119.296776 
L 207.190179 115.941683 
L 207.258155 115.941683 
L 207.30662 113.704954 
L 207.374657 113.704954 
L 207.458423 111.468225 
L 207.492949 111.468225 
L 207.548455 109.231496 
L 207.629849 109.231496 
L 207.684407 106.994767 
L 207.752489 106.994767 
L 207.802616 104.758038 
L 207.870232 104.758038 
L 207.933068 102.521309 
L 207.983672 102.521309 
L 208.070006 100.28458 
L 208.131621 100.28458 
L 208.183129 98.047851 
L 208.246804 98.047851 
L 208.246804 96.929487 
L 209.766085 96.929487 
L 209.766085 95.811122 
L 211.059733 95.811122 
L 211.059733 94.692758 
L 212.203016 94.692758 
L 212.203016 93.574393 
L 213.861324 93.574393 
L 213.861324 92.456029 
L 214.655155 92.456029 
L 214.655155 91.337664 
L 214.895098 91.337664 
L 214.895098 90.2193 
L 215.303181 90.2193 
L 215.303181 89.100935 
L 215.539463 89.100935 
L 215.539463 87.982571 
L 215.74549 87.982571 
L 215.74549 86.864206 
L 215.890117 86.864206 
L 215.986178 74.562197 
L 216.027899 74.562197 
L 216.138767 66.733646 
L 216.143747 66.733646 
L 216.197812 56.668365 
L 225.718082 56.668365 
L 225.718082 55.550001 
L 239.617731 55.550001 
L 239.617731 54.431636 
L 247.372203 54.431636 
L 247.381104 52.194907 
L 254.542418 52.194907 
L 254.542685 49.958178 
L 297.718212 49.958178 
L 297.765316 46.603085 
L 300.913621 46.603085 
L 300.913621 45.484721 
L 304.753236 45.484721 
L 304.842834 30.945982 
L 309.788001 30.945982 
L 309.795296 9.697057 
L 333.168 9.697057 
L 333.168 9.697057 
" style="fill:none;stroke:#f5deb3;stroke-linecap:square;stroke-width:4;"/>
   </g>
   <g id="line2d_2">
    <defs>
     <path d="M -0 7.778175 
L 7.778175 0 
L 0 -7.778175 
L -7.778175 -0 
z
" id="m539b00d6e3" style="stroke:#f5deb3;stroke-linejoin:miter;stroke-width:1.5;"/>
    </defs>
    <g>
     <use style="fill:#f5deb3;stroke:#f5deb3;stroke-linejoin:miter;stroke-width:1.5;" x="94.996612" xlink:href="#m539b00d6e3" y="262.44743"/>
     <use style="fill:#f5deb3;stroke:#f5deb3;stroke-linejoin:miter;stroke-width:1.5;" x="148.192385" xlink:href="#m539b00d6e3" y="205.410841"/>
     <use style="fill:#f5deb3;stroke:#f5deb3;stroke-linejoin:miter;stroke-width:1.5;" x="207.684407" xlink:href="#m539b00d6e3" y="108.113132"/>
     <use style="fill:#f5deb3;stroke:#f5deb3;stroke-linejoin:miter;stroke-width:1.5;" x="247.381104" xlink:href="#m539b00d6e3" y="52.194907"/>
     <use style="fill:#f5deb3;stroke:#f5deb3;stroke-linejoin:miter;stroke-width:1.5;" x="309.795296" xlink:href="#m539b00d6e3" y="9.697057"/>
     <use style="fill:#f5deb3;stroke:#f5deb3;stroke-linejoin:miter;stroke-width:1.5;" x="333.168" xlink:href="#m539b00d6e3" y="9.697057"/>
    </g>
   </g>
   <g id="line2d_3">
    <path style="fill:none;stroke:#f5deb3;stroke-linecap:square;stroke-width:4;"/>
    <g/>
   </g>
   <g id="line2d_4">
    <path d="M 333.168 9.697057 
L 363.64328 15.400716 
" style="fill:none;stroke:#f5deb3;stroke-linecap:square;stroke-width:4;"/>
    <g>
     <use style="fill:#f5deb3;stroke:#f5deb3;stroke-linejoin:miter;stroke-width:1.5;" x="333.168" xlink:href="#m539b00d6e3" y="9.697057"/>
     <use style="fill:#f5deb3;stroke:#f5deb3;stroke-linejoin:miter;stroke-width:1.5;" x="363.64328" xlink:href="#m539b00d6e3" y="15.400716"/>
    </g>
   </g>
   <g id="matplotlib.axis_1">
    <g id="xtick_1">
     <g id="line2d_5">
      <path clip-path="url(#p7f431e1378)" d="M 56.12 294.88 
L 56.12 6.845228 
" style="fill:none;stroke:#b0b0b0;stroke-linecap:square;stroke-width:0.8;"/>
     </g>
     <g id="line2d_6">
      <defs>
       <path d="M 0 0 
L 0 3.5 
" id="m9032ee65d7" style="stroke:#000000;stroke-width:0.8;"/>
      </defs>
      <g>
       <use style="stroke:#000000;stroke-width:0.8;" x="56.12" xlink:href="#m9032ee65d7" y="294.88"/>
      </g>
     </g>
     <g id="text_1">
      <!-- 0 -->
      <defs>
       <path d="M 31.78125 66.40625 
Q 24.171875 66.40625 20.328125 58.90625 
Q 16.5 51.421875 16.5 36.375 
Q 16.5 21.390625 20.328125 13.890625 
Q 24.171875 6.390625 31.78125 6.390625 
Q 39.453125 6.390625 43.28125 13.890625 
Q 47.125 21.390625 47.125 36.375 
Q 47.125 51.421875 43.28125 58.90625 
Q 39.453125 66.40625 31.78125 66.40625 
z
M 31.78125 74.21875 
Q 44.046875 74.21875 50.515625 64.515625 
Q 56.984375 54.828125 56.984375 36.375 
Q 56.984375 17.96875 50.515625 8.265625 
Q 44.046875 -1.421875 31.78125 -1.421875 
Q 19.53125 -1.421875 13.0625 8.265625 
Q 6.59375 17.96875 6.59375 36.375 
Q 6.59375 54.828125 13.0625 64.515625 
Q 19.53125 74.21875 31.78125 74.21875 
z
" id="DejaVuSans-30"/>
      </defs>
      <g transform="translate(49.7575 317.076875)scale(0.2 -0.2)">
       <use xlink:href="#DejaVuSans-30"/>
      </g>
     </g>
    </g>
    <g id="xtick_2">
     <g id="line2d_7">
      <path clip-path="url(#p7f431e1378)" d="M 135.276571 294.88 
L 135.276571 6.845228 
" style="fill:none;stroke:#b0b0b0;stroke-linecap:square;stroke-width:0.8;"/>
     </g>
     <g id="line2d_8">
      <g>
       <use style="stroke:#000000;stroke-width:0.8;" x="135.276571" xlink:href="#m9032ee65d7" y="294.88"/>
      </g>
     </g>
     <g id="text_2">
      <!-- 2 -->
      <defs>
       <path d="M 19.1875 8.296875 
L 53.609375 8.296875 
L 53.609375 0 
L 7.328125 0 
L 7.328125 8.296875 
Q 12.9375 14.109375 22.625 23.890625 
Q 32.328125 33.6875 34.8125 36.53125 
Q 39.546875 41.84375 41.421875 45.53125 
Q 43.3125 49.21875 43.3125 52.78125 
Q 43.3125 58.59375 39.234375 62.25 
Q 35.15625 65.921875 28.609375 65.921875 
Q 23.96875 65.921875 18.8125 64.3125 
Q 13.671875 62.703125 7.8125 59.421875 
L 7.8125 69.390625 
Q 13.765625 71.78125 18.9375 73 
Q 24.125 74.21875 28.421875 74.21875 
Q 39.75 74.21875 46.484375 68.546875 
Q 53.21875 62.890625 53.21875 53.421875 
Q 53.21875 48.921875 51.53125 44.890625 
Q 49.859375 40.875 45.40625 35.40625 
Q 44.1875 33.984375 37.640625 27.21875 
Q 31.109375 20.453125 19.1875 8.296875 
z
" id="DejaVuSans-32"/>
      </defs>
      <g transform="translate(128.914071 317.076875)scale(0.2 -0.2)">
       <use xlink:href="#DejaVuSans-32"/>
      </g>
     </g>
    </g>
    <g id="xtick_3">
     <g id="line2d_9">
      <path clip-path="url(#p7f431e1378)" d="M 214.433143 294.88 
L 214.433143 6.845228 
" style="fill:none;stroke:#b0b0b0;stroke-linecap:square;stroke-width:0.8;"/>
     </g>
     <g id="line2d_10">
      <g>
       <use style="stroke:#000000;stroke-width:0.8;" x="214.433143" xlink:href="#m9032ee65d7" y="294.88"/>
      </g>
     </g>
     <g id="text_3">
      <!-- 4 -->
      <defs>
       <path d="M 37.796875 64.3125 
L 12.890625 25.390625 
L 37.796875 25.390625 
z
M 35.203125 72.90625 
L 47.609375 72.90625 
L 47.609375 25.390625 
L 58.015625 25.390625 
L 58.015625 17.1875 
L 47.609375 17.1875 
L 47.609375 0 
L 37.796875 0 
L 37.796875 17.1875 
L 4.890625 17.1875 
L 4.890625 26.703125 
z
" id="DejaVuSans-34"/>
      </defs>
      <g transform="translate(208.070643 317.076875)scale(0.2 -0.2)">
       <use xlink:href="#DejaVuSans-34"/>
      </g>
     </g>
    </g>
    <g id="xtick_4">
     <g id="line2d_11">
      <path clip-path="url(#p7f431e1378)" d="M 293.589714 294.88 
L 293.589714 6.845228 
" style="fill:none;stroke:#b0b0b0;stroke-linecap:square;stroke-width:0.8;"/>
     </g>
     <g id="line2d_12">
      <g>
       <use style="stroke:#000000;stroke-width:0.8;" x="293.589714" xlink:href="#m9032ee65d7" y="294.88"/>
      </g>
     </g>
     <g id="text_4">
      <!-- 6 -->
      <defs>
       <path d="M 33.015625 40.375 
Q 26.375 40.375 22.484375 35.828125 
Q 18.609375 31.296875 18.609375 23.390625 
Q 18.609375 15.53125 22.484375 10.953125 
Q 26.375 6.390625 33.015625 6.390625 
Q 39.65625 6.390625 43.53125 10.953125 
Q 47.40625 15.53125 47.40625 23.390625 
Q 47.40625 31.296875 43.53125 35.828125 
Q 39.65625 40.375 33.015625 40.375 
z
M 52.59375 71.296875 
L 52.59375 62.3125 
Q 48.875 64.0625 45.09375 64.984375 
Q 41.3125 65.921875 37.59375 65.921875 
Q 27.828125 65.921875 22.671875 59.328125 
Q 17.53125 52.734375 16.796875 39.40625 
Q 19.671875 43.65625 24.015625 45.921875 
Q 28.375 48.1875 33.59375 48.1875 
Q 44.578125 48.1875 50.953125 41.515625 
Q 57.328125 34.859375 57.328125 23.390625 
Q 57.328125 12.15625 50.6875 5.359375 
Q 44.046875 -1.421875 33.015625 -1.421875 
Q 20.359375 -1.421875 13.671875 8.265625 
Q 6.984375 17.96875 6.984375 36.375 
Q 6.984375 53.65625 15.1875 63.9375 
Q 23.390625 74.21875 37.203125 74.21875 
Q 40.921875 74.21875 44.703125 73.484375 
Q 48.484375 72.75 52.59375 71.296875 
z
" id="DejaVuSans-36"/>
      </defs>
      <g transform="translate(287.227214 317.076875)scale(0.2 -0.2)">
       <use xlink:href="#DejaVuSans-36"/>
      </g>
     </g>
    </g>
    <g id="xtick_5">
     <g id="line2d_13">
      <path clip-path="url(#p7f431e1378)" d="M 56.12 294.88 
L 56.12 6.845228 
" style="fill:none;stroke:#b0b0b0;stroke-linecap:square;stroke-width:0.8;"/>
     </g>
     <g id="line2d_14">
      <defs>
       <path d="M 0 0 
L 0 2 
" id="m27d743fe0f" style="stroke:#000000;stroke-width:0.6;"/>
      </defs>
      <g>
       <use style="stroke:#000000;stroke-width:0.6;" x="56.12" xlink:href="#m27d743fe0f" y="294.88"/>
      </g>
     </g>
    </g>
    <g id="xtick_6">
     <g id="line2d_15">
      <path clip-path="url(#p7f431e1378)" d="M 95.698286 294.88 
L 95.698286 6.845228 
" style="fill:none;stroke:#b0b0b0;stroke-linecap:square;stroke-width:0.8;"/>
     </g>
     <g id="line2d_16">
      <g>
       <use style="stroke:#000000;stroke-width:0.6;" x="95.698286" xlink:href="#m27d743fe0f" y="294.88"/>
      </g>
     </g>
    </g>
    <g id="xtick_7">
     <g id="line2d_17">
      <path clip-path="url(#p7f431e1378)" d="M 135.276571 294.88 
L 135.276571 6.845228 
" style="fill:none;stroke:#b0b0b0;stroke-linecap:square;stroke-width:0.8;"/>
     </g>
     <g id="line2d_18">
      <g>
       <use style="stroke:#000000;stroke-width:0.6;" x="135.276571" xlink:href="#m27d743fe0f" y="294.88"/>
      </g>
     </g>
    </g>
    <g id="xtick_8">
     <g id="line2d_19">
      <path clip-path="url(#p7f431e1378)" d="M 174.854857 294.88 
L 174.854857 6.845228 
" style="fill:none;stroke:#b0b0b0;stroke-linecap:square;stroke-width:0.8;"/>
     </g>
     <g id="line2d_20">
      <g>
       <use style="stroke:#000000;stroke-width:0.6;" x="174.854857" xlink:href="#m27d743fe0f" y="294.88"/>
      </g>
     </g>
    </g>
    <g id="xtick_9">
     <g id="line2d_21">
      <path clip-path="url(#p7f431e1378)" d="M 214.433143 294.88 
L 214.433143 6.845228 
" style="fill:none;stroke:#b0b0b0;stroke-linecap:square;stroke-width:0.8;"/>
     </g>
     <g id="line2d_22">
      <g>
       <use style="stroke:#000000;stroke-width:0.6;" x="214.433143" xlink:href="#m27d743fe0f" y="294.88"/>
      </g>
     </g>
    </g>
    <g id="xtick_10">
     <g id="line2d_23">
      <path clip-path="url(#p7f431e1378)" d="M 254.011429 294.88 
L 254.011429 6.845228 
" style="fill:none;stroke:#b0b0b0;stroke-linecap:square;stroke-width:0.8;"/>
     </g>
     <g id="line2d_24">
      <g>
       <use style="stroke:#000000;stroke-width:0.6;" x="254.011429" xlink:href="#m27d743fe0f" y="294.88"/>
      </g>
     </g>
    </g>
    <g id="xtick_11">
     <g id="line2d_25">
      <path clip-path="url(#p7f431e1378)" d="M 293.589714 294.88 
L 293.589714 6.845228 
" style="fill:none;stroke:#b0b0b0;stroke-linecap:square;stroke-width:0.8;"/>
     </g>
     <g id="line2d_26">
      <g>
       <use style="stroke:#000000;stroke-width:0.6;" x="293.589714" xlink:href="#m27d743fe0f" y="294.88"/>
      </g>
     </g>
    </g>
    <g id="xtick_12">
     <g id="line2d_27">
      <path clip-path="url(#p7f431e1378)" d="M 333.168 294.88 
L 333.168 6.845228 
" style="fill:none;stroke:#b0b0b0;stroke-linecap:square;stroke-width:0.8;"/>
     </g>
     <g id="line2d_28">
      <g>
       <use style="stroke:#000000;stroke-width:0.6;" x="333.168" xlink:href="#m27d743fe0f" y="294.88"/>
      </g>
     </g>
    </g>
    <g id="text_5">
     <!-- log10(# f-evals / dimension) -->
     <defs>
      <path d="M 9.421875 75.984375 
L 18.40625 75.984375 
L 18.40625 0 
L 9.421875 0 
z
" id="DejaVuSans-6c"/>
      <path d="M 30.609375 48.390625 
Q 23.390625 48.390625 19.1875 42.75 
Q 14.984375 37.109375 14.984375 27.296875 
Q 14.984375 17.484375 19.15625 11.84375 
Q 23.34375 6.203125 30.609375 6.203125 
Q 37.796875 6.203125 41.984375 11.859375 
Q 46.1875 17.53125 46.1875 27.296875 
Q 46.1875 37.015625 41.984375 42.703125 
Q 37.796875 48.390625 30.609375 48.390625 
z
M 30.609375 56 
Q 42.328125 56 49.015625 48.375 
Q 55.71875 40.765625 55.71875 27.296875 
Q 55.71875 13.875 49.015625 6.21875 
Q 42.328125 -1.421875 30.609375 -1.421875 
Q 18.84375 -1.421875 12.171875 6.21875 
Q 5.515625 13.875 5.515625 27.296875 
Q 5.515625 40.765625 12.171875 48.375 
Q 18.84375 56 30.609375 56 
z
" id="DejaVuSans-6f"/>
      <path d="M 45.40625 27.984375 
Q 45.40625 37.75 41.375 43.109375 
Q 37.359375 48.484375 30.078125 48.484375 
Q 22.859375 48.484375 18.828125 43.109375 
Q 14.796875 37.75 14.796875 27.984375 
Q 14.796875 18.265625 18.828125 12.890625 
Q 22.859375 7.515625 30.078125 7.515625 
Q 37.359375 7.515625 41.375 12.890625 
Q 45.40625 18.265625 45.40625 27.984375 
z
M 54.390625 6.78125 
Q 54.390625 -7.171875 48.1875 -13.984375 
Q 42 -20.796875 29.203125 -20.796875 
Q 24.46875 -20.796875 20.265625 -20.09375 
Q 16.0625 -19.390625 12.109375 -17.921875 
L 12.109375 -9.1875 
Q 16.0625 -11.328125 19.921875 -12.34375 
Q 23.78125 -13.375 27.78125 -13.375 
Q 36.625 -13.375 41.015625 -8.765625 
Q 45.40625 -4.15625 45.40625 5.171875 
L 45.40625 9.625 
Q 42.625 4.78125 38.28125 2.390625 
Q 33.9375 0 27.875 0 
Q 17.828125 0 11.671875 7.65625 
Q 5.515625 15.328125 5.515625 27.984375 
Q 5.515625 40.671875 11.671875 48.328125 
Q 17.828125 56 27.875 56 
Q 33.9375 56 38.28125 53.609375 
Q 42.625 51.21875 45.40625 46.390625 
L 45.40625 54.6875 
L 54.390625 54.6875 
z
" id="DejaVuSans-67"/>
      <path d="M 12.40625 8.296875 
L 28.515625 8.296875 
L 28.515625 63.921875 
L 10.984375 60.40625 
L 10.984375 69.390625 
L 28.421875 72.90625 
L 38.28125 72.90625 
L 38.28125 8.296875 
L 54.390625 8.296875 
L 54.390625 0 
L 12.40625 0 
z
" id="DejaVuSans-31"/>
      <path d="M 31 75.875 
Q 24.46875 64.65625 21.28125 53.65625 
Q 18.109375 42.671875 18.109375 31.390625 
Q 18.109375 20.125 21.3125 9.0625 
Q 24.515625 -2 31 -13.1875 
L 23.1875 -13.1875 
Q 15.875 -1.703125 12.234375 9.375 
Q 8.59375 20.453125 8.59375 31.390625 
Q 8.59375 42.28125 12.203125 53.3125 
Q 15.828125 64.359375 23.1875 75.875 
z
" id="DejaVuSans-28"/>
      <path d="M 51.125 44 
L 36.921875 44 
L 32.8125 27.6875 
L 47.125 27.6875 
z
M 43.796875 71.78125 
L 38.71875 51.515625 
L 52.984375 51.515625 
L 58.109375 71.78125 
L 65.921875 71.78125 
L 60.890625 51.515625 
L 76.125 51.515625 
L 76.125 44 
L 58.984375 44 
L 54.984375 27.6875 
L 70.515625 27.6875 
L 70.515625 20.21875 
L 53.078125 20.21875 
L 48 0 
L 40.1875 0 
L 45.21875 20.21875 
L 30.90625 20.21875 
L 25.875 0 
L 18.015625 0 
L 23.09375 20.21875 
L 7.71875 20.21875 
L 7.71875 27.6875 
L 24.90625 27.6875 
L 29 44 
L 13.28125 44 
L 13.28125 51.515625 
L 30.90625 51.515625 
L 35.890625 71.78125 
z
" id="DejaVuSans-23"/>
      <path id="DejaVuSans-20"/>
      <path d="M 37.109375 75.984375 
L 37.109375 68.5 
L 28.515625 68.5 
Q 23.6875 68.5 21.796875 66.546875 
Q 19.921875 64.59375 19.921875 59.515625 
L 19.921875 54.6875 
L 34.71875 54.6875 
L 34.71875 47.703125 
L 19.921875 47.703125 
L 19.921875 0 
L 10.890625 0 
L 10.890625 47.703125 
L 2.296875 47.703125 
L 2.296875 54.6875 
L 10.890625 54.6875 
L 10.890625 58.5 
Q 10.890625 67.625 15.140625 71.796875 
Q 19.390625 75.984375 28.609375 75.984375 
z
" id="DejaVuSans-66"/>
      <path d="M 4.890625 31.390625 
L 31.203125 31.390625 
L 31.203125 23.390625 
L 4.890625 23.390625 
z
" id="DejaVuSans-2d"/>
      <path d="M 56.203125 29.59375 
L 56.203125 25.203125 
L 14.890625 25.203125 
Q 15.484375 15.921875 20.484375 11.0625 
Q 25.484375 6.203125 34.421875 6.203125 
Q 39.59375 6.203125 44.453125 7.46875 
Q 49.3125 8.734375 54.109375 11.28125 
L 54.109375 2.78125 
Q 49.265625 0.734375 44.1875 -0.34375 
Q 39.109375 -1.421875 33.890625 -1.421875 
Q 20.796875 -1.421875 13.15625 6.1875 
Q 5.515625 13.8125 5.515625 26.8125 
Q 5.515625 40.234375 12.765625 48.109375 
Q 20.015625 56 32.328125 56 
Q 43.359375 56 49.78125 48.890625 
Q 56.203125 41.796875 56.203125 29.59375 
z
M 47.21875 32.234375 
Q 47.125 39.59375 43.09375 43.984375 
Q 39.0625 48.390625 32.421875 48.390625 
Q 24.90625 48.390625 20.390625 44.140625 
Q 15.875 39.890625 15.1875 32.171875 
z
" id="DejaVuSans-65"/>
      <path d="M 2.984375 54.6875 
L 12.5 54.6875 
L 29.59375 8.796875 
L 46.6875 54.6875 
L 56.203125 54.6875 
L 35.6875 0 
L 23.484375 0 
z
" id="DejaVuSans-76"/>
      <path d="M 34.28125 27.484375 
Q 23.390625 27.484375 19.1875 25 
Q 14.984375 22.515625 14.984375 16.5 
Q 14.984375 11.71875 18.140625 8.90625 
Q 21.296875 6.109375 26.703125 6.109375 
Q 34.1875 6.109375 38.703125 11.40625 
Q 43.21875 16.703125 43.21875 25.484375 
L 43.21875 27.484375 
z
M 52.203125 31.203125 
L 52.203125 0 
L 43.21875 0 
L 43.21875 8.296875 
Q 40.140625 3.328125 35.546875 0.953125 
Q 30.953125 -1.421875 24.3125 -1.421875 
Q 15.921875 -1.421875 10.953125 3.296875 
Q 6 8.015625 6 15.921875 
Q 6 25.140625 12.171875 29.828125 
Q 18.359375 34.515625 30.609375 34.515625 
L 43.21875 34.515625 
L 43.21875 35.40625 
Q 43.21875 41.609375 39.140625 45 
Q 35.0625 48.390625 27.6875 48.390625 
Q 23 48.390625 18.546875 47.265625 
Q 14.109375 46.140625 10.015625 43.890625 
L 10.015625 52.203125 
Q 14.9375 54.109375 19.578125 55.046875 
Q 24.21875 56 28.609375 56 
Q 40.484375 56 46.34375 49.84375 
Q 52.203125 43.703125 52.203125 31.203125 
z
" id="DejaVuSans-61"/>
      <path d="M 44.28125 53.078125 
L 44.28125 44.578125 
Q 40.484375 46.53125 36.375 47.5 
Q 32.28125 48.484375 27.875 48.484375 
Q 21.1875 48.484375 17.84375 46.4375 
Q 14.5 44.390625 14.5 40.28125 
Q 14.5 37.15625 16.890625 35.375 
Q 19.28125 33.59375 26.515625 31.984375 
L 29.59375 31.296875 
Q 39.15625 29.25 43.1875 25.515625 
Q 47.21875 21.78125 47.21875 15.09375 
Q 47.21875 7.46875 41.1875 3.015625 
Q 35.15625 -1.421875 24.609375 -1.421875 
Q 20.21875 -1.421875 15.453125 -0.5625 
Q 10.6875 0.296875 5.421875 2 
L 5.421875 11.28125 
Q 10.40625 8.6875 15.234375 7.390625 
Q 20.0625 6.109375 24.8125 6.109375 
Q 31.15625 6.109375 34.5625 8.28125 
Q 37.984375 10.453125 37.984375 14.40625 
Q 37.984375 18.0625 35.515625 20.015625 
Q 33.0625 21.96875 24.703125 23.78125 
L 21.578125 24.515625 
Q 13.234375 26.265625 9.515625 29.90625 
Q 5.8125 33.546875 5.8125 39.890625 
Q 5.8125 47.609375 11.28125 51.796875 
Q 16.75 56 26.8125 56 
Q 31.78125 56 36.171875 55.265625 
Q 40.578125 54.546875 44.28125 53.078125 
z
" id="DejaVuSans-73"/>
      <path d="M 25.390625 72.90625 
L 33.6875 72.90625 
L 8.296875 -9.28125 
L 0 -9.28125 
z
" id="DejaVuSans-2f"/>
      <path d="M 45.40625 46.390625 
L 45.40625 75.984375 
L 54.390625 75.984375 
L 54.390625 0 
L 45.40625 0 
L 45.40625 8.203125 
Q 42.578125 3.328125 38.25 0.953125 
Q 33.9375 -1.421875 27.875 -1.421875 
Q 17.96875 -1.421875 11.734375 6.484375 
Q 5.515625 14.40625 5.515625 27.296875 
Q 5.515625 40.1875 11.734375 48.09375 
Q 17.96875 56 27.875 56 
Q 33.9375 56 38.25 53.625 
Q 42.578125 51.265625 45.40625 46.390625 
z
M 14.796875 27.296875 
Q 14.796875 17.390625 18.875 11.75 
Q 22.953125 6.109375 30.078125 6.109375 
Q 37.203125 6.109375 41.296875 11.75 
Q 45.40625 17.390625 45.40625 27.296875 
Q 45.40625 37.203125 41.296875 42.84375 
Q 37.203125 48.484375 30.078125 48.484375 
Q 22.953125 48.484375 18.875 42.84375 
Q 14.796875 37.203125 14.796875 27.296875 
z
" id="DejaVuSans-64"/>
      <path d="M 9.421875 54.6875 
L 18.40625 54.6875 
L 18.40625 0 
L 9.421875 0 
z
M 9.421875 75.984375 
L 18.40625 75.984375 
L 18.40625 64.59375 
L 9.421875 64.59375 
z
" id="DejaVuSans-69"/>
      <path d="M 52 44.1875 
Q 55.375 50.25 60.0625 53.125 
Q 64.75 56 71.09375 56 
Q 79.640625 56 84.28125 50.015625 
Q 88.921875 44.046875 88.921875 33.015625 
L 88.921875 0 
L 79.890625 0 
L 79.890625 32.71875 
Q 79.890625 40.578125 77.09375 44.375 
Q 74.3125 48.1875 68.609375 48.1875 
Q 61.625 48.1875 57.5625 43.546875 
Q 53.515625 38.921875 53.515625 30.90625 
L 53.515625 0 
L 44.484375 0 
L 44.484375 32.71875 
Q 44.484375 40.625 41.703125 44.40625 
Q 38.921875 48.1875 33.109375 48.1875 
Q 26.21875 48.1875 22.15625 43.53125 
Q 18.109375 38.875 18.109375 30.90625 
L 18.109375 0 
L 9.078125 0 
L 9.078125 54.6875 
L 18.109375 54.6875 
L 18.109375 46.1875 
Q 21.1875 51.21875 25.484375 53.609375 
Q 29.78125 56 35.6875 56 
Q 41.65625 56 45.828125 52.96875 
Q 50 49.953125 52 44.1875 
z
" id="DejaVuSans-6d"/>
      <path d="M 54.890625 33.015625 
L 54.890625 0 
L 45.90625 0 
L 45.90625 32.71875 
Q 45.90625 40.484375 42.875 44.328125 
Q 39.84375 48.1875 33.796875 48.1875 
Q 26.515625 48.1875 22.3125 43.546875 
Q 18.109375 38.921875 18.109375 30.90625 
L 18.109375 0 
L 9.078125 0 
L 9.078125 54.6875 
L 18.109375 54.6875 
L 18.109375 46.1875 
Q 21.34375 51.125 25.703125 53.5625 
Q 30.078125 56 35.796875 56 
Q 45.21875 56 50.046875 50.171875 
Q 54.890625 44.34375 54.890625 33.015625 
z
" id="DejaVuSans-6e"/>
      <path d="M 8.015625 75.875 
L 15.828125 75.875 
Q 23.140625 64.359375 26.78125 53.3125 
Q 30.421875 42.28125 30.421875 31.390625 
Q 30.421875 20.453125 26.78125 9.375 
Q 23.140625 -1.703125 15.828125 -13.1875 
L 8.015625 -13.1875 
Q 14.5 -2 17.703125 9.0625 
Q 20.90625 20.125 20.90625 31.390625 
Q 20.90625 42.671875 17.703125 53.65625 
Q 14.5 64.65625 8.015625 75.875 
z
" id="DejaVuSans-29"/>
     </defs>
     <g transform="translate(73.803219 338.153594)scale(0.17 -0.17)">
      <use xlink:href="#DejaVuSans-6c"/>
      <use x="27.783203" xlink:href="#DejaVuSans-6f"/>
      <use x="88.964844" xlink:href="#DejaVuSans-67"/>
      <use x="152.441406" xlink:href="#DejaVuSans-31"/>
      <use x="216.064453" xlink:href="#DejaVuSans-30"/>
      <use x="279.6875" xlink:href="#DejaVuSans-28"/>
      <use x="318.701172" xlink:href="#DejaVuSans-23"/>
      <use x="402.490234" xlink:href="#DejaVuSans-20"/>
      <use x="434.277344" xlink:href="#DejaVuSans-66"/>
      <use x="469.404297" xlink:href="#DejaVuSans-2d"/>
      <use x="505.488281" xlink:href="#DejaVuSans-65"/>
      <use x="567.011719" xlink:href="#DejaVuSans-76"/>
      <use x="626.191406" xlink:href="#DejaVuSans-61"/>
      <use x="687.470703" xlink:href="#DejaVuSans-6c"/>
      <use x="715.253906" xlink:href="#DejaVuSans-73"/>
      <use x="767.353516" xlink:href="#DejaVuSans-20"/>
      <use x="799.140625" xlink:href="#DejaVuSans-2f"/>
      <use x="832.832031" xlink:href="#DejaVuSans-20"/>
      <use x="864.619141" xlink:href="#DejaVuSans-64"/>
      <use x="928.095703" xlink:href="#DejaVuSans-69"/>
      <use x="955.878906" xlink:href="#DejaVuSans-6d"/>
      <use x="1053.291016" xlink:href="#DejaVuSans-65"/>
      <use x="1114.814453" xlink:href="#DejaVuSans-6e"/>
      <use x="1178.193359" xlink:href="#DejaVuSans-73"/>
      <use x="1230.292969" xlink:href="#DejaVuSans-69"/>
      <use x="1258.076172" xlink:href="#DejaVuSans-6f"/>
      <use x="1319.257812" xlink:href="#DejaVuSans-6e"/>
      <use x="1382.636719" xlink:href="#DejaVuSans-29"/>
     </g>
    </g>
   </g>
   <g id="matplotlib.axis_2">
    <g id="ytick_1">
     <g id="line2d_29">
      <path clip-path="url(#p7f431e1378)" d="M 56.12 294.88 
L 333.168 294.88 
" style="fill:none;stroke:#b0b0b0;stroke-linecap:square;stroke-width:0.8;"/>
     </g>
     <g id="line2d_30">
      <defs>
       <path d="M 0 0 
L -3.5 0 
" id="m594ef82f14" style="stroke:#000000;stroke-width:0.8;"/>
      </defs>
      <g>
       <use style="stroke:#000000;stroke-width:0.8;" x="56.12" xlink:href="#m594ef82f14" y="294.88"/>
      </g>
     </g>
     <g id="text_6">
      <!-- 0.0 -->
      <defs>
       <path d="M 10.6875 12.40625 
L 21 12.40625 
L 21 0 
L 10.6875 0 
z
" id="DejaVuSans-2e"/>
      </defs>
      <g transform="translate(23.675 300.95875)scale(0.16 -0.16)">
       <use xlink:href="#DejaVuSans-30"/>
       <use x="63.623047" xlink:href="#DejaVuSans-2e"/>
       <use x="95.410156" xlink:href="#DejaVuSans-30"/>
      </g>
     </g>
    </g>
    <g id="ytick_2">
     <g id="line2d_31">
      <path clip-path="url(#p7f431e1378)" d="M 56.12 237.843411 
L 333.168 237.843411 
" style="fill:none;stroke:#b0b0b0;stroke-linecap:square;stroke-width:0.8;"/>
     </g>
     <g id="line2d_32">
      <g>
       <use style="stroke:#000000;stroke-width:0.8;" x="56.12" xlink:href="#m594ef82f14" y="237.843411"/>
      </g>
     </g>
     <g id="text_7">
      <!-- 0.2 -->
      <g transform="translate(23.675 243.922161)scale(0.16 -0.16)">
       <use xlink:href="#DejaVuSans-30"/>
       <use x="63.623047" xlink:href="#DejaVuSans-2e"/>
       <use x="95.410156" xlink:href="#DejaVuSans-32"/>
      </g>
     </g>
    </g>
    <g id="ytick_3">
     <g id="line2d_33">
      <path clip-path="url(#p7f431e1378)" d="M 56.12 180.806823 
L 333.168 180.806823 
" style="fill:none;stroke:#b0b0b0;stroke-linecap:square;stroke-width:0.8;"/>
     </g>
     <g id="line2d_34">
      <g>
       <use style="stroke:#000000;stroke-width:0.8;" x="56.12" xlink:href="#m594ef82f14" y="180.806823"/>
      </g>
     </g>
     <g id="text_8">
      <!-- 0.4 -->
      <g transform="translate(23.675 186.885573)scale(0.16 -0.16)">
       <use xlink:href="#DejaVuSans-30"/>
       <use x="63.623047" xlink:href="#DejaVuSans-2e"/>
       <use x="95.410156" xlink:href="#DejaVuSans-34"/>
      </g>
     </g>
    </g>
    <g id="ytick_4">
     <g id="line2d_35">
      <path clip-path="url(#p7f431e1378)" d="M 56.12 123.770234 
L 333.168 123.770234 
" style="fill:none;stroke:#b0b0b0;stroke-linecap:square;stroke-width:0.8;"/>
     </g>
     <g id="line2d_36">
      <g>
       <use style="stroke:#000000;stroke-width:0.8;" x="56.12" xlink:href="#m594ef82f14" y="123.770234"/>
      </g>
     </g>
     <g id="text_9">
      <!-- 0.6 -->
      <g transform="translate(23.675 129.848984)scale(0.16 -0.16)">
       <use xlink:href="#DejaVuSans-30"/>
       <use x="63.623047" xlink:href="#DejaVuSans-2e"/>
       <use x="95.410156" xlink:href="#DejaVuSans-36"/>
      </g>
     </g>
    </g>
    <g id="ytick_5">
     <g id="line2d_37">
      <path clip-path="url(#p7f431e1378)" d="M 56.12 66.733646 
L 333.168 66.733646 
" style="fill:none;stroke:#b0b0b0;stroke-linecap:square;stroke-width:0.8;"/>
     </g>
     <g id="line2d_38">
      <g>
       <use style="stroke:#000000;stroke-width:0.8;" x="56.12" xlink:href="#m594ef82f14" y="66.733646"/>
      </g>
     </g>
     <g id="text_10">
      <!-- 0.8 -->
      <defs>
       <path d="M 31.78125 34.625 
Q 24.75 34.625 20.71875 30.859375 
Q 16.703125 27.09375 16.703125 20.515625 
Q 16.703125 13.921875 20.71875 10.15625 
Q 24.75 6.390625 31.78125 6.390625 
Q 38.8125 6.390625 42.859375 10.171875 
Q 46.921875 13.96875 46.921875 20.515625 
Q 46.921875 27.09375 42.890625 30.859375 
Q 38.875 34.625 31.78125 34.625 
z
M 21.921875 38.8125 
Q 15.578125 40.375 12.03125 44.71875 
Q 8.5 49.078125 8.5 55.328125 
Q 8.5 64.0625 14.71875 69.140625 
Q 20.953125 74.21875 31.78125 74.21875 
Q 42.671875 74.21875 48.875 69.140625 
Q 55.078125 64.0625 55.078125 55.328125 
Q 55.078125 49.078125 51.53125 44.71875 
Q 48 40.375 41.703125 38.8125 
Q 48.828125 37.15625 52.796875 32.3125 
Q 56.78125 27.484375 56.78125 20.515625 
Q 56.78125 9.90625 50.3125 4.234375 
Q 43.84375 -1.421875 31.78125 -1.421875 
Q 19.734375 -1.421875 13.25 4.234375 
Q 6.78125 9.90625 6.78125 20.515625 
Q 6.78125 27.484375 10.78125 32.3125 
Q 14.796875 37.15625 21.921875 38.8125 
z
M 18.3125 54.390625 
Q 18.3125 48.734375 21.84375 45.5625 
Q 25.390625 42.390625 31.78125 42.390625 
Q 38.140625 42.390625 41.71875 45.5625 
Q 45.3125 48.734375 45.3125 54.390625 
Q 45.3125 60.0625 41.71875 63.234375 
Q 38.140625 66.40625 31.78125 66.40625 
Q 25.390625 66.40625 21.84375 63.234375 
Q 18.3125 60.0625 18.3125 54.390625 
z
" id="DejaVuSans-38"/>
      </defs>
      <g transform="translate(23.675 72.812396)scale(0.16 -0.16)">
       <use xlink:href="#DejaVuSans-30"/>
       <use x="63.623047" xlink:href="#DejaVuSans-2e"/>
       <use x="95.410156" xlink:href="#DejaVuSans-38"/>
      </g>
     </g>
    </g>
    <g id="ytick_6">
     <g id="line2d_39">
      <path clip-path="url(#p7f431e1378)" d="M 56.12 9.697057 
L 333.168 9.697057 
" style="fill:none;stroke:#b0b0b0;stroke-linecap:square;stroke-width:0.8;"/>
     </g>
     <g id="line2d_40">
      <g>
       <use style="stroke:#000000;stroke-width:0.8;" x="56.12" xlink:href="#m594ef82f14" y="9.697057"/>
      </g>
     </g>
     <g id="text_11">
      <!-- 1.0 -->
      <g transform="translate(23.675 15.775807)scale(0.16 -0.16)">
       <use xlink:href="#DejaVuSans-31"/>
       <use x="63.623047" xlink:href="#DejaVuSans-2e"/>
       <use x="95.410156" xlink:href="#DejaVuSans-30"/>
      </g>
     </g>
    </g>
    <g id="text_12">
     <!-- Fraction of function,target pairs -->
     <defs>
      <path d="M 9.8125 72.90625 
L 51.703125 72.90625 
L 51.703125 64.59375 
L 19.671875 64.59375 
L 19.671875 43.109375 
L 48.578125 43.109375 
L 48.578125 34.8125 
L 19.671875 34.8125 
L 19.671875 0 
L 9.8125 0 
z
" id="DejaVuSans-46"/>
      <path d="M 41.109375 46.296875 
Q 39.59375 47.171875 37.8125 47.578125 
Q 36.03125 48 33.890625 48 
Q 26.265625 48 22.1875 43.046875 
Q 18.109375 38.09375 18.109375 28.8125 
L 18.109375 0 
L 9.078125 0 
L 9.078125 54.6875 
L 18.109375 54.6875 
L 18.109375 46.1875 
Q 20.953125 51.171875 25.484375 53.578125 
Q 30.03125 56 36.53125 56 
Q 37.453125 56 38.578125 55.875 
Q 39.703125 55.765625 41.0625 55.515625 
z
" id="DejaVuSans-72"/>
      <path d="M 48.78125 52.59375 
L 48.78125 44.1875 
Q 44.96875 46.296875 41.140625 47.34375 
Q 37.3125 48.390625 33.40625 48.390625 
Q 24.65625 48.390625 19.8125 42.84375 
Q 14.984375 37.3125 14.984375 27.296875 
Q 14.984375 17.28125 19.8125 11.734375 
Q 24.65625 6.203125 33.40625 6.203125 
Q 37.3125 6.203125 41.140625 7.25 
Q 44.96875 8.296875 48.78125 10.40625 
L 48.78125 2.09375 
Q 45.015625 0.34375 40.984375 -0.53125 
Q 36.96875 -1.421875 32.421875 -1.421875 
Q 20.0625 -1.421875 12.78125 6.34375 
Q 5.515625 14.109375 5.515625 27.296875 
Q 5.515625 40.671875 12.859375 48.328125 
Q 20.21875 56 33.015625 56 
Q 37.15625 56 41.109375 55.140625 
Q 45.0625 54.296875 48.78125 52.59375 
z
" id="DejaVuSans-63"/>
      <path d="M 18.3125 70.21875 
L 18.3125 54.6875 
L 36.8125 54.6875 
L 36.8125 47.703125 
L 18.3125 47.703125 
L 18.3125 18.015625 
Q 18.3125 11.328125 20.140625 9.421875 
Q 21.96875 7.515625 27.59375 7.515625 
L 36.8125 7.515625 
L 36.8125 0 
L 27.59375 0 
Q 17.1875 0 13.234375 3.875 
Q 9.28125 7.765625 9.28125 18.015625 
L 9.28125 47.703125 
L 2.6875 47.703125 
L 2.6875 54.6875 
L 9.28125 54.6875 
L 9.28125 70.21875 
z
" id="DejaVuSans-74"/>
      <path d="M 8.5 21.578125 
L 8.5 54.6875 
L 17.484375 54.6875 
L 17.484375 21.921875 
Q 17.484375 14.15625 20.5 10.265625 
Q 23.53125 6.390625 29.59375 6.390625 
Q 36.859375 6.390625 41.078125 11.03125 
Q 45.3125 15.671875 45.3125 23.6875 
L 45.3125 54.6875 
L 54.296875 54.6875 
L 54.296875 0 
L 45.3125 0 
L 45.3125 8.40625 
Q 42.046875 3.421875 37.71875 1 
Q 33.40625 -1.421875 27.6875 -1.421875 
Q 18.265625 -1.421875 13.375 4.4375 
Q 8.5 10.296875 8.5 21.578125 
z
M 31.109375 56 
z
" id="DejaVuSans-75"/>
      <path d="M 11.71875 12.40625 
L 22.015625 12.40625 
L 22.015625 4 
L 14.015625 -11.625 
L 7.71875 -11.625 
L 11.71875 4 
z
" id="DejaVuSans-2c"/>
      <path d="M 18.109375 8.203125 
L 18.109375 -20.796875 
L 9.078125 -20.796875 
L 9.078125 54.6875 
L 18.109375 54.6875 
L 18.109375 46.390625 
Q 20.953125 51.265625 25.265625 53.625 
Q 29.59375 56 35.59375 56 
Q 45.5625 56 51.78125 48.09375 
Q 58.015625 40.1875 58.015625 27.296875 
Q 58.015625 14.40625 51.78125 6.484375 
Q 45.5625 -1.421875 35.59375 -1.421875 
Q 29.59375 -1.421875 25.265625 0.953125 
Q 20.953125 3.328125 18.109375 8.203125 
z
M 48.6875 27.296875 
Q 48.6875 37.203125 44.609375 42.84375 
Q 40.53125 48.484375 33.40625 48.484375 
Q 26.265625 48.484375 22.1875 42.84375 
Q 18.109375 37.203125 18.109375 27.296875 
Q 18.109375 17.390625 22.1875 11.75 
Q 26.265625 6.109375 33.40625 6.109375 
Q 40.53125 6.109375 44.609375 11.75 
Q 48.6875 17.390625 48.6875 27.296875 
z
" id="DejaVuSans-70"/>
     </defs>
     <g transform="translate(16.139531 286.001989)rotate(-90)scale(0.17 -0.17)">
      <use xlink:href="#DejaVuSans-46"/>
      <use x="57.410156" xlink:href="#DejaVuSans-72"/>
      <use x="98.523438" xlink:href="#DejaVuSans-61"/>
      <use x="159.802734" xlink:href="#DejaVuSans-63"/>
      <use x="214.783203" xlink:href="#DejaVuSans-74"/>
      <use x="253.992188" xlink:href="#DejaVuSans-69"/>
      <use x="281.775391" xlink:href="#DejaVuSans-6f"/>
      <use x="342.957031" xlink:href="#DejaVuSans-6e"/>
      <use x="406.335938" xlink:href="#DejaVuSans-20"/>
      <use x="438.123047" xlink:href="#DejaVuSans-6f"/>
      <use x="499.304688" xlink:href="#DejaVuSans-66"/>
      <use x="534.509766" xlink:href="#DejaVuSans-20"/>
      <use x="566.296875" xlink:href="#DejaVuSans-66"/>
      <use x="601.501953" xlink:href="#DejaVuSans-75"/>
      <use x="664.880859" xlink:href="#DejaVuSans-6e"/>
      <use x="728.259766" xlink:href="#DejaVuSans-63"/>
      <use x="783.240234" xlink:href="#DejaVuSans-74"/>
      <use x="822.449219" xlink:href="#DejaVuSans-69"/>
      <use x="850.232422" xlink:href="#DejaVuSans-6f"/>
      <use x="911.414062" xlink:href="#DejaVuSans-6e"/>
      <use x="974.792969" xlink:href="#DejaVuSans-2c"/>
      <use x="1006.580078" xlink:href="#DejaVuSans-74"/>
      <use x="1045.789062" xlink:href="#DejaVuSans-61"/>
      <use x="1107.068359" xlink:href="#DejaVuSans-72"/>
      <use x="1148.166016" xlink:href="#DejaVuSans-67"/>
      <use x="1211.642578" xlink:href="#DejaVuSans-65"/>
      <use x="1273.166016" xlink:href="#DejaVuSans-74"/>
      <use x="1312.375" xlink:href="#DejaVuSans-20"/>
      <use x="1344.162109" xlink:href="#DejaVuSans-70"/>
      <use x="1407.638672" xlink:href="#DejaVuSans-61"/>
      <use x="1468.917969" xlink:href="#DejaVuSans-69"/>
      <use x="1496.701172" xlink:href="#DejaVuSans-72"/>
      <use x="1537.814453" xlink:href="#DejaVuSans-73"/>
     </g>
    </g>
   </g>
   <g id="line2d_41">
    <defs>
     <path d="M 0 1.5 
C 0.397805 1.5 0.77937 1.341951 1.06066 1.06066 
C 1.341951 0.77937 1.5 0.397805 1.5 0 
C 1.5 -0.397805 1.341951 -0.77937 1.06066 -1.06066 
C 0.77937 -1.341951 0.397805 -1.5 0 -1.5 
C -0.397805 -1.5 -0.77937 -1.341951 -1.06066 -1.06066 
C -1.341951 -0.77937 -1.5 -0.397805 -1.5 0 
C -1.5 0.397805 -1.341951 0.77937 -1.06066 1.06066 
C -0.77937 1.341951 -0.397805 1.5 0 1.5 
z
" id="m9a854fb0c8" style="stroke:#f5deb3;"/>
    </defs>
    <g>
     <use style="fill:#f5deb3;stroke:#f5deb3;" x="309.795296" xlink:href="#m9a854fb0c8" y="9.697057"/>
     <use style="fill:#f5deb3;stroke:#f5deb3;" x="309.795296" xlink:href="#m9a854fb0c8" y="9.697057"/>
    </g>
   </g>
   <g id="line2d_42">
    <defs>
     <path d="M 0 1.5 
C 0.397805 1.5 0.77937 1.341951 1.06066 1.06066 
C 1.341951 0.77937 1.5 0.397805 1.5 0 
C 1.5 -0.397805 1.341951 -0.77937 1.06066 -1.06066 
C 0.77937 -1.341951 0.397805 -1.5 0 -1.5 
C -0.397805 -1.5 -0.77937 -1.341951 -1.06066 -1.06066 
C -1.341951 -0.77937 -1.5 -0.397805 -1.5 0 
C -1.5 0.397805 -1.341951 0.77937 -1.06066 1.06066 
C -0.77937 1.341951 -0.397805 1.5 0 1.5 
z
" id="m95cf64995c" style="stroke:#000080;"/>
    </defs>
    <g>
     <use style="fill:#000080;stroke:#000080;" x="209.382534" xlink:href="#m95cf64995c" y="185.280281"/>
     <use style="fill:#000080;stroke:#000080;" x="209.382534" xlink:href="#m95cf64995c" y="185.280281"/>
    </g>
   </g>
   <g id="line2d_43">
    <path d="M 28.455965 294.88 
L 28.455965 284.702883 
L 68.034251 284.702883 
L 68.034251 284.591047 
L 71.168109 284.591047 
L 71.168109 284.47921 
L 76.11297 284.47921 
L 76.11297 284.367374 
L 81.586754 284.367374 
L 81.586754 284.255537 
L 82.350819 284.255537 
L 82.350819 284.031865 
L 83.784035 284.031865 
L 83.784035 283.920028 
L 86.917893 283.920028 
L 86.917893 283.808192 
L 87.481505 283.808192 
L 87.481505 283.584519 
L 89.567532 283.584519 
L 89.567532 283.472682 
L 90.05175 283.472682 
L 90.05175 283.249009 
L 92.287186 283.249009 
L 92.287186 283.137173 
L 94.996612 283.137173 
L 94.996612 283.025336 
L 95.351029 283.025336 
L 95.351029 282.9135 
L 96.038666 282.9135 
L 96.038666 282.801664 
L 96.699848 282.801664 
L 96.699848 282.689827 
L 97.336537 282.689827 
L 97.336537 282.466154 
L 97.950482 282.466154 
L 97.950482 282.242481 
L 98.249422 282.242481 
L 98.249422 281.906972 
L 98.543252 281.906972 
L 98.543252 281.795136 
L 98.832144 281.795136 
L 98.832144 281.459626 
L 99.395756 281.459626 
L 99.395756 281.235953 
L 99.941473 281.235953 
L 99.941473 280.900444 
L 100.207968 280.900444 
L 100.207968 280.676771 
L 100.470395 280.676771 
L 100.470395 280.564935 
L 100.728876 280.564935 
L 100.728876 278.216369 
L 100.983527 278.216369 
L 100.983527 278.104533 
L 101.23446 278.104533 
L 101.23446 277.88086 
L 101.481783 277.88086 
L 101.481783 277.657187 
L 101.725597 277.657187 
L 101.725597 277.098005 
L 102.20309 277.098005 
L 102.20309 276.874332 
L 102.436953 276.874332 
L 102.436953 276.762495 
L 102.895343 276.762495 
L 102.895343 276.650659 
L 103.120034 276.650659 
L 103.120034 276.538822 
L 108.120612 276.538822 
L 108.120612 276.426986 
L 108.775496 276.426986 
L 108.775496 276.31515 
L 111.989488 276.31515 
L 111.989488 276.203313 
L 112.122219 276.203313 
L 112.122219 276.091477 
L 112.514373 276.091477 
L 112.514373 275.97964 
L 113.023703 275.97964 
L 113.023703 275.867804 
L 113.396034 275.867804 
L 113.396034 275.755967 
L 113.518374 275.755967 
L 113.518374 275.644131 
L 113.639848 275.644131 
L 113.639848 275.532294 
L 113.880253 275.532294 
L 113.880253 275.308622 
L 113.999206 275.308622 
L 113.999206 274.078421 
L 114.23467 274.078421 
L 114.23467 273.966584 
L 114.581927 273.966584 
L 114.581927 273.742911 
L 114.922307 273.742911 
L 114.922307 273.631075 
L 115.365909 273.631075 
L 115.365909 273.519238 
L 115.58349 273.519238 
L 115.691256 273.295566 
L 115.798351 273.295566 
L 115.904782 273.071893 
L 116.010559 273.071893 
L 116.115688 272.736383 
L 116.220179 272.736383 
L 116.324038 272.289037 
L 116.631902 272.289037 
L 116.73331 271.953528 
L 116.934349 271.953528 
L 116.934349 271.729855 
L 117.426894 271.729855 
L 117.523731 271.170673 
L 117.620026 271.170673 
L 117.620026 271.058837 
L 118.186736 271.058837 
L 118.186736 270.835164 
L 118.463235 270.835164 
L 118.463235 270.611491 
L 118.825114 270.611491 
L 118.914406 270.275981 
L 119.09161 270.275981 
L 119.09161 269.940472 
L 119.267005 269.940472 
L 119.354037 269.269453 
L 119.526788 269.269453 
L 119.526788 269.04578 
L 119.782703 269.04578 
L 119.782703 268.933944 
L 120.118102 268.933944 
L 120.118102 268.822108 
L 120.365424 268.822108 
L 120.365424 268.710271 
L 120.528351 268.710271 
L 120.609239 268.374762 
L 120.929036 268.374762 
L 120.929036 268.262925 
L 121.086731 268.262925 
L 121.086731 268.151089 
L 121.627542 268.151089 
L 121.627542 267.927416 
L 122.151854 267.927416 
L 122.151854 267.81558 
L 122.588877 267.81558 
L 122.588877 267.703743 
L 123.970233 267.703743 
L 123.970233 267.591907 
L 124.168185 267.591907 
L 124.168185 267.48007 
L 124.298898 267.48007 
L 124.298898 267.368234 
L 124.557378 267.368234 
L 124.557378 267.256397 
L 125.000572 267.256397 
L 125.000572 267.144561 
L 125.125128 267.144561 
L 125.187069 266.920888 
L 125.432625 266.920888 
L 125.432625 266.697215 
L 125.734717 266.697215 
L 125.734717 266.585379 
L 125.913457 266.585379 
L 125.913457 266.473542 
L 126.148921 266.473542 
L 126.148921 266.361706 
L 126.438787 266.361706 
L 126.438787 266.249869 
L 127.659138 266.249869 
L 127.659138 266.026196 
L 127.819033 266.026196 
L 127.872003 265.690687 
L 127.977455 265.690687 
L 128.082264 265.131505 
L 128.238289 265.131505 
L 128.289984 264.684159 
L 128.647561 264.684159 
L 128.698042 264.460486 
L 128.798561 264.460486 
L 128.798561 264.34865 
L 129.389632 264.34865 
L 129.389632 264.236813 
L 129.630036 264.236813 
L 129.630036 264.124977 
L 129.867125 264.124977 
L 129.867125 264.01314 
L 130.468672 264.01314 
L 130.468672 263.901304 
L 131.137575 263.901304 
L 131.181257 263.565795 
L 131.441039 263.565795 
L 131.441039 263.453958 
L 131.865471 263.453958 
L 131.907344 263.230285 
L 131.990784 263.230285 
L 132.032353 263.006612 
L 132.11519 263.006612 
L 132.11519 262.671103 
L 132.442602 262.671103 
L 132.442602 262.559266 
L 132.603999 262.559266 
L 132.603999 262.44743 
L 132.803637 262.44743 
L 132.803637 262.335594 
L 133.118312 262.335594 
L 133.157244 262.111921 
L 133.350594 262.111921 
L 133.350594 262.000084 
L 133.579779 262.000084 
L 133.579779 261.888248 
L 133.955092 261.888248 
L 134.029181 261.664575 
L 134.102952 261.664575 
L 134.213018 261.329066 
L 134.431058 261.329066 
L 134.431058 261.217229 
L 134.574897 261.217229 
L 134.574897 261.105393 
L 134.717542 261.105393 
L 134.753019 260.88172 
L 134.929315 260.88172 
L 134.999329 260.658047 
L 135.24216 260.658047 
L 135.276571 260.434374 
L 135.515543 260.434374 
L 135.549413 260.210701 
L 135.784647 260.210701 
L 135.884484 259.763355 
L 135.917635 259.763355 
L 135.917635 259.651519 
L 136.082436 259.651519 
L 136.115208 259.092337 
L 137.738571 259.092337 
L 137.738571 258.9805 
L 138.033915 258.9805 
L 138.033915 258.868664 
L 138.179706 258.868664 
L 138.179706 258.756827 
L 138.295455 258.756827 
L 138.295455 258.644991 
L 138.439053 258.644991 
L 138.52464 258.309481 
L 138.666344 258.309481 
L 138.7227 257.973972 
L 139.112104 257.973972 
L 139.22176 257.750299 
L 139.276327 257.750299 
L 139.357855 257.526626 
L 140.126634 257.526626 
L 140.230025 257.191117 
L 140.787817 257.191117 
L 140.787817 257.079281 
L 140.936852 257.079281 
L 140.936852 256.967444 
L 141.206772 256.967444 
L 141.206772 256.855608 
L 141.328075 256.855608 
L 141.328075 256.743771 
L 141.615758 256.743771 
L 141.615758 256.631935 
L 141.781376 256.631935 
L 141.781376 256.520098 
L 141.96872 256.520098 
L 141.96872 256.296425 
L 142.200064 256.296425 
L 142.200064 256.184589 
L 142.314579 256.184589 
L 142.314579 256.072752 
L 142.496231 256.072752 
L 142.496231 255.960916 
L 142.631221 255.960916 
L 142.675983 255.625407 
L 142.742908 255.625407 
L 142.853874 255.178061 
L 142.875982 255.178061 
L 142.942135 254.842552 
L 143.117307 254.842552 
L 143.117307 254.507042 
L 143.247524 254.507042 
L 143.35529 254.283369 
L 143.376763 254.283369 
L 143.462385 253.612351 
L 143.590024 253.612351 
L 143.65349 253.165005 
L 143.758748 253.165005 
L 143.779723 252.717659 
L 143.905035 252.717659 
L 143.988072 252.158477 
L 144.029441 252.158477 
L 144.07071 251.263785 
L 144.152952 251.263785 
L 144.152952 251.040112 
L 144.437741 251.040112 
L 144.538318 250.369094 
L 144.558363 250.369094 
L 144.558363 250.257257 
L 144.77733 250.257257 
L 144.77733 249.809911 
L 144.973998 249.809911 
L 144.973998 249.698075 
L 145.322428 249.698075 
L 145.322428 249.586238 
L 145.813566 249.586238 
L 145.813566 249.474402 
L 145.980357 249.474402 
L 146.035596 249.138893 
L 146.127269 249.138893 
L 146.218456 248.91522 
L 146.34531 248.91522 
L 146.34531 248.803383 
L 146.489148 248.803383 
L 146.507044 248.57971 
L 146.738006 248.57971 
L 146.738006 248.467874 
L 147.0007 248.467874 
L 147.070079 248.132365 
L 147.173625 248.132365 
L 147.225166 247.796855 
L 147.782136 247.796855 
L 147.782136 247.685019 
L 147.996687 247.685019 
L 147.996687 247.573182 
L 148.224786 247.573182 
L 148.240964 247.014 
L 148.608906 247.014 
L 148.719342 246.678491 
L 148.875888 246.678491 
L 148.95363 246.342981 
L 149.276358 246.342981 
L 149.276358 246.231145 
L 149.652822 246.231145 
L 149.756771 245.895636 
L 149.948166 245.895636 
L 150.05035 245.560126 
L 150.453114 245.560126 
L 150.538207 245.336453 
L 150.735133 245.336453 
L 150.832756 245.000944 
L 151.012598 245.000944 
L 151.012598 244.889108 
L 151.190579 244.889108 
L 151.258545 244.665435 
L 151.407131 244.665435 
L 151.48764 244.441762 
L 151.687278 244.441762 
L 151.687278 244.329925 
L 151.805957 244.329925 
L 151.805957 244.218089 
L 151.949905 244.218089 
L 151.949905 244.106253 
L 152.118486 244.106253 
L 152.118486 243.88258 
L 152.31097 243.88258 
L 152.412754 243.54707 
L 152.425434 243.54707 
L 152.488698 243.211561 
L 152.539141 243.211561 
L 152.639586 242.764215 
L 152.68959 242.764215 
L 152.68959 242.652379 
L 152.801568 242.652379 
L 152.801568 242.540542 
L 153.072261 242.540542 
L 153.108845 242.316869 
L 153.410726 242.316869 
L 153.482395 241.98136 
L 153.624843 241.98136 
L 153.707396 241.757687 
L 153.76612 241.757687 
L 153.824645 241.422178 
L 153.929489 241.422178 
L 153.929489 241.310341 
L 154.05677 241.310341 
L 154.14875 241.086668 
L 154.217413 241.086668 
L 154.263036 240.751159 
L 154.365249 240.751159 
L 154.455596 240.303813 
L 154.63488 240.303813 
L 154.63488 240.191977 
L 155.064205 240.191977 
L 155.172583 239.856467 
L 155.204963 239.856467 
L 155.31246 239.632795 
L 155.355271 239.632795 
L 155.408635 239.185449 
L 155.567741 239.185449 
L 155.567741 239.073612 
L 155.777617 239.073612 
L 155.871232 238.849939 
L 156.015848 238.849939 
L 156.015848 238.738103 
L 156.240673 238.738103 
L 156.250823 238.51443 
L 156.362076 238.51443 
L 156.462595 238.178921 
L 156.542589 238.178921 
L 156.64206 237.731575 
L 156.67179 237.731575 
L 156.770519 237.396066 
L 156.800027 237.396066 
L 156.878469 237.060556 
L 156.937067 237.060556 
L 157.034288 236.725047 
L 157.053666 236.725047 
L 157.130962 236.054028 
L 157.188707 236.054028 
L 157.255831 235.606682 
L 157.322695 235.606682 
L 157.322695 235.494846 
L 157.474555 235.494846 
L 157.540575 235.0475 
L 157.596962 235.0475 
L 157.625086 234.600154 
L 157.718503 234.600154 
L 157.718503 234.488318 
L 157.829937 234.488318 
L 157.940653 233.929136 
L 158.023225 233.929136 
L 158.087174 233.705463 
L 158.159969 233.705463 
L 158.159969 233.593626 
L 158.331631 233.593626 
L 158.385485 233.369954 
L 158.519389 233.369954 
L 158.554921 233.034444 
L 158.766584 233.034444 
L 158.871447 232.810771 
L 158.923639 232.810771 
L 159.010275 232.475262 
L 159.105074 232.475262 
L 159.165129 232.251589 
L 159.604803 232.251589 
L 159.604803 232.139753 
L 159.919137 232.139753 
L 159.968248 231.91608 
L 160.300132 231.91608 
L 160.300132 231.804243 
L 160.412006 231.804243 
L 160.412006 231.692407 
L 160.609988 231.692407 
L 160.704216 231.468734 
L 160.952993 231.468734 
L 161.053039 231.021388 
L 161.175378 231.021388 
L 161.19822 230.797715 
L 161.454997 230.797715 
L 161.544716 230.574042 
L 161.60427 230.574042 
L 161.71538 229.903024 
L 161.722762 229.903024 
L 161.722762 229.791187 
L 161.920882 229.791187 
L 161.95004 229.567514 
L 162.06618 229.567514 
L 162.174353 229.343841 
L 162.25325 229.343841 
L 162.353142 229.120168 
L 162.367365 229.120168 
L 162.438305 228.896496 
L 162.677333 228.896496 
L 162.677333 228.784659 
L 162.837164 228.784659 
L 162.837164 228.672823 
L 163.10483 228.672823 
L 163.111639 228.44915 
L 163.462027 228.44915 
L 163.462027 228.337313 
L 163.64118 228.337313 
L 163.733345 227.889968 
L 163.825017 227.889968 
L 163.8902 227.554458 
L 163.942169 227.554458 
L 164.026284 227.218949 
L 164.167702 227.218949 
L 164.21884 226.88344 
L 164.307966 226.88344 
L 164.352357 226.54793 
L 164.459688 226.54793 
L 164.522512 226.100584 
L 164.653699 226.100584 
L 164.734412 225.541402 
L 164.765354 225.541402 
L 164.863998 225.205893 
L 164.919238 225.205893 
L 164.9743 224.98222 
L 165.071755 224.98222 
L 165.16262 224.423038 
L 165.21691 224.423038 
L 165.21691 224.311201 
L 165.360849 224.311201 
L 165.462082 224.087528 
L 165.521353 224.087528 
L 165.621647 223.752019 
L 165.645161 223.752019 
L 165.709659 223.528346 
L 165.814681 223.528346 
L 165.913283 223.192837 
L 166.005572 223.192837 
L 166.080193 222.969164 
L 166.143081 222.969164 
L 166.143081 222.857327 
L 166.256838 222.857327 
L 166.256838 222.745491 
L 166.409226 222.745491 
L 166.493305 222.409982 
L 166.554703 222.409982 
L 166.649162 222.074472 
L 166.776138 222.074472 
L 166.776138 221.962636 
L 166.956698 221.962636 
L 167.038148 221.738963 
L 167.103032 221.738963 
L 167.129994 221.51529 
L 167.322886 221.51529 
L 167.407926 221.179781 
L 167.466148 221.179781 
L 167.466148 221.067944 
L 167.602984 221.067944 
L 167.602984 220.956108 
L 167.806217 220.956108 
L 167.806217 220.844271 
L 167.996832 220.844271 
L 168.053096 220.508762 
L 168.205613 220.508762 
L 168.306545 220.061416 
L 168.341732 220.061416 
L 168.44187 219.725907 
L 168.586041 219.725907 
L 168.586041 219.61407 
L 168.822044 219.61407 
L 168.841566 219.390397 
L 169.07411 219.390397 
L 169.131758 219.166725 
L 169.265522 219.166725 
L 169.365167 218.607542 
L 169.393531 218.607542 
L 169.497134 218.272033 
L 169.618774 218.272033 
L 169.721032 217.824687 
L 169.905412 217.824687 
L 170.010541 217.489178 
L 170.028759 217.489178 
L 170.105971 217.153669 
L 170.173812 217.153669 
L 170.232392 216.818159 
L 170.711487 216.818159 
L 170.755179 216.48265 
L 170.885594 216.48265 
L 170.885594 216.370813 
L 171.002128 216.370813 
L 171.002128 216.258977 
L 171.309076 216.258977 
L 171.309076 216.14714 
L 171.573231 216.14714 
L 171.643821 215.923468 
L 171.734745 215.923468 
L 171.80878 215.699795 
L 171.976237 215.699795 
L 171.996547 215.364285 
L 172.10581 215.364285 
L 172.158171 215.028776 
L 172.370009 215.028776 
L 172.472983 214.693267 
L 172.673195 214.693267 
L 172.673195 214.58143 
L 172.78601 214.58143 
L 172.890383 214.245921 
L 172.901941 214.245921 
L 172.990295 213.910412 
L 173.051492 213.910412 
L 173.101054 213.686739 
L 173.237563 213.686739 
L 173.286593 213.463066 
L 173.414166 213.463066 
L 173.518521 212.903883 
L 173.574166 212.903883 
L 173.670192 212.456538 
L 173.743695 212.456538 
L 173.813233 212.121028 
L 173.857007 212.121028 
L 173.944222 211.673683 
L 173.984048 211.673683 
L 174.02739 211.338173 
L 174.117336 211.338173 
L 174.117336 211.226337 
L 174.331305 211.226337 
L 174.412625 210.890827 
L 174.751415 210.890827 
L 174.861731 210.667155 
L 175.154746 210.667155 
L 175.154746 210.555318 
L 175.406267 210.555318 
L 175.479353 210.331645 
L 175.578519 210.331645 
L 175.578519 210.219809 
L 175.739269 210.219809 
L 175.804451 209.660626 
L 175.982439 209.660626 
L 176.085154 208.877771 
L 176.282434 208.877771 
L 176.282434 208.765935 
L 176.4148 208.765935 
L 176.4148 208.654098 
L 176.552385 208.654098 
L 176.552385 208.542262 
L 176.728998 208.542262 
L 176.799752 208.206753 
L 176.882442 208.206753 
L 176.955611 207.64757 
L 177.013316 207.64757 
L 177.082912 207.423898 
L 177.14922 207.423898 
L 177.245212 207.088388 
L 177.284057 207.088388 
L 177.379301 206.864715 
L 177.417844 206.864715 
L 177.503514 206.529206 
L 177.612201 206.529206 
L 177.612201 206.417369 
L 177.755088 206.417369 
L 177.772503 206.193697 
L 177.876624 206.193697 
L 177.922699 205.970024 
L 178.264376 205.970024 
L 178.264376 205.858187 
L 178.854613 205.858187 
L 178.925292 205.522678 
L 179.025376 205.522678 
L 179.098044 205.187169 
L 179.17308 205.187169 
L 179.263757 204.963496 
L 179.303611 204.963496 
L 179.412073 204.51615 
L 179.422618 204.51615 
L 179.464734 204.068804 
L 179.577413 204.068804 
L 179.655591 203.845131 
L 179.733414 203.845131 
L 179.813464 203.285949 
L 179.926446 203.285949 
L 179.931564 203.062276 
L 180.092004 203.062276 
L 180.092004 202.95044 
L 180.378572 202.95044 
L 180.45816 202.726767 
L 180.512664 202.726767 
L 180.562064 202.503094 
L 180.635899 202.503094 
L 180.635899 202.391257 
L 180.785058 202.391257 
L 180.874904 201.832075 
L 180.966693 201.832075 
L 180.966693 201.720239 
L 181.089118 201.720239 
L 181.184531 201.496566 
L 181.239155 201.496566 
L 181.265218 201.272893 
L 181.639917 201.272893 
L 181.74845 200.937384 
L 181.837993 200.937384 
L 181.917956 200.490038 
L 182.049653 200.490038 
L 182.110617 200.266365 
L 182.16238 200.266365 
L 182.263207 199.930855 
L 182.345668 199.930855 
L 182.454268 199.595346 
L 182.463103 199.595346 
L 182.463103 199.48351 
L 182.584127 199.48351 
L 182.671612 199.036164 
L 182.843098 199.036164 
L 182.843098 198.924327 
L 182.955049 198.924327 
L 182.989349 198.700655 
L 183.125869 198.700655 
L 183.219101 198.365145 
L 183.305524 198.365145 
L 183.305524 198.253309 
L 183.535266 198.253309 
L 183.611858 197.917799 
L 183.74559 197.917799 
L 183.74559 197.805963 
L 183.912828 197.805963 
L 183.912828 197.694127 
L 184.026111 197.694127 
L 184.130638 197.470454 
L 184.174671 197.470454 
L 184.270351 197.246781 
L 184.302127 197.246781 
L 184.363526 196.911271 
L 184.507249 196.911271 
L 184.507249 196.799435 
L 184.622537 196.799435 
L 184.622537 196.687599 
L 184.92178 196.687599 
L 185.015305 196.463926 
L 185.247856 196.463926 
L 185.270376 196.240253 
L 185.397437 196.240253 
L 185.397437 196.128416 
L 185.521717 196.128416 
L 185.624909 195.457398 
L 185.842154 195.457398 
L 185.907338 195.233725 
L 186.022614 195.233725 
L 186.022614 195.121888 
L 186.238467 195.121888 
L 186.332167 194.786379 
L 186.827451 194.786379 
L 186.861677 194.562706 
L 187.099374 194.562706 
L 187.138112 194.339033 
L 187.367063 194.339033 
L 187.368723 194.11536 
L 187.573333 194.11536 
L 187.576613 193.891687 
L 187.862853 193.891687 
L 187.862853 193.779851 
L 187.983396 193.779851 
L 188.039362 193.220669 
L 188.405797 193.220669 
L 188.405797 193.108832 
L 188.607763 193.108832 
L 188.650954 192.885159 
L 188.785996 192.885159 
L 188.840937 192.661486 
L 188.986591 192.661486 
L 189.093526 192.437813 
L 189.143003 192.437813 
L 189.143003 192.325977 
L 189.330614 192.325977 
L 189.411871 192.102304 
L 189.539624 192.102304 
L 189.622813 191.878631 
L 189.680951 191.878631 
L 189.680951 191.766795 
L 189.803846 191.766795 
L 189.914422 191.319449 
L 189.921577 191.319449 
L 189.921577 191.207613 
L 190.172988 191.207613 
L 190.172988 191.095776 
L 190.292427 191.095776 
L 190.374846 190.872103 
L 190.54127 190.872103 
L 190.549549 190.64843 
L 190.652701 190.64843 
L 190.76069 190.424757 
L 190.912635 190.424757 
L 190.928835 190.201085 
L 191.094015 190.201085 
L 191.187316 189.977412 
L 191.477293 189.977412 
L 191.511242 189.753739 
L 191.6075 189.753739 
L 191.664481 189.530066 
L 192.073297 189.530066 
L 192.073297 189.418229 
L 192.519424 189.418229 
L 192.519424 189.306393 
L 192.704177 189.306393 
L 192.704177 189.194556 
L 192.885762 189.194556 
L 192.972246 188.970884 
L 193.193669 188.970884 
L 193.193669 188.859047 
L 193.571533 188.859047 
L 193.571533 188.747211 
L 193.845878 188.747211 
L 193.845878 188.635374 
L 194.066516 188.635374 
L 194.066516 188.523538 
L 194.58259 188.523538 
L 194.58259 188.411701 
L 194.711931 188.411701 
L 194.765987 188.188028 
L 195.518878 188.188028 
L 195.518878 188.076192 
L 195.699759 188.076192 
L 195.699759 187.964356 
L 196.058912 187.964356 
L 196.058912 187.852519 
L 196.815923 187.852519 
L 196.864715 187.628846 
L 197.166801 187.628846 
L 197.166801 187.51701 
L 197.850481 187.51701 
L 197.850481 187.405173 
L 198.07721 187.405173 
L 198.07721 187.293337 
L 198.798139 187.293337 
L 198.798139 187.1815 
L 199.264706 187.1815 
L 199.264706 187.069664 
L 199.933646 187.069664 
L 199.933646 186.957828 
L 200.163848 186.957828 
L 200.163848 186.845991 
L 200.408895 186.845991 
L 200.408895 186.734155 
L 200.559812 186.734155 
L 200.644364 186.510482 
L 200.749092 186.510482 
L 200.749092 186.398645 
L 201.128221 186.398645 
L 201.128221 186.286809 
L 202.311381 186.286809 
L 202.402994 186.063136 
L 203.095584 186.063136 
L 203.095584 185.951299 
L 203.269559 185.951299 
L 203.269559 185.839463 
L 204.732446 185.839463 
L 204.732446 185.727627 
L 204.923599 185.727627 
L 204.923599 185.61579 
L 206.794277 185.61579 
L 206.794277 185.503954 
L 208.040113 185.503954 
L 208.040113 185.392117 
L 209.382534 185.392117 
L 209.382534 185.280281 
L 333.168 185.280281 
L 333.168 185.280281 
" style="fill:none;stroke:#000080;stroke-linecap:square;stroke-width:1.5;"/>
   </g>
   <g id="line2d_44">
    <defs>
     <path d="M 0 6 
C 1.591219 6 3.117479 5.367802 4.242641 4.242641 
C 5.367802 3.117479 6 1.591219 6 0 
C 6 -1.591219 5.367802 -3.117479 4.242641 -4.242641 
C 3.117479 -5.367802 1.591219 -6 0 -6 
C -1.591219 -6 -3.117479 -5.367802 -4.242641 -4.242641 
C -5.367802 -3.117479 -6 -1.591219 -6 0 
C -6 1.591219 -5.367802 3.117479 -4.242641 4.242641 
C -3.117479 5.367802 -1.591219 6 0 6 
z
" id="m2f57939f66" style="stroke:#000080;stroke-width:1.5;"/>
    </defs>
    <g>
     <use style="fill:none;stroke:#000080;stroke-width:1.5;" x="122.588877" xlink:href="#m2f57939f66" y="267.81558"/>
     <use style="fill:none;stroke:#000080;stroke-width:1.5;" x="191.511242" xlink:href="#m2f57939f66" y="189.753739"/>
     <use style="fill:none;stroke:#000080;stroke-width:1.5;" x="209.382534" xlink:href="#m2f57939f66" y="185.392117"/>
     <use style="fill:none;stroke:#000080;stroke-width:1.5;" x="209.382534" xlink:href="#m2f57939f66" y="185.280281"/>
     <use style="fill:none;stroke:#000080;stroke-width:1.5;" x="209.382534" xlink:href="#m2f57939f66" y="185.280281"/>
     <use style="fill:none;stroke:#000080;stroke-width:1.5;" x="333.168" xlink:href="#m2f57939f66" y="185.280281"/>
    </g>
   </g>
   <g id="line2d_45">
    <path style="fill:none;stroke:#000080;stroke-linecap:square;stroke-width:1.5;"/>
    <g/>
   </g>
   <g id="line2d_46">
    <path clip-path="url(#p7f431e1378)" d="M 136.914823 259.092337 
" style="fill:none;stroke:#000080;stroke-linecap:square;stroke-width:1.5;"/>
    <defs>
     <path d="M -12 12 
L 12 -12 
M -12 -12 
L 12 12 
" id="mf83b87c509" style="stroke:#000080;"/>
    </defs>
    <g clip-path="url(#p7f431e1378)">
     <use style="fill:#000080;stroke:#000080;" x="136.914823" xlink:href="#mf83b87c509" y="259.092337"/>
    </g>
   </g>
   <g id="line2d_47">
    <defs>
     <path d="M 0 1.5 
C 0.397805 1.5 0.77937 1.341951 1.06066 1.06066 
C 1.341951 0.77937 1.5 0.397805 1.5 0 
C 1.5 -0.397805 1.341951 -0.77937 1.06066 -1.06066 
C 0.77937 -1.341951 0.397805 -1.5 0 -1.5 
C -0.397805 -1.5 -0.77937 -1.341951 -1.06066 -1.06066 
C -1.341951 -0.77937 -1.5 -0.397805 -1.5 0 
C -1.5 0.397805 -1.341951 0.77937 -1.06066 1.06066 
C -0.77937 1.341951 -0.397805 1.5 0 1.5 
z
" id="m96a7bfef3d" style="stroke:#ff00ff;"/>
    </defs>
    <g>
     <use style="fill:#ff00ff;stroke:#ff00ff;" x="208.463207" xlink:href="#m96a7bfef3d" y="185.280281"/>
     <use style="fill:#ff00ff;stroke:#ff00ff;" x="208.463207" xlink:href="#m96a7bfef3d" y="185.280281"/>
    </g>
   </g>
   <g id="line2d_48">
    <path d="M 28.455965 294.88 
L 28.455965 283.808192 
L 68.034251 283.808192 
L 68.034251 283.696355 
L 71.168109 283.696355 
L 71.168109 283.584519 
L 76.11297 283.584519 
L 76.11297 283.472682 
L 81.586754 283.472682 
L 81.586754 283.360846 
L 82.350819 283.360846 
L 82.350819 283.137173 
L 83.784035 283.137173 
L 83.784035 283.025336 
L 85.106889 283.025336 
L 85.106889 282.9135 
L 85.732 282.9135 
L 85.732 282.801664 
L 86.917893 282.801664 
L 86.917893 282.689827 
L 88.027221 282.689827 
L 88.027221 282.577991 
L 89.567532 282.577991 
L 89.567532 282.466154 
L 90.05175 282.466154 
L 90.05175 282.354318 
L 90.981092 282.354318 
L 90.981092 282.242481 
L 92.287186 282.242481 
L 92.287186 282.130645 
L 94.996612 282.130645 
L 94.996612 282.018808 
L 95.351029 282.018808 
L 95.351029 281.795136 
L 96.038666 281.795136 
L 96.038666 281.683299 
L 97.336537 281.683299 
L 97.336537 281.571463 
L 97.950482 281.571463 
L 97.950482 281.235953 
L 98.249422 281.235953 
L 98.249422 280.900444 
L 98.543252 280.900444 
L 98.543252 280.676771 
L 98.832144 280.676771 
L 98.832144 280.453098 
L 99.395756 280.453098 
L 99.395756 280.341262 
L 99.67078 280.341262 
L 99.67078 280.229425 
L 99.941473 280.229425 
L 99.941473 279.893916 
L 100.207968 279.893916 
L 100.207968 279.558407 
L 100.470395 279.558407 
L 100.470395 279.334734 
L 100.728876 279.334734 
L 100.728876 277.433514 
L 100.983527 277.433514 
L 100.983527 277.209841 
L 101.23446 277.209841 
L 101.23446 276.874332 
L 101.481783 276.874332 
L 101.481783 276.650659 
L 101.725597 276.650659 
L 101.725597 276.091477 
L 101.966002 276.091477 
L 101.966002 275.97964 
L 102.20309 275.97964 
L 102.20309 275.644131 
L 102.895343 275.644131 
L 102.895343 275.532294 
L 104.409787 275.532294 
L 104.409787 275.420458 
L 105.60948 275.420458 
L 105.60948 275.308622 
L 108.775496 275.308622 
L 108.775496 275.196785 
L 109.093814 275.196785 
L 109.093814 275.084949 
L 112.122219 275.084949 
L 112.122219 274.973112 
L 112.514373 274.973112 
L 112.514373 274.861276 
L 113.023703 274.861276 
L 113.023703 274.749439 
L 113.396034 274.749439 
L 113.396034 274.637603 
L 113.639848 274.637603 
L 113.639848 274.525766 
L 113.880253 274.525766 
L 113.880253 274.302094 
L 113.999206 274.302094 
L 113.999206 273.183729 
L 114.23467 273.183729 
L 114.23467 273.071893 
L 114.581927 273.071893 
L 114.581927 272.960056 
L 114.922307 272.960056 
L 114.922307 272.84822 
L 115.034286 272.84822 
L 115.034286 272.736383 
L 115.365909 272.736383 
L 115.365909 272.51271 
L 115.58349 272.51271 
L 115.691256 272.177201 
L 115.798351 272.177201 
L 115.904782 271.953528 
L 116.010559 271.953528 
L 116.115688 271.618019 
L 116.220179 271.618019 
L 116.220179 271.282509 
L 116.631902 271.282509 
L 116.73331 270.723327 
L 116.934349 270.723327 
L 116.934349 270.387818 
L 117.426894 270.387818 
L 117.523731 270.052309 
L 117.620026 270.052309 
L 117.620026 269.940472 
L 117.811013 269.940472 
L 117.811013 269.828636 
L 118.186736 269.828636 
L 118.186736 269.604963 
L 118.463235 269.604963 
L 118.463235 269.38129 
L 118.825114 269.38129 
L 118.914406 269.04578 
L 119.09161 269.04578 
L 119.09161 268.710271 
L 119.354037 268.710271 
L 119.354037 268.151089 
L 120.118102 268.151089 
L 120.118102 268.039252 
L 120.609239 268.039252 
L 120.609239 267.927416 
L 120.929036 267.927416 
L 120.929036 267.81558 
L 121.086731 267.81558 
L 121.086731 267.703743 
L 121.627542 267.703743 
L 121.627542 267.591907 
L 122.151854 267.591907 
L 122.151854 267.48007 
L 123.293428 267.48007 
L 123.293428 267.368234 
L 123.430938 267.368234 
L 123.430938 267.256397 
L 123.970233 267.256397 
L 123.970233 267.144561 
L 124.298898 267.144561 
L 124.298898 267.032724 
L 125.000572 267.032724 
L 125.000572 266.920888 
L 125.125128 266.920888 
L 125.187069 266.585379 
L 125.432625 266.585379 
L 125.432625 266.473542 
L 125.913457 266.473542 
L 125.913457 266.361706 
L 126.148921 266.361706 
L 126.148921 266.249869 
L 126.438787 266.249869 
L 126.438787 266.026196 
L 126.723846 266.026196 
L 126.723846 265.91436 
L 127.389295 265.91436 
L 127.497741 265.690687 
L 127.551708 265.690687 
L 127.659138 265.467014 
L 127.872003 265.467014 
L 127.977455 265.243341 
L 128.082264 265.243341 
L 128.082264 265.131505 
L 128.238289 265.131505 
L 128.341524 264.795995 
L 128.647561 264.795995 
L 128.698042 264.572323 
L 128.798561 264.572323 
L 128.798561 264.236813 
L 128.948245 264.236813 
L 128.948245 264.124977 
L 129.243759 264.124977 
L 129.243759 263.901304 
L 129.437982 263.901304 
L 129.437982 263.789467 
L 129.582224 263.789467 
L 129.630036 263.565795 
L 129.867125 263.565795 
L 129.867125 263.453958 
L 130.468672 263.453958 
L 130.468672 263.342122 
L 131.005861 263.342122 
L 131.005861 263.230285 
L 131.137575 263.230285 
L 131.224827 262.782939 
L 131.612072 262.782939 
L 131.612072 262.559266 
L 131.907344 262.559266 
L 131.990784 262.335594 
L 132.032353 262.335594 
L 132.11519 261.888248 
L 132.442602 261.888248 
L 132.442602 261.664575 
L 133.157244 261.664575 
L 133.157244 261.552738 
L 133.350594 261.552738 
L 133.350594 261.440902 
L 133.579779 261.440902 
L 133.579779 261.329066 
L 133.880682 261.329066 
L 133.955092 261.105393 
L 134.029181 261.105393 
L 134.066106 260.88172 
L 134.213018 260.88172 
L 134.213018 260.769883 
L 134.574897 260.769883 
L 134.574897 260.658047 
L 134.717542 260.658047 
L 134.788423 260.322538 
L 134.929315 260.322538 
L 134.999329 260.098865 
L 135.24216 260.098865 
L 135.24216 259.987028 
L 135.379395 259.987028 
L 135.379395 259.875192 
L 135.549413 259.875192 
L 135.549413 259.763355 
L 135.684226 259.763355 
L 135.784647 259.316009 
L 135.884484 259.316009 
L 135.917635 259.092337 
L 136.082436 259.092337 
L 136.115208 258.533154 
L 137.738571 258.533154 
L 137.738571 258.421318 
L 138.295455 258.421318 
L 138.295455 258.309481 
L 138.410429 258.309481 
L 138.496158 257.973972 
L 138.7227 257.973972 
L 138.7227 257.750299 
L 139.112104 257.750299 
L 139.22176 257.526626 
L 139.357855 257.526626 
L 139.46596 257.302953 
L 140.255775 257.302953 
L 140.255775 257.191117 
L 140.73785 257.191117 
L 140.73785 257.079281 
L 141.206772 257.079281 
L 141.206772 256.967444 
L 141.448529 256.967444 
L 141.448529 256.855608 
L 141.615758 256.855608 
L 141.615758 256.743771 
L 141.781376 256.743771 
L 141.781376 256.631935 
L 141.96872 256.631935 
L 141.96872 256.520098 
L 142.200064 256.520098 
L 142.200064 256.408262 
L 142.314579 256.408262 
L 142.405645 256.184589 
L 142.631221 256.184589 
L 142.675983 255.960916 
L 142.831738 255.960916 
L 142.942135 255.401734 
L 142.964129 255.401734 
L 142.986095 255.178061 
L 143.117307 255.178061 
L 143.182539 254.618879 
L 143.247524 254.618879 
L 143.35529 254.283369 
L 143.376763 254.283369 
L 143.441019 253.724187 
L 143.590024 253.724187 
L 143.65349 253.276841 
L 143.716722 253.276841 
L 143.779723 252.829495 
L 143.863366 252.829495 
L 143.905035 252.270313 
L 143.988072 252.270313 
L 144.07071 251.040112 
L 144.152952 251.040112 
L 144.152952 250.928276 
L 144.437741 250.928276 
L 144.538318 250.033584 
L 144.77733 250.033584 
L 144.77733 249.586238 
L 144.973998 249.586238 
L 144.973998 249.474402 
L 145.110339 249.474402 
L 145.129729 249.250729 
L 145.531932 249.250729 
L 145.588629 249.027056 
L 145.813566 249.027056 
L 145.85077 248.803383 
L 145.99879 248.803383 
L 146.05397 248.57971 
L 146.218456 248.57971 
L 146.272936 248.356038 
L 146.34531 248.356038 
L 146.363355 248.132365 
L 146.507044 248.132365 
L 146.507044 248.020528 
L 146.702675 248.020528 
L 146.738006 247.796855 
L 146.896104 247.796855 
L 146.965905 247.573182 
L 147.12193 247.573182 
L 147.190823 246.790327 
L 147.864973 246.790327 
L 147.864973 246.678491 
L 147.980278 246.678491 
L 148.029459 246.454818 
L 148.159923 246.454818 
L 148.257126 245.783799 
L 148.305522 245.783799 
L 148.305522 245.671963 
L 148.481817 245.671963 
L 148.481817 245.560126 
L 148.672099 245.560126 
L 148.672099 245.44829 
L 148.93811 245.44829 
L 148.93811 245.336453 
L 149.276358 245.336453 
L 149.276358 245.224617 
L 149.801129 245.224617 
L 149.801129 245.112781 
L 150.860547 245.112781 
L 150.874425 244.889108 
L 151.244973 244.889108 
L 151.244973 244.777271 
L 151.949905 244.777271 
L 152.040885 244.553598 
L 152.066791 244.553598 
L 152.131386 244.106253 
L 152.272646 244.106253 
L 152.298205 243.88258 
L 152.476064 243.88258 
L 152.476064 243.770743 
L 152.75189 243.770743 
L 152.801568 243.54707 
L 152.986593 243.54707 
L 152.986593 243.435234 
L 153.266485 243.435234 
L 153.266485 243.323397 
L 153.38677 243.323397 
L 153.482395 242.987888 
L 153.541892 242.987888 
L 153.553767 242.764215 
L 153.812956 242.764215 
L 153.812956 242.652379 
L 153.929489 242.652379 
L 153.929489 242.540542 
L 154.079811 242.540542 
L 154.079811 242.428706 
L 154.365249 242.428706 
L 154.433054 242.093196 
L 154.545472 242.093196 
L 154.545472 241.98136 
L 155.031558 241.98136 
L 155.031558 241.869524 
L 155.376636 241.869524 
L 155.472454 241.310341 
L 155.536037 241.310341 
L 155.630973 240.974832 
L 155.693974 240.974832 
L 155.725388 240.751159 
L 155.840083 240.751159 
L 155.943692 240.191977 
L 155.954019 240.191977 
L 156.04668 239.968304 
L 156.128628 239.968304 
L 156.189834 239.632795 
L 156.492636 239.632795 
L 156.552562 239.297285 
L 156.790197 239.297285 
L 156.839293 239.073612 
L 156.995466 239.073612 
L 157.082693 238.738103 
L 157.111671 238.738103 
L 157.198312 237.507902 
L 157.246258 237.507902 
L 157.351271 236.836883 
L 157.370295 236.836883 
L 157.436716 236.277701 
L 157.540575 236.277701 
L 157.64381 235.0475 
L 157.718503 235.0475 
L 157.718503 234.823827 
L 157.829937 234.823827 
L 157.940653 234.152809 
L 158.295634 234.152809 
L 158.295634 234.040972 
L 158.448103 234.040972 
L 158.554921 233.705463 
L 158.581522 233.705463 
L 158.581522 233.593626 
L 158.845291 233.593626 
L 158.845291 233.48179 
L 159.018915 233.48179 
L 159.018915 233.369954 
L 159.696387 233.369954 
L 159.712987 233.034444 
L 160.324166 233.034444 
L 160.388094 232.810771 
L 160.435885 232.810771 
L 160.435885 232.698935 
L 160.61786 232.698935 
L 160.649313 232.363425 
L 160.735511 232.363425 
L 160.774549 232.139753 
L 160.867881 232.139753 
L 160.976132 231.58057 
L 161.022317 231.58057 
L 161.129603 231.133225 
L 161.167758 231.133225 
L 161.167758 231.021388 
L 161.663618 231.021388 
L 161.774346 230.685879 
L 161.818438 230.685879 
L 161.818438 230.574042 
L 161.957322 230.574042 
L 161.957322 230.462206 
L 162.217433 230.462206 
L 162.217433 230.350369 
L 162.537131 230.350369 
L 162.544168 230.126697 
L 162.656375 230.126697 
L 162.753959 229.903024 
L 162.767854 229.903024 
L 162.8164 229.679351 
L 162.933729 229.679351 
L 162.995522 229.455678 
L 163.254002 229.455678 
L 163.348261 229.120168 
L 163.448681 229.120168 
L 163.521952 228.784659 
L 163.68074 228.784659 
L 163.779242 228.44915 
L 163.805414 228.44915 
L 163.85112 228.225477 
L 163.942169 228.225477 
L 164.052083 227.666295 
L 164.167702 227.666295 
L 164.257094 227.330785 
L 164.295262 227.330785 
L 164.396633 226.995276 
L 164.415574 226.995276 
L 164.453392 226.659767 
L 164.553838 226.659767 
L 164.553838 226.54793 
L 164.771536 226.54793 
L 164.827073 226.100584 
L 164.900844 226.100584 
L 164.94985 225.765075 
L 165.071755 225.765075 
L 165.16262 225.317729 
L 165.307013 225.317729 
L 165.384722 224.870383 
L 165.497669 224.870383 
L 165.568623 224.534874 
L 165.843741 224.534874 
L 165.895924 224.311201 
L 165.965256 224.311201 
L 165.965256 224.199365 
L 166.307784 224.199365 
L 166.392361 223.752019 
L 166.487713 223.752019 
L 166.588101 223.528346 
L 166.682377 223.528346 
L 166.776138 223.192837 
L 166.814598 223.192837 
L 166.902183 222.857327 
L 166.967581 222.857327 
L 167.065213 222.521818 
L 167.151534 222.521818 
L 167.151534 222.409982 
L 167.328213 222.409982 
L 167.418526 222.074472 
L 167.471431 222.074472 
L 167.492547 221.627126 
L 167.592496 221.627126 
L 167.592496 221.51529 
L 167.754334 221.51529 
L 167.857943 221.291617 
L 167.914663 221.291617 
L 167.930099 221.067944 
L 168.088804 221.067944 
L 168.190422 220.508762 
L 168.230902 220.508762 
L 168.316606 220.173253 
L 168.361806 220.173253 
L 168.44187 219.837743 
L 168.511621 219.837743 
L 168.600887 219.61407 
L 168.625601 219.61407 
L 168.625601 219.502234 
L 168.753544 219.502234 
L 168.802501 219.166725 
L 168.895136 219.166725 
L 168.895136 219.054888 
L 169.040393 219.054888 
L 169.141347 218.719379 
L 169.160509 218.719379 
L 169.213096 218.383869 
L 169.459532 218.383869 
L 169.501828 218.160197 
L 169.581438 218.160197 
L 169.669979 217.712851 
L 169.725666 217.712851 
L 169.831897 217.265505 
L 169.974048 217.265505 
L 169.974048 217.153669 
L 170.142186 217.153669 
L 170.20538 216.818159 
L 170.295255 216.818159 
L 170.295255 216.706323 
L 170.544435 216.706323 
L 170.636953 216.48265 
L 171.325969 216.48265 
L 171.418585 215.811631 
L 171.493992 215.811631 
L 171.493992 215.699795 
L 171.631385 215.699795 
L 171.734745 215.364285 
L 171.742987 215.364285 
L 171.812884 215.028776 
L 171.894754 215.028776 
L 171.988426 214.805103 
L 172.037096 214.805103 
L 172.09774 214.245921 
L 172.218391 214.245921 
L 172.274406 214.022248 
L 172.532111 214.022248 
L 172.567491 213.798575 
L 172.6888 213.798575 
L 172.76273 213.351229 
L 172.809259 213.351229 
L 172.901941 213.127556 
L 173.001786 213.127556 
L 173.032391 212.903883 
L 173.188393 212.903883 
L 173.188393 212.792047 
L 173.395465 212.792047 
L 173.4776 212.568374 
L 173.611162 212.568374 
L 173.703307 212.121028 
L 173.729019 212.121028 
L 173.736359 211.897355 
L 173.871573 211.897355 
L 173.915199 211.673683 
L 174.099384 211.673683 
L 174.174655 211.226337 
L 174.39498 211.226337 
L 174.500583 210.778991 
L 174.511108 210.778991 
L 174.511108 210.667155 
L 174.84798 210.667155 
L 174.84798 210.555318 
L 175.090438 210.555318 
L 175.191867 210.219809 
L 175.245718 210.219809 
L 175.285996 209.884299 
L 175.359595 209.884299 
L 175.46277 209.54879 
L 175.479353 209.54879 
L 175.479353 209.436954 
L 175.686944 209.436954 
L 175.686944 209.325117 
L 175.849932 209.325117 
L 175.911465 208.989608 
L 176.008176 208.989608 
L 176.008176 208.877771 
L 176.155416 208.877771 
L 176.250767 208.542262 
L 176.269774 208.542262 
L 176.380231 208.206753 
L 176.439898 208.206753 
L 176.521213 207.871243 
L 176.682697 207.871243 
L 176.762874 207.535734 
L 176.879386 207.535734 
L 176.955611 207.088388 
L 177.007251 207.088388 
L 177.098005 206.305533 
L 177.122125 206.305533 
L 177.182277 205.970024 
L 177.248203 205.970024 
L 177.304936 205.522678 
L 177.373364 205.522678 
L 177.474021 205.299005 
L 177.485824 205.299005 
L 177.553537 204.963496 
L 177.775404 204.963496 
L 177.810175 204.739823 
L 178.028775 204.739823 
L 178.071593 204.51615 
L 178.162584 204.51615 
L 178.267195 204.292477 
L 178.329095 204.292477 
L 178.329095 204.180641 
L 178.443864 204.180641 
L 178.51347 203.956968 
L 178.57726 203.956968 
L 178.624258 203.621458 
L 178.745305 203.621458 
L 178.849164 202.726767 
L 179.143641 202.726767 
L 179.175754 202.503094 
L 179.300957 202.503094 
L 179.300957 202.391257 
L 179.430523 202.391257 
L 179.517235 201.943912 
L 179.572188 201.943912 
L 179.645187 201.608402 
L 179.686762 201.608402 
L 179.748937 201.161056 
L 179.903396 201.161056 
L 179.990311 200.601874 
L 180.048858 200.601874 
L 180.10214 200.266365 
L 180.177973 200.266365 
L 180.177973 200.154528 
L 180.363608 200.154528 
L 180.391032 199.930855 
L 180.591636 199.930855 
L 180.591636 199.819019 
L 180.882169 199.819019 
L 180.911195 199.595346 
L 181.127347 199.595346 
L 181.148813 199.259837 
L 181.298332 199.259837 
L 181.30542 199.036164 
L 181.535356 199.036164 
L 181.572606 198.812491 
L 181.67463 198.812491 
L 181.773753 198.476982 
L 181.842572 198.476982 
L 181.863164 198.141472 
L 182.058698 198.141472 
L 182.058698 198.029636 
L 182.216228 198.029636 
L 182.307829 197.805963 
L 182.62355 197.805963 
L 182.641043 197.58229 
L 182.823648 197.58229 
L 182.931427 197.246781 
L 183.066274 197.246781 
L 183.16831 197.023108 
L 183.19584 197.023108 
L 183.28659 196.799435 
L 183.414512 196.799435 
L 183.474995 196.575762 
L 183.628374 196.575762 
L 183.628374 196.463926 
L 183.806964 196.463926 
L 183.811047 196.240253 
L 183.935139 196.240253 
L 183.987759 196.01658 
L 184.050289 196.01658 
L 184.050289 195.904743 
L 184.248472 195.904743 
L 184.280288 195.68107 
L 184.487632 195.68107 
L 184.520968 195.345561 
L 184.645891 195.345561 
L 184.725446 195.121888 
L 184.816192 195.121888 
L 184.827743 194.898215 
L 185.055233 194.898215 
L 185.123464 194.45087 
L 185.532803 194.45087 
L 185.634092 194.227197 
L 185.753032 194.227197 
L 185.771258 194.003524 
L 185.92179 194.003524 
L 185.92179 193.891687 
L 186.040556 193.891687 
L 186.040556 193.779851 
L 186.22073 193.779851 
L 186.22073 193.668014 
L 186.386737 193.668014 
L 186.386737 193.556178 
L 186.74847 193.556178 
L 186.74847 193.444342 
L 186.99621 193.444342 
L 186.99621 193.332505 
L 187.252133 193.332505 
L 187.273846 193.108832 
L 187.620836 193.108832 
L 187.669839 192.773323 
L 187.794977 192.773323 
L 187.794977 192.661486 
L 187.959355 192.661486 
L 188.024988 192.437813 
L 188.118998 192.437813 
L 188.158678 191.878631 
L 188.23303 191.878631 
L 188.23303 191.766795 
L 188.352582 191.766795 
L 188.401108 191.543122 
L 188.620114 191.543122 
L 188.620114 191.431285 
L 188.932115 191.431285 
L 188.932115 191.319449 
L 189.108534 191.319449 
L 189.177402 191.095776 
L 189.314317 191.095776 
L 189.314317 190.98394 
L 189.754794 190.98394 
L 189.764904 190.760267 
L 189.923008 190.760267 
L 190.027134 190.536594 
L 190.313418 190.536594 
L 190.348347 190.312921 
L 190.719762 190.312921 
L 190.747058 190.089248 
L 190.881541 190.089248 
L 190.932883 189.865575 
L 191.006923 189.865575 
L 191.006923 189.753739 
L 191.231126 189.753739 
L 191.252326 189.530066 
L 191.506023 189.530066 
L 191.554235 189.306393 
L 191.651547 189.306393 
L 191.699353 189.08272 
L 191.944039 189.08272 
L 192.050557 188.747211 
L 192.165212 188.747211 
L 192.165212 188.635374 
L 192.456572 188.635374 
L 192.456572 188.523538 
L 192.754001 188.523538 
L 192.827863 188.299865 
L 193.279798 188.299865 
L 193.350267 188.076192 
L 193.405267 188.076192 
L 193.405267 187.964356 
L 193.571533 187.964356 
L 193.571533 187.852519 
L 193.746518 187.852519 
L 193.792272 187.405173 
L 193.929941 187.405173 
L 193.929941 187.293337 
L 194.051895 187.293337 
L 194.051895 187.1815 
L 194.722756 187.1815 
L 194.741142 186.957828 
L 195.269115 186.957828 
L 195.269115 186.845991 
L 195.424603 186.845991 
L 195.424603 186.734155 
L 195.6793 186.734155 
L 195.6793 186.622318 
L 197.134856 186.622318 
L 197.134856 186.510482 
L 197.41285 186.510482 
L 197.41285 186.398645 
L 197.632601 186.398645 
L 197.632601 186.286809 
L 198.894339 186.286809 
L 198.894339 186.174972 
L 199.688165 186.174972 
L 199.688165 186.063136 
L 200.356734 186.063136 
L 200.356734 185.951299 
L 200.842577 185.951299 
L 200.842577 185.839463 
L 201.540703 185.839463 
L 201.540703 185.727627 
L 202.924532 185.727627 
L 202.924532 185.61579 
L 204.523241 185.61579 
L 204.523241 185.503954 
L 206.358274 185.503954 
L 206.358274 185.392117 
L 208.463207 185.392117 
L 208.463207 185.280281 
L 333.168 185.280281 
L 333.168 185.280281 
" style="fill:none;stroke:#ff00ff;stroke-linecap:square;stroke-width:1.5;"/>
   </g>
   <g id="line2d_49">
    <defs>
     <path d="M -0 8.485281 
L 5.091169 0 
L 0 -8.485281 
L -5.091169 -0 
z
" id="m4e3bbfd38c" style="stroke:#ff00ff;stroke-linejoin:miter;stroke-width:1.5;"/>
    </defs>
    <g>
     <use style="fill:none;stroke:#ff00ff;stroke-linejoin:miter;stroke-width:1.5;" x="102.895343" xlink:href="#m4e3bbfd38c" y="275.644131"/>
     <use style="fill:none;stroke:#ff00ff;stroke-linejoin:miter;stroke-width:1.5;" x="157.436716" xlink:href="#m4e3bbfd38c" y="236.277701"/>
     <use style="fill:none;stroke:#ff00ff;stroke-linejoin:miter;stroke-width:1.5;" x="208.463207" xlink:href="#m4e3bbfd38c" y="185.392117"/>
     <use style="fill:none;stroke:#ff00ff;stroke-linejoin:miter;stroke-width:1.5;" x="208.463207" xlink:href="#m4e3bbfd38c" y="185.280281"/>
     <use style="fill:none;stroke:#ff00ff;stroke-linejoin:miter;stroke-width:1.5;" x="208.463207" xlink:href="#m4e3bbfd38c" y="185.280281"/>
     <use style="fill:none;stroke:#ff00ff;stroke-linejoin:miter;stroke-width:1.5;" x="333.168" xlink:href="#m4e3bbfd38c" y="185.280281"/>
    </g>
   </g>
   <g id="line2d_50">
    <path style="fill:none;stroke:#ff00ff;stroke-linecap:square;stroke-width:1.5;"/>
    <g/>
   </g>
   <g id="line2d_51">
    <path clip-path="url(#p7f431e1378)" d="M 136.914823 258.533154 
" style="fill:none;stroke:#ff00ff;stroke-linecap:square;stroke-width:1.5;"/>
    <defs>
     <path d="M -12 12 
L 12 -12 
M -12 -12 
L 12 12 
" id="m2a69407b55" style="stroke:#ff00ff;"/>
    </defs>
    <g clip-path="url(#p7f431e1378)">
     <use style="fill:#ff00ff;stroke:#ff00ff;" x="136.914823" xlink:href="#m2a69407b55" y="258.533154"/>
    </g>
   </g>
   <g id="line2d_52">
    <path d="M 333.168 185.280281 
L 363.64328 289.176341 
" style="fill:none;stroke:#000080;stroke-linecap:square;stroke-width:1.5;"/>
    <g>
     <use style="fill:none;stroke:#000080;stroke-width:1.5;" x="333.168" xlink:href="#m2f57939f66" y="185.280281"/>
     <use style="fill:none;stroke:#000080;stroke-width:1.5;" x="363.64328" xlink:href="#m2f57939f66" y="289.176341"/>
    </g>
   </g>
   <g id="line2d_53">
    <path d="M 333.168 185.280281 
L 363.64328 152.288529 
" style="fill:none;stroke:#ff00ff;stroke-linecap:square;stroke-width:1.5;"/>
    <g>
     <use style="fill:none;stroke:#ff00ff;stroke-linejoin:miter;stroke-width:1.5;" x="333.168" xlink:href="#m4e3bbfd38c" y="185.280281"/>
     <use style="fill:none;stroke:#ff00ff;stroke-linejoin:miter;stroke-width:1.5;" x="363.64328" xlink:href="#m4e3bbfd38c" y="152.288529"/>
    </g>
   </g>
   <g id="line2d_54">
    <path d="M 333.168 294.88 
L 333.168 9.697057 
" style="fill:none;stroke:#000000;stroke-linecap:square;stroke-width:1.5;"/>
   </g>
   <g id="patch_3">
    <path d="M 56.12 294.88 
L 56.12 6.845228 
" style="fill:none;stroke:#000000;stroke-linecap:square;stroke-linejoin:miter;stroke-width:0.8;"/>
   </g>
   <g id="patch_4">
    <path d="M 333.168 294.88 
L 333.168 6.845228 
" style="fill:none;stroke:#000000;stroke-linecap:square;stroke-linejoin:miter;stroke-width:0.8;"/>
   </g>
   <g id="patch_5">
    <path d="M 56.12 294.88 
L 333.168 294.88 
" style="fill:none;stroke:#000000;stroke-linecap:square;stroke-linejoin:miter;stroke-width:0.8;"/>
   </g>
   <g id="patch_6">
    <path d="M 56.12 6.845228 
L 333.168 6.845228 
" style="fill:none;stroke:#000000;stroke-linecap:square;stroke-linejoin:miter;stroke-width:0.8;"/>
   </g>
   <g id="text_13">
    <!-- scipyAlg -->
    <defs>
     <path d="M 32.171875 -5.078125 
Q 28.375 -14.84375 24.75 -17.8125 
Q 21.140625 -20.796875 15.09375 -20.796875 
L 7.90625 -20.796875 
L 7.90625 -13.28125 
L 13.1875 -13.28125 
Q 16.890625 -13.28125 18.9375 -11.515625 
Q 21 -9.765625 23.484375 -3.21875 
L 25.09375 0.875 
L 2.984375 54.6875 
L 12.5 54.6875 
L 29.59375 11.921875 
L 46.6875 54.6875 
L 56.203125 54.6875 
z
" id="DejaVuSans-79"/>
     <path d="M 34.1875 63.1875 
L 20.796875 26.90625 
L 47.609375 26.90625 
z
M 28.609375 72.90625 
L 39.796875 72.90625 
L 67.578125 0 
L 57.328125 0 
L 50.6875 18.703125 
L 17.828125 18.703125 
L 11.1875 0 
L 0.78125 0 
z
" id="DejaVuSans-41"/>
    </defs>
    <g transform="translate(369.18424 293.867279)scale(0.17 -0.17)">
     <use xlink:href="#DejaVuSans-73"/>
     <use x="52.099609" xlink:href="#DejaVuSans-63"/>
     <use x="107.080078" xlink:href="#DejaVuSans-69"/>
     <use x="134.863281" xlink:href="#DejaVuSans-70"/>
     <use x="198.339844" xlink:href="#DejaVuSans-79"/>
     <use x="257.519531" xlink:href="#DejaVuSans-41"/>
     <use x="325.927734" xlink:href="#DejaVuSans-6c"/>
     <use x="353.710938" xlink:href="#DejaVuSans-67"/>
    </g>
   </g>
   <g id="text_14">
    <!-- scipy-opt -->
    <g transform="translate(369.18424 156.979466)scale(0.17 -0.17)">
     <use xlink:href="#DejaVuSans-73"/>
     <use x="52.099609" xlink:href="#DejaVuSans-63"/>
     <use x="107.080078" xlink:href="#DejaVuSans-69"/>
     <use x="134.863281" xlink:href="#DejaVuSans-70"/>
     <use x="198.339844" xlink:href="#DejaVuSans-79"/>
     <use x="257.503906" xlink:href="#DejaVuSans-2d"/>
     <use x="293.603516" xlink:href="#DejaVuSans-6f"/>
     <use x="354.785156" xlink:href="#DejaVuSans-70"/>
     <use x="418.261719" xlink:href="#DejaVuSans-74"/>
    </g>
   </g>
   <g id="text_15">
    <!-- best 2009 -->
    <defs>
     <path d="M 48.6875 27.296875 
Q 48.6875 37.203125 44.609375 42.84375 
Q 40.53125 48.484375 33.40625 48.484375 
Q 26.265625 48.484375 22.1875 42.84375 
Q 18.109375 37.203125 18.109375 27.296875 
Q 18.109375 17.390625 22.1875 11.75 
Q 26.265625 6.109375 33.40625 6.109375 
Q 40.53125 6.109375 44.609375 11.75 
Q 48.6875 17.390625 48.6875 27.296875 
z
M 18.109375 46.390625 
Q 20.953125 51.265625 25.265625 53.625 
Q 29.59375 56 35.59375 56 
Q 45.5625 56 51.78125 48.09375 
Q 58.015625 40.1875 58.015625 27.296875 
Q 58.015625 14.40625 51.78125 6.484375 
Q 45.5625 -1.421875 35.59375 -1.421875 
Q 29.59375 -1.421875 25.265625 0.953125 
Q 20.953125 3.328125 18.109375 8.203125 
L 18.109375 0 
L 9.078125 0 
L 9.078125 75.984375 
L 18.109375 75.984375 
z
" id="DejaVuSans-62"/>
     <path d="M 10.984375 1.515625 
L 10.984375 10.5 
Q 14.703125 8.734375 18.5 7.8125 
Q 22.3125 6.890625 25.984375 6.890625 
Q 35.75 6.890625 40.890625 13.453125 
Q 46.046875 20.015625 46.78125 33.40625 
Q 43.953125 29.203125 39.59375 26.953125 
Q 35.25 24.703125 29.984375 24.703125 
Q 19.046875 24.703125 12.671875 31.3125 
Q 6.296875 37.9375 6.296875 49.421875 
Q 6.296875 60.640625 12.9375 67.421875 
Q 19.578125 74.21875 30.609375 74.21875 
Q 43.265625 74.21875 49.921875 64.515625 
Q 56.59375 54.828125 56.59375 36.375 
Q 56.59375 19.140625 48.40625 8.859375 
Q 40.234375 -1.421875 26.421875 -1.421875 
Q 22.703125 -1.421875 18.890625 -0.6875 
Q 15.09375 0.046875 10.984375 1.515625 
z
M 30.609375 32.421875 
Q 37.25 32.421875 41.125 36.953125 
Q 45.015625 41.5 45.015625 49.421875 
Q 45.015625 57.28125 41.125 61.84375 
Q 37.25 66.40625 30.609375 66.40625 
Q 23.96875 66.40625 20.09375 61.84375 
Q 16.21875 57.28125 16.21875 49.421875 
Q 16.21875 41.5 20.09375 36.953125 
Q 23.96875 32.421875 30.609375 32.421875 
z
" id="DejaVuSans-39"/>
    </defs>
    <g transform="translate(369.18424 20.091654)scale(0.17 -0.17)">
     <use xlink:href="#DejaVuSans-62"/>
     <use x="63.476562" xlink:href="#DejaVuSans-65"/>
     <use x="125" xlink:href="#DejaVuSans-73"/>
     <use x="177.099609" xlink:href="#DejaVuSans-74"/>
     <use x="216.308594" xlink:href="#DejaVuSans-20"/>
     <use x="248.095703" xlink:href="#DejaVuSans-32"/>
     <use x="311.71875" xlink:href="#DejaVuSans-30"/>
     <use x="375.341797" xlink:href="#DejaVuSans-30"/>
     <use x="438.964844" xlink:href="#DejaVuSans-39"/>
    </g>
   </g>
   <g id="text_16">
    <!-- bbob f20-f24, 5-D -->
    <defs>
     <path d="M 10.796875 72.90625 
L 49.515625 72.90625 
L 49.515625 64.59375 
L 19.828125 64.59375 
L 19.828125 46.734375 
Q 21.96875 47.46875 24.109375 47.828125 
Q 26.265625 48.1875 28.421875 48.1875 
Q 40.625 48.1875 47.75 41.5 
Q 54.890625 34.8125 54.890625 23.390625 
Q 54.890625 11.625 47.5625 5.09375 
Q 40.234375 -1.421875 26.90625 -1.421875 
Q 22.3125 -1.421875 17.546875 -0.640625 
Q 12.796875 0.140625 7.71875 1.703125 
L 7.71875 11.625 
Q 12.109375 9.234375 16.796875 8.0625 
Q 21.484375 6.890625 26.703125 6.890625 
Q 35.15625 6.890625 40.078125 11.328125 
Q 45.015625 15.765625 45.015625 23.390625 
Q 45.015625 31 40.078125 35.4375 
Q 35.15625 39.890625 26.703125 39.890625 
Q 22.75 39.890625 18.8125 39.015625 
Q 14.890625 38.140625 10.796875 36.28125 
z
" id="DejaVuSans-35"/>
     <path d="M 19.671875 64.796875 
L 19.671875 8.109375 
L 31.59375 8.109375 
Q 46.6875 8.109375 53.6875 14.9375 
Q 60.6875 21.78125 60.6875 36.53125 
Q 60.6875 51.171875 53.6875 57.984375 
Q 46.6875 64.796875 31.59375 64.796875 
z
M 9.8125 72.90625 
L 30.078125 72.90625 
Q 51.265625 72.90625 61.171875 64.09375 
Q 71.09375 55.28125 71.09375 36.53125 
Q 71.09375 17.671875 61.125 8.828125 
Q 51.171875 0 30.078125 0 
L 9.8125 0 
z
" id="DejaVuSans-44"/>
    </defs>
    <g transform="translate(58.89048 17.475982)scale(0.102 -0.102)">
     <use xlink:href="#DejaVuSans-62"/>
     <use x="63.476562" xlink:href="#DejaVuSans-62"/>
     <use x="126.953125" xlink:href="#DejaVuSans-6f"/>
     <use x="188.134766" xlink:href="#DejaVuSans-62"/>
     <use x="251.611328" xlink:href="#DejaVuSans-20"/>
     <use x="283.398438" xlink:href="#DejaVuSans-66"/>
     <use x="318.603516" xlink:href="#DejaVuSans-32"/>
     <use x="382.226562" xlink:href="#DejaVuSans-30"/>
     <use x="445.849609" xlink:href="#DejaVuSans-2d"/>
     <use x="481.933594" xlink:href="#DejaVuSans-66"/>
     <use x="517.138672" xlink:href="#DejaVuSans-32"/>
     <use x="580.761719" xlink:href="#DejaVuSans-34"/>
     <use x="644.384766" xlink:href="#DejaVuSans-2c"/>
     <use x="676.171875" xlink:href="#DejaVuSans-20"/>
     <use x="707.958984" xlink:href="#DejaVuSans-35"/>
     <use x="771.582031" xlink:href="#DejaVuSans-2d"/>
     <use x="807.666016" xlink:href="#DejaVuSans-44"/>
    </g>
    <!-- 51 targets: 100..1e-08 -->
    <defs>
     <path d="M 11.71875 12.40625 
L 22.015625 12.40625 
L 22.015625 0 
L 11.71875 0 
z
M 11.71875 51.703125 
L 22.015625 51.703125 
L 22.015625 39.3125 
L 11.71875 39.3125 
z
" id="DejaVuSans-3a"/>
    </defs>
    <g transform="translate(58.89048 28.89775)scale(0.102 -0.102)">
     <use xlink:href="#DejaVuSans-35"/>
     <use x="63.623047" xlink:href="#DejaVuSans-31"/>
     <use x="127.246094" xlink:href="#DejaVuSans-20"/>
     <use x="159.033203" xlink:href="#DejaVuSans-74"/>
     <use x="198.242188" xlink:href="#DejaVuSans-61"/>
     <use x="259.521484" xlink:href="#DejaVuSans-72"/>
     <use x="300.619141" xlink:href="#DejaVuSans-67"/>
     <use x="364.095703" xlink:href="#DejaVuSans-65"/>
     <use x="425.619141" xlink:href="#DejaVuSans-74"/>
     <use x="464.828125" xlink:href="#DejaVuSans-73"/>
     <use x="516.927734" xlink:href="#DejaVuSans-3a"/>
     <use x="550.619141" xlink:href="#DejaVuSans-20"/>
     <use x="582.40625" xlink:href="#DejaVuSans-31"/>
     <use x="646.029297" xlink:href="#DejaVuSans-30"/>
     <use x="709.652344" xlink:href="#DejaVuSans-30"/>
     <use x="773.275391" xlink:href="#DejaVuSans-2e"/>
     <use x="805.0625" xlink:href="#DejaVuSans-2e"/>
     <use x="836.849609" xlink:href="#DejaVuSans-31"/>
     <use x="900.472656" xlink:href="#DejaVuSans-65"/>
     <use x="961.996094" xlink:href="#DejaVuSans-2d"/>
     <use x="998.080078" xlink:href="#DejaVuSans-30"/>
     <use x="1061.703125" xlink:href="#DejaVuSans-38"/>
    </g>
    <!-- 15 instances -->
    <g transform="translate(58.89048 40.319519)scale(0.102 -0.102)">
     <use xlink:href="#DejaVuSans-31"/>
     <use x="63.623047" xlink:href="#DejaVuSans-35"/>
     <use x="127.246094" xlink:href="#DejaVuSans-20"/>
     <use x="159.033203" xlink:href="#DejaVuSans-69"/>
     <use x="186.816406" xlink:href="#DejaVuSans-6e"/>
     <use x="250.195312" xlink:href="#DejaVuSans-73"/>
     <use x="302.294922" xlink:href="#DejaVuSans-74"/>
     <use x="341.503906" xlink:href="#DejaVuSans-61"/>
     <use x="402.783203" xlink:href="#DejaVuSans-6e"/>
     <use x="466.162109" xlink:href="#DejaVuSans-63"/>
     <use x="521.142578" xlink:href="#DejaVuSans-65"/>
     <use x="582.666016" xlink:href="#DejaVuSans-73"/>
    </g>
   </g>
   <g id="text_17">
    <!-- v0.0.0 -->
    <g style="fill:#808080;" transform="translate(178.96275 289.919965)scale(0.1 -0.1)">
     <use xlink:href="#DejaVuSans-76"/>
     <use x="59.179688" xlink:href="#DejaVuSans-30"/>
     <use x="122.802734" xlink:href="#DejaVuSans-2e"/>
     <use x="154.589844" xlink:href="#DejaVuSans-30"/>
     <use x="218.212891" xlink:href="#DejaVuSans-2e"/>
     <use x="250" xlink:href="#DejaVuSans-30"/>
    </g>
   </g>
  </g>
 </g>
 <defs>
  <clipPath id="p7f431e1378">
   <rect height="288.034772" width="277.048" x="56.12" y="6.845228"/>
  </clipPath>
 </defs>
</svg>
