<?xml version="1.0" encoding="utf-8" standalone="no"?>
<!DOCTYPE svg PUBLIC "-//W3C//DTD SVG 1.1//EN"
  "http://www.w3.org/Graphics/SVG/1.1/DTD/svg11.dtd">
<!-- Created with matplotlib (http://matplotlib.org/) -->
<svg height="345pt" version="1.1" viewBox="0 0 460 345" width="460pt" xmlns="http://www.w3.org/2000/svg" xmlns:xlink="http://www.w3.org/1999/xlink">
 <defs>
  <style type="text/css">
*{stroke-linecap:butt;stroke-linejoin:round;}
  </style>
 </defs>
 <g id="figure_1">
  <g id="patch_1">
   <path d="M 0 345.6 
L 460.8 345.6 
L 460.8 0 
L 0 0 
z
" style="fill:#ffffff;"/>
  </g>
  <g id="axes_1">
   <g id="patch_2">
    <path d="M 56.12 294.88 
L 333.168 294.88 
L 333.168 6.845228 
L 56.12 6.845228 
z
" style="fill:#ffffff;"/>
   </g>
   <g id="line2d_1">
    <path d="M 37.236359 294.88 
L 37.236359 289.288178 
L 49.15061 289.288178 
L 49.15061 288.169813 
L 61.064861 288.169813 
L 61.064861 287.051449 
L 68.034251 287.051449 
L 68.034251 285.933084 
L 76.814644 285.933084 
L 76.814644 284.81472 
L 79.948502 284.81472 
L 79.948502 283.696355 
L 82.598142 283.696355 
L 82.598142 282.577991 
L 85.935418 282.577991 
L 85.935418 280.341262 
L 87.847234 280.341262 
L 87.847234 279.222897 
L 89.567532 279.222897 
L 89.567532 278.104533 
L 91.131212 278.104533 
L 91.131212 275.867804 
L 91.862754 275.867804 
L 91.862754 273.631075 
L 93.887283 273.631075 
L 93.887283 272.51271 
L 94.512393 272.51271 
L 94.512393 271.394346 
L 95.698286 271.394346 
L 95.698286 270.275981 
L 96.261898 270.275981 
L 96.261898 269.157617 
L 96.807615 269.157617 
L 96.807615 268.039252 
L 97.849669 268.039252 
L 97.849669 266.920888 
L 98.832144 266.920888 
L 98.832144 265.802523 
L 99.303095 265.802523 
L 99.303095 264.684159 
L 100.207968 264.684159 
L 100.207968 263.565795 
L 100.643147 263.565795 
L 100.643147 262.44743 
L 101.481783 262.44743 
L 101.481783 261.329066 
L 101.88624 261.329066 
L 101.88624 260.210701 
L 102.667676 260.210701 
L 102.667676 259.092337 
L 103.415125 259.092337 
L 103.415125 256.855608 
L 103.777005 256.855608 
L 103.777005 255.737243 
L 104.131422 255.737243 
L 104.131422 254.618879 
L 105.480242 254.618879 
L 105.480242 253.500514 
L 105.801534 253.500514 
L 105.801534 252.38215 
L 106.11693 252.38215 
L 106.11693 251.263785 
L 106.426644 251.263785 
L 106.426644 250.145421 
L 106.730875 250.145421 
L 106.730875 249.027056 
L 107.323646 249.027056 
L 107.323646 247.908692 
L 107.612537 247.908692 
L 107.612537 244.553598 
L 108.988361 244.553598 
L 108.988361 243.435234 
L 109.250788 243.435234 
L 109.250788 242.316869 
L 109.509269 242.316869 
L 109.509269 241.198505 
L 110.262176 241.198505 
L 110.262176 240.08014 
L 110.505991 240.08014 
L 110.505991 238.961776 
L 111.900428 238.961776 
L 111.900428 237.843411 
L 112.122219 237.843411 
L 112.122219 236.725047 
L 112.341186 236.725047 
L 112.341186 235.606682 
L 112.557398 235.606682 
L 112.557398 233.369954 
L 113.396034 233.369954 
L 113.396034 232.251589 
L 113.599452 232.251589 
L 113.599452 231.133225 
L 114.195649 231.133225 
L 114.195649 230.01486 
L 114.389873 230.01486 
L 114.389873 228.896496 
L 114.581927 228.896496 
L 114.581927 226.659767 
L 114.771859 226.659767 
L 114.771859 225.541402 
L 114.959714 225.541402 
L 114.959714 224.423038 
L 115.511269 224.423038 
L 115.511269 223.304673 
L 115.691256 223.304673 
L 115.691256 221.067944 
L 116.220179 221.067944 
L 116.220179 219.94958 
L 116.39293 219.94958 
L 116.39293 217.712851 
L 116.73331 217.712851 
L 116.73331 216.594486 
L 117.06708 216.594486 
L 117.06708 215.476122 
L 117.231566 215.476122 
L 117.231566 213.239393 
L 117.55589 213.239393 
L 117.55589 212.121028 
L 117.715785 212.121028 
L 117.715785 209.884299 
L 118.031182 209.884299 
L 118.031182 208.765935 
L 118.645127 208.765935 
L 118.645127 207.64757 
L 118.795247 207.64757 
L 118.795247 206.529206 
L 119.09161 206.529206 
L 119.09161 205.410841 
L 119.669433 205.410841 
L 119.669433 204.292477 
L 120.0904 204.292477 
L 120.0904 202.055748 
L 120.769881 202.055748 
L 120.769881 200.937384 
L 121.034327 200.937384 
L 121.034327 199.819019 
L 121.294766 199.819019 
L 121.294766 198.700655 
L 121.678171 198.700655 
L 121.678171 196.463926 
L 122.053211 196.463926 
L 122.053211 195.345561 
L 122.298767 195.345561 
L 122.298767 194.227197 
L 122.540864 194.227197 
L 122.540864 193.108832 
L 122.660646 193.108832 
L 122.660646 191.990468 
L 122.897734 191.990468 
L 122.897734 190.872103 
L 123.131597 190.872103 
L 123.131597 189.753739 
L 123.589988 189.753739 
L 123.589988 188.635374 
L 123.925932 188.635374 
L 123.925932 187.51701 
L 124.255437 187.51701 
L 124.255437 186.398645 
L 124.471649 186.398645 
L 124.471649 184.161916 
L 125.000572 184.161916 
L 125.000572 181.925187 
L 125.310285 181.925187 
L 125.310285 179.688458 
L 125.513703 179.688458 
L 125.513703 178.570094 
L 125.714742 178.570094 
L 125.814387 176.333365 
L 125.913457 176.333365 
L 125.913457 174.096636 
L 126.109901 174.096636 
L 126.207287 171.859907 
L 126.304124 171.859907 
L 126.40042 169.623178 
L 126.496178 169.623178 
L 126.496178 168.504814 
L 126.68611 168.504814 
L 126.68611 167.386449 
L 126.967129 167.386449 
L 126.967129 165.14972 
L 127.151955 165.14972 
L 127.151955 164.031356 
L 127.334814 164.031356 
L 127.42552 161.794627 
L 127.605507 161.794627 
L 127.605507 160.676262 
L 127.783629 160.676262 
L 127.783629 158.439533 
L 127.959924 158.439533 
L 127.959924 157.321169 
L 128.13443 157.321169 
L 128.221023 155.08444 
L 128.478214 155.08444 
L 128.563096 152.847711 
L 128.647561 152.847711 
L 128.647561 150.610982 
L 128.898495 150.610982 
L 128.898495 148.374253 
L 129.063771 148.374253 
L 129.063771 147.255888 
L 129.227474 147.255888 
L 129.308744 145.019159 
L 129.470141 145.019159 
L 129.550274 141.664066 
L 129.630036 141.664066 
L 129.630036 140.545702 
L 129.788458 140.545702 
L 129.788458 139.427337 
L 129.945433 139.427337 
L 130.023386 136.072244 
L 130.255146 136.072244 
L 130.255146 134.953879 
L 130.407935 134.953879 
L 130.483823 131.598786 
L 130.559378 131.598786 
L 130.634602 129.362057 
L 130.709498 129.362057 
L 130.709498 127.125328 
L 130.858318 127.125328 
L 130.858318 126.006963 
L 131.07916 126.006963 
L 131.152148 123.770234 
L 131.224827 123.770234 
L 131.224827 122.65187 
L 131.441039 122.65187 
L 131.441039 121.533505 
L 131.583684 121.533505 
L 131.583684 120.415141 
L 131.725155 120.415141 
L 131.725155 118.178412 
L 131.865471 118.178412 
L 131.865471 117.060047 
L 132.004651 117.060047 
L 132.073821 114.823318 
L 132.279675 114.823318 
L 132.279675 112.586589 
L 132.415555 112.586589 
L 132.483094 110.349861 
L 132.750626 110.349861 
L 132.816864 108.113132 
L 133.014059 108.113132 
L 133.014059 106.994767 
L 133.144276 106.994767 
L 133.144276 105.876403 
L 133.273515 105.876403 
L 133.273515 104.758038 
L 133.401789 104.758038 
L 133.401789 103.639674 
L 133.592422 103.639674 
L 133.592422 101.402945 
L 133.780965 101.402945 
L 133.843356 99.166216 
L 133.905521 99.166216 
L 133.905521 98.047851 
L 134.090678 98.047851 
L 134.151957 94.692758 
L 134.455115 94.692758 
L 134.515111 92.456029 
L 134.574897 92.456029 
L 134.634477 90.2193 
L 134.811986 90.2193 
L 134.811986 87.982571 
L 134.929315 87.982571 
L 134.929315 86.864206 
L 135.10382 86.864206 
L 135.161597 84.627477 
L 135.276571 84.627477 
L 135.276571 83.509113 
L 135.390782 83.509113 
L 135.447604 81.272384 
L 135.560688 81.272384 
L 135.616951 79.035655 
L 135.673032 79.035655 
L 135.673032 77.917291 
L 135.784647 77.917291 
L 135.895542 75.680562 
L 136.060554 75.680562 
L 136.115208 73.443833 
L 136.278134 73.443833 
L 136.332102 70.088739 
L 136.492995 70.088739 
L 136.599426 67.85201 
L 136.652396 67.85201 
L 136.757848 65.615281 
L 136.862657 65.615281 
L 136.862657 64.496917 
L 137.121917 64.496917 
L 137.173303 61.141823 
L 137.275617 61.141823 
L 137.377325 57.78673 
L 137.427955 57.78673 
L 137.427955 56.668365 
L 137.778244 56.668365 
L 137.778244 55.550001 
L 138.121538 55.550001 
L 138.121538 54.431636 
L 138.647518 54.431636 
L 138.647518 53.313272 
L 138.834862 53.313272 
L 138.834862 52.194907 
L 139.519758 52.194907 
L 139.519758 51.076543 
L 139.96165 51.076543 
L 139.96165 49.958178 
L 140.26435 49.958178 
L 140.26435 48.839814 
L 140.392465 48.839814 
L 140.392465 47.72145 
L 140.60389 47.72145 
L 140.60389 46.603085 
L 140.729508 46.603085 
L 140.729508 45.484721 
L 140.978022 45.484721 
L 140.978022 44.366356 
L 141.100945 44.366356 
L 141.100945 43.247992 
L 141.263487 43.247992 
L 141.263487 42.129627 
L 141.58403 42.129627 
L 141.58403 41.011263 
L 141.742087 41.011263 
L 141.742087 39.892898 
L 141.859684 39.892898 
L 141.859684 38.774534 
L 142.053908 38.774534 
L 142.053908 37.656169 
L 143.814623 37.656169 
L 143.814623 36.537805 
L 146.814308 36.537805 
L 146.814308 35.41944 
L 147.190823 35.41944 
L 147.190823 34.301076 
L 147.559266 34.301076 
L 147.559266 33.182711 
L 147.864973 33.182711 
L 147.864973 32.064347 
L 148.165338 32.064347 
L 148.165338 30.945982 
L 148.672099 30.945982 
L 148.672099 29.827618 
L 149.010418 29.827618 
L 149.010418 28.709253 
L 149.392686 28.709253 
L 149.392686 27.590889 
L 149.741959 27.590889 
L 149.741959 26.472524 
L 149.987165 26.472524 
L 149.987165 25.35416 
L 150.204899 25.35416 
L 150.204899 24.235795 
L 150.467326 24.235795 
L 150.467326 23.117431 
L 150.749113 23.117431 
L 150.749113 21.999066 
L 150.957462 21.999066 
L 150.957462 20.880702 
L 151.117784 20.880702 
L 151.117784 19.762337 
L 151.456376 19.762337 
L 151.456376 18.643973 
L 151.589967 18.643973 
L 151.589967 17.525609 
L 151.766488 17.525609 
L 151.766488 16.407244 
L 151.919472 16.407244 
L 151.919472 15.28888 
L 152.092658 15.28888 
L 152.20002 13.052151 
L 152.370417 13.052151 
L 152.370417 11.933786 
L 152.497115 11.933786 
L 152.497115 10.815422 
L 152.622886 10.815422 
L 152.622886 9.697057 
L 333.168 9.697057 
L 333.168 9.697057 
" style="fill:none;stroke:#f5deb3;stroke-linecap:square;stroke-width:4;"/>
   </g>
   <g id="line2d_2">
    <defs>
     <path d="M -0 7.778175 
L 7.778175 0 
L 0 -7.778175 
L -7.778175 -0 
z
" id="m1c9e30e1dc" style="stroke:#f5deb3;stroke-linejoin:miter;stroke-width:1.5;"/>
    </defs>
    <g>
     <use style="fill:#f5deb3;stroke:#f5deb3;stroke-linejoin:miter;stroke-width:1.5;" x="118.795247" xlink:href="#m1c9e30e1dc" y="207.64757"/>
     <use style="fill:#f5deb3;stroke:#f5deb3;stroke-linejoin:miter;stroke-width:1.5;" x="139.519758" xlink:href="#m1c9e30e1dc" y="51.076543"/>
     <use style="fill:#f5deb3;stroke:#f5deb3;stroke-linejoin:miter;stroke-width:1.5;" x="152.622886" xlink:href="#m1c9e30e1dc" y="10.815422"/>
     <use style="fill:#f5deb3;stroke:#f5deb3;stroke-linejoin:miter;stroke-width:1.5;" x="152.622886" xlink:href="#m1c9e30e1dc" y="9.697057"/>
     <use style="fill:#f5deb3;stroke:#f5deb3;stroke-linejoin:miter;stroke-width:1.5;" x="152.622886" xlink:href="#m1c9e30e1dc" y="9.697057"/>
     <use style="fill:#f5deb3;stroke:#f5deb3;stroke-linejoin:miter;stroke-width:1.5;" x="333.168" xlink:href="#m1c9e30e1dc" y="9.697057"/>
    </g>
   </g>
   <g id="line2d_3">
    <path style="fill:none;stroke:#f5deb3;stroke-linecap:square;stroke-width:4;"/>
    <g/>
   </g>
   <g id="line2d_4">
    <path d="M 333.168 9.697057 
L 363.64328 15.400716 
" style="fill:none;stroke:#f5deb3;stroke-linecap:square;stroke-width:4;"/>
    <g>
     <use style="fill:#f5deb3;stroke:#f5deb3;stroke-linejoin:miter;stroke-width:1.5;" x="333.168" xlink:href="#m1c9e30e1dc" y="9.697057"/>
     <use style="fill:#f5deb3;stroke:#f5deb3;stroke-linejoin:miter;stroke-width:1.5;" x="363.64328" xlink:href="#m1c9e30e1dc" y="15.400716"/>
    </g>
   </g>
   <g id="matplotlib.axis_1">
    <g id="xtick_1">
     <g id="line2d_5">
      <path clip-path="url(#p836c038b8f)" d="M 56.12 294.88 
L 56.12 6.845228 
" style="fill:none;stroke:#b0b0b0;stroke-linecap:square;stroke-width:0.8;"/>
     </g>
     <g id="line2d_6">
      <defs>
       <path d="M 0 0 
L 0 3.5 
" id="m87e1c051ba" style="stroke:#000000;stroke-width:0.8;"/>
      </defs>
      <g>
       <use style="stroke:#000000;stroke-width:0.8;" x="56.12" xlink:href="#m87e1c051ba" y="294.88"/>
      </g>
     </g>
     <g id="text_1">
      <!-- 0 -->
      <defs>
       <path d="M 31.78125 66.40625 
Q 24.171875 66.40625 20.328125 58.90625 
Q 16.5 51.421875 16.5 36.375 
Q 16.5 21.390625 20.328125 13.890625 
Q 24.171875 6.390625 31.78125 6.390625 
Q 39.453125 6.390625 43.28125 13.890625 
Q 47.125 21.390625 47.125 36.375 
Q 47.125 51.421875 43.28125 58.90625 
Q 39.453125 66.40625 31.78125 66.40625 
z
M 31.78125 74.21875 
Q 44.046875 74.21875 50.515625 64.515625 
Q 56.984375 54.828125 56.984375 36.375 
Q 56.984375 17.96875 50.515625 8.265625 
Q 44.046875 -1.421875 31.78125 -1.421875 
Q 19.53125 -1.421875 13.0625 8.265625 
Q 6.59375 17.96875 6.59375 36.375 
Q 6.59375 54.828125 13.0625 64.515625 
Q 19.53125 74.21875 31.78125 74.21875 
z
" id="DejaVuSans-30"/>
      </defs>
      <g transform="translate(49.7575 317.076875)scale(0.2 -0.2)">
       <use xlink:href="#DejaVuSans-30"/>
      </g>
     </g>
    </g>
    <g id="xtick_2">
     <g id="line2d_7">
      <path clip-path="url(#p836c038b8f)" d="M 135.276571 294.88 
L 135.276571 6.845228 
" style="fill:none;stroke:#b0b0b0;stroke-linecap:square;stroke-width:0.8;"/>
     </g>
     <g id="line2d_8">
      <g>
       <use style="stroke:#000000;stroke-width:0.8;" x="135.276571" xlink:href="#m87e1c051ba" y="294.88"/>
      </g>
     </g>
     <g id="text_2">
      <!-- 2 -->
      <defs>
       <path d="M 19.1875 8.296875 
L 53.609375 8.296875 
L 53.609375 0 
L 7.328125 0 
L 7.328125 8.296875 
Q 12.9375 14.109375 22.625 23.890625 
Q 32.328125 33.6875 34.8125 36.53125 
Q 39.546875 41.84375 41.421875 45.53125 
Q 43.3125 49.21875 43.3125 52.78125 
Q 43.3125 58.59375 39.234375 62.25 
Q 35.15625 65.921875 28.609375 65.921875 
Q 23.96875 65.921875 18.8125 64.3125 
Q 13.671875 62.703125 7.8125 59.421875 
L 7.8125 69.390625 
Q 13.765625 71.78125 18.9375 73 
Q 24.125 74.21875 28.421875 74.21875 
Q 39.75 74.21875 46.484375 68.546875 
Q 53.21875 62.890625 53.21875 53.421875 
Q 53.21875 48.921875 51.53125 44.890625 
Q 49.859375 40.875 45.40625 35.40625 
Q 44.1875 33.984375 37.640625 27.21875 
Q 31.109375 20.453125 19.1875 8.296875 
z
" id="DejaVuSans-32"/>
      </defs>
      <g transform="translate(128.914071 317.076875)scale(0.2 -0.2)">
       <use xlink:href="#DejaVuSans-32"/>
      </g>
     </g>
    </g>
    <g id="xtick_3">
     <g id="line2d_9">
      <path clip-path="url(#p836c038b8f)" d="M 214.433143 294.88 
L 214.433143 6.845228 
" style="fill:none;stroke:#b0b0b0;stroke-linecap:square;stroke-width:0.8;"/>
     </g>
     <g id="line2d_10">
      <g>
       <use style="stroke:#000000;stroke-width:0.8;" x="214.433143" xlink:href="#m87e1c051ba" y="294.88"/>
      </g>
     </g>
     <g id="text_3">
      <!-- 4 -->
      <defs>
       <path d="M 37.796875 64.3125 
L 12.890625 25.390625 
L 37.796875 25.390625 
z
M 35.203125 72.90625 
L 47.609375 72.90625 
L 47.609375 25.390625 
L 58.015625 25.390625 
L 58.015625 17.1875 
L 47.609375 17.1875 
L 47.609375 0 
L 37.796875 0 
L 37.796875 17.1875 
L 4.890625 17.1875 
L 4.890625 26.703125 
z
" id="DejaVuSans-34"/>
      </defs>
      <g transform="translate(208.070643 317.076875)scale(0.2 -0.2)">
       <use xlink:href="#DejaVuSans-34"/>
      </g>
     </g>
    </g>
    <g id="xtick_4">
     <g id="line2d_11">
      <path clip-path="url(#p836c038b8f)" d="M 293.589714 294.88 
L 293.589714 6.845228 
" style="fill:none;stroke:#b0b0b0;stroke-linecap:square;stroke-width:0.8;"/>
     </g>
     <g id="line2d_12">
      <g>
       <use style="stroke:#000000;stroke-width:0.8;" x="293.589714" xlink:href="#m87e1c051ba" y="294.88"/>
      </g>
     </g>
     <g id="text_4">
      <!-- 6 -->
      <defs>
       <path d="M 33.015625 40.375 
Q 26.375 40.375 22.484375 35.828125 
Q 18.609375 31.296875 18.609375 23.390625 
Q 18.609375 15.53125 22.484375 10.953125 
Q 26.375 6.390625 33.015625 6.390625 
Q 39.65625 6.390625 43.53125 10.953125 
Q 47.40625 15.53125 47.40625 23.390625 
Q 47.40625 31.296875 43.53125 35.828125 
Q 39.65625 40.375 33.015625 40.375 
z
M 52.59375 71.296875 
L 52.59375 62.3125 
Q 48.875 64.0625 45.09375 64.984375 
Q 41.3125 65.921875 37.59375 65.921875 
Q 27.828125 65.921875 22.671875 59.328125 
Q 17.53125 52.734375 16.796875 39.40625 
Q 19.671875 43.65625 24.015625 45.921875 
Q 28.375 48.1875 33.59375 48.1875 
Q 44.578125 48.1875 50.953125 41.515625 
Q 57.328125 34.859375 57.328125 23.390625 
Q 57.328125 12.15625 50.6875 5.359375 
Q 44.046875 -1.421875 33.015625 -1.421875 
Q 20.359375 -1.421875 13.671875 8.265625 
Q 6.984375 17.96875 6.984375 36.375 
Q 6.984375 53.65625 15.1875 63.9375 
Q 23.390625 74.21875 37.203125 74.21875 
Q 40.921875 74.21875 44.703125 73.484375 
Q 48.484375 72.75 52.59375 71.296875 
z
" id="DejaVuSans-36"/>
      </defs>
      <g transform="translate(287.227214 317.076875)scale(0.2 -0.2)">
       <use xlink:href="#DejaVuSans-36"/>
      </g>
     </g>
    </g>
    <g id="xtick_5">
     <g id="line2d_13">
      <path clip-path="url(#p836c038b8f)" d="M 56.12 294.88 
L 56.12 6.845228 
" style="fill:none;stroke:#b0b0b0;stroke-linecap:square;stroke-width:0.8;"/>
     </g>
     <g id="line2d_14">
      <defs>
       <path d="M 0 0 
L 0 2 
" id="m80e7360b01" style="stroke:#000000;stroke-width:0.6;"/>
      </defs>
      <g>
       <use style="stroke:#000000;stroke-width:0.6;" x="56.12" xlink:href="#m80e7360b01" y="294.88"/>
      </g>
     </g>
    </g>
    <g id="xtick_6">
     <g id="line2d_15">
      <path clip-path="url(#p836c038b8f)" d="M 95.698286 294.88 
L 95.698286 6.845228 
" style="fill:none;stroke:#b0b0b0;stroke-linecap:square;stroke-width:0.8;"/>
     </g>
     <g id="line2d_16">
      <g>
       <use style="stroke:#000000;stroke-width:0.6;" x="95.698286" xlink:href="#m80e7360b01" y="294.88"/>
      </g>
     </g>
    </g>
    <g id="xtick_7">
     <g id="line2d_17">
      <path clip-path="url(#p836c038b8f)" d="M 135.276571 294.88 
L 135.276571 6.845228 
" style="fill:none;stroke:#b0b0b0;stroke-linecap:square;stroke-width:0.8;"/>
     </g>
     <g id="line2d_18">
      <g>
       <use style="stroke:#000000;stroke-width:0.6;" x="135.276571" xlink:href="#m80e7360b01" y="294.88"/>
      </g>
     </g>
    </g>
    <g id="xtick_8">
     <g id="line2d_19">
      <path clip-path="url(#p836c038b8f)" d="M 174.854857 294.88 
L 174.854857 6.845228 
" style="fill:none;stroke:#b0b0b0;stroke-linecap:square;stroke-width:0.8;"/>
     </g>
     <g id="line2d_20">
      <g>
       <use style="stroke:#000000;stroke-width:0.6;" x="174.854857" xlink:href="#m80e7360b01" y="294.88"/>
      </g>
     </g>
    </g>
    <g id="xtick_9">
     <g id="line2d_21">
      <path clip-path="url(#p836c038b8f)" d="M 214.433143 294.88 
L 214.433143 6.845228 
" style="fill:none;stroke:#b0b0b0;stroke-linecap:square;stroke-width:0.8;"/>
     </g>
     <g id="line2d_22">
      <g>
       <use style="stroke:#000000;stroke-width:0.6;" x="214.433143" xlink:href="#m80e7360b01" y="294.88"/>
      </g>
     </g>
    </g>
    <g id="xtick_10">
     <g id="line2d_23">
      <path clip-path="url(#p836c038b8f)" d="M 254.011429 294.88 
L 254.011429 6.845228 
" style="fill:none;stroke:#b0b0b0;stroke-linecap:square;stroke-width:0.8;"/>
     </g>
     <g id="line2d_24">
      <g>
       <use style="stroke:#000000;stroke-width:0.6;" x="254.011429" xlink:href="#m80e7360b01" y="294.88"/>
      </g>
     </g>
    </g>
    <g id="xtick_11">
     <g id="line2d_25">
      <path clip-path="url(#p836c038b8f)" d="M 293.589714 294.88 
L 293.589714 6.845228 
" style="fill:none;stroke:#b0b0b0;stroke-linecap:square;stroke-width:0.8;"/>
     </g>
     <g id="line2d_26">
      <g>
       <use style="stroke:#000000;stroke-width:0.6;" x="293.589714" xlink:href="#m80e7360b01" y="294.88"/>
      </g>
     </g>
    </g>
    <g id="xtick_12">
     <g id="line2d_27">
      <path clip-path="url(#p836c038b8f)" d="M 333.168 294.88 
L 333.168 6.845228 
" style="fill:none;stroke:#b0b0b0;stroke-linecap:square;stroke-width:0.8;"/>
     </g>
     <g id="line2d_28">
      <g>
       <use style="stroke:#000000;stroke-width:0.6;" x="333.168" xlink:href="#m80e7360b01" y="294.88"/>
      </g>
     </g>
    </g>
    <g id="text_5">
     <!-- log10(# f-evals / dimension) -->
     <defs>
      <path d="M 9.421875 75.984375 
L 18.40625 75.984375 
L 18.40625 0 
L 9.421875 0 
z
" id="DejaVuSans-6c"/>
      <path d="M 30.609375 48.390625 
Q 23.390625 48.390625 19.1875 42.75 
Q 14.984375 37.109375 14.984375 27.296875 
Q 14.984375 17.484375 19.15625 11.84375 
Q 23.34375 6.203125 30.609375 6.203125 
Q 37.796875 6.203125 41.984375 11.859375 
Q 46.1875 17.53125 46.1875 27.296875 
Q 46.1875 37.015625 41.984375 42.703125 
Q 37.796875 48.390625 30.609375 48.390625 
z
M 30.609375 56 
Q 42.328125 56 49.015625 48.375 
Q 55.71875 40.765625 55.71875 27.296875 
Q 55.71875 13.875 49.015625 6.21875 
Q 42.328125 -1.421875 30.609375 -1.421875 
Q 18.84375 -1.421875 12.171875 6.21875 
Q 5.515625 13.875 5.515625 27.296875 
Q 5.515625 40.765625 12.171875 48.375 
Q 18.84375 56 30.609375 56 
z
" id="DejaVuSans-6f"/>
      <path d="M 45.40625 27.984375 
Q 45.40625 37.75 41.375 43.109375 
Q 37.359375 48.484375 30.078125 48.484375 
Q 22.859375 48.484375 18.828125 43.109375 
Q 14.796875 37.75 14.796875 27.984375 
Q 14.796875 18.265625 18.828125 12.890625 
Q 22.859375 7.515625 30.078125 7.515625 
Q 37.359375 7.515625 41.375 12.890625 
Q 45.40625 18.265625 45.40625 27.984375 
z
M 54.390625 6.78125 
Q 54.390625 -7.171875 48.1875 -13.984375 
Q 42 -20.796875 29.203125 -20.796875 
Q 24.46875 -20.796875 20.265625 -20.09375 
Q 16.0625 -19.390625 12.109375 -17.921875 
L 12.109375 -9.1875 
Q 16.0625 -11.328125 19.921875 -12.34375 
Q 23.78125 -13.375 27.78125 -13.375 
Q 36.625 -13.375 41.015625 -8.765625 
Q 45.40625 -4.15625 45.40625 5.171875 
L 45.40625 9.625 
Q 42.625 4.78125 38.28125 2.390625 
Q 33.9375 0 27.875 0 
Q 17.828125 0 11.671875 7.65625 
Q 5.515625 15.328125 5.515625 27.984375 
Q 5.515625 40.671875 11.671875 48.328125 
Q 17.828125 56 27.875 56 
Q 33.9375 56 38.28125 53.609375 
Q 42.625 51.21875 45.40625 46.390625 
L 45.40625 54.6875 
L 54.390625 54.6875 
z
" id="DejaVuSans-67"/>
      <path d="M 12.40625 8.296875 
L 28.515625 8.296875 
L 28.515625 63.921875 
L 10.984375 60.40625 
L 10.984375 69.390625 
L 28.421875 72.90625 
L 38.28125 72.90625 
L 38.28125 8.296875 
L 54.390625 8.296875 
L 54.390625 0 
L 12.40625 0 
z
" id="DejaVuSans-31"/>
      <path d="M 31 75.875 
Q 24.46875 64.65625 21.28125 53.65625 
Q 18.109375 42.671875 18.109375 31.390625 
Q 18.109375 20.125 21.3125 9.0625 
Q 24.515625 -2 31 -13.1875 
L 23.1875 -13.1875 
Q 15.875 -1.703125 12.234375 9.375 
Q 8.59375 20.453125 8.59375 31.390625 
Q 8.59375 42.28125 12.203125 53.3125 
Q 15.828125 64.359375 23.1875 75.875 
z
" id="DejaVuSans-28"/>
      <path d="M 51.125 44 
L 36.921875 44 
L 32.8125 27.6875 
L 47.125 27.6875 
z
M 43.796875 71.78125 
L 38.71875 51.515625 
L 52.984375 51.515625 
L 58.109375 71.78125 
L 65.921875 71.78125 
L 60.890625 51.515625 
L 76.125 51.515625 
L 76.125 44 
L 58.984375 44 
L 54.984375 27.6875 
L 70.515625 27.6875 
L 70.515625 20.21875 
L 53.078125 20.21875 
L 48 0 
L 40.1875 0 
L 45.21875 20.21875 
L 30.90625 20.21875 
L 25.875 0 
L 18.015625 0 
L 23.09375 20.21875 
L 7.71875 20.21875 
L 7.71875 27.6875 
L 24.90625 27.6875 
L 29 44 
L 13.28125 44 
L 13.28125 51.515625 
L 30.90625 51.515625 
L 35.890625 71.78125 
z
" id="DejaVuSans-23"/>
      <path id="DejaVuSans-20"/>
      <path d="M 37.109375 75.984375 
L 37.109375 68.5 
L 28.515625 68.5 
Q 23.6875 68.5 21.796875 66.546875 
Q 19.921875 64.59375 19.921875 59.515625 
L 19.921875 54.6875 
L 34.71875 54.6875 
L 34.71875 47.703125 
L 19.921875 47.703125 
L 19.921875 0 
L 10.890625 0 
L 10.890625 47.703125 
L 2.296875 47.703125 
L 2.296875 54.6875 
L 10.890625 54.6875 
L 10.890625 58.5 
Q 10.890625 67.625 15.140625 71.796875 
Q 19.390625 75.984375 28.609375 75.984375 
z
" id="DejaVuSans-66"/>
      <path d="M 4.890625 31.390625 
L 31.203125 31.390625 
L 31.203125 23.390625 
L 4.890625 23.390625 
z
" id="DejaVuSans-2d"/>
      <path d="M 56.203125 29.59375 
L 56.203125 25.203125 
L 14.890625 25.203125 
Q 15.484375 15.921875 20.484375 11.0625 
Q 25.484375 6.203125 34.421875 6.203125 
Q 39.59375 6.203125 44.453125 7.46875 
Q 49.3125 8.734375 54.109375 11.28125 
L 54.109375 2.78125 
Q 49.265625 0.734375 44.1875 -0.34375 
Q 39.109375 -1.421875 33.890625 -1.421875 
Q 20.796875 -1.421875 13.15625 6.1875 
Q 5.515625 13.8125 5.515625 26.8125 
Q 5.515625 40.234375 12.765625 48.109375 
Q 20.015625 56 32.328125 56 
Q 43.359375 56 49.78125 48.890625 
Q 56.203125 41.796875 56.203125 29.59375 
z
M 47.21875 32.234375 
Q 47.125 39.59375 43.09375 43.984375 
Q 39.0625 48.390625 32.421875 48.390625 
Q 24.90625 48.390625 20.390625 44.140625 
Q 15.875 39.890625 15.1875 32.171875 
z
" id="DejaVuSans-65"/>
      <path d="M 2.984375 54.6875 
L 12.5 54.6875 
L 29.59375 8.796875 
L 46.6875 54.6875 
L 56.203125 54.6875 
L 35.6875 0 
L 23.484375 0 
z
" id="DejaVuSans-76"/>
      <path d="M 34.28125 27.484375 
Q 23.390625 27.484375 19.1875 25 
Q 14.984375 22.515625 14.984375 16.5 
Q 14.984375 11.71875 18.140625 8.90625 
Q 21.296875 6.109375 26.703125 6.109375 
Q 34.1875 6.109375 38.703125 11.40625 
Q 43.21875 16.703125 43.21875 25.484375 
L 43.21875 27.484375 
z
M 52.203125 31.203125 
L 52.203125 0 
L 43.21875 0 
L 43.21875 8.296875 
Q 40.140625 3.328125 35.546875 0.953125 
Q 30.953125 -1.421875 24.3125 -1.421875 
Q 15.921875 -1.421875 10.953125 3.296875 
Q 6 8.015625 6 15.921875 
Q 6 25.140625 12.171875 29.828125 
Q 18.359375 34.515625 30.609375 34.515625 
L 43.21875 34.515625 
L 43.21875 35.40625 
Q 43.21875 41.609375 39.140625 45 
Q 35.0625 48.390625 27.6875 48.390625 
Q 23 48.390625 18.546875 47.265625 
Q 14.109375 46.140625 10.015625 43.890625 
L 10.015625 52.203125 
Q 14.9375 54.109375 19.578125 55.046875 
Q 24.21875 56 28.609375 56 
Q 40.484375 56 46.34375 49.84375 
Q 52.203125 43.703125 52.203125 31.203125 
z
" id="DejaVuSans-61"/>
      <path d="M 44.28125 53.078125 
L 44.28125 44.578125 
Q 40.484375 46.53125 36.375 47.5 
Q 32.28125 48.484375 27.875 48.484375 
Q 21.1875 48.484375 17.84375 46.4375 
Q 14.5 44.390625 14.5 40.28125 
Q 14.5 37.15625 16.890625 35.375 
Q 19.28125 33.59375 26.515625 31.984375 
L 29.59375 31.296875 
Q 39.15625 29.25 43.1875 25.515625 
Q 47.21875 21.78125 47.21875 15.09375 
Q 47.21875 7.46875 41.1875 3.015625 
Q 35.15625 -1.421875 24.609375 -1.421875 
Q 20.21875 -1.421875 15.453125 -0.5625 
Q 10.6875 0.296875 5.421875 2 
L 5.421875 11.28125 
Q 10.40625 8.6875 15.234375 7.390625 
Q 20.0625 6.109375 24.8125 6.109375 
Q 31.15625 6.109375 34.5625 8.28125 
Q 37.984375 10.453125 37.984375 14.40625 
Q 37.984375 18.0625 35.515625 20.015625 
Q 33.0625 21.96875 24.703125 23.78125 
L 21.578125 24.515625 
Q 13.234375 26.265625 9.515625 29.90625 
Q 5.8125 33.546875 5.8125 39.890625 
Q 5.8125 47.609375 11.28125 51.796875 
Q 16.75 56 26.8125 56 
Q 31.78125 56 36.171875 55.265625 
Q 40.578125 54.546875 44.28125 53.078125 
z
" id="DejaVuSans-73"/>
      <path d="M 25.390625 72.90625 
L 33.6875 72.90625 
L 8.296875 -9.28125 
L 0 -9.28125 
z
" id="DejaVuSans-2f"/>
      <path d="M 45.40625 46.390625 
L 45.40625 75.984375 
L 54.390625 75.984375 
L 54.390625 0 
L 45.40625 0 
L 45.40625 8.203125 
Q 42.578125 3.328125 38.25 0.953125 
Q 33.9375 -1.421875 27.875 -1.421875 
Q 17.96875 -1.421875 11.734375 6.484375 
Q 5.515625 14.40625 5.515625 27.296875 
Q 5.515625 40.1875 11.734375 48.09375 
Q 17.96875 56 27.875 56 
Q 33.9375 56 38.25 53.625 
Q 42.578125 51.265625 45.40625 46.390625 
z
M 14.796875 27.296875 
Q 14.796875 17.390625 18.875 11.75 
Q 22.953125 6.109375 30.078125 6.109375 
Q 37.203125 6.109375 41.296875 11.75 
Q 45.40625 17.390625 45.40625 27.296875 
Q 45.40625 37.203125 41.296875 42.84375 
Q 37.203125 48.484375 30.078125 48.484375 
Q 22.953125 48.484375 18.875 42.84375 
Q 14.796875 37.203125 14.796875 27.296875 
z
" id="DejaVuSans-64"/>
      <path d="M 9.421875 54.6875 
L 18.40625 54.6875 
L 18.40625 0 
L 9.421875 0 
z
M 9.421875 75.984375 
L 18.40625 75.984375 
L 18.40625 64.59375 
L 9.421875 64.59375 
z
" id="DejaVuSans-69"/>
      <path d="M 52 44.1875 
Q 55.375 50.25 60.0625 53.125 
Q 64.75 56 71.09375 56 
Q 79.640625 56 84.28125 50.015625 
Q 88.921875 44.046875 88.921875 33.015625 
L 88.921875 0 
L 79.890625 0 
L 79.890625 32.71875 
Q 79.890625 40.578125 77.09375 44.375 
Q 74.3125 48.1875 68.609375 48.1875 
Q 61.625 48.1875 57.5625 43.546875 
Q 53.515625 38.921875 53.515625 30.90625 
L 53.515625 0 
L 44.484375 0 
L 44.484375 32.71875 
Q 44.484375 40.625 41.703125 44.40625 
Q 38.921875 48.1875 33.109375 48.1875 
Q 26.21875 48.1875 22.15625 43.53125 
Q 18.109375 38.875 18.109375 30.90625 
L 18.109375 0 
L 9.078125 0 
L 9.078125 54.6875 
L 18.109375 54.6875 
L 18.109375 46.1875 
Q 21.1875 51.21875 25.484375 53.609375 
Q 29.78125 56 35.6875 56 
Q 41.65625 56 45.828125 52.96875 
Q 50 49.953125 52 44.1875 
z
" id="DejaVuSans-6d"/>
      <path d="M 54.890625 33.015625 
L 54.890625 0 
L 45.90625 0 
L 45.90625 32.71875 
Q 45.90625 40.484375 42.875 44.328125 
Q 39.84375 48.1875 33.796875 48.1875 
Q 26.515625 48.1875 22.3125 43.546875 
Q 18.109375 38.921875 18.109375 30.90625 
L 18.109375 0 
L 9.078125 0 
L 9.078125 54.6875 
L 18.109375 54.6875 
L 18.109375 46.1875 
Q 21.34375 51.125 25.703125 53.5625 
Q 30.078125 56 35.796875 56 
Q 45.21875 56 50.046875 50.171875 
Q 54.890625 44.34375 54.890625 33.015625 
z
" id="DejaVuSans-6e"/>
      <path d="M 8.015625 75.875 
L 15.828125 75.875 
Q 23.140625 64.359375 26.78125 53.3125 
Q 30.421875 42.28125 30.421875 31.390625 
Q 30.421875 20.453125 26.78125 9.375 
Q 23.140625 -1.703125 15.828125 -13.1875 
L 8.015625 -13.1875 
Q 14.5 -2 17.703125 9.0625 
Q 20.90625 20.125 20.90625 31.390625 
Q 20.90625 42.671875 17.703125 53.65625 
Q 14.5 64.65625 8.015625 75.875 
z
" id="DejaVuSans-29"/>
     </defs>
     <g transform="translate(73.803219 338.153594)scale(0.17 -0.17)">
      <use xlink:href="#DejaVuSans-6c"/>
      <use x="27.783203" xlink:href="#DejaVuSans-6f"/>
      <use x="88.964844" xlink:href="#DejaVuSans-67"/>
      <use x="152.441406" xlink:href="#DejaVuSans-31"/>
      <use x="216.064453" xlink:href="#DejaVuSans-30"/>
      <use x="279.6875" xlink:href="#DejaVuSans-28"/>
      <use x="318.701172" xlink:href="#DejaVuSans-23"/>
      <use x="402.490234" xlink:href="#DejaVuSans-20"/>
      <use x="434.277344" xlink:href="#DejaVuSans-66"/>
      <use x="469.404297" xlink:href="#DejaVuSans-2d"/>
      <use x="505.488281" xlink:href="#DejaVuSans-65"/>
      <use x="567.011719" xlink:href="#DejaVuSans-76"/>
      <use x="626.191406" xlink:href="#DejaVuSans-61"/>
      <use x="687.470703" xlink:href="#DejaVuSans-6c"/>
      <use x="715.253906" xlink:href="#DejaVuSans-73"/>
      <use x="767.353516" xlink:href="#DejaVuSans-20"/>
      <use x="799.140625" xlink:href="#DejaVuSans-2f"/>
      <use x="832.832031" xlink:href="#DejaVuSans-20"/>
      <use x="864.619141" xlink:href="#DejaVuSans-64"/>
      <use x="928.095703" xlink:href="#DejaVuSans-69"/>
      <use x="955.878906" xlink:href="#DejaVuSans-6d"/>
      <use x="1053.291016" xlink:href="#DejaVuSans-65"/>
      <use x="1114.814453" xlink:href="#DejaVuSans-6e"/>
      <use x="1178.193359" xlink:href="#DejaVuSans-73"/>
      <use x="1230.292969" xlink:href="#DejaVuSans-69"/>
      <use x="1258.076172" xlink:href="#DejaVuSans-6f"/>
      <use x="1319.257812" xlink:href="#DejaVuSans-6e"/>
      <use x="1382.636719" xlink:href="#DejaVuSans-29"/>
     </g>
    </g>
   </g>
   <g id="matplotlib.axis_2">
    <g id="ytick_1">
     <g id="line2d_29">
      <path clip-path="url(#p836c038b8f)" d="M 56.12 294.88 
L 333.168 294.88 
" style="fill:none;stroke:#b0b0b0;stroke-linecap:square;stroke-width:0.8;"/>
     </g>
     <g id="line2d_30">
      <defs>
       <path d="M 0 0 
L -3.5 0 
" id="mc4aba3da34" style="stroke:#000000;stroke-width:0.8;"/>
      </defs>
      <g>
       <use style="stroke:#000000;stroke-width:0.8;" x="56.12" xlink:href="#mc4aba3da34" y="294.88"/>
      </g>
     </g>
     <g id="text_6">
      <!-- 0.0 -->
      <defs>
       <path d="M 10.6875 12.40625 
L 21 12.40625 
L 21 0 
L 10.6875 0 
z
" id="DejaVuSans-2e"/>
      </defs>
      <g transform="translate(23.675 300.95875)scale(0.16 -0.16)">
       <use xlink:href="#DejaVuSans-30"/>
       <use x="63.623047" xlink:href="#DejaVuSans-2e"/>
       <use x="95.410156" xlink:href="#DejaVuSans-30"/>
      </g>
     </g>
    </g>
    <g id="ytick_2">
     <g id="line2d_31">
      <path clip-path="url(#p836c038b8f)" d="M 56.12 237.843411 
L 333.168 237.843411 
" style="fill:none;stroke:#b0b0b0;stroke-linecap:square;stroke-width:0.8;"/>
     </g>
     <g id="line2d_32">
      <g>
       <use style="stroke:#000000;stroke-width:0.8;" x="56.12" xlink:href="#mc4aba3da34" y="237.843411"/>
      </g>
     </g>
     <g id="text_7">
      <!-- 0.2 -->
      <g transform="translate(23.675 243.922161)scale(0.16 -0.16)">
       <use xlink:href="#DejaVuSans-30"/>
       <use x="63.623047" xlink:href="#DejaVuSans-2e"/>
       <use x="95.410156" xlink:href="#DejaVuSans-32"/>
      </g>
     </g>
    </g>
    <g id="ytick_3">
     <g id="line2d_33">
      <path clip-path="url(#p836c038b8f)" d="M 56.12 180.806823 
L 333.168 180.806823 
" style="fill:none;stroke:#b0b0b0;stroke-linecap:square;stroke-width:0.8;"/>
     </g>
     <g id="line2d_34">
      <g>
       <use style="stroke:#000000;stroke-width:0.8;" x="56.12" xlink:href="#mc4aba3da34" y="180.806823"/>
      </g>
     </g>
     <g id="text_8">
      <!-- 0.4 -->
      <g transform="translate(23.675 186.885573)scale(0.16 -0.16)">
       <use xlink:href="#DejaVuSans-30"/>
       <use x="63.623047" xlink:href="#DejaVuSans-2e"/>
       <use x="95.410156" xlink:href="#DejaVuSans-34"/>
      </g>
     </g>
    </g>
    <g id="ytick_4">
     <g id="line2d_35">
      <path clip-path="url(#p836c038b8f)" d="M 56.12 123.770234 
L 333.168 123.770234 
" style="fill:none;stroke:#b0b0b0;stroke-linecap:square;stroke-width:0.8;"/>
     </g>
     <g id="line2d_36">
      <g>
       <use style="stroke:#000000;stroke-width:0.8;" x="56.12" xlink:href="#mc4aba3da34" y="123.770234"/>
      </g>
     </g>
     <g id="text_9">
      <!-- 0.6 -->
      <g transform="translate(23.675 129.848984)scale(0.16 -0.16)">
       <use xlink:href="#DejaVuSans-30"/>
       <use x="63.623047" xlink:href="#DejaVuSans-2e"/>
       <use x="95.410156" xlink:href="#DejaVuSans-36"/>
      </g>
     </g>
    </g>
    <g id="ytick_5">
     <g id="line2d_37">
      <path clip-path="url(#p836c038b8f)" d="M 56.12 66.733646 
L 333.168 66.733646 
" style="fill:none;stroke:#b0b0b0;stroke-linecap:square;stroke-width:0.8;"/>
     </g>
     <g id="line2d_38">
      <g>
       <use style="stroke:#000000;stroke-width:0.8;" x="56.12" xlink:href="#mc4aba3da34" y="66.733646"/>
      </g>
     </g>
     <g id="text_10">
      <!-- 0.8 -->
      <defs>
       <path d="M 31.78125 34.625 
Q 24.75 34.625 20.71875 30.859375 
Q 16.703125 27.09375 16.703125 20.515625 
Q 16.703125 13.921875 20.71875 10.15625 
Q 24.75 6.390625 31.78125 6.390625 
Q 38.8125 6.390625 42.859375 10.171875 
Q 46.921875 13.96875 46.921875 20.515625 
Q 46.921875 27.09375 42.890625 30.859375 
Q 38.875 34.625 31.78125 34.625 
z
M 21.921875 38.8125 
Q 15.578125 40.375 12.03125 44.71875 
Q 8.5 49.078125 8.5 55.328125 
Q 8.5 64.0625 14.71875 69.140625 
Q 20.953125 74.21875 31.78125 74.21875 
Q 42.671875 74.21875 48.875 69.140625 
Q 55.078125 64.0625 55.078125 55.328125 
Q 55.078125 49.078125 51.53125 44.71875 
Q 48 40.375 41.703125 38.8125 
Q 48.828125 37.15625 52.796875 32.3125 
Q 56.78125 27.484375 56.78125 20.515625 
Q 56.78125 9.90625 50.3125 4.234375 
Q 43.84375 -1.421875 31.78125 -1.421875 
Q 19.734375 -1.421875 13.25 4.234375 
Q 6.78125 9.90625 6.78125 20.515625 
Q 6.78125 27.484375 10.78125 32.3125 
Q 14.796875 37.15625 21.921875 38.8125 
z
M 18.3125 54.390625 
Q 18.3125 48.734375 21.84375 45.5625 
Q 25.390625 42.390625 31.78125 42.390625 
Q 38.140625 42.390625 41.71875 45.5625 
Q 45.3125 48.734375 45.3125 54.390625 
Q 45.3125 60.0625 41.71875 63.234375 
Q 38.140625 66.40625 31.78125 66.40625 
Q 25.390625 66.40625 21.84375 63.234375 
Q 18.3125 60.0625 18.3125 54.390625 
z
" id="DejaVuSans-38"/>
      </defs>
      <g transform="translate(23.675 72.812396)scale(0.16 -0.16)">
       <use xlink:href="#DejaVuSans-30"/>
       <use x="63.623047" xlink:href="#DejaVuSans-2e"/>
       <use x="95.410156" xlink:href="#DejaVuSans-38"/>
      </g>
     </g>
    </g>
    <g id="ytick_6">
     <g id="line2d_39">
      <path clip-path="url(#p836c038b8f)" d="M 56.12 9.697057 
L 333.168 9.697057 
" style="fill:none;stroke:#b0b0b0;stroke-linecap:square;stroke-width:0.8;"/>
     </g>
     <g id="line2d_40">
      <g>
       <use style="stroke:#000000;stroke-width:0.8;" x="56.12" xlink:href="#mc4aba3da34" y="9.697057"/>
      </g>
     </g>
     <g id="text_11">
      <!-- 1.0 -->
      <g transform="translate(23.675 15.775807)scale(0.16 -0.16)">
       <use xlink:href="#DejaVuSans-31"/>
       <use x="63.623047" xlink:href="#DejaVuSans-2e"/>
       <use x="95.410156" xlink:href="#DejaVuSans-30"/>
      </g>
     </g>
    </g>
    <g id="text_12">
     <!-- Fraction of function,target pairs -->
     <defs>
      <path d="M 9.8125 72.90625 
L 51.703125 72.90625 
L 51.703125 64.59375 
L 19.671875 64.59375 
L 19.671875 43.109375 
L 48.578125 43.109375 
L 48.578125 34.8125 
L 19.671875 34.8125 
L 19.671875 0 
L 9.8125 0 
z
" id="DejaVuSans-46"/>
      <path d="M 41.109375 46.296875 
Q 39.59375 47.171875 37.8125 47.578125 
Q 36.03125 48 33.890625 48 
Q 26.265625 48 22.1875 43.046875 
Q 18.109375 38.09375 18.109375 28.8125 
L 18.109375 0 
L 9.078125 0 
L 9.078125 54.6875 
L 18.109375 54.6875 
L 18.109375 46.1875 
Q 20.953125 51.171875 25.484375 53.578125 
Q 30.03125 56 36.53125 56 
Q 37.453125 56 38.578125 55.875 
Q 39.703125 55.765625 41.0625 55.515625 
z
" id="DejaVuSans-72"/>
      <path d="M 48.78125 52.59375 
L 48.78125 44.1875 
Q 44.96875 46.296875 41.140625 47.34375 
Q 37.3125 48.390625 33.40625 48.390625 
Q 24.65625 48.390625 19.8125 42.84375 
Q 14.984375 37.3125 14.984375 27.296875 
Q 14.984375 17.28125 19.8125 11.734375 
Q 24.65625 6.203125 33.40625 6.203125 
Q 37.3125 6.203125 41.140625 7.25 
Q 44.96875 8.296875 48.78125 10.40625 
L 48.78125 2.09375 
Q 45.015625 0.34375 40.984375 -0.53125 
Q 36.96875 -1.421875 32.421875 -1.421875 
Q 20.0625 -1.421875 12.78125 6.34375 
Q 5.515625 14.109375 5.515625 27.296875 
Q 5.515625 40.671875 12.859375 48.328125 
Q 20.21875 56 33.015625 56 
Q 37.15625 56 41.109375 55.140625 
Q 45.0625 54.296875 48.78125 52.59375 
z
" id="DejaVuSans-63"/>
      <path d="M 18.3125 70.21875 
L 18.3125 54.6875 
L 36.8125 54.6875 
L 36.8125 47.703125 
L 18.3125 47.703125 
L 18.3125 18.015625 
Q 18.3125 11.328125 20.140625 9.421875 
Q 21.96875 7.515625 27.59375 7.515625 
L 36.8125 7.515625 
L 36.8125 0 
L 27.59375 0 
Q 17.1875 0 13.234375 3.875 
Q 9.28125 7.765625 9.28125 18.015625 
L 9.28125 47.703125 
L 2.6875 47.703125 
L 2.6875 54.6875 
L 9.28125 54.6875 
L 9.28125 70.21875 
z
" id="DejaVuSans-74"/>
      <path d="M 8.5 21.578125 
L 8.5 54.6875 
L 17.484375 54.6875 
L 17.484375 21.921875 
Q 17.484375 14.15625 20.5 10.265625 
Q 23.53125 6.390625 29.59375 6.390625 
Q 36.859375 6.390625 41.078125 11.03125 
Q 45.3125 15.671875 45.3125 23.6875 
L 45.3125 54.6875 
L 54.296875 54.6875 
L 54.296875 0 
L 45.3125 0 
L 45.3125 8.40625 
Q 42.046875 3.421875 37.71875 1 
Q 33.40625 -1.421875 27.6875 -1.421875 
Q 18.265625 -1.421875 13.375 4.4375 
Q 8.5 10.296875 8.5 21.578125 
z
M 31.109375 56 
z
" id="DejaVuSans-75"/>
      <path d="M 11.71875 12.40625 
L 22.015625 12.40625 
L 22.015625 4 
L 14.015625 -11.625 
L 7.71875 -11.625 
L 11.71875 4 
z
" id="DejaVuSans-2c"/>
      <path d="M 18.109375 8.203125 
L 18.109375 -20.796875 
L 9.078125 -20.796875 
L 9.078125 54.6875 
L 18.109375 54.6875 
L 18.109375 46.390625 
Q 20.953125 51.265625 25.265625 53.625 
Q 29.59375 56 35.59375 56 
Q 45.5625 56 51.78125 48.09375 
Q 58.015625 40.1875 58.015625 27.296875 
Q 58.015625 14.40625 51.78125 6.484375 
Q 45.5625 -1.421875 35.59375 -1.421875 
Q 29.59375 -1.421875 25.265625 0.953125 
Q 20.953125 3.328125 18.109375 8.203125 
z
M 48.6875 27.296875 
Q 48.6875 37.203125 44.609375 42.84375 
Q 40.53125 48.484375 33.40625 48.484375 
Q 26.265625 48.484375 22.1875 42.84375 
Q 18.109375 37.203125 18.109375 27.296875 
Q 18.109375 17.390625 22.1875 11.75 
Q 26.265625 6.109375 33.40625 6.109375 
Q 40.53125 6.109375 44.609375 11.75 
Q 48.6875 17.390625 48.6875 27.296875 
z
" id="DejaVuSans-70"/>
     </defs>
     <g transform="translate(16.139531 286.001989)rotate(-90)scale(0.17 -0.17)">
      <use xlink:href="#DejaVuSans-46"/>
      <use x="57.410156" xlink:href="#DejaVuSans-72"/>
      <use x="98.523438" xlink:href="#DejaVuSans-61"/>
      <use x="159.802734" xlink:href="#DejaVuSans-63"/>
      <use x="214.783203" xlink:href="#DejaVuSans-74"/>
      <use x="253.992188" xlink:href="#DejaVuSans-69"/>
      <use x="281.775391" xlink:href="#DejaVuSans-6f"/>
      <use x="342.957031" xlink:href="#DejaVuSans-6e"/>
      <use x="406.335938" xlink:href="#DejaVuSans-20"/>
      <use x="438.123047" xlink:href="#DejaVuSans-6f"/>
      <use x="499.304688" xlink:href="#DejaVuSans-66"/>
      <use x="534.509766" xlink:href="#DejaVuSans-20"/>
      <use x="566.296875" xlink:href="#DejaVuSans-66"/>
      <use x="601.501953" xlink:href="#DejaVuSans-75"/>
      <use x="664.880859" xlink:href="#DejaVuSans-6e"/>
      <use x="728.259766" xlink:href="#DejaVuSans-63"/>
      <use x="783.240234" xlink:href="#DejaVuSans-74"/>
      <use x="822.449219" xlink:href="#DejaVuSans-69"/>
      <use x="850.232422" xlink:href="#DejaVuSans-6f"/>
      <use x="911.414062" xlink:href="#DejaVuSans-6e"/>
      <use x="974.792969" xlink:href="#DejaVuSans-2c"/>
      <use x="1006.580078" xlink:href="#DejaVuSans-74"/>
      <use x="1045.789062" xlink:href="#DejaVuSans-61"/>
      <use x="1107.068359" xlink:href="#DejaVuSans-72"/>
      <use x="1148.166016" xlink:href="#DejaVuSans-67"/>
      <use x="1211.642578" xlink:href="#DejaVuSans-65"/>
      <use x="1273.166016" xlink:href="#DejaVuSans-74"/>
      <use x="1312.375" xlink:href="#DejaVuSans-20"/>
      <use x="1344.162109" xlink:href="#DejaVuSans-70"/>
      <use x="1407.638672" xlink:href="#DejaVuSans-61"/>
      <use x="1468.917969" xlink:href="#DejaVuSans-69"/>
      <use x="1496.701172" xlink:href="#DejaVuSans-72"/>
      <use x="1537.814453" xlink:href="#DejaVuSans-73"/>
     </g>
    </g>
   </g>
   <g id="line2d_41">
    <defs>
     <path d="M 0 1.5 
C 0.397805 1.5 0.77937 1.341951 1.06066 1.06066 
C 1.341951 0.77937 1.5 0.397805 1.5 0 
C 1.5 -0.397805 1.341951 -0.77937 1.06066 -1.06066 
C 0.77937 -1.341951 0.397805 -1.5 0 -1.5 
C -0.397805 -1.5 -0.77937 -1.341951 -1.06066 -1.06066 
C -1.341951 -0.77937 -1.5 -0.397805 -1.5 0 
C -1.5 0.397805 -1.341951 0.77937 -1.06066 1.06066 
C -0.77937 1.341951 -0.397805 1.5 0 1.5 
z
" id="m508beb3e3d" style="stroke:#f5deb3;"/>
    </defs>
    <g>
     <use style="fill:#f5deb3;stroke:#f5deb3;" x="152.622886" xlink:href="#m508beb3e3d" y="9.697057"/>
     <use style="fill:#f5deb3;stroke:#f5deb3;" x="152.622886" xlink:href="#m508beb3e3d" y="9.697057"/>
    </g>
   </g>
   <g id="line2d_42">
    <defs>
     <path d="M 0 1.5 
C 0.397805 1.5 0.77937 1.341951 1.06066 1.06066 
C 1.341951 0.77937 1.5 0.397805 1.5 0 
C 1.5 -0.397805 1.341951 -0.77937 1.06066 -1.06066 
C 0.77937 -1.341951 0.397805 -1.5 0 -1.5 
C -0.397805 -1.5 -0.77937 -1.341951 -1.06066 -1.06066 
C -1.341951 -0.77937 -1.5 -0.397805 -1.5 0 
C -1.5 0.397805 -1.341951 0.77937 -1.06066 1.06066 
C -0.77937 1.341951 -0.397805 1.5 0 1.5 
z
" id="mce2dcb2664" style="stroke:#000080;"/>
    </defs>
    <g>
     <use style="fill:#000080;stroke:#000080;" x="201.757431" xlink:href="#mce2dcb2664" y="169.623178"/>
     <use style="fill:#000080;stroke:#000080;" x="201.757431" xlink:href="#mce2dcb2664" y="169.623178"/>
    </g>
   </g>
   <g id="line2d_43">
    <path d="M 37.236359 294.88 
L 37.236359 289.064505 
L 88.728896 289.064505 
L 88.728896 288.952668 
L 91.862754 288.952668 
L 91.862754 288.840832 
L 96.807615 288.840832 
L 96.807615 288.728995 
L 97.849669 288.728995 
L 97.849669 288.617159 
L 98.832144 288.617159 
L 98.832144 288.505322 
L 99.761485 288.505322 
L 99.761485 288.169813 
L 100.207968 288.169813 
L 100.207968 287.94614 
L 100.643147 287.94614 
L 100.643147 287.610631 
L 101.067579 287.610631 
L 101.067579 287.498794 
L 101.481783 287.498794 
L 101.481783 287.051449 
L 101.88624 287.051449 
L 101.88624 286.827776 
L 102.281398 286.827776 
L 102.281398 286.492266 
L 102.667676 286.492266 
L 102.667676 285.821248 
L 103.045463 285.821248 
L 103.045463 285.709411 
L 103.415125 285.709411 
L 103.415125 285.150229 
L 103.777005 285.150229 
L 103.777005 284.81472 
L 104.131422 284.81472 
L 104.131422 284.591047 
L 104.478679 284.591047 
L 104.478679 284.255537 
L 105.152829 284.255537 
L 105.152829 284.143701 
L 106.11693 284.143701 
L 106.11693 284.031865 
L 106.426644 284.031865 
L 106.426644 283.808192 
L 106.730875 283.808192 
L 106.730875 283.472682 
L 107.323646 283.472682 
L 107.323646 283.249009 
L 108.451173 283.249009 
L 108.451173 283.137173 
L 108.721866 283.137173 
L 108.721866 283.025336 
L 108.988361 283.025336 
L 108.988361 282.9135 
L 109.250788 282.9135 
L 109.250788 282.801664 
L 109.76392 282.801664 
L 109.76392 282.689827 
L 110.014853 282.689827 
L 110.014853 282.577991 
L 110.262176 282.577991 
L 110.262176 282.354318 
L 110.505991 282.354318 
L 110.505991 282.242481 
L 110.746395 282.242481 
L 110.746395 282.018808 
L 110.983483 282.018808 
L 110.983483 281.906972 
L 111.217346 281.906972 
L 111.217346 281.795136 
L 111.448069 281.795136 
L 111.448069 281.683299 
L 111.675736 281.683299 
L 111.675736 281.459626 
L 111.900428 281.459626 
L 111.900428 281.01228 
L 112.122219 281.01228 
L 112.122219 280.788608 
L 112.557398 280.788608 
L 112.557398 280.676771 
L 113.19018 280.676771 
L 113.19018 280.341262 
L 113.396034 280.341262 
L 113.396034 280.117589 
L 113.599452 280.117589 
L 113.599452 279.893916 
L 113.800491 279.893916 
L 113.800491 279.782079 
L 113.999206 279.782079 
L 113.999206 279.670243 
L 114.195649 279.670243 
L 114.195649 279.44657 
L 114.389873 279.44657 
L 114.389873 279.222897 
L 114.581927 279.222897 
L 114.581927 279.111061 
L 114.771859 279.111061 
L 114.771859 278.887388 
L 114.959714 278.887388 
L 114.959714 278.551879 
L 115.145539 278.551879 
L 115.145539 278.216369 
L 115.329377 278.216369 
L 115.329377 278.104533 
L 115.511269 278.104533 
L 115.511269 277.88086 
L 115.691256 277.88086 
L 115.691256 277.769023 
L 115.869378 277.769023 
L 115.869378 277.657187 
L 116.045673 277.657187 
L 116.045673 277.545351 
L 116.220179 277.545351 
L 116.220179 277.321678 
L 116.39293 277.321678 
L 116.39293 277.209841 
L 116.563963 277.209841 
L 116.563963 276.986168 
L 117.715785 276.986168 
L 117.715785 276.874332 
L 117.874207 276.874332 
L 117.874207 276.650659 
L 118.031182 276.650659 
L 118.031182 276.31515 
L 118.186736 276.31515 
L 118.186736 275.867804 
L 118.795247 275.867804 
L 118.795247 275.532294 
L 119.09161 275.532294 
L 119.09161 275.420458 
L 119.237897 275.420458 
L 119.237897 275.308622 
L 119.382949 275.308622 
L 119.382949 275.084949 
L 119.526788 275.084949 
L 119.526788 274.973112 
L 119.669433 274.973112 
L 119.669433 274.861276 
L 119.810904 274.861276 
L 119.810904 274.637603 
L 119.95122 274.637603 
L 119.95122 274.302094 
L 120.0904 274.302094 
L 120.0904 274.190257 
L 120.228462 274.190257 
L 120.228462 273.966584 
L 120.501303 273.966584 
L 120.501303 273.742911 
L 120.636117 273.742911 
L 120.636117 273.295566 
L 120.769881 273.295566 
L 120.769881 272.84822 
L 120.902613 272.84822 
L 120.902613 272.736383 
L 121.034327 272.736383 
L 121.034327 272.065365 
L 121.16504 272.065365 
L 121.16504 271.953528 
L 121.294766 271.953528 
L 121.294766 271.506182 
L 121.551317 271.506182 
L 121.551317 271.170673 
L 121.678171 271.170673 
L 121.678171 270.947 
L 121.804096 270.947 
L 121.804096 270.723327 
L 121.929105 270.723327 
L 121.929105 270.611491 
L 122.053211 270.611491 
L 122.053211 270.499654 
L 122.176427 270.499654 
L 122.176427 270.052309 
L 122.298767 270.052309 
L 122.298767 269.828636 
L 122.420242 269.828636 
L 122.420242 269.716799 
L 122.540864 269.716799 
L 122.540864 269.38129 
L 122.660646 269.38129 
L 122.660646 269.157617 
L 122.779599 269.157617 
L 122.779599 269.04578 
L 122.897734 269.04578 
L 122.897734 268.822108 
L 123.015063 268.822108 
L 123.015063 268.262925 
L 123.131597 268.262925 
L 123.131597 268.151089 
L 123.247346 268.151089 
L 123.247346 267.927416 
L 123.36232 267.927416 
L 123.36232 267.81558 
L 123.476531 267.81558 
L 123.476531 267.703743 
L 123.589988 267.703743 
L 123.589988 267.591907 
L 123.7027 267.591907 
L 123.7027 267.48007 
L 123.814679 267.48007 
L 123.814679 267.032724 
L 124.036471 267.032724 
L 124.146303 266.809052 
L 124.255437 266.809052 
L 124.363883 266.026196 
L 124.471649 266.026196 
L 124.578744 265.690687 
L 124.685175 265.690687 
L 124.790952 265.355178 
L 124.896081 265.355178 
L 125.000572 265.131505 
L 125.104431 265.131505 
L 125.104431 264.795995 
L 125.310285 264.795995 
L 125.412295 264.236813 
L 125.513703 264.236813 
L 125.614517 263.565795 
L 125.714742 263.565795 
L 125.814387 263.342122 
L 125.913457 263.342122 
L 125.913457 263.230285 
L 126.109901 263.230285 
L 126.207287 262.671103 
L 126.304124 262.671103 
L 126.40042 262.223757 
L 126.496178 262.223757 
L 126.496178 261.888248 
L 126.68611 261.888248 
L 126.780294 261.105393 
L 126.873966 261.105393 
L 126.967129 260.54621 
L 127.05979 260.54621 
L 127.151955 259.987028 
L 127.243628 259.987028 
L 127.334814 259.204173 
L 127.42552 259.204173 
L 127.515749 258.197645 
L 127.605507 258.197645 
L 127.694799 257.526626 
L 127.783629 257.526626 
L 127.872003 256.408262 
L 127.959924 256.408262 
L 128.047399 256.072752 
L 128.221023 256.072752 
L 128.307181 255.401734 
L 128.39291 255.401734 
L 128.478214 254.842552 
L 128.563096 254.842552 
L 128.647561 254.171533 
L 128.731613 254.171533 
L 128.815257 253.500514 
L 128.898495 253.500514 
L 128.981332 253.053168 
L 129.063771 253.053168 
L 129.145817 251.711131 
L 129.227474 251.711131 
L 129.308744 250.48093 
L 129.389632 250.48093 
L 129.470141 250.145421 
L 129.550274 250.145421 
L 129.630036 249.362566 
L 129.70943 249.362566 
L 129.788458 248.803383 
L 129.867125 248.803383 
L 129.945433 247.908692 
L 130.178239 247.908692 
L 130.255146 247.237673 
L 130.33171 247.237673 
L 130.407935 246.566654 
L 130.483823 246.566654 
L 130.559378 246.231145 
L 130.634602 246.231145 
L 130.709498 245.560126 
L 130.784069 245.560126 
L 130.858318 245.000944 
L 130.932248 245.000944 
L 131.005861 244.777271 
L 131.07916 244.777271 
L 131.152148 244.441762 
L 131.224827 244.441762 
L 131.2972 243.88258 
L 131.36927 243.88258 
L 131.441039 243.658907 
L 131.51251 243.658907 
L 131.583684 243.099724 
L 131.725155 243.099724 
L 131.795457 242.764215 
L 131.865471 242.764215 
L 131.865471 242.540542 
L 132.004651 242.540542 
L 132.004651 242.428706 
L 132.142713 242.428706 
L 132.211331 241.645851 
L 132.347749 241.645851 
L 132.415555 241.422178 
L 132.483094 241.422178 
L 132.550368 240.41565 
L 132.684132 240.41565 
L 132.684132 240.303813 
L 132.816864 240.303813 
L 132.882847 239.856467 
L 133.014059 239.856467 
L 133.079291 239.185449 
L 133.144276 239.185449 
L 133.209017 238.51443 
L 133.273515 238.51443 
L 133.337771 237.955248 
L 133.465568 237.955248 
L 133.529112 237.619739 
L 133.592422 237.619739 
L 133.6555 237.060556 
L 133.718347 237.060556 
L 133.780965 236.501374 
L 133.843356 236.501374 
L 133.905521 235.830355 
L 133.967462 235.830355 
L 134.029181 235.159337 
L 134.151957 235.159337 
L 134.213018 234.823827 
L 134.273863 234.823827 
L 134.334493 234.376482 
L 134.39491 234.376482 
L 134.455115 233.817299 
L 134.515111 233.817299 
L 134.515111 233.593626 
L 134.634477 233.593626 
L 134.69385 233.146281 
L 134.753019 233.146281 
L 134.811986 232.363425 
L 134.87075 232.363425 
L 134.929315 231.91608 
L 135.045848 231.91608 
L 135.045848 231.245061 
L 135.161597 231.245061 
L 135.21918 230.797715 
L 135.276571 230.797715 
L 135.333772 230.350369 
L 135.390782 230.350369 
L 135.390782 229.791187 
L 135.560688 229.791187 
L 135.616951 229.008332 
L 135.673032 229.008332 
L 135.72893 228.337313 
L 135.784647 228.337313 
L 135.895542 227.778131 
L 135.950722 227.778131 
L 136.060554 227.107112 
L 136.169688 227.107112 
L 136.278134 226.54793 
L 136.332102 226.54793 
L 136.439531 225.653239 
L 136.492995 225.653239 
L 136.546293 225.094056 
L 136.652396 225.094056 
L 136.757848 224.534874 
L 136.810332 224.534874 
L 136.914823 223.640183 
L 136.966831 223.640183 
L 136.966831 223.304673 
L 137.121917 223.304673 
L 137.224536 222.409982 
L 137.275617 222.409982 
L 137.377325 221.738963 
L 137.528768 221.738963 
L 137.628993 221.067944 
L 137.678888 221.067944 
L 137.778244 220.732435 
L 137.827708 220.732435 
L 137.926211 219.94958 
L 138.024152 219.94958 
L 138.072914 219.502234 
L 138.170025 219.502234 
L 138.266591 218.719379 
L 138.314671 218.719379 
L 138.410429 218.04836 
L 138.458109 218.04836 
L 138.553074 217.601014 
L 138.600361 217.601014 
L 138.694545 216.594486 
L 138.741445 216.594486 
L 138.834862 215.587958 
L 138.88138 215.587958 
L 138.974042 214.91694 
L 139.066206 214.91694 
L 139.157879 214.245921 
L 139.203533 214.245921 
L 139.294478 213.127556 
L 139.339771 213.127556 
L 139.43 212.680211 
L 139.474938 212.680211 
L 139.519758 212.232865 
L 139.742124 212.232865 
L 139.830271 211.226337 
L 139.917968 211.226337 
L 140.00522 210.667155 
L 140.048681 210.667155 
L 140.092032 209.884299 
L 140.221432 209.884299 
L 140.307161 208.989608 
L 140.349866 208.989608 
L 140.392465 208.542262 
L 140.477347 208.542262 
L 140.561812 208.206753 
L 140.645865 208.206753 
L 140.729508 207.535734 
L 140.812746 207.535734 
L 140.854214 207.088388 
L 141.019094 207.088388 
L 141.100945 206.752879 
L 141.141725 206.752879 
L 141.182408 206.08186 
L 141.303883 206.08186 
L 141.344185 205.746351 
L 141.424506 205.746351 
L 141.504453 205.299005 
L 141.544287 205.299005 
L 141.58403 205.075332 
L 141.66324 205.075332 
L 141.702709 204.627986 
L 141.781376 204.627986 
L 141.859684 204.180641 
L 141.898705 204.180641 
L 141.976481 203.509622 
L 142.015238 203.509622 
L 142.092491 203.062276 
L 142.169397 203.062276 
L 142.245962 202.838603 
L 142.322186 202.838603 
L 142.360172 202.503094 
L 142.623749 202.503094 
L 142.69832 201.943912 
L 142.809574 201.943912 
L 142.920112 201.496566 
L 143.029944 201.496566 
L 143.066399 201.272893 
L 143.175303 201.272893 
L 143.175303 201.161056 
L 143.497935 201.161056 
L 143.497935 201.04922 
L 143.709708 201.04922 
L 143.709708 200.937384 
L 143.884213 200.937384 
L 143.884213 200.825547 
L 144.022553 200.825547 
L 144.125582 200.266365 
L 144.193927 200.266365 
L 144.262 200.042692 
L 144.464619 200.042692 
L 144.464619 199.930855 
L 144.598384 199.930855 
L 144.631663 199.595346 
L 144.731115 199.595346 
L 144.764138 199.371673 
L 144.862829 199.371673 
L 144.92831 199.148 
L 145.026065 199.148 
L 145.123268 198.924327 
L 145.219924 198.924327 
L 145.31604 198.588818 
L 145.37982 198.588818 
L 145.411621 198.365145 
L 145.695216 198.365145 
L 145.788718 198.141472 
L 145.85077 198.141472 
L 145.85077 198.029636 
L 146.00493 198.029636 
L 146.035596 197.694127 
L 146.39939 197.694127 
L 146.489148 197.246781 
L 146.518964 197.246781 
L 146.57844 196.911271 
L 146.667271 196.911271 
L 146.667271 196.799435 
L 146.872773 196.799435 
L 146.901931 196.575762 
L 147.018071 196.575762 
L 147.046984 196.240253 
L 147.162151 196.240253 
L 147.162151 196.01658 
L 147.276552 196.01658 
L 147.276552 195.904743 
L 147.474939 195.904743 
L 147.531203 195.457398 
L 147.809793 195.457398 
L 147.892497 195.233725 
L 148.111115 195.233725 
L 148.21939 194.786379 
L 148.246353 194.786379 
L 148.246353 194.674542 
L 148.513678 194.674542 
L 148.566647 194.45087 
L 149.010418 194.45087 
L 149.010418 194.339033 
L 149.215352 194.339033 
L 149.215352 194.227197 
L 149.417871 194.227197 
L 149.518243 193.891687 
L 149.543245 193.891687 
L 149.618032 193.556178 
L 149.692496 193.556178 
L 149.741959 192.996996 
L 149.815889 192.996996 
L 149.889502 192.773323 
L 150.204899 192.773323 
L 150.204899 192.661486 
L 150.324681 192.661486 
L 150.419909 192.437813 
L 150.538207 192.437813 
L 150.632262 192.102304 
L 150.772388 192.102304 
L 150.772388 191.878631 
L 151.026355 191.878631 
L 151.094972 191.654958 
L 151.321738 191.654958 
L 151.389189 191.431285 
L 151.634268 191.431285 
L 151.634268 191.319449 
L 151.810337 191.319449 
L 151.8977 190.98394 
L 152.006283 190.98394 
L 152.092658 190.760267 
L 152.306716 190.760267 
L 152.391598 190.536594 
L 152.476064 190.536594 
L 152.518141 190.201085 
L 152.747744 190.201085 
L 152.747744 190.089248 
L 152.912822 190.089248 
L 152.97432 189.865575 
L 153.096659 189.865575 
L 153.096659 189.753739 
L 153.458539 189.753739 
L 153.557723 189.194556 
L 153.636661 189.194556 
L 153.636661 189.08272 
L 153.871321 189.08272 
L 153.871321 188.970884 
L 154.006742 188.970884 
L 154.006742 188.859047 
L 154.236437 188.859047 
L 154.236437 188.747211 
L 154.538 188.747211 
L 154.538 188.635374 
L 154.705333 188.635374 
L 154.797596 188.411701 
L 154.907662 188.411701 
L 155.017028 188.188028 
L 155.107638 188.188028 
L 155.107638 188.076192 
L 155.269542 188.076192 
L 155.305314 187.852519 
L 155.659002 187.852519 
L 155.693974 187.628846 
L 155.954019 187.628846 
L 155.971216 187.405173 
L 156.108178 187.405173 
L 156.108178 187.293337 
L 156.27786 187.293337 
L 156.362076 186.734155 
L 156.645366 186.734155 
L 156.711349 186.510482 
L 157.005179 186.510482 
L 157.005179 186.398645 
L 157.134175 186.398645 
L 157.230291 186.174972 
L 157.468255 186.174972 
L 157.468255 186.063136 
L 157.765022 186.063136 
L 157.873078 185.839463 
L 157.919181 185.839463 
L 157.919181 185.727627 
L 158.117543 185.727627 
L 158.147858 185.503954 
L 158.298636 185.503954 
L 158.358579 185.280281 
L 158.581522 185.280281 
L 158.581522 185.168444 
L 158.830743 185.168444 
L 158.830743 185.056608 
L 159.105074 185.056608 
L 159.190803 184.832935 
L 159.276106 184.832935 
L 159.360989 184.497426 
L 159.417345 184.497426 
L 159.515526 184.161916 
L 159.571378 184.161916 
L 159.571378 184.05008 
L 159.737856 184.05008 
L 159.847951 183.826407 
L 160.294786 183.826407 
L 160.294786 183.714571 
L 160.414661 183.714571 
L 160.467671 183.490898 
L 160.988974 183.490898 
L 161.078598 183.267225 
L 161.155049 183.267225 
L 161.243814 183.043552 
L 161.544716 183.043552 
L 161.544716 182.931715 
L 161.803753 182.931715 
L 161.901416 182.48437 
L 161.925746 182.48437 
L 161.925746 182.372533 
L 162.058944 182.372533 
L 162.058944 182.14886 
L 162.262788 182.14886 
L 162.262788 182.037024 
L 162.663364 182.037024 
L 162.686639 181.813351 
L 162.963509 181.813351 
L 162.986381 181.589678 
L 163.213447 181.589678 
L 163.213447 181.477842 
L 163.482025 181.477842 
L 163.482025 181.366005 
L 164.071407 181.366005 
L 164.167702 181.142332 
L 164.421883 181.142332 
L 164.453392 180.918659 
L 164.734412 180.918659 
L 164.734412 180.806823 
L 164.898799 180.806823 
L 164.960041 180.58315 
L 165.132385 180.58315 
L 165.132385 180.471314 
L 165.402605 180.471314 
L 165.402605 180.359477 
L 165.727207 180.359477 
L 165.814681 180.135804 
L 166.452251 180.135804 
L 166.452251 180.023968 
L 166.61033 180.023968 
L 166.61033 179.912131 
L 166.958513 179.912131 
L 167.021889 179.688458 
L 167.094035 179.688458 
L 167.183793 179.464785 
L 167.273085 179.464785 
L 167.290887 179.241113 
L 167.564499 179.241113 
L 167.66055 179.01744 
L 168.267924 179.01744 
L 168.267924 178.905603 
L 168.418556 178.905603 
L 168.418556 178.793767 
L 168.576137 178.793767 
L 168.633831 178.570094 
L 168.732286 178.570094 
L 168.830181 178.346421 
L 168.959846 178.346421 
L 169.040393 178.122748 
L 169.080525 178.122748 
L 169.080525 178.010912 
L 169.578323 178.010912 
L 169.656029 177.787239 
L 169.756525 177.787239 
L 169.756525 177.675402 
L 169.894711 177.675402 
L 169.963389 177.451729 
L 170.145201 177.451729 
L 170.145201 177.339893 
L 170.257864 177.339893 
L 170.257864 177.228057 
L 170.875486 177.228057 
L 170.875486 177.11622 
L 171.582937 177.11622 
L 171.582937 177.004384 
L 172.007369 177.004384 
L 172.007369 176.892547 
L 172.222398 176.892547 
L 172.222398 176.780711 
L 172.500602 176.780711 
L 172.500602 176.668874 
L 172.664086 176.668874 
L 172.664086 176.557038 
L 172.890383 176.557038 
L 172.890383 176.445201 
L 173.195967 176.445201 
L 173.195967 176.333365 
L 173.440315 176.333365 
L 173.545748 175.997856 
L 173.601304 175.997856 
L 173.613626 175.774183 
L 173.924879 175.774183 
L 173.924879 175.662346 
L 174.577615 175.662346 
L 174.577615 175.55051 
L 174.883481 175.55051 
L 174.940586 175.326837 
L 175.105126 175.326837 
L 175.105126 175.215 
L 175.4904 175.215 
L 175.556531 174.991328 
L 175.85642 174.991328 
L 175.899607 174.767655 
L 176.177712 174.767655 
L 176.251824 174.543982 
L 176.299299 174.543982 
L 176.299299 174.432145 
L 176.991067 174.432145 
L 177.02645 174.096636 
L 177.182277 174.096636 
L 177.182277 173.9848 
L 177.42574 173.9848 
L 177.435604 173.761127 
L 177.656068 173.761127 
L 177.656068 173.64929 
L 178.159748 173.64929 
L 178.159748 173.537454 
L 178.417805 173.537454 
L 178.417805 173.425617 
L 178.575415 173.425617 
L 178.667456 173.201944 
L 178.918057 173.201944 
L 178.918057 173.090108 
L 179.280596 173.090108 
L 179.280596 172.978271 
L 179.439302 172.978271 
L 179.439302 172.866435 
L 179.834061 172.866435 
L 179.834061 172.754599 
L 181.066779 172.754599 
L 181.066779 172.642762 
L 181.363585 172.642762 
L 181.363585 172.530926 
L 181.527585 172.530926 
L 181.527585 172.419089 
L 182.014179 172.419089 
L 182.014179 172.307253 
L 182.145893 172.307253 
L 182.145893 172.195416 
L 182.71011 172.195416 
L 182.71011 172.08358 
L 183.556 172.08358 
L 183.638688 171.859907 
L 184.166673 171.859907 
L 184.166673 171.748071 
L 184.421422 171.748071 
L 184.421422 171.636234 
L 185.204609 171.636234 
L 185.232826 171.412561 
L 185.558643 171.412561 
L 185.558643 171.300725 
L 185.974676 171.300725 
L 185.974676 171.188888 
L 187.304975 171.188888 
L 187.307751 170.965215 
L 187.423966 170.965215 
L 187.525698 170.741543 
L 188.526744 170.741543 
L 188.526744 170.629706 
L 189.938739 170.629706 
L 189.938739 170.51787 
L 190.208203 170.51787 
L 190.208203 170.406033 
L 190.431889 170.406033 
L 190.431889 170.294197 
L 190.789282 170.294197 
L 190.789282 170.18236 
L 191.532534 170.18236 
L 191.532534 170.070524 
L 193.042792 170.070524 
L 193.042792 169.958687 
L 195.027721 169.958687 
L 195.027721 169.846851 
L 197.179938 169.846851 
L 197.179938 169.735014 
L 201.757431 169.735014 
L 201.757431 169.623178 
L 333.168 169.623178 
L 333.168 169.623178 
" style="fill:none;stroke:#000080;stroke-linecap:square;stroke-width:1.5;"/>
   </g>
   <g id="line2d_44">
    <defs>
     <path d="M 0 6 
C 1.591219 6 3.117479 5.367802 4.242641 4.242641 
C 5.367802 3.117479 6 1.591219 6 0 
C 6 -1.591219 5.367802 -3.117479 4.242641 -4.242641 
C 3.117479 -5.367802 1.591219 -6 0 -6 
C -1.591219 -6 -3.117479 -5.367802 -4.242641 -4.242641 
C -5.367802 -3.117479 -6 -1.591219 -6 0 
C -6 1.591219 -5.367802 3.117479 -4.242641 4.242641 
C -3.117479 5.367802 -1.591219 6 0 6 
z
" id="m1689a7b68d" style="stroke:#000080;stroke-width:1.5;"/>
    </defs>
    <g>
     <use style="fill:none;stroke:#000080;stroke-width:1.5;" x="91.862754" xlink:href="#m1689a7b68d" y="288.840832"/>
     <use style="fill:none;stroke:#000080;stroke-width:1.5;" x="139.786254" xlink:href="#m1689a7b68d" y="211.785519"/>
     <use style="fill:none;stroke:#000080;stroke-width:1.5;" x="193.042792" xlink:href="#m1689a7b68d" y="169.958687"/>
     <use style="fill:none;stroke:#000080;stroke-width:1.5;" x="201.757431" xlink:href="#m1689a7b68d" y="169.623178"/>
     <use style="fill:none;stroke:#000080;stroke-width:1.5;" x="201.757431" xlink:href="#m1689a7b68d" y="169.623178"/>
     <use style="fill:none;stroke:#000080;stroke-width:1.5;" x="333.168" xlink:href="#m1689a7b68d" y="169.623178"/>
    </g>
   </g>
   <g id="line2d_45">
    <path style="fill:none;stroke:#000080;stroke-linecap:square;stroke-width:1.5;"/>
    <g/>
   </g>
   <g id="line2d_46">
    <path clip-path="url(#p836c038b8f)" d="M 130.178239 247.685019 
" style="fill:none;stroke:#000080;stroke-linecap:square;stroke-width:1.5;"/>
    <defs>
     <path d="M -12 12 
L 12 -12 
M -12 -12 
L 12 12 
" id="m627bd65cd4" style="stroke:#000080;"/>
    </defs>
    <g clip-path="url(#p836c038b8f)">
     <use style="fill:#000080;stroke:#000080;" x="130.178239" xlink:href="#m627bd65cd4" y="247.685019"/>
    </g>
   </g>
   <g id="line2d_47">
    <defs>
     <path d="M 0 1.5 
C 0.397805 1.5 0.77937 1.341951 1.06066 1.06066 
C 1.341951 0.77937 1.5 0.397805 1.5 0 
C 1.5 -0.397805 1.341951 -0.77937 1.06066 -1.06066 
C 0.77937 -1.341951 0.397805 -1.5 0 -1.5 
C -0.397805 -1.5 -0.77937 -1.341951 -1.06066 -1.06066 
C -1.341951 -0.77937 -1.5 -0.397805 -1.5 0 
C -1.5 0.397805 -1.341951 0.77937 -1.06066 1.06066 
C -0.77937 1.341951 -0.397805 1.5 0 1.5 
z
" id="m4f0ffa3251" style="stroke:#ff00ff;"/>
    </defs>
    <g>
     <use style="fill:#ff00ff;stroke:#ff00ff;" x="204.713697" xlink:href="#m4f0ffa3251" y="169.623178"/>
     <use style="fill:#ff00ff;stroke:#ff00ff;" x="204.713697" xlink:href="#m4f0ffa3251" y="169.623178"/>
    </g>
   </g>
   <g id="line2d_48">
    <path d="M 37.236359 294.88 
L 37.236359 289.400014 
L 88.728896 289.400014 
L 88.728896 289.288178 
L 96.807615 289.288178 
L 96.807615 289.176341 
L 97.849669 289.176341 
L 97.849669 288.952668 
L 99.761485 288.952668 
L 99.761485 288.728995 
L 100.207968 288.728995 
L 100.207968 288.617159 
L 100.643147 288.617159 
L 100.643147 288.393486 
L 101.481783 288.393486 
L 101.481783 287.834304 
L 101.88624 287.834304 
L 101.88624 287.498794 
L 102.281398 287.498794 
L 102.281398 286.939612 
L 102.667676 286.939612 
L 102.667676 286.38043 
L 103.045463 286.38043 
L 103.045463 286.268593 
L 103.415125 286.268593 
L 103.415125 285.709411 
L 103.777005 285.709411 
L 103.777005 285.597575 
L 104.131422 285.597575 
L 104.131422 285.262065 
L 104.478679 285.262065 
L 104.478679 284.702883 
L 105.152829 284.702883 
L 105.152829 284.47921 
L 106.11693 284.47921 
L 106.11693 284.367374 
L 106.426644 284.367374 
L 106.426644 284.143701 
L 106.730875 284.143701 
L 106.730875 283.808192 
L 107.323646 283.808192 
L 107.323646 283.584519 
L 108.451173 283.584519 
L 108.451173 283.472682 
L 108.721866 283.472682 
L 108.721866 283.360846 
L 108.988361 283.360846 
L 108.988361 283.249009 
L 109.250788 283.249009 
L 109.250788 283.137173 
L 109.76392 283.137173 
L 109.76392 283.025336 
L 110.014853 283.025336 
L 110.014853 282.9135 
L 110.262176 282.9135 
L 110.262176 282.689827 
L 110.505991 282.689827 
L 110.505991 282.577991 
L 110.746395 282.577991 
L 110.746395 282.354318 
L 111.217346 282.354318 
L 111.217346 282.242481 
L 111.448069 282.242481 
L 111.448069 282.018808 
L 111.675736 282.018808 
L 111.675736 281.795136 
L 111.900428 281.795136 
L 111.900428 281.34779 
L 112.122219 281.34779 
L 112.122219 281.124117 
L 112.557398 281.124117 
L 112.557398 280.900444 
L 112.770924 280.900444 
L 112.770924 280.788608 
L 113.19018 280.788608 
L 113.19018 280.453098 
L 113.599452 280.453098 
L 113.599452 280.117589 
L 113.999206 280.117589 
L 113.999206 280.005752 
L 114.195649 280.005752 
L 114.195649 279.782079 
L 114.389873 279.782079 
L 114.389873 279.558407 
L 114.581927 279.558407 
L 114.581927 279.44657 
L 114.771859 279.44657 
L 114.771859 279.222897 
L 114.959714 279.222897 
L 114.959714 278.775551 
L 115.145539 278.775551 
L 115.145539 278.663715 
L 115.329377 278.663715 
L 115.329377 278.551879 
L 115.511269 278.551879 
L 115.511269 278.216369 
L 115.691256 278.216369 
L 115.691256 277.992696 
L 115.869378 277.992696 
L 115.869378 277.769023 
L 116.045673 277.769023 
L 116.045673 277.657187 
L 116.39293 277.657187 
L 116.39293 277.545351 
L 116.563963 277.545351 
L 116.563963 277.209841 
L 116.73331 277.209841 
L 116.73331 276.986168 
L 117.715785 276.986168 
L 117.715785 276.762495 
L 117.874207 276.762495 
L 117.874207 276.538822 
L 118.031182 276.538822 
L 118.031182 275.867804 
L 118.186736 275.867804 
L 118.186736 275.532294 
L 118.645127 275.532294 
L 118.645127 275.420458 
L 118.795247 275.420458 
L 118.795247 275.308622 
L 119.09161 275.308622 
L 119.09161 275.196785 
L 119.237897 275.196785 
L 119.237897 274.973112 
L 119.382949 274.973112 
L 119.382949 274.637603 
L 119.669433 274.637603 
L 119.669433 274.190257 
L 119.810904 274.190257 
L 119.810904 273.966584 
L 119.95122 273.966584 
L 119.95122 273.631075 
L 120.0904 273.631075 
L 120.0904 273.519238 
L 120.228462 273.519238 
L 120.228462 273.295566 
L 120.365424 273.295566 
L 120.365424 273.071893 
L 120.501303 273.071893 
L 120.501303 272.736383 
L 120.636117 272.736383 
L 120.636117 272.177201 
L 120.769881 272.177201 
L 120.769881 271.841692 
L 120.902613 271.841692 
L 120.902613 271.729855 
L 121.034327 271.729855 
L 121.034327 271.282509 
L 121.16504 271.282509 
L 121.16504 271.170673 
L 121.294766 271.170673 
L 121.294766 270.835164 
L 121.551317 270.835164 
L 121.551317 270.499654 
L 121.678171 270.499654 
L 121.678171 270.164145 
L 121.804096 270.164145 
L 121.804096 269.940472 
L 121.929105 269.940472 
L 121.929105 269.828636 
L 122.176427 269.828636 
L 122.176427 269.38129 
L 122.298767 269.38129 
L 122.298767 269.04578 
L 122.420242 269.04578 
L 122.420242 268.933944 
L 122.540864 268.933944 
L 122.540864 268.822108 
L 122.660646 268.822108 
L 122.660646 268.710271 
L 122.779599 268.710271 
L 122.779599 268.598435 
L 122.897734 268.598435 
L 122.897734 268.486598 
L 123.015063 268.486598 
L 123.015063 268.039252 
L 123.131597 268.039252 
L 123.131597 267.927416 
L 123.247346 267.927416 
L 123.247346 267.81558 
L 123.476531 267.81558 
L 123.476531 267.591907 
L 123.589988 267.591907 
L 123.589988 267.48007 
L 123.7027 267.48007 
L 123.7027 267.368234 
L 123.814679 267.368234 
L 123.814679 266.920888 
L 124.036471 266.920888 
L 124.146303 266.697215 
L 124.255437 266.697215 
L 124.363883 265.802523 
L 124.471649 265.802523 
L 124.578744 265.467014 
L 124.685175 265.467014 
L 124.790952 265.019668 
L 124.896081 265.019668 
L 124.896081 264.907832 
L 125.104431 264.907832 
L 125.104431 264.460486 
L 125.310285 264.460486 
L 125.412295 263.789467 
L 125.513703 263.789467 
L 125.513703 263.565795 
L 125.714742 263.565795 
L 125.814387 263.118449 
L 125.913457 263.118449 
L 126.011959 262.782939 
L 126.109901 262.782939 
L 126.207287 262.335594 
L 126.304124 262.335594 
L 126.40042 261.888248 
L 126.496178 261.888248 
L 126.496178 261.552738 
L 126.68611 261.552738 
L 126.780294 260.88172 
L 126.873966 260.88172 
L 126.967129 260.210701 
L 127.05979 260.210701 
L 127.151955 259.763355 
L 127.243628 259.763355 
L 127.334814 259.092337 
L 127.42552 259.092337 
L 127.515749 257.862136 
L 127.605507 257.862136 
L 127.694799 257.302953 
L 127.783629 257.302953 
L 127.872003 256.408262 
L 127.959924 256.408262 
L 128.047399 255.960916 
L 128.13443 255.960916 
L 128.221023 255.625407 
L 128.307181 255.625407 
L 128.39291 254.954388 
L 128.478214 254.954388 
L 128.563096 254.283369 
L 128.647561 254.283369 
L 128.731613 253.500514 
L 128.815257 253.500514 
L 128.898495 252.717659 
L 128.981332 252.717659 
L 129.063771 251.822967 
L 129.145817 251.822967 
L 129.227474 250.369094 
L 129.308744 250.369094 
L 129.389632 249.809911 
L 129.470141 249.809911 
L 129.550274 249.138893 
L 129.630036 249.138893 
L 129.70943 248.91522 
L 129.788458 248.91522 
L 129.867125 248.020528 
L 129.945433 248.020528 
L 129.945433 247.796855 
L 130.178239 247.796855 
L 130.255146 246.902164 
L 130.33171 246.902164 
L 130.407935 246.342981 
L 130.483823 246.342981 
L 130.483823 246.119309 
L 130.634602 246.119309 
L 130.709498 245.336453 
L 130.784069 245.336453 
L 130.858318 244.441762 
L 130.932248 244.441762 
L 131.005861 244.218089 
L 131.07916 244.218089 
L 131.07916 244.106253 
L 131.224827 244.106253 
L 131.2972 243.658907 
L 131.441039 243.658907 
L 131.51251 243.323397 
L 131.583684 243.323397 
L 131.654565 242.987888 
L 131.725155 242.987888 
L 131.795457 242.428706 
L 131.865471 242.428706 
L 131.865471 242.093196 
L 132.004651 242.093196 
L 132.073821 241.534014 
L 132.142713 241.534014 
L 132.211331 240.639323 
L 132.347749 240.639323 
L 132.415555 240.303813 
L 132.483094 240.303813 
L 132.550368 239.409122 
L 132.684132 239.409122 
L 132.684132 239.297285 
L 132.816864 239.297285 
L 132.882847 238.849939 
L 133.014059 238.849939 
L 133.079291 238.402594 
L 133.144276 238.402594 
L 133.209017 237.619739 
L 133.273515 237.619739 
L 133.337771 236.725047 
L 133.465568 236.725047 
L 133.529112 236.389538 
L 133.592422 236.389538 
L 133.6555 235.830355 
L 133.718347 235.830355 
L 133.780965 235.494846 
L 133.843356 235.494846 
L 133.905521 234.823827 
L 133.967462 234.823827 
L 134.029181 233.929136 
L 134.151957 233.929136 
L 134.213018 233.593626 
L 134.273863 233.593626 
L 134.334493 233.034444 
L 134.39491 233.034444 
L 134.455115 232.475262 
L 134.515111 232.475262 
L 134.515111 232.251589 
L 134.69385 232.251589 
L 134.753019 231.58057 
L 134.811986 231.58057 
L 134.87075 231.021388 
L 135.045848 231.021388 
L 135.045848 230.574042 
L 135.21918 230.574042 
L 135.276571 229.679351 
L 135.333772 229.679351 
L 135.390782 229.120168 
L 135.560688 229.120168 
L 135.616951 228.560986 
L 135.673032 228.560986 
L 135.72893 227.889968 
L 135.784647 227.889968 
L 135.840184 227.330785 
L 135.950722 227.330785 
L 136.060554 226.771603 
L 136.115208 226.771603 
L 136.223997 226.324257 
L 136.278134 226.324257 
L 136.3859 225.205893 
L 136.439531 225.205893 
L 136.546293 224.423038 
L 136.652396 224.423038 
L 136.757848 223.975692 
L 136.810332 223.975692 
L 136.914823 223.41651 
L 136.966831 223.41651 
L 137.018682 222.745491 
L 137.173303 222.745491 
L 137.275617 221.51529 
L 137.326546 221.51529 
L 137.326546 221.291617 
L 137.478435 221.291617 
L 137.578954 220.508762 
L 137.628993 220.508762 
L 137.728638 220.061416 
L 137.778244 220.061416 
L 137.827708 219.502234 
L 137.926211 219.502234 
L 137.975251 219.054888 
L 138.072914 219.054888 
L 138.170025 218.272033 
L 138.266591 218.272033 
L 138.362617 217.824687 
L 138.410429 217.824687 
L 138.505658 217.153669 
L 138.553074 217.153669 
L 138.647518 216.258977 
L 138.694545 216.258977 
L 138.788217 215.587958 
L 138.834862 215.587958 
L 138.88138 214.91694 
L 138.974042 214.91694 
L 139.066206 214.58143 
L 139.112104 214.58143 
L 139.203533 214.022248 
L 139.249066 214.022248 
L 139.339771 213.574902 
L 139.384945 213.574902 
L 139.474938 212.903883 
L 139.519758 212.903883 
L 139.60905 212.344701 
L 139.69788 212.344701 
L 139.786254 211.785519 
L 139.917968 211.785519 
L 139.917968 211.673683 
L 140.048681 211.673683 
L 140.092032 211.002664 
L 140.178407 211.002664 
L 140.26435 210.555318 
L 140.349866 210.555318 
L 140.392465 210.331645 
L 140.477347 210.331645 
L 140.561812 209.436954 
L 140.60389 209.436954 
L 140.687737 209.101444 
L 140.729508 209.101444 
L 140.812746 208.765935 
L 140.854214 208.765935 
L 140.895583 208.542262 
L 141.060069 208.542262 
L 141.141725 207.871243 
L 141.182408 207.871243 
L 141.263487 207.423898 
L 141.303883 207.423898 
L 141.344185 207.200225 
L 141.424506 207.200225 
L 141.424506 206.976552 
L 141.58403 206.976552 
L 141.66324 206.417369 
L 141.742087 206.417369 
L 141.781376 206.193697 
L 141.859684 206.193697 
L 141.937637 205.410841 
L 141.976481 205.410841 
L 142.053908 205.075332 
L 142.092491 205.075332 
L 142.092491 204.851659 
L 142.245962 204.851659 
L 142.322186 204.51615 
L 142.473629 204.51615 
L 142.473629 204.404313 
L 142.623749 204.404313 
L 142.69832 203.845131 
L 142.735485 203.845131 
L 142.846499 203.509622 
L 143.066399 203.509622 
L 143.175303 203.285949 
L 143.283522 203.285949 
L 143.391063 202.95044 
L 143.426761 202.95044 
L 143.462385 202.503094 
L 143.604148 202.503094 
L 143.709708 202.279421 
L 143.849453 202.279421 
L 143.884213 201.943912 
L 143.988072 201.943912 
L 144.056965 201.608402 
L 144.531632 201.608402 
L 144.531632 201.496566 
L 144.764138 201.496566 
L 144.764138 201.384729 
L 144.92831 201.384729 
L 145.026065 201.161056 
L 145.123268 201.161056 
L 145.187766 200.937384 
L 145.252022 200.937384 
L 145.252022 200.825547 
L 145.411621 200.825547 
L 145.443364 200.601874 
L 145.72644 200.601874 
L 145.757607 200.378201 
L 146.518964 200.378201 
L 146.518964 200.266365 
L 146.667271 200.266365 
L 146.755644 200.042692 
L 146.785001 200.042692 
L 146.872773 199.595346 
L 147.018071 199.595346 
L 147.046984 199.259837 
L 147.503094 199.259837 
L 147.559266 199.036164 
L 147.643181 199.036164 
L 147.726689 198.812491 
L 147.864973 198.812491 
L 147.864973 198.588818 
L 148.111115 198.588818 
L 148.138248 198.365145 
L 148.407246 198.365145 
L 148.407246 198.253309 
L 148.540183 198.253309 
L 148.566647 198.029636 
L 148.672099 198.029636 
L 148.750766 197.358617 
L 148.855098 197.358617 
L 148.855098 197.246781 
L 148.984628 197.246781 
L 149.061881 197.023108 
L 149.11319 197.023108 
L 149.189868 196.687599 
L 149.291576 196.687599 
L 149.392686 196.352089 
L 149.493205 196.352089 
L 149.493205 196.240253 
L 149.717245 196.240253 
L 149.815889 196.01658 
L 149.840462 196.01658 
L 149.889502 195.792907 
L 150.06005 195.792907 
L 150.156751 195.569234 
L 150.204899 195.569234 
L 150.276868 195.233725 
L 150.396151 195.233725 
L 150.490985 195.010052 
L 150.514612 195.010052 
L 150.514612 194.898215 
L 150.632262 194.898215 
L 150.655696 194.674542 
L 150.842025 194.674542 
L 150.842025 194.562706 
L 151.003421 194.562706 
L 151.003421 194.45087 
L 151.231391 194.45087 
L 151.254022 194.11536 
L 151.344251 194.11536 
L 151.411614 193.891687 
L 151.478713 193.891687 
L 151.523301 193.556178 
L 151.634268 193.556178 
L 151.634268 193.444342 
L 151.875901 193.444342 
L 151.941216 193.220669 
L 152.006283 193.220669 
L 152.071105 192.996996 
L 152.135684 192.996996 
L 152.20002 192.773323 
L 152.412754 192.773323 
L 152.518141 192.437813 
L 152.747744 192.437813 
L 152.747744 192.325977 
L 152.871701 192.325977 
L 152.97432 191.878631 
L 152.99477 191.878631 
L 153.096659 191.543122 
L 153.197948 191.543122 
L 153.218134 191.319449 
L 153.438633 191.319449 
L 153.498281 190.98394 
L 153.695627 190.98394 
L 153.734826 190.760267 
L 153.812956 190.760267 
L 153.812956 190.64843 
L 154.045238 190.64843 
L 154.141104 190.312921 
L 154.76075 190.312921 
L 154.76075 190.201085 
L 155.251627 190.201085 
L 155.305314 189.977412 
L 155.412187 189.977412 
L 155.429934 189.641902 
L 156.193228 189.641902 
L 156.193228 189.530066 
L 156.495971 189.530066 
L 156.495971 189.418229 
L 156.842561 189.418229 
L 156.924063 188.747211 
L 157.053666 188.747211 
L 157.053666 188.635374 
L 157.436716 188.635374 
L 157.546849 188.299865 
L 157.625086 188.299865 
L 157.718503 188.076192 
L 157.795964 188.076192 
L 157.903827 187.740683 
L 158.132707 187.740683 
L 158.223412 187.405173 
L 158.492691 187.405173 
L 158.522353 187.1815 
L 158.640488 187.1815 
L 158.640488 187.069664 
L 158.787024 187.069664 
L 158.830743 186.845991 
L 159.033305 186.845991 
L 159.119392 186.398645 
L 159.233507 186.398645 
L 159.233507 186.286809 
L 159.346871 186.286809 
L 159.346871 186.063136 
L 159.737856 186.063136 
L 159.737856 185.951299 
L 160.106637 185.951299 
L 160.106637 185.839463 
L 160.281415 185.839463 
L 160.281415 185.727627 
L 160.414661 185.727627 
L 160.507322 185.280281 
L 160.573204 185.280281 
L 160.573204 185.168444 
L 161.519841 185.168444 
L 161.519841 185.056608 
L 161.815992 185.056608 
L 161.864858 184.832935 
L 161.937897 184.832935 
L 161.937897 184.721099 
L 162.143173 184.721099 
L 162.167163 184.497426 
L 162.298511 184.497426 
L 162.298511 184.385589 
L 162.428863 184.385589 
L 162.49955 184.05008 
L 162.848688 184.05008 
L 162.848688 183.938243 
L 163.111639 183.938243 
L 163.111639 183.826407 
L 163.23599 183.826407 
L 163.23599 183.714571 
L 163.415273 183.714571 
L 163.415273 183.602734 
L 163.746471 183.602734 
L 163.746471 183.490898 
L 163.97457 183.490898 
L 163.985356 183.267225 
L 164.337573 183.267225 
L 164.337573 183.155388 
L 164.463883 183.155388 
L 164.463883 183.043552 
L 164.641248 183.043552 
L 164.641248 182.931715 
L 164.806525 182.931715 
L 164.806525 182.708042 
L 165.081875 182.708042 
L 165.16262 182.48437 
L 165.232963 182.48437 
L 165.232963 182.372533 
L 165.442279 182.372533 
L 165.491743 182.14886 
L 165.609878 182.14886 
L 165.619686 181.925187 
L 165.930625 181.925187 
L 165.978705 181.701514 
L 166.217109 181.701514 
L 166.217109 181.589678 
L 166.61033 181.589678 
L 166.61033 181.477842 
L 166.766968 181.477842 
L 166.785303 181.254169 
L 167.021889 181.254169 
L 167.085033 181.030496 
L 167.299782 181.030496 
L 167.299782 180.918659 
L 167.467909 180.918659 
L 167.564499 180.58315 
L 167.634407 180.58315 
L 167.634407 180.471314 
L 167.988291 180.471314 
L 168.047988 180.247641 
L 168.192111 180.247641 
L 168.192111 180.135804 
L 168.309899 180.135804 
L 168.368492 179.912131 
L 168.592641 179.912131 
L 168.683129 179.688458 
L 168.870806 179.688458 
L 168.870806 179.576622 
L 169.024313 179.576622 
L 169.080525 179.352949 
L 169.295634 179.352949 
L 169.295634 179.241113 
L 169.748816 179.241113 
L 169.795022 179.01744 
L 169.932899 179.01744 
L 169.932899 178.905603 
L 170.182837 178.905603 
L 170.242885 178.68193 
L 170.354912 178.68193 
L 170.354912 178.570094 
L 170.481 178.570094 
L 170.481 178.458257 
L 170.795859 178.458257 
L 170.795859 178.346421 
L 170.933166 178.346421 
L 171.033643 178.122748 
L 171.303441 178.122748 
L 171.303441 178.010912 
L 171.471683 178.010912 
L 171.471683 177.899075 
L 171.714122 177.899075 
L 171.810148 177.563566 
L 171.912442 177.563566 
L 171.912442 177.451729 
L 172.128654 177.451729 
L 172.222398 177.11622 
L 172.441364 177.11622 
L 172.461133 176.892547 
L 172.729047 176.892547 
L 172.729047 176.780711 
L 172.922469 176.780711 
L 172.922469 176.668874 
L 173.0693 176.668874 
L 173.0693 176.557038 
L 173.421641 176.557038 
L 173.421641 176.445201 
L 173.779109 176.445201 
L 173.779109 176.333365 
L 174.057424 176.333365 
L 174.117336 176.109692 
L 174.716795 176.109692 
L 174.716795 175.997856 
L 174.940586 175.997856 
L 174.991819 175.774183 
L 175.677115 175.774183 
L 175.677115 175.662346 
L 175.969557 175.662346 
L 175.969557 175.55051 
L 176.09262 175.55051 
L 176.156478 175.326837 
L 176.28876 175.326837 
L 176.336134 174.991328 
L 176.638336 174.991328 
L 176.638336 174.879491 
L 176.904832 174.879491 
L 176.986006 174.543982 
L 177.573114 174.543982 
L 177.573114 174.432145 
L 177.694968 174.432145 
L 177.743468 174.208472 
L 178.529209 174.208472 
L 178.529209 174.096636 
L 178.990278 174.096636 
L 178.990278 173.9848 
L 179.231808 173.9848 
L 179.231808 173.872963 
L 179.355723 173.872963 
L 179.448076 173.537454 
L 179.868336 173.537454 
L 179.868336 173.425617 
L 180.411778 173.425617 
L 180.411778 173.313781 
L 180.797227 173.313781 
L 180.797227 173.201944 
L 181.014807 173.201944 
L 181.014807 173.090108 
L 181.406689 173.090108 
L 181.406689 172.978271 
L 181.61287 172.978271 
L 181.624467 172.754599 
L 182.033057 172.754599 
L 182.03683 172.530926 
L 182.350855 172.530926 
L 182.350855 172.419089 
L 183.403366 172.419089 
L 183.403366 172.307253 
L 183.847079 172.307253 
L 183.88439 172.08358 
L 184.273002 172.08358 
L 184.349021 171.859907 
L 184.919866 171.859907 
L 184.919866 171.748071 
L 185.03433 171.748071 
L 185.03433 171.636234 
L 185.251611 171.636234 
L 185.354566 171.300725 
L 185.623071 171.300725 
L 185.717741 171.077052 
L 185.760325 171.077052 
L 185.760325 170.965215 
L 186.555797 170.965215 
L 186.555797 170.853379 
L 187.070123 170.853379 
L 187.162769 170.629706 
L 187.749037 170.629706 
L 187.749037 170.51787 
L 187.988201 170.51787 
L 187.988201 170.406033 
L 189.033865 170.406033 
L 189.033865 170.294197 
L 189.763942 170.294197 
L 189.763942 170.18236 
L 190.066906 170.18236 
L 190.066906 170.070524 
L 191.64292 170.070524 
L 191.64292 169.958687 
L 195.614695 169.958687 
L 195.614695 169.846851 
L 197.529665 169.846851 
L 197.529665 169.735014 
L 204.713697 169.735014 
L 204.713697 169.623178 
L 333.168 169.623178 
L 333.168 169.623178 
" style="fill:none;stroke:#ff00ff;stroke-linecap:square;stroke-width:1.5;"/>
   </g>
   <g id="line2d_49">
    <defs>
     <path d="M -0 8.485281 
L 5.091169 0 
L 0 -8.485281 
L -5.091169 -0 
z
" id="m200455959e" style="stroke:#ff00ff;stroke-linejoin:miter;stroke-width:1.5;"/>
    </defs>
    <g>
     <use style="fill:none;stroke:#ff00ff;stroke-linejoin:miter;stroke-width:1.5;" x="123.247346" xlink:href="#m200455959e" y="267.81558"/>
     <use style="fill:none;stroke:#ff00ff;stroke-linejoin:miter;stroke-width:1.5;" x="176.904832" xlink:href="#m200455959e" y="174.879491"/>
     <use style="fill:none;stroke:#ff00ff;stroke-linejoin:miter;stroke-width:1.5;" x="204.713697" xlink:href="#m200455959e" y="169.735014"/>
     <use style="fill:none;stroke:#ff00ff;stroke-linejoin:miter;stroke-width:1.5;" x="204.713697" xlink:href="#m200455959e" y="169.623178"/>
     <use style="fill:none;stroke:#ff00ff;stroke-linejoin:miter;stroke-width:1.5;" x="204.713697" xlink:href="#m200455959e" y="169.623178"/>
     <use style="fill:none;stroke:#ff00ff;stroke-linejoin:miter;stroke-width:1.5;" x="333.168" xlink:href="#m200455959e" y="169.623178"/>
    </g>
   </g>
   <g id="line2d_50">
    <path style="fill:none;stroke:#ff00ff;stroke-linecap:square;stroke-width:1.5;"/>
    <g/>
   </g>
   <g id="line2d_51">
    <path clip-path="url(#p836c038b8f)" d="M 130.178239 247.34951 
" style="fill:none;stroke:#ff00ff;stroke-linecap:square;stroke-width:1.5;"/>
    <defs>
     <path d="M -12 12 
L 12 -12 
M -12 -12 
L 12 12 
" id="m0a49c96078" style="stroke:#ff00ff;"/>
    </defs>
    <g clip-path="url(#p836c038b8f)">
     <use style="fill:#ff00ff;stroke:#ff00ff;" x="130.178239" xlink:href="#m0a49c96078" y="247.34951"/>
    </g>
   </g>
   <g id="line2d_52">
    <path d="M 333.168 169.623178 
L 363.64328 289.176341 
" style="fill:none;stroke:#ff00ff;stroke-linecap:square;stroke-width:1.5;"/>
    <g>
     <use style="fill:none;stroke:#ff00ff;stroke-linejoin:miter;stroke-width:1.5;" x="333.168" xlink:href="#m200455959e" y="169.623178"/>
     <use style="fill:none;stroke:#ff00ff;stroke-linejoin:miter;stroke-width:1.5;" x="363.64328" xlink:href="#m200455959e" y="289.176341"/>
    </g>
   </g>
   <g id="line2d_53">
    <path d="M 333.168 169.623178 
L 363.64328 152.288529 
" style="fill:none;stroke:#000080;stroke-linecap:square;stroke-width:1.5;"/>
    <g>
     <use style="fill:none;stroke:#000080;stroke-width:1.5;" x="333.168" xlink:href="#m1689a7b68d" y="169.623178"/>
     <use style="fill:none;stroke:#000080;stroke-width:1.5;" x="363.64328" xlink:href="#m1689a7b68d" y="152.288529"/>
    </g>
   </g>
   <g id="line2d_54">
    <path d="M 333.168 294.88 
L 333.168 9.697057 
" style="fill:none;stroke:#000000;stroke-linecap:square;stroke-width:1.5;"/>
   </g>
   <g id="patch_3">
    <path d="M 56.12 294.88 
L 56.12 6.845228 
" style="fill:none;stroke:#000000;stroke-linecap:square;stroke-linejoin:miter;stroke-width:0.8;"/>
   </g>
   <g id="patch_4">
    <path d="M 333.168 294.88 
L 333.168 6.845228 
" style="fill:none;stroke:#000000;stroke-linecap:square;stroke-linejoin:miter;stroke-width:0.8;"/>
   </g>
   <g id="patch_5">
    <path d="M 56.12 294.88 
L 333.168 294.88 
" style="fill:none;stroke:#000000;stroke-linecap:square;stroke-linejoin:miter;stroke-width:0.8;"/>
   </g>
   <g id="patch_6">
    <path d="M 56.12 6.845228 
L 333.168 6.845228 
" style="fill:none;stroke:#000000;stroke-linecap:square;stroke-linejoin:miter;stroke-width:0.8;"/>
   </g>
   <g id="text_13">
    <!-- scipy-opt -->
    <defs>
     <path d="M 32.171875 -5.078125 
Q 28.375 -14.84375 24.75 -17.8125 
Q 21.140625 -20.796875 15.09375 -20.796875 
L 7.90625 -20.796875 
L 7.90625 -13.28125 
L 13.1875 -13.28125 
Q 16.890625 -13.28125 18.9375 -11.515625 
Q 21 -9.765625 23.484375 -3.21875 
L 25.09375 0.875 
L 2.984375 54.6875 
L 12.5 54.6875 
L 29.59375 11.921875 
L 46.6875 54.6875 
L 56.203125 54.6875 
z
" id="DejaVuSans-79"/>
    </defs>
    <g transform="translate(369.18424 293.867279)scale(0.17 -0.17)">
     <use xlink:href="#DejaVuSans-73"/>
     <use x="52.099609" xlink:href="#DejaVuSans-63"/>
     <use x="107.080078" xlink:href="#DejaVuSans-69"/>
     <use x="134.863281" xlink:href="#DejaVuSans-70"/>
     <use x="198.339844" xlink:href="#DejaVuSans-79"/>
     <use x="257.503906" xlink:href="#DejaVuSans-2d"/>
     <use x="293.603516" xlink:href="#DejaVuSans-6f"/>
     <use x="354.785156" xlink:href="#DejaVuSans-70"/>
     <use x="418.261719" xlink:href="#DejaVuSans-74"/>
    </g>
   </g>
   <g id="text_14">
    <!-- scipyAlg -->
    <defs>
     <path d="M 34.1875 63.1875 
L 20.796875 26.90625 
L 47.609375 26.90625 
z
M 28.609375 72.90625 
L 39.796875 72.90625 
L 67.578125 0 
L 57.328125 0 
L 50.6875 18.703125 
L 17.828125 18.703125 
L 11.1875 0 
L 0.78125 0 
z
" id="DejaVuSans-41"/>
    </defs>
    <g transform="translate(369.18424 156.979466)scale(0.17 -0.17)">
     <use xlink:href="#DejaVuSans-73"/>
     <use x="52.099609" xlink:href="#DejaVuSans-63"/>
     <use x="107.080078" xlink:href="#DejaVuSans-69"/>
     <use x="134.863281" xlink:href="#DejaVuSans-70"/>
     <use x="198.339844" xlink:href="#DejaVuSans-79"/>
     <use x="257.519531" xlink:href="#DejaVuSans-41"/>
     <use x="325.927734" xlink:href="#DejaVuSans-6c"/>
     <use x="353.710938" xlink:href="#DejaVuSans-67"/>
    </g>
   </g>
   <g id="text_15">
    <!-- best 2009 -->
    <defs>
     <path d="M 48.6875 27.296875 
Q 48.6875 37.203125 44.609375 42.84375 
Q 40.53125 48.484375 33.40625 48.484375 
Q 26.265625 48.484375 22.1875 42.84375 
Q 18.109375 37.203125 18.109375 27.296875 
Q 18.109375 17.390625 22.1875 11.75 
Q 26.265625 6.109375 33.40625 6.109375 
Q 40.53125 6.109375 44.609375 11.75 
Q 48.6875 17.390625 48.6875 27.296875 
z
M 18.109375 46.390625 
Q 20.953125 51.265625 25.265625 53.625 
Q 29.59375 56 35.59375 56 
Q 45.5625 56 51.78125 48.09375 
Q 58.015625 40.1875 58.015625 27.296875 
Q 58.015625 14.40625 51.78125 6.484375 
Q 45.5625 -1.421875 35.59375 -1.421875 
Q 29.59375 -1.421875 25.265625 0.953125 
Q 20.953125 3.328125 18.109375 8.203125 
L 18.109375 0 
L 9.078125 0 
L 9.078125 75.984375 
L 18.109375 75.984375 
z
" id="DejaVuSans-62"/>
     <path d="M 10.984375 1.515625 
L 10.984375 10.5 
Q 14.703125 8.734375 18.5 7.8125 
Q 22.3125 6.890625 25.984375 6.890625 
Q 35.75 6.890625 40.890625 13.453125 
Q 46.046875 20.015625 46.78125 33.40625 
Q 43.953125 29.203125 39.59375 26.953125 
Q 35.25 24.703125 29.984375 24.703125 
Q 19.046875 24.703125 12.671875 31.3125 
Q 6.296875 37.9375 6.296875 49.421875 
Q 6.296875 60.640625 12.9375 67.421875 
Q 19.578125 74.21875 30.609375 74.21875 
Q 43.265625 74.21875 49.921875 64.515625 
Q 56.59375 54.828125 56.59375 36.375 
Q 56.59375 19.140625 48.40625 8.859375 
Q 40.234375 -1.421875 26.421875 -1.421875 
Q 22.703125 -1.421875 18.890625 -0.6875 
Q 15.09375 0.046875 10.984375 1.515625 
z
M 30.609375 32.421875 
Q 37.25 32.421875 41.125 36.953125 
Q 45.015625 41.5 45.015625 49.421875 
Q 45.015625 57.28125 41.125 61.84375 
Q 37.25 66.40625 30.609375 66.40625 
Q 23.96875 66.40625 20.09375 61.84375 
Q 16.21875 57.28125 16.21875 49.421875 
Q 16.21875 41.5 20.09375 36.953125 
Q 23.96875 32.421875 30.609375 32.421875 
z
" id="DejaVuSans-39"/>
    </defs>
    <g transform="translate(369.18424 20.091654)scale(0.17 -0.17)">
     <use xlink:href="#DejaVuSans-62"/>
     <use x="63.476562" xlink:href="#DejaVuSans-65"/>
     <use x="125" xlink:href="#DejaVuSans-73"/>
     <use x="177.099609" xlink:href="#DejaVuSans-74"/>
     <use x="216.308594" xlink:href="#DejaVuSans-20"/>
     <use x="248.095703" xlink:href="#DejaVuSans-32"/>
     <use x="311.71875" xlink:href="#DejaVuSans-30"/>
     <use x="375.341797" xlink:href="#DejaVuSans-30"/>
     <use x="438.964844" xlink:href="#DejaVuSans-39"/>
    </g>
   </g>
   <g id="text_16">
    <!-- bbob f10-f14, 3-D -->
    <defs>
     <path d="M 40.578125 39.3125 
Q 47.65625 37.796875 51.625 33 
Q 55.609375 28.21875 55.609375 21.1875 
Q 55.609375 10.40625 48.1875 4.484375 
Q 40.765625 -1.421875 27.09375 -1.421875 
Q 22.515625 -1.421875 17.65625 -0.515625 
Q 12.796875 0.390625 7.625 2.203125 
L 7.625 11.71875 
Q 11.71875 9.328125 16.59375 8.109375 
Q 21.484375 6.890625 26.8125 6.890625 
Q 36.078125 6.890625 40.9375 10.546875 
Q 45.796875 14.203125 45.796875 21.1875 
Q 45.796875 27.640625 41.28125 31.265625 
Q 36.765625 34.90625 28.71875 34.90625 
L 20.21875 34.90625 
L 20.21875 43.015625 
L 29.109375 43.015625 
Q 36.375 43.015625 40.234375 45.921875 
Q 44.09375 48.828125 44.09375 54.296875 
Q 44.09375 59.90625 40.109375 62.90625 
Q 36.140625 65.921875 28.71875 65.921875 
Q 24.65625 65.921875 20.015625 65.03125 
Q 15.375 64.15625 9.8125 62.3125 
L 9.8125 71.09375 
Q 15.4375 72.65625 20.34375 73.4375 
Q 25.25 74.21875 29.59375 74.21875 
Q 40.828125 74.21875 47.359375 69.109375 
Q 53.90625 64.015625 53.90625 55.328125 
Q 53.90625 49.265625 50.4375 45.09375 
Q 46.96875 40.921875 40.578125 39.3125 
z
" id="DejaVuSans-33"/>
     <path d="M 19.671875 64.796875 
L 19.671875 8.109375 
L 31.59375 8.109375 
Q 46.6875 8.109375 53.6875 14.9375 
Q 60.6875 21.78125 60.6875 36.53125 
Q 60.6875 51.171875 53.6875 57.984375 
Q 46.6875 64.796875 31.59375 64.796875 
z
M 9.8125 72.90625 
L 30.078125 72.90625 
Q 51.265625 72.90625 61.171875 64.09375 
Q 71.09375 55.28125 71.09375 36.53125 
Q 71.09375 17.671875 61.125 8.828125 
Q 51.171875 0 30.078125 0 
L 9.8125 0 
z
" id="DejaVuSans-44"/>
    </defs>
    <g transform="translate(58.89048 17.475982)scale(0.102 -0.102)">
     <use xlink:href="#DejaVuSans-62"/>
     <use x="63.476562" xlink:href="#DejaVuSans-62"/>
     <use x="126.953125" xlink:href="#DejaVuSans-6f"/>
     <use x="188.134766" xlink:href="#DejaVuSans-62"/>
     <use x="251.611328" xlink:href="#DejaVuSans-20"/>
     <use x="283.398438" xlink:href="#DejaVuSans-66"/>
     <use x="318.603516" xlink:href="#DejaVuSans-31"/>
     <use x="382.226562" xlink:href="#DejaVuSans-30"/>
     <use x="445.849609" xlink:href="#DejaVuSans-2d"/>
     <use x="481.933594" xlink:href="#DejaVuSans-66"/>
     <use x="517.138672" xlink:href="#DejaVuSans-31"/>
     <use x="580.761719" xlink:href="#DejaVuSans-34"/>
     <use x="644.384766" xlink:href="#DejaVuSans-2c"/>
     <use x="676.171875" xlink:href="#DejaVuSans-20"/>
     <use x="707.958984" xlink:href="#DejaVuSans-33"/>
     <use x="771.582031" xlink:href="#DejaVuSans-2d"/>
     <use x="807.666016" xlink:href="#DejaVuSans-44"/>
    </g>
    <!-- 51 targets: 100..1e-08 -->
    <defs>
     <path d="M 10.796875 72.90625 
L 49.515625 72.90625 
L 49.515625 64.59375 
L 19.828125 64.59375 
L 19.828125 46.734375 
Q 21.96875 47.46875 24.109375 47.828125 
Q 26.265625 48.1875 28.421875 48.1875 
Q 40.625 48.1875 47.75 41.5 
Q 54.890625 34.8125 54.890625 23.390625 
Q 54.890625 11.625 47.5625 5.09375 
Q 40.234375 -1.421875 26.90625 -1.421875 
Q 22.3125 -1.421875 17.546875 -0.640625 
Q 12.796875 0.140625 7.71875 1.703125 
L 7.71875 11.625 
Q 12.109375 9.234375 16.796875 8.0625 
Q 21.484375 6.890625 26.703125 6.890625 
Q 35.15625 6.890625 40.078125 11.328125 
Q 45.015625 15.765625 45.015625 23.390625 
Q 45.015625 31 40.078125 35.4375 
Q 35.15625 39.890625 26.703125 39.890625 
Q 22.75 39.890625 18.8125 39.015625 
Q 14.890625 38.140625 10.796875 36.28125 
z
" id="DejaVuSans-35"/>
     <path d="M 11.71875 12.40625 
L 22.015625 12.40625 
L 22.015625 0 
L 11.71875 0 
z
M 11.71875 51.703125 
L 22.015625 51.703125 
L 22.015625 39.3125 
L 11.71875 39.3125 
z
" id="DejaVuSans-3a"/>
    </defs>
    <g transform="translate(58.89048 28.89775)scale(0.102 -0.102)">
     <use xlink:href="#DejaVuSans-35"/>
     <use x="63.623047" xlink:href="#DejaVuSans-31"/>
     <use x="127.246094" xlink:href="#DejaVuSans-20"/>
     <use x="159.033203" xlink:href="#DejaVuSans-74"/>
     <use x="198.242188" xlink:href="#DejaVuSans-61"/>
     <use x="259.521484" xlink:href="#DejaVuSans-72"/>
     <use x="300.619141" xlink:href="#DejaVuSans-67"/>
     <use x="364.095703" xlink:href="#DejaVuSans-65"/>
     <use x="425.619141" xlink:href="#DejaVuSans-74"/>
     <use x="464.828125" xlink:href="#DejaVuSans-73"/>
     <use x="516.927734" xlink:href="#DejaVuSans-3a"/>
     <use x="550.619141" xlink:href="#DejaVuSans-20"/>
     <use x="582.40625" xlink:href="#DejaVuSans-31"/>
     <use x="646.029297" xlink:href="#DejaVuSans-30"/>
     <use x="709.652344" xlink:href="#DejaVuSans-30"/>
     <use x="773.275391" xlink:href="#DejaVuSans-2e"/>
     <use x="805.0625" xlink:href="#DejaVuSans-2e"/>
     <use x="836.849609" xlink:href="#DejaVuSans-31"/>
     <use x="900.472656" xlink:href="#DejaVuSans-65"/>
     <use x="961.996094" xlink:href="#DejaVuSans-2d"/>
     <use x="998.080078" xlink:href="#DejaVuSans-30"/>
     <use x="1061.703125" xlink:href="#DejaVuSans-38"/>
    </g>
    <!-- 15 instances -->
    <g transform="translate(58.89048 40.319519)scale(0.102 -0.102)">
     <use xlink:href="#DejaVuSans-31"/>
     <use x="63.623047" xlink:href="#DejaVuSans-35"/>
     <use x="127.246094" xlink:href="#DejaVuSans-20"/>
     <use x="159.033203" xlink:href="#DejaVuSans-69"/>
     <use x="186.816406" xlink:href="#DejaVuSans-6e"/>
     <use x="250.195312" xlink:href="#DejaVuSans-73"/>
     <use x="302.294922" xlink:href="#DejaVuSans-74"/>
     <use x="341.503906" xlink:href="#DejaVuSans-61"/>
     <use x="402.783203" xlink:href="#DejaVuSans-6e"/>
     <use x="466.162109" xlink:href="#DejaVuSans-63"/>
     <use x="521.142578" xlink:href="#DejaVuSans-65"/>
     <use x="582.666016" xlink:href="#DejaVuSans-73"/>
    </g>
   </g>
   <g id="text_17">
    <!-- v0.0.0 -->
    <g style="fill:#808080;" transform="translate(178.96275 289.919965)scale(0.1 -0.1)">
     <use xlink:href="#DejaVuSans-76"/>
     <use x="59.179688" xlink:href="#DejaVuSans-30"/>
     <use x="122.802734" xlink:href="#DejaVuSans-2e"/>
     <use x="154.589844" xlink:href="#DejaVuSans-30"/>
     <use x="218.212891" xlink:href="#DejaVuSans-2e"/>
     <use x="250" xlink:href="#DejaVuSans-30"/>
    </g>
   </g>
  </g>
 </g>
 <defs>
  <clipPath id="p836c038b8f">
   <rect height="288.034772" width="277.048" x="56.12" y="6.845228"/>
  </clipPath>
 </defs>
</svg>
