<?xml version="1.0" encoding="utf-8" standalone="no"?>
<!DOCTYPE svg PUBLIC "-//W3C//DTD SVG 1.1//EN"
  "http://www.w3.org/Graphics/SVG/1.1/DTD/svg11.dtd">
<!-- Created with matplotlib (http://matplotlib.org/) -->
<svg height="345pt" version="1.1" viewBox="0 0 460 345" width="460pt" xmlns="http://www.w3.org/2000/svg" xmlns:xlink="http://www.w3.org/1999/xlink">
 <defs>
  <style type="text/css">
*{stroke-linecap:butt;stroke-linejoin:round;}
  </style>
 </defs>
 <g id="figure_1">
  <g id="patch_1">
   <path d="M 0 345.6 
L 460.8 345.6 
L 460.8 0 
L 0 0 
z
" style="fill:#ffffff;"/>
  </g>
  <g id="axes_1">
   <g id="patch_2">
    <path d="M 56.12 294.88 
L 333.168 294.88 
L 333.168 6.845228 
L 56.12 6.845228 
z
" style="fill:#ffffff;"/>
   </g>
   <g id="line2d_1">
    <path d="M 44.205749 294.88 
L 44.205749 280.341262 
L 56.12 280.341262 
L 56.12 276.986168 
L 63.08939 276.986168 
L 63.08939 271.394346 
L 68.034251 271.394346 
L 68.034251 263.565795 
L 71.869783 263.565795 
L 71.869783 261.329066 
L 75.003641 261.329066 
L 75.003641 260.210701 
L 79.948502 260.210701 
L 79.948502 256.855608 
L 81.973032 256.855608 
L 81.973032 255.737243 
L 88.293717 255.737243 
L 88.293717 254.618879 
L 91.862754 254.618879 
L 91.862754 253.500514 
L 93.887283 253.500514 
L 93.887283 251.263785 
L 96.536922 251.263785 
L 96.536922 250.145421 
L 99.533818 250.145421 
L 99.533818 249.027056 
L 100.856673 249.027056 
L 100.856673 247.908692 
L 102.667676 247.908692 
L 102.667676 246.790327 
L 104.305927 246.790327 
L 104.305927 245.671963 
L 107.612537 245.671963 
L 107.612537 243.435234 
L 109.250788 243.435234 
L 109.250788 242.316869 
L 111.788449 242.316869 
L 111.788449 241.198505 
L 113.086321 241.198505 
L 113.086321 240.08014 
L 114.866043 240.08014 
L 114.866043 238.961776 
L 117.231566 238.961776 
L 117.231566 237.843411 
L 118.186736 237.843411 
L 118.186736 234.488318 
L 123.870396 234.488318 
L 123.870396 233.369954 
L 124.200956 233.369954 
L 124.200956 232.251589 
L 125.463074 232.251589 
L 125.463074 231.133225 
L 129.022601 231.133225 
L 129.022601 228.896496 
L 132.279675 228.896496 
L 132.279675 227.778131 
L 132.882847 227.778131 
L 132.882847 226.659767 
L 134.029181 226.659767 
L 134.029181 225.541402 
L 134.213018 225.541402 
L 134.213018 223.304673 
L 134.485139 223.304673 
L 134.485139 222.186309 
L 134.664189 222.186309 
L 134.664189 221.067944 
L 135.016789 221.067944 
L 135.016789 219.94958 
L 135.616951 219.94958 
L 135.616951 218.831215 
L 135.950722 218.831215 
L 135.950722 217.712851 
L 136.278134 217.712851 
L 136.278134 216.594486 
L 136.757848 216.594486 
L 136.757848 214.357757 
L 136.914823 214.357757 
L 136.992776 212.121028 
L 137.14763 212.121028 
L 137.14763 211.002664 
L 137.377325 211.002664 
L 137.453213 208.765935 
L 137.603992 208.765935 
L 137.603992 207.64757 
L 137.975251 207.64757 
L 137.975251 206.529206 
L 138.410429 206.529206 
L 138.410429 205.410841 
L 138.694545 205.410841 
L 138.694545 204.292477 
L 139.043211 204.292477 
L 139.043211 202.055748 
L 139.180721 202.055748 
L 139.180721 200.937384 
L 139.317139 200.937384 
L 139.317139 199.819019 
L 139.653523 199.819019 
L 139.653523 198.700655 
L 139.983449 198.700655 
L 139.983449 196.463926 
L 140.178407 196.463926 
L 140.242905 194.227197 
L 140.498503 194.227197 
L 140.498503 193.108832 
L 140.750355 193.108832 
L 140.812746 189.753739 
L 140.998571 189.753739 
L 141.060069 185.280281 
L 141.243253 185.280281 
L 141.243253 183.043552 
L 141.3643 183.043552 
L 141.424506 180.806823 
L 141.484501 180.806823 
L 141.544287 178.570094 
L 141.603867 178.570094 
L 141.66324 172.978271 
L 141.72241 172.978271 
L 141.72241 171.859907 
L 141.84014 171.859907 
L 141.898705 168.504814 
L 142.015238 168.504814 
L 142.015238 167.386449 
L 142.130987 167.386449 
L 142.18857 162.912991 
L 142.245962 162.912991 
L 142.303162 160.676262 
L 142.416994 160.676262 
L 142.473629 158.439533 
L 142.530078 158.439533 
L 142.586342 153.966075 
L 142.642422 153.966075 
L 142.69832 151.729346 
L 142.864932 151.729346 
L 142.975116 149.492617 
L 143.247524 149.492617 
L 143.35529 147.255888 
L 143.408921 147.255888 
L 143.515683 139.427337 
L 143.568817 139.427337 
L 143.674593 132.71715 
L 143.727238 132.71715 
L 143.832047 128.243692 
L 143.884213 128.243692 
L 143.988072 121.533505 
L 144.142694 121.533505 
L 144.142694 120.415141 
L 144.447825 120.415141 
L 144.447825 119.296776 
L 144.598384 119.296776 
L 144.598384 118.178412 
L 144.797098 118.178412 
L 144.797098 117.060047 
L 144.944641 117.060047 
L 144.944641 115.941683 
L 145.139415 115.941683 
L 145.235981 112.586589 
L 145.284061 112.586589 
L 145.37982 109.231496 
L 145.569751 109.231496 
L 145.663936 91.337664 
L 145.710835 91.337664 
L 145.804252 84.627477 
L 145.85077 84.627477 
L 145.897164 75.680562 
L 145.989576 75.680562 
L 146.081494 64.496917 
L 146.127269 64.496917 
L 146.127269 63.378552 
L 146.263868 63.378552 
L 146.354335 61.141823 
L 146.533852 61.141823 
L 146.533852 60.023459 
L 146.667271 60.023459 
L 146.755644 57.78673 
L 150.538207 57.78673 
L 150.538207 56.668365 
L 159.445454 56.668365 
L 159.445454 55.550001 
L 160.288102 55.550001 
L 160.288102 54.431636 
L 174.188955 54.431636 
L 174.188955 53.313272 
L 189.122779 53.313272 
L 189.122779 52.194907 
L 190.577117 52.194907 
L 190.577117 51.076543 
L 196.070922 51.076543 
L 196.070922 49.958178 
L 199.75572 49.958178 
L 199.75572 48.839814 
L 210.457383 48.839814 
L 210.457383 47.72145 
L 213.652506 47.72145 
L 213.669586 45.484721 
L 217.007232 45.484721 
L 217.007232 44.366356 
L 217.131088 44.366356 
L 217.167045 42.129627 
L 217.255516 42.129627 
L 217.331196 39.892898 
L 217.486599 39.892898 
L 217.486599 38.774534 
L 217.647741 38.774534 
L 217.696856 36.537805 
L 218.073685 36.537805 
L 218.077162 9.697057 
L 333.168 9.697057 
L 333.168 9.697057 
" style="fill:none;stroke:#f5deb3;stroke-linecap:square;stroke-width:4;"/>
   </g>
   <g id="line2d_2">
    <defs>
     <path d="M -0 7.778175 
L 7.778175 0 
L 0 -7.778175 
L -7.778175 -0 
z
" id="me915059ead" style="stroke:#f5deb3;stroke-linejoin:miter;stroke-width:1.5;"/>
    </defs>
    <g>
     <use style="fill:#f5deb3;stroke:#f5deb3;stroke-linejoin:miter;stroke-width:1.5;" x="109.250788" xlink:href="#me915059ead" y="242.316869"/>
     <use style="fill:#f5deb3;stroke:#f5deb3;stroke-linejoin:miter;stroke-width:1.5;" x="142.015238" xlink:href="#me915059ead" y="167.386449"/>
     <use style="fill:#f5deb3;stroke:#f5deb3;stroke-linejoin:miter;stroke-width:1.5;" x="189.122779" xlink:href="#me915059ead" y="53.313272"/>
     <use style="fill:#f5deb3;stroke:#f5deb3;stroke-linejoin:miter;stroke-width:1.5;" x="218.077162" xlink:href="#me915059ead" y="9.697057"/>
     <use style="fill:#f5deb3;stroke:#f5deb3;stroke-linejoin:miter;stroke-width:1.5;" x="218.077162" xlink:href="#me915059ead" y="9.697057"/>
     <use style="fill:#f5deb3;stroke:#f5deb3;stroke-linejoin:miter;stroke-width:1.5;" x="333.168" xlink:href="#me915059ead" y="9.697057"/>
    </g>
   </g>
   <g id="line2d_3">
    <path style="fill:none;stroke:#f5deb3;stroke-linecap:square;stroke-width:4;"/>
    <g/>
   </g>
   <g id="line2d_4">
    <path d="M 333.168 9.697057 
L 363.64328 15.400716 
" style="fill:none;stroke:#f5deb3;stroke-linecap:square;stroke-width:4;"/>
    <g>
     <use style="fill:#f5deb3;stroke:#f5deb3;stroke-linejoin:miter;stroke-width:1.5;" x="333.168" xlink:href="#me915059ead" y="9.697057"/>
     <use style="fill:#f5deb3;stroke:#f5deb3;stroke-linejoin:miter;stroke-width:1.5;" x="363.64328" xlink:href="#me915059ead" y="15.400716"/>
    </g>
   </g>
   <g id="matplotlib.axis_1">
    <g id="xtick_1">
     <g id="line2d_5">
      <path clip-path="url(#pcd3bad17b1)" d="M 56.12 294.88 
L 56.12 6.845228 
" style="fill:none;stroke:#b0b0b0;stroke-linecap:square;stroke-width:0.8;"/>
     </g>
     <g id="line2d_6">
      <defs>
       <path d="M 0 0 
L 0 3.5 
" id="ma6cbc6a08a" style="stroke:#000000;stroke-width:0.8;"/>
      </defs>
      <g>
       <use style="stroke:#000000;stroke-width:0.8;" x="56.12" xlink:href="#ma6cbc6a08a" y="294.88"/>
      </g>
     </g>
     <g id="text_1">
      <!-- 0 -->
      <defs>
       <path d="M 31.78125 66.40625 
Q 24.171875 66.40625 20.328125 58.90625 
Q 16.5 51.421875 16.5 36.375 
Q 16.5 21.390625 20.328125 13.890625 
Q 24.171875 6.390625 31.78125 6.390625 
Q 39.453125 6.390625 43.28125 13.890625 
Q 47.125 21.390625 47.125 36.375 
Q 47.125 51.421875 43.28125 58.90625 
Q 39.453125 66.40625 31.78125 66.40625 
z
M 31.78125 74.21875 
Q 44.046875 74.21875 50.515625 64.515625 
Q 56.984375 54.828125 56.984375 36.375 
Q 56.984375 17.96875 50.515625 8.265625 
Q 44.046875 -1.421875 31.78125 -1.421875 
Q 19.53125 -1.421875 13.0625 8.265625 
Q 6.59375 17.96875 6.59375 36.375 
Q 6.59375 54.828125 13.0625 64.515625 
Q 19.53125 74.21875 31.78125 74.21875 
z
" id="DejaVuSans-30"/>
      </defs>
      <g transform="translate(49.7575 317.076875)scale(0.2 -0.2)">
       <use xlink:href="#DejaVuSans-30"/>
      </g>
     </g>
    </g>
    <g id="xtick_2">
     <g id="line2d_7">
      <path clip-path="url(#pcd3bad17b1)" d="M 135.276571 294.88 
L 135.276571 6.845228 
" style="fill:none;stroke:#b0b0b0;stroke-linecap:square;stroke-width:0.8;"/>
     </g>
     <g id="line2d_8">
      <g>
       <use style="stroke:#000000;stroke-width:0.8;" x="135.276571" xlink:href="#ma6cbc6a08a" y="294.88"/>
      </g>
     </g>
     <g id="text_2">
      <!-- 2 -->
      <defs>
       <path d="M 19.1875 8.296875 
L 53.609375 8.296875 
L 53.609375 0 
L 7.328125 0 
L 7.328125 8.296875 
Q 12.9375 14.109375 22.625 23.890625 
Q 32.328125 33.6875 34.8125 36.53125 
Q 39.546875 41.84375 41.421875 45.53125 
Q 43.3125 49.21875 43.3125 52.78125 
Q 43.3125 58.59375 39.234375 62.25 
Q 35.15625 65.921875 28.609375 65.921875 
Q 23.96875 65.921875 18.8125 64.3125 
Q 13.671875 62.703125 7.8125 59.421875 
L 7.8125 69.390625 
Q 13.765625 71.78125 18.9375 73 
Q 24.125 74.21875 28.421875 74.21875 
Q 39.75 74.21875 46.484375 68.546875 
Q 53.21875 62.890625 53.21875 53.421875 
Q 53.21875 48.921875 51.53125 44.890625 
Q 49.859375 40.875 45.40625 35.40625 
Q 44.1875 33.984375 37.640625 27.21875 
Q 31.109375 20.453125 19.1875 8.296875 
z
" id="DejaVuSans-32"/>
      </defs>
      <g transform="translate(128.914071 317.076875)scale(0.2 -0.2)">
       <use xlink:href="#DejaVuSans-32"/>
      </g>
     </g>
    </g>
    <g id="xtick_3">
     <g id="line2d_9">
      <path clip-path="url(#pcd3bad17b1)" d="M 214.433143 294.88 
L 214.433143 6.845228 
" style="fill:none;stroke:#b0b0b0;stroke-linecap:square;stroke-width:0.8;"/>
     </g>
     <g id="line2d_10">
      <g>
       <use style="stroke:#000000;stroke-width:0.8;" x="214.433143" xlink:href="#ma6cbc6a08a" y="294.88"/>
      </g>
     </g>
     <g id="text_3">
      <!-- 4 -->
      <defs>
       <path d="M 37.796875 64.3125 
L 12.890625 25.390625 
L 37.796875 25.390625 
z
M 35.203125 72.90625 
L 47.609375 72.90625 
L 47.609375 25.390625 
L 58.015625 25.390625 
L 58.015625 17.1875 
L 47.609375 17.1875 
L 47.609375 0 
L 37.796875 0 
L 37.796875 17.1875 
L 4.890625 17.1875 
L 4.890625 26.703125 
z
" id="DejaVuSans-34"/>
      </defs>
      <g transform="translate(208.070643 317.076875)scale(0.2 -0.2)">
       <use xlink:href="#DejaVuSans-34"/>
      </g>
     </g>
    </g>
    <g id="xtick_4">
     <g id="line2d_11">
      <path clip-path="url(#pcd3bad17b1)" d="M 293.589714 294.88 
L 293.589714 6.845228 
" style="fill:none;stroke:#b0b0b0;stroke-linecap:square;stroke-width:0.8;"/>
     </g>
     <g id="line2d_12">
      <g>
       <use style="stroke:#000000;stroke-width:0.8;" x="293.589714" xlink:href="#ma6cbc6a08a" y="294.88"/>
      </g>
     </g>
     <g id="text_4">
      <!-- 6 -->
      <defs>
       <path d="M 33.015625 40.375 
Q 26.375 40.375 22.484375 35.828125 
Q 18.609375 31.296875 18.609375 23.390625 
Q 18.609375 15.53125 22.484375 10.953125 
Q 26.375 6.390625 33.015625 6.390625 
Q 39.65625 6.390625 43.53125 10.953125 
Q 47.40625 15.53125 47.40625 23.390625 
Q 47.40625 31.296875 43.53125 35.828125 
Q 39.65625 40.375 33.015625 40.375 
z
M 52.59375 71.296875 
L 52.59375 62.3125 
Q 48.875 64.0625 45.09375 64.984375 
Q 41.3125 65.921875 37.59375 65.921875 
Q 27.828125 65.921875 22.671875 59.328125 
Q 17.53125 52.734375 16.796875 39.40625 
Q 19.671875 43.65625 24.015625 45.921875 
Q 28.375 48.1875 33.59375 48.1875 
Q 44.578125 48.1875 50.953125 41.515625 
Q 57.328125 34.859375 57.328125 23.390625 
Q 57.328125 12.15625 50.6875 5.359375 
Q 44.046875 -1.421875 33.015625 -1.421875 
Q 20.359375 -1.421875 13.671875 8.265625 
Q 6.984375 17.96875 6.984375 36.375 
Q 6.984375 53.65625 15.1875 63.9375 
Q 23.390625 74.21875 37.203125 74.21875 
Q 40.921875 74.21875 44.703125 73.484375 
Q 48.484375 72.75 52.59375 71.296875 
z
" id="DejaVuSans-36"/>
      </defs>
      <g transform="translate(287.227214 317.076875)scale(0.2 -0.2)">
       <use xlink:href="#DejaVuSans-36"/>
      </g>
     </g>
    </g>
    <g id="xtick_5">
     <g id="line2d_13">
      <path clip-path="url(#pcd3bad17b1)" d="M 56.12 294.88 
L 56.12 6.845228 
" style="fill:none;stroke:#b0b0b0;stroke-linecap:square;stroke-width:0.8;"/>
     </g>
     <g id="line2d_14">
      <defs>
       <path d="M 0 0 
L 0 2 
" id="mc52aa60733" style="stroke:#000000;stroke-width:0.6;"/>
      </defs>
      <g>
       <use style="stroke:#000000;stroke-width:0.6;" x="56.12" xlink:href="#mc52aa60733" y="294.88"/>
      </g>
     </g>
    </g>
    <g id="xtick_6">
     <g id="line2d_15">
      <path clip-path="url(#pcd3bad17b1)" d="M 95.698286 294.88 
L 95.698286 6.845228 
" style="fill:none;stroke:#b0b0b0;stroke-linecap:square;stroke-width:0.8;"/>
     </g>
     <g id="line2d_16">
      <g>
       <use style="stroke:#000000;stroke-width:0.6;" x="95.698286" xlink:href="#mc52aa60733" y="294.88"/>
      </g>
     </g>
    </g>
    <g id="xtick_7">
     <g id="line2d_17">
      <path clip-path="url(#pcd3bad17b1)" d="M 135.276571 294.88 
L 135.276571 6.845228 
" style="fill:none;stroke:#b0b0b0;stroke-linecap:square;stroke-width:0.8;"/>
     </g>
     <g id="line2d_18">
      <g>
       <use style="stroke:#000000;stroke-width:0.6;" x="135.276571" xlink:href="#mc52aa60733" y="294.88"/>
      </g>
     </g>
    </g>
    <g id="xtick_8">
     <g id="line2d_19">
      <path clip-path="url(#pcd3bad17b1)" d="M 174.854857 294.88 
L 174.854857 6.845228 
" style="fill:none;stroke:#b0b0b0;stroke-linecap:square;stroke-width:0.8;"/>
     </g>
     <g id="line2d_20">
      <g>
       <use style="stroke:#000000;stroke-width:0.6;" x="174.854857" xlink:href="#mc52aa60733" y="294.88"/>
      </g>
     </g>
    </g>
    <g id="xtick_9">
     <g id="line2d_21">
      <path clip-path="url(#pcd3bad17b1)" d="M 214.433143 294.88 
L 214.433143 6.845228 
" style="fill:none;stroke:#b0b0b0;stroke-linecap:square;stroke-width:0.8;"/>
     </g>
     <g id="line2d_22">
      <g>
       <use style="stroke:#000000;stroke-width:0.6;" x="214.433143" xlink:href="#mc52aa60733" y="294.88"/>
      </g>
     </g>
    </g>
    <g id="xtick_10">
     <g id="line2d_23">
      <path clip-path="url(#pcd3bad17b1)" d="M 254.011429 294.88 
L 254.011429 6.845228 
" style="fill:none;stroke:#b0b0b0;stroke-linecap:square;stroke-width:0.8;"/>
     </g>
     <g id="line2d_24">
      <g>
       <use style="stroke:#000000;stroke-width:0.6;" x="254.011429" xlink:href="#mc52aa60733" y="294.88"/>
      </g>
     </g>
    </g>
    <g id="xtick_11">
     <g id="line2d_25">
      <path clip-path="url(#pcd3bad17b1)" d="M 293.589714 294.88 
L 293.589714 6.845228 
" style="fill:none;stroke:#b0b0b0;stroke-linecap:square;stroke-width:0.8;"/>
     </g>
     <g id="line2d_26">
      <g>
       <use style="stroke:#000000;stroke-width:0.6;" x="293.589714" xlink:href="#mc52aa60733" y="294.88"/>
      </g>
     </g>
    </g>
    <g id="xtick_12">
     <g id="line2d_27">
      <path clip-path="url(#pcd3bad17b1)" d="M 333.168 294.88 
L 333.168 6.845228 
" style="fill:none;stroke:#b0b0b0;stroke-linecap:square;stroke-width:0.8;"/>
     </g>
     <g id="line2d_28">
      <g>
       <use style="stroke:#000000;stroke-width:0.6;" x="333.168" xlink:href="#mc52aa60733" y="294.88"/>
      </g>
     </g>
    </g>
    <g id="text_5">
     <!-- log10(# f-evals / dimension) -->
     <defs>
      <path d="M 9.421875 75.984375 
L 18.40625 75.984375 
L 18.40625 0 
L 9.421875 0 
z
" id="DejaVuSans-6c"/>
      <path d="M 30.609375 48.390625 
Q 23.390625 48.390625 19.1875 42.75 
Q 14.984375 37.109375 14.984375 27.296875 
Q 14.984375 17.484375 19.15625 11.84375 
Q 23.34375 6.203125 30.609375 6.203125 
Q 37.796875 6.203125 41.984375 11.859375 
Q 46.1875 17.53125 46.1875 27.296875 
Q 46.1875 37.015625 41.984375 42.703125 
Q 37.796875 48.390625 30.609375 48.390625 
z
M 30.609375 56 
Q 42.328125 56 49.015625 48.375 
Q 55.71875 40.765625 55.71875 27.296875 
Q 55.71875 13.875 49.015625 6.21875 
Q 42.328125 -1.421875 30.609375 -1.421875 
Q 18.84375 -1.421875 12.171875 6.21875 
Q 5.515625 13.875 5.515625 27.296875 
Q 5.515625 40.765625 12.171875 48.375 
Q 18.84375 56 30.609375 56 
z
" id="DejaVuSans-6f"/>
      <path d="M 45.40625 27.984375 
Q 45.40625 37.75 41.375 43.109375 
Q 37.359375 48.484375 30.078125 48.484375 
Q 22.859375 48.484375 18.828125 43.109375 
Q 14.796875 37.75 14.796875 27.984375 
Q 14.796875 18.265625 18.828125 12.890625 
Q 22.859375 7.515625 30.078125 7.515625 
Q 37.359375 7.515625 41.375 12.890625 
Q 45.40625 18.265625 45.40625 27.984375 
z
M 54.390625 6.78125 
Q 54.390625 -7.171875 48.1875 -13.984375 
Q 42 -20.796875 29.203125 -20.796875 
Q 24.46875 -20.796875 20.265625 -20.09375 
Q 16.0625 -19.390625 12.109375 -17.921875 
L 12.109375 -9.1875 
Q 16.0625 -11.328125 19.921875 -12.34375 
Q 23.78125 -13.375 27.78125 -13.375 
Q 36.625 -13.375 41.015625 -8.765625 
Q 45.40625 -4.15625 45.40625 5.171875 
L 45.40625 9.625 
Q 42.625 4.78125 38.28125 2.390625 
Q 33.9375 0 27.875 0 
Q 17.828125 0 11.671875 7.65625 
Q 5.515625 15.328125 5.515625 27.984375 
Q 5.515625 40.671875 11.671875 48.328125 
Q 17.828125 56 27.875 56 
Q 33.9375 56 38.28125 53.609375 
Q 42.625 51.21875 45.40625 46.390625 
L 45.40625 54.6875 
L 54.390625 54.6875 
z
" id="DejaVuSans-67"/>
      <path d="M 12.40625 8.296875 
L 28.515625 8.296875 
L 28.515625 63.921875 
L 10.984375 60.40625 
L 10.984375 69.390625 
L 28.421875 72.90625 
L 38.28125 72.90625 
L 38.28125 8.296875 
L 54.390625 8.296875 
L 54.390625 0 
L 12.40625 0 
z
" id="DejaVuSans-31"/>
      <path d="M 31 75.875 
Q 24.46875 64.65625 21.28125 53.65625 
Q 18.109375 42.671875 18.109375 31.390625 
Q 18.109375 20.125 21.3125 9.0625 
Q 24.515625 -2 31 -13.1875 
L 23.1875 -13.1875 
Q 15.875 -1.703125 12.234375 9.375 
Q 8.59375 20.453125 8.59375 31.390625 
Q 8.59375 42.28125 12.203125 53.3125 
Q 15.828125 64.359375 23.1875 75.875 
z
" id="DejaVuSans-28"/>
      <path d="M 51.125 44 
L 36.921875 44 
L 32.8125 27.6875 
L 47.125 27.6875 
z
M 43.796875 71.78125 
L 38.71875 51.515625 
L 52.984375 51.515625 
L 58.109375 71.78125 
L 65.921875 71.78125 
L 60.890625 51.515625 
L 76.125 51.515625 
L 76.125 44 
L 58.984375 44 
L 54.984375 27.6875 
L 70.515625 27.6875 
L 70.515625 20.21875 
L 53.078125 20.21875 
L 48 0 
L 40.1875 0 
L 45.21875 20.21875 
L 30.90625 20.21875 
L 25.875 0 
L 18.015625 0 
L 23.09375 20.21875 
L 7.71875 20.21875 
L 7.71875 27.6875 
L 24.90625 27.6875 
L 29 44 
L 13.28125 44 
L 13.28125 51.515625 
L 30.90625 51.515625 
L 35.890625 71.78125 
z
" id="DejaVuSans-23"/>
      <path id="DejaVuSans-20"/>
      <path d="M 37.109375 75.984375 
L 37.109375 68.5 
L 28.515625 68.5 
Q 23.6875 68.5 21.796875 66.546875 
Q 19.921875 64.59375 19.921875 59.515625 
L 19.921875 54.6875 
L 34.71875 54.6875 
L 34.71875 47.703125 
L 19.921875 47.703125 
L 19.921875 0 
L 10.890625 0 
L 10.890625 47.703125 
L 2.296875 47.703125 
L 2.296875 54.6875 
L 10.890625 54.6875 
L 10.890625 58.5 
Q 10.890625 67.625 15.140625 71.796875 
Q 19.390625 75.984375 28.609375 75.984375 
z
" id="DejaVuSans-66"/>
      <path d="M 4.890625 31.390625 
L 31.203125 31.390625 
L 31.203125 23.390625 
L 4.890625 23.390625 
z
" id="DejaVuSans-2d"/>
      <path d="M 56.203125 29.59375 
L 56.203125 25.203125 
L 14.890625 25.203125 
Q 15.484375 15.921875 20.484375 11.0625 
Q 25.484375 6.203125 34.421875 6.203125 
Q 39.59375 6.203125 44.453125 7.46875 
Q 49.3125 8.734375 54.109375 11.28125 
L 54.109375 2.78125 
Q 49.265625 0.734375 44.1875 -0.34375 
Q 39.109375 -1.421875 33.890625 -1.421875 
Q 20.796875 -1.421875 13.15625 6.1875 
Q 5.515625 13.8125 5.515625 26.8125 
Q 5.515625 40.234375 12.765625 48.109375 
Q 20.015625 56 32.328125 56 
Q 43.359375 56 49.78125 48.890625 
Q 56.203125 41.796875 56.203125 29.59375 
z
M 47.21875 32.234375 
Q 47.125 39.59375 43.09375 43.984375 
Q 39.0625 48.390625 32.421875 48.390625 
Q 24.90625 48.390625 20.390625 44.140625 
Q 15.875 39.890625 15.1875 32.171875 
z
" id="DejaVuSans-65"/>
      <path d="M 2.984375 54.6875 
L 12.5 54.6875 
L 29.59375 8.796875 
L 46.6875 54.6875 
L 56.203125 54.6875 
L 35.6875 0 
L 23.484375 0 
z
" id="DejaVuSans-76"/>
      <path d="M 34.28125 27.484375 
Q 23.390625 27.484375 19.1875 25 
Q 14.984375 22.515625 14.984375 16.5 
Q 14.984375 11.71875 18.140625 8.90625 
Q 21.296875 6.109375 26.703125 6.109375 
Q 34.1875 6.109375 38.703125 11.40625 
Q 43.21875 16.703125 43.21875 25.484375 
L 43.21875 27.484375 
z
M 52.203125 31.203125 
L 52.203125 0 
L 43.21875 0 
L 43.21875 8.296875 
Q 40.140625 3.328125 35.546875 0.953125 
Q 30.953125 -1.421875 24.3125 -1.421875 
Q 15.921875 -1.421875 10.953125 3.296875 
Q 6 8.015625 6 15.921875 
Q 6 25.140625 12.171875 29.828125 
Q 18.359375 34.515625 30.609375 34.515625 
L 43.21875 34.515625 
L 43.21875 35.40625 
Q 43.21875 41.609375 39.140625 45 
Q 35.0625 48.390625 27.6875 48.390625 
Q 23 48.390625 18.546875 47.265625 
Q 14.109375 46.140625 10.015625 43.890625 
L 10.015625 52.203125 
Q 14.9375 54.109375 19.578125 55.046875 
Q 24.21875 56 28.609375 56 
Q 40.484375 56 46.34375 49.84375 
Q 52.203125 43.703125 52.203125 31.203125 
z
" id="DejaVuSans-61"/>
      <path d="M 44.28125 53.078125 
L 44.28125 44.578125 
Q 40.484375 46.53125 36.375 47.5 
Q 32.28125 48.484375 27.875 48.484375 
Q 21.1875 48.484375 17.84375 46.4375 
Q 14.5 44.390625 14.5 40.28125 
Q 14.5 37.15625 16.890625 35.375 
Q 19.28125 33.59375 26.515625 31.984375 
L 29.59375 31.296875 
Q 39.15625 29.25 43.1875 25.515625 
Q 47.21875 21.78125 47.21875 15.09375 
Q 47.21875 7.46875 41.1875 3.015625 
Q 35.15625 -1.421875 24.609375 -1.421875 
Q 20.21875 -1.421875 15.453125 -0.5625 
Q 10.6875 0.296875 5.421875 2 
L 5.421875 11.28125 
Q 10.40625 8.6875 15.234375 7.390625 
Q 20.0625 6.109375 24.8125 6.109375 
Q 31.15625 6.109375 34.5625 8.28125 
Q 37.984375 10.453125 37.984375 14.40625 
Q 37.984375 18.0625 35.515625 20.015625 
Q 33.0625 21.96875 24.703125 23.78125 
L 21.578125 24.515625 
Q 13.234375 26.265625 9.515625 29.90625 
Q 5.8125 33.546875 5.8125 39.890625 
Q 5.8125 47.609375 11.28125 51.796875 
Q 16.75 56 26.8125 56 
Q 31.78125 56 36.171875 55.265625 
Q 40.578125 54.546875 44.28125 53.078125 
z
" id="DejaVuSans-73"/>
      <path d="M 25.390625 72.90625 
L 33.6875 72.90625 
L 8.296875 -9.28125 
L 0 -9.28125 
z
" id="DejaVuSans-2f"/>
      <path d="M 45.40625 46.390625 
L 45.40625 75.984375 
L 54.390625 75.984375 
L 54.390625 0 
L 45.40625 0 
L 45.40625 8.203125 
Q 42.578125 3.328125 38.25 0.953125 
Q 33.9375 -1.421875 27.875 -1.421875 
Q 17.96875 -1.421875 11.734375 6.484375 
Q 5.515625 14.40625 5.515625 27.296875 
Q 5.515625 40.1875 11.734375 48.09375 
Q 17.96875 56 27.875 56 
Q 33.9375 56 38.25 53.625 
Q 42.578125 51.265625 45.40625 46.390625 
z
M 14.796875 27.296875 
Q 14.796875 17.390625 18.875 11.75 
Q 22.953125 6.109375 30.078125 6.109375 
Q 37.203125 6.109375 41.296875 11.75 
Q 45.40625 17.390625 45.40625 27.296875 
Q 45.40625 37.203125 41.296875 42.84375 
Q 37.203125 48.484375 30.078125 48.484375 
Q 22.953125 48.484375 18.875 42.84375 
Q 14.796875 37.203125 14.796875 27.296875 
z
" id="DejaVuSans-64"/>
      <path d="M 9.421875 54.6875 
L 18.40625 54.6875 
L 18.40625 0 
L 9.421875 0 
z
M 9.421875 75.984375 
L 18.40625 75.984375 
L 18.40625 64.59375 
L 9.421875 64.59375 
z
" id="DejaVuSans-69"/>
      <path d="M 52 44.1875 
Q 55.375 50.25 60.0625 53.125 
Q 64.75 56 71.09375 56 
Q 79.640625 56 84.28125 50.015625 
Q 88.921875 44.046875 88.921875 33.015625 
L 88.921875 0 
L 79.890625 0 
L 79.890625 32.71875 
Q 79.890625 40.578125 77.09375 44.375 
Q 74.3125 48.1875 68.609375 48.1875 
Q 61.625 48.1875 57.5625 43.546875 
Q 53.515625 38.921875 53.515625 30.90625 
L 53.515625 0 
L 44.484375 0 
L 44.484375 32.71875 
Q 44.484375 40.625 41.703125 44.40625 
Q 38.921875 48.1875 33.109375 48.1875 
Q 26.21875 48.1875 22.15625 43.53125 
Q 18.109375 38.875 18.109375 30.90625 
L 18.109375 0 
L 9.078125 0 
L 9.078125 54.6875 
L 18.109375 54.6875 
L 18.109375 46.1875 
Q 21.1875 51.21875 25.484375 53.609375 
Q 29.78125 56 35.6875 56 
Q 41.65625 56 45.828125 52.96875 
Q 50 49.953125 52 44.1875 
z
" id="DejaVuSans-6d"/>
      <path d="M 54.890625 33.015625 
L 54.890625 0 
L 45.90625 0 
L 45.90625 32.71875 
Q 45.90625 40.484375 42.875 44.328125 
Q 39.84375 48.1875 33.796875 48.1875 
Q 26.515625 48.1875 22.3125 43.546875 
Q 18.109375 38.921875 18.109375 30.90625 
L 18.109375 0 
L 9.078125 0 
L 9.078125 54.6875 
L 18.109375 54.6875 
L 18.109375 46.1875 
Q 21.34375 51.125 25.703125 53.5625 
Q 30.078125 56 35.796875 56 
Q 45.21875 56 50.046875 50.171875 
Q 54.890625 44.34375 54.890625 33.015625 
z
" id="DejaVuSans-6e"/>
      <path d="M 8.015625 75.875 
L 15.828125 75.875 
Q 23.140625 64.359375 26.78125 53.3125 
Q 30.421875 42.28125 30.421875 31.390625 
Q 30.421875 20.453125 26.78125 9.375 
Q 23.140625 -1.703125 15.828125 -13.1875 
L 8.015625 -13.1875 
Q 14.5 -2 17.703125 9.0625 
Q 20.90625 20.125 20.90625 31.390625 
Q 20.90625 42.671875 17.703125 53.65625 
Q 14.5 64.65625 8.015625 75.875 
z
" id="DejaVuSans-29"/>
     </defs>
     <g transform="translate(73.803219 338.153594)scale(0.17 -0.17)">
      <use xlink:href="#DejaVuSans-6c"/>
      <use x="27.783203" xlink:href="#DejaVuSans-6f"/>
      <use x="88.964844" xlink:href="#DejaVuSans-67"/>
      <use x="152.441406" xlink:href="#DejaVuSans-31"/>
      <use x="216.064453" xlink:href="#DejaVuSans-30"/>
      <use x="279.6875" xlink:href="#DejaVuSans-28"/>
      <use x="318.701172" xlink:href="#DejaVuSans-23"/>
      <use x="402.490234" xlink:href="#DejaVuSans-20"/>
      <use x="434.277344" xlink:href="#DejaVuSans-66"/>
      <use x="469.404297" xlink:href="#DejaVuSans-2d"/>
      <use x="505.488281" xlink:href="#DejaVuSans-65"/>
      <use x="567.011719" xlink:href="#DejaVuSans-76"/>
      <use x="626.191406" xlink:href="#DejaVuSans-61"/>
      <use x="687.470703" xlink:href="#DejaVuSans-6c"/>
      <use x="715.253906" xlink:href="#DejaVuSans-73"/>
      <use x="767.353516" xlink:href="#DejaVuSans-20"/>
      <use x="799.140625" xlink:href="#DejaVuSans-2f"/>
      <use x="832.832031" xlink:href="#DejaVuSans-20"/>
      <use x="864.619141" xlink:href="#DejaVuSans-64"/>
      <use x="928.095703" xlink:href="#DejaVuSans-69"/>
      <use x="955.878906" xlink:href="#DejaVuSans-6d"/>
      <use x="1053.291016" xlink:href="#DejaVuSans-65"/>
      <use x="1114.814453" xlink:href="#DejaVuSans-6e"/>
      <use x="1178.193359" xlink:href="#DejaVuSans-73"/>
      <use x="1230.292969" xlink:href="#DejaVuSans-69"/>
      <use x="1258.076172" xlink:href="#DejaVuSans-6f"/>
      <use x="1319.257812" xlink:href="#DejaVuSans-6e"/>
      <use x="1382.636719" xlink:href="#DejaVuSans-29"/>
     </g>
    </g>
   </g>
   <g id="matplotlib.axis_2">
    <g id="ytick_1">
     <g id="line2d_29">
      <path clip-path="url(#pcd3bad17b1)" d="M 56.12 294.88 
L 333.168 294.88 
" style="fill:none;stroke:#b0b0b0;stroke-linecap:square;stroke-width:0.8;"/>
     </g>
     <g id="line2d_30">
      <defs>
       <path d="M 0 0 
L -3.5 0 
" id="mc4224bcd6d" style="stroke:#000000;stroke-width:0.8;"/>
      </defs>
      <g>
       <use style="stroke:#000000;stroke-width:0.8;" x="56.12" xlink:href="#mc4224bcd6d" y="294.88"/>
      </g>
     </g>
     <g id="text_6">
      <!-- 0.0 -->
      <defs>
       <path d="M 10.6875 12.40625 
L 21 12.40625 
L 21 0 
L 10.6875 0 
z
" id="DejaVuSans-2e"/>
      </defs>
      <g transform="translate(23.675 300.95875)scale(0.16 -0.16)">
       <use xlink:href="#DejaVuSans-30"/>
       <use x="63.623047" xlink:href="#DejaVuSans-2e"/>
       <use x="95.410156" xlink:href="#DejaVuSans-30"/>
      </g>
     </g>
    </g>
    <g id="ytick_2">
     <g id="line2d_31">
      <path clip-path="url(#pcd3bad17b1)" d="M 56.12 237.843411 
L 333.168 237.843411 
" style="fill:none;stroke:#b0b0b0;stroke-linecap:square;stroke-width:0.8;"/>
     </g>
     <g id="line2d_32">
      <g>
       <use style="stroke:#000000;stroke-width:0.8;" x="56.12" xlink:href="#mc4224bcd6d" y="237.843411"/>
      </g>
     </g>
     <g id="text_7">
      <!-- 0.2 -->
      <g transform="translate(23.675 243.922161)scale(0.16 -0.16)">
       <use xlink:href="#DejaVuSans-30"/>
       <use x="63.623047" xlink:href="#DejaVuSans-2e"/>
       <use x="95.410156" xlink:href="#DejaVuSans-32"/>
      </g>
     </g>
    </g>
    <g id="ytick_3">
     <g id="line2d_33">
      <path clip-path="url(#pcd3bad17b1)" d="M 56.12 180.806823 
L 333.168 180.806823 
" style="fill:none;stroke:#b0b0b0;stroke-linecap:square;stroke-width:0.8;"/>
     </g>
     <g id="line2d_34">
      <g>
       <use style="stroke:#000000;stroke-width:0.8;" x="56.12" xlink:href="#mc4224bcd6d" y="180.806823"/>
      </g>
     </g>
     <g id="text_8">
      <!-- 0.4 -->
      <g transform="translate(23.675 186.885573)scale(0.16 -0.16)">
       <use xlink:href="#DejaVuSans-30"/>
       <use x="63.623047" xlink:href="#DejaVuSans-2e"/>
       <use x="95.410156" xlink:href="#DejaVuSans-34"/>
      </g>
     </g>
    </g>
    <g id="ytick_4">
     <g id="line2d_35">
      <path clip-path="url(#pcd3bad17b1)" d="M 56.12 123.770234 
L 333.168 123.770234 
" style="fill:none;stroke:#b0b0b0;stroke-linecap:square;stroke-width:0.8;"/>
     </g>
     <g id="line2d_36">
      <g>
       <use style="stroke:#000000;stroke-width:0.8;" x="56.12" xlink:href="#mc4224bcd6d" y="123.770234"/>
      </g>
     </g>
     <g id="text_9">
      <!-- 0.6 -->
      <g transform="translate(23.675 129.848984)scale(0.16 -0.16)">
       <use xlink:href="#DejaVuSans-30"/>
       <use x="63.623047" xlink:href="#DejaVuSans-2e"/>
       <use x="95.410156" xlink:href="#DejaVuSans-36"/>
      </g>
     </g>
    </g>
    <g id="ytick_5">
     <g id="line2d_37">
      <path clip-path="url(#pcd3bad17b1)" d="M 56.12 66.733646 
L 333.168 66.733646 
" style="fill:none;stroke:#b0b0b0;stroke-linecap:square;stroke-width:0.8;"/>
     </g>
     <g id="line2d_38">
      <g>
       <use style="stroke:#000000;stroke-width:0.8;" x="56.12" xlink:href="#mc4224bcd6d" y="66.733646"/>
      </g>
     </g>
     <g id="text_10">
      <!-- 0.8 -->
      <defs>
       <path d="M 31.78125 34.625 
Q 24.75 34.625 20.71875 30.859375 
Q 16.703125 27.09375 16.703125 20.515625 
Q 16.703125 13.921875 20.71875 10.15625 
Q 24.75 6.390625 31.78125 6.390625 
Q 38.8125 6.390625 42.859375 10.171875 
Q 46.921875 13.96875 46.921875 20.515625 
Q 46.921875 27.09375 42.890625 30.859375 
Q 38.875 34.625 31.78125 34.625 
z
M 21.921875 38.8125 
Q 15.578125 40.375 12.03125 44.71875 
Q 8.5 49.078125 8.5 55.328125 
Q 8.5 64.0625 14.71875 69.140625 
Q 20.953125 74.21875 31.78125 74.21875 
Q 42.671875 74.21875 48.875 69.140625 
Q 55.078125 64.0625 55.078125 55.328125 
Q 55.078125 49.078125 51.53125 44.71875 
Q 48 40.375 41.703125 38.8125 
Q 48.828125 37.15625 52.796875 32.3125 
Q 56.78125 27.484375 56.78125 20.515625 
Q 56.78125 9.90625 50.3125 4.234375 
Q 43.84375 -1.421875 31.78125 -1.421875 
Q 19.734375 -1.421875 13.25 4.234375 
Q 6.78125 9.90625 6.78125 20.515625 
Q 6.78125 27.484375 10.78125 32.3125 
Q 14.796875 37.15625 21.921875 38.8125 
z
M 18.3125 54.390625 
Q 18.3125 48.734375 21.84375 45.5625 
Q 25.390625 42.390625 31.78125 42.390625 
Q 38.140625 42.390625 41.71875 45.5625 
Q 45.3125 48.734375 45.3125 54.390625 
Q 45.3125 60.0625 41.71875 63.234375 
Q 38.140625 66.40625 31.78125 66.40625 
Q 25.390625 66.40625 21.84375 63.234375 
Q 18.3125 60.0625 18.3125 54.390625 
z
" id="DejaVuSans-38"/>
      </defs>
      <g transform="translate(23.675 72.812396)scale(0.16 -0.16)">
       <use xlink:href="#DejaVuSans-30"/>
       <use x="63.623047" xlink:href="#DejaVuSans-2e"/>
       <use x="95.410156" xlink:href="#DejaVuSans-38"/>
      </g>
     </g>
    </g>
    <g id="ytick_6">
     <g id="line2d_39">
      <path clip-path="url(#pcd3bad17b1)" d="M 56.12 9.697057 
L 333.168 9.697057 
" style="fill:none;stroke:#b0b0b0;stroke-linecap:square;stroke-width:0.8;"/>
     </g>
     <g id="line2d_40">
      <g>
       <use style="stroke:#000000;stroke-width:0.8;" x="56.12" xlink:href="#mc4224bcd6d" y="9.697057"/>
      </g>
     </g>
     <g id="text_11">
      <!-- 1.0 -->
      <g transform="translate(23.675 15.775807)scale(0.16 -0.16)">
       <use xlink:href="#DejaVuSans-31"/>
       <use x="63.623047" xlink:href="#DejaVuSans-2e"/>
       <use x="95.410156" xlink:href="#DejaVuSans-30"/>
      </g>
     </g>
    </g>
    <g id="text_12">
     <!-- Fraction of function,target pairs -->
     <defs>
      <path d="M 9.8125 72.90625 
L 51.703125 72.90625 
L 51.703125 64.59375 
L 19.671875 64.59375 
L 19.671875 43.109375 
L 48.578125 43.109375 
L 48.578125 34.8125 
L 19.671875 34.8125 
L 19.671875 0 
L 9.8125 0 
z
" id="DejaVuSans-46"/>
      <path d="M 41.109375 46.296875 
Q 39.59375 47.171875 37.8125 47.578125 
Q 36.03125 48 33.890625 48 
Q 26.265625 48 22.1875 43.046875 
Q 18.109375 38.09375 18.109375 28.8125 
L 18.109375 0 
L 9.078125 0 
L 9.078125 54.6875 
L 18.109375 54.6875 
L 18.109375 46.1875 
Q 20.953125 51.171875 25.484375 53.578125 
Q 30.03125 56 36.53125 56 
Q 37.453125 56 38.578125 55.875 
Q 39.703125 55.765625 41.0625 55.515625 
z
" id="DejaVuSans-72"/>
      <path d="M 48.78125 52.59375 
L 48.78125 44.1875 
Q 44.96875 46.296875 41.140625 47.34375 
Q 37.3125 48.390625 33.40625 48.390625 
Q 24.65625 48.390625 19.8125 42.84375 
Q 14.984375 37.3125 14.984375 27.296875 
Q 14.984375 17.28125 19.8125 11.734375 
Q 24.65625 6.203125 33.40625 6.203125 
Q 37.3125 6.203125 41.140625 7.25 
Q 44.96875 8.296875 48.78125 10.40625 
L 48.78125 2.09375 
Q 45.015625 0.34375 40.984375 -0.53125 
Q 36.96875 -1.421875 32.421875 -1.421875 
Q 20.0625 -1.421875 12.78125 6.34375 
Q 5.515625 14.109375 5.515625 27.296875 
Q 5.515625 40.671875 12.859375 48.328125 
Q 20.21875 56 33.015625 56 
Q 37.15625 56 41.109375 55.140625 
Q 45.0625 54.296875 48.78125 52.59375 
z
" id="DejaVuSans-63"/>
      <path d="M 18.3125 70.21875 
L 18.3125 54.6875 
L 36.8125 54.6875 
L 36.8125 47.703125 
L 18.3125 47.703125 
L 18.3125 18.015625 
Q 18.3125 11.328125 20.140625 9.421875 
Q 21.96875 7.515625 27.59375 7.515625 
L 36.8125 7.515625 
L 36.8125 0 
L 27.59375 0 
Q 17.1875 0 13.234375 3.875 
Q 9.28125 7.765625 9.28125 18.015625 
L 9.28125 47.703125 
L 2.6875 47.703125 
L 2.6875 54.6875 
L 9.28125 54.6875 
L 9.28125 70.21875 
z
" id="DejaVuSans-74"/>
      <path d="M 8.5 21.578125 
L 8.5 54.6875 
L 17.484375 54.6875 
L 17.484375 21.921875 
Q 17.484375 14.15625 20.5 10.265625 
Q 23.53125 6.390625 29.59375 6.390625 
Q 36.859375 6.390625 41.078125 11.03125 
Q 45.3125 15.671875 45.3125 23.6875 
L 45.3125 54.6875 
L 54.296875 54.6875 
L 54.296875 0 
L 45.3125 0 
L 45.3125 8.40625 
Q 42.046875 3.421875 37.71875 1 
Q 33.40625 -1.421875 27.6875 -1.421875 
Q 18.265625 -1.421875 13.375 4.4375 
Q 8.5 10.296875 8.5 21.578125 
z
M 31.109375 56 
z
" id="DejaVuSans-75"/>
      <path d="M 11.71875 12.40625 
L 22.015625 12.40625 
L 22.015625 4 
L 14.015625 -11.625 
L 7.71875 -11.625 
L 11.71875 4 
z
" id="DejaVuSans-2c"/>
      <path d="M 18.109375 8.203125 
L 18.109375 -20.796875 
L 9.078125 -20.796875 
L 9.078125 54.6875 
L 18.109375 54.6875 
L 18.109375 46.390625 
Q 20.953125 51.265625 25.265625 53.625 
Q 29.59375 56 35.59375 56 
Q 45.5625 56 51.78125 48.09375 
Q 58.015625 40.1875 58.015625 27.296875 
Q 58.015625 14.40625 51.78125 6.484375 
Q 45.5625 -1.421875 35.59375 -1.421875 
Q 29.59375 -1.421875 25.265625 0.953125 
Q 20.953125 3.328125 18.109375 8.203125 
z
M 48.6875 27.296875 
Q 48.6875 37.203125 44.609375 42.84375 
Q 40.53125 48.484375 33.40625 48.484375 
Q 26.265625 48.484375 22.1875 42.84375 
Q 18.109375 37.203125 18.109375 27.296875 
Q 18.109375 17.390625 22.1875 11.75 
Q 26.265625 6.109375 33.40625 6.109375 
Q 40.53125 6.109375 44.609375 11.75 
Q 48.6875 17.390625 48.6875 27.296875 
z
" id="DejaVuSans-70"/>
     </defs>
     <g transform="translate(16.139531 286.001989)rotate(-90)scale(0.17 -0.17)">
      <use xlink:href="#DejaVuSans-46"/>
      <use x="57.410156" xlink:href="#DejaVuSans-72"/>
      <use x="98.523438" xlink:href="#DejaVuSans-61"/>
      <use x="159.802734" xlink:href="#DejaVuSans-63"/>
      <use x="214.783203" xlink:href="#DejaVuSans-74"/>
      <use x="253.992188" xlink:href="#DejaVuSans-69"/>
      <use x="281.775391" xlink:href="#DejaVuSans-6f"/>
      <use x="342.957031" xlink:href="#DejaVuSans-6e"/>
      <use x="406.335938" xlink:href="#DejaVuSans-20"/>
      <use x="438.123047" xlink:href="#DejaVuSans-6f"/>
      <use x="499.304688" xlink:href="#DejaVuSans-66"/>
      <use x="534.509766" xlink:href="#DejaVuSans-20"/>
      <use x="566.296875" xlink:href="#DejaVuSans-66"/>
      <use x="601.501953" xlink:href="#DejaVuSans-75"/>
      <use x="664.880859" xlink:href="#DejaVuSans-6e"/>
      <use x="728.259766" xlink:href="#DejaVuSans-63"/>
      <use x="783.240234" xlink:href="#DejaVuSans-74"/>
      <use x="822.449219" xlink:href="#DejaVuSans-69"/>
      <use x="850.232422" xlink:href="#DejaVuSans-6f"/>
      <use x="911.414062" xlink:href="#DejaVuSans-6e"/>
      <use x="974.792969" xlink:href="#DejaVuSans-2c"/>
      <use x="1006.580078" xlink:href="#DejaVuSans-74"/>
      <use x="1045.789062" xlink:href="#DejaVuSans-61"/>
      <use x="1107.068359" xlink:href="#DejaVuSans-72"/>
      <use x="1148.166016" xlink:href="#DejaVuSans-67"/>
      <use x="1211.642578" xlink:href="#DejaVuSans-65"/>
      <use x="1273.166016" xlink:href="#DejaVuSans-74"/>
      <use x="1312.375" xlink:href="#DejaVuSans-20"/>
      <use x="1344.162109" xlink:href="#DejaVuSans-70"/>
      <use x="1407.638672" xlink:href="#DejaVuSans-61"/>
      <use x="1468.917969" xlink:href="#DejaVuSans-69"/>
      <use x="1496.701172" xlink:href="#DejaVuSans-72"/>
      <use x="1537.814453" xlink:href="#DejaVuSans-73"/>
     </g>
    </g>
   </g>
   <g id="line2d_41">
    <defs>
     <path d="M 0 1.5 
C 0.397805 1.5 0.77937 1.341951 1.06066 1.06066 
C 1.341951 0.77937 1.5 0.397805 1.5 0 
C 1.5 -0.397805 1.341951 -0.77937 1.06066 -1.06066 
C 0.77937 -1.341951 0.397805 -1.5 0 -1.5 
C -0.397805 -1.5 -0.77937 -1.341951 -1.06066 -1.06066 
C -1.341951 -0.77937 -1.5 -0.397805 -1.5 0 
C -1.5 0.397805 -1.341951 0.77937 -1.06066 1.06066 
C -0.77937 1.341951 -0.397805 1.5 0 1.5 
z
" id="m964ee800e2" style="stroke:#f5deb3;"/>
    </defs>
    <g>
     <use style="fill:#f5deb3;stroke:#f5deb3;" x="218.077162" xlink:href="#m964ee800e2" y="9.697057"/>
     <use style="fill:#f5deb3;stroke:#f5deb3;" x="218.077162" xlink:href="#m964ee800e2" y="9.697057"/>
    </g>
   </g>
   <g id="line2d_42">
    <defs>
     <path d="M 0 1.5 
C 0.397805 1.5 0.77937 1.341951 1.06066 1.06066 
C 1.341951 0.77937 1.5 0.397805 1.5 0 
C 1.5 -0.397805 1.341951 -0.77937 1.06066 -1.06066 
C 0.77937 -1.341951 0.397805 -1.5 0 -1.5 
C -0.397805 -1.5 -0.77937 -1.341951 -1.06066 -1.06066 
C -1.341951 -0.77937 -1.5 -0.397805 -1.5 0 
C -1.5 0.397805 -1.341951 0.77937 -1.06066 1.06066 
C -0.77937 1.341951 -0.397805 1.5 0 1.5 
z
" id="m357a43318a" style="stroke:#000080;"/>
    </defs>
    <g>
     <use style="fill:#000080;stroke:#000080;" x="191.834937" xlink:href="#m357a43318a" y="156.202804"/>
     <use style="fill:#000080;stroke:#000080;" x="191.834937" xlink:href="#m357a43318a" y="156.202804"/>
    </g>
   </g>
   <g id="line2d_43">
    <path d="M 44.205749 294.88 
L 44.205749 278.104533 
L 75.003641 278.104533 
L 75.003641 277.769023 
L 79.948502 277.769023 
L 79.948502 277.657187 
L 81.973032 277.657187 
L 81.973032 277.433514 
L 86.917893 277.433514 
L 86.917893 277.209841 
L 89.567532 277.209841 
L 89.567532 277.098005 
L 90.753425 277.098005 
L 90.753425 276.762495 
L 91.862754 276.762495 
L 91.862754 276.426986 
L 92.904808 276.426986 
L 92.904808 276.091477 
L 93.887283 276.091477 
L 93.887283 275.97964 
L 94.816624 275.97964 
L 94.816624 275.867804 
L 95.698286 275.867804 
L 95.698286 275.755967 
L 97.336537 275.755967 
L 97.336537 275.308622 
L 98.100602 275.308622 
L 98.100602 274.861276 
L 98.832144 274.861276 
L 98.832144 274.749439 
L 99.533818 274.749439 
L 99.533818 274.525766 
L 100.207968 274.525766 
L 100.207968 274.302094 
L 100.856673 274.302094 
L 100.856673 273.631075 
L 101.481783 273.631075 
L 101.481783 273.295566 
L 102.084955 273.295566 
L 102.084955 272.736383 
L 102.667676 272.736383 
L 102.667676 272.400874 
L 103.231288 272.400874 
L 103.231288 271.841692 
L 103.777005 271.841692 
L 103.777005 271.394346 
L 104.305927 271.394346 
L 104.305927 264.684159 
L 104.819059 264.684159 
L 104.819059 262.44743 
L 105.317315 262.44743 
L 105.317315 262.000084 
L 105.801534 262.000084 
L 105.801534 261.888248 
L 106.272485 261.888248 
L 106.272485 261.776411 
L 106.730875 261.776411 
L 106.730875 261.664575 
L 107.177358 261.664575 
L 107.177358 260.993556 
L 107.612537 260.993556 
L 107.612537 260.88172 
L 108.451173 260.88172 
L 108.451173 260.658047 
L 108.85563 260.658047 
L 108.85563 260.54621 
L 110.384516 260.54621 
L 110.384516 260.210701 
L 111.100812 260.210701 
L 111.100812 259.987028 
L 111.448069 259.987028 
L 111.448069 259.875192 
L 112.122219 259.875192 
L 112.122219 259.651519 
L 112.449632 259.651519 
L 112.449632 259.092337 
L 112.770924 259.092337 
L 112.770924 258.9805 
L 113.396034 258.9805 
L 113.396034 258.756827 
L 114.293036 258.756827 
L 114.293036 258.421318 
L 114.581927 258.421318 
L 114.581927 257.302953 
L 114.866043 257.302953 
L 114.866043 257.191117 
L 115.145539 257.191117 
L 115.145539 256.967444 
L 115.420563 256.967444 
L 115.420563 256.743771 
L 115.691256 256.743771 
L 115.691256 256.631935 
L 115.957752 256.631935 
L 115.957752 256.520098 
L 116.220179 256.520098 
L 116.220179 256.296425 
L 116.73331 256.296425 
L 116.73331 255.84908 
L 116.984244 255.84908 
L 116.984244 255.625407 
L 117.231566 255.625407 
L 117.231566 255.401734 
L 117.475381 255.401734 
L 117.475381 255.178061 
L 117.952873 255.178061 
L 117.952873 254.059696 
L 118.186736 254.059696 
L 118.186736 253.500514 
L 118.417459 253.500514 
L 118.417459 253.276841 
L 118.645127 253.276841 
L 118.645127 253.165005 
L 118.869818 253.165005 
L 118.869818 252.941332 
L 119.09161 252.941332 
L 119.09161 252.829495 
L 119.310576 252.829495 
L 119.310576 252.605823 
L 119.526788 252.605823 
L 119.526788 250.704603 
L 119.740314 250.704603 
L 119.740314 250.48093 
L 119.95122 250.48093 
L 119.95122 249.921748 
L 120.15957 249.921748 
L 120.15957 249.362566 
L 120.365424 249.362566 
L 120.365424 249.250729 
L 120.568842 249.250729 
L 120.568842 249.138893 
L 120.769881 249.138893 
L 120.769881 248.691547 
L 120.968596 248.691547 
L 120.968596 248.57971 
L 121.16504 248.57971 
L 121.16504 246.678491 
L 121.359263 246.678491 
L 121.359263 246.342981 
L 121.551317 246.342981 
L 121.551317 245.336453 
L 121.741249 245.336453 
L 121.741249 244.665435 
L 121.929105 244.665435 
L 121.929105 243.658907 
L 122.114929 243.658907 
L 122.114929 243.435234 
L 122.298767 243.435234 
L 122.298767 242.876052 
L 122.480659 242.876052 
L 122.480659 242.764215 
L 122.660646 242.764215 
L 122.660646 241.869524 
L 122.838768 241.869524 
L 122.838768 241.757687 
L 123.015063 241.757687 
L 123.015063 241.198505 
L 123.189569 241.198505 
L 123.189569 240.527486 
L 123.36232 240.527486 
L 123.36232 240.41565 
L 123.7027 240.41565 
L 123.7027 239.968304 
L 123.870396 239.968304 
L 123.870396 239.632795 
L 124.036471 239.632795 
L 124.036471 238.849939 
L 124.363883 238.849939 
L 124.363883 238.738103 
L 124.685175 238.738103 
L 124.685175 238.178921 
L 125.000572 238.178921 
L 125.000572 237.619739 
L 125.156126 237.619739 
L 125.156126 237.507902 
L 125.310285 237.507902 
L 125.310285 237.396066 
L 125.614517 237.396066 
L 125.614517 236.725047 
L 125.764637 236.725047 
L 125.764637 236.501374 
L 125.913457 236.501374 
L 125.913457 236.389538 
L 126.061 236.389538 
L 126.061 235.942192 
L 126.207287 235.942192 
L 126.207287 235.494846 
L 126.352339 235.494846 
L 126.352339 235.38301 
L 126.496178 235.38301 
L 126.496178 233.929136 
L 126.638823 233.929136 
L 126.638823 233.817299 
L 126.780294 233.817299 
L 126.780294 233.48179 
L 126.92061 233.48179 
L 126.92061 233.258117 
L 127.05979 233.258117 
L 127.05979 233.146281 
L 127.334814 233.146281 
L 127.334814 232.475262 
L 127.605507 232.475262 
L 127.605507 232.363425 
L 127.739271 232.363425 
L 127.739271 232.251589 
L 127.872003 232.251589 
L 127.872003 232.139753 
L 128.13443 232.139753 
L 128.13443 232.027916 
L 128.39291 232.027916 
L 128.39291 231.804243 
L 128.647561 231.804243 
L 128.647561 231.692407 
L 128.773486 231.692407 
L 128.773486 231.58057 
L 129.389632 231.58057 
L 129.389632 231.468734 
L 129.510254 231.468734 
L 129.510254 231.356897 
L 129.867125 231.356897 
L 129.867125 231.245061 
L 130.784069 231.245061 
L 130.784069 231.133225 
L 130.895323 231.133225 
L 130.895323 231.021388 
L 131.654565 231.021388 
L 131.654565 230.797715 
L 132.279675 230.797715 
L 132.381685 230.462206 
L 132.583907 230.462206 
L 132.583907 230.350369 
L 132.882847 230.350369 
L 132.98135 230.01486 
L 133.465568 230.01486 
L 133.560797 229.343841 
L 133.6555 229.343841 
L 133.749684 229.120168 
L 133.936519 229.120168 
L 134.029181 228.672823 
L 134.121345 228.672823 
L 134.121345 228.560986 
L 134.304205 228.560986 
L 134.39491 227.889968 
L 134.664189 227.889968 
L 134.753019 227.554458 
L 134.841393 227.554458 
L 134.929315 226.771603 
L 135.016789 226.771603 
L 135.10382 226.436094 
L 135.190413 226.436094 
L 135.276571 225.765075 
L 135.3623 225.765075 
L 135.447604 225.094056 
L 135.532486 225.094056 
L 135.616951 224.646711 
L 135.701004 224.646711 
L 135.784647 224.087528 
L 135.867885 224.087528 
L 135.950722 223.304673 
L 136.033161 223.304673 
L 136.115208 222.521818 
L 136.196864 222.521818 
L 136.278134 221.850799 
L 136.359022 221.850799 
L 136.439531 221.291617 
L 136.519665 221.291617 
L 136.599426 220.732435 
L 136.67882 220.732435 
L 136.757848 220.173253 
L 136.836515 220.173253 
L 136.914823 219.61407 
L 136.992776 219.61407 
L 137.070377 219.166725 
L 137.14763 219.166725 
L 137.14763 218.719379 
L 137.377325 218.719379 
L 137.377325 218.607542 
L 137.603992 218.607542 
L 137.603992 218.383869 
L 137.753459 218.383869 
L 137.753459 218.272033 
L 137.901638 218.272033 
L 137.975251 217.265505 
L 138.04855 217.265505 
L 138.121538 217.041832 
L 138.194217 217.041832 
L 138.266591 216.706323 
L 138.33866 216.706323 
L 138.33866 216.14714 
L 138.4819 216.14714 
L 138.553074 215.923468 
L 138.694545 215.923468 
L 138.764847 215.699795 
L 138.834862 215.699795 
L 138.904592 214.805103 
L 138.974042 214.805103 
L 139.043211 214.357757 
L 139.112104 214.357757 
L 139.180721 213.910412 
L 139.249066 213.910412 
L 139.317139 213.463066 
L 139.452484 213.463066 
L 139.519758 213.01572 
L 139.586771 213.01572 
L 139.586771 212.903883 
L 139.720016 212.903883 
L 139.720016 212.680211 
L 139.852237 212.680211 
L 139.852237 212.568374 
L 139.983449 212.568374 
L 140.048681 212.232865 
L 140.113666 212.232865 
L 140.178407 211.673683 
L 140.242905 211.673683 
L 140.307161 211.338173 
L 140.434959 211.338173 
L 140.498503 210.778991 
L 140.561812 210.778991 
L 140.62489 210.443482 
L 140.687737 210.443482 
L 140.750355 210.219809 
L 140.874911 210.219809 
L 140.874911 210.107972 
L 140.998571 210.107972 
L 141.060069 209.772463 
L 141.121347 209.772463 
L 141.182408 209.325117 
L 141.3643 209.325117 
L 141.3643 209.101444 
L 141.544287 209.101444 
L 141.544287 208.989608 
L 141.66324 208.989608 
L 141.72241 208.765935 
L 142.07321 208.765935 
L 142.130987 208.542262 
L 142.18857 208.542262 
L 142.18857 208.430426 
L 142.303162 208.430426 
L 142.360172 208.206753 
L 142.416994 208.206753 
L 142.416994 208.094916 
L 142.586342 208.094916 
L 142.642422 207.871243 
L 142.69832 207.871243 
L 142.754037 207.312061 
L 142.809574 207.312061 
L 142.864932 207.088388 
L 142.975116 207.088388 
L 143.029944 206.641042 
L 143.247524 206.641042 
L 143.35529 206.08186 
L 143.408921 206.08186 
L 143.515683 205.522678 
L 143.621786 205.522678 
L 143.727238 205.075332 
L 143.832047 205.075332 
L 143.936221 204.627986 
L 144.039767 204.627986 
L 144.142694 204.068804 
L 144.245007 204.068804 
L 144.295937 203.621458 
L 144.397345 203.621458 
L 144.397345 203.397785 
L 144.548344 203.397785 
L 144.598384 203.062276 
L 144.698028 203.062276 
L 144.797098 202.279421 
L 144.944641 202.279421 
L 145.042304 201.943912 
L 145.139415 201.943912 
L 145.235981 201.384729 
L 145.4275 201.384729 
L 145.522465 200.825547 
L 145.616908 200.825547 
L 145.710835 200.490038 
L 145.85077 200.490038 
L 145.897164 200.266365 
L 146.035596 200.266365 
L 146.081494 200.042692 
L 146.172923 200.042692 
L 146.263868 199.595346 
L 146.309161 199.595346 
L 146.39939 198.812491 
L 146.444328 198.812491 
L 146.444328 198.588818 
L 146.622913 198.588818 
L 146.711514 198.365145 
L 146.799661 198.365145 
L 146.887358 197.694127 
L 146.93104 197.694127 
L 147.018071 197.023108 
L 147.104664 197.023108 
L 147.147797 196.687599 
L 147.233741 196.687599 
L 147.276552 196.352089 
L 147.361855 196.352089 
L 147.446737 196.128416 
L 147.489022 196.128416 
L 147.57328 195.904743 
L 147.615255 195.904743 
L 147.698898 195.569234 
L 147.740567 195.569234 
L 147.823604 194.786379 
L 147.864973 194.786379 
L 147.906242 194.562706 
L 147.988485 194.562706 
L 148.070335 194.339033 
L 148.111115 194.339033 
L 148.192385 193.891687 
L 148.232877 193.891687 
L 148.313575 193.108832 
L 148.353782 193.108832 
L 148.393896 192.661486 
L 148.513678 192.661486 
L 148.593071 191.990468 
L 148.672099 191.990468 
L 148.672099 191.878631 
L 148.789965 191.878631 
L 148.868095 191.431285 
L 148.907027 191.431285 
L 148.945872 191.095776 
L 149.023298 191.095776 
L 149.100377 190.760267 
L 149.138788 190.760267 
L 149.138788 190.64843 
L 149.291576 190.64843 
L 149.367465 190.424757 
L 149.405283 190.424757 
L 149.480672 190.089248 
L 149.518243 190.089248 
L 149.555732 189.753739 
L 149.66771 189.753739 
L 149.741959 189.306393 
L 149.778964 189.306393 
L 149.852735 188.859047 
L 149.962801 188.859047 
L 150.072167 188.523538 
L 150.180842 188.523538 
L 150.288834 188.076192 
L 150.324681 188.076192 
L 150.431775 187.628846 
L 150.538207 187.628846 
L 150.643983 187.405173 
L 150.679098 187.405173 
L 150.784014 187.069664 
L 150.888293 187.069664 
L 150.888293 186.957828 
L 151.026355 186.957828 
L 151.129178 186.622318 
L 151.163317 186.622318 
L 151.231391 186.398645 
L 151.400405 186.398645 
L 151.467548 185.951299 
L 151.601053 185.951299 
L 151.700505 185.61579 
L 151.733528 185.61579 
L 151.832219 185.168444 
L 151.864991 185.168444 
L 151.8977 184.944771 
L 152.253451 184.944771 
L 152.253451 184.609262 
L 152.381011 184.609262 
L 152.412754 184.161916 
L 152.570594 184.161916 
L 152.570594 183.938243 
L 152.69583 183.938243 
L 152.789162 183.379061 
L 152.820161 183.379061 
L 152.88199 183.155388 
L 153.035598 183.155388 
L 153.035598 183.043552 
L 153.218134 183.043552 
L 153.218134 182.819879 
L 153.36878 182.819879 
L 153.458539 182.48437 
L 153.54783 182.48437 
L 153.636661 182.14886 
L 153.9585 182.14886 
L 154.016374 181.813351 
L 154.102822 181.813351 
L 154.160213 181.589678 
L 154.245942 181.589678 
L 154.302858 181.366005 
L 154.359586 181.366005 
L 154.416128 181.142332 
L 154.696079 181.142332 
L 154.779183 180.694986 
L 154.889367 180.694986 
L 154.998849 180.023968 
L 155.026111 180.023968 
L 155.107638 179.688458 
L 155.215743 179.688458 
L 155.323172 178.905603 
L 155.376636 178.905603 
L 155.483068 178.234585 
L 155.693974 178.234585 
L 155.772401 178.010912 
L 155.824488 178.010912 
L 155.902323 177.563566 
L 155.954019 177.563566 
L 156.056945 177.339893 
L 156.133737 177.339893 
L 156.133737 177.228057 
L 156.362076 177.228057 
L 156.412409 177.004384 
L 156.487633 177.004384 
L 156.487633 176.892547 
L 156.612279 176.892547 
L 156.661886 176.557038 
L 156.736028 176.557038 
L 156.809852 176.109692 
L 156.858892 176.109692 
L 156.858892 175.997856 
L 157.005179 175.997856 
L 157.02944 175.774183 
L 157.126141 175.774183 
L 157.126141 175.662346 
L 157.246258 175.662346 
L 157.317927 175.326837 
L 157.484002 175.326837 
L 157.578187 175.103164 
L 157.648488 175.103164 
L 157.695196 174.767655 
L 157.765022 174.767655 
L 157.857683 174.432145 
L 158.155428 174.432145 
L 158.246014 173.9848 
L 158.291129 173.9848 
L 158.381004 173.64929 
L 158.470412 173.64929 
L 158.559357 173.425617 
L 158.625765 173.425617 
L 158.735879 172.754599 
L 158.86709 172.754599 
L 158.932322 172.419089 
L 159.147992 172.419089 
L 159.147992 172.307253 
L 159.360989 172.307253 
L 159.445454 171.971743 
L 159.633996 171.971743 
L 159.633996 171.859907 
L 159.758552 171.859907 
L 159.861664 171.636234 
L 159.902736 171.636234 
L 159.984587 171.412561 
L 160.207687 171.412561 
L 160.288102 171.077052 
L 160.408023 171.077052 
L 160.408023 170.965215 
L 160.527113 170.965215 
L 160.527113 170.853379 
L 160.645384 170.853379 
L 160.704216 170.51787 
L 160.782346 170.51787 
L 160.782346 170.406033 
L 160.89888 170.406033 
L 160.956851 170.070524 
L 161.033844 170.070524 
L 161.033844 169.958687 
L 161.451249 169.958687 
L 161.50739 169.735014 
L 161.65621 169.735014 
L 161.65621 169.623178 
L 161.78538 169.623178 
L 161.895329 169.287669 
L 161.913585 169.287669 
L 161.95004 169.063996 
L 162.095093 169.063996 
L 162.095093 168.952159 
L 162.256827 168.952159 
L 162.328224 168.728486 
L 162.523048 168.728486 
L 162.628392 168.504814 
L 162.680823 168.504814 
L 162.680823 168.392977 
L 162.974949 168.392977 
L 163.077568 168.169304 
L 163.179578 168.169304 
L 163.24725 167.833795 
L 163.746471 167.833795 
L 163.828282 167.274613 
L 163.97457 167.274613 
L 164.055305 167.05094 
L 164.119622 167.05094 
L 164.167702 166.827267 
L 164.247538 166.827267 
L 164.311141 166.603594 
L 164.578857 166.603594 
L 164.687893 166.156248 
L 164.780805 166.156248 
L 164.780805 166.044412 
L 164.903911 166.044412 
L 164.919238 165.820739 
L 165.132385 165.820739 
L 165.207874 165.373393 
L 165.283032 165.373393 
L 165.283032 165.261557 
L 165.402605 165.261557 
L 165.447232 164.926047 
L 165.521353 164.926047 
L 165.521353 164.814211 
L 165.668643 164.814211 
L 165.756415 164.478701 
L 165.843741 164.478701 
L 165.901712 164.255029 
L 166.017073 164.255029 
L 166.088782 163.807683 
L 166.160193 163.807683 
L 166.160193 163.695846 
L 166.665777 163.695846 
L 166.665777 163.58401 
L 166.858446 163.58401 
L 166.940362 163.2485 
L 167.021889 163.2485 
L 167.116518 162.689318 
L 167.277537 162.689318 
L 167.344186 162.465645 
L 167.397319 162.465645 
L 167.423824 162.130136 
L 167.686652 162.130136 
L 167.686652 162.0183 
L 167.842442 162.0183 
L 167.842442 161.906463 
L 168.060754 161.906463 
L 168.124439 161.68279 
L 168.175218 161.68279 
L 168.251106 161.347281 
L 168.364314 161.347281 
L 168.364314 161.235444 
L 168.514106 161.235444 
L 168.514106 161.123608 
L 168.797611 161.123608 
L 168.797611 161.011772 
L 168.943691 161.011772 
L 169.016268 160.788099 
L 169.136553 160.788099 
L 169.232178 160.564426 
L 169.267901 160.564426 
L 169.339125 160.228916 
L 169.398253 160.228916 
L 169.398253 160.11708 
L 169.621105 160.11708 
L 169.621105 160.005243 
L 169.783482 160.005243 
L 169.783482 159.893407 
L 170.340017 159.893407 
L 170.395806 159.446061 
L 170.528966 159.446061 
L 170.528966 159.334225 
L 170.835719 159.334225 
L 170.900745 159.110552 
L 171.040797 159.110552 
L 171.12642 158.886879 
L 171.775915 158.886879 
L 171.857961 158.663206 
L 172.352124 158.663206 
L 172.352124 158.55137 
L 172.500602 158.55137 
L 172.500602 158.439533 
L 172.657576 158.439533 
L 172.657576 158.327697 
L 173.043854 158.327697 
L 173.139082 158.104024 
L 173.271521 158.104024 
L 173.271521 157.992187 
L 173.524094 157.992187 
L 173.524094 157.880351 
L 173.65361 157.880351 
L 173.65361 157.768515 
L 175.495921 157.768515 
L 175.495921 157.656678 
L 175.799571 157.656678 
L 175.799571 157.544842 
L 175.937308 157.544842 
L 175.937308 157.433005 
L 176.602144 157.433005 
L 176.602144 157.321169 
L 176.802822 157.321169 
L 176.871745 157.097496 
L 176.925162 157.097496 
L 176.925162 156.985659 
L 177.656068 156.985659 
L 177.656068 156.873823 
L 178.461989 156.873823 
L 178.461989 156.761987 
L 181.471143 156.761987 
L 181.471143 156.65015 
L 182.085806 156.65015 
L 182.085806 156.538314 
L 182.944316 156.538314 
L 182.944316 156.426477 
L 190.091717 156.426477 
L 190.091717 156.314641 
L 191.834937 156.314641 
L 191.834937 156.202804 
L 333.168 156.202804 
L 333.168 156.202804 
" style="fill:none;stroke:#000080;stroke-linecap:square;stroke-width:1.5;"/>
   </g>
   <g id="line2d_44">
    <defs>
     <path d="M 0 6 
C 1.591219 6 3.117479 5.367802 4.242641 4.242641 
C 5.367802 3.117479 6 1.591219 6 0 
C 6 -1.591219 5.367802 -3.117479 4.242641 -4.242641 
C 3.117479 -5.367802 1.591219 -6 0 -6 
C -1.591219 -6 -3.117479 -5.367802 -4.242641 -4.242641 
C -5.367802 -3.117479 -6 -1.591219 -6 0 
C -6 1.591219 -5.367802 3.117479 -4.242641 4.242641 
C -3.117479 5.367802 -1.591219 6 0 6 
z
" id="mf91e275d8d" style="stroke:#000080;stroke-width:1.5;"/>
    </defs>
    <g>
     <use style="fill:none;stroke:#000080;stroke-width:1.5;" x="127.872003" xlink:href="#mf91e275d8d" y="232.139753"/>
     <use style="fill:none;stroke:#000080;stroke-width:1.5;" x="159.147992" xlink:href="#mf91e275d8d" y="172.307253"/>
     <use style="fill:none;stroke:#000080;stroke-width:1.5;" x="191.834937" xlink:href="#mf91e275d8d" y="156.314641"/>
     <use style="fill:none;stroke:#000080;stroke-width:1.5;" x="191.834937" xlink:href="#mf91e275d8d" y="156.202804"/>
     <use style="fill:none;stroke:#000080;stroke-width:1.5;" x="191.834937" xlink:href="#mf91e275d8d" y="156.202804"/>
     <use style="fill:none;stroke:#000080;stroke-width:1.5;" x="333.168" xlink:href="#mf91e275d8d" y="156.202804"/>
    </g>
   </g>
   <g id="line2d_45">
    <path style="fill:none;stroke:#000080;stroke-linecap:square;stroke-width:1.5;"/>
    <g/>
   </g>
   <g id="line2d_46">
    <path clip-path="url(#pcd3bad17b1)" d="M 125.614517 236.725047 
" style="fill:none;stroke:#000080;stroke-linecap:square;stroke-width:1.5;"/>
    <defs>
     <path d="M -12 12 
L 12 -12 
M -12 -12 
L 12 12 
" id="m1fda9d710e" style="stroke:#000080;"/>
    </defs>
    <g clip-path="url(#pcd3bad17b1)">
     <use style="fill:#000080;stroke:#000080;" x="125.614517" xlink:href="#m1fda9d710e" y="236.725047"/>
    </g>
   </g>
   <g id="line2d_47">
    <defs>
     <path d="M 0 1.5 
C 0.397805 1.5 0.77937 1.341951 1.06066 1.06066 
C 1.341951 0.77937 1.5 0.397805 1.5 0 
C 1.5 -0.397805 1.341951 -0.77937 1.06066 -1.06066 
C 0.77937 -1.341951 0.397805 -1.5 0 -1.5 
C -0.397805 -1.5 -0.77937 -1.341951 -1.06066 -1.06066 
C -1.341951 -0.77937 -1.5 -0.397805 -1.5 0 
C -1.5 0.397805 -1.341951 0.77937 -1.06066 1.06066 
C -0.77937 1.341951 -0.397805 1.5 0 1.5 
z
" id="m697343414d" style="stroke:#ff00ff;"/>
    </defs>
    <g>
     <use style="fill:#ff00ff;stroke:#ff00ff;" x="195.902516" xlink:href="#m697343414d" y="156.202804"/>
     <use style="fill:#ff00ff;stroke:#ff00ff;" x="195.902516" xlink:href="#m697343414d" y="156.202804"/>
    </g>
   </g>
   <g id="line2d_48">
    <path d="M 44.205749 294.88 
L 44.205749 278.440042 
L 75.003641 278.440042 
L 75.003641 278.104533 
L 81.973032 278.104533 
L 81.973032 277.992696 
L 85.422286 277.992696 
L 85.422286 277.769023 
L 86.917893 277.769023 
L 86.917893 277.321678 
L 89.567532 277.321678 
L 89.567532 277.209841 
L 90.753425 277.209841 
L 90.753425 277.098005 
L 91.862754 277.098005 
L 91.862754 276.762495 
L 92.904808 276.762495 
L 92.904808 276.538822 
L 93.887283 276.538822 
L 93.887283 276.426986 
L 94.816624 276.426986 
L 94.816624 276.31515 
L 95.698286 276.31515 
L 95.698286 276.091477 
L 96.536922 276.091477 
L 96.536922 275.97964 
L 97.336537 275.97964 
L 97.336537 275.532294 
L 98.100602 275.532294 
L 98.100602 275.084949 
L 98.832144 275.084949 
L 98.832144 274.973112 
L 99.533818 274.973112 
L 99.533818 274.637603 
L 100.207968 274.637603 
L 100.207968 274.41393 
L 100.856673 274.41393 
L 100.856673 273.631075 
L 101.481783 273.631075 
L 101.481783 273.183729 
L 102.084955 273.183729 
L 102.084955 272.736383 
L 102.667676 272.736383 
L 102.667676 272.400874 
L 103.231288 272.400874 
L 103.231288 271.953528 
L 103.777005 271.953528 
L 103.777005 271.729855 
L 104.305927 271.729855 
L 104.305927 265.019668 
L 104.819059 265.019668 
L 104.819059 263.118449 
L 105.317315 263.118449 
L 105.317315 262.559266 
L 105.801534 262.559266 
L 105.801534 262.44743 
L 107.177358 262.44743 
L 107.177358 261.552738 
L 108.036969 261.552738 
L 108.036969 261.440902 
L 108.451173 261.440902 
L 108.451173 261.217229 
L 108.85563 261.217229 
L 108.85563 260.993556 
L 110.384516 260.993556 
L 110.384516 260.769883 
L 111.100812 260.769883 
L 111.100812 260.434374 
L 111.448069 260.434374 
L 111.448069 260.322538 
L 112.122219 260.322538 
L 112.122219 260.098865 
L 112.449632 260.098865 
L 112.449632 259.539682 
L 112.770924 259.539682 
L 112.770924 259.427846 
L 113.396034 259.427846 
L 113.396034 259.204173 
L 113.999206 259.204173 
L 113.999206 259.092337 
L 114.293036 259.092337 
L 114.293036 258.756827 
L 114.581927 258.756827 
L 114.581927 257.638463 
L 115.145539 257.638463 
L 115.145539 257.526626 
L 115.420563 257.526626 
L 115.420563 257.079281 
L 115.691256 257.079281 
L 115.691256 256.855608 
L 115.957752 256.855608 
L 115.957752 256.743771 
L 116.220179 256.743771 
L 116.220179 256.631935 
L 116.478659 256.631935 
L 116.478659 256.520098 
L 116.73331 256.520098 
L 116.73331 256.408262 
L 116.984244 256.408262 
L 116.984244 255.960916 
L 117.231566 255.960916 
L 117.231566 255.737243 
L 117.475381 255.737243 
L 117.475381 255.625407 
L 117.715785 255.625407 
L 117.715785 255.401734 
L 117.952873 255.401734 
L 117.952873 254.283369 
L 118.186736 254.283369 
L 118.186736 253.836024 
L 118.417459 253.836024 
L 118.417459 253.500514 
L 118.645127 253.500514 
L 118.645127 253.388678 
L 118.869818 253.388678 
L 118.869818 253.165005 
L 119.09161 253.165005 
L 119.09161 252.717659 
L 119.526788 252.717659 
L 119.526788 251.151949 
L 119.95122 251.151949 
L 119.95122 250.48093 
L 120.15957 250.48093 
L 120.15957 249.809911 
L 120.365424 249.809911 
L 120.365424 249.586238 
L 120.568842 249.586238 
L 120.568842 249.250729 
L 120.769881 249.250729 
L 120.769881 249.027056 
L 120.968596 249.027056 
L 120.968596 248.91522 
L 121.16504 248.91522 
L 121.16504 246.790327 
L 121.359263 246.790327 
L 121.359263 246.454818 
L 121.551317 246.454818 
L 121.551317 245.560126 
L 121.741249 245.560126 
L 121.741249 244.441762 
L 121.929105 244.441762 
L 121.929105 243.54707 
L 122.114929 243.54707 
L 122.114929 243.323397 
L 122.298767 243.323397 
L 122.298767 242.652379 
L 122.480659 242.652379 
L 122.480659 242.428706 
L 122.660646 242.428706 
L 122.660646 241.422178 
L 122.838768 241.422178 
L 122.838768 241.310341 
L 123.015063 241.310341 
L 123.015063 240.862996 
L 123.189569 240.862996 
L 123.189569 240.08014 
L 123.533353 240.08014 
L 123.533353 239.856467 
L 123.7027 239.856467 
L 123.7027 239.073612 
L 123.870396 239.073612 
L 123.870396 238.626267 
L 124.036471 238.626267 
L 124.036471 237.955248 
L 124.363883 237.955248 
L 124.363883 237.507902 
L 124.685175 237.507902 
L 124.685175 236.389538 
L 124.843597 236.389538 
L 124.843597 236.165865 
L 125.000572 236.165865 
L 125.000572 235.38301 
L 125.156126 235.38301 
L 125.156126 235.271173 
L 125.310285 235.271173 
L 125.310285 235.159337 
L 125.463074 235.159337 
L 125.463074 235.0475 
L 125.614517 235.0475 
L 125.614517 234.152809 
L 125.764637 234.152809 
L 125.764637 233.705463 
L 126.061 233.705463 
L 126.061 233.48179 
L 126.207287 233.48179 
L 126.207287 233.034444 
L 126.496178 233.034444 
L 126.496178 231.91608 
L 126.638823 231.91608 
L 126.638823 231.468734 
L 126.780294 231.468734 
L 126.780294 231.133225 
L 126.92061 231.133225 
L 126.92061 230.909552 
L 127.334814 230.909552 
L 127.334814 229.903024 
L 127.739271 229.903024 
L 127.739271 229.791187 
L 127.872003 229.791187 
L 127.872003 229.567514 
L 128.39291 229.567514 
L 128.39291 229.008332 
L 128.647561 229.008332 
L 128.647561 228.896496 
L 128.773486 228.896496 
L 128.773486 228.784659 
L 129.389632 228.784659 
L 129.389632 228.560986 
L 130.895323 228.560986 
L 131.005861 228.337313 
L 132.279675 228.337313 
L 132.279675 228.225477 
L 132.882847 228.225477 
L 132.98135 227.889968 
L 133.176677 227.889968 
L 133.176677 227.778131 
L 133.560797 227.778131 
L 133.560797 227.666295 
L 133.749684 227.666295 
L 133.749684 227.554458 
L 133.936519 227.554458 
L 133.936519 227.218949 
L 134.121345 227.218949 
L 134.121345 226.88344 
L 134.39491 226.88344 
L 134.39491 226.436094 
L 134.574897 226.436094 
L 134.664189 225.765075 
L 134.753019 225.765075 
L 134.753019 225.205893 
L 135.016789 225.205893 
L 135.016789 224.98222 
L 135.190413 224.98222 
L 135.190413 224.646711 
L 135.3623 224.646711 
L 135.447604 224.311201 
L 135.532486 224.311201 
L 135.616951 223.975692 
L 135.701004 223.975692 
L 135.784647 223.192837 
L 135.867885 223.192837 
L 135.867885 222.969164 
L 136.033161 222.969164 
L 136.115208 222.074472 
L 136.196864 222.074472 
L 136.278134 221.738963 
L 136.359022 221.738963 
L 136.439531 221.403454 
L 136.519665 221.403454 
L 136.599426 220.732435 
L 136.757848 220.732435 
L 136.757848 220.285089 
L 137.070377 220.285089 
L 137.14763 219.837743 
L 137.224536 219.837743 
L 137.301101 219.166725 
L 137.377325 219.166725 
L 137.377325 219.054888 
L 137.528768 219.054888 
L 137.603992 218.04836 
L 137.753459 218.04836 
L 137.827708 217.265505 
L 137.901638 217.265505 
L 137.975251 216.706323 
L 138.04855 216.706323 
L 138.121538 216.14714 
L 138.33866 216.14714 
L 138.410429 215.811631 
L 138.553074 215.811631 
L 138.553074 215.587958 
L 138.694545 215.587958 
L 138.764847 215.364285 
L 138.834862 215.364285 
L 138.904592 215.028776 
L 138.974042 215.028776 
L 139.043211 214.58143 
L 139.112104 214.58143 
L 139.180721 214.357757 
L 139.249066 214.357757 
L 139.317139 214.022248 
L 139.452484 214.022248 
L 139.519758 213.798575 
L 139.586771 213.798575 
L 139.653523 213.127556 
L 139.720016 213.127556 
L 139.786254 212.903883 
L 139.917968 212.903883 
L 139.983449 212.456538 
L 140.048681 212.456538 
L 140.048681 212.344701 
L 140.178407 212.344701 
L 140.178407 212.009192 
L 140.371179 212.009192 
L 140.434959 211.785519 
L 140.561812 211.785519 
L 140.62489 211.226337 
L 140.687737 211.226337 
L 140.687737 211.002664 
L 140.812746 211.002664 
L 140.874911 210.778991 
L 140.998571 210.778991 
L 141.060069 210.443482 
L 141.121347 210.443482 
L 141.182408 210.219809 
L 141.3643 210.219809 
L 141.3643 210.107972 
L 141.84014 210.107972 
L 141.84014 209.996136 
L 142.015238 209.996136 
L 142.07321 209.772463 
L 142.18857 209.772463 
L 142.245962 209.325117 
L 142.303162 209.325117 
L 142.303162 209.213281 
L 142.416994 209.213281 
L 142.473629 208.765935 
L 142.530078 208.765935 
L 142.586342 208.318589 
L 142.642422 208.318589 
L 142.69832 208.094916 
L 142.754037 208.094916 
L 142.754037 207.98308 
L 142.920112 207.98308 
L 143.029944 207.423898 
L 143.139078 207.423898 
L 143.247524 207.088388 
L 143.35529 207.088388 
L 143.462385 206.417369 
L 143.515683 206.417369 
L 143.621786 205.634514 
L 143.674593 205.634514 
L 143.727238 205.187169 
L 143.832047 205.187169 
L 143.936221 204.292477 
L 143.988072 204.292477 
L 144.091308 204.068804 
L 144.142694 204.068804 
L 144.142694 203.733295 
L 144.295937 203.733295 
L 144.397345 203.397785 
L 144.447825 203.397785 
L 144.548344 202.726767 
L 144.598384 202.726767 
L 144.648278 202.279421 
L 144.747635 202.279421 
L 144.84642 201.943912 
L 144.895601 201.943912 
L 144.944641 201.608402 
L 145.042304 201.608402 
L 145.042304 201.384729 
L 145.187766 201.384729 
L 145.284061 200.937384 
L 145.332007 200.937384 
L 145.4275 200.266365 
L 145.475048 200.266365 
L 145.569751 199.930855 
L 145.663936 199.930855 
L 145.663936 199.595346 
L 145.804252 199.595346 
L 145.85077 199.259837 
L 145.943432 199.259837 
L 146.035596 199.036164 
L 146.081494 199.036164 
L 146.172923 198.700655 
L 146.263868 198.700655 
L 146.309161 198.476982 
L 146.444328 198.476982 
L 146.444328 198.253309 
L 146.711514 198.253309 
L 146.755644 198.029636 
L 146.843566 198.029636 
L 146.93104 197.694127 
L 147.061422 197.694127 
L 147.147797 197.470454 
L 147.190823 197.470454 
L 147.276552 197.134944 
L 147.319256 197.134944 
L 147.404349 196.799435 
L 147.446737 196.799435 
L 147.489022 196.575762 
L 147.698898 196.575762 
L 147.782136 195.792907 
L 147.823604 195.792907 
L 147.823604 195.68107 
L 147.988485 195.68107 
L 148.029459 195.233725 
L 148.111115 195.233725 
L 148.192385 194.786379 
L 148.232877 194.786379 
L 148.313575 194.339033 
L 148.393896 194.339033 
L 148.473843 194.003524 
L 148.593071 194.003524 
L 148.672099 193.444342 
L 148.711478 193.444342 
L 148.750766 193.220669 
L 148.868095 193.220669 
L 148.945872 192.773323 
L 149.023298 192.773323 
L 149.023298 192.661486 
L 149.138788 192.661486 
L 149.215352 192.102304 
L 149.253506 192.102304 
L 149.329562 191.878631 
L 149.367465 191.878631 
L 149.443019 191.654958 
L 149.480672 191.654958 
L 149.480672 191.543122 
L 149.66771 191.543122 
L 149.66771 191.207613 
L 149.889502 191.207613 
L 149.926191 190.872103 
L 150.072167 190.872103 
L 150.108469 190.64843 
L 150.252912 190.64843 
L 150.360453 190.201085 
L 150.467326 190.201085 
L 150.573538 189.977412 
L 150.643983 189.977412 
L 150.749113 189.641902 
L 150.784014 189.641902 
L 150.888293 189.194556 
L 150.922912 189.194556 
L 151.026355 188.859047 
L 151.094972 188.859047 
L 151.129178 188.523538 
L 151.265327 188.523538 
L 151.366735 188.188028 
L 151.400405 188.188028 
L 151.467548 187.628846 
L 151.53443 187.628846 
L 151.634268 187.1815 
L 151.733528 187.1815 
L 151.766488 186.845991 
L 151.8977 186.845991 
L 151.962932 186.622318 
L 152.027918 186.622318 
L 152.060318 186.398645 
L 152.221413 186.398645 
L 152.28543 186.063136 
L 152.34921 186.063136 
L 152.412754 185.392117 
L 152.570594 185.392117 
L 152.570594 185.280281 
L 152.758108 185.280281 
L 152.851103 184.497426 
L 152.97432 184.497426 
L 152.97432 184.385589 
L 153.127109 184.385589 
L 153.218134 183.714571 
L 153.278551 183.714571 
L 153.36878 183.267225 
L 153.458539 183.267225 
L 153.518118 182.708042 
L 153.754391 182.708042 
L 153.783699 182.14886 
L 153.929489 182.14886 
L 154.016374 181.589678 
L 154.074054 181.589678 
L 154.074054 181.254169 
L 154.245942 181.254169 
L 154.331245 180.918659 
L 154.359586 180.918659 
L 154.444329 180.359477 
L 154.472484 180.359477 
L 154.472484 180.247641 
L 154.640452 180.247641 
L 154.723825 179.912131 
L 154.889367 179.912131 
L 154.916803 179.688458 
L 155.05333 179.688458 
L 155.05333 179.576622 
L 155.18878 179.576622 
L 155.269542 179.352949 
L 155.323172 179.352949 
L 155.429934 178.793767 
L 155.536037 178.793767 
L 155.615187 178.346421 
L 155.667752 178.346421 
L 155.746298 177.899075 
L 155.798464 177.899075 
L 155.824488 177.675402 
L 155.92819 177.675402 
L 155.92819 177.563566 
L 156.08258 177.563566 
L 156.184742 177.11622 
L 156.2863 177.11622 
L 156.336855 176.892547 
L 156.412409 176.892547 
L 156.462595 176.557038 
L 156.5376 176.557038 
L 156.6371 176.221528 
L 156.686635 176.221528 
L 156.785279 175.886019 
L 156.809852 175.886019 
L 156.907793 175.662346 
L 156.932191 175.662346 
L 157.005179 175.326837 
L 157.126141 175.326837 
L 157.222302 174.655818 
L 157.246258 174.655818 
L 157.294071 174.432145 
L 157.949847 174.432145 
L 158.018648 173.9848 
L 158.178119 173.9848 
L 158.178119 173.872963 
L 158.291129 173.872963 
L 158.381004 173.425617 
L 158.425766 173.425617 
L 158.448103 173.201944 
L 158.537164 173.201944 
L 158.537164 173.090108 
L 158.713912 173.090108 
L 158.757817 172.866435 
L 158.845291 172.866435 
L 158.932322 172.195416 
L 159.018915 172.195416 
L 159.083575 171.859907 
L 159.169411 171.859907 
L 159.276106 171.524398 
L 159.445454 171.524398 
L 159.445454 171.412561 
L 159.613149 171.412561 
L 159.696387 171.188888 
L 159.779224 171.188888 
L 159.861664 170.741543 
L 159.984587 170.741543 
L 160.004989 170.51787 
L 160.126894 170.51787 
L 160.126894 170.406033 
L 160.368142 170.406033 
L 160.447811 169.958687 
L 160.625729 169.958687 
L 160.704216 169.399505 
L 160.995391 169.399505 
L 161.033844 169.175832 
L 161.262775 169.175832 
L 161.262775 169.063996 
L 161.394923 169.063996 
L 161.469983 168.728486 
L 161.600554 168.728486 
L 161.65621 168.392977 
L 161.748573 168.392977 
L 161.803753 167.945631 
L 161.895329 167.945631 
L 161.986418 167.610122 
L 162.058944 167.610122 
L 162.149174 167.386449 
L 162.274704 167.386449 
L 162.274704 167.274613 
L 162.715689 167.274613 
L 162.785208 166.939103 
L 162.871714 166.939103 
L 162.940606 166.491757 
L 163.128649 166.491757 
L 163.213447 166.044412 
L 163.314656 166.044412 
L 163.381799 165.820739 
L 163.431985 165.820739 
L 163.515304 165.597066 
L 163.614756 165.597066 
L 163.68074 165.373393 
L 163.730061 165.373393 
L 163.730061 165.261557 
L 163.97457 165.261557 
L 163.97457 165.037884 
L 164.151691 165.037884 
L 164.151691 164.926047 
L 164.374509 164.926047 
L 164.484845 164.478701 
L 164.516239 164.478701 
L 164.563224 164.255029 
L 164.734412 164.255029 
L 164.734412 164.143192 
L 165.102097 164.143192 
L 165.102097 164.031356 
L 165.253008 164.031356 
L 165.253008 163.919519 
L 165.37279 163.919519 
L 165.37279 163.807683 
L 165.65397 163.807683 
L 165.727207 163.472173 
L 165.800133 163.472173 
L 165.800133 163.360337 
L 165.916175 163.360337 
L 165.916175 163.2485 
L 166.045792 163.2485 
L 166.131664 162.801155 
L 166.231309 162.801155 
L 166.28799 162.465645 
L 166.470924 162.465645 
L 166.470924 162.353809 
L 167.855361 162.353809 
L 167.86827 162.130136 
L 168.022429 162.130136 
L 168.111721 161.906463 
L 168.376846 161.906463 
L 168.376846 161.794627 
L 168.662605 161.794627 
L 168.662605 161.68279 
L 169.279792 161.68279 
L 169.279792 161.570954 
L 169.410055 161.570954 
L 169.410055 161.459117 
L 169.760379 161.459117 
L 169.829595 161.235444 
L 170.035586 161.235444 
L 170.126351 160.899935 
L 170.148968 160.899935 
L 170.148968 160.788099 
L 170.35119 160.788099 
L 170.35119 160.676262 
L 170.879097 160.676262 
L 170.965526 160.340753 
L 171.158418 160.340753 
L 171.158418 160.228916 
L 171.370234 160.228916 
L 171.422783 160.005243 
L 171.558662 160.005243 
L 171.558662 159.893407 
L 171.745046 159.893407 
L 171.745046 159.781571 
L 171.878412 159.781571 
L 171.949797 159.557898 
L 172.202353 159.557898 
L 172.202353 159.446061 
L 172.451251 159.446061 
L 172.500602 159.222388 
L 172.618467 159.222388 
L 172.618467 159.110552 
L 172.73553 159.110552 
L 172.73553 158.998715 
L 172.871103 158.998715 
L 172.871103 158.886879 
L 173.356125 158.886879 
L 173.393594 158.55137 
L 173.570462 158.55137 
L 173.570462 158.439533 
L 173.973196 158.439533 
L 173.973196 158.327697 
L 174.099384 158.327697 
L 174.099384 158.21586 
L 174.595074 158.21586 
L 174.595074 158.104024 
L 175.000343 158.104024 
L 175.085351 157.880351 
L 175.945376 157.880351 
L 175.945376 157.768515 
L 176.787468 157.768515 
L 176.787468 157.656678 
L 177.076872 157.656678 
L 177.076872 157.544842 
L 177.309407 157.544842 
L 177.309407 157.433005 
L 177.750732 157.433005 
L 177.750732 157.321169 
L 179.091328 157.321169 
L 179.091328 157.209332 
L 180.076788 157.209332 
L 180.076788 157.097496 
L 182.315627 157.097496 
L 182.315627 156.985659 
L 182.684696 156.985659 
L 182.684696 156.873823 
L 182.928204 156.873823 
L 182.928204 156.761987 
L 184.683774 156.761987 
L 184.683774 156.65015 
L 184.862347 156.65015 
L 184.862347 156.538314 
L 186.303051 156.538314 
L 186.303051 156.426477 
L 187.782829 156.426477 
L 187.782829 156.314641 
L 195.902516 156.314641 
L 195.902516 156.202804 
L 333.168 156.202804 
L 333.168 156.202804 
" style="fill:none;stroke:#ff00ff;stroke-linecap:square;stroke-width:1.5;"/>
   </g>
   <g id="line2d_49">
    <defs>
     <path d="M -0 8.485281 
L 5.091169 0 
L 0 -8.485281 
L -5.091169 -0 
z
" id="m749df1403f" style="stroke:#ff00ff;stroke-linejoin:miter;stroke-width:1.5;"/>
    </defs>
    <g>
     <use style="fill:none;stroke:#ff00ff;stroke-linejoin:miter;stroke-width:1.5;" x="131.005861" xlink:href="#m749df1403f" y="228.44915"/>
     <use style="fill:none;stroke:#ff00ff;stroke-linejoin:miter;stroke-width:1.5;" x="161.913585" xlink:href="#m749df1403f" y="167.721958"/>
     <use style="fill:none;stroke:#ff00ff;stroke-linejoin:miter;stroke-width:1.5;" x="195.902516" xlink:href="#m749df1403f" y="156.314641"/>
     <use style="fill:none;stroke:#ff00ff;stroke-linejoin:miter;stroke-width:1.5;" x="195.902516" xlink:href="#m749df1403f" y="156.202804"/>
     <use style="fill:none;stroke:#ff00ff;stroke-linejoin:miter;stroke-width:1.5;" x="195.902516" xlink:href="#m749df1403f" y="156.202804"/>
     <use style="fill:none;stroke:#ff00ff;stroke-linejoin:miter;stroke-width:1.5;" x="333.168" xlink:href="#m749df1403f" y="156.202804"/>
    </g>
   </g>
   <g id="line2d_50">
    <path style="fill:none;stroke:#ff00ff;stroke-linecap:square;stroke-width:1.5;"/>
    <g/>
   </g>
   <g id="line2d_51">
    <path clip-path="url(#pcd3bad17b1)" d="M 125.614517 234.152809 
" style="fill:none;stroke:#ff00ff;stroke-linecap:square;stroke-width:1.5;"/>
    <defs>
     <path d="M -12 12 
L 12 -12 
M -12 -12 
L 12 12 
" id="m28b691b78b" style="stroke:#ff00ff;"/>
    </defs>
    <g clip-path="url(#pcd3bad17b1)">
     <use style="fill:#ff00ff;stroke:#ff00ff;" x="125.614517" xlink:href="#m28b691b78b" y="234.152809"/>
    </g>
   </g>
   <g id="line2d_52">
    <path d="M 333.168 156.202804 
L 363.64328 289.176341 
" style="fill:none;stroke:#ff00ff;stroke-linecap:square;stroke-width:1.5;"/>
    <g>
     <use style="fill:none;stroke:#ff00ff;stroke-linejoin:miter;stroke-width:1.5;" x="333.168" xlink:href="#m749df1403f" y="156.202804"/>
     <use style="fill:none;stroke:#ff00ff;stroke-linejoin:miter;stroke-width:1.5;" x="363.64328" xlink:href="#m749df1403f" y="289.176341"/>
    </g>
   </g>
   <g id="line2d_53">
    <path d="M 333.168 156.202804 
L 363.64328 152.288529 
" style="fill:none;stroke:#000080;stroke-linecap:square;stroke-width:1.5;"/>
    <g>
     <use style="fill:none;stroke:#000080;stroke-width:1.5;" x="333.168" xlink:href="#mf91e275d8d" y="156.202804"/>
     <use style="fill:none;stroke:#000080;stroke-width:1.5;" x="363.64328" xlink:href="#mf91e275d8d" y="152.288529"/>
    </g>
   </g>
   <g id="line2d_54">
    <path d="M 333.168 294.88 
L 333.168 9.697057 
" style="fill:none;stroke:#000000;stroke-linecap:square;stroke-width:1.5;"/>
   </g>
   <g id="patch_3">
    <path d="M 56.12 294.88 
L 56.12 6.845228 
" style="fill:none;stroke:#000000;stroke-linecap:square;stroke-linejoin:miter;stroke-width:0.8;"/>
   </g>
   <g id="patch_4">
    <path d="M 333.168 294.88 
L 333.168 6.845228 
" style="fill:none;stroke:#000000;stroke-linecap:square;stroke-linejoin:miter;stroke-width:0.8;"/>
   </g>
   <g id="patch_5">
    <path d="M 56.12 294.88 
L 333.168 294.88 
" style="fill:none;stroke:#000000;stroke-linecap:square;stroke-linejoin:miter;stroke-width:0.8;"/>
   </g>
   <g id="patch_6">
    <path d="M 56.12 6.845228 
L 333.168 6.845228 
" style="fill:none;stroke:#000000;stroke-linecap:square;stroke-linejoin:miter;stroke-width:0.8;"/>
   </g>
   <g id="text_13">
    <!-- scipy-opt -->
    <defs>
     <path d="M 32.171875 -5.078125 
Q 28.375 -14.84375 24.75 -17.8125 
Q 21.140625 -20.796875 15.09375 -20.796875 
L 7.90625 -20.796875 
L 7.90625 -13.28125 
L 13.1875 -13.28125 
Q 16.890625 -13.28125 18.9375 -11.515625 
Q 21 -9.765625 23.484375 -3.21875 
L 25.09375 0.875 
L 2.984375 54.6875 
L 12.5 54.6875 
L 29.59375 11.921875 
L 46.6875 54.6875 
L 56.203125 54.6875 
z
" id="DejaVuSans-79"/>
    </defs>
    <g transform="translate(369.18424 293.867279)scale(0.17 -0.17)">
     <use xlink:href="#DejaVuSans-73"/>
     <use x="52.099609" xlink:href="#DejaVuSans-63"/>
     <use x="107.080078" xlink:href="#DejaVuSans-69"/>
     <use x="134.863281" xlink:href="#DejaVuSans-70"/>
     <use x="198.339844" xlink:href="#DejaVuSans-79"/>
     <use x="257.503906" xlink:href="#DejaVuSans-2d"/>
     <use x="293.603516" xlink:href="#DejaVuSans-6f"/>
     <use x="354.785156" xlink:href="#DejaVuSans-70"/>
     <use x="418.261719" xlink:href="#DejaVuSans-74"/>
    </g>
   </g>
   <g id="text_14">
    <!-- scipyAlg -->
    <defs>
     <path d="M 34.1875 63.1875 
L 20.796875 26.90625 
L 47.609375 26.90625 
z
M 28.609375 72.90625 
L 39.796875 72.90625 
L 67.578125 0 
L 57.328125 0 
L 50.6875 18.703125 
L 17.828125 18.703125 
L 11.1875 0 
L 0.78125 0 
z
" id="DejaVuSans-41"/>
    </defs>
    <g transform="translate(369.18424 156.979466)scale(0.17 -0.17)">
     <use xlink:href="#DejaVuSans-73"/>
     <use x="52.099609" xlink:href="#DejaVuSans-63"/>
     <use x="107.080078" xlink:href="#DejaVuSans-69"/>
     <use x="134.863281" xlink:href="#DejaVuSans-70"/>
     <use x="198.339844" xlink:href="#DejaVuSans-79"/>
     <use x="257.519531" xlink:href="#DejaVuSans-41"/>
     <use x="325.927734" xlink:href="#DejaVuSans-6c"/>
     <use x="353.710938" xlink:href="#DejaVuSans-67"/>
    </g>
   </g>
   <g id="text_15">
    <!-- best 2009 -->
    <defs>
     <path d="M 48.6875 27.296875 
Q 48.6875 37.203125 44.609375 42.84375 
Q 40.53125 48.484375 33.40625 48.484375 
Q 26.265625 48.484375 22.1875 42.84375 
Q 18.109375 37.203125 18.109375 27.296875 
Q 18.109375 17.390625 22.1875 11.75 
Q 26.265625 6.109375 33.40625 6.109375 
Q 40.53125 6.109375 44.609375 11.75 
Q 48.6875 17.390625 48.6875 27.296875 
z
M 18.109375 46.390625 
Q 20.953125 51.265625 25.265625 53.625 
Q 29.59375 56 35.59375 56 
Q 45.5625 56 51.78125 48.09375 
Q 58.015625 40.1875 58.015625 27.296875 
Q 58.015625 14.40625 51.78125 6.484375 
Q 45.5625 -1.421875 35.59375 -1.421875 
Q 29.59375 -1.421875 25.265625 0.953125 
Q 20.953125 3.328125 18.109375 8.203125 
L 18.109375 0 
L 9.078125 0 
L 9.078125 75.984375 
L 18.109375 75.984375 
z
" id="DejaVuSans-62"/>
     <path d="M 10.984375 1.515625 
L 10.984375 10.5 
Q 14.703125 8.734375 18.5 7.8125 
Q 22.3125 6.890625 25.984375 6.890625 
Q 35.75 6.890625 40.890625 13.453125 
Q 46.046875 20.015625 46.78125 33.40625 
Q 43.953125 29.203125 39.59375 26.953125 
Q 35.25 24.703125 29.984375 24.703125 
Q 19.046875 24.703125 12.671875 31.3125 
Q 6.296875 37.9375 6.296875 49.421875 
Q 6.296875 60.640625 12.9375 67.421875 
Q 19.578125 74.21875 30.609375 74.21875 
Q 43.265625 74.21875 49.921875 64.515625 
Q 56.59375 54.828125 56.59375 36.375 
Q 56.59375 19.140625 48.40625 8.859375 
Q 40.234375 -1.421875 26.421875 -1.421875 
Q 22.703125 -1.421875 18.890625 -0.6875 
Q 15.09375 0.046875 10.984375 1.515625 
z
M 30.609375 32.421875 
Q 37.25 32.421875 41.125 36.953125 
Q 45.015625 41.5 45.015625 49.421875 
Q 45.015625 57.28125 41.125 61.84375 
Q 37.25 66.40625 30.609375 66.40625 
Q 23.96875 66.40625 20.09375 61.84375 
Q 16.21875 57.28125 16.21875 49.421875 
Q 16.21875 41.5 20.09375 36.953125 
Q 23.96875 32.421875 30.609375 32.421875 
z
" id="DejaVuSans-39"/>
    </defs>
    <g transform="translate(369.18424 20.091654)scale(0.17 -0.17)">
     <use xlink:href="#DejaVuSans-62"/>
     <use x="63.476562" xlink:href="#DejaVuSans-65"/>
     <use x="125" xlink:href="#DejaVuSans-73"/>
     <use x="177.099609" xlink:href="#DejaVuSans-74"/>
     <use x="216.308594" xlink:href="#DejaVuSans-20"/>
     <use x="248.095703" xlink:href="#DejaVuSans-32"/>
     <use x="311.71875" xlink:href="#DejaVuSans-30"/>
     <use x="375.341797" xlink:href="#DejaVuSans-30"/>
     <use x="438.964844" xlink:href="#DejaVuSans-39"/>
    </g>
   </g>
   <g id="text_16">
    <!-- bbob f20-f24, 2-D -->
    <defs>
     <path d="M 19.671875 64.796875 
L 19.671875 8.109375 
L 31.59375 8.109375 
Q 46.6875 8.109375 53.6875 14.9375 
Q 60.6875 21.78125 60.6875 36.53125 
Q 60.6875 51.171875 53.6875 57.984375 
Q 46.6875 64.796875 31.59375 64.796875 
z
M 9.8125 72.90625 
L 30.078125 72.90625 
Q 51.265625 72.90625 61.171875 64.09375 
Q 71.09375 55.28125 71.09375 36.53125 
Q 71.09375 17.671875 61.125 8.828125 
Q 51.171875 0 30.078125 0 
L 9.8125 0 
z
" id="DejaVuSans-44"/>
    </defs>
    <g transform="translate(58.89048 17.475982)scale(0.102 -0.102)">
     <use xlink:href="#DejaVuSans-62"/>
     <use x="63.476562" xlink:href="#DejaVuSans-62"/>
     <use x="126.953125" xlink:href="#DejaVuSans-6f"/>
     <use x="188.134766" xlink:href="#DejaVuSans-62"/>
     <use x="251.611328" xlink:href="#DejaVuSans-20"/>
     <use x="283.398438" xlink:href="#DejaVuSans-66"/>
     <use x="318.603516" xlink:href="#DejaVuSans-32"/>
     <use x="382.226562" xlink:href="#DejaVuSans-30"/>
     <use x="445.849609" xlink:href="#DejaVuSans-2d"/>
     <use x="481.933594" xlink:href="#DejaVuSans-66"/>
     <use x="517.138672" xlink:href="#DejaVuSans-32"/>
     <use x="580.761719" xlink:href="#DejaVuSans-34"/>
     <use x="644.384766" xlink:href="#DejaVuSans-2c"/>
     <use x="676.171875" xlink:href="#DejaVuSans-20"/>
     <use x="707.958984" xlink:href="#DejaVuSans-32"/>
     <use x="771.582031" xlink:href="#DejaVuSans-2d"/>
     <use x="807.666016" xlink:href="#DejaVuSans-44"/>
    </g>
    <!-- 51 targets: 100..1e-08 -->
    <defs>
     <path d="M 10.796875 72.90625 
L 49.515625 72.90625 
L 49.515625 64.59375 
L 19.828125 64.59375 
L 19.828125 46.734375 
Q 21.96875 47.46875 24.109375 47.828125 
Q 26.265625 48.1875 28.421875 48.1875 
Q 40.625 48.1875 47.75 41.5 
Q 54.890625 34.8125 54.890625 23.390625 
Q 54.890625 11.625 47.5625 5.09375 
Q 40.234375 -1.421875 26.90625 -1.421875 
Q 22.3125 -1.421875 17.546875 -0.640625 
Q 12.796875 0.140625 7.71875 1.703125 
L 7.71875 11.625 
Q 12.109375 9.234375 16.796875 8.0625 
Q 21.484375 6.890625 26.703125 6.890625 
Q 35.15625 6.890625 40.078125 11.328125 
Q 45.015625 15.765625 45.015625 23.390625 
Q 45.015625 31 40.078125 35.4375 
Q 35.15625 39.890625 26.703125 39.890625 
Q 22.75 39.890625 18.8125 39.015625 
Q 14.890625 38.140625 10.796875 36.28125 
z
" id="DejaVuSans-35"/>
     <path d="M 11.71875 12.40625 
L 22.015625 12.40625 
L 22.015625 0 
L 11.71875 0 
z
M 11.71875 51.703125 
L 22.015625 51.703125 
L 22.015625 39.3125 
L 11.71875 39.3125 
z
" id="DejaVuSans-3a"/>
    </defs>
    <g transform="translate(58.89048 28.89775)scale(0.102 -0.102)">
     <use xlink:href="#DejaVuSans-35"/>
     <use x="63.623047" xlink:href="#DejaVuSans-31"/>
     <use x="127.246094" xlink:href="#DejaVuSans-20"/>
     <use x="159.033203" xlink:href="#DejaVuSans-74"/>
     <use x="198.242188" xlink:href="#DejaVuSans-61"/>
     <use x="259.521484" xlink:href="#DejaVuSans-72"/>
     <use x="300.619141" xlink:href="#DejaVuSans-67"/>
     <use x="364.095703" xlink:href="#DejaVuSans-65"/>
     <use x="425.619141" xlink:href="#DejaVuSans-74"/>
     <use x="464.828125" xlink:href="#DejaVuSans-73"/>
     <use x="516.927734" xlink:href="#DejaVuSans-3a"/>
     <use x="550.619141" xlink:href="#DejaVuSans-20"/>
     <use x="582.40625" xlink:href="#DejaVuSans-31"/>
     <use x="646.029297" xlink:href="#DejaVuSans-30"/>
     <use x="709.652344" xlink:href="#DejaVuSans-30"/>
     <use x="773.275391" xlink:href="#DejaVuSans-2e"/>
     <use x="805.0625" xlink:href="#DejaVuSans-2e"/>
     <use x="836.849609" xlink:href="#DejaVuSans-31"/>
     <use x="900.472656" xlink:href="#DejaVuSans-65"/>
     <use x="961.996094" xlink:href="#DejaVuSans-2d"/>
     <use x="998.080078" xlink:href="#DejaVuSans-30"/>
     <use x="1061.703125" xlink:href="#DejaVuSans-38"/>
    </g>
    <!-- 15 instances -->
    <g transform="translate(58.89048 40.319519)scale(0.102 -0.102)">
     <use xlink:href="#DejaVuSans-31"/>
     <use x="63.623047" xlink:href="#DejaVuSans-35"/>
     <use x="127.246094" xlink:href="#DejaVuSans-20"/>
     <use x="159.033203" xlink:href="#DejaVuSans-69"/>
     <use x="186.816406" xlink:href="#DejaVuSans-6e"/>
     <use x="250.195312" xlink:href="#DejaVuSans-73"/>
     <use x="302.294922" xlink:href="#DejaVuSans-74"/>
     <use x="341.503906" xlink:href="#DejaVuSans-61"/>
     <use x="402.783203" xlink:href="#DejaVuSans-6e"/>
     <use x="466.162109" xlink:href="#DejaVuSans-63"/>
     <use x="521.142578" xlink:href="#DejaVuSans-65"/>
     <use x="582.666016" xlink:href="#DejaVuSans-73"/>
    </g>
   </g>
   <g id="text_17">
    <!-- v0.0.0 -->
    <g style="fill:#808080;" transform="translate(178.96275 289.919965)scale(0.1 -0.1)">
     <use xlink:href="#DejaVuSans-76"/>
     <use x="59.179688" xlink:href="#DejaVuSans-30"/>
     <use x="122.802734" xlink:href="#DejaVuSans-2e"/>
     <use x="154.589844" xlink:href="#DejaVuSans-30"/>
     <use x="218.212891" xlink:href="#DejaVuSans-2e"/>
     <use x="250" xlink:href="#DejaVuSans-30"/>
    </g>
   </g>
  </g>
 </g>
 <defs>
  <clipPath id="pcd3bad17b1">
   <rect height="288.034772" width="277.048" x="56.12" y="6.845228"/>
  </clipPath>
 </defs>
</svg>
