<?xml version="1.0" encoding="utf-8" standalone="no"?>
<!DOCTYPE svg PUBLIC "-//W3C//DTD SVG 1.1//EN"
  "http://www.w3.org/Graphics/SVG/1.1/DTD/svg11.dtd">
<!-- Created with matplotlib (http://matplotlib.org/) -->
<svg height="345pt" version="1.1" viewBox="0 0 460 345" width="460pt" xmlns="http://www.w3.org/2000/svg" xmlns:xlink="http://www.w3.org/1999/xlink">
 <defs>
  <style type="text/css">
*{stroke-linecap:butt;stroke-linejoin:round;}
  </style>
 </defs>
 <g id="figure_1">
  <g id="patch_1">
   <path d="M 0 345.6 
L 460.8 345.6 
L 460.8 0 
L 0 0 
z
" style="fill:#ffffff;"/>
  </g>
  <g id="axes_1">
   <g id="patch_2">
    <path d="M 56.12 294.88 
L 333.168 294.88 
L 333.168 6.845228 
L 56.12 6.845228 
z
" style="fill:#ffffff;"/>
   </g>
   <g id="line2d_1">
    <path d="M 44.205749 294.88 
L 44.205749 288.169813 
L 56.12 288.169813 
L 56.12 285.933084 
L 68.034251 285.933084 
L 68.034251 283.696355 
L 71.869783 283.696355 
L 71.869783 282.577991 
L 77.653281 282.577991 
L 77.653281 281.459626 
L 81.973032 281.459626 
L 81.973032 280.341262 
L 85.422286 280.341262 
L 85.422286 276.986168 
L 86.917893 276.986168 
L 86.917893 275.867804 
L 89.567532 275.867804 
L 89.567532 272.51271 
L 90.753425 272.51271 
L 90.753425 268.039252 
L 91.862754 268.039252 
L 91.862754 266.920888 
L 93.887283 266.920888 
L 93.887283 263.565795 
L 94.816624 263.565795 
L 94.816624 261.329066 
L 95.698286 261.329066 
L 95.698286 259.092337 
L 96.536922 259.092337 
L 96.536922 256.855608 
L 97.336537 256.855608 
L 97.336537 255.737243 
L 98.100602 255.737243 
L 98.100602 253.500514 
L 98.832144 253.500514 
L 98.832144 250.145421 
L 100.207968 250.145421 
L 100.207968 249.027056 
L 100.856673 249.027056 
L 100.856673 247.908692 
L 101.481783 247.908692 
L 101.481783 246.790327 
L 102.667676 246.790327 
L 102.667676 245.671963 
L 103.231288 245.671963 
L 103.231288 242.316869 
L 103.777005 242.316869 
L 103.777005 241.198505 
L 104.305927 241.198505 
L 104.305927 238.961776 
L 105.317315 238.961776 
L 105.317315 234.488318 
L 106.272485 234.488318 
L 106.272485 233.369954 
L 106.730875 233.369954 
L 106.730875 228.896496 
L 107.177358 228.896496 
L 107.177358 227.778131 
L 107.612537 227.778131 
L 107.612537 223.304673 
L 108.451173 223.304673 
L 108.451173 217.712851 
L 108.85563 217.712851 
L 108.85563 216.594486 
L 109.250788 216.594486 
L 109.250788 215.476122 
L 109.637066 215.476122 
L 109.637066 213.239393 
L 110.014853 213.239393 
L 110.014853 206.529206 
L 110.746395 206.529206 
L 110.746395 204.292477 
L 111.100812 204.292477 
L 111.100812 202.055748 
L 111.448069 202.055748 
L 111.448069 198.700655 
L 111.788449 198.700655 
L 111.788449 194.227197 
L 112.449632 194.227197 
L 112.449632 191.990468 
L 112.770924 191.990468 
L 112.770924 189.753739 
L 113.086321 189.753739 
L 113.086321 187.51701 
L 113.396034 187.51701 
L 113.396034 183.043552 
L 113.700266 183.043552 
L 113.700266 181.925187 
L 113.999206 181.925187 
L 113.999206 179.688458 
L 114.293036 179.688458 
L 114.293036 177.451729 
L 114.581927 177.451729 
L 114.581927 175.215 
L 114.866043 175.215 
L 114.866043 174.096636 
L 115.145539 174.096636 
L 115.145539 168.504814 
L 115.420563 168.504814 
L 115.420563 167.386449 
L 115.691256 167.386449 
L 115.691256 164.031356 
L 115.957752 164.031356 
L 115.957752 160.676262 
L 116.220179 160.676262 
L 116.220179 159.557898 
L 116.478659 159.557898 
L 116.478659 153.966075 
L 116.73331 153.966075 
L 116.73331 150.610982 
L 116.984244 150.610982 
L 116.984244 149.492617 
L 117.231566 149.492617 
L 117.231566 146.137524 
L 117.475381 146.137524 
L 117.475381 145.019159 
L 117.715785 145.019159 
L 117.715785 143.900795 
L 117.952873 143.900795 
L 117.952873 141.664066 
L 118.186736 141.664066 
L 118.186736 138.308973 
L 118.417459 138.308973 
L 118.417459 134.953879 
L 118.645127 134.953879 
L 118.645127 131.598786 
L 118.869818 131.598786 
L 118.869818 130.480421 
L 119.09161 130.480421 
L 119.09161 128.243692 
L 119.310576 128.243692 
L 119.310576 124.888599 
L 119.526788 124.888599 
L 119.526788 122.65187 
L 119.740314 122.65187 
L 119.740314 115.941683 
L 119.95122 115.941683 
L 119.95122 114.823318 
L 120.15957 114.823318 
L 120.15957 112.586589 
L 120.365424 112.586589 
L 120.365424 109.231496 
L 120.568842 109.231496 
L 120.568842 108.113132 
L 120.769881 108.113132 
L 120.769881 105.876403 
L 120.968596 105.876403 
L 120.968596 102.521309 
L 121.16504 102.521309 
L 121.16504 99.166216 
L 121.359263 99.166216 
L 121.359263 96.929487 
L 121.551317 96.929487 
L 121.551317 93.574393 
L 121.741249 93.574393 
L 121.741249 89.100935 
L 121.929105 89.100935 
L 121.929105 87.982571 
L 122.114929 87.982571 
L 122.114929 84.627477 
L 122.298767 84.627477 
L 122.298767 82.390748 
L 122.480659 82.390748 
L 122.480659 80.15402 
L 122.660646 80.15402 
L 122.660646 75.680562 
L 122.838768 75.680562 
L 122.838768 73.443833 
L 123.015063 73.443833 
L 123.015063 70.088739 
L 123.189569 70.088739 
L 123.189569 65.615281 
L 123.36232 65.615281 
L 123.36232 62.260188 
L 123.533353 62.260188 
L 123.533353 57.78673 
L 123.7027 57.78673 
L 123.7027 54.431636 
L 124.036471 54.431636 
L 124.036471 52.194907 
L 124.200956 52.194907 
L 124.200956 49.958178 
L 124.685175 49.958178 
L 124.685175 47.72145 
L 125.310285 47.72145 
L 125.310285 45.484721 
L 125.614517 45.484721 
L 125.614517 44.366356 
L 125.913457 44.366356 
L 125.913457 42.129627 
L 126.207287 42.129627 
L 126.207287 41.011263 
L 126.496178 41.011263 
L 126.496178 39.892898 
L 126.780294 39.892898 
L 126.780294 38.774534 
L 127.05979 38.774534 
L 127.05979 37.656169 
L 127.197852 37.656169 
L 127.197852 36.537805 
L 127.470694 36.537805 
L 127.470694 35.41944 
L 127.605507 35.41944 
L 127.605507 34.301076 
L 127.872003 34.301076 
L 127.872003 33.182711 
L 128.13443 33.182711 
L 128.13443 32.064347 
L 128.264156 32.064347 
L 128.264156 30.945982 
L 128.520707 30.945982 
L 128.520707 29.827618 
L 129.389632 29.827618 
L 129.389632 28.709253 
L 130.100987 28.709253 
L 130.100987 27.590889 
L 130.67209 27.590889 
L 130.67209 26.472524 
L 131.005861 26.472524 
L 131.005861 25.35416 
L 131.441039 25.35416 
L 131.441039 24.235795 
L 131.969962 24.235795 
L 131.969962 23.117431 
L 132.483094 23.117431 
L 132.483094 21.999066 
L 132.98135 21.999066 
L 132.98135 20.880702 
L 133.465568 20.880702 
L 133.465568 19.762337 
L 133.843356 19.762337 
L 133.843356 18.643973 
L 134.121345 18.643973 
L 134.121345 17.525609 
L 134.485139 17.525609 
L 134.485139 16.407244 
L 134.841393 16.407244 
L 134.841393 15.28888 
L 135.276571 15.28888 
L 135.276571 14.170515 
L 135.447604 14.170515 
L 135.447604 13.052151 
L 135.616951 13.052151 
L 135.616951 11.933786 
L 135.950722 11.933786 
L 135.950722 10.815422 
L 136.196864 10.815422 
L 136.196864 9.697057 
L 333.168 9.697057 
L 333.168 9.697057 
" style="fill:none;stroke:#f5deb3;stroke-linecap:square;stroke-width:4;"/>
   </g>
   <g id="line2d_2">
    <defs>
     <path d="M -0 7.778175 
L 7.778175 0 
L 0 -7.778175 
L -7.778175 -0 
z
" id="m7bd741ca38" style="stroke:#f5deb3;stroke-linejoin:miter;stroke-width:1.5;"/>
    </defs>
    <g>
     <use style="fill:#f5deb3;stroke:#f5deb3;stroke-linejoin:miter;stroke-width:1.5;" x="111.100812" xlink:href="#m7bd741ca38" y="204.292477"/>
     <use style="fill:#f5deb3;stroke:#f5deb3;stroke-linejoin:miter;stroke-width:1.5;" x="121.741249" xlink:href="#m7bd741ca38" y="93.574393"/>
     <use style="fill:#f5deb3;stroke:#f5deb3;stroke-linejoin:miter;stroke-width:1.5;" x="136.196864" xlink:href="#m7bd741ca38" y="10.815422"/>
     <use style="fill:#f5deb3;stroke:#f5deb3;stroke-linejoin:miter;stroke-width:1.5;" x="136.196864" xlink:href="#m7bd741ca38" y="9.697057"/>
     <use style="fill:#f5deb3;stroke:#f5deb3;stroke-linejoin:miter;stroke-width:1.5;" x="136.196864" xlink:href="#m7bd741ca38" y="9.697057"/>
     <use style="fill:#f5deb3;stroke:#f5deb3;stroke-linejoin:miter;stroke-width:1.5;" x="333.168" xlink:href="#m7bd741ca38" y="9.697057"/>
    </g>
   </g>
   <g id="line2d_3">
    <path style="fill:none;stroke:#f5deb3;stroke-linecap:square;stroke-width:4;"/>
    <g/>
   </g>
   <g id="line2d_4">
    <path d="M 333.168 9.697057 
L 363.64328 15.400716 
" style="fill:none;stroke:#f5deb3;stroke-linecap:square;stroke-width:4;"/>
    <g>
     <use style="fill:#f5deb3;stroke:#f5deb3;stroke-linejoin:miter;stroke-width:1.5;" x="333.168" xlink:href="#m7bd741ca38" y="9.697057"/>
     <use style="fill:#f5deb3;stroke:#f5deb3;stroke-linejoin:miter;stroke-width:1.5;" x="363.64328" xlink:href="#m7bd741ca38" y="15.400716"/>
    </g>
   </g>
   <g id="matplotlib.axis_1">
    <g id="xtick_1">
     <g id="line2d_5">
      <path clip-path="url(#p0c89d25b52)" d="M 56.12 294.88 
L 56.12 6.845228 
" style="fill:none;stroke:#b0b0b0;stroke-linecap:square;stroke-width:0.8;"/>
     </g>
     <g id="line2d_6">
      <defs>
       <path d="M 0 0 
L 0 3.5 
" id="mfedf3c20c1" style="stroke:#000000;stroke-width:0.8;"/>
      </defs>
      <g>
       <use style="stroke:#000000;stroke-width:0.8;" x="56.12" xlink:href="#mfedf3c20c1" y="294.88"/>
      </g>
     </g>
     <g id="text_1">
      <!-- 0 -->
      <defs>
       <path d="M 31.78125 66.40625 
Q 24.171875 66.40625 20.328125 58.90625 
Q 16.5 51.421875 16.5 36.375 
Q 16.5 21.390625 20.328125 13.890625 
Q 24.171875 6.390625 31.78125 6.390625 
Q 39.453125 6.390625 43.28125 13.890625 
Q 47.125 21.390625 47.125 36.375 
Q 47.125 51.421875 43.28125 58.90625 
Q 39.453125 66.40625 31.78125 66.40625 
z
M 31.78125 74.21875 
Q 44.046875 74.21875 50.515625 64.515625 
Q 56.984375 54.828125 56.984375 36.375 
Q 56.984375 17.96875 50.515625 8.265625 
Q 44.046875 -1.421875 31.78125 -1.421875 
Q 19.53125 -1.421875 13.0625 8.265625 
Q 6.59375 17.96875 6.59375 36.375 
Q 6.59375 54.828125 13.0625 64.515625 
Q 19.53125 74.21875 31.78125 74.21875 
z
" id="DejaVuSans-30"/>
      </defs>
      <g transform="translate(49.7575 317.076875)scale(0.2 -0.2)">
       <use xlink:href="#DejaVuSans-30"/>
      </g>
     </g>
    </g>
    <g id="xtick_2">
     <g id="line2d_7">
      <path clip-path="url(#p0c89d25b52)" d="M 135.276571 294.88 
L 135.276571 6.845228 
" style="fill:none;stroke:#b0b0b0;stroke-linecap:square;stroke-width:0.8;"/>
     </g>
     <g id="line2d_8">
      <g>
       <use style="stroke:#000000;stroke-width:0.8;" x="135.276571" xlink:href="#mfedf3c20c1" y="294.88"/>
      </g>
     </g>
     <g id="text_2">
      <!-- 2 -->
      <defs>
       <path d="M 19.1875 8.296875 
L 53.609375 8.296875 
L 53.609375 0 
L 7.328125 0 
L 7.328125 8.296875 
Q 12.9375 14.109375 22.625 23.890625 
Q 32.328125 33.6875 34.8125 36.53125 
Q 39.546875 41.84375 41.421875 45.53125 
Q 43.3125 49.21875 43.3125 52.78125 
Q 43.3125 58.59375 39.234375 62.25 
Q 35.15625 65.921875 28.609375 65.921875 
Q 23.96875 65.921875 18.8125 64.3125 
Q 13.671875 62.703125 7.8125 59.421875 
L 7.8125 69.390625 
Q 13.765625 71.78125 18.9375 73 
Q 24.125 74.21875 28.421875 74.21875 
Q 39.75 74.21875 46.484375 68.546875 
Q 53.21875 62.890625 53.21875 53.421875 
Q 53.21875 48.921875 51.53125 44.890625 
Q 49.859375 40.875 45.40625 35.40625 
Q 44.1875 33.984375 37.640625 27.21875 
Q 31.109375 20.453125 19.1875 8.296875 
z
" id="DejaVuSans-32"/>
      </defs>
      <g transform="translate(128.914071 317.076875)scale(0.2 -0.2)">
       <use xlink:href="#DejaVuSans-32"/>
      </g>
     </g>
    </g>
    <g id="xtick_3">
     <g id="line2d_9">
      <path clip-path="url(#p0c89d25b52)" d="M 214.433143 294.88 
L 214.433143 6.845228 
" style="fill:none;stroke:#b0b0b0;stroke-linecap:square;stroke-width:0.8;"/>
     </g>
     <g id="line2d_10">
      <g>
       <use style="stroke:#000000;stroke-width:0.8;" x="214.433143" xlink:href="#mfedf3c20c1" y="294.88"/>
      </g>
     </g>
     <g id="text_3">
      <!-- 4 -->
      <defs>
       <path d="M 37.796875 64.3125 
L 12.890625 25.390625 
L 37.796875 25.390625 
z
M 35.203125 72.90625 
L 47.609375 72.90625 
L 47.609375 25.390625 
L 58.015625 25.390625 
L 58.015625 17.1875 
L 47.609375 17.1875 
L 47.609375 0 
L 37.796875 0 
L 37.796875 17.1875 
L 4.890625 17.1875 
L 4.890625 26.703125 
z
" id="DejaVuSans-34"/>
      </defs>
      <g transform="translate(208.070643 317.076875)scale(0.2 -0.2)">
       <use xlink:href="#DejaVuSans-34"/>
      </g>
     </g>
    </g>
    <g id="xtick_4">
     <g id="line2d_11">
      <path clip-path="url(#p0c89d25b52)" d="M 293.589714 294.88 
L 293.589714 6.845228 
" style="fill:none;stroke:#b0b0b0;stroke-linecap:square;stroke-width:0.8;"/>
     </g>
     <g id="line2d_12">
      <g>
       <use style="stroke:#000000;stroke-width:0.8;" x="293.589714" xlink:href="#mfedf3c20c1" y="294.88"/>
      </g>
     </g>
     <g id="text_4">
      <!-- 6 -->
      <defs>
       <path d="M 33.015625 40.375 
Q 26.375 40.375 22.484375 35.828125 
Q 18.609375 31.296875 18.609375 23.390625 
Q 18.609375 15.53125 22.484375 10.953125 
Q 26.375 6.390625 33.015625 6.390625 
Q 39.65625 6.390625 43.53125 10.953125 
Q 47.40625 15.53125 47.40625 23.390625 
Q 47.40625 31.296875 43.53125 35.828125 
Q 39.65625 40.375 33.015625 40.375 
z
M 52.59375 71.296875 
L 52.59375 62.3125 
Q 48.875 64.0625 45.09375 64.984375 
Q 41.3125 65.921875 37.59375 65.921875 
Q 27.828125 65.921875 22.671875 59.328125 
Q 17.53125 52.734375 16.796875 39.40625 
Q 19.671875 43.65625 24.015625 45.921875 
Q 28.375 48.1875 33.59375 48.1875 
Q 44.578125 48.1875 50.953125 41.515625 
Q 57.328125 34.859375 57.328125 23.390625 
Q 57.328125 12.15625 50.6875 5.359375 
Q 44.046875 -1.421875 33.015625 -1.421875 
Q 20.359375 -1.421875 13.671875 8.265625 
Q 6.984375 17.96875 6.984375 36.375 
Q 6.984375 53.65625 15.1875 63.9375 
Q 23.390625 74.21875 37.203125 74.21875 
Q 40.921875 74.21875 44.703125 73.484375 
Q 48.484375 72.75 52.59375 71.296875 
z
" id="DejaVuSans-36"/>
      </defs>
      <g transform="translate(287.227214 317.076875)scale(0.2 -0.2)">
       <use xlink:href="#DejaVuSans-36"/>
      </g>
     </g>
    </g>
    <g id="xtick_5">
     <g id="line2d_13">
      <path clip-path="url(#p0c89d25b52)" d="M 56.12 294.88 
L 56.12 6.845228 
" style="fill:none;stroke:#b0b0b0;stroke-linecap:square;stroke-width:0.8;"/>
     </g>
     <g id="line2d_14">
      <defs>
       <path d="M 0 0 
L 0 2 
" id="m5511b99fd0" style="stroke:#000000;stroke-width:0.6;"/>
      </defs>
      <g>
       <use style="stroke:#000000;stroke-width:0.6;" x="56.12" xlink:href="#m5511b99fd0" y="294.88"/>
      </g>
     </g>
    </g>
    <g id="xtick_6">
     <g id="line2d_15">
      <path clip-path="url(#p0c89d25b52)" d="M 95.698286 294.88 
L 95.698286 6.845228 
" style="fill:none;stroke:#b0b0b0;stroke-linecap:square;stroke-width:0.8;"/>
     </g>
     <g id="line2d_16">
      <g>
       <use style="stroke:#000000;stroke-width:0.6;" x="95.698286" xlink:href="#m5511b99fd0" y="294.88"/>
      </g>
     </g>
    </g>
    <g id="xtick_7">
     <g id="line2d_17">
      <path clip-path="url(#p0c89d25b52)" d="M 135.276571 294.88 
L 135.276571 6.845228 
" style="fill:none;stroke:#b0b0b0;stroke-linecap:square;stroke-width:0.8;"/>
     </g>
     <g id="line2d_18">
      <g>
       <use style="stroke:#000000;stroke-width:0.6;" x="135.276571" xlink:href="#m5511b99fd0" y="294.88"/>
      </g>
     </g>
    </g>
    <g id="xtick_8">
     <g id="line2d_19">
      <path clip-path="url(#p0c89d25b52)" d="M 174.854857 294.88 
L 174.854857 6.845228 
" style="fill:none;stroke:#b0b0b0;stroke-linecap:square;stroke-width:0.8;"/>
     </g>
     <g id="line2d_20">
      <g>
       <use style="stroke:#000000;stroke-width:0.6;" x="174.854857" xlink:href="#m5511b99fd0" y="294.88"/>
      </g>
     </g>
    </g>
    <g id="xtick_9">
     <g id="line2d_21">
      <path clip-path="url(#p0c89d25b52)" d="M 214.433143 294.88 
L 214.433143 6.845228 
" style="fill:none;stroke:#b0b0b0;stroke-linecap:square;stroke-width:0.8;"/>
     </g>
     <g id="line2d_22">
      <g>
       <use style="stroke:#000000;stroke-width:0.6;" x="214.433143" xlink:href="#m5511b99fd0" y="294.88"/>
      </g>
     </g>
    </g>
    <g id="xtick_10">
     <g id="line2d_23">
      <path clip-path="url(#p0c89d25b52)" d="M 254.011429 294.88 
L 254.011429 6.845228 
" style="fill:none;stroke:#b0b0b0;stroke-linecap:square;stroke-width:0.8;"/>
     </g>
     <g id="line2d_24">
      <g>
       <use style="stroke:#000000;stroke-width:0.6;" x="254.011429" xlink:href="#m5511b99fd0" y="294.88"/>
      </g>
     </g>
    </g>
    <g id="xtick_11">
     <g id="line2d_25">
      <path clip-path="url(#p0c89d25b52)" d="M 293.589714 294.88 
L 293.589714 6.845228 
" style="fill:none;stroke:#b0b0b0;stroke-linecap:square;stroke-width:0.8;"/>
     </g>
     <g id="line2d_26">
      <g>
       <use style="stroke:#000000;stroke-width:0.6;" x="293.589714" xlink:href="#m5511b99fd0" y="294.88"/>
      </g>
     </g>
    </g>
    <g id="xtick_12">
     <g id="line2d_27">
      <path clip-path="url(#p0c89d25b52)" d="M 333.168 294.88 
L 333.168 6.845228 
" style="fill:none;stroke:#b0b0b0;stroke-linecap:square;stroke-width:0.8;"/>
     </g>
     <g id="line2d_28">
      <g>
       <use style="stroke:#000000;stroke-width:0.6;" x="333.168" xlink:href="#m5511b99fd0" y="294.88"/>
      </g>
     </g>
    </g>
    <g id="text_5">
     <!-- log10(# f-evals / dimension) -->
     <defs>
      <path d="M 9.421875 75.984375 
L 18.40625 75.984375 
L 18.40625 0 
L 9.421875 0 
z
" id="DejaVuSans-6c"/>
      <path d="M 30.609375 48.390625 
Q 23.390625 48.390625 19.1875 42.75 
Q 14.984375 37.109375 14.984375 27.296875 
Q 14.984375 17.484375 19.15625 11.84375 
Q 23.34375 6.203125 30.609375 6.203125 
Q 37.796875 6.203125 41.984375 11.859375 
Q 46.1875 17.53125 46.1875 27.296875 
Q 46.1875 37.015625 41.984375 42.703125 
Q 37.796875 48.390625 30.609375 48.390625 
z
M 30.609375 56 
Q 42.328125 56 49.015625 48.375 
Q 55.71875 40.765625 55.71875 27.296875 
Q 55.71875 13.875 49.015625 6.21875 
Q 42.328125 -1.421875 30.609375 -1.421875 
Q 18.84375 -1.421875 12.171875 6.21875 
Q 5.515625 13.875 5.515625 27.296875 
Q 5.515625 40.765625 12.171875 48.375 
Q 18.84375 56 30.609375 56 
z
" id="DejaVuSans-6f"/>
      <path d="M 45.40625 27.984375 
Q 45.40625 37.75 41.375 43.109375 
Q 37.359375 48.484375 30.078125 48.484375 
Q 22.859375 48.484375 18.828125 43.109375 
Q 14.796875 37.75 14.796875 27.984375 
Q 14.796875 18.265625 18.828125 12.890625 
Q 22.859375 7.515625 30.078125 7.515625 
Q 37.359375 7.515625 41.375 12.890625 
Q 45.40625 18.265625 45.40625 27.984375 
z
M 54.390625 6.78125 
Q 54.390625 -7.171875 48.1875 -13.984375 
Q 42 -20.796875 29.203125 -20.796875 
Q 24.46875 -20.796875 20.265625 -20.09375 
Q 16.0625 -19.390625 12.109375 -17.921875 
L 12.109375 -9.1875 
Q 16.0625 -11.328125 19.921875 -12.34375 
Q 23.78125 -13.375 27.78125 -13.375 
Q 36.625 -13.375 41.015625 -8.765625 
Q 45.40625 -4.15625 45.40625 5.171875 
L 45.40625 9.625 
Q 42.625 4.78125 38.28125 2.390625 
Q 33.9375 0 27.875 0 
Q 17.828125 0 11.671875 7.65625 
Q 5.515625 15.328125 5.515625 27.984375 
Q 5.515625 40.671875 11.671875 48.328125 
Q 17.828125 56 27.875 56 
Q 33.9375 56 38.28125 53.609375 
Q 42.625 51.21875 45.40625 46.390625 
L 45.40625 54.6875 
L 54.390625 54.6875 
z
" id="DejaVuSans-67"/>
      <path d="M 12.40625 8.296875 
L 28.515625 8.296875 
L 28.515625 63.921875 
L 10.984375 60.40625 
L 10.984375 69.390625 
L 28.421875 72.90625 
L 38.28125 72.90625 
L 38.28125 8.296875 
L 54.390625 8.296875 
L 54.390625 0 
L 12.40625 0 
z
" id="DejaVuSans-31"/>
      <path d="M 31 75.875 
Q 24.46875 64.65625 21.28125 53.65625 
Q 18.109375 42.671875 18.109375 31.390625 
Q 18.109375 20.125 21.3125 9.0625 
Q 24.515625 -2 31 -13.1875 
L 23.1875 -13.1875 
Q 15.875 -1.703125 12.234375 9.375 
Q 8.59375 20.453125 8.59375 31.390625 
Q 8.59375 42.28125 12.203125 53.3125 
Q 15.828125 64.359375 23.1875 75.875 
z
" id="DejaVuSans-28"/>
      <path d="M 51.125 44 
L 36.921875 44 
L 32.8125 27.6875 
L 47.125 27.6875 
z
M 43.796875 71.78125 
L 38.71875 51.515625 
L 52.984375 51.515625 
L 58.109375 71.78125 
L 65.921875 71.78125 
L 60.890625 51.515625 
L 76.125 51.515625 
L 76.125 44 
L 58.984375 44 
L 54.984375 27.6875 
L 70.515625 27.6875 
L 70.515625 20.21875 
L 53.078125 20.21875 
L 48 0 
L 40.1875 0 
L 45.21875 20.21875 
L 30.90625 20.21875 
L 25.875 0 
L 18.015625 0 
L 23.09375 20.21875 
L 7.71875 20.21875 
L 7.71875 27.6875 
L 24.90625 27.6875 
L 29 44 
L 13.28125 44 
L 13.28125 51.515625 
L 30.90625 51.515625 
L 35.890625 71.78125 
z
" id="DejaVuSans-23"/>
      <path id="DejaVuSans-20"/>
      <path d="M 37.109375 75.984375 
L 37.109375 68.5 
L 28.515625 68.5 
Q 23.6875 68.5 21.796875 66.546875 
Q 19.921875 64.59375 19.921875 59.515625 
L 19.921875 54.6875 
L 34.71875 54.6875 
L 34.71875 47.703125 
L 19.921875 47.703125 
L 19.921875 0 
L 10.890625 0 
L 10.890625 47.703125 
L 2.296875 47.703125 
L 2.296875 54.6875 
L 10.890625 54.6875 
L 10.890625 58.5 
Q 10.890625 67.625 15.140625 71.796875 
Q 19.390625 75.984375 28.609375 75.984375 
z
" id="DejaVuSans-66"/>
      <path d="M 4.890625 31.390625 
L 31.203125 31.390625 
L 31.203125 23.390625 
L 4.890625 23.390625 
z
" id="DejaVuSans-2d"/>
      <path d="M 56.203125 29.59375 
L 56.203125 25.203125 
L 14.890625 25.203125 
Q 15.484375 15.921875 20.484375 11.0625 
Q 25.484375 6.203125 34.421875 6.203125 
Q 39.59375 6.203125 44.453125 7.46875 
Q 49.3125 8.734375 54.109375 11.28125 
L 54.109375 2.78125 
Q 49.265625 0.734375 44.1875 -0.34375 
Q 39.109375 -1.421875 33.890625 -1.421875 
Q 20.796875 -1.421875 13.15625 6.1875 
Q 5.515625 13.8125 5.515625 26.8125 
Q 5.515625 40.234375 12.765625 48.109375 
Q 20.015625 56 32.328125 56 
Q 43.359375 56 49.78125 48.890625 
Q 56.203125 41.796875 56.203125 29.59375 
z
M 47.21875 32.234375 
Q 47.125 39.59375 43.09375 43.984375 
Q 39.0625 48.390625 32.421875 48.390625 
Q 24.90625 48.390625 20.390625 44.140625 
Q 15.875 39.890625 15.1875 32.171875 
z
" id="DejaVuSans-65"/>
      <path d="M 2.984375 54.6875 
L 12.5 54.6875 
L 29.59375 8.796875 
L 46.6875 54.6875 
L 56.203125 54.6875 
L 35.6875 0 
L 23.484375 0 
z
" id="DejaVuSans-76"/>
      <path d="M 34.28125 27.484375 
Q 23.390625 27.484375 19.1875 25 
Q 14.984375 22.515625 14.984375 16.5 
Q 14.984375 11.71875 18.140625 8.90625 
Q 21.296875 6.109375 26.703125 6.109375 
Q 34.1875 6.109375 38.703125 11.40625 
Q 43.21875 16.703125 43.21875 25.484375 
L 43.21875 27.484375 
z
M 52.203125 31.203125 
L 52.203125 0 
L 43.21875 0 
L 43.21875 8.296875 
Q 40.140625 3.328125 35.546875 0.953125 
Q 30.953125 -1.421875 24.3125 -1.421875 
Q 15.921875 -1.421875 10.953125 3.296875 
Q 6 8.015625 6 15.921875 
Q 6 25.140625 12.171875 29.828125 
Q 18.359375 34.515625 30.609375 34.515625 
L 43.21875 34.515625 
L 43.21875 35.40625 
Q 43.21875 41.609375 39.140625 45 
Q 35.0625 48.390625 27.6875 48.390625 
Q 23 48.390625 18.546875 47.265625 
Q 14.109375 46.140625 10.015625 43.890625 
L 10.015625 52.203125 
Q 14.9375 54.109375 19.578125 55.046875 
Q 24.21875 56 28.609375 56 
Q 40.484375 56 46.34375 49.84375 
Q 52.203125 43.703125 52.203125 31.203125 
z
" id="DejaVuSans-61"/>
      <path d="M 44.28125 53.078125 
L 44.28125 44.578125 
Q 40.484375 46.53125 36.375 47.5 
Q 32.28125 48.484375 27.875 48.484375 
Q 21.1875 48.484375 17.84375 46.4375 
Q 14.5 44.390625 14.5 40.28125 
Q 14.5 37.15625 16.890625 35.375 
Q 19.28125 33.59375 26.515625 31.984375 
L 29.59375 31.296875 
Q 39.15625 29.25 43.1875 25.515625 
Q 47.21875 21.78125 47.21875 15.09375 
Q 47.21875 7.46875 41.1875 3.015625 
Q 35.15625 -1.421875 24.609375 -1.421875 
Q 20.21875 -1.421875 15.453125 -0.5625 
Q 10.6875 0.296875 5.421875 2 
L 5.421875 11.28125 
Q 10.40625 8.6875 15.234375 7.390625 
Q 20.0625 6.109375 24.8125 6.109375 
Q 31.15625 6.109375 34.5625 8.28125 
Q 37.984375 10.453125 37.984375 14.40625 
Q 37.984375 18.0625 35.515625 20.015625 
Q 33.0625 21.96875 24.703125 23.78125 
L 21.578125 24.515625 
Q 13.234375 26.265625 9.515625 29.90625 
Q 5.8125 33.546875 5.8125 39.890625 
Q 5.8125 47.609375 11.28125 51.796875 
Q 16.75 56 26.8125 56 
Q 31.78125 56 36.171875 55.265625 
Q 40.578125 54.546875 44.28125 53.078125 
z
" id="DejaVuSans-73"/>
      <path d="M 25.390625 72.90625 
L 33.6875 72.90625 
L 8.296875 -9.28125 
L 0 -9.28125 
z
" id="DejaVuSans-2f"/>
      <path d="M 45.40625 46.390625 
L 45.40625 75.984375 
L 54.390625 75.984375 
L 54.390625 0 
L 45.40625 0 
L 45.40625 8.203125 
Q 42.578125 3.328125 38.25 0.953125 
Q 33.9375 -1.421875 27.875 -1.421875 
Q 17.96875 -1.421875 11.734375 6.484375 
Q 5.515625 14.40625 5.515625 27.296875 
Q 5.515625 40.1875 11.734375 48.09375 
Q 17.96875 56 27.875 56 
Q 33.9375 56 38.25 53.625 
Q 42.578125 51.265625 45.40625 46.390625 
z
M 14.796875 27.296875 
Q 14.796875 17.390625 18.875 11.75 
Q 22.953125 6.109375 30.078125 6.109375 
Q 37.203125 6.109375 41.296875 11.75 
Q 45.40625 17.390625 45.40625 27.296875 
Q 45.40625 37.203125 41.296875 42.84375 
Q 37.203125 48.484375 30.078125 48.484375 
Q 22.953125 48.484375 18.875 42.84375 
Q 14.796875 37.203125 14.796875 27.296875 
z
" id="DejaVuSans-64"/>
      <path d="M 9.421875 54.6875 
L 18.40625 54.6875 
L 18.40625 0 
L 9.421875 0 
z
M 9.421875 75.984375 
L 18.40625 75.984375 
L 18.40625 64.59375 
L 9.421875 64.59375 
z
" id="DejaVuSans-69"/>
      <path d="M 52 44.1875 
Q 55.375 50.25 60.0625 53.125 
Q 64.75 56 71.09375 56 
Q 79.640625 56 84.28125 50.015625 
Q 88.921875 44.046875 88.921875 33.015625 
L 88.921875 0 
L 79.890625 0 
L 79.890625 32.71875 
Q 79.890625 40.578125 77.09375 44.375 
Q 74.3125 48.1875 68.609375 48.1875 
Q 61.625 48.1875 57.5625 43.546875 
Q 53.515625 38.921875 53.515625 30.90625 
L 53.515625 0 
L 44.484375 0 
L 44.484375 32.71875 
Q 44.484375 40.625 41.703125 44.40625 
Q 38.921875 48.1875 33.109375 48.1875 
Q 26.21875 48.1875 22.15625 43.53125 
Q 18.109375 38.875 18.109375 30.90625 
L 18.109375 0 
L 9.078125 0 
L 9.078125 54.6875 
L 18.109375 54.6875 
L 18.109375 46.1875 
Q 21.1875 51.21875 25.484375 53.609375 
Q 29.78125 56 35.6875 56 
Q 41.65625 56 45.828125 52.96875 
Q 50 49.953125 52 44.1875 
z
" id="DejaVuSans-6d"/>
      <path d="M 54.890625 33.015625 
L 54.890625 0 
L 45.90625 0 
L 45.90625 32.71875 
Q 45.90625 40.484375 42.875 44.328125 
Q 39.84375 48.1875 33.796875 48.1875 
Q 26.515625 48.1875 22.3125 43.546875 
Q 18.109375 38.921875 18.109375 30.90625 
L 18.109375 0 
L 9.078125 0 
L 9.078125 54.6875 
L 18.109375 54.6875 
L 18.109375 46.1875 
Q 21.34375 51.125 25.703125 53.5625 
Q 30.078125 56 35.796875 56 
Q 45.21875 56 50.046875 50.171875 
Q 54.890625 44.34375 54.890625 33.015625 
z
" id="DejaVuSans-6e"/>
      <path d="M 8.015625 75.875 
L 15.828125 75.875 
Q 23.140625 64.359375 26.78125 53.3125 
Q 30.421875 42.28125 30.421875 31.390625 
Q 30.421875 20.453125 26.78125 9.375 
Q 23.140625 -1.703125 15.828125 -13.1875 
L 8.015625 -13.1875 
Q 14.5 -2 17.703125 9.0625 
Q 20.90625 20.125 20.90625 31.390625 
Q 20.90625 42.671875 17.703125 53.65625 
Q 14.5 64.65625 8.015625 75.875 
z
" id="DejaVuSans-29"/>
     </defs>
     <g transform="translate(73.803219 338.153594)scale(0.17 -0.17)">
      <use xlink:href="#DejaVuSans-6c"/>
      <use x="27.783203" xlink:href="#DejaVuSans-6f"/>
      <use x="88.964844" xlink:href="#DejaVuSans-67"/>
      <use x="152.441406" xlink:href="#DejaVuSans-31"/>
      <use x="216.064453" xlink:href="#DejaVuSans-30"/>
      <use x="279.6875" xlink:href="#DejaVuSans-28"/>
      <use x="318.701172" xlink:href="#DejaVuSans-23"/>
      <use x="402.490234" xlink:href="#DejaVuSans-20"/>
      <use x="434.277344" xlink:href="#DejaVuSans-66"/>
      <use x="469.404297" xlink:href="#DejaVuSans-2d"/>
      <use x="505.488281" xlink:href="#DejaVuSans-65"/>
      <use x="567.011719" xlink:href="#DejaVuSans-76"/>
      <use x="626.191406" xlink:href="#DejaVuSans-61"/>
      <use x="687.470703" xlink:href="#DejaVuSans-6c"/>
      <use x="715.253906" xlink:href="#DejaVuSans-73"/>
      <use x="767.353516" xlink:href="#DejaVuSans-20"/>
      <use x="799.140625" xlink:href="#DejaVuSans-2f"/>
      <use x="832.832031" xlink:href="#DejaVuSans-20"/>
      <use x="864.619141" xlink:href="#DejaVuSans-64"/>
      <use x="928.095703" xlink:href="#DejaVuSans-69"/>
      <use x="955.878906" xlink:href="#DejaVuSans-6d"/>
      <use x="1053.291016" xlink:href="#DejaVuSans-65"/>
      <use x="1114.814453" xlink:href="#DejaVuSans-6e"/>
      <use x="1178.193359" xlink:href="#DejaVuSans-73"/>
      <use x="1230.292969" xlink:href="#DejaVuSans-69"/>
      <use x="1258.076172" xlink:href="#DejaVuSans-6f"/>
      <use x="1319.257812" xlink:href="#DejaVuSans-6e"/>
      <use x="1382.636719" xlink:href="#DejaVuSans-29"/>
     </g>
    </g>
   </g>
   <g id="matplotlib.axis_2">
    <g id="ytick_1">
     <g id="line2d_29">
      <path clip-path="url(#p0c89d25b52)" d="M 56.12 294.88 
L 333.168 294.88 
" style="fill:none;stroke:#b0b0b0;stroke-linecap:square;stroke-width:0.8;"/>
     </g>
     <g id="line2d_30">
      <defs>
       <path d="M 0 0 
L -3.5 0 
" id="mbe4fdfc22a" style="stroke:#000000;stroke-width:0.8;"/>
      </defs>
      <g>
       <use style="stroke:#000000;stroke-width:0.8;" x="56.12" xlink:href="#mbe4fdfc22a" y="294.88"/>
      </g>
     </g>
     <g id="text_6">
      <!-- 0.0 -->
      <defs>
       <path d="M 10.6875 12.40625 
L 21 12.40625 
L 21 0 
L 10.6875 0 
z
" id="DejaVuSans-2e"/>
      </defs>
      <g transform="translate(23.675 300.95875)scale(0.16 -0.16)">
       <use xlink:href="#DejaVuSans-30"/>
       <use x="63.623047" xlink:href="#DejaVuSans-2e"/>
       <use x="95.410156" xlink:href="#DejaVuSans-30"/>
      </g>
     </g>
    </g>
    <g id="ytick_2">
     <g id="line2d_31">
      <path clip-path="url(#p0c89d25b52)" d="M 56.12 237.843411 
L 333.168 237.843411 
" style="fill:none;stroke:#b0b0b0;stroke-linecap:square;stroke-width:0.8;"/>
     </g>
     <g id="line2d_32">
      <g>
       <use style="stroke:#000000;stroke-width:0.8;" x="56.12" xlink:href="#mbe4fdfc22a" y="237.843411"/>
      </g>
     </g>
     <g id="text_7">
      <!-- 0.2 -->
      <g transform="translate(23.675 243.922161)scale(0.16 -0.16)">
       <use xlink:href="#DejaVuSans-30"/>
       <use x="63.623047" xlink:href="#DejaVuSans-2e"/>
       <use x="95.410156" xlink:href="#DejaVuSans-32"/>
      </g>
     </g>
    </g>
    <g id="ytick_3">
     <g id="line2d_33">
      <path clip-path="url(#p0c89d25b52)" d="M 56.12 180.806823 
L 333.168 180.806823 
" style="fill:none;stroke:#b0b0b0;stroke-linecap:square;stroke-width:0.8;"/>
     </g>
     <g id="line2d_34">
      <g>
       <use style="stroke:#000000;stroke-width:0.8;" x="56.12" xlink:href="#mbe4fdfc22a" y="180.806823"/>
      </g>
     </g>
     <g id="text_8">
      <!-- 0.4 -->
      <g transform="translate(23.675 186.885573)scale(0.16 -0.16)">
       <use xlink:href="#DejaVuSans-30"/>
       <use x="63.623047" xlink:href="#DejaVuSans-2e"/>
       <use x="95.410156" xlink:href="#DejaVuSans-34"/>
      </g>
     </g>
    </g>
    <g id="ytick_4">
     <g id="line2d_35">
      <path clip-path="url(#p0c89d25b52)" d="M 56.12 123.770234 
L 333.168 123.770234 
" style="fill:none;stroke:#b0b0b0;stroke-linecap:square;stroke-width:0.8;"/>
     </g>
     <g id="line2d_36">
      <g>
       <use style="stroke:#000000;stroke-width:0.8;" x="56.12" xlink:href="#mbe4fdfc22a" y="123.770234"/>
      </g>
     </g>
     <g id="text_9">
      <!-- 0.6 -->
      <g transform="translate(23.675 129.848984)scale(0.16 -0.16)">
       <use xlink:href="#DejaVuSans-30"/>
       <use x="63.623047" xlink:href="#DejaVuSans-2e"/>
       <use x="95.410156" xlink:href="#DejaVuSans-36"/>
      </g>
     </g>
    </g>
    <g id="ytick_5">
     <g id="line2d_37">
      <path clip-path="url(#p0c89d25b52)" d="M 56.12 66.733646 
L 333.168 66.733646 
" style="fill:none;stroke:#b0b0b0;stroke-linecap:square;stroke-width:0.8;"/>
     </g>
     <g id="line2d_38">
      <g>
       <use style="stroke:#000000;stroke-width:0.8;" x="56.12" xlink:href="#mbe4fdfc22a" y="66.733646"/>
      </g>
     </g>
     <g id="text_10">
      <!-- 0.8 -->
      <defs>
       <path d="M 31.78125 34.625 
Q 24.75 34.625 20.71875 30.859375 
Q 16.703125 27.09375 16.703125 20.515625 
Q 16.703125 13.921875 20.71875 10.15625 
Q 24.75 6.390625 31.78125 6.390625 
Q 38.8125 6.390625 42.859375 10.171875 
Q 46.921875 13.96875 46.921875 20.515625 
Q 46.921875 27.09375 42.890625 30.859375 
Q 38.875 34.625 31.78125 34.625 
z
M 21.921875 38.8125 
Q 15.578125 40.375 12.03125 44.71875 
Q 8.5 49.078125 8.5 55.328125 
Q 8.5 64.0625 14.71875 69.140625 
Q 20.953125 74.21875 31.78125 74.21875 
Q 42.671875 74.21875 48.875 69.140625 
Q 55.078125 64.0625 55.078125 55.328125 
Q 55.078125 49.078125 51.53125 44.71875 
Q 48 40.375 41.703125 38.8125 
Q 48.828125 37.15625 52.796875 32.3125 
Q 56.78125 27.484375 56.78125 20.515625 
Q 56.78125 9.90625 50.3125 4.234375 
Q 43.84375 -1.421875 31.78125 -1.421875 
Q 19.734375 -1.421875 13.25 4.234375 
Q 6.78125 9.90625 6.78125 20.515625 
Q 6.78125 27.484375 10.78125 32.3125 
Q 14.796875 37.15625 21.921875 38.8125 
z
M 18.3125 54.390625 
Q 18.3125 48.734375 21.84375 45.5625 
Q 25.390625 42.390625 31.78125 42.390625 
Q 38.140625 42.390625 41.71875 45.5625 
Q 45.3125 48.734375 45.3125 54.390625 
Q 45.3125 60.0625 41.71875 63.234375 
Q 38.140625 66.40625 31.78125 66.40625 
Q 25.390625 66.40625 21.84375 63.234375 
Q 18.3125 60.0625 18.3125 54.390625 
z
" id="DejaVuSans-38"/>
      </defs>
      <g transform="translate(23.675 72.812396)scale(0.16 -0.16)">
       <use xlink:href="#DejaVuSans-30"/>
       <use x="63.623047" xlink:href="#DejaVuSans-2e"/>
       <use x="95.410156" xlink:href="#DejaVuSans-38"/>
      </g>
     </g>
    </g>
    <g id="ytick_6">
     <g id="line2d_39">
      <path clip-path="url(#p0c89d25b52)" d="M 56.12 9.697057 
L 333.168 9.697057 
" style="fill:none;stroke:#b0b0b0;stroke-linecap:square;stroke-width:0.8;"/>
     </g>
     <g id="line2d_40">
      <g>
       <use style="stroke:#000000;stroke-width:0.8;" x="56.12" xlink:href="#mbe4fdfc22a" y="9.697057"/>
      </g>
     </g>
     <g id="text_11">
      <!-- 1.0 -->
      <g transform="translate(23.675 15.775807)scale(0.16 -0.16)">
       <use xlink:href="#DejaVuSans-31"/>
       <use x="63.623047" xlink:href="#DejaVuSans-2e"/>
       <use x="95.410156" xlink:href="#DejaVuSans-30"/>
      </g>
     </g>
    </g>
    <g id="text_12">
     <!-- Fraction of function,target pairs -->
     <defs>
      <path d="M 9.8125 72.90625 
L 51.703125 72.90625 
L 51.703125 64.59375 
L 19.671875 64.59375 
L 19.671875 43.109375 
L 48.578125 43.109375 
L 48.578125 34.8125 
L 19.671875 34.8125 
L 19.671875 0 
L 9.8125 0 
z
" id="DejaVuSans-46"/>
      <path d="M 41.109375 46.296875 
Q 39.59375 47.171875 37.8125 47.578125 
Q 36.03125 48 33.890625 48 
Q 26.265625 48 22.1875 43.046875 
Q 18.109375 38.09375 18.109375 28.8125 
L 18.109375 0 
L 9.078125 0 
L 9.078125 54.6875 
L 18.109375 54.6875 
L 18.109375 46.1875 
Q 20.953125 51.171875 25.484375 53.578125 
Q 30.03125 56 36.53125 56 
Q 37.453125 56 38.578125 55.875 
Q 39.703125 55.765625 41.0625 55.515625 
z
" id="DejaVuSans-72"/>
      <path d="M 48.78125 52.59375 
L 48.78125 44.1875 
Q 44.96875 46.296875 41.140625 47.34375 
Q 37.3125 48.390625 33.40625 48.390625 
Q 24.65625 48.390625 19.8125 42.84375 
Q 14.984375 37.3125 14.984375 27.296875 
Q 14.984375 17.28125 19.8125 11.734375 
Q 24.65625 6.203125 33.40625 6.203125 
Q 37.3125 6.203125 41.140625 7.25 
Q 44.96875 8.296875 48.78125 10.40625 
L 48.78125 2.09375 
Q 45.015625 0.34375 40.984375 -0.53125 
Q 36.96875 -1.421875 32.421875 -1.421875 
Q 20.0625 -1.421875 12.78125 6.34375 
Q 5.515625 14.109375 5.515625 27.296875 
Q 5.515625 40.671875 12.859375 48.328125 
Q 20.21875 56 33.015625 56 
Q 37.15625 56 41.109375 55.140625 
Q 45.0625 54.296875 48.78125 52.59375 
z
" id="DejaVuSans-63"/>
      <path d="M 18.3125 70.21875 
L 18.3125 54.6875 
L 36.8125 54.6875 
L 36.8125 47.703125 
L 18.3125 47.703125 
L 18.3125 18.015625 
Q 18.3125 11.328125 20.140625 9.421875 
Q 21.96875 7.515625 27.59375 7.515625 
L 36.8125 7.515625 
L 36.8125 0 
L 27.59375 0 
Q 17.1875 0 13.234375 3.875 
Q 9.28125 7.765625 9.28125 18.015625 
L 9.28125 47.703125 
L 2.6875 47.703125 
L 2.6875 54.6875 
L 9.28125 54.6875 
L 9.28125 70.21875 
z
" id="DejaVuSans-74"/>
      <path d="M 8.5 21.578125 
L 8.5 54.6875 
L 17.484375 54.6875 
L 17.484375 21.921875 
Q 17.484375 14.15625 20.5 10.265625 
Q 23.53125 6.390625 29.59375 6.390625 
Q 36.859375 6.390625 41.078125 11.03125 
Q 45.3125 15.671875 45.3125 23.6875 
L 45.3125 54.6875 
L 54.296875 54.6875 
L 54.296875 0 
L 45.3125 0 
L 45.3125 8.40625 
Q 42.046875 3.421875 37.71875 1 
Q 33.40625 -1.421875 27.6875 -1.421875 
Q 18.265625 -1.421875 13.375 4.4375 
Q 8.5 10.296875 8.5 21.578125 
z
M 31.109375 56 
z
" id="DejaVuSans-75"/>
      <path d="M 11.71875 12.40625 
L 22.015625 12.40625 
L 22.015625 4 
L 14.015625 -11.625 
L 7.71875 -11.625 
L 11.71875 4 
z
" id="DejaVuSans-2c"/>
      <path d="M 18.109375 8.203125 
L 18.109375 -20.796875 
L 9.078125 -20.796875 
L 9.078125 54.6875 
L 18.109375 54.6875 
L 18.109375 46.390625 
Q 20.953125 51.265625 25.265625 53.625 
Q 29.59375 56 35.59375 56 
Q 45.5625 56 51.78125 48.09375 
Q 58.015625 40.1875 58.015625 27.296875 
Q 58.015625 14.40625 51.78125 6.484375 
Q 45.5625 -1.421875 35.59375 -1.421875 
Q 29.59375 -1.421875 25.265625 0.953125 
Q 20.953125 3.328125 18.109375 8.203125 
z
M 48.6875 27.296875 
Q 48.6875 37.203125 44.609375 42.84375 
Q 40.53125 48.484375 33.40625 48.484375 
Q 26.265625 48.484375 22.1875 42.84375 
Q 18.109375 37.203125 18.109375 27.296875 
Q 18.109375 17.390625 22.1875 11.75 
Q 26.265625 6.109375 33.40625 6.109375 
Q 40.53125 6.109375 44.609375 11.75 
Q 48.6875 17.390625 48.6875 27.296875 
z
" id="DejaVuSans-70"/>
     </defs>
     <g transform="translate(16.139531 286.001989)rotate(-90)scale(0.17 -0.17)">
      <use xlink:href="#DejaVuSans-46"/>
      <use x="57.410156" xlink:href="#DejaVuSans-72"/>
      <use x="98.523438" xlink:href="#DejaVuSans-61"/>
      <use x="159.802734" xlink:href="#DejaVuSans-63"/>
      <use x="214.783203" xlink:href="#DejaVuSans-74"/>
      <use x="253.992188" xlink:href="#DejaVuSans-69"/>
      <use x="281.775391" xlink:href="#DejaVuSans-6f"/>
      <use x="342.957031" xlink:href="#DejaVuSans-6e"/>
      <use x="406.335938" xlink:href="#DejaVuSans-20"/>
      <use x="438.123047" xlink:href="#DejaVuSans-6f"/>
      <use x="499.304688" xlink:href="#DejaVuSans-66"/>
      <use x="534.509766" xlink:href="#DejaVuSans-20"/>
      <use x="566.296875" xlink:href="#DejaVuSans-66"/>
      <use x="601.501953" xlink:href="#DejaVuSans-75"/>
      <use x="664.880859" xlink:href="#DejaVuSans-6e"/>
      <use x="728.259766" xlink:href="#DejaVuSans-63"/>
      <use x="783.240234" xlink:href="#DejaVuSans-74"/>
      <use x="822.449219" xlink:href="#DejaVuSans-69"/>
      <use x="850.232422" xlink:href="#DejaVuSans-6f"/>
      <use x="911.414062" xlink:href="#DejaVuSans-6e"/>
      <use x="974.792969" xlink:href="#DejaVuSans-2c"/>
      <use x="1006.580078" xlink:href="#DejaVuSans-74"/>
      <use x="1045.789062" xlink:href="#DejaVuSans-61"/>
      <use x="1107.068359" xlink:href="#DejaVuSans-72"/>
      <use x="1148.166016" xlink:href="#DejaVuSans-67"/>
      <use x="1211.642578" xlink:href="#DejaVuSans-65"/>
      <use x="1273.166016" xlink:href="#DejaVuSans-74"/>
      <use x="1312.375" xlink:href="#DejaVuSans-20"/>
      <use x="1344.162109" xlink:href="#DejaVuSans-70"/>
      <use x="1407.638672" xlink:href="#DejaVuSans-61"/>
      <use x="1468.917969" xlink:href="#DejaVuSans-69"/>
      <use x="1496.701172" xlink:href="#DejaVuSans-72"/>
      <use x="1537.814453" xlink:href="#DejaVuSans-73"/>
     </g>
    </g>
   </g>
   <g id="line2d_41">
    <defs>
     <path d="M 0 1.5 
C 0.397805 1.5 0.77937 1.341951 1.06066 1.06066 
C 1.341951 0.77937 1.5 0.397805 1.5 0 
C 1.5 -0.397805 1.341951 -0.77937 1.06066 -1.06066 
C 0.77937 -1.341951 0.397805 -1.5 0 -1.5 
C -0.397805 -1.5 -0.77937 -1.341951 -1.06066 -1.06066 
C -1.341951 -0.77937 -1.5 -0.397805 -1.5 0 
C -1.5 0.397805 -1.341951 0.77937 -1.06066 1.06066 
C -0.77937 1.341951 -0.397805 1.5 0 1.5 
z
" id="mba36ff603e" style="stroke:#f5deb3;"/>
    </defs>
    <g>
     <use style="fill:#f5deb3;stroke:#f5deb3;" x="136.196864" xlink:href="#mba36ff603e" y="9.697057"/>
     <use style="fill:#f5deb3;stroke:#f5deb3;" x="136.196864" xlink:href="#mba36ff603e" y="9.697057"/>
    </g>
   </g>
   <g id="line2d_42">
    <defs>
     <path d="M 0 1.5 
C 0.397805 1.5 0.77937 1.341951 1.06066 1.06066 
C 1.341951 0.77937 1.5 0.397805 1.5 0 
C 1.5 -0.397805 1.341951 -0.77937 1.06066 -1.06066 
C 0.77937 -1.341951 0.397805 -1.5 0 -1.5 
C -0.397805 -1.5 -0.77937 -1.341951 -1.06066 -1.06066 
C -1.341951 -0.77937 -1.5 -0.397805 -1.5 0 
C -1.5 0.397805 -1.341951 0.77937 -1.06066 1.06066 
C -0.77937 1.341951 -0.397805 1.5 0 1.5 
z
" id="m66f6f0ccc8" style="stroke:#000080;"/>
    </defs>
    <g>
     <use style="fill:#000080;stroke:#000080;" x="189.834793" xlink:href="#m66f6f0ccc8" y="11.933786"/>
     <use style="fill:#000080;stroke:#000080;" x="189.834793" xlink:href="#m66f6f0ccc8" y="11.933786"/>
    </g>
   </g>
   <g id="line2d_43">
    <path d="M 44.205749 294.88 
L 44.205749 288.393486 
L 81.973032 288.393486 
L 81.973032 288.28165 
L 92.904808 288.28165 
L 92.904808 288.057977 
L 93.887283 288.057977 
L 93.887283 287.834304 
L 94.816624 287.834304 
L 94.816624 287.386958 
L 95.698286 287.386958 
L 95.698286 287.051449 
L 98.100602 287.051449 
L 98.100602 286.939612 
L 99.533818 286.939612 
L 99.533818 286.604103 
L 100.207968 286.604103 
L 100.207968 286.268593 
L 101.481783 286.268593 
L 101.481783 286.044921 
L 102.084955 286.044921 
L 102.084955 285.597575 
L 102.667676 285.597575 
L 102.667676 285.373902 
L 103.231288 285.373902 
L 103.231288 284.255537 
L 103.777005 284.255537 
L 103.777005 283.808192 
L 104.305927 283.808192 
L 104.305927 282.577991 
L 104.819059 282.577991 
L 104.819059 281.459626 
L 105.317315 281.459626 
L 105.317315 280.229425 
L 105.801534 280.229425 
L 105.801534 279.111061 
L 106.272485 279.111061 
L 106.272485 278.551879 
L 106.730875 278.551879 
L 106.730875 278.104533 
L 107.177358 278.104533 
L 107.177358 277.992696 
L 107.612537 277.992696 
L 107.612537 276.986168 
L 108.036969 276.986168 
L 108.036969 276.650659 
L 108.451173 276.650659 
L 108.451173 274.525766 
L 108.85563 274.525766 
L 108.85563 273.407402 
L 109.250788 273.407402 
L 109.250788 272.960056 
L 109.637066 272.960056 
L 109.637066 271.618019 
L 110.014853 271.618019 
L 110.014853 271.170673 
L 110.384516 271.170673 
L 110.384516 270.052309 
L 110.746395 270.052309 
L 110.746395 269.269453 
L 111.100812 269.269453 
L 111.100812 268.710271 
L 111.448069 268.710271 
L 111.448069 267.591907 
L 111.788449 267.591907 
L 111.788449 266.473542 
L 112.122219 266.473542 
L 112.122219 266.026196 
L 112.449632 266.026196 
L 112.449632 264.684159 
L 112.770924 264.684159 
L 112.770924 264.124977 
L 113.086321 264.124977 
L 113.086321 261.888248 
L 113.396034 261.888248 
L 113.396034 260.210701 
L 113.700266 260.210701 
L 113.700266 257.750299 
L 113.999206 257.750299 
L 113.999206 255.51357 
L 114.293036 255.51357 
L 114.293036 254.283369 
L 114.581927 254.283369 
L 114.581927 253.94786 
L 114.866043 253.94786 
L 114.866043 252.941332 
L 115.145539 252.941332 
L 115.145539 251.599295 
L 115.420563 251.599295 
L 115.420563 251.263785 
L 115.691256 251.263785 
L 115.691256 250.257257 
L 115.957752 250.257257 
L 115.957752 249.250729 
L 116.220179 249.250729 
L 116.220179 248.132365 
L 116.478659 248.132365 
L 116.478659 247.685019 
L 116.73331 247.685019 
L 116.73331 246.902164 
L 116.984244 246.902164 
L 116.984244 246.678491 
L 117.231566 246.678491 
L 117.231566 246.231145 
L 117.475381 246.231145 
L 117.475381 244.889108 
L 117.952873 244.889108 
L 117.952873 244.106253 
L 118.186736 244.106253 
L 118.186736 243.88258 
L 118.417459 243.88258 
L 118.417459 243.770743 
L 118.645127 243.770743 
L 118.645127 243.323397 
L 118.869818 243.323397 
L 118.869818 242.876052 
L 119.09161 242.876052 
L 119.09161 242.428706 
L 119.310576 242.428706 
L 119.310576 242.205033 
L 119.526788 242.205033 
L 119.526788 241.198505 
L 119.740314 241.198505 
L 119.740314 241.086668 
L 119.95122 241.086668 
L 119.95122 240.303813 
L 120.15957 240.303813 
L 120.15957 239.632795 
L 120.365424 239.632795 
L 120.365424 239.185449 
L 120.568842 239.185449 
L 120.568842 239.073612 
L 120.769881 239.073612 
L 120.769881 238.849939 
L 121.16504 238.849939 
L 121.16504 238.290757 
L 121.359263 238.290757 
L 121.359263 238.067084 
L 121.551317 238.067084 
L 121.551317 237.843411 
L 121.741249 237.843411 
L 121.741249 237.396066 
L 121.929105 237.396066 
L 121.929105 236.94872 
L 122.114929 236.94872 
L 122.114929 236.389538 
L 122.298767 236.389538 
L 122.298767 236.165865 
L 122.480659 236.165865 
L 122.480659 235.942192 
L 122.660646 235.942192 
L 122.660646 235.38301 
L 122.838768 235.38301 
L 122.838768 234.600154 
L 123.015063 234.600154 
L 123.015063 233.48179 
L 123.189569 233.48179 
L 123.189569 232.698935 
L 123.36232 232.698935 
L 123.36232 232.139753 
L 123.533353 232.139753 
L 123.533353 231.245061 
L 123.7027 231.245061 
L 123.7027 230.797715 
L 123.870396 230.797715 
L 123.870396 230.126697 
L 124.036471 230.126697 
L 124.036471 229.120168 
L 124.200956 229.120168 
L 124.200956 227.778131 
L 124.363883 227.778131 
L 124.363883 227.107112 
L 124.52528 227.107112 
L 124.52528 226.659767 
L 124.685175 226.659767 
L 124.685175 225.988748 
L 124.843597 225.988748 
L 124.843597 225.094056 
L 125.000572 225.094056 
L 125.000572 223.975692 
L 125.156126 223.975692 
L 125.156126 222.186309 
L 125.310285 222.186309 
L 125.310285 220.508762 
L 125.463074 220.508762 
L 125.463074 218.607542 
L 125.614517 218.607542 
L 125.614517 217.936524 
L 125.764637 217.936524 
L 125.764637 216.48265 
L 125.913457 216.48265 
L 125.913457 215.252449 
L 126.061 215.252449 
L 126.061 212.792047 
L 126.207287 212.792047 
L 126.207287 211.897355 
L 126.352339 211.897355 
L 126.352339 210.890827 
L 126.496178 210.890827 
L 126.496178 208.765935 
L 126.638823 208.765935 
L 126.638823 207.871243 
L 126.780294 207.871243 
L 126.780294 204.851659 
L 126.92061 204.851659 
L 126.92061 202.167584 
L 127.05979 202.167584 
L 127.05979 199.595346 
L 127.197852 199.595346 
L 127.197852 197.470454 
L 127.334814 197.470454 
L 127.334814 195.457398 
L 127.470694 195.457398 
L 127.470694 192.996996 
L 127.605507 192.996996 
L 127.605507 191.431285 
L 127.739271 191.431285 
L 127.739271 189.865575 
L 127.872003 189.865575 
L 127.872003 188.188028 
L 128.003717 188.188028 
L 128.003717 185.727627 
L 128.13443 185.727627 
L 128.13443 183.714571 
L 128.264156 183.714571 
L 128.264156 181.366005 
L 128.39291 181.366005 
L 128.39291 180.806823 
L 128.520707 180.806823 
L 128.520707 178.905603 
L 128.647561 178.905603 
L 128.647561 177.11622 
L 128.773486 177.11622 
L 128.773486 175.215 
L 128.898495 175.215 
L 128.898495 173.537454 
L 129.022601 173.537454 
L 129.022601 170.51787 
L 129.145817 170.51787 
L 129.145817 168.504814 
L 129.268157 168.504814 
L 129.268157 166.044412 
L 129.389632 166.044412 
L 129.389632 163.919519 
L 129.510254 163.919519 
L 129.510254 162.689318 
L 129.630036 162.689318 
L 129.630036 160.899935 
L 129.748989 160.899935 
L 129.748989 159.110552 
L 129.867125 159.110552 
L 129.867125 157.321169 
L 129.984454 157.321169 
L 129.984454 155.531786 
L 130.100987 155.531786 
L 130.100987 152.735874 
L 130.216736 152.735874 
L 130.216736 150.499145 
L 130.33171 150.499145 
L 130.33171 148.821599 
L 130.445921 148.821599 
L 130.445921 147.591398 
L 130.559378 147.591398 
L 130.559378 146.24936 
L 130.67209 146.24936 
L 130.67209 142.894267 
L 130.784069 142.894267 
L 130.784069 139.986519 
L 130.895323 139.986519 
L 131.005861 136.072244 
L 131.115693 136.072244 
L 131.224827 134.059188 
L 131.333273 134.059188 
L 131.441039 127.908183 
L 131.548134 127.908183 
L 131.654565 123.993907 
L 131.760342 123.993907 
L 131.865471 120.303304 
L 131.969962 120.303304 
L 132.073821 117.395557 
L 132.177056 117.395557 
L 132.279675 114.823318 
L 132.381685 114.823318 
L 132.483094 111.803734 
L 132.583907 111.803734 
L 132.684132 107.665786 
L 132.783777 107.665786 
L 132.882847 104.869875 
L 132.98135 104.869875 
L 133.079291 102.633146 
L 133.176677 102.633146 
L 133.273515 98.71887 
L 133.36981 98.71887 
L 133.465568 96.929487 
L 133.560797 96.929487 
L 133.6555 94.357248 
L 133.749684 94.357248 
L 133.843356 91.449501 
L 133.936519 91.449501 
L 134.029181 89.771954 
L 134.121345 89.771954 
L 134.213018 87.758898 
L 134.304205 87.758898 
L 134.39491 85.634005 
L 134.485139 85.634005 
L 134.574897 84.515641 
L 134.664189 84.515641 
L 134.753019 83.844622 
L 134.841393 83.844622 
L 134.929315 82.055239 
L 135.016789 82.055239 
L 135.10382 80.042183 
L 135.190413 80.042183 
L 135.276571 79.259328 
L 135.3623 79.259328 
L 135.447604 78.2528 
L 135.532486 78.2528 
L 135.616951 77.022599 
L 135.701004 77.022599 
L 135.784647 75.792398 
L 135.867885 75.792398 
L 135.950722 73.667506 
L 136.033161 73.667506 
L 136.115208 73.331996 
L 136.196864 73.331996 
L 136.278134 72.101795 
L 136.359022 72.101795 
L 136.439531 70.759758 
L 136.519665 70.759758 
L 136.599426 70.088739 
L 136.67882 70.088739 
L 136.757848 67.740174 
L 136.836515 67.740174 
L 136.914823 67.292828 
L 136.992776 67.292828 
L 137.070377 66.174463 
L 137.14763 66.174463 
L 137.224536 64.38508 
L 137.301101 64.38508 
L 137.377325 63.602225 
L 137.453213 63.602225 
L 137.528768 61.924678 
L 137.603992 61.924678 
L 137.678888 61.141823 
L 137.753459 61.141823 
L 137.827708 60.023459 
L 137.901638 60.023459 
L 137.975251 58.345912 
L 138.04855 58.345912 
L 138.121538 57.451221 
L 138.194217 57.451221 
L 138.194217 56.556529 
L 138.33866 56.556529 
L 138.410429 54.878982 
L 138.4819 54.878982 
L 138.553074 54.096127 
L 138.623956 54.096127 
L 138.694545 53.313272 
L 138.764847 53.313272 
L 138.834862 52.194907 
L 138.904592 52.194907 
L 138.974042 51.412052 
L 139.043211 51.412052 
L 139.112104 50.629197 
L 139.180721 50.629197 
L 139.249066 49.846342 
L 139.317139 49.846342 
L 139.384945 48.727978 
L 139.452484 48.727978 
L 139.452484 48.056959 
L 139.586771 48.056959 
L 139.653523 47.050431 
L 139.720016 47.050431 
L 139.786254 46.379412 
L 139.852237 46.379412 
L 139.917968 45.708393 
L 139.983449 45.708393 
L 140.048681 44.478193 
L 140.113666 44.478193 
L 140.178407 43.91901 
L 140.242905 43.91901 
L 140.307161 43.247992 
L 140.371179 43.247992 
L 140.434959 42.688809 
L 140.498503 42.688809 
L 140.561812 42.241464 
L 140.62489 42.241464 
L 140.687737 41.905954 
L 140.750355 41.905954 
L 140.750355 41.234936 
L 140.874911 41.234936 
L 140.936852 40.78759 
L 140.998571 40.78759 
L 141.060069 40.45208 
L 141.121347 40.45208 
L 141.182408 39.892898 
L 141.243253 39.892898 
L 141.303883 39.221879 
L 141.3643 39.221879 
L 141.3643 39.110043 
L 141.484501 39.110043 
L 141.544287 38.774534 
L 141.603867 38.774534 
L 141.66324 38.215351 
L 141.781376 38.215351 
L 141.84014 37.991679 
L 141.898705 37.991679 
L 141.95707 37.656169 
L 142.015238 37.656169 
L 142.07321 37.096987 
L 142.18857 37.096987 
L 142.245962 36.202295 
L 142.303162 36.202295 
L 142.360172 35.978622 
L 142.416994 35.978622 
L 142.473629 35.531277 
L 142.530078 35.531277 
L 142.586342 35.195767 
L 142.642422 35.195767 
L 142.642422 34.972094 
L 142.754037 34.972094 
L 142.864932 34.636585 
L 142.920112 34.636585 
L 143.029944 33.741894 
L 143.084598 33.741894 
L 143.139078 33.182711 
L 143.247524 33.182711 
L 143.35529 32.511693 
L 143.408921 32.511693 
L 143.515683 32.064347 
L 143.568817 32.064347 
L 143.674593 31.840674 
L 143.884213 31.840674 
L 143.988072 30.945982 
L 144.039767 30.945982 
L 144.142694 30.610473 
L 144.193927 30.610473 
L 144.295937 30.163127 
L 144.346715 30.163127 
L 144.447825 29.715781 
L 144.498158 29.715781 
L 144.598384 29.044763 
L 144.648278 29.044763 
L 144.698028 28.82109 
L 144.895601 28.82109 
L 144.993542 28.597417 
L 145.090928 28.597417 
L 145.139415 28.373744 
L 145.235981 28.373744 
L 145.284061 28.150071 
L 145.37982 28.150071 
L 145.475048 27.814562 
L 145.569751 27.814562 
L 145.663936 27.590889 
L 145.710835 27.590889 
L 145.757607 27.367216 
L 146.035596 27.367216 
L 146.127269 27.031707 
L 146.172923 27.031707 
L 146.172923 26.696197 
L 146.444328 26.696197 
L 146.489148 26.472524 
L 146.622913 26.472524 
L 146.711514 26.137015 
L 146.843566 26.137015 
L 146.93104 25.801506 
L 146.974611 25.801506 
L 146.974611 25.577833 
L 147.147797 25.577833 
L 147.233741 25.242323 
L 147.276552 25.242323 
L 147.319256 25.018651 
L 147.615255 25.018651 
L 147.698898 24.683141 
L 147.823604 24.683141 
L 147.823604 24.571305 
L 147.947413 24.571305 
L 147.947413 24.459468 
L 148.151798 24.459468 
L 148.232877 24.235795 
L 148.313575 24.235795 
L 148.393896 24.012123 
L 148.55342 24.012123 
L 148.55342 23.900286 
L 149.023298 23.900286 
L 149.100377 23.341104 
L 149.253506 23.341104 
L 149.291576 22.893758 
L 149.518243 22.893758 
L 149.593139 22.670085 
L 149.630465 22.670085 
L 149.66771 22.334576 
L 149.741959 22.334576 
L 149.778964 22.110903 
L 149.999334 22.110903 
L 149.999334 21.999066 
L 150.608797 21.999066 
L 150.679098 21.775394 
L 151.060698 21.775394 
L 151.094972 21.551721 
L 151.332999 21.551721 
L 151.434009 21.328048 
L 151.733528 21.328048 
L 151.799385 21.104375 
L 151.864991 21.104375 
L 151.962932 20.880702 
L 152.124937 20.880702 
L 152.221413 20.433356 
L 152.444438 20.433356 
L 152.539141 19.874174 
L 152.758108 19.874174 
L 152.851103 19.650501 
L 152.912822 19.650501 
L 152.912822 19.538665 
L 153.035598 19.538665 
L 153.127109 18.979482 
L 153.187846 18.979482 
L 153.218134 18.755809 
L 153.398752 18.755809 
L 153.488354 18.4203 
L 153.518118 18.4203 
L 153.518118 18.308464 
L 153.636661 18.308464 
L 153.695627 18.084791 
L 153.754391 18.084791 
L 153.754391 17.972954 
L 153.871321 17.972954 
L 153.871321 17.861118 
L 154.102822 17.861118 
L 154.102822 17.749281 
L 154.416128 17.749281 
L 154.416128 17.637445 
L 154.528656 17.637445 
L 154.528656 17.413772 
L 154.640452 17.413772 
L 154.640452 17.190099 
L 154.889367 17.190099 
L 154.889367 17.078263 
L 155.080505 17.078263 
L 155.080505 16.966426 
L 155.562461 16.966426 
L 155.562461 16.85459 
L 155.693974 16.85459 
L 155.693974 16.742753 
L 155.92819 16.742753 
L 156.005559 16.407244 
L 156.462595 16.407244 
L 156.462595 16.295408 
L 156.736028 16.295408 
L 156.83439 16.071735 
L 157.317927 16.071735 
L 157.317927 15.959898 
L 157.460375 15.959898 
L 157.460375 15.848062 
L 157.718503 15.848062 
L 157.718503 15.736225 
L 158.178119 15.736225 
L 158.178119 15.624389 
L 158.779727 15.624389 
L 158.779727 15.512552 
L 158.954011 15.512552 
L 158.954011 15.400716 
L 159.083575 15.400716 
L 159.083575 15.177043 
L 159.550455 15.177043 
L 159.613149 14.95337 
L 160.167338 14.95337 
L 160.167338 14.841534 
L 160.840712 14.841534 
L 160.840712 14.729697 
L 161.053039 14.729697 
L 161.053039 14.617861 
L 161.338413 14.617861 
L 161.376107 14.394188 
L 161.986418 14.394188 
L 161.986418 14.282352 
L 162.663364 14.282352 
L 162.715689 14.058679 
L 163.230357 14.058679 
L 163.230357 13.946842 
L 164.167702 13.946842 
L 164.167702 13.835006 
L 164.327005 13.835006 
L 164.327005 13.723169 
L 165.177718 13.723169 
L 165.177718 13.611333 
L 165.988305 13.611333 
L 165.988305 13.499496 
L 166.858446 13.499496 
L 166.858446 13.38766 
L 167.264176 13.38766 
L 167.264176 13.275823 
L 167.91981 13.275823 
L 167.91981 13.163987 
L 168.943691 13.163987 
L 168.943691 13.052151 
L 169.220254 13.052151 
L 169.220254 12.940314 
L 170.473608 12.940314 
L 170.473608 12.828478 
L 170.683027 12.828478 
L 170.683027 12.716641 
L 171.094361 12.716641 
L 171.094361 12.604805 
L 172.371995 12.604805 
L 172.371995 12.492968 
L 172.73553 12.492968 
L 172.73553 12.381132 
L 174.180019 12.381132 
L 174.180019 12.269295 
L 179.131583 12.269295 
L 179.131583 12.157459 
L 182.243089 12.157459 
L 182.243089 12.045623 
L 189.834793 12.045623 
L 189.834793 11.933786 
L 333.168 11.933786 
L 333.168 11.933786 
" style="fill:none;stroke:#000080;stroke-linecap:square;stroke-width:1.5;"/>
   </g>
   <g id="line2d_44">
    <defs>
     <path d="M 0 6 
C 1.591219 6 3.117479 5.367802 4.242641 4.242641 
C 5.367802 3.117479 6 1.591219 6 0 
C 6 -1.591219 5.367802 -3.117479 4.242641 -4.242641 
C 3.117479 -5.367802 1.591219 -6 0 -6 
C -1.591219 -6 -3.117479 -5.367802 -4.242641 -4.242641 
C -5.367802 -3.117479 -6 -1.591219 -6 0 
C -6 1.591219 -5.367802 3.117479 -4.242641 4.242641 
C -3.117479 5.367802 -1.591219 6 0 6 
z
" id="me54c28241b" style="stroke:#000080;stroke-width:1.5;"/>
    </defs>
    <g>
     <use style="fill:none;stroke:#000080;stroke-width:1.5;" x="115.420563" xlink:href="#me54c28241b" y="251.263785"/>
     <use style="fill:none;stroke:#000080;stroke-width:1.5;" x="139.112104" xlink:href="#me54c28241b" y="50.964707"/>
     <use style="fill:none;stroke:#000080;stroke-width:1.5;" x="189.834793" xlink:href="#me54c28241b" y="12.045623"/>
     <use style="fill:none;stroke:#000080;stroke-width:1.5;" x="189.834793" xlink:href="#me54c28241b" y="11.933786"/>
     <use style="fill:none;stroke:#000080;stroke-width:1.5;" x="189.834793" xlink:href="#me54c28241b" y="11.933786"/>
     <use style="fill:none;stroke:#000080;stroke-width:1.5;" x="333.168" xlink:href="#me54c28241b" y="11.933786"/>
    </g>
   </g>
   <g id="line2d_45">
    <path style="fill:none;stroke:#000080;stroke-linecap:square;stroke-width:1.5;"/>
    <g/>
   </g>
   <g id="line2d_46">
    <path clip-path="url(#p0c89d25b52)" d="M 121.741249 237.396066 
" style="fill:none;stroke:#000080;stroke-linecap:square;stroke-width:1.5;"/>
    <defs>
     <path d="M -12 12 
L 12 -12 
M -12 -12 
L 12 12 
" id="m90d5373c30" style="stroke:#000080;"/>
    </defs>
    <g clip-path="url(#p0c89d25b52)">
     <use style="fill:#000080;stroke:#000080;" x="121.741249" xlink:href="#m90d5373c30" y="237.396066"/>
    </g>
   </g>
   <g id="line2d_47">
    <defs>
     <path d="M 0 1.5 
C 0.397805 1.5 0.77937 1.341951 1.06066 1.06066 
C 1.341951 0.77937 1.5 0.397805 1.5 0 
C 1.5 -0.397805 1.341951 -0.77937 1.06066 -1.06066 
C 0.77937 -1.341951 0.397805 -1.5 0 -1.5 
C -0.397805 -1.5 -0.77937 -1.341951 -1.06066 -1.06066 
C -1.341951 -0.77937 -1.5 -0.397805 -1.5 0 
C -1.5 0.397805 -1.341951 0.77937 -1.06066 1.06066 
C -0.77937 1.341951 -0.397805 1.5 0 1.5 
z
" id="m6cb71e95bd" style="stroke:#ff00ff;"/>
    </defs>
    <g>
     <use style="fill:#ff00ff;stroke:#ff00ff;" x="190.971962" xlink:href="#m6cb71e95bd" y="11.933786"/>
     <use style="fill:#ff00ff;stroke:#ff00ff;" x="190.971962" xlink:href="#m6cb71e95bd" y="11.933786"/>
    </g>
   </g>
   <g id="line2d_48">
    <path d="M 44.205749 294.88 
L 44.205749 288.169813 
L 92.904808 288.169813 
L 92.904808 287.94614 
L 93.887283 287.94614 
L 93.887283 287.722467 
L 94.816624 287.722467 
L 94.816624 287.275122 
L 95.698286 287.275122 
L 95.698286 287.051449 
L 98.100602 287.051449 
L 98.100602 286.939612 
L 99.533818 286.939612 
L 99.533818 286.715939 
L 100.207968 286.715939 
L 100.207968 286.492266 
L 102.084955 286.492266 
L 102.084955 285.933084 
L 102.667676 285.933084 
L 102.667676 285.709411 
L 103.231288 285.709411 
L 103.231288 284.81472 
L 103.777005 284.81472 
L 103.777005 284.367374 
L 104.305927 284.367374 
L 104.305927 282.689827 
L 104.819059 282.689827 
L 104.819059 281.683299 
L 105.317315 281.683299 
L 105.317315 280.341262 
L 105.801534 280.341262 
L 105.801534 279.44657 
L 106.272485 279.44657 
L 106.272485 278.775551 
L 106.730875 278.775551 
L 106.730875 278.216369 
L 107.177358 278.216369 
L 107.177358 277.992696 
L 107.612537 277.992696 
L 107.612537 276.650659 
L 108.036969 276.650659 
L 108.036969 276.426986 
L 108.451173 276.426986 
L 108.451173 274.637603 
L 108.85563 274.637603 
L 108.85563 273.854748 
L 109.250788 273.854748 
L 109.250788 273.407402 
L 109.637066 273.407402 
L 109.637066 272.51271 
L 110.014853 272.51271 
L 110.014853 271.953528 
L 110.384516 271.953528 
L 110.384516 271.058837 
L 110.746395 271.058837 
L 110.746395 269.940472 
L 111.100812 269.940472 
L 111.100812 269.04578 
L 111.448069 269.04578 
L 111.448069 268.486598 
L 111.788449 268.486598 
L 111.788449 267.48007 
L 112.122219 267.48007 
L 112.122219 266.809052 
L 112.449632 266.809052 
L 112.449632 265.243341 
L 112.770924 265.243341 
L 112.770924 264.684159 
L 113.086321 264.684159 
L 113.086321 262.335594 
L 113.396034 262.335594 
L 113.396034 260.434374 
L 113.700266 260.434374 
L 113.700266 257.862136 
L 113.999206 257.862136 
L 113.999206 255.51357 
L 114.293036 255.51357 
L 114.293036 254.395206 
L 114.581927 254.395206 
L 114.581927 254.059696 
L 114.866043 254.059696 
L 114.866043 253.276841 
L 115.145539 253.276841 
L 115.145539 252.158477 
L 115.420563 252.158477 
L 115.420563 251.934804 
L 115.691256 251.934804 
L 115.691256 250.928276 
L 115.957752 250.928276 
L 115.957752 249.698075 
L 116.220179 249.698075 
L 116.220179 248.691547 
L 116.478659 248.691547 
L 116.478659 248.244201 
L 116.73331 248.244201 
L 116.73331 247.461346 
L 116.984244 247.461346 
L 116.984244 247.125837 
L 117.231566 247.125837 
L 117.231566 247.014 
L 117.475381 247.014 
L 117.475381 245.783799 
L 117.715785 245.783799 
L 117.715785 245.671963 
L 117.952873 245.671963 
L 117.952873 245.000944 
L 118.417459 245.000944 
L 118.417459 244.777271 
L 118.645127 244.777271 
L 118.645127 244.329925 
L 118.869818 244.329925 
L 118.869818 243.994416 
L 119.09161 243.994416 
L 119.09161 243.770743 
L 119.310576 243.770743 
L 119.310576 243.435234 
L 119.526788 243.435234 
L 119.526788 242.540542 
L 119.740314 242.540542 
L 119.740314 242.316869 
L 119.95122 242.316869 
L 119.95122 241.310341 
L 120.15957 241.310341 
L 120.15957 240.527486 
L 120.365424 240.527486 
L 120.365424 240.08014 
L 120.568842 240.08014 
L 120.568842 239.968304 
L 120.769881 239.968304 
L 120.769881 239.744631 
L 121.16504 239.744631 
L 121.16504 239.185449 
L 121.359263 239.185449 
L 121.359263 239.073612 
L 121.551317 239.073612 
L 121.551317 238.738103 
L 121.741249 238.738103 
L 121.741249 237.843411 
L 121.929105 237.843411 
L 121.929105 237.172393 
L 122.114929 237.172393 
L 122.114929 236.165865 
L 122.298767 236.165865 
L 122.298767 235.606682 
L 122.480659 235.606682 
L 122.480659 235.0475 
L 122.660646 235.0475 
L 122.660646 234.264645 
L 122.838768 234.264645 
L 122.838768 233.369954 
L 123.015063 233.369954 
L 123.015063 232.363425 
L 123.189569 232.363425 
L 123.189569 231.356897 
L 123.36232 231.356897 
L 123.36232 230.909552 
L 123.533353 230.909552 
L 123.533353 230.01486 
L 123.7027 230.01486 
L 123.7027 229.343841 
L 123.870396 229.343841 
L 123.870396 228.560986 
L 124.036471 228.560986 
L 124.036471 227.889968 
L 124.200956 227.889968 
L 124.200956 227.107112 
L 124.363883 227.107112 
L 124.363883 226.659767 
L 124.52528 226.659767 
L 124.52528 226.212421 
L 124.685175 226.212421 
L 124.685175 225.765075 
L 124.843597 225.765075 
L 124.843597 224.646711 
L 125.000572 224.646711 
L 125.000572 223.304673 
L 125.156126 223.304673 
L 125.156126 221.627126 
L 125.310285 221.627126 
L 125.310285 219.94958 
L 125.463074 219.94958 
L 125.463074 218.160197 
L 125.614517 218.160197 
L 125.614517 217.265505 
L 125.764637 217.265505 
L 125.764637 215.476122 
L 125.913457 215.476122 
L 125.913457 214.58143 
L 126.061 214.58143 
L 126.061 212.792047 
L 126.207287 212.792047 
L 126.207287 211.673683 
L 126.352339 211.673683 
L 126.352339 210.555318 
L 126.496178 210.555318 
L 126.496178 208.765935 
L 126.638823 208.765935 
L 126.638823 207.98308 
L 126.780294 207.98308 
L 126.780294 205.634514 
L 126.92061 205.634514 
L 126.92061 203.733295 
L 127.05979 203.733295 
L 127.05979 201.832075 
L 127.197852 201.832075 
L 127.197852 199.819019 
L 127.334814 199.819019 
L 127.334814 197.470454 
L 127.470694 197.470454 
L 127.470694 195.010052 
L 127.605507 195.010052 
L 127.605507 193.779851 
L 127.739271 193.779851 
L 127.739271 192.437813 
L 127.872003 192.437813 
L 127.872003 189.530066 
L 128.003717 189.530066 
L 128.003717 187.964356 
L 128.13443 187.964356 
L 128.13443 185.951299 
L 128.264156 185.951299 
L 128.264156 183.938243 
L 128.39291 183.938243 
L 128.39291 183.490898 
L 128.520707 183.490898 
L 128.520707 181.589678 
L 128.647561 181.589678 
L 128.647561 179.688458 
L 128.773486 179.688458 
L 128.773486 177.451729 
L 128.898495 177.451729 
L 128.898495 175.886019 
L 129.022601 175.886019 
L 129.022601 172.754599 
L 129.145817 172.754599 
L 129.145817 170.741543 
L 129.268157 170.741543 
L 129.268157 168.504814 
L 129.389632 168.504814 
L 129.389632 166.379921 
L 129.510254 166.379921 
L 129.510254 165.261557 
L 129.630036 165.261557 
L 129.630036 164.366865 
L 129.748989 164.366865 
L 129.748989 162.353809 
L 129.867125 162.353809 
L 129.867125 160.11708 
L 129.984454 160.11708 
L 129.984454 158.775043 
L 130.100987 158.775043 
L 130.100987 156.426477 
L 130.216736 156.426477 
L 130.216736 153.742402 
L 130.33171 153.742402 
L 130.33171 151.058328 
L 130.445921 151.058328 
L 130.445921 150.163636 
L 130.559378 150.163636 
L 130.559378 148.486089 
L 130.67209 148.486089 
L 130.67209 144.571814 
L 130.784069 144.571814 
L 130.784069 142.446921 
L 130.895323 142.446921 
L 131.005861 138.420809 
L 131.115693 138.420809 
L 131.224827 135.289388 
L 131.333273 135.289388 
L 131.441039 129.25022 
L 131.548134 129.25022 
L 131.654565 125.895127 
L 131.760342 125.895127 
L 131.865471 121.869015 
L 131.969962 121.869015 
L 132.073821 118.961267 
L 132.177056 118.961267 
L 132.279675 116.277192 
L 132.381685 116.277192 
L 132.483094 113.369445 
L 132.583907 113.369445 
L 132.684132 109.11966 
L 132.783777 109.11966 
L 132.882847 105.205384 
L 132.98135 105.205384 
L 133.079291 102.521309 
L 133.176677 102.521309 
L 133.273515 98.71887 
L 133.36981 98.71887 
L 133.465568 96.593977 
L 133.560797 96.593977 
L 133.6555 94.692758 
L 133.749684 94.692758 
L 133.843356 92.120519 
L 133.936519 92.120519 
L 134.029181 90.107463 
L 134.121345 90.107463 
L 134.213018 88.31808 
L 134.304205 88.31808 
L 134.39491 86.75237 
L 134.485139 86.75237 
L 134.574897 85.074823 
L 134.664189 85.074823 
L 134.753019 83.732786 
L 134.841393 83.732786 
L 134.929315 82.502585 
L 135.016789 82.502585 
L 135.10382 80.825038 
L 135.190413 80.825038 
L 135.276571 80.15402 
L 135.3623 80.15402 
L 135.447604 79.035655 
L 135.532486 79.035655 
L 135.616951 78.029127 
L 135.701004 78.029127 
L 135.784647 76.35158 
L 135.867885 76.35158 
L 135.950722 74.674034 
L 136.033161 74.674034 
L 136.115208 73.779342 
L 136.196864 73.779342 
L 136.278134 72.325468 
L 136.359022 72.325468 
L 136.439531 71.207104 
L 136.519665 71.207104 
L 136.599426 69.529557 
L 136.67882 69.529557 
L 136.757848 67.516501 
L 136.836515 67.516501 
L 136.914823 66.733646 
L 136.992776 66.733646 
L 137.070377 65.727118 
L 137.14763 65.727118 
L 137.224536 64.049571 
L 137.301101 64.049571 
L 137.377325 62.483861 
L 137.453213 62.483861 
L 137.528768 61.029987 
L 137.603992 61.029987 
L 137.678888 60.135295 
L 137.753459 60.135295 
L 137.827708 58.905094 
L 137.901638 58.905094 
L 137.975251 57.674893 
L 138.04855 57.674893 
L 138.121538 56.668365 
L 138.194217 56.668365 
L 138.266591 55.88551 
L 138.33866 55.88551 
L 138.410429 55.214492 
L 138.4819 55.214492 
L 138.553074 53.984291 
L 138.623956 53.984291 
L 138.694545 53.313272 
L 138.764847 53.313272 
L 138.834862 51.859398 
L 138.904592 51.859398 
L 138.904592 51.523889 
L 139.043211 51.523889 
L 139.112104 50.741034 
L 139.180721 50.741034 
L 139.249066 49.622669 
L 139.317139 49.622669 
L 139.384945 48.727978 
L 139.452484 48.727978 
L 139.519758 47.72145 
L 139.586771 47.72145 
L 139.653523 47.162267 
L 139.720016 47.162267 
L 139.720016 46.714921 
L 139.852237 46.714921 
L 139.917968 46.043903 
L 139.983449 46.043903 
L 140.048681 45.149211 
L 140.113666 45.149211 
L 140.178407 44.478193 
L 140.242905 44.478193 
L 140.307161 44.142683 
L 140.371179 44.142683 
L 140.434959 43.695337 
L 140.498503 43.695337 
L 140.561812 43.247992 
L 140.62489 43.247992 
L 140.687737 42.688809 
L 140.750355 42.688809 
L 140.812746 42.3533 
L 140.936852 42.3533 
L 140.998571 42.017791 
L 141.060069 42.017791 
L 141.060069 41.905954 
L 141.182408 41.905954 
L 141.243253 41.682281 
L 141.303883 41.682281 
L 141.3643 41.234936 
L 141.424506 41.234936 
L 141.484501 40.675753 
L 141.544287 40.675753 
L 141.544287 40.340244 
L 141.66324 40.340244 
L 141.72241 40.004735 
L 141.781376 40.004735 
L 141.781376 39.781062 
L 141.898705 39.781062 
L 141.95707 38.88637 
L 142.015238 38.88637 
L 142.07321 38.439024 
L 142.18857 38.439024 
L 142.245962 37.544333 
L 142.303162 37.544333 
L 142.360172 36.985151 
L 142.416994 36.985151 
L 142.473629 36.425968 
L 142.530078 36.425968 
L 142.586342 35.866786 
L 142.642422 35.866786 
L 142.642422 35.75495 
L 142.754037 35.75495 
L 142.864932 34.972094 
L 142.920112 34.972094 
L 143.029944 34.077403 
L 143.084598 34.077403 
L 143.139078 33.741894 
L 143.301492 33.741894 
L 143.35529 33.406384 
L 143.462385 33.406384 
L 143.568817 32.399856 
L 143.621786 32.399856 
L 143.727238 32.176183 
L 143.779723 32.176183 
L 143.832047 31.617001 
L 143.988072 31.617001 
L 144.091308 31.057819 
L 144.142694 31.057819 
L 144.245007 30.610473 
L 144.295937 30.610473 
L 144.397345 30.3868 
L 144.498158 30.3868 
L 144.498158 30.274964 
L 144.698028 30.274964 
L 144.797098 29.715781 
L 145.042304 29.715781 
L 145.090928 29.380272 
L 145.235981 29.380272 
L 145.235981 29.156599 
L 145.37982 29.156599 
L 145.475048 28.261908 
L 145.522465 28.261908 
L 145.616908 27.814562 
L 145.804252 27.814562 
L 145.897164 27.479052 
L 145.943432 27.479052 
L 145.943432 27.367216 
L 146.081494 27.367216 
L 146.172923 27.031707 
L 146.218456 27.031707 
L 146.263868 26.808034 
L 146.489148 26.808034 
L 146.533852 26.472524 
L 146.622913 26.472524 
L 146.667271 26.248851 
L 146.755644 26.248851 
L 146.843566 25.913342 
L 146.887358 25.913342 
L 146.974611 25.689669 
L 147.190823 25.689669 
L 147.276552 25.35416 
L 147.489022 25.35416 
L 147.57328 25.130487 
L 147.657127 25.130487 
L 147.657127 24.906814 
L 147.823604 24.906814 
L 147.823604 24.794978 
L 147.947413 24.794978 
L 147.988485 24.347632 
L 148.273273 24.347632 
L 148.313575 24.123959 
L 148.393896 24.123959 
L 148.393896 24.012123 
L 148.593071 24.012123 
L 148.63263 23.45294 
L 148.711478 23.45294 
L 148.711478 23.229267 
L 148.829074 23.229267 
L 148.829074 23.117431 
L 149.291576 23.117431 
L 149.291576 23.005594 
L 149.405283 23.005594 
L 149.405283 22.893758 
L 149.518243 22.893758 
L 149.518243 22.781922 
L 149.630465 22.781922 
L 149.630465 22.670085 
L 150.035789 22.670085 
L 150.035789 22.558249 
L 150.573538 22.558249 
L 150.573538 22.446412 
L 150.818844 22.446412 
L 150.818844 22.334576 
L 151.733528 22.334576 
L 151.733528 22.222739 
L 151.8977 22.222739 
L 151.8977 22.110903 
L 152.060318 22.110903 
L 152.060318 21.999066 
L 152.412754 21.999066 
L 152.507631 21.775394 
L 152.601988 21.775394 
L 152.69583 21.439884 
L 152.758108 21.439884 
L 152.851103 21.104375 
L 152.912822 21.104375 
L 152.912822 20.992538 
L 153.035598 20.992538 
L 153.127109 20.545193 
L 153.157504 20.545193 
L 153.187846 20.209683 
L 153.338757 20.209683 
L 153.338757 20.097847 
L 153.458539 20.097847 
L 153.518118 19.874174 
L 153.754391 19.874174 
L 153.842163 19.650501 
L 153.871321 19.650501 
L 153.929489 19.314992 
L 154.016374 19.314992 
L 154.074054 19.091319 
L 154.416128 19.091319 
L 154.416128 18.979482 
L 154.971544 18.979482 
L 155.026111 18.532137 
L 155.269542 18.532137 
L 155.323172 18.308464 
L 155.403306 18.308464 
L 155.456522 17.972954 
L 155.562461 17.972954 
L 155.667752 17.749281 
L 155.693974 17.749281 
L 155.746298 17.525609 
L 155.876417 17.525609 
L 155.954019 17.301936 
L 156.5376 17.301936 
L 156.562529 17.078263 
L 156.785279 17.078263 
L 156.83439 16.85459 
L 157.198312 16.85459 
L 157.198312 16.742753 
L 157.341751 16.742753 
L 157.436716 16.51908 
L 157.554689 16.51908 
L 157.554689 16.407244 
L 158.155428 16.407244 
L 158.155428 16.295408 
L 158.470412 16.295408 
L 158.470412 16.183571 
L 159.040495 16.183571 
L 159.040495 16.071735 
L 159.403273 16.071735 
L 159.403273 15.959898 
L 159.799871 15.959898 
L 159.799871 15.848062 
L 160.066049 15.848062 
L 160.066049 15.736225 
L 160.187524 15.736225 
L 160.187524 15.624389 
L 160.665017 15.624389 
L 160.665017 15.512552 
L 160.840712 15.512552 
L 160.937549 15.28888 
L 161.803753 15.28888 
L 161.913585 15.065207 
L 161.95004 15.065207 
L 161.986418 14.841534 
L 162.185133 14.841534 
L 162.185133 14.729697 
L 162.328224 14.729697 
L 162.328224 14.617861 
L 162.505428 14.617861 
L 162.505428 14.394188 
L 162.767854 14.394188 
L 162.767854 14.282352 
L 162.992095 14.282352 
L 162.992095 14.170515 
L 163.398544 14.170515 
L 163.398544 14.058679 
L 163.925945 14.058679 
L 163.942169 13.835006 
L 164.231601 13.835006 
L 164.231601 13.723169 
L 164.469126 13.723169 
L 164.469126 13.611333 
L 164.94985 13.611333 
L 164.94985 13.499496 
L 165.432369 13.499496 
L 165.432369 13.38766 
L 165.800133 13.38766 
L 165.843741 13.163987 
L 165.988305 13.163987 
L 165.988305 13.052151 
L 169.386444 13.052151 
L 169.386444 12.940314 
L 170.115032 12.940314 
L 170.115032 12.828478 
L 170.562096 12.828478 
L 170.562096 12.716641 
L 172.091685 12.716641 
L 172.091685 12.604805 
L 174.83766 12.604805 
L 174.83766 12.492968 
L 179.304937 12.492968 
L 179.304937 12.381132 
L 179.633476 12.381132 
L 179.633476 12.269295 
L 180.496579 12.269295 
L 180.496579 12.157459 
L 189.111534 12.157459 
L 189.111534 12.045623 
L 190.971962 12.045623 
L 190.971962 11.933786 
L 333.168 11.933786 
L 333.168 11.933786 
" style="fill:none;stroke:#ff00ff;stroke-linecap:square;stroke-width:1.5;"/>
   </g>
   <g id="line2d_49">
    <defs>
     <path d="M -0 8.485281 
L 5.091169 0 
L 0 -8.485281 
L -5.091169 -0 
z
" id="m64573530de" style="stroke:#ff00ff;stroke-linejoin:miter;stroke-width:1.5;"/>
    </defs>
    <g>
     <use style="fill:none;stroke:#ff00ff;stroke-linejoin:miter;stroke-width:1.5;" x="119.95122" xlink:href="#m64573530de" y="241.310341"/>
     <use style="fill:none;stroke:#ff00ff;stroke-linejoin:miter;stroke-width:1.5;" x="133.176677" xlink:href="#m64573530de" y="100.060907"/>
     <use style="fill:none;stroke:#ff00ff;stroke-linejoin:miter;stroke-width:1.5;" x="180.496579" xlink:href="#m64573530de" y="12.157459"/>
     <use style="fill:none;stroke:#ff00ff;stroke-linejoin:miter;stroke-width:1.5;" x="190.971962" xlink:href="#m64573530de" y="11.933786"/>
     <use style="fill:none;stroke:#ff00ff;stroke-linejoin:miter;stroke-width:1.5;" x="190.971962" xlink:href="#m64573530de" y="11.933786"/>
     <use style="fill:none;stroke:#ff00ff;stroke-linejoin:miter;stroke-width:1.5;" x="333.168" xlink:href="#m64573530de" y="11.933786"/>
    </g>
   </g>
   <g id="line2d_50">
    <path style="fill:none;stroke:#ff00ff;stroke-linecap:square;stroke-width:1.5;"/>
    <g/>
   </g>
   <g id="line2d_51">
    <path clip-path="url(#p0c89d25b52)" d="M 121.741249 237.843411 
" style="fill:none;stroke:#ff00ff;stroke-linecap:square;stroke-width:1.5;"/>
    <defs>
     <path d="M -12 12 
L 12 -12 
M -12 -12 
L 12 12 
" id="mbea3e8d114" style="stroke:#ff00ff;"/>
    </defs>
    <g clip-path="url(#p0c89d25b52)">
     <use style="fill:#ff00ff;stroke:#ff00ff;" x="121.741249" xlink:href="#mbea3e8d114" y="237.843411"/>
    </g>
   </g>
   <g id="line2d_52">
    <path d="M 333.168 11.933786 
L 363.64328 289.176341 
" style="fill:none;stroke:#ff00ff;stroke-linecap:square;stroke-width:1.5;"/>
    <g>
     <use style="fill:none;stroke:#ff00ff;stroke-linejoin:miter;stroke-width:1.5;" x="333.168" xlink:href="#m64573530de" y="11.933786"/>
     <use style="fill:none;stroke:#ff00ff;stroke-linejoin:miter;stroke-width:1.5;" x="363.64328" xlink:href="#m64573530de" y="289.176341"/>
    </g>
   </g>
   <g id="line2d_53">
    <path d="M 333.168 11.933786 
L 363.64328 152.288529 
" style="fill:none;stroke:#000080;stroke-linecap:square;stroke-width:1.5;"/>
    <g>
     <use style="fill:none;stroke:#000080;stroke-width:1.5;" x="333.168" xlink:href="#me54c28241b" y="11.933786"/>
     <use style="fill:none;stroke:#000080;stroke-width:1.5;" x="363.64328" xlink:href="#me54c28241b" y="152.288529"/>
    </g>
   </g>
   <g id="line2d_54">
    <path d="M 333.168 294.88 
L 333.168 9.697057 
" style="fill:none;stroke:#000000;stroke-linecap:square;stroke-width:1.5;"/>
   </g>
   <g id="patch_3">
    <path d="M 56.12 294.88 
L 56.12 6.845228 
" style="fill:none;stroke:#000000;stroke-linecap:square;stroke-linejoin:miter;stroke-width:0.8;"/>
   </g>
   <g id="patch_4">
    <path d="M 333.168 294.88 
L 333.168 6.845228 
" style="fill:none;stroke:#000000;stroke-linecap:square;stroke-linejoin:miter;stroke-width:0.8;"/>
   </g>
   <g id="patch_5">
    <path d="M 56.12 294.88 
L 333.168 294.88 
" style="fill:none;stroke:#000000;stroke-linecap:square;stroke-linejoin:miter;stroke-width:0.8;"/>
   </g>
   <g id="patch_6">
    <path d="M 56.12 6.845228 
L 333.168 6.845228 
" style="fill:none;stroke:#000000;stroke-linecap:square;stroke-linejoin:miter;stroke-width:0.8;"/>
   </g>
   <g id="text_13">
    <!-- scipy-opt -->
    <defs>
     <path d="M 32.171875 -5.078125 
Q 28.375 -14.84375 24.75 -17.8125 
Q 21.140625 -20.796875 15.09375 -20.796875 
L 7.90625 -20.796875 
L 7.90625 -13.28125 
L 13.1875 -13.28125 
Q 16.890625 -13.28125 18.9375 -11.515625 
Q 21 -9.765625 23.484375 -3.21875 
L 25.09375 0.875 
L 2.984375 54.6875 
L 12.5 54.6875 
L 29.59375 11.921875 
L 46.6875 54.6875 
L 56.203125 54.6875 
z
" id="DejaVuSans-79"/>
    </defs>
    <g transform="translate(369.18424 293.867279)scale(0.17 -0.17)">
     <use xlink:href="#DejaVuSans-73"/>
     <use x="52.099609" xlink:href="#DejaVuSans-63"/>
     <use x="107.080078" xlink:href="#DejaVuSans-69"/>
     <use x="134.863281" xlink:href="#DejaVuSans-70"/>
     <use x="198.339844" xlink:href="#DejaVuSans-79"/>
     <use x="257.503906" xlink:href="#DejaVuSans-2d"/>
     <use x="293.603516" xlink:href="#DejaVuSans-6f"/>
     <use x="354.785156" xlink:href="#DejaVuSans-70"/>
     <use x="418.261719" xlink:href="#DejaVuSans-74"/>
    </g>
   </g>
   <g id="text_14">
    <!-- scipyAlg -->
    <defs>
     <path d="M 34.1875 63.1875 
L 20.796875 26.90625 
L 47.609375 26.90625 
z
M 28.609375 72.90625 
L 39.796875 72.90625 
L 67.578125 0 
L 57.328125 0 
L 50.6875 18.703125 
L 17.828125 18.703125 
L 11.1875 0 
L 0.78125 0 
z
" id="DejaVuSans-41"/>
    </defs>
    <g transform="translate(369.18424 156.979466)scale(0.17 -0.17)">
     <use xlink:href="#DejaVuSans-73"/>
     <use x="52.099609" xlink:href="#DejaVuSans-63"/>
     <use x="107.080078" xlink:href="#DejaVuSans-69"/>
     <use x="134.863281" xlink:href="#DejaVuSans-70"/>
     <use x="198.339844" xlink:href="#DejaVuSans-79"/>
     <use x="257.519531" xlink:href="#DejaVuSans-41"/>
     <use x="325.927734" xlink:href="#DejaVuSans-6c"/>
     <use x="353.710938" xlink:href="#DejaVuSans-67"/>
    </g>
   </g>
   <g id="text_15">
    <!-- best 2009 -->
    <defs>
     <path d="M 48.6875 27.296875 
Q 48.6875 37.203125 44.609375 42.84375 
Q 40.53125 48.484375 33.40625 48.484375 
Q 26.265625 48.484375 22.1875 42.84375 
Q 18.109375 37.203125 18.109375 27.296875 
Q 18.109375 17.390625 22.1875 11.75 
Q 26.265625 6.109375 33.40625 6.109375 
Q 40.53125 6.109375 44.609375 11.75 
Q 48.6875 17.390625 48.6875 27.296875 
z
M 18.109375 46.390625 
Q 20.953125 51.265625 25.265625 53.625 
Q 29.59375 56 35.59375 56 
Q 45.5625 56 51.78125 48.09375 
Q 58.015625 40.1875 58.015625 27.296875 
Q 58.015625 14.40625 51.78125 6.484375 
Q 45.5625 -1.421875 35.59375 -1.421875 
Q 29.59375 -1.421875 25.265625 0.953125 
Q 20.953125 3.328125 18.109375 8.203125 
L 18.109375 0 
L 9.078125 0 
L 9.078125 75.984375 
L 18.109375 75.984375 
z
" id="DejaVuSans-62"/>
     <path d="M 10.984375 1.515625 
L 10.984375 10.5 
Q 14.703125 8.734375 18.5 7.8125 
Q 22.3125 6.890625 25.984375 6.890625 
Q 35.75 6.890625 40.890625 13.453125 
Q 46.046875 20.015625 46.78125 33.40625 
Q 43.953125 29.203125 39.59375 26.953125 
Q 35.25 24.703125 29.984375 24.703125 
Q 19.046875 24.703125 12.671875 31.3125 
Q 6.296875 37.9375 6.296875 49.421875 
Q 6.296875 60.640625 12.9375 67.421875 
Q 19.578125 74.21875 30.609375 74.21875 
Q 43.265625 74.21875 49.921875 64.515625 
Q 56.59375 54.828125 56.59375 36.375 
Q 56.59375 19.140625 48.40625 8.859375 
Q 40.234375 -1.421875 26.421875 -1.421875 
Q 22.703125 -1.421875 18.890625 -0.6875 
Q 15.09375 0.046875 10.984375 1.515625 
z
M 30.609375 32.421875 
Q 37.25 32.421875 41.125 36.953125 
Q 45.015625 41.5 45.015625 49.421875 
Q 45.015625 57.28125 41.125 61.84375 
Q 37.25 66.40625 30.609375 66.40625 
Q 23.96875 66.40625 20.09375 61.84375 
Q 16.21875 57.28125 16.21875 49.421875 
Q 16.21875 41.5 20.09375 36.953125 
Q 23.96875 32.421875 30.609375 32.421875 
z
" id="DejaVuSans-39"/>
    </defs>
    <g transform="translate(369.18424 20.091654)scale(0.17 -0.17)">
     <use xlink:href="#DejaVuSans-62"/>
     <use x="63.476562" xlink:href="#DejaVuSans-65"/>
     <use x="125" xlink:href="#DejaVuSans-73"/>
     <use x="177.099609" xlink:href="#DejaVuSans-74"/>
     <use x="216.308594" xlink:href="#DejaVuSans-20"/>
     <use x="248.095703" xlink:href="#DejaVuSans-32"/>
     <use x="311.71875" xlink:href="#DejaVuSans-30"/>
     <use x="375.341797" xlink:href="#DejaVuSans-30"/>
     <use x="438.964844" xlink:href="#DejaVuSans-39"/>
    </g>
   </g>
   <g id="text_16">
    <!-- bbob f10-f14, 2-D -->
    <defs>
     <path d="M 19.671875 64.796875 
L 19.671875 8.109375 
L 31.59375 8.109375 
Q 46.6875 8.109375 53.6875 14.9375 
Q 60.6875 21.78125 60.6875 36.53125 
Q 60.6875 51.171875 53.6875 57.984375 
Q 46.6875 64.796875 31.59375 64.796875 
z
M 9.8125 72.90625 
L 30.078125 72.90625 
Q 51.265625 72.90625 61.171875 64.09375 
Q 71.09375 55.28125 71.09375 36.53125 
Q 71.09375 17.671875 61.125 8.828125 
Q 51.171875 0 30.078125 0 
L 9.8125 0 
z
" id="DejaVuSans-44"/>
    </defs>
    <g transform="translate(58.89048 17.475982)scale(0.102 -0.102)">
     <use xlink:href="#DejaVuSans-62"/>
     <use x="63.476562" xlink:href="#DejaVuSans-62"/>
     <use x="126.953125" xlink:href="#DejaVuSans-6f"/>
     <use x="188.134766" xlink:href="#DejaVuSans-62"/>
     <use x="251.611328" xlink:href="#DejaVuSans-20"/>
     <use x="283.398438" xlink:href="#DejaVuSans-66"/>
     <use x="318.603516" xlink:href="#DejaVuSans-31"/>
     <use x="382.226562" xlink:href="#DejaVuSans-30"/>
     <use x="445.849609" xlink:href="#DejaVuSans-2d"/>
     <use x="481.933594" xlink:href="#DejaVuSans-66"/>
     <use x="517.138672" xlink:href="#DejaVuSans-31"/>
     <use x="580.761719" xlink:href="#DejaVuSans-34"/>
     <use x="644.384766" xlink:href="#DejaVuSans-2c"/>
     <use x="676.171875" xlink:href="#DejaVuSans-20"/>
     <use x="707.958984" xlink:href="#DejaVuSans-32"/>
     <use x="771.582031" xlink:href="#DejaVuSans-2d"/>
     <use x="807.666016" xlink:href="#DejaVuSans-44"/>
    </g>
    <!-- 51 targets: 100..1e-08 -->
    <defs>
     <path d="M 10.796875 72.90625 
L 49.515625 72.90625 
L 49.515625 64.59375 
L 19.828125 64.59375 
L 19.828125 46.734375 
Q 21.96875 47.46875 24.109375 47.828125 
Q 26.265625 48.1875 28.421875 48.1875 
Q 40.625 48.1875 47.75 41.5 
Q 54.890625 34.8125 54.890625 23.390625 
Q 54.890625 11.625 47.5625 5.09375 
Q 40.234375 -1.421875 26.90625 -1.421875 
Q 22.3125 -1.421875 17.546875 -0.640625 
Q 12.796875 0.140625 7.71875 1.703125 
L 7.71875 11.625 
Q 12.109375 9.234375 16.796875 8.0625 
Q 21.484375 6.890625 26.703125 6.890625 
Q 35.15625 6.890625 40.078125 11.328125 
Q 45.015625 15.765625 45.015625 23.390625 
Q 45.015625 31 40.078125 35.4375 
Q 35.15625 39.890625 26.703125 39.890625 
Q 22.75 39.890625 18.8125 39.015625 
Q 14.890625 38.140625 10.796875 36.28125 
z
" id="DejaVuSans-35"/>
     <path d="M 11.71875 12.40625 
L 22.015625 12.40625 
L 22.015625 0 
L 11.71875 0 
z
M 11.71875 51.703125 
L 22.015625 51.703125 
L 22.015625 39.3125 
L 11.71875 39.3125 
z
" id="DejaVuSans-3a"/>
    </defs>
    <g transform="translate(58.89048 28.89775)scale(0.102 -0.102)">
     <use xlink:href="#DejaVuSans-35"/>
     <use x="63.623047" xlink:href="#DejaVuSans-31"/>
     <use x="127.246094" xlink:href="#DejaVuSans-20"/>
     <use x="159.033203" xlink:href="#DejaVuSans-74"/>
     <use x="198.242188" xlink:href="#DejaVuSans-61"/>
     <use x="259.521484" xlink:href="#DejaVuSans-72"/>
     <use x="300.619141" xlink:href="#DejaVuSans-67"/>
     <use x="364.095703" xlink:href="#DejaVuSans-65"/>
     <use x="425.619141" xlink:href="#DejaVuSans-74"/>
     <use x="464.828125" xlink:href="#DejaVuSans-73"/>
     <use x="516.927734" xlink:href="#DejaVuSans-3a"/>
     <use x="550.619141" xlink:href="#DejaVuSans-20"/>
     <use x="582.40625" xlink:href="#DejaVuSans-31"/>
     <use x="646.029297" xlink:href="#DejaVuSans-30"/>
     <use x="709.652344" xlink:href="#DejaVuSans-30"/>
     <use x="773.275391" xlink:href="#DejaVuSans-2e"/>
     <use x="805.0625" xlink:href="#DejaVuSans-2e"/>
     <use x="836.849609" xlink:href="#DejaVuSans-31"/>
     <use x="900.472656" xlink:href="#DejaVuSans-65"/>
     <use x="961.996094" xlink:href="#DejaVuSans-2d"/>
     <use x="998.080078" xlink:href="#DejaVuSans-30"/>
     <use x="1061.703125" xlink:href="#DejaVuSans-38"/>
    </g>
    <!-- 15 instances -->
    <g transform="translate(58.89048 40.319519)scale(0.102 -0.102)">
     <use xlink:href="#DejaVuSans-31"/>
     <use x="63.623047" xlink:href="#DejaVuSans-35"/>
     <use x="127.246094" xlink:href="#DejaVuSans-20"/>
     <use x="159.033203" xlink:href="#DejaVuSans-69"/>
     <use x="186.816406" xlink:href="#DejaVuSans-6e"/>
     <use x="250.195312" xlink:href="#DejaVuSans-73"/>
     <use x="302.294922" xlink:href="#DejaVuSans-74"/>
     <use x="341.503906" xlink:href="#DejaVuSans-61"/>
     <use x="402.783203" xlink:href="#DejaVuSans-6e"/>
     <use x="466.162109" xlink:href="#DejaVuSans-63"/>
     <use x="521.142578" xlink:href="#DejaVuSans-65"/>
     <use x="582.666016" xlink:href="#DejaVuSans-73"/>
    </g>
   </g>
   <g id="text_17">
    <!-- v0.0.0 -->
    <g style="fill:#808080;" transform="translate(178.96275 289.919965)scale(0.1 -0.1)">
     <use xlink:href="#DejaVuSans-76"/>
     <use x="59.179688" xlink:href="#DejaVuSans-30"/>
     <use x="122.802734" xlink:href="#DejaVuSans-2e"/>
     <use x="154.589844" xlink:href="#DejaVuSans-30"/>
     <use x="218.212891" xlink:href="#DejaVuSans-2e"/>
     <use x="250" xlink:href="#DejaVuSans-30"/>
    </g>
   </g>
  </g>
 </g>
 <defs>
  <clipPath id="p0c89d25b52">
   <rect height="288.034772" width="277.048" x="56.12" y="6.845228"/>
  </clipPath>
 </defs>
</svg>
