<?xml version="1.0" encoding="utf-8" standalone="no"?>
<!DOCTYPE svg PUBLIC "-//W3C//DTD SVG 1.1//EN"
  "http://www.w3.org/Graphics/SVG/1.1/DTD/svg11.dtd">
<!-- Created with matplotlib (http://matplotlib.org/) -->
<svg height="345pt" version="1.1" viewBox="0 0 460 345" width="460pt" xmlns="http://www.w3.org/2000/svg" xmlns:xlink="http://www.w3.org/1999/xlink">
 <defs>
  <style type="text/css">
*{stroke-linecap:butt;stroke-linejoin:round;}
  </style>
 </defs>
 <g id="figure_1">
  <g id="patch_1">
   <path d="M 0 345.6 
L 460.8 345.6 
L 460.8 0 
L 0 0 
z
" style="fill:#ffffff;"/>
  </g>
  <g id="axes_1">
   <g id="patch_2">
    <path d="M 56.12 294.88 
L 333.168 294.88 
L 333.168 6.845228 
L 56.12 6.845228 
z
" style="fill:#ffffff;"/>
   </g>
   <g id="line2d_1">
    <path d="M 44.205749 294.88 
L 44.205749 283.696355 
L 56.12 283.696355 
L 56.12 278.104533 
L 63.08939 278.104533 
L 63.08939 274.749439 
L 68.034251 274.749439 
L 68.034251 222.186309 
L 71.869783 222.186309 
L 71.869783 219.94958 
L 75.003641 219.94958 
L 75.003641 174.096636 
L 77.653281 174.096636 
L 77.653281 172.978271 
L 79.948502 172.978271 
L 79.948502 171.859907 
L 83.784035 171.859907 
L 83.784035 170.741543 
L 86.917893 170.741543 
L 86.917893 169.623178 
L 88.293717 169.623178 
L 88.293717 168.504814 
L 89.567532 168.504814 
L 89.567532 167.386449 
L 90.753425 167.386449 
L 90.753425 164.031356 
L 91.862754 164.031356 
L 91.862754 162.912991 
L 93.887283 162.912991 
L 93.887283 161.794627 
L 94.816624 161.794627 
L 94.816624 157.321169 
L 95.698286 157.321169 
L 95.698286 155.08444 
L 97.336537 155.08444 
L 97.336537 152.847711 
L 98.832144 152.847711 
L 98.832144 149.492617 
L 99.533818 149.492617 
L 99.533818 141.664066 
L 100.207968 141.664066 
L 100.207968 132.71715 
L 100.856673 132.71715 
L 100.856673 127.125328 
L 101.481783 127.125328 
L 101.481783 117.060047 
L 102.084955 117.060047 
L 102.084955 111.468225 
L 102.667676 111.468225 
L 102.667676 106.994767 
L 108.85563 106.994767 
L 108.85563 105.876403 
L 125.310285 105.876403 
L 125.310285 104.758038 
L 126.496178 104.758038 
L 126.496178 103.639674 
L 138.553074 103.639674 
L 138.553074 102.521309 
L 140.498503 102.521309 
L 140.498503 101.402945 
L 142.809574 101.402945 
L 142.809574 100.28458 
L 144.598384 100.28458 
L 144.598384 99.166216 
L 147.531203 99.166216 
L 147.531203 98.047851 
L 147.782136 98.047851 
L 147.782136 96.929487 
L 148.984628 96.929487 
L 149.061881 86.864206 
L 149.100377 86.864206 
L 149.138788 82.390748 
L 149.215352 82.390748 
L 149.291576 73.443833 
L 149.329562 73.443833 
L 149.405283 61.141823 
L 149.555732 61.141823 
L 149.630465 58.905094 
L 149.66771 58.905094 
L 149.741959 52.194907 
L 149.778964 52.194907 
L 149.778964 47.72145 
L 150.324681 47.72145 
L 150.360453 44.366356 
L 150.888293 44.366356 
L 150.922912 41.011263 
L 151.060698 41.011263 
L 151.060698 39.892898 
L 151.299196 39.892898 
L 151.299196 38.774534 
L 151.799385 38.774534 
L 151.799385 37.656169 
L 152.253451 37.656169 
L 152.34921 30.945982 
L 152.444438 30.945982 
L 152.476064 25.35416 
L 152.726997 25.35416 
L 152.726997 21.999066 
L 152.943598 21.999066 
L 152.943598 20.880702 
L 153.066156 20.880702 
L 153.157504 15.28888 
L 153.187846 15.28888 
L 153.248369 9.697057 
L 333.168 9.697057 
L 333.168 9.697057 
" style="fill:none;stroke:#f5deb3;stroke-linecap:square;stroke-width:4;"/>
   </g>
   <g id="line2d_2">
    <defs>
     <path d="M -0 7.778175 
L 7.778175 0 
L 0 -7.778175 
L -7.778175 -0 
z
" id="m53a3be307b" style="stroke:#f5deb3;stroke-linejoin:miter;stroke-width:1.5;"/>
    </defs>
    <g>
     <use style="fill:#f5deb3;stroke:#f5deb3;stroke-linejoin:miter;stroke-width:1.5;" x="94.816624" xlink:href="#m53a3be307b" y="161.794627"/>
     <use style="fill:#f5deb3;stroke:#f5deb3;stroke-linejoin:miter;stroke-width:1.5;" x="126.496178" xlink:href="#m53a3be307b" y="103.639674"/>
     <use style="fill:#f5deb3;stroke:#f5deb3;stroke-linejoin:miter;stroke-width:1.5;" x="153.248369" xlink:href="#m53a3be307b" y="10.815422"/>
     <use style="fill:#f5deb3;stroke:#f5deb3;stroke-linejoin:miter;stroke-width:1.5;" x="153.248369" xlink:href="#m53a3be307b" y="9.697057"/>
     <use style="fill:#f5deb3;stroke:#f5deb3;stroke-linejoin:miter;stroke-width:1.5;" x="153.248369" xlink:href="#m53a3be307b" y="9.697057"/>
     <use style="fill:#f5deb3;stroke:#f5deb3;stroke-linejoin:miter;stroke-width:1.5;" x="333.168" xlink:href="#m53a3be307b" y="9.697057"/>
    </g>
   </g>
   <g id="line2d_3">
    <path style="fill:none;stroke:#f5deb3;stroke-linecap:square;stroke-width:4;"/>
    <g/>
   </g>
   <g id="line2d_4">
    <path d="M 333.168 9.697057 
L 363.64328 15.400716 
" style="fill:none;stroke:#f5deb3;stroke-linecap:square;stroke-width:4;"/>
    <g>
     <use style="fill:#f5deb3;stroke:#f5deb3;stroke-linejoin:miter;stroke-width:1.5;" x="333.168" xlink:href="#m53a3be307b" y="9.697057"/>
     <use style="fill:#f5deb3;stroke:#f5deb3;stroke-linejoin:miter;stroke-width:1.5;" x="363.64328" xlink:href="#m53a3be307b" y="15.400716"/>
    </g>
   </g>
   <g id="matplotlib.axis_1">
    <g id="xtick_1">
     <g id="line2d_5">
      <path clip-path="url(#p62b199c37f)" d="M 56.12 294.88 
L 56.12 6.845228 
" style="fill:none;stroke:#b0b0b0;stroke-linecap:square;stroke-width:0.8;"/>
     </g>
     <g id="line2d_6">
      <defs>
       <path d="M 0 0 
L 0 3.5 
" id="m56e2d01af3" style="stroke:#000000;stroke-width:0.8;"/>
      </defs>
      <g>
       <use style="stroke:#000000;stroke-width:0.8;" x="56.12" xlink:href="#m56e2d01af3" y="294.88"/>
      </g>
     </g>
     <g id="text_1">
      <!-- 0 -->
      <defs>
       <path d="M 31.78125 66.40625 
Q 24.171875 66.40625 20.328125 58.90625 
Q 16.5 51.421875 16.5 36.375 
Q 16.5 21.390625 20.328125 13.890625 
Q 24.171875 6.390625 31.78125 6.390625 
Q 39.453125 6.390625 43.28125 13.890625 
Q 47.125 21.390625 47.125 36.375 
Q 47.125 51.421875 43.28125 58.90625 
Q 39.453125 66.40625 31.78125 66.40625 
z
M 31.78125 74.21875 
Q 44.046875 74.21875 50.515625 64.515625 
Q 56.984375 54.828125 56.984375 36.375 
Q 56.984375 17.96875 50.515625 8.265625 
Q 44.046875 -1.421875 31.78125 -1.421875 
Q 19.53125 -1.421875 13.0625 8.265625 
Q 6.59375 17.96875 6.59375 36.375 
Q 6.59375 54.828125 13.0625 64.515625 
Q 19.53125 74.21875 31.78125 74.21875 
z
" id="DejaVuSans-30"/>
      </defs>
      <g transform="translate(49.7575 317.076875)scale(0.2 -0.2)">
       <use xlink:href="#DejaVuSans-30"/>
      </g>
     </g>
    </g>
    <g id="xtick_2">
     <g id="line2d_7">
      <path clip-path="url(#p62b199c37f)" d="M 135.276571 294.88 
L 135.276571 6.845228 
" style="fill:none;stroke:#b0b0b0;stroke-linecap:square;stroke-width:0.8;"/>
     </g>
     <g id="line2d_8">
      <g>
       <use style="stroke:#000000;stroke-width:0.8;" x="135.276571" xlink:href="#m56e2d01af3" y="294.88"/>
      </g>
     </g>
     <g id="text_2">
      <!-- 2 -->
      <defs>
       <path d="M 19.1875 8.296875 
L 53.609375 8.296875 
L 53.609375 0 
L 7.328125 0 
L 7.328125 8.296875 
Q 12.9375 14.109375 22.625 23.890625 
Q 32.328125 33.6875 34.8125 36.53125 
Q 39.546875 41.84375 41.421875 45.53125 
Q 43.3125 49.21875 43.3125 52.78125 
Q 43.3125 58.59375 39.234375 62.25 
Q 35.15625 65.921875 28.609375 65.921875 
Q 23.96875 65.921875 18.8125 64.3125 
Q 13.671875 62.703125 7.8125 59.421875 
L 7.8125 69.390625 
Q 13.765625 71.78125 18.9375 73 
Q 24.125 74.21875 28.421875 74.21875 
Q 39.75 74.21875 46.484375 68.546875 
Q 53.21875 62.890625 53.21875 53.421875 
Q 53.21875 48.921875 51.53125 44.890625 
Q 49.859375 40.875 45.40625 35.40625 
Q 44.1875 33.984375 37.640625 27.21875 
Q 31.109375 20.453125 19.1875 8.296875 
z
" id="DejaVuSans-32"/>
      </defs>
      <g transform="translate(128.914071 317.076875)scale(0.2 -0.2)">
       <use xlink:href="#DejaVuSans-32"/>
      </g>
     </g>
    </g>
    <g id="xtick_3">
     <g id="line2d_9">
      <path clip-path="url(#p62b199c37f)" d="M 214.433143 294.88 
L 214.433143 6.845228 
" style="fill:none;stroke:#b0b0b0;stroke-linecap:square;stroke-width:0.8;"/>
     </g>
     <g id="line2d_10">
      <g>
       <use style="stroke:#000000;stroke-width:0.8;" x="214.433143" xlink:href="#m56e2d01af3" y="294.88"/>
      </g>
     </g>
     <g id="text_3">
      <!-- 4 -->
      <defs>
       <path d="M 37.796875 64.3125 
L 12.890625 25.390625 
L 37.796875 25.390625 
z
M 35.203125 72.90625 
L 47.609375 72.90625 
L 47.609375 25.390625 
L 58.015625 25.390625 
L 58.015625 17.1875 
L 47.609375 17.1875 
L 47.609375 0 
L 37.796875 0 
L 37.796875 17.1875 
L 4.890625 17.1875 
L 4.890625 26.703125 
z
" id="DejaVuSans-34"/>
      </defs>
      <g transform="translate(208.070643 317.076875)scale(0.2 -0.2)">
       <use xlink:href="#DejaVuSans-34"/>
      </g>
     </g>
    </g>
    <g id="xtick_4">
     <g id="line2d_11">
      <path clip-path="url(#p62b199c37f)" d="M 293.589714 294.88 
L 293.589714 6.845228 
" style="fill:none;stroke:#b0b0b0;stroke-linecap:square;stroke-width:0.8;"/>
     </g>
     <g id="line2d_12">
      <g>
       <use style="stroke:#000000;stroke-width:0.8;" x="293.589714" xlink:href="#m56e2d01af3" y="294.88"/>
      </g>
     </g>
     <g id="text_4">
      <!-- 6 -->
      <defs>
       <path d="M 33.015625 40.375 
Q 26.375 40.375 22.484375 35.828125 
Q 18.609375 31.296875 18.609375 23.390625 
Q 18.609375 15.53125 22.484375 10.953125 
Q 26.375 6.390625 33.015625 6.390625 
Q 39.65625 6.390625 43.53125 10.953125 
Q 47.40625 15.53125 47.40625 23.390625 
Q 47.40625 31.296875 43.53125 35.828125 
Q 39.65625 40.375 33.015625 40.375 
z
M 52.59375 71.296875 
L 52.59375 62.3125 
Q 48.875 64.0625 45.09375 64.984375 
Q 41.3125 65.921875 37.59375 65.921875 
Q 27.828125 65.921875 22.671875 59.328125 
Q 17.53125 52.734375 16.796875 39.40625 
Q 19.671875 43.65625 24.015625 45.921875 
Q 28.375 48.1875 33.59375 48.1875 
Q 44.578125 48.1875 50.953125 41.515625 
Q 57.328125 34.859375 57.328125 23.390625 
Q 57.328125 12.15625 50.6875 5.359375 
Q 44.046875 -1.421875 33.015625 -1.421875 
Q 20.359375 -1.421875 13.671875 8.265625 
Q 6.984375 17.96875 6.984375 36.375 
Q 6.984375 53.65625 15.1875 63.9375 
Q 23.390625 74.21875 37.203125 74.21875 
Q 40.921875 74.21875 44.703125 73.484375 
Q 48.484375 72.75 52.59375 71.296875 
z
" id="DejaVuSans-36"/>
      </defs>
      <g transform="translate(287.227214 317.076875)scale(0.2 -0.2)">
       <use xlink:href="#DejaVuSans-36"/>
      </g>
     </g>
    </g>
    <g id="xtick_5">
     <g id="line2d_13">
      <path clip-path="url(#p62b199c37f)" d="M 56.12 294.88 
L 56.12 6.845228 
" style="fill:none;stroke:#b0b0b0;stroke-linecap:square;stroke-width:0.8;"/>
     </g>
     <g id="line2d_14">
      <defs>
       <path d="M 0 0 
L 0 2 
" id="m9d5a58c915" style="stroke:#000000;stroke-width:0.6;"/>
      </defs>
      <g>
       <use style="stroke:#000000;stroke-width:0.6;" x="56.12" xlink:href="#m9d5a58c915" y="294.88"/>
      </g>
     </g>
    </g>
    <g id="xtick_6">
     <g id="line2d_15">
      <path clip-path="url(#p62b199c37f)" d="M 95.698286 294.88 
L 95.698286 6.845228 
" style="fill:none;stroke:#b0b0b0;stroke-linecap:square;stroke-width:0.8;"/>
     </g>
     <g id="line2d_16">
      <g>
       <use style="stroke:#000000;stroke-width:0.6;" x="95.698286" xlink:href="#m9d5a58c915" y="294.88"/>
      </g>
     </g>
    </g>
    <g id="xtick_7">
     <g id="line2d_17">
      <path clip-path="url(#p62b199c37f)" d="M 135.276571 294.88 
L 135.276571 6.845228 
" style="fill:none;stroke:#b0b0b0;stroke-linecap:square;stroke-width:0.8;"/>
     </g>
     <g id="line2d_18">
      <g>
       <use style="stroke:#000000;stroke-width:0.6;" x="135.276571" xlink:href="#m9d5a58c915" y="294.88"/>
      </g>
     </g>
    </g>
    <g id="xtick_8">
     <g id="line2d_19">
      <path clip-path="url(#p62b199c37f)" d="M 174.854857 294.88 
L 174.854857 6.845228 
" style="fill:none;stroke:#b0b0b0;stroke-linecap:square;stroke-width:0.8;"/>
     </g>
     <g id="line2d_20">
      <g>
       <use style="stroke:#000000;stroke-width:0.6;" x="174.854857" xlink:href="#m9d5a58c915" y="294.88"/>
      </g>
     </g>
    </g>
    <g id="xtick_9">
     <g id="line2d_21">
      <path clip-path="url(#p62b199c37f)" d="M 214.433143 294.88 
L 214.433143 6.845228 
" style="fill:none;stroke:#b0b0b0;stroke-linecap:square;stroke-width:0.8;"/>
     </g>
     <g id="line2d_22">
      <g>
       <use style="stroke:#000000;stroke-width:0.6;" x="214.433143" xlink:href="#m9d5a58c915" y="294.88"/>
      </g>
     </g>
    </g>
    <g id="xtick_10">
     <g id="line2d_23">
      <path clip-path="url(#p62b199c37f)" d="M 254.011429 294.88 
L 254.011429 6.845228 
" style="fill:none;stroke:#b0b0b0;stroke-linecap:square;stroke-width:0.8;"/>
     </g>
     <g id="line2d_24">
      <g>
       <use style="stroke:#000000;stroke-width:0.6;" x="254.011429" xlink:href="#m9d5a58c915" y="294.88"/>
      </g>
     </g>
    </g>
    <g id="xtick_11">
     <g id="line2d_25">
      <path clip-path="url(#p62b199c37f)" d="M 293.589714 294.88 
L 293.589714 6.845228 
" style="fill:none;stroke:#b0b0b0;stroke-linecap:square;stroke-width:0.8;"/>
     </g>
     <g id="line2d_26">
      <g>
       <use style="stroke:#000000;stroke-width:0.6;" x="293.589714" xlink:href="#m9d5a58c915" y="294.88"/>
      </g>
     </g>
    </g>
    <g id="xtick_12">
     <g id="line2d_27">
      <path clip-path="url(#p62b199c37f)" d="M 333.168 294.88 
L 333.168 6.845228 
" style="fill:none;stroke:#b0b0b0;stroke-linecap:square;stroke-width:0.8;"/>
     </g>
     <g id="line2d_28">
      <g>
       <use style="stroke:#000000;stroke-width:0.6;" x="333.168" xlink:href="#m9d5a58c915" y="294.88"/>
      </g>
     </g>
    </g>
    <g id="text_5">
     <!-- log10(# f-evals / dimension) -->
     <defs>
      <path d="M 9.421875 75.984375 
L 18.40625 75.984375 
L 18.40625 0 
L 9.421875 0 
z
" id="DejaVuSans-6c"/>
      <path d="M 30.609375 48.390625 
Q 23.390625 48.390625 19.1875 42.75 
Q 14.984375 37.109375 14.984375 27.296875 
Q 14.984375 17.484375 19.15625 11.84375 
Q 23.34375 6.203125 30.609375 6.203125 
Q 37.796875 6.203125 41.984375 11.859375 
Q 46.1875 17.53125 46.1875 27.296875 
Q 46.1875 37.015625 41.984375 42.703125 
Q 37.796875 48.390625 30.609375 48.390625 
z
M 30.609375 56 
Q 42.328125 56 49.015625 48.375 
Q 55.71875 40.765625 55.71875 27.296875 
Q 55.71875 13.875 49.015625 6.21875 
Q 42.328125 -1.421875 30.609375 -1.421875 
Q 18.84375 -1.421875 12.171875 6.21875 
Q 5.515625 13.875 5.515625 27.296875 
Q 5.515625 40.765625 12.171875 48.375 
Q 18.84375 56 30.609375 56 
z
" id="DejaVuSans-6f"/>
      <path d="M 45.40625 27.984375 
Q 45.40625 37.75 41.375 43.109375 
Q 37.359375 48.484375 30.078125 48.484375 
Q 22.859375 48.484375 18.828125 43.109375 
Q 14.796875 37.75 14.796875 27.984375 
Q 14.796875 18.265625 18.828125 12.890625 
Q 22.859375 7.515625 30.078125 7.515625 
Q 37.359375 7.515625 41.375 12.890625 
Q 45.40625 18.265625 45.40625 27.984375 
z
M 54.390625 6.78125 
Q 54.390625 -7.171875 48.1875 -13.984375 
Q 42 -20.796875 29.203125 -20.796875 
Q 24.46875 -20.796875 20.265625 -20.09375 
Q 16.0625 -19.390625 12.109375 -17.921875 
L 12.109375 -9.1875 
Q 16.0625 -11.328125 19.921875 -12.34375 
Q 23.78125 -13.375 27.78125 -13.375 
Q 36.625 -13.375 41.015625 -8.765625 
Q 45.40625 -4.15625 45.40625 5.171875 
L 45.40625 9.625 
Q 42.625 4.78125 38.28125 2.390625 
Q 33.9375 0 27.875 0 
Q 17.828125 0 11.671875 7.65625 
Q 5.515625 15.328125 5.515625 27.984375 
Q 5.515625 40.671875 11.671875 48.328125 
Q 17.828125 56 27.875 56 
Q 33.9375 56 38.28125 53.609375 
Q 42.625 51.21875 45.40625 46.390625 
L 45.40625 54.6875 
L 54.390625 54.6875 
z
" id="DejaVuSans-67"/>
      <path d="M 12.40625 8.296875 
L 28.515625 8.296875 
L 28.515625 63.921875 
L 10.984375 60.40625 
L 10.984375 69.390625 
L 28.421875 72.90625 
L 38.28125 72.90625 
L 38.28125 8.296875 
L 54.390625 8.296875 
L 54.390625 0 
L 12.40625 0 
z
" id="DejaVuSans-31"/>
      <path d="M 31 75.875 
Q 24.46875 64.65625 21.28125 53.65625 
Q 18.109375 42.671875 18.109375 31.390625 
Q 18.109375 20.125 21.3125 9.0625 
Q 24.515625 -2 31 -13.1875 
L 23.1875 -13.1875 
Q 15.875 -1.703125 12.234375 9.375 
Q 8.59375 20.453125 8.59375 31.390625 
Q 8.59375 42.28125 12.203125 53.3125 
Q 15.828125 64.359375 23.1875 75.875 
z
" id="DejaVuSans-28"/>
      <path d="M 51.125 44 
L 36.921875 44 
L 32.8125 27.6875 
L 47.125 27.6875 
z
M 43.796875 71.78125 
L 38.71875 51.515625 
L 52.984375 51.515625 
L 58.109375 71.78125 
L 65.921875 71.78125 
L 60.890625 51.515625 
L 76.125 51.515625 
L 76.125 44 
L 58.984375 44 
L 54.984375 27.6875 
L 70.515625 27.6875 
L 70.515625 20.21875 
L 53.078125 20.21875 
L 48 0 
L 40.1875 0 
L 45.21875 20.21875 
L 30.90625 20.21875 
L 25.875 0 
L 18.015625 0 
L 23.09375 20.21875 
L 7.71875 20.21875 
L 7.71875 27.6875 
L 24.90625 27.6875 
L 29 44 
L 13.28125 44 
L 13.28125 51.515625 
L 30.90625 51.515625 
L 35.890625 71.78125 
z
" id="DejaVuSans-23"/>
      <path id="DejaVuSans-20"/>
      <path d="M 37.109375 75.984375 
L 37.109375 68.5 
L 28.515625 68.5 
Q 23.6875 68.5 21.796875 66.546875 
Q 19.921875 64.59375 19.921875 59.515625 
L 19.921875 54.6875 
L 34.71875 54.6875 
L 34.71875 47.703125 
L 19.921875 47.703125 
L 19.921875 0 
L 10.890625 0 
L 10.890625 47.703125 
L 2.296875 47.703125 
L 2.296875 54.6875 
L 10.890625 54.6875 
L 10.890625 58.5 
Q 10.890625 67.625 15.140625 71.796875 
Q 19.390625 75.984375 28.609375 75.984375 
z
" id="DejaVuSans-66"/>
      <path d="M 4.890625 31.390625 
L 31.203125 31.390625 
L 31.203125 23.390625 
L 4.890625 23.390625 
z
" id="DejaVuSans-2d"/>
      <path d="M 56.203125 29.59375 
L 56.203125 25.203125 
L 14.890625 25.203125 
Q 15.484375 15.921875 20.484375 11.0625 
Q 25.484375 6.203125 34.421875 6.203125 
Q 39.59375 6.203125 44.453125 7.46875 
Q 49.3125 8.734375 54.109375 11.28125 
L 54.109375 2.78125 
Q 49.265625 0.734375 44.1875 -0.34375 
Q 39.109375 -1.421875 33.890625 -1.421875 
Q 20.796875 -1.421875 13.15625 6.1875 
Q 5.515625 13.8125 5.515625 26.8125 
Q 5.515625 40.234375 12.765625 48.109375 
Q 20.015625 56 32.328125 56 
Q 43.359375 56 49.78125 48.890625 
Q 56.203125 41.796875 56.203125 29.59375 
z
M 47.21875 32.234375 
Q 47.125 39.59375 43.09375 43.984375 
Q 39.0625 48.390625 32.421875 48.390625 
Q 24.90625 48.390625 20.390625 44.140625 
Q 15.875 39.890625 15.1875 32.171875 
z
" id="DejaVuSans-65"/>
      <path d="M 2.984375 54.6875 
L 12.5 54.6875 
L 29.59375 8.796875 
L 46.6875 54.6875 
L 56.203125 54.6875 
L 35.6875 0 
L 23.484375 0 
z
" id="DejaVuSans-76"/>
      <path d="M 34.28125 27.484375 
Q 23.390625 27.484375 19.1875 25 
Q 14.984375 22.515625 14.984375 16.5 
Q 14.984375 11.71875 18.140625 8.90625 
Q 21.296875 6.109375 26.703125 6.109375 
Q 34.1875 6.109375 38.703125 11.40625 
Q 43.21875 16.703125 43.21875 25.484375 
L 43.21875 27.484375 
z
M 52.203125 31.203125 
L 52.203125 0 
L 43.21875 0 
L 43.21875 8.296875 
Q 40.140625 3.328125 35.546875 0.953125 
Q 30.953125 -1.421875 24.3125 -1.421875 
Q 15.921875 -1.421875 10.953125 3.296875 
Q 6 8.015625 6 15.921875 
Q 6 25.140625 12.171875 29.828125 
Q 18.359375 34.515625 30.609375 34.515625 
L 43.21875 34.515625 
L 43.21875 35.40625 
Q 43.21875 41.609375 39.140625 45 
Q 35.0625 48.390625 27.6875 48.390625 
Q 23 48.390625 18.546875 47.265625 
Q 14.109375 46.140625 10.015625 43.890625 
L 10.015625 52.203125 
Q 14.9375 54.109375 19.578125 55.046875 
Q 24.21875 56 28.609375 56 
Q 40.484375 56 46.34375 49.84375 
Q 52.203125 43.703125 52.203125 31.203125 
z
" id="DejaVuSans-61"/>
      <path d="M 44.28125 53.078125 
L 44.28125 44.578125 
Q 40.484375 46.53125 36.375 47.5 
Q 32.28125 48.484375 27.875 48.484375 
Q 21.1875 48.484375 17.84375 46.4375 
Q 14.5 44.390625 14.5 40.28125 
Q 14.5 37.15625 16.890625 35.375 
Q 19.28125 33.59375 26.515625 31.984375 
L 29.59375 31.296875 
Q 39.15625 29.25 43.1875 25.515625 
Q 47.21875 21.78125 47.21875 15.09375 
Q 47.21875 7.46875 41.1875 3.015625 
Q 35.15625 -1.421875 24.609375 -1.421875 
Q 20.21875 -1.421875 15.453125 -0.5625 
Q 10.6875 0.296875 5.421875 2 
L 5.421875 11.28125 
Q 10.40625 8.6875 15.234375 7.390625 
Q 20.0625 6.109375 24.8125 6.109375 
Q 31.15625 6.109375 34.5625 8.28125 
Q 37.984375 10.453125 37.984375 14.40625 
Q 37.984375 18.0625 35.515625 20.015625 
Q 33.0625 21.96875 24.703125 23.78125 
L 21.578125 24.515625 
Q 13.234375 26.265625 9.515625 29.90625 
Q 5.8125 33.546875 5.8125 39.890625 
Q 5.8125 47.609375 11.28125 51.796875 
Q 16.75 56 26.8125 56 
Q 31.78125 56 36.171875 55.265625 
Q 40.578125 54.546875 44.28125 53.078125 
z
" id="DejaVuSans-73"/>
      <path d="M 25.390625 72.90625 
L 33.6875 72.90625 
L 8.296875 -9.28125 
L 0 -9.28125 
z
" id="DejaVuSans-2f"/>
      <path d="M 45.40625 46.390625 
L 45.40625 75.984375 
L 54.390625 75.984375 
L 54.390625 0 
L 45.40625 0 
L 45.40625 8.203125 
Q 42.578125 3.328125 38.25 0.953125 
Q 33.9375 -1.421875 27.875 -1.421875 
Q 17.96875 -1.421875 11.734375 6.484375 
Q 5.515625 14.40625 5.515625 27.296875 
Q 5.515625 40.1875 11.734375 48.09375 
Q 17.96875 56 27.875 56 
Q 33.9375 56 38.25 53.625 
Q 42.578125 51.265625 45.40625 46.390625 
z
M 14.796875 27.296875 
Q 14.796875 17.390625 18.875 11.75 
Q 22.953125 6.109375 30.078125 6.109375 
Q 37.203125 6.109375 41.296875 11.75 
Q 45.40625 17.390625 45.40625 27.296875 
Q 45.40625 37.203125 41.296875 42.84375 
Q 37.203125 48.484375 30.078125 48.484375 
Q 22.953125 48.484375 18.875 42.84375 
Q 14.796875 37.203125 14.796875 27.296875 
z
" id="DejaVuSans-64"/>
      <path d="M 9.421875 54.6875 
L 18.40625 54.6875 
L 18.40625 0 
L 9.421875 0 
z
M 9.421875 75.984375 
L 18.40625 75.984375 
L 18.40625 64.59375 
L 9.421875 64.59375 
z
" id="DejaVuSans-69"/>
      <path d="M 52 44.1875 
Q 55.375 50.25 60.0625 53.125 
Q 64.75 56 71.09375 56 
Q 79.640625 56 84.28125 50.015625 
Q 88.921875 44.046875 88.921875 33.015625 
L 88.921875 0 
L 79.890625 0 
L 79.890625 32.71875 
Q 79.890625 40.578125 77.09375 44.375 
Q 74.3125 48.1875 68.609375 48.1875 
Q 61.625 48.1875 57.5625 43.546875 
Q 53.515625 38.921875 53.515625 30.90625 
L 53.515625 0 
L 44.484375 0 
L 44.484375 32.71875 
Q 44.484375 40.625 41.703125 44.40625 
Q 38.921875 48.1875 33.109375 48.1875 
Q 26.21875 48.1875 22.15625 43.53125 
Q 18.109375 38.875 18.109375 30.90625 
L 18.109375 0 
L 9.078125 0 
L 9.078125 54.6875 
L 18.109375 54.6875 
L 18.109375 46.1875 
Q 21.1875 51.21875 25.484375 53.609375 
Q 29.78125 56 35.6875 56 
Q 41.65625 56 45.828125 52.96875 
Q 50 49.953125 52 44.1875 
z
" id="DejaVuSans-6d"/>
      <path d="M 54.890625 33.015625 
L 54.890625 0 
L 45.90625 0 
L 45.90625 32.71875 
Q 45.90625 40.484375 42.875 44.328125 
Q 39.84375 48.1875 33.796875 48.1875 
Q 26.515625 48.1875 22.3125 43.546875 
Q 18.109375 38.921875 18.109375 30.90625 
L 18.109375 0 
L 9.078125 0 
L 9.078125 54.6875 
L 18.109375 54.6875 
L 18.109375 46.1875 
Q 21.34375 51.125 25.703125 53.5625 
Q 30.078125 56 35.796875 56 
Q 45.21875 56 50.046875 50.171875 
Q 54.890625 44.34375 54.890625 33.015625 
z
" id="DejaVuSans-6e"/>
      <path d="M 8.015625 75.875 
L 15.828125 75.875 
Q 23.140625 64.359375 26.78125 53.3125 
Q 30.421875 42.28125 30.421875 31.390625 
Q 30.421875 20.453125 26.78125 9.375 
Q 23.140625 -1.703125 15.828125 -13.1875 
L 8.015625 -13.1875 
Q 14.5 -2 17.703125 9.0625 
Q 20.90625 20.125 20.90625 31.390625 
Q 20.90625 42.671875 17.703125 53.65625 
Q 14.5 64.65625 8.015625 75.875 
z
" id="DejaVuSans-29"/>
     </defs>
     <g transform="translate(73.803219 338.153594)scale(0.17 -0.17)">
      <use xlink:href="#DejaVuSans-6c"/>
      <use x="27.783203" xlink:href="#DejaVuSans-6f"/>
      <use x="88.964844" xlink:href="#DejaVuSans-67"/>
      <use x="152.441406" xlink:href="#DejaVuSans-31"/>
      <use x="216.064453" xlink:href="#DejaVuSans-30"/>
      <use x="279.6875" xlink:href="#DejaVuSans-28"/>
      <use x="318.701172" xlink:href="#DejaVuSans-23"/>
      <use x="402.490234" xlink:href="#DejaVuSans-20"/>
      <use x="434.277344" xlink:href="#DejaVuSans-66"/>
      <use x="469.404297" xlink:href="#DejaVuSans-2d"/>
      <use x="505.488281" xlink:href="#DejaVuSans-65"/>
      <use x="567.011719" xlink:href="#DejaVuSans-76"/>
      <use x="626.191406" xlink:href="#DejaVuSans-61"/>
      <use x="687.470703" xlink:href="#DejaVuSans-6c"/>
      <use x="715.253906" xlink:href="#DejaVuSans-73"/>
      <use x="767.353516" xlink:href="#DejaVuSans-20"/>
      <use x="799.140625" xlink:href="#DejaVuSans-2f"/>
      <use x="832.832031" xlink:href="#DejaVuSans-20"/>
      <use x="864.619141" xlink:href="#DejaVuSans-64"/>
      <use x="928.095703" xlink:href="#DejaVuSans-69"/>
      <use x="955.878906" xlink:href="#DejaVuSans-6d"/>
      <use x="1053.291016" xlink:href="#DejaVuSans-65"/>
      <use x="1114.814453" xlink:href="#DejaVuSans-6e"/>
      <use x="1178.193359" xlink:href="#DejaVuSans-73"/>
      <use x="1230.292969" xlink:href="#DejaVuSans-69"/>
      <use x="1258.076172" xlink:href="#DejaVuSans-6f"/>
      <use x="1319.257812" xlink:href="#DejaVuSans-6e"/>
      <use x="1382.636719" xlink:href="#DejaVuSans-29"/>
     </g>
    </g>
   </g>
   <g id="matplotlib.axis_2">
    <g id="ytick_1">
     <g id="line2d_29">
      <path clip-path="url(#p62b199c37f)" d="M 56.12 294.88 
L 333.168 294.88 
" style="fill:none;stroke:#b0b0b0;stroke-linecap:square;stroke-width:0.8;"/>
     </g>
     <g id="line2d_30">
      <defs>
       <path d="M 0 0 
L -3.5 0 
" id="md2a702cd7a" style="stroke:#000000;stroke-width:0.8;"/>
      </defs>
      <g>
       <use style="stroke:#000000;stroke-width:0.8;" x="56.12" xlink:href="#md2a702cd7a" y="294.88"/>
      </g>
     </g>
     <g id="text_6">
      <!-- 0.0 -->
      <defs>
       <path d="M 10.6875 12.40625 
L 21 12.40625 
L 21 0 
L 10.6875 0 
z
" id="DejaVuSans-2e"/>
      </defs>
      <g transform="translate(23.675 300.95875)scale(0.16 -0.16)">
       <use xlink:href="#DejaVuSans-30"/>
       <use x="63.623047" xlink:href="#DejaVuSans-2e"/>
       <use x="95.410156" xlink:href="#DejaVuSans-30"/>
      </g>
     </g>
    </g>
    <g id="ytick_2">
     <g id="line2d_31">
      <path clip-path="url(#p62b199c37f)" d="M 56.12 237.843411 
L 333.168 237.843411 
" style="fill:none;stroke:#b0b0b0;stroke-linecap:square;stroke-width:0.8;"/>
     </g>
     <g id="line2d_32">
      <g>
       <use style="stroke:#000000;stroke-width:0.8;" x="56.12" xlink:href="#md2a702cd7a" y="237.843411"/>
      </g>
     </g>
     <g id="text_7">
      <!-- 0.2 -->
      <g transform="translate(23.675 243.922161)scale(0.16 -0.16)">
       <use xlink:href="#DejaVuSans-30"/>
       <use x="63.623047" xlink:href="#DejaVuSans-2e"/>
       <use x="95.410156" xlink:href="#DejaVuSans-32"/>
      </g>
     </g>
    </g>
    <g id="ytick_3">
     <g id="line2d_33">
      <path clip-path="url(#p62b199c37f)" d="M 56.12 180.806823 
L 333.168 180.806823 
" style="fill:none;stroke:#b0b0b0;stroke-linecap:square;stroke-width:0.8;"/>
     </g>
     <g id="line2d_34">
      <g>
       <use style="stroke:#000000;stroke-width:0.8;" x="56.12" xlink:href="#md2a702cd7a" y="180.806823"/>
      </g>
     </g>
     <g id="text_8">
      <!-- 0.4 -->
      <g transform="translate(23.675 186.885573)scale(0.16 -0.16)">
       <use xlink:href="#DejaVuSans-30"/>
       <use x="63.623047" xlink:href="#DejaVuSans-2e"/>
       <use x="95.410156" xlink:href="#DejaVuSans-34"/>
      </g>
     </g>
    </g>
    <g id="ytick_4">
     <g id="line2d_35">
      <path clip-path="url(#p62b199c37f)" d="M 56.12 123.770234 
L 333.168 123.770234 
" style="fill:none;stroke:#b0b0b0;stroke-linecap:square;stroke-width:0.8;"/>
     </g>
     <g id="line2d_36">
      <g>
       <use style="stroke:#000000;stroke-width:0.8;" x="56.12" xlink:href="#md2a702cd7a" y="123.770234"/>
      </g>
     </g>
     <g id="text_9">
      <!-- 0.6 -->
      <g transform="translate(23.675 129.848984)scale(0.16 -0.16)">
       <use xlink:href="#DejaVuSans-30"/>
       <use x="63.623047" xlink:href="#DejaVuSans-2e"/>
       <use x="95.410156" xlink:href="#DejaVuSans-36"/>
      </g>
     </g>
    </g>
    <g id="ytick_5">
     <g id="line2d_37">
      <path clip-path="url(#p62b199c37f)" d="M 56.12 66.733646 
L 333.168 66.733646 
" style="fill:none;stroke:#b0b0b0;stroke-linecap:square;stroke-width:0.8;"/>
     </g>
     <g id="line2d_38">
      <g>
       <use style="stroke:#000000;stroke-width:0.8;" x="56.12" xlink:href="#md2a702cd7a" y="66.733646"/>
      </g>
     </g>
     <g id="text_10">
      <!-- 0.8 -->
      <defs>
       <path d="M 31.78125 34.625 
Q 24.75 34.625 20.71875 30.859375 
Q 16.703125 27.09375 16.703125 20.515625 
Q 16.703125 13.921875 20.71875 10.15625 
Q 24.75 6.390625 31.78125 6.390625 
Q 38.8125 6.390625 42.859375 10.171875 
Q 46.921875 13.96875 46.921875 20.515625 
Q 46.921875 27.09375 42.890625 30.859375 
Q 38.875 34.625 31.78125 34.625 
z
M 21.921875 38.8125 
Q 15.578125 40.375 12.03125 44.71875 
Q 8.5 49.078125 8.5 55.328125 
Q 8.5 64.0625 14.71875 69.140625 
Q 20.953125 74.21875 31.78125 74.21875 
Q 42.671875 74.21875 48.875 69.140625 
Q 55.078125 64.0625 55.078125 55.328125 
Q 55.078125 49.078125 51.53125 44.71875 
Q 48 40.375 41.703125 38.8125 
Q 48.828125 37.15625 52.796875 32.3125 
Q 56.78125 27.484375 56.78125 20.515625 
Q 56.78125 9.90625 50.3125 4.234375 
Q 43.84375 -1.421875 31.78125 -1.421875 
Q 19.734375 -1.421875 13.25 4.234375 
Q 6.78125 9.90625 6.78125 20.515625 
Q 6.78125 27.484375 10.78125 32.3125 
Q 14.796875 37.15625 21.921875 38.8125 
z
M 18.3125 54.390625 
Q 18.3125 48.734375 21.84375 45.5625 
Q 25.390625 42.390625 31.78125 42.390625 
Q 38.140625 42.390625 41.71875 45.5625 
Q 45.3125 48.734375 45.3125 54.390625 
Q 45.3125 60.0625 41.71875 63.234375 
Q 38.140625 66.40625 31.78125 66.40625 
Q 25.390625 66.40625 21.84375 63.234375 
Q 18.3125 60.0625 18.3125 54.390625 
z
" id="DejaVuSans-38"/>
      </defs>
      <g transform="translate(23.675 72.812396)scale(0.16 -0.16)">
       <use xlink:href="#DejaVuSans-30"/>
       <use x="63.623047" xlink:href="#DejaVuSans-2e"/>
       <use x="95.410156" xlink:href="#DejaVuSans-38"/>
      </g>
     </g>
    </g>
    <g id="ytick_6">
     <g id="line2d_39">
      <path clip-path="url(#p62b199c37f)" d="M 56.12 9.697057 
L 333.168 9.697057 
" style="fill:none;stroke:#b0b0b0;stroke-linecap:square;stroke-width:0.8;"/>
     </g>
     <g id="line2d_40">
      <g>
       <use style="stroke:#000000;stroke-width:0.8;" x="56.12" xlink:href="#md2a702cd7a" y="9.697057"/>
      </g>
     </g>
     <g id="text_11">
      <!-- 1.0 -->
      <g transform="translate(23.675 15.775807)scale(0.16 -0.16)">
       <use xlink:href="#DejaVuSans-31"/>
       <use x="63.623047" xlink:href="#DejaVuSans-2e"/>
       <use x="95.410156" xlink:href="#DejaVuSans-30"/>
      </g>
     </g>
    </g>
    <g id="text_12">
     <!-- Fraction of function,target pairs -->
     <defs>
      <path d="M 9.8125 72.90625 
L 51.703125 72.90625 
L 51.703125 64.59375 
L 19.671875 64.59375 
L 19.671875 43.109375 
L 48.578125 43.109375 
L 48.578125 34.8125 
L 19.671875 34.8125 
L 19.671875 0 
L 9.8125 0 
z
" id="DejaVuSans-46"/>
      <path d="M 41.109375 46.296875 
Q 39.59375 47.171875 37.8125 47.578125 
Q 36.03125 48 33.890625 48 
Q 26.265625 48 22.1875 43.046875 
Q 18.109375 38.09375 18.109375 28.8125 
L 18.109375 0 
L 9.078125 0 
L 9.078125 54.6875 
L 18.109375 54.6875 
L 18.109375 46.1875 
Q 20.953125 51.171875 25.484375 53.578125 
Q 30.03125 56 36.53125 56 
Q 37.453125 56 38.578125 55.875 
Q 39.703125 55.765625 41.0625 55.515625 
z
" id="DejaVuSans-72"/>
      <path d="M 48.78125 52.59375 
L 48.78125 44.1875 
Q 44.96875 46.296875 41.140625 47.34375 
Q 37.3125 48.390625 33.40625 48.390625 
Q 24.65625 48.390625 19.8125 42.84375 
Q 14.984375 37.3125 14.984375 27.296875 
Q 14.984375 17.28125 19.8125 11.734375 
Q 24.65625 6.203125 33.40625 6.203125 
Q 37.3125 6.203125 41.140625 7.25 
Q 44.96875 8.296875 48.78125 10.40625 
L 48.78125 2.09375 
Q 45.015625 0.34375 40.984375 -0.53125 
Q 36.96875 -1.421875 32.421875 -1.421875 
Q 20.0625 -1.421875 12.78125 6.34375 
Q 5.515625 14.109375 5.515625 27.296875 
Q 5.515625 40.671875 12.859375 48.328125 
Q 20.21875 56 33.015625 56 
Q 37.15625 56 41.109375 55.140625 
Q 45.0625 54.296875 48.78125 52.59375 
z
" id="DejaVuSans-63"/>
      <path d="M 18.3125 70.21875 
L 18.3125 54.6875 
L 36.8125 54.6875 
L 36.8125 47.703125 
L 18.3125 47.703125 
L 18.3125 18.015625 
Q 18.3125 11.328125 20.140625 9.421875 
Q 21.96875 7.515625 27.59375 7.515625 
L 36.8125 7.515625 
L 36.8125 0 
L 27.59375 0 
Q 17.1875 0 13.234375 3.875 
Q 9.28125 7.765625 9.28125 18.015625 
L 9.28125 47.703125 
L 2.6875 47.703125 
L 2.6875 54.6875 
L 9.28125 54.6875 
L 9.28125 70.21875 
z
" id="DejaVuSans-74"/>
      <path d="M 8.5 21.578125 
L 8.5 54.6875 
L 17.484375 54.6875 
L 17.484375 21.921875 
Q 17.484375 14.15625 20.5 10.265625 
Q 23.53125 6.390625 29.59375 6.390625 
Q 36.859375 6.390625 41.078125 11.03125 
Q 45.3125 15.671875 45.3125 23.6875 
L 45.3125 54.6875 
L 54.296875 54.6875 
L 54.296875 0 
L 45.3125 0 
L 45.3125 8.40625 
Q 42.046875 3.421875 37.71875 1 
Q 33.40625 -1.421875 27.6875 -1.421875 
Q 18.265625 -1.421875 13.375 4.4375 
Q 8.5 10.296875 8.5 21.578125 
z
M 31.109375 56 
z
" id="DejaVuSans-75"/>
      <path d="M 11.71875 12.40625 
L 22.015625 12.40625 
L 22.015625 4 
L 14.015625 -11.625 
L 7.71875 -11.625 
L 11.71875 4 
z
" id="DejaVuSans-2c"/>
      <path d="M 18.109375 8.203125 
L 18.109375 -20.796875 
L 9.078125 -20.796875 
L 9.078125 54.6875 
L 18.109375 54.6875 
L 18.109375 46.390625 
Q 20.953125 51.265625 25.265625 53.625 
Q 29.59375 56 35.59375 56 
Q 45.5625 56 51.78125 48.09375 
Q 58.015625 40.1875 58.015625 27.296875 
Q 58.015625 14.40625 51.78125 6.484375 
Q 45.5625 -1.421875 35.59375 -1.421875 
Q 29.59375 -1.421875 25.265625 0.953125 
Q 20.953125 3.328125 18.109375 8.203125 
z
M 48.6875 27.296875 
Q 48.6875 37.203125 44.609375 42.84375 
Q 40.53125 48.484375 33.40625 48.484375 
Q 26.265625 48.484375 22.1875 42.84375 
Q 18.109375 37.203125 18.109375 27.296875 
Q 18.109375 17.390625 22.1875 11.75 
Q 26.265625 6.109375 33.40625 6.109375 
Q 40.53125 6.109375 44.609375 11.75 
Q 48.6875 17.390625 48.6875 27.296875 
z
" id="DejaVuSans-70"/>
     </defs>
     <g transform="translate(16.139531 286.001989)rotate(-90)scale(0.17 -0.17)">
      <use xlink:href="#DejaVuSans-46"/>
      <use x="57.410156" xlink:href="#DejaVuSans-72"/>
      <use x="98.523438" xlink:href="#DejaVuSans-61"/>
      <use x="159.802734" xlink:href="#DejaVuSans-63"/>
      <use x="214.783203" xlink:href="#DejaVuSans-74"/>
      <use x="253.992188" xlink:href="#DejaVuSans-69"/>
      <use x="281.775391" xlink:href="#DejaVuSans-6f"/>
      <use x="342.957031" xlink:href="#DejaVuSans-6e"/>
      <use x="406.335938" xlink:href="#DejaVuSans-20"/>
      <use x="438.123047" xlink:href="#DejaVuSans-6f"/>
      <use x="499.304688" xlink:href="#DejaVuSans-66"/>
      <use x="534.509766" xlink:href="#DejaVuSans-20"/>
      <use x="566.296875" xlink:href="#DejaVuSans-66"/>
      <use x="601.501953" xlink:href="#DejaVuSans-75"/>
      <use x="664.880859" xlink:href="#DejaVuSans-6e"/>
      <use x="728.259766" xlink:href="#DejaVuSans-63"/>
      <use x="783.240234" xlink:href="#DejaVuSans-74"/>
      <use x="822.449219" xlink:href="#DejaVuSans-69"/>
      <use x="850.232422" xlink:href="#DejaVuSans-6f"/>
      <use x="911.414062" xlink:href="#DejaVuSans-6e"/>
      <use x="974.792969" xlink:href="#DejaVuSans-2c"/>
      <use x="1006.580078" xlink:href="#DejaVuSans-74"/>
      <use x="1045.789062" xlink:href="#DejaVuSans-61"/>
      <use x="1107.068359" xlink:href="#DejaVuSans-72"/>
      <use x="1148.166016" xlink:href="#DejaVuSans-67"/>
      <use x="1211.642578" xlink:href="#DejaVuSans-65"/>
      <use x="1273.166016" xlink:href="#DejaVuSans-74"/>
      <use x="1312.375" xlink:href="#DejaVuSans-20"/>
      <use x="1344.162109" xlink:href="#DejaVuSans-70"/>
      <use x="1407.638672" xlink:href="#DejaVuSans-61"/>
      <use x="1468.917969" xlink:href="#DejaVuSans-69"/>
      <use x="1496.701172" xlink:href="#DejaVuSans-72"/>
      <use x="1537.814453" xlink:href="#DejaVuSans-73"/>
     </g>
    </g>
   </g>
   <g id="line2d_41">
    <defs>
     <path d="M 0 1.5 
C 0.397805 1.5 0.77937 1.341951 1.06066 1.06066 
C 1.341951 0.77937 1.5 0.397805 1.5 0 
C 1.5 -0.397805 1.341951 -0.77937 1.06066 -1.06066 
C 0.77937 -1.341951 0.397805 -1.5 0 -1.5 
C -0.397805 -1.5 -0.77937 -1.341951 -1.06066 -1.06066 
C -1.341951 -0.77937 -1.5 -0.397805 -1.5 0 
C -1.5 0.397805 -1.341951 0.77937 -1.06066 1.06066 
C -0.77937 1.341951 -0.397805 1.5 0 1.5 
z
" id="m7762e74bbb" style="stroke:#f5deb3;"/>
    </defs>
    <g>
     <use style="fill:#f5deb3;stroke:#f5deb3;" x="153.248369" xlink:href="#m7762e74bbb" y="9.697057"/>
     <use style="fill:#f5deb3;stroke:#f5deb3;" x="153.248369" xlink:href="#m7762e74bbb" y="9.697057"/>
    </g>
   </g>
   <g id="line2d_42">
    <defs>
     <path d="M 0 1.5 
C 0.397805 1.5 0.77937 1.341951 1.06066 1.06066 
C 1.341951 0.77937 1.5 0.397805 1.5 0 
C 1.5 -0.397805 1.341951 -0.77937 1.06066 -1.06066 
C 0.77937 -1.341951 0.397805 -1.5 0 -1.5 
C -0.397805 -1.5 -0.77937 -1.341951 -1.06066 -1.06066 
C -1.341951 -0.77937 -1.5 -0.397805 -1.5 0 
C -1.5 0.397805 -1.341951 0.77937 -1.06066 1.06066 
C -0.77937 1.341951 -0.397805 1.5 0 1.5 
z
" id="m90fdcbeaf8" style="stroke:#000080;"/>
    </defs>
    <g>
     <use style="fill:#000080;stroke:#000080;" x="194.511529" xlink:href="#m90fdcbeaf8" y="99.166216"/>
     <use style="fill:#000080;stroke:#000080;" x="194.511529" xlink:href="#m90fdcbeaf8" y="99.166216"/>
    </g>
   </g>
   <g id="line2d_43">
    <path d="M 44.205749 294.88 
L 44.205749 280.341262 
L 90.753425 280.341262 
L 90.753425 280.229425 
L 94.816624 280.229425 
L 94.816624 280.117589 
L 95.698286 280.117589 
L 95.698286 280.005752 
L 96.536922 280.005752 
L 96.536922 279.893916 
L 97.336537 279.893916 
L 97.336537 279.670243 
L 98.100602 279.670243 
L 98.100602 279.558407 
L 98.832144 279.558407 
L 98.832144 279.334734 
L 99.533818 279.334734 
L 99.533818 279.222897 
L 100.856673 279.222897 
L 100.856673 278.775551 
L 101.481783 278.775551 
L 101.481783 277.769023 
L 102.084955 277.769023 
L 102.084955 277.545351 
L 102.667676 277.545351 
L 102.667676 277.098005 
L 103.231288 277.098005 
L 103.231288 276.31515 
L 103.777005 276.31515 
L 103.777005 275.97964 
L 104.305927 275.97964 
L 104.305927 275.308622 
L 104.819059 275.308622 
L 104.819059 275.196785 
L 105.317315 275.196785 
L 105.317315 272.51271 
L 105.801534 272.51271 
L 105.801534 271.618019 
L 106.272485 271.618019 
L 106.272485 270.052309 
L 106.730875 270.052309 
L 106.730875 267.703743 
L 107.177358 267.703743 
L 107.177358 263.789467 
L 107.612537 263.789467 
L 107.612537 240.527486 
L 108.036969 240.527486 
L 108.036969 239.856467 
L 108.85563 239.856467 
L 108.85563 239.297285 
L 109.250788 239.297285 
L 109.250788 238.067084 
L 109.637066 238.067084 
L 109.637066 237.284229 
L 110.014853 237.284229 
L 110.014853 235.942192 
L 110.384516 235.942192 
L 110.384516 228.11364 
L 110.746395 228.11364 
L 110.746395 227.666295 
L 111.100812 227.666295 
L 111.100812 227.554458 
L 111.448069 227.554458 
L 111.448069 227.330785 
L 111.788449 227.330785 
L 111.788449 227.107112 
L 112.122219 227.107112 
L 112.122219 226.659767 
L 112.449632 226.659767 
L 112.449632 225.988748 
L 112.770924 225.988748 
L 112.770924 224.758547 
L 113.086321 224.758547 
L 113.086321 224.646711 
L 113.396034 224.646711 
L 113.396034 224.534874 
L 113.700266 224.534874 
L 113.700266 224.311201 
L 113.999206 224.311201 
L 113.999206 222.298145 
L 114.293036 222.298145 
L 114.293036 221.403454 
L 114.581927 221.403454 
L 114.581927 221.179781 
L 114.866043 221.179781 
L 114.866043 220.732435 
L 115.145539 220.732435 
L 115.145539 219.725907 
L 115.420563 219.725907 
L 115.420563 219.166725 
L 115.691256 219.166725 
L 115.691256 219.054888 
L 115.957752 219.054888 
L 115.957752 217.601014 
L 116.220179 217.601014 
L 116.220179 217.489178 
L 116.478659 217.489178 
L 116.478659 216.818159 
L 116.73331 216.818159 
L 116.73331 216.48265 
L 116.984244 216.48265 
L 116.984244 215.923468 
L 117.231566 215.923468 
L 117.231566 215.140612 
L 117.475381 215.140612 
L 117.475381 214.693267 
L 117.715785 214.693267 
L 117.715785 214.245921 
L 117.952873 214.245921 
L 117.952873 213.574902 
L 118.186736 213.574902 
L 118.186736 213.01572 
L 118.417459 213.01572 
L 118.417459 212.344701 
L 118.645127 212.344701 
L 118.645127 211.785519 
L 118.869818 211.785519 
L 118.869818 211.1145 
L 119.09161 211.1145 
L 119.09161 210.443482 
L 119.310576 210.443482 
L 119.310576 209.101444 
L 119.526788 209.101444 
L 119.526788 208.765935 
L 119.740314 208.765935 
L 119.740314 208.318589 
L 119.95122 208.318589 
L 119.95122 207.535734 
L 120.15957 207.535734 
L 120.15957 207.423898 
L 120.365424 207.423898 
L 120.365424 206.864715 
L 120.568842 206.864715 
L 120.568842 206.305533 
L 120.769881 206.305533 
L 120.769881 205.410841 
L 120.968596 205.410841 
L 120.968596 204.51615 
L 121.16504 204.51615 
L 121.16504 203.621458 
L 121.359263 203.621458 
L 121.359263 202.95044 
L 121.551317 202.95044 
L 121.551317 202.838603 
L 121.741249 202.838603 
L 121.741249 202.055748 
L 121.929105 202.055748 
L 121.929105 201.272893 
L 122.114929 201.272893 
L 122.114929 200.378201 
L 122.298767 200.378201 
L 122.298767 197.805963 
L 122.480659 197.805963 
L 122.480659 197.134944 
L 122.660646 197.134944 
L 122.660646 196.575762 
L 122.838768 196.575762 
L 122.838768 196.128416 
L 123.015063 196.128416 
L 123.015063 195.345561 
L 123.189569 195.345561 
L 123.189569 194.339033 
L 123.36232 194.339033 
L 123.36232 193.556178 
L 123.533353 193.556178 
L 123.533353 191.990468 
L 123.7027 191.990468 
L 123.7027 191.543122 
L 123.870396 191.543122 
L 123.870396 190.312921 
L 124.036471 190.312921 
L 124.036471 189.194556 
L 124.200956 189.194556 
L 124.200956 188.523538 
L 124.363883 188.523538 
L 124.363883 188.076192 
L 124.52528 188.076192 
L 124.52528 187.1815 
L 124.685175 187.1815 
L 124.685175 186.174972 
L 124.843597 186.174972 
L 124.843597 184.944771 
L 125.000572 184.944771 
L 125.000572 183.714571 
L 125.156126 183.714571 
L 125.156126 182.708042 
L 125.310285 182.708042 
L 125.310285 181.142332 
L 125.463074 181.142332 
L 125.463074 180.135804 
L 125.614517 180.135804 
L 125.614517 178.68193 
L 125.764637 178.68193 
L 125.764637 177.675402 
L 125.913457 177.675402 
L 125.913457 176.109692 
L 126.061 176.109692 
L 126.061 174.991328 
L 126.207287 174.991328 
L 126.207287 173.872963 
L 126.352339 173.872963 
L 126.352339 173.425617 
L 126.496178 173.425617 
L 126.496178 172.307253 
L 126.638823 172.307253 
L 126.638823 171.748071 
L 126.780294 171.748071 
L 126.780294 169.846851 
L 126.92061 169.846851 
L 126.92061 167.945631 
L 127.05979 167.945631 
L 127.05979 167.498286 
L 127.197852 167.498286 
L 127.197852 166.491757 
L 127.334814 166.491757 
L 127.334814 166.156248 
L 127.470694 166.156248 
L 127.470694 165.485229 
L 127.605507 165.485229 
L 127.605507 165.373393 
L 127.739271 165.373393 
L 127.739271 163.360337 
L 127.872003 163.360337 
L 127.872003 162.241972 
L 128.003717 162.241972 
L 128.003717 160.452589 
L 128.13443 160.452589 
L 128.13443 159.557898 
L 128.264156 159.557898 
L 128.264156 158.998715 
L 128.39291 158.998715 
L 128.39291 158.327697 
L 128.520707 158.327697 
L 128.520707 157.544842 
L 128.647561 157.544842 
L 128.647561 157.097496 
L 128.773486 157.097496 
L 128.773486 156.314641 
L 128.898495 156.314641 
L 128.898495 155.531786 
L 129.022601 155.531786 
L 129.022601 154.525258 
L 129.145817 154.525258 
L 129.145817 154.301585 
L 129.268157 154.301585 
L 129.268157 153.406893 
L 129.389632 153.406893 
L 129.389632 152.959547 
L 129.510254 152.959547 
L 129.510254 152.735874 
L 129.630036 152.735874 
L 129.630036 152.288529 
L 129.748989 152.288529 
L 129.748989 151.61751 
L 129.867125 151.61751 
L 129.867125 150.610982 
L 129.984454 150.610982 
L 129.984454 149.71629 
L 130.100987 149.71629 
L 130.100987 149.045272 
L 130.216736 149.045272 
L 130.216736 148.374253 
L 130.33171 148.374253 
L 130.33171 147.815071 
L 130.445921 147.815071 
L 130.445921 147.479561 
L 130.559378 147.479561 
L 130.559378 146.920379 
L 130.67209 146.920379 
L 130.67209 146.361197 
L 130.784069 146.361197 
L 130.784069 145.802015 
L 130.895323 145.802015 
L 131.005861 143.453449 
L 131.115693 143.453449 
L 131.224827 142.223248 
L 131.333273 142.223248 
L 131.441039 140.993047 
L 131.548134 140.993047 
L 131.654565 140.433865 
L 131.760342 140.433865 
L 131.865471 139.874683 
L 131.969962 139.874683 
L 132.073821 138.979991 
L 132.177056 138.979991 
L 132.279675 138.420809 
L 132.381685 138.420809 
L 132.483094 130.480421 
L 132.583907 130.480421 
L 132.684132 130.033075 
L 132.783777 130.033075 
L 132.882847 129.473893 
L 132.98135 129.473893 
L 133.079291 128.914711 
L 133.176677 128.914711 
L 133.273515 125.895127 
L 133.465568 125.895127 
L 133.560797 125.447781 
L 133.843356 125.447781 
L 133.936519 125.224108 
L 134.121345 125.224108 
L 134.121345 125.112272 
L 134.304205 125.112272 
L 134.304205 125.000435 
L 134.485139 125.000435 
L 134.485139 124.888599 
L 134.753019 124.888599 
L 134.841393 124.664926 
L 135.701004 124.664926 
L 135.701004 124.553089 
L 135.867885 124.553089 
L 135.950722 123.882071 
L 136.033161 123.882071 
L 136.033161 123.770234 
L 136.196864 123.770234 
L 136.196864 123.658398 
L 136.519665 123.658398 
L 136.519665 123.546561 
L 136.67882 123.546561 
L 136.757848 123.322888 
L 136.836515 123.322888 
L 136.836515 122.987379 
L 137.070377 122.987379 
L 137.070377 122.763706 
L 137.301101 122.763706 
L 137.377325 122.31636 
L 137.453213 122.31636 
L 137.528768 121.869015 
L 137.603992 121.869015 
L 137.678888 121.533505 
L 137.753459 121.533505 
L 137.753459 121.421669 
L 138.04855 121.421669 
L 138.121538 120.974323 
L 138.194217 120.974323 
L 138.194217 120.75065 
L 138.33866 120.75065 
L 138.410429 120.526977 
L 138.4819 120.526977 
L 138.553074 120.079632 
L 138.623956 120.079632 
L 138.694545 119.744122 
L 138.764847 119.744122 
L 138.834862 119.296776 
L 138.904592 119.296776 
L 138.974042 118.737594 
L 139.043211 118.737594 
L 139.043211 118.513921 
L 139.180721 118.513921 
L 139.180721 118.402085 
L 139.317139 118.402085 
L 139.384945 117.954739 
L 139.452484 117.954739 
L 139.452484 117.842903 
L 139.720016 117.842903 
L 139.720016 117.731066 
L 140.048681 117.731066 
L 140.048681 117.61923 
L 140.307161 117.61923 
L 140.371179 117.395557 
L 140.498503 117.395557 
L 140.561812 117.060047 
L 140.687737 117.060047 
L 140.687737 116.948211 
L 140.874911 116.948211 
L 140.874911 116.836375 
L 141.303883 116.836375 
L 141.3643 116.612702 
L 141.66324 116.612702 
L 141.66324 116.389029 
L 141.95707 116.389029 
L 141.95707 116.165356 
L 142.130987 116.165356 
L 142.18857 115.941683 
L 142.245962 115.941683 
L 142.303162 114.1523 
L 142.416994 114.1523 
L 142.416994 114.040463 
L 142.586342 114.040463 
L 142.642422 112.698426 
L 142.69832 112.698426 
L 142.69832 112.586589 
L 142.864932 112.586589 
L 142.864932 112.474753 
L 143.193387 112.474753 
L 143.193387 112.362917 
L 143.35529 112.362917 
L 143.35529 112.25108 
L 143.621786 112.25108 
L 143.621786 112.139244 
L 144.447825 112.139244 
L 144.447825 112.027407 
L 145.804252 112.027407 
L 145.897164 111.803734 
L 146.127269 111.803734 
L 146.127269 111.691898 
L 146.39939 111.691898 
L 146.39939 111.580061 
L 146.887358 111.580061 
L 146.887358 111.468225 
L 147.147797 111.468225 
L 147.147797 111.356389 
L 147.276552 111.356389 
L 147.276552 111.244552 
L 147.698898 111.244552 
L 147.740567 111.020879 
L 147.947413 111.020879 
L 147.988485 110.797206 
L 148.232877 110.797206 
L 148.232877 110.68537 
L 148.353782 110.68537 
L 148.433916 109.790678 
L 148.711478 109.790678 
L 148.711478 109.343332 
L 148.945872 109.343332 
L 148.945872 109.231496 
L 150.072167 109.231496 
L 150.108469 109.007823 
L 151.400405 109.007823 
L 151.400405 108.895987 
L 151.567774 108.895987 
L 151.567774 108.78415 
L 152.539141 108.78415 
L 152.539141 108.672314 
L 152.726997 108.672314 
L 152.726997 108.560477 
L 152.943598 108.560477 
L 153.035598 107.777622 
L 153.096659 107.777622 
L 153.187846 107.442113 
L 153.488354 107.442113 
L 153.488354 107.330276 
L 153.666169 107.330276 
L 153.666169 107.21844 
L 154.045238 107.21844 
L 154.045238 107.106604 
L 154.331245 107.106604 
L 154.331245 106.994767 
L 154.528656 106.994767 
L 154.528656 106.882931 
L 154.834363 106.882931 
L 154.834363 106.771094 
L 155.05333 106.771094 
L 155.05333 106.659258 
L 155.376636 106.659258 
L 155.376636 106.547421 
L 156.031271 106.547421 
L 156.031271 106.435585 
L 156.562529 106.435585 
L 156.562529 106.323748 
L 157.005179 106.323748 
L 157.005179 106.211912 
L 158.625765 106.211912 
L 158.625765 106.100075 
L 158.757817 106.100075 
L 158.757817 105.988239 
L 158.954011 105.988239 
L 159.040495 105.764566 
L 159.233507 105.764566 
L 159.233507 105.65273 
L 159.529506 105.65273 
L 159.613149 105.429057 
L 160.507322 105.429057 
L 160.507322 105.31722 
L 160.860123 105.31722 
L 160.860123 105.205384 
L 161.78538 105.205384 
L 161.78538 105.093547 
L 162.058944 105.093547 
L 162.058944 104.981711 
L 163.026335 104.981711 
L 163.026335 104.869875 
L 163.196521 104.869875 
L 163.196521 104.758038 
L 163.828282 104.758038 
L 163.828282 104.646202 
L 164.151691 104.646202 
L 164.151691 104.534365 
L 164.516239 104.534365 
L 164.516239 104.422529 
L 164.765354 104.422529 
L 164.85785 104.198856 
L 166.316261 104.198856 
L 166.316261 104.087019 
L 167.210629 104.087019 
L 167.210629 103.975183 
L 167.764723 103.975183 
L 167.764723 103.863347 
L 168.009635 103.863347 
L 168.009635 103.75151 
L 168.711821 103.75151 
L 168.711821 103.639674 
L 169.172475 103.639674 
L 169.172475 103.527837 
L 169.327275 103.527837 
L 169.327275 103.416001 
L 170.024207 103.416001 
L 170.115032 103.192328 
L 170.462515 103.192328 
L 170.462515 103.080491 
L 170.737715 103.080491 
L 170.846573 102.856818 
L 170.94396 102.856818 
L 170.94396 102.744982 
L 171.600256 102.744982 
L 171.672803 102.521309 
L 172.01075 102.521309 
L 172.01075 102.409473 
L 173.195967 102.409473 
L 173.195967 102.297636 
L 173.505511 102.297636 
L 173.505511 102.1858 
L 173.736359 102.1858 
L 173.80958 101.962127 
L 174.072422 101.962127 
L 174.117336 101.738454 
L 175.127698 101.738454 
L 175.127698 101.626618 
L 175.337882 101.626618 
L 175.337882 101.514781 
L 175.677115 101.514781 
L 175.677115 101.402945 
L 176.367644 101.402945 
L 176.367644 101.291108 
L 178.067316 101.291108 
L 178.067316 101.179272 
L 179.371149 101.179272 
L 179.371149 101.067435 
L 181.651496 101.067435 
L 181.651496 100.955599 
L 182.006622 100.955599 
L 182.006622 100.843762 
L 182.895935 100.843762 
L 182.965775 100.62009 
L 183.194782 100.62009 
L 183.194782 100.508253 
L 184.741893 100.508253 
L 184.828705 100.28458 
L 186.487499 100.28458 
L 186.487499 100.172744 
L 187.45152 100.172744 
L 187.49277 99.837234 
L 187.911976 99.837234 
L 187.911976 99.725398 
L 188.74391 99.725398 
L 188.74391 99.613561 
L 191.563991 99.613561 
L 191.563991 99.501725 
L 193.551272 99.501725 
L 193.551272 99.389889 
L 193.704087 99.389889 
L 193.704087 99.278052 
L 194.511529 99.278052 
L 194.511529 99.166216 
L 333.168 99.166216 
L 333.168 99.166216 
" style="fill:none;stroke:#000080;stroke-linecap:square;stroke-width:1.5;"/>
   </g>
   <g id="line2d_44">
    <defs>
     <path d="M 0 6 
C 1.591219 6 3.117479 5.367802 4.242641 4.242641 
C 5.367802 3.117479 6 1.591219 6 0 
C 6 -1.591219 5.367802 -3.117479 4.242641 -4.242641 
C 3.117479 -5.367802 1.591219 -6 0 -6 
C -1.591219 -6 -3.117479 -5.367802 -4.242641 -4.242641 
C -5.367802 -3.117479 -6 -1.591219 -6 0 
C -6 1.591219 -5.367802 3.117479 -4.242641 4.242641 
C -3.117479 5.367802 -1.591219 6 0 6 
z
" id="mdf912ca571" style="stroke:#000080;stroke-width:1.5;"/>
    </defs>
    <g>
     <use style="fill:none;stroke:#000080;stroke-width:1.5;" x="125.310285" xlink:href="#mdf912ca571" y="181.142332"/>
     <use style="fill:none;stroke:#000080;stroke-width:1.5;" x="176.367644" xlink:href="#mdf912ca571" y="101.291108"/>
     <use style="fill:none;stroke:#000080;stroke-width:1.5;" x="194.511529" xlink:href="#mdf912ca571" y="99.278052"/>
     <use style="fill:none;stroke:#000080;stroke-width:1.5;" x="194.511529" xlink:href="#mdf912ca571" y="99.166216"/>
     <use style="fill:none;stroke:#000080;stroke-width:1.5;" x="194.511529" xlink:href="#mdf912ca571" y="99.166216"/>
     <use style="fill:none;stroke:#000080;stroke-width:1.5;" x="333.168" xlink:href="#mdf912ca571" y="99.166216"/>
    </g>
   </g>
   <g id="line2d_45">
    <path style="fill:none;stroke:#000080;stroke-linecap:square;stroke-width:1.5;"/>
    <g/>
   </g>
   <g id="line2d_46">
    <path clip-path="url(#p62b199c37f)" d="M 124.685175 186.174972 
" style="fill:none;stroke:#000080;stroke-linecap:square;stroke-width:1.5;"/>
    <defs>
     <path d="M -12 12 
L 12 -12 
M -12 -12 
L 12 12 
" id="m671c05d736" style="stroke:#000080;"/>
    </defs>
    <g clip-path="url(#p62b199c37f)">
     <use style="fill:#000080;stroke:#000080;" x="124.685175" xlink:href="#m671c05d736" y="186.174972"/>
    </g>
   </g>
   <g id="line2d_47">
    <defs>
     <path d="M 0 1.5 
C 0.397805 1.5 0.77937 1.341951 1.06066 1.06066 
C 1.341951 0.77937 1.5 0.397805 1.5 0 
C 1.5 -0.397805 1.341951 -0.77937 1.06066 -1.06066 
C 0.77937 -1.341951 0.397805 -1.5 0 -1.5 
C -0.397805 -1.5 -0.77937 -1.341951 -1.06066 -1.06066 
C -1.341951 -0.77937 -1.5 -0.397805 -1.5 0 
C -1.5 0.397805 -1.341951 0.77937 -1.06066 1.06066 
C -0.77937 1.341951 -0.397805 1.5 0 1.5 
z
" id="mbd60a3a28f" style="stroke:#ff00ff;"/>
    </defs>
    <g>
     <use style="fill:#ff00ff;stroke:#ff00ff;" x="198.945624" xlink:href="#mbd60a3a28f" y="99.166216"/>
     <use style="fill:#ff00ff;stroke:#ff00ff;" x="198.945624" xlink:href="#mbd60a3a28f" y="99.166216"/>
    </g>
   </g>
   <g id="line2d_48">
    <path d="M 44.205749 294.88 
L 44.205749 280.564935 
L 92.904808 280.564935 
L 92.904808 280.229425 
L 97.336537 280.229425 
L 97.336537 280.005752 
L 98.100602 280.005752 
L 98.100602 279.670243 
L 98.832144 279.670243 
L 98.832144 279.44657 
L 99.533818 279.44657 
L 99.533818 279.334734 
L 100.207968 279.334734 
L 100.207968 279.222897 
L 100.856673 279.222897 
L 100.856673 278.775551 
L 101.481783 278.775551 
L 101.481783 278.104533 
L 102.084955 278.104533 
L 102.084955 277.88086 
L 102.667676 277.88086 
L 102.667676 277.769023 
L 103.231288 277.769023 
L 103.231288 276.986168 
L 103.777005 276.986168 
L 103.777005 276.538822 
L 104.305927 276.538822 
L 104.305927 275.97964 
L 105.317315 275.97964 
L 105.317315 273.631075 
L 105.801534 273.631075 
L 105.801534 272.960056 
L 106.272485 272.960056 
L 106.272485 271.058837 
L 106.730875 271.058837 
L 106.730875 268.598435 
L 107.177358 268.598435 
L 107.177358 264.460486 
L 107.612537 264.460486 
L 107.612537 243.658907 
L 108.036969 243.658907 
L 108.036969 243.099724 
L 108.451173 243.099724 
L 108.451173 242.987888 
L 108.85563 242.987888 
L 108.85563 242.540542 
L 109.250788 242.540542 
L 109.250788 241.869524 
L 109.637066 241.869524 
L 109.637066 241.198505 
L 110.014853 241.198505 
L 110.014853 239.744631 
L 110.384516 239.744631 
L 110.384516 230.909552 
L 110.746395 230.909552 
L 110.746395 230.350369 
L 111.100812 230.350369 
L 111.100812 230.238533 
L 111.448069 230.238533 
L 111.448069 230.01486 
L 111.788449 230.01486 
L 111.788449 229.679351 
L 112.122219 229.679351 
L 112.122219 229.232005 
L 112.449632 229.232005 
L 112.449632 228.784659 
L 112.770924 228.784659 
L 112.770924 228.001804 
L 113.086321 228.001804 
L 113.086321 227.666295 
L 113.396034 227.666295 
L 113.396034 227.554458 
L 113.700266 227.554458 
L 113.700266 227.330785 
L 113.999206 227.330785 
L 113.999206 224.870383 
L 114.293036 224.870383 
L 114.293036 224.087528 
L 114.581927 224.087528 
L 114.581927 223.975692 
L 114.866043 223.975692 
L 114.866043 222.745491 
L 115.145539 222.745491 
L 115.145539 221.962636 
L 115.420563 221.962636 
L 115.420563 221.291617 
L 115.957752 221.291617 
L 115.957752 219.61407 
L 116.478659 219.61407 
L 116.478659 219.166725 
L 116.73331 219.166725 
L 116.73331 218.831215 
L 116.984244 218.831215 
L 116.984244 218.495706 
L 117.231566 218.495706 
L 117.231566 217.712851 
L 117.475381 217.712851 
L 117.475381 217.153669 
L 117.715785 217.153669 
L 117.715785 216.706323 
L 117.952873 216.706323 
L 117.952873 215.699795 
L 118.186736 215.699795 
L 118.186736 215.364285 
L 118.417459 215.364285 
L 118.417459 214.805103 
L 118.645127 214.805103 
L 118.645127 214.357757 
L 118.869818 214.357757 
L 118.869818 213.798575 
L 119.09161 213.798575 
L 119.09161 213.351229 
L 119.310576 213.351229 
L 119.310576 211.673683 
L 119.526788 211.673683 
L 119.526788 211.338173 
L 119.740314 211.338173 
L 119.740314 210.890827 
L 119.95122 210.890827 
L 119.95122 210.219809 
L 120.15957 210.219809 
L 120.15957 209.996136 
L 120.365424 209.996136 
L 120.365424 208.989608 
L 120.568842 208.989608 
L 120.568842 208.094916 
L 120.769881 208.094916 
L 120.769881 207.088388 
L 120.968596 207.088388 
L 120.968596 206.529206 
L 121.16504 206.529206 
L 121.16504 205.522678 
L 121.359263 205.522678 
L 121.359263 204.963496 
L 121.551317 204.963496 
L 121.551317 204.739823 
L 121.741249 204.739823 
L 121.741249 203.956968 
L 121.929105 203.956968 
L 121.929105 202.838603 
L 122.114929 202.838603 
L 122.114929 201.608402 
L 122.298767 201.608402 
L 122.298767 199.148 
L 122.480659 199.148 
L 122.480659 198.476982 
L 122.660646 198.476982 
L 122.660646 197.917799 
L 122.838768 197.917799 
L 122.838768 197.58229 
L 123.015063 197.58229 
L 123.015063 196.352089 
L 123.189569 196.352089 
L 123.189569 195.345561 
L 123.36232 195.345561 
L 123.36232 194.674542 
L 123.533353 194.674542 
L 123.533353 193.556178 
L 123.7027 193.556178 
L 123.7027 193.108832 
L 123.870396 193.108832 
L 123.870396 192.214141 
L 124.036471 192.214141 
L 124.036471 191.095776 
L 124.200956 191.095776 
L 124.200956 190.424757 
L 124.363883 190.424757 
L 124.363883 189.977412 
L 124.52528 189.977412 
L 124.52528 189.08272 
L 124.685175 189.08272 
L 124.685175 187.852519 
L 124.843597 187.852519 
L 124.843597 186.957828 
L 125.000572 186.957828 
L 125.000572 185.951299 
L 125.156126 185.951299 
L 125.156126 184.944771 
L 125.310285 184.944771 
L 125.310285 183.043552 
L 125.463074 183.043552 
L 125.463074 182.037024 
L 125.614517 182.037024 
L 125.614517 180.694986 
L 125.764637 180.694986 
L 125.764637 179.800295 
L 125.913457 179.800295 
L 125.913457 178.68193 
L 126.061 178.68193 
L 126.061 177.563566 
L 126.207287 177.563566 
L 126.207287 176.109692 
L 126.352339 176.109692 
L 126.352339 175.886019 
L 126.496178 175.886019 
L 126.496178 174.432145 
L 126.638823 174.432145 
L 126.638823 173.761127 
L 126.780294 173.761127 
L 126.780294 171.859907 
L 126.92061 171.859907 
L 126.92061 169.958687 
L 127.05979 169.958687 
L 127.05979 169.399505 
L 127.197852 169.399505 
L 127.197852 168.169304 
L 127.334814 168.169304 
L 127.334814 167.721958 
L 127.470694 167.721958 
L 127.470694 167.386449 
L 127.605507 167.386449 
L 127.605507 166.939103 
L 127.739271 166.939103 
L 127.739271 164.926047 
L 127.872003 164.926047 
L 127.872003 164.031356 
L 128.003717 164.031356 
L 128.003717 162.353809 
L 128.13443 162.353809 
L 128.13443 161.347281 
L 128.264156 161.347281 
L 128.264156 161.011772 
L 128.39291 161.011772 
L 128.39291 160.452589 
L 128.520707 160.452589 
L 128.520707 159.669734 
L 128.647561 159.669734 
L 128.647561 159.222388 
L 128.773486 159.222388 
L 128.773486 158.327697 
L 128.898495 158.327697 
L 128.898495 157.544842 
L 129.022601 157.544842 
L 129.022601 156.761987 
L 129.145817 156.761987 
L 129.145817 156.314641 
L 129.268157 156.314641 
L 129.268157 155.531786 
L 129.389632 155.531786 
L 129.389632 154.74893 
L 129.510254 154.74893 
L 129.510254 154.525258 
L 129.630036 154.525258 
L 129.630036 153.630566 
L 129.748989 153.630566 
L 129.748989 153.071384 
L 129.867125 153.071384 
L 129.867125 151.61751 
L 129.984454 151.61751 
L 129.984454 150.610982 
L 130.100987 150.610982 
L 130.100987 150.275473 
L 130.216736 150.275473 
L 130.216736 149.604454 
L 130.33171 149.604454 
L 130.33171 148.709762 
L 130.445921 148.709762 
L 130.445921 148.374253 
L 130.559378 148.374253 
L 130.559378 147.926907 
L 130.67209 147.926907 
L 130.67209 147.591398 
L 130.784069 147.591398 
L 130.784069 146.808543 
L 130.895323 146.808543 
L 131.005861 145.019159 
L 131.115693 145.019159 
L 131.224827 144.124468 
L 131.333273 144.124468 
L 131.441039 143.006103 
L 131.548134 143.006103 
L 131.654565 142.446921 
L 131.760342 142.446921 
L 131.865471 141.775902 
L 131.969962 141.775902 
L 132.073821 140.881211 
L 132.177056 140.881211 
L 132.279675 140.545702 
L 132.381685 140.545702 
L 132.483094 131.375113 
L 132.583907 131.375113 
L 132.583907 131.15144 
L 132.783777 131.15144 
L 132.882847 130.256748 
L 132.98135 130.256748 
L 133.079291 129.58573 
L 133.176677 129.58573 
L 133.273515 126.566145 
L 133.465568 126.566145 
L 133.560797 126.230636 
L 133.6555 126.230636 
L 133.6555 126.1188 
L 133.843356 126.1188 
L 133.936519 125.78329 
L 134.121345 125.78329 
L 134.121345 125.559617 
L 134.304205 125.559617 
L 134.304205 125.447781 
L 134.485139 125.447781 
L 134.485139 125.335945 
L 134.664189 125.335945 
L 134.664189 125.112272 
L 134.841393 125.112272 
L 134.929315 124.776762 
L 135.016789 124.776762 
L 135.10382 124.441253 
L 135.190413 124.441253 
L 135.276571 124.21758 
L 135.616951 124.21758 
L 135.701004 123.882071 
L 135.784647 123.882071 
L 135.784647 123.770234 
L 135.950722 123.770234 
L 136.033161 123.322888 
L 136.196864 123.322888 
L 136.196864 123.099216 
L 136.439531 123.099216 
L 136.439531 122.987379 
L 136.599426 122.987379 
L 136.67882 122.540033 
L 136.757848 122.540033 
L 136.836515 122.092688 
L 137.14763 122.092688 
L 137.224536 121.869015 
L 137.377325 121.869015 
L 137.377325 121.757178 
L 137.528768 121.757178 
L 137.603992 120.862487 
L 137.678888 120.862487 
L 137.678888 120.75065 
L 137.827708 120.75065 
L 137.901638 120.526977 
L 137.975251 120.526977 
L 138.04855 119.967795 
L 138.121538 119.967795 
L 138.121538 119.744122 
L 138.266591 119.744122 
L 138.33866 119.520449 
L 138.410429 119.520449 
L 138.410429 119.408613 
L 138.553074 119.408613 
L 138.623956 119.18494 
L 138.764847 119.18494 
L 138.834862 118.737594 
L 138.974042 118.737594 
L 139.043211 118.513921 
L 139.249066 118.513921 
L 139.317139 118.290248 
L 139.452484 118.290248 
L 139.452484 118.178412 
L 139.786254 118.178412 
L 139.852237 117.954739 
L 139.917968 117.954739 
L 139.983449 117.731066 
L 140.242905 117.731066 
L 140.242905 117.61923 
L 140.434959 117.61923 
L 140.498503 117.395557 
L 140.62489 117.395557 
L 140.687737 117.171884 
L 140.750355 117.171884 
L 140.750355 117.060047 
L 141.484501 117.060047 
L 141.484501 116.948211 
L 141.66324 116.948211 
L 141.66324 116.836375 
L 141.781376 116.836375 
L 141.781376 116.724538 
L 142.015238 116.724538 
L 142.015238 116.612702 
L 142.18857 116.612702 
L 142.245962 113.369445 
L 142.473629 113.369445 
L 142.473629 113.257608 
L 142.642422 113.257608 
L 142.642422 112.139244 
L 143.084598 112.139244 
L 143.084598 112.027407 
L 143.301492 112.027407 
L 143.35529 111.803734 
L 143.674593 111.803734 
L 143.727238 111.580061 
L 143.988072 111.580061 
L 144.091308 111.132716 
L 144.295937 111.132716 
L 144.295937 111.020879 
L 145.284061 111.020879 
L 145.284061 110.797206 
L 145.897164 110.797206 
L 145.989576 110.461697 
L 146.309161 110.461697 
L 146.309161 110.349861 
L 146.755644 110.349861 
L 146.755644 110.238024 
L 146.887358 110.238024 
L 146.887358 110.126188 
L 147.061422 110.126188 
L 147.061422 110.014351 
L 147.190823 110.014351 
L 147.276552 109.790678 
L 147.57328 109.790678 
L 147.57328 109.678842 
L 147.698898 109.678842 
L 147.740567 109.455169 
L 147.906242 109.455169 
L 147.906242 109.343332 
L 148.029459 109.343332 
L 148.029459 109.231496 
L 148.393896 109.231496 
L 148.473843 108.560477 
L 148.711478 108.560477 
L 148.711478 108.336804 
L 149.253506 108.336804 
L 149.253506 108.224968 
L 149.480672 108.224968 
L 149.480672 108.113132 
L 149.741959 108.113132 
L 149.741959 108.001295 
L 150.216915 108.001295 
L 150.216915 107.889459 
L 150.538207 107.889459 
L 150.538207 107.777622 
L 150.818844 107.777622 
L 150.818844 107.553949 
L 151.332999 107.553949 
L 151.332999 107.442113 
L 151.567774 107.442113 
L 151.567774 107.330276 
L 152.124937 107.330276 
L 152.124937 107.21844 
L 152.507631 107.21844 
L 152.601988 106.994767 
L 152.88199 106.994767 
L 152.97432 106.659258 
L 154.217413 106.659258 
L 154.302858 106.323748 
L 155.296378 106.323748 
L 155.296378 106.211912 
L 156.005559 106.211912 
L 156.056945 105.988239 
L 156.336855 105.988239 
L 156.336855 105.876403 
L 156.686635 105.876403 
L 156.711349 105.65273 
L 156.907793 105.65273 
L 156.956555 105.205384 
L 157.578187 105.205384 
L 157.578187 105.093547 
L 158.470412 105.093547 
L 158.537164 104.869875 
L 158.691918 104.869875 
L 158.779727 104.646202 
L 159.613149 104.646202 
L 159.654819 104.422529 
L 159.758552 104.422529 
L 159.758552 104.310692 
L 160.247941 104.310692 
L 160.247941 104.198856 
L 160.566627 104.198856 
L 160.566627 104.087019 
L 161.637678 104.087019 
L 161.637678 103.975183 
L 161.78538 103.975183 
L 161.78538 103.863347 
L 162.077028 103.863347 
L 162.077028 103.75151 
L 162.505428 103.75151 
L 162.505428 103.639674 
L 162.819862 103.639674 
L 162.923409 103.304164 
L 163.04343 103.304164 
L 163.04343 103.192328 
L 163.24725 103.192328 
L 163.24725 103.080491 
L 163.68074 103.080491 
L 163.68074 102.968655 
L 164.453392 102.968655 
L 164.453392 102.856818 
L 165.959489 102.856818 
L 165.959489 102.744982 
L 166.202898 102.744982 
L 166.202898 102.633146 
L 167.224031 102.633146 
L 167.224031 102.521309 
L 168.276328 102.521309 
L 168.276328 102.409473 
L 168.858629 102.409473 
L 168.858629 102.297636 
L 169.609448 102.297636 
L 169.609448 102.1858 
L 169.921451 102.1858 
L 170.001425 101.962127 
L 171.008579 101.962127 
L 171.008579 101.85029 
L 171.745046 101.85029 
L 171.745046 101.738454 
L 172.716074 101.738454 
L 172.822806 101.514781 
L 173.120079 101.514781 
L 173.120079 101.402945 
L 173.393594 101.402945 
L 173.440315 101.179272 
L 174.577615 101.179272 
L 174.656042 100.955599 
L 174.785965 100.955599 
L 174.785965 100.843762 
L 175.693493 100.843762 
L 175.693493 100.731926 
L 175.937308 100.731926 
L 175.937308 100.62009 
L 176.05793 100.62009 
L 176.05793 100.508253 
L 176.625419 100.508253 
L 176.625419 100.396417 
L 177.069318 100.396417 
L 177.069318 100.28458 
L 178.976759 100.28458 
L 178.976759 100.172744 
L 181.80705 100.172744 
L 181.829976 99.949071 
L 182.525922 99.949071 
L 182.525922 99.837234 
L 182.960412 99.837234 
L 182.960412 99.725398 
L 183.838588 99.725398 
L 183.838588 99.613561 
L 184.766052 99.613561 
L 184.766052 99.501725 
L 185.89197 99.501725 
L 185.89197 99.389889 
L 194.025432 99.389889 
L 194.025432 99.278052 
L 198.945624 99.278052 
L 198.945624 99.166216 
L 333.168 99.166216 
L 333.168 99.166216 
" style="fill:none;stroke:#ff00ff;stroke-linecap:square;stroke-width:1.5;"/>
   </g>
   <g id="line2d_49">
    <defs>
     <path d="M -0 8.485281 
L 5.091169 0 
L 0 -8.485281 
L -5.091169 -0 
z
" id="m2510594810" style="stroke:#ff00ff;stroke-linejoin:miter;stroke-width:1.5;"/>
    </defs>
    <g>
     <use style="fill:none;stroke:#ff00ff;stroke-linejoin:miter;stroke-width:1.5;" x="103.777005" xlink:href="#m2510594810" y="276.538822"/>
     <use style="fill:none;stroke:#ff00ff;stroke-linejoin:miter;stroke-width:1.5;" x="132.483094" xlink:href="#m2510594810" y="139.539173"/>
     <use style="fill:none;stroke:#ff00ff;stroke-linejoin:miter;stroke-width:1.5;" x="185.89197" xlink:href="#m2510594810" y="99.389889"/>
     <use style="fill:none;stroke:#ff00ff;stroke-linejoin:miter;stroke-width:1.5;" x="198.945624" xlink:href="#m2510594810" y="99.166216"/>
     <use style="fill:none;stroke:#ff00ff;stroke-linejoin:miter;stroke-width:1.5;" x="198.945624" xlink:href="#m2510594810" y="99.166216"/>
     <use style="fill:none;stroke:#ff00ff;stroke-linejoin:miter;stroke-width:1.5;" x="333.168" xlink:href="#m2510594810" y="99.166216"/>
    </g>
   </g>
   <g id="line2d_50">
    <path style="fill:none;stroke:#ff00ff;stroke-linecap:square;stroke-width:1.5;"/>
    <g/>
   </g>
   <g id="line2d_51">
    <path clip-path="url(#p62b199c37f)" d="M 124.685175 187.852519 
" style="fill:none;stroke:#ff00ff;stroke-linecap:square;stroke-width:1.5;"/>
    <defs>
     <path d="M -12 12 
L 12 -12 
M -12 -12 
L 12 12 
" id="m1b6dcf8fa1" style="stroke:#ff00ff;"/>
    </defs>
    <g clip-path="url(#p62b199c37f)">
     <use style="fill:#ff00ff;stroke:#ff00ff;" x="124.685175" xlink:href="#m1b6dcf8fa1" y="187.852519"/>
    </g>
   </g>
   <g id="line2d_52">
    <path d="M 333.168 99.166216 
L 363.64328 289.176341 
" style="fill:none;stroke:#ff00ff;stroke-linecap:square;stroke-width:1.5;"/>
    <g>
     <use style="fill:none;stroke:#ff00ff;stroke-linejoin:miter;stroke-width:1.5;" x="333.168" xlink:href="#m2510594810" y="99.166216"/>
     <use style="fill:none;stroke:#ff00ff;stroke-linejoin:miter;stroke-width:1.5;" x="363.64328" xlink:href="#m2510594810" y="289.176341"/>
    </g>
   </g>
   <g id="line2d_53">
    <path d="M 333.168 99.166216 
L 363.64328 152.288529 
" style="fill:none;stroke:#000080;stroke-linecap:square;stroke-width:1.5;"/>
    <g>
     <use style="fill:none;stroke:#000080;stroke-width:1.5;" x="333.168" xlink:href="#mdf912ca571" y="99.166216"/>
     <use style="fill:none;stroke:#000080;stroke-width:1.5;" x="363.64328" xlink:href="#mdf912ca571" y="152.288529"/>
    </g>
   </g>
   <g id="line2d_54">
    <path d="M 333.168 294.88 
L 333.168 9.697057 
" style="fill:none;stroke:#000000;stroke-linecap:square;stroke-width:1.5;"/>
   </g>
   <g id="patch_3">
    <path d="M 56.12 294.88 
L 56.12 6.845228 
" style="fill:none;stroke:#000000;stroke-linecap:square;stroke-linejoin:miter;stroke-width:0.8;"/>
   </g>
   <g id="patch_4">
    <path d="M 333.168 294.88 
L 333.168 6.845228 
" style="fill:none;stroke:#000000;stroke-linecap:square;stroke-linejoin:miter;stroke-width:0.8;"/>
   </g>
   <g id="patch_5">
    <path d="M 56.12 294.88 
L 333.168 294.88 
" style="fill:none;stroke:#000000;stroke-linecap:square;stroke-linejoin:miter;stroke-width:0.8;"/>
   </g>
   <g id="patch_6">
    <path d="M 56.12 6.845228 
L 333.168 6.845228 
" style="fill:none;stroke:#000000;stroke-linecap:square;stroke-linejoin:miter;stroke-width:0.8;"/>
   </g>
   <g id="text_13">
    <!-- scipy-opt -->
    <defs>
     <path d="M 32.171875 -5.078125 
Q 28.375 -14.84375 24.75 -17.8125 
Q 21.140625 -20.796875 15.09375 -20.796875 
L 7.90625 -20.796875 
L 7.90625 -13.28125 
L 13.1875 -13.28125 
Q 16.890625 -13.28125 18.9375 -11.515625 
Q 21 -9.765625 23.484375 -3.21875 
L 25.09375 0.875 
L 2.984375 54.6875 
L 12.5 54.6875 
L 29.59375 11.921875 
L 46.6875 54.6875 
L 56.203125 54.6875 
z
" id="DejaVuSans-79"/>
    </defs>
    <g transform="translate(369.18424 293.867279)scale(0.17 -0.17)">
     <use xlink:href="#DejaVuSans-73"/>
     <use x="52.099609" xlink:href="#DejaVuSans-63"/>
     <use x="107.080078" xlink:href="#DejaVuSans-69"/>
     <use x="134.863281" xlink:href="#DejaVuSans-70"/>
     <use x="198.339844" xlink:href="#DejaVuSans-79"/>
     <use x="257.503906" xlink:href="#DejaVuSans-2d"/>
     <use x="293.603516" xlink:href="#DejaVuSans-6f"/>
     <use x="354.785156" xlink:href="#DejaVuSans-70"/>
     <use x="418.261719" xlink:href="#DejaVuSans-74"/>
    </g>
   </g>
   <g id="text_14">
    <!-- scipyAlg -->
    <defs>
     <path d="M 34.1875 63.1875 
L 20.796875 26.90625 
L 47.609375 26.90625 
z
M 28.609375 72.90625 
L 39.796875 72.90625 
L 67.578125 0 
L 57.328125 0 
L 50.6875 18.703125 
L 17.828125 18.703125 
L 11.1875 0 
L 0.78125 0 
z
" id="DejaVuSans-41"/>
    </defs>
    <g transform="translate(369.18424 156.979466)scale(0.17 -0.17)">
     <use xlink:href="#DejaVuSans-73"/>
     <use x="52.099609" xlink:href="#DejaVuSans-63"/>
     <use x="107.080078" xlink:href="#DejaVuSans-69"/>
     <use x="134.863281" xlink:href="#DejaVuSans-70"/>
     <use x="198.339844" xlink:href="#DejaVuSans-79"/>
     <use x="257.519531" xlink:href="#DejaVuSans-41"/>
     <use x="325.927734" xlink:href="#DejaVuSans-6c"/>
     <use x="353.710938" xlink:href="#DejaVuSans-67"/>
    </g>
   </g>
   <g id="text_15">
    <!-- best 2009 -->
    <defs>
     <path d="M 48.6875 27.296875 
Q 48.6875 37.203125 44.609375 42.84375 
Q 40.53125 48.484375 33.40625 48.484375 
Q 26.265625 48.484375 22.1875 42.84375 
Q 18.109375 37.203125 18.109375 27.296875 
Q 18.109375 17.390625 22.1875 11.75 
Q 26.265625 6.109375 33.40625 6.109375 
Q 40.53125 6.109375 44.609375 11.75 
Q 48.6875 17.390625 48.6875 27.296875 
z
M 18.109375 46.390625 
Q 20.953125 51.265625 25.265625 53.625 
Q 29.59375 56 35.59375 56 
Q 45.5625 56 51.78125 48.09375 
Q 58.015625 40.1875 58.015625 27.296875 
Q 58.015625 14.40625 51.78125 6.484375 
Q 45.5625 -1.421875 35.59375 -1.421875 
Q 29.59375 -1.421875 25.265625 0.953125 
Q 20.953125 3.328125 18.109375 8.203125 
L 18.109375 0 
L 9.078125 0 
L 9.078125 75.984375 
L 18.109375 75.984375 
z
" id="DejaVuSans-62"/>
     <path d="M 10.984375 1.515625 
L 10.984375 10.5 
Q 14.703125 8.734375 18.5 7.8125 
Q 22.3125 6.890625 25.984375 6.890625 
Q 35.75 6.890625 40.890625 13.453125 
Q 46.046875 20.015625 46.78125 33.40625 
Q 43.953125 29.203125 39.59375 26.953125 
Q 35.25 24.703125 29.984375 24.703125 
Q 19.046875 24.703125 12.671875 31.3125 
Q 6.296875 37.9375 6.296875 49.421875 
Q 6.296875 60.640625 12.9375 67.421875 
Q 19.578125 74.21875 30.609375 74.21875 
Q 43.265625 74.21875 49.921875 64.515625 
Q 56.59375 54.828125 56.59375 36.375 
Q 56.59375 19.140625 48.40625 8.859375 
Q 40.234375 -1.421875 26.421875 -1.421875 
Q 22.703125 -1.421875 18.890625 -0.6875 
Q 15.09375 0.046875 10.984375 1.515625 
z
M 30.609375 32.421875 
Q 37.25 32.421875 41.125 36.953125 
Q 45.015625 41.5 45.015625 49.421875 
Q 45.015625 57.28125 41.125 61.84375 
Q 37.25 66.40625 30.609375 66.40625 
Q 23.96875 66.40625 20.09375 61.84375 
Q 16.21875 57.28125 16.21875 49.421875 
Q 16.21875 41.5 20.09375 36.953125 
Q 23.96875 32.421875 30.609375 32.421875 
z
" id="DejaVuSans-39"/>
    </defs>
    <g transform="translate(369.18424 20.091654)scale(0.17 -0.17)">
     <use xlink:href="#DejaVuSans-62"/>
     <use x="63.476562" xlink:href="#DejaVuSans-65"/>
     <use x="125" xlink:href="#DejaVuSans-73"/>
     <use x="177.099609" xlink:href="#DejaVuSans-74"/>
     <use x="216.308594" xlink:href="#DejaVuSans-20"/>
     <use x="248.095703" xlink:href="#DejaVuSans-32"/>
     <use x="311.71875" xlink:href="#DejaVuSans-30"/>
     <use x="375.341797" xlink:href="#DejaVuSans-30"/>
     <use x="438.964844" xlink:href="#DejaVuSans-39"/>
    </g>
   </g>
   <g id="text_16">
    <!-- bbob f1-f5, 2-D -->
    <defs>
     <path d="M 10.796875 72.90625 
L 49.515625 72.90625 
L 49.515625 64.59375 
L 19.828125 64.59375 
L 19.828125 46.734375 
Q 21.96875 47.46875 24.109375 47.828125 
Q 26.265625 48.1875 28.421875 48.1875 
Q 40.625 48.1875 47.75 41.5 
Q 54.890625 34.8125 54.890625 23.390625 
Q 54.890625 11.625 47.5625 5.09375 
Q 40.234375 -1.421875 26.90625 -1.421875 
Q 22.3125 -1.421875 17.546875 -0.640625 
Q 12.796875 0.140625 7.71875 1.703125 
L 7.71875 11.625 
Q 12.109375 9.234375 16.796875 8.0625 
Q 21.484375 6.890625 26.703125 6.890625 
Q 35.15625 6.890625 40.078125 11.328125 
Q 45.015625 15.765625 45.015625 23.390625 
Q 45.015625 31 40.078125 35.4375 
Q 35.15625 39.890625 26.703125 39.890625 
Q 22.75 39.890625 18.8125 39.015625 
Q 14.890625 38.140625 10.796875 36.28125 
z
" id="DejaVuSans-35"/>
     <path d="M 19.671875 64.796875 
L 19.671875 8.109375 
L 31.59375 8.109375 
Q 46.6875 8.109375 53.6875 14.9375 
Q 60.6875 21.78125 60.6875 36.53125 
Q 60.6875 51.171875 53.6875 57.984375 
Q 46.6875 64.796875 31.59375 64.796875 
z
M 9.8125 72.90625 
L 30.078125 72.90625 
Q 51.265625 72.90625 61.171875 64.09375 
Q 71.09375 55.28125 71.09375 36.53125 
Q 71.09375 17.671875 61.125 8.828125 
Q 51.171875 0 30.078125 0 
L 9.8125 0 
z
" id="DejaVuSans-44"/>
    </defs>
    <g transform="translate(58.89048 17.475982)scale(0.102 -0.102)">
     <use xlink:href="#DejaVuSans-62"/>
     <use x="63.476562" xlink:href="#DejaVuSans-62"/>
     <use x="126.953125" xlink:href="#DejaVuSans-6f"/>
     <use x="188.134766" xlink:href="#DejaVuSans-62"/>
     <use x="251.611328" xlink:href="#DejaVuSans-20"/>
     <use x="283.398438" xlink:href="#DejaVuSans-66"/>
     <use x="318.603516" xlink:href="#DejaVuSans-31"/>
     <use x="382.226562" xlink:href="#DejaVuSans-2d"/>
     <use x="418.310547" xlink:href="#DejaVuSans-66"/>
     <use x="453.515625" xlink:href="#DejaVuSans-35"/>
     <use x="517.138672" xlink:href="#DejaVuSans-2c"/>
     <use x="548.925781" xlink:href="#DejaVuSans-20"/>
     <use x="580.712891" xlink:href="#DejaVuSans-32"/>
     <use x="644.335938" xlink:href="#DejaVuSans-2d"/>
     <use x="680.419922" xlink:href="#DejaVuSans-44"/>
    </g>
    <!-- 51 targets: 100..1e-08 -->
    <defs>
     <path d="M 11.71875 12.40625 
L 22.015625 12.40625 
L 22.015625 0 
L 11.71875 0 
z
M 11.71875 51.703125 
L 22.015625 51.703125 
L 22.015625 39.3125 
L 11.71875 39.3125 
z
" id="DejaVuSans-3a"/>
    </defs>
    <g transform="translate(58.89048 28.89775)scale(0.102 -0.102)">
     <use xlink:href="#DejaVuSans-35"/>
     <use x="63.623047" xlink:href="#DejaVuSans-31"/>
     <use x="127.246094" xlink:href="#DejaVuSans-20"/>
     <use x="159.033203" xlink:href="#DejaVuSans-74"/>
     <use x="198.242188" xlink:href="#DejaVuSans-61"/>
     <use x="259.521484" xlink:href="#DejaVuSans-72"/>
     <use x="300.619141" xlink:href="#DejaVuSans-67"/>
     <use x="364.095703" xlink:href="#DejaVuSans-65"/>
     <use x="425.619141" xlink:href="#DejaVuSans-74"/>
     <use x="464.828125" xlink:href="#DejaVuSans-73"/>
     <use x="516.927734" xlink:href="#DejaVuSans-3a"/>
     <use x="550.619141" xlink:href="#DejaVuSans-20"/>
     <use x="582.40625" xlink:href="#DejaVuSans-31"/>
     <use x="646.029297" xlink:href="#DejaVuSans-30"/>
     <use x="709.652344" xlink:href="#DejaVuSans-30"/>
     <use x="773.275391" xlink:href="#DejaVuSans-2e"/>
     <use x="805.0625" xlink:href="#DejaVuSans-2e"/>
     <use x="836.849609" xlink:href="#DejaVuSans-31"/>
     <use x="900.472656" xlink:href="#DejaVuSans-65"/>
     <use x="961.996094" xlink:href="#DejaVuSans-2d"/>
     <use x="998.080078" xlink:href="#DejaVuSans-30"/>
     <use x="1061.703125" xlink:href="#DejaVuSans-38"/>
    </g>
    <!-- 15 instances -->
    <g transform="translate(58.89048 40.319519)scale(0.102 -0.102)">
     <use xlink:href="#DejaVuSans-31"/>
     <use x="63.623047" xlink:href="#DejaVuSans-35"/>
     <use x="127.246094" xlink:href="#DejaVuSans-20"/>
     <use x="159.033203" xlink:href="#DejaVuSans-69"/>
     <use x="186.816406" xlink:href="#DejaVuSans-6e"/>
     <use x="250.195312" xlink:href="#DejaVuSans-73"/>
     <use x="302.294922" xlink:href="#DejaVuSans-74"/>
     <use x="341.503906" xlink:href="#DejaVuSans-61"/>
     <use x="402.783203" xlink:href="#DejaVuSans-6e"/>
     <use x="466.162109" xlink:href="#DejaVuSans-63"/>
     <use x="521.142578" xlink:href="#DejaVuSans-65"/>
     <use x="582.666016" xlink:href="#DejaVuSans-73"/>
    </g>
   </g>
   <g id="text_17">
    <!-- v0.0.0 -->
    <g style="fill:#808080;" transform="translate(178.96275 289.919965)scale(0.1 -0.1)">
     <use xlink:href="#DejaVuSans-76"/>
     <use x="59.179688" xlink:href="#DejaVuSans-30"/>
     <use x="122.802734" xlink:href="#DejaVuSans-2e"/>
     <use x="154.589844" xlink:href="#DejaVuSans-30"/>
     <use x="218.212891" xlink:href="#DejaVuSans-2e"/>
     <use x="250" xlink:href="#DejaVuSans-30"/>
    </g>
   </g>
  </g>
 </g>
 <defs>
  <clipPath id="p62b199c37f">
   <rect height="288.034772" width="277.048" x="56.12" y="6.845228"/>
  </clipPath>
 </defs>
</svg>
