<?xml version="1.0" encoding="utf-8" standalone="no"?>
<!DOCTYPE svg PUBLIC "-//W3C//DTD SVG 1.1//EN"
  "http://www.w3.org/Graphics/SVG/1.1/DTD/svg11.dtd">
<!-- Created with matplotlib (http://matplotlib.org/) -->
<svg height="345pt" version="1.1" viewBox="0 0 460 345" width="460pt" xmlns="http://www.w3.org/2000/svg" xmlns:xlink="http://www.w3.org/1999/xlink">
 <defs>
  <style type="text/css">
*{stroke-linecap:butt;stroke-linejoin:round;}
  </style>
 </defs>
 <g id="figure_1">
  <g id="patch_1">
   <path d="M 0 345.6 
L 460.8 345.6 
L 460.8 0 
L 0 0 
z
" style="fill:#ffffff;"/>
  </g>
  <g id="axes_1">
   <g id="patch_2">
    <path d="M 56.12 294.88 
L 333.168 294.88 
L 333.168 6.845228 
L 56.12 6.845228 
z
" style="fill:#ffffff;"/>
   </g>
   <g id="line2d_1">
    <path d="M 44.205749 294.88 
L 44.205749 281.832414 
L 56.12 281.832414 
L 56.12 277.638548 
L 63.08939 277.638548 
L 63.08939 274.143659 
L 68.034251 274.143659 
L 68.034251 260.630088 
L 71.869783 260.630088 
L 71.869783 257.601184 
L 75.003641 257.601184 
L 75.003641 247.116517 
L 77.653281 247.116517 
L 77.653281 246.184547 
L 79.948502 246.184547 
L 79.948502 245.252576 
L 81.973032 245.252576 
L 81.973032 244.320606 
L 83.784035 244.320606 
L 83.784035 243.388635 
L 85.422286 243.388635 
L 85.422286 242.456665 
L 86.917893 242.456665 
L 86.917893 241.058709 
L 88.293717 241.058709 
L 88.293717 240.126739 
L 89.567532 240.126739 
L 89.567532 238.728783 
L 90.753425 238.728783 
L 90.753425 236.63185 
L 91.862754 236.63185 
L 91.862754 235.69988 
L 92.904808 235.69988 
L 92.904808 235.233894 
L 93.887283 235.233894 
L 93.887283 232.903968 
L 94.816624 232.903968 
L 94.816624 230.574042 
L 95.698286 230.574042 
L 95.698286 229.176087 
L 96.536922 229.176087 
L 96.536922 227.778131 
L 97.336537 227.778131 
L 97.336537 227.079153 
L 98.100602 227.079153 
L 98.100602 226.147183 
L 98.832144 226.147183 
L 98.832144 224.749227 
L 99.533818 224.749227 
L 99.533818 222.885286 
L 100.207968 222.885286 
L 100.207968 220.55536 
L 100.856673 220.55536 
L 100.856673 218.458427 
L 101.481783 218.458427 
L 101.481783 215.895508 
L 102.084955 215.895508 
L 102.084955 214.730545 
L 102.667676 214.730545 
L 102.667676 213.099597 
L 103.231288 213.099597 
L 103.231288 211.934634 
L 103.777005 211.934634 
L 103.777005 211.235656 
L 104.305927 211.235656 
L 104.305927 210.536679 
L 105.317315 210.536679 
L 105.317315 209.138723 
L 106.272485 209.138723 
L 106.272485 208.439745 
L 106.730875 208.439745 
L 106.730875 206.808797 
L 107.177358 206.808797 
L 107.177358 206.342812 
L 107.612537 206.342812 
L 107.612537 204.478871 
L 108.036969 204.478871 
L 108.036969 203.779893 
L 108.451173 203.779893 
L 108.451173 202.381938 
L 108.85563 202.381938 
L 108.85563 201.449967 
L 109.250788 201.449967 
L 109.250788 200.052012 
L 109.637066 200.052012 
L 109.637066 199.353034 
L 110.014853 199.353034 
L 110.014853 196.557123 
L 110.384516 196.557123 
L 110.384516 195.858145 
L 110.746395 195.858145 
L 110.746395 195.159167 
L 111.100812 195.159167 
L 111.100812 194.460189 
L 111.448069 194.460189 
L 111.448069 193.062234 
L 111.788449 193.062234 
L 111.788449 191.897271 
L 112.122219 191.897271 
L 112.122219 191.664278 
L 112.449632 191.664278 
L 112.449632 191.198293 
L 112.770924 191.198293 
L 112.770924 190.499315 
L 113.086321 190.499315 
L 113.086321 189.800337 
L 113.396034 189.800337 
L 113.396034 188.868367 
L 113.700266 188.868367 
L 113.700266 188.402382 
L 113.999206 188.402382 
L 113.999206 187.703404 
L 114.293036 187.703404 
L 114.293036 187.004426 
L 114.581927 187.004426 
L 114.581927 186.305448 
L 114.866043 186.305448 
L 114.866043 185.140485 
L 115.145539 185.140485 
L 115.145539 183.975522 
L 115.420563 183.975522 
L 115.420563 183.276544 
L 115.691256 183.276544 
L 115.691256 182.577567 
L 115.957752 182.577567 
L 115.957752 181.645596 
L 116.220179 181.645596 
L 116.220179 180.946618 
L 116.478659 180.946618 
L 116.478659 179.548663 
L 116.73331 179.548663 
L 116.73331 178.616692 
L 116.984244 178.616692 
L 116.984244 178.150707 
L 117.231566 178.150707 
L 117.231566 177.218737 
L 117.475381 177.218737 
L 117.475381 176.985744 
L 117.715785 176.985744 
L 117.715785 176.286766 
L 117.952873 176.286766 
L 117.952873 175.121803 
L 118.186736 175.121803 
L 118.186736 173.723848 
L 118.417459 173.723848 
L 118.417459 173.02487 
L 118.645127 173.02487 
L 118.645127 172.0929 
L 118.869818 172.0929 
L 118.869818 171.393922 
L 119.09161 171.393922 
L 119.09161 170.461951 
L 119.310576 170.461951 
L 119.310576 169.762974 
L 119.526788 169.762974 
L 119.526788 168.132025 
L 119.740314 168.132025 
L 119.740314 165.569107 
L 119.95122 165.569107 
L 119.95122 164.870129 
L 120.15957 164.870129 
L 120.15957 164.404144 
L 120.365424 164.404144 
L 120.365424 163.472173 
L 120.568842 163.472173 
L 120.568842 163.006188 
L 120.769881 163.006188 
L 120.769881 161.841225 
L 120.968596 161.841225 
L 120.968596 160.909255 
L 121.16504 160.909255 
L 121.16504 159.977284 
L 121.359263 159.977284 
L 121.359263 158.346336 
L 121.551317 158.346336 
L 121.551317 156.948381 
L 121.741249 156.948381 
L 121.741249 155.550425 
L 121.929105 155.550425 
L 121.929105 153.919477 
L 122.114929 153.919477 
L 122.114929 152.521521 
L 122.298767 152.521521 
L 122.298767 150.890573 
L 122.480659 150.890573 
L 122.480659 149.958603 
L 122.660646 149.958603 
L 122.660646 148.560647 
L 122.838768 148.560647 
L 122.838768 148.094662 
L 123.015063 148.094662 
L 123.015063 147.162691 
L 123.189569 147.162691 
L 123.189569 146.230721 
L 123.36232 146.230721 
L 123.36232 145.065758 
L 123.533353 145.065758 
L 123.533353 144.133788 
L 123.7027 144.133788 
L 123.7027 143.43481 
L 123.870396 143.43481 
L 123.870396 142.735832 
L 124.036471 142.735832 
L 124.036471 142.036854 
L 124.200956 142.036854 
L 124.200956 141.337876 
L 124.363883 141.337876 
L 124.363883 140.871891 
L 124.52528 140.871891 
L 124.52528 140.405906 
L 124.685175 140.405906 
L 124.685175 139.939921 
L 125.000572 139.939921 
L 125.000572 139.473936 
L 125.310285 139.473936 
L 125.310285 137.842987 
L 125.463074 137.842987 
L 125.463074 137.609995 
L 125.614517 137.609995 
L 125.614517 136.678024 
L 125.913457 136.678024 
L 125.913457 135.979047 
L 126.207287 135.979047 
L 126.207287 135.280069 
L 126.352339 135.280069 
L 126.352339 135.047076 
L 126.496178 135.047076 
L 126.496178 134.581091 
L 126.638823 134.581091 
L 126.638823 134.348098 
L 126.780294 134.348098 
L 126.780294 134.115106 
L 127.05979 134.115106 
L 127.05979 133.649121 
L 127.197852 133.649121 
L 127.197852 133.183135 
L 127.334814 133.183135 
L 127.334814 132.950143 
L 127.470694 132.950143 
L 127.470694 132.484158 
L 127.605507 132.484158 
L 127.605507 132.251165 
L 127.872003 132.251165 
L 127.872003 131.78518 
L 128.13443 131.78518 
L 128.13443 131.552187 
L 128.264156 131.552187 
L 128.264156 130.620217 
L 128.39291 130.620217 
L 128.39291 130.387224 
L 128.520707 130.387224 
L 128.520707 130.154232 
L 128.647561 130.154232 
L 128.647561 129.921239 
L 129.022601 129.921239 
L 129.022601 129.455254 
L 129.389632 129.455254 
L 129.389632 129.222261 
L 129.867125 129.222261 
L 129.867125 128.989269 
L 130.100987 128.989269 
L 130.100987 128.756276 
L 130.67209 128.756276 
L 130.67209 128.523283 
L 131.005861 128.523283 
L 131.005861 128.057298 
L 131.441039 128.057298 
L 131.441039 127.824306 
L 131.969962 127.824306 
L 132.073821 127.35832 
L 132.279675 127.35832 
L 132.279675 127.125328 
L 132.483094 127.125328 
L 132.483094 126.892335 
L 132.882847 126.892335 
L 132.98135 126.193357 
L 133.176677 126.193357 
L 133.176677 125.960365 
L 133.465568 125.960365 
L 133.465568 125.727372 
L 133.843356 125.727372 
L 133.843356 125.49438 
L 134.029181 125.49438 
L 134.121345 125.028394 
L 134.213018 125.028394 
L 134.213018 124.329417 
L 134.485139 124.329417 
L 134.485139 123.863431 
L 134.664189 123.863431 
L 134.664189 123.397446 
L 134.841393 123.397446 
L 134.929315 122.931461 
L 135.016789 122.931461 
L 135.016789 122.698468 
L 135.276571 122.698468 
L 135.276571 122.465476 
L 135.447604 122.465476 
L 135.447604 122.232483 
L 135.616951 122.232483 
L 135.616951 121.533505 
L 135.784647 121.533505 
L 135.784647 121.300513 
L 135.950722 121.300513 
L 136.033161 120.601535 
L 136.196864 120.601535 
L 136.278134 119.902557 
L 136.519665 119.902557 
L 136.599426 119.436572 
L 136.67882 119.436572 
L 136.757848 114.310735 
L 136.836515 114.310735 
L 136.914823 113.84475 
L 136.992776 113.84475 
L 136.992776 113.611757 
L 137.14763 113.611757 
L 137.224536 112.679787 
L 137.377325 112.679787 
L 137.453213 111.747816 
L 137.603992 111.747816 
L 137.603992 111.281831 
L 137.827708 111.281831 
L 137.901638 110.815846 
L 137.975251 110.815846 
L 138.04855 110.116868 
L 138.266591 110.116868 
L 138.266591 109.883875 
L 138.410429 109.883875 
L 138.4819 109.184898 
L 138.553074 109.184898 
L 138.623956 108.252927 
L 138.694545 108.252927 
L 138.694545 108.019935 
L 138.834862 108.019935 
L 138.834862 107.786942 
L 139.043211 107.786942 
L 139.112104 106.854972 
L 139.180721 106.854972 
L 139.249066 106.388986 
L 139.317139 106.388986 
L 139.317139 105.690009 
L 139.452484 105.690009 
L 139.519758 105.224023 
L 139.653523 105.224023 
L 139.720016 104.292053 
L 139.983449 104.292053 
L 140.048681 103.360082 
L 140.178407 103.360082 
L 140.242905 102.661105 
L 140.307161 102.661105 
L 140.307161 102.428112 
L 140.434959 102.428112 
L 140.498503 101.729134 
L 140.750355 101.729134 
L 140.812746 100.331179 
L 140.874911 100.331179 
L 140.936852 99.632201 
L 140.998571 99.632201 
L 141.060069 98.70023 
L 141.121347 98.70023 
L 141.182408 98.234245 
L 141.243253 98.234245 
L 141.243253 97.76826 
L 141.3643 97.76826 
L 141.424506 97.302275 
L 141.484501 97.302275 
L 141.544287 96.83629 
L 141.603867 96.83629 
L 141.66324 95.671327 
L 141.72241 95.671327 
L 141.72241 95.205341 
L 141.84014 95.205341 
L 141.898705 94.506364 
L 142.015238 94.506364 
L 142.015238 94.273371 
L 142.130987 94.273371 
L 142.18857 93.341401 
L 142.245962 93.341401 
L 142.303162 92.875415 
L 142.360172 92.875415 
L 142.416994 92.40943 
L 142.473629 92.40943 
L 142.530078 91.943445 
L 142.586342 91.943445 
L 142.642422 91.011475 
L 142.69832 91.011475 
L 142.69832 90.778482 
L 142.809574 90.778482 
L 142.864932 90.312497 
L 142.975116 90.312497 
L 142.975116 90.079504 
L 143.247524 90.079504 
L 143.35529 89.380526 
L 143.408921 89.380526 
L 143.515683 87.516586 
L 143.568817 87.516586 
L 143.674593 85.885637 
L 143.727238 85.885637 
L 143.832047 84.720674 
L 143.884213 84.720674 
L 143.988072 83.322719 
L 144.142694 83.322719 
L 144.193927 82.856734 
L 144.447825 82.856734 
L 144.498158 82.390748 
L 144.598384 82.390748 
L 144.598384 81.924763 
L 144.797098 81.924763 
L 144.797098 81.458778 
L 144.944641 81.458778 
L 144.944641 81.225785 
L 145.139415 81.225785 
L 145.235981 80.060822 
L 145.284061 80.060822 
L 145.37982 79.128852 
L 145.569751 79.128852 
L 145.663936 75.40097 
L 145.710835 75.40097 
L 145.804252 73.770022 
L 145.85077 73.770022 
L 145.897164 71.906081 
L 145.989576 71.906081 
L 146.081494 69.576155 
L 146.127269 69.576155 
L 146.127269 69.343163 
L 146.263868 69.343163 
L 146.354335 68.877178 
L 146.489148 68.877178 
L 146.533852 68.411192 
L 146.622913 68.411192 
L 146.667271 67.712215 
L 146.755644 67.712215 
L 146.799661 67.013237 
L 146.887358 67.013237 
L 146.887358 66.780244 
L 147.018071 66.780244 
L 147.018071 66.547252 
L 147.276552 66.547252 
L 147.276552 66.314259 
L 147.404349 66.314259 
L 147.404349 66.081266 
L 147.531203 66.081266 
L 147.57328 65.382289 
L 147.740567 65.382289 
L 147.782136 64.916303 
L 148.984628 64.916303 
L 149.061881 62.81937 
L 149.100377 62.81937 
L 149.138788 61.8874 
L 149.215352 61.8874 
L 149.291576 60.023459 
L 149.329562 60.023459 
L 149.405283 57.46054 
L 149.555732 57.46054 
L 149.630465 56.994555 
L 149.66771 56.994555 
L 149.741959 55.596599 
L 149.778964 55.596599 
L 149.815889 54.198644 
L 150.324681 54.198644 
L 150.360453 53.499666 
L 150.538207 53.499666 
L 150.538207 53.266673 
L 150.888293 53.266673 
L 150.922912 52.567696 
L 151.060698 52.567696 
L 151.060698 52.334703 
L 151.299196 52.334703 
L 151.299196 52.10171 
L 151.799385 52.10171 
L 151.864991 51.635725 
L 151.930347 51.635725 
L 152.027918 50.936747 
L 152.092658 50.936747 
L 152.189314 50.23777 
L 152.221413 50.23777 
L 152.317349 48.606821 
L 152.34921 48.606821 
L 152.444438 47.674851 
L 152.476064 47.674851 
L 152.476064 47.208866 
L 152.726997 47.208866 
L 152.820161 46.043903 
L 152.851103 46.043903 
L 152.943598 45.111932 
L 152.97432 45.111932 
L 153.066156 44.412955 
L 153.096659 44.412955 
L 153.187846 43.480984 
L 153.218134 43.480984 
L 153.248369 42.549014 
L 154.640452 42.549014 
L 154.640452 42.316021 
L 155.954019 42.316021 
L 155.954019 42.083029 
L 156.562529 42.083029 
L 156.562529 41.850036 
L 157.389299 41.850036 
L 157.389299 41.617043 
L 157.671858 41.617043 
L 157.741778 41.151058 
L 157.857683 41.151058 
L 157.857683 40.918066 
L 158.04152 40.918066 
L 158.04152 40.685073 
L 158.200781 40.685073 
L 158.200781 40.45208 
L 159.445454 40.45208 
L 159.445454 40.219088 
L 159.861664 40.219088 
L 159.96416 39.753103 
L 160.288102 39.753103 
L 160.288102 39.52011 
L 160.976132 39.52011 
L 160.976132 39.287117 
L 163.498673 39.287117 
L 163.498673 39.054125 
L 163.64778 39.054125 
L 163.68074 38.58814 
L 163.828282 38.58814 
L 163.828282 38.355147 
L 163.958377 38.355147 
L 164.039189 37.656169 
L 164.087494 37.656169 
L 164.119622 37.190184 
L 164.247538 37.190184 
L 164.247538 36.957191 
L 164.358689 36.957191 
L 164.374509 36.491206 
L 164.71892 36.491206 
L 164.780805 35.792228 
L 164.919238 35.792228 
L 164.919238 35.559236 
L 165.207874 35.559236 
L 165.283032 34.860258 
L 165.432369 34.860258 
L 165.432369 34.627265 
L 165.550912 34.627265 
L 165.550912 34.394273 
L 166.231309 34.394273 
L 166.231309 34.16128 
L 166.344485 34.16128 
L 166.442907 33.22931 
L 166.512865 33.22931 
L 166.512865 32.996317 
L 166.665777 32.996317 
L 166.762382 32.297339 
L 166.981174 32.297339 
L 166.994756 31.831354 
L 167.489909 31.831354 
L 167.489909 31.598362 
L 167.881169 31.598362 
L 167.881169 31.365369 
L 168.07351 31.365369 
L 168.07351 31.132376 
L 168.276328 31.132376 
L 168.276328 30.899384 
L 168.551352 30.899384 
L 168.551352 30.666391 
L 168.785382 30.666391 
L 168.870806 30.200406 
L 169.291675 30.200406 
L 169.398253 29.268436 
L 169.410055 29.268436 
L 169.44541 28.569458 
L 169.656029 28.569458 
L 169.656029 28.336465 
L 170.081029 28.336465 
L 170.103705 27.87048 
L 170.20538 27.87048 
L 170.20538 27.637487 
L 170.683027 27.637487 
L 170.759542 27.171502 
L 171.062243 27.171502 
L 171.062243 26.93851 
L 171.200991 26.93851 
L 171.200991 26.705517 
L 171.380757 26.705517 
L 171.380757 26.472524 
L 171.621015 26.472524 
L 171.621015 26.239532 
L 171.878412 26.239532 
L 171.878412 26.006539 
L 172.142077 26.006539 
L 172.142077 25.773547 
L 172.784071 25.773547 
L 172.784071 25.540554 
L 173.034302 25.540554 
L 173.034302 25.307561 
L 173.195967 25.307561 
L 173.205429 24.841576 
L 173.318575 24.841576 
L 173.33736 24.375591 
L 173.727184 24.375591 
L 173.727184 24.142598 
L 174.188955 24.142598 
L 174.224653 23.676613 
L 175.471064 23.676613 
L 175.471064 23.443621 
L 175.603221 23.443621 
L 175.636102 22.977635 
L 178.010187 22.977635 
L 178.067316 22.51165 
L 178.258736 22.51165 
L 178.258736 22.278658 
L 178.434096 22.278658 
L 178.434096 22.045665 
L 179.278381 22.045665 
L 179.357927 21.57968 
L 179.437107 21.57968 
L 179.50937 21.113695 
L 180.08313 21.113695 
L 180.08313 20.880702 
L 180.378572 20.880702 
L 180.378572 20.647709 
L 180.619928 20.647709 
L 180.619928 20.414717 
L 180.900316 20.414717 
L 180.990767 19.948732 
L 181.098683 19.948732 
L 181.188099 19.482746 
L 181.241526 19.482746 
L 181.241526 19.249754 
L 181.359661 19.249754 
L 181.418426 18.783769 
L 189.122779 18.783769 
L 189.122779 18.550776 
L 190.577117 18.550776 
L 190.577117 18.317783 
L 196.070922 18.317783 
L 196.070922 18.084791 
L 199.75572 18.084791 
L 199.75572 17.851798 
L 210.457383 17.851798 
L 210.457383 17.618806 
L 213.652506 17.618806 
L 213.669586 17.15282 
L 217.007232 17.15282 
L 217.007232 16.919828 
L 217.131088 16.919828 
L 217.167045 16.453843 
L 217.255516 16.453843 
L 217.331196 15.987857 
L 217.486599 15.987857 
L 217.486599 15.754865 
L 217.647741 15.754865 
L 217.696856 15.28888 
L 218.073685 15.28888 
L 218.077162 9.697057 
L 333.168 9.697057 
L 333.168 9.697057 
" style="fill:none;stroke:#f5deb3;stroke-linecap:square;stroke-width:4;"/>
   </g>
   <g id="line2d_2">
    <defs>
     <path d="M -0 7.778175 
L 7.778175 0 
L 0 -7.778175 
L -7.778175 -0 
z
" id="mebdc2c9207" style="stroke:#f5deb3;stroke-linejoin:miter;stroke-width:1.5;"/>
    </defs>
    <g>
     <use style="fill:#f5deb3;stroke:#f5deb3;stroke-linejoin:miter;stroke-width:1.5;" x="102.084955" xlink:href="#mebdc2c9207" y="215.895508"/>
     <use style="fill:#f5deb3;stroke:#f5deb3;stroke-linejoin:miter;stroke-width:1.5;" x="135.447604" xlink:href="#mebdc2c9207" y="122.465476"/>
     <use style="fill:#f5deb3;stroke:#f5deb3;stroke-linejoin:miter;stroke-width:1.5;" x="181.418426" xlink:href="#mebdc2c9207" y="18.783769"/>
     <use style="fill:#f5deb3;stroke:#f5deb3;stroke-linejoin:miter;stroke-width:1.5;" x="218.077162" xlink:href="#mebdc2c9207" y="9.697057"/>
     <use style="fill:#f5deb3;stroke:#f5deb3;stroke-linejoin:miter;stroke-width:1.5;" x="218.077162" xlink:href="#mebdc2c9207" y="9.697057"/>
     <use style="fill:#f5deb3;stroke:#f5deb3;stroke-linejoin:miter;stroke-width:1.5;" x="333.168" xlink:href="#mebdc2c9207" y="9.697057"/>
    </g>
   </g>
   <g id="line2d_3">
    <path style="fill:none;stroke:#f5deb3;stroke-linecap:square;stroke-width:4;"/>
    <g/>
   </g>
   <g id="line2d_4">
    <path d="M 333.168 9.697057 
L 363.64328 15.400716 
" style="fill:none;stroke:#f5deb3;stroke-linecap:square;stroke-width:4;"/>
    <g>
     <use style="fill:#f5deb3;stroke:#f5deb3;stroke-linejoin:miter;stroke-width:1.5;" x="333.168" xlink:href="#mebdc2c9207" y="9.697057"/>
     <use style="fill:#f5deb3;stroke:#f5deb3;stroke-linejoin:miter;stroke-width:1.5;" x="363.64328" xlink:href="#mebdc2c9207" y="15.400716"/>
    </g>
   </g>
   <g id="matplotlib.axis_1">
    <g id="xtick_1">
     <g id="line2d_5">
      <path clip-path="url(#p8f16ccb16a)" d="M 56.12 294.88 
L 56.12 6.845228 
" style="fill:none;stroke:#b0b0b0;stroke-linecap:square;stroke-width:0.8;"/>
     </g>
     <g id="line2d_6">
      <defs>
       <path d="M 0 0 
L 0 3.5 
" id="mbf328d444f" style="stroke:#000000;stroke-width:0.8;"/>
      </defs>
      <g>
       <use style="stroke:#000000;stroke-width:0.8;" x="56.12" xlink:href="#mbf328d444f" y="294.88"/>
      </g>
     </g>
     <g id="text_1">
      <!-- 0 -->
      <defs>
       <path d="M 31.78125 66.40625 
Q 24.171875 66.40625 20.328125 58.90625 
Q 16.5 51.421875 16.5 36.375 
Q 16.5 21.390625 20.328125 13.890625 
Q 24.171875 6.390625 31.78125 6.390625 
Q 39.453125 6.390625 43.28125 13.890625 
Q 47.125 21.390625 47.125 36.375 
Q 47.125 51.421875 43.28125 58.90625 
Q 39.453125 66.40625 31.78125 66.40625 
z
M 31.78125 74.21875 
Q 44.046875 74.21875 50.515625 64.515625 
Q 56.984375 54.828125 56.984375 36.375 
Q 56.984375 17.96875 50.515625 8.265625 
Q 44.046875 -1.421875 31.78125 -1.421875 
Q 19.53125 -1.421875 13.0625 8.265625 
Q 6.59375 17.96875 6.59375 36.375 
Q 6.59375 54.828125 13.0625 64.515625 
Q 19.53125 74.21875 31.78125 74.21875 
z
" id="DejaVuSans-30"/>
      </defs>
      <g transform="translate(49.7575 317.076875)scale(0.2 -0.2)">
       <use xlink:href="#DejaVuSans-30"/>
      </g>
     </g>
    </g>
    <g id="xtick_2">
     <g id="line2d_7">
      <path clip-path="url(#p8f16ccb16a)" d="M 135.276571 294.88 
L 135.276571 6.845228 
" style="fill:none;stroke:#b0b0b0;stroke-linecap:square;stroke-width:0.8;"/>
     </g>
     <g id="line2d_8">
      <g>
       <use style="stroke:#000000;stroke-width:0.8;" x="135.276571" xlink:href="#mbf328d444f" y="294.88"/>
      </g>
     </g>
     <g id="text_2">
      <!-- 2 -->
      <defs>
       <path d="M 19.1875 8.296875 
L 53.609375 8.296875 
L 53.609375 0 
L 7.328125 0 
L 7.328125 8.296875 
Q 12.9375 14.109375 22.625 23.890625 
Q 32.328125 33.6875 34.8125 36.53125 
Q 39.546875 41.84375 41.421875 45.53125 
Q 43.3125 49.21875 43.3125 52.78125 
Q 43.3125 58.59375 39.234375 62.25 
Q 35.15625 65.921875 28.609375 65.921875 
Q 23.96875 65.921875 18.8125 64.3125 
Q 13.671875 62.703125 7.8125 59.421875 
L 7.8125 69.390625 
Q 13.765625 71.78125 18.9375 73 
Q 24.125 74.21875 28.421875 74.21875 
Q 39.75 74.21875 46.484375 68.546875 
Q 53.21875 62.890625 53.21875 53.421875 
Q 53.21875 48.921875 51.53125 44.890625 
Q 49.859375 40.875 45.40625 35.40625 
Q 44.1875 33.984375 37.640625 27.21875 
Q 31.109375 20.453125 19.1875 8.296875 
z
" id="DejaVuSans-32"/>
      </defs>
      <g transform="translate(128.914071 317.076875)scale(0.2 -0.2)">
       <use xlink:href="#DejaVuSans-32"/>
      </g>
     </g>
    </g>
    <g id="xtick_3">
     <g id="line2d_9">
      <path clip-path="url(#p8f16ccb16a)" d="M 214.433143 294.88 
L 214.433143 6.845228 
" style="fill:none;stroke:#b0b0b0;stroke-linecap:square;stroke-width:0.8;"/>
     </g>
     <g id="line2d_10">
      <g>
       <use style="stroke:#000000;stroke-width:0.8;" x="214.433143" xlink:href="#mbf328d444f" y="294.88"/>
      </g>
     </g>
     <g id="text_3">
      <!-- 4 -->
      <defs>
       <path d="M 37.796875 64.3125 
L 12.890625 25.390625 
L 37.796875 25.390625 
z
M 35.203125 72.90625 
L 47.609375 72.90625 
L 47.609375 25.390625 
L 58.015625 25.390625 
L 58.015625 17.1875 
L 47.609375 17.1875 
L 47.609375 0 
L 37.796875 0 
L 37.796875 17.1875 
L 4.890625 17.1875 
L 4.890625 26.703125 
z
" id="DejaVuSans-34"/>
      </defs>
      <g transform="translate(208.070643 317.076875)scale(0.2 -0.2)">
       <use xlink:href="#DejaVuSans-34"/>
      </g>
     </g>
    </g>
    <g id="xtick_4">
     <g id="line2d_11">
      <path clip-path="url(#p8f16ccb16a)" d="M 293.589714 294.88 
L 293.589714 6.845228 
" style="fill:none;stroke:#b0b0b0;stroke-linecap:square;stroke-width:0.8;"/>
     </g>
     <g id="line2d_12">
      <g>
       <use style="stroke:#000000;stroke-width:0.8;" x="293.589714" xlink:href="#mbf328d444f" y="294.88"/>
      </g>
     </g>
     <g id="text_4">
      <!-- 6 -->
      <defs>
       <path d="M 33.015625 40.375 
Q 26.375 40.375 22.484375 35.828125 
Q 18.609375 31.296875 18.609375 23.390625 
Q 18.609375 15.53125 22.484375 10.953125 
Q 26.375 6.390625 33.015625 6.390625 
Q 39.65625 6.390625 43.53125 10.953125 
Q 47.40625 15.53125 47.40625 23.390625 
Q 47.40625 31.296875 43.53125 35.828125 
Q 39.65625 40.375 33.015625 40.375 
z
M 52.59375 71.296875 
L 52.59375 62.3125 
Q 48.875 64.0625 45.09375 64.984375 
Q 41.3125 65.921875 37.59375 65.921875 
Q 27.828125 65.921875 22.671875 59.328125 
Q 17.53125 52.734375 16.796875 39.40625 
Q 19.671875 43.65625 24.015625 45.921875 
Q 28.375 48.1875 33.59375 48.1875 
Q 44.578125 48.1875 50.953125 41.515625 
Q 57.328125 34.859375 57.328125 23.390625 
Q 57.328125 12.15625 50.6875 5.359375 
Q 44.046875 -1.421875 33.015625 -1.421875 
Q 20.359375 -1.421875 13.671875 8.265625 
Q 6.984375 17.96875 6.984375 36.375 
Q 6.984375 53.65625 15.1875 63.9375 
Q 23.390625 74.21875 37.203125 74.21875 
Q 40.921875 74.21875 44.703125 73.484375 
Q 48.484375 72.75 52.59375 71.296875 
z
" id="DejaVuSans-36"/>
      </defs>
      <g transform="translate(287.227214 317.076875)scale(0.2 -0.2)">
       <use xlink:href="#DejaVuSans-36"/>
      </g>
     </g>
    </g>
    <g id="xtick_5">
     <g id="line2d_13">
      <path clip-path="url(#p8f16ccb16a)" d="M 56.12 294.88 
L 56.12 6.845228 
" style="fill:none;stroke:#b0b0b0;stroke-linecap:square;stroke-width:0.8;"/>
     </g>
     <g id="line2d_14">
      <defs>
       <path d="M 0 0 
L 0 2 
" id="m81ae6d5aaa" style="stroke:#000000;stroke-width:0.6;"/>
      </defs>
      <g>
       <use style="stroke:#000000;stroke-width:0.6;" x="56.12" xlink:href="#m81ae6d5aaa" y="294.88"/>
      </g>
     </g>
    </g>
    <g id="xtick_6">
     <g id="line2d_15">
      <path clip-path="url(#p8f16ccb16a)" d="M 95.698286 294.88 
L 95.698286 6.845228 
" style="fill:none;stroke:#b0b0b0;stroke-linecap:square;stroke-width:0.8;"/>
     </g>
     <g id="line2d_16">
      <g>
       <use style="stroke:#000000;stroke-width:0.6;" x="95.698286" xlink:href="#m81ae6d5aaa" y="294.88"/>
      </g>
     </g>
    </g>
    <g id="xtick_7">
     <g id="line2d_17">
      <path clip-path="url(#p8f16ccb16a)" d="M 135.276571 294.88 
L 135.276571 6.845228 
" style="fill:none;stroke:#b0b0b0;stroke-linecap:square;stroke-width:0.8;"/>
     </g>
     <g id="line2d_18">
      <g>
       <use style="stroke:#000000;stroke-width:0.6;" x="135.276571" xlink:href="#m81ae6d5aaa" y="294.88"/>
      </g>
     </g>
    </g>
    <g id="xtick_8">
     <g id="line2d_19">
      <path clip-path="url(#p8f16ccb16a)" d="M 174.854857 294.88 
L 174.854857 6.845228 
" style="fill:none;stroke:#b0b0b0;stroke-linecap:square;stroke-width:0.8;"/>
     </g>
     <g id="line2d_20">
      <g>
       <use style="stroke:#000000;stroke-width:0.6;" x="174.854857" xlink:href="#m81ae6d5aaa" y="294.88"/>
      </g>
     </g>
    </g>
    <g id="xtick_9">
     <g id="line2d_21">
      <path clip-path="url(#p8f16ccb16a)" d="M 214.433143 294.88 
L 214.433143 6.845228 
" style="fill:none;stroke:#b0b0b0;stroke-linecap:square;stroke-width:0.8;"/>
     </g>
     <g id="line2d_22">
      <g>
       <use style="stroke:#000000;stroke-width:0.6;" x="214.433143" xlink:href="#m81ae6d5aaa" y="294.88"/>
      </g>
     </g>
    </g>
    <g id="xtick_10">
     <g id="line2d_23">
      <path clip-path="url(#p8f16ccb16a)" d="M 254.011429 294.88 
L 254.011429 6.845228 
" style="fill:none;stroke:#b0b0b0;stroke-linecap:square;stroke-width:0.8;"/>
     </g>
     <g id="line2d_24">
      <g>
       <use style="stroke:#000000;stroke-width:0.6;" x="254.011429" xlink:href="#m81ae6d5aaa" y="294.88"/>
      </g>
     </g>
    </g>
    <g id="xtick_11">
     <g id="line2d_25">
      <path clip-path="url(#p8f16ccb16a)" d="M 293.589714 294.88 
L 293.589714 6.845228 
" style="fill:none;stroke:#b0b0b0;stroke-linecap:square;stroke-width:0.8;"/>
     </g>
     <g id="line2d_26">
      <g>
       <use style="stroke:#000000;stroke-width:0.6;" x="293.589714" xlink:href="#m81ae6d5aaa" y="294.88"/>
      </g>
     </g>
    </g>
    <g id="xtick_12">
     <g id="line2d_27">
      <path clip-path="url(#p8f16ccb16a)" d="M 333.168 294.88 
L 333.168 6.845228 
" style="fill:none;stroke:#b0b0b0;stroke-linecap:square;stroke-width:0.8;"/>
     </g>
     <g id="line2d_28">
      <g>
       <use style="stroke:#000000;stroke-width:0.6;" x="333.168" xlink:href="#m81ae6d5aaa" y="294.88"/>
      </g>
     </g>
    </g>
    <g id="text_5">
     <!-- log10(# f-evals / dimension) -->
     <defs>
      <path d="M 9.421875 75.984375 
L 18.40625 75.984375 
L 18.40625 0 
L 9.421875 0 
z
" id="DejaVuSans-6c"/>
      <path d="M 30.609375 48.390625 
Q 23.390625 48.390625 19.1875 42.75 
Q 14.984375 37.109375 14.984375 27.296875 
Q 14.984375 17.484375 19.15625 11.84375 
Q 23.34375 6.203125 30.609375 6.203125 
Q 37.796875 6.203125 41.984375 11.859375 
Q 46.1875 17.53125 46.1875 27.296875 
Q 46.1875 37.015625 41.984375 42.703125 
Q 37.796875 48.390625 30.609375 48.390625 
z
M 30.609375 56 
Q 42.328125 56 49.015625 48.375 
Q 55.71875 40.765625 55.71875 27.296875 
Q 55.71875 13.875 49.015625 6.21875 
Q 42.328125 -1.421875 30.609375 -1.421875 
Q 18.84375 -1.421875 12.171875 6.21875 
Q 5.515625 13.875 5.515625 27.296875 
Q 5.515625 40.765625 12.171875 48.375 
Q 18.84375 56 30.609375 56 
z
" id="DejaVuSans-6f"/>
      <path d="M 45.40625 27.984375 
Q 45.40625 37.75 41.375 43.109375 
Q 37.359375 48.484375 30.078125 48.484375 
Q 22.859375 48.484375 18.828125 43.109375 
Q 14.796875 37.75 14.796875 27.984375 
Q 14.796875 18.265625 18.828125 12.890625 
Q 22.859375 7.515625 30.078125 7.515625 
Q 37.359375 7.515625 41.375 12.890625 
Q 45.40625 18.265625 45.40625 27.984375 
z
M 54.390625 6.78125 
Q 54.390625 -7.171875 48.1875 -13.984375 
Q 42 -20.796875 29.203125 -20.796875 
Q 24.46875 -20.796875 20.265625 -20.09375 
Q 16.0625 -19.390625 12.109375 -17.921875 
L 12.109375 -9.1875 
Q 16.0625 -11.328125 19.921875 -12.34375 
Q 23.78125 -13.375 27.78125 -13.375 
Q 36.625 -13.375 41.015625 -8.765625 
Q 45.40625 -4.15625 45.40625 5.171875 
L 45.40625 9.625 
Q 42.625 4.78125 38.28125 2.390625 
Q 33.9375 0 27.875 0 
Q 17.828125 0 11.671875 7.65625 
Q 5.515625 15.328125 5.515625 27.984375 
Q 5.515625 40.671875 11.671875 48.328125 
Q 17.828125 56 27.875 56 
Q 33.9375 56 38.28125 53.609375 
Q 42.625 51.21875 45.40625 46.390625 
L 45.40625 54.6875 
L 54.390625 54.6875 
z
" id="DejaVuSans-67"/>
      <path d="M 12.40625 8.296875 
L 28.515625 8.296875 
L 28.515625 63.921875 
L 10.984375 60.40625 
L 10.984375 69.390625 
L 28.421875 72.90625 
L 38.28125 72.90625 
L 38.28125 8.296875 
L 54.390625 8.296875 
L 54.390625 0 
L 12.40625 0 
z
" id="DejaVuSans-31"/>
      <path d="M 31 75.875 
Q 24.46875 64.65625 21.28125 53.65625 
Q 18.109375 42.671875 18.109375 31.390625 
Q 18.109375 20.125 21.3125 9.0625 
Q 24.515625 -2 31 -13.1875 
L 23.1875 -13.1875 
Q 15.875 -1.703125 12.234375 9.375 
Q 8.59375 20.453125 8.59375 31.390625 
Q 8.59375 42.28125 12.203125 53.3125 
Q 15.828125 64.359375 23.1875 75.875 
z
" id="DejaVuSans-28"/>
      <path d="M 51.125 44 
L 36.921875 44 
L 32.8125 27.6875 
L 47.125 27.6875 
z
M 43.796875 71.78125 
L 38.71875 51.515625 
L 52.984375 51.515625 
L 58.109375 71.78125 
L 65.921875 71.78125 
L 60.890625 51.515625 
L 76.125 51.515625 
L 76.125 44 
L 58.984375 44 
L 54.984375 27.6875 
L 70.515625 27.6875 
L 70.515625 20.21875 
L 53.078125 20.21875 
L 48 0 
L 40.1875 0 
L 45.21875 20.21875 
L 30.90625 20.21875 
L 25.875 0 
L 18.015625 0 
L 23.09375 20.21875 
L 7.71875 20.21875 
L 7.71875 27.6875 
L 24.90625 27.6875 
L 29 44 
L 13.28125 44 
L 13.28125 51.515625 
L 30.90625 51.515625 
L 35.890625 71.78125 
z
" id="DejaVuSans-23"/>
      <path id="DejaVuSans-20"/>
      <path d="M 37.109375 75.984375 
L 37.109375 68.5 
L 28.515625 68.5 
Q 23.6875 68.5 21.796875 66.546875 
Q 19.921875 64.59375 19.921875 59.515625 
L 19.921875 54.6875 
L 34.71875 54.6875 
L 34.71875 47.703125 
L 19.921875 47.703125 
L 19.921875 0 
L 10.890625 0 
L 10.890625 47.703125 
L 2.296875 47.703125 
L 2.296875 54.6875 
L 10.890625 54.6875 
L 10.890625 58.5 
Q 10.890625 67.625 15.140625 71.796875 
Q 19.390625 75.984375 28.609375 75.984375 
z
" id="DejaVuSans-66"/>
      <path d="M 4.890625 31.390625 
L 31.203125 31.390625 
L 31.203125 23.390625 
L 4.890625 23.390625 
z
" id="DejaVuSans-2d"/>
      <path d="M 56.203125 29.59375 
L 56.203125 25.203125 
L 14.890625 25.203125 
Q 15.484375 15.921875 20.484375 11.0625 
Q 25.484375 6.203125 34.421875 6.203125 
Q 39.59375 6.203125 44.453125 7.46875 
Q 49.3125 8.734375 54.109375 11.28125 
L 54.109375 2.78125 
Q 49.265625 0.734375 44.1875 -0.34375 
Q 39.109375 -1.421875 33.890625 -1.421875 
Q 20.796875 -1.421875 13.15625 6.1875 
Q 5.515625 13.8125 5.515625 26.8125 
Q 5.515625 40.234375 12.765625 48.109375 
Q 20.015625 56 32.328125 56 
Q 43.359375 56 49.78125 48.890625 
Q 56.203125 41.796875 56.203125 29.59375 
z
M 47.21875 32.234375 
Q 47.125 39.59375 43.09375 43.984375 
Q 39.0625 48.390625 32.421875 48.390625 
Q 24.90625 48.390625 20.390625 44.140625 
Q 15.875 39.890625 15.1875 32.171875 
z
" id="DejaVuSans-65"/>
      <path d="M 2.984375 54.6875 
L 12.5 54.6875 
L 29.59375 8.796875 
L 46.6875 54.6875 
L 56.203125 54.6875 
L 35.6875 0 
L 23.484375 0 
z
" id="DejaVuSans-76"/>
      <path d="M 34.28125 27.484375 
Q 23.390625 27.484375 19.1875 25 
Q 14.984375 22.515625 14.984375 16.5 
Q 14.984375 11.71875 18.140625 8.90625 
Q 21.296875 6.109375 26.703125 6.109375 
Q 34.1875 6.109375 38.703125 11.40625 
Q 43.21875 16.703125 43.21875 25.484375 
L 43.21875 27.484375 
z
M 52.203125 31.203125 
L 52.203125 0 
L 43.21875 0 
L 43.21875 8.296875 
Q 40.140625 3.328125 35.546875 0.953125 
Q 30.953125 -1.421875 24.3125 -1.421875 
Q 15.921875 -1.421875 10.953125 3.296875 
Q 6 8.015625 6 15.921875 
Q 6 25.140625 12.171875 29.828125 
Q 18.359375 34.515625 30.609375 34.515625 
L 43.21875 34.515625 
L 43.21875 35.40625 
Q 43.21875 41.609375 39.140625 45 
Q 35.0625 48.390625 27.6875 48.390625 
Q 23 48.390625 18.546875 47.265625 
Q 14.109375 46.140625 10.015625 43.890625 
L 10.015625 52.203125 
Q 14.9375 54.109375 19.578125 55.046875 
Q 24.21875 56 28.609375 56 
Q 40.484375 56 46.34375 49.84375 
Q 52.203125 43.703125 52.203125 31.203125 
z
" id="DejaVuSans-61"/>
      <path d="M 44.28125 53.078125 
L 44.28125 44.578125 
Q 40.484375 46.53125 36.375 47.5 
Q 32.28125 48.484375 27.875 48.484375 
Q 21.1875 48.484375 17.84375 46.4375 
Q 14.5 44.390625 14.5 40.28125 
Q 14.5 37.15625 16.890625 35.375 
Q 19.28125 33.59375 26.515625 31.984375 
L 29.59375 31.296875 
Q 39.15625 29.25 43.1875 25.515625 
Q 47.21875 21.78125 47.21875 15.09375 
Q 47.21875 7.46875 41.1875 3.015625 
Q 35.15625 -1.421875 24.609375 -1.421875 
Q 20.21875 -1.421875 15.453125 -0.5625 
Q 10.6875 0.296875 5.421875 2 
L 5.421875 11.28125 
Q 10.40625 8.6875 15.234375 7.390625 
Q 20.0625 6.109375 24.8125 6.109375 
Q 31.15625 6.109375 34.5625 8.28125 
Q 37.984375 10.453125 37.984375 14.40625 
Q 37.984375 18.0625 35.515625 20.015625 
Q 33.0625 21.96875 24.703125 23.78125 
L 21.578125 24.515625 
Q 13.234375 26.265625 9.515625 29.90625 
Q 5.8125 33.546875 5.8125 39.890625 
Q 5.8125 47.609375 11.28125 51.796875 
Q 16.75 56 26.8125 56 
Q 31.78125 56 36.171875 55.265625 
Q 40.578125 54.546875 44.28125 53.078125 
z
" id="DejaVuSans-73"/>
      <path d="M 25.390625 72.90625 
L 33.6875 72.90625 
L 8.296875 -9.28125 
L 0 -9.28125 
z
" id="DejaVuSans-2f"/>
      <path d="M 45.40625 46.390625 
L 45.40625 75.984375 
L 54.390625 75.984375 
L 54.390625 0 
L 45.40625 0 
L 45.40625 8.203125 
Q 42.578125 3.328125 38.25 0.953125 
Q 33.9375 -1.421875 27.875 -1.421875 
Q 17.96875 -1.421875 11.734375 6.484375 
Q 5.515625 14.40625 5.515625 27.296875 
Q 5.515625 40.1875 11.734375 48.09375 
Q 17.96875 56 27.875 56 
Q 33.9375 56 38.25 53.625 
Q 42.578125 51.265625 45.40625 46.390625 
z
M 14.796875 27.296875 
Q 14.796875 17.390625 18.875 11.75 
Q 22.953125 6.109375 30.078125 6.109375 
Q 37.203125 6.109375 41.296875 11.75 
Q 45.40625 17.390625 45.40625 27.296875 
Q 45.40625 37.203125 41.296875 42.84375 
Q 37.203125 48.484375 30.078125 48.484375 
Q 22.953125 48.484375 18.875 42.84375 
Q 14.796875 37.203125 14.796875 27.296875 
z
" id="DejaVuSans-64"/>
      <path d="M 9.421875 54.6875 
L 18.40625 54.6875 
L 18.40625 0 
L 9.421875 0 
z
M 9.421875 75.984375 
L 18.40625 75.984375 
L 18.40625 64.59375 
L 9.421875 64.59375 
z
" id="DejaVuSans-69"/>
      <path d="M 52 44.1875 
Q 55.375 50.25 60.0625 53.125 
Q 64.75 56 71.09375 56 
Q 79.640625 56 84.28125 50.015625 
Q 88.921875 44.046875 88.921875 33.015625 
L 88.921875 0 
L 79.890625 0 
L 79.890625 32.71875 
Q 79.890625 40.578125 77.09375 44.375 
Q 74.3125 48.1875 68.609375 48.1875 
Q 61.625 48.1875 57.5625 43.546875 
Q 53.515625 38.921875 53.515625 30.90625 
L 53.515625 0 
L 44.484375 0 
L 44.484375 32.71875 
Q 44.484375 40.625 41.703125 44.40625 
Q 38.921875 48.1875 33.109375 48.1875 
Q 26.21875 48.1875 22.15625 43.53125 
Q 18.109375 38.875 18.109375 30.90625 
L 18.109375 0 
L 9.078125 0 
L 9.078125 54.6875 
L 18.109375 54.6875 
L 18.109375 46.1875 
Q 21.1875 51.21875 25.484375 53.609375 
Q 29.78125 56 35.6875 56 
Q 41.65625 56 45.828125 52.96875 
Q 50 49.953125 52 44.1875 
z
" id="DejaVuSans-6d"/>
      <path d="M 54.890625 33.015625 
L 54.890625 0 
L 45.90625 0 
L 45.90625 32.71875 
Q 45.90625 40.484375 42.875 44.328125 
Q 39.84375 48.1875 33.796875 48.1875 
Q 26.515625 48.1875 22.3125 43.546875 
Q 18.109375 38.921875 18.109375 30.90625 
L 18.109375 0 
L 9.078125 0 
L 9.078125 54.6875 
L 18.109375 54.6875 
L 18.109375 46.1875 
Q 21.34375 51.125 25.703125 53.5625 
Q 30.078125 56 35.796875 56 
Q 45.21875 56 50.046875 50.171875 
Q 54.890625 44.34375 54.890625 33.015625 
z
" id="DejaVuSans-6e"/>
      <path d="M 8.015625 75.875 
L 15.828125 75.875 
Q 23.140625 64.359375 26.78125 53.3125 
Q 30.421875 42.28125 30.421875 31.390625 
Q 30.421875 20.453125 26.78125 9.375 
Q 23.140625 -1.703125 15.828125 -13.1875 
L 8.015625 -13.1875 
Q 14.5 -2 17.703125 9.0625 
Q 20.90625 20.125 20.90625 31.390625 
Q 20.90625 42.671875 17.703125 53.65625 
Q 14.5 64.65625 8.015625 75.875 
z
" id="DejaVuSans-29"/>
     </defs>
     <g transform="translate(73.803219 338.153594)scale(0.17 -0.17)">
      <use xlink:href="#DejaVuSans-6c"/>
      <use x="27.783203" xlink:href="#DejaVuSans-6f"/>
      <use x="88.964844" xlink:href="#DejaVuSans-67"/>
      <use x="152.441406" xlink:href="#DejaVuSans-31"/>
      <use x="216.064453" xlink:href="#DejaVuSans-30"/>
      <use x="279.6875" xlink:href="#DejaVuSans-28"/>
      <use x="318.701172" xlink:href="#DejaVuSans-23"/>
      <use x="402.490234" xlink:href="#DejaVuSans-20"/>
      <use x="434.277344" xlink:href="#DejaVuSans-66"/>
      <use x="469.404297" xlink:href="#DejaVuSans-2d"/>
      <use x="505.488281" xlink:href="#DejaVuSans-65"/>
      <use x="567.011719" xlink:href="#DejaVuSans-76"/>
      <use x="626.191406" xlink:href="#DejaVuSans-61"/>
      <use x="687.470703" xlink:href="#DejaVuSans-6c"/>
      <use x="715.253906" xlink:href="#DejaVuSans-73"/>
      <use x="767.353516" xlink:href="#DejaVuSans-20"/>
      <use x="799.140625" xlink:href="#DejaVuSans-2f"/>
      <use x="832.832031" xlink:href="#DejaVuSans-20"/>
      <use x="864.619141" xlink:href="#DejaVuSans-64"/>
      <use x="928.095703" xlink:href="#DejaVuSans-69"/>
      <use x="955.878906" xlink:href="#DejaVuSans-6d"/>
      <use x="1053.291016" xlink:href="#DejaVuSans-65"/>
      <use x="1114.814453" xlink:href="#DejaVuSans-6e"/>
      <use x="1178.193359" xlink:href="#DejaVuSans-73"/>
      <use x="1230.292969" xlink:href="#DejaVuSans-69"/>
      <use x="1258.076172" xlink:href="#DejaVuSans-6f"/>
      <use x="1319.257812" xlink:href="#DejaVuSans-6e"/>
      <use x="1382.636719" xlink:href="#DejaVuSans-29"/>
     </g>
    </g>
   </g>
   <g id="matplotlib.axis_2">
    <g id="ytick_1">
     <g id="line2d_29">
      <path clip-path="url(#p8f16ccb16a)" d="M 56.12 294.88 
L 333.168 294.88 
" style="fill:none;stroke:#b0b0b0;stroke-linecap:square;stroke-width:0.8;"/>
     </g>
     <g id="line2d_30">
      <defs>
       <path d="M 0 0 
L -3.5 0 
" id="m27998f316e" style="stroke:#000000;stroke-width:0.8;"/>
      </defs>
      <g>
       <use style="stroke:#000000;stroke-width:0.8;" x="56.12" xlink:href="#m27998f316e" y="294.88"/>
      </g>
     </g>
     <g id="text_6">
      <!-- 0.0 -->
      <defs>
       <path d="M 10.6875 12.40625 
L 21 12.40625 
L 21 0 
L 10.6875 0 
z
" id="DejaVuSans-2e"/>
      </defs>
      <g transform="translate(23.675 300.95875)scale(0.16 -0.16)">
       <use xlink:href="#DejaVuSans-30"/>
       <use x="63.623047" xlink:href="#DejaVuSans-2e"/>
       <use x="95.410156" xlink:href="#DejaVuSans-30"/>
      </g>
     </g>
    </g>
    <g id="ytick_2">
     <g id="line2d_31">
      <path clip-path="url(#p8f16ccb16a)" d="M 56.12 237.843411 
L 333.168 237.843411 
" style="fill:none;stroke:#b0b0b0;stroke-linecap:square;stroke-width:0.8;"/>
     </g>
     <g id="line2d_32">
      <g>
       <use style="stroke:#000000;stroke-width:0.8;" x="56.12" xlink:href="#m27998f316e" y="237.843411"/>
      </g>
     </g>
     <g id="text_7">
      <!-- 0.2 -->
      <g transform="translate(23.675 243.922161)scale(0.16 -0.16)">
       <use xlink:href="#DejaVuSans-30"/>
       <use x="63.623047" xlink:href="#DejaVuSans-2e"/>
       <use x="95.410156" xlink:href="#DejaVuSans-32"/>
      </g>
     </g>
    </g>
    <g id="ytick_3">
     <g id="line2d_33">
      <path clip-path="url(#p8f16ccb16a)" d="M 56.12 180.806823 
L 333.168 180.806823 
" style="fill:none;stroke:#b0b0b0;stroke-linecap:square;stroke-width:0.8;"/>
     </g>
     <g id="line2d_34">
      <g>
       <use style="stroke:#000000;stroke-width:0.8;" x="56.12" xlink:href="#m27998f316e" y="180.806823"/>
      </g>
     </g>
     <g id="text_8">
      <!-- 0.4 -->
      <g transform="translate(23.675 186.885573)scale(0.16 -0.16)">
       <use xlink:href="#DejaVuSans-30"/>
       <use x="63.623047" xlink:href="#DejaVuSans-2e"/>
       <use x="95.410156" xlink:href="#DejaVuSans-34"/>
      </g>
     </g>
    </g>
    <g id="ytick_4">
     <g id="line2d_35">
      <path clip-path="url(#p8f16ccb16a)" d="M 56.12 123.770234 
L 333.168 123.770234 
" style="fill:none;stroke:#b0b0b0;stroke-linecap:square;stroke-width:0.8;"/>
     </g>
     <g id="line2d_36">
      <g>
       <use style="stroke:#000000;stroke-width:0.8;" x="56.12" xlink:href="#m27998f316e" y="123.770234"/>
      </g>
     </g>
     <g id="text_9">
      <!-- 0.6 -->
      <g transform="translate(23.675 129.848984)scale(0.16 -0.16)">
       <use xlink:href="#DejaVuSans-30"/>
       <use x="63.623047" xlink:href="#DejaVuSans-2e"/>
       <use x="95.410156" xlink:href="#DejaVuSans-36"/>
      </g>
     </g>
    </g>
    <g id="ytick_5">
     <g id="line2d_37">
      <path clip-path="url(#p8f16ccb16a)" d="M 56.12 66.733646 
L 333.168 66.733646 
" style="fill:none;stroke:#b0b0b0;stroke-linecap:square;stroke-width:0.8;"/>
     </g>
     <g id="line2d_38">
      <g>
       <use style="stroke:#000000;stroke-width:0.8;" x="56.12" xlink:href="#m27998f316e" y="66.733646"/>
      </g>
     </g>
     <g id="text_10">
      <!-- 0.8 -->
      <defs>
       <path d="M 31.78125 34.625 
Q 24.75 34.625 20.71875 30.859375 
Q 16.703125 27.09375 16.703125 20.515625 
Q 16.703125 13.921875 20.71875 10.15625 
Q 24.75 6.390625 31.78125 6.390625 
Q 38.8125 6.390625 42.859375 10.171875 
Q 46.921875 13.96875 46.921875 20.515625 
Q 46.921875 27.09375 42.890625 30.859375 
Q 38.875 34.625 31.78125 34.625 
z
M 21.921875 38.8125 
Q 15.578125 40.375 12.03125 44.71875 
Q 8.5 49.078125 8.5 55.328125 
Q 8.5 64.0625 14.71875 69.140625 
Q 20.953125 74.21875 31.78125 74.21875 
Q 42.671875 74.21875 48.875 69.140625 
Q 55.078125 64.0625 55.078125 55.328125 
Q 55.078125 49.078125 51.53125 44.71875 
Q 48 40.375 41.703125 38.8125 
Q 48.828125 37.15625 52.796875 32.3125 
Q 56.78125 27.484375 56.78125 20.515625 
Q 56.78125 9.90625 50.3125 4.234375 
Q 43.84375 -1.421875 31.78125 -1.421875 
Q 19.734375 -1.421875 13.25 4.234375 
Q 6.78125 9.90625 6.78125 20.515625 
Q 6.78125 27.484375 10.78125 32.3125 
Q 14.796875 37.15625 21.921875 38.8125 
z
M 18.3125 54.390625 
Q 18.3125 48.734375 21.84375 45.5625 
Q 25.390625 42.390625 31.78125 42.390625 
Q 38.140625 42.390625 41.71875 45.5625 
Q 45.3125 48.734375 45.3125 54.390625 
Q 45.3125 60.0625 41.71875 63.234375 
Q 38.140625 66.40625 31.78125 66.40625 
Q 25.390625 66.40625 21.84375 63.234375 
Q 18.3125 60.0625 18.3125 54.390625 
z
" id="DejaVuSans-38"/>
      </defs>
      <g transform="translate(23.675 72.812396)scale(0.16 -0.16)">
       <use xlink:href="#DejaVuSans-30"/>
       <use x="63.623047" xlink:href="#DejaVuSans-2e"/>
       <use x="95.410156" xlink:href="#DejaVuSans-38"/>
      </g>
     </g>
    </g>
    <g id="ytick_6">
     <g id="line2d_39">
      <path clip-path="url(#p8f16ccb16a)" d="M 56.12 9.697057 
L 333.168 9.697057 
" style="fill:none;stroke:#b0b0b0;stroke-linecap:square;stroke-width:0.8;"/>
     </g>
     <g id="line2d_40">
      <g>
       <use style="stroke:#000000;stroke-width:0.8;" x="56.12" xlink:href="#m27998f316e" y="9.697057"/>
      </g>
     </g>
     <g id="text_11">
      <!-- 1.0 -->
      <g transform="translate(23.675 15.775807)scale(0.16 -0.16)">
       <use xlink:href="#DejaVuSans-31"/>
       <use x="63.623047" xlink:href="#DejaVuSans-2e"/>
       <use x="95.410156" xlink:href="#DejaVuSans-30"/>
      </g>
     </g>
    </g>
    <g id="text_12">
     <!-- Fraction of function,target pairs -->
     <defs>
      <path d="M 9.8125 72.90625 
L 51.703125 72.90625 
L 51.703125 64.59375 
L 19.671875 64.59375 
L 19.671875 43.109375 
L 48.578125 43.109375 
L 48.578125 34.8125 
L 19.671875 34.8125 
L 19.671875 0 
L 9.8125 0 
z
" id="DejaVuSans-46"/>
      <path d="M 41.109375 46.296875 
Q 39.59375 47.171875 37.8125 47.578125 
Q 36.03125 48 33.890625 48 
Q 26.265625 48 22.1875 43.046875 
Q 18.109375 38.09375 18.109375 28.8125 
L 18.109375 0 
L 9.078125 0 
L 9.078125 54.6875 
L 18.109375 54.6875 
L 18.109375 46.1875 
Q 20.953125 51.171875 25.484375 53.578125 
Q 30.03125 56 36.53125 56 
Q 37.453125 56 38.578125 55.875 
Q 39.703125 55.765625 41.0625 55.515625 
z
" id="DejaVuSans-72"/>
      <path d="M 48.78125 52.59375 
L 48.78125 44.1875 
Q 44.96875 46.296875 41.140625 47.34375 
Q 37.3125 48.390625 33.40625 48.390625 
Q 24.65625 48.390625 19.8125 42.84375 
Q 14.984375 37.3125 14.984375 27.296875 
Q 14.984375 17.28125 19.8125 11.734375 
Q 24.65625 6.203125 33.40625 6.203125 
Q 37.3125 6.203125 41.140625 7.25 
Q 44.96875 8.296875 48.78125 10.40625 
L 48.78125 2.09375 
Q 45.015625 0.34375 40.984375 -0.53125 
Q 36.96875 -1.421875 32.421875 -1.421875 
Q 20.0625 -1.421875 12.78125 6.34375 
Q 5.515625 14.109375 5.515625 27.296875 
Q 5.515625 40.671875 12.859375 48.328125 
Q 20.21875 56 33.015625 56 
Q 37.15625 56 41.109375 55.140625 
Q 45.0625 54.296875 48.78125 52.59375 
z
" id="DejaVuSans-63"/>
      <path d="M 18.3125 70.21875 
L 18.3125 54.6875 
L 36.8125 54.6875 
L 36.8125 47.703125 
L 18.3125 47.703125 
L 18.3125 18.015625 
Q 18.3125 11.328125 20.140625 9.421875 
Q 21.96875 7.515625 27.59375 7.515625 
L 36.8125 7.515625 
L 36.8125 0 
L 27.59375 0 
Q 17.1875 0 13.234375 3.875 
Q 9.28125 7.765625 9.28125 18.015625 
L 9.28125 47.703125 
L 2.6875 47.703125 
L 2.6875 54.6875 
L 9.28125 54.6875 
L 9.28125 70.21875 
z
" id="DejaVuSans-74"/>
      <path d="M 8.5 21.578125 
L 8.5 54.6875 
L 17.484375 54.6875 
L 17.484375 21.921875 
Q 17.484375 14.15625 20.5 10.265625 
Q 23.53125 6.390625 29.59375 6.390625 
Q 36.859375 6.390625 41.078125 11.03125 
Q 45.3125 15.671875 45.3125 23.6875 
L 45.3125 54.6875 
L 54.296875 54.6875 
L 54.296875 0 
L 45.3125 0 
L 45.3125 8.40625 
Q 42.046875 3.421875 37.71875 1 
Q 33.40625 -1.421875 27.6875 -1.421875 
Q 18.265625 -1.421875 13.375 4.4375 
Q 8.5 10.296875 8.5 21.578125 
z
M 31.109375 56 
z
" id="DejaVuSans-75"/>
      <path d="M 11.71875 12.40625 
L 22.015625 12.40625 
L 22.015625 4 
L 14.015625 -11.625 
L 7.71875 -11.625 
L 11.71875 4 
z
" id="DejaVuSans-2c"/>
      <path d="M 18.109375 8.203125 
L 18.109375 -20.796875 
L 9.078125 -20.796875 
L 9.078125 54.6875 
L 18.109375 54.6875 
L 18.109375 46.390625 
Q 20.953125 51.265625 25.265625 53.625 
Q 29.59375 56 35.59375 56 
Q 45.5625 56 51.78125 48.09375 
Q 58.015625 40.1875 58.015625 27.296875 
Q 58.015625 14.40625 51.78125 6.484375 
Q 45.5625 -1.421875 35.59375 -1.421875 
Q 29.59375 -1.421875 25.265625 0.953125 
Q 20.953125 3.328125 18.109375 8.203125 
z
M 48.6875 27.296875 
Q 48.6875 37.203125 44.609375 42.84375 
Q 40.53125 48.484375 33.40625 48.484375 
Q 26.265625 48.484375 22.1875 42.84375 
Q 18.109375 37.203125 18.109375 27.296875 
Q 18.109375 17.390625 22.1875 11.75 
Q 26.265625 6.109375 33.40625 6.109375 
Q 40.53125 6.109375 44.609375 11.75 
Q 48.6875 17.390625 48.6875 27.296875 
z
" id="DejaVuSans-70"/>
     </defs>
     <g transform="translate(16.139531 286.001989)rotate(-90)scale(0.17 -0.17)">
      <use xlink:href="#DejaVuSans-46"/>
      <use x="57.410156" xlink:href="#DejaVuSans-72"/>
      <use x="98.523438" xlink:href="#DejaVuSans-61"/>
      <use x="159.802734" xlink:href="#DejaVuSans-63"/>
      <use x="214.783203" xlink:href="#DejaVuSans-74"/>
      <use x="253.992188" xlink:href="#DejaVuSans-69"/>
      <use x="281.775391" xlink:href="#DejaVuSans-6f"/>
      <use x="342.957031" xlink:href="#DejaVuSans-6e"/>
      <use x="406.335938" xlink:href="#DejaVuSans-20"/>
      <use x="438.123047" xlink:href="#DejaVuSans-6f"/>
      <use x="499.304688" xlink:href="#DejaVuSans-66"/>
      <use x="534.509766" xlink:href="#DejaVuSans-20"/>
      <use x="566.296875" xlink:href="#DejaVuSans-66"/>
      <use x="601.501953" xlink:href="#DejaVuSans-75"/>
      <use x="664.880859" xlink:href="#DejaVuSans-6e"/>
      <use x="728.259766" xlink:href="#DejaVuSans-63"/>
      <use x="783.240234" xlink:href="#DejaVuSans-74"/>
      <use x="822.449219" xlink:href="#DejaVuSans-69"/>
      <use x="850.232422" xlink:href="#DejaVuSans-6f"/>
      <use x="911.414062" xlink:href="#DejaVuSans-6e"/>
      <use x="974.792969" xlink:href="#DejaVuSans-2c"/>
      <use x="1006.580078" xlink:href="#DejaVuSans-74"/>
      <use x="1045.789062" xlink:href="#DejaVuSans-61"/>
      <use x="1107.068359" xlink:href="#DejaVuSans-72"/>
      <use x="1148.166016" xlink:href="#DejaVuSans-67"/>
      <use x="1211.642578" xlink:href="#DejaVuSans-65"/>
      <use x="1273.166016" xlink:href="#DejaVuSans-74"/>
      <use x="1312.375" xlink:href="#DejaVuSans-20"/>
      <use x="1344.162109" xlink:href="#DejaVuSans-70"/>
      <use x="1407.638672" xlink:href="#DejaVuSans-61"/>
      <use x="1468.917969" xlink:href="#DejaVuSans-69"/>
      <use x="1496.701172" xlink:href="#DejaVuSans-72"/>
      <use x="1537.814453" xlink:href="#DejaVuSans-73"/>
     </g>
    </g>
   </g>
   <g id="line2d_41">
    <defs>
     <path d="M 0 1.5 
C 0.397805 1.5 0.77937 1.341951 1.06066 1.06066 
C 1.341951 0.77937 1.5 0.397805 1.5 0 
C 1.5 -0.397805 1.341951 -0.77937 1.06066 -1.06066 
C 0.77937 -1.341951 0.397805 -1.5 0 -1.5 
C -0.397805 -1.5 -0.77937 -1.341951 -1.06066 -1.06066 
C -1.341951 -0.77937 -1.5 -0.397805 -1.5 0 
C -1.5 0.397805 -1.341951 0.77937 -1.06066 1.06066 
C -0.77937 1.341951 -0.397805 1.5 0 1.5 
z
" id="m7756112500" style="stroke:#f5deb3;"/>
    </defs>
    <g>
     <use style="fill:#f5deb3;stroke:#f5deb3;" x="218.077162" xlink:href="#m7756112500" y="9.697057"/>
     <use style="fill:#f5deb3;stroke:#f5deb3;" x="218.077162" xlink:href="#m7756112500" y="9.697057"/>
    </g>
   </g>
   <g id="line2d_42">
    <defs>
     <path d="M 0 1.5 
C 0.397805 1.5 0.77937 1.341951 1.06066 1.06066 
C 1.341951 0.77937 1.5 0.397805 1.5 0 
C 1.5 -0.397805 1.341951 -0.77937 1.06066 -1.06066 
C 0.77937 -1.341951 0.397805 -1.5 0 -1.5 
C -0.397805 -1.5 -0.77937 -1.341951 -1.06066 -1.06066 
C -1.341951 -0.77937 -1.5 -0.397805 -1.5 0 
C -1.5 0.397805 -1.341951 0.77937 -1.06066 1.06066 
C -0.77937 1.341951 -0.397805 1.5 0 1.5 
z
" id="m6d736f8169" style="stroke:#000080;"/>
    </defs>
    <g>
     <use style="fill:#000080;stroke:#000080;" x="200.233489" xlink:href="#m6d736f8169" y="116.873653"/>
     <use style="fill:#000080;stroke:#000080;" x="200.233489" xlink:href="#m6d736f8169" y="116.873653"/>
    </g>
   </g>
   <g id="line2d_43">
    <path d="M 44.205749 294.88 
L 44.205749 279.083102 
L 77.653281 278.989905 
L 77.653281 278.850109 
L 79.948502 278.850109 
L 79.948502 278.710314 
L 81.973032 278.710314 
L 81.973032 278.314226 
L 83.784035 278.314226 
L 83.784035 278.104533 
L 85.422286 278.104533 
L 85.422286 277.638548 
L 86.917893 277.638548 
L 86.917893 276.869672 
L 90.753425 276.776475 
L 90.753425 276.659979 
L 92.904808 276.566782 
L 92.904808 276.380388 
L 93.887283 276.380388 
L 93.887283 276.263891 
L 94.816624 276.263891 
L 94.816624 276.007599 
L 95.698286 276.007599 
L 95.698286 275.751308 
L 96.536922 275.751308 
L 96.536922 275.448417 
L 97.336537 275.448417 
L 97.336537 274.912534 
L 98.100602 274.912534 
L 98.100602 274.190257 
L 98.832144 274.190257 
L 98.832144 273.817469 
L 99.533818 273.817469 
L 99.533818 273.211688 
L 100.207968 273.211688 
L 100.207968 272.745703 
L 100.856673 272.745703 
L 100.856673 272.303017 
L 101.481783 272.303017 
L 101.481783 271.953528 
L 102.084955 271.953528 
L 102.084955 271.650638 
L 102.667676 271.650638 
L 102.667676 271.510842 
L 103.231288 271.510842 
L 103.231288 270.811864 
L 103.777005 270.811864 
L 103.777005 270.439076 
L 104.305927 270.439076 
L 104.305927 268.132449 
L 104.819059 268.132449 
L 104.819059 266.408304 
L 105.317315 266.408304 
L 105.317315 265.359838 
L 105.801534 265.359838 
L 105.801534 264.754057 
L 106.272485 264.754057 
L 106.272485 263.985181 
L 106.730875 263.985181 
L 106.730875 263.07651 
L 107.177358 263.07651 
L 107.177358 262.004744 
L 107.612537 262.004744 
L 107.612537 256.995403 
L 108.036969 256.995403 
L 108.036969 256.599316 
L 108.451173 256.599316 
L 108.451173 255.946936 
L 108.85563 255.946936 
L 108.85563 255.620747 
L 109.250788 255.620747 
L 109.250788 255.247959 
L 109.637066 255.247959 
L 109.637066 254.758674 
L 110.014853 254.758674 
L 110.014853 254.362587 
L 110.384516 254.362587 
L 110.384516 252.172456 
L 110.746395 252.172456 
L 110.746395 251.683172 
L 111.100812 251.683172 
L 111.100812 251.403581 
L 111.448069 251.403581 
L 111.448069 251.030793 
L 111.788449 251.030793 
L 111.788449 250.704603 
L 112.122219 250.704603 
L 112.122219 250.401713 
L 112.449632 250.401713 
L 112.449632 249.679436 
L 112.770924 249.679436 
L 112.770924 249.260049 
L 113.086321 249.260049 
L 113.086321 248.724166 
L 113.396034 248.724166 
L 113.396034 248.211582 
L 113.700266 248.211582 
L 113.700266 247.6524 
L 113.999206 247.6524 
L 113.999206 246.72043 
L 114.293036 246.72043 
L 114.293036 246.301043 
L 114.581927 246.301043 
L 114.581927 245.974853 
L 114.866043 245.974853 
L 114.866043 245.532167 
L 115.145539 245.532167 
L 115.145539 245.089481 
L 115.420563 245.089481 
L 115.420563 244.646795 
L 115.691256 244.646795 
L 115.691256 244.297306 
L 115.957752 244.297306 
L 115.957752 243.644927 
L 116.220179 243.644927 
L 116.220179 243.365336 
L 116.478659 243.365336 
L 116.478659 242.782855 
L 116.73331 242.782855 
L 116.73331 242.526563 
L 116.984244 242.526563 
L 116.984244 242.177074 
L 117.231566 242.177074 
L 117.231566 241.944081 
L 117.475381 241.944081 
L 117.475381 241.571293 
L 117.715785 241.571293 
L 117.715785 241.408198 
L 117.952873 241.408198 
L 117.952873 240.662622 
L 118.186736 240.662622 
L 118.186736 240.336432 
L 118.417459 240.336432 
L 118.417459 239.800549 
L 118.645127 239.800549 
L 118.645127 239.544257 
L 118.869818 239.544257 
L 118.869818 239.311265 
L 119.09161 239.311265 
L 119.09161 238.775382 
L 119.310576 238.775382 
L 119.310576 238.239499 
L 119.526788 238.239499 
L 119.526788 237.540521 
L 119.740314 237.540521 
L 119.740314 237.191032 
L 119.95122 237.191032 
L 119.95122 236.748346 
L 120.15957 236.748346 
L 120.15957 236.32896 
L 120.365424 236.32896 
L 120.365424 235.979471 
L 120.568842 235.979471 
L 120.568842 235.67658 
L 120.769881 235.67658 
L 120.769881 235.094099 
L 120.968596 235.094099 
L 120.968596 234.814508 
L 121.16504 234.814508 
L 121.16504 233.905836 
L 121.359263 233.905836 
L 121.359263 233.393253 
L 121.551317 233.393253 
L 121.551317 232.740873 
L 121.741249 232.740873 
L 121.741249 232.088494 
L 121.929105 232.088494 
L 121.929105 231.366217 
L 122.114929 231.366217 
L 122.114929 230.760436 
L 122.298767 230.760436 
L 122.298767 229.642072 
L 122.480659 229.642072 
L 122.480659 229.05959 
L 122.660646 229.05959 
L 122.660646 228.500408 
L 122.838768 228.500408 
L 122.838768 228.034423 
L 123.015063 228.034423 
L 123.015063 227.312146 
L 123.189569 227.312146 
L 123.189569 226.380175 
L 123.36232 226.380175 
L 123.36232 225.867592 
L 123.533353 225.867592 
L 123.533353 225.122015 
L 123.7027 225.122015 
L 123.7027 224.609432 
L 123.870396 224.609432 
L 123.870396 223.817257 
L 124.036471 223.817257 
L 124.036471 223.001783 
L 124.200956 223.001783 
L 124.200956 222.069812 
L 124.363883 222.069812 
L 124.363883 221.487331 
L 124.52528 221.487331 
L 124.52528 220.834952 
L 124.685175 220.834952 
L 124.685175 220.159273 
L 124.843597 220.159273 
L 124.843597 219.157405 
L 125.000572 219.157405 
L 125.000572 218.458427 
L 125.156126 218.458427 
L 125.156126 217.526457 
L 125.310285 217.526457 
L 125.310285 216.524588 
L 125.463074 216.524588 
L 125.463074 215.592618 
L 125.614517 215.592618 
L 125.614517 214.986837 
L 125.764637 214.986837 
L 125.764637 214.194662 
L 125.913457 214.194662 
L 125.913457 213.63548 
L 126.061 213.63548 
L 126.061 212.121028 
L 126.207287 212.121028 
L 126.207287 211.352153 
L 126.352339 211.352153 
L 126.352339 210.723073 
L 126.496178 210.723073 
L 126.496178 209.325117 
L 126.638823 209.325117 
L 126.638823 208.90573 
L 126.780294 208.90573 
L 126.780294 207.484476 
L 126.92061 207.484476 
L 126.92061 206.156418 
L 127.05979 206.156418 
L 127.05979 205.014754 
L 127.197852 205.014754 
L 127.197852 204.012886 
L 127.334814 204.012886 
L 127.334814 203.011018 
L 127.470694 203.011018 
L 127.470694 202.055748 
L 127.605507 202.055748 
L 127.605507 201.170376 
L 127.739271 201.170376 
L 127.739271 200.145209 
L 127.872003 200.145209 
L 127.872003 199.026844 
L 128.003717 199.026844 
L 128.003717 198.048275 
L 128.13443 198.048275 
L 128.13443 196.836714 
L 128.264156 196.836714 
L 128.264156 195.881444 
L 128.39291 195.881444 
L 128.39291 195.089269 
L 128.520707 195.089269 
L 128.520707 194.040803 
L 128.647561 194.040803 
L 128.647561 193.411723 
L 128.773486 193.411723 
L 128.773486 192.572949 
L 128.898495 192.572949 
L 128.898495 191.897271 
L 129.022601 191.897271 
L 129.022601 190.988599 
L 129.145817 190.988599 
L 129.145817 190.243023 
L 129.268157 190.243023 
L 129.268157 189.40425 
L 129.389632 189.40425 
L 129.389632 188.77517 
L 129.510254 188.77517 
L 129.510254 188.099491 
L 129.630036 188.099491 
L 129.630036 187.49371 
L 129.748989 187.49371 
L 129.748989 186.678236 
L 129.867125 186.678236 
L 129.867125 185.769565 
L 129.984454 185.769565 
L 129.984454 185.070587 
L 130.100987 185.070587 
L 130.100987 183.998821 
L 130.216736 183.998821 
L 130.216736 183.323143 
L 130.33171 183.323143 
L 130.33171 182.297976 
L 130.445921 182.297976 
L 130.445921 181.762093 
L 130.559378 181.762093 
L 130.559378 180.969918 
L 130.67209 180.969918 
L 130.67209 179.968049 
L 130.784069 179.968049 
L 130.784069 179.105977 
L 130.895323 179.105977 
L 131.005861 177.475029 
L 131.115693 177.475029 
L 131.224827 176.146971 
L 131.333273 176.146971 
L 131.441039 174.469424 
L 131.548134 174.469424 
L 131.654565 173.281162 
L 131.760342 173.281162 
L 131.865471 171.790009 
L 131.969962 171.790009 
L 132.073821 170.81144 
L 132.177056 170.81144 
L 132.279675 169.646477 
L 132.381685 169.646477 
L 132.483094 167.409748 
L 132.583907 167.409748 
L 132.684132 166.198187 
L 132.783777 166.198187 
L 132.882847 165.173019 
L 132.98135 165.173019 
L 133.079291 164.334246 
L 133.176677 164.334246 
L 133.273515 162.656699 
L 133.36981 162.656699 
L 133.465568 162.00432 
L 133.560797 162.00432 
L 133.6555 161.328641 
L 133.749684 161.328641 
L 133.843356 160.396671 
L 133.936519 160.396671 
L 134.029181 159.81419 
L 134.121345 159.81419 
L 134.213018 159.231708 
L 134.304205 159.231708 
L 134.39491 158.625927 
L 134.485139 158.625927 
L 134.574897 158.043446 
L 134.753019 157.950249 
L 134.841393 157.437665 
L 134.929315 157.437665 
L 135.016789 156.692089 
L 135.10382 156.692089 
L 135.190413 156.319301 
L 135.276571 156.319301 
L 135.3623 155.830016 
L 135.447604 155.830016 
L 135.532486 155.38733 
L 135.616951 155.38733 
L 135.701004 154.967943 
L 135.784647 154.967943 
L 135.867885 154.245666 
L 135.950722 154.245666 
L 136.033161 153.80298 
L 136.115208 153.80298 
L 136.196864 152.987506 
L 136.278134 152.987506 
L 136.359022 152.521521 
L 136.439531 152.521521 
L 136.519665 152.288529 
L 136.599426 152.288529 
L 136.67882 151.892441 
L 136.757848 151.892441 
L 136.836515 151.170164 
L 136.992776 151.123566 
L 137.070377 150.65758 
L 137.14763 150.65758 
L 137.224536 149.865406 
L 137.301101 149.865406 
L 137.377325 149.42272 
L 137.453213 149.42272 
L 137.528768 148.840238 
L 137.603992 148.840238 
L 137.678888 148.420851 
L 137.753459 148.420851 
L 137.827708 147.978165 
L 137.901638 147.978165 
L 137.975251 147.395684 
L 138.04855 147.395684 
L 138.121538 146.999597 
L 138.194217 146.999597 
L 138.266591 146.533611 
L 138.33866 146.533611 
L 138.410429 146.090925 
L 138.4819 146.090925 
L 138.553074 145.578342 
L 138.623956 145.578342 
L 138.694545 145.158955 
L 138.764847 145.158955 
L 138.834862 144.832765 
L 138.904592 144.832765 
L 138.974042 144.483276 
L 139.043211 144.483276 
L 139.112104 144.133788 
L 139.249066 144.040591 
L 139.317139 143.760999 
L 139.384945 143.760999 
L 139.452484 143.248416 
L 139.586771 143.155219 
L 139.653523 142.992124 
L 139.786254 142.898927 
L 139.852237 142.78243 
L 139.983449 142.78243 
L 140.048681 142.549438 
L 140.113666 142.549438 
L 140.178407 142.293146 
L 140.242905 142.293146 
L 140.307161 142.060153 
L 140.371179 142.060153 
L 140.434959 141.803862 
L 140.561812 141.710665 
L 140.62489 141.477672 
L 140.687737 141.477672 
L 140.750355 141.314577 
L 140.874911 141.244679 
L 140.936852 141.128183 
L 141.121347 141.058285 
L 141.182408 140.871891 
L 141.3643 140.778694 
L 141.424506 140.662198 
L 141.544287 140.5923 
L 141.603867 140.336008 
L 141.898705 140.26611 
L 141.898705 140.126315 
L 142.07321 140.079716 
L 142.130987 139.939921 
L 142.245962 139.846724 
L 142.303162 139.054549 
L 142.416994 138.961352 
L 142.473629 138.751658 
L 142.530078 138.751658 
L 142.586342 138.495367 
L 142.642422 138.495367 
L 142.69832 138.029381 
L 142.809574 137.936184 
L 142.920112 137.679893 
L 143.029944 137.679893 
L 143.139078 137.213907 
L 143.247524 137.14401 
L 143.35529 136.911017 
L 143.408921 136.911017 
L 143.515683 136.701324 
L 143.621786 136.678024 
L 143.727238 136.51493 
L 143.832047 136.468331 
L 143.936221 136.212039 
L 144.091308 136.118842 
L 144.193927 135.979047 
L 144.245007 135.979047 
L 144.346715 135.769353 
L 144.447825 135.676156 
L 144.548344 135.513061 
L 144.747635 135.419864 
L 144.84642 135.256769 
L 144.944641 135.210171 
L 145.042304 134.977178 
L 145.187766 134.883981 
L 145.284061 134.650989 
L 145.569751 134.557792 
L 145.663936 134.394697 
L 145.757607 134.324799 
L 145.804252 134.254901 
L 145.989576 134.161704 
L 146.081494 134.021909 
L 146.218456 133.928712 
L 146.309161 133.812215 
L 146.489148 133.742318 
L 146.57844 133.579223 
L 146.667271 133.486026 
L 146.755644 133.34623 
L 146.887358 133.299632 
L 146.974611 133.089938 
L 147.190823 132.996741 
L 147.276552 132.810347 
L 147.489022 132.71715 
L 147.57328 132.484158 
L 147.657127 132.437559 
L 147.657127 132.321063 
L 147.947413 132.227866 
L 148.029459 132.157968 
L 148.273273 132.064771 
L 148.353782 131.971574 
L 148.433916 131.948275 
L 148.513678 131.552187 
L 148.63263 131.505589 
L 148.711478 131.272596 
L 148.907027 131.179399 
L 148.984628 131.086202 
L 149.061881 131.039603 
L 149.138788 130.899808 
L 149.291576 130.806611 
L 149.367465 130.690115 
L 149.518243 130.596917 
L 149.555732 130.50372 
L 149.741959 130.433823 
L 149.815889 130.294027 
L 149.926191 130.294027 
L 150.035789 130.037735 
L 150.324681 129.944538 
L 150.360453 129.851341 
L 150.784014 129.758144 
L 150.888293 129.641648 
L 151.026355 129.548451 
L 151.129178 129.385356 
L 151.332999 129.292159 
L 151.400405 129.198962 
L 151.733528 129.105765 
L 151.832219 128.94267 
L 151.962932 128.872772 
L 152.027918 128.756276 
L 152.253451 128.663079 
L 152.34921 128.523283 
L 152.539141 128.430086 
L 152.633326 128.220393 
L 152.789162 128.127196 
L 152.851103 128.0107 
L 153.035598 127.940802 
L 153.127109 127.801006 
L 153.187846 127.754408 
L 153.248369 127.591313 
L 153.398752 127.521415 
L 153.488354 127.288423 
L 153.695627 127.218525 
L 153.783699 127.008831 
L 153.929489 126.915634 
L 153.9585 126.869036 
L 154.245942 126.775839 
L 154.331245 126.682642 
L 154.38788 126.682642 
L 154.444329 126.542846 
L 154.584645 126.449649 
L 154.640452 126.379751 
L 154.889367 126.286554 
L 154.944195 126.170058 
L 155.215743 126.076861 
L 155.323172 125.960365 
L 155.588844 125.867168 
L 155.667752 125.657474 
L 155.798464 125.610876 
L 155.850472 125.49438 
L 156.08258 125.401182 
L 156.184742 125.307985 
L 156.311596 125.238088 
L 156.412409 125.144891 
L 156.562529 125.074993 
L 156.562529 125.005095 
L 157.053666 124.935197 
L 157.053666 124.888599 
L 157.389299 124.795402 
L 157.484002 124.702205 
L 157.601653 124.609008 
L 157.695196 124.469212 
L 157.88077 124.376015 
L 157.972811 124.306117 
L 158.109956 124.236219 
L 158.200781 124.143022 
L 158.470412 124.049825 
L 158.581522 123.979928 
L 158.80161 123.886731 
L 158.910606 123.793534 
L 159.040495 123.700337 
L 159.147992 123.58384 
L 159.276106 123.513942 
L 159.3186 123.397446 
L 159.529506 123.304249 
L 159.633996 123.164454 
L 159.737856 123.117855 
L 159.737856 123.047957 
L 160.187524 122.95476 
L 160.288102 122.908162 
L 160.447811 122.838264 
L 160.487508 122.768366 
L 160.840712 122.675169 
L 160.840712 122.65187 
L 161.262775 122.558673 
L 161.262775 122.535374 
L 161.544716 122.442176 
L 161.637678 122.395578 
L 161.986418 122.32568 
L 161.986418 122.279082 
L 162.452458 122.185885 
L 162.452458 122.162585 
L 162.680823 122.069388 
L 162.733095 122.02279 
L 162.923409 121.929593 
L 163.026335 121.859695 
L 163.297829 121.766498 
L 163.348261 121.719899 
L 163.531919 121.626702 
L 163.631276 121.580104 
L 163.762864 121.486907 
L 163.860898 121.440308 
L 164.279369 121.347111 
L 164.342854 121.253914 
L 164.811664 121.160717 
L 164.873217 121.06752 
L 165.071755 120.974323 
L 165.132385 120.904425 
L 165.342922 120.811228 
L 165.37279 120.76463 
L 165.609878 120.671433 
L 165.683302 120.601535 
L 166.031439 120.508338 
L 166.117382 120.391842 
L 166.302131 120.321944 
L 166.400795 120.228747 
L 166.707246 120.13555 
L 166.707246 120.11225 
L 167.224031 120.019053 
L 167.304227 119.949156 
L 167.634407 119.855959 
L 167.673606 119.80936 
L 167.829513 119.716163 
L 167.932671 119.576367 
L 168.225847 119.48317 
L 168.314091 119.436572 
L 168.895136 119.343375 
L 168.895136 119.320076 
L 169.160509 119.226879 
L 169.208322 119.156981 
L 169.852605 119.063784 
L 169.852605 119.040485 
L 170.20538 118.947287 
L 170.295255 118.87739 
L 170.737715 118.784193 
L 170.824857 118.737594 
L 171.475171 118.644397 
L 171.475171 118.621098 
L 172.262418 118.5512 
L 172.262418 118.504602 
L 173.043854 118.411404 
L 173.148576 118.341507 
L 173.88249 118.24831 
L 173.88249 118.22501 
L 175.127698 118.131813 
L 175.127698 118.108514 
L 175.512472 118.015317 
L 175.562031 117.968719 
L 176.508728 117.875522 
L 176.508728 117.852222 
L 177.219766 117.759025 
L 177.219766 117.735726 
L 179.171743 117.642529 
L 179.171743 117.61923 
L 180.52132 117.526033 
L 180.607633 117.456135 
L 182.097088 117.362938 
L 182.097088 117.339639 
L 183.352767 117.246441 
L 183.352767 117.223142 
L 187.693473 117.129945 
L 187.693473 117.106646 
L 194.997574 117.013449 
L 194.997574 116.99015 
L 200.233489 116.896953 
L 200.233489 116.873653 
L 333.168 116.873653 
L 333.168 116.873653 
" style="fill:none;stroke:#000080;stroke-linecap:square;stroke-width:1.5;"/>
   </g>
   <g id="line2d_44">
    <defs>
     <path d="M 0 6 
C 1.591219 6 3.117479 5.367802 4.242641 4.242641 
C 5.367802 3.117479 6 1.591219 6 0 
C 6 -1.591219 5.367802 -3.117479 4.242641 -4.242641 
C 3.117479 -5.367802 1.591219 -6 0 -6 
C -1.591219 -6 -3.117479 -5.367802 -4.242641 -4.242641 
C -5.367802 -3.117479 -6 -1.591219 -6 0 
C -6 1.591219 -5.367802 3.117479 -4.242641 4.242641 
C -3.117479 5.367802 -1.591219 6 0 6 
z
" id="ma2cee47b9a" style="stroke:#000080;stroke-width:1.5;"/>
    </defs>
    <g>
     <use style="fill:none;stroke:#000080;stroke-width:1.5;" x="77.653281" xlink:href="#ma2cee47b9a" y="278.850109"/>
     <use style="fill:none;stroke:#000080;stroke-width:1.5;" x="126.92061" xlink:href="#ma2cee47b9a" y="206.156418"/>
     <use style="fill:none;stroke:#000080;stroke-width:1.5;" x="166.442907" xlink:href="#ma2cee47b9a" y="120.205448"/>
     <use style="fill:none;stroke:#000080;stroke-width:1.5;" x="200.233489" xlink:href="#ma2cee47b9a" y="116.896953"/>
     <use style="fill:none;stroke:#000080;stroke-width:1.5;" x="200.233489" xlink:href="#ma2cee47b9a" y="116.873653"/>
     <use style="fill:none;stroke:#000080;stroke-width:1.5;" x="333.168" xlink:href="#ma2cee47b9a" y="116.873653"/>
    </g>
   </g>
   <g id="line2d_45">
    <path style="fill:none;stroke:#000080;stroke-linecap:square;stroke-width:1.5;"/>
    <g/>
   </g>
   <g id="line2d_46">
    <path clip-path="url(#p8f16ccb16a)" d="M 121.551317 232.740873 
" style="fill:none;stroke:#000080;stroke-linecap:square;stroke-width:1.5;"/>
    <defs>
     <path d="M -12 12 
L 12 -12 
M -12 -12 
L 12 12 
" id="m9bc8d49ac7" style="stroke:#000080;"/>
    </defs>
    <g clip-path="url(#p8f16ccb16a)">
     <use style="fill:#000080;stroke:#000080;" x="121.551317" xlink:href="#m9bc8d49ac7" y="232.740873"/>
    </g>
   </g>
   <g id="line2d_47">
    <defs>
     <path d="M 0 1.5 
C 0.397805 1.5 0.77937 1.341951 1.06066 1.06066 
C 1.341951 0.77937 1.5 0.397805 1.5 0 
C 1.5 -0.397805 1.341951 -0.77937 1.06066 -1.06066 
C 0.77937 -1.341951 0.397805 -1.5 0 -1.5 
C -0.397805 -1.5 -0.77937 -1.341951 -1.06066 -1.06066 
C -1.341951 -0.77937 -1.5 -0.397805 -1.5 0 
C -1.5 0.397805 -1.341951 0.77937 -1.06066 1.06066 
C -0.77937 1.341951 -0.397805 1.5 0 1.5 
z
" id="m8e4571de0b" style="stroke:#ff00ff;"/>
    </defs>
    <g>
     <use style="fill:#ff00ff;stroke:#ff00ff;" x="198.245977" xlink:href="#m8e4571de0b" y="116.873653"/>
     <use style="fill:#ff00ff;stroke:#ff00ff;" x="198.245977" xlink:href="#m8e4571de0b" y="116.873653"/>
    </g>
   </g>
   <g id="line2d_48">
    <path d="M 44.205749 294.88 
L 44.205749 279.385992 
L 75.003641 279.339394 
L 75.003641 279.222897 
L 77.653281 279.222897 
L 77.653281 279.106401 
L 79.948502 279.106401 
L 79.948502 278.989905 
L 81.973032 278.989905 
L 81.973032 278.570518 
L 83.784035 278.570518 
L 83.784035 278.314226 
L 85.422286 278.314226 
L 85.422286 277.824942 
L 86.917893 277.824942 
L 86.917893 277.265759 
L 89.567532 277.219161 
L 89.567532 277.149263 
L 91.862754 277.056066 
L 91.862754 276.986168 
L 92.904808 276.986168 
L 92.904808 276.823073 
L 93.887283 276.823073 
L 93.887283 276.683278 
L 94.816624 276.683278 
L 94.816624 276.426986 
L 95.698286 276.426986 
L 95.698286 276.217293 
L 96.536922 276.217293 
L 96.536922 275.937702 
L 97.336537 275.937702 
L 97.336537 275.541614 
L 98.100602 275.541614 
L 98.100602 274.749439 
L 98.832144 274.749439 
L 98.832144 274.39995 
L 99.533818 274.39995 
L 99.533818 273.631075 
L 100.207968 273.631075 
L 100.207968 273.118491 
L 100.856673 273.118491 
L 100.856673 272.629207 
L 101.481783 272.629207 
L 101.481783 272.256419 
L 102.084955 272.256419 
L 102.084955 271.953528 
L 102.667676 271.953528 
L 102.667676 271.697236 
L 103.231288 271.697236 
L 103.231288 271.044857 
L 103.777005 271.044857 
L 103.777005 270.788565 
L 104.305927 270.788565 
L 104.305927 268.598435 
L 104.819059 268.598435 
L 104.819059 266.920888 
L 105.317315 266.920888 
L 105.317315 266.035516 
L 105.801534 266.035516 
L 105.801534 265.26664 
L 106.272485 265.26664 
L 106.272485 264.707458 
L 106.730875 264.707458 
L 106.730875 263.845386 
L 107.177358 263.845386 
L 107.177358 262.703722 
L 107.612537 262.703722 
L 107.612537 257.671082 
L 108.036969 257.671082 
L 108.036969 257.321593 
L 108.451173 257.321593 
L 108.451173 256.739111 
L 108.85563 256.739111 
L 108.85563 256.226528 
L 109.250788 256.226528 
L 109.250788 255.923637 
L 109.637066 255.923637 
L 109.637066 255.178061 
L 110.014853 255.178061 
L 110.014853 254.525682 
L 110.384516 254.525682 
L 110.384516 252.498646 
L 110.746395 252.498646 
L 110.746395 252.009362 
L 111.100812 252.009362 
L 111.100812 251.72977 
L 111.448069 251.72977 
L 111.448069 251.496778 
L 111.788449 251.496778 
L 111.788449 251.170588 
L 112.122219 251.170588 
L 112.122219 250.867698 
L 112.449632 250.867698 
L 112.449632 250.098822 
L 112.770924 250.098822 
L 112.770924 249.679436 
L 113.086321 249.679436 
L 113.086321 249.166852 
L 113.396034 249.166852 
L 113.396034 248.60767 
L 113.700266 248.60767 
L 113.700266 248.095086 
L 113.999206 248.095086 
L 113.999206 247.279612 
L 114.293036 247.279612 
L 114.293036 246.767028 
L 114.581927 246.767028 
L 114.581927 246.184547 
L 114.866043 246.184547 
L 114.866043 245.811758 
L 115.145539 245.811758 
L 115.145539 245.392372 
L 115.420563 245.392372 
L 115.420563 245.112781 
L 115.691256 245.112781 
L 115.691256 244.763292 
L 115.957752 244.763292 
L 115.957752 244.204109 
L 116.220179 244.204109 
L 116.220179 243.924518 
L 116.478659 243.924518 
L 116.478659 243.202241 
L 116.73331 243.202241 
L 116.73331 242.759555 
L 116.984244 242.759555 
L 116.984244 242.503263 
L 117.231566 242.503263 
L 117.231566 242.177074 
L 117.475381 242.177074 
L 117.475381 241.687789 
L 117.715785 241.687789 
L 117.715785 241.408198 
L 117.952873 241.408198 
L 117.952873 240.616023 
L 118.186736 240.616023 
L 118.186736 240.313133 
L 118.417459 240.313133 
L 118.417459 239.823849 
L 118.645127 239.823849 
L 118.645127 239.497659 
L 118.869818 239.497659 
L 118.869818 239.194769 
L 119.09161 239.194769 
L 119.09161 238.775382 
L 119.310576 238.775382 
L 119.310576 238.262798 
L 119.526788 238.262798 
L 119.526788 237.680317 
L 119.740314 237.680317 
L 119.740314 237.354127 
L 119.95122 237.354127 
L 119.95122 236.888142 
L 120.15957 236.888142 
L 120.15957 236.398857 
L 120.365424 236.398857 
L 120.365424 236.00277 
L 120.568842 236.00277 
L 120.568842 235.746478 
L 120.769881 235.746478 
L 120.769881 235.210595 
L 120.968596 235.210595 
L 120.968596 234.907705 
L 121.16504 234.907705 
L 121.16504 234.068931 
L 121.359263 234.068931 
L 121.359263 233.556348 
L 121.551317 233.556348 
L 121.551317 232.997165 
L 121.741249 232.997165 
L 121.741249 232.298188 
L 121.929105 232.298188 
L 121.929105 231.552611 
L 122.114929 231.552611 
L 122.114929 230.94683 
L 122.298767 230.94683 
L 122.298767 229.828466 
L 122.480659 229.828466 
L 122.480659 229.362481 
L 122.660646 229.362481 
L 122.660646 228.826598 
L 122.838768 228.826598 
L 122.838768 228.407211 
L 123.015063 228.407211 
L 123.015063 227.848029 
L 123.189569 227.848029 
L 123.189569 226.86946 
L 123.36232 226.86946 
L 123.36232 226.193781 
L 123.533353 226.193781 
L 123.533353 225.378307 
L 123.7027 225.378307 
L 123.7027 224.912322 
L 123.870396 224.912322 
L 123.870396 224.213344 
L 124.036471 224.213344 
L 124.036471 223.374571 
L 124.200956 223.374571 
L 124.200956 222.302805 
L 124.363883 222.302805 
L 124.363883 221.673725 
L 124.52528 221.673725 
L 124.52528 220.998046 
L 124.685175 220.998046 
L 124.685175 220.392266 
L 124.843597 220.392266 
L 124.843597 219.2972 
L 125.000572 219.2972 
L 125.000572 218.505026 
L 125.156126 218.505026 
L 125.156126 217.619654 
L 125.310285 217.619654 
L 125.310285 216.710983 
L 125.463074 216.710983 
L 125.463074 215.918808 
L 125.614517 215.918808 
L 125.614517 215.243129 
L 125.764637 215.243129 
L 125.764637 214.450954 
L 125.913457 214.450954 
L 125.913457 213.845174 
L 126.061 213.845174 
L 126.061 212.284123 
L 126.207287 212.284123 
L 126.207287 211.422051 
L 126.352339 211.422051 
L 126.352339 210.886168 
L 126.496178 210.886168 
L 126.496178 209.581409 
L 126.638823 209.581409 
L 126.638823 209.022227 
L 126.780294 209.022227 
L 126.780294 207.554373 
L 126.92061 207.554373 
L 126.92061 206.436009 
L 127.05979 206.436009 
L 127.05979 205.364243 
L 127.197852 205.364243 
L 127.197852 204.52547 
L 127.334814 204.52547 
L 127.334814 203.523601 
L 127.470694 203.523601 
L 127.470694 202.661529 
L 127.605507 202.661529 
L 127.605507 201.799456 
L 127.739271 201.799456 
L 127.739271 200.72769 
L 127.872003 200.72769 
L 127.872003 199.632625 
L 128.003717 199.632625 
L 128.003717 198.584158 
L 128.13443 198.584158 
L 128.13443 197.58229 
L 128.264156 197.58229 
L 128.264156 196.533823 
L 128.39291 196.533823 
L 128.39291 195.811546 
L 128.520707 195.811546 
L 128.520707 195.135868 
L 128.647561 195.135868 
L 128.647561 194.413591 
L 128.773486 194.413591 
L 128.773486 193.621416 
L 128.898495 193.621416 
L 128.898495 192.85254 
L 129.022601 192.85254 
L 129.022601 191.757475 
L 129.145817 191.757475 
L 129.145817 191.058497 
L 129.268157 191.058497 
L 129.268157 190.056629 
L 129.389632 190.056629 
L 129.389632 189.287754 
L 129.510254 189.287754 
L 129.510254 188.845068 
L 129.630036 188.845068 
L 129.630036 188.14609 
L 129.748989 188.14609 
L 129.748989 187.307316 
L 129.867125 187.307316 
L 129.867125 186.538441 
L 129.984454 186.538441 
L 129.984454 185.839463 
L 130.100987 185.839463 
L 130.100987 184.697799 
L 130.216736 184.697799 
L 130.216736 183.789128 
L 130.33171 183.789128 
L 130.33171 182.833858 
L 130.445921 182.833858 
L 130.445921 182.437771 
L 130.559378 182.437771 
L 130.559378 181.692195 
L 130.67209 181.692195 
L 130.67209 180.806823 
L 130.784069 180.806823 
L 130.784069 179.991349 
L 130.895323 179.991349 
L 131.005861 178.243904 
L 131.115693 178.243904 
L 131.224827 177.009043 
L 131.333273 177.009043 
L 131.441039 175.54119 
L 131.548134 175.54119 
L 131.654565 174.422826 
L 131.760342 174.422826 
L 131.865471 173.02487 
L 131.969962 173.02487 
L 132.073821 171.953104 
L 132.177056 171.953104 
L 132.279675 170.83474 
L 132.381685 170.83474 
L 132.483094 168.574711 
L 132.583907 168.574711 
L 132.684132 167.502945 
L 132.783777 167.502945 
L 132.882847 166.454479 
L 132.98135 166.454479 
L 133.079291 165.545808 
L 133.176677 165.545808 
L 133.273515 163.635268 
L 133.36981 163.635268 
L 133.465568 163.076086 
L 133.560797 163.076086 
L 133.6555 162.283911 
L 133.749684 162.283911 
L 133.843356 161.37524 
L 133.936519 161.37524 
L 134.029181 160.536467 
L 134.121345 160.536467 
L 134.213018 159.837489 
L 134.304205 159.837489 
L 134.39491 159.16181 
L 134.485139 159.16181 
L 134.574897 158.486132 
L 134.664189 158.486132 
L 134.753019 157.996847 
L 134.841393 157.996847 
L 134.929315 157.437665 
L 135.016789 157.437665 
L 135.10382 156.831884 
L 135.190413 156.831884 
L 135.276571 156.505695 
L 135.3623 156.505695 
L 135.447604 156.086308 
L 135.532486 156.086308 
L 135.616951 155.620323 
L 135.701004 155.620323 
L 135.784647 154.804849 
L 135.867885 154.804849 
L 135.950722 154.268966 
L 136.115208 154.175769 
L 136.196864 153.476791 
L 136.278134 153.476791 
L 136.359022 152.964207 
L 136.439531 152.964207 
L 136.519665 152.614718 
L 136.599426 152.614718 
L 136.67882 151.985638 
L 136.757848 151.985638 
L 136.836515 151.30996 
L 136.992776 151.240062 
L 137.070377 150.727478 
L 137.14763 150.727478 
L 137.224536 150.191595 
L 137.301101 150.191595 
L 137.377325 149.772208 
L 137.453213 149.772208 
L 137.528768 149.213026 
L 137.603992 149.213026 
L 137.678888 148.747041 
L 137.753459 148.747041 
L 137.827708 148.444151 
L 137.901638 148.444151 
L 137.975251 148.117961 
L 138.04855 148.117961 
L 138.121538 147.698574 
L 138.194217 147.698574 
L 138.266591 147.442282 
L 138.33866 147.442282 
L 138.410429 147.092794 
L 138.4819 147.092794 
L 138.553074 146.487013 
L 138.623956 146.487013 
L 138.694545 146.044327 
L 138.764847 146.044327 
L 138.834862 145.415247 
L 138.904592 145.415247 
L 138.974042 145.158955 
L 139.112104 145.135656 
L 139.180721 144.879364 
L 139.249066 144.879364 
L 139.317139 144.413379 
L 139.452484 144.320182 
L 139.519758 143.924094 
L 139.586771 143.924094 
L 139.653523 143.667802 
L 139.786254 143.574605 
L 139.852237 143.295014 
L 139.983449 143.225116 
L 140.048681 142.922226 
L 140.113666 142.922226 
L 140.178407 142.665934 
L 140.307161 142.596036 
L 140.371179 142.409642 
L 140.498503 142.316445 
L 140.561812 142.17665 
L 140.687737 142.106752 
L 140.750355 141.803862 
L 140.812746 141.803862 
L 140.874911 141.54757 
L 141.060069 141.454373 
L 141.121347 141.337876 
L 141.303883 141.244679 
L 141.3643 141.128183 
L 141.484501 141.081584 
L 141.544287 140.871891 
L 141.781376 140.778694 
L 141.84014 140.5923 
L 141.95707 140.499103 
L 142.015238 140.242811 
L 142.130987 140.172913 
L 142.18857 139.986519 
L 142.245962 139.986519 
L 142.303162 139.264242 
L 142.360172 139.264242 
L 142.416994 139.00795 
L 142.530078 138.914753 
L 142.586342 138.658461 
L 142.642422 138.658461 
L 142.69832 138.332272 
L 142.809574 138.262374 
L 142.920112 138.052681 
L 143.029944 137.982783 
L 143.139078 137.656593 
L 143.247524 137.609995 
L 143.35529 137.377002 
L 143.462385 137.307104 
L 143.568817 137.12071 
L 143.621786 137.12071 
L 143.727238 136.81782 
L 143.779723 136.81782 
L 143.884213 136.561528 
L 144.039767 136.538229 
L 144.142694 136.258638 
L 144.245007 136.18874 
L 144.346715 135.909149 
L 144.447825 135.815952 
L 144.548344 135.55966 
L 144.648278 135.536361 
L 144.747635 135.349967 
L 144.797098 135.349967 
L 144.895601 135.023777 
L 145.042304 134.93058 
L 145.139415 134.744186 
L 145.284061 134.697587 
L 145.37982 134.581091 
L 145.522465 134.511193 
L 145.569751 134.371398 
L 145.710835 134.278201 
L 145.804252 133.998609 
L 145.989576 133.905412 
L 146.081494 133.788916 
L 146.263868 133.695719 
L 146.309161 133.579223 
L 146.533852 133.486026 
L 146.622913 133.299632 
L 146.755644 133.206435 
L 146.843566 133.136537 
L 146.93104 133.04334 
L 146.93104 132.973442 
L 147.147797 132.926843 
L 147.190823 132.787048 
L 147.404349 132.693851 
L 147.489022 132.600654 
L 147.615255 132.507457 
L 147.698898 132.41426 
L 147.864973 132.321063 
L 147.947413 132.181267 
L 148.111115 132.08807 
L 148.192385 131.971574 
L 148.393896 131.878377 
L 148.473843 131.645384 
L 148.55342 131.622085 
L 148.63263 131.482289 
L 148.789965 131.389092 
L 148.868095 131.295895 
L 149.023298 131.225998 
L 149.061881 131.1561 
L 149.215352 131.109501 
L 149.291576 131.016304 
L 149.443019 130.923107 
L 149.518243 130.853209 
L 149.630465 130.760012 
L 149.66771 130.690115 
L 149.852735 130.596917 
L 149.962801 130.480421 
L 150.072167 130.387224 
L 150.180842 130.177531 
L 150.608797 130.084334 
L 150.714141 129.921239 
L 150.922912 129.828042 
L 151.026355 129.781443 
L 151.197387 129.688246 
L 151.231391 129.57175 
L 151.467548 129.525152 
L 151.53443 129.408655 
L 151.799385 129.315458 
L 151.864991 129.26886 
L 151.995456 129.198962 
L 152.092658 129.082466 
L 152.317349 129.035867 
L 152.381011 128.94267 
L 152.539141 128.849473 
L 152.633326 128.686378 
L 152.88199 128.593181 
L 152.97432 128.453386 
L 153.096659 128.360189 
L 153.187846 128.243692 
L 153.248369 128.173794 
L 153.30868 128.057298 
L 153.458539 127.964101 
L 153.54783 127.801006 
L 153.695627 127.707809 
L 153.783699 127.637911 
L 153.871321 127.544714 
L 153.9585 127.451517 
L 154.016374 127.38162 
L 154.016374 127.311722 
L 154.331245 127.218525 
L 154.416128 127.125328 
L 154.640452 127.05543 
L 154.696079 126.892335 
L 154.998849 126.799138 
L 155.107638 126.636043 
L 155.242663 126.542846 
L 155.349925 126.379751 
L 155.403306 126.309854 
L 155.456522 126.239956 
L 155.693974 126.146759 
L 155.746298 126.076861 
L 155.954019 125.983664 
L 156.056945 125.937065 
L 156.235596 125.843868 
L 156.336855 125.727372 
L 156.512635 125.634175 
L 156.587422 125.447781 
L 156.736028 125.354584 
L 156.83439 125.191489 
L 157.005179 125.098292 
L 157.102017 125.005095 
L 157.389299 124.911898 
L 157.460375 124.795402 
L 157.625086 124.702205 
L 157.671858 124.632307 
L 157.926853 124.53911 
L 158.018648 124.469212 
L 158.200781 124.399314 
L 158.268586 124.282818 
L 158.492691 124.189621 
L 158.559357 124.119723 
L 158.713912 124.073125 
L 158.823464 123.933329 
L 158.910606 123.840132 
L 158.975673 123.746935 
L 159.147992 123.653738 
L 159.233507 123.537242 
L 159.466505 123.444045 
L 159.550455 123.304249 
L 159.675615 123.211052 
L 159.779224 123.141154 
L 160.004989 123.047957 
L 160.106637 122.95476 
L 160.566627 122.884862 
L 160.645384 122.791665 
L 160.995391 122.698468 
L 161.091363 122.605271 
L 161.338413 122.512074 
L 161.432494 122.465476 
L 161.711688 122.372279 
L 161.766986 122.302381 
L 162.131166 122.209184 
L 162.185133 122.115987 
L 162.470133 122.02279 
L 162.575801 121.929593 
L 162.733095 121.836396 
L 162.767854 121.743199 
L 163.060507 121.650002 
L 163.111639 121.603403 
L 163.465361 121.510206 
L 163.498673 121.440308 
L 163.746471 121.347111 
L 163.811951 121.300513 
L 164.055305 121.207316 
L 164.055305 121.184016 
L 164.390315 121.090819 
L 164.500549 121.020922 
L 164.563224 120.927725 
L 164.672359 120.811228 
L 164.965135 120.718031 
L 165.071755 120.601535 
L 165.447232 120.508338 
L 165.550912 120.415141 
L 165.916175 120.321944 
L 166.017073 120.252046 
L 166.35858 120.158849 
L 166.456921 120.088951 
L 166.638076 119.995754 
L 166.638076 119.972455 
L 167.021889 119.879258 
L 167.103032 119.762762 
L 167.803626 119.669565 
L 167.86827 119.622966 
L 168.238481 119.529769 
L 168.238481 119.50647 
L 168.785382 119.413273 
L 168.797611 119.366674 
L 169.244094 119.273477 
L 169.244094 119.250178 
L 170.01282 119.156981 
L 170.103705 119.110382 
L 170.846573 119.017185 
L 170.911559 118.947287 
L 171.56907 118.85409 
L 171.589867 118.807492 
L 172.182285 118.714295 
L 172.182285 118.690996 
L 172.813131 118.597799 
L 172.813131 118.574499 
L 173.936971 118.481302 
L 173.936971 118.458003 
L 174.384384 118.364806 
L 174.472486 118.318207 
L 175.619669 118.22501 
L 175.677115 118.178412 
L 176.065942 118.085215 
L 176.121918 118.015317 
L 176.563282 117.92212 
L 176.563282 117.898821 
L 177.72166 117.805624 
L 177.72166 117.782324 
L 178.949691 117.689127 
L 178.949691 117.665828 
L 180.366102 117.572631 
L 180.366102 117.549332 
L 181.459442 117.456135 
L 181.459442 117.432836 
L 182.760825 117.339639 
L 182.760825 117.316339 
L 184.910293 117.223142 
L 185.015305 117.153244 
L 189.126526 117.060047 
L 189.126526 117.036748 
L 195.724788 116.943551 
L 195.724788 116.920252 
L 333.168 116.873653 
L 333.168 116.873653 
" style="fill:none;stroke:#ff00ff;stroke-linecap:square;stroke-width:1.5;"/>
   </g>
   <g id="line2d_49">
    <defs>
     <path d="M -0 8.485281 
L 5.091169 0 
L 0 -8.485281 
L -5.091169 -0 
z
" id="mba4e5b36e9" style="stroke:#ff00ff;stroke-linejoin:miter;stroke-width:1.5;"/>
    </defs>
    <g>
     <use style="fill:none;stroke:#ff00ff;stroke-linejoin:miter;stroke-width:1.5;" x="92.904808" xlink:href="#mba4e5b36e9" y="276.986168"/>
     <use style="fill:none;stroke:#ff00ff;stroke-linejoin:miter;stroke-width:1.5;" x="143.029944" xlink:href="#mba4e5b36e9" y="137.982783"/>
     <use style="fill:none;stroke:#ff00ff;stroke-linejoin:miter;stroke-width:1.5;" x="198.245977" xlink:href="#mba4e5b36e9" y="116.896953"/>
     <use style="fill:none;stroke:#ff00ff;stroke-linejoin:miter;stroke-width:1.5;" x="198.245977" xlink:href="#mba4e5b36e9" y="116.873653"/>
     <use style="fill:none;stroke:#ff00ff;stroke-linejoin:miter;stroke-width:1.5;" x="198.245977" xlink:href="#mba4e5b36e9" y="116.873653"/>
     <use style="fill:none;stroke:#ff00ff;stroke-linejoin:miter;stroke-width:1.5;" x="333.168" xlink:href="#mba4e5b36e9" y="116.873653"/>
    </g>
   </g>
   <g id="line2d_50">
    <path style="fill:none;stroke:#ff00ff;stroke-linecap:square;stroke-width:1.5;"/>
    <g/>
   </g>
   <g id="line2d_51">
    <path clip-path="url(#p8f16ccb16a)" d="M 121.551317 232.997165 
" style="fill:none;stroke:#ff00ff;stroke-linecap:square;stroke-width:1.5;"/>
    <defs>
     <path d="M -12 12 
L 12 -12 
M -12 -12 
L 12 12 
" id="m82782e136b" style="stroke:#ff00ff;"/>
    </defs>
    <g clip-path="url(#p8f16ccb16a)">
     <use style="fill:#ff00ff;stroke:#ff00ff;" x="121.551317" xlink:href="#m82782e136b" y="232.997165"/>
    </g>
   </g>
   <g id="line2d_52">
    <path d="M 333.168 116.873653 
L 363.64328 289.176341 
" style="fill:none;stroke:#000080;stroke-linecap:square;stroke-width:1.5;"/>
    <g>
     <use style="fill:none;stroke:#000080;stroke-width:1.5;" x="333.168" xlink:href="#ma2cee47b9a" y="116.873653"/>
     <use style="fill:none;stroke:#000080;stroke-width:1.5;" x="363.64328" xlink:href="#ma2cee47b9a" y="289.176341"/>
    </g>
   </g>
   <g id="line2d_53">
    <path d="M 333.168 116.873653 
L 363.64328 152.288529 
" style="fill:none;stroke:#ff00ff;stroke-linecap:square;stroke-width:1.5;"/>
    <g>
     <use style="fill:none;stroke:#ff00ff;stroke-linejoin:miter;stroke-width:1.5;" x="333.168" xlink:href="#mba4e5b36e9" y="116.873653"/>
     <use style="fill:none;stroke:#ff00ff;stroke-linejoin:miter;stroke-width:1.5;" x="363.64328" xlink:href="#mba4e5b36e9" y="152.288529"/>
    </g>
   </g>
   <g id="line2d_54">
    <path d="M 333.168 294.88 
L 333.168 9.697057 
" style="fill:none;stroke:#000000;stroke-linecap:square;stroke-width:1.5;"/>
   </g>
   <g id="patch_3">
    <path d="M 56.12 294.88 
L 56.12 6.845228 
" style="fill:none;stroke:#000000;stroke-linecap:square;stroke-linejoin:miter;stroke-width:0.8;"/>
   </g>
   <g id="patch_4">
    <path d="M 333.168 294.88 
L 333.168 6.845228 
" style="fill:none;stroke:#000000;stroke-linecap:square;stroke-linejoin:miter;stroke-width:0.8;"/>
   </g>
   <g id="patch_5">
    <path d="M 56.12 294.88 
L 333.168 294.88 
" style="fill:none;stroke:#000000;stroke-linecap:square;stroke-linejoin:miter;stroke-width:0.8;"/>
   </g>
   <g id="patch_6">
    <path d="M 56.12 6.845228 
L 333.168 6.845228 
" style="fill:none;stroke:#000000;stroke-linecap:square;stroke-linejoin:miter;stroke-width:0.8;"/>
   </g>
   <g id="text_13">
    <!-- scipyAlg -->
    <defs>
     <path d="M 32.171875 -5.078125 
Q 28.375 -14.84375 24.75 -17.8125 
Q 21.140625 -20.796875 15.09375 -20.796875 
L 7.90625 -20.796875 
L 7.90625 -13.28125 
L 13.1875 -13.28125 
Q 16.890625 -13.28125 18.9375 -11.515625 
Q 21 -9.765625 23.484375 -3.21875 
L 25.09375 0.875 
L 2.984375 54.6875 
L 12.5 54.6875 
L 29.59375 11.921875 
L 46.6875 54.6875 
L 56.203125 54.6875 
z
" id="DejaVuSans-79"/>
     <path d="M 34.1875 63.1875 
L 20.796875 26.90625 
L 47.609375 26.90625 
z
M 28.609375 72.90625 
L 39.796875 72.90625 
L 67.578125 0 
L 57.328125 0 
L 50.6875 18.703125 
L 17.828125 18.703125 
L 11.1875 0 
L 0.78125 0 
z
" id="DejaVuSans-41"/>
    </defs>
    <g transform="translate(369.18424 293.867279)scale(0.17 -0.17)">
     <use xlink:href="#DejaVuSans-73"/>
     <use x="52.099609" xlink:href="#DejaVuSans-63"/>
     <use x="107.080078" xlink:href="#DejaVuSans-69"/>
     <use x="134.863281" xlink:href="#DejaVuSans-70"/>
     <use x="198.339844" xlink:href="#DejaVuSans-79"/>
     <use x="257.519531" xlink:href="#DejaVuSans-41"/>
     <use x="325.927734" xlink:href="#DejaVuSans-6c"/>
     <use x="353.710938" xlink:href="#DejaVuSans-67"/>
    </g>
   </g>
   <g id="text_14">
    <!-- scipy-opt -->
    <g transform="translate(369.18424 156.979466)scale(0.17 -0.17)">
     <use xlink:href="#DejaVuSans-73"/>
     <use x="52.099609" xlink:href="#DejaVuSans-63"/>
     <use x="107.080078" xlink:href="#DejaVuSans-69"/>
     <use x="134.863281" xlink:href="#DejaVuSans-70"/>
     <use x="198.339844" xlink:href="#DejaVuSans-79"/>
     <use x="257.503906" xlink:href="#DejaVuSans-2d"/>
     <use x="293.603516" xlink:href="#DejaVuSans-6f"/>
     <use x="354.785156" xlink:href="#DejaVuSans-70"/>
     <use x="418.261719" xlink:href="#DejaVuSans-74"/>
    </g>
   </g>
   <g id="text_15">
    <!-- best 2009 -->
    <defs>
     <path d="M 48.6875 27.296875 
Q 48.6875 37.203125 44.609375 42.84375 
Q 40.53125 48.484375 33.40625 48.484375 
Q 26.265625 48.484375 22.1875 42.84375 
Q 18.109375 37.203125 18.109375 27.296875 
Q 18.109375 17.390625 22.1875 11.75 
Q 26.265625 6.109375 33.40625 6.109375 
Q 40.53125 6.109375 44.609375 11.75 
Q 48.6875 17.390625 48.6875 27.296875 
z
M 18.109375 46.390625 
Q 20.953125 51.265625 25.265625 53.625 
Q 29.59375 56 35.59375 56 
Q 45.5625 56 51.78125 48.09375 
Q 58.015625 40.1875 58.015625 27.296875 
Q 58.015625 14.40625 51.78125 6.484375 
Q 45.5625 -1.421875 35.59375 -1.421875 
Q 29.59375 -1.421875 25.265625 0.953125 
Q 20.953125 3.328125 18.109375 8.203125 
L 18.109375 0 
L 9.078125 0 
L 9.078125 75.984375 
L 18.109375 75.984375 
z
" id="DejaVuSans-62"/>
     <path d="M 10.984375 1.515625 
L 10.984375 10.5 
Q 14.703125 8.734375 18.5 7.8125 
Q 22.3125 6.890625 25.984375 6.890625 
Q 35.75 6.890625 40.890625 13.453125 
Q 46.046875 20.015625 46.78125 33.40625 
Q 43.953125 29.203125 39.59375 26.953125 
Q 35.25 24.703125 29.984375 24.703125 
Q 19.046875 24.703125 12.671875 31.3125 
Q 6.296875 37.9375 6.296875 49.421875 
Q 6.296875 60.640625 12.9375 67.421875 
Q 19.578125 74.21875 30.609375 74.21875 
Q 43.265625 74.21875 49.921875 64.515625 
Q 56.59375 54.828125 56.59375 36.375 
Q 56.59375 19.140625 48.40625 8.859375 
Q 40.234375 -1.421875 26.421875 -1.421875 
Q 22.703125 -1.421875 18.890625 -0.6875 
Q 15.09375 0.046875 10.984375 1.515625 
z
M 30.609375 32.421875 
Q 37.25 32.421875 41.125 36.953125 
Q 45.015625 41.5 45.015625 49.421875 
Q 45.015625 57.28125 41.125 61.84375 
Q 37.25 66.40625 30.609375 66.40625 
Q 23.96875 66.40625 20.09375 61.84375 
Q 16.21875 57.28125 16.21875 49.421875 
Q 16.21875 41.5 20.09375 36.953125 
Q 23.96875 32.421875 30.609375 32.421875 
z
" id="DejaVuSans-39"/>
    </defs>
    <g transform="translate(369.18424 20.091654)scale(0.17 -0.17)">
     <use xlink:href="#DejaVuSans-62"/>
     <use x="63.476562" xlink:href="#DejaVuSans-65"/>
     <use x="125" xlink:href="#DejaVuSans-73"/>
     <use x="177.099609" xlink:href="#DejaVuSans-74"/>
     <use x="216.308594" xlink:href="#DejaVuSans-20"/>
     <use x="248.095703" xlink:href="#DejaVuSans-32"/>
     <use x="311.71875" xlink:href="#DejaVuSans-30"/>
     <use x="375.341797" xlink:href="#DejaVuSans-30"/>
     <use x="438.964844" xlink:href="#DejaVuSans-39"/>
    </g>
   </g>
   <g id="text_16">
    <!-- bbob f1-f24, 2-D -->
    <defs>
     <path d="M 19.671875 64.796875 
L 19.671875 8.109375 
L 31.59375 8.109375 
Q 46.6875 8.109375 53.6875 14.9375 
Q 60.6875 21.78125 60.6875 36.53125 
Q 60.6875 51.171875 53.6875 57.984375 
Q 46.6875 64.796875 31.59375 64.796875 
z
M 9.8125 72.90625 
L 30.078125 72.90625 
Q 51.265625 72.90625 61.171875 64.09375 
Q 71.09375 55.28125 71.09375 36.53125 
Q 71.09375 17.671875 61.125 8.828125 
Q 51.171875 0 30.078125 0 
L 9.8125 0 
z
" id="DejaVuSans-44"/>
    </defs>
    <g transform="translate(58.89048 17.475982)scale(0.102 -0.102)">
     <use xlink:href="#DejaVuSans-62"/>
     <use x="63.476562" xlink:href="#DejaVuSans-62"/>
     <use x="126.953125" xlink:href="#DejaVuSans-6f"/>
     <use x="188.134766" xlink:href="#DejaVuSans-62"/>
     <use x="251.611328" xlink:href="#DejaVuSans-20"/>
     <use x="283.398438" xlink:href="#DejaVuSans-66"/>
     <use x="318.603516" xlink:href="#DejaVuSans-31"/>
     <use x="382.226562" xlink:href="#DejaVuSans-2d"/>
     <use x="418.310547" xlink:href="#DejaVuSans-66"/>
     <use x="453.515625" xlink:href="#DejaVuSans-32"/>
     <use x="517.138672" xlink:href="#DejaVuSans-34"/>
     <use x="580.761719" xlink:href="#DejaVuSans-2c"/>
     <use x="612.548828" xlink:href="#DejaVuSans-20"/>
     <use x="644.335938" xlink:href="#DejaVuSans-32"/>
     <use x="707.958984" xlink:href="#DejaVuSans-2d"/>
     <use x="744.042969" xlink:href="#DejaVuSans-44"/>
    </g>
    <!-- 51 targets: 100..1e-08 -->
    <defs>
     <path d="M 10.796875 72.90625 
L 49.515625 72.90625 
L 49.515625 64.59375 
L 19.828125 64.59375 
L 19.828125 46.734375 
Q 21.96875 47.46875 24.109375 47.828125 
Q 26.265625 48.1875 28.421875 48.1875 
Q 40.625 48.1875 47.75 41.5 
Q 54.890625 34.8125 54.890625 23.390625 
Q 54.890625 11.625 47.5625 5.09375 
Q 40.234375 -1.421875 26.90625 -1.421875 
Q 22.3125 -1.421875 17.546875 -0.640625 
Q 12.796875 0.140625 7.71875 1.703125 
L 7.71875 11.625 
Q 12.109375 9.234375 16.796875 8.0625 
Q 21.484375 6.890625 26.703125 6.890625 
Q 35.15625 6.890625 40.078125 11.328125 
Q 45.015625 15.765625 45.015625 23.390625 
Q 45.015625 31 40.078125 35.4375 
Q 35.15625 39.890625 26.703125 39.890625 
Q 22.75 39.890625 18.8125 39.015625 
Q 14.890625 38.140625 10.796875 36.28125 
z
" id="DejaVuSans-35"/>
     <path d="M 11.71875 12.40625 
L 22.015625 12.40625 
L 22.015625 0 
L 11.71875 0 
z
M 11.71875 51.703125 
L 22.015625 51.703125 
L 22.015625 39.3125 
L 11.71875 39.3125 
z
" id="DejaVuSans-3a"/>
    </defs>
    <g transform="translate(58.89048 28.89775)scale(0.102 -0.102)">
     <use xlink:href="#DejaVuSans-35"/>
     <use x="63.623047" xlink:href="#DejaVuSans-31"/>
     <use x="127.246094" xlink:href="#DejaVuSans-20"/>
     <use x="159.033203" xlink:href="#DejaVuSans-74"/>
     <use x="198.242188" xlink:href="#DejaVuSans-61"/>
     <use x="259.521484" xlink:href="#DejaVuSans-72"/>
     <use x="300.619141" xlink:href="#DejaVuSans-67"/>
     <use x="364.095703" xlink:href="#DejaVuSans-65"/>
     <use x="425.619141" xlink:href="#DejaVuSans-74"/>
     <use x="464.828125" xlink:href="#DejaVuSans-73"/>
     <use x="516.927734" xlink:href="#DejaVuSans-3a"/>
     <use x="550.619141" xlink:href="#DejaVuSans-20"/>
     <use x="582.40625" xlink:href="#DejaVuSans-31"/>
     <use x="646.029297" xlink:href="#DejaVuSans-30"/>
     <use x="709.652344" xlink:href="#DejaVuSans-30"/>
     <use x="773.275391" xlink:href="#DejaVuSans-2e"/>
     <use x="805.0625" xlink:href="#DejaVuSans-2e"/>
     <use x="836.849609" xlink:href="#DejaVuSans-31"/>
     <use x="900.472656" xlink:href="#DejaVuSans-65"/>
     <use x="961.996094" xlink:href="#DejaVuSans-2d"/>
     <use x="998.080078" xlink:href="#DejaVuSans-30"/>
     <use x="1061.703125" xlink:href="#DejaVuSans-38"/>
    </g>
    <!-- 15 instances -->
    <g transform="translate(58.89048 40.319519)scale(0.102 -0.102)">
     <use xlink:href="#DejaVuSans-31"/>
     <use x="63.623047" xlink:href="#DejaVuSans-35"/>
     <use x="127.246094" xlink:href="#DejaVuSans-20"/>
     <use x="159.033203" xlink:href="#DejaVuSans-69"/>
     <use x="186.816406" xlink:href="#DejaVuSans-6e"/>
     <use x="250.195312" xlink:href="#DejaVuSans-73"/>
     <use x="302.294922" xlink:href="#DejaVuSans-74"/>
     <use x="341.503906" xlink:href="#DejaVuSans-61"/>
     <use x="402.783203" xlink:href="#DejaVuSans-6e"/>
     <use x="466.162109" xlink:href="#DejaVuSans-63"/>
     <use x="521.142578" xlink:href="#DejaVuSans-65"/>
     <use x="582.666016" xlink:href="#DejaVuSans-73"/>
    </g>
   </g>
   <g id="text_17">
    <!-- v0.0.0 -->
    <g style="fill:#808080;" transform="translate(178.96275 289.919965)scale(0.1 -0.1)">
     <use xlink:href="#DejaVuSans-76"/>
     <use x="59.179688" xlink:href="#DejaVuSans-30"/>
     <use x="122.802734" xlink:href="#DejaVuSans-2e"/>
     <use x="154.589844" xlink:href="#DejaVuSans-30"/>
     <use x="218.212891" xlink:href="#DejaVuSans-2e"/>
     <use x="250" xlink:href="#DejaVuSans-30"/>
    </g>
   </g>
  </g>
 </g>
 <defs>
  <clipPath id="p8f16ccb16a">
   <rect height="288.034772" width="277.048" x="56.12" y="6.845228"/>
  </clipPath>
 </defs>
</svg>
