<?xml version="1.0" encoding="utf-8" standalone="no"?>
<!DOCTYPE svg PUBLIC "-//W3C//DTD SVG 1.1//EN"
  "http://www.w3.org/Graphics/SVG/1.1/DTD/svg11.dtd">
<!-- Created with matplotlib (http://matplotlib.org/) -->
<svg height="345pt" version="1.1" viewBox="0 0 460 345" width="460pt" xmlns="http://www.w3.org/2000/svg" xmlns:xlink="http://www.w3.org/1999/xlink">
 <defs>
  <style type="text/css">
*{stroke-linecap:butt;stroke-linejoin:round;}
  </style>
 </defs>
 <g id="figure_1">
  <g id="patch_1">
   <path d="M 0 345.6 
L 460.8 345.6 
L 460.8 0 
L 0 0 
z
" style="fill:#ffffff;"/>
  </g>
  <g id="axes_1">
   <g id="patch_2">
    <path d="M 56.12 294.88 
L 333.168 294.88 
L 333.168 6.845228 
L 56.12 6.845228 
z
" style="fill:#ffffff;"/>
   </g>
   <g id="line2d_1">
    <path d="M 37.236359 294.88 
L 37.236359 287.890222 
L 56.12 287.890222 
L 56.12 286.492266 
L 61.064861 286.492266 
L 61.064861 285.094311 
L 64.900393 285.094311 
L 64.900393 283.696355 
L 72.979112 283.696355 
L 72.979112 278.104533 
L 78.452896 278.104533 
L 78.452896 276.706577 
L 81.324327 276.706577 
L 81.324327 275.308622 
L 83.784035 275.308622 
L 83.784035 273.910666 
L 84.893363 273.910666 
L 84.893363 272.51271 
L 85.935418 272.51271 
L 85.935418 271.114755 
L 86.917893 271.114755 
L 86.917893 269.716799 
L 87.847234 269.716799 
L 87.847234 268.318844 
L 88.728896 268.318844 
L 88.728896 266.920888 
L 89.567532 266.920888 
L 89.567532 265.522932 
L 91.862754 265.522932 
L 91.862754 264.124977 
L 92.564428 264.124977 
L 92.564428 259.93111 
L 93.887283 259.93111 
L 93.887283 258.533154 
L 96.261898 258.533154 
L 96.261898 254.339288 
L 96.807615 254.339288 
L 96.807615 252.941332 
L 97.849669 252.941332 
L 97.849669 251.543376 
L 99.761485 251.543376 
L 99.761485 250.145421 
L 100.207968 250.145421 
L 100.207968 248.747465 
L 100.643147 248.747465 
L 100.643147 245.951554 
L 102.667676 245.951554 
L 102.667676 244.553598 
L 103.045463 244.553598 
L 103.045463 243.155643 
L 103.777005 243.155643 
L 103.777005 241.757687 
L 104.131422 241.757687 
L 104.131422 240.359732 
L 105.152829 240.359732 
L 105.152829 238.961776 
L 106.426644 238.961776 
L 106.426644 237.56382 
L 107.029816 237.56382 
L 107.029816 236.165865 
L 107.896653 236.165865 
L 107.896653 234.767909 
L 108.988361 234.767909 
L 108.988361 231.971998 
L 109.250788 231.971998 
L 109.250788 230.574042 
L 110.505991 230.574042 
L 110.505991 229.176087 
L 111.217346 229.176087 
L 111.217346 227.778131 
L 112.122219 227.778131 
L 112.122219 226.380175 
L 112.341186 226.380175 
L 112.341186 224.98222 
L 114.389873 224.98222 
L 114.389873 223.584264 
L 114.581927 223.584264 
L 114.581927 222.186309 
L 116.220179 222.186309 
L 116.220179 220.788353 
L 116.901005 220.788353 
L 116.901005 219.390397 
L 117.06708 219.390397 
L 117.06708 217.992442 
L 117.55589 217.992442 
L 117.55589 216.594486 
L 118.340895 216.594486 
L 118.340895 215.196531 
L 118.645127 215.196531 
L 118.645127 213.798575 
L 118.944067 213.798575 
L 118.944067 212.400619 
L 119.09161 212.400619 
L 119.09161 211.002664 
L 120.228462 211.002664 
L 120.228462 209.604708 
L 120.501303 209.604708 
L 120.501303 208.206753 
L 120.636117 208.206753 
L 120.636117 206.808797 
L 120.902613 206.808797 
L 120.902613 205.410841 
L 121.16504 205.410841 
L 121.16504 204.012886 
L 121.678171 204.012886 
L 121.678171 202.61493 
L 121.929105 202.61493 
L 121.929105 201.216975 
L 122.053211 201.216975 
L 122.053211 199.819019 
L 122.540864 199.819019 
L 122.540864 197.023108 
L 122.779599 197.023108 
L 122.779599 195.625152 
L 122.897734 195.625152 
L 122.897734 194.227197 
L 123.247346 194.227197 
L 123.247346 191.431285 
L 123.589988 191.431285 
L 123.589988 188.635374 
L 123.814679 188.635374 
L 123.814679 187.237419 
L 123.925932 187.237419 
L 123.925932 185.839463 
L 124.255437 185.839463 
L 124.363883 180.247641 
L 124.471649 180.247641 
L 124.471649 178.849685 
L 124.685175 178.849685 
L 124.685175 176.053774 
L 124.896081 176.053774 
L 125.000572 170.461951 
L 125.104431 170.461951 
L 125.207666 166.268085 
L 125.310285 166.268085 
L 125.412295 163.472173 
L 125.513703 163.472173 
L 125.614517 160.676262 
L 125.714742 160.676262 
L 125.714742 157.880351 
L 125.913457 157.880351 
L 126.011959 149.492617 
L 126.109901 149.492617 
L 126.207287 143.900795 
L 126.304124 143.900795 
L 126.40042 138.308973 
L 126.496178 138.308973 
L 126.591406 134.115106 
L 126.68611 134.115106 
L 126.780294 131.319195 
L 126.873966 131.319195 
L 126.873966 129.921239 
L 127.05979 129.921239 
L 127.05979 127.125328 
L 127.243628 127.125328 
L 127.334814 124.329417 
L 127.42552 124.329417 
L 127.515749 121.533505 
L 127.605507 121.533505 
L 127.605507 120.13555 
L 127.783629 120.13555 
L 127.872003 115.941683 
L 127.959924 115.941683 
L 128.047399 110.349861 
L 128.13443 110.349861 
L 128.13443 107.553949 
L 128.39291 107.553949 
L 128.478214 101.962127 
L 128.563096 101.962127 
L 128.647561 99.166216 
L 128.731613 99.166216 
L 128.815257 96.370304 
L 128.981332 96.370304 
L 129.063771 87.982571 
L 129.145817 87.982571 
L 129.145817 85.18666 
L 129.550274 85.18666 
L 129.630036 82.390748 
L 130.023386 82.390748 
L 130.023386 80.992793 
L 130.407935 80.992793 
L 130.407935 79.594837 
L 130.784069 79.594837 
L 130.784069 78.196882 
L 131.152148 78.196882 
L 131.152148 76.798926 
L 131.441039 76.798926 
L 131.441039 75.40097 
L 131.654565 75.40097 
L 131.654565 74.003015 
L 131.935202 74.003015 
L 131.935202 72.605059 
L 132.073821 72.605059 
L 132.073821 71.207104 
L 132.347749 71.207104 
L 132.347749 69.809148 
L 132.816864 69.809148 
L 132.816864 68.411192 
L 133.144276 68.411192 
L 133.144276 67.013237 
L 133.529112 67.013237 
L 133.529112 65.615281 
L 133.905521 65.615281 
L 133.905521 64.217326 
L 134.334493 64.217326 
L 134.334493 62.81937 
L 134.753019 62.81937 
L 134.753019 61.421414 
L 134.929315 61.421414 
L 134.929315 60.023459 
L 137.528768 60.023459 
L 137.528768 58.625503 
L 138.266591 58.625503 
L 138.266591 57.227548 
L 138.647518 57.227548 
L 138.647518 55.829592 
L 139.066206 55.829592 
L 139.066206 54.431636 
L 139.519758 54.431636 
L 139.519758 53.033681 
L 142.772569 53.033681 
L 142.772569 51.635725 
L 142.993411 51.635725 
L 142.993411 50.23777 
L 143.35529 50.23777 
L 143.426761 22.278658 
L 143.779723 22.278658 
L 143.779723 20.880702 
L 144.397345 20.880702 
L 144.397345 19.482746 
L 144.731115 19.482746 
L 144.731115 18.084791 
L 145.219924 18.084791 
L 145.219924 16.686835 
L 145.85077 16.686835 
L 145.85077 15.28888 
L 146.248744 15.28888 
L 146.248744 13.890924 
L 146.814308 13.890924 
L 146.814308 12.492968 
L 147.248023 12.492968 
L 147.248023 11.095013 
L 147.587283 11.095013 
L 147.587283 9.697057 
L 333.168 9.697057 
L 333.168 9.697057 
" style="fill:none;stroke:#f5deb3;stroke-linecap:square;stroke-width:4;"/>
   </g>
   <g id="line2d_2">
    <defs>
     <path d="M -0 7.778175 
L 7.778175 0 
L 0 -7.778175 
L -7.778175 -0 
z
" id="mfdcb828a27" style="stroke:#f5deb3;stroke-linejoin:miter;stroke-width:1.5;"/>
    </defs>
    <g>
     <use style="fill:#f5deb3;stroke:#f5deb3;stroke-linejoin:miter;stroke-width:1.5;" x="111.217346" xlink:href="#mfdcb828a27" y="229.176087"/>
     <use style="fill:#f5deb3;stroke:#f5deb3;stroke-linejoin:miter;stroke-width:1.5;" x="128.047399" xlink:href="#mfdcb828a27" y="113.145772"/>
     <use style="fill:#f5deb3;stroke:#f5deb3;stroke-linejoin:miter;stroke-width:1.5;" x="147.587283" xlink:href="#mfdcb828a27" y="11.095013"/>
     <use style="fill:#f5deb3;stroke:#f5deb3;stroke-linejoin:miter;stroke-width:1.5;" x="147.587283" xlink:href="#mfdcb828a27" y="9.697057"/>
     <use style="fill:#f5deb3;stroke:#f5deb3;stroke-linejoin:miter;stroke-width:1.5;" x="147.587283" xlink:href="#mfdcb828a27" y="9.697057"/>
     <use style="fill:#f5deb3;stroke:#f5deb3;stroke-linejoin:miter;stroke-width:1.5;" x="333.168" xlink:href="#mfdcb828a27" y="9.697057"/>
    </g>
   </g>
   <g id="line2d_3">
    <path style="fill:none;stroke:#f5deb3;stroke-linecap:square;stroke-width:4;"/>
    <g/>
   </g>
   <g id="line2d_4">
    <path d="M 333.168 9.697057 
L 363.64328 15.400716 
" style="fill:none;stroke:#f5deb3;stroke-linecap:square;stroke-width:4;"/>
    <g>
     <use style="fill:#f5deb3;stroke:#f5deb3;stroke-linejoin:miter;stroke-width:1.5;" x="333.168" xlink:href="#mfdcb828a27" y="9.697057"/>
     <use style="fill:#f5deb3;stroke:#f5deb3;stroke-linejoin:miter;stroke-width:1.5;" x="363.64328" xlink:href="#mfdcb828a27" y="15.400716"/>
    </g>
   </g>
   <g id="matplotlib.axis_1">
    <g id="xtick_1">
     <g id="line2d_5">
      <path clip-path="url(#p2dab38dfc7)" d="M 56.12 294.88 
L 56.12 6.845228 
" style="fill:none;stroke:#b0b0b0;stroke-linecap:square;stroke-width:0.8;"/>
     </g>
     <g id="line2d_6">
      <defs>
       <path d="M 0 0 
L 0 3.5 
" id="mbe1ee64cf6" style="stroke:#000000;stroke-width:0.8;"/>
      </defs>
      <g>
       <use style="stroke:#000000;stroke-width:0.8;" x="56.12" xlink:href="#mbe1ee64cf6" y="294.88"/>
      </g>
     </g>
     <g id="text_1">
      <!-- 0 -->
      <defs>
       <path d="M 31.78125 66.40625 
Q 24.171875 66.40625 20.328125 58.90625 
Q 16.5 51.421875 16.5 36.375 
Q 16.5 21.390625 20.328125 13.890625 
Q 24.171875 6.390625 31.78125 6.390625 
Q 39.453125 6.390625 43.28125 13.890625 
Q 47.125 21.390625 47.125 36.375 
Q 47.125 51.421875 43.28125 58.90625 
Q 39.453125 66.40625 31.78125 66.40625 
z
M 31.78125 74.21875 
Q 44.046875 74.21875 50.515625 64.515625 
Q 56.984375 54.828125 56.984375 36.375 
Q 56.984375 17.96875 50.515625 8.265625 
Q 44.046875 -1.421875 31.78125 -1.421875 
Q 19.53125 -1.421875 13.0625 8.265625 
Q 6.59375 17.96875 6.59375 36.375 
Q 6.59375 54.828125 13.0625 64.515625 
Q 19.53125 74.21875 31.78125 74.21875 
z
" id="DejaVuSans-30"/>
      </defs>
      <g transform="translate(49.7575 317.076875)scale(0.2 -0.2)">
       <use xlink:href="#DejaVuSans-30"/>
      </g>
     </g>
    </g>
    <g id="xtick_2">
     <g id="line2d_7">
      <path clip-path="url(#p2dab38dfc7)" d="M 135.276571 294.88 
L 135.276571 6.845228 
" style="fill:none;stroke:#b0b0b0;stroke-linecap:square;stroke-width:0.8;"/>
     </g>
     <g id="line2d_8">
      <g>
       <use style="stroke:#000000;stroke-width:0.8;" x="135.276571" xlink:href="#mbe1ee64cf6" y="294.88"/>
      </g>
     </g>
     <g id="text_2">
      <!-- 2 -->
      <defs>
       <path d="M 19.1875 8.296875 
L 53.609375 8.296875 
L 53.609375 0 
L 7.328125 0 
L 7.328125 8.296875 
Q 12.9375 14.109375 22.625 23.890625 
Q 32.328125 33.6875 34.8125 36.53125 
Q 39.546875 41.84375 41.421875 45.53125 
Q 43.3125 49.21875 43.3125 52.78125 
Q 43.3125 58.59375 39.234375 62.25 
Q 35.15625 65.921875 28.609375 65.921875 
Q 23.96875 65.921875 18.8125 64.3125 
Q 13.671875 62.703125 7.8125 59.421875 
L 7.8125 69.390625 
Q 13.765625 71.78125 18.9375 73 
Q 24.125 74.21875 28.421875 74.21875 
Q 39.75 74.21875 46.484375 68.546875 
Q 53.21875 62.890625 53.21875 53.421875 
Q 53.21875 48.921875 51.53125 44.890625 
Q 49.859375 40.875 45.40625 35.40625 
Q 44.1875 33.984375 37.640625 27.21875 
Q 31.109375 20.453125 19.1875 8.296875 
z
" id="DejaVuSans-32"/>
      </defs>
      <g transform="translate(128.914071 317.076875)scale(0.2 -0.2)">
       <use xlink:href="#DejaVuSans-32"/>
      </g>
     </g>
    </g>
    <g id="xtick_3">
     <g id="line2d_9">
      <path clip-path="url(#p2dab38dfc7)" d="M 214.433143 294.88 
L 214.433143 6.845228 
" style="fill:none;stroke:#b0b0b0;stroke-linecap:square;stroke-width:0.8;"/>
     </g>
     <g id="line2d_10">
      <g>
       <use style="stroke:#000000;stroke-width:0.8;" x="214.433143" xlink:href="#mbe1ee64cf6" y="294.88"/>
      </g>
     </g>
     <g id="text_3">
      <!-- 4 -->
      <defs>
       <path d="M 37.796875 64.3125 
L 12.890625 25.390625 
L 37.796875 25.390625 
z
M 35.203125 72.90625 
L 47.609375 72.90625 
L 47.609375 25.390625 
L 58.015625 25.390625 
L 58.015625 17.1875 
L 47.609375 17.1875 
L 47.609375 0 
L 37.796875 0 
L 37.796875 17.1875 
L 4.890625 17.1875 
L 4.890625 26.703125 
z
" id="DejaVuSans-34"/>
      </defs>
      <g transform="translate(208.070643 317.076875)scale(0.2 -0.2)">
       <use xlink:href="#DejaVuSans-34"/>
      </g>
     </g>
    </g>
    <g id="xtick_4">
     <g id="line2d_11">
      <path clip-path="url(#p2dab38dfc7)" d="M 293.589714 294.88 
L 293.589714 6.845228 
" style="fill:none;stroke:#b0b0b0;stroke-linecap:square;stroke-width:0.8;"/>
     </g>
     <g id="line2d_12">
      <g>
       <use style="stroke:#000000;stroke-width:0.8;" x="293.589714" xlink:href="#mbe1ee64cf6" y="294.88"/>
      </g>
     </g>
     <g id="text_4">
      <!-- 6 -->
      <defs>
       <path d="M 33.015625 40.375 
Q 26.375 40.375 22.484375 35.828125 
Q 18.609375 31.296875 18.609375 23.390625 
Q 18.609375 15.53125 22.484375 10.953125 
Q 26.375 6.390625 33.015625 6.390625 
Q 39.65625 6.390625 43.53125 10.953125 
Q 47.40625 15.53125 47.40625 23.390625 
Q 47.40625 31.296875 43.53125 35.828125 
Q 39.65625 40.375 33.015625 40.375 
z
M 52.59375 71.296875 
L 52.59375 62.3125 
Q 48.875 64.0625 45.09375 64.984375 
Q 41.3125 65.921875 37.59375 65.921875 
Q 27.828125 65.921875 22.671875 59.328125 
Q 17.53125 52.734375 16.796875 39.40625 
Q 19.671875 43.65625 24.015625 45.921875 
Q 28.375 48.1875 33.59375 48.1875 
Q 44.578125 48.1875 50.953125 41.515625 
Q 57.328125 34.859375 57.328125 23.390625 
Q 57.328125 12.15625 50.6875 5.359375 
Q 44.046875 -1.421875 33.015625 -1.421875 
Q 20.359375 -1.421875 13.671875 8.265625 
Q 6.984375 17.96875 6.984375 36.375 
Q 6.984375 53.65625 15.1875 63.9375 
Q 23.390625 74.21875 37.203125 74.21875 
Q 40.921875 74.21875 44.703125 73.484375 
Q 48.484375 72.75 52.59375 71.296875 
z
" id="DejaVuSans-36"/>
      </defs>
      <g transform="translate(287.227214 317.076875)scale(0.2 -0.2)">
       <use xlink:href="#DejaVuSans-36"/>
      </g>
     </g>
    </g>
    <g id="xtick_5">
     <g id="line2d_13">
      <path clip-path="url(#p2dab38dfc7)" d="M 56.12 294.88 
L 56.12 6.845228 
" style="fill:none;stroke:#b0b0b0;stroke-linecap:square;stroke-width:0.8;"/>
     </g>
     <g id="line2d_14">
      <defs>
       <path d="M 0 0 
L 0 2 
" id="m2bfd500e19" style="stroke:#000000;stroke-width:0.6;"/>
      </defs>
      <g>
       <use style="stroke:#000000;stroke-width:0.6;" x="56.12" xlink:href="#m2bfd500e19" y="294.88"/>
      </g>
     </g>
    </g>
    <g id="xtick_6">
     <g id="line2d_15">
      <path clip-path="url(#p2dab38dfc7)" d="M 95.698286 294.88 
L 95.698286 6.845228 
" style="fill:none;stroke:#b0b0b0;stroke-linecap:square;stroke-width:0.8;"/>
     </g>
     <g id="line2d_16">
      <g>
       <use style="stroke:#000000;stroke-width:0.6;" x="95.698286" xlink:href="#m2bfd500e19" y="294.88"/>
      </g>
     </g>
    </g>
    <g id="xtick_7">
     <g id="line2d_17">
      <path clip-path="url(#p2dab38dfc7)" d="M 135.276571 294.88 
L 135.276571 6.845228 
" style="fill:none;stroke:#b0b0b0;stroke-linecap:square;stroke-width:0.8;"/>
     </g>
     <g id="line2d_18">
      <g>
       <use style="stroke:#000000;stroke-width:0.6;" x="135.276571" xlink:href="#m2bfd500e19" y="294.88"/>
      </g>
     </g>
    </g>
    <g id="xtick_8">
     <g id="line2d_19">
      <path clip-path="url(#p2dab38dfc7)" d="M 174.854857 294.88 
L 174.854857 6.845228 
" style="fill:none;stroke:#b0b0b0;stroke-linecap:square;stroke-width:0.8;"/>
     </g>
     <g id="line2d_20">
      <g>
       <use style="stroke:#000000;stroke-width:0.6;" x="174.854857" xlink:href="#m2bfd500e19" y="294.88"/>
      </g>
     </g>
    </g>
    <g id="xtick_9">
     <g id="line2d_21">
      <path clip-path="url(#p2dab38dfc7)" d="M 214.433143 294.88 
L 214.433143 6.845228 
" style="fill:none;stroke:#b0b0b0;stroke-linecap:square;stroke-width:0.8;"/>
     </g>
     <g id="line2d_22">
      <g>
       <use style="stroke:#000000;stroke-width:0.6;" x="214.433143" xlink:href="#m2bfd500e19" y="294.88"/>
      </g>
     </g>
    </g>
    <g id="xtick_10">
     <g id="line2d_23">
      <path clip-path="url(#p2dab38dfc7)" d="M 254.011429 294.88 
L 254.011429 6.845228 
" style="fill:none;stroke:#b0b0b0;stroke-linecap:square;stroke-width:0.8;"/>
     </g>
     <g id="line2d_24">
      <g>
       <use style="stroke:#000000;stroke-width:0.6;" x="254.011429" xlink:href="#m2bfd500e19" y="294.88"/>
      </g>
     </g>
    </g>
    <g id="xtick_11">
     <g id="line2d_25">
      <path clip-path="url(#p2dab38dfc7)" d="M 293.589714 294.88 
L 293.589714 6.845228 
" style="fill:none;stroke:#b0b0b0;stroke-linecap:square;stroke-width:0.8;"/>
     </g>
     <g id="line2d_26">
      <g>
       <use style="stroke:#000000;stroke-width:0.6;" x="293.589714" xlink:href="#m2bfd500e19" y="294.88"/>
      </g>
     </g>
    </g>
    <g id="xtick_12">
     <g id="line2d_27">
      <path clip-path="url(#p2dab38dfc7)" d="M 333.168 294.88 
L 333.168 6.845228 
" style="fill:none;stroke:#b0b0b0;stroke-linecap:square;stroke-width:0.8;"/>
     </g>
     <g id="line2d_28">
      <g>
       <use style="stroke:#000000;stroke-width:0.6;" x="333.168" xlink:href="#m2bfd500e19" y="294.88"/>
      </g>
     </g>
    </g>
    <g id="text_5">
     <!-- log10(# f-evals / dimension) -->
     <defs>
      <path d="M 9.421875 75.984375 
L 18.40625 75.984375 
L 18.40625 0 
L 9.421875 0 
z
" id="DejaVuSans-6c"/>
      <path d="M 30.609375 48.390625 
Q 23.390625 48.390625 19.1875 42.75 
Q 14.984375 37.109375 14.984375 27.296875 
Q 14.984375 17.484375 19.15625 11.84375 
Q 23.34375 6.203125 30.609375 6.203125 
Q 37.796875 6.203125 41.984375 11.859375 
Q 46.1875 17.53125 46.1875 27.296875 
Q 46.1875 37.015625 41.984375 42.703125 
Q 37.796875 48.390625 30.609375 48.390625 
z
M 30.609375 56 
Q 42.328125 56 49.015625 48.375 
Q 55.71875 40.765625 55.71875 27.296875 
Q 55.71875 13.875 49.015625 6.21875 
Q 42.328125 -1.421875 30.609375 -1.421875 
Q 18.84375 -1.421875 12.171875 6.21875 
Q 5.515625 13.875 5.515625 27.296875 
Q 5.515625 40.765625 12.171875 48.375 
Q 18.84375 56 30.609375 56 
z
" id="DejaVuSans-6f"/>
      <path d="M 45.40625 27.984375 
Q 45.40625 37.75 41.375 43.109375 
Q 37.359375 48.484375 30.078125 48.484375 
Q 22.859375 48.484375 18.828125 43.109375 
Q 14.796875 37.75 14.796875 27.984375 
Q 14.796875 18.265625 18.828125 12.890625 
Q 22.859375 7.515625 30.078125 7.515625 
Q 37.359375 7.515625 41.375 12.890625 
Q 45.40625 18.265625 45.40625 27.984375 
z
M 54.390625 6.78125 
Q 54.390625 -7.171875 48.1875 -13.984375 
Q 42 -20.796875 29.203125 -20.796875 
Q 24.46875 -20.796875 20.265625 -20.09375 
Q 16.0625 -19.390625 12.109375 -17.921875 
L 12.109375 -9.1875 
Q 16.0625 -11.328125 19.921875 -12.34375 
Q 23.78125 -13.375 27.78125 -13.375 
Q 36.625 -13.375 41.015625 -8.765625 
Q 45.40625 -4.15625 45.40625 5.171875 
L 45.40625 9.625 
Q 42.625 4.78125 38.28125 2.390625 
Q 33.9375 0 27.875 0 
Q 17.828125 0 11.671875 7.65625 
Q 5.515625 15.328125 5.515625 27.984375 
Q 5.515625 40.671875 11.671875 48.328125 
Q 17.828125 56 27.875 56 
Q 33.9375 56 38.28125 53.609375 
Q 42.625 51.21875 45.40625 46.390625 
L 45.40625 54.6875 
L 54.390625 54.6875 
z
" id="DejaVuSans-67"/>
      <path d="M 12.40625 8.296875 
L 28.515625 8.296875 
L 28.515625 63.921875 
L 10.984375 60.40625 
L 10.984375 69.390625 
L 28.421875 72.90625 
L 38.28125 72.90625 
L 38.28125 8.296875 
L 54.390625 8.296875 
L 54.390625 0 
L 12.40625 0 
z
" id="DejaVuSans-31"/>
      <path d="M 31 75.875 
Q 24.46875 64.65625 21.28125 53.65625 
Q 18.109375 42.671875 18.109375 31.390625 
Q 18.109375 20.125 21.3125 9.0625 
Q 24.515625 -2 31 -13.1875 
L 23.1875 -13.1875 
Q 15.875 -1.703125 12.234375 9.375 
Q 8.59375 20.453125 8.59375 31.390625 
Q 8.59375 42.28125 12.203125 53.3125 
Q 15.828125 64.359375 23.1875 75.875 
z
" id="DejaVuSans-28"/>
      <path d="M 51.125 44 
L 36.921875 44 
L 32.8125 27.6875 
L 47.125 27.6875 
z
M 43.796875 71.78125 
L 38.71875 51.515625 
L 52.984375 51.515625 
L 58.109375 71.78125 
L 65.921875 71.78125 
L 60.890625 51.515625 
L 76.125 51.515625 
L 76.125 44 
L 58.984375 44 
L 54.984375 27.6875 
L 70.515625 27.6875 
L 70.515625 20.21875 
L 53.078125 20.21875 
L 48 0 
L 40.1875 0 
L 45.21875 20.21875 
L 30.90625 20.21875 
L 25.875 0 
L 18.015625 0 
L 23.09375 20.21875 
L 7.71875 20.21875 
L 7.71875 27.6875 
L 24.90625 27.6875 
L 29 44 
L 13.28125 44 
L 13.28125 51.515625 
L 30.90625 51.515625 
L 35.890625 71.78125 
z
" id="DejaVuSans-23"/>
      <path id="DejaVuSans-20"/>
      <path d="M 37.109375 75.984375 
L 37.109375 68.5 
L 28.515625 68.5 
Q 23.6875 68.5 21.796875 66.546875 
Q 19.921875 64.59375 19.921875 59.515625 
L 19.921875 54.6875 
L 34.71875 54.6875 
L 34.71875 47.703125 
L 19.921875 47.703125 
L 19.921875 0 
L 10.890625 0 
L 10.890625 47.703125 
L 2.296875 47.703125 
L 2.296875 54.6875 
L 10.890625 54.6875 
L 10.890625 58.5 
Q 10.890625 67.625 15.140625 71.796875 
Q 19.390625 75.984375 28.609375 75.984375 
z
" id="DejaVuSans-66"/>
      <path d="M 4.890625 31.390625 
L 31.203125 31.390625 
L 31.203125 23.390625 
L 4.890625 23.390625 
z
" id="DejaVuSans-2d"/>
      <path d="M 56.203125 29.59375 
L 56.203125 25.203125 
L 14.890625 25.203125 
Q 15.484375 15.921875 20.484375 11.0625 
Q 25.484375 6.203125 34.421875 6.203125 
Q 39.59375 6.203125 44.453125 7.46875 
Q 49.3125 8.734375 54.109375 11.28125 
L 54.109375 2.78125 
Q 49.265625 0.734375 44.1875 -0.34375 
Q 39.109375 -1.421875 33.890625 -1.421875 
Q 20.796875 -1.421875 13.15625 6.1875 
Q 5.515625 13.8125 5.515625 26.8125 
Q 5.515625 40.234375 12.765625 48.109375 
Q 20.015625 56 32.328125 56 
Q 43.359375 56 49.78125 48.890625 
Q 56.203125 41.796875 56.203125 29.59375 
z
M 47.21875 32.234375 
Q 47.125 39.59375 43.09375 43.984375 
Q 39.0625 48.390625 32.421875 48.390625 
Q 24.90625 48.390625 20.390625 44.140625 
Q 15.875 39.890625 15.1875 32.171875 
z
" id="DejaVuSans-65"/>
      <path d="M 2.984375 54.6875 
L 12.5 54.6875 
L 29.59375 8.796875 
L 46.6875 54.6875 
L 56.203125 54.6875 
L 35.6875 0 
L 23.484375 0 
z
" id="DejaVuSans-76"/>
      <path d="M 34.28125 27.484375 
Q 23.390625 27.484375 19.1875 25 
Q 14.984375 22.515625 14.984375 16.5 
Q 14.984375 11.71875 18.140625 8.90625 
Q 21.296875 6.109375 26.703125 6.109375 
Q 34.1875 6.109375 38.703125 11.40625 
Q 43.21875 16.703125 43.21875 25.484375 
L 43.21875 27.484375 
z
M 52.203125 31.203125 
L 52.203125 0 
L 43.21875 0 
L 43.21875 8.296875 
Q 40.140625 3.328125 35.546875 0.953125 
Q 30.953125 -1.421875 24.3125 -1.421875 
Q 15.921875 -1.421875 10.953125 3.296875 
Q 6 8.015625 6 15.921875 
Q 6 25.140625 12.171875 29.828125 
Q 18.359375 34.515625 30.609375 34.515625 
L 43.21875 34.515625 
L 43.21875 35.40625 
Q 43.21875 41.609375 39.140625 45 
Q 35.0625 48.390625 27.6875 48.390625 
Q 23 48.390625 18.546875 47.265625 
Q 14.109375 46.140625 10.015625 43.890625 
L 10.015625 52.203125 
Q 14.9375 54.109375 19.578125 55.046875 
Q 24.21875 56 28.609375 56 
Q 40.484375 56 46.34375 49.84375 
Q 52.203125 43.703125 52.203125 31.203125 
z
" id="DejaVuSans-61"/>
      <path d="M 44.28125 53.078125 
L 44.28125 44.578125 
Q 40.484375 46.53125 36.375 47.5 
Q 32.28125 48.484375 27.875 48.484375 
Q 21.1875 48.484375 17.84375 46.4375 
Q 14.5 44.390625 14.5 40.28125 
Q 14.5 37.15625 16.890625 35.375 
Q 19.28125 33.59375 26.515625 31.984375 
L 29.59375 31.296875 
Q 39.15625 29.25 43.1875 25.515625 
Q 47.21875 21.78125 47.21875 15.09375 
Q 47.21875 7.46875 41.1875 3.015625 
Q 35.15625 -1.421875 24.609375 -1.421875 
Q 20.21875 -1.421875 15.453125 -0.5625 
Q 10.6875 0.296875 5.421875 2 
L 5.421875 11.28125 
Q 10.40625 8.6875 15.234375 7.390625 
Q 20.0625 6.109375 24.8125 6.109375 
Q 31.15625 6.109375 34.5625 8.28125 
Q 37.984375 10.453125 37.984375 14.40625 
Q 37.984375 18.0625 35.515625 20.015625 
Q 33.0625 21.96875 24.703125 23.78125 
L 21.578125 24.515625 
Q 13.234375 26.265625 9.515625 29.90625 
Q 5.8125 33.546875 5.8125 39.890625 
Q 5.8125 47.609375 11.28125 51.796875 
Q 16.75 56 26.8125 56 
Q 31.78125 56 36.171875 55.265625 
Q 40.578125 54.546875 44.28125 53.078125 
z
" id="DejaVuSans-73"/>
      <path d="M 25.390625 72.90625 
L 33.6875 72.90625 
L 8.296875 -9.28125 
L 0 -9.28125 
z
" id="DejaVuSans-2f"/>
      <path d="M 45.40625 46.390625 
L 45.40625 75.984375 
L 54.390625 75.984375 
L 54.390625 0 
L 45.40625 0 
L 45.40625 8.203125 
Q 42.578125 3.328125 38.25 0.953125 
Q 33.9375 -1.421875 27.875 -1.421875 
Q 17.96875 -1.421875 11.734375 6.484375 
Q 5.515625 14.40625 5.515625 27.296875 
Q 5.515625 40.1875 11.734375 48.09375 
Q 17.96875 56 27.875 56 
Q 33.9375 56 38.25 53.625 
Q 42.578125 51.265625 45.40625 46.390625 
z
M 14.796875 27.296875 
Q 14.796875 17.390625 18.875 11.75 
Q 22.953125 6.109375 30.078125 6.109375 
Q 37.203125 6.109375 41.296875 11.75 
Q 45.40625 17.390625 45.40625 27.296875 
Q 45.40625 37.203125 41.296875 42.84375 
Q 37.203125 48.484375 30.078125 48.484375 
Q 22.953125 48.484375 18.875 42.84375 
Q 14.796875 37.203125 14.796875 27.296875 
z
" id="DejaVuSans-64"/>
      <path d="M 9.421875 54.6875 
L 18.40625 54.6875 
L 18.40625 0 
L 9.421875 0 
z
M 9.421875 75.984375 
L 18.40625 75.984375 
L 18.40625 64.59375 
L 9.421875 64.59375 
z
" id="DejaVuSans-69"/>
      <path d="M 52 44.1875 
Q 55.375 50.25 60.0625 53.125 
Q 64.75 56 71.09375 56 
Q 79.640625 56 84.28125 50.015625 
Q 88.921875 44.046875 88.921875 33.015625 
L 88.921875 0 
L 79.890625 0 
L 79.890625 32.71875 
Q 79.890625 40.578125 77.09375 44.375 
Q 74.3125 48.1875 68.609375 48.1875 
Q 61.625 48.1875 57.5625 43.546875 
Q 53.515625 38.921875 53.515625 30.90625 
L 53.515625 0 
L 44.484375 0 
L 44.484375 32.71875 
Q 44.484375 40.625 41.703125 44.40625 
Q 38.921875 48.1875 33.109375 48.1875 
Q 26.21875 48.1875 22.15625 43.53125 
Q 18.109375 38.875 18.109375 30.90625 
L 18.109375 0 
L 9.078125 0 
L 9.078125 54.6875 
L 18.109375 54.6875 
L 18.109375 46.1875 
Q 21.1875 51.21875 25.484375 53.609375 
Q 29.78125 56 35.6875 56 
Q 41.65625 56 45.828125 52.96875 
Q 50 49.953125 52 44.1875 
z
" id="DejaVuSans-6d"/>
      <path d="M 54.890625 33.015625 
L 54.890625 0 
L 45.90625 0 
L 45.90625 32.71875 
Q 45.90625 40.484375 42.875 44.328125 
Q 39.84375 48.1875 33.796875 48.1875 
Q 26.515625 48.1875 22.3125 43.546875 
Q 18.109375 38.921875 18.109375 30.90625 
L 18.109375 0 
L 9.078125 0 
L 9.078125 54.6875 
L 18.109375 54.6875 
L 18.109375 46.1875 
Q 21.34375 51.125 25.703125 53.5625 
Q 30.078125 56 35.796875 56 
Q 45.21875 56 50.046875 50.171875 
Q 54.890625 44.34375 54.890625 33.015625 
z
" id="DejaVuSans-6e"/>
      <path d="M 8.015625 75.875 
L 15.828125 75.875 
Q 23.140625 64.359375 26.78125 53.3125 
Q 30.421875 42.28125 30.421875 31.390625 
Q 30.421875 20.453125 26.78125 9.375 
Q 23.140625 -1.703125 15.828125 -13.1875 
L 8.015625 -13.1875 
Q 14.5 -2 17.703125 9.0625 
Q 20.90625 20.125 20.90625 31.390625 
Q 20.90625 42.671875 17.703125 53.65625 
Q 14.5 64.65625 8.015625 75.875 
z
" id="DejaVuSans-29"/>
     </defs>
     <g transform="translate(73.803219 338.153594)scale(0.17 -0.17)">
      <use xlink:href="#DejaVuSans-6c"/>
      <use x="27.783203" xlink:href="#DejaVuSans-6f"/>
      <use x="88.964844" xlink:href="#DejaVuSans-67"/>
      <use x="152.441406" xlink:href="#DejaVuSans-31"/>
      <use x="216.064453" xlink:href="#DejaVuSans-30"/>
      <use x="279.6875" xlink:href="#DejaVuSans-28"/>
      <use x="318.701172" xlink:href="#DejaVuSans-23"/>
      <use x="402.490234" xlink:href="#DejaVuSans-20"/>
      <use x="434.277344" xlink:href="#DejaVuSans-66"/>
      <use x="469.404297" xlink:href="#DejaVuSans-2d"/>
      <use x="505.488281" xlink:href="#DejaVuSans-65"/>
      <use x="567.011719" xlink:href="#DejaVuSans-76"/>
      <use x="626.191406" xlink:href="#DejaVuSans-61"/>
      <use x="687.470703" xlink:href="#DejaVuSans-6c"/>
      <use x="715.253906" xlink:href="#DejaVuSans-73"/>
      <use x="767.353516" xlink:href="#DejaVuSans-20"/>
      <use x="799.140625" xlink:href="#DejaVuSans-2f"/>
      <use x="832.832031" xlink:href="#DejaVuSans-20"/>
      <use x="864.619141" xlink:href="#DejaVuSans-64"/>
      <use x="928.095703" xlink:href="#DejaVuSans-69"/>
      <use x="955.878906" xlink:href="#DejaVuSans-6d"/>
      <use x="1053.291016" xlink:href="#DejaVuSans-65"/>
      <use x="1114.814453" xlink:href="#DejaVuSans-6e"/>
      <use x="1178.193359" xlink:href="#DejaVuSans-73"/>
      <use x="1230.292969" xlink:href="#DejaVuSans-69"/>
      <use x="1258.076172" xlink:href="#DejaVuSans-6f"/>
      <use x="1319.257812" xlink:href="#DejaVuSans-6e"/>
      <use x="1382.636719" xlink:href="#DejaVuSans-29"/>
     </g>
    </g>
   </g>
   <g id="matplotlib.axis_2">
    <g id="ytick_1">
     <g id="line2d_29">
      <path clip-path="url(#p2dab38dfc7)" d="M 56.12 294.88 
L 333.168 294.88 
" style="fill:none;stroke:#b0b0b0;stroke-linecap:square;stroke-width:0.8;"/>
     </g>
     <g id="line2d_30">
      <defs>
       <path d="M 0 0 
L -3.5 0 
" id="m1bc73821c2" style="stroke:#000000;stroke-width:0.8;"/>
      </defs>
      <g>
       <use style="stroke:#000000;stroke-width:0.8;" x="56.12" xlink:href="#m1bc73821c2" y="294.88"/>
      </g>
     </g>
     <g id="text_6">
      <!-- 0.0 -->
      <defs>
       <path d="M 10.6875 12.40625 
L 21 12.40625 
L 21 0 
L 10.6875 0 
z
" id="DejaVuSans-2e"/>
      </defs>
      <g transform="translate(23.675 300.95875)scale(0.16 -0.16)">
       <use xlink:href="#DejaVuSans-30"/>
       <use x="63.623047" xlink:href="#DejaVuSans-2e"/>
       <use x="95.410156" xlink:href="#DejaVuSans-30"/>
      </g>
     </g>
    </g>
    <g id="ytick_2">
     <g id="line2d_31">
      <path clip-path="url(#p2dab38dfc7)" d="M 56.12 237.843411 
L 333.168 237.843411 
" style="fill:none;stroke:#b0b0b0;stroke-linecap:square;stroke-width:0.8;"/>
     </g>
     <g id="line2d_32">
      <g>
       <use style="stroke:#000000;stroke-width:0.8;" x="56.12" xlink:href="#m1bc73821c2" y="237.843411"/>
      </g>
     </g>
     <g id="text_7">
      <!-- 0.2 -->
      <g transform="translate(23.675 243.922161)scale(0.16 -0.16)">
       <use xlink:href="#DejaVuSans-30"/>
       <use x="63.623047" xlink:href="#DejaVuSans-2e"/>
       <use x="95.410156" xlink:href="#DejaVuSans-32"/>
      </g>
     </g>
    </g>
    <g id="ytick_3">
     <g id="line2d_33">
      <path clip-path="url(#p2dab38dfc7)" d="M 56.12 180.806823 
L 333.168 180.806823 
" style="fill:none;stroke:#b0b0b0;stroke-linecap:square;stroke-width:0.8;"/>
     </g>
     <g id="line2d_34">
      <g>
       <use style="stroke:#000000;stroke-width:0.8;" x="56.12" xlink:href="#m1bc73821c2" y="180.806823"/>
      </g>
     </g>
     <g id="text_8">
      <!-- 0.4 -->
      <g transform="translate(23.675 186.885573)scale(0.16 -0.16)">
       <use xlink:href="#DejaVuSans-30"/>
       <use x="63.623047" xlink:href="#DejaVuSans-2e"/>
       <use x="95.410156" xlink:href="#DejaVuSans-34"/>
      </g>
     </g>
    </g>
    <g id="ytick_4">
     <g id="line2d_35">
      <path clip-path="url(#p2dab38dfc7)" d="M 56.12 123.770234 
L 333.168 123.770234 
" style="fill:none;stroke:#b0b0b0;stroke-linecap:square;stroke-width:0.8;"/>
     </g>
     <g id="line2d_36">
      <g>
       <use style="stroke:#000000;stroke-width:0.8;" x="56.12" xlink:href="#m1bc73821c2" y="123.770234"/>
      </g>
     </g>
     <g id="text_9">
      <!-- 0.6 -->
      <g transform="translate(23.675 129.848984)scale(0.16 -0.16)">
       <use xlink:href="#DejaVuSans-30"/>
       <use x="63.623047" xlink:href="#DejaVuSans-2e"/>
       <use x="95.410156" xlink:href="#DejaVuSans-36"/>
      </g>
     </g>
    </g>
    <g id="ytick_5">
     <g id="line2d_37">
      <path clip-path="url(#p2dab38dfc7)" d="M 56.12 66.733646 
L 333.168 66.733646 
" style="fill:none;stroke:#b0b0b0;stroke-linecap:square;stroke-width:0.8;"/>
     </g>
     <g id="line2d_38">
      <g>
       <use style="stroke:#000000;stroke-width:0.8;" x="56.12" xlink:href="#m1bc73821c2" y="66.733646"/>
      </g>
     </g>
     <g id="text_10">
      <!-- 0.8 -->
      <defs>
       <path d="M 31.78125 34.625 
Q 24.75 34.625 20.71875 30.859375 
Q 16.703125 27.09375 16.703125 20.515625 
Q 16.703125 13.921875 20.71875 10.15625 
Q 24.75 6.390625 31.78125 6.390625 
Q 38.8125 6.390625 42.859375 10.171875 
Q 46.921875 13.96875 46.921875 20.515625 
Q 46.921875 27.09375 42.890625 30.859375 
Q 38.875 34.625 31.78125 34.625 
z
M 21.921875 38.8125 
Q 15.578125 40.375 12.03125 44.71875 
Q 8.5 49.078125 8.5 55.328125 
Q 8.5 64.0625 14.71875 69.140625 
Q 20.953125 74.21875 31.78125 74.21875 
Q 42.671875 74.21875 48.875 69.140625 
Q 55.078125 64.0625 55.078125 55.328125 
Q 55.078125 49.078125 51.53125 44.71875 
Q 48 40.375 41.703125 38.8125 
Q 48.828125 37.15625 52.796875 32.3125 
Q 56.78125 27.484375 56.78125 20.515625 
Q 56.78125 9.90625 50.3125 4.234375 
Q 43.84375 -1.421875 31.78125 -1.421875 
Q 19.734375 -1.421875 13.25 4.234375 
Q 6.78125 9.90625 6.78125 20.515625 
Q 6.78125 27.484375 10.78125 32.3125 
Q 14.796875 37.15625 21.921875 38.8125 
z
M 18.3125 54.390625 
Q 18.3125 48.734375 21.84375 45.5625 
Q 25.390625 42.390625 31.78125 42.390625 
Q 38.140625 42.390625 41.71875 45.5625 
Q 45.3125 48.734375 45.3125 54.390625 
Q 45.3125 60.0625 41.71875 63.234375 
Q 38.140625 66.40625 31.78125 66.40625 
Q 25.390625 66.40625 21.84375 63.234375 
Q 18.3125 60.0625 18.3125 54.390625 
z
" id="DejaVuSans-38"/>
      </defs>
      <g transform="translate(23.675 72.812396)scale(0.16 -0.16)">
       <use xlink:href="#DejaVuSans-30"/>
       <use x="63.623047" xlink:href="#DejaVuSans-2e"/>
       <use x="95.410156" xlink:href="#DejaVuSans-38"/>
      </g>
     </g>
    </g>
    <g id="ytick_6">
     <g id="line2d_39">
      <path clip-path="url(#p2dab38dfc7)" d="M 56.12 9.697057 
L 333.168 9.697057 
" style="fill:none;stroke:#b0b0b0;stroke-linecap:square;stroke-width:0.8;"/>
     </g>
     <g id="line2d_40">
      <g>
       <use style="stroke:#000000;stroke-width:0.8;" x="56.12" xlink:href="#m1bc73821c2" y="9.697057"/>
      </g>
     </g>
     <g id="text_11">
      <!-- 1.0 -->
      <g transform="translate(23.675 15.775807)scale(0.16 -0.16)">
       <use xlink:href="#DejaVuSans-31"/>
       <use x="63.623047" xlink:href="#DejaVuSans-2e"/>
       <use x="95.410156" xlink:href="#DejaVuSans-30"/>
      </g>
     </g>
    </g>
    <g id="text_12">
     <!-- Fraction of function,target pairs -->
     <defs>
      <path d="M 9.8125 72.90625 
L 51.703125 72.90625 
L 51.703125 64.59375 
L 19.671875 64.59375 
L 19.671875 43.109375 
L 48.578125 43.109375 
L 48.578125 34.8125 
L 19.671875 34.8125 
L 19.671875 0 
L 9.8125 0 
z
" id="DejaVuSans-46"/>
      <path d="M 41.109375 46.296875 
Q 39.59375 47.171875 37.8125 47.578125 
Q 36.03125 48 33.890625 48 
Q 26.265625 48 22.1875 43.046875 
Q 18.109375 38.09375 18.109375 28.8125 
L 18.109375 0 
L 9.078125 0 
L 9.078125 54.6875 
L 18.109375 54.6875 
L 18.109375 46.1875 
Q 20.953125 51.171875 25.484375 53.578125 
Q 30.03125 56 36.53125 56 
Q 37.453125 56 38.578125 55.875 
Q 39.703125 55.765625 41.0625 55.515625 
z
" id="DejaVuSans-72"/>
      <path d="M 48.78125 52.59375 
L 48.78125 44.1875 
Q 44.96875 46.296875 41.140625 47.34375 
Q 37.3125 48.390625 33.40625 48.390625 
Q 24.65625 48.390625 19.8125 42.84375 
Q 14.984375 37.3125 14.984375 27.296875 
Q 14.984375 17.28125 19.8125 11.734375 
Q 24.65625 6.203125 33.40625 6.203125 
Q 37.3125 6.203125 41.140625 7.25 
Q 44.96875 8.296875 48.78125 10.40625 
L 48.78125 2.09375 
Q 45.015625 0.34375 40.984375 -0.53125 
Q 36.96875 -1.421875 32.421875 -1.421875 
Q 20.0625 -1.421875 12.78125 6.34375 
Q 5.515625 14.109375 5.515625 27.296875 
Q 5.515625 40.671875 12.859375 48.328125 
Q 20.21875 56 33.015625 56 
Q 37.15625 56 41.109375 55.140625 
Q 45.0625 54.296875 48.78125 52.59375 
z
" id="DejaVuSans-63"/>
      <path d="M 18.3125 70.21875 
L 18.3125 54.6875 
L 36.8125 54.6875 
L 36.8125 47.703125 
L 18.3125 47.703125 
L 18.3125 18.015625 
Q 18.3125 11.328125 20.140625 9.421875 
Q 21.96875 7.515625 27.59375 7.515625 
L 36.8125 7.515625 
L 36.8125 0 
L 27.59375 0 
Q 17.1875 0 13.234375 3.875 
Q 9.28125 7.765625 9.28125 18.015625 
L 9.28125 47.703125 
L 2.6875 47.703125 
L 2.6875 54.6875 
L 9.28125 54.6875 
L 9.28125 70.21875 
z
" id="DejaVuSans-74"/>
      <path d="M 8.5 21.578125 
L 8.5 54.6875 
L 17.484375 54.6875 
L 17.484375 21.921875 
Q 17.484375 14.15625 20.5 10.265625 
Q 23.53125 6.390625 29.59375 6.390625 
Q 36.859375 6.390625 41.078125 11.03125 
Q 45.3125 15.671875 45.3125 23.6875 
L 45.3125 54.6875 
L 54.296875 54.6875 
L 54.296875 0 
L 45.3125 0 
L 45.3125 8.40625 
Q 42.046875 3.421875 37.71875 1 
Q 33.40625 -1.421875 27.6875 -1.421875 
Q 18.265625 -1.421875 13.375 4.4375 
Q 8.5 10.296875 8.5 21.578125 
z
M 31.109375 56 
z
" id="DejaVuSans-75"/>
      <path d="M 11.71875 12.40625 
L 22.015625 12.40625 
L 22.015625 4 
L 14.015625 -11.625 
L 7.71875 -11.625 
L 11.71875 4 
z
" id="DejaVuSans-2c"/>
      <path d="M 18.109375 8.203125 
L 18.109375 -20.796875 
L 9.078125 -20.796875 
L 9.078125 54.6875 
L 18.109375 54.6875 
L 18.109375 46.390625 
Q 20.953125 51.265625 25.265625 53.625 
Q 29.59375 56 35.59375 56 
Q 45.5625 56 51.78125 48.09375 
Q 58.015625 40.1875 58.015625 27.296875 
Q 58.015625 14.40625 51.78125 6.484375 
Q 45.5625 -1.421875 35.59375 -1.421875 
Q 29.59375 -1.421875 25.265625 0.953125 
Q 20.953125 3.328125 18.109375 8.203125 
z
M 48.6875 27.296875 
Q 48.6875 37.203125 44.609375 42.84375 
Q 40.53125 48.484375 33.40625 48.484375 
Q 26.265625 48.484375 22.1875 42.84375 
Q 18.109375 37.203125 18.109375 27.296875 
Q 18.109375 17.390625 22.1875 11.75 
Q 26.265625 6.109375 33.40625 6.109375 
Q 40.53125 6.109375 44.609375 11.75 
Q 48.6875 17.390625 48.6875 27.296875 
z
" id="DejaVuSans-70"/>
     </defs>
     <g transform="translate(16.139531 286.001989)rotate(-90)scale(0.17 -0.17)">
      <use xlink:href="#DejaVuSans-46"/>
      <use x="57.410156" xlink:href="#DejaVuSans-72"/>
      <use x="98.523438" xlink:href="#DejaVuSans-61"/>
      <use x="159.802734" xlink:href="#DejaVuSans-63"/>
      <use x="214.783203" xlink:href="#DejaVuSans-74"/>
      <use x="253.992188" xlink:href="#DejaVuSans-69"/>
      <use x="281.775391" xlink:href="#DejaVuSans-6f"/>
      <use x="342.957031" xlink:href="#DejaVuSans-6e"/>
      <use x="406.335938" xlink:href="#DejaVuSans-20"/>
      <use x="438.123047" xlink:href="#DejaVuSans-6f"/>
      <use x="499.304688" xlink:href="#DejaVuSans-66"/>
      <use x="534.509766" xlink:href="#DejaVuSans-20"/>
      <use x="566.296875" xlink:href="#DejaVuSans-66"/>
      <use x="601.501953" xlink:href="#DejaVuSans-75"/>
      <use x="664.880859" xlink:href="#DejaVuSans-6e"/>
      <use x="728.259766" xlink:href="#DejaVuSans-63"/>
      <use x="783.240234" xlink:href="#DejaVuSans-74"/>
      <use x="822.449219" xlink:href="#DejaVuSans-69"/>
      <use x="850.232422" xlink:href="#DejaVuSans-6f"/>
      <use x="911.414062" xlink:href="#DejaVuSans-6e"/>
      <use x="974.792969" xlink:href="#DejaVuSans-2c"/>
      <use x="1006.580078" xlink:href="#DejaVuSans-74"/>
      <use x="1045.789062" xlink:href="#DejaVuSans-61"/>
      <use x="1107.068359" xlink:href="#DejaVuSans-72"/>
      <use x="1148.166016" xlink:href="#DejaVuSans-67"/>
      <use x="1211.642578" xlink:href="#DejaVuSans-65"/>
      <use x="1273.166016" xlink:href="#DejaVuSans-74"/>
      <use x="1312.375" xlink:href="#DejaVuSans-20"/>
      <use x="1344.162109" xlink:href="#DejaVuSans-70"/>
      <use x="1407.638672" xlink:href="#DejaVuSans-61"/>
      <use x="1468.917969" xlink:href="#DejaVuSans-69"/>
      <use x="1496.701172" xlink:href="#DejaVuSans-72"/>
      <use x="1537.814453" xlink:href="#DejaVuSans-73"/>
     </g>
    </g>
   </g>
   <g id="line2d_41">
    <defs>
     <path d="M 0 1.5 
C 0.397805 1.5 0.77937 1.341951 1.06066 1.06066 
C 1.341951 0.77937 1.5 0.397805 1.5 0 
C 1.5 -0.397805 1.341951 -0.77937 1.06066 -1.06066 
C 0.77937 -1.341951 0.397805 -1.5 0 -1.5 
C -0.397805 -1.5 -0.77937 -1.341951 -1.06066 -1.06066 
C -1.341951 -0.77937 -1.5 -0.397805 -1.5 0 
C -1.5 0.397805 -1.341951 0.77937 -1.06066 1.06066 
C -0.77937 1.341951 -0.397805 1.5 0 1.5 
z
" id="m19931f669c" style="stroke:#f5deb3;"/>
    </defs>
    <g>
     <use style="fill:#f5deb3;stroke:#f5deb3;" x="147.587283" xlink:href="#m19931f669c" y="9.697057"/>
     <use style="fill:#f5deb3;stroke:#f5deb3;" x="147.587283" xlink:href="#m19931f669c" y="9.697057"/>
    </g>
   </g>
   <g id="line2d_42">
    <defs>
     <path d="M 0 1.5 
C 0.397805 1.5 0.77937 1.341951 1.06066 1.06066 
C 1.341951 0.77937 1.5 0.397805 1.5 0 
C 1.5 -0.397805 1.341951 -0.77937 1.06066 -1.06066 
C 0.77937 -1.341951 0.397805 -1.5 0 -1.5 
C -0.397805 -1.5 -0.77937 -1.341951 -1.06066 -1.06066 
C -1.341951 -0.77937 -1.5 -0.397805 -1.5 0 
C -1.5 0.397805 -1.341951 0.77937 -1.06066 1.06066 
C -0.77937 1.341951 -0.397805 1.5 0 1.5 
z
" id="m3137600fa6" style="stroke:#000080;"/>
    </defs>
    <g>
     <use style="fill:#000080;stroke:#000080;" x="205.059159" xlink:href="#m3137600fa6" y="72.605059"/>
     <use style="fill:#000080;stroke:#000080;" x="205.059159" xlink:href="#m3137600fa6" y="72.605059"/>
    </g>
   </g>
   <g id="line2d_43">
    <path d="M 37.236359 294.88 
L 37.236359 285.373902 
L 83.784035 285.373902 
L 83.784035 283.836151 
L 92.564428 283.836151 
L 92.564428 283.696355 
L 93.238578 283.696355 
L 93.238578 283.55656 
L 93.887283 283.55656 
L 93.887283 282.997377 
L 94.512393 282.997377 
L 94.512393 282.438195 
L 95.115564 282.438195 
L 95.115564 280.760648 
L 95.698286 280.760648 
L 95.698286 280.620853 
L 96.261898 280.620853 
L 96.261898 279.782079 
L 96.807615 279.782079 
L 96.807615 279.222897 
L 97.336537 279.222897 
L 97.336537 278.244328 
L 97.849669 278.244328 
L 97.849669 276.846373 
L 98.347925 276.846373 
L 98.347925 276.426986 
L 98.832144 276.426986 
L 98.832144 276.147395 
L 100.643147 276.147395 
L 100.643147 274.889235 
L 101.067579 274.889235 
L 101.067579 274.609644 
L 101.88624 274.609644 
L 101.88624 273.211688 
L 102.281398 273.211688 
L 102.281398 272.932097 
L 102.667676 272.932097 
L 102.667676 272.372915 
L 103.045463 272.372915 
L 103.045463 271.673937 
L 103.415125 271.673937 
L 103.415125 271.534141 
L 103.777005 271.534141 
L 103.777005 271.114755 
L 104.131422 271.114755 
L 104.131422 270.555573 
L 106.11693 270.555573 
L 106.11693 270.415777 
L 106.730875 270.415777 
L 106.730875 269.99639 
L 107.896653 269.99639 
L 107.896653 269.856595 
L 108.721866 269.856595 
L 108.721866 269.577004 
L 108.988361 269.577004 
L 108.988361 269.437208 
L 110.014853 269.437208 
L 110.014853 269.297412 
L 110.262176 269.297412 
L 110.262176 269.157617 
L 110.505991 269.157617 
L 110.505991 267.619866 
L 110.746395 267.619866 
L 110.746395 267.48007 
L 110.983483 267.48007 
L 110.983483 267.060684 
L 111.217346 267.060684 
L 111.217346 266.781092 
L 111.448069 266.781092 
L 111.448069 266.641297 
L 111.675736 266.641297 
L 111.675736 266.361706 
L 111.900428 266.361706 
L 111.900428 266.22191 
L 112.122219 266.22191 
L 112.122219 265.942319 
L 112.341186 265.942319 
L 112.341186 265.802523 
L 112.557398 265.802523 
L 112.557398 265.522932 
L 112.770924 265.522932 
L 112.770924 265.383137 
L 112.98183 265.383137 
L 112.98183 265.243341 
L 113.396034 265.243341 
L 113.396034 265.103546 
L 113.599452 265.103546 
L 113.599452 264.404568 
L 113.999206 264.404568 
L 113.999206 263.985181 
L 114.195649 263.985181 
L 114.195649 263.845386 
L 114.389873 263.845386 
L 114.389873 263.565795 
L 114.581927 263.565795 
L 114.581927 263.146408 
L 114.771859 263.146408 
L 114.771859 262.727021 
L 114.959714 262.727021 
L 114.959714 262.44743 
L 115.329377 262.44743 
L 115.329377 262.167839 
L 115.511269 262.167839 
L 115.511269 261.748452 
L 115.691256 261.748452 
L 115.691256 261.18927 
L 115.869378 261.18927 
L 115.869378 260.909679 
L 116.045673 260.909679 
L 116.045673 260.630088 
L 116.220179 260.630088 
L 116.220179 260.070906 
L 116.39293 260.070906 
L 116.39293 259.371928 
L 116.563963 259.371928 
L 116.563963 258.952541 
L 116.73331 258.952541 
L 116.73331 258.67295 
L 117.06708 258.67295 
L 117.06708 258.113768 
L 117.231566 258.113768 
L 117.231566 257.973972 
L 117.394493 257.973972 
L 117.394493 257.554585 
L 117.55589 257.554585 
L 117.55589 257.274994 
L 117.715785 257.274994 
L 117.715785 256.855608 
L 117.874207 256.855608 
L 117.874207 256.715812 
L 118.031182 256.715812 
L 118.031182 256.016834 
L 118.186736 256.016834 
L 118.186736 255.877039 
L 118.340895 255.877039 
L 118.340895 255.317856 
L 118.493684 255.317856 
L 118.493684 254.758674 
L 118.645127 254.758674 
L 118.645127 253.919901 
L 119.09161 253.919901 
L 119.09161 253.64031 
L 119.237897 253.64031 
L 119.237897 253.220923 
L 119.382949 253.220923 
L 119.382949 252.521945 
L 119.526788 252.521945 
L 119.526788 252.242354 
L 119.669433 252.242354 
L 119.669433 252.102559 
L 119.810904 252.102559 
L 119.810904 251.822967 
L 119.95122 251.822967 
L 119.95122 251.403581 
L 120.0904 251.403581 
L 120.0904 251.263785 
L 120.228462 251.263785 
L 120.228462 251.12399 
L 120.365424 251.12399 
L 120.365424 250.704603 
L 120.501303 250.704603 
L 120.501303 250.145421 
L 120.769881 250.145421 
L 120.769881 250.005625 
L 120.902613 250.005625 
L 120.902613 249.446443 
L 121.034327 249.446443 
L 121.034327 249.306647 
L 121.16504 249.306647 
L 121.16504 248.887261 
L 121.294766 248.887261 
L 121.294766 248.467874 
L 121.42352 248.467874 
L 121.42352 248.048487 
L 121.551317 248.048487 
L 121.551317 247.489305 
L 121.678171 247.489305 
L 121.678171 246.930123 
L 121.804096 246.930123 
L 121.804096 246.510736 
L 122.053211 246.510736 
L 122.053211 246.231145 
L 122.176427 246.231145 
L 122.176427 246.091349 
L 122.298767 246.091349 
L 122.298767 245.392372 
L 122.540864 245.392372 
L 122.540864 245.112781 
L 122.660646 245.112781 
L 122.660646 244.553598 
L 122.779599 244.553598 
L 122.779599 244.413803 
L 122.897734 244.413803 
L 122.897734 244.134212 
L 123.015063 244.134212 
L 123.015063 243.994416 
L 123.247346 243.994416 
L 123.247346 243.295438 
L 123.476531 243.295438 
L 123.476531 242.736256 
L 123.589988 242.736256 
L 123.589988 242.59646 
L 123.7027 242.59646 
L 123.7027 242.177074 
L 123.814679 242.177074 
L 123.814679 242.037278 
L 123.925932 242.037278 
L 124.036471 241.617892 
L 124.255437 241.617892 
L 124.363883 241.198505 
L 124.578744 241.198505 
L 124.685175 240.918914 
L 124.790952 240.918914 
L 124.790952 240.639323 
L 125.104431 240.639323 
L 125.207666 240.219936 
L 125.310285 240.219936 
L 125.412295 239.660754 
L 125.614517 239.660754 
L 125.714742 239.241367 
L 125.814387 239.241367 
L 125.913457 238.961776 
L 126.011959 238.961776 
L 126.011959 238.262798 
L 126.207287 238.262798 
L 126.304124 237.424025 
L 126.40042 237.424025 
L 126.496178 236.585251 
L 126.68611 236.585251 
L 126.780294 235.746478 
L 126.873966 235.746478 
L 126.873966 235.466887 
L 127.05979 235.466887 
L 127.151955 234.907705 
L 127.243628 234.907705 
L 127.334814 234.068931 
L 127.42552 234.068931 
L 127.515749 233.230158 
L 127.605507 233.230158 
L 127.605507 232.950567 
L 127.783629 232.950567 
L 127.783629 232.670976 
L 127.959924 232.670976 
L 128.047399 231.27302 
L 128.13443 231.27302 
L 128.221023 230.154656 
L 128.307181 230.154656 
L 128.307181 229.735269 
L 128.478214 229.735269 
L 128.563096 229.176087 
L 128.647561 229.176087 
L 128.731613 228.896496 
L 128.815257 228.896496 
L 128.898495 227.917927 
L 128.981332 227.917927 
L 129.063771 227.49854 
L 129.145817 227.49854 
L 129.227474 226.519971 
L 129.308744 226.519971 
L 129.389632 226.100584 
L 129.470141 226.100584 
L 129.550274 225.681198 
L 129.630036 225.681198 
L 129.70943 224.003651 
L 129.788458 224.003651 
L 129.867125 223.444469 
L 129.945433 223.444469 
L 129.945433 223.164878 
L 130.100987 223.164878 
L 130.178239 221.627126 
L 130.255146 221.627126 
L 130.33171 220.229171 
L 130.407935 220.229171 
L 130.483823 218.831215 
L 130.559378 218.831215 
L 130.634602 217.573055 
L 130.709498 217.573055 
L 130.784069 215.755713 
L 130.858318 215.755713 
L 130.932248 214.357757 
L 131.005861 214.357757 
L 131.07916 213.239393 
L 131.152148 213.239393 
L 131.224827 211.981233 
L 131.2972 211.981233 
L 131.36927 210.862868 
L 131.441039 210.862868 
L 131.51251 209.884299 
L 131.583684 209.884299 
L 131.654565 208.626139 
L 131.725155 208.626139 
L 131.795457 208.066957 
L 131.865471 208.066957 
L 131.935202 206.249615 
L 132.004651 206.249615 
L 132.073821 205.13125 
L 132.142713 205.13125 
L 132.211331 203.174112 
L 132.279675 203.174112 
L 132.347749 201.915952 
L 132.483094 201.915952 
L 132.550368 200.517997 
L 132.61738 200.517997 
L 132.684132 199.120041 
L 132.750626 199.120041 
L 132.816864 197.722086 
L 132.882847 197.722086 
L 132.948578 196.32413 
L 133.014059 196.32413 
L 133.079291 195.345561 
L 133.144276 195.345561 
L 133.209017 194.646583 
L 133.273515 194.646583 
L 133.337771 193.108832 
L 133.401789 193.108832 
L 133.465568 191.29149 
L 133.529112 191.29149 
L 133.592422 190.312921 
L 133.6555 190.312921 
L 133.718347 189.194556 
L 133.780965 189.194556 
L 133.843356 187.796601 
L 133.905521 187.796601 
L 133.905521 186.678236 
L 134.029181 186.678236 
L 134.090678 185.140485 
L 134.151957 185.140485 
L 134.213018 183.74253 
L 134.273863 183.74253 
L 134.334493 182.48437 
L 134.39491 182.48437 
L 134.455115 181.505801 
L 134.515111 181.505801 
L 134.574897 180.387436 
L 134.634477 180.387436 
L 134.69385 178.709889 
L 134.753019 178.709889 
L 134.811986 177.731321 
L 134.87075 177.731321 
L 134.929315 176.892547 
L 134.98768 176.892547 
L 135.045848 175.494592 
L 135.10382 175.494592 
L 135.161597 174.096636 
L 135.21918 174.096636 
L 135.276571 172.558885 
L 135.333772 172.558885 
L 135.333772 172.139498 
L 135.447604 172.139498 
L 135.504239 170.601747 
L 135.560688 170.601747 
L 135.616951 169.762974 
L 135.673032 169.762974 
L 135.72893 168.644609 
L 135.784647 168.644609 
L 135.895542 167.66604 
L 135.950722 167.66604 
L 136.005725 166.967062 
L 136.115208 166.967062 
L 136.223997 165.009925 
L 136.278134 165.009925 
L 136.3859 163.89156 
L 136.439531 163.89156 
L 136.546293 163.332378 
L 136.652396 163.332378 
L 136.705203 162.773196 
L 136.810332 162.773196 
L 136.914823 161.794627 
L 136.966831 161.794627 
L 137.018682 161.235444 
L 137.173303 161.235444 
L 137.275617 160.256876 
L 137.326546 160.256876 
L 137.427955 158.998715 
L 137.528768 158.998715 
L 137.628993 158.579329 
L 137.728638 158.579329 
L 137.827708 158.020147 
L 137.926211 158.020147 
L 137.975251 157.460964 
L 138.218376 157.460964 
L 138.266591 156.761987 
L 138.362617 156.761987 
L 138.362617 156.622191 
L 138.505658 156.622191 
L 138.553074 156.3426 
L 138.647518 156.3426 
L 138.694545 155.643622 
L 138.788217 155.643622 
L 138.88138 155.224235 
L 138.974042 155.224235 
L 139.020186 154.804849 
L 139.112104 154.804849 
L 139.203533 153.966075 
L 139.339771 153.966075 
L 139.384945 152.987506 
L 139.474938 152.987506 
L 139.564462 152.707915 
L 139.60905 152.707915 
L 139.60905 152.148733 
L 139.830271 152.148733 
L 139.830271 152.008937 
L 139.96165 152.008937 
L 140.00522 151.729346 
L 140.092032 151.729346 
L 140.178407 151.170164 
L 140.26435 151.170164 
L 140.307161 150.750777 
L 140.392465 150.750777 
L 140.434959 150.471186 
L 140.687737 150.471186 
L 140.771177 149.912004 
L 140.812746 149.912004 
L 140.895583 149.352822 
L 140.978022 149.352822 
L 141.060069 149.073231 
L 141.182408 149.073231 
L 141.222995 148.79364 
L 141.424506 148.79364 
L 141.424506 148.514048 
L 141.742087 148.514048 
L 141.781376 148.234457 
L 141.898705 148.234457 
L 141.898705 147.815071 
L 142.092491 147.815071 
L 142.092491 147.675275 
L 142.207722 147.675275 
L 142.284116 147.255888 
L 142.398074 147.255888 
L 142.398074 147.116093 
L 142.586342 147.116093 
L 142.586342 146.556911 
L 142.69832 146.556911 
L 142.772569 145.857933 
L 142.809574 145.857933 
L 142.920112 145.019159 
L 142.956801 145.019159 
L 142.956801 144.739568 
L 143.102777 144.739568 
L 143.139078 144.180386 
L 143.247524 144.180386 
L 143.35529 143.341613 
L 143.391063 143.341613 
L 143.497935 142.78243 
L 143.533413 142.78243 
L 143.639406 141.943657 
L 143.674593 141.943657 
L 143.709708 141.664066 
L 143.814623 141.664066 
L 143.918903 140.685497 
L 143.953522 140.685497 
L 143.988072 140.405906 
L 144.091308 140.405906 
L 144.193927 139.427337 
L 144.227997 139.427337 
L 144.329806 137.330404 
L 144.363608 137.330404 
L 144.397345 136.911017 
L 144.498158 136.911017 
L 144.498158 136.771221 
L 144.631663 136.771221 
L 144.698028 136.212039 
L 144.764138 136.212039 
L 144.829995 135.23347 
L 144.895601 135.23347 
L 144.993542 134.814084 
L 145.026065 134.814084 
L 145.123268 133.835515 
L 145.155547 133.835515 
L 145.252022 133.136537 
L 145.347959 133.136537 
L 145.443364 132.297763 
L 145.475048 132.297763 
L 145.569751 131.878377 
L 145.632598 131.878377 
L 145.72644 130.899808 
L 145.757607 130.899808 
L 145.85077 130.20083 
L 145.881713 130.20083 
L 145.974208 129.222261 
L 146.035596 129.222261 
L 146.096766 128.523283 
L 146.157718 128.523283 
L 146.248744 128.243692 
L 146.309161 128.243692 
L 146.369367 127.544714 
L 146.429362 127.544714 
L 146.489148 127.125328 
L 146.548728 127.125328 
L 146.637711 126.845737 
L 146.667271 126.845737 
L 146.755644 126.146759 
L 146.814308 126.146759 
L 146.901931 125.727372 
L 146.93104 125.727372 
L 147.018071 125.028394 
L 147.046984 125.028394 
L 147.133431 124.748803 
L 147.162151 124.748803 
L 147.219446 124.189621 
L 147.305033 124.189621 
L 147.361855 123.630439 
L 147.41849 123.630439 
L 147.503094 123.350848 
L 147.671062 123.350848 
L 147.782136 122.232483 
L 147.864973 122.232483 
L 147.864973 121.952892 
L 148.002154 121.952892 
L 148.111115 120.834528 
L 148.165338 120.834528 
L 148.192385 120.13555 
L 148.433916 120.13555 
L 148.433916 119.995754 
L 148.566647 119.995754 
L 148.593071 119.716163 
L 148.698361 119.716163 
L 148.803011 119.156981 
L 148.881082 119.156981 
L 148.984628 118.318207 
L 149.010418 118.318207 
L 149.11319 117.479434 
L 149.164347 117.479434 
L 149.164347 117.199843 
L 149.291576 117.199843 
L 149.367465 116.780456 
L 149.46813 116.780456 
L 149.493205 116.36107 
L 149.717245 116.36107 
L 149.815889 115.801887 
L 149.864999 115.801887 
L 149.962801 115.242705 
L 150.035789 115.242705 
L 150.132627 114.823318 
L 150.156751 114.823318 
L 150.228922 114.264136 
L 150.300791 114.264136 
L 150.324681 113.984545 
L 150.490985 113.984545 
L 150.514612 113.425363 
L 150.655696 113.425363 
L 150.702468 113.145772 
L 150.795631 113.145772 
L 150.888293 112.167203 
L 150.957462 112.167203 
L 151.049258 111.468225 
L 151.07213 111.468225 
L 151.07213 111.328429 
L 151.231391 111.328429 
L 151.321738 111.048838 
L 151.344251 111.048838 
L 151.411614 110.629452 
L 151.501022 110.629452 
L 151.589967 110.210065 
L 151.656375 110.210065 
L 151.766488 109.930474 
L 151.788427 109.930474 
L 151.832219 109.371292 
L 151.919472 109.371292 
L 151.984621 108.951905 
L 152.114184 108.951905 
L 152.20002 108.672314 
L 152.242778 108.672314 
L 152.306716 108.252927 
L 152.391598 108.252927 
L 152.497115 107.414154 
L 152.560116 107.414154 
L 152.622886 107.134563 
L 152.789162 107.134563 
L 152.892274 106.715176 
L 153.07633 106.715176 
L 153.177738 106.435585 
L 153.218134 106.435585 
L 153.278551 106.155994 
L 153.338757 106.155994 
L 153.438633 105.736607 
L 153.498281 105.736607 
L 153.577492 105.457016 
L 153.675994 105.457016 
L 153.773935 104.897834 
L 153.793457 104.897834 
L 153.890733 104.478447 
L 153.910122 104.478447 
L 153.910122 104.198856 
L 154.064454 104.198856 
L 154.160213 103.779469 
L 154.312326 103.779469 
L 154.350144 103.499878 
L 154.444329 103.499878 
L 154.519307 103.220287 
L 154.612571 103.220287 
L 154.68682 102.8009 
L 154.742297 102.8009 
L 154.742297 102.661105 
L 154.871052 102.661105 
L 154.944195 102.241718 
L 155.143749 102.241718 
L 155.215743 101.402945 
L 155.341012 101.402945 
L 155.394421 101.123354 
L 155.483068 101.123354 
L 155.588844 100.564171 
L 155.623959 100.564171 
L 155.728875 100.144785 
L 155.815818 100.144785 
L 155.919572 99.306011 
L 155.988396 99.306011 
L 156.091117 98.607033 
L 156.125221 98.607033 
L 156.125221 98.467238 
L 156.244057 98.467238 
L 156.328439 97.908056 
L 156.362076 97.908056 
L 156.462595 97.488669 
L 156.479291 97.488669 
L 156.579129 97.209078 
L 156.612279 97.209078 
L 156.661886 96.5101 
L 156.793474 96.5101 
L 156.875208 96.090713 
L 156.924063 96.090713 
L 156.940317 95.811122 
L 157.037519 95.811122 
L 157.134175 94.552962 
L 157.150232 94.552962 
L 157.150232 94.413167 
L 157.341751 94.413167 
L 157.341751 94.133576 
L 157.515455 94.133576 
L 157.593834 93.574393 
L 157.671858 93.574393 
L 157.68742 93.294802 
L 157.934521 93.294802 
L 158.011017 92.875415 
L 158.056752 92.875415 
L 158.102365 92.595824 
L 158.283618 92.595824 
L 158.388472 92.176438 
L 158.492691 92.176438 
L 158.581522 91.896847 
L 158.68458 91.896847 
L 158.68458 91.617255 
L 158.946785 91.617255 
L 159.018915 91.197869 
L 159.062048 91.197869 
L 159.147992 90.638687 
L 159.190803 90.638687 
L 159.190803 90.498891 
L 159.360989 90.498891 
L 159.38919 90.2193 
L 159.473517 90.2193 
L 159.501534 89.939709 
L 159.599237 89.939709 
L 159.682542 89.660118 
L 159.902736 89.660118 
L 159.970972 89.240731 
L 160.038938 89.240731 
L 160.038938 89.100935 
L 160.268033 89.100935 
L 160.268033 88.96114 
L 160.441186 88.96114 
L 160.441186 88.821344 
L 160.665017 88.821344 
L 160.665017 88.681549 
L 160.821278 88.681549 
L 160.821278 88.541753 
L 161.027441 88.541753 
L 161.027441 88.401958 
L 161.167758 88.401958 
L 161.269091 87.70298 
L 161.306937 87.70298 
L 161.35727 87.423389 
L 161.432494 87.423389 
L 161.49493 87.004002 
L 161.606747 87.004002 
L 161.606747 86.724411 
L 161.766986 86.724411 
L 161.803753 86.44482 
L 162.046878 86.44482 
L 162.155172 86.025433 
L 162.226991 86.025433 
L 162.262788 85.466251 
L 162.369735 85.466251 
L 162.417054 85.18666 
L 162.487789 85.18666 
L 162.487789 85.046864 
L 162.675005 85.046864 
L 162.756276 84.767273 
L 162.790989 84.767273 
L 162.837164 84.347886 
L 162.917672 84.347886 
L 162.952061 84.068295 
L 163.066196 84.068295 
L 163.145642 83.788704 
L 163.179578 83.788704 
L 163.280986 83.229522 
L 163.691712 83.229522 
L 163.691712 83.089726 
L 163.877183 83.089726 
L 163.877183 82.949931 
L 164.006909 82.949931 
L 164.006909 82.810135 
L 164.30585 82.810135 
L 164.400844 82.530544 
L 164.442896 82.530544 
L 164.505781 82.250953 
L 164.568437 82.250953 
L 164.568437 82.111157 
L 164.724085 82.111157 
L 164.765354 81.831566 
L 165.04136 81.831566 
L 165.04136 81.691771 
L 165.313003 81.691771 
L 165.392672 81.132588 
L 165.442279 81.132588 
L 165.442279 80.992793 
L 165.988305 80.992793 
L 166.093552 80.713202 
L 166.302131 80.713202 
L 166.302131 80.573406 
L 166.73943 80.573406 
L 166.831054 80.293815 
L 166.858446 80.293815 
L 166.940362 79.874428 
L 167.003805 79.874428 
L 167.003805 79.734633 
L 167.281988 79.734633 
L 167.326438 79.455042 
L 167.397319 79.455042 
L 167.485511 79.175451 
L 167.643126 79.175451 
L 167.643126 79.035655 
L 167.911231 79.035655 
L 167.936956 78.756064 
L 168.090503 78.756064 
L 168.090503 78.616268 
L 168.625601 78.616268 
L 168.707725 78.336677 
L 168.748641 78.336677 
L 168.748641 78.196882 
L 169.648274 78.196882 
L 169.648274 78.057086 
L 169.795022 78.057086 
L 169.802711 77.777495 
L 170.122579 77.777495 
L 170.122579 77.637699 
L 170.242885 77.637699 
L 170.242885 77.497904 
L 170.715861 77.497904 
L 170.774078 77.218313 
L 171.090795 77.218313 
L 171.090795 77.078517 
L 171.239923 77.078517 
L 171.239923 76.938722 
L 171.48563 76.938722 
L 171.576005 76.519335 
L 171.707243 76.519335 
L 171.707243 76.379539 
L 172.308991 76.379539 
L 172.355438 76.099948 
L 172.513738 76.099948 
L 172.61194 75.680562 
L 172.716074 75.680562 
L 172.716074 75.540766 
L 172.916057 75.540766 
L 172.916057 75.40097 
L 173.415413 75.40097 
L 173.514805 75.121379 
L 173.564286 75.121379 
L 173.564286 74.981584 
L 174.372603 74.981584 
L 174.372603 74.841788 
L 175.368494 74.841788 
L 175.368494 74.701993 
L 176.309831 74.701993 
L 176.309831 74.562197 
L 176.622835 74.562197 
L 176.622835 74.422402 
L 177.670666 74.422402 
L 177.670666 74.282606 
L 178.315046 74.282606 
L 178.315046 74.14281 
L 178.510692 74.14281 
L 178.510692 74.003015 
L 179.592207 74.003015 
L 179.592207 73.863219 
L 180.543967 73.863219 
L 180.543967 73.723424 
L 181.209886 73.723424 
L 181.209886 73.583628 
L 181.968786 73.583628 
L 181.968786 73.443833 
L 182.175858 73.443833 
L 182.175858 73.304037 
L 183.604283 73.304037 
L 183.604283 73.164241 
L 184.601102 73.164241 
L 184.601102 73.024446 
L 187.296642 73.024446 
L 187.296642 72.88465 
L 194.723838 72.88465 
L 194.723838 72.744855 
L 205.059159 72.744855 
L 205.059159 72.605059 
L 333.168 72.605059 
L 333.168 72.605059 
" style="fill:none;stroke:#000080;stroke-linecap:square;stroke-width:1.5;"/>
   </g>
   <g id="line2d_44">
    <defs>
     <path d="M 0 6 
C 1.591219 6 3.117479 5.367802 4.242641 4.242641 
C 5.367802 3.117479 6 1.591219 6 0 
C 6 -1.591219 5.367802 -3.117479 4.242641 -4.242641 
C 3.117479 -5.367802 1.591219 -6 0 -6 
C -1.591219 -6 -3.117479 -5.367802 -4.242641 -4.242641 
C -5.367802 -3.117479 -6 -1.591219 -6 0 
C -6 1.591219 -5.367802 3.117479 -4.242641 4.242641 
C -3.117479 5.367802 -1.591219 6 0 6 
z
" id="m6983564ee1" style="stroke:#000080;stroke-width:1.5;"/>
    </defs>
    <g>
     <use style="fill:none;stroke:#000080;stroke-width:1.5;" x="122.540864" xlink:href="#m6983564ee1" y="245.392372"/>
     <use style="fill:none;stroke:#000080;stroke-width:1.5;" x="159.682542" xlink:href="#m6983564ee1" y="89.799913"/>
     <use style="fill:none;stroke:#000080;stroke-width:1.5;" x="205.059159" xlink:href="#m6983564ee1" y="72.744855"/>
     <use style="fill:none;stroke:#000080;stroke-width:1.5;" x="205.059159" xlink:href="#m6983564ee1" y="72.605059"/>
     <use style="fill:none;stroke:#000080;stroke-width:1.5;" x="205.059159" xlink:href="#m6983564ee1" y="72.605059"/>
     <use style="fill:none;stroke:#000080;stroke-width:1.5;" x="333.168" xlink:href="#m6983564ee1" y="72.605059"/>
    </g>
   </g>
   <g id="line2d_45">
    <path style="fill:none;stroke:#000080;stroke-linecap:square;stroke-width:1.5;"/>
    <g/>
   </g>
   <g id="line2d_46">
    <path clip-path="url(#p2dab38dfc7)" d="M 125.412295 239.660754 
" style="fill:none;stroke:#000080;stroke-linecap:square;stroke-width:1.5;"/>
    <defs>
     <path d="M -12 12 
L 12 -12 
M -12 -12 
L 12 12 
" id="m2acda5c711" style="stroke:#000080;"/>
    </defs>
    <g clip-path="url(#p2dab38dfc7)">
     <use style="fill:#000080;stroke:#000080;" x="125.412295" xlink:href="#m2acda5c711" y="239.660754"/>
    </g>
   </g>
   <g id="line2d_47">
    <defs>
     <path d="M 0 1.5 
C 0.397805 1.5 0.77937 1.341951 1.06066 1.06066 
C 1.341951 0.77937 1.5 0.397805 1.5 0 
C 1.5 -0.397805 1.341951 -0.77937 1.06066 -1.06066 
C 0.77937 -1.341951 0.397805 -1.5 0 -1.5 
C -0.397805 -1.5 -0.77937 -1.341951 -1.06066 -1.06066 
C -1.341951 -0.77937 -1.5 -0.397805 -1.5 0 
C -1.5 0.397805 -1.341951 0.77937 -1.06066 1.06066 
C -0.77937 1.341951 -0.397805 1.5 0 1.5 
z
" id="mbd22a8f3b5" style="stroke:#ff00ff;"/>
    </defs>
    <g>
     <use style="fill:#ff00ff;stroke:#ff00ff;" x="205.526235" xlink:href="#mbd22a8f3b5" y="72.605059"/>
     <use style="fill:#ff00ff;stroke:#ff00ff;" x="205.526235" xlink:href="#mbd22a8f3b5" y="72.605059"/>
    </g>
   </g>
   <g id="line2d_48">
    <path d="M 37.236359 294.88 
L 37.236359 285.793289 
L 83.784035 285.793289 
L 83.784035 283.975946 
L 90.367147 283.975946 
L 90.367147 283.836151 
L 92.564428 283.836151 
L 92.564428 283.696355 
L 93.238578 283.696355 
L 93.238578 283.416764 
L 93.887283 283.416764 
L 93.887283 282.717786 
L 94.512393 282.717786 
L 94.512393 282.438195 
L 95.115564 282.438195 
L 95.115564 280.620853 
L 95.698286 280.620853 
L 95.698286 280.481057 
L 96.261898 280.481057 
L 96.261898 279.502488 
L 96.807615 279.502488 
L 96.807615 278.803511 
L 97.336537 278.803511 
L 97.336537 278.104533 
L 97.849669 278.104533 
L 97.849669 276.566782 
L 98.347925 276.566782 
L 98.347925 275.728008 
L 98.832144 275.728008 
L 98.832144 275.168826 
L 100.643147 275.168826 
L 100.643147 274.050462 
L 101.067579 274.050462 
L 101.067579 273.77087 
L 101.88624 273.77087 
L 101.88624 273.071893 
L 102.281398 273.071893 
L 102.281398 272.792301 
L 102.667676 272.792301 
L 102.667676 272.093324 
L 103.045463 272.093324 
L 103.045463 271.673937 
L 103.415125 271.673937 
L 103.415125 271.114755 
L 103.777005 271.114755 
L 103.777005 270.695368 
L 104.131422 270.695368 
L 104.131422 270.275981 
L 104.478679 270.275981 
L 104.478679 270.136186 
L 105.480242 270.136186 
L 105.480242 269.99639 
L 106.11693 269.99639 
L 106.11693 269.856595 
L 106.730875 269.856595 
L 106.730875 269.157617 
L 107.029816 269.157617 
L 107.029816 269.017821 
L 107.896653 269.017821 
L 107.896653 268.73823 
L 108.721866 268.73823 
L 108.721866 268.458639 
L 108.988361 268.458639 
L 108.988361 268.318844 
L 109.509269 268.318844 
L 109.509269 268.179048 
L 109.76392 268.179048 
L 109.76392 268.039252 
L 110.262176 268.039252 
L 110.262176 267.759661 
L 110.505991 267.759661 
L 110.505991 265.942319 
L 110.983483 265.942319 
L 110.983483 265.662728 
L 111.217346 265.662728 
L 111.217346 265.522932 
L 111.448069 265.522932 
L 111.448069 265.243341 
L 111.675736 265.243341 
L 111.675736 265.103546 
L 111.900428 265.103546 
L 111.900428 264.96375 
L 112.122219 264.96375 
L 112.122219 264.823955 
L 112.341186 264.823955 
L 112.341186 264.544363 
L 112.770924 264.544363 
L 112.770924 264.264772 
L 112.98183 264.264772 
L 112.98183 263.70559 
L 113.599452 263.70559 
L 113.599452 262.727021 
L 113.999206 262.727021 
L 113.999206 262.307634 
L 114.389873 262.307634 
L 114.389873 262.028043 
L 114.771859 262.028043 
L 114.771859 261.748452 
L 114.959714 261.748452 
L 114.959714 261.468861 
L 115.511269 261.468861 
L 115.511269 261.18927 
L 115.691256 261.18927 
L 115.691256 260.769883 
L 115.869378 260.769883 
L 115.869378 260.490292 
L 116.045673 260.490292 
L 116.045673 260.350497 
L 116.220179 260.350497 
L 116.220179 259.511723 
L 116.39293 259.511723 
L 116.39293 259.092337 
L 116.563963 259.092337 
L 116.563963 258.812745 
L 116.73331 258.812745 
L 116.73331 258.533154 
L 117.06708 258.533154 
L 117.06708 258.113768 
L 117.394493 258.113768 
L 117.394493 257.973972 
L 117.55589 257.973972 
L 117.55589 257.554585 
L 117.715785 257.554585 
L 117.715785 257.135199 
L 117.874207 257.135199 
L 117.874207 256.855608 
L 118.031182 256.855608 
L 118.031182 256.15663 
L 118.186736 256.15663 
L 118.186736 256.016834 
L 118.340895 256.016834 
L 118.340895 255.178061 
L 118.493684 255.178061 
L 118.493684 254.479083 
L 118.645127 254.479083 
L 118.645127 254.059696 
L 119.09161 254.059696 
L 119.09161 253.500514 
L 119.237897 253.500514 
L 119.237897 253.220923 
L 119.382949 253.220923 
L 119.382949 252.521945 
L 119.526788 252.521945 
L 119.526788 251.822967 
L 119.810904 251.822967 
L 119.810904 251.683172 
L 119.95122 251.683172 
L 119.95122 251.12399 
L 120.0904 251.12399 
L 120.0904 250.984194 
L 120.365424 250.984194 
L 120.365424 250.704603 
L 120.501303 250.704603 
L 120.501303 250.425012 
L 120.769881 250.425012 
L 120.769881 250.285216 
L 120.902613 250.285216 
L 120.902613 249.726034 
L 121.034327 249.726034 
L 121.034327 249.586238 
L 121.16504 249.586238 
L 121.16504 249.166852 
L 121.294766 249.166852 
L 121.294766 249.027056 
L 121.42352 249.027056 
L 121.42352 248.60767 
L 121.551317 248.60767 
L 121.551317 248.188283 
L 121.678171 248.188283 
L 121.678171 247.209714 
L 121.804096 247.209714 
L 121.804096 246.790327 
L 122.053211 246.790327 
L 122.053211 246.370941 
L 122.176427 246.370941 
L 122.176427 246.231145 
L 122.298767 246.231145 
L 122.298767 245.392372 
L 122.540864 245.392372 
L 122.540864 245.112781 
L 122.660646 245.112781 
L 122.660646 244.553598 
L 122.779599 244.553598 
L 122.779599 244.274007 
L 122.897734 244.274007 
L 122.897734 243.854621 
L 123.015063 243.854621 
L 123.015063 243.575029 
L 123.247346 243.575029 
L 123.247346 243.015847 
L 123.476531 243.015847 
L 123.476531 242.456665 
L 123.589988 242.456665 
L 123.589988 242.316869 
L 123.7027 242.316869 
L 123.7027 241.897483 
L 123.814679 241.897483 
L 123.814679 241.617892 
L 123.925932 241.617892 
L 124.036471 241.198505 
L 124.146303 241.198505 
L 124.255437 240.918914 
L 124.363883 240.918914 
L 124.363883 240.639323 
L 124.578744 240.639323 
L 124.685175 240.219936 
L 124.790952 240.219936 
L 124.896081 239.940345 
L 125.104431 239.940345 
L 125.104431 239.520958 
L 125.310285 239.520958 
L 125.412295 238.961776 
L 125.513703 238.961776 
L 125.614517 238.682185 
L 125.714742 238.682185 
L 125.814387 238.402594 
L 125.913457 238.402594 
L 126.011959 237.284229 
L 126.207287 237.284229 
L 126.304124 236.585251 
L 126.40042 236.585251 
L 126.496178 235.746478 
L 126.68611 235.746478 
L 126.780294 234.767909 
L 126.873966 234.767909 
L 126.873966 234.348522 
L 127.05979 234.348522 
L 127.151955 233.78934 
L 127.243628 233.78934 
L 127.334814 233.369954 
L 127.42552 233.369954 
L 127.515749 232.810771 
L 127.605507 232.810771 
L 127.694799 232.391385 
L 127.783629 232.391385 
L 127.783629 232.111793 
L 128.047399 232.111793 
L 128.13443 230.434247 
L 128.221023 230.434247 
L 128.307181 229.735269 
L 128.478214 229.735269 
L 128.563096 229.315882 
L 128.647561 229.315882 
L 128.731613 228.616904 
L 128.815257 228.616904 
L 128.898495 227.917927 
L 128.981332 227.917927 
L 129.063771 227.358744 
L 129.145817 227.358744 
L 129.227474 226.659767 
L 129.308744 226.659767 
L 129.389632 226.100584 
L 129.470141 226.100584 
L 129.470141 225.820993 
L 129.630036 225.820993 
L 129.70943 224.562833 
L 129.788458 224.562833 
L 129.867125 224.003651 
L 129.945433 224.003651 
L 130.023386 223.584264 
L 130.100987 223.584264 
L 130.178239 222.326104 
L 130.255146 222.326104 
L 130.33171 220.928149 
L 130.407935 220.928149 
L 130.483823 218.831215 
L 130.559378 218.831215 
L 130.634602 217.852646 
L 130.709498 217.852646 
L 130.784069 216.594486 
L 130.858318 216.594486 
L 130.932248 215.615917 
L 131.005861 215.615917 
L 131.07916 214.777144 
L 131.152148 214.777144 
L 131.224827 213.379188 
L 131.2972 213.379188 
L 131.36927 212.680211 
L 131.441039 212.680211 
L 131.51251 211.561846 
L 131.583684 211.561846 
L 131.654565 210.583277 
L 131.725155 210.583277 
L 131.795457 209.884299 
L 131.865471 209.884299 
L 131.935202 208.206753 
L 132.004651 208.206753 
L 132.073821 206.948593 
L 132.142713 206.948593 
L 132.211331 204.991455 
L 132.279675 204.991455 
L 132.347749 202.61493 
L 132.415555 202.61493 
L 132.483094 201.776157 
L 132.550368 201.776157 
L 132.61738 200.657792 
L 132.684132 200.657792 
L 132.750626 198.84045 
L 132.816864 198.84045 
L 132.882847 197.442495 
L 132.948578 197.442495 
L 133.014059 195.904743 
L 133.079291 195.904743 
L 133.144276 195.06597 
L 133.209017 195.06597 
L 133.273515 193.528219 
L 133.337771 193.528219 
L 133.401789 191.850672 
L 133.465568 191.850672 
L 133.529112 189.194556 
L 133.592422 189.194556 
L 133.6555 188.77517 
L 133.718347 188.77517 
L 133.780965 187.656805 
L 133.843356 187.656805 
L 133.905521 185.420076 
L 133.967462 185.420076 
L 134.029181 184.721099 
L 134.090678 184.721099 
L 134.151957 184.161916 
L 134.213018 184.161916 
L 134.273863 183.043552 
L 134.334493 183.043552 
L 134.334493 182.624165 
L 134.455115 182.624165 
L 134.515111 181.22621 
L 134.574897 181.22621 
L 134.634477 179.688458 
L 134.69385 179.688458 
L 134.753019 178.570094 
L 134.811986 178.570094 
L 134.87075 178.010912 
L 134.98768 178.010912 
L 135.045848 176.612956 
L 135.10382 176.612956 
L 135.161597 175.354796 
L 135.21918 175.354796 
L 135.276571 173.95684 
L 135.333772 173.95684 
L 135.390782 173.397658 
L 135.447604 173.397658 
L 135.504239 171.580316 
L 135.560688 171.580316 
L 135.616951 170.881338 
L 135.673032 170.881338 
L 135.72893 169.762974 
L 135.784647 169.762974 
L 135.895542 167.945631 
L 135.950722 167.945631 
L 136.060554 167.246654 
L 136.115208 167.246654 
L 136.223997 165.708902 
L 136.278134 165.708902 
L 136.3859 163.89156 
L 136.439531 163.89156 
L 136.546293 163.052787 
L 136.652396 163.052787 
L 136.757848 161.794627 
L 136.810332 161.794627 
L 136.862657 161.235444 
L 137.018682 161.235444 
L 137.121917 160.816058 
L 137.173303 160.816058 
L 137.275617 159.977284 
L 137.326546 159.977284 
L 137.427955 159.138511 
L 137.528768 159.138511 
L 137.628993 158.579329 
L 137.728638 158.579329 
L 137.827708 157.880351 
L 137.926211 157.880351 
L 137.975251 157.460964 
L 138.218376 157.460964 
L 138.266591 156.901782 
L 138.362617 156.901782 
L 138.362617 156.622191 
L 138.505658 156.622191 
L 138.600361 156.202804 
L 138.647518 156.202804 
L 138.741445 155.923213 
L 138.834862 155.923213 
L 138.88138 155.503826 
L 138.974042 155.503826 
L 139.066206 154.944644 
L 139.112104 154.944644 
L 139.203533 154.385462 
L 139.339771 154.385462 
L 139.43 153.406893 
L 139.474938 153.406893 
L 139.564462 153.127302 
L 139.60905 153.127302 
L 139.60905 152.56812 
L 139.917968 152.56812 
L 139.96165 152.148733 
L 140.092032 152.148733 
L 140.135274 151.729346 
L 140.26435 151.729346 
L 140.307161 151.030369 
L 140.392465 151.030369 
L 140.477347 150.750777 
L 140.519632 150.750777 
L 140.561812 150.331391 
L 140.645865 150.331391 
L 140.729508 149.912004 
L 140.771177 149.912004 
L 140.854214 148.933435 
L 140.936852 148.933435 
L 140.936852 148.79364 
L 141.060069 148.79364 
L 141.100945 148.514048 
L 141.344185 148.514048 
L 141.424506 147.954866 
L 141.464526 147.954866 
L 141.544287 147.675275 
L 141.58403 147.675275 
L 141.58403 147.53548 
L 141.702709 147.53548 
L 141.781376 146.696706 
L 141.820574 146.696706 
L 141.898705 145.857933 
L 142.015238 145.857933 
L 142.053908 145.578342 
L 142.169397 145.578342 
L 142.245962 144.739568 
L 142.322186 144.739568 
L 142.398074 144.040591 
L 142.548853 144.040591 
L 142.586342 143.341613 
L 142.661075 143.341613 
L 142.735485 142.78243 
L 142.772569 142.78243 
L 142.883345 141.803862 
L 142.920112 141.803862 
L 142.956801 141.104884 
L 143.066399 141.104884 
L 143.139078 140.685497 
L 143.247524 140.685497 
L 143.247524 140.545702 
L 143.462385 140.545702 
L 143.568817 139.287541 
L 143.709708 139.287541 
L 143.709708 139.147746 
L 143.849453 139.147746 
L 143.953522 138.169177 
L 143.988072 138.169177 
L 144.091308 137.609995 
L 144.125582 137.609995 
L 144.193927 137.050813 
L 144.262 137.050813 
L 144.363608 136.072244 
L 144.397345 136.072244 
L 144.498158 135.652857 
L 144.631663 135.652857 
L 144.731115 134.534492 
L 144.797098 134.534492 
L 144.829995 133.97531 
L 144.92831 133.97531 
L 144.92831 133.835515 
L 145.090928 133.835515 
L 145.187766 132.996741 
L 145.252022 132.996741 
L 145.347959 132.157968 
L 145.37982 132.157968 
L 145.475048 131.039603 
L 145.601203 131.039603 
L 145.695216 130.760012 
L 145.72644 130.760012 
L 145.757607 130.480421 
L 145.85077 130.480421 
L 145.943432 129.641648 
L 146.035596 129.641648 
L 146.066208 129.222261 
L 146.157718 129.222261 
L 146.248744 128.802874 
L 146.33929 128.802874 
L 146.39939 127.824306 
L 146.459281 127.824306 
L 146.518964 127.544714 
L 146.57844 127.544714 
L 146.667271 127.125328 
L 146.726237 127.125328 
L 146.785001 126.42635 
L 146.843566 126.42635 
L 146.901931 126.146759 
L 147.133431 126.146759 
L 147.190823 125.727372 
L 147.248023 125.727372 
L 147.333468 125.16819 
L 147.41849 125.16819 
L 147.474939 124.748803 
L 147.643181 124.748803 
L 147.726689 123.91003 
L 147.754435 123.91003 
L 147.754435 123.770234 
L 148.002154 123.770234 
L 148.083939 123.071256 
L 148.165338 123.071256 
L 148.273273 122.65187 
L 148.300151 122.65187 
L 148.300151 122.512074 
L 148.433916 122.512074 
L 148.487131 122.092688 
L 148.593071 122.092688 
L 148.672099 121.39371 
L 148.724584 121.39371 
L 148.803011 120.694732 
L 148.907027 120.694732 
L 149.010418 120.415141 
L 149.036169 120.415141 
L 149.11319 119.855959 
L 149.189868 119.855959 
L 149.291576 119.576367 
L 149.342206 119.576367 
L 149.367465 119.296776 
L 149.46813 119.296776 
L 149.543245 118.87739 
L 149.642889 118.87739 
L 149.642889 118.737594 
L 149.791281 118.737594 
L 149.864999 118.318207 
L 149.962801 118.318207 
L 150.035789 117.339639 
L 150.084276 117.339639 
L 150.180842 117.060047 
L 150.204899 117.060047 
L 150.252912 116.780456 
L 150.348537 116.780456 
L 150.443634 116.081478 
L 150.490985 116.081478 
L 150.490985 115.941683 
L 150.679098 115.941683 
L 150.725806 115.662092 
L 150.795631 115.662092 
L 150.842025 115.242705 
L 150.91138 115.242705 
L 151.003421 114.683523 
L 151.049258 114.683523 
L 151.07213 114.403932 
L 151.163317 114.403932 
L 151.208729 113.704954 
L 151.276624 113.704954 
L 151.299196 113.145772 
L 151.411614 113.145772 
L 151.501022 112.446794 
L 151.545552 112.446794 
L 151.634268 112.027407 
L 151.766488 112.027407 
L 151.875901 111.328429 
L 151.962932 111.328429 
L 152.071105 110.210065 
L 152.114184 110.210065 
L 152.178602 109.790678 
L 152.306716 109.790678 
L 152.391598 109.511087 
L 152.433883 109.511087 
L 152.518141 109.0917 
L 152.560116 109.0917 
L 152.664606 108.252927 
L 152.685428 108.252927 
L 152.685428 108.113132 
L 152.851103 108.113132 
L 152.912822 107.83354 
L 152.99477 107.83354 
L 153.035598 107.553949 
L 153.157504 107.553949 
L 153.218134 107.134563 
L 153.318712 107.134563 
L 153.418704 106.57538 
L 153.438633 106.57538 
L 153.498281 106.155994 
L 153.557723 106.155994 
L 153.656339 105.457016 
L 153.793457 105.457016 
L 153.871321 105.037629 
L 153.929489 105.037629 
L 153.929489 104.897834 
L 154.064454 104.897834 
L 154.121973 104.618243 
L 154.274423 104.618243 
L 154.369023 104.05906 
L 154.38788 104.05906 
L 154.481859 103.639674 
L 154.500593 103.639674 
L 154.593959 103.080491 
L 154.649736 103.080491 
L 154.742297 102.8009 
L 154.962432 102.8009 
L 155.05333 102.521309 
L 155.107638 102.521309 
L 155.197773 101.962127 
L 155.287437 101.962127 
L 155.287437 101.682536 
L 155.447664 101.682536 
L 155.500742 101.123354 
L 155.728875 101.123354 
L 155.815818 100.004989 
L 155.867773 100.004989 
L 155.971216 99.445807 
L 156.005559 99.445807 
L 156.091117 98.886625 
L 156.125221 98.886625 
L 156.193228 98.467238 
L 156.244057 98.467238 
L 156.311596 98.187647 
L 156.362076 98.187647 
L 156.395648 97.908056 
L 156.479291 97.908056 
L 156.579129 97.069282 
L 156.711349 97.069282 
L 156.809852 96.649896 
L 157.150232 96.649896 
L 157.246258 95.950918 
L 157.436716 95.950918 
L 157.436716 95.811122 
L 157.609467 95.811122 
L 157.718503 94.972349 
L 157.734023 94.972349 
L 157.811415 94.552962 
L 157.949847 94.552962 
L 157.96516 94.133576 
L 158.147858 94.133576 
L 158.253541 93.853984 
L 158.388472 93.853984 
L 158.448103 93.434598 
L 158.522353 93.434598 
L 158.522353 93.294802 
L 158.655198 93.294802 
L 158.743194 92.875415 
L 158.845291 92.875415 
L 158.845291 92.73562 
L 158.975673 92.73562 
L 158.975673 92.456029 
L 159.119392 92.456029 
L 159.219284 92.176438 
L 159.445454 92.176438 
L 159.515526 91.757051 
L 159.585313 91.757051 
L 159.682542 91.197869 
L 159.984587 91.197869 
L 160.052499 90.918278 
L 160.133641 90.918278 
L 160.214403 90.498891 
L 160.281415 90.498891 
L 160.348167 90.2193 
L 160.427929 90.2193 
L 160.427929 90.079504 
L 160.638835 90.079504 
L 160.743325 89.799913 
L 160.782346 89.799913 
L 160.88597 89.380526 
L 161.001806 89.380526 
L 161.078598 88.821344 
L 161.116866 88.821344 
L 161.180457 87.842775 
L 161.243814 87.842775 
L 161.294331 87.423389 
L 161.394923 87.423389 
L 161.394923 87.283593 
L 161.532283 87.283593 
L 161.532283 87.143798 
L 161.705532 87.143798 
L 161.742431 86.864206 
L 162.046878 86.864206 
L 162.143173 86.584615 
L 162.215042 86.584615 
L 162.215042 86.44482 
L 162.357885 86.44482 
L 162.405236 86.165229 
L 162.49955 86.165229 
L 162.581652 85.606046 
L 162.860205 85.606046 
L 162.963509 85.326455 
L 163.066196 85.326455 
L 163.156961 85.046864 
L 163.559576 85.046864 
L 163.66976 84.627477 
L 163.68074 84.627477 
L 163.735533 84.208091 
L 163.877183 84.208091 
L 163.877183 84.068295 
L 164.124971 84.068295 
L 164.167702 83.788704 
L 164.242227 83.788704 
L 164.337573 83.509113 
L 164.411366 83.509113 
L 164.453392 83.089726 
L 164.939652 83.089726 
L 164.939652 82.949931 
L 165.051498 82.949931 
L 165.152548 82.530544 
L 165.27303 82.530544 
L 165.322982 82.111157 
L 165.462082 82.111157 
L 165.531211 81.831566 
L 166.055355 81.831566 
L 166.122144 81.551975 
L 166.245497 81.551975 
L 166.302131 81.132588 
L 166.50821 81.132588 
L 166.61033 80.713202 
L 166.803618 80.713202 
L 166.831054 80.433611 
L 167.01285 80.433611 
L 167.058 80.014224 
L 167.156915 80.014224 
L 167.156915 79.874428 
L 167.582003 79.874428 
L 167.582003 79.734633 
L 167.825201 79.734633 
L 167.928385 79.175451 
L 168.107479 79.175451 
L 168.192111 78.756064 
L 168.435212 78.756064 
L 168.435212 78.616268 
L 168.658498 78.616268 
L 168.658498 78.476473 
L 169.120564 78.476473 
L 169.120564 78.336677 
L 169.31937 78.336677 
L 169.335176 78.057086 
L 169.476776 78.057086 
L 169.53153 77.777495 
L 169.687014 77.777495 
L 169.748816 77.497904 
L 170.145201 77.497904 
L 170.145201 77.358108 
L 170.310189 77.358108 
L 170.310189 77.218313 
L 170.628164 77.218313 
L 170.628164 77.078517 
L 170.853806 77.078517 
L 170.954746 76.798926 
L 171.033643 76.798926 
L 171.033643 76.65913 
L 171.268182 76.65913 
L 171.268182 76.519335 
L 171.394777 76.519335 
L 171.394777 76.379539 
L 171.91924 76.379539 
L 171.91924 76.239744 
L 172.061379 76.239744 
L 172.074855 75.960153 
L 172.598879 75.960153 
L 172.61194 75.680562 
L 173.08836 75.680562 
L 173.08836 75.540766 
L 174.177039 75.540766 
L 174.177039 75.40097 
L 174.472486 75.40097 
L 174.472486 75.261175 
L 174.814703 75.261175 
L 174.814703 75.121379 
L 175.02589 75.121379 
L 175.02589 74.981584 
L 175.262512 74.981584 
L 175.368494 74.562197 
L 175.556531 74.562197 
L 175.573025 74.282606 
L 176.09262 74.282606 
L 176.09262 74.14281 
L 177.757992 74.14281 
L 177.757992 74.003015 
L 177.964825 74.003015 
L 177.964825 73.863219 
L 179.003786 73.863219 
L 179.017283 73.583628 
L 180.744432 73.583628 
L 180.829635 73.304037 
L 181.273108 73.304037 
L 181.273108 73.164241 
L 181.751519 73.164241 
L 181.751519 73.024446 
L 190.187082 73.024446 
L 190.187082 72.88465 
L 192.334321 72.88465 
L 192.334321 72.744855 
L 205.526235 72.744855 
L 205.526235 72.605059 
L 333.168 72.605059 
L 333.168 72.605059 
" style="fill:none;stroke:#ff00ff;stroke-linecap:square;stroke-width:1.5;"/>
   </g>
   <g id="line2d_49">
    <defs>
     <path d="M -0 8.485281 
L 5.091169 0 
L 0 -8.485281 
L -5.091169 -0 
z
" id="m0d32b5bc92" style="stroke:#ff00ff;stroke-linejoin:miter;stroke-width:1.5;"/>
    </defs>
    <g>
     <use style="fill:none;stroke:#ff00ff;stroke-linejoin:miter;stroke-width:1.5;" x="118.031182" xlink:href="#m0d32b5bc92" y="256.855608"/>
     <use style="fill:none;stroke:#ff00ff;stroke-linejoin:miter;stroke-width:1.5;" x="143.918903" xlink:href="#m0d32b5bc92" y="138.448768"/>
     <use style="fill:none;stroke:#ff00ff;stroke-linejoin:miter;stroke-width:1.5;" x="181.751519" xlink:href="#m0d32b5bc92" y="73.024446"/>
     <use style="fill:none;stroke:#ff00ff;stroke-linejoin:miter;stroke-width:1.5;" x="205.526235" xlink:href="#m0d32b5bc92" y="72.605059"/>
     <use style="fill:none;stroke:#ff00ff;stroke-linejoin:miter;stroke-width:1.5;" x="205.526235" xlink:href="#m0d32b5bc92" y="72.605059"/>
     <use style="fill:none;stroke:#ff00ff;stroke-linejoin:miter;stroke-width:1.5;" x="333.168" xlink:href="#m0d32b5bc92" y="72.605059"/>
    </g>
   </g>
   <g id="line2d_50">
    <path style="fill:none;stroke:#ff00ff;stroke-linecap:square;stroke-width:1.5;"/>
    <g/>
   </g>
   <g id="line2d_51">
    <path clip-path="url(#p2dab38dfc7)" d="M 125.412295 238.961776 
" style="fill:none;stroke:#ff00ff;stroke-linecap:square;stroke-width:1.5;"/>
    <defs>
     <path d="M -12 12 
L 12 -12 
M -12 -12 
L 12 12 
" id="md49d5110e6" style="stroke:#ff00ff;"/>
    </defs>
    <g clip-path="url(#p2dab38dfc7)">
     <use style="fill:#ff00ff;stroke:#ff00ff;" x="125.412295" xlink:href="#md49d5110e6" y="238.961776"/>
    </g>
   </g>
   <g id="line2d_52">
    <path d="M 333.168 72.605059 
L 363.64328 289.176341 
" style="fill:none;stroke:#ff00ff;stroke-linecap:square;stroke-width:1.5;"/>
    <g>
     <use style="fill:none;stroke:#ff00ff;stroke-linejoin:miter;stroke-width:1.5;" x="333.168" xlink:href="#m0d32b5bc92" y="72.605059"/>
     <use style="fill:none;stroke:#ff00ff;stroke-linejoin:miter;stroke-width:1.5;" x="363.64328" xlink:href="#m0d32b5bc92" y="289.176341"/>
    </g>
   </g>
   <g id="line2d_53">
    <path d="M 333.168 72.605059 
L 363.64328 152.288529 
" style="fill:none;stroke:#000080;stroke-linecap:square;stroke-width:1.5;"/>
    <g>
     <use style="fill:none;stroke:#000080;stroke-width:1.5;" x="333.168" xlink:href="#m6983564ee1" y="72.605059"/>
     <use style="fill:none;stroke:#000080;stroke-width:1.5;" x="363.64328" xlink:href="#m6983564ee1" y="152.288529"/>
    </g>
   </g>
   <g id="line2d_54">
    <path d="M 333.168 294.88 
L 333.168 9.697057 
" style="fill:none;stroke:#000000;stroke-linecap:square;stroke-width:1.5;"/>
   </g>
   <g id="patch_3">
    <path d="M 56.12 294.88 
L 56.12 6.845228 
" style="fill:none;stroke:#000000;stroke-linecap:square;stroke-linejoin:miter;stroke-width:0.8;"/>
   </g>
   <g id="patch_4">
    <path d="M 333.168 294.88 
L 333.168 6.845228 
" style="fill:none;stroke:#000000;stroke-linecap:square;stroke-linejoin:miter;stroke-width:0.8;"/>
   </g>
   <g id="patch_5">
    <path d="M 56.12 294.88 
L 333.168 294.88 
" style="fill:none;stroke:#000000;stroke-linecap:square;stroke-linejoin:miter;stroke-width:0.8;"/>
   </g>
   <g id="patch_6">
    <path d="M 56.12 6.845228 
L 333.168 6.845228 
" style="fill:none;stroke:#000000;stroke-linecap:square;stroke-linejoin:miter;stroke-width:0.8;"/>
   </g>
   <g id="text_13">
    <!-- scipy-opt -->
    <defs>
     <path d="M 32.171875 -5.078125 
Q 28.375 -14.84375 24.75 -17.8125 
Q 21.140625 -20.796875 15.09375 -20.796875 
L 7.90625 -20.796875 
L 7.90625 -13.28125 
L 13.1875 -13.28125 
Q 16.890625 -13.28125 18.9375 -11.515625 
Q 21 -9.765625 23.484375 -3.21875 
L 25.09375 0.875 
L 2.984375 54.6875 
L 12.5 54.6875 
L 29.59375 11.921875 
L 46.6875 54.6875 
L 56.203125 54.6875 
z
" id="DejaVuSans-79"/>
    </defs>
    <g transform="translate(369.18424 293.867279)scale(0.17 -0.17)">
     <use xlink:href="#DejaVuSans-73"/>
     <use x="52.099609" xlink:href="#DejaVuSans-63"/>
     <use x="107.080078" xlink:href="#DejaVuSans-69"/>
     <use x="134.863281" xlink:href="#DejaVuSans-70"/>
     <use x="198.339844" xlink:href="#DejaVuSans-79"/>
     <use x="257.503906" xlink:href="#DejaVuSans-2d"/>
     <use x="293.603516" xlink:href="#DejaVuSans-6f"/>
     <use x="354.785156" xlink:href="#DejaVuSans-70"/>
     <use x="418.261719" xlink:href="#DejaVuSans-74"/>
    </g>
   </g>
   <g id="text_14">
    <!-- scipyAlg -->
    <defs>
     <path d="M 34.1875 63.1875 
L 20.796875 26.90625 
L 47.609375 26.90625 
z
M 28.609375 72.90625 
L 39.796875 72.90625 
L 67.578125 0 
L 57.328125 0 
L 50.6875 18.703125 
L 17.828125 18.703125 
L 11.1875 0 
L 0.78125 0 
z
" id="DejaVuSans-41"/>
    </defs>
    <g transform="translate(369.18424 156.979466)scale(0.17 -0.17)">
     <use xlink:href="#DejaVuSans-73"/>
     <use x="52.099609" xlink:href="#DejaVuSans-63"/>
     <use x="107.080078" xlink:href="#DejaVuSans-69"/>
     <use x="134.863281" xlink:href="#DejaVuSans-70"/>
     <use x="198.339844" xlink:href="#DejaVuSans-79"/>
     <use x="257.519531" xlink:href="#DejaVuSans-41"/>
     <use x="325.927734" xlink:href="#DejaVuSans-6c"/>
     <use x="353.710938" xlink:href="#DejaVuSans-67"/>
    </g>
   </g>
   <g id="text_15">
    <!-- best 2009 -->
    <defs>
     <path d="M 48.6875 27.296875 
Q 48.6875 37.203125 44.609375 42.84375 
Q 40.53125 48.484375 33.40625 48.484375 
Q 26.265625 48.484375 22.1875 42.84375 
Q 18.109375 37.203125 18.109375 27.296875 
Q 18.109375 17.390625 22.1875 11.75 
Q 26.265625 6.109375 33.40625 6.109375 
Q 40.53125 6.109375 44.609375 11.75 
Q 48.6875 17.390625 48.6875 27.296875 
z
M 18.109375 46.390625 
Q 20.953125 51.265625 25.265625 53.625 
Q 29.59375 56 35.59375 56 
Q 45.5625 56 51.78125 48.09375 
Q 58.015625 40.1875 58.015625 27.296875 
Q 58.015625 14.40625 51.78125 6.484375 
Q 45.5625 -1.421875 35.59375 -1.421875 
Q 29.59375 -1.421875 25.265625 0.953125 
Q 20.953125 3.328125 18.109375 8.203125 
L 18.109375 0 
L 9.078125 0 
L 9.078125 75.984375 
L 18.109375 75.984375 
z
" id="DejaVuSans-62"/>
     <path d="M 10.984375 1.515625 
L 10.984375 10.5 
Q 14.703125 8.734375 18.5 7.8125 
Q 22.3125 6.890625 25.984375 6.890625 
Q 35.75 6.890625 40.890625 13.453125 
Q 46.046875 20.015625 46.78125 33.40625 
Q 43.953125 29.203125 39.59375 26.953125 
Q 35.25 24.703125 29.984375 24.703125 
Q 19.046875 24.703125 12.671875 31.3125 
Q 6.296875 37.9375 6.296875 49.421875 
Q 6.296875 60.640625 12.9375 67.421875 
Q 19.578125 74.21875 30.609375 74.21875 
Q 43.265625 74.21875 49.921875 64.515625 
Q 56.59375 54.828125 56.59375 36.375 
Q 56.59375 19.140625 48.40625 8.859375 
Q 40.234375 -1.421875 26.421875 -1.421875 
Q 22.703125 -1.421875 18.890625 -0.6875 
Q 15.09375 0.046875 10.984375 1.515625 
z
M 30.609375 32.421875 
Q 37.25 32.421875 41.125 36.953125 
Q 45.015625 41.5 45.015625 49.421875 
Q 45.015625 57.28125 41.125 61.84375 
Q 37.25 66.40625 30.609375 66.40625 
Q 23.96875 66.40625 20.09375 61.84375 
Q 16.21875 57.28125 16.21875 49.421875 
Q 16.21875 41.5 20.09375 36.953125 
Q 23.96875 32.421875 30.609375 32.421875 
z
" id="DejaVuSans-39"/>
    </defs>
    <g transform="translate(369.18424 20.091654)scale(0.17 -0.17)">
     <use xlink:href="#DejaVuSans-62"/>
     <use x="63.476562" xlink:href="#DejaVuSans-65"/>
     <use x="125" xlink:href="#DejaVuSans-73"/>
     <use x="177.099609" xlink:href="#DejaVuSans-74"/>
     <use x="216.308594" xlink:href="#DejaVuSans-20"/>
     <use x="248.095703" xlink:href="#DejaVuSans-32"/>
     <use x="311.71875" xlink:href="#DejaVuSans-30"/>
     <use x="375.341797" xlink:href="#DejaVuSans-30"/>
     <use x="438.964844" xlink:href="#DejaVuSans-39"/>
    </g>
   </g>
   <g id="text_16">
    <!-- bbob f6-f9, 3-D -->
    <defs>
     <path d="M 40.578125 39.3125 
Q 47.65625 37.796875 51.625 33 
Q 55.609375 28.21875 55.609375 21.1875 
Q 55.609375 10.40625 48.1875 4.484375 
Q 40.765625 -1.421875 27.09375 -1.421875 
Q 22.515625 -1.421875 17.65625 -0.515625 
Q 12.796875 0.390625 7.625 2.203125 
L 7.625 11.71875 
Q 11.71875 9.328125 16.59375 8.109375 
Q 21.484375 6.890625 26.8125 6.890625 
Q 36.078125 6.890625 40.9375 10.546875 
Q 45.796875 14.203125 45.796875 21.1875 
Q 45.796875 27.640625 41.28125 31.265625 
Q 36.765625 34.90625 28.71875 34.90625 
L 20.21875 34.90625 
L 20.21875 43.015625 
L 29.109375 43.015625 
Q 36.375 43.015625 40.234375 45.921875 
Q 44.09375 48.828125 44.09375 54.296875 
Q 44.09375 59.90625 40.109375 62.90625 
Q 36.140625 65.921875 28.71875 65.921875 
Q 24.65625 65.921875 20.015625 65.03125 
Q 15.375 64.15625 9.8125 62.3125 
L 9.8125 71.09375 
Q 15.4375 72.65625 20.34375 73.4375 
Q 25.25 74.21875 29.59375 74.21875 
Q 40.828125 74.21875 47.359375 69.109375 
Q 53.90625 64.015625 53.90625 55.328125 
Q 53.90625 49.265625 50.4375 45.09375 
Q 46.96875 40.921875 40.578125 39.3125 
z
" id="DejaVuSans-33"/>
     <path d="M 19.671875 64.796875 
L 19.671875 8.109375 
L 31.59375 8.109375 
Q 46.6875 8.109375 53.6875 14.9375 
Q 60.6875 21.78125 60.6875 36.53125 
Q 60.6875 51.171875 53.6875 57.984375 
Q 46.6875 64.796875 31.59375 64.796875 
z
M 9.8125 72.90625 
L 30.078125 72.90625 
Q 51.265625 72.90625 61.171875 64.09375 
Q 71.09375 55.28125 71.09375 36.53125 
Q 71.09375 17.671875 61.125 8.828125 
Q 51.171875 0 30.078125 0 
L 9.8125 0 
z
" id="DejaVuSans-44"/>
    </defs>
    <g transform="translate(58.89048 17.475982)scale(0.102 -0.102)">
     <use xlink:href="#DejaVuSans-62"/>
     <use x="63.476562" xlink:href="#DejaVuSans-62"/>
     <use x="126.953125" xlink:href="#DejaVuSans-6f"/>
     <use x="188.134766" xlink:href="#DejaVuSans-62"/>
     <use x="251.611328" xlink:href="#DejaVuSans-20"/>
     <use x="283.398438" xlink:href="#DejaVuSans-66"/>
     <use x="318.603516" xlink:href="#DejaVuSans-36"/>
     <use x="382.226562" xlink:href="#DejaVuSans-2d"/>
     <use x="418.310547" xlink:href="#DejaVuSans-66"/>
     <use x="453.515625" xlink:href="#DejaVuSans-39"/>
     <use x="517.138672" xlink:href="#DejaVuSans-2c"/>
     <use x="548.925781" xlink:href="#DejaVuSans-20"/>
     <use x="580.712891" xlink:href="#DejaVuSans-33"/>
     <use x="644.335938" xlink:href="#DejaVuSans-2d"/>
     <use x="680.419922" xlink:href="#DejaVuSans-44"/>
    </g>
    <!-- 51 targets: 100..1e-08 -->
    <defs>
     <path d="M 10.796875 72.90625 
L 49.515625 72.90625 
L 49.515625 64.59375 
L 19.828125 64.59375 
L 19.828125 46.734375 
Q 21.96875 47.46875 24.109375 47.828125 
Q 26.265625 48.1875 28.421875 48.1875 
Q 40.625 48.1875 47.75 41.5 
Q 54.890625 34.8125 54.890625 23.390625 
Q 54.890625 11.625 47.5625 5.09375 
Q 40.234375 -1.421875 26.90625 -1.421875 
Q 22.3125 -1.421875 17.546875 -0.640625 
Q 12.796875 0.140625 7.71875 1.703125 
L 7.71875 11.625 
Q 12.109375 9.234375 16.796875 8.0625 
Q 21.484375 6.890625 26.703125 6.890625 
Q 35.15625 6.890625 40.078125 11.328125 
Q 45.015625 15.765625 45.015625 23.390625 
Q 45.015625 31 40.078125 35.4375 
Q 35.15625 39.890625 26.703125 39.890625 
Q 22.75 39.890625 18.8125 39.015625 
Q 14.890625 38.140625 10.796875 36.28125 
z
" id="DejaVuSans-35"/>
     <path d="M 11.71875 12.40625 
L 22.015625 12.40625 
L 22.015625 0 
L 11.71875 0 
z
M 11.71875 51.703125 
L 22.015625 51.703125 
L 22.015625 39.3125 
L 11.71875 39.3125 
z
" id="DejaVuSans-3a"/>
    </defs>
    <g transform="translate(58.89048 28.89775)scale(0.102 -0.102)">
     <use xlink:href="#DejaVuSans-35"/>
     <use x="63.623047" xlink:href="#DejaVuSans-31"/>
     <use x="127.246094" xlink:href="#DejaVuSans-20"/>
     <use x="159.033203" xlink:href="#DejaVuSans-74"/>
     <use x="198.242188" xlink:href="#DejaVuSans-61"/>
     <use x="259.521484" xlink:href="#DejaVuSans-72"/>
     <use x="300.619141" xlink:href="#DejaVuSans-67"/>
     <use x="364.095703" xlink:href="#DejaVuSans-65"/>
     <use x="425.619141" xlink:href="#DejaVuSans-74"/>
     <use x="464.828125" xlink:href="#DejaVuSans-73"/>
     <use x="516.927734" xlink:href="#DejaVuSans-3a"/>
     <use x="550.619141" xlink:href="#DejaVuSans-20"/>
     <use x="582.40625" xlink:href="#DejaVuSans-31"/>
     <use x="646.029297" xlink:href="#DejaVuSans-30"/>
     <use x="709.652344" xlink:href="#DejaVuSans-30"/>
     <use x="773.275391" xlink:href="#DejaVuSans-2e"/>
     <use x="805.0625" xlink:href="#DejaVuSans-2e"/>
     <use x="836.849609" xlink:href="#DejaVuSans-31"/>
     <use x="900.472656" xlink:href="#DejaVuSans-65"/>
     <use x="961.996094" xlink:href="#DejaVuSans-2d"/>
     <use x="998.080078" xlink:href="#DejaVuSans-30"/>
     <use x="1061.703125" xlink:href="#DejaVuSans-38"/>
    </g>
    <!-- 15 instances -->
    <g transform="translate(58.89048 40.319519)scale(0.102 -0.102)">
     <use xlink:href="#DejaVuSans-31"/>
     <use x="63.623047" xlink:href="#DejaVuSans-35"/>
     <use x="127.246094" xlink:href="#DejaVuSans-20"/>
     <use x="159.033203" xlink:href="#DejaVuSans-69"/>
     <use x="186.816406" xlink:href="#DejaVuSans-6e"/>
     <use x="250.195312" xlink:href="#DejaVuSans-73"/>
     <use x="302.294922" xlink:href="#DejaVuSans-74"/>
     <use x="341.503906" xlink:href="#DejaVuSans-61"/>
     <use x="402.783203" xlink:href="#DejaVuSans-6e"/>
     <use x="466.162109" xlink:href="#DejaVuSans-63"/>
     <use x="521.142578" xlink:href="#DejaVuSans-65"/>
     <use x="582.666016" xlink:href="#DejaVuSans-73"/>
    </g>
   </g>
   <g id="text_17">
    <!-- v0.0.0 -->
    <g style="fill:#808080;" transform="translate(178.96275 289.919965)scale(0.1 -0.1)">
     <use xlink:href="#DejaVuSans-76"/>
     <use x="59.179688" xlink:href="#DejaVuSans-30"/>
     <use x="122.802734" xlink:href="#DejaVuSans-2e"/>
     <use x="154.589844" xlink:href="#DejaVuSans-30"/>
     <use x="218.212891" xlink:href="#DejaVuSans-2e"/>
     <use x="250" xlink:href="#DejaVuSans-30"/>
    </g>
   </g>
  </g>
 </g>
 <defs>
  <clipPath id="p2dab38dfc7">
   <rect height="288.034772" width="277.048" x="56.12" y="6.845228"/>
  </clipPath>
 </defs>
</svg>
